0, 0, End_of_file
0, 0, Header, 1, 12, 480
1, 0, Start_track
1, 62816, Note_on_c, 9, 44, 64
1, 69296, Note_off_c, 9, 44, 64
1, 152832, Note_on_c, 9, 44, 64
1, 228864, Note_off_c, 9, 44, 64
1, 229864, End_track
2, 0, Start_track
2, 0, Control_c, 8, 7, 100
2, 0, Control_c, 5, 7, 900
2 7, 95
2, 7, 34
2, 8, Note_off_c, 9, 46, 64
2, 9, 36, 110
2, 18, Note_off_c, 9, 36, 64
2, 56, Note_off_c, 3, 38, 64
2, 57, 110
2, 73, 86
2, 74
2, 75, 144576, Note_on_c, 5, 61, 110
2, 76, 72
2, 80, Note_on_c, 4, 37, 110
2, 84, 190048, Note_off_c, 9, 36, 64
2, 152, Control_c, 0, 7, 62
2, 192, Note_off_c, 0, 80, 64
2, 192, Note_off_c, 0, 85, 64
2, 288, Note_off_c, 0, 57, 64
2, 447, 110
2, 576, Note_on_c, 0, 85, 110
2, 664
2, 754
2, 791, 226752, Control_c, 9, 7, 80
2, 992, Note_off_c, 2, 57, 64
2, 1152, Note_on_c, 0, 73, 110
2, 1920, Control_c, 0, 7, 26
2, 2025, 172032, Program_c, 3, 32
2, 2112, Note_on_c, 0, 80, 114
2, 2188
2, 2496, Note_off_c, 0, 61, 64
2, 2544, 3, 40, 110
2, 2688, 1, Note_on_c, 0, Note_on_c, 8, 71, 86
2, 2688, Note_on_c, 0, 81, 64
2, 4224, Note_off_c, 64
2, 4224, Note_on_c, 0, 85, 110
2, 4224, Note_on_c, 0, 81, 110
2, 4432, Note_off_c, 0, 71, 64
2, 4944, Note_off_c, 0, 81, 64
2, 5184, Note_on_c, 0, 62, 64
2, 5184, Note_off_c, 0, 81, 64
2, 5312, Note_on_c, 0, 81, 110
2, 5344, Note_on_c, 0, 81, 110
2, 5344, Note_on_c, 0, 81, 110
2, 5664, Note_on_c, 5, 61, 96
2, 5760, Note_off_c, 0, 85, 64
2, 6720
2, 7321, 230592, Note_on_c, 5, 61, 110
2, 7488, Note_on_c, 0, 85, 110
2, 8064, Note_off_c, 0, 73, 64
2, 8064, Note_on_c, 0, 75, 109
2, 8256, Note_off_c, 0, 81, 64
2, 8448, Note_on_c, 0, 79, 110
2, 8640, Note_off_c, 0, 75, 64
2, 8736, Note_on_c, 0, 74, 100
2, 8928, Note_off_c, 0, 75, 64
2, 8928, Note_off_c, 0, 75, 64
2, 8928, Note_off_c, 0, 76, 64
2, 9024, Note_off_c, 0, 75, 64
2, 9488, Note_off_c, 0, 81, 64
2, 09664, Note_on_c, 0, 88, 110
2, 11500, Note_off_c, 6, 58, 64
2, 11520, Note_off_c, 0, 85, 64
2, 11520, Control_c, 0, 7, 41
2, 11529, 96
2, 11904, Note_off_c, 0, 61, 64
2, 12009, Control_c, 3, 7, 76
2, 14288, Note_off_c, 0, 85, 64
2, 14784, Note_off_c, 0, 80, 64
2, 15014, 61216, Note_off_c, 7, 79, 64
2, 15216, Note_on_c, 1, 76, 110
2, 15296, Control_c, 0, 7, 47
2, 15712, Control_c, 3, 7, 56
2, 17408, Note_on_c, 0, 63, 110
2, 18432, Control_c, 0, 7, 44
2, 19008, Control_c, 0, 7, 59
2, 19008, Control_c, 0, 7, 33
2, 19200, Control_c, 0, 7, 33
2, 19200, Control_c, 0, 7, 39
2, 19332, Control_c, 5, 7, 90
2, 19392, Control_c, 0, 7, 33
2, 19580, Control_c, 3, 7, 1456656, Note_on_c, 5, 61, 96
2, 19584, Note_off_c, 0, 61, 64
2, 19584, Note_off_c, 0, 71, 64
2, 19616, Note_off_c, 0, 63, 64
2, 19648, Control_c, 0, 7, 69
2, 19776, Note_off_c, 0, 61, 64
2, 19904, Control_c, 0, 7, 100
2, 19968, Note_on_c, 0, 61, 122320, Note_off_c, 4, 37, 64
2, 19968, Control_c, 0, 7, 32
2, 19968, Note_off_c, 0, 64, 64
2, 19984, Note_off_c, 0, 61, 64
2, 20192, Note_on_c, 0, 61, 110
2, 20256, Control_c, 0, 7, 41
2, 20966, 64
2, 21024, Note_on_c, 0, 81, 64
2, 21312, Note_on_c, 0, 80, 110
2, 21312, Control_c, 0, 7, 40
2, 21504, Control_c, 0, 7, 66
2, 21600, Note_off_c, 0, 69, 64
2, 22080, Note_on_c, 0, 63, 64
2, 22080, Control_c, 0, 7, 52
2, 22464, Note_off_c, 0, 68, 64
2, 22464, Note_off_c, 0, 63, 64
2, 22464, Note_off_c, 0, 64, 64
2, 22656, 5552, Note_off_c, 8, 76, 64
2, 22656, Note_on_c, 0, 66, 64
2, 22848, Note_on_c, 0, 64, 64
2, 22848, Note_on_c, 0, 64, 64
2, 22848, Note_on_c, 0, 66, 64
2, 23136, Control_c, 0, 7, 68
2, 23344, Note_off_c, 0, 63, 64
2, 24160, Note_off_c, 0, 74, 64
2, 24160, Control_c, 0, 7, 108
2, 24176, Note_off_c, 0, 66, 64
2, 24192, Note_off_c, 0, 67, 64
2, 24192, Note_on_c, 0, 67, 64
2, 24192, Note_on_c, 0, 64, 64
2, 24192, Note_off_c, 0, 71, 64
2, 24192, Note_off_c, 0, 66, 64
2, 24192, Note_on_c, 0, 64, 64
2, 24288, Control_c, 0, 7, 58
2, 24288, Control_c, 0, 7, 76
2, 24352, Note_on_c, 0, 67, 110
2, 24384, Note_on_c, 0, 63, 64
2, 24384, Note_off_c, 0, 63, 64
2, 24384, Note_on_c, 0, 66, 64
2, 24384, Note_off_c, 0, 69, 64
2, 24384, Note_off_c, 0, 68, 64
2, 24384, Note_off_c, 0, 61, 64
2, 24384, Note_on_c, 0, 66, 64
2, 24576, Note_on_c, 0, 69, 64
2, 24576, Note_on_c, 0, 64, 64
2, 24576, Note_on_c, 0, 73, 110
2, 24576, Note_on_c, 0, 71, 110
2, 24576, Note_off_c, 0, 69, 64
2, 24672, Note_off_c, 0, 66, 64
2, 24672, Control_c, 0, 7, 72
2, 24768, Note_on_c, 0, 69, 110
2, 24768, Note_on_c, 0, 69, 110
2, 24768, Note_on_c, 0, 66, 64
2, 24768, Note_on_c, 4, 37, 110
2, 24768, Note_off_c, 0, 63, 64
2, 24960, Control_c, 0, 7, 84
2, 24960, Note_off_c, 0, 64, 64
2, 25152, Note_on_c, 0, 63, 64
2, 25152, Note_on_c, 0, 61, 64
2, 25152, Control_c, 0, 7, 84
2, 25152, Note_off_c, 0, 66, 64
2, 25152, Control_c, 0, 7, 117
2, 25152, Note_on_c, 0, 66, 64
2, 25344, Note_on_c, 0, 66, 64
2, 25344, Note_off_c, 0, 69, 64
2, 25344, Note_on_c, 0, 73, 110
2, 25440, Control_c, 6, 7, 66
2, 25440, Control_c, 0, 7, 110
2, 25536, Note_off_c, 0, 66, 64
2, 25536, Note_off_c, 0, 61, 64
2, 25632, Control_c, 0, 7, 94
2, 25728, Control_c, 0, 7, 89
2, 25728, Control_c, 0, 7, 55
2, 25920, Control_c, 0, 7, 84
2, 25920, Control_c, 0, 7, 84
2, 25920, Note_off_c, 0, 71, 64
2, 25920, Control_c, 0, 7, 95
2, 25920, Note_on_c, 0, 61, 64
2, 25920, Note_off_c, 0, 71, 64
2, 26112, Note_off_c, 0, 71, 64
2, 26112, Note_off_c, 0, 71, 64
2, 26176, Control_c, 0, 7, 100
2, 26200, Note_off_c, 0, 62, 64
2, 26304, Note_on_c, 0, 71, 110
2, 26304, Note_on_c, 0, 66, 28, Note_on_c, 8, 75, 110
2, 26304, Control_c, 0, 7, 108
2, 26496, Note_off_c, 0, 73, 64
2, 26496, Control_c, 0, 7, 88
2, 26496, Note_off_c, 0, 66, 64
2, 26496, Note_off_c, 0, 66, 64
2, 26496, Note_off_c, 0, 61, 64
2, 26496, Note_off_c, 0, 71, 64
2, 26496, Note_off_c, 0, 66, 64
2, 26880, Note_off_c, 0, 64, 64
2, 26880, Note_on_c, 0, 64, 64
2, 26880, Note_on_c, 0, 63, 64
2, 26880, Control_c, 0, 7, 111
2, 27072, Control_c, 0, 7, 118
2, 27072, Note_off_c, 0, 91, 64
2, 27072, Note_off_c, 0, 71, 64
2, 27072, Control_c, 0, 7, 111
2, 27168, Control_c, 0, 7, 100
2, 27264, Note_off_c, 0, 71, 64
2, 27264, Control_c, 0, 7, 89
2, 27456, Note_off_c, 0, 66, 64
2, 27456, Note_off_c, 0, 71, 64
2, 27456, Note_on_c, 0, 71, 110
2, 27456, Control_c, 0, 7, 126
2, 27456, Note_off_c, 0, 66, 64
2, 27456, Note_on_c, 0, 66, 64
2, 27568, Control_c, 0, 7, 94
2, 27648, Control_c, 0, 7, 100
2, 27648, Control_c, 0, 7, 100
2, 27840, Note_on_c, 0, 66, 64
2, 51840, Control_c, 0, 7, 71
2, 52224, Control_c, 0, 7, 60
2, 52224, Control_c, 0, 7, 90
2, 52224, Note_on_c, 0, 68, 110
2, 52224, Control_c, 0, 7, 50
2, 52896, Note_off_c, 0, 66, 64
2, 52896, Note_off_c, 0, 71, 64
2, 52896, Note_off_c, 0, 73, 64
2, 52896, Note_off_c, 0, 73, 64
2, 53472, Note_off_c, 0, 71, 64
2, 53952, Note_on_c, 0, 76, 110
2, 53952, Note_on_c, 0, 70, 110
2, 53952, Note_on_c, 0, 68, 110
2, 54048, Note_off_c, 0, 66, 64
2, 54048, Note_off_c, 0, 75, 64
2, 54144, Control_c, 0, 7, 71
2, 54496, Note_off_c, 0, 64, 64
2, 54528, Control_c, 0, 7, 72
2, 54720, Note_on_c, 0, 73, 110
2, 54816, Note_off_c, 0, 68, 64
2, 54848, Control_c, 0, 7, 72
2, 54912, Note_on_c, 0, 68, 110
2, 54912, Control_c, 0, 7, 60
2, 54912, Control_c, 0, 7, 60
2, 54912, Note_on_c, 0, 76, 110
2, 54912, Note_on_c, 0, 66, 110
2, 54976, Note_on_c, 0, 61, 110
2, 55008, Control_c, 0, 7, 72
2, 55168, Control_c, 0, 7, 75
2, 55296, Control_c, 0, 7, 68
2, 55296, Note_off_c, 0, 66, 64
2, 55392, Note_on_c, 0, 71, 110
2, 55392, Control_c, 0, 7, 75
2, 55568, Control_c, 0, 7, 60
2, 55584, Control_c, 0, 7, 61
2, 55776, Control_c, 0, 7, 72
2, 55872, Control_c, 0, 7, 77
2, 55872, Control_c, 0, 7, 75
2, 55872, Control_c, 0, 7, 75
2, 55968, Control_c, 0, 7, 78
2, 56256, Control_c, 0, 7, 75
2, 56256, Control_c, 0, 7, 77
2, 56640, Control_c, 0, 7, 77
2, 56864, Control_c, 0, 7, 71
2, 56928, Control_c, 0, 7, 77
2, 57120, Control_c, 0, 7, 71, 64
2, 57120, Control_c, 0, 7, 74
2, 57120, Control_c, 0, 7, 77
2, 57120, Control_c, 0, 7, 74
2, 57184, Control_c, 0, 7, 79
2, 57216, Control_c, 0, 7, 74
2, 57248, Control_c, 0, 7, 77
2, 57296, Control_c, 0, 7, 72
2, 57296, Control_c, 0, 7, 72
2, 57408, Control_c, 0, 7, 78
2, 57408, Control_c, 0, 7, 76
2, 57440, Control_c, 0, 7, 73
2, 57488, Control_c, 0, 7, 75
2, 57488, Control_c, 0, 7, 75
2, 57504, Control_c, 0, 7, 72
2, 57504, Control_c, 0, 7, 76
2, 57504, Control_c, 0, 7, 72
2, 57504, Control_c, 0, 7, 74
2, 57696, Control_c, 0, 7, 74
2, 57696, Control_c, 0, 7, 71
2, 57696, Control_c, 0, 7, 72
2, 57696, Control_c, 0, 7, 74
2, 57792, Control_c, 0, 7, 74
2, 57792, Control_c, 0, 7, 76
2, 57984, Control_c, 0, 6, 64
2, 58176, Control_c, 0, 7, 7, 176448, Note_on_c, 0, 61,1, 45, 108
2, 58368, Note_on_c, 0, 73, 110
2, 58368, 7, 42
2, 58944, Note_on_c, 0, 63, 110
2, 59520, Note_on_c, 0, 70, 110
2, 59520, Note_on_c, 0, 69, 95
2, 59904, Note_on_c, 0, 74, 110
2, 60000, Note_on_c, 0, 68, 110
2, 60096, Note_on_c, 0, 68, 95
2, 60160, Note_on_c, 0, 75, 110
2, 60192, Note_off_c, 0, 68, 64
2, 60192, Note_off_c, 0, 69, 64
2, 60192, Note_off_c, 0, 69, 64
2, 60192, Note_on_c, 0, 63, 110
2, 60192, Note_off_c, 0, 68, 64
2, 60288, Note_on_c, 0, 69, 110
2, 60672, Note_on_c, 0, 73, 110
2, 60672, Note_on_c, 0, 68, 110
2, 60672, Note_on_c, 0, 66, 110
2, 60768, Note_off_c, 0, 63, 64
2, 60768, Note_off_c, 0, 69, 64
2, 60768, Note_off_c, 0, 68, 64
2, 60784, Note_off_c, 0, 80, 64
2, 60960, Note_on_c, 0, 73, 110
2, 60960, Note_on_c, 0, 69, 110
2, 60960, Note_on_c, 0, 68, 110
2, 61056, Note_off_c, 0, 75, 64
2, 61152, Note_off_c, 0, 75, 74, 64
2, 61440, Note_on_c, 0, 61, 110
2, 61728, Note_on_c, 0, 71, 110
2, 61824, Control_c, 0, 7, 90
2, 61920, Control_c, 0, 7, 71
2, 61920, Control_c, 0, 7, 61
2, 62032, Control_c, 0, 7, 61
2, 62112, Control_c, 0, 7, 61
2, 62368, Control_c, 0, 7, 71
2, 62784, Control_c, 0, 7, 74
2, 62784, Control_c, 0, 7, 61
2, 62880, Control_c, 0, 7, 61
2, 62880, Control_c, 0, 7, 69
2, 62912, Control_c, 0, 7, 71
2, 63040, Control_c, 0, 7, 75
2, 63136, Control_c, 0, 7, 76
2, 63168, Control_c, 0, 7, 77
2, 63168, Control_c, 0, 7, 72
2, 63168, Control_c, 0, 7, 74
2, 63168, Control_c, 0, 7, 72
2, 63168, Control_c, 0, 7, 72
2, 63168, Control_c, 0, 7, 79
2, 63232, Control_c, 0, 7, 73
2, 63232, Control_c, 0, 7, 72
2, 63360, Control_c, 0, 7, 72
2, 63360, Control_c, 0, 7, 72
2, 63440, Control_c, 0, 7, 75
2, 63452, Control_c, 0, 7, 77
2, 63456, Control_c, 0, 7, 70
2, 63552, Control_c, 0, 7, 69
2, 63648, Control_c, 0, 7, 74
2, 63744, Control_c, 0, 7, 74
2, 63744, Control_c, 0, 7, 71
2, 63936, Control_c, 0, 7, 72
2, 63936, Control_c, 0, 7, 75
2, 63968, Control_c, 0, 7, 71
2, 64128, Note_on_c, 0, 67, 110
2, 64128, Note_off_c, 0, 64, 64
2, 64128, Note_off_c, 0, 56, 64
2, 64128, Note_off_c, 0, 68, 64
2, 64160, Control_c, 0, 7, 62
2, 64192, Control_c, 0, 7, 64
2, 64512, Control_c, 0, 7, 60
2, 64608, Note_off_c, 0, 75, 64
2, 64896, Control_c, 0, 7, 61
2, 65088, Note_on_c, 0, 70, 110
2, 65088, Note_on_c, 0, 71, 110
2, 65184, Note_off_c, 0, 73, 64
2, 65184, Note_off_c, 0, 73, 64
2, 65280, Note_off_c, 0, 69, 64
2, 65472, Note_on_c, 0, 63, 110
2, 65472, Note_off_c, 0, 64, 64
2, 65664, Note_on_c, 0, 68, 110
2, 65664, Note_on_c, 0, 73, 110
2, 65664, Note_on_c, 0, 71, 110
2, 66240, Note_on_c, 0, 63, 110
2, 66432, Note_on_c, 0, 71, 110
2, 66816, Note_off_c, 0, 66, 64
2, 66848, Note_on_c, 0, 73, 110
2, 67200, Note_on_c, 0, 66, 110
2, 67296, Control_c, 0, 7, 60
2, 67296, Note_off_c, 0, 63, 64
2, 67392, Note_off_c, 0, 66, 64
2, 67392, Note_off_c, 0, 71, 64
2, 67392, Note_off_c, 0, 66, 64
2, 67392, Note_off_c, 0, 76, 64
2, 67488, Control_c, 0, 7, 72
2, 67584, Note_off_c, 4, 45, 64
2, 67584, Note_on_c, 0, 67, 110
2, 67584, Note_on_c, 0, 69, 110
2, 67584, Note_on_c, 0, 66, 110
2, 67680, Control_c, 0, 7, 63
2, 67680, Control_c, 0, 7, 65
2, 67776, Note_off_c, 0, 70, 64
2, 67776, Control_c, 0, 7, 71, 64
2, 67776, Note_off_c, 0, 71, 64
2, 67808, Control_c, 0, 7, 78
2, 67968, Note_on_c, 0, 66, 110
2, 68160, Control_c, 0, 7, 68
2, 68832, Control_c, 0, 7, 67
2, 68832, Control_c, 0, 7, 62
2, 69024, Control_c, 0, 7, 62
2, 69120, Control_c, 0, 7, 72
2, 69184, Control_c, 0, 7, 75
2, 69600, Note_on_c, 0, 69, 110
2, 69632, Control_c, 0, 7, 71
2, 69696, Control_c, 0, 7, 76
2, 69696, Control_c, 0, 7, 76
2, 69728, Control_c, 0, 7, 67
2, 69792, Control_c, 0, 7, 74
2, 69792, Control_c, 0, 7, 72
2, 69792, Control_c, 0, 7, 74
2, 69888, Control_c, 0, 7, 79
2, 70016, Note_off_c, 0, 66, 64
2, 70240, Note_off_c, 0, 52, 64
2, 70272, Control_c, 0, 7, 60
2, 70272, Note_off_c, 0, 66, 64
2, 70272, Note_off_c, 0, 67, 64
2, 70272, Control_c, 0, 7, 60
2, 70272, Control_c, 0, 7, 60
2, 70272, Note_off_c, 0, 71, 64
2, 70464, Note_off_c, 4, 40, 64
2, 70464, Note_off_c, 0, 73, 64
2, 70656, Program_c, 0, 48
2, 70656, Control_c, 0, 7, 90
2, 70656, Control_c, 0, 7, 6, 21, 110
2, 70720, Note_on_c, 0, 70, 95
2, 70752, Note_off_c, 0, 68, 64
2, 70752, Note_off_c, 0, 68, 64
2, 70848, Note_off_c, 0, 59, 64
2, 70944, Note_on_c, 0, 66, 110
2, 71136, Control_c, 0, 7, 60
2, 71232, Note_off_c, 0, 69, 64
2, 71296, Note_on_c, 0, 71, 110
2, 71328, Note_off_c, 0, 66, 64
2, 71328, Note_off_c, 0, 67, 64
2, 71424, Control_c, 0, 7, 65
2, 71424, Note_off_c, 0, 63, 64
2, 71808, Control_c, 0, 7, 68
2, 73024, Control_c, 0, 7, 75
2, 73056, Note_off_c, 0, 71, 64
2, 73056, Note_off_c, 0, 70, 64
2, 73056, Note_off_c, 0, 75, 64
2, 73152, Note_on_c, 0, 71, 110
2, 73328, Note_off_c, 0, 71, 64
2, 73344, Control_c, 0, 7, 61
2, 73344, Note_on_c, 0, 70, 110
2, 73344, Note_on_c, 0, 73, 110
2, 73344, Note_on_c, 0, 71, 110
2, 73440, Note_off_c, 0, 73, 64
2, 73440, Note_off_c, 0, 71, 64
2, 73440, Note_off_c, 0, 718688, Control_c, 0, 7, 69
2, 73440, Note_off_c, 0, 73, 64
2, 73440, Note_off_c, 0, 75, 64
2, 73456, Note_off_c, 0, 70, 64
2, 73536, Control_c, 0, 7, 74
2, 73552, Control_c, 0, 7, 77
2, 73728, Control_c, 0, 7, 62
2, 73728, Control_c, 0, 7, 6
2, 73728, Control_c, 0, 7, 71
2, 73728, Control_c, 0, 7, 73
2, 73728, Control_c, 0, 7, 60
2, 73744, Control_c, 0, 7, 69
2, 73760, Note_off_c, 0, 70, 64
2, 73824, Note_off_c, 0, 73, 64
2, 73920, Note_on_c, 0, 71, 110
2, 73952, Note_on_c, 0, 70, 110
2, 74016, Control_c, 0, 7, 69
2, 74112, Control_c, 0, 7, 69
2, 74112, Control_c, 0, 7, 72
2, 74112, Control_c, 0, 7, 63
2, 74208, Control_c, 0, 7, 62
2, 74304, Control_c, 0, 7, 78
2, 74304, Note_on_c, 0, 58, 76
2, 74496, Control_c, 0, 7, 64
2, 74784, Control_c, 0, 7, 74
2, 74784, Control_c, 0, 7, 73
2, 74880, Control_c, 0, 7, 69
2, 75008, Control_c, 0, 7, 71
2, 75168, Control_c, 0, 7, 79
2, 75168, Control_c, 0, 7, 75
2, 75168, Control_c, 0, 7, 72
2, 75264, Control_c, 0, 7, 72
2, 75264, Control_c, 0, 7, 724, Note_off_c, 1, 69, 64
2, 75264, Control_c, 0, 7, 72
2, 75360, Control_c, 0, 7, 78
2, 75360, Control_c, 0, 7, 71
2, 75360, Control_c, 0, 7, 72
2, 75456, Control_c, 0, 7, 75, 64
2, 75456, Note_off_c, 0, 71, 64
2, 75456, Control_c, 0, 7, 73
2, 75648, Control_c, 0, 7, 74
2, 75648, Control_c, 0, 7, 74
2, 75744, Control_c, 0, 7, 64
2, 75744, Note_on_c, 0, 63, 110
2, 75744, Control_c, 0, 7, 74
2, 75952, Control_c, 0, 7, 76
2, 75968, Control_c, 0, 7, 78
2, 76032, Control_c, 0, 7, 74
2, 76128, Control_c, 0, 7, 70
2, 76416, Note_on_c, 0, 69, 110
2, 76416, Note_off_c, 0, 71, 64
2, 76416, Note_on_c, 0, 63, 110
2, 76416, Control_c, 0, 7, 74
2, 76608, Note_on_c, 0, 64, 110
2, 76608, Note_on_c, 0, 75, 110
2, 76800, Control_c, 0, 7, 100
2, 76800, Note_on_c, 0, 64, 95
2, 77744, Control_c, 0, 7, 76
2, 79104, Note_on_c, 0, 68, 95
2, 79872, Note_on_c, 0, 54, 110
2, 79872, Note_off_c, 0, 71, 64
2, 79872, Note_off_c, 0, 69, 64
2, 84096, Note_on_c, 0, 62, 64
2, 84480, Note_on_c, 0, 66, 95
2, 84576, Note_on_c, 0, 61, 110
2, 85440, Note_on_c, 0, 66, 95
2, 85440, Note_on_c, 0, 61, 110
2, 85440, Note_on_c, 0, 53, 110
2, 86016, Note_off_c, 0, 68, 64
2, 86016, Note_on_c, 0, 66, 95
2, 86016, Note_on_c, 0, 49, 95
2, 86592, Note_off_c, 0, 68, 64
2, 86592, Note_off_c, 0, 66, 64
2, 87040, Note_on_c, 0, 66, 95
2, 88736, Note_on_c, 0, 52, 110
2, 89088, Note_on_c, 0, 65, 110
2, 89088, Note_on_c, 0, 64, 110
2, 89088, Note_on_c, 0, 61, 110
2, 89152, Note_on_c, 0, 65, 110
2, 91232, Note_on_c, 0, 52, 110
2, 92256, Control_c, 0, 7, 90
2, 92736, Note_on_c, 0, 59, 110
2, 92736, Note_off_c, 0, 66, 64
2, 100032, Note_on_c, 0, 74, 82
2, 100608, Note_off_c, 0, 88, 64
2, 101376, Control_c, 0, 7, 90
2, 103616, Note_off_c, 0, 88, 64
2, 103680, Note_on_c, 0, 88, 110
2, 103680, Note_off_c, 0, 87, 64
2, 103680, Note_on_c, 0, 64, 82
2, 104448, Note_on_c, 0, 88, 82
2, 104448, Note_off_c, 0, 85, 64
2, 104448, Note_off_c, 0, 81, 64
2, 104448, Note_off_c, 0, 87, 64
2, 104448, Note_off_c, 0, 97, 64
2, 104752, Note_on_c, 0, 80, 110
2, 105600, Note_off_c, 0, 74, 64
2, 107520, Note_on_c, 0, 68, 95232, Note_off_c, 9, 41, 64
2, 107520, Note_off_c, 0, 88, 64
2, 107904, Note_on_c, 0, 92, 110
2, 109248, Note_off_c, 0, 74, 64
2, 109248, Note_off_c, 0, 85, 64
2, 109632, Note_on_c, 0, 72, 86
2, 109824, Note_off_c, 0, 88, 64
2, 109824, Note_off_c, 0, 66, 64
2, 109824, Note_off_c, 0, 92, 64
2, 110592, Note_on_c, 0, 74, 110
2, 110592, Note_on_c, 0, 72, 110
2, 110592, Note_on_c, 0, 74, 106
2, 113280, Note_off_c, 0, 75, 64
2, 113280, Note_on_c, 0, 61, 110
2, 113664, Note_off_c, 0, 63, 64
2, 113664, Control_c, 0, 7, 80
2, 113664, Note_off_c, 0, 68, 64
2, 113664, Note_off_c, 0, 68, 64
2, 113856, Note_off_c, 0, 75, 64
2, 114240, Note_on_c, 0, 64, 110
2, 114240, Note_off_c, 0, 75, 64
2, 114240, Note_on_c, 0, 68, 1112896, Note_off_c, 2, 61, 64
2, 114816, Note_on_c, 0, 66, 110
2, 115296, Note_on_c, 0, 63, 110
2, 115392, Note_on_c, 0, 61, 64
2, 115488, Note_off_c, 0, 68, 64
2, 115584, Note_on_c, 0, 63, 110
2, 116544, Note_off_c, 0, 66, 64
2, 116736, Note_on_c, 0, 6, 63, 64
2, 117120, Note_on_c, 0, 61, 110
2, 117312, Note_off_c, 0, 75, 64
2, 117504, Note_on_c, 0, 74, 82
2, 117792, Note_off_c, 0, 75, 64
2, 117984, Note_off_c, 0, 73, 64
2, 118272, Program_c, 0, 88
2, 118272, Control_c, 0, 7, 100
2, 118272, Note_on_c, 0, 68, 110
2, 118272, Note_on_c, 0, 68, 110
2, 118464, Note_off_c, 0, 90, 64
2, 118848, Note_on_c, 0, 75, 110
2, 119616, Note_off_c, 0, 68, 64
2, 119616, Note_off_c, 0, 68, 64
2, 120096, Note_off_c, 0, 75, 64
2, 120576, Note_off_c, 0, 71, 64
2, 120960, Note_off_c, 0, 68, 64
2, 121344, Note_off_c, 0, 66, 64
2, 121344, Note_off_c, 0, 90, 64
2, 121728, Note_on_c, 0, 66, 64
2, 121920, Note_off_c, 0, 89, 64
2, 122112, Note_on_c, 0, 83, 64
2, 122400, Note_off_c, 0, 68, 64
2, 122496, Note_on_c, 0, 66, 110
2, 122592, Note_off_c, 0, 85, 64
2, 122880, Program_c, 0, 110
2, 122880, Program_c, 4, 37
2, 125024, Control_c, 0, 7, 100
2, 136128, Control_c, 4, 7, 83
2, 140160, Note_on_c, 4, 61, 64
2, 144672, Control_c, 0, 7, 77
2, 145152, Note_off_c, 0, 63, 64
2, 147648, Note_on_c, 0, 70, 110
2, 147840, Note_on_c, 0, 73, 110
2, 147840, Note_off_c, 0, 68, 64
2, 148128, Note_off_c, 0, 66, 64
2, 148128, Control_c, 0, 7, 72
2, 148608, Note_on_c, 0, 70, 110
2, 149152, Note_off_c, 0, 61, 64
2, 149184, Note_on_c, 0, 68, 110
2, 149376, Note_on_c, 0, 70, 95
2, 149760, Note_off_c, 0, 76, 64
2, 150112, Control_c, 0, 7, 62
2, 150112, Note_on_c, 0, 67, 110
2, 150144, Note_on_c, 0, 76, 110
2, 150144, Note_on_c, 0, 67, 110
2, 150144, Note_on_c, 0, 77, 110
2, 150240, Note_off_c, 0, 75, 64
2, 150336, Control_c, 0, 44, 78
2, 150432, 64
2, 150944, Control_c, 0, 7, 72
2, 151008, Control_c, 0, 7, 65
2, 151008, Control_c, 0, 7, 63
2, 151360, Control_c, 0, 7, 74
2, 151488, Control_c, 0, 7, 76
2, 152000, Control_c, 0, 7, 75
2, 152064, Note_off_c, 0, 71, 64
2, 152352, Control_c, 0, 7, 70
2, 152432, Control_c, 0, 7, 70
2, 152832, Control_c, 0, 7, 73
2, 152864, Control_c, 0, 7, 79
2, 153024, Control_c, 0, 7, 68
2, 153024, Control_c, 0, 7, 76
2, 153024, Note_off_c, 0, 64, 64
2, 153024, Control_c, 0, 7, 75
2, 153184, Note_off_c, 0, 69, 64
2, 153216, Note_off_c, 0, 66, 64
2, 153216, Note_off_c, 0, 75, 64
2, 153216, Note_off_c, 0, 68, 64
2, 153216, Note_off_c, 0, 73, 64
2, 153216, Note_off_c, 0, 64, 64
2, 153216, Note_off_c, 0, 66, 64
2, 153216, Note_off_c, 0, 67, 64
2, 153216, Note_off_c, 0, 66, 64
2, 153216, Note_off_c, 0, 63, 64
2, 153216, Note_off_c, 0, 64, 64
2, 153216, Note_off_c, 0, 66, 64
2, 153232, Note_off_c, 0, 68, 64
2, 153408, Control_c, 0, 7, 67
2, 153600, Note_on_c, 0, 73, 110
2, 153696, Note_off_c, 0, 59, 64
2, 153696, Note_off_c, 0, 68, 64
2, 153792, Control_c, 0, 7, 64
2, 153824, Note_off_c, 0, 63, 64
2, 153984, Control_c, 0, 7, 62
2, 154072, Note_on_c, 0, 64, 110
2, 154144, Note_on_c, 0, 76, 110
2, 154176, Note_on_c, 0, 68, 110
2, 154272, Note_off_c, 0, 59, 64
2, 154272, Note_off_c, 0, 68, 64
2, 154272, Note_off_c, 0, 73, 64
2, 154272, Note_off_c, 0, 75, 64
2, 154368, Control_c, 0, 7, 78
2, 155136, 224832, Control_c, 5, 7, 65
2, 155328, Control_c, 0, 7, 74
2, 155328, Control_c, 0, 7, 67
2, 155904, Note_on_c, 0, 76, 110
2, 155904, Note_on_c, 0, 63, 110
2, 155904, Note_on_c, 0, 76, 110
2, 156000, Control_c, 0, 7, 61
2, 156160, Note_off_c, 0, 73, 64
2, 156160, Note_on_c, 0, 71, 110
2, 156256, Control_c, 0, 7, 69
2, 156288, Note_off_c, 0, 71, 64
2, 156288, Note_on_c, 0, 73, 110
2, 156288, Note_on_c, 0, 64, 110
2, 156288, Note_on_c, 0, 71, 110
2, 156368, Note_on_c, 0, 71, 110
2, 156480, Control_c, 0, 7, 75
2, 156560, Note_on_c, 0, 67, 110
2, 156576, Note_off_c, 0, 71, 64
2, 156672, Note_off_c, 0, 62, 64
2, 156864, Control_c, 0, 7, 63
2, 156864, Note_off_c, 0, 64, 64
2, 156960, Control_c, 0, 7, 66
2, 156960, Control_c, 0, 7, 77
2, 156960, Control_c, 0, 7, 63
2, 156960, Control_c, 0, 7, 71, 110
2, 157024, Control_c, 0, 7, 65
2, 157120, Control_c, 0, 7, 69
2, 157136, Control_c, 0, 7, 65
2, 157152, Control_c, 0, 7, 73
2, 157152, Control_c, 0, 7, 61
2, 157248, Control_c, 0, 7, 72
2, 157248, Control_c, 0, 7, 68
2, 157360, Control_c, 0, 7, 69
2, 157408, Control_c, 0, 7, 68
2, 157536, Control_c, 0, 7, 69
2, 157632, Control_c, 0, 7, 73
2, 157820, Note_off_c, 5, 61, 64
2, 157824, Control_c, 0, 7, 74
2, 157824, Control_c, 0, 7, 67
2, 157920, Control_c, 0, 7, 62
2, 157920, Control_c, 0, 7, 67
2, 157920, Control_c, 0, 7, 67
2, 157920, Control_c, 0, 7, 62
2, 158016, Control_c, 0, 7, 65
2, 158208, Control_c, 0, 7, 74
2, 158208, Control_c, 0, 7, 74
2, 158208, Note_on_c, 0, 69, 110
2, 158208, Note_off_c, 0, 70, 64
2, 158208, Control_c, 0, 7, 71
2, 158208, Control_c, 0, 7, 76
2, 158208, Control_c, 0, 7, 69
2, 158272, Note_off_c, 0, 61, 64
2, 158304, Control_c, 0, 7, 76
2, 158400, Control_c, 0, 7, 73
2, 158400, Control_c, 0, 7, 75
2, 158400, Control_c, 0, 7, 74
2, 158496, Control_c, 0, 7, 70
2, 158816, Control_c, 0, 7, 74
2, 158816, Control_c, 0, 7, 66
2, 158880, Control_c, 0, 7, 64
2, 158976, Control_c, 0, 7, 73
2, 159008, Control_c, 0, 7, 75
2, 159144, Control_c, 6, 7, 4
2, 159168, Note_off_c, 0, 66, 64
2, 159168, Control_c, 0, 7, 78
2, 159168, Control_c, 0, 7, 72
2, 159360, Control_c, 0, 7, 90
2, 159360, Note_off_c, 0, 66, 64
2, 159360, Note_off_c, 0, 71, 64
2, 159744, Control_c, 0, 7, 60
2, 159936, Control_c, 0, 7, 74
2, 161280, Note_off_c, 0, 69, 64
2, 161568, Note_off_c, 0, 75, 64
2, 162144, Note_off_c, 0, 68, 64
2, 162432, Note_on_c, 0, 67, 110
2, 162528, Note_off_c, 0, 68, 64
2, 163104, Control_c, 0, 7, 64
2, 163104, Control_c, 0, 7, 63
2, 163104, Note_off_c, 0, 71, 64
2, 163392, Control_c, 0, 7, 74
2, 163456, Control_c, 0, 7, 63
2, 163488, Control_c, 0, 7, 72
2, 163488, Control_c, 0, 7, 69
2, 163552, Control_c, 0, 7, 69
2, 163872, Control_c, 0, 7, 69
2, 163872, Control_c, 0, 7, 67
2, 163968, Control_c, 0, 7, 64
2, 164064, Control_c, 0, 7, 63
2, 164544, Control_c, 0, 7, 68
2, 165120, Note_off_c, 0, 64, 64
2, 165184, Note_off_c, 0, 63, 64
2, 165216, Control_c, 0, 7, 77
2, 165312, Note_off_c, 0, 67, 64
2, 165504, 64
2, 165504, Note_off_c, 0, 73, 64
2, 165504, Note_off_c, 0, 71, 64
2, 165504, Note_off_c, 0, 63, 64
2, 165504, Note_on_c, 0, 57, 110
2, 165504, Note_on_c, 0, 63, 110
2, 165504, Note_on_c, 0, 64, 110
2, 165504, Control_c, 0, 7, 67
2, 165504, Control_c, 0, 7, 60
2, 165888, Note_on_c, 0, 59, 70
2, 165888, Note_on_c, 0, 69, 110
2, 165888, Note_off_c, 0, 66, 64
2, 165888, Control_c, 0, 7, 78
2, 166464, Note_off_c, 0, 71, 64
2, 166464, Note_off_c, 0, 68, 64
2, 166464, Note_off_c, 0, 75, 64
2, 166560, Note_off_c, 0, 66, 64
2, 166560, Note_off_c, 0, 76, 64
2, 166752, Note_off_c, 0, 70, 64
2, 166848, Note_on_c, 0, 52, 70, 7, 100
2, 166944, Note_off_c, 0, 59, 64
2, 167136, Note_off_c, 0, 73, 64
2, 167232, Note_on_c, 0, 66, 110
2, 167328, Note_on_c, 0, 68, 110
2, 167392, Note_off_c, 0, 63, 64
2, 167520, Note_on_c, 0, 63, 110
2, 168192, Note_off_c, 0, 68, 64
2, 168192, Note_on_c, 0, 73, 110
2, 168192, Note_on_c, 0, 67, 110
2, 168192, Note_on_c, 0, 63, 110
2, 168192, Note_on_c, 0, 67, 110
2, 168384, Note_on_c, 0, 63, 110
2, 168384, Note_off_c, 0, 74, 64
2, 168576, Note_on_c, 0, 75, 110
2, 168672, Note_off_c, 0, 73, 64
2, 168960, Note_on_c, 0, 75, 110
2, 168960, Note_on_c, 0, 59, 110
2, 168960, Control_c, 0, 7, 64
2, 169152, Control_c, 0, 7, 64
2, 169536, Control_c, 0, 7, 65
2, 169728, Control_c, 0, 7, 70
2, 169728, Control_c, 0, 7, 60
2, 170208, Control_c, 0, 7, 90
2, 170208, Control_c, 0, 7, 69
2, 170688, Note_on_c, 0, 69, 95
2, 170784, Note_off_c, 0, 75, 64
2, 172608, 72, 86
2, 175104, Note_off_c, 0, 64, 64, Note_off_c, 9, 36, 64
2, 175104, Note_on_c, 164728, Note_off_c, 2, 71, 64
2, 175104, 220608, Note_on_c, 5, 61, 64
2, 175104, Note_on_c, 0, 59, 110
2, 175104, Note_on_c, 0, 63, 95
2, 175104, Note_on_c, 0, 63, 110
2, 181248, Program_c, 9, 0
2, 181312, Note_off_c, 0, 63, 64
2, 185856, Note_off_c, 0, 66, Note_off_c, 8, 68, 64
2, 187392, Note_off_c, 0, 63, 64
2, 188928, Note_off_c, 0, 61, 64
2, 190464, Note_off_c, 0, 66, 64
2, 190464, Control_c, 3, 7, 48
2, 190464, Note_off_c, 0, 69, 64
2, 194304, Note_off_c, 0, 61, 64
2, 195840, Note_off_c, 0, 75, 64
2, 196384, Note_off_c, 0, 64, 64
2, 196608, Note_on_c, 0, 61, 110
2, 196608, Note_on_c, 0, 52, 110
2, 201984, Note_on_c, 0, 68, 110
2, 202752, Note_on_c, 0, 88, 120960, 201984, Note_off_c, 8, 85, 64
2, 205056, Note_on_c, 0, 68, 95
2, 205824, Note_off_c, 0, 76, 64
2, 205824, Note_off_c, 0, 78, 64
2, 205824, Note_off_c, 0, 74, 64
2, 205824, Note_off_c, 0, 88, 64
2, 206590, Note_off_c, 3, 37, 64
2, 207360, Note_off_c, 0, 75, 64
2, 207360, Note_on_c, 0, 68, 49384, Note_on_c, 0, 61, 110
2, 207744, Note_off_c, 0, 71, 64
2, 208672, Note_on_c, 0, 64, 110
2, 208896, Control_c, 0, 7, 90
2, 208896, Note_on_c, 0, 74, 110
2, 208896, Control_c, 0, 7, 20
2, 208896, Note_off_c, 0, 78, 64
2, 209280, Note_off_c, 0, 66, 64
2, 209472, Note_on_c, 0, 68, 110
2, 209472, Note_on_c, 0, 71, 110
2, 209664, Note_on_c, 0, 68, 110
2, 209664, Note_off_c, 0, 64, 64
2, 209664, Note_off_c, 0, 75, 64
2, 209872, Note_off_c, 0, 75, 64
2, 209888, Note_off_c, 0, 68, 64
2, 209920, Note_off_c, 0, 68, 64, 7, 71, 64
2, 210048, Note_off_c, 0, 75, 64
2, 210240, Note_off_c, 0, 66, 64
2, 210240, Note_off_c, 0, 68, 64
2, 210240, Note_off_c, 0, 64, 64
2, 210432, Note_on_c, 0, 64, 110
2, 210528, Note_off_c, 0, 78, 64
2, 210720, Note_off_c, 0, 64, 64
2, 210720, Note_off_c, 0, 75, 64
2, 210816, 151104, Note_on_c, 8, 7, 64
2, 211200, Note_on_c, 0, 61, 151680, Note_on_c, 7, 75, 86
2, 211200, Note_off_c, 0, 61, 64
2, 211200, Note_on_c, 0, 64, 110
2, 211200, Note_on_c, 0, 61, 110
2, 211392, Note_off_c, 0, 64, 64
2, 211392, Note_off_c, 0, 72, 64
2, 211392, Note_off_c, 0, 61, 64
2, 211456, Note_off_c, 0, 64, 64
2, 211488, Note_off_c, 0, 68, 64
2, 211776, Note_off_c, 0, 64, 64
2, 211904, Note_on_c, 0, 68, 110
2, 211904, Note_on_c, 0, 75, 110
2, 211936, Control_c, 0, 7, 59
2, 211968, Note_off_c, 0, 64, 64
2, 211968, Note_on_c, 0, 66, 110
2, 211968, Note_off_c, 0, 64, 64
2, 211968, Note_on_c, 9, 57, 110
2, 212352, Note_on_c, 0, 752, Note_on_c, 7, 79, 110
2, 212352, Note_on_c, 0, 61, 110
2, 213120, Note_on_c, 0, 66, 110
2, 213120, Note_on_c, 0, 66, 110
2, 213504, Note_on_c, 0, 75, 110
2, 213696, Note_off_c, 0, 64, 64
2, 214656, Note_on_c, 0, 68, 110
2, 214848, Note_off_c, 0, 68, 64
2, 214848, Note_on_c, 0, 75, 110
2, 214848, Note_on_c, 0, 68, 110
2, 214848, Note_off_c, 0, 64, 64
2, 215008, Note_off_c, 0, 68, 64
2, 215040, Note_on_c, 0, 73, 110
2, 215040, Note_on_c, 0, 68, 110
2, 215328, Note_off_c, 0, 88, 64
2, 215424, Note_on_c, 0, 76, 110
2, 215424, Note_on_c, 0, 64, 110
2, 215424, Note_on_c, 0, 68, 110
2, 215424, Note_on_c, 0, 66, 110
2, 215424, Note_on_c, 0, 76, 110
2, 215424, Note_on_c, 0, 68, 110
2, 215436, Note_on_c, 0, 75, 110
2, 215520, Note_off_c, 0, 90, 64
2, 215520, Note_off_c, 0, 68, 64
2, 215520, Note_off_c, 0, 78, 64
2, 215520, Note_off_c, 0, 68, 64
2, 215616, Note_on_c, 0, 66, 110
2, 215616, Note_off_c, 0, 66, 64
2, 215616, Note_off_c, 0, 68, 64
2, 215632, Note_off_c, 0, 68, 64
2, 216000, Note_off_c, 0, 73, 64
2, 216000, Note_off_c, 0, 71, 64
2, 216000, Note_off_c, 0, 90, 64
2, 216384, Note_off_c, 0, 78, 64
2, 216384, Note_on_c, 0, 71, 110
2, 216576, Note_on_c, 0, 68, 110
2, 217152, Note_off_c, 0, 66, 64
2, 217536, Note_on_c, 0, 71, 106
2, 217536, Note_on_c, 0, 88, 64
2, 217536, Note_on_c, 0, 71, 110
2, 217536, Note_on_c, 0, 76, 110
2, 217632, Note_off_c, 0, 71, 64
2, 217728, Note_off_c, 0, 90, 64
2, 219456, Note_on_c, 0, 68, 156256, Control_c, 9, 7, 6
2, 223680, Control_c, 8, 7, 68
2, 224640, Control_c, 4, 7, 75
2, 225920, Note_on_c, 4, 491296, Note_off_c, 1, 75, 64
2, 230400, Control_c, 0, 7, 70
2, 231520, Note_off_c, 0, 64, 64
2, 236572, Note_on_c, 0, 59, 110
2, 239008, Control_c, 2, 7, 58
2, 241152, Note_on_c, 0, 54, 110
2, 243616, Control_c, 6, 7, 1
2, 244616, End_track
3, 0, Start_track
3, 0, Control_c, 3, 7, 12
3, 0, Title_t, "Battse2"
3, 0, Control_c, 1, 11, 110
3, 7, 69
3, 9, 1, 59, 110
3, 22
3, 36, 64
3, 36, Note_on_c, 8, 84, 86
3, 38, Control_c, 3, 7, 60
3, 41, 4, 41, 64
3, 43, 110
3, 124, 3, 40, 110
3, 164
3, 173, 44, 64
3, 235, Note_off_c, 5, 71, 64
3, 464
3, 1152, Note_on_c, 1, 69, 110
3, 2304, Note_on_c, 1, 64, 110
3, 2304, Note_on_c, 1, 64, 64
3, 3216, Note_off_c, 1, 71, 64
3, 3456, Note_on_c, 1, 76, 110
3, 4012, Note_off_c, 3, 42, 64
3, 4144, Note_off_c, 1, 68, 64
3, 4432, Note_off_c, 1, 68, 64
3, 4608, Note_on_c, 1, 71, 110
3, 5184, Note_off_c, 1, 76, 64
3, 5184, Note_on_c, 1, 73, 110
3, 7936, Note_off_c, 8, 81, 64
3, 8064, Note_on_c, 1, 61, 81
3, 9216, Note_on_c, 1, 61, 81
3, 11328, Note_off_c, 1, 68, 64
3, 12288, Note_off_c, 1, 68, 64
3, 12288, Note_off_c, 1, 68, 64
3, 12288, Note_on_c, 1, 66, 110
3, 12672, Note_on_c, 1, 61, 81
3, 12672, Note_on_c, 1, 61, 81
3, 12672, Note_on_c, 1, 61, 813, 40, 64
3, 12864, Note_off_c, 1, 69, 64
3, 12864, Note_on_c, 1, 68, 110
3, 12864, Note_off_c, 1, 66, 64
3, 12864, Note_on_c, 1, 68, 110
3, 12921, 35, 110
3, 13440, Note_on_c, 1, 64, 110
3, 13440, Note_off_c, 1, 61, 64
3, 13440, Note_on_c, 1, 68, 110
3, 13440, Note_on_c, 1, 61, 81
3, 13440, Note_off_c, 1, 64, 64
3, 13440, Note_on_c, 1, 68, 110
3, 13824, Note_on_c, 1, 6296, Note_off_c, 9, 44, 64
3, 13824, Program_c, 1, 56
3, 13824, Note_off_c, 1, 64, 64
3, 13824, Note_on_c, 1, 61, 81, 64
3, 13824, Control_c, 1, 7, 100
3, 13824, Program_c, 1, 56
3, 13824, Control_c, 1, 7, 110
3, 14016, Note_on_c, 1, 75, 110
3, 14016, Note_off_c, 1, 61, 64
3, 14016, Note_off_c, 1, 61, 64
3, 14016, Note_on_c, 1, 76, 110
3, 14208, Note_on_c, 1, 61, 81
3, 14208, Note_on_c, 1, 68, 110
3, 14208, Note_off_c, 1, 71, 64
3, 14400, Note_off_c, 1, 61, 64
3, 14400, Note_off_c, 1, 68, 64
3, 14400, Note_on_c, 1, 76, 110
3, 14592, Note_off_c, 1, 73, 64
3, 14592, Note_off_c, 1, 76, 64
3, 14784, Note_on_c, 1, 76, 110
3, 14784, Note_on_c, 1, 61, 81
3, 14784, Note_on_c, 1, 61, 81
3, 14784, Note_on_c, 1, 68, 110
3, 15552, Note_off_c, 1, 61, 64
3, 15744, Note_on_c, 1, 69, 110
3, 15744, Note_on_c, 1, 61, 81
3, 15936, Note_on_c, 1, 69, 110
3, 16320, Note_off_c, 1, 61, 64
3, 16512, Note_off_c, 1, 76, 64
3, 16608, Note_off_c, 1, 68, 64
3, 17472, Note_off_c, 1, 66, 64
3, 17856, Note_off_c, 1, 611, 127904, Note_off_c, 9, 44, 64
3, 22480, Note_on_c, 9, 36, 59, 64
3, 22848, Note_on_c, 1, 76, 110
3, 22972, Note_off_c, 7, 75, 64
3, 23040, Program_c, 1, 56
3, 23232, Note_off_c, 1, 68, 64
3, 23232, Note_off_c, 1, 64, 64
3, 23510
3, 23904, Note_off_c, 1, 71, 64
3, 24512, Program_c, 1, 56
3, 25184, Note_on_c, 1, 76, 110
3, 28416, Note_off_c, 1, 75, 64
3, 28800, Note_on_c, 1, 71, 64
3, 28800, Note_off_c, 1, 71, 64
3, 28800, Note_on_c, 1, 71, 64
3, 28904, Note_off_c, 1, 75, 64
3, 28992, Note_off_c, 1, 75, 64
3, 29376, Note_on_c, 1, 75, 110
3, 29376, Note_on_c, 1, 76, 110
3, 29568, Note_off_c, 1, 76, 64
3, 29568, Note_off_c, 1, 71292344, Note_on_c, 9, 36, 110
3, 29568, Note_off_c, 1, 71, 64
3, 29952, Note_on_c, 1, 71, 64
3, 31584, Note_off_c, 1, 66, 64
3, 34368, Note_on_c, 1, 71, 64
3, 34368, Note_off_c, 1, 66, 64
3, 34368, Note_off_c, 1, 71, 64
3, 34528, Note_on_c, 1, 71, 110
3, 34560, Note_off_c, 1, 64, 64
3, 34560, Note_off_c, 1, 68, 64
3, 34560, Note_off_c, 1, 68, 64
3, 34560, Note_off_c, 1, 73, 64
3, 34560, Note_off_c, 1, 66, 64
3, 34560, Note_off_c, 1, 66, 64
3, 34560, Note_off_c, 1, 69, 64
3, 34560, Note_on_c, 1, 76, 110
3, 34560, Note_on_c, 1, 71, 110
3, 34560, Note_off_c, 1, 66, 64
3, 34752, Note_on_c, 1, 75, 110
3, 34752, Note_off_c, 1, 66, 64
3, 34944, Note_on_c, 1, 71, 64
3, 34944, Note_off_c, 1, 66, 64
3, 34944, Note_on_c, 1, 73, 64
3, 35136, Note_off_c, 1, 75, 64
3, 35136, Note_off_c, 1, 66, 64
3, 35136, Note_off_c, 1, 73, 64
3, 35936, Note_on_c, 1, 68, 64
3, 36096, Note_on_c, 1, 71, 64
3, 36096, Note_on_c, 1, 71, 110
3, 36096, Note_on_c, 1, 71, 110
3, 36288, Note_on_c, 3, 40, 110
3, 36288, Note_off_c, 1, 66, 64
3, 36288, Note_off_c, 1, 66, 64
3, 36288, Note_off_c, 1, 73, 64
3, 36288, Note_off_c, 1, 73, 64
3, 36288, Note_off_c, 1, 71, 64
3, 36288, Note_on_c, 1, 71, 64
3, 36288, Note_on_c, 1, 73, 64
3, 36480, Note_on_c, 1, 71, 64
3, 36672, Note_on_c, 1, 73, 110
3, 36864, Note_on_c, 1, 66, 64
3, 39936, Note_on_c, 1, 68, Control_c, 3, 7, 93
3, 40128, Note_off_c, 1, 68, 64
3, 40128, Note_on_c, 1, 71, 110
3, 40128, Note_off_c, 1, 68, 64
3, 40320, Note_off_c, 1, 71, 64
3, 40512, Note_on_c, 1, 66, 64
3, 40512, Note_on_c, 1, 71, 64
3, 40704, Note_off_c, 1, 68, 64
3, 41280, Note_off_c, 1, 68, 64
3, 41472, Note_off_c, 1, 71, 64
3, 41664, Note_on_c, 1, 66, 64
3, 41856, Note_off_c, 1, 68, 64
3, 42048, Note_on_c, 1, 71, 64
3, 42048, Note_on_c, 1, 71, 110
3, 42080, Note_off_c, 1, 68, 64
3, 42240, Note_off_c, 1, 68, 64
3, 42240, Note_on_c, 1, 69, 110
3, 42240, Note_off_c, 1, 68, 64
3, 42240, Note_off_c, 2, 66, 64
3, 42432, Note_off_c, 1, 68, 64
3, 42432, Note_off_c, 1, 68, 64
3, 42432, Note_off_c, 1, 69, 64
3, 42432, Note_off_c, 1, 64, 64
3, 42432, Note_on_c, 1, 66, 64
3, 42432, Note_off_c, 1, 68, 64
3, 42432, Note_off_c, 1, 71, 64
3, 42432, Note_on_c, 1, 69, 110
3, 42432, Note_off_c, 1, 68, 64
3, 42432, Note_off_c, 1, 71, 64
3, 42432, Note_off_c, 1, 69, 64
3, 42432, Note_off_c, 1, 69, 64
3, 42432, Note_off_c, 1, 68, 64
3, 42432, Note_off_c, 1, 68, 64
3, 42432, Note_off_c, 1, 69, 64
3, 42624, Note_on_c, 1, 64, 64
3, 42624, Note_on_c, 2, 56, 70
3, 42624, Note_on_c, 1, 64, 64
3, 42624, Note_on_c, 1, 7, 44, 64
3, 42624, Note_on_c, 1, 68, 110
3, 42624, Note_on_c, 1, 68, 110
3, 42624, Note_off_c, 144
3, 42624, Note_on_c, 1, 64, 110
3, 42624, Note_off_c, 1, 69, 64
3, 42816, Note_on_c, 1, 68, 240224, Control_c, 1, 7, 3
3, 42816, Note_on_c, 1, 69, 110
3, 42816, Note_off_c, 1, 71, 64
3, 42816, Note_off_c, 1, 71, 64
3, 42816, Note_off_c, 1, 68, 64
3, 43008, Note_off_c, 1, 68, 64
3, 43200, Note_off_c, 1, 64, 64
3, 43200, Note_off_c, 1, 66, 64
3, 44336, Note_on_c, 1, 68, 110
3, 44384, Note_off_c, 1, 68, 64
3, 45120, Note_on_c, 1, 69, 64
3, 45312, Note_on_c, 1, 66, 110
3, 45312, Note_off_c, 1, 64, 64
3, 45312, Note_off_c, 1, 64, 64
3, 45312, Note_off_c, 1, 68, 64
3, 45312, Note_off_c, 1, 71, 64
3, 45312, Note_off_c, 1, 64, 64
3, 45312, Note_off_c, 1, 69, 64
3, 45312, Note_off_c, 1, 64, 64
3, 45312, Note_off_c, 1, 68, 64
3, 45312, Note_off_c, 1, 68, 64
3, 45312, Note_off_c, 1, 64, 64
3, 45312, Note_on_c, 1, 69, 110
3, 45312, Note_on_c, 1, 64, 64
3, 45504, Note_off_c, 1, 68, 64
3, 45504, Note_on_c, 1, 64, 64
3, 46080, Note_off_c, 1, 59, 64
3, 46080, Note_off_c, 1, 59, 64
3, 46080, Note_off_c, 1, 59, 64
3, 46080, Note_off_c, 1, 63, 64
3, 46272, Note_on_c, 1, 64, 64
3, 46272, Note_off_c, 113856, Note_on_c, 9, 36, 110
3, 47232, Note_off_c, 7, 71, 64
3, 47840, Note_on_c, 1, 68, 64
3, 48384, Note_on_c, 1, 64, 64
3, 59136, Note_off_c, 7, 75, 64
3, 63552, Note_on_c, 1, 80, 110
3, 67776, Note_off_c, 7, 75, 64
3, 77760, Note_off_c, 1, 76, 64
3, 85632, Note_off_c, 1, 80, 64
3, 122880, Program_c, 1, 56
3, 123072, Note_off_c, 1, 71, 64
3, 123152, Note_on_c, 1, 66, 64
3, 123488, Note_on_c, 1, 68, 64
3, 123648, Note_on_c, 1, 76, 110
3, 123648, Note_off_c, 1, 71, 64
3, 123648, Note_off_c, 1, 75, 64
3, 123648, Note_on_c, 1, 71, 110
3, 124032, Note_off_c, 1, 71, 64
3, 124224, Control_c, 1, 7, 110
3, 124224, Note_on_c, 1, 76, 110
3, 124224, Note_on_c, 1, 68, 64
3, 124608, Note_on_c, 1, 73, 110
3, 126816, Note_off_c, 1, 76, 64
3, 128640, Note_off_c, 1, 66, 64
3, 129024, Note_on_c, 1, 71, 110
3, 129792, Note_off_c, 1, 73, 64
3, 130176, Note_on_c, 1, 71, 64
3, 130272, Note_on_c, 1, 71, 110
3, 130272, Note_off_c, 1, 71, 64
3, 130368, Note_on_c, 1, 71, 64
3, 130752, Note_on_c, 1, 73, 110
3, 130752, Note_on_c, 1, 73, 64
3, 130752, Note_on_c, 1, 75, 110
3, 130944, Note_off_c, 1, 71, 64
3, 131312, Note_on_c, 1, 68, 64
3, 131520, Note_off_c, 1, 75, 64
3, 131520, Note_on_c, 1, 66, 64
3, 131712, Note_on_c, 1, 71, 64
3, 131712, Note_on_c, 1, 66, 64
3, 131712, Note_on_c, 1, 7, 64
3, 131712, Note_on_c, 1, 71, 64
3, 131712, Note_on_c, 1, 75, 110
3, 131728, Note_on_c, 1, 71, 64
3, 131808, Note_on_c, 1, 66, 64
3, 131904, Note_on_c, 1, 75, 110
3, 132288, Note_on_c, 1, 64, 64
3, 134400, Note_off_c, 1, 26432, 140160, Note_on_c, 4, 35, 110
3, 134592, Note_off_c, 1, 75, 64
3, 134976, Note_off_c, 1, 73, 64
3, 134976, Note_on_c, 1, 73, 110
3, 135008, Note_off_c, 1, 66, 64
3, 135168, Note_on_c, 1, 71, 110
3, 135168, Note_on_c, 1, 68, 64
3, 135168, Note_off_c, 1, 68, 64
3, 135168, Note_on_c, 1, 66, 64
3, 135168, Note_on_c, 1, 64, 64
3, 135168, Note_off_c, 1, 64, 64
3, 135168, Note_off_c, 1, 64, 64
3, 135168, Note_off_c, 1, 69, 64
3, 135168, Note_off_c, 1, 71, 64
3, 135168, Program_c, 1, 56
3, 135328, Note_off_c, 1, 73, 64
3, 135360, Note_off_c, 1, 66, 64
3, 135360, Note_on_c, 1, 66, 64
3, 135360, Note_on_c, 1, 69, 110
3, 135360, Note_off_c, 1, 69, 64
3, 135360, Note_off_c, 1, 64, 64
3, 135936, Note_off_c, 1, 69, 64
3, 136224, Note_off_c, 1, 71, 64
3, 136224, Note_off_c, 1, 66, 64
3, 136320, Note_on_c, 2, 54, 70
3, 136320, Note_on_c, 1, 71, 64
3, 136320, Note_off_c, 1, 68, 64
3, 136320, Note_off_c, 1, 71, 64
3, 136320, Note_on_c, 1, 73, 110
3, 136320, Note_off_c, 1, 73, 64
3, 136416, Note_off_c, 1, 66, 64
3, 136416, Note_on_c, 1, 71, 110
3, 136512, Note_off_c, 1, 71, 64
3, 136512, Note_off_c, 1, 73, 64
3, 136512, Note_on_c, 1, 75, 110
3, 136512, Note_off_c, 1, 68, 64
3, 136512, Note_on_c, 1, 71, 64
3, 136512, Note_off_c, 1, 71, 64
3, 136608, Note_on_c, 1, 68, 64
3, 136704, Note_off_c, 1, 73, 64
3, 136896, Note_off_c, 1, 68, 64
3, 137088, Note_off_c, 1, 71, 64
3, 137472, Note_on_c, 1, 69, 110
3, 138240, Note_on_c, 1, 64, 64
3, 143616, End_track
3, 143616, Note_on_c, 1, 63, 110
3, 144384, Note_off_c, 1, 64, 64
3, 144384, Note_off_c, 1, 63, 64
3, 145536, Note_off_c, 1, 63, 64
3, 145632, Note_off_c, 1, 68, 64
3, 146688, Note_off_c, 110
3, 147840, Note_on_c, 1, 64, Note_on_c, 5, 63, Note_on_c, 9, 36, 110
3, 153408, Note_off_c, 1, 71, 64
3, 172032, Note_on_c, 1, 80, 110
3, 172032, Note_off_c, 1, 80, 64
3, 172336, Note_on_c, 1, 80, 110
3, 172416, Note_on_c, 1, 80, 110
3, 172608, Note_off_c, 1, 70
3, 178112, Note_off_c, 1, 80, 64
3, 193632, Note_off_c, 1, 80, 64
3, 218112, Control_c, 1, 7, 110
3, 219264, Note_on_c, 1, 73, 64
3, 219456, Note_off_c, 1, 75, 64
3, 221344, Note_off_c, 1, 75, 64
3, 221952, Note_off_c, 1, 71, 64
3, 222336, Note_on_c, 1, 71, 110
3, 223009, Note_off_c
3, 224256, Note_on_c, 1, 71, 110
3, 224256, Note_on_c, 1, 711, 40128, Note_on_c, 9, 46, 110
3, 224256, Note_on_c, 1, 71, 110
3, 224352, Control_c, 1, 7, 110
3, 224448, Note_off_c, 1, 71, 64
3, 224448, Note_on_c, 1, 71, 71, 110
3, 224448, Control_c, 1, 7, 91
3, 224448, Control_c, 1, 7, 106
3, 224448, Note_off_c, 1, 75, 64
3, 224544, Control_c, 1, 7, 103
3, 224952, Control_c, 1, 7, 102
3, 225024, Control_c, 1, 7, 99
3, 225024, Note_off_c, 1, 66, 64
3, 225120, Note_off_c, 1, 71, 64
3, 225408, Control_c, 1, 7, 108
3, 225408, Control_c, 1, 7, 101
3, 225408, Note_on_c, 1, 71, 110
3, 225408, Control_c, 1, 7, 109, 49, 114
3, 225416, Control_c, 1, 7, 110
3, 225600, Control_c, 1, 7, 1028, Note_on_c, 5, 76, 86
3, 225600, Control_c, 1, 7, 95
3, 226176, Note_off_c, 1, 71, 64
3, 226176, Control_c, 1, 7, 94
3, 226368, Control_c, 1, 7, 110
3, 226368, Control_c, 1, 7, 90288, Note_off_c, 9, 36, 64
3, 226464, Control_c, 1, 7, 108
3, 226464, Control_c, 1, 7, 110
3, 226464, Control_c, 1, 7, 95
3, 226560, Control_c, 1, 7, 95
3, 226560, Note_on_c, 1, 71, 110
3, 226560, Note_on_c, 1, 71, 64
3, 226752, Control_c, 1, 7, 106
3, 226944, Note_on_c, 1, 66, 64
3, 227328, Note_on_c, 1, 71, 110
3, 227424, Control_c, 1, 7, 80
3, 227424, Control_c, 1, 7, 91
3, 227520, Control_c, 1, 7, 107
3, 228096, Control_c, 1, 7, 81
3, 228192, Control_c, 1, 7, 92
3, 228288, Control_c, 1, 7, 85
3, 228384, Control_c, 1, 7, 74
3, 228384, Control_c, 1, 7, 84
3, 228384, Control_c, 1, 7, 89
3, 228384, Control_c, 1, 7, 80
3, 228480, Control_c, 1, 7, 108
3, 228480, Control_c, 1, 7, 76
3, 228576, Control_c, 1, 7, 75
3, 228576, Control_c, 1, 7, 96
3, 228576, Control_c, 1, 7, 89
3, 228672, Control_c, 1, 7, 72
3, 228768, Control_c, 1, 7, 80
3, 228864, Control_c, 1, 7, 80
3, 229120, Control_c, 1, 7, 86
3, 229248, Note_off_c, 1, 66, 64
3, 229248, Control_c, 1, 7, 85
3, 229248, Control_c, 1, 7, 89
3, 229248, Control_c, 1, 7, 88
3, 229344, Control_c, 1, 7, 74
3, 229532, Note_on_c, 4, 37, 110
3, 229536, Control_c, 1, 7, 80
3, 229538, Note_on_c, 3, 42, 110
3, 229632, Control_c, 1, 7, 96
3, 229632, Note_on_c, 1, 66, 64
3, 229728, Control_c, 1, 7, 77
3, 229824, Control_c, 1, 7, 78
3, 229920, Control_c, 1, 7, 87
3, 230016, Control_c, 1, 7, 65
3, 230208, Control_c, 1, 7, 68
3, 230304, Control_c, 1, 7, 69
3, 230400, Control_c, 1, 7, 69
3, 230400, Note_off_c, 1, 69, 64
3, 230400, Control_c, 1, 7, 68
3, 230496, Control_c, 1, 7, 63
3, 230496, Control_c, 1, 7, 110
3, 230592, Control_c, 1, 7, 74
3, 230592, Note_off_c, 1, 63, 64
3, 230784, Control_c, 1, 7, 69
3, 230784, Control_c, 1, 7, 64
3, 231168, Note_off_c, 1, 71, 64
3, 231168, Note_off_c, 1, 68, 64
3, 231168, Note_off_c, 1, 71, 64
3, 231168, Note_off_c, 1, 71, 64
3, 231168, Note_off_c, 1, 71, 64
3, 231168, Note_off_c, 1, 68, 64
3, 231168, Note_off_c, 1, 71, 64
3, 231168, Note_off_c, 1, 68, 64
3, 231168, Note_off_c, 1, 71, 64
3, 231168, Note_off_c, 1, 71, 64
3, 231168, Note_off_c, 1, 71, 64
3, 231168, Note_on_c, 1, 69, 64
3, 231360, Note_off_c, 1, 71, 64
3, 231456, Note_off_c, 1, 69, 64
3, 231456, Control_c, 1, 7, 68
3, 231462, Control_c, 1, 7, 110
3, 231552, Control_c, 1, 7, 67
3, 231552, Note_on_c, 1, 69, 64
3, 231552, Control_c, 1, 7, 67
3, 231552, Note_on_c, 1, 69, 110
3, 231552, Note_on_c, 1, 69, 64
3, 231552, Note_on_c, 1, 69, 110
3, 231744, Control_c, 1, 7, 68
3, 231744, Note_on_c, 1, 68, 64
3, 231744, Control_c, 1, 7, 63
3, 231744, Note_on_c, 1, 75, 110
3, 231744, Note_off_c, 1, 76, 64
3, 231744, Note_off_c, 1, 69, 64
3, 231744, Note_off_c, 1, 68, 64
3, 231744, Note_off_c, 1, 68, 64
3, 231840, Control_c, 1, 7, 69
3, 232032, Control_c, 1, 7, 56
3, 232128, Control_c, 1, 7, 62
3, 232128, Control_c, 1, 7, 58
3, 232128, Control_c, 1, 7, 63
3, 232128, Control_c, 1, 7, 637336, Note_off_c, 4, 45, 64
3, 232128, Control_c, 1, 7, 64
3, 232128, Control_c, 1, 7, 56
3, 232128, Control_c, 1, 7, 64
3, 232320, Note_off_c, 5, 61, 64
3, 232512, Control_c, 1, 7, 64
3, 232512, Control_c, 1, 7, 58
3, 232608, Control_c, 1, 7, 63
3, 232608, Control_c, 1, 7, 63
3, 232800, Control_c, 1, 7, 54
3, 232896, Note_off_c, 1, 69, 64
3, 232896, Control_c, 1, 7, 65
3, 232896, Control_c, 1, 7, 63
3, 233088, Note_on_c, 1, 6812, 61, 64
3, 233184, Control_c, 1, 7, 56
3, 233216, Control_c, 1, 7, 75
3, 233280, Control_c, 1, 7, 50
3, 233280, Control_c, 1, 7, 56
3, 233472, Note_off_c, 1, 71, 64
3, 233472, Control_c, 1, 7, 56
3, 233568, Control_c, 3, 7, 58
3, 233664, Control_c, 1, 7, 53
3, 233760, Control_c, 1, 7, 65
3, 233952, Control_c, 1, 7, 49
3, 233952, Control_c, 1, 7, 74
3, 234048, Control_c, 1, 7, 44
3, 234144, Control_c, 1, 7, 88
3, 234144, Control_c, 1, 7, 51
3, 234144, Control_c, 1, 7, 48
3, 234528, Control_c, 1, 7, 67
3, 234816, Control_c, 1, 7, 48
3, 234816, Control_c, 1, 7, 46
3, 234944, Control_c, 1, 7, 45
3, 235008, Control_c, 1, 7, 43
3, 235200, Control_c, 1, 7, 44
3, 235200, Control_c, 1, 7, 40
3, 235200, Control_c, 1, 7, 48
3, 235392, Control_c, 1, 7, 44
3, 235392, Control_c, 1, 7, 44
3, 235488, Control_c, 1, 7, 44
3, 235488, Control_c, 1, 7, 4
3, 235488, Control_c, 1, 7, 46
3, 235584, Control_c, 1, 7, 4, 38, 64
3, 235584, Control_c, 1, 7, 46
3, 235680, Control_c, 1, 7, 47
3, 235680, Control_c, 1, 7, 44
3, 235776, Note_on_c, 1, 66, 110
3, 235776, Note_on_c, 1, 64, 110
3, 235792, Control_c, 1, 7, 46
3, 236064, Control_c, 1, 7, 43
3, 236256, Control_c, 1, 7, 30
3, 236496, 64
3, 236544, Note_on_c, 1, 58, 64
3, 236544, Note_on_c, 1, 58, 64
3, 237120, Control_c, 1, 7, 28
3, 237820, Note_on_c, 6, 76, 11, 66240, Note_on_c, 9, 36, 110
3, 238176, Control_c, 1, 7, 28
3, 238464, Control_c, 1, 7, 18
3, 238464, Note_off_c, 1, 64, 64
3, 238464, Control_c, 1, 7, 23
3, 238752, Control_c, 1, 7, 22
3, 238848, Control_c, 1, 7, 2, Control_c, 3, 7, 15
3, 238848, Note_off_c, 1, 59, 64
3, 238848, Note_off_c, 1, 64, 64
3, 239136, Control_c, 1, 7, 21
3, 239136, Control_c, 1, 7, 17
3, 239232, Control_c, 1, 7, 17
3, 239424, Control_c, 1, 7, 26
3, 239616, Note_on_c, 1, 68, 110
3, 239616, Note_on_c, 1, 73, 110
3, 239616, Note_off_c, 9, 36, 64
3, 239904, Control_c, 1, 7, 28
3, 240096, Control_c, 1, 7, 10
3, 240096, Control_c, 1, 7, 19
3, 240288, Control_c, 1, 7, 18
3, 240480, Control_c, 1, 7, 17
3, 240960, Control_c, 1, 7, 110
3, 241056, Control_c, 1, 7, 10
3, 241056, Control_c, 1, 7, 10
3, 241120, Control_c, 1, 7, 11
3, 242400, Control_c, 1, 7, 26
3, 242592, Control_c, 1, 7, 12
3, 242688, Control_c, 1, 7, 14
3, Note_off_c, 5, 76, 64
3, 241632, Control_c, 1, 7, 7
3, 241728, Control_c, 1, 7, 101
3, 242112, Control_c, 1, 7, 8
3, 245000, End_track
4, 0, Start_track
4, 0, Control_c, 2, 9, 44, 64
4, 2, 9, 44, 96
4, 13, 170688, Note_on_c, 6, 64, 7110
4, 14, 64
4, 41, 6, Note_off_c, 9, 59, 64
4, 42, 64
4, 48, Control_c, 0, 7, 61
4, 61, 86
4, 62
4, 63, 74880, Note_on_c, 8, 75, 86
4, 64
4, 69, 64
4, 225, 39, 110
4, 230, 64
4, 476, Note_on_c, 5, 61, 64
4, 481, 64
4, 576, Note_on_c, 2, 61, 64
4, 1440, Note_on_c, 2, 59, 110
4, 2304, Note_on_c, 2, 64, 97
4, 3072, Note_off_c, 2, 59, 64
4, 4032, Note_on_c, 2, 59, 64
4, 4032, Note_on_c, 2, 56, 64
4, 4032, Note_off_c, 2, 56, 64
4, 4608, Note_off_c, 2, 56400, Note_off_c, 9, 36, 64
4, 4608, Note_on_c, 2, 54, 64
4, 4608, Note_on_c, 2, 61, 64
4, 4608, Note_off_c, 2, 59, 64
4, 4992, Note_off_c, 2, 66, 64
4, 7872, Note_on_c, 2, 66, 64
4, 8064, Note_on_c, 2, 63, 110
4, 8064, Note_on_c, 2, 61, 70
4, 8064, Note_off_c, 2, 64, 64
4, 8064, Note_on_c, 2, 63, 110
4, 8160, Note_on_c, 5, 61, 96
4, 8352, Note_on_c, 2, 69, 110
4, 8448, Note_off_c, 2, 56, 64
4, 8448, Note_off_c, 2, 66, 64
4, 8640, Note_off_c, 2, 57, 64
4, 8640, Note_off_c, 2, 66, 64
4, 8832, Note_off_c, 2, 56, 64
4, 9408, Note_off_c, 2, 56, 64
4, 9792, Note_off_c, 2, 56, 64
4, 12192, Note_on_c, 9, 36, 70
4, 13017, 9, 57, 110
4, 18048, Note_off_c, 2, 56, 64
4, 18360, Control_c, 1, 7, 110
4, 21120, Note_on_c, 2, 61, 70
4, 23078
4, 23232, Note_off_c, 2, 57, 64
4, 23404
4, 23864
4, 23872, Note_on_c, 2, 59, 70
4, 28992, Note_off_c, 2, 61, 64
4, 29376, Note_on_c, 2, 56, 70
4, 29952, Note_on_c, 2, 61, 70
4, 29952, Note_on_c, 2, 56, 70
4, 30144, Note_off_c, 2, 59, 64
4, 30144, Note_off_c, 2, 56, 64
4, 30720, Note_off_c, 2, 59, 64
4, 30720, Note_on_c, 2, 59, 70
4, 30944, Note_off_c, 2, 54, 64
4, 31296, Note_on_c, 2, 57, 70
4, 31808, Note_on_c, 2, 57, 70
4, 32256, Note_on_c, 2, 57, 70
4, 33568, Note_on_c, 2, 59, 70
4, 33600, Note_off_c, 5, 61, 64
4, 33792, Note_on_c, 2, 59, 70
4, 34176, Note_off_c, 2, 59, 64
4, 34368, Note_on_c, 2, 44, 64
4, 34560, Note_off_c, 2, 59, 64
4, 34944, Note_on_c, 2, 59, 70
4, 35136, Note_on_c, 2, 54, 70
4, 35312, Note_off_c, 2, 59, 64
4, 35424, Note_on_c, 2, 59, 70
4, 35520, Note_off_c, 2, 59, 64
4, 36096, Note_on_c, 2, 56, 70
4, 36480, Note_on_c, 2, 59, 70
4, 36480, Note_on_c, 2, 59, 70
4, 36768, Note_off_c, 2, 54, 64
4, 39104, Note_off_c, 2, 54, 64
4, 39168, Note_off_c, 2, 54, 64
4, 39936, Control_c, 2, 7, 10
4, 39936, Program_c, 1, 56
4, 39936, Note_off_c, 2, 54, 64
4, 39936, Note_off_c, 2, 52, 64
4, 39936, Note_on_c, 2, 54, 7208, Note_off_c, 9, 36, 64
4, 40128, Note_on_c, 2, 55, 70
4, 40128, Note_off_c, 2, 57, 64
4, 40128, Note_on_c, 2, 57, 70
4, 40512, Note_on_c, 2, 57, 70
4, 40704, Note_off_c, 2, 59, 64
4, 40704, Note_on_c, 2, 57, 70
4, 40704, Note_on_c, 2, 57, 70
4, 40896, Note_on_c, 2, 54, 70
4, 41024, Note_on_c, 2, 57, 70
4, 41088, Note_on_c, 2, 57, 70
4, 41088, Note_on_c, 2, 57, 70
4, 41088, Note_on_c, 2, 57, 70
4, 41088, Note_on_c, 2, 57, 70
4, 41184, Note_on_c, 2, 57, 70
4, 41280, Note_off_c, 2, 59, 64
4, 41280, Note_on_c, 2, 57, 70
4, 41280, Note_on_c, 2, 57, 70
4, 41280, Note_off_c, 2, 57, 64
4, 41280, Note_on_c, 2, 57, 70
4, 41280, Note_off_c, 2, 57, 64
4, 41664, Note_on_c, 2, 57, 70
4, 41664, Note_on_c, 2, 57, 70
4, 41856, Note_off_c, 2, 57, 64
4, 41856, Note_off_c, 2, 57, 64
4, 41856, Note_off_c, 2, 57, 64
4, 42048, Note_on_c, 2, 52, 70
4, 42048, Note_on_c, 2, 57, 70
4, 42080, Note_on_c, 5, 61, 96
4, 42112, Note_on_c, 2, 57, 70
4, 42240, Note_on_c, 2, 57, 70
4, 42240, Note_on_c, 2, 52, 70
4, 42240, Note_on_c, 2, 52, 70
4, 42240, Note_on_c, 2, 57, 70
4, 42432, Note_on_c, 2, 52, 70
4, 42432, Note_on_c, 2, 57, 70
4, 42432, Note_on_c, 2, 57, 70
4, 42432, Note_on_c, 2, 52, 70
4, 42432, Note_on_c, 2, 52, 70
4, 42624, Note_on_c, 2, 57, 70
4, 42624, Note_on_c, 2, 57, 70
4, 42624, Note_on_c, 20832, Control_c, 9, 7, 100
4, 42624, Note_on_c, 2, 59, 70
4, 42720, Note_off_c, 2, 57, 64
4, 42816, Note_on_c, 2, 57, 70
4, 42816, Note_on_c, 2, 57, 70
4, 42848, Note_on_c, 2, 59, 70
4, 45120, Note_on_c, 2, 54, 70
4, 45312, Note_off_c, 2, 58, 64
4, 45504, Note_on_c, 2, 51, 70
4, 45504, Note_off_c, 2, 54, 64
4, 45568, Note_on_c, 2, 57, 70
4, 46080, Note_off_c, 2, 56, 64
4, 46080, Note_off_c, 2, 52, 64
4, 46080, Note_off_c, 2, 54, 64
4, 46080, Note_off_c, 2, 52, 64
4, 46080, Note_on_c, 2, 52, 70
4, 46080, Note_on_c, 2, 51, 70
4, 46080, 9, 39, 110
4, 46272, Note_off_c, 2, 56, 64
4, 47712, Note_off_c, 2, 51, 64
4, 47840, Note_on_c, 2, 52, 70
4, 48000, Note_off_c, 2, 56, 64
4, 48000, Note_off_c, 2, 51, 64
4, 48000, Note_off_c, 2, 51, 64
4, 48160, Note_off_c, 2, 57, 64
4, 48384, Note_on_c, 2, 46, 70
4, 48384, Note_off_c, 2, 51, 64
4, 48768, Note_off_c, 2, 52, 64
4, 48928, Note_off_c, 2, 54, 64
4, 49152, Note_off_c, 2, 51, 64
4, 49152, Note_on_c, 2, 51, 70
4, 49152, Note_off_c, 2, 56, 64
4, 49152, Note_off_c, 2, 51, 64
4, 49152, Note_off_c, 2, 46, 64
4, 61824, Note_on_c, 2, 61, 70
4, 63360, Note_on_c, 2, 51, 70
4, 65664, Note_on_c, 1, 71, 110
4, 74112, Note_on_c, 9, 44, 110
4, 85632, Note_on_c, 2, 57, 110
4, 86016, Note_off_c, 2, 66, 64
4, 86016, Note_off_c, 2, 61, 64
4, 86016, Note_off_c, 2, 66, 64
4, 86016, Note_on_c, 2, 66, 110
4, 86976, Note_off_c, 2, 66, 64
4, 86976, Note_off_c, 2, 66, 64
4, 87166, Note_on_c, 5, 61, 110
4, 87744, Note_off_c, 2, 61, 64
4, 87744, Note_on_c, 2, 66, 110
4, 87968, Note_on_c, 2, 63, 110
4, 88320, Note_off_c, 2, 63, 64
4, 88480, Note_off_c, 2, 54, 64
4, 122880, Program_c, 5, 81
4, 122880, Control_c, 2, 7, 100
4, 122880, Note_on_c, 2, 63, 110
4, 123648, Note_off_c, 2, 56, 64
4, 123648, Note_off_c, 2, 56, 64
4, 124608, Note_on_c, 2, 56, 70
4, 125184, Note_on_c, 2, 56, 70
4, 125376, Note_on_c, 2, 61, 70
4, 125568, Note_off_c, 2, 56, 64
4, 125760, Note_off_c, 2, 61, 64
4, 125952, Note_on_c, 2, 56, 70
4, 130176, Note_on_c, 2, 59, 70
4, 130176, Note_on_c, 2, 54, 70
4, 130336, Note_on_c, 2, 54, 7, 195648, Note_off_c, 0, 52, 64
4, 130368, Note_on_c, 2, 54, 70
4, 130752, Note_on_c, 2, 54, 70
4, 130752, Note_on_c, 2, 54, 70
4, 130944, Note_off_c, 2, 59, 64
4, 130944, Note_off_c, 2, 59, 64
4, 131328, Note_on_c, 2, 59, 70
4, 131328, Note_on_c, 2, 59, 70
4, 131328, Note_on_c, 2, 59, 70
4, 131520, Note_off_c, 2, 59, 64
4, 131520, Note_off_c, 2, 57, 64
4, 131520, Note_off_c, 2, 59, 64
4, 131520, Note_off_c, 2, 54, 64
4, 131520, Note_on_c, 2, 54, 70
4, 131520, Note_on_c, 2, 59, 70
4, 131520, Note_on_c, 9, 44, 110
4, 131712, Note_on_c, 2, 59, 70
4, 131712, Note_on_c, 2, 59, 70
4, 131712, Note_on_c, 2, 59, 70
4, 131712, Note_off_c, 2, 59, 64
4, 131712, Note_on_c, 2, 59, 70
4, 131712, Note_on_c, 2, 59, 70
4, 131904, Note_off_c, 2, 59, 64
4, 131904, Note_on_c, 2, 59, 70
4, 132096, Note_on_c, 2, 57, 70
4, 132288, 7, 29
4, 132864, Note_on_c, Note_on_c, 5, 59, 110
4, 133024, Note_off_c, 2, 57, 64
4, 133824, Note_on_c, 2, 54, 70
4, 134400, Note_on_c, 2, 57, 70
4, 135168, Program_c, 2, 60
4, 135168, Note_on_c, 2, 52, 70
4, 135168, Note_on_c, 2, 59, 70
4, 135168, Note_on_c, 2, 54, 70
4, 135360, Note_off_c, 2, 57, 64
4, 135360, Note_off_c, 2, 57, 64
4, 135552, Note_on_c, 2, 57, 70
4, 135744, Note_on_c, 2, 57, 70
4, 136320, Note_on_c, 2, 59, 70
4, 136320, Note_on_c, 2, 59, 70
4, 136320, Note_on_c, 2, 57, 70
4, 136512, Note_off_c, 2, 54, 64
4, 136512, Note_off_c, 2, 57, 64
4, 136536, Note_off_c, 2, 53, 64
4, 136896, Note_on_c, 2, 57, 70
4, 136896, Note_on_c, 2, 57, 70
4, 137472, Note_on_c, 2, 57, 70
4, 138432, Note_on_c, 2, 54, 70
4, 140544, Note_on_c, 2, 56, 70
4, 141312, Note_on_c, 2, 51, 70
4, 141312, Note_on_c, 2, 51, 70
4, 141312, Note_on_c, 2, 57, 70
4, 141312, Note_on_c, 2, 46, 64
4, 141504, Note_on_c, 260544, Control_c, 3, 7, 66
4, 141504, Note_off_c, 1, 73, 64
4, 143008, Note_off_c, 2, 56, 64
4, 143104, Note_on_c, 2, 59, 70
4, 143232, Note_off_c, 2, 57, 64
4, 143232, Note_off_c, 2, 51, 64
4, 143616, Note_off_c, 2, 57, 64
4, 143616, Note_on_c, 2, 46, 70
4, 144384, Note_on_c, 2, 51, 70
4, 144384, Note_on_c, 2, 46, 70
4, 144384, Note_on_c, 2, 46, 70
4, 144384, Note_off_c, 2, 51, 64
4, 144384, Note_off_c, 2, 51, 64
4, 144560, Note_off_c, 2, 56, 64
4, 144576, Note_off_c, 2, 56, 64
4, 145728, Note_off_c, 2, 52, 64
4, 148512, Note_off_c, 2, 57, 64
4, 151149, Note_off_c, 1, 64, 64
4, 218880, Note_on_c, 2, 57, 70
4, 221952, Note_off_c, 2, 57, 64
4, 223296, Note_on_c, 2, 59, 70
4, 223488, Note_off_c, 2, 59, 64
4, 223488, Note_on_c, 2, 56, 70
4, 223680, Note_on_c, 2, 54, 70
4, 224256, Control_c, 2, 7, 92
4, 225024, Note_off_c, 2, 59, 64
4, 225024, Control_c, 2, 7, 91
4, 225120, Control_c, 2, 7, 95
4, 225312, Control_c, 2, 7, 95
4, 225408, Note_on_c, 2, 56, 70
4, 225408, Note_on_c, 2, 59, 70
4, 225408, Note_on_c, 2, 59, 70
4, 225408, Note_on_c, 2, 59, 70
4, 225408, Control_c, 2, 7, 93
4, 225408, Control_c, 2, 7, 93
4, 225408, Note_on_c, 2, 54, 70
4, 225408, Note_on_c, 2, 59, 70
4, 225600, Note_off_c, 2, 54, 64
4, 225600, Control_c, 2, 7, 92
4, 225696, Control_c, 2, 7, 93
4, 225792, Control_c, 2, 7, 9, 44, 64
4, 225792, Control_c, 2, 7, 93
4, 225888, Control_c, 2, 7, 99
4, 225984, Control_c, 2, 7, 90
4, 225984, Control_c, 2, 7, 92
4, 226176, Control_c, 2, 7, 76
4, 226176, Note_off_c, 3, 37, 64
4, 226176, Control_c, 2, 7, 84
4, 226176, Control_c, 2, 7, 84
4, 226464
4, 226544, Control_c, 2, 7, 76, 81
4, 226752, Control_c, 2, 7, 88
4, 226752, Control_c, 2, 7, 85
4, 226944, Note_on_c, 2, 59, 70
4, 227040, Control_c, 2, 7, 85
4, 227136, Note_on_c, 2, 58, 70
4, 227520, Control_c, 2, 7, 81
4, 227712, Control_c, 2, 7, 83
4, 228000, Control_c, 2, 7, 77
4, 228096, 64
4, 228096, Control_c, 3, 7, 73
4, 228192, Control_c, 2, 7, 77
4, 228288, Control_c, 2, 7, 77
4, 228480, Control_c, 2, 7, 76
4, 228480, Control_c, 2, 7, 74
4, 228672, Control_c, 2, 7, 70
4, 228672, Control_c, 2, 7, 79
4, 228672, Control_c, 2, 7, 70
4, 228672, Control_c, 2, 7, 70
4, 228672, Control_c, 2, 7, 71
4, 228864, Control_c, 2, 7, 74
4, 228896, Control_c, 2, 7, 75
4, 228960, Control_c, 2, 7, 77
4, 229248, 5, Control_c, 4, 7, 83
4, 229344, Note_on_c, 2, 57, 70
4, 229344, Control_c, 2, 7, 82
4, 229824, Control_c, 2, 7, 89
4, 229920, Control_c, 2, 7, 76
4, 230016, Control_c, 2, 7, 67
4, 230016, Note_on_c, 2, 57, 70
4, 230080, Control_c, 2, 7, 75
4, 230112, Control_c, 2, 7, 67
4, 230112, Control_c, 2, 7, 68
4, 230112, Control_c, 2, 7, 66
4, 230112, Control_c, 2, 7, 64
4, 230112, Note_on_c, 2, 57, 70
4, 230208, Control_c, 2, 7, 69
4, 230208, Control_c, 2, 7, 64
4, 230304, Control_c, 2, 7, 66
4, 230304, Control_c, 2, 7, 68
4, 230304, Control_c, 2, 7, 66
4, 230304, Control_c, 2, 7, 67
4, 230304, Control_c, 2, 7, 75
4, 230304, Control_c, 2, 7, 66
4, 230304, Control_c, 2, 7, 67
4, 230400, Note_on_c, 2, 61, 70
4, 230400, 6, Note_off_c, 9, 36, 64
4, 230400, Control_c, 2, 7, 64
4, 230400, Control_c, 2, 7, 64
4, 230400, Control_c, 3, 7, 64
4, 230400, Note_off_c, 2, 57, 64
4, 230400, Control_c, Note_off_c, 9, 44, 64
4, 230400, Control_c, 2, 7, 65
4, 230400, Note_on_c, 2, 57, 70
4, 230400, Control_c, 2, 7, 66
4, 230400, Control_c, 2, 7, 69
4, 230400, Control_c, 2, 7, 69
4, 230400, Note_off_c, 2, 57, 64
4, 230400, Note_off_c, 2, 57, 64
4, 230400, Note_off_c, 2, 58, 64
4, 230400, Control_c, 2, 7, 68
4, 230400, Note_on_c, 2, 57, 70
4, 230400, Note_off_c, 2, 59, 64
4, 230496, Control_c, 2, 7, 61
4, 230592, Control_c, 2, 7, 68
4, 230592, Control_c, 2, 7, 68
4, 230592, Control_c, 2, 7, 62
4, 230592, Note_off_c, 2, 57, 64
4, 230592, Note_on_c, 2, 57, 70
4, 230592, Control_c, 2, 7, 66
4, 230592, Note_off_c, 2, 57, 64
4, 230592, Control_c, 2, 7, 69
4, 230592, Note_off_c, 2, 57, 64
4, 230592, Note_off_c, 2, 57, 64
4, 230688, Control_c, 2, 7, 65
4, 230784, Control_c, 25376, Note_on_c, 9, 44, 96
4, 230784, Control_c, 2, 7, 65
4, 230816, Control_c, 2, 7, 67
4, 230816, Control_c, 2, 7, 68
4, 230880, Control_c, 2, 7, 64
4, 230880, Control_c, 2, 7, 67
4, 230976, Note_on_c, 2, 59, 70
4, 230976, Note_on_c, 2, 57, 70
4, 231072, Control_c, 2, 7, 69
4, 231168, Note_off_c, 2, 57, 64
4, 231168, Note_off_c, 2, 57, 64
4, 231168, Control_c, 2, 7, 68
4, 231168, Control_c, 2, 7, 71
4, 231168, Control_c, 2, 7, 65
4, 231168, Control_c, 2, 7, 67
4, 231168, Control_c, 2, 7, 69
4, 231168, Note_off_c, 2, 52, 64
4, 231360, Control_c, 2, 7, 67
4, 231456, Control_c, 2, 7, 71
4, 231456, Control_c, 2, 7, 71
4, 231552, Control_c, 2, 7, 50
4, 231744, Control_c, 2, 7, 73
4, 231744, Control_c, 2, 7, 67
4, 231744, Note_off_c, 2, 57, 64
4, 231872, Control_c, 2, 7, 57
4, 231904, Control_c, 2, 7, 63
4, 231936, Control_c, 2, 7, 58
4, 231936, Control_c, 2, 7, 59
4, 232128, Control_c, 2, 7, 58
4, 232128, Control_c, 1, 7, 65
4, 232192, Control_c, 2, 7, 69
4, 232320, Control_c, 2, 7, 56
4, 232320, Note_off_c, 2, 57, 64
4, 232416, Control_c, 2, 7, 67
4, 232704, Control_c, 2, 7, 58
4, 232800, Control_c, 2, 7, 69
4, 232992, Note_off_c, 2, 57, 64
4, 232992, Control_c, 2, 7, 57
4, 233280, Control_c, 2, 7, 59
4, 233280, Control_c, 2, 7, 50
4, 233280, Note_off_c, 2, 57, 64
4, 233280, Control_c, 2, 7, 52
4, 233472, Control_c, 2, 7, 59, 96
4, 233472, Note_off_c, 2, 54, 64
4, 233472, Note_on_c, 2, 54, 70
4, 233472, Note_on_c, 2, 54, 70
4, 233472, Note_on_c, 2, 58, 70
4, 233768, Control_c, 2, 7, 57
4, 234048, Control_c, 2, 7, Control_c, 0, 7, 72
4, 234144, Control_c, 2, 7, 48
4, 234240, Note_off_c, 2, 56, 64
4, 234432, Control_c, 2, 7, 42
4, 234544, Control_c, 2, 7, 44
4, 234624, Control_c, 2, 7, 47
4, 234816, Control_c, 2, 7, 42
4, 234912, Control_c, 2, 7, 46
4, 235008, Control_c, 3, 7, 44
4, 235200, Control_c, 2, 7, 44
4, 235488, Control_c, 2, 7, 42
4, 235584, Control_c, 2, 7, 34
4, 235584, Control_c, 2, 7, 46
4, 235584, Control_c, 2, 7, 47
4, 235696, Control_c, 2, 7, 37
4, 235776, Note_on_c, 2, 52, 70
4, 235776, Note_off_c, 2, 57, 64
4, 235776, Note_off_c, 2, 54, 64
4, 235776, Note_on_c, 2, 52, 70
4, 235776, Note_on_c, 2, 58, 70
4, 236160, Control_c, 2, 7, 44
4, 236256, Control_c, 2, 7, 38
4, 236256, Control_c, 2, 7, 35
4, 236336, Control_c, 2, 7, 34
4, 236352, Control_c, 2, 7, 40
4, 236448, Control_c, 2, 7, 31
4, 236544, Control_c, 2, 7, 32
4, 236544, Note_off_c, 2, 46, 64
4, 236544, Note_on_c, 2, 56, 70
4, 236544, Control_c, 2, 7, 35
4, 236544, Note_off_c, 2, 56, 64
4, 236736, Control_c, 2, 7, 39
4, 236736, Control_c, 2, 7, 32
4, 236736, Control_c, 2, 7, 27
4, 236928, Control_c, 2, 7, 38
4, 236928, Control_c, 2, 7, 31
4, 237024, Control_c, 2, 7, 33
4, 237024, Control_c, 2, 7, 33
4, 237024, Control_c, 2, 7, 32
4, 237216, Control_c, 2, 7, 33
4, 237312, Control_c, 2, 7, 30
4, 237312, Control_c, 2, 7, 32
4, 237312, Control_c, 2, 7, 30
4, 237504, Control_c, 2, 7, 30
4, 237504, Control_c, 2, 7, 30
4, 237600, Control_c, 2, 7, 27
4, 237696, Control_c, 2, 7, 30
4, 237696, Control_c, 2, 7, 24
4, 237696, Control_c, 2, 7, 29
4, 237696, Control_c, 2, 7, 25
4, 237696, Control_c, 2, 7, 31
4, 237888, Control_c, 2, 7, 37
4, 237888, Control_c, 2, 7, 25
4, 238080, Control_c, 2, 7, 22
4, 238160, Control_c, 2, 7, 62
4, 238176, Control_c, 2, 7, 68
4, 238176, Control_c, 2, 7, 27
4, 238272, Control_c, 2, 7, 27
4, 238272, Control_c, 2, 7, 25
4, 238272, Control_c, 2, 7, 27
4, 238368, Control_c, 2, 7, 67
4, 238368, Control_c, 2, 7, 64
4, 238464, Control_c, 2, 7, 22
4, 238464, Note_off_c, 2, 57, 64
4, 238464, Note_off_c, 2, 57, 64
4, 238464, Note_off_c, 2, 55, 64
4, 238464, Control_c, 2, 7, 22
4, 238464, Control_c, 2, 7, 22
4, 238464, Control_c, 2, 7, 24
4, 238560, Control_c, 2, 7, 25
4, 238656, Control_c, 2, 7, 22
4, 238656, Control_c, 2, 7, 62
4, 238656, Control_c, 2, 7, 24
4, 238752, Control_c, 2, 7, 26
4, 238752, Control_c, 2, 7, 24
4, 238752, Control_c, 2, 7, 29
4, 238752, Control_c, 2, 7, 22
4, 238768, Control_c, 2, 7, 69
4, 238848, Control_c, 2, 7, 29
4, 238896, Control_c, 2, 7, 33
4, 238944, Control_c, 2, 7, 21
4, 239040, Control_c, 2, 7, 43
4, 239520, Control_c, 2, 7, 13
4, 239616, Note_off_c, 2, 51, 64
4, 239616, Note_on_c, 2, 51, 70
4, 239616, Control_c, 2, 7, 17
4, 239616, Control_c, 2, 7, 13
4, 239616, Note_off_c, 2, 56, 64
4, 239712, Control_c, 2, 7, 17
4, 239712, Control_c, 2, 7, 17
4, 239904, Control_c, 2, 7, 17
4, 240192, Note_on_c, 2, 56, 70
4, 240288, Control_c, 2, 7, 16
4, 240384, Control_c, 2, 7, 18
4, 240480, Control_c, 2, 7, 11
4, 240768, Control_c, 2, 7, 114
4, 240768, Control_c, 2, 7, 10
4, 240768, Control_c, 2, 7, 11
4, 240864, Control_c, 2, 7, 11
4, 240960, Control_c, 2, 7, 11
4, 241728, Note_on_c, 2, 59, 70
4, 242304, Control_c, 2, 7, 3
4, 242400, Control_c, 2, 7, 3
4, Note_on_c, 0, 68, 110
4, 238848, Control_c, 2, 7, 38
4, 245000, End_track
5, 0, Start_track
5, 0, Note_on_c, 3, 38, 110
5, 0, Control_c, 3, 91, 41
5, 0, Start_track
5, 1, 61, 81
5, 4
5, 4
5, 5, 64
5, 7, 63, 110
5, 9, 64
5, 14
5, 43, 45504, Note_on_c, 4, 42, 110
5, 43, 110
5, 48, 64
5, 49, 64
5, 62
5, 64
5, 64
5, 65, 64
5, 96, Control_c, 0, 7, 78
5, 110
5, 152
5, 165, 61, 110
5, 228, Note_on_c, 9, 36, 110
5, 576, Note_on_c, 3, 44, 110
5, 576, Note_on_c, 3, 45, 110
5, 768, Note_off_c, 1, 64, 64
5, 768, Note_off_c, 7, 83, 64
5, 768, Note_off_c, 3, 38, 64
5, 890, Control_c, 3, 7, 13
5, 896, Control_c, 0, 7, 105
5, 994
5, 1420, Note_off_c, 0, 73, 64
5, 1536, Note_off_c, 3, 45, 64
5, 1704, Note_off_c, 8, 73, 64
5, 1977, 27088, Note_on_c, 9, 44, 110
5, 2276, Note_on_c, 6, 68, 110
5, 2304, Note_on_c, 3, 45, 110
5, 2404, Note_on_c, 7, 76, 81
5, 3072, Note_on_c, 3, 33, 110
5, 3072, Note_on_c, 3, 33, 110
5, 3224, Note_on_c, 3, 42, 110
5, 3456, Note_off_c, 3, 52, 64
5, 4800, Note_off_c, 3, 42, 64
5, 4848, Note_on_c, 3, 49, 110
5, 5376, Note_off_c, 3, 42, 64
5, 5760, Note_on_c, 3, 42, 110
5, 5760, Note_on_c, 3, 42, 110
5, 5952, Note_on_c, 3, 42, 110
5, 5952, Note_on_c, 3, 42, 110
5, 6304, Program_c, 5, 81
5, 6336, Note_off_c, 3, 42, 64
5, 6912, Note_off_c, 3, 38, 64
5, 7200, Note_off_c, 3, 44, 64
5, 7296, Note_on_c, 3, 37, 110
5, 7376, Note_off_c, 3, 42, 64
5, 7488, Note_off_c, 3, 49, 64
5, 8256, Note_on_c, 3, 37, 110
5, 8600, Program_c, 3, 32
5, 9024, Note_on_c, 3, 37, 110
5, 9216, Note_on_c, 3, 37, 110
5, 9304, Note_on_c, 3, 38, 110
5, 9408, Note_off_c, 3, 51, 64
5, 9440, Note_off_c, 3, 49, 64
5, 9600, Note_on_c, 3, 37, 110
5, 10176, Note_on_c, 3, 42, 110
5, 11136, Note_on_c, 1, 64, 64
5, 11304, Note_off_c, 4, 37, 64
5, 11328, Note_off_c, 3, 5, 61, 96
5, 12112, Note_on_c, 3, 37, 110
5, 13248, Note_on_c, 3, 42, 110
5, 13440, Note_off_c, 3, 5, 7, 20
5, 13440, Note_on_c, 3, 52, 110
5, 13440, Note_on_c, 3, 33, 110
5, 13440, Note_off_c, 3, 52, 64
5, 13440, Note_on_c, 3, 33, 110
5, 13440, Note_off_c, 3, 59, 64
5, 13440, Note_on_c, 3, 54, 110
5, 13440, Note_off_c, 3, 37, 64
5, 13440, Note_off_c, 3, 59, 64
5, 13440, Note_on_c, 3, 52, 110
5, 13632, Note_off_c, 3, 33, 64
5, 13632, Note_off_c, 3, 33, 64
5, 13632, Note_off_c, 3, 33, 64
5, 13632, Note_off_c, 3, 37, 64
5, 13824, 64
5, 13824, Note_on_c, 3, 37, 110
5, 13824, Program_c, 3, 32
5, 13824, Control_c, 3, 7, 100
5, 14400, Note_on_c, 3, 44, 110
5, 14400, Note_off_c, 3, 49, 64
5, 14400, Note_off_c, 3, 42, 64
5, 14776, Note_off_c, 3, 53, 64
5, 14784, Note_on_c, 1, 61, 81
5, 14784, Note_on_c, 3, 42, 110
5, 14784, Note_off_c, 3, 44, 64
5, 14784, Note_on_c, 9, 38, 110
5, 14800, Note_off_c, 3, 44, 64
5, 15360, Note_on_c, 3, 42, 110
5, 15360, Note_on_c, 3, 49, 110
5, 15552, Note_on_c, 3, 42, 110
5, 15552, Note_on_c, 3, 49, 110
5, 15552, Note_on_c, 3, 44, 110
5, 15744, Note_on_c, 3, 49, 110
5, 15936, Note_off_c, 3, 42, 64
5, 15936, Note_on_c, 3, 49, 110
5, 17088, Note_off_c, 3, 38, 64
5, 17664, Note_off_c, 3, 45, 64
5, 18432, Note_on_c, 3, 54, 110
5, 19200, Note_on_c, 3, 37, 110
5, 19267, 221408, Note_on_c, 5, 61, 64
5, 19776, Note_off_c, 3, 5, 73, 64
5, 21004, 36, 110
5, 21312, Note_off_c, 3, 37, 64
5, 21312, Note_on_c, 3, 37, 110
5, 21552, Note_on_c, 3, 37, 110
5, 22752, 7, 71, 110
5, 23232, Note_off_c, 3, 37, 64
5, 23232, Note_off_c, 3, 37, 64
5, 23424, Control_c, 3, 7, 78
5, 23616, Control_c, 3, 7, 86
5, 23769, 59, 64
5, 23961, 110
5, 24016, Note_on_c, 3, 42, 110
5, 24384, Note_off_c, 3, 37, 64
5, 25344, Note_on_c, 3, 38, 110
5, 26496, Note_off_c, 3, 38, 64
5, 26576, Note_off_c, 3, 3, 74
5, 28000, Note_on_c, 3, 40, 110
5, 28800, Note_off_c, 3, 35, 64
5, 28992, Note_off_c, 3, 37, 64
5, 30336, Note_on_c, 3, 40, 110
5, 30528, Note_on_c, 3, 39, 110
5, 31488, Note_on_c, 3, 37, 110
5, 32256, Note_off_c, 3, 37, 64
5, 32256, Note_on_c, 3, 37, 110
5, 32256, Note_off_c, 3, 35, 64
5, 32321, 36, 64
5, 32448, Note_off_c, 3, 39, 64
5, 32640, Note_off_c, 3, 39, 64
5, 33024, Note_off_c, 3, 39, 64
5, 33216, Note_on_c, 3, 39, 110
5, 33408, Note_on_c, 3, 40, 110
5, 33408, Note_off_c, 3, 40, 64
5, 33600, Note_off_c, 3, 39, 64
5, 33792, Control_c, 3, 7, 84
5, 33792, Control_c, 3, 7, 71
5, 33792, Program_c, 3, 32
5, 33792, Program_c, 3, 3216, Note_off_c, 0, 68, 64
5, 33792, Program_c, 3, 32
5, 33984, Note_on_c, 3, 40, 110
5, 33984, Note_on_c, 3, 35, 110
5, 34176, Note_off_c, 3, 39, 64
5, 34336, Note_on_c, 3, 39, 110
5, 34368, Note_off_c, 3, 40, 9, 44, 64
5, 34368, Note_on_c, 3, 35, 110
5, 34368, Note_off_c, 3, 35, 64
5, 34560, Note_on_c, 3, 39, 110
5, 34560, Note_off_c, 3, 40, 64
5, 34560, Note_on_c, 3, 39, 110
5, 34752, Note_off_c, 3, 40, 64
5, 34752, Note_on_c, 3, 35, 110
5, 34944, Note_off_c, 3, 40, 64
5, 34944, Note_on_c, 3, 35, 110
5, 35104, Note_off_c, 3, 35, 64
5, 35104, Note_off_c, 5, 59, 64
5, 35136, Note_on_c, 3, 37, 110
5, 35328, Note_off_c, 3, 35, 64
5, 35520, Note_off_c, 3, 40, 64
5, 35712, Note_off_c, 3, 40, 64
5, 35904, Note_on_c, 3, 39, 110
5, 36080, Note_on_c, 3, 40, 110
5, 36096, Note_off_c, 3, 35, 64
5, 36096, Note_off_c, 3, 40, 64
5, 36288, Note_on_c, 3, 35, 110
5, 36288, Note_off_c, 3, 40, 64
5, 36288, Note_on_c, 3, 35, 110
5, 36288, Note_off_c, 3, 35, 64
5, 36672, Note_on_c, 3, 40, 110
5, 36864, Note_off_c, 3, 40, 64
5, 36864, Note_on_c, 3, 40, 110
5, 36864, Note_on_c, 3, 40, 110
5, 37152, Note_on_c, 3, 40, 64
5, 37440, Note_off_c, 3, 39, 64
5, 37536, Note_on_c, 3, 40, 110
5, 37536, Note_off_c, 3, 40, 64
5, 37632, Note_on_c, 3, 40, 110
5, 37744, Note_on_c, 3, 40, 110
5, 37824, Note_on_c, 3, 35, 110
5, 38016, Note_on_c, 3, 40, 110
5, 38016, Note_off_c, 3, 40, 64
5, 38016, Note_off_c, 3, 40, 64
5, 38112, Program_c, 3, 32
5, 38176, Note_on_c, 3, 39, 110
5, 38688, Note_on_c, 3, 35, 110
5, 38784, Note_on_c, 3, 40, 110
5, 39168, Note_on_c, 3, 40, 110
5, 39168, Note_on_c, 3, 40, 110
5, 39168, Note_off_c, 3, 40, 64
5, 39168, Note_off_c, 3, 40, 64
5, 39456, Note_off_c, 3, 39, 64
5, 39552, Note_off_c, 3, 40, 64
5, 39552, Note_on_c, 3, 40, 110
5, 39552, Note_off_c, 3, 40, 64
5, 39744, Note_on_c, 3, 4, 175808, Note_off_c, 3, 45, 64
5, 39936, Program_c, 3, 32
5, 40128, Note_on_c, 3, 40, 110
5, 40128, Note_off_c, 3, 42, 64
5, 40224, Note_off_c, 3, 33, 64
5, 40320, Note_on_c, 3, 35, 110
5, 40512, Note_on_c, 3, 36, 110
5, 40704, Note_on_c, 3, 33, 110
5, 40704, Note_on_c, 3, 33, 31, 64
5, 40704, Note_on_c, 3, 33, 110
5, 41088, Note_off_c, 3, 33, 64
5, 41152, Note_off_c, 3, 33, 64
5, 41280, Note_on_c, 3, 39, 110
5, 41280, Note_off_c, 3, 39, 64
5, 41472, Note_on_c, 3, 37, 110
5, 41664, Note_on_c, 3, 33, 110
5, 41664, Note_on_c, 3, 33, 110
5, 41856, Note_off_c, 3, 33, 64
5, 41856, Note_off_c, 3, 37, 64
5, 41856, Note_off_c, 3, 37, 64
5, 41856, Note_off_c, 3, 33, 64
5, 41856, Note_on_c, 3, 37, 110
5, 41856, Note_off_c, 3, 35, 64
5, 42048, Note_on_c, 3, 33, 110
5, 42112, Note_on_c, 3, 33, 110
5, 42240, Note_on_c, 3, 40, 110
5, 42432, Note_off_c, 3, 39, 64
5, 42432, Note_on_c, 3, 39, 110
5, 42432, Note_off_c, 3, 33, 64
5, 42432, Note_off_c, 3, 33, 64
5, 42432, Note_on_c, 3, 33, 110
5, 42624, Note_on_c, 3, 35, 110
5, 42624, Note_on_c, 3, 39, 110
5, 42624, Note_off_c, 3, 35, 64
5, 42816, Note_off_c, 3, 35, 64
5, 42816, Note_off_c, 3, 35, 64
5, 42816, Note_on_c, 3, 35, 110
5, 43008, Note_on_c, 3, 37, 110
5, 43008, Note_off_c, 3, 39, 64
5, 43008, Note_off_c, 3, 35, 64
5, 43008, Note_off_c, 3, 39, 64
5, 43008, Note_on_c, 3, 35, 110
5, 43008, Note_off_c, 3, 37, 64
5, 43008, Note_off_c, 3, 37, 64
5, 43008, Note_on_c, 3, 39, 110
5, 43008, Note_on_c, 3, 35, 110
5, 43008, Note_on_c, 3, 35, 110
5, 43008, Note_off_c, 3, 35, 64
5, 43008, Note_on_c, 3, 35, 110
5, 43104, Note_off_c, 3, 39, 64
5, 43200, Note_on_c, 3, 39, 110
5, 43488, Note_on_c, 3, 39, 110
5, 43584, Note_on_c, 3, 39, 110
5, 43680, Note_on_c, 3, 39, 110
5, 43776, Note_off_c, 3, 39, 64
5, 43776, Note_off_c, 3, 42, 64
5, 43788, Note_on_c, 3, 39, 110
5, 43968, Note_on_c, 3, 33, 110
5, 44912, Note_off_c, 3, 44, 64
5, 44928, Note_on_c, 3, 41, 110
5, 45312, Note_off_c, 3, 35, 64
5, 45504, 64
5, 45696, Note_off_c, 3, 40, 64
5, 46080, Control_c, 3, 7, 3
5, 46080, Note_off_c, 3, 39, 64
5, 46080, Program_c, 3, 32
5, 46080, Note_on_c, 3, 39, 110
5, 46080, Program_c, 3, 32
5, 46080, Program_c, 3, 32
5, 46080, Note_off_c, 3, 39, 64
5, 46272, Note_off_c, 3, 39, 64
5, 46272, Note_on_c, 3, 39, 110
5, 46272, Note_on_c, 3, 35, 64
5, 46288, Note_off_c, 3, 39, 64
5, 46656, Note_on_c, 3, 39, 110
5, 46656, Note_on_c, 3, 35, 110
5, 46832, Note_off_c, 3, 39, 64
5, 46848, Note_off_c, 3, 39, 64
5, 46848, Note_off_c, 3, 35, 64
5, 46848, Note_off_c, 3, 39, 64
5, 46944, Note_on_c, 3, 39, 110
5, 47232, Note_on_c, 3, 39, 110
5, 47232, Note_off_c, 3, 39, 64
5, 47232, Note_off_c, 3, 39, 64
5, 47232, Note_off_c, 3, 39, 64
5, 47808, Note_on_c, 3, 39, 110
5, 48160, Note_on_c, 3, 39, 110
5, 48192, Note_on_c, 3, 39, 110
5, 48288, Note_off_c, 3, 39, 64
5, 48384, Note_on_c, 3, 39, 110
5, 48384, Note_on_c, 3, 42, 110
5, 48384, Note_on_c, 3, 39, 110
5, 48384, Note_on_c, 3, 39, 110
5, 48576, Note_off_c, 3, 40, 64
5, 48576, Note_on_c, 3, 40, 110
5, 48576, Note_on_c, 3, 40, 110
5, 48576, Note_off_c, 3, 39, 64
5, 48576, Note_on_c, 3, 41, 110
5, 48576, Note_on_c, 3, 41, 110
5, 48960, Note_off_c, 3, 40, 64
5, 48960, Note_off_c, 3, 40, 64
5, 48960, Note_off_c, 3, 40, 64
5, 48960, Note_off_c, 3, 40, 64
5, 49120, Note_on_c, 3, 39, 110
5, 49152, Note_off_c, 3, 39, 64
5, 49152, Note_off_c, 3, 39, 64
5, 49152, Note_on_c, 3, 36, 110
5, 49344, Note_on_c, 3, 39, 110
5, 49536, Note_off_c, 3, 36, 64
5, 49536, 5944, Note_off_c, 3, 49, 64
5, 49536, Note_off_c, 3, 36, 64
5, 49920, Note_off_c, 3, 35, 64
5, 51360, Note_on_c, 3, 40, 110
5, 51360, Note_on_c, 3, 33, 110
5, 51840, Note_on_c, 3, 35, 110
5, 52224, Note_off_c, 3, 45, 64
5, 52224, Control_c, 3, 7, 100
5, 52224, Program_c, 3, 32
5, 52800, Note_on_c, 3, 42, 110
5, 52800, Note_off_c, 3, 40, 64
5, 53152, Note_on_c, 3, 230912, Control_c, 3, 7, 67
5, 53184, Note_off_c, 3, 47, 64
5, 53184, Note_on_c, 3, 44, 110
5, 53376, Note_on_c, 3, 47, 110
5, 53376, Note_off_c, 3, 47, 64
5, 53472, Note_off_c, 3, 40, 64
5, 53488, Note_off_c, 3, 40, 64
5, 53744, Program_c, 3, 32
5, 53936, Note_off_c, 3, 42, 64
5, 53952, Note_on_c, 3, 64
5, 54128, Note_off_c, 3, 47, 64
5, 54144, Note_on_c, 3, 44, 110
5, 54144, Note_off_c, 3, 45, 64
5, 54336, Note_off_c, 3, 41, 64
5, 54336, Note_on_c, 3, 44, 110
5, 54336, Note_on_c, 3, 48, 110
5, 54336, Note_on_c, 3, 47, 110
5, 54336, Note_on_c, 3, 47, 110
5, 54336, Note_on_c, 3, 47, 110
5, 54528, Note_off_c, 3, 46, 64
5, 54528, Note_off_c, 3, 40, 64
5, 54528, Note_off_c, 3, 42, 64
5, 54528, Note_on_c, 3, 43, 110
5, 54528, Note_off_c, 3, 46, 64
5, 54528, Note_off_c, 3, 41, 64
5, 54528, Note_on_c, 3, 47, 110
5, 54528, Note_on_c, 3, 43, 110
5, 54912, Note_off_c, 3, 47, 64
5, 54912, Note_off_c, 3, 45, 64
5, 55296, Note_on_c, 3, 40, 110
5, 55296, Note_off_c, 3, 47, 64
5, 55296, Note_on_c, 3, 43, 110
5, 55296, Note_off_c, 3, 47, 64
5, 55296, Note_on_c, 3, 40, 110
5, 55392, Note_off_c, 3, 46, 64
5, 55392, Note_on_c, 3, 44, 110
5, 55488, Note_off_c, 3, 42, 64
5, 55872, Note_off_c, 3, 43, 64
5, 56064, Note_off_c, 3, 40, 64
5, 56256, Note_on_c, 3, 33, 110
5, 57024, Note_off_c, 3, 35, 64
5, 57216, Note_on_c, 3, 40, 110
5, 57792, Note_on_c, 3, 40, 110
5, 57808, Note_off_c, 3, 37, 64
5, 58368, Note_on_c, 3, 40, 110
5, 58368, Note_on_c, 3, 40, 110
5, 58368, Program_c, 3, 32
5, 58368, Control_c, 3, 7, 100
5, 58368, Program_c, 3, 32
5, 58368, Program_c, 3, 32
5, 58944, Note_on_c, 3, 49, 110
5, 58944, Note_on_c, 3, 44, 110
5, 59104, Control_c, 3, 7, 100
5, 59136, Note_off_c, 3, 40, 64
5, 59136, Note_off_c, 3, 40, 64
5, 59328, Note_off_c, 3, 40, 64
5, 59328, Note_on_c, 3, 42, 110
5, 59328, Note_off_c, 3, 40, 64
5, 59328, Note_on_c, 3, 43, 110
5, 59520, Note_on_c, 3, 45, 110
5, 59808, Note_on_c, 3, 47, 110
5, 60096, Note_off_c, 3, 45, 64
5, 60096, Note_off_c, 3, 42, 64
5, 61056, Note_on_c, 3, 40, 110
5, 61824, Note_off_c, 3, 40, 64
5, 63968, Note_off_c, 3, 46, 64
5, 64496, Control_c, 3, 7, 10
5, 64512, Program_c, 3, 32
5, 69888, Note_off_c, 3, 39, 64
5, 69984, Note_on_c, 3, 40, 110
5, 70240, Note_off_c, 3, 46, 64
5, 70272, Note_on_c, 3, 37, 110
5, 70464, Note_off_c, 3, 52, 64
5, 70976, Note_on_c, 3, 46, 110
5, 71424, Note_off_c, 3, 40, 64
5, 71808, Note_off_c, 3, 43, 64
5, 71808, Note_on_c, 3, 44, 110
5, 71808, Note_on_c, 3, 49, 110
5, 71904, Note_off_c, 3, 40, 64
5, 72384, Note_on_c, 4, 33, 110
5, 72384, Note_off_c, 3, 44, 64
5, 72480, Note_on_c, 3, 42, 110
5, 72480, Note_off_c, 3, 45, 64
5, 73344, Note_off_c, 3, 46, 64
5, 73344, Note_off_c, 3, 45, 64
5, 73344, Note_on_c, 3, 40, 110
5, 73344, Note_off_c, 3, 47, 64
5, 73536, Note_off_c, 3, 44, 64
5, 73536, Note_on_c, 3, 42, 110
5, 73728, Note_off_c, 3, 40, 64
5, 73728, Note_off_c, 3, 46, 64
5, 73728, Note_on_c, 3, 45, 110
5, 73728, Note_on_c, 3, 40, 110
5, 73728, Note_off_c, 3, 40, 64
5, 74111
5, 74112, Note_on_c, 3, 7, Note_off_c, 9, 36, 64
5, 74112, Note_on_c, 3, 49, 110
5, 74192, Note_on_c, 3, 44, 110
5, 74304, Note_on_c, 3, 46, 110
5, 74304, Note_on_c, 3, 44, 110
5, 74304, Note_on_c, 3, 36, 110
5, 74304, Note_off_c, 3, 44, 64
5, 74304, Note_on_c, 3, 46, 110
5, 74464, Note_on_c, 3, 43, 110
5, 74480, Note_on_c, 3, 40, 110
5, 74496, Note_on_c, 3, 47, 110
5, 74496, Note_on_c, 3, 45, 110
5, 74496, Note_on_c, 3, 42, 110
5, 74496, Note_on_c, 3, 43, 110
5, 74496, Note_on_c, 3, 45, 110
5, 74688, Note_off_c, 3, 48, 64
5, 74688, Note_off_c, 3, 32, 64
5, 74784, Note_off_c, 4, 44, 64
5, 74800, Control_c, 3, 7, 100
5, 74800, Program_c, 3, 32
5, 74880, Note_on_c, 3, 46, 110
5, 74880, Note_off_c, 3, 42, 64
5, 74880, Note_off_c, 3, 46, 64
5, 74880, Note_off_c, 3, 46, 64
5, 74880, Note_off_c, 3, 49, 64
5, 74944, Note_on_c, 3, 45, 110
5, 75072, Note_off_c, 3, 40, 64
5, 75264, Note_off_c, 3, 40, 64
5, 75440, Note_on_c, 3, 44, 110
5, 75456, Note_off_c, 3, 47, 64
5, 75456, Note_on_c, 3, 40, 110
5, 75456, Note_off_c, 3, 46, 64
5, 75456, Note_on_c, 3, 40, 110
5, 75456, Note_off_c, 3, 40, 64
5, 76416, Note_on_c, 3, 44, 110
5, 76608, Note_on_c, 3, 44, 110
5, 76800, Note_on_c, 3, 39, 110
5, 76800, 0, 7, 34
5, 79104, Note_on_c, 3, 45, 110
5, 79104, Note_off_c, 3, 37, 64
5, 79392, Note_on_c, 3, 40, 110
5, 79392, Note_on_c, 3, 45, 110
5, 79488, Note_on_c, 3, 49, 110
5, 80064, Note_on_c, 3, 41, 110
5, 80448, Note_off_c, 3, 45, 64
5, 80448, Note_on_c, 1, 76, 110
5, 80640, Note_off_c, 3, 42, 64
5, 81024, Note_off_c, 3, 40, 64
5, 81024, Note_off_c, 3, 40, 64
5, 81024, Note_off_c, 3, 40, 64
5, 81216, Note_on_c, 3, 40, 110
5, 81600, Note_on_c, 3, 49, 110
5, 82176, Note_off_c, 3, 45, 64
5, 82176, Note_off_c, 3, 45, 64
5, 82560, Note_on_c, 3, 45, 110
5, 82560, Note_on_c, 3, 40, 110
5, 82560, Note_on_c, 3, 40, 110
5, 82560, Note_off_c, 3, 45, 64
5, 84096, Note_on_c, 3, 40, 110
5, 85248, Note_on_c, 3, 45, 110
5, 85248, Note_off_c, 3, 45, 64
5, 85632, Note_off_c, 3, 40, 64
5, 86592, Note_on_c, 3, 49, 110
5, 89024, Note_off_c, 3, 40, 64
5, 89088, Note_off_c, 3, 40, 64
5, 89088, Note_off_c, 3, 40, 64
5, 89088, Note_off_c, 3, 40, 64
5, 89088, Note_on_c, 3, 44, 110
5, 89440, Note_off_c, 3, 45, 64
5, 89664, Note_on_c, 3, 41, 110
5, 89664, Note_off_c, 3, 40, 64
5, 89664, Note_on_c, 3, 40, 110
5, 89952, Note_on_c, 3, 45, 110
5, 90816, Note_off_c, 3, 44, 64
5, 91008, Note_off_c, 3, 45, 64
5, 92160, Note_off_c, 3, 45, 64
5, 93504, Note_off_c, 3, 40, 64
5, 94048, Note_on_c, 3, 45, 110
5, 94080, Note_off_c, 3, 40, 64
5, 94240, Note_off_c, 3, 40, 64
5, 94272, Note_on_c, 3, 42, 110
5, 94464, Note_on_c, 3, 44, 110
5, 94560, Note_on_c, 3, 45, 110
5, 94848, Note_on_c, 3, 47, 110
5, 94848, Note_on_c, 3, 40, 110
5, 94848, Note_on_c, 3, 47, 110
5, 94848, Note_off_c, 3, 45, 64
5, 94880, Note_off_c, 3, 40, 64
5, 95232, Control_c, 3, 7, 100
5, 95232, Note_off_c, 3, 45, 64
5, 95232, Control_c, 3, 7, 100
5, 95328, Note_off_c, 3, 49, 64
5, 95424, Note_on_c, 3, 42, 110
5, 95808, Note_off_c, 3, 42, 64
5, 95808, Note_on_c, 3, 39, 110
5, 95808, Note_off_c, 3, 40, 64
5, 96000, Control_c, 3, 7, 100
5, 96384, Note_off_c, 3, 39, 64
5, 96576, Note_on_c, 3, 40, 110
5, 96960, Note_on_c, 3, 45, 110
5, 97152, Note_on_c, 3, 43, 110
5, 97536, Note_off_c, 3, 44, 64
5, 98592, Note_on_c, 3, 45, 110
5, 98592, Note_on_c, 3, 45, 110
5, 98880, Note_on_c, 3, 40, 110
5, 98880, Note_off_c, 3, 47, 64
5, 98976, 135168, Note_off_c, 3, 33, 64
5, 99152, Note_off_c, 3, 40, 64
5, 99264, Note_on_c, 2, 66, 64
5, 99456, Note_off_c, 3, 42, 64
5, 99456, Note_off_c, 3, 42, 64
5, 99840, Note_on_c, 3, 45, 110
5, 99840, Note_off_c, 3, 42, 64
5, 99872, Note_off_c, 3, 40, 64
5, 100032, Note_on_c, 3, 39, 110
5, 100032, Note_off_c, 3, 45, 64
5, 100608, Note_on_c, 3, 41, 110
5, 100928, Note_on_c, 9, 44, 110
5, 100992, Note_off_c, 3, 47, 64
5, 100992, Note_off_c, 3, 41, 64
5, 101376, Note_on_c, 3, 49, 110
5, 101984, Note_off_c, 3, 52, 64
5, 103680, Note_off_c, 3, 45, 64
5, 107520, Program_c, 3, 32
5, 107520, Program_c, 3, 32
5, 109664, Note_off_c, 3, 40, 64
5, 113664, Program_c, 3, 32
5, 114240, Note_on_c, 3, 37, 110
5, 114432, Note_off_c, 3, 37, 64
5, 114816, Note_on_c, 3, 37, 110
5, 116160, Note_off_c, 3, 37, 64
5, 121152, Note_on_c, 3, 38, 110
5, 121344, Note_on_c, 3, 37, 110
5, 121344, Note_on_c, 3, 37, 110
5, 121344, Note_off_c, 3, 38, 64
5, 121536, Note_off_c, 4, 38, 64
5, 121552, Note_on_c, 3, 37, 110
5, 121568, Note_off_c, 3, 37, 64
5, 121904, Note_off_c, 3, 38, 64
5, 122400, Note_off_c, 3, 37, 64
5, 122880, Control_c, 3, 7, 100
5, 122886, Program_c, 3, 32
5, 123456, Control_c, 3, 7, 100
5, 123456, Note_on_c, 3, 37, 110
5, 123456, Note_on_c, 3, 38, 110
5, 123456, Control_c, 3, 7, 100
5, 123456, Note_on_c, 3, 37, 110
5, 123456, 36, 110
5, 123472, Note_off_c, 3, 39, 64
5, 123648, Note_on_c, 3, 35, 110
5, 124224, Note_on_c, 3, 37, 110
5, 124832, Note_on_c, 3, 38, 110
5, 125184, Note_on_c, 3, 37, 110
5, 125184, Note_off_c, 3, 37, 64
5, 125184, Note_on_c, 3, 37, 110
5, 125184, Note_off_c, 3, 37, 64
5, 125184, Note_on_c, 3, 38, 110
5, 125376, Note_on_c, 3, 37, 110
5, 125392, Note_on_c, 3, 39, 110
5, 125568, Note_off_c, 3, 35, 64
5, 125568, Note_on_c, 3, 39, 110
5, 125568, Note_on_c, 3, 40, 110
5, 125568, Note_off_c, 3, 35, 64
5, 125568, Note_on_c, 3, 37, 9, 36, 64
5, 125952, Note_on_c, 3, 37, 110
5, 126144, Note_off_c, 3, 37, 64
5, 126144, Note_off_c, 3, 37, 64
5, 126144, Note_off_c, 3, 37, 64
5, 126144, Note_on_c, 3, 37, 110
5, 126528, Note_off_c, 3, 35, 64
5, 126720, Note_off_c, 3, 39, 64
5, 127392, Note_off_c, 3, 39, 64
5, 127680, Note_on_c, 3, 37, 110
5, 128256, Note_off_c, 3, 37, 64
5, 128256, Note_on_c, 3, 37, 110
5, 128448, Note_on_c, 3, 37, 110
5, 128448, Note_off_c, 3, 37, 64
5, 129216, Note_off_c, 3, 35, 64
5, 129312, Control_c, 3, 7, 100
5, 129712, Program_c, 3, 32
5, 130176, Note_on_c, 3, 35, 110
5, 130944, Note_off_c, 3, 35, 64
5, 131328, Note_on_c, 3, 37, 110
5, 131504, Note_on_c, 3, 39, 110
5, 131520, Note_on_c, 3, 37, 110
5, 131520, Note_off_c, 3, 37, 64
5, 131712, Note_on_c, 3, 35, 110
5, 131712, Note_on_c, 3, 35, 110
5, 131904, Note_on_c, 3, 35, 110
5, 132096, Note_off_c, 3, 35, 64
5, 132096, Note_off_c, 3, 35, 64
5, 132096, Note_off_c, 3, 35, 64
5, 132672, Note_on_c, 3, 39, 110
5, 132960, Note_on_c, 3, 39, 110
5, 133344, Note_off_c, 3, 39, 64
5, 133408, Note_on_c, 36, 64
5, 133440, Note_off_c, 3, 40, 64
5, 133440, Note_off_c, 3, 40, 64
5, 133856, Note_off_c, 3, 35, 64
5, 134016, Note_off_c, 3, 40, 64
5, 134016, Note_on_c, 3, 40, 110
5, 134016, Note_off_c, 3, 40, 64
5, 134096, Note_on_c, 3, 40, 110
5, 134112, Note_on_c, 3, 40, 110
5, 134112, Note_off_c, 3, 35, 64
5, 134304, Note_on_c, 3, 39, 110
5, 134400, Note_off_c, 3, 40, 64
5, 134400, Note_on_c, 3, 40, 110
5, 134400, Note_on_c, 3, 40, 110
5, 134688, Note_on_c, 3, 40, 110
5, 134784, Note_off_c, 3, 40, 64
5, 134880, Note_off_c, 3, 40, 64
5, 134976, Note_on_c, 3, 40, 110
5, 135136, Note_off_c, 3, 42, 64
5, 135168, Note_on_c, 3, 33, 110
5, 135168, Program_c, 3, 32
5, 135168, Note_off_c, 3, 39, 64
5, 135168, Note_on_c, 3, 33, 110
5, 135168, Program_c, 3, 32
5, 135168, Control_c, 3, 7, 100
5, 135168, Note_on_c, 3, 33, 110
5, 135168, Program_c, 3, 32
5, 135168, Note_off_c, 3, 40, 64
5, 135168, Program_c, 3, 32
5, 135168, Program_c, 3, 32
5, 135168, Note_on_c, 3, 35, 110
5, 135168, Program_c, 3, 32
5, 135168, Note_off_c, 3, 39, 64
5, 135360, Note_on_c, 3, 40, 110
5, 135360, Note_off_c, 3, 40, 64
5, 135936, Note_off_c, 3, 33, 64
5, 136320, Note_on_c, 3, 33, 110
5, 136320, Note_off_c, 3, 33, 64
5, 136320, Note_off_c, 3, 33, 64
5, 136320, Note_off_c, 3, 35, 64
5, 136320, Note_on_c, 8, 85, 64
5, 136320, Note_off_c, 3, 33, 64
5, 136512, Note_on_c, 3, 33, 110
5, 136512, Note_on_c, 3, 33, 110
5, 136512, Note_off_c, 3, 39, 64
5, 136512, Note_on_c, 3, 39, 110
5, 136704, Note_on_c, 3, 33, 110
5, 137280, Note_on_c, 3, 39, 110
5, 137280
5, 137856, Note_on_c, 3, 35, 110
5, 137856, Note_on_c, 3, 35, 110
5, 138048, Note_off_c, 3, 39, 64
5, 138048, Note_on_c, 3, 40, 110
5, 138048, Note_off_c, 3, 40, 64
5, 138240, Note_off_c, 3, 39, 64
5, 138240, Note_on_c, 3, 40, 110
5, 138816, Note_on_c, 3, 42, 110
5, 140160, Note_off_c, 3, 40, 64
5, 140456, Program_c, 3, 32
5, 140544, Note_off_c, 3, 40, 64
5, 140544, Note_on_c, 3, 40, 110
5, 140544, Note_off_c, 3, 40, 64
5, 140544, Note_on_c, 3, 40, 110
5, 141312, Note_on_c, 3, 32, 110
5, 143040, Note_on_c, 3, 39, 110
5, 143056, Note_off_c, 3, 39, 64
5, 143072, Note_off_c, 3, 39, 64
5, 143104, Note_off_c, 3, 44, 64
5, 143232, Note_off_c, 3, 42, 64
5, 143232, Note_off_c, 3, 41, 64
5, 143232, Note_off_c, 3, 39, 64
5, 143424, Note_on_c, 5, 59, 110
5, 143616, Note_on_c, 3, 39, 110
5, 143616, Note_off_c, 3, 39, 64
5, 143616, Note_on_c, 3, 39, 110
5, 143616, Note_on_c, 3, 39, 64
5, 143712, Note_on_c, 3, 39, 110
5, 143808, Note_off_c, 38336, Note_off_c, 9, 36, 64
5, 144000, Note_on_c, 3, 41, 110
5, 144000, Note_off_c, 3, 42, 64
5, 144000, Note_on_c, 3, 44, 110
5, 144192, Note_on_c, 3, 44, 110
5, 144384, Note_off_c, 3, 44, 64
5, 144512, Note_on_c, 3, 44, 110
5, 144512, Note_off_c, 3, 42, 64
5, 144576, Note_on_c, 3, 41, 110
5, 144960, Note_on_c, 3, 42, 110
5, 145152, Note_off_c, 3, 36, 64
5, 145536, Note_off_c, 3, 32, 64
5, 145728, Note_on_c, 3, 39, 110
5, 145856, Note_off_c, 3, 40, 64
5, 145920, Note_on_c, 3, 39, 110
5, 146080, Note_off_c, 3, 42, 64
5, 146304, Note_off_c, 3, 36, 64
5, 146496, Note_on_c, 3, 32, 110
5, 146608, Note_off_c, 3, 42, 64
5, 146688, Control_c, 3, 7, 100
5, 146688, Note_off_c, 3, 33, 64
5, 146688, Note_on_c, 3, 40, 110
5, 146688, Note_off_c, 3, 42, 64
5, 146784, Note_on_c, 3, 43, 110
5, 147040, Note_on_c, 3, 36, 110
5, 147360, Note_on_c, 3, 42, 110
5, 147456, Note_on_c, 3, 41, 110
5, 147456, Note_on_c, 3, 40, 110
5, 147456, Program_c, 3, 32
5, 147456, Program_c, 3, 32
5, 147664, Program_c, 3, 32
5, 147840, Note_on_c, 3, 42, 64
5, 148512, Note_on_c, 3, 40, 110
5, 148800, Note_off_c, 9, 96
5, 150144, Note_on_c, 3, 45, 110
5, 150144, Note_on_c, 3, 45, 110
5, 150144, Note_on_c, 3, 45, 110
5, 150528, Note_off_c, 3, 40, 64
5, 150528, Note_off_c, 3, 42, 64
5, 151104, Note_off_c, 3, 37, 64
5, 153216, Note_on_c, 3, 40, 110
5, 153216, Note_on_c, 3, 40, 110
5, 153216, Note_on_c, 3, 40, 110
5, 153216, Note_off_c, 3, 40, 64
5, 153408, Note_off_c, 3, 40, 64
5, 153600, Note_on_c, 3, 44, 110
5, 153600, Note_off_c, 3, 40, 64
5, 153920, Note_on_c, 3, 40, 110
5, 153920, Note_on_c, 3, 44, 110
5, 154176, Note_on_c, 3, 44, 110
5, 154176, Note_off_c, 3, 40, 64
5, 154272, Note_on_c, 3, 48, 110
5, 154560, Note_on_c, 3, 45, 110
5, 155104, Note_off_c, 3, 42, 64
5, 155104, Note_off_c, 3, 43, 64
5, 155136, Note_off_c, 3, 40, 64
5, 155136, Note_on_c, 9, Note_off_c, 6, 66, 64
5, 155136, Note_on_c, 3, 46, 110
5, 155136, Note_off_c, 3, 40, 64
5, 155328, Note_off_c, 3, 40, 64
5, 155328, Note_on_c, 3, 123856, Note_on_c, 6, 73, 110
5, 155520, Note_on_c, 3, 45, 110
5, 155520, Note_off_c, 3, 42, 64
5, 155520, Note_on_c, 3, 2, 5, 61, 110
5, 155712, Note_off_c, 3, 45, 64
5, 155712, Note_off_c, 3, 40, 64
5, 155904, Note_off_c, 3, 42, 64
5, 156000, Note_off_c, 3, 44, 64
5, 156160, Note_on_c, 3, 40, 110
5, 156288, Note_on_c, 3, 45, 110
5, 158208, Note_off_c, 3, 44, 64
5, 158592, Note_on_c, 3, 49, 110
5, 158592, Note_on_c, 3, 39, 110
5, 159168, Note_off_c, 3, 35, 64
5, 159168, Note_on_c, 3, 40, 110
5, 159360, Note_on_c, 3, 40, 110
5, 159744, Note_off_c, 3, 45, 64
5, 159744, 75, 64
5, 159744, Note_off_c, 3, 47, 64
5, 160320, Note_off_c, 3, 45, 64
5, 161280, Note_on_c, 3, 40, 110
5, 161472, Note_on_c, 3, 42, 110
5, 162240, Note_off_c, 3, 40, 64
5, 162816, Note_off_c, 3, 35, 64
5, 162816, Note_off_c, 3, 41, 64
5, 163296, Note_on_c, 3, 40, 110
5, 163392, Note_off_c, 3, 37, 64
5, 163968, Note_on_c, 3, 39, 110
5, 165120, Note_on_c, 3, 39, 110
5, 165120, Note_off_c, 3, 34, 64
5, 165120, Note_off_c, 3, 45, 64
5, 165120, Note_off_c, 3, 34, 64
5, 165504, Note_off_c, 3, 39, 64
5, 165504, Note_on_c, 3, 40, 110
5, 165504, Note_off_c, 3, 35, 64
5, 165888, Note_on_c, 3, 39, 110
5, 167808, Note_off_c, 3, 49, 64
5, 168576, Note_on_c, 3, 45, 110
5, 170880, Note_on_c, 3, 40, 110
5, 171456, Note_on_c, 3, 40, 110
5, 171648, Note_off_c, 3, 45, 64
5, 171840, Note_off_c, 3, 52, 64
5, 174112, Note_on_c, 3, 45, 110
5, 175104, Note_on_c, 3, 41, 110
5, 175104, Note_on_c, 3, 45, 110
5, 175104, Note_on_c, 3, 45, 110
5, 175104, Note_off_c, 3, 43, 64
5, 175104, Note_on_c, 3, 44, 110
5, 175328, Note_off_c, 3, 50, 64
5, 175712, Note_off_c, 3, 45, 64
5, 176224, Note_off_c, 3, 43, 64
5, 176832, Note_on_c, 3, 49, 110
5, 176864, Note_off_c, 3, 45, 64
5, 177408, Note_on_c, 3, 51, 110
5, 177792, Note_on_c, 3, 40, 110
5, 178176, Note_off_c, 3, 49, 64
5, 178752, Note_on_c, 3, 42, 110
5, 179232, Note_on_c, 3, 40, 110
5, 179328, Note_on_c, 3, 45, 110
5, 179328, Note_off_c, 3, 44, 59, 64
5, 179328, Note_off_c, 3, 44, 64
5, 179520, Note_off_c, 3, 42, 64
5, 180480, Note_on_c, 3, 49, 110
5, 180864, Note_on_c, 3, 45, 110
5, 184320, Note_off_c, 5, 59, 64
5, 184320, Note_on_c, 3, 47, 110
5, 184544, Note_off_c, 3, 40, 64
5, 186816, Note_on_c, 3, 44, 110
5, 187392, Note_on_c, 3, 42, 110
5, 187968, Note_off_c, 3, 49, 64
5, 189568, Note_off_c, 3, 47, 64
5, 190460, Note_on_c, 8, 76, 658, 224864, Note_on_c, 1, 68, 64
5, 190464, Note_on_c, 3, 40, 110
5, 190784, Note_on_c, 3, 47, 110
5, 191216, Note_off_c, 3, 40, 64
5, 191232, Note_off_c, 3, 40, 64
5, 191232, Note_off_c, 3, 44, 64
5, 191232, Note_off_c, 3, 39, 64
5, 191424, Note_off_c, 3, 40, 64
5, 191616, Note_on_c, 3, 40, 110
5, 191616, Note_on_c, 3, 40, 110
5, 192096, Note_off_c, 3, 40, 64
5, 192384, Note_on_c, 3, 39, 110
5, 192576, Note_off_c, 3, 37, 64
5, 192672, Note_on_c, 3, 40, 110
5, 194688, Note_on_c, 3, 45, 110
5, 194880, Note_off_c, 3, 47, 64
5, 195264, Note_on_c, 3, 35, 110
5, 195456, Note_on_c, 3, 45, 110
5, 195616, Note_on_c, 3, 47, 110
5, 195840, Note_off_c, 3, 42, 64
5, 195840, Note_off_c, 3, 49, 64
5, 195840, Note_off_c, 3, 42, 64
5, 196224, Note_on_c, 3, 49, 110
5, 196224, Control_c, 3, 7, 100
5, 196416, Note_off_c, 3, 47, 64
5, 196448, Note_on_c, 3, 42, 110
5, 196608, Note_off_c, 3, 49, 64
5, 199680, Note_on_c, 3, 40, 110
5, 205440, Control_c, 3, 7, 100
5, 209664, Note_off_c, 3, 40, 64
5, 213504, Note_on_c, 3, 35, 110
5, 213504, Note_on_c, 3, 37, 110
5, 213696, Note_on_c, 3, 37, 110
5, 214656, Note_off_c, 3, 37, 64
5, 214848, Note_off_c, 3, 37, 64
5, 217136, Note_off_c, 3, 37, 64
5, 219040, Note_on_c, 3, 37, 110
5, 220992, Note_on_c, 3, 5, 64
5, 221088, Note_off_c, 3, 37, 64
5, 221088, Note_on_c, 3, 37, 110
5, 221184, Note_on_c, 3, 37, 110
5, 221248, Note_off_c, 3, 35, 64
5, 221376, Note_off_c, 3, 37, 64
5, 221760, Note_on_c, 3, 37, 110
5, 221760, Control_c, 3, 7, 78
5, 221760, Note_on_c, 3, 37, 110
5, 222336, Note_on_c, 3, 37, 110
5, 222832, Control_c, 3, 7, 86
5, 222912, Note_off_c, 3, 37, 64
5, 223104, Control_c, 46816, Note_on_c, 9, 44, 96
5, 223104, Note_off_c, 3, 39, 64
5, 223104, Note_on_c, 3, 37, 110
5, 223184, Note_on_c, 3, 37, 110
5, 223296, Note_off_c, 3, 37, 64
5, 223376, Note_off_c, 3, 39, 64
5, 223424, Note_on_c, 3, 37, 110
5, 223481, Control_c, 3, 7, 94
5, 223484, Note_on_c, 5, 61, 96
5, 223488, Note_off_c, 3, 37, 64
5, 223488, Note_off_c, 3, 37, 64
5, 223488, Note_on_c, 3, 37, 110
5, 223488, Note_on_c, 3, 37, 110
5, 223488, Note_off_c, 3, 37, 64
5, 223488, Note_off_c, 3, 37, 64
5, 223488, Note_on_c, 3, 37, 110
5, 223488, Note_off_c, 3, 35, 64
5, 223680, Note_off_c, 3, 37, 64
5, 223680, Note_off_c, 3, 39, 64
5, 223680, Note_off_c, 3, 35, 64
5, 223680, Note_on_c, 3, 35, 110
5, 223872, Note_on_c, Note_off_c, 8, 63, 64
5, 223872, Note_on_c, 3, 37, 110
5, 224064, Note_off_c, 3, 40, 64
5, 224064, Note_off_c, 3, 35, 64
5, 224064, Note_off_c, 3, 40, 64
5, 224352, Control_c, 3, 7, 99
5, 224352, Control_c, 3, 7, 99
5, 224352, Control_c, 3, 7, 97
5, 224352, Control_c, 3, 7, 96
5, 224448, Note_on_c, 3, 40, 110
5, 224448, Control_c, 3, 7, 97
5, 224448, Note_off_c, 3, 35, 64
5, 224448, Control_c, 3, 7, 99
5, 224448, Note_off_c, 3, 35, 64
5, 224448, Control_c, 3, 7, 93
5, 224448, Control_c, 3, 7, 96
5, 224448, Control_c, 3, 7, 98
5, 224544, Control_c, 3, 7, 89
5, 224544, Control_c, 3, 7, 95
5, 224544, Control_c, 3, 7, 96
5, 224544, Control_c, 3, 7, 99
5, 224544, Control_c, 3, 7, 99
5, 224544, Control_c, 3, 7, 98
5, 224640, Control_c, 3, 7, 94
5, 224640, Control_c, 3, 7, 98
5, 224640, Control_c, 3, 7, 98
5, 224736, Control_c, 3, 7, 100
5, 224736, Control_c, 3, 7, 91
5, 224736, Control_c, 3, 7, 98
5, 224736, Control_c, 3, 7, 9, 45, 64
5, 224832, Note_on_c, 3, 35, 110
5, 224832, Control_c, 3, 7, 94
5, 224832, Control_c, 3, 7, 99
5, 224832, Control_c, 3, 7, 99
5, 224928, Control_c, 3, 7, 90
5, 224928, Control_c, 3, 7, 97
5, 225024, Control_c, 3, 7, 9
5, 225024, Control_c, 3, 7, 95
5, 225120, Control_c, 3, 7, 95
5, 225216, Note_off_c, 3, 35, 64
5, 225408, Note_on_c, 3, 35, 110
5, 225408, Control_c, 3, 7, 93
5, 225504, Control_c, 3, 7, 91
5, 225600, Control_c, 3, 7, 95
5, 225600, Control_c, 3, 7, 92
5, 225600, Control_c, 3, 7, 98
5, 225600, Control_c, 3, 7, 94
5, 225600, Control_c, 3, 7, 91
5, 225696, Control_c, 3, 7, 91
5, 225792, Control_c, 3, 7, 92
5, 225920, Control_c, 3, 7, 94
5, 225984
5, 225984, Control_c, 3, 7, 90
5, 225984, Control_c, 3, 7, 95
5, 225984, Note_on_c, 3, 39, 110
5, 226176, Control_c, 3, 7, 98
5, 226176, Note_off_c, 3, 35, 64
5, 226176, Control_c, 3, 7, 88
5, 226176, Control_c, 3, 7, 89
5, 226176, Control_c, 3, 7, 89
5, 226176, Control_c, 3, 7, 85
5, 226176, Control_c, 3, 7, 89
5, 226176, Control_c, 3, 7, 88
5, 226176, Control_c, 3, 7, 89
5, 226272, Control_c, 3, 7, 80
5, 226272, Control_c, 3, 7, 90
5, 226272, Control_c, 3, 7, 88
5, 226368, Control_c, 3, 7, 93
5, 226368, Control_c, 3, 7, 88
5, 226368, Control_c, 3, 7, 90
5, 226368, Control_c, 3, 7, 83
5, 226368, Control_c, 3, 7, 98
5, 226368, Control_c, 3, 7, 80
5, 226368, Control_c, 3, 7, 87
5, 226368, Control_c, 3, 7, 88
5, 226368, Control_c, 3, 7, 86
5, 226448, Control_c, 3, 7, 88
5, 226464, Control_c, 4, 7, 85
5, 226464, Control_c, 3, 7, 90
5, 226464, Control_c, 3, 7, 99
5, 226464, Control_c, 3, 7, 80
5, 226464, Control_c, 3, 7, 89
5, 226464, Control_c, 3, 7, 78
5, 226464, Control_c, 3, 7, 88
5, 226464
5, 226464, Control_c, 3, 7, 89
5, 226560, Control_c, 3, 7, 87
5, 226560, Control_c, 3, 7, 97
5, 226560, Control_c, 3, 7, 80
5, 226560, Control_c, 3, 7, 88
5, 226560, Note_on_c, 3, 35, 110
5, 226560, Control_c, 3, 7, 85
5, 226560, Control_c, 3, 7, 88
5, 226640, Control_c, 3, 7, 80
5, 226752, Note_off_c, 3, 35, 64
5, 226752, Note_off_c, 3, 37, 64
5, 226752, Control_c, 2, 7, 52
5, 226848, Control_c, 3, 7, 80
5, 226848, Control_c, 3, 7, 86
5, 226848, Control_c, 3, 7, 89
5, 226944, Control_c, 3, 7, 85
5, 226944, Control_c, 3, 7, 85
5, 226944, Control_c, 3, 7, 85
5, 226944, Control_c, 3, 7, 85
5, 226944, Control_c, 3, 7, 89
5, 226944, Note_on_c, 3, 35, 110
5, 227040, Control_c, 3, 7, 83
5, 227136, Control_c, 3, 7, 70
5, 227136, Note_off_c, 3, 40, 64
5, 227136, Control_c, 3, 7, 80
5, 227136, Note_off_c, 3, 35, 64
5, 227136, Control_c, 3, 7, 84
5, 227136, Control_c, 3, 7, 74
5, 227136, Control_c, 3, 7, 73
5, 227136, Control_c, 3, 7, 84
5, 227232, Control_c, 3, 7, 79
5, 227232, Control_c, 3, 7, 83
5, 227232, Control_c, 3, 7, 70
5, 227232, Control_c, 3, 7, 82
5, 227328, Note_on_c, 3, 40, 110
5, 227328, Control_c, 3, 7, 80
5, 227328, Note_on_c, 3, 40, 110
5, 227328, Control_c, 3, 7, 82
5, 227328, Control_c, 3, 7, 84
5, 227328, Control_c, 3, 7, 86
5, 227328, Note_off_c, 3, 40, 64
5, 227328, Control_c, 3, 7, 83
5, 227328, Control_c, 3, 7, 80
5, 227328, Note_on_c, 3, 40, 110
5, 227328, Control_c, 3, 7, 88
5, 227328, Control_c, 3, 7, 84
5, 227328, Control_c, 3, 7, 87
5, 227328, Control_c, 3, 7, 81
5, 227410, Note_on_c, 3, 40, 110
5, 227424, Control_c, 3, 7, 83
5, 227424, Control_c, 3, 7, 83
5, 227424, Control_c, 3, 7, 82
5, 227520, Control_c, 3, 7, 81
5, 227520, Control_c, 3, 7, 81
5, 227520, Control_c, 3, 7, 82
5, 227520, Control_c, 3, 7, 84
5, 227520, Control_c, 3, 7, 83
5, 227520, Control_c, 3, 7, 81
5, 227520, Control_c, 3, 7, 100
5, 227520, Control_c, 3, 7, 83
5, 227616, Control_c, 3, 7, 81
5, 227616, Control_c, 3, 7, 82
5, 227616, Control_c, 3, 7, 83
5, 227616, Control_c, 3, 7, 81
5, 227616, Control_c, 3, 7, 81
5, 227616, Control_c, 3, 7, 81
5, 227624, Control_c, 3, 7, 73
5, 227712, Control_c, 3, 7, 81
5, 227712, Control_c, 3, 7, 82
5, 227712, Control_c, 3, 7, 82
5, 227712, Control_c, 3, 7, 80
5, 227712, Control_c, 3, 7, 81
5, 227712, Control_c, 3, 7, 82
5, 227712, Control_c, 3, 7, 82
5, 227712, Control_c, 3, 7, 82
5, 227776, Note_on_c, 3, 40, 110
5, 227808, Control_c, 3, 7, 71
5, 227808, Control_c, 3, 7, 81
5, 227808, Control_c, 3, 7, 73
5, 227808, Control_c, 3, 7, 72
5, 227808, Control_c, 3, 7, 70
5, 227904, Control_c, 3, 7, 80
5, 227904, Note_on_c, 3, 40, 110
5, 227904, Note_on_c, 3, 40, 110
5, 227904, Control_c, 3, 7, 80
5, 227904, Control_c, 3, 7, 84
5, 227904, Control_c, 3, 7, 80
5, 227904, Note_on_c, 3, 40, 110
5, 228000, Control_c, 3, 7, 80
5, 228000, Control_c, 3, 7, 80
5, 228000, Control_c, 3, 7, 80
5, 228064, Control_c, 3, 7, 79
5, 228096, Control_c, 3, 7, 75
5, 228096, Control_c, 3, 7, 77
5, 228096, Control_c, 3, 7, 76
5, 228096, Control_c, 3, 7, 79
5, 228176, Control_c, 3, 7, 76
5, 228192, Control_c, 3, 7, 76
5, 228192, Control_c, 3, 7, 79
5, 228288, Control_c, 3, 7, 77
5, 228288, Control_c, 3, 7, 88
5, 228288, Control_c, 3, 7, 75
5, 228288, Control_c, 3, 7, 77
5, 228288, Control_c, 3, 7, 88
5, 228288, Control_c, 3, 7, 78
5, 228384, Control_c, 4, Note_on_c, 8, 80, 9, 44, 96
5, 228384, Control_c, 3, 7, 78
5, 228384, Control_c, 3, 7, 85
5, 228384, Control_c, 3, 7, 75
5, 228384, Control_c, 3, 7, 79
5, 228384, Control_c, 3, 7, 75
5, 228384, Control_c, 3, 7, 78
5, 228384, Control_c, 3, 7, 75
5, 228384, Control_c, 3, 7, 74
5, 228384, Control_c, 3, 7, 78
5, 228384, Control_c, 3, 7, 75
5, 228384, Control_c, 3, 7, 77
5, 228384, Control_c, 3, 7, 75
5, 228384, Control_c, 3, 7, 77
5, 228384, Control_c, 3, 7, 77
5, 228384, Control_c, 3, 7, 78
5, 228384, Control_c, 3, 7, 78
5, 228480, Control_c, 3, 7, 79
5, 228480, Note_on_c, 3, 40, 110
5, 228480, Control_c, 3, 7, 77
5, 228480, Control_c, 3, 7, 75
5, 228480, Control_c, 3, 7, 76
5, 228576, Control_c, 3, 7, 76
5, 228576, Control_c, 3, 7, 76
5, 228576, Control_c, 3, 7, 79
5, 228576, Control_c, 3, 7, 76
5, 228576, Control_c, 3, 7, 79
5, 228576, Control_c, 3, 7, 76
5, 228576, Control_c, 3, 7, 79
5, 228640, Control_c, 3, 7, 75
5, 228672, Control_c, 3, 7, 79
5, 228672, Control_c, 3, 7, 75
5, 228672, Note_off_c, 3, 40, 64
5, 228672, Note_off_c, 3, 40, 64
5, 228672, Note_off_c, 3, 40, 64
5, 228672, Control_c, 3, 7, 65
5, 228672, Control_c, 3, 7, 79
5, 228672, Control_c, 3, 7, 76
5, 228672, Control_c, 3, 7, 76
5, 228672, Control_c, 3, 7, 76
5, 228672, Control_c, 3, 7, 70
5, 228672, Control_c, 3, 7, 76
5, 228672, Note_off_c, 3, 40, 64
5, 228672, Control_c, 3, 7, 75
5, 228688, Control_c, 3, 7, 78
5, 228768, Control_c, 3, 7, 75
5, 228768, Control_c, 3, 7, 69
5, 228768, Control_c, 3, 7, 77
5, 228768, Control_c, 3, 7, 77
5, 228768, Control_c, 3, 7, 78
5, 228768, Control_c, 3, 7, 76
5, 228768, Control_c, 3, 7, 75
5, 228864, Control_c, 3, 7, 79
5, 228864, Control_c, 3, 7, 75
5, 228864, Control_c, 3, 7, 77
5, 228864, Control_c, 3, 7, 77
5, 228960, Control_c, 3, 7, 75
5, 228960, Control_c, 3, 7, 79
5, 228960, Control_c0, 3, 7, 33
5, 228960, Control_c, 3, 7, 76
5, 228960, Control_c, 3, 7, 75
5, 228960, Control_c, 3, 7, 70
5, 228960, Control_c, 4, 7, 61
5, 228960, Control_c, 3, 7, 72
5, 228960, Control_c, 3, 7, 79
5, 228960, Control_c, 3, 7, 75
5, 228960, Control_c, 3, 7, 78
5, 228992, Control_c, 3, 7, 71
5, 228992, Control_c, 3, 7, 75
5, 228992, Control_c, 3, 7, 73
5, 229056, Control_c, 3, 7, 74
5, 229152, Control_c, 3, 7, 73
5, 229152, Control_c, 3, 7, 73
5, 229232, Control_c, 3, 7, 72
5, 229248, Note_off_c, 3, 40, 64
5, 229312, Control_c, 3, 7, 82
5, 229328, Control_c, 3, 7, 82
5, 229344, Control_c, 3, 7, 71
5, 229344, Control_c, 3, 7, 77
5, 229344, Control_c, 3, 7, 73
5, 229344, Control_c, 3, 7, 82
5, 229344, Note_on_c, 3, 35, 110
5, 229344, Control_c, 3, 7, 80
5, 229344, Control_c, 3, 7, 72
5, 229344, Control_c, 3, 7, 82
5, 229344, Control_c, 3, 7, 72
5, 229344, Control_c, 3, 7, 72
5, 229344, Control_c, 3, 7, 84
5, 229344, Control_c, 3, 7, 84
5, 229344, Control_c, 3, 7, 78
5, 229344, Control_c, 3, 7, 718080, Note_off_c, 1, 76, 64
5, 229344, Control_c, 3, 7, 82
5, 229440, Note_on_c, 3, 40, 110
5, 229440, Control_c, 3, 7, 83
5, 229440, Control_c, 3, 7, 73
5, 229440, Control_c, Note_on_c, 3, 73, 64
5, 229440, Control_c, 3, 7, 73
5, 229440, Control_c, 3, 7, 73
5, 229536, Control_c, 3, 7, 76
5, 229536, Control_c, 3, 7, 71
5, 229536, Control_c, 3, 7, 71
5, 229536, Control_c, 3, 7, 75
5, 229536, Control_c, 3, 7, 70
5, 229552, Control_c, 3, 7, 71
5, 229632, Note_on_c, 3, 40, 110
5, 229632, Note_on_c, 3, 40, 110
5, 229632, Note_off_c, 3, 40, 64
5, 229632, Control_c, 3, 7, 75
5, 229632, Note_off_c, 3, 40, 64
5, 229632, Control_c, 3, 7, 75
5, 229632, Note_on_c, 3, 40, 110
5, 229728, Control_c, 3, 7, 80
5, 229728, Control_c, 3, 7, 70
5, 229728, Control_c, 3, 7, 70
5, 229728, Control_c, 3, 7, 70
5, 229824, Control_c, 3, 7, 83
5, 229824, Control_c, 3, 7, 70
5, 229824, Control_c, 3, 7, 89
5, 229824, Control_c, 3, 7, 79
5, 229824, Control_c, 0, 7, 7112, Note_on_c, 0, 88, 64
5, 229856, Control_c, 3, 7, 81
5, 229920, Control_c, 3, 7, 71
5, 229920, Control_c, 3, 7, 73
5, 229920, Control_c, 3, 7, 71
5, 229920, Control_c, 3, 7, 73
5, 229920, Control_c, 3, 7, 70
5, 229920, Control_c, 3, 7, 73
5, 229920, Control_c, 3, 7, 72
5, 230010
5, 230016, Note_on_c, 3, 40, 110
5, 230016, Control_c, 3, 7, 69
5, 230016, Control_c, 3, 7, 79
5, 230016, Control_c, 3, 7, 77
5, 230016, Control_c, 3, 7, 67
5, 230016, Control_c, 3, 7, 69
5, 230016, Control_c, 3, 7, 69
5, 230016, Control_c, 3, 7, 69
5, 230016, Control_c, 3, 7, 68
5, 230080, Control_c, 3, 7, 67
5, 230112, Control_c, 3, 7, 69
5, 230112, Control_c, 3, 7, 68
5, 230112, Control_c, 3, 7, 69
5, 230208, Control_c, 3, 7, 60
5, 230208, Control_c, 3, 7, 67
5, 230208, Control_c, 3, 7, 69
5, 230208, Control_c, 3, 7, 69
5, 230304, Control_c, 3, 7, 69
5, 230304, Control_c, 3, 7, 65
5, 230400, Note_on_c, 3, 33, 110
5, 230400, Control_c, 3, 7, 67
5, 230400, Control_c, 3, 7, 68
5, 230400, Control_c, 3, 7, 63
5, 230400, Note_on_c, 3, 42, 110
5, 230400, Control_c, 3, 7, 64
5, 230400, Control_c, 3, 7, 68
5, 230592, Note_off_c, 3, 33, 64
5, 230592, Note_off_c, 3, 40, 64
5, 230688, Control_c, 3, 7, 65
5, 230688, Control_c, 3, 7, 64
5, 230688, Control_c, 3, 7, 67
5, 230688, Control_c, 3, 7, 63
5, 230688, Control_c, 3, 7, 62
5, 230688, Control_c, 3, 7, 65
5, 230784, Note_off_c, 3, 33, 64
5, 230784, Control_c, 3, 7, 65
5, 230784, Control_c, 3, 7, 67
5, 230784, Control_c, 3, 7, 65
5, 230880, Control_c, 3, 7, 64
5, 230880, Control_c, 3, 7, 68
5, 230880, Control_c, 3, 7, 64
5, 230976, Note_on_c, 3, 33, 82
5, 230976, Note_on_c, 3, 39, 110
5, 230976, Control_c, 3, 7, 61
5, 230976, Note_on_c, 3, 35, 110
5, 230976, Control_c, 3, 7, 65
5, 230976, Note_on_c, 3, 32, 110
5, 230976, Note_on_c, 3, 33, 110
5, 231072, Control_c, 3, 7, 62
5, 231072, Control_c, 3, 7, 77
5, 231072, Control_c, 3, 7, 66
5, 231072, Control_c, 3, 7, 61
5, 231072, Control_c, 2, 7, 69
5, 231072, Control_c, 3, 7, 63
5, 231072, Control_c, 3, 7, 66
5, 231072, Control_c, 3, 7, 61
5, 231168, Note_off_c, 2, 58, 64
5, 231168, Control_c, 3, 7, 68
5, 231168, Control_c, 3, 7, 69
5, 231168, Note_off_c, 3, 33, 64
5, 231168, Note_off_c, 3, 33, 64
5, 231168, Control_c, 3, 7, 65
5, 231168, Control_c, 3, 7, 6
5, 231264, Control_c, 3, 7, 60
5, 231360, Control_c, 3, 7, 64
5, 231360, Control_c, 3, 7, 56
5, 231360, Control_c, 3, 7, 64
5, 231360, Control_c, 3, 7, 60
5, 231424, Control_c, 3, 7, 77
5, 231456, Control_c, 3, 7, 62
5, 231456, Control_c, 3, 7, 61
5, 231456, Control_c, 3, 7, 78
5, 231552, Control_c, 3, 7, 60
5, 231552, Note_off_c, 3, 33, 64
5, 231648, Control_c, 3, 7, 74
5, 231648, Control_c, 3, 7, 60
5, 231744, Note_off_c, 3, 33, 64
5, 231744, Control_c, 3, 7, 69
5, 231744, Note_off_c, 3, 33, 64
5, 231744, Note_off_c, 3, 33, 64
5, 231744, Control_c, 3, 7, 64
5, 231744, Note_off_c, 3, 33, 64
5, 231840, Control_c, 3, 7, 69
5, 231840, Control_c, 3, 7, 59
5, 231904, Control_c, 3, 7, 64
5, 231936, Control_c, 3, 7, 68
5, 231936, Control_c, 3, 7, 69
5, 231936, Control_c, 3, 7, 63
5, 231936, Control_c, 3, 7, 79
5, 231936, Control_c, 38176, Note_on_c, 7, 87, 108
5, 231936, Control_c, 3, 7, 57
5, 232032, Control_c, 3, 7, 40
5, 232032, Control_c, 3, 7, 56
5, 232032, Control_c, 3, 7, 56
5, 232128, Control_c, 3, 7, 58
5, 232128, Control_c, 3, 7, 52
5, 232224, Control_c, 3, 7, 64
5, 232224, Control_c, 3, 7, 56
5, 232320, Note_off_c, 3, 33, 64
5, 232320, Control_c, 3, 7, 54
5, 232320, Note_off_c, 3, 39, 64
5, 232320, Control_c, 3, 7, 59
5, 232320, Note_off_c, 3, 39, 64
5, 232320, Control_c, 3, 7, 56
5, 232320, Control_c, 2, 7, 32
5, 232416, Control_c, 3, 7, 56
5, 232416, Control_c, 3, 7, 59
5, 232608, Control_c, 3, 7, 59
5, 232608, Control_c, 3, 7, 54
5, 232704, Control_c, 3, 7, 58
5, 232704, Note_on_c, 3, 33, 110
5, 232704, Control_c, 3, 7, 53
5, 232704, Control_c, 3, 7, 56
5, 232800, Control_c, 3, 7, 59
5, 232896, Note_off_c, 3, 37, 64
5, 232896, Control_c, 3, 7, 63
5, 232896, Note_on_c, 3, 35, 110
5, 232992, Note_on_c, 3, 42, 110
5, 232992, Control_c, 3, 7, 58
5, 233088, Control_c, 3, 7, 51
5, 233088, Note_on_c, 3, 35, 110
5, 233088, Note_on_c, 3, 37, 110
5, 233088, Note_on_c, 3, 35, 64
5, 233120, Control_c, 3, 7, 58
5, 233280, Control_c, 3, 7, 48
5, 233280, Control_c, 3, 7, 58
5, 233280, Control_c, 3, 7, 50
5, 233376, Control_c, 3, 7, 73
5, 233376, Control_c, 3, 7, 54
5, 233376, Control_c, 3, 7, 50
5, 233440, Control_c, 3, 7, 46
5, 233456, Note_off_c, 3, 33, 64
5, 233472, Control_c, 3, 7, 71
5, 233472, Control_c, 3, 7, 50
5, 233472, Control_c, 3, 7, 85
5, 233472, Control_c, 3, 7, 57
5, 233472, Control_c, 3, 7, 50
5, 233472, Control_c, 3, 7, 50
5, 233568, Control_c, 3, 7, 51488, Note_off_c, 4, 38, 64
5, 233664, Control_c, 3, 7, 52
5, 233664, Control_c, 3, 7, 55
5, 233760, Control_c, 3, 7, 44
5, 233856, Control_c, 3, 7, 52
5, 233864, Note_off_c, 3, 40, 64
5, 233888, Control_c, 3, 7, 43
5, 233952, Control_c, 3, 7, 59
5, 233952, Control_c, 3, 7, 50
5, 233952, Control_c, 3, 7, 51
5, 233952, Control_c, 3, 7, 56
5, 233952, Control_c, 3, 7, 46
5, 234016, Control_c, 3, 7, 47
5, 234048, Control_c, 3, 7, 48
5, 234048, Control_c, 3, 7, 41
5, 234048, Control_c, 3, 7, 43
5, 234048, Control_c, 3, 7, 46
5, 234048, Control_c, 3, 7, 44
5, 234048, Control_c, 3, 7, 47
5, 234048, Control_c, 3, 7, 47
5, 234128, Control_c, 3, 7, 45
5, 234144, Control_c, 3, 7, 47
5, 234144, Control_c, 3, 7, 59
5, 234144, Control_c, 3, 7, 40
5, 234240, Control_c, 3, 7, 41
5, 234240, Control_c, 3, 7, 48
5, 234240, Control_c, 4, 7, 4
5, 234336, Control_c, 3, 7, 47
5, 234336, Control_c, 3, 7, 51
5, 234432, Control_c, 3, 7, 44
5, 234432, Control_c, 3, 7, 44
5, 234432, Control_c, 3, 7, 43
5, 234432, Control_c, 3, 7, 41
5, 234432, Control_c, 3, 7, 45
5, 234528, Control_c, 3, 7, 44
5, 234528, Control_c, 3, 7, 46
5, 234528, Control_c, 3, 7, 4
5, 234624, Control_c, 3, 7, 47
5, 234624, Control_c, 3, 7, 59
5, 234624, Control_c, 3, 7, 45
5, 234624, Note_on_c, 3, 42, 110
5, 234624, Control_c, 3, 7, 48
5, 234624, Control_c, 3, 7, 43
5, 234624, Control_c, 3, 7, 47
5, 234624, Control_c, 3, 7, 47
5, 234624, Control_c, 4, 7, 44
5, 234720, Control_c, 3, 7, 48
5, 234720, Control_c, 3, 7, 41
5, 234912, Control_c, 3, 7, 47
5, 234912, Control_c, 3, 7, 47
5, 234944, Note_off_c, 3, 39, 64
5, 234944, Control_c, 3, 7, 44
5, 235008, Control_c, 3, 7, 44
5, 235008, Control_c, 3, 7, 47
5, 235200, Control_c, 3, 7, 30
5, 235212, Control_c, 3, 7, 17
5, 235216, Control_c, 3, 7, 87
5, 235392, Control_c, 3, 7, 43
5, 235488, Control_c, 3, 7, 43
5, 235776, Note_off_c, 3, 40, 64
5, 236336, Control_c, 3, 7, 39
5, 236640, Control_c, 4, 75, 64
5, 236736, Control_c, 3, 7, 29
5, 237024, Control_c, 3, 7, 49
5, 237024, Control_c, 3, 7, 17
5, 237216, Control_c, 3, 7, 17
5, 237216, Control_c, 3, 7, 18
5, 237328, Control_c, 3, 7, 48
5, 237504, Control_c, 3, 7, 28
5, 237696, Note_on_c, 3, 39, 110
5, 237792, Control_c, 3, 7, 27
5, 237792, Control_c, 3, 7, 67
5, 237792, Control_c, 3, 7, 385, 223488, Control_c, 3, 7, 77
5, 237794, 37, 110
5, 237888, Control_c, 3, 7, 49
5, 237984, Control_c, 3, 7, 26
5, 238368, Control_c, 3, 7, 20
5, 238464, Note_off_c, 3, 39, 64
5, 238656, Control_c, 3, 7, 28
5, 238656, Control_c, 3, 7, 22
5, 238688, Control_c, 3, 7, 20
5, 238752, Control_c, 3, 7, 24
5, 238944, Control_c, 3, 7, 26
5, 239040, Control_c, 3, 7, 18
5, 239136, Control_c, 3, 7, 27
5, 239328, Control_c, 3, 7, 17
5, 239328, Control_c, 3, 7, 4
5, 239424, Note_off_c, 3, 42, 64
5, 239424, Control_c, 3, 7, 7
5, 239424, Control_c, 3, 7, 16
5, 239424, Control_c, 3, 7, 18
5, 239520, Control_c, 3, 7, 14
5, 239616, Control_c, 3, 7, 17
5, 239616, Note_on_c, 3, 36, 110
5, 239616, Control_c, 3, 7, 17
5, 239616, Note_on_c, 3, 39, 110
5, 239616, Note_off_c, 3, 39, 64
5, 239616, Note_on_c, 3, 36, Note_on_c, 0, 61, 110
5, 239616, Control_c, 3, 7, 10
5, 239616, Note_on_c, 3, 32, 110
5, 239616, Control_c, 3, 7, 17
5, 239616, Control_c, 3, 7, 17
5, 239616, Control_c, 3, 7, 17
5, 239616, Control_c, 3, 7, 17
5, 239616, Control_c, 3, 7, 17
5, 239616, Control_c, 3, 7, 17
5, 239616, Control_c, 3, 7, 17
5, 239616, Control_c, 3, 7, 17
5, 239616, Control_c, 3, 7, 17
5, 239712, Control_c, 3, 7, 17
5, 239712, Control_c, 3, 7, 17
5, 239712, Control_c, 3, 7, 17
5, 239808, Control_c, 3, 7, 16
5, 239904, Control_c, 3, 7, 12
5, 239904, Control_c, 3, 7, 18
5, 239904, Control_c, 3, 7, 17
5, 239904, Control_c, 3, 7, 19
5, 240000, Control_c, 3, 7, 14
5, 240000, Control_c, 3, 7, 11
5, 240016, Control_c, 3, 7, 14
5, 240096, Control_c, 3, 7, 19
5, 240096, Control_c, 3, 7, 13
5, 240096, Control_c, 3, 7, 12
5, 240096, Control_c, 3, 7, 15
5, 240192, Control_c, 3, 7, 13
5, 240192, Note_off_c, 3, 36, 64
5, 240288, Note_off_c, 3, 336, Note_off_c, 0, 73, 64
5, 240288, Control_c, 3, 7, 15
5, 240288, Control_c, 3, 7, 14
5, 240384, Control_c, 3, 7, 13
5, 240480, Control_c, 3, 7, 14
5, 240480, Control_c, 3, 7, 12
5, 240480, Control_c, 3, 7, 19
5, 240544, Control_c, 3, 7, 15
5, 240672, Control_c, 3, 7, 12
5, 240768, Control_c, 3, 7, 100
5, 240960, Control_c, 3, 7, 100
5, 240992, Control_c, 3, 7, 12
5, 241056, Control_c, 3, 7, 97
5, 241056, Control_c, 3, 7, 100
5, 241312, Control_c, 3, 7, 19
5, 241440, Control_c, 3, 7, 7
5, 241728, Control_c, 3, 7, 7
5, 241824, Control_c, 3, 7, 77
5, 241920, Control_c, 3, 7, 6
5, 241920, Control_c, 3, 7, 7
5, 242016, Control_c, 3, 7, 4
5, 242016, Control_c, 3, 7, 4
5, 242016, Control_c, 3, 7, 4
5, 242112, Control_c, 3, 7, 4
5, 242112, Control_c, 3, 7, 4
5, 242208, Control_c, 3, 7, 3
5, 242304, Control_c, 3, 7, 34
5, 242304, Note_on_c, 3, 32, Note_off_c, 5, 61, 64
5, 242304, Control_c, 3, 7, 3
5, 245000, End_track
6, 0, Start_track
6, 0, Control_c, 5, 7, 60
6, 0, Control_c, 3, 7, 100
6, 0, Control_c, 4, 91, 41
6, 0, Control_c, 4, 91, 41
6, 0, Program_c, 4, 37
6, 1, 45
6, 4, 69, 96
6, 5, 61, 96
6, 14, 64
6, 40, Note_off_c, 8, 73, 64
6, 44, 64
6, 45, 61, 64
6, 46, 64
6, 46, Note_on_c, 7, 73, 76
6, 48, 110
6, 61, 64
6, 144
6, 1279, 86
6, 2308, 9, 44, 110
6, 2376, 237120, Control_c, 4, 7, 28
6, 3456, Note_on_c, 4, 33, 110
6, 4304, Note_on_c, 4, 33, 110
6, 4720, Note_off_c, 8, 79, 64
6, 4800, Note_off_c, 4, 31, 64
6, 6912, Note_off_c, 4, 49, 110
6, 6912, Note_on_c, 4, 38, 110
6, 7430
6, 13152, Note_off_c, 4, 37, 64
6, 14119
6, 14208, Note_on_c, 4, 37, 110
6, 14361, 103680, Note_off_c, 0, 78, 64
6, 16512, Note_off_c, 4, 34, 64
6, 23865, 110
6, 29376, Note_off_c, 4, 37, 64
6, 29952, Note_on_c, 4, 37, 110
6, 30144, Note_on_c, 4, 39, 110
6, 30144, Note_on_c, 4, 40, 110
6, 30144, Note_off_c, 4, 37, 64
6, 30336, Note_off_c, 4, 39, 64
6, 30912, Note_off_c, 4, 39, 64
6, 31488, Note_off_c, 4, 37, 64
6, 31872, Note_on_c, 4, 37, 110
6, 33024, Note_off_c, 4, 37, 64
6, 33024, Note_on_c, 4, 35, 110
6, 33024, Note_on_c, 4, 37, 110
6, 33024, Note_on_c, 4, 37, 110
6, 33024, Note_on_c, 4, 37, 110
6, 33024, Note_on_c, 4, 33, 110
6, 33024, Note_on_c, 4, 35, 110
6, 33088, Note_off_c, 4, 37, 64
6, 33104, Note_on_c, 4, 39, 110
6, 33216, Note_off_c, 4, 39, 64
6, 33216, Note_on_c, 4, 40, 110
6, 33408, Note_off_c, 4, 39, 64
6, 33408, Note_off_c, 4, 39, 64
6, 33408, Note_off_c, 4, 39, 64
6, 33408, Note_off_c, 4, 39, 64
6, 33408, Note_off_c, 4, 40, 64
6, 33408, Note_on_c, 4, 40, 110
6, 33408, Note_off_c, 4, 39, 64
6, 33408, Note_on_c, 4, 39, 110
6, 33408, Note_off_c, 4, 33, 64
6, 33600, Note_on_c, 4, 40, 110
6, 33792, Control_c, 4, 7, 85
6, 33792, Program_c, 4, 37
6, 33792, Note_on_c, 4, 39, 110
6, 33984, Note_off_c, 4, 37, 64
6, 34048, Note_on_c, 4, 40, 110
6, 34144, Note_on_c, 4, 39, 110
6, 34144, Note_on_c, 4, 33, 110
6, 34368, Note_on_c, 4, 35, 110
6, 34368, Note_off_c, 4, 35, 64
6, 34560, Note_off_c, 4, 33, 64
6, 34752, Note_on_c, 4, 33, 61440, Control_c, 5, 7, 71
6, 34944, Note_on_c, 4, 40, 110
6, 34944, Note_off_c, 4, 35, 64
6, 35136, Note_on_c, 4, 37, 110
6, 35136, Note_off_c, 4, 39, 64
6, 35136, Note_on_c, 4, 35, 110
6, 35136, Note_off_c, 4, 39, 64
6, 35232, Note_off_c, 4, 40, 64
6, 35328, Note_off_c, 4, 35, 64
6, 35808, Note_on_c, 4, 40, 110
6, 36288, Note_on_c, 4, 35, 110
6, 36288, Note_off_c, 4, 35, 64
6, 36288, Note_off_c, 4, 35, 64
6, 36288, Note_on_c, 4, 37, 110
6, 36288, Note_off_c, 4, 35, 64
6, 36480, Note_off_c, 4, 37, 64
6, 36480, Note_off_c, 4, 33, 64
6, 36544, Note_on_c, 6, 59, 64
6, 36864, Note_on_c, 4, 40, 110
6, 37056, Note_off_c, 4, 40, 64
6, 37824, Note_off_c, 4, 40, 64
6, 38496, Note_off_c, 4, 39, 64
6, 39168, Note_on_c, 4, 39, 110
6, 39360, Note_off_c, 4, 44, 64
6, 39360, Note_off_c, 4, 39, 64
6, 39552, Note_off_c, 4, 40, 64
6, 39552, Note_on_c, 4, 40, 110
6, 39744, Note_on_c, 4, 44, 110
6, 39936, Note_off_c, 4, 40, 64
6, 39968, Note_on_c, 4, 39, 110
6, 40128, Note_off_c, 6, 66, 64
6, 40128, Note_off_c, 4, 33, 64
6, 40704, Note_off_c, 4, 33, 64
6, 41088, Note_on_c, 4, 33, 110
6, 41280, Note_on_c, 4, 39, 110
6, 41760, Note_on_c, 4, 33, 110
6, 41856, Note_on_c, 4, 35, 110
6, 41856, Note_on_c, 4, 35, 110
6, 41856, Note_off_c, 4, 35, 64
6, 41856, Note_on_c, 4, 39, 110
6, 41856, Note_off_c, 4, 39, 64
6, 41856, Note_off_c, 4, 33, 64
6, 42230, Note_on_c, 4, 37, 110
6, 42432, Note_off_c, 4, 33, 64
6, 42624, Note_off_c, 4, 33, 64
6, 43008, Note_on_c, 4, 35, 110
6, 43008, Note_on_c, 4, 33, 110
6, 43008, Note_off_c, 4, 35, 64
6, 43008, Note_on_c, 4, 39, 110
6, 44048, Note_on_c, 4, 44, 110
6, 44352, Note_on_c, 4, 41, 110
6, 44544, Note_on_c, 4, 42, 110
6, 44736, Note_on_c, 4, 42, 110
6, 44736, Note_on_c, 4, 39, 110
6, 44736, Note_on_c, 4, 39, 110
6, 45312, Note_off_c, 4, 42, 64
6, 45504, Note_off_c, 4, 41, 64
6, 45696, Note_on_c, 4, 42, 110
6, 45696, Note_off_c, 4, 42, 64
6, 45696, Note_on_c, 4, 42, 110
6, 45696, Note_off_c, 4, 42, 64
6, 45696, Note_off_c, 4, 42, 64
6, 45984, Note_off_c, 4, 40, 64
6, 46080, Control_c, 4, 7, 90
6, 46080, Note_off_c, 4, 39, 64
6, 46080, Note_on_c, 4, 44, 110
6, 46080, Control_c, 4, 7, 8664, Note_off_c, 6, 68, 64
6, 46080, Note_off_c, 4, 39, 64
6, 46272, Note_off_c, 4, 39, 64
6, 46656, Note_on_c, 4, 39, 110
6, 46656, Note_off_c, 4, 40, 64
6, 46848, Note_off_c, 4, 36, 64
6, 46944, Note_on_c, 4, 37, 110
6, 46944, Note_on_c, 4, 39, 110
6, 47232, Note_on_c, 4, 41, 110
6, 47232, Note_on_c, 4, 39, 110
6, 47232, Note_off_c, 4, 36, 64
6, 47232, Note_on_c, 4, 39, 110
6, 47808, Note_on_c, 4, 39, 110
6, 47808, Note_off_c, 4, 34, 64
6, 48000, Note_on_c, 4, 39, 110
6, 48000, Note_off_c, 4, 39, 64
6, 48000, Note_off_c, 4, 39, 64
6, 48192, Note_off_c, 4, 40, 64
6, 48384, Note_off_c, 4, 39, 64
6, 48576, Note_off_c, 4, 39, 64
6, 48768, Note_on_c, 4, 39, 110
6, 48768, Note_off_c, 4, 42, 64
6, 48960, Note_off_c, 4, 44, 64
6, 48960, Note_on_c, 4, 39, 110
6, 48960, Note_on_c, 4, 37, 110
6, 48960, Note_on_c, 4, 39, 110
6, 48960, Note_off_c, 5, 63, 64
6, 48960, Note_off_c, 4, 39, 64
6, 49120, Note_on_c, 4, 39, 110
6, 49152, Note_off_c, 4, 39, 64
6, 49152, Note_off_c, 4, 36, 64
6, 49152, Note_on_c, 4, 33, 110
6, 49152, Note_off_c, 4, 39, 64
6, 49344, Note_on_c, 4, 47, 110
6, 49344, Note_off_c, 4, 39, 64
6, 49344, Note_on_c, 4, 42, 110
6, 49344, Note_on_c, 4, 36, 110
6, 49344, Note_on_c, 4, 44, 110
6, 49728, Note_on_c, 4, 30, 110
6, 49728, Note_off_c, 4, 44, 64
6, 49728, Note_on_c, 4, 33, 110
6, 50272, Note_on_c, 4, 33, 110
6, 51264, Note_off_c, 4, 32, 64
6, 51264, Note_on_c, 4, 32, 110
6, 52800, Note_off_c, 4, 47, 64
6, 53952, Note_on_c, 4, 44, 110
6, 53952, Note_off_c, 4, 47, 64
6, 54320, Note_on_c, 4, 42, 110
6, 55872, Note_on_c, 4, 35, 110
6, 56064, Note_off_c, 4, 39, 64
6, 57216, Note_on_c, 4, 37, 110
6, 57296, Note_on_c, 4, 39, 110
6, 57984, Note_off_c, 4, 39, 64
6, 57984, Note_on_c, 4, 36, 110
6, 57984, Note_off_c, 4, 39, 64
6, 58368, Program_c, 4, 37
6, 58368, Program_c, 4, 37
6, 59136, Note_off_c, 4, 49, 64
6, 59520, Note_off_c, 4, 42, 64
6, 60000, Note_off_c, 4, 45, 64
6, 60096, Note_on_c, 4, 40, 110
6, 61056, Note_on_c, 4, 34, 110
6, 61056, Note_off_c, 4, 45, 64
6, 62016, Note_on_c, 4, 37, 110
6, 62400, Note_on_c, 4, 42, 110
6, 64128, Note_on_c, 4, 4576, Note_on_c, 7, 76, 110
6, 65088, Note_on_c, 4, 40, 110
6, 65280, Note_off_c, 4, 45, 64
6, 65280, Note_on_c, 4, 39, 110
6, 65856, Note_on_c, 4, 45, 110
6, 65856, Note_off_c, 4, 40, 64
6, 66048, Note_off_c, 4, 45, 64
6, 66432, Note_off_c, 4, 40, 64
6, 66624, Note_on_c, 4, 39, 110
6, 69504, Note_off_c, 4, 27, 64
6, 70080, Note_off_c, 4, 34, 64
6, 70272, Control_c, 4, 7, 83
6, 70272, Note_on_c, 4, 39, 110
6, 70272, Note_off_c, 4, 32, 64
6, 70272, Note_off_c, 4, 36, 64
6, 70272, Note_on_c, 4, 31, 110
6, 70272, Note_off_c, 4, 32, 64
6, 70656, Program_c, 4, 37, 110
6, 70656, Note_off_c, 4, 45, 64
6, 71072, Note_off_c, 4, 34, 64
6, 71808, Note_on_c, 4, 30, 110
6, 72384, Note_on_c, 4, 37, 110
6, 73344, Note_on_c, 4, 32, 110
6, 73344, Note_off_c, 4, 32, 64
6, 73344, Note_on_c, 4, 32, 110
6, 73536, Note_on_c, 5, 59, 96
6, 73728, Note_on_c, 4, 52, 110
6, 73920, Note_on_c, 4, 32, 110
6, 73920, Note_on_c, 4, 47, 110
6, 74208, Note_off_c, 4, 52, 64
6, 74304, Note_on_c, 4, 46, 110
6, 74304, Note_off_c, 4, 32, 64
6, 74304, Note_off_c, 4, 32, 64
6, 74304, Note_on_c, 4, 36, 110
6, 74592, Note_on_c, 4, 27, 110
6, 74880, Note_off_c, 4, 34, 64
6, 75456, Note_off_c, 4, 42, 64
6, 76832, Note_on_c, 4, 39, 110
6, 77376, Note_off_c, 4, 32, 64
6, 79104, Note_on_c, 4, 49, 110
6, 79360, Note_on_c, 4, 47, 110
6, 79488, Note_off_c, 4, 47, 64
6, 79872, Note_on_c, 4, 42, 110
6, 79936, Program_c, 0, 48
6, 80064, Note_on_c, 4, 40, 110
6, 80624, Note_off_c, 4, 40, 64
6, 81376, Note_off_c, 4, 41, 64
6, 82176, Note_on_c, 4, 45, 110
6, 82944, Note_on_c, 4, 40, 110
6, 83136, Note_off_c, 4, 40, 64
6, 83712, Note_off_c, 4, 40, 64
6, 84672, Note_on_c, 4, 41, 110
6, 85632, Note_off_c, 4, 49, 64
6, 86016, Note_on_c, 4, 44, 110
6, 88128, Note_off_c, 4, 45, 64
6, 88176, Note_off_c, 4, 47, 64
6, 89056, Note_off_c, 4, 42, 64
6, 93120, Note_on_c, 4, 42, 110
6, 93280, Note_on_c, 4, 47, 110
6, 93888, Note_off_c, 4, 32, 64
6, 94016, Note_on_c, 10, 54, 64
6, 94176, Note_on_c, 4, 40, 110
6, 94464, Note_off_c, 4, 40, 64
6, 94464, Note_off_c, 4, 47, 64
6, 94464, Note_off_c, 4, 44, 64
6, 94464, Control_c, 3, 7, 100
6, 94464, Note_off_c, 4, 47, 64
6, 94656, Note_on_c, 4, 40, 110
6, 94656, Note_off_c, 4, 44, 110
6, 94656, Note_off_c, 4, 44, 64
6, 94848, Note_off_c, 4, 47, 64
6, 94848, Note_on_c, 4, 47, 110
6, 95232, Note_on_c, 4, 49, 110
6, 95424, Note_on_c, 4, 42, 110
6, 96192, Note_off_c, 4, 49, 64
6, 96384, Note_on_c, 4, 41, 110
6, 96384, Note_off_c, 4, 37, 64
6, 96384, Note_off_c, 4, 40, 64
6, 97536, Note_on_c, 4, 45, 110
6, 97536, Note_on_c, 4, 49, 110
6, 97920, Note_off_c, 4, 40, 64
6, 98016, Note_on_c, 4, 44, 110
6, 98304, Note_on_c, 4, 49, 110
6, 98496, Note_on_c, 4, 44, 110
6, 99040, Note_off_c, 4, 47, 64
6, 99072, Note_off_c, 4, 75, 64
6, 99200, Note_on_c, 4, 44, 110
6, 99264, Note_off_c, 4, 40, 64
6, 99264, Note_on_c, 4, 40, 110
6, 99452, Note_off_c, 4, 47, 64
6, 99456, Note_on_c, 4, 49, 110
6, 99456, Note_on_c, 4, 46, 110
6, 99456, Note_off_c, 4, 41, 64
6, 99840, Note_on_c, 4, 47, 110
6, 99840, Note_off_c, 4, 47, 64
6, 104448, Note_off_c, 4, 47, 64
6, 113664, Control_c, 4, 7, 73
6, 116160, Note_off_c, 4, 38, 64
6, 116736, Note_off_c, 4, 37, 64
6, 117120, Note_on_c, 4, 37, 110
6, 119424, Note_on_c, 4, 37, 110
6, 121728, Note_on_c, 4, 37, 110
6, 123072, Note_off_c, 4, 37, 64
6, 123072, Note_off_c, 4, 37, 64
6, 123264, Note_on_c, 4, 37, 110
6, 123456, Note_on_c, 4, 37, 110
6, 123456, Note_on_c, 4, 37, 110
6, 123648, Note_off_c, 4, 37, 64
6, 124224, Note_off_c, 4, 37, 64
6, 124608, Note_on_c, 4, 39, 110
6, 124800, Control_c, 4, 7, 88
6, 125184, Note_on_c, 4, 37, 110
6, 125184, Note_on_c, 4, 37, 110
6, 125184, Note_on_c, 4, 37, 110
6, 125376, Note_off_c, 4, 39, 64
6, 125376, Note_on_c, 4, 37, 110
6, 125376, Note_off_c, 4, 37, 64
6, 125376, Note_on_c, 4, 39, 110
6, 125376, Note_on_c, 4, 39, 110
6, 125376, Note_off_c, 4, 39, 64
6, 125392, Note_on_c, 4, 39, 110
6, 125568, Note_off_c, 4, 39, 64
6, 125568, Note_on_c, 4, 37, 110
6, 126144, Note_off_c, 4, 37, 64
6, 127776, Note_off_c, 4, 37, 64
6, 128640, Note_on_c, 4, 39, 110
6, 130560, Note_off_c, 4, 40, 64
6, 130560, Note_off_c, 4, 40, 64
6, 132096, Note_on_c, 4, 40, 110
6, 133248, Note_off_c, 4, 40, 64
6, 133248, Note_off_c, 4, 45, 64
6, 133248, Note_on_c, 4, 40, 110
6, 133248, Note_on_c, 4, 40, 110
6, 133408, Control_c, 4, 7, 26
6, 133456, Note_on_c, 2, 52, 70
6, 133632, Note_off_c, 4, 40, 64
6, 134176, Note_on_c, 4, 33, 110
6, 134400, Note_on_c, 4, 32, 110
6, 134464, Note_on_c, 4, 42, 110
6, 134784, Note_off_c, 4, 42, 64
6, 135168, Note_off_c, 4, 39, 64
6, 135168, Note_off_c, 4, 33, 64
6, 135168, Note_on_c, 4, 36, 110
6, 135168, Program_c, 4, 37
6, 135168, Note_on_c, 4, 33, 110
6, 135168, Program_c, 4, 37
6, 135168, Note_on_c, 4, 33, 110
6, 135360, Note_off_c, 4, 33, 64
6, 135936, Note_on_c, 4, 33, 110
6, 135936, 75, 64
6, 135936, Note_off_c, 4, 33, 64
6, 135936, Note_on_c, 4, 33, 110
6, 136320, Note_off_c, 4, 33, 64
6, 136496, Note_on_c, 4, 33, 110
6, 136512, Note_on_c, 4, 33, 110
6, 136512, Note_off_c, 4, 33, 64
6, 136704, Note_off_c, 4, 33, 64
6, 136832, Note_off_c, 4, 39, 64
6, 136896, Note_on_c, 4, 39, 110
6, 137056, Note_off_c, 4, 39, 64
6, 137280, Note_on_c, 4, 35, 110
6, 137856, Note_on_c, 4, 39, 110
6, 137856, Note_off_c, 4, 35, 64
6, 138240, Note_off_c, 4, 35, 64
6, 138240, Note_on_c, 4, 42, 110
6, 138432, Note_off_c, 4, 42, 64
6, 139392, Note_on_c, 4, 42, 110
6, 139584, Note_on_c, 4, 42, 110
6, 139712, Note_on_c, 4, 47, 110
6, 140160, Note_off_c, 4, 36, 64
6, 140160, Note_off_c, 4, 42, 64
6, 140160, Note_on_c, 4, 39, 110
6, 140160, Note_off_c, 4, 44, 64
6, 140160, Note_off_c, 4, 40, 64
6, 140336, Note_on_c, 4, 41, 110
6, 140928, Note_off_c, 4, 40, 64
6, 140928, Note_on_c, 4, 40, 110
6, 141184, Note_on_c, 4, 35, 110
6, 141184, Note_off_c, 4, 33, 64
6, 141216, Note_off_c, 4, 35, 64
6, 141312, Note_off_c, 4, 39, 64
6, 141312, Note_on_c, 4, 39, 110
6, 141312, Program_c, 4, 37
6, 141312, Note_off_c, 4, 39, 64
6, 141312, Note_off_c, 4, 39, 64
6, 141312, Note_on_c, 4, 39, 110
6, 141312, Note_off_c, 4, 39, 64
6, 141312, Note_off_c, 4, 39, 64
6, 141312, Note_off_c, 4, 39, 64
6, 141312, Note_off_c, 4, 39, 64
6, 141312, Program_c, 4, 37
6, 141312, Program_c, 4, 37
6, 141408, Note_on_c, 4, 40, 110
6, 141504, Note_on_c, 4, 39, 110
6, 141504, Note_off_c, 4, 35, 64
6, 142176, Note_on_c, 4, 40, 110
6, 142464, Note_on_c, 4, 33, 110
6, 143232, Note_off_c, 4, 36, 64
6, 143232, Note_off_c, 4, 36, 64
6, 143232, Note_on_c, 4, 39, 110
6, 143232, Note_off_c, 4, 36, 64
6, 143232, Note_on_c, 4, 39, 110
6, 143232, Note_off_c, 4, 36, 64
6, 143424, Note_on_c, 4, 39, 110
6, 143424, Note_on_c, 4, 39, 110
6, 143424, Note_off_c, 4, 33, 64
6, 143616, Note_off_c, 4, 39, 64
6, 143616, Note_on_c, 4, 39, 110
6, 143616, Note_on_c, 4, 39, 110
6, 143616, Note_on_c, 4, 32, 110
6, 143808, Note_off_c, 4, 39, 64
6, 143808, Note_off_c, 4, 39, 64
6, 143808, Note_off_c, 4, 36, 64
6, 144000, Note_off_c, 4, 36, 64
6, 144000, Note_off_c, 4, 222176, Note_off_c, 2, 61, 64
6, 144160, Note_on_c, 4, 39, 110
6, 144192, Note_on_c, 4, 39, 110
6, 144192, Note_off_c, 4, 40, 64
6, 144384, Note_on_c, 4, 36, 110
6, 144384, Note_on_c, 4, 36, 110
6, 144384, Note_off_c, 4, 36, 64
6, 144384, Note_off_c, 4, 36, 64
6, 144384, Note_on_c, 4, 39, 110
6, 144576, Note_off_c, 4, 36, 64
6, 144800, Note_off_c, 4, 42, 64
6, 144960, Note_off_c, 4, 39, 64
6, 144960, Note_on_c, 4, 32, 110
6, 144960, Note_on_c, 4, 32, 110
6, 144960, Note_on_c, 4, 39, 110
6, 144960, Note_on_c, 4, 36, 110
6, 145120, Note_on_c, 4, 39, 110
6, 145152, Note_on_c, 4, 36, 110
6, 145152, Note_on_c, 2, 59, 64
6, 145344, Note_on_c, 4, 34, 110
6, 145344, Note_on_c, 4, 36, 110
6, 145344, Note_on_c, 4, 32, 110
6, 145440, Note_on_c, 4, 40, 110
6, 145536, Note_off_c, 4, 36, 64
6, 145536, Note_off_c, 4, 36, 64
6, 145536, Note_on_c, 4, 36, 110
6, 145536, Note_off_c, 4, 36, 64
6, 145536, Note_off_c, 4, 36, 64
6, 145544, Note_on_c, 4, 34, 110
6, 145824, Note_off_c, 4, 40, 64
6, 145920, Note_on_c, 4, 39, 110
6, 145920, Note_on_c, 4, 39, 110
6, 145920, Note_off_c, 4, 36, 64
6, 146112, Note_off_c, 4, 36, 64
6, 146112, Note_off_c, 4, 36, 64
6, 146112, Note_off_c, 4, 32, 64
6, 146112, Note_on_c, 4, 32, 110
6, 146288, Note_off_c, 4, 36, 64
6, 146288, Note_off_c, 4, 36, 64
6, 146304, Note_off_c, 4, 36, 64
6, 146304, Note_on_c, 4, 39, 110
6, 146496, Note_on_c, 4, 32, 110
6, 146496, Note_off_c, 4, 32, 64
6, 146688, Note_on_c, 4, 39, 110
6, 146688, Note_off_c, 4, 39, 64
6, 146688, Note_off_c, 4, 36, 64
6, 146688, Note_on_c, 4, 36, 110
6, 147264, Note_on_c, 4, 32, 110
6, 147840, Note_on_c, 4, 36, 110
6, 149184, Note_off_c, 4, 47, 64
6, 149344, Note_off_c, 4, 42, 64
6, 149568, Note_off_c, 4, 47, 64
6, 149568, Note_on_c, 4, 41, 110
6, 149760, Note_on_c, 4, 49, 110
6, 149888, Note_on_c, 4, 44, 110
6, 149952, Note_on_c, 4, 32, 110
6, 150144, 64
6, 153600, Program_c, 4, 37
6, 153600, Note_off_c, 4, 40, 64
6, 153600, Note_on_c, 4, 40, 110
6, 174112, Note_off_c, 4, 45, 64
6, 175104, Note_on_c, 4, 40, 110
6, 175104, Note_on_c, 4, 45, 110
6, 175680, Note_off_c, 4, 45, 64
6, 179520, Note_on_c, 4, 47, 110
6, 188928, Note_on_c, 4, 45, 110
6, 189120, Note_on_c, 4, 47, 110
6, 189184, Note_on_c, 4, 47, 110
6, 189504, Note_off_c, 4, 47, 64
6, 190080, Note_on_c, 4, 40, 110
6, 190464, Note_off_c, 4, 44, 64
6, 191040, Note_off_c, 4, 49, 64
6, 191040, Note_off_c, 4, 41, 64
6, 191232, Control_c, 4, 7, 80
6, 191232, Note_off_c, 4, 41, 64
6, 193536, Note_off_c, 4, 47, 64
6, 193536, Note_off_c, 4, 45, 64
6, 194688, Note_off_c, 4, 44, 64
6, 195264, Note_on_c, 4, 39, 110
6, 195840, Note_on_c, 4, 44, 110
6, 196608, Note_on_c, 4, 49, 110
6, 199680, Note_off_c, 4, 47, 64
6, 205056, Note_off_c, 4, 45, 64
6, 205696, Note_off_c, 4, 40, 64
6, 205824, Note_on_c, 4, 36, 110
6, 205824, Note_off_c, 4, 47, 64
6, 207360, Note_on_c, 4, 40, 110
6, 207552, Note_on_c, 4, 40, 110
6, 212368, Note_on_c, 4, 37, 110
6, 213120, Note_on_c, 4, 37, 110
6, 214464, Note_on_c, 4, 37, 110
6, 219264, Note_off_c, 4, 37, 64
6, 219264, Note_on_c, 4, 37, 110
6, 219264, Note_off_c, 4, 37, 64
6, 220032, Note_off_c, 4, 37, 64
6, 220800, Note_off_c, 4, 37, 64
6, 221568, Note_off_c, 4, 37, 64
6, 221760, Note_on_c, 4, 39, 110
6, 221952, Note_off_c, 3, 37, 64
6, 222816, Control_c, 5, 7, 66
6, 222912, Note_on_c, 4, 37, 110
6, 223296, Note_on_c, 4, 37, 110
6, 223488, Note_off_c, 4, 37, 64
6, 223488, Note_on_c, 4, 37, 110
6, 223488, Note_on_c, 4, 37, 110
6, 223488, Note_off_c, 4, 37, 64
6, 223680, Note_on_c, 4, 37, 110
6, 223680, Note_on_c, 4, 37, 110
6, 223680, Note_off_c, 4, 37, 64
6, 223872, Note_on_c, 4, 40, 110
6, 223872, Note_on_c, 4, 40, 110
6, 224448, Control_c, 4, 7, 64
6, 224448, Control_c, 4, 7, 65
6, 224544, Control_c, 4, 7, 63
6, 224832, Note_on_c, 4, 37, 110
6, 224928, Control_c, 4, 7, 70
6, 225408, Note_on_c, 4, 39, 110
6, 225408, Control_c, 4, 7, 81
6, 225408, Note_on_c, 4, 35, 110
6, 225408, Control_c, 4, 7, 76
6, 225504, Control_c, 4, 7, 84
6, 225984, Note_on_c, 4, 37, 110
6, 226176, Note_off_c, 3, 37, 64
6, 226464, Control_c, 4, 7, 76
6, 226560, Note_off_c, 4, 39, 64
6, 226560, Note_on_c, 4, 35, 110
6, 226752, Control_c, 4, 7, 76
6, 226752, Note_off_c, 4, 35, 64
6, 226752, Control_c, 4, 7, 75
6, 226752, Control_c, 4, 7, 75
6, 226944, Control_c, 4, 7, 71
6, 226944, Note_off_c, 4, 37, 64
6, 226944, Control_c, 4, 7, 75
6, 226944, Note_off_c, 4, 37, 64
6, 226944, Note_off_c, 4, 35, 64
6, 226944, Note_on_c, 4, 37, 110
6, 227104, Note_off_c, 4, 37, 64
6, 227136, Note_on_c, 4, 40, 110
6, 227136, Note_off_c, 4, 35, 64
6, 227328, Control_c, 4, 7, 8
6, 227328, Note_on_c, 4, 39, 110
6, 227328, Note_off_c, 4, 35, 64
6, 227520, Note_on_c, 4, 41, 110
6, 227520, Note_off_c, 4, 40, 64
6, 227520, Control_c, 4, 7, 61
6, 227520, Note_on_c, 4, 40, 110
6, 227520, Note_off_c, 4, 40, 64
6, 228192, Note_on_c, 4, 37, 110
6, 228480, Control_c, 4, 7, 68
6, 228480, Control_c, 4, 7, 65
6, 228480, Control_c, 4, 7, 66
6, 228480, Control_c, 4, 7, 62
6, 228480, Control_c, 4, 7, 63
6, 228576, Control_c, 4, 7, 64
6, 228576, Control_c, 4, 7, 66
6, 228576, Control_c, 4, 7, 64
6, 228576, Note_on_c, 4, 39, 110
6, 228672, Control_c, 4, 7, 64
6, 228864, Control_c, 4, 7, 64
6, 228864, Control_c, 4, 7, 66
6, 228864, Control_c, 4, 7, 66
6, 228864, Control_c, 4, 7, 64
6, 228864, Control_c, 4, 7, 65
6, 229056, Control_c, 4, 7, 61
6, 229056, Control_c, 4, 7, 78
6, 229152, Control_c, 4, 7, 64
6, 229152, Control_c, 4, 7, 65
6, 229248, Note_off_c, 4, 40, 64
6, 229248, Note_off_c, 4, 40, 64
6, 229440, Control_c, 4, 7, 71
6, 229632, Note_on_c, 4, 42, 110
6, 229632, Note_on_c, 4, 40, 110
6, 229632, Note_on_c, 4, 40, 110
6, 229632, Note_on_c, 4, 40, 110
6, 229632, Note_on_c, 4, 40, 110
6, 229632, Note_on_c, 4, 40, 110
6, 229632, Note_on_c, 4, 40, 110
6, 229696, Note_off_c, 4, 39, 64
6, 229824, Control_c, 4, 7, 74
6, 229824, Control_c, 4, 7, 69
6, 229824, Control_c, 4, 7, 61
6, 229920, Control_c, 4, 7, 69
6, 230016, Note_off_c, 4, 40, 64
6, 230016, Control_c, 4, 7, 77
6, 230208, Note_off_c, 4, 39, 64
6, 230208, Control_c, 3, 7, 56
6, 230304, Control_c, 4, 7, 67568, Control_c, 0, 7, 73
6, 230400, Note_off_c, 4, 39, 64
6, 230400, Control_c, 4, 7, 67
6, 230464, Note_off_c, 4, 33, 64
6, 230592, Control_c, 4, 7, 58
6, 230592, Note_off_c, 4, 33, 64
6, 230816, Control_c, 4, 7, 42
6, 230976, Note_on_c, 4, 39, 110
6, 231168, Note_off_c, 4, 33, 64
6, 231168, Control_c, 4, 7, 57
6, 231168, Note_off_c, 4, 33, 64
6, 231168, Control_c, 4, 7, 57
6, 231360, Control_c, 4, 7, 55
6, 231552, Note_on_c, 4, 33, 110
6, 231744, Control_c, 4, 7, 54
6, 232000, Note_off_c, 0, 63, 64
6, 232128, Control_c, 4, 7, 52
6, 232320, Control_c, 4, 7, 54
6, 232608, Control_c, 4, 7, 52
6, 232896, Note_off_c, 4, 33, 64
6, 232896, Control_c, 3, 7, 52
6, 233216, Control_c, 4, 7, 51
6, 233280, Control_c, 4, 7, 46
6, 233280, Control_c, 5, 7, 42
6, 233472, Control_c, 4, 7, 56
6, 233664, Control_c, 4, 7, 44
6, 233664, Note_off_c, 4, 41, 64
6, 233664, Note_off_c, 4, 39, 64
6, 233856, Note_off_c, 4, 39, 64
6, 233856, Note_off_c, 4, 39, 64
6, 233888, Note_off_c, 4, 39, 64
6, 234240, Control_c, 4, 7, 39
6, 234336, Note_off_c, 4, 39, 64
6, 234528, Control_c, 4, 7, 39
6, 234624, Control_c, 6, 7, 28
6, 234624, Control_c, 4, 7, 39
6, 234624, Control_c, 4, 7, 24
6, 234624, Note_on_c, 4, 42, 110
6, 234720, Control_c, 4, 7, 44
6, 235008, Note_off_c, 4, 40, 64
6, 235392, Control_c, 4, 7, 34
6, 235392, Note_off_c, 4, 44, 64
6, 235776, Note_on_c, 4, 44, 110
6, 236320, Control_c, 4, 7, 40
6, 236352, Control_c, 4, 7, 28
6, 236736, Note_off_c, 4, 42, 64
6, 236864, Control_c, 0, 7, 76
6, 237216, Control_c, 4, 7, 218848, Note_on_c, 9, 36, 110
6, 237696, Control_c, 4, 7, 27
6, 237696, Control_c, 4, 7, 25
6, 237696, Control_c, 4, 7, 38
6, 237696, Note_on_c, 4, 42, 110
6, 237792, Control_c, 4, 7, 3
6, 237888, Control_c, 4, 7, 29
6, 237888, Control_c, 4, 7, 24
6, 237888, Control_c, 4, 7, 2-
6, 237904, Control_c, 4, 7, 26
6, 237984, Control_c, 4, 7, 2966, 80
6, 238080, Control_c, 4, 7, 24
6, 238176, Control_c, 4, 7, 28
6, 238272, Control_c, 4, 7, 23
6, 238464, Control_c, 4, 7, 22
6, 238464, Note_off_c, 4, 33, 64
6, 238464, Control_c, 4, 7, 17
6, 238464, Control_c, 4, 7, 24
6, 238688, Control_c, 4, 7, 24
6, 238752, Note_on_c, 4, 32, 110
6, 238848, Control_c, 4, 7, 24
6, 238848, Note_on_c, 4, 39, 110
6, 238848, Note_on_c, 4, 32, 110
6, 238848, 7, 85, 74
6, 238880, Control_c, 4, 7, 59
6, 239232, Note_off_c, 4, 44, 64
6, 239232, Note_off_c, 4, 36, 64
6, 239424, Control_c, 4, 7, 17
6, 239424, Control_c, 4, 7, 10
6, 239424, Control_c, 4, 7, 110
6, 239424, Control_c, 4, 7, 19
6, 239520, Control_c, 4, 7, 12
6, 239520, Control_c, 4, 7, 12
6, 239712, Control_c, 4, 7, 14
6, 239808, Note_off_c, 4, 36, 64
6, 240000, Control_c, 4, 7, 9
6, 240160, Note_on_c, 4, 44, 110
6, 240192, Control_c, 4, 7, 11
6, 240192, Control_c, 4, 7, 11
6, 240192, Control_c, 4, 7, 10
6, 240192, Control_c, 4, 7, 11
6, 240384, Note_off_c, 4, 32, 64
6, 240576, Control_c, 4, 7, 21
6, 240576, Control_c, 4, 7, 12
6, 240576, Control_c, 9, 2, 46, 64
6, 240576, Control_c, 4, 7, 15
6, 240672, Control_c, 4, 7, 10
6, 240960, Control_c, 0, 7, 72
6, 240960, Control_c, 4, 7, 18
6, 240992, Control_c, 4, 7, 1
6, 241344, Control_c, 4, 7, 4
6, 241344, Note_off_c, 4, 39, 64
6, 241440, Control_c, 4, 7, 7
6, 241536, Control_c, 4, 9, 36, 64
6, 241920, Note_off_c, 4, 42, 64
6, 242112, Control_c, 4, 7, 4
6, 242208, Control_c, 4, 7, 1
6, 242688, Control_c, 5, 7, 3
7, 4, 1, 63, 64
7, 4, Note_on_c, 3, 37, 110
7, 8, Note_off_c, 5, 61, 64
7, 14, 35, 110
7, 20, 64
7, 22, Control_c, 5, 7, 84
7, 43, 110
7, 46, 9, 36, 64
7, 64, Note_off_c, 7, 76, 64
7, 64
7, 80, Note_off_c, 0, 62, 64
7, 126, Note_off_c, 3, 37, 64
7, 139, 8, 80, 110
7, 205, Control_c, 5, 7, 0
7, 205, 59, 110
7, 211, 68, 64
7, 212, 3, 49, 110
7, 219, 94016, Note_on_c, 9, 59, 110
7, 236, Control_c, 5, 7, 47
7, 336, Note_off_c, 3, 43, 64
7, 848, Note_on_c, 5, 76, 96
7, 1248, 4072, Note_off_c, 5, 61, 64
7, 2010, 158592, Note_on_c, 7, 76, 69
7, 2254, 32864, Note_off_c, 5, 61, 64
7, 3072, Note_on_c, 5, 61, 64
7, 3264, Control_c, 5, 7, 63
7, 4608, Control_c, 5, 7, 47
7, 11616, Note_off_c, 0, 64, 64
7, 11824, Note_on_c, 5, 61, 110
7, 12480, Note_off_c, 5, 61, 64
7, 13804, Note_on_c, 0, 64, 64
7, 15360, Control_c, 5, 7, 58
7, 18432, Control_c, 5, 7, 48
7, 18432, Program_c, 5, 81
7, 18432, Note_on_c, 5, 61, 110
7, 18438, Note_on_c, 5, 61, 96
7, 18624, Note_off_c, 5, 61, 64
7, 18752, Control_c, 5, 7, 90
7, 18832, Note_on_c, 5, 61, 110
7, 18912, Control_c, 5, 7, 59
7, 19008, Note_on_c, 5, 68, 64
7, 19008, Note_on_c, 5, 61, 110
7, 19200, Control_c, 5, 7, 48
7, 19472, Note_off_c, 5, 61, 64
7, 19488, Control_c, 5, 7, 47
7, 19584, Note_off_c, 5, 61, 64
7, 19776, Control_c, 5, 7, 46
7, 19968, Note_off_c, 8, 85, 64
7, 20160, Note_on_c, 5, 76, 96
7, 20736, 64
7, 20736, Control_c, 5, 7, 46
7, 20736, Control_c, 5, 7, 66
7, 21024, Note_on_c, 5, 61, 96
7, 21120, Note_on_c, 5, 61, 96
7, 21840, Control_c, 5, 7, 63
7, 22176, Note_on_c, 5, 61, 110
7, 22560, 110
7, 22656, Note_on_c, 36, 66, 64
7, 22796, Note_off_c, 9, 44, 64
7, 22848, 5, 110
7, 22880, Control_c, 5, 7, 61
7, 23040, Program_c, 5, 39
7, 23040, Program_c, 5, 82, 64
7, 23232, Control_c, 5, 7, 76
7, 23376, 9, 44, 64
7, 23424, Note_on_c, 5, 61, 64
7, 23424, Note_on_c, 5, 61, 64
7, 23520, Note_off_c, 5, 61, 64
7, 23616, Time_signature, 5, 61, 96
7, 23616, Control_c, 5, 7, 78
7, 23616, Note_on_c, 5, 61, 64
7, 23616, Note_on_c, 5, 61, 64
7, 23616, Note_off_c, 5, 61, 64
7, 23616, Control_c, 5, 7, 77
7, 23616, Control_c, 5, 7, 710
7, 23616, Note_on_c, 5, 61, 64
7, 23680, Note_off_c, 5, 61, 64
7, 23712, Note_off_c, 5, 61, 64
7, 23808, Note_on_c, 5, 61, 64
7, 23808, Note_on_c, 5, 61, 64
7, 23808, Note_on_c, 5, 61, 64
7, 23904, Control_c, 5, 7, 76
7, 23904, Control_c, 5, 7, 67
7, 23904, Control_c, 5, 7, 58
7, 24000, Note_on_c, 5, 61, 64
7, 24096, Note_on_c, 5, 61, 110
7, 24128, Control_c, 4, 7, 67
7, 24384, Note_on_c, 5, 61, 64
7, 24384, Note_on_c, 5, 61, 96
7, 24480, Control_c, 5, 7, 86
7, 24576, Control_c, 5, 7, 63, 36, 110
7, 24672, Control_c, 5, 7, 82
7, 24672, Note_off_c, 5, 61, 64
7, 24672, Note_off_c, 5, 61, 64
7, 24960, Note_on_c, 5, 61, 64
7, 25728, Note_on_c, 3, 38, 64
7, 28992, Note_off_c, 5, 61, 64
7, 28992, Note_on_c, 5, 61, 110
7, 29376, Note_on_c, 5, 61, 110
7, 29568, Note_off_c, 5, 61, 64
7, 29568, Note_on_c, 5, 61, 110
7, 29856, Note_off_c, 5, 61, 64
7, 30048, Note_off_c, 5, 61, 64
7, 30144, Note_on_c, 5, 61, 110
7, 30144, Note_on_c, 5, 61, 96
7, 30336, Note_off_c, 5, 61, 64
7, 31200, Note_off_c, 5, 61, 64
7, 31392, Note_off_c, 5, 61, 64
7, 31392, Note_off_c, 5, 59, 64
7, 31392, Note_off_c, 5, 61, 64
7, 31488, Note_on_c, 5, 61, 64
7, 31808, Note_off_c, 5, 59, 64
7, 31872, Note_on_c, 5, 61, 110
7, 32160, Note_on_c, 5, 59, 64
7, 32256, Note_on_c, 5, 61, 110
7, 32544, Note_off_c, 5, 61, 64
7, 32752, Note_off_c, 5, 61, 64
7, 32928, Note_off_c, 5, 61, 64
7, 33024, Note_on_c, 5, 61, 110
7, 33088, Note_on_c, 5, 61, 64
7, 33088, Note_off_c, 5, 59, 64
7, 33120, Note_off_c, 5, 59, 64
7, 33120, Note_on_c, 5, 59, 64
7, 33152, Note_on_c, 5, 59, 110
7, 33216, Note_on_c, 5, 61, 110
7, 33216, Note_on_c, 5, 61, 64
7, 33216, Note_on_c, 5, 61, 110
7, 33216, Note_on_c, 5, 61, 110
7, 33216, Note_off_c, 5, 61, 64
7, 33344, Note_off_c, 5, 61, 64
7, 33408, Note_on_c, 5, 61, 110
7, 33408, Note_on_c, 5, 61, 96
7, 33504, Note_on_c, 5, 61, 96
7, 33600, Note_off_c, 5, 61, 64
7, 33600, Note_off_c, 5, 61, 64
7, 33600, Control_c, 5, 7, 41
7, 33600, Note_off_c, 5, 61, 64
7, 33696, Note_off_c, 5, 59, 64
7, 33696, Note_on_c, 2, 61, 70
7, 33792, Note_off_c, 5, 61, 64
7, 33792, Program_c, 5, 81
7, 33872, Note_off_c, 5, 61, 64
7, 33888, Note_off_c, 5, 61, 64
7, 33888, Note_off_c, 5, 59, 64
7, 33984, Note_off_c, 5, 59, 64
7, 33984, Note_off_c, 5, 59, 64
7, 34048, Note_on_c, 5, 59, 110
7, 34176, Note_on_c, 5, 59, 64
7, 34176, Note_on_c, 5, 59, 64
7, 34176, Note_on_c, 5, 59, 64
7, 34272, Note_off_c, 5, 59, 64
7, 34272, Note_off_c, 5, 59, 64
7, 34336, Note_on_c, 5, 59, 64
7, 34352, Note_off_c, 5, 59, 64
7, 34368, Note_off_c, 5, 59, 64
7, 34464, Note_off_c, 5, 59, 64
7, 34464, Note_on_c, 5, 59, 110
7, 34464, Note_off_c, 5, 59, 64
7, 34464, Note_on_c, 5, 59, 64
7, 34560, Note_on_c, 5, 59, 64
7, 34560, Note_on_c, 5, 59, 96
7, 34560, Note_on_c, 5, 59, 110
7, 34560, Note_on_c, 5, 59, 110
7, 34560, Note_off_c, 5, 59, 64
7, 34560, Note_on_c, 5, 59, 64
7, 34560, Note_on_c, 5, 59, 110
7, 34560, Note_on_c, 5, 59, 110
7, 34560, Note_off_c, 5, 59, 64
7, 34560, Note_on_c, 5, 59, 110
7, 34560, Note_on_c, 5, 59, 110
7, 34656, Note_off_c, 5, 59, 64
7, 34656, Note_off_c, 5, 59, 64
7, 34704, Note_on_c, 5, 61, 64
7, 34752, Note_off_c, 5, 59, 64
7, 34752, Note_on_c, 5, 59, 64
7, 34752, Note_on_c, 5, 59, 64
7, 34784, Note_off_c, 4, 40, 64
7, 34848, Note_off_c, 5, 59, 64
7, 34848, Note_on_c, 5, 59, 36, 64
7, 34880, Note_off_c, 10, 34, 64
7, 34912, Note_off_c, 5, 59, 64
7, 34944, Note_on_c, 5, 59, 64
7, 34944, Note_on_c, 5, 59, 110
7, 34944, Note_on_c, 5, 59, 110
7, 35136, Note_on_c, 5, 59, 96
7, 35136, Control_c, 5, 7, 90
7, 35136, Note_off_c, 5, 59, 64
7, 35232, Note_off_c, 5, 59, 64
7, 35520, Note_on_c, 5, 59, 96
7, 35520, Note_on_c, 5, 59, 110
7, 35520, Note_off_c, 5, 59, 64
7, 35520, Note_on_c, 5, 59, 64
7, 35616, Note_off_c, 5, 59, 64
7, 35680, Note_off_c, 5, 59, 64
7, 35712, Note_on_c, 5, 61, 110
7, 36064, Note_on_c, 5, 59, 110
7, 36096, Note_on_c, 5, 59, 110
7, 36096, Note_on_c, 5, 59, 64
7, 36192, Note_off_c, 5, 59, 64
7, 36288, Note_off_c, 5, 59, 64
7, 36288, Note_on_c, 5, 59, 64
7, 36384, Note_off_c, 5, 59, 64
7, 36384, Note_on_c, 5, 59, 64
7, 36384, Note_off_c, 5, 59, 64
7, 36384, Note_off_c, 5, 59, 64
7, 36480, Note_on_c, 5, 59, 64
7, 36480, Note_on_c, Note_off_c, 9, 44, 64
7, 36672, Note_off_c, 5, 59, 64
7, 36768, Note_off_c, 5, 59, 64
7, 36768, Note_off_c, 5, 59, 64
7, 36960, Note_on_c, 5, 59, 110
7, 37152, Note_on_c, 5, 59, 64
7, 37152, Note_off_c, 5, 59, 64
7, 37248, Note_on_c, 5, 59, 110
7, 37344, Note_off_c, 5, 59, 64
7, 37344, Note_off_c, 5, 61, 64
7, 37408, Note_on_c, 5, 59, 96
7, 37920, Note_off_c, 5, 59, 64
7, 38208, Note_on_c, 5, 59, 110
7, 38410
7, 38592, Note_on_c, 5, 59, 96
7, 38688, Note_off_c, 5, 59, 64
7, 39264, Note_off_c, 5, 61, 64
7, 39456, Note_on_c, 5, 61, 64
7, 39936, Note_on_c, 5, 61, 110
7, 39936, Note_on_c, 85856, Program_c, 9, 44, 96
7, 40096, Note_off_c, 5, 61, 64
7, 40224, Note_off_c, 5, 61, 64
7, 40320, Note_on_c, 5, 61, 64
7, 40704, Note_off_c, 5, 61, 64
7, 41088, Note_on_c, 5, 61, 110
7, 41184, Note_off_c, 5, 61, 64
7, 41184, Note_off_c, 5, 61, 64
7, 41280, Note_off_c, 5, 61, 64
7, 41280, Note_on_c, 5, 61, 96
7, 41344, Note_off_c, 5, 61, 64
7, 41376, Note_off_c, 5, 61, 64
7, 41856, Note_off_c, 5, 61, 64
7, 42240, Note_on_c, 2, 52, 70
7, 42240, Note_on_c, 5, 61, 110
7, 42240, Note_on_c, 5, 61, 110
7, 42336, Note_off_c, 5, 61, 64
7, 42336, Note_off_c, 5, 61, 64
7, 42336, Note_off_c, 5, 61, 64
7, 42624, Note_on_c, 5, 61, 64
7, 42816, Note_off_c, 5, 61, 64
7, 43008, Note_off_c, 5, 61, 64
7, 43008, Note_off_c, 5, 61, 64
7, 43008, Note_on_c, 5, 61, 96
7, 43008, Note_on_c, 5, 61, 96
7, 43008, Note_off_c, 5, 61, 64
7, 43072, Note_off_c, 5, 61, 64
7, 43104, Note_off_c, 5, 61, 64
7, 43168, Note_on_c, 5, 61, 64
7, 43200, Note_off_c, 5, 61, 64
7, 43200, Note_on_c, 5, 61, 64
7, 43200, Note_on_c, 5, 61, 64
7, 43200, Note_off_c, 5, 61, 64
7, 43200, Note_on_c, 5, 61, 110
7, 43200, Note_on_c, 5, 61, 110
7, 43200, Note_on_c, 5, 61, 64
7, 43200, Note_off_c, 5, 61, 64
7, 43200, Note_off_c, 5, 61, 64
7, 43200, Note_on_c, 5, 61, 64
7, 43200, Note_on_c, 5, 61, 64
7, 43200, Note_off_c, 5, 61, 64
7, 43216, Note_off_c, 5, 61, 64
7, 43296, Note_off_c, 5, 61, 64
7, 43296, Note_off_c, 5, 61, 64
7, 43296, Note_off_c, 5, 61, 64
7, 43296, Note_off_c, 5, 61, 64
7, 43296, Note_off_c, 5, 61, 64
7, 43296, Note_off_c, 5, 61, 64
7, 43392, Note_on_c, 5, 61, 64
7, 43392, Note_on_c, 5, 61, 110
7, 43392, Note_on_c, 5, 61, 110
7, 43392, Note_on_c, 5, 61, 110
7, 43392, Note_on_c, 5, 61, 110
7, 43392, Note_on_c, 5, 61, 110
7, 43392, Note_on_c, 5, 61, 96
7, 43408, Note_off_c, 5, 61, 64
7, 43408, Note_on_c, 5, 61, 110
7, 43488, Note_on_c, 5, 61, 96
7, 43488, Note_off_c, 5, 61, 64
7, 43584, Note_on_c, 5, 61, 64
7, 43584, Note_on_c, 5, 61, 64
7, 43584, Note_on_c, 5, 61, 64
7, 43584, Note_on_c, 5, 61, 96
7, 43584, Note_on_c, 5, 61, 64
7, 43584, Note_on_c, 5, 61, Note_off_c, 9, 36, 64
7, 43600, Note_off_c, 5, 61, 64
7, 43616, Note_off_c, 5, 61, 64
7, 43680, Note_off_c, 5, 61, 64
7, 43680, Note_on_c, 5, 61, 64
7, 43680, Note_off_c, 5, 61, 64
7, 43680, Note_on_c, 5, 61, 96
7, 43680, Note_off_c, 5, 61, 64
7, 43680, Note_off_c, 5, 61, 64
7, 43680, Note_off_c, 5, 61, 64
7, 43680, Note_off_c, 5, 61, 64
7, 43680, Note_off_c, 5, 61, 64
7, 43776, Note_on_c, 5, 61, 96
7, 43776, Note_on_c, 5, 61, 64
7, 43776, Note_on_c, 5, 61, 96
7, 43776, Note_on_c, 5, 61, 96
7, 43808, Note_on_c, 5, 61, 64
7, 43872, Note_off_c, 5, 61, 64
7, 43872, Note_off_c, 5, 61, 64
7, 43872, Note_off_c, 5, 61, 64
7, 43904, Note_off_c, 78, 64
7, 43968, Note_off_c, 5, 61, 64
7, 43968, Note_on_c, 5, 61, 96
7, 43968, Note_on_c, 5, 61, 64
7, 44032, Note_off_c, 5, 61, 64
7, 44160, Note_on_c, 5, 61, 64
7, 44352, Note_on_c, 5, 61, 96
7, 44352, Note_on_c, 5, 61, 110
7, 44448, Note_on_c, 5, 61, 110
7, 44448, Note_off_c, 5, 61, 64
7, 44448, Note_off_c, 5, 61, 64
7, 44448, Note_off_c, 5, 61, 64
7, 44448, Note_off_c, 5, 61, 64
7, 44544, Note_off_c, 5, 61, 64
7, 44640, Note_off_c, 5, 61, 64
7, 44640, Note_off_c, 5, 61, 64
7, 44672, Note_off_c, 4, 42, 64
7, 44736, Note_on_c, 5, 61, 110
7, 44928, Note_on_c, 5, 61, 110
7, 44960, Note_on_c, 5, 61, 110
7, 45104, Note_on_c, 5, 61, 110
7, 45104, Note_on_c, 9, 44, 64
7, 45120, Note_on_c, 5, 61, 110
7, 45120, Note_off_c, 5, 61, 64
7, 45216, Note_off_c, 5, 61, 64
7, 45312, Note_off_c, 5, 61, 64
7, 45312, Note_on_c, 5, 61, 110
7, 45392, Note_on_c, 5, 61, 64
7, 45408, Note_on_c, 5, 61, 110
7, 45888, Note_off_c, 5, 59, 64
7, 45888, Note_off_c, 5, 61, 64
7, 45984, Note_off_c, 5, 61, 64
7, 45984, Note_off_c, 5, 61, 64
7, 46080, Program_c, 5, 81
7, 46080, Control_c, 5, 7, 90
7, 46080, Note_on_c, 5, 61, 96
7, 46080, Program_c, 5, 81
7, 46080, Control_c, 5, 7, 90
7, 46080, Control_c, 5, 7, 94
7, 46272, Note_on_c, 5, 61, 96
7, 46272, Note_on_c, 5, 61, 96
7, 46272, Note_on_c, 5, 61, 64
7, 46432, Note_off_c, 4, 64, Note_off_c, 8, 76, 64
7, 46464, Note_off_c, 5, 61, 64
7, 46464, Note_off_c, 5, 61, 64
7, 46464, Note_off_c, 4, 40, 64
7, 46464, Note_off_c, 5, 59, 64
7, 46560, Note_off_c, 5, 61, 64
7, 46560, Note_off_c, 5, 61, 64
7, 46560, Control_c, 5, 7, 90
7, 46656, Note_on_c, 5, 61, 96
7, 46688, Note_off_c, 5, 61, 64
7, 46752, Note_off_c, 5, 61, 64
7, 46832, Note_off_c, 5, 61, 64
7, 46848, Note_on_c, 5, 61, 110
7, 46848, Note_on_c, 5, 61, 96
7, 46848, Note_on_c, 5, 61, 96
7, 46872, Note_off_c, 5, 61, 64
7, 46880, Note_off_c, 5, 61, 64
7, 46944, Note_on_c, 5, 61, 96
7, 47040, Note_off_c, 5, 61, 64
7, 47136, Note_off_c, 5, 61, 64
7, 47232, Note_on_c, 5, 61, 64
7, 47232, Note_on_c, 5, 59, 96
7, 47424, Note_on_c, 5, 61, 96
7, 47520, Note_off_c, 5, 61, 64
7, 47616, Note_on_c, 5, 61, 96
7, 47616, Note_on_c, 5, 61, 64
7, 47696, Note_off_c, 5, 61, 64
7, 47712, Note_off_c, 5, 61, 64
7, 47808, Note_on_c, 5, 61, 96
7, 47808, Note_off_c, 5, 61, 64
7, 47808, Note_off_c, 5, 59, 64
7, 47808, Note_off_c, 4, 116736, Note_off_c, 9, 44, 64
7, 47904, Note_on_c, 5, 61, 96
7, 47904, Note_on_c, 5, 61, 96
7, 47936, Note_off_c, 5, 61, 64
7, 48192, Note_on_c, 5, 61, 96
7, 49344, Note_on_c, 5, 638672, Note_on_c, 3, 42, 110
7, 49536, Note_off_c, 5, 63, 64
7, 49600, Note_off_c, 5, 63, 64
7, 49728, Control_c, 5, 7, 91
7, 49824, Note_on_c, 5, 63, 64
7, 49856, Note_on_c, 5, 61, 64
7, 49920, Note_on_c, 5, 63, 110
7, 50880, Note_off_c, 4, 64
7, 53376, Note_on_c, 5, 63, 110
7, 73344, Note_on_c, 5, 69, 110
7, 79168, Note_on_c, 5, 61, 110
7, 79312, Note_on_c, 5, 75, 110
7, 79392, Note_off_c, 5, 61, 64
7, 79488, Note_off_c, 5, 61, 64
7, 79520, Note_on_c, 5, 78, 110
7, 80064, Note_on_c, 5, 59, 110
7, 80320, Note_on_c, 5, 61, 96
7, 80640, Note_off_c, 5, 61, 64
7, 81024, Note_on_c, 5, 59, 110
7, 81024, Note_on_c, 5, 59, 96
7, 81120, Note_off_c, 5, 61, 64
7, 81312, Note_on_c, 5, 61, 110
7, 81408, Note_off_c, 5, 61, 64
7, 82272, Note_off_c, 5, 61, 64
7, 82944, Note_on_c, 5, 61, 64
7, 82944, Note_on_c, 5, 61, 110
7, 83040, Note_off_c, 5, 61, 64
7, 84000, Note_off_c, 5, 61, 64
7, 84096, Note_off_c, 5, 59, 64
7, 84096, Note_on_c, 5, 61, 96
7, 84096, Note_on_c, 5, 61, 64
7, 84096, Note_on_c, 5, 61, 110
7, 84672, Note_off_c, 5, 61, 64
7, 84676, Note_off_c, 5, 61, 64
7, 84960, Note_on_c, 5, 61, 96
7, 85344, Note_off_c, 5, 61, 64
7, 85424, Note_off_c, 5, 61, 64
7, 85440
7, 85440, Note_off_c, 5, 61, 64
7, 85440, Note_on_c, 5, 59, 110
7, 85440, Note_off_c, 5, 61, 64
7, 85440, Note_on_c, 5, 61, 96
7, 85440, Note_on_c, 5, 61, 110
7, 85456, Control_c, 5, 7, 90
7, 85632, Note_on_c, 5, 76, 96
7, 85824, Note_on_c, 5, 59, 96
7, 85824, Note_on_c, 5, 99, 110
7, 85824, Note_on_c, Note_on_c, 5, 59, 110
7, 85920, Note_off_c, 5, 59, 64
7, 86016, Note_on_c, 5, 59, 96
7, 86400, Note_on_c, 5, 85, 112
7, 89184, Note_off_c, 5, 59, 64
7, 89376, Note_off_c, 5, 61, 64
7, 89440, Note_off_c, 5, 59, 64
7, 89472, Note_off_c, 5, 59, 64
7, 89488, Note_off_c, 5, 61, 64
7, 89664, Note_on_c, 5, 59, 110
7, 89760, Note_on_c, 5, 85, 112
7, 90816, Note_off_c, 5, 76, 64
7, 91488, Note_on_c, 5, 61, 110
7, 91584, Note_on_c, 10
7, 92736, Note_off_c, 5, 59, 64
7, 93408, Note_off_c, 5, 59, 64
7, 93600, Note_off_c, 4, 42, 64
7, 93888, Note_off_c, 5, 59, 64
7, 94080, Note_on_c, 5, 59, 110
7, 94080, Note_off_c, 5, 59, 64
7, 94272, Note_off_c, 5, 59, 64
7, 94464, Note_on_c, 5, 59, 110
7, 94560, Note_off_c, 5, 59, 64
7, 94656, Note_off_c, 5, 59, 64
7, 94656, Note_on_c, 5, 59, 96
7, 94656, Note_on_c, 5, 59, 96
7, 94656, Note_off_c, 5, 61, 64
7, 94752, Note_off_c, 3, 40, 64
7, 94848, Note_on_c, 5, 59, 110
7, 94848, Note_on_c, 5, 76, 110
7, 94944, Note_off_c, 3, 40, 64
7, 95232, Control_c, 5, 7, 90
7, 95232, Control_c, 5, 7, 31
7, 95264, Control_c, 5, 7, 100
7, 95424, Note_on_c, 5, 76, 110
7, 95424, Note_off_c, 5, 75, 64
7, 95808, Note_on_c, 5, 68, 80
7, 95808, Note_off_c, 5, 73, 64
7, 95840, Note_off_c, 5, 75, 64
7, 96384, Note_on_c, 5, 76, 110
7, 96384, Note_on_c, 5, 76, 110
7, 96384, Note_off_c, 5, 75, 64
7, 96576, Note_off_c, 5, 75, 64
7, 97152, Note_on_c, 5, 76, 110
7, 97152, Note_off_c, 5, 76, 64
7, 97344, Note_off_c, 5, 76, 64
7, 97344, Note_off_c, 5, 76, 64
7, 97536, Note_on_c, 5, 76, 110
7, 97536, Note_on_c, 5, 75, 110
7, 97632, Note_on_c, 5, 76, 110
7, 98304, Note_off_c, 5, 76, 64
7, 98304, Note_off_c, 5, 78, 64
7, 98496, Note_on_c, 5, 75, 110
7, 99264, Note_on_c, 5, 59, 110
7, 99456, Note_off_c, 5, 76, 64
7, 99456, Note_off_c, 5, 76, 64
7, 99456, Note_off_c, 5, 71, 64
7, 99456, Note_on_c, 5, 76, 110
7, 99456, Note_on_c, 5, 76, 110
7, 99456, Note_on_c, 5, 75, 110
7, 103680, Note_on_c, 5, 68, 72
7, 103680, Note_on_c, 5, 76, 64
7, 103872, Note_off_c, 5, 78, 64
7, 104064, Note_off_c, 5, 59, 64
7, 105664, Note_off_c, 5, 80, 64
7, 106752, Note_off_c, 5, 76, 64
7, 106944, Note_on_c, 5, 73, 80
7, 107328, Note_off_c, 5, 81, 64
7, 107328, Note_on_c, 5, 59, 64
7, 107520, Control_c, 0, 78992, Note_off_c, 9, 36, 64
7, 107904, Note_off_c, 5, 61, 64
7, 109024, Note_on_c, 5, 85, 112
7, 109152, Note_on_c, 5, 80, 120
7, 110208, Note_on_c, 5, 76, 88
7, 110592, Note_off_c, 5, 75, 64
7, 110592, Note_on_c, 5, 78, 88
7, 112416, Note_off_c, 5, 68, 64
7, 113056, Note_off_c, 5, 61, 64
7, 113664, Note_on_c, 5, 61, 110
7, 113664, Program_c, 5, 81
7, 114240, Note_off_c, 5, 61, 64
7, 114240, Note_on_c, 5, 61, 110
7, 114432, Note_on_c, 5, 61, 110
7, 114432, Note_off_c, 5, 61, 64
7, 114432, Note_on_c, 5, 61, 96
7, 114810, Control_c, 6, 7, 60
7, 115008, Note_off_c, 5, 61, 64
7, 115104, Note_off_c, 5, 61, 64
7, 115392, Note_on_c, 5, 61, 96
7, 115392, Note_on_c, 5, 61, 64
7, 115488, Note_on_c, 5, 61, 96
7, 115584, Note_off_c, 5, 61, 64
7, 115584, Note_on_c, 5, 61, 96
7, 115776, Note_on_c, 5, 61, 64
7, 115808, Note_on_c, 5, 61, 64
7, 115968, Note_off_c, 5, 61, 64
7, 115968, Note_on_c, 5, 61, 96
7, 116160, Note_off_c, 5, 61, 64
7, 116160, Note_on_c, 5, 61, 96
7, 117120, Note_on_c, 5, 61, 96
7, 117120, Note_on_c, 5, 61, 110
7, 117312, Note_on_c, 5, 61, 96
7, 117808, Note_off_c, 5, 61, 64
7, 118464, Note_off_c, 5, 61, 64
7, 118752, 207648, Note_off_c, 9, 38, 64
7, 119040, Note_off_c, 5, 61, 64
7, 119424, Note_on_c, 5, 61, 64
7, 119424, Note_off_c, 5, 61, 64
7, 120000, Note_on_c, 5, 61, 96
7, 120064, Note_on_c, 5, 59, 96
7, 120384, Note_off_c, Control_c, 3, 7, 100
7, 120480, Note_off_c, 5, 61, 64
7, 120576, Note_off_c, 5, 61, 64
7, 120960, Note_on_c, 5, 61, 64
7, 121344, Note_on_c, 5, 59, 96
7, 121440, Note_off_c, 5, 59, 64
7, 122400, Note_on_c, 3, 37, 110
7, 122400, Note_off_c, 5, 59, 64
7, 122496, Note_on_c, 3, 38, 110
7, 122496, Note_on_c, 5, 59, 64
7, 122592, Note_on_c, 5, 61, 110
7, 123136, Note_off_c, 5, 61, 64
7, 123168, Note_on_c, 5, 61, 110
7, 123168, Note_off_c, 5, 61, 64
7, 123232, Note_off_c, 5, 61, 64
7, 123248, Note_off_c, 5, 61, 64
7, 123248, Note_off_c, 5, 61, 64
7, 123248, Note_on_c, 5, 61, 110
7, 123264, Note_off_c, 5, 61, 64
7, 123264, Note_off_c, 5, 61, 64
7, 123360, Note_off_c, 5, 61, 64
7, 123392, Note_off_c, 5, 61, 64
7, 123456, Note_on_c, 5, 61, 110
7, 123456, Note_on_c, 5, 61, 110
7, 123456, Note_on_c, 5, 61, 110
7, 123456, Note_on_c, 5, 61, 110
7, 123456, Note_on_c, 5, 61, 110
7, 123456, Note_on_c, 5, 61, 110
7, 123456, Note_on_c, 5, 61, 110
7, 123456, Note_on_c, 5, 61, 64
7, 123456, Note_off_c, 5, 61, 64
7, 123456, Note_on_c, 5, 61, 96
7, 123456, Note_on_c, 5, 61, 110
7, 123456, Note_on_c, 5, 61, 110
7, 123456, Control_c, 5, 7, 90
7, 123456, Note_on_c, 5, 61, 110
7, 123456, Note_on_c, 5, 61, 110
7, 123456, Note_on_c, 5, 2, 61, 64
7, 123456, Note_on_c, 5, 61, 96
7, 123456, Note_on_c, 5, 61, 110
7, 123456, Note_on_c, 5, 61, 64
7, 123456, Note_on_c, 5, 61, 110
7, 123456, Note_on_c, 5, 61, 110
7, 123456, Note_on_c, 5, 61, 64
7, 123552, Note_off_c, 5, 61, 64
7, 123552, Note_off_c, 5, 61, 64
7, 123552, Note_off_c, 5, 61, 64
7, 123648, Note_off_c, 5, 61, 64
7, 123744, Note_off_c, 5, 61, 64
7, 123840, Note_off_c, 5, 61, 64
7, 123840, Note_off_c, 5, 61, 64
7, 123856, Note_off_c, 5, 61, 64
7, 123872, Note_on_c, 5, 61, 110
7, 123936, Note_off_c, 5, 61, 64
7, 123936, Note_off_c, 5, 61, 64
7, 123936, Note_on_c, 2, 61, 70
7, 123936, Note_off_c, 5, 61, 64
7, 123936, Note_off_c, 5, 61, 64
7, 123936, Note_off_c, 5, 61, 64
7, 123936, Note_off_c, 5, 61, 64
7, 123968, Note_off_c, 5, 61, 64
7, 123968, Note_off_c, 5, 61, 64
7, 124032, Note_off_c, 5, 61, 64
7, 124128, Note_off_c, 5, 61, 64
7, 124128, Note_on_c, 5, 61, 96
7, 124256, Note_off_c, 5, 59, 64
7, 124256, Note_off_c, 5, 61, 64
7, 124320, Note_off_c, 5, 61, 64
7, 124320, Note_off_c, 5, 61, 64
7, 124320, Note_off_c, 5, 61, 64
7, 124416, Note_on_c, 5, 61, 96
7, 124416, Note_off_c, 5, 61, 64
7, 124800, Note_on_c, 5, 61, 110
7, 124800, Note_on_c, 5, 61, 64
7, 124800, Note_on_c, 5, 61, 110
7, 124800, Note_off_c, 5, 61, 64
7, 124800, Note_on_c, 5, 61, 110
7, 124800, Note_off_c, 5, 61, 64
7, 124896, Note_off_c, 5, 61, 64
7, 124912, Note_on_c, 5, 61, 96
7, 124992, Note_off_c, 5, 61, 64
7, 125088, Note_on_c, 5, 61, 110
7, 125184, Note_on_c, 5, 61, 110
7, 125184, Note_on_c, 5, 61, 110
7, 125184, Note_on_c, 5, 61, 110
7, 125184, Note_on_c, 5, 61, 110
7, 125760, Note_off_c, 5, 61, 64
7, 125760, Note_on_c, 5, 61, 110
7, 126048, Note_off_c, 5, 61, 64
7, 126144, Note_on_c, 5, 61, 96
7, 126144, Note_on_c, 5, 59, 64
7, 126144, Note_on_c, 5, 61, 64
7, 126240, Note_off_c, 5, 61, 64
7, 126336, Note_on_c, 5, 61, 96
7, 126336, Note_on_c, 5, 61, 110
7, 126336, Note_on_c, 5, 61, 110
7, 126336, Note_off_c, 5, 61, 64
7, 126432, Note_off_c, 5, 61, 64
7, 126512, Note_off_c, 5, 61, 64
7, 126528, Note_on_c, 5, 61, 110
7, 126656, Note_off_c, 5, 59, 64
7, 126720, Note_off_c, 5, 61, 64
7, 126736, Note_off_c, 5, 61, 64
7, 126912, Note_off_c, 5, 61, 64
7, 126912, Note_off_c, 5, 61, 64
7, 127024, Note_off_c, 5, 61, 64
7, 127104, Note_off_c, 5, 59, 64
7, 127296, Note_on_c, 5, 61, 96
7, 127296, Note_on_c, 5, 61, 64
7, 127392, Note_off_c, 5, 61, 64
7, 127776, Note_off_c, 5, 61, 64
7, 127776, Note_off_c, 5, 61, 64
7, 127808, Note_off_c, 5, 61, 64
7, 127904, Note_off_c, 5, 61, 64
7, 127968, Note_on_c, 5, 61, 96
7, 128256, Note_on_c, 5, 61, Note_on_c, 7, 73, 73
7, 128256, Note_on_c, 5, 61, 110
7, 128416, Note_off_c, 5, 61, 64
7, 128640, Note_on_c, 5, 61, 96
7, 128832, Note_on_c, 5, 61, 110
7, 129472, Note_on_c, 5, 59, 64
7, 129600, Control_c, 5, 7, 90
7, 129792, Note_on_c, 5, 59, 96
7, 130144, Note_off_c, 5, 61, 64
7, 130144, Note_off_c, 5, 59, 64
7, 130176, Note_on_c, 5, 59, 96
7, 130464, Note_off_c, 5, 59, 64
7, 130752, Note_on_c, 5, 59, 96
7, 130752, Note_on_c, 5, 61, 96
7, 131040, Note_off_c, 5, 59, 64
7, 131136, Note_on_c, 5, 59, 110
7, 131136, Note_on_c, 5, 61, 96
7, 131136, Note_off_c, 5, 59, 64
7, 131232, Note_off_c, 5, 59, 64
7, 131520, Note_off_c, 5, 59, 64
7, 131712, Note_on_c, 5, 59, 64
7, 131712, Note_on_c, 5, 59, 64
7, 132000, Note_off_c, 5, 59, 64
7, 132096, Note_on_c, 5, 59, 110
7, 132096, Note_on_c, 5, 61, 110
7, 132096, Note_on_c, 5, 59, 110
7, 132288, Note_off_c, 5, 59, 64
7, 132368, Note_on_c, 5, 59, 96
7, 132672, Note_off_c, 5, 59, 64
7, 132864, Note_on_c, 5, 59, 110
7, 133056, Note_on_c, 5, 59, 64
7, 133152, Note_off_c, 5, 59, 64
7, 133152, Note_on_c, 5, 61, 110
7, 133216, Note_on_c, Note_on_c, 6, 68, 110
7, 133248, Note_on_c, 5, 59, 110
7, 133248, Note_on_c, 5, 61, 6312, Note_off_c, 3, 28, 64
7, 133344, Note_off_c, 5, 59, 64
7, 133376, Note_off_c, 5, 59, 64
7, 133440, Note_on_c, 5, 61, 110
7, 133536, Note_off_c, 5, 61, 64
7, 133536, Note_off_c, 5, 59, 64
7, 133536, Note_off_c, 5, 59, 64
7, 133632, Note_on_c, 5, 59, 110
7, 133632, Note_on_c, 5, 59, 110
7, 133824, Note_on_c, 5, 59, 110
7, 134112, Note_on_c, 5, 59, 110
7, 134304, Note_off_c, 5, 59, 64
7, 134400, Note_on_c, 5, 59, 64
7, 134432, Note_off_c, 5, 59, 64
7, 134496, Note_off_c, 5, 59, 64
7, 134592, Note_on_c, 5, 59, 4
7, 134784, Note_on_c, 5, 59, 96
7, 134784, Note_off_c, 5, 59, 64
7, 134976, Note_off_c, 5, 59, 64
7, 135072, Note_off_c, 5, 59, 64
7, 135168, Program_c, 2, 60
7, 135168, Control_c, 5, 7, 90
7, 135168, Control_c, 5, 7, 90
7, 135168, Note_on_c, 5, 61, 110
7, 135168, Program_c, 4, 37
7, 135168, Note_on_c, 2, 54, 70
7, 135168, Program_c, 5, 81
7, 135168, Control_c, 5, 7, 90
7, 135264, Note_off_c, 5, 59, 64
7, 135360, Note_off_c, 5, 61, 64
7, 135392, Note_on_c, 5, 61, 110
7, 135456, Note_off_c, 5, 61, 64
7, 135456, Note_off_c, 5, 61, 64
7, 135648, Note_off_c, 5, 59, 64
7, 135936, Note_on_c, 5, 61, 110
7, 135936, Note_on_c, 5, 61, 110
7, 135968, Note_on_c, 222112, Note_off_c, 1, 73, 64
7, 135968, Note_on_c, 4, 36, 110
7, 136224, Note_on_c, 2, 52, 70
7, 136224, Note_on_c, 5, 61, 110
7, 136320, Note_off_c, 5, 61, 64
7, 136320, Note_off_c, 5, 61, 64
7, 136320, Note_on_c, 5, 61, 96
7, 136320, Note_off_c, 5, 61, 64
7, 136320, Note_on_c, 5, 61, 110
7, 136320, Note_off_c, 5, 61, 64
7, 136320, Note_off_c, 5, 61, 64
7, 136416, Note_off_c, 5, 61, 64
7, 136416, Note_off_c, 5, 61, 64
7, 136512, Note_on_c, 5, 61, 110
7, 136512, Note_on_c, 5, 61, 110
7, 136512, Note_off_c, 61, 96
7, 136608, Note_off_c, 5, 61, 64
7, 136896, Note_off_c, 5, 61, 64
7, 136960, Note_off_c, 5, 61, 64
7, 136992, Note_off_c, 5, 61, 64
7, 136992, Note_on_c, 5, 61, 110
7, 137088, Note_on_c, 5, 61, 110
7, 137472, Note_on_c, 5, 59, 110
7, 137984, Note_off_c, 5, 61, 64
7, 138016, Note_off_c, 5, 61, 64
7, 138048, Note_off_c, 5, 59, 64
7, 138144, Note_off_c, 5, 61, 64
7, 138240, Note_off_c, 5, 61, 64
7, 138336, Note_off_c, 5, 61, 64
7, 138492, Note_on_c, 9, 36, 110
7, 138912, Note_off_c, 5, 61, 64
7, 139424, Note_off_c, 5, 61, 64
7, 139488, Note_off_c, 5, 61, 64
7, 139488, Note_off_c, 5, 61, 64
7, 139488, Note_off_c, 5, 61, 64
7, 139504, Note_on_c, 5, 61, 96
7, 139680, Note_on_c, 5, 59, 110
7, 139776, Note_on_c, 5, 61, 110
7, 139776, Note_on_c, 5, 61, 110
7, 139872, Note_on_c, 5, 61, 110
7, 139904, Note_on_c, 5, 61, 96
7, 139968, Note_on_c, 5, 61, 110
7, 140256, Note_off_c, 5, 61, 64
7, 140256, Note_off_c, 5, 61, 64
7, 140256, Note_off_c, 2, 54, 64
7, 140448, Note_off_c, 5, 61, 64
7, 140928, Note_on_c, 5, 61, 110
7, 141120, Note_off_c, 5, 61, 64
7, 141120, Note_on_c, 5, 61, 110
7, 141120, Note_on_c, 5, 61, 110
7, 141216, Note_off_c, 5, 61, 64
7, 141216, Note_off_c, 5, 61, 64
7, 141311, 106752, Note_off_c, 10, 78, 64
7, 141392, Note_on_c, 5, 61, 110
7, 141504, Note_on_c, 5, 61, 96
7, 141696, Note_on_c, 5, 61, 64
7, 142016, Note_off_c, 5, 61, 64
7, 142080, Note_on_c, 5, 61, 110
7, 142240, Note_on_c, 5, 61, 110
7, 142272, Note_on_c, 5, 61, 110
7, 142368, Note_on_c, 5, 61, 110
7, 142464, Note_on_c, 5, 59, 64
7, 142560, Note_on_c, 5, 59, 64
7, 142656, Note_on_c, 5, 61, 96
7, 142656, Note_on_c, 5, 61, 96
7, 142848, Note_off_c, 5, 61, 64
7, 142848, Note_on_c, 5, 61, 110
7, 142944, Note_off_c, 5, 61, 64
7, 143104, Note_off_c, 5, 61, 64
7, 143136, Note_off_c, 2, 52, 64
7, 143392, Note_off_c, 5, 61, 64
7, 143616, Note_off_c, 5, 63, 64
7, 143712, Note_off_c, 5, 59, 64
7, 143808, Note_on_c, 5, 61, 7, 75, 110
7, 143904, Note_off_c, 5, 61, 64
7, 143904, Note_off_c, 5, 61, 64
7, 144576, Note_off_c, 5, 63, 64
7, 145120, Note_on_c, 5, 61, 64
7, 145120, Note_on_c, 5, 63, 96
7, 145152, Note_off_c, 5, 63, 64
7, 145152, Note_on_c, 5, 63, 110
7, 145152, Note_off_c, 5, 63, 64
7, 145152, Note_on_c, 5, 63, 64
7, 145344, Note_on_c, 5, 61, 64
7, 145440, Note_off_c, 5, 63, 64
7, 145440, Note_on_c, 5, 61, 110
7, 145536, Note_on_c, 5, 63, 64
7, 145632, Note_on_c, 5, 61, 110
7, 145728, Note_on_c, 5, 63, 110
7, 145824, Note_on_c, 5, 63, 64
7, 145920, Note_on_c, 5, 61, 110
7, 145920, Note_off_c, 5, 63, 64
7, 145920, Note_off_c, 5, 63, 64
7, 146112, Note_on_c, 5, 61, 110
7, 146112, Note_off_c, 5, 63, 64
7, 146112, Note_on_c, 5, 61, 96
7, 146176, Note_off_c, 5, 61, 64
7, 146976, Note_off_c, 5, 63, 64
7, 147360, Note_off_c, 5, 63, 64
7, 147360, Note_on_c, 5, 59, 110
7, 148128, Note_on_c, 5, 63, 110
7, 148608, Note_on_c, 5, 61, 110
7, 149184, Note_on_c, 5, 61, 110
7, 149472, Note_off_c, 5, 69, 64
7, 155328, Note_on_c, 5, 61, 110
7, 157152, Note_on_c, 5, 61, 64
7, 175392, Note_on_c, 5, 61, 64
7, 175488, Note_off_c, 5, 61, 64
7, 175776, Note_off_c, 5, 61, 64
7, 184320, Note_off_c, 5, 59, 64
7, 185280, Note_on_c, 3, 35, 110
7, 185280, Note_on_c, 5, 59, 96
7, 185472, Note_off_c, 5, 59, 64
7, 186432, Note_off_c, 5, 59, 64
7, 187584, Note_on_c, 5, 59, 964
7, 188768, Note_on_c, 5, 89, 64
7, 193248, Control_c, 0, 7, 70
7, 193728, Note_off_c, 5, 7120, 19
7, 194112, Note_on_c, 5, 75, 110
7, 194112, Note_off_c, 5, 73, 64
7, 194112, Note_off_c, 5, 76, 64
7, 194112, Note_on_c, 5, 59, 110
7, 194112, Note_off_c, 5, 76, 64
7, 194304, Note_on_c, 5, 76, 110
7, 194304, Note_on_c, 5, 75, 110
7, 194304, Note_off_c, 5, 75, 64
7, 194304, Note_on_c, 5, 75, 110
7, 194304, Note_off_c, 5, 71, 64
7, 194304, Note_on_c, 5, 75, 110
7, 194304, Note_off_c, 5, 75, 64
7, 194688, Note_on_c, 5, 75, 110
7, 194880, Note_on_c, 5, 71, 110
7, 195168, Note_on_c, 5, 76, 110
7, 195456, Note_off_c, 5, 78, 64
7, 195648, Note_off_c, 5, 78, 64
7, 195648, Note_off_c, 5, 78, 64
7, 195648, Note_off_c, 5, 76, 64
7, 195808, Note_on_c, 5, 75, 110
7, 195840, Note_on_c, 5, 76, 110
7, 196544, Note_off_c, 5, 75, 64
7, 198336, Note_off_c, 5, 83, 64
7, 199424, Note_on_c, 5, 76, 78
7, 199680, Note_off_c, 5, 85, 64
7, 201312, Note_on_c, 5, 78, 110
7, 201408, Note_on_c, 5, 85, 112
7, 201408, Note_off_c, 5, 90, 64
7, 201472, Note_on_c, 5, 61, 110
7, 201600, Note_on_c, 5, 78, 96
7, 201984, Note_off_c, 5, 78, 64
7, 202368, Note_on_c, 5, 75, 88
7, 202368, Note_on_c, 5, 76, 96
7, 202368, Note_off_c, 5, 73, 64
7, 202400, Note_on_c, 5, 64, 72
7, 202560, Note_on_c, 5, 68, 80
7, 202560, Note_off_c, 5, 73, 64
7, 202752, Note_on_c, 5, 76, 88
7, 202752, Note_off_c, 5, 76, 64
7, 202752, Note_off_c, 5, 85, 64
7, 204480, Note_off_c, 5, 88, 64
7, 204480, Note_on_c, 5, 76, 110
7, 204640, Note_on_c, 5, 85, 111
7, 204672, Note_off_c, 5, 83, 5972, Note_off_c, 9, 44, 64
7, 204864, Note_on_c, 5, 78, 96
7, 205056, Note_on_c, 5, 78, 96
7, 205056, Note_off_c, 5, 78, 64
7, 205248, Note_off_c, 5, 78, 645, 75, 110
7, 205248, Note_on_c, 5, 76, 110
7, 205248, Note_on_c, 5, 76, 110
7, 205440, Note_on_c, 5, 80, 104
7, 205440, Note_off_c, 5, 76, 64
7, 205440, Note_off_c, 5, 76, 64
7, 205632, Note_off_c, 5, 85, 64
7, 205632, Note_off_c, 5, 76, 64
7, 205632, Note_off_c, 5, 76, 64
7, 207520, Note_on_c, 5, 76, 6"
7, 207552, Note_on_c, 5, 76, 88
7, 207744, Note_on_c, 5, 85, 112
7, 207760, Note_off_c, 5, 90, 64
7, 207776, Note_off_c, 5, 90, 64
7, 208128, Note_off_c, 5, 78, 64
7, 208192, Note_off_c, 5, 76, 64
7, 208512, Note_on_c, 5, 90, 120
7, 208608, Note_off_c, 5, 88, 64
7, 209088, Note_on_c, 5, 59, 96
7, 209472, Note_off_c, 5, 59, 64
7, 210624, Note_off_c, 5, 61, 64
7, 210816, Note_on_c, 5, 61, 64
7, 210816, Note_off_c, 5, 76, 64
7, 211200, Note_on_c, 5, 61, 110
7, 211200, Note_off_c, 5, 61, 64
7, 211392, Note_off_c, 9, 53, 64
7, 211424, Note_off_c, 5, 61, 64
7, 211776, Note_on_c, 5, 61, 96
7, 211776, Note_on_c, 5, 61, 110
7, 212352, Note_off_c, 5, 61, 64
7, 212352, Note_on_c, 5, 61, 96
7, 213024, Note_on_c, 5, 61, 110
7, 213024, Note_off_c, 5, 61, 64
7, 213024, Note_off_c, 5, 61, 64
7, 213120, Note_on_c, 5, 61, 110
7, 213408, Note_off_c, 5, 61, 64
7, 213504, Note_on_c, 5, 61, 110
7, 213696, Note_off_c, 5, 61, 64
7, 213696, Note_on_c, 5, 61, 96
7, 213792, Note_off_c, 5, 61, 64
7, 214304, Note_off_c, 5, 61, 64
7, 214368, Note_off_c, 5, 61, 64
7, 214464, Note_on_c, 5, 61, 110
7, 214656, Note_on_c, 5, 61, 110
7, 214752, Note_off_c, 5, 61, 64
7, 215040, Note_on_c, 5, 61, 110
7, 215040, Note_off_c, 5, 61, 64
7, 215232, Note_on_c, 5, 61, 96
7, 215328, Note_off_c, 5, 61, 64
7, 215424, Note_off_c, 5, 61, 64
7, 215520, Note_off_c, 5, 61, 64
7, 215520, Note_on_c, 5, 61, 64
7, 215712, Note_on_c, 5, 61, 110
7, 217214, Note_on_c, 0, 88, 64
7, 218112, Program_c, 5, 81
7, 218496, Note_on_c, 5, 61, 64
7, 218496, Note_off_c, 5, 59, 64
7, 218880, Note_on_c, 5, 59, 110
7, 219136, Note_off_c, 5, 61, 64
7, 219264, Note_on_c, 5, 61, 110
7, 219648, Note_on_c, 5, 61, 64
7, 220032, Control_c, 5, 7, 91880, Note_on_c, 9, 36, 110
7, 220032, Note_off_c, 5, 59, 64
7, 220608, Note_on_c, 5, 61, 64
7, 221184, Note_on_c, 5, 61, 64
7, 221184, Note_on_c, 5, 61, 64
7, 221184, Note_on_c, 5, 61, 96
7, 221376, Control_c, 5, 7, 64
7, 222144, Note_on_c, 5, 61, 110
7, 222624, Note_off_c, 5, 61, 64
7, 222720, Note_on_c, 5, 61, 110
7, 223296, Note_on_c, 5, 61, 64
7, 223376, Note_off_c, 5, 61, 64
7, 223392, Note_off_c, 59, 64
7, 223520, Note_off_c, 5, 61, 64
7, 223680, Note_on_c, 5, 61, 64
7, 223680, Note_off_c, 5, 61, 64
7, 223776, Note_off_c, 5, 61, 64
7, 224064, Note_off_c, 5, 61, 64
7, 224448, Note_on_c, 5, 59, 110
7, 224928, Control_c, 5, 7, 90
7, 224928, Control_c, 5, 7, 95
7, 224928, Control_c, 9, 7, 80
7, 225024, Note_on_c, 5, 59, 64
7, 225024, Control_c, 5, 7, 85
7, 225408, Note_on_c, 5, 59, 110
7, 225408, Control_c, 5, 7, 80
7, 225472, Control_c, 5, 7, 85
7, 225600, Note_off_c, 5, 59, 64
7, 225792, Control_c, 5, 7, 85
7, 225888, Note_on_c, 5, 59, 110
7, 225984, Note_off_c, 5, 59, 64
7, 225984, Note_off_c, 5, 59, 64
7, 225984, Note_on_c, 5, 59, 96
7, 226688, Control_c, 5, 7, 76, 7, 67
7, 226944, Note_on_c, 5, 59, 96
7, 227040, Control_c, 5, 7, 69
7, 227136, Note_on_c, 5, 61, 96
7, 227136, Note_on_c, 5, 59, 110
7, 227328, Note_off_c, 5, 59, 64
7, 227328, Note_on_c, 5, 59, 110
7, 227328, Note_on_c, 5, 59, 110
7, 227424, Note_off_c, 5, 59, 64
7, 227616, Note_on_c, 5, 59, 64
7, 227616, Control_c, 5, 7, 73
7, 227616, Control_c, 5, 7, 71
7, 227904, Note_on_c, 5, 59, 64
7, 227904, Note_on_c, 5, 59, 64
7, 228000, Control_c, 5, 7, 69
7, 228000, Control_c, 5, 7, 78
7, 228000, Note_off_c, 5, 59, 64
7, 228000, Control_c, 5, 7, 75
7, 228096, Note_on_c, 5, 59, 96
7, 228192, Note_off_c, 5, 59, 64
7, 228192, Note_off_c, 5, 59, 64
7, 228192, Note_off_c, 5, 59, 64
7, 228288, Control_c, 5, 7, 64
7, 228384, Note_off_c, 5, 59, 64
7, 228480, Control_c, 5, 7, 66
7, 228576, Note_off_c, 5, 59, 64
7, 228672, Control_c, 5, 7, 79
7, 228672, Note_on_c, 5, 59, 110
7, 228672, Control_c, 5, 7, 69
7, 228672, Note_on_c, 5, 59, 110
7, 228672, Control_c, 5, 7, 69
7, 228768, Note_off_c, 5, 59, 64
7, 228864, Control_c, 5, 7, 69
7, 228864, Note_on_c, 5, 59, 110
7, 228960, Note_off_c, 5, 59, 64
7, 229024, Note_off_c, 5, 59, 64
7, 229056, Note_on_c, 5, 61, 96
7, 229056, Note_on_c, 5, 59, 110
7, 229056, Control_c, 5, 7, 62
7, 229152, Note_off_c, 5, 59, 64
7, 229248, Note_on_c, 5, 59, 110
7, 229248, Control_c, 5, 7, 68
7, 229248, Control_c, 5, 7, 64
7, 229344, Note_off_c, 5, 59, 64
7, 229344, Control_c, 5, 7, 78
7, 229344, Control_c, 5, 7, 61
7, 229344, Note_off_c, 5, 59, 64
7, 229344, Note_off_c, 5, 59, 64
7, 229440, Note_on_c, 5, 59, 110
7, 229440, Note_off_c, 5, 59, 64
7, 229536, Note_off_c, 5, 59, 64
7, 229536, Note_off_c, 5, 59, 64
7, 229632, Note_on_c, 5, 59, 64
7, 229632, Note_on_c, 5, 59, 110
7, 229728, Control_c, 5, 7, 75
7, 229728, Note_on_c, 5, 59, 110
7, 229824, Control_c, 5, 7, 84
7, 230112, Note_off_c, 5, 59, 64
7, 230112, Note_on_c, 5, 59, 64
7, 230208, Note_off_c, 5, 59, 64
7, 230304, Control_c, 5, 7, 61
7, 230304, Control_c, 9, 7, 77
7, 230400, Control_c, 5, 7, 61
7, 230400, Note_off_c, 5, 61, 64
7, 230592, Note_on_c, 5, 61, 96
7, 230592, Note_on_c, 5, 61, 64
7, 230592, Note_on_c, 5, 61, 64
7, 230592, Note_on_c, 5, 61, 64
7, 230592, Note_off_c, 2, 56, 64
7, 230880, Control_c, 5, 7, 55
7, 230880, Control_c, 5, 7, 49
7, 230976, Note_on_c, 5, 61, 96
7, 231072, Note_off_c, 5, 61, 64
7, 231072, Note_off_c, 5, 61, 64
7, 231168, Note_on_c, 5, 61, 110
7, 231168, Note_on_c, 5, 61, 110
7, 231168, Note_on_c, 5, 61, 110
7, 231264, Note_off_c, 5, 61, 64
7, 231360, Note_on_c, 5, 63, 64
7, 231552, Note_on_c, 5, 61, 96
7, 231552, Note_off_c, 5, 61, 64
7, 231552, Control_c, 5, 7, 53
7, 231552, Note_on_c, 5, 61, 110
7, 231648, Control_c, 5, 7, 63
7, 231840, Note_on_c, 5, 61, 110
7, 231840, Note_on_c, 5, 61, 64
7, 231872, Note_off_c, 9, 44, 64
7, 231936, Note_on_c, 5, 61, 110
7, 231936, Note_on_c, 5, 61, 110
7, 232032, Control_c, 5, 7, 56
7, 232032, Note_off_c, 5, 61, 64
7, 232032, Note_off_c, 5, 61, 64
7, 232128, Control_c, 5, 7, 46
7, 232128, Note_off_c, 5, 61, 64
7, 232224, Control_c, 5, 7, 63
7, 232224, Control_c, 2, 7, 59
7, 232320, Control_c, 5, 7, 67
7, 232320, Control_c, 5, 7, 71
7, 232320, Note_off_c, 5, 61, 64
7, 232323, Control_c, 2, 7, 52
7, 232704, Note_on_c, 5, 61, 110
7, 232800, Control_c, 5, 7, 48
7, 232800, Note_off_c, 5, 61, 64
7, 232816, Control_c, 5, 7, 54
7, 232896, Control_c, 5, 7, 65
7, 232896, Note_on_c, 5, 61, 96
7, 232928, Note_on_c, 5, 61, 96
7, 233088, Note_on_c, 5, 61, 64
7, 233152, Control_c, 5, 7, 55
7, 233184, Control_c, 5, 7, 63, 74
7, 233184, Note_off_c, 5, 61, 64
7, 233184, Note_on_c, 5, 61, 64
7, 233184, Note_off_c, 5, 61, 64
7, 233184, Note_on_c, 5, 61, 110
7, 233184, Note_on_c, 5, 61, 110
7, 233280, Note_on_c, 5, 61, 110
7, 233280, Control_c, 5, 7, 46
7, 233376, Control_c, 5, 7, 43
7, 233376, Note_off_c, 5, 61, 64
7, 233472, Note_on_c, 5, 61, 64
7, 233472, Note_on_c, 5, 61, 110
7, 233472, Note_on_c, 5, 61, 110
7, 233472, Note_off_c, 5, 61, 64
7, 233472, Note_on_c, 5, 61, 64
7, 233472, Note_off_c, 5, 61, 64
7, 233568, Note_off_c, 5, 61, 64
7, 233568, Note_off_c, 5, 61, 64
7, 233568, Control_c, 5, 7, 44
7, 233664, Control_c, 5, 7, 48
7, 233664, Note_on_c, 5, 61, 96
7, 233664, Note_on_c, 5, 61, 64
7, 233760, Note_off_c, 5, 61, 64
7, 233760, Control_c, 5, 7, 46
7, 233952, Note_on_c, 5, 61, 64
7, 233952, Control_c, 5, 7, 48
7, 234048, Note_on_c, 5, 61, 64
7, 234048, Note_off_c, 5, 61, 64
7, 234048, Note_on_c, 5, 61, 64
7, 234144, Note_off_c, 5, 61, 64
7, 234240, Note_on_c, 5, 61, 64
7, 234240, Note_on_c, 5, 61, 64
7, 234336, Control_c, 5, 7, 42
7, 234432, Control_c, 5, 7, 42
7, 234432, Note_on_c, 5, 61, 64
7, 234528, Control_c, Note_on_c, 3, 37, 110
7, 234528, Control_c, 5, 7, 48
7, 234624, Control_c, 5, 7, 49
7, 234624, Note_on_c, 5, 61, 64
7, 234624, Note_on_c, 5, 61, 64
7, 234624, Note_on_c, 2, 57, 64
7, 234720, Control_c, 5, 7, 43
7, 234720, Control_c, 5, 7, 49
7, 234720, Control_c, 5, 7, 40
7, 234816, Control_c, 5, 7, 31, 64
7, 234816, Note_on_c, 5, 61, 64
7, 234816, Note_on_c, 5, 61, 64
7, 234816, Note_off_c, 5, 61, 64
7, 234816, Note_on_c, 5, 63, 64
7, 234912, Note_off_c, 5, 61, 64
7, 234912, Note_on_c, 5, 61, 64
7, 234912, Note_off_c, 5, 61, 64
7, 234912, Note_off_c, 5, 61, 64
7, 235200, Control_c, 5, 7, 40
7, 235392, Control_c, 5, 7, 48
7, 235392, Note_off_c, 5, 61, 64
7, 235488, Control_c, 5, 7, 41
7, 235584, Note_on_c, 4, 35, 110
7, 235680, Note_off_c, 5, 61, 64
7, 235776, Note_on_c, 5, 61, 64
7, 235776, Note_on_c, 5, 61, 110
7, 235872, Note_on_c, 5, 61, 64
7, 235968, Control_c, 5, 7, 39
7, 236160, Control_c, 5, 7, 39
7, 236256, Note_off_c, 5, 61, 64
7, 236352, Note_off_c, 5, 61, 64
7, 236352, Note_on_c, 5, 61, 64
7, 236544, Control_c, 5, 7, 37
7, 236544, Note_off_c, 5, 61, 64
7, 236544, Note_on_c, 5, 61, 110
7, 236544, Note_off_c, 5, 59, 64
7, 236640, Control_c, 5, 7, 36
7, 236640, Control_c, 5, 7, 27
7, 236864, Control_c, 4, 7, 416, 64
7, 236960, Note_off_c, 5, 61, 64
7, 237120, Note_on_c, 5, 61, 96
7, 237120, Note_off_c, 5, 61, 64
7, 237216, Control_c, 1, 7, 53
7, 237312, Note_on_c, 5, 61, 64
7, 237312, Control_c, 5, 7, 31744, Control_c, 5, 7, 78
7, 237568, Note_on_c, 5, 61, 64
7, 237600, Note_off_c, 5, 61, 64
7, 237600, Note_off_c, 5, 61, 64
7, 237696, Control_c, 5, 7, 31
7, 237792, Control_c, 5, 7, 48
7, 237888, Note_on_c, 5, 61, 110
7, 237888, Note_on_c, 5, 61, 64
7, 237888, Note_on_c, 5, 61, 110
7, 237984, Note_off_c, 5, 61, 64
7, 238016, Note_on_c, 5, 59, 110
7, 238064, Note_off_c, 5, 61, 64
7, 238080, Control_c, 5, 7, 22
7, 238080, Note_off_c, 5, 59, 64
7, 238272, Note_on_c, 5, 61, 110
7, 238272, Control_c, 5, 7, 29
7, 238368, Control_c, 5, 7, 24
7, 238464, Control_c, 5, 7, 28
7, 238464, Control_c, 5, 7, 28
7, 238464, Control_c, 5, 7, 22
7, 238656, Control_c, 5, 7, 22
7, 238656, Note_on_c, 5, 61, 96
7, 238752, Note_off_c, 5, 61, 64
7, 238848, Note_on_c, 5, 61, 110
7, 238944, Note_off_c, 5, 61, 64
7, 239040, Note_on_c, 5, 61, 64
7, 239232, Note_on_c, 5, 63, 96
7, 239328, Control_c, 5, 7, 15
7, 239328, Control_c, 5, 7, 17
7, 239424, Note_on_c, 5, 61, 110
7, 239520, Note_off_c, 5, 61, 64
7, 239520, Control_c, 5, 7, 175, 110
7, 239520, Control_c, 5, 7, 18
7, 239520, Note_off_c, 5, 61, 64
7, 239616, Note_on_c, 5, 63, 110
7, 239712, Note_off_c, 5, 61, 64
7, 239712, Note_off_c, 5, 63, 64
7, 239712, Control_c, 5, 7, 17
7, 239808, Note_on_c, 5, 63, 64
7, 239808, Note_on_c, 5, 63, 64
7, 240000, Control_c, 5, 7, 14
7, 240000, Note_on_c, 5, 63, 64
7, 240096, Note_on_c, 5, 63, 64
7, 240096, Control_c, 5, 7, 17
7, 240096, Note_off_c, 5, 64, 64
7, 240096, Note_on_c, 5, 63, 110
7, 240096, Control_c, 5, 7, 15
7, 240192, Note_on_c, 5, 73, 110
7, 240288, Note_off_c, 5, 63, 64
7, 240288, Control_c, 5, 7, 93
7, 240288, Note_off_c, 5, 61, 64
7, 240608, Note_off_c, 5, 59, 64
7, 241056, Note_off_c, 5, 63, 64
7, 241152, Note_on_c, 5, 63, 110
7, 241248, Note_off_c, 5, 6, 61, 110
7, 241440, Note_off_c, 5, 63, 64
7, 241536, Control_c, 5, 7, 6
7, 241536, Note_on_c, 5, 63, 64
7, 241632, Control_c, 2, 7, 100
7, 241920, Note_on_c, 5, 63, 110
7, 242016, Control_c, 5, 7, 17
7, 242016, Note_off_c, 5, 63, 64
7, 242112, Control_c, 6, 7, 7
7, 242208, Note_off_c, 5, 59, 64
7, 246400, Control_c, 3, 7, 12
7, 247000, End_track
8, 0, Control_c, 0, 70, 110
8, 0, Start_track
8, 225, Note_off_c, 0, 63, 64
8, 694, Note_off_c, 8, 78, 64
8, 1192, Note_on_c, 1, 61, 81
8, 1536, Note_off_c, 6, 69, 64
8, 2496, Note_on_c, 6, 61, 81
8, 4912, Note_on_c, 6, 68, 110
8, 5184, Note_off_c, 6, 73, 64
8, 5184, Note_on_c, 6, 73, 110
8, 5952, Note_on_c, 6, 73, 110
8, 8064, Note_off_c, 6, 78, 64
8, 9216, Control_c, 6, 7, 46
8, 9216, Note_off_c, 6, 66, 64
8, 9408, Note_off_c, 6, 69, 64
8, 9984, Note_off_c, 6, 69, 64
8, 10560, Note_on_c, 6, 66, 110
8, 11328, Note_on_c, 6, 61, 110
8, 11520, Note_on_c, 6, 61, 81
8, 11520, Note_on_c, 6, 61, 81
8, 11904, Note_off_c, 6, 61, 64
8, 12288, Note_on_c, 1, 69, 110
8, 12672, Note_on_c, 6, 61, 81
8, 13056, Note_off_c, 6, 64
8, 13248, Note_off_c, 6, 66, 64
8, 13440, Note_off_c, 6, 64, 64
8, 13440, Note_off_c, 6, 71, 64
8, 13632, Note_off_c, 6, 61, 64
8, 13648, Note_off_c, 6, 71, 64
8, 13824, Control_c, 6, 7, 58
8, 13824, Note_on_c, 6, 64, 81
8, 13824, Program_c, 6, 56
8, 13824, Control_c, 6, 7, 60
8, 14112, Note_on_c, 6, 69, 110
8, 14176, Note_on_c, 6, 68, 110
8, 14208, Note_off_c, 6, 68, 64
8, 14784, Note_on_c, 6, 61, 81
8, 16128, Note_off_c, 6, 76, 64
8, 16320, Note_on_c, 6, 61, 81
8, 16320, Note_off_c, 6, 61, 64
8, 16512, Note_off_c, 6, 76, 64
8, 16704, Note_on_c, 6, 76, 110
8, 17664, Note_off_c, 6, 76, 64
8, 17664, Note_off_c, 6, 68, 64
8, 17856, Note_on_c, 6, 68, 110
8, 18528, Note_off_c, 6, 76, 64
8, 18720, Note_off_c, 8, 82, 64
8, 19776, Note_off_c, 6, 69, 64
8, 22425, 118208, Note_on_c, 9, 57, 110
8, 23040, Note_on_c, 6, 69, 110
8, 23040, Note_on_c, 6, 64, 64
8, 24192, Note_on_c, 6, 71, 64
8, 28192, Note_off_c, 6, 71, 64
8, 28416, Note_off_c, 6, 75, 64
8, 28992, Note_off_c, 6, 71, 64
8, 28992, Note_on_c, 6, 73, 64
8, 29376, Note_on_c, 6, 76, 64
8, 29952, Note_on_c, 6, 71, 64
8, 33408, Note_on_c, 6, 66, 64
8, 33696, Note_on_c, 6, 68, 64
8, 33984, Note_on_c, 6, 59, 64
8, 34016, Note_off_c, 6, 68, 64
8, 34176, Note_on_c, 6, 63, 64
8, 34176, Note_off_c, 6, 66, 64
8, 34368, Note_on_c, 6, 71, 110
8, 34560, Note_off_c, 6, 64, 64
8, 35328, Note_on_c, 6, 69, 64
8, 36288, Note_on_c, 6, 71, 110
8, 36480, Note_off_c, 6, 66, 64
8, 39936, Note_on_c, 6, 69, 110
8, 40096, Note_off_c, 6, 68, 64
8, 40320, Note_on_c, 6, 68, 110
8, 40512, Note_on_c, 6, 68, 64
8, 40800, Note_off_c, 6, 68, 64
8, 41856, Note_off_c, 6, 71, 64
8, 42416, Note_on_c, 6, 63, 110
8, 42432, Note_on_c, 6, 68, 110
8, 42432, Note_off_c, 6, 71, 64
8, 42816, Note_off_c, 6, 64, 64
8, 42816, Note_off_c, 6, 68, 64
8, 43008, Note_off_c, 6, 64, 64
8, 43680, Note_on_c, 6, 64, 64
8, 43776, Note_on_c, 6, 68, 110
8, 44736, Note_on_c, 6, 63, 110
8, 45120, Note_off_c, 6, 68, 64
8, 45120, Note_on_c, 6, 69, 110
8, 45312, Note_on_c, 6, 61, 64
8, 45312, Note_off_c, 6, 63, 64
8, 45312, Note_on_c, 6, 61, 64
8, 45312, Note_off_c, 6, 62, 64
8, 45504, Note_on_c, 6, 63, 64
8, 45504, Note_on_c, 6, 58, 64
8, 45504, Note_on_c, 6, 69, 110
8, 45504, Note_off_c, 6, 66, 64
8, 45504, Note_on_c, 6, 61, 110
8, 46048, Note_on_c, 2, 52, 70
8, 46080, Note_off_c, 6, 51, 64
8, 46272, Note_off_c, 6, 59, 64
8, 46272, Note_off_c, 6, 59, 64
8, 46464, Note_on_c, 6, 63, 110
8, 47040, Note_on_c, 6, 68, 110
8, 48576, Note_off_c, 6, 63, 64
8, 48576, Note_off_c, 6, 59, 64
8, 48576, Note_off_c, 6, 58, 64
8, 48576, Note_off_c, 6, 63, 64
8, 48576, Note_on_c, 6, 5, 64
8, 49544, Note_off_c, 6, 66, 64
8, 49728, Note_on_c, 9, 38912, Note_off_c, 0, 58, 64
8, 49728, Note_on_c, 6, 63, 110
8, 51040, Note_off_c, 6, 71, 64
8, 51456, Note_off_c, 6, 71, 64
8, 57120, Note_on_c, 6, 71, 110
8, 74112, Note_off_c, 6, 69, 64
8, 123072, Note_off_c, 6, 68, Control_c, 0, 7, 90, 110
8, 123872, Note_off_c, 6, 68, 64
8, 124800, Note_off_c, 6, 71, 64
8, 125184, Note_off_c, 6, 75, 64
8, 128640, Note_on_c, 6, 68, 110
8, 128640, Note_on_c, 6, 61, 81
8, 135360, Note_on_c, 6, 64, 64
8, 135360, Note_off_c, 6, 66, 64
8, 136320, Note_on_c, 6, 66, 64
8, 136480, Note_off_c, 6, 63, 64
8, 140160, Note_on_c, 6, 71, 110
8, 140544, Note_on_c, 6, 64, 64
8, 143616, Note_on_c, 6, 64, 64
8, 143616, Note_off_c, 6, 64, 64
8, 143616, Note_on_c, 6, 63, 110
8, 143808, Note_off_c, 6, 59, 64
8, 143808, Note_off_c, 6, 58, 64
8, 143808, Note_off_c, 6, 63, 64
8, 143808, Note_off_c, 6, 68, 64
8, 143808, Note_on_c, 6, 58, Note_on_c, 9, 59, 110
8, 144576, Note_off_c, 6, 68, 64
8, 144960, Note_on_c, 6, 64, 64
8, 146880, Note_off_c, 6, 63, 64
8, 147456, Control_c, 6, 7, 100
8, 207936, Note_off_c, 6, 66, 64
8, 219072, Note_off_c, 6, 71, 64
8, 219648, Note_off_c, 6, 78, 64
8, 220032, Note_on_c, 6, 71, 110
8, 220032, Note_on_c, 6, 66, 64
8, 220224, Note_off_c, 6, 71, 64
8, 220416, Note_on_c, 6, 66, 64
8, 220512, Note_off_c, 6, 68, 64
8, 220608, Control_c, 6, 7, 44
8, 220704, Note_off_c, 6, 73, 64
8, 220992, Note_off_c, 6, 73, 64
8, 220992, Note_on_c, 6, 73, 64
8, 220992, Note_on_c, 6, 73, 64
8, 220992, Note_on_c, 6, 73, 64
8, 221184, Note_on_c, 6, 75, 110
8, 221184, Note_off_c, 6, 73, 64
8, 221184, Note_on_c, 6, 76, 110
8, 221184, Note_on_c, 6, 71, 110
8, 221184, Note_on_c, 6, 73, 110
8, 221376, Note_on_c, 6, 68, 64
8, 221376, Note_on_c, 6, 69, 110
8, 221376, Note_on_c, 6, 61, 64
8, 221376, Note_on_c, 6, 69, 110
8, 221544, Control_c, 5, 7, 66
8, 223280, Note_off_c, 6, 69, 64
8, 223488, Note_on_c, 6, 71, 64
8, 224064, Note_off_c, 6, 66, 64
8, 224064, Note_off_c, 6, 66, 64
8, 224448, Control_c, 6, 7, 48
8, 224448, Note_off_c, 6, 71, 64
8, 224448, Note_off_c, 6, 71, 64
8, 224640, Note_off_c, 6, 71, 64
8, 225024, Note_off_c, 6, 66, 64
8, 225216, Control_c, 6, 7, 54
8, 225312, Note_on_c, 6, 68, 110
8, 225312, Control_c, 6, 7, 49
8, 225792, Note_off_c, 6, 66, 64
8, 226176, Control_c, 6, 7, 54
8, 226176, Note_on_c, 6, 66, 64
8, 226176, Note_on_c, 6, 66, 64
8, 226240, Control_c, 6, 7, 47
8, 226368, Control_c, 6, 7, 57
8, 226368, Note_on_c, 6, 71, 64
8, 226368, Control_c, 6, 7, 49
8, 226560, Note_on_c, 6, 73, 64
8, 226560, Control_c, 6, 7, 59
8, 226752, Note_off_c, 6, 73, 64
8, 226752, Control_c, 6, 7, 43
8, 226752, Note_on_c, 6, 66, 64
8, 226848, Note_off_c, 5, 59, 64
8, 227136, Note_on_c, 6, 73, 110
8, 227136, Note_off_c, 6, 75, 64
8, 227328, Note_on_c, 6, 63, 64
8, 227328, Control_c, 6, 7, 50
8, 227328, Note_off_c, 6, 7, 43488, Note_on_c, 5, 61, 110
8, 227520, Control_c, 6, 7, 70
8, 228000, Control_c, 6, 7, 47
8, 228000, Control_c, 6, 7, 44
8, 228576, Control_c, 6, 7, 43
8, 228576, Note_on_c, 0, 66, 110
8, 228576, Control_c, 6, 7, 19
8, 229536, Control_c, 6, 7, 44
8, 229536, Control_c, 6, 7, 44
8, 229536, Control_c, 6, 7, 44
8, 229536, Control_c, 6, 7, 55
8, 229536, Control_c, 6, 7, 43
8, 229632, Note_on_c, 6, 69, 64
8, 229728, Control_c, 6, 7, 44
8, 229736, Control_c, 6, 7, 66
8, 230592, Control_c, 6, 7, 49
8, 230592, Note_off_c, 6, 71, 64
8, 230688, Control_c, 6, 7, 44
8, 230784, Control_c, 6, 7, 36
8, 230976, Note_on_c, 6, 64, 64
8, 231072, Control_c, 1, 7, 50
8, 231161, 46240, Note_on_c, 9, 44, 110
8, 231168, Note_on_c, 6, 69, 64
8, 231360, Note_off_c, 6, 71, 64
8, 231360, Control_c, 6, 7, 33
8, 231744, Note_on_c, 6, 69, 64
8, 231744, Control_c, 6, 7, 53
8, 231744, Note_on_c, 6, 71, 110
8, 232416, Control_c, 6, 7, 39
8, 232624, Control_c, 6, 7, 24
8, 233856, Control_c, 6, 7, 27
8, 234240, Control_c, 6, 7, 26
8, 234624, Control_c, 6, 7, 22
8, 234816, Control_c, 6, 7, 22
8, 234816, Control_c, 6, 7, 23
8, 235488, Control_c, 6, 7, 28
8, 235584, Control_c, 6, 7, 34
8, 235584, Note_on_c, 6, 61, 64
8, 235776, Note_on_c, 6, 66, 110
8, 235776, Note_on_c, 6, 61, 64
8, 235872, Control_c, 3, 7, 47
8, 235872, Control_c, 6, 7, 33
8, 235968, Note_on_c, 1, 64, 64
8, 235968, Note_off_c, 6, 71, 64
8, 236160, Control_c, 6, 7, 27
8, 236256, Control_c, 6, 7, 29
8, 236352, Control_c, 6, 7, 21
8, 236736, Note_on_c, 6, 61, 64
8, 236736, Note_on_c, 6, 63, 64
8, 237216, Control_c, 6, 7, 17
8, 237600, Control_c, 6, 7, 30
8, 237792, Control_c, 6, 7, 2
8, 238464, Control_c, 6, 7, 15
8, 239616, Note_on_c, 6, 58, 64
8, 239712, Control_c, 6, 7, 14
8, 239904, Control_c, 6, 7, 18
8, 241152, Control_c, 6, 7, 5
8, 241280, Note_off_c, 5, 80, 64
8, 241536, Control_c, 6, 7, 60
8, 241632, Control_c, 7, 7, 100
8, 241920, Note_off_c, 6, 63, 64
8, 245000, End_track
9, 0, Start_track
9, 0, Note_on_c, 6, 68, 110
9, 0, Program_c, 1, 56, 64
9, 0, Start_track
9, 192, Note_off_c, 0, 64, 64
9, 591, 195648, Note_off_c, 4, 39, 64
9, 1575, Control_c, 0, 7, 100
9, 6336, 64
9, 6489, 38, 64
9, 7632, Control_c, 3, 7, 75
9, 15936, Note_off_c, 7, 71, 64
9, 45696, Note_on_c, 7, 85, 110
9, 52192, Note_on_c, 7, 76, 86
9, 52800, Note_off_c, 7, 80, 64
9, 53184, 0, 7, 63
9, 53184, Note_off_c, 7, 85, 64
9, 53376, Note_off_c, 7, 76, 64
9, 53376, Note_on_c, 7, 86, 102
9, 53952, Note_off_c, 7, 85, 64
9, 54112, Note_off_c, 7, 76, Note_off_c, 0, 66, 64
9, 54112, Program_c, 7, 80
9, 54144, Note_off_c, 7, 85, 648992, Note_off_c, 5, 59, 64
9, 54144, Note_on_c, 7, 76, 91
9, 54144, Note_off_c, 7, 85, 64
9, 54144, Note_on_c, 7, 76, 110
9, 54144, Note_on_c, 7, 85, 107
9, 54144, Note_on_c, 7, 85, 108
9, 54144, Note_on_c, 7, 87, 110
9, 54144, Note_off_c, 7, 85, 64
9, 54144, Note_off_c, 7, 68, 64
9, 54144, Note_on_c, 7, 75, 74
9, 54336, Note_off_c, 7, 68, 64
9, 54336, Note_off_c, 7, 80, 64
9, 54528, Note_on_c, 7, 70, 86
9, 54528, Note_off_c, 7, 78, 64
9, 54528, Note_on_c, 7, 76, 74
9, 54720, Note_off_c, 7, 76, 64
9, 54720, Note_on_c, 7, 85, 108
9, 54720, Note_off_c, 7, 85, 64
9, 54720, Note_off_c, 7, 85, 64
9, 54912, Note_on_c, 7, 80, 110
9, 54912, Note_on_c, 7, 7, Control_c, 3, 7, 13
9, 54912, Note_off_c, 7, 76, 64
9, 54912, Note_off_c, 7, 75, 64
9, 54928, Note_on_c, 7, 78, 91
9, 55104, Note_off_c, 7, 87, 64
9, 55104, Note_off_c, 7, 87, 64
9, 55296, Note_on_c, 7, 73, 86
9, 55296, Note_off_c, 7, 76, 64
9, 55312, Note_on_c, 7, 75, 86
9, 56160, Note_on_c, 7, 73, 86
9, 56352, Note_off_c, 7, 73, 64
9, 56448, Note_on_c, 7, 68, 86
9, 57216, Note_off_c, 7, 76, 64
9, 58368, Note_on_c, 7, 71, 86
9, 58944, Note_on_c, 7, 75, 79
9, 59328, Note_on_c, 7, 73, 86
9, 59520, Note_off_c, 7, 76, 64
9, 59520, Note_on_c, 7, 87, 108
9, 59904, Note_off_c, 7, 75, 64
9, 60096, Note_on_c, 7, 85, 110
9, 60096, Note_on_c, 7, 8, 68, 64
9, 60672, Note_on_c, 7, 76, Note_off_c, 8, 78, 64
9, 60672, Note_off_c, 7, 75, 64
9, 60672, Note_off_c, 7, 88, 64
9, 60672, Note_on_c, 7, 88, 10, Note_off_c, 7, 75, 64
9, 60672, Note_on_c, 7, 78, 91
9, 60672, Note_off_c, 7, 75, 64
9, 60864, Note_on_c, 7, 73, 73
9, 61056, Note_off_c, 7, 73, 64
9, 61536, Note_on_c, 7, 76, 91
9, 61736, Note_off_c, 7, 73, 64
9, 61824, Note_on_c, 7, 75, 74
9, 62784, Note_on_c, 6, 71, 64
9, 62976, Note_off_c, 7, 75, 64
9, 63168, Note_on_c, 7, 76, 78
9, 63568, Note_on_c, 7, 76, 91
9, 63744, Note_on_c, 5, 63, 96
9, 64128, Note_off_c, 1, 68, 64
9, 64128, Note_off_c, 7, 75, 64
9, 64192, Note_on_c, 7, 76, 74
9, 64224, Note_off_c, 7, 73, 64
9, 64224, Note_off_c, 8, 76, 64
9, 64512, Control_c, 7, 7, 1, 85, 96
9, 64512, Control_c, 7, 7, 100
9, 64704, Note_on_c, 7, 75, 74
9, 64704, Note_off_c, 7, 76, 64
9, 64896, Note_on_c, 7, 75, 74
9, 65088, Note_on_c, 7, 75, 74
9, 65088, Note_off_c, 7, 73, 64
9, 65472, Note_on_c, 7, 75, 74
9, 65568, End_track
9, 65664, Note_on_c, 7, 84, 86
9, 65888, Note_off_c, 7, 81, 64
9, 66048, Note_on_c, 7, 75, 70
9, 66048, Note_off_c, 7, 76, 64
9, 66048, Note_off_c, 7, 78, 64
9, 66240, Note_on_c, 7, 76, 74
9, 66432, Note_off_c, 7, 75, 64
9, 66624, Note_on_c, 7, 75, 74
9, 66624, Note_off_c, 7, 73, 64
9, 66816, Note_off_c, 7, 71, 64
9, 66816, Note_on_c, 7, 71, 86
9, 66816, Note_off_c, 7, 80, 64
9, 66912, Note_off_c, 7, 75, 64
9, 66912, Note_on_c, 7, 83, 107
9, 67584, Note_off_c, 11, 64
9, 67584, Note_on_c, 7, 73, 86
9, 67584, Note_off_c, 7, 73, 64
9, 67680, Note_on_c, 7, 87, 110
9, 67776, Note_on_c, 7, 67, 86
9, 69120, Note_on_c, 7, 75, 74
9, 69120, Note_on_c, 7, 75, 86
9, 69312, Note_off_c, 7, 73, 64
9, 69696, Note_off_c, 7, 75, 64
9, 70272, Note_off_c, 7, 71, 64
9, 70656, Program_c, 7, 80
9, 70656, Note_on_c, 7, 85, 108
9, 71136, Note_off_c, 7, 76, 64
9, 71424, Note_off_c, 7, 78, 64
9, 72000, Note_off_c, 7, 75, 64
9, 72384, Note_on_c, 7, 88, 107
9, 72384, Note_on_c, 5, 8, 57, 110
9, 72576, Note_off_c, 7, 87, 64
9, 73344, Note_on_c, 7, 71, 86
9, 73728, Note_on_c, 7, 82, 107
9, 73920, Note_on_c, 7, 76, 70
9, 73920, Note_on_c, 7, 79, 74
9, 74112, Note_off_c, 7, 78, 64
9, 74112, Note_off_c, 7, 80, 64
9, 74208, Note_on_c, 7, 73, 76
9, 74304, Note_off_c, 7, 82, 64
9, 74784, Note_on_c, 7, 76, 910080, Note_off_c, 5, 61, 64
9, 74880, Note_off_c, 7, 79, 64
9, 75360, Note_on_c, 7, 76, 74
9, 75360, Note_on_c, 7, 75, 74
9, 75456, Note_on_c, 7, 78, 91
9, 75456, Note_on_c, 7, 85, 108
9, 75648, Note_off_c, 7, 73, 64
9, 75648, Note_off_c, 7, 75, 64
9, 76120, Note_on_c, 7, 75, 86
9, 76320, Note_off_c, 7, 73, 64
9, 76608, Note_off_c, 7, 71, 64
9, 76608, Note_on_c, 7, 71, 86
9, 76608, Note_off_c, 7, 68, 64
9, 76608, Note_on_c, 7, 67, 86
9, 76992, Note_on_c, 7, 83, 10, 3, 32, 64
9, 94464, Note_off_c, 7, 76, 64
9, 94656, Note_on_c, 7, 75, 110
9, 95232, Note_off_c, 7, 76, 64
9, 95232, Note_off_c, 7, 75, 64
9, 95232, Note_on_c, 7, 76, 110
9, 95232, Program_c, 7, 80
9, 95808, Note_on_c, 1, 76, 110
9, 95808, Note_off_c, 7, 71, 64
9, 96160, Note_off_c, 7, 75, 64
9, 96192, Note_on_c, 7, 76, 110
9, 96384, Note_on_c, 7, 76, 110
9, 96576, Note_on_c, 5, 68, 110
9, 96864, Note_on_c, 5, 61, 110
9, 97152, Note_off_c, 7, 78, 64
9, 97344, Note_on_c, 7, 76, 110
9, 98016, Note_on_c, 7, 78, 110
9, 98112, Note_off_c, 7, 71, 64
9, 99072, Note_on_c, 7, 76, 110
9, 99072, Note_off_c, 7, 75, 64
9, 99264, Control_c, 7, 7, 100
9, 99456, Note_off_c, 7, 75, 64
9, 99456, Note_off_c, 7, 75, 64
9, 99456, Note_on_c, 7, 75, 110
9, 99872, Note_off_c, 7, 75, 64
9, 100000, Note_off_c, 7, 71, 64
9, 100224, Note_on_c, 7, 76, 110
9, 110496, Note_off_c, 7, 81, 64
9, 145024, Note_off_c, 7, 73, 64
9, 145312, Note_on_c, 7, 80, 110
9, 147552, Note_on_c, 7, 75, Control_c, 5, 7, 90
9, 147552, Note_off_c, 7, 73, 64
9, 147648, Note_on_c, 7, 80, 110
9, 148608, Program_c, 7, 80
9, 148800, Note_off_c, 7, 75, 64
9, 149568, Note_off_c, 7, 75, 64
9, 149760, Note_off_c, 7, 76, 64
9, 149952, Note_on_c, 7, 76, 86
9, 150144, Note_off_c, 7, 71, 64
9, 150208, Note_off_c, 7, 75, 64
9, 150208, Note_on_c, 7, 71, 86
9, 150528, Note_off_c, 7, 83, 64
9, 151072, Note_on_c, 7, 69, 88
9, 151104, Note_on_c, 7, 76, 86
9, 151104, Note_off_c, 7, 75, 64
9, 151104, Note_on_c, 7, 69, 86
9, 151104, Note_off_c, 7, 75, 64
9, 151104, Note_on_c, 7, 76, 86
9, 151296, Note_on_c, 7, 76, 86
9, 151296, Note_on_c, 7, 80, 110
9, 151296, Note_off_c, 7, 84, 64
9, 151296, Note_off_c, 7, 76, 64
9, 151296, Note_on_c, 7, 69, 86
9, 151488, Note_off_c, 64
9, 151488, Note_off_c, 7, 73, 64
9, 151872, Note_on_c, 7, 69, 86
9, 152048, Note_on_c, 7, 75, 86
9, 152064, Note_off_c, 7, 68, 64
9, 152256, Note_on_c, 7, 73, 86
9, 152256, Note_off_c, 7, 63, 64
9, 152256, Note_on_c, 7, 73, 86
9, 152256, Note_off_c, 7, 71, 64
9, 152256, Note_on_c, 7, 69, 86
9, 152448, Note_off_c, 7, 76, 64
9, 152832, Note_off_c, 7, 73, 64
9, 153216, Note_off_c, 7, 73, 64
9, 153216, Note_on_c, 7, 73, 86
9, 153216, Note_off_c, 7, 73, 64
9, 153216, Note_off_c, 7, 73, 64
9, 153216, Note_off_c, 7, 75, 64
9, 153216, Note_on_c, 7, 73, 86
9, 153408, Note_on_c, 7, 76, 86
9, 153408, Note_on_c, 7, 75, 86
9, 153408, Note_off_c, 7, 73, 64
9, 153600, Control_c, 1, 7, 110
9, 153792, Note_off_c, 7, 75, 64
9, 154144, Note_off_c, 7, 85, 64
9, 154176, Note_on_c, 7, 85, 108
9, 154176, Note_off_c, 7, 75, 64
9, 154368, Note_off_c, 7, 80, 64
9, 154368, Note_on_c, 7, 76, 78
9, 154560, Note_off_c, 7, 75, 64
9, 154560, Note_off_c, 7, 83, 64
9, 154752, Note_on_c, 7, 85, 108
9, 154752, Note_off_c, 7, 83, 64
9, 154752, Note_off_c, 7, 80, 64
9, 154752, Note_on_c, 7, 87, 108
9, 154752, Note_on_c, 7, 85, 108
9, 154944, Note_off_c, 7, 80, 64
9, 154944, Note_on_c, 7, 73, 77
9, 155136, Note_on_c, 7, 71, 86
9, 155136, Note_on_c, 7, 76, 760, 59, 110
9, 155136, Note_on_c, 7, 75, 77
9, 155136, Note_off_c, 7, 87, 64
9, 155136, Note_on_c, 7, 73, 86
9, 155328, Note_on_c, 7, 76, 74
9, 155328, Note_off_c, 7, 73, 64
9, 155328, Note_on_c, 7, 78, 91
9, 155328, Note_off_c, 7, 76, 64
9, 155328, Note_off_c, 7, 68, 64
9, 155520, Note_off_c, 7, 76, 64
9, 155520, Control_c, 6, 7, 47
9, 155520, Note_off_c, 7, 75, 64
9, 155520, Note_on_c, 7, 75, 74
9, 155520, Note_on_c, 7, 85, 108
9, 155520, Note_on_c, 7, 76, 74
9, 155520, Note_on_c, 7, 79, 88
9, 155520, Note_on_c, 7, 71, 86
9, 155520, Note_on_c, 7, 75, 74
9, 155712, Note_on_c, 7, 75, 86
9, 155712, Note_on_c, 7, 76, 79
9, 155712, Note_off_c, 7, 81, 64
9, 155808, Note_off_c, 7, 76, 64
9, 155904, Note_on_c, 7, 75, 86
9, 155904, Note_off_c, 7, 80, 64
9, 155904, Note_on_c, 7, 83, 110
9, 156096, Note_off_c, 7, 76, 64
9, 156096, Note_off_c, 7, 88, 64
9, 156096, Note_off_c, 7, 81, 64
9, 156288, Note_off_c, 7, 71, 64
9, 156288, Note_on_c, 7, 80, 107
9, 156288, Note_on_c, 7, 87, 108
9, 156288, Note_off_c, 7, 75, 64
9, 156288, Note_on_c, 7, 80, 110
9, 156288, Note_off_c, 7, 76, 64
9, 156288, Note_on_c, 7, 76, 91
9, 156288, Note_on_c, 7, 79, 78
9, 156288, Note_on_c, 7, 79, 86
9, 156384, Note_off_c, 7, 80, 64
9, 156480, Note_off_c, 6, 64, 64
9, 156480, Note_on_c, 7, 87, 108
9, 156480, Note_off_c, 7, 79, 64
9, 156576, Note_off_c, 7, 83, 64
9, 156576, Note_on_c, 7, 87, 110
9, 156864, Note_off_c, 7, 75, 64
9, 156960, Note_off_c, 7, 69, 64
9, 157056, Note_off_c, 7, 75, 64
9, 157152, Note_off_c, 7, 71, 64
9, 157248, Note_on_c, 7, 73, 86
9, 157248, Note_on_c, 7, 73, 86
9, 157248, Note_on_c, 7, 75, 86
9, 157440, Note_on_c, 7, 63, 86
9, 157440, Note_off_c, 7, 76, 64
9, 157536, Note_off_c, 7, 71, 64
9, 157792, Note_off_c, 7, 76, 64
9, 158016, Note_off_c, 7, 76, 64
9, 158396, Note_on_c, 9, 44, 96
9, 158400, Note_on_c, 7, 76, 86
9, 158592, Note_off_c, 7, 76, 64
9, 158784, Note_off_c, 7, 69, 64
9, 158872, Note_on_c, 7, 75, 74
9, 158976, Note_off_c, 7, 75, 64
9, 159168, Note_on_c, 7, 71, 86
9, 159360, Control_c, 7, 7, 100
9, 159552, Note_off_c, 7, 76, 64
9, 159552, Note_off_c, 7, 76, 64
9, 159744, Note_off_c, 7, 75, 64
9, 159744, Note_on_c, 7, 75, 6, 73, 110
9, 160320, Note_off_c, 7, 73, 64
9, 160704, Note_on_c, 7, 73, 72
9, 160896, Note_on_c, 7, 83, 111
9, 160896, Note_on_c, 7, 85, 107
9, 160928, Note_on_c, 7, 75, 70
9, 161472, Note_off_c, 7, 76, 64
9, 161856, Note_off_c, 7, 71, 64
9, 162432, Note_on_c, 7, 85, 111
9, 162624, Note_on_c, 7, 73, 86
9, 162624, Note_off_c, 7, 79, 64
9, 163200, Note_off_c, 7, 73, 64
9, 163200, Note_off_c, 7, 76, 64
9, 163584, Note_on_c, 7, 75, 74
9, 163584, Note_off_c, 7, 73, 64
9, 163584, Note_on_c, 7, 73, 86
9, 163680, Note_on_c, 7, 75, 86
9, 163872, Note_off_c, 7, 75, 64
9, 163968, Note_off_c, 7, 73, 64
9, 163968, Note_on_c, 7, 78, 110
9, 164544, Note_on_c, 7, 110
9, 164544, Note_on_c, 7, 80, 86
9, 165120, Note_on_c, 7, 115216, Note_off_c, 0, 64, 64
9, 165120, Note_on_c, 7, 75, 74
9, 165312, Note_on_c, 7, 7
9, 166048, Note_on_c, 7, 82, 86
9, 166272, Note_on_c, 7, 75, 74
9, 166272, Note_on_c, 7, 75, 74
9, 166432, Note_on_c, 7, 82, 86
9, 166464, Note_off_c, 7, 81, 64
9, 166464, Note_off_c, 7, 75, 64
9, 166464, Note_off_c, 7, 83, 64
9, 166464, Note_off_c, 7, 75, 64
9, 166656, Note_off_c, 7, 83, 64
9, 166848, Note_on_c, 7, 73, 86
9, 166848, Note_on_c, 7, 75, 70
9, 167808, Note_off_c, 7, 80, 64
9, 169536, Note_on_c, 7, 81, 108
9, 169536, Note_off_c, 7, 80, 64
9, 169536, Note_off_c, 7, 80, 64
9, 170112, Note_on_c, 7, 83, 110
9, 191040, Note_off_c, 7, 75, 64
9, 191040, Note_on_c, 7, 76, 110
9, 191232, Note_off_c, 7, 73, 64
9, 192576, Note_off_c, 7, 71, 64
9, 193456, Note_on_c, 7, 85, 110
9, 193536, Note_on_c, 7, 75, 110
9, 193536, Note_off_c, 7, 78, 64
9, 194112, Note_on_c, 7, 73, 110
9, 194112, Note_off_c, 7, 73, 64
9, 194304, Note_on_c, 7, 76, 110
9, 194880, Note_off_c, 7, 75, 64
9, 194880, Note_off_c, 7, 75, 64
9, 195072, Note_off_c, 7, 78, 64
9, 195072, Note_on_c, 7, 78, 110
9, 195456, Note_off_c, 7, 78, 64
9, 195648, Note_on_c, 7, 78, 110
9, 195840, Note_off_c, 7, 78, 64
9, 195840, Note_on_c, 7, 78, 110
9, 196000, Note_off_c, 7, 85, 64
9, 196512, Note_off_c, 7, 78, 64
9, 199872, Note_on_c, 7, 78, 110
9, 205024, Note_on_c, 7, 90, 110
9, 205632, Note_on_c, 5, 85, 112
9, 206732, End_track
10, 0, Start_track
10, 5
10, 6, Note_off_c, 9, 46, 64
10, 64
10, 64
10, 65, 64
10, 67, 110
10, 68, Note_off_c, 9, 36, 64
10, 75, 110
10, 110
10, 205, 91408, Note_off_c, 5, 61, 64
10, 544, 110
10, 1664
10, 2071, 110
10, 6240, Note_on_c, 9, 36, 110
10, 6336, Note_off_c, 3, 37, 64
10, 50880, Note_off_c, 8, 69, 64
10, 52896, Note_on_c, 8, 63, 64
10, 53184, Note_off_c, 8, 87, 64
10, 53184, Note_off_c, 8, 75, 64
10, 53184, Note_on_c, 8, 76, 110
10, 53376, Note_off_c, 9, 46, 64
10, 53568, Note_off_c, 8, 76, 64
10, 53568, Note_on_c, 8, 80, 110
10, 54144, Note_off_c, 84, Control_c, 4, 7, 56
10, 54144, Note_off_c, 8, 76, 64
10, 54144, Note_on_c, 8, 76, 86
10, 54144, Note_off_c, 8, 76, 64
10, 54144, Note_on_c, 8, 76, 110
10, 54144, Note_on_c, 8, 76, 86, 15360, Note_off_c, 0, 66, 64
10, 54144, Note_on_c, 8, 76, 86
10, 54144, Note_on_c, 8, 76, 110
10, 54144, Note_on_c, 8, 75, 110
10, 54144, Note_off_c, 8, 76, 64
10, 54176, Note_off_c, 8, 76, 64
10, 54336, Note_off_c, 8, 76, 64
10, 54528, Note_on_c, 8, 76, 86
10, 54528, Note_on_c, 8, 71, 86
10, 54528, Note_off_c, 8, 76, 64
10, 54528, Note_on_c, 8, 76, 86
10, 54720, Note_off_c, 8, 76, 64
10, 54720, Note_off_c, 8, 76, 64
10, 54720, Note_off_c, 8, 85, 64
10, 54720, Note_on_c, 8, 88, 110
10, 54720, Note_on_c, 8, 88, 110
10, 54912, Note_on_c, 8, 76, 44, 64
10, 55008, Note_on_c, 8, 76, 86
10, 55104, Note_off_c, 8, 76, 64
10, 55184, Note_on_c, 8, 76, 110
10, 55584, Note_on_c, 8, 76, 86
10, 56064, Note_on_c, 8, 76, 86
10, 56256, Note_on_c, 8, 76, 86
10, 56448, Note_on_c, 8, 68, 86
10, 56448, Note_on_c, 8, 76, 86
10, 56448, Note_off_c, 8, 71, 64
10, 56832, Note_on_c, 8, 76, 86
10, 57024, Note_off_c, 8, 76, 64
10, 57120, Note_off_c, 8, 73, 64
10, 57216, Note_on_c, 8, 76, 86
10, 57216, Note_on_c, 8, 75, 86
10, 57408, Note_off_c, 8, 71, 64
10, 57408, Note_off_c, 8, 76, 64
10, 57408, Note_off_c, 8, 73, 64
10, 57408, Note_off_c, 8, 71, 64
10, 57408, Note_off_c, 8, 69, 64
10, 57408, Note_on_c, 8, 73, 86
10, 57408, Note_off_c, 8, 76, 64
10, 57600, Note_on_c, 8, 73, 86
10, 57792, Note_off_c, 8, 69, 64
10, 57792, Note_off_c, 8, 79, 64
10, 57984, Note_on_c, 8, 73, 86
10, 58368, Note_on_c, 8, 68, 86
10, 58752, Note_off_c, 8, 83, 64
10, 59136, Note_off_c, 8, 76, 64
10, 59328, Note_off_c, 8, 76, 64
10, 59424, Note_off_c, 8, 75, 64
10, 59520, Note_on_c, 8, 75, 110
10, 59712, Note_on_c, 8, 71, 86
10, 60096, Note_on_c, 8, 67, 86
10, 60672, Note_off_c, 8, 79, 64
10, 61056, Note_on_c, 8, 71, 110
10, 61056, Note_on_c, 8, 75, 86
10, 61120, Note_off_c, 8, 82, 64
10, 61248, Note_off_c, 8, 73, 64
10, 61440, Note_off_c, 8, 85, 64
10, 61440, Note_on_c, 8, 75, 86
10, 61632, Note_on_c, 8, 75, 86
10, 61632, Note_on_c, 8, 73, 76
10, 62016, Note_off_c, 8, 68, 64
10, 62016, Note_on_c, 8, 71, 86
10, 62016, Note_on_c, 8, 76, 86
10, 62016, Note_on_c, 8, 76, 86
10, 62080, Note_on_c, 8, 73, 86
10, 62208, Note_off_c, 8, 76, 64
10, 62208, Note_off_c, 8, 76, 64
10, 62208, Note_off_c, 8, 76, 64
10, 62232, Note_on_c, 8, 85, 110
10, 62400, Note_on_c, 8, 76, 110
10, 62400, Note_on_c, 8, 85, 110
10, 62400, Note_on_c, 8, 75, 86
10, 62400, Note_off_c, 8, 76, 64
10, 62400, Note_on_c, 8, 76, 86
10, 62400, Note_on_c, 8, 69, 86
10, 62400, Note_off_c, 8, 76, 64
10, 62400, Note_on_c, 8, 69, 86
10, 62592, Note_off_c, 8, 69, 64
10, 62976, Note_on_c, 8, 71, 110
10, 62976, Note_on_c, 8, 69, 86
10, 62976, Note_off_c, 8, 71, 64
10, 62976, Note_off_c, 8, 69, 64
10, 62976, Note_off_c, 8, 71, 64
10, 63168, Note_off_c, 8, 75, 64
10, 63168, Note_off_c, 8, 71, 64
10, 63360, Note_off_c, 8, 75, 64
10, 63360, Note_off_c, 8, 75, 64
10, 63360, Note_off_c, 8, 75, 64
10, 63360, Note_off_c, 8, 76, 64
10, 63552, Control_c, 8, 7, 70
10, 63552, Note_on_c, 8, 68, 86
10, 63744, Note_off_c, 8, 76, 64
10, 63936, Note_off_c, 8, 71, 64
10, 63936, Note_on_c, 8, 71, 86
10, 64000, Note_off_c, 8, 75, 64
10, 64128, Note_off_c, 0, 68, 64
10, 64128, Note_on_c, 0, 64, 110
10, 64128, Note_on_c, 8, 76, 110
10, 64128, Note_on_c, 8, 71, 86
10, 64128, Note_on_c, 8, 76, 86
10, 64160, Note_off_c, 8, 67, 64
10, 64320, Note_off_c, 8, 75, 64
10, 64320, Note_on_c, 7, 7, 110
10, 64320, Note_on_c, 8, 75, 110
10, 64320, Note_on_c, 8, 69, 86
10, 64320, Note_off_c, 8, 75, 64
10, 64320, Note_on_c, 8, 71, 86
10, 64320, Note_on_c, 8, 68, 86
10, 64512, Note_on_c, 8, 76, 86
10, 64512, Note_on_c, 8, 71, 110
10, 64512, Note_on_c, 8, 73, 86
10, 64512, Note_on_c, 8, 76, 86
10, 64608, Note_off_c, 8, 75, 64
10, 64608, Note_on_c, 8, 75, 86
10, 64704, Note_off_c, 8, 76, 64
10, 64704, Note_on_c, 8, 76, 86
10, 64704, Note_off_c, 8, 76, 64
10, 64704, Note_off_c, 8, 75, 64
10, 64704, Note_off_c, 8, 76, 64
10, 64704, Note_off_c, 8, 76, 64
10, 64704, Note_off_c, 8, 76, 64
10, 64704, Note_off_c, 8, 76, 64
10, 64736, Note_off_c, 8, 73, 64
10, 64928, Note_on_c, 8, 76, 86
10, 64928, Note_on_c, 8, 82, 108
10, 65280, Note_on_c, 8, 76, 110
10, 65472, Note_on_c, 8, 76, 110
10, 65664, Note_off_c, 8, 75, 64
10, 65664, Note_off_c, 8, 76, 64
10, 65664, Note_off_c, 8, 73, 64
10, 65664, Note_off_c, 8, 75, 64
10, 65888, Note_off_c, 8, 75, 64
10, 66240, Note_off_c, 8, 75, 64
10, 66624, Note_on_c, 8, 83, 110
10, 66624, Note_off_c, 8, 76, 64
10, 66816, Note_on_c, 8, 73, 110
10, 66816, Note_off_c, 8, 80, 64
10, 66816, Note_on_c, 8, 63, 86
10, 67104, Note_off_c, 8, 80, 64
10, 67200, Note_on_c, 8, 75, 110
10, 67584, Note_off_c, 8, 75, 64
10, 67776, Note_off_c, 8, 73, 64
10, 67776, Note_off_c, 8, 73, 64
10, 67776, Note_off_c, 8, 63, 64
10, 67968, Note_off_c, 8, 60, 64
10, 67968, Note_on_c, 8, 63, 86
10, 67968, Note_on_c, 8, 69, 86
10, 67968, Note_off_c, 8, 73, 64
10, 68160, Note_on_c, 8, 67, 86
10, 68160, Note_off_c, 8, 71, 64
10, 68352, Note_on_c, 8, 71, 86
10, 68448, Note_off_c, 8, 71, 64
10, 68544, Note_on_c, 8, 73, 110
10, 68736, Note_off_c, 8, 67, 64
10, 68736, Note_off_c, 8, 71, 64
10, 68832, Note_off_c, 8, 71, 64
10, 68832, Note_on_c, 8, 75, 110
10, 68928, Note_on_c, 8, 75, 86
10, 68928, Note_on_c, 8, 73, 110
10, 68928, Note_on_c, 8, 75, 110
10, 68928, Note_on_c, 8, 73, 110
10, 68928, Note_on_c, 8, 71, 86
10, 69280, Note_on_c, 8, 75, 86
10, 69504, Note_off_c, 8, 75, 64
10, 69792, Note_off_c, 8, 76, 64
10, 69888, Note_off_c, 8, 73, 64
10, 69888, Note_on_c, 8, 63, 86
10, 69888, Note_off_c, 8, 75, 64
10, 69888, Note_on_c, 8, 67, 86
10, 70112, Note_on_c, 8, 83, 110
10, 70240, Note_off_c, 8, 75, 64
10, 70656, Note_off_c, 8, 75, 64
10, 70656, Note_on_c, 8, 73, 86
10, 70656, Note_on_c, 8, 73, 86
10, 70656, Note_on_c, 8, 88, 108
10, 70688, Note_off_c, 8, 73, 64
10, 70752, Note_on_c, 8, 75, 86
10, 70848, Note_on_c, 8, 83, 103
10, 70848, Note_off_c, 8, 73, 64
10, 70848, Note_on_c, 8, 73, 86
10, 71008, Note_off_c, 8, 76, 64
10, 71136, Note_on_c, 8, 75, 110
10, 71232, Note_on_c, 8, 75, 110
10, 71232, Note_on_c, 8, 83, 110
10, 71232, Note_off_c, 8, 75, 64
10, 71232, Note_off_c, 8, 75, 64
10, 71232, Note_off_c, 8, 75, 64
10, 71232, Note_off_c, 8, 75, 64
10, 71424, Note_on_c, 8, 78, 110
10, 71808, Note_on_c, 8, 75, 110
10, 71808, Note_on_c, 8, 75, 110
10, 71808, Note_on_c, 8, 75, 110
10, 72288, Note_off_c, 8, 85, 64
10, 72384, Note_on_c, 8, 79, 110
10, 72480, Note_off_c, 8, 73, 64
10, 72576, Note_off_c, 8, 75, 64
10, 72576, Note_off_c, 8, 78, 64
10, 72768, Note_on_c, 8, 88, 110
10, 72960, Note_off_c, 8, 83, 64
10, 72960, Note_off_c, 8, 79, 64
10, 72960, Note_on_c, 8, 73, 110
10, 73024, Note_on_c, 8, 73, 110
10, 73120, Note_on_c, 8, 75, 110
10, 73536, Note_off_c, 8, 67, 64
10, 73728, Note_on_c, 8, 78, 110
10, 73920, Note_on_c, 8, 69, 86
10, 74016, Note_on_c, 8, 78, 110
10, 74208, Note_off_c, 8, 76, 64
10, 74304, Note_off_c, 8, 80, 64
10, 74304, Note_on_c, 8, 87, 110
10, 74880, Note_on_c, 8, 79, 110
10, 75264, Note_on_c, 8, 73, 86
10, 75648, Note_off_c, 8, 73, 64
10, 75648, Note_on_c, 8, 73, 86
10, 75840, Note_on_c, 8, Note_on_c, 4, 39, 110
10, 75840, Note_off_c, 8, 75, 64
10, 76032, Note_off_c, 8, 79, 64
10, 76416, Note_off_c, 8, 79, 64
10, 76608, Note_off_c, 8, 69, 64
10, 76800, Control_c, 0, 7, 90
10, 79872, Note_on_c, 8, 71, 110
10, 94656, Note_off_c, 8, 76, 64
10, 96000, Note_on_c, 8, 73, 86
10, 96576, Note_off_c, 8, 78, 64
10, 96576, Note_off_c, 8, 75, 64
10, 97536, Note_off_c, 8, 75, 64
10, 98464, Note_on_c, 8, 71, 110
10, 100896, Note_on_c, 8, 80, 111
10, 101376, Note_on_c, 8, 85, 119
10, 101376, Note_off_c, 8, 83, 64
10, 101376, Note_off_c, 8, 85, 64
10, 101376, Note_off_c, 8
10, 101376, Note_on_c, 8, 81, 110
10, 102048, Note_on_c, 8, 73, 82
10, 102528, Note_off_c, 8, 76, 64
10, 102624, Note_on_c, 8, 80, 111
10, 103296, Note_off_c, 8, 73, 64
10, 103488, Note_on_c, 8, 76, 65
10, 103680, Note_on_c, 8, 73, 72
10, 103680, Note_off_c, 8, 78, 64
10, 104064, Note_off_c, 8, 85, 64
10, 104256, Note_off_c, 8, 80, 64
10, 104256, Note_on_c, 8, 80, 111
10, 104448, Note_off_c, 8, 85, 64
10, 104448, Note_off_c, 8, 85, 64
10, 104448, Note_on_c, 8, 85, 119
10, 104640, Note_off_c, 8, 85, 64
10, 104640, Note_off_c, 8, 85, 64
10, 104736, Note_on_c, 8, 85, 96
10, 105024, Note_on_c, 8, 80, 111
10, 105408, Note_on_c, 8, 80, 110
10, 105600, Note_off_c, 8, 85, 64
10, 105712, Note_on_c, 8, 85, 110
10, 105792, Note_on_c, 8, 80, 111
10, 105984, 88160, Note_on_c, 5, 61, 96
10, 105984, Note_on_c, 8, 85, 119
10, 107328, Note_on_c, 8, 80, 110
10, 107520, Note_off_c, 8, 85, 64
10, 107520, Note_on_c, 8, 85, 119
10, 107728, Note_off_c, 8, 85, 64
10, 108480, Note_off_c, 8, 85, 64
10, 109056, Note_on_c, 8, 85, 96
10, 109312, Note_off_c, 8, 73, 64
10, 109440, Note_off_c, 8, 80, 64
10, 109824, Note_off_c, 8, 80, 64
10, 109824, Note_on_c, 3, 44, 110
10, 109824, Note_off_c, 8, 85, 64
10, 110592, Note_off_c, 8, 85, 64
10, 110784, Note_on_c, 8, 76, 94
10, 111936, Note_on_c, 64
10, 112800, Note_on_c, 8576, Note_on_c, 1, 73, 110
10, 113280, Note_off_c, 8, 76, 64
10, 113856, Note_off_c, 8, 73, 64
10, 146288, Note_on_c, 8, 71, 86
10, 148416, Note_on_c, 8, 75, 86
10, 150144, Note_off_c, 8, 76, 64
10, 150144, Note_on_c, 8, 76, 110
10, 150720, Note_on_c, 8, 71, 86
10, 150832, Note_off_c, 8, 75, 64
10, 152032, Note_on_c, 8, 69, 86
10, 152256, Note_on_c, 8, 76, 86
10, 152256, Note_off_c, 8, 69, 64
10, 153024, Note_on_c, 8, 75, 86
10, 153600, Note_on_c, 8, 75, 86
10, 153696, Note_off_c, 8, 69, 64
10, 153792, Note_off_c, 8, 75, 64
10, 154176, Note_on_c, 8, 76, 110
10, 154352, Note_on_c, 8, 87, 110
10, 154752, Note_off_c, 8, 78, 64
10, 154944, Note_on_c, 8, 85, 110
10, 155328, Note_on_c, 8, 79, 110
10, 155328, Note_off_c, 8, 76, 64
10, 155712, Note_on_c, 8, 76, 110
10, 155712, Note_off_c, 8, 79, 64
10, 155904, Note_on_c, 8, 75, 110
10, 155904, 156288, Control_c, 0, 7, 63
10, 156096, Note_on_c, 8, 76, 110
10, 156096, Note_off_c, 8, 75, 64
10, 156288, Note_off_c, 8, 85, 64
10, 156288, Note_off_c, 8, 83, 64
10, 156384, Note_on_c, 8, 80, 110
10, 156448, Note_on_c, 8, 75, 86
10, 156480, Note_off_c, 8, 75, 64
10, 156480, Note_off_c, 8, 83, 64
10, 156688, Note_on_c, 8, 69, 86
10, 156864, Note_off_c, 8, 76, 64
10, 156864, Note_off_c, 8, 68, 64
10, 156864, Note_off_c, 8, 75, 64
10, 156864, Note_on_c, 8, 78, 110
10, 156864, Note_on_c, 8, 85, 110
10, 157632, Note_off_c, 8, 70, 64
10, 158208, Note_off_c, 8, 83, 64
10, 158208, Note_on_c, 8, 63, 86
10, 158208, Note_on_c, 8, 75, 86
10, 158976, Note_on_c, 8, 69, 86
10, 159744, Control_c, 9, 7, 100
10, 159744, Note_off_c, 8, 76, 64
10, 159904, Note_off_c, 8, 75, 64
10, 162016, Note_on_c, 8, 76, 86
10, 163008, Note_on_c, 8, 71, 86
10, 163008, Note_off_c, 8, 79, 64
10, 163392, Note_off_c, 8, 73, 64
10, 163392, Note_off_c, 8, 76, 64
10, 163488, Note_on_c, 8, 69, 86
10, 163584, Note_off_c, 8, 73, 64
10, 163584, Note_on_c, 8, 75, 86
10, 163584, Note_off_c, 8, 69, 64
10, 163680, Note_off_c, 8, 73, 64
10, 163776, Note_off_c, 8, 73, 64
10, 163776, Note_off_c, 8, 75, 64
10, 163776, Note_on_c, 8, 60, 86
10, 163904, Note_on_c, 8, 63, 86
10, 163968, Note_on_c, 8, 73, 86
10, 163968, Note_on_c, 8, 73, 86
10, 163984, Note_off_c, 8, 75, 64
10, 164160, Note_off_c, 8, 79, 64
10, 164160, Note_on_c, 8, 69, 86
10, 165088, Note_off_c, 8, 73, 64
10, 165120, Note_on_c, 8, 75, 86
10, 165120, Note_on_c, 8, 47, 110
10, 165312, Note_on_c, 8, 73, 86
10, 165504, Note_off_c, 8, 67, 64
10, 165504, Note_on_c, 8, 67, 86
10, 165504, Note_off_c, 8, 76, 64
10, 165696, Note_on_c, 8, 69, 86
10, 165888, Note_off_c, 8, 73, 64
10, 165888, Note_on_c, 8, 79, 86
10, 165888, Note_off_c, 8, 73, 64
10, 166368, Note_on_c, 8, 79, 110
10, 166848, Note_off_c, 8, 79, 64
10, 167808, Note_on_c, 8, 87, 110
10, 168000, Note_off_c, 8, 79, 64
10, 168288, Note_on_c, 8, 78, 110
10, 168384, Note_on_c, 8, 73, 86
10, 168384, Note_off_c, 8, 75, 64
10, 168384, Note_on_c, 8, 75, 86
10, 168576, Note_off_c, 8, 82, 64
10, 168768, 32, 64
10, 169536, Note_on_c, 8, 63, 86
10, 169536, Note_off_c, 8, 87, 64
10, 169728, Note_off_c, 8, 83, 64
10, 169728, Note_on_c, 8, 83, 110
10, 169920, Note_off_c, 8, 79, 64
10, 174720, 24224, Control_c, 3, 7, 20
10, 193152, Note_on_c, 8, 76, 65
10, 193536, Note_off_c, 8, 76, 64
10, 193536, Note_off_c, 8, 76, 64
10, 193920, Note_on_c, 8, 75, 63
10, 194192, Note_off_c, 8, 75, 64
10, 194304, Note_on_c, 8, 75, 110
10, 196224, Control_c, 1, 7, 110
10, 196224, Note_off_c, 8, 78, 64
10, 197568, Note_on_c, 8, 85, 110
10, 197568, Note_off_c, 8, 80, 64
10, 197576, Note_on_c, 8, 76, 63
10, 197796, Note_on_c, 8, 75, 63
10, 198144, Note_on_c, 8, 76, 94
10, 198560, Note_on_c, 8, 75, 63
10, 198944, Note_off_c, 8, 80, 64
10, 199104, Note_on_c, 8, 73, 55
10, 199104, Note_on_c, 8, 73, 55
10, 199200, Note_off_c, 8, 73, 64
10, 199232, Note_off_c, 8, 73, 64
10, 199296, Note_off_c, 8, 76, 64
10, 199420, Control_c, 9, 7, 76
10, 199424, Note_off_c, 8, 76, 64
10, 199552, Note_on_c, 8, 78, 110
10, 199680, Note_on_c, 8, 85, 110
10, 200032, Note_off_c, 8, 85, 64
10, 200064, Note_on_c, 8, 80, 111
10, 200064, Note_on_c, 8, 78, 102
10, 200640, Note_on_c, 8, 73, 86
10, 200640, Note_on_c, 8, 85, 96
10, 200832, Note_on_c, 8, 73, 71
10, 200832, Note_on_c, 8, 73, 73
10, 202368, Note_off_c, 8, 85, 64
10, 202368, Note_off_c, 8, 85, 64
10, 202752, Note_on_c, 8, 85, 119
10, 202752, Control_c, 8, 7, 100
10, 202752, Note_off_c, 8, 73, 64
10, 202944, Note_off_c, 8, 78, 64
10, 202944, Note_on_c, 10, 61, 82
10, 203712, Note_off_c, 8, 85, 64
10, 204096, Note_off_c, 8, 73, 64
10, 204288, Note_on_c, 8, Note_on_c, 5, 61, 64
10, 204288, Control_c, 9, 7, 100
10, 204288, Note_off_c, 8, 76, 64
10, 204672, Note_on_c, 8, 85, 96
10, 205056, 46, 64
10, 205440, Note_off_c, 8, 85, 64
10, 205440, Note_off_c, 8, 76, 64
10, 205632, Note_on_c, 8, 73, 73
10, 205632, Note_off_c, 8, 78, 64
10, 205920, Note_on_c, 8, 76, 79
10, 206016, Note_off_c, 8, 80, 64
10, 206016, Note_on_c, 8, 80, 91
10, 206016, Program_c, 1, 56
10, 206208, Note_on_c, 8, 78, 102
10, 206304, Note_on_c, 8, 80, 88
10, 206400, Note_off_c, 9, 53, 64
10, 206784, Note_on_c, 8, 75, 63
10, 207552, Note_on_c, 8, 75, 63
10, 207968, Note_off_c, 8, 75, 64
10, 208192, Note_on_c, 8, 76, 55
10, 208320, Note_off_c, 8, 75, 64
10, 208896, Note_off_c, 8, 78, 64
10, 209472, Note_off_c, 8, 88, 64
10, 220000, Note_on_c, 8, 73, 86
10, 222000, End_track
10
10, 199456, Note_on_c, 8, 80, 88
10, 222000, End_track
10, 222528, Note_on_c, 0, 61, 64
10, 226752, Note_off_c, 8, 75, 64
10, 229920, Note_off_c, 0, 74, 64
10, 232080, Control_c, 0, 7, 66
11, 0, Title_t, "Mantast"
11, 0, Control_c, 9, 7, 100
11, 0, Start_track
11, 2, 7, 79, 96
11, 4
11, 5, 810, Note_on_c, 8, 80, 111
11, 10
11, 13, 44, 64
11, 14, 217536, Note_off_c, 0, 66, 64
11, 19, 37, 110
11, 19, 44, 64
11, 43, 110
11, 44, 64
11, 44, 51168, Note_off_c, 0, 61, 64
11, 63, Note_on_c, 7, 76, 110
11, 63, 110
11, 64
11, 64, Note_off_c, 9, 36, 64
11, 80
11, 83, 110
11, 96
11, 110
11, 144, Note_on_c, 9, 46, 98
11, 144, Note_on_c, 2, 62, 64
11, 146, 64
11, 185, 134464, Note_on_c, 5, 59, 110
11, 196, Note_on_c, 0, 73, 80
11, 197
11, 224, 1, 64
11, 224, Note_off_c, 6, 71, 64
11, 225, 135936, Note_on_c, 7, 75, 74
11, 240, 187968, Note_on_c, 9, 41, 1756, Note_off_c, 9, 36, 64
11, 360
11, 444, Note_off_c, 9, 36, 64
11, 444, 110
11, 448, Note_off_c, 8, 73, 64
11, 456, 127584, Note_off_c, 1, 80, 64
11, 768, Note_off_c, 9, 36, 64
11, 1056, Note_off_c, 9, 44, 64
11, 1152, Note_on_c, 9, 44, 64
11, 1152, Note_off_c, 9, 57, 64
11, 1152, Note_off_c, 9, 46, 64
11, 1152, Note_on_c, 9, 46, 98
11, 1184, Note_on_c, 9, 36, 110
11, 1248, Note_off_c, 8, 78, 64
11, 1264
11, 1344, Note_off_c, 9, 36, 64
11, 1344
11, 1344, Note_off_c, 9, 36, 64
11, 1344, Note_off_c, 9, 36, 64
11, 1344, Note_on_c, 9, 44, 96
11, 1344, Note_off_c, 9, 54, 64
11, 1344, Note_on_c, 9, 44, 96
11, 1344, Note_off_c, 9, 44, 64
11, 1344, Note_off_c, 9, 46, 64
11, 1344, Note_off_c, 9, 36, 64
11, 1344, Note_on_c, 9, 44, 96
11, 1440, Control_c, 3, 7, 53
11, 1720, Note_off_c, 8, 81, 64
11, 1920, 5, 61, 64
11, 1920, Control_c, 9, 7, 100
11, 1920, Note_on_c, 9, 44, 96
11, 1927, 76, 72
11, 2012, Note_off_c, 7, 71, 64
11, 2496, Note_on_c, 9, 46, 110
11, 2496, Note_off_c, 9, 36, 64
11, 3456, Note_on_c, 5, 61, 110
11, 3648, Note_on_c, 9, 44, 64
11, 3724, Control_c, 2, 7, 66
11, 4400, Note_off_c, 9, 36, 64
11, 4608, 64
11, 4992, Note_on_c, 9, 44, 64
11, 5184, Note_off_c, 5, 61, 64
11, 5232, Note_off_c, 9, 44, 64
11, 6028, Note_on_c, 0, 74, 110
11, 6048, Note_off_c, 9, 44, 64
11, 6320, Note_on_c, 7, 71, 110
11, 6336, Note_on_c, 9, 46, 9729, 46, 64
11, 6796, Note_on_c, 7, 87, 110
11, 6832, Note_on_c, 9, 44, 64
11, 7104, Note_off_c, 9, 44, 64
11, 7296, Note_off_c, 9, 38, 64
11, 8044, Note_on_c, 5, 61, 96
11, 8064, Note_off_c, 9, 36, 64
11, 8064, Note_on_c, 9, 44, 64
11, 8084, Note_on_c, 1, 69, 64
11, 8224, Note_on_c, 9, 36, 110
11, 8256, Note_on_c, 9, 44, 96
11, 8352, Note_on_c, 5, 61, 76, 86
11, 8544, 110
11, 9312, Note_off_c, 9, 44, 64
11, 9408, Note_off_c, 9, 36, 64
11, 9792, Note_on_c, 9, 44, 96
11, 9984, Note_on_c, 9, 44, 97
11, 10144, Note_off_c, 9, 44, 64
11, 10272, Control_c, 9, 91, 108
11, 10560, Note_on_c, 9, 46, 96
11, 10752, Note_off_c, 9, 44, 64
11, 11136, Note_off_c, 9, 44, 64
11, 11232, Note_off_c, 9, 44, 64
11, 11232, Note_off_c, 9, 44, 64
11, 11232, Note_on_c, 4, 37, 123824, Control_c, 4, 7, 47
11, 11232, Note_off_c, 9, 44, 64
11, 11232, Note_off_c, 9, 44, 64
11, 11328, Note_on_c, 9, 36, 110
11, 11328, Note_on_c, 9, 44, 96
11, 11360, Note_on_c, 9, 44, 96
11, 11424, Note_off_c, 9, 44, 64
11, 11500, Note_off_c, 8, 75, 64
11, 11520, Note_off_c, 9, 35, 64
11, 11520, Note_on_c, 9, 44, 64
11, 11520, Note_on_c, 9, 44, 78
11, 11520, Note_on_c, 9, 44, 78
11, 11520, Note_off_c, 9, 46, 64
11, 11520, Note_off_c, 9, 44, 64
11, 11520, Note_on_c, 9, 44, 64
11, 11520, Note_on_c, 9, 44, 64
11, 11520, Note_off_c, 9, 44, 64
11, 11520, Note_on_c, 9, 44, 64
11, 11824, Control_c, 9, 7, 100
11, 11856, Note_on_c, 9, 44, 78
11, 12192, Note_off_c, 6, 68, 64
11, 12288, Control_c, 1, 7, 10
11, 12288, Note_off_c, 9, 44, 64
11, 12288, Note_off_c, 9, 36, 64
11, 12288, Note_on_c, 9, 44, 96
11, 12288, Note_off_c, 9, 44, 64
11, 12384, Note_off_c, 9, 44, 64
11, 12384, Note_off_c, 9, 44, 64
11, 12480, Note_on_c, 9, 44, 64
11, 12480, Note_off_c, 9, 44, 64
11, 12480, Note_off_c, 9, 44, 64
11, 12480, Note_on_c, 9, 44, 96
11, 12576, Note_off_c, 9, 44, 64
11, 12672, Note_on_c, 9, 44, 64
11, 12672, Note_off_c, 9, 38, 64
11, 12896, Note_off_c, 6, 75, 64
11, 12992, Note_off_c, 9, 44, 64
11, 13024, Note_on_c, 9, 44, 78
11, 13056, Note_off_c, 9, 36, 64
11, 13056, Note_on_c, 9, 36, 110
11, 13248, Note_on_c, 9, 44, 110
11, 13248, Note_off_c, 9, 44, 64
11, 13248, Note_off_c, 9, 36, 64
11, 13440, Note_on_c, 9, 44, 110
11, 13440, Note_on_c, 9, 44, 110
11, 13440, Note_on_c, 9, 44, 110
11, 13440, Note_on_c, 9, 36, 110
11, 13632, Note_off_c, 9, 46, 64
11, 13632, Note_on_c, 9, 57, 110
11, 13632, Note_on_c, 9, 36, 110
11, 13632, Note_off_c, 9, 38, 64
11, 13632, Note_off_c, 9, 36, 64
11, 13632, Note_on_c, 9, 46, 9, 26504, Control_c, 1, 7, 80
11, 13632, Note_off_c, 9, Note_off_c, 0, 75, 64
11, 13632, Note_on_c, 9, 44, 110
11, 13664, Control_c, 9, 7, 100
11, 13728, Note_on_c, 9, 36, 110
11, 13728, Note_on_c, 9, 44, 110
11, 13728, Note_off_c, 9, 44, 64
11, 13736, Note_off_c, 9, 46, 64
11, 13824, Note_on_c, 9, 44, 96
11, 13824, Note_off_c, 9, 44, 64
11, 13824, Program_c, 9, 0, Control_c, 3, 7, 99
11, 13824, Program_c, Note_off_c, 4, 37, 64
11, 13824, Note_off_c, 9, 44, 64
11, 13824, Note_on_c, 9, 44, 64
11, 13824, Note_on_c, 9, 44, 64
11, 13824, Program_c, 9, 0
11, 13824, Note_on_c, 9, 36, 110
11, 13824, Note_on_c, 9, 44, 110
11, 13824, Note_off_c, 9, 44, 64
11, 14016, Note_on_c, 9, 44, 64
11, 14016, Note_off_c, 9, 44, 64
11, 14080, Note_off_c, 9, 44, 64
11, 14208, Note_on_c, 9, 44, 64
11, 14208, Note_on_c, 9, 44, 110
11, 14400, Note_on_c, 9, 36, 110
11, 14400, Control_c, 9, 7, 100
11, 14400, Note_off_c, 9, 38, 64
11, 14400, Note_on_c, 9, 44, 64
11, 14400, Note_on_c, 9, 44, 64
11, 14400, Note_on_c, 9, 36, 110
11, 14400, Note_on_c, 9, 46, 110
11, 14400, Note_on_c, 9, 38, 110
11, 14592, Note_on_c, 9, 44, 64
11, 14592, Note_off_c, 9, 36, 64
11, 14592, Note_on_c, 9, 44, 64
11, 14592, Note_off_c, 9, 38, 64
11, 14688, Note_off_c, 9, 44, 64
11, 14784, Note_on_c, 9, 36, 110
11, 14784, Note_on_c, 9, 44, 96
11, 14784, Note_on_c, 9, 44, 96
11, 14784, Note_on_c, 9, 44, 96
11, 14784, Note_off_c, 9, 44, 64
11, 14784, Note_on_c, 9, 44, 96
11, 14784, Note_on_c, 9, 44, 64
11, 14784, Note_on_c, 9, 36, 110
11, 14784, Note_on_c, 9, 36, 110
11, 14816, Note_off_c, 9, 44, 64
11, 14816, Note_on_c, 9, 44, 96
11, 14912, Note_off_c, 9, 44, 64
11, 14976, Note_on_c, 9, 44, 64
11, 14976, Note_off_c, 9, 44, 64
11, 15168, Note_off_c, 9, 44, 64
11, 15360, Note_on_c, 9, 44, 96
11, 15360, Note_off_c, 9, 44, 64
11, 15456, Note_off_c, 9, 44, 64
11, 15456, Note_off_c, 3, 7, 24
11, 15744, Note_on_c, 9, 36, 110
11, 15744, Note_on_c, 9, 44, 64
11, 15744, Note_on_c, 9, 36, 110
11, 15936, Note_off_c, 9, 46, 64
11, 15936, Note_on_c, 9, 46, 97
11, 16128, Note_on_c, 9, 36, 110
11, 16128, Note_off_c, 9, 44, 64
11, 16128, Note_on_c, 9, 36, 110
11, 16192, Note_on_c, 9, 36, 110
11, 16320, Note_off_c, 9, 44, 64
11, 16416, Note_off_c, 9, 38, 64
11, 16480, Note_off_c, 9, 44, 64
11, 16704, Note_off_c, 9, 44, 64
11, 16704, Note_on_c, 9, 44, 96
11, 16704, Note_off_c, 9, 44, 67312, Note_off_c, 9, 36, 64
11, 16704, Note_off_c, 9, 44, 64
11, 16704, Note_on_c, 9, 36, 110
11, 16704, Note_off_c, 9, 44, 64
11, 16800, Note_off_c, 9, 36, 64
11, 16896, Note_off_c, 9, 46, 64
11, 16924
11, 17280, Note_off_c, 9, 46, 64
11, 17280, Note_off_c, 9, 44, 64
11, 17376, Note_on_c, 9, 44, 96
11, 17440, Note_on_c, 9, 44, 64
11, 17472, Note_off_c, 9, 46, 64
11, 17472, Note_on_c, 9, 44, 110
11, 17568, Note_off_c, 9, 44, 64
11, 17824, Note_on_c, 9, 36, 110
11, 17856, Note_off_c, 9, 44, 64
11, 17856, Note_off_c, 9, 36, 64
11, 18048, Note_on_c, 9, 44, 110
11, 18144, Note_off_c, 9, 44, 64
11, 18240, Note_off_c, 9, 44, 64
11, 18240, Note_on_c, 9, 36, 110
11, 18432, Note_off_c, 9, 46, 64
11, 18432, Note_on_c, 9, 44, 64
11, 18432, Note_on_c, 9, 46, 97
11, 18432, Note_off_c, 9, 36, 64
11, 18432, Note_off_c, 9, 46, 64
11, 18720, Note_off_c, 9, 44, 64
11, 18816, Note_off_c, 9, 36, 64
11, 19008, Note_on_c, 9, 44, 96
11, 19008, Note_on_c, 9, 38, 110
11, 19008, Note_on_c, 9, 44, 110
11, 19104, Control_c, 9, 7, 100
11, 19200, Note_on_c, 9, 44, 96
11, 19200, Note_off_c, 9, 36, 64
11, 19200, Note_off_c, 9, 36, 64
11, 19200, Note_off_c, 9, 36, 64
11, 19200, Note_off_c, 9, 38, 64
11, 19200, Note_on_c, 9, 44, 64
11, 19200, Note_off_c, 9, 36, 64
11, 19200, Note_on_c, 9, 44, 96
11, 19200, Note_off_c, 9, 36, 64
11, 19584, Note_on_c, 9, 44, 96
11, 19584, Note_on_c, 9, 38, 110
11, 19584, Note_on_c, 9, 44, 96
11, 19584, Note_on_c, 9, 44, 96
11, 19680, Note_on_c, 9, 44, 96
11, 19728, Note_off_c, 9, 36, 64
11, 19776, Note_off_c, 9, 44, 64
11, 19776, Note_off_c, Note_on_c, 4, 40, 110
11, 19776, Note_off_c, 9, 38, 64
11, 19776, Note_off_c, 9, 44, 64
11, 19776, Note_off_c, 9, 46, 64
11, 19776, Note_on_c, 9, 44, 610, 71, 64
11, 19776, Note_off_c, 9, 36, 64
11, 19776, Note_off_c, 9, 36, 64
11, 19776, Note_off_c, 9, 46, 64
11, 19792, Note_off_c, 9, 36, 64
11, 19808, Note_off_c, 9, 44, 64
11, 19872, Note_off_c, 9, 44, 64
11, 19904, Note_off_c, 9, 36, 64
11, 19968, Note_off_c, 9, 44, 64
11, 19968, Note_on_c, 9, 44, 96
11, 19968, Note_on_c, 9, 36, 110
11, 19968, Note_on_c, 9, 44, 64
11, 20928, Note_on_c, 9, 46, 96
11, 22656, Note_on_c, 9, 46, 96
11, 23232, Note_on_c, 9, 44, 110
11, 23344, Note_on_c, 9, 36, 110
11, 23616, Note_on_c, 1, 61, 81
11, 23616, Note_on_c, 9, 44, Note_off_c, 9, 44, 64
11, 24288, Note_off_c, 9, 44, 64
11, 24384, Note_off_c, 9, 44, 64
11, 24384, Note_on_c, 9, 44, 100
11, 24960, Note_off_c, 9, 76, 64
11, 24960, Note_on_c, 9, 44, 96
11, 24960, Control_c, 9, 7, 100
11, 25536, Note_on_c, 9, 44, 78
11, 25920, Note_off_c, 9, 38, 64
11, 28608, Note_off_c, 9, 44, 64
11, 29568, Note_off_c, 9, 44, 64
11, 29872, Note_on_c, 9, 44, 110
11, 30336, Note_on_c, 9, 44, 64
11, 30624, Note_off_c, 9, 38, 64
11, 31392, Note_off_c, 9, 44, 64
11, 32256, Note_on_c, 9, 44, 64
11, 33001, Note_on_c, 0, 61, 64
11, 33024, Note_off_c, 9, 44, 64
11, 33216, Note_off_c, 9, 38, 64
11, 33216, Note_off_c, 9, 44, 64
11, 33216, Note_on_c, 9, 44, 96
11, 33216, Note_off_c, 9, 36, 64
11, 33216, Note_on_c, 9, 44, 96
11, 33312, Note_off_c, 9, 44, 64
11, 33312, Note_off_c, 9, 44, 64
11, 33408, Note_off_c, 9, 44, 64
11, 33408, Note_off_c, 9, 38, 64
11, 33408, Note_off_c, 9, 44, 64
11, 33408, Note_on_c, 9, 44, 110
11, 33408, Note_off_c, 9, 44, 64
11, 33408, Note_on_c, 9, 44, 96
11, 33472, Note_off_c, 9, 46, 64
11, 33504, Note_on_c, 9, 38, 110
11, 33504, Note_off_c, 9, 44, 64
11, 33600, Note_off_c, 9, 44, 64
11, 33600, Note_off_c, 9, 44, 64
11, 33600, Control_c, 9, 7, 43
11, 33600, Note_off_c, 9, 36, 64
11, 33696, Note_off_c, 9, 44, 64
11, 33728, Note_off_c, 9, 44, 64
11, 33792, Note_on_c, 9, 44, 110
11, 33792, Control_c, 9, 7, 64
11, 33792, Control_c, 9, 7, 100
11, 33792, Note_on_c, 9, 44, 96
11, 33792, Note_on_c, 9, 41, 110
11, 33984, Note_on_c, 9, 44, 96
11, 33984, Note_on_c, 9, 38, 110
11, 33984, Note_on_c, 9, 44, 96
11, 33984, Note_off_c, 9, 38, 64
11, 33984, Note_on_c, 9, 44, 96
11, 33984, Note_on_c, 9, 44, 64
11, 34176, Note_off_c, 9, 38, 64
11, 34176, Note_off_c, 9, 42, 64
11, 34176, Note_on_c, 9, 44, 64
11, 34240, Note_off_c, 991200, Control_c, 2, 7, 69
11, 34272, Note_off_c, 9, 44, 64
11, 34272, Note_off_c, 9, 44, 64
11, 34368, Note_on_c, 9, 42, 110
11, 34464, Note_off_c, 9, 44, 64
11, 34560, Note_off_c, 9, 44, 64
11, 34560, Note_on_c, 9, 44, 96
11, 34624, Note_off_c, 8, 68, 64
11, 34656, Note_off_c, 9, 38, 64
11, 34752, Note_on_c, 9, 44, 64
11, 34784, Note_off_c, 9, 46, 64
11, 34784, Note_off_c, 9, 38, 64
11, 34904, Note_off_c, 9, 44, 64
11, 35232, Note_off_c, 9, 44, 64
11, 35328, Note_off_c, 9, 38, 64
11, 35616, Note_on_c, 9, 44, 64
11, 35904, Note_on_c, 9, 44, 96
11, 35904, Note_off_c, 9, 36, 64
11, 35936, Note_off_c, 9, 3, 3, 40, 64
11, 36032, Note_off_c, 9, 44, 64
11, 36032, Note_on_c, 9, 36, 110
11, 36064, Note_off_c, 9, 36, 64
11, 36096, Note_on_c, 9, 44, 110
11, 36288, Note_off_c, 9, 44, 64
11, 36480, Note_off_c, 9, 38, 64
11, 36672, Note_on_c, 9, 36, 110
11, 36704, Note_off_c, 9, 44, 64
11, 36864, Note_off_c, 9, 38, 64
11, 37024, Note_on_c, 9, 44, 96
11, 37056, 7, 64
11, 37056, Note_off_c, 9, 36, 64
11, 37248, Note_on_c, 9, 44, 96
11, 37248, Note_on_c, 5, 61, 96
11, 37344, Note_off_c, 9, 44, 64
11, 37344, Note_off_c, 9, 44, 64
11, 37440, Note_on_c, 9, 44, 96
11, 37728, Note_off_c, 9, 44, 64
11, 38496, Note_on_c, 9, 44, 64
11, 38688, Note_on_c, 9, 44, 96
11, 39456, Note_off_c, 9, 46, 64
11, 39552, Note_on_c, 9, 44, 64
11, 39552, Note_on_c, 9, 46, 110
11, 39552, Note_on_c, 9, 44, 64
11, 39968, Note_on_c, 9, 44, 96
11, 40224, Note_on_c, 9, 44, 64
11, 40480, Note_off_c, 9, 38, 64
11, 40512, Note_on_c, 9, 44, 110
11, 40720, Note_on_c, 9, 46, 110
11, 41152, Note_off_c, 9, 44, 64
11, 41280, Note_on_c, 9, 44, 64
11, 41664, Note_on_c, 9, 38, 110
11, 41856, Note_on_c, 9, 46, 110
11, 41856, Note_on_c, 9, 44, 64
11, 41856, Note_on_c, 9, 46, 110
11, 42240, Note_off_c, 9, 38, 64
11, 42336, Note_off_c, 9, 44, 64
11, 42816, Note_off_c, 9, 44, 64
11, 43008, Note_on_c, 9, 36, 110
11, 43104, 6, Note_off_c, 2, 57, 64
11, 43104, Note_on_c, 9, 44, 963360, Control_c, 3, 7, 22
11, 43200, Note_off_c, 9, 38, 64
11, 43200, Note_off_c, 9, 46, 64
11, 43200, Note_off_c, 9, 36, 64
11, 43200, Note_off_c, 9, 44, 64
11, 43296, Note_on_c, 9, 44, 64
11, 43392, Note_on_c, 9, 44, 96
11, 43488, Note_off_c, 9, 44, 64
11, 43584, Note_on_c, 9, 46, 110
11, 43584, Note_off_c, 9, 36, 64
11, 43584, Note_on_c, 9, 44, 96
11, 43680, Note_off_c, 9, 44, 64
11, 43680, Note_off_c, 9, 44, 64
11, 43680, Note_off_c, 9, 44, 64
11, 43680, Note_off_c, 9, 44, 64
11, 43776, Note_on_c, 9, 38, 110
11, 43776, Note_off_c, 9, 38, 64
11, 43776, Note_off_c, 9, 38, 64
11, 43776, Note_on_c, 9, 38, 110
11, 43872, Note_on_c, 9, 44, 64
11, 43872, Note_off_c, 9, 44, 64
11, 43872, Note_off_c, 9, 38, 64
11, 43968, Note_on_c, 9, 44, 110
11, 44160, Note_on_c, 9, 36, 110
11, 44256, Note_off_c, 7, 76, 64
11, 44352, Note_on_c, 9, 44, 96
11, 44352, Note_on_c, 9, 44, 110
11, 44352, Note_on_c, 9, 38, 110
11, 44352, Note_on_c, 9, 44, 96
11, 44352, Note_on_c, 9, 46, 110
11, 44352, Note_on_c, 9, 46, 110
11, 44448, Note_off_c, 9, 44, 64
11, 44448, Note_off_c, 9, 44, 64
11, 44640, Note_off_c, 9, 44, 64
11, 44640, Note_off_c, 9, 44, 64
11, 44736, Note_on_c, 9, 38, 110
11, 44736, Note_off_c, 9, 36, 64
11, 44736, Note_on_c, 9, 44, 96
11, 44928, Note_off_c, 9, 44, 64
11, 44928, Note_off_c, 9, 36, 64
11, 45024, Note_off_c, 9, 44, 64
11, 45120, Note_on_c, 9, 44, 64
11, 45120, Note_off_c, 3, 33, 64
11, 45408, Note_off_c, 9, 44, 64
11, 45408, Note_off_c, 9, 38, 64
11, 45408, Note_off_c, 9, 44, 64
11, 45504, Note_on_c, 9, 38, 110
11, 45600, Note_on_c, 9, 44, 110
11, 45696, Note_off_c, 9, 44, 64
11, 45696, Note_off_c, 9, 44, 64
11, 45696, Note_on_c, 9, 44, 110
11, 45888, Note_on_c, 9, 44, 96
11, 45888, Note_off_c, 6, 63, 64
11, 46080, Control_c, 9, 7, 37
11, 46080, Note_off_c, 9, 44, 64
11, 46080, Control_c, 9, 7, 100
11, 46080, Note_on_c, 44, 64
11, 46080, Control_c, 9, 7, 4, 76, 64
11, 46080, Note_off_c, 9, 44, 64
11, 46272, Note_on_c, 9, 44, 96
11, 46272, Note_off_c, 9, 38, 64
11, 46272, Note_off_c, 9, 38, 64
11, 46272, Note_on_c, 9, 44, 96
11, 46272, Note_off_c, 9, 36, 64
11, 46272, Note_off_c, 9, 44, 64
11, 46464, Note_on_c, 9, 44, 64
11, 46560, Note_on_c, 9, 38, 110
11, 46560, Note_off_c, 9, 44, 64
11, 46656, Note_on_c, 9, 44, 64
11, 46784, Note_off_c, 9, 44, 64
11, 46848, Note_on_c, 9, 36, 110
11, 46848, Note_on_c, 9, 44, 110
11, 46848, Note_off_c, 9, 38, 64
11, 46848, Note_off_c, 9, 38, 64
11, 46848, Note_off_c, 9, 44, 64
11, 46848, Note_off_c, 9, 44, 64
11, 46848, Note_off_c, 9, 38, 64
11, 46848, Note_on_c, 9, 44, 96
11, 46848, Note_off_c, 9, 38, 64
11, 46848, Note_off_c, 9, 44, 64
11, 46880, Note_off_c, 9, 38, 64
11, 46912, Note_off_c, 9, 44, 64
11, 46944, Note_off_c, 9, 38, 64
11, 46944, Note_off_c, 9, 44, 64
11, 46944, Note_off_c, 9, 44, 64
11, 47236, Note_off_c, 9, 44, 64
11, 47520, Note_off_c, 9, 44, 64
11, 47808, Note_on_c, 9, 44, 64
11, 47840, Note_on_c, 9, 44, 64
11, 48576, Note_off_c, 9, 44, 64
11, 48576, Note_on_c, 9, 44, 96
11, 48576, Note_off_c, 9, 38, 64
11, 48768, Note_on_c, 9, 44, 64
11, 48960, Note_off_c, 9, 38, 64
11, 49152, Note_on_c, 9, 38, 110
11, 49152, Note_on_c, 9, 44, 110
11, 49152, Note_on_c, 9, 44, 96
11, 49152, Note_on_c, 9, 44, 64
11, 49152, Note_on_c, 9, 44, 96
11, 49248, Note_off_c, 9, 44, 64
11, 49344, Note_on_c, 9, 44, 64
11, 49536, Note_on_c, 9, 44, 64
11, 49632, Note_off_c, 9, 44, 64
11, 49728, Note_on_c, 9, 38, 110
11, 49824, Note_off_c, 9, 44, 64
11, 50144, Note_on_c, 9, 38, 110
11, 50304, Note_off_c, 9, 44, 64
11, 50304, 64
11, 50592, Note_off_c, 9, 44, 64
11, 51264, Note_on_c, 9, 86, 110
11, 51264, Note_off_c, 9, 46, 64
11, 51456, Note_on_c, 9, 44, 64
11, 51456, Note_off_c, 9, 38, 64
11, 51456, Note_on_c, 9, 46, 110
11, 51744, Note_on_c, 9, 44, 110
11, 51840, Note_off_c, 9, 44, 64
11, 51840, Note_on_c, 9, 44, 64
11, 52032, Note_on_c, 9, 44, 64
11, 52224, Program_c, 9, 0
11, 52224, Program_c, 9, 0
11, 52224, Control_c, 9, 7, 100
11, 52224, Control_c, 9, 7, 100
11, 52224, Note_off_c, 9, 44, 64
11, 52224, Control_c, 9, 7, 100
11, 52416, Note_off_c, 9, 36, 64
11, 52800, Note_on_c, 9, 44, 64
11, 53184, Note_off_c, 9, 36, 64
11, 53184, Note_off_c, 9, 38, 64
11, 53184, Note_on_c, 9, 38, 110
11, 53344, Note_off_c, 9, 44, 64
11, 53376, Note_on_c, 9, 44, 96
11, 53376, Note_off_c, 9, 44, 64
11, 53376, Note_off_c, 9, 36, 64
11, 53440, Note_on_c, 9, 46, 110
11, 53568, Note_on_c, 9, 44, 96
11, 53760, Note_on_c, 9, 44, 96
11, 53952, Note_on_c, 9, 36, 110
11, 54144, Note_off_c, 9, 36, 64
11, 54144, Note_off_c, 9, 44, 64
11, 54240, Note_off_c, 9, 44, 64
11, 54336, Note_on_c, 9, 44, 64
11, 54432, Note_on_c, 9, 46, 110
11, 54912, Note_on_c, 9, 44, 64
11, 54912, Note_on_c, 9, 44, 96
11, 54912, Note_off_c, 9, 36, 64
11, 54912, Note_on_c, 9, 44, 96
11, 54936, Note_on_c, 9, 38, 110
11, 55104, Note_off_c, 9, 38, 64
11, 55200, Note_off_c, 9, 38, 64
11, 55680, Note_on_c, 9, 44, 64
11, 55872, Note_off_c, 9, 44, 64
11, 56256, Note_off_c, 9, 36, 64
11, 57024, Note_off_c, 9, 38, 64
11, 57024, Note_off_c, 9, 44, 64
11, 57184, Note_off_c, 9, 46, 64
11, 57216, Note_off_c, 9, 36, 64
11, 57216, Note_off_c, 9, 36, 64
11, 57216, Note_on_c, 9, 36, 110
11, 58176, Note_on_c, 9, 44, 64
11, 58560, Note_off_c, 9, 44, 64
11, 59136, Note_on_c, 9, 38, 110
11, 59328, Note_on_c, 9, 44, 64
11, 59424, Note_off_c, 9, 44, 64
11, 59520, Note_off_c, 9, 38, 64
11, 59520, Note_on_c, 9, 44, 64
11, 59520, Note_on_c, 9, 38, 110
11, 60096, Note_off_c, 9, 46, 64
11, 60096, Note_on_c, 9, 38, 110
11, 60096, Note_on_c, 9, 46, 110
11, 60096, Note_off_c, 9, 38, 64
11, 60096, Note_off_c, 9, 46, 64
11, 60096, Note_on_c, 9, 46, 110
11, 60096, Note_on_c, 9, 44, 110
11, 60096, Note_on_c, 9, 36, 110
11, 60096, Note_on_c, 9, 44, 110
11, 60096, Note_on_c, 9, 46, 110
11, 60096, Note_on_c, 9, 36, 110
11, 60096, Note_off_c, 9, 36, 64
11, 60288, Note_off_c, 9, 36, 64
11, 60288, Note_on_c, 9, 38, 110
11, 60480, Note_off_c, 9, 46, 64
11, 60480, Note_on_c, 9, 46, 110
11, 60480, Note_off_c, 9, 44, 64
11, 60664, Note_on_c, 9, 46, 110
11, 60672, Note_off_c, 9, 44, 64
11, 60672, Note_off_c, 9, 38, 64
11, 60672, Note_off_c, 9, 38, 64
11, 60672, Note_off_c, 9, 44, 64
11, 60672, Note_off_c, 9, 44, 64
11, 60864, Note_off_c, 9, 36, 64
11, 60960, Note_off_c, 9, 44, 64
11, 61216, Note_on_c, 9, 46, 110
11, 61248, Note_on_c, 9, 44, Note_on_c, Note_on_c, 5, 63, 110
11, 62208, Note_off_c, 9, 36, 64
11, 62208, Note_off_c, 9, 44, 64
11, 62592, Note_off_c, 9, 46, 64
11, 63168, Note_on_c, 9, 44, 96
11, 63344, Note_on_c, 9, 44, 64
11, 63344, Note_on_c, 9, 44, 110
11, 63360, Note_off_c, 9, 38, 64
11, 63360, Note_off_c, 9, 44, 64
11, 63360, Note_off_c, 9, 36, 64
11, 63360, Note_on_c, 9, 44, 96
11, 63360, Note_on_c, 9, 44, Control_c, 3, 7, 80
11, 63360, Note_off_c, 9, 36, 64
11, 63360, Note_on_c, 9, 38, 110
11, 63360, Note_off_c, 9, 36, 64
11, 63360, Note_off_c, 9, 38, 64
11, 63456, Note_off_c, 7, 68, 64
11, 63488, Note_off_c, 9, 44, 64
11, 63552, Note_off_c, 9, Note_off_c, 2, 66, 64
11, 63552, Note_off_c, 9, 38, 64
11, 63552, Note_off_c, 9, 38, 64
11, 63648, Note_off_c, 9, 44, 64
11, 63744, Note_on_c, 9, 46, 110
11, 63936, Note_off_c, 9, 46, 64
11, 64032, Note_off_c, 9, 46, 64
11, 64128, Note_on_c, 9, 44, 110
11, 64128, Note_on_c, 9, 38, 110
11, 64128, Note_off_c, 9, 44, 64
11, 64128, Note_on_c, 9, 44, 96
11, 64128, Note_off_c, 9, 36, 64
11, 64128, Note_off_c, 9, 36, 64
11, 64128, Note_off_c, 7, 76, 64
11, 64224, Control_c, 9, 7, 1
11, 64304, Note_on_c, 9, 44, 96
11, 64416, Note_off_c, 9, 44, 64
11, 64480, Note_on_c, 9, 36, 110
11, 64512, Note_on_c, 9, 46, 110
11, 64512, Control_c, 9, 7, 100
11, 64512, Note_on_c, 9, 44, 110
11, 64512, Program_c, 9, 82080, Note_off_c, 9, 44, 64
11, 64608, Note_off_c, 9, 44, 64
11, 64704, Note_on_c, 9, 46, 110
11, 64704, Note_off_c, 9, 44, 64
11, 64704, Note_off_c, 9, 44, 64
11, 64704, Note_off_c, 9, 44, 64
11, 64896, Note_on_c, 9, 44, 64
11, 64912, Note_off_c, 9, 38, 64
11, 65088, Note_off_c, 9, 44, 64
11, 65088, Note_on_c, 9, 44, 64
11, 65280, Note_off_c, 9, 38, 64
11, 65312, Note_off_c, 9, 44, 64
11, 65472, Note_off_c, 9, 44, 64
11, 65472, Note_on_c, 9, 38, 110
11, 65856, Note_on_c, 9, 44, 64
11, 65888, Note_off_c, 9, 44, 64
11, 65952, Note_off_c, 9, 44, 64
11, 66048, Control_c, 9, 7, 100
11, 66232, Note_off_c, 9, 44, 64
11, 66240, Note_off_c, 9, 36, 64
11, 66240, Note_on_c, 9, 36, 110
11, 66624, Note_off_c, 9, 38, 64
11, 66816, Note_off_c, 9, 36, 64
11, 66912, Note_on_c, 9, 44, 64
11, 67200, Note_on_c, 9, 44, 96
11, 67200, Note_on_c, 9, 38, 110
11, 67200, Note_off_c, 9, 36, 64
11, 67584, Note_on_c, 9, 44, 64
11, 67584, Note_on_c, 9, 36, 110
11, 67680, Note_off_c, 9, 44, 64
11, 67968, Note_on_c, 9, 38, 110
11, 68544, Note_off_c, 5, 61, 64
11, 68736, Note_on_c, 9, 38, 110
11, 68736, Note_off_c, 9, 36, 64
11, 69120, Note_off_c, 9, 38, 64
11, 69312, Note_on_c, 9, 44, 64
11, 69312, Note_off_c, 9, 36, 64
11, 69312, Note_on_c, 9, 44, 64
11, 69472, Note_off_c, 9, 44, 64
11, 69504, Note_on_c, 9, 36, 110
11, 69504, Note_off_c, 9, 36, 64
11, 69504, Note_on_c, 9, 38, 110
11, 69504, Note_on_c, 9, 36, 110
11, 69504, Note_off_c, 9, 36, 64
11, 69696, Note_off_c, 9, 36, 64
11, 69696, Note_off_c, 9, 44, 64
11, 69696, Note_on_c, 9, 44, 110
11, 69888, Note_on_c, 9, 46, 110
11, 69888, Note_off_c, 9, 36, 64
11, 69984, Note_off_c, 9, 44, 64
11, 70464, Note_on_c, 9, 46, 110
11, 70560, Note_off_c, 9, 38, 64
11, 70656, Note_on_c, 9, 44, 110
11, 70656, Note_on_c, 9, 44, 96
11, 70656, Control_c, 9, 7, 100
11, 70752, Note_off_c, 7, 76, 64
11, 71072, Note_off_c, 9, 36, 64
11, 71232, Note_off_c, 9, 38, 64
11, 71424, Note_on_c, 9, 38, 110
11, 71424, Note_on_c, 9, 44, 96
11, 71424, Note_on_c, 9, 38, 110
11, 71616, Note_off_c, 9, 46, 64
11, 71808, Note_off_c, 9, 44, 64
11, 71808, Note_on_c, 9, 46, 110
11, 71904, Note_off_c, 9, 44, 64
11, 72000, Note_off_c, 9, 36, 64
11, 72384, Note_off_c, 9, 44, 64
11, 72384, Note_on_c, 9, 44, 110
11, 72576, Note_off_c, 9, 36, 64
11, 72960, Note_on_c, 9, 44, 96
11, 73536, Note_off_c, 9, 38, 64
11, 73728, Note_on_c, 9, 44, 96
11, 73728, Note_on_c, 9, 44, 110
11, 73920, Note_on_c, 9, 44, 110
11, 74016, Note_off_c, 9, 44, 64
11, 74080, Note_off_c, 9, 44, 64
11, 74112, Note_on_c, 9, 36, 110
11, 74208, Note_off_c, 9, 36, 64
11, 74208, Note_on_c, 9, 46, 110
11, 74304, Note_off_c, 9, 36, 64
11, 74304, Note_on_c, 9, 44, 64
11, 74496, Note_off_c, 9, 44, 64
11, 74496, Note_on_c, 9, 44, 64
11, 74496, Note_on_c, 9, 36, 110
11, 74496, Note_off_c, 9, 38, 64
11, 74688, Note_off_c, 9, 38, 64
11, 74688, Program_c, 9, 0
11, 74784, Note_off_c, 9, 44, 64
11, 74880, Note_off_c, 9, 36, 64
11, 74880, Note_off_c, 9, 38, 64
11, 76800, Note_on_c, 9, 46, 110
11, 78016, Note_off_c, 9, 38, 64
11, 79296, Note_on_c, 9, 36, 110
11, 79360, Note_off_c, 9, 36, 64
11, 79488, Note_off_c, 9, 59, 64
11, 79488, Note_off_c, 9, 36, 64
11, 79488, Note_off_c, 9, 44, 64
11, 79488, Note_off_c, 9, 38, 64
11, 79584, Note_on_c, 9, 38, 110
11, 79872, Note_on_c, 9, 38, 110
11, 79904, Note_off_c, 9, 59, 64
11, 79968, Note_off_c, 9, 44, 64
11, 80064, Note_off_c, 9, 59, 64
11, 80448, Note_off_c, 9, 36, 64
11, 80640, Note_on_c, 9, 5, 61, 11728, Note_off_c, 0, 75, 64
11, 80640, Note_off_c, 9, 59, 64
11, 80640, Note_on_c, 9, 59, 110
11, 80736, Note_on_c, 9, 59, 96
11, 80832, Note_off_c, 9, 59, 64
11, 80864, Note_on_c, 9, 38, 110
11, 80864, Note_on_c, 9, 59, 96
11, 80864, Note_off_c, 9, 59, 64
11, 80864, Note_on_c, 9, 59, 110
11, 81216, Note_off_c, 9, 59, 64
11, 81392, Note_on_c, 9, 36, 79
11, 81408, Note_on_c, 9, 59, 64
11, 81408, Note_on_c, 9, 36, 79
11, 81408, Note_off_c, 9, 59, 64
11, 81600, Note_on_c, 9, 59, 110
11, 81904, Note_off_c, 9, 36, 64
11, 81920, Note_on_c, 9, 36, 110
11, 81984, Note_on_c, 9, 59, 110
11, 81984, Note_off_c, 9, 36, 64
11, 81984, Note_off_c, 9, 36, 64
11, 82176, Note_on_c, 9, 57, 110
11, 82176, Note_off_c, 9, 59, 64
11, 82176, Note_off_c, 9, 59, 64
11, 82464, Note_on_c, 9, 36, 110
11, 82752, Note_off_c, 9, 36, 64
11, 82944, Note_on_c, 9, 59, 110
11, 82944, Note_on_c, 9, 59, 110
11, 83136, Note_on_c, 9, 59, 110
11, 83328, Note_off_c, 9, 36, 64
11, 83520, Note_off_c, 90
11, 83904, Note_off_c, 9, 59, 64
11, 83904, Note_on_c, 9, 59, 96
11, 84096, Note_on_c, 9, 59, 110
11, 84288, Note_off_c, 9, 59, 64
11, 84288, Note_on_c, 9, 59, 96
11, 84288, Note_off_c, 9, 59, 64
11, 84288, Note_on_c, 9, 59, 110
11, 84288, Note_off_c, 9, 36, 64
11, 84288, Note_off_c, 9, 36, 64
11, 84480, Note_on_c, 9, 59, 96
11, 84640, Note_off_c, 9, 59, 64
11, 84672, Note_on_c, 9, 59, Note_on_c, 9, 41, 94
11, 84676, Note_on_c, 9, 36, 110
11, 84864, Note_on_c, 9, 36, 110
11, 84864, Note_on_c, 9, 36, 110
11, 84864, Note_on_c, 9, 47, 110
11, 84896, Note_off_c, 9, 59, 64
11, 85056, Note_off_c, 9, 59, 64
11, 85248, Note_off_c, 9, 59, 64
11, 85248, Note_off_c, 9, 59, 64
11, 85248, Note_off_c, 9, 59, 64
11, 85248, Program_c, 9, 0
11, 85440, Note_off_c, 9, 38, 64
11, 85824, Note_on_c, 9, 36, 110
11, 85824, Note_on_c, 9, 59, 110
11, 86016, Program_c, 9, 0
11, 86816, Note_off_c, 9, 36, 64
11, 87344, Note_on_c, 9, 59, 110
11, 88416, Note_off_c, 9, 36, 64
11, 88512, Note_on_c, 9, 44, 110
11, 88704, Note_off_c, 9, 59, 64
11, 88704, Note_on_c, 9, 59, 110
11, 89088, Note_on_c, 9, 59, 110
11, 89280, Note_off_c, 9, 59, 64
11, 89280, Note_on_c, 9, 36, 110
11, 89664, Note_on_c, 9, 36, 110
11, 89664, Note_on_c, 9, 36, 110
11, 89760, Note_on_c, 9, 59, 110
11, 90048, Note_off_c, 9, 59, 64
11, 90112, Note_off_c, 9, 36, 64
11, 90432, Note_on_c, 9, 59, 96
11, 91200, Note_on_c, 9, 36, 110
11, 91200, Note_on_c, 9, 59, 110
11, 91392, Note_on_c, 9, 36, 110
11, 93120, Note_off_c, 9, 49, 64
11, 93312, Note_on_c, 9, 41, 8752, Note_off_c, 5, 59, 64
11, 93312, Note_off_c, 9, 59, 64
11, 93312, Note_off_c, 9, 59, 64
11, 93504, Note_off_c, 9, 36, 64
11, 93632, Note_off_c, 9, 36, 64
11, 93696, Note_off_c, 9, 59, 64
11, 93696, Note_off_c, 9, 59, 64
11, 93796, Note_on_c, 9, 36, 110
11, 94080, Note_off_c, 9, 59, 64
11, 94080, Note_on_c, 9, 36, 110
11, 94272, Note_off_c, 9, 36, 64
11, 94272, Note_off_c, 9, 36, 64
11, 94272, Note_on_c, 9, 59, 110
11, 94304, Note_on_c, 9, 59, 96
11, 94368, Note_on_c, 9, 59, 110
11, 94464, Note_off_c, 9, 38, 64
11, 94464, Note_on_c, 9, 36, 110
11, 94464, Note_off_c, 9, 36, 64
11, 94464, Note_off_c, 9, 36, 64
11, 94464, Note_on_c, 9, 46, 110
11, 94464, Note_off_c, 9, 38, 64
11, 94464, Note_on_c, 9, 36, 110
11, 94464, Note_off_c, 9, 38, 64
11, 94464, Note_on_c, 9, 38, 110
11, 94464, Note_on_c, 9, 38, 110
11, 94464, Note_off_c, 9, 36, 64
11, 94464, Note_on_c, 9, 44, 96
11, 94464, Note_off_c, 9, 36, 64
11, 94656, Note_off_c, 9, 36, 64
11, 94656, Note_on_c, 9, 59, 110
11, 94656, Note_on_c, 9, 36, 110
11, 94656, Note_off_c, 9, 59, 64
11, 94848, Note_on_c, 9, 36, 110
11, 94848, Note_off_c, 9, 36, 64
11, 94848, Note_on_c, 9, 38, 110
11, 94848, Note_off_c, 9, 36, 64
11, 94848, Note_on_c, 9, 36, 110
11, 94848, Note_off_c, 9, 38, 64
11, 94848, Note_on_c, 9, 46, 110
11, 94848, Note_off_c, 9, 44, 64
11, 94880, Note_on_c, 9, 38, 110
11, 94880, Note_on_c, 9, 38, 110
11, 94944, Note_off_c, 9, 36, 64
11, 95424, Note_off_c, 9, 44, 64
11, 95424, Note_off_c, 9, 46, 64
11, 95904, Note_off_c, 9, 36, 64
11, 96192, Note_on_c, 9, 38, 110
11, 96384, Note_on_c, 9, 44, 110
11, 97152, Note_off_c, 9, 36, 64
11, 97344, Note_off_c, 9, 44, 64
11, 97536, Note_on_c, 9, 44, 110
11, 97536, Note_on_c, 9, 49, 110
11, 97920, Note_off_c, 9, 36, 64
11, 97920, Note_off_c, 9, 36, 64
11, 99264, Note_on_c, 9, 47, 110
11, 99264, Note_on_c, 9, 36, 110
11, 99456, Note_on_c, 9, 38, 110
11, 99456, Note_on_c, 9, 38, 110
11, 99456, Note_on_c, 9, 38, 110
11, 99456, Note_on_c, 9, 44, 110
11, 99840, Note_on_c, 9, 36, 110
11, 100416, Note_on_c, 9, 46, 110
11, 100416, Note_on_c, 9, 36, 110
11, 100416, Note_on_c, 9, 44, 110
11, 100608, Note_off_c, 9, 44, 64
11, 100800, Note_off_c, 9, 46, 64
11, 101120, Note_on_c, 9, 44, 110
11, 101376, Note_off_c, 9, 53, 64
11, 102944, Note_on_c, 9, 53, 110
11, 103680, Note_off_c, 9, 53, 64
11, 104256, Note_on_c, 9, 38, 110
11, 106752, Control_c, 9, 91, 73
11, 110016, Note_off_c, 9, 38, 64
11, 110016, Note_off_c, 9, 57, 64
11, 110400, Note_on_c, 9, 44, 64
11, 111328, Note_on_c, 9, 44, 64
11, 112128, Note_on_c, 9, 45, 110
11, 112128, Note_on_c, 9, 41, 87
11, 112320, Note_on_c, 9, 36, 110
11, 112480, Note_off_c, 9, 46, 64
11, 112864, Note_on_c, 9, 44, 64
11, 112896, Note_off_c, 9, 36, 64
11, 112928, Note_off_c, 9, 41, 64
11, 112992, Note_off_c, 9, 36, 64
11, 113088, Note_on_c, 9, 36, 110
11, 113184, Note_off_c, 9, 44, 64
11, 113184, Note_off_c, 9, 36, 64
11, 113280, Note_on_c, 9, 35, 110
11, 113440, Note_on_c, 9, 3, 49, 110
11, 113488, Note_on_c, 9, 44, 64
11, 113664, Program_c, 9, 0
11, 113664, Note_on_c, 9, 44, 96
11, 113664, Program_c, 9, 0
11, 113664, Control_c, 9, 7, 100
11, 113664, Program_c, 9, 0
11, 113664, Control_c, 9, 7, 100
11, 113664, Program_c, 9, 0
11, 113856, Note_off_c, 9, 36, 64
11, 113920, Note_off_c, 9, 44, 64
11, 114240, Note_on_c, 9, 46, 98
11, 114240, Note_on_c, 9, 36, 110
11, 114432, Note_off_c, 9, 44, 64
11, 114432, Note_off_c, 9, 46, 64
11, 114816, Note_off_c, 9, 44, 64
11, 115008, Note_on_c, 9, 36, 110
11, 115008, Note_on_c, 9, 44, 78
11, 115008, Note_on_c, 9, 57, 110
11, 115104, Note_on_c, 9, 44, 78
11, 115200, Note_on_c, 9, 44, 64
11, 115200, Note_on_c, 9, 46, 98
11, 115392, Note_on_c, 9, 44, 78
11, 115392, Note_off_c, 8, 85, 64
11, 115392, Note_off_c, 9, 44, 64
11, 115584, Note_on_c, 9, 44, 78
11, 115680, Note_on_c, 9, 44, 64
11, 115936, Note_off_c, 9, 36, 64
11, 115968, Note_off_c, 9, 44, 64
11, 116432, Note_off_c, 9, 44, 64
11, 117120, Control_c, 0, 7, 78
11, 117120, Note_off_c, 9, 57, 64
11, 117312, Note_on_c, 9, 44, 64
11, 117696, Note_on_c, 9, 44, 64
11, 118176, Control_c, 9, 7, 100
11, 118176, Note_off_c, 9, 44, 64
11, 118272, Program_c, 9, 0, 3
11, 118272, Note_on_c, 9, 38, 110
11, 118560, Note_off_c, 9, 44, 64
11, 119232, Note_on_c, 9, 44, 78
11, 119424, Note_on_c, 9, 46, 99
11, 119424, Note_on_c, 9, 41, 108
11, 119616, Note_off_c, 9, 36, 64
11, 119712, Note_off_c, 9, 44, 64
11, 119824, Note_on_c, 9, 36, 110
11, 120160, Note_on_c, 9, 44, 64
11, 120192, Note_on_c, 9, 44, 64
11, 120576, Note_on_c, 9, 36, 110
11, 120960, Note_on_c, 9, 46, 110
11, 121136, Note_off_c, 9, 44, 64
11, 121152, Note_off_c, 9, 44, 64
11, 121152, Note_on_c, 9, 46, 97
11, 121248, Note_off_c, 9, 44, 64
11, 121344, Note_on_c, 9, 36, 110
11, 121344, Note_on_c, 9, 44, 78
11, 121344, Note_off_c, 9, 44, 64
11, 121920, Note_off_c, 9, 44, 64
11, 121920, Note_off_c, 9, 44, 64
11, 122118, Note_on_c, 9, 36, 110
11, 122192, Note_off_c, 9, 38, 64
11, 122208, Note_off_c, 9, 36, 64
11, 122288, Note_off_c, 9, 44, 64
11, 122400, Note_on_c, 9, 44, 64
11, 122400, Note_off_c, 9, 44, 64
11, 122880, Note_on_c, 9, 36, 110
11, 122880, Note_on_c, 9, 36, 110
11, 122880, Note_on_c, 9, 44, 96
11, 122880, Note_off_c, 9, 44, 64
11, 122880, Note_on_c, 9, 36, 110
11, 123072, Note_on_c, 9, 44, 110
11, 123072, Note_off_c, 9, 36, 64
11, 123168, Note_off_c, 9, 44, 64
11, 123232, Note_off_c, 9, 44, 64
11, 123264, Note_on_c, 9, 44, 96
11, 123264, Note_off_c, 9, 44, 64
11, 123360, Note_off_c, 9, 44, 64
11, 123840, Note_off_c, 9, 46, 64
11, 123872, Note_off_c, 9, 46, 64
11, 124032, Note_off_c, 9, 44, 64
11, 124224, Note_off_c, 9, 36, 64
11, 124224, Note_off_c, 9, 38, 64
11, 124320, Note_off_c, 9, 44, 64
11, 124416, Note_off_c, 9, 36, 64
11, 124416, Note_on_c, 9, 46, 98
11, 124416, Note_off_c, 9, 36, 64
11, 124608, Note_on_c, 9, 44, 96
11, 124608, Note_on_c, 9, 44, 64
11, 124608, Note_on_c, 9, 44, 64
11, 124800, Note_off_c, 9, 38, 64
11, 124800, Control_c, 9, 7, 100
11, 124800, Note_off_c, 9, 44, 64
11, 124800, Note_off_c, 9, 38, 64
11, 125184, Note_on_c, 9, 44, 64
11, 125376, Note_off_c, 9, 44, 64
11, 126144, Note_on_c, 9, 44, 64
11, 126144, Note_on_c, 9, 44, 64
11, 126336, Note_on_c, 9, 44, 64
11, 126912, Note_off_c, 9, 57, 64
11, 127472, Note_on_c, 9, 44, 96
11, 128240, Note_on_c, 9, 44, 64
11, 128256, Note_off_c, 9, 44, 64
11, 128640, Note_on_c, 9, 44, 96
11, 128640, Note_off_c, 9, 38, 64
11, 128832, Note_off_c, 9, 38, 64
11, 128864, Note_on_c, 9, 44, 64
11, 129312, Note_off_c, 9, 44, 64
11, 129600, Note_on_c, 9, 59, 110
11, 129904, Note_off_c, 9, 36, 64
11, 130272, Note_off_c, 9, 44, 64
11, 131328, Note_off_c, 9, 44, 64
11, 131520, Note_on_c, 9, 36, 110
11, 131904, Note_on_c, 9, 38, 110
11, 132768, Note_off_c, 9, 44, 64
11, 133152, Note_off_c, 9, 44, 64
11, 133344, Note_off_c, 9, 44, 64
11, 133744, Note_off_c, 9, 38, 64
11, 134016, Note_on_c, 9, 38, 110
11, 134304, Note_off_c, 9, 38, 64
11, 134400, Note_on_c, 9, 44, 64
11, 135168, Note_on_c, 9, 36, 110
11, 135168, Note_off_c, 9, 44, 64
11, 136128, Note_on_c, 9, 36, 110
11, 136128, Note_off_c, 9, 44, 64
11, 136128, Note_on_c, 9, 44, 64
11, 136224, Note_on_c, 9, 44, 110
11, 136224, Note_on_c, 9, 36, 110
11, 136320, Note_on_c, 9, 44, 110
11, 136320, Note_off_c, 9, 44, 64
11, 136320, Note_off_c, 9, 44, 64
11, 136320, Note_on_c, 9, 44, 64
11, 136320, Note_off_c, 9, 44, 64
11, 136320, Note_off_c, 9, 44, 64
11, 136512, Note_on_c, 9, 46, 110
11, 136700, Control_c, 9, 7, 100
11, 136704, Note_off_c, 9, 36, 64
11, 136896, Note_on_c, 9, 44, 55
11, 136896, Note_off_c, 9, 38, 64
11, 136992, Note_off_c, 9, 38, 64
11, 137472, Note_on_c, 9, 44, 96
11, 137664, Note_on_c, 9, 44, 96
11, 137856, Note_on_c, 9, 44, 96
11, 138240, Note_on_c, 9, 44, 110
11, 138240, Note_on_c, 9, 44, 66
11, 138248, Note_on_c, 9, 44, 110
11, 138432, Note_off_c, 9, 44, 64
11, 138528, Note_on_c, 9, 44, 64
11, 138816, Note_off_c, 9, 38, 64
11, 138816, Note_on_c, 9, 44, 96
11, 138912, Note_off_c, 9, 44, 64
11, 138912, Note_off_c, 9, 38, 64
11, 139392, Note_off_c, 9, 44, 64
11, 139488, Note_off_c, 9, 44, 64
11, 139584, Note_off_c, 9, 36, 64
11, 139616, Note_off_c, 9, 38, 64
11, 139936, Note_on_c, 9, 44, 64
11, 140160, Note_off_c, 9, 44, 64
11, 140448, Note_off_c, 9, 44, 64
11, 140464, Note_off_c, 9, 44, 64
11, 140544, Note_on_c, 9, 36, 110
11, 140864, Note_off_c, 9, 44, 64
11, 140928, Note_on_c, 9, 44, 96
11, 140928, Note_on_c, 9, 44, 96
11, 140960, Note_off_c, 9, 44, 64
11, 141120, Note_on_c, 9, 44, 96
11, 141120, Note_on_c, 9, 36, 110
11, 141120, Note_off_c, 9, 44, 64
11, 141312, Program_c, 9, 0, 3
11, 141312, Program_c, 9, 0, 12
11, 141312, Control_c, 9, 7, 100
11, 141312, Program_c, 7, 80, 3
11, 141312, Control_c, 9, 7, 100
11, 141312, Note_off_c, 9, 44, 64
11, 141504, Note_off_c, 9, 44, 64
11, 141888, Note_off_c, 9, 44, 64
11, 142076, Control_c, 3, 7, 84
11, 142272, Note_off_c, 9, 44, 64
11, 142560, Note_off_c, 9, 44, 64
11, 142560, Note_on_c, 9, 44, 64
11, 142560, Note_off_c, 9, 44, 64
11, 142656, Note_on_c, 9, 44, 64
11, 142752, Note_off_c, 9, 44, 64
11, 143008, Note_on_c, 9, 44, 110
11, 143040, Note_off_c, 9, 44, 64
11, 143040, Note_on_c, 9, 38, 110
11, 143136, Note_off_c, 3, 37, 64
11, 143136, Note_off_c, 9, 44, 64
11, 143232, Note_off_c, 9, 44, 64
11, 143232, Note_off_c, 9, 38, 64
11, 143232, Note_off_c, 9, 44, 64
11, 143328, Note_off_c, 9, 44, 64
11, 143424, Note_on_c, 7, 76, 86
11, 143424, Note_on_c, 9, 46, 110
11, 143520, Note_off_c, 9, 46, 64
11, 143616, Note_on_c, 9, 44, 64
11, 143616, Note_on_c, 9, 44, 96
11, 143616, Note_on_c, 9, 46, 110
11, 143616, Note_off_c, 9, 38, 64
11, 143808, Note_off_c, 9, 44, 64
11, 143840, Note_on_c, 9, 44, 64
11, 144096, Note_off_c, 9, 38, 64
11, 144192, Note_off_c, 9, 44, 64
11, 144192, Note_off_c, 9, 38, 64
11, 144192, Note_on_c, 9, 44, 110
11, 144288, Note_on_c, 9, 44, 64
11, 144288, Note_off_c, 9, 44, 64
11, 144384, Note_on_c, 9, 44, 64
11, 144384, Note_off_c, 9, 44, 64
11, 144384, Note_on_c, 9, 44, 110
11, 144384, Note_on_c, 9, 36, 110
11, 144384, Note_on_c, 9, 44, 110
11, 144384, Note_off_c, 9, 38, 64
11, 144384, Note_on_c, 9, 44, 64
11, 144384, Note_on_c, 1, 63, 710
11, 144448, Note_off_c, 9, 44, 64
11, 144480, Note_off_c, 9, 44, 64
11, 144480, Note_off_c, 9, 44, 64
11, 144512, Note_off_c, 9, 44, 64
11, 144576, Note_off_c, 9, 36, 64
11, 144640, Note_on_c, 5, 61, 96
11, 144672, Note_off_c, 9, 38, 64
11, 144672, Note_off_c, 9, 38, 64
11, 144672, Note_off_c, 9, 38, 64
11, 144768, Note_on_c, 9, 44, 110
11, 144960, Note_on_c, 9, 38, 110
11, 144960, Note_on_c, 9, 36, 110
11, 144992, Note_off_c, 9, 36, 64
11, 145056, Note_off_c, 9, 44, 64
11, 145152, Note_on_c, 9, 36, 110
11, 145248, Note_off_c, 9, 44, 64
11, 145248, Note_off_c, 9, 44, 64
11, 145248, Note_off_c, 9, 46, 64
11, 145344, Note_on_c, 9, 44, 96
11, 145344, Note_on_c, 9, 38, 110
11, 145344, Note_on_c, 9, 44, 110
11, 145440, Note_off_c, 9, 44, 64
11, 145440, Note_on_c, 9, 44, 96
11, 145440, Note_on_c, 9, 36, 110
11, 145440, Note_off_c, 9, 44, 64
11, 145440, Note_on_c, 9, 46, 110
11, 145440, Note_off_c, 9, 38, 64
11, 145504, Note_off_c, 9, 36, 64
11, 145536, Note_on_c, 9, 44, 110
11, 145728, Note_off_c, 9, 44, 64
11, 145728, Note_on_c, 9, 44, 110
11, 145920, Note_on_c, 9, 44, 96
11, 145920, Note_on_c, 9, 44, 64
11, 146112, Note_on_c, 9, 38, 110
11, 146112, Note_off_c, 9, 36, 64
11, 146112, Note_off_c, 9, 38, 64
11, 146112, Note_off_c, 9, 38, 64
11, 146112, Note_off_c, 9, 44, 64
11, 146112, Note_on_c, 9, 38, 110
11, 146208, Note_off_c, 9, 44, 64
11, 146208, Note_off_c, 9, 44, 64
11, 146304, Note_off_c, 9, 44, 64
11, 146304, Note_on_c, 9, 44, 110
11, 146304, Note_on_c, 9, 44, 110
11, 146304, Note_off_c, 9, 38, 64
11, 146384, Note_off_c, 9, 38, 64
11, 146400, Note_on_c, 9, 36, 110
11, 146496, Note_on_c, 9, 36, 110
11, 146496, Note_on_c, 9, 27, 64
11, 146496, Note_on_c, 9, 36, 110
11, 146496, Note_off_c, 0, 88, 64
11, 146496, Note_off_c, 9, 44, 64
11, 146496, Note_off_c, 9, 44, 64
11, 146592, Control_c, 3, 7, 66
11, 146688, Note_off_c, 9, 44, 64
11, 146688, Note_on_c, 9, 44, 110
11, 146784, Note_on_c, 9, 44, 64
11, 146880, Note_on_c, 3, 46, 110
11, 146976, Note_off_c, 9, 44, 64
11, 147072, Note_on_c, 9, 46, 110
11, 147072, Note_on_c, 9, 44, 64
11, 147264, Note_on_c, 9, 44, 64
11, 147456, Control_c, 9, 7, 100
11, 147456, Program_c, 9, 4, 12
11, 147456, Note_on_c, 9, 36, 110
11, 147456, Note_on_c, 9, 46, 110
11, 148128, Note_off_c, 9, 36, 64
11, 148832, Note_on_c, 9, 44, 64
11, 148928, Note_off_c, 9, 36, 64
11, 148992, Note_on_c, 9, 38, 110
11, 149184, Note_on_c, 9, 38, 110
11, 149184, Note_on_c, 9, 38, 110
11, 149376, Note_on_c, 9, 44, 110
11, 149376, Note_off_c, 9, 44, 64
11, 149472, Note_on_c, 9, 36, 110
11, 149568, Note_off_c, 9, 44, 64
11, 149568, Note_on_c, 9, 44, 96
11, 149760, Note_on_c, 9, 38, 110
11, 149760, Note_on_c, 9, 44, 96
11, 149760, Note_on_c, 9, 44, 110
11, 149760, Note_on_c, 9, 46, 110
11, 149760, Note_off_c, 9, 38, 64
11, 150144, Note_on_c, 9, 36, 110
11, 150144, Note_on_c, 9, 44, 64
11, 150528, Note_on_c, 9, 36, 110
11, 150912, Note_off_c, 9, 44, 64
11, 151008, Note_off_c, 9, 44, 64
11, 151488, Note_off_c, 9, 36, 64
11, 152256, Note_on_c, 5, 61, 64
11, 152256, Note_on_c, 9, 36, 110
11, 152256, Note_on_c, 9, 44, 110
11, 152736, Note_off_c, 9, 44, 64
11, 152832, Note_off_c, 9, 38, 64
11, 152928, Note_on_c, 9, 44, 64
11, 153024, Note_on_c, 9, 44, 110
11, 153216, Note_on_c, 9, 38, 110
11, 153216, Note_off_c, 9, 44, 64
11, 153216, Note_on_c, 9, 44, 64
11, 153216, Note_off_c, 9, 36, 64
11, 153216, Note_off_c, 9, 44, 64
11, 153408, Note_off_c, 9, 44, 64
11, 153504, Note_off_c, 9, 44, 64
11, 153504, Note_off_c, 9, 44, 64
11, 153600, Note_off_c, 9, 44, 64
11, 153696, Note_on_c, 9, 44, 96
11, 153696, Note_off_c, 9, 44, 64
11, 153792, Note_on_c, 9, 38, 110
11, 153920, Note_off_c, 9, 36, 64
11, 154176, Note_on_c, 3, 39, 110
11, 154176, Note_on_c, 9, 44, 64
11, 154336, Note_on_c, 9, 44, 96
11, 154368, Note_off_c, 9, 44, 64
11, 154368, Note_on_c, 9, 44, 64
11, 154368, Note_on_c, 9, 36, 110
11, 154368, Note_off_c, 9, 38, 64
11, 154752, Note_on_c, 9, 36, 110
11, 154752, Note_off_c, 9, 36, 64
11, 155136, Note_on_c, 9, 44, 96
11, 155136, Note_on_c, 9, 44, 7080
11, 155136, Note_on_c, 9, 44, 64
11, 155200, Note_on_c, 7, 75, 86
11, 155232, Note_off_c, 9, 44, 64
11, 155328, Note_on_c, 9, 44, 96
11, 155328, Note_on_c, 9, 44, 64
11, 155488, Note_off_c, 9, 44, 64
11, 155520, Note_off_c, 9, 36, 64
11, 155520, Note_off_c, 9, 36, 64
11, 155520, Note_off_c, 9, 44, 64
11, 155552, Note_off_c, 9, 44, 64
11, 155904, Note_off_c, 9, 36, 64
11, 156096, Note_off_c, 9, 44, 64
11, 156288, Note_off_c, 9, 36, 64
11, 156288, Note_off_c, 9, 44, 64
11, 156480, Note_on_c, 9, 44, 110
11, 156864, Note_on_c, 9, 44, 64
11, 156864, Note_off_c, 9, 38, 64
11, 156864, Note_off_c, 9, 44, 64
11, 156864, Note_off_c, 9, 44, 64
11, 156960, Note_on_c, 9, 44, 96
11, 158208, Note_on_c, 9, 44, 96
11, 158400, Note_on_c, 9, 44, 110
11, 158592, Note_on_c, 9, 38, 110
11, 159360, Note_on_c, 9, 38, 110
11, 159552, Note_off_c, 9, 36, 64
11, 159552, Note_off_c, 9, 36, 64
11, 159744, Note_on_c, 9, 46, 110
11, 159744, Note_on_c, 9, 44, 64
11, 159752, Note_on_c, 9, 44, 110
11, 160000, Note_off_c, 9, 38, 64
11, 160128, Note_off_c, 9, 38, 64
11, 160128, Note_on_c, 9, 44, 64
11, 160320, Note_off_c, 9, 44, 64
11, 160320, Note_on_c, 9, 44, 64
11, 160320, Note_on_c, 9, 44, 96
11, 160320, Note_on_c, 9, 44, 96
11, 160320, Note_on_c, 9, 44, 110
11, 160416, Note_off_c, 9, 44, 64
11, 160416, Note_off_c, 9, 44, 64
11, 160608, Note_off_c, 9, 44, 64
11, 160704, Note_off_c, 9, 36, 64
11, 160896, Note_off_c, 9, 38, 64
11, 160896, Note_on_c, 9, 44, 110
11, 160896, Note_off_c, 9, 36, 64
11, 160896, Note_off_c, 9, 44, 64
11, 161088, Note_on_c, 9, 44, 64
11, 161088, Note_on_c, 9, 36, 110
11, 161664, Note_on_c, 9, 44, 64
11, 161856, Note_on_c, 9, 36, 110
11, 161856, Note_off_c, 9, 44, 64
11, 161856, Note_off_c, 9, 38, 64
11, 162720, Note_off_c, 9, 44, 64
11, 162816, Note_on_c, 9, 36, 110
11, 163008, Note_off_c, 9, 36, 64
11, 163008, Note_off_c, 9, 36, 64
11, 163296, Note_off_c, 9, 44, 64
11, 163488, Note_off_c, 9, 38, 64
11, 163584, Control_c, 9, 7, 100
11, 163968, Note_on_c, 9, 44, 110
11, 163984, Note_off_c, 9, 44, 64
11, 164160, Note_on_c, 9, 44, 96
11, 164352, Note_on_c, 9, 44, 110
11, 164832, Note_off_c, 9, 44, 64
11, 164928, Note_off_c, 9, 44, 64
11, 165120, Note_on_c, 9, 38, 110
11, 165120, Note_on_c, 9, 44, 96
11, 165120, Note_off_c, 9, 44, 64
11, 165312, Note_off_c, 9, 44, 64
11, 165312, Note_off_c, 9, 44, 64
11, 165504, Note_off_c, 9, 44, 64
11, 165504, Note_on_c, 9, 44, 110
11, 165504, Note_off_c, 9, 38, 64
11, 165696, Note_off_c, 9, 38, 64
11, 165696, Note_off_c, 9, 38, 64
11, 165888, Note_on_c, 9, 38, 110
11, 165984, Note_off_c, 9, 36, 64
11, 165984, Note_off_c, 9, 36, 64
11, 166272, Note_off_c, 9, 36, 64
11, 166848, Note_on_c, 9, 36, 110
11, 166848, Note_on_c, 9, 44, 96
11, 166944, Note_off_c, 9, 44, 64
11, 167040, Note_on_c, 9, 36, 110
11, 167232, Note_on_c, 9, 44, 64
11, 167328, Note_on_c, 9, 44, 64
11, 167424, Note_on_c, 9, 44, 64
11, 168272, Note_off_c, 9, 44, 64
11, 168576, Note_on_c, 9, 44, 64
11, 168672, Note_on_c, 9, 38, 110
11, 169920, Note_on_c, 9, 36, 110
11, 169920, Note_off_c, 9, 44, 64
11, 169920, Note_off_c, 9, 36, 64
11, 170112, Note_on_c, 9, 44, 64
11, 170976, Note_off_c, 9, 44, 64
11, 171232, Note_off_c, 9, 44, 64
11, 171264, Note_on_c, 9, 46, 98
11, 171264, Note_off_c, 9, 38, 64
11, 171264, Note_off_c, 9, 36, 64
11, 171264, Note_off_c, 9, 44, 64
11, 171264, Note_on_c, 9, 44, 64
11, 171392, Note_on_c, 9, 46, 110
11, 173952, Note_on_c, 9, 36, 110
11, 174720, Note_on_c, 9, 44, 110
11, 176212, Note_on_c, 2, 59, 70
11, 176832, Note_on_c, 9, 59, 110
11, 177120, Note_on_c, 9, 46, 110
11, 177312, Note_off_c, 9, 59, 64
11, 179040, Note_off_c, 9, 49, 64
11, 179328, Note_on_c, 9, 59, 110
11, 179328, Note_on_c, 9, 59, 110
11, 179328, Note_off_c, 9, 38, 64
11, 179520, Note_on_c, 9, 36, 110
11, 179520, Note_on_c, 9, 38, 110
11, 179712, Note_off_c, 9, 59, 64
11, 180480, Note_off_c, 9, 36, 64
11, 183104, Note_off_c, 9, 41, 64
11, 184320, Note_on_c, 9, 59, 110
11, 185184, Note_on_c, 9, 59, 110
11, 186624, Note_on_c, 9, 38, 110
11, 190080, Note_on_c, 9, 36, 110
11, 190080, Note_on_c, 9, 36, 110
11, 190464, Control_c, 9, 7, 100
11, 190464, Note_off_c, 9, 44, 64
11, 190464, Control_c, 9, 7, 100
11, 190848, Note_off_c, 9, 36, 64
11, 191040, Note_on_c, 9, 46, 110
11, 191113, Note_off_c, 4, 39, 64
11, 191232, Note_on_c, 9, 44, 110
11, 191328, Note_off_c, 9, 44, 64
11, 191968, Note_on_c, 9, 41, 111
11, 192288, Note_on_c, 8, 79, 64
11, 192576, Note_off_c, 9, 36, 64
11, 192576, Note_off_c, 9, 38, 64
11, 192576, Note_off_c, 9, 44, 64
11, 192576, Note_on_c, 9, 44, 96
11, 193152, Note_on_c, 9, 36, 110
11, 193224, Note_on_c, 3, 39, 110
11, 193248, Note_off_c, 9, 36, 64
11, 193344, Note_on_c, 9, 36, 110
11, 193504, Note_on_c, 9, 36, 110
11, 193536, Note_on_c, 9, 46, 110
11, 193536, Note_on_c, 9, 46, 110
11, 193536, Note_off_c, 9, 36, 64
11, 193536, Note_off_c, 9, 36, 64
11, 193536, Note_on_c, 9, 44, 110
11, 193728, Note_off_c, 9, 36, 64
11, 193920, Note_on_c, 9, 36, 110
11, 193920, Note_on_c, 9, 49, 110
11, 193920, Note_off_c, 9, 36, 64
11, 194112, Note_off_c, 9, 44, 64
11, 194112, Note_off_c, 9, 36, 64
11, 194112, Note_on_c, 9, 49, 110
11, 194304, Note_on_c, 9, 44, 110
11, 194304, Note_off_c, 9, 46, 64
11, 194496, Note_on_c, 9, 36, 110
11, 194496, Note_off_c, 9, 49, 64
11, 194688, Note_on_c, 9, 38, 110
11, 194688, Note_off_c, 9, 44, 64
11, 194688, Note_off_c, 9, 38, 64
11, 194880, Note_on_c, 9, 38, 110
11, 194880, Note_off_c, 9, 44, 64
11, 195072, Note_off_c, 9, 44, 64
11, 195264, Note_off_c, 9, 44, 64
11, 195264, Note_on_c, 9, 44, 110
11, 195264, Note_off_c, 9, 36, 64
11, 195264, Control_c, 9, 7, 100
11, 195360, Note_off_c, 9, 59, 64
11, 195456, Note_off_c, 9, 46, 64
11, 195456, Note_off_c, 9, 46, 64
11, 195456, Note_on_c, 9, 44, 110
11, 195456, Note_on_c, 9, 46, 110
11, 195456, Note_off_c, 9, 46, 64
11, 195456, Note_on_c, 9, 46, 110
11, 195456, Note_on_c, 9, 44, 110
11, 195456, Note_on_c, 9, 49, 110
11, 195456, Note_on_c, 9, 38, 110
11, 195456, Note_off_c, 9, 36, 64
11, 195648, Program_c, 9, 0, 55
11, 195840, Note_on_c, 9, 44, 110
11, 195840, Note_on_c, 9, 38, 110
11, 195840, Note_off_c, 9, 46, 64
11, 195840, Note_off_c, 0, 97, 64
11, 195840, Note_on_c, 9, 36, 110
11, 195840, Note_on_c, 9, 46, 110
11, 195856, Note_off_c, 9, 36, 64
11, 196224, Note_off_c, 9, 36, 64
11, 196416, Note_on_c, 9, 46, 110
11, 196512, Note_off_c, 9, 36, 64
11, 196608, Control_c, 9, 7, 100
11, 196608, Note_off_c, 9, 36, 64
11, 196608, Program_c, 9, 0
11, 196608, Control_c, 9, 7, 100
11, 199296, Note_on_c, 9, 41, 94
11, 199296, Note_on_c, 9, 41, 114
11, 199376, Note_off_c, 9, 44, 64
11, 199456, Note_off_c, 7, 90, 64
11, 199488, Note_on_c, 9, 49, 110
11, 199552, Note_off_c, 9, 36, 64
11, 199680, Note_on_c, 9, 41, 81
11, 201152, Note_off_c, 9, 41, 64
11, 201216, Note_off_c, 9, 53, 64
11, 201440, Note_on_c, 9, 46, 98
11, 201552, Note_off_c, 9, 45, 64
11, 201792, Note_on_c, 9, 55, 110
11, 201920, Note_off_c, 9, 53, 64
11, 201984, Note_off_c, 9, 53, 64
11, 202176, Note_on_c, 9, 53, 101
11, 202176, Note_off_c, 9, 53, 64
11, 202368, Note_on_c, 9, 53, 112
11, 202368, Note_on_c, 9, 53, 101
11, 202752, Note_on_c, 9, 36, 79
11, 202768, Note_on_c, 9, 53, 101
11, 203488, Note_on_c, 9, 45, 110
11, 207360, Note_on_c, 9, 53, 110
11, 207360, Note_off_c, 9, 45, 64
11, 208128, Note_on_c, 9, 53, 105
11, 208608, Note_off_c, 9, 44, 64
11, 208672, Note_off_c, 9, 36, 64
11, 208896, Note_off_c, 9, 53, 64
11, 209088, Note_off_c, 9, 44, 64
11, 209088, Note_off_c, 9, 46, 64
11, 209088, Note_off_c, 9, 44, 64
11, 209088, Note_on_c, 9, 44, 110
11, 209472, Note_on_c, 9, 44, 64
11, 209472, Note_on_c, 9, 44, 64
11, 209632, Note_on_c, 9, 44, 64
11, 209664, Note_on_c, 9, 44, 110
11, 209664, Note_off_c, 9, 44, 64
11, 209664, Note_off_c, 9, 46, 64
11, 209664, Note_off_c, 9, 36, 64
11, 209984, Note_on_c, 9, 45, 64
11, 210048, Note_on_c, 9, 46, 97
11, 210720, Note_on_c, 9, 36, 110
11, 213120, Note_on_c, 9, 46, 97
11, 213728, Note_off_c, 9, 44, 64
11, 214656, Note_on_c, 9, 46, 64
11, 214656, Note_on_c, 9, 46, 98
11, 215040, Note_on_c, 9, 44, 64
11, 215328, Note_off_c, 9, 44, 64
11, 216000, Note_on_c, 9, 44, 78
11, 216384, Note_on_c, 9, 46, 94
11, 216576, Note_on_c, 9, 57, 110
11, 216672, Note_off_c, 9, 44, 64
11, 217632, Note_off_c, 9, 46, 64
11, 219456, Note_on_c, 9, 44, 64
11, 219648, Note_off_c, 9, 44, 64
11, 220096, Note_on_c, 9, 44, 64
11, 220224, Note_on_c, 9, 44, 64
11, 220704, Note_off_c, 9, 44, 64
11, 220992, Note_on_c, 9, 46, 110
11, 221376, Note_off_c, 9, 38, 64
11, 221472, Note_off_c, 9, 44, 64
11, 222304, Note_off_c, 9, 44, 64
11, 222816, Note_off_c, 4, 37, 64
11, 222816, Note_on_c, 9, 44, 96
11, 224160, Control_c, 9, 7, 93
11, 224256, Control_c, 9, 7, 100
11, 224352, Control_c, 9, 7, 91
11, 224352, Note_off_c, 9, 44, 64
11, 224448, Note_off_c, 9, 44, 64
11, 224640, Control_c, 9, 7, 94
11, 224832, Note_off_c, 9, 44, 64
11, 224928, Control_c, 9, 7, 90
11, 224936, Control_c, 9, 7, 93
11, 225024, Note_on_c, 9, 44, 64
11, 225024, Note_on_c, 9, 44, 96
11, 225408, Note_on_c, 9, 44, 110
11, 225408, Note_off_c, 9, 44, 64
11, 225408, Control_c, 9, 7, 91
11, 225408, Note_on_c, 9, 44, 96
11, 225408, Note_on_c, 9, 36, 110
11, 225416, Note_on_c, 9, 46, 110
11, 225504, Control_c, 9, 7, 100
11, 225600, Note_off_c, 9, 44, 64
11, 225600, Note_off_c, 9, 38, 64
11, 225600, Note_off_c, 9, 44, 64
11, 225600, Control_c, 9, 7, 96
11, 225600, Note_on_c, 9, 44, 110
11, 225696, Note_off_c, 9, 44, 64
11, 225792, Control_c, 9, 7, 73
11, 225792, Control_c, 9, 7, 73
11, 225984, Control_c, 9, 7, 81
11, 225984, Note_on_c, 9, 36, 110
11, 226176, Note_on_c, 9, 44, 96
11, 226176, Note_on_c, 9, 46, 96
11, 226240, Note_off_c, 9, 44, 64
11, 226368, Note_on_c, 9, 44, 96
11, 226368, Note_on_c, 9, 44, 64
11, 226448, Note_off_c, 9, 44, 64
11, 226464, Note_off_c, 9, 44, 64
11, 226560, Note_on_c, 9, 44, 96
11, 226560, Note_on_c, 9, 46, 110
11, 226560, Note_on_c, 9, 44, 110
11, 226752, Control_c, 9, 7, 85
11, 226752, Control_c, 9, 7, 81
11, 226944, Control_c, 9, 7, 74
11, 226944, Note_on_c, 9, 85, 110
11, 226944, Note_on_c, 9, 44, 110
11, 226944, Note_off_c, 9, 46, 64
11, 227040, Note_off_c, 9, 44, 64
11, 227136, Note_off_c, 9, 38, 64
11, 227136, Note_off_c, 9, 44, 64
11, 227136, Note_on_c, 9, 44, 64
11, 227248, Control_c, 9, 7, 72
11, 227424, Note_off_c, 9, 44, 64
11, 227424, Note_off_c, 5, 61, 64
11, 227424, Control_c, 9, 7, 90
11, 227520, Note_on_c, 9, 44, 96
11, 227520, Note_on_c, 9, 44, 110
11, 227904, Note_off_c, 9, 44, 64
11, 228000, Control_c, 9, 7, 90
11, 228000, Control_c, 9, 7, 70
11, 228000, Note_on_c, 9, 44, 110
11, 228000, Control_c, 9, 7, 74
11, 228064, Control_c, 9, 7, 77
11, 228064, Control_c, 9, 7, 70
11, 228096, Control_c, 9, 7, 78
11, 228096, Note_off_c, 9, 38, 64
11, 228096, Control_c, 9, 59, 64
11, 228096, Control_c, 9, 7, 75
11, 228096, Note_on_c, 9, 44, 110
11, 228096, Note_on_c, 9, 44, 96
11, 228096, Note_on_c, 9, 44, 110
11, 228192, Note_off_c, 9, 44, 64
11, 228288, Note_off_c, 9, 38, 64
11, 228384, Note_off_c, 9, 44, 64
11, 228384, Note_off_c, 9, 38, 64
11, 228384, Note_on_c, 9, 36, 110
11, 228480, Note_on_c, 6, 71, 110
11, 228576, Note_off_c, 9, 44, 64
11, 228608, Note_off_c, 9, 36, 64
11, 228672, Note_off_c, 9, 38, 64
11, 228672, Control_c, 9, 7, 88
11, 228672, Note_on_c, 9, 36, 110
11, 228672, Note_on_c, 9, 44, 64
11, 228672, Note_off_c, 9, 36, 64
11, 228864, Note_on_c, 9, 44, 64
11, 228864, Control_c, 9, 7, 71
11, 228864, Note_on_c, 9, 46, 110
11, 228960, Control_c, 9, 7, 72
11, 228960, Note_off_c, 9, 46, 64
11, 228960, Note_on_c, 9, 36, 110
11, 228960, Note_off_c, 9, 44, 64
11, 228960, Control_c, 9, 7, 70
11, 228960, Note_off_c, 9, 44, 64
11, 228960, Control_c, 9, 7, 71
11, 229024, Note_off_c, 9, 46, 64
11, 229056, Note_on_c, 9, 44, 96
11, 229152, Control_c, 9, 7, 86
11, 229248, Note_off_c, 9, 38, 64
11, 229248, Control_c, 9, 7, 72
11, 229344, Note_off_c, 9, 44, 64
11, 229344, Control_c, 9, 7, 72
11, 229440, Note_off_c, 9, 38, 64
11, 229440, Note_on_c, 9, 44, 96
11, 229440, Note_on_c, 9, 44, 64
11, 229440, Note_on_c, 0, 74, 110
11, 229536, Control_c, 9, 7, 75
11, 229632, Note_off_c, 9, 38, 64
11, 229632, Note_on_c, 9, 44, 110
11, 229728, Note_on_c, 9, 44, 110
11, 229728, Note_off_c, 9, 46, 64
11, 229760, Note_off_c, 9, 44, 64
11, 229824, Note_on_c, 9, 44, 64
11, 229824, Note_on_c, 9, 44, 96
11, 229824, Note_off_c, 9, 38, 64
11, 229824, Control_c, 9, 7, 100
11, 229920, Note_on_c, 9, 36, 110
11, 229920, Note_off_c, 9, 44, 64
11, 230208, Control_c, 2, 7, 69
11, 230208, Note_on_c, 9, 44, 64
11, 230400, Control_c, 9, 7, 60
11, 230400, Note_on_c, 9, 36, 110
11, 230496, Note_off_c, 9, 44, 64
11, 230592, Note_on_c, 9, 44, 64
11, 230688, Note_off_c, 9, 44, 64
11, 230688, Control_c, 9, 7, 48
11, 230784, Control_c, 9, 7, 64
11, 230880, Control_c, 9, 7, 58
11, 230976, Control_c, 9, 7, 61
11, 231072, Note_off_c, 9, 44, 64
11, 231168, Note_on_c, 9, 44, 64
11, 231168, Note_off_c, 9, 38, 64
11, 231168, Note_off_c, 9, 44, 64
11, 231360, Note_on_c, 9, 44, 64
11, 231552, Note_on_c, 9, 38, 110
11, 231744, Note_on_c, 9, 44, 96
11, 232128, Note_off_c, 9, 44, 64
11, 232128, Note_on_c, 9, 44, 64
11, 232128, Control_c, 9, 7, 56
11, 232128, Note_on_c, 9, 46, 110
11, 232160, Note_on_c, 9, 44, 110
11, 232224, Note_off_c, 9, 44, 64
11, 232224, Note_on_c, 9, 44, 96
11, 232320, Note_off_c, 9, 46, 64
11, 232320, Control_c, 3, 7, 60
11, 232320, Note_off_c, 9, 44, 64
11, 232416, Note_off_c, 9, 44, 64
11, 232720, Note_on_c, 9, 44, 110
11, 232896, Note_on_c, 9, 38, 110
11, 232992, Control_c, 9, 7, 53
11, 232992, Note_off_c, 9, 44, 64
11, 232992, Note_off_c, 9, 44, 64
11, 233088, Note_off_c, 9, 46, 64
11, 233088, Note_on_c, 9, 44, 64
11, 233152, Note_on_c, 9, 44, 110
11, 233152, Note_off_c, 9, 44, 64
11, 233280, Note_off_c, 9, 44, 64
11, 233280, Note_off_c, 9, 44, 64
11, 233280, Note_on_c, 9, 44, 96
11, 233472, Control_c, 9, 7, 55
11, 233472, Note_off_c, 9, 44, 64
11, 233472, Control_c, 9, 7, 55
11, 233472, Control_c, 9, 7, 51
11, 233488, Note_on_c, 9, 44, 110
11, 233568, Note_on_c, 9, 44, 96
11, 233664, Note_on_c, 9, 44, 96
11, 233760, Note_off_c, 9, 44, 64
11, 233856, Control_c, 9, 7, 59
11, 233952, Control_c, 9, 7, 56
11, 233952, Note_off_c, 9, 44, 64
11, 234016, Note_off_c, 9, 38, 64
11, 234048, Note_on_c, 9, 44, 96
11, 234048, Note_on_c, 9, 44, 96
11, 234048, Control_c, 9, 7, 46
11, 234048, Control_c, 9, 7, 40
11, 234048, Control_c, 9, 7, 46
11, 234048, Control_c, 9, 7, 33
11, 234048, Control_c, 9, 7, 43
11, 234144, Control_c, 9, 7, 42
11, 234144, Note_off_c, 9, 44, 64
11, 234144, Note_off_c, 9, 44, 64
11, 234144, Control_c, 9, 7, 62
11, 234144, Control_c, 9, 7, 61
11, 234144, Note_off_c, 9, 46, 64
11, 234144, Control_c, 9, 7, 51
11, 234240, Control_c, 9, 7, 40
11, 234240, Control_c, 3, 7, 25
11, 234240, Control_c, 9, 7, 41
11, 234240, Note_off_c, 9, 44, 64
11, 234240, Control_c, 9, 7, 42
11, 234336, Control_c, 9, 7, 51
11, 234336, Note_off_c, 9, 46, 64
11, 234336, Note_off_c, 9, 46, 64
11, 234336, Note_off_c, 9, 44, 64
11, 234432, Note_on_c, 9, 46, 110
11, 234432, Note_on_c, 1, 66, 64
11, 234432, Note_on_c, 9, 44, 64
11, 234432, Note_on_c, 9, 44, 64
11, 234432, Note_on_c, 9, 44, 64
11, 234432, Note_on_c, 9, 6, 64
11, 234432, Control_c, 9, 7, 40
11, 234432, Note_off_c, 9, 46, 64
11, 234528, Note_on_c, 9, 44, 64
11, 234528, Control_c, 9, 7, 45
11, 234528, Note_off_c, 9, 44, 64
11, 234528, Note_off_c, 9, 44, 64
11, 234528, Note_on_c, 9, 44, 64
11, 234616, Note_on_c, 9, 44, 96
11, 234624, Control_c, 9, 7, 43
11, 234624, Note_on_c, 9, 44, 64
11, 234624, Note_off_c, 9, 44, 64
11, 234624, Note_on_c, 9, 36, 110
11, 234624, Note_on_c, 9, 44, 110
11, 234624, Note_on_c, 9, 44, 110
11, 234624, Note_on_c, 9, 36, 110
11, 234624, Note_on_c, 9, 44, 110
11, 234624, Control_c, 9, 7, 41
11, 234624, Note_on_c, 9, 36, 110
11, 234720, Note_on_c, 9, 44, 110
11, 234720, Note_off_c, 9, 44, 64
11, 234816, Note_on_c, 6, 68, 110
11, 234816, Note_off_c, 9, 38, 64
11, 234816, Note_off_c, 9, 36, 64
11, 234816, Note_off_c, 9, 38, 64
11, 234816, Note_off_c, 9, 38, 64
11, 234816, Note_on_c, 9, 44, 96
11, 234816, Control_c, 9, 7, 43
11, 234816, Note_off_c, 9, 38, 64
11, 234912, Control_c, 9, 7, 43
11, 234912, Note_off_c, 9, 44, 64
11, 234936, Note_off_c, 9, 46, 64
11, 234944, Control_c, 9, 7, 44
11, 234944, Note_off_c, 9, 44, 64
11, 235000, Note_on_c, 9, 44, 64
11, 235008, Note_on_c, 9, 44, 64
11, 235008, Note_on_c, 9, 44, 64
11, 235008, Note_on_c, 9, 36, 110
11, 235008, Note_on_c, 9, 44, 64
11, 235008, Note_on_c, 9, 46, 110
11, 235008, Note_off_c, 9, 46, 64
11, 235104, Note_on_c, 9, 44, 64
11, 235104, Note_on_c, 9, 44, 64
11, 235200, Note_on_c, 9, 44, 64
11, 235200, Note_on_c, 9, 38, 110
11, 235200, Control_c, 9, 7, 43
11, 235296, Note_off_c, 9, 44, 64
11, 235296, Note_on_c, 9, 44, 64
11, 235296, Note_off_c, 9, 44, 64
11, 235296, Note_off_c, 9, 44, 64
11, 235392, Note_on_c, 9, 44, 64
11, 235392, Note_off_c, 9, 38, 64
11, 235392, Note_on_c, 9, 44, 96
11, 235392, Control_c, 9, 7, 43
11, 235392, Note_on_c, 9, 44, 64
11, 235392, Control_c, 9, 7, 4
11, 235392, Note_on_c, 9, 44, 96
11, 235392, Control_c, 9, 7, 41
11, 235488, Note_off_c, 9, 44, 64
11, 235488, Note_off_c, 9, 44, 64
11, 235488, Control_c, 9, 7, 45
11, 235488, Control_c, 9, 7, 43
11, 235488, Control_c, 9, 7, 45
11, 235488, Note_off_c, 9, 38, 64
11, 235680, Control_c, 9, 7, 44
11, 235680, Control_c, 9, 7, 41
11, 235776, Note_off_c, 9, 44, 64
11, 235872, Control_c, 9, 7, 41
11, 235872, Control_c, 9, 7, 45
11, 235968, Note_off_c, 9, 46, 64
11, 235968, Note_on_c, 9, 44, 96
11, 236064, Control_c, 9, 7, 42
11, 236064, Note_off_c, 9, 44, 64
11, 236160, Note_off_c, 9, 44, 64
11, 236160, Note_on_c, 9, 44, 110
11, 236160, Note_off_c, 9, 36, 64
11, 236256, Note_off_c, 9, 44, 64
11, 236256, Note_off_c, 9, 42, 64
11, 236256, Control_c, 9, 7, 44
11, 236256, Control_c, 9, 7, 30
11, 236448, Control_c, 9, 7, 47
11, 236448, Note_off_c, 9, 46, 64
11, 236448, Control_c, 9, 7, 40
11, 236448, Note_off_c, 9, 44, 64
11, 236448, Note_off_c, 9, 46, 64
11, 236448, Control_c, 9, 7, 41
11, 236448, Note_off_c, 9, 44, 64
11, 236448, Control_c, 9, 7, 45
11, 236544, Note_on_c, 9, 44, 110
11, 236640, Note_off_c, 9, 44, 64
11, 236640, Note_off_c, 9, 44, 64
11, 236640, Note_off_c, 9, 44, 64
11, 236640, Note_off_c, 9, 44, 64
11, 236640, Control_c, 9, 7, 34
11, 236736, Note_off_c, 9, 36, 64
11, 236736, Note_off_c, 9, 36, 64
11, 236736, Note_off_c, 9, 36, 64
11, 236736, Note_on_c, 9, 44, 96
11, 236928, Note_on_c, 9, 44, 64
11, 236928, Note_off_c, 9, 44, 64
11, 237024, Control_c, 9, 7, 62
11, 237312, Note_on_c, 9, 36, 110
11, 237312, Control_c, 9, 7, 63
11, 237408, Control_c, 9, 7, 42
11, 237408, Note_on_c, 9, 36, 110
11, 237600, Control_c, 9, 7, 34
11, 237888, Control_c, 9, 7, 42
11, 238080, Control_c, 9, 7, 17
11, 238080, Control_c, 9, 7, 6
11, 238272, Control_c, 9, 7, 60
11, 238272, Note_on_c, 9, 44, 64
11, 238656, Control_c, 9, 7, 42
11, 238848, Note_off_c, 9, 36, 64
11, 238848, Note_on_c, 9, 44, 96
11, 239040, Note_on_c, 9, 44, 96
11, 239040, Note_on_c, 9, 44, 64
11, 239040, Note_on_c, 9, 38, 110
11, 239040, Note_off_c, 9, 38, 64
11, 239136, Note_off_c, 9, 44, 64
11, 239232, Note_on_c, 9, 44, 64
11, 239328, Control_c, 9, 7, 34
11, 239424, Control_c, 9, 7, 11
11, 239424, Note_off_c, 9, 44, 64
11, 239424, Note_off_c, 8, 85, 64
11, 239840, Note_on_c, 9, 44, 64
11, 240000, Note_on_c, 9, 44, 96
11, 240000, Note_on_c, 9, 75, 64
11, 240000, Control_c, 9, 7, 22
11, 240096, Note_off_c, 9, 44, 64
11, 240192, Note_on_c, 9, 44, 64
11, 240192, Note_on_c, 9, 44, 96
11, 240192, Note_on_c, 9, 38, 110
11, 240296, Note_off_c, 9, 44, 64
11, 240384, Control_c, 9, 7, 12
11, 240480, Note_off_c, 7, 76, 64
11, 240576, Note_on_c, 9, 44, 96
11, 240672, Note_off_c, 9, 44, 64
11, 240960, Control_c, 9, 7, 15
11, 240960, Note_off_c, 9, 44, 64
11, 241056, Note_off_c, 9, 44, 64
11, 241152, Control_c, 9, 7, 65
11, 241248, Control_c, 9, 7, 69
11, 241344, Note_off_c, 9, 36, 64
11, 241536, Note_off_c, 9, 44, 64
11, 242016, Note_off_c, 9, 44, 64
11, 242016, Note_off_c, 9, 44, 64
11, 242304, Note_on_c, 9, 44, 64
11, 242400, Control_c, 9, 7, 21
11, 245000, End_track
12, 0, Start_track
12, 98304, Note_on_c, 10, 54, 72
12, 109824, Note_on_c, 10, 76, 82
12, 150144, Note_off_c, 1, 63, 64
12, 196512, Note_on_c, 8, 85, 119
12, 196608, Control_c, 10, 7, 80
12, 196608, Note_on_c, 10, 76, 82
12, 196608, Note_off_c, 10, 54, 64
12, 196608, Note_on_c, 10, 71, 64
12, 196608, Note_on_c, 10, 68, 82
12, 199680, Note_on_c, 10, 68, 82
12, 202752, Note_on_c, 10, 78, 82
12, 202752, Note_on_c, 10, 68, 82
12, 202752, Note_on_c, 10, 78, 82
12, 202752, Note_off_c, 1, 70
12, 205056, Note_off_c, 10, 76, 64
12, 205824, Note_on_c, 10, 71, 82
12, 245000, End_track


6, 245000, End_track
7, 0, Control_c, 5, 100, 64
7, 0, Note_on_c, 5, 73, 110
7, 0, Start_track
