0, 0, Header, 
1, 0, Control_c, 2, 101, 126
1, 0, Control_c, 3, 99, 1
1, 0, Control_c, 4, 8, 0
1, 0, Control_c, 2, 10, 30
1, 0, Control_c, 4, 6, 81
1, 0, Program_c, 1, 48
1, 18, 60, 90
1, 68, Control_c, 1, 98, 90
1, 660, Time_signature, End_track
1, 2594
1, 2755, Note_on_c, 1, 72, 0
1, 2800, Note_on_c, 5, 53, 127
1, 2840, Note_on_c, 0, 79, 110
1, 2920, Note_off_c, 1, 72, 0
1, 4120, Note_on_c, 900, Control_c, 2, 7, 99
1, 6160, Note_off_c, 0, 60, 64
1, 6740, Note_on_c, 3, 76, 10
1, 9320, Key_signature
1, 10014, Control_c, 3, 11, 92
1, 10168, Control_c, 3, 11, 119
1, 11035, Control_c, 3, 11, 109
1, 11043, Control_c, 3, 11, 83
1, 11170, Note_on_c, 12, 79, 89
1, 11200, Note_on_c, 3, 65, 100
1, 11200, Note_on_c, 1, 79, 100
1, 11360, Note_on_c, 1, 71, 100
1, 11378, Control_c, 3, 11, 121
1, 11383, Control_c, 3, 11, 61
1, 11400, Note_on_c, 0, 64, 90
1, 11477, Control_c, 5, 11, 45
1, 11499, Control_c, 3, 11, 123
1, 11560, Note_on_c, 0, 50, 100
1, 11600, Note_off_c, 0, 59, 64
1, 12253, Control_c, 3, 11, 74
1, 12298, Control_c, 3, 11, 126
1, 18415, Control_c, 9, 11, 4
1, 18538, Note_on_c, 8, 42640, {, 3, 69, 127
1, 20171, Tempo, 366400
1, 20438, Control_c, 9, 11, 19
1, 21000, Note_off_c, 2, 883136027, Note_on_c, 7, 75, 0
1, 21000, Note_off_c, 0, 67, 64
1, 21120, Note_on_c, 2, 64, 109
1, 21600, Control_c, 2, 11, 96
1, 21760, Note_on_c, 7, 74, 74
1, 21840, Note_on_c, 6, 75, 100
1, 22080, Note_on_c, 11, 77, 105
1, 22240, Note_on_c, 9, 49, 100
1, 22400, Note_on_c, 2, 86, 110
1, 22568, Control_c, 9, 11, 4
1, 22640, Note_on_c, 14, 40, 122
1, 22648, Control_c, 9, 11, 19
1, 22704, Control_c, 9, 11, 5
1, 23809, Control_c, 2, 11, 100
1, 23984, Control_c, 9, 11, 57
1, 24220, Note_on_c, Note_off_c, 7, 0, 0
1, 25140, Note_on_c, 7, 59, 0
1, 25315, Control_c, 3, 11, 82
1, 25391, Note_on_c, 7, 69, 0
1, 25418, Control_c, 9, 11, 90
1, 25428, Control_c, 9, 11, 7
1, 25443, Note_on_c, 7, 65, 0
1, 25538, Control_c, 9, 11, 3
1, 25578, Control_c, 8, 11, 87
1, 25636, Control_c, 3, 11, 74
1, 25664, Control_c, 3, 11, 107
1, 25785, Control_c, 9, 11, 22
1, 25829, Control_c, 2, 11, 116
1, 25846, Control_c, 2, 11, 96
1, 26480, Note_on_c, 7, 66, 80
1, 26800, Note_on_c, 7, 60, 86
1, 27360, Pitch_bend_c, 2, 92384, Note_on_c, 4, 40, 127
1, 29800, Note_on_c, 10, 50, 120
1, 42120, Note_on_c, 1, 57, 120
1, 43008, Tempo, 370953
1, 43148, Control_c, 0, 7, 20
1, 43242, Control_c, 3, 11, 74
1, 43296, Control_c, 3, 7, 77
1, 43363, Control_c, 3, 7, 36
1, 43458, Control_c, 3, 11, 90
1, 43503, Control_c, 3, 11, 77
1, 43854, Control_c, 3, 11, 143
1, 43904, Control_c, 1, 7, 56
1, 44384, Control_c, 8, 7, 67
1, 48360, Note_off_c, 4, 79, 0
1, 48640, Note_off_c, 5, 62, 0
1, 54728, Control_c, 1, 7, 40
1, 56177, Control_c, 0, 7, 26
1, 59140, Note_on_c, 9, 51, 760
1, 59560, Note_off_c, 6, 53, 0
1, 60000, Note_on_c, 3, 55, 120
1, 60095, Note_on_c, 11, 67, 0
1, 60120, Note_on_c, 0, 81, 120
1, 60591, Note_on_c, 2, 57, 0
1, 60800, Note_on_c, 1, 60, 120
1, 60840, Note_on_c, 10, 58, 120
1, 60910, Note_on_c, 2, 74, 0
1, 60939, Control_c, 3, 7, 76
1, 61200, Note_off_c, 1, 53, 0
1, 61240, Note_off_c, 5, 58, 0
1, 61376, Note_on_c, 15, 67, 0
1, 61529, Note_on_c, 7, 64, 0
1, 62235, Note_on_c, 11, 72, 0
1, 62620, Control_c, 0, 7, 70
1, 63010, Note_on_c, 2, 69, 0
1, 63824, Control_c, 0, 7, 60
1, 64040, Control_c, 1, 7, 79
1, 64182, Control_c, 3, 11, 95
1, 64257, Control_c, 3, 7, 50
1, 64327, Control_c, 3, 7, 58
1, 64395, Note_on_c, 2, 64, 0
1, 64403, Control_c, 3, 7, 72
1, 64419, Control_c, 49502, Note_on_c, 8, 38, 0
1, 64428, Control_c, 0, 7, 85
1, 64434, Control_c, 0, 7, 80
1, 64560, Note_on_c, 4, 58, 73
1, 64641, Note_on_c, 7, 62, 0
1, 64743, Control_c, 3, 11, 94
1, 64800, Control_c, 3, 11, 125
1, 65153, Control_c, 0, 7, 86
1, 65209, Control_c, 0, 7, 83
1, 65369, Note_on_c, 7, 62, 0
1, 65840, Note_off_c, 2, 69, 0
1, 66010, Note_on_c, 2, 79, 0
1, 66034, Pitch_bend_c, 4, 7425
1, 66098, Note_on_c, 13, 48, 0
1, 66228, Note_on_c, 7, 79, 0
1, 66881, Control_c, 4, 7, 58
1, 67012, Note_on_c, 5, 62, 0
1, 67160, Note_on_c, 5, 55, 120
1, 67280, Note_on_c, 1, 62, 120
1, 67320, Note_on_c, 2, 72, 120
1, 67647, Note_on_c, 7, 64, 0
1, 67689, Note_on_c, 7, 72, 0
1, 67762, Note_on_c, 2, 67, 0
1, 68002, Note_on_c, 4, 53, 0
1, 68861, Note_on_c, 2, 67, 0
1, 70040, Note_on_c, 1, 58, 120
1, 70320, Note_on_c, 5, 62, 120
1, 70360, Note_off_c, 5, 62, 0
1, 70440, Note_off_c, 10, 53, 0
1, 70440, Note_off_c, 5, 53, 0
1, 70600, Note_on_c, 5, 56, 120
1, 70680, Note_on_c, 0, 76, 120
1, 70760, Note_on_c, 10, 63, 120
1, 70840, Note_on_c, 5, 53, 120
1, 70840, Note_on_c, 0, 66, 120
1, 70840, Note_on_c, 1, 77, 120
1, 71900, Note_on_c, 1, 58, 120
1, 71960, Note_on_c, 1, 50, 120
1, 72680, Note_on_c, 5, 58, 120
1, 72680, Note_on_c, 1, 58, 120
1, 73000, Note_off_c, 0, 67, 0
1, 73320, Note_on_c, 0, 69, 120
1, 73600, Note_off_c, 0, 65, 0
1, 73800, 3840, Note_on_c, 0, 55, 75
1, 74220, Note_off_c, 2, 53, 0
1, 74480, Note_off_c, 1, 54, 0
1, 74480, Note_off_c, 10, 47, 0
1, 80320, Note_on_c, 5, 60, 100
1, 80923, Control_c, 3, 7, 83
1, 81000, Note_on_c, 5, 49, 120
1, 81120, Note_on_c, 10, 50, 120
1, 81240, Note_on_c, 0, 65, 120
1, 81400, Note_off_c, 5, 58, 0
1, 81480, Note_on_c, 10, 66, 120
1, 82200, Note_off_c, 1, 60, 0
1, 82280, Note_off_c, 0, 67, 0
1, 82640, Note_on_c, 10, 57, 120
1, 86160, Note_on_c, 7, 69, 0
1, 86320, Control_c, 12, 1, 3
1, 86598, Tempo, 48319
1, 90469, Note_on_c, 7, 65, 0
1, 91009, Note_on_c, 7, 58, 0
1, 92560, Control_c, 0, 7, 71
1, 112720, Note_on_c, 10, 45, 32
1, 117760, Note_on_c, 9, 49, 78
1, 127280, Note_on_c, 9, 49, 100
1, 128480, Note_on_c, 9, 36, 100
1, 129520, Note_on_c, 7, 60, 80
1, 129760, Note_on_c, 1, 37, 100
1, 129960, Note_on_c, {, 2, 79, 0
1, 137915, Note_on_c, 7, 62, 0
1, 139998, Note_on_c, 11, 78, 0
1, 140137, Control_c, 9, 11, 85
1, 142680, Control_c, 12, 7, 26
1, 147628, Control_c, 4, 7, 10
1, 148010, Control_c, 1, 7, 101
1, 148360, Control_c, 1, 7, 96
1, 148510, Note_on_c, 9, 42, 100
1, 152610, Control_c, 4, 7, 30
1, 155150, Control_c, 14, 7, 38
1, 155343, Note_on_c, 7, 57, 0
1, 157509, Note_on_c, 7, 57, 0
1, 161200, Control_c, 7, 11, 113
1, 538561, 0
1, 645722, Control_c, 4, 7, 105
1, 647059, Control_c, 4, 6, 74
1, 1950029, Note_off_c, 5, 0, 0
1, 1950029, Note_off_c, 5, 0, 0
1, 1950029, Note_off_c, 5, 0, 0
1, 1950029, Note_off_c, 5, 0, 0
1, 1950029, Note_off_c, 5, 0, 0
1, 1950029, Note_off_c, 5, 0, 0
2, 60
2, 1831, 18, 11, 80
2, 2398, 65, 81
2, 7096
2, 9088, Note_on_c, 0, 59, 0
2, 9440, Note_on_c, 0, 58, 110
2, 15528, Note_on_c, 0, 68, 75
2, 16424, Note_on_c, 0, 79, 0
2, 17520, Note_on_c, 0, 65, 0, Control_c, 2, 7, 100
2, 17728, Note_on_c, 0, 66, 75
2, 17872, Note_on_c, 0, 65, 0
2, 18176, Note_on_c, 0, 76, 0
2, 19666, Note_on_c, 0, 68, 0
2, 20528, Note_on_c, 0, 67, 75
2, 20558, Note_on_c, 0, 67, 0
2, 20944, Note_on_c, 0, 62, 75
2, 22704, Note_on_c, 0, 56, 75
2, 22784, Note_on_c, 0, 64, 75
2, 22874, Note_on_c, 0, 59, 0
2, 24784, 111280, Note_on_c, 9, 38, 100
2, 26030, Note_on_c, 0, 62, 116
2, 26182, Note_on_c, 0, 64, 0
2, 27420, Note_on_c, 0, 64, 71
2, 27436, Note_on_c, 0, 62, 75
2, 27680, Note_on_c, 0, 64, 110
2, 29536, Note_on_c, 0, 64, 0
2, 30434, Note_on_c, 0, 59, 0
2, 31320, Note_on_c, 0, 62, 100
2, 31360, Note_on_c, 0, 64, 0
2, 32920, Note_on_c, 0, 67, 75
2, 33026, Note_on_c, 0, 71, 0
2, 33656, Note_on_c, 0, 88, 69
2, 33670, Note_on_c, 0, 63, 0
2, 33930, Note_on_c, 0, 79, 0
2, 33968, Note_on_c, 0, 61, 75
2, 35040, Note_on_c, 0, 58, 117
2, 35096, Note_on_c, 0, 74, 127
2, 35234, Note_on_c, 0, 67, 0
2, 43900, Note_on_c, 0, 65, 115
2, 45080, Note_on_c, 0, 67, 0
2, 45936, Note_on_c, 0, 59, 75
2, 47200, Note_on_c, 0, 44, 100
2, 47362, Note_on_c, 0, 66, 0
2, 48832, Note_on_c, 0, 67, 75
2, 53952, Note_on_c, 0, 67, 110
2, 54560, Note_on_c, 0, 72, 0
2, 55040, Note_on_c, 0, 54, 110
2, 56288, Note_on_c, 0, 66, 127
2, 56504, Note_on_c, 0, 62, 110
2, 56560, Note_on_c, 0, 69, 110
2, 56920, Note_on_c, 0, 64, 127
2, 69740, Control_c, 0, Note_on_c, 1, 67, 86
2, 79032, Note_on_c, 0, 64, 110
2, 88814, Note_on_c, 0, 57, 0
2, 90525, Note_off_c, 5, 0, 0
2, 90569, Note_off_c, 5, 0, Note_on_c, 7, 78, 49
2, 90569, Note_off_c, 5, 0, 0
2, 90569, Note_off_c, 5, 0, 0
2, 90569, Note_off_c, 5, 0, 0
2, 90569, Note_off_c, 5, 0, 0
2, 90569, Note_off_c, 5, 0, 0
2, 90569, Note_off_c, 5, 0, 0
2, 90569, Note_off_c, 5, 0, 0
2, 90569, Note_off_c, 5, 0, 0
2, 90569, Note_off_c, 5, 0, 0
2, 90569, Note_off_c, 5, 0, 0
2, 90569, Note_off_c, 5, 0, 0
2, 90569, Note_off_c, 5, 0, 0
2, 90569, Note_off_c, 5, 0, 0
2, 90569, Note_off_c, 5, 0, 0
2, 90569, Note_off_c, 5, 0, 0
2, 90569, Note_off_c, 5, 0, 0
2, 90569, Note_off_c, 5, 0, 0
2, 90569, Note_off_c, 5, 0, 0
2, 90569, Note_off_c, 5, 0, 0
2, 90569, Note_off_c, 5, 0, 0
2, 90569, Note_off_c, 5, 0, 0
2, 90569, Note_off_c, 5, 0, 0
2, 90569, Note_off_c, 5, 0, 0
2, 90569, Note_off_c, 5, 0, 0
2, 101251, Control_c, 0, 64, 120
2, 102464, Note_on_c, 9, 52, 66
2, 112192, Note_on_c, 9, 42, 101
2, 112924, Note_on_c, 9, 46, 0
2, 113224, Note_on_c, 9, 40, 100
2, 113520, Note_on_c, 9, 55, 102
2, 114304, Note_on_c, 9, 46, 63
2, 114672, Note_on_c, 9, 52, 100
2, 114924, Note_on_c, 9, 40, 0
2, 116382, Note_on_c, 9, 35, 0
2, 118880, Note_on_c, 9, 35, 85
2, 119432, Note_on_c, 9, 52, 127
2, 163040, Note_on_c, 9, 46, 61
2, 163296, Note_on_c, 9, 40, 127
2, 163720, Note_on_c, 9, 42, 0
2, 171712, Note_on_c, 9, 40, 112
2, 172000, Note_on_c, 9, 40, 97
2, 172772, Note_on_c, 9, 40, 94
2, 173302, Note_on_c, 9, 55, 0
2, 174524, Note_on_c, 9, 42, 0
2, 183538, Note_on_c, 9, 46, 0
2, 183688, Note_on_c, 9, 46, 81
2, 1727842, Note_on_c, 1, 60, 0
2, 3442240, Note_on_c, 0, 60, 90
3, 0, Control_c, 2, 7, 100
3, 29, 114
3, 33, 3, 69, 65
3, 78
3, 234
3, 742, Note_on_c, 1, 94, 0
3, 2558, Note_on_c, 1, 94, 0
3, 2560, Note_on_c, 1, 99, 107
3, 2600, Note_on_c, 1, 92, 98
3, 2910, Note_on_c, 1, 99, 0
3, 3020, Note_on_c, 1, 57, 0
3, 3160, Note_on_c, 1, 67, 90
3, 3160, Note_on_c, 1, 55, 0
3, 3168, Note_on_c, 1, 63, 45
3, 3360, Note_on_c, 1, 77, 0
3, 3380, Note_on_c, 1, 94, 96
3, 3400, Note_on_c, 1, 90, 99
3, 3480, Note_on_c, 1, 83, 98
3, 4800, Note_on_c, 1, 60, 100
3, 4998, Note_on_c, 1, 60, 0
3, 5090, Note_on_c, 1, 95, 0
3, 5280, Note_on_c, 1, 85, 99
3, 5367, Note_on_c, 1, 97, 0
3, 6300, Note_on_c, 1, 99, 108
3, 6320, Note_on_c, 1, 95, 98
3, 6864, Note_on_c, 1, 66, 0
3, 6936, Note_on_c, 1, 59, 45
3, 6992, Note_on_c, 1, 63, 45
3, 7044, Note_on_c, 1, 59, 0
3, 7272, Note_on_c, 1, 67, 0
3, 7326, Note_on_c, {, 3, 48, 100
3, 7364, Note_on_c, 1, 63, 0
3, 7408, Note_on_c, 1, 67, 96
3, 7600, Note_on_c, 1, 77, 0
3, 7600, Note_on_c, 1, 75, 86
3, 7600, Note_on_c, 1, 63, 86
3, 7780, Note_on_c, 1, 9 180, {, 1, 88, 99
3, 8960, Note_on_c, 1, 57, 110
3, 9038, Note_on_c, 1, 97, 0
3, 9040, Note_on_c, 1, 94, 97
3, 9720, Note_on_c, 1, 75, 96
3, 13136, Note_on_c, 0, 65, 110
3, 13704, Note_on_c, 0, 67, 110
3, 15760, Note_on_c, 0, 86, 0
3, 15872, Note_on_c, 1, 64
3, 16360, Control_c, 0, 64, 127
3, 17260, Note_on_c, 1, 56, 100
3, 17280, Note_on_c, 1, 52, 100
3, 17320, Note_on_c, 1, 65, 90
3, 17360, Note_on_c, 1, 52, 100
3, 17520, Note_on_c, 1, 64, 100
3, 17840, Note_on_c, 0, 60, 127
3, 18136, Control_c, 0, 64, 127
3, 18578, Note_on_c, 1, 64, 0
3, 18818, Note_on_c, 1, 66, 0
3, 18818, Note_on_c, 1, 50, 0
3, 18838, Note_on_c, 1, 52, 0
3, 18960, Note_on_c, 1, 64, 100
3, 19188, Note_on_c, 0, 57, 0
3, 19238, Note_on_c, 1, 64, 0
3, 19440, Note_on_c, 1, 90, 96
3, 19600, Note_on_c, 0, 74, 110
3, 19982, Note_on_c, 1, 67, 0
3, 20171, Note_on_c, 1, 65, 0
3, 20397, Note_on_c, 1, 62, 0
3, 21520, Note_on_c, 1, 67, 70
3, 21583, Note_on_c, 1, 40, 0
3, 21840, Note_on_c, 1, 65, 120
3, 22000, Note_on_c, 1, 53, 110
3, 22086, Note_on_c, 1, 67, 0
3, 22200, Note_on_c, 1, 65, 110
3, 22202, Note_on_c, 1, 63, 0
3, 22269, Note_on_c, 1, 47, 0
3, 22342, Note_on_c, 1, 60, 0
3, 22422, Note_on_c, 1, 530, Control_c, 2, 11, 22
3, 23380, Note_on_c, 1, 52, 100
3, 23380, Note_on_c, 1, 58, 0
3, 23480, Note_on_c, 1, 50, 80
3, 23530, Note_on_c, 1, 90, 0
3, 23560, Note_on_c, 1, 68, 90
3, 23580, Note_on_c, 1, 90, 96
3, 23698, Note_on_c, 1, 52, 0
3, 23720, Note_on_c, 1, 56, 90
3, 23824, Note_on_c, 1, 67, 45
3, 23880, Note_on_c, 1, 38, 0
3, 23920, Note_on_c, 1, 65, 110
3, 25040, Note_on_c, 1, 65, 0
3, 25100, Note_on_c, 1, 70, 86
3, 25102, Note_on_c, 1, 67, 0
3, 25176, Note_on_c, 1, 79, 0
3, 25240, Note_on_c, 1, 68, 90
3, 25250, Note_on_c, 1, 63, 0
3, 25320, Note_on_c, 1, 62, 100
3, 25320, Note_on_c, 1, 63, 42
3, 25400, Note_on_c, 1, 57, 86
3, 25520, Note_on_c, 1, 55, 86
3, 25560, Note_on_c, 1, 72, 86
3, 27500, Note_on_c, 1, 70, 86
3, 27860, Note_on_c, 1, 71, 0
3, 29280, Note_on_c, 0, 62, 0
3, 29320, Note_on_c, 0, 62, 0
3, 29420, Note_on_c, 1, 55, 86
3, 29440, Note_on_c, 1, 50, 0
3, 29536, Note_on_c, 1, 61, 45
3, 29560, Note_on_c, 1, 43, 0
3, 29640, Note_on_c, 1, 77, 0
3, 29820, Note_on_c, 1, 66, 0
3, 31340, Note_on_c, 1, 52, 100
3, 31378, Note_on_c, 1, 62, 0
3, 31400, Note_on_c, 1, 52, 100
3, 31600, Note_on_c, 1, 58, 100
3, 31680, Note_on_c, 1, 64, 100
3, 32038, Note_on_c, 1, 64, 0
3, 32040, Note_on_c, 1, 70, 70
3, 32140, Note_on_c, 1, 60, 0
3, 32140, Note_on_c, 1, 75, 90
3, 32160, Note_on_c, 1, 70, 86
3, 32200, Note_on_c, 1, 77, 0
3, 32240, Note_on_c, 1, 63, 0
3, 32240, Note_on_c, 1, 55, 0
3, 32240, Note_on_c, 1, 77, 0
3, 32320, Note_on_c, 1, 56, 100
3, 32358, Note_on_c, 1, 52, 0
3, 32630, Control_c, 1, 11, 94
3, 32840, Note_on_c, 1, 62, 100
3, 33200, Note_on_c, 1, 31, 115
3, 33300, Note_on_c, 1, 52, 100
3, 33689, Note_on_c, 1, 3816478, {, 1, 57, 127
3, 33700, Note_on_c, 1, 38, 115
3, 33830, Control_c, 1, 11, 96
3, 33907, Note_on_c, 1, 41, 0
3, 34030, Note_on_c, 1, 67, 0
3, 34048, Note_on_c, 1, 64, 45
3, 34128, Note_on_c, 1, 67, 45
3, 34150, Note_on_c, 1, 67, 0
3, 34190, Note_on_c, 1, 67, 0
3, 34280, Note_on_c, 1, 67, 45
3, 34384, Note_on_c, 1, 66, 45
3, 34446, Note_on_c, 1, 59, 0
3, 34454, Note_on_c, 1, 66, 0
3, 34520, Note_on_c, 1, 62, 45
3, 34560, Note_on_c, 1, 67, 45
3, 34598, Note_on_c, 1, 64, 0
3, 34606, Note_on_c, 1, 62, 0
3, 34646, Note_on_c, 1, 54, 0
3, 34704, Note_on_c, 1, 43, 787, {, 0, 68, 0
3, 34712, Note_on_c, 1, 54, 45
3, 34716, Note_on_c, 1, 67, 45
3, 34726, Note_on_c, 1, 61, 0
3, 34762, Note_on_c, 1, 67, 0
3, 34768, Note_on_c, 1, 62, 45
3, 34782, Note_on_c, 1, 67, 0
3, 35960, Control_c, 1, 11, 102
3, 36224, Note_on_c, 1, 67, 45
3, 36390, Note_on_c, 1, 67, 0
3, 36658, Control_c, 1, 7, 75
3, 36830, Note_on_c, 1, 67, 0
3, 38240, Note_on_c, 1, 67, 45
3, 40240, Note_on_c, 1, 55, 127
3, 40960, Note_on_c, 1, 77, 0
3, 41120, Note_on_c, 1, 65, 110
3, 41280, Note_on_c, 1, 59, 110
3, 41856, Note_on_c, 1, 62, 45
3, 42242, Note_on_c, 1, 67, 0
3, 42278, Note_on_c, 1, 62, 0
3, 42986, Note_on_c, 1, 83, 0
3, 43158, Note_on_c, 1, 67, 0
3, 43206, Note_on_c, 1, 67, 0
3, 43232, Note_on_c, 1, 63, 45
3, 43250, Note_on_c, 1, 53, 0
3, 43408, Note_on_c, 1, 59, 45
3, 43462, Note_on_c, 1, 65, 0
3, 43584, Note_on_c, 1, 63, 45
3, 43742, Note_on_c, 1, 64, 0
3, 43824, Note_on_c, 1, 62, 45
3, 43872, Note_on_c, 1, 67, 45
3, 44120, Note_on_c, 1, 65, 110
3, 44216, Note_on_c, 1, 57, 45
3, 44332, Note_on_c, 1, 55, 45
3, 44574, Note_on_c, 1, 56, 0
3, 44980, Note_on_c, 1, 55, 110
3, 45590, Note_on_c, 1, 67, 0
3, 45942, Note_on_c, 1, 50, 0
3, 46408, Note_on_c, 1, 67, 45
3, 46874, Note_on_c, 1, 66, 0
3, 47040, Note_on_c, 0, 62, 127
3, 48184, Note_on_c, 1, 66, 45
3, 48294, Note_on_c, 1, 67, 0
3, 48576, Note_on_c, 1, 63, 45
3, 52784, Note_on_c, 1, 63, 45
3, 53728, Note_on_c, 1, 66, 45
3, 54198, Note_on_c, 1, 67, 0
3, 54210, Note_on_c, 1, 65, 0
3, 54332, Note_on_c, 1, 66, 45
3, 54782, Note_on_c, 1, 67, 0
3, 84986, Note_on_c, 1, 59, 0
3, 378149, Note_on_c, 0, 67, 110
3, 452271, 82
4, 50
4, 68, Control_c, 7, 0, 0
4, 151, Control_c, 4, 7, 72
4, 280
4, 420, Control_c, 1, 90, 10
4, 1396, 0
4, 2340, Note_on_c, 2, 77, 110
4, 2480, Note_on_c, 2, 89, 11
4, 2860, Note_on_c, 2, 87, 0
4, 4160, Note_on_c, 2, 26, 127
4, 4584, Note_on_c, 2, 50
4, 4633, 2, 81, 0
4, 4640, Note_on_c, 2, 26, 127
4, 4800, Note_on_c, 2, 50, 0
4, 6400, Note_on_c, 2, 58, 127
4, 6604, Note_on_c, 2, 50, 0
4, 7440, Note_on_c, 2, 97, 110
4, 9240, Control_c, 0, 7, 125
4, 9272, Note_on_c, 2, 77, 0
4, 10996, Note_on_c, 2, 67, 30
4, 13316, Note_on_c, 2, 59, 0
4, 13928, Note_on_c, 2, 66, 30
4, 14718, Note_on_c, 2, 65, 0
4, 14880, Note_on_c, 2, 63, 30
4, 15417, Note_on_c, 2, 82
4, 15520, Note_on_c, 2, 75, 97
4, 15580, Control_c, 2, 7, 80
4, 15870, Control_c, 2, 7, 100
4, 15880, Control_c, 2, 7, 100
4, 16678, Note_on_c, 2, 99, 0
4, 16780, Note_on_c, 2, 94259815, Note_off_c, 2, 70, 0
4, 17214, Note_on_c, 2, 64, 0
4, 17320, Note_on_c, 2, 56, 30
4, 17550, Note_on_c, 2, 59, 0
4, 17800, Note_on_c, 2, 99, 48, 8
4, 17920, Note_on_c, 1, 67, 72
4, 17984, Note_on_c, 2, 59, 30
4, 18272, Note_on_c, 2, 76, 75
4, 18360, Control_c, 1, 10, 64
4, 18672, Note_on_c, 2, 66, 30
4, 18960, Note_on_c, 1, 65, 127
4, 19200, Note_on_c, 1, 69, 127
4, 19392, Note_on_c, 2, 62, 30
4, 19438, Note_on_c, 2, 62, 0
4, 19478, Note_on_c, 2, 99, 0
4, 19672, Note_on_c, 2, 59, 30
4, 19758, Note_on_c, 2, 59, 0
4, 19794, Note_on_c, 2, 59, 0
4, 19810, Control_c, 2, 7, 99
4, 19824, Note_on_c, 2, 63, 0
4, 19840, Note_on_c, 2, 96, 47
4, 19890, Control_c, 2, 7, 100
4, 19920, Control_c, 1, 10, 44
4, 19926, Note_on_c, 2, 92, 0
4, 20040, Note_on_c, 1, 70, 0
4, 20200, Note_on_c, 1, 50, 0
4, 20240, Note_on_c, 1, 60, 127
4, 20320, Control_c, 1, 11, 34
4, 20360, Note_on_c, 1, 67, 0
4, 21520, Note_on_c, 1, 65, 127
4, 22290, Control_c, 2, 11, 87
4, 22856, Note_on_c, 0, 59, 0
4, 23430, Note_on_c, 2, 89, 0
4, 23440, Note_on_c, 2, 99, 0
4, 23462, Note_on_c, 2, 99, 0
4, 23462, Note_on_c, 2, 63, 0
4, 23500, Note_on_c, 2, 85, 50
4, 23534, Note_on_c, 2, 97, 0
4, 23728, Note_on_c, 2, 63, 30
4, 23830, Control_c, 2, 7, 100
4, 23850, Note_on_c, 2, 72, 0
4, 23880, Note_on_c, 2, 99, 127
4, 25136, Note_on_c, 2, 66, 30
4, 25400, Note_on_c, 2, 79, 100
4, 25760, Note_on_c, 2, 87, 10
4, 25918, Note_on_c, 2, 437350, Control_c, 6, 11, 79
4, 27640, Note_on_c, 2, 82, 110
4, 27840, Note_on_c, 2, 81, 104
4, 27902, Note_on_c, 2, 57, 0
4, 27920, Note_on_c, 2, 64, 100
4, 28800, Note_on_c, 1, 60, 127
4, 29240, 0
4, 31040, Note_on_c, 2, 952190, {, 3, 67, 80
4, 31040, Note_on_c, 2, 86, 0
4, 31687, Note_on_c, 2, 86, 0
4, 32784, Note_on_c, 2, 86, 10
4, 32791, Note_on_c, 2, 81, 0
4, 33188, Note_on_c, 2, 77, 0
4, 33280, Note_on_c, 2, 67, 0
4, 33600, Note_on_c, 2, 85, 0
4, 33680, Note_on_c, 2, 94, 123
4, 33820, Note_on_c, 2, 85, 10
4, 34184, Note_on_c, 2, 67, 30
4, 34336, Note_on_c, 2, 59, 30
4, 34350, Note_on_c, 2, 97, 0
4, 34390, Note_on_c, 2, 67, 0
4, 34670, Note_on_c, 2, 59, 0
4, 34722, Note_on_c, 2, 67, 0
4, 34822, Note_on_c, 2, 60, 0
4, 34840, Note_on_c, 2, 83, 100
4, 34992, Note_on_c, 2, 60, 30
4, 35360, Note_on_c, 2, 86, 95
4, 35540, Note_on_c, 2, 75, 113
4, 35580, Control_c, 1, 11, 40
4, 35600, Note_on_c, 8, 26, 103
4, 35666, Note_on_c, 8, 35, 0
4, 36214, Note_on_c, 2, 83, 0
4, 36320, Note_on_c, 2, 87, 113
4, 36840, Control_c, 1, 11, 60
4, 36860, Control_c, 1, 11, 46
4, 37080, Control_c, 1, 11, 63
4, 37580, Note_on_c, 8, 40, 0
4, 37792, Note_on_c, 8, 35, 69
4, 38020, Control_c, 2, 11, 79
4, 38968, Note_on_c, 8, 42, 126
4, 39112, Note_on_c, 8, 35, 0
4, 39128, Note_on_c, 8, 35, 101
4, 39376, Note_on_c, 8, 40, 123
4, 39672, Note_on_c, 8, 40, 0
4, 45440, Note_on_c, 2, 71, 100
4, 48024, Note_on_c, 2, 79, 0
4, 50240, Note_on_c, 0, 70, 0
4, 50384, Note_on_c, 8, 31, 118
4, 51264, Note_on_c, 8, 36, 101
4, 52300, Note_on_c, 8, 35, 0
4, 52388, Note_on_c, 8, 35, 0
4, 52480, Note_on_c, 8, 36, 95
4, 52522, Note_on_c, 8, 37, 0
4, 52592, Note_on_c, 8, 35, 104
4, 52600, Note_on_c, 0, 70, 127
4, 52640, Note_on_c, 0, 62, 127
4, 52720, Note_on_c, 0, 55, 0
4, 52720, Note_on_c, 0, 79, 127
4, 52800, Note_on_c, 0, 64, 0
4, 52880, Note_on_c, 0, 72, 0
4, 52880, Note_on_c, 0, 80, 127
4, 52920, Note_on_c, 0, 60, 127
4, 53280, Note_on_c, 0, 67, 127
4, 53760, Note_on_c, 0, 76, 0
4, 54240, Note_on_c, 0, 76, 127
4, 54480, Note_on_c, 0, 67, 127
4, 55280, Control_c, 12, 7, 18
4, 55920, Note_on_c, 0, 74, 127
4, 55920, Note_on_c, 0, 74, 127
4, 57520, Note_on_c, 0, 70, 0
4, 57920, Note_on_c, 1, 59, 95
4, 58160, Note_on_c, 2, 55, 105
4, 58527, Control_c, 2, 11, 98
4, 60318, Note_on_c, 2, 66, 3, 0, 0
4, 113138, Control_c, 2, 11, 27
4, 345438, Note_on_c, 4, 71, 0
4, 20243840, Note_on_c, 7, 62, 0
5, 0, Title_t, "Strang"
5, 0, Title_t, "Staff-9"
5, 0, Program_c, 3, 40
5, 0, Control_c, 3, 10, 33
5, 0, Title_t, "Starnt 8, 85, 110
5, 350, Control_c, 3, 10, 32
5, 3226, 31
5, 3320, Note_on_c, 3, 46, 0
5, 3320, Note_on_c, 3, 60, 100
5, 3880, Note_on_c, 3, 55, 101
5, 4280, Note_on_c, 3, 60, 100
5, 5088, Note_on_c, 3, 67, 10
5, 5110, Note_on_c, 3, 59, 0
5, 5220, Note_on_c, 3, 74, 110
5, 5256, Note_on_c, 3, 59, 10
5, 5320, Note_on_c, 3, 63, 72
5, 5360, Note_on_c, 3, 64, 0
5, 5440, Note_on_c, 3, 60, 100
5, 5640, Note_on_c, 3, 62, 0
5, 6400, Note_on_c, 3, 55, 100
5, 6680, Note_on_c, 3, 62, 127
5, 6960, Note_on_c, 3, 67, 100
5, 6960, Note_on_c, 3, 65, 100
5, 7320, Note_on_c, 3, 61, 0
5, 8400, Note_on_c, 3, 60, 0
5, 8552, Note_on_c, 3, 59, 10
5, 8950, Note_on_c, 3, 67, 0
5, 8968, Note_on_c, 3, 67, 10
5, 8982, Note_on_c, 3, 59, 0
5, 9140, Note_on_c, 3, 60, 0
5, 17040, Note_on_c, 1, 60, 0
5, 17200, Note_on_c, 1, 48, 127
5, 18920, Note_on_c, 1, 60, 127
5, 28631, Note_on_c, 3, 67, 0
5, 28672, Note_on_c, 3, 62, 10
5, 28806, Note_on_c, 3, 62, 0
5, 28921, Note_on_c, 3, 67, 0
5, 28944, Note_on_c, 3, 59, 10
5, 28990, Note_on_c, 3, 67, 0
5, 29262, 1, 26992, Note_on_c, 2, 56, 30
5, 29340, Note_on_c, 3, 77, 82
5, 31040, Note_on_c, 1, 58, 0
5, 31100, Control_c, 3, 11, 11
5, 32240, Control_c, 3, 11, 94
5, 32700, Control_c, 1, 11, 9
5, 32835, Control_c, 3, 11, 24
5, 33000, Control_c, 3, 11, 95
5, 33220, Control_c, 3, 11, 81
5, 33320, Control_c, 3, 11, 45
5, 33700, Control_c, 3, 11, 52
5, 33840, Control_c, 2, 7, 96
5, 33925, Control_c, 3, 102, 30
5, 37928, Note_on_c, 3, 67, 10
5, 38920, Note_on_c, 3, 64, 10
5, 38922, Note_on_c, 3, 64, 0
5, 39176, Note_on_c, 3, 67, 10
5, 39222, Note_on_c, 3, 67, 0
5, 39222, Note_on_c, 3, 66, 0
5, 39232, Note_on_c, 3, 64, 10
5, 39374, Note_on_c, 3, 53, 0
5, 39398, Note_on_c, 3, 59, 0
5, 39458, Note_on_c, 3, 67, 0
5, 39528, Note_on_c, 3, 59, 10
5, 39808, Note_on_c, 3, 60, 10
5, 42814, Note_on_c, 3, 64, 0
5, 43094, Note_on_c, 3, 59, 0
5, 43288, Note_on_c, 3, 59, 10
5, 43704, Note_on_c, 3, 64, 10
5, 43920, Note_on_c, 1, 45, 127
5, 43926, Note_on_c, 4, 63, 0
5, 44544, Note_on_c, 3, 67, 10
5, 44720, Control_c, 3, 11, 123
5, 44990, Control_c, 3, 11, 113
5, 45046, Control_c, 3, 11, 60
5, 45302, Note_on_c, 3, 67, 0
5, 48160, Note_on_c, 3, 74, 110
5, 49360, Note_on_c, 3, 62, 127
5, 49720, Note_on_c, 3, 50, 80
5, 54162, Note_on_c, 1, 77, 0
5, 54800, Note_on_c, 1, 83, 10
5, 55800, Note_on_c, 2, 85, 0
5, 85370, Control_c, 3, 11, 123
5, 86410, Control_c, 3, 11, 62
5, 88220, Control_c, 3, 7, 0
5, 88840, Note_on_c, 3, 73, 99
5, 240000, Note_off_c, 1, 47, 64
6, 0, MIDI_port, 0
6, 4, 0
6, 810, Note_on_c, 2, 52, 127
6, 40290, Control_c, 4, 11, 84
6, 40320, Control_c, 2, 11, 45
6, 48960, 9, 0
7, 0, Start_track
7, Note_on_c, 1, 57, 127
7, 349
7, 3390, Note_on_c, 5, 66, 0
7, 3400, Note_on_c, 5, 78, 100
7, 3896, Note_on_c, 4, 46, 92
7, 3978, Note_on_c, 4, 63, 0
7, 4008, Note_on_c, 4, 61, 92
7, 4040, Note_on_c, 3, 58, 0
7, 4623, Note_on_c, 4, 95510, Note_off_c, 10, 87, 64
7, 5258, Note_on_c, 5, 67, 0
7, 5296, Note_on_c, 5, 71, 80
7, 5440, Note_on_c, 5, 76, 100
7, 5460, Note_on_c, 5, 70, 0
7, 5502, Control_c, 4, 7, 24
7, 6192, Note_on_c, 6, 83, 106
7, 7298, Note_on_c, 4, 71, 0
7, 7472, Note_on_c, 4, 86, 92
7, 7760, Note_on_c, 5, 56, 101
7, 8146, Note_on_c, 4, 66, 0
7, 8488, Note_on_c, 4, 85, 126
7, 8818, Note_on_c, 4, 87, 0
7, 8880, Note_on_c, 4, 67, 92
7, 8984, Control_c, 4, 64, 127
7, 9004, Note_on_c, 5, 67, 0
7, 9760, Note_on_c, 5, 58, 101
7, 9840, Note_on_c, 5, 60, 101
7, 9920, Note_on_c, 5, 45, 105
7, 9920, Note_on_c, 5, 48, 105
7, 9920, Note_on_c, 5, 38, 0
7, 9940, Note_on_c, 5, 59, 102
7, 9960, Note_on_c, 5, 52, 104
7, 13840, Note_on_c, 6, 68, 122
7, 13922, Control_c, 6, 7, 104
7, 15016, Note_on_c, 6, 78, 0
7, 15176, Note_on_c, 6, 79, 116
7, 15264, Note_on_c, 6, 84, 106
7, 15265, Control_c, 6, 7, 94
7, 15360, Note_on_c, 5, 94610, {, 12, 75, 0
7, 15360, Note_on_c, 5, 76, 100
7, 15432, Control_c, 6, 7, 100
7, 15568, Control_c, 6, 7, 124
7, 15928, Note_on_c, 6, 83, 0
7, 17972, Note_on_c, 6, 88, 0
7, 19240, Note_on_c, 5, 88, 110
7, 19520, Note_on_c, 5, 81, 100
7, 19859, Control_c, 6, 7, 90
7, 19956, Note_on_c, 6, 78, 0
7, 21038, Control_c, 6, 7, 91
7, 21520, Note_on_c, 6, 75, 0
7, 21728, Control_c, 4, 7, 100
7, 21840, Note_on_c, 6, 67, 96
7, 22292, Control_c, 6, 7, 126
7, 22552, Note_on_c, 6, 55, 0
7, 23080, Note_on_c, 6, 82, 0
7, 23088, Note_on_c, 6, 60, 100
7, 23470, Note_on_c, 4, 28, 0
7, 23528, Note_on_c, 6, 74, 119
7, 23844, Note_on_c, 6, 95, 0
7, 23984, Note_on_c, 6, 83, 109
7, 24412, Control_c, 6, 7, 100
7, 24808, Note_on_c, 6, 75, 0
7, 24824, Note_on_c, 6, 78, 96
7, 24969, Control_c, 6, 7, 97
7, 29408, Note_on_c, 6, 74, 111
7, 29440, Note_on_c, 6, 57, 0
7, 29475, Control_c, 6, 7, 117
7, 29856, 684, Note_on_c, 6, 71, 0
7, 30496, Note_on_c, 4, 61, 92
7, 30702, Note_on_c, 4, 64, 0
7, 30992, Note_on_c, 4, 57, 93
7, 33234, Note_on_c, 4, 62, 0
7, 33928, Note_on_c, 4, 56, 93
7, 34054, Note_on_c, 4, 62, 0
7, 34344, Note_on_c, 4, 63, 92
7, 34724, Note_on_c, 5, 71, 0
7, 34770, Note_on_c, 5, 67, 0
7, 37200, Note_on_c, 4, 71, 92
7, 37430, Note_on_c, 4, 70, 0
7, 37950, Note_on_c, 4, 79, 0
7, 38624, Note_on_c, 4, 88, 92
7, 38924, Note_on_c, 4, 83, 0
7, 39792, Note_on_c, 4, 74, 92
7, 40520, Note_on_c, 3, 69, 0
7, 40535, Control_c, 4, 11, 85
7, 42688, Note_on_c, 2, 83, 118
7, 49440, Note_on_c, 3, 60, 0
7, 54944, Note_on_c, 4, 63, 0
8, 540, 0
8, 3040, Note_on_c, 6, 78, 80
8, 5398, Note_on_c, 6, 78, 0
8, 6960, Note_on_c, 6, 85, 79
8, 7098, Note_on_c, 6, 81, 0
8, 7140, Note_on_c, 6, 85, 80
8, 7200, Note_on_c, 6, 87, 48
8, 7298, Note_on_c, 6, 81, 0
8, 7338, Note_on_c, 6, 86, 0
8, 7418, Note_on_c, 6, 78, 0
8, 7674, Note_on_c, 0, 78, 0
8, 13360, Note_on_c, 6, 65, 50
8, 16038, Note_on_c, 6, 67, 0
8, 17158, Note_on_c, 6, 65, 0
8, 17380, Note_on_c, 5, 76, 0
8, 17500, Note_on_c, 6, 87, 79
8, 18300, 38, 127
8, 18726, Note_on_c, 6, 64, 0
8, 35184, Note_on_c, 0, 79, 65
8, 35216, Note_on_c, 0, 86, 83
8, 35694, Note_on_c, 0, 84, 0
8, 35918, Note_on_c, 0, 83, 0
8, 37618, Note_on_c, 8, 43, 0
8, 56224, Note_on_c, 6, 79, 110
8, 75592, Note_on_c, 6, 74, 79
8, 76960, Note_off_c, 6, 69, 64
8, 78592, Note_off_c, 6, 72, 64
8, 78896, Note_on_c, 6, 86, 107
8, 78944, Note_off_c, 6, 83, 64
8, 85120, Note_off_c, 6, 87, 64
8, 86480, Note_on_c, 6, 81, 108
8, 86624, Note_off_c, 6, 89, 64
8, 87280, Note_on_c, 6, 80, 116
8, 88031, 110
8, 88096, Note_off_c, 6, 79, 64
8, 88608, Note_on_c, 6, 72, 90
9, 220, 0
9, 2360, Note_on_c, 7, 66, 79
9, 2558, Note_on_c, 7, 69, 0
9, 3006, Note_on_c, 7, 64, 0
9, 3028, Note_on_c, 7, 67, 50
9, 3060, Note_on_c, 7, 73, 80
9, 3158, Note_on_c, 7, 71, 0
9, 3180, Note_on_c, 7, 69, 80
9, 3200, Note_on_c, 7, 69, 80
9, 3218, Note_on_c, 7, 66, 0
9, 3400
9, 3432, Note_on_c, 7, 67, 79
9, 3518, Note_on_c, 7, 66, 0
9, 3680, Note_on_c, 7, 67, 0
9, 4080, Note_on_c, 7, 78, 57
9, 4138, Note_on_c, 7, 73, 0
9, 4160, Note_on_c, 7, 69, 50
9, 4218, Note_on_c, 7, 78, 0
9, 4218, Note_on_c, 7, 65, 0
9, 4220, Note_on_c, 7, 47, 50
9, 4278, Note_on_c, 7, 71, 0
9, 4280, Note_on_c, 7, 76, 80
9, 4430, Note_on_c, 7, 78, 0
9, 4439, Note_on_c, 7, 73, 0
9, 4618, Note_on_c, 7, 83, 0
9, 4720, Note_on_c, 7, 73, 52
9, 4800, Note_on_c, 7, 74, 79
9, 4880, Note_on_c, 7, 67, 50
9, 4898, Note_on_c, 7, 71, 0
9, 5026, Note_on_c, 7, 71, 0
9, 5120, Note_on_c, 7, 68, 107
9, 5120, Note_on_c, 7, 73, 80
9, 5180, Note_on_c, 7, 66, 90
9, 5258, Note_on_c, 7, 62, 0
9, 5340, Note_on_c, 7, 74, 79
9, 6080, Note_on_c, 7, 66, 51
9, 6398, Note_on_c, 7, 71, 0
9, 6458, Note_on_c, 7, 69, 0
9, 6480, Note_on_c, 7, 64, 78
9, 6480, Note_on_c, 7, 67, 80
9, 6718, Note_on_c, 10758, {, 4, 78, 0
9, 6920, Note_on_c, 7, 71, 80
9, 6920, Note_on_c, 7, 71, 46
9, 7090, Note_on_c, 7, 69, 0
9, 7158, Note_on_c, 7, 72, 0
9, 7220, Note_on_c, 7, 83, 52
9, 7258, Note_on_c, 7, 85, 0
9, 7278, Note_on_c, 7, 69, 0
9, 7310, Note_on_c, 7, 73, 0
9, 7318, Note_on_c, 7, 67, 0
9, 7680, Note_on_c, 7, 64, 79
9, 7738, Note_on_c, 7, 65, 0
9, 7740, Note_on_c, 7, 61, 50
9, 7918, Note_on_c, 7, 69, 0
9, 7980, Note_on_c, 7, 66, 81
9, 8020, Note_on_c, 7, 71, 50
9, 8238, Note_on_c, 7, 69, 0
9, 8238, Note_on_c, 7, 67, 0
9, 8240, Note_on_c, 7, 73, 58
9, 8380, Note_on_c, 7, 78, 50
9, 8400, Note_on_c, 7, 69, 79
9, 8658, Note_on_c, 7, 74, 0
9, 8918, Note_on_c, 7, 71, 0
9, 8940, Note_on_c, 7, 64, 81
9, 9040, Note_on_c, 7, 78, 58
9, 9598, Note_on_c, 7, 73, 0
9, 15298, Note_on_c, 7, 67, 0
9, 19800, Note_on_c, 7, 67, 80
9, 20248, Note_on_c, 8, 55, 0
9, 20480, Note_on_c, 7, 64, 115
9, 21952, Note_on_c, 8, 61, 127
9, 24200, Note_on_c, 7, 64, 50
9, 24218, Note_on_c, 5, 111
9, 25446, Note_on_c, 1, 81, 0
9, 25514, Note_on_c, 7, 78, 0
9, 25666, Note_on_c, 1, 79, 0
9, 25712, Note_on_c, 1, 76, 79
9, 25838, Note_on_c, 7, 78, 0
9, 25940, Note_on_c, 7, 78, 55
9, 25984, Note_on_c, 1, 79, 57
9, 35982, Note_on_c, 7, 69, 0
9, 36318, Note_on_c, 7, 64, 0
9, 37918, Note_on_c, 7, 69, 0
9, 42880, Note_on_c, 1, 79, 56
9, 42948, Note_on_c, 3, 64, 0
9, 50248, Note_on_c, 8, 56, 127
9, 52104, Note_on_c, 8, 58, 0
9, 53704, Note_on_c, 8, 57, 0
9, 53720, Note_on_c, 8, 56, 0
9, 53840, Note_on_c, 8, 59, 127
9, 53920, Note_on_c, 7, 66, 49
9, 54176, Note_on_c, 8, 60, 127
9, 54184, Note_on_c, 8, 55, 0
9, 54230, Note_on_c, 8, 61, 0
9, 54264, Note_on_c, 8, 45, 92
9, 54528, Note_on_c, 8, 56, 127
9, 57070, Note_on_c, 3, 94, 0
9, 57340, Note_on_c, 7, 72, 102
9, 57854, Note_on_c, 7, 78, 0
9, 57920, Note_on_c, 7, 72, 79
9, 57920, Note_on_c, 7, 65, 102
9, 57938, Note_on_c, 7, 78, 0
9, 58340, Note_on_c, 7, 73, 105
9, 58432, Note_on_c, 8, 57, 127
9, 58482, Note_on_c, 8, 64, 0
9, 58682, Note_on_c, 7, 67, 0
9, 59000, Note_on_c, 7, 62, 105
9, 59520, Note_on_c, 7, 63, 103
10, 0, MIDI_port, 0
10, 3820, Note_on_c, 8, 33, 116
10, 10227, Note_on_c, 8, 44, 0
10, 10296, Note_on_c, 4, 76, 78
10, 11238, Note_on_c, 4, 76, 0
10, 11408, Note_on_c, 4, 67, 107
10, 11568, Note_on_c, 4, 71, 78
10, 16120, Note_on_c, 4, 71, 87
10, 16320, Note_on_c, 4, 76, 75
10, 16548, Note_on_c, 4, 79, 0
10, 16583, Note_on_c, 4, 71, 0
10, 18200, Control_c, 12, 11, 69
10, 18256, Note_on_c, 4, 80, {, 0, 64, 110
10, 18408, Note_on_c, 4, 71, 77
10, 18432, Note_on_c, 4, 71, 74
10, 43120, Note_on_c, 8, 46, 105
10, 85320, Note_on_c, 8, 43, 105
10, 100928, Note_on_c, 4, 780, {, 4, 65, 72
10, 102386, Note_on_c, 4, 81, 0
10, 113656, Note_on_c, 4, 75, 72
10, 118924, Note_on_c, 4, 76, 0
10, 119011, Note_on_c, 4, 80, 0
10, 119280, Note_on_c, 4, 75, 84
10, 123272, Note_on_c, 4, 77, 118
10, 145832, Note_on_c, 4, 68, 50
10, 146360, Program_c, 4, 80
10, 147454, Note_on_c, 4, 86, 0
10, 152624, Program_c, 4, 80
10, 155280, Note_on_c, 4, 78, 53
10, 155712, Note_on_c, 3, 66, 127
10, 156472, Note_on_c, 4, 81, 90
10, 156630, Note_on_c, 4, 80, 0
10, 156632, Program_c, 4, 80
10, 156878, Note_on_c, 4, 81, 0
10, 157296, Note_on_c, 4, 66, 56
10, 157560, Note_on_c, 4, 78, 101
10, 157624, Program_c, 4, 81
10, 157680, Note_on_c, 4, 64, 58
10, 157736, Program_c, 4, 80
10, 158981, Note_on_c, 4, 81, 0
10, 199624, Program_c, 4, 80
11, 40480, Note_on_c, 9, 35, 110
11, 40696, Note_on_c, 9, 40, 110
11, 41408, Note_off_c, 9, 31, 64
11, 41520, Note_on_c, 9, 36, 110
11, 41696, Note_off_c, 9, 36, 64
11, 41752, Note_off_c, 9, 36, 64
11, 41816, Note_on_c, 9, 31, 96
11, 42208, Note_off_c, 9, 36, 64
11, 42224, Note_off_c, 9, 31, 64
11, 42368, Note_off_c, 9, 31, 64
11, 42412, Note_off_c, 9, 31, 64
11, 42456, Note_off_c, 9, 40, 64
11, 42732, Note_on_c, 9, 44, 110
11, 43224, Note_off_c, 9, 44, 64
11, 43864, Note_off_c, 9, 31, 64
11, 45024, Note_off_c, 9, 35, 64
11, 47624, Note_off_c, 9, 36, 64
11, 47880, Note_off_c, 9, 46, 64
11, 49120, Note_off_c, 9, 31, 64
11, 49520, Note_on_c, 6, 78, 0
11, 62864, Note_on_c, 10, 82, 109
11, 63360, Note_on_c, 10, 77, 69
11, 63704, Note_on_c, 10, 83, 100
11, 65214, Control_c, 7, 7, 83
11, 65216, Control_c, 7, 7, 73
11, 65426, Control_c, 7, 7, 57
11, 65721, Control_c, 7, 7, 46
11, 66931, Control_c, 7, 7, 78
11, 66960, Control_c, 7, 7, 47
11, 66995, Control_c, 7, 7, 98
11, 68275, Control_c, 7, 7, 91
11, 68285, Control_c, 7, 7, 108
11, 130504, Note_on_c, 10, 83, 89
11, 130940, Note_on_c, 10, 65, 59
11, 132783, Note_on_c, 10, 76, 0
11, 133388, Note_on_c, 10, 64, 0, 59, 1267, 0
11, 239240, Note_off_c, 9, 31, 64
11, 252912, Note_off_c, 9, 40, 64
11, 256064, Note_off_c, 9, 35, 64
11, 297328, Note_off_c, 9, 31, 64
11, 298144, Note_on_c, 9, 31, 64
11, 680912, Note_on_c, 4, 81, 100
12, 62120, Note_on_c, 30
12, 62588, Note_on_c, 3, 67, 125
12, 148324, Note_on_c, 3, 73, 82
12, 172091, Note_on_c, 4, 78, 0
12, 440, End_track
13, 0, Control_c, 11, 99, 1
13, 617, Control_c, 12, 11, 122
13, 25920, Note_on_c, 11, 64, 115
13, 25944, Note_on_c, 11, 78, 0
13, 34224, Note_on_c, 12, 48, 97
13, 34263, Control_c, 12, 7, 88
13, 34430, Control_c, 12, 7, 76
13, 34976, Note_on_c, 12, 48, 0
13, 43220, Note_on_c, 11, 67, 0
13, 43360, Note_on_c, 11, 61, 85
13, 43520, Note_on_c, 11, 64, 115
13, 43720, Note_on_c, 11, 76, 0
14, 800, Control_c, 15, 11, 48
14, 10345, Control_c, 12, 11, 126
14, 10475, Control_c, 12, 11, 122
14, 10580, Control_c, 12, 11, 20
14, 19900, Note_on_c, 12, 29, 110
14, 19920, Note_on_c, 12, 29, 110
14, 19924, Note_on_c, 12, 29, 0
14, 25481, Note_on_c, 12, 57, 0
15, 1000, Control_c, 12, 11, 123
15, 1320, Control_c, 12, 11, 42
15, 8320, Note_on_c, 13, 54, 100
15, 8560, Note_on_c, 13, 53, 0
15, 15887, Note_on_c, 12, 29, 0
15, 25920, Note_on_c, 13, 77, 120
16, 0, Control_c, 14, 91, 42
16, 53459, Control_c, 13, 7, 106
17, 480, Control_c, 14, 11, 100
17, 600, Control_c, 12, 11, 54
19, 51880, Control_c, 14, 11, 22
