0, 0, Header, 1, 16, 480
1, 0, Start_track
1, 0, Title_t, ""
1, 0, Time_signature, 4, 2, 24, 8
1, 0, Tempo, 681818
1, 0, Tempo, 681818
1, 0, Tempo, 681818
1, 0, Tempo, 681818
1, 0, Tempo, 681818
1, 480, Tempo, 810810
1, 480, End_track
2, 0, Start_track
2, 0, Title_t, ""
2, 0, System_exclusive, 8, 67, 16, 76, 0, 0, 126, 0, 247
2, 0, System_exclusive, 9, 67, 16, 76, 2, 1, 0, 1, 7, 247
2, 0, System_exclusive, 8, 67, 16, 76, 0, 0, 4, 127, 247
2, 0, System_exclusive, 8, 67, 16, 76, 8, 1, 8, 52, 247
2, 0, End_track
3, 0, Start_track
3, 0, Title_t, ""
3, 0, Control_c, 1, 0, 0
3, 0, Control_c, 1, 32, 18
3, 0, Program_c, 1, 38
3, 0, Pitch_bend_c, 1, 8192
3, 0, Control_c, 1, 1, 0
3, 0, Control_c, 1, 7, 127
3, 0, Control_c, 1, 10, 64
3, 0, Control_c, 1, 11, 125
3, 0, Control_c, 1, 64, 0
3, 0, Control_c, 1, 91, 20
3, 0, Control_c, 1, 93, 0
3, 0, Control_c, 1, 101, 0
3, 0, Control_c, 1, 100, 0
3, 0, Control_c, 1, 6, 12
3, 0, Control_c, 1, 99, 1
3, 0, Control_c, 1, 98, 32
3, 0, Control_c, 1, 6, 75
3, 0, Control_c, 1, 99, 1
3, 0, Control_c, 1, 98, 33
3, 0, Control_c, 1, 6, 30
3, 44160, Note_on_c, 1, 45, 114
3, 46042, Note_on_c, 1, 45, 0
3, 46080, Note_on_c, 1, 44, 108
3, 47962, Note_on_c, 1, 44, 0
3, 48000, Note_on_c, 1, 43, 111
3, 49882, Note_on_c, 1, 43, 0
3, 51840, Note_on_c, 1, 44, 114
3, 53515, Note_on_c, 1, 44, 0
3, 53520, Note_on_c, 1, 51, 114
3, 53755, Note_on_c, 1, 51, 0
3, 53760, Note_on_c, 1, 44, 114
3, 55435, Note_on_c, 1, 44, 0
3, 55440, Note_on_c, 1, 44, 114
3, 55675, Note_on_c, 1, 44, 0
3, 55680, Note_on_c, 1, 43, 114
3, 57355, Note_on_c, 1, 43, 0
3, 57360, Note_on_c, 1, 50, 114
3, 57595, Note_on_c, 1, 50, 0
3, 57600, Note_on_c, 1, 43, 114
3, 58070, Note_on_c, 1, 43, 0
3, 58080, Note_on_c, 1, 50, 114
3, 58315, Note_on_c, 1, 50, 0
3, 58320, Note_on_c, 1, 57, 114
3, 58795, Note_on_c, 1, 57, 0
3, 58800, Note_on_c, 1, 55, 114
3, 59275, Note_on_c, 1, 55, 0
3, 59280, Note_on_c, 1, 50, 114
3, 59515, Note_on_c, 1, 50, 0
3, 59520, Note_on_c, 1, 44, 114
3, 60931, Note_on_c, 1, 44, 0
3, 60960, Note_on_c, 1, 56, 114
3, 61195, Note_on_c, 1, 56, 0
3, 61200, Note_on_c, 1, 55, 114
3, 61435, Note_on_c, 1, 55, 0
3, 61440, Note_on_c, 1, 53, 114
3, 62146, Note_on_c, 1, 53, 0
3, 62160, Note_on_c, 1, 51, 114
3, 62395, Note_on_c, 1, 51, 0
3, 62400, Note_on_c, 1, 49, 114
3, 63106, Note_on_c, 1, 49, 0
3, 63120, Note_on_c, 1, 44, 114
3, 63355, Note_on_c, 1, 44, 0
3, 63360, Note_on_c, 1, 43, 114
3, 65242, Note_on_c, 1, 43, 0
3, 65280, Note_on_c, 1, 55, 114
3, 67162, Note_on_c, 1, 55, 0
3, 67162, End_track
4, 0, Start_track
4, 0, Title_t, ""
4, 0, Control_c, 2, 0, 0
4, 0, Control_c, 2, 32, 0
4, 0, Program_c, 2, 46
4, 0, Pitch_bend_c, 2, 8192
4, 0, Control_c, 2, 1, 0
4, 0, Control_c, 2, 7, 127
4, 0, Control_c, 2, 10, 20
4, 0, Control_c, 2, 11, 108
4, 0, Control_c, 2, 91, 80
4, 0, Control_c, 2, 93, 0
4, 0, Control_c, 2, 99, 1
4, 0, Control_c, 2, 98, 32
4, 0, Control_c, 2, 6, 75
4, 1920, Note_on_c, 2, 43, 98
4, 2155, Note_on_c, 2, 43, 0
4, 2640, Note_on_c, 2, 43, 98
4, 3115, Note_on_c, 2, 43, 0
4, 3360, Note_on_c, 2, 55, 98
4, 3830, Note_on_c, 2, 55, 0
4, 3840, Note_on_c, 2, 43, 98
4, 4075, Note_on_c, 2, 43, 0
4, 4560, Note_on_c, 2, 43, 98
4, 5035, Note_on_c, 2, 43, 0
4, 5280, Note_on_c, 2, 55, 98
4, 5750, Note_on_c, 2, 55, 0
4, 5760, Note_on_c, 2, 43, 98
4, 5995, Note_on_c, 2, 43, 0
4, 6480, Note_on_c, 2, 43, 98
4, 6955, Note_on_c, 2, 43, 0
4, 7200, Note_on_c, 2, 55, 98
4, 7670, Note_on_c, 2, 55, 0
4, 7680, Note_on_c, 2, 43, 98
4, 7915, Note_on_c, 2, 43, 0
4, 8400, Note_on_c, 2, 43, 98
4, 8875, Note_on_c, 2, 43, 0
4, 9120, Note_on_c, 2, 55, 98
4, 9590, Note_on_c, 2, 55, 0
4, 9600, Note_on_c, 2, 43, 98
4, 9835, Note_on_c, 2, 43, 0
4, 10320, Note_on_c, 2, 43, 98
4, 10795, Note_on_c, 2, 43, 0
4, 11040, Note_on_c, 2, 55, 98
4, 11510, Note_on_c, 2, 55, 0
4, 11520, Note_on_c, 2, 43, 98
4, 11755, Note_on_c, 2, 43, 0
4, 12240, Note_on_c, 2, 43, 98
4, 12715, Note_on_c, 2, 43, 0
4, 12960, Note_on_c, 2, 55, 98
4, 13430, Note_on_c, 2, 55, 0
4, 13440, Note_on_c, 2, 43, 98
4, 13675, Note_on_c, 2, 43, 0
4, 14160, Note_on_c, 2, 43, 98
4, 14635, Note_on_c, 2, 43, 0
4, 14880, Note_on_c, 2, 55, 98
4, 15350, Note_on_c, 2, 55, 0
4, 15360, Note_on_c, 2, 43, 98
4, 15595, Note_on_c, 2, 43, 0
4, 16080, Note_on_c, 2, 43, 98
4, 16555, Note_on_c, 2, 43, 0
4, 16800, Note_on_c, 2, 55, 98
4, 17270, Note_on_c, 2, 55, 0
4, 17280, Note_on_c, 2, 43, 98
4, 17515, Note_on_c, 2, 43, 0
4, 18000, Note_on_c, 2, 43, 98
4, 18475, Note_on_c, 2, 43, 0
4, 18720, Note_on_c, 2, 55, 98
4, 19190, Note_on_c, 2, 55, 0
4, 19200, Note_on_c, 2, 43, 98
4, 19435, Note_on_c, 2, 43, 0
4, 19920, Note_on_c, 2, 43, 98
4, 20395, Note_on_c, 2, 43, 0
4, 20640, Note_on_c, 2, 55, 98
4, 21110, Note_on_c, 2, 55, 0
4, 21120, Note_on_c, 2, 48, 98
4, 21360, Note_on_c, 2, 55, 98
4, 21595, Note_on_c, 2, 55, 0
4, 22061, Note_on_c, 2, 48, 0
4, 22080, Note_on_c, 2, 48, 98
4, 22320, Note_on_c, 2, 53, 98
4, 22555, Note_on_c, 2, 53, 0
4, 23021, Note_on_c, 2, 48, 0
4, 23040, Note_on_c, 2, 48, 98
4, 23280, Note_on_c, 2, 55, 98
4, 23515, Note_on_c, 2, 55, 0
4, 23981, Note_on_c, 2, 48, 0
4, 24000, Note_on_c, 2, 48, 98
4, 24240, Note_on_c, 2, 53, 98
4, 24475, Note_on_c, 2, 53, 0
4, 24941, Note_on_c, 2, 48, 0
4, 24960, Note_on_c, 2, 48, 98
4, 25200, Note_on_c, 2, 55, 98
4, 25435, Note_on_c, 2, 55, 0
4, 25901, Note_on_c, 2, 48, 0
4, 25920, Note_on_c, 2, 48, 98
4, 26861, Note_on_c, 2, 48, 0
4, 26880, Note_on_c, 2, 48, 98
4, 27120, Note_on_c, 2, 55, 98
4, 27355, Note_on_c, 2, 55, 0
4, 27821, Note_on_c, 2, 48, 0
4, 27840, Note_on_c, 2, 48, 98
4, 28080, Note_on_c, 2, 53, 98
4, 28315, Note_on_c, 2, 53, 0
4, 28781, Note_on_c, 2, 48, 0
4, 28800, Note_on_c, 2, 48, 98
4, 29040, Note_on_c, 2, 55, 98
4, 29275, Note_on_c, 2, 55, 0
4, 29741, Note_on_c, 2, 48, 0
4, 29760, Note_on_c, 2, 48, 98
4, 30000, Note_on_c, 2, 53, 98
4, 30235, Note_on_c, 2, 53, 0
4, 30701, Note_on_c, 2, 48, 0
4, 30720, Note_on_c, 2, 48, 98
4, 30960, Note_on_c, 2, 55, 98
4, 31195, Note_on_c, 2, 55, 0
4, 31661, Note_on_c, 2, 48, 0
4, 31680, Note_on_c, 2, 47, 97
4, 32621, Note_on_c, 2, 47, 0
4, 32640, Note_on_c, 2, 45, 97
4, 33581, Note_on_c, 2, 45, 0
4, 33600, Note_on_c, 2, 43, 97
4, 34541, Note_on_c, 2, 43, 0
4, 34560, Note_on_c, 2, 48, 97
4, 34800, Note_on_c, 2, 55, 97
4, 35035, Note_on_c, 2, 55, 0
4, 35501, Note_on_c, 2, 48, 0
4, 35520, Note_on_c, 2, 48, 97
4, 35760, Note_on_c, 2, 53, 97
4, 35995, Note_on_c, 2, 53, 0
4, 36461, Note_on_c, 2, 48, 0
4, 36480, Note_on_c, 2, 48, 97
4, 36720, Note_on_c, 2, 55, 95
4, 36955, Note_on_c, 2, 55, 0
4, 37421, Note_on_c, 2, 48, 0
4, 37440, Note_on_c, 2, 47, 97
4, 38381, Note_on_c, 2, 47, 0
4, 38400, Note_on_c, 2, 45, 97
4, 39341, Note_on_c, 2, 45, 0
4, 39360, Note_on_c, 2, 50, 97
4, 40301, Note_on_c, 2, 50, 0
4, 40320, Note_on_c, 2, 40, 98
4, 41261, Note_on_c, 2, 40, 0
4, 67200, Note_on_c, 2, 48, 98
4, 67200, Control_c, 2, 7, 125
4, 67230, Control_c, 2, 7, 125
4, 67260, Control_c, 2, 7, 125
4, 67290, Control_c, 2, 7, 125
4, 67320, Control_c, 2, 7, 125
4, 67350, Control_c, 2, 7, 124
4, 67380, Control_c, 2, 7, 124
4, 67410, Control_c, 2, 7, 124
4, 67440, Note_on_c, 2, 55, 98
4, 67440, Control_c, 2, 7, 124
4, 67470, Control_c, 2, 7, 123
4, 67500, Control_c, 2, 7, 123
4, 67530, Control_c, 2, 7, 123
4, 67560, Control_c, 2, 7, 123
4, 67590, Control_c, 2, 7, 122
4, 67620, Control_c, 2, 7, 122
4, 67650, Control_c, 2, 7, 122
4, 67675, Note_on_c, 2, 55, 0
4, 67680, Control_c, 2, 7, 122
4, 67710, Control_c, 2, 7, 121
4, 67740, Control_c, 2, 7, 121
4, 67770, Control_c, 2, 7, 121
4, 67800, Control_c, 2, 7, 121
4, 67830, Control_c, 2, 7, 120
4, 67860, Control_c, 2, 7, 120
4, 67890, Control_c, 2, 7, 120
4, 67920, Control_c, 2, 7, 120
4, 67950, Control_c, 2, 7, 119
4, 67980, Control_c, 2, 7, 119
4, 68010, Control_c, 2, 7, 119
4, 68040, Control_c, 2, 7, 119
4, 68070, Control_c, 2, 7, 118
4, 68100, Control_c, 2, 7, 118
4, 68130, Control_c, 2, 7, 118
4, 68141, Note_on_c, 2, 48, 0
4, 68160, Note_on_c, 2, 48, 98
4, 68160, Control_c, 2, 7, 118
4, 68190, Control_c, 2, 7, 118
4, 68220, Control_c, 2, 7, 117
4, 68250, Control_c, 2, 7, 117
4, 68280, Control_c, 2, 7, 117
4, 68310, Control_c, 2, 7, 117
4, 68340, Control_c, 2, 7, 116
4, 68370, Control_c, 2, 7, 116
4, 68400, Note_on_c, 2, 53, 98
4, 68400, Control_c, 2, 7, 116
4, 68430, Control_c, 2, 7, 116
4, 68460, Control_c, 2, 7, 115
4, 68490, Control_c, 2, 7, 115
4, 68520, Control_c, 2, 7, 115
4, 68550, Control_c, 2, 7, 115
4, 68580, Control_c, 2, 7, 114
4, 68610, Control_c, 2, 7, 114
4, 68635, Note_on_c, 2, 53, 0
4, 68640, Control_c, 2, 7, 114
4, 68670, Control_c, 2, 7, 114
4, 68700, Control_c, 2, 7, 113
4, 68730, Control_c, 2, 7, 113
4, 68760, Control_c, 2, 7, 113
4, 68790, Control_c, 2, 7, 113
4, 68820, Control_c, 2, 7, 112
4, 68850, Control_c, 2, 7, 112
4, 68880, Control_c, 2, 7, 112
4, 68910, Control_c, 2, 7, 112
4, 68940, Control_c, 2, 7, 111
4, 68970, Control_c, 2, 7, 111
4, 69000, Control_c, 2, 7, 111
4, 69030, Control_c, 2, 7, 111
4, 69060, Control_c, 2, 7, 111
4, 69090, Control_c, 2, 7, 110
4, 69101, Note_on_c, 2, 48, 0
4, 69120, Note_on_c, 2, 48, 98
4, 69120, Control_c, 2, 7, 110
4, 69150, Control_c, 2, 7, 110
4, 69180, Control_c, 2, 7, 110
4, 69210, Control_c, 2, 7, 109
4, 69240, Control_c, 2, 7, 109
4, 69270, Control_c, 2, 7, 109
4, 69300, Control_c, 2, 7, 109
4, 69330, Control_c, 2, 7, 108
4, 69360, Note_on_c, 2, 55, 98
4, 69360, Control_c, 2, 7, 108
4, 69390, Control_c, 2, 7, 108
4, 69420, Control_c, 2, 7, 108
4, 69450, Control_c, 2, 7, 107
4, 69480, Control_c, 2, 7, 107
4, 69510, Control_c, 2, 7, 107
4, 69540, Control_c, 2, 7, 107
4, 69570, Control_c, 2, 7, 106
4, 69595, Note_on_c, 2, 55, 0
4, 69600, Control_c, 2, 7, 106
4, 69630, Control_c, 2, 7, 106
4, 69660, Control_c, 2, 7, 106
4, 69690, Control_c, 2, 7, 105
4, 69720, Control_c, 2, 7, 105
4, 69750, Control_c, 2, 7, 105
4, 69780, Control_c, 2, 7, 105
4, 69810, Control_c, 2, 7, 104
4, 69840, Control_c, 2, 7, 104
4, 69870, Control_c, 2, 7, 104
4, 69900, Control_c, 2, 7, 104
4, 69930, Control_c, 2, 7, 104
4, 69960, Control_c, 2, 7, 103
4, 69990, Control_c, 2, 7, 103
4, 70020, Control_c, 2, 7, 103
4, 70050, Control_c, 2, 7, 103
4, 70061, Note_on_c, 2, 48, 0
4, 70080, Note_on_c, 2, 48, 98
4, 70080, Control_c, 2, 7, 102
4, 70110, Control_c, 2, 7, 102
4, 70140, Control_c, 2, 7, 102
4, 70170, Control_c, 2, 7, 102
4, 70200, Control_c, 2, 7, 101
4, 70230, Control_c, 2, 7, 101
4, 70260, Control_c, 2, 7, 101
4, 70290, Control_c, 2, 7, 101
4, 70320, Note_on_c, 2, 53, 98
4, 70320, Control_c, 2, 7, 100
4, 70350, Control_c, 2, 7, 100
4, 70380, Control_c, 2, 7, 100
4, 70410, Control_c, 2, 7, 100
4, 70440, Control_c, 2, 7, 99
4, 70470, Control_c, 2, 7, 99
4, 70500, Control_c, 2, 7, 99
4, 70530, Control_c, 2, 7, 99
4, 70555, Note_on_c, 2, 53, 0
4, 70560, Control_c, 2, 7, 98
4, 70590, Control_c, 2, 7, 98
4, 70620, Control_c, 2, 7, 98
4, 70650, Control_c, 2, 7, 98
4, 70680, Control_c, 2, 7, 97
4, 70710, Control_c, 2, 7, 97
4, 70740, Control_c, 2, 7, 97
4, 70770, Control_c, 2, 7, 97
4, 70800, Control_c, 2, 7, 96
4, 70830, Control_c, 2, 7, 96
4, 70860, Control_c, 2, 7, 96
4, 70890, Control_c, 2, 7, 96
4, 70920, Control_c, 2, 7, 96
4, 70950, Control_c, 2, 7, 95
4, 70980, Control_c, 2, 7, 95
4, 71010, Control_c, 2, 7, 95
4, 71021, Note_on_c, 2, 48, 0
4, 71040, Note_on_c, 2, 48, 98
4, 71040, Control_c, 2, 7, 95
4, 71070, Control_c, 2, 7, 94
4, 71100, Control_c, 2, 7, 94
4, 71130, Control_c, 2, 7, 94
4, 71160, Control_c, 2, 7, 94
4, 71190, Control_c, 2, 7, 93
4, 71220, Control_c, 2, 7, 93
4, 71250, Control_c, 2, 7, 93
4, 71280, Note_on_c, 2, 55, 98
4, 71280, Control_c, 2, 7, 93
4, 71310, Control_c, 2, 7, 92
4, 71340, Control_c, 2, 7, 92
4, 71370, Control_c, 2, 7, 92
4, 71400, Control_c, 2, 7, 92
4, 71430, Control_c, 2, 7, 91
4, 71460, Control_c, 2, 7, 91
4, 71490, Control_c, 2, 7, 91
4, 71515, Note_on_c, 2, 55, 0
4, 71520, Control_c, 2, 7, 91
4, 71550, Control_c, 2, 7, 90
4, 71580, Control_c, 2, 7, 90
4, 71610, Control_c, 2, 7, 90
4, 71640, Control_c, 2, 7, 90
4, 71670, Control_c, 2, 7, 89
4, 71700, Control_c, 2, 7, 89
4, 71730, Control_c, 2, 7, 89
4, 71760, Control_c, 2, 7, 89
4, 71790, Control_c, 2, 7, 89
4, 71820, Control_c, 2, 7, 88
4, 71850, Control_c, 2, 7, 88
4, 71880, Control_c, 2, 7, 88
4, 71910, Control_c, 2, 7, 88
4, 71940, Control_c, 2, 7, 87
4, 71970, Control_c, 2, 7, 87
4, 71981, Note_on_c, 2, 48, 0
4, 72000, Note_on_c, 2, 48, 98
4, 72000, Control_c, 2, 7, 87
4, 72030, Control_c, 2, 7, 87
4, 72060, Control_c, 2, 7, 86
4, 72090, Control_c, 2, 7, 86
4, 72120, Control_c, 2, 7, 86
4, 72150, Control_c, 2, 7, 86
4, 72180, Control_c, 2, 7, 85
4, 72210, Control_c, 2, 7, 85
4, 72240, Control_c, 2, 7, 85
4, 72270, Control_c, 2, 7, 85
4, 72300, Control_c, 2, 7, 84
4, 72330, Control_c, 2, 7, 84
4, 72360, Control_c, 2, 7, 84
4, 72390, Control_c, 2, 7, 84
4, 72420, Control_c, 2, 7, 83
4, 72450, Control_c, 2, 7, 83
4, 72480, Control_c, 2, 7, 83
4, 72510, Control_c, 2, 7, 83
4, 72540, Control_c, 2, 7, 82
4, 72570, Control_c, 2, 7, 82
4, 72600, Control_c, 2, 7, 82
4, 72630, Control_c, 2, 7, 82
4, 72660, Control_c, 2, 7, 82
4, 72690, Control_c, 2, 7, 81
4, 72720, Control_c, 2, 7, 81
4, 72750, Control_c, 2, 7, 81
4, 72780, Control_c, 2, 7, 81
4, 72810, Control_c, 2, 7, 80
4, 72840, Control_c, 2, 7, 80
4, 72870, Control_c, 2, 7, 80
4, 72900, Control_c, 2, 7, 80
4, 72930, Control_c, 2, 7, 79
4, 72941, Note_on_c, 2, 48, 0
4, 72960, Note_on_c, 2, 48, 98
4, 72960, Control_c, 2, 7, 79
4, 72990, Control_c, 2, 7, 79
4, 73020, Control_c, 2, 7, 79
4, 73050, Control_c, 2, 7, 78
4, 73080, Control_c, 2, 7, 78
4, 73110, Control_c, 2, 7, 78
4, 73140, Control_c, 2, 7, 78
4, 73170, Control_c, 2, 7, 77
4, 73200, Note_on_c, 2, 55, 98
4, 73200, Control_c, 2, 7, 77
4, 73230, Control_c, 2, 7, 77
4, 73260, Control_c, 2, 7, 77
4, 73290, Control_c, 2, 7, 76
4, 73320, Control_c, 2, 7, 76
4, 73350, Control_c, 2, 7, 76
4, 73380, Control_c, 2, 7, 76
4, 73410, Control_c, 2, 7, 75
4, 73435, Note_on_c, 2, 55, 0
4, 73440, Control_c, 2, 7, 75
4, 73470, Control_c, 2, 7, 75
4, 73500, Control_c, 2, 7, 75
4, 73530, Control_c, 2, 7, 74
4, 73560, Control_c, 2, 7, 74
4, 73590, Control_c, 2, 7, 74
4, 73620, Control_c, 2, 7, 74
4, 73650, Control_c, 2, 7, 74
4, 73680, Control_c, 2, 7, 73
4, 73710, Control_c, 2, 7, 73
4, 73740, Control_c, 2, 7, 73
4, 73770, Control_c, 2, 7, 73
4, 73800, Control_c, 2, 7, 72
4, 73830, Control_c, 2, 7, 72
4, 73860, Control_c, 2, 7, 72
4, 73890, Control_c, 2, 7, 72
4, 73901, Note_on_c, 2, 48, 0
4, 73920, Note_on_c, 2, 48, 98
4, 73920, Control_c, 2, 7, 71
4, 73950, Control_c, 2, 7, 71
4, 73980, Control_c, 2, 7, 71
4, 74010, Control_c, 2, 7, 71
4, 74040, Control_c, 2, 7, 70
4, 74070, Control_c, 2, 7, 70
4, 74100, Control_c, 2, 7, 70
4, 74130, Control_c, 2, 7, 70
4, 74160, Note_on_c, 2, 53, 98
4, 74160, Control_c, 2, 7, 69
4, 74190, Control_c, 2, 7, 69
4, 74220, Control_c, 2, 7, 69
4, 74250, Control_c, 2, 7, 69
4, 74280, Control_c, 2, 7, 68
4, 74310, Control_c, 2, 7, 68
4, 74340, Control_c, 2, 7, 68
4, 74370, Control_c, 2, 7, 68
4, 74395, Note_on_c, 2, 53, 0
4, 74400, Control_c, 2, 7, 67
4, 74430, Control_c, 2, 7, 67
4, 74460, Control_c, 2, 7, 67
4, 74490, Control_c, 2, 7, 67
4, 74520, Control_c, 2, 7, 67
4, 74550, Control_c, 2, 7, 66
4, 74580, Control_c, 2, 7, 66
4, 74610, Control_c, 2, 7, 66
4, 74640, Control_c, 2, 7, 66
4, 74670, Control_c, 2, 7, 65
4, 74700, Control_c, 2, 7, 65
4, 74730, Control_c, 2, 7, 65
4, 74760, Control_c, 2, 7, 65
4, 74790, Control_c, 2, 7, 64
4, 74820, Control_c, 2, 7, 64
4, 74850, Control_c, 2, 7, 64
4, 74861, Note_on_c, 2, 48, 0
4, 74880, Note_on_c, 2, 48, 98
4, 74880, Control_c, 2, 7, 64
4, 74910, Control_c, 2, 7, 63
4, 74940, Control_c, 2, 7, 63
4, 74970, Control_c, 2, 7, 63
4, 75000, Control_c, 2, 7, 63
4, 75030, Control_c, 2, 7, 62
4, 75060, Control_c, 2, 7, 62
4, 75090, Control_c, 2, 7, 62
4, 75120, Note_on_c, 2, 55, 98
4, 75120, Control_c, 2, 7, 62
4, 75150, Control_c, 2, 7, 61
4, 75180, Control_c, 2, 7, 61
4, 75210, Control_c, 2, 7, 61
4, 75240, Control_c, 2, 7, 61
4, 75270, Control_c, 2, 7, 60
4, 75300, Control_c, 2, 7, 60
4, 75330, Control_c, 2, 7, 60
4, 75355, Note_on_c, 2, 55, 0
4, 75360, Control_c, 2, 7, 60
4, 75390, Control_c, 2, 7, 60
4, 75420, Control_c, 2, 7, 59
4, 75450, Control_c, 2, 7, 59
4, 75480, Control_c, 2, 7, 59
4, 75510, Control_c, 2, 7, 59
4, 75540, Control_c, 2, 7, 58
4, 75570, Control_c, 2, 7, 58
4, 75600, Control_c, 2, 7, 58
4, 75630, Control_c, 2, 7, 58
4, 75660, Control_c, 2, 7, 57
4, 75690, Control_c, 2, 7, 57
4, 75720, Control_c, 2, 7, 57
4, 75750, Control_c, 2, 7, 57
4, 75780, Control_c, 2, 7, 56
4, 75810, Control_c, 2, 7, 56
4, 75821, Note_on_c, 2, 48, 0
4, 75840, Note_on_c, 2, 48, 98
4, 75840, Control_c, 2, 7, 56
4, 75870, Control_c, 2, 7, 56
4, 75900, Control_c, 2, 7, 55
4, 75930, Control_c, 2, 7, 55
4, 75960, Control_c, 2, 7, 55
4, 75990, Control_c, 2, 7, 55
4, 76020, Control_c, 2, 7, 54
4, 76050, Control_c, 2, 7, 54
4, 76080, Note_on_c, 2, 53, 98
4, 76080, Control_c, 2, 7, 54
4, 76110, Control_c, 2, 7, 54
4, 76140, Control_c, 2, 7, 53
4, 76170, Control_c, 2, 7, 53
4, 76200, Control_c, 2, 7, 53
4, 76230, Control_c, 2, 7, 53
4, 76260, Control_c, 2, 7, 52
4, 76290, Control_c, 2, 7, 52
4, 76315, Note_on_c, 2, 53, 0
4, 76320, Control_c, 2, 7, 52
4, 76350, Control_c, 2, 7, 52
4, 76380, Control_c, 2, 7, 52
4, 76410, Control_c, 2, 7, 51
4, 76440, Control_c, 2, 7, 51
4, 76470, Control_c, 2, 7, 51
4, 76500, Control_c, 2, 7, 51
4, 76530, Control_c, 2, 7, 50
4, 76560, Control_c, 2, 7, 50
4, 76590, Control_c, 2, 7, 50
4, 76620, Control_c, 2, 7, 50
4, 76650, Control_c, 2, 7, 49
4, 76680, Control_c, 2, 7, 49
4, 76710, Control_c, 2, 7, 49
4, 76740, Control_c, 2, 7, 49
4, 76770, Control_c, 2, 7, 48
4, 76781, Note_on_c, 2, 48, 0
4, 76800, Note_on_c, 2, 48, 98
4, 76800, Control_c, 2, 7, 46
4, 76830, Control_c, 2, 7, 46
4, 76860, Control_c, 2, 7, 45
4, 76890, Control_c, 2, 7, 44
4, 76920, Control_c, 2, 7, 44
4, 76950, Control_c, 2, 7, 43
4, 76980, Control_c, 2, 7, 42
4, 77010, Control_c, 2, 7, 41
4, 77040, Note_on_c, 2, 55, 98
4, 77040, Control_c, 2, 7, 41
4, 77070, Control_c, 2, 7, 40
4, 77100, Control_c, 2, 7, 39
4, 77130, Control_c, 2, 7, 39
4, 77160, Control_c, 2, 7, 38
4, 77190, Control_c, 2, 7, 37
4, 77220, Control_c, 2, 7, 36
4, 77250, Control_c, 2, 7, 36
4, 77275, Note_on_c, 2, 55, 0
4, 77280, Control_c, 2, 7, 35
4, 77310, Control_c, 2, 7, 34
4, 77340, Control_c, 2, 7, 34
4, 77370, Control_c, 2, 7, 33
4, 77400, Control_c, 2, 7, 32
4, 77430, Control_c, 2, 7, 31
4, 77460, Control_c, 2, 7, 31
4, 77490, Control_c, 2, 7, 30
4, 77520, Control_c, 2, 7, 29
4, 77550, Control_c, 2, 7, 29
4, 77580, Control_c, 2, 7, 28
4, 77610, Control_c, 2, 7, 27
4, 77640, Control_c, 2, 7, 26
4, 77670, Control_c, 2, 7, 26
4, 77700, Control_c, 2, 7, 25
4, 77730, Control_c, 2, 7, 24
4, 77741, Note_on_c, 2, 48, 0
4, 77760, Note_on_c, 2, 47, 97
4, 77760, Control_c, 2, 7, 23
4, 77790, Control_c, 2, 7, 23
4, 77820, Control_c, 2, 7, 22
4, 77850, Control_c, 2, 7, 21
4, 77880, Control_c, 2, 7, 21
4, 77910, Control_c, 2, 7, 20
4, 77940, Control_c, 2, 7, 19
4, 77970, Control_c, 2, 7, 18
4, 78000, Control_c, 2, 7, 18
4, 78030, Control_c, 2, 7, 17
4, 78060, Control_c, 2, 7, 16
4, 78090, Control_c, 2, 7, 16
4, 78120, Control_c, 2, 7, 15
4, 78150, Control_c, 2, 7, 14
4, 78180, Control_c, 2, 7, 13
4, 78210, Control_c, 2, 7, 13
4, 78240, Control_c, 2, 7, 12
4, 78270, Control_c, 2, 7, 11
4, 78300, Control_c, 2, 7, 11
4, 78330, Control_c, 2, 7, 10
4, 78360, Control_c, 2, 7, 9
4, 78390, Control_c, 2, 7, 8
4, 78420, Control_c, 2, 7, 8
4, 78450, Control_c, 2, 7, 7
4, 78480, Control_c, 2, 7, 6
4, 78510, Control_c, 2, 7, 6
4, 78540, Control_c, 2, 7, 5
4, 78570, Control_c, 2, 7, 4
4, 78600, Control_c, 2, 7, 3
4, 78630, Control_c, 2, 7, 3
4, 78635, Control_c, 2, 7, 3
4, 78665, Control_c, 2, 7, 3
4, 78695, Control_c, 2, 7, 3
4, 78701, Note_on_c, 2, 47, 0
4, 78701, End_track
5, 0, Start_track
5, 0, Title_t, ""
5, 0, Control_c, 3, 0, 0
5, 0, Control_c, 3, 32, 0
5, 0, Program_c, 3, 46
5, 0, Pitch_bend_c, 3, 8192
5, 0, Control_c, 3, 1, 0
5, 0, Control_c, 3, 7, 127
5, 0, Control_c, 3, 10, 57
5, 0, Control_c, 3, 11, 114
5, 0, Control_c, 3, 91, 80
5, 0, Control_c, 3, 93, 0
5, 0, Control_c, 3, 99, 1
5, 0, Control_c, 3, 98, 32
5, 0, Control_c, 3, 6, 75
5, 2160, Note_on_c, 3, 50, 94
5, 2395, Note_on_c, 3, 50, 0
5, 2400, Note_on_c, 3, 55, 101
5, 2635, Note_on_c, 3, 55, 0
5, 3120, Note_on_c, 3, 57, 97
5, 3355, Note_on_c, 3, 57, 0
5, 4080, Note_on_c, 3, 50, 94
5, 4315, Note_on_c, 3, 50, 0
5, 4320, Note_on_c, 3, 55, 101
5, 4555, Note_on_c, 3, 55, 0
5, 5040, Note_on_c, 3, 57, 97
5, 5275, Note_on_c, 3, 57, 0
5, 6000, Note_on_c, 3, 50, 94
5, 6235, Note_on_c, 3, 50, 0
5, 6240, Note_on_c, 3, 55, 101
5, 6475, Note_on_c, 3, 55, 0
5, 6960, Note_on_c, 3, 57, 97
5, 7195, Note_on_c, 3, 57, 0
5, 7920, Note_on_c, 3, 50, 94
5, 8155, Note_on_c, 3, 50, 0
5, 8160, Note_on_c, 3, 55, 101
5, 8395, Note_on_c, 3, 55, 0
5, 8880, Note_on_c, 3, 57, 97
5, 9115, Note_on_c, 3, 57, 0
5, 9840, Note_on_c, 3, 50, 94
5, 10075, Note_on_c, 3, 50, 0
5, 10080, Note_on_c, 3, 55, 101
5, 10315, Note_on_c, 3, 55, 0
5, 10800, Note_on_c, 3, 57, 97
5, 11035, Note_on_c, 3, 57, 0
5, 11760, Note_on_c, 3, 50, 94
5, 11995, Note_on_c, 3, 50, 0
5, 12000, Note_on_c, 3, 55, 101
5, 12235, Note_on_c, 3, 55, 0
5, 12720, Note_on_c, 3, 57, 97
5, 12955, Note_on_c, 3, 57, 0
5, 13680, Note_on_c, 3, 50, 94
5, 13915, Note_on_c, 3, 50, 0
5, 13920, Note_on_c, 3, 55, 101
5, 14155, Note_on_c, 3, 55, 0
5, 14640, Note_on_c, 3, 57, 97
5, 14875, Note_on_c, 3, 57, 0
5, 15600, Note_on_c, 3, 50, 94
5, 15835, Note_on_c, 3, 50, 0
5, 15840, Note_on_c, 3, 55, 101
5, 16075, Note_on_c, 3, 55, 0
5, 16560, Note_on_c, 3, 57, 97
5, 16795, Note_on_c, 3, 57, 0
5, 17520, Note_on_c, 3, 50, 94
5, 17755, Note_on_c, 3, 50, 0
5, 17760, Note_on_c, 3, 55, 101
5, 17995, Note_on_c, 3, 55, 0
5, 18480, Note_on_c, 3, 57, 97
5, 18715, Note_on_c, 3, 57, 0
5, 19440, Note_on_c, 3, 50, 94
5, 19675, Note_on_c, 3, 50, 0
5, 19680, Note_on_c, 3, 55, 101
5, 19915, Note_on_c, 3, 55, 0
5, 20400, Note_on_c, 3, 57, 97
5, 20635, Note_on_c, 3, 57, 0
5, 21600, Note_on_c, 3, 60, 90
5, 21600, Note_on_c, 3, 64, 94
5, 22070, Note_on_c, 3, 60, 0
5, 22070, Note_on_c, 3, 64, 0
5, 22560, Note_on_c, 3, 60, 91
5, 22795, Note_on_c, 3, 60, 0
5, 22800, Note_on_c, 3, 65, 89
5, 22800, Note_on_c, 3, 69, 89
5, 23035, Note_on_c, 3, 65, 0
5, 23035, Note_on_c, 3, 69, 0
5, 23520, Note_on_c, 3, 60, 85
5, 23520, Note_on_c, 3, 64, 93
5, 23990, Note_on_c, 3, 60, 0
5, 23990, Note_on_c, 3, 64, 0
5, 24480, Note_on_c, 3, 62, 94
5, 24480, Note_on_c, 3, 60, 89
5, 24715, Note_on_c, 3, 62, 0
5, 24715, Note_on_c, 3, 60, 0
5, 24720, Note_on_c, 3, 65, 92
5, 24955, Note_on_c, 3, 65, 0
5, 25440, Note_on_c, 3, 60, 85
5, 25440, Note_on_c, 3, 64, 94
5, 25910, Note_on_c, 3, 60, 0
5, 25910, Note_on_c, 3, 64, 0
5, 26160, Note_on_c, 3, 69, 94
5, 26160, Note_on_c, 3, 65, 91
5, 26395, Note_on_c, 3, 69, 0
5, 26395, Note_on_c, 3, 65, 0
5, 26400, Note_on_c, 3, 67, 91
5, 26400, Note_on_c, 3, 64, 91
5, 26635, Note_on_c, 3, 67, 0
5, 26635, Note_on_c, 3, 64, 0
5, 26640, Note_on_c, 3, 65, 88
5, 26640, Note_on_c, 3, 62, 88
5, 26875, Note_on_c, 3, 65, 0
5, 26875, Note_on_c, 3, 62, 0
5, 27360, Note_on_c, 3, 60, 90
5, 27360, Note_on_c, 3, 64, 94
5, 27830, Note_on_c, 3, 60, 0
5, 27830, Note_on_c, 3, 64, 0
5, 28320, Note_on_c, 3, 60, 92
5, 28555, Note_on_c, 3, 60, 0
5, 28560, Note_on_c, 3, 65, 91
5, 28560, Note_on_c, 3, 69, 91
5, 28795, Note_on_c, 3, 65, 0
5, 28795, Note_on_c, 3, 69, 0
5, 29280, Note_on_c, 3, 60, 92
5, 29280, Note_on_c, 3, 64, 92
5, 29750, Note_on_c, 3, 60, 0
5, 29750, Note_on_c, 3, 64, 0
5, 30240, Note_on_c, 3, 62, 94
5, 30240, Note_on_c, 3, 60, 86
5, 30475, Note_on_c, 3, 62, 0
5, 30475, Note_on_c, 3, 60, 0
5, 30480, Note_on_c, 3, 65, 94
5, 30715, Note_on_c, 3, 65, 0
5, 31200, Note_on_c, 3, 60, 92
5, 31200, Note_on_c, 3, 64, 92
5, 31670, Note_on_c, 3, 60, 0
5, 31670, Note_on_c, 3, 64, 0
5, 31920, Note_on_c, 3, 55, 88
5, 31920, Note_on_c, 3, 65, 94
5, 32155, Note_on_c, 3, 55, 0
5, 32155, Note_on_c, 3, 65, 0
5, 32160, Note_on_c, 3, 59, 84
5, 32160, Note_on_c, 3, 64, 94
5, 32395, Note_on_c, 3, 59, 0
5, 32395, Note_on_c, 3, 64, 0
5, 32400, Note_on_c, 3, 62, 89
5, 32635, Note_on_c, 3, 62, 0
5, 32640, Note_on_c, 3, 62, 93
5, 33110, Note_on_c, 3, 62, 0
5, 33600, Note_on_c, 3, 62, 92
5, 34070, Note_on_c, 3, 62, 0
5, 34080, Note_on_c, 3, 60, 89
5, 34080, Note_on_c, 3, 67, 97
5, 34315, Note_on_c, 3, 67, 0
5, 34320, Note_on_c, 3, 65, 93
5, 34550, Note_on_c, 3, 60, 0
5, 34555, Note_on_c, 3, 65, 0
5, 35040, Note_on_c, 3, 60, 90
5, 35040, Note_on_c, 3, 64, 94
5, 35510, Note_on_c, 3, 60, 0
5, 35510, Note_on_c, 3, 64, 0
5, 36000, Note_on_c, 3, 60, 92
5, 36235, Note_on_c, 3, 60, 0
5, 36240, Note_on_c, 3, 65, 91
5, 36475, Note_on_c, 3, 65, 0
5, 36960, Note_on_c, 3, 60, 92
5, 36960, Note_on_c, 3, 64, 92
5, 37430, Note_on_c, 3, 60, 0
5, 37430, Note_on_c, 3, 64, 0
5, 37920, Note_on_c, 3, 62, 94
5, 37920, Note_on_c, 3, 60, 86
5, 38155, Note_on_c, 3, 62, 0
5, 38155, Note_on_c, 3, 60, 0
5, 38160, Note_on_c, 3, 65, 94
5, 38395, Note_on_c, 3, 65, 0
5, 38640, Note_on_c, 3, 52, 94
5, 38875, Note_on_c, 3, 52, 0
5, 38880, Note_on_c, 3, 64, 92
5, 39115, Note_on_c, 3, 64, 0
5, 39120, Note_on_c, 3, 65, 91
5, 39355, Note_on_c, 3, 65, 0
5, 39600, Note_on_c, 3, 62, 91
5, 39835, Note_on_c, 3, 62, 0
5, 39840, Note_on_c, 3, 65, 88
5, 39840, Note_on_c, 3, 69, 94
5, 40075, Note_on_c, 3, 65, 0
5, 40075, Note_on_c, 3, 69, 0
5, 40080, Note_on_c, 3, 62, 86
5, 40080, Note_on_c, 3, 65, 94
5, 40315, Note_on_c, 3, 62, 0
5, 40315, Note_on_c, 3, 65, 0
5, 40320, Note_on_c, 3, 64, 85
5, 40320, Note_on_c, 3, 67, 96
5, 40555, Note_on_c, 3, 64, 0
5, 40555, Note_on_c, 3, 67, 0
5, 40560, Note_on_c, 3, 64, 92
5, 40560, Note_on_c, 3, 59, 82
5, 40795, Note_on_c, 3, 64, 0
5, 40795, Note_on_c, 3, 59, 0
5, 40800, Note_on_c, 3, 64, 95
5, 41035, Note_on_c, 3, 64, 0
5, 41040, Note_on_c, 3, 67, 92
5, 41275, Note_on_c, 3, 67, 0
5, 41280, Note_on_c, 3, 71, 102
5, 41515, Note_on_c, 3, 71, 0
5, 41520, Note_on_c, 3, 64, 97
5, 41755, Note_on_c, 3, 64, 0
5, 41760, Note_on_c, 3, 67, 102
5, 41995, Note_on_c, 3, 67, 0
5, 42000, Note_on_c, 3, 71, 97
5, 42235, Note_on_c, 3, 71, 0
5, 42240, Note_on_c, 3, 67, 97
5, 42260, Note_on_c, 3, 74, 100
5, 42280, Note_on_c, 3, 64, 98
5, 42300, Note_on_c, 3, 76, 96
5, 42320, Note_on_c, 3, 71, 106
5, 43040, Note_on_c, 3, 67, 0
5, 43060, Note_on_c, 3, 74, 0
5, 43080, Note_on_c, 3, 64, 0
5, 43100, Note_on_c, 3, 76, 0
5, 43700, Note_on_c, 3, 71, 0
5, 67200, Control_c, 3, 7, 125
5, 67230, Control_c, 3, 7, 125
5, 67260, Control_c, 3, 7, 125
5, 67290, Control_c, 3, 7, 125
5, 67320, Control_c, 3, 7, 125
5, 67350, Control_c, 3, 7, 124
5, 67380, Control_c, 3, 7, 124
5, 67410, Control_c, 3, 7, 124
5, 67440, Control_c, 3, 7, 124
5, 67470, Control_c, 3, 7, 123
5, 67500, Control_c, 3, 7, 123
5, 67530, Control_c, 3, 7, 123
5, 67560, Control_c, 3, 7, 123
5, 67590, Control_c, 3, 7, 122
5, 67620, Control_c, 3, 7, 122
5, 67650, Control_c, 3, 7, 122
5, 67680, Note_on_c, 3, 60, 90
5, 67680, Note_on_c, 3, 64, 94
5, 67680, Control_c, 3, 7, 122
5, 67710, Control_c, 3, 7, 121
5, 67740, Control_c, 3, 7, 121
5, 67770, Control_c, 3, 7, 121
5, 67800, Control_c, 3, 7, 121
5, 67830, Control_c, 3, 7, 120
5, 67860, Control_c, 3, 7, 120
5, 67890, Control_c, 3, 7, 120
5, 67920, Control_c, 3, 7, 120
5, 67950, Control_c, 3, 7, 119
5, 67980, Control_c, 3, 7, 119
5, 68010, Control_c, 3, 7, 119
5, 68040, Control_c, 3, 7, 119
5, 68070, Control_c, 3, 7, 118
5, 68100, Control_c, 3, 7, 118
5, 68130, Control_c, 3, 7, 118
5, 68150, Note_on_c, 3, 60, 0
5, 68150, Note_on_c, 3, 64, 0
5, 68160, Control_c, 3, 7, 118
5, 68190, Control_c, 3, 7, 118
5, 68220, Control_c, 3, 7, 117
5, 68250, Control_c, 3, 7, 117
5, 68280, Control_c, 3, 7, 117
5, 68310, Control_c, 3, 7, 117
5, 68340, Control_c, 3, 7, 116
5, 68370, Control_c, 3, 7, 116
5, 68400, Control_c, 3, 7, 116
5, 68430, Control_c, 3, 7, 116
5, 68460, Control_c, 3, 7, 115
5, 68490, Control_c, 3, 7, 115
5, 68520, Control_c, 3, 7, 115
5, 68550, Control_c, 3, 7, 115
5, 68580, Control_c, 3, 7, 114
5, 68610, Control_c, 3, 7, 114
5, 68640, Note_on_c, 3, 60, 91
5, 68640, Control_c, 3, 7, 114
5, 68670, Control_c, 3, 7, 114
5, 68700, Control_c, 3, 7, 113
5, 68730, Control_c, 3, 7, 113
5, 68760, Control_c, 3, 7, 113
5, 68790, Control_c, 3, 7, 113
5, 68820, Control_c, 3, 7, 112
5, 68850, Control_c, 3, 7, 112
5, 68875, Note_on_c, 3, 60, 0
5, 68880, Note_on_c, 3, 65, 89
5, 68880, Note_on_c, 3, 69, 89
5, 68880, Control_c, 3, 7, 112
5, 68910, Control_c, 3, 7, 112
5, 68940, Control_c, 3, 7, 111
5, 68970, Control_c, 3, 7, 111
5, 69000, Control_c, 3, 7, 111
5, 69030, Control_c, 3, 7, 111
5, 69060, Control_c, 3, 7, 111
5, 69090, Control_c, 3, 7, 110
5, 69115, Note_on_c, 3, 65, 0
5, 69115, Note_on_c, 3, 69, 0
5, 69120, Control_c, 3, 7, 110
5, 69150, Control_c, 3, 7, 110
5, 69180, Control_c, 3, 7, 110
5, 69210, Control_c, 3, 7, 109
5, 69240, Control_c, 3, 7, 109
5, 69270, Control_c, 3, 7, 109
5, 69300, Control_c, 3, 7, 109
5, 69330, Control_c, 3, 7, 108
5, 69360, Control_c, 3, 7, 108
5, 69390, Control_c, 3, 7, 108
5, 69420, Control_c, 3, 7, 108
5, 69450, Control_c, 3, 7, 107
5, 69480, Control_c, 3, 7, 107
5, 69510, Control_c, 3, 7, 107
5, 69540, Control_c, 3, 7, 107
5, 69570, Control_c, 3, 7, 106
5, 69600, Note_on_c, 3, 60, 85
5, 69600, Note_on_c, 3, 64, 93
5, 69600, Control_c, 3, 7, 106
5, 69630, Control_c, 3, 7, 106
5, 69660, Control_c, 3, 7, 106
5, 69690, Control_c, 3, 7, 105
5, 69720, Control_c, 3, 7, 105
5, 69750, Control_c, 3, 7, 105
5, 69780, Control_c, 3, 7, 105
5, 69810, Control_c, 3, 7, 104
5, 69840, Control_c, 3, 7, 104
5, 69870, Control_c, 3, 7, 104
5, 69900, Control_c, 3, 7, 104
5, 69930, Control_c, 3, 7, 104
5, 69960, Control_c, 3, 7, 103
5, 69990, Control_c, 3, 7, 103
5, 70020, Control_c, 3, 7, 103
5, 70050, Control_c, 3, 7, 103
5, 70070, Note_on_c, 3, 60, 0
5, 70070, Note_on_c, 3, 64, 0
5, 70080, Control_c, 3, 7, 102
5, 70110, Control_c, 3, 7, 102
5, 70140, Control_c, 3, 7, 102
5, 70170, Control_c, 3, 7, 102
5, 70200, Control_c, 3, 7, 101
5, 70230, Control_c, 3, 7, 101
5, 70260, Control_c, 3, 7, 101
5, 70290, Control_c, 3, 7, 101
5, 70320, Control_c, 3, 7, 100
5, 70350, Control_c, 3, 7, 100
5, 70380, Control_c, 3, 7, 100
5, 70410, Control_c, 3, 7, 100
5, 70440, Control_c, 3, 7, 99
5, 70470, Control_c, 3, 7, 99
5, 70500, Control_c, 3, 7, 99
5, 70530, Control_c, 3, 7, 99
5, 70560, Note_on_c, 3, 62, 94
5, 70560, Note_on_c, 3, 60, 89
5, 70560, Control_c, 3, 7, 98
5, 70590, Control_c, 3, 7, 98
5, 70620, Control_c, 3, 7, 98
5, 70650, Control_c, 3, 7, 98
5, 70680, Control_c, 3, 7, 97
5, 70710, Control_c, 3, 7, 97
5, 70740, Control_c, 3, 7, 97
5, 70770, Control_c, 3, 7, 97
5, 70795, Note_on_c, 3, 62, 0
5, 70795, Note_on_c, 3, 60, 0
5, 70800, Note_on_c, 3, 65, 92
5, 70800, Control_c, 3, 7, 96
5, 70830, Control_c, 3, 7, 96
5, 70860, Control_c, 3, 7, 96
5, 70890, Control_c, 3, 7, 96
5, 70920, Control_c, 3, 7, 96
5, 70950, Control_c, 3, 7, 95
5, 70980, Control_c, 3, 7, 95
5, 71010, Control_c, 3, 7, 95
5, 71035, Note_on_c, 3, 65, 0
5, 71040, Control_c, 3, 7, 95
5, 71070, Control_c, 3, 7, 94
5, 71100, Control_c, 3, 7, 94
5, 71130, Control_c, 3, 7, 94
5, 71160, Control_c, 3, 7, 94
5, 71190, Control_c, 3, 7, 93
5, 71220, Control_c, 3, 7, 93
5, 71250, Control_c, 3, 7, 93
5, 71280, Control_c, 3, 7, 93
5, 71310, Control_c, 3, 7, 92
5, 71340, Control_c, 3, 7, 92
5, 71370, Control_c, 3, 7, 92
5, 71400, Control_c, 3, 7, 92
5, 71430, Control_c, 3, 7, 91
5, 71460, Control_c, 3, 7, 91
5, 71490, Control_c, 3, 7, 91
5, 71520, Note_on_c, 3, 60, 85
5, 71520, Note_on_c, 3, 64, 94
5, 71520, Control_c, 3, 7, 91
5, 71550, Control_c, 3, 7, 90
5, 71580, Control_c, 3, 7, 90
5, 71610, Control_c, 3, 7, 90
5, 71640, Control_c, 3, 7, 90
5, 71670, Control_c, 3, 7, 89
5, 71700, Control_c, 3, 7, 89
5, 71730, Control_c, 3, 7, 89
5, 71760, Control_c, 3, 7, 89
5, 71790, Control_c, 3, 7, 89
5, 71820, Control_c, 3, 7, 88
5, 71850, Control_c, 3, 7, 88
5, 71880, Control_c, 3, 7, 88
5, 71910, Control_c, 3, 7, 88
5, 71940, Control_c, 3, 7, 87
5, 71970, Control_c, 3, 7, 87
5, 71990, Note_on_c, 3, 60, 0
5, 71990, Note_on_c, 3, 64, 0
5, 72000, Control_c, 3, 7, 87
5, 72030, Control_c, 3, 7, 87
5, 72060, Control_c, 3, 7, 86
5, 72090, Control_c, 3, 7, 86
5, 72120, Control_c, 3, 7, 86
5, 72150, Control_c, 3, 7, 86
5, 72180, Control_c, 3, 7, 85
5, 72210, Control_c, 3, 7, 85
5, 72240, Note_on_c, 3, 69, 94
5, 72240, Note_on_c, 3, 65, 91
5, 72240, Control_c, 3, 7, 85
5, 72270, Control_c, 3, 7, 85
5, 72300, Control_c, 3, 7, 84
5, 72330, Control_c, 3, 7, 84
5, 72360, Control_c, 3, 7, 84
5, 72390, Control_c, 3, 7, 84
5, 72420, Control_c, 3, 7, 83
5, 72450, Control_c, 3, 7, 83
5, 72475, Note_on_c, 3, 69, 0
5, 72475, Note_on_c, 3, 65, 0
5, 72480, Note_on_c, 3, 67, 91
5, 72480, Note_on_c, 3, 64, 91
5, 72480, Control_c, 3, 7, 83
5, 72510, Control_c, 3, 7, 83
5, 72540, Control_c, 3, 7, 82
5, 72570, Control_c, 3, 7, 82
5, 72600, Control_c, 3, 7, 82
5, 72630, Control_c, 3, 7, 82
5, 72660, Control_c, 3, 7, 82
5, 72690, Control_c, 3, 7, 81
5, 72715, Note_on_c, 3, 67, 0
5, 72715, Note_on_c, 3, 64, 0
5, 72720, Note_on_c, 3, 65, 88
5, 72720, Note_on_c, 3, 62, 88
5, 72720, Control_c, 3, 7, 81
5, 72750, Control_c, 3, 7, 81
5, 72780, Control_c, 3, 7, 81
5, 72810, Control_c, 3, 7, 80
5, 72840, Control_c, 3, 7, 80
5, 72870, Control_c, 3, 7, 80
5, 72900, Control_c, 3, 7, 80
5, 72930, Control_c, 3, 7, 79
5, 72955, Note_on_c, 3, 65, 0
5, 72955, Note_on_c, 3, 62, 0
5, 72960, Control_c, 3, 7, 79
5, 72990, Control_c, 3, 7, 79
5, 73020, Control_c, 3, 7, 79
5, 73050, Control_c, 3, 7, 78
5, 73080, Control_c, 3, 7, 78
5, 73110, Control_c, 3, 7, 78
5, 73140, Control_c, 3, 7, 78
5, 73170, Control_c, 3, 7, 77
5, 73200, Control_c, 3, 7, 77
5, 73230, Control_c, 3, 7, 77
5, 73260, Control_c, 3, 7, 77
5, 73290, Control_c, 3, 7, 76
5, 73320, Control_c, 3, 7, 76
5, 73350, Control_c, 3, 7, 76
5, 73380, Control_c, 3, 7, 76
5, 73410, Control_c, 3, 7, 75
5, 73440, Note_on_c, 3, 60, 90
5, 73440, Note_on_c, 3, 64, 94
5, 73440, Control_c, 3, 7, 75
5, 73470, Control_c, 3, 7, 75
5, 73500, Control_c, 3, 7, 75
5, 73530, Control_c, 3, 7, 74
5, 73560, Control_c, 3, 7, 74
5, 73590, Control_c, 3, 7, 74
5, 73620, Control_c, 3, 7, 74
5, 73650, Control_c, 3, 7, 74
5, 73680, Control_c, 3, 7, 73
5, 73710, Control_c, 3, 7, 73
5, 73740, Control_c, 3, 7, 73
5, 73770, Control_c, 3, 7, 73
5, 73800, Control_c, 3, 7, 72
5, 73830, Control_c, 3, 7, 72
5, 73860, Control_c, 3, 7, 72
5, 73890, Control_c, 3, 7, 72
5, 73910, Note_on_c, 3, 60, 0
5, 73910, Note_on_c, 3, 64, 0
5, 73920, Control_c, 3, 7, 71
5, 73950, Control_c, 3, 7, 71
5, 73980, Control_c, 3, 7, 71
5, 74010, Control_c, 3, 7, 71
5, 74040, Control_c, 3, 7, 70
5, 74070, Control_c, 3, 7, 70
5, 74100, Control_c, 3, 7, 70
5, 74130, Control_c, 3, 7, 70
5, 74160, Control_c, 3, 7, 69
5, 74190, Control_c, 3, 7, 69
5, 74220, Control_c, 3, 7, 69
5, 74250, Control_c, 3, 7, 69
5, 74280, Control_c, 3, 7, 68
5, 74310, Control_c, 3, 7, 68
5, 74340, Control_c, 3, 7, 68
5, 74370, Control_c, 3, 7, 68
5, 74400, Note_on_c, 3, 60, 92
5, 74400, Control_c, 3, 7, 67
5, 74430, Control_c, 3, 7, 67
5, 74460, Control_c, 3, 7, 67
5, 74490, Control_c, 3, 7, 67
5, 74520, Control_c, 3, 7, 67
5, 74550, Control_c, 3, 7, 66
5, 74580, Control_c, 3, 7, 66
5, 74610, Control_c, 3, 7, 66
5, 74635, Note_on_c, 3, 60, 0
5, 74640, Note_on_c, 3, 65, 91
5, 74640, Note_on_c, 3, 69, 91
5, 74640, Control_c, 3, 7, 66
5, 74670, Control_c, 3, 7, 65
5, 74700, Control_c, 3, 7, 65
5, 74730, Control_c, 3, 7, 65
5, 74760, Control_c, 3, 7, 65
5, 74790, Control_c, 3, 7, 64
5, 74820, Control_c, 3, 7, 64
5, 74850, Control_c, 3, 7, 64
5, 74875, Note_on_c, 3, 65, 0
5, 74875, Note_on_c, 3, 69, 0
5, 74880, Control_c, 3, 7, 64
5, 74910, Control_c, 3, 7, 63
5, 74940, Control_c, 3, 7, 63
5, 74970, Control_c, 3, 7, 63
5, 75000, Control_c, 3, 7, 63
5, 75030, Control_c, 3, 7, 62
5, 75060, Control_c, 3, 7, 62
5, 75090, Control_c, 3, 7, 62
5, 75120, Control_c, 3, 7, 62
5, 75150, Control_c, 3, 7, 61
5, 75180, Control_c, 3, 7, 61
5, 75210, Control_c, 3, 7, 61
5, 75240, Control_c, 3, 7, 61
5, 75270, Control_c, 3, 7, 60
5, 75300, Control_c, 3, 7, 60
5, 75330, Control_c, 3, 7, 60
5, 75360, Note_on_c, 3, 60, 92
5, 75360, Note_on_c, 3, 64, 92
5, 75360, Control_c, 3, 7, 60
5, 75390, Control_c, 3, 7, 60
5, 75420, Control_c, 3, 7, 59
5, 75450, Control_c, 3, 7, 59
5, 75480, Control_c, 3, 7, 59
5, 75510, Control_c, 3, 7, 59
5, 75540, Control_c, 3, 7, 58
5, 75570, Control_c, 3, 7, 58
5, 75600, Control_c, 3, 7, 58
5, 75630, Control_c, 3, 7, 58
5, 75660, Control_c, 3, 7, 57
5, 75690, Control_c, 3, 7, 57
5, 75720, Control_c, 3, 7, 57
5, 75750, Control_c, 3, 7, 57
5, 75780, Control_c, 3, 7, 56
5, 75810, Control_c, 3, 7, 56
5, 75830, Note_on_c, 3, 60, 0
5, 75830, Note_on_c, 3, 64, 0
5, 75840, Control_c, 3, 7, 56
5, 75870, Control_c, 3, 7, 56
5, 75900, Control_c, 3, 7, 55
5, 75930, Control_c, 3, 7, 55
5, 75960, Control_c, 3, 7, 55
5, 75990, Control_c, 3, 7, 55
5, 76020, Control_c, 3, 7, 54
5, 76050, Control_c, 3, 7, 54
5, 76080, Control_c, 3, 7, 54
5, 76110, Control_c, 3, 7, 54
5, 76140, Control_c, 3, 7, 53
5, 76170, Control_c, 3, 7, 53
5, 76200, Control_c, 3, 7, 53
5, 76230, Control_c, 3, 7, 53
5, 76260, Control_c, 3, 7, 52
5, 76290, Control_c, 3, 7, 52
5, 76320, Note_on_c, 3, 62, 94
5, 76320, Note_on_c, 3, 60, 86
5, 76320, Control_c, 3, 7, 52
5, 76350, Control_c, 3, 7, 52
5, 76380, Control_c, 3, 7, 52
5, 76410, Control_c, 3, 7, 51
5, 76440, Control_c, 3, 7, 51
5, 76470, Control_c, 3, 7, 51
5, 76500, Control_c, 3, 7, 51
5, 76530, Control_c, 3, 7, 50
5, 76555, Note_on_c, 3, 62, 0
5, 76555, Note_on_c, 3, 60, 0
5, 76560, Note_on_c, 3, 65, 94
5, 76560, Control_c, 3, 7, 50
5, 76590, Control_c, 3, 7, 50
5, 76620, Control_c, 3, 7, 50
5, 76650, Control_c, 3, 7, 49
5, 76680, Control_c, 3, 7, 49
5, 76710, Control_c, 3, 7, 49
5, 76740, Control_c, 3, 7, 49
5, 76770, Control_c, 3, 7, 48
5, 76795, Note_on_c, 3, 65, 0
5, 76800, Control_c, 3, 7, 47
5, 76830, Control_c, 3, 7, 47
5, 76860, Control_c, 3, 7, 46
5, 76890, Control_c, 3, 7, 45
5, 76920, Control_c, 3, 7, 45
5, 76950, Control_c, 3, 7, 44
5, 76980, Control_c, 3, 7, 43
5, 77010, Control_c, 3, 7, 43
5, 77040, Control_c, 3, 7, 42
5, 77070, Control_c, 3, 7, 41
5, 77100, Control_c, 3, 7, 40
5, 77130, Control_c, 3, 7, 40
5, 77160, Control_c, 3, 7, 39
5, 77190, Control_c, 3, 7, 38
5, 77220, Control_c, 3, 7, 38
5, 77250, Control_c, 3, 7, 37
5, 77280, Note_on_c, 3, 60, 92
5, 77280, Note_on_c, 3, 64, 92
5, 77280, Control_c, 3, 7, 36
5, 77310, Control_c, 3, 7, 35
5, 77340, Control_c, 3, 7, 35
5, 77370, Control_c, 3, 7, 34
5, 77400, Control_c, 3, 7, 33
5, 77430, Control_c, 3, 7, 33
5, 77460, Control_c, 3, 7, 32
5, 77490, Control_c, 3, 7, 31
5, 77520, Control_c, 3, 7, 30
5, 77550, Control_c, 3, 7, 30
5, 77580, Control_c, 3, 7, 29
5, 77610, Control_c, 3, 7, 28
5, 77640, Control_c, 3, 7, 28
5, 77670, Control_c, 3, 7, 27
5, 77700, Control_c, 3, 7, 26
5, 77730, Control_c, 3, 7, 25
5, 77750, Note_on_c, 3, 60, 0
5, 77750, Note_on_c, 3, 64, 0
5, 77760, Control_c, 3, 7, 25
5, 77790, Control_c, 3, 7, 24
5, 77820, Control_c, 3, 7, 23
5, 77850, Control_c, 3, 7, 23
5, 77880, Control_c, 3, 7, 22
5, 77910, Control_c, 3, 7, 21
5, 77940, Control_c, 3, 7, 20
5, 77970, Control_c, 3, 7, 20
5, 78000, Note_on_c, 3, 55, 88
5, 78000, Note_on_c, 3, 65, 94
5, 78000, Control_c, 3, 7, 19
5, 78030, Control_c, 3, 7, 18
5, 78060, Control_c, 3, 7, 18
5, 78090, Control_c, 3, 7, 17
5, 78120, Control_c, 3, 7, 16
5, 78150, Control_c, 3, 7, 15
5, 78180, Control_c, 3, 7, 15
5, 78210, Control_c, 3, 7, 14
5, 78235, Note_on_c, 3, 55, 0
5, 78235, Note_on_c, 3, 65, 0
5, 78240, Note_on_c, 3, 59, 84
5, 78240, Note_on_c, 3, 64, 94
5, 78240, Control_c, 3, 7, 13
5, 78270, Control_c, 3, 7, 13
5, 78300, Control_c, 3, 7, 12
5, 78330, Control_c, 3, 7, 11
5, 78360, Control_c, 3, 7, 10
5, 78390, Control_c, 3, 7, 10
5, 78420, Control_c, 3, 7, 9
5, 78450, Control_c, 3, 7, 8
5, 78475, Note_on_c, 3, 59, 0
5, 78475, Note_on_c, 3, 64, 0
5, 78480, Note_on_c, 3, 62, 89
5, 78480, Control_c, 3, 7, 8
5, 78510, Control_c, 3, 7, 7
5, 78540, Control_c, 3, 7, 6
5, 78570, Control_c, 3, 7, 5
5, 78600, Control_c, 3, 7, 5
5, 78630, Control_c, 3, 7, 4
5, 78660, Control_c, 3, 7, 3
5, 78690, Control_c, 3, 7, 3
5, 78715, Note_on_c, 3, 62, 0
5, 78715, End_track
6, 0, Start_track
6, 0, Title_t, ""
6, 0, Control_c, 4, 0, 0
6, 0, Control_c, 4, 32, 64
6, 0, Program_c, 4, 4
6, 0, Pitch_bend_c, 4, 8192
6, 0, Control_c, 4, 1, 0
6, 0, Control_c, 4, 7, 127
6, 0, Control_c, 4, 10, 70
6, 0, Control_c, 4, 11, 115
6, 0, Control_c, 4, 91, 70
6, 0, Control_c, 4, 93, 20
6, 0, Control_c, 4, 99, 1
6, 0, Control_c, 4, 98, 32
6, 0, Control_c, 4, 6, 70
6, 1920, Note_on_c, 4, 65, 87
6, 1920, Note_on_c, 4, 69, 106
6, 2160, Note_on_c, 4, 67, 87
6, 2160, Note_on_c, 4, 71, 106
6, 2210, Note_on_c, 4, 65, 0
6, 2210, Note_on_c, 4, 69, 0
6, 2400, Note_on_c, 4, 69, 87
6, 2400, Note_on_c, 4, 72, 106
6, 2450, Note_on_c, 4, 67, 0
6, 2450, Note_on_c, 4, 71, 0
6, 2640, Note_on_c, 4, 69, 0
6, 2640, Note_on_c, 4, 69, 87
6, 2640, Note_on_c, 4, 74, 106
6, 2690, Note_on_c, 4, 72, 0
6, 5251, Note_on_c, 4, 69, 0
6, 5251, Note_on_c, 4, 74, 0
6, 5760, Note_on_c, 4, 65, 87
6, 5760, Note_on_c, 4, 69, 106
6, 6000, Note_on_c, 4, 67, 87
6, 6000, Note_on_c, 4, 71, 106
6, 6050, Note_on_c, 4, 65, 0
6, 6050, Note_on_c, 4, 69, 0
6, 6240, Note_on_c, 4, 69, 87
6, 6240, Note_on_c, 4, 72, 106
6, 6290, Note_on_c, 4, 67, 0
6, 6290, Note_on_c, 4, 71, 0
6, 6480, Note_on_c, 4, 67, 87
6, 6480, Note_on_c, 4, 71, 106
6, 6530, Note_on_c, 4, 69, 0
6, 6530, Note_on_c, 4, 72, 0
6, 6960, Note_on_c, 4, 62, 87
6, 7010, Note_on_c, 4, 71, 0
6, 7440, Note_on_c, 4, 62, 0
6, 7440, Note_on_c, 4, 62, 87
6, 7440, Note_on_c, 4, 64, 106
6, 7490, Note_on_c, 4, 67, 0
6, 7680, Note_on_c, 4, 60, 87
6, 7680, Note_on_c, 4, 65, 106
6, 7730, Note_on_c, 4, 62, 0
6, 7730, Note_on_c, 4, 64, 0
6, 8150, Note_on_c, 4, 60, 0
6, 8150, Note_on_c, 4, 65, 0
6, 8160, Note_on_c, 4, 57, 87
6, 8160, Note_on_c, 4, 62, 106
6, 11011, Note_on_c, 4, 57, 0
6, 11011, Note_on_c, 4, 62, 0
6, 11520, Note_on_c, 4, 65, 87
6, 11520, Note_on_c, 4, 69, 106
6, 11760, Note_on_c, 4, 67, 87
6, 11760, Note_on_c, 4, 71, 106
6, 11810, Note_on_c, 4, 65, 0
6, 11810, Note_on_c, 4, 69, 0
6, 12000, Note_on_c, 4, 69, 87
6, 12000, Note_on_c, 4, 72, 106
6, 12050, Note_on_c, 4, 67, 0
6, 12050, Note_on_c, 4, 71, 0
6, 12240, Note_on_c, 4, 69, 0
6, 12240, Note_on_c, 4, 69, 87
6, 12240, Note_on_c, 4, 74, 106
6, 12290, Note_on_c, 4, 72, 0
6, 14851, Note_on_c, 4, 69, 0
6, 14851, Note_on_c, 4, 74, 0
6, 15360, Note_on_c, 4, 65, 87
6, 15360, Note_on_c, 4, 69, 106
6, 15600, Note_on_c, 4, 67, 87
6, 15600, Note_on_c, 4, 71, 106
6, 15650, Note_on_c, 4, 65, 0
6, 15650, Note_on_c, 4, 69, 0
6, 15840, Note_on_c, 4, 69, 87
6, 15840, Note_on_c, 4, 72, 106
6, 15890, Note_on_c, 4, 67, 0
6, 15890, Note_on_c, 4, 71, 0
6, 16080, Note_on_c, 4, 67, 87
6, 16080, Note_on_c, 4, 71, 106
6, 16130, Note_on_c, 4, 69, 0
6, 16130, Note_on_c, 4, 72, 0
6, 16560, Note_on_c, 4, 62, 87
6, 16610, Note_on_c, 4, 71, 0
6, 17040, Note_on_c, 4, 62, 0
6, 17040, Note_on_c, 4, 62, 87
6, 17040, Note_on_c, 4, 64, 106
6, 17090, Note_on_c, 4, 67, 0
6, 17280, Note_on_c, 4, 60, 87
6, 17280, Note_on_c, 4, 65, 106
6, 17330, Note_on_c, 4, 62, 0
6, 17330, Note_on_c, 4, 64, 0
6, 17750, Note_on_c, 4, 60, 0
6, 17750, Note_on_c, 4, 65, 0
6, 17760, Note_on_c, 4, 57, 87
6, 17760, Note_on_c, 4, 62, 106
6, 20611, Note_on_c, 4, 57, 0
6, 20611, Note_on_c, 4, 62, 0
6, 21120, Note_on_c, 4, 76, 100
6, 21120, Note_on_c, 4, 60, 100
6, 21355, Note_on_c, 4, 76, 0
6, 21355, Note_on_c, 4, 60, 0
6, 21360, Note_on_c, 4, 77, 105
6, 21360, Note_on_c, 4, 62, 105
6, 21595, Note_on_c, 4, 77, 0
6, 21595, Note_on_c, 4, 62, 0
6, 21600, Note_on_c, 4, 79, 109
6, 21600, Note_on_c, 4, 64, 109
6, 21835, Note_on_c, 4, 79, 0
6, 21835, Note_on_c, 4, 64, 0
6, 21840, Note_on_c, 4, 83, 106
6, 21840, Note_on_c, 4, 67, 106
6, 22315, Note_on_c, 4, 83, 0
6, 22315, Note_on_c, 4, 67, 0
6, 22320, Note_on_c, 4, 81, 101
6, 22320, Note_on_c, 4, 65, 101
6, 22795, Note_on_c, 4, 81, 0
6, 22795, Note_on_c, 4, 65, 0
6, 22800, Note_on_c, 4, 77, 91
6, 22800, Note_on_c, 4, 60, 91
6, 23035, Note_on_c, 4, 77, 0
6, 23035, Note_on_c, 4, 60, 0
6, 23040, Note_on_c, 4, 81, 102
6, 23040, Note_on_c, 4, 65, 102
6, 23275, Note_on_c, 4, 81, 0
6, 23275, Note_on_c, 4, 65, 0
6, 23280, Note_on_c, 4, 79, 98
6, 23280, Note_on_c, 4, 64, 98
6, 23515, Note_on_c, 4, 79, 0
6, 23515, Note_on_c, 4, 64, 0
6, 23520, Note_on_c, 4, 79, 99
6, 23520, Note_on_c, 4, 64, 99
6, 24931, Note_on_c, 4, 79, 0
6, 24931, Note_on_c, 4, 64, 0
6, 26880, Note_on_c, 4, 72, 89
6, 26880, Note_on_c, 4, 60, 89
6, 27115, Note_on_c, 4, 72, 0
6, 27115, Note_on_c, 4, 60, 0
6, 27120, Note_on_c, 4, 74, 97
6, 27120, Note_on_c, 4, 62, 97
6, 27355, Note_on_c, 4, 74, 0
6, 27355, Note_on_c, 4, 62, 0
6, 27360, Note_on_c, 4, 76, 94
6, 27360, Note_on_c, 4, 64, 94
6, 27595, Note_on_c, 4, 76, 0
6, 27595, Note_on_c, 4, 64, 0
6, 27600, Note_on_c, 4, 79, 95
6, 27600, Note_on_c, 4, 67, 95
6, 28075, Note_on_c, 4, 79, 0
6, 28075, Note_on_c, 4, 67, 0
6, 28080, Note_on_c, 4, 77, 94
6, 28080, Note_on_c, 4, 65, 94
6, 28555, Note_on_c, 4, 77, 0
6, 28555, Note_on_c, 4, 65, 0
6, 28560, Note_on_c, 4, 74, 88
6, 28560, Note_on_c, 4, 62, 88
6, 28795, Note_on_c, 4, 74, 0
6, 28795, Note_on_c, 4, 62, 0
6, 28800, Note_on_c, 4, 77, 96
6, 28800, Note_on_c, 4, 65, 96
6, 29035, Note_on_c, 4, 77, 0
6, 29035, Note_on_c, 4, 65, 0
6, 29040, Note_on_c, 4, 76, 91
6, 29040, Note_on_c, 4, 64, 91
6, 29275, Note_on_c, 4, 76, 0
6, 29275, Note_on_c, 4, 64, 0
6, 29280, Note_on_c, 4, 76, 92
6, 29280, Note_on_c, 4, 64, 92
6, 30691, Note_on_c, 4, 76, 0
6, 30691, Note_on_c, 4, 64, 0
6, 32640, Note_on_c, 4, 53, 72
6, 32875, Note_on_c, 4, 53, 0
6, 32880, Note_on_c, 4, 55, 73
6, 33115, Note_on_c, 4, 55, 0
6, 33120, Note_on_c, 4, 57, 74
6, 33355, Note_on_c, 4, 57, 0
6, 33360, Note_on_c, 4, 55, 71
6, 33835, Note_on_c, 4, 55, 0
6, 33840, Note_on_c, 4, 55, 68
6, 34315, Note_on_c, 4, 55, 0
6, 34320, Note_on_c, 4, 55, 65
6, 34795, Note_on_c, 4, 55, 0
6, 34800, Note_on_c, 4, 55, 70
6, 35035, Note_on_c, 4, 55, 0
6, 35040, Note_on_c, 4, 60, 69
6, 35510, Note_on_c, 4, 60, 0
6, 35760, Note_on_c, 4, 57, 68
6, 36000, Note_on_c, 4, 62, 67
6, 36000, Note_on_c, 4, 60, 67
6, 36235, Note_on_c, 4, 62, 0
6, 36235, Note_on_c, 4, 60, 0
6, 36470, Note_on_c, 4, 57, 0
6, 36960, Note_on_c, 4, 55, 67
6, 36960, Note_on_c, 4, 60, 67
6, 37430, Note_on_c, 4, 55, 0
6, 37430, Note_on_c, 4, 60, 0
6, 37920, Note_on_c, 4, 62, 68
6, 37920, Note_on_c, 4, 60, 68
6, 38390, Note_on_c, 4, 62, 0
6, 38390, Note_on_c, 4, 60, 0
6, 67200, Note_on_c, 4, 76, 100
6, 67200, Note_on_c, 4, 60, 100
6, 67200, Control_c, 4, 7, 125
6, 67230, Control_c, 4, 7, 125
6, 67260, Control_c, 4, 7, 125
6, 67290, Control_c, 4, 7, 125
6, 67320, Control_c, 4, 7, 125
6, 67350, Control_c, 4, 7, 124
6, 67380, Control_c, 4, 7, 124
6, 67410, Control_c, 4, 7, 124
6, 67435, Note_on_c, 4, 76, 0
6, 67435, Note_on_c, 4, 60, 0
6, 67440, Note_on_c, 4, 77, 105
6, 67440, Note_on_c, 4, 62, 105
6, 67440, Control_c, 4, 7, 124
6, 67470, Control_c, 4, 7, 123
6, 67500, Control_c, 4, 7, 123
6, 67530, Control_c, 4, 7, 123
6, 67560, Control_c, 4, 7, 123
6, 67590, Control_c, 4, 7, 122
6, 67620, Control_c, 4, 7, 122
6, 67650, Control_c, 4, 7, 122
6, 67675, Note_on_c, 4, 77, 0
6, 67675, Note_on_c, 4, 62, 0
6, 67680, Note_on_c, 4, 79, 109
6, 67680, Note_on_c, 4, 64, 109
6, 67680, Control_c, 4, 7, 122
6, 67710, Control_c, 4, 7, 121
6, 67740, Control_c, 4, 7, 121
6, 67770, Control_c, 4, 7, 121
6, 67800, Control_c, 4, 7, 121
6, 67830, Control_c, 4, 7, 120
6, 67860, Control_c, 4, 7, 120
6, 67890, Control_c, 4, 7, 120
6, 67915, Note_on_c, 4, 79, 0
6, 67915, Note_on_c, 4, 64, 0
6, 67920, Note_on_c, 4, 83, 106
6, 67920, Note_on_c, 4, 67, 106
6, 67920, Control_c, 4, 7, 120
6, 67950, Control_c, 4, 7, 119
6, 67980, Control_c, 4, 7, 119
6, 68010, Control_c, 4, 7, 119
6, 68040, Control_c, 4, 7, 119
6, 68070, Control_c, 4, 7, 118
6, 68100, Control_c, 4, 7, 118
6, 68130, Control_c, 4, 7, 118
6, 68160, Control_c, 4, 7, 118
6, 68190, Control_c, 4, 7, 118
6, 68220, Control_c, 4, 7, 117
6, 68250, Control_c, 4, 7, 117
6, 68280, Control_c, 4, 7, 117
6, 68310, Control_c, 4, 7, 117
6, 68340, Control_c, 4, 7, 116
6, 68370, Control_c, 4, 7, 116
6, 68395, Note_on_c, 4, 83, 0
6, 68395, Note_on_c, 4, 67, 0
6, 68400, Note_on_c, 4, 81, 101
6, 68400, Note_on_c, 4, 65, 101
6, 68400, Control_c, 4, 7, 116
6, 68430, Control_c, 4, 7, 116
6, 68460, Control_c, 4, 7, 115
6, 68490, Control_c, 4, 7, 115
6, 68520, Control_c, 4, 7, 115
6, 68550, Control_c, 4, 7, 115
6, 68580, Control_c, 4, 7, 114
6, 68610, Control_c, 4, 7, 114
6, 68640, Control_c, 4, 7, 114
6, 68670, Control_c, 4, 7, 114
6, 68700, Control_c, 4, 7, 113
6, 68730, Control_c, 4, 7, 113
6, 68760, Control_c, 4, 7, 113
6, 68790, Control_c, 4, 7, 113
6, 68820, Control_c, 4, 7, 112
6, 68850, Control_c, 4, 7, 112
6, 68875, Note_on_c, 4, 81, 0
6, 68875, Note_on_c, 4, 65, 0
6, 68880, Note_on_c, 4, 77, 91
6, 68880, Note_on_c, 4, 60, 91
6, 68880, Control_c, 4, 7, 112
6, 68910, Control_c, 4, 7, 112
6, 68940, Control_c, 4, 7, 111
6, 68970, Control_c, 4, 7, 111
6, 69000, Control_c, 4, 7, 111
6, 69030, Control_c, 4, 7, 111
6, 69060, Control_c, 4, 7, 110
6, 69090, Control_c, 4, 7, 110
6, 69115, Note_on_c, 4, 77, 0
6, 69115, Note_on_c, 4, 60, 0
6, 69120, Note_on_c, 4, 81, 102
6, 69120, Note_on_c, 4, 65, 102
6, 69120, Control_c, 4, 7, 110
6, 69150, Control_c, 4, 7, 110
6, 69180, Control_c, 4, 7, 110
6, 69210, Control_c, 4, 7, 109
6, 69240, Control_c, 4, 7, 109
6, 69270, Control_c, 4, 7, 109
6, 69300, Control_c, 4, 7, 109
6, 69330, Control_c, 4, 7, 108
6, 69355, Note_on_c, 4, 81, 0
6, 69355, Note_on_c, 4, 65, 0
6, 69360, Note_on_c, 4, 79, 98
6, 69360, Note_on_c, 4, 64, 98
6, 69360, Control_c, 4, 7, 108
6, 69390, Control_c, 4, 7, 108
6, 69420, Control_c, 4, 7, 108
6, 69450, Control_c, 4, 7, 107
6, 69480, Control_c, 4, 7, 107
6, 69510, Control_c, 4, 7, 107
6, 69540, Control_c, 4, 7, 107
6, 69570, Control_c, 4, 7, 106
6, 69595, Note_on_c, 4, 79, 0
6, 69595, Note_on_c, 4, 64, 0
6, 69600, Note_on_c, 4, 79, 99
6, 69600, Note_on_c, 4, 64, 99
6, 69600, Control_c, 4, 7, 106
6, 69630, Control_c, 4, 7, 106
6, 69660, Control_c, 4, 7, 106
6, 69690, Control_c, 4, 7, 105
6, 69720, Control_c, 4, 7, 105
6, 69750, Control_c, 4, 7, 105
6, 69780, Control_c, 4, 7, 105
6, 69810, Control_c, 4, 7, 104
6, 69840, Control_c, 4, 7, 104
6, 69870, Control_c, 4, 7, 104
6, 69900, Control_c, 4, 7, 104
6, 69930, Control_c, 4, 7, 103
6, 69960, Control_c, 4, 7, 103
6, 69990, Control_c, 4, 7, 103
6, 70020, Control_c, 4, 7, 103
6, 70050, Control_c, 4, 7, 102
6, 70080, Control_c, 4, 7, 102
6, 70110, Control_c, 4, 7, 102
6, 70140, Control_c, 4, 7, 102
6, 70170, Control_c, 4, 7, 102
6, 70200, Control_c, 4, 7, 101
6, 70230, Control_c, 4, 7, 101
6, 70260, Control_c, 4, 7, 101
6, 70290, Control_c, 4, 7, 101
6, 70320, Control_c, 4, 7, 100
6, 70350, Control_c, 4, 7, 100
6, 70380, Control_c, 4, 7, 100
6, 70410, Control_c, 4, 7, 100
6, 70440, Control_c, 4, 7, 99
6, 70470, Control_c, 4, 7, 99
6, 70500, Control_c, 4, 7, 99
6, 70530, Control_c, 4, 7, 99
6, 70560, Control_c, 4, 7, 98
6, 70590, Control_c, 4, 7, 98
6, 70620, Control_c, 4, 7, 98
6, 70650, Control_c, 4, 7, 98
6, 70680, Control_c, 4, 7, 97
6, 70710, Control_c, 4, 7, 97
6, 70740, Control_c, 4, 7, 97
6, 70770, Control_c, 4, 7, 97
6, 70800, Control_c, 4, 7, 96
6, 70830, Control_c, 4, 7, 96
6, 70860, Control_c, 4, 7, 96
6, 70890, Control_c, 4, 7, 96
6, 70920, Control_c, 4, 7, 95
6, 70950, Control_c, 4, 7, 95
6, 70980, Control_c, 4, 7, 95
6, 71010, Control_c, 4, 7, 95
6, 71011, Note_on_c, 4, 79, 0
6, 71011, Note_on_c, 4, 64, 0
6, 71040, Control_c, 4, 7, 95
6, 71070, Control_c, 4, 7, 94
6, 71100, Control_c, 4, 7, 94
6, 71130, Control_c, 4, 7, 94
6, 71160, Control_c, 4, 7, 94
6, 71190, Control_c, 4, 7, 93
6, 71220, Control_c, 4, 7, 93
6, 71250, Control_c, 4, 7, 93
6, 71280, Control_c, 4, 7, 93
6, 71310, Control_c, 4, 7, 92
6, 71340, Control_c, 4, 7, 92
6, 71370, Control_c, 4, 7, 92
6, 71400, Control_c, 4, 7, 92
6, 71430, Control_c, 4, 7, 91
6, 71460, Control_c, 4, 7, 91
6, 71490, Control_c, 4, 7, 91
6, 71520, Control_c, 4, 7, 91
6, 71550, Control_c, 4, 7, 90
6, 71580, Control_c, 4, 7, 90
6, 71610, Control_c, 4, 7, 90
6, 71640, Control_c, 4, 7, 90
6, 71670, Control_c, 4, 7, 89
6, 71700, Control_c, 4, 7, 89
6, 71730, Control_c, 4, 7, 89
6, 71760, Control_c, 4, 7, 89
6, 71790, Control_c, 4, 7, 88
6, 71820, Control_c, 4, 7, 88
6, 71850, Control_c, 4, 7, 88
6, 71880, Control_c, 4, 7, 88
6, 71910, Control_c, 4, 7, 87
6, 71940, Control_c, 4, 7, 87
6, 71970, Control_c, 4, 7, 87
6, 72000, Control_c, 4, 7, 87
6, 72030, Control_c, 4, 7, 87
6, 72060, Control_c, 4, 7, 86
6, 72090, Control_c, 4, 7, 86
6, 72120, Control_c, 4, 7, 86
6, 72150, Control_c, 4, 7, 86
6, 72180, Control_c, 4, 7, 85
6, 72210, Control_c, 4, 7, 85
6, 72240, Control_c, 4, 7, 85
6, 72270, Control_c, 4, 7, 85
6, 72300, Control_c, 4, 7, 84
6, 72330, Control_c, 4, 7, 84
6, 72360, Control_c, 4, 7, 84
6, 72390, Control_c, 4, 7, 84
6, 72420, Control_c, 4, 7, 83
6, 72450, Control_c, 4, 7, 83
6, 72480, Control_c, 4, 7, 83
6, 72510, Control_c, 4, 7, 83
6, 72540, Control_c, 4, 7, 82
6, 72570, Control_c, 4, 7, 82
6, 72600, Control_c, 4, 7, 82
6, 72630, Control_c, 4, 7, 82
6, 72660, Control_c, 4, 7, 81
6, 72690, Control_c, 4, 7, 81
6, 72720, Control_c, 4, 7, 81
6, 72750, Control_c, 4, 7, 81
6, 72780, Control_c, 4, 7, 80
6, 72810, Control_c, 4, 7, 80
6, 72840, Control_c, 4, 7, 80
6, 72870, Control_c, 4, 7, 80
6, 72900, Control_c, 4, 7, 79
6, 72930, Control_c, 4, 7, 79
6, 72960, Note_on_c, 4, 72, 89
6, 72960, Note_on_c, 4, 60, 89
6, 72960, Control_c, 4, 7, 79
6, 72990, Control_c, 4, 7, 79
6, 73020, Control_c, 4, 7, 79
6, 73050, Control_c, 4, 7, 78
6, 73080, Control_c, 4, 7, 78
6, 73110, Control_c, 4, 7, 78
6, 73140, Control_c, 4, 7, 78
6, 73170, Control_c, 4, 7, 77
6, 73195, Note_on_c, 4, 72, 0
6, 73195, Note_on_c, 4, 60, 0
6, 73200, Note_on_c, 4, 74, 97
6, 73200, Note_on_c, 4, 62, 97
6, 73200, Control_c, 4, 7, 77
6, 73230, Control_c, 4, 7, 77
6, 73260, Control_c, 4, 7, 77
6, 73290, Control_c, 4, 7, 76
6, 73320, Control_c, 4, 7, 76
6, 73350, Control_c, 4, 7, 76
6, 73380, Control_c, 4, 7, 76
6, 73410, Control_c, 4, 7, 75
6, 73435, Note_on_c, 4, 74, 0
6, 73435, Note_on_c, 4, 62, 0
6, 73440, Note_on_c, 4, 76, 94
6, 73440, Note_on_c, 4, 64, 94
6, 73440, Control_c, 4, 7, 75
6, 73470, Control_c, 4, 7, 75
6, 73500, Control_c, 4, 7, 75
6, 73530, Control_c, 4, 7, 74
6, 73560, Control_c, 4, 7, 74
6, 73590, Control_c, 4, 7, 74
6, 73620, Control_c, 4, 7, 74
6, 73650, Control_c, 4, 7, 73
6, 73675, Note_on_c, 4, 76, 0
6, 73675, Note_on_c, 4, 64, 0
6, 73680, Note_on_c, 4, 79, 95
6, 73680, Note_on_c, 4, 67, 95
6, 73680, Control_c, 4, 7, 73
6, 73710, Control_c, 4, 7, 73
6, 73740, Control_c, 4, 7, 73
6, 73770, Control_c, 4, 7, 72
6, 73800, Control_c, 4, 7, 72
6, 73830, Control_c, 4, 7, 72
6, 73860, Control_c, 4, 7, 72
6, 73890, Control_c, 4, 7, 71
6, 73920, Control_c, 4, 7, 71
6, 73950, Control_c, 4, 7, 71
6, 73980, Control_c, 4, 7, 71
6, 74010, Control_c, 4, 7, 71
6, 74040, Control_c, 4, 7, 70
6, 74070, Control_c, 4, 7, 70
6, 74100, Control_c, 4, 7, 70
6, 74130, Control_c, 4, 7, 70
6, 74155, Note_on_c, 4, 79, 0
6, 74155, Note_on_c, 4, 67, 0
6, 74160, Note_on_c, 4, 77, 94
6, 74160, Note_on_c, 4, 65, 94
6, 74160, Control_c, 4, 7, 69
6, 74190, Control_c, 4, 7, 69
6, 74220, Control_c, 4, 7, 69
6, 74250, Control_c, 4, 7, 69
6, 74280, Control_c, 4, 7, 68
6, 74310, Control_c, 4, 7, 68
6, 74340, Control_c, 4, 7, 68
6, 74370, Control_c, 4, 7, 68
6, 74400, Control_c, 4, 7, 67
6, 74430, Control_c, 4, 7, 67
6, 74460, Control_c, 4, 7, 67
6, 74490, Control_c, 4, 7, 67
6, 74520, Control_c, 4, 7, 66
6, 74550, Control_c, 4, 7, 66
6, 74580, Control_c, 4, 7, 66
6, 74610, Control_c, 4, 7, 66
6, 74635, Note_on_c, 4, 77, 0
6, 74635, Note_on_c, 4, 65, 0
6, 74640, Note_on_c, 4, 74, 88
6, 74640, Note_on_c, 4, 62, 88
6, 74640, Control_c, 4, 7, 65
6, 74670, Control_c, 4, 7, 65
6, 74700, Control_c, 4, 7, 65
6, 74730, Control_c, 4, 7, 65
6, 74760, Control_c, 4, 7, 64
6, 74790, Control_c, 4, 7, 64
6, 74820, Control_c, 4, 7, 64
6, 74850, Control_c, 4, 7, 64
6, 74875, Note_on_c, 4, 74, 0
6, 74875, Note_on_c, 4, 62, 0
6, 74880, Note_on_c, 4, 77, 96
6, 74880, Note_on_c, 4, 65, 96
6, 74880, Control_c, 4, 7, 64
6, 74910, Control_c, 4, 7, 63
6, 74940, Control_c, 4, 7, 63
6, 74970, Control_c, 4, 7, 63
6, 75000, Control_c, 4, 7, 63
6, 75030, Control_c, 4, 7, 62
6, 75060, Control_c, 4, 7, 62
6, 75090, Control_c, 4, 7, 62
6, 75115, Note_on_c, 4, 77, 0
6, 75115, Note_on_c, 4, 65, 0
6, 75120, Note_on_c, 4, 76, 91
6, 75120, Note_on_c, 4, 64, 91
6, 75120, Control_c, 4, 7, 62
6, 75150, Control_c, 4, 7, 61
6, 75180, Control_c, 4, 7, 61
6, 75210, Control_c, 4, 7, 61
6, 75240, Control_c, 4, 7, 61
6, 75270, Control_c, 4, 7, 60
6, 75300, Control_c, 4, 7, 60
6, 75330, Control_c, 4, 7, 60
6, 75355, Note_on_c, 4, 76, 0
6, 75355, Note_on_c, 4, 64, 0
6, 75360, Note_on_c, 4, 76, 92
6, 75360, Note_on_c, 4, 64, 92
6, 75360, Control_c, 4, 7, 60
6, 75390, Control_c, 4, 7, 59
6, 75420, Control_c, 4, 7, 59
6, 75450, Control_c, 4, 7, 59
6, 75480, Control_c, 4, 7, 59
6, 75510, Control_c, 4, 7, 58
6, 75540, Control_c, 4, 7, 58
6, 75570, Control_c, 4, 7, 58
6, 75600, Control_c, 4, 7, 58
6, 75630, Control_c, 4, 7, 57
6, 75660, Control_c, 4, 7, 57
6, 75690, Control_c, 4, 7, 57
6, 75720, Control_c, 4, 7, 57
6, 75750, Control_c, 4, 7, 56
6, 75780, Control_c, 4, 7, 56
6, 75810, Control_c, 4, 7, 56
6, 75840, Control_c, 4, 7, 56
6, 75870, Control_c, 4, 7, 56
6, 75900, Control_c, 4, 7, 55
6, 75930, Control_c, 4, 7, 55
6, 75960, Control_c, 4, 7, 55
6, 75990, Control_c, 4, 7, 55
6, 76020, Control_c, 4, 7, 54
6, 76050, Control_c, 4, 7, 54
6, 76080, Control_c, 4, 7, 54
6, 76110, Control_c, 4, 7, 54
6, 76140, Control_c, 4, 7, 53
6, 76170, Control_c, 4, 7, 53
6, 76200, Control_c, 4, 7, 53
6, 76230, Control_c, 4, 7, 53
6, 76260, Control_c, 4, 7, 52
6, 76290, Control_c, 4, 7, 52
6, 76320, Control_c, 4, 7, 52
6, 76350, Control_c, 4, 7, 52
6, 76380, Control_c, 4, 7, 51
6, 76410, Control_c, 4, 7, 51
6, 76440, Control_c, 4, 7, 51
6, 76470, Control_c, 4, 7, 51
6, 76500, Control_c, 4, 7, 50
6, 76530, Control_c, 4, 7, 50
6, 76560, Control_c, 4, 7, 50
6, 76590, Control_c, 4, 7, 50
6, 76620, Control_c, 4, 7, 49
6, 76650, Control_c, 4, 7, 49
6, 76680, Control_c, 4, 7, 49
6, 76710, Control_c, 4, 7, 49
6, 76740, Control_c, 4, 7, 48
6, 76770, Control_c, 4, 7, 48
6, 76771, Note_on_c, 4, 76, 0
6, 76771, Note_on_c, 4, 64, 0
6, 76800, Control_c, 4, 7, 48
6, 76814, Control_c, 4, 7, 47
6, 76844, Control_c, 4, 7, 47
6, 76874, Control_c, 4, 7, 46
6, 76904, Control_c, 4, 7, 45
6, 76934, Control_c, 4, 7, 45
6, 76964, Control_c, 4, 7, 44
6, 76994, Control_c, 4, 7, 43
6, 77024, Control_c, 4, 7, 43
6, 77054, Control_c, 4, 7, 42
6, 77084, Control_c, 4, 7, 41
6, 77114, Control_c, 4, 7, 40
6, 77144, Control_c, 4, 7, 40
6, 77174, Control_c, 4, 7, 39
6, 77204, Control_c, 4, 7, 38
6, 77234, Control_c, 4, 7, 38
6, 77264, Control_c, 4, 7, 37
6, 77294, Control_c, 4, 7, 36
6, 77324, Control_c, 4, 7, 35
6, 77354, Control_c, 4, 7, 35
6, 77384, Control_c, 4, 7, 34
6, 77414, Control_c, 4, 7, 33
6, 77444, Control_c, 4, 7, 33
6, 77474, Control_c, 4, 7, 32
6, 77504, Control_c, 4, 7, 31
6, 77534, Control_c, 4, 7, 31
6, 77564, Control_c, 4, 7, 30
6, 77594, Control_c, 4, 7, 29
6, 77624, Control_c, 4, 7, 28
6, 77654, Control_c, 4, 7, 28
6, 77684, Control_c, 4, 7, 27
6, 77714, Control_c, 4, 7, 26
6, 77744, Control_c, 4, 7, 26
6, 77774, Control_c, 4, 7, 25
6, 77804, Control_c, 4, 7, 24
6, 77834, Control_c, 4, 7, 23
6, 77864, Control_c, 4, 7, 23
6, 77894, Control_c, 4, 7, 22
6, 77924, Control_c, 4, 7, 21
6, 77954, Control_c, 4, 7, 21
6, 77984, Control_c, 4, 7, 20
6, 78014, Control_c, 4, 7, 19
6, 78044, Control_c, 4, 7, 18
6, 78074, Control_c, 4, 7, 18
6, 78104, Control_c, 4, 7, 17
6, 78134, Control_c, 4, 7, 16
6, 78164, Control_c, 4, 7, 16
6, 78194, Control_c, 4, 7, 15
6, 78224, Control_c, 4, 7, 14
6, 78254, Control_c, 4, 7, 14
6, 78284, Control_c, 4, 7, 13
6, 78314, Control_c, 4, 7, 12
6, 78344, Control_c, 4, 7, 11
6, 78374, Control_c, 4, 7, 11
6, 78404, Control_c, 4, 7, 10
6, 78434, Control_c, 4, 7, 9
6, 78464, Control_c, 4, 7, 9
6, 78494, Control_c, 4, 7, 8
6, 78524, Control_c, 4, 7, 7
6, 78554, Control_c, 4, 7, 6
6, 78584, Control_c, 4, 7, 6
6, 78614, Control_c, 4, 7, 5
6, 78644, Control_c, 4, 7, 4
6, 78674, Control_c, 4, 7, 4
6, 78704, Control_c, 4, 7, 3
6, 78704, End_track
7, 0, Start_track
7, 0, Title_t, ""
7, 0, Control_c, 5, 0, 0
7, 0, Control_c, 5, 32, 64
7, 0, Program_c, 5, 4
7, 0, Pitch_bend_c, 5, 8192
7, 0, Control_c, 5, 1, 0
7, 0, Control_c, 5, 7, 127
7, 0, Control_c, 5, 10, 37
7, 0, Control_c, 5, 11, 115
7, 0, Control_c, 5, 91, 70
7, 0, Control_c, 5, 93, 20
7, 0, Control_c, 5, 99, 1
7, 0, Control_c, 5, 98, 32
7, 0, Control_c, 5, 6, 70
7, 1920, Note_on_c, 5, 64, 96
7, 2160, Note_on_c, 5, 62, 94
7, 2210, Note_on_c, 5, 64, 0
7, 2400, Note_on_c, 5, 60, 90
7, 2450, Note_on_c, 5, 62, 0
7, 2640, Note_on_c, 5, 62, 98
7, 2690, Note_on_c, 5, 60, 0
7, 5251, Note_on_c, 5, 62, 0
7, 5760, Note_on_c, 5, 64, 96
7, 6000, Note_on_c, 5, 62, 93
7, 6050, Note_on_c, 5, 64, 0
7, 6240, Note_on_c, 5, 60, 90
7, 6290, Note_on_c, 5, 62, 0
7, 6480, Note_on_c, 5, 62, 98
7, 6530, Note_on_c, 5, 60, 0
7, 6960, Note_on_c, 5, 59, 92
7, 7010, Note_on_c, 5, 62, 0
7, 7440, Note_on_c, 5, 59, 0
7, 7440, Note_on_c, 5, 59, 90
7, 7680, Note_on_c, 5, 57, 93
7, 7730, Note_on_c, 5, 59, 0
7, 8150, Note_on_c, 5, 57, 0
7, 8160, Note_on_c, 5, 62, 86
7, 11011, Note_on_c, 5, 62, 0
7, 11520, Note_on_c, 5, 64, 96
7, 11760, Note_on_c, 5, 62, 94
7, 11810, Note_on_c, 5, 64, 0
7, 12000, Note_on_c, 5, 60, 90
7, 12050, Note_on_c, 5, 62, 0
7, 12240, Note_on_c, 5, 62, 98
7, 12290, Note_on_c, 5, 60, 0
7, 14851, Note_on_c, 5, 62, 0
7, 15360, Note_on_c, 5, 64, 96
7, 15600, Note_on_c, 5, 62, 93
7, 15650, Note_on_c, 5, 64, 0
7, 15840, Note_on_c, 5, 60, 90
7, 15890, Note_on_c, 5, 62, 0
7, 16080, Note_on_c, 5, 62, 98
7, 16130, Note_on_c, 5, 60, 0
7, 16560, Note_on_c, 5, 59, 92
7, 16610, Note_on_c, 5, 62, 0
7, 17040, Note_on_c, 5, 59, 0
7, 17040, Note_on_c, 5, 59, 90
7, 17280, Note_on_c, 5, 57, 93
7, 17330, Note_on_c, 5, 59, 0
7, 17750, Note_on_c, 5, 57, 0
7, 17760, Note_on_c, 5, 62, 86
7, 20611, Note_on_c, 5, 62, 0
7, 21120, Note_on_c, 5, 64, 75
7, 21355, Note_on_c, 5, 64, 0
7, 21360, Note_on_c, 5, 65, 81
7, 21595, Note_on_c, 5, 65, 0
7, 21600, Note_on_c, 5, 67, 84
7, 21835, Note_on_c, 5, 67, 0
7, 21840, Note_on_c, 5, 71, 81
7, 22315, Note_on_c, 5, 71, 0
7, 22320, Note_on_c, 5, 69, 78
7, 22795, Note_on_c, 5, 69, 0
7, 22800, Note_on_c, 5, 65, 69
7, 23035, Note_on_c, 5, 65, 0
7, 23040, Note_on_c, 5, 69, 78
7, 23275, Note_on_c, 5, 69, 0
7, 23280, Note_on_c, 5, 67, 75
7, 23515, Note_on_c, 5, 67, 0
7, 23520, Note_on_c, 5, 67, 75
7, 24931, Note_on_c, 5, 67, 0
7, 26880, Note_on_c, 5, 64, 75
7, 27115, Note_on_c, 5, 64, 0
7, 27120, Note_on_c, 5, 65, 81
7, 27355, Note_on_c, 5, 65, 0
7, 27360, Note_on_c, 5, 67, 84
7, 27595, Note_on_c, 5, 67, 0
7, 27600, Note_on_c, 5, 71, 81
7, 28075, Note_on_c, 5, 71, 0
7, 28080, Note_on_c, 5, 69, 78
7, 28555, Note_on_c, 5, 69, 0
7, 28560, Note_on_c, 5, 65, 69
7, 28795, Note_on_c, 5, 65, 0
7, 28800, Note_on_c, 5, 69, 78
7, 29035, Note_on_c, 5, 69, 0
7, 29040, Note_on_c, 5, 67, 75
7, 29275, Note_on_c, 5, 67, 0
7, 29280, Note_on_c, 5, 67, 75
7, 30691, Note_on_c, 5, 67, 0
7, 67185, Control_c, 5, 7, 126
7, 67200, Note_on_c, 5, 64, 75
7, 67214, Control_c, 5, 7, 126
7, 67244, Control_c, 5, 7, 126
7, 67274, Control_c, 5, 7, 126
7, 67304, Control_c, 5, 7, 126
7, 67334, Control_c, 5, 7, 126
7, 67364, Control_c, 5, 7, 125
7, 67394, Control_c, 5, 7, 125
7, 67424, Control_c, 5, 7, 125
7, 67435, Note_on_c, 5, 64, 0
7, 67440, Note_on_c, 5, 65, 81
7, 67454, Control_c, 5, 7, 125
7, 67484, Control_c, 5, 7, 124
7, 67514, Control_c, 5, 7, 124
7, 67544, Control_c, 5, 7, 124
7, 67574, Control_c, 5, 7, 124
7, 67604, Control_c, 5, 7, 123
7, 67634, Control_c, 5, 7, 123
7, 67664, Control_c, 5, 7, 123
7, 67675, Note_on_c, 5, 65, 0
7, 67680, Note_on_c, 5, 67, 84
7, 67694, Control_c, 5, 7, 123
7, 67724, Control_c, 5, 7, 122
7, 67754, Control_c, 5, 7, 122
7, 67784, Control_c, 5, 7, 122
7, 67814, Control_c, 5, 7, 122
7, 67844, Control_c, 5, 7, 121
7, 67874, Control_c, 5, 7, 121
7, 67904, Control_c, 5, 7, 121
7, 67915, Note_on_c, 5, 67, 0
7, 67920, Note_on_c, 5, 71, 81
7, 67934, Control_c, 5, 7, 121
7, 67964, Control_c, 5, 7, 120
7, 67994, Control_c, 5, 7, 120
7, 68024, Control_c, 5, 7, 120
7, 68054, Control_c, 5, 7, 120
7, 68084, Control_c, 5, 7, 119
7, 68114, Control_c, 5, 7, 119
7, 68144, Control_c, 5, 7, 119
7, 68174, Control_c, 5, 7, 119
7, 68204, Control_c, 5, 7, 118
7, 68234, Control_c, 5, 7, 118
7, 68264, Control_c, 5, 7, 118
7, 68294, Control_c, 5, 7, 118
7, 68324, Control_c, 5, 7, 117
7, 68354, Control_c, 5, 7, 117
7, 68384, Control_c, 5, 7, 117
7, 68395, Note_on_c, 5, 71, 0
7, 68400, Note_on_c, 5, 69, 78
7, 68414, Control_c, 5, 7, 117
7, 68444, Control_c, 5, 7, 117
7, 68474, Control_c, 5, 7, 116
7, 68504, Control_c, 5, 7, 116
7, 68534, Control_c, 5, 7, 116
7, 68564, Control_c, 5, 7, 116
7, 68594, Control_c, 5, 7, 115
7, 68624, Control_c, 5, 7, 115
7, 68654, Control_c, 5, 7, 115
7, 68684, Control_c, 5, 7, 115
7, 68714, Control_c, 5, 7, 114
7, 68744, Control_c, 5, 7, 114
7, 68774, Control_c, 5, 7, 114
7, 68804, Control_c, 5, 7, 114
7, 68834, Control_c, 5, 7, 113
7, 68864, Control_c, 5, 7, 113
7, 68875, Note_on_c, 5, 69, 0
7, 68880, Note_on_c, 5, 65, 69
7, 68894, Control_c, 5, 7, 113
7, 68924, Control_c, 5, 7, 113
7, 68954, Control_c, 5, 7, 112
7, 68984, Control_c, 5, 7, 112
7, 69014, Control_c, 5, 7, 112
7, 69044, Control_c, 5, 7, 112
7, 69074, Control_c, 5, 7, 111
7, 69104, Control_c, 5, 7, 111
7, 69115, Note_on_c, 5, 65, 0
7, 69120, Note_on_c, 5, 69, 78
7, 69134, Control_c, 5, 7, 111
7, 69164, Control_c, 5, 7, 111
7, 69194, Control_c, 5, 7, 110
7, 69224, Control_c, 5, 7, 110
7, 69254, Control_c, 5, 7, 110
7, 69284, Control_c, 5, 7, 110
7, 69314, Control_c, 5, 7, 109
7, 69344, Control_c, 5, 7, 109
7, 69355, Note_on_c, 5, 69, 0
7, 69360, Note_on_c, 5, 67, 75
7, 69374, Control_c, 5, 7, 109
7, 69404, Control_c, 5, 7, 109
7, 69434, Control_c, 5, 7, 108
7, 69464, Control_c, 5, 7, 108
7, 69494, Control_c, 5, 7, 108
7, 69524, Control_c, 5, 7, 108
7, 69554, Control_c, 5, 7, 107
7, 69584, Control_c, 5, 7, 107
7, 69595, Note_on_c, 5, 67, 0
7, 69600, Note_on_c, 5, 67, 75
7, 69614, Control_c, 5, 7, 107
7, 69644, Control_c, 5, 7, 107
7, 69674, Control_c, 5, 7, 107
7, 69704, Control_c, 5, 7, 106
7, 69734, Control_c, 5, 7, 106
7, 69764, Control_c, 5, 7, 106
7, 69794, Control_c, 5, 7, 106
7, 69824, Control_c, 5, 7, 105
7, 69854, Control_c, 5, 7, 105
7, 69884, Control_c, 5, 7, 105
7, 69914, Control_c, 5, 7, 105
7, 69944, Control_c, 5, 7, 104
7, 69974, Control_c, 5, 7, 104
7, 70004, Control_c, 5, 7, 104
7, 70034, Control_c, 5, 7, 104
7, 70064, Control_c, 5, 7, 103
7, 70094, Control_c, 5, 7, 103
7, 70124, Control_c, 5, 7, 103
7, 70154, Control_c, 5, 7, 103
7, 70184, Control_c, 5, 7, 102
7, 70214, Control_c, 5, 7, 102
7, 70244, Control_c, 5, 7, 102
7, 70274, Control_c, 5, 7, 102
7, 70304, Control_c, 5, 7, 101
7, 70334, Control_c, 5, 7, 101
7, 70364, Control_c, 5, 7, 101
7, 70394, Control_c, 5, 7, 101
7, 70424, Control_c, 5, 7, 100
7, 70454, Control_c, 5, 7, 100
7, 70484, Control_c, 5, 7, 100
7, 70514, Control_c, 5, 7, 100
7, 70544, Control_c, 5, 7, 99
7, 70574, Control_c, 5, 7, 99
7, 70604, Control_c, 5, 7, 99
7, 70634, Control_c, 5, 7, 99
7, 70664, Control_c, 5, 7, 98
7, 70694, Control_c, 5, 7, 98
7, 70724, Control_c, 5, 7, 98
7, 70754, Control_c, 5, 7, 98
7, 70784, Control_c, 5, 7, 98
7, 70814, Control_c, 5, 7, 97
7, 70844, Control_c, 5, 7, 97
7, 70874, Control_c, 5, 7, 97
7, 70904, Control_c, 5, 7, 97
7, 70934, Control_c, 5, 7, 96
7, 70964, Control_c, 5, 7, 96
7, 70994, Control_c, 5, 7, 96
7, 71011, Note_on_c, 5, 67, 0
7, 71024, Control_c, 5, 7, 96
7, 71054, Control_c, 5, 7, 95
7, 71084, Control_c, 5, 7, 95
7, 71114, Control_c, 5, 7, 95
7, 71144, Control_c, 5, 7, 95
7, 71174, Control_c, 5, 7, 94
7, 71204, Control_c, 5, 7, 94
7, 71234, Control_c, 5, 7, 94
7, 71264, Control_c, 5, 7, 94
7, 71294, Control_c, 5, 7, 93
7, 71324, Control_c, 5, 7, 93
7, 71354, Control_c, 5, 7, 93
7, 71384, Control_c, 5, 7, 93
7, 71414, Control_c, 5, 7, 92
7, 71444, Control_c, 5, 7, 92
7, 71474, Control_c, 5, 7, 92
7, 71504, Control_c, 5, 7, 92
7, 71534, Control_c, 5, 7, 91
7, 71564, Control_c, 5, 7, 91
7, 71594, Control_c, 5, 7, 91
7, 71624, Control_c, 5, 7, 91
7, 71654, Control_c, 5, 7, 90
7, 71684, Control_c, 5, 7, 90
7, 71714, Control_c, 5, 7, 90
7, 71744, Control_c, 5, 7, 90
7, 71774, Control_c, 5, 7, 89
7, 71804, Control_c, 5, 7, 89
7, 71834, Control_c, 5, 7, 89
7, 71864, Control_c, 5, 7, 89
7, 71894, Control_c, 5, 7, 88
7, 71924, Control_c, 5, 7, 88
7, 71954, Control_c, 5, 7, 88
7, 71984, Control_c, 5, 7, 88
7, 72014, Control_c, 5, 7, 88
7, 72044, Control_c, 5, 7, 87
7, 72074, Control_c, 5, 7, 87
7, 72104, Control_c, 5, 7, 87
7, 72134, Control_c, 5, 7, 87
7, 72164, Control_c, 5, 7, 86
7, 72194, Control_c, 5, 7, 86
7, 72224, Control_c, 5, 7, 86
7, 72254, Control_c, 5, 7, 86
7, 72284, Control_c, 5, 7, 85
7, 72314, Control_c, 5, 7, 85
7, 72344, Control_c, 5, 7, 85
7, 72374, Control_c, 5, 7, 85
7, 72404, Control_c, 5, 7, 84
7, 72434, Control_c, 5, 7, 84
7, 72464, Control_c, 5, 7, 84
7, 72494, Control_c, 5, 7, 84
7, 72524, Control_c, 5, 7, 83
7, 72554, Control_c, 5, 7, 83
7, 72584, Control_c, 5, 7, 83
7, 72614, Control_c, 5, 7, 83
7, 72644, Control_c, 5, 7, 82
7, 72674, Control_c, 5, 7, 82
7, 72704, Control_c, 5, 7, 82
7, 72734, Control_c, 5, 7, 82
7, 72764, Control_c, 5, 7, 81
7, 72794, Control_c, 5, 7, 81
7, 72824, Control_c, 5, 7, 81
7, 72854, Control_c, 5, 7, 81
7, 72884, Control_c, 5, 7, 80
7, 72914, Control_c, 5, 7, 80
7, 72944, Control_c, 5, 7, 80
7, 72960, Note_on_c, 5, 64, 75
7, 72974, Control_c, 5, 7, 80
7, 73004, Control_c, 5, 7, 79
7, 73034, Control_c, 5, 7, 79
7, 73064, Control_c, 5, 7, 79
7, 73094, Control_c, 5, 7, 79
7, 73124, Control_c, 5, 7, 78
7, 73154, Control_c, 5, 7, 78
7, 73184, Control_c, 5, 7, 78
7, 73195, Note_on_c, 5, 64, 0
7, 73200, Note_on_c, 5, 65, 81
7, 73214, Control_c, 5, 7, 78
7, 73244, Control_c, 5, 7, 78
7, 73274, Control_c, 5, 7, 77
7, 73304, Control_c, 5, 7, 77
7, 73334, Control_c, 5, 7, 77
7, 73364, Control_c, 5, 7, 77
7, 73394, Control_c, 5, 7, 76
7, 73424, Control_c, 5, 7, 76
7, 73435, Note_on_c, 5, 65, 0
7, 73440, Note_on_c, 5, 67, 84
7, 73454, Control_c, 5, 7, 76
7, 73484, Control_c, 5, 7, 76
7, 73514, Control_c, 5, 7, 75
7, 73544, Control_c, 5, 7, 75
7, 73574, Control_c, 5, 7, 75
7, 73604, Control_c, 5, 7, 75
7, 73634, Control_c, 5, 7, 74
7, 73664, Control_c, 5, 7, 74
7, 73675, Note_on_c, 5, 67, 0
7, 73680, Note_on_c, 5, 71, 81
7, 73694, Control_c, 5, 7, 74
7, 73724, Control_c, 5, 7, 74
7, 73754, Control_c, 5, 7, 73
7, 73784, Control_c, 5, 7, 73
7, 73814, Control_c, 5, 7, 73
7, 73844, Control_c, 5, 7, 73
7, 73874, Control_c, 5, 7, 72
7, 73904, Control_c, 5, 7, 72
7, 73934, Control_c, 5, 7, 72
7, 73964, Control_c, 5, 7, 72
7, 73994, Control_c, 5, 7, 71
7, 74024, Control_c, 5, 7, 71
7, 74054, Control_c, 5, 7, 71
7, 74084, Control_c, 5, 7, 71
7, 74114, Control_c, 5, 7, 70
7, 74144, Control_c, 5, 7, 70
7, 74155, Note_on_c, 5, 71, 0
7, 74160, Note_on_c, 5, 69, 78
7, 74174, Control_c, 5, 7, 70
7, 74204, Control_c, 5, 7, 70
7, 74234, Control_c, 5, 7, 69
7, 74264, Control_c, 5, 7, 69
7, 74294, Control_c, 5, 7, 69
7, 74324, Control_c, 5, 7, 69
7, 74354, Control_c, 5, 7, 69
7, 74384, Control_c, 5, 7, 68
7, 74414, Control_c, 5, 7, 68
7, 74444, Control_c, 5, 7, 68
7, 74474, Control_c, 5, 7, 68
7, 74504, Control_c, 5, 7, 67
7, 74534, Control_c, 5, 7, 67
7, 74564, Control_c, 5, 7, 67
7, 74594, Control_c, 5, 7, 67
7, 74624, Control_c, 5, 7, 66
7, 74635, Note_on_c, 5, 69, 0
7, 74640, Note_on_c, 5, 65, 69
7, 74654, Control_c, 5, 7, 66
7, 74684, Control_c, 5, 7, 66
7, 74714, Control_c, 5, 7, 66
7, 74744, Control_c, 5, 7, 65
7, 74774, Control_c, 5, 7, 65
7, 74804, Control_c, 5, 7, 65
7, 74834, Control_c, 5, 7, 65
7, 74864, Control_c, 5, 7, 64
7, 74875, Note_on_c, 5, 65, 0
7, 74880, Note_on_c, 5, 69, 78
7, 74894, Control_c, 5, 7, 64
7, 74924, Control_c, 5, 7, 64
7, 74954, Control_c, 5, 7, 64
7, 74984, Control_c, 5, 7, 63
7, 75014, Control_c, 5, 7, 63
7, 75044, Control_c, 5, 7, 63
7, 75074, Control_c, 5, 7, 63
7, 75104, Control_c, 5, 7, 62
7, 75115, Note_on_c, 5, 69, 0
7, 75120, Note_on_c, 5, 67, 75
7, 75134, Control_c, 5, 7, 62
7, 75164, Control_c, 5, 7, 62
7, 75194, Control_c, 5, 7, 62
7, 75224, Control_c, 5, 7, 61
7, 75254, Control_c, 5, 7, 61
7, 75284, Control_c, 5, 7, 61
7, 75314, Control_c, 5, 7, 61
7, 75344, Control_c, 5, 7, 60
7, 75355, Note_on_c, 5, 67, 0
7, 75360, Note_on_c, 5, 67, 75
7, 75374, Control_c, 5, 7, 60
7, 75404, Control_c, 5, 7, 60
7, 75434, Control_c, 5, 7, 60
7, 75464, Control_c, 5, 7, 59
7, 75494, Control_c, 5, 7, 59
7, 75524, Control_c, 5, 7, 59
7, 75554, Control_c, 5, 7, 59
7, 75584, Control_c, 5, 7, 59
7, 75614, Control_c, 5, 7, 58
7, 75644, Control_c, 5, 7, 58
7, 75674, Control_c, 5, 7, 58
7, 75704, Control_c, 5, 7, 58
7, 75734, Control_c, 5, 7, 57
7, 75764, Control_c, 5, 7, 57
7, 75794, Control_c, 5, 7, 57
7, 75824, Control_c, 5, 7, 57
7, 75854, Control_c, 5, 7, 56
7, 75884, Control_c, 5, 7, 56
7, 75914, Control_c, 5, 7, 56
7, 75944, Control_c, 5, 7, 56
7, 75974, Control_c, 5, 7, 55
7, 76004, Control_c, 5, 7, 55
7, 76034, Control_c, 5, 7, 55
7, 76064, Control_c, 5, 7, 55
7, 76094, Control_c, 5, 7, 54
7, 76124, Control_c, 5, 7, 54
7, 76154, Control_c, 5, 7, 54
7, 76184, Control_c, 5, 7, 54
7, 76214, Control_c, 5, 7, 53
7, 76244, Control_c, 5, 7, 53
7, 76274, Control_c, 5, 7, 53
7, 76304, Control_c, 5, 7, 53
7, 76334, Control_c, 5, 7, 52
7, 76364, Control_c, 5, 7, 52
7, 76394, Control_c, 5, 7, 52
7, 76424, Control_c, 5, 7, 52
7, 76454, Control_c, 5, 7, 51
7, 76484, Control_c, 5, 7, 51
7, 76514, Control_c, 5, 7, 51
7, 76544, Control_c, 5, 7, 51
7, 76574, Control_c, 5, 7, 50
7, 76604, Control_c, 5, 7, 50
7, 76634, Control_c, 5, 7, 50
7, 76664, Control_c, 5, 7, 50
7, 76694, Control_c, 5, 7, 49
7, 76724, Control_c, 5, 7, 49
7, 76754, Control_c, 5, 7, 49
7, 76771, Note_on_c, 5, 67, 0
7, 76784, Control_c, 5, 7, 49
7, 76800, Control_c, 5, 7, 48
7, 76830, Control_c, 5, 7, 48
7, 76860, Control_c, 5, 7, 47
7, 76890, Control_c, 5, 7, 46
7, 76920, Control_c, 5, 7, 46
7, 76950, Control_c, 5, 7, 45
7, 76980, Control_c, 5, 7, 44
7, 77010, Control_c, 5, 7, 44
7, 77040, Control_c, 5, 7, 43
7, 77070, Control_c, 5, 7, 42
7, 77100, Control_c, 5, 7, 41
7, 77130, Control_c, 5, 7, 41
7, 77160, Control_c, 5, 7, 40
7, 77190, Control_c, 5, 7, 39
7, 77220, Control_c, 5, 7, 39
7, 77250, Control_c, 5, 7, 38
7, 77280, Control_c, 5, 7, 37
7, 77310, Control_c, 5, 7, 36
7, 77340, Control_c, 5, 7, 36
7, 77370, Control_c, 5, 7, 35
7, 77400, Control_c, 5, 7, 34
7, 77430, Control_c, 5, 7, 34
7, 77460, Control_c, 5, 7, 33
7, 77490, Control_c, 5, 7, 32
7, 77520, Control_c, 5, 7, 31
7, 77550, Control_c, 5, 7, 31
7, 77580, Control_c, 5, 7, 30
7, 77610, Control_c, 5, 7, 29
7, 77640, Control_c, 5, 7, 29
7, 77670, Control_c, 5, 7, 28
7, 77700, Control_c, 5, 7, 27
7, 77730, Control_c, 5, 7, 26
7, 77760, Control_c, 5, 7, 26
7, 77790, Control_c, 5, 7, 25
7, 77820, Control_c, 5, 7, 24
7, 77850, Control_c, 5, 7, 24
7, 77880, Control_c, 5, 7, 23
7, 77910, Control_c, 5, 7, 22
7, 77940, Control_c, 5, 7, 21
7, 77970, Control_c, 5, 7, 21
7, 78000, Control_c, 5, 7, 20
7, 78030, Control_c, 5, 7, 19
7, 78060, Control_c, 5, 7, 19
7, 78090, Control_c, 5, 7, 18
7, 78120, Control_c, 5, 7, 17
7, 78150, Control_c, 5, 7, 16
7, 78180, Control_c, 5, 7, 16
7, 78210, Control_c, 5, 7, 15
7, 78240, Control_c, 5, 7, 14
7, 78270, Control_c, 5, 7, 14
7, 78300, Control_c, 5, 7, 13
7, 78330, Control_c, 5, 7, 12
7, 78360, Control_c, 5, 7, 11
7, 78390, Control_c, 5, 7, 11
7, 78420, Control_c, 5, 7, 10
7, 78450, Control_c, 5, 7, 9
7, 78480, Control_c, 5, 7, 9
7, 78510, Control_c, 5, 7, 8
7, 78540, Control_c, 5, 7, 7
7, 78570, Control_c, 5, 7, 6
7, 78600, Control_c, 5, 7, 6
7, 78630, Control_c, 5, 7, 5
7, 78660, Control_c, 5, 7, 4
7, 78690, Control_c, 5, 7, 4
7, 78690, End_track
8, 0, Start_track
8, 0, Title_t, ""
8, 0, Control_c, 6, 0, 0
8, 0, Control_c, 6, 32, 0
8, 0, Program_c, 6, 9
8, 0, Pitch_bend_c, 6, 8192
8, 0, Control_c, 6, 1, 0
8, 0, Control_c, 6, 7, 127
8, 0, Control_c, 6, 10, 105
8, 0, Control_c, 6, 11, 78
8, 0, Control_c, 6, 91, 70
8, 0, Control_c, 6, 93, 10
8, 0, Control_c, 6, 99, 1
8, 0, Control_c, 6, 98, 32
8, 0, Control_c, 6, 6, 70
8, 11520, Note_on_c, 6, 81, 100
8, 11755, Note_on_c, 6, 81, 0
8, 11760, Note_on_c, 6, 83, 100
8, 11995, Note_on_c, 6, 83, 0
8, 12000, Note_on_c, 6, 84, 100
8, 12235, Note_on_c, 6, 84, 0
8, 12240, Note_on_c, 6, 83, 100
8, 13421, Note_on_c, 6, 83, 0
8, 15360, Note_on_c, 6, 81, 100
8, 15595, Note_on_c, 6, 81, 0
8, 15600, Note_on_c, 6, 83, 100
8, 15835, Note_on_c, 6, 83, 0
8, 15840, Note_on_c, 6, 84, 100
8, 16075, Note_on_c, 6, 84, 0
8, 16080, Note_on_c, 6, 83, 100
8, 16555, Note_on_c, 6, 83, 0
8, 16560, Note_on_c, 6, 79, 100
8, 17035, Note_on_c, 6, 79, 0
8, 17040, Note_on_c, 6, 76, 100
8, 17275, Note_on_c, 6, 76, 0
8, 17280, Note_on_c, 6, 77, 100
8, 17750, Note_on_c, 6, 77, 0
8, 17760, Note_on_c, 6, 74, 100
8, 19171, Note_on_c, 6, 74, 0
8, 32640, Note_on_c, 6, 81, 98
8, 32875, Note_on_c, 6, 81, 0
8, 32880, Note_on_c, 6, 83, 103
8, 33115, Note_on_c, 6, 83, 0
8, 33120, Note_on_c, 6, 84, 95
8, 33355, Note_on_c, 6, 84, 0
8, 33360, Note_on_c, 6, 86, 105
8, 33835, Note_on_c, 6, 86, 0
8, 33840, Note_on_c, 6, 84, 93
8, 34315, Note_on_c, 6, 84, 0
8, 34320, Note_on_c, 6, 86, 97
8, 34795, Note_on_c, 6, 86, 0
8, 34800, Note_on_c, 6, 88, 92
8, 35035, Note_on_c, 6, 88, 0
8, 35040, Note_on_c, 6, 88, 94
8, 36451, Note_on_c, 6, 88, 0
8, 38400, Note_on_c, 6, 84, 95
8, 38635, Note_on_c, 6, 84, 0
8, 38640, Note_on_c, 6, 86, 100
8, 38875, Note_on_c, 6, 86, 0
8, 38880, Note_on_c, 6, 88, 89
8, 39115, Note_on_c, 6, 88, 0
8, 39120, Note_on_c, 6, 89, 96
8, 39595, Note_on_c, 6, 89, 0
8, 39600, Note_on_c, 6, 88, 88
8, 40075, Note_on_c, 6, 88, 0
8, 40080, Note_on_c, 6, 89, 94
8, 40555, Note_on_c, 6, 89, 0
8, 40560, Note_on_c, 6, 91, 81
8, 40795, Note_on_c, 6, 91, 0
8, 40800, Note_on_c, 6, 91, 92
8, 42211, Note_on_c, 6, 91, 0
8, 42211, End_track
9, 0, Start_track
9, 0, Title_t, ""
9, 0, Control_c, 7, 0, 0
9, 0, Control_c, 7, 32, 0
9, 0, Program_c, 7, 48
9, 0, Pitch_bend_c, 7, 8192
9, 0, Control_c, 7, 1, 0
9, 0, Control_c, 7, 7, 127
9, 0, Control_c, 7, 10, 45
9, 0, Control_c, 7, 11, 85
9, 0, Control_c, 7, 91, 90
9, 0, Control_c, 7, 93, 10
9, 0, Control_c, 7, 99, 1
9, 0, Control_c, 7, 98, 32
9, 0, Control_c, 7, 6, 50
9, 9600, Control_c, 7, 99, 1
9, 9600, Control_c, 7, 98, 99
9, 9600, Control_c, 7, 6, 67
9, 11520, Note_on_c, 7, 62, 82
9, 11520, Note_on_c, 7, 69, 90
9, 12480, Note_on_c, 7, 60, 75
9, 12480, Note_on_c, 7, 67, 91
9, 12499, Note_on_c, 7, 62, 0
9, 12499, Note_on_c, 7, 69, 0
9, 13421, Note_on_c, 7, 60, 0
9, 13421, Note_on_c, 7, 67, 0
9, 13440, Note_on_c, 7, 65, 94
9, 14851, Note_on_c, 7, 65, 0
9, 14880, Note_on_c, 7, 64, 88
9, 15350, Note_on_c, 7, 64, 0
9, 15360, Note_on_c, 7, 65, 91
9, 15830, Note_on_c, 7, 65, 0
9, 15840, Note_on_c, 7, 62, 90
9, 18240, Note_on_c, 7, 67, 53
9, 18240, Note_on_c, 7, 71, 69
9, 21082, Note_on_c, 7, 62, 0
9, 21082, Note_on_c, 7, 67, 0
9, 21082, Note_on_c, 7, 71, 0
9, 41760, Control_c, 7, 10, 90
9, 42104, Control_c, 7, 11, 22
9, 42134, Control_c, 7, 11, 23
9, 42141, Control_c, 7, 11, 3
9, 42171, Control_c, 7, 11, 3
9, 42201, Control_c, 7, 11, 3
9, 42231, Control_c, 7, 11, 4
9, 42240, Note_on_c, 7, 79, 100
9, 42261, Control_c, 7, 11, 4
9, 42291, Control_c, 7, 11, 5
9, 42321, Control_c, 7, 11, 5
9, 42351, Control_c, 7, 11, 5
9, 42381, Control_c, 7, 11, 6
9, 42411, Control_c, 7, 11, 6
9, 42441, Control_c, 7, 11, 7
9, 42471, Control_c, 7, 11, 7
9, 42501, Control_c, 7, 11, 7
9, 42531, Control_c, 7, 11, 8
9, 42561, Control_c, 7, 11, 8
9, 42591, Control_c, 7, 11, 9
9, 42621, Control_c, 7, 11, 9
9, 42651, Control_c, 7, 11, 9
9, 42681, Control_c, 7, 11, 10
9, 42711, Control_c, 7, 11, 10
9, 42732, Control_c, 7, 11, 14
9, 42762, Control_c, 7, 11, 17
9, 42792, Control_c, 7, 11, 21
9, 42822, Control_c, 7, 11, 25
9, 42852, Control_c, 7, 11, 28
9, 42882, Control_c, 7, 11, 32
9, 42912, Control_c, 7, 11, 36
9, 42942, Control_c, 7, 11, 39
9, 42972, Control_c, 7, 11, 43
9, 43002, Control_c, 7, 11, 47
9, 43032, Control_c, 7, 11, 51
9, 43062, Control_c, 7, 11, 54
9, 43092, Control_c, 7, 11, 58
9, 43122, Control_c, 7, 11, 62
9, 43152, Control_c, 7, 11, 65
9, 43182, Control_c, 7, 11, 69
9, 43212, Control_c, 7, 11, 73
9, 43242, Control_c, 7, 11, 76
9, 43261, Control_c, 7, 11, 80
9, 43291, Control_c, 7, 11, 83
9, 46080, Control_c, 7, 11, 82
9, 46110, Control_c, 7, 11, 81
9, 46140, Control_c, 7, 11, 80
9, 46170, Control_c, 7, 11, 79
9, 46200, Control_c, 7, 11, 78
9, 46230, Control_c, 7, 11, 77
9, 46260, Control_c, 7, 11, 76
9, 46290, Control_c, 7, 11, 75
9, 46320, Control_c, 7, 11, 73
9, 46350, Control_c, 7, 11, 72
9, 46380, Control_c, 7, 11, 71
9, 46410, Control_c, 7, 11, 70
9, 46440, Control_c, 7, 11, 69
9, 46470, Control_c, 7, 11, 68
9, 46500, Control_c, 7, 11, 67
9, 46530, Control_c, 7, 11, 65
9, 46560, Control_c, 7, 11, 64
9, 46590, Control_c, 7, 11, 63
9, 46620, Control_c, 7, 11, 62
9, 46650, Control_c, 7, 11, 61
9, 46680, Control_c, 7, 11, 60
9, 46710, Control_c, 7, 11, 59
9, 46740, Control_c, 7, 11, 57
9, 46770, Control_c, 7, 11, 56
9, 46800, Control_c, 7, 11, 55
9, 46830, Control_c, 7, 11, 54
9, 46860, Control_c, 7, 11, 53
9, 46890, Control_c, 7, 11, 52
9, 46920, Control_c, 7, 11, 51
9, 46950, Control_c, 7, 11, 49
9, 46980, Control_c, 7, 11, 48
9, 47010, Control_c, 7, 11, 47
9, 47040, Control_c, 7, 11, 46
9, 47070, Control_c, 7, 11, 45
9, 47100, Control_c, 7, 11, 44
9, 47130, Control_c, 7, 11, 43
9, 47160, Control_c, 7, 11, 41
9, 47190, Control_c, 7, 11, 40
9, 47220, Control_c, 7, 11, 39
9, 47250, Control_c, 7, 11, 38
9, 47280, Control_c, 7, 11, 37
9, 47310, Control_c, 7, 11, 36
9, 47340, Control_c, 7, 11, 35
9, 47370, Control_c, 7, 11, 33
9, 47400, Control_c, 7, 11, 32
9, 47430, Control_c, 7, 11, 31
9, 47460, Control_c, 7, 11, 30
9, 47490, Control_c, 7, 11, 29
9, 47520, Control_c, 7, 11, 28
9, 47550, Control_c, 7, 11, 27
9, 47580, Control_c, 7, 11, 25
9, 47610, Control_c, 7, 11, 24
9, 47640, Control_c, 7, 11, 23
9, 47670, Control_c, 7, 11, 22
9, 47700, Control_c, 7, 11, 21
9, 47730, Control_c, 7, 11, 20
9, 47760, Control_c, 7, 11, 19
9, 47790, Control_c, 7, 11, 18
9, 47820, Control_c, 7, 11, 16
9, 47850, Control_c, 7, 11, 15
9, 47880, Control_c, 7, 11, 14
9, 47910, Control_c, 7, 11, 13
9, 47940, Control_c, 7, 11, 12
9, 47962, Note_on_c, 7, 79, 0
9, 47970, Control_c, 7, 11, 11
9, 48000, Control_c, 7, 11, 95
9, 48030, Control_c, 7, 11, 85
9, 49950, Control_c, 7, 99, 1
9, 49950, Control_c, 7, 98, 99
9, 49950, Control_c, 7, 6, 76
9, 51840, Note_on_c, 7, 67, 102
9, 51840, Note_on_c, 7, 79, 102
9, 52310, Note_on_c, 7, 67, 0
9, 52310, Note_on_c, 7, 79, 0
9, 52320, Note_on_c, 7, 65, 102
9, 52320, Note_on_c, 7, 77, 102
9, 52790, Note_on_c, 7, 65, 0
9, 52790, Note_on_c, 7, 77, 0
9, 52800, Note_on_c, 7, 60, 102
9, 52800, Note_on_c, 7, 72, 102
9, 53741, Note_on_c, 7, 60, 0
9, 53741, Note_on_c, 7, 72, 0
9, 53760, Note_on_c, 7, 67, 102
9, 53760, Note_on_c, 7, 79, 102
9, 54230, Note_on_c, 7, 67, 0
9, 54230, Note_on_c, 7, 79, 0
9, 54240, Note_on_c, 7, 65, 102
9, 54240, Note_on_c, 7, 77, 102
9, 54475, Note_on_c, 7, 65, 0
9, 54475, Note_on_c, 7, 77, 0
9, 54480, Note_on_c, 7, 60, 102
9, 54480, Note_on_c, 7, 72, 102
9, 54715, Note_on_c, 7, 60, 0
9, 54715, Note_on_c, 7, 72, 0
9, 54720, Note_on_c, 7, 60, 102
9, 54720, Note_on_c, 7, 72, 102
9, 54955, Note_on_c, 7, 60, 0
9, 54955, Note_on_c, 7, 72, 0
9, 54960, Note_on_c, 7, 63, 102
9, 54960, Note_on_c, 7, 75, 102
9, 55195, Note_on_c, 7, 63, 0
9, 55195, Note_on_c, 7, 75, 0
9, 55200, Note_on_c, 7, 63, 102
9, 55200, Note_on_c, 7, 75, 102
9, 55435, Note_on_c, 7, 63, 0
9, 55435, Note_on_c, 7, 75, 0
9, 55440, Note_on_c, 7, 62, 102
9, 55440, Note_on_c, 7, 74, 102
9, 56621, Note_on_c, 7, 62, 0
9, 56621, Note_on_c, 7, 74, 0
9, 56640, Note_on_c, 7, 58, 102
9, 56640, Note_on_c, 7, 70, 102
9, 59482, Note_on_c, 7, 58, 0
9, 59482, Note_on_c, 7, 70, 0
9, 59520, Note_on_c, 7, 67, 102
9, 59520, Note_on_c, 7, 79, 102
9, 59990, Note_on_c, 7, 67, 0
9, 59990, Note_on_c, 7, 79, 0
9, 60000, Note_on_c, 7, 65, 102
9, 60000, Note_on_c, 7, 77, 102
9, 60470, Note_on_c, 7, 65, 0
9, 60470, Note_on_c, 7, 77, 0
9, 60480, Note_on_c, 7, 60, 102
9, 60480, Note_on_c, 7, 72, 102
9, 61421, Note_on_c, 7, 60, 0
9, 61421, Note_on_c, 7, 72, 0
9, 61440, Note_on_c, 7, 67, 102
9, 61440, Note_on_c, 7, 79, 102
9, 61675, Note_on_c, 7, 67, 0
9, 61675, Note_on_c, 7, 79, 0
9, 61680, Note_on_c, 7, 65, 102
9, 61680, Note_on_c, 7, 77, 102
9, 61915, Note_on_c, 7, 65, 0
9, 61915, Note_on_c, 7, 77, 0
9, 61920, Note_on_c, 7, 67, 102
9, 61920, Note_on_c, 7, 79, 102
9, 62155, Note_on_c, 7, 67, 0
9, 62155, Note_on_c, 7, 79, 0
9, 62160, Note_on_c, 7, 68, 102
9, 62160, Note_on_c, 7, 80, 102
9, 62635, Note_on_c, 7, 68, 0
9, 62635, Note_on_c, 7, 80, 0
9, 62640, Note_on_c, 7, 70, 102
9, 62640, Note_on_c, 7, 82, 102
9, 63115, Note_on_c, 7, 70, 0
9, 63115, Note_on_c, 7, 82, 0
9, 63120, Note_on_c, 7, 72, 102
9, 63120, Note_on_c, 7, 84, 102
9, 63355, Note_on_c, 7, 72, 0
9, 63355, Note_on_c, 7, 84, 0
9, 63360, Note_on_c, 7, 71, 102
9, 63360, Note_on_c, 7, 83, 102
9, 65242, Note_on_c, 7, 71, 0
9, 65242, Note_on_c, 7, 83, 0
9, 65280, Note_on_c, 7, 67, 102
9, 65280, Note_on_c, 7, 79, 102
9, 67162, Note_on_c, 7, 67, 0
9, 67162, Note_on_c, 7, 79, 0
9, 67162, End_track
10, 0, Start_track
10, 0, Title_t, ""
10, 0, Control_c, 8, 0, 0
10, 0, Control_c, 8, 32, 0
10, 0, Program_c, 8, 48
10, 0, Pitch_bend_c, 8, 8192
10, 0, Control_c, 8, 1, 0
10, 0, Control_c, 8, 7, 127
10, 0, Control_c, 8, 10, 30
10, 0, Control_c, 8, 11, 85
10, 0, Control_c, 8, 91, 90
10, 0, Control_c, 8, 93, 10
10, 0, Control_c, 8, 99, 1
10, 0, Control_c, 8, 98, 32
10, 0, Control_c, 8, 6, 50
10, 11520, Control_c, 8, 99, 1
10, 11520, Control_c, 8, 98, 99
10, 11520, Control_c, 8, 6, 67
10, 13440, Note_on_c, 8, 57, 93
10, 14851, Note_on_c, 8, 57, 0
10, 14880, Note_on_c, 8, 55, 86
10, 15350, Note_on_c, 8, 55, 0
10, 15360, Note_on_c, 8, 57, 91
10, 15830, Note_on_c, 8, 57, 0
10, 15840, Note_on_c, 8, 53, 85
10, 21082, Note_on_c, 8, 53, 0
10, 21082, End_track
11, 0, Start_track
11, 0, Title_t, ""
11, 0, Control_c, 9, 0, 127
11, 0, Control_c, 9, 32, 0
11, 0, Program_c, 9, 0
11, 0, Control_c, 9, 7, 127
11, 0, Control_c, 9, 10, 64
11, 0, Control_c, 9, 11, 110
11, 0, Control_c, 9, 91, 40
11, 0, Control_c, 9, 93, 10
11, 0, Control_c, 9, 99, 24
11, 0, Control_c, 9, 98, 81
11, 0, Control_c, 9, 6, 66
11, 0, Control_c, 9, 99, 24
11, 0, Control_c, 9, 98, 80
11, 0, Control_c, 9, 6, 65
11, 0, Control_c, 9, 99, 28
11, 0, Control_c, 9, 98, 81
11, 0, Control_c, 9, 6, 110
11, 0, Control_c, 9, 99, 28
11, 0, Control_c, 9, 98, 80
11, 0, Control_c, 9, 6, 110
11, 0, Control_c, 9, 99, 1
11, 0, Control_c, 9, 98, 32
11, 0, Control_c, 9, 6, 62
11, 1920, Note_on_c, 9, 80, 62
11, 1930, Note_on_c, 9, 80, 0
11, 2160, Note_on_c, 9, 80, 62
11, 2170, Note_on_c, 9, 80, 0
11, 2400, Note_on_c, 9, 81, 87
11, 2410, Note_on_c, 9, 81, 0
11, 2640, Note_on_c, 9, 80, 62
11, 2650, Note_on_c, 9, 80, 0
11, 3120, Note_on_c, 9, 80, 62
11, 3130, Note_on_c, 9, 80, 0
11, 3360, Note_on_c, 9, 81, 87
11, 3370, Note_on_c, 9, 81, 0
11, 3840, Note_on_c, 9, 80, 62
11, 3850, Note_on_c, 9, 80, 0
11, 4080, Note_on_c, 9, 80, 62
11, 4090, Note_on_c, 9, 80, 0
11, 4320, Note_on_c, 9, 81, 87
11, 4330, Note_on_c, 9, 81, 0
11, 4560, Note_on_c, 9, 80, 62
11, 4570, Note_on_c, 9, 80, 0
11, 5040, Note_on_c, 9, 80, 62
11, 5050, Note_on_c, 9, 80, 0
11, 5280, Note_on_c, 9, 81, 87
11, 5290, Note_on_c, 9, 81, 0
11, 5760, Note_on_c, 9, 80, 62
11, 5770, Note_on_c, 9, 80, 0
11, 6000, Note_on_c, 9, 80, 62
11, 6010, Note_on_c, 9, 80, 0
11, 6240, Note_on_c, 9, 81, 87
11, 6250, Note_on_c, 9, 81, 0
11, 6480, Note_on_c, 9, 80, 62
11, 6490, Note_on_c, 9, 80, 0
11, 6960, Note_on_c, 9, 80, 62
11, 6970, Note_on_c, 9, 80, 0
11, 7200, Note_on_c, 9, 81, 87
11, 7210, Note_on_c, 9, 81, 0
11, 7680, Note_on_c, 9, 80, 62
11, 7690, Note_on_c, 9, 80, 0
11, 7920, Note_on_c, 9, 80, 62
11, 7930, Note_on_c, 9, 80, 0
11, 8160, Note_on_c, 9, 81, 87
11, 8170, Note_on_c, 9, 81, 0
11, 8400, Note_on_c, 9, 80, 62
11, 8410, Note_on_c, 9, 80, 0
11, 8880, Note_on_c, 9, 80, 62
11, 8890, Note_on_c, 9, 80, 0
11, 9120, Note_on_c, 9, 81, 87
11, 9130, Note_on_c, 9, 81, 0
11, 9600, Note_on_c, 9, 80, 62
11, 9610, Note_on_c, 9, 80, 0
11, 9840, Note_on_c, 9, 80, 62
11, 9850, Note_on_c, 9, 80, 0
11, 10080, Note_on_c, 9, 81, 87
11, 10090, Note_on_c, 9, 81, 0
11, 10320, Note_on_c, 9, 80, 62
11, 10330, Note_on_c, 9, 80, 0
11, 10800, Note_on_c, 9, 80, 62
11, 10810, Note_on_c, 9, 80, 0
11, 11040, Note_on_c, 9, 81, 87
11, 11050, Note_on_c, 9, 81, 0
11, 11520, Note_on_c, 9, 80, 62
11, 11530, Note_on_c, 9, 80, 0
11, 11760, Note_on_c, 9, 80, 62
11, 11770, Note_on_c, 9, 80, 0
11, 12000, Note_on_c, 9, 81, 87
11, 12010, Note_on_c, 9, 81, 0
11, 12240, Note_on_c, 9, 80, 62
11, 12250, Note_on_c, 9, 80, 0
11, 12720, Note_on_c, 9, 80, 62
11, 12730, Note_on_c, 9, 80, 0
11, 12960, Note_on_c, 9, 81, 87
11, 12970, Note_on_c, 9, 81, 0
11, 13440, Note_on_c, 9, 80, 62
11, 13450, Note_on_c, 9, 80, 0
11, 13680, Note_on_c, 9, 80, 62
11, 13690, Note_on_c, 9, 80, 0
11, 13920, Note_on_c, 9, 81, 87
11, 13930, Note_on_c, 9, 81, 0
11, 14160, Note_on_c, 9, 80, 62
11, 14170, Note_on_c, 9, 80, 0
11, 14640, Note_on_c, 9, 80, 62
11, 14650, Note_on_c, 9, 80, 0
11, 14880, Note_on_c, 9, 81, 87
11, 14890, Note_on_c, 9, 81, 0
11, 15360, Note_on_c, 9, 80, 62
11, 15370, Note_on_c, 9, 80, 0
11, 15600, Note_on_c, 9, 80, 62
11, 15610, Note_on_c, 9, 80, 0
11, 15840, Note_on_c, 9, 81, 87
11, 15850, Note_on_c, 9, 81, 0
11, 16080, Note_on_c, 9, 80, 62
11, 16090, Note_on_c, 9, 80, 0
11, 16560, Note_on_c, 9, 80, 62
11, 16570, Note_on_c, 9, 80, 0
11, 16800, Note_on_c, 9, 81, 87
11, 16810, Note_on_c, 9, 81, 0
11, 17280, Note_on_c, 9, 80, 62
11, 17290, Note_on_c, 9, 80, 0
11, 17520, Note_on_c, 9, 80, 62
11, 17530, Note_on_c, 9, 80, 0
11, 17760, Note_on_c, 9, 81, 87
11, 17770, Note_on_c, 9, 81, 0
11, 18000, Note_on_c, 9, 80, 62
11, 18010, Note_on_c, 9, 80, 0
11, 18480, Note_on_c, 9, 80, 62
11, 18490, Note_on_c, 9, 80, 0
11, 18720, Note_on_c, 9, 81, 87
11, 18730, Note_on_c, 9, 81, 0
11, 19200, Note_on_c, 9, 80, 62
11, 19210, Note_on_c, 9, 80, 0
11, 19440, Note_on_c, 9, 80, 62
11, 19450, Note_on_c, 9, 80, 0
11, 19680, Note_on_c, 9, 81, 87
11, 19690, Note_on_c, 9, 81, 0
11, 19920, Note_on_c, 9, 80, 62
11, 19930, Note_on_c, 9, 80, 0
11, 20400, Note_on_c, 9, 80, 62
11, 20410, Note_on_c, 9, 80, 0
11, 20640, Note_on_c, 9, 81, 87
11, 20650, Note_on_c, 9, 81, 0
11, 49920, Control_c, 9, 99, 24
11, 49920, Control_c, 9, 98, 31
11, 49920, Control_c, 9, 6, 65
11, 50520, Control_c, 9, 99, 24
11, 50520, Control_c, 9, 98, 76
11, 50520, Control_c, 9, 6, 63
11, 50520, Control_c, 9, 99, 28
11, 50520, Control_c, 9, 98, 32
11, 50520, Control_c, 9, 6, 100
11, 50760, Control_c, 9, 99, 24
11, 50760, Control_c, 9, 98, 32
11, 50760, Control_c, 9, 6, 49
11, 50760, Control_c, 9, 99, 24
11, 50760, Control_c, 9, 98, 82
11, 50760, Control_c, 9, 6, 66
11, 50880, Control_c, 9, 99, 28
11, 50880, Control_c, 9, 98, 82
11, 50880, Control_c, 9, 6, 20
11, 51000, Note_on_c, 9, 42, 79
11, 51010, Note_on_c, 9, 42, 0
11, 51120, Note_on_c, 9, 46, 92
11, 51130, Note_on_c, 9, 46, 0
11, 51360, Note_on_c, 9, 31, 91
11, 51370, Note_on_c, 9, 31, 0
11, 51600, Note_on_c, 9, 31, 77
11, 51610, Note_on_c, 9, 31, 0
11, 51720, Note_on_c, 9, 31, 81
11, 51730, Note_on_c, 9, 31, 0
11, 51840, Note_on_c, 9, 76, 70
11, 51840, Note_on_c, 9, 82, 100
11, 51840, Note_on_c, 9, 33, 83
11, 51850, Note_on_c, 9, 76, 0
11, 51850, Note_on_c, 9, 82, 0
11, 51850, Note_on_c, 9, 33, 0
11, 52080, Note_on_c, 9, 82, 100
11, 52090, Note_on_c, 9, 82, 0
11, 52320, Note_on_c, 9, 82, 100
11, 52330, Note_on_c, 9, 82, 0
11, 52560, Note_on_c, 9, 82, 100
11, 52570, Note_on_c, 9, 82, 0
11, 52800, Note_on_c, 9, 82, 100
11, 52800, Note_on_c, 9, 32, 112
11, 52810, Note_on_c, 9, 82, 0
11, 52810, Note_on_c, 9, 32, 0
11, 53040, Note_on_c, 9, 82, 100
11, 53050, Note_on_c, 9, 82, 0
11, 53280, Note_on_c, 9, 82, 100
11, 53290, Note_on_c, 9, 82, 0
11, 53520, Note_on_c, 9, 76, 70
11, 53520, Note_on_c, 9, 82, 100
11, 53520, Note_on_c, 9, 33, 70
11, 53530, Note_on_c, 9, 76, 0
11, 53530, Note_on_c, 9, 82, 0
11, 53530, Note_on_c, 9, 33, 0
11, 53760, Note_on_c, 9, 33, 78
11, 53760, Note_on_c, 9, 77, 80
11, 53760, Note_on_c, 9, 82, 100
11, 53770, Note_on_c, 9, 33, 0
11, 53770, Note_on_c, 9, 77, 0
11, 53770, Note_on_c, 9, 82, 0
11, 54000, Note_on_c, 9, 82, 100
11, 54010, Note_on_c, 9, 82, 0
11, 54240, Note_on_c, 9, 82, 100
11, 54250, Note_on_c, 9, 82, 0
11, 54480, Note_on_c, 9, 82, 100
11, 54490, Note_on_c, 9, 82, 0
11, 54720, Note_on_c, 9, 32, 113
11, 54720, Note_on_c, 9, 82, 100
11, 54730, Note_on_c, 9, 32, 0
11, 54730, Note_on_c, 9, 82, 0
11, 54960, Note_on_c, 9, 82, 100
11, 54970, Note_on_c, 9, 82, 0
11, 55200, Note_on_c, 9, 82, 100
11, 55210, Note_on_c, 9, 82, 0
11, 55440, Note_on_c, 9, 82, 100
11, 55450, Note_on_c, 9, 82, 0
11, 55680, Note_on_c, 9, 33, 83
11, 55680, Note_on_c, 9, 76, 70
11, 55680, Note_on_c, 9, 82, 100
11, 55690, Note_on_c, 9, 33, 0
11, 55690, Note_on_c, 9, 76, 0
11, 55690, Note_on_c, 9, 82, 0
11, 55920, Note_on_c, 9, 82, 100
11, 55930, Note_on_c, 9, 82, 0
11, 56160, Note_on_c, 9, 82, 100
11, 56170, Note_on_c, 9, 82, 0
11, 56400, Note_on_c, 9, 82, 100
11, 56410, Note_on_c, 9, 82, 0
11, 56640, Note_on_c, 9, 82, 100
11, 56640, Note_on_c, 9, 32, 113
11, 56650, Note_on_c, 9, 82, 0
11, 56650, Note_on_c, 9, 32, 0
11, 56880, Note_on_c, 9, 82, 100
11, 56890, Note_on_c, 9, 82, 0
11, 57120, Note_on_c, 9, 82, 100
11, 57130, Note_on_c, 9, 82, 0
11, 57360, Note_on_c, 9, 33, 70
11, 57360, Note_on_c, 9, 76, 70
11, 57360, Note_on_c, 9, 82, 100
11, 57370, Note_on_c, 9, 33, 0
11, 57370, Note_on_c, 9, 76, 0
11, 57370, Note_on_c, 9, 82, 0
11, 57600, Note_on_c, 9, 82, 100
11, 57600, Note_on_c, 9, 33, 78
11, 57600, Note_on_c, 9, 77, 80
11, 57610, Note_on_c, 9, 82, 0
11, 57610, Note_on_c, 9, 33, 0
11, 57610, Note_on_c, 9, 77, 0
11, 57840, Note_on_c, 9, 82, 100
11, 57850, Note_on_c, 9, 82, 0
11, 58080, Note_on_c, 9, 82, 100
11, 58090, Note_on_c, 9, 82, 0
11, 58320, Note_on_c, 9, 33, 78
11, 58320, Note_on_c, 9, 82, 100
11, 58330, Note_on_c, 9, 33, 0
11, 58330, Note_on_c, 9, 82, 0
11, 58560, Note_on_c, 9, 32, 112
11, 58560, Note_on_c, 9, 82, 100
11, 58570, Note_on_c, 9, 32, 0
11, 58570, Note_on_c, 9, 82, 0
11, 58800, Note_on_c, 9, 33, 78
11, 58800, Note_on_c, 9, 82, 100
11, 58810, Note_on_c, 9, 33, 0
11, 58810, Note_on_c, 9, 82, 0
11, 59040, Note_on_c, 9, 82, 100
11, 59050, Note_on_c, 9, 82, 0
11, 59280, Note_on_c, 9, 33, 78
11, 59280, Note_on_c, 9, 82, 100
11, 59290, Note_on_c, 9, 33, 0
11, 59290, Note_on_c, 9, 82, 0
11, 59520, Note_on_c, 9, 76, 70
11, 59520, Note_on_c, 9, 82, 100
11, 59520, Note_on_c, 9, 33, 83
11, 59530, Note_on_c, 9, 76, 0
11, 59530, Note_on_c, 9, 82, 0
11, 59530, Note_on_c, 9, 33, 0
11, 59760, Note_on_c, 9, 82, 100
11, 59770, Note_on_c, 9, 82, 0
11, 60000, Note_on_c, 9, 82, 100
11, 60010, Note_on_c, 9, 82, 0
11, 60240, Note_on_c, 9, 82, 100
11, 60250, Note_on_c, 9, 82, 0
11, 60480, Note_on_c, 9, 82, 100
11, 60480, Note_on_c, 9, 32, 117
11, 60490, Note_on_c, 9, 82, 0
11, 60490, Note_on_c, 9, 32, 0
11, 60720, Note_on_c, 9, 82, 100
11, 60730, Note_on_c, 9, 82, 0
11, 60960, Note_on_c, 9, 82, 100
11, 60970, Note_on_c, 9, 82, 0
11, 61200, Note_on_c, 9, 76, 70
11, 61200, Note_on_c, 9, 82, 100
11, 61200, Note_on_c, 9, 33, 70
11, 61210, Note_on_c, 9, 76, 0
11, 61210, Note_on_c, 9, 82, 0
11, 61210, Note_on_c, 9, 33, 0
11, 61440, Note_on_c, 9, 33, 78
11, 61440, Note_on_c, 9, 77, 80
11, 61440, Note_on_c, 9, 82, 100
11, 61450, Note_on_c, 9, 33, 0
11, 61450, Note_on_c, 9, 77, 0
11, 61450, Note_on_c, 9, 82, 0
11, 61680, Note_on_c, 9, 82, 100
11, 61690, Note_on_c, 9, 82, 0
11, 61920, Note_on_c, 9, 82, 100
11, 61930, Note_on_c, 9, 82, 0
11, 62160, Note_on_c, 9, 33, 78
11, 62160, Note_on_c, 9, 82, 100
11, 62170, Note_on_c, 9, 33, 0
11, 62170, Note_on_c, 9, 82, 0
11, 62400, Note_on_c, 9, 32, 112
11, 62400, Note_on_c, 9, 82, 100
11, 62410, Note_on_c, 9, 32, 0
11, 62410, Note_on_c, 9, 82, 0
11, 62640, Note_on_c, 9, 82, 100
11, 62650, Note_on_c, 9, 82, 0
11, 62880, Note_on_c, 9, 82, 100
11, 62890, Note_on_c, 9, 82, 0
11, 63120, Note_on_c, 9, 33, 78
11, 63120, Note_on_c, 9, 82, 100
11, 63130, Note_on_c, 9, 33, 0
11, 63130, Note_on_c, 9, 82, 0
11, 63360, Note_on_c, 9, 33, 83
11, 63360, Note_on_c, 9, 82, 100
11, 63370, Note_on_c, 9, 33, 0
11, 63370, Note_on_c, 9, 82, 0
11, 63600, Note_on_c, 9, 82, 100
11, 63610, Note_on_c, 9, 82, 0
11, 63840, Note_on_c, 9, 82, 100
11, 63850, Note_on_c, 9, 82, 0
11, 64080, Note_on_c, 9, 82, 100
11, 64090, Note_on_c, 9, 82, 0
11, 64320, Note_on_c, 9, 82, 100
11, 64320, Note_on_c, 9, 32, 113
11, 64330, Note_on_c, 9, 82, 0
11, 64330, Note_on_c, 9, 32, 0
11, 64560, Note_on_c, 9, 82, 100
11, 64570, Note_on_c, 9, 82, 0
11, 64800, Note_on_c, 9, 82, 100
11, 64810, Note_on_c, 9, 82, 0
11, 65040, Note_on_c, 9, 82, 100
11, 65050, Note_on_c, 9, 82, 0
11, 65280, Note_on_c, 9, 82, 100
11, 65290, Note_on_c, 9, 82, 0
11, 65520, Note_on_c, 9, 82, 100
11, 65530, Note_on_c, 9, 82, 0
11, 65760, Note_on_c, 9, 82, 100
11, 65770, Note_on_c, 9, 82, 0
11, 66000, Note_on_c, 9, 82, 100
11, 66010, Note_on_c, 9, 82, 0
11, 66240, Note_on_c, 9, 82, 100
11, 66250, Note_on_c, 9, 82, 0
11, 66480, Note_on_c, 9, 82, 100
11, 66490, Note_on_c, 9, 82, 0
11, 66720, Note_on_c, 9, 82, 100
11, 66730, Note_on_c, 9, 82, 0
11, 66960, Note_on_c, 9, 82, 100
11, 66970, Note_on_c, 9, 82, 0
11, 66970, End_track
12, 0, Start_track
12, 0, Title_t, ""
12, 0, Control_c, 10, 0, 0
12, 0, Control_c, 10, 32, 0
12, 0, Program_c, 10, 73
12, 0, Control_c, 10, 7, 127
12, 0, Control_c, 10, 10, 98
12, 0, Control_c, 10, 11, 110
12, 0, Control_c, 10, 91, 30
12, 0, Control_c, 10, 93, 0
12, 0, Control_c, 10, 99, 1
12, 0, Control_c, 10, 98, 32
12, 0, Control_c, 10, 6, 65
12, 0, Control_c, 10, 99, 1
12, 0, Control_c, 10, 98, 8
12, 0, Control_c, 10, 6, 65
12, 0, Control_c, 10, 99, 1
12, 0, Control_c, 10, 98, 9
12, 0, Control_c, 10, 6, 65
12, 0, Control_c, 10, 99, 1
12, 0, Control_c, 10, 98, 10
12, 0, Control_c, 10, 6, 70
12, 17760, Note_on_c, 10, 71, 100
12, 17760, Note_on_c, 10, 74, 120
12, 17995, Note_on_c, 10, 71, 0
12, 17995, Note_on_c, 10, 74, 0
12, 18000, Note_on_c, 10, 69, 92
12, 18000, Note_on_c, 10, 72, 118
12, 18130, Note_on_c, 10, 69, 0
12, 18134, Note_on_c, 10, 72, 0
12, 18480, Note_on_c, 10, 67, 95
12, 18480, Note_on_c, 10, 71, 122
12, 18955, Note_on_c, 10, 67, 0
12, 18955, Note_on_c, 10, 71, 0
12, 18960, Note_on_c, 10, 65, 94
12, 18960, Note_on_c, 10, 69, 117
12, 19195, Note_on_c, 10, 65, 0
12, 19195, Note_on_c, 10, 69, 0
12, 19200, Note_on_c, 10, 67, 96
12, 19200, Note_on_c, 10, 71, 114
12, 21082, Note_on_c, 10, 67, 0
12, 21082, Note_on_c, 10, 71, 0
12, 43680, Note_on_c, 10, 77, 120
12, 43915, Note_on_c, 10, 77, 0
12, 43920, Note_on_c, 10, 76, 115
12, 44155, Note_on_c, 10, 76, 0
12, 44160, Note_on_c, 10, 72, 122
12, 45343, Note_on_c, 10, 72, 0
12, 45360, Note_on_c, 10, 69, 121
12, 45595, Note_on_c, 10, 69, 0
12, 45600, Note_on_c, 10, 72, 121
12, 45835, Note_on_c, 10, 72, 0
12, 45840, Note_on_c, 10, 74, 121
12, 46075, Note_on_c, 10, 74, 0
12, 46080, Note_on_c, 10, 75, 122
12, 46550, Note_on_c, 10, 75, 0
12, 46560, Note_on_c, 10, 72, 121
12, 46795, Note_on_c, 10, 72, 0
12, 46800, Note_on_c, 10, 72, 121
12, 47275, Note_on_c, 10, 72, 0
12, 47280, Note_on_c, 10, 68, 121
12, 47755, Note_on_c, 10, 68, 0
12, 47760, Note_on_c, 10, 72, 121
12, 47995, Note_on_c, 10, 72, 0
12, 48000, Note_on_c, 10, 67, 121
12, 48800, Control_c, 10, 11, 108
12, 48830, Control_c, 10, 11, 107
12, 48860, Control_c, 10, 11, 106
12, 48890, Control_c, 10, 11, 105
12, 48920, Control_c, 10, 11, 104
12, 48950, Control_c, 10, 11, 103
12, 48980, Control_c, 10, 11, 102
12, 49010, Control_c, 10, 11, 101
12, 49040, Control_c, 10, 11, 99
12, 49070, Control_c, 10, 11, 98
12, 49100, Control_c, 10, 11, 97
12, 49130, Control_c, 10, 11, 96
12, 49160, Control_c, 10, 11, 95
12, 49190, Control_c, 10, 11, 94
12, 49220, Control_c, 10, 11, 93
12, 49250, Control_c, 10, 11, 92
12, 49280, Control_c, 10, 11, 90
12, 49310, Control_c, 10, 11, 89
12, 49340, Control_c, 10, 11, 88
12, 49370, Control_c, 10, 11, 87
12, 49400, Control_c, 10, 11, 86
12, 49430, Control_c, 10, 11, 85
12, 49460, Control_c, 10, 11, 84
12, 49490, Control_c, 10, 11, 83
12, 49520, Control_c, 10, 11, 81
12, 49550, Control_c, 10, 11, 80
12, 49580, Control_c, 10, 11, 79
12, 49610, Control_c, 10, 11, 78
12, 49640, Control_c, 10, 11, 77
12, 49670, Control_c, 10, 11, 76
12, 49700, Control_c, 10, 11, 75
12, 49730, Control_c, 10, 11, 74
12, 49760, Control_c, 10, 11, 72
12, 49790, Control_c, 10, 11, 71
12, 49820, Control_c, 10, 11, 70
12, 49850, Control_c, 10, 11, 69
12, 49880, Control_c, 10, 11, 68
12, 49910, Control_c, 10, 11, 67
12, 49940, Control_c, 10, 11, 66
12, 49970, Control_c, 10, 11, 64
12, 50000, Control_c, 10, 11, 63
12, 50030, Control_c, 10, 11, 62
12, 50060, Control_c, 10, 11, 61
12, 50090, Control_c, 10, 11, 60
12, 50120, Control_c, 10, 11, 59
12, 50150, Control_c, 10, 11, 58
12, 50180, Control_c, 10, 11, 57
12, 50210, Control_c, 10, 11, 55
12, 50240, Control_c, 10, 11, 54
12, 50270, Control_c, 10, 11, 53
12, 50300, Control_c, 10, 11, 52
12, 50330, Control_c, 10, 11, 51
12, 50360, Control_c, 10, 11, 50
12, 50390, Control_c, 10, 11, 49
12, 50420, Control_c, 10, 11, 48
12, 50450, Control_c, 10, 11, 46
12, 50480, Control_c, 10, 11, 45
12, 50510, Control_c, 10, 11, 44
12, 50540, Control_c, 10, 11, 43
12, 50570, Control_c, 10, 11, 42
12, 50600, Control_c, 10, 11, 41
12, 50630, Control_c, 10, 11, 40
12, 50660, Control_c, 10, 11, 39
12, 50690, Control_c, 10, 11, 37
12, 50720, Control_c, 10, 11, 36
12, 50750, Control_c, 10, 11, 35
12, 50780, Control_c, 10, 11, 34
12, 50810, Control_c, 10, 11, 33
12, 50840, Control_c, 10, 11, 32
12, 50870, Control_c, 10, 11, 31
12, 50900, Control_c, 10, 11, 29
12, 50930, Control_c, 10, 11, 28
12, 50960, Control_c, 10, 11, 27
12, 50990, Control_c, 10, 11, 26
12, 51020, Control_c, 10, 11, 25
12, 51050, Control_c, 10, 11, 24
12, 51080, Control_c, 10, 11, 23
12, 51110, Control_c, 10, 11, 22
12, 51140, Control_c, 10, 11, 20
12, 51170, Control_c, 10, 11, 19
12, 51200, Control_c, 10, 11, 18
12, 51230, Control_c, 10, 11, 17
12, 51260, Control_c, 10, 11, 16
12, 51290, Control_c, 10, 11, 15
12, 51320, Control_c, 10, 11, 14
12, 51350, Control_c, 10, 11, 13
12, 51380, Control_c, 10, 11, 11
12, 51410, Control_c, 10, 11, 10
12, 51440, Control_c, 10, 11, 9
12, 51470, Control_c, 10, 11, 8
12, 51500, Control_c, 10, 11, 7
12, 51530, Control_c, 10, 11, 6
12, 51560, Control_c, 10, 11, 5
12, 51590, Control_c, 10, 11, 4
12, 51620, Control_c, 10, 11, 2
12, 51802, Note_on_c, 10, 67, 0
12, 51802, End_track
13, 0, Start_track
13, 0, Title_t, ""
13, 0, Control_c, 11, 0, 0
13, 0, Control_c, 11, 32, 0
13, 0, Program_c, 11, 26
13, 0, Control_c, 11, 7, 127
13, 0, Control_c, 11, 10, 20
13, 0, Control_c, 11, 11, 95
13, 0, Control_c, 11, 91, 70
13, 0, Control_c, 11, 93, 0
13, 0, Control_c, 11, 99, 1
13, 0, Control_c, 11, 98, 32
13, 0, Control_c, 11, 6, 80
13, 32640, Note_on_c, 11, 53, 85
13, 32640, Note_on_c, 11, 57, 96
13, 32875, Note_on_c, 11, 53, 0
13, 32875, Note_on_c, 11, 57, 0
13, 32880, Note_on_c, 11, 55, 85
13, 32880, Note_on_c, 11, 59, 98
13, 33115, Note_on_c, 11, 55, 0
13, 33115, Note_on_c, 11, 59, 0
13, 33120, Note_on_c, 11, 57, 85
13, 33120, Note_on_c, 11, 60, 95
13, 33355, Note_on_c, 11, 57, 0
13, 33355, Note_on_c, 11, 60, 0
13, 33360, Note_on_c, 11, 55, 85
13, 33360, Note_on_c, 11, 62, 96
13, 33835, Note_on_c, 11, 55, 0
13, 33835, Note_on_c, 11, 62, 0
13, 33840, Note_on_c, 11, 55, 85
13, 33840, Note_on_c, 11, 60, 94
13, 34315, Note_on_c, 11, 55, 0
13, 34315, Note_on_c, 11, 60, 0
13, 34320, Note_on_c, 11, 55, 85
13, 34320, Note_on_c, 11, 62, 84
13, 34555, Note_on_c, 11, 55, 0
13, 34800, Note_on_c, 11, 55, 85
13, 34850, Note_on_c, 11, 62, 0
13, 35040, Note_on_c, 11, 60, 94
13, 35090, Note_on_c, 11, 55, 0
13, 35280, Note_on_c, 11, 64, 92
13, 35330, Note_on_c, 11, 60, 0
13, 35760, Note_on_c, 11, 57, 96
13, 35780, Note_on_c, 11, 64, 0
13, 36000, Note_on_c, 11, 60, 92
13, 36050, Note_on_c, 11, 57, 0
13, 36240, Note_on_c, 11, 65, 94
13, 36290, Note_on_c, 11, 60, 0
13, 36720, Note_on_c, 11, 55, 96
13, 36740, Note_on_c, 11, 65, 0
13, 36960, Note_on_c, 11, 60, 92
13, 37010, Note_on_c, 11, 55, 0
13, 37200, Note_on_c, 11, 64, 94
13, 37250, Note_on_c, 11, 60, 0
13, 37680, Note_on_c, 11, 55, 98
13, 37720, Note_on_c, 11, 64, 0
13, 37920, Note_on_c, 11, 59, 96
13, 37970, Note_on_c, 11, 55, 0
13, 38160, Note_on_c, 11, 67, 92
13, 38210, Note_on_c, 11, 59, 0
13, 38400, Note_on_c, 11, 57, 85
13, 38400, Note_on_c, 11, 60, 98
13, 38450, Note_on_c, 11, 67, 0
13, 38635, Note_on_c, 11, 57, 0
13, 38635, Note_on_c, 11, 60, 0
13, 38640, Note_on_c, 11, 59, 85
13, 38640, Note_on_c, 11, 62, 96
13, 38875, Note_on_c, 11, 59, 0
13, 38875, Note_on_c, 11, 62, 0
13, 38880, Note_on_c, 11, 64, 94
13, 38880, Note_on_c, 11, 60, 85
13, 39115, Note_on_c, 11, 64, 0
13, 39115, Note_on_c, 11, 60, 0
13, 39120, Note_on_c, 11, 65, 96
13, 39120, Note_on_c, 11, 62, 85
13, 39595, Note_on_c, 11, 65, 0
13, 39595, Note_on_c, 11, 62, 0
13, 39600, Note_on_c, 11, 60, 85
13, 39600, Note_on_c, 11, 64, 92
13, 40075, Note_on_c, 11, 60, 0
13, 40075, Note_on_c, 11, 64, 0
13, 40080, Note_on_c, 11, 60, 85
13, 40080, Note_on_c, 11, 65, 93
13, 40404, Note_on_c, 11, 65, 0
13, 40555, Note_on_c, 11, 60, 0
13, 40560, Note_on_c, 11, 52, 92
13, 40800, Note_on_c, 11, 55, 96
13, 40850, Note_on_c, 11, 52, 0
13, 41040, Note_on_c, 11, 59, 94
13, 41090, Note_on_c, 11, 55, 0
13, 41280, Note_on_c, 11, 64, 98
13, 41330, Note_on_c, 11, 59, 0
13, 41520, Note_on_c, 11, 55, 92
13, 41570, Note_on_c, 11, 64, 0
13, 41760, Note_on_c, 11, 59, 96
13, 41810, Note_on_c, 11, 55, 0
13, 42000, Note_on_c, 11, 64, 92
13, 42050, Note_on_c, 11, 59, 0
13, 42240, Note_on_c, 11, 64, 0
13, 42240, Note_on_c, 11, 59, 75
13, 42260, Control_c, 11, 1, 40
13, 42260, Note_on_c, 11, 64, 85
13, 42280, Note_on_c, 11, 67, 96
13, 43475, Note_on_c, 11, 67, 0
13, 43475, Note_on_c, 11, 59, 0
13, 43475, Note_on_c, 11, 64, 0
13, 43680, Control_c, 11, 1, 0
13, 44110, Note_on_c, 11, 57, 80
13, 44120, Note_on_c, 11, 58, 70
13, 44130, Note_on_c, 11, 60, 75
13, 44140, Note_on_c, 11, 62, 85
13, 44150, Note_on_c, 11, 65, 90
13, 44160, Note_on_c, 11, 69, 110
13, 45410, Note_on_c, 11, 57, 0
13, 45420, Note_on_c, 11, 58, 0
13, 45630, Note_on_c, 11, 60, 0
13, 45740, Note_on_c, 11, 62, 0
13, 45850, Note_on_c, 11, 65, 0
13, 46000, Note_on_c, 11, 69, 0
13, 46080, Note_on_c, 11, 58, 90
13, 46090, Note_on_c, 11, 68, 75
13, 46100, Note_on_c, 11, 60, 83
13, 46120, Note_on_c, 11, 63, 95
13, 47580, Note_on_c, 11, 58, 0
13, 47700, Note_on_c, 11, 60, 0
13, 47820, Note_on_c, 11, 63, 0
13, 48000, Note_on_c, 11, 62, 90
13, 48020, Note_on_c, 11, 65, 97
13, 48022, Note_on_c, 11, 68, 0
13, 48040, Note_on_c, 11, 72, 110
13, 48900, Note_on_c, 11, 62, 0
13, 48920, Note_on_c, 11, 65, 0
13, 48960, Note_on_c, 11, 72, 0
13, 48960, Note_on_c, 11, 62, 90
13, 48980, Note_on_c, 11, 65, 97
13, 49000, Note_on_c, 11, 71, 110
13, 49860, Note_on_c, 11, 62, 0
13, 49880, Note_on_c, 11, 65, 0
13, 49920, Note_on_c, 11, 71, 0
13, 49920, Note_on_c, 11, 62, 90
13, 49940, Note_on_c, 11, 65, 97
13, 49960, Note_on_c, 11, 69, 110
13, 50820, Note_on_c, 11, 62, 0
13, 50840, Note_on_c, 11, 65, 0
13, 50880, Note_on_c, 11, 69, 0
13, 50880, Note_on_c, 11, 62, 90
13, 50900, Note_on_c, 11, 65, 97
13, 50920, Note_on_c, 11, 71, 110
13, 51780, Note_on_c, 11, 62, 0
13, 51800, Note_on_c, 11, 65, 0
13, 51840, Note_on_c, 11, 71, 0
13, 51840, End_track
14, 0, Start_track
14, 0, Title_t, ""
14, 0, Control_c, 12, 0, 0
14, 0, Control_c, 12, 32, 0
14, 0, Program_c, 12, 89
14, 0, Control_c, 12, 7, 127
14, 0, Control_c, 12, 10, 43
14, 0, Control_c, 12, 11, 110
14, 0, Control_c, 12, 91, 60
14, 0, Control_c, 12, 93, 0
14, 0, Control_c, 12, 99, 1
14, 0, Control_c, 12, 98, 32
14, 0, Control_c, 12, 6, 80
14, 44160, Note_on_c, 12, 69, 95
14, 44160, Note_on_c, 12, 72, 110
14, 46042, Note_on_c, 12, 69, 0
14, 46042, Note_on_c, 12, 72, 0
14, 46080, Note_on_c, 12, 70, 100
14, 46080, Note_on_c, 12, 72, 110
14, 47021, Note_on_c, 12, 70, 0
14, 47040, Note_on_c, 12, 68, 100
14, 47962, Note_on_c, 12, 72, 0
14, 47981, Note_on_c, 12, 68, 0
14, 48000, Note_on_c, 12, 72, 110
14, 48000, Note_on_c, 12, 62, 90
14, 48941, Note_on_c, 12, 72, 0
14, 48960, Note_on_c, 12, 71, 110
14, 49901, Note_on_c, 12, 71, 0
14, 49920, Note_on_c, 12, 69, 110
14, 50861, Note_on_c, 12, 69, 0
14, 50880, Note_on_c, 12, 71, 110
14, 51802, Note_on_c, 12, 62, 0
14, 51821, Note_on_c, 12, 71, 0
14, 51840, Note_on_c, 12, 67, 100
14, 51840, Note_on_c, 12, 72, 110
14, 55642, Note_on_c, 12, 67, 0
14, 55642, Note_on_c, 12, 72, 0
14, 55680, Note_on_c, 12, 67, 100
14, 55680, Note_on_c, 12, 70, 111
14, 56621, Note_on_c, 12, 67, 0
14, 56621, Note_on_c, 12, 70, 0
14, 56640, Note_on_c, 12, 69, 100
14, 56640, Note_on_c, 12, 74, 110
14, 57581, Note_on_c, 12, 69, 0
14, 57581, Note_on_c, 12, 74, 0
14, 57600, Note_on_c, 12, 70, 100
14, 57600, Note_on_c, 12, 74, 110
14, 58541, Note_on_c, 12, 74, 0
14, 58560, Note_on_c, 12, 72, 110
14, 59501, Note_on_c, 12, 70, 0
14, 59501, Note_on_c, 12, 72, 0
14, 59520, Note_on_c, 12, 60, 100
14, 59520, Note_on_c, 12, 72, 110
14, 63322, Note_on_c, 12, 60, 0
14, 63322, Note_on_c, 12, 72, 0
14, 63360, Note_on_c, 12, 62, 100
14, 63360, Note_on_c, 12, 71, 110
14, 67162, Note_on_c, 12, 71, 0
14, 67162, Note_on_c, 12, 62, 0
14, 67162, End_track
15, 0, Start_track
15, 0, Title_t, ""
15, 0, Control_c, 13, 0, 0
15, 0, Control_c, 13, 32, 0
15, 0, Program_c, 13, 50
15, 0, Control_c, 13, 7, 127
15, 0, Control_c, 13, 10, 20
15, 0, Control_c, 13, 11, 110
15, 0, Control_c, 13, 91, 60
15, 0, Control_c, 13, 93, 0
15, 0, Control_c, 13, 99, 1
15, 0, Control_c, 13, 98, 32
15, 0, Control_c, 13, 6, 65
15, 51840, Note_on_c, 13, 63, 86
15, 55642, Note_on_c, 13, 63, 0
15, 55680, Note_on_c, 13, 65, 86
15, 56621, Note_on_c, 13, 65, 0
15, 56640, Note_on_c, 13, 64, 86
15, 58070, Note_on_c, 13, 64, 0
15, 58080, Note_on_c, 13, 70, 86
15, 59491, Note_on_c, 13, 70, 0
15, 59520, Note_on_c, 13, 63, 86
15, 63322, Note_on_c, 13, 63, 0
15, 63360, Note_on_c, 13, 65, 86
15, 67162, Note_on_c, 13, 65, 0
15, 67162, End_track
16, 0, Start_track
16, 0, Title_t, ""
16, 0, Control_c, 14, 0, 0
16, 0, Control_c, 14, 32, 0
16, 0, Program_c, 14, 89
16, 0, Control_c, 14, 7, 127
16, 0, Control_c, 14, 10, 80
16, 0, Control_c, 14, 11, 110
16, 0, Control_c, 14, 91, 60
16, 0, Control_c, 14, 93, 0
16, 0, Control_c, 14, 99, 1
16, 0, Control_c, 14, 98, 32
16, 0, Control_c, 14, 6, 80
16, 57600, Note_on_c, 14, 79, 114
16, 58541, Note_on_c, 14, 79, 0
16, 58560, Note_on_c, 14, 79, 100
16, 58560, Note_on_c, 14, 82, 114
16, 59501, Note_on_c, 14, 79, 0
16, 59501, Note_on_c, 14, 82, 0
16, 59501, End_track
0, 0, End_of_file
