0, 0, Header, 1, 17, 120
1, 0, Start_track
1, 0, Title_t, "untitled"
1, 0, Text_t, "yu-ki\012"
1, 0, Text_t, " \012"
1, 0, System_exclusive, 10, 65, 16, 66, 18, 0, 0, 127, 0, 1, 247
1, 0, System_exclusive, 10, 65, 16, 66, 18, 64, 1, 51, 100, 40, 247
1, 0, System_exclusive, 10, 65, 16, 66, 18, 64, 1, 52, 100, 39, 247
1, 0, System_exclusive, 10, 65, 16, 66, 18, 64, 1, 56, 4, 3, 247
1, 0, System_exclusive, 10, 65, 16, 66, 18, 64, 1, 58, 80, 53, 247
1, 0, System_exclusive, 10, 65, 16, 66, 18, 64, 2, 1, 67, 122, 247
1, 0, System_exclusive, 10, 65, 16, 66, 18, 64, 2, 3, 67, 120, 247
1, 0, System_exclusive, 10, 65, 16, 66, 18, 64, 26, 21, 2, 15, 247
1, 0, Time_signature, 3, 2, 24, 8
1, 0, Key_signature, 0, "major"
1, 0, Tempo, 340909
1, 10800, Time_signature, 5, 2, 24, 8
1, 11400, Time_signature, 3, 2, 24, 8
1, 51720, Time_signature, 5, 2, 24, 8
1, 52320, Time_signature, 3, 2, 24, 8
1, 52320, End_track
2, 0, Start_track
2, 0, Title_t, "A1-Piano 2     "
2, 0, Control_c, 0, 0, 0
2, 0, Control_c, 0, 32, 3
2, 0, Program_c, 0, 1
2, 0, Control_c, 0, 7, 110
2, 0, Control_c, 0, 10, 54
2, 60, Text_t, "Start of Setup by GSAE"
2, 86, Control_c, 0, 91, 40
2, 87, Control_c, 0, 93, 0
2, 250, Text_t, "End of Setup by GSAE"
2, 630, Control_c, 0, 38, 127
2, 1080, Note_on_c, 0, 40, 110
2, 1080, Note_on_c, 0, 35, 110
2, 1107, Note_on_c, 0, 35, 0
2, 1107, Note_on_c, 0, 40, 0
2, 1140, Note_on_c, 0, 40, 100
2, 1167, Note_on_c, 0, 40, 0
2, 1200, Note_on_c, 0, 40, 100
2, 1227, Note_on_c, 0, 40, 0
2, 1260, Note_on_c, 0, 40, 100
2, 1287, Note_on_c, 0, 40, 0
2, 1320, Note_on_c, 0, 40, 100
2, 1347, Note_on_c, 0, 40, 0
2, 1380, Note_on_c, 0, 40, 100
2, 1407, Note_on_c, 0, 40, 0
2, 1440, Note_on_c, 0, 40, 100
2, 1467, Note_on_c, 0, 40, 0
2, 1500, Note_on_c, 0, 40, 100
2, 1527, Note_on_c, 0, 40, 0
2, 1560, Note_on_c, 0, 40, 100
2, 1587, Note_on_c, 0, 40, 0
2, 1620, Note_on_c, 0, 40, 100
2, 1647, Note_on_c, 0, 40, 0
2, 1680, Note_on_c, 0, 40, 100
2, 1707, Note_on_c, 0, 40, 0
2, 1740, Note_on_c, 0, 35, 110
2, 1740, Note_on_c, 0, 40, 110
2, 1767, Note_on_c, 0, 40, 0
2, 1767, Note_on_c, 0, 35, 0
2, 1800, Note_on_c, 0, 40, 100
2, 1827, Note_on_c, 0, 40, 0
2, 1860, Note_on_c, 0, 40, 100
2, 1887, Note_on_c, 0, 40, 0
2, 1920, Note_on_c, 0, 40, 100
2, 1947, Note_on_c, 0, 40, 0
2, 1980, Note_on_c, 0, 35, 110
2, 1980, Note_on_c, 0, 40, 110
2, 2007, Note_on_c, 0, 40, 0
2, 2007, Note_on_c, 0, 35, 0
2, 2040, Note_on_c, 0, 40, 100
2, 2067, Note_on_c, 0, 40, 0
2, 2100, Note_on_c, 0, 40, 100
2, 2127, Note_on_c, 0, 40, 0
2, 2160, Note_on_c, 0, 40, 100
2, 2187, Note_on_c, 0, 40, 0
2, 2220, Note_on_c, 0, 40, 100
2, 2247, Note_on_c, 0, 40, 0
2, 2280, Note_on_c, 0, 40, 100
2, 2307, Note_on_c, 0, 40, 0
2, 2340, Note_on_c, 0, 40, 100
2, 2367, Note_on_c, 0, 40, 0
2, 2400, Note_on_c, 0, 40, 100
2, 2427, Note_on_c, 0, 40, 0
2, 2460, Note_on_c, 0, 40, 100
2, 2487, Note_on_c, 0, 40, 0
2, 2520, Note_on_c, 0, 35, 111
2, 2520, Note_on_c, 0, 40, 111
2, 2547, Note_on_c, 0, 40, 0
2, 2547, Note_on_c, 0, 35, 0
2, 2580, Note_on_c, 0, 40, 101
2, 2607, Note_on_c, 0, 40, 0
2, 2640, Note_on_c, 0, 40, 100
2, 2667, Note_on_c, 0, 40, 0
2, 2700, Note_on_c, 0, 40, 100
2, 2727, Note_on_c, 0, 40, 0
2, 2760, Note_on_c, 0, 40, 100
2, 2787, Note_on_c, 0, 40, 0
2, 2820, Note_on_c, 0, 40, 100
2, 2847, Note_on_c, 0, 40, 0
2, 2880, Note_on_c, 0, 40, 100
2, 2907, Note_on_c, 0, 40, 0
2, 2940, Note_on_c, 0, 40, 100
2, 2967, Note_on_c, 0, 40, 0
2, 3000, Note_on_c, 0, 40, 100
2, 3027, Note_on_c, 0, 40, 0
2, 3060, Note_on_c, 0, 40, 100
2, 3087, Note_on_c, 0, 40, 0
2, 3120, Note_on_c, 0, 40, 100
2, 3147, Note_on_c, 0, 40, 0
2, 3180, Note_on_c, 0, 35, 111
2, 3180, Note_on_c, 0, 40, 111
2, 3207, Note_on_c, 0, 40, 0
2, 3207, Note_on_c, 0, 35, 0
2, 3240, Note_on_c, 0, 40, 100
2, 3267, Note_on_c, 0, 40, 0
2, 3300, Note_on_c, 0, 40, 100
2, 3327, Note_on_c, 0, 40, 0
2, 3360, Note_on_c, 0, 40, 100
2, 3387, Note_on_c, 0, 40, 0
2, 3420, Note_on_c, 0, 35, 111
2, 3420, Note_on_c, 0, 40, 111
2, 3447, Note_on_c, 0, 40, 0
2, 3447, Note_on_c, 0, 35, 0
2, 3480, Note_on_c, 0, 40, 100
2, 3507, Note_on_c, 0, 40, 0
2, 3540, Note_on_c, 0, 40, 100
2, 3567, Note_on_c, 0, 40, 0
2, 3600, Note_on_c, 0, 40, 100
2, 3627, Note_on_c, 0, 40, 0
2, 3660, Note_on_c, 0, 40, 100
2, 3687, Note_on_c, 0, 40, 0
2, 3720, Note_on_c, 0, 40, 100
2, 3747, Note_on_c, 0, 40, 0
2, 3780, Note_on_c, 0, 40, 100
2, 3807, Note_on_c, 0, 40, 0
2, 3840, Note_on_c, 0, 40, 100
2, 3867, Note_on_c, 0, 40, 0
2, 3900, Note_on_c, 0, 40, 100
2, 3927, Note_on_c, 0, 40, 0
2, 3960, Note_on_c, 0, 40, 100
2, 3960, Note_on_c, 0, 35, 111
2, 3987, Note_on_c, 0, 35, 0
2, 3987, Note_on_c, 0, 40, 0
2, 4020, Note_on_c, 0, 40, 100
2, 4047, Note_on_c, 0, 40, 0
2, 4080, Note_on_c, 0, 40, 100
2, 4107, Note_on_c, 0, 40, 0
2, 4140, Note_on_c, 0, 40, 100
2, 4167, Note_on_c, 0, 40, 0
2, 4200, Note_on_c, 0, 40, 100
2, 4227, Note_on_c, 0, 40, 0
2, 4260, Note_on_c, 0, 40, 100
2, 4287, Note_on_c, 0, 40, 0
2, 4320, Note_on_c, 0, 40, 100
2, 4347, Note_on_c, 0, 40, 0
2, 4380, Note_on_c, 0, 40, 100
2, 4407, Note_on_c, 0, 40, 0
2, 4440, Note_on_c, 0, 40, 100
2, 4467, Note_on_c, 0, 40, 0
2, 4500, Note_on_c, 0, 40, 100
2, 4527, Note_on_c, 0, 40, 0
2, 4560, Note_on_c, 0, 40, 100
2, 4587, Note_on_c, 0, 40, 0
2, 4620, Note_on_c, 0, 35, 112
2, 4620, Note_on_c, 0, 40, 112
2, 4647, Note_on_c, 0, 40, 0
2, 4647, Note_on_c, 0, 35, 0
2, 4680, Note_on_c, 0, 40, 100
2, 4707, Note_on_c, 0, 40, 0
2, 4740, Note_on_c, 0, 40, 100
2, 4767, Note_on_c, 0, 40, 0
2, 4800, Note_on_c, 0, 40, 100
2, 4827, Note_on_c, 0, 40, 0
2, 4860, Note_on_c, 0, 35, 112
2, 4860, Note_on_c, 0, 40, 112
2, 4887, Note_on_c, 0, 40, 0
2, 4887, Note_on_c, 0, 35, 0
2, 4920, Note_on_c, 0, 40, 100
2, 4947, Note_on_c, 0, 40, 0
2, 4980, Note_on_c, 0, 40, 100
2, 5007, Note_on_c, 0, 40, 0
2, 5040, Note_on_c, 0, 40, 100
2, 5067, Note_on_c, 0, 40, 0
2, 5100, Note_on_c, 0, 40, 100
2, 5127, Note_on_c, 0, 40, 0
2, 5160, Note_on_c, 0, 40, 100
2, 5187, Note_on_c, 0, 40, 0
2, 5220, Note_on_c, 0, 40, 100
2, 5247, Note_on_c, 0, 40, 0
2, 5280, Note_on_c, 0, 40, 100
2, 5307, Note_on_c, 0, 40, 0
2, 5340, Note_on_c, 0, 40, 100
2, 5367, Note_on_c, 0, 40, 0
2, 5400, Note_on_c, 0, 35, 112
2, 5400, Note_on_c, 0, 40, 112
2, 5427, Note_on_c, 0, 40, 0
2, 5427, Note_on_c, 0, 35, 0
2, 5460, Note_on_c, 0, 40, 100
2, 5487, Note_on_c, 0, 40, 0
2, 5520, Note_on_c, 0, 40, 100
2, 5547, Note_on_c, 0, 40, 0
2, 5580, Note_on_c, 0, 40, 100
2, 5607, Note_on_c, 0, 40, 0
2, 5640, Note_on_c, 0, 40, 100
2, 5667, Note_on_c, 0, 40, 0
2, 5700, Note_on_c, 0, 40, 100
2, 5727, Note_on_c, 0, 40, 0
2, 5760, Note_on_c, 0, 40, 100
2, 5787, Note_on_c, 0, 40, 0
2, 5820, Note_on_c, 0, 40, 100
2, 5847, Note_on_c, 0, 40, 0
2, 5880, Note_on_c, 0, 40, 100
2, 5907, Note_on_c, 0, 40, 0
2, 5940, Note_on_c, 0, 40, 100
2, 5967, Note_on_c, 0, 40, 0
2, 6000, Note_on_c, 0, 40, 100
2, 6027, Note_on_c, 0, 40, 0
2, 6060, Note_on_c, 0, 35, 111
2, 6060, Note_on_c, 0, 40, 111
2, 6087, Note_on_c, 0, 40, 0
2, 6087, Note_on_c, 0, 35, 0
2, 6120, Note_on_c, 0, 40, 100
2, 6147, Note_on_c, 0, 40, 0
2, 6180, Note_on_c, 0, 40, 100
2, 6207, Note_on_c, 0, 40, 0
2, 6240, Note_on_c, 0, 40, 100
2, 6267, Note_on_c, 0, 40, 0
2, 6300, Note_on_c, 0, 35, 112
2, 6300, Note_on_c, 0, 40, 112
2, 6327, Note_on_c, 0, 40, 0
2, 6327, Note_on_c, 0, 35, 0
2, 6360, Note_on_c, 0, 40, 100
2, 6387, Note_on_c, 0, 40, 0
2, 6420, Note_on_c, 0, 40, 100
2, 6447, Note_on_c, 0, 40, 0
2, 6480, Note_on_c, 0, 40, 100
2, 6507, Note_on_c, 0, 40, 0
2, 6540, Note_on_c, 0, 40, 100
2, 6567, Note_on_c, 0, 40, 0
2, 6600, Note_on_c, 0, 40, 100
2, 6627, Note_on_c, 0, 40, 0
2, 6660, Note_on_c, 0, 40, 100
2, 6687, Note_on_c, 0, 40, 0
2, 6720, Note_on_c, 0, 40, 100
2, 6747, Note_on_c, 0, 40, 0
2, 6780, Note_on_c, 0, 40, 100
2, 6807, Note_on_c, 0, 40, 0
2, 9720, Note_on_c, 0, 45, 110
2, 9720, Note_on_c, 0, 57, 110
2, 9720, Note_on_c, 0, 60, 110
2, 9720, Note_on_c, 0, 69, 110
2, 9720, Note_on_c, 0, 64, 110
2, 9840, Note_on_c, 0, 64, 0
2, 9840, Note_on_c, 0, 60, 0
2, 9840, Note_on_c, 0, 45, 0
2, 9840, Note_on_c, 0, 57, 0
2, 9840, Note_on_c, 0, 69, 0
2, 9840, Note_on_c, 0, 43, 110
2, 9840, Note_on_c, 0, 59, 110
2, 9840, Note_on_c, 0, 67, 110
2, 9840, Note_on_c, 0, 55, 110
2, 9840, Note_on_c, 0, 62, 110
2, 9960, Note_on_c, 0, 62, 0
2, 9960, Note_on_c, 0, 67, 0
2, 9960, Note_on_c, 0, 43, 0
2, 9960, Note_on_c, 0, 59, 0
2, 9960, Note_on_c, 0, 55, 0
2, 9960, Note_on_c, 0, 42, 110
2, 9960, Note_on_c, 0, 57, 110
2, 9960, Note_on_c, 0, 66, 110
2, 9960, Note_on_c, 0, 54, 110
2, 9960, Note_on_c, 0, 60, 110
2, 10080, Note_on_c, 0, 60, 0
2, 10080, Note_on_c, 0, 66, 0
2, 10080, Note_on_c, 0, 42, 0
2, 10080, Note_on_c, 0, 57, 0
2, 10080, Note_on_c, 0, 54, 0
2, 10080, Note_on_c, 0, 40, 110
2, 10080, Note_on_c, 0, 55, 110
2, 10080, Note_on_c, 0, 64, 110
2, 10080, Note_on_c, 0, 52, 110
2, 10080, Note_on_c, 0, 59, 110
2, 10200, Note_on_c, 0, 59, 0
2, 10200, Note_on_c, 0, 64, 0
2, 10200, Note_on_c, 0, 40, 0
2, 10200, Note_on_c, 0, 55, 0
2, 10200, Note_on_c, 0, 52, 0
2, 10200, Note_on_c, 0, 38, 110
2, 10200, Note_on_c, 0, 54, 110
2, 10200, Note_on_c, 0, 62, 110
2, 10200, Note_on_c, 0, 50, 110
2, 10200, Note_on_c, 0, 57, 110
2, 10320, Note_on_c, 0, 57, 0
2, 10320, Note_on_c, 0, 62, 0
2, 10320, Note_on_c, 0, 38, 0
2, 10320, Note_on_c, 0, 54, 0
2, 10320, Note_on_c, 0, 50, 0
2, 10320, Note_on_c, 0, 40, 110
2, 10320, Note_on_c, 0, 55, 110
2, 10320, Note_on_c, 0, 64, 110
2, 10320, Note_on_c, 0, 52, 110
2, 10320, Note_on_c, 0, 59, 110
2, 10440, Note_on_c, 0, 59, 0
2, 10440, Note_on_c, 0, 64, 0
2, 10440, Note_on_c, 0, 40, 0
2, 10440, Note_on_c, 0, 55, 0
2, 10440, Note_on_c, 0, 52, 0
2, 10440, Note_on_c, 0, 46, 110
2, 10440, Note_on_c, 0, 50, 110
2, 10440, Note_on_c, 0, 53, 110
2, 10440, Note_on_c, 0, 58, 110
2, 10440, Note_on_c, 0, 62, 110
2, 10560, Note_on_c, 0, 62, 0
2, 10560, Note_on_c, 0, 53, 0
2, 10560, Note_on_c, 0, 46, 0
2, 10560, Note_on_c, 0, 50, 0
2, 10560, Note_on_c, 0, 58, 0
2, 10560, Note_on_c, 0, 48, 102
2, 10560, Note_on_c, 0, 64, 102
2, 10560, Note_on_c, 0, 55, 102
2, 10560, Note_on_c, 0, 52, 102
2, 10560, Note_on_c, 0, 60, 102
2, 10680, Note_on_c, 0, 60, 0
2, 10680, Note_on_c, 0, 55, 0
2, 10680, Note_on_c, 0, 48, 0
2, 10680, Note_on_c, 0, 64, 0
2, 10680, Note_on_c, 0, 52, 0
2, 11160, Note_on_c, 0, 69, 110
2, 11160, Note_on_c, 0, 57, 110
2, 11160, Note_on_c, 0, 62, 110
2, 11160, Note_on_c, 0, 53, 110
2, 11160, Note_on_c, 0, 65, 110
2, 11274, Note_on_c, 0, 65, 0
2, 11274, Note_on_c, 0, 62, 0
2, 11274, Note_on_c, 0, 69, 0
2, 11274, Note_on_c, 0, 57, 0
2, 11274, Note_on_c, 0, 53, 0
2, 11280, Note_on_c, 0, 67, 110
2, 11280, Note_on_c, 0, 55, 110
2, 11280, Note_on_c, 0, 60, 110
2, 11280, Note_on_c, 0, 52, 110
2, 11280, Note_on_c, 0, 64, 110
2, 11394, Note_on_c, 0, 64, 0
2, 11394, Note_on_c, 0, 60, 0
2, 11394, Note_on_c, 0, 67, 0
2, 11394, Note_on_c, 0, 55, 0
2, 11394, Note_on_c, 0, 52, 0
2, 11400, Note_on_c, 0, 65, 110
2, 11400, Note_on_c, 0, 53, 110
2, 11400, Note_on_c, 0, 57, 110
2, 11400, Note_on_c, 0, 62, 110
2, 11514, Note_on_c, 0, 62, 0
2, 11514, Note_on_c, 0, 65, 0
2, 11514, Note_on_c, 0, 53, 0
2, 11514, Note_on_c, 0, 57, 0
2, 11520, Note_on_c, 0, 65, 110
2, 11520, Note_on_c, 0, 53, 110
2, 11520, Note_on_c, 0, 57, 110
2, 11520, Note_on_c, 0, 62, 110
2, 11748, Note_on_c, 0, 62, 0
2, 11748, Note_on_c, 0, 65, 0
2, 11748, Note_on_c, 0, 53, 0
2, 11748, Note_on_c, 0, 57, 0
2, 11760, Note_on_c, 0, 52, 110
2, 11760, Note_on_c, 0, 55, 110
2, 11760, Note_on_c, 0, 60, 110
2, 11760, Note_on_c, 0, 64, 110
2, 11874, Note_on_c, 0, 64, 0
2, 11874, Note_on_c, 0, 52, 0
2, 11874, Note_on_c, 0, 55, 0
2, 11874, Note_on_c, 0, 60, 0
2, 11880, Note_on_c, 0, 52, 110
2, 11880, Note_on_c, 0, 55, 110
2, 11880, Note_on_c, 0, 60, 110
2, 11880, Note_on_c, 0, 64, 110
2, 12108, Note_on_c, 0, 64, 0
2, 12108, Note_on_c, 0, 52, 0
2, 12108, Note_on_c, 0, 55, 0
2, 12108, Note_on_c, 0, 60, 0
2, 12120, Note_on_c, 0, 50, 110
2, 12120, Note_on_c, 0, 55, 110
2, 12120, Note_on_c, 0, 62, 110
2, 12120, Note_on_c, 0, 58, 110
2, 12234, Note_on_c, 0, 58, 0
2, 12234, Note_on_c, 0, 50, 0
2, 12234, Note_on_c, 0, 55, 0
2, 12234, Note_on_c, 0, 62, 0
2, 12240, Note_on_c, 0, 58, 110
2, 12240, Note_on_c, 0, 50, 110
2, 12240, Note_on_c, 0, 55, 110
2, 12240, Note_on_c, 0, 62, 110
2, 12354, Note_on_c, 0, 62, 0
2, 12354, Note_on_c, 0, 58, 0
2, 12354, Note_on_c, 0, 50, 0
2, 12354, Note_on_c, 0, 55, 0
2, 12360, Note_on_c, 0, 58, 110
2, 12360, Note_on_c, 0, 50, 110
2, 12360, Note_on_c, 0, 55, 110
2, 12360, Note_on_c, 0, 62, 110
2, 12474, Note_on_c, 0, 62, 0
2, 12474, Note_on_c, 0, 58, 0
2, 12474, Note_on_c, 0, 50, 0
2, 12474, Note_on_c, 0, 55, 0
2, 12480, Note_on_c, 0, 62, 110
2, 12480, Note_on_c, 0, 52, 110
2, 12480, Note_on_c, 0, 57, 110
2, 12480, Note_on_c, 0, 67, 110
2, 12594, Note_on_c, 0, 67, 0
2, 12594, Note_on_c, 0, 62, 0
2, 12594, Note_on_c, 0, 52, 0
2, 12594, Note_on_c, 0, 57, 0
2, 12600, Note_on_c, 0, 62, 110
2, 12600, Note_on_c, 0, 52, 110
2, 12600, Note_on_c, 0, 57, 110
2, 12600, Note_on_c, 0, 67, 110
2, 12828, Note_on_c, 0, 67, 0
2, 12828, Note_on_c, 0, 62, 0
2, 12828, Note_on_c, 0, 52, 0
2, 12828, Note_on_c, 0, 57, 0
2, 12840, Note_on_c, 0, 52, 110
2, 12840, Note_on_c, 0, 57, 110
2, 12840, Note_on_c, 0, 62, 110
2, 12840, Note_on_c, 0, 67, 110
2, 12954, Note_on_c, 0, 67, 0
2, 12954, Note_on_c, 0, 52, 0
2, 12954, Note_on_c, 0, 57, 0
2, 12954, Note_on_c, 0, 62, 0
2, 12960, Note_on_c, 0, 52, 110
2, 12960, Note_on_c, 0, 57, 110
2, 12960, Note_on_c, 0, 62, 110
2, 12960, Note_on_c, 0, 67, 110
2, 13074, Note_on_c, 0, 67, 0
2, 13074, Note_on_c, 0, 52, 0
2, 13074, Note_on_c, 0, 57, 0
2, 13074, Note_on_c, 0, 62, 0
2, 13080, Note_on_c, 0, 52, 110
2, 13080, Note_on_c, 0, 57, 110
2, 13080, Note_on_c, 0, 62, 110
2, 13080, Note_on_c, 0, 67, 110
2, 13194, Note_on_c, 0, 67, 0
2, 13194, Note_on_c, 0, 52, 0
2, 13194, Note_on_c, 0, 57, 0
2, 13194, Note_on_c, 0, 62, 0
2, 24720, Note_on_c, 0, 35, 110
2, 24720, Note_on_c, 0, 40, 110
2, 24747, Note_on_c, 0, 40, 0
2, 24747, Note_on_c, 0, 35, 0
2, 24780, Note_on_c, 0, 40, 100
2, 24807, Note_on_c, 0, 40, 0
2, 24840, Note_on_c, 0, 40, 100
2, 24867, Note_on_c, 0, 40, 0
2, 24900, Note_on_c, 0, 40, 100
2, 24927, Note_on_c, 0, 40, 0
2, 24960, Note_on_c, 0, 40, 100
2, 24987, Note_on_c, 0, 40, 0
2, 25020, Note_on_c, 0, 40, 100
2, 25047, Note_on_c, 0, 40, 0
2, 25080, Note_on_c, 0, 40, 100
2, 25107, Note_on_c, 0, 40, 0
2, 25140, Note_on_c, 0, 40, 100
2, 25167, Note_on_c, 0, 40, 0
2, 25200, Note_on_c, 0, 40, 100
2, 25227, Note_on_c, 0, 40, 0
2, 25260, Note_on_c, 0, 40, 100
2, 25287, Note_on_c, 0, 40, 0
2, 25320, Note_on_c, 0, 40, 100
2, 25347, Note_on_c, 0, 40, 0
2, 25380, Note_on_c, 0, 35, 110
2, 25380, Note_on_c, 0, 40, 110
2, 25407, Note_on_c, 0, 40, 0
2, 25407, Note_on_c, 0, 35, 0
2, 25440, Note_on_c, 0, 40, 100
2, 25467, Note_on_c, 0, 40, 0
2, 25500, Note_on_c, 0, 40, 100
2, 25527, Note_on_c, 0, 40, 0
2, 25560, Note_on_c, 0, 40, 100
2, 25587, Note_on_c, 0, 40, 0
2, 25620, Note_on_c, 0, 35, 110
2, 25620, Note_on_c, 0, 40, 110
2, 25647, Note_on_c, 0, 40, 0
2, 25647, Note_on_c, 0, 35, 0
2, 25680, Note_on_c, 0, 40, 100
2, 25707, Note_on_c, 0, 40, 0
2, 25740, Note_on_c, 0, 40, 100
2, 25767, Note_on_c, 0, 40, 0
2, 25800, Note_on_c, 0, 40, 100
2, 25827, Note_on_c, 0, 40, 0
2, 25860, Note_on_c, 0, 40, 100
2, 25887, Note_on_c, 0, 40, 0
2, 25920, Note_on_c, 0, 40, 100
2, 25947, Note_on_c, 0, 40, 0
2, 25980, Note_on_c, 0, 40, 100
2, 26007, Note_on_c, 0, 40, 0
2, 26040, Note_on_c, 0, 40, 100
2, 26067, Note_on_c, 0, 40, 0
2, 26100, Note_on_c, 0, 40, 100
2, 26127, Note_on_c, 0, 40, 0
2, 26160, Note_on_c, 0, 35, 111
2, 26160, Note_on_c, 0, 40, 111
2, 26187, Note_on_c, 0, 40, 0
2, 26187, Note_on_c, 0, 35, 0
2, 26220, Note_on_c, 0, 40, 101
2, 26247, Note_on_c, 0, 40, 0
2, 26280, Note_on_c, 0, 40, 100
2, 26307, Note_on_c, 0, 40, 0
2, 26340, Note_on_c, 0, 40, 100
2, 26367, Note_on_c, 0, 40, 0
2, 26400, Note_on_c, 0, 40, 100
2, 26427, Note_on_c, 0, 40, 0
2, 26460, Note_on_c, 0, 40, 100
2, 26487, Note_on_c, 0, 40, 0
2, 26520, Note_on_c, 0, 40, 100
2, 26547, Note_on_c, 0, 40, 0
2, 26580, Note_on_c, 0, 40, 100
2, 26607, Note_on_c, 0, 40, 0
2, 26640, Note_on_c, 0, 40, 100
2, 26667, Note_on_c, 0, 40, 0
2, 26700, Note_on_c, 0, 40, 100
2, 26727, Note_on_c, 0, 40, 0
2, 26760, Note_on_c, 0, 40, 100
2, 26787, Note_on_c, 0, 40, 0
2, 26820, Note_on_c, 0, 35, 111
2, 26820, Note_on_c, 0, 40, 111
2, 26847, Note_on_c, 0, 40, 0
2, 26847, Note_on_c, 0, 35, 0
2, 26880, Note_on_c, 0, 40, 100
2, 26907, Note_on_c, 0, 40, 0
2, 26940, Note_on_c, 0, 40, 100
2, 26967, Note_on_c, 0, 40, 0
2, 27000, Note_on_c, 0, 40, 100
2, 27027, Note_on_c, 0, 40, 0
2, 27060, Note_on_c, 0, 35, 111
2, 27060, Note_on_c, 0, 40, 111
2, 27087, Note_on_c, 0, 40, 0
2, 27087, Note_on_c, 0, 35, 0
2, 27120, Note_on_c, 0, 40, 100
2, 27147, Note_on_c, 0, 40, 0
2, 27180, Note_on_c, 0, 40, 100
2, 27207, Note_on_c, 0, 40, 0
2, 27240, Note_on_c, 0, 40, 100
2, 27267, Note_on_c, 0, 40, 0
2, 27300, Note_on_c, 0, 40, 100
2, 27327, Note_on_c, 0, 40, 0
2, 27360, Note_on_c, 0, 40, 100
2, 27387, Note_on_c, 0, 40, 0
2, 27420, Note_on_c, 0, 40, 100
2, 27447, Note_on_c, 0, 40, 0
2, 27480, Note_on_c, 0, 40, 100
2, 27507, Note_on_c, 0, 40, 0
2, 27540, Note_on_c, 0, 40, 100
2, 27567, Note_on_c, 0, 40, 0
2, 27600, Note_on_c, 0, 40, 100
2, 27600, Note_on_c, 0, 35, 111
2, 27627, Note_on_c, 0, 35, 0
2, 27627, Note_on_c, 0, 40, 0
2, 27660, Note_on_c, 0, 40, 100
2, 27687, Note_on_c, 0, 40, 0
2, 27720, Note_on_c, 0, 40, 100
2, 27747, Note_on_c, 0, 40, 0
2, 27780, Note_on_c, 0, 40, 100
2, 27807, Note_on_c, 0, 40, 0
2, 27840, Note_on_c, 0, 40, 100
2, 27867, Note_on_c, 0, 40, 0
2, 27900, Note_on_c, 0, 40, 100
2, 27927, Note_on_c, 0, 40, 0
2, 27960, Note_on_c, 0, 40, 100
2, 27987, Note_on_c, 0, 40, 0
2, 28020, Note_on_c, 0, 40, 100
2, 28047, Note_on_c, 0, 40, 0
2, 28080, Note_on_c, 0, 40, 100
2, 28107, Note_on_c, 0, 40, 0
2, 28140, Note_on_c, 0, 40, 100
2, 28167, Note_on_c, 0, 40, 0
2, 28200, Note_on_c, 0, 40, 100
2, 28227, Note_on_c, 0, 40, 0
2, 28260, Note_on_c, 0, 35, 112
2, 28260, Note_on_c, 0, 40, 112
2, 28287, Note_on_c, 0, 40, 0
2, 28287, Note_on_c, 0, 35, 0
2, 28320, Note_on_c, 0, 40, 100
2, 28347, Note_on_c, 0, 40, 0
2, 28380, Note_on_c, 0, 40, 100
2, 28407, Note_on_c, 0, 40, 0
2, 28440, Note_on_c, 0, 40, 100
2, 28467, Note_on_c, 0, 40, 0
2, 28500, Note_on_c, 0, 35, 112
2, 28500, Note_on_c, 0, 40, 112
2, 28527, Note_on_c, 0, 40, 0
2, 28527, Note_on_c, 0, 35, 0
2, 28560, Note_on_c, 0, 40, 100
2, 28587, Note_on_c, 0, 40, 0
2, 28620, Note_on_c, 0, 40, 100
2, 28647, Note_on_c, 0, 40, 0
2, 28680, Note_on_c, 0, 40, 100
2, 28707, Note_on_c, 0, 40, 0
2, 28740, Note_on_c, 0, 40, 100
2, 28767, Note_on_c, 0, 40, 0
2, 28800, Note_on_c, 0, 40, 100
2, 28827, Note_on_c, 0, 40, 0
2, 28860, Note_on_c, 0, 40, 100
2, 28887, Note_on_c, 0, 40, 0
2, 28920, Note_on_c, 0, 40, 100
2, 28947, Note_on_c, 0, 40, 0
2, 28980, Note_on_c, 0, 40, 100
2, 29007, Note_on_c, 0, 40, 0
2, 29040, Note_on_c, 0, 35, 112
2, 29040, Note_on_c, 0, 40, 112
2, 29067, Note_on_c, 0, 40, 0
2, 29067, Note_on_c, 0, 35, 0
2, 29100, Note_on_c, 0, 40, 100
2, 29127, Note_on_c, 0, 40, 0
2, 29160, Note_on_c, 0, 40, 100
2, 29187, Note_on_c, 0, 40, 0
2, 29220, Note_on_c, 0, 40, 100
2, 29247, Note_on_c, 0, 40, 0
2, 29280, Note_on_c, 0, 40, 100
2, 29307, Note_on_c, 0, 40, 0
2, 29340, Note_on_c, 0, 40, 100
2, 29367, Note_on_c, 0, 40, 0
2, 29400, Note_on_c, 0, 40, 100
2, 29427, Note_on_c, 0, 40, 0
2, 29460, Note_on_c, 0, 40, 100
2, 29487, Note_on_c, 0, 40, 0
2, 29520, Note_on_c, 0, 40, 100
2, 29547, Note_on_c, 0, 40, 0
2, 29580, Note_on_c, 0, 40, 100
2, 29607, Note_on_c, 0, 40, 0
2, 29640, Note_on_c, 0, 40, 100
2, 29667, Note_on_c, 0, 40, 0
2, 29700, Note_on_c, 0, 35, 111
2, 29700, Note_on_c, 0, 40, 111
2, 29727, Note_on_c, 0, 40, 0
2, 29727, Note_on_c, 0, 35, 0
2, 29760, Note_on_c, 0, 40, 100
2, 29787, Note_on_c, 0, 40, 0
2, 29820, Note_on_c, 0, 40, 100
2, 29847, Note_on_c, 0, 40, 0
2, 29880, Note_on_c, 0, 40, 100
2, 29907, Note_on_c, 0, 40, 0
2, 29940, Note_on_c, 0, 35, 112
2, 29940, Note_on_c, 0, 40, 112
2, 29967, Note_on_c, 0, 40, 0
2, 29967, Note_on_c, 0, 35, 0
2, 30000, Note_on_c, 0, 40, 100
2, 30027, Note_on_c, 0, 40, 0
2, 30060, Note_on_c, 0, 40, 100
2, 30087, Note_on_c, 0, 40, 0
2, 30120, Note_on_c, 0, 40, 100
2, 30147, Note_on_c, 0, 40, 0
2, 30180, Note_on_c, 0, 40, 100
2, 30207, Note_on_c, 0, 40, 0
2, 30240, Note_on_c, 0, 40, 100
2, 30267, Note_on_c, 0, 40, 0
2, 30300, Note_on_c, 0, 40, 100
2, 30327, Note_on_c, 0, 40, 0
2, 30360, Note_on_c, 0, 40, 100
2, 30387, Note_on_c, 0, 40, 0
2, 30420, Note_on_c, 0, 40, 100
2, 30447, Note_on_c, 0, 40, 0
2, 30480, Note_on_c, 0, 40, 100
2, 30480, Note_on_c, 0, 35, 111
2, 30507, Note_on_c, 0, 35, 0
2, 30507, Note_on_c, 0, 40, 0
2, 30540, Note_on_c, 0, 40, 100
2, 30567, Note_on_c, 0, 40, 0
2, 30600, Note_on_c, 0, 40, 100
2, 30627, Note_on_c, 0, 40, 0
2, 30660, Note_on_c, 0, 40, 100
2, 30687, Note_on_c, 0, 40, 0
2, 30720, Note_on_c, 0, 40, 100
2, 30747, Note_on_c, 0, 40, 0
2, 30780, Note_on_c, 0, 40, 100
2, 30807, Note_on_c, 0, 40, 0
2, 30840, Note_on_c, 0, 40, 100
2, 30867, Note_on_c, 0, 40, 0
2, 30900, Note_on_c, 0, 40, 100
2, 30927, Note_on_c, 0, 40, 0
2, 30960, Note_on_c, 0, 40, 100
2, 30987, Note_on_c, 0, 40, 0
2, 31020, Note_on_c, 0, 40, 100
2, 31047, Note_on_c, 0, 40, 0
2, 31080, Note_on_c, 0, 40, 100
2, 31107, Note_on_c, 0, 40, 0
2, 31140, Note_on_c, 0, 35, 112
2, 31140, Note_on_c, 0, 40, 112
2, 31167, Note_on_c, 0, 40, 0
2, 31167, Note_on_c, 0, 35, 0
2, 31200, Note_on_c, 0, 40, 100
2, 31227, Note_on_c, 0, 40, 0
2, 31260, Note_on_c, 0, 40, 100
2, 31287, Note_on_c, 0, 40, 0
2, 31320, Note_on_c, 0, 40, 100
2, 31347, Note_on_c, 0, 40, 0
2, 31380, Note_on_c, 0, 35, 112
2, 31380, Note_on_c, 0, 40, 112
2, 31407, Note_on_c, 0, 40, 0
2, 31407, Note_on_c, 0, 35, 0
2, 31440, Note_on_c, 0, 40, 100
2, 31467, Note_on_c, 0, 40, 0
2, 31500, Note_on_c, 0, 40, 100
2, 31527, Note_on_c, 0, 40, 0
2, 31560, Note_on_c, 0, 40, 100
2, 31587, Note_on_c, 0, 40, 0
2, 31620, Note_on_c, 0, 40, 100
2, 31647, Note_on_c, 0, 40, 0
2, 31680, Note_on_c, 0, 40, 100
2, 31707, Note_on_c, 0, 40, 0
2, 31740, Note_on_c, 0, 40, 100
2, 31767, Note_on_c, 0, 40, 0
2, 31800, Note_on_c, 0, 40, 100
2, 31827, Note_on_c, 0, 40, 0
2, 31860, Note_on_c, 0, 40, 100
2, 31887, Note_on_c, 0, 40, 0
2, 31920, Note_on_c, 0, 35, 112
2, 31920, Note_on_c, 0, 40, 112
2, 31947, Note_on_c, 0, 40, 0
2, 31947, Note_on_c, 0, 35, 0
2, 31980, Note_on_c, 0, 40, 100
2, 32007, Note_on_c, 0, 40, 0
2, 32040, Note_on_c, 0, 40, 100
2, 32067, Note_on_c, 0, 40, 0
2, 32100, Note_on_c, 0, 40, 100
2, 32127, Note_on_c, 0, 40, 0
2, 32160, Note_on_c, 0, 40, 100
2, 32187, Note_on_c, 0, 40, 0
2, 32220, Note_on_c, 0, 40, 100
2, 32247, Note_on_c, 0, 40, 0
2, 32280, Note_on_c, 0, 40, 100
2, 32307, Note_on_c, 0, 40, 0
2, 32340, Note_on_c, 0, 40, 100
2, 32367, Note_on_c, 0, 40, 0
2, 32400, Note_on_c, 0, 40, 100
2, 32427, Note_on_c, 0, 40, 0
2, 32460, Note_on_c, 0, 40, 100
2, 32487, Note_on_c, 0, 40, 0
2, 32520, Note_on_c, 0, 40, 100
2, 32547, Note_on_c, 0, 40, 0
2, 32580, Note_on_c, 0, 35, 111
2, 32580, Note_on_c, 0, 40, 111
2, 32607, Note_on_c, 0, 40, 0
2, 32607, Note_on_c, 0, 35, 0
2, 32640, Note_on_c, 0, 40, 100
2, 32667, Note_on_c, 0, 40, 0
2, 32700, Note_on_c, 0, 40, 100
2, 32727, Note_on_c, 0, 40, 0
2, 32760, Note_on_c, 0, 40, 100
2, 32787, Note_on_c, 0, 40, 0
2, 32820, Note_on_c, 0, 35, 112
2, 32820, Note_on_c, 0, 40, 112
2, 32847, Note_on_c, 0, 40, 0
2, 32847, Note_on_c, 0, 35, 0
2, 32880, Note_on_c, 0, 40, 100
2, 32907, Note_on_c, 0, 40, 0
2, 32940, Note_on_c, 0, 40, 100
2, 32967, Note_on_c, 0, 40, 0
2, 33000, Note_on_c, 0, 40, 100
2, 33027, Note_on_c, 0, 40, 0
2, 33060, Note_on_c, 0, 40, 100
2, 33087, Note_on_c, 0, 40, 0
2, 33120, Note_on_c, 0, 40, 100
2, 33147, Note_on_c, 0, 40, 0
2, 33180, Note_on_c, 0, 40, 100
2, 33207, Note_on_c, 0, 40, 0
2, 33240, Note_on_c, 0, 40, 100
2, 33267, Note_on_c, 0, 40, 0
2, 33300, Note_on_c, 0, 40, 100
2, 33327, Note_on_c, 0, 40, 0
2, 33360, Note_on_c, 0, 40, 100
2, 33360, Note_on_c, 0, 35, 111
2, 33387, Note_on_c, 0, 35, 0
2, 33387, Note_on_c, 0, 40, 0
2, 33420, Note_on_c, 0, 40, 100
2, 33447, Note_on_c, 0, 40, 0
2, 33480, Note_on_c, 0, 40, 100
2, 33507, Note_on_c, 0, 40, 0
2, 33540, Note_on_c, 0, 40, 100
2, 33567, Note_on_c, 0, 40, 0
2, 33600, Note_on_c, 0, 40, 100
2, 33627, Note_on_c, 0, 40, 0
2, 33660, Note_on_c, 0, 40, 100
2, 33687, Note_on_c, 0, 40, 0
2, 33720, Note_on_c, 0, 40, 100
2, 33747, Note_on_c, 0, 40, 0
2, 33780, Note_on_c, 0, 40, 100
2, 33807, Note_on_c, 0, 40, 0
2, 33840, Note_on_c, 0, 40, 100
2, 33867, Note_on_c, 0, 40, 0
2, 33900, Note_on_c, 0, 40, 100
2, 33927, Note_on_c, 0, 40, 0
2, 33960, Note_on_c, 0, 40, 100
2, 33987, Note_on_c, 0, 40, 0
2, 34020, Note_on_c, 0, 35, 112
2, 34020, Note_on_c, 0, 40, 112
2, 34047, Note_on_c, 0, 40, 0
2, 34047, Note_on_c, 0, 35, 0
2, 34080, Note_on_c, 0, 40, 100
2, 34107, Note_on_c, 0, 40, 0
2, 34140, Note_on_c, 0, 40, 100
2, 34167, Note_on_c, 0, 40, 0
2, 34200, Note_on_c, 0, 40, 100
2, 34227, Note_on_c, 0, 40, 0
2, 34260, Note_on_c, 0, 35, 112
2, 34260, Note_on_c, 0, 40, 112
2, 34287, Note_on_c, 0, 40, 0
2, 34287, Note_on_c, 0, 35, 0
2, 34320, Note_on_c, 0, 40, 100
2, 34347, Note_on_c, 0, 40, 0
2, 34380, Note_on_c, 0, 40, 100
2, 34407, Note_on_c, 0, 40, 0
2, 34440, Note_on_c, 0, 40, 100
2, 34467, Note_on_c, 0, 40, 0
2, 34500, Note_on_c, 0, 40, 100
2, 34527, Note_on_c, 0, 40, 0
2, 34560, Note_on_c, 0, 40, 100
2, 34587, Note_on_c, 0, 40, 0
2, 34620, Note_on_c, 0, 40, 100
2, 34647, Note_on_c, 0, 40, 0
2, 34680, Note_on_c, 0, 40, 100
2, 34707, Note_on_c, 0, 40, 0
2, 34740, Note_on_c, 0, 40, 100
2, 34767, Note_on_c, 0, 40, 0
2, 34800, Note_on_c, 0, 35, 112
2, 34800, Note_on_c, 0, 40, 112
2, 34827, Note_on_c, 0, 40, 0
2, 34827, Note_on_c, 0, 35, 0
2, 34860, Note_on_c, 0, 40, 100
2, 34887, Note_on_c, 0, 40, 0
2, 34920, Note_on_c, 0, 40, 100
2, 34947, Note_on_c, 0, 40, 0
2, 34980, Note_on_c, 0, 40, 100
2, 35007, Note_on_c, 0, 40, 0
2, 35040, Note_on_c, 0, 40, 100
2, 35067, Note_on_c, 0, 40, 0
2, 35100, Note_on_c, 0, 40, 100
2, 35127, Note_on_c, 0, 40, 0
2, 35160, Note_on_c, 0, 40, 100
2, 35187, Note_on_c, 0, 40, 0
2, 35220, Note_on_c, 0, 40, 100
2, 35247, Note_on_c, 0, 40, 0
2, 35280, Note_on_c, 0, 40, 100
2, 35307, Note_on_c, 0, 40, 0
2, 35340, Note_on_c, 0, 40, 100
2, 35367, Note_on_c, 0, 40, 0
2, 35400, Note_on_c, 0, 40, 100
2, 35427, Note_on_c, 0, 40, 0
2, 35460, Note_on_c, 0, 35, 111
2, 35460, Note_on_c, 0, 40, 111
2, 35487, Note_on_c, 0, 40, 0
2, 35487, Note_on_c, 0, 35, 0
2, 35520, Note_on_c, 0, 40, 100
2, 35547, Note_on_c, 0, 40, 0
2, 35580, Note_on_c, 0, 40, 100
2, 35607, Note_on_c, 0, 40, 0
2, 35640, Note_on_c, 0, 40, 100
2, 35667, Note_on_c, 0, 40, 0
2, 35700, Note_on_c, 0, 35, 112
2, 35700, Note_on_c, 0, 40, 112
2, 35727, Note_on_c, 0, 40, 0
2, 35727, Note_on_c, 0, 35, 0
2, 35760, Note_on_c, 0, 40, 100
2, 35787, Note_on_c, 0, 40, 0
2, 35820, Note_on_c, 0, 40, 100
2, 35847, Note_on_c, 0, 40, 0
2, 35880, Note_on_c, 0, 40, 100
2, 35907, Note_on_c, 0, 40, 0
2, 35940, Note_on_c, 0, 40, 100
2, 35967, Note_on_c, 0, 40, 0
2, 36000, Note_on_c, 0, 40, 100
2, 36027, Note_on_c, 0, 40, 0
2, 36060, Note_on_c, 0, 40, 100
2, 36087, Note_on_c, 0, 40, 0
2, 36120, Note_on_c, 0, 40, 100
2, 36147, Note_on_c, 0, 40, 0
2, 36180, Note_on_c, 0, 40, 100
2, 36207, Note_on_c, 0, 40, 0
2, 36240, Note_on_c, 0, 40, 100
2, 36240, Note_on_c, 0, 35, 111
2, 36267, Note_on_c, 0, 35, 0
2, 36267, Note_on_c, 0, 40, 0
2, 36300, Note_on_c, 0, 40, 100
2, 36327, Note_on_c, 0, 40, 0
2, 36360, Note_on_c, 0, 40, 100
2, 36387, Note_on_c, 0, 40, 0
2, 36420, Note_on_c, 0, 40, 100
2, 36447, Note_on_c, 0, 40, 0
2, 36480, Note_on_c, 0, 40, 100
2, 36507, Note_on_c, 0, 40, 0
2, 36540, Note_on_c, 0, 40, 100
2, 36567, Note_on_c, 0, 40, 0
2, 36600, Note_on_c, 0, 40, 100
2, 36627, Note_on_c, 0, 40, 0
2, 36660, Note_on_c, 0, 40, 100
2, 36687, Note_on_c, 0, 40, 0
2, 36720, Note_on_c, 0, 40, 100
2, 36747, Note_on_c, 0, 40, 0
2, 36780, Note_on_c, 0, 40, 100
2, 36807, Note_on_c, 0, 40, 0
2, 36840, Note_on_c, 0, 40, 100
2, 36867, Note_on_c, 0, 40, 0
2, 36900, Note_on_c, 0, 35, 112
2, 36900, Note_on_c, 0, 40, 112
2, 36927, Note_on_c, 0, 40, 0
2, 36927, Note_on_c, 0, 35, 0
2, 36960, Note_on_c, 0, 40, 100
2, 36987, Note_on_c, 0, 40, 0
2, 37020, Note_on_c, 0, 40, 100
2, 37047, Note_on_c, 0, 40, 0
2, 37080, Note_on_c, 0, 40, 100
2, 37107, Note_on_c, 0, 40, 0
2, 37140, Note_on_c, 0, 35, 112
2, 37140, Note_on_c, 0, 40, 112
2, 37167, Note_on_c, 0, 40, 0
2, 37167, Note_on_c, 0, 35, 0
2, 37200, Note_on_c, 0, 40, 100
2, 37227, Note_on_c, 0, 40, 0
2, 37260, Note_on_c, 0, 40, 100
2, 37287, Note_on_c, 0, 40, 0
2, 37320, Note_on_c, 0, 40, 100
2, 37347, Note_on_c, 0, 40, 0
2, 37380, Note_on_c, 0, 40, 100
2, 37407, Note_on_c, 0, 40, 0
2, 37440, Note_on_c, 0, 40, 100
2, 37467, Note_on_c, 0, 40, 0
2, 37500, Note_on_c, 0, 40, 100
2, 37527, Note_on_c, 0, 40, 0
2, 37560, Note_on_c, 0, 40, 100
2, 37587, Note_on_c, 0, 40, 0
2, 37620, Note_on_c, 0, 40, 100
2, 37647, Note_on_c, 0, 40, 0
2, 37680, Note_on_c, 0, 35, 112
2, 37680, Note_on_c, 0, 40, 112
2, 37707, Note_on_c, 0, 40, 0
2, 37707, Note_on_c, 0, 35, 0
2, 37740, Note_on_c, 0, 40, 100
2, 37767, Note_on_c, 0, 40, 0
2, 37800, Note_on_c, 0, 40, 100
2, 37827, Note_on_c, 0, 40, 0
2, 37860, Note_on_c, 0, 40, 100
2, 37887, Note_on_c, 0, 40, 0
2, 37920, Note_on_c, 0, 40, 100
2, 37947, Note_on_c, 0, 40, 0
2, 37980, Note_on_c, 0, 40, 100
2, 38007, Note_on_c, 0, 40, 0
2, 38040, Note_on_c, 0, 40, 100
2, 38067, Note_on_c, 0, 40, 0
2, 38100, Note_on_c, 0, 40, 100
2, 38127, Note_on_c, 0, 40, 0
2, 38160, Note_on_c, 0, 40, 100
2, 38187, Note_on_c, 0, 40, 0
2, 38220, Note_on_c, 0, 40, 100
2, 38247, Note_on_c, 0, 40, 0
2, 38280, Note_on_c, 0, 40, 100
2, 38307, Note_on_c, 0, 40, 0
2, 38340, Note_on_c, 0, 35, 111
2, 38340, Note_on_c, 0, 40, 111
2, 38367, Note_on_c, 0, 40, 0
2, 38367, Note_on_c, 0, 35, 0
2, 38400, Note_on_c, 0, 40, 100
2, 38427, Note_on_c, 0, 40, 0
2, 38460, Note_on_c, 0, 40, 100
2, 38487, Note_on_c, 0, 40, 0
2, 38520, Note_on_c, 0, 40, 100
2, 38547, Note_on_c, 0, 40, 0
2, 38580, Note_on_c, 0, 35, 112
2, 38580, Note_on_c, 0, 40, 112
2, 38607, Note_on_c, 0, 40, 0
2, 38607, Note_on_c, 0, 35, 0
2, 38640, Note_on_c, 0, 40, 100
2, 38667, Note_on_c, 0, 40, 0
2, 38700, Note_on_c, 0, 40, 100
2, 38727, Note_on_c, 0, 40, 0
2, 38760, Note_on_c, 0, 40, 100
2, 38787, Note_on_c, 0, 40, 0
2, 38820, Note_on_c, 0, 40, 100
2, 38847, Note_on_c, 0, 40, 0
2, 38880, Note_on_c, 0, 40, 100
2, 38907, Note_on_c, 0, 40, 0
2, 38940, Note_on_c, 0, 40, 100
2, 38967, Note_on_c, 0, 40, 0
2, 39000, Note_on_c, 0, 40, 100
2, 39027, Note_on_c, 0, 40, 0
2, 39060, Note_on_c, 0, 40, 100
2, 39087, Note_on_c, 0, 40, 0
2, 39120, Note_on_c, 0, 40, 100
2, 39120, Note_on_c, 0, 35, 111
2, 39147, Note_on_c, 0, 35, 0
2, 39147, Note_on_c, 0, 40, 0
2, 39180, Note_on_c, 0, 40, 100
2, 39207, Note_on_c, 0, 40, 0
2, 39240, Note_on_c, 0, 40, 100
2, 39267, Note_on_c, 0, 40, 0
2, 39300, Note_on_c, 0, 40, 100
2, 39327, Note_on_c, 0, 40, 0
2, 39360, Note_on_c, 0, 40, 100
2, 39387, Note_on_c, 0, 40, 0
2, 39420, Note_on_c, 0, 40, 100
2, 39447, Note_on_c, 0, 40, 0
2, 39480, Note_on_c, 0, 40, 100
2, 39507, Note_on_c, 0, 40, 0
2, 39540, Note_on_c, 0, 40, 100
2, 39567, Note_on_c, 0, 40, 0
2, 39600, Note_on_c, 0, 40, 100
2, 39627, Note_on_c, 0, 40, 0
2, 39660, Note_on_c, 0, 40, 100
2, 39687, Note_on_c, 0, 40, 0
2, 39720, Note_on_c, 0, 40, 100
2, 39747, Note_on_c, 0, 40, 0
2, 39780, Note_on_c, 0, 35, 112
2, 39780, Note_on_c, 0, 40, 112
2, 39807, Note_on_c, 0, 40, 0
2, 39807, Note_on_c, 0, 35, 0
2, 39840, Note_on_c, 0, 40, 100
2, 39867, Note_on_c, 0, 40, 0
2, 39900, Note_on_c, 0, 40, 100
2, 39927, Note_on_c, 0, 40, 0
2, 39960, Note_on_c, 0, 40, 100
2, 39987, Note_on_c, 0, 40, 0
2, 40020, Note_on_c, 0, 35, 112
2, 40020, Note_on_c, 0, 40, 112
2, 40047, Note_on_c, 0, 40, 0
2, 40047, Note_on_c, 0, 35, 0
2, 40080, Note_on_c, 0, 40, 100
2, 40107, Note_on_c, 0, 40, 0
2, 40140, Note_on_c, 0, 40, 100
2, 40167, Note_on_c, 0, 40, 0
2, 40200, Note_on_c, 0, 40, 100
2, 40227, Note_on_c, 0, 40, 0
2, 40260, Note_on_c, 0, 40, 100
2, 40287, Note_on_c, 0, 40, 0
2, 40320, Note_on_c, 0, 40, 100
2, 40347, Note_on_c, 0, 40, 0
2, 40380, Note_on_c, 0, 40, 100
2, 40407, Note_on_c, 0, 40, 0
2, 40440, Note_on_c, 0, 40, 100
2, 40467, Note_on_c, 0, 40, 0
2, 40500, Note_on_c, 0, 40, 100
2, 40527, Note_on_c, 0, 40, 0
2, 40560, Note_on_c, 0, 35, 112
2, 40560, Note_on_c, 0, 40, 112
2, 40587, Note_on_c, 0, 40, 0
2, 40587, Note_on_c, 0, 35, 0
2, 40620, Note_on_c, 0, 40, 100
2, 40647, Note_on_c, 0, 40, 0
2, 40680, Note_on_c, 0, 40, 100
2, 40707, Note_on_c, 0, 40, 0
2, 40740, Note_on_c, 0, 40, 100
2, 40767, Note_on_c, 0, 40, 0
2, 40800, Note_on_c, 0, 40, 100
2, 40827, Note_on_c, 0, 40, 0
2, 40860, Note_on_c, 0, 40, 100
2, 40887, Note_on_c, 0, 40, 0
2, 40920, Note_on_c, 0, 40, 100
2, 40947, Note_on_c, 0, 40, 0
2, 40980, Note_on_c, 0, 40, 100
2, 41007, Note_on_c, 0, 40, 0
2, 41040, Note_on_c, 0, 40, 100
2, 41067, Note_on_c, 0, 40, 0
2, 41100, Note_on_c, 0, 40, 100
2, 41127, Note_on_c, 0, 40, 0
2, 41160, Note_on_c, 0, 40, 100
2, 41187, Note_on_c, 0, 40, 0
2, 41220, Note_on_c, 0, 35, 111
2, 41220, Note_on_c, 0, 40, 111
2, 41247, Note_on_c, 0, 40, 0
2, 41247, Note_on_c, 0, 35, 0
2, 41280, Note_on_c, 0, 40, 100
2, 41307, Note_on_c, 0, 40, 0
2, 41340, Note_on_c, 0, 40, 100
2, 41367, Note_on_c, 0, 40, 0
2, 41400, Note_on_c, 0, 40, 100
2, 41427, Note_on_c, 0, 40, 0
2, 41460, Note_on_c, 0, 35, 112
2, 41460, Note_on_c, 0, 40, 112
2, 41487, Note_on_c, 0, 40, 0
2, 41487, Note_on_c, 0, 35, 0
2, 41520, Note_on_c, 0, 40, 100
2, 41547, Note_on_c, 0, 40, 0
2, 41580, Note_on_c, 0, 40, 100
2, 41607, Note_on_c, 0, 40, 0
2, 41640, Note_on_c, 0, 40, 100
2, 41667, Note_on_c, 0, 40, 0
2, 41700, Note_on_c, 0, 40, 100
2, 41727, Note_on_c, 0, 40, 0
2, 41760, Note_on_c, 0, 40, 100
2, 41787, Note_on_c, 0, 40, 0
2, 41820, Note_on_c, 0, 40, 100
2, 41847, Note_on_c, 0, 40, 0
2, 41880, Note_on_c, 0, 40, 100
2, 41907, Note_on_c, 0, 40, 0
2, 41940, Note_on_c, 0, 40, 100
2, 41967, Note_on_c, 0, 40, 0
2, 42000, Note_on_c, 0, 40, 100
2, 42000, Note_on_c, 0, 35, 111
2, 42027, Note_on_c, 0, 35, 0
2, 42027, Note_on_c, 0, 40, 0
2, 42060, Note_on_c, 0, 40, 100
2, 42087, Note_on_c, 0, 40, 0
2, 42120, Note_on_c, 0, 40, 100
2, 42147, Note_on_c, 0, 40, 0
2, 42180, Note_on_c, 0, 40, 100
2, 42207, Note_on_c, 0, 40, 0
2, 42240, Note_on_c, 0, 40, 100
2, 42267, Note_on_c, 0, 40, 0
2, 42300, Note_on_c, 0, 40, 100
2, 42327, Note_on_c, 0, 40, 0
2, 42360, Note_on_c, 0, 40, 100
2, 42387, Note_on_c, 0, 40, 0
2, 42420, Note_on_c, 0, 40, 100
2, 42447, Note_on_c, 0, 40, 0
2, 42480, Note_on_c, 0, 40, 100
2, 42507, Note_on_c, 0, 40, 0
2, 42540, Note_on_c, 0, 40, 100
2, 42567, Note_on_c, 0, 40, 0
2, 42600, Note_on_c, 0, 40, 100
2, 42627, Note_on_c, 0, 40, 0
2, 42660, Note_on_c, 0, 35, 112
2, 42660, Note_on_c, 0, 40, 112
2, 42687, Note_on_c, 0, 40, 0
2, 42687, Note_on_c, 0, 35, 0
2, 42720, Note_on_c, 0, 40, 100
2, 42747, Note_on_c, 0, 40, 0
2, 42780, Note_on_c, 0, 40, 100
2, 42807, Note_on_c, 0, 40, 0
2, 42840, Note_on_c, 0, 40, 100
2, 42867, Note_on_c, 0, 40, 0
2, 42900, Note_on_c, 0, 35, 112
2, 42900, Note_on_c, 0, 40, 112
2, 42927, Note_on_c, 0, 40, 0
2, 42927, Note_on_c, 0, 35, 0
2, 42960, Note_on_c, 0, 40, 100
2, 42987, Note_on_c, 0, 40, 0
2, 43020, Note_on_c, 0, 40, 100
2, 43047, Note_on_c, 0, 40, 0
2, 43080, Note_on_c, 0, 40, 100
2, 43107, Note_on_c, 0, 40, 0
2, 43140, Note_on_c, 0, 40, 100
2, 43167, Note_on_c, 0, 40, 0
2, 43200, Note_on_c, 0, 40, 100
2, 43227, Note_on_c, 0, 40, 0
2, 43260, Note_on_c, 0, 40, 100
2, 43287, Note_on_c, 0, 40, 0
2, 43320, Note_on_c, 0, 40, 100
2, 43347, Note_on_c, 0, 40, 0
2, 43380, Note_on_c, 0, 40, 100
2, 43407, Note_on_c, 0, 40, 0
2, 43440, Note_on_c, 0, 35, 112
2, 43440, Note_on_c, 0, 40, 112
2, 43467, Note_on_c, 0, 40, 0
2, 43467, Note_on_c, 0, 35, 0
2, 43500, Note_on_c, 0, 40, 100
2, 43527, Note_on_c, 0, 40, 0
2, 43560, Note_on_c, 0, 40, 100
2, 43587, Note_on_c, 0, 40, 0
2, 43620, Note_on_c, 0, 40, 100
2, 43647, Note_on_c, 0, 40, 0
2, 43680, Note_on_c, 0, 40, 100
2, 43707, Note_on_c, 0, 40, 0
2, 43740, Note_on_c, 0, 40, 100
2, 43767, Note_on_c, 0, 40, 0
2, 43800, Note_on_c, 0, 40, 100
2, 43827, Note_on_c, 0, 40, 0
2, 43860, Note_on_c, 0, 40, 100
2, 43887, Note_on_c, 0, 40, 0
2, 43920, Note_on_c, 0, 40, 100
2, 43947, Note_on_c, 0, 40, 0
2, 43980, Note_on_c, 0, 40, 100
2, 44007, Note_on_c, 0, 40, 0
2, 44040, Note_on_c, 0, 40, 100
2, 44067, Note_on_c, 0, 40, 0
2, 44100, Note_on_c, 0, 35, 111
2, 44100, Note_on_c, 0, 40, 111
2, 44127, Note_on_c, 0, 40, 0
2, 44127, Note_on_c, 0, 35, 0
2, 44160, Note_on_c, 0, 40, 100
2, 44187, Note_on_c, 0, 40, 0
2, 44220, Note_on_c, 0, 40, 100
2, 44247, Note_on_c, 0, 40, 0
2, 44280, Note_on_c, 0, 40, 100
2, 44307, Note_on_c, 0, 40, 0
2, 44340, Note_on_c, 0, 35, 112
2, 44340, Note_on_c, 0, 40, 112
2, 44367, Note_on_c, 0, 40, 0
2, 44367, Note_on_c, 0, 35, 0
2, 44400, Note_on_c, 0, 40, 100
2, 44427, Note_on_c, 0, 40, 0
2, 44460, Note_on_c, 0, 40, 100
2, 44487, Note_on_c, 0, 40, 0
2, 44520, Note_on_c, 0, 40, 100
2, 44547, Note_on_c, 0, 40, 0
2, 44580, Note_on_c, 0, 40, 100
2, 44607, Note_on_c, 0, 40, 0
2, 44640, Note_on_c, 0, 40, 100
2, 44667, Note_on_c, 0, 40, 0
2, 44700, Note_on_c, 0, 40, 100
2, 44727, Note_on_c, 0, 40, 0
2, 44760, Note_on_c, 0, 40, 100
2, 44787, Note_on_c, 0, 40, 0
2, 44820, Note_on_c, 0, 40, 100
2, 44847, Note_on_c, 0, 40, 0
2, 44880, Note_on_c, 0, 40, 100
2, 44880, Note_on_c, 0, 35, 111
2, 44907, Note_on_c, 0, 35, 0
2, 44907, Note_on_c, 0, 40, 0
2, 44940, Note_on_c, 0, 40, 100
2, 44967, Note_on_c, 0, 40, 0
2, 45000, Note_on_c, 0, 40, 100
2, 45027, Note_on_c, 0, 40, 0
2, 45060, Note_on_c, 0, 40, 100
2, 45087, Note_on_c, 0, 40, 0
2, 45120, Note_on_c, 0, 40, 100
2, 45147, Note_on_c, 0, 40, 0
2, 45180, Note_on_c, 0, 40, 100
2, 45207, Note_on_c, 0, 40, 0
2, 45240, Note_on_c, 0, 40, 100
2, 45267, Note_on_c, 0, 40, 0
2, 45300, Note_on_c, 0, 40, 100
2, 45327, Note_on_c, 0, 40, 0
2, 45360, Note_on_c, 0, 40, 100
2, 45387, Note_on_c, 0, 40, 0
2, 45420, Note_on_c, 0, 40, 100
2, 45447, Note_on_c, 0, 40, 0
2, 45480, Note_on_c, 0, 40, 100
2, 45507, Note_on_c, 0, 40, 0
2, 45540, Note_on_c, 0, 35, 112
2, 45540, Note_on_c, 0, 40, 112
2, 45567, Note_on_c, 0, 40, 0
2, 45567, Note_on_c, 0, 35, 0
2, 45600, Note_on_c, 0, 40, 100
2, 45627, Note_on_c, 0, 40, 0
2, 45660, Note_on_c, 0, 40, 100
2, 45687, Note_on_c, 0, 40, 0
2, 45720, Note_on_c, 0, 40, 100
2, 45747, Note_on_c, 0, 40, 0
2, 45780, Note_on_c, 0, 35, 112
2, 45780, Note_on_c, 0, 40, 112
2, 45807, Note_on_c, 0, 40, 0
2, 45807, Note_on_c, 0, 35, 0
2, 45840, Note_on_c, 0, 40, 100
2, 45867, Note_on_c, 0, 40, 0
2, 45900, Note_on_c, 0, 40, 100
2, 45927, Note_on_c, 0, 40, 0
2, 45960, Note_on_c, 0, 40, 100
2, 45987, Note_on_c, 0, 40, 0
2, 46020, Note_on_c, 0, 40, 100
2, 46047, Note_on_c, 0, 40, 0
2, 46080, Note_on_c, 0, 40, 100
2, 46107, Note_on_c, 0, 40, 0
2, 46140, Note_on_c, 0, 40, 100
2, 46167, Note_on_c, 0, 40, 0
2, 46200, Note_on_c, 0, 40, 100
2, 46227, Note_on_c, 0, 40, 0
2, 46260, Note_on_c, 0, 40, 100
2, 46287, Note_on_c, 0, 40, 0
2, 46320, Note_on_c, 0, 35, 112
2, 46320, Note_on_c, 0, 40, 112
2, 46347, Note_on_c, 0, 40, 0
2, 46347, Note_on_c, 0, 35, 0
2, 46380, Note_on_c, 0, 40, 100
2, 46407, Note_on_c, 0, 40, 0
2, 46440, Note_on_c, 0, 40, 100
2, 46467, Note_on_c, 0, 40, 0
2, 46500, Note_on_c, 0, 40, 100
2, 46527, Note_on_c, 0, 40, 0
2, 46560, Note_on_c, 0, 40, 100
2, 46587, Note_on_c, 0, 40, 0
2, 46620, Note_on_c, 0, 40, 100
2, 46647, Note_on_c, 0, 40, 0
2, 46680, Note_on_c, 0, 40, 100
2, 46707, Note_on_c, 0, 40, 0
2, 46740, Note_on_c, 0, 40, 100
2, 46767, Note_on_c, 0, 40, 0
2, 46800, Note_on_c, 0, 40, 100
2, 46827, Note_on_c, 0, 40, 0
2, 46860, Note_on_c, 0, 40, 100
2, 46887, Note_on_c, 0, 40, 0
2, 46920, Note_on_c, 0, 40, 100
2, 46947, Note_on_c, 0, 40, 0
2, 46980, Note_on_c, 0, 35, 111
2, 46980, Note_on_c, 0, 40, 111
2, 47007, Note_on_c, 0, 40, 0
2, 47007, Note_on_c, 0, 35, 0
2, 47040, Note_on_c, 0, 40, 100
2, 47067, Note_on_c, 0, 40, 0
2, 47100, Note_on_c, 0, 40, 100
2, 47127, Note_on_c, 0, 40, 0
2, 47160, Note_on_c, 0, 40, 100
2, 47187, Note_on_c, 0, 40, 0
2, 47220, Note_on_c, 0, 35, 112
2, 47220, Note_on_c, 0, 40, 112
2, 47247, Note_on_c, 0, 40, 0
2, 47247, Note_on_c, 0, 35, 0
2, 47280, Note_on_c, 0, 40, 100
2, 47307, Note_on_c, 0, 40, 0
2, 47340, Note_on_c, 0, 40, 100
2, 47367, Note_on_c, 0, 40, 0
2, 47400, Note_on_c, 0, 40, 100
2, 47427, Note_on_c, 0, 40, 0
2, 47460, Note_on_c, 0, 40, 100
2, 47487, Note_on_c, 0, 40, 0
2, 47520, Note_on_c, 0, 40, 100
2, 47547, Note_on_c, 0, 40, 0
2, 47580, Note_on_c, 0, 40, 100
2, 47607, Note_on_c, 0, 40, 0
2, 47640, Note_on_c, 0, 40, 100
2, 47667, Note_on_c, 0, 40, 0
2, 47700, Note_on_c, 0, 40, 100
2, 47727, Note_on_c, 0, 40, 0
2, 50640, Note_on_c, 0, 45, 110
2, 50640, Note_on_c, 0, 57, 110
2, 50640, Note_on_c, 0, 60, 110
2, 50640, Note_on_c, 0, 69, 110
2, 50640, Note_on_c, 0, 64, 110
2, 50760, Note_on_c, 0, 64, 0
2, 50760, Note_on_c, 0, 60, 0
2, 50760, Note_on_c, 0, 45, 0
2, 50760, Note_on_c, 0, 57, 0
2, 50760, Note_on_c, 0, 69, 0
2, 50760, Note_on_c, 0, 43, 110
2, 50760, Note_on_c, 0, 59, 110
2, 50760, Note_on_c, 0, 67, 110
2, 50760, Note_on_c, 0, 55, 110
2, 50760, Note_on_c, 0, 62, 110
2, 50880, Note_on_c, 0, 62, 0
2, 50880, Note_on_c, 0, 67, 0
2, 50880, Note_on_c, 0, 43, 0
2, 50880, Note_on_c, 0, 59, 0
2, 50880, Note_on_c, 0, 55, 0
2, 50880, Note_on_c, 0, 42, 110
2, 50880, Note_on_c, 0, 57, 110
2, 50880, Note_on_c, 0, 66, 110
2, 50880, Note_on_c, 0, 54, 110
2, 50880, Note_on_c, 0, 60, 110
2, 51000, Note_on_c, 0, 60, 0
2, 51000, Note_on_c, 0, 66, 0
2, 51000, Note_on_c, 0, 42, 0
2, 51000, Note_on_c, 0, 57, 0
2, 51000, Note_on_c, 0, 54, 0
2, 51000, Note_on_c, 0, 40, 110
2, 51000, Note_on_c, 0, 55, 110
2, 51000, Note_on_c, 0, 64, 110
2, 51000, Note_on_c, 0, 52, 110
2, 51000, Note_on_c, 0, 59, 110
2, 51120, Note_on_c, 0, 59, 0
2, 51120, Note_on_c, 0, 64, 0
2, 51120, Note_on_c, 0, 40, 0
2, 51120, Note_on_c, 0, 55, 0
2, 51120, Note_on_c, 0, 52, 0
2, 51120, Note_on_c, 0, 38, 110
2, 51120, Note_on_c, 0, 54, 110
2, 51120, Note_on_c, 0, 62, 110
2, 51120, Note_on_c, 0, 50, 110
2, 51120, Note_on_c, 0, 57, 110
2, 51240, Note_on_c, 0, 57, 0
2, 51240, Note_on_c, 0, 62, 0
2, 51240, Note_on_c, 0, 38, 0
2, 51240, Note_on_c, 0, 54, 0
2, 51240, Note_on_c, 0, 50, 0
2, 51240, Note_on_c, 0, 40, 110
2, 51240, Note_on_c, 0, 55, 110
2, 51240, Note_on_c, 0, 64, 110
2, 51240, Note_on_c, 0, 52, 110
2, 51240, Note_on_c, 0, 59, 110
2, 51360, Note_on_c, 0, 59, 0
2, 51360, Note_on_c, 0, 64, 0
2, 51360, Note_on_c, 0, 40, 0
2, 51360, Note_on_c, 0, 55, 0
2, 51360, Note_on_c, 0, 52, 0
2, 51360, Note_on_c, 0, 46, 110
2, 51360, Note_on_c, 0, 50, 110
2, 51360, Note_on_c, 0, 53, 110
2, 51360, Note_on_c, 0, 58, 110
2, 51360, Note_on_c, 0, 62, 110
2, 51480, Note_on_c, 0, 62, 0
2, 51480, Note_on_c, 0, 53, 0
2, 51480, Note_on_c, 0, 46, 0
2, 51480, Note_on_c, 0, 50, 0
2, 51480, Note_on_c, 0, 58, 0
2, 51480, Note_on_c, 0, 48, 102
2, 51480, Note_on_c, 0, 64, 102
2, 51480, Note_on_c, 0, 55, 102
2, 51480, Note_on_c, 0, 52, 102
2, 51480, Note_on_c, 0, 60, 102
2, 51600, Note_on_c, 0, 60, 0
2, 51600, Note_on_c, 0, 55, 0
2, 51600, Note_on_c, 0, 48, 0
2, 51600, Note_on_c, 0, 64, 0
2, 51600, Note_on_c, 0, 52, 0
2, 52080, Note_on_c, 0, 69, 108
2, 52080, Note_on_c, 0, 57, 108
2, 52080, Note_on_c, 0, 62, 108
2, 52080, Note_on_c, 0, 53, 108
2, 52080, Note_on_c, 0, 65, 108
2, 52194, Note_on_c, 0, 65, 0
2, 52194, Note_on_c, 0, 62, 0
2, 52194, Note_on_c, 0, 69, 0
2, 52194, Note_on_c, 0, 57, 0
2, 52194, Note_on_c, 0, 53, 0
2, 52200, Note_on_c, 0, 67, 108
2, 52200, Note_on_c, 0, 55, 108
2, 52200, Note_on_c, 0, 60, 108
2, 52200, Note_on_c, 0, 52, 108
2, 52200, Note_on_c, 0, 64, 108
2, 52314, Note_on_c, 0, 64, 0
2, 52314, Note_on_c, 0, 60, 0
2, 52314, Note_on_c, 0, 67, 0
2, 52314, Note_on_c, 0, 55, 0
2, 52314, Note_on_c, 0, 52, 0
2, 52320, Note_on_c, 0, 65, 108
2, 52320, Note_on_c, 0, 53, 108
2, 52320, Note_on_c, 0, 57, 108
2, 52320, Note_on_c, 0, 62, 108
2, 52434, Note_on_c, 0, 62, 0
2, 52434, Note_on_c, 0, 65, 0
2, 52434, Note_on_c, 0, 53, 0
2, 52434, Note_on_c, 0, 57, 0
2, 52440, Note_on_c, 0, 65, 108
2, 52440, Note_on_c, 0, 53, 108
2, 52440, Note_on_c, 0, 57, 108
2, 52440, Note_on_c, 0, 62, 108
2, 52668, Note_on_c, 0, 62, 0
2, 52668, Note_on_c, 0, 65, 0
2, 52668, Note_on_c, 0, 53, 0
2, 52668, Note_on_c, 0, 57, 0
2, 52680, Note_on_c, 0, 52, 108
2, 52680, Note_on_c, 0, 55, 108
2, 52680, Note_on_c, 0, 60, 108
2, 52680, Note_on_c, 0, 64, 108
2, 52794, Note_on_c, 0, 64, 0
2, 52794, Note_on_c, 0, 52, 0
2, 52794, Note_on_c, 0, 55, 0
2, 52794, Note_on_c, 0, 60, 0
2, 52800, Note_on_c, 0, 52, 108
2, 52800, Note_on_c, 0, 55, 108
2, 52800, Note_on_c, 0, 60, 108
2, 52800, Note_on_c, 0, 64, 108
2, 53028, Note_on_c, 0, 64, 0
2, 53028, Note_on_c, 0, 52, 0
2, 53028, Note_on_c, 0, 55, 0
2, 53028, Note_on_c, 0, 60, 0
2, 53040, Note_on_c, 0, 50, 108
2, 53040, Note_on_c, 0, 55, 108
2, 53040, Note_on_c, 0, 62, 108
2, 53040, Note_on_c, 0, 58, 108
2, 53154, Note_on_c, 0, 58, 0
2, 53154, Note_on_c, 0, 50, 0
2, 53154, Note_on_c, 0, 55, 0
2, 53154, Note_on_c, 0, 62, 0
2, 53160, Note_on_c, 0, 58, 107
2, 53160, Note_on_c, 0, 50, 107
2, 53160, Note_on_c, 0, 55, 107
2, 53160, Note_on_c, 0, 62, 107
2, 53274, Note_on_c, 0, 62, 0
2, 53274, Note_on_c, 0, 58, 0
2, 53274, Note_on_c, 0, 50, 0
2, 53274, Note_on_c, 0, 55, 0
2, 53280, Note_on_c, 0, 58, 107
2, 53280, Note_on_c, 0, 50, 107
2, 53280, Note_on_c, 0, 55, 107
2, 53280, Note_on_c, 0, 62, 107
2, 53394, Note_on_c, 0, 62, 0
2, 53394, Note_on_c, 0, 58, 0
2, 53394, Note_on_c, 0, 50, 0
2, 53394, Note_on_c, 0, 55, 0
2, 53400, Note_on_c, 0, 62, 107
2, 53400, Note_on_c, 0, 52, 107
2, 53400, Note_on_c, 0, 57, 107
2, 53400, Note_on_c, 0, 67, 107
2, 53514, Note_on_c, 0, 67, 0
2, 53514, Note_on_c, 0, 62, 0
2, 53514, Note_on_c, 0, 52, 0
2, 53514, Note_on_c, 0, 57, 0
2, 53520, Note_on_c, 0, 62, 107
2, 53520, Note_on_c, 0, 52, 107
2, 53520, Note_on_c, 0, 57, 107
2, 53520, Note_on_c, 0, 67, 107
2, 53748, Note_on_c, 0, 67, 0
2, 53748, Note_on_c, 0, 62, 0
2, 53748, Note_on_c, 0, 52, 0
2, 53748, Note_on_c, 0, 57, 0
2, 53760, Note_on_c, 0, 52, 107
2, 53760, Note_on_c, 0, 57, 107
2, 53760, Note_on_c, 0, 62, 107
2, 53760, Note_on_c, 0, 67, 107
2, 53874, Note_on_c, 0, 67, 0
2, 53874, Note_on_c, 0, 52, 0
2, 53874, Note_on_c, 0, 57, 0
2, 53874, Note_on_c, 0, 62, 0
2, 53880, Note_on_c, 0, 52, 107
2, 53880, Note_on_c, 0, 57, 107
2, 53880, Note_on_c, 0, 62, 107
2, 53880, Note_on_c, 0, 67, 107
2, 53994, Note_on_c, 0, 67, 0
2, 53994, Note_on_c, 0, 52, 0
2, 53994, Note_on_c, 0, 57, 0
2, 53994, Note_on_c, 0, 62, 0
2, 54000, Note_on_c, 0, 52, 107
2, 54000, Note_on_c, 0, 57, 107
2, 54000, Note_on_c, 0, 62, 107
2, 54000, Note_on_c, 0, 67, 107
2, 54114, Note_on_c, 0, 67, 0
2, 54114, Note_on_c, 0, 52, 0
2, 54114, Note_on_c, 0, 57, 0
2, 54114, Note_on_c, 0, 62, 0
2, 65640, Note_on_c, 0, 35, 110
2, 65640, Note_on_c, 0, 40, 110
2, 65667, Note_on_c, 0, 40, 0
2, 65667, Note_on_c, 0, 35, 0
2, 65700, Note_on_c, 0, 40, 100
2, 65727, Note_on_c, 0, 40, 0
2, 65760, Note_on_c, 0, 40, 100
2, 65787, Note_on_c, 0, 40, 0
2, 65820, Note_on_c, 0, 40, 100
2, 65847, Note_on_c, 0, 40, 0
2, 65880, Note_on_c, 0, 40, 100
2, 65907, Note_on_c, 0, 40, 0
2, 65940, Note_on_c, 0, 40, 100
2, 65967, Note_on_c, 0, 40, 0
2, 66000, Note_on_c, 0, 40, 100
2, 66027, Note_on_c, 0, 40, 0
2, 66060, Note_on_c, 0, 40, 100
2, 66087, Note_on_c, 0, 40, 0
2, 66120, Note_on_c, 0, 40, 100
2, 66147, Note_on_c, 0, 40, 0
2, 66180, Note_on_c, 0, 40, 100
2, 66207, Note_on_c, 0, 40, 0
2, 66240, Note_on_c, 0, 40, 100
2, 66267, Note_on_c, 0, 40, 0
2, 66300, Note_on_c, 0, 35, 110
2, 66300, Note_on_c, 0, 40, 110
2, 66327, Note_on_c, 0, 40, 0
2, 66327, Note_on_c, 0, 35, 0
2, 66360, Note_on_c, 0, 40, 100
2, 66387, Note_on_c, 0, 40, 0
2, 66420, Note_on_c, 0, 40, 100
2, 66447, Note_on_c, 0, 40, 0
2, 66480, Note_on_c, 0, 40, 100
2, 66507, Note_on_c, 0, 40, 0
2, 66540, Note_on_c, 0, 35, 110
2, 66540, Note_on_c, 0, 40, 110
2, 66567, Note_on_c, 0, 40, 0
2, 66567, Note_on_c, 0, 35, 0
2, 66600, Note_on_c, 0, 40, 100
2, 66627, Note_on_c, 0, 40, 0
2, 66660, Note_on_c, 0, 40, 100
2, 66687, Note_on_c, 0, 40, 0
2, 66720, Note_on_c, 0, 40, 100
2, 66747, Note_on_c, 0, 40, 0
2, 66780, Note_on_c, 0, 40, 100
2, 66807, Note_on_c, 0, 40, 0
2, 66840, Note_on_c, 0, 40, 100
2, 66867, Note_on_c, 0, 40, 0
2, 66900, Note_on_c, 0, 40, 100
2, 66927, Note_on_c, 0, 40, 0
2, 66960, Note_on_c, 0, 40, 100
2, 66987, Note_on_c, 0, 40, 0
2, 67020, Note_on_c, 0, 40, 100
2, 67047, Note_on_c, 0, 40, 0
2, 67080, Note_on_c, 0, 35, 111
2, 67080, Note_on_c, 0, 40, 111
2, 67107, Note_on_c, 0, 40, 0
2, 67107, Note_on_c, 0, 35, 0
2, 67140, Note_on_c, 0, 40, 101
2, 67167, Note_on_c, 0, 40, 0
2, 67200, Note_on_c, 0, 40, 100
2, 67227, Note_on_c, 0, 40, 0
2, 67260, Note_on_c, 0, 40, 100
2, 67287, Note_on_c, 0, 40, 0
2, 67320, Note_on_c, 0, 40, 100
2, 67347, Note_on_c, 0, 40, 0
2, 67380, Note_on_c, 0, 40, 100
2, 67407, Note_on_c, 0, 40, 0
2, 67440, Note_on_c, 0, 40, 100
2, 67467, Note_on_c, 0, 40, 0
2, 67500, Note_on_c, 0, 40, 100
2, 67527, Note_on_c, 0, 40, 0
2, 67560, Note_on_c, 0, 40, 100
2, 67587, Note_on_c, 0, 40, 0
2, 67620, Note_on_c, 0, 40, 100
2, 67647, Note_on_c, 0, 40, 0
2, 67680, Note_on_c, 0, 40, 100
2, 67707, Note_on_c, 0, 40, 0
2, 67740, Note_on_c, 0, 35, 111
2, 67740, Note_on_c, 0, 40, 111
2, 67767, Note_on_c, 0, 40, 0
2, 67767, Note_on_c, 0, 35, 0
2, 67800, Note_on_c, 0, 40, 100
2, 67827, Note_on_c, 0, 40, 0
2, 67860, Note_on_c, 0, 40, 100
2, 67887, Note_on_c, 0, 40, 0
2, 67920, Note_on_c, 0, 40, 100
2, 67947, Note_on_c, 0, 40, 0
2, 67980, Note_on_c, 0, 35, 111
2, 67980, Note_on_c, 0, 40, 111
2, 68007, Note_on_c, 0, 40, 0
2, 68007, Note_on_c, 0, 35, 0
2, 68040, Note_on_c, 0, 40, 100
2, 68067, Note_on_c, 0, 40, 0
2, 68100, Note_on_c, 0, 40, 100
2, 68127, Note_on_c, 0, 40, 0
2, 68160, Note_on_c, 0, 40, 100
2, 68187, Note_on_c, 0, 40, 0
2, 68220, Note_on_c, 0, 40, 100
2, 68247, Note_on_c, 0, 40, 0
2, 68280, Note_on_c, 0, 40, 100
2, 68307, Note_on_c, 0, 40, 0
2, 68340, Note_on_c, 0, 40, 100
2, 68367, Note_on_c, 0, 40, 0
2, 68400, Note_on_c, 0, 40, 100
2, 68427, Note_on_c, 0, 40, 0
2, 68460, Note_on_c, 0, 40, 100
2, 68487, Note_on_c, 0, 40, 0
2, 68520, Note_on_c, 0, 40, 100
2, 68520, Note_on_c, 0, 35, 111
2, 68547, Note_on_c, 0, 35, 0
2, 68547, Note_on_c, 0, 40, 0
2, 68580, Note_on_c, 0, 40, 100
2, 68607, Note_on_c, 0, 40, 0
2, 68640, Note_on_c, 0, 40, 100
2, 68667, Note_on_c, 0, 40, 0
2, 68700, Note_on_c, 0, 40, 100
2, 68727, Note_on_c, 0, 40, 0
2, 68760, Note_on_c, 0, 40, 100
2, 68787, Note_on_c, 0, 40, 0
2, 68820, Note_on_c, 0, 40, 100
2, 68847, Note_on_c, 0, 40, 0
2, 68880, Note_on_c, 0, 40, 100
2, 68907, Note_on_c, 0, 40, 0
2, 68940, Note_on_c, 0, 40, 100
2, 68967, Note_on_c, 0, 40, 0
2, 69000, Note_on_c, 0, 40, 100
2, 69027, Note_on_c, 0, 40, 0
2, 69060, Note_on_c, 0, 40, 100
2, 69087, Note_on_c, 0, 40, 0
2, 69120, Note_on_c, 0, 40, 100
2, 69147, Note_on_c, 0, 40, 0
2, 69180, Note_on_c, 0, 35, 112
2, 69180, Note_on_c, 0, 40, 112
2, 69207, Note_on_c, 0, 40, 0
2, 69207, Note_on_c, 0, 35, 0
2, 69240, Note_on_c, 0, 40, 100
2, 69267, Note_on_c, 0, 40, 0
2, 69300, Note_on_c, 0, 40, 100
2, 69327, Note_on_c, 0, 40, 0
2, 69360, Note_on_c, 0, 40, 100
2, 69387, Note_on_c, 0, 40, 0
2, 69420, Note_on_c, 0, 35, 112
2, 69420, Note_on_c, 0, 40, 112
2, 69447, Note_on_c, 0, 40, 0
2, 69447, Note_on_c, 0, 35, 0
2, 69480, Note_on_c, 0, 40, 100
2, 69507, Note_on_c, 0, 40, 0
2, 69540, Note_on_c, 0, 40, 100
2, 69567, Note_on_c, 0, 40, 0
2, 69600, Note_on_c, 0, 40, 100
2, 69627, Note_on_c, 0, 40, 0
2, 69660, Note_on_c, 0, 40, 100
2, 69687, Note_on_c, 0, 40, 0
2, 69720, Note_on_c, 0, 40, 100
2, 69747, Note_on_c, 0, 40, 0
2, 69780, Note_on_c, 0, 40, 100
2, 69807, Note_on_c, 0, 40, 0
2, 69840, Note_on_c, 0, 40, 100
2, 69867, Note_on_c, 0, 40, 0
2, 69900, Note_on_c, 0, 40, 100
2, 69927, Note_on_c, 0, 40, 0
2, 69960, Note_on_c, 0, 35, 112
2, 69960, Note_on_c, 0, 40, 112
2, 69987, Note_on_c, 0, 40, 0
2, 69987, Note_on_c, 0, 35, 0
2, 70020, Note_on_c, 0, 40, 100
2, 70047, Note_on_c, 0, 40, 0
2, 70080, Note_on_c, 0, 40, 100
2, 70107, Note_on_c, 0, 40, 0
2, 70140, Note_on_c, 0, 40, 100
2, 70167, Note_on_c, 0, 40, 0
2, 70200, Note_on_c, 0, 40, 100
2, 70227, Note_on_c, 0, 40, 0
2, 70260, Note_on_c, 0, 40, 100
2, 70287, Note_on_c, 0, 40, 0
2, 70320, Note_on_c, 0, 40, 100
2, 70347, Note_on_c, 0, 40, 0
2, 70380, Note_on_c, 0, 40, 100
2, 70407, Note_on_c, 0, 40, 0
2, 70440, Note_on_c, 0, 40, 100
2, 70467, Note_on_c, 0, 40, 0
2, 70500, Note_on_c, 0, 40, 100
2, 70527, Note_on_c, 0, 40, 0
2, 70560, Note_on_c, 0, 40, 100
2, 70587, Note_on_c, 0, 40, 0
2, 70620, Note_on_c, 0, 35, 111
2, 70620, Note_on_c, 0, 40, 111
2, 70647, Note_on_c, 0, 40, 0
2, 70647, Note_on_c, 0, 35, 0
2, 70680, Note_on_c, 0, 40, 100
2, 70707, Note_on_c, 0, 40, 0
2, 70740, Note_on_c, 0, 40, 100
2, 70767, Note_on_c, 0, 40, 0
2, 70800, Note_on_c, 0, 40, 100
2, 70827, Note_on_c, 0, 40, 0
2, 70860, Note_on_c, 0, 35, 112
2, 70860, Note_on_c, 0, 40, 112
2, 70887, Note_on_c, 0, 40, 0
2, 70887, Note_on_c, 0, 35, 0
2, 70920, Note_on_c, 0, 40, 100
2, 70947, Note_on_c, 0, 40, 0
2, 70980, Note_on_c, 0, 40, 100
2, 71007, Note_on_c, 0, 40, 0
2, 71040, Note_on_c, 0, 40, 100
2, 71067, Note_on_c, 0, 40, 0
2, 71100, Note_on_c, 0, 40, 100
2, 71127, Note_on_c, 0, 40, 0
2, 71160, Note_on_c, 0, 40, 100
2, 71187, Note_on_c, 0, 40, 0
2, 71220, Note_on_c, 0, 40, 100
2, 71247, Note_on_c, 0, 40, 0
2, 71280, Note_on_c, 0, 40, 100
2, 71307, Note_on_c, 0, 40, 0
2, 71340, Note_on_c, 0, 40, 100
2, 71367, Note_on_c, 0, 40, 0
2, 71400, Note_on_c, 0, 40, 100
2, 71400, Note_on_c, 0, 35, 111
2, 71427, Note_on_c, 0, 35, 0
2, 71427, Note_on_c, 0, 40, 0
2, 71460, Note_on_c, 0, 40, 100
2, 71487, Note_on_c, 0, 40, 0
2, 71520, Note_on_c, 0, 40, 100
2, 71547, Note_on_c, 0, 40, 0
2, 71580, Note_on_c, 0, 40, 100
2, 71607, Note_on_c, 0, 40, 0
2, 71640, Note_on_c, 0, 40, 100
2, 71667, Note_on_c, 0, 40, 0
2, 71700, Note_on_c, 0, 40, 100
2, 71727, Note_on_c, 0, 40, 0
2, 71760, Note_on_c, 0, 40, 100
2, 71787, Note_on_c, 0, 40, 0
2, 71820, Note_on_c, 0, 40, 100
2, 71847, Note_on_c, 0, 40, 0
2, 71880, Note_on_c, 0, 40, 100
2, 71907, Note_on_c, 0, 40, 0
2, 71940, Note_on_c, 0, 40, 100
2, 71967, Note_on_c, 0, 40, 0
2, 72000, Note_on_c, 0, 40, 100
2, 72027, Note_on_c, 0, 40, 0
2, 72060, Note_on_c, 0, 35, 112
2, 72060, Note_on_c, 0, 40, 112
2, 72087, Note_on_c, 0, 40, 0
2, 72087, Note_on_c, 0, 35, 0
2, 72120, Note_on_c, 0, 40, 100
2, 72147, Note_on_c, 0, 40, 0
2, 72180, Note_on_c, 0, 40, 100
2, 72207, Note_on_c, 0, 40, 0
2, 72240, Note_on_c, 0, 40, 100
2, 72267, Note_on_c, 0, 40, 0
2, 72300, Note_on_c, 0, 35, 112
2, 72300, Note_on_c, 0, 40, 112
2, 72327, Note_on_c, 0, 40, 0
2, 72327, Note_on_c, 0, 35, 0
2, 72360, Note_on_c, 0, 40, 100
2, 72387, Note_on_c, 0, 40, 0
2, 72420, Note_on_c, 0, 40, 100
2, 72447, Note_on_c, 0, 40, 0
2, 72480, Note_on_c, 0, 40, 100
2, 72507, Note_on_c, 0, 40, 0
2, 72540, Note_on_c, 0, 40, 100
2, 72567, Note_on_c, 0, 40, 0
2, 72600, Note_on_c, 0, 40, 100
2, 72627, Note_on_c, 0, 40, 0
2, 72660, Note_on_c, 0, 40, 100
2, 72687, Note_on_c, 0, 40, 0
2, 72720, Note_on_c, 0, 40, 100
2, 72747, Note_on_c, 0, 40, 0
2, 72780, Note_on_c, 0, 40, 100
2, 72807, Note_on_c, 0, 40, 0
2, 72840, Note_on_c, 0, 35, 112
2, 72840, Note_on_c, 0, 40, 112
2, 72867, Note_on_c, 0, 40, 0
2, 72867, Note_on_c, 0, 35, 0
2, 72900, Note_on_c, 0, 40, 100
2, 72927, Note_on_c, 0, 40, 0
2, 72960, Note_on_c, 0, 40, 100
2, 72987, Note_on_c, 0, 40, 0
2, 73020, Note_on_c, 0, 40, 100
2, 73047, Note_on_c, 0, 40, 0
2, 73080, Note_on_c, 0, 40, 100
2, 73107, Note_on_c, 0, 40, 0
2, 73140, Note_on_c, 0, 40, 100
2, 73167, Note_on_c, 0, 40, 0
2, 73200, Note_on_c, 0, 40, 100
2, 73227, Note_on_c, 0, 40, 0
2, 73260, Note_on_c, 0, 40, 100
2, 73287, Note_on_c, 0, 40, 0
2, 73320, Note_on_c, 0, 40, 100
2, 73347, Note_on_c, 0, 40, 0
2, 73380, Note_on_c, 0, 40, 100
2, 73407, Note_on_c, 0, 40, 0
2, 73440, Note_on_c, 0, 40, 100
2, 73467, Note_on_c, 0, 40, 0
2, 73500, Note_on_c, 0, 35, 111
2, 73500, Note_on_c, 0, 40, 111
2, 73527, Note_on_c, 0, 40, 0
2, 73527, Note_on_c, 0, 35, 0
2, 73560, Note_on_c, 0, 40, 100
2, 73587, Note_on_c, 0, 40, 0
2, 73620, Note_on_c, 0, 40, 100
2, 73647, Note_on_c, 0, 40, 0
2, 73680, Note_on_c, 0, 40, 100
2, 73707, Note_on_c, 0, 40, 0
2, 73740, Note_on_c, 0, 35, 112
2, 73740, Note_on_c, 0, 40, 112
2, 73767, Note_on_c, 0, 40, 0
2, 73767, Note_on_c, 0, 35, 0
2, 73800, Note_on_c, 0, 40, 100
2, 73827, Note_on_c, 0, 40, 0
2, 73860, Note_on_c, 0, 40, 100
2, 73887, Note_on_c, 0, 40, 0
2, 73920, Note_on_c, 0, 40, 100
2, 73947, Note_on_c, 0, 40, 0
2, 73980, Note_on_c, 0, 40, 100
2, 74007, Note_on_c, 0, 40, 0
2, 74040, Note_on_c, 0, 40, 100
2, 74067, Note_on_c, 0, 40, 0
2, 74100, Note_on_c, 0, 40, 100
2, 74127, Note_on_c, 0, 40, 0
2, 74160, Note_on_c, 0, 40, 100
2, 74187, Note_on_c, 0, 40, 0
2, 74220, Note_on_c, 0, 40, 100
2, 74247, Note_on_c, 0, 40, 0
2, 74280, Note_on_c, 0, 40, 100
2, 74280, Note_on_c, 0, 35, 111
2, 74307, Note_on_c, 0, 35, 0
2, 74307, Note_on_c, 0, 40, 0
2, 74340, Note_on_c, 0, 40, 100
2, 74367, Note_on_c, 0, 40, 0
2, 74400, Note_on_c, 0, 40, 100
2, 74427, Note_on_c, 0, 40, 0
2, 74460, Note_on_c, 0, 40, 100
2, 74487, Note_on_c, 0, 40, 0
2, 74520, Note_on_c, 0, 40, 100
2, 74547, Note_on_c, 0, 40, 0
2, 74580, Note_on_c, 0, 40, 100
2, 74607, Note_on_c, 0, 40, 0
2, 74640, Note_on_c, 0, 40, 100
2, 74667, Note_on_c, 0, 40, 0
2, 74700, Note_on_c, 0, 40, 100
2, 74727, Note_on_c, 0, 40, 0
2, 74760, Note_on_c, 0, 40, 100
2, 74787, Note_on_c, 0, 40, 0
2, 74820, Note_on_c, 0, 40, 100
2, 74847, Note_on_c, 0, 40, 0
2, 74880, Note_on_c, 0, 40, 100
2, 74907, Note_on_c, 0, 40, 0
2, 74940, Note_on_c, 0, 35, 112
2, 74940, Note_on_c, 0, 40, 112
2, 74967, Note_on_c, 0, 40, 0
2, 74967, Note_on_c, 0, 35, 0
2, 75000, Note_on_c, 0, 40, 100
2, 75027, Note_on_c, 0, 40, 0
2, 75060, Note_on_c, 0, 40, 100
2, 75087, Note_on_c, 0, 40, 0
2, 75120, Note_on_c, 0, 40, 100
2, 75147, Note_on_c, 0, 40, 0
2, 75180, Note_on_c, 0, 35, 112
2, 75180, Note_on_c, 0, 40, 112
2, 75207, Note_on_c, 0, 40, 0
2, 75207, Note_on_c, 0, 35, 0
2, 75240, Note_on_c, 0, 40, 100
2, 75267, Note_on_c, 0, 40, 0
2, 75300, Note_on_c, 0, 40, 100
2, 75327, Note_on_c, 0, 40, 0
2, 75360, Note_on_c, 0, 40, 100
2, 75387, Note_on_c, 0, 40, 0
2, 75420, Note_on_c, 0, 40, 100
2, 75447, Note_on_c, 0, 40, 0
2, 75480, Note_on_c, 0, 40, 100
2, 75507, Note_on_c, 0, 40, 0
2, 75540, Note_on_c, 0, 40, 100
2, 75567, Note_on_c, 0, 40, 0
2, 75600, Note_on_c, 0, 40, 100
2, 75627, Note_on_c, 0, 40, 0
2, 75660, Note_on_c, 0, 40, 100
2, 75687, Note_on_c, 0, 40, 0
2, 75720, Note_on_c, 0, 35, 112
2, 75720, Note_on_c, 0, 40, 112
2, 75747, Note_on_c, 0, 40, 0
2, 75747, Note_on_c, 0, 35, 0
2, 75780, Note_on_c, 0, 40, 100
2, 75807, Note_on_c, 0, 40, 0
2, 75840, Note_on_c, 0, 40, 100
2, 75867, Note_on_c, 0, 40, 0
2, 75900, Note_on_c, 0, 40, 100
2, 75927, Note_on_c, 0, 40, 0
2, 75960, Note_on_c, 0, 40, 100
2, 75987, Note_on_c, 0, 40, 0
2, 76020, Note_on_c, 0, 40, 100
2, 76047, Note_on_c, 0, 40, 0
2, 76080, Note_on_c, 0, 40, 100
2, 76107, Note_on_c, 0, 40, 0
2, 76140, Note_on_c, 0, 40, 100
2, 76167, Note_on_c, 0, 40, 0
2, 76200, Note_on_c, 0, 40, 100
2, 76227, Note_on_c, 0, 40, 0
2, 76260, Note_on_c, 0, 40, 100
2, 76287, Note_on_c, 0, 40, 0
2, 76320, Note_on_c, 0, 40, 100
2, 76347, Note_on_c, 0, 40, 0
2, 76380, Note_on_c, 0, 35, 111
2, 76380, Note_on_c, 0, 40, 111
2, 76407, Note_on_c, 0, 40, 0
2, 76407, Note_on_c, 0, 35, 0
2, 76440, Note_on_c, 0, 40, 100
2, 76467, Note_on_c, 0, 40, 0
2, 76500, Note_on_c, 0, 40, 100
2, 76527, Note_on_c, 0, 40, 0
2, 76560, Note_on_c, 0, 40, 100
2, 76587, Note_on_c, 0, 40, 0
2, 76620, Note_on_c, 0, 35, 112
2, 76620, Note_on_c, 0, 40, 112
2, 76647, Note_on_c, 0, 40, 0
2, 76647, Note_on_c, 0, 35, 0
2, 76680, Note_on_c, 0, 40, 100
2, 76707, Note_on_c, 0, 40, 0
2, 76740, Note_on_c, 0, 40, 100
2, 76767, Note_on_c, 0, 40, 0
2, 76800, Note_on_c, 0, 40, 100
2, 76827, Note_on_c, 0, 40, 0
2, 76860, Note_on_c, 0, 40, 100
2, 76887, Note_on_c, 0, 40, 0
2, 76920, Note_on_c, 0, 40, 100
2, 76947, Note_on_c, 0, 40, 0
2, 76980, Note_on_c, 0, 40, 100
2, 77007, Note_on_c, 0, 40, 0
2, 77040, Note_on_c, 0, 40, 100
2, 77067, Note_on_c, 0, 40, 0
2, 77100, Note_on_c, 0, 40, 100
2, 77127, Note_on_c, 0, 40, 0
2, 77160, Note_on_c, 0, 40, 100
2, 77160, Note_on_c, 0, 35, 111
2, 77187, Note_on_c, 0, 35, 0
2, 77187, Note_on_c, 0, 40, 0
2, 77220, Note_on_c, 0, 40, 100
2, 77247, Note_on_c, 0, 40, 0
2, 77280, Note_on_c, 0, 40, 100
2, 77307, Note_on_c, 0, 40, 0
2, 77340, Note_on_c, 0, 40, 100
2, 77367, Note_on_c, 0, 40, 0
2, 77400, Note_on_c, 0, 40, 100
2, 77427, Note_on_c, 0, 40, 0
2, 77460, Note_on_c, 0, 40, 100
2, 77487, Note_on_c, 0, 40, 0
2, 77520, Note_on_c, 0, 40, 100
2, 77547, Note_on_c, 0, 40, 0
2, 77580, Note_on_c, 0, 40, 100
2, 77607, Note_on_c, 0, 40, 0
2, 77640, Note_on_c, 0, 40, 100
2, 77667, Note_on_c, 0, 40, 0
2, 77700, Note_on_c, 0, 40, 100
2, 77727, Note_on_c, 0, 40, 0
2, 77760, Note_on_c, 0, 40, 100
2, 77787, Note_on_c, 0, 40, 0
2, 77820, Note_on_c, 0, 35, 112
2, 77820, Note_on_c, 0, 40, 112
2, 77847, Note_on_c, 0, 40, 0
2, 77847, Note_on_c, 0, 35, 0
2, 77880, Note_on_c, 0, 40, 100
2, 77907, Note_on_c, 0, 40, 0
2, 77940, Note_on_c, 0, 40, 100
2, 77967, Note_on_c, 0, 40, 0
2, 78000, Note_on_c, 0, 40, 100
2, 78027, Note_on_c, 0, 40, 0
2, 78060, Note_on_c, 0, 35, 112
2, 78060, Note_on_c, 0, 40, 112
2, 78087, Note_on_c, 0, 40, 0
2, 78087, Note_on_c, 0, 35, 0
2, 78120, Note_on_c, 0, 40, 100
2, 78147, Note_on_c, 0, 40, 0
2, 78180, Note_on_c, 0, 40, 100
2, 78207, Note_on_c, 0, 40, 0
2, 78240, Note_on_c, 0, 40, 100
2, 78267, Note_on_c, 0, 40, 0
2, 78300, Note_on_c, 0, 40, 100
2, 78327, Note_on_c, 0, 40, 0
2, 78360, Note_on_c, 0, 40, 100
2, 78387, Note_on_c, 0, 40, 0
2, 78420, Note_on_c, 0, 40, 100
2, 78447, Note_on_c, 0, 40, 0
2, 78480, Note_on_c, 0, 40, 100
2, 78507, Note_on_c, 0, 40, 0
2, 78540, Note_on_c, 0, 40, 100
2, 78567, Note_on_c, 0, 40, 0
2, 78600, Note_on_c, 0, 35, 112
2, 78600, Note_on_c, 0, 40, 112
2, 78627, Note_on_c, 0, 40, 0
2, 78627, Note_on_c, 0, 35, 0
2, 78660, Note_on_c, 0, 40, 100
2, 78687, Note_on_c, 0, 40, 0
2, 78720, Note_on_c, 0, 40, 100
2, 78747, Note_on_c, 0, 40, 0
2, 78780, Note_on_c, 0, 40, 100
2, 78807, Note_on_c, 0, 40, 0
2, 78840, Note_on_c, 0, 40, 100
2, 78867, Note_on_c, 0, 40, 0
2, 78900, Note_on_c, 0, 40, 100
2, 78927, Note_on_c, 0, 40, 0
2, 78960, Note_on_c, 0, 40, 100
2, 78987, Note_on_c, 0, 40, 0
2, 79020, Note_on_c, 0, 40, 100
2, 79047, Note_on_c, 0, 40, 0
2, 79080, Note_on_c, 0, 40, 100
2, 79107, Note_on_c, 0, 40, 0
2, 79140, Note_on_c, 0, 40, 100
2, 79167, Note_on_c, 0, 40, 0
2, 79200, Note_on_c, 0, 40, 100
2, 79227, Note_on_c, 0, 40, 0
2, 79260, Note_on_c, 0, 35, 111
2, 79260, Note_on_c, 0, 40, 111
2, 79287, Note_on_c, 0, 40, 0
2, 79287, Note_on_c, 0, 35, 0
2, 79320, Note_on_c, 0, 40, 100
2, 79347, Note_on_c, 0, 40, 0
2, 79380, Note_on_c, 0, 40, 100
2, 79407, Note_on_c, 0, 40, 0
2, 79440, Note_on_c, 0, 40, 100
2, 79467, Note_on_c, 0, 40, 0
2, 79500, Note_on_c, 0, 35, 112
2, 79500, Note_on_c, 0, 40, 112
2, 79527, Note_on_c, 0, 40, 0
2, 79527, Note_on_c, 0, 35, 0
2, 79560, Note_on_c, 0, 40, 100
2, 79587, Note_on_c, 0, 40, 0
2, 79620, Note_on_c, 0, 40, 100
2, 79647, Note_on_c, 0, 40, 0
2, 79680, Note_on_c, 0, 40, 100
2, 79707, Note_on_c, 0, 40, 0
2, 79740, Note_on_c, 0, 40, 100
2, 79767, Note_on_c, 0, 40, 0
2, 79800, Note_on_c, 0, 40, 100
2, 79827, Note_on_c, 0, 40, 0
2, 79860, Note_on_c, 0, 40, 100
2, 79887, Note_on_c, 0, 40, 0
2, 79920, Note_on_c, 0, 40, 100
2, 79947, Note_on_c, 0, 40, 0
2, 79980, Note_on_c, 0, 40, 100
2, 80007, Note_on_c, 0, 40, 0
2, 80040, Note_on_c, 0, 40, 100
2, 80040, Note_on_c, 0, 35, 111
2, 80067, Note_on_c, 0, 35, 0
2, 80067, Note_on_c, 0, 40, 0
2, 80100, Note_on_c, 0, 40, 100
2, 80127, Note_on_c, 0, 40, 0
2, 80160, Note_on_c, 0, 40, 100
2, 80187, Note_on_c, 0, 40, 0
2, 80220, Note_on_c, 0, 40, 100
2, 80247, Note_on_c, 0, 40, 0
2, 80280, Note_on_c, 0, 40, 100
2, 80307, Note_on_c, 0, 40, 0
2, 80340, Note_on_c, 0, 40, 100
2, 80367, Note_on_c, 0, 40, 0
2, 80400, Note_on_c, 0, 40, 100
2, 80427, Note_on_c, 0, 40, 0
2, 80460, Note_on_c, 0, 40, 100
2, 80487, Note_on_c, 0, 40, 0
2, 80520, Note_on_c, 0, 40, 100
2, 80547, Note_on_c, 0, 40, 0
2, 80580, Note_on_c, 0, 40, 100
2, 80607, Note_on_c, 0, 40, 0
2, 80640, Note_on_c, 0, 40, 100
2, 80667, Note_on_c, 0, 40, 0
2, 80700, Note_on_c, 0, 35, 112
2, 80700, Note_on_c, 0, 40, 112
2, 80727, Note_on_c, 0, 40, 0
2, 80727, Note_on_c, 0, 35, 0
2, 80760, Note_on_c, 0, 40, 100
2, 80787, Note_on_c, 0, 40, 0
2, 80820, Note_on_c, 0, 40, 100
2, 80847, Note_on_c, 0, 40, 0
2, 80880, Note_on_c, 0, 40, 100
2, 80907, Note_on_c, 0, 40, 0
2, 80940, Note_on_c, 0, 35, 112
2, 80940, Note_on_c, 0, 40, 112
2, 80967, Note_on_c, 0, 40, 0
2, 80967, Note_on_c, 0, 35, 0
2, 81000, Note_on_c, 0, 40, 100
2, 81027, Note_on_c, 0, 40, 0
2, 81060, Note_on_c, 0, 40, 100
2, 81087, Note_on_c, 0, 40, 0
2, 81120, Note_on_c, 0, 40, 100
2, 81147, Note_on_c, 0, 40, 0
2, 81180, Note_on_c, 0, 40, 100
2, 81207, Note_on_c, 0, 40, 0
2, 81240, Note_on_c, 0, 40, 100
2, 81267, Note_on_c, 0, 40, 0
2, 81300, Note_on_c, 0, 40, 100
2, 81327, Note_on_c, 0, 40, 0
2, 81360, Note_on_c, 0, 40, 100
2, 81387, Note_on_c, 0, 40, 0
2, 81420, Note_on_c, 0, 40, 100
2, 81447, Note_on_c, 0, 40, 0
2, 81480, Note_on_c, 0, 35, 112
2, 81480, Note_on_c, 0, 40, 112
2, 81507, Note_on_c, 0, 40, 0
2, 81507, Note_on_c, 0, 35, 0
2, 81540, Note_on_c, 0, 40, 100
2, 81567, Note_on_c, 0, 40, 0
2, 81600, Note_on_c, 0, 40, 100
2, 81627, Note_on_c, 0, 40, 0
2, 81660, Note_on_c, 0, 40, 100
2, 81687, Note_on_c, 0, 40, 0
2, 81720, Note_on_c, 0, 40, 100
2, 81747, Note_on_c, 0, 40, 0
2, 81780, Note_on_c, 0, 40, 100
2, 81807, Note_on_c, 0, 40, 0
2, 81840, Note_on_c, 0, 40, 100
2, 81867, Note_on_c, 0, 40, 0
2, 81900, Note_on_c, 0, 40, 100
2, 81927, Note_on_c, 0, 40, 0
2, 81960, Note_on_c, 0, 40, 100
2, 81987, Note_on_c, 0, 40, 0
2, 82020, Note_on_c, 0, 40, 100
2, 82047, Note_on_c, 0, 40, 0
2, 82080, Note_on_c, 0, 40, 100
2, 82107, Note_on_c, 0, 40, 0
2, 82140, Note_on_c, 0, 35, 111
2, 82140, Note_on_c, 0, 40, 111
2, 82167, Note_on_c, 0, 40, 0
2, 82167, Note_on_c, 0, 35, 0
2, 82200, Note_on_c, 0, 40, 100
2, 82227, Note_on_c, 0, 40, 0
2, 82260, Note_on_c, 0, 40, 100
2, 82287, Note_on_c, 0, 40, 0
2, 82320, Note_on_c, 0, 40, 100
2, 82347, Note_on_c, 0, 40, 0
2, 82380, Note_on_c, 0, 35, 112
2, 82380, Note_on_c, 0, 40, 112
2, 82407, Note_on_c, 0, 40, 0
2, 82407, Note_on_c, 0, 35, 0
2, 82440, Note_on_c, 0, 40, 100
2, 82467, Note_on_c, 0, 40, 0
2, 82500, Note_on_c, 0, 40, 100
2, 82527, Note_on_c, 0, 40, 0
2, 82560, Note_on_c, 0, 40, 100
2, 82587, Note_on_c, 0, 40, 0
2, 82620, Note_on_c, 0, 40, 100
2, 82647, Note_on_c, 0, 40, 0
2, 82680, Note_on_c, 0, 40, 100
2, 82707, Note_on_c, 0, 40, 0
2, 82740, Note_on_c, 0, 40, 100
2, 82767, Note_on_c, 0, 40, 0
2, 82800, Note_on_c, 0, 40, 100
2, 82827, Note_on_c, 0, 40, 0
2, 82860, Note_on_c, 0, 40, 100
2, 82887, Note_on_c, 0, 40, 0
2, 82920, Note_on_c, 0, 40, 100
2, 82920, Note_on_c, 0, 35, 111
2, 82947, Note_on_c, 0, 35, 0
2, 82947, Note_on_c, 0, 40, 0
2, 82980, Note_on_c, 0, 40, 100
2, 83007, Note_on_c, 0, 40, 0
2, 83040, Note_on_c, 0, 40, 100
2, 83067, Note_on_c, 0, 40, 0
2, 83100, Note_on_c, 0, 40, 100
2, 83127, Note_on_c, 0, 40, 0
2, 83160, Note_on_c, 0, 40, 100
2, 83187, Note_on_c, 0, 40, 0
2, 83220, Note_on_c, 0, 40, 100
2, 83247, Note_on_c, 0, 40, 0
2, 83280, Note_on_c, 0, 40, 100
2, 83307, Note_on_c, 0, 40, 0
2, 83340, Note_on_c, 0, 40, 100
2, 83367, Note_on_c, 0, 40, 0
2, 83400, Note_on_c, 0, 40, 100
2, 83427, Note_on_c, 0, 40, 0
2, 83460, Note_on_c, 0, 40, 100
2, 83487, Note_on_c, 0, 40, 0
2, 83520, Note_on_c, 0, 40, 100
2, 83547, Note_on_c, 0, 40, 0
2, 83580, Note_on_c, 0, 35, 112
2, 83580, Note_on_c, 0, 40, 112
2, 83607, Note_on_c, 0, 40, 0
2, 83607, Note_on_c, 0, 35, 0
2, 83640, Note_on_c, 0, 40, 100
2, 83667, Note_on_c, 0, 40, 0
2, 83700, Note_on_c, 0, 40, 100
2, 83727, Note_on_c, 0, 40, 0
2, 83760, Note_on_c, 0, 40, 100
2, 83787, Note_on_c, 0, 40, 0
2, 83820, Note_on_c, 0, 35, 112
2, 83820, Note_on_c, 0, 40, 112
2, 83847, Note_on_c, 0, 40, 0
2, 83847, Note_on_c, 0, 35, 0
2, 83880, Note_on_c, 0, 40, 100
2, 83907, Note_on_c, 0, 40, 0
2, 83940, Note_on_c, 0, 40, 100
2, 83967, Note_on_c, 0, 40, 0
2, 84000, Note_on_c, 0, 40, 100
2, 84027, Note_on_c, 0, 40, 0
2, 84060, Note_on_c, 0, 40, 100
2, 84087, Note_on_c, 0, 40, 0
2, 84120, Note_on_c, 0, 40, 100
2, 84147, Note_on_c, 0, 40, 0
2, 84180, Note_on_c, 0, 40, 100
2, 84207, Note_on_c, 0, 40, 0
2, 84240, Note_on_c, 0, 40, 100
2, 84267, Note_on_c, 0, 40, 0
2, 84300, Note_on_c, 0, 40, 100
2, 84327, Note_on_c, 0, 40, 0
2, 84360, Note_on_c, 0, 35, 112
2, 84360, Note_on_c, 0, 40, 112
2, 84387, Note_on_c, 0, 40, 0
2, 84387, Note_on_c, 0, 35, 0
2, 84420, Note_on_c, 0, 40, 100
2, 84447, Note_on_c, 0, 40, 0
2, 84480, Note_on_c, 0, 40, 100
2, 84507, Note_on_c, 0, 40, 0
2, 84540, Note_on_c, 0, 40, 100
2, 84567, Note_on_c, 0, 40, 0
2, 84600, Note_on_c, 0, 40, 100
2, 84627, Note_on_c, 0, 40, 0
2, 84660, Note_on_c, 0, 40, 100
2, 84687, Note_on_c, 0, 40, 0
2, 84720, Note_on_c, 0, 40, 100
2, 84747, Note_on_c, 0, 40, 0
2, 84780, Note_on_c, 0, 40, 100
2, 84807, Note_on_c, 0, 40, 0
2, 84840, Note_on_c, 0, 40, 100
2, 84867, Note_on_c, 0, 40, 0
2, 84900, Note_on_c, 0, 40, 100
2, 84927, Note_on_c, 0, 40, 0
2, 84960, Note_on_c, 0, 40, 100
2, 84987, Note_on_c, 0, 40, 0
2, 85020, Note_on_c, 0, 35, 111
2, 85020, Note_on_c, 0, 40, 111
2, 85047, Note_on_c, 0, 40, 0
2, 85047, Note_on_c, 0, 35, 0
2, 85080, Note_on_c, 0, 40, 100
2, 85107, Note_on_c, 0, 40, 0
2, 85140, Note_on_c, 0, 40, 100
2, 85167, Note_on_c, 0, 40, 0
2, 85200, Note_on_c, 0, 40, 100
2, 85227, Note_on_c, 0, 40, 0
2, 85260, Note_on_c, 0, 35, 112
2, 85260, Note_on_c, 0, 40, 112
2, 85287, Note_on_c, 0, 40, 0
2, 85287, Note_on_c, 0, 35, 0
2, 85320, Note_on_c, 0, 40, 100
2, 85347, Note_on_c, 0, 40, 0
2, 85380, Note_on_c, 0, 40, 100
2, 85407, Note_on_c, 0, 40, 0
2, 85440, Note_on_c, 0, 40, 100
2, 85467, Note_on_c, 0, 40, 0
2, 85500, Note_on_c, 0, 40, 100
2, 85527, Note_on_c, 0, 40, 0
2, 85560, Note_on_c, 0, 40, 100
2, 85587, Note_on_c, 0, 40, 0
2, 85620, Note_on_c, 0, 40, 100
2, 85647, Note_on_c, 0, 40, 0
2, 85680, Note_on_c, 0, 40, 100
2, 85707, Note_on_c, 0, 40, 0
2, 85740, Note_on_c, 0, 40, 100
2, 85767, Note_on_c, 0, 40, 0
2, 85800, Note_on_c, 0, 40, 100
2, 85800, Note_on_c, 0, 35, 111
2, 85827, Note_on_c, 0, 35, 0
2, 85827, Note_on_c, 0, 40, 0
2, 85860, Note_on_c, 0, 40, 100
2, 85887, Note_on_c, 0, 40, 0
2, 85920, Note_on_c, 0, 40, 100
2, 85947, Note_on_c, 0, 40, 0
2, 85980, Note_on_c, 0, 40, 100
2, 86007, Note_on_c, 0, 40, 0
2, 86040, Note_on_c, 0, 40, 100
2, 86067, Note_on_c, 0, 40, 0
2, 86100, Note_on_c, 0, 40, 100
2, 86127, Note_on_c, 0, 40, 0
2, 86160, Note_on_c, 0, 40, 100
2, 86187, Note_on_c, 0, 40, 0
2, 86220, Note_on_c, 0, 40, 100
2, 86247, Note_on_c, 0, 40, 0
2, 86280, Note_on_c, 0, 40, 100
2, 86307, Note_on_c, 0, 40, 0
2, 86340, Note_on_c, 0, 40, 100
2, 86367, Note_on_c, 0, 40, 0
2, 86400, Note_on_c, 0, 40, 100
2, 86427, Note_on_c, 0, 40, 0
2, 86460, Note_on_c, 0, 35, 112
2, 86460, Note_on_c, 0, 40, 112
2, 86487, Note_on_c, 0, 40, 0
2, 86487, Note_on_c, 0, 35, 0
2, 86520, Note_on_c, 0, 40, 100
2, 86547, Note_on_c, 0, 40, 0
2, 86580, Note_on_c, 0, 40, 100
2, 86607, Note_on_c, 0, 40, 0
2, 86640, Note_on_c, 0, 40, 100
2, 86667, Note_on_c, 0, 40, 0
2, 86700, Note_on_c, 0, 35, 112
2, 86700, Note_on_c, 0, 40, 112
2, 86727, Note_on_c, 0, 40, 0
2, 86727, Note_on_c, 0, 35, 0
2, 86760, Note_on_c, 0, 40, 100
2, 86787, Note_on_c, 0, 40, 0
2, 86820, Note_on_c, 0, 40, 100
2, 86847, Note_on_c, 0, 40, 0
2, 86880, Note_on_c, 0, 40, 100
2, 86907, Note_on_c, 0, 40, 0
2, 86940, Note_on_c, 0, 40, 100
2, 86967, Note_on_c, 0, 40, 0
2, 87000, Note_on_c, 0, 40, 100
2, 87027, Note_on_c, 0, 40, 0
2, 87060, Note_on_c, 0, 40, 100
2, 87087, Note_on_c, 0, 40, 0
2, 87120, Note_on_c, 0, 40, 100
2, 87147, Note_on_c, 0, 40, 0
2, 87180, Note_on_c, 0, 40, 100
2, 87207, Note_on_c, 0, 40, 0
2, 87240, Note_on_c, 0, 35, 112
2, 87240, Note_on_c, 0, 40, 112
2, 87267, Note_on_c, 0, 40, 0
2, 87267, Note_on_c, 0, 35, 0
2, 87300, Note_on_c, 0, 40, 100
2, 87327, Note_on_c, 0, 40, 0
2, 87360, Note_on_c, 0, 40, 100
2, 87387, Note_on_c, 0, 40, 0
2, 87420, Note_on_c, 0, 40, 100
2, 87447, Note_on_c, 0, 40, 0
2, 87480, Note_on_c, 0, 40, 100
2, 87507, Note_on_c, 0, 40, 0
2, 87540, Note_on_c, 0, 40, 100
2, 87567, Note_on_c, 0, 40, 0
2, 87600, Note_on_c, 0, 40, 100
2, 87627, Note_on_c, 0, 40, 0
2, 87660, Note_on_c, 0, 40, 100
2, 87687, Note_on_c, 0, 40, 0
2, 87720, Note_on_c, 0, 40, 100
2, 87747, Note_on_c, 0, 40, 0
2, 87780, Note_on_c, 0, 40, 100
2, 87807, Note_on_c, 0, 40, 0
2, 87840, Note_on_c, 0, 40, 100
2, 87867, Note_on_c, 0, 40, 0
2, 87900, Note_on_c, 0, 35, 111
2, 87900, Note_on_c, 0, 40, 111
2, 87927, Note_on_c, 0, 40, 0
2, 87927, Note_on_c, 0, 35, 0
2, 87960, Note_on_c, 0, 40, 100
2, 87987, Note_on_c, 0, 40, 0
2, 88020, Note_on_c, 0, 40, 100
2, 88047, Note_on_c, 0, 40, 0
2, 88080, Note_on_c, 0, 40, 100
2, 88107, Note_on_c, 0, 40, 0
2, 88140, Note_on_c, 0, 35, 112
2, 88140, Note_on_c, 0, 40, 112
2, 88167, Note_on_c, 0, 40, 0
2, 88167, Note_on_c, 0, 35, 0
2, 88200, Note_on_c, 0, 40, 100
2, 88227, Note_on_c, 0, 40, 0
2, 88260, Note_on_c, 0, 40, 100
2, 88287, Note_on_c, 0, 40, 0
2, 88320, Note_on_c, 0, 40, 100
2, 88347, Note_on_c, 0, 40, 0
2, 88380, Note_on_c, 0, 40, 100
2, 88407, Note_on_c, 0, 40, 0
2, 88440, Note_on_c, 0, 40, 100
2, 88467, Note_on_c, 0, 40, 0
2, 88500, Note_on_c, 0, 40, 100
2, 88527, Note_on_c, 0, 40, 0
2, 88560, Note_on_c, 0, 40, 100
2, 88587, Note_on_c, 0, 40, 0
2, 88620, Note_on_c, 0, 40, 100
2, 88647, Note_on_c, 0, 40, 0
2, 88647, End_track
3, 0, Start_track
3, 0, Title_t, "A2-Strings     "
3, 0, Control_c, 1, 0, 0
3, 0, Control_c, 1, 32, 2
3, 0, Program_c, 1, 48
3, 0, Control_c, 1, 7, 110
3, 0, Control_c, 1, 10, 64
3, 96, Control_c, 1, 91, 40
3, 97, Control_c, 1, 93, 0
3, 100, Control_c, 1, 99, 1
3, 100, Control_c, 1, 98, 102
3, 100, Control_c, 1, 6, 60
3, 100, Control_c, 1, 38, 0
3, 600, Control_c, 1, 99, 1
3, 600, Control_c, 1, 98, 102
3, 600, Control_c, 1, 6, 60
3, 600, Control_c, 1, 38, 127
3, 1080, Note_on_c, 1, 62, 100
3, 1080, Note_on_c, 1, 50, 100
3, 1098, Note_on_c, 1, 50, 0
3, 1098, Note_on_c, 1, 62, 0
3, 1140, Note_on_c, 1, 64, 100
3, 1140, Note_on_c, 1, 52, 100
3, 1158, Note_on_c, 1, 52, 0
3, 1158, Note_on_c, 1, 64, 0
3, 1200, Note_on_c, 1, 64, 100
3, 1200, Note_on_c, 1, 52, 100
3, 1218, Note_on_c, 1, 52, 0
3, 1218, Note_on_c, 1, 64, 0
3, 1260, Note_on_c, 1, 64, 100
3, 1260, Note_on_c, 1, 52, 100
3, 1278, Note_on_c, 1, 52, 0
3, 1278, Note_on_c, 1, 64, 0
3, 1320, Note_on_c, 1, 64, 100
3, 1320, Note_on_c, 1, 52, 100
3, 1338, Note_on_c, 1, 52, 0
3, 1338, Note_on_c, 1, 64, 0
3, 1380, Note_on_c, 1, 64, 100
3, 1380, Note_on_c, 1, 52, 100
3, 1398, Note_on_c, 1, 52, 0
3, 1398, Note_on_c, 1, 64, 0
3, 1440, Note_on_c, 1, 64, 100
3, 1440, Note_on_c, 1, 52, 100
3, 1458, Note_on_c, 1, 52, 0
3, 1458, Note_on_c, 1, 64, 0
3, 1500, Note_on_c, 1, 64, 100
3, 1500, Note_on_c, 1, 52, 100
3, 1518, Note_on_c, 1, 52, 0
3, 1518, Note_on_c, 1, 64, 0
3, 1560, Note_on_c, 1, 64, 100
3, 1560, Note_on_c, 1, 52, 100
3, 1578, Note_on_c, 1, 52, 0
3, 1578, Note_on_c, 1, 64, 0
3, 1620, Note_on_c, 1, 64, 100
3, 1620, Note_on_c, 1, 52, 100
3, 1638, Note_on_c, 1, 52, 0
3, 1638, Note_on_c, 1, 64, 0
3, 1680, Note_on_c, 1, 64, 100
3, 1680, Note_on_c, 1, 52, 100
3, 1698, Note_on_c, 1, 52, 0
3, 1698, Note_on_c, 1, 64, 0
3, 1740, Note_on_c, 1, 62, 100
3, 1740, Note_on_c, 1, 50, 100
3, 1758, Note_on_c, 1, 50, 0
3, 1758, Note_on_c, 1, 62, 0
3, 1800, Note_on_c, 1, 64, 100
3, 1800, Note_on_c, 1, 52, 100
3, 1818, Note_on_c, 1, 52, 0
3, 1818, Note_on_c, 1, 64, 0
3, 1860, Note_on_c, 1, 64, 100
3, 1860, Note_on_c, 1, 52, 100
3, 1878, Note_on_c, 1, 52, 0
3, 1878, Note_on_c, 1, 64, 0
3, 1920, Note_on_c, 1, 64, 100
3, 1920, Note_on_c, 1, 52, 100
3, 1938, Note_on_c, 1, 52, 0
3, 1938, Note_on_c, 1, 64, 0
3, 1980, Note_on_c, 1, 62, 100
3, 1980, Note_on_c, 1, 50, 100
3, 1998, Note_on_c, 1, 50, 0
3, 1998, Note_on_c, 1, 62, 0
3, 2040, Note_on_c, 1, 64, 100
3, 2040, Note_on_c, 1, 52, 100
3, 2058, Note_on_c, 1, 52, 0
3, 2058, Note_on_c, 1, 64, 0
3, 2100, Note_on_c, 1, 64, 100
3, 2100, Note_on_c, 1, 52, 100
3, 2118, Note_on_c, 1, 52, 0
3, 2118, Note_on_c, 1, 64, 0
3, 2160, Note_on_c, 1, 64, 100
3, 2160, Note_on_c, 1, 52, 100
3, 2178, Note_on_c, 1, 52, 0
3, 2178, Note_on_c, 1, 64, 0
3, 2220, Note_on_c, 1, 64, 100
3, 2220, Note_on_c, 1, 52, 100
3, 2238, Note_on_c, 1, 52, 0
3, 2238, Note_on_c, 1, 64, 0
3, 2280, Note_on_c, 1, 64, 100
3, 2280, Note_on_c, 1, 52, 100
3, 2298, Note_on_c, 1, 52, 0
3, 2298, Note_on_c, 1, 64, 0
3, 2340, Note_on_c, 1, 64, 100
3, 2340, Note_on_c, 1, 52, 100
3, 2358, Note_on_c, 1, 52, 0
3, 2358, Note_on_c, 1, 64, 0
3, 2400, Note_on_c, 1, 64, 100
3, 2400, Note_on_c, 1, 52, 100
3, 2418, Note_on_c, 1, 52, 0
3, 2418, Note_on_c, 1, 64, 0
3, 2460, Note_on_c, 1, 64, 100
3, 2460, Note_on_c, 1, 52, 100
3, 2478, Note_on_c, 1, 52, 0
3, 2478, Note_on_c, 1, 64, 0
3, 2520, Note_on_c, 1, 50, 100
3, 2520, Note_on_c, 1, 62, 100
3, 2538, Note_on_c, 1, 62, 0
3, 2538, Note_on_c, 1, 50, 0
3, 2580, Note_on_c, 1, 52, 100
3, 2580, Note_on_c, 1, 64, 100
3, 2598, Note_on_c, 1, 64, 0
3, 2598, Note_on_c, 1, 52, 0
3, 2640, Note_on_c, 1, 52, 100
3, 2640, Note_on_c, 1, 64, 100
3, 2658, Note_on_c, 1, 64, 0
3, 2658, Note_on_c, 1, 52, 0
3, 2700, Note_on_c, 1, 52, 100
3, 2700, Note_on_c, 1, 64, 100
3, 2718, Note_on_c, 1, 64, 0
3, 2718, Note_on_c, 1, 52, 0
3, 2760, Note_on_c, 1, 52, 100
3, 2760, Note_on_c, 1, 64, 100
3, 2778, Note_on_c, 1, 64, 0
3, 2778, Note_on_c, 1, 52, 0
3, 2820, Note_on_c, 1, 52, 100
3, 2820, Note_on_c, 1, 64, 100
3, 2838, Note_on_c, 1, 64, 0
3, 2838, Note_on_c, 1, 52, 0
3, 2880, Note_on_c, 1, 52, 100
3, 2880, Note_on_c, 1, 64, 100
3, 2898, Note_on_c, 1, 64, 0
3, 2898, Note_on_c, 1, 52, 0
3, 2940, Note_on_c, 1, 52, 100
3, 2940, Note_on_c, 1, 64, 100
3, 2958, Note_on_c, 1, 64, 0
3, 2958, Note_on_c, 1, 52, 0
3, 3000, Note_on_c, 1, 52, 100
3, 3000, Note_on_c, 1, 64, 100
3, 3018, Note_on_c, 1, 64, 0
3, 3018, Note_on_c, 1, 52, 0
3, 3060, Note_on_c, 1, 52, 100
3, 3060, Note_on_c, 1, 64, 100
3, 3078, Note_on_c, 1, 64, 0
3, 3078, Note_on_c, 1, 52, 0
3, 3120, Note_on_c, 1, 52, 100
3, 3120, Note_on_c, 1, 64, 100
3, 3138, Note_on_c, 1, 64, 0
3, 3138, Note_on_c, 1, 52, 0
3, 3180, Note_on_c, 1, 50, 100
3, 3180, Note_on_c, 1, 62, 100
3, 3198, Note_on_c, 1, 62, 0
3, 3198, Note_on_c, 1, 50, 0
3, 3240, Note_on_c, 1, 52, 100
3, 3240, Note_on_c, 1, 64, 100
3, 3258, Note_on_c, 1, 64, 0
3, 3258, Note_on_c, 1, 52, 0
3, 3300, Note_on_c, 1, 52, 100
3, 3300, Note_on_c, 1, 64, 100
3, 3318, Note_on_c, 1, 64, 0
3, 3318, Note_on_c, 1, 52, 0
3, 3360, Note_on_c, 1, 52, 100
3, 3360, Note_on_c, 1, 64, 100
3, 3378, Note_on_c, 1, 64, 0
3, 3378, Note_on_c, 1, 52, 0
3, 3420, Note_on_c, 1, 50, 100
3, 3420, Note_on_c, 1, 62, 100
3, 3438, Note_on_c, 1, 62, 0
3, 3438, Note_on_c, 1, 50, 0
3, 3480, Note_on_c, 1, 52, 100
3, 3480, Note_on_c, 1, 64, 100
3, 3498, Note_on_c, 1, 64, 0
3, 3498, Note_on_c, 1, 52, 0
3, 3540, Note_on_c, 1, 52, 100
3, 3540, Note_on_c, 1, 64, 100
3, 3558, Note_on_c, 1, 64, 0
3, 3558, Note_on_c, 1, 52, 0
3, 3600, Note_on_c, 1, 52, 100
3, 3600, Note_on_c, 1, 64, 100
3, 3618, Note_on_c, 1, 64, 0
3, 3618, Note_on_c, 1, 52, 0
3, 3660, Note_on_c, 1, 52, 100
3, 3660, Note_on_c, 1, 64, 100
3, 3678, Note_on_c, 1, 64, 0
3, 3678, Note_on_c, 1, 52, 0
3, 3720, Note_on_c, 1, 52, 100
3, 3720, Note_on_c, 1, 64, 100
3, 3738, Note_on_c, 1, 64, 0
3, 3738, Note_on_c, 1, 52, 0
3, 3780, Note_on_c, 1, 52, 100
3, 3780, Note_on_c, 1, 64, 100
3, 3798, Note_on_c, 1, 64, 0
3, 3798, Note_on_c, 1, 52, 0
3, 3840, Note_on_c, 1, 52, 100
3, 3840, Note_on_c, 1, 64, 100
3, 3858, Note_on_c, 1, 64, 0
3, 3858, Note_on_c, 1, 52, 0
3, 3900, Note_on_c, 1, 52, 100
3, 3900, Note_on_c, 1, 64, 100
3, 3918, Note_on_c, 1, 64, 0
3, 3918, Note_on_c, 1, 52, 0
3, 3960, Note_on_c, 1, 50, 100
3, 3960, Note_on_c, 1, 62, 100
3, 3978, Note_on_c, 1, 62, 0
3, 3978, Note_on_c, 1, 50, 0
3, 4020, Note_on_c, 1, 52, 100
3, 4020, Note_on_c, 1, 64, 100
3, 4038, Note_on_c, 1, 64, 0
3, 4038, Note_on_c, 1, 52, 0
3, 4080, Note_on_c, 1, 52, 100
3, 4080, Note_on_c, 1, 64, 100
3, 4098, Note_on_c, 1, 64, 0
3, 4098, Note_on_c, 1, 52, 0
3, 4140, Note_on_c, 1, 52, 100
3, 4140, Note_on_c, 1, 64, 100
3, 4158, Note_on_c, 1, 64, 0
3, 4158, Note_on_c, 1, 52, 0
3, 4200, Note_on_c, 1, 52, 100
3, 4200, Note_on_c, 1, 64, 100
3, 4218, Note_on_c, 1, 64, 0
3, 4218, Note_on_c, 1, 52, 0
3, 4260, Note_on_c, 1, 52, 100
3, 4260, Note_on_c, 1, 64, 100
3, 4278, Note_on_c, 1, 64, 0
3, 4278, Note_on_c, 1, 52, 0
3, 4320, Note_on_c, 1, 52, 100
3, 4320, Note_on_c, 1, 64, 100
3, 4338, Note_on_c, 1, 64, 0
3, 4338, Note_on_c, 1, 52, 0
3, 4380, Note_on_c, 1, 52, 100
3, 4380, Note_on_c, 1, 64, 100
3, 4398, Note_on_c, 1, 64, 0
3, 4398, Note_on_c, 1, 52, 0
3, 4440, Note_on_c, 1, 52, 100
3, 4440, Note_on_c, 1, 64, 100
3, 4458, Note_on_c, 1, 64, 0
3, 4458, Note_on_c, 1, 52, 0
3, 4500, Note_on_c, 1, 52, 100
3, 4500, Note_on_c, 1, 64, 100
3, 4518, Note_on_c, 1, 64, 0
3, 4518, Note_on_c, 1, 52, 0
3, 4560, Note_on_c, 1, 52, 100
3, 4560, Note_on_c, 1, 64, 100
3, 4578, Note_on_c, 1, 64, 0
3, 4578, Note_on_c, 1, 52, 0
3, 4620, Note_on_c, 1, 50, 100
3, 4620, Note_on_c, 1, 62, 100
3, 4638, Note_on_c, 1, 62, 0
3, 4638, Note_on_c, 1, 50, 0
3, 4680, Note_on_c, 1, 52, 100
3, 4680, Note_on_c, 1, 64, 100
3, 4698, Note_on_c, 1, 64, 0
3, 4698, Note_on_c, 1, 52, 0
3, 4740, Note_on_c, 1, 52, 100
3, 4740, Note_on_c, 1, 64, 100
3, 4758, Note_on_c, 1, 64, 0
3, 4758, Note_on_c, 1, 52, 0
3, 4800, Note_on_c, 1, 52, 100
3, 4800, Note_on_c, 1, 64, 100
3, 4818, Note_on_c, 1, 64, 0
3, 4818, Note_on_c, 1, 52, 0
3, 4860, Note_on_c, 1, 50, 100
3, 4860, Note_on_c, 1, 62, 100
3, 4878, Note_on_c, 1, 62, 0
3, 4878, Note_on_c, 1, 50, 0
3, 4920, Note_on_c, 1, 52, 100
3, 4920, Note_on_c, 1, 64, 100
3, 4938, Note_on_c, 1, 64, 0
3, 4938, Note_on_c, 1, 52, 0
3, 4980, Note_on_c, 1, 52, 100
3, 4980, Note_on_c, 1, 64, 100
3, 4998, Note_on_c, 1, 64, 0
3, 4998, Note_on_c, 1, 52, 0
3, 5040, Note_on_c, 1, 52, 100
3, 5040, Note_on_c, 1, 64, 100
3, 5058, Note_on_c, 1, 64, 0
3, 5058, Note_on_c, 1, 52, 0
3, 5100, Note_on_c, 1, 52, 100
3, 5100, Note_on_c, 1, 64, 100
3, 5118, Note_on_c, 1, 64, 0
3, 5118, Note_on_c, 1, 52, 0
3, 5160, Note_on_c, 1, 52, 100
3, 5160, Note_on_c, 1, 64, 100
3, 5178, Note_on_c, 1, 64, 0
3, 5178, Note_on_c, 1, 52, 0
3, 5220, Note_on_c, 1, 52, 100
3, 5220, Note_on_c, 1, 64, 100
3, 5238, Note_on_c, 1, 64, 0
3, 5238, Note_on_c, 1, 52, 0
3, 5280, Note_on_c, 1, 52, 100
3, 5280, Note_on_c, 1, 64, 100
3, 5298, Note_on_c, 1, 64, 0
3, 5298, Note_on_c, 1, 52, 0
3, 5340, Note_on_c, 1, 52, 100
3, 5340, Note_on_c, 1, 64, 100
3, 5358, Note_on_c, 1, 64, 0
3, 5358, Note_on_c, 1, 52, 0
3, 5400, Note_on_c, 1, 62, 100
3, 5400, Note_on_c, 1, 50, 100
3, 5418, Note_on_c, 1, 50, 0
3, 5418, Note_on_c, 1, 62, 0
3, 5460, Note_on_c, 1, 64, 100
3, 5460, Note_on_c, 1, 52, 100
3, 5478, Note_on_c, 1, 52, 0
3, 5478, Note_on_c, 1, 64, 0
3, 5520, Note_on_c, 1, 64, 100
3, 5520, Note_on_c, 1, 52, 100
3, 5538, Note_on_c, 1, 52, 0
3, 5538, Note_on_c, 1, 64, 0
3, 5580, Note_on_c, 1, 64, 100
3, 5580, Note_on_c, 1, 52, 100
3, 5598, Note_on_c, 1, 52, 0
3, 5598, Note_on_c, 1, 64, 0
3, 5640, Note_on_c, 1, 64, 100
3, 5640, Note_on_c, 1, 52, 100
3, 5658, Note_on_c, 1, 52, 0
3, 5658, Note_on_c, 1, 64, 0
3, 5700, Note_on_c, 1, 64, 100
3, 5700, Note_on_c, 1, 52, 100
3, 5718, Note_on_c, 1, 52, 0
3, 5718, Note_on_c, 1, 64, 0
3, 5760, Note_on_c, 1, 64, 100
3, 5760, Note_on_c, 1, 52, 100
3, 5778, Note_on_c, 1, 52, 0
3, 5778, Note_on_c, 1, 64, 0
3, 5820, Note_on_c, 1, 64, 100
3, 5820, Note_on_c, 1, 52, 100
3, 5838, Note_on_c, 1, 52, 0
3, 5838, Note_on_c, 1, 64, 0
3, 5880, Note_on_c, 1, 64, 100
3, 5880, Note_on_c, 1, 52, 100
3, 5898, Note_on_c, 1, 52, 0
3, 5898, Note_on_c, 1, 64, 0
3, 5940, Note_on_c, 1, 64, 100
3, 5940, Note_on_c, 1, 52, 100
3, 5958, Note_on_c, 1, 52, 0
3, 5958, Note_on_c, 1, 64, 0
3, 6000, Note_on_c, 1, 64, 100
3, 6000, Note_on_c, 1, 52, 100
3, 6018, Note_on_c, 1, 52, 0
3, 6018, Note_on_c, 1, 64, 0
3, 6060, Note_on_c, 1, 62, 100
3, 6060, Note_on_c, 1, 50, 100
3, 6078, Note_on_c, 1, 50, 0
3, 6078, Note_on_c, 1, 62, 0
3, 6120, Note_on_c, 1, 64, 100
3, 6120, Note_on_c, 1, 52, 100
3, 6138, Note_on_c, 1, 52, 0
3, 6138, Note_on_c, 1, 64, 0
3, 6180, Note_on_c, 1, 64, 100
3, 6180, Note_on_c, 1, 52, 100
3, 6198, Note_on_c, 1, 52, 0
3, 6198, Note_on_c, 1, 64, 0
3, 6240, Note_on_c, 1, 64, 100
3, 6240, Note_on_c, 1, 52, 100
3, 6258, Note_on_c, 1, 52, 0
3, 6258, Note_on_c, 1, 64, 0
3, 6300, Note_on_c, 1, 62, 100
3, 6300, Note_on_c, 1, 50, 100
3, 6318, Note_on_c, 1, 50, 0
3, 6318, Note_on_c, 1, 62, 0
3, 6360, Note_on_c, 1, 64, 100
3, 6360, Note_on_c, 1, 52, 100
3, 6378, Note_on_c, 1, 52, 0
3, 6378, Note_on_c, 1, 64, 0
3, 6420, Note_on_c, 1, 64, 100
3, 6420, Note_on_c, 1, 52, 100
3, 6438, Note_on_c, 1, 52, 0
3, 6438, Note_on_c, 1, 64, 0
3, 6480, Note_on_c, 1, 64, 100
3, 6480, Note_on_c, 1, 52, 100
3, 6498, Note_on_c, 1, 52, 0
3, 6498, Note_on_c, 1, 64, 0
3, 6540, Note_on_c, 1, 64, 100
3, 6540, Note_on_c, 1, 52, 100
3, 6558, Note_on_c, 1, 52, 0
3, 6558, Note_on_c, 1, 64, 0
3, 6600, Note_on_c, 1, 64, 100
3, 6600, Note_on_c, 1, 52, 100
3, 6618, Note_on_c, 1, 52, 0
3, 6618, Note_on_c, 1, 64, 0
3, 6660, Note_on_c, 1, 64, 100
3, 6660, Note_on_c, 1, 52, 100
3, 6678, Note_on_c, 1, 52, 0
3, 6678, Note_on_c, 1, 64, 0
3, 6720, Note_on_c, 1, 64, 100
3, 6720, Note_on_c, 1, 52, 100
3, 6738, Note_on_c, 1, 52, 0
3, 6738, Note_on_c, 1, 64, 0
3, 6780, Note_on_c, 1, 64, 100
3, 6780, Note_on_c, 1, 52, 100
3, 6798, Note_on_c, 1, 52, 0
3, 6798, Note_on_c, 1, 64, 0
3, 6840, Note_on_c, 1, 52, 100
3, 6840, Note_on_c, 1, 64, 100
3, 6858, Note_on_c, 1, 64, 0
3, 6858, Note_on_c, 1, 52, 0
3, 6900, Note_on_c, 1, 52, 100
3, 6900, Note_on_c, 1, 64, 100
3, 6918, Note_on_c, 1, 64, 0
3, 6918, Note_on_c, 1, 52, 0
3, 6960, Note_on_c, 1, 52, 100
3, 6960, Note_on_c, 1, 64, 100
3, 6978, Note_on_c, 1, 64, 0
3, 6978, Note_on_c, 1, 52, 0
3, 7020, Note_on_c, 1, 52, 100
3, 7020, Note_on_c, 1, 64, 100
3, 7038, Note_on_c, 1, 64, 0
3, 7038, Note_on_c, 1, 52, 0
3, 7080, Note_on_c, 1, 52, 100
3, 7080, Note_on_c, 1, 64, 100
3, 7098, Note_on_c, 1, 64, 0
3, 7098, Note_on_c, 1, 52, 0
3, 7140, Note_on_c, 1, 52, 100
3, 7140, Note_on_c, 1, 64, 100
3, 7158, Note_on_c, 1, 64, 0
3, 7158, Note_on_c, 1, 52, 0
3, 7200, Note_on_c, 1, 52, 100
3, 7200, Note_on_c, 1, 64, 100
3, 7218, Note_on_c, 1, 64, 0
3, 7218, Note_on_c, 1, 52, 0
3, 7260, Note_on_c, 1, 64, 100
3, 7260, Note_on_c, 1, 52, 100
3, 7278, Note_on_c, 1, 52, 0
3, 7278, Note_on_c, 1, 64, 0
3, 7320, Note_on_c, 1, 64, 100
3, 7320, Note_on_c, 1, 52, 100
3, 7338, Note_on_c, 1, 52, 0
3, 7338, Note_on_c, 1, 64, 0
3, 7380, Note_on_c, 1, 64, 100
3, 7380, Note_on_c, 1, 52, 100
3, 7398, Note_on_c, 1, 52, 0
3, 7398, Note_on_c, 1, 64, 0
3, 7440, Note_on_c, 1, 64, 100
3, 7440, Note_on_c, 1, 52, 100
3, 7458, Note_on_c, 1, 52, 0
3, 7458, Note_on_c, 1, 64, 0
3, 7500, Note_on_c, 1, 64, 100
3, 7500, Note_on_c, 1, 52, 100
3, 7518, Note_on_c, 1, 52, 0
3, 7518, Note_on_c, 1, 64, 0
3, 7560, Note_on_c, 1, 64, 100
3, 7560, Note_on_c, 1, 52, 100
3, 7578, Note_on_c, 1, 52, 0
3, 7578, Note_on_c, 1, 64, 0
3, 7620, Note_on_c, 1, 64, 100
3, 7620, Note_on_c, 1, 52, 100
3, 7638, Note_on_c, 1, 52, 0
3, 7638, Note_on_c, 1, 64, 0
3, 7680, Note_on_c, 1, 64, 100
3, 7680, Note_on_c, 1, 52, 100
3, 7698, Note_on_c, 1, 52, 0
3, 7698, Note_on_c, 1, 64, 0
3, 7740, Note_on_c, 1, 64, 100
3, 7740, Note_on_c, 1, 52, 100
3, 7758, Note_on_c, 1, 52, 0
3, 7758, Note_on_c, 1, 64, 0
3, 7800, Note_on_c, 1, 52, 100
3, 7800, Note_on_c, 1, 64, 100
3, 7818, Note_on_c, 1, 64, 0
3, 7818, Note_on_c, 1, 52, 0
3, 7860, Note_on_c, 1, 52, 100
3, 7860, Note_on_c, 1, 64, 100
3, 7878, Note_on_c, 1, 64, 0
3, 7878, Note_on_c, 1, 52, 0
3, 7920, Note_on_c, 1, 52, 100
3, 7920, Note_on_c, 1, 64, 100
3, 7938, Note_on_c, 1, 64, 0
3, 7938, Note_on_c, 1, 52, 0
3, 7980, Note_on_c, 1, 52, 100
3, 7980, Note_on_c, 1, 64, 100
3, 7998, Note_on_c, 1, 64, 0
3, 7998, Note_on_c, 1, 52, 0
3, 8040, Note_on_c, 1, 52, 100
3, 8040, Note_on_c, 1, 64, 100
3, 8058, Note_on_c, 1, 64, 0
3, 8058, Note_on_c, 1, 52, 0
3, 8100, Note_on_c, 1, 52, 100
3, 8100, Note_on_c, 1, 64, 100
3, 8118, Note_on_c, 1, 64, 0
3, 8118, Note_on_c, 1, 52, 0
3, 8160, Note_on_c, 1, 52, 100
3, 8160, Note_on_c, 1, 64, 100
3, 8178, Note_on_c, 1, 64, 0
3, 8178, Note_on_c, 1, 52, 0
3, 8220, Note_on_c, 1, 64, 100
3, 8220, Note_on_c, 1, 52, 100
3, 8238, Note_on_c, 1, 52, 0
3, 8238, Note_on_c, 1, 64, 0
3, 8280, Note_on_c, 1, 52, 100
3, 8280, Note_on_c, 1, 64, 100
3, 8298, Note_on_c, 1, 64, 0
3, 8298, Note_on_c, 1, 52, 0
3, 8340, Note_on_c, 1, 52, 100
3, 8340, Note_on_c, 1, 64, 100
3, 8358, Note_on_c, 1, 64, 0
3, 8358, Note_on_c, 1, 52, 0
3, 8400, Note_on_c, 1, 52, 100
3, 8400, Note_on_c, 1, 64, 100
3, 8418, Note_on_c, 1, 64, 0
3, 8418, Note_on_c, 1, 52, 0
3, 8460, Note_on_c, 1, 52, 100
3, 8460, Note_on_c, 1, 64, 100
3, 8478, Note_on_c, 1, 64, 0
3, 8478, Note_on_c, 1, 52, 0
3, 8520, Note_on_c, 1, 52, 100
3, 8520, Note_on_c, 1, 64, 100
3, 8538, Note_on_c, 1, 64, 0
3, 8538, Note_on_c, 1, 52, 0
3, 8580, Note_on_c, 1, 52, 100
3, 8580, Note_on_c, 1, 64, 100
3, 8598, Note_on_c, 1, 64, 0
3, 8598, Note_on_c, 1, 52, 0
3, 8640, Note_on_c, 1, 52, 100
3, 8640, Note_on_c, 1, 64, 100
3, 8658, Note_on_c, 1, 64, 0
3, 8658, Note_on_c, 1, 52, 0
3, 8700, Note_on_c, 1, 64, 100
3, 8700, Note_on_c, 1, 52, 100
3, 8718, Note_on_c, 1, 52, 0
3, 8718, Note_on_c, 1, 64, 0
3, 8760, Note_on_c, 1, 64, 100
3, 8760, Note_on_c, 1, 52, 100
3, 8778, Note_on_c, 1, 52, 0
3, 8778, Note_on_c, 1, 64, 0
3, 8820, Note_on_c, 1, 64, 100
3, 8820, Note_on_c, 1, 52, 100
3, 8838, Note_on_c, 1, 52, 0
3, 8838, Note_on_c, 1, 64, 0
3, 8880, Note_on_c, 1, 64, 100
3, 8880, Note_on_c, 1, 52, 100
3, 8898, Note_on_c, 1, 52, 0
3, 8898, Note_on_c, 1, 64, 0
3, 8940, Note_on_c, 1, 64, 100
3, 8940, Note_on_c, 1, 52, 100
3, 8958, Note_on_c, 1, 52, 0
3, 8958, Note_on_c, 1, 64, 0
3, 9000, Note_on_c, 1, 64, 100
3, 9000, Note_on_c, 1, 52, 100
3, 9018, Note_on_c, 1, 52, 0
3, 9018, Note_on_c, 1, 64, 0
3, 9060, Note_on_c, 1, 64, 100
3, 9060, Note_on_c, 1, 52, 100
3, 9078, Note_on_c, 1, 52, 0
3, 9078, Note_on_c, 1, 64, 0
3, 9120, Note_on_c, 1, 64, 100
3, 9120, Note_on_c, 1, 52, 100
3, 9138, Note_on_c, 1, 52, 0
3, 9138, Note_on_c, 1, 64, 0
3, 9180, Note_on_c, 1, 64, 100
3, 9180, Note_on_c, 1, 52, 100
3, 9198, Note_on_c, 1, 52, 0
3, 9198, Note_on_c, 1, 64, 0
3, 9240, Note_on_c, 1, 52, 100
3, 9240, Note_on_c, 1, 64, 100
3, 9258, Note_on_c, 1, 64, 0
3, 9258, Note_on_c, 1, 52, 0
3, 9300, Note_on_c, 1, 52, 100
3, 9300, Note_on_c, 1, 64, 100
3, 9318, Note_on_c, 1, 64, 0
3, 9318, Note_on_c, 1, 52, 0
3, 9360, Note_on_c, 1, 52, 100
3, 9360, Note_on_c, 1, 64, 100
3, 9378, Note_on_c, 1, 64, 0
3, 9378, Note_on_c, 1, 52, 0
3, 9420, Note_on_c, 1, 52, 100
3, 9420, Note_on_c, 1, 64, 100
3, 9438, Note_on_c, 1, 64, 0
3, 9438, Note_on_c, 1, 52, 0
3, 9480, Note_on_c, 1, 52, 100
3, 9480, Note_on_c, 1, 64, 100
3, 9498, Note_on_c, 1, 64, 0
3, 9498, Note_on_c, 1, 52, 0
3, 9540, Note_on_c, 1, 52, 100
3, 9540, Note_on_c, 1, 64, 100
3, 9558, Note_on_c, 1, 64, 0
3, 9558, Note_on_c, 1, 52, 0
3, 9600, Note_on_c, 1, 52, 100
3, 9600, Note_on_c, 1, 64, 100
3, 9618, Note_on_c, 1, 64, 0
3, 9618, Note_on_c, 1, 52, 0
3, 9660, Note_on_c, 1, 64, 100
3, 9660, Note_on_c, 1, 52, 100
3, 9678, Note_on_c, 1, 52, 0
3, 9678, Note_on_c, 1, 64, 0
3, 13200, Note_on_c, 1, 86, 100
3, 13230, Note_on_c, 1, 86, 0
3, 13260, Note_on_c, 1, 74, 100
3, 13290, Note_on_c, 1, 74, 0
3, 13320, Note_on_c, 1, 74, 100
3, 13350, Note_on_c, 1, 74, 0
3, 13380, Note_on_c, 1, 74, 100
3, 13410, Note_on_c, 1, 74, 0
3, 13440, Note_on_c, 1, 74, 100
3, 13470, Note_on_c, 1, 74, 0
3, 13500, Note_on_c, 1, 86, 100
3, 13530, Note_on_c, 1, 86, 0
3, 13560, Note_on_c, 1, 86, 100
3, 13590, Note_on_c, 1, 86, 0
3, 13620, Note_on_c, 1, 74, 100
3, 13650, Note_on_c, 1, 74, 0
3, 13680, Note_on_c, 1, 74, 100
3, 13710, Note_on_c, 1, 74, 0
3, 13740, Note_on_c, 1, 86, 100
3, 13770, Note_on_c, 1, 86, 0
3, 13800, Note_on_c, 1, 86, 100
3, 13830, Note_on_c, 1, 86, 0
3, 13860, Note_on_c, 1, 74, 100
3, 13890, Note_on_c, 1, 74, 0
3, 13920, Note_on_c, 1, 74, 100
3, 13950, Note_on_c, 1, 74, 0
3, 13980, Note_on_c, 1, 86, 100
3, 14010, Note_on_c, 1, 86, 0
3, 14040, Note_on_c, 1, 86, 100
3, 14070, Note_on_c, 1, 86, 0
3, 14100, Note_on_c, 1, 74, 100
3, 14130, Note_on_c, 1, 74, 0
3, 14160, Note_on_c, 1, 74, 100
3, 14190, Note_on_c, 1, 74, 0
3, 14220, Note_on_c, 1, 86, 100
3, 14250, Note_on_c, 1, 86, 0
3, 14280, Note_on_c, 1, 86, 100
3, 14310, Note_on_c, 1, 86, 0
3, 14340, Note_on_c, 1, 74, 100
3, 14370, Note_on_c, 1, 74, 0
3, 14400, Note_on_c, 1, 74, 100
3, 14430, Note_on_c, 1, 74, 0
3, 14460, Note_on_c, 1, 86, 100
3, 14490, Note_on_c, 1, 86, 0
3, 14520, Note_on_c, 1, 86, 100
3, 14550, Note_on_c, 1, 86, 0
3, 14580, Note_on_c, 1, 74, 100
3, 14610, Note_on_c, 1, 74, 0
3, 14640, Note_on_c, 1, 86, 100
3, 14670, Note_on_c, 1, 86, 0
3, 14700, Note_on_c, 1, 74, 100
3, 14730, Note_on_c, 1, 74, 0
3, 14760, Note_on_c, 1, 74, 100
3, 14790, Note_on_c, 1, 74, 0
3, 14820, Note_on_c, 1, 74, 100
3, 14850, Note_on_c, 1, 74, 0
3, 14880, Note_on_c, 1, 74, 100
3, 14910, Note_on_c, 1, 74, 0
3, 14940, Note_on_c, 1, 86, 100
3, 14970, Note_on_c, 1, 86, 0
3, 15000, Note_on_c, 1, 86, 100
3, 15030, Note_on_c, 1, 86, 0
3, 15060, Note_on_c, 1, 74, 100
3, 15090, Note_on_c, 1, 74, 0
3, 15120, Note_on_c, 1, 74, 100
3, 15150, Note_on_c, 1, 74, 0
3, 15180, Note_on_c, 1, 86, 100
3, 15210, Note_on_c, 1, 86, 0
3, 15240, Note_on_c, 1, 86, 100
3, 15270, Note_on_c, 1, 86, 0
3, 15300, Note_on_c, 1, 74, 100
3, 15330, Note_on_c, 1, 74, 0
3, 15360, Note_on_c, 1, 74, 100
3, 15390, Note_on_c, 1, 74, 0
3, 15420, Note_on_c, 1, 86, 100
3, 15450, Note_on_c, 1, 86, 0
3, 15480, Note_on_c, 1, 86, 100
3, 15510, Note_on_c, 1, 86, 0
3, 15540, Note_on_c, 1, 74, 100
3, 15570, Note_on_c, 1, 74, 0
3, 15600, Note_on_c, 1, 74, 100
3, 15630, Note_on_c, 1, 74, 0
3, 15660, Note_on_c, 1, 86, 100
3, 15690, Note_on_c, 1, 86, 0
3, 15720, Note_on_c, 1, 86, 100
3, 15750, Note_on_c, 1, 86, 0
3, 15780, Note_on_c, 1, 74, 100
3, 15810, Note_on_c, 1, 74, 0
3, 15840, Note_on_c, 1, 74, 100
3, 15870, Note_on_c, 1, 74, 0
3, 15900, Note_on_c, 1, 86, 100
3, 15930, Note_on_c, 1, 86, 0
3, 15960, Note_on_c, 1, 86, 100
3, 15990, Note_on_c, 1, 86, 0
3, 16020, Note_on_c, 1, 74, 100
3, 16050, Note_on_c, 1, 74, 0
3, 16080, Note_on_c, 1, 86, 100
3, 16110, Note_on_c, 1, 86, 0
3, 16140, Note_on_c, 1, 74, 100
3, 16170, Note_on_c, 1, 74, 0
3, 16200, Note_on_c, 1, 74, 100
3, 16230, Note_on_c, 1, 74, 0
3, 16260, Note_on_c, 1, 74, 100
3, 16290, Note_on_c, 1, 74, 0
3, 16320, Note_on_c, 1, 74, 100
3, 16350, Note_on_c, 1, 74, 0
3, 16380, Note_on_c, 1, 86, 100
3, 16410, Note_on_c, 1, 86, 0
3, 16440, Note_on_c, 1, 86, 100
3, 16470, Note_on_c, 1, 86, 0
3, 16500, Note_on_c, 1, 74, 100
3, 16530, Note_on_c, 1, 74, 0
3, 16560, Note_on_c, 1, 74, 100
3, 16590, Note_on_c, 1, 74, 0
3, 16620, Note_on_c, 1, 86, 100
3, 16650, Note_on_c, 1, 86, 0
3, 16680, Note_on_c, 1, 86, 100
3, 16710, Note_on_c, 1, 86, 0
3, 16740, Note_on_c, 1, 74, 100
3, 16770, Note_on_c, 1, 74, 0
3, 16800, Note_on_c, 1, 74, 100
3, 16830, Note_on_c, 1, 74, 0
3, 16860, Note_on_c, 1, 86, 100
3, 16890, Note_on_c, 1, 86, 0
3, 16920, Note_on_c, 1, 86, 100
3, 16950, Note_on_c, 1, 86, 0
3, 16980, Note_on_c, 1, 74, 100
3, 17010, Note_on_c, 1, 74, 0
3, 17040, Note_on_c, 1, 74, 100
3, 17070, Note_on_c, 1, 74, 0
3, 17100, Note_on_c, 1, 86, 100
3, 17130, Note_on_c, 1, 86, 0
3, 17160, Note_on_c, 1, 86, 100
3, 17190, Note_on_c, 1, 86, 0
3, 17220, Note_on_c, 1, 74, 100
3, 17250, Note_on_c, 1, 74, 0
3, 17280, Note_on_c, 1, 74, 100
3, 17310, Note_on_c, 1, 74, 0
3, 17340, Note_on_c, 1, 86, 100
3, 17370, Note_on_c, 1, 86, 0
3, 17400, Note_on_c, 1, 86, 100
3, 17430, Note_on_c, 1, 86, 0
3, 17460, Note_on_c, 1, 74, 100
3, 17490, Note_on_c, 1, 74, 0
3, 17520, Note_on_c, 1, 86, 100
3, 17550, Note_on_c, 1, 86, 0
3, 17580, Note_on_c, 1, 74, 100
3, 17610, Note_on_c, 1, 74, 0
3, 17640, Note_on_c, 1, 74, 100
3, 17670, Note_on_c, 1, 74, 0
3, 17700, Note_on_c, 1, 74, 100
3, 17730, Note_on_c, 1, 74, 0
3, 17760, Note_on_c, 1, 74, 100
3, 17790, Note_on_c, 1, 74, 0
3, 17820, Note_on_c, 1, 86, 100
3, 17850, Note_on_c, 1, 86, 0
3, 17880, Note_on_c, 1, 86, 100
3, 17910, Note_on_c, 1, 86, 0
3, 17940, Note_on_c, 1, 74, 100
3, 17970, Note_on_c, 1, 74, 0
3, 18000, Note_on_c, 1, 74, 100
3, 18030, Note_on_c, 1, 74, 0
3, 18060, Note_on_c, 1, 86, 100
3, 18090, Note_on_c, 1, 86, 0
3, 18120, Note_on_c, 1, 86, 100
3, 18150, Note_on_c, 1, 86, 0
3, 18180, Note_on_c, 1, 74, 100
3, 18210, Note_on_c, 1, 74, 0
3, 18240, Note_on_c, 1, 74, 100
3, 18270, Note_on_c, 1, 74, 0
3, 18300, Note_on_c, 1, 86, 100
3, 18330, Note_on_c, 1, 86, 0
3, 18360, Note_on_c, 1, 86, 100
3, 18390, Note_on_c, 1, 86, 0
3, 18420, Note_on_c, 1, 74, 100
3, 18450, Note_on_c, 1, 74, 0
3, 18480, Note_on_c, 1, 74, 100
3, 18510, Note_on_c, 1, 74, 0
3, 18540, Note_on_c, 1, 86, 100
3, 18570, Note_on_c, 1, 86, 0
3, 18600, Note_on_c, 1, 86, 100
3, 18630, Note_on_c, 1, 86, 0
3, 18660, Note_on_c, 1, 74, 100
3, 18690, Note_on_c, 1, 74, 0
3, 18720, Note_on_c, 1, 74, 100
3, 18750, Note_on_c, 1, 74, 0
3, 18780, Note_on_c, 1, 86, 100
3, 18810, Note_on_c, 1, 86, 0
3, 18840, Note_on_c, 1, 86, 100
3, 18870, Note_on_c, 1, 86, 0
3, 18900, Note_on_c, 1, 74, 100
3, 18930, Note_on_c, 1, 74, 0
3, 18960, Note_on_c, 1, 53, 110
3, 18960, Note_on_c, 1, 65, 110
3, 18982, Note_on_c, 1, 65, 0
3, 18982, Note_on_c, 1, 53, 0
3, 19020, Note_on_c, 1, 53, 110
3, 19020, Note_on_c, 1, 65, 110
3, 19042, Note_on_c, 1, 65, 0
3, 19042, Note_on_c, 1, 53, 0
3, 19080, Note_on_c, 1, 53, 110
3, 19080, Note_on_c, 1, 65, 110
3, 19102, Note_on_c, 1, 65, 0
3, 19102, Note_on_c, 1, 53, 0
3, 19140, Note_on_c, 1, 53, 110
3, 19140, Note_on_c, 1, 65, 110
3, 19162, Note_on_c, 1, 65, 0
3, 19162, Note_on_c, 1, 53, 0
3, 19200, Note_on_c, 1, 53, 110
3, 19200, Note_on_c, 1, 65, 110
3, 19222, Note_on_c, 1, 65, 0
3, 19222, Note_on_c, 1, 53, 0
3, 19260, Note_on_c, 1, 53, 110
3, 19260, Note_on_c, 1, 65, 110
3, 19282, Note_on_c, 1, 65, 0
3, 19282, Note_on_c, 1, 53, 0
3, 19320, Note_on_c, 1, 53, 110
3, 19320, Note_on_c, 1, 65, 110
3, 19342, Note_on_c, 1, 65, 0
3, 19342, Note_on_c, 1, 53, 0
3, 19380, Note_on_c, 1, 53, 110
3, 19380, Note_on_c, 1, 65, 110
3, 19402, Note_on_c, 1, 65, 0
3, 19402, Note_on_c, 1, 53, 0
3, 19440, Note_on_c, 1, 53, 110
3, 19440, Note_on_c, 1, 65, 110
3, 19462, Note_on_c, 1, 65, 0
3, 19462, Note_on_c, 1, 53, 0
3, 19500, Note_on_c, 1, 53, 110
3, 19500, Note_on_c, 1, 65, 110
3, 19522, Note_on_c, 1, 65, 0
3, 19522, Note_on_c, 1, 53, 0
3, 19560, Note_on_c, 1, 53, 110
3, 19560, Note_on_c, 1, 65, 110
3, 19582, Note_on_c, 1, 65, 0
3, 19582, Note_on_c, 1, 53, 0
3, 19620, Note_on_c, 1, 53, 110
3, 19620, Note_on_c, 1, 65, 110
3, 19642, Note_on_c, 1, 65, 0
3, 19642, Note_on_c, 1, 53, 0
3, 19680, Note_on_c, 1, 53, 110
3, 19680, Note_on_c, 1, 65, 110
3, 19702, Note_on_c, 1, 65, 0
3, 19702, Note_on_c, 1, 53, 0
3, 19740, Note_on_c, 1, 53, 110
3, 19740, Note_on_c, 1, 65, 110
3, 19762, Note_on_c, 1, 65, 0
3, 19762, Note_on_c, 1, 53, 0
3, 19800, Note_on_c, 1, 53, 110
3, 19800, Note_on_c, 1, 65, 110
3, 19822, Note_on_c, 1, 65, 0
3, 19822, Note_on_c, 1, 53, 0
3, 19860, Note_on_c, 1, 53, 110
3, 19860, Note_on_c, 1, 65, 110
3, 19882, Note_on_c, 1, 65, 0
3, 19882, Note_on_c, 1, 53, 0
3, 19920, Note_on_c, 1, 53, 110
3, 19920, Note_on_c, 1, 65, 110
3, 19942, Note_on_c, 1, 65, 0
3, 19942, Note_on_c, 1, 53, 0
3, 19980, Note_on_c, 1, 53, 110
3, 19980, Note_on_c, 1, 65, 110
3, 20002, Note_on_c, 1, 65, 0
3, 20002, Note_on_c, 1, 53, 0
3, 20040, Note_on_c, 1, 53, 110
3, 20040, Note_on_c, 1, 65, 110
3, 20062, Note_on_c, 1, 65, 0
3, 20062, Note_on_c, 1, 53, 0
3, 20100, Note_on_c, 1, 53, 110
3, 20100, Note_on_c, 1, 65, 110
3, 20122, Note_on_c, 1, 65, 0
3, 20122, Note_on_c, 1, 53, 0
3, 20160, Note_on_c, 1, 53, 110
3, 20160, Note_on_c, 1, 65, 110
3, 20182, Note_on_c, 1, 65, 0
3, 20182, Note_on_c, 1, 53, 0
3, 20220, Note_on_c, 1, 53, 110
3, 20220, Note_on_c, 1, 65, 110
3, 20242, Note_on_c, 1, 65, 0
3, 20242, Note_on_c, 1, 53, 0
3, 20280, Note_on_c, 1, 53, 110
3, 20280, Note_on_c, 1, 65, 110
3, 20302, Note_on_c, 1, 65, 0
3, 20302, Note_on_c, 1, 53, 0
3, 20340, Note_on_c, 1, 53, 110
3, 20340, Note_on_c, 1, 65, 110
3, 20362, Note_on_c, 1, 65, 0
3, 20362, Note_on_c, 1, 53, 0
3, 20400, Note_on_c, 1, 53, 110
3, 20400, Note_on_c, 1, 65, 110
3, 20422, Note_on_c, 1, 65, 0
3, 20422, Note_on_c, 1, 53, 0
3, 20460, Note_on_c, 1, 53, 110
3, 20460, Note_on_c, 1, 65, 110
3, 20482, Note_on_c, 1, 65, 0
3, 20482, Note_on_c, 1, 53, 0
3, 20520, Note_on_c, 1, 53, 110
3, 20520, Note_on_c, 1, 65, 110
3, 20542, Note_on_c, 1, 65, 0
3, 20542, Note_on_c, 1, 53, 0
3, 20580, Note_on_c, 1, 53, 110
3, 20580, Note_on_c, 1, 65, 110
3, 20602, Note_on_c, 1, 65, 0
3, 20602, Note_on_c, 1, 53, 0
3, 20640, Note_on_c, 1, 53, 110
3, 20640, Note_on_c, 1, 65, 110
3, 20662, Note_on_c, 1, 65, 0
3, 20662, Note_on_c, 1, 53, 0
3, 20700, Note_on_c, 1, 53, 110
3, 20700, Note_on_c, 1, 65, 110
3, 20722, Note_on_c, 1, 65, 0
3, 20722, Note_on_c, 1, 53, 0
3, 20760, Note_on_c, 1, 53, 110
3, 20760, Note_on_c, 1, 65, 110
3, 20782, Note_on_c, 1, 65, 0
3, 20782, Note_on_c, 1, 53, 0
3, 20820, Note_on_c, 1, 53, 110
3, 20820, Note_on_c, 1, 65, 110
3, 20842, Note_on_c, 1, 65, 0
3, 20842, Note_on_c, 1, 53, 0
3, 20880, Note_on_c, 1, 53, 110
3, 20880, Note_on_c, 1, 65, 110
3, 20902, Note_on_c, 1, 65, 0
3, 20902, Note_on_c, 1, 53, 0
3, 20940, Note_on_c, 1, 53, 110
3, 20940, Note_on_c, 1, 65, 110
3, 20962, Note_on_c, 1, 65, 0
3, 20962, Note_on_c, 1, 53, 0
3, 21000, Note_on_c, 1, 53, 110
3, 21000, Note_on_c, 1, 65, 110
3, 21022, Note_on_c, 1, 65, 0
3, 21022, Note_on_c, 1, 53, 0
3, 21060, Note_on_c, 1, 53, 110
3, 21060, Note_on_c, 1, 65, 110
3, 21082, Note_on_c, 1, 65, 0
3, 21082, Note_on_c, 1, 53, 0
3, 21120, Note_on_c, 1, 53, 110
3, 21120, Note_on_c, 1, 65, 110
3, 21142, Note_on_c, 1, 65, 0
3, 21142, Note_on_c, 1, 53, 0
3, 21180, Note_on_c, 1, 53, 110
3, 21180, Note_on_c, 1, 65, 110
3, 21202, Note_on_c, 1, 65, 0
3, 21202, Note_on_c, 1, 53, 0
3, 21240, Note_on_c, 1, 53, 110
3, 21240, Note_on_c, 1, 65, 110
3, 21262, Note_on_c, 1, 65, 0
3, 21262, Note_on_c, 1, 53, 0
3, 21300, Note_on_c, 1, 53, 110
3, 21300, Note_on_c, 1, 65, 110
3, 21322, Note_on_c, 1, 65, 0
3, 21322, Note_on_c, 1, 53, 0
3, 21360, Note_on_c, 1, 53, 110
3, 21360, Note_on_c, 1, 65, 110
3, 21382, Note_on_c, 1, 65, 0
3, 21382, Note_on_c, 1, 53, 0
3, 21420, Note_on_c, 1, 53, 110
3, 21420, Note_on_c, 1, 65, 110
3, 21442, Note_on_c, 1, 65, 0
3, 21442, Note_on_c, 1, 53, 0
3, 21480, Note_on_c, 1, 53, 110
3, 21480, Note_on_c, 1, 65, 110
3, 21502, Note_on_c, 1, 65, 0
3, 21502, Note_on_c, 1, 53, 0
3, 21540, Note_on_c, 1, 53, 110
3, 21540, Note_on_c, 1, 65, 110
3, 21562, Note_on_c, 1, 65, 0
3, 21562, Note_on_c, 1, 53, 0
3, 21600, Note_on_c, 1, 53, 110
3, 21600, Note_on_c, 1, 65, 110
3, 21622, Note_on_c, 1, 65, 0
3, 21622, Note_on_c, 1, 53, 0
3, 21660, Note_on_c, 1, 53, 110
3, 21660, Note_on_c, 1, 65, 110
3, 21682, Note_on_c, 1, 65, 0
3, 21682, Note_on_c, 1, 53, 0
3, 21720, Note_on_c, 1, 53, 110
3, 21720, Note_on_c, 1, 65, 110
3, 21742, Note_on_c, 1, 65, 0
3, 21742, Note_on_c, 1, 53, 0
3, 21780, Note_on_c, 1, 53, 110
3, 21780, Note_on_c, 1, 65, 110
3, 21802, Note_on_c, 1, 65, 0
3, 21802, Note_on_c, 1, 53, 0
3, 21840, Note_on_c, 1, 53, 110
3, 21840, Note_on_c, 1, 65, 110
3, 21862, Note_on_c, 1, 65, 0
3, 21862, Note_on_c, 1, 53, 0
3, 21900, Note_on_c, 1, 53, 110
3, 21900, Note_on_c, 1, 65, 110
3, 21922, Note_on_c, 1, 65, 0
3, 21922, Note_on_c, 1, 53, 0
3, 21960, Note_on_c, 1, 53, 110
3, 21960, Note_on_c, 1, 65, 110
3, 21982, Note_on_c, 1, 65, 0
3, 21982, Note_on_c, 1, 53, 0
3, 22020, Note_on_c, 1, 53, 110
3, 22020, Note_on_c, 1, 65, 110
3, 22042, Note_on_c, 1, 65, 0
3, 22042, Note_on_c, 1, 53, 0
3, 22080, Note_on_c, 1, 53, 110
3, 22080, Note_on_c, 1, 65, 110
3, 22102, Note_on_c, 1, 65, 0
3, 22102, Note_on_c, 1, 53, 0
3, 22140, Note_on_c, 1, 53, 110
3, 22140, Note_on_c, 1, 65, 110
3, 22162, Note_on_c, 1, 65, 0
3, 22162, Note_on_c, 1, 53, 0
3, 22200, Note_on_c, 1, 53, 110
3, 22200, Note_on_c, 1, 65, 110
3, 22222, Note_on_c, 1, 65, 0
3, 22222, Note_on_c, 1, 53, 0
3, 22260, Note_on_c, 1, 53, 110
3, 22260, Note_on_c, 1, 65, 110
3, 22282, Note_on_c, 1, 65, 0
3, 22282, Note_on_c, 1, 53, 0
3, 22320, Note_on_c, 1, 53, 110
3, 22320, Note_on_c, 1, 65, 110
3, 22342, Note_on_c, 1, 65, 0
3, 22342, Note_on_c, 1, 53, 0
3, 22380, Note_on_c, 1, 53, 110
3, 22380, Note_on_c, 1, 65, 110
3, 22402, Note_on_c, 1, 65, 0
3, 22402, Note_on_c, 1, 53, 0
3, 22440, Note_on_c, 1, 53, 110
3, 22440, Note_on_c, 1, 65, 110
3, 22462, Note_on_c, 1, 65, 0
3, 22462, Note_on_c, 1, 53, 0
3, 22500, Note_on_c, 1, 53, 110
3, 22500, Note_on_c, 1, 65, 110
3, 22522, Note_on_c, 1, 65, 0
3, 22522, Note_on_c, 1, 53, 0
3, 22560, Note_on_c, 1, 53, 110
3, 22560, Note_on_c, 1, 65, 110
3, 22582, Note_on_c, 1, 65, 0
3, 22582, Note_on_c, 1, 53, 0
3, 22620, Note_on_c, 1, 53, 110
3, 22620, Note_on_c, 1, 65, 110
3, 22642, Note_on_c, 1, 65, 0
3, 22642, Note_on_c, 1, 53, 0
3, 22680, Note_on_c, 1, 53, 110
3, 22680, Note_on_c, 1, 65, 110
3, 22702, Note_on_c, 1, 65, 0
3, 22702, Note_on_c, 1, 53, 0
3, 22740, Note_on_c, 1, 53, 110
3, 22740, Note_on_c, 1, 65, 110
3, 22762, Note_on_c, 1, 65, 0
3, 22762, Note_on_c, 1, 53, 0
3, 22800, Note_on_c, 1, 53, 110
3, 22800, Note_on_c, 1, 65, 110
3, 22822, Note_on_c, 1, 65, 0
3, 22822, Note_on_c, 1, 53, 0
3, 22860, Note_on_c, 1, 53, 110
3, 22860, Note_on_c, 1, 65, 110
3, 22882, Note_on_c, 1, 65, 0
3, 22882, Note_on_c, 1, 53, 0
3, 22920, Note_on_c, 1, 53, 110
3, 22920, Note_on_c, 1, 65, 110
3, 22942, Note_on_c, 1, 65, 0
3, 22942, Note_on_c, 1, 53, 0
3, 22980, Note_on_c, 1, 53, 110
3, 22980, Note_on_c, 1, 65, 110
3, 23002, Note_on_c, 1, 65, 0
3, 23002, Note_on_c, 1, 53, 0
3, 23040, Note_on_c, 1, 53, 110
3, 23040, Note_on_c, 1, 65, 110
3, 23062, Note_on_c, 1, 65, 0
3, 23062, Note_on_c, 1, 53, 0
3, 23100, Note_on_c, 1, 53, 110
3, 23100, Note_on_c, 1, 65, 110
3, 23122, Note_on_c, 1, 65, 0
3, 23122, Note_on_c, 1, 53, 0
3, 23160, Note_on_c, 1, 53, 110
3, 23160, Note_on_c, 1, 65, 110
3, 23182, Note_on_c, 1, 65, 0
3, 23182, Note_on_c, 1, 53, 0
3, 23220, Note_on_c, 1, 53, 110
3, 23220, Note_on_c, 1, 65, 110
3, 23242, Note_on_c, 1, 65, 0
3, 23242, Note_on_c, 1, 53, 0
3, 23280, Note_on_c, 1, 53, 110
3, 23280, Note_on_c, 1, 65, 110
3, 23302, Note_on_c, 1, 65, 0
3, 23302, Note_on_c, 1, 53, 0
3, 23340, Note_on_c, 1, 53, 110
3, 23340, Note_on_c, 1, 65, 110
3, 23362, Note_on_c, 1, 65, 0
3, 23362, Note_on_c, 1, 53, 0
3, 23400, Note_on_c, 1, 53, 110
3, 23400, Note_on_c, 1, 65, 110
3, 23422, Note_on_c, 1, 65, 0
3, 23422, Note_on_c, 1, 53, 0
3, 23460, Note_on_c, 1, 53, 110
3, 23460, Note_on_c, 1, 65, 110
3, 23482, Note_on_c, 1, 65, 0
3, 23482, Note_on_c, 1, 53, 0
3, 23520, Note_on_c, 1, 53, 110
3, 23520, Note_on_c, 1, 65, 110
3, 23542, Note_on_c, 1, 65, 0
3, 23542, Note_on_c, 1, 53, 0
3, 23580, Note_on_c, 1, 53, 110
3, 23580, Note_on_c, 1, 65, 110
3, 23602, Note_on_c, 1, 65, 0
3, 23602, Note_on_c, 1, 53, 0
3, 23640, Note_on_c, 1, 53, 110
3, 23640, Note_on_c, 1, 65, 110
3, 23662, Note_on_c, 1, 65, 0
3, 23662, Note_on_c, 1, 53, 0
3, 23700, Note_on_c, 1, 53, 110
3, 23700, Note_on_c, 1, 65, 110
3, 23722, Note_on_c, 1, 65, 0
3, 23722, Note_on_c, 1, 53, 0
3, 23760, Note_on_c, 1, 53, 110
3, 23760, Note_on_c, 1, 65, 110
3, 23782, Note_on_c, 1, 65, 0
3, 23782, Note_on_c, 1, 53, 0
3, 23820, Note_on_c, 1, 53, 110
3, 23820, Note_on_c, 1, 65, 110
3, 23842, Note_on_c, 1, 65, 0
3, 23842, Note_on_c, 1, 53, 0
3, 23880, Note_on_c, 1, 53, 110
3, 23880, Note_on_c, 1, 65, 110
3, 23902, Note_on_c, 1, 65, 0
3, 23902, Note_on_c, 1, 53, 0
3, 23940, Note_on_c, 1, 53, 110
3, 23940, Note_on_c, 1, 65, 110
3, 23962, Note_on_c, 1, 65, 0
3, 23962, Note_on_c, 1, 53, 0
3, 24000, Note_on_c, 1, 53, 110
3, 24000, Note_on_c, 1, 65, 110
3, 24022, Note_on_c, 1, 65, 0
3, 24022, Note_on_c, 1, 53, 0
3, 24060, Note_on_c, 1, 53, 110
3, 24060, Note_on_c, 1, 65, 110
3, 24082, Note_on_c, 1, 65, 0
3, 24082, Note_on_c, 1, 53, 0
3, 24120, Note_on_c, 1, 53, 110
3, 24120, Note_on_c, 1, 65, 110
3, 24142, Note_on_c, 1, 65, 0
3, 24142, Note_on_c, 1, 53, 0
3, 24180, Note_on_c, 1, 53, 110
3, 24180, Note_on_c, 1, 65, 110
3, 24202, Note_on_c, 1, 65, 0
3, 24202, Note_on_c, 1, 53, 0
3, 24240, Note_on_c, 1, 53, 110
3, 24240, Note_on_c, 1, 65, 110
3, 24262, Note_on_c, 1, 65, 0
3, 24262, Note_on_c, 1, 53, 0
3, 24300, Note_on_c, 1, 53, 110
3, 24300, Note_on_c, 1, 65, 110
3, 24322, Note_on_c, 1, 65, 0
3, 24322, Note_on_c, 1, 53, 0
3, 24360, Note_on_c, 1, 53, 110
3, 24360, Note_on_c, 1, 65, 110
3, 24382, Note_on_c, 1, 65, 0
3, 24382, Note_on_c, 1, 53, 0
3, 24420, Note_on_c, 1, 53, 110
3, 24420, Note_on_c, 1, 65, 110
3, 24442, Note_on_c, 1, 65, 0
3, 24442, Note_on_c, 1, 53, 0
3, 24480, Note_on_c, 1, 53, 110
3, 24480, Note_on_c, 1, 65, 110
3, 24502, Note_on_c, 1, 65, 0
3, 24502, Note_on_c, 1, 53, 0
3, 24540, Note_on_c, 1, 53, 110
3, 24540, Note_on_c, 1, 65, 110
3, 24562, Note_on_c, 1, 65, 0
3, 24562, Note_on_c, 1, 53, 0
3, 24600, Note_on_c, 1, 53, 110
3, 24600, Note_on_c, 1, 65, 110
3, 24622, Note_on_c, 1, 65, 0
3, 24622, Note_on_c, 1, 53, 0
3, 24660, Note_on_c, 1, 53, 110
3, 24660, Note_on_c, 1, 65, 110
3, 24682, Note_on_c, 1, 65, 0
3, 24682, Note_on_c, 1, 53, 0
3, 24720, Note_on_c, 1, 62, 100
3, 24720, Note_on_c, 1, 50, 100
3, 24738, Note_on_c, 1, 50, 0
3, 24738, Note_on_c, 1, 62, 0
3, 24780, Note_on_c, 1, 64, 100
3, 24780, Note_on_c, 1, 52, 100
3, 24798, Note_on_c, 1, 52, 0
3, 24798, Note_on_c, 1, 64, 0
3, 24840, Note_on_c, 1, 64, 100
3, 24840, Note_on_c, 1, 52, 100
3, 24858, Note_on_c, 1, 52, 0
3, 24858, Note_on_c, 1, 64, 0
3, 24900, Note_on_c, 1, 64, 100
3, 24900, Note_on_c, 1, 52, 100
3, 24918, Note_on_c, 1, 52, 0
3, 24918, Note_on_c, 1, 64, 0
3, 24960, Note_on_c, 1, 64, 100
3, 24960, Note_on_c, 1, 52, 100
3, 24978, Note_on_c, 1, 52, 0
3, 24978, Note_on_c, 1, 64, 0
3, 25020, Note_on_c, 1, 64, 100
3, 25020, Note_on_c, 1, 52, 100
3, 25038, Note_on_c, 1, 52, 0
3, 25038, Note_on_c, 1, 64, 0
3, 25080, Note_on_c, 1, 64, 100
3, 25080, Note_on_c, 1, 52, 100
3, 25098, Note_on_c, 1, 52, 0
3, 25098, Note_on_c, 1, 64, 0
3, 25140, Note_on_c, 1, 64, 100
3, 25140, Note_on_c, 1, 52, 100
3, 25158, Note_on_c, 1, 52, 0
3, 25158, Note_on_c, 1, 64, 0
3, 25200, Note_on_c, 1, 64, 100
3, 25200, Note_on_c, 1, 52, 100
3, 25218, Note_on_c, 1, 52, 0
3, 25218, Note_on_c, 1, 64, 0
3, 25260, Note_on_c, 1, 64, 100
3, 25260, Note_on_c, 1, 52, 100
3, 25278, Note_on_c, 1, 52, 0
3, 25278, Note_on_c, 1, 64, 0
3, 25320, Note_on_c, 1, 64, 100
3, 25320, Note_on_c, 1, 52, 100
3, 25338, Note_on_c, 1, 52, 0
3, 25338, Note_on_c, 1, 64, 0
3, 25380, Note_on_c, 1, 62, 100
3, 25380, Note_on_c, 1, 50, 100
3, 25398, Note_on_c, 1, 50, 0
3, 25398, Note_on_c, 1, 62, 0
3, 25440, Note_on_c, 1, 64, 100
3, 25440, Note_on_c, 1, 52, 100
3, 25458, Note_on_c, 1, 52, 0
3, 25458, Note_on_c, 1, 64, 0
3, 25500, Note_on_c, 1, 64, 100
3, 25500, Note_on_c, 1, 52, 100
3, 25518, Note_on_c, 1, 52, 0
3, 25518, Note_on_c, 1, 64, 0
3, 25560, Note_on_c, 1, 64, 100
3, 25560, Note_on_c, 1, 52, 100
3, 25578, Note_on_c, 1, 52, 0
3, 25578, Note_on_c, 1, 64, 0
3, 25620, Note_on_c, 1, 62, 100
3, 25620, Note_on_c, 1, 50, 100
3, 25638, Note_on_c, 1, 50, 0
3, 25638, Note_on_c, 1, 62, 0
3, 25680, Note_on_c, 1, 64, 100
3, 25680, Note_on_c, 1, 52, 100
3, 25698, Note_on_c, 1, 52, 0
3, 25698, Note_on_c, 1, 64, 0
3, 25740, Note_on_c, 1, 64, 100
3, 25740, Note_on_c, 1, 52, 100
3, 25758, Note_on_c, 1, 52, 0
3, 25758, Note_on_c, 1, 64, 0
3, 25800, Note_on_c, 1, 64, 100
3, 25800, Note_on_c, 1, 52, 100
3, 25818, Note_on_c, 1, 52, 0
3, 25818, Note_on_c, 1, 64, 0
3, 25860, Note_on_c, 1, 64, 100
3, 25860, Note_on_c, 1, 52, 100
3, 25878, Note_on_c, 1, 52, 0
3, 25878, Note_on_c, 1, 64, 0
3, 25920, Note_on_c, 1, 64, 100
3, 25920, Note_on_c, 1, 52, 100
3, 25938, Note_on_c, 1, 52, 0
3, 25938, Note_on_c, 1, 64, 0
3, 25980, Note_on_c, 1, 64, 100
3, 25980, Note_on_c, 1, 52, 100
3, 25998, Note_on_c, 1, 52, 0
3, 25998, Note_on_c, 1, 64, 0
3, 26040, Note_on_c, 1, 64, 100
3, 26040, Note_on_c, 1, 52, 100
3, 26058, Note_on_c, 1, 52, 0
3, 26058, Note_on_c, 1, 64, 0
3, 26100, Note_on_c, 1, 64, 100
3, 26100, Note_on_c, 1, 52, 100
3, 26118, Note_on_c, 1, 52, 0
3, 26118, Note_on_c, 1, 64, 0
3, 26160, Note_on_c, 1, 50, 100
3, 26160, Note_on_c, 1, 62, 100
3, 26178, Note_on_c, 1, 62, 0
3, 26178, Note_on_c, 1, 50, 0
3, 26220, Note_on_c, 1, 52, 100
3, 26220, Note_on_c, 1, 64, 100
3, 26238, Note_on_c, 1, 64, 0
3, 26238, Note_on_c, 1, 52, 0
3, 26280, Note_on_c, 1, 52, 100
3, 26280, Note_on_c, 1, 64, 100
3, 26298, Note_on_c, 1, 64, 0
3, 26298, Note_on_c, 1, 52, 0
3, 26340, Note_on_c, 1, 52, 100
3, 26340, Note_on_c, 1, 64, 100
3, 26358, Note_on_c, 1, 64, 0
3, 26358, Note_on_c, 1, 52, 0
3, 26400, Note_on_c, 1, 52, 100
3, 26400, Note_on_c, 1, 64, 100
3, 26418, Note_on_c, 1, 64, 0
3, 26418, Note_on_c, 1, 52, 0
3, 26460, Note_on_c, 1, 52, 100
3, 26460, Note_on_c, 1, 64, 100
3, 26478, Note_on_c, 1, 64, 0
3, 26478, Note_on_c, 1, 52, 0
3, 26520, Note_on_c, 1, 52, 100
3, 26520, Note_on_c, 1, 64, 100
3, 26538, Note_on_c, 1, 64, 0
3, 26538, Note_on_c, 1, 52, 0
3, 26580, Note_on_c, 1, 52, 100
3, 26580, Note_on_c, 1, 64, 100
3, 26598, Note_on_c, 1, 64, 0
3, 26598, Note_on_c, 1, 52, 0
3, 26640, Note_on_c, 1, 52, 100
3, 26640, Note_on_c, 1, 64, 100
3, 26658, Note_on_c, 1, 64, 0
3, 26658, Note_on_c, 1, 52, 0
3, 26700, Note_on_c, 1, 52, 100
3, 26700, Note_on_c, 1, 64, 100
3, 26718, Note_on_c, 1, 64, 0
3, 26718, Note_on_c, 1, 52, 0
3, 26760, Note_on_c, 1, 52, 100
3, 26760, Note_on_c, 1, 64, 100
3, 26778, Note_on_c, 1, 64, 0
3, 26778, Note_on_c, 1, 52, 0
3, 26820, Note_on_c, 1, 50, 100
3, 26820, Note_on_c, 1, 62, 100
3, 26838, Note_on_c, 1, 62, 0
3, 26838, Note_on_c, 1, 50, 0
3, 26880, Note_on_c, 1, 52, 100
3, 26880, Note_on_c, 1, 64, 100
3, 26898, Note_on_c, 1, 64, 0
3, 26898, Note_on_c, 1, 52, 0
3, 26940, Note_on_c, 1, 52, 100
3, 26940, Note_on_c, 1, 64, 100
3, 26958, Note_on_c, 1, 64, 0
3, 26958, Note_on_c, 1, 52, 0
3, 27000, Note_on_c, 1, 52, 100
3, 27000, Note_on_c, 1, 64, 100
3, 27018, Note_on_c, 1, 64, 0
3, 27018, Note_on_c, 1, 52, 0
3, 27060, Note_on_c, 1, 50, 100
3, 27060, Note_on_c, 1, 62, 100
3, 27078, Note_on_c, 1, 62, 0
3, 27078, Note_on_c, 1, 50, 0
3, 27120, Note_on_c, 1, 52, 100
3, 27120, Note_on_c, 1, 64, 100
3, 27138, Note_on_c, 1, 64, 0
3, 27138, Note_on_c, 1, 52, 0
3, 27180, Note_on_c, 1, 52, 100
3, 27180, Note_on_c, 1, 64, 100
3, 27198, Note_on_c, 1, 64, 0
3, 27198, Note_on_c, 1, 52, 0
3, 27240, Note_on_c, 1, 52, 100
3, 27240, Note_on_c, 1, 64, 100
3, 27258, Note_on_c, 1, 64, 0
3, 27258, Note_on_c, 1, 52, 0
3, 27300, Note_on_c, 1, 52, 100
3, 27300, Note_on_c, 1, 64, 100
3, 27318, Note_on_c, 1, 64, 0
3, 27318, Note_on_c, 1, 52, 0
3, 27360, Note_on_c, 1, 52, 100
3, 27360, Note_on_c, 1, 64, 100
3, 27378, Note_on_c, 1, 64, 0
3, 27378, Note_on_c, 1, 52, 0
3, 27420, Note_on_c, 1, 52, 100
3, 27420, Note_on_c, 1, 64, 100
3, 27438, Note_on_c, 1, 64, 0
3, 27438, Note_on_c, 1, 52, 0
3, 27480, Note_on_c, 1, 52, 100
3, 27480, Note_on_c, 1, 64, 100
3, 27498, Note_on_c, 1, 64, 0
3, 27498, Note_on_c, 1, 52, 0
3, 27540, Note_on_c, 1, 52, 100
3, 27540, Note_on_c, 1, 64, 100
3, 27558, Note_on_c, 1, 64, 0
3, 27558, Note_on_c, 1, 52, 0
3, 27600, Note_on_c, 1, 50, 100
3, 27600, Note_on_c, 1, 62, 100
3, 27618, Note_on_c, 1, 62, 0
3, 27618, Note_on_c, 1, 50, 0
3, 27660, Note_on_c, 1, 52, 100
3, 27660, Note_on_c, 1, 64, 100
3, 27678, Note_on_c, 1, 64, 0
3, 27678, Note_on_c, 1, 52, 0
3, 27720, Note_on_c, 1, 52, 100
3, 27720, Note_on_c, 1, 64, 100
3, 27738, Note_on_c, 1, 64, 0
3, 27738, Note_on_c, 1, 52, 0
3, 27780, Note_on_c, 1, 52, 100
3, 27780, Note_on_c, 1, 64, 100
3, 27798, Note_on_c, 1, 64, 0
3, 27798, Note_on_c, 1, 52, 0
3, 27840, Note_on_c, 1, 52, 100
3, 27840, Note_on_c, 1, 64, 100
3, 27858, Note_on_c, 1, 64, 0
3, 27858, Note_on_c, 1, 52, 0
3, 27900, Note_on_c, 1, 52, 100
3, 27900, Note_on_c, 1, 64, 100
3, 27918, Note_on_c, 1, 64, 0
3, 27918, Note_on_c, 1, 52, 0
3, 27960, Note_on_c, 1, 52, 100
3, 27960, Note_on_c, 1, 64, 100
3, 27978, Note_on_c, 1, 64, 0
3, 27978, Note_on_c, 1, 52, 0
3, 28020, Note_on_c, 1, 52, 100
3, 28020, Note_on_c, 1, 64, 100
3, 28038, Note_on_c, 1, 64, 0
3, 28038, Note_on_c, 1, 52, 0
3, 28080, Note_on_c, 1, 52, 100
3, 28080, Note_on_c, 1, 64, 100
3, 28098, Note_on_c, 1, 64, 0
3, 28098, Note_on_c, 1, 52, 0
3, 28140, Note_on_c, 1, 52, 100
3, 28140, Note_on_c, 1, 64, 100
3, 28158, Note_on_c, 1, 64, 0
3, 28158, Note_on_c, 1, 52, 0
3, 28200, Note_on_c, 1, 52, 100
3, 28200, Note_on_c, 1, 64, 100
3, 28218, Note_on_c, 1, 64, 0
3, 28218, Note_on_c, 1, 52, 0
3, 28260, Note_on_c, 1, 50, 100
3, 28260, Note_on_c, 1, 62, 100
3, 28278, Note_on_c, 1, 62, 0
3, 28278, Note_on_c, 1, 50, 0
3, 28320, Note_on_c, 1, 52, 100
3, 28320, Note_on_c, 1, 64, 100
3, 28338, Note_on_c, 1, 64, 0
3, 28338, Note_on_c, 1, 52, 0
3, 28380, Note_on_c, 1, 52, 100
3, 28380, Note_on_c, 1, 64, 100
3, 28398, Note_on_c, 1, 64, 0
3, 28398, Note_on_c, 1, 52, 0
3, 28440, Note_on_c, 1, 52, 100
3, 28440, Note_on_c, 1, 64, 100
3, 28458, Note_on_c, 1, 64, 0
3, 28458, Note_on_c, 1, 52, 0
3, 28500, Note_on_c, 1, 50, 100
3, 28500, Note_on_c, 1, 62, 100
3, 28518, Note_on_c, 1, 62, 0
3, 28518, Note_on_c, 1, 50, 0
3, 28560, Note_on_c, 1, 52, 100
3, 28560, Note_on_c, 1, 64, 100
3, 28578, Note_on_c, 1, 64, 0
3, 28578, Note_on_c, 1, 52, 0
3, 28620, Note_on_c, 1, 52, 100
3, 28620, Note_on_c, 1, 64, 100
3, 28638, Note_on_c, 1, 64, 0
3, 28638, Note_on_c, 1, 52, 0
3, 28680, Note_on_c, 1, 52, 100
3, 28680, Note_on_c, 1, 64, 100
3, 28698, Note_on_c, 1, 64, 0
3, 28698, Note_on_c, 1, 52, 0
3, 28740, Note_on_c, 1, 52, 100
3, 28740, Note_on_c, 1, 64, 100
3, 28758, Note_on_c, 1, 64, 0
3, 28758, Note_on_c, 1, 52, 0
3, 28800, Note_on_c, 1, 52, 100
3, 28800, Note_on_c, 1, 64, 100
3, 28818, Note_on_c, 1, 64, 0
3, 28818, Note_on_c, 1, 52, 0
3, 28860, Note_on_c, 1, 52, 100
3, 28860, Note_on_c, 1, 64, 100
3, 28878, Note_on_c, 1, 64, 0
3, 28878, Note_on_c, 1, 52, 0
3, 28920, Note_on_c, 1, 52, 100
3, 28920, Note_on_c, 1, 64, 100
3, 28938, Note_on_c, 1, 64, 0
3, 28938, Note_on_c, 1, 52, 0
3, 28980, Note_on_c, 1, 52, 100
3, 28980, Note_on_c, 1, 64, 100
3, 28998, Note_on_c, 1, 64, 0
3, 28998, Note_on_c, 1, 52, 0
3, 29040, Note_on_c, 1, 50, 100
3, 29040, Note_on_c, 1, 62, 100
3, 29058, Note_on_c, 1, 62, 0
3, 29058, Note_on_c, 1, 50, 0
3, 29100, Note_on_c, 1, 52, 100
3, 29100, Note_on_c, 1, 64, 100
3, 29118, Note_on_c, 1, 64, 0
3, 29118, Note_on_c, 1, 52, 0
3, 29160, Note_on_c, 1, 52, 100
3, 29160, Note_on_c, 1, 64, 100
3, 29178, Note_on_c, 1, 64, 0
3, 29178, Note_on_c, 1, 52, 0
3, 29220, Note_on_c, 1, 52, 100
3, 29220, Note_on_c, 1, 64, 100
3, 29238, Note_on_c, 1, 64, 0
3, 29238, Note_on_c, 1, 52, 0
3, 29280, Note_on_c, 1, 52, 100
3, 29280, Note_on_c, 1, 64, 100
3, 29298, Note_on_c, 1, 64, 0
3, 29298, Note_on_c, 1, 52, 0
3, 29340, Note_on_c, 1, 52, 100
3, 29340, Note_on_c, 1, 64, 100
3, 29358, Note_on_c, 1, 64, 0
3, 29358, Note_on_c, 1, 52, 0
3, 29400, Note_on_c, 1, 52, 100
3, 29400, Note_on_c, 1, 64, 100
3, 29418, Note_on_c, 1, 64, 0
3, 29418, Note_on_c, 1, 52, 0
3, 29460, Note_on_c, 1, 52, 100
3, 29460, Note_on_c, 1, 64, 100
3, 29478, Note_on_c, 1, 64, 0
3, 29478, Note_on_c, 1, 52, 0
3, 29520, Note_on_c, 1, 52, 100
3, 29520, Note_on_c, 1, 64, 100
3, 29538, Note_on_c, 1, 64, 0
3, 29538, Note_on_c, 1, 52, 0
3, 29580, Note_on_c, 1, 52, 100
3, 29580, Note_on_c, 1, 64, 100
3, 29598, Note_on_c, 1, 64, 0
3, 29598, Note_on_c, 1, 52, 0
3, 29640, Note_on_c, 1, 52, 100
3, 29640, Note_on_c, 1, 64, 100
3, 29658, Note_on_c, 1, 64, 0
3, 29658, Note_on_c, 1, 52, 0
3, 29700, Note_on_c, 1, 50, 100
3, 29700, Note_on_c, 1, 62, 100
3, 29718, Note_on_c, 1, 62, 0
3, 29718, Note_on_c, 1, 50, 0
3, 29760, Note_on_c, 1, 52, 100
3, 29760, Note_on_c, 1, 64, 100
3, 29778, Note_on_c, 1, 64, 0
3, 29778, Note_on_c, 1, 52, 0
3, 29820, Note_on_c, 1, 52, 100
3, 29820, Note_on_c, 1, 64, 100
3, 29838, Note_on_c, 1, 64, 0
3, 29838, Note_on_c, 1, 52, 0
3, 29880, Note_on_c, 1, 52, 100
3, 29880, Note_on_c, 1, 64, 100
3, 29898, Note_on_c, 1, 64, 0
3, 29898, Note_on_c, 1, 52, 0
3, 29940, Note_on_c, 1, 50, 100
3, 29940, Note_on_c, 1, 62, 100
3, 29958, Note_on_c, 1, 62, 0
3, 29958, Note_on_c, 1, 50, 0
3, 30000, Note_on_c, 1, 52, 100
3, 30000, Note_on_c, 1, 64, 100
3, 30018, Note_on_c, 1, 64, 0
3, 30018, Note_on_c, 1, 52, 0
3, 30060, Note_on_c, 1, 52, 100
3, 30060, Note_on_c, 1, 64, 100
3, 30078, Note_on_c, 1, 64, 0
3, 30078, Note_on_c, 1, 52, 0
3, 30120, Note_on_c, 1, 52, 100
3, 30120, Note_on_c, 1, 64, 100
3, 30138, Note_on_c, 1, 64, 0
3, 30138, Note_on_c, 1, 52, 0
3, 30180, Note_on_c, 1, 52, 100
3, 30180, Note_on_c, 1, 64, 100
3, 30198, Note_on_c, 1, 64, 0
3, 30198, Note_on_c, 1, 52, 0
3, 30240, Note_on_c, 1, 52, 100
3, 30240, Note_on_c, 1, 64, 100
3, 30258, Note_on_c, 1, 64, 0
3, 30258, Note_on_c, 1, 52, 0
3, 30300, Note_on_c, 1, 52, 100
3, 30300, Note_on_c, 1, 64, 100
3, 30318, Note_on_c, 1, 64, 0
3, 30318, Note_on_c, 1, 52, 0
3, 30360, Note_on_c, 1, 52, 100
3, 30360, Note_on_c, 1, 64, 100
3, 30378, Note_on_c, 1, 64, 0
3, 30378, Note_on_c, 1, 52, 0
3, 30420, Note_on_c, 1, 52, 100
3, 30420, Note_on_c, 1, 64, 100
3, 30438, Note_on_c, 1, 64, 0
3, 30438, Note_on_c, 1, 52, 0
3, 30480, Note_on_c, 1, 50, 100
3, 30480, Note_on_c, 1, 62, 100
3, 30498, Note_on_c, 1, 62, 0
3, 30498, Note_on_c, 1, 50, 0
3, 30540, Note_on_c, 1, 52, 100
3, 30540, Note_on_c, 1, 64, 100
3, 30558, Note_on_c, 1, 64, 0
3, 30558, Note_on_c, 1, 52, 0
3, 30600, Note_on_c, 1, 52, 100
3, 30600, Note_on_c, 1, 64, 100
3, 30618, Note_on_c, 1, 64, 0
3, 30618, Note_on_c, 1, 52, 0
3, 30660, Note_on_c, 1, 52, 100
3, 30660, Note_on_c, 1, 64, 100
3, 30678, Note_on_c, 1, 64, 0
3, 30678, Note_on_c, 1, 52, 0
3, 30720, Note_on_c, 1, 52, 100
3, 30720, Note_on_c, 1, 64, 100
3, 30738, Note_on_c, 1, 64, 0
3, 30738, Note_on_c, 1, 52, 0
3, 30780, Note_on_c, 1, 52, 100
3, 30780, Note_on_c, 1, 64, 100
3, 30798, Note_on_c, 1, 64, 0
3, 30798, Note_on_c, 1, 52, 0
3, 30840, Note_on_c, 1, 52, 100
3, 30840, Note_on_c, 1, 64, 100
3, 30858, Note_on_c, 1, 64, 0
3, 30858, Note_on_c, 1, 52, 0
3, 30900, Note_on_c, 1, 52, 100
3, 30900, Note_on_c, 1, 64, 100
3, 30918, Note_on_c, 1, 64, 0
3, 30918, Note_on_c, 1, 52, 0
3, 30960, Note_on_c, 1, 52, 100
3, 30960, Note_on_c, 1, 64, 100
3, 30978, Note_on_c, 1, 64, 0
3, 30978, Note_on_c, 1, 52, 0
3, 31020, Note_on_c, 1, 52, 100
3, 31020, Note_on_c, 1, 64, 100
3, 31038, Note_on_c, 1, 64, 0
3, 31038, Note_on_c, 1, 52, 0
3, 31080, Note_on_c, 1, 52, 100
3, 31080, Note_on_c, 1, 64, 100
3, 31098, Note_on_c, 1, 64, 0
3, 31098, Note_on_c, 1, 52, 0
3, 31140, Note_on_c, 1, 50, 100
3, 31140, Note_on_c, 1, 62, 100
3, 31158, Note_on_c, 1, 62, 0
3, 31158, Note_on_c, 1, 50, 0
3, 31200, Note_on_c, 1, 52, 100
3, 31200, Note_on_c, 1, 64, 100
3, 31218, Note_on_c, 1, 64, 0
3, 31218, Note_on_c, 1, 52, 0
3, 31260, Note_on_c, 1, 52, 100
3, 31260, Note_on_c, 1, 64, 100
3, 31278, Note_on_c, 1, 64, 0
3, 31278, Note_on_c, 1, 52, 0
3, 31320, Note_on_c, 1, 52, 100
3, 31320, Note_on_c, 1, 64, 100
3, 31338, Note_on_c, 1, 64, 0
3, 31338, Note_on_c, 1, 52, 0
3, 31380, Note_on_c, 1, 50, 100
3, 31380, Note_on_c, 1, 62, 100
3, 31398, Note_on_c, 1, 62, 0
3, 31398, Note_on_c, 1, 50, 0
3, 31440, Note_on_c, 1, 52, 100
3, 31440, Note_on_c, 1, 64, 100
3, 31458, Note_on_c, 1, 64, 0
3, 31458, Note_on_c, 1, 52, 0
3, 31500, Note_on_c, 1, 52, 100
3, 31500, Note_on_c, 1, 64, 100
3, 31518, Note_on_c, 1, 64, 0
3, 31518, Note_on_c, 1, 52, 0
3, 31560, Note_on_c, 1, 52, 100
3, 31560, Note_on_c, 1, 64, 100
3, 31578, Note_on_c, 1, 64, 0
3, 31578, Note_on_c, 1, 52, 0
3, 31620, Note_on_c, 1, 52, 100
3, 31620, Note_on_c, 1, 64, 100
3, 31638, Note_on_c, 1, 64, 0
3, 31638, Note_on_c, 1, 52, 0
3, 31680, Note_on_c, 1, 52, 100
3, 31680, Note_on_c, 1, 64, 100
3, 31698, Note_on_c, 1, 64, 0
3, 31698, Note_on_c, 1, 52, 0
3, 31740, Note_on_c, 1, 52, 100
3, 31740, Note_on_c, 1, 64, 100
3, 31758, Note_on_c, 1, 64, 0
3, 31758, Note_on_c, 1, 52, 0
3, 31800, Note_on_c, 1, 52, 100
3, 31800, Note_on_c, 1, 64, 100
3, 31818, Note_on_c, 1, 64, 0
3, 31818, Note_on_c, 1, 52, 0
3, 31860, Note_on_c, 1, 52, 100
3, 31860, Note_on_c, 1, 64, 100
3, 31878, Note_on_c, 1, 64, 0
3, 31878, Note_on_c, 1, 52, 0
3, 31920, Note_on_c, 1, 62, 100
3, 31920, Note_on_c, 1, 50, 100
3, 31938, Note_on_c, 1, 50, 0
3, 31938, Note_on_c, 1, 62, 0
3, 31980, Note_on_c, 1, 64, 100
3, 31980, Note_on_c, 1, 52, 100
3, 31998, Note_on_c, 1, 52, 0
3, 31998, Note_on_c, 1, 64, 0
3, 32040, Note_on_c, 1, 64, 100
3, 32040, Note_on_c, 1, 52, 100
3, 32058, Note_on_c, 1, 52, 0
3, 32058, Note_on_c, 1, 64, 0
3, 32100, Note_on_c, 1, 64, 100
3, 32100, Note_on_c, 1, 52, 100
3, 32118, Note_on_c, 1, 52, 0
3, 32118, Note_on_c, 1, 64, 0
3, 32160, Note_on_c, 1, 64, 100
3, 32160, Note_on_c, 1, 52, 100
3, 32178, Note_on_c, 1, 52, 0
3, 32178, Note_on_c, 1, 64, 0
3, 32220, Note_on_c, 1, 64, 100
3, 32220, Note_on_c, 1, 52, 100
3, 32238, Note_on_c, 1, 52, 0
3, 32238, Note_on_c, 1, 64, 0
3, 32280, Note_on_c, 1, 64, 100
3, 32280, Note_on_c, 1, 52, 100
3, 32298, Note_on_c, 1, 52, 0
3, 32298, Note_on_c, 1, 64, 0
3, 32340, Note_on_c, 1, 64, 100
3, 32340, Note_on_c, 1, 52, 100
3, 32358, Note_on_c, 1, 52, 0
3, 32358, Note_on_c, 1, 64, 0
3, 32400, Note_on_c, 1, 64, 100
3, 32400, Note_on_c, 1, 52, 100
3, 32418, Note_on_c, 1, 52, 0
3, 32418, Note_on_c, 1, 64, 0
3, 32460, Note_on_c, 1, 64, 100
3, 32460, Note_on_c, 1, 52, 100
3, 32478, Note_on_c, 1, 52, 0
3, 32478, Note_on_c, 1, 64, 0
3, 32520, Note_on_c, 1, 64, 100
3, 32520, Note_on_c, 1, 52, 100
3, 32538, Note_on_c, 1, 52, 0
3, 32538, Note_on_c, 1, 64, 0
3, 32580, Note_on_c, 1, 62, 100
3, 32580, Note_on_c, 1, 50, 100
3, 32598, Note_on_c, 1, 50, 0
3, 32598, Note_on_c, 1, 62, 0
3, 32640, Note_on_c, 1, 64, 100
3, 32640, Note_on_c, 1, 52, 100
3, 32658, Note_on_c, 1, 52, 0
3, 32658, Note_on_c, 1, 64, 0
3, 32700, Note_on_c, 1, 64, 100
3, 32700, Note_on_c, 1, 52, 100
3, 32718, Note_on_c, 1, 52, 0
3, 32718, Note_on_c, 1, 64, 0
3, 32760, Note_on_c, 1, 64, 100
3, 32760, Note_on_c, 1, 52, 100
3, 32778, Note_on_c, 1, 52, 0
3, 32778, Note_on_c, 1, 64, 0
3, 32820, Note_on_c, 1, 62, 100
3, 32820, Note_on_c, 1, 50, 100
3, 32838, Note_on_c, 1, 50, 0
3, 32838, Note_on_c, 1, 62, 0
3, 32880, Note_on_c, 1, 64, 100
3, 32880, Note_on_c, 1, 52, 100
3, 32898, Note_on_c, 1, 52, 0
3, 32898, Note_on_c, 1, 64, 0
3, 32940, Note_on_c, 1, 64, 100
3, 32940, Note_on_c, 1, 52, 100
3, 32958, Note_on_c, 1, 52, 0
3, 32958, Note_on_c, 1, 64, 0
3, 33000, Note_on_c, 1, 64, 100
3, 33000, Note_on_c, 1, 52, 100
3, 33018, Note_on_c, 1, 52, 0
3, 33018, Note_on_c, 1, 64, 0
3, 33060, Note_on_c, 1, 64, 100
3, 33060, Note_on_c, 1, 52, 100
3, 33078, Note_on_c, 1, 52, 0
3, 33078, Note_on_c, 1, 64, 0
3, 33120, Note_on_c, 1, 64, 100
3, 33120, Note_on_c, 1, 52, 100
3, 33138, Note_on_c, 1, 52, 0
3, 33138, Note_on_c, 1, 64, 0
3, 33180, Note_on_c, 1, 64, 100
3, 33180, Note_on_c, 1, 52, 100
3, 33198, Note_on_c, 1, 52, 0
3, 33198, Note_on_c, 1, 64, 0
3, 33240, Note_on_c, 1, 64, 100
3, 33240, Note_on_c, 1, 52, 100
3, 33258, Note_on_c, 1, 52, 0
3, 33258, Note_on_c, 1, 64, 0
3, 33300, Note_on_c, 1, 64, 100
3, 33300, Note_on_c, 1, 52, 100
3, 33318, Note_on_c, 1, 52, 0
3, 33318, Note_on_c, 1, 64, 0
3, 33360, Note_on_c, 1, 50, 100
3, 33360, Note_on_c, 1, 62, 100
3, 33378, Note_on_c, 1, 62, 0
3, 33378, Note_on_c, 1, 50, 0
3, 33420, Note_on_c, 1, 52, 100
3, 33420, Note_on_c, 1, 64, 100
3, 33438, Note_on_c, 1, 64, 0
3, 33438, Note_on_c, 1, 52, 0
3, 33480, Note_on_c, 1, 52, 100
3, 33480, Note_on_c, 1, 64, 100
3, 33498, Note_on_c, 1, 64, 0
3, 33498, Note_on_c, 1, 52, 0
3, 33540, Note_on_c, 1, 52, 100
3, 33540, Note_on_c, 1, 64, 100
3, 33558, Note_on_c, 1, 64, 0
3, 33558, Note_on_c, 1, 52, 0
3, 33600, Note_on_c, 1, 52, 100
3, 33600, Note_on_c, 1, 64, 100
3, 33618, Note_on_c, 1, 64, 0
3, 33618, Note_on_c, 1, 52, 0
3, 33660, Note_on_c, 1, 52, 100
3, 33660, Note_on_c, 1, 64, 100
3, 33678, Note_on_c, 1, 64, 0
3, 33678, Note_on_c, 1, 52, 0
3, 33720, Note_on_c, 1, 52, 100
3, 33720, Note_on_c, 1, 64, 100
3, 33738, Note_on_c, 1, 64, 0
3, 33738, Note_on_c, 1, 52, 0
3, 33780, Note_on_c, 1, 52, 100
3, 33780, Note_on_c, 1, 64, 100
3, 33798, Note_on_c, 1, 64, 0
3, 33798, Note_on_c, 1, 52, 0
3, 33840, Note_on_c, 1, 52, 100
3, 33840, Note_on_c, 1, 64, 100
3, 33858, Note_on_c, 1, 64, 0
3, 33858, Note_on_c, 1, 52, 0
3, 33900, Note_on_c, 1, 52, 100
3, 33900, Note_on_c, 1, 64, 100
3, 33918, Note_on_c, 1, 64, 0
3, 33918, Note_on_c, 1, 52, 0
3, 33960, Note_on_c, 1, 52, 100
3, 33960, Note_on_c, 1, 64, 100
3, 33978, Note_on_c, 1, 64, 0
3, 33978, Note_on_c, 1, 52, 0
3, 34020, Note_on_c, 1, 50, 100
3, 34020, Note_on_c, 1, 62, 100
3, 34038, Note_on_c, 1, 62, 0
3, 34038, Note_on_c, 1, 50, 0
3, 34080, Note_on_c, 1, 52, 100
3, 34080, Note_on_c, 1, 64, 100
3, 34098, Note_on_c, 1, 64, 0
3, 34098, Note_on_c, 1, 52, 0
3, 34140, Note_on_c, 1, 52, 100
3, 34140, Note_on_c, 1, 64, 100
3, 34158, Note_on_c, 1, 64, 0
3, 34158, Note_on_c, 1, 52, 0
3, 34200, Note_on_c, 1, 52, 100
3, 34200, Note_on_c, 1, 64, 100
3, 34218, Note_on_c, 1, 64, 0
3, 34218, Note_on_c, 1, 52, 0
3, 34260, Note_on_c, 1, 50, 100
3, 34260, Note_on_c, 1, 62, 100
3, 34278, Note_on_c, 1, 62, 0
3, 34278, Note_on_c, 1, 50, 0
3, 34320, Note_on_c, 1, 52, 100
3, 34320, Note_on_c, 1, 64, 100
3, 34338, Note_on_c, 1, 64, 0
3, 34338, Note_on_c, 1, 52, 0
3, 34380, Note_on_c, 1, 52, 100
3, 34380, Note_on_c, 1, 64, 100
3, 34398, Note_on_c, 1, 64, 0
3, 34398, Note_on_c, 1, 52, 0
3, 34440, Note_on_c, 1, 52, 100
3, 34440, Note_on_c, 1, 64, 100
3, 34458, Note_on_c, 1, 64, 0
3, 34458, Note_on_c, 1, 52, 0
3, 34500, Note_on_c, 1, 52, 100
3, 34500, Note_on_c, 1, 64, 100
3, 34518, Note_on_c, 1, 64, 0
3, 34518, Note_on_c, 1, 52, 0
3, 34560, Note_on_c, 1, 52, 100
3, 34560, Note_on_c, 1, 64, 100
3, 34578, Note_on_c, 1, 64, 0
3, 34578, Note_on_c, 1, 52, 0
3, 34620, Note_on_c, 1, 52, 100
3, 34620, Note_on_c, 1, 64, 100
3, 34638, Note_on_c, 1, 64, 0
3, 34638, Note_on_c, 1, 52, 0
3, 34680, Note_on_c, 1, 52, 100
3, 34680, Note_on_c, 1, 64, 100
3, 34698, Note_on_c, 1, 64, 0
3, 34698, Note_on_c, 1, 52, 0
3, 34740, Note_on_c, 1, 52, 100
3, 34740, Note_on_c, 1, 64, 100
3, 34758, Note_on_c, 1, 64, 0
3, 34758, Note_on_c, 1, 52, 0
3, 34800, Note_on_c, 1, 62, 100
3, 34800, Note_on_c, 1, 50, 100
3, 34818, Note_on_c, 1, 50, 0
3, 34818, Note_on_c, 1, 62, 0
3, 34860, Note_on_c, 1, 64, 100
3, 34860, Note_on_c, 1, 52, 100
3, 34878, Note_on_c, 1, 52, 0
3, 34878, Note_on_c, 1, 64, 0
3, 34920, Note_on_c, 1, 64, 100
3, 34920, Note_on_c, 1, 52, 100
3, 34938, Note_on_c, 1, 52, 0
3, 34938, Note_on_c, 1, 64, 0
3, 34980, Note_on_c, 1, 64, 100
3, 34980, Note_on_c, 1, 52, 100
3, 34998, Note_on_c, 1, 52, 0
3, 34998, Note_on_c, 1, 64, 0
3, 35040, Note_on_c, 1, 64, 100
3, 35040, Note_on_c, 1, 52, 100
3, 35058, Note_on_c, 1, 52, 0
3, 35058, Note_on_c, 1, 64, 0
3, 35100, Note_on_c, 1, 64, 100
3, 35100, Note_on_c, 1, 52, 100
3, 35118, Note_on_c, 1, 52, 0
3, 35118, Note_on_c, 1, 64, 0
3, 35160, Note_on_c, 1, 64, 100
3, 35160, Note_on_c, 1, 52, 100
3, 35178, Note_on_c, 1, 52, 0
3, 35178, Note_on_c, 1, 64, 0
3, 35220, Note_on_c, 1, 64, 100
3, 35220, Note_on_c, 1, 52, 100
3, 35238, Note_on_c, 1, 52, 0
3, 35238, Note_on_c, 1, 64, 0
3, 35280, Note_on_c, 1, 64, 100
3, 35280, Note_on_c, 1, 52, 100
3, 35298, Note_on_c, 1, 52, 0
3, 35298, Note_on_c, 1, 64, 0
3, 35340, Note_on_c, 1, 64, 100
3, 35340, Note_on_c, 1, 52, 100
3, 35358, Note_on_c, 1, 52, 0
3, 35358, Note_on_c, 1, 64, 0
3, 35400, Note_on_c, 1, 64, 100
3, 35400, Note_on_c, 1, 52, 100
3, 35418, Note_on_c, 1, 52, 0
3, 35418, Note_on_c, 1, 64, 0
3, 35460, Note_on_c, 1, 62, 100
3, 35460, Note_on_c, 1, 50, 100
3, 35478, Note_on_c, 1, 50, 0
3, 35478, Note_on_c, 1, 62, 0
3, 35520, Note_on_c, 1, 64, 100
3, 35520, Note_on_c, 1, 52, 100
3, 35538, Note_on_c, 1, 52, 0
3, 35538, Note_on_c, 1, 64, 0
3, 35580, Note_on_c, 1, 64, 100
3, 35580, Note_on_c, 1, 52, 100
3, 35598, Note_on_c, 1, 52, 0
3, 35598, Note_on_c, 1, 64, 0
3, 35640, Note_on_c, 1, 64, 100
3, 35640, Note_on_c, 1, 52, 100
3, 35658, Note_on_c, 1, 52, 0
3, 35658, Note_on_c, 1, 64, 0
3, 35700, Note_on_c, 1, 62, 100
3, 35700, Note_on_c, 1, 50, 100
3, 35718, Note_on_c, 1, 50, 0
3, 35718, Note_on_c, 1, 62, 0
3, 35760, Note_on_c, 1, 64, 100
3, 35760, Note_on_c, 1, 52, 100
3, 35778, Note_on_c, 1, 52, 0
3, 35778, Note_on_c, 1, 64, 0
3, 35820, Note_on_c, 1, 64, 100
3, 35820, Note_on_c, 1, 52, 100
3, 35838, Note_on_c, 1, 52, 0
3, 35838, Note_on_c, 1, 64, 0
3, 35880, Note_on_c, 1, 64, 100
3, 35880, Note_on_c, 1, 52, 100
3, 35898, Note_on_c, 1, 52, 0
3, 35898, Note_on_c, 1, 64, 0
3, 35940, Note_on_c, 1, 64, 100
3, 35940, Note_on_c, 1, 52, 100
3, 35958, Note_on_c, 1, 52, 0
3, 35958, Note_on_c, 1, 64, 0
3, 36000, Note_on_c, 1, 64, 100
3, 36000, Note_on_c, 1, 52, 100
3, 36018, Note_on_c, 1, 52, 0
3, 36018, Note_on_c, 1, 64, 0
3, 36060, Note_on_c, 1, 64, 100
3, 36060, Note_on_c, 1, 52, 100
3, 36078, Note_on_c, 1, 52, 0
3, 36078, Note_on_c, 1, 64, 0
3, 36120, Note_on_c, 1, 64, 100
3, 36120, Note_on_c, 1, 52, 100
3, 36138, Note_on_c, 1, 52, 0
3, 36138, Note_on_c, 1, 64, 0
3, 36180, Note_on_c, 1, 64, 100
3, 36180, Note_on_c, 1, 52, 100
3, 36198, Note_on_c, 1, 52, 0
3, 36198, Note_on_c, 1, 64, 0
3, 36240, Note_on_c, 1, 50, 100
3, 36240, Note_on_c, 1, 62, 100
3, 36258, Note_on_c, 1, 62, 0
3, 36258, Note_on_c, 1, 50, 0
3, 36300, Note_on_c, 1, 52, 100
3, 36300, Note_on_c, 1, 64, 100
3, 36318, Note_on_c, 1, 64, 0
3, 36318, Note_on_c, 1, 52, 0
3, 36360, Note_on_c, 1, 52, 100
3, 36360, Note_on_c, 1, 64, 100
3, 36378, Note_on_c, 1, 64, 0
3, 36378, Note_on_c, 1, 52, 0
3, 36420, Note_on_c, 1, 52, 100
3, 36420, Note_on_c, 1, 64, 100
3, 36438, Note_on_c, 1, 64, 0
3, 36438, Note_on_c, 1, 52, 0
3, 36480, Note_on_c, 1, 52, 100
3, 36480, Note_on_c, 1, 64, 100
3, 36498, Note_on_c, 1, 64, 0
3, 36498, Note_on_c, 1, 52, 0
3, 36540, Note_on_c, 1, 52, 100
3, 36540, Note_on_c, 1, 64, 100
3, 36558, Note_on_c, 1, 64, 0
3, 36558, Note_on_c, 1, 52, 0
3, 36600, Note_on_c, 1, 52, 100
3, 36600, Note_on_c, 1, 64, 100
3, 36618, Note_on_c, 1, 64, 0
3, 36618, Note_on_c, 1, 52, 0
3, 36660, Note_on_c, 1, 52, 100
3, 36660, Note_on_c, 1, 64, 100
3, 36678, Note_on_c, 1, 64, 0
3, 36678, Note_on_c, 1, 52, 0
3, 36720, Note_on_c, 1, 52, 100
3, 36720, Note_on_c, 1, 64, 100
3, 36738, Note_on_c, 1, 64, 0
3, 36738, Note_on_c, 1, 52, 0
3, 36780, Note_on_c, 1, 52, 100
3, 36780, Note_on_c, 1, 64, 100
3, 36798, Note_on_c, 1, 64, 0
3, 36798, Note_on_c, 1, 52, 0
3, 36840, Note_on_c, 1, 52, 100
3, 36840, Note_on_c, 1, 64, 100
3, 36858, Note_on_c, 1, 64, 0
3, 36858, Note_on_c, 1, 52, 0
3, 36900, Note_on_c, 1, 50, 100
3, 36900, Note_on_c, 1, 62, 100
3, 36918, Note_on_c, 1, 62, 0
3, 36918, Note_on_c, 1, 50, 0
3, 36960, Note_on_c, 1, 52, 100
3, 36960, Note_on_c, 1, 64, 100
3, 36978, Note_on_c, 1, 64, 0
3, 36978, Note_on_c, 1, 52, 0
3, 37020, Note_on_c, 1, 52, 100
3, 37020, Note_on_c, 1, 64, 100
3, 37038, Note_on_c, 1, 64, 0
3, 37038, Note_on_c, 1, 52, 0
3, 37080, Note_on_c, 1, 52, 100
3, 37080, Note_on_c, 1, 64, 100
3, 37098, Note_on_c, 1, 64, 0
3, 37098, Note_on_c, 1, 52, 0
3, 37140, Note_on_c, 1, 50, 100
3, 37140, Note_on_c, 1, 62, 100
3, 37158, Note_on_c, 1, 62, 0
3, 37158, Note_on_c, 1, 50, 0
3, 37200, Note_on_c, 1, 52, 100
3, 37200, Note_on_c, 1, 64, 100
3, 37218, Note_on_c, 1, 64, 0
3, 37218, Note_on_c, 1, 52, 0
3, 37260, Note_on_c, 1, 52, 100
3, 37260, Note_on_c, 1, 64, 100
3, 37278, Note_on_c, 1, 64, 0
3, 37278, Note_on_c, 1, 52, 0
3, 37320, Note_on_c, 1, 52, 100
3, 37320, Note_on_c, 1, 64, 100
3, 37338, Note_on_c, 1, 64, 0
3, 37338, Note_on_c, 1, 52, 0
3, 37380, Note_on_c, 1, 52, 100
3, 37380, Note_on_c, 1, 64, 100
3, 37398, Note_on_c, 1, 64, 0
3, 37398, Note_on_c, 1, 52, 0
3, 37440, Note_on_c, 1, 52, 100
3, 37440, Note_on_c, 1, 64, 100
3, 37458, Note_on_c, 1, 64, 0
3, 37458, Note_on_c, 1, 52, 0
3, 37500, Note_on_c, 1, 52, 100
3, 37500, Note_on_c, 1, 64, 100
3, 37518, Note_on_c, 1, 64, 0
3, 37518, Note_on_c, 1, 52, 0
3, 37560, Note_on_c, 1, 52, 100
3, 37560, Note_on_c, 1, 64, 100
3, 37578, Note_on_c, 1, 64, 0
3, 37578, Note_on_c, 1, 52, 0
3, 37620, Note_on_c, 1, 52, 100
3, 37620, Note_on_c, 1, 64, 100
3, 37638, Note_on_c, 1, 64, 0
3, 37638, Note_on_c, 1, 52, 0
3, 37680, Note_on_c, 1, 50, 100
3, 37680, Note_on_c, 1, 62, 100
3, 37698, Note_on_c, 1, 62, 0
3, 37698, Note_on_c, 1, 50, 0
3, 37740, Note_on_c, 1, 52, 100
3, 37740, Note_on_c, 1, 64, 100
3, 37758, Note_on_c, 1, 64, 0
3, 37758, Note_on_c, 1, 52, 0
3, 37800, Note_on_c, 1, 52, 100
3, 37800, Note_on_c, 1, 64, 100
3, 37818, Note_on_c, 1, 64, 0
3, 37818, Note_on_c, 1, 52, 0
3, 37860, Note_on_c, 1, 52, 100
3, 37860, Note_on_c, 1, 64, 100
3, 37878, Note_on_c, 1, 64, 0
3, 37878, Note_on_c, 1, 52, 0
3, 37920, Note_on_c, 1, 52, 100
3, 37920, Note_on_c, 1, 64, 100
3, 37938, Note_on_c, 1, 64, 0
3, 37938, Note_on_c, 1, 52, 0
3, 37980, Note_on_c, 1, 52, 100
3, 37980, Note_on_c, 1, 64, 100
3, 37998, Note_on_c, 1, 64, 0
3, 37998, Note_on_c, 1, 52, 0
3, 38040, Note_on_c, 1, 52, 100
3, 38040, Note_on_c, 1, 64, 100
3, 38058, Note_on_c, 1, 64, 0
3, 38058, Note_on_c, 1, 52, 0
3, 38100, Note_on_c, 1, 52, 100
3, 38100, Note_on_c, 1, 64, 100
3, 38118, Note_on_c, 1, 64, 0
3, 38118, Note_on_c, 1, 52, 0
3, 38160, Note_on_c, 1, 52, 100
3, 38160, Note_on_c, 1, 64, 100
3, 38178, Note_on_c, 1, 64, 0
3, 38178, Note_on_c, 1, 52, 0
3, 38220, Note_on_c, 1, 52, 100
3, 38220, Note_on_c, 1, 64, 100
3, 38238, Note_on_c, 1, 64, 0
3, 38238, Note_on_c, 1, 52, 0
3, 38280, Note_on_c, 1, 52, 100
3, 38280, Note_on_c, 1, 64, 100
3, 38298, Note_on_c, 1, 64, 0
3, 38298, Note_on_c, 1, 52, 0
3, 38340, Note_on_c, 1, 50, 100
3, 38340, Note_on_c, 1, 62, 100
3, 38358, Note_on_c, 1, 62, 0
3, 38358, Note_on_c, 1, 50, 0
3, 38400, Note_on_c, 1, 52, 100
3, 38400, Note_on_c, 1, 64, 100
3, 38418, Note_on_c, 1, 64, 0
3, 38418, Note_on_c, 1, 52, 0
3, 38460, Note_on_c, 1, 52, 100
3, 38460, Note_on_c, 1, 64, 100
3, 38478, Note_on_c, 1, 64, 0
3, 38478, Note_on_c, 1, 52, 0
3, 38520, Note_on_c, 1, 52, 100
3, 38520, Note_on_c, 1, 64, 100
3, 38538, Note_on_c, 1, 64, 0
3, 38538, Note_on_c, 1, 52, 0
3, 38580, Note_on_c, 1, 50, 100
3, 38580, Note_on_c, 1, 62, 100
3, 38598, Note_on_c, 1, 62, 0
3, 38598, Note_on_c, 1, 50, 0
3, 38640, Note_on_c, 1, 52, 100
3, 38640, Note_on_c, 1, 64, 100
3, 38658, Note_on_c, 1, 64, 0
3, 38658, Note_on_c, 1, 52, 0
3, 38700, Note_on_c, 1, 52, 100
3, 38700, Note_on_c, 1, 64, 100
3, 38718, Note_on_c, 1, 64, 0
3, 38718, Note_on_c, 1, 52, 0
3, 38760, Note_on_c, 1, 52, 100
3, 38760, Note_on_c, 1, 64, 100
3, 38778, Note_on_c, 1, 64, 0
3, 38778, Note_on_c, 1, 52, 0
3, 38820, Note_on_c, 1, 52, 100
3, 38820, Note_on_c, 1, 64, 100
3, 38838, Note_on_c, 1, 64, 0
3, 38838, Note_on_c, 1, 52, 0
3, 38880, Note_on_c, 1, 52, 100
3, 38880, Note_on_c, 1, 64, 100
3, 38898, Note_on_c, 1, 64, 0
3, 38898, Note_on_c, 1, 52, 0
3, 38940, Note_on_c, 1, 52, 100
3, 38940, Note_on_c, 1, 64, 100
3, 38958, Note_on_c, 1, 64, 0
3, 38958, Note_on_c, 1, 52, 0
3, 39000, Note_on_c, 1, 52, 100
3, 39000, Note_on_c, 1, 64, 100
3, 39018, Note_on_c, 1, 64, 0
3, 39018, Note_on_c, 1, 52, 0
3, 39060, Note_on_c, 1, 52, 100
3, 39060, Note_on_c, 1, 64, 100
3, 39078, Note_on_c, 1, 64, 0
3, 39078, Note_on_c, 1, 52, 0
3, 39120, Note_on_c, 1, 62, 100
3, 39120, Note_on_c, 1, 50, 100
3, 39138, Note_on_c, 1, 50, 0
3, 39138, Note_on_c, 1, 62, 0
3, 39180, Note_on_c, 1, 64, 100
3, 39180, Note_on_c, 1, 52, 100
3, 39198, Note_on_c, 1, 52, 0
3, 39198, Note_on_c, 1, 64, 0
3, 39240, Note_on_c, 1, 64, 100
3, 39240, Note_on_c, 1, 52, 100
3, 39258, Note_on_c, 1, 52, 0
3, 39258, Note_on_c, 1, 64, 0
3, 39300, Note_on_c, 1, 64, 100
3, 39300, Note_on_c, 1, 52, 100
3, 39318, Note_on_c, 1, 52, 0
3, 39318, Note_on_c, 1, 64, 0
3, 39360, Note_on_c, 1, 64, 100
3, 39360, Note_on_c, 1, 52, 100
3, 39378, Note_on_c, 1, 52, 0
3, 39378, Note_on_c, 1, 64, 0
3, 39420, Note_on_c, 1, 64, 100
3, 39420, Note_on_c, 1, 52, 100
3, 39438, Note_on_c, 1, 52, 0
3, 39438, Note_on_c, 1, 64, 0
3, 39480, Note_on_c, 1, 64, 100
3, 39480, Note_on_c, 1, 52, 100
3, 39498, Note_on_c, 1, 52, 0
3, 39498, Note_on_c, 1, 64, 0
3, 39540, Note_on_c, 1, 64, 100
3, 39540, Note_on_c, 1, 52, 100
3, 39558, Note_on_c, 1, 52, 0
3, 39558, Note_on_c, 1, 64, 0
3, 39600, Note_on_c, 1, 64, 100
3, 39600, Note_on_c, 1, 52, 100
3, 39618, Note_on_c, 1, 52, 0
3, 39618, Note_on_c, 1, 64, 0
3, 39660, Note_on_c, 1, 64, 100
3, 39660, Note_on_c, 1, 52, 100
3, 39678, Note_on_c, 1, 52, 0
3, 39678, Note_on_c, 1, 64, 0
3, 39720, Note_on_c, 1, 64, 100
3, 39720, Note_on_c, 1, 52, 100
3, 39738, Note_on_c, 1, 52, 0
3, 39738, Note_on_c, 1, 64, 0
3, 39780, Note_on_c, 1, 62, 100
3, 39780, Note_on_c, 1, 50, 100
3, 39798, Note_on_c, 1, 50, 0
3, 39798, Note_on_c, 1, 62, 0
3, 39840, Note_on_c, 1, 64, 100
3, 39840, Note_on_c, 1, 52, 100
3, 39858, Note_on_c, 1, 52, 0
3, 39858, Note_on_c, 1, 64, 0
3, 39900, Note_on_c, 1, 64, 100
3, 39900, Note_on_c, 1, 52, 100
3, 39918, Note_on_c, 1, 52, 0
3, 39918, Note_on_c, 1, 64, 0
3, 39960, Note_on_c, 1, 64, 100
3, 39960, Note_on_c, 1, 52, 100
3, 39978, Note_on_c, 1, 52, 0
3, 39978, Note_on_c, 1, 64, 0
3, 40020, Note_on_c, 1, 62, 100
3, 40020, Note_on_c, 1, 50, 100
3, 40038, Note_on_c, 1, 50, 0
3, 40038, Note_on_c, 1, 62, 0
3, 40080, Note_on_c, 1, 64, 100
3, 40080, Note_on_c, 1, 52, 100
3, 40098, Note_on_c, 1, 52, 0
3, 40098, Note_on_c, 1, 64, 0
3, 40140, Note_on_c, 1, 64, 100
3, 40140, Note_on_c, 1, 52, 100
3, 40158, Note_on_c, 1, 52, 0
3, 40158, Note_on_c, 1, 64, 0
3, 40200, Note_on_c, 1, 64, 100
3, 40200, Note_on_c, 1, 52, 100
3, 40218, Note_on_c, 1, 52, 0
3, 40218, Note_on_c, 1, 64, 0
3, 40260, Note_on_c, 1, 64, 100
3, 40260, Note_on_c, 1, 52, 100
3, 40278, Note_on_c, 1, 52, 0
3, 40278, Note_on_c, 1, 64, 0
3, 40320, Note_on_c, 1, 64, 100
3, 40320, Note_on_c, 1, 52, 100
3, 40338, Note_on_c, 1, 52, 0
3, 40338, Note_on_c, 1, 64, 0
3, 40380, Note_on_c, 1, 64, 100
3, 40380, Note_on_c, 1, 52, 100
3, 40398, Note_on_c, 1, 52, 0
3, 40398, Note_on_c, 1, 64, 0
3, 40440, Note_on_c, 1, 64, 100
3, 40440, Note_on_c, 1, 52, 100
3, 40458, Note_on_c, 1, 52, 0
3, 40458, Note_on_c, 1, 64, 0
3, 40500, Note_on_c, 1, 64, 100
3, 40500, Note_on_c, 1, 52, 100
3, 40518, Note_on_c, 1, 52, 0
3, 40518, Note_on_c, 1, 64, 0
3, 40560, Note_on_c, 1, 62, 100
3, 40560, Note_on_c, 1, 50, 100
3, 40578, Note_on_c, 1, 50, 0
3, 40578, Note_on_c, 1, 62, 0
3, 40620, Note_on_c, 1, 64, 100
3, 40620, Note_on_c, 1, 52, 100
3, 40638, Note_on_c, 1, 52, 0
3, 40638, Note_on_c, 1, 64, 0
3, 40680, Note_on_c, 1, 64, 100
3, 40680, Note_on_c, 1, 52, 100
3, 40698, Note_on_c, 1, 52, 0
3, 40698, Note_on_c, 1, 64, 0
3, 40740, Note_on_c, 1, 64, 100
3, 40740, Note_on_c, 1, 52, 100
3, 40758, Note_on_c, 1, 52, 0
3, 40758, Note_on_c, 1, 64, 0
3, 40800, Note_on_c, 1, 64, 100
3, 40800, Note_on_c, 1, 52, 100
3, 40818, Note_on_c, 1, 52, 0
3, 40818, Note_on_c, 1, 64, 0
3, 40860, Note_on_c, 1, 64, 100
3, 40860, Note_on_c, 1, 52, 100
3, 40878, Note_on_c, 1, 52, 0
3, 40878, Note_on_c, 1, 64, 0
3, 40920, Note_on_c, 1, 64, 100
3, 40920, Note_on_c, 1, 52, 100
3, 40938, Note_on_c, 1, 52, 0
3, 40938, Note_on_c, 1, 64, 0
3, 40980, Note_on_c, 1, 64, 100
3, 40980, Note_on_c, 1, 52, 100
3, 40998, Note_on_c, 1, 52, 0
3, 40998, Note_on_c, 1, 64, 0
3, 41040, Note_on_c, 1, 64, 100
3, 41040, Note_on_c, 1, 52, 100
3, 41058, Note_on_c, 1, 52, 0
3, 41058, Note_on_c, 1, 64, 0
3, 41100, Note_on_c, 1, 64, 100
3, 41100, Note_on_c, 1, 52, 100
3, 41118, Note_on_c, 1, 52, 0
3, 41118, Note_on_c, 1, 64, 0
3, 41160, Note_on_c, 1, 64, 100
3, 41160, Note_on_c, 1, 52, 100
3, 41178, Note_on_c, 1, 52, 0
3, 41178, Note_on_c, 1, 64, 0
3, 41220, Note_on_c, 1, 62, 100
3, 41220, Note_on_c, 1, 50, 100
3, 41238, Note_on_c, 1, 50, 0
3, 41238, Note_on_c, 1, 62, 0
3, 41280, Note_on_c, 1, 64, 100
3, 41280, Note_on_c, 1, 52, 100
3, 41298, Note_on_c, 1, 52, 0
3, 41298, Note_on_c, 1, 64, 0
3, 41340, Note_on_c, 1, 64, 100
3, 41340, Note_on_c, 1, 52, 100
3, 41358, Note_on_c, 1, 52, 0
3, 41358, Note_on_c, 1, 64, 0
3, 41400, Note_on_c, 1, 64, 100
3, 41400, Note_on_c, 1, 52, 100
3, 41418, Note_on_c, 1, 52, 0
3, 41418, Note_on_c, 1, 64, 0
3, 41460, Note_on_c, 1, 62, 100
3, 41460, Note_on_c, 1, 50, 100
3, 41478, Note_on_c, 1, 50, 0
3, 41478, Note_on_c, 1, 62, 0
3, 41520, Note_on_c, 1, 64, 100
3, 41520, Note_on_c, 1, 52, 100
3, 41538, Note_on_c, 1, 52, 0
3, 41538, Note_on_c, 1, 64, 0
3, 41580, Note_on_c, 1, 64, 100
3, 41580, Note_on_c, 1, 52, 100
3, 41598, Note_on_c, 1, 52, 0
3, 41598, Note_on_c, 1, 64, 0
3, 41640, Note_on_c, 1, 64, 100
3, 41640, Note_on_c, 1, 52, 100
3, 41658, Note_on_c, 1, 52, 0
3, 41658, Note_on_c, 1, 64, 0
3, 41700, Note_on_c, 1, 64, 100
3, 41700, Note_on_c, 1, 52, 100
3, 41718, Note_on_c, 1, 52, 0
3, 41718, Note_on_c, 1, 64, 0
3, 41760, Note_on_c, 1, 64, 100
3, 41760, Note_on_c, 1, 52, 100
3, 41778, Note_on_c, 1, 52, 0
3, 41778, Note_on_c, 1, 64, 0
3, 41820, Note_on_c, 1, 64, 100
3, 41820, Note_on_c, 1, 52, 100
3, 41838, Note_on_c, 1, 52, 0
3, 41838, Note_on_c, 1, 64, 0
3, 41880, Note_on_c, 1, 64, 100
3, 41880, Note_on_c, 1, 52, 100
3, 41898, Note_on_c, 1, 52, 0
3, 41898, Note_on_c, 1, 64, 0
3, 41940, Note_on_c, 1, 64, 100
3, 41940, Note_on_c, 1, 52, 100
3, 41958, Note_on_c, 1, 52, 0
3, 41958, Note_on_c, 1, 64, 0
3, 42000, Note_on_c, 1, 50, 100
3, 42000, Note_on_c, 1, 62, 100
3, 42018, Note_on_c, 1, 62, 0
3, 42018, Note_on_c, 1, 50, 0
3, 42060, Note_on_c, 1, 52, 100
3, 42060, Note_on_c, 1, 64, 100
3, 42078, Note_on_c, 1, 64, 0
3, 42078, Note_on_c, 1, 52, 0
3, 42120, Note_on_c, 1, 52, 100
3, 42120, Note_on_c, 1, 64, 100
3, 42138, Note_on_c, 1, 64, 0
3, 42138, Note_on_c, 1, 52, 0
3, 42180, Note_on_c, 1, 52, 100
3, 42180, Note_on_c, 1, 64, 100
3, 42198, Note_on_c, 1, 64, 0
3, 42198, Note_on_c, 1, 52, 0
3, 42240, Note_on_c, 1, 52, 100
3, 42240, Note_on_c, 1, 64, 100
3, 42258, Note_on_c, 1, 64, 0
3, 42258, Note_on_c, 1, 52, 0
3, 42300, Note_on_c, 1, 52, 100
3, 42300, Note_on_c, 1, 64, 100
3, 42318, Note_on_c, 1, 64, 0
3, 42318, Note_on_c, 1, 52, 0
3, 42360, Note_on_c, 1, 52, 100
3, 42360, Note_on_c, 1, 64, 100
3, 42378, Note_on_c, 1, 64, 0
3, 42378, Note_on_c, 1, 52, 0
3, 42420, Note_on_c, 1, 52, 100
3, 42420, Note_on_c, 1, 64, 100
3, 42438, Note_on_c, 1, 64, 0
3, 42438, Note_on_c, 1, 52, 0
3, 42480, Note_on_c, 1, 52, 100
3, 42480, Note_on_c, 1, 64, 100
3, 42498, Note_on_c, 1, 64, 0
3, 42498, Note_on_c, 1, 52, 0
3, 42540, Note_on_c, 1, 52, 100
3, 42540, Note_on_c, 1, 64, 100
3, 42558, Note_on_c, 1, 64, 0
3, 42558, Note_on_c, 1, 52, 0
3, 42600, Note_on_c, 1, 52, 100
3, 42600, Note_on_c, 1, 64, 100
3, 42618, Note_on_c, 1, 64, 0
3, 42618, Note_on_c, 1, 52, 0
3, 42660, Note_on_c, 1, 50, 100
3, 42660, Note_on_c, 1, 62, 100
3, 42678, Note_on_c, 1, 62, 0
3, 42678, Note_on_c, 1, 50, 0
3, 42720, Note_on_c, 1, 52, 100
3, 42720, Note_on_c, 1, 64, 100
3, 42738, Note_on_c, 1, 64, 0
3, 42738, Note_on_c, 1, 52, 0
3, 42780, Note_on_c, 1, 52, 100
3, 42780, Note_on_c, 1, 64, 100
3, 42798, Note_on_c, 1, 64, 0
3, 42798, Note_on_c, 1, 52, 0
3, 42840, Note_on_c, 1, 52, 100
3, 42840, Note_on_c, 1, 64, 100
3, 42858, Note_on_c, 1, 64, 0
3, 42858, Note_on_c, 1, 52, 0
3, 42900, Note_on_c, 1, 50, 100
3, 42900, Note_on_c, 1, 62, 100
3, 42918, Note_on_c, 1, 62, 0
3, 42918, Note_on_c, 1, 50, 0
3, 42960, Note_on_c, 1, 52, 100
3, 42960, Note_on_c, 1, 64, 100
3, 42978, Note_on_c, 1, 64, 0
3, 42978, Note_on_c, 1, 52, 0
3, 43020, Note_on_c, 1, 52, 100
3, 43020, Note_on_c, 1, 64, 100
3, 43038, Note_on_c, 1, 64, 0
3, 43038, Note_on_c, 1, 52, 0
3, 43080, Note_on_c, 1, 52, 100
3, 43080, Note_on_c, 1, 64, 100
3, 43098, Note_on_c, 1, 64, 0
3, 43098, Note_on_c, 1, 52, 0
3, 43140, Note_on_c, 1, 52, 100
3, 43140, Note_on_c, 1, 64, 100
3, 43158, Note_on_c, 1, 64, 0
3, 43158, Note_on_c, 1, 52, 0
3, 43200, Note_on_c, 1, 52, 100
3, 43200, Note_on_c, 1, 64, 100
3, 43218, Note_on_c, 1, 64, 0
3, 43218, Note_on_c, 1, 52, 0
3, 43260, Note_on_c, 1, 52, 100
3, 43260, Note_on_c, 1, 64, 100
3, 43278, Note_on_c, 1, 64, 0
3, 43278, Note_on_c, 1, 52, 0
3, 43320, Note_on_c, 1, 52, 100
3, 43320, Note_on_c, 1, 64, 100
3, 43338, Note_on_c, 1, 64, 0
3, 43338, Note_on_c, 1, 52, 0
3, 43380, Note_on_c, 1, 52, 100
3, 43380, Note_on_c, 1, 64, 100
3, 43398, Note_on_c, 1, 64, 0
3, 43398, Note_on_c, 1, 52, 0
3, 43440, Note_on_c, 1, 62, 100
3, 43440, Note_on_c, 1, 50, 100
3, 43458, Note_on_c, 1, 50, 0
3, 43458, Note_on_c, 1, 62, 0
3, 43500, Note_on_c, 1, 64, 100
3, 43500, Note_on_c, 1, 52, 100
3, 43518, Note_on_c, 1, 52, 0
3, 43518, Note_on_c, 1, 64, 0
3, 43560, Note_on_c, 1, 64, 100
3, 43560, Note_on_c, 1, 52, 100
3, 43578, Note_on_c, 1, 52, 0
3, 43578, Note_on_c, 1, 64, 0
3, 43620, Note_on_c, 1, 64, 100
3, 43620, Note_on_c, 1, 52, 100
3, 43638, Note_on_c, 1, 52, 0
3, 43638, Note_on_c, 1, 64, 0
3, 43680, Note_on_c, 1, 64, 100
3, 43680, Note_on_c, 1, 52, 100
3, 43698, Note_on_c, 1, 52, 0
3, 43698, Note_on_c, 1, 64, 0
3, 43740, Note_on_c, 1, 64, 100
3, 43740, Note_on_c, 1, 52, 100
3, 43758, Note_on_c, 1, 52, 0
3, 43758, Note_on_c, 1, 64, 0
3, 43800, Note_on_c, 1, 64, 100
3, 43800, Note_on_c, 1, 52, 100
3, 43818, Note_on_c, 1, 52, 0
3, 43818, Note_on_c, 1, 64, 0
3, 43860, Note_on_c, 1, 64, 100
3, 43860, Note_on_c, 1, 52, 100
3, 43878, Note_on_c, 1, 52, 0
3, 43878, Note_on_c, 1, 64, 0
3, 43920, Note_on_c, 1, 64, 100
3, 43920, Note_on_c, 1, 52, 100
3, 43938, Note_on_c, 1, 52, 0
3, 43938, Note_on_c, 1, 64, 0
3, 43980, Note_on_c, 1, 64, 100
3, 43980, Note_on_c, 1, 52, 100
3, 43998, Note_on_c, 1, 52, 0
3, 43998, Note_on_c, 1, 64, 0
3, 44040, Note_on_c, 1, 64, 100
3, 44040, Note_on_c, 1, 52, 100
3, 44058, Note_on_c, 1, 52, 0
3, 44058, Note_on_c, 1, 64, 0
3, 44100, Note_on_c, 1, 62, 100
3, 44100, Note_on_c, 1, 50, 100
3, 44118, Note_on_c, 1, 50, 0
3, 44118, Note_on_c, 1, 62, 0
3, 44160, Note_on_c, 1, 64, 100
3, 44160, Note_on_c, 1, 52, 100
3, 44178, Note_on_c, 1, 52, 0
3, 44178, Note_on_c, 1, 64, 0
3, 44220, Note_on_c, 1, 64, 100
3, 44220, Note_on_c, 1, 52, 100
3, 44238, Note_on_c, 1, 52, 0
3, 44238, Note_on_c, 1, 64, 0
3, 44280, Note_on_c, 1, 64, 100
3, 44280, Note_on_c, 1, 52, 100
3, 44298, Note_on_c, 1, 52, 0
3, 44298, Note_on_c, 1, 64, 0
3, 44340, Note_on_c, 1, 62, 100
3, 44340, Note_on_c, 1, 50, 100
3, 44358, Note_on_c, 1, 50, 0
3, 44358, Note_on_c, 1, 62, 0
3, 44400, Note_on_c, 1, 64, 100
3, 44400, Note_on_c, 1, 52, 100
3, 44418, Note_on_c, 1, 52, 0
3, 44418, Note_on_c, 1, 64, 0
3, 44460, Note_on_c, 1, 64, 100
3, 44460, Note_on_c, 1, 52, 100
3, 44478, Note_on_c, 1, 52, 0
3, 44478, Note_on_c, 1, 64, 0
3, 44520, Note_on_c, 1, 64, 100
3, 44520, Note_on_c, 1, 52, 100
3, 44538, Note_on_c, 1, 52, 0
3, 44538, Note_on_c, 1, 64, 0
3, 44580, Note_on_c, 1, 64, 100
3, 44580, Note_on_c, 1, 52, 100
3, 44598, Note_on_c, 1, 52, 0
3, 44598, Note_on_c, 1, 64, 0
3, 44640, Note_on_c, 1, 64, 100
3, 44640, Note_on_c, 1, 52, 100
3, 44658, Note_on_c, 1, 52, 0
3, 44658, Note_on_c, 1, 64, 0
3, 44700, Note_on_c, 1, 64, 100
3, 44700, Note_on_c, 1, 52, 100
3, 44718, Note_on_c, 1, 52, 0
3, 44718, Note_on_c, 1, 64, 0
3, 44760, Note_on_c, 1, 64, 100
3, 44760, Note_on_c, 1, 52, 100
3, 44778, Note_on_c, 1, 52, 0
3, 44778, Note_on_c, 1, 64, 0
3, 44820, Note_on_c, 1, 64, 100
3, 44820, Note_on_c, 1, 52, 100
3, 44838, Note_on_c, 1, 52, 0
3, 44838, Note_on_c, 1, 64, 0
3, 44880, Note_on_c, 1, 50, 100
3, 44880, Note_on_c, 1, 62, 100
3, 44898, Note_on_c, 1, 62, 0
3, 44898, Note_on_c, 1, 50, 0
3, 44940, Note_on_c, 1, 52, 100
3, 44940, Note_on_c, 1, 64, 100
3, 44958, Note_on_c, 1, 64, 0
3, 44958, Note_on_c, 1, 52, 0
3, 45000, Note_on_c, 1, 52, 100
3, 45000, Note_on_c, 1, 64, 100
3, 45018, Note_on_c, 1, 64, 0
3, 45018, Note_on_c, 1, 52, 0
3, 45060, Note_on_c, 1, 52, 100
3, 45060, Note_on_c, 1, 64, 100
3, 45078, Note_on_c, 1, 64, 0
3, 45078, Note_on_c, 1, 52, 0
3, 45120, Note_on_c, 1, 52, 100
3, 45120, Note_on_c, 1, 64, 100
3, 45138, Note_on_c, 1, 64, 0
3, 45138, Note_on_c, 1, 52, 0
3, 45180, Note_on_c, 1, 52, 100
3, 45180, Note_on_c, 1, 64, 100
3, 45198, Note_on_c, 1, 64, 0
3, 45198, Note_on_c, 1, 52, 0
3, 45240, Note_on_c, 1, 52, 100
3, 45240, Note_on_c, 1, 64, 100
3, 45258, Note_on_c, 1, 64, 0
3, 45258, Note_on_c, 1, 52, 0
3, 45300, Note_on_c, 1, 52, 100
3, 45300, Note_on_c, 1, 64, 100
3, 45318, Note_on_c, 1, 64, 0
3, 45318, Note_on_c, 1, 52, 0
3, 45360, Note_on_c, 1, 52, 100
3, 45360, Note_on_c, 1, 64, 100
3, 45378, Note_on_c, 1, 64, 0
3, 45378, Note_on_c, 1, 52, 0
3, 45420, Note_on_c, 1, 52, 100
3, 45420, Note_on_c, 1, 64, 100
3, 45438, Note_on_c, 1, 64, 0
3, 45438, Note_on_c, 1, 52, 0
3, 45480, Note_on_c, 1, 52, 100
3, 45480, Note_on_c, 1, 64, 100
3, 45498, Note_on_c, 1, 64, 0
3, 45498, Note_on_c, 1, 52, 0
3, 45540, Note_on_c, 1, 50, 100
3, 45540, Note_on_c, 1, 62, 100
3, 45558, Note_on_c, 1, 62, 0
3, 45558, Note_on_c, 1, 50, 0
3, 45600, Note_on_c, 1, 52, 100
3, 45600, Note_on_c, 1, 64, 100
3, 45618, Note_on_c, 1, 64, 0
3, 45618, Note_on_c, 1, 52, 0
3, 45660, Note_on_c, 1, 52, 100
3, 45660, Note_on_c, 1, 64, 100
3, 45678, Note_on_c, 1, 64, 0
3, 45678, Note_on_c, 1, 52, 0
3, 45720, Note_on_c, 1, 52, 100
3, 45720, Note_on_c, 1, 64, 100
3, 45738, Note_on_c, 1, 64, 0
3, 45738, Note_on_c, 1, 52, 0
3, 45780, Note_on_c, 1, 50, 100
3, 45780, Note_on_c, 1, 62, 100
3, 45798, Note_on_c, 1, 62, 0
3, 45798, Note_on_c, 1, 50, 0
3, 45840, Note_on_c, 1, 52, 100
3, 45840, Note_on_c, 1, 64, 100
3, 45858, Note_on_c, 1, 64, 0
3, 45858, Note_on_c, 1, 52, 0
3, 45900, Note_on_c, 1, 52, 100
3, 45900, Note_on_c, 1, 64, 100
3, 45918, Note_on_c, 1, 64, 0
3, 45918, Note_on_c, 1, 52, 0
3, 45960, Note_on_c, 1, 52, 100
3, 45960, Note_on_c, 1, 64, 100
3, 45978, Note_on_c, 1, 64, 0
3, 45978, Note_on_c, 1, 52, 0
3, 46020, Note_on_c, 1, 52, 100
3, 46020, Note_on_c, 1, 64, 100
3, 46038, Note_on_c, 1, 64, 0
3, 46038, Note_on_c, 1, 52, 0
3, 46080, Note_on_c, 1, 52, 100
3, 46080, Note_on_c, 1, 64, 100
3, 46098, Note_on_c, 1, 64, 0
3, 46098, Note_on_c, 1, 52, 0
3, 46140, Note_on_c, 1, 52, 100
3, 46140, Note_on_c, 1, 64, 100
3, 46158, Note_on_c, 1, 64, 0
3, 46158, Note_on_c, 1, 52, 0
3, 46200, Note_on_c, 1, 52, 100
3, 46200, Note_on_c, 1, 64, 100
3, 46218, Note_on_c, 1, 64, 0
3, 46218, Note_on_c, 1, 52, 0
3, 46260, Note_on_c, 1, 52, 100
3, 46260, Note_on_c, 1, 64, 100
3, 46278, Note_on_c, 1, 64, 0
3, 46278, Note_on_c, 1, 52, 0
3, 46320, Note_on_c, 1, 62, 100
3, 46320, Note_on_c, 1, 50, 100
3, 46338, Note_on_c, 1, 50, 0
3, 46338, Note_on_c, 1, 62, 0
3, 46380, Note_on_c, 1, 64, 100
3, 46380, Note_on_c, 1, 52, 100
3, 46398, Note_on_c, 1, 52, 0
3, 46398, Note_on_c, 1, 64, 0
3, 46440, Note_on_c, 1, 64, 100
3, 46440, Note_on_c, 1, 52, 100
3, 46458, Note_on_c, 1, 52, 0
3, 46458, Note_on_c, 1, 64, 0
3, 46500, Note_on_c, 1, 64, 100
3, 46500, Note_on_c, 1, 52, 100
3, 46518, Note_on_c, 1, 52, 0
3, 46518, Note_on_c, 1, 64, 0
3, 46560, Note_on_c, 1, 64, 100
3, 46560, Note_on_c, 1, 52, 100
3, 46578, Note_on_c, 1, 52, 0
3, 46578, Note_on_c, 1, 64, 0
3, 46620, Note_on_c, 1, 64, 100
3, 46620, Note_on_c, 1, 52, 100
3, 46638, Note_on_c, 1, 52, 0
3, 46638, Note_on_c, 1, 64, 0
3, 46680, Note_on_c, 1, 64, 100
3, 46680, Note_on_c, 1, 52, 100
3, 46698, Note_on_c, 1, 52, 0
3, 46698, Note_on_c, 1, 64, 0
3, 46740, Note_on_c, 1, 64, 100
3, 46740, Note_on_c, 1, 52, 100
3, 46758, Note_on_c, 1, 52, 0
3, 46758, Note_on_c, 1, 64, 0
3, 46800, Note_on_c, 1, 64, 100
3, 46800, Note_on_c, 1, 52, 100
3, 46818, Note_on_c, 1, 52, 0
3, 46818, Note_on_c, 1, 64, 0
3, 46860, Note_on_c, 1, 64, 100
3, 46860, Note_on_c, 1, 52, 100
3, 46878, Note_on_c, 1, 52, 0
3, 46878, Note_on_c, 1, 64, 0
3, 46920, Note_on_c, 1, 64, 100
3, 46920, Note_on_c, 1, 52, 100
3, 46938, Note_on_c, 1, 52, 0
3, 46938, Note_on_c, 1, 64, 0
3, 46980, Note_on_c, 1, 62, 100
3, 46980, Note_on_c, 1, 50, 100
3, 46998, Note_on_c, 1, 50, 0
3, 46998, Note_on_c, 1, 62, 0
3, 47040, Note_on_c, 1, 64, 100
3, 47040, Note_on_c, 1, 52, 100
3, 47058, Note_on_c, 1, 52, 0
3, 47058, Note_on_c, 1, 64, 0
3, 47100, Note_on_c, 1, 64, 100
3, 47100, Note_on_c, 1, 52, 100
3, 47118, Note_on_c, 1, 52, 0
3, 47118, Note_on_c, 1, 64, 0
3, 47160, Note_on_c, 1, 64, 100
3, 47160, Note_on_c, 1, 52, 100
3, 47178, Note_on_c, 1, 52, 0
3, 47178, Note_on_c, 1, 64, 0
3, 47220, Note_on_c, 1, 62, 100
3, 47220, Note_on_c, 1, 50, 100
3, 47238, Note_on_c, 1, 50, 0
3, 47238, Note_on_c, 1, 62, 0
3, 47280, Note_on_c, 1, 64, 100
3, 47280, Note_on_c, 1, 52, 100
3, 47298, Note_on_c, 1, 52, 0
3, 47298, Note_on_c, 1, 64, 0
3, 47340, Note_on_c, 1, 64, 100
3, 47340, Note_on_c, 1, 52, 100
3, 47358, Note_on_c, 1, 52, 0
3, 47358, Note_on_c, 1, 64, 0
3, 47400, Note_on_c, 1, 64, 100
3, 47400, Note_on_c, 1, 52, 100
3, 47418, Note_on_c, 1, 52, 0
3, 47418, Note_on_c, 1, 64, 0
3, 47460, Note_on_c, 1, 64, 100
3, 47460, Note_on_c, 1, 52, 100
3, 47478, Note_on_c, 1, 52, 0
3, 47478, Note_on_c, 1, 64, 0
3, 47520, Note_on_c, 1, 64, 100
3, 47520, Note_on_c, 1, 52, 100
3, 47538, Note_on_c, 1, 52, 0
3, 47538, Note_on_c, 1, 64, 0
3, 47580, Note_on_c, 1, 64, 100
3, 47580, Note_on_c, 1, 52, 100
3, 47598, Note_on_c, 1, 52, 0
3, 47598, Note_on_c, 1, 64, 0
3, 47640, Note_on_c, 1, 64, 100
3, 47640, Note_on_c, 1, 52, 100
3, 47658, Note_on_c, 1, 52, 0
3, 47658, Note_on_c, 1, 64, 0
3, 47700, Note_on_c, 1, 64, 100
3, 47700, Note_on_c, 1, 52, 100
3, 47718, Note_on_c, 1, 52, 0
3, 47718, Note_on_c, 1, 64, 0
3, 47760, Note_on_c, 1, 52, 100
3, 47760, Note_on_c, 1, 64, 100
3, 47778, Note_on_c, 1, 64, 0
3, 47778, Note_on_c, 1, 52, 0
3, 47820, Note_on_c, 1, 52, 100
3, 47820, Note_on_c, 1, 64, 100
3, 47838, Note_on_c, 1, 64, 0
3, 47838, Note_on_c, 1, 52, 0
3, 47880, Note_on_c, 1, 52, 100
3, 47880, Note_on_c, 1, 64, 100
3, 47898, Note_on_c, 1, 64, 0
3, 47898, Note_on_c, 1, 52, 0
3, 47940, Note_on_c, 1, 52, 100
3, 47940, Note_on_c, 1, 64, 100
3, 47958, Note_on_c, 1, 64, 0
3, 47958, Note_on_c, 1, 52, 0
3, 48000, Note_on_c, 1, 52, 100
3, 48000, Note_on_c, 1, 64, 100
3, 48018, Note_on_c, 1, 64, 0
3, 48018, Note_on_c, 1, 52, 0
3, 48060, Note_on_c, 1, 52, 100
3, 48060, Note_on_c, 1, 64, 100
3, 48078, Note_on_c, 1, 64, 0
3, 48078, Note_on_c, 1, 52, 0
3, 48120, Note_on_c, 1, 52, 100
3, 48120, Note_on_c, 1, 64, 100
3, 48138, Note_on_c, 1, 64, 0
3, 48138, Note_on_c, 1, 52, 0
3, 48180, Note_on_c, 1, 64, 100
3, 48180, Note_on_c, 1, 52, 100
3, 48198, Note_on_c, 1, 52, 0
3, 48198, Note_on_c, 1, 64, 0
3, 48240, Note_on_c, 1, 64, 100
3, 48240, Note_on_c, 1, 52, 100
3, 48258, Note_on_c, 1, 52, 0
3, 48258, Note_on_c, 1, 64, 0
3, 48300, Note_on_c, 1, 64, 100
3, 48300, Note_on_c, 1, 52, 100
3, 48318, Note_on_c, 1, 52, 0
3, 48318, Note_on_c, 1, 64, 0
3, 48360, Note_on_c, 1, 64, 100
3, 48360, Note_on_c, 1, 52, 100
3, 48378, Note_on_c, 1, 52, 0
3, 48378, Note_on_c, 1, 64, 0
3, 48420, Note_on_c, 1, 64, 100
3, 48420, Note_on_c, 1, 52, 100
3, 48438, Note_on_c, 1, 52, 0
3, 48438, Note_on_c, 1, 64, 0
3, 48480, Note_on_c, 1, 64, 100
3, 48480, Note_on_c, 1, 52, 100
3, 48498, Note_on_c, 1, 52, 0
3, 48498, Note_on_c, 1, 64, 0
3, 48540, Note_on_c, 1, 64, 100
3, 48540, Note_on_c, 1, 52, 100
3, 48558, Note_on_c, 1, 52, 0
3, 48558, Note_on_c, 1, 64, 0
3, 48600, Note_on_c, 1, 64, 100
3, 48600, Note_on_c, 1, 52, 100
3, 48618, Note_on_c, 1, 52, 0
3, 48618, Note_on_c, 1, 64, 0
3, 48660, Note_on_c, 1, 64, 100
3, 48660, Note_on_c, 1, 52, 100
3, 48678, Note_on_c, 1, 52, 0
3, 48678, Note_on_c, 1, 64, 0
3, 48720, Note_on_c, 1, 52, 100
3, 48720, Note_on_c, 1, 64, 100
3, 48738, Note_on_c, 1, 64, 0
3, 48738, Note_on_c, 1, 52, 0
3, 48780, Note_on_c, 1, 52, 100
3, 48780, Note_on_c, 1, 64, 100
3, 48798, Note_on_c, 1, 64, 0
3, 48798, Note_on_c, 1, 52, 0
3, 48840, Note_on_c, 1, 52, 100
3, 48840, Note_on_c, 1, 64, 100
3, 48858, Note_on_c, 1, 64, 0
3, 48858, Note_on_c, 1, 52, 0
3, 48900, Note_on_c, 1, 52, 100
3, 48900, Note_on_c, 1, 64, 100
3, 48918, Note_on_c, 1, 64, 0
3, 48918, Note_on_c, 1, 52, 0
3, 48960, Note_on_c, 1, 52, 100
3, 48960, Note_on_c, 1, 64, 100
3, 48978, Note_on_c, 1, 64, 0
3, 48978, Note_on_c, 1, 52, 0
3, 49020, Note_on_c, 1, 52, 100
3, 49020, Note_on_c, 1, 64, 100
3, 49038, Note_on_c, 1, 64, 0
3, 49038, Note_on_c, 1, 52, 0
3, 49080, Note_on_c, 1, 52, 100
3, 49080, Note_on_c, 1, 64, 100
3, 49098, Note_on_c, 1, 64, 0
3, 49098, Note_on_c, 1, 52, 0
3, 49140, Note_on_c, 1, 64, 100
3, 49140, Note_on_c, 1, 52, 100
3, 49158, Note_on_c, 1, 52, 0
3, 49158, Note_on_c, 1, 64, 0
3, 49200, Note_on_c, 1, 52, 100
3, 49200, Note_on_c, 1, 64, 100
3, 49218, Note_on_c, 1, 64, 0
3, 49218, Note_on_c, 1, 52, 0
3, 49260, Note_on_c, 1, 52, 100
3, 49260, Note_on_c, 1, 64, 100
3, 49278, Note_on_c, 1, 64, 0
3, 49278, Note_on_c, 1, 52, 0
3, 49320, Note_on_c, 1, 52, 100
3, 49320, Note_on_c, 1, 64, 100
3, 49338, Note_on_c, 1, 64, 0
3, 49338, Note_on_c, 1, 52, 0
3, 49380, Note_on_c, 1, 52, 100
3, 49380, Note_on_c, 1, 64, 100
3, 49398, Note_on_c, 1, 64, 0
3, 49398, Note_on_c, 1, 52, 0
3, 49440, Note_on_c, 1, 52, 100
3, 49440, Note_on_c, 1, 64, 100
3, 49458, Note_on_c, 1, 64, 0
3, 49458, Note_on_c, 1, 52, 0
3, 49500, Note_on_c, 1, 52, 100
3, 49500, Note_on_c, 1, 64, 100
3, 49518, Note_on_c, 1, 64, 0
3, 49518, Note_on_c, 1, 52, 0
3, 49560, Note_on_c, 1, 52, 100
3, 49560, Note_on_c, 1, 64, 100
3, 49578, Note_on_c, 1, 64, 0
3, 49578, Note_on_c, 1, 52, 0
3, 49620, Note_on_c, 1, 64, 100
3, 49620, Note_on_c, 1, 52, 100
3, 49638, Note_on_c, 1, 52, 0
3, 49638, Note_on_c, 1, 64, 0
3, 49680, Note_on_c, 1, 64, 100
3, 49680, Note_on_c, 1, 52, 100
3, 49698, Note_on_c, 1, 52, 0
3, 49698, Note_on_c, 1, 64, 0
3, 49740, Note_on_c, 1, 64, 100
3, 49740, Note_on_c, 1, 52, 100
3, 49758, Note_on_c, 1, 52, 0
3, 49758, Note_on_c, 1, 64, 0
3, 49800, Note_on_c, 1, 64, 100
3, 49800, Note_on_c, 1, 52, 100
3, 49818, Note_on_c, 1, 52, 0
3, 49818, Note_on_c, 1, 64, 0
3, 49860, Note_on_c, 1, 64, 100
3, 49860, Note_on_c, 1, 52, 100
3, 49878, Note_on_c, 1, 52, 0
3, 49878, Note_on_c, 1, 64, 0
3, 49920, Note_on_c, 1, 64, 100
3, 49920, Note_on_c, 1, 52, 100
3, 49938, Note_on_c, 1, 52, 0
3, 49938, Note_on_c, 1, 64, 0
3, 49980, Note_on_c, 1, 64, 100
3, 49980, Note_on_c, 1, 52, 100
3, 49998, Note_on_c, 1, 52, 0
3, 49998, Note_on_c, 1, 64, 0
3, 50040, Note_on_c, 1, 64, 100
3, 50040, Note_on_c, 1, 52, 100
3, 50058, Note_on_c, 1, 52, 0
3, 50058, Note_on_c, 1, 64, 0
3, 50100, Note_on_c, 1, 64, 100
3, 50100, Note_on_c, 1, 52, 100
3, 50118, Note_on_c, 1, 52, 0
3, 50118, Note_on_c, 1, 64, 0
3, 50160, Note_on_c, 1, 52, 100
3, 50160, Note_on_c, 1, 64, 100
3, 50178, Note_on_c, 1, 64, 0
3, 50178, Note_on_c, 1, 52, 0
3, 50220, Note_on_c, 1, 52, 100
3, 50220, Note_on_c, 1, 64, 100
3, 50238, Note_on_c, 1, 64, 0
3, 50238, Note_on_c, 1, 52, 0
3, 50280, Note_on_c, 1, 52, 100
3, 50280, Note_on_c, 1, 64, 100
3, 50298, Note_on_c, 1, 64, 0
3, 50298, Note_on_c, 1, 52, 0
3, 50340, Note_on_c, 1, 52, 100
3, 50340, Note_on_c, 1, 64, 100
3, 50358, Note_on_c, 1, 64, 0
3, 50358, Note_on_c, 1, 52, 0
3, 50400, Note_on_c, 1, 52, 100
3, 50400, Note_on_c, 1, 64, 100
3, 50418, Note_on_c, 1, 64, 0
3, 50418, Note_on_c, 1, 52, 0
3, 50460, Note_on_c, 1, 52, 100
3, 50460, Note_on_c, 1, 64, 100
3, 50478, Note_on_c, 1, 64, 0
3, 50478, Note_on_c, 1, 52, 0
3, 50520, Note_on_c, 1, 52, 100
3, 50520, Note_on_c, 1, 64, 100
3, 50538, Note_on_c, 1, 64, 0
3, 50538, Note_on_c, 1, 52, 0
3, 50580, Note_on_c, 1, 64, 100
3, 50580, Note_on_c, 1, 52, 100
3, 50598, Note_on_c, 1, 52, 0
3, 50598, Note_on_c, 1, 64, 0
3, 54120, Note_on_c, 1, 86, 100
3, 54150, Note_on_c, 1, 86, 0
3, 54180, Note_on_c, 1, 74, 100
3, 54210, Note_on_c, 1, 74, 0
3, 54240, Note_on_c, 1, 74, 100
3, 54270, Note_on_c, 1, 74, 0
3, 54300, Note_on_c, 1, 74, 100
3, 54330, Note_on_c, 1, 74, 0
3, 54360, Note_on_c, 1, 74, 100
3, 54390, Note_on_c, 1, 74, 0
3, 54420, Note_on_c, 1, 86, 100
3, 54450, Note_on_c, 1, 86, 0
3, 54480, Note_on_c, 1, 86, 100
3, 54510, Note_on_c, 1, 86, 0
3, 54540, Note_on_c, 1, 74, 100
3, 54570, Note_on_c, 1, 74, 0
3, 54600, Note_on_c, 1, 74, 100
3, 54630, Note_on_c, 1, 74, 0
3, 54660, Note_on_c, 1, 86, 100
3, 54690, Note_on_c, 1, 86, 0
3, 54720, Note_on_c, 1, 86, 100
3, 54750, Note_on_c, 1, 86, 0
3, 54780, Note_on_c, 1, 74, 100
3, 54810, Note_on_c, 1, 74, 0
3, 54840, Note_on_c, 1, 74, 100
3, 54870, Note_on_c, 1, 74, 0
3, 54900, Note_on_c, 1, 86, 100
3, 54930, Note_on_c, 1, 86, 0
3, 54960, Note_on_c, 1, 86, 100
3, 54990, Note_on_c, 1, 86, 0
3, 55020, Note_on_c, 1, 74, 100
3, 55050, Note_on_c, 1, 74, 0
3, 55080, Note_on_c, 1, 74, 100
3, 55110, Note_on_c, 1, 74, 0
3, 55140, Note_on_c, 1, 86, 100
3, 55170, Note_on_c, 1, 86, 0
3, 55200, Note_on_c, 1, 86, 100
3, 55230, Note_on_c, 1, 86, 0
3, 55260, Note_on_c, 1, 74, 100
3, 55290, Note_on_c, 1, 74, 0
3, 55320, Note_on_c, 1, 74, 100
3, 55350, Note_on_c, 1, 74, 0
3, 55380, Note_on_c, 1, 86, 100
3, 55410, Note_on_c, 1, 86, 0
3, 55440, Note_on_c, 1, 86, 100
3, 55470, Note_on_c, 1, 86, 0
3, 55500, Note_on_c, 1, 74, 100
3, 55530, Note_on_c, 1, 74, 0
3, 55560, Note_on_c, 1, 86, 100
3, 55590, Note_on_c, 1, 86, 0
3, 55620, Note_on_c, 1, 74, 100
3, 55650, Note_on_c, 1, 74, 0
3, 55680, Note_on_c, 1, 74, 100
3, 55710, Note_on_c, 1, 74, 0
3, 55740, Note_on_c, 1, 74, 100
3, 55770, Note_on_c, 1, 74, 0
3, 55800, Note_on_c, 1, 74, 100
3, 55830, Note_on_c, 1, 74, 0
3, 55860, Note_on_c, 1, 86, 100
3, 55890, Note_on_c, 1, 86, 0
3, 55920, Note_on_c, 1, 86, 100
3, 55950, Note_on_c, 1, 86, 0
3, 55980, Note_on_c, 1, 74, 100
3, 56010, Note_on_c, 1, 74, 0
3, 56040, Note_on_c, 1, 74, 100
3, 56070, Note_on_c, 1, 74, 0
3, 56100, Note_on_c, 1, 86, 100
3, 56130, Note_on_c, 1, 86, 0
3, 56160, Note_on_c, 1, 86, 100
3, 56190, Note_on_c, 1, 86, 0
3, 56220, Note_on_c, 1, 74, 100
3, 56250, Note_on_c, 1, 74, 0
3, 56280, Note_on_c, 1, 74, 100
3, 56310, Note_on_c, 1, 74, 0
3, 56340, Note_on_c, 1, 86, 100
3, 56370, Note_on_c, 1, 86, 0
3, 56400, Note_on_c, 1, 86, 100
3, 56430, Note_on_c, 1, 86, 0
3, 56460, Note_on_c, 1, 74, 100
3, 56490, Note_on_c, 1, 74, 0
3, 56520, Note_on_c, 1, 74, 100
3, 56550, Note_on_c, 1, 74, 0
3, 56580, Note_on_c, 1, 86, 100
3, 56610, Note_on_c, 1, 86, 0
3, 56640, Note_on_c, 1, 86, 100
3, 56670, Note_on_c, 1, 86, 0
3, 56700, Note_on_c, 1, 74, 100
3, 56730, Note_on_c, 1, 74, 0
3, 56760, Note_on_c, 1, 74, 100
3, 56790, Note_on_c, 1, 74, 0
3, 56820, Note_on_c, 1, 86, 100
3, 56850, Note_on_c, 1, 86, 0
3, 56880, Note_on_c, 1, 86, 100
3, 56910, Note_on_c, 1, 86, 0
3, 56940, Note_on_c, 1, 74, 100
3, 56970, Note_on_c, 1, 74, 0
3, 57000, Note_on_c, 1, 86, 100
3, 57030, Note_on_c, 1, 86, 0
3, 57060, Note_on_c, 1, 74, 100
3, 57090, Note_on_c, 1, 74, 0
3, 57120, Note_on_c, 1, 74, 100
3, 57150, Note_on_c, 1, 74, 0
3, 57180, Note_on_c, 1, 74, 100
3, 57210, Note_on_c, 1, 74, 0
3, 57240, Note_on_c, 1, 74, 100
3, 57270, Note_on_c, 1, 74, 0
3, 57300, Note_on_c, 1, 86, 100
3, 57330, Note_on_c, 1, 86, 0
3, 57360, Note_on_c, 1, 86, 100
3, 57390, Note_on_c, 1, 86, 0
3, 57420, Note_on_c, 1, 74, 100
3, 57450, Note_on_c, 1, 74, 0
3, 57480, Note_on_c, 1, 74, 100
3, 57510, Note_on_c, 1, 74, 0
3, 57540, Note_on_c, 1, 86, 100
3, 57570, Note_on_c, 1, 86, 0
3, 57600, Note_on_c, 1, 86, 100
3, 57630, Note_on_c, 1, 86, 0
3, 57660, Note_on_c, 1, 74, 100
3, 57690, Note_on_c, 1, 74, 0
3, 57720, Note_on_c, 1, 74, 100
3, 57750, Note_on_c, 1, 74, 0
3, 57780, Note_on_c, 1, 86, 100
3, 57810, Note_on_c, 1, 86, 0
3, 57840, Note_on_c, 1, 86, 100
3, 57870, Note_on_c, 1, 86, 0
3, 57900, Note_on_c, 1, 74, 100
3, 57930, Note_on_c, 1, 74, 0
3, 57960, Note_on_c, 1, 74, 100
3, 57990, Note_on_c, 1, 74, 0
3, 58020, Note_on_c, 1, 86, 100
3, 58050, Note_on_c, 1, 86, 0
3, 58080, Note_on_c, 1, 86, 100
3, 58110, Note_on_c, 1, 86, 0
3, 58140, Note_on_c, 1, 74, 100
3, 58170, Note_on_c, 1, 74, 0
3, 58200, Note_on_c, 1, 74, 100
3, 58230, Note_on_c, 1, 74, 0
3, 58260, Note_on_c, 1, 86, 100
3, 58290, Note_on_c, 1, 86, 0
3, 58320, Note_on_c, 1, 86, 100
3, 58350, Note_on_c, 1, 86, 0
3, 58380, Note_on_c, 1, 74, 100
3, 58410, Note_on_c, 1, 74, 0
3, 58440, Note_on_c, 1, 86, 100
3, 58470, Note_on_c, 1, 86, 0
3, 58500, Note_on_c, 1, 74, 100
3, 58530, Note_on_c, 1, 74, 0
3, 58560, Note_on_c, 1, 74, 100
3, 58590, Note_on_c, 1, 74, 0
3, 58620, Note_on_c, 1, 74, 100
3, 58650, Note_on_c, 1, 74, 0
3, 58680, Note_on_c, 1, 74, 100
3, 58710, Note_on_c, 1, 74, 0
3, 58740, Note_on_c, 1, 86, 100
3, 58770, Note_on_c, 1, 86, 0
3, 58800, Note_on_c, 1, 86, 100
3, 58830, Note_on_c, 1, 86, 0
3, 58860, Note_on_c, 1, 74, 100
3, 58890, Note_on_c, 1, 74, 0
3, 58920, Note_on_c, 1, 74, 100
3, 58950, Note_on_c, 1, 74, 0
3, 58980, Note_on_c, 1, 86, 100
3, 59010, Note_on_c, 1, 86, 0
3, 59040, Note_on_c, 1, 86, 100
3, 59070, Note_on_c, 1, 86, 0
3, 59100, Note_on_c, 1, 74, 100
3, 59130, Note_on_c, 1, 74, 0
3, 59160, Note_on_c, 1, 74, 100
3, 59190, Note_on_c, 1, 74, 0
3, 59220, Note_on_c, 1, 86, 100
3, 59250, Note_on_c, 1, 86, 0
3, 59280, Note_on_c, 1, 86, 100
3, 59310, Note_on_c, 1, 86, 0
3, 59340, Note_on_c, 1, 74, 100
3, 59370, Note_on_c, 1, 74, 0
3, 59400, Note_on_c, 1, 74, 100
3, 59430, Note_on_c, 1, 74, 0
3, 59460, Note_on_c, 1, 86, 100
3, 59490, Note_on_c, 1, 86, 0
3, 59520, Note_on_c, 1, 86, 100
3, 59550, Note_on_c, 1, 86, 0
3, 59580, Note_on_c, 1, 74, 100
3, 59610, Note_on_c, 1, 74, 0
3, 59640, Note_on_c, 1, 74, 100
3, 59670, Note_on_c, 1, 74, 0
3, 59700, Note_on_c, 1, 86, 100
3, 59730, Note_on_c, 1, 86, 0
3, 59760, Note_on_c, 1, 86, 100
3, 59790, Note_on_c, 1, 86, 0
3, 59820, Note_on_c, 1, 74, 100
3, 59850, Note_on_c, 1, 74, 0
3, 59880, Note_on_c, 1, 53, 110
3, 59880, Note_on_c, 1, 65, 110
3, 59902, Note_on_c, 1, 65, 0
3, 59902, Note_on_c, 1, 53, 0
3, 59940, Note_on_c, 1, 53, 110
3, 59940, Note_on_c, 1, 65, 110
3, 59962, Note_on_c, 1, 65, 0
3, 59962, Note_on_c, 1, 53, 0
3, 60000, Note_on_c, 1, 53, 110
3, 60000, Note_on_c, 1, 65, 110
3, 60022, Note_on_c, 1, 65, 0
3, 60022, Note_on_c, 1, 53, 0
3, 60060, Note_on_c, 1, 53, 110
3, 60060, Note_on_c, 1, 65, 110
3, 60082, Note_on_c, 1, 65, 0
3, 60082, Note_on_c, 1, 53, 0
3, 60120, Note_on_c, 1, 53, 110
3, 60120, Note_on_c, 1, 65, 110
3, 60142, Note_on_c, 1, 65, 0
3, 60142, Note_on_c, 1, 53, 0
3, 60180, Note_on_c, 1, 53, 110
3, 60180, Note_on_c, 1, 65, 110
3, 60202, Note_on_c, 1, 65, 0
3, 60202, Note_on_c, 1, 53, 0
3, 60240, Note_on_c, 1, 53, 110
3, 60240, Note_on_c, 1, 65, 110
3, 60262, Note_on_c, 1, 65, 0
3, 60262, Note_on_c, 1, 53, 0
3, 60300, Note_on_c, 1, 53, 110
3, 60300, Note_on_c, 1, 65, 110
3, 60322, Note_on_c, 1, 65, 0
3, 60322, Note_on_c, 1, 53, 0
3, 60360, Note_on_c, 1, 53, 110
3, 60360, Note_on_c, 1, 65, 110
3, 60382, Note_on_c, 1, 65, 0
3, 60382, Note_on_c, 1, 53, 0
3, 60420, Note_on_c, 1, 53, 110
3, 60420, Note_on_c, 1, 65, 110
3, 60442, Note_on_c, 1, 65, 0
3, 60442, Note_on_c, 1, 53, 0
3, 60480, Note_on_c, 1, 53, 110
3, 60480, Note_on_c, 1, 65, 110
3, 60502, Note_on_c, 1, 65, 0
3, 60502, Note_on_c, 1, 53, 0
3, 60540, Note_on_c, 1, 53, 110
3, 60540, Note_on_c, 1, 65, 110
3, 60562, Note_on_c, 1, 65, 0
3, 60562, Note_on_c, 1, 53, 0
3, 60600, Note_on_c, 1, 53, 110
3, 60600, Note_on_c, 1, 65, 110
3, 60622, Note_on_c, 1, 65, 0
3, 60622, Note_on_c, 1, 53, 0
3, 60660, Note_on_c, 1, 53, 110
3, 60660, Note_on_c, 1, 65, 110
3, 60682, Note_on_c, 1, 65, 0
3, 60682, Note_on_c, 1, 53, 0
3, 60720, Note_on_c, 1, 53, 110
3, 60720, Note_on_c, 1, 65, 110
3, 60742, Note_on_c, 1, 65, 0
3, 60742, Note_on_c, 1, 53, 0
3, 60780, Note_on_c, 1, 53, 110
3, 60780, Note_on_c, 1, 65, 110
3, 60802, Note_on_c, 1, 65, 0
3, 60802, Note_on_c, 1, 53, 0
3, 60840, Note_on_c, 1, 53, 110
3, 60840, Note_on_c, 1, 65, 110
3, 60862, Note_on_c, 1, 65, 0
3, 60862, Note_on_c, 1, 53, 0
3, 60900, Note_on_c, 1, 53, 110
3, 60900, Note_on_c, 1, 65, 110
3, 60922, Note_on_c, 1, 65, 0
3, 60922, Note_on_c, 1, 53, 0
3, 60960, Note_on_c, 1, 53, 110
3, 60960, Note_on_c, 1, 65, 110
3, 60982, Note_on_c, 1, 65, 0
3, 60982, Note_on_c, 1, 53, 0
3, 61020, Note_on_c, 1, 53, 110
3, 61020, Note_on_c, 1, 65, 110
3, 61042, Note_on_c, 1, 65, 0
3, 61042, Note_on_c, 1, 53, 0
3, 61080, Note_on_c, 1, 53, 110
3, 61080, Note_on_c, 1, 65, 110
3, 61102, Note_on_c, 1, 65, 0
3, 61102, Note_on_c, 1, 53, 0
3, 61140, Note_on_c, 1, 53, 110
3, 61140, Note_on_c, 1, 65, 110
3, 61162, Note_on_c, 1, 65, 0
3, 61162, Note_on_c, 1, 53, 0
3, 61200, Note_on_c, 1, 53, 110
3, 61200, Note_on_c, 1, 65, 110
3, 61222, Note_on_c, 1, 65, 0
3, 61222, Note_on_c, 1, 53, 0
3, 61260, Note_on_c, 1, 53, 110
3, 61260, Note_on_c, 1, 65, 110
3, 61282, Note_on_c, 1, 65, 0
3, 61282, Note_on_c, 1, 53, 0
3, 61320, Note_on_c, 1, 53, 110
3, 61320, Note_on_c, 1, 65, 110
3, 61342, Note_on_c, 1, 65, 0
3, 61342, Note_on_c, 1, 53, 0
3, 61380, Note_on_c, 1, 53, 110
3, 61380, Note_on_c, 1, 65, 110
3, 61402, Note_on_c, 1, 65, 0
3, 61402, Note_on_c, 1, 53, 0
3, 61440, Note_on_c, 1, 53, 110
3, 61440, Note_on_c, 1, 65, 110
3, 61462, Note_on_c, 1, 65, 0
3, 61462, Note_on_c, 1, 53, 0
3, 61500, Note_on_c, 1, 53, 110
3, 61500, Note_on_c, 1, 65, 110
3, 61522, Note_on_c, 1, 65, 0
3, 61522, Note_on_c, 1, 53, 0
3, 61560, Note_on_c, 1, 53, 110
3, 61560, Note_on_c, 1, 65, 110
3, 61582, Note_on_c, 1, 65, 0
3, 61582, Note_on_c, 1, 53, 0
3, 61620, Note_on_c, 1, 53, 110
3, 61620, Note_on_c, 1, 65, 110
3, 61642, Note_on_c, 1, 65, 0
3, 61642, Note_on_c, 1, 53, 0
3, 61680, Note_on_c, 1, 53, 110
3, 61680, Note_on_c, 1, 65, 110
3, 61702, Note_on_c, 1, 65, 0
3, 61702, Note_on_c, 1, 53, 0
3, 61740, Note_on_c, 1, 53, 110
3, 61740, Note_on_c, 1, 65, 110
3, 61762, Note_on_c, 1, 65, 0
3, 61762, Note_on_c, 1, 53, 0
3, 61800, Note_on_c, 1, 53, 110
3, 61800, Note_on_c, 1, 65, 110
3, 61822, Note_on_c, 1, 65, 0
3, 61822, Note_on_c, 1, 53, 0
3, 61860, Note_on_c, 1, 53, 110
3, 61860, Note_on_c, 1, 65, 110
3, 61882, Note_on_c, 1, 65, 0
3, 61882, Note_on_c, 1, 53, 0
3, 61920, Note_on_c, 1, 53, 110
3, 61920, Note_on_c, 1, 65, 110
3, 61942, Note_on_c, 1, 65, 0
3, 61942, Note_on_c, 1, 53, 0
3, 61980, Note_on_c, 1, 53, 110
3, 61980, Note_on_c, 1, 65, 110
3, 62002, Note_on_c, 1, 65, 0
3, 62002, Note_on_c, 1, 53, 0
3, 62040, Note_on_c, 1, 53, 110
3, 62040, Note_on_c, 1, 65, 110
3, 62062, Note_on_c, 1, 65, 0
3, 62062, Note_on_c, 1, 53, 0
3, 62100, Note_on_c, 1, 53, 110
3, 62100, Note_on_c, 1, 65, 110
3, 62122, Note_on_c, 1, 65, 0
3, 62122, Note_on_c, 1, 53, 0
3, 62160, Note_on_c, 1, 53, 110
3, 62160, Note_on_c, 1, 65, 110
3, 62182, Note_on_c, 1, 65, 0
3, 62182, Note_on_c, 1, 53, 0
3, 62220, Note_on_c, 1, 53, 110
3, 62220, Note_on_c, 1, 65, 110
3, 62242, Note_on_c, 1, 65, 0
3, 62242, Note_on_c, 1, 53, 0
3, 62280, Note_on_c, 1, 53, 110
3, 62280, Note_on_c, 1, 65, 110
3, 62302, Note_on_c, 1, 65, 0
3, 62302, Note_on_c, 1, 53, 0
3, 62340, Note_on_c, 1, 53, 110
3, 62340, Note_on_c, 1, 65, 110
3, 62362, Note_on_c, 1, 65, 0
3, 62362, Note_on_c, 1, 53, 0
3, 62400, Note_on_c, 1, 53, 110
3, 62400, Note_on_c, 1, 65, 110
3, 62422, Note_on_c, 1, 65, 0
3, 62422, Note_on_c, 1, 53, 0
3, 62460, Note_on_c, 1, 53, 110
3, 62460, Note_on_c, 1, 65, 110
3, 62482, Note_on_c, 1, 65, 0
3, 62482, Note_on_c, 1, 53, 0
3, 62520, Note_on_c, 1, 53, 110
3, 62520, Note_on_c, 1, 65, 110
3, 62542, Note_on_c, 1, 65, 0
3, 62542, Note_on_c, 1, 53, 0
3, 62580, Note_on_c, 1, 53, 110
3, 62580, Note_on_c, 1, 65, 110
3, 62602, Note_on_c, 1, 65, 0
3, 62602, Note_on_c, 1, 53, 0
3, 62640, Note_on_c, 1, 53, 110
3, 62640, Note_on_c, 1, 65, 110
3, 62662, Note_on_c, 1, 65, 0
3, 62662, Note_on_c, 1, 53, 0
3, 62700, Note_on_c, 1, 53, 110
3, 62700, Note_on_c, 1, 65, 110
3, 62722, Note_on_c, 1, 65, 0
3, 62722, Note_on_c, 1, 53, 0
3, 62760, Note_on_c, 1, 53, 110
3, 62760, Note_on_c, 1, 65, 110
3, 62782, Note_on_c, 1, 65, 0
3, 62782, Note_on_c, 1, 53, 0
3, 62820, Note_on_c, 1, 53, 110
3, 62820, Note_on_c, 1, 65, 110
3, 62842, Note_on_c, 1, 65, 0
3, 62842, Note_on_c, 1, 53, 0
3, 62880, Note_on_c, 1, 53, 110
3, 62880, Note_on_c, 1, 65, 110
3, 62902, Note_on_c, 1, 65, 0
3, 62902, Note_on_c, 1, 53, 0
3, 62940, Note_on_c, 1, 53, 110
3, 62940, Note_on_c, 1, 65, 110
3, 62962, Note_on_c, 1, 65, 0
3, 62962, Note_on_c, 1, 53, 0
3, 63000, Note_on_c, 1, 53, 110
3, 63000, Note_on_c, 1, 65, 110
3, 63022, Note_on_c, 1, 65, 0
3, 63022, Note_on_c, 1, 53, 0
3, 63060, Note_on_c, 1, 53, 110
3, 63060, Note_on_c, 1, 65, 110
3, 63082, Note_on_c, 1, 65, 0
3, 63082, Note_on_c, 1, 53, 0
3, 63120, Note_on_c, 1, 53, 110
3, 63120, Note_on_c, 1, 65, 110
3, 63142, Note_on_c, 1, 65, 0
3, 63142, Note_on_c, 1, 53, 0
3, 63180, Note_on_c, 1, 53, 110
3, 63180, Note_on_c, 1, 65, 110
3, 63202, Note_on_c, 1, 65, 0
3, 63202, Note_on_c, 1, 53, 0
3, 63240, Note_on_c, 1, 53, 110
3, 63240, Note_on_c, 1, 65, 110
3, 63262, Note_on_c, 1, 65, 0
3, 63262, Note_on_c, 1, 53, 0
3, 63300, Note_on_c, 1, 53, 110
3, 63300, Note_on_c, 1, 65, 110
3, 63322, Note_on_c, 1, 65, 0
3, 63322, Note_on_c, 1, 53, 0
3, 63360, Note_on_c, 1, 53, 110
3, 63360, Note_on_c, 1, 65, 110
3, 63382, Note_on_c, 1, 65, 0
3, 63382, Note_on_c, 1, 53, 0
3, 63420, Note_on_c, 1, 53, 110
3, 63420, Note_on_c, 1, 65, 110
3, 63442, Note_on_c, 1, 65, 0
3, 63442, Note_on_c, 1, 53, 0
3, 63480, Note_on_c, 1, 53, 110
3, 63480, Note_on_c, 1, 65, 110
3, 63502, Note_on_c, 1, 65, 0
3, 63502, Note_on_c, 1, 53, 0
3, 63540, Note_on_c, 1, 53, 110
3, 63540, Note_on_c, 1, 65, 110
3, 63562, Note_on_c, 1, 65, 0
3, 63562, Note_on_c, 1, 53, 0
3, 63600, Note_on_c, 1, 53, 110
3, 63600, Note_on_c, 1, 65, 110
3, 63622, Note_on_c, 1, 65, 0
3, 63622, Note_on_c, 1, 53, 0
3, 63660, Note_on_c, 1, 53, 110
3, 63660, Note_on_c, 1, 65, 110
3, 63682, Note_on_c, 1, 65, 0
3, 63682, Note_on_c, 1, 53, 0
3, 63720, Note_on_c, 1, 53, 110
3, 63720, Note_on_c, 1, 65, 110
3, 63742, Note_on_c, 1, 65, 0
3, 63742, Note_on_c, 1, 53, 0
3, 63780, Note_on_c, 1, 53, 110
3, 63780, Note_on_c, 1, 65, 110
3, 63802, Note_on_c, 1, 65, 0
3, 63802, Note_on_c, 1, 53, 0
3, 63840, Note_on_c, 1, 53, 110
3, 63840, Note_on_c, 1, 65, 110
3, 63862, Note_on_c, 1, 65, 0
3, 63862, Note_on_c, 1, 53, 0
3, 63900, Note_on_c, 1, 53, 110
3, 63900, Note_on_c, 1, 65, 110
3, 63922, Note_on_c, 1, 65, 0
3, 63922, Note_on_c, 1, 53, 0
3, 63960, Note_on_c, 1, 53, 110
3, 63960, Note_on_c, 1, 65, 110
3, 63982, Note_on_c, 1, 65, 0
3, 63982, Note_on_c, 1, 53, 0
3, 64020, Note_on_c, 1, 53, 110
3, 64020, Note_on_c, 1, 65, 110
3, 64042, Note_on_c, 1, 65, 0
3, 64042, Note_on_c, 1, 53, 0
3, 64080, Note_on_c, 1, 53, 110
3, 64080, Note_on_c, 1, 65, 110
3, 64102, Note_on_c, 1, 65, 0
3, 64102, Note_on_c, 1, 53, 0
3, 64140, Note_on_c, 1, 53, 110
3, 64140, Note_on_c, 1, 65, 110
3, 64162, Note_on_c, 1, 65, 0
3, 64162, Note_on_c, 1, 53, 0
3, 64200, Note_on_c, 1, 53, 110
3, 64200, Note_on_c, 1, 65, 110
3, 64222, Note_on_c, 1, 65, 0
3, 64222, Note_on_c, 1, 53, 0
3, 64260, Note_on_c, 1, 53, 110
3, 64260, Note_on_c, 1, 65, 110
3, 64282, Note_on_c, 1, 65, 0
3, 64282, Note_on_c, 1, 53, 0
3, 64320, Note_on_c, 1, 53, 110
3, 64320, Note_on_c, 1, 65, 110
3, 64342, Note_on_c, 1, 65, 0
3, 64342, Note_on_c, 1, 53, 0
3, 64380, Note_on_c, 1, 53, 110
3, 64380, Note_on_c, 1, 65, 110
3, 64402, Note_on_c, 1, 65, 0
3, 64402, Note_on_c, 1, 53, 0
3, 64440, Note_on_c, 1, 53, 110
3, 64440, Note_on_c, 1, 65, 110
3, 64462, Note_on_c, 1, 65, 0
3, 64462, Note_on_c, 1, 53, 0
3, 64500, Note_on_c, 1, 53, 110
3, 64500, Note_on_c, 1, 65, 110
3, 64522, Note_on_c, 1, 65, 0
3, 64522, Note_on_c, 1, 53, 0
3, 64560, Note_on_c, 1, 53, 110
3, 64560, Note_on_c, 1, 65, 110
3, 64582, Note_on_c, 1, 65, 0
3, 64582, Note_on_c, 1, 53, 0
3, 64620, Note_on_c, 1, 53, 110
3, 64620, Note_on_c, 1, 65, 110
3, 64642, Note_on_c, 1, 65, 0
3, 64642, Note_on_c, 1, 53, 0
3, 64680, Note_on_c, 1, 53, 110
3, 64680, Note_on_c, 1, 65, 110
3, 64702, Note_on_c, 1, 65, 0
3, 64702, Note_on_c, 1, 53, 0
3, 64740, Note_on_c, 1, 53, 110
3, 64740, Note_on_c, 1, 65, 110
3, 64762, Note_on_c, 1, 65, 0
3, 64762, Note_on_c, 1, 53, 0
3, 64800, Note_on_c, 1, 53, 110
3, 64800, Note_on_c, 1, 65, 110
3, 64822, Note_on_c, 1, 65, 0
3, 64822, Note_on_c, 1, 53, 0
3, 64860, Note_on_c, 1, 53, 110
3, 64860, Note_on_c, 1, 65, 110
3, 64882, Note_on_c, 1, 65, 0
3, 64882, Note_on_c, 1, 53, 0
3, 64920, Note_on_c, 1, 53, 110
3, 64920, Note_on_c, 1, 65, 110
3, 64942, Note_on_c, 1, 65, 0
3, 64942, Note_on_c, 1, 53, 0
3, 64980, Note_on_c, 1, 53, 110
3, 64980, Note_on_c, 1, 65, 110
3, 65002, Note_on_c, 1, 65, 0
3, 65002, Note_on_c, 1, 53, 0
3, 65040, Note_on_c, 1, 53, 110
3, 65040, Note_on_c, 1, 65, 110
3, 65062, Note_on_c, 1, 65, 0
3, 65062, Note_on_c, 1, 53, 0
3, 65100, Note_on_c, 1, 53, 110
3, 65100, Note_on_c, 1, 65, 110
3, 65122, Note_on_c, 1, 65, 0
3, 65122, Note_on_c, 1, 53, 0
3, 65160, Note_on_c, 1, 53, 110
3, 65160, Note_on_c, 1, 65, 110
3, 65182, Note_on_c, 1, 65, 0
3, 65182, Note_on_c, 1, 53, 0
3, 65220, Note_on_c, 1, 53, 110
3, 65220, Note_on_c, 1, 65, 110
3, 65242, Note_on_c, 1, 65, 0
3, 65242, Note_on_c, 1, 53, 0
3, 65280, Note_on_c, 1, 53, 110
3, 65280, Note_on_c, 1, 65, 110
3, 65302, Note_on_c, 1, 65, 0
3, 65302, Note_on_c, 1, 53, 0
3, 65340, Note_on_c, 1, 53, 110
3, 65340, Note_on_c, 1, 65, 110
3, 65362, Note_on_c, 1, 65, 0
3, 65362, Note_on_c, 1, 53, 0
3, 65400, Note_on_c, 1, 53, 110
3, 65400, Note_on_c, 1, 65, 110
3, 65422, Note_on_c, 1, 65, 0
3, 65422, Note_on_c, 1, 53, 0
3, 65460, Note_on_c, 1, 53, 110
3, 65460, Note_on_c, 1, 65, 110
3, 65482, Note_on_c, 1, 65, 0
3, 65482, Note_on_c, 1, 53, 0
3, 65520, Note_on_c, 1, 53, 110
3, 65520, Note_on_c, 1, 65, 110
3, 65542, Note_on_c, 1, 65, 0
3, 65542, Note_on_c, 1, 53, 0
3, 65580, Note_on_c, 1, 53, 110
3, 65580, Note_on_c, 1, 65, 110
3, 65602, Note_on_c, 1, 65, 0
3, 65602, Note_on_c, 1, 53, 0
3, 65640, Note_on_c, 1, 62, 100
3, 65640, Note_on_c, 1, 50, 100
3, 65658, Note_on_c, 1, 50, 0
3, 65658, Note_on_c, 1, 62, 0
3, 65700, Note_on_c, 1, 64, 100
3, 65700, Note_on_c, 1, 52, 100
3, 65718, Note_on_c, 1, 52, 0
3, 65718, Note_on_c, 1, 64, 0
3, 65760, Note_on_c, 1, 64, 100
3, 65760, Note_on_c, 1, 52, 100
3, 65778, Note_on_c, 1, 52, 0
3, 65778, Note_on_c, 1, 64, 0
3, 65820, Note_on_c, 1, 64, 100
3, 65820, Note_on_c, 1, 52, 100
3, 65838, Note_on_c, 1, 52, 0
3, 65838, Note_on_c, 1, 64, 0
3, 65880, Note_on_c, 1, 64, 100
3, 65880, Note_on_c, 1, 52, 100
3, 65898, Note_on_c, 1, 52, 0
3, 65898, Note_on_c, 1, 64, 0
3, 65940, Note_on_c, 1, 64, 100
3, 65940, Note_on_c, 1, 52, 100
3, 65958, Note_on_c, 1, 52, 0
3, 65958, Note_on_c, 1, 64, 0
3, 66000, Note_on_c, 1, 64, 100
3, 66000, Note_on_c, 1, 52, 100
3, 66018, Note_on_c, 1, 52, 0
3, 66018, Note_on_c, 1, 64, 0
3, 66060, Note_on_c, 1, 64, 100
3, 66060, Note_on_c, 1, 52, 100
3, 66078, Note_on_c, 1, 52, 0
3, 66078, Note_on_c, 1, 64, 0
3, 66120, Note_on_c, 1, 64, 100
3, 66120, Note_on_c, 1, 52, 100
3, 66138, Note_on_c, 1, 52, 0
3, 66138, Note_on_c, 1, 64, 0
3, 66180, Note_on_c, 1, 64, 100
3, 66180, Note_on_c, 1, 52, 100
3, 66198, Note_on_c, 1, 52, 0
3, 66198, Note_on_c, 1, 64, 0
3, 66240, Note_on_c, 1, 64, 100
3, 66240, Note_on_c, 1, 52, 100
3, 66258, Note_on_c, 1, 52, 0
3, 66258, Note_on_c, 1, 64, 0
3, 66300, Note_on_c, 1, 62, 100
3, 66300, Note_on_c, 1, 50, 100
3, 66318, Note_on_c, 1, 50, 0
3, 66318, Note_on_c, 1, 62, 0
3, 66360, Note_on_c, 1, 64, 100
3, 66360, Note_on_c, 1, 52, 100
3, 66378, Note_on_c, 1, 52, 0
3, 66378, Note_on_c, 1, 64, 0
3, 66420, Note_on_c, 1, 64, 100
3, 66420, Note_on_c, 1, 52, 100
3, 66438, Note_on_c, 1, 52, 0
3, 66438, Note_on_c, 1, 64, 0
3, 66480, Note_on_c, 1, 64, 100
3, 66480, Note_on_c, 1, 52, 100
3, 66498, Note_on_c, 1, 52, 0
3, 66498, Note_on_c, 1, 64, 0
3, 66540, Note_on_c, 1, 62, 100
3, 66540, Note_on_c, 1, 50, 100
3, 66558, Note_on_c, 1, 50, 0
3, 66558, Note_on_c, 1, 62, 0
3, 66600, Note_on_c, 1, 64, 100
3, 66600, Note_on_c, 1, 52, 100
3, 66618, Note_on_c, 1, 52, 0
3, 66618, Note_on_c, 1, 64, 0
3, 66660, Note_on_c, 1, 64, 100
3, 66660, Note_on_c, 1, 52, 100
3, 66678, Note_on_c, 1, 52, 0
3, 66678, Note_on_c, 1, 64, 0
3, 66720, Note_on_c, 1, 64, 100
3, 66720, Note_on_c, 1, 52, 100
3, 66738, Note_on_c, 1, 52, 0
3, 66738, Note_on_c, 1, 64, 0
3, 66780, Note_on_c, 1, 64, 100
3, 66780, Note_on_c, 1, 52, 100
3, 66798, Note_on_c, 1, 52, 0
3, 66798, Note_on_c, 1, 64, 0
3, 66840, Note_on_c, 1, 64, 100
3, 66840, Note_on_c, 1, 52, 100
3, 66858, Note_on_c, 1, 52, 0
3, 66858, Note_on_c, 1, 64, 0
3, 66900, Note_on_c, 1, 64, 100
3, 66900, Note_on_c, 1, 52, 100
3, 66918, Note_on_c, 1, 52, 0
3, 66918, Note_on_c, 1, 64, 0
3, 66960, Note_on_c, 1, 64, 100
3, 66960, Note_on_c, 1, 52, 100
3, 66978, Note_on_c, 1, 52, 0
3, 66978, Note_on_c, 1, 64, 0
3, 67020, Note_on_c, 1, 64, 100
3, 67020, Note_on_c, 1, 52, 100
3, 67038, Note_on_c, 1, 52, 0
3, 67038, Note_on_c, 1, 64, 0
3, 67080, Note_on_c, 1, 50, 100
3, 67080, Note_on_c, 1, 62, 100
3, 67098, Note_on_c, 1, 62, 0
3, 67098, Note_on_c, 1, 50, 0
3, 67140, Note_on_c, 1, 52, 100
3, 67140, Note_on_c, 1, 64, 100
3, 67158, Note_on_c, 1, 64, 0
3, 67158, Note_on_c, 1, 52, 0
3, 67200, Note_on_c, 1, 52, 100
3, 67200, Note_on_c, 1, 64, 100
3, 67218, Note_on_c, 1, 64, 0
3, 67218, Note_on_c, 1, 52, 0
3, 67260, Note_on_c, 1, 52, 100
3, 67260, Note_on_c, 1, 64, 100
3, 67278, Note_on_c, 1, 64, 0
3, 67278, Note_on_c, 1, 52, 0
3, 67320, Note_on_c, 1, 52, 100
3, 67320, Note_on_c, 1, 64, 100
3, 67338, Note_on_c, 1, 64, 0
3, 67338, Note_on_c, 1, 52, 0
3, 67380, Note_on_c, 1, 52, 100
3, 67380, Note_on_c, 1, 64, 100
3, 67398, Note_on_c, 1, 64, 0
3, 67398, Note_on_c, 1, 52, 0
3, 67440, Note_on_c, 1, 52, 100
3, 67440, Note_on_c, 1, 64, 100
3, 67458, Note_on_c, 1, 64, 0
3, 67458, Note_on_c, 1, 52, 0
3, 67500, Note_on_c, 1, 52, 100
3, 67500, Note_on_c, 1, 64, 100
3, 67518, Note_on_c, 1, 64, 0
3, 67518, Note_on_c, 1, 52, 0
3, 67560, Note_on_c, 1, 52, 100
3, 67560, Note_on_c, 1, 64, 100
3, 67578, Note_on_c, 1, 64, 0
3, 67578, Note_on_c, 1, 52, 0
3, 67620, Note_on_c, 1, 52, 100
3, 67620, Note_on_c, 1, 64, 100
3, 67638, Note_on_c, 1, 64, 0
3, 67638, Note_on_c, 1, 52, 0
3, 67680, Note_on_c, 1, 52, 100
3, 67680, Note_on_c, 1, 64, 100
3, 67698, Note_on_c, 1, 64, 0
3, 67698, Note_on_c, 1, 52, 0
3, 67740, Note_on_c, 1, 50, 100
3, 67740, Note_on_c, 1, 62, 100
3, 67758, Note_on_c, 1, 62, 0
3, 67758, Note_on_c, 1, 50, 0
3, 67800, Note_on_c, 1, 52, 100
3, 67800, Note_on_c, 1, 64, 100
3, 67818, Note_on_c, 1, 64, 0
3, 67818, Note_on_c, 1, 52, 0
3, 67860, Note_on_c, 1, 52, 100
3, 67860, Note_on_c, 1, 64, 100
3, 67878, Note_on_c, 1, 64, 0
3, 67878, Note_on_c, 1, 52, 0
3, 67920, Note_on_c, 1, 52, 100
3, 67920, Note_on_c, 1, 64, 100
3, 67938, Note_on_c, 1, 64, 0
3, 67938, Note_on_c, 1, 52, 0
3, 67980, Note_on_c, 1, 50, 100
3, 67980, Note_on_c, 1, 62, 100
3, 67998, Note_on_c, 1, 62, 0
3, 67998, Note_on_c, 1, 50, 0
3, 68040, Note_on_c, 1, 52, 100
3, 68040, Note_on_c, 1, 64, 100
3, 68058, Note_on_c, 1, 64, 0
3, 68058, Note_on_c, 1, 52, 0
3, 68100, Note_on_c, 1, 52, 100
3, 68100, Note_on_c, 1, 64, 100
3, 68118, Note_on_c, 1, 64, 0
3, 68118, Note_on_c, 1, 52, 0
3, 68160, Note_on_c, 1, 52, 100
3, 68160, Note_on_c, 1, 64, 100
3, 68178, Note_on_c, 1, 64, 0
3, 68178, Note_on_c, 1, 52, 0
3, 68220, Note_on_c, 1, 52, 100
3, 68220, Note_on_c, 1, 64, 100
3, 68238, Note_on_c, 1, 64, 0
3, 68238, Note_on_c, 1, 52, 0
3, 68280, Note_on_c, 1, 52, 100
3, 68280, Note_on_c, 1, 64, 100
3, 68298, Note_on_c, 1, 64, 0
3, 68298, Note_on_c, 1, 52, 0
3, 68340, Note_on_c, 1, 52, 100
3, 68340, Note_on_c, 1, 64, 100
3, 68358, Note_on_c, 1, 64, 0
3, 68358, Note_on_c, 1, 52, 0
3, 68400, Note_on_c, 1, 52, 100
3, 68400, Note_on_c, 1, 64, 100
3, 68418, Note_on_c, 1, 64, 0
3, 68418, Note_on_c, 1, 52, 0
3, 68460, Note_on_c, 1, 52, 100
3, 68460, Note_on_c, 1, 64, 100
3, 68478, Note_on_c, 1, 64, 0
3, 68478, Note_on_c, 1, 52, 0
3, 68520, Note_on_c, 1, 50, 100
3, 68520, Note_on_c, 1, 62, 100
3, 68538, Note_on_c, 1, 62, 0
3, 68538, Note_on_c, 1, 50, 0
3, 68580, Note_on_c, 1, 52, 100
3, 68580, Note_on_c, 1, 64, 100
3, 68598, Note_on_c, 1, 64, 0
3, 68598, Note_on_c, 1, 52, 0
3, 68640, Note_on_c, 1, 52, 100
3, 68640, Note_on_c, 1, 64, 100
3, 68658, Note_on_c, 1, 64, 0
3, 68658, Note_on_c, 1, 52, 0
3, 68700, Note_on_c, 1, 52, 100
3, 68700, Note_on_c, 1, 64, 100
3, 68718, Note_on_c, 1, 64, 0
3, 68718, Note_on_c, 1, 52, 0
3, 68760, Note_on_c, 1, 52, 100
3, 68760, Note_on_c, 1, 64, 100
3, 68778, Note_on_c, 1, 64, 0
3, 68778, Note_on_c, 1, 52, 0
3, 68820, Note_on_c, 1, 52, 100
3, 68820, Note_on_c, 1, 64, 100
3, 68838, Note_on_c, 1, 64, 0
3, 68838, Note_on_c, 1, 52, 0
3, 68880, Note_on_c, 1, 52, 100
3, 68880, Note_on_c, 1, 64, 100
3, 68898, Note_on_c, 1, 64, 0
3, 68898, Note_on_c, 1, 52, 0
3, 68940, Note_on_c, 1, 52, 100
3, 68940, Note_on_c, 1, 64, 100
3, 68958, Note_on_c, 1, 64, 0
3, 68958, Note_on_c, 1, 52, 0
3, 69000, Note_on_c, 1, 52, 100
3, 69000, Note_on_c, 1, 64, 100
3, 69018, Note_on_c, 1, 64, 0
3, 69018, Note_on_c, 1, 52, 0
3, 69060, Note_on_c, 1, 52, 100
3, 69060, Note_on_c, 1, 64, 100
3, 69078, Note_on_c, 1, 64, 0
3, 69078, Note_on_c, 1, 52, 0
3, 69120, Note_on_c, 1, 52, 100
3, 69120, Note_on_c, 1, 64, 100
3, 69138, Note_on_c, 1, 64, 0
3, 69138, Note_on_c, 1, 52, 0
3, 69180, Note_on_c, 1, 50, 100
3, 69180, Note_on_c, 1, 62, 100
3, 69198, Note_on_c, 1, 62, 0
3, 69198, Note_on_c, 1, 50, 0
3, 69240, Note_on_c, 1, 52, 100
3, 69240, Note_on_c, 1, 64, 100
3, 69258, Note_on_c, 1, 64, 0
3, 69258, Note_on_c, 1, 52, 0
3, 69300, Note_on_c, 1, 52, 100
3, 69300, Note_on_c, 1, 64, 100
3, 69318, Note_on_c, 1, 64, 0
3, 69318, Note_on_c, 1, 52, 0
3, 69360, Note_on_c, 1, 52, 100
3, 69360, Note_on_c, 1, 64, 100
3, 69378, Note_on_c, 1, 64, 0
3, 69378, Note_on_c, 1, 52, 0
3, 69420, Note_on_c, 1, 50, 100
3, 69420, Note_on_c, 1, 62, 100
3, 69438, Note_on_c, 1, 62, 0
3, 69438, Note_on_c, 1, 50, 0
3, 69480, Note_on_c, 1, 52, 100
3, 69480, Note_on_c, 1, 64, 100
3, 69498, Note_on_c, 1, 64, 0
3, 69498, Note_on_c, 1, 52, 0
3, 69540, Note_on_c, 1, 52, 100
3, 69540, Note_on_c, 1, 64, 100
3, 69558, Note_on_c, 1, 64, 0
3, 69558, Note_on_c, 1, 52, 0
3, 69600, Note_on_c, 1, 52, 100
3, 69600, Note_on_c, 1, 64, 100
3, 69618, Note_on_c, 1, 64, 0
3, 69618, Note_on_c, 1, 52, 0
3, 69660, Note_on_c, 1, 52, 100
3, 69660, Note_on_c, 1, 64, 100
3, 69678, Note_on_c, 1, 64, 0
3, 69678, Note_on_c, 1, 52, 0
3, 69720, Note_on_c, 1, 52, 100
3, 69720, Note_on_c, 1, 64, 100
3, 69738, Note_on_c, 1, 64, 0
3, 69738, Note_on_c, 1, 52, 0
3, 69780, Note_on_c, 1, 52, 100
3, 69780, Note_on_c, 1, 64, 100
3, 69798, Note_on_c, 1, 64, 0
3, 69798, Note_on_c, 1, 52, 0
3, 69840, Note_on_c, 1, 52, 100
3, 69840, Note_on_c, 1, 64, 100
3, 69858, Note_on_c, 1, 64, 0
3, 69858, Note_on_c, 1, 52, 0
3, 69900, Note_on_c, 1, 52, 100
3, 69900, Note_on_c, 1, 64, 100
3, 69918, Note_on_c, 1, 64, 0
3, 69918, Note_on_c, 1, 52, 0
3, 69960, Note_on_c, 1, 50, 100
3, 69960, Note_on_c, 1, 62, 100
3, 69978, Note_on_c, 1, 62, 0
3, 69978, Note_on_c, 1, 50, 0
3, 70020, Note_on_c, 1, 52, 100
3, 70020, Note_on_c, 1, 64, 100
3, 70038, Note_on_c, 1, 64, 0
3, 70038, Note_on_c, 1, 52, 0
3, 70080, Note_on_c, 1, 52, 100
3, 70080, Note_on_c, 1, 64, 100
3, 70098, Note_on_c, 1, 64, 0
3, 70098, Note_on_c, 1, 52, 0
3, 70140, Note_on_c, 1, 52, 100
3, 70140, Note_on_c, 1, 64, 100
3, 70158, Note_on_c, 1, 64, 0
3, 70158, Note_on_c, 1, 52, 0
3, 70200, Note_on_c, 1, 52, 100
3, 70200, Note_on_c, 1, 64, 100
3, 70218, Note_on_c, 1, 64, 0
3, 70218, Note_on_c, 1, 52, 0
3, 70260, Note_on_c, 1, 52, 100
3, 70260, Note_on_c, 1, 64, 100
3, 70278, Note_on_c, 1, 64, 0
3, 70278, Note_on_c, 1, 52, 0
3, 70320, Note_on_c, 1, 52, 100
3, 70320, Note_on_c, 1, 64, 100
3, 70338, Note_on_c, 1, 64, 0
3, 70338, Note_on_c, 1, 52, 0
3, 70380, Note_on_c, 1, 52, 100
3, 70380, Note_on_c, 1, 64, 100
3, 70398, Note_on_c, 1, 64, 0
3, 70398, Note_on_c, 1, 52, 0
3, 70440, Note_on_c, 1, 52, 100
3, 70440, Note_on_c, 1, 64, 100
3, 70458, Note_on_c, 1, 64, 0
3, 70458, Note_on_c, 1, 52, 0
3, 70500, Note_on_c, 1, 52, 100
3, 70500, Note_on_c, 1, 64, 100
3, 70518, Note_on_c, 1, 64, 0
3, 70518, Note_on_c, 1, 52, 0
3, 70560, Note_on_c, 1, 52, 100
3, 70560, Note_on_c, 1, 64, 100
3, 70578, Note_on_c, 1, 64, 0
3, 70578, Note_on_c, 1, 52, 0
3, 70620, Note_on_c, 1, 50, 100
3, 70620, Note_on_c, 1, 62, 100
3, 70638, Note_on_c, 1, 62, 0
3, 70638, Note_on_c, 1, 50, 0
3, 70680, Note_on_c, 1, 52, 100
3, 70680, Note_on_c, 1, 64, 100
3, 70698, Note_on_c, 1, 64, 0
3, 70698, Note_on_c, 1, 52, 0
3, 70740, Note_on_c, 1, 52, 100
3, 70740, Note_on_c, 1, 64, 100
3, 70758, Note_on_c, 1, 64, 0
3, 70758, Note_on_c, 1, 52, 0
3, 70800, Note_on_c, 1, 52, 100
3, 70800, Note_on_c, 1, 64, 100
3, 70818, Note_on_c, 1, 64, 0
3, 70818, Note_on_c, 1, 52, 0
3, 70860, Note_on_c, 1, 50, 100
3, 70860, Note_on_c, 1, 62, 100
3, 70878, Note_on_c, 1, 62, 0
3, 70878, Note_on_c, 1, 50, 0
3, 70920, Note_on_c, 1, 52, 100
3, 70920, Note_on_c, 1, 64, 100
3, 70938, Note_on_c, 1, 64, 0
3, 70938, Note_on_c, 1, 52, 0
3, 70980, Note_on_c, 1, 52, 100
3, 70980, Note_on_c, 1, 64, 100
3, 70998, Note_on_c, 1, 64, 0
3, 70998, Note_on_c, 1, 52, 0
3, 71040, Note_on_c, 1, 52, 100
3, 71040, Note_on_c, 1, 64, 100
3, 71058, Note_on_c, 1, 64, 0
3, 71058, Note_on_c, 1, 52, 0
3, 71100, Note_on_c, 1, 52, 100
3, 71100, Note_on_c, 1, 64, 100
3, 71118, Note_on_c, 1, 64, 0
3, 71118, Note_on_c, 1, 52, 0
3, 71160, Note_on_c, 1, 52, 100
3, 71160, Note_on_c, 1, 64, 100
3, 71178, Note_on_c, 1, 64, 0
3, 71178, Note_on_c, 1, 52, 0
3, 71220, Note_on_c, 1, 52, 100
3, 71220, Note_on_c, 1, 64, 100
3, 71238, Note_on_c, 1, 64, 0
3, 71238, Note_on_c, 1, 52, 0
3, 71280, Note_on_c, 1, 52, 100
3, 71280, Note_on_c, 1, 64, 100
3, 71298, Note_on_c, 1, 64, 0
3, 71298, Note_on_c, 1, 52, 0
3, 71340, Note_on_c, 1, 52, 100
3, 71340, Note_on_c, 1, 64, 100
3, 71358, Note_on_c, 1, 64, 0
3, 71358, Note_on_c, 1, 52, 0
3, 71400, Note_on_c, 1, 50, 100
3, 71400, Note_on_c, 1, 62, 100
3, 71418, Note_on_c, 1, 62, 0
3, 71418, Note_on_c, 1, 50, 0
3, 71460, Note_on_c, 1, 52, 100
3, 71460, Note_on_c, 1, 64, 100
3, 71478, Note_on_c, 1, 64, 0
3, 71478, Note_on_c, 1, 52, 0
3, 71520, Note_on_c, 1, 52, 100
3, 71520, Note_on_c, 1, 64, 100
3, 71538, Note_on_c, 1, 64, 0
3, 71538, Note_on_c, 1, 52, 0
3, 71580, Note_on_c, 1, 52, 100
3, 71580, Note_on_c, 1, 64, 100
3, 71598, Note_on_c, 1, 64, 0
3, 71598, Note_on_c, 1, 52, 0
3, 71640, Note_on_c, 1, 52, 100
3, 71640, Note_on_c, 1, 64, 100
3, 71658, Note_on_c, 1, 64, 0
3, 71658, Note_on_c, 1, 52, 0
3, 71700, Note_on_c, 1, 52, 100
3, 71700, Note_on_c, 1, 64, 100
3, 71718, Note_on_c, 1, 64, 0
3, 71718, Note_on_c, 1, 52, 0
3, 71760, Note_on_c, 1, 52, 100
3, 71760, Note_on_c, 1, 64, 100
3, 71778, Note_on_c, 1, 64, 0
3, 71778, Note_on_c, 1, 52, 0
3, 71820, Note_on_c, 1, 52, 100
3, 71820, Note_on_c, 1, 64, 100
3, 71838, Note_on_c, 1, 64, 0
3, 71838, Note_on_c, 1, 52, 0
3, 71880, Note_on_c, 1, 52, 100
3, 71880, Note_on_c, 1, 64, 100
3, 71898, Note_on_c, 1, 64, 0
3, 71898, Note_on_c, 1, 52, 0
3, 71940, Note_on_c, 1, 52, 100
3, 71940, Note_on_c, 1, 64, 100
3, 71958, Note_on_c, 1, 64, 0
3, 71958, Note_on_c, 1, 52, 0
3, 72000, Note_on_c, 1, 52, 100
3, 72000, Note_on_c, 1, 64, 100
3, 72018, Note_on_c, 1, 64, 0
3, 72018, Note_on_c, 1, 52, 0
3, 72060, Note_on_c, 1, 50, 100
3, 72060, Note_on_c, 1, 62, 100
3, 72078, Note_on_c, 1, 62, 0
3, 72078, Note_on_c, 1, 50, 0
3, 72120, Note_on_c, 1, 52, 100
3, 72120, Note_on_c, 1, 64, 100
3, 72138, Note_on_c, 1, 64, 0
3, 72138, Note_on_c, 1, 52, 0
3, 72180, Note_on_c, 1, 52, 100
3, 72180, Note_on_c, 1, 64, 100
3, 72198, Note_on_c, 1, 64, 0
3, 72198, Note_on_c, 1, 52, 0
3, 72240, Note_on_c, 1, 52, 100
3, 72240, Note_on_c, 1, 64, 100
3, 72258, Note_on_c, 1, 64, 0
3, 72258, Note_on_c, 1, 52, 0
3, 72300, Note_on_c, 1, 50, 100
3, 72300, Note_on_c, 1, 62, 100
3, 72318, Note_on_c, 1, 62, 0
3, 72318, Note_on_c, 1, 50, 0
3, 72360, Note_on_c, 1, 52, 100
3, 72360, Note_on_c, 1, 64, 100
3, 72378, Note_on_c, 1, 64, 0
3, 72378, Note_on_c, 1, 52, 0
3, 72420, Note_on_c, 1, 52, 100
3, 72420, Note_on_c, 1, 64, 100
3, 72438, Note_on_c, 1, 64, 0
3, 72438, Note_on_c, 1, 52, 0
3, 72480, Note_on_c, 1, 52, 100
3, 72480, Note_on_c, 1, 64, 100
3, 72498, Note_on_c, 1, 64, 0
3, 72498, Note_on_c, 1, 52, 0
3, 72540, Note_on_c, 1, 52, 100
3, 72540, Note_on_c, 1, 64, 100
3, 72558, Note_on_c, 1, 64, 0
3, 72558, Note_on_c, 1, 52, 0
3, 72600, Note_on_c, 1, 52, 100
3, 72600, Note_on_c, 1, 64, 100
3, 72618, Note_on_c, 1, 64, 0
3, 72618, Note_on_c, 1, 52, 0
3, 72660, Note_on_c, 1, 52, 100
3, 72660, Note_on_c, 1, 64, 100
3, 72678, Note_on_c, 1, 64, 0
3, 72678, Note_on_c, 1, 52, 0
3, 72720, Note_on_c, 1, 52, 100
3, 72720, Note_on_c, 1, 64, 100
3, 72738, Note_on_c, 1, 64, 0
3, 72738, Note_on_c, 1, 52, 0
3, 72780, Note_on_c, 1, 52, 100
3, 72780, Note_on_c, 1, 64, 100
3, 72798, Note_on_c, 1, 64, 0
3, 72798, Note_on_c, 1, 52, 0
3, 72840, Note_on_c, 1, 62, 100
3, 72840, Note_on_c, 1, 50, 100
3, 72858, Note_on_c, 1, 50, 0
3, 72858, Note_on_c, 1, 62, 0
3, 72900, Note_on_c, 1, 64, 100
3, 72900, Note_on_c, 1, 52, 100
3, 72918, Note_on_c, 1, 52, 0
3, 72918, Note_on_c, 1, 64, 0
3, 72960, Note_on_c, 1, 64, 100
3, 72960, Note_on_c, 1, 52, 100
3, 72978, Note_on_c, 1, 52, 0
3, 72978, Note_on_c, 1, 64, 0
3, 73020, Note_on_c, 1, 64, 100
3, 73020, Note_on_c, 1, 52, 100
3, 73038, Note_on_c, 1, 52, 0
3, 73038, Note_on_c, 1, 64, 0
3, 73080, Note_on_c, 1, 64, 100
3, 73080, Note_on_c, 1, 52, 100
3, 73098, Note_on_c, 1, 52, 0
3, 73098, Note_on_c, 1, 64, 0
3, 73140, Note_on_c, 1, 64, 100
3, 73140, Note_on_c, 1, 52, 100
3, 73158, Note_on_c, 1, 52, 0
3, 73158, Note_on_c, 1, 64, 0
3, 73200, Note_on_c, 1, 64, 100
3, 73200, Note_on_c, 1, 52, 100
3, 73218, Note_on_c, 1, 52, 0
3, 73218, Note_on_c, 1, 64, 0
3, 73260, Note_on_c, 1, 64, 100
3, 73260, Note_on_c, 1, 52, 100
3, 73278, Note_on_c, 1, 52, 0
3, 73278, Note_on_c, 1, 64, 0
3, 73320, Note_on_c, 1, 64, 100
3, 73320, Note_on_c, 1, 52, 100
3, 73338, Note_on_c, 1, 52, 0
3, 73338, Note_on_c, 1, 64, 0
3, 73380, Note_on_c, 1, 64, 100
3, 73380, Note_on_c, 1, 52, 100
3, 73398, Note_on_c, 1, 52, 0
3, 73398, Note_on_c, 1, 64, 0
3, 73440, Note_on_c, 1, 64, 100
3, 73440, Note_on_c, 1, 52, 100
3, 73458, Note_on_c, 1, 52, 0
3, 73458, Note_on_c, 1, 64, 0
3, 73500, Note_on_c, 1, 62, 100
3, 73500, Note_on_c, 1, 50, 100
3, 73518, Note_on_c, 1, 50, 0
3, 73518, Note_on_c, 1, 62, 0
3, 73560, Note_on_c, 1, 64, 100
3, 73560, Note_on_c, 1, 52, 100
3, 73578, Note_on_c, 1, 52, 0
3, 73578, Note_on_c, 1, 64, 0
3, 73620, Note_on_c, 1, 64, 100
3, 73620, Note_on_c, 1, 52, 100
3, 73638, Note_on_c, 1, 52, 0
3, 73638, Note_on_c, 1, 64, 0
3, 73680, Note_on_c, 1, 64, 100
3, 73680, Note_on_c, 1, 52, 100
3, 73698, Note_on_c, 1, 52, 0
3, 73698, Note_on_c, 1, 64, 0
3, 73740, Note_on_c, 1, 62, 100
3, 73740, Note_on_c, 1, 50, 100
3, 73758, Note_on_c, 1, 50, 0
3, 73758, Note_on_c, 1, 62, 0
3, 73800, Note_on_c, 1, 64, 100
3, 73800, Note_on_c, 1, 52, 100
3, 73818, Note_on_c, 1, 52, 0
3, 73818, Note_on_c, 1, 64, 0
3, 73860, Note_on_c, 1, 64, 100
3, 73860, Note_on_c, 1, 52, 100
3, 73878, Note_on_c, 1, 52, 0
3, 73878, Note_on_c, 1, 64, 0
3, 73920, Note_on_c, 1, 64, 100
3, 73920, Note_on_c, 1, 52, 100
3, 73938, Note_on_c, 1, 52, 0
3, 73938, Note_on_c, 1, 64, 0
3, 73980, Note_on_c, 1, 64, 100
3, 73980, Note_on_c, 1, 52, 100
3, 73998, Note_on_c, 1, 52, 0
3, 73998, Note_on_c, 1, 64, 0
3, 74040, Note_on_c, 1, 64, 100
3, 74040, Note_on_c, 1, 52, 100
3, 74058, Note_on_c, 1, 52, 0
3, 74058, Note_on_c, 1, 64, 0
3, 74100, Note_on_c, 1, 64, 100
3, 74100, Note_on_c, 1, 52, 100
3, 74118, Note_on_c, 1, 52, 0
3, 74118, Note_on_c, 1, 64, 0
3, 74160, Note_on_c, 1, 64, 100
3, 74160, Note_on_c, 1, 52, 100
3, 74178, Note_on_c, 1, 52, 0
3, 74178, Note_on_c, 1, 64, 0
3, 74220, Note_on_c, 1, 64, 100
3, 74220, Note_on_c, 1, 52, 100
3, 74238, Note_on_c, 1, 52, 0
3, 74238, Note_on_c, 1, 64, 0
3, 74280, Note_on_c, 1, 50, 100
3, 74280, Note_on_c, 1, 62, 100
3, 74298, Note_on_c, 1, 62, 0
3, 74298, Note_on_c, 1, 50, 0
3, 74340, Note_on_c, 1, 52, 100
3, 74340, Note_on_c, 1, 64, 100
3, 74358, Note_on_c, 1, 64, 0
3, 74358, Note_on_c, 1, 52, 0
3, 74400, Note_on_c, 1, 52, 100
3, 74400, Note_on_c, 1, 64, 100
3, 74418, Note_on_c, 1, 64, 0
3, 74418, Note_on_c, 1, 52, 0
3, 74460, Note_on_c, 1, 52, 100
3, 74460, Note_on_c, 1, 64, 100
3, 74478, Note_on_c, 1, 64, 0
3, 74478, Note_on_c, 1, 52, 0
3, 74520, Note_on_c, 1, 52, 100
3, 74520, Note_on_c, 1, 64, 100
3, 74538, Note_on_c, 1, 64, 0
3, 74538, Note_on_c, 1, 52, 0
3, 74580, Note_on_c, 1, 52, 100
3, 74580, Note_on_c, 1, 64, 100
3, 74598, Note_on_c, 1, 64, 0
3, 74598, Note_on_c, 1, 52, 0
3, 74640, Note_on_c, 1, 52, 100
3, 74640, Note_on_c, 1, 64, 100
3, 74658, Note_on_c, 1, 64, 0
3, 74658, Note_on_c, 1, 52, 0
3, 74700, Note_on_c, 1, 52, 100
3, 74700, Note_on_c, 1, 64, 100
3, 74718, Note_on_c, 1, 64, 0
3, 74718, Note_on_c, 1, 52, 0
3, 74760, Note_on_c, 1, 52, 100
3, 74760, Note_on_c, 1, 64, 100
3, 74778, Note_on_c, 1, 64, 0
3, 74778, Note_on_c, 1, 52, 0
3, 74820, Note_on_c, 1, 52, 100
3, 74820, Note_on_c, 1, 64, 100
3, 74838, Note_on_c, 1, 64, 0
3, 74838, Note_on_c, 1, 52, 0
3, 74880, Note_on_c, 1, 52, 100
3, 74880, Note_on_c, 1, 64, 100
3, 74898, Note_on_c, 1, 64, 0
3, 74898, Note_on_c, 1, 52, 0
3, 74940, Note_on_c, 1, 50, 100
3, 74940, Note_on_c, 1, 62, 100
3, 74958, Note_on_c, 1, 62, 0
3, 74958, Note_on_c, 1, 50, 0
3, 75000, Note_on_c, 1, 52, 100
3, 75000, Note_on_c, 1, 64, 100
3, 75018, Note_on_c, 1, 64, 0
3, 75018, Note_on_c, 1, 52, 0
3, 75060, Note_on_c, 1, 52, 100
3, 75060, Note_on_c, 1, 64, 100
3, 75078, Note_on_c, 1, 64, 0
3, 75078, Note_on_c, 1, 52, 0
3, 75120, Note_on_c, 1, 52, 100
3, 75120, Note_on_c, 1, 64, 100
3, 75138, Note_on_c, 1, 64, 0
3, 75138, Note_on_c, 1, 52, 0
3, 75180, Note_on_c, 1, 50, 100
3, 75180, Note_on_c, 1, 62, 100
3, 75198, Note_on_c, 1, 62, 0
3, 75198, Note_on_c, 1, 50, 0
3, 75240, Note_on_c, 1, 52, 100
3, 75240, Note_on_c, 1, 64, 100
3, 75258, Note_on_c, 1, 64, 0
3, 75258, Note_on_c, 1, 52, 0
3, 75300, Note_on_c, 1, 52, 100
3, 75300, Note_on_c, 1, 64, 100
3, 75318, Note_on_c, 1, 64, 0
3, 75318, Note_on_c, 1, 52, 0
3, 75360, Note_on_c, 1, 52, 100
3, 75360, Note_on_c, 1, 64, 100
3, 75378, Note_on_c, 1, 64, 0
3, 75378, Note_on_c, 1, 52, 0
3, 75420, Note_on_c, 1, 52, 100
3, 75420, Note_on_c, 1, 64, 100
3, 75438, Note_on_c, 1, 64, 0
3, 75438, Note_on_c, 1, 52, 0
3, 75480, Note_on_c, 1, 52, 100
3, 75480, Note_on_c, 1, 64, 100
3, 75498, Note_on_c, 1, 64, 0
3, 75498, Note_on_c, 1, 52, 0
3, 75540, Note_on_c, 1, 52, 100
3, 75540, Note_on_c, 1, 64, 100
3, 75558, Note_on_c, 1, 64, 0
3, 75558, Note_on_c, 1, 52, 0
3, 75600, Note_on_c, 1, 52, 100
3, 75600, Note_on_c, 1, 64, 100
3, 75618, Note_on_c, 1, 64, 0
3, 75618, Note_on_c, 1, 52, 0
3, 75660, Note_on_c, 1, 52, 100
3, 75660, Note_on_c, 1, 64, 100
3, 75678, Note_on_c, 1, 64, 0
3, 75678, Note_on_c, 1, 52, 0
3, 75720, Note_on_c, 1, 62, 100
3, 75720, Note_on_c, 1, 50, 100
3, 75738, Note_on_c, 1, 50, 0
3, 75738, Note_on_c, 1, 62, 0
3, 75780, Note_on_c, 1, 64, 100
3, 75780, Note_on_c, 1, 52, 100
3, 75798, Note_on_c, 1, 52, 0
3, 75798, Note_on_c, 1, 64, 0
3, 75840, Note_on_c, 1, 64, 100
3, 75840, Note_on_c, 1, 52, 100
3, 75858, Note_on_c, 1, 52, 0
3, 75858, Note_on_c, 1, 64, 0
3, 75900, Note_on_c, 1, 64, 100
3, 75900, Note_on_c, 1, 52, 100
3, 75918, Note_on_c, 1, 52, 0
3, 75918, Note_on_c, 1, 64, 0
3, 75960, Note_on_c, 1, 64, 100
3, 75960, Note_on_c, 1, 52, 100
3, 75978, Note_on_c, 1, 52, 0
3, 75978, Note_on_c, 1, 64, 0
3, 76020, Note_on_c, 1, 64, 100
3, 76020, Note_on_c, 1, 52, 100
3, 76038, Note_on_c, 1, 52, 0
3, 76038, Note_on_c, 1, 64, 0
3, 76080, Note_on_c, 1, 64, 100
3, 76080, Note_on_c, 1, 52, 100
3, 76098, Note_on_c, 1, 52, 0
3, 76098, Note_on_c, 1, 64, 0
3, 76140, Note_on_c, 1, 64, 100
3, 76140, Note_on_c, 1, 52, 100
3, 76158, Note_on_c, 1, 52, 0
3, 76158, Note_on_c, 1, 64, 0
3, 76200, Note_on_c, 1, 64, 100
3, 76200, Note_on_c, 1, 52, 100
3, 76218, Note_on_c, 1, 52, 0
3, 76218, Note_on_c, 1, 64, 0
3, 76260, Note_on_c, 1, 64, 100
3, 76260, Note_on_c, 1, 52, 100
3, 76278, Note_on_c, 1, 52, 0
3, 76278, Note_on_c, 1, 64, 0
3, 76320, Note_on_c, 1, 64, 100
3, 76320, Note_on_c, 1, 52, 100
3, 76338, Note_on_c, 1, 52, 0
3, 76338, Note_on_c, 1, 64, 0
3, 76380, Note_on_c, 1, 62, 100
3, 76380, Note_on_c, 1, 50, 100
3, 76398, Note_on_c, 1, 50, 0
3, 76398, Note_on_c, 1, 62, 0
3, 76440, Note_on_c, 1, 64, 100
3, 76440, Note_on_c, 1, 52, 100
3, 76458, Note_on_c, 1, 52, 0
3, 76458, Note_on_c, 1, 64, 0
3, 76500, Note_on_c, 1, 64, 100
3, 76500, Note_on_c, 1, 52, 100
3, 76518, Note_on_c, 1, 52, 0
3, 76518, Note_on_c, 1, 64, 0
3, 76560, Note_on_c, 1, 64, 100
3, 76560, Note_on_c, 1, 52, 100
3, 76578, Note_on_c, 1, 52, 0
3, 76578, Note_on_c, 1, 64, 0
3, 76620, Note_on_c, 1, 62, 100
3, 76620, Note_on_c, 1, 50, 100
3, 76638, Note_on_c, 1, 50, 0
3, 76638, Note_on_c, 1, 62, 0
3, 76680, Note_on_c, 1, 64, 100
3, 76680, Note_on_c, 1, 52, 100
3, 76698, Note_on_c, 1, 52, 0
3, 76698, Note_on_c, 1, 64, 0
3, 76740, Note_on_c, 1, 64, 100
3, 76740, Note_on_c, 1, 52, 100
3, 76758, Note_on_c, 1, 52, 0
3, 76758, Note_on_c, 1, 64, 0
3, 76800, Note_on_c, 1, 64, 100
3, 76800, Note_on_c, 1, 52, 100
3, 76818, Note_on_c, 1, 52, 0
3, 76818, Note_on_c, 1, 64, 0
3, 76860, Note_on_c, 1, 64, 100
3, 76860, Note_on_c, 1, 52, 100
3, 76878, Note_on_c, 1, 52, 0
3, 76878, Note_on_c, 1, 64, 0
3, 76920, Note_on_c, 1, 64, 100
3, 76920, Note_on_c, 1, 52, 100
3, 76938, Note_on_c, 1, 52, 0
3, 76938, Note_on_c, 1, 64, 0
3, 76980, Note_on_c, 1, 64, 100
3, 76980, Note_on_c, 1, 52, 100
3, 76998, Note_on_c, 1, 52, 0
3, 76998, Note_on_c, 1, 64, 0
3, 77040, Note_on_c, 1, 64, 100
3, 77040, Note_on_c, 1, 52, 100
3, 77058, Note_on_c, 1, 52, 0
3, 77058, Note_on_c, 1, 64, 0
3, 77100, Note_on_c, 1, 64, 100
3, 77100, Note_on_c, 1, 52, 100
3, 77118, Note_on_c, 1, 52, 0
3, 77118, Note_on_c, 1, 64, 0
3, 77160, Note_on_c, 1, 50, 100
3, 77160, Note_on_c, 1, 62, 100
3, 77178, Note_on_c, 1, 62, 0
3, 77178, Note_on_c, 1, 50, 0
3, 77220, Note_on_c, 1, 52, 100
3, 77220, Note_on_c, 1, 64, 100
3, 77238, Note_on_c, 1, 64, 0
3, 77238, Note_on_c, 1, 52, 0
3, 77280, Note_on_c, 1, 52, 100
3, 77280, Note_on_c, 1, 64, 100
3, 77298, Note_on_c, 1, 64, 0
3, 77298, Note_on_c, 1, 52, 0
3, 77340, Note_on_c, 1, 52, 100
3, 77340, Note_on_c, 1, 64, 100
3, 77358, Note_on_c, 1, 64, 0
3, 77358, Note_on_c, 1, 52, 0
3, 77400, Note_on_c, 1, 52, 100
3, 77400, Note_on_c, 1, 64, 100
3, 77418, Note_on_c, 1, 64, 0
3, 77418, Note_on_c, 1, 52, 0
3, 77460, Note_on_c, 1, 52, 100
3, 77460, Note_on_c, 1, 64, 100
3, 77478, Note_on_c, 1, 64, 0
3, 77478, Note_on_c, 1, 52, 0
3, 77520, Note_on_c, 1, 52, 100
3, 77520, Note_on_c, 1, 64, 100
3, 77538, Note_on_c, 1, 64, 0
3, 77538, Note_on_c, 1, 52, 0
3, 77580, Note_on_c, 1, 52, 100
3, 77580, Note_on_c, 1, 64, 100
3, 77598, Note_on_c, 1, 64, 0
3, 77598, Note_on_c, 1, 52, 0
3, 77640, Note_on_c, 1, 52, 100
3, 77640, Note_on_c, 1, 64, 100
3, 77658, Note_on_c, 1, 64, 0
3, 77658, Note_on_c, 1, 52, 0
3, 77700, Note_on_c, 1, 52, 100
3, 77700, Note_on_c, 1, 64, 100
3, 77718, Note_on_c, 1, 64, 0
3, 77718, Note_on_c, 1, 52, 0
3, 77760, Note_on_c, 1, 52, 100
3, 77760, Note_on_c, 1, 64, 100
3, 77778, Note_on_c, 1, 64, 0
3, 77778, Note_on_c, 1, 52, 0
3, 77820, Note_on_c, 1, 50, 100
3, 77820, Note_on_c, 1, 62, 100
3, 77838, Note_on_c, 1, 62, 0
3, 77838, Note_on_c, 1, 50, 0
3, 77880, Note_on_c, 1, 52, 100
3, 77880, Note_on_c, 1, 64, 100
3, 77898, Note_on_c, 1, 64, 0
3, 77898, Note_on_c, 1, 52, 0
3, 77940, Note_on_c, 1, 52, 100
3, 77940, Note_on_c, 1, 64, 100
3, 77958, Note_on_c, 1, 64, 0
3, 77958, Note_on_c, 1, 52, 0
3, 78000, Note_on_c, 1, 52, 100
3, 78000, Note_on_c, 1, 64, 100
3, 78018, Note_on_c, 1, 64, 0
3, 78018, Note_on_c, 1, 52, 0
3, 78060, Note_on_c, 1, 50, 100
3, 78060, Note_on_c, 1, 62, 100
3, 78078, Note_on_c, 1, 62, 0
3, 78078, Note_on_c, 1, 50, 0
3, 78120, Note_on_c, 1, 52, 100
3, 78120, Note_on_c, 1, 64, 100
3, 78138, Note_on_c, 1, 64, 0
3, 78138, Note_on_c, 1, 52, 0
3, 78180, Note_on_c, 1, 52, 100
3, 78180, Note_on_c, 1, 64, 100
3, 78198, Note_on_c, 1, 64, 0
3, 78198, Note_on_c, 1, 52, 0
3, 78240, Note_on_c, 1, 52, 100
3, 78240, Note_on_c, 1, 64, 100
3, 78258, Note_on_c, 1, 64, 0
3, 78258, Note_on_c, 1, 52, 0
3, 78300, Note_on_c, 1, 52, 100
3, 78300, Note_on_c, 1, 64, 100
3, 78318, Note_on_c, 1, 64, 0
3, 78318, Note_on_c, 1, 52, 0
3, 78360, Note_on_c, 1, 52, 100
3, 78360, Note_on_c, 1, 64, 100
3, 78378, Note_on_c, 1, 64, 0
3, 78378, Note_on_c, 1, 52, 0
3, 78420, Note_on_c, 1, 52, 100
3, 78420, Note_on_c, 1, 64, 100
3, 78438, Note_on_c, 1, 64, 0
3, 78438, Note_on_c, 1, 52, 0
3, 78480, Note_on_c, 1, 52, 100
3, 78480, Note_on_c, 1, 64, 100
3, 78498, Note_on_c, 1, 64, 0
3, 78498, Note_on_c, 1, 52, 0
3, 78540, Note_on_c, 1, 52, 100
3, 78540, Note_on_c, 1, 64, 100
3, 78558, Note_on_c, 1, 64, 0
3, 78558, Note_on_c, 1, 52, 0
3, 78600, Note_on_c, 1, 50, 100
3, 78600, Note_on_c, 1, 62, 100
3, 78618, Note_on_c, 1, 62, 0
3, 78618, Note_on_c, 1, 50, 0
3, 78660, Note_on_c, 1, 52, 100
3, 78660, Note_on_c, 1, 64, 100
3, 78678, Note_on_c, 1, 64, 0
3, 78678, Note_on_c, 1, 52, 0
3, 78720, Note_on_c, 1, 52, 100
3, 78720, Note_on_c, 1, 64, 100
3, 78738, Note_on_c, 1, 64, 0
3, 78738, Note_on_c, 1, 52, 0
3, 78780, Note_on_c, 1, 52, 100
3, 78780, Note_on_c, 1, 64, 100
3, 78798, Note_on_c, 1, 64, 0
3, 78798, Note_on_c, 1, 52, 0
3, 78840, Note_on_c, 1, 52, 100
3, 78840, Note_on_c, 1, 64, 100
3, 78858, Note_on_c, 1, 64, 0
3, 78858, Note_on_c, 1, 52, 0
3, 78900, Note_on_c, 1, 52, 100
3, 78900, Note_on_c, 1, 64, 100
3, 78918, Note_on_c, 1, 64, 0
3, 78918, Note_on_c, 1, 52, 0
3, 78960, Note_on_c, 1, 52, 100
3, 78960, Note_on_c, 1, 64, 100
3, 78978, Note_on_c, 1, 64, 0
3, 78978, Note_on_c, 1, 52, 0
3, 79020, Note_on_c, 1, 52, 100
3, 79020, Note_on_c, 1, 64, 100
3, 79038, Note_on_c, 1, 64, 0
3, 79038, Note_on_c, 1, 52, 0
3, 79080, Note_on_c, 1, 52, 100
3, 79080, Note_on_c, 1, 64, 100
3, 79098, Note_on_c, 1, 64, 0
3, 79098, Note_on_c, 1, 52, 0
3, 79140, Note_on_c, 1, 52, 100
3, 79140, Note_on_c, 1, 64, 100
3, 79158, Note_on_c, 1, 64, 0
3, 79158, Note_on_c, 1, 52, 0
3, 79200, Note_on_c, 1, 52, 100
3, 79200, Note_on_c, 1, 64, 100
3, 79218, Note_on_c, 1, 64, 0
3, 79218, Note_on_c, 1, 52, 0
3, 79260, Note_on_c, 1, 50, 100
3, 79260, Note_on_c, 1, 62, 100
3, 79278, Note_on_c, 1, 62, 0
3, 79278, Note_on_c, 1, 50, 0
3, 79320, Note_on_c, 1, 52, 100
3, 79320, Note_on_c, 1, 64, 100
3, 79338, Note_on_c, 1, 64, 0
3, 79338, Note_on_c, 1, 52, 0
3, 79380, Note_on_c, 1, 52, 100
3, 79380, Note_on_c, 1, 64, 100
3, 79398, Note_on_c, 1, 64, 0
3, 79398, Note_on_c, 1, 52, 0
3, 79440, Note_on_c, 1, 52, 100
3, 79440, Note_on_c, 1, 64, 100
3, 79458, Note_on_c, 1, 64, 0
3, 79458, Note_on_c, 1, 52, 0
3, 79500, Note_on_c, 1, 50, 100
3, 79500, Note_on_c, 1, 62, 100
3, 79518, Note_on_c, 1, 62, 0
3, 79518, Note_on_c, 1, 50, 0
3, 79560, Note_on_c, 1, 52, 100
3, 79560, Note_on_c, 1, 64, 100
3, 79578, Note_on_c, 1, 64, 0
3, 79578, Note_on_c, 1, 52, 0
3, 79620, Note_on_c, 1, 52, 100
3, 79620, Note_on_c, 1, 64, 100
3, 79638, Note_on_c, 1, 64, 0
3, 79638, Note_on_c, 1, 52, 0
3, 79680, Note_on_c, 1, 52, 100
3, 79680, Note_on_c, 1, 64, 100
3, 79698, Note_on_c, 1, 64, 0
3, 79698, Note_on_c, 1, 52, 0
3, 79740, Note_on_c, 1, 52, 100
3, 79740, Note_on_c, 1, 64, 100
3, 79758, Note_on_c, 1, 64, 0
3, 79758, Note_on_c, 1, 52, 0
3, 79800, Note_on_c, 1, 52, 100
3, 79800, Note_on_c, 1, 64, 100
3, 79818, Note_on_c, 1, 64, 0
3, 79818, Note_on_c, 1, 52, 0
3, 79860, Note_on_c, 1, 52, 100
3, 79860, Note_on_c, 1, 64, 100
3, 79878, Note_on_c, 1, 64, 0
3, 79878, Note_on_c, 1, 52, 0
3, 79920, Note_on_c, 1, 52, 100
3, 79920, Note_on_c, 1, 64, 100
3, 79938, Note_on_c, 1, 64, 0
3, 79938, Note_on_c, 1, 52, 0
3, 79980, Note_on_c, 1, 52, 100
3, 79980, Note_on_c, 1, 64, 100
3, 79998, Note_on_c, 1, 64, 0
3, 79998, Note_on_c, 1, 52, 0
3, 80040, Note_on_c, 1, 62, 100
3, 80040, Note_on_c, 1, 50, 100
3, 80058, Note_on_c, 1, 50, 0
3, 80058, Note_on_c, 1, 62, 0
3, 80100, Note_on_c, 1, 64, 100
3, 80100, Note_on_c, 1, 52, 100
3, 80118, Note_on_c, 1, 52, 0
3, 80118, Note_on_c, 1, 64, 0
3, 80160, Note_on_c, 1, 64, 100
3, 80160, Note_on_c, 1, 52, 100
3, 80178, Note_on_c, 1, 52, 0
3, 80178, Note_on_c, 1, 64, 0
3, 80220, Note_on_c, 1, 64, 100
3, 80220, Note_on_c, 1, 52, 100
3, 80238, Note_on_c, 1, 52, 0
3, 80238, Note_on_c, 1, 64, 0
3, 80280, Note_on_c, 1, 64, 100
3, 80280, Note_on_c, 1, 52, 100
3, 80298, Note_on_c, 1, 52, 0
3, 80298, Note_on_c, 1, 64, 0
3, 80340, Note_on_c, 1, 64, 100
3, 80340, Note_on_c, 1, 52, 100
3, 80358, Note_on_c, 1, 52, 0
3, 80358, Note_on_c, 1, 64, 0
3, 80400, Note_on_c, 1, 64, 100
3, 80400, Note_on_c, 1, 52, 100
3, 80418, Note_on_c, 1, 52, 0
3, 80418, Note_on_c, 1, 64, 0
3, 80460, Note_on_c, 1, 64, 100
3, 80460, Note_on_c, 1, 52, 100
3, 80478, Note_on_c, 1, 52, 0
3, 80478, Note_on_c, 1, 64, 0
3, 80520, Note_on_c, 1, 64, 100
3, 80520, Note_on_c, 1, 52, 100
3, 80538, Note_on_c, 1, 52, 0
3, 80538, Note_on_c, 1, 64, 0
3, 80580, Note_on_c, 1, 64, 100
3, 80580, Note_on_c, 1, 52, 100
3, 80598, Note_on_c, 1, 52, 0
3, 80598, Note_on_c, 1, 64, 0
3, 80640, Note_on_c, 1, 64, 100
3, 80640, Note_on_c, 1, 52, 100
3, 80658, Note_on_c, 1, 52, 0
3, 80658, Note_on_c, 1, 64, 0
3, 80700, Note_on_c, 1, 62, 100
3, 80700, Note_on_c, 1, 50, 100
3, 80718, Note_on_c, 1, 50, 0
3, 80718, Note_on_c, 1, 62, 0
3, 80760, Note_on_c, 1, 64, 100
3, 80760, Note_on_c, 1, 52, 100
3, 80778, Note_on_c, 1, 52, 0
3, 80778, Note_on_c, 1, 64, 0
3, 80820, Note_on_c, 1, 64, 100
3, 80820, Note_on_c, 1, 52, 100
3, 80838, Note_on_c, 1, 52, 0
3, 80838, Note_on_c, 1, 64, 0
3, 80880, Note_on_c, 1, 64, 100
3, 80880, Note_on_c, 1, 52, 100
3, 80898, Note_on_c, 1, 52, 0
3, 80898, Note_on_c, 1, 64, 0
3, 80940, Note_on_c, 1, 62, 100
3, 80940, Note_on_c, 1, 50, 100
3, 80958, Note_on_c, 1, 50, 0
3, 80958, Note_on_c, 1, 62, 0
3, 81000, Note_on_c, 1, 64, 100
3, 81000, Note_on_c, 1, 52, 100
3, 81018, Note_on_c, 1, 52, 0
3, 81018, Note_on_c, 1, 64, 0
3, 81060, Note_on_c, 1, 64, 100
3, 81060, Note_on_c, 1, 52, 100
3, 81078, Note_on_c, 1, 52, 0
3, 81078, Note_on_c, 1, 64, 0
3, 81120, Note_on_c, 1, 64, 100
3, 81120, Note_on_c, 1, 52, 100
3, 81138, Note_on_c, 1, 52, 0
3, 81138, Note_on_c, 1, 64, 0
3, 81180, Note_on_c, 1, 64, 100
3, 81180, Note_on_c, 1, 52, 100
3, 81198, Note_on_c, 1, 52, 0
3, 81198, Note_on_c, 1, 64, 0
3, 81240, Note_on_c, 1, 64, 100
3, 81240, Note_on_c, 1, 52, 100
3, 81258, Note_on_c, 1, 52, 0
3, 81258, Note_on_c, 1, 64, 0
3, 81300, Note_on_c, 1, 64, 100
3, 81300, Note_on_c, 1, 52, 100
3, 81318, Note_on_c, 1, 52, 0
3, 81318, Note_on_c, 1, 64, 0
3, 81360, Note_on_c, 1, 64, 100
3, 81360, Note_on_c, 1, 52, 100
3, 81378, Note_on_c, 1, 52, 0
3, 81378, Note_on_c, 1, 64, 0
3, 81420, Note_on_c, 1, 64, 100
3, 81420, Note_on_c, 1, 52, 100
3, 81438, Note_on_c, 1, 52, 0
3, 81438, Note_on_c, 1, 64, 0
3, 81480, Note_on_c, 1, 62, 100
3, 81480, Note_on_c, 1, 50, 100
3, 81498, Note_on_c, 1, 50, 0
3, 81498, Note_on_c, 1, 62, 0
3, 81540, Note_on_c, 1, 64, 100
3, 81540, Note_on_c, 1, 52, 100
3, 81558, Note_on_c, 1, 52, 0
3, 81558, Note_on_c, 1, 64, 0
3, 81600, Note_on_c, 1, 64, 100
3, 81600, Note_on_c, 1, 52, 100
3, 81618, Note_on_c, 1, 52, 0
3, 81618, Note_on_c, 1, 64, 0
3, 81660, Note_on_c, 1, 64, 100
3, 81660, Note_on_c, 1, 52, 100
3, 81678, Note_on_c, 1, 52, 0
3, 81678, Note_on_c, 1, 64, 0
3, 81720, Note_on_c, 1, 64, 100
3, 81720, Note_on_c, 1, 52, 100
3, 81738, Note_on_c, 1, 52, 0
3, 81738, Note_on_c, 1, 64, 0
3, 81780, Note_on_c, 1, 64, 100
3, 81780, Note_on_c, 1, 52, 100
3, 81798, Note_on_c, 1, 52, 0
3, 81798, Note_on_c, 1, 64, 0
3, 81840, Note_on_c, 1, 64, 100
3, 81840, Note_on_c, 1, 52, 100
3, 81858, Note_on_c, 1, 52, 0
3, 81858, Note_on_c, 1, 64, 0
3, 81900, Note_on_c, 1, 64, 100
3, 81900, Note_on_c, 1, 52, 100
3, 81918, Note_on_c, 1, 52, 0
3, 81918, Note_on_c, 1, 64, 0
3, 81960, Note_on_c, 1, 64, 100
3, 81960, Note_on_c, 1, 52, 100
3, 81978, Note_on_c, 1, 52, 0
3, 81978, Note_on_c, 1, 64, 0
3, 82020, Note_on_c, 1, 64, 100
3, 82020, Note_on_c, 1, 52, 100
3, 82038, Note_on_c, 1, 52, 0
3, 82038, Note_on_c, 1, 64, 0
3, 82080, Note_on_c, 1, 64, 100
3, 82080, Note_on_c, 1, 52, 100
3, 82098, Note_on_c, 1, 52, 0
3, 82098, Note_on_c, 1, 64, 0
3, 82140, Note_on_c, 1, 62, 100
3, 82140, Note_on_c, 1, 50, 100
3, 82158, Note_on_c, 1, 50, 0
3, 82158, Note_on_c, 1, 62, 0
3, 82200, Note_on_c, 1, 64, 100
3, 82200, Note_on_c, 1, 52, 100
3, 82218, Note_on_c, 1, 52, 0
3, 82218, Note_on_c, 1, 64, 0
3, 82260, Note_on_c, 1, 64, 100
3, 82260, Note_on_c, 1, 52, 100
3, 82278, Note_on_c, 1, 52, 0
3, 82278, Note_on_c, 1, 64, 0
3, 82320, Note_on_c, 1, 64, 100
3, 82320, Note_on_c, 1, 52, 100
3, 82338, Note_on_c, 1, 52, 0
3, 82338, Note_on_c, 1, 64, 0
3, 82380, Note_on_c, 1, 62, 100
3, 82380, Note_on_c, 1, 50, 100
3, 82398, Note_on_c, 1, 50, 0
3, 82398, Note_on_c, 1, 62, 0
3, 82440, Note_on_c, 1, 64, 100
3, 82440, Note_on_c, 1, 52, 100
3, 82458, Note_on_c, 1, 52, 0
3, 82458, Note_on_c, 1, 64, 0
3, 82500, Note_on_c, 1, 64, 100
3, 82500, Note_on_c, 1, 52, 100
3, 82518, Note_on_c, 1, 52, 0
3, 82518, Note_on_c, 1, 64, 0
3, 82560, Note_on_c, 1, 64, 100
3, 82560, Note_on_c, 1, 52, 100
3, 82578, Note_on_c, 1, 52, 0
3, 82578, Note_on_c, 1, 64, 0
3, 82620, Note_on_c, 1, 64, 100
3, 82620, Note_on_c, 1, 52, 100
3, 82638, Note_on_c, 1, 52, 0
3, 82638, Note_on_c, 1, 64, 0
3, 82680, Note_on_c, 1, 64, 100
3, 82680, Note_on_c, 1, 52, 100
3, 82698, Note_on_c, 1, 52, 0
3, 82698, Note_on_c, 1, 64, 0
3, 82740, Note_on_c, 1, 64, 100
3, 82740, Note_on_c, 1, 52, 100
3, 82758, Note_on_c, 1, 52, 0
3, 82758, Note_on_c, 1, 64, 0
3, 82800, Note_on_c, 1, 64, 100
3, 82800, Note_on_c, 1, 52, 100
3, 82818, Note_on_c, 1, 52, 0
3, 82818, Note_on_c, 1, 64, 0
3, 82860, Note_on_c, 1, 64, 100
3, 82860, Note_on_c, 1, 52, 100
3, 82878, Note_on_c, 1, 52, 0
3, 82878, Note_on_c, 1, 64, 0
3, 82920, Note_on_c, 1, 50, 100
3, 82920, Note_on_c, 1, 62, 100
3, 82938, Note_on_c, 1, 62, 0
3, 82938, Note_on_c, 1, 50, 0
3, 82980, Note_on_c, 1, 52, 100
3, 82980, Note_on_c, 1, 64, 100
3, 82998, Note_on_c, 1, 64, 0
3, 82998, Note_on_c, 1, 52, 0
3, 83040, Note_on_c, 1, 52, 100
3, 83040, Note_on_c, 1, 64, 100
3, 83058, Note_on_c, 1, 64, 0
3, 83058, Note_on_c, 1, 52, 0
3, 83100, Note_on_c, 1, 52, 100
3, 83100, Note_on_c, 1, 64, 100
3, 83118, Note_on_c, 1, 64, 0
3, 83118, Note_on_c, 1, 52, 0
3, 83160, Note_on_c, 1, 52, 100
3, 83160, Note_on_c, 1, 64, 100
3, 83178, Note_on_c, 1, 64, 0
3, 83178, Note_on_c, 1, 52, 0
3, 83220, Note_on_c, 1, 52, 100
3, 83220, Note_on_c, 1, 64, 100
3, 83238, Note_on_c, 1, 64, 0
3, 83238, Note_on_c, 1, 52, 0
3, 83280, Note_on_c, 1, 52, 100
3, 83280, Note_on_c, 1, 64, 100
3, 83298, Note_on_c, 1, 64, 0
3, 83298, Note_on_c, 1, 52, 0
3, 83340, Note_on_c, 1, 52, 100
3, 83340, Note_on_c, 1, 64, 100
3, 83358, Note_on_c, 1, 64, 0
3, 83358, Note_on_c, 1, 52, 0
3, 83400, Note_on_c, 1, 52, 100
3, 83400, Note_on_c, 1, 64, 100
3, 83418, Note_on_c, 1, 64, 0
3, 83418, Note_on_c, 1, 52, 0
3, 83460, Note_on_c, 1, 52, 100
3, 83460, Note_on_c, 1, 64, 100
3, 83478, Note_on_c, 1, 64, 0
3, 83478, Note_on_c, 1, 52, 0
3, 83520, Note_on_c, 1, 52, 100
3, 83520, Note_on_c, 1, 64, 100
3, 83538, Note_on_c, 1, 64, 0
3, 83538, Note_on_c, 1, 52, 0
3, 83580, Note_on_c, 1, 50, 100
3, 83580, Note_on_c, 1, 62, 100
3, 83598, Note_on_c, 1, 62, 0
3, 83598, Note_on_c, 1, 50, 0
3, 83640, Note_on_c, 1, 52, 100
3, 83640, Note_on_c, 1, 64, 100
3, 83658, Note_on_c, 1, 64, 0
3, 83658, Note_on_c, 1, 52, 0
3, 83700, Note_on_c, 1, 52, 100
3, 83700, Note_on_c, 1, 64, 100
3, 83718, Note_on_c, 1, 64, 0
3, 83718, Note_on_c, 1, 52, 0
3, 83760, Note_on_c, 1, 52, 100
3, 83760, Note_on_c, 1, 64, 100
3, 83778, Note_on_c, 1, 64, 0
3, 83778, Note_on_c, 1, 52, 0
3, 83820, Note_on_c, 1, 50, 100
3, 83820, Note_on_c, 1, 62, 100
3, 83838, Note_on_c, 1, 62, 0
3, 83838, Note_on_c, 1, 50, 0
3, 83880, Note_on_c, 1, 52, 100
3, 83880, Note_on_c, 1, 64, 100
3, 83898, Note_on_c, 1, 64, 0
3, 83898, Note_on_c, 1, 52, 0
3, 83940, Note_on_c, 1, 52, 100
3, 83940, Note_on_c, 1, 64, 100
3, 83958, Note_on_c, 1, 64, 0
3, 83958, Note_on_c, 1, 52, 0
3, 84000, Note_on_c, 1, 52, 100
3, 84000, Note_on_c, 1, 64, 100
3, 84018, Note_on_c, 1, 64, 0
3, 84018, Note_on_c, 1, 52, 0
3, 84060, Note_on_c, 1, 52, 100
3, 84060, Note_on_c, 1, 64, 100
3, 84078, Note_on_c, 1, 64, 0
3, 84078, Note_on_c, 1, 52, 0
3, 84120, Note_on_c, 1, 52, 100
3, 84120, Note_on_c, 1, 64, 100
3, 84138, Note_on_c, 1, 64, 0
3, 84138, Note_on_c, 1, 52, 0
3, 84180, Note_on_c, 1, 52, 100
3, 84180, Note_on_c, 1, 64, 100
3, 84198, Note_on_c, 1, 64, 0
3, 84198, Note_on_c, 1, 52, 0
3, 84240, Note_on_c, 1, 52, 100
3, 84240, Note_on_c, 1, 64, 100
3, 84258, Note_on_c, 1, 64, 0
3, 84258, Note_on_c, 1, 52, 0
3, 84300, Note_on_c, 1, 52, 100
3, 84300, Note_on_c, 1, 64, 100
3, 84318, Note_on_c, 1, 64, 0
3, 84318, Note_on_c, 1, 52, 0
3, 84360, Note_on_c, 1, 62, 100
3, 84360, Note_on_c, 1, 50, 100
3, 84378, Note_on_c, 1, 50, 0
3, 84378, Note_on_c, 1, 62, 0
3, 84420, Note_on_c, 1, 64, 100
3, 84420, Note_on_c, 1, 52, 100
3, 84438, Note_on_c, 1, 52, 0
3, 84438, Note_on_c, 1, 64, 0
3, 84480, Note_on_c, 1, 64, 100
3, 84480, Note_on_c, 1, 52, 100
3, 84498, Note_on_c, 1, 52, 0
3, 84498, Note_on_c, 1, 64, 0
3, 84540, Note_on_c, 1, 64, 100
3, 84540, Note_on_c, 1, 52, 100
3, 84558, Note_on_c, 1, 52, 0
3, 84558, Note_on_c, 1, 64, 0
3, 84600, Note_on_c, 1, 64, 100
3, 84600, Note_on_c, 1, 52, 100
3, 84618, Note_on_c, 1, 52, 0
3, 84618, Note_on_c, 1, 64, 0
3, 84660, Note_on_c, 1, 64, 100
3, 84660, Note_on_c, 1, 52, 100
3, 84678, Note_on_c, 1, 52, 0
3, 84678, Note_on_c, 1, 64, 0
3, 84720, Note_on_c, 1, 64, 100
3, 84720, Note_on_c, 1, 52, 100
3, 84738, Note_on_c, 1, 52, 0
3, 84738, Note_on_c, 1, 64, 0
3, 84780, Note_on_c, 1, 64, 100
3, 84780, Note_on_c, 1, 52, 100
3, 84798, Note_on_c, 1, 52, 0
3, 84798, Note_on_c, 1, 64, 0
3, 84840, Note_on_c, 1, 64, 100
3, 84840, Note_on_c, 1, 52, 100
3, 84858, Note_on_c, 1, 52, 0
3, 84858, Note_on_c, 1, 64, 0
3, 84900, Note_on_c, 1, 64, 100
3, 84900, Note_on_c, 1, 52, 100
3, 84918, Note_on_c, 1, 52, 0
3, 84918, Note_on_c, 1, 64, 0
3, 84960, Note_on_c, 1, 64, 100
3, 84960, Note_on_c, 1, 52, 100
3, 84978, Note_on_c, 1, 52, 0
3, 84978, Note_on_c, 1, 64, 0
3, 85020, Note_on_c, 1, 62, 100
3, 85020, Note_on_c, 1, 50, 100
3, 85038, Note_on_c, 1, 50, 0
3, 85038, Note_on_c, 1, 62, 0
3, 85080, Note_on_c, 1, 64, 100
3, 85080, Note_on_c, 1, 52, 100
3, 85098, Note_on_c, 1, 52, 0
3, 85098, Note_on_c, 1, 64, 0
3, 85140, Note_on_c, 1, 64, 100
3, 85140, Note_on_c, 1, 52, 100
3, 85158, Note_on_c, 1, 52, 0
3, 85158, Note_on_c, 1, 64, 0
3, 85200, Note_on_c, 1, 64, 100
3, 85200, Note_on_c, 1, 52, 100
3, 85218, Note_on_c, 1, 52, 0
3, 85218, Note_on_c, 1, 64, 0
3, 85260, Note_on_c, 1, 62, 100
3, 85260, Note_on_c, 1, 50, 100
3, 85278, Note_on_c, 1, 50, 0
3, 85278, Note_on_c, 1, 62, 0
3, 85320, Note_on_c, 1, 64, 100
3, 85320, Note_on_c, 1, 52, 100
3, 85338, Note_on_c, 1, 52, 0
3, 85338, Note_on_c, 1, 64, 0
3, 85380, Note_on_c, 1, 64, 100
3, 85380, Note_on_c, 1, 52, 100
3, 85398, Note_on_c, 1, 52, 0
3, 85398, Note_on_c, 1, 64, 0
3, 85440, Note_on_c, 1, 64, 100
3, 85440, Note_on_c, 1, 52, 100
3, 85458, Note_on_c, 1, 52, 0
3, 85458, Note_on_c, 1, 64, 0
3, 85500, Note_on_c, 1, 64, 100
3, 85500, Note_on_c, 1, 52, 100
3, 85518, Note_on_c, 1, 52, 0
3, 85518, Note_on_c, 1, 64, 0
3, 85560, Note_on_c, 1, 64, 100
3, 85560, Note_on_c, 1, 52, 100
3, 85578, Note_on_c, 1, 52, 0
3, 85578, Note_on_c, 1, 64, 0
3, 85620, Note_on_c, 1, 64, 100
3, 85620, Note_on_c, 1, 52, 100
3, 85638, Note_on_c, 1, 52, 0
3, 85638, Note_on_c, 1, 64, 0
3, 85680, Note_on_c, 1, 64, 100
3, 85680, Note_on_c, 1, 52, 100
3, 85698, Note_on_c, 1, 52, 0
3, 85698, Note_on_c, 1, 64, 0
3, 85740, Note_on_c, 1, 64, 100
3, 85740, Note_on_c, 1, 52, 100
3, 85758, Note_on_c, 1, 52, 0
3, 85758, Note_on_c, 1, 64, 0
3, 85800, Note_on_c, 1, 50, 100
3, 85800, Note_on_c, 1, 62, 100
3, 85818, Note_on_c, 1, 62, 0
3, 85818, Note_on_c, 1, 50, 0
3, 85860, Note_on_c, 1, 52, 100
3, 85860, Note_on_c, 1, 64, 100
3, 85878, Note_on_c, 1, 64, 0
3, 85878, Note_on_c, 1, 52, 0
3, 85920, Note_on_c, 1, 52, 100
3, 85920, Note_on_c, 1, 64, 100
3, 85938, Note_on_c, 1, 64, 0
3, 85938, Note_on_c, 1, 52, 0
3, 85980, Note_on_c, 1, 52, 100
3, 85980, Note_on_c, 1, 64, 100
3, 85998, Note_on_c, 1, 64, 0
3, 85998, Note_on_c, 1, 52, 0
3, 86040, Note_on_c, 1, 52, 100
3, 86040, Note_on_c, 1, 64, 100
3, 86058, Note_on_c, 1, 64, 0
3, 86058, Note_on_c, 1, 52, 0
3, 86100, Note_on_c, 1, 52, 100
3, 86100, Note_on_c, 1, 64, 100
3, 86118, Note_on_c, 1, 64, 0
3, 86118, Note_on_c, 1, 52, 0
3, 86160, Note_on_c, 1, 52, 100
3, 86160, Note_on_c, 1, 64, 100
3, 86178, Note_on_c, 1, 64, 0
3, 86178, Note_on_c, 1, 52, 0
3, 86220, Note_on_c, 1, 52, 100
3, 86220, Note_on_c, 1, 64, 100
3, 86238, Note_on_c, 1, 64, 0
3, 86238, Note_on_c, 1, 52, 0
3, 86280, Note_on_c, 1, 52, 100
3, 86280, Note_on_c, 1, 64, 100
3, 86298, Note_on_c, 1, 64, 0
3, 86298, Note_on_c, 1, 52, 0
3, 86340, Note_on_c, 1, 52, 100
3, 86340, Note_on_c, 1, 64, 100
3, 86358, Note_on_c, 1, 64, 0
3, 86358, Note_on_c, 1, 52, 0
3, 86400, Note_on_c, 1, 52, 100
3, 86400, Note_on_c, 1, 64, 100
3, 86418, Note_on_c, 1, 64, 0
3, 86418, Note_on_c, 1, 52, 0
3, 86460, Note_on_c, 1, 50, 100
3, 86460, Note_on_c, 1, 62, 100
3, 86478, Note_on_c, 1, 62, 0
3, 86478, Note_on_c, 1, 50, 0
3, 86520, Note_on_c, 1, 52, 100
3, 86520, Note_on_c, 1, 64, 100
3, 86538, Note_on_c, 1, 64, 0
3, 86538, Note_on_c, 1, 52, 0
3, 86580, Note_on_c, 1, 52, 100
3, 86580, Note_on_c, 1, 64, 100
3, 86598, Note_on_c, 1, 64, 0
3, 86598, Note_on_c, 1, 52, 0
3, 86640, Note_on_c, 1, 52, 100
3, 86640, Note_on_c, 1, 64, 100
3, 86658, Note_on_c, 1, 64, 0
3, 86658, Note_on_c, 1, 52, 0
3, 86700, Note_on_c, 1, 50, 100
3, 86700, Note_on_c, 1, 62, 100
3, 86718, Note_on_c, 1, 62, 0
3, 86718, Note_on_c, 1, 50, 0
3, 86760, Note_on_c, 1, 52, 100
3, 86760, Note_on_c, 1, 64, 100
3, 86778, Note_on_c, 1, 64, 0
3, 86778, Note_on_c, 1, 52, 0
3, 86820, Note_on_c, 1, 52, 100
3, 86820, Note_on_c, 1, 64, 100
3, 86838, Note_on_c, 1, 64, 0
3, 86838, Note_on_c, 1, 52, 0
3, 86880, Note_on_c, 1, 52, 100
3, 86880, Note_on_c, 1, 64, 100
3, 86898, Note_on_c, 1, 64, 0
3, 86898, Note_on_c, 1, 52, 0
3, 86940, Note_on_c, 1, 52, 100
3, 86940, Note_on_c, 1, 64, 100
3, 86958, Note_on_c, 1, 64, 0
3, 86958, Note_on_c, 1, 52, 0
3, 87000, Note_on_c, 1, 52, 100
3, 87000, Note_on_c, 1, 64, 100
3, 87018, Note_on_c, 1, 64, 0
3, 87018, Note_on_c, 1, 52, 0
3, 87060, Note_on_c, 1, 52, 100
3, 87060, Note_on_c, 1, 64, 100
3, 87078, Note_on_c, 1, 64, 0
3, 87078, Note_on_c, 1, 52, 0
3, 87120, Note_on_c, 1, 52, 100
3, 87120, Note_on_c, 1, 64, 100
3, 87138, Note_on_c, 1, 64, 0
3, 87138, Note_on_c, 1, 52, 0
3, 87180, Note_on_c, 1, 52, 100
3, 87180, Note_on_c, 1, 64, 100
3, 87198, Note_on_c, 1, 64, 0
3, 87198, Note_on_c, 1, 52, 0
3, 87240, Note_on_c, 1, 62, 100
3, 87240, Note_on_c, 1, 50, 100
3, 87258, Note_on_c, 1, 50, 0
3, 87258, Note_on_c, 1, 62, 0
3, 87300, Note_on_c, 1, 64, 100
3, 87300, Note_on_c, 1, 52, 100
3, 87318, Note_on_c, 1, 52, 0
3, 87318, Note_on_c, 1, 64, 0
3, 87360, Note_on_c, 1, 64, 100
3, 87360, Note_on_c, 1, 52, 100
3, 87378, Note_on_c, 1, 52, 0
3, 87378, Note_on_c, 1, 64, 0
3, 87420, Note_on_c, 1, 64, 100
3, 87420, Note_on_c, 1, 52, 100
3, 87438, Note_on_c, 1, 52, 0
3, 87438, Note_on_c, 1, 64, 0
3, 87480, Note_on_c, 1, 64, 100
3, 87480, Note_on_c, 1, 52, 100
3, 87498, Note_on_c, 1, 52, 0
3, 87498, Note_on_c, 1, 64, 0
3, 87540, Note_on_c, 1, 64, 100
3, 87540, Note_on_c, 1, 52, 100
3, 87558, Note_on_c, 1, 52, 0
3, 87558, Note_on_c, 1, 64, 0
3, 87600, Note_on_c, 1, 64, 100
3, 87600, Note_on_c, 1, 52, 100
3, 87618, Note_on_c, 1, 52, 0
3, 87618, Note_on_c, 1, 64, 0
3, 87660, Note_on_c, 1, 64, 100
3, 87660, Note_on_c, 1, 52, 100
3, 87678, Note_on_c, 1, 52, 0
3, 87678, Note_on_c, 1, 64, 0
3, 87720, Note_on_c, 1, 64, 100
3, 87720, Note_on_c, 1, 52, 100
3, 87738, Note_on_c, 1, 52, 0
3, 87738, Note_on_c, 1, 64, 0
3, 87780, Note_on_c, 1, 64, 100
3, 87780, Note_on_c, 1, 52, 100
3, 87798, Note_on_c, 1, 52, 0
3, 87798, Note_on_c, 1, 64, 0
3, 87840, Note_on_c, 1, 64, 100
3, 87840, Note_on_c, 1, 52, 100
3, 87858, Note_on_c, 1, 52, 0
3, 87858, Note_on_c, 1, 64, 0
3, 87900, Note_on_c, 1, 62, 100
3, 87900, Note_on_c, 1, 50, 100
3, 87918, Note_on_c, 1, 50, 0
3, 87918, Note_on_c, 1, 62, 0
3, 87960, Note_on_c, 1, 64, 100
3, 87960, Note_on_c, 1, 52, 100
3, 87978, Note_on_c, 1, 52, 0
3, 87978, Note_on_c, 1, 64, 0
3, 88020, Note_on_c, 1, 64, 100
3, 88020, Note_on_c, 1, 52, 100
3, 88038, Note_on_c, 1, 52, 0
3, 88038, Note_on_c, 1, 64, 0
3, 88080, Note_on_c, 1, 64, 100
3, 88080, Note_on_c, 1, 52, 100
3, 88098, Note_on_c, 1, 52, 0
3, 88098, Note_on_c, 1, 64, 0
3, 88140, Note_on_c, 1, 62, 100
3, 88140, Note_on_c, 1, 50, 100
3, 88158, Note_on_c, 1, 50, 0
3, 88158, Note_on_c, 1, 62, 0
3, 88200, Note_on_c, 1, 64, 100
3, 88200, Note_on_c, 1, 52, 100
3, 88218, Note_on_c, 1, 52, 0
3, 88218, Note_on_c, 1, 64, 0
3, 88260, Note_on_c, 1, 64, 100
3, 88260, Note_on_c, 1, 52, 100
3, 88278, Note_on_c, 1, 52, 0
3, 88278, Note_on_c, 1, 64, 0
3, 88320, Note_on_c, 1, 64, 100
3, 88320, Note_on_c, 1, 52, 100
3, 88338, Note_on_c, 1, 52, 0
3, 88338, Note_on_c, 1, 64, 0
3, 88380, Note_on_c, 1, 64, 100
3, 88380, Note_on_c, 1, 52, 100
3, 88398, Note_on_c, 1, 52, 0
3, 88398, Note_on_c, 1, 64, 0
3, 88440, Note_on_c, 1, 64, 100
3, 88440, Note_on_c, 1, 52, 100
3, 88458, Note_on_c, 1, 52, 0
3, 88458, Note_on_c, 1, 64, 0
3, 88500, Note_on_c, 1, 64, 100
3, 88500, Note_on_c, 1, 52, 100
3, 88518, Note_on_c, 1, 52, 0
3, 88518, Note_on_c, 1, 64, 0
3, 88560, Note_on_c, 1, 64, 100
3, 88560, Note_on_c, 1, 52, 100
3, 88578, Note_on_c, 1, 52, 0
3, 88578, Note_on_c, 1, 64, 0
3, 88620, Note_on_c, 1, 64, 100
3, 88620, Note_on_c, 1, 52, 100
3, 88638, Note_on_c, 1, 52, 0
3, 88638, Note_on_c, 1, 64, 0
3, 88670, Control_c, 1, 11, 127
3, 88680, Note_on_c, 1, 52, 100
3, 88680, Note_on_c, 1, 64, 100
3, 88698, Note_on_c, 1, 64, 0
3, 88698, Note_on_c, 1, 52, 0
3, 88700, Control_c, 1, 11, 126
3, 88720, Control_c, 1, 11, 125
3, 88740, Control_c, 1, 11, 124
3, 88740, Note_on_c, 1, 52, 100
3, 88740, Note_on_c, 1, 64, 100
3, 88758, Note_on_c, 1, 64, 0
3, 88758, Note_on_c, 1, 52, 0
3, 88770, Control_c, 1, 11, 123
3, 88790, Control_c, 1, 11, 122
3, 88800, Note_on_c, 1, 52, 100
3, 88800, Note_on_c, 1, 64, 100
3, 88810, Control_c, 1, 11, 121
3, 88818, Note_on_c, 1, 64, 0
3, 88818, Note_on_c, 1, 52, 0
3, 88830, Control_c, 1, 11, 120
3, 88860, Control_c, 1, 11, 119
3, 88860, Note_on_c, 1, 52, 100
3, 88860, Note_on_c, 1, 64, 100
3, 88878, Note_on_c, 1, 64, 0
3, 88878, Note_on_c, 1, 52, 0
3, 88880, Control_c, 1, 11, 118
3, 88900, Control_c, 1, 11, 117
3, 88920, Control_c, 1, 11, 116
3, 88920, Note_on_c, 1, 52, 100
3, 88920, Note_on_c, 1, 64, 100
3, 88938, Note_on_c, 1, 64, 0
3, 88938, Note_on_c, 1, 52, 0
3, 88950, Control_c, 1, 11, 115
3, 88970, Control_c, 1, 11, 114
3, 88980, Note_on_c, 1, 52, 100
3, 88980, Note_on_c, 1, 64, 100
3, 88990, Control_c, 1, 11, 113
3, 88998, Note_on_c, 1, 64, 0
3, 88998, Note_on_c, 1, 52, 0
3, 89020, Control_c, 1, 11, 112
3, 89040, Control_c, 1, 11, 111
3, 89040, Note_on_c, 1, 52, 100
3, 89040, Note_on_c, 1, 64, 100
3, 89058, Note_on_c, 1, 64, 0
3, 89058, Note_on_c, 1, 52, 0
3, 89060, Control_c, 1, 11, 110
3, 89080, Control_c, 1, 11, 109
3, 89100, Note_on_c, 1, 64, 100
3, 89100, Note_on_c, 1, 52, 100
3, 89110, Control_c, 1, 11, 108
3, 89118, Note_on_c, 1, 52, 0
3, 89118, Note_on_c, 1, 64, 0
3, 89130, Control_c, 1, 11, 107
3, 89150, Control_c, 1, 11, 106
3, 89160, Note_on_c, 1, 64, 100
3, 89160, Note_on_c, 1, 52, 100
3, 89170, Control_c, 1, 11, 105
3, 89178, Note_on_c, 1, 52, 0
3, 89178, Note_on_c, 1, 64, 0
3, 89200, Control_c, 1, 11, 104
3, 89220, Control_c, 1, 11, 103
3, 89220, Note_on_c, 1, 64, 100
3, 89220, Note_on_c, 1, 52, 100
3, 89238, Note_on_c, 1, 52, 0
3, 89238, Note_on_c, 1, 64, 0
3, 89240, Control_c, 1, 11, 102
3, 89260, Control_c, 1, 11, 101
3, 89280, Note_on_c, 1, 64, 100
3, 89280, Note_on_c, 1, 52, 100
3, 89290, Control_c, 1, 11, 100
3, 89298, Note_on_c, 1, 52, 0
3, 89298, Note_on_c, 1, 64, 0
3, 89310, Control_c, 1, 11, 99
3, 89330, Control_c, 1, 11, 98
3, 89340, Note_on_c, 1, 64, 100
3, 89340, Note_on_c, 1, 52, 100
3, 89358, Note_on_c, 1, 52, 0
3, 89358, Note_on_c, 1, 64, 0
3, 89360, Control_c, 1, 11, 97
3, 89380, Control_c, 1, 11, 96
3, 89400, Control_c, 1, 11, 95
3, 89400, Note_on_c, 1, 64, 100
3, 89400, Note_on_c, 1, 52, 100
3, 89418, Note_on_c, 1, 52, 0
3, 89418, Note_on_c, 1, 64, 0
3, 89420, Control_c, 1, 11, 94
3, 89450, Control_c, 1, 11, 93
3, 89460, Note_on_c, 1, 64, 100
3, 89460, Note_on_c, 1, 52, 100
3, 89470, Control_c, 1, 11, 92
3, 89478, Note_on_c, 1, 52, 0
3, 89478, Note_on_c, 1, 64, 0
3, 89490, Control_c, 1, 11, 91
3, 89510, Control_c, 1, 11, 90
3, 89520, Note_on_c, 1, 64, 100
3, 89520, Note_on_c, 1, 52, 100
3, 89538, Note_on_c, 1, 52, 0
3, 89538, Note_on_c, 1, 64, 0
3, 89540, Control_c, 1, 11, 89
3, 89560, Control_c, 1, 11, 88
3, 89580, Control_c, 1, 11, 87
3, 89580, Note_on_c, 1, 64, 100
3, 89580, Note_on_c, 1, 52, 100
3, 89598, Note_on_c, 1, 52, 0
3, 89598, Note_on_c, 1, 64, 0
3, 89600, Control_c, 1, 11, 86
3, 89630, Control_c, 1, 11, 85
3, 89640, Note_on_c, 1, 52, 100
3, 89640, Note_on_c, 1, 64, 100
3, 89650, Control_c, 1, 11, 84
3, 89658, Note_on_c, 1, 64, 0
3, 89658, Note_on_c, 1, 52, 0
3, 89670, Control_c, 1, 11, 83
3, 89700, Control_c, 1, 11, 82
3, 89700, Note_on_c, 1, 52, 100
3, 89700, Note_on_c, 1, 64, 100
3, 89718, Note_on_c, 1, 64, 0
3, 89718, Note_on_c, 1, 52, 0
3, 89720, Control_c, 1, 11, 81
3, 89740, Control_c, 1, 11, 80
3, 89760, Control_c, 1, 11, 79
3, 89760, Note_on_c, 1, 52, 100
3, 89760, Note_on_c, 1, 64, 100
3, 89778, Note_on_c, 1, 64, 0
3, 89778, Note_on_c, 1, 52, 0
3, 89790, Control_c, 1, 11, 78
3, 89810, Control_c, 1, 11, 77
3, 89820, Note_on_c, 1, 52, 100
3, 89820, Note_on_c, 1, 64, 100
3, 89830, Control_c, 1, 11, 76
3, 89838, Note_on_c, 1, 64, 0
3, 89838, Note_on_c, 1, 52, 0
3, 89850, Control_c, 1, 11, 75
3, 89880, Control_c, 1, 11, 74
3, 89880, Note_on_c, 1, 52, 100
3, 89880, Note_on_c, 1, 64, 100
3, 89898, Note_on_c, 1, 64, 0
3, 89898, Note_on_c, 1, 52, 0
3, 89900, Control_c, 1, 11, 73
3, 89920, Control_c, 1, 11, 72
3, 89940, Control_c, 1, 11, 71
3, 89940, Note_on_c, 1, 52, 100
3, 89940, Note_on_c, 1, 64, 100
3, 89958, Note_on_c, 1, 64, 0
3, 89958, Note_on_c, 1, 52, 0
3, 89970, Control_c, 1, 11, 70
3, 89990, Control_c, 1, 11, 69
3, 90000, Note_on_c, 1, 52, 100
3, 90000, Note_on_c, 1, 64, 100
3, 90010, Control_c, 1, 11, 68
3, 90018, Note_on_c, 1, 64, 0
3, 90018, Note_on_c, 1, 52, 0
3, 90040, Control_c, 1, 11, 67
3, 90060, Control_c, 1, 11, 66
3, 90060, Note_on_c, 1, 64, 100
3, 90060, Note_on_c, 1, 52, 100
3, 90078, Note_on_c, 1, 52, 0
3, 90078, Note_on_c, 1, 64, 0
3, 90080, Control_c, 1, 11, 65
3, 90100, Control_c, 1, 11, 64
3, 90120, Note_on_c, 1, 52, 100
3, 90120, Note_on_c, 1, 64, 100
3, 90130, Control_c, 1, 11, 63
3, 90138, Note_on_c, 1, 64, 0
3, 90138, Note_on_c, 1, 52, 0
3, 90150, Control_c, 1, 11, 62
3, 90170, Control_c, 1, 11, 61
3, 90180, Note_on_c, 1, 52, 100
3, 90180, Note_on_c, 1, 64, 100
3, 90190, Control_c, 1, 11, 60
3, 90198, Note_on_c, 1, 64, 0
3, 90198, Note_on_c, 1, 52, 0
3, 90220, Control_c, 1, 11, 59
3, 90240, Control_c, 1, 11, 58
3, 90240, Note_on_c, 1, 52, 100
3, 90240, Note_on_c, 1, 64, 100
3, 90258, Note_on_c, 1, 64, 0
3, 90258, Note_on_c, 1, 52, 0
3, 90260, Control_c, 1, 11, 57
3, 90290, Control_c, 1, 11, 56
3, 90300, Note_on_c, 1, 52, 100
3, 90300, Note_on_c, 1, 64, 100
3, 90310, Control_c, 1, 11, 55
3, 90318, Note_on_c, 1, 64, 0
3, 90318, Note_on_c, 1, 52, 0
3, 90330, Control_c, 1, 11, 54
3, 90350, Control_c, 1, 11, 53
3, 90360, Note_on_c, 1, 52, 100
3, 90360, Note_on_c, 1, 64, 100
3, 90378, Note_on_c, 1, 64, 0
3, 90378, Note_on_c, 1, 52, 0
3, 90380, Control_c, 1, 11, 52
3, 90400, Control_c, 1, 11, 51
3, 90420, Control_c, 1, 11, 50
3, 90420, Note_on_c, 1, 52, 100
3, 90420, Note_on_c, 1, 64, 100
3, 90438, Note_on_c, 1, 64, 0
3, 90438, Note_on_c, 1, 52, 0
3, 90440, Control_c, 1, 11, 49
3, 90470, Control_c, 1, 11, 48
3, 90480, Note_on_c, 1, 52, 100
3, 90480, Note_on_c, 1, 64, 100
3, 90490, Control_c, 1, 11, 47
3, 90498, Note_on_c, 1, 64, 0
3, 90498, Note_on_c, 1, 52, 0
3, 90510, Control_c, 1, 11, 46
3, 90530, Control_c, 1, 11, 45
3, 90540, Note_on_c, 1, 64, 100
3, 90540, Note_on_c, 1, 52, 100
3, 90558, Note_on_c, 1, 52, 0
3, 90558, Note_on_c, 1, 64, 0
3, 90560, Control_c, 1, 11, 44
3, 90580, Control_c, 1, 11, 43
3, 90600, Control_c, 1, 11, 42
3, 90600, Note_on_c, 1, 64, 100
3, 90600, Note_on_c, 1, 52, 100
3, 90618, Note_on_c, 1, 52, 0
3, 90618, Note_on_c, 1, 64, 0
3, 90630, Control_c, 1, 11, 41
3, 90650, Control_c, 1, 11, 40
3, 90660, Note_on_c, 1, 64, 100
3, 90660, Note_on_c, 1, 52, 100
3, 90670, Control_c, 1, 11, 39
3, 90678, Note_on_c, 1, 52, 0
3, 90678, Note_on_c, 1, 64, 0
3, 90690, Control_c, 1, 11, 38
3, 90720, Control_c, 1, 11, 37
3, 90720, Note_on_c, 1, 64, 100
3, 90720, Note_on_c, 1, 52, 100
3, 90738, Note_on_c, 1, 52, 0
3, 90738, Note_on_c, 1, 64, 0
3, 90740, Control_c, 1, 11, 36
3, 90760, Control_c, 1, 11, 35
3, 90780, Control_c, 1, 11, 34
3, 90780, Note_on_c, 1, 64, 100
3, 90780, Note_on_c, 1, 52, 100
3, 90798, Note_on_c, 1, 52, 0
3, 90798, Note_on_c, 1, 64, 0
3, 90810, Control_c, 1, 11, 33
3, 90830, Control_c, 1, 11, 32
3, 90840, Note_on_c, 1, 64, 100
3, 90840, Note_on_c, 1, 52, 100
3, 90850, Control_c, 1, 11, 31
3, 90858, Note_on_c, 1, 52, 0
3, 90858, Note_on_c, 1, 64, 0
3, 90870, Control_c, 1, 11, 30
3, 90900, Control_c, 1, 11, 29
3, 90900, Note_on_c, 1, 64, 100
3, 90900, Note_on_c, 1, 52, 100
3, 90918, Note_on_c, 1, 52, 0
3, 90918, Note_on_c, 1, 64, 0
3, 90920, Control_c, 1, 11, 28
3, 90940, Control_c, 1, 11, 27
3, 90960, Note_on_c, 1, 64, 100
3, 90960, Note_on_c, 1, 52, 100
3, 90970, Control_c, 1, 11, 26
3, 90978, Note_on_c, 1, 52, 0
3, 90978, Note_on_c, 1, 64, 0
3, 90990, Control_c, 1, 11, 25
3, 91010, Control_c, 1, 11, 24
3, 91020, Note_on_c, 1, 64, 100
3, 91020, Note_on_c, 1, 52, 100
3, 91030, Control_c, 1, 11, 23
3, 91038, Note_on_c, 1, 52, 0
3, 91038, Note_on_c, 1, 64, 0
3, 91060, Control_c, 1, 11, 22
3, 91080, Control_c, 1, 11, 21
3, 91080, Note_on_c, 1, 52, 100
3, 91080, Note_on_c, 1, 64, 100
3, 91098, Note_on_c, 1, 64, 0
3, 91098, Note_on_c, 1, 52, 0
3, 91100, Control_c, 1, 11, 20
3, 91120, Control_c, 1, 11, 19
3, 91140, Note_on_c, 1, 52, 100
3, 91140, Note_on_c, 1, 64, 100
3, 91150, Control_c, 1, 11, 18
3, 91158, Note_on_c, 1, 64, 0
3, 91158, Note_on_c, 1, 52, 0
3, 91170, Control_c, 1, 11, 17
3, 91190, Control_c, 1, 11, 16
3, 91200, Note_on_c, 1, 52, 100
3, 91200, Note_on_c, 1, 64, 100
3, 91210, Control_c, 1, 11, 15
3, 91218, Note_on_c, 1, 64, 0
3, 91218, Note_on_c, 1, 52, 0
3, 91240, Control_c, 1, 11, 14
3, 91260, Control_c, 1, 11, 13
3, 91260, Note_on_c, 1, 52, 100
3, 91260, Note_on_c, 1, 64, 100
3, 91278, Note_on_c, 1, 64, 0
3, 91278, Note_on_c, 1, 52, 0
3, 91280, Control_c, 1, 11, 12
3, 91310, Control_c, 1, 11, 11
3, 91320, Note_on_c, 1, 52, 100
3, 91320, Note_on_c, 1, 64, 100
3, 91330, Control_c, 1, 11, 10
3, 91338, Note_on_c, 1, 64, 0
3, 91338, Note_on_c, 1, 52, 0
3, 91350, Control_c, 1, 11, 9
3, 91370, Control_c, 1, 11, 8
3, 91380, Note_on_c, 1, 52, 100
3, 91380, Note_on_c, 1, 64, 100
3, 91398, Note_on_c, 1, 64, 0
3, 91398, Note_on_c, 1, 52, 0
3, 91400, Control_c, 1, 11, 7
3, 91420, Control_c, 1, 11, 6
3, 91440, Control_c, 1, 11, 5
3, 91440, Note_on_c, 1, 52, 100
3, 91440, Note_on_c, 1, 64, 100
3, 91458, Note_on_c, 1, 64, 0
3, 91458, Note_on_c, 1, 52, 0
3, 91460, Control_c, 1, 11, 4
3, 91490, Control_c, 1, 11, 3
3, 91500, Note_on_c, 1, 64, 100
3, 91500, Note_on_c, 1, 52, 100
3, 91510, Control_c, 1, 11, 2
3, 91518, Note_on_c, 1, 52, 0
3, 91518, Note_on_c, 1, 64, 0
3, 91530, Control_c, 1, 11, 1
3, 91550, Control_c, 1, 11, 0
3, 91550, End_track
4, 0, Start_track
4, 0, Title_t, "A3-Bright Str: "
4, 0, Control_c, 2, 0, 1
4, 0, Control_c, 2, 32, 3
4, 0, Program_c, 2, 48
4, 0, Control_c, 2, 7, 127
4, 0, Control_c, 2, 10, 96
4, 109, Control_c, 2, 91, 60
4, 110, Control_c, 2, 93, 10
4, 113, Control_c, 2, 99, 1
4, 113, Control_c, 2, 98, 99
4, 113, Control_c, 2, 6, 0
4, 113, Control_c, 2, 38, 0
4, 116, Control_c, 2, 99, 1
4, 116, Control_c, 2, 98, 102
4, 116, Control_c, 2, 6, 70
4, 116, Control_c, 2, 38, 0
4, 600, Control_c, 2, 99, 1
4, 600, Control_c, 2, 98, 102
4, 600, Control_c, 2, 6, 70
4, 600, Control_c, 2, 38, 127
4, 710, Control_c, 2, 99, 1
4, 710, Control_c, 2, 98, 102
4, 710, Control_c, 2, 6, 70
4, 710, Control_c, 2, 38, 127
4, 1080, Note_on_c, 2, 50, 127
4, 1080, Note_on_c, 2, 26, 127
4, 1080, Note_on_c, 2, 38, 127
4, 1104, Note_on_c, 2, 38, 0
4, 1104, Note_on_c, 2, 26, 0
4, 1104, Note_on_c, 2, 50, 0
4, 1740, Note_on_c, 2, 26, 127
4, 1740, Note_on_c, 2, 38, 127
4, 1740, Note_on_c, 2, 50, 127
4, 1764, Note_on_c, 2, 50, 0
4, 1764, Note_on_c, 2, 38, 0
4, 1764, Note_on_c, 2, 26, 0
4, 1980, Note_on_c, 2, 26, 127
4, 1980, Note_on_c, 2, 50, 127
4, 1980, Note_on_c, 2, 38, 127
4, 2004, Note_on_c, 2, 38, 0
4, 2004, Note_on_c, 2, 50, 0
4, 2004, Note_on_c, 2, 26, 0
4, 2520, Note_on_c, 2, 50, 127
4, 2520, Note_on_c, 2, 26, 127
4, 2520, Note_on_c, 2, 38, 127
4, 2544, Note_on_c, 2, 38, 0
4, 2544, Note_on_c, 2, 26, 0
4, 2544, Note_on_c, 2, 50, 0
4, 3180, Note_on_c, 2, 26, 127
4, 3180, Note_on_c, 2, 38, 127
4, 3180, Note_on_c, 2, 50, 127
4, 3204, Note_on_c, 2, 50, 0
4, 3204, Note_on_c, 2, 38, 0
4, 3204, Note_on_c, 2, 26, 0
4, 3420, Note_on_c, 2, 26, 127
4, 3420, Note_on_c, 2, 50, 127
4, 3420, Note_on_c, 2, 38, 127
4, 3444, Note_on_c, 2, 38, 0
4, 3444, Note_on_c, 2, 50, 0
4, 3444, Note_on_c, 2, 26, 0
4, 3960, Note_on_c, 2, 50, 127
4, 3960, Note_on_c, 2, 26, 127
4, 3960, Note_on_c, 2, 38, 127
4, 3984, Note_on_c, 2, 38, 0
4, 3984, Note_on_c, 2, 26, 0
4, 3984, Note_on_c, 2, 50, 0
4, 4620, Note_on_c, 2, 26, 127
4, 4620, Note_on_c, 2, 38, 127
4, 4620, Note_on_c, 2, 50, 127
4, 4644, Note_on_c, 2, 50, 0
4, 4644, Note_on_c, 2, 38, 0
4, 4644, Note_on_c, 2, 26, 0
4, 4860, Note_on_c, 2, 26, 127
4, 4860, Note_on_c, 2, 50, 127
4, 4860, Note_on_c, 2, 38, 127
4, 4884, Note_on_c, 2, 38, 0
4, 4884, Note_on_c, 2, 50, 0
4, 4884, Note_on_c, 2, 26, 0
4, 5400, Note_on_c, 2, 50, 127
4, 5400, Note_on_c, 2, 26, 127
4, 5400, Note_on_c, 2, 38, 127
4, 5424, Note_on_c, 2, 38, 0
4, 5424, Note_on_c, 2, 26, 0
4, 5424, Note_on_c, 2, 50, 0
4, 6060, Note_on_c, 2, 26, 127
4, 6060, Note_on_c, 2, 38, 127
4, 6060, Note_on_c, 2, 50, 127
4, 6084, Note_on_c, 2, 50, 0
4, 6084, Note_on_c, 2, 38, 0
4, 6084, Note_on_c, 2, 26, 0
4, 6300, Note_on_c, 2, 26, 127
4, 6300, Note_on_c, 2, 50, 127
4, 6300, Note_on_c, 2, 38, 127
4, 6324, Note_on_c, 2, 38, 0
4, 6324, Note_on_c, 2, 50, 0
4, 6324, Note_on_c, 2, 26, 0
4, 24720, Note_on_c, 2, 50, 127
4, 24720, Note_on_c, 2, 26, 127
4, 24720, Note_on_c, 2, 38, 127
4, 24744, Note_on_c, 2, 38, 0
4, 24744, Note_on_c, 2, 26, 0
4, 24744, Note_on_c, 2, 50, 0
4, 25380, Note_on_c, 2, 26, 127
4, 25380, Note_on_c, 2, 38, 127
4, 25380, Note_on_c, 2, 50, 127
4, 25404, Note_on_c, 2, 50, 0
4, 25404, Note_on_c, 2, 38, 0
4, 25404, Note_on_c, 2, 26, 0
4, 25620, Note_on_c, 2, 26, 127
4, 25620, Note_on_c, 2, 50, 127
4, 25620, Note_on_c, 2, 38, 127
4, 25644, Note_on_c, 2, 38, 0
4, 25644, Note_on_c, 2, 50, 0
4, 25644, Note_on_c, 2, 26, 0
4, 26160, Note_on_c, 2, 50, 127
4, 26160, Note_on_c, 2, 26, 127
4, 26160, Note_on_c, 2, 38, 127
4, 26184, Note_on_c, 2, 38, 0
4, 26184, Note_on_c, 2, 26, 0
4, 26184, Note_on_c, 2, 50, 0
4, 26820, Note_on_c, 2, 26, 127
4, 26820, Note_on_c, 2, 38, 127
4, 26820, Note_on_c, 2, 50, 127
4, 26844, Note_on_c, 2, 50, 0
4, 26844, Note_on_c, 2, 38, 0
4, 26844, Note_on_c, 2, 26, 0
4, 27060, Note_on_c, 2, 26, 127
4, 27060, Note_on_c, 2, 50, 127
4, 27060, Note_on_c, 2, 38, 127
4, 27084, Note_on_c, 2, 38, 0
4, 27084, Note_on_c, 2, 50, 0
4, 27084, Note_on_c, 2, 26, 0
4, 27600, Note_on_c, 2, 50, 127
4, 27600, Note_on_c, 2, 26, 127
4, 27600, Note_on_c, 2, 38, 127
4, 27624, Note_on_c, 2, 38, 0
4, 27624, Note_on_c, 2, 26, 0
4, 27624, Note_on_c, 2, 50, 0
4, 28260, Note_on_c, 2, 26, 127
4, 28260, Note_on_c, 2, 38, 127
4, 28260, Note_on_c, 2, 50, 127
4, 28284, Note_on_c, 2, 50, 0
4, 28284, Note_on_c, 2, 38, 0
4, 28284, Note_on_c, 2, 26, 0
4, 28500, Note_on_c, 2, 26, 127
4, 28500, Note_on_c, 2, 50, 127
4, 28500, Note_on_c, 2, 38, 127
4, 28524, Note_on_c, 2, 38, 0
4, 28524, Note_on_c, 2, 50, 0
4, 28524, Note_on_c, 2, 26, 0
4, 29040, Note_on_c, 2, 50, 127
4, 29040, Note_on_c, 2, 26, 127
4, 29040, Note_on_c, 2, 38, 127
4, 29064, Note_on_c, 2, 38, 0
4, 29064, Note_on_c, 2, 26, 0
4, 29064, Note_on_c, 2, 50, 0
4, 29700, Note_on_c, 2, 26, 127
4, 29700, Note_on_c, 2, 38, 127
4, 29700, Note_on_c, 2, 50, 127
4, 29724, Note_on_c, 2, 50, 0
4, 29724, Note_on_c, 2, 38, 0
4, 29724, Note_on_c, 2, 26, 0
4, 29940, Note_on_c, 2, 26, 127
4, 29940, Note_on_c, 2, 50, 127
4, 29940, Note_on_c, 2, 38, 127
4, 29964, Note_on_c, 2, 38, 0
4, 29964, Note_on_c, 2, 50, 0
4, 29964, Note_on_c, 2, 26, 0
4, 30480, Note_on_c, 2, 50, 127
4, 30480, Note_on_c, 2, 26, 127
4, 30480, Note_on_c, 2, 38, 127
4, 30504, Note_on_c, 2, 38, 0
4, 30504, Note_on_c, 2, 26, 0
4, 30504, Note_on_c, 2, 50, 0
4, 31140, Note_on_c, 2, 26, 127
4, 31140, Note_on_c, 2, 38, 127
4, 31140, Note_on_c, 2, 50, 127
4, 31164, Note_on_c, 2, 50, 0
4, 31164, Note_on_c, 2, 38, 0
4, 31164, Note_on_c, 2, 26, 0
4, 31380, Note_on_c, 2, 26, 127
4, 31380, Note_on_c, 2, 50, 127
4, 31380, Note_on_c, 2, 38, 127
4, 31404, Note_on_c, 2, 38, 0
4, 31404, Note_on_c, 2, 50, 0
4, 31404, Note_on_c, 2, 26, 0
4, 31920, Note_on_c, 2, 50, 127
4, 31920, Note_on_c, 2, 26, 127
4, 31920, Note_on_c, 2, 38, 127
4, 31944, Note_on_c, 2, 38, 0
4, 31944, Note_on_c, 2, 26, 0
4, 31944, Note_on_c, 2, 50, 0
4, 32580, Note_on_c, 2, 26, 127
4, 32580, Note_on_c, 2, 38, 127
4, 32580, Note_on_c, 2, 50, 127
4, 32604, Note_on_c, 2, 50, 0
4, 32604, Note_on_c, 2, 38, 0
4, 32604, Note_on_c, 2, 26, 0
4, 32820, Note_on_c, 2, 26, 127
4, 32820, Note_on_c, 2, 50, 127
4, 32820, Note_on_c, 2, 38, 127
4, 32844, Note_on_c, 2, 38, 0
4, 32844, Note_on_c, 2, 50, 0
4, 32844, Note_on_c, 2, 26, 0
4, 33360, Note_on_c, 2, 50, 127
4, 33360, Note_on_c, 2, 26, 127
4, 33360, Note_on_c, 2, 38, 127
4, 33384, Note_on_c, 2, 38, 0
4, 33384, Note_on_c, 2, 26, 0
4, 33384, Note_on_c, 2, 50, 0
4, 34020, Note_on_c, 2, 26, 127
4, 34020, Note_on_c, 2, 38, 127
4, 34020, Note_on_c, 2, 50, 127
4, 34044, Note_on_c, 2, 50, 0
4, 34044, Note_on_c, 2, 38, 0
4, 34044, Note_on_c, 2, 26, 0
4, 34260, Note_on_c, 2, 26, 127
4, 34260, Note_on_c, 2, 50, 127
4, 34260, Note_on_c, 2, 38, 127
4, 34284, Note_on_c, 2, 38, 0
4, 34284, Note_on_c, 2, 50, 0
4, 34284, Note_on_c, 2, 26, 0
4, 34800, Note_on_c, 2, 50, 127
4, 34800, Note_on_c, 2, 26, 127
4, 34800, Note_on_c, 2, 38, 127
4, 34824, Note_on_c, 2, 38, 0
4, 34824, Note_on_c, 2, 26, 0
4, 34824, Note_on_c, 2, 50, 0
4, 35460, Note_on_c, 2, 26, 127
4, 35460, Note_on_c, 2, 38, 127
4, 35460, Note_on_c, 2, 50, 127
4, 35484, Note_on_c, 2, 50, 0
4, 35484, Note_on_c, 2, 38, 0
4, 35484, Note_on_c, 2, 26, 0
4, 35700, Note_on_c, 2, 26, 127
4, 35700, Note_on_c, 2, 50, 127
4, 35700, Note_on_c, 2, 38, 127
4, 35724, Note_on_c, 2, 38, 0
4, 35724, Note_on_c, 2, 50, 0
4, 35724, Note_on_c, 2, 26, 0
4, 36240, Note_on_c, 2, 50, 127
4, 36240, Note_on_c, 2, 26, 127
4, 36240, Note_on_c, 2, 38, 127
4, 36264, Note_on_c, 2, 38, 0
4, 36264, Note_on_c, 2, 26, 0
4, 36264, Note_on_c, 2, 50, 0
4, 36900, Note_on_c, 2, 26, 127
4, 36900, Note_on_c, 2, 38, 127
4, 36900, Note_on_c, 2, 50, 127
4, 36924, Note_on_c, 2, 50, 0
4, 36924, Note_on_c, 2, 38, 0
4, 36924, Note_on_c, 2, 26, 0
4, 37140, Note_on_c, 2, 26, 127
4, 37140, Note_on_c, 2, 50, 127
4, 37140, Note_on_c, 2, 38, 127
4, 37164, Note_on_c, 2, 38, 0
4, 37164, Note_on_c, 2, 50, 0
4, 37164, Note_on_c, 2, 26, 0
4, 37680, Note_on_c, 2, 50, 127
4, 37680, Note_on_c, 2, 26, 127
4, 37680, Note_on_c, 2, 38, 127
4, 37704, Note_on_c, 2, 38, 0
4, 37704, Note_on_c, 2, 26, 0
4, 37704, Note_on_c, 2, 50, 0
4, 38340, Note_on_c, 2, 26, 127
4, 38340, Note_on_c, 2, 38, 127
4, 38340, Note_on_c, 2, 50, 127
4, 38364, Note_on_c, 2, 50, 0
4, 38364, Note_on_c, 2, 38, 0
4, 38364, Note_on_c, 2, 26, 0
4, 38580, Note_on_c, 2, 26, 127
4, 38580, Note_on_c, 2, 50, 127
4, 38580, Note_on_c, 2, 38, 127
4, 38604, Note_on_c, 2, 38, 0
4, 38604, Note_on_c, 2, 50, 0
4, 38604, Note_on_c, 2, 26, 0
4, 39120, Note_on_c, 2, 50, 127
4, 39120, Note_on_c, 2, 26, 127
4, 39120, Note_on_c, 2, 38, 127
4, 39144, Note_on_c, 2, 38, 0
4, 39144, Note_on_c, 2, 26, 0
4, 39144, Note_on_c, 2, 50, 0
4, 39780, Note_on_c, 2, 26, 127
4, 39780, Note_on_c, 2, 38, 127
4, 39780, Note_on_c, 2, 50, 127
4, 39804, Note_on_c, 2, 50, 0
4, 39804, Note_on_c, 2, 38, 0
4, 39804, Note_on_c, 2, 26, 0
4, 40020, Note_on_c, 2, 26, 127
4, 40020, Note_on_c, 2, 50, 127
4, 40020, Note_on_c, 2, 38, 127
4, 40044, Note_on_c, 2, 38, 0
4, 40044, Note_on_c, 2, 50, 0
4, 40044, Note_on_c, 2, 26, 0
4, 40560, Note_on_c, 2, 50, 127
4, 40560, Note_on_c, 2, 26, 127
4, 40560, Note_on_c, 2, 38, 127
4, 40584, Note_on_c, 2, 38, 0
4, 40584, Note_on_c, 2, 26, 0
4, 40584, Note_on_c, 2, 50, 0
4, 41220, Note_on_c, 2, 26, 127
4, 41220, Note_on_c, 2, 38, 127
4, 41220, Note_on_c, 2, 50, 127
4, 41244, Note_on_c, 2, 50, 0
4, 41244, Note_on_c, 2, 38, 0
4, 41244, Note_on_c, 2, 26, 0
4, 41460, Note_on_c, 2, 26, 127
4, 41460, Note_on_c, 2, 50, 127
4, 41460, Note_on_c, 2, 38, 127
4, 41484, Note_on_c, 2, 38, 0
4, 41484, Note_on_c, 2, 50, 0
4, 41484, Note_on_c, 2, 26, 0
4, 42000, Note_on_c, 2, 50, 127
4, 42000, Note_on_c, 2, 26, 127
4, 42000, Note_on_c, 2, 38, 127
4, 42024, Note_on_c, 2, 38, 0
4, 42024, Note_on_c, 2, 26, 0
4, 42024, Note_on_c, 2, 50, 0
4, 42660, Note_on_c, 2, 26, 127
4, 42660, Note_on_c, 2, 38, 127
4, 42660, Note_on_c, 2, 50, 127
4, 42684, Note_on_c, 2, 50, 0
4, 42684, Note_on_c, 2, 38, 0
4, 42684, Note_on_c, 2, 26, 0
4, 42900, Note_on_c, 2, 26, 127
4, 42900, Note_on_c, 2, 50, 127
4, 42900, Note_on_c, 2, 38, 127
4, 42924, Note_on_c, 2, 38, 0
4, 42924, Note_on_c, 2, 50, 0
4, 42924, Note_on_c, 2, 26, 0
4, 43440, Note_on_c, 2, 50, 127
4, 43440, Note_on_c, 2, 26, 127
4, 43440, Note_on_c, 2, 38, 127
4, 43464, Note_on_c, 2, 38, 0
4, 43464, Note_on_c, 2, 26, 0
4, 43464, Note_on_c, 2, 50, 0
4, 44100, Note_on_c, 2, 26, 127
4, 44100, Note_on_c, 2, 38, 127
4, 44100, Note_on_c, 2, 50, 127
4, 44124, Note_on_c, 2, 50, 0
4, 44124, Note_on_c, 2, 38, 0
4, 44124, Note_on_c, 2, 26, 0
4, 44340, Note_on_c, 2, 26, 127
4, 44340, Note_on_c, 2, 50, 127
4, 44340, Note_on_c, 2, 38, 127
4, 44364, Note_on_c, 2, 38, 0
4, 44364, Note_on_c, 2, 50, 0
4, 44364, Note_on_c, 2, 26, 0
4, 44880, Note_on_c, 2, 50, 127
4, 44880, Note_on_c, 2, 26, 127
4, 44880, Note_on_c, 2, 38, 127
4, 44904, Note_on_c, 2, 38, 0
4, 44904, Note_on_c, 2, 26, 0
4, 44904, Note_on_c, 2, 50, 0
4, 45540, Note_on_c, 2, 26, 127
4, 45540, Note_on_c, 2, 38, 127
4, 45540, Note_on_c, 2, 50, 127
4, 45564, Note_on_c, 2, 50, 0
4, 45564, Note_on_c, 2, 38, 0
4, 45564, Note_on_c, 2, 26, 0
4, 45780, Note_on_c, 2, 26, 127
4, 45780, Note_on_c, 2, 50, 127
4, 45780, Note_on_c, 2, 38, 127
4, 45804, Note_on_c, 2, 38, 0
4, 45804, Note_on_c, 2, 50, 0
4, 45804, Note_on_c, 2, 26, 0
4, 46320, Note_on_c, 2, 50, 127
4, 46320, Note_on_c, 2, 26, 127
4, 46320, Note_on_c, 2, 38, 127
4, 46344, Note_on_c, 2, 38, 0
4, 46344, Note_on_c, 2, 26, 0
4, 46344, Note_on_c, 2, 50, 0
4, 46980, Note_on_c, 2, 26, 127
4, 46980, Note_on_c, 2, 38, 127
4, 46980, Note_on_c, 2, 50, 127
4, 47004, Note_on_c, 2, 50, 0
4, 47004, Note_on_c, 2, 38, 0
4, 47004, Note_on_c, 2, 26, 0
4, 47220, Note_on_c, 2, 26, 127
4, 47220, Note_on_c, 2, 50, 127
4, 47220, Note_on_c, 2, 38, 127
4, 47244, Note_on_c, 2, 38, 0
4, 47244, Note_on_c, 2, 50, 0
4, 47244, Note_on_c, 2, 26, 0
4, 65640, Note_on_c, 2, 50, 127
4, 65640, Note_on_c, 2, 26, 127
4, 65640, Note_on_c, 2, 38, 127
4, 65664, Note_on_c, 2, 38, 0
4, 65664, Note_on_c, 2, 26, 0
4, 65664, Note_on_c, 2, 50, 0
4, 66300, Note_on_c, 2, 26, 127
4, 66300, Note_on_c, 2, 38, 127
4, 66300, Note_on_c, 2, 50, 127
4, 66324, Note_on_c, 2, 50, 0
4, 66324, Note_on_c, 2, 38, 0
4, 66324, Note_on_c, 2, 26, 0
4, 66540, Note_on_c, 2, 26, 127
4, 66540, Note_on_c, 2, 50, 127
4, 66540, Note_on_c, 2, 38, 127
4, 66564, Note_on_c, 2, 38, 0
4, 66564, Note_on_c, 2, 50, 0
4, 66564, Note_on_c, 2, 26, 0
4, 67080, Note_on_c, 2, 50, 127
4, 67080, Note_on_c, 2, 26, 127
4, 67080, Note_on_c, 2, 38, 127
4, 67104, Note_on_c, 2, 38, 0
4, 67104, Note_on_c, 2, 26, 0
4, 67104, Note_on_c, 2, 50, 0
4, 67740, Note_on_c, 2, 26, 127
4, 67740, Note_on_c, 2, 38, 127
4, 67740, Note_on_c, 2, 50, 127
4, 67764, Note_on_c, 2, 50, 0
4, 67764, Note_on_c, 2, 38, 0
4, 67764, Note_on_c, 2, 26, 0
4, 67980, Note_on_c, 2, 26, 127
4, 67980, Note_on_c, 2, 50, 127
4, 67980, Note_on_c, 2, 38, 127
4, 68004, Note_on_c, 2, 38, 0
4, 68004, Note_on_c, 2, 50, 0
4, 68004, Note_on_c, 2, 26, 0
4, 68520, Note_on_c, 2, 50, 127
4, 68520, Note_on_c, 2, 26, 127
4, 68520, Note_on_c, 2, 38, 127
4, 68544, Note_on_c, 2, 38, 0
4, 68544, Note_on_c, 2, 26, 0
4, 68544, Note_on_c, 2, 50, 0
4, 69180, Note_on_c, 2, 26, 127
4, 69180, Note_on_c, 2, 38, 127
4, 69180, Note_on_c, 2, 50, 127
4, 69204, Note_on_c, 2, 50, 0
4, 69204, Note_on_c, 2, 38, 0
4, 69204, Note_on_c, 2, 26, 0
4, 69420, Note_on_c, 2, 26, 127
4, 69420, Note_on_c, 2, 50, 127
4, 69420, Note_on_c, 2, 38, 127
4, 69444, Note_on_c, 2, 38, 0
4, 69444, Note_on_c, 2, 50, 0
4, 69444, Note_on_c, 2, 26, 0
4, 69960, Note_on_c, 2, 50, 127
4, 69960, Note_on_c, 2, 26, 127
4, 69960, Note_on_c, 2, 38, 127
4, 69984, Note_on_c, 2, 38, 0
4, 69984, Note_on_c, 2, 26, 0
4, 69984, Note_on_c, 2, 50, 0
4, 70620, Note_on_c, 2, 26, 127
4, 70620, Note_on_c, 2, 38, 127
4, 70620, Note_on_c, 2, 50, 127
4, 70644, Note_on_c, 2, 50, 0
4, 70644, Note_on_c, 2, 38, 0
4, 70644, Note_on_c, 2, 26, 0
4, 70860, Note_on_c, 2, 26, 127
4, 70860, Note_on_c, 2, 50, 127
4, 70860, Note_on_c, 2, 38, 127
4, 70884, Note_on_c, 2, 38, 0
4, 70884, Note_on_c, 2, 50, 0
4, 70884, Note_on_c, 2, 26, 0
4, 71400, Note_on_c, 2, 50, 127
4, 71400, Note_on_c, 2, 26, 127
4, 71400, Note_on_c, 2, 38, 127
4, 71424, Note_on_c, 2, 38, 0
4, 71424, Note_on_c, 2, 26, 0
4, 71424, Note_on_c, 2, 50, 0
4, 72060, Note_on_c, 2, 26, 127
4, 72060, Note_on_c, 2, 38, 127
4, 72060, Note_on_c, 2, 50, 127
4, 72084, Note_on_c, 2, 50, 0
4, 72084, Note_on_c, 2, 38, 0
4, 72084, Note_on_c, 2, 26, 0
4, 72300, Note_on_c, 2, 26, 127
4, 72300, Note_on_c, 2, 50, 127
4, 72300, Note_on_c, 2, 38, 127
4, 72324, Note_on_c, 2, 38, 0
4, 72324, Note_on_c, 2, 50, 0
4, 72324, Note_on_c, 2, 26, 0
4, 72840, Note_on_c, 2, 50, 127
4, 72840, Note_on_c, 2, 26, 127
4, 72840, Note_on_c, 2, 38, 127
4, 72864, Note_on_c, 2, 38, 0
4, 72864, Note_on_c, 2, 26, 0
4, 72864, Note_on_c, 2, 50, 0
4, 73500, Note_on_c, 2, 26, 127
4, 73500, Note_on_c, 2, 38, 127
4, 73500, Note_on_c, 2, 50, 127
4, 73524, Note_on_c, 2, 50, 0
4, 73524, Note_on_c, 2, 38, 0
4, 73524, Note_on_c, 2, 26, 0
4, 73740, Note_on_c, 2, 26, 127
4, 73740, Note_on_c, 2, 50, 127
4, 73740, Note_on_c, 2, 38, 127
4, 73764, Note_on_c, 2, 38, 0
4, 73764, Note_on_c, 2, 50, 0
4, 73764, Note_on_c, 2, 26, 0
4, 74280, Note_on_c, 2, 50, 127
4, 74280, Note_on_c, 2, 26, 127
4, 74280, Note_on_c, 2, 38, 127
4, 74304, Note_on_c, 2, 38, 0
4, 74304, Note_on_c, 2, 26, 0
4, 74304, Note_on_c, 2, 50, 0
4, 74940, Note_on_c, 2, 26, 127
4, 74940, Note_on_c, 2, 38, 127
4, 74940, Note_on_c, 2, 50, 127
4, 74964, Note_on_c, 2, 50, 0
4, 74964, Note_on_c, 2, 38, 0
4, 74964, Note_on_c, 2, 26, 0
4, 75180, Note_on_c, 2, 26, 127
4, 75180, Note_on_c, 2, 50, 127
4, 75180, Note_on_c, 2, 38, 127
4, 75204, Note_on_c, 2, 38, 0
4, 75204, Note_on_c, 2, 50, 0
4, 75204, Note_on_c, 2, 26, 0
4, 75720, Note_on_c, 2, 50, 127
4, 75720, Note_on_c, 2, 26, 127
4, 75720, Note_on_c, 2, 38, 127
4, 75744, Note_on_c, 2, 38, 0
4, 75744, Note_on_c, 2, 26, 0
4, 75744, Note_on_c, 2, 50, 0
4, 76380, Note_on_c, 2, 26, 127
4, 76380, Note_on_c, 2, 38, 127
4, 76380, Note_on_c, 2, 50, 127
4, 76404, Note_on_c, 2, 50, 0
4, 76404, Note_on_c, 2, 38, 0
4, 76404, Note_on_c, 2, 26, 0
4, 76620, Note_on_c, 2, 26, 127
4, 76620, Note_on_c, 2, 50, 127
4, 76620, Note_on_c, 2, 38, 127
4, 76644, Note_on_c, 2, 38, 0
4, 76644, Note_on_c, 2, 50, 0
4, 76644, Note_on_c, 2, 26, 0
4, 77160, Note_on_c, 2, 50, 127
4, 77160, Note_on_c, 2, 26, 127
4, 77160, Note_on_c, 2, 38, 127
4, 77184, Note_on_c, 2, 38, 0
4, 77184, Note_on_c, 2, 26, 0
4, 77184, Note_on_c, 2, 50, 0
4, 77820, Note_on_c, 2, 26, 127
4, 77820, Note_on_c, 2, 38, 127
4, 77820, Note_on_c, 2, 50, 127
4, 77844, Note_on_c, 2, 50, 0
4, 77844, Note_on_c, 2, 38, 0
4, 77844, Note_on_c, 2, 26, 0
4, 78060, Note_on_c, 2, 26, 127
4, 78060, Note_on_c, 2, 50, 127
4, 78060, Note_on_c, 2, 38, 127
4, 78084, Note_on_c, 2, 38, 0
4, 78084, Note_on_c, 2, 50, 0
4, 78084, Note_on_c, 2, 26, 0
4, 78600, Note_on_c, 2, 50, 127
4, 78600, Note_on_c, 2, 26, 127
4, 78600, Note_on_c, 2, 38, 127
4, 78624, Note_on_c, 2, 38, 0
4, 78624, Note_on_c, 2, 26, 0
4, 78624, Note_on_c, 2, 50, 0
4, 79260, Note_on_c, 2, 26, 127
4, 79260, Note_on_c, 2, 38, 127
4, 79260, Note_on_c, 2, 50, 127
4, 79284, Note_on_c, 2, 50, 0
4, 79284, Note_on_c, 2, 38, 0
4, 79284, Note_on_c, 2, 26, 0
4, 79500, Note_on_c, 2, 26, 127
4, 79500, Note_on_c, 2, 50, 127
4, 79500, Note_on_c, 2, 38, 127
4, 79524, Note_on_c, 2, 38, 0
4, 79524, Note_on_c, 2, 50, 0
4, 79524, Note_on_c, 2, 26, 0
4, 80040, Note_on_c, 2, 50, 127
4, 80040, Note_on_c, 2, 26, 127
4, 80040, Note_on_c, 2, 38, 127
4, 80064, Note_on_c, 2, 38, 0
4, 80064, Note_on_c, 2, 26, 0
4, 80064, Note_on_c, 2, 50, 0
4, 80700, Note_on_c, 2, 26, 127
4, 80700, Note_on_c, 2, 38, 127
4, 80700, Note_on_c, 2, 50, 127
4, 80724, Note_on_c, 2, 50, 0
4, 80724, Note_on_c, 2, 38, 0
4, 80724, Note_on_c, 2, 26, 0
4, 80940, Note_on_c, 2, 26, 127
4, 80940, Note_on_c, 2, 50, 127
4, 80940, Note_on_c, 2, 38, 127
4, 80964, Note_on_c, 2, 38, 0
4, 80964, Note_on_c, 2, 50, 0
4, 80964, Note_on_c, 2, 26, 0
4, 81480, Note_on_c, 2, 50, 127
4, 81480, Note_on_c, 2, 26, 127
4, 81480, Note_on_c, 2, 38, 127
4, 81504, Note_on_c, 2, 38, 0
4, 81504, Note_on_c, 2, 26, 0
4, 81504, Note_on_c, 2, 50, 0
4, 82140, Note_on_c, 2, 26, 127
4, 82140, Note_on_c, 2, 38, 127
4, 82140, Note_on_c, 2, 50, 127
4, 82164, Note_on_c, 2, 50, 0
4, 82164, Note_on_c, 2, 38, 0
4, 82164, Note_on_c, 2, 26, 0
4, 82380, Note_on_c, 2, 26, 127
4, 82380, Note_on_c, 2, 50, 127
4, 82380, Note_on_c, 2, 38, 127
4, 82404, Note_on_c, 2, 38, 0
4, 82404, Note_on_c, 2, 50, 0
4, 82404, Note_on_c, 2, 26, 0
4, 82920, Note_on_c, 2, 50, 127
4, 82920, Note_on_c, 2, 26, 127
4, 82920, Note_on_c, 2, 38, 127
4, 82944, Note_on_c, 2, 38, 0
4, 82944, Note_on_c, 2, 26, 0
4, 82944, Note_on_c, 2, 50, 0
4, 83580, Note_on_c, 2, 26, 127
4, 83580, Note_on_c, 2, 38, 127
4, 83580, Note_on_c, 2, 50, 127
4, 83604, Note_on_c, 2, 50, 0
4, 83604, Note_on_c, 2, 38, 0
4, 83604, Note_on_c, 2, 26, 0
4, 83820, Note_on_c, 2, 26, 127
4, 83820, Note_on_c, 2, 50, 127
4, 83820, Note_on_c, 2, 38, 127
4, 83844, Note_on_c, 2, 38, 0
4, 83844, Note_on_c, 2, 50, 0
4, 83844, Note_on_c, 2, 26, 0
4, 84360, Note_on_c, 2, 50, 127
4, 84360, Note_on_c, 2, 26, 127
4, 84360, Note_on_c, 2, 38, 127
4, 84384, Note_on_c, 2, 38, 0
4, 84384, Note_on_c, 2, 26, 0
4, 84384, Note_on_c, 2, 50, 0
4, 85020, Note_on_c, 2, 26, 127
4, 85020, Note_on_c, 2, 38, 127
4, 85020, Note_on_c, 2, 50, 127
4, 85044, Note_on_c, 2, 50, 0
4, 85044, Note_on_c, 2, 38, 0
4, 85044, Note_on_c, 2, 26, 0
4, 85260, Note_on_c, 2, 26, 127
4, 85260, Note_on_c, 2, 50, 127
4, 85260, Note_on_c, 2, 38, 127
4, 85284, Note_on_c, 2, 38, 0
4, 85284, Note_on_c, 2, 50, 0
4, 85284, Note_on_c, 2, 26, 0
4, 85800, Note_on_c, 2, 50, 127
4, 85800, Note_on_c, 2, 26, 127
4, 85800, Note_on_c, 2, 38, 127
4, 85824, Note_on_c, 2, 38, 0
4, 85824, Note_on_c, 2, 26, 0
4, 85824, Note_on_c, 2, 50, 0
4, 86460, Note_on_c, 2, 26, 127
4, 86460, Note_on_c, 2, 38, 127
4, 86460, Note_on_c, 2, 50, 127
4, 86484, Note_on_c, 2, 50, 0
4, 86484, Note_on_c, 2, 38, 0
4, 86484, Note_on_c, 2, 26, 0
4, 86700, Note_on_c, 2, 26, 127
4, 86700, Note_on_c, 2, 50, 127
4, 86700, Note_on_c, 2, 38, 127
4, 86724, Note_on_c, 2, 38, 0
4, 86724, Note_on_c, 2, 50, 0
4, 86724, Note_on_c, 2, 26, 0
4, 87240, Note_on_c, 2, 50, 127
4, 87240, Note_on_c, 2, 26, 127
4, 87240, Note_on_c, 2, 38, 127
4, 87264, Note_on_c, 2, 38, 0
4, 87264, Note_on_c, 2, 26, 0
4, 87264, Note_on_c, 2, 50, 0
4, 87900, Note_on_c, 2, 26, 127
4, 87900, Note_on_c, 2, 38, 127
4, 87900, Note_on_c, 2, 50, 127
4, 87924, Note_on_c, 2, 50, 0
4, 87924, Note_on_c, 2, 38, 0
4, 87924, Note_on_c, 2, 26, 0
4, 88140, Note_on_c, 2, 26, 127
4, 88140, Note_on_c, 2, 50, 127
4, 88140, Note_on_c, 2, 38, 127
4, 88164, Note_on_c, 2, 38, 0
4, 88164, Note_on_c, 2, 50, 0
4, 88164, Note_on_c, 2, 26, 0
4, 88164, End_track
5, 0, Start_track
5, 0, Title_t, "A4-Strings     "
5, 0, Control_c, 3, 0, 0
5, 0, Control_c, 3, 32, 2
5, 0, Program_c, 3, 48
5, 0, Control_c, 3, 7, 105
5, 0, Control_c, 3, 10, 40
5, 125, Control_c, 3, 91, 70
5, 126, Control_c, 3, 93, 30
5, 127, Control_c, 3, 94, 10
5, 3960, Note_on_c, 3, 76, 110
5, 3960, Note_on_c, 3, 69, 90
5, 3990, Note_on_c, 3, 69, 0
5, 3990, Note_on_c, 3, 76, 0
5, 4020, Note_on_c, 3, 67, 90
5, 4020, Note_on_c, 3, 74, 110
5, 4050, Note_on_c, 3, 74, 0
5, 4050, Note_on_c, 3, 67, 0
5, 4080, Note_on_c, 3, 69, 90
5, 4080, Note_on_c, 3, 76, 110
5, 4110, Note_on_c, 3, 76, 0
5, 4110, Note_on_c, 3, 69, 0
5, 4140, Note_on_c, 3, 67, 90
5, 4140, Note_on_c, 3, 74, 110
5, 4170, Note_on_c, 3, 74, 0
5, 4170, Note_on_c, 3, 67, 0
5, 4200, Note_on_c, 3, 69, 90
5, 4200, Note_on_c, 3, 76, 110
5, 4230, Note_on_c, 3, 76, 0
5, 4230, Note_on_c, 3, 69, 0
5, 4260, Note_on_c, 3, 67, 90
5, 4260, Note_on_c, 3, 74, 110
5, 4290, Note_on_c, 3, 74, 0
5, 4290, Note_on_c, 3, 67, 0
5, 4320, Note_on_c, 3, 69, 90
5, 4320, Note_on_c, 3, 76, 110
5, 4350, Note_on_c, 3, 76, 0
5, 4350, Note_on_c, 3, 69, 0
5, 4380, Note_on_c, 3, 67, 90
5, 4380, Note_on_c, 3, 74, 110
5, 4410, Note_on_c, 3, 74, 0
5, 4410, Note_on_c, 3, 67, 0
5, 4440, Note_on_c, 3, 76, 110
5, 4440, Note_on_c, 3, 69, 90
5, 4470, Note_on_c, 3, 69, 0
5, 4470, Note_on_c, 3, 76, 0
5, 4500, Note_on_c, 3, 74, 110
5, 4500, Note_on_c, 3, 67, 90
5, 4530, Note_on_c, 3, 67, 0
5, 4530, Note_on_c, 3, 74, 0
5, 4560, Note_on_c, 3, 76, 110
5, 4560, Note_on_c, 3, 69, 90
5, 4590, Note_on_c, 3, 69, 0
5, 4590, Note_on_c, 3, 76, 0
5, 4620, Note_on_c, 3, 74, 110
5, 4620, Note_on_c, 3, 67, 90
5, 4650, Note_on_c, 3, 67, 0
5, 4650, Note_on_c, 3, 74, 0
5, 4680, Note_on_c, 3, 76, 110
5, 4680, Note_on_c, 3, 69, 90
5, 4710, Note_on_c, 3, 69, 0
5, 4710, Note_on_c, 3, 76, 0
5, 4740, Note_on_c, 3, 74, 110
5, 4740, Note_on_c, 3, 67, 90
5, 4770, Note_on_c, 3, 67, 0
5, 4770, Note_on_c, 3, 74, 0
5, 4800, Note_on_c, 3, 76, 110
5, 4800, Note_on_c, 3, 69, 90
5, 4830, Note_on_c, 3, 69, 0
5, 4830, Note_on_c, 3, 76, 0
5, 4860, Note_on_c, 3, 74, 110
5, 4860, Note_on_c, 3, 67, 90
5, 4890, Note_on_c, 3, 67, 0
5, 4890, Note_on_c, 3, 74, 0
5, 4920, Note_on_c, 3, 76, 110
5, 4920, Note_on_c, 3, 69, 90
5, 4950, Note_on_c, 3, 69, 0
5, 4950, Note_on_c, 3, 76, 0
5, 4980, Note_on_c, 3, 74, 110
5, 4980, Note_on_c, 3, 67, 90
5, 5010, Note_on_c, 3, 67, 0
5, 5010, Note_on_c, 3, 74, 0
5, 5040, Note_on_c, 3, 76, 110
5, 5040, Note_on_c, 3, 69, 90
5, 5070, Note_on_c, 3, 69, 0
5, 5070, Note_on_c, 3, 76, 0
5, 5100, Note_on_c, 3, 74, 110
5, 5100, Note_on_c, 3, 67, 90
5, 5130, Note_on_c, 3, 67, 0
5, 5130, Note_on_c, 3, 74, 0
5, 5160, Note_on_c, 3, 76, 110
5, 5160, Note_on_c, 3, 69, 90
5, 5190, Note_on_c, 3, 69, 0
5, 5190, Note_on_c, 3, 76, 0
5, 5220, Note_on_c, 3, 74, 110
5, 5220, Note_on_c, 3, 67, 90
5, 5250, Note_on_c, 3, 67, 0
5, 5250, Note_on_c, 3, 74, 0
5, 5280, Note_on_c, 3, 76, 110
5, 5280, Note_on_c, 3, 69, 90
5, 5310, Note_on_c, 3, 69, 0
5, 5310, Note_on_c, 3, 76, 0
5, 5340, Note_on_c, 3, 74, 110
5, 5340, Note_on_c, 3, 67, 90
5, 5370, Note_on_c, 3, 67, 0
5, 5370, Note_on_c, 3, 74, 0
5, 5400, Note_on_c, 3, 76, 110
5, 5400, Note_on_c, 3, 69, 90
5, 5430, Note_on_c, 3, 69, 0
5, 5430, Note_on_c, 3, 76, 0
5, 5460, Note_on_c, 3, 74, 110
5, 5460, Note_on_c, 3, 67, 90
5, 5490, Note_on_c, 3, 67, 0
5, 5490, Note_on_c, 3, 74, 0
5, 5520, Note_on_c, 3, 76, 110
5, 5520, Note_on_c, 3, 69, 90
5, 5550, Note_on_c, 3, 69, 0
5, 5550, Note_on_c, 3, 76, 0
5, 5580, Note_on_c, 3, 74, 110
5, 5580, Note_on_c, 3, 67, 90
5, 5610, Note_on_c, 3, 67, 0
5, 5610, Note_on_c, 3, 74, 0
5, 5640, Note_on_c, 3, 76, 110
5, 5640, Note_on_c, 3, 69, 90
5, 5670, Note_on_c, 3, 69, 0
5, 5670, Note_on_c, 3, 76, 0
5, 5700, Note_on_c, 3, 74, 110
5, 5700, Note_on_c, 3, 67, 90
5, 5730, Note_on_c, 3, 67, 0
5, 5730, Note_on_c, 3, 74, 0
5, 5760, Note_on_c, 3, 76, 110
5, 5760, Note_on_c, 3, 69, 90
5, 5790, Note_on_c, 3, 69, 0
5, 5790, Note_on_c, 3, 76, 0
5, 5820, Note_on_c, 3, 74, 110
5, 5820, Note_on_c, 3, 67, 90
5, 5850, Note_on_c, 3, 67, 0
5, 5850, Note_on_c, 3, 74, 0
5, 5880, Note_on_c, 3, 76, 110
5, 5880, Note_on_c, 3, 69, 90
5, 5910, Note_on_c, 3, 69, 0
5, 5910, Note_on_c, 3, 76, 0
5, 5940, Note_on_c, 3, 74, 110
5, 5940, Note_on_c, 3, 67, 90
5, 5970, Note_on_c, 3, 67, 0
5, 5970, Note_on_c, 3, 74, 0
5, 6000, Note_on_c, 3, 76, 110
5, 6000, Note_on_c, 3, 69, 90
5, 6030, Note_on_c, 3, 69, 0
5, 6030, Note_on_c, 3, 76, 0
5, 6060, Note_on_c, 3, 74, 110
5, 6060, Note_on_c, 3, 67, 90
5, 6090, Note_on_c, 3, 67, 0
5, 6090, Note_on_c, 3, 74, 0
5, 6120, Note_on_c, 3, 76, 110
5, 6120, Note_on_c, 3, 69, 90
5, 6150, Note_on_c, 3, 69, 0
5, 6150, Note_on_c, 3, 76, 0
5, 6180, Note_on_c, 3, 74, 110
5, 6180, Note_on_c, 3, 67, 90
5, 6210, Note_on_c, 3, 67, 0
5, 6210, Note_on_c, 3, 74, 0
5, 6240, Note_on_c, 3, 76, 110
5, 6240, Note_on_c, 3, 69, 90
5, 6270, Note_on_c, 3, 69, 0
5, 6270, Note_on_c, 3, 76, 0
5, 6300, Note_on_c, 3, 74, 110
5, 6300, Note_on_c, 3, 67, 90
5, 6330, Note_on_c, 3, 67, 0
5, 6330, Note_on_c, 3, 74, 0
5, 6360, Note_on_c, 3, 76, 110
5, 6360, Note_on_c, 3, 69, 90
5, 6390, Note_on_c, 3, 69, 0
5, 6390, Note_on_c, 3, 76, 0
5, 6420, Note_on_c, 3, 74, 110
5, 6420, Note_on_c, 3, 67, 90
5, 6450, Note_on_c, 3, 67, 0
5, 6450, Note_on_c, 3, 74, 0
5, 6480, Note_on_c, 3, 76, 110
5, 6480, Note_on_c, 3, 69, 90
5, 6510, Note_on_c, 3, 69, 0
5, 6510, Note_on_c, 3, 76, 0
5, 6540, Note_on_c, 3, 74, 110
5, 6540, Note_on_c, 3, 67, 90
5, 6570, Note_on_c, 3, 67, 0
5, 6570, Note_on_c, 3, 74, 0
5, 6600, Note_on_c, 3, 76, 110
5, 6600, Note_on_c, 3, 69, 90
5, 6630, Note_on_c, 3, 69, 0
5, 6630, Note_on_c, 3, 76, 0
5, 6660, Note_on_c, 3, 74, 110
5, 6660, Note_on_c, 3, 67, 90
5, 6690, Note_on_c, 3, 67, 0
5, 6690, Note_on_c, 3, 74, 0
5, 6720, Note_on_c, 3, 76, 110
5, 6720, Note_on_c, 3, 69, 90
5, 6750, Note_on_c, 3, 69, 0
5, 6750, Note_on_c, 3, 76, 0
5, 6780, Note_on_c, 3, 74, 110
5, 6780, Note_on_c, 3, 67, 90
5, 6810, Note_on_c, 3, 67, 0
5, 6810, Note_on_c, 3, 74, 0
5, 27600, Note_on_c, 3, 76, 110
5, 27600, Note_on_c, 3, 69, 90
5, 27630, Note_on_c, 3, 69, 0
5, 27630, Note_on_c, 3, 76, 0
5, 27660, Note_on_c, 3, 67, 90
5, 27660, Note_on_c, 3, 74, 110
5, 27690, Note_on_c, 3, 74, 0
5, 27690, Note_on_c, 3, 67, 0
5, 27720, Note_on_c, 3, 69, 90
5, 27720, Note_on_c, 3, 76, 110
5, 27750, Note_on_c, 3, 76, 0
5, 27750, Note_on_c, 3, 69, 0
5, 27780, Note_on_c, 3, 67, 90
5, 27780, Note_on_c, 3, 74, 110
5, 27810, Note_on_c, 3, 74, 0
5, 27810, Note_on_c, 3, 67, 0
5, 27840, Note_on_c, 3, 69, 90
5, 27840, Note_on_c, 3, 76, 110
5, 27870, Note_on_c, 3, 76, 0
5, 27870, Note_on_c, 3, 69, 0
5, 27900, Note_on_c, 3, 67, 90
5, 27900, Note_on_c, 3, 74, 110
5, 27930, Note_on_c, 3, 74, 0
5, 27930, Note_on_c, 3, 67, 0
5, 27960, Note_on_c, 3, 69, 90
5, 27960, Note_on_c, 3, 76, 110
5, 27990, Note_on_c, 3, 76, 0
5, 27990, Note_on_c, 3, 69, 0
5, 28020, Note_on_c, 3, 67, 90
5, 28020, Note_on_c, 3, 74, 110
5, 28050, Note_on_c, 3, 74, 0
5, 28050, Note_on_c, 3, 67, 0
5, 28080, Note_on_c, 3, 76, 110
5, 28080, Note_on_c, 3, 69, 90
5, 28110, Note_on_c, 3, 69, 0
5, 28110, Note_on_c, 3, 76, 0
5, 28140, Note_on_c, 3, 74, 110
5, 28140, Note_on_c, 3, 67, 90
5, 28170, Note_on_c, 3, 67, 0
5, 28170, Note_on_c, 3, 74, 0
5, 28200, Note_on_c, 3, 76, 110
5, 28200, Note_on_c, 3, 69, 90
5, 28230, Note_on_c, 3, 69, 0
5, 28230, Note_on_c, 3, 76, 0
5, 28260, Note_on_c, 3, 74, 110
5, 28260, Note_on_c, 3, 67, 90
5, 28290, Note_on_c, 3, 67, 0
5, 28290, Note_on_c, 3, 74, 0
5, 28320, Note_on_c, 3, 76, 110
5, 28320, Note_on_c, 3, 69, 90
5, 28350, Note_on_c, 3, 69, 0
5, 28350, Note_on_c, 3, 76, 0
5, 28380, Note_on_c, 3, 74, 110
5, 28380, Note_on_c, 3, 67, 90
5, 28410, Note_on_c, 3, 67, 0
5, 28410, Note_on_c, 3, 74, 0
5, 28440, Note_on_c, 3, 76, 110
5, 28440, Note_on_c, 3, 69, 90
5, 28470, Note_on_c, 3, 69, 0
5, 28470, Note_on_c, 3, 76, 0
5, 28500, Note_on_c, 3, 74, 110
5, 28500, Note_on_c, 3, 67, 90
5, 28530, Note_on_c, 3, 67, 0
5, 28530, Note_on_c, 3, 74, 0
5, 28560, Note_on_c, 3, 76, 110
5, 28560, Note_on_c, 3, 69, 90
5, 28590, Note_on_c, 3, 69, 0
5, 28590, Note_on_c, 3, 76, 0
5, 28620, Note_on_c, 3, 74, 110
5, 28620, Note_on_c, 3, 67, 90
5, 28650, Note_on_c, 3, 67, 0
5, 28650, Note_on_c, 3, 74, 0
5, 28680, Note_on_c, 3, 76, 110
5, 28680, Note_on_c, 3, 69, 90
5, 28710, Note_on_c, 3, 69, 0
5, 28710, Note_on_c, 3, 76, 0
5, 28740, Note_on_c, 3, 74, 110
5, 28740, Note_on_c, 3, 67, 90
5, 28770, Note_on_c, 3, 67, 0
5, 28770, Note_on_c, 3, 74, 0
5, 28800, Note_on_c, 3, 76, 110
5, 28800, Note_on_c, 3, 69, 90
5, 28830, Note_on_c, 3, 69, 0
5, 28830, Note_on_c, 3, 76, 0
5, 28860, Note_on_c, 3, 74, 110
5, 28860, Note_on_c, 3, 67, 90
5, 28890, Note_on_c, 3, 67, 0
5, 28890, Note_on_c, 3, 74, 0
5, 28920, Note_on_c, 3, 76, 110
5, 28920, Note_on_c, 3, 69, 90
5, 28950, Note_on_c, 3, 69, 0
5, 28950, Note_on_c, 3, 76, 0
5, 28980, Note_on_c, 3, 74, 110
5, 28980, Note_on_c, 3, 67, 90
5, 29010, Note_on_c, 3, 67, 0
5, 29010, Note_on_c, 3, 74, 0
5, 29040, Note_on_c, 3, 76, 110
5, 29040, Note_on_c, 3, 69, 90
5, 29070, Note_on_c, 3, 69, 0
5, 29070, Note_on_c, 3, 76, 0
5, 29100, Note_on_c, 3, 74, 110
5, 29100, Note_on_c, 3, 67, 90
5, 29130, Note_on_c, 3, 67, 0
5, 29130, Note_on_c, 3, 74, 0
5, 29160, Note_on_c, 3, 76, 110
5, 29160, Note_on_c, 3, 69, 90
5, 29190, Note_on_c, 3, 69, 0
5, 29190, Note_on_c, 3, 76, 0
5, 29220, Note_on_c, 3, 74, 110
5, 29220, Note_on_c, 3, 67, 90
5, 29250, Note_on_c, 3, 67, 0
5, 29250, Note_on_c, 3, 74, 0
5, 29280, Note_on_c, 3, 76, 110
5, 29280, Note_on_c, 3, 69, 90
5, 29310, Note_on_c, 3, 69, 0
5, 29310, Note_on_c, 3, 76, 0
5, 29340, Note_on_c, 3, 74, 110
5, 29340, Note_on_c, 3, 67, 90
5, 29370, Note_on_c, 3, 67, 0
5, 29370, Note_on_c, 3, 74, 0
5, 29400, Note_on_c, 3, 76, 110
5, 29400, Note_on_c, 3, 69, 90
5, 29430, Note_on_c, 3, 69, 0
5, 29430, Note_on_c, 3, 76, 0
5, 29460, Note_on_c, 3, 74, 110
5, 29460, Note_on_c, 3, 67, 90
5, 29490, Note_on_c, 3, 67, 0
5, 29490, Note_on_c, 3, 74, 0
5, 29520, Note_on_c, 3, 76, 110
5, 29520, Note_on_c, 3, 69, 90
5, 29550, Note_on_c, 3, 69, 0
5, 29550, Note_on_c, 3, 76, 0
5, 29580, Note_on_c, 3, 74, 110
5, 29580, Note_on_c, 3, 67, 90
5, 29610, Note_on_c, 3, 67, 0
5, 29610, Note_on_c, 3, 74, 0
5, 29640, Note_on_c, 3, 76, 110
5, 29640, Note_on_c, 3, 69, 90
5, 29670, Note_on_c, 3, 69, 0
5, 29670, Note_on_c, 3, 76, 0
5, 29700, Note_on_c, 3, 74, 110
5, 29700, Note_on_c, 3, 67, 90
5, 29730, Note_on_c, 3, 67, 0
5, 29730, Note_on_c, 3, 74, 0
5, 29760, Note_on_c, 3, 76, 110
5, 29760, Note_on_c, 3, 69, 90
5, 29790, Note_on_c, 3, 69, 0
5, 29790, Note_on_c, 3, 76, 0
5, 29820, Note_on_c, 3, 74, 110
5, 29820, Note_on_c, 3, 67, 90
5, 29850, Note_on_c, 3, 67, 0
5, 29850, Note_on_c, 3, 74, 0
5, 29880, Note_on_c, 3, 76, 110
5, 29880, Note_on_c, 3, 69, 90
5, 29910, Note_on_c, 3, 69, 0
5, 29910, Note_on_c, 3, 76, 0
5, 29940, Note_on_c, 3, 74, 110
5, 29940, Note_on_c, 3, 67, 90
5, 29970, Note_on_c, 3, 67, 0
5, 29970, Note_on_c, 3, 74, 0
5, 30000, Note_on_c, 3, 76, 110
5, 30000, Note_on_c, 3, 69, 90
5, 30030, Note_on_c, 3, 69, 0
5, 30030, Note_on_c, 3, 76, 0
5, 30060, Note_on_c, 3, 74, 110
5, 30060, Note_on_c, 3, 67, 90
5, 30090, Note_on_c, 3, 67, 0
5, 30090, Note_on_c, 3, 74, 0
5, 30120, Note_on_c, 3, 76, 110
5, 30120, Note_on_c, 3, 69, 90
5, 30150, Note_on_c, 3, 69, 0
5, 30150, Note_on_c, 3, 76, 0
5, 30180, Note_on_c, 3, 74, 110
5, 30180, Note_on_c, 3, 67, 90
5, 30210, Note_on_c, 3, 67, 0
5, 30210, Note_on_c, 3, 74, 0
5, 30240, Note_on_c, 3, 76, 110
5, 30240, Note_on_c, 3, 69, 90
5, 30270, Note_on_c, 3, 69, 0
5, 30270, Note_on_c, 3, 76, 0
5, 30300, Note_on_c, 3, 74, 110
5, 30300, Note_on_c, 3, 67, 90
5, 30330, Note_on_c, 3, 67, 0
5, 30330, Note_on_c, 3, 74, 0
5, 30360, Note_on_c, 3, 76, 110
5, 30360, Note_on_c, 3, 69, 90
5, 30390, Note_on_c, 3, 69, 0
5, 30390, Note_on_c, 3, 76, 0
5, 30420, Note_on_c, 3, 74, 110
5, 30420, Note_on_c, 3, 67, 90
5, 30450, Note_on_c, 3, 67, 0
5, 30450, Note_on_c, 3, 74, 0
5, 30480, Note_on_c, 3, 69, 80
5, 30510, Note_on_c, 3, 69, 0
5, 30540, Note_on_c, 3, 67, 80
5, 30570, Note_on_c, 3, 67, 0
5, 30600, Note_on_c, 3, 69, 80
5, 30630, Note_on_c, 3, 69, 0
5, 30660, Note_on_c, 3, 67, 80
5, 30690, Note_on_c, 3, 67, 0
5, 30720, Note_on_c, 3, 69, 80
5, 30750, Note_on_c, 3, 69, 0
5, 30780, Note_on_c, 3, 67, 80
5, 30810, Note_on_c, 3, 67, 0
5, 30840, Note_on_c, 3, 69, 80
5, 30870, Note_on_c, 3, 69, 0
5, 30900, Note_on_c, 3, 67, 80
5, 30930, Note_on_c, 3, 67, 0
5, 30960, Note_on_c, 3, 69, 80
5, 30990, Note_on_c, 3, 69, 0
5, 31020, Note_on_c, 3, 67, 80
5, 31050, Note_on_c, 3, 67, 0
5, 31080, Note_on_c, 3, 69, 80
5, 31110, Note_on_c, 3, 69, 0
5, 31140, Note_on_c, 3, 67, 80
5, 31170, Note_on_c, 3, 67, 0
5, 31200, Note_on_c, 3, 69, 80
5, 31230, Note_on_c, 3, 69, 0
5, 31260, Note_on_c, 3, 67, 80
5, 31290, Note_on_c, 3, 67, 0
5, 31320, Note_on_c, 3, 69, 80
5, 31350, Note_on_c, 3, 69, 0
5, 31380, Note_on_c, 3, 67, 80
5, 31410, Note_on_c, 3, 67, 0
5, 31440, Note_on_c, 3, 69, 80
5, 31470, Note_on_c, 3, 69, 0
5, 31500, Note_on_c, 3, 67, 80
5, 31530, Note_on_c, 3, 67, 0
5, 31560, Note_on_c, 3, 69, 80
5, 31590, Note_on_c, 3, 69, 0
5, 31620, Note_on_c, 3, 67, 80
5, 31650, Note_on_c, 3, 67, 0
5, 31680, Note_on_c, 3, 69, 80
5, 31710, Note_on_c, 3, 69, 0
5, 31740, Note_on_c, 3, 67, 80
5, 31770, Note_on_c, 3, 67, 0
5, 31800, Note_on_c, 3, 69, 80
5, 31830, Note_on_c, 3, 69, 0
5, 31860, Note_on_c, 3, 67, 80
5, 31890, Note_on_c, 3, 67, 0
5, 31920, Note_on_c, 3, 69, 80
5, 31950, Note_on_c, 3, 69, 0
5, 31980, Note_on_c, 3, 67, 80
5, 32010, Note_on_c, 3, 67, 0
5, 32040, Note_on_c, 3, 69, 80
5, 32070, Note_on_c, 3, 69, 0
5, 32100, Note_on_c, 3, 67, 80
5, 32130, Note_on_c, 3, 67, 0
5, 32160, Note_on_c, 3, 69, 80
5, 32190, Note_on_c, 3, 69, 0
5, 32220, Note_on_c, 3, 67, 80
5, 32250, Note_on_c, 3, 67, 0
5, 32280, Note_on_c, 3, 69, 80
5, 32310, Note_on_c, 3, 69, 0
5, 32340, Note_on_c, 3, 67, 80
5, 32370, Note_on_c, 3, 67, 0
5, 32400, Note_on_c, 3, 69, 80
5, 32430, Note_on_c, 3, 69, 0
5, 32460, Note_on_c, 3, 67, 80
5, 32490, Note_on_c, 3, 67, 0
5, 32520, Note_on_c, 3, 69, 80
5, 32550, Note_on_c, 3, 69, 0
5, 32580, Note_on_c, 3, 67, 80
5, 32610, Note_on_c, 3, 67, 0
5, 32640, Note_on_c, 3, 69, 80
5, 32670, Note_on_c, 3, 69, 0
5, 32700, Note_on_c, 3, 67, 80
5, 32730, Note_on_c, 3, 67, 0
5, 32760, Note_on_c, 3, 69, 80
5, 32790, Note_on_c, 3, 69, 0
5, 32820, Note_on_c, 3, 67, 80
5, 32850, Note_on_c, 3, 67, 0
5, 32880, Note_on_c, 3, 69, 80
5, 32910, Note_on_c, 3, 69, 0
5, 32940, Note_on_c, 3, 67, 80
5, 32970, Note_on_c, 3, 67, 0
5, 33000, Note_on_c, 3, 69, 80
5, 33030, Note_on_c, 3, 69, 0
5, 33060, Note_on_c, 3, 67, 80
5, 33090, Note_on_c, 3, 67, 0
5, 33120, Note_on_c, 3, 69, 80
5, 33150, Note_on_c, 3, 69, 0
5, 33180, Note_on_c, 3, 67, 80
5, 33210, Note_on_c, 3, 67, 0
5, 33240, Note_on_c, 3, 69, 80
5, 33270, Note_on_c, 3, 69, 0
5, 33300, Note_on_c, 3, 67, 80
5, 33330, Note_on_c, 3, 67, 0
5, 33360, Note_on_c, 3, 69, 80
5, 33390, Note_on_c, 3, 69, 0
5, 33420, Note_on_c, 3, 67, 80
5, 33450, Note_on_c, 3, 67, 0
5, 33480, Note_on_c, 3, 69, 80
5, 33510, Note_on_c, 3, 69, 0
5, 33540, Note_on_c, 3, 67, 80
5, 33570, Note_on_c, 3, 67, 0
5, 33600, Note_on_c, 3, 69, 80
5, 33630, Note_on_c, 3, 69, 0
5, 33660, Note_on_c, 3, 67, 80
5, 33690, Note_on_c, 3, 67, 0
5, 33720, Note_on_c, 3, 69, 80
5, 33750, Note_on_c, 3, 69, 0
5, 33780, Note_on_c, 3, 67, 80
5, 33810, Note_on_c, 3, 67, 0
5, 33840, Note_on_c, 3, 69, 80
5, 33870, Note_on_c, 3, 69, 0
5, 33900, Note_on_c, 3, 67, 80
5, 33930, Note_on_c, 3, 67, 0
5, 33960, Note_on_c, 3, 69, 80
5, 33990, Note_on_c, 3, 69, 0
5, 34020, Note_on_c, 3, 67, 80
5, 34050, Note_on_c, 3, 67, 0
5, 34080, Note_on_c, 3, 69, 80
5, 34110, Note_on_c, 3, 69, 0
5, 34140, Note_on_c, 3, 67, 80
5, 34170, Note_on_c, 3, 67, 0
5, 34200, Note_on_c, 3, 69, 80
5, 34230, Note_on_c, 3, 69, 0
5, 34260, Note_on_c, 3, 67, 80
5, 34290, Note_on_c, 3, 67, 0
5, 34320, Note_on_c, 3, 69, 80
5, 34350, Note_on_c, 3, 69, 0
5, 34380, Note_on_c, 3, 67, 80
5, 34410, Note_on_c, 3, 67, 0
5, 34440, Note_on_c, 3, 69, 80
5, 34470, Note_on_c, 3, 69, 0
5, 34500, Note_on_c, 3, 67, 80
5, 34530, Note_on_c, 3, 67, 0
5, 34560, Note_on_c, 3, 69, 80
5, 34590, Note_on_c, 3, 69, 0
5, 34620, Note_on_c, 3, 67, 80
5, 34650, Note_on_c, 3, 67, 0
5, 34680, Note_on_c, 3, 69, 80
5, 34710, Note_on_c, 3, 69, 0
5, 34740, Note_on_c, 3, 67, 80
5, 34770, Note_on_c, 3, 67, 0
5, 34800, Note_on_c, 3, 69, 80
5, 34830, Note_on_c, 3, 69, 0
5, 34860, Note_on_c, 3, 67, 80
5, 34890, Note_on_c, 3, 67, 0
5, 34920, Note_on_c, 3, 69, 80
5, 34950, Note_on_c, 3, 69, 0
5, 34980, Note_on_c, 3, 67, 80
5, 35010, Note_on_c, 3, 67, 0
5, 35040, Note_on_c, 3, 69, 80
5, 35070, Note_on_c, 3, 69, 0
5, 35100, Note_on_c, 3, 67, 80
5, 35130, Note_on_c, 3, 67, 0
5, 35160, Note_on_c, 3, 69, 80
5, 35190, Note_on_c, 3, 69, 0
5, 35220, Note_on_c, 3, 67, 80
5, 35250, Note_on_c, 3, 67, 0
5, 35280, Note_on_c, 3, 69, 80
5, 35310, Note_on_c, 3, 69, 0
5, 35340, Note_on_c, 3, 67, 80
5, 35370, Note_on_c, 3, 67, 0
5, 35400, Note_on_c, 3, 69, 80
5, 35430, Note_on_c, 3, 69, 0
5, 35460, Note_on_c, 3, 67, 80
5, 35490, Note_on_c, 3, 67, 0
5, 35520, Note_on_c, 3, 69, 80
5, 35550, Note_on_c, 3, 69, 0
5, 35580, Note_on_c, 3, 67, 80
5, 35610, Note_on_c, 3, 67, 0
5, 35640, Note_on_c, 3, 69, 80
5, 35670, Note_on_c, 3, 69, 0
5, 35700, Note_on_c, 3, 67, 80
5, 35730, Note_on_c, 3, 67, 0
5, 35760, Note_on_c, 3, 69, 80
5, 35790, Note_on_c, 3, 69, 0
5, 35820, Note_on_c, 3, 67, 80
5, 35850, Note_on_c, 3, 67, 0
5, 35880, Note_on_c, 3, 69, 80
5, 35910, Note_on_c, 3, 69, 0
5, 35940, Note_on_c, 3, 67, 80
5, 35970, Note_on_c, 3, 67, 0
5, 36000, Note_on_c, 3, 69, 80
5, 36030, Note_on_c, 3, 69, 0
5, 36060, Note_on_c, 3, 67, 80
5, 36090, Note_on_c, 3, 67, 0
5, 36120, Note_on_c, 3, 69, 80
5, 36150, Note_on_c, 3, 69, 0
5, 36180, Note_on_c, 3, 67, 80
5, 36210, Note_on_c, 3, 67, 0
5, 36240, Note_on_c, 3, 69, 80
5, 36270, Note_on_c, 3, 69, 0
5, 36300, Note_on_c, 3, 67, 80
5, 36330, Note_on_c, 3, 67, 0
5, 36360, Note_on_c, 3, 69, 80
5, 36390, Note_on_c, 3, 69, 0
5, 36420, Note_on_c, 3, 67, 80
5, 36450, Note_on_c, 3, 67, 0
5, 36480, Note_on_c, 3, 69, 80
5, 36510, Note_on_c, 3, 69, 0
5, 36540, Note_on_c, 3, 67, 80
5, 36570, Note_on_c, 3, 67, 0
5, 36600, Note_on_c, 3, 69, 80
5, 36630, Note_on_c, 3, 69, 0
5, 36660, Note_on_c, 3, 67, 80
5, 36690, Note_on_c, 3, 67, 0
5, 36720, Note_on_c, 3, 69, 80
5, 36750, Note_on_c, 3, 69, 0
5, 36780, Note_on_c, 3, 67, 80
5, 36810, Note_on_c, 3, 67, 0
5, 36840, Note_on_c, 3, 69, 80
5, 36870, Note_on_c, 3, 69, 0
5, 36900, Note_on_c, 3, 67, 80
5, 36930, Note_on_c, 3, 67, 0
5, 36960, Note_on_c, 3, 69, 80
5, 36990, Note_on_c, 3, 69, 0
5, 37020, Note_on_c, 3, 67, 80
5, 37050, Note_on_c, 3, 67, 0
5, 37080, Note_on_c, 3, 69, 80
5, 37110, Note_on_c, 3, 69, 0
5, 37140, Note_on_c, 3, 67, 80
5, 37170, Note_on_c, 3, 67, 0
5, 37200, Note_on_c, 3, 69, 80
5, 37230, Note_on_c, 3, 69, 0
5, 37260, Note_on_c, 3, 67, 80
5, 37290, Note_on_c, 3, 67, 0
5, 37320, Note_on_c, 3, 69, 80
5, 37350, Note_on_c, 3, 69, 0
5, 37380, Note_on_c, 3, 67, 80
5, 37410, Note_on_c, 3, 67, 0
5, 37440, Note_on_c, 3, 69, 80
5, 37470, Note_on_c, 3, 69, 0
5, 37500, Note_on_c, 3, 67, 80
5, 37530, Note_on_c, 3, 67, 0
5, 37560, Note_on_c, 3, 69, 80
5, 37590, Note_on_c, 3, 69, 0
5, 37620, Note_on_c, 3, 67, 80
5, 37650, Note_on_c, 3, 67, 0
5, 37680, Note_on_c, 3, 69, 80
5, 37710, Note_on_c, 3, 69, 0
5, 37740, Note_on_c, 3, 67, 80
5, 37770, Note_on_c, 3, 67, 0
5, 37800, Note_on_c, 3, 69, 80
5, 37830, Note_on_c, 3, 69, 0
5, 37860, Note_on_c, 3, 67, 80
5, 37890, Note_on_c, 3, 67, 0
5, 37920, Note_on_c, 3, 69, 80
5, 37950, Note_on_c, 3, 69, 0
5, 37980, Note_on_c, 3, 67, 80
5, 38010, Note_on_c, 3, 67, 0
5, 38040, Note_on_c, 3, 69, 80
5, 38070, Note_on_c, 3, 69, 0
5, 38100, Note_on_c, 3, 67, 80
5, 38130, Note_on_c, 3, 67, 0
5, 38160, Note_on_c, 3, 69, 80
5, 38190, Note_on_c, 3, 69, 0
5, 38220, Note_on_c, 3, 67, 80
5, 38250, Note_on_c, 3, 67, 0
5, 38280, Note_on_c, 3, 69, 80
5, 38310, Note_on_c, 3, 69, 0
5, 38340, Note_on_c, 3, 67, 80
5, 38370, Note_on_c, 3, 67, 0
5, 38400, Note_on_c, 3, 69, 80
5, 38430, Note_on_c, 3, 69, 0
5, 38460, Note_on_c, 3, 67, 80
5, 38490, Note_on_c, 3, 67, 0
5, 38520, Note_on_c, 3, 69, 80
5, 38550, Note_on_c, 3, 69, 0
5, 38580, Note_on_c, 3, 67, 80
5, 38610, Note_on_c, 3, 67, 0
5, 38640, Note_on_c, 3, 69, 80
5, 38670, Note_on_c, 3, 69, 0
5, 38700, Note_on_c, 3, 67, 80
5, 38730, Note_on_c, 3, 67, 0
5, 38760, Note_on_c, 3, 69, 80
5, 38790, Note_on_c, 3, 69, 0
5, 38820, Note_on_c, 3, 67, 80
5, 38850, Note_on_c, 3, 67, 0
5, 38880, Note_on_c, 3, 69, 80
5, 38910, Note_on_c, 3, 69, 0
5, 38940, Note_on_c, 3, 67, 80
5, 38970, Note_on_c, 3, 67, 0
5, 39000, Note_on_c, 3, 69, 80
5, 39030, Note_on_c, 3, 69, 0
5, 39060, Note_on_c, 3, 67, 80
5, 39090, Note_on_c, 3, 67, 0
5, 39120, Note_on_c, 3, 69, 80
5, 39150, Note_on_c, 3, 69, 0
5, 39180, Note_on_c, 3, 67, 80
5, 39210, Note_on_c, 3, 67, 0
5, 39240, Note_on_c, 3, 69, 80
5, 39270, Note_on_c, 3, 69, 0
5, 39300, Note_on_c, 3, 67, 80
5, 39330, Note_on_c, 3, 67, 0
5, 39360, Note_on_c, 3, 69, 80
5, 39390, Note_on_c, 3, 69, 0
5, 39420, Note_on_c, 3, 67, 80
5, 39450, Note_on_c, 3, 67, 0
5, 39480, Note_on_c, 3, 69, 80
5, 39510, Note_on_c, 3, 69, 0
5, 39540, Note_on_c, 3, 67, 80
5, 39570, Note_on_c, 3, 67, 0
5, 39600, Note_on_c, 3, 69, 80
5, 39630, Note_on_c, 3, 69, 0
5, 39660, Note_on_c, 3, 67, 80
5, 39690, Note_on_c, 3, 67, 0
5, 39720, Note_on_c, 3, 69, 80
5, 39750, Note_on_c, 3, 69, 0
5, 39780, Note_on_c, 3, 67, 80
5, 39810, Note_on_c, 3, 67, 0
5, 39840, Note_on_c, 3, 69, 80
5, 39870, Note_on_c, 3, 69, 0
5, 39900, Note_on_c, 3, 67, 80
5, 39930, Note_on_c, 3, 67, 0
5, 39960, Note_on_c, 3, 69, 80
5, 39990, Note_on_c, 3, 69, 0
5, 40020, Note_on_c, 3, 67, 80
5, 40050, Note_on_c, 3, 67, 0
5, 40080, Note_on_c, 3, 69, 80
5, 40110, Note_on_c, 3, 69, 0
5, 40140, Note_on_c, 3, 67, 80
5, 40170, Note_on_c, 3, 67, 0
5, 40200, Note_on_c, 3, 69, 80
5, 40230, Note_on_c, 3, 69, 0
5, 40260, Note_on_c, 3, 67, 80
5, 40290, Note_on_c, 3, 67, 0
5, 40320, Note_on_c, 3, 69, 80
5, 40350, Note_on_c, 3, 69, 0
5, 40380, Note_on_c, 3, 67, 80
5, 40410, Note_on_c, 3, 67, 0
5, 40440, Note_on_c, 3, 69, 80
5, 40470, Note_on_c, 3, 69, 0
5, 40500, Note_on_c, 3, 67, 80
5, 40530, Note_on_c, 3, 67, 0
5, 40560, Note_on_c, 3, 69, 80
5, 40590, Note_on_c, 3, 69, 0
5, 40620, Note_on_c, 3, 67, 80
5, 40650, Note_on_c, 3, 67, 0
5, 40680, Note_on_c, 3, 69, 80
5, 40710, Note_on_c, 3, 69, 0
5, 40740, Note_on_c, 3, 67, 80
5, 40770, Note_on_c, 3, 67, 0
5, 40800, Note_on_c, 3, 69, 80
5, 40830, Note_on_c, 3, 69, 0
5, 40860, Note_on_c, 3, 67, 80
5, 40890, Note_on_c, 3, 67, 0
5, 40920, Note_on_c, 3, 69, 80
5, 40950, Note_on_c, 3, 69, 0
5, 40980, Note_on_c, 3, 67, 80
5, 41010, Note_on_c, 3, 67, 0
5, 41040, Note_on_c, 3, 69, 80
5, 41070, Note_on_c, 3, 69, 0
5, 41100, Note_on_c, 3, 67, 80
5, 41130, Note_on_c, 3, 67, 0
5, 41160, Note_on_c, 3, 69, 80
5, 41190, Note_on_c, 3, 69, 0
5, 41220, Note_on_c, 3, 67, 80
5, 41250, Note_on_c, 3, 67, 0
5, 41280, Note_on_c, 3, 69, 80
5, 41310, Note_on_c, 3, 69, 0
5, 41340, Note_on_c, 3, 67, 80
5, 41370, Note_on_c, 3, 67, 0
5, 41400, Note_on_c, 3, 69, 80
5, 41430, Note_on_c, 3, 69, 0
5, 41460, Note_on_c, 3, 67, 80
5, 41490, Note_on_c, 3, 67, 0
5, 41520, Note_on_c, 3, 69, 80
5, 41550, Note_on_c, 3, 69, 0
5, 41580, Note_on_c, 3, 67, 80
5, 41610, Note_on_c, 3, 67, 0
5, 41640, Note_on_c, 3, 69, 80
5, 41670, Note_on_c, 3, 69, 0
5, 41700, Note_on_c, 3, 67, 80
5, 41730, Note_on_c, 3, 67, 0
5, 41760, Note_on_c, 3, 69, 80
5, 41790, Note_on_c, 3, 69, 0
5, 41820, Note_on_c, 3, 67, 80
5, 41850, Note_on_c, 3, 67, 0
5, 41880, Note_on_c, 3, 69, 80
5, 41910, Note_on_c, 3, 69, 0
5, 41940, Note_on_c, 3, 67, 80
5, 41970, Note_on_c, 3, 67, 0
5, 42000, Note_on_c, 3, 76, 110
5, 42000, Note_on_c, 3, 69, 90
5, 42030, Note_on_c, 3, 69, 0
5, 42030, Note_on_c, 3, 76, 0
5, 42060, Note_on_c, 3, 67, 90
5, 42060, Note_on_c, 3, 74, 110
5, 42090, Note_on_c, 3, 74, 0
5, 42090, Note_on_c, 3, 67, 0
5, 42120, Note_on_c, 3, 69, 90
5, 42120, Note_on_c, 3, 76, 110
5, 42150, Note_on_c, 3, 76, 0
5, 42150, Note_on_c, 3, 69, 0
5, 42180, Note_on_c, 3, 67, 90
5, 42180, Note_on_c, 3, 74, 110
5, 42210, Note_on_c, 3, 74, 0
5, 42210, Note_on_c, 3, 67, 0
5, 42240, Note_on_c, 3, 69, 90
5, 42240, Note_on_c, 3, 76, 110
5, 42270, Note_on_c, 3, 76, 0
5, 42270, Note_on_c, 3, 69, 0
5, 42300, Note_on_c, 3, 67, 90
5, 42300, Note_on_c, 3, 74, 110
5, 42330, Note_on_c, 3, 74, 0
5, 42330, Note_on_c, 3, 67, 0
5, 42360, Note_on_c, 3, 69, 90
5, 42360, Note_on_c, 3, 76, 110
5, 42390, Note_on_c, 3, 76, 0
5, 42390, Note_on_c, 3, 69, 0
5, 42420, Note_on_c, 3, 67, 90
5, 42420, Note_on_c, 3, 74, 110
5, 42450, Note_on_c, 3, 74, 0
5, 42450, Note_on_c, 3, 67, 0
5, 42480, Note_on_c, 3, 76, 110
5, 42480, Note_on_c, 3, 69, 90
5, 42510, Note_on_c, 3, 69, 0
5, 42510, Note_on_c, 3, 76, 0
5, 42540, Note_on_c, 3, 74, 110
5, 42540, Note_on_c, 3, 67, 90
5, 42570, Note_on_c, 3, 67, 0
5, 42570, Note_on_c, 3, 74, 0
5, 42600, Note_on_c, 3, 76, 110
5, 42600, Note_on_c, 3, 69, 90
5, 42630, Note_on_c, 3, 69, 0
5, 42630, Note_on_c, 3, 76, 0
5, 42660, Note_on_c, 3, 74, 110
5, 42660, Note_on_c, 3, 67, 90
5, 42690, Note_on_c, 3, 67, 0
5, 42690, Note_on_c, 3, 74, 0
5, 42720, Note_on_c, 3, 76, 110
5, 42720, Note_on_c, 3, 69, 90
5, 42750, Note_on_c, 3, 69, 0
5, 42750, Note_on_c, 3, 76, 0
5, 42780, Note_on_c, 3, 74, 110
5, 42780, Note_on_c, 3, 67, 90
5, 42810, Note_on_c, 3, 67, 0
5, 42810, Note_on_c, 3, 74, 0
5, 42840, Note_on_c, 3, 76, 110
5, 42840, Note_on_c, 3, 69, 90
5, 42870, Note_on_c, 3, 69, 0
5, 42870, Note_on_c, 3, 76, 0
5, 42900, Note_on_c, 3, 74, 110
5, 42900, Note_on_c, 3, 67, 90
5, 42930, Note_on_c, 3, 67, 0
5, 42930, Note_on_c, 3, 74, 0
5, 42960, Note_on_c, 3, 76, 110
5, 42960, Note_on_c, 3, 69, 90
5, 42990, Note_on_c, 3, 69, 0
5, 42990, Note_on_c, 3, 76, 0
5, 43020, Note_on_c, 3, 74, 110
5, 43020, Note_on_c, 3, 67, 90
5, 43050, Note_on_c, 3, 67, 0
5, 43050, Note_on_c, 3, 74, 0
5, 43080, Note_on_c, 3, 76, 110
5, 43080, Note_on_c, 3, 69, 90
5, 43110, Note_on_c, 3, 69, 0
5, 43110, Note_on_c, 3, 76, 0
5, 43140, Note_on_c, 3, 74, 110
5, 43140, Note_on_c, 3, 67, 90
5, 43170, Note_on_c, 3, 67, 0
5, 43170, Note_on_c, 3, 74, 0
5, 43200, Note_on_c, 3, 76, 110
5, 43200, Note_on_c, 3, 69, 90
5, 43230, Note_on_c, 3, 69, 0
5, 43230, Note_on_c, 3, 76, 0
5, 43260, Note_on_c, 3, 74, 110
5, 43260, Note_on_c, 3, 67, 90
5, 43290, Note_on_c, 3, 67, 0
5, 43290, Note_on_c, 3, 74, 0
5, 43320, Note_on_c, 3, 76, 110
5, 43320, Note_on_c, 3, 69, 90
5, 43350, Note_on_c, 3, 69, 0
5, 43350, Note_on_c, 3, 76, 0
5, 43380, Note_on_c, 3, 74, 110
5, 43380, Note_on_c, 3, 67, 90
5, 43410, Note_on_c, 3, 67, 0
5, 43410, Note_on_c, 3, 74, 0
5, 43440, Note_on_c, 3, 76, 110
5, 43440, Note_on_c, 3, 69, 90
5, 43470, Note_on_c, 3, 69, 0
5, 43470, Note_on_c, 3, 76, 0
5, 43500, Note_on_c, 3, 74, 110
5, 43500, Note_on_c, 3, 67, 90
5, 43530, Note_on_c, 3, 67, 0
5, 43530, Note_on_c, 3, 74, 0
5, 43560, Note_on_c, 3, 76, 110
5, 43560, Note_on_c, 3, 69, 90
5, 43590, Note_on_c, 3, 69, 0
5, 43590, Note_on_c, 3, 76, 0
5, 43620, Note_on_c, 3, 74, 110
5, 43620, Note_on_c, 3, 67, 90
5, 43650, Note_on_c, 3, 67, 0
5, 43650, Note_on_c, 3, 74, 0
5, 43680, Note_on_c, 3, 76, 110
5, 43680, Note_on_c, 3, 69, 90
5, 43710, Note_on_c, 3, 69, 0
5, 43710, Note_on_c, 3, 76, 0
5, 43740, Note_on_c, 3, 74, 110
5, 43740, Note_on_c, 3, 67, 90
5, 43770, Note_on_c, 3, 67, 0
5, 43770, Note_on_c, 3, 74, 0
5, 43800, Note_on_c, 3, 76, 110
5, 43800, Note_on_c, 3, 69, 90
5, 43830, Note_on_c, 3, 69, 0
5, 43830, Note_on_c, 3, 76, 0
5, 43860, Note_on_c, 3, 74, 110
5, 43860, Note_on_c, 3, 67, 90
5, 43890, Note_on_c, 3, 67, 0
5, 43890, Note_on_c, 3, 74, 0
5, 43920, Note_on_c, 3, 76, 110
5, 43920, Note_on_c, 3, 69, 90
5, 43950, Note_on_c, 3, 69, 0
5, 43950, Note_on_c, 3, 76, 0
5, 43980, Note_on_c, 3, 74, 110
5, 43980, Note_on_c, 3, 67, 90
5, 44010, Note_on_c, 3, 67, 0
5, 44010, Note_on_c, 3, 74, 0
5, 44040, Note_on_c, 3, 76, 110
5, 44040, Note_on_c, 3, 69, 90
5, 44070, Note_on_c, 3, 69, 0
5, 44070, Note_on_c, 3, 76, 0
5, 44100, Note_on_c, 3, 74, 110
5, 44100, Note_on_c, 3, 67, 90
5, 44130, Note_on_c, 3, 67, 0
5, 44130, Note_on_c, 3, 74, 0
5, 44160, Note_on_c, 3, 76, 110
5, 44160, Note_on_c, 3, 69, 90
5, 44190, Note_on_c, 3, 69, 0
5, 44190, Note_on_c, 3, 76, 0
5, 44220, Note_on_c, 3, 74, 110
5, 44220, Note_on_c, 3, 67, 90
5, 44250, Note_on_c, 3, 67, 0
5, 44250, Note_on_c, 3, 74, 0
5, 44280, Note_on_c, 3, 76, 110
5, 44280, Note_on_c, 3, 69, 90
5, 44310, Note_on_c, 3, 69, 0
5, 44310, Note_on_c, 3, 76, 0
5, 44340, Note_on_c, 3, 74, 110
5, 44340, Note_on_c, 3, 67, 90
5, 44370, Note_on_c, 3, 67, 0
5, 44370, Note_on_c, 3, 74, 0
5, 44400, Note_on_c, 3, 76, 110
5, 44400, Note_on_c, 3, 69, 90
5, 44430, Note_on_c, 3, 69, 0
5, 44430, Note_on_c, 3, 76, 0
5, 44460, Note_on_c, 3, 74, 110
5, 44460, Note_on_c, 3, 67, 90
5, 44490, Note_on_c, 3, 67, 0
5, 44490, Note_on_c, 3, 74, 0
5, 44520, Note_on_c, 3, 76, 110
5, 44520, Note_on_c, 3, 69, 90
5, 44550, Note_on_c, 3, 69, 0
5, 44550, Note_on_c, 3, 76, 0
5, 44580, Note_on_c, 3, 74, 110
5, 44580, Note_on_c, 3, 67, 90
5, 44610, Note_on_c, 3, 67, 0
5, 44610, Note_on_c, 3, 74, 0
5, 44640, Note_on_c, 3, 76, 110
5, 44640, Note_on_c, 3, 69, 90
5, 44670, Note_on_c, 3, 69, 0
5, 44670, Note_on_c, 3, 76, 0
5, 44700, Note_on_c, 3, 74, 110
5, 44700, Note_on_c, 3, 67, 90
5, 44730, Note_on_c, 3, 67, 0
5, 44730, Note_on_c, 3, 74, 0
5, 44760, Note_on_c, 3, 76, 110
5, 44760, Note_on_c, 3, 69, 90
5, 44790, Note_on_c, 3, 69, 0
5, 44790, Note_on_c, 3, 76, 0
5, 44820, Note_on_c, 3, 74, 110
5, 44820, Note_on_c, 3, 67, 90
5, 44850, Note_on_c, 3, 67, 0
5, 44850, Note_on_c, 3, 74, 0
5, 44880, Note_on_c, 3, 76, 110
5, 44880, Note_on_c, 3, 69, 90
5, 44910, Note_on_c, 3, 69, 0
5, 44910, Note_on_c, 3, 76, 0
5, 44940, Note_on_c, 3, 67, 90
5, 44940, Note_on_c, 3, 74, 110
5, 44970, Note_on_c, 3, 74, 0
5, 44970, Note_on_c, 3, 67, 0
5, 45000, Note_on_c, 3, 69, 90
5, 45000, Note_on_c, 3, 76, 110
5, 45030, Note_on_c, 3, 76, 0
5, 45030, Note_on_c, 3, 69, 0
5, 45060, Note_on_c, 3, 67, 90
5, 45060, Note_on_c, 3, 74, 110
5, 45090, Note_on_c, 3, 74, 0
5, 45090, Note_on_c, 3, 67, 0
5, 45120, Note_on_c, 3, 69, 90
5, 45120, Note_on_c, 3, 76, 110
5, 45150, Note_on_c, 3, 76, 0
5, 45150, Note_on_c, 3, 69, 0
5, 45180, Note_on_c, 3, 67, 90
5, 45180, Note_on_c, 3, 74, 110
5, 45210, Note_on_c, 3, 74, 0
5, 45210, Note_on_c, 3, 67, 0
5, 45240, Note_on_c, 3, 69, 90
5, 45240, Note_on_c, 3, 76, 110
5, 45270, Note_on_c, 3, 76, 0
5, 45270, Note_on_c, 3, 69, 0
5, 45300, Note_on_c, 3, 67, 90
5, 45300, Note_on_c, 3, 74, 110
5, 45330, Note_on_c, 3, 74, 0
5, 45330, Note_on_c, 3, 67, 0
5, 45360, Note_on_c, 3, 76, 110
5, 45360, Note_on_c, 3, 69, 90
5, 45390, Note_on_c, 3, 69, 0
5, 45390, Note_on_c, 3, 76, 0
5, 45420, Note_on_c, 3, 74, 110
5, 45420, Note_on_c, 3, 67, 90
5, 45450, Note_on_c, 3, 67, 0
5, 45450, Note_on_c, 3, 74, 0
5, 45480, Note_on_c, 3, 76, 110
5, 45480, Note_on_c, 3, 69, 90
5, 45510, Note_on_c, 3, 69, 0
5, 45510, Note_on_c, 3, 76, 0
5, 45540, Note_on_c, 3, 74, 110
5, 45540, Note_on_c, 3, 67, 90
5, 45570, Note_on_c, 3, 67, 0
5, 45570, Note_on_c, 3, 74, 0
5, 45600, Note_on_c, 3, 76, 110
5, 45600, Note_on_c, 3, 69, 90
5, 45630, Note_on_c, 3, 69, 0
5, 45630, Note_on_c, 3, 76, 0
5, 45660, Note_on_c, 3, 74, 110
5, 45660, Note_on_c, 3, 67, 90
5, 45690, Note_on_c, 3, 67, 0
5, 45690, Note_on_c, 3, 74, 0
5, 45720, Note_on_c, 3, 76, 110
5, 45720, Note_on_c, 3, 69, 90
5, 45750, Note_on_c, 3, 69, 0
5, 45750, Note_on_c, 3, 76, 0
5, 45780, Note_on_c, 3, 74, 110
5, 45780, Note_on_c, 3, 67, 90
5, 45810, Note_on_c, 3, 67, 0
5, 45810, Note_on_c, 3, 74, 0
5, 45840, Note_on_c, 3, 76, 110
5, 45840, Note_on_c, 3, 69, 90
5, 45870, Note_on_c, 3, 69, 0
5, 45870, Note_on_c, 3, 76, 0
5, 45900, Note_on_c, 3, 74, 110
5, 45900, Note_on_c, 3, 67, 90
5, 45930, Note_on_c, 3, 67, 0
5, 45930, Note_on_c, 3, 74, 0
5, 45960, Note_on_c, 3, 76, 110
5, 45960, Note_on_c, 3, 69, 90
5, 45990, Note_on_c, 3, 69, 0
5, 45990, Note_on_c, 3, 76, 0
5, 46020, Note_on_c, 3, 74, 110
5, 46020, Note_on_c, 3, 67, 90
5, 46050, Note_on_c, 3, 67, 0
5, 46050, Note_on_c, 3, 74, 0
5, 46080, Note_on_c, 3, 76, 110
5, 46080, Note_on_c, 3, 69, 90
5, 46110, Note_on_c, 3, 69, 0
5, 46110, Note_on_c, 3, 76, 0
5, 46140, Note_on_c, 3, 74, 110
5, 46140, Note_on_c, 3, 67, 90
5, 46170, Note_on_c, 3, 67, 0
5, 46170, Note_on_c, 3, 74, 0
5, 46200, Note_on_c, 3, 76, 110
5, 46200, Note_on_c, 3, 69, 90
5, 46230, Note_on_c, 3, 69, 0
5, 46230, Note_on_c, 3, 76, 0
5, 46260, Note_on_c, 3, 74, 110
5, 46260, Note_on_c, 3, 67, 90
5, 46290, Note_on_c, 3, 67, 0
5, 46290, Note_on_c, 3, 74, 0
5, 46320, Note_on_c, 3, 69, 90
5, 46320, Note_on_c, 3, 76, 110
5, 46350, Note_on_c, 3, 76, 0
5, 46350, Note_on_c, 3, 69, 0
5, 46380, Note_on_c, 3, 67, 90
5, 46380, Note_on_c, 3, 74, 110
5, 46410, Note_on_c, 3, 74, 0
5, 46410, Note_on_c, 3, 67, 0
5, 46440, Note_on_c, 3, 69, 90
5, 46440, Note_on_c, 3, 76, 110
5, 46470, Note_on_c, 3, 76, 0
5, 46470, Note_on_c, 3, 69, 0
5, 46500, Note_on_c, 3, 67, 90
5, 46500, Note_on_c, 3, 74, 110
5, 46530, Note_on_c, 3, 74, 0
5, 46530, Note_on_c, 3, 67, 0
5, 46560, Note_on_c, 3, 69, 90
5, 46560, Note_on_c, 3, 76, 110
5, 46590, Note_on_c, 3, 76, 0
5, 46590, Note_on_c, 3, 69, 0
5, 46620, Note_on_c, 3, 67, 90
5, 46620, Note_on_c, 3, 74, 110
5, 46650, Note_on_c, 3, 74, 0
5, 46650, Note_on_c, 3, 67, 0
5, 46680, Note_on_c, 3, 69, 90
5, 46680, Note_on_c, 3, 76, 110
5, 46710, Note_on_c, 3, 76, 0
5, 46710, Note_on_c, 3, 69, 0
5, 46740, Note_on_c, 3, 67, 90
5, 46740, Note_on_c, 3, 74, 110
5, 46770, Note_on_c, 3, 74, 0
5, 46770, Note_on_c, 3, 67, 0
5, 46800, Note_on_c, 3, 76, 110
5, 46800, Note_on_c, 3, 69, 90
5, 46830, Note_on_c, 3, 69, 0
5, 46830, Note_on_c, 3, 76, 0
5, 46860, Note_on_c, 3, 74, 110
5, 46860, Note_on_c, 3, 67, 90
5, 46890, Note_on_c, 3, 67, 0
5, 46890, Note_on_c, 3, 74, 0
5, 46920, Note_on_c, 3, 76, 110
5, 46920, Note_on_c, 3, 69, 90
5, 46950, Note_on_c, 3, 69, 0
5, 46950, Note_on_c, 3, 76, 0
5, 46980, Note_on_c, 3, 74, 110
5, 46980, Note_on_c, 3, 67, 90
5, 47010, Note_on_c, 3, 67, 0
5, 47010, Note_on_c, 3, 74, 0
5, 47040, Note_on_c, 3, 76, 110
5, 47040, Note_on_c, 3, 69, 90
5, 47070, Note_on_c, 3, 69, 0
5, 47070, Note_on_c, 3, 76, 0
5, 47100, Note_on_c, 3, 74, 110
5, 47100, Note_on_c, 3, 67, 90
5, 47130, Note_on_c, 3, 67, 0
5, 47130, Note_on_c, 3, 74, 0
5, 47160, Note_on_c, 3, 76, 110
5, 47160, Note_on_c, 3, 69, 90
5, 47190, Note_on_c, 3, 69, 0
5, 47190, Note_on_c, 3, 76, 0
5, 47220, Note_on_c, 3, 74, 110
5, 47220, Note_on_c, 3, 67, 90
5, 47250, Note_on_c, 3, 67, 0
5, 47250, Note_on_c, 3, 74, 0
5, 47280, Note_on_c, 3, 76, 110
5, 47280, Note_on_c, 3, 69, 90
5, 47310, Note_on_c, 3, 69, 0
5, 47310, Note_on_c, 3, 76, 0
5, 47340, Note_on_c, 3, 74, 110
5, 47340, Note_on_c, 3, 67, 90
5, 47370, Note_on_c, 3, 67, 0
5, 47370, Note_on_c, 3, 74, 0
5, 47400, Note_on_c, 3, 76, 110
5, 47400, Note_on_c, 3, 69, 90
5, 47430, Note_on_c, 3, 69, 0
5, 47430, Note_on_c, 3, 76, 0
5, 47460, Note_on_c, 3, 74, 110
5, 47460, Note_on_c, 3, 67, 90
5, 47490, Note_on_c, 3, 67, 0
5, 47490, Note_on_c, 3, 74, 0
5, 47520, Note_on_c, 3, 76, 110
5, 47520, Note_on_c, 3, 69, 90
5, 47550, Note_on_c, 3, 69, 0
5, 47550, Note_on_c, 3, 76, 0
5, 47580, Note_on_c, 3, 74, 110
5, 47580, Note_on_c, 3, 67, 90
5, 47610, Note_on_c, 3, 67, 0
5, 47610, Note_on_c, 3, 74, 0
5, 47640, Note_on_c, 3, 76, 110
5, 47640, Note_on_c, 3, 69, 90
5, 47670, Note_on_c, 3, 69, 0
5, 47670, Note_on_c, 3, 76, 0
5, 47700, Note_on_c, 3, 74, 110
5, 47700, Note_on_c, 3, 67, 90
5, 47730, Note_on_c, 3, 67, 0
5, 47730, Note_on_c, 3, 74, 0
5, 68520, Note_on_c, 3, 76, 110
5, 68520, Note_on_c, 3, 69, 90
5, 68550, Note_on_c, 3, 69, 0
5, 68550, Note_on_c, 3, 76, 0
5, 68580, Note_on_c, 3, 67, 90
5, 68580, Note_on_c, 3, 74, 110
5, 68610, Note_on_c, 3, 74, 0
5, 68610, Note_on_c, 3, 67, 0
5, 68640, Note_on_c, 3, 69, 90
5, 68640, Note_on_c, 3, 76, 110
5, 68670, Note_on_c, 3, 76, 0
5, 68670, Note_on_c, 3, 69, 0
5, 68700, Note_on_c, 3, 67, 90
5, 68700, Note_on_c, 3, 74, 110
5, 68730, Note_on_c, 3, 74, 0
5, 68730, Note_on_c, 3, 67, 0
5, 68760, Note_on_c, 3, 69, 90
5, 68760, Note_on_c, 3, 76, 110
5, 68790, Note_on_c, 3, 76, 0
5, 68790, Note_on_c, 3, 69, 0
5, 68820, Note_on_c, 3, 67, 90
5, 68820, Note_on_c, 3, 74, 110
5, 68850, Note_on_c, 3, 74, 0
5, 68850, Note_on_c, 3, 67, 0
5, 68880, Note_on_c, 3, 69, 90
5, 68880, Note_on_c, 3, 76, 110
5, 68910, Note_on_c, 3, 76, 0
5, 68910, Note_on_c, 3, 69, 0
5, 68940, Note_on_c, 3, 67, 90
5, 68940, Note_on_c, 3, 74, 110
5, 68970, Note_on_c, 3, 74, 0
5, 68970, Note_on_c, 3, 67, 0
5, 69000, Note_on_c, 3, 76, 110
5, 69000, Note_on_c, 3, 69, 90
5, 69030, Note_on_c, 3, 69, 0
5, 69030, Note_on_c, 3, 76, 0
5, 69060, Note_on_c, 3, 74, 110
5, 69060, Note_on_c, 3, 67, 90
5, 69090, Note_on_c, 3, 67, 0
5, 69090, Note_on_c, 3, 74, 0
5, 69120, Note_on_c, 3, 76, 110
5, 69120, Note_on_c, 3, 69, 90
5, 69150, Note_on_c, 3, 69, 0
5, 69150, Note_on_c, 3, 76, 0
5, 69180, Note_on_c, 3, 74, 110
5, 69180, Note_on_c, 3, 67, 90
5, 69210, Note_on_c, 3, 67, 0
5, 69210, Note_on_c, 3, 74, 0
5, 69240, Note_on_c, 3, 76, 110
5, 69240, Note_on_c, 3, 69, 90
5, 69270, Note_on_c, 3, 69, 0
5, 69270, Note_on_c, 3, 76, 0
5, 69300, Note_on_c, 3, 74, 110
5, 69300, Note_on_c, 3, 67, 90
5, 69330, Note_on_c, 3, 67, 0
5, 69330, Note_on_c, 3, 74, 0
5, 69360, Note_on_c, 3, 76, 110
5, 69360, Note_on_c, 3, 69, 90
5, 69390, Note_on_c, 3, 69, 0
5, 69390, Note_on_c, 3, 76, 0
5, 69420, Note_on_c, 3, 74, 110
5, 69420, Note_on_c, 3, 67, 90
5, 69450, Note_on_c, 3, 67, 0
5, 69450, Note_on_c, 3, 74, 0
5, 69480, Note_on_c, 3, 76, 110
5, 69480, Note_on_c, 3, 69, 90
5, 69510, Note_on_c, 3, 69, 0
5, 69510, Note_on_c, 3, 76, 0
5, 69540, Note_on_c, 3, 74, 110
5, 69540, Note_on_c, 3, 67, 90
5, 69570, Note_on_c, 3, 67, 0
5, 69570, Note_on_c, 3, 74, 0
5, 69600, Note_on_c, 3, 76, 110
5, 69600, Note_on_c, 3, 69, 90
5, 69630, Note_on_c, 3, 69, 0
5, 69630, Note_on_c, 3, 76, 0
5, 69660, Note_on_c, 3, 74, 110
5, 69660, Note_on_c, 3, 67, 90
5, 69690, Note_on_c, 3, 67, 0
5, 69690, Note_on_c, 3, 74, 0
5, 69720, Note_on_c, 3, 76, 110
5, 69720, Note_on_c, 3, 69, 90
5, 69750, Note_on_c, 3, 69, 0
5, 69750, Note_on_c, 3, 76, 0
5, 69780, Note_on_c, 3, 74, 110
5, 69780, Note_on_c, 3, 67, 90
5, 69810, Note_on_c, 3, 67, 0
5, 69810, Note_on_c, 3, 74, 0
5, 69840, Note_on_c, 3, 76, 110
5, 69840, Note_on_c, 3, 69, 90
5, 69870, Note_on_c, 3, 69, 0
5, 69870, Note_on_c, 3, 76, 0
5, 69900, Note_on_c, 3, 74, 110
5, 69900, Note_on_c, 3, 67, 90
5, 69930, Note_on_c, 3, 67, 0
5, 69930, Note_on_c, 3, 74, 0
5, 69960, Note_on_c, 3, 76, 110
5, 69960, Note_on_c, 3, 69, 90
5, 69990, Note_on_c, 3, 69, 0
5, 69990, Note_on_c, 3, 76, 0
5, 70020, Note_on_c, 3, 74, 110
5, 70020, Note_on_c, 3, 67, 90
5, 70050, Note_on_c, 3, 67, 0
5, 70050, Note_on_c, 3, 74, 0
5, 70080, Note_on_c, 3, 76, 110
5, 70080, Note_on_c, 3, 69, 90
5, 70110, Note_on_c, 3, 69, 0
5, 70110, Note_on_c, 3, 76, 0
5, 70140, Note_on_c, 3, 74, 110
5, 70140, Note_on_c, 3, 67, 90
5, 70170, Note_on_c, 3, 67, 0
5, 70170, Note_on_c, 3, 74, 0
5, 70200, Note_on_c, 3, 76, 110
5, 70200, Note_on_c, 3, 69, 90
5, 70230, Note_on_c, 3, 69, 0
5, 70230, Note_on_c, 3, 76, 0
5, 70260, Note_on_c, 3, 74, 110
5, 70260, Note_on_c, 3, 67, 90
5, 70290, Note_on_c, 3, 67, 0
5, 70290, Note_on_c, 3, 74, 0
5, 70320, Note_on_c, 3, 76, 110
5, 70320, Note_on_c, 3, 69, 90
5, 70350, Note_on_c, 3, 69, 0
5, 70350, Note_on_c, 3, 76, 0
5, 70380, Note_on_c, 3, 74, 110
5, 70380, Note_on_c, 3, 67, 90
5, 70410, Note_on_c, 3, 67, 0
5, 70410, Note_on_c, 3, 74, 0
5, 70440, Note_on_c, 3, 76, 110
5, 70440, Note_on_c, 3, 69, 90
5, 70470, Note_on_c, 3, 69, 0
5, 70470, Note_on_c, 3, 76, 0
5, 70500, Note_on_c, 3, 74, 110
5, 70500, Note_on_c, 3, 67, 90
5, 70530, Note_on_c, 3, 67, 0
5, 70530, Note_on_c, 3, 74, 0
5, 70560, Note_on_c, 3, 76, 110
5, 70560, Note_on_c, 3, 69, 90
5, 70590, Note_on_c, 3, 69, 0
5, 70590, Note_on_c, 3, 76, 0
5, 70620, Note_on_c, 3, 74, 110
5, 70620, Note_on_c, 3, 67, 90
5, 70650, Note_on_c, 3, 67, 0
5, 70650, Note_on_c, 3, 74, 0
5, 70680, Note_on_c, 3, 76, 110
5, 70680, Note_on_c, 3, 69, 90
5, 70710, Note_on_c, 3, 69, 0
5, 70710, Note_on_c, 3, 76, 0
5, 70740, Note_on_c, 3, 74, 110
5, 70740, Note_on_c, 3, 67, 90
5, 70770, Note_on_c, 3, 67, 0
5, 70770, Note_on_c, 3, 74, 0
5, 70800, Note_on_c, 3, 76, 110
5, 70800, Note_on_c, 3, 69, 90
5, 70830, Note_on_c, 3, 69, 0
5, 70830, Note_on_c, 3, 76, 0
5, 70860, Note_on_c, 3, 74, 110
5, 70860, Note_on_c, 3, 67, 90
5, 70890, Note_on_c, 3, 67, 0
5, 70890, Note_on_c, 3, 74, 0
5, 70920, Note_on_c, 3, 76, 110
5, 70920, Note_on_c, 3, 69, 90
5, 70950, Note_on_c, 3, 69, 0
5, 70950, Note_on_c, 3, 76, 0
5, 70980, Note_on_c, 3, 74, 110
5, 70980, Note_on_c, 3, 67, 90
5, 71010, Note_on_c, 3, 67, 0
5, 71010, Note_on_c, 3, 74, 0
5, 71040, Note_on_c, 3, 76, 110
5, 71040, Note_on_c, 3, 69, 90
5, 71070, Note_on_c, 3, 69, 0
5, 71070, Note_on_c, 3, 76, 0
5, 71100, Note_on_c, 3, 74, 110
5, 71100, Note_on_c, 3, 67, 90
5, 71130, Note_on_c, 3, 67, 0
5, 71130, Note_on_c, 3, 74, 0
5, 71160, Note_on_c, 3, 76, 110
5, 71160, Note_on_c, 3, 69, 90
5, 71190, Note_on_c, 3, 69, 0
5, 71190, Note_on_c, 3, 76, 0
5, 71220, Note_on_c, 3, 74, 110
5, 71220, Note_on_c, 3, 67, 90
5, 71250, Note_on_c, 3, 67, 0
5, 71250, Note_on_c, 3, 74, 0
5, 71280, Note_on_c, 3, 76, 110
5, 71280, Note_on_c, 3, 69, 90
5, 71310, Note_on_c, 3, 69, 0
5, 71310, Note_on_c, 3, 76, 0
5, 71340, Note_on_c, 3, 74, 110
5, 71340, Note_on_c, 3, 67, 90
5, 71370, Note_on_c, 3, 67, 0
5, 71370, Note_on_c, 3, 74, 0
5, 71400, Note_on_c, 3, 69, 80
5, 71430, Note_on_c, 3, 69, 0
5, 71460, Note_on_c, 3, 67, 80
5, 71490, Note_on_c, 3, 67, 0
5, 71520, Note_on_c, 3, 69, 80
5, 71550, Note_on_c, 3, 69, 0
5, 71580, Note_on_c, 3, 67, 80
5, 71610, Note_on_c, 3, 67, 0
5, 71640, Note_on_c, 3, 69, 80
5, 71670, Note_on_c, 3, 69, 0
5, 71700, Note_on_c, 3, 67, 80
5, 71730, Note_on_c, 3, 67, 0
5, 71760, Note_on_c, 3, 69, 80
5, 71790, Note_on_c, 3, 69, 0
5, 71820, Note_on_c, 3, 67, 80
5, 71850, Note_on_c, 3, 67, 0
5, 71880, Note_on_c, 3, 69, 80
5, 71910, Note_on_c, 3, 69, 0
5, 71940, Note_on_c, 3, 67, 80
5, 71970, Note_on_c, 3, 67, 0
5, 72000, Note_on_c, 3, 69, 80
5, 72030, Note_on_c, 3, 69, 0
5, 72060, Note_on_c, 3, 67, 80
5, 72090, Note_on_c, 3, 67, 0
5, 72120, Note_on_c, 3, 69, 80
5, 72150, Note_on_c, 3, 69, 0
5, 72180, Note_on_c, 3, 67, 80
5, 72210, Note_on_c, 3, 67, 0
5, 72240, Note_on_c, 3, 69, 80
5, 72270, Note_on_c, 3, 69, 0
5, 72300, Note_on_c, 3, 67, 80
5, 72330, Note_on_c, 3, 67, 0
5, 72360, Note_on_c, 3, 69, 80
5, 72390, Note_on_c, 3, 69, 0
5, 72420, Note_on_c, 3, 67, 80
5, 72450, Note_on_c, 3, 67, 0
5, 72480, Note_on_c, 3, 69, 80
5, 72510, Note_on_c, 3, 69, 0
5, 72540, Note_on_c, 3, 67, 80
5, 72570, Note_on_c, 3, 67, 0
5, 72600, Note_on_c, 3, 69, 80
5, 72630, Note_on_c, 3, 69, 0
5, 72660, Note_on_c, 3, 67, 80
5, 72690, Note_on_c, 3, 67, 0
5, 72720, Note_on_c, 3, 69, 80
5, 72750, Note_on_c, 3, 69, 0
5, 72780, Note_on_c, 3, 67, 80
5, 72810, Note_on_c, 3, 67, 0
5, 72840, Note_on_c, 3, 69, 80
5, 72870, Note_on_c, 3, 69, 0
5, 72900, Note_on_c, 3, 67, 80
5, 72930, Note_on_c, 3, 67, 0
5, 72960, Note_on_c, 3, 69, 80
5, 72990, Note_on_c, 3, 69, 0
5, 73020, Note_on_c, 3, 67, 80
5, 73050, Note_on_c, 3, 67, 0
5, 73080, Note_on_c, 3, 69, 80
5, 73110, Note_on_c, 3, 69, 0
5, 73140, Note_on_c, 3, 67, 80
5, 73170, Note_on_c, 3, 67, 0
5, 73200, Note_on_c, 3, 69, 80
5, 73230, Note_on_c, 3, 69, 0
5, 73260, Note_on_c, 3, 67, 80
5, 73290, Note_on_c, 3, 67, 0
5, 73320, Note_on_c, 3, 69, 80
5, 73350, Note_on_c, 3, 69, 0
5, 73380, Note_on_c, 3, 67, 80
5, 73410, Note_on_c, 3, 67, 0
5, 73440, Note_on_c, 3, 69, 80
5, 73470, Note_on_c, 3, 69, 0
5, 73500, Note_on_c, 3, 67, 80
5, 73530, Note_on_c, 3, 67, 0
5, 73560, Note_on_c, 3, 69, 80
5, 73590, Note_on_c, 3, 69, 0
5, 73620, Note_on_c, 3, 67, 80
5, 73650, Note_on_c, 3, 67, 0
5, 73680, Note_on_c, 3, 69, 80
5, 73710, Note_on_c, 3, 69, 0
5, 73740, Note_on_c, 3, 67, 80
5, 73770, Note_on_c, 3, 67, 0
5, 73800, Note_on_c, 3, 69, 80
5, 73830, Note_on_c, 3, 69, 0
5, 73860, Note_on_c, 3, 67, 80
5, 73890, Note_on_c, 3, 67, 0
5, 73920, Note_on_c, 3, 69, 80
5, 73950, Note_on_c, 3, 69, 0
5, 73980, Note_on_c, 3, 67, 80
5, 74010, Note_on_c, 3, 67, 0
5, 74040, Note_on_c, 3, 69, 80
5, 74070, Note_on_c, 3, 69, 0
5, 74100, Note_on_c, 3, 67, 80
5, 74130, Note_on_c, 3, 67, 0
5, 74160, Note_on_c, 3, 69, 80
5, 74190, Note_on_c, 3, 69, 0
5, 74220, Note_on_c, 3, 67, 80
5, 74250, Note_on_c, 3, 67, 0
5, 74280, Note_on_c, 3, 69, 80
5, 74310, Note_on_c, 3, 69, 0
5, 74340, Note_on_c, 3, 67, 80
5, 74370, Note_on_c, 3, 67, 0
5, 74400, Note_on_c, 3, 69, 80
5, 74430, Note_on_c, 3, 69, 0
5, 74460, Note_on_c, 3, 67, 80
5, 74490, Note_on_c, 3, 67, 0
5, 74520, Note_on_c, 3, 69, 80
5, 74550, Note_on_c, 3, 69, 0
5, 74580, Note_on_c, 3, 67, 80
5, 74610, Note_on_c, 3, 67, 0
5, 74640, Note_on_c, 3, 69, 80
5, 74670, Note_on_c, 3, 69, 0
5, 74700, Note_on_c, 3, 67, 80
5, 74730, Note_on_c, 3, 67, 0
5, 74760, Note_on_c, 3, 69, 80
5, 74790, Note_on_c, 3, 69, 0
5, 74820, Note_on_c, 3, 67, 80
5, 74850, Note_on_c, 3, 67, 0
5, 74880, Note_on_c, 3, 69, 80
5, 74910, Note_on_c, 3, 69, 0
5, 74940, Note_on_c, 3, 67, 80
5, 74970, Note_on_c, 3, 67, 0
5, 75000, Note_on_c, 3, 69, 80
5, 75030, Note_on_c, 3, 69, 0
5, 75060, Note_on_c, 3, 67, 80
5, 75090, Note_on_c, 3, 67, 0
5, 75120, Note_on_c, 3, 69, 80
5, 75150, Note_on_c, 3, 69, 0
5, 75180, Note_on_c, 3, 67, 80
5, 75210, Note_on_c, 3, 67, 0
5, 75240, Note_on_c, 3, 69, 80
5, 75270, Note_on_c, 3, 69, 0
5, 75300, Note_on_c, 3, 67, 80
5, 75330, Note_on_c, 3, 67, 0
5, 75360, Note_on_c, 3, 69, 80
5, 75390, Note_on_c, 3, 69, 0
5, 75420, Note_on_c, 3, 67, 80
5, 75450, Note_on_c, 3, 67, 0
5, 75480, Note_on_c, 3, 69, 80
5, 75510, Note_on_c, 3, 69, 0
5, 75540, Note_on_c, 3, 67, 80
5, 75570, Note_on_c, 3, 67, 0
5, 75600, Note_on_c, 3, 69, 80
5, 75630, Note_on_c, 3, 69, 0
5, 75660, Note_on_c, 3, 67, 80
5, 75690, Note_on_c, 3, 67, 0
5, 75720, Note_on_c, 3, 69, 80
5, 75750, Note_on_c, 3, 69, 0
5, 75780, Note_on_c, 3, 67, 80
5, 75810, Note_on_c, 3, 67, 0
5, 75840, Note_on_c, 3, 69, 80
5, 75870, Note_on_c, 3, 69, 0
5, 75900, Note_on_c, 3, 67, 80
5, 75930, Note_on_c, 3, 67, 0
5, 75960, Note_on_c, 3, 69, 80
5, 75990, Note_on_c, 3, 69, 0
5, 76020, Note_on_c, 3, 67, 80
5, 76050, Note_on_c, 3, 67, 0
5, 76080, Note_on_c, 3, 69, 80
5, 76110, Note_on_c, 3, 69, 0
5, 76140, Note_on_c, 3, 67, 80
5, 76170, Note_on_c, 3, 67, 0
5, 76200, Note_on_c, 3, 69, 80
5, 76230, Note_on_c, 3, 69, 0
5, 76260, Note_on_c, 3, 67, 80
5, 76290, Note_on_c, 3, 67, 0
5, 76320, Note_on_c, 3, 69, 80
5, 76350, Note_on_c, 3, 69, 0
5, 76380, Note_on_c, 3, 67, 80
5, 76410, Note_on_c, 3, 67, 0
5, 76440, Note_on_c, 3, 69, 80
5, 76470, Note_on_c, 3, 69, 0
5, 76500, Note_on_c, 3, 67, 80
5, 76530, Note_on_c, 3, 67, 0
5, 76560, Note_on_c, 3, 69, 80
5, 76590, Note_on_c, 3, 69, 0
5, 76620, Note_on_c, 3, 67, 80
5, 76650, Note_on_c, 3, 67, 0
5, 76680, Note_on_c, 3, 69, 80
5, 76710, Note_on_c, 3, 69, 0
5, 76740, Note_on_c, 3, 67, 80
5, 76770, Note_on_c, 3, 67, 0
5, 76800, Note_on_c, 3, 69, 80
5, 76830, Note_on_c, 3, 69, 0
5, 76860, Note_on_c, 3, 67, 80
5, 76890, Note_on_c, 3, 67, 0
5, 76920, Note_on_c, 3, 69, 80
5, 76950, Note_on_c, 3, 69, 0
5, 76980, Note_on_c, 3, 67, 80
5, 77010, Note_on_c, 3, 67, 0
5, 77040, Note_on_c, 3, 69, 80
5, 77070, Note_on_c, 3, 69, 0
5, 77100, Note_on_c, 3, 67, 80
5, 77130, Note_on_c, 3, 67, 0
5, 77160, Note_on_c, 3, 69, 80
5, 77190, Note_on_c, 3, 69, 0
5, 77220, Note_on_c, 3, 67, 80
5, 77250, Note_on_c, 3, 67, 0
5, 77280, Note_on_c, 3, 69, 80
5, 77310, Note_on_c, 3, 69, 0
5, 77340, Note_on_c, 3, 67, 80
5, 77370, Note_on_c, 3, 67, 0
5, 77400, Note_on_c, 3, 69, 80
5, 77430, Note_on_c, 3, 69, 0
5, 77460, Note_on_c, 3, 67, 80
5, 77490, Note_on_c, 3, 67, 0
5, 77520, Note_on_c, 3, 69, 80
5, 77550, Note_on_c, 3, 69, 0
5, 77580, Note_on_c, 3, 67, 80
5, 77610, Note_on_c, 3, 67, 0
5, 77640, Note_on_c, 3, 69, 80
5, 77670, Note_on_c, 3, 69, 0
5, 77700, Note_on_c, 3, 67, 80
5, 77730, Note_on_c, 3, 67, 0
5, 77760, Note_on_c, 3, 69, 80
5, 77790, Note_on_c, 3, 69, 0
5, 77820, Note_on_c, 3, 67, 80
5, 77850, Note_on_c, 3, 67, 0
5, 77880, Note_on_c, 3, 69, 80
5, 77910, Note_on_c, 3, 69, 0
5, 77940, Note_on_c, 3, 67, 80
5, 77970, Note_on_c, 3, 67, 0
5, 78000, Note_on_c, 3, 69, 80
5, 78030, Note_on_c, 3, 69, 0
5, 78060, Note_on_c, 3, 67, 80
5, 78090, Note_on_c, 3, 67, 0
5, 78120, Note_on_c, 3, 69, 80
5, 78150, Note_on_c, 3, 69, 0
5, 78180, Note_on_c, 3, 67, 80
5, 78210, Note_on_c, 3, 67, 0
5, 78240, Note_on_c, 3, 69, 80
5, 78270, Note_on_c, 3, 69, 0
5, 78300, Note_on_c, 3, 67, 80
5, 78330, Note_on_c, 3, 67, 0
5, 78360, Note_on_c, 3, 69, 80
5, 78390, Note_on_c, 3, 69, 0
5, 78420, Note_on_c, 3, 67, 80
5, 78450, Note_on_c, 3, 67, 0
5, 78480, Note_on_c, 3, 69, 80
5, 78510, Note_on_c, 3, 69, 0
5, 78540, Note_on_c, 3, 67, 80
5, 78570, Note_on_c, 3, 67, 0
5, 78600, Note_on_c, 3, 69, 80
5, 78630, Note_on_c, 3, 69, 0
5, 78660, Note_on_c, 3, 67, 80
5, 78690, Note_on_c, 3, 67, 0
5, 78720, Note_on_c, 3, 69, 80
5, 78750, Note_on_c, 3, 69, 0
5, 78780, Note_on_c, 3, 67, 80
5, 78810, Note_on_c, 3, 67, 0
5, 78840, Note_on_c, 3, 69, 80
5, 78870, Note_on_c, 3, 69, 0
5, 78900, Note_on_c, 3, 67, 80
5, 78930, Note_on_c, 3, 67, 0
5, 78960, Note_on_c, 3, 69, 80
5, 78990, Note_on_c, 3, 69, 0
5, 79020, Note_on_c, 3, 67, 80
5, 79050, Note_on_c, 3, 67, 0
5, 79080, Note_on_c, 3, 69, 80
5, 79110, Note_on_c, 3, 69, 0
5, 79140, Note_on_c, 3, 67, 80
5, 79170, Note_on_c, 3, 67, 0
5, 79200, Note_on_c, 3, 69, 80
5, 79230, Note_on_c, 3, 69, 0
5, 79260, Note_on_c, 3, 67, 80
5, 79290, Note_on_c, 3, 67, 0
5, 79320, Note_on_c, 3, 69, 80
5, 79350, Note_on_c, 3, 69, 0
5, 79380, Note_on_c, 3, 67, 80
5, 79410, Note_on_c, 3, 67, 0
5, 79440, Note_on_c, 3, 69, 80
5, 79470, Note_on_c, 3, 69, 0
5, 79500, Note_on_c, 3, 67, 80
5, 79530, Note_on_c, 3, 67, 0
5, 79560, Note_on_c, 3, 69, 80
5, 79590, Note_on_c, 3, 69, 0
5, 79620, Note_on_c, 3, 67, 80
5, 79650, Note_on_c, 3, 67, 0
5, 79680, Note_on_c, 3, 69, 80
5, 79710, Note_on_c, 3, 69, 0
5, 79740, Note_on_c, 3, 67, 80
5, 79770, Note_on_c, 3, 67, 0
5, 79800, Note_on_c, 3, 69, 80
5, 79830, Note_on_c, 3, 69, 0
5, 79860, Note_on_c, 3, 67, 80
5, 79890, Note_on_c, 3, 67, 0
5, 79920, Note_on_c, 3, 69, 80
5, 79950, Note_on_c, 3, 69, 0
5, 79980, Note_on_c, 3, 67, 80
5, 80010, Note_on_c, 3, 67, 0
5, 80040, Note_on_c, 3, 69, 80
5, 80070, Note_on_c, 3, 69, 0
5, 80100, Note_on_c, 3, 67, 80
5, 80130, Note_on_c, 3, 67, 0
5, 80160, Note_on_c, 3, 69, 80
5, 80190, Note_on_c, 3, 69, 0
5, 80220, Note_on_c, 3, 67, 80
5, 80250, Note_on_c, 3, 67, 0
5, 80280, Note_on_c, 3, 69, 80
5, 80310, Note_on_c, 3, 69, 0
5, 80340, Note_on_c, 3, 67, 80
5, 80370, Note_on_c, 3, 67, 0
5, 80400, Note_on_c, 3, 69, 80
5, 80430, Note_on_c, 3, 69, 0
5, 80460, Note_on_c, 3, 67, 80
5, 80490, Note_on_c, 3, 67, 0
5, 80520, Note_on_c, 3, 69, 80
5, 80550, Note_on_c, 3, 69, 0
5, 80580, Note_on_c, 3, 67, 80
5, 80610, Note_on_c, 3, 67, 0
5, 80640, Note_on_c, 3, 69, 80
5, 80670, Note_on_c, 3, 69, 0
5, 80700, Note_on_c, 3, 67, 80
5, 80730, Note_on_c, 3, 67, 0
5, 80760, Note_on_c, 3, 69, 80
5, 80790, Note_on_c, 3, 69, 0
5, 80820, Note_on_c, 3, 67, 80
5, 80850, Note_on_c, 3, 67, 0
5, 80880, Note_on_c, 3, 69, 80
5, 80910, Note_on_c, 3, 69, 0
5, 80940, Note_on_c, 3, 67, 80
5, 80970, Note_on_c, 3, 67, 0
5, 81000, Note_on_c, 3, 69, 80
5, 81030, Note_on_c, 3, 69, 0
5, 81060, Note_on_c, 3, 67, 80
5, 81090, Note_on_c, 3, 67, 0
5, 81120, Note_on_c, 3, 69, 80
5, 81150, Note_on_c, 3, 69, 0
5, 81180, Note_on_c, 3, 67, 80
5, 81210, Note_on_c, 3, 67, 0
5, 81240, Note_on_c, 3, 69, 80
5, 81270, Note_on_c, 3, 69, 0
5, 81300, Note_on_c, 3, 67, 80
5, 81330, Note_on_c, 3, 67, 0
5, 81360, Note_on_c, 3, 69, 80
5, 81390, Note_on_c, 3, 69, 0
5, 81420, Note_on_c, 3, 67, 80
5, 81450, Note_on_c, 3, 67, 0
5, 81480, Note_on_c, 3, 69, 80
5, 81510, Note_on_c, 3, 69, 0
5, 81540, Note_on_c, 3, 67, 80
5, 81570, Note_on_c, 3, 67, 0
5, 81600, Note_on_c, 3, 69, 80
5, 81630, Note_on_c, 3, 69, 0
5, 81660, Note_on_c, 3, 67, 80
5, 81690, Note_on_c, 3, 67, 0
5, 81720, Note_on_c, 3, 69, 80
5, 81750, Note_on_c, 3, 69, 0
5, 81780, Note_on_c, 3, 67, 80
5, 81810, Note_on_c, 3, 67, 0
5, 81840, Note_on_c, 3, 69, 80
5, 81870, Note_on_c, 3, 69, 0
5, 81900, Note_on_c, 3, 67, 80
5, 81930, Note_on_c, 3, 67, 0
5, 81960, Note_on_c, 3, 69, 80
5, 81990, Note_on_c, 3, 69, 0
5, 82020, Note_on_c, 3, 67, 80
5, 82050, Note_on_c, 3, 67, 0
5, 82080, Note_on_c, 3, 69, 80
5, 82110, Note_on_c, 3, 69, 0
5, 82140, Note_on_c, 3, 67, 80
5, 82170, Note_on_c, 3, 67, 0
5, 82200, Note_on_c, 3, 69, 80
5, 82230, Note_on_c, 3, 69, 0
5, 82260, Note_on_c, 3, 67, 80
5, 82290, Note_on_c, 3, 67, 0
5, 82320, Note_on_c, 3, 69, 80
5, 82350, Note_on_c, 3, 69, 0
5, 82380, Note_on_c, 3, 67, 80
5, 82410, Note_on_c, 3, 67, 0
5, 82440, Note_on_c, 3, 69, 80
5, 82470, Note_on_c, 3, 69, 0
5, 82500, Note_on_c, 3, 67, 80
5, 82530, Note_on_c, 3, 67, 0
5, 82560, Note_on_c, 3, 69, 80
5, 82590, Note_on_c, 3, 69, 0
5, 82620, Note_on_c, 3, 67, 80
5, 82650, Note_on_c, 3, 67, 0
5, 82680, Note_on_c, 3, 69, 80
5, 82710, Note_on_c, 3, 69, 0
5, 82740, Note_on_c, 3, 67, 80
5, 82770, Note_on_c, 3, 67, 0
5, 82800, Note_on_c, 3, 69, 80
5, 82830, Note_on_c, 3, 69, 0
5, 82860, Note_on_c, 3, 67, 80
5, 82890, Note_on_c, 3, 67, 0
5, 82920, Note_on_c, 3, 76, 110
5, 82920, Note_on_c, 3, 69, 90
5, 82950, Note_on_c, 3, 69, 0
5, 82950, Note_on_c, 3, 76, 0
5, 82980, Note_on_c, 3, 67, 90
5, 82980, Note_on_c, 3, 74, 110
5, 83010, Note_on_c, 3, 74, 0
5, 83010, Note_on_c, 3, 67, 0
5, 83040, Note_on_c, 3, 69, 90
5, 83040, Note_on_c, 3, 76, 110
5, 83070, Note_on_c, 3, 76, 0
5, 83070, Note_on_c, 3, 69, 0
5, 83100, Note_on_c, 3, 67, 90
5, 83100, Note_on_c, 3, 74, 110
5, 83130, Note_on_c, 3, 74, 0
5, 83130, Note_on_c, 3, 67, 0
5, 83160, Note_on_c, 3, 69, 90
5, 83160, Note_on_c, 3, 76, 110
5, 83190, Note_on_c, 3, 76, 0
5, 83190, Note_on_c, 3, 69, 0
5, 83220, Note_on_c, 3, 67, 90
5, 83220, Note_on_c, 3, 74, 110
5, 83250, Note_on_c, 3, 74, 0
5, 83250, Note_on_c, 3, 67, 0
5, 83280, Note_on_c, 3, 69, 90
5, 83280, Note_on_c, 3, 76, 110
5, 83310, Note_on_c, 3, 76, 0
5, 83310, Note_on_c, 3, 69, 0
5, 83340, Note_on_c, 3, 67, 90
5, 83340, Note_on_c, 3, 74, 110
5, 83370, Note_on_c, 3, 74, 0
5, 83370, Note_on_c, 3, 67, 0
5, 83400, Note_on_c, 3, 76, 110
5, 83400, Note_on_c, 3, 69, 90
5, 83430, Note_on_c, 3, 69, 0
5, 83430, Note_on_c, 3, 76, 0
5, 83460, Note_on_c, 3, 74, 110
5, 83460, Note_on_c, 3, 67, 90
5, 83490, Note_on_c, 3, 67, 0
5, 83490, Note_on_c, 3, 74, 0
5, 83520, Note_on_c, 3, 76, 110
5, 83520, Note_on_c, 3, 69, 90
5, 83550, Note_on_c, 3, 69, 0
5, 83550, Note_on_c, 3, 76, 0
5, 83580, Note_on_c, 3, 74, 110
5, 83580, Note_on_c, 3, 67, 90
5, 83610, Note_on_c, 3, 67, 0
5, 83610, Note_on_c, 3, 74, 0
5, 83640, Note_on_c, 3, 76, 110
5, 83640, Note_on_c, 3, 69, 90
5, 83670, Note_on_c, 3, 69, 0
5, 83670, Note_on_c, 3, 76, 0
5, 83700, Note_on_c, 3, 74, 110
5, 83700, Note_on_c, 3, 67, 90
5, 83730, Note_on_c, 3, 67, 0
5, 83730, Note_on_c, 3, 74, 0
5, 83760, Note_on_c, 3, 76, 110
5, 83760, Note_on_c, 3, 69, 90
5, 83790, Note_on_c, 3, 69, 0
5, 83790, Note_on_c, 3, 76, 0
5, 83820, Note_on_c, 3, 74, 110
5, 83820, Note_on_c, 3, 67, 90
5, 83850, Note_on_c, 3, 67, 0
5, 83850, Note_on_c, 3, 74, 0
5, 83880, Note_on_c, 3, 76, 110
5, 83880, Note_on_c, 3, 69, 90
5, 83910, Note_on_c, 3, 69, 0
5, 83910, Note_on_c, 3, 76, 0
5, 83940, Note_on_c, 3, 74, 110
5, 83940, Note_on_c, 3, 67, 90
5, 83970, Note_on_c, 3, 67, 0
5, 83970, Note_on_c, 3, 74, 0
5, 84000, Note_on_c, 3, 76, 110
5, 84000, Note_on_c, 3, 69, 90
5, 84030, Note_on_c, 3, 69, 0
5, 84030, Note_on_c, 3, 76, 0
5, 84060, Note_on_c, 3, 74, 110
5, 84060, Note_on_c, 3, 67, 90
5, 84090, Note_on_c, 3, 67, 0
5, 84090, Note_on_c, 3, 74, 0
5, 84120, Note_on_c, 3, 76, 110
5, 84120, Note_on_c, 3, 69, 90
5, 84150, Note_on_c, 3, 69, 0
5, 84150, Note_on_c, 3, 76, 0
5, 84180, Note_on_c, 3, 74, 110
5, 84180, Note_on_c, 3, 67, 90
5, 84210, Note_on_c, 3, 67, 0
5, 84210, Note_on_c, 3, 74, 0
5, 84240, Note_on_c, 3, 76, 110
5, 84240, Note_on_c, 3, 69, 90
5, 84270, Note_on_c, 3, 69, 0
5, 84270, Note_on_c, 3, 76, 0
5, 84300, Note_on_c, 3, 74, 110
5, 84300, Note_on_c, 3, 67, 90
5, 84330, Note_on_c, 3, 67, 0
5, 84330, Note_on_c, 3, 74, 0
5, 84360, Note_on_c, 3, 76, 110
5, 84360, Note_on_c, 3, 69, 90
5, 84390, Note_on_c, 3, 69, 0
5, 84390, Note_on_c, 3, 76, 0
5, 84420, Note_on_c, 3, 74, 110
5, 84420, Note_on_c, 3, 67, 90
5, 84450, Note_on_c, 3, 67, 0
5, 84450, Note_on_c, 3, 74, 0
5, 84480, Note_on_c, 3, 76, 110
5, 84480, Note_on_c, 3, 69, 90
5, 84510, Note_on_c, 3, 69, 0
5, 84510, Note_on_c, 3, 76, 0
5, 84540, Note_on_c, 3, 74, 110
5, 84540, Note_on_c, 3, 67, 90
5, 84570, Note_on_c, 3, 67, 0
5, 84570, Note_on_c, 3, 74, 0
5, 84600, Note_on_c, 3, 76, 110
5, 84600, Note_on_c, 3, 69, 90
5, 84630, Note_on_c, 3, 69, 0
5, 84630, Note_on_c, 3, 76, 0
5, 84660, Note_on_c, 3, 74, 110
5, 84660, Note_on_c, 3, 67, 90
5, 84690, Note_on_c, 3, 67, 0
5, 84690, Note_on_c, 3, 74, 0
5, 84720, Note_on_c, 3, 76, 110
5, 84720, Note_on_c, 3, 69, 90
5, 84750, Note_on_c, 3, 69, 0
5, 84750, Note_on_c, 3, 76, 0
5, 84780, Note_on_c, 3, 74, 110
5, 84780, Note_on_c, 3, 67, 90
5, 84810, Note_on_c, 3, 67, 0
5, 84810, Note_on_c, 3, 74, 0
5, 84840, Note_on_c, 3, 76, 110
5, 84840, Note_on_c, 3, 69, 90
5, 84870, Note_on_c, 3, 69, 0
5, 84870, Note_on_c, 3, 76, 0
5, 84900, Note_on_c, 3, 74, 110
5, 84900, Note_on_c, 3, 67, 90
5, 84930, Note_on_c, 3, 67, 0
5, 84930, Note_on_c, 3, 74, 0
5, 84960, Note_on_c, 3, 76, 110
5, 84960, Note_on_c, 3, 69, 90
5, 84990, Note_on_c, 3, 69, 0
5, 84990, Note_on_c, 3, 76, 0
5, 85020, Note_on_c, 3, 74, 110
5, 85020, Note_on_c, 3, 67, 90
5, 85050, Note_on_c, 3, 67, 0
5, 85050, Note_on_c, 3, 74, 0
5, 85080, Note_on_c, 3, 76, 110
5, 85080, Note_on_c, 3, 69, 90
5, 85110, Note_on_c, 3, 69, 0
5, 85110, Note_on_c, 3, 76, 0
5, 85140, Note_on_c, 3, 74, 110
5, 85140, Note_on_c, 3, 67, 90
5, 85170, Note_on_c, 3, 67, 0
5, 85170, Note_on_c, 3, 74, 0
5, 85200, Note_on_c, 3, 76, 110
5, 85200, Note_on_c, 3, 69, 90
5, 85230, Note_on_c, 3, 69, 0
5, 85230, Note_on_c, 3, 76, 0
5, 85260, Note_on_c, 3, 74, 110
5, 85260, Note_on_c, 3, 67, 90
5, 85290, Note_on_c, 3, 67, 0
5, 85290, Note_on_c, 3, 74, 0
5, 85320, Note_on_c, 3, 76, 110
5, 85320, Note_on_c, 3, 69, 90
5, 85350, Note_on_c, 3, 69, 0
5, 85350, Note_on_c, 3, 76, 0
5, 85380, Note_on_c, 3, 74, 110
5, 85380, Note_on_c, 3, 67, 90
5, 85410, Note_on_c, 3, 67, 0
5, 85410, Note_on_c, 3, 74, 0
5, 85440, Note_on_c, 3, 76, 110
5, 85440, Note_on_c, 3, 69, 90
5, 85470, Note_on_c, 3, 69, 0
5, 85470, Note_on_c, 3, 76, 0
5, 85500, Note_on_c, 3, 74, 110
5, 85500, Note_on_c, 3, 67, 90
5, 85530, Note_on_c, 3, 67, 0
5, 85530, Note_on_c, 3, 74, 0
5, 85560, Note_on_c, 3, 76, 110
5, 85560, Note_on_c, 3, 69, 90
5, 85590, Note_on_c, 3, 69, 0
5, 85590, Note_on_c, 3, 76, 0
5, 85620, Note_on_c, 3, 74, 110
5, 85620, Note_on_c, 3, 67, 90
5, 85650, Note_on_c, 3, 67, 0
5, 85650, Note_on_c, 3, 74, 0
5, 85680, Note_on_c, 3, 76, 110
5, 85680, Note_on_c, 3, 69, 90
5, 85710, Note_on_c, 3, 69, 0
5, 85710, Note_on_c, 3, 76, 0
5, 85740, Note_on_c, 3, 74, 110
5, 85740, Note_on_c, 3, 67, 90
5, 85770, Note_on_c, 3, 67, 0
5, 85770, Note_on_c, 3, 74, 0
5, 85800, Note_on_c, 3, 76, 110
5, 85800, Note_on_c, 3, 69, 90
5, 85830, Note_on_c, 3, 69, 0
5, 85830, Note_on_c, 3, 76, 0
5, 85860, Note_on_c, 3, 67, 90
5, 85860, Note_on_c, 3, 74, 110
5, 85890, Note_on_c, 3, 74, 0
5, 85890, Note_on_c, 3, 67, 0
5, 85920, Note_on_c, 3, 69, 90
5, 85920, Note_on_c, 3, 76, 110
5, 85950, Note_on_c, 3, 76, 0
5, 85950, Note_on_c, 3, 69, 0
5, 85980, Note_on_c, 3, 67, 90
5, 85980, Note_on_c, 3, 74, 110
5, 86010, Note_on_c, 3, 74, 0
5, 86010, Note_on_c, 3, 67, 0
5, 86040, Note_on_c, 3, 69, 90
5, 86040, Note_on_c, 3, 76, 110
5, 86070, Note_on_c, 3, 76, 0
5, 86070, Note_on_c, 3, 69, 0
5, 86100, Note_on_c, 3, 67, 90
5, 86100, Note_on_c, 3, 74, 110
5, 86130, Note_on_c, 3, 74, 0
5, 86130, Note_on_c, 3, 67, 0
5, 86160, Note_on_c, 3, 69, 90
5, 86160, Note_on_c, 3, 76, 110
5, 86190, Note_on_c, 3, 76, 0
5, 86190, Note_on_c, 3, 69, 0
5, 86220, Note_on_c, 3, 67, 90
5, 86220, Note_on_c, 3, 74, 110
5, 86250, Note_on_c, 3, 74, 0
5, 86250, Note_on_c, 3, 67, 0
5, 86280, Note_on_c, 3, 76, 110
5, 86280, Note_on_c, 3, 69, 90
5, 86310, Note_on_c, 3, 69, 0
5, 86310, Note_on_c, 3, 76, 0
5, 86340, Note_on_c, 3, 74, 110
5, 86340, Note_on_c, 3, 67, 90
5, 86370, Note_on_c, 3, 67, 0
5, 86370, Note_on_c, 3, 74, 0
5, 86400, Note_on_c, 3, 76, 110
5, 86400, Note_on_c, 3, 69, 90
5, 86430, Note_on_c, 3, 69, 0
5, 86430, Note_on_c, 3, 76, 0
5, 86460, Note_on_c, 3, 74, 110
5, 86460, Note_on_c, 3, 67, 90
5, 86490, Note_on_c, 3, 67, 0
5, 86490, Note_on_c, 3, 74, 0
5, 86520, Note_on_c, 3, 76, 110
5, 86520, Note_on_c, 3, 69, 90
5, 86550, Note_on_c, 3, 69, 0
5, 86550, Note_on_c, 3, 76, 0
5, 86580, Note_on_c, 3, 74, 110
5, 86580, Note_on_c, 3, 67, 90
5, 86610, Note_on_c, 3, 67, 0
5, 86610, Note_on_c, 3, 74, 0
5, 86640, Note_on_c, 3, 76, 110
5, 86640, Note_on_c, 3, 69, 90
5, 86670, Note_on_c, 3, 69, 0
5, 86670, Note_on_c, 3, 76, 0
5, 86700, Note_on_c, 3, 74, 110
5, 86700, Note_on_c, 3, 67, 90
5, 86730, Note_on_c, 3, 67, 0
5, 86730, Note_on_c, 3, 74, 0
5, 86760, Note_on_c, 3, 76, 110
5, 86760, Note_on_c, 3, 69, 90
5, 86790, Note_on_c, 3, 69, 0
5, 86790, Note_on_c, 3, 76, 0
5, 86820, Note_on_c, 3, 74, 110
5, 86820, Note_on_c, 3, 67, 90
5, 86850, Note_on_c, 3, 67, 0
5, 86850, Note_on_c, 3, 74, 0
5, 86880, Note_on_c, 3, 76, 110
5, 86880, Note_on_c, 3, 69, 90
5, 86910, Note_on_c, 3, 69, 0
5, 86910, Note_on_c, 3, 76, 0
5, 86940, Note_on_c, 3, 74, 110
5, 86940, Note_on_c, 3, 67, 90
5, 86970, Note_on_c, 3, 67, 0
5, 86970, Note_on_c, 3, 74, 0
5, 87000, Note_on_c, 3, 76, 110
5, 87000, Note_on_c, 3, 69, 90
5, 87030, Note_on_c, 3, 69, 0
5, 87030, Note_on_c, 3, 76, 0
5, 87060, Note_on_c, 3, 74, 110
5, 87060, Note_on_c, 3, 67, 90
5, 87090, Note_on_c, 3, 67, 0
5, 87090, Note_on_c, 3, 74, 0
5, 87120, Note_on_c, 3, 76, 110
5, 87120, Note_on_c, 3, 69, 90
5, 87150, Note_on_c, 3, 69, 0
5, 87150, Note_on_c, 3, 76, 0
5, 87180, Note_on_c, 3, 74, 110
5, 87180, Note_on_c, 3, 67, 90
5, 87210, Note_on_c, 3, 67, 0
5, 87210, Note_on_c, 3, 74, 0
5, 87240, Note_on_c, 3, 69, 90
5, 87240, Note_on_c, 3, 76, 110
5, 87270, Note_on_c, 3, 76, 0
5, 87270, Note_on_c, 3, 69, 0
5, 87300, Note_on_c, 3, 67, 90
5, 87300, Note_on_c, 3, 74, 110
5, 87330, Note_on_c, 3, 74, 0
5, 87330, Note_on_c, 3, 67, 0
5, 87360, Note_on_c, 3, 69, 90
5, 87360, Note_on_c, 3, 76, 110
5, 87390, Note_on_c, 3, 76, 0
5, 87390, Note_on_c, 3, 69, 0
5, 87420, Note_on_c, 3, 67, 90
5, 87420, Note_on_c, 3, 74, 110
5, 87450, Note_on_c, 3, 74, 0
5, 87450, Note_on_c, 3, 67, 0
5, 87480, Note_on_c, 3, 69, 90
5, 87480, Note_on_c, 3, 76, 110
5, 87510, Note_on_c, 3, 76, 0
5, 87510, Note_on_c, 3, 69, 0
5, 87540, Note_on_c, 3, 67, 90
5, 87540, Note_on_c, 3, 74, 110
5, 87570, Note_on_c, 3, 74, 0
5, 87570, Note_on_c, 3, 67, 0
5, 87600, Note_on_c, 3, 69, 90
5, 87600, Note_on_c, 3, 76, 110
5, 87630, Note_on_c, 3, 76, 0
5, 87630, Note_on_c, 3, 69, 0
5, 87660, Note_on_c, 3, 67, 90
5, 87660, Note_on_c, 3, 74, 110
5, 87690, Note_on_c, 3, 74, 0
5, 87690, Note_on_c, 3, 67, 0
5, 87720, Note_on_c, 3, 76, 110
5, 87720, Note_on_c, 3, 69, 90
5, 87750, Note_on_c, 3, 69, 0
5, 87750, Note_on_c, 3, 76, 0
5, 87780, Note_on_c, 3, 74, 110
5, 87780, Note_on_c, 3, 67, 90
5, 87810, Note_on_c, 3, 67, 0
5, 87810, Note_on_c, 3, 74, 0
5, 87840, Note_on_c, 3, 76, 110
5, 87840, Note_on_c, 3, 69, 90
5, 87870, Note_on_c, 3, 69, 0
5, 87870, Note_on_c, 3, 76, 0
5, 87900, Note_on_c, 3, 74, 110
5, 87900, Note_on_c, 3, 67, 90
5, 87930, Note_on_c, 3, 67, 0
5, 87930, Note_on_c, 3, 74, 0
5, 87960, Note_on_c, 3, 76, 110
5, 87960, Note_on_c, 3, 69, 90
5, 87990, Note_on_c, 3, 69, 0
5, 87990, Note_on_c, 3, 76, 0
5, 88020, Note_on_c, 3, 74, 110
5, 88020, Note_on_c, 3, 67, 90
5, 88050, Note_on_c, 3, 67, 0
5, 88050, Note_on_c, 3, 74, 0
5, 88080, Note_on_c, 3, 76, 110
5, 88080, Note_on_c, 3, 69, 90
5, 88110, Note_on_c, 3, 69, 0
5, 88110, Note_on_c, 3, 76, 0
5, 88140, Note_on_c, 3, 74, 110
5, 88140, Note_on_c, 3, 67, 90
5, 88170, Note_on_c, 3, 67, 0
5, 88170, Note_on_c, 3, 74, 0
5, 88200, Note_on_c, 3, 76, 110
5, 88200, Note_on_c, 3, 69, 90
5, 88230, Note_on_c, 3, 69, 0
5, 88230, Note_on_c, 3, 76, 0
5, 88260, Note_on_c, 3, 74, 110
5, 88260, Note_on_c, 3, 67, 90
5, 88290, Note_on_c, 3, 67, 0
5, 88290, Note_on_c, 3, 74, 0
5, 88320, Note_on_c, 3, 76, 110
5, 88320, Note_on_c, 3, 69, 90
5, 88350, Note_on_c, 3, 69, 0
5, 88350, Note_on_c, 3, 76, 0
5, 88380, Note_on_c, 3, 74, 110
5, 88380, Note_on_c, 3, 67, 90
5, 88410, Note_on_c, 3, 67, 0
5, 88410, Note_on_c, 3, 74, 0
5, 88440, Note_on_c, 3, 76, 110
5, 88440, Note_on_c, 3, 69, 90
5, 88470, Note_on_c, 3, 69, 0
5, 88470, Note_on_c, 3, 76, 0
5, 88500, Note_on_c, 3, 74, 110
5, 88500, Note_on_c, 3, 67, 90
5, 88530, Note_on_c, 3, 67, 0
5, 88530, Note_on_c, 3, 74, 0
5, 88560, Note_on_c, 3, 76, 110
5, 88560, Note_on_c, 3, 69, 90
5, 88590, Note_on_c, 3, 69, 0
5, 88590, Note_on_c, 3, 76, 0
5, 88620, Note_on_c, 3, 74, 110
5, 88620, Note_on_c, 3, 67, 90
5, 88650, Note_on_c, 3, 67, 0
5, 88650, Note_on_c, 3, 74, 0
5, 88650, End_track
6, 0, Start_track
6, 0, Title_t, "A5-French Horns"
6, 0, Control_c, 4, 0, 0
6, 0, Control_c, 4, 32, 3
6, 0, Program_c, 4, 60
6, 0, Control_c, 4, 7, 110
6, 0, Control_c, 4, 10, 64
6, 136, Control_c, 4, 91, 50
6, 137, Control_c, 4, 93, 30
6, 8280, Note_on_c, 4, 67, 115
6, 8640, Note_on_c, 4, 67, 0
6, 8640, Note_on_c, 4, 66, 115
6, 9000, Note_on_c, 4, 66, 0
6, 9000, Note_on_c, 4, 67, 115
6, 9120, Note_on_c, 4, 67, 0
6, 9120, Note_on_c, 4, 69, 115
6, 9360, Note_on_c, 4, 69, 0
6, 9360, Note_on_c, 4, 71, 115
6, 9720, Note_on_c, 4, 71, 0
6, 9720, Note_on_c, 4, 62, 126
6, 9840, Note_on_c, 4, 62, 0
6, 9840, Note_on_c, 4, 67, 126
6, 9960, Note_on_c, 4, 67, 0
6, 9960, Note_on_c, 4, 66, 126
6, 10080, Note_on_c, 4, 66, 0
6, 10080, Note_on_c, 4, 64, 126
6, 10200, Note_on_c, 4, 64, 0
6, 10200, Note_on_c, 4, 62, 126
6, 10320, Note_on_c, 4, 62, 0
6, 10320, Note_on_c, 4, 64, 126
6, 10440, Note_on_c, 4, 64, 0
6, 10440, Note_on_c, 4, 62, 126
6, 10560, Note_on_c, 4, 62, 0
6, 10560, Note_on_c, 4, 67, 126
6, 10680, Note_on_c, 4, 67, 0
6, 10680, Note_on_c, 4, 69, 115
6, 10800, Note_on_c, 4, 69, 0
6, 10800, Note_on_c, 4, 67, 115
6, 10920, Note_on_c, 4, 67, 0
6, 10920, Note_on_c, 4, 65, 115
6, 11040, Note_on_c, 4, 65, 0
6, 11040, Note_on_c, 4, 64, 115
6, 11100, Note_on_c, 4, 64, 0
6, 11100, Note_on_c, 4, 67, 115
6, 11160, Note_on_c, 4, 67, 0
6, 11160, Note_on_c, 4, 65, 115
6, 11220, Note_on_c, 4, 65, 0
6, 11220, Note_on_c, 4, 69, 115
6, 11280, Note_on_c, 4, 69, 0
6, 11280, Note_on_c, 4, 72, 115
6, 11340, Note_on_c, 4, 72, 0
6, 11340, Note_on_c, 4, 76, 115
6, 11400, Note_on_c, 4, 76, 0
6, 11400, Note_on_c, 4, 74, 115
6, 11520, Note_on_c, 4, 74, 0
6, 11520, Note_on_c, 4, 69, 115
6, 11760, Note_on_c, 4, 69, 0
6, 11760, Note_on_c, 4, 62, 115
6, 11880, Note_on_c, 4, 62, 0
6, 11880, Note_on_c, 4, 69, 115
6, 12120, Note_on_c, 4, 69, 0
6, 12120, Note_on_c, 4, 62, 115
6, 12240, Note_on_c, 4, 62, 0
6, 12240, Note_on_c, 4, 69, 115
6, 12360, Note_on_c, 4, 69, 0
6, 12360, Note_on_c, 4, 67, 115
6, 12480, Note_on_c, 4, 67, 0
6, 12480, Note_on_c, 4, 69, 115
6, 12840, Note_on_c, 4, 76, 125
6, 13200, Note_on_c, 4, 76, 0
6, 13200, Note_on_c, 4, 69, 0
6, 13200, Note_on_c, 4, 64, 100
6, 13560, Note_on_c, 4, 64, 0
6, 13560, Note_on_c, 4, 62, 100
6, 13920, Note_on_c, 4, 62, 0
6, 13920, Note_on_c, 4, 64, 100
6, 14280, Note_on_c, 4, 64, 0
6, 14280, Note_on_c, 4, 65, 100
6, 14640, Note_on_c, 4, 65, 0
6, 14640, Note_on_c, 4, 64, 100
6, 15000, Note_on_c, 4, 64, 0
6, 15000, Note_on_c, 4, 62, 100
6, 15360, Note_on_c, 4, 62, 0
6, 15360, Note_on_c, 4, 64, 100
6, 15720, Note_on_c, 4, 64, 0
6, 15720, Note_on_c, 4, 65, 100
6, 16080, Note_on_c, 4, 65, 0
6, 16080, Note_on_c, 4, 64, 100
6, 16440, Note_on_c, 4, 64, 0
6, 16440, Note_on_c, 4, 62, 100
6, 16800, Note_on_c, 4, 62, 0
6, 16800, Note_on_c, 4, 64, 100
6, 17160, Note_on_c, 4, 64, 0
6, 17160, Note_on_c, 4, 65, 100
6, 17520, Note_on_c, 4, 65, 0
6, 17520, Note_on_c, 4, 64, 100
6, 17880, Note_on_c, 4, 64, 0
6, 17880, Note_on_c, 4, 62, 100
6, 18240, Note_on_c, 4, 62, 0
6, 18240, Note_on_c, 4, 64, 100
6, 18600, Note_on_c, 4, 64, 0
6, 18600, Note_on_c, 4, 65, 100
6, 18960, Note_on_c, 4, 65, 0
6, 18960, Note_on_c, 4, 41, 100
6, 18960, Note_on_c, 4, 53, 100
6, 18960, Note_on_c, 4, 65, 100
6, 21840, Note_on_c, 4, 65, 0
6, 21840, Note_on_c, 4, 53, 0
6, 21840, Note_on_c, 4, 41, 0
6, 21840, Note_on_c, 4, 41, 100
6, 21840, Note_on_c, 4, 53, 100
6, 21840, Note_on_c, 4, 65, 100
6, 24720, Note_on_c, 4, 65, 0
6, 24720, Note_on_c, 4, 53, 0
6, 24720, Note_on_c, 4, 41, 0
6, 49200, Note_on_c, 4, 67, 115
6, 49560, Note_on_c, 4, 67, 0
6, 49560, Note_on_c, 4, 66, 115
6, 49920, Note_on_c, 4, 66, 0
6, 49920, Note_on_c, 4, 67, 115
6, 50040, Note_on_c, 4, 67, 0
6, 50040, Note_on_c, 4, 69, 115
6, 50280, Note_on_c, 4, 69, 0
6, 50280, Note_on_c, 4, 71, 115
6, 50640, Note_on_c, 4, 71, 0
6, 50640, Note_on_c, 4, 62, 126
6, 50760, Note_on_c, 4, 62, 0
6, 50760, Note_on_c, 4, 67, 126
6, 50880, Note_on_c, 4, 67, 0
6, 50880, Note_on_c, 4, 66, 126
6, 51000, Note_on_c, 4, 66, 0
6, 51000, Note_on_c, 4, 64, 126
6, 51120, Note_on_c, 4, 64, 0
6, 51120, Note_on_c, 4, 62, 126
6, 51240, Note_on_c, 4, 62, 0
6, 51240, Note_on_c, 4, 64, 126
6, 51360, Note_on_c, 4, 64, 0
6, 51360, Note_on_c, 4, 62, 126
6, 51480, Note_on_c, 4, 62, 0
6, 51480, Note_on_c, 4, 67, 126
6, 51600, Note_on_c, 4, 67, 0
6, 51600, Note_on_c, 4, 69, 115
6, 51720, Note_on_c, 4, 69, 0
6, 51720, Note_on_c, 4, 67, 115
6, 51840, Note_on_c, 4, 67, 0
6, 51840, Note_on_c, 4, 65, 115
6, 51960, Note_on_c, 4, 65, 0
6, 51960, Note_on_c, 4, 64, 115
6, 52020, Note_on_c, 4, 64, 0
6, 52020, Note_on_c, 4, 67, 115
6, 52080, Note_on_c, 4, 67, 0
6, 52080, Note_on_c, 4, 65, 115
6, 52140, Note_on_c, 4, 65, 0
6, 52140, Note_on_c, 4, 69, 115
6, 52200, Note_on_c, 4, 69, 0
6, 52200, Note_on_c, 4, 72, 115
6, 52260, Note_on_c, 4, 72, 0
6, 52260, Note_on_c, 4, 76, 115
6, 52320, Note_on_c, 4, 76, 0
6, 52320, Note_on_c, 4, 74, 115
6, 52440, Note_on_c, 4, 74, 0
6, 52440, Note_on_c, 4, 69, 115
6, 52680, Note_on_c, 4, 69, 0
6, 52680, Note_on_c, 4, 62, 115
6, 52800, Note_on_c, 4, 62, 0
6, 52800, Note_on_c, 4, 69, 115
6, 53040, Note_on_c, 4, 69, 0
6, 53040, Note_on_c, 4, 62, 115
6, 53160, Note_on_c, 4, 62, 0
6, 53160, Note_on_c, 4, 69, 115
6, 53280, Note_on_c, 4, 69, 0
6, 53280, Note_on_c, 4, 67, 115
6, 53400, Note_on_c, 4, 67, 0
6, 53400, Note_on_c, 4, 69, 115
6, 53760, Note_on_c, 4, 76, 125
6, 54120, Note_on_c, 4, 76, 0
6, 54120, Note_on_c, 4, 69, 0
6, 54120, Note_on_c, 4, 64, 100
6, 54480, Note_on_c, 4, 64, 0
6, 54480, Note_on_c, 4, 62, 100
6, 54840, Note_on_c, 4, 62, 0
6, 54840, Note_on_c, 4, 64, 100
6, 55200, Note_on_c, 4, 64, 0
6, 55200, Note_on_c, 4, 65, 100
6, 55560, Note_on_c, 4, 65, 0
6, 55560, Note_on_c, 4, 64, 100
6, 55920, Note_on_c, 4, 64, 0
6, 55920, Note_on_c, 4, 62, 100
6, 56280, Note_on_c, 4, 62, 0
6, 56280, Note_on_c, 4, 64, 100
6, 56640, Note_on_c, 4, 64, 0
6, 56640, Note_on_c, 4, 65, 100
6, 57000, Note_on_c, 4, 65, 0
6, 57000, Note_on_c, 4, 64, 100
6, 57360, Note_on_c, 4, 64, 0
6, 57360, Note_on_c, 4, 62, 100
6, 57720, Note_on_c, 4, 62, 0
6, 57720, Note_on_c, 4, 64, 100
6, 58080, Note_on_c, 4, 64, 0
6, 58080, Note_on_c, 4, 65, 100
6, 58440, Note_on_c, 4, 65, 0
6, 58440, Note_on_c, 4, 64, 100
6, 58800, Note_on_c, 4, 64, 0
6, 58800, Note_on_c, 4, 62, 100
6, 59160, Note_on_c, 4, 62, 0
6, 59160, Note_on_c, 4, 64, 100
6, 59520, Note_on_c, 4, 64, 0
6, 59520, Note_on_c, 4, 65, 100
6, 59880, Note_on_c, 4, 65, 0
6, 59880, Note_on_c, 4, 41, 100
6, 59880, Note_on_c, 4, 53, 100
6, 59880, Note_on_c, 4, 65, 100
6, 62760, Note_on_c, 4, 65, 0
6, 62760, Note_on_c, 4, 53, 0
6, 62760, Note_on_c, 4, 41, 0
6, 62760, Note_on_c, 4, 41, 100
6, 62760, Note_on_c, 4, 53, 100
6, 62760, Note_on_c, 4, 65, 100
6, 65640, Note_on_c, 4, 65, 0
6, 65640, Note_on_c, 4, 53, 0
6, 65640, Note_on_c, 4, 41, 0
6, 88680, Control_c, 4, 11, 127
6, 88710, Control_c, 4, 11, 126
6, 88730, Control_c, 4, 11, 125
6, 88750, Control_c, 4, 11, 124
6, 88770, Control_c, 4, 11, 123
6, 88800, Control_c, 4, 11, 122
6, 88820, Control_c, 4, 11, 121
6, 88840, Control_c, 4, 11, 120
6, 88860, Control_c, 4, 11, 119
6, 88890, Control_c, 4, 11, 118
6, 88910, Control_c, 4, 11, 117
6, 88930, Control_c, 4, 11, 116
6, 88950, Control_c, 4, 11, 115
6, 88980, Control_c, 4, 11, 114
6, 89000, Control_c, 4, 11, 113
6, 89020, Control_c, 4, 11, 112
6, 89040, Control_c, 4, 11, 111
6, 89070, Control_c, 4, 11, 110
6, 89090, Control_c, 4, 11, 109
6, 89110, Control_c, 4, 11, 108
6, 89130, Control_c, 4, 11, 107
6, 89160, Control_c, 4, 11, 106
6, 89180, Control_c, 4, 11, 105
6, 89200, Control_c, 4, 11, 104
6, 89220, Control_c, 4, 11, 103
6, 89250, Control_c, 4, 11, 102
6, 89270, Control_c, 4, 11, 101
6, 89290, Control_c, 4, 11, 100
6, 89310, Control_c, 4, 11, 99
6, 89340, Control_c, 4, 11, 98
6, 89360, Control_c, 4, 11, 97
6, 89380, Control_c, 4, 11, 96
6, 89400, Control_c, 4, 11, 95
6, 89430, Control_c, 4, 11, 94
6, 89450, Control_c, 4, 11, 93
6, 89470, Control_c, 4, 11, 92
6, 89490, Control_c, 4, 11, 91
6, 89520, Control_c, 4, 11, 90
6, 89540, Control_c, 4, 11, 89
6, 89560, Control_c, 4, 11, 88
6, 89580, Control_c, 4, 11, 87
6, 89610, Control_c, 4, 11, 86
6, 89630, Control_c, 4, 11, 85
6, 89650, Control_c, 4, 11, 84
6, 89670, Control_c, 4, 11, 83
6, 89690, Control_c, 4, 11, 82
6, 89720, Control_c, 4, 11, 81
6, 89740, Control_c, 4, 11, 80
6, 89760, Control_c, 4, 11, 79
6, 89780, Control_c, 4, 11, 78
6, 89810, Control_c, 4, 11, 77
6, 89830, Control_c, 4, 11, 76
6, 89850, Control_c, 4, 11, 75
6, 89870, Control_c, 4, 11, 74
6, 89900, Control_c, 4, 11, 73
6, 89920, Control_c, 4, 11, 72
6, 89940, Control_c, 4, 11, 71
6, 89960, Control_c, 4, 11, 70
6, 89990, Control_c, 4, 11, 69
6, 90010, Control_c, 4, 11, 68
6, 90030, Control_c, 4, 11, 67
6, 90050, Control_c, 4, 11, 66
6, 90080, Control_c, 4, 11, 65
6, 90100, Control_c, 4, 11, 64
6, 90120, Control_c, 4, 11, 63
6, 90120, Note_on_c, 4, 67, 115
6, 90140, Control_c, 4, 11, 62
6, 90170, Control_c, 4, 11, 61
6, 90190, Control_c, 4, 11, 60
6, 90210, Control_c, 4, 11, 59
6, 90230, Control_c, 4, 11, 58
6, 90260, Control_c, 4, 11, 57
6, 90280, Control_c, 4, 11, 56
6, 90300, Control_c, 4, 11, 55
6, 90320, Control_c, 4, 11, 54
6, 90350, Control_c, 4, 11, 53
6, 90370, Control_c, 4, 11, 52
6, 90390, Control_c, 4, 11, 51
6, 90410, Control_c, 4, 11, 50
6, 90440, Control_c, 4, 11, 49
6, 90460, Control_c, 4, 11, 48
6, 90480, Note_on_c, 4, 67, 0
6, 90480, Control_c, 4, 11, 47
6, 90480, Note_on_c, 4, 66, 115
6, 90500, Control_c, 4, 11, 46
6, 90530, Control_c, 4, 11, 45
6, 90550, Control_c, 4, 11, 44
6, 90570, Control_c, 4, 11, 43
6, 90590, Control_c, 4, 11, 42
6, 90610, Control_c, 4, 11, 41
6, 90640, Control_c, 4, 11, 40
6, 90660, Control_c, 4, 11, 39
6, 90680, Control_c, 4, 11, 38
6, 90700, Control_c, 4, 11, 37
6, 90730, Control_c, 4, 11, 36
6, 90750, Control_c, 4, 11, 35
6, 90770, Control_c, 4, 11, 34
6, 90790, Control_c, 4, 11, 33
6, 90820, Control_c, 4, 11, 32
6, 90840, Note_on_c, 4, 66, 0
6, 90840, Control_c, 4, 11, 31
6, 90840, Note_on_c, 4, 67, 115
6, 90860, Control_c, 4, 11, 30
6, 90880, Control_c, 4, 11, 29
6, 90910, Control_c, 4, 11, 28
6, 90930, Control_c, 4, 11, 27
6, 90950, Control_c, 4, 11, 26
6, 90960, Note_on_c, 4, 67, 0
6, 90960, Note_on_c, 4, 69, 115
6, 90970, Control_c, 4, 11, 25
6, 91000, Control_c, 4, 11, 24
6, 91020, Control_c, 4, 11, 23
6, 91040, Control_c, 4, 11, 22
6, 91060, Control_c, 4, 11, 21
6, 91090, Control_c, 4, 11, 20
6, 91110, Control_c, 4, 11, 19
6, 91130, Control_c, 4, 11, 18
6, 91150, Control_c, 4, 11, 17
6, 91180, Control_c, 4, 11, 16
6, 91200, Note_on_c, 4, 69, 0
6, 91200, Control_c, 4, 11, 15
6, 91200, Note_on_c, 4, 71, 115
6, 91220, Control_c, 4, 11, 14
6, 91240, Control_c, 4, 11, 13
6, 91270, Control_c, 4, 11, 12
6, 91290, Control_c, 4, 11, 11
6, 91310, Control_c, 4, 11, 10
6, 91330, Control_c, 4, 11, 9
6, 91360, Control_c, 4, 11, 8
6, 91380, Control_c, 4, 11, 7
6, 91400, Control_c, 4, 11, 6
6, 91420, Control_c, 4, 11, 5
6, 91450, Control_c, 4, 11, 4
6, 91470, Control_c, 4, 11, 3
6, 91490, Control_c, 4, 11, 2
6, 91510, Control_c, 4, 11, 1
6, 91530, Control_c, 4, 11, 0
6, 91560, Note_on_c, 4, 71, 0
6, 91560, End_track
7, 0, Start_track
7, 0, Title_t, "A6-Slow Strings"
7, 0, Control_c, 5, 0, 0
7, 0, Control_c, 5, 32, 3
7, 0, Program_c, 5, 49
7, 0, Control_c, 5, 7, 110
7, 0, Control_c, 5, 10, 86
7, 146, Control_c, 5, 91, 50
7, 147, Control_c, 5, 93, 20
7, 6840, Note_on_c, 5, 38, 100
7, 6840, Note_on_c, 5, 62, 100
7, 6840, Note_on_c, 5, 50, 100
7, 6840, Note_on_c, 5, 57, 100
7, 7320, Note_on_c, 5, 57, 0
7, 7320, Note_on_c, 5, 38, 0
7, 7320, Note_on_c, 5, 62, 0
7, 7320, Note_on_c, 5, 50, 0
7, 7320, Note_on_c, 5, 38, 100
7, 7320, Note_on_c, 5, 59, 100
7, 7320, Note_on_c, 5, 50, 100
7, 7320, Note_on_c, 5, 64, 100
7, 7560, Note_on_c, 5, 64, 0
7, 7560, Note_on_c, 5, 38, 0
7, 7560, Note_on_c, 5, 59, 0
7, 7560, Note_on_c, 5, 50, 0
7, 7560, Note_on_c, 5, 38, 100
7, 7560, Note_on_c, 5, 57, 100
7, 7560, Note_on_c, 5, 50, 100
7, 7560, Note_on_c, 5, 62, 100
7, 7920, Note_on_c, 5, 62, 0
7, 7920, Note_on_c, 5, 38, 0
7, 7920, Note_on_c, 5, 57, 0
7, 7920, Note_on_c, 5, 50, 0
7, 7920, Note_on_c, 5, 38, 100
7, 7920, Note_on_c, 5, 57, 100
7, 7920, Note_on_c, 5, 50, 100
7, 7920, Note_on_c, 5, 62, 100
7, 8280, Note_on_c, 5, 62, 0
7, 8280, Note_on_c, 5, 38, 0
7, 8280, Note_on_c, 5, 57, 0
7, 8280, Note_on_c, 5, 50, 0
7, 8280, Note_on_c, 5, 40, 100
7, 8280, Note_on_c, 5, 52, 100
7, 8280, Note_on_c, 5, 48, 100
7, 8280, Note_on_c, 5, 60, 100
7, 8640, Note_on_c, 5, 60, 0
7, 8640, Note_on_c, 5, 40, 0
7, 8640, Note_on_c, 5, 52, 0
7, 8640, Note_on_c, 5, 48, 0
7, 8640, Note_on_c, 5, 38, 100
7, 8640, Note_on_c, 5, 54, 100
7, 8640, Note_on_c, 5, 50, 100
7, 8640, Note_on_c, 5, 59, 100
7, 9000, Note_on_c, 5, 59, 0
7, 9000, Note_on_c, 5, 38, 0
7, 9000, Note_on_c, 5, 54, 0
7, 9000, Note_on_c, 5, 50, 0
7, 9000, Note_on_c, 5, 36, 100
7, 9000, Note_on_c, 5, 48, 100
7, 9000, Note_on_c, 5, 52, 100
7, 9000, Note_on_c, 5, 60, 100
7, 9120, Note_on_c, 5, 60, 0
7, 9120, Note_on_c, 5, 36, 0
7, 9120, Note_on_c, 5, 48, 0
7, 9120, Note_on_c, 5, 52, 0
7, 9120, Note_on_c, 5, 38, 100
7, 9120, Note_on_c, 5, 50, 100
7, 9120, Note_on_c, 5, 54, 100
7, 9120, Note_on_c, 5, 62, 100
7, 9360, Note_on_c, 5, 62, 0
7, 9360, Note_on_c, 5, 38, 0
7, 9360, Note_on_c, 5, 50, 0
7, 9360, Note_on_c, 5, 54, 0
7, 9360, Note_on_c, 5, 40, 100
7, 9360, Note_on_c, 5, 48, 100
7, 9360, Note_on_c, 5, 52, 100
7, 9360, Note_on_c, 5, 60, 100
7, 9720, Note_on_c, 5, 60, 0
7, 9720, Note_on_c, 5, 40, 0
7, 9720, Note_on_c, 5, 48, 0
7, 9720, Note_on_c, 5, 52, 0
7, 9720, Note_on_c, 5, 45, 102
7, 9720, Note_on_c, 5, 57, 102
7, 9720, Note_on_c, 5, 60, 102
7, 9720, Note_on_c, 5, 69, 102
7, 9720, Note_on_c, 5, 64, 102
7, 9840, Note_on_c, 5, 64, 0
7, 9840, Note_on_c, 5, 60, 0
7, 9840, Note_on_c, 5, 45, 0
7, 9840, Note_on_c, 5, 57, 0
7, 9840, Note_on_c, 5, 69, 0
7, 9840, Note_on_c, 5, 43, 102
7, 9840, Note_on_c, 5, 59, 102
7, 9840, Note_on_c, 5, 67, 102
7, 9840, Note_on_c, 5, 55, 102
7, 9840, Note_on_c, 5, 62, 102
7, 9960, Note_on_c, 5, 62, 0
7, 9960, Note_on_c, 5, 67, 0
7, 9960, Note_on_c, 5, 43, 0
7, 9960, Note_on_c, 5, 59, 0
7, 9960, Note_on_c, 5, 55, 0
7, 9960, Note_on_c, 5, 42, 102
7, 9960, Note_on_c, 5, 57, 102
7, 9960, Note_on_c, 5, 66, 102
7, 9960, Note_on_c, 5, 54, 102
7, 9960, Note_on_c, 5, 60, 102
7, 10080, Note_on_c, 5, 60, 0
7, 10080, Note_on_c, 5, 66, 0
7, 10080, Note_on_c, 5, 42, 0
7, 10080, Note_on_c, 5, 57, 0
7, 10080, Note_on_c, 5, 54, 0
7, 10080, Note_on_c, 5, 40, 102
7, 10080, Note_on_c, 5, 55, 102
7, 10080, Note_on_c, 5, 64, 102
7, 10080, Note_on_c, 5, 52, 102
7, 10080, Note_on_c, 5, 59, 102
7, 10200, Note_on_c, 5, 59, 0
7, 10200, Note_on_c, 5, 64, 0
7, 10200, Note_on_c, 5, 40, 0
7, 10200, Note_on_c, 5, 55, 0
7, 10200, Note_on_c, 5, 52, 0
7, 10200, Note_on_c, 5, 38, 102
7, 10200, Note_on_c, 5, 54, 102
7, 10200, Note_on_c, 5, 62, 102
7, 10200, Note_on_c, 5, 50, 102
7, 10200, Note_on_c, 5, 57, 102
7, 10320, Note_on_c, 5, 57, 0
7, 10320, Note_on_c, 5, 62, 0
7, 10320, Note_on_c, 5, 38, 0
7, 10320, Note_on_c, 5, 54, 0
7, 10320, Note_on_c, 5, 50, 0
7, 10320, Note_on_c, 5, 40, 102
7, 10320, Note_on_c, 5, 55, 102
7, 10320, Note_on_c, 5, 64, 102
7, 10320, Note_on_c, 5, 52, 102
7, 10320, Note_on_c, 5, 59, 102
7, 10440, Note_on_c, 5, 59, 0
7, 10440, Note_on_c, 5, 64, 0
7, 10440, Note_on_c, 5, 40, 0
7, 10440, Note_on_c, 5, 55, 0
7, 10440, Note_on_c, 5, 52, 0
7, 10440, Note_on_c, 5, 46, 102
7, 10440, Note_on_c, 5, 50, 102
7, 10440, Note_on_c, 5, 53, 102
7, 10440, Note_on_c, 5, 58, 102
7, 10440, Note_on_c, 5, 62, 102
7, 10560, Note_on_c, 5, 62, 0
7, 10560, Note_on_c, 5, 53, 0
7, 10560, Note_on_c, 5, 46, 0
7, 10560, Note_on_c, 5, 50, 0
7, 10560, Note_on_c, 5, 58, 0
7, 10560, Note_on_c, 5, 48, 102
7, 10560, Note_on_c, 5, 64, 102
7, 10560, Note_on_c, 5, 55, 102
7, 10560, Note_on_c, 5, 52, 102
7, 10560, Note_on_c, 5, 60, 102
7, 10680, Note_on_c, 5, 60, 0
7, 10680, Note_on_c, 5, 55, 0
7, 10680, Note_on_c, 5, 48, 0
7, 10680, Note_on_c, 5, 64, 0
7, 10680, Note_on_c, 5, 52, 0
7, 10680, Note_on_c, 5, 62, 101
7, 10680, Note_on_c, 5, 58, 101
7, 10680, Note_on_c, 5, 53, 101
7, 10680, Note_on_c, 5, 50, 101
7, 10800, Note_on_c, 5, 50, 0
7, 10800, Note_on_c, 5, 62, 0
7, 10800, Note_on_c, 5, 58, 0
7, 10800, Note_on_c, 5, 53, 0
7, 10800, Note_on_c, 5, 64, 101
7, 10800, Note_on_c, 5, 52, 101
7, 10800, Note_on_c, 5, 60, 101
7, 10800, Note_on_c, 5, 55, 101
7, 10920, Note_on_c, 5, 55, 0
7, 10920, Note_on_c, 5, 64, 0
7, 10920, Note_on_c, 5, 52, 0
7, 10920, Note_on_c, 5, 60, 0
7, 10920, Note_on_c, 5, 65, 101
7, 10920, Note_on_c, 5, 53, 101
7, 10920, Note_on_c, 5, 62, 101
7, 10920, Note_on_c, 5, 57, 101
7, 11040, Note_on_c, 5, 57, 0
7, 11040, Note_on_c, 5, 65, 0
7, 11040, Note_on_c, 5, 53, 0
7, 11040, Note_on_c, 5, 62, 0
7, 11040, Note_on_c, 5, 67, 101
7, 11040, Note_on_c, 5, 55, 101
7, 11040, Note_on_c, 5, 64, 101
7, 11040, Note_on_c, 5, 58, 101
7, 11160, Note_on_c, 5, 58, 0
7, 11160, Note_on_c, 5, 67, 0
7, 11160, Note_on_c, 5, 55, 0
7, 11160, Note_on_c, 5, 64, 0
7, 11160, Note_on_c, 5, 57, 101
7, 11160, Note_on_c, 5, 62, 101
7, 11160, Note_on_c, 5, 53, 101
7, 11160, Note_on_c, 5, 65, 101
7, 11274, Note_on_c, 5, 65, 0
7, 11274, Note_on_c, 5, 57, 0
7, 11274, Note_on_c, 5, 62, 0
7, 11274, Note_on_c, 5, 53, 0
7, 11280, Note_on_c, 5, 55, 101
7, 11280, Note_on_c, 5, 60, 101
7, 11280, Note_on_c, 5, 52, 101
7, 11280, Note_on_c, 5, 64, 101
7, 11394, Note_on_c, 5, 64, 0
7, 11394, Note_on_c, 5, 55, 0
7, 11394, Note_on_c, 5, 60, 0
7, 11394, Note_on_c, 5, 52, 0
7, 11400, Note_on_c, 5, 50, 101
7, 11400, Note_on_c, 5, 58, 101
7, 11760, Note_on_c, 5, 58, 0
7, 11760, Note_on_c, 5, 50, 0
7, 11760, Note_on_c, 5, 48, 101
7, 11760, Note_on_c, 5, 57, 101
7, 12120, Note_on_c, 5, 57, 0
7, 12120, Note_on_c, 5, 48, 0
7, 12120, Note_on_c, 5, 46, 101
7, 12120, Note_on_c, 5, 55, 101
7, 12480, Note_on_c, 5, 55, 0
7, 12480, Note_on_c, 5, 46, 0
7, 12480, Note_on_c, 5, 45, 101
7, 12480, Note_on_c, 5, 57, 101
7, 13200, Note_on_c, 5, 57, 0
7, 13200, Note_on_c, 5, 45, 0
7, 13200, Note_on_c, 5, 50, 105
7, 13200, Note_on_c, 5, 38, 105
7, 13560, Note_on_c, 5, 38, 0
7, 13560, Note_on_c, 5, 50, 0
7, 13560, Note_on_c, 5, 45, 105
7, 13560, Note_on_c, 5, 33, 105
7, 13920, Note_on_c, 5, 33, 0
7, 13920, Note_on_c, 5, 45, 0
7, 13920, Note_on_c, 5, 38, 105
7, 13920, Note_on_c, 5, 50, 105
7, 14280, Note_on_c, 5, 50, 0
7, 14280, Note_on_c, 5, 38, 0
7, 14280, Note_on_c, 5, 45, 105
7, 14280, Note_on_c, 5, 33, 105
7, 14640, Note_on_c, 5, 33, 0
7, 14640, Note_on_c, 5, 45, 0
7, 14640, Note_on_c, 5, 50, 105
7, 14640, Note_on_c, 5, 38, 105
7, 15000, Note_on_c, 5, 38, 0
7, 15000, Note_on_c, 5, 50, 0
7, 15000, Note_on_c, 5, 45, 105
7, 15000, Note_on_c, 5, 33, 105
7, 15360, Note_on_c, 5, 33, 0
7, 15360, Note_on_c, 5, 45, 0
7, 15360, Note_on_c, 5, 50, 105
7, 15360, Note_on_c, 5, 38, 105
7, 15720, Note_on_c, 5, 38, 0
7, 15720, Note_on_c, 5, 50, 0
7, 15720, Note_on_c, 5, 45, 105
7, 15720, Note_on_c, 5, 33, 105
7, 16080, Note_on_c, 5, 33, 0
7, 16080, Note_on_c, 5, 45, 0
7, 16080, Note_on_c, 5, 50, 105
7, 16080, Note_on_c, 5, 38, 105
7, 16440, Note_on_c, 5, 38, 0
7, 16440, Note_on_c, 5, 50, 0
7, 16440, Note_on_c, 5, 45, 105
7, 16440, Note_on_c, 5, 33, 105
7, 16800, Note_on_c, 5, 33, 0
7, 16800, Note_on_c, 5, 45, 0
7, 16800, Note_on_c, 5, 38, 105
7, 16800, Note_on_c, 5, 50, 105
7, 17160, Note_on_c, 5, 50, 0
7, 17160, Note_on_c, 5, 38, 0
7, 17160, Note_on_c, 5, 45, 105
7, 17160, Note_on_c, 5, 33, 105
7, 17520, Note_on_c, 5, 33, 0
7, 17520, Note_on_c, 5, 45, 0
7, 17520, Note_on_c, 5, 50, 105
7, 17520, Note_on_c, 5, 38, 105
7, 17880, Note_on_c, 5, 38, 0
7, 17880, Note_on_c, 5, 50, 0
7, 17880, Note_on_c, 5, 45, 105
7, 17880, Note_on_c, 5, 33, 105
7, 18240, Note_on_c, 5, 33, 0
7, 18240, Note_on_c, 5, 45, 0
7, 18240, Note_on_c, 5, 50, 105
7, 18240, Note_on_c, 5, 38, 105
7, 18600, Note_on_c, 5, 38, 0
7, 18600, Note_on_c, 5, 50, 0
7, 18600, Note_on_c, 5, 45, 105
7, 18600, Note_on_c, 5, 33, 105
7, 18960, Note_on_c, 5, 33, 0
7, 18960, Note_on_c, 5, 45, 0
7, 18960, Note_on_c, 5, 55, 90
7, 18960, Note_on_c, 5, 60, 90
7, 19074, Note_on_c, 5, 60, 0
7, 19074, Note_on_c, 5, 55, 0
7, 19080, Note_on_c, 5, 53, 90
7, 19080, Note_on_c, 5, 58, 90
7, 19194, Note_on_c, 5, 58, 0
7, 19194, Note_on_c, 5, 53, 0
7, 19200, Note_on_c, 5, 60, 90
7, 19200, Note_on_c, 5, 65, 90
7, 19314, Note_on_c, 5, 65, 0
7, 19314, Note_on_c, 5, 60, 0
7, 19320, Note_on_c, 5, 58, 90
7, 19320, Note_on_c, 5, 63, 90
7, 19434, Note_on_c, 5, 63, 0
7, 19434, Note_on_c, 5, 58, 0
7, 19440, Note_on_c, 5, 56, 90
7, 19440, Note_on_c, 5, 60, 90
7, 19554, Note_on_c, 5, 60, 0
7, 19554, Note_on_c, 5, 56, 0
7, 19560, Note_on_c, 5, 51, 90
7, 19560, Note_on_c, 5, 56, 90
7, 19674, Note_on_c, 5, 56, 0
7, 19674, Note_on_c, 5, 51, 0
7, 19680, Note_on_c, 5, 53, 90
7, 19680, Note_on_c, 5, 58, 90
7, 19794, Note_on_c, 5, 58, 0
7, 19794, Note_on_c, 5, 53, 0
7, 19800, Note_on_c, 5, 62, 90
7, 19800, Note_on_c, 5, 65, 90
7, 19914, Note_on_c, 5, 65, 0
7, 19914, Note_on_c, 5, 62, 0
7, 19920, Note_on_c, 5, 60, 90
7, 19920, Note_on_c, 5, 63, 90
7, 20034, Note_on_c, 5, 63, 0
7, 20034, Note_on_c, 5, 60, 0
7, 20040, Note_on_c, 5, 58, 90
7, 20040, Note_on_c, 5, 62, 90
7, 20154, Note_on_c, 5, 62, 0
7, 20154, Note_on_c, 5, 58, 0
7, 20160, Note_on_c, 5, 56, 90
7, 20160, Note_on_c, 5, 60, 90
7, 20274, Note_on_c, 5, 60, 0
7, 20274, Note_on_c, 5, 56, 0
7, 20280, Note_on_c, 5, 51, 90
7, 20280, Note_on_c, 5, 56, 90
7, 20394, Note_on_c, 5, 56, 0
7, 20394, Note_on_c, 5, 51, 0
7, 20400, Note_on_c, 5, 60, 90
7, 20400, Note_on_c, 5, 55, 90
7, 20514, Note_on_c, 5, 55, 0
7, 20514, Note_on_c, 5, 60, 0
7, 20520, Note_on_c, 5, 58, 90
7, 20520, Note_on_c, 5, 53, 90
7, 20634, Note_on_c, 5, 53, 0
7, 20634, Note_on_c, 5, 58, 0
7, 20640, Note_on_c, 5, 65, 90
7, 20640, Note_on_c, 5, 60, 90
7, 20754, Note_on_c, 5, 60, 0
7, 20754, Note_on_c, 5, 65, 0
7, 20760, Note_on_c, 5, 63, 90
7, 20760, Note_on_c, 5, 58, 90
7, 20874, Note_on_c, 5, 58, 0
7, 20874, Note_on_c, 5, 63, 0
7, 20880, Note_on_c, 5, 60, 90
7, 20880, Note_on_c, 5, 56, 90
7, 20994, Note_on_c, 5, 56, 0
7, 20994, Note_on_c, 5, 60, 0
7, 21000, Note_on_c, 5, 56, 90
7, 21000, Note_on_c, 5, 51, 90
7, 21114, Note_on_c, 5, 51, 0
7, 21114, Note_on_c, 5, 56, 0
7, 21120, Note_on_c, 5, 58, 90
7, 21120, Note_on_c, 5, 53, 90
7, 21234, Note_on_c, 5, 53, 0
7, 21234, Note_on_c, 5, 58, 0
7, 21240, Note_on_c, 5, 65, 90
7, 21240, Note_on_c, 5, 62, 90
7, 21354, Note_on_c, 5, 62, 0
7, 21354, Note_on_c, 5, 65, 0
7, 21360, Note_on_c, 5, 63, 90
7, 21360, Note_on_c, 5, 60, 90
7, 21474, Note_on_c, 5, 60, 0
7, 21474, Note_on_c, 5, 63, 0
7, 21480, Note_on_c, 5, 62, 90
7, 21480, Note_on_c, 5, 58, 90
7, 21594, Note_on_c, 5, 58, 0
7, 21594, Note_on_c, 5, 62, 0
7, 21600, Note_on_c, 5, 60, 90
7, 21600, Note_on_c, 5, 56, 90
7, 21714, Note_on_c, 5, 56, 0
7, 21714, Note_on_c, 5, 60, 0
7, 21720, Note_on_c, 5, 58, 90
7, 21720, Note_on_c, 5, 51, 90
7, 21834, Note_on_c, 5, 51, 0
7, 21834, Note_on_c, 5, 58, 0
7, 21840, Note_on_c, 5, 55, 90
7, 21840, Note_on_c, 5, 60, 90
7, 21954, Note_on_c, 5, 60, 0
7, 21954, Note_on_c, 5, 55, 0
7, 21960, Note_on_c, 5, 53, 90
7, 21960, Note_on_c, 5, 58, 90
7, 22074, Note_on_c, 5, 58, 0
7, 22074, Note_on_c, 5, 53, 0
7, 22080, Note_on_c, 5, 60, 90
7, 22080, Note_on_c, 5, 65, 90
7, 22194, Note_on_c, 5, 65, 0
7, 22194, Note_on_c, 5, 60, 0
7, 22200, Note_on_c, 5, 58, 90
7, 22200, Note_on_c, 5, 63, 90
7, 22314, Note_on_c, 5, 63, 0
7, 22314, Note_on_c, 5, 58, 0
7, 22320, Note_on_c, 5, 56, 90
7, 22320, Note_on_c, 5, 60, 90
7, 22434, Note_on_c, 5, 60, 0
7, 22434, Note_on_c, 5, 56, 0
7, 22440, Note_on_c, 5, 51, 90
7, 22440, Note_on_c, 5, 56, 90
7, 22554, Note_on_c, 5, 56, 0
7, 22554, Note_on_c, 5, 51, 0
7, 22560, Note_on_c, 5, 53, 90
7, 22560, Note_on_c, 5, 58, 90
7, 22674, Note_on_c, 5, 58, 0
7, 22674, Note_on_c, 5, 53, 0
7, 22680, Note_on_c, 5, 62, 90
7, 22680, Note_on_c, 5, 65, 90
7, 22794, Note_on_c, 5, 65, 0
7, 22794, Note_on_c, 5, 62, 0
7, 22800, Note_on_c, 5, 60, 90
7, 22800, Note_on_c, 5, 63, 90
7, 22914, Note_on_c, 5, 63, 0
7, 22914, Note_on_c, 5, 60, 0
7, 22920, Note_on_c, 5, 58, 90
7, 22920, Note_on_c, 5, 62, 90
7, 23034, Note_on_c, 5, 62, 0
7, 23034, Note_on_c, 5, 58, 0
7, 23040, Note_on_c, 5, 56, 90
7, 23040, Note_on_c, 5, 60, 90
7, 23154, Note_on_c, 5, 60, 0
7, 23154, Note_on_c, 5, 56, 0
7, 23160, Note_on_c, 5, 51, 90
7, 23160, Note_on_c, 5, 56, 90
7, 23274, Note_on_c, 5, 56, 0
7, 23274, Note_on_c, 5, 51, 0
7, 23280, Note_on_c, 5, 60, 90
7, 23280, Note_on_c, 5, 55, 90
7, 23394, Note_on_c, 5, 55, 0
7, 23394, Note_on_c, 5, 60, 0
7, 23400, Note_on_c, 5, 58, 90
7, 23400, Note_on_c, 5, 53, 90
7, 23514, Note_on_c, 5, 53, 0
7, 23514, Note_on_c, 5, 58, 0
7, 23520, Note_on_c, 5, 65, 90
7, 23520, Note_on_c, 5, 60, 90
7, 23634, Note_on_c, 5, 60, 0
7, 23634, Note_on_c, 5, 65, 0
7, 23640, Note_on_c, 5, 63, 90
7, 23640, Note_on_c, 5, 58, 90
7, 23754, Note_on_c, 5, 58, 0
7, 23754, Note_on_c, 5, 63, 0
7, 23760, Note_on_c, 5, 60, 90
7, 23760, Note_on_c, 5, 56, 90
7, 23874, Note_on_c, 5, 56, 0
7, 23874, Note_on_c, 5, 60, 0
7, 23880, Note_on_c, 5, 56, 90
7, 23880, Note_on_c, 5, 51, 90
7, 23994, Note_on_c, 5, 51, 0
7, 23994, Note_on_c, 5, 56, 0
7, 24000, Note_on_c, 5, 58, 90
7, 24000, Note_on_c, 5, 53, 90
7, 24114, Note_on_c, 5, 53, 0
7, 24114, Note_on_c, 5, 58, 0
7, 24120, Note_on_c, 5, 65, 90
7, 24120, Note_on_c, 5, 62, 90
7, 24234, Note_on_c, 5, 62, 0
7, 24234, Note_on_c, 5, 65, 0
7, 24240, Note_on_c, 5, 63, 90
7, 24240, Note_on_c, 5, 60, 90
7, 24354, Note_on_c, 5, 60, 0
7, 24354, Note_on_c, 5, 63, 0
7, 24360, Note_on_c, 5, 62, 90
7, 24360, Note_on_c, 5, 58, 90
7, 24474, Note_on_c, 5, 58, 0
7, 24474, Note_on_c, 5, 62, 0
7, 24480, Note_on_c, 5, 60, 90
7, 24480, Note_on_c, 5, 56, 90
7, 24594, Note_on_c, 5, 56, 0
7, 24594, Note_on_c, 5, 60, 0
7, 24600, Note_on_c, 5, 58, 90
7, 24600, Note_on_c, 5, 51, 90
7, 24714, Note_on_c, 5, 51, 0
7, 24714, Note_on_c, 5, 58, 0
7, 36240, Note_on_c, 5, 48, 90
7, 36240, Note_on_c, 5, 57, 80
7, 36270, Note_on_c, 5, 57, 0
7, 36300, Note_on_c, 5, 55, 80
7, 36330, Note_on_c, 5, 55, 0
7, 36360, Note_on_c, 5, 57, 80
7, 36390, Note_on_c, 5, 57, 0
7, 36420, Note_on_c, 5, 55, 80
7, 36450, Note_on_c, 5, 55, 0
7, 36480, Note_on_c, 5, 57, 80
7, 36510, Note_on_c, 5, 57, 0
7, 36540, Note_on_c, 5, 55, 80
7, 36570, Note_on_c, 5, 55, 0
7, 36600, Note_on_c, 5, 57, 80
7, 36630, Note_on_c, 5, 57, 0
7, 36660, Note_on_c, 5, 55, 80
7, 36690, Note_on_c, 5, 55, 0
7, 36720, Note_on_c, 5, 57, 80
7, 36750, Note_on_c, 5, 57, 0
7, 36780, Note_on_c, 5, 55, 80
7, 36810, Note_on_c, 5, 55, 0
7, 36840, Note_on_c, 5, 57, 80
7, 36870, Note_on_c, 5, 57, 0
7, 36900, Note_on_c, 5, 55, 80
7, 36930, Note_on_c, 5, 55, 0
7, 36960, Note_on_c, 5, 57, 80
7, 36990, Note_on_c, 5, 57, 0
7, 37020, Note_on_c, 5, 55, 80
7, 37050, Note_on_c, 5, 55, 0
7, 37080, Note_on_c, 5, 57, 80
7, 37110, Note_on_c, 5, 57, 0
7, 37140, Note_on_c, 5, 55, 80
7, 37170, Note_on_c, 5, 55, 0
7, 37200, Note_on_c, 5, 57, 80
7, 37230, Note_on_c, 5, 57, 0
7, 37260, Note_on_c, 5, 55, 80
7, 37290, Note_on_c, 5, 55, 0
7, 37320, Note_on_c, 5, 57, 80
7, 37350, Note_on_c, 5, 57, 0
7, 37380, Note_on_c, 5, 55, 80
7, 37410, Note_on_c, 5, 55, 0
7, 37440, Note_on_c, 5, 57, 80
7, 37470, Note_on_c, 5, 57, 0
7, 37500, Note_on_c, 5, 55, 80
7, 37530, Note_on_c, 5, 55, 0
7, 37560, Note_on_c, 5, 57, 80
7, 37590, Note_on_c, 5, 57, 0
7, 37620, Note_on_c, 5, 55, 80
7, 37650, Note_on_c, 5, 55, 0
7, 37680, Note_on_c, 5, 48, 0
7, 37680, Note_on_c, 5, 48, 90
7, 37680, Note_on_c, 5, 57, 80
7, 37710, Note_on_c, 5, 57, 0
7, 37740, Note_on_c, 5, 55, 80
7, 37770, Note_on_c, 5, 55, 0
7, 37800, Note_on_c, 5, 57, 80
7, 37830, Note_on_c, 5, 57, 0
7, 37860, Note_on_c, 5, 55, 80
7, 37890, Note_on_c, 5, 55, 0
7, 37920, Note_on_c, 5, 57, 80
7, 37950, Note_on_c, 5, 57, 0
7, 37980, Note_on_c, 5, 55, 80
7, 38010, Note_on_c, 5, 55, 0
7, 38040, Note_on_c, 5, 57, 80
7, 38070, Note_on_c, 5, 57, 0
7, 38100, Note_on_c, 5, 55, 80
7, 38130, Note_on_c, 5, 55, 0
7, 38160, Note_on_c, 5, 57, 80
7, 38190, Note_on_c, 5, 57, 0
7, 38220, Note_on_c, 5, 55, 80
7, 38250, Note_on_c, 5, 55, 0
7, 38280, Note_on_c, 5, 57, 80
7, 38310, Note_on_c, 5, 57, 0
7, 38340, Note_on_c, 5, 55, 80
7, 38370, Note_on_c, 5, 55, 0
7, 38400, Note_on_c, 5, 57, 80
7, 38430, Note_on_c, 5, 57, 0
7, 38460, Note_on_c, 5, 55, 80
7, 38490, Note_on_c, 5, 55, 0
7, 38520, Note_on_c, 5, 57, 80
7, 38550, Note_on_c, 5, 57, 0
7, 38580, Note_on_c, 5, 55, 80
7, 38610, Note_on_c, 5, 55, 0
7, 38640, Note_on_c, 5, 57, 80
7, 38670, Note_on_c, 5, 57, 0
7, 38700, Note_on_c, 5, 55, 80
7, 38730, Note_on_c, 5, 55, 0
7, 38760, Note_on_c, 5, 57, 80
7, 38790, Note_on_c, 5, 57, 0
7, 38820, Note_on_c, 5, 55, 80
7, 38850, Note_on_c, 5, 55, 0
7, 38880, Note_on_c, 5, 57, 80
7, 38910, Note_on_c, 5, 57, 0
7, 38940, Note_on_c, 5, 55, 80
7, 38970, Note_on_c, 5, 55, 0
7, 39000, Note_on_c, 5, 57, 80
7, 39030, Note_on_c, 5, 57, 0
7, 39060, Note_on_c, 5, 55, 80
7, 39090, Note_on_c, 5, 55, 0
7, 39120, Note_on_c, 5, 48, 0
7, 39120, Note_on_c, 5, 48, 90
7, 39120, Note_on_c, 5, 57, 80
7, 39150, Note_on_c, 5, 57, 0
7, 39180, Note_on_c, 5, 55, 80
7, 39210, Note_on_c, 5, 55, 0
7, 39240, Note_on_c, 5, 57, 80
7, 39270, Note_on_c, 5, 57, 0
7, 39300, Note_on_c, 5, 55, 80
7, 39330, Note_on_c, 5, 55, 0
7, 39360, Note_on_c, 5, 57, 80
7, 39390, Note_on_c, 5, 57, 0
7, 39420, Note_on_c, 5, 55, 80
7, 39450, Note_on_c, 5, 55, 0
7, 39480, Note_on_c, 5, 57, 80
7, 39510, Note_on_c, 5, 57, 0
7, 39540, Note_on_c, 5, 55, 80
7, 39570, Note_on_c, 5, 55, 0
7, 39600, Note_on_c, 5, 57, 80
7, 39630, Note_on_c, 5, 57, 0
7, 39660, Note_on_c, 5, 55, 80
7, 39690, Note_on_c, 5, 55, 0
7, 39720, Note_on_c, 5, 57, 80
7, 39750, Note_on_c, 5, 57, 0
7, 39780, Note_on_c, 5, 55, 80
7, 39810, Note_on_c, 5, 55, 0
7, 39840, Note_on_c, 5, 57, 80
7, 39870, Note_on_c, 5, 57, 0
7, 39900, Note_on_c, 5, 55, 80
7, 39930, Note_on_c, 5, 55, 0
7, 39960, Note_on_c, 5, 57, 80
7, 39990, Note_on_c, 5, 57, 0
7, 40020, Note_on_c, 5, 55, 80
7, 40050, Note_on_c, 5, 55, 0
7, 40080, Note_on_c, 5, 57, 80
7, 40110, Note_on_c, 5, 57, 0
7, 40140, Note_on_c, 5, 55, 80
7, 40170, Note_on_c, 5, 55, 0
7, 40200, Note_on_c, 5, 57, 80
7, 40230, Note_on_c, 5, 57, 0
7, 40260, Note_on_c, 5, 55, 80
7, 40290, Note_on_c, 5, 55, 0
7, 40320, Note_on_c, 5, 57, 80
7, 40350, Note_on_c, 5, 57, 0
7, 40380, Note_on_c, 5, 55, 80
7, 40410, Note_on_c, 5, 55, 0
7, 40440, Note_on_c, 5, 57, 80
7, 40470, Note_on_c, 5, 57, 0
7, 40500, Note_on_c, 5, 55, 80
7, 40530, Note_on_c, 5, 55, 0
7, 40560, Note_on_c, 5, 48, 0
7, 40560, Note_on_c, 5, 48, 90
7, 40560, Note_on_c, 5, 57, 80
7, 40590, Note_on_c, 5, 57, 0
7, 40620, Note_on_c, 5, 55, 80
7, 40650, Note_on_c, 5, 55, 0
7, 40680, Note_on_c, 5, 57, 80
7, 40710, Note_on_c, 5, 57, 0
7, 40740, Note_on_c, 5, 55, 80
7, 40770, Note_on_c, 5, 55, 0
7, 40800, Note_on_c, 5, 57, 80
7, 40830, Note_on_c, 5, 57, 0
7, 40860, Note_on_c, 5, 55, 80
7, 40890, Note_on_c, 5, 55, 0
7, 40920, Note_on_c, 5, 57, 80
7, 40950, Note_on_c, 5, 57, 0
7, 40980, Note_on_c, 5, 55, 80
7, 41010, Note_on_c, 5, 55, 0
7, 41040, Note_on_c, 5, 57, 80
7, 41070, Note_on_c, 5, 57, 0
7, 41100, Note_on_c, 5, 55, 80
7, 41130, Note_on_c, 5, 55, 0
7, 41160, Note_on_c, 5, 57, 80
7, 41190, Note_on_c, 5, 57, 0
7, 41220, Note_on_c, 5, 55, 80
7, 41250, Note_on_c, 5, 55, 0
7, 41280, Note_on_c, 5, 57, 80
7, 41310, Note_on_c, 5, 57, 0
7, 41340, Note_on_c, 5, 55, 80
7, 41370, Note_on_c, 5, 55, 0
7, 41400, Note_on_c, 5, 57, 80
7, 41430, Note_on_c, 5, 57, 0
7, 41460, Note_on_c, 5, 55, 80
7, 41490, Note_on_c, 5, 55, 0
7, 41520, Note_on_c, 5, 57, 80
7, 41550, Note_on_c, 5, 57, 0
7, 41580, Note_on_c, 5, 55, 80
7, 41610, Note_on_c, 5, 55, 0
7, 41640, Note_on_c, 5, 57, 80
7, 41670, Note_on_c, 5, 57, 0
7, 41700, Note_on_c, 5, 55, 80
7, 41730, Note_on_c, 5, 55, 0
7, 41760, Note_on_c, 5, 57, 80
7, 41790, Note_on_c, 5, 57, 0
7, 41820, Note_on_c, 5, 55, 80
7, 41850, Note_on_c, 5, 55, 0
7, 41880, Note_on_c, 5, 57, 80
7, 41910, Note_on_c, 5, 57, 0
7, 41940, Note_on_c, 5, 55, 80
7, 41970, Note_on_c, 5, 55, 0
7, 42000, Note_on_c, 5, 48, 0
7, 47760, Note_on_c, 5, 38, 100
7, 47760, Note_on_c, 5, 62, 100
7, 47760, Note_on_c, 5, 50, 100
7, 47760, Note_on_c, 5, 57, 100
7, 48240, Note_on_c, 5, 57, 0
7, 48240, Note_on_c, 5, 38, 0
7, 48240, Note_on_c, 5, 62, 0
7, 48240, Note_on_c, 5, 50, 0
7, 48240, Note_on_c, 5, 38, 100
7, 48240, Note_on_c, 5, 59, 100
7, 48240, Note_on_c, 5, 50, 100
7, 48240, Note_on_c, 5, 64, 100
7, 48480, Note_on_c, 5, 64, 0
7, 48480, Note_on_c, 5, 38, 0
7, 48480, Note_on_c, 5, 59, 0
7, 48480, Note_on_c, 5, 50, 0
7, 48480, Note_on_c, 5, 38, 100
7, 48480, Note_on_c, 5, 57, 100
7, 48480, Note_on_c, 5, 50, 100
7, 48480, Note_on_c, 5, 62, 100
7, 48840, Note_on_c, 5, 62, 0
7, 48840, Note_on_c, 5, 38, 0
7, 48840, Note_on_c, 5, 57, 0
7, 48840, Note_on_c, 5, 50, 0
7, 48840, Note_on_c, 5, 38, 100
7, 48840, Note_on_c, 5, 57, 100
7, 48840, Note_on_c, 5, 50, 100
7, 48840, Note_on_c, 5, 62, 100
7, 49200, Note_on_c, 5, 62, 0
7, 49200, Note_on_c, 5, 38, 0
7, 49200, Note_on_c, 5, 57, 0
7, 49200, Note_on_c, 5, 50, 0
7, 49200, Note_on_c, 5, 40, 100
7, 49200, Note_on_c, 5, 52, 100
7, 49200, Note_on_c, 5, 48, 100
7, 49200, Note_on_c, 5, 60, 100
7, 49560, Note_on_c, 5, 60, 0
7, 49560, Note_on_c, 5, 40, 0
7, 49560, Note_on_c, 5, 52, 0
7, 49560, Note_on_c, 5, 48, 0
7, 49560, Note_on_c, 5, 38, 100
7, 49560, Note_on_c, 5, 54, 100
7, 49560, Note_on_c, 5, 50, 100
7, 49560, Note_on_c, 5, 59, 100
7, 49920, Note_on_c, 5, 59, 0
7, 49920, Note_on_c, 5, 38, 0
7, 49920, Note_on_c, 5, 54, 0
7, 49920, Note_on_c, 5, 50, 0
7, 49920, Note_on_c, 5, 36, 100
7, 49920, Note_on_c, 5, 48, 100
7, 49920, Note_on_c, 5, 52, 100
7, 49920, Note_on_c, 5, 60, 100
7, 50040, Note_on_c, 5, 60, 0
7, 50040, Note_on_c, 5, 36, 0
7, 50040, Note_on_c, 5, 48, 0
7, 50040, Note_on_c, 5, 52, 0
7, 50040, Note_on_c, 5, 38, 100
7, 50040, Note_on_c, 5, 50, 100
7, 50040, Note_on_c, 5, 54, 100
7, 50040, Note_on_c, 5, 62, 100
7, 50280, Note_on_c, 5, 62, 0
7, 50280, Note_on_c, 5, 38, 0
7, 50280, Note_on_c, 5, 50, 0
7, 50280, Note_on_c, 5, 54, 0
7, 50280, Note_on_c, 5, 40, 100
7, 50280, Note_on_c, 5, 48, 100
7, 50280, Note_on_c, 5, 52, 100
7, 50280, Note_on_c, 5, 60, 100
7, 50640, Note_on_c, 5, 60, 0
7, 50640, Note_on_c, 5, 40, 0
7, 50640, Note_on_c, 5, 48, 0
7, 50640, Note_on_c, 5, 52, 0
7, 50640, Note_on_c, 5, 45, 102
7, 50640, Note_on_c, 5, 57, 102
7, 50640, Note_on_c, 5, 60, 102
7, 50640, Note_on_c, 5, 69, 102
7, 50640, Note_on_c, 5, 64, 102
7, 50760, Note_on_c, 5, 64, 0
7, 50760, Note_on_c, 5, 60, 0
7, 50760, Note_on_c, 5, 45, 0
7, 50760, Note_on_c, 5, 57, 0
7, 50760, Note_on_c, 5, 69, 0
7, 50760, Note_on_c, 5, 43, 102
7, 50760, Note_on_c, 5, 59, 102
7, 50760, Note_on_c, 5, 67, 102
7, 50760, Note_on_c, 5, 55, 102
7, 50760, Note_on_c, 5, 62, 102
7, 50880, Note_on_c, 5, 62, 0
7, 50880, Note_on_c, 5, 67, 0
7, 50880, Note_on_c, 5, 43, 0
7, 50880, Note_on_c, 5, 59, 0
7, 50880, Note_on_c, 5, 55, 0
7, 50880, Note_on_c, 5, 42, 102
7, 50880, Note_on_c, 5, 57, 102
7, 50880, Note_on_c, 5, 66, 102
7, 50880, Note_on_c, 5, 54, 102
7, 50880, Note_on_c, 5, 60, 102
7, 51000, Note_on_c, 5, 60, 0
7, 51000, Note_on_c, 5, 66, 0
7, 51000, Note_on_c, 5, 42, 0
7, 51000, Note_on_c, 5, 57, 0
7, 51000, Note_on_c, 5, 54, 0
7, 51000, Note_on_c, 5, 40, 102
7, 51000, Note_on_c, 5, 55, 102
7, 51000, Note_on_c, 5, 64, 102
7, 51000, Note_on_c, 5, 52, 102
7, 51000, Note_on_c, 5, 59, 102
7, 51120, Note_on_c, 5, 59, 0
7, 51120, Note_on_c, 5, 64, 0
7, 51120, Note_on_c, 5, 40, 0
7, 51120, Note_on_c, 5, 55, 0
7, 51120, Note_on_c, 5, 52, 0
7, 51120, Note_on_c, 5, 38, 102
7, 51120, Note_on_c, 5, 54, 102
7, 51120, Note_on_c, 5, 62, 102
7, 51120, Note_on_c, 5, 50, 102
7, 51120, Note_on_c, 5, 57, 102
7, 51240, Note_on_c, 5, 57, 0
7, 51240, Note_on_c, 5, 62, 0
7, 51240, Note_on_c, 5, 38, 0
7, 51240, Note_on_c, 5, 54, 0
7, 51240, Note_on_c, 5, 50, 0
7, 51240, Note_on_c, 5, 40, 102
7, 51240, Note_on_c, 5, 55, 102
7, 51240, Note_on_c, 5, 64, 102
7, 51240, Note_on_c, 5, 52, 102
7, 51240, Note_on_c, 5, 59, 102
7, 51360, Note_on_c, 5, 59, 0
7, 51360, Note_on_c, 5, 64, 0
7, 51360, Note_on_c, 5, 40, 0
7, 51360, Note_on_c, 5, 55, 0
7, 51360, Note_on_c, 5, 52, 0
7, 51360, Note_on_c, 5, 46, 102
7, 51360, Note_on_c, 5, 50, 102
7, 51360, Note_on_c, 5, 53, 102
7, 51360, Note_on_c, 5, 58, 102
7, 51360, Note_on_c, 5, 62, 102
7, 51480, Note_on_c, 5, 62, 0
7, 51480, Note_on_c, 5, 53, 0
7, 51480, Note_on_c, 5, 46, 0
7, 51480, Note_on_c, 5, 50, 0
7, 51480, Note_on_c, 5, 58, 0
7, 51480, Note_on_c, 5, 48, 102
7, 51480, Note_on_c, 5, 64, 102
7, 51480, Note_on_c, 5, 55, 102
7, 51480, Note_on_c, 5, 52, 102
7, 51480, Note_on_c, 5, 60, 102
7, 51600, Note_on_c, 5, 60, 0
7, 51600, Note_on_c, 5, 55, 0
7, 51600, Note_on_c, 5, 48, 0
7, 51600, Note_on_c, 5, 64, 0
7, 51600, Note_on_c, 5, 52, 0
7, 51600, Note_on_c, 5, 62, 101
7, 51600, Note_on_c, 5, 58, 101
7, 51600, Note_on_c, 5, 53, 101
7, 51600, Note_on_c, 5, 50, 101
7, 51720, Note_on_c, 5, 50, 0
7, 51720, Note_on_c, 5, 62, 0
7, 51720, Note_on_c, 5, 58, 0
7, 51720, Note_on_c, 5, 53, 0
7, 51720, Note_on_c, 5, 64, 101
7, 51720, Note_on_c, 5, 52, 101
7, 51720, Note_on_c, 5, 60, 101
7, 51720, Note_on_c, 5, 55, 101
7, 51840, Note_on_c, 5, 55, 0
7, 51840, Note_on_c, 5, 64, 0
7, 51840, Note_on_c, 5, 52, 0
7, 51840, Note_on_c, 5, 60, 0
7, 51840, Note_on_c, 5, 65, 101
7, 51840, Note_on_c, 5, 53, 101
7, 51840, Note_on_c, 5, 62, 101
7, 51840, Note_on_c, 5, 57, 101
7, 51960, Note_on_c, 5, 57, 0
7, 51960, Note_on_c, 5, 65, 0
7, 51960, Note_on_c, 5, 53, 0
7, 51960, Note_on_c, 5, 62, 0
7, 51960, Note_on_c, 5, 67, 101
7, 51960, Note_on_c, 5, 55, 101
7, 51960, Note_on_c, 5, 64, 101
7, 51960, Note_on_c, 5, 58, 101
7, 52080, Note_on_c, 5, 58, 0
7, 52080, Note_on_c, 5, 67, 0
7, 52080, Note_on_c, 5, 55, 0
7, 52080, Note_on_c, 5, 64, 0
7, 52080, Note_on_c, 5, 57, 101
7, 52080, Note_on_c, 5, 62, 101
7, 52080, Note_on_c, 5, 53, 101
7, 52080, Note_on_c, 5, 65, 101
7, 52194, Note_on_c, 5, 65, 0
7, 52194, Note_on_c, 5, 57, 0
7, 52194, Note_on_c, 5, 62, 0
7, 52194, Note_on_c, 5, 53, 0
7, 52200, Note_on_c, 5, 55, 101
7, 52200, Note_on_c, 5, 60, 101
7, 52200, Note_on_c, 5, 52, 101
7, 52200, Note_on_c, 5, 64, 101
7, 52314, Note_on_c, 5, 64, 0
7, 52314, Note_on_c, 5, 55, 0
7, 52314, Note_on_c, 5, 60, 0
7, 52314, Note_on_c, 5, 52, 0
7, 52320, Note_on_c, 5, 50, 101
7, 52320, Note_on_c, 5, 58, 101
7, 52680, Note_on_c, 5, 58, 0
7, 52680, Note_on_c, 5, 50, 0
7, 52680, Note_on_c, 5, 48, 101
7, 52680, Note_on_c, 5, 57, 101
7, 53040, Note_on_c, 5, 57, 0
7, 53040, Note_on_c, 5, 48, 0
7, 53040, Note_on_c, 5, 46, 101
7, 53040, Note_on_c, 5, 55, 101
7, 53400, Note_on_c, 5, 55, 0
7, 53400, Note_on_c, 5, 46, 0
7, 53400, Note_on_c, 5, 45, 101
7, 53400, Note_on_c, 5, 57, 101
7, 54120, Note_on_c, 5, 57, 0
7, 54120, Note_on_c, 5, 45, 0
7, 54120, Note_on_c, 5, 50, 105
7, 54120, Note_on_c, 5, 38, 105
7, 54480, Note_on_c, 5, 38, 0
7, 54480, Note_on_c, 5, 50, 0
7, 54480, Note_on_c, 5, 45, 105
7, 54480, Note_on_c, 5, 33, 105
7, 54840, Note_on_c, 5, 33, 0
7, 54840, Note_on_c, 5, 45, 0
7, 54840, Note_on_c, 5, 38, 105
7, 54840, Note_on_c, 5, 50, 105
7, 55200, Note_on_c, 5, 50, 0
7, 55200, Note_on_c, 5, 38, 0
7, 55200, Note_on_c, 5, 45, 105
7, 55200, Note_on_c, 5, 33, 105
7, 55560, Note_on_c, 5, 33, 0
7, 55560, Note_on_c, 5, 45, 0
7, 55560, Note_on_c, 5, 50, 105
7, 55560, Note_on_c, 5, 38, 105
7, 55920, Note_on_c, 5, 38, 0
7, 55920, Note_on_c, 5, 50, 0
7, 55920, Note_on_c, 5, 45, 105
7, 55920, Note_on_c, 5, 33, 105
7, 56280, Note_on_c, 5, 33, 0
7, 56280, Note_on_c, 5, 45, 0
7, 56280, Note_on_c, 5, 50, 105
7, 56280, Note_on_c, 5, 38, 105
7, 56640, Note_on_c, 5, 38, 0
7, 56640, Note_on_c, 5, 50, 0
7, 56640, Note_on_c, 5, 45, 105
7, 56640, Note_on_c, 5, 33, 105
7, 57000, Note_on_c, 5, 33, 0
7, 57000, Note_on_c, 5, 45, 0
7, 57000, Note_on_c, 5, 50, 105
7, 57000, Note_on_c, 5, 38, 105
7, 57360, Note_on_c, 5, 38, 0
7, 57360, Note_on_c, 5, 50, 0
7, 57360, Note_on_c, 5, 45, 105
7, 57360, Note_on_c, 5, 33, 105
7, 57720, Note_on_c, 5, 33, 0
7, 57720, Note_on_c, 5, 45, 0
7, 57720, Note_on_c, 5, 38, 105
7, 57720, Note_on_c, 5, 50, 105
7, 58080, Note_on_c, 5, 50, 0
7, 58080, Note_on_c, 5, 38, 0
7, 58080, Note_on_c, 5, 45, 105
7, 58080, Note_on_c, 5, 33, 105
7, 58440, Note_on_c, 5, 33, 0
7, 58440, Note_on_c, 5, 45, 0
7, 58440, Note_on_c, 5, 50, 105
7, 58440, Note_on_c, 5, 38, 105
7, 58800, Note_on_c, 5, 38, 0
7, 58800, Note_on_c, 5, 50, 0
7, 58800, Note_on_c, 5, 45, 105
7, 58800, Note_on_c, 5, 33, 105
7, 59160, Note_on_c, 5, 33, 0
7, 59160, Note_on_c, 5, 45, 0
7, 59160, Note_on_c, 5, 50, 105
7, 59160, Note_on_c, 5, 38, 105
7, 59520, Note_on_c, 5, 38, 0
7, 59520, Note_on_c, 5, 50, 0
7, 59520, Note_on_c, 5, 45, 105
7, 59520, Note_on_c, 5, 33, 105
7, 59880, Note_on_c, 5, 33, 0
7, 59880, Note_on_c, 5, 45, 0
7, 59880, Note_on_c, 5, 55, 90
7, 59880, Note_on_c, 5, 60, 90
7, 59994, Note_on_c, 5, 60, 0
7, 59994, Note_on_c, 5, 55, 0
7, 60000, Note_on_c, 5, 53, 90
7, 60000, Note_on_c, 5, 58, 90
7, 60114, Note_on_c, 5, 58, 0
7, 60114, Note_on_c, 5, 53, 0
7, 60120, Note_on_c, 5, 60, 90
7, 60120, Note_on_c, 5, 65, 90
7, 60234, Note_on_c, 5, 65, 0
7, 60234, Note_on_c, 5, 60, 0
7, 60240, Note_on_c, 5, 58, 90
7, 60240, Note_on_c, 5, 63, 90
7, 60354, Note_on_c, 5, 63, 0
7, 60354, Note_on_c, 5, 58, 0
7, 60360, Note_on_c, 5, 56, 90
7, 60360, Note_on_c, 5, 60, 90
7, 60474, Note_on_c, 5, 60, 0
7, 60474, Note_on_c, 5, 56, 0
7, 60480, Note_on_c, 5, 51, 90
7, 60480, Note_on_c, 5, 56, 90
7, 60594, Note_on_c, 5, 56, 0
7, 60594, Note_on_c, 5, 51, 0
7, 60600, Note_on_c, 5, 53, 90
7, 60600, Note_on_c, 5, 58, 90
7, 60714, Note_on_c, 5, 58, 0
7, 60714, Note_on_c, 5, 53, 0
7, 60720, Note_on_c, 5, 62, 90
7, 60720, Note_on_c, 5, 65, 90
7, 60834, Note_on_c, 5, 65, 0
7, 60834, Note_on_c, 5, 62, 0
7, 60840, Note_on_c, 5, 60, 90
7, 60840, Note_on_c, 5, 63, 90
7, 60954, Note_on_c, 5, 63, 0
7, 60954, Note_on_c, 5, 60, 0
7, 60960, Note_on_c, 5, 58, 90
7, 60960, Note_on_c, 5, 62, 90
7, 61074, Note_on_c, 5, 62, 0
7, 61074, Note_on_c, 5, 58, 0
7, 61080, Note_on_c, 5, 56, 90
7, 61080, Note_on_c, 5, 60, 90
7, 61194, Note_on_c, 5, 60, 0
7, 61194, Note_on_c, 5, 56, 0
7, 61200, Note_on_c, 5, 51, 90
7, 61200, Note_on_c, 5, 56, 90
7, 61314, Note_on_c, 5, 56, 0
7, 61314, Note_on_c, 5, 51, 0
7, 61320, Note_on_c, 5, 60, 90
7, 61320, Note_on_c, 5, 55, 90
7, 61434, Note_on_c, 5, 55, 0
7, 61434, Note_on_c, 5, 60, 0
7, 61440, Note_on_c, 5, 58, 90
7, 61440, Note_on_c, 5, 53, 90
7, 61554, Note_on_c, 5, 53, 0
7, 61554, Note_on_c, 5, 58, 0
7, 61560, Note_on_c, 5, 65, 90
7, 61560, Note_on_c, 5, 60, 90
7, 61674, Note_on_c, 5, 60, 0
7, 61674, Note_on_c, 5, 65, 0
7, 61680, Note_on_c, 5, 63, 90
7, 61680, Note_on_c, 5, 58, 90
7, 61794, Note_on_c, 5, 58, 0
7, 61794, Note_on_c, 5, 63, 0
7, 61800, Note_on_c, 5, 60, 90
7, 61800, Note_on_c, 5, 56, 90
7, 61914, Note_on_c, 5, 56, 0
7, 61914, Note_on_c, 5, 60, 0
7, 61920, Note_on_c, 5, 56, 90
7, 61920, Note_on_c, 5, 51, 90
7, 62034, Note_on_c, 5, 51, 0
7, 62034, Note_on_c, 5, 56, 0
7, 62040, Note_on_c, 5, 58, 90
7, 62040, Note_on_c, 5, 53, 90
7, 62154, Note_on_c, 5, 53, 0
7, 62154, Note_on_c, 5, 58, 0
7, 62160, Note_on_c, 5, 65, 90
7, 62160, Note_on_c, 5, 62, 90
7, 62274, Note_on_c, 5, 62, 0
7, 62274, Note_on_c, 5, 65, 0
7, 62280, Note_on_c, 5, 63, 90
7, 62280, Note_on_c, 5, 60, 90
7, 62394, Note_on_c, 5, 60, 0
7, 62394, Note_on_c, 5, 63, 0
7, 62400, Note_on_c, 5, 62, 90
7, 62400, Note_on_c, 5, 58, 90
7, 62514, Note_on_c, 5, 58, 0
7, 62514, Note_on_c, 5, 62, 0
7, 62520, Note_on_c, 5, 60, 90
7, 62520, Note_on_c, 5, 56, 90
7, 62634, Note_on_c, 5, 56, 0
7, 62634, Note_on_c, 5, 60, 0
7, 62640, Note_on_c, 5, 58, 90
7, 62640, Note_on_c, 5, 51, 90
7, 62754, Note_on_c, 5, 51, 0
7, 62754, Note_on_c, 5, 58, 0
7, 62760, Note_on_c, 5, 55, 90
7, 62760, Note_on_c, 5, 60, 90
7, 62874, Note_on_c, 5, 60, 0
7, 62874, Note_on_c, 5, 55, 0
7, 62880, Note_on_c, 5, 53, 90
7, 62880, Note_on_c, 5, 58, 90
7, 62994, Note_on_c, 5, 58, 0
7, 62994, Note_on_c, 5, 53, 0
7, 63000, Note_on_c, 5, 60, 90
7, 63000, Note_on_c, 5, 65, 90
7, 63114, Note_on_c, 5, 65, 0
7, 63114, Note_on_c, 5, 60, 0
7, 63120, Note_on_c, 5, 58, 90
7, 63120, Note_on_c, 5, 63, 90
7, 63234, Note_on_c, 5, 63, 0
7, 63234, Note_on_c, 5, 58, 0
7, 63240, Note_on_c, 5, 56, 90
7, 63240, Note_on_c, 5, 60, 90
7, 63354, Note_on_c, 5, 60, 0
7, 63354, Note_on_c, 5, 56, 0
7, 63360, Note_on_c, 5, 51, 90
7, 63360, Note_on_c, 5, 56, 90
7, 63474, Note_on_c, 5, 56, 0
7, 63474, Note_on_c, 5, 51, 0
7, 63480, Note_on_c, 5, 53, 90
7, 63480, Note_on_c, 5, 58, 90
7, 63594, Note_on_c, 5, 58, 0
7, 63594, Note_on_c, 5, 53, 0
7, 63600, Note_on_c, 5, 62, 90
7, 63600, Note_on_c, 5, 65, 90
7, 63714, Note_on_c, 5, 65, 0
7, 63714, Note_on_c, 5, 62, 0
7, 63720, Note_on_c, 5, 60, 90
7, 63720, Note_on_c, 5, 63, 90
7, 63834, Note_on_c, 5, 63, 0
7, 63834, Note_on_c, 5, 60, 0
7, 63840, Note_on_c, 5, 58, 90
7, 63840, Note_on_c, 5, 62, 90
7, 63954, Note_on_c, 5, 62, 0
7, 63954, Note_on_c, 5, 58, 0
7, 63960, Note_on_c, 5, 56, 90
7, 63960, Note_on_c, 5, 60, 90
7, 64074, Note_on_c, 5, 60, 0
7, 64074, Note_on_c, 5, 56, 0
7, 64080, Note_on_c, 5, 51, 90
7, 64080, Note_on_c, 5, 56, 90
7, 64194, Note_on_c, 5, 56, 0
7, 64194, Note_on_c, 5, 51, 0
7, 64200, Note_on_c, 5, 60, 90
7, 64200, Note_on_c, 5, 55, 90
7, 64314, Note_on_c, 5, 55, 0
7, 64314, Note_on_c, 5, 60, 0
7, 64320, Note_on_c, 5, 58, 90
7, 64320, Note_on_c, 5, 53, 90
7, 64434, Note_on_c, 5, 53, 0
7, 64434, Note_on_c, 5, 58, 0
7, 64440, Note_on_c, 5, 65, 90
7, 64440, Note_on_c, 5, 60, 90
7, 64554, Note_on_c, 5, 60, 0
7, 64554, Note_on_c, 5, 65, 0
7, 64560, Note_on_c, 5, 63, 90
7, 64560, Note_on_c, 5, 58, 90
7, 64674, Note_on_c, 5, 58, 0
7, 64674, Note_on_c, 5, 63, 0
7, 64680, Note_on_c, 5, 60, 90
7, 64680, Note_on_c, 5, 56, 90
7, 64794, Note_on_c, 5, 56, 0
7, 64794, Note_on_c, 5, 60, 0
7, 64800, Note_on_c, 5, 56, 90
7, 64800, Note_on_c, 5, 51, 90
7, 64914, Note_on_c, 5, 51, 0
7, 64914, Note_on_c, 5, 56, 0
7, 64920, Note_on_c, 5, 58, 90
7, 64920, Note_on_c, 5, 53, 90
7, 65034, Note_on_c, 5, 53, 0
7, 65034, Note_on_c, 5, 58, 0
7, 65040, Note_on_c, 5, 65, 90
7, 65040, Note_on_c, 5, 62, 90
7, 65154, Note_on_c, 5, 62, 0
7, 65154, Note_on_c, 5, 65, 0
7, 65160, Note_on_c, 5, 63, 90
7, 65160, Note_on_c, 5, 60, 90
7, 65274, Note_on_c, 5, 60, 0
7, 65274, Note_on_c, 5, 63, 0
7, 65280, Note_on_c, 5, 62, 90
7, 65280, Note_on_c, 5, 58, 90
7, 65394, Note_on_c, 5, 58, 0
7, 65394, Note_on_c, 5, 62, 0
7, 65400, Note_on_c, 5, 60, 90
7, 65400, Note_on_c, 5, 56, 90
7, 65514, Note_on_c, 5, 56, 0
7, 65514, Note_on_c, 5, 60, 0
7, 65520, Note_on_c, 5, 58, 90
7, 65520, Note_on_c, 5, 51, 90
7, 65634, Note_on_c, 5, 51, 0
7, 65634, Note_on_c, 5, 58, 0
7, 77160, Note_on_c, 5, 48, 90
7, 77160, Note_on_c, 5, 57, 80
7, 77190, Note_on_c, 5, 57, 0
7, 77220, Note_on_c, 5, 55, 80
7, 77250, Note_on_c, 5, 55, 0
7, 77280, Note_on_c, 5, 57, 80
7, 77310, Note_on_c, 5, 57, 0
7, 77340, Note_on_c, 5, 55, 80
7, 77370, Note_on_c, 5, 55, 0
7, 77400, Note_on_c, 5, 57, 80
7, 77430, Note_on_c, 5, 57, 0
7, 77460, Note_on_c, 5, 55, 80
7, 77490, Note_on_c, 5, 55, 0
7, 77520, Note_on_c, 5, 57, 80
7, 77550, Note_on_c, 5, 57, 0
7, 77580, Note_on_c, 5, 55, 80
7, 77610, Note_on_c, 5, 55, 0
7, 77640, Note_on_c, 5, 57, 80
7, 77670, Note_on_c, 5, 57, 0
7, 77700, Note_on_c, 5, 55, 80
7, 77730, Note_on_c, 5, 55, 0
7, 77760, Note_on_c, 5, 57, 80
7, 77790, Note_on_c, 5, 57, 0
7, 77820, Note_on_c, 5, 55, 80
7, 77850, Note_on_c, 5, 55, 0
7, 77880, Note_on_c, 5, 57, 80
7, 77910, Note_on_c, 5, 57, 0
7, 77940, Note_on_c, 5, 55, 80
7, 77970, Note_on_c, 5, 55, 0
7, 78000, Note_on_c, 5, 57, 80
7, 78030, Note_on_c, 5, 57, 0
7, 78060, Note_on_c, 5, 55, 80
7, 78090, Note_on_c, 5, 55, 0
7, 78120, Note_on_c, 5, 57, 80
7, 78150, Note_on_c, 5, 57, 0
7, 78180, Note_on_c, 5, 55, 80
7, 78210, Note_on_c, 5, 55, 0
7, 78240, Note_on_c, 5, 57, 80
7, 78270, Note_on_c, 5, 57, 0
7, 78300, Note_on_c, 5, 55, 80
7, 78330, Note_on_c, 5, 55, 0
7, 78360, Note_on_c, 5, 57, 80
7, 78390, Note_on_c, 5, 57, 0
7, 78420, Note_on_c, 5, 55, 80
7, 78450, Note_on_c, 5, 55, 0
7, 78480, Note_on_c, 5, 57, 80
7, 78510, Note_on_c, 5, 57, 0
7, 78540, Note_on_c, 5, 55, 80
7, 78570, Note_on_c, 5, 55, 0
7, 78600, Note_on_c, 5, 48, 0
7, 78600, Note_on_c, 5, 48, 90
7, 78600, Note_on_c, 5, 57, 80
7, 78630, Note_on_c, 5, 57, 0
7, 78660, Note_on_c, 5, 55, 80
7, 78690, Note_on_c, 5, 55, 0
7, 78720, Note_on_c, 5, 57, 80
7, 78750, Note_on_c, 5, 57, 0
7, 78780, Note_on_c, 5, 55, 80
7, 78810, Note_on_c, 5, 55, 0
7, 78840, Note_on_c, 5, 57, 80
7, 78870, Note_on_c, 5, 57, 0
7, 78900, Note_on_c, 5, 55, 80
7, 78930, Note_on_c, 5, 55, 0
7, 78960, Note_on_c, 5, 57, 80
7, 78990, Note_on_c, 5, 57, 0
7, 79020, Note_on_c, 5, 55, 80
7, 79050, Note_on_c, 5, 55, 0
7, 79080, Note_on_c, 5, 57, 80
7, 79110, Note_on_c, 5, 57, 0
7, 79140, Note_on_c, 5, 55, 80
7, 79170, Note_on_c, 5, 55, 0
7, 79200, Note_on_c, 5, 57, 80
7, 79230, Note_on_c, 5, 57, 0
7, 79260, Note_on_c, 5, 55, 80
7, 79290, Note_on_c, 5, 55, 0
7, 79320, Note_on_c, 5, 57, 80
7, 79350, Note_on_c, 5, 57, 0
7, 79380, Note_on_c, 5, 55, 80
7, 79410, Note_on_c, 5, 55, 0
7, 79440, Note_on_c, 5, 57, 80
7, 79470, Note_on_c, 5, 57, 0
7, 79500, Note_on_c, 5, 55, 80
7, 79530, Note_on_c, 5, 55, 0
7, 79560, Note_on_c, 5, 57, 80
7, 79590, Note_on_c, 5, 57, 0
7, 79620, Note_on_c, 5, 55, 80
7, 79650, Note_on_c, 5, 55, 0
7, 79680, Note_on_c, 5, 57, 80
7, 79710, Note_on_c, 5, 57, 0
7, 79740, Note_on_c, 5, 55, 80
7, 79770, Note_on_c, 5, 55, 0
7, 79800, Note_on_c, 5, 57, 80
7, 79830, Note_on_c, 5, 57, 0
7, 79860, Note_on_c, 5, 55, 80
7, 79890, Note_on_c, 5, 55, 0
7, 79920, Note_on_c, 5, 57, 80
7, 79950, Note_on_c, 5, 57, 0
7, 79980, Note_on_c, 5, 55, 80
7, 80010, Note_on_c, 5, 55, 0
7, 80040, Note_on_c, 5, 48, 0
7, 80040, Note_on_c, 5, 48, 90
7, 80040, Note_on_c, 5, 57, 80
7, 80070, Note_on_c, 5, 57, 0
7, 80100, Note_on_c, 5, 55, 80
7, 80130, Note_on_c, 5, 55, 0
7, 80160, Note_on_c, 5, 57, 80
7, 80190, Note_on_c, 5, 57, 0
7, 80220, Note_on_c, 5, 55, 80
7, 80250, Note_on_c, 5, 55, 0
7, 80280, Note_on_c, 5, 57, 80
7, 80310, Note_on_c, 5, 57, 0
7, 80340, Note_on_c, 5, 55, 80
7, 80370, Note_on_c, 5, 55, 0
7, 80400, Note_on_c, 5, 57, 80
7, 80430, Note_on_c, 5, 57, 0
7, 80460, Note_on_c, 5, 55, 80
7, 80490, Note_on_c, 5, 55, 0
7, 80520, Note_on_c, 5, 57, 80
7, 80550, Note_on_c, 5, 57, 0
7, 80580, Note_on_c, 5, 55, 80
7, 80610, Note_on_c, 5, 55, 0
7, 80640, Note_on_c, 5, 57, 80
7, 80670, Note_on_c, 5, 57, 0
7, 80700, Note_on_c, 5, 55, 80
7, 80730, Note_on_c, 5, 55, 0
7, 80760, Note_on_c, 5, 57, 80
7, 80790, Note_on_c, 5, 57, 0
7, 80820, Note_on_c, 5, 55, 80
7, 80850, Note_on_c, 5, 55, 0
7, 80880, Note_on_c, 5, 57, 80
7, 80910, Note_on_c, 5, 57, 0
7, 80940, Note_on_c, 5, 55, 80
7, 80970, Note_on_c, 5, 55, 0
7, 81000, Note_on_c, 5, 57, 80
7, 81030, Note_on_c, 5, 57, 0
7, 81060, Note_on_c, 5, 55, 80
7, 81090, Note_on_c, 5, 55, 0
7, 81120, Note_on_c, 5, 57, 80
7, 81150, Note_on_c, 5, 57, 0
7, 81180, Note_on_c, 5, 55, 80
7, 81210, Note_on_c, 5, 55, 0
7, 81240, Note_on_c, 5, 57, 80
7, 81270, Note_on_c, 5, 57, 0
7, 81300, Note_on_c, 5, 55, 80
7, 81330, Note_on_c, 5, 55, 0
7, 81360, Note_on_c, 5, 57, 80
7, 81390, Note_on_c, 5, 57, 0
7, 81420, Note_on_c, 5, 55, 80
7, 81450, Note_on_c, 5, 55, 0
7, 81480, Note_on_c, 5, 48, 0
7, 81480, Note_on_c, 5, 48, 90
7, 81480, Note_on_c, 5, 57, 80
7, 81510, Note_on_c, 5, 57, 0
7, 81540, Note_on_c, 5, 55, 80
7, 81570, Note_on_c, 5, 55, 0
7, 81600, Note_on_c, 5, 57, 80
7, 81630, Note_on_c, 5, 57, 0
7, 81660, Note_on_c, 5, 55, 80
7, 81690, Note_on_c, 5, 55, 0
7, 81720, Note_on_c, 5, 57, 80
7, 81750, Note_on_c, 5, 57, 0
7, 81780, Note_on_c, 5, 55, 80
7, 81810, Note_on_c, 5, 55, 0
7, 81840, Note_on_c, 5, 57, 80
7, 81870, Note_on_c, 5, 57, 0
7, 81900, Note_on_c, 5, 55, 80
7, 81930, Note_on_c, 5, 55, 0
7, 81960, Note_on_c, 5, 57, 80
7, 81990, Note_on_c, 5, 57, 0
7, 82020, Note_on_c, 5, 55, 80
7, 82050, Note_on_c, 5, 55, 0
7, 82080, Note_on_c, 5, 57, 80
7, 82110, Note_on_c, 5, 57, 0
7, 82140, Note_on_c, 5, 55, 80
7, 82170, Note_on_c, 5, 55, 0
7, 82200, Note_on_c, 5, 57, 80
7, 82230, Note_on_c, 5, 57, 0
7, 82260, Note_on_c, 5, 55, 80
7, 82290, Note_on_c, 5, 55, 0
7, 82320, Note_on_c, 5, 57, 80
7, 82350, Note_on_c, 5, 57, 0
7, 82380, Note_on_c, 5, 55, 80
7, 82410, Note_on_c, 5, 55, 0
7, 82440, Note_on_c, 5, 57, 80
7, 82470, Note_on_c, 5, 57, 0
7, 82500, Note_on_c, 5, 55, 80
7, 82530, Note_on_c, 5, 55, 0
7, 82560, Note_on_c, 5, 57, 80
7, 82590, Note_on_c, 5, 57, 0
7, 82620, Note_on_c, 5, 55, 80
7, 82650, Note_on_c, 5, 55, 0
7, 82680, Note_on_c, 5, 57, 80
7, 82710, Note_on_c, 5, 57, 0
7, 82740, Note_on_c, 5, 55, 80
7, 82770, Note_on_c, 5, 55, 0
7, 82800, Note_on_c, 5, 57, 80
7, 82830, Note_on_c, 5, 57, 0
7, 82860, Note_on_c, 5, 55, 80
7, 82890, Note_on_c, 5, 55, 0
7, 82920, Note_on_c, 5, 48, 0
7, 88670, Control_c, 5, 11, 127
7, 88680, Note_on_c, 5, 38, 100
7, 88680, Note_on_c, 5, 62, 100
7, 88680, Note_on_c, 5, 50, 100
7, 88680, Note_on_c, 5, 57, 100
7, 88700, Control_c, 5, 11, 126
7, 88720, Control_c, 5, 11, 125
7, 88740, Control_c, 5, 11, 124
7, 88770, Control_c, 5, 11, 123
7, 88790, Control_c, 5, 11, 122
7, 88810, Control_c, 5, 11, 121
7, 88830, Control_c, 5, 11, 120
7, 88860, Control_c, 5, 11, 119
7, 88880, Control_c, 5, 11, 118
7, 88900, Control_c, 5, 11, 117
7, 88930, Control_c, 5, 11, 116
7, 88950, Control_c, 5, 11, 115
7, 88970, Control_c, 5, 11, 114
7, 88990, Control_c, 5, 11, 113
7, 89020, Control_c, 5, 11, 112
7, 89040, Control_c, 5, 11, 111
7, 89060, Control_c, 5, 11, 110
7, 89090, Control_c, 5, 11, 109
7, 89110, Control_c, 5, 11, 108
7, 89130, Control_c, 5, 11, 107
7, 89150, Control_c, 5, 11, 106
7, 89160, Note_on_c, 5, 57, 0
7, 89160, Note_on_c, 5, 38, 0
7, 89160, Note_on_c, 5, 62, 0
7, 89160, Note_on_c, 5, 50, 0
7, 89160, Note_on_c, 5, 38, 100
7, 89160, Note_on_c, 5, 59, 100
7, 89160, Note_on_c, 5, 50, 100
7, 89160, Note_on_c, 5, 64, 100
7, 89180, Control_c, 5, 11, 105
7, 89200, Control_c, 5, 11, 104
7, 89220, Control_c, 5, 11, 103
7, 89250, Control_c, 5, 11, 102
7, 89270, Control_c, 5, 11, 101
7, 89290, Control_c, 5, 11, 100
7, 89310, Control_c, 5, 11, 99
7, 89340, Control_c, 5, 11, 98
7, 89360, Control_c, 5, 11, 97
7, 89380, Control_c, 5, 11, 96
7, 89400, Note_on_c, 5, 64, 0
7, 89400, Note_on_c, 5, 38, 0
7, 89400, Note_on_c, 5, 59, 0
7, 89400, Note_on_c, 5, 50, 0
7, 89400, Note_on_c, 5, 38, 100
7, 89400, Note_on_c, 5, 57, 100
7, 89400, Note_on_c, 5, 50, 100
7, 89400, Note_on_c, 5, 62, 100
7, 89410, Control_c, 5, 11, 95
7, 89430, Control_c, 5, 11, 94
7, 89450, Control_c, 5, 11, 93
7, 89470, Control_c, 5, 11, 92
7, 89500, Control_c, 5, 11, 91
7, 89520, Control_c, 5, 11, 90
7, 89540, Control_c, 5, 11, 89
7, 89570, Control_c, 5, 11, 88
7, 89590, Control_c, 5, 11, 87
7, 89610, Control_c, 5, 11, 86
7, 89630, Control_c, 5, 11, 85
7, 89660, Control_c, 5, 11, 84
7, 89680, Control_c, 5, 11, 83
7, 89700, Control_c, 5, 11, 82
7, 89730, Control_c, 5, 11, 81
7, 89750, Control_c, 5, 11, 80
7, 89760, Note_on_c, 5, 62, 0
7, 89760, Note_on_c, 5, 38, 0
7, 89760, Note_on_c, 5, 57, 0
7, 89760, Note_on_c, 5, 50, 0
7, 89760, Note_on_c, 5, 38, 100
7, 89760, Note_on_c, 5, 57, 100
7, 89760, Note_on_c, 5, 50, 100
7, 89760, Note_on_c, 5, 62, 100
7, 89770, Control_c, 5, 11, 79
7, 89790, Control_c, 5, 11, 78
7, 89820, Control_c, 5, 11, 77
7, 89840, Control_c, 5, 11, 76
7, 89860, Control_c, 5, 11, 75
7, 89890, Control_c, 5, 11, 74
7, 89910, Control_c, 5, 11, 73
7, 89930, Control_c, 5, 11, 72
7, 89950, Control_c, 5, 11, 71
7, 89980, Control_c, 5, 11, 70
7, 90000, Control_c, 5, 11, 69
7, 90020, Control_c, 5, 11, 68
7, 90050, Control_c, 5, 11, 67
7, 90070, Control_c, 5, 11, 66
7, 90090, Control_c, 5, 11, 65
7, 90110, Control_c, 5, 11, 64
7, 90120, Note_on_c, 5, 62, 0
7, 90120, Note_on_c, 5, 38, 0
7, 90120, Note_on_c, 5, 57, 0
7, 90120, Note_on_c, 5, 50, 0
7, 90120, Note_on_c, 5, 40, 100
7, 90120, Note_on_c, 5, 52, 100
7, 90120, Note_on_c, 5, 48, 100
7, 90120, Note_on_c, 5, 60, 100
7, 90140, Control_c, 5, 11, 63
7, 90160, Control_c, 5, 11, 62
7, 90180, Control_c, 5, 11, 61
7, 90200, Control_c, 5, 11, 60
7, 90230, Control_c, 5, 11, 59
7, 90250, Control_c, 5, 11, 58
7, 90270, Control_c, 5, 11, 57
7, 90300, Control_c, 5, 11, 56
7, 90320, Control_c, 5, 11, 55
7, 90340, Control_c, 5, 11, 54
7, 90360, Control_c, 5, 11, 53
7, 90390, Control_c, 5, 11, 52
7, 90410, Control_c, 5, 11, 51
7, 90430, Control_c, 5, 11, 50
7, 90460, Control_c, 5, 11, 49
7, 90480, Note_on_c, 5, 60, 0
7, 90480, Note_on_c, 5, 40, 0
7, 90480, Note_on_c, 5, 52, 0
7, 90480, Note_on_c, 5, 48, 0
7, 90480, Control_c, 5, 11, 48
7, 90480, Note_on_c, 5, 38, 100
7, 90480, Note_on_c, 5, 54, 100
7, 90480, Note_on_c, 5, 50, 100
7, 90480, Note_on_c, 5, 59, 100
7, 90500, Control_c, 5, 11, 47
7, 90520, Control_c, 5, 11, 46
7, 90550, Control_c, 5, 11, 45
7, 90570, Control_c, 5, 11, 44
7, 90590, Control_c, 5, 11, 43
7, 90620, Control_c, 5, 11, 42
7, 90640, Control_c, 5, 11, 41
7, 90660, Control_c, 5, 11, 40
7, 90680, Control_c, 5, 11, 39
7, 90710, Control_c, 5, 11, 38
7, 90730, Control_c, 5, 11, 37
7, 90750, Control_c, 5, 11, 36
7, 90780, Control_c, 5, 11, 35
7, 90800, Control_c, 5, 11, 34
7, 90820, Control_c, 5, 11, 33
7, 90840, Note_on_c, 5, 59, 0
7, 90840, Note_on_c, 5, 38, 0
7, 90840, Note_on_c, 5, 54, 0
7, 90840, Note_on_c, 5, 50, 0
7, 90840, Control_c, 5, 11, 32
7, 90840, Note_on_c, 5, 36, 100
7, 90840, Note_on_c, 5, 48, 100
7, 90840, Note_on_c, 5, 52, 100
7, 90840, Note_on_c, 5, 60, 100
7, 90870, Control_c, 5, 11, 31
7, 90890, Control_c, 5, 11, 30
7, 90910, Control_c, 5, 11, 29
7, 90940, Control_c, 5, 11, 28
7, 90960, Note_on_c, 5, 60, 0
7, 90960, Note_on_c, 5, 36, 0
7, 90960, Note_on_c, 5, 48, 0
7, 90960, Note_on_c, 5, 52, 0
7, 90960, Control_c, 5, 11, 27
7, 90960, Note_on_c, 5, 38, 100
7, 90960, Note_on_c, 5, 50, 100
7, 90960, Note_on_c, 5, 54, 100
7, 90960, Note_on_c, 5, 62, 100
7, 90980, Control_c, 5, 11, 26
7, 91000, Control_c, 5, 11, 25
7, 91030, Control_c, 5, 11, 24
7, 91050, Control_c, 5, 11, 23
7, 91070, Control_c, 5, 11, 22
7, 91100, Control_c, 5, 11, 21
7, 91120, Control_c, 5, 11, 20
7, 91140, Control_c, 5, 11, 19
7, 91160, Control_c, 5, 11, 18
7, 91190, Control_c, 5, 11, 17
7, 91200, Note_on_c, 5, 62, 0
7, 91200, Note_on_c, 5, 38, 0
7, 91200, Note_on_c, 5, 50, 0
7, 91200, Note_on_c, 5, 54, 0
7, 91200, Note_on_c, 5, 40, 100
7, 91200, Note_on_c, 5, 48, 100
7, 91200, Note_on_c, 5, 52, 100
7, 91200, Note_on_c, 5, 60, 100
7, 91210, Control_c, 5, 11, 16
7, 91230, Control_c, 5, 11, 15
7, 91260, Control_c, 5, 11, 14
7, 91280, Control_c, 5, 11, 13
7, 91300, Control_c, 5, 11, 12
7, 91320, Control_c, 5, 11, 11
7, 91350, Control_c, 5, 11, 10
7, 91370, Control_c, 5, 11, 9
7, 91390, Control_c, 5, 11, 8
7, 91420, Control_c, 5, 11, 7
7, 91440, Control_c, 5, 11, 6
7, 91460, Control_c, 5, 11, 5
7, 91480, Control_c, 5, 11, 4
7, 91510, Control_c, 5, 11, 3
7, 91530, Control_c, 5, 11, 2
7, 91550, Control_c, 5, 11, 1
7, 91560, Note_on_c, 5, 60, 0
7, 91560, Note_on_c, 5, 40, 0
7, 91560, Note_on_c, 5, 48, 0
7, 91560, Note_on_c, 5, 52, 0
7, 91570, Control_c, 5, 11, 0
7, 91570, End_track
8, 0, Start_track
8, 0, Title_t, "A7-Slow Strings"
8, 0, Control_c, 6, 0, 0
8, 0, Control_c, 6, 32, 3
8, 0, Program_c, 6, 49
8, 0, Control_c, 6, 7, 110
8, 0, Control_c, 6, 10, 40
8, 156, Control_c, 6, 91, 50
8, 157, Control_c, 6, 93, 20
8, 6840, Note_on_c, 6, 72, 99
8, 7320, Note_on_c, 6, 72, 0
8, 7320, Note_on_c, 6, 74, 98
8, 7560, Note_on_c, 6, 74, 0
8, 7560, Note_on_c, 6, 71, 98
8, 7920, Note_on_c, 6, 71, 0
8, 7920, Note_on_c, 6, 78, 98
8, 8280, Note_on_c, 6, 78, 0
8, 8280, Note_on_c, 6, 79, 98
8, 8640, Note_on_c, 6, 79, 0
8, 8640, Note_on_c, 6, 78, 98
8, 9000, Note_on_c, 6, 78, 0
8, 9000, Note_on_c, 6, 79, 98
8, 9120, Note_on_c, 6, 79, 0
8, 9120, Note_on_c, 6, 81, 98
8, 9360, Note_on_c, 6, 81, 0
8, 9360, Note_on_c, 6, 83, 98
8, 9720, Note_on_c, 6, 83, 0
8, 9720, Note_on_c, 6, 74, 100
8, 9840, Note_on_c, 6, 74, 0
8, 9840, Note_on_c, 6, 79, 100
8, 9960, Note_on_c, 6, 79, 0
8, 9960, Note_on_c, 6, 78, 100
8, 10080, Note_on_c, 6, 78, 0
8, 10080, Note_on_c, 6, 76, 100
8, 10200, Note_on_c, 6, 76, 0
8, 10200, Note_on_c, 6, 74, 100
8, 10320, Note_on_c, 6, 74, 0
8, 10320, Note_on_c, 6, 76, 100
8, 10440, Note_on_c, 6, 76, 0
8, 10440, Note_on_c, 6, 74, 100
8, 10560, Note_on_c, 6, 74, 0
8, 10560, Note_on_c, 6, 79, 100
8, 10680, Note_on_c, 6, 79, 0
8, 10680, Note_on_c, 6, 81, 100
8, 10800, Note_on_c, 6, 81, 0
8, 10800, Note_on_c, 6, 91, 100
8, 10920, Note_on_c, 6, 91, 0
8, 10920, Note_on_c, 6, 89, 100
8, 11040, Note_on_c, 6, 89, 0
8, 11040, Note_on_c, 6, 88, 100
8, 11100, Note_on_c, 6, 88, 0
8, 11100, Note_on_c, 6, 91, 100
8, 11160, Note_on_c, 6, 91, 0
8, 11160, Note_on_c, 6, 89, 100
8, 11220, Note_on_c, 6, 89, 0
8, 11220, Note_on_c, 6, 93, 100
8, 11280, Note_on_c, 6, 93, 0
8, 11280, Note_on_c, 6, 96, 100
8, 11340, Note_on_c, 6, 96, 0
8, 11340, Note_on_c, 6, 100, 100
8, 11400, Note_on_c, 6, 100, 0
8, 11400, Note_on_c, 6, 98, 100
8, 11520, Note_on_c, 6, 98, 0
8, 11520, Note_on_c, 6, 93, 100
8, 11760, Note_on_c, 6, 93, 0
8, 11760, Note_on_c, 6, 86, 100
8, 11880, Note_on_c, 6, 86, 0
8, 11880, Note_on_c, 6, 93, 100
8, 12120, Note_on_c, 6, 93, 0
8, 12120, Note_on_c, 6, 74, 100
8, 12120, Note_on_c, 6, 86, 100
8, 12240, Note_on_c, 6, 86, 0
8, 12240, Note_on_c, 6, 74, 0
8, 12240, Note_on_c, 6, 81, 100
8, 12240, Note_on_c, 6, 93, 100
8, 12360, Note_on_c, 6, 93, 0
8, 12360, Note_on_c, 6, 81, 0
8, 12360, Note_on_c, 6, 79, 100
8, 12360, Note_on_c, 6, 91, 100
8, 12480, Note_on_c, 6, 91, 0
8, 12480, Note_on_c, 6, 79, 0
8, 12480, Note_on_c, 6, 81, 100
8, 12480, Note_on_c, 6, 93, 100
8, 13200, Note_on_c, 6, 93, 0
8, 13200, Note_on_c, 6, 81, 0
8, 13200, Note_on_c, 6, 72, 100
8, 13200, Note_on_c, 6, 79, 100
8, 13560, Note_on_c, 6, 79, 0
8, 13560, Note_on_c, 6, 72, 0
8, 13560, Note_on_c, 6, 70, 100
8, 13560, Note_on_c, 6, 77, 100
8, 13920, Note_on_c, 6, 77, 0
8, 13920, Note_on_c, 6, 70, 0
8, 13920, Note_on_c, 6, 72, 100
8, 13920, Note_on_c, 6, 79, 100
8, 14280, Note_on_c, 6, 79, 0
8, 14280, Note_on_c, 6, 72, 0
8, 14280, Note_on_c, 6, 74, 100
8, 14280, Note_on_c, 6, 81, 100
8, 14640, Note_on_c, 6, 81, 0
8, 14640, Note_on_c, 6, 74, 0
8, 14640, Note_on_c, 6, 72, 100
8, 14640, Note_on_c, 6, 79, 100
8, 15000, Note_on_c, 6, 79, 0
8, 15000, Note_on_c, 6, 72, 0
8, 15000, Note_on_c, 6, 70, 100
8, 15000, Note_on_c, 6, 77, 100
8, 15360, Note_on_c, 6, 77, 0
8, 15360, Note_on_c, 6, 70, 0
8, 15360, Note_on_c, 6, 72, 100
8, 15360, Note_on_c, 6, 79, 100
8, 15720, Note_on_c, 6, 79, 0
8, 15720, Note_on_c, 6, 72, 0
8, 15720, Note_on_c, 6, 74, 100
8, 15720, Note_on_c, 6, 81, 100
8, 16080, Note_on_c, 6, 81, 0
8, 16080, Note_on_c, 6, 74, 0
8, 16080, Note_on_c, 6, 72, 100
8, 16080, Note_on_c, 6, 79, 100
8, 16440, Note_on_c, 6, 79, 0
8, 16440, Note_on_c, 6, 72, 0
8, 16440, Note_on_c, 6, 70, 100
8, 16440, Note_on_c, 6, 77, 100
8, 16800, Note_on_c, 6, 77, 0
8, 16800, Note_on_c, 6, 70, 0
8, 16800, Note_on_c, 6, 72, 100
8, 16800, Note_on_c, 6, 79, 100
8, 17160, Note_on_c, 6, 79, 0
8, 17160, Note_on_c, 6, 72, 0
8, 17160, Note_on_c, 6, 74, 100
8, 17160, Note_on_c, 6, 81, 100
8, 17520, Note_on_c, 6, 81, 0
8, 17520, Note_on_c, 6, 74, 0
8, 17520, Note_on_c, 6, 72, 100
8, 17520, Note_on_c, 6, 79, 100
8, 17880, Note_on_c, 6, 79, 0
8, 17880, Note_on_c, 6, 72, 0
8, 17880, Note_on_c, 6, 70, 100
8, 17880, Note_on_c, 6, 77, 100
8, 18240, Note_on_c, 6, 77, 0
8, 18240, Note_on_c, 6, 70, 0
8, 18240, Note_on_c, 6, 72, 100
8, 18240, Note_on_c, 6, 79, 100
8, 18600, Note_on_c, 6, 79, 0
8, 18600, Note_on_c, 6, 72, 0
8, 18600, Note_on_c, 6, 74, 100
8, 18600, Note_on_c, 6, 81, 100
8, 18960, Note_on_c, 6, 81, 0
8, 18960, Note_on_c, 6, 74, 0
8, 18960, Note_on_c, 6, 60, 90
8, 18960, Note_on_c, 6, 67, 90
8, 19074, Note_on_c, 6, 67, 0
8, 19074, Note_on_c, 6, 60, 0
8, 19080, Note_on_c, 6, 58, 90
8, 19080, Note_on_c, 6, 65, 90
8, 19194, Note_on_c, 6, 65, 0
8, 19194, Note_on_c, 6, 58, 0
8, 19200, Note_on_c, 6, 65, 90
8, 19200, Note_on_c, 6, 72, 90
8, 19314, Note_on_c, 6, 72, 0
8, 19314, Note_on_c, 6, 65, 0
8, 19320, Note_on_c, 6, 63, 90
8, 19320, Note_on_c, 6, 70, 90
8, 19434, Note_on_c, 6, 70, 0
8, 19434, Note_on_c, 6, 63, 0
8, 19440, Note_on_c, 6, 60, 90
8, 19440, Note_on_c, 6, 68, 90
8, 19554, Note_on_c, 6, 68, 0
8, 19554, Note_on_c, 6, 60, 0
8, 19560, Note_on_c, 6, 56, 90
8, 19560, Note_on_c, 6, 63, 90
8, 19674, Note_on_c, 6, 63, 0
8, 19674, Note_on_c, 6, 56, 0
8, 19680, Note_on_c, 6, 58, 90
8, 19680, Note_on_c, 6, 65, 90
8, 19794, Note_on_c, 6, 65, 0
8, 19794, Note_on_c, 6, 58, 0
8, 19800, Note_on_c, 6, 65, 90
8, 19800, Note_on_c, 6, 74, 90
8, 19914, Note_on_c, 6, 74, 0
8, 19914, Note_on_c, 6, 65, 0
8, 19920, Note_on_c, 6, 63, 90
8, 19920, Note_on_c, 6, 72, 90
8, 20034, Note_on_c, 6, 72, 0
8, 20034, Note_on_c, 6, 63, 0
8, 20040, Note_on_c, 6, 62, 90
8, 20040, Note_on_c, 6, 70, 90
8, 20154, Note_on_c, 6, 70, 0
8, 20154, Note_on_c, 6, 62, 0
8, 20160, Note_on_c, 6, 60, 90
8, 20160, Note_on_c, 6, 68, 90
8, 20274, Note_on_c, 6, 68, 0
8, 20274, Note_on_c, 6, 60, 0
8, 20280, Note_on_c, 6, 56, 90
8, 20280, Note_on_c, 6, 63, 90
8, 20394, Note_on_c, 6, 63, 0
8, 20394, Note_on_c, 6, 56, 0
8, 20400, Note_on_c, 6, 60, 90
8, 20400, Note_on_c, 6, 67, 90
8, 20514, Note_on_c, 6, 67, 0
8, 20514, Note_on_c, 6, 60, 0
8, 20520, Note_on_c, 6, 58, 90
8, 20520, Note_on_c, 6, 65, 90
8, 20634, Note_on_c, 6, 65, 0
8, 20634, Note_on_c, 6, 58, 0
8, 20640, Note_on_c, 6, 65, 90
8, 20640, Note_on_c, 6, 72, 90
8, 20754, Note_on_c, 6, 72, 0
8, 20754, Note_on_c, 6, 65, 0
8, 20760, Note_on_c, 6, 63, 90
8, 20760, Note_on_c, 6, 70, 90
8, 20874, Note_on_c, 6, 70, 0
8, 20874, Note_on_c, 6, 63, 0
8, 20880, Note_on_c, 6, 60, 90
8, 20880, Note_on_c, 6, 68, 90
8, 20994, Note_on_c, 6, 68, 0
8, 20994, Note_on_c, 6, 60, 0
8, 21000, Note_on_c, 6, 56, 90
8, 21000, Note_on_c, 6, 63, 90
8, 21114, Note_on_c, 6, 63, 0
8, 21114, Note_on_c, 6, 56, 0
8, 21120, Note_on_c, 6, 58, 90
8, 21120, Note_on_c, 6, 65, 90
8, 21234, Note_on_c, 6, 65, 0
8, 21234, Note_on_c, 6, 58, 0
8, 21240, Note_on_c, 6, 65, 90
8, 21240, Note_on_c, 6, 74, 90
8, 21354, Note_on_c, 6, 74, 0
8, 21354, Note_on_c, 6, 65, 0
8, 21360, Note_on_c, 6, 63, 90
8, 21360, Note_on_c, 6, 72, 90
8, 21474, Note_on_c, 6, 72, 0
8, 21474, Note_on_c, 6, 63, 0
8, 21480, Note_on_c, 6, 62, 90
8, 21480, Note_on_c, 6, 70, 90
8, 21594, Note_on_c, 6, 70, 0
8, 21594, Note_on_c, 6, 62, 0
8, 21600, Note_on_c, 6, 60, 90
8, 21600, Note_on_c, 6, 68, 90
8, 21714, Note_on_c, 6, 68, 0
8, 21714, Note_on_c, 6, 60, 0
8, 21720, Note_on_c, 6, 58, 90
8, 21720, Note_on_c, 6, 63, 90
8, 21834, Note_on_c, 6, 63, 0
8, 21834, Note_on_c, 6, 58, 0
8, 21840, Note_on_c, 6, 60, 90
8, 21840, Note_on_c, 6, 67, 90
8, 21954, Note_on_c, 6, 67, 0
8, 21954, Note_on_c, 6, 60, 0
8, 21960, Note_on_c, 6, 58, 90
8, 21960, Note_on_c, 6, 65, 90
8, 22074, Note_on_c, 6, 65, 0
8, 22074, Note_on_c, 6, 58, 0
8, 22080, Note_on_c, 6, 65, 90
8, 22080, Note_on_c, 6, 72, 90
8, 22194, Note_on_c, 6, 72, 0
8, 22194, Note_on_c, 6, 65, 0
8, 22200, Note_on_c, 6, 63, 90
8, 22200, Note_on_c, 6, 70, 90
8, 22314, Note_on_c, 6, 70, 0
8, 22314, Note_on_c, 6, 63, 0
8, 22320, Note_on_c, 6, 60, 90
8, 22320, Note_on_c, 6, 68, 90
8, 22434, Note_on_c, 6, 68, 0
8, 22434, Note_on_c, 6, 60, 0
8, 22440, Note_on_c, 6, 56, 90
8, 22440, Note_on_c, 6, 63, 90
8, 22554, Note_on_c, 6, 63, 0
8, 22554, Note_on_c, 6, 56, 0
8, 22560, Note_on_c, 6, 58, 90
8, 22560, Note_on_c, 6, 65, 90
8, 22674, Note_on_c, 6, 65, 0
8, 22674, Note_on_c, 6, 58, 0
8, 22680, Note_on_c, 6, 65, 90
8, 22680, Note_on_c, 6, 74, 90
8, 22794, Note_on_c, 6, 74, 0
8, 22794, Note_on_c, 6, 65, 0
8, 22800, Note_on_c, 6, 63, 90
8, 22800, Note_on_c, 6, 72, 90
8, 22914, Note_on_c, 6, 72, 0
8, 22914, Note_on_c, 6, 63, 0
8, 22920, Note_on_c, 6, 62, 90
8, 22920, Note_on_c, 6, 70, 90
8, 23034, Note_on_c, 6, 70, 0
8, 23034, Note_on_c, 6, 62, 0
8, 23040, Note_on_c, 6, 60, 90
8, 23040, Note_on_c, 6, 68, 90
8, 23154, Note_on_c, 6, 68, 0
8, 23154, Note_on_c, 6, 60, 0
8, 23160, Note_on_c, 6, 56, 90
8, 23160, Note_on_c, 6, 63, 90
8, 23274, Note_on_c, 6, 63, 0
8, 23274, Note_on_c, 6, 56, 0
8, 23280, Note_on_c, 6, 60, 90
8, 23280, Note_on_c, 6, 67, 90
8, 23394, Note_on_c, 6, 67, 0
8, 23394, Note_on_c, 6, 60, 0
8, 23400, Note_on_c, 6, 58, 90
8, 23400, Note_on_c, 6, 65, 90
8, 23514, Note_on_c, 6, 65, 0
8, 23514, Note_on_c, 6, 58, 0
8, 23520, Note_on_c, 6, 65, 90
8, 23520, Note_on_c, 6, 72, 90
8, 23634, Note_on_c, 6, 72, 0
8, 23634, Note_on_c, 6, 65, 0
8, 23640, Note_on_c, 6, 63, 90
8, 23640, Note_on_c, 6, 70, 90
8, 23754, Note_on_c, 6, 70, 0
8, 23754, Note_on_c, 6, 63, 0
8, 23760, Note_on_c, 6, 60, 90
8, 23760, Note_on_c, 6, 68, 90
8, 23874, Note_on_c, 6, 68, 0
8, 23874, Note_on_c, 6, 60, 0
8, 23880, Note_on_c, 6, 56, 90
8, 23880, Note_on_c, 6, 63, 90
8, 23994, Note_on_c, 6, 63, 0
8, 23994, Note_on_c, 6, 56, 0
8, 24000, Note_on_c, 6, 58, 90
8, 24000, Note_on_c, 6, 65, 90
8, 24114, Note_on_c, 6, 65, 0
8, 24114, Note_on_c, 6, 58, 0
8, 24120, Note_on_c, 6, 65, 90
8, 24120, Note_on_c, 6, 74, 90
8, 24234, Note_on_c, 6, 74, 0
8, 24234, Note_on_c, 6, 65, 0
8, 24240, Note_on_c, 6, 63, 90
8, 24240, Note_on_c, 6, 72, 90
8, 24354, Note_on_c, 6, 72, 0
8, 24354, Note_on_c, 6, 63, 0
8, 24360, Note_on_c, 6, 62, 90
8, 24360, Note_on_c, 6, 70, 90
8, 24474, Note_on_c, 6, 70, 0
8, 24474, Note_on_c, 6, 62, 0
8, 24480, Note_on_c, 6, 60, 90
8, 24480, Note_on_c, 6, 68, 90
8, 24594, Note_on_c, 6, 68, 0
8, 24594, Note_on_c, 6, 60, 0
8, 24600, Note_on_c, 6, 58, 90
8, 24600, Note_on_c, 6, 63, 90
8, 24714, Note_on_c, 6, 63, 0
8, 24714, Note_on_c, 6, 58, 0
8, 30720, Note_on_c, 6, 88, 90
8, 30720, Note_on_c, 6, 76, 90
8, 30948, Note_on_c, 6, 76, 0
8, 30948, Note_on_c, 6, 88, 0
8, 30960, Note_on_c, 6, 90, 90
8, 30960, Note_on_c, 6, 78, 90
8, 31302, Note_on_c, 6, 78, 0
8, 31302, Note_on_c, 6, 90, 0
8, 31320, Note_on_c, 6, 88, 90
8, 31320, Note_on_c, 6, 76, 90
8, 31434, Note_on_c, 6, 76, 0
8, 31434, Note_on_c, 6, 88, 0
8, 31440, Note_on_c, 6, 86, 90
8, 31440, Note_on_c, 6, 74, 90
8, 31554, Note_on_c, 6, 74, 0
8, 31554, Note_on_c, 6, 86, 0
8, 31560, Note_on_c, 6, 84, 90
8, 31560, Note_on_c, 6, 72, 90
8, 31674, Note_on_c, 6, 72, 0
8, 31674, Note_on_c, 6, 84, 0
8, 31680, Note_on_c, 6, 83, 90
8, 31680, Note_on_c, 6, 71, 90
8, 31794, Note_on_c, 6, 71, 0
8, 31794, Note_on_c, 6, 83, 0
8, 31800, Note_on_c, 6, 84, 90
8, 31800, Note_on_c, 6, 72, 90
8, 31914, Note_on_c, 6, 72, 0
8, 31914, Note_on_c, 6, 84, 0
8, 31920, Note_on_c, 6, 86, 90
8, 31920, Note_on_c, 6, 74, 90
8, 32148, Note_on_c, 6, 74, 0
8, 32148, Note_on_c, 6, 86, 0
8, 32160, Note_on_c, 6, 81, 90
8, 32160, Note_on_c, 6, 69, 90
8, 32388, Note_on_c, 6, 69, 0
8, 32388, Note_on_c, 6, 81, 0
8, 32400, Note_on_c, 6, 83, 90
8, 32400, Note_on_c, 6, 71, 90
8, 32514, Note_on_c, 6, 71, 0
8, 32514, Note_on_c, 6, 83, 0
8, 32520, Note_on_c, 6, 84, 90
8, 32520, Note_on_c, 6, 72, 90
8, 32634, Note_on_c, 6, 72, 0
8, 32634, Note_on_c, 6, 84, 0
8, 32640, Note_on_c, 6, 86, 90
8, 32640, Note_on_c, 6, 74, 90
8, 32868, Note_on_c, 6, 74, 0
8, 32868, Note_on_c, 6, 86, 0
8, 32880, Note_on_c, 6, 88, 90
8, 32880, Note_on_c, 6, 76, 90
8, 33108, Note_on_c, 6, 76, 0
8, 33108, Note_on_c, 6, 88, 0
8, 33120, Note_on_c, 6, 90, 90
8, 33120, Note_on_c, 6, 78, 90
8, 33234, Note_on_c, 6, 78, 0
8, 33234, Note_on_c, 6, 90, 0
8, 33240, Note_on_c, 6, 91, 90
8, 33240, Note_on_c, 6, 79, 90
8, 33354, Note_on_c, 6, 79, 0
8, 33354, Note_on_c, 6, 91, 0
8, 33360, Note_on_c, 6, 93, 90
8, 33360, Note_on_c, 6, 81, 90
8, 33588, Note_on_c, 6, 81, 0
8, 33588, Note_on_c, 6, 93, 0
8, 33600, Note_on_c, 6, 91, 90
8, 33600, Note_on_c, 6, 79, 90
8, 33828, Note_on_c, 6, 79, 0
8, 33828, Note_on_c, 6, 91, 0
8, 33840, Note_on_c, 6, 93, 90
8, 33840, Note_on_c, 6, 81, 90
8, 34068, Note_on_c, 6, 81, 0
8, 34068, Note_on_c, 6, 93, 0
8, 34080, Note_on_c, 6, 95, 90
8, 34080, Note_on_c, 6, 83, 90
8, 34194, Note_on_c, 6, 83, 0
8, 34194, Note_on_c, 6, 95, 0
8, 34200, Note_on_c, 6, 91, 90
8, 34200, Note_on_c, 6, 79, 90
8, 34314, Note_on_c, 6, 79, 0
8, 34314, Note_on_c, 6, 91, 0
8, 34320, Note_on_c, 6, 93, 90
8, 34320, Note_on_c, 6, 81, 90
8, 34434, Note_on_c, 6, 81, 0
8, 34434, Note_on_c, 6, 93, 0
8, 34440, Note_on_c, 6, 90, 90
8, 34440, Note_on_c, 6, 78, 90
8, 34554, Note_on_c, 6, 78, 0
8, 34554, Note_on_c, 6, 90, 0
8, 34560, Note_on_c, 6, 91, 90
8, 34560, Note_on_c, 6, 79, 90
8, 34674, Note_on_c, 6, 79, 0
8, 34674, Note_on_c, 6, 91, 0
8, 34680, Note_on_c, 6, 88, 90
8, 34680, Note_on_c, 6, 76, 90
8, 34794, Note_on_c, 6, 76, 0
8, 34794, Note_on_c, 6, 88, 0
8, 34800, Note_on_c, 6, 90, 90
8, 34800, Note_on_c, 6, 78, 90
8, 35028, Note_on_c, 6, 78, 0
8, 35028, Note_on_c, 6, 90, 0
8, 35040, Note_on_c, 6, 86, 90
8, 35040, Note_on_c, 6, 74, 90
8, 35268, Note_on_c, 6, 74, 0
8, 35268, Note_on_c, 6, 86, 0
8, 35280, Note_on_c, 6, 88, 90
8, 35280, Note_on_c, 6, 76, 90
8, 35394, Note_on_c, 6, 76, 0
8, 35394, Note_on_c, 6, 88, 0
8, 35400, Note_on_c, 6, 84, 90
8, 35400, Note_on_c, 6, 72, 90
8, 35514, Note_on_c, 6, 72, 0
8, 35514, Note_on_c, 6, 84, 0
8, 35520, Note_on_c, 6, 86, 90
8, 35520, Note_on_c, 6, 74, 90
8, 35634, Note_on_c, 6, 74, 0
8, 35634, Note_on_c, 6, 86, 0
8, 35640, Note_on_c, 6, 83, 90
8, 35640, Note_on_c, 6, 71, 90
8, 35754, Note_on_c, 6, 71, 0
8, 35754, Note_on_c, 6, 83, 0
8, 35760, Note_on_c, 6, 84, 90
8, 35760, Note_on_c, 6, 72, 90
8, 35874, Note_on_c, 6, 72, 0
8, 35874, Note_on_c, 6, 84, 0
8, 35880, Note_on_c, 6, 81, 90
8, 35880, Note_on_c, 6, 69, 90
8, 36222, Note_on_c, 6, 69, 0
8, 36222, Note_on_c, 6, 81, 0
8, 36240, Note_on_c, 6, 76, 90
8, 37680, Note_on_c, 6, 76, 0
8, 37680, Note_on_c, 6, 76, 90
8, 39120, Note_on_c, 6, 76, 0
8, 39120, Note_on_c, 6, 76, 90
8, 40560, Note_on_c, 6, 76, 0
8, 40560, Note_on_c, 6, 76, 90
8, 42000, Note_on_c, 6, 76, 0
8, 42240, Note_on_c, 6, 88, 90
8, 42240, Note_on_c, 6, 76, 90
8, 42468, Note_on_c, 6, 76, 0
8, 42468, Note_on_c, 6, 88, 0
8, 42480, Note_on_c, 6, 90, 90
8, 42480, Note_on_c, 6, 78, 90
8, 42822, Note_on_c, 6, 78, 0
8, 42822, Note_on_c, 6, 90, 0
8, 42840, Note_on_c, 6, 88, 90
8, 42840, Note_on_c, 6, 76, 90
8, 42954, Note_on_c, 6, 76, 0
8, 42954, Note_on_c, 6, 88, 0
8, 42960, Note_on_c, 6, 86, 90
8, 42960, Note_on_c, 6, 74, 90
8, 43074, Note_on_c, 6, 74, 0
8, 43074, Note_on_c, 6, 86, 0
8, 43080, Note_on_c, 6, 84, 90
8, 43080, Note_on_c, 6, 72, 90
8, 43194, Note_on_c, 6, 72, 0
8, 43194, Note_on_c, 6, 84, 0
8, 43200, Note_on_c, 6, 83, 90
8, 43200, Note_on_c, 6, 71, 90
8, 43314, Note_on_c, 6, 71, 0
8, 43314, Note_on_c, 6, 83, 0
8, 43320, Note_on_c, 6, 84, 90
8, 43320, Note_on_c, 6, 72, 90
8, 43434, Note_on_c, 6, 72, 0
8, 43434, Note_on_c, 6, 84, 0
8, 43440, Note_on_c, 6, 86, 90
8, 43440, Note_on_c, 6, 74, 90
8, 43668, Note_on_c, 6, 74, 0
8, 43668, Note_on_c, 6, 86, 0
8, 43680, Note_on_c, 6, 81, 90
8, 43680, Note_on_c, 6, 69, 90
8, 43908, Note_on_c, 6, 69, 0
8, 43908, Note_on_c, 6, 81, 0
8, 43920, Note_on_c, 6, 83, 90
8, 43920, Note_on_c, 6, 71, 90
8, 44034, Note_on_c, 6, 71, 0
8, 44034, Note_on_c, 6, 83, 0
8, 44040, Note_on_c, 6, 84, 90
8, 44040, Note_on_c, 6, 72, 90
8, 44154, Note_on_c, 6, 72, 0
8, 44154, Note_on_c, 6, 84, 0
8, 44160, Note_on_c, 6, 86, 90
8, 44160, Note_on_c, 6, 74, 90
8, 44388, Note_on_c, 6, 74, 0
8, 44388, Note_on_c, 6, 86, 0
8, 44400, Note_on_c, 6, 88, 90
8, 44400, Note_on_c, 6, 76, 90
8, 44628, Note_on_c, 6, 76, 0
8, 44628, Note_on_c, 6, 88, 0
8, 44640, Note_on_c, 6, 90, 90
8, 44640, Note_on_c, 6, 78, 90
8, 44754, Note_on_c, 6, 78, 0
8, 44754, Note_on_c, 6, 90, 0
8, 44760, Note_on_c, 6, 91, 90
8, 44760, Note_on_c, 6, 79, 90
8, 44874, Note_on_c, 6, 79, 0
8, 44874, Note_on_c, 6, 91, 0
8, 44880, Note_on_c, 6, 93, 90
8, 44880, Note_on_c, 6, 81, 90
8, 45108, Note_on_c, 6, 81, 0
8, 45108, Note_on_c, 6, 93, 0
8, 45120, Note_on_c, 6, 91, 90
8, 45120, Note_on_c, 6, 79, 90
8, 45348, Note_on_c, 6, 79, 0
8, 45348, Note_on_c, 6, 91, 0
8, 45360, Note_on_c, 6, 93, 90
8, 45360, Note_on_c, 6, 81, 90
8, 45588, Note_on_c, 6, 81, 0
8, 45588, Note_on_c, 6, 93, 0
8, 45600, Note_on_c, 6, 95, 90
8, 45600, Note_on_c, 6, 83, 90
8, 45714, Note_on_c, 6, 83, 0
8, 45714, Note_on_c, 6, 95, 0
8, 45720, Note_on_c, 6, 91, 90
8, 45720, Note_on_c, 6, 79, 90
8, 45834, Note_on_c, 6, 79, 0
8, 45834, Note_on_c, 6, 91, 0
8, 45840, Note_on_c, 6, 93, 90
8, 45840, Note_on_c, 6, 81, 90
8, 45954, Note_on_c, 6, 81, 0
8, 45954, Note_on_c, 6, 93, 0
8, 45960, Note_on_c, 6, 90, 90
8, 45960, Note_on_c, 6, 78, 90
8, 46074, Note_on_c, 6, 78, 0
8, 46074, Note_on_c, 6, 90, 0
8, 46080, Note_on_c, 6, 91, 90
8, 46080, Note_on_c, 6, 79, 90
8, 46194, Note_on_c, 6, 79, 0
8, 46194, Note_on_c, 6, 91, 0
8, 46200, Note_on_c, 6, 88, 90
8, 46200, Note_on_c, 6, 76, 90
8, 46314, Note_on_c, 6, 76, 0
8, 46314, Note_on_c, 6, 88, 0
8, 46320, Note_on_c, 6, 90, 90
8, 46320, Note_on_c, 6, 78, 90
8, 46548, Note_on_c, 6, 78, 0
8, 46548, Note_on_c, 6, 90, 0
8, 46560, Note_on_c, 6, 86, 90
8, 46560, Note_on_c, 6, 74, 90
8, 46788, Note_on_c, 6, 74, 0
8, 46788, Note_on_c, 6, 86, 0
8, 46800, Note_on_c, 6, 88, 90
8, 46800, Note_on_c, 6, 76, 90
8, 46914, Note_on_c, 6, 76, 0
8, 46914, Note_on_c, 6, 88, 0
8, 46920, Note_on_c, 6, 84, 90
8, 46920, Note_on_c, 6, 72, 90
8, 47034, Note_on_c, 6, 72, 0
8, 47034, Note_on_c, 6, 84, 0
8, 47040, Note_on_c, 6, 86, 90
8, 47040, Note_on_c, 6, 74, 90
8, 47154, Note_on_c, 6, 74, 0
8, 47154, Note_on_c, 6, 86, 0
8, 47160, Note_on_c, 6, 83, 90
8, 47160, Note_on_c, 6, 71, 90
8, 47274, Note_on_c, 6, 71, 0
8, 47274, Note_on_c, 6, 83, 0
8, 47280, Note_on_c, 6, 84, 90
8, 47280, Note_on_c, 6, 72, 90
8, 47394, Note_on_c, 6, 72, 0
8, 47394, Note_on_c, 6, 84, 0
8, 47400, Note_on_c, 6, 81, 90
8, 47400, Note_on_c, 6, 69, 90
8, 47742, Note_on_c, 6, 69, 0
8, 47742, Note_on_c, 6, 81, 0
8, 47760, Note_on_c, 6, 72, 99
8, 48240, Note_on_c, 6, 72, 0
8, 48240, Note_on_c, 6, 74, 98
8, 48480, Note_on_c, 6, 74, 0
8, 48480, Note_on_c, 6, 71, 98
8, 48840, Note_on_c, 6, 71, 0
8, 48840, Note_on_c, 6, 78, 98
8, 49200, Note_on_c, 6, 78, 0
8, 49200, Note_on_c, 6, 79, 98
8, 49560, Note_on_c, 6, 79, 0
8, 49560, Note_on_c, 6, 78, 98
8, 49920, Note_on_c, 6, 78, 0
8, 49920, Note_on_c, 6, 79, 98
8, 50040, Note_on_c, 6, 79, 0
8, 50040, Note_on_c, 6, 81, 98
8, 50280, Note_on_c, 6, 81, 0
8, 50280, Note_on_c, 6, 83, 98
8, 50640, Note_on_c, 6, 83, 0
8, 50640, Note_on_c, 6, 74, 100
8, 50760, Note_on_c, 6, 74, 0
8, 50760, Note_on_c, 6, 79, 100
8, 50880, Note_on_c, 6, 79, 0
8, 50880, Note_on_c, 6, 78, 100
8, 51000, Note_on_c, 6, 78, 0
8, 51000, Note_on_c, 6, 76, 100
8, 51120, Note_on_c, 6, 76, 0
8, 51120, Note_on_c, 6, 74, 100
8, 51240, Note_on_c, 6, 74, 0
8, 51240, Note_on_c, 6, 76, 100
8, 51360, Note_on_c, 6, 76, 0
8, 51360, Note_on_c, 6, 74, 100
8, 51480, Note_on_c, 6, 74, 0
8, 51480, Note_on_c, 6, 79, 100
8, 51600, Note_on_c, 6, 79, 0
8, 51600, Note_on_c, 6, 81, 100
8, 51720, Note_on_c, 6, 81, 0
8, 51720, Note_on_c, 6, 91, 100
8, 51840, Note_on_c, 6, 91, 0
8, 51840, Note_on_c, 6, 89, 100
8, 51960, Note_on_c, 6, 89, 0
8, 51960, Note_on_c, 6, 88, 100
8, 52020, Note_on_c, 6, 88, 0
8, 52020, Note_on_c, 6, 91, 100
8, 52080, Note_on_c, 6, 91, 0
8, 52080, Note_on_c, 6, 89, 100
8, 52140, Note_on_c, 6, 89, 0
8, 52140, Note_on_c, 6, 93, 100
8, 52200, Note_on_c, 6, 93, 0
8, 52200, Note_on_c, 6, 96, 100
8, 52260, Note_on_c, 6, 96, 0
8, 52260, Note_on_c, 6, 100, 100
8, 52320, Note_on_c, 6, 100, 0
8, 52320, Note_on_c, 6, 98, 100
8, 52440, Note_on_c, 6, 98, 0
8, 52440, Note_on_c, 6, 93, 100
8, 52680, Note_on_c, 6, 93, 0
8, 52680, Note_on_c, 6, 86, 100
8, 52800, Note_on_c, 6, 86, 0
8, 52800, Note_on_c, 6, 93, 100
8, 53040, Note_on_c, 6, 93, 0
8, 53040, Note_on_c, 6, 74, 100
8, 53040, Note_on_c, 6, 86, 100
8, 53160, Note_on_c, 6, 86, 0
8, 53160, Note_on_c, 6, 74, 0
8, 53160, Note_on_c, 6, 81, 100
8, 53160, Note_on_c, 6, 93, 100
8, 53280, Note_on_c, 6, 93, 0
8, 53280, Note_on_c, 6, 81, 0
8, 53280, Note_on_c, 6, 79, 100
8, 53280, Note_on_c, 6, 91, 100
8, 53400, Note_on_c, 6, 91, 0
8, 53400, Note_on_c, 6, 79, 0
8, 53400, Note_on_c, 6, 81, 100
8, 53400, Note_on_c, 6, 93, 100
8, 54120, Note_on_c, 6, 93, 0
8, 54120, Note_on_c, 6, 81, 0
8, 54120, Note_on_c, 6, 72, 100
8, 54120, Note_on_c, 6, 79, 100
8, 54480, Note_on_c, 6, 79, 0
8, 54480, Note_on_c, 6, 72, 0
8, 54480, Note_on_c, 6, 70, 100
8, 54480, Note_on_c, 6, 77, 100
8, 54840, Note_on_c, 6, 77, 0
8, 54840, Note_on_c, 6, 70, 0
8, 54840, Note_on_c, 6, 72, 100
8, 54840, Note_on_c, 6, 79, 100
8, 55200, Note_on_c, 6, 79, 0
8, 55200, Note_on_c, 6, 72, 0
8, 55200, Note_on_c, 6, 74, 100
8, 55200, Note_on_c, 6, 81, 100
8, 55560, Note_on_c, 6, 81, 0
8, 55560, Note_on_c, 6, 74, 0
8, 55560, Note_on_c, 6, 72, 100
8, 55560, Note_on_c, 6, 79, 100
8, 55920, Note_on_c, 6, 79, 0
8, 55920, Note_on_c, 6, 72, 0
8, 55920, Note_on_c, 6, 70, 100
8, 55920, Note_on_c, 6, 77, 100
8, 56280, Note_on_c, 6, 77, 0
8, 56280, Note_on_c, 6, 70, 0
8, 56280, Note_on_c, 6, 72, 100
8, 56280, Note_on_c, 6, 79, 100
8, 56640, Note_on_c, 6, 79, 0
8, 56640, Note_on_c, 6, 72, 0
8, 56640, Note_on_c, 6, 74, 100
8, 56640, Note_on_c, 6, 81, 100
8, 57000, Note_on_c, 6, 81, 0
8, 57000, Note_on_c, 6, 74, 0
8, 57000, Note_on_c, 6, 72, 100
8, 57000, Note_on_c, 6, 79, 100
8, 57360, Note_on_c, 6, 79, 0
8, 57360, Note_on_c, 6, 72, 0
8, 57360, Note_on_c, 6, 70, 100
8, 57360, Note_on_c, 6, 77, 100
8, 57720, Note_on_c, 6, 77, 0
8, 57720, Note_on_c, 6, 70, 0
8, 57720, Note_on_c, 6, 72, 100
8, 57720, Note_on_c, 6, 79, 100
8, 58080, Note_on_c, 6, 79, 0
8, 58080, Note_on_c, 6, 72, 0
8, 58080, Note_on_c, 6, 74, 100
8, 58080, Note_on_c, 6, 81, 100
8, 58440, Note_on_c, 6, 81, 0
8, 58440, Note_on_c, 6, 74, 0
8, 58440, Note_on_c, 6, 72, 100
8, 58440, Note_on_c, 6, 79, 100
8, 58800, Note_on_c, 6, 79, 0
8, 58800, Note_on_c, 6, 72, 0
8, 58800, Note_on_c, 6, 70, 100
8, 58800, Note_on_c, 6, 77, 100
8, 59160, Note_on_c, 6, 77, 0
8, 59160, Note_on_c, 6, 70, 0
8, 59160, Note_on_c, 6, 72, 100
8, 59160, Note_on_c, 6, 79, 100
8, 59520, Note_on_c, 6, 79, 0
8, 59520, Note_on_c, 6, 72, 0
8, 59520, Note_on_c, 6, 74, 100
8, 59520, Note_on_c, 6, 81, 100
8, 59880, Note_on_c, 6, 81, 0
8, 59880, Note_on_c, 6, 74, 0
8, 59880, Note_on_c, 6, 60, 90
8, 59880, Note_on_c, 6, 67, 90
8, 59994, Note_on_c, 6, 67, 0
8, 59994, Note_on_c, 6, 60, 0
8, 60000, Note_on_c, 6, 58, 90
8, 60000, Note_on_c, 6, 65, 90
8, 60114, Note_on_c, 6, 65, 0
8, 60114, Note_on_c, 6, 58, 0
8, 60120, Note_on_c, 6, 65, 90
8, 60120, Note_on_c, 6, 72, 90
8, 60234, Note_on_c, 6, 72, 0
8, 60234, Note_on_c, 6, 65, 0
8, 60240, Note_on_c, 6, 63, 90
8, 60240, Note_on_c, 6, 70, 90
8, 60354, Note_on_c, 6, 70, 0
8, 60354, Note_on_c, 6, 63, 0
8, 60360, Note_on_c, 6, 60, 90
8, 60360, Note_on_c, 6, 68, 90
8, 60474, Note_on_c, 6, 68, 0
8, 60474, Note_on_c, 6, 60, 0
8, 60480, Note_on_c, 6, 56, 90
8, 60480, Note_on_c, 6, 63, 90
8, 60594, Note_on_c, 6, 63, 0
8, 60594, Note_on_c, 6, 56, 0
8, 60600, Note_on_c, 6, 58, 90
8, 60600, Note_on_c, 6, 65, 90
8, 60714, Note_on_c, 6, 65, 0
8, 60714, Note_on_c, 6, 58, 0
8, 60720, Note_on_c, 6, 65, 90
8, 60720, Note_on_c, 6, 74, 90
8, 60834, Note_on_c, 6, 74, 0
8, 60834, Note_on_c, 6, 65, 0
8, 60840, Note_on_c, 6, 63, 90
8, 60840, Note_on_c, 6, 72, 90
8, 60954, Note_on_c, 6, 72, 0
8, 60954, Note_on_c, 6, 63, 0
8, 60960, Note_on_c, 6, 62, 90
8, 60960, Note_on_c, 6, 70, 90
8, 61074, Note_on_c, 6, 70, 0
8, 61074, Note_on_c, 6, 62, 0
8, 61080, Note_on_c, 6, 60, 90
8, 61080, Note_on_c, 6, 68, 90
8, 61194, Note_on_c, 6, 68, 0
8, 61194, Note_on_c, 6, 60, 0
8, 61200, Note_on_c, 6, 56, 90
8, 61200, Note_on_c, 6, 63, 90
8, 61314, Note_on_c, 6, 63, 0
8, 61314, Note_on_c, 6, 56, 0
8, 61320, Note_on_c, 6, 60, 90
8, 61320, Note_on_c, 6, 67, 90
8, 61434, Note_on_c, 6, 67, 0
8, 61434, Note_on_c, 6, 60, 0
8, 61440, Note_on_c, 6, 58, 90
8, 61440, Note_on_c, 6, 65, 90
8, 61554, Note_on_c, 6, 65, 0
8, 61554, Note_on_c, 6, 58, 0
8, 61560, Note_on_c, 6, 65, 90
8, 61560, Note_on_c, 6, 72, 90
8, 61674, Note_on_c, 6, 72, 0
8, 61674, Note_on_c, 6, 65, 0
8, 61680, Note_on_c, 6, 63, 90
8, 61680, Note_on_c, 6, 70, 90
8, 61794, Note_on_c, 6, 70, 0
8, 61794, Note_on_c, 6, 63, 0
8, 61800, Note_on_c, 6, 60, 90
8, 61800, Note_on_c, 6, 68, 90
8, 61914, Note_on_c, 6, 68, 0
8, 61914, Note_on_c, 6, 60, 0
8, 61920, Note_on_c, 6, 56, 90
8, 61920, Note_on_c, 6, 63, 90
8, 62034, Note_on_c, 6, 63, 0
8, 62034, Note_on_c, 6, 56, 0
8, 62040, Note_on_c, 6, 58, 90
8, 62040, Note_on_c, 6, 65, 90
8, 62154, Note_on_c, 6, 65, 0
8, 62154, Note_on_c, 6, 58, 0
8, 62160, Note_on_c, 6, 65, 90
8, 62160, Note_on_c, 6, 74, 90
8, 62274, Note_on_c, 6, 74, 0
8, 62274, Note_on_c, 6, 65, 0
8, 62280, Note_on_c, 6, 63, 90
8, 62280, Note_on_c, 6, 72, 90
8, 62394, Note_on_c, 6, 72, 0
8, 62394, Note_on_c, 6, 63, 0
8, 62400, Note_on_c, 6, 62, 90
8, 62400, Note_on_c, 6, 70, 90
8, 62514, Note_on_c, 6, 70, 0
8, 62514, Note_on_c, 6, 62, 0
8, 62520, Note_on_c, 6, 60, 90
8, 62520, Note_on_c, 6, 68, 90
8, 62634, Note_on_c, 6, 68, 0
8, 62634, Note_on_c, 6, 60, 0
8, 62640, Note_on_c, 6, 58, 90
8, 62640, Note_on_c, 6, 63, 90
8, 62754, Note_on_c, 6, 63, 0
8, 62754, Note_on_c, 6, 58, 0
8, 62760, Note_on_c, 6, 60, 90
8, 62760, Note_on_c, 6, 67, 90
8, 62874, Note_on_c, 6, 67, 0
8, 62874, Note_on_c, 6, 60, 0
8, 62880, Note_on_c, 6, 58, 90
8, 62880, Note_on_c, 6, 65, 90
8, 62994, Note_on_c, 6, 65, 0
8, 62994, Note_on_c, 6, 58, 0
8, 63000, Note_on_c, 6, 65, 90
8, 63000, Note_on_c, 6, 72, 90
8, 63114, Note_on_c, 6, 72, 0
8, 63114, Note_on_c, 6, 65, 0
8, 63120, Note_on_c, 6, 63, 90
8, 63120, Note_on_c, 6, 70, 90
8, 63234, Note_on_c, 6, 70, 0
8, 63234, Note_on_c, 6, 63, 0
8, 63240, Note_on_c, 6, 60, 90
8, 63240, Note_on_c, 6, 68, 90
8, 63354, Note_on_c, 6, 68, 0
8, 63354, Note_on_c, 6, 60, 0
8, 63360, Note_on_c, 6, 56, 90
8, 63360, Note_on_c, 6, 63, 90
8, 63474, Note_on_c, 6, 63, 0
8, 63474, Note_on_c, 6, 56, 0
8, 63480, Note_on_c, 6, 58, 90
8, 63480, Note_on_c, 6, 65, 90
8, 63594, Note_on_c, 6, 65, 0
8, 63594, Note_on_c, 6, 58, 0
8, 63600, Note_on_c, 6, 65, 90
8, 63600, Note_on_c, 6, 74, 90
8, 63714, Note_on_c, 6, 74, 0
8, 63714, Note_on_c, 6, 65, 0
8, 63720, Note_on_c, 6, 63, 90
8, 63720, Note_on_c, 6, 72, 90
8, 63834, Note_on_c, 6, 72, 0
8, 63834, Note_on_c, 6, 63, 0
8, 63840, Note_on_c, 6, 62, 90
8, 63840, Note_on_c, 6, 70, 90
8, 63954, Note_on_c, 6, 70, 0
8, 63954, Note_on_c, 6, 62, 0
8, 63960, Note_on_c, 6, 60, 90
8, 63960, Note_on_c, 6, 68, 90
8, 64074, Note_on_c, 6, 68, 0
8, 64074, Note_on_c, 6, 60, 0
8, 64080, Note_on_c, 6, 56, 90
8, 64080, Note_on_c, 6, 63, 90
8, 64194, Note_on_c, 6, 63, 0
8, 64194, Note_on_c, 6, 56, 0
8, 64200, Note_on_c, 6, 60, 90
8, 64200, Note_on_c, 6, 67, 90
8, 64314, Note_on_c, 6, 67, 0
8, 64314, Note_on_c, 6, 60, 0
8, 64320, Note_on_c, 6, 58, 90
8, 64320, Note_on_c, 6, 65, 90
8, 64434, Note_on_c, 6, 65, 0
8, 64434, Note_on_c, 6, 58, 0
8, 64440, Note_on_c, 6, 65, 90
8, 64440, Note_on_c, 6, 72, 90
8, 64554, Note_on_c, 6, 72, 0
8, 64554, Note_on_c, 6, 65, 0
8, 64560, Note_on_c, 6, 63, 90
8, 64560, Note_on_c, 6, 70, 90
8, 64674, Note_on_c, 6, 70, 0
8, 64674, Note_on_c, 6, 63, 0
8, 64680, Note_on_c, 6, 60, 90
8, 64680, Note_on_c, 6, 68, 90
8, 64794, Note_on_c, 6, 68, 0
8, 64794, Note_on_c, 6, 60, 0
8, 64800, Note_on_c, 6, 56, 90
8, 64800, Note_on_c, 6, 63, 90
8, 64914, Note_on_c, 6, 63, 0
8, 64914, Note_on_c, 6, 56, 0
8, 64920, Note_on_c, 6, 58, 90
8, 64920, Note_on_c, 6, 65, 90
8, 65034, Note_on_c, 6, 65, 0
8, 65034, Note_on_c, 6, 58, 0
8, 65040, Note_on_c, 6, 65, 90
8, 65040, Note_on_c, 6, 74, 90
8, 65154, Note_on_c, 6, 74, 0
8, 65154, Note_on_c, 6, 65, 0
8, 65160, Note_on_c, 6, 63, 90
8, 65160, Note_on_c, 6, 72, 90
8, 65274, Note_on_c, 6, 72, 0
8, 65274, Note_on_c, 6, 63, 0
8, 65280, Note_on_c, 6, 62, 90
8, 65280, Note_on_c, 6, 70, 90
8, 65394, Note_on_c, 6, 70, 0
8, 65394, Note_on_c, 6, 62, 0
8, 65400, Note_on_c, 6, 60, 90
8, 65400, Note_on_c, 6, 68, 90
8, 65514, Note_on_c, 6, 68, 0
8, 65514, Note_on_c, 6, 60, 0
8, 65520, Note_on_c, 6, 58, 90
8, 65520, Note_on_c, 6, 63, 90
8, 65634, Note_on_c, 6, 63, 0
8, 65634, Note_on_c, 6, 58, 0
8, 71640, Note_on_c, 6, 88, 90
8, 71640, Note_on_c, 6, 76, 90
8, 71868, Note_on_c, 6, 76, 0
8, 71868, Note_on_c, 6, 88, 0
8, 71880, Note_on_c, 6, 90, 90
8, 71880, Note_on_c, 6, 78, 90
8, 72222, Note_on_c, 6, 78, 0
8, 72222, Note_on_c, 6, 90, 0
8, 72240, Note_on_c, 6, 88, 90
8, 72240, Note_on_c, 6, 76, 90
8, 72354, Note_on_c, 6, 76, 0
8, 72354, Note_on_c, 6, 88, 0
8, 72360, Note_on_c, 6, 86, 90
8, 72360, Note_on_c, 6, 74, 90
8, 72474, Note_on_c, 6, 74, 0
8, 72474, Note_on_c, 6, 86, 0
8, 72480, Note_on_c, 6, 84, 90
8, 72480, Note_on_c, 6, 72, 90
8, 72594, Note_on_c, 6, 72, 0
8, 72594, Note_on_c, 6, 84, 0
8, 72600, Note_on_c, 6, 83, 90
8, 72600, Note_on_c, 6, 71, 90
8, 72714, Note_on_c, 6, 71, 0
8, 72714, Note_on_c, 6, 83, 0
8, 72720, Note_on_c, 6, 84, 90
8, 72720, Note_on_c, 6, 72, 90
8, 72834, Note_on_c, 6, 72, 0
8, 72834, Note_on_c, 6, 84, 0
8, 72840, Note_on_c, 6, 86, 90
8, 72840, Note_on_c, 6, 74, 90
8, 73068, Note_on_c, 6, 74, 0
8, 73068, Note_on_c, 6, 86, 0
8, 73080, Note_on_c, 6, 81, 90
8, 73080, Note_on_c, 6, 69, 90
8, 73308, Note_on_c, 6, 69, 0
8, 73308, Note_on_c, 6, 81, 0
8, 73320, Note_on_c, 6, 83, 90
8, 73320, Note_on_c, 6, 71, 90
8, 73434, Note_on_c, 6, 71, 0
8, 73434, Note_on_c, 6, 83, 0
8, 73440, Note_on_c, 6, 84, 90
8, 73440, Note_on_c, 6, 72, 90
8, 73554, Note_on_c, 6, 72, 0
8, 73554, Note_on_c, 6, 84, 0
8, 73560, Note_on_c, 6, 86, 90
8, 73560, Note_on_c, 6, 74, 90
8, 73788, Note_on_c, 6, 74, 0
8, 73788, Note_on_c, 6, 86, 0
8, 73800, Note_on_c, 6, 88, 90
8, 73800, Note_on_c, 6, 76, 90
8, 74028, Note_on_c, 6, 76, 0
8, 74028, Note_on_c, 6, 88, 0
8, 74040, Note_on_c, 6, 90, 90
8, 74040, Note_on_c, 6, 78, 90
8, 74154, Note_on_c, 6, 78, 0
8, 74154, Note_on_c, 6, 90, 0
8, 74160, Note_on_c, 6, 91, 90
8, 74160, Note_on_c, 6, 79, 90
8, 74274, Note_on_c, 6, 79, 0
8, 74274, Note_on_c, 6, 91, 0
8, 74280, Note_on_c, 6, 93, 90
8, 74280, Note_on_c, 6, 81, 90
8, 74508, Note_on_c, 6, 81, 0
8, 74508, Note_on_c, 6, 93, 0
8, 74520, Note_on_c, 6, 91, 90
8, 74520, Note_on_c, 6, 79, 90
8, 74748, Note_on_c, 6, 79, 0
8, 74748, Note_on_c, 6, 91, 0
8, 74760, Note_on_c, 6, 93, 90
8, 74760, Note_on_c, 6, 81, 90
8, 74988, Note_on_c, 6, 81, 0
8, 74988, Note_on_c, 6, 93, 0
8, 75000, Note_on_c, 6, 95, 90
8, 75000, Note_on_c, 6, 83, 90
8, 75114, Note_on_c, 6, 83, 0
8, 75114, Note_on_c, 6, 95, 0
8, 75120, Note_on_c, 6, 91, 90
8, 75120, Note_on_c, 6, 79, 90
8, 75234, Note_on_c, 6, 79, 0
8, 75234, Note_on_c, 6, 91, 0
8, 75240, Note_on_c, 6, 93, 90
8, 75240, Note_on_c, 6, 81, 90
8, 75354, Note_on_c, 6, 81, 0
8, 75354, Note_on_c, 6, 93, 0
8, 75360, Note_on_c, 6, 90, 90
8, 75360, Note_on_c, 6, 78, 90
8, 75474, Note_on_c, 6, 78, 0
8, 75474, Note_on_c, 6, 90, 0
8, 75480, Note_on_c, 6, 91, 90
8, 75480, Note_on_c, 6, 79, 90
8, 75594, Note_on_c, 6, 79, 0
8, 75594, Note_on_c, 6, 91, 0
8, 75600, Note_on_c, 6, 88, 90
8, 75600, Note_on_c, 6, 76, 90
8, 75714, Note_on_c, 6, 76, 0
8, 75714, Note_on_c, 6, 88, 0
8, 75720, Note_on_c, 6, 90, 90
8, 75720, Note_on_c, 6, 78, 90
8, 75948, Note_on_c, 6, 78, 0
8, 75948, Note_on_c, 6, 90, 0
8, 75960, Note_on_c, 6, 86, 90
8, 75960, Note_on_c, 6, 74, 90
8, 76188, Note_on_c, 6, 74, 0
8, 76188, Note_on_c, 6, 86, 0
8, 76200, Note_on_c, 6, 88, 90
8, 76200, Note_on_c, 6, 76, 90
8, 76314, Note_on_c, 6, 76, 0
8, 76314, Note_on_c, 6, 88, 0
8, 76320, Note_on_c, 6, 84, 90
8, 76320, Note_on_c, 6, 72, 90
8, 76434, Note_on_c, 6, 72, 0
8, 76434, Note_on_c, 6, 84, 0
8, 76440, Note_on_c, 6, 86, 90
8, 76440, Note_on_c, 6, 74, 90
8, 76554, Note_on_c, 6, 74, 0
8, 76554, Note_on_c, 6, 86, 0
8, 76560, Note_on_c, 6, 83, 90
8, 76560, Note_on_c, 6, 71, 90
8, 76674, Note_on_c, 6, 71, 0
8, 76674, Note_on_c, 6, 83, 0
8, 76680, Note_on_c, 6, 84, 90
8, 76680, Note_on_c, 6, 72, 90
8, 76794, Note_on_c, 6, 72, 0
8, 76794, Note_on_c, 6, 84, 0
8, 76800, Note_on_c, 6, 81, 90
8, 76800, Note_on_c, 6, 69, 90
8, 77142, Note_on_c, 6, 69, 0
8, 77142, Note_on_c, 6, 81, 0
8, 77160, Note_on_c, 6, 76, 90
8, 78600, Note_on_c, 6, 76, 0
8, 78600, Note_on_c, 6, 76, 90
8, 80040, Note_on_c, 6, 76, 0
8, 80040, Note_on_c, 6, 76, 90
8, 81480, Note_on_c, 6, 76, 0
8, 81480, Note_on_c, 6, 76, 90
8, 82920, Note_on_c, 6, 76, 0
8, 83160, Note_on_c, 6, 88, 90
8, 83160, Note_on_c, 6, 76, 90
8, 83388, Note_on_c, 6, 76, 0
8, 83388, Note_on_c, 6, 88, 0
8, 83400, Note_on_c, 6, 90, 90
8, 83400, Note_on_c, 6, 78, 90
8, 83742, Note_on_c, 6, 78, 0
8, 83742, Note_on_c, 6, 90, 0
8, 83760, Note_on_c, 6, 88, 90
8, 83760, Note_on_c, 6, 76, 90
8, 83874, Note_on_c, 6, 76, 0
8, 83874, Note_on_c, 6, 88, 0
8, 83880, Note_on_c, 6, 86, 90
8, 83880, Note_on_c, 6, 74, 90
8, 83994, Note_on_c, 6, 74, 0
8, 83994, Note_on_c, 6, 86, 0
8, 84000, Note_on_c, 6, 84, 90
8, 84000, Note_on_c, 6, 72, 90
8, 84114, Note_on_c, 6, 72, 0
8, 84114, Note_on_c, 6, 84, 0
8, 84120, Note_on_c, 6, 83, 90
8, 84120, Note_on_c, 6, 71, 90
8, 84234, Note_on_c, 6, 71, 0
8, 84234, Note_on_c, 6, 83, 0
8, 84240, Note_on_c, 6, 84, 90
8, 84240, Note_on_c, 6, 72, 90
8, 84354, Note_on_c, 6, 72, 0
8, 84354, Note_on_c, 6, 84, 0
8, 84360, Note_on_c, 6, 86, 90
8, 84360, Note_on_c, 6, 74, 90
8, 84588, Note_on_c, 6, 74, 0
8, 84588, Note_on_c, 6, 86, 0
8, 84600, Note_on_c, 6, 81, 90
8, 84600, Note_on_c, 6, 69, 90
8, 84828, Note_on_c, 6, 69, 0
8, 84828, Note_on_c, 6, 81, 0
8, 84840, Note_on_c, 6, 83, 90
8, 84840, Note_on_c, 6, 71, 90
8, 84954, Note_on_c, 6, 71, 0
8, 84954, Note_on_c, 6, 83, 0
8, 84960, Note_on_c, 6, 84, 90
8, 84960, Note_on_c, 6, 72, 90
8, 85074, Note_on_c, 6, 72, 0
8, 85074, Note_on_c, 6, 84, 0
8, 85080, Note_on_c, 6, 86, 90
8, 85080, Note_on_c, 6, 74, 90
8, 85308, Note_on_c, 6, 74, 0
8, 85308, Note_on_c, 6, 86, 0
8, 85320, Note_on_c, 6, 88, 90
8, 85320, Note_on_c, 6, 76, 90
8, 85548, Note_on_c, 6, 76, 0
8, 85548, Note_on_c, 6, 88, 0
8, 85560, Note_on_c, 6, 90, 90
8, 85560, Note_on_c, 6, 78, 90
8, 85674, Note_on_c, 6, 78, 0
8, 85674, Note_on_c, 6, 90, 0
8, 85680, Note_on_c, 6, 91, 90
8, 85680, Note_on_c, 6, 79, 90
8, 85794, Note_on_c, 6, 79, 0
8, 85794, Note_on_c, 6, 91, 0
8, 85800, Note_on_c, 6, 93, 90
8, 85800, Note_on_c, 6, 81, 90
8, 86028, Note_on_c, 6, 81, 0
8, 86028, Note_on_c, 6, 93, 0
8, 86040, Note_on_c, 6, 91, 90
8, 86040, Note_on_c, 6, 79, 90
8, 86268, Note_on_c, 6, 79, 0
8, 86268, Note_on_c, 6, 91, 0
8, 86280, Note_on_c, 6, 93, 90
8, 86280, Note_on_c, 6, 81, 90
8, 86508, Note_on_c, 6, 81, 0
8, 86508, Note_on_c, 6, 93, 0
8, 86520, Note_on_c, 6, 95, 90
8, 86520, Note_on_c, 6, 83, 90
8, 86634, Note_on_c, 6, 83, 0
8, 86634, Note_on_c, 6, 95, 0
8, 86640, Note_on_c, 6, 91, 90
8, 86640, Note_on_c, 6, 79, 90
8, 86754, Note_on_c, 6, 79, 0
8, 86754, Note_on_c, 6, 91, 0
8, 86760, Note_on_c, 6, 93, 90
8, 86760, Note_on_c, 6, 81, 90
8, 86874, Note_on_c, 6, 81, 0
8, 86874, Note_on_c, 6, 93, 0
8, 86880, Note_on_c, 6, 90, 90
8, 86880, Note_on_c, 6, 78, 90
8, 86994, Note_on_c, 6, 78, 0
8, 86994, Note_on_c, 6, 90, 0
8, 87000, Note_on_c, 6, 91, 90
8, 87000, Note_on_c, 6, 79, 90
8, 87114, Note_on_c, 6, 79, 0
8, 87114, Note_on_c, 6, 91, 0
8, 87120, Note_on_c, 6, 88, 90
8, 87120, Note_on_c, 6, 76, 90
8, 87234, Note_on_c, 6, 76, 0
8, 87234, Note_on_c, 6, 88, 0
8, 87240, Note_on_c, 6, 90, 90
8, 87240, Note_on_c, 6, 78, 90
8, 87468, Note_on_c, 6, 78, 0
8, 87468, Note_on_c, 6, 90, 0
8, 87480, Note_on_c, 6, 86, 90
8, 87480, Note_on_c, 6, 74, 90
8, 87708, Note_on_c, 6, 74, 0
8, 87708, Note_on_c, 6, 86, 0
8, 87720, Note_on_c, 6, 88, 90
8, 87720, Note_on_c, 6, 76, 90
8, 87834, Note_on_c, 6, 76, 0
8, 87834, Note_on_c, 6, 88, 0
8, 87840, Note_on_c, 6, 84, 90
8, 87840, Note_on_c, 6, 72, 90
8, 87954, Note_on_c, 6, 72, 0
8, 87954, Note_on_c, 6, 84, 0
8, 87960, Note_on_c, 6, 86, 90
8, 87960, Note_on_c, 6, 74, 90
8, 88074, Note_on_c, 6, 74, 0
8, 88074, Note_on_c, 6, 86, 0
8, 88080, Note_on_c, 6, 83, 90
8, 88080, Note_on_c, 6, 71, 90
8, 88194, Note_on_c, 6, 71, 0
8, 88194, Note_on_c, 6, 83, 0
8, 88200, Note_on_c, 6, 84, 90
8, 88200, Note_on_c, 6, 72, 90
8, 88314, Note_on_c, 6, 72, 0
8, 88314, Note_on_c, 6, 84, 0
8, 88320, Note_on_c, 6, 81, 90
8, 88320, Note_on_c, 6, 69, 90
8, 88662, Note_on_c, 6, 69, 0
8, 88662, Note_on_c, 6, 81, 0
8, 88680, Control_c, 6, 11, 127
8, 88680, Note_on_c, 6, 72, 99
8, 88710, Control_c, 6, 11, 126
8, 88730, Control_c, 6, 11, 125
8, 88750, Control_c, 6, 11, 124
8, 88780, Control_c, 6, 11, 123
8, 88800, Control_c, 6, 11, 122
8, 88820, Control_c, 6, 11, 121
8, 88840, Control_c, 6, 11, 120
8, 88870, Control_c, 6, 11, 119
8, 88890, Control_c, 6, 11, 118
8, 88910, Control_c, 6, 11, 117
8, 88930, Control_c, 6, 11, 116
8, 88960, Control_c, 6, 11, 115
8, 88980, Control_c, 6, 11, 114
8, 89000, Control_c, 6, 11, 113
8, 89030, Control_c, 6, 11, 112
8, 89050, Control_c, 6, 11, 111
8, 89070, Control_c, 6, 11, 110
8, 89090, Control_c, 6, 11, 109
8, 89120, Control_c, 6, 11, 108
8, 89140, Control_c, 6, 11, 107
8, 89160, Note_on_c, 6, 72, 0
8, 89160, Control_c, 6, 11, 106
8, 89160, Note_on_c, 6, 74, 98
8, 89180, Control_c, 6, 11, 105
8, 89210, Control_c, 6, 11, 104
8, 89230, Control_c, 6, 11, 103
8, 89250, Control_c, 6, 11, 102
8, 89270, Control_c, 6, 11, 101
8, 89300, Control_c, 6, 11, 100
8, 89320, Control_c, 6, 11, 99
8, 89340, Control_c, 6, 11, 98
8, 89370, Control_c, 6, 11, 97
8, 89390, Control_c, 6, 11, 96
8, 89400, Note_on_c, 6, 74, 0
8, 89400, Note_on_c, 6, 71, 98
8, 89410, Control_c, 6, 11, 95
8, 89430, Control_c, 6, 11, 94
8, 89460, Control_c, 6, 11, 93
8, 89480, Control_c, 6, 11, 92
8, 89500, Control_c, 6, 11, 91
8, 89520, Control_c, 6, 11, 90
8, 89550, Control_c, 6, 11, 89
8, 89570, Control_c, 6, 11, 88
8, 89590, Control_c, 6, 11, 87
8, 89610, Control_c, 6, 11, 86
8, 89640, Control_c, 6, 11, 85
8, 89660, Control_c, 6, 11, 84
8, 89680, Control_c, 6, 11, 83
8, 89710, Control_c, 6, 11, 82
8, 89730, Control_c, 6, 11, 81
8, 89750, Control_c, 6, 11, 80
8, 89760, Note_on_c, 6, 71, 0
8, 89760, Note_on_c, 6, 78, 98
8, 89770, Control_c, 6, 11, 79
8, 89800, Control_c, 6, 11, 78
8, 89820, Control_c, 6, 11, 77
8, 89840, Control_c, 6, 11, 76
8, 89860, Control_c, 6, 11, 75
8, 89890, Control_c, 6, 11, 74
8, 89910, Control_c, 6, 11, 73
8, 89930, Control_c, 6, 11, 72
8, 89950, Control_c, 6, 11, 71
8, 89980, Control_c, 6, 11, 70
8, 90000, Control_c, 6, 11, 69
8, 90020, Control_c, 6, 11, 68
8, 90050, Control_c, 6, 11, 67
8, 90070, Control_c, 6, 11, 66
8, 90090, Control_c, 6, 11, 65
8, 90110, Control_c, 6, 11, 64
8, 90120, Note_on_c, 6, 78, 0
8, 90120, Note_on_c, 6, 79, 98
8, 90140, Control_c, 6, 11, 63
8, 90160, Control_c, 6, 11, 62
8, 90180, Control_c, 6, 11, 61
8, 90200, Control_c, 6, 11, 60
8, 90230, Control_c, 6, 11, 59
8, 90250, Control_c, 6, 11, 58
8, 90270, Control_c, 6, 11, 57
8, 90300, Control_c, 6, 11, 56
8, 90320, Control_c, 6, 11, 55
8, 90340, Control_c, 6, 11, 54
8, 90360, Control_c, 6, 11, 53
8, 90390, Control_c, 6, 11, 52
8, 90410, Control_c, 6, 11, 51
8, 90430, Control_c, 6, 11, 50
8, 90450, Control_c, 6, 11, 49
8, 90480, Note_on_c, 6, 79, 0
8, 90480, Control_c, 6, 11, 48
8, 90480, Note_on_c, 6, 78, 98
8, 90500, Control_c, 6, 11, 47
8, 90520, Control_c, 6, 11, 46
8, 90540, Control_c, 6, 11, 45
8, 90570, Control_c, 6, 11, 44
8, 90590, Control_c, 6, 11, 43
8, 90610, Control_c, 6, 11, 42
8, 90640, Control_c, 6, 11, 41
8, 90660, Control_c, 6, 11, 40
8, 90680, Control_c, 6, 11, 39
8, 90700, Control_c, 6, 11, 38
8, 90730, Control_c, 6, 11, 37
8, 90750, Control_c, 6, 11, 36
8, 90770, Control_c, 6, 11, 35
8, 90790, Control_c, 6, 11, 34
8, 90820, Control_c, 6, 11, 33
8, 90840, Note_on_c, 6, 78, 0
8, 90840, Control_c, 6, 11, 32
8, 90840, Note_on_c, 6, 79, 98
8, 90860, Control_c, 6, 11, 31
8, 90880, Control_c, 6, 11, 30
8, 90910, Control_c, 6, 11, 29
8, 90930, Control_c, 6, 11, 28
8, 90950, Control_c, 6, 11, 27
8, 90960, Note_on_c, 6, 79, 0
8, 90960, Note_on_c, 6, 81, 98
8, 90980, Control_c, 6, 11, 26
8, 91000, Control_c, 6, 11, 25
8, 91020, Control_c, 6, 11, 24
8, 91040, Control_c, 6, 11, 23
8, 91070, Control_c, 6, 11, 22
8, 91090, Control_c, 6, 11, 21
8, 91110, Control_c, 6, 11, 20
8, 91130, Control_c, 6, 11, 19
8, 91160, Control_c, 6, 11, 18
8, 91180, Control_c, 6, 11, 17
8, 91200, Note_on_c, 6, 81, 0
8, 91200, Control_c, 6, 11, 16
8, 91200, Note_on_c, 6, 83, 98
8, 91220, Control_c, 6, 11, 15
8, 91250, Control_c, 6, 11, 14
8, 91270, Control_c, 6, 11, 13
8, 91290, Control_c, 6, 11, 12
8, 91320, Control_c, 6, 11, 11
8, 91340, Control_c, 6, 11, 10
8, 91360, Control_c, 6, 11, 9
8, 91380, Control_c, 6, 11, 8
8, 91410, Control_c, 6, 11, 7
8, 91430, Control_c, 6, 11, 6
8, 91450, Control_c, 6, 11, 5
8, 91470, Control_c, 6, 11, 4
8, 91500, Control_c, 6, 11, 3
8, 91520, Control_c, 6, 11, 2
8, 91540, Control_c, 6, 11, 1
8, 91560, Note_on_c, 6, 83, 0
8, 91560, Control_c, 6, 11, 0
8, 91560, End_track
9, 0, Start_track
9, 0, Title_t, "A8-Slow Strings"
9, 0, Control_c, 7, 0, 0
9, 0, Control_c, 7, 32, 3
9, 0, Program_c, 7, 49
9, 0, Control_c, 7, 7, 110
9, 0, Control_c, 7, 10, 64
9, 166, Control_c, 7, 91, 50
9, 167, Control_c, 7, 93, 20
9, 6840, Note_on_c, 7, 69, 98
9, 7320, Note_on_c, 7, 69, 0
9, 7320, Note_on_c, 7, 71, 98
9, 7560, Note_on_c, 7, 71, 0
9, 7560, Note_on_c, 7, 66, 98
9, 7920, Note_on_c, 7, 66, 0
9, 7920, Note_on_c, 7, 66, 98
9, 8280, Note_on_c, 7, 66, 0
9, 8280, Note_on_c, 7, 67, 98
9, 8280, Note_on_c, 7, 72, 98
9, 8640, Note_on_c, 7, 72, 0
9, 8640, Note_on_c, 7, 67, 0
9, 8640, Note_on_c, 7, 66, 98
9, 8640, Note_on_c, 7, 71, 98
9, 9000, Note_on_c, 7, 71, 0
9, 9000, Note_on_c, 7, 66, 0
9, 9000, Note_on_c, 7, 67, 98
9, 9000, Note_on_c, 7, 72, 98
9, 9120, Note_on_c, 7, 72, 0
9, 9120, Note_on_c, 7, 67, 0
9, 9120, Note_on_c, 7, 69, 98
9, 9120, Note_on_c, 7, 74, 98
9, 9360, Note_on_c, 7, 74, 0
9, 9360, Note_on_c, 7, 69, 0
9, 9360, Note_on_c, 7, 71, 98
9, 9360, Note_on_c, 7, 76, 98
9, 9720, Note_on_c, 7, 76, 0
9, 9720, Note_on_c, 7, 71, 0
9, 11400, Note_on_c, 7, 62, 100
9, 11400, Note_on_c, 7, 65, 100
9, 11760, Note_on_c, 7, 65, 0
9, 11760, Note_on_c, 7, 62, 0
9, 11760, Note_on_c, 7, 60, 100
9, 11760, Note_on_c, 7, 64, 100
9, 12120, Note_on_c, 7, 64, 0
9, 12120, Note_on_c, 7, 60, 0
9, 12120, Note_on_c, 7, 58, 100
9, 12120, Note_on_c, 7, 62, 100
9, 12480, Note_on_c, 7, 62, 0
9, 12480, Note_on_c, 7, 58, 0
9, 12480, Note_on_c, 7, 55, 100
9, 12480, Note_on_c, 7, 57, 100
9, 12480, Note_on_c, 7, 67, 100
9, 12480, Note_on_c, 7, 64, 100
9, 13200, Note_on_c, 7, 64, 0
9, 13200, Note_on_c, 7, 55, 0
9, 13200, Note_on_c, 7, 57, 0
9, 13200, Note_on_c, 7, 67, 0
9, 13200, Note_on_c, 7, 52, 105
9, 13200, Note_on_c, 7, 60, 105
9, 13200, Note_on_c, 7, 64, 105
9, 13560, Note_on_c, 7, 64, 0
9, 13560, Note_on_c, 7, 60, 0
9, 13560, Note_on_c, 7, 52, 0
9, 13560, Note_on_c, 7, 50, 105
9, 13560, Note_on_c, 7, 58, 105
9, 13560, Note_on_c, 7, 62, 105
9, 13920, Note_on_c, 7, 62, 0
9, 13920, Note_on_c, 7, 58, 0
9, 13920, Note_on_c, 7, 50, 0
9, 13920, Note_on_c, 7, 60, 105
9, 13920, Note_on_c, 7, 64, 105
9, 13920, Note_on_c, 7, 52, 105
9, 14280, Note_on_c, 7, 52, 0
9, 14280, Note_on_c, 7, 64, 0
9, 14280, Note_on_c, 7, 60, 0
9, 14280, Note_on_c, 7, 53, 105
9, 14280, Note_on_c, 7, 62, 105
9, 14280, Note_on_c, 7, 65, 105
9, 14640, Note_on_c, 7, 65, 0
9, 14640, Note_on_c, 7, 62, 0
9, 14640, Note_on_c, 7, 53, 0
9, 14640, Note_on_c, 7, 52, 105
9, 14640, Note_on_c, 7, 60, 105
9, 14640, Note_on_c, 7, 64, 105
9, 15000, Note_on_c, 7, 64, 0
9, 15000, Note_on_c, 7, 60, 0
9, 15000, Note_on_c, 7, 52, 0
9, 15000, Note_on_c, 7, 53, 105
9, 15000, Note_on_c, 7, 58, 105
9, 15000, Note_on_c, 7, 62, 105
9, 15360, Note_on_c, 7, 62, 0
9, 15360, Note_on_c, 7, 58, 0
9, 15360, Note_on_c, 7, 53, 0
9, 15360, Note_on_c, 7, 60, 105
9, 15360, Note_on_c, 7, 64, 105
9, 15360, Note_on_c, 7, 52, 105
9, 15720, Note_on_c, 7, 52, 0
9, 15720, Note_on_c, 7, 64, 0
9, 15720, Note_on_c, 7, 60, 0
9, 15720, Note_on_c, 7, 53, 105
9, 15720, Note_on_c, 7, 62, 105
9, 15720, Note_on_c, 7, 65, 105
9, 16080, Note_on_c, 7, 65, 0
9, 16080, Note_on_c, 7, 62, 0
9, 16080, Note_on_c, 7, 53, 0
9, 16080, Note_on_c, 7, 52, 105
9, 16080, Note_on_c, 7, 60, 105
9, 16080, Note_on_c, 7, 64, 105
9, 16440, Note_on_c, 7, 64, 0
9, 16440, Note_on_c, 7, 60, 0
9, 16440, Note_on_c, 7, 52, 0
9, 16440, Note_on_c, 7, 53, 105
9, 16440, Note_on_c, 7, 58, 105
9, 16440, Note_on_c, 7, 62, 105
9, 16800, Note_on_c, 7, 62, 0
9, 16800, Note_on_c, 7, 58, 0
9, 16800, Note_on_c, 7, 53, 0
9, 16800, Note_on_c, 7, 60, 105
9, 16800, Note_on_c, 7, 64, 105
9, 16800, Note_on_c, 7, 52, 105
9, 17160, Note_on_c, 7, 52, 0
9, 17160, Note_on_c, 7, 64, 0
9, 17160, Note_on_c, 7, 60, 0
9, 17160, Note_on_c, 7, 53, 105
9, 17160, Note_on_c, 7, 62, 105
9, 17160, Note_on_c, 7, 65, 105
9, 17520, Note_on_c, 7, 65, 0
9, 17520, Note_on_c, 7, 62, 0
9, 17520, Note_on_c, 7, 53, 0
9, 17520, Note_on_c, 7, 52, 105
9, 17520, Note_on_c, 7, 60, 105
9, 17520, Note_on_c, 7, 64, 105
9, 17880, Note_on_c, 7, 64, 0
9, 17880, Note_on_c, 7, 60, 0
9, 17880, Note_on_c, 7, 52, 0
9, 17880, Note_on_c, 7, 50, 105
9, 17880, Note_on_c, 7, 58, 105
9, 17880, Note_on_c, 7, 62, 105
9, 18240, Note_on_c, 7, 62, 0
9, 18240, Note_on_c, 7, 58, 0
9, 18240, Note_on_c, 7, 50, 0
9, 18240, Note_on_c, 7, 60, 105
9, 18240, Note_on_c, 7, 64, 105
9, 18240, Note_on_c, 7, 52, 105
9, 18600, Note_on_c, 7, 52, 0
9, 18600, Note_on_c, 7, 64, 0
9, 18600, Note_on_c, 7, 60, 0
9, 18600, Note_on_c, 7, 53, 105
9, 18600, Note_on_c, 7, 62, 105
9, 18600, Note_on_c, 7, 65, 105
9, 18960, Note_on_c, 7, 65, 0
9, 18960, Note_on_c, 7, 62, 0
9, 18960, Note_on_c, 7, 53, 0
9, 18960, Note_on_c, 7, 65, 100
9, 18960, Note_on_c, 7, 53, 100
9, 21840, Note_on_c, 7, 53, 0
9, 21840, Note_on_c, 7, 65, 0
9, 21840, Note_on_c, 7, 65, 100
9, 21840, Note_on_c, 7, 53, 100
9, 24720, Note_on_c, 7, 53, 0
9, 24720, Note_on_c, 7, 65, 0
9, 36240, Note_on_c, 7, 64, 90
9, 37680, Note_on_c, 7, 64, 0
9, 37680, Note_on_c, 7, 64, 90
9, 39120, Note_on_c, 7, 64, 0
9, 39120, Note_on_c, 7, 64, 90
9, 40560, Note_on_c, 7, 64, 0
9, 40560, Note_on_c, 7, 64, 90
9, 42000, Note_on_c, 7, 64, 0
9, 47760, Note_on_c, 7, 69, 98
9, 48240, Note_on_c, 7, 69, 0
9, 48240, Note_on_c, 7, 71, 98
9, 48480, Note_on_c, 7, 71, 0
9, 48480, Note_on_c, 7, 66, 98
9, 48840, Note_on_c, 7, 66, 0
9, 48840, Note_on_c, 7, 66, 98
9, 49200, Note_on_c, 7, 66, 0
9, 49200, Note_on_c, 7, 67, 98
9, 49200, Note_on_c, 7, 72, 98
9, 49560, Note_on_c, 7, 72, 0
9, 49560, Note_on_c, 7, 67, 0
9, 49560, Note_on_c, 7, 66, 98
9, 49560, Note_on_c, 7, 71, 98
9, 49920, Note_on_c, 7, 71, 0
9, 49920, Note_on_c, 7, 66, 0
9, 49920, Note_on_c, 7, 67, 98
9, 49920, Note_on_c, 7, 72, 98
9, 50040, Note_on_c, 7, 72, 0
9, 50040, Note_on_c, 7, 67, 0
9, 50040, Note_on_c, 7, 69, 98
9, 50040, Note_on_c, 7, 74, 98
9, 50280, Note_on_c, 7, 74, 0
9, 50280, Note_on_c, 7, 69, 0
9, 50280, Note_on_c, 7, 71, 98
9, 50280, Note_on_c, 7, 76, 98
9, 50640, Note_on_c, 7, 76, 0
9, 50640, Note_on_c, 7, 71, 0
9, 52320, Note_on_c, 7, 62, 100
9, 52320, Note_on_c, 7, 65, 100
9, 52680, Note_on_c, 7, 65, 0
9, 52680, Note_on_c, 7, 62, 0
9, 52680, Note_on_c, 7, 60, 100
9, 52680, Note_on_c, 7, 64, 100
9, 53040, Note_on_c, 7, 64, 0
9, 53040, Note_on_c, 7, 60, 0
9, 53040, Note_on_c, 7, 58, 100
9, 53040, Note_on_c, 7, 62, 100
9, 53400, Note_on_c, 7, 62, 0
9, 53400, Note_on_c, 7, 58, 0
9, 53400, Note_on_c, 7, 55, 100
9, 53400, Note_on_c, 7, 57, 100
9, 53400, Note_on_c, 7, 67, 100
9, 53400, Note_on_c, 7, 64, 100
9, 54120, Note_on_c, 7, 64, 0
9, 54120, Note_on_c, 7, 55, 0
9, 54120, Note_on_c, 7, 57, 0
9, 54120, Note_on_c, 7, 67, 0
9, 54120, Note_on_c, 7, 52, 105
9, 54120, Note_on_c, 7, 60, 105
9, 54120, Note_on_c, 7, 64, 105
9, 54480, Note_on_c, 7, 64, 0
9, 54480, Note_on_c, 7, 60, 0
9, 54480, Note_on_c, 7, 52, 0
9, 54480, Note_on_c, 7, 50, 105
9, 54480, Note_on_c, 7, 58, 105
9, 54480, Note_on_c, 7, 62, 105
9, 54840, Note_on_c, 7, 62, 0
9, 54840, Note_on_c, 7, 58, 0
9, 54840, Note_on_c, 7, 50, 0
9, 54840, Note_on_c, 7, 60, 105
9, 54840, Note_on_c, 7, 64, 105
9, 54840, Note_on_c, 7, 52, 105
9, 55200, Note_on_c, 7, 52, 0
9, 55200, Note_on_c, 7, 64, 0
9, 55200, Note_on_c, 7, 60, 0
9, 55200, Note_on_c, 7, 53, 105
9, 55200, Note_on_c, 7, 62, 105
9, 55200, Note_on_c, 7, 65, 105
9, 55560, Note_on_c, 7, 65, 0
9, 55560, Note_on_c, 7, 62, 0
9, 55560, Note_on_c, 7, 53, 0
9, 55560, Note_on_c, 7, 52, 105
9, 55560, Note_on_c, 7, 60, 105
9, 55560, Note_on_c, 7, 64, 105
9, 55920, Note_on_c, 7, 64, 0
9, 55920, Note_on_c, 7, 60, 0
9, 55920, Note_on_c, 7, 52, 0
9, 55920, Note_on_c, 7, 53, 105
9, 55920, Note_on_c, 7, 58, 105
9, 55920, Note_on_c, 7, 62, 105
9, 56280, Note_on_c, 7, 62, 0
9, 56280, Note_on_c, 7, 58, 0
9, 56280, Note_on_c, 7, 53, 0
9, 56280, Note_on_c, 7, 60, 105
9, 56280, Note_on_c, 7, 64, 105
9, 56280, Note_on_c, 7, 52, 105
9, 56640, Note_on_c, 7, 52, 0
9, 56640, Note_on_c, 7, 64, 0
9, 56640, Note_on_c, 7, 60, 0
9, 56640, Note_on_c, 7, 53, 105
9, 56640, Note_on_c, 7, 62, 105
9, 56640, Note_on_c, 7, 65, 105
9, 57000, Note_on_c, 7, 65, 0
9, 57000, Note_on_c, 7, 62, 0
9, 57000, Note_on_c, 7, 53, 0
9, 57000, Note_on_c, 7, 52, 105
9, 57000, Note_on_c, 7, 60, 105
9, 57000, Note_on_c, 7, 64, 105
9, 57360, Note_on_c, 7, 64, 0
9, 57360, Note_on_c, 7, 60, 0
9, 57360, Note_on_c, 7, 52, 0
9, 57360, Note_on_c, 7, 53, 105
9, 57360, Note_on_c, 7, 58, 105
9, 57360, Note_on_c, 7, 62, 105
9, 57720, Note_on_c, 7, 62, 0
9, 57720, Note_on_c, 7, 58, 0
9, 57720, Note_on_c, 7, 53, 0
9, 57720, Note_on_c, 7, 60, 105
9, 57720, Note_on_c, 7, 64, 105
9, 57720, Note_on_c, 7, 52, 105
9, 58080, Note_on_c, 7, 52, 0
9, 58080, Note_on_c, 7, 64, 0
9, 58080, Note_on_c, 7, 60, 0
9, 58080, Note_on_c, 7, 53, 105
9, 58080, Note_on_c, 7, 62, 105
9, 58080, Note_on_c, 7, 65, 105
9, 58440, Note_on_c, 7, 65, 0
9, 58440, Note_on_c, 7, 62, 0
9, 58440, Note_on_c, 7, 53, 0
9, 58440, Note_on_c, 7, 52, 105
9, 58440, Note_on_c, 7, 60, 105
9, 58440, Note_on_c, 7, 64, 105
9, 58800, Note_on_c, 7, 64, 0
9, 58800, Note_on_c, 7, 60, 0
9, 58800, Note_on_c, 7, 52, 0
9, 58800, Note_on_c, 7, 50, 105
9, 58800, Note_on_c, 7, 58, 105
9, 58800, Note_on_c, 7, 62, 105
9, 59160, Note_on_c, 7, 62, 0
9, 59160, Note_on_c, 7, 58, 0
9, 59160, Note_on_c, 7, 50, 0
9, 59160, Note_on_c, 7, 60, 105
9, 59160, Note_on_c, 7, 64, 105
9, 59160, Note_on_c, 7, 52, 105
9, 59520, Note_on_c, 7, 52, 0
9, 59520, Note_on_c, 7, 64, 0
9, 59520, Note_on_c, 7, 60, 0
9, 59520, Note_on_c, 7, 53, 105
9, 59520, Note_on_c, 7, 62, 105
9, 59520, Note_on_c, 7, 65, 105
9, 59880, Note_on_c, 7, 65, 0
9, 59880, Note_on_c, 7, 62, 0
9, 59880, Note_on_c, 7, 53, 0
9, 59880, Note_on_c, 7, 65, 100
9, 59880, Note_on_c, 7, 53, 100
9, 62760, Note_on_c, 7, 53, 0
9, 62760, Note_on_c, 7, 65, 0
9, 62760, Note_on_c, 7, 65, 100
9, 62760, Note_on_c, 7, 53, 100
9, 65640, Note_on_c, 7, 53, 0
9, 65640, Note_on_c, 7, 65, 0
9, 77160, Note_on_c, 7, 64, 90
9, 78600, Note_on_c, 7, 64, 0
9, 78600, Note_on_c, 7, 64, 90
9, 80040, Note_on_c, 7, 64, 0
9, 80040, Note_on_c, 7, 64, 90
9, 81480, Note_on_c, 7, 64, 0
9, 81480, Note_on_c, 7, 64, 90
9, 82920, Note_on_c, 7, 64, 0
9, 88680, Note_on_c, 7, 69, 98
9, 88690, Control_c, 7, 11, 127
9, 88720, Control_c, 7, 11, 126
9, 88740, Control_c, 7, 11, 125
9, 88760, Control_c, 7, 11, 124
9, 88790, Control_c, 7, 11, 123
9, 88810, Control_c, 7, 11, 122
9, 88830, Control_c, 7, 11, 121
9, 88850, Control_c, 7, 11, 120
9, 88880, Control_c, 7, 11, 119
9, 88900, Control_c, 7, 11, 118
9, 88920, Control_c, 7, 11, 117
9, 88940, Control_c, 7, 11, 116
9, 88970, Control_c, 7, 11, 115
9, 88990, Control_c, 7, 11, 114
9, 89010, Control_c, 7, 11, 113
9, 89030, Control_c, 7, 11, 112
9, 89060, Control_c, 7, 11, 111
9, 89080, Control_c, 7, 11, 110
9, 89100, Control_c, 7, 11, 109
9, 89120, Control_c, 7, 11, 108
9, 89150, Control_c, 7, 11, 107
9, 89160, Note_on_c, 7, 69, 0
9, 89160, Note_on_c, 7, 71, 98
9, 89170, Control_c, 7, 11, 106
9, 89190, Control_c, 7, 11, 105
9, 89210, Control_c, 7, 11, 104
9, 89240, Control_c, 7, 11, 103
9, 89260, Control_c, 7, 11, 102
9, 89280, Control_c, 7, 11, 101
9, 89300, Control_c, 7, 11, 100
9, 89330, Control_c, 7, 11, 99
9, 89350, Control_c, 7, 11, 98
9, 89370, Control_c, 7, 11, 97
9, 89390, Control_c, 7, 11, 96
9, 89400, Note_on_c, 7, 71, 0
9, 89400, Note_on_c, 7, 66, 98
9, 89420, Control_c, 7, 11, 95
9, 89440, Control_c, 7, 11, 94
9, 89460, Control_c, 7, 11, 93
9, 89480, Control_c, 7, 11, 92
9, 89510, Control_c, 7, 11, 91
9, 89530, Control_c, 7, 11, 90
9, 89550, Control_c, 7, 11, 89
9, 89570, Control_c, 7, 11, 88
9, 89600, Control_c, 7, 11, 87
9, 89620, Control_c, 7, 11, 86
9, 89640, Control_c, 7, 11, 85
9, 89660, Control_c, 7, 11, 84
9, 89690, Control_c, 7, 11, 83
9, 89710, Control_c, 7, 11, 82
9, 89730, Control_c, 7, 11, 81
9, 89750, Control_c, 7, 11, 80
9, 89760, Note_on_c, 7, 66, 0
9, 89760, Note_on_c, 7, 66, 98
9, 89780, Control_c, 7, 11, 79
9, 89800, Control_c, 7, 11, 78
9, 89820, Control_c, 7, 11, 77
9, 89840, Control_c, 7, 11, 76
9, 89870, Control_c, 7, 11, 75
9, 89890, Control_c, 7, 11, 74
9, 89910, Control_c, 7, 11, 73
9, 89930, Control_c, 7, 11, 72
9, 89960, Control_c, 7, 11, 71
9, 89980, Control_c, 7, 11, 70
9, 90000, Control_c, 7, 11, 69
9, 90020, Control_c, 7, 11, 68
9, 90050, Control_c, 7, 11, 67
9, 90070, Control_c, 7, 11, 66
9, 90090, Control_c, 7, 11, 65
9, 90110, Control_c, 7, 11, 64
9, 90120, Note_on_c, 7, 66, 0
9, 90120, Note_on_c, 7, 67, 98
9, 90120, Note_on_c, 7, 72, 98
9, 90140, Control_c, 7, 11, 63
9, 90160, Control_c, 7, 11, 62
9, 90180, Control_c, 7, 11, 61
9, 90200, Control_c, 7, 11, 60
9, 90230, Control_c, 7, 11, 59
9, 90250, Control_c, 7, 11, 58
9, 90270, Control_c, 7, 11, 57
9, 90290, Control_c, 7, 11, 56
9, 90320, Control_c, 7, 11, 55
9, 90340, Control_c, 7, 11, 54
9, 90360, Control_c, 7, 11, 53
9, 90380, Control_c, 7, 11, 52
9, 90410, Control_c, 7, 11, 51
9, 90430, Control_c, 7, 11, 50
9, 90450, Control_c, 7, 11, 49
9, 90470, Control_c, 7, 11, 48
9, 90480, Note_on_c, 7, 72, 0
9, 90480, Note_on_c, 7, 67, 0
9, 90480, Note_on_c, 7, 66, 98
9, 90480, Note_on_c, 7, 71, 98
9, 90500, Control_c, 7, 11, 47
9, 90520, Control_c, 7, 11, 46
9, 90540, Control_c, 7, 11, 45
9, 90560, Control_c, 7, 11, 44
9, 90590, Control_c, 7, 11, 43
9, 90610, Control_c, 7, 11, 42
9, 90630, Control_c, 7, 11, 41
9, 90650, Control_c, 7, 11, 40
9, 90680, Control_c, 7, 11, 39
9, 90700, Control_c, 7, 11, 38
9, 90720, Control_c, 7, 11, 37
9, 90740, Control_c, 7, 11, 36
9, 90770, Control_c, 7, 11, 35
9, 90790, Control_c, 7, 11, 34
9, 90810, Control_c, 7, 11, 33
9, 90830, Control_c, 7, 11, 32
9, 90840, Note_on_c, 7, 71, 0
9, 90840, Note_on_c, 7, 66, 0
9, 90840, Note_on_c, 7, 67, 98
9, 90840, Note_on_c, 7, 72, 98
9, 90860, Control_c, 7, 11, 31
9, 90880, Control_c, 7, 11, 30
9, 90900, Control_c, 7, 11, 29
9, 90920, Control_c, 7, 11, 28
9, 90950, Control_c, 7, 11, 27
9, 90960, Note_on_c, 7, 72, 0
9, 90960, Note_on_c, 7, 67, 0
9, 90960, Note_on_c, 7, 69, 98
9, 90960, Note_on_c, 7, 74, 98
9, 90970, Control_c, 7, 11, 26
9, 90990, Control_c, 7, 11, 25
9, 91010, Control_c, 7, 11, 24
9, 91040, Control_c, 7, 11, 23
9, 91060, Control_c, 7, 11, 22
9, 91080, Control_c, 7, 11, 21
9, 91100, Control_c, 7, 11, 20
9, 91130, Control_c, 7, 11, 19
9, 91150, Control_c, 7, 11, 18
9, 91170, Control_c, 7, 11, 17
9, 91190, Control_c, 7, 11, 16
9, 91200, Note_on_c, 7, 74, 0
9, 91200, Note_on_c, 7, 69, 0
9, 91200, Note_on_c, 7, 71, 98
9, 91200, Note_on_c, 7, 76, 98
9, 91220, Control_c, 7, 11, 15
9, 91240, Control_c, 7, 11, 14
9, 91260, Control_c, 7, 11, 13
9, 91280, Control_c, 7, 11, 12
9, 91310, Control_c, 7, 11, 11
9, 91330, Control_c, 7, 11, 10
9, 91350, Control_c, 7, 11, 9
9, 91370, Control_c, 7, 11, 8
9, 91400, Control_c, 7, 11, 7
9, 91420, Control_c, 7, 11, 6
9, 91440, Control_c, 7, 11, 5
9, 91460, Control_c, 7, 11, 4
9, 91490, Control_c, 7, 11, 3
9, 91510, Control_c, 7, 11, 2
9, 91530, Control_c, 7, 11, 1
9, 91550, Control_c, 7, 11, 0
9, 91560, Note_on_c, 7, 76, 0
9, 91560, Note_on_c, 7, 71, 0
9, 91560, End_track
10, 0, Start_track
10, 0, Title_t, "A9-Piano 2     "
10, 0, Control_c, 8, 0, 0
10, 0, Control_c, 8, 32, 3
10, 0, Program_c, 8, 1
10, 0, Control_c, 8, 7, 127
10, 0, Control_c, 8, 10, 74
10, 176, Control_c, 8, 91, 70
10, 177, Control_c, 8, 93, 20
10, 178, Control_c, 8, 94, 10
10, 8160, Note_on_c, 8, 81, 97
10, 8180, Note_on_c, 8, 81, 0
10, 8180, Note_on_c, 8, 83, 101
10, 8200, Note_on_c, 8, 83, 0
10, 8200, Note_on_c, 8, 86, 104
10, 8220, Note_on_c, 8, 86, 0
10, 8220, Note_on_c, 8, 88, 108
10, 8240, Note_on_c, 8, 88, 0
10, 8240, Note_on_c, 8, 90, 112
10, 8260, Note_on_c, 8, 90, 0
10, 8260, Note_on_c, 8, 91, 115
10, 8280, Note_on_c, 8, 91, 0
10, 8280, Note_on_c, 8, 93, 119
10, 8300, Note_on_c, 8, 93, 0
10, 8386, Note_on_c, 8, 100, 116
10, 8418, Note_on_c, 8, 98, 116
10, 8419, Note_on_c, 8, 100, 0
10, 8457, Note_on_c, 8, 100, 116
10, 8459, Note_on_c, 8, 98, 0
10, 8491, Note_on_c, 8, 100, 0
10, 8494, Note_on_c, 8, 98, 116
10, 8543, Note_on_c, 8, 98, 0
10, 9000, Note_on_c, 8, 76, 96
10, 9000, Note_on_c, 8, 88, 96
10, 9029, Note_on_c, 8, 88, 0
10, 9029, Note_on_c, 8, 76, 0
10, 9060, Note_on_c, 8, 76, 96
10, 9060, Note_on_c, 8, 88, 96
10, 9089, Note_on_c, 8, 88, 0
10, 9089, Note_on_c, 8, 76, 0
10, 9120, Note_on_c, 8, 76, 97
10, 9120, Note_on_c, 8, 88, 97
10, 9149, Note_on_c, 8, 88, 0
10, 9149, Note_on_c, 8, 76, 0
10, 9180, Note_on_c, 8, 76, 97
10, 9180, Note_on_c, 8, 88, 97
10, 9209, Note_on_c, 8, 88, 0
10, 9209, Note_on_c, 8, 76, 0
10, 9240, Note_on_c, 8, 76, 98
10, 9240, Note_on_c, 8, 88, 98
10, 9269, Note_on_c, 8, 88, 0
10, 9269, Note_on_c, 8, 76, 0
10, 9300, Note_on_c, 8, 76, 98
10, 9300, Note_on_c, 8, 88, 98
10, 9329, Note_on_c, 8, 88, 0
10, 9329, Note_on_c, 8, 76, 0
10, 9360, Note_on_c, 8, 76, 99
10, 9360, Note_on_c, 8, 88, 99
10, 9389, Note_on_c, 8, 88, 0
10, 9389, Note_on_c, 8, 76, 0
10, 9420, Note_on_c, 8, 88, 99
10, 9420, Note_on_c, 8, 76, 99
10, 9449, Note_on_c, 8, 76, 0
10, 9449, Note_on_c, 8, 88, 0
10, 9480, Note_on_c, 8, 76, 100
10, 9480, Note_on_c, 8, 88, 100
10, 9509, Note_on_c, 8, 88, 0
10, 9509, Note_on_c, 8, 76, 0
10, 9540, Note_on_c, 8, 88, 100
10, 9540, Note_on_c, 8, 76, 100
10, 9569, Note_on_c, 8, 76, 0
10, 9569, Note_on_c, 8, 88, 0
10, 9600, Note_on_c, 8, 76, 101
10, 9600, Note_on_c, 8, 88, 101
10, 9629, Note_on_c, 8, 88, 0
10, 9629, Note_on_c, 8, 76, 0
10, 9660, Note_on_c, 8, 76, 102
10, 9660, Note_on_c, 8, 88, 102
10, 9689, Note_on_c, 8, 88, 0
10, 9689, Note_on_c, 8, 76, 0
10, 9720, Note_on_c, 8, 88, 122
10, 9749, Note_on_c, 8, 88, 0
10, 9780, Note_on_c, 8, 88, 122
10, 9809, Note_on_c, 8, 88, 0
10, 9840, Note_on_c, 8, 88, 121
10, 9869, Note_on_c, 8, 88, 0
10, 9900, Note_on_c, 8, 88, 121
10, 9929, Note_on_c, 8, 88, 0
10, 9930, Note_on_c, 8, 88, 121
10, 9959, Note_on_c, 8, 88, 0
10, 9960, Note_on_c, 8, 88, 121
10, 9989, Note_on_c, 8, 88, 0
10, 9990, Note_on_c, 8, 86, 121
10, 10019, Note_on_c, 8, 86, 0
10, 10020, Note_on_c, 8, 81, 121
10, 10049, Note_on_c, 8, 81, 0
10, 10050, Note_on_c, 8, 76, 121
10, 10079, Note_on_c, 8, 76, 0
10, 10080, Note_on_c, 8, 69, 121
10, 10109, Note_on_c, 8, 69, 0
10, 10740, Note_on_c, 8, 86, 120
10, 10794, Note_on_c, 8, 86, 0
10, 10800, Note_on_c, 8, 81, 120
10, 10854, Note_on_c, 8, 81, 0
10, 10860, Note_on_c, 8, 74, 120
10, 10914, Note_on_c, 8, 74, 0
10, 10920, Note_on_c, 8, 69, 120
10, 10974, Note_on_c, 8, 69, 0
10, 10980, Note_on_c, 8, 74, 120
10, 11034, Note_on_c, 8, 74, 0
10, 11040, Note_on_c, 8, 76, 120
10, 11094, Note_on_c, 8, 76, 0
10, 11100, Note_on_c, 8, 79, 120
10, 11154, Note_on_c, 8, 79, 0
10, 11160, Note_on_c, 8, 74, 100
10, 11160, Note_on_c, 8, 77, 120
10, 11214, Note_on_c, 8, 77, 0
10, 11220, Note_on_c, 8, 81, 120
10, 11268, Note_on_c, 8, 74, 0
10, 11274, Note_on_c, 8, 81, 0
10, 11280, Note_on_c, 8, 77, 100
10, 11280, Note_on_c, 8, 72, 100
10, 11280, Note_on_c, 8, 84, 120
10, 11334, Note_on_c, 8, 84, 0
10, 11340, Note_on_c, 8, 88, 120
10, 11388, Note_on_c, 8, 72, 0
10, 11388, Note_on_c, 8, 77, 0
10, 11394, Note_on_c, 8, 88, 0
10, 11400, Note_on_c, 8, 86, 120
10, 11508, Note_on_c, 8, 86, 0
10, 11520, Note_on_c, 8, 81, 120
10, 11628, Note_on_c, 8, 81, 0
10, 11640, Note_on_c, 8, 81, 120
10, 11694, Note_on_c, 8, 81, 0
10, 11700, Note_on_c, 8, 76, 120
10, 11754, Note_on_c, 8, 76, 0
10, 11760, Note_on_c, 8, 79, 120
10, 11760, Note_on_c, 8, 81, 120
10, 11868, Note_on_c, 8, 81, 0
10, 11868, Note_on_c, 8, 79, 0
10, 11880, Note_on_c, 8, 76, 120
10, 11880, Note_on_c, 8, 81, 120
10, 11988, Note_on_c, 8, 81, 0
10, 11988, Note_on_c, 8, 76, 0
10, 12000, Note_on_c, 8, 76, 120
10, 12000, Note_on_c, 8, 81, 120
10, 12108, Note_on_c, 8, 81, 0
10, 12108, Note_on_c, 8, 76, 0
10, 12120, Note_on_c, 8, 81, 120
10, 12120, Note_on_c, 8, 74, 120
10, 12228, Note_on_c, 8, 74, 0
10, 12228, Note_on_c, 8, 81, 0
10, 12240, Note_on_c, 8, 81, 120
10, 12240, Note_on_c, 8, 76, 120
10, 12348, Note_on_c, 8, 76, 0
10, 12348, Note_on_c, 8, 81, 0
10, 12360, Note_on_c, 8, 79, 120
10, 12468, Note_on_c, 8, 79, 0
10, 12480, Note_on_c, 8, 81, 120
10, 12588, Note_on_c, 8, 81, 0
10, 12840, Note_on_c, 8, 76, 120
10, 12840, Note_on_c, 8, 81, 120
10, 12948, Note_on_c, 8, 81, 0
10, 12948, Note_on_c, 8, 76, 0
10, 12960, Note_on_c, 8, 76, 120
10, 12960, Note_on_c, 8, 81, 120
10, 13068, Note_on_c, 8, 81, 0
10, 13068, Note_on_c, 8, 76, 0
10, 13080, Note_on_c, 8, 76, 120
10, 13080, Note_on_c, 8, 81, 120
10, 13188, Note_on_c, 8, 81, 0
10, 13188, Note_on_c, 8, 76, 0
10, 13200, Note_on_c, 8, 79, 110
10, 13200, Note_on_c, 8, 86, 110
10, 13229, Note_on_c, 8, 86, 0
10, 13229, Note_on_c, 8, 79, 0
10, 13380, Note_on_c, 8, 86, 110
10, 13380, Note_on_c, 8, 79, 110
10, 13409, Note_on_c, 8, 79, 0
10, 13409, Note_on_c, 8, 86, 0
10, 13560, Note_on_c, 8, 86, 110
10, 13560, Note_on_c, 8, 79, 110
10, 13589, Note_on_c, 8, 79, 0
10, 13589, Note_on_c, 8, 86, 0
10, 13620, Note_on_c, 8, 77, 110
10, 13649, Note_on_c, 8, 77, 0
10, 13680, Note_on_c, 8, 76, 110
10, 13709, Note_on_c, 8, 76, 0
10, 13740, Note_on_c, 8, 74, 110
10, 13769, Note_on_c, 8, 74, 0
10, 13800, Note_on_c, 8, 76, 110
10, 13829, Note_on_c, 8, 76, 0
10, 13860, Note_on_c, 8, 77, 110
10, 13889, Note_on_c, 8, 77, 0
10, 13920, Note_on_c, 8, 79, 110
10, 13920, Note_on_c, 8, 86, 110
10, 13949, Note_on_c, 8, 86, 0
10, 13949, Note_on_c, 8, 79, 0
10, 14100, Note_on_c, 8, 79, 110
10, 14100, Note_on_c, 8, 86, 110
10, 14129, Note_on_c, 8, 86, 0
10, 14129, Note_on_c, 8, 79, 0
10, 14220, Note_on_c, 8, 86, 110
10, 14220, Note_on_c, 8, 79, 110
10, 14249, Note_on_c, 8, 79, 0
10, 14249, Note_on_c, 8, 86, 0
10, 14280, Note_on_c, 8, 79, 110
10, 14280, Note_on_c, 8, 86, 110
10, 14309, Note_on_c, 8, 86, 0
10, 14309, Note_on_c, 8, 79, 0
10, 14340, Note_on_c, 8, 77, 110
10, 14369, Note_on_c, 8, 77, 0
10, 14400, Note_on_c, 8, 76, 110
10, 14429, Note_on_c, 8, 76, 0
10, 14460, Note_on_c, 8, 74, 110
10, 14489, Note_on_c, 8, 74, 0
10, 14520, Note_on_c, 8, 76, 110
10, 14549, Note_on_c, 8, 76, 0
10, 14580, Note_on_c, 8, 77, 110
10, 14609, Note_on_c, 8, 77, 0
10, 14640, Note_on_c, 8, 86, 110
10, 14640, Note_on_c, 8, 79, 110
10, 14669, Note_on_c, 8, 79, 0
10, 14669, Note_on_c, 8, 86, 0
10, 14820, Note_on_c, 8, 79, 110
10, 14820, Note_on_c, 8, 86, 110
10, 14849, Note_on_c, 8, 86, 0
10, 14849, Note_on_c, 8, 79, 0
10, 15000, Note_on_c, 8, 79, 110
10, 15000, Note_on_c, 8, 86, 110
10, 15029, Note_on_c, 8, 86, 0
10, 15029, Note_on_c, 8, 79, 0
10, 15060, Note_on_c, 8, 77, 110
10, 15089, Note_on_c, 8, 77, 0
10, 15120, Note_on_c, 8, 76, 110
10, 15149, Note_on_c, 8, 76, 0
10, 15180, Note_on_c, 8, 74, 110
10, 15209, Note_on_c, 8, 74, 0
10, 15240, Note_on_c, 8, 76, 110
10, 15269, Note_on_c, 8, 76, 0
10, 15300, Note_on_c, 8, 77, 110
10, 15329, Note_on_c, 8, 77, 0
10, 15360, Note_on_c, 8, 86, 110
10, 15360, Note_on_c, 8, 79, 110
10, 15389, Note_on_c, 8, 79, 0
10, 15389, Note_on_c, 8, 86, 0
10, 15540, Note_on_c, 8, 79, 110
10, 15540, Note_on_c, 8, 86, 110
10, 15569, Note_on_c, 8, 86, 0
10, 15569, Note_on_c, 8, 79, 0
10, 15660, Note_on_c, 8, 79, 110
10, 15660, Note_on_c, 8, 86, 110
10, 15689, Note_on_c, 8, 86, 0
10, 15689, Note_on_c, 8, 79, 0
10, 15720, Note_on_c, 8, 86, 110
10, 15720, Note_on_c, 8, 79, 110
10, 15749, Note_on_c, 8, 79, 0
10, 15749, Note_on_c, 8, 86, 0
10, 15750, Note_on_c, 8, 77, 110
10, 15779, Note_on_c, 8, 77, 0
10, 15780, Note_on_c, 8, 76, 110
10, 15809, Note_on_c, 8, 76, 0
10, 15810, Note_on_c, 8, 74, 110
10, 15839, Note_on_c, 8, 74, 0
10, 15840, Note_on_c, 8, 76, 110
10, 15869, Note_on_c, 8, 76, 0
10, 15870, Note_on_c, 8, 77, 110
10, 15899, Note_on_c, 8, 77, 0
10, 15900, Note_on_c, 8, 79, 110
10, 15929, Note_on_c, 8, 79, 0
10, 15930, Note_on_c, 8, 81, 110
10, 15959, Note_on_c, 8, 81, 0
10, 15960, Note_on_c, 8, 79, 110
10, 15989, Note_on_c, 8, 79, 0
10, 15990, Note_on_c, 8, 81, 110
10, 16019, Note_on_c, 8, 81, 0
10, 16020, Note_on_c, 8, 82, 110
10, 16049, Note_on_c, 8, 82, 0
10, 16050, Note_on_c, 8, 84, 110
10, 16079, Note_on_c, 8, 84, 0
10, 16080, Note_on_c, 8, 79, 110
10, 16080, Note_on_c, 8, 86, 110
10, 16109, Note_on_c, 8, 86, 0
10, 16109, Note_on_c, 8, 79, 0
10, 16260, Note_on_c, 8, 86, 110
10, 16260, Note_on_c, 8, 79, 110
10, 16289, Note_on_c, 8, 79, 0
10, 16289, Note_on_c, 8, 86, 0
10, 16440, Note_on_c, 8, 86, 110
10, 16440, Note_on_c, 8, 79, 110
10, 16469, Note_on_c, 8, 79, 0
10, 16469, Note_on_c, 8, 86, 0
10, 16500, Note_on_c, 8, 77, 110
10, 16529, Note_on_c, 8, 77, 0
10, 16560, Note_on_c, 8, 76, 110
10, 16589, Note_on_c, 8, 76, 0
10, 16620, Note_on_c, 8, 74, 110
10, 16649, Note_on_c, 8, 74, 0
10, 16680, Note_on_c, 8, 76, 110
10, 16709, Note_on_c, 8, 76, 0
10, 16740, Note_on_c, 8, 77, 110
10, 16769, Note_on_c, 8, 77, 0
10, 16800, Note_on_c, 8, 79, 110
10, 16800, Note_on_c, 8, 86, 110
10, 16829, Note_on_c, 8, 86, 0
10, 16829, Note_on_c, 8, 79, 0
10, 16980, Note_on_c, 8, 79, 110
10, 16980, Note_on_c, 8, 86, 110
10, 17009, Note_on_c, 8, 86, 0
10, 17009, Note_on_c, 8, 79, 0
10, 17100, Note_on_c, 8, 86, 110
10, 17100, Note_on_c, 8, 79, 110
10, 17129, Note_on_c, 8, 79, 0
10, 17129, Note_on_c, 8, 86, 0
10, 17160, Note_on_c, 8, 79, 110
10, 17160, Note_on_c, 8, 86, 110
10, 17189, Note_on_c, 8, 86, 0
10, 17189, Note_on_c, 8, 79, 0
10, 17220, Note_on_c, 8, 77, 110
10, 17249, Note_on_c, 8, 77, 0
10, 17280, Note_on_c, 8, 76, 110
10, 17309, Note_on_c, 8, 76, 0
10, 17340, Note_on_c, 8, 74, 110
10, 17369, Note_on_c, 8, 74, 0
10, 17400, Note_on_c, 8, 76, 110
10, 17429, Note_on_c, 8, 76, 0
10, 17460, Note_on_c, 8, 79, 110
10, 17489, Note_on_c, 8, 79, 0
10, 17490, Note_on_c, 8, 81, 110
10, 17519, Note_on_c, 8, 81, 0
10, 17520, Note_on_c, 8, 86, 110
10, 17520, Note_on_c, 8, 79, 110
10, 17549, Note_on_c, 8, 79, 0
10, 17549, Note_on_c, 8, 86, 0
10, 17700, Note_on_c, 8, 79, 110
10, 17700, Note_on_c, 8, 86, 110
10, 17729, Note_on_c, 8, 86, 0
10, 17729, Note_on_c, 8, 79, 0
10, 17880, Note_on_c, 8, 79, 110
10, 17880, Note_on_c, 8, 86, 110
10, 17909, Note_on_c, 8, 86, 0
10, 17909, Note_on_c, 8, 79, 0
10, 17940, Note_on_c, 8, 77, 110
10, 17969, Note_on_c, 8, 77, 0
10, 18000, Note_on_c, 8, 76, 110
10, 18029, Note_on_c, 8, 76, 0
10, 18060, Note_on_c, 8, 74, 110
10, 18089, Note_on_c, 8, 74, 0
10, 18120, Note_on_c, 8, 76, 110
10, 18149, Note_on_c, 8, 76, 0
10, 18180, Note_on_c, 8, 77, 110
10, 18209, Note_on_c, 8, 77, 0
10, 18240, Note_on_c, 8, 86, 110
10, 18240, Note_on_c, 8, 79, 110
10, 18269, Note_on_c, 8, 79, 0
10, 18269, Note_on_c, 8, 86, 0
10, 18420, Note_on_c, 8, 79, 110
10, 18420, Note_on_c, 8, 86, 110
10, 18449, Note_on_c, 8, 86, 0
10, 18449, Note_on_c, 8, 79, 0
10, 18540, Note_on_c, 8, 79, 110
10, 18540, Note_on_c, 8, 86, 110
10, 18569, Note_on_c, 8, 86, 0
10, 18569, Note_on_c, 8, 79, 0
10, 18600, Note_on_c, 8, 86, 110
10, 18600, Note_on_c, 8, 79, 110
10, 18629, Note_on_c, 8, 79, 0
10, 18629, Note_on_c, 8, 86, 0
10, 18660, Note_on_c, 8, 77, 110
10, 18689, Note_on_c, 8, 77, 0
10, 18720, Note_on_c, 8, 76, 110
10, 18749, Note_on_c, 8, 76, 0
10, 18780, Note_on_c, 8, 74, 110
10, 18809, Note_on_c, 8, 74, 0
10, 18840, Note_on_c, 8, 76, 110
10, 18869, Note_on_c, 8, 76, 0
10, 18900, Note_on_c, 8, 79, 110
10, 18929, Note_on_c, 8, 79, 0
10, 18930, Note_on_c, 8, 81, 110
10, 18959, Note_on_c, 8, 81, 0
10, 21840, Note_on_c, 8, 77, 120
10, 21915, Note_on_c, 8, 77, 0
10, 21924, Note_on_c, 8, 79, 120
10, 21936, Note_on_c, 8, 81, 120
10, 21938, Note_on_c, 8, 79, 0
10, 21944, Note_on_c, 8, 83, 120
10, 21947, Note_on_c, 8, 81, 0
10, 21960, Note_on_c, 8, 84, 120
10, 21962, Note_on_c, 8, 83, 0
10, 21990, Note_on_c, 8, 84, 0
10, 22560, Note_on_c, 8, 94, 120
10, 22587, Note_on_c, 8, 94, 0
10, 22620, Note_on_c, 8, 94, 120
10, 22647, Note_on_c, 8, 94, 0
10, 22680, Note_on_c, 8, 94, 120
10, 22707, Note_on_c, 8, 94, 0
10, 22740, Note_on_c, 8, 94, 120
10, 22767, Note_on_c, 8, 94, 0
10, 22800, Note_on_c, 8, 94, 120
10, 22827, Note_on_c, 8, 94, 0
10, 22860, Note_on_c, 8, 94, 120
10, 22887, Note_on_c, 8, 94, 0
10, 22920, Note_on_c, 8, 94, 120
10, 22947, Note_on_c, 8, 94, 0
10, 22950, Note_on_c, 8, 92, 120
10, 22977, Note_on_c, 8, 92, 0
10, 22980, Note_on_c, 8, 91, 120
10, 23007, Note_on_c, 8, 91, 0
10, 23010, Note_on_c, 8, 89, 120
10, 23037, Note_on_c, 8, 89, 0
10, 23040, Note_on_c, 8, 87, 120
10, 23067, Note_on_c, 8, 87, 0
10, 23070, Note_on_c, 8, 86, 120
10, 23097, Note_on_c, 8, 86, 0
10, 23100, Note_on_c, 8, 84, 120
10, 23127, Note_on_c, 8, 84, 0
10, 23130, Note_on_c, 8, 82, 120
10, 23157, Note_on_c, 8, 82, 0
10, 23160, Note_on_c, 8, 80, 120
10, 23187, Note_on_c, 8, 80, 0
10, 23190, Note_on_c, 8, 79, 120
10, 23217, Note_on_c, 8, 79, 0
10, 23220, Note_on_c, 8, 77, 120
10, 23247, Note_on_c, 8, 77, 0
10, 23250, Note_on_c, 8, 75, 120
10, 23277, Note_on_c, 8, 75, 0
10, 23280, Note_on_c, 8, 77, 120
10, 23307, Note_on_c, 8, 77, 0
10, 23340, Note_on_c, 8, 89, 120
10, 23367, Note_on_c, 8, 89, 0
10, 23400, Note_on_c, 8, 89, 120
10, 23427, Note_on_c, 8, 89, 0
10, 23460, Note_on_c, 8, 89, 120
10, 23487, Note_on_c, 8, 89, 0
10, 23520, Note_on_c, 8, 89, 120
10, 23547, Note_on_c, 8, 89, 0
10, 23580, Note_on_c, 8, 89, 120
10, 23607, Note_on_c, 8, 89, 0
10, 23640, Note_on_c, 8, 89, 120
10, 23667, Note_on_c, 8, 89, 0
10, 23700, Note_on_c, 8, 94, 120
10, 23727, Note_on_c, 8, 94, 0
10, 23760, Note_on_c, 8, 96, 120
10, 23787, Note_on_c, 8, 96, 0
10, 23820, Note_on_c, 8, 89, 120
10, 23847, Note_on_c, 8, 89, 0
10, 24000, Note_on_c, 8, 89, 101
10, 24027, Note_on_c, 8, 89, 0
10, 24060, Note_on_c, 8, 94, 105
10, 24087, Note_on_c, 8, 94, 0
10, 24120, Note_on_c, 8, 96, 116
10, 24147, Note_on_c, 8, 96, 0
10, 24180, Note_on_c, 8, 89, 108
10, 24207, Note_on_c, 8, 89, 0
10, 24720, Control_c, 8, 94, 10
10, 36240, Note_on_c, 8, 78, 110
10, 36270, Note_on_c, 8, 78, 0
10, 36300, Note_on_c, 8, 72, 110
10, 36330, Note_on_c, 8, 72, 0
10, 36360, Note_on_c, 8, 76, 110
10, 36390, Note_on_c, 8, 76, 0
10, 36420, Note_on_c, 8, 71, 110
10, 36450, Note_on_c, 8, 71, 0
10, 36480, Note_on_c, 8, 78, 110
10, 36510, Note_on_c, 8, 78, 0
10, 36540, Note_on_c, 8, 72, 110
10, 36570, Note_on_c, 8, 72, 0
10, 36600, Note_on_c, 8, 74, 110
10, 36630, Note_on_c, 8, 74, 0
10, 36660, Note_on_c, 8, 71, 110
10, 36690, Note_on_c, 8, 71, 0
10, 36720, Note_on_c, 8, 76, 110
10, 36750, Note_on_c, 8, 76, 0
10, 36780, Note_on_c, 8, 72, 110
10, 36810, Note_on_c, 8, 72, 0
10, 36840, Note_on_c, 8, 83, 110
10, 36870, Note_on_c, 8, 83, 0
10, 36900, Note_on_c, 8, 71, 110
10, 36930, Note_on_c, 8, 71, 0
10, 36960, Note_on_c, 8, 78, 110
10, 36990, Note_on_c, 8, 78, 0
10, 37020, Note_on_c, 8, 72, 110
10, 37050, Note_on_c, 8, 72, 0
10, 37080, Note_on_c, 8, 74, 110
10, 37110, Note_on_c, 8, 74, 0
10, 37140, Note_on_c, 8, 71, 110
10, 37170, Note_on_c, 8, 71, 0
10, 37200, Note_on_c, 8, 76, 110
10, 37230, Note_on_c, 8, 76, 0
10, 37260, Note_on_c, 8, 72, 110
10, 37290, Note_on_c, 8, 72, 0
10, 37320, Note_on_c, 8, 78, 110
10, 37350, Note_on_c, 8, 78, 0
10, 37380, Note_on_c, 8, 71, 110
10, 37410, Note_on_c, 8, 71, 0
10, 37440, Note_on_c, 8, 76, 110
10, 37470, Note_on_c, 8, 76, 0
10, 37500, Note_on_c, 8, 72, 110
10, 37530, Note_on_c, 8, 72, 0
10, 37560, Note_on_c, 8, 83, 110
10, 37590, Note_on_c, 8, 83, 0
10, 37620, Note_on_c, 8, 71, 110
10, 37650, Note_on_c, 8, 71, 0
10, 37680, Note_on_c, 8, 78, 110
10, 37710, Note_on_c, 8, 78, 0
10, 37740, Note_on_c, 8, 72, 110
10, 37770, Note_on_c, 8, 72, 0
10, 37800, Note_on_c, 8, 76, 110
10, 37830, Note_on_c, 8, 76, 0
10, 37860, Note_on_c, 8, 71, 110
10, 37890, Note_on_c, 8, 71, 0
10, 37920, Note_on_c, 8, 78, 110
10, 37950, Note_on_c, 8, 78, 0
10, 37980, Note_on_c, 8, 72, 110
10, 38010, Note_on_c, 8, 72, 0
10, 38040, Note_on_c, 8, 74, 110
10, 38070, Note_on_c, 8, 74, 0
10, 38100, Note_on_c, 8, 71, 110
10, 38130, Note_on_c, 8, 71, 0
10, 38160, Note_on_c, 8, 76, 110
10, 38190, Note_on_c, 8, 76, 0
10, 38220, Note_on_c, 8, 72, 110
10, 38250, Note_on_c, 8, 72, 0
10, 38280, Note_on_c, 8, 83, 110
10, 38310, Note_on_c, 8, 83, 0
10, 38340, Note_on_c, 8, 71, 110
10, 38370, Note_on_c, 8, 71, 0
10, 38400, Note_on_c, 8, 78, 110
10, 38430, Note_on_c, 8, 78, 0
10, 38460, Note_on_c, 8, 72, 110
10, 38490, Note_on_c, 8, 72, 0
10, 38520, Note_on_c, 8, 74, 110
10, 38550, Note_on_c, 8, 74, 0
10, 38580, Note_on_c, 8, 71, 110
10, 38610, Note_on_c, 8, 71, 0
10, 38640, Note_on_c, 8, 76, 110
10, 38670, Note_on_c, 8, 76, 0
10, 38700, Note_on_c, 8, 72, 110
10, 38730, Note_on_c, 8, 72, 0
10, 38760, Note_on_c, 8, 78, 110
10, 38790, Note_on_c, 8, 78, 0
10, 38820, Note_on_c, 8, 71, 110
10, 38850, Note_on_c, 8, 71, 0
10, 38880, Note_on_c, 8, 76, 110
10, 38910, Note_on_c, 8, 76, 0
10, 38940, Note_on_c, 8, 72, 110
10, 38970, Note_on_c, 8, 72, 0
10, 39000, Note_on_c, 8, 83, 110
10, 39030, Note_on_c, 8, 83, 0
10, 39060, Note_on_c, 8, 71, 110
10, 39090, Note_on_c, 8, 71, 0
10, 39120, Note_on_c, 8, 78, 110
10, 39150, Note_on_c, 8, 78, 0
10, 39180, Note_on_c, 8, 72, 110
10, 39210, Note_on_c, 8, 72, 0
10, 39240, Note_on_c, 8, 76, 110
10, 39270, Note_on_c, 8, 76, 0
10, 39300, Note_on_c, 8, 71, 110
10, 39330, Note_on_c, 8, 71, 0
10, 39360, Note_on_c, 8, 78, 110
10, 39390, Note_on_c, 8, 78, 0
10, 39420, Note_on_c, 8, 72, 110
10, 39450, Note_on_c, 8, 72, 0
10, 39480, Note_on_c, 8, 74, 110
10, 39510, Note_on_c, 8, 74, 0
10, 39540, Note_on_c, 8, 71, 110
10, 39570, Note_on_c, 8, 71, 0
10, 39600, Note_on_c, 8, 76, 110
10, 39630, Note_on_c, 8, 76, 0
10, 39660, Note_on_c, 8, 72, 110
10, 39690, Note_on_c, 8, 72, 0
10, 39720, Note_on_c, 8, 83, 110
10, 39750, Note_on_c, 8, 83, 0
10, 39780, Note_on_c, 8, 71, 110
10, 39810, Note_on_c, 8, 71, 0
10, 39840, Note_on_c, 8, 78, 110
10, 39870, Note_on_c, 8, 78, 0
10, 39900, Note_on_c, 8, 72, 110
10, 39930, Note_on_c, 8, 72, 0
10, 39960, Note_on_c, 8, 74, 110
10, 39990, Note_on_c, 8, 74, 0
10, 40020, Note_on_c, 8, 71, 110
10, 40050, Note_on_c, 8, 71, 0
10, 40080, Note_on_c, 8, 76, 110
10, 40110, Note_on_c, 8, 76, 0
10, 40140, Note_on_c, 8, 72, 110
10, 40170, Note_on_c, 8, 72, 0
10, 40200, Note_on_c, 8, 78, 110
10, 40230, Note_on_c, 8, 78, 0
10, 40260, Note_on_c, 8, 71, 110
10, 40290, Note_on_c, 8, 71, 0
10, 40320, Note_on_c, 8, 76, 110
10, 40350, Note_on_c, 8, 76, 0
10, 40380, Note_on_c, 8, 72, 110
10, 40410, Note_on_c, 8, 72, 0
10, 40440, Note_on_c, 8, 83, 110
10, 40470, Note_on_c, 8, 83, 0
10, 40500, Note_on_c, 8, 71, 110
10, 40530, Note_on_c, 8, 71, 0
10, 40560, Note_on_c, 8, 78, 110
10, 40590, Note_on_c, 8, 78, 0
10, 40620, Note_on_c, 8, 72, 110
10, 40650, Note_on_c, 8, 72, 0
10, 40680, Note_on_c, 8, 76, 110
10, 40710, Note_on_c, 8, 76, 0
10, 40740, Note_on_c, 8, 71, 110
10, 40770, Note_on_c, 8, 71, 0
10, 40800, Note_on_c, 8, 78, 110
10, 40830, Note_on_c, 8, 78, 0
10, 40860, Note_on_c, 8, 72, 110
10, 40890, Note_on_c, 8, 72, 0
10, 40920, Note_on_c, 8, 74, 110
10, 40950, Note_on_c, 8, 74, 0
10, 40980, Note_on_c, 8, 71, 110
10, 41010, Note_on_c, 8, 71, 0
10, 41040, Note_on_c, 8, 76, 110
10, 41070, Note_on_c, 8, 76, 0
10, 41100, Note_on_c, 8, 72, 110
10, 41130, Note_on_c, 8, 72, 0
10, 41160, Note_on_c, 8, 83, 110
10, 41190, Note_on_c, 8, 83, 0
10, 41220, Note_on_c, 8, 71, 110
10, 41250, Note_on_c, 8, 71, 0
10, 41280, Note_on_c, 8, 78, 110
10, 41310, Note_on_c, 8, 78, 0
10, 41340, Note_on_c, 8, 72, 110
10, 41370, Note_on_c, 8, 72, 0
10, 41400, Note_on_c, 8, 74, 110
10, 41430, Note_on_c, 8, 74, 0
10, 41460, Note_on_c, 8, 71, 110
10, 41490, Note_on_c, 8, 71, 0
10, 41520, Note_on_c, 8, 76, 110
10, 41550, Note_on_c, 8, 76, 0
10, 41580, Note_on_c, 8, 72, 110
10, 41610, Note_on_c, 8, 72, 0
10, 41640, Note_on_c, 8, 78, 110
10, 41670, Note_on_c, 8, 78, 0
10, 41700, Note_on_c, 8, 71, 110
10, 41730, Note_on_c, 8, 71, 0
10, 41760, Note_on_c, 8, 76, 110
10, 41790, Note_on_c, 8, 76, 0
10, 41820, Note_on_c, 8, 72, 110
10, 41850, Note_on_c, 8, 72, 0
10, 41880, Note_on_c, 8, 83, 110
10, 41910, Note_on_c, 8, 83, 0
10, 41940, Note_on_c, 8, 71, 110
10, 41970, Note_on_c, 8, 71, 0
10, 49080, Note_on_c, 8, 81, 97
10, 49100, Note_on_c, 8, 81, 0
10, 49100, Note_on_c, 8, 83, 101
10, 49120, Note_on_c, 8, 83, 0
10, 49120, Note_on_c, 8, 86, 104
10, 49140, Note_on_c, 8, 86, 0
10, 49140, Note_on_c, 8, 88, 108
10, 49160, Note_on_c, 8, 88, 0
10, 49160, Note_on_c, 8, 90, 112
10, 49180, Note_on_c, 8, 90, 0
10, 49180, Note_on_c, 8, 91, 115
10, 49200, Note_on_c, 8, 91, 0
10, 49200, Note_on_c, 8, 93, 119
10, 49220, Note_on_c, 8, 93, 0
10, 49306, Note_on_c, 8, 100, 116
10, 49338, Note_on_c, 8, 98, 116
10, 49339, Note_on_c, 8, 100, 0
10, 49377, Note_on_c, 8, 100, 116
10, 49379, Note_on_c, 8, 98, 0
10, 49411, Note_on_c, 8, 100, 0
10, 49414, Note_on_c, 8, 98, 116
10, 49463, Note_on_c, 8, 98, 0
10, 49920, Note_on_c, 8, 76, 96
10, 49920, Note_on_c, 8, 88, 96
10, 49949, Note_on_c, 8, 88, 0
10, 49949, Note_on_c, 8, 76, 0
10, 49980, Note_on_c, 8, 76, 96
10, 49980, Note_on_c, 8, 88, 96
10, 50009, Note_on_c, 8, 88, 0
10, 50009, Note_on_c, 8, 76, 0
10, 50040, Note_on_c, 8, 76, 97
10, 50040, Note_on_c, 8, 88, 97
10, 50069, Note_on_c, 8, 88, 0
10, 50069, Note_on_c, 8, 76, 0
10, 50100, Note_on_c, 8, 76, 97
10, 50100, Note_on_c, 8, 88, 97
10, 50129, Note_on_c, 8, 88, 0
10, 50129, Note_on_c, 8, 76, 0
10, 50160, Note_on_c, 8, 76, 98
10, 50160, Note_on_c, 8, 88, 98
10, 50189, Note_on_c, 8, 88, 0
10, 50189, Note_on_c, 8, 76, 0
10, 50220, Note_on_c, 8, 76, 98
10, 50220, Note_on_c, 8, 88, 98
10, 50249, Note_on_c, 8, 88, 0
10, 50249, Note_on_c, 8, 76, 0
10, 50280, Note_on_c, 8, 76, 99
10, 50280, Note_on_c, 8, 88, 99
10, 50309, Note_on_c, 8, 88, 0
10, 50309, Note_on_c, 8, 76, 0
10, 50340, Note_on_c, 8, 88, 99
10, 50340, Note_on_c, 8, 76, 99
10, 50369, Note_on_c, 8, 76, 0
10, 50369, Note_on_c, 8, 88, 0
10, 50400, Note_on_c, 8, 76, 100
10, 50400, Note_on_c, 8, 88, 100
10, 50429, Note_on_c, 8, 88, 0
10, 50429, Note_on_c, 8, 76, 0
10, 50460, Note_on_c, 8, 88, 100
10, 50460, Note_on_c, 8, 76, 100
10, 50489, Note_on_c, 8, 76, 0
10, 50489, Note_on_c, 8, 88, 0
10, 50520, Note_on_c, 8, 76, 101
10, 50520, Note_on_c, 8, 88, 101
10, 50549, Note_on_c, 8, 88, 0
10, 50549, Note_on_c, 8, 76, 0
10, 50580, Note_on_c, 8, 76, 102
10, 50580, Note_on_c, 8, 88, 102
10, 50609, Note_on_c, 8, 88, 0
10, 50609, Note_on_c, 8, 76, 0
10, 50640, Note_on_c, 8, 88, 122
10, 50669, Note_on_c, 8, 88, 0
10, 50700, Note_on_c, 8, 88, 122
10, 50729, Note_on_c, 8, 88, 0
10, 50760, Note_on_c, 8, 88, 121
10, 50789, Note_on_c, 8, 88, 0
10, 50820, Note_on_c, 8, 88, 121
10, 50849, Note_on_c, 8, 88, 0
10, 50850, Note_on_c, 8, 88, 121
10, 50879, Note_on_c, 8, 88, 0
10, 50880, Note_on_c, 8, 88, 121
10, 50909, Note_on_c, 8, 88, 0
10, 50910, Note_on_c, 8, 86, 121
10, 50939, Note_on_c, 8, 86, 0
10, 50940, Note_on_c, 8, 81, 121
10, 50969, Note_on_c, 8, 81, 0
10, 50970, Note_on_c, 8, 76, 121
10, 50999, Note_on_c, 8, 76, 0
10, 51000, Note_on_c, 8, 69, 121
10, 51029, Note_on_c, 8, 69, 0
10, 51660, Note_on_c, 8, 86, 120
10, 51714, Note_on_c, 8, 86, 0
10, 51720, Note_on_c, 8, 81, 120
10, 51774, Note_on_c, 8, 81, 0
10, 51780, Note_on_c, 8, 74, 120
10, 51834, Note_on_c, 8, 74, 0
10, 51840, Note_on_c, 8, 69, 120
10, 51894, Note_on_c, 8, 69, 0
10, 51900, Note_on_c, 8, 74, 120
10, 51954, Note_on_c, 8, 74, 0
10, 51960, Note_on_c, 8, 76, 120
10, 52014, Note_on_c, 8, 76, 0
10, 52020, Note_on_c, 8, 79, 120
10, 52074, Note_on_c, 8, 79, 0
10, 52080, Note_on_c, 8, 74, 100
10, 52080, Note_on_c, 8, 77, 120
10, 52134, Note_on_c, 8, 77, 0
10, 52140, Note_on_c, 8, 81, 120
10, 52188, Note_on_c, 8, 74, 0
10, 52194, Note_on_c, 8, 81, 0
10, 52200, Note_on_c, 8, 77, 100
10, 52200, Note_on_c, 8, 72, 100
10, 52200, Note_on_c, 8, 84, 120
10, 52254, Note_on_c, 8, 84, 0
10, 52260, Note_on_c, 8, 88, 120
10, 52308, Note_on_c, 8, 72, 0
10, 52308, Note_on_c, 8, 77, 0
10, 52314, Note_on_c, 8, 88, 0
10, 52320, Note_on_c, 8, 86, 120
10, 52428, Note_on_c, 8, 86, 0
10, 52440, Note_on_c, 8, 81, 120
10, 52548, Note_on_c, 8, 81, 0
10, 52560, Note_on_c, 8, 81, 120
10, 52614, Note_on_c, 8, 81, 0
10, 52620, Note_on_c, 8, 76, 120
10, 52674, Note_on_c, 8, 76, 0
10, 52680, Note_on_c, 8, 79, 120
10, 52680, Note_on_c, 8, 81, 120
10, 52788, Note_on_c, 8, 81, 0
10, 52788, Note_on_c, 8, 79, 0
10, 52800, Note_on_c, 8, 76, 120
10, 52800, Note_on_c, 8, 81, 120
10, 52908, Note_on_c, 8, 81, 0
10, 52908, Note_on_c, 8, 76, 0
10, 52920, Note_on_c, 8, 76, 120
10, 52920, Note_on_c, 8, 81, 120
10, 53028, Note_on_c, 8, 81, 0
10, 53028, Note_on_c, 8, 76, 0
10, 53040, Note_on_c, 8, 81, 120
10, 53040, Note_on_c, 8, 74, 120
10, 53148, Note_on_c, 8, 74, 0
10, 53148, Note_on_c, 8, 81, 0
10, 53160, Note_on_c, 8, 81, 120
10, 53160, Note_on_c, 8, 76, 120
10, 53268, Note_on_c, 8, 76, 0
10, 53268, Note_on_c, 8, 81, 0
10, 53280, Note_on_c, 8, 79, 120
10, 53388, Note_on_c, 8, 79, 0
10, 53400, Note_on_c, 8, 81, 120
10, 53508, Note_on_c, 8, 81, 0
10, 53760, Note_on_c, 8, 76, 120
10, 53760, Note_on_c, 8, 81, 120
10, 53868, Note_on_c, 8, 81, 0
10, 53868, Note_on_c, 8, 76, 0
10, 53880, Note_on_c, 8, 76, 120
10, 53880, Note_on_c, 8, 81, 120
10, 53988, Note_on_c, 8, 81, 0
10, 53988, Note_on_c, 8, 76, 0
10, 54000, Note_on_c, 8, 76, 120
10, 54000, Note_on_c, 8, 81, 120
10, 54108, Note_on_c, 8, 81, 0
10, 54108, Note_on_c, 8, 76, 0
10, 54120, Note_on_c, 8, 79, 110
10, 54120, Note_on_c, 8, 86, 110
10, 54149, Note_on_c, 8, 86, 0
10, 54149, Note_on_c, 8, 79, 0
10, 54300, Note_on_c, 8, 86, 110
10, 54300, Note_on_c, 8, 79, 110
10, 54329, Note_on_c, 8, 79, 0
10, 54329, Note_on_c, 8, 86, 0
10, 54480, Note_on_c, 8, 86, 110
10, 54480, Note_on_c, 8, 79, 110
10, 54509, Note_on_c, 8, 79, 0
10, 54509, Note_on_c, 8, 86, 0
10, 54540, Note_on_c, 8, 77, 110
10, 54569, Note_on_c, 8, 77, 0
10, 54600, Note_on_c, 8, 76, 110
10, 54629, Note_on_c, 8, 76, 0
10, 54660, Note_on_c, 8, 74, 110
10, 54689, Note_on_c, 8, 74, 0
10, 54720, Note_on_c, 8, 76, 110
10, 54749, Note_on_c, 8, 76, 0
10, 54780, Note_on_c, 8, 77, 110
10, 54809, Note_on_c, 8, 77, 0
10, 54840, Note_on_c, 8, 79, 110
10, 54840, Note_on_c, 8, 86, 110
10, 54869, Note_on_c, 8, 86, 0
10, 54869, Note_on_c, 8, 79, 0
10, 55020, Note_on_c, 8, 79, 110
10, 55020, Note_on_c, 8, 86, 110
10, 55049, Note_on_c, 8, 86, 0
10, 55049, Note_on_c, 8, 79, 0
10, 55140, Note_on_c, 8, 86, 110
10, 55140, Note_on_c, 8, 79, 110
10, 55169, Note_on_c, 8, 79, 0
10, 55169, Note_on_c, 8, 86, 0
10, 55200, Note_on_c, 8, 79, 110
10, 55200, Note_on_c, 8, 86, 110
10, 55229, Note_on_c, 8, 86, 0
10, 55229, Note_on_c, 8, 79, 0
10, 55260, Note_on_c, 8, 77, 110
10, 55289, Note_on_c, 8, 77, 0
10, 55320, Note_on_c, 8, 76, 110
10, 55349, Note_on_c, 8, 76, 0
10, 55380, Note_on_c, 8, 74, 110
10, 55409, Note_on_c, 8, 74, 0
10, 55440, Note_on_c, 8, 76, 110
10, 55469, Note_on_c, 8, 76, 0
10, 55500, Note_on_c, 8, 77, 110
10, 55529, Note_on_c, 8, 77, 0
10, 55560, Note_on_c, 8, 86, 110
10, 55560, Note_on_c, 8, 79, 110
10, 55589, Note_on_c, 8, 79, 0
10, 55589, Note_on_c, 8, 86, 0
10, 55740, Note_on_c, 8, 79, 110
10, 55740, Note_on_c, 8, 86, 110
10, 55769, Note_on_c, 8, 86, 0
10, 55769, Note_on_c, 8, 79, 0
10, 55920, Note_on_c, 8, 79, 110
10, 55920, Note_on_c, 8, 86, 110
10, 55949, Note_on_c, 8, 86, 0
10, 55949, Note_on_c, 8, 79, 0
10, 55980, Note_on_c, 8, 77, 110
10, 56009, Note_on_c, 8, 77, 0
10, 56040, Note_on_c, 8, 76, 110
10, 56069, Note_on_c, 8, 76, 0
10, 56100, Note_on_c, 8, 74, 110
10, 56129, Note_on_c, 8, 74, 0
10, 56160, Note_on_c, 8, 76, 110
10, 56189, Note_on_c, 8, 76, 0
10, 56220, Note_on_c, 8, 77, 110
10, 56249, Note_on_c, 8, 77, 0
10, 56280, Note_on_c, 8, 86, 110
10, 56280, Note_on_c, 8, 79, 110
10, 56309, Note_on_c, 8, 79, 0
10, 56309, Note_on_c, 8, 86, 0
10, 56460, Note_on_c, 8, 79, 110
10, 56460, Note_on_c, 8, 86, 110
10, 56489, Note_on_c, 8, 86, 0
10, 56489, Note_on_c, 8, 79, 0
10, 56580, Note_on_c, 8, 79, 110
10, 56580, Note_on_c, 8, 86, 110
10, 56609, Note_on_c, 8, 86, 0
10, 56609, Note_on_c, 8, 79, 0
10, 56640, Note_on_c, 8, 86, 110
10, 56640, Note_on_c, 8, 79, 110
10, 56669, Note_on_c, 8, 79, 0
10, 56669, Note_on_c, 8, 86, 0
10, 56670, Note_on_c, 8, 77, 110
10, 56699, Note_on_c, 8, 77, 0
10, 56700, Note_on_c, 8, 76, 110
10, 56729, Note_on_c, 8, 76, 0
10, 56730, Note_on_c, 8, 74, 110
10, 56759, Note_on_c, 8, 74, 0
10, 56760, Note_on_c, 8, 76, 110
10, 56789, Note_on_c, 8, 76, 0
10, 56790, Note_on_c, 8, 77, 110
10, 56819, Note_on_c, 8, 77, 0
10, 56820, Note_on_c, 8, 79, 110
10, 56849, Note_on_c, 8, 79, 0
10, 56850, Note_on_c, 8, 81, 110
10, 56879, Note_on_c, 8, 81, 0
10, 56880, Note_on_c, 8, 79, 110
10, 56909, Note_on_c, 8, 79, 0
10, 56910, Note_on_c, 8, 81, 110
10, 56939, Note_on_c, 8, 81, 0
10, 56940, Note_on_c, 8, 82, 110
10, 56969, Note_on_c, 8, 82, 0
10, 56970, Note_on_c, 8, 84, 110
10, 56999, Note_on_c, 8, 84, 0
10, 57000, Note_on_c, 8, 79, 110
10, 57000, Note_on_c, 8, 86, 110
10, 57029, Note_on_c, 8, 86, 0
10, 57029, Note_on_c, 8, 79, 0
10, 57180, Note_on_c, 8, 86, 110
10, 57180, Note_on_c, 8, 79, 110
10, 57209, Note_on_c, 8, 79, 0
10, 57209, Note_on_c, 8, 86, 0
10, 57360, Note_on_c, 8, 86, 110
10, 57360, Note_on_c, 8, 79, 110
10, 57389, Note_on_c, 8, 79, 0
10, 57389, Note_on_c, 8, 86, 0
10, 57420, Note_on_c, 8, 77, 110
10, 57449, Note_on_c, 8, 77, 0
10, 57480, Note_on_c, 8, 76, 110
10, 57509, Note_on_c, 8, 76, 0
10, 57540, Note_on_c, 8, 74, 110
10, 57569, Note_on_c, 8, 74, 0
10, 57600, Note_on_c, 8, 76, 110
10, 57629, Note_on_c, 8, 76, 0
10, 57660, Note_on_c, 8, 77, 110
10, 57689, Note_on_c, 8, 77, 0
10, 57720, Note_on_c, 8, 79, 110
10, 57720, Note_on_c, 8, 86, 110
10, 57749, Note_on_c, 8, 86, 0
10, 57749, Note_on_c, 8, 79, 0
10, 57900, Note_on_c, 8, 79, 110
10, 57900, Note_on_c, 8, 86, 110
10, 57929, Note_on_c, 8, 86, 0
10, 57929, Note_on_c, 8, 79, 0
10, 58020, Note_on_c, 8, 86, 110
10, 58020, Note_on_c, 8, 79, 110
10, 58049, Note_on_c, 8, 79, 0
10, 58049, Note_on_c, 8, 86, 0
10, 58080, Note_on_c, 8, 79, 110
10, 58080, Note_on_c, 8, 86, 110
10, 58109, Note_on_c, 8, 86, 0
10, 58109, Note_on_c, 8, 79, 0
10, 58140, Note_on_c, 8, 77, 110
10, 58169, Note_on_c, 8, 77, 0
10, 58200, Note_on_c, 8, 76, 110
10, 58229, Note_on_c, 8, 76, 0
10, 58260, Note_on_c, 8, 74, 110
10, 58289, Note_on_c, 8, 74, 0
10, 58320, Note_on_c, 8, 76, 110
10, 58349, Note_on_c, 8, 76, 0
10, 58380, Note_on_c, 8, 79, 110
10, 58409, Note_on_c, 8, 79, 0
10, 58410, Note_on_c, 8, 81, 110
10, 58439, Note_on_c, 8, 81, 0
10, 58440, Note_on_c, 8, 86, 110
10, 58440, Note_on_c, 8, 79, 110
10, 58469, Note_on_c, 8, 79, 0
10, 58469, Note_on_c, 8, 86, 0
10, 58620, Note_on_c, 8, 79, 110
10, 58620, Note_on_c, 8, 86, 110
10, 58649, Note_on_c, 8, 86, 0
10, 58649, Note_on_c, 8, 79, 0
10, 58800, Note_on_c, 8, 79, 110
10, 58800, Note_on_c, 8, 86, 110
10, 58829, Note_on_c, 8, 86, 0
10, 58829, Note_on_c, 8, 79, 0
10, 58860, Note_on_c, 8, 77, 110
10, 58889, Note_on_c, 8, 77, 0
10, 58920, Note_on_c, 8, 76, 110
10, 58949, Note_on_c, 8, 76, 0
10, 58980, Note_on_c, 8, 74, 110
10, 59009, Note_on_c, 8, 74, 0
10, 59040, Note_on_c, 8, 76, 110
10, 59069, Note_on_c, 8, 76, 0
10, 59100, Note_on_c, 8, 77, 110
10, 59129, Note_on_c, 8, 77, 0
10, 59160, Note_on_c, 8, 86, 110
10, 59160, Note_on_c, 8, 79, 110
10, 59189, Note_on_c, 8, 79, 0
10, 59189, Note_on_c, 8, 86, 0
10, 59340, Note_on_c, 8, 79, 110
10, 59340, Note_on_c, 8, 86, 110
10, 59369, Note_on_c, 8, 86, 0
10, 59369, Note_on_c, 8, 79, 0
10, 59460, Note_on_c, 8, 79, 110
10, 59460, Note_on_c, 8, 86, 110
10, 59489, Note_on_c, 8, 86, 0
10, 59489, Note_on_c, 8, 79, 0
10, 59520, Note_on_c, 8, 86, 110
10, 59520, Note_on_c, 8, 79, 110
10, 59549, Note_on_c, 8, 79, 0
10, 59549, Note_on_c, 8, 86, 0
10, 59580, Note_on_c, 8, 77, 110
10, 59609, Note_on_c, 8, 77, 0
10, 59640, Note_on_c, 8, 76, 110
10, 59669, Note_on_c, 8, 76, 0
10, 59700, Note_on_c, 8, 74, 110
10, 59729, Note_on_c, 8, 74, 0
10, 59760, Note_on_c, 8, 76, 110
10, 59789, Note_on_c, 8, 76, 0
10, 59820, Note_on_c, 8, 79, 110
10, 59849, Note_on_c, 8, 79, 0
10, 59850, Note_on_c, 8, 81, 110
10, 59879, Note_on_c, 8, 81, 0
10, 62760, Note_on_c, 8, 77, 120
10, 62835, Note_on_c, 8, 77, 0
10, 62844, Note_on_c, 8, 79, 120
10, 62856, Note_on_c, 8, 81, 120
10, 62858, Note_on_c, 8, 79, 0
10, 62864, Note_on_c, 8, 83, 120
10, 62867, Note_on_c, 8, 81, 0
10, 62880, Note_on_c, 8, 84, 120
10, 62882, Note_on_c, 8, 83, 0
10, 62910, Note_on_c, 8, 84, 0
10, 63480, Note_on_c, 8, 94, 120
10, 63507, Note_on_c, 8, 94, 0
10, 63540, Note_on_c, 8, 94, 120
10, 63567, Note_on_c, 8, 94, 0
10, 63600, Note_on_c, 8, 94, 120
10, 63627, Note_on_c, 8, 94, 0
10, 63660, Note_on_c, 8, 94, 120
10, 63687, Note_on_c, 8, 94, 0
10, 63720, Note_on_c, 8, 94, 120
10, 63747, Note_on_c, 8, 94, 0
10, 63780, Note_on_c, 8, 94, 120
10, 63807, Note_on_c, 8, 94, 0
10, 63840, Note_on_c, 8, 94, 120
10, 63867, Note_on_c, 8, 94, 0
10, 63870, Note_on_c, 8, 92, 120
10, 63897, Note_on_c, 8, 92, 0
10, 63900, Note_on_c, 8, 91, 120
10, 63927, Note_on_c, 8, 91, 0
10, 63930, Note_on_c, 8, 89, 120
10, 63957, Note_on_c, 8, 89, 0
10, 63960, Note_on_c, 8, 87, 120
10, 63987, Note_on_c, 8, 87, 0
10, 63990, Note_on_c, 8, 86, 120
10, 64017, Note_on_c, 8, 86, 0
10, 64020, Note_on_c, 8, 84, 120
10, 64047, Note_on_c, 8, 84, 0
10, 64050, Note_on_c, 8, 82, 120
10, 64077, Note_on_c, 8, 82, 0
10, 64080, Note_on_c, 8, 80, 120
10, 64107, Note_on_c, 8, 80, 0
10, 64110, Note_on_c, 8, 79, 120
10, 64137, Note_on_c, 8, 79, 0
10, 64140, Note_on_c, 8, 77, 120
10, 64167, Note_on_c, 8, 77, 0
10, 64170, Note_on_c, 8, 75, 120
10, 64197, Note_on_c, 8, 75, 0
10, 64200, Note_on_c, 8, 77, 120
10, 64227, Note_on_c, 8, 77, 0
10, 64260, Note_on_c, 8, 89, 120
10, 64287, Note_on_c, 8, 89, 0
10, 64320, Note_on_c, 8, 89, 120
10, 64347, Note_on_c, 8, 89, 0
10, 64380, Note_on_c, 8, 89, 120
10, 64407, Note_on_c, 8, 89, 0
10, 64440, Note_on_c, 8, 89, 120
10, 64467, Note_on_c, 8, 89, 0
10, 64500, Note_on_c, 8, 89, 120
10, 64527, Note_on_c, 8, 89, 0
10, 64560, Note_on_c, 8, 89, 120
10, 64587, Note_on_c, 8, 89, 0
10, 64620, Note_on_c, 8, 94, 120
10, 64647, Note_on_c, 8, 94, 0
10, 64680, Note_on_c, 8, 96, 120
10, 64707, Note_on_c, 8, 96, 0
10, 64740, Note_on_c, 8, 89, 120
10, 64767, Note_on_c, 8, 89, 0
10, 64920, Note_on_c, 8, 89, 101
10, 64947, Note_on_c, 8, 89, 0
10, 64980, Note_on_c, 8, 94, 105
10, 65007, Note_on_c, 8, 94, 0
10, 65040, Note_on_c, 8, 96, 116
10, 65067, Note_on_c, 8, 96, 0
10, 65100, Note_on_c, 8, 89, 108
10, 65127, Note_on_c, 8, 89, 0
10, 65640, Control_c, 8, 94, 10
10, 77160, Note_on_c, 8, 78, 110
10, 77190, Note_on_c, 8, 78, 0
10, 77220, Note_on_c, 8, 72, 110
10, 77250, Note_on_c, 8, 72, 0
10, 77280, Note_on_c, 8, 76, 110
10, 77310, Note_on_c, 8, 76, 0
10, 77340, Note_on_c, 8, 71, 110
10, 77370, Note_on_c, 8, 71, 0
10, 77400, Note_on_c, 8, 78, 110
10, 77430, Note_on_c, 8, 78, 0
10, 77460, Note_on_c, 8, 72, 110
10, 77490, Note_on_c, 8, 72, 0
10, 77520, Note_on_c, 8, 74, 110
10, 77550, Note_on_c, 8, 74, 0
10, 77580, Note_on_c, 8, 71, 110
10, 77610, Note_on_c, 8, 71, 0
10, 77640, Note_on_c, 8, 76, 110
10, 77670, Note_on_c, 8, 76, 0
10, 77700, Note_on_c, 8, 72, 110
10, 77730, Note_on_c, 8, 72, 0
10, 77760, Note_on_c, 8, 83, 110
10, 77790, Note_on_c, 8, 83, 0
10, 77820, Note_on_c, 8, 71, 110
10, 77850, Note_on_c, 8, 71, 0
10, 77880, Note_on_c, 8, 78, 110
10, 77910, Note_on_c, 8, 78, 0
10, 77940, Note_on_c, 8, 72, 110
10, 77970, Note_on_c, 8, 72, 0
10, 78000, Note_on_c, 8, 74, 110
10, 78030, Note_on_c, 8, 74, 0
10, 78060, Note_on_c, 8, 71, 110
10, 78090, Note_on_c, 8, 71, 0
10, 78120, Note_on_c, 8, 76, 110
10, 78150, Note_on_c, 8, 76, 0
10, 78180, Note_on_c, 8, 72, 110
10, 78210, Note_on_c, 8, 72, 0
10, 78240, Note_on_c, 8, 78, 110
10, 78270, Note_on_c, 8, 78, 0
10, 78300, Note_on_c, 8, 71, 110
10, 78330, Note_on_c, 8, 71, 0
10, 78360, Note_on_c, 8, 76, 110
10, 78390, Note_on_c, 8, 76, 0
10, 78420, Note_on_c, 8, 72, 110
10, 78450, Note_on_c, 8, 72, 0
10, 78480, Note_on_c, 8, 83, 110
10, 78510, Note_on_c, 8, 83, 0
10, 78540, Note_on_c, 8, 71, 110
10, 78570, Note_on_c, 8, 71, 0
10, 78600, Note_on_c, 8, 78, 110
10, 78630, Note_on_c, 8, 78, 0
10, 78660, Note_on_c, 8, 72, 110
10, 78690, Note_on_c, 8, 72, 0
10, 78720, Note_on_c, 8, 76, 110
10, 78750, Note_on_c, 8, 76, 0
10, 78780, Note_on_c, 8, 71, 110
10, 78810, Note_on_c, 8, 71, 0
10, 78840, Note_on_c, 8, 78, 110
10, 78870, Note_on_c, 8, 78, 0
10, 78900, Note_on_c, 8, 72, 110
10, 78930, Note_on_c, 8, 72, 0
10, 78960, Note_on_c, 8, 74, 110
10, 78990, Note_on_c, 8, 74, 0
10, 79020, Note_on_c, 8, 71, 110
10, 79050, Note_on_c, 8, 71, 0
10, 79080, Note_on_c, 8, 76, 110
10, 79110, Note_on_c, 8, 76, 0
10, 79140, Note_on_c, 8, 72, 110
10, 79170, Note_on_c, 8, 72, 0
10, 79200, Note_on_c, 8, 83, 110
10, 79230, Note_on_c, 8, 83, 0
10, 79260, Note_on_c, 8, 71, 110
10, 79290, Note_on_c, 8, 71, 0
10, 79320, Note_on_c, 8, 78, 110
10, 79350, Note_on_c, 8, 78, 0
10, 79380, Note_on_c, 8, 72, 110
10, 79410, Note_on_c, 8, 72, 0
10, 79440, Note_on_c, 8, 74, 110
10, 79470, Note_on_c, 8, 74, 0
10, 79500, Note_on_c, 8, 71, 110
10, 79530, Note_on_c, 8, 71, 0
10, 79560, Note_on_c, 8, 76, 110
10, 79590, Note_on_c, 8, 76, 0
10, 79620, Note_on_c, 8, 72, 110
10, 79650, Note_on_c, 8, 72, 0
10, 79680, Note_on_c, 8, 78, 110
10, 79710, Note_on_c, 8, 78, 0
10, 79740, Note_on_c, 8, 71, 110
10, 79770, Note_on_c, 8, 71, 0
10, 79800, Note_on_c, 8, 76, 110
10, 79830, Note_on_c, 8, 76, 0
10, 79860, Note_on_c, 8, 72, 110
10, 79890, Note_on_c, 8, 72, 0
10, 79920, Note_on_c, 8, 83, 110
10, 79950, Note_on_c, 8, 83, 0
10, 79980, Note_on_c, 8, 71, 110
10, 80010, Note_on_c, 8, 71, 0
10, 80040, Note_on_c, 8, 78, 110
10, 80070, Note_on_c, 8, 78, 0
10, 80100, Note_on_c, 8, 72, 110
10, 80130, Note_on_c, 8, 72, 0
10, 80160, Note_on_c, 8, 76, 110
10, 80190, Note_on_c, 8, 76, 0
10, 80220, Note_on_c, 8, 71, 110
10, 80250, Note_on_c, 8, 71, 0
10, 80280, Note_on_c, 8, 78, 110
10, 80310, Note_on_c, 8, 78, 0
10, 80340, Note_on_c, 8, 72, 110
10, 80370, Note_on_c, 8, 72, 0
10, 80400, Note_on_c, 8, 74, 110
10, 80430, Note_on_c, 8, 74, 0
10, 80460, Note_on_c, 8, 71, 110
10, 80490, Note_on_c, 8, 71, 0
10, 80520, Note_on_c, 8, 76, 110
10, 80550, Note_on_c, 8, 76, 0
10, 80580, Note_on_c, 8, 72, 110
10, 80610, Note_on_c, 8, 72, 0
10, 80640, Note_on_c, 8, 83, 110
10, 80670, Note_on_c, 8, 83, 0
10, 80700, Note_on_c, 8, 71, 110
10, 80730, Note_on_c, 8, 71, 0
10, 80760, Note_on_c, 8, 78, 110
10, 80790, Note_on_c, 8, 78, 0
10, 80820, Note_on_c, 8, 72, 110
10, 80850, Note_on_c, 8, 72, 0
10, 80880, Note_on_c, 8, 74, 110
10, 80910, Note_on_c, 8, 74, 0
10, 80940, Note_on_c, 8, 71, 110
10, 80970, Note_on_c, 8, 71, 0
10, 81000, Note_on_c, 8, 76, 110
10, 81030, Note_on_c, 8, 76, 0
10, 81060, Note_on_c, 8, 72, 110
10, 81090, Note_on_c, 8, 72, 0
10, 81120, Note_on_c, 8, 78, 110
10, 81150, Note_on_c, 8, 78, 0
10, 81180, Note_on_c, 8, 71, 110
10, 81210, Note_on_c, 8, 71, 0
10, 81240, Note_on_c, 8, 76, 110
10, 81270, Note_on_c, 8, 76, 0
10, 81300, Note_on_c, 8, 72, 110
10, 81330, Note_on_c, 8, 72, 0
10, 81360, Note_on_c, 8, 83, 110
10, 81390, Note_on_c, 8, 83, 0
10, 81420, Note_on_c, 8, 71, 110
10, 81450, Note_on_c, 8, 71, 0
10, 81480, Note_on_c, 8, 78, 110
10, 81510, Note_on_c, 8, 78, 0
10, 81540, Note_on_c, 8, 72, 110
10, 81570, Note_on_c, 8, 72, 0
10, 81600, Note_on_c, 8, 76, 110
10, 81630, Note_on_c, 8, 76, 0
10, 81660, Note_on_c, 8, 71, 110
10, 81690, Note_on_c, 8, 71, 0
10, 81720, Note_on_c, 8, 78, 110
10, 81750, Note_on_c, 8, 78, 0
10, 81780, Note_on_c, 8, 72, 110
10, 81810, Note_on_c, 8, 72, 0
10, 81840, Note_on_c, 8, 74, 110
10, 81870, Note_on_c, 8, 74, 0
10, 81900, Note_on_c, 8, 71, 110
10, 81930, Note_on_c, 8, 71, 0
10, 81960, Note_on_c, 8, 76, 110
10, 81990, Note_on_c, 8, 76, 0
10, 82020, Note_on_c, 8, 72, 110
10, 82050, Note_on_c, 8, 72, 0
10, 82080, Note_on_c, 8, 83, 110
10, 82110, Note_on_c, 8, 83, 0
10, 82140, Note_on_c, 8, 71, 110
10, 82170, Note_on_c, 8, 71, 0
10, 82200, Note_on_c, 8, 78, 110
10, 82230, Note_on_c, 8, 78, 0
10, 82260, Note_on_c, 8, 72, 110
10, 82290, Note_on_c, 8, 72, 0
10, 82320, Note_on_c, 8, 74, 110
10, 82350, Note_on_c, 8, 74, 0
10, 82380, Note_on_c, 8, 71, 110
10, 82410, Note_on_c, 8, 71, 0
10, 82440, Note_on_c, 8, 76, 110
10, 82470, Note_on_c, 8, 76, 0
10, 82500, Note_on_c, 8, 72, 110
10, 82530, Note_on_c, 8, 72, 0
10, 82560, Note_on_c, 8, 78, 110
10, 82590, Note_on_c, 8, 78, 0
10, 82620, Note_on_c, 8, 71, 110
10, 82650, Note_on_c, 8, 71, 0
10, 82680, Note_on_c, 8, 76, 110
10, 82710, Note_on_c, 8, 76, 0
10, 82740, Note_on_c, 8, 72, 110
10, 82770, Note_on_c, 8, 72, 0
10, 82800, Note_on_c, 8, 83, 110
10, 82830, Note_on_c, 8, 83, 0
10, 82860, Note_on_c, 8, 71, 110
10, 82890, Note_on_c, 8, 71, 0
10, 88680, Control_c, 8, 11, 126
10, 88710, Control_c, 8, 11, 125
10, 88730, Control_c, 8, 11, 124
10, 88750, Control_c, 8, 11, 123
10, 88780, Control_c, 8, 11, 122
10, 88800, Control_c, 8, 11, 121
10, 88820, Control_c, 8, 11, 120
10, 88840, Control_c, 8, 11, 119
10, 88870, Control_c, 8, 11, 118
10, 88890, Control_c, 8, 11, 117
10, 88910, Control_c, 8, 11, 116
10, 88940, Control_c, 8, 11, 115
10, 88960, Control_c, 8, 11, 114
10, 88980, Control_c, 8, 11, 113
10, 89000, Control_c, 8, 11, 112
10, 89030, Control_c, 8, 11, 111
10, 89050, Control_c, 8, 11, 110
10, 89070, Control_c, 8, 11, 109
10, 89100, Control_c, 8, 11, 108
10, 89120, Control_c, 8, 11, 107
10, 89140, Control_c, 8, 11, 106
10, 89160, Control_c, 8, 11, 105
10, 89190, Control_c, 8, 11, 104
10, 89210, Control_c, 8, 11, 103
10, 89230, Control_c, 8, 11, 102
10, 89260, Control_c, 8, 11, 101
10, 89280, Control_c, 8, 11, 100
10, 89300, Control_c, 8, 11, 99
10, 89320, Control_c, 8, 11, 98
10, 89350, Control_c, 8, 11, 97
10, 89370, Control_c, 8, 11, 96
10, 89390, Control_c, 8, 11, 95
10, 89420, Control_c, 8, 11, 94
10, 89440, Control_c, 8, 11, 93
10, 89460, Control_c, 8, 11, 92
10, 89480, Control_c, 8, 11, 91
10, 89510, Control_c, 8, 11, 90
10, 89530, Control_c, 8, 11, 89
10, 89550, Control_c, 8, 11, 88
10, 89580, Control_c, 8, 11, 87
10, 89600, Control_c, 8, 11, 86
10, 89620, Control_c, 8, 11, 85
10, 89640, Control_c, 8, 11, 84
10, 89670, Control_c, 8, 11, 83
10, 89690, Control_c, 8, 11, 82
10, 89710, Control_c, 8, 11, 81
10, 89740, Control_c, 8, 11, 80
10, 89760, Control_c, 8, 11, 79
10, 89780, Control_c, 8, 11, 78
10, 89800, Control_c, 8, 11, 77
10, 89830, Control_c, 8, 11, 76
10, 89850, Control_c, 8, 11, 75
10, 89870, Control_c, 8, 11, 74
10, 89900, Control_c, 8, 11, 73
10, 89920, Control_c, 8, 11, 72
10, 89940, Control_c, 8, 11, 71
10, 89960, Control_c, 8, 11, 70
10, 89990, Control_c, 8, 11, 69
10, 90000, Note_on_c, 8, 81, 97
10, 90010, Control_c, 8, 11, 68
10, 90020, Note_on_c, 8, 81, 0
10, 90020, Note_on_c, 8, 83, 101
10, 90030, Control_c, 8, 11, 67
10, 90040, Note_on_c, 8, 83, 0
10, 90040, Note_on_c, 8, 86, 104
10, 90060, Note_on_c, 8, 86, 0
10, 90060, Control_c, 8, 11, 66
10, 90060, Note_on_c, 8, 88, 108
10, 90080, Note_on_c, 8, 88, 0
10, 90080, Control_c, 8, 11, 65
10, 90080, Note_on_c, 8, 90, 112
10, 90100, Note_on_c, 8, 90, 0
10, 90100, Control_c, 8, 11, 64
10, 90100, Note_on_c, 8, 91, 115
10, 90120, Note_on_c, 8, 91, 0
10, 90120, Control_c, 8, 11, 63
10, 90120, Note_on_c, 8, 93, 119
10, 90140, Note_on_c, 8, 93, 0
10, 90150, Control_c, 8, 11, 62
10, 90170, Control_c, 8, 11, 61
10, 90190, Control_c, 8, 11, 60
10, 90220, Control_c, 8, 11, 59
10, 90226, Note_on_c, 8, 100, 116
10, 90240, Control_c, 8, 11, 58
10, 90258, Note_on_c, 8, 98, 116
10, 90259, Note_on_c, 8, 100, 0
10, 90260, Control_c, 8, 11, 57
10, 90280, Control_c, 8, 11, 56
10, 90297, Note_on_c, 8, 100, 116
10, 90299, Note_on_c, 8, 98, 0
10, 90310, Control_c, 8, 11, 55
10, 90330, Control_c, 8, 11, 54
10, 90331, Note_on_c, 8, 100, 0
10, 90334, Note_on_c, 8, 98, 116
10, 90350, Control_c, 8, 11, 53
10, 90380, Control_c, 8, 11, 52
10, 90383, Note_on_c, 8, 98, 0
10, 90400, Control_c, 8, 11, 51
10, 90420, Control_c, 8, 11, 50
10, 90440, Control_c, 8, 11, 49
10, 90470, Control_c, 8, 11, 48
10, 90490, Control_c, 8, 11, 47
10, 90510, Control_c, 8, 11, 46
10, 90540, Control_c, 8, 11, 45
10, 90560, Control_c, 8, 11, 44
10, 90580, Control_c, 8, 11, 43
10, 90600, Control_c, 8, 11, 42
10, 90630, Control_c, 8, 11, 41
10, 90650, Control_c, 8, 11, 40
10, 90670, Control_c, 8, 11, 39
10, 90700, Control_c, 8, 11, 38
10, 90720, Control_c, 8, 11, 37
10, 90740, Control_c, 8, 11, 36
10, 90760, Control_c, 8, 11, 35
10, 90790, Control_c, 8, 11, 34
10, 90810, Control_c, 8, 11, 33
10, 90830, Control_c, 8, 11, 32
10, 90840, Note_on_c, 8, 76, 96
10, 90840, Note_on_c, 8, 88, 96
10, 90860, Control_c, 8, 11, 31
10, 90869, Note_on_c, 8, 88, 0
10, 90869, Note_on_c, 8, 76, 0
10, 90880, Control_c, 8, 11, 30
10, 90900, Control_c, 8, 11, 29
10, 90900, Note_on_c, 8, 76, 96
10, 90900, Note_on_c, 8, 88, 96
10, 90920, Control_c, 8, 11, 28
10, 90929, Note_on_c, 8, 88, 0
10, 90929, Note_on_c, 8, 76, 0
10, 90950, Control_c, 8, 11, 27
10, 90960, Note_on_c, 8, 76, 97
10, 90960, Note_on_c, 8, 88, 97
10, 90970, Control_c, 8, 11, 26
10, 90989, Note_on_c, 8, 88, 0
10, 90989, Note_on_c, 8, 76, 0
10, 90990, Control_c, 8, 11, 25
10, 91020, Control_c, 8, 11, 24
10, 91020, Note_on_c, 8, 76, 97
10, 91020, Note_on_c, 8, 88, 97
10, 91040, Control_c, 8, 11, 23
10, 91049, Note_on_c, 8, 88, 0
10, 91049, Note_on_c, 8, 76, 0
10, 91060, Control_c, 8, 11, 22
10, 91080, Control_c, 8, 11, 21
10, 91080, Note_on_c, 8, 76, 98
10, 91080, Note_on_c, 8, 88, 98
10, 91109, Note_on_c, 8, 88, 0
10, 91109, Note_on_c, 8, 76, 0
10, 91110, Control_c, 8, 11, 20
10, 91130, Control_c, 8, 11, 19
10, 91140, Note_on_c, 8, 76, 98
10, 91140, Note_on_c, 8, 88, 98
10, 91150, Control_c, 8, 11, 18
10, 91169, Note_on_c, 8, 88, 0
10, 91169, Note_on_c, 8, 76, 0
10, 91180, Control_c, 8, 11, 17
10, 91200, Control_c, 8, 11, 16
10, 91200, Note_on_c, 8, 76, 99
10, 91200, Note_on_c, 8, 88, 99
10, 91220, Control_c, 8, 11, 15
10, 91229, Note_on_c, 8, 88, 0
10, 91229, Note_on_c, 8, 76, 0
10, 91240, Control_c, 8, 11, 14
10, 91260, Note_on_c, 8, 88, 99
10, 91260, Note_on_c, 8, 76, 99
10, 91270, Control_c, 8, 11, 13
10, 91289, Note_on_c, 8, 76, 0
10, 91289, Note_on_c, 8, 88, 0
10, 91290, Control_c, 8, 11, 12
10, 91310, Control_c, 8, 11, 11
10, 91320, Note_on_c, 8, 76, 100
10, 91320, Note_on_c, 8, 88, 100
10, 91340, Control_c, 8, 11, 10
10, 91349, Note_on_c, 8, 88, 0
10, 91349, Note_on_c, 8, 76, 0
10, 91360, Control_c, 8, 11, 9
10, 91380, Control_c, 8, 11, 8
10, 91380, Note_on_c, 8, 88, 100
10, 91380, Note_on_c, 8, 76, 100
10, 91400, Control_c, 8, 11, 7
10, 91409, Note_on_c, 8, 76, 0
10, 91409, Note_on_c, 8, 88, 0
10, 91430, Control_c, 8, 11, 6
10, 91440, Note_on_c, 8, 76, 101
10, 91440, Note_on_c, 8, 88, 101
10, 91450, Control_c, 8, 11, 5
10, 91469, Note_on_c, 8, 88, 0
10, 91469, Note_on_c, 8, 76, 0
10, 91470, Control_c, 8, 11, 4
10, 91500, Control_c, 8, 11, 3
10, 91500, Note_on_c, 8, 76, 102
10, 91500, Note_on_c, 8, 88, 102
10, 91520, Control_c, 8, 11, 2
10, 91529, Note_on_c, 8, 88, 0
10, 91529, Note_on_c, 8, 76, 0
10, 91540, Control_c, 8, 11, 1
10, 91560, Control_c, 8, 11, 0
10, 91920, Control_c, 8, 11, 0
10, 91920, End_track
11, 0, Start_track
11, 0, Title_t, "A10-POWER       "
11, 0, Control_c, 9, 0, 0
11, 0, Control_c, 9, 32, 3
11, 0, Program_c, 9, 16
11, 0, Control_c, 9, 7, 110
11, 0, Control_c, 9, 10, 64
11, 187, Control_c, 9, 91, 80
11, 188, Control_c, 9, 93, 20
11, 720, Control_c, 9, 99, 26
11, 720, Control_c, 9, 98, 54
11, 720, Control_c, 9, 6, 100
11, 720, Control_c, 9, 38, 127
11, 1080, Note_on_c, 9, 42, 90
11, 1095, Note_on_c, 9, 42, 0
11, 1140, Note_on_c, 9, 42, 69
11, 1155, Note_on_c, 9, 42, 0
11, 1200, Note_on_c, 9, 42, 76
11, 1215, Note_on_c, 9, 42, 0
11, 1260, Note_on_c, 9, 42, 61
11, 1275, Note_on_c, 9, 42, 0
11, 1320, Note_on_c, 9, 42, 100
11, 1335, Note_on_c, 9, 42, 0
11, 1380, Note_on_c, 9, 42, 69
11, 1395, Note_on_c, 9, 42, 0
11, 1440, Note_on_c, 9, 42, 100
11, 1455, Note_on_c, 9, 42, 0
11, 1500, Note_on_c, 9, 42, 67
11, 1515, Note_on_c, 9, 42, 0
11, 1540, Control_c, 9, 99, 28
11, 1540, Control_c, 9, 98, 54
11, 1540, Control_c, 9, 6, 94
11, 1540, Control_c, 9, 38, 127
11, 1560, Note_on_c, 9, 42, 100
11, 1575, Note_on_c, 9, 42, 0
11, 1620, Note_on_c, 9, 42, 67
11, 1635, Note_on_c, 9, 42, 0
11, 1680, Note_on_c, 9, 42, 100
11, 1695, Note_on_c, 9, 42, 0
11, 1740, Note_on_c, 9, 42, 67
11, 1755, Note_on_c, 9, 42, 0
11, 1800, Note_on_c, 9, 42, 100
11, 1815, Note_on_c, 9, 42, 0
11, 1860, Note_on_c, 9, 42, 67
11, 1875, Note_on_c, 9, 42, 0
11, 1920, Note_on_c, 9, 42, 100
11, 1935, Note_on_c, 9, 42, 0
11, 1980, Note_on_c, 9, 42, 67
11, 1995, Note_on_c, 9, 42, 0
11, 2040, Note_on_c, 9, 42, 100
11, 2055, Note_on_c, 9, 42, 0
11, 2100, Note_on_c, 9, 42, 67
11, 2115, Note_on_c, 9, 42, 0
11, 2160, Note_on_c, 9, 42, 100
11, 2175, Note_on_c, 9, 42, 0
11, 2220, Note_on_c, 9, 42, 67
11, 2235, Note_on_c, 9, 42, 0
11, 2280, Note_on_c, 9, 42, 100
11, 2295, Note_on_c, 9, 42, 0
11, 2340, Note_on_c, 9, 42, 100
11, 2355, Note_on_c, 9, 42, 0
11, 2400, Note_on_c, 9, 42, 100
11, 2415, Note_on_c, 9, 42, 0
11, 2460, Note_on_c, 9, 42, 100
11, 2475, Note_on_c, 9, 42, 0
11, 2490, Note_on_c, 9, 46, 100
11, 2505, Note_on_c, 9, 46, 0
11, 2520, Note_on_c, 9, 42, 100
11, 2535, Note_on_c, 9, 42, 0
11, 2580, Note_on_c, 9, 42, 69
11, 2595, Note_on_c, 9, 42, 0
11, 2640, Note_on_c, 9, 42, 100
11, 2655, Note_on_c, 9, 42, 0
11, 2700, Note_on_c, 9, 42, 67
11, 2715, Note_on_c, 9, 42, 0
11, 2760, Note_on_c, 9, 42, 100
11, 2775, Note_on_c, 9, 42, 0
11, 2820, Note_on_c, 9, 42, 67
11, 2835, Note_on_c, 9, 42, 0
11, 2880, Note_on_c, 9, 42, 100
11, 2895, Note_on_c, 9, 42, 0
11, 2940, Note_on_c, 9, 42, 67
11, 2955, Note_on_c, 9, 42, 0
11, 3000, Note_on_c, 9, 42, 100
11, 3015, Note_on_c, 9, 42, 0
11, 3060, Note_on_c, 9, 42, 67
11, 3075, Note_on_c, 9, 42, 0
11, 3120, Note_on_c, 9, 42, 100
11, 3135, Note_on_c, 9, 42, 0
11, 3180, Note_on_c, 9, 42, 67
11, 3195, Note_on_c, 9, 42, 0
11, 3240, Note_on_c, 9, 42, 100
11, 3255, Note_on_c, 9, 42, 0
11, 3300, Note_on_c, 9, 42, 100
11, 3315, Note_on_c, 9, 42, 0
11, 3360, Note_on_c, 9, 46, 100
11, 3375, Note_on_c, 9, 46, 0
11, 3480, Note_on_c, 9, 42, 100
11, 3495, Note_on_c, 9, 42, 0
11, 3540, Note_on_c, 9, 42, 100
11, 3555, Note_on_c, 9, 42, 0
11, 3600, Note_on_c, 9, 42, 100
11, 3615, Note_on_c, 9, 42, 0
11, 3660, Note_on_c, 9, 46, 100
11, 3675, Note_on_c, 9, 46, 0
11, 3780, Note_on_c, 9, 42, 100
11, 3795, Note_on_c, 9, 42, 0
11, 3840, Note_on_c, 9, 46, 100
11, 3855, Note_on_c, 9, 46, 0
11, 3900, Note_on_c, 9, 42, 100
11, 3915, Note_on_c, 9, 42, 0
11, 3930, Note_on_c, 9, 42, 69
11, 3945, Note_on_c, 9, 42, 0
11, 3960, Note_on_c, 9, 35, 100
11, 3960, Note_on_c, 9, 42, 90
11, 3975, Note_on_c, 9, 42, 0
11, 3975, Note_on_c, 9, 35, 0
11, 4020, Note_on_c, 9, 42, 69
11, 4035, Note_on_c, 9, 42, 0
11, 4080, Note_on_c, 9, 42, 76
11, 4095, Note_on_c, 9, 42, 0
11, 4140, Note_on_c, 9, 42, 61
11, 4155, Note_on_c, 9, 42, 0
11, 4200, Note_on_c, 9, 42, 100
11, 4215, Note_on_c, 9, 42, 0
11, 4260, Note_on_c, 9, 42, 69
11, 4275, Note_on_c, 9, 42, 0
11, 4320, Note_on_c, 9, 42, 100
11, 4335, Note_on_c, 9, 42, 0
11, 4380, Note_on_c, 9, 42, 67
11, 4395, Note_on_c, 9, 42, 0
11, 4440, Note_on_c, 9, 42, 100
11, 4455, Note_on_c, 9, 42, 0
11, 4500, Note_on_c, 9, 42, 67
11, 4515, Note_on_c, 9, 42, 0
11, 4560, Note_on_c, 9, 42, 100
11, 4575, Note_on_c, 9, 42, 0
11, 4620, Note_on_c, 9, 35, 100
11, 4620, Note_on_c, 9, 42, 67
11, 4635, Note_on_c, 9, 42, 0
11, 4635, Note_on_c, 9, 35, 0
11, 4680, Note_on_c, 9, 42, 100
11, 4695, Note_on_c, 9, 42, 0
11, 4740, Note_on_c, 9, 42, 67
11, 4755, Note_on_c, 9, 42, 0
11, 4800, Note_on_c, 9, 42, 100
11, 4815, Note_on_c, 9, 42, 0
11, 4860, Note_on_c, 9, 42, 67
11, 4860, Note_on_c, 9, 35, 100
11, 4875, Note_on_c, 9, 35, 0
11, 4875, Note_on_c, 9, 42, 0
11, 4920, Note_on_c, 9, 42, 100
11, 4935, Note_on_c, 9, 42, 0
11, 4980, Note_on_c, 9, 42, 67
11, 4995, Note_on_c, 9, 42, 0
11, 5040, Note_on_c, 9, 42, 100
11, 5055, Note_on_c, 9, 42, 0
11, 5100, Note_on_c, 9, 42, 67
11, 5115, Note_on_c, 9, 42, 0
11, 5160, Note_on_c, 9, 42, 100
11, 5175, Note_on_c, 9, 42, 0
11, 5220, Note_on_c, 9, 42, 100
11, 5235, Note_on_c, 9, 42, 0
11, 5280, Note_on_c, 9, 42, 100
11, 5295, Note_on_c, 9, 42, 0
11, 5340, Note_on_c, 9, 42, 100
11, 5355, Note_on_c, 9, 42, 0
11, 5370, Note_on_c, 9, 46, 100
11, 5385, Note_on_c, 9, 46, 0
11, 5400, Note_on_c, 9, 35, 100
11, 5400, Note_on_c, 9, 42, 100
11, 5415, Note_on_c, 9, 42, 0
11, 5415, Note_on_c, 9, 35, 0
11, 5460, Note_on_c, 9, 42, 69
11, 5475, Note_on_c, 9, 42, 0
11, 5520, Note_on_c, 9, 42, 100
11, 5535, Note_on_c, 9, 42, 0
11, 5580, Note_on_c, 9, 42, 67
11, 5595, Note_on_c, 9, 42, 0
11, 5640, Note_on_c, 9, 42, 100
11, 5655, Note_on_c, 9, 42, 0
11, 5700, Note_on_c, 9, 42, 67
11, 5715, Note_on_c, 9, 42, 0
11, 5760, Note_on_c, 9, 42, 100
11, 5775, Note_on_c, 9, 42, 0
11, 5820, Note_on_c, 9, 42, 67
11, 5835, Note_on_c, 9, 42, 0
11, 5880, Note_on_c, 9, 42, 100
11, 5895, Note_on_c, 9, 42, 0
11, 5940, Note_on_c, 9, 42, 67
11, 5955, Note_on_c, 9, 42, 0
11, 6000, Note_on_c, 9, 42, 100
11, 6015, Note_on_c, 9, 42, 0
11, 6060, Note_on_c, 9, 35, 100
11, 6060, Note_on_c, 9, 42, 67
11, 6075, Note_on_c, 9, 42, 0
11, 6075, Note_on_c, 9, 35, 0
11, 6120, Note_on_c, 9, 42, 100
11, 6135, Note_on_c, 9, 42, 0
11, 6180, Note_on_c, 9, 42, 100
11, 6195, Note_on_c, 9, 42, 0
11, 6240, Note_on_c, 9, 46, 100
11, 6255, Note_on_c, 9, 46, 0
11, 6300, Note_on_c, 9, 35, 100
11, 6315, Note_on_c, 9, 35, 0
11, 6360, Note_on_c, 9, 42, 100
11, 6375, Note_on_c, 9, 42, 0
11, 6420, Note_on_c, 9, 42, 100
11, 6435, Note_on_c, 9, 42, 0
11, 6480, Note_on_c, 9, 42, 100
11, 6495, Note_on_c, 9, 42, 0
11, 6540, Note_on_c, 9, 46, 100
11, 6555, Note_on_c, 9, 46, 0
11, 6660, Note_on_c, 9, 42, 100
11, 6675, Note_on_c, 9, 42, 0
11, 6720, Note_on_c, 9, 46, 100
11, 6735, Note_on_c, 9, 46, 0
11, 6780, Note_on_c, 9, 42, 100
11, 6795, Note_on_c, 9, 42, 0
11, 6840, Note_on_c, 9, 54, 84
11, 6840, Note_on_c, 9, 63, 100
11, 6855, Note_on_c, 9, 63, 0
11, 6855, Note_on_c, 9, 54, 0
11, 6900, Note_on_c, 9, 54, 100
11, 6900, Note_on_c, 9, 63, 100
11, 6915, Note_on_c, 9, 63, 0
11, 6915, Note_on_c, 9, 54, 0
11, 6960, Note_on_c, 9, 54, 81
11, 6960, Note_on_c, 9, 62, 100
11, 6975, Note_on_c, 9, 62, 0
11, 6975, Note_on_c, 9, 54, 0
11, 7020, Note_on_c, 9, 54, 81
11, 7020, Note_on_c, 9, 63, 100
11, 7035, Note_on_c, 9, 63, 0
11, 7035, Note_on_c, 9, 54, 0
11, 7080, Note_on_c, 9, 54, 100
11, 7080, Note_on_c, 9, 63, 100
11, 7095, Note_on_c, 9, 63, 0
11, 7095, Note_on_c, 9, 54, 0
11, 7140, Note_on_c, 9, 54, 78
11, 7140, Note_on_c, 9, 62, 100
11, 7155, Note_on_c, 9, 62, 0
11, 7155, Note_on_c, 9, 54, 0
11, 7200, Note_on_c, 9, 54, 100
11, 7200, Note_on_c, 9, 63, 100
11, 7215, Note_on_c, 9, 63, 0
11, 7215, Note_on_c, 9, 54, 0
11, 7260, Note_on_c, 9, 54, 78
11, 7260, Note_on_c, 9, 63, 100
11, 7275, Note_on_c, 9, 63, 0
11, 7275, Note_on_c, 9, 54, 0
11, 7320, Note_on_c, 9, 54, 100
11, 7320, Note_on_c, 9, 62, 100
11, 7335, Note_on_c, 9, 62, 0
11, 7335, Note_on_c, 9, 54, 0
11, 7380, Note_on_c, 9, 54, 78
11, 7380, Note_on_c, 9, 63, 100
11, 7395, Note_on_c, 9, 63, 0
11, 7395, Note_on_c, 9, 54, 0
11, 7440, Note_on_c, 9, 54, 78
11, 7440, Note_on_c, 9, 63, 100
11, 7455, Note_on_c, 9, 63, 0
11, 7455, Note_on_c, 9, 54, 0
11, 7500, Note_on_c, 9, 54, 78
11, 7500, Note_on_c, 9, 62, 100
11, 7515, Note_on_c, 9, 62, 0
11, 7515, Note_on_c, 9, 54, 0
11, 7560, Note_on_c, 9, 54, 84
11, 7560, Note_on_c, 9, 63, 100
11, 7575, Note_on_c, 9, 63, 0
11, 7575, Note_on_c, 9, 54, 0
11, 7620, Note_on_c, 9, 54, 100
11, 7620, Note_on_c, 9, 63, 100
11, 7635, Note_on_c, 9, 63, 0
11, 7635, Note_on_c, 9, 54, 0
11, 7680, Note_on_c, 9, 54, 81
11, 7680, Note_on_c, 9, 62, 100
11, 7695, Note_on_c, 9, 62, 0
11, 7695, Note_on_c, 9, 54, 0
11, 7740, Note_on_c, 9, 54, 81
11, 7740, Note_on_c, 9, 63, 100
11, 7755, Note_on_c, 9, 63, 0
11, 7755, Note_on_c, 9, 54, 0
11, 7800, Note_on_c, 9, 54, 100
11, 7800, Note_on_c, 9, 63, 100
11, 7815, Note_on_c, 9, 63, 0
11, 7815, Note_on_c, 9, 54, 0
11, 7860, Note_on_c, 9, 54, 78
11, 7860, Note_on_c, 9, 62, 100
11, 7875, Note_on_c, 9, 62, 0
11, 7875, Note_on_c, 9, 54, 0
11, 7920, Note_on_c, 9, 54, 100
11, 7920, Note_on_c, 9, 63, 100
11, 7935, Note_on_c, 9, 63, 0
11, 7935, Note_on_c, 9, 54, 0
11, 7980, Note_on_c, 9, 54, 78
11, 7980, Note_on_c, 9, 63, 100
11, 7995, Note_on_c, 9, 63, 0
11, 7995, Note_on_c, 9, 54, 0
11, 8040, Note_on_c, 9, 54, 100
11, 8040, Note_on_c, 9, 62, 100
11, 8055, Note_on_c, 9, 62, 0
11, 8055, Note_on_c, 9, 54, 0
11, 8100, Note_on_c, 9, 54, 78
11, 8100, Note_on_c, 9, 63, 100
11, 8115, Note_on_c, 9, 63, 0
11, 8115, Note_on_c, 9, 54, 0
11, 8160, Note_on_c, 9, 54, 78
11, 8160, Note_on_c, 9, 63, 100
11, 8175, Note_on_c, 9, 63, 0
11, 8175, Note_on_c, 9, 54, 0
11, 8220, Note_on_c, 9, 54, 78
11, 8220, Note_on_c, 9, 62, 100
11, 8235, Note_on_c, 9, 62, 0
11, 8235, Note_on_c, 9, 54, 0
11, 8280, Note_on_c, 9, 63, 100
11, 8280, Note_on_c, 9, 54, 84
11, 8295, Note_on_c, 9, 54, 0
11, 8295, Note_on_c, 9, 63, 0
11, 8340, Note_on_c, 9, 63, 100
11, 8340, Note_on_c, 9, 54, 100
11, 8355, Note_on_c, 9, 54, 0
11, 8355, Note_on_c, 9, 63, 0
11, 8400, Note_on_c, 9, 62, 100
11, 8400, Note_on_c, 9, 54, 81
11, 8415, Note_on_c, 9, 54, 0
11, 8415, Note_on_c, 9, 62, 0
11, 8460, Note_on_c, 9, 63, 100
11, 8460, Note_on_c, 9, 54, 81
11, 8475, Note_on_c, 9, 54, 0
11, 8475, Note_on_c, 9, 63, 0
11, 8520, Note_on_c, 9, 63, 100
11, 8520, Note_on_c, 9, 54, 100
11, 8535, Note_on_c, 9, 54, 0
11, 8535, Note_on_c, 9, 63, 0
11, 8580, Note_on_c, 9, 62, 100
11, 8580, Note_on_c, 9, 54, 78
11, 8595, Note_on_c, 9, 54, 0
11, 8595, Note_on_c, 9, 62, 0
11, 8640, Note_on_c, 9, 63, 100
11, 8640, Note_on_c, 9, 54, 100
11, 8655, Note_on_c, 9, 54, 0
11, 8655, Note_on_c, 9, 63, 0
11, 8700, Note_on_c, 9, 63, 100
11, 8700, Note_on_c, 9, 54, 78
11, 8715, Note_on_c, 9, 54, 0
11, 8715, Note_on_c, 9, 63, 0
11, 8760, Note_on_c, 9, 62, 100
11, 8760, Note_on_c, 9, 54, 100
11, 8775, Note_on_c, 9, 54, 0
11, 8775, Note_on_c, 9, 62, 0
11, 8820, Note_on_c, 9, 63, 100
11, 8820, Note_on_c, 9, 54, 78
11, 8835, Note_on_c, 9, 54, 0
11, 8835, Note_on_c, 9, 63, 0
11, 8880, Note_on_c, 9, 63, 100
11, 8880, Note_on_c, 9, 54, 78
11, 8895, Note_on_c, 9, 54, 0
11, 8895, Note_on_c, 9, 63, 0
11, 8940, Note_on_c, 9, 62, 100
11, 8940, Note_on_c, 9, 54, 78
11, 8955, Note_on_c, 9, 54, 0
11, 8955, Note_on_c, 9, 62, 0
11, 9000, Note_on_c, 9, 54, 84
11, 9000, Note_on_c, 9, 63, 100
11, 9015, Note_on_c, 9, 63, 0
11, 9015, Note_on_c, 9, 54, 0
11, 9060, Note_on_c, 9, 54, 100
11, 9060, Note_on_c, 9, 63, 100
11, 9075, Note_on_c, 9, 63, 0
11, 9075, Note_on_c, 9, 54, 0
11, 9120, Note_on_c, 9, 54, 81
11, 9120, Note_on_c, 9, 62, 100
11, 9135, Note_on_c, 9, 62, 0
11, 9135, Note_on_c, 9, 54, 0
11, 9180, Note_on_c, 9, 54, 81
11, 9180, Note_on_c, 9, 63, 100
11, 9195, Note_on_c, 9, 63, 0
11, 9195, Note_on_c, 9, 54, 0
11, 9240, Note_on_c, 9, 54, 100
11, 9240, Note_on_c, 9, 63, 100
11, 9255, Note_on_c, 9, 63, 0
11, 9255, Note_on_c, 9, 54, 0
11, 9300, Note_on_c, 9, 54, 78
11, 9300, Note_on_c, 9, 62, 100
11, 9315, Note_on_c, 9, 62, 0
11, 9315, Note_on_c, 9, 54, 0
11, 9360, Note_on_c, 9, 54, 100
11, 9360, Note_on_c, 9, 63, 100
11, 9375, Note_on_c, 9, 63, 0
11, 9375, Note_on_c, 9, 54, 0
11, 9420, Note_on_c, 9, 54, 78
11, 9420, Note_on_c, 9, 63, 100
11, 9435, Note_on_c, 9, 63, 0
11, 9435, Note_on_c, 9, 54, 0
11, 9480, Note_on_c, 9, 54, 100
11, 9480, Note_on_c, 9, 62, 100
11, 9495, Note_on_c, 9, 62, 0
11, 9495, Note_on_c, 9, 54, 0
11, 9540, Note_on_c, 9, 54, 78
11, 9540, Note_on_c, 9, 63, 100
11, 9555, Note_on_c, 9, 63, 0
11, 9555, Note_on_c, 9, 54, 0
11, 9600, Note_on_c, 9, 54, 78
11, 9600, Note_on_c, 9, 63, 100
11, 9615, Note_on_c, 9, 63, 0
11, 9615, Note_on_c, 9, 54, 0
11, 9660, Note_on_c, 9, 54, 78
11, 9660, Note_on_c, 9, 62, 100
11, 9675, Note_on_c, 9, 62, 0
11, 9675, Note_on_c, 9, 54, 0
11, 13080, Note_on_c, 9, 54, 90
11, 13095, Note_on_c, 9, 54, 0
11, 13110, Note_on_c, 9, 54, 66
11, 13125, Note_on_c, 9, 54, 0
11, 13140, Note_on_c, 9, 54, 92
11, 13155, Note_on_c, 9, 54, 0
11, 13170, Note_on_c, 9, 54, 66
11, 13185, Note_on_c, 9, 54, 0
11, 13200, Note_on_c, 9, 54, 100
11, 13215, Note_on_c, 9, 54, 0
11, 13260, Note_on_c, 9, 54, 66
11, 13275, Note_on_c, 9, 54, 0
11, 13320, Note_on_c, 9, 54, 66
11, 13335, Note_on_c, 9, 54, 0
11, 13380, Note_on_c, 9, 54, 100
11, 13395, Note_on_c, 9, 54, 0
11, 13440, Note_on_c, 9, 54, 66
11, 13455, Note_on_c, 9, 54, 0
11, 13500, Note_on_c, 9, 54, 82
11, 13515, Note_on_c, 9, 54, 0
11, 13560, Note_on_c, 9, 54, 100
11, 13575, Note_on_c, 9, 54, 0
11, 13620, Note_on_c, 9, 54, 66
11, 13635, Note_on_c, 9, 54, 0
11, 13680, Note_on_c, 9, 54, 66
11, 13695, Note_on_c, 9, 54, 0
11, 13740, Note_on_c, 9, 54, 66
11, 13755, Note_on_c, 9, 54, 0
11, 13800, Note_on_c, 9, 54, 66
11, 13815, Note_on_c, 9, 54, 0
11, 13860, Note_on_c, 9, 54, 66
11, 13875, Note_on_c, 9, 54, 0
11, 13920, Note_on_c, 9, 54, 100
11, 13935, Note_on_c, 9, 54, 0
11, 13980, Note_on_c, 9, 54, 66
11, 13995, Note_on_c, 9, 54, 0
11, 14040, Note_on_c, 9, 54, 66
11, 14055, Note_on_c, 9, 54, 0
11, 14100, Note_on_c, 9, 54, 100
11, 14115, Note_on_c, 9, 54, 0
11, 14160, Note_on_c, 9, 54, 66
11, 14175, Note_on_c, 9, 54, 0
11, 14220, Note_on_c, 9, 54, 82
11, 14235, Note_on_c, 9, 54, 0
11, 14280, Note_on_c, 9, 54, 100
11, 14295, Note_on_c, 9, 54, 0
11, 14340, Note_on_c, 9, 54, 66
11, 14355, Note_on_c, 9, 54, 0
11, 14400, Note_on_c, 9, 54, 66
11, 14415, Note_on_c, 9, 54, 0
11, 14460, Note_on_c, 9, 54, 66
11, 14475, Note_on_c, 9, 54, 0
11, 14520, Note_on_c, 9, 54, 66
11, 14535, Note_on_c, 9, 54, 0
11, 14580, Note_on_c, 9, 54, 66
11, 14595, Note_on_c, 9, 54, 0
11, 14640, Note_on_c, 9, 54, 100
11, 14655, Note_on_c, 9, 54, 0
11, 14700, Note_on_c, 9, 54, 66
11, 14715, Note_on_c, 9, 54, 0
11, 14760, Note_on_c, 9, 54, 66
11, 14775, Note_on_c, 9, 54, 0
11, 14820, Note_on_c, 9, 54, 100
11, 14835, Note_on_c, 9, 54, 0
11, 14880, Note_on_c, 9, 54, 66
11, 14895, Note_on_c, 9, 54, 0
11, 14940, Note_on_c, 9, 54, 82
11, 14955, Note_on_c, 9, 54, 0
11, 15000, Note_on_c, 9, 54, 100
11, 15015, Note_on_c, 9, 54, 0
11, 15060, Note_on_c, 9, 54, 66
11, 15075, Note_on_c, 9, 54, 0
11, 15120, Note_on_c, 9, 54, 66
11, 15135, Note_on_c, 9, 54, 0
11, 15180, Note_on_c, 9, 54, 66
11, 15195, Note_on_c, 9, 54, 0
11, 15240, Note_on_c, 9, 54, 66
11, 15255, Note_on_c, 9, 54, 0
11, 15300, Note_on_c, 9, 54, 66
11, 15315, Note_on_c, 9, 54, 0
11, 15360, Note_on_c, 9, 54, 100
11, 15375, Note_on_c, 9, 54, 0
11, 15420, Note_on_c, 9, 54, 66
11, 15435, Note_on_c, 9, 54, 0
11, 15480, Note_on_c, 9, 54, 66
11, 15495, Note_on_c, 9, 54, 0
11, 15540, Note_on_c, 9, 54, 100
11, 15555, Note_on_c, 9, 54, 0
11, 15600, Note_on_c, 9, 54, 66
11, 15615, Note_on_c, 9, 54, 0
11, 15660, Note_on_c, 9, 54, 82
11, 15675, Note_on_c, 9, 54, 0
11, 15720, Note_on_c, 9, 54, 100
11, 15735, Note_on_c, 9, 54, 0
11, 15780, Note_on_c, 9, 54, 66
11, 15795, Note_on_c, 9, 54, 0
11, 15840, Note_on_c, 9, 54, 66
11, 15855, Note_on_c, 9, 54, 0
11, 15900, Note_on_c, 9, 54, 66
11, 15915, Note_on_c, 9, 54, 0
11, 15960, Note_on_c, 9, 54, 66
11, 15975, Note_on_c, 9, 54, 0
11, 16020, Note_on_c, 9, 54, 66
11, 16035, Note_on_c, 9, 54, 0
11, 16080, Note_on_c, 9, 54, 100
11, 16095, Note_on_c, 9, 54, 0
11, 16140, Note_on_c, 9, 54, 66
11, 16155, Note_on_c, 9, 54, 0
11, 16200, Note_on_c, 9, 54, 66
11, 16215, Note_on_c, 9, 54, 0
11, 16260, Note_on_c, 9, 54, 100
11, 16275, Note_on_c, 9, 54, 0
11, 16320, Note_on_c, 9, 54, 66
11, 16335, Note_on_c, 9, 54, 0
11, 16380, Note_on_c, 9, 54, 82
11, 16395, Note_on_c, 9, 54, 0
11, 16440, Note_on_c, 9, 54, 100
11, 16455, Note_on_c, 9, 54, 0
11, 16500, Note_on_c, 9, 54, 66
11, 16515, Note_on_c, 9, 54, 0
11, 16560, Note_on_c, 9, 54, 66
11, 16575, Note_on_c, 9, 54, 0
11, 16620, Note_on_c, 9, 54, 66
11, 16635, Note_on_c, 9, 54, 0
11, 16680, Note_on_c, 9, 54, 66
11, 16695, Note_on_c, 9, 54, 0
11, 16740, Note_on_c, 9, 54, 66
11, 16755, Note_on_c, 9, 54, 0
11, 16800, Note_on_c, 9, 54, 100
11, 16815, Note_on_c, 9, 54, 0
11, 16860, Note_on_c, 9, 54, 66
11, 16875, Note_on_c, 9, 54, 0
11, 16920, Note_on_c, 9, 54, 66
11, 16935, Note_on_c, 9, 54, 0
11, 16980, Note_on_c, 9, 54, 100
11, 16995, Note_on_c, 9, 54, 0
11, 17040, Note_on_c, 9, 54, 66
11, 17055, Note_on_c, 9, 54, 0
11, 17100, Note_on_c, 9, 54, 82
11, 17115, Note_on_c, 9, 54, 0
11, 17160, Note_on_c, 9, 54, 100
11, 17175, Note_on_c, 9, 54, 0
11, 17220, Note_on_c, 9, 54, 66
11, 17235, Note_on_c, 9, 54, 0
11, 17280, Note_on_c, 9, 54, 66
11, 17295, Note_on_c, 9, 54, 0
11, 17340, Note_on_c, 9, 54, 66
11, 17355, Note_on_c, 9, 54, 0
11, 17400, Note_on_c, 9, 54, 66
11, 17415, Note_on_c, 9, 54, 0
11, 17460, Note_on_c, 9, 54, 66
11, 17475, Note_on_c, 9, 54, 0
11, 17520, Note_on_c, 9, 54, 100
11, 17535, Note_on_c, 9, 54, 0
11, 17580, Note_on_c, 9, 54, 66
11, 17595, Note_on_c, 9, 54, 0
11, 17640, Note_on_c, 9, 54, 66
11, 17655, Note_on_c, 9, 54, 0
11, 17700, Note_on_c, 9, 54, 100
11, 17715, Note_on_c, 9, 54, 0
11, 17760, Note_on_c, 9, 54, 66
11, 17775, Note_on_c, 9, 54, 0
11, 17820, Note_on_c, 9, 54, 82
11, 17835, Note_on_c, 9, 54, 0
11, 17880, Note_on_c, 9, 54, 100
11, 17895, Note_on_c, 9, 54, 0
11, 17940, Note_on_c, 9, 54, 66
11, 17955, Note_on_c, 9, 54, 0
11, 18000, Note_on_c, 9, 54, 66
11, 18015, Note_on_c, 9, 54, 0
11, 18060, Note_on_c, 9, 54, 66
11, 18075, Note_on_c, 9, 54, 0
11, 18120, Note_on_c, 9, 54, 66
11, 18135, Note_on_c, 9, 54, 0
11, 18180, Note_on_c, 9, 54, 66
11, 18195, Note_on_c, 9, 54, 0
11, 18240, Note_on_c, 9, 54, 100
11, 18255, Note_on_c, 9, 54, 0
11, 18300, Note_on_c, 9, 54, 66
11, 18315, Note_on_c, 9, 54, 0
11, 18360, Note_on_c, 9, 54, 66
11, 18375, Note_on_c, 9, 54, 0
11, 18420, Note_on_c, 9, 54, 100
11, 18435, Note_on_c, 9, 54, 0
11, 18480, Note_on_c, 9, 54, 66
11, 18495, Note_on_c, 9, 54, 0
11, 18540, Note_on_c, 9, 54, 82
11, 18555, Note_on_c, 9, 54, 0
11, 18600, Note_on_c, 9, 54, 100
11, 18615, Note_on_c, 9, 54, 0
11, 18660, Note_on_c, 9, 54, 66
11, 18675, Note_on_c, 9, 54, 0
11, 18720, Note_on_c, 9, 54, 66
11, 18735, Note_on_c, 9, 54, 0
11, 18780, Note_on_c, 9, 54, 66
11, 18795, Note_on_c, 9, 54, 0
11, 18840, Note_on_c, 9, 54, 66
11, 18855, Note_on_c, 9, 54, 0
11, 18900, Note_on_c, 9, 54, 66
11, 18915, Note_on_c, 9, 54, 0
11, 18960, Note_on_c, 9, 35, 100
11, 18960, Note_on_c, 9, 49, 110
11, 18975, Note_on_c, 9, 49, 0
11, 18975, Note_on_c, 9, 35, 0
11, 19020, Note_on_c, 9, 42, 69
11, 19035, Note_on_c, 9, 42, 0
11, 19080, Note_on_c, 9, 35, 100
11, 19080, Note_on_c, 9, 42, 76
11, 19095, Note_on_c, 9, 42, 0
11, 19095, Note_on_c, 9, 35, 0
11, 19140, Note_on_c, 9, 42, 61
11, 19155, Note_on_c, 9, 42, 0
11, 19200, Note_on_c, 9, 35, 100
11, 19200, Note_on_c, 9, 42, 100
11, 19215, Note_on_c, 9, 42, 0
11, 19215, Note_on_c, 9, 35, 0
11, 19260, Note_on_c, 9, 42, 69
11, 19275, Note_on_c, 9, 42, 0
11, 19320, Note_on_c, 9, 35, 100
11, 19320, Note_on_c, 9, 42, 100
11, 19335, Note_on_c, 9, 42, 0
11, 19335, Note_on_c, 9, 35, 0
11, 19380, Note_on_c, 9, 42, 67
11, 19395, Note_on_c, 9, 42, 0
11, 19440, Note_on_c, 9, 35, 100
11, 19440, Note_on_c, 9, 42, 100
11, 19455, Note_on_c, 9, 42, 0
11, 19455, Note_on_c, 9, 35, 0
11, 19500, Note_on_c, 9, 42, 67
11, 19515, Note_on_c, 9, 42, 0
11, 19560, Note_on_c, 9, 35, 100
11, 19560, Note_on_c, 9, 42, 100
11, 19575, Note_on_c, 9, 42, 0
11, 19575, Note_on_c, 9, 35, 0
11, 19620, Note_on_c, 9, 42, 67
11, 19635, Note_on_c, 9, 42, 0
11, 19680, Note_on_c, 9, 35, 100
11, 19680, Note_on_c, 9, 42, 100
11, 19695, Note_on_c, 9, 42, 0
11, 19695, Note_on_c, 9, 35, 0
11, 19740, Note_on_c, 9, 42, 67
11, 19755, Note_on_c, 9, 42, 0
11, 19800, Note_on_c, 9, 35, 100
11, 19800, Note_on_c, 9, 42, 100
11, 19815, Note_on_c, 9, 42, 0
11, 19815, Note_on_c, 9, 35, 0
11, 19860, Note_on_c, 9, 42, 67
11, 19875, Note_on_c, 9, 42, 0
11, 19920, Note_on_c, 9, 35, 100
11, 19920, Note_on_c, 9, 42, 100
11, 19935, Note_on_c, 9, 42, 0
11, 19935, Note_on_c, 9, 35, 0
11, 19980, Note_on_c, 9, 42, 67
11, 19995, Note_on_c, 9, 42, 0
11, 20040, Note_on_c, 9, 35, 100
11, 20040, Note_on_c, 9, 42, 100
11, 20055, Note_on_c, 9, 42, 0
11, 20055, Note_on_c, 9, 35, 0
11, 20100, Note_on_c, 9, 42, 67
11, 20115, Note_on_c, 9, 42, 0
11, 20160, Note_on_c, 9, 35, 100
11, 20160, Note_on_c, 9, 42, 100
11, 20175, Note_on_c, 9, 42, 0
11, 20175, Note_on_c, 9, 35, 0
11, 20220, Note_on_c, 9, 42, 100
11, 20235, Note_on_c, 9, 42, 0
11, 20280, Note_on_c, 9, 35, 100
11, 20280, Note_on_c, 9, 42, 100
11, 20295, Note_on_c, 9, 42, 0
11, 20295, Note_on_c, 9, 35, 0
11, 20340, Note_on_c, 9, 42, 100
11, 20355, Note_on_c, 9, 42, 0
11, 20370, Note_on_c, 9, 46, 100
11, 20385, Note_on_c, 9, 46, 0
11, 20400, Note_on_c, 9, 35, 100
11, 20400, Note_on_c, 9, 42, 100
11, 20415, Note_on_c, 9, 42, 0
11, 20415, Note_on_c, 9, 35, 0
11, 20460, Note_on_c, 9, 42, 69
11, 20475, Note_on_c, 9, 42, 0
11, 20520, Note_on_c, 9, 35, 100
11, 20520, Note_on_c, 9, 42, 100
11, 20535, Note_on_c, 9, 42, 0
11, 20535, Note_on_c, 9, 35, 0
11, 20580, Note_on_c, 9, 42, 67
11, 20595, Note_on_c, 9, 42, 0
11, 20640, Note_on_c, 9, 35, 100
11, 20640, Note_on_c, 9, 42, 100
11, 20655, Note_on_c, 9, 42, 0
11, 20655, Note_on_c, 9, 35, 0
11, 20700, Note_on_c, 9, 42, 67
11, 20715, Note_on_c, 9, 42, 0
11, 20760, Note_on_c, 9, 35, 100
11, 20760, Note_on_c, 9, 42, 100
11, 20775, Note_on_c, 9, 42, 0
11, 20775, Note_on_c, 9, 35, 0
11, 20820, Note_on_c, 9, 42, 67
11, 20835, Note_on_c, 9, 42, 0
11, 20880, Note_on_c, 9, 35, 100
11, 20880, Note_on_c, 9, 42, 100
11, 20895, Note_on_c, 9, 42, 0
11, 20895, Note_on_c, 9, 35, 0
11, 20940, Note_on_c, 9, 42, 67
11, 20955, Note_on_c, 9, 42, 0
11, 21000, Note_on_c, 9, 35, 100
11, 21000, Note_on_c, 9, 42, 100
11, 21015, Note_on_c, 9, 42, 0
11, 21015, Note_on_c, 9, 35, 0
11, 21060, Note_on_c, 9, 42, 67
11, 21075, Note_on_c, 9, 42, 0
11, 21120, Note_on_c, 9, 35, 100
11, 21120, Note_on_c, 9, 42, 100
11, 21135, Note_on_c, 9, 42, 0
11, 21135, Note_on_c, 9, 35, 0
11, 21180, Note_on_c, 9, 42, 100
11, 21195, Note_on_c, 9, 42, 0
11, 21240, Note_on_c, 9, 35, 100
11, 21240, Note_on_c, 9, 46, 100
11, 21255, Note_on_c, 9, 46, 0
11, 21255, Note_on_c, 9, 35, 0
11, 21360, Note_on_c, 9, 35, 100
11, 21360, Note_on_c, 9, 42, 100
11, 21375, Note_on_c, 9, 42, 0
11, 21375, Note_on_c, 9, 35, 0
11, 21420, Note_on_c, 9, 42, 100
11, 21435, Note_on_c, 9, 42, 0
11, 21480, Note_on_c, 9, 35, 100
11, 21480, Note_on_c, 9, 42, 100
11, 21495, Note_on_c, 9, 42, 0
11, 21495, Note_on_c, 9, 35, 0
11, 21540, Note_on_c, 9, 46, 100
11, 21555, Note_on_c, 9, 46, 0
11, 21600, Note_on_c, 9, 35, 100
11, 21615, Note_on_c, 9, 35, 0
11, 21660, Note_on_c, 9, 42, 100
11, 21675, Note_on_c, 9, 42, 0
11, 21720, Note_on_c, 9, 35, 100
11, 21720, Note_on_c, 9, 46, 100
11, 21735, Note_on_c, 9, 46, 0
11, 21735, Note_on_c, 9, 35, 0
11, 21780, Note_on_c, 9, 42, 100
11, 21795, Note_on_c, 9, 42, 0
11, 21810, Note_on_c, 9, 42, 69
11, 21825, Note_on_c, 9, 42, 0
11, 21840, Note_on_c, 9, 35, 100
11, 21840, Note_on_c, 9, 49, 110
11, 21855, Note_on_c, 9, 49, 0
11, 21855, Note_on_c, 9, 35, 0
11, 21900, Note_on_c, 9, 42, 69
11, 21915, Note_on_c, 9, 42, 0
11, 21960, Note_on_c, 9, 35, 100
11, 21960, Note_on_c, 9, 42, 76
11, 21975, Note_on_c, 9, 42, 0
11, 21975, Note_on_c, 9, 35, 0
11, 22020, Note_on_c, 9, 42, 61
11, 22035, Note_on_c, 9, 42, 0
11, 22080, Note_on_c, 9, 35, 100
11, 22080, Note_on_c, 9, 42, 100
11, 22095, Note_on_c, 9, 42, 0
11, 22095, Note_on_c, 9, 35, 0
11, 22140, Note_on_c, 9, 42, 69
11, 22155, Note_on_c, 9, 42, 0
11, 22200, Note_on_c, 9, 35, 100
11, 22200, Note_on_c, 9, 42, 100
11, 22215, Note_on_c, 9, 42, 0
11, 22215, Note_on_c, 9, 35, 0
11, 22260, Note_on_c, 9, 42, 67
11, 22275, Note_on_c, 9, 42, 0
11, 22320, Note_on_c, 9, 35, 100
11, 22320, Note_on_c, 9, 42, 100
11, 22335, Note_on_c, 9, 42, 0
11, 22335, Note_on_c, 9, 35, 0
11, 22380, Note_on_c, 9, 42, 67
11, 22395, Note_on_c, 9, 42, 0
11, 22440, Note_on_c, 9, 35, 100
11, 22440, Note_on_c, 9, 42, 100
11, 22455, Note_on_c, 9, 42, 0
11, 22455, Note_on_c, 9, 35, 0
11, 22500, Note_on_c, 9, 42, 67
11, 22515, Note_on_c, 9, 42, 0
11, 22560, Note_on_c, 9, 35, 100
11, 22560, Note_on_c, 9, 42, 100
11, 22575, Note_on_c, 9, 42, 0
11, 22575, Note_on_c, 9, 35, 0
11, 22620, Note_on_c, 9, 42, 67
11, 22635, Note_on_c, 9, 42, 0
11, 22680, Note_on_c, 9, 35, 100
11, 22680, Note_on_c, 9, 42, 100
11, 22695, Note_on_c, 9, 42, 0
11, 22695, Note_on_c, 9, 35, 0
11, 22740, Note_on_c, 9, 42, 67
11, 22755, Note_on_c, 9, 42, 0
11, 22800, Note_on_c, 9, 35, 100
11, 22800, Note_on_c, 9, 42, 100
11, 22815, Note_on_c, 9, 42, 0
11, 22815, Note_on_c, 9, 35, 0
11, 22860, Note_on_c, 9, 42, 67
11, 22875, Note_on_c, 9, 42, 0
11, 22920, Note_on_c, 9, 35, 100
11, 22920, Note_on_c, 9, 42, 100
11, 22935, Note_on_c, 9, 42, 0
11, 22935, Note_on_c, 9, 35, 0
11, 22980, Note_on_c, 9, 42, 67
11, 22995, Note_on_c, 9, 42, 0
11, 23040, Note_on_c, 9, 35, 100
11, 23040, Note_on_c, 9, 42, 100
11, 23055, Note_on_c, 9, 42, 0
11, 23055, Note_on_c, 9, 35, 0
11, 23100, Note_on_c, 9, 42, 100
11, 23115, Note_on_c, 9, 42, 0
11, 23160, Note_on_c, 9, 35, 100
11, 23160, Note_on_c, 9, 42, 100
11, 23175, Note_on_c, 9, 42, 0
11, 23175, Note_on_c, 9, 35, 0
11, 23220, Note_on_c, 9, 42, 100
11, 23235, Note_on_c, 9, 42, 0
11, 23250, Note_on_c, 9, 46, 100
11, 23265, Note_on_c, 9, 46, 0
11, 23280, Note_on_c, 9, 35, 100
11, 23280, Note_on_c, 9, 42, 100
11, 23295, Note_on_c, 9, 42, 0
11, 23295, Note_on_c, 9, 35, 0
11, 23340, Note_on_c, 9, 42, 69
11, 23355, Note_on_c, 9, 42, 0
11, 23400, Note_on_c, 9, 35, 100
11, 23400, Note_on_c, 9, 42, 100
11, 23415, Note_on_c, 9, 42, 0
11, 23415, Note_on_c, 9, 35, 0
11, 23460, Note_on_c, 9, 42, 67
11, 23475, Note_on_c, 9, 42, 0
11, 23520, Note_on_c, 9, 35, 100
11, 23520, Note_on_c, 9, 42, 100
11, 23535, Note_on_c, 9, 42, 0
11, 23535, Note_on_c, 9, 35, 0
11, 23580, Note_on_c, 9, 42, 67
11, 23595, Note_on_c, 9, 42, 0
11, 23640, Note_on_c, 9, 35, 100
11, 23640, Note_on_c, 9, 42, 100
11, 23655, Note_on_c, 9, 42, 0
11, 23655, Note_on_c, 9, 35, 0
11, 23700, Note_on_c, 9, 42, 67
11, 23715, Note_on_c, 9, 42, 0
11, 23760, Note_on_c, 9, 35, 100
11, 23760, Note_on_c, 9, 42, 100
11, 23775, Note_on_c, 9, 42, 0
11, 23775, Note_on_c, 9, 35, 0
11, 23820, Note_on_c, 9, 42, 67
11, 23835, Note_on_c, 9, 42, 0
11, 23880, Note_on_c, 9, 35, 100
11, 23880, Note_on_c, 9, 42, 100
11, 23895, Note_on_c, 9, 42, 0
11, 23895, Note_on_c, 9, 35, 0
11, 23940, Note_on_c, 9, 42, 67
11, 23955, Note_on_c, 9, 42, 0
11, 24000, Note_on_c, 9, 35, 100
11, 24000, Note_on_c, 9, 42, 100
11, 24015, Note_on_c, 9, 42, 0
11, 24015, Note_on_c, 9, 35, 0
11, 24060, Note_on_c, 9, 42, 100
11, 24075, Note_on_c, 9, 42, 0
11, 24120, Note_on_c, 9, 35, 100
11, 24120, Note_on_c, 9, 46, 100
11, 24135, Note_on_c, 9, 46, 0
11, 24135, Note_on_c, 9, 35, 0
11, 24240, Note_on_c, 9, 35, 100
11, 24240, Note_on_c, 9, 42, 100
11, 24255, Note_on_c, 9, 42, 0
11, 24255, Note_on_c, 9, 35, 0
11, 24300, Note_on_c, 9, 42, 100
11, 24315, Note_on_c, 9, 42, 0
11, 24360, Note_on_c, 9, 35, 100
11, 24360, Note_on_c, 9, 42, 100
11, 24375, Note_on_c, 9, 42, 0
11, 24375, Note_on_c, 9, 35, 0
11, 24420, Note_on_c, 9, 46, 100
11, 24435, Note_on_c, 9, 46, 0
11, 24480, Note_on_c, 9, 35, 100
11, 24495, Note_on_c, 9, 35, 0
11, 24540, Note_on_c, 9, 42, 100
11, 24555, Note_on_c, 9, 42, 0
11, 24600, Note_on_c, 9, 35, 100
11, 24600, Note_on_c, 9, 46, 100
11, 24615, Note_on_c, 9, 46, 0
11, 24615, Note_on_c, 9, 35, 0
11, 24660, Note_on_c, 9, 42, 100
11, 24675, Note_on_c, 9, 42, 0
11, 24690, Note_on_c, 9, 42, 69
11, 24705, Note_on_c, 9, 42, 0
11, 24720, Note_on_c, 9, 42, 90
11, 24735, Note_on_c, 9, 42, 0
11, 24780, Note_on_c, 9, 42, 69
11, 24795, Note_on_c, 9, 42, 0
11, 24840, Note_on_c, 9, 42, 76
11, 24855, Note_on_c, 9, 42, 0
11, 24900, Note_on_c, 9, 42, 61
11, 24915, Note_on_c, 9, 42, 0
11, 24960, Note_on_c, 9, 42, 100
11, 24975, Note_on_c, 9, 42, 0
11, 25020, Note_on_c, 9, 42, 69
11, 25035, Note_on_c, 9, 42, 0
11, 25080, Note_on_c, 9, 42, 100
11, 25095, Note_on_c, 9, 42, 0
11, 25140, Note_on_c, 9, 42, 67
11, 25155, Note_on_c, 9, 42, 0
11, 25180, Control_c, 9, 99, 28
11, 25180, Control_c, 9, 98, 54
11, 25180, Control_c, 9, 6, 94
11, 25180, Control_c, 9, 38, 127
11, 25200, Note_on_c, 9, 42, 100
11, 25215, Note_on_c, 9, 42, 0
11, 25260, Note_on_c, 9, 42, 67
11, 25275, Note_on_c, 9, 42, 0
11, 25320, Note_on_c, 9, 42, 100
11, 25335, Note_on_c, 9, 42, 0
11, 25380, Note_on_c, 9, 42, 67
11, 25395, Note_on_c, 9, 42, 0
11, 25440, Note_on_c, 9, 42, 100
11, 25455, Note_on_c, 9, 42, 0
11, 25500, Note_on_c, 9, 42, 67
11, 25515, Note_on_c, 9, 42, 0
11, 25560, Note_on_c, 9, 42, 100
11, 25575, Note_on_c, 9, 42, 0
11, 25620, Note_on_c, 9, 42, 67
11, 25635, Note_on_c, 9, 42, 0
11, 25680, Note_on_c, 9, 42, 100
11, 25695, Note_on_c, 9, 42, 0
11, 25740, Note_on_c, 9, 42, 67
11, 25755, Note_on_c, 9, 42, 0
11, 25800, Note_on_c, 9, 42, 100
11, 25815, Note_on_c, 9, 42, 0
11, 25860, Note_on_c, 9, 42, 67
11, 25875, Note_on_c, 9, 42, 0
11, 25920, Note_on_c, 9, 42, 100
11, 25935, Note_on_c, 9, 42, 0
11, 25980, Note_on_c, 9, 42, 100
11, 25995, Note_on_c, 9, 42, 0
11, 26040, Note_on_c, 9, 42, 100
11, 26055, Note_on_c, 9, 42, 0
11, 26100, Note_on_c, 9, 42, 100
11, 26115, Note_on_c, 9, 42, 0
11, 26130, Note_on_c, 9, 46, 100
11, 26145, Note_on_c, 9, 46, 0
11, 26160, Note_on_c, 9, 42, 100
11, 26175, Note_on_c, 9, 42, 0
11, 26220, Note_on_c, 9, 42, 69
11, 26235, Note_on_c, 9, 42, 0
11, 26280, Note_on_c, 9, 42, 100
11, 26295, Note_on_c, 9, 42, 0
11, 26340, Note_on_c, 9, 42, 67
11, 26355, Note_on_c, 9, 42, 0
11, 26400, Note_on_c, 9, 42, 100
11, 26415, Note_on_c, 9, 42, 0
11, 26460, Note_on_c, 9, 42, 67
11, 26475, Note_on_c, 9, 42, 0
11, 26520, Note_on_c, 9, 42, 100
11, 26535, Note_on_c, 9, 42, 0
11, 26580, Note_on_c, 9, 42, 67
11, 26595, Note_on_c, 9, 42, 0
11, 26640, Note_on_c, 9, 42, 100
11, 26655, Note_on_c, 9, 42, 0
11, 26700, Note_on_c, 9, 42, 67
11, 26715, Note_on_c, 9, 42, 0
11, 26760, Note_on_c, 9, 42, 100
11, 26775, Note_on_c, 9, 42, 0
11, 26820, Note_on_c, 9, 42, 67
11, 26835, Note_on_c, 9, 42, 0
11, 26880, Note_on_c, 9, 42, 100
11, 26895, Note_on_c, 9, 42, 0
11, 26940, Note_on_c, 9, 42, 100
11, 26955, Note_on_c, 9, 42, 0
11, 27000, Note_on_c, 9, 46, 100
11, 27015, Note_on_c, 9, 46, 0
11, 27120, Note_on_c, 9, 42, 100
11, 27135, Note_on_c, 9, 42, 0
11, 27180, Note_on_c, 9, 42, 100
11, 27195, Note_on_c, 9, 42, 0
11, 27240, Note_on_c, 9, 42, 100
11, 27255, Note_on_c, 9, 42, 0
11, 27300, Note_on_c, 9, 46, 100
11, 27315, Note_on_c, 9, 46, 0
11, 27420, Note_on_c, 9, 42, 100
11, 27435, Note_on_c, 9, 42, 0
11, 27480, Note_on_c, 9, 46, 100
11, 27495, Note_on_c, 9, 46, 0
11, 27540, Note_on_c, 9, 42, 100
11, 27555, Note_on_c, 9, 42, 0
11, 27570, Note_on_c, 9, 42, 69
11, 27585, Note_on_c, 9, 42, 0
11, 27600, Note_on_c, 9, 35, 100
11, 27600, Note_on_c, 9, 42, 90
11, 27615, Note_on_c, 9, 42, 0
11, 27615, Note_on_c, 9, 35, 0
11, 27660, Note_on_c, 9, 42, 69
11, 27675, Note_on_c, 9, 42, 0
11, 27720, Note_on_c, 9, 42, 76
11, 27735, Note_on_c, 9, 42, 0
11, 27780, Note_on_c, 9, 42, 61
11, 27795, Note_on_c, 9, 42, 0
11, 27840, Note_on_c, 9, 42, 100
11, 27855, Note_on_c, 9, 42, 0
11, 27900, Note_on_c, 9, 42, 69
11, 27915, Note_on_c, 9, 42, 0
11, 27960, Note_on_c, 9, 42, 100
11, 27975, Note_on_c, 9, 42, 0
11, 28020, Note_on_c, 9, 42, 67
11, 28035, Note_on_c, 9, 42, 0
11, 28080, Note_on_c, 9, 42, 100
11, 28095, Note_on_c, 9, 42, 0
11, 28140, Note_on_c, 9, 42, 67
11, 28140, Note_on_c, 9, 38, 100
11, 28155, Note_on_c, 9, 38, 0
11, 28155, Note_on_c, 9, 42, 0
11, 28200, Note_on_c, 9, 42, 100
11, 28215, Note_on_c, 9, 42, 0
11, 28260, Note_on_c, 9, 35, 100
11, 28260, Note_on_c, 9, 42, 67
11, 28275, Note_on_c, 9, 42, 0
11, 28275, Note_on_c, 9, 35, 0
11, 28320, Note_on_c, 9, 42, 100
11, 28335, Note_on_c, 9, 42, 0
11, 28380, Note_on_c, 9, 42, 67
11, 28395, Note_on_c, 9, 42, 0
11, 28440, Note_on_c, 9, 42, 100
11, 28455, Note_on_c, 9, 42, 0
11, 28500, Note_on_c, 9, 42, 67
11, 28500, Note_on_c, 9, 35, 100
11, 28515, Note_on_c, 9, 35, 0
11, 28515, Note_on_c, 9, 42, 0
11, 28560, Note_on_c, 9, 42, 100
11, 28575, Note_on_c, 9, 42, 0
11, 28620, Note_on_c, 9, 42, 67
11, 28635, Note_on_c, 9, 42, 0
11, 28680, Note_on_c, 9, 42, 100
11, 28695, Note_on_c, 9, 42, 0
11, 28740, Note_on_c, 9, 42, 67
11, 28755, Note_on_c, 9, 42, 0
11, 28800, Note_on_c, 9, 42, 100
11, 28815, Note_on_c, 9, 42, 0
11, 28860, Note_on_c, 9, 42, 100
11, 28875, Note_on_c, 9, 42, 0
11, 28920, Note_on_c, 9, 38, 100
11, 28920, Note_on_c, 9, 42, 100
11, 28935, Note_on_c, 9, 42, 0
11, 28935, Note_on_c, 9, 38, 0
11, 28980, Note_on_c, 9, 42, 100
11, 28995, Note_on_c, 9, 42, 0
11, 29010, Note_on_c, 9, 46, 100
11, 29025, Note_on_c, 9, 46, 0
11, 29040, Note_on_c, 9, 35, 100
11, 29040, Note_on_c, 9, 42, 100
11, 29055, Note_on_c, 9, 42, 0
11, 29055, Note_on_c, 9, 35, 0
11, 29100, Note_on_c, 9, 42, 69
11, 29115, Note_on_c, 9, 42, 0
11, 29160, Note_on_c, 9, 42, 100
11, 29175, Note_on_c, 9, 42, 0
11, 29220, Note_on_c, 9, 42, 67
11, 29235, Note_on_c, 9, 42, 0
11, 29280, Note_on_c, 9, 42, 100
11, 29295, Note_on_c, 9, 42, 0
11, 29340, Note_on_c, 9, 42, 67
11, 29355, Note_on_c, 9, 42, 0
11, 29400, Note_on_c, 9, 42, 100
11, 29415, Note_on_c, 9, 42, 0
11, 29460, Note_on_c, 9, 42, 67
11, 29475, Note_on_c, 9, 42, 0
11, 29520, Note_on_c, 9, 42, 100
11, 29535, Note_on_c, 9, 42, 0
11, 29580, Note_on_c, 9, 42, 67
11, 29580, Note_on_c, 9, 38, 100
11, 29595, Note_on_c, 9, 38, 0
11, 29595, Note_on_c, 9, 42, 0
11, 29640, Note_on_c, 9, 42, 100
11, 29655, Note_on_c, 9, 42, 0
11, 29700, Note_on_c, 9, 35, 100
11, 29700, Note_on_c, 9, 42, 67
11, 29715, Note_on_c, 9, 42, 0
11, 29715, Note_on_c, 9, 35, 0
11, 29760, Note_on_c, 9, 42, 100
11, 29775, Note_on_c, 9, 42, 0
11, 29820, Note_on_c, 9, 42, 100
11, 29835, Note_on_c, 9, 42, 0
11, 29880, Note_on_c, 9, 46, 100
11, 29895, Note_on_c, 9, 46, 0
11, 29940, Note_on_c, 9, 35, 100
11, 29955, Note_on_c, 9, 35, 0
11, 30000, Note_on_c, 9, 42, 100
11, 30015, Note_on_c, 9, 42, 0
11, 30060, Note_on_c, 9, 42, 100
11, 30075, Note_on_c, 9, 42, 0
11, 30120, Note_on_c, 9, 42, 100
11, 30135, Note_on_c, 9, 42, 0
11, 30180, Note_on_c, 9, 46, 100
11, 30195, Note_on_c, 9, 46, 0
11, 30300, Note_on_c, 9, 42, 100
11, 30315, Note_on_c, 9, 42, 0
11, 30360, Note_on_c, 9, 46, 100
11, 30360, Note_on_c, 9, 38, 100
11, 30375, Note_on_c, 9, 38, 0
11, 30375, Note_on_c, 9, 46, 0
11, 30420, Note_on_c, 9, 42, 100
11, 30435, Note_on_c, 9, 42, 0
11, 30480, Note_on_c, 9, 35, 100
11, 30480, Note_on_c, 9, 42, 90
11, 30495, Note_on_c, 9, 42, 0
11, 30495, Note_on_c, 9, 35, 0
11, 30540, Note_on_c, 9, 42, 69
11, 30555, Note_on_c, 9, 42, 0
11, 30600, Note_on_c, 9, 42, 76
11, 30615, Note_on_c, 9, 42, 0
11, 30660, Note_on_c, 9, 42, 61
11, 30675, Note_on_c, 9, 42, 0
11, 30720, Note_on_c, 9, 42, 100
11, 30735, Note_on_c, 9, 42, 0
11, 30780, Note_on_c, 9, 42, 69
11, 30795, Note_on_c, 9, 42, 0
11, 30840, Note_on_c, 9, 42, 100
11, 30855, Note_on_c, 9, 42, 0
11, 30900, Note_on_c, 9, 42, 67
11, 30915, Note_on_c, 9, 42, 0
11, 30960, Note_on_c, 9, 42, 100
11, 30975, Note_on_c, 9, 42, 0
11, 31020, Note_on_c, 9, 38, 100
11, 31020, Note_on_c, 9, 42, 67
11, 31035, Note_on_c, 9, 42, 0
11, 31035, Note_on_c, 9, 38, 0
11, 31080, Note_on_c, 9, 42, 100
11, 31095, Note_on_c, 9, 42, 0
11, 31140, Note_on_c, 9, 42, 67
11, 31140, Note_on_c, 9, 35, 100
11, 31155, Note_on_c, 9, 35, 0
11, 31155, Note_on_c, 9, 42, 0
11, 31200, Note_on_c, 9, 42, 100
11, 31215, Note_on_c, 9, 42, 0
11, 31260, Note_on_c, 9, 42, 67
11, 31275, Note_on_c, 9, 42, 0
11, 31320, Note_on_c, 9, 42, 100
11, 31335, Note_on_c, 9, 42, 0
11, 31380, Note_on_c, 9, 42, 67
11, 31380, Note_on_c, 9, 35, 100
11, 31395, Note_on_c, 9, 35, 0
11, 31395, Note_on_c, 9, 42, 0
11, 31440, Note_on_c, 9, 42, 100
11, 31455, Note_on_c, 9, 42, 0
11, 31500, Note_on_c, 9, 42, 67
11, 31515, Note_on_c, 9, 42, 0
11, 31560, Note_on_c, 9, 42, 100
11, 31575, Note_on_c, 9, 42, 0
11, 31620, Note_on_c, 9, 42, 67
11, 31635, Note_on_c, 9, 42, 0
11, 31680, Note_on_c, 9, 42, 100
11, 31695, Note_on_c, 9, 42, 0
11, 31740, Note_on_c, 9, 42, 100
11, 31755, Note_on_c, 9, 42, 0
11, 31800, Note_on_c, 9, 38, 100
11, 31800, Note_on_c, 9, 42, 100
11, 31815, Note_on_c, 9, 42, 0
11, 31815, Note_on_c, 9, 38, 0
11, 31860, Note_on_c, 9, 42, 100
11, 31875, Note_on_c, 9, 42, 0
11, 31890, Note_on_c, 9, 46, 100
11, 31905, Note_on_c, 9, 46, 0
11, 31920, Note_on_c, 9, 35, 100
11, 31920, Note_on_c, 9, 42, 100
11, 31935, Note_on_c, 9, 42, 0
11, 31935, Note_on_c, 9, 35, 0
11, 31980, Note_on_c, 9, 42, 69
11, 31995, Note_on_c, 9, 42, 0
11, 32040, Note_on_c, 9, 42, 100
11, 32055, Note_on_c, 9, 42, 0
11, 32100, Note_on_c, 9, 42, 67
11, 32115, Note_on_c, 9, 42, 0
11, 32160, Note_on_c, 9, 42, 100
11, 32175, Note_on_c, 9, 42, 0
11, 32220, Note_on_c, 9, 42, 67
11, 32235, Note_on_c, 9, 42, 0
11, 32280, Note_on_c, 9, 42, 100
11, 32295, Note_on_c, 9, 42, 0
11, 32340, Note_on_c, 9, 42, 67
11, 32355, Note_on_c, 9, 42, 0
11, 32400, Note_on_c, 9, 42, 100
11, 32415, Note_on_c, 9, 42, 0
11, 32460, Note_on_c, 9, 42, 67
11, 32460, Note_on_c, 9, 38, 100
11, 32475, Note_on_c, 9, 38, 0
11, 32475, Note_on_c, 9, 42, 0
11, 32520, Note_on_c, 9, 42, 100
11, 32535, Note_on_c, 9, 42, 0
11, 32580, Note_on_c, 9, 42, 67
11, 32580, Note_on_c, 9, 35, 100
11, 32595, Note_on_c, 9, 35, 0
11, 32595, Note_on_c, 9, 42, 0
11, 32640, Note_on_c, 9, 42, 100
11, 32655, Note_on_c, 9, 42, 0
11, 32700, Note_on_c, 9, 42, 100
11, 32715, Note_on_c, 9, 42, 0
11, 32760, Note_on_c, 9, 46, 100
11, 32775, Note_on_c, 9, 46, 0
11, 32820, Note_on_c, 9, 35, 100
11, 32835, Note_on_c, 9, 35, 0
11, 32880, Note_on_c, 9, 42, 100
11, 32895, Note_on_c, 9, 42, 0
11, 32940, Note_on_c, 9, 42, 100
11, 32955, Note_on_c, 9, 42, 0
11, 33000, Note_on_c, 9, 42, 100
11, 33015, Note_on_c, 9, 42, 0
11, 33060, Note_on_c, 9, 46, 100
11, 33075, Note_on_c, 9, 46, 0
11, 33180, Note_on_c, 9, 42, 100
11, 33195, Note_on_c, 9, 42, 0
11, 33240, Note_on_c, 9, 46, 100
11, 33240, Note_on_c, 9, 38, 100
11, 33255, Note_on_c, 9, 38, 0
11, 33255, Note_on_c, 9, 46, 0
11, 33300, Note_on_c, 9, 42, 100
11, 33315, Note_on_c, 9, 42, 0
11, 33360, Note_on_c, 9, 35, 100
11, 33360, Note_on_c, 9, 42, 90
11, 33375, Note_on_c, 9, 42, 0
11, 33375, Note_on_c, 9, 35, 0
11, 33420, Note_on_c, 9, 42, 69
11, 33435, Note_on_c, 9, 42, 0
11, 33480, Note_on_c, 9, 42, 76
11, 33495, Note_on_c, 9, 42, 0
11, 33540, Note_on_c, 9, 42, 61
11, 33555, Note_on_c, 9, 42, 0
11, 33600, Note_on_c, 9, 42, 100
11, 33615, Note_on_c, 9, 42, 0
11, 33660, Note_on_c, 9, 42, 69
11, 33675, Note_on_c, 9, 42, 0
11, 33720, Note_on_c, 9, 42, 100
11, 33735, Note_on_c, 9, 42, 0
11, 33780, Note_on_c, 9, 42, 67
11, 33795, Note_on_c, 9, 42, 0
11, 33840, Note_on_c, 9, 42, 100
11, 33855, Note_on_c, 9, 42, 0
11, 33900, Note_on_c, 9, 38, 100
11, 33900, Note_on_c, 9, 42, 67
11, 33915, Note_on_c, 9, 42, 0
11, 33915, Note_on_c, 9, 38, 0
11, 33960, Note_on_c, 9, 42, 100
11, 33975, Note_on_c, 9, 42, 0
11, 34020, Note_on_c, 9, 35, 100
11, 34020, Note_on_c, 9, 42, 67
11, 34035, Note_on_c, 9, 42, 0
11, 34035, Note_on_c, 9, 35, 0
11, 34080, Note_on_c, 9, 42, 100
11, 34095, Note_on_c, 9, 42, 0
11, 34140, Note_on_c, 9, 42, 67
11, 34155, Note_on_c, 9, 42, 0
11, 34200, Note_on_c, 9, 42, 100
11, 34215, Note_on_c, 9, 42, 0
11, 34260, Note_on_c, 9, 42, 67
11, 34260, Note_on_c, 9, 35, 100
11, 34275, Note_on_c, 9, 35, 0
11, 34275, Note_on_c, 9, 42, 0
11, 34320, Note_on_c, 9, 42, 100
11, 34335, Note_on_c, 9, 42, 0
11, 34380, Note_on_c, 9, 42, 67
11, 34395, Note_on_c, 9, 42, 0
11, 34440, Note_on_c, 9, 42, 100
11, 34455, Note_on_c, 9, 42, 0
11, 34500, Note_on_c, 9, 42, 67
11, 34515, Note_on_c, 9, 42, 0
11, 34560, Note_on_c, 9, 42, 100
11, 34575, Note_on_c, 9, 42, 0
11, 34620, Note_on_c, 9, 42, 100
11, 34635, Note_on_c, 9, 42, 0
11, 34680, Note_on_c, 9, 42, 100
11, 34680, Note_on_c, 9, 38, 100
11, 34695, Note_on_c, 9, 38, 0
11, 34695, Note_on_c, 9, 42, 0
11, 34740, Note_on_c, 9, 42, 100
11, 34755, Note_on_c, 9, 42, 0
11, 34770, Note_on_c, 9, 46, 100
11, 34785, Note_on_c, 9, 46, 0
11, 34800, Note_on_c, 9, 35, 100
11, 34800, Note_on_c, 9, 42, 100
11, 34815, Note_on_c, 9, 42, 0
11, 34815, Note_on_c, 9, 35, 0
11, 34860, Note_on_c, 9, 42, 69
11, 34875, Note_on_c, 9, 42, 0
11, 34920, Note_on_c, 9, 42, 100
11, 34935, Note_on_c, 9, 42, 0
11, 34980, Note_on_c, 9, 42, 67
11, 34995, Note_on_c, 9, 42, 0
11, 35040, Note_on_c, 9, 42, 100
11, 35055, Note_on_c, 9, 42, 0
11, 35100, Note_on_c, 9, 42, 67
11, 35115, Note_on_c, 9, 42, 0
11, 35160, Note_on_c, 9, 42, 100
11, 35175, Note_on_c, 9, 42, 0
11, 35220, Note_on_c, 9, 42, 67
11, 35235, Note_on_c, 9, 42, 0
11, 35280, Note_on_c, 9, 42, 100
11, 35295, Note_on_c, 9, 42, 0
11, 35340, Note_on_c, 9, 38, 100
11, 35340, Note_on_c, 9, 42, 67
11, 35355, Note_on_c, 9, 42, 0
11, 35355, Note_on_c, 9, 38, 0
11, 35400, Note_on_c, 9, 42, 100
11, 35415, Note_on_c, 9, 42, 0
11, 35460, Note_on_c, 9, 42, 67
11, 35460, Note_on_c, 9, 35, 100
11, 35475, Note_on_c, 9, 35, 0
11, 35475, Note_on_c, 9, 42, 0
11, 35520, Note_on_c, 9, 42, 100
11, 35535, Note_on_c, 9, 42, 0
11, 35580, Note_on_c, 9, 42, 100
11, 35595, Note_on_c, 9, 42, 0
11, 35640, Note_on_c, 9, 46, 100
11, 35655, Note_on_c, 9, 46, 0
11, 35700, Note_on_c, 9, 35, 100
11, 35715, Note_on_c, 9, 35, 0
11, 35760, Note_on_c, 9, 42, 100
11, 35775, Note_on_c, 9, 42, 0
11, 35820, Note_on_c, 9, 42, 100
11, 35835, Note_on_c, 9, 42, 0
11, 35880, Note_on_c, 9, 42, 100
11, 35895, Note_on_c, 9, 42, 0
11, 35940, Note_on_c, 9, 46, 100
11, 35955, Note_on_c, 9, 46, 0
11, 36060, Note_on_c, 9, 42, 100
11, 36075, Note_on_c, 9, 42, 0
11, 36120, Note_on_c, 9, 38, 100
11, 36120, Note_on_c, 9, 46, 100
11, 36135, Note_on_c, 9, 46, 0
11, 36135, Note_on_c, 9, 38, 0
11, 36180, Note_on_c, 9, 42, 100
11, 36195, Note_on_c, 9, 42, 0
11, 36240, Note_on_c, 9, 42, 90
11, 36240, Note_on_c, 9, 35, 100
11, 36255, Note_on_c, 9, 35, 0
11, 36255, Note_on_c, 9, 42, 0
11, 36300, Note_on_c, 9, 42, 69
11, 36315, Note_on_c, 9, 42, 0
11, 36360, Note_on_c, 9, 42, 76
11, 36375, Note_on_c, 9, 42, 0
11, 36420, Note_on_c, 9, 42, 61
11, 36435, Note_on_c, 9, 42, 0
11, 36480, Note_on_c, 9, 42, 100
11, 36495, Note_on_c, 9, 42, 0
11, 36540, Note_on_c, 9, 42, 69
11, 36555, Note_on_c, 9, 42, 0
11, 36600, Note_on_c, 9, 42, 100
11, 36615, Note_on_c, 9, 42, 0
11, 36660, Note_on_c, 9, 42, 67
11, 36675, Note_on_c, 9, 42, 0
11, 36720, Note_on_c, 9, 42, 100
11, 36735, Note_on_c, 9, 42, 0
11, 36780, Note_on_c, 9, 38, 100
11, 36780, Note_on_c, 9, 42, 67
11, 36795, Note_on_c, 9, 42, 0
11, 36795, Note_on_c, 9, 38, 0
11, 36840, Note_on_c, 9, 42, 100
11, 36855, Note_on_c, 9, 42, 0
11, 36900, Note_on_c, 9, 42, 67
11, 36900, Note_on_c, 9, 35, 100
11, 36915, Note_on_c, 9, 35, 0
11, 36915, Note_on_c, 9, 42, 0
11, 36960, Note_on_c, 9, 42, 100
11, 36975, Note_on_c, 9, 42, 0
11, 37020, Note_on_c, 9, 42, 67
11, 37035, Note_on_c, 9, 42, 0
11, 37080, Note_on_c, 9, 42, 100
11, 37095, Note_on_c, 9, 42, 0
11, 37140, Note_on_c, 9, 42, 67
11, 37140, Note_on_c, 9, 35, 100
11, 37155, Note_on_c, 9, 35, 0
11, 37155, Note_on_c, 9, 42, 0
11, 37200, Note_on_c, 9, 42, 100
11, 37215, Note_on_c, 9, 42, 0
11, 37260, Note_on_c, 9, 42, 67
11, 37275, Note_on_c, 9, 42, 0
11, 37320, Note_on_c, 9, 42, 100
11, 37335, Note_on_c, 9, 42, 0
11, 37380, Note_on_c, 9, 42, 67
11, 37395, Note_on_c, 9, 42, 0
11, 37440, Note_on_c, 9, 42, 100
11, 37455, Note_on_c, 9, 42, 0
11, 37500, Note_on_c, 9, 42, 100
11, 37515, Note_on_c, 9, 42, 0
11, 37560, Note_on_c, 9, 38, 100
11, 37560, Note_on_c, 9, 42, 100
11, 37575, Note_on_c, 9, 42, 0
11, 37575, Note_on_c, 9, 38, 0
11, 37620, Note_on_c, 9, 42, 100
11, 37635, Note_on_c, 9, 42, 0
11, 37650, Note_on_c, 9, 46, 100
11, 37665, Note_on_c, 9, 46, 0
11, 37680, Note_on_c, 9, 35, 100
11, 37680, Note_on_c, 9, 42, 100
11, 37695, Note_on_c, 9, 42, 0
11, 37695, Note_on_c, 9, 35, 0
11, 37740, Note_on_c, 9, 42, 69
11, 37755, Note_on_c, 9, 42, 0
11, 37800, Note_on_c, 9, 42, 100
11, 37815, Note_on_c, 9, 42, 0
11, 37860, Note_on_c, 9, 42, 67
11, 37875, Note_on_c, 9, 42, 0
11, 37920, Note_on_c, 9, 42, 100
11, 37935, Note_on_c, 9, 42, 0
11, 37980, Note_on_c, 9, 42, 67
11, 37995, Note_on_c, 9, 42, 0
11, 38040, Note_on_c, 9, 42, 100
11, 38055, Note_on_c, 9, 42, 0
11, 38100, Note_on_c, 9, 42, 67
11, 38115, Note_on_c, 9, 42, 0
11, 38160, Note_on_c, 9, 42, 100
11, 38175, Note_on_c, 9, 42, 0
11, 38220, Note_on_c, 9, 42, 67
11, 38220, Note_on_c, 9, 38, 100
11, 38235, Note_on_c, 9, 38, 0
11, 38235, Note_on_c, 9, 42, 0
11, 38280, Note_on_c, 9, 42, 100
11, 38295, Note_on_c, 9, 42, 0
11, 38340, Note_on_c, 9, 35, 100
11, 38340, Note_on_c, 9, 42, 67
11, 38355, Note_on_c, 9, 42, 0
11, 38355, Note_on_c, 9, 35, 0
11, 38400, Note_on_c, 9, 42, 100
11, 38415, Note_on_c, 9, 42, 0
11, 38460, Note_on_c, 9, 42, 100
11, 38475, Note_on_c, 9, 42, 0
11, 38520, Note_on_c, 9, 46, 100
11, 38535, Note_on_c, 9, 46, 0
11, 38580, Note_on_c, 9, 35, 100
11, 38595, Note_on_c, 9, 35, 0
11, 38640, Note_on_c, 9, 42, 100
11, 38655, Note_on_c, 9, 42, 0
11, 38700, Note_on_c, 9, 42, 100
11, 38715, Note_on_c, 9, 42, 0
11, 38760, Note_on_c, 9, 42, 100
11, 38775, Note_on_c, 9, 42, 0
11, 38820, Note_on_c, 9, 46, 100
11, 38835, Note_on_c, 9, 46, 0
11, 38940, Note_on_c, 9, 42, 100
11, 38955, Note_on_c, 9, 42, 0
11, 39000, Note_on_c, 9, 46, 100
11, 39000, Note_on_c, 9, 38, 100
11, 39015, Note_on_c, 9, 38, 0
11, 39015, Note_on_c, 9, 46, 0
11, 39060, Note_on_c, 9, 42, 100
11, 39075, Note_on_c, 9, 42, 0
11, 39120, Note_on_c, 9, 42, 90
11, 39120, Note_on_c, 9, 35, 100
11, 39135, Note_on_c, 9, 35, 0
11, 39135, Note_on_c, 9, 42, 0
11, 39180, Note_on_c, 9, 42, 69
11, 39195, Note_on_c, 9, 42, 0
11, 39240, Note_on_c, 9, 42, 76
11, 39255, Note_on_c, 9, 42, 0
11, 39300, Note_on_c, 9, 42, 61
11, 39315, Note_on_c, 9, 42, 0
11, 39360, Note_on_c, 9, 42, 100
11, 39375, Note_on_c, 9, 42, 0
11, 39420, Note_on_c, 9, 42, 69
11, 39435, Note_on_c, 9, 42, 0
11, 39480, Note_on_c, 9, 42, 100
11, 39495, Note_on_c, 9, 42, 0
11, 39540, Note_on_c, 9, 42, 67
11, 39555, Note_on_c, 9, 42, 0
11, 39600, Note_on_c, 9, 42, 100
11, 39615, Note_on_c, 9, 42, 0
11, 39660, Note_on_c, 9, 38, 100
11, 39660, Note_on_c, 9, 42, 67
11, 39675, Note_on_c, 9, 42, 0
11, 39675, Note_on_c, 9, 38, 0
11, 39720, Note_on_c, 9, 42, 100
11, 39735, Note_on_c, 9, 42, 0
11, 39780, Note_on_c, 9, 42, 67
11, 39780, Note_on_c, 9, 35, 100
11, 39795, Note_on_c, 9, 35, 0
11, 39795, Note_on_c, 9, 42, 0
11, 39840, Note_on_c, 9, 42, 100
11, 39855, Note_on_c, 9, 42, 0
11, 39900, Note_on_c, 9, 42, 67
11, 39915, Note_on_c, 9, 42, 0
11, 39960, Note_on_c, 9, 42, 100
11, 39975, Note_on_c, 9, 42, 0
11, 40020, Note_on_c, 9, 42, 67
11, 40020, Note_on_c, 9, 35, 100
11, 40035, Note_on_c, 9, 35, 0
11, 40035, Note_on_c, 9, 42, 0
11, 40080, Note_on_c, 9, 42, 100
11, 40095, Note_on_c, 9, 42, 0
11, 40140, Note_on_c, 9, 42, 67
11, 40155, Note_on_c, 9, 42, 0
11, 40200, Note_on_c, 9, 42, 100
11, 40215, Note_on_c, 9, 42, 0
11, 40260, Note_on_c, 9, 42, 67
11, 40275, Note_on_c, 9, 42, 0
11, 40320, Note_on_c, 9, 42, 100
11, 40335, Note_on_c, 9, 42, 0
11, 40380, Note_on_c, 9, 42, 100
11, 40395, Note_on_c, 9, 42, 0
11, 40440, Note_on_c, 9, 42, 100
11, 40440, Note_on_c, 9, 38, 100
11, 40455, Note_on_c, 9, 38, 0
11, 40455, Note_on_c, 9, 42, 0
11, 40500, Note_on_c, 9, 42, 100
11, 40515, Note_on_c, 9, 42, 0
11, 40530, Note_on_c, 9, 46, 100
11, 40545, Note_on_c, 9, 46, 0
11, 40560, Note_on_c, 9, 35, 100
11, 40560, Note_on_c, 9, 42, 100
11, 40575, Note_on_c, 9, 42, 0
11, 40575, Note_on_c, 9, 35, 0
11, 40620, Note_on_c, 9, 42, 69
11, 40635, Note_on_c, 9, 42, 0
11, 40680, Note_on_c, 9, 42, 100
11, 40695, Note_on_c, 9, 42, 0
11, 40740, Note_on_c, 9, 42, 67
11, 40755, Note_on_c, 9, 42, 0
11, 40800, Note_on_c, 9, 42, 100
11, 40815, Note_on_c, 9, 42, 0
11, 40860, Note_on_c, 9, 42, 67
11, 40875, Note_on_c, 9, 42, 0
11, 40920, Note_on_c, 9, 42, 100
11, 40935, Note_on_c, 9, 42, 0
11, 40980, Note_on_c, 9, 42, 67
11, 40995, Note_on_c, 9, 42, 0
11, 41040, Note_on_c, 9, 42, 100
11, 41055, Note_on_c, 9, 42, 0
11, 41100, Note_on_c, 9, 42, 67
11, 41100, Note_on_c, 9, 38, 100
11, 41115, Note_on_c, 9, 38, 0
11, 41115, Note_on_c, 9, 42, 0
11, 41160, Note_on_c, 9, 42, 100
11, 41175, Note_on_c, 9, 42, 0
11, 41220, Note_on_c, 9, 42, 67
11, 41220, Note_on_c, 9, 35, 100
11, 41235, Note_on_c, 9, 35, 0
11, 41235, Note_on_c, 9, 42, 0
11, 41280, Note_on_c, 9, 42, 100
11, 41295, Note_on_c, 9, 42, 0
11, 41340, Note_on_c, 9, 42, 100
11, 41355, Note_on_c, 9, 42, 0
11, 41400, Note_on_c, 9, 46, 100
11, 41415, Note_on_c, 9, 46, 0
11, 41460, Note_on_c, 9, 35, 100
11, 41475, Note_on_c, 9, 35, 0
11, 41520, Note_on_c, 9, 42, 100
11, 41535, Note_on_c, 9, 42, 0
11, 41580, Note_on_c, 9, 42, 100
11, 41595, Note_on_c, 9, 42, 0
11, 41640, Note_on_c, 9, 42, 100
11, 41655, Note_on_c, 9, 42, 0
11, 41700, Note_on_c, 9, 46, 100
11, 41715, Note_on_c, 9, 46, 0
11, 41820, Note_on_c, 9, 42, 100
11, 41835, Note_on_c, 9, 42, 0
11, 41880, Note_on_c, 9, 38, 100
11, 41880, Note_on_c, 9, 46, 100
11, 41895, Note_on_c, 9, 46, 0
11, 41895, Note_on_c, 9, 38, 0
11, 41940, Note_on_c, 9, 42, 100
11, 41955, Note_on_c, 9, 42, 0
11, 42000, Note_on_c, 9, 42, 90
11, 42000, Note_on_c, 9, 35, 100
11, 42015, Note_on_c, 9, 35, 0
11, 42015, Note_on_c, 9, 42, 0
11, 42060, Note_on_c, 9, 42, 69
11, 42075, Note_on_c, 9, 42, 0
11, 42120, Note_on_c, 9, 42, 76
11, 42135, Note_on_c, 9, 42, 0
11, 42180, Note_on_c, 9, 42, 61
11, 42195, Note_on_c, 9, 42, 0
11, 42240, Note_on_c, 9, 42, 100
11, 42255, Note_on_c, 9, 42, 0
11, 42300, Note_on_c, 9, 42, 69
11, 42315, Note_on_c, 9, 42, 0
11, 42360, Note_on_c, 9, 42, 100
11, 42375, Note_on_c, 9, 42, 0
11, 42420, Note_on_c, 9, 42, 67
11, 42435, Note_on_c, 9, 42, 0
11, 42480, Note_on_c, 9, 42, 100
11, 42495, Note_on_c, 9, 42, 0
11, 42540, Note_on_c, 9, 42, 67
11, 42540, Note_on_c, 9, 38, 100
11, 42555, Note_on_c, 9, 38, 0
11, 42555, Note_on_c, 9, 42, 0
11, 42600, Note_on_c, 9, 42, 100
11, 42615, Note_on_c, 9, 42, 0
11, 42660, Note_on_c, 9, 35, 100
11, 42660, Note_on_c, 9, 42, 67
11, 42675, Note_on_c, 9, 42, 0
11, 42675, Note_on_c, 9, 35, 0
11, 42720, Note_on_c, 9, 42, 100
11, 42735, Note_on_c, 9, 42, 0
11, 42780, Note_on_c, 9, 42, 67
11, 42795, Note_on_c, 9, 42, 0
11, 42840, Note_on_c, 9, 42, 100
11, 42855, Note_on_c, 9, 42, 0
11, 42900, Note_on_c, 9, 35, 100
11, 42900, Note_on_c, 9, 42, 67
11, 42915, Note_on_c, 9, 42, 0
11, 42915, Note_on_c, 9, 35, 0
11, 42960, Note_on_c, 9, 42, 100
11, 42975, Note_on_c, 9, 42, 0
11, 43020, Note_on_c, 9, 42, 67
11, 43035, Note_on_c, 9, 42, 0
11, 43080, Note_on_c, 9, 42, 100
11, 43095, Note_on_c, 9, 42, 0
11, 43140, Note_on_c, 9, 42, 67
11, 43155, Note_on_c, 9, 42, 0
11, 43200, Note_on_c, 9, 42, 100
11, 43215, Note_on_c, 9, 42, 0
11, 43260, Note_on_c, 9, 42, 100
11, 43275, Note_on_c, 9, 42, 0
11, 43320, Note_on_c, 9, 42, 100
11, 43320, Note_on_c, 9, 38, 100
11, 43335, Note_on_c, 9, 38, 0
11, 43335, Note_on_c, 9, 42, 0
11, 43380, Note_on_c, 9, 42, 100
11, 43395, Note_on_c, 9, 42, 0
11, 43410, Note_on_c, 9, 46, 100
11, 43425, Note_on_c, 9, 46, 0
11, 43440, Note_on_c, 9, 42, 100
11, 43440, Note_on_c, 9, 35, 100
11, 43455, Note_on_c, 9, 35, 0
11, 43455, Note_on_c, 9, 42, 0
11, 43500, Note_on_c, 9, 42, 69
11, 43515, Note_on_c, 9, 42, 0
11, 43560, Note_on_c, 9, 42, 100
11, 43575, Note_on_c, 9, 42, 0
11, 43620, Note_on_c, 9, 42, 67
11, 43635, Note_on_c, 9, 42, 0
11, 43680, Note_on_c, 9, 42, 100
11, 43695, Note_on_c, 9, 42, 0
11, 43740, Note_on_c, 9, 42, 67
11, 43755, Note_on_c, 9, 42, 0
11, 43800, Note_on_c, 9, 42, 100
11, 43815, Note_on_c, 9, 42, 0
11, 43860, Note_on_c, 9, 42, 67
11, 43875, Note_on_c, 9, 42, 0
11, 43920, Note_on_c, 9, 42, 100
11, 43935, Note_on_c, 9, 42, 0
11, 43980, Note_on_c, 9, 38, 100
11, 43980, Note_on_c, 9, 42, 67
11, 43995, Note_on_c, 9, 42, 0
11, 43995, Note_on_c, 9, 38, 0
11, 44040, Note_on_c, 9, 42, 100
11, 44055, Note_on_c, 9, 42, 0
11, 44100, Note_on_c, 9, 35, 100
11, 44100, Note_on_c, 9, 42, 67
11, 44115, Note_on_c, 9, 42, 0
11, 44115, Note_on_c, 9, 35, 0
11, 44160, Note_on_c, 9, 42, 100
11, 44175, Note_on_c, 9, 42, 0
11, 44220, Note_on_c, 9, 42, 100
11, 44235, Note_on_c, 9, 42, 0
11, 44280, Note_on_c, 9, 46, 100
11, 44295, Note_on_c, 9, 46, 0
11, 44340, Note_on_c, 9, 35, 100
11, 44355, Note_on_c, 9, 35, 0
11, 44400, Note_on_c, 9, 42, 100
11, 44415, Note_on_c, 9, 42, 0
11, 44460, Note_on_c, 9, 42, 100
11, 44475, Note_on_c, 9, 42, 0
11, 44520, Note_on_c, 9, 42, 100
11, 44535, Note_on_c, 9, 42, 0
11, 44580, Note_on_c, 9, 46, 100
11, 44595, Note_on_c, 9, 46, 0
11, 44700, Note_on_c, 9, 42, 100
11, 44715, Note_on_c, 9, 42, 0
11, 44760, Note_on_c, 9, 38, 100
11, 44760, Note_on_c, 9, 46, 100
11, 44775, Note_on_c, 9, 46, 0
11, 44775, Note_on_c, 9, 38, 0
11, 44820, Note_on_c, 9, 42, 100
11, 44835, Note_on_c, 9, 42, 0
11, 44880, Note_on_c, 9, 42, 90
11, 44880, Note_on_c, 9, 35, 100
11, 44895, Note_on_c, 9, 35, 0
11, 44895, Note_on_c, 9, 42, 0
11, 44940, Note_on_c, 9, 42, 69
11, 44955, Note_on_c, 9, 42, 0
11, 45000, Note_on_c, 9, 42, 76
11, 45015, Note_on_c, 9, 42, 0
11, 45060, Note_on_c, 9, 42, 61
11, 45075, Note_on_c, 9, 42, 0
11, 45120, Note_on_c, 9, 42, 100
11, 45135, Note_on_c, 9, 42, 0
11, 45180, Note_on_c, 9, 42, 69
11, 45195, Note_on_c, 9, 42, 0
11, 45240, Note_on_c, 9, 42, 100
11, 45255, Note_on_c, 9, 42, 0
11, 45300, Note_on_c, 9, 42, 67
11, 45315, Note_on_c, 9, 42, 0
11, 45360, Note_on_c, 9, 42, 100
11, 45375, Note_on_c, 9, 42, 0
11, 45420, Note_on_c, 9, 42, 67
11, 45420, Note_on_c, 9, 38, 100
11, 45435, Note_on_c, 9, 38, 0
11, 45435, Note_on_c, 9, 42, 0
11, 45480, Note_on_c, 9, 42, 100
11, 45495, Note_on_c, 9, 42, 0
11, 45540, Note_on_c, 9, 42, 67
11, 45540, Note_on_c, 9, 35, 100
11, 45555, Note_on_c, 9, 35, 0
11, 45555, Note_on_c, 9, 42, 0
11, 45600, Note_on_c, 9, 42, 100
11, 45615, Note_on_c, 9, 42, 0
11, 45660, Note_on_c, 9, 42, 67
11, 45675, Note_on_c, 9, 42, 0
11, 45720, Note_on_c, 9, 42, 100
11, 45735, Note_on_c, 9, 42, 0
11, 45780, Note_on_c, 9, 35, 100
11, 45780, Note_on_c, 9, 42, 67
11, 45795, Note_on_c, 9, 42, 0
11, 45795, Note_on_c, 9, 35, 0
11, 45840, Note_on_c, 9, 42, 100
11, 45855, Note_on_c, 9, 42, 0
11, 45900, Note_on_c, 9, 42, 67
11, 45915, Note_on_c, 9, 42, 0
11, 45960, Note_on_c, 9, 42, 100
11, 45975, Note_on_c, 9, 42, 0
11, 46020, Note_on_c, 9, 42, 67
11, 46035, Note_on_c, 9, 42, 0
11, 46080, Note_on_c, 9, 42, 100
11, 46095, Note_on_c, 9, 42, 0
11, 46140, Note_on_c, 9, 42, 100
11, 46155, Note_on_c, 9, 42, 0
11, 46200, Note_on_c, 9, 42, 100
11, 46200, Note_on_c, 9, 38, 100
11, 46215, Note_on_c, 9, 38, 0
11, 46215, Note_on_c, 9, 42, 0
11, 46260, Note_on_c, 9, 42, 100
11, 46275, Note_on_c, 9, 42, 0
11, 46290, Note_on_c, 9, 46, 100
11, 46305, Note_on_c, 9, 46, 0
11, 46320, Note_on_c, 9, 35, 100
11, 46320, Note_on_c, 9, 42, 100
11, 46335, Note_on_c, 9, 42, 0
11, 46335, Note_on_c, 9, 35, 0
11, 46380, Note_on_c, 9, 42, 69
11, 46395, Note_on_c, 9, 42, 0
11, 46440, Note_on_c, 9, 42, 100
11, 46455, Note_on_c, 9, 42, 0
11, 46500, Note_on_c, 9, 42, 67
11, 46515, Note_on_c, 9, 42, 0
11, 46560, Note_on_c, 9, 42, 100
11, 46575, Note_on_c, 9, 42, 0
11, 46620, Note_on_c, 9, 42, 67
11, 46635, Note_on_c, 9, 42, 0
11, 46680, Note_on_c, 9, 42, 100
11, 46695, Note_on_c, 9, 42, 0
11, 46740, Note_on_c, 9, 42, 67
11, 46755, Note_on_c, 9, 42, 0
11, 46800, Note_on_c, 9, 42, 100
11, 46815, Note_on_c, 9, 42, 0
11, 46860, Note_on_c, 9, 38, 100
11, 46860, Note_on_c, 9, 42, 67
11, 46875, Note_on_c, 9, 42, 0
11, 46875, Note_on_c, 9, 38, 0
11, 46920, Note_on_c, 9, 42, 100
11, 46935, Note_on_c, 9, 42, 0
11, 46980, Note_on_c, 9, 42, 67
11, 46980, Note_on_c, 9, 35, 100
11, 46995, Note_on_c, 9, 35, 0
11, 46995, Note_on_c, 9, 42, 0
11, 47040, Note_on_c, 9, 42, 100
11, 47055, Note_on_c, 9, 42, 0
11, 47100, Note_on_c, 9, 42, 100
11, 47115, Note_on_c, 9, 42, 0
11, 47160, Note_on_c, 9, 46, 100
11, 47175, Note_on_c, 9, 46, 0
11, 47220, Note_on_c, 9, 35, 100
11, 47235, Note_on_c, 9, 35, 0
11, 47280, Note_on_c, 9, 42, 100
11, 47295, Note_on_c, 9, 42, 0
11, 47340, Note_on_c, 9, 42, 100
11, 47355, Note_on_c, 9, 42, 0
11, 47400, Note_on_c, 9, 42, 100
11, 47415, Note_on_c, 9, 42, 0
11, 47460, Note_on_c, 9, 46, 100
11, 47475, Note_on_c, 9, 46, 0
11, 47580, Note_on_c, 9, 42, 100
11, 47595, Note_on_c, 9, 42, 0
11, 47640, Note_on_c, 9, 46, 100
11, 47640, Note_on_c, 9, 38, 100
11, 47655, Note_on_c, 9, 38, 0
11, 47655, Note_on_c, 9, 46, 0
11, 47700, Note_on_c, 9, 42, 100
11, 47715, Note_on_c, 9, 42, 0
11, 47760, Note_on_c, 9, 54, 84
11, 47760, Note_on_c, 9, 63, 100
11, 47775, Note_on_c, 9, 63, 0
11, 47775, Note_on_c, 9, 54, 0
11, 47820, Note_on_c, 9, 54, 100
11, 47820, Note_on_c, 9, 63, 100
11, 47835, Note_on_c, 9, 63, 0
11, 47835, Note_on_c, 9, 54, 0
11, 47880, Note_on_c, 9, 54, 81
11, 47880, Note_on_c, 9, 62, 100
11, 47895, Note_on_c, 9, 62, 0
11, 47895, Note_on_c, 9, 54, 0
11, 47940, Note_on_c, 9, 54, 81
11, 47940, Note_on_c, 9, 63, 100
11, 47955, Note_on_c, 9, 63, 0
11, 47955, Note_on_c, 9, 54, 0
11, 48000, Note_on_c, 9, 54, 100
11, 48000, Note_on_c, 9, 63, 100
11, 48015, Note_on_c, 9, 63, 0
11, 48015, Note_on_c, 9, 54, 0
11, 48060, Note_on_c, 9, 54, 78
11, 48060, Note_on_c, 9, 62, 100
11, 48075, Note_on_c, 9, 62, 0
11, 48075, Note_on_c, 9, 54, 0
11, 48120, Note_on_c, 9, 54, 100
11, 48120, Note_on_c, 9, 63, 100
11, 48135, Note_on_c, 9, 63, 0
11, 48135, Note_on_c, 9, 54, 0
11, 48180, Note_on_c, 9, 54, 78
11, 48180, Note_on_c, 9, 63, 100
11, 48195, Note_on_c, 9, 63, 0
11, 48195, Note_on_c, 9, 54, 0
11, 48240, Note_on_c, 9, 54, 100
11, 48240, Note_on_c, 9, 62, 100
11, 48255, Note_on_c, 9, 62, 0
11, 48255, Note_on_c, 9, 54, 0
11, 48300, Note_on_c, 9, 54, 78
11, 48300, Note_on_c, 9, 63, 100
11, 48315, Note_on_c, 9, 63, 0
11, 48315, Note_on_c, 9, 54, 0
11, 48360, Note_on_c, 9, 54, 78
11, 48360, Note_on_c, 9, 63, 100
11, 48375, Note_on_c, 9, 63, 0
11, 48375, Note_on_c, 9, 54, 0
11, 48420, Note_on_c, 9, 54, 78
11, 48420, Note_on_c, 9, 62, 100
11, 48435, Note_on_c, 9, 62, 0
11, 48435, Note_on_c, 9, 54, 0
11, 48480, Note_on_c, 9, 54, 84
11, 48480, Note_on_c, 9, 63, 100
11, 48495, Note_on_c, 9, 63, 0
11, 48495, Note_on_c, 9, 54, 0
11, 48540, Note_on_c, 9, 54, 100
11, 48540, Note_on_c, 9, 63, 100
11, 48555, Note_on_c, 9, 63, 0
11, 48555, Note_on_c, 9, 54, 0
11, 48600, Note_on_c, 9, 54, 81
11, 48600, Note_on_c, 9, 62, 100
11, 48615, Note_on_c, 9, 62, 0
11, 48615, Note_on_c, 9, 54, 0
11, 48660, Note_on_c, 9, 54, 81
11, 48660, Note_on_c, 9, 63, 100
11, 48675, Note_on_c, 9, 63, 0
11, 48675, Note_on_c, 9, 54, 0
11, 48720, Note_on_c, 9, 54, 100
11, 48720, Note_on_c, 9, 63, 100
11, 48735, Note_on_c, 9, 63, 0
11, 48735, Note_on_c, 9, 54, 0
11, 48780, Note_on_c, 9, 54, 78
11, 48780, Note_on_c, 9, 62, 100
11, 48795, Note_on_c, 9, 62, 0
11, 48795, Note_on_c, 9, 54, 0
11, 48840, Note_on_c, 9, 54, 100
11, 48840, Note_on_c, 9, 63, 100
11, 48855, Note_on_c, 9, 63, 0
11, 48855, Note_on_c, 9, 54, 0
11, 48900, Note_on_c, 9, 54, 78
11, 48900, Note_on_c, 9, 63, 100
11, 48915, Note_on_c, 9, 63, 0
11, 48915, Note_on_c, 9, 54, 0
11, 48960, Note_on_c, 9, 54, 100
11, 48960, Note_on_c, 9, 62, 100
11, 48975, Note_on_c, 9, 62, 0
11, 48975, Note_on_c, 9, 54, 0
11, 49020, Note_on_c, 9, 54, 78
11, 49020, Note_on_c, 9, 63, 100
11, 49035, Note_on_c, 9, 63, 0
11, 49035, Note_on_c, 9, 54, 0
11, 49080, Note_on_c, 9, 54, 78
11, 49080, Note_on_c, 9, 63, 100
11, 49095, Note_on_c, 9, 63, 0
11, 49095, Note_on_c, 9, 54, 0
11, 49140, Note_on_c, 9, 54, 78
11, 49140, Note_on_c, 9, 62, 100
11, 49155, Note_on_c, 9, 62, 0
11, 49155, Note_on_c, 9, 54, 0
11, 49200, Note_on_c, 9, 63, 100
11, 49200, Note_on_c, 9, 54, 84
11, 49215, Note_on_c, 9, 54, 0
11, 49215, Note_on_c, 9, 63, 0
11, 49260, Note_on_c, 9, 63, 100
11, 49260, Note_on_c, 9, 54, 100
11, 49275, Note_on_c, 9, 54, 0
11, 49275, Note_on_c, 9, 63, 0
11, 49320, Note_on_c, 9, 62, 100
11, 49320, Note_on_c, 9, 54, 81
11, 49335, Note_on_c, 9, 54, 0
11, 49335, Note_on_c, 9, 62, 0
11, 49380, Note_on_c, 9, 63, 100
11, 49380, Note_on_c, 9, 54, 81
11, 49395, Note_on_c, 9, 54, 0
11, 49395, Note_on_c, 9, 63, 0
11, 49440, Note_on_c, 9, 63, 100
11, 49440, Note_on_c, 9, 54, 100
11, 49455, Note_on_c, 9, 54, 0
11, 49455, Note_on_c, 9, 63, 0
11, 49500, Note_on_c, 9, 62, 100
11, 49500, Note_on_c, 9, 54, 78
11, 49515, Note_on_c, 9, 54, 0
11, 49515, Note_on_c, 9, 62, 0
11, 49560, Note_on_c, 9, 63, 100
11, 49560, Note_on_c, 9, 54, 100
11, 49575, Note_on_c, 9, 54, 0
11, 49575, Note_on_c, 9, 63, 0
11, 49620, Note_on_c, 9, 63, 100
11, 49620, Note_on_c, 9, 54, 78
11, 49635, Note_on_c, 9, 54, 0
11, 49635, Note_on_c, 9, 63, 0
11, 49680, Note_on_c, 9, 62, 100
11, 49680, Note_on_c, 9, 54, 100
11, 49695, Note_on_c, 9, 54, 0
11, 49695, Note_on_c, 9, 62, 0
11, 49740, Note_on_c, 9, 63, 100
11, 49740, Note_on_c, 9, 54, 78
11, 49755, Note_on_c, 9, 54, 0
11, 49755, Note_on_c, 9, 63, 0
11, 49800, Note_on_c, 9, 63, 100
11, 49800, Note_on_c, 9, 54, 78
11, 49815, Note_on_c, 9, 54, 0
11, 49815, Note_on_c, 9, 63, 0
11, 49860, Note_on_c, 9, 62, 100
11, 49860, Note_on_c, 9, 54, 78
11, 49875, Note_on_c, 9, 54, 0
11, 49875, Note_on_c, 9, 62, 0
11, 49920, Note_on_c, 9, 54, 84
11, 49920, Note_on_c, 9, 63, 100
11, 49935, Note_on_c, 9, 63, 0
11, 49935, Note_on_c, 9, 54, 0
11, 49980, Note_on_c, 9, 54, 100
11, 49980, Note_on_c, 9, 63, 100
11, 49995, Note_on_c, 9, 63, 0
11, 49995, Note_on_c, 9, 54, 0
11, 50040, Note_on_c, 9, 54, 81
11, 50040, Note_on_c, 9, 62, 100
11, 50055, Note_on_c, 9, 62, 0
11, 50055, Note_on_c, 9, 54, 0
11, 50100, Note_on_c, 9, 54, 81
11, 50100, Note_on_c, 9, 63, 100
11, 50115, Note_on_c, 9, 63, 0
11, 50115, Note_on_c, 9, 54, 0
11, 50160, Note_on_c, 9, 54, 100
11, 50160, Note_on_c, 9, 63, 100
11, 50175, Note_on_c, 9, 63, 0
11, 50175, Note_on_c, 9, 54, 0
11, 50220, Note_on_c, 9, 54, 78
11, 50220, Note_on_c, 9, 62, 100
11, 50235, Note_on_c, 9, 62, 0
11, 50235, Note_on_c, 9, 54, 0
11, 50280, Note_on_c, 9, 54, 100
11, 50280, Note_on_c, 9, 63, 100
11, 50295, Note_on_c, 9, 63, 0
11, 50295, Note_on_c, 9, 54, 0
11, 50340, Note_on_c, 9, 54, 78
11, 50340, Note_on_c, 9, 63, 100
11, 50355, Note_on_c, 9, 63, 0
11, 50355, Note_on_c, 9, 54, 0
11, 50400, Note_on_c, 9, 54, 100
11, 50400, Note_on_c, 9, 62, 100
11, 50415, Note_on_c, 9, 62, 0
11, 50415, Note_on_c, 9, 54, 0
11, 50460, Note_on_c, 9, 54, 78
11, 50460, Note_on_c, 9, 63, 100
11, 50475, Note_on_c, 9, 63, 0
11, 50475, Note_on_c, 9, 54, 0
11, 50520, Note_on_c, 9, 54, 78
11, 50520, Note_on_c, 9, 63, 100
11, 50535, Note_on_c, 9, 63, 0
11, 50535, Note_on_c, 9, 54, 0
11, 50580, Note_on_c, 9, 54, 78
11, 50580, Note_on_c, 9, 62, 100
11, 50595, Note_on_c, 9, 62, 0
11, 50595, Note_on_c, 9, 54, 0
11, 54000, Note_on_c, 9, 54, 90
11, 54015, Note_on_c, 9, 54, 0
11, 54030, Note_on_c, 9, 54, 66
11, 54045, Note_on_c, 9, 54, 0
11, 54060, Note_on_c, 9, 54, 92
11, 54075, Note_on_c, 9, 54, 0
11, 54090, Note_on_c, 9, 54, 66
11, 54105, Note_on_c, 9, 54, 0
11, 54120, Note_on_c, 9, 54, 100
11, 54135, Note_on_c, 9, 54, 0
11, 54180, Note_on_c, 9, 54, 66
11, 54195, Note_on_c, 9, 54, 0
11, 54240, Note_on_c, 9, 54, 66
11, 54255, Note_on_c, 9, 54, 0
11, 54300, Note_on_c, 9, 54, 100
11, 54315, Note_on_c, 9, 54, 0
11, 54360, Note_on_c, 9, 54, 66
11, 54375, Note_on_c, 9, 54, 0
11, 54420, Note_on_c, 9, 54, 82
11, 54435, Note_on_c, 9, 54, 0
11, 54480, Note_on_c, 9, 54, 100
11, 54495, Note_on_c, 9, 54, 0
11, 54540, Note_on_c, 9, 54, 66
11, 54555, Note_on_c, 9, 54, 0
11, 54600, Note_on_c, 9, 54, 66
11, 54615, Note_on_c, 9, 54, 0
11, 54660, Note_on_c, 9, 54, 66
11, 54675, Note_on_c, 9, 54, 0
11, 54720, Note_on_c, 9, 54, 66
11, 54735, Note_on_c, 9, 54, 0
11, 54780, Note_on_c, 9, 54, 66
11, 54795, Note_on_c, 9, 54, 0
11, 54840, Note_on_c, 9, 54, 100
11, 54855, Note_on_c, 9, 54, 0
11, 54900, Note_on_c, 9, 54, 66
11, 54915, Note_on_c, 9, 54, 0
11, 54960, Note_on_c, 9, 54, 66
11, 54975, Note_on_c, 9, 54, 0
11, 55020, Note_on_c, 9, 54, 100
11, 55035, Note_on_c, 9, 54, 0
11, 55080, Note_on_c, 9, 54, 66
11, 55095, Note_on_c, 9, 54, 0
11, 55140, Note_on_c, 9, 54, 82
11, 55155, Note_on_c, 9, 54, 0
11, 55200, Note_on_c, 9, 54, 100
11, 55215, Note_on_c, 9, 54, 0
11, 55260, Note_on_c, 9, 54, 66
11, 55275, Note_on_c, 9, 54, 0
11, 55320, Note_on_c, 9, 54, 66
11, 55335, Note_on_c, 9, 54, 0
11, 55380, Note_on_c, 9, 54, 66
11, 55395, Note_on_c, 9, 54, 0
11, 55440, Note_on_c, 9, 54, 66
11, 55455, Note_on_c, 9, 54, 0
11, 55500, Note_on_c, 9, 54, 66
11, 55515, Note_on_c, 9, 54, 0
11, 55560, Note_on_c, 9, 54, 100
11, 55575, Note_on_c, 9, 54, 0
11, 55620, Note_on_c, 9, 54, 66
11, 55635, Note_on_c, 9, 54, 0
11, 55680, Note_on_c, 9, 54, 66
11, 55695, Note_on_c, 9, 54, 0
11, 55740, Note_on_c, 9, 54, 100
11, 55755, Note_on_c, 9, 54, 0
11, 55800, Note_on_c, 9, 54, 66
11, 55815, Note_on_c, 9, 54, 0
11, 55860, Note_on_c, 9, 54, 82
11, 55875, Note_on_c, 9, 54, 0
11, 55920, Note_on_c, 9, 54, 100
11, 55935, Note_on_c, 9, 54, 0
11, 55980, Note_on_c, 9, 54, 66
11, 55995, Note_on_c, 9, 54, 0
11, 56040, Note_on_c, 9, 54, 66
11, 56055, Note_on_c, 9, 54, 0
11, 56100, Note_on_c, 9, 54, 66
11, 56115, Note_on_c, 9, 54, 0
11, 56160, Note_on_c, 9, 54, 66
11, 56175, Note_on_c, 9, 54, 0
11, 56220, Note_on_c, 9, 54, 66
11, 56235, Note_on_c, 9, 54, 0
11, 56280, Note_on_c, 9, 54, 100
11, 56295, Note_on_c, 9, 54, 0
11, 56340, Note_on_c, 9, 54, 66
11, 56355, Note_on_c, 9, 54, 0
11, 56400, Note_on_c, 9, 54, 66
11, 56415, Note_on_c, 9, 54, 0
11, 56460, Note_on_c, 9, 54, 100
11, 56475, Note_on_c, 9, 54, 0
11, 56520, Note_on_c, 9, 54, 66
11, 56535, Note_on_c, 9, 54, 0
11, 56580, Note_on_c, 9, 54, 82
11, 56595, Note_on_c, 9, 54, 0
11, 56640, Note_on_c, 9, 54, 100
11, 56655, Note_on_c, 9, 54, 0
11, 56700, Note_on_c, 9, 54, 66
11, 56715, Note_on_c, 9, 54, 0
11, 56760, Note_on_c, 9, 54, 66
11, 56775, Note_on_c, 9, 54, 0
11, 56820, Note_on_c, 9, 54, 66
11, 56835, Note_on_c, 9, 54, 0
11, 56880, Note_on_c, 9, 54, 66
11, 56895, Note_on_c, 9, 54, 0
11, 56940, Note_on_c, 9, 54, 66
11, 56955, Note_on_c, 9, 54, 0
11, 57000, Note_on_c, 9, 54, 100
11, 57015, Note_on_c, 9, 54, 0
11, 57060, Note_on_c, 9, 54, 66
11, 57075, Note_on_c, 9, 54, 0
11, 57120, Note_on_c, 9, 54, 66
11, 57135, Note_on_c, 9, 54, 0
11, 57180, Note_on_c, 9, 54, 100
11, 57195, Note_on_c, 9, 54, 0
11, 57240, Note_on_c, 9, 54, 66
11, 57255, Note_on_c, 9, 54, 0
11, 57300, Note_on_c, 9, 54, 82
11, 57315, Note_on_c, 9, 54, 0
11, 57360, Note_on_c, 9, 54, 100
11, 57375, Note_on_c, 9, 54, 0
11, 57420, Note_on_c, 9, 54, 66
11, 57435, Note_on_c, 9, 54, 0
11, 57480, Note_on_c, 9, 54, 66
11, 57495, Note_on_c, 9, 54, 0
11, 57540, Note_on_c, 9, 54, 66
11, 57555, Note_on_c, 9, 54, 0
11, 57600, Note_on_c, 9, 54, 66
11, 57615, Note_on_c, 9, 54, 0
11, 57660, Note_on_c, 9, 54, 66
11, 57675, Note_on_c, 9, 54, 0
11, 57720, Note_on_c, 9, 54, 100
11, 57735, Note_on_c, 9, 54, 0
11, 57780, Note_on_c, 9, 54, 66
11, 57795, Note_on_c, 9, 54, 0
11, 57840, Note_on_c, 9, 54, 66
11, 57855, Note_on_c, 9, 54, 0
11, 57900, Note_on_c, 9, 54, 100
11, 57915, Note_on_c, 9, 54, 0
11, 57960, Note_on_c, 9, 54, 66
11, 57975, Note_on_c, 9, 54, 0
11, 58020, Note_on_c, 9, 54, 82
11, 58035, Note_on_c, 9, 54, 0
11, 58080, Note_on_c, 9, 54, 100
11, 58095, Note_on_c, 9, 54, 0
11, 58140, Note_on_c, 9, 54, 66
11, 58155, Note_on_c, 9, 54, 0
11, 58200, Note_on_c, 9, 54, 66
11, 58215, Note_on_c, 9, 54, 0
11, 58260, Note_on_c, 9, 54, 66
11, 58275, Note_on_c, 9, 54, 0
11, 58320, Note_on_c, 9, 54, 66
11, 58335, Note_on_c, 9, 54, 0
11, 58380, Note_on_c, 9, 54, 66
11, 58395, Note_on_c, 9, 54, 0
11, 58440, Note_on_c, 9, 54, 100
11, 58455, Note_on_c, 9, 54, 0
11, 58500, Note_on_c, 9, 54, 66
11, 58515, Note_on_c, 9, 54, 0
11, 58560, Note_on_c, 9, 54, 66
11, 58575, Note_on_c, 9, 54, 0
11, 58620, Note_on_c, 9, 54, 100
11, 58635, Note_on_c, 9, 54, 0
11, 58680, Note_on_c, 9, 54, 66
11, 58695, Note_on_c, 9, 54, 0
11, 58740, Note_on_c, 9, 54, 82
11, 58755, Note_on_c, 9, 54, 0
11, 58800, Note_on_c, 9, 54, 100
11, 58815, Note_on_c, 9, 54, 0
11, 58860, Note_on_c, 9, 54, 66
11, 58875, Note_on_c, 9, 54, 0
11, 58920, Note_on_c, 9, 54, 66
11, 58935, Note_on_c, 9, 54, 0
11, 58980, Note_on_c, 9, 54, 66
11, 58995, Note_on_c, 9, 54, 0
11, 59040, Note_on_c, 9, 54, 66
11, 59055, Note_on_c, 9, 54, 0
11, 59100, Note_on_c, 9, 54, 66
11, 59115, Note_on_c, 9, 54, 0
11, 59160, Note_on_c, 9, 54, 100
11, 59175, Note_on_c, 9, 54, 0
11, 59220, Note_on_c, 9, 54, 66
11, 59235, Note_on_c, 9, 54, 0
11, 59280, Note_on_c, 9, 54, 66
11, 59295, Note_on_c, 9, 54, 0
11, 59340, Note_on_c, 9, 54, 100
11, 59355, Note_on_c, 9, 54, 0
11, 59400, Note_on_c, 9, 54, 66
11, 59415, Note_on_c, 9, 54, 0
11, 59460, Note_on_c, 9, 54, 82
11, 59475, Note_on_c, 9, 54, 0
11, 59520, Note_on_c, 9, 54, 100
11, 59535, Note_on_c, 9, 54, 0
11, 59580, Note_on_c, 9, 54, 66
11, 59595, Note_on_c, 9, 54, 0
11, 59640, Note_on_c, 9, 54, 66
11, 59655, Note_on_c, 9, 54, 0
11, 59700, Note_on_c, 9, 54, 66
11, 59715, Note_on_c, 9, 54, 0
11, 59760, Note_on_c, 9, 54, 66
11, 59775, Note_on_c, 9, 54, 0
11, 59820, Note_on_c, 9, 54, 66
11, 59835, Note_on_c, 9, 54, 0
11, 59880, Note_on_c, 9, 35, 100
11, 59880, Note_on_c, 9, 49, 110
11, 59895, Note_on_c, 9, 49, 0
11, 59895, Note_on_c, 9, 35, 0
11, 59940, Note_on_c, 9, 42, 69
11, 59955, Note_on_c, 9, 42, 0
11, 60000, Note_on_c, 9, 35, 100
11, 60000, Note_on_c, 9, 42, 76
11, 60015, Note_on_c, 9, 42, 0
11, 60015, Note_on_c, 9, 35, 0
11, 60060, Note_on_c, 9, 42, 61
11, 60075, Note_on_c, 9, 42, 0
11, 60120, Note_on_c, 9, 35, 100
11, 60120, Note_on_c, 9, 42, 100
11, 60135, Note_on_c, 9, 42, 0
11, 60135, Note_on_c, 9, 35, 0
11, 60180, Note_on_c, 9, 42, 69
11, 60195, Note_on_c, 9, 42, 0
11, 60240, Note_on_c, 9, 35, 100
11, 60240, Note_on_c, 9, 42, 100
11, 60255, Note_on_c, 9, 42, 0
11, 60255, Note_on_c, 9, 35, 0
11, 60300, Note_on_c, 9, 42, 67
11, 60315, Note_on_c, 9, 42, 0
11, 60360, Note_on_c, 9, 35, 100
11, 60360, Note_on_c, 9, 42, 100
11, 60375, Note_on_c, 9, 42, 0
11, 60375, Note_on_c, 9, 35, 0
11, 60420, Note_on_c, 9, 42, 67
11, 60435, Note_on_c, 9, 42, 0
11, 60480, Note_on_c, 9, 35, 100
11, 60480, Note_on_c, 9, 42, 100
11, 60495, Note_on_c, 9, 42, 0
11, 60495, Note_on_c, 9, 35, 0
11, 60540, Note_on_c, 9, 42, 67
11, 60555, Note_on_c, 9, 42, 0
11, 60600, Note_on_c, 9, 35, 100
11, 60600, Note_on_c, 9, 42, 100
11, 60615, Note_on_c, 9, 42, 0
11, 60615, Note_on_c, 9, 35, 0
11, 60660, Note_on_c, 9, 42, 67
11, 60675, Note_on_c, 9, 42, 0
11, 60720, Note_on_c, 9, 35, 100
11, 60720, Note_on_c, 9, 42, 100
11, 60735, Note_on_c, 9, 42, 0
11, 60735, Note_on_c, 9, 35, 0
11, 60780, Note_on_c, 9, 42, 67
11, 60795, Note_on_c, 9, 42, 0
11, 60840, Note_on_c, 9, 35, 100
11, 60840, Note_on_c, 9, 42, 100
11, 60855, Note_on_c, 9, 42, 0
11, 60855, Note_on_c, 9, 35, 0
11, 60900, Note_on_c, 9, 42, 67
11, 60915, Note_on_c, 9, 42, 0
11, 60960, Note_on_c, 9, 35, 100
11, 60960, Note_on_c, 9, 42, 100
11, 60975, Note_on_c, 9, 42, 0
11, 60975, Note_on_c, 9, 35, 0
11, 61020, Note_on_c, 9, 42, 67
11, 61035, Note_on_c, 9, 42, 0
11, 61080, Note_on_c, 9, 35, 100
11, 61080, Note_on_c, 9, 42, 100
11, 61095, Note_on_c, 9, 42, 0
11, 61095, Note_on_c, 9, 35, 0
11, 61140, Note_on_c, 9, 42, 100
11, 61155, Note_on_c, 9, 42, 0
11, 61200, Note_on_c, 9, 35, 100
11, 61200, Note_on_c, 9, 42, 100
11, 61215, Note_on_c, 9, 42, 0
11, 61215, Note_on_c, 9, 35, 0
11, 61260, Note_on_c, 9, 42, 100
11, 61275, Note_on_c, 9, 42, 0
11, 61290, Note_on_c, 9, 46, 100
11, 61305, Note_on_c, 9, 46, 0
11, 61320, Note_on_c, 9, 35, 100
11, 61320, Note_on_c, 9, 42, 100
11, 61335, Note_on_c, 9, 42, 0
11, 61335, Note_on_c, 9, 35, 0
11, 61380, Note_on_c, 9, 42, 69
11, 61395, Note_on_c, 9, 42, 0
11, 61440, Note_on_c, 9, 35, 100
11, 61440, Note_on_c, 9, 42, 100
11, 61455, Note_on_c, 9, 42, 0
11, 61455, Note_on_c, 9, 35, 0
11, 61500, Note_on_c, 9, 42, 67
11, 61515, Note_on_c, 9, 42, 0
11, 61560, Note_on_c, 9, 35, 100
11, 61560, Note_on_c, 9, 42, 100
11, 61575, Note_on_c, 9, 42, 0
11, 61575, Note_on_c, 9, 35, 0
11, 61620, Note_on_c, 9, 42, 67
11, 61635, Note_on_c, 9, 42, 0
11, 61680, Note_on_c, 9, 35, 100
11, 61680, Note_on_c, 9, 42, 100
11, 61695, Note_on_c, 9, 42, 0
11, 61695, Note_on_c, 9, 35, 0
11, 61740, Note_on_c, 9, 42, 67
11, 61755, Note_on_c, 9, 42, 0
11, 61800, Note_on_c, 9, 35, 100
11, 61800, Note_on_c, 9, 42, 100
11, 61815, Note_on_c, 9, 42, 0
11, 61815, Note_on_c, 9, 35, 0
11, 61860, Note_on_c, 9, 42, 67
11, 61875, Note_on_c, 9, 42, 0
11, 61920, Note_on_c, 9, 35, 100
11, 61920, Note_on_c, 9, 42, 100
11, 61935, Note_on_c, 9, 42, 0
11, 61935, Note_on_c, 9, 35, 0
11, 61980, Note_on_c, 9, 42, 67
11, 61995, Note_on_c, 9, 42, 0
11, 62040, Note_on_c, 9, 35, 100
11, 62040, Note_on_c, 9, 42, 100
11, 62055, Note_on_c, 9, 42, 0
11, 62055, Note_on_c, 9, 35, 0
11, 62100, Note_on_c, 9, 42, 100
11, 62115, Note_on_c, 9, 42, 0
11, 62160, Note_on_c, 9, 35, 100
11, 62160, Note_on_c, 9, 46, 100
11, 62175, Note_on_c, 9, 46, 0
11, 62175, Note_on_c, 9, 35, 0
11, 62280, Note_on_c, 9, 35, 100
11, 62280, Note_on_c, 9, 42, 100
11, 62295, Note_on_c, 9, 42, 0
11, 62295, Note_on_c, 9, 35, 0
11, 62340, Note_on_c, 9, 42, 100
11, 62355, Note_on_c, 9, 42, 0
11, 62400, Note_on_c, 9, 35, 100
11, 62400, Note_on_c, 9, 42, 100
11, 62415, Note_on_c, 9, 42, 0
11, 62415, Note_on_c, 9, 35, 0
11, 62460, Note_on_c, 9, 46, 100
11, 62475, Note_on_c, 9, 46, 0
11, 62520, Note_on_c, 9, 35, 100
11, 62535, Note_on_c, 9, 35, 0
11, 62580, Note_on_c, 9, 42, 100
11, 62595, Note_on_c, 9, 42, 0
11, 62640, Note_on_c, 9, 35, 100
11, 62640, Note_on_c, 9, 46, 100
11, 62655, Note_on_c, 9, 46, 0
11, 62655, Note_on_c, 9, 35, 0
11, 62700, Note_on_c, 9, 42, 100
11, 62715, Note_on_c, 9, 42, 0
11, 62730, Note_on_c, 9, 42, 69
11, 62745, Note_on_c, 9, 42, 0
11, 62760, Note_on_c, 9, 35, 100
11, 62760, Note_on_c, 9, 49, 110
11, 62775, Note_on_c, 9, 49, 0
11, 62775, Note_on_c, 9, 35, 0
11, 62820, Note_on_c, 9, 42, 69
11, 62835, Note_on_c, 9, 42, 0
11, 62880, Note_on_c, 9, 35, 100
11, 62880, Note_on_c, 9, 42, 76
11, 62895, Note_on_c, 9, 42, 0
11, 62895, Note_on_c, 9, 35, 0
11, 62940, Note_on_c, 9, 42, 61
11, 62955, Note_on_c, 9, 42, 0
11, 63000, Note_on_c, 9, 35, 100
11, 63000, Note_on_c, 9, 42, 100
11, 63015, Note_on_c, 9, 42, 0
11, 63015, Note_on_c, 9, 35, 0
11, 63060, Note_on_c, 9, 42, 69
11, 63075, Note_on_c, 9, 42, 0
11, 63120, Note_on_c, 9, 35, 100
11, 63120, Note_on_c, 9, 42, 100
11, 63135, Note_on_c, 9, 42, 0
11, 63135, Note_on_c, 9, 35, 0
11, 63180, Note_on_c, 9, 42, 67
11, 63195, Note_on_c, 9, 42, 0
11, 63240, Note_on_c, 9, 35, 100
11, 63240, Note_on_c, 9, 42, 100
11, 63255, Note_on_c, 9, 42, 0
11, 63255, Note_on_c, 9, 35, 0
11, 63300, Note_on_c, 9, 42, 67
11, 63315, Note_on_c, 9, 42, 0
11, 63360, Note_on_c, 9, 35, 100
11, 63360, Note_on_c, 9, 42, 100
11, 63375, Note_on_c, 9, 42, 0
11, 63375, Note_on_c, 9, 35, 0
11, 63420, Note_on_c, 9, 42, 67
11, 63435, Note_on_c, 9, 42, 0
11, 63480, Note_on_c, 9, 35, 100
11, 63480, Note_on_c, 9, 42, 100
11, 63495, Note_on_c, 9, 42, 0
11, 63495, Note_on_c, 9, 35, 0
11, 63540, Note_on_c, 9, 42, 67
11, 63555, Note_on_c, 9, 42, 0
11, 63600, Note_on_c, 9, 35, 100
11, 63600, Note_on_c, 9, 42, 100
11, 63615, Note_on_c, 9, 42, 0
11, 63615, Note_on_c, 9, 35, 0
11, 63660, Note_on_c, 9, 42, 67
11, 63675, Note_on_c, 9, 42, 0
11, 63720, Note_on_c, 9, 35, 100
11, 63720, Note_on_c, 9, 42, 100
11, 63735, Note_on_c, 9, 42, 0
11, 63735, Note_on_c, 9, 35, 0
11, 63780, Note_on_c, 9, 42, 67
11, 63795, Note_on_c, 9, 42, 0
11, 63840, Note_on_c, 9, 35, 100
11, 63840, Note_on_c, 9, 42, 100
11, 63855, Note_on_c, 9, 42, 0
11, 63855, Note_on_c, 9, 35, 0
11, 63900, Note_on_c, 9, 42, 67
11, 63915, Note_on_c, 9, 42, 0
11, 63960, Note_on_c, 9, 35, 100
11, 63960, Note_on_c, 9, 42, 100
11, 63975, Note_on_c, 9, 42, 0
11, 63975, Note_on_c, 9, 35, 0
11, 64020, Note_on_c, 9, 42, 100
11, 64035, Note_on_c, 9, 42, 0
11, 64080, Note_on_c, 9, 35, 100
11, 64080, Note_on_c, 9, 42, 100
11, 64095, Note_on_c, 9, 42, 0
11, 64095, Note_on_c, 9, 35, 0
11, 64140, Note_on_c, 9, 42, 100
11, 64155, Note_on_c, 9, 42, 0
11, 64170, Note_on_c, 9, 46, 100
11, 64185, Note_on_c, 9, 46, 0
11, 64200, Note_on_c, 9, 35, 100
11, 64200, Note_on_c, 9, 42, 100
11, 64215, Note_on_c, 9, 42, 0
11, 64215, Note_on_c, 9, 35, 0
11, 64260, Note_on_c, 9, 42, 69
11, 64275, Note_on_c, 9, 42, 0
11, 64320, Note_on_c, 9, 35, 100
11, 64320, Note_on_c, 9, 42, 100
11, 64335, Note_on_c, 9, 42, 0
11, 64335, Note_on_c, 9, 35, 0
11, 64380, Note_on_c, 9, 42, 67
11, 64395, Note_on_c, 9, 42, 0
11, 64440, Note_on_c, 9, 35, 100
11, 64440, Note_on_c, 9, 42, 100
11, 64455, Note_on_c, 9, 42, 0
11, 64455, Note_on_c, 9, 35, 0
11, 64500, Note_on_c, 9, 42, 67
11, 64515, Note_on_c, 9, 42, 0
11, 64560, Note_on_c, 9, 35, 100
11, 64560, Note_on_c, 9, 42, 100
11, 64575, Note_on_c, 9, 42, 0
11, 64575, Note_on_c, 9, 35, 0
11, 64620, Note_on_c, 9, 42, 67
11, 64635, Note_on_c, 9, 42, 0
11, 64680, Note_on_c, 9, 35, 100
11, 64680, Note_on_c, 9, 42, 100
11, 64695, Note_on_c, 9, 42, 0
11, 64695, Note_on_c, 9, 35, 0
11, 64740, Note_on_c, 9, 42, 67
11, 64755, Note_on_c, 9, 42, 0
11, 64800, Note_on_c, 9, 35, 100
11, 64800, Note_on_c, 9, 42, 100
11, 64815, Note_on_c, 9, 42, 0
11, 64815, Note_on_c, 9, 35, 0
11, 64860, Note_on_c, 9, 42, 67
11, 64875, Note_on_c, 9, 42, 0
11, 64920, Note_on_c, 9, 35, 100
11, 64920, Note_on_c, 9, 42, 100
11, 64935, Note_on_c, 9, 42, 0
11, 64935, Note_on_c, 9, 35, 0
11, 64980, Note_on_c, 9, 42, 100
11, 64995, Note_on_c, 9, 42, 0
11, 65040, Note_on_c, 9, 35, 100
11, 65040, Note_on_c, 9, 46, 100
11, 65055, Note_on_c, 9, 46, 0
11, 65055, Note_on_c, 9, 35, 0
11, 65160, Note_on_c, 9, 35, 100
11, 65160, Note_on_c, 9, 42, 100
11, 65175, Note_on_c, 9, 42, 0
11, 65175, Note_on_c, 9, 35, 0
11, 65220, Note_on_c, 9, 42, 100
11, 65235, Note_on_c, 9, 42, 0
11, 65280, Note_on_c, 9, 35, 100
11, 65280, Note_on_c, 9, 42, 100
11, 65295, Note_on_c, 9, 42, 0
11, 65295, Note_on_c, 9, 35, 0
11, 65340, Note_on_c, 9, 46, 100
11, 65355, Note_on_c, 9, 46, 0
11, 65400, Note_on_c, 9, 35, 100
11, 65415, Note_on_c, 9, 35, 0
11, 65460, Note_on_c, 9, 42, 100
11, 65475, Note_on_c, 9, 42, 0
11, 65520, Note_on_c, 9, 35, 100
11, 65520, Note_on_c, 9, 46, 100
11, 65535, Note_on_c, 9, 46, 0
11, 65535, Note_on_c, 9, 35, 0
11, 65580, Note_on_c, 9, 42, 100
11, 65595, Note_on_c, 9, 42, 0
11, 65610, Note_on_c, 9, 42, 69
11, 65625, Note_on_c, 9, 42, 0
11, 65640, Note_on_c, 9, 42, 90
11, 65655, Note_on_c, 9, 42, 0
11, 65700, Note_on_c, 9, 42, 69
11, 65715, Note_on_c, 9, 42, 0
11, 65760, Note_on_c, 9, 42, 76
11, 65775, Note_on_c, 9, 42, 0
11, 65820, Note_on_c, 9, 42, 61
11, 65835, Note_on_c, 9, 42, 0
11, 65880, Note_on_c, 9, 42, 100
11, 65895, Note_on_c, 9, 42, 0
11, 65940, Note_on_c, 9, 42, 69
11, 65955, Note_on_c, 9, 42, 0
11, 66000, Note_on_c, 9, 42, 100
11, 66015, Note_on_c, 9, 42, 0
11, 66060, Note_on_c, 9, 42, 67
11, 66075, Note_on_c, 9, 42, 0
11, 66100, Control_c, 9, 99, 28
11, 66100, Control_c, 9, 98, 54
11, 66100, Control_c, 9, 6, 94
11, 66100, Control_c, 9, 38, 127
11, 66120, Note_on_c, 9, 42, 100
11, 66135, Note_on_c, 9, 42, 0
11, 66180, Note_on_c, 9, 42, 67
11, 66195, Note_on_c, 9, 42, 0
11, 66240, Note_on_c, 9, 42, 100
11, 66255, Note_on_c, 9, 42, 0
11, 66300, Note_on_c, 9, 42, 67
11, 66315, Note_on_c, 9, 42, 0
11, 66360, Note_on_c, 9, 42, 100
11, 66375, Note_on_c, 9, 42, 0
11, 66420, Note_on_c, 9, 42, 67
11, 66435, Note_on_c, 9, 42, 0
11, 66480, Note_on_c, 9, 42, 100
11, 66495, Note_on_c, 9, 42, 0
11, 66540, Note_on_c, 9, 42, 67
11, 66555, Note_on_c, 9, 42, 0
11, 66600, Note_on_c, 9, 42, 100
11, 66615, Note_on_c, 9, 42, 0
11, 66660, Note_on_c, 9, 42, 67
11, 66675, Note_on_c, 9, 42, 0
11, 66720, Note_on_c, 9, 42, 100
11, 66735, Note_on_c, 9, 42, 0
11, 66780, Note_on_c, 9, 42, 67
11, 66795, Note_on_c, 9, 42, 0
11, 66840, Note_on_c, 9, 42, 100
11, 66855, Note_on_c, 9, 42, 0
11, 66900, Note_on_c, 9, 42, 100
11, 66915, Note_on_c, 9, 42, 0
11, 66960, Note_on_c, 9, 42, 100
11, 66975, Note_on_c, 9, 42, 0
11, 67020, Note_on_c, 9, 42, 100
11, 67035, Note_on_c, 9, 42, 0
11, 67050, Note_on_c, 9, 46, 100
11, 67065, Note_on_c, 9, 46, 0
11, 67080, Note_on_c, 9, 42, 100
11, 67095, Note_on_c, 9, 42, 0
11, 67140, Note_on_c, 9, 42, 69
11, 67155, Note_on_c, 9, 42, 0
11, 67200, Note_on_c, 9, 42, 100
11, 67215, Note_on_c, 9, 42, 0
11, 67260, Note_on_c, 9, 42, 67
11, 67275, Note_on_c, 9, 42, 0
11, 67320, Note_on_c, 9, 42, 100
11, 67335, Note_on_c, 9, 42, 0
11, 67380, Note_on_c, 9, 42, 67
11, 67395, Note_on_c, 9, 42, 0
11, 67440, Note_on_c, 9, 42, 100
11, 67455, Note_on_c, 9, 42, 0
11, 67500, Note_on_c, 9, 42, 67
11, 67515, Note_on_c, 9, 42, 0
11, 67560, Note_on_c, 9, 42, 100
11, 67575, Note_on_c, 9, 42, 0
11, 67620, Note_on_c, 9, 42, 67
11, 67635, Note_on_c, 9, 42, 0
11, 67680, Note_on_c, 9, 42, 100
11, 67695, Note_on_c, 9, 42, 0
11, 67740, Note_on_c, 9, 42, 67
11, 67755, Note_on_c, 9, 42, 0
11, 67800, Note_on_c, 9, 42, 100
11, 67815, Note_on_c, 9, 42, 0
11, 67860, Note_on_c, 9, 42, 100
11, 67875, Note_on_c, 9, 42, 0
11, 67920, Note_on_c, 9, 46, 100
11, 67935, Note_on_c, 9, 46, 0
11, 68040, Note_on_c, 9, 42, 100
11, 68055, Note_on_c, 9, 42, 0
11, 68100, Note_on_c, 9, 42, 100
11, 68115, Note_on_c, 9, 42, 0
11, 68160, Note_on_c, 9, 42, 100
11, 68175, Note_on_c, 9, 42, 0
11, 68220, Note_on_c, 9, 46, 100
11, 68235, Note_on_c, 9, 46, 0
11, 68340, Note_on_c, 9, 42, 100
11, 68355, Note_on_c, 9, 42, 0
11, 68400, Note_on_c, 9, 46, 100
11, 68415, Note_on_c, 9, 46, 0
11, 68460, Note_on_c, 9, 42, 100
11, 68475, Note_on_c, 9, 42, 0
11, 68490, Note_on_c, 9, 42, 69
11, 68505, Note_on_c, 9, 42, 0
11, 68520, Note_on_c, 9, 35, 100
11, 68520, Note_on_c, 9, 42, 90
11, 68535, Note_on_c, 9, 42, 0
11, 68535, Note_on_c, 9, 35, 0
11, 68580, Note_on_c, 9, 42, 69
11, 68595, Note_on_c, 9, 42, 0
11, 68640, Note_on_c, 9, 42, 76
11, 68655, Note_on_c, 9, 42, 0
11, 68700, Note_on_c, 9, 42, 61
11, 68715, Note_on_c, 9, 42, 0
11, 68760, Note_on_c, 9, 42, 100
11, 68775, Note_on_c, 9, 42, 0
11, 68820, Note_on_c, 9, 42, 69
11, 68835, Note_on_c, 9, 42, 0
11, 68880, Note_on_c, 9, 42, 100
11, 68895, Note_on_c, 9, 42, 0
11, 68940, Note_on_c, 9, 42, 67
11, 68955, Note_on_c, 9, 42, 0
11, 69000, Note_on_c, 9, 42, 100
11, 69015, Note_on_c, 9, 42, 0
11, 69060, Note_on_c, 9, 42, 67
11, 69060, Note_on_c, 9, 38, 100
11, 69075, Note_on_c, 9, 38, 0
11, 69075, Note_on_c, 9, 42, 0
11, 69120, Note_on_c, 9, 42, 100
11, 69135, Note_on_c, 9, 42, 0
11, 69180, Note_on_c, 9, 35, 100
11, 69180, Note_on_c, 9, 42, 67
11, 69195, Note_on_c, 9, 42, 0
11, 69195, Note_on_c, 9, 35, 0
11, 69240, Note_on_c, 9, 42, 100
11, 69255, Note_on_c, 9, 42, 0
11, 69300, Note_on_c, 9, 42, 67
11, 69315, Note_on_c, 9, 42, 0
11, 69360, Note_on_c, 9, 42, 100
11, 69375, Note_on_c, 9, 42, 0
11, 69420, Note_on_c, 9, 42, 67
11, 69420, Note_on_c, 9, 35, 100
11, 69435, Note_on_c, 9, 35, 0
11, 69435, Note_on_c, 9, 42, 0
11, 69480, Note_on_c, 9, 42, 100
11, 69495, Note_on_c, 9, 42, 0
11, 69540, Note_on_c, 9, 42, 67
11, 69555, Note_on_c, 9, 42, 0
11, 69600, Note_on_c, 9, 42, 100
11, 69615, Note_on_c, 9, 42, 0
11, 69660, Note_on_c, 9, 42, 67
11, 69675, Note_on_c, 9, 42, 0
11, 69720, Note_on_c, 9, 42, 100
11, 69735, Note_on_c, 9, 42, 0
11, 69780, Note_on_c, 9, 42, 100
11, 69795, Note_on_c, 9, 42, 0
11, 69840, Note_on_c, 9, 38, 100
11, 69840, Note_on_c, 9, 42, 100
11, 69855, Note_on_c, 9, 42, 0
11, 69855, Note_on_c, 9, 38, 0
11, 69900, Note_on_c, 9, 42, 100
11, 69915, Note_on_c, 9, 42, 0
11, 69930, Note_on_c, 9, 46, 100
11, 69945, Note_on_c, 9, 46, 0
11, 69960, Note_on_c, 9, 35, 100
11, 69960, Note_on_c, 9, 42, 100
11, 69975, Note_on_c, 9, 42, 0
11, 69975, Note_on_c, 9, 35, 0
11, 70020, Note_on_c, 9, 42, 69
11, 70035, Note_on_c, 9, 42, 0
11, 70080, Note_on_c, 9, 42, 100
11, 70095, Note_on_c, 9, 42, 0
11, 70140, Note_on_c, 9, 42, 67
11, 70155, Note_on_c, 9, 42, 0
11, 70200, Note_on_c, 9, 42, 100
11, 70215, Note_on_c, 9, 42, 0
11, 70260, Note_on_c, 9, 42, 67
11, 70275, Note_on_c, 9, 42, 0
11, 70320, Note_on_c, 9, 42, 100
11, 70335, Note_on_c, 9, 42, 0
11, 70380, Note_on_c, 9, 42, 67
11, 70395, Note_on_c, 9, 42, 0
11, 70440, Note_on_c, 9, 42, 100
11, 70455, Note_on_c, 9, 42, 0
11, 70500, Note_on_c, 9, 42, 67
11, 70500, Note_on_c, 9, 38, 100
11, 70515, Note_on_c, 9, 38, 0
11, 70515, Note_on_c, 9, 42, 0
11, 70560, Note_on_c, 9, 42, 100
11, 70575, Note_on_c, 9, 42, 0
11, 70620, Note_on_c, 9, 35, 100
11, 70620, Note_on_c, 9, 42, 67
11, 70635, Note_on_c, 9, 42, 0
11, 70635, Note_on_c, 9, 35, 0
11, 70680, Note_on_c, 9, 42, 100
11, 70695, Note_on_c, 9, 42, 0
11, 70740, Note_on_c, 9, 42, 100
11, 70755, Note_on_c, 9, 42, 0
11, 70800, Note_on_c, 9, 46, 100
11, 70815, Note_on_c, 9, 46, 0
11, 70860, Note_on_c, 9, 35, 100
11, 70875, Note_on_c, 9, 35, 0
11, 70920, Note_on_c, 9, 42, 100
11, 70935, Note_on_c, 9, 42, 0
11, 70980, Note_on_c, 9, 42, 100
11, 70995, Note_on_c, 9, 42, 0
11, 71040, Note_on_c, 9, 42, 100
11, 71055, Note_on_c, 9, 42, 0
11, 71100, Note_on_c, 9, 46, 100
11, 71115, Note_on_c, 9, 46, 0
11, 71220, Note_on_c, 9, 42, 100
11, 71235, Note_on_c, 9, 42, 0
11, 71280, Note_on_c, 9, 46, 100
11, 71280, Note_on_c, 9, 38, 100
11, 71295, Note_on_c, 9, 38, 0
11, 71295, Note_on_c, 9, 46, 0
11, 71340, Note_on_c, 9, 42, 100
11, 71355, Note_on_c, 9, 42, 0
11, 71400, Note_on_c, 9, 35, 100
11, 71400, Note_on_c, 9, 42, 90
11, 71415, Note_on_c, 9, 42, 0
11, 71415, Note_on_c, 9, 35, 0
11, 71460, Note_on_c, 9, 42, 69
11, 71475, Note_on_c, 9, 42, 0
11, 71520, Note_on_c, 9, 42, 76
11, 71535, Note_on_c, 9, 42, 0
11, 71580, Note_on_c, 9, 42, 61
11, 71595, Note_on_c, 9, 42, 0
11, 71640, Note_on_c, 9, 42, 100
11, 71655, Note_on_c, 9, 42, 0
11, 71700, Note_on_c, 9, 42, 69
11, 71715, Note_on_c, 9, 42, 0
11, 71760, Note_on_c, 9, 42, 100
11, 71775, Note_on_c, 9, 42, 0
11, 71820, Note_on_c, 9, 42, 67
11, 71835, Note_on_c, 9, 42, 0
11, 71880, Note_on_c, 9, 42, 100
11, 71895, Note_on_c, 9, 42, 0
11, 71940, Note_on_c, 9, 38, 100
11, 71940, Note_on_c, 9, 42, 67
11, 71955, Note_on_c, 9, 42, 0
11, 71955, Note_on_c, 9, 38, 0
11, 72000, Note_on_c, 9, 42, 100
11, 72015, Note_on_c, 9, 42, 0
11, 72060, Note_on_c, 9, 42, 67
11, 72060, Note_on_c, 9, 35, 100
11, 72075, Note_on_c, 9, 35, 0
11, 72075, Note_on_c, 9, 42, 0
11, 72120, Note_on_c, 9, 42, 100
11, 72135, Note_on_c, 9, 42, 0
11, 72180, Note_on_c, 9, 42, 67
11, 72195, Note_on_c, 9, 42, 0
11, 72240, Note_on_c, 9, 42, 100
11, 72255, Note_on_c, 9, 42, 0
11, 72300, Note_on_c, 9, 42, 67
11, 72300, Note_on_c, 9, 35, 100
11, 72315, Note_on_c, 9, 35, 0
11, 72315, Note_on_c, 9, 42, 0
11, 72360, Note_on_c, 9, 42, 100
11, 72375, Note_on_c, 9, 42, 0
11, 72420, Note_on_c, 9, 42, 67
11, 72435, Note_on_c, 9, 42, 0
11, 72480, Note_on_c, 9, 42, 100
11, 72495, Note_on_c, 9, 42, 0
11, 72540, Note_on_c, 9, 42, 67
11, 72555, Note_on_c, 9, 42, 0
11, 72600, Note_on_c, 9, 42, 100
11, 72615, Note_on_c, 9, 42, 0
11, 72660, Note_on_c, 9, 42, 100
11, 72675, Note_on_c, 9, 42, 0
11, 72720, Note_on_c, 9, 38, 100
11, 72720, Note_on_c, 9, 42, 100
11, 72735, Note_on_c, 9, 42, 0
11, 72735, Note_on_c, 9, 38, 0
11, 72780, Note_on_c, 9, 42, 100
11, 72795, Note_on_c, 9, 42, 0
11, 72810, Note_on_c, 9, 46, 100
11, 72825, Note_on_c, 9, 46, 0
11, 72840, Note_on_c, 9, 35, 100
11, 72840, Note_on_c, 9, 42, 100
11, 72855, Note_on_c, 9, 42, 0
11, 72855, Note_on_c, 9, 35, 0
11, 72900, Note_on_c, 9, 42, 69
11, 72915, Note_on_c, 9, 42, 0
11, 72960, Note_on_c, 9, 42, 100
11, 72975, Note_on_c, 9, 42, 0
11, 73020, Note_on_c, 9, 42, 67
11, 73035, Note_on_c, 9, 42, 0
11, 73080, Note_on_c, 9, 42, 100
11, 73095, Note_on_c, 9, 42, 0
11, 73140, Note_on_c, 9, 42, 67
11, 73155, Note_on_c, 9, 42, 0
11, 73200, Note_on_c, 9, 42, 100
11, 73215, Note_on_c, 9, 42, 0
11, 73260, Note_on_c, 9, 42, 67
11, 73275, Note_on_c, 9, 42, 0
11, 73320, Note_on_c, 9, 42, 100
11, 73335, Note_on_c, 9, 42, 0
11, 73380, Note_on_c, 9, 42, 67
11, 73380, Note_on_c, 9, 38, 100
11, 73395, Note_on_c, 9, 38, 0
11, 73395, Note_on_c, 9, 42, 0
11, 73440, Note_on_c, 9, 42, 100
11, 73455, Note_on_c, 9, 42, 0
11, 73500, Note_on_c, 9, 42, 67
11, 73500, Note_on_c, 9, 35, 100
11, 73515, Note_on_c, 9, 35, 0
11, 73515, Note_on_c, 9, 42, 0
11, 73560, Note_on_c, 9, 42, 100
11, 73575, Note_on_c, 9, 42, 0
11, 73620, Note_on_c, 9, 42, 100
11, 73635, Note_on_c, 9, 42, 0
11, 73680, Note_on_c, 9, 46, 100
11, 73695, Note_on_c, 9, 46, 0
11, 73740, Note_on_c, 9, 35, 100
11, 73755, Note_on_c, 9, 35, 0
11, 73800, Note_on_c, 9, 42, 100
11, 73815, Note_on_c, 9, 42, 0
11, 73860, Note_on_c, 9, 42, 100
11, 73875, Note_on_c, 9, 42, 0
11, 73920, Note_on_c, 9, 42, 100
11, 73935, Note_on_c, 9, 42, 0
11, 73980, Note_on_c, 9, 46, 100
11, 73995, Note_on_c, 9, 46, 0
11, 74100, Note_on_c, 9, 42, 100
11, 74115, Note_on_c, 9, 42, 0
11, 74160, Note_on_c, 9, 46, 100
11, 74160, Note_on_c, 9, 38, 100
11, 74175, Note_on_c, 9, 38, 0
11, 74175, Note_on_c, 9, 46, 0
11, 74220, Note_on_c, 9, 42, 100
11, 74235, Note_on_c, 9, 42, 0
11, 74280, Note_on_c, 9, 35, 100
11, 74280, Note_on_c, 9, 42, 90
11, 74295, Note_on_c, 9, 42, 0
11, 74295, Note_on_c, 9, 35, 0
11, 74340, Note_on_c, 9, 42, 69
11, 74355, Note_on_c, 9, 42, 0
11, 74400, Note_on_c, 9, 42, 76
11, 74415, Note_on_c, 9, 42, 0
11, 74460, Note_on_c, 9, 42, 61
11, 74475, Note_on_c, 9, 42, 0
11, 74520, Note_on_c, 9, 42, 100
11, 74535, Note_on_c, 9, 42, 0
11, 74580, Note_on_c, 9, 42, 69
11, 74595, Note_on_c, 9, 42, 0
11, 74640, Note_on_c, 9, 42, 100
11, 74655, Note_on_c, 9, 42, 0
11, 74700, Note_on_c, 9, 42, 67
11, 74715, Note_on_c, 9, 42, 0
11, 74760, Note_on_c, 9, 42, 100
11, 74775, Note_on_c, 9, 42, 0
11, 74820, Note_on_c, 9, 38, 100
11, 74820, Note_on_c, 9, 42, 67
11, 74835, Note_on_c, 9, 42, 0
11, 74835, Note_on_c, 9, 38, 0
11, 74880, Note_on_c, 9, 42, 100
11, 74895, Note_on_c, 9, 42, 0
11, 74940, Note_on_c, 9, 35, 100
11, 74940, Note_on_c, 9, 42, 67
11, 74955, Note_on_c, 9, 42, 0
11, 74955, Note_on_c, 9, 35, 0
11, 75000, Note_on_c, 9, 42, 100
11, 75015, Note_on_c, 9, 42, 0
11, 75060, Note_on_c, 9, 42, 67
11, 75075, Note_on_c, 9, 42, 0
11, 75120, Note_on_c, 9, 42, 100
11, 75135, Note_on_c, 9, 42, 0
11, 75180, Note_on_c, 9, 42, 67
11, 75180, Note_on_c, 9, 35, 100
11, 75195, Note_on_c, 9, 35, 0
11, 75195, Note_on_c, 9, 42, 0
11, 75240, Note_on_c, 9, 42, 100
11, 75255, Note_on_c, 9, 42, 0
11, 75300, Note_on_c, 9, 42, 67
11, 75315, Note_on_c, 9, 42, 0
11, 75360, Note_on_c, 9, 42, 100
11, 75375, Note_on_c, 9, 42, 0
11, 75420, Note_on_c, 9, 42, 67
11, 75435, Note_on_c, 9, 42, 0
11, 75480, Note_on_c, 9, 42, 100
11, 75495, Note_on_c, 9, 42, 0
11, 75540, Note_on_c, 9, 42, 100
11, 75555, Note_on_c, 9, 42, 0
11, 75600, Note_on_c, 9, 42, 100
11, 75600, Note_on_c, 9, 38, 100
11, 75615, Note_on_c, 9, 38, 0
11, 75615, Note_on_c, 9, 42, 0
11, 75660, Note_on_c, 9, 42, 100
11, 75675, Note_on_c, 9, 42, 0
11, 75690, Note_on_c, 9, 46, 100
11, 75705, Note_on_c, 9, 46, 0
11, 75720, Note_on_c, 9, 35, 100
11, 75720, Note_on_c, 9, 42, 100
11, 75735, Note_on_c, 9, 42, 0
11, 75735, Note_on_c, 9, 35, 0
11, 75780, Note_on_c, 9, 42, 69
11, 75795, Note_on_c, 9, 42, 0
11, 75840, Note_on_c, 9, 42, 100
11, 75855, Note_on_c, 9, 42, 0
11, 75900, Note_on_c, 9, 42, 67
11, 75915, Note_on_c, 9, 42, 0
11, 75960, Note_on_c, 9, 42, 100
11, 75975, Note_on_c, 9, 42, 0
11, 76020, Note_on_c, 9, 42, 67
11, 76035, Note_on_c, 9, 42, 0
11, 76080, Note_on_c, 9, 42, 100
11, 76095, Note_on_c, 9, 42, 0
11, 76140, Note_on_c, 9, 42, 67
11, 76155, Note_on_c, 9, 42, 0
11, 76200, Note_on_c, 9, 42, 100
11, 76215, Note_on_c, 9, 42, 0
11, 76260, Note_on_c, 9, 38, 100
11, 76260, Note_on_c, 9, 42, 67
11, 76275, Note_on_c, 9, 42, 0
11, 76275, Note_on_c, 9, 38, 0
11, 76320, Note_on_c, 9, 42, 100
11, 76335, Note_on_c, 9, 42, 0
11, 76380, Note_on_c, 9, 42, 67
11, 76380, Note_on_c, 9, 35, 100
11, 76395, Note_on_c, 9, 35, 0
11, 76395, Note_on_c, 9, 42, 0
11, 76440, Note_on_c, 9, 42, 100
11, 76455, Note_on_c, 9, 42, 0
11, 76500, Note_on_c, 9, 42, 100
11, 76515, Note_on_c, 9, 42, 0
11, 76560, Note_on_c, 9, 46, 100
11, 76575, Note_on_c, 9, 46, 0
11, 76620, Note_on_c, 9, 35, 100
11, 76635, Note_on_c, 9, 35, 0
11, 76680, Note_on_c, 9, 42, 100
11, 76695, Note_on_c, 9, 42, 0
11, 76740, Note_on_c, 9, 42, 100
11, 76755, Note_on_c, 9, 42, 0
11, 76800, Note_on_c, 9, 42, 100
11, 76815, Note_on_c, 9, 42, 0
11, 76860, Note_on_c, 9, 46, 100
11, 76875, Note_on_c, 9, 46, 0
11, 76980, Note_on_c, 9, 42, 100
11, 76995, Note_on_c, 9, 42, 0
11, 77040, Note_on_c, 9, 38, 100
11, 77040, Note_on_c, 9, 46, 100
11, 77055, Note_on_c, 9, 46, 0
11, 77055, Note_on_c, 9, 38, 0
11, 77100, Note_on_c, 9, 42, 100
11, 77115, Note_on_c, 9, 42, 0
11, 77160, Note_on_c, 9, 42, 90
11, 77160, Note_on_c, 9, 35, 100
11, 77175, Note_on_c, 9, 35, 0
11, 77175, Note_on_c, 9, 42, 0
11, 77220, Note_on_c, 9, 42, 69
11, 77235, Note_on_c, 9, 42, 0
11, 77280, Note_on_c, 9, 42, 76
11, 77295, Note_on_c, 9, 42, 0
11, 77340, Note_on_c, 9, 42, 61
11, 77355, Note_on_c, 9, 42, 0
11, 77400, Note_on_c, 9, 42, 100
11, 77415, Note_on_c, 9, 42, 0
11, 77460, Note_on_c, 9, 42, 69
11, 77475, Note_on_c, 9, 42, 0
11, 77520, Note_on_c, 9, 42, 100
11, 77535, Note_on_c, 9, 42, 0
11, 77580, Note_on_c, 9, 42, 67
11, 77595, Note_on_c, 9, 42, 0
11, 77640, Note_on_c, 9, 42, 100
11, 77655, Note_on_c, 9, 42, 0
11, 77700, Note_on_c, 9, 38, 100
11, 77700, Note_on_c, 9, 42, 67
11, 77715, Note_on_c, 9, 42, 0
11, 77715, Note_on_c, 9, 38, 0
11, 77760, Note_on_c, 9, 42, 100
11, 77775, Note_on_c, 9, 42, 0
11, 77820, Note_on_c, 9, 42, 67
11, 77820, Note_on_c, 9, 35, 100
11, 77835, Note_on_c, 9, 35, 0
11, 77835, Note_on_c, 9, 42, 0
11, 77880, Note_on_c, 9, 42, 100
11, 77895, Note_on_c, 9, 42, 0
11, 77940, Note_on_c, 9, 42, 67
11, 77955, Note_on_c, 9, 42, 0
11, 78000, Note_on_c, 9, 42, 100
11, 78015, Note_on_c, 9, 42, 0
11, 78060, Note_on_c, 9, 42, 67
11, 78060, Note_on_c, 9, 35, 100
11, 78075, Note_on_c, 9, 35, 0
11, 78075, Note_on_c, 9, 42, 0
11, 78120, Note_on_c, 9, 42, 100
11, 78135, Note_on_c, 9, 42, 0
11, 78180, Note_on_c, 9, 42, 67
11, 78195, Note_on_c, 9, 42, 0
11, 78240, Note_on_c, 9, 42, 100
11, 78255, Note_on_c, 9, 42, 0
11, 78300, Note_on_c, 9, 42, 67
11, 78315, Note_on_c, 9, 42, 0
11, 78360, Note_on_c, 9, 42, 100
11, 78375, Note_on_c, 9, 42, 0
11, 78420, Note_on_c, 9, 42, 100
11, 78435, Note_on_c, 9, 42, 0
11, 78480, Note_on_c, 9, 38, 100
11, 78480, Note_on_c, 9, 42, 100
11, 78495, Note_on_c, 9, 42, 0
11, 78495, Note_on_c, 9, 38, 0
11, 78540, Note_on_c, 9, 42, 100
11, 78555, Note_on_c, 9, 42, 0
11, 78570, Note_on_c, 9, 46, 100
11, 78585, Note_on_c, 9, 46, 0
11, 78600, Note_on_c, 9, 35, 100
11, 78600, Note_on_c, 9, 42, 100
11, 78615, Note_on_c, 9, 42, 0
11, 78615, Note_on_c, 9, 35, 0
11, 78660, Note_on_c, 9, 42, 69
11, 78675, Note_on_c, 9, 42, 0
11, 78720, Note_on_c, 9, 42, 100
11, 78735, Note_on_c, 9, 42, 0
11, 78780, Note_on_c, 9, 42, 67
11, 78795, Note_on_c, 9, 42, 0
11, 78840, Note_on_c, 9, 42, 100
11, 78855, Note_on_c, 9, 42, 0
11, 78900, Note_on_c, 9, 42, 67
11, 78915, Note_on_c, 9, 42, 0
11, 78960, Note_on_c, 9, 42, 100
11, 78975, Note_on_c, 9, 42, 0
11, 79020, Note_on_c, 9, 42, 67
11, 79035, Note_on_c, 9, 42, 0
11, 79080, Note_on_c, 9, 42, 100
11, 79095, Note_on_c, 9, 42, 0
11, 79140, Note_on_c, 9, 42, 67
11, 79140, Note_on_c, 9, 38, 100
11, 79155, Note_on_c, 9, 38, 0
11, 79155, Note_on_c, 9, 42, 0
11, 79200, Note_on_c, 9, 42, 100
11, 79215, Note_on_c, 9, 42, 0
11, 79260, Note_on_c, 9, 35, 100
11, 79260, Note_on_c, 9, 42, 67
11, 79275, Note_on_c, 9, 42, 0
11, 79275, Note_on_c, 9, 35, 0
11, 79320, Note_on_c, 9, 42, 100
11, 79335, Note_on_c, 9, 42, 0
11, 79380, Note_on_c, 9, 42, 100
11, 79395, Note_on_c, 9, 42, 0
11, 79440, Note_on_c, 9, 46, 100
11, 79455, Note_on_c, 9, 46, 0
11, 79500, Note_on_c, 9, 35, 100
11, 79515, Note_on_c, 9, 35, 0
11, 79560, Note_on_c, 9, 42, 100
11, 79575, Note_on_c, 9, 42, 0
11, 79620, Note_on_c, 9, 42, 100
11, 79635, Note_on_c, 9, 42, 0
11, 79680, Note_on_c, 9, 42, 100
11, 79695, Note_on_c, 9, 42, 0
11, 79740, Note_on_c, 9, 46, 100
11, 79755, Note_on_c, 9, 46, 0
11, 79860, Note_on_c, 9, 42, 100
11, 79875, Note_on_c, 9, 42, 0
11, 79920, Note_on_c, 9, 46, 100
11, 79920, Note_on_c, 9, 38, 100
11, 79935, Note_on_c, 9, 38, 0
11, 79935, Note_on_c, 9, 46, 0
11, 79980, Note_on_c, 9, 42, 100
11, 79995, Note_on_c, 9, 42, 0
11, 80040, Note_on_c, 9, 42, 90
11, 80040, Note_on_c, 9, 35, 100
11, 80055, Note_on_c, 9, 35, 0
11, 80055, Note_on_c, 9, 42, 0
11, 80100, Note_on_c, 9, 42, 69
11, 80115, Note_on_c, 9, 42, 0
11, 80160, Note_on_c, 9, 42, 76
11, 80175, Note_on_c, 9, 42, 0
11, 80220, Note_on_c, 9, 42, 61
11, 80235, Note_on_c, 9, 42, 0
11, 80280, Note_on_c, 9, 42, 100
11, 80295, Note_on_c, 9, 42, 0
11, 80340, Note_on_c, 9, 42, 69
11, 80355, Note_on_c, 9, 42, 0
11, 80400, Note_on_c, 9, 42, 100
11, 80415, Note_on_c, 9, 42, 0
11, 80460, Note_on_c, 9, 42, 67
11, 80475, Note_on_c, 9, 42, 0
11, 80520, Note_on_c, 9, 42, 100
11, 80535, Note_on_c, 9, 42, 0
11, 80580, Note_on_c, 9, 38, 100
11, 80580, Note_on_c, 9, 42, 67
11, 80595, Note_on_c, 9, 42, 0
11, 80595, Note_on_c, 9, 38, 0
11, 80640, Note_on_c, 9, 42, 100
11, 80655, Note_on_c, 9, 42, 0
11, 80700, Note_on_c, 9, 42, 67
11, 80700, Note_on_c, 9, 35, 100
11, 80715, Note_on_c, 9, 35, 0
11, 80715, Note_on_c, 9, 42, 0
11, 80760, Note_on_c, 9, 42, 100
11, 80775, Note_on_c, 9, 42, 0
11, 80820, Note_on_c, 9, 42, 67
11, 80835, Note_on_c, 9, 42, 0
11, 80880, Note_on_c, 9, 42, 100
11, 80895, Note_on_c, 9, 42, 0
11, 80940, Note_on_c, 9, 42, 67
11, 80940, Note_on_c, 9, 35, 100
11, 80955, Note_on_c, 9, 35, 0
11, 80955, Note_on_c, 9, 42, 0
11, 81000, Note_on_c, 9, 42, 100
11, 81015, Note_on_c, 9, 42, 0
11, 81060, Note_on_c, 9, 42, 67
11, 81075, Note_on_c, 9, 42, 0
11, 81120, Note_on_c, 9, 42, 100
11, 81135, Note_on_c, 9, 42, 0
11, 81180, Note_on_c, 9, 42, 67
11, 81195, Note_on_c, 9, 42, 0
11, 81240, Note_on_c, 9, 42, 100
11, 81255, Note_on_c, 9, 42, 0
11, 81300, Note_on_c, 9, 42, 100
11, 81315, Note_on_c, 9, 42, 0
11, 81360, Note_on_c, 9, 42, 100
11, 81360, Note_on_c, 9, 38, 100
11, 81375, Note_on_c, 9, 38, 0
11, 81375, Note_on_c, 9, 42, 0
11, 81420, Note_on_c, 9, 42, 100
11, 81435, Note_on_c, 9, 42, 0
11, 81450, Note_on_c, 9, 46, 100
11, 81465, Note_on_c, 9, 46, 0
11, 81480, Note_on_c, 9, 35, 100
11, 81480, Note_on_c, 9, 42, 100
11, 81495, Note_on_c, 9, 42, 0
11, 81495, Note_on_c, 9, 35, 0
11, 81540, Note_on_c, 9, 42, 69
11, 81555, Note_on_c, 9, 42, 0
11, 81600, Note_on_c, 9, 42, 100
11, 81615, Note_on_c, 9, 42, 0
11, 81660, Note_on_c, 9, 42, 67
11, 81675, Note_on_c, 9, 42, 0
11, 81720, Note_on_c, 9, 42, 100
11, 81735, Note_on_c, 9, 42, 0
11, 81780, Note_on_c, 9, 42, 67
11, 81795, Note_on_c, 9, 42, 0
11, 81840, Note_on_c, 9, 42, 100
11, 81855, Note_on_c, 9, 42, 0
11, 81900, Note_on_c, 9, 42, 67
11, 81915, Note_on_c, 9, 42, 0
11, 81960, Note_on_c, 9, 42, 100
11, 81975, Note_on_c, 9, 42, 0
11, 82020, Note_on_c, 9, 42, 67
11, 82020, Note_on_c, 9, 38, 100
11, 82035, Note_on_c, 9, 38, 0
11, 82035, Note_on_c, 9, 42, 0
11, 82080, Note_on_c, 9, 42, 100
11, 82095, Note_on_c, 9, 42, 0
11, 82140, Note_on_c, 9, 42, 67
11, 82140, Note_on_c, 9, 35, 100
11, 82155, Note_on_c, 9, 35, 0
11, 82155, Note_on_c, 9, 42, 0
11, 82200, Note_on_c, 9, 42, 100
11, 82215, Note_on_c, 9, 42, 0
11, 82260, Note_on_c, 9, 42, 100
11, 82275, Note_on_c, 9, 42, 0
11, 82320, Note_on_c, 9, 46, 100
11, 82335, Note_on_c, 9, 46, 0
11, 82380, Note_on_c, 9, 35, 100
11, 82395, Note_on_c, 9, 35, 0
11, 82440, Note_on_c, 9, 42, 100
11, 82455, Note_on_c, 9, 42, 0
11, 82500, Note_on_c, 9, 42, 100
11, 82515, Note_on_c, 9, 42, 0
11, 82560, Note_on_c, 9, 42, 100
11, 82575, Note_on_c, 9, 42, 0
11, 82620, Note_on_c, 9, 46, 100
11, 82635, Note_on_c, 9, 46, 0
11, 82740, Note_on_c, 9, 42, 100
11, 82755, Note_on_c, 9, 42, 0
11, 82800, Note_on_c, 9, 38, 100
11, 82800, Note_on_c, 9, 46, 100
11, 82815, Note_on_c, 9, 46, 0
11, 82815, Note_on_c, 9, 38, 0
11, 82860, Note_on_c, 9, 42, 100
11, 82875, Note_on_c, 9, 42, 0
11, 82920, Note_on_c, 9, 42, 90
11, 82920, Note_on_c, 9, 35, 100
11, 82935, Note_on_c, 9, 35, 0
11, 82935, Note_on_c, 9, 42, 0
11, 82980, Note_on_c, 9, 42, 69
11, 82995, Note_on_c, 9, 42, 0
11, 83040, Note_on_c, 9, 42, 76
11, 83055, Note_on_c, 9, 42, 0
11, 83100, Note_on_c, 9, 42, 61
11, 83115, Note_on_c, 9, 42, 0
11, 83160, Note_on_c, 9, 42, 100
11, 83175, Note_on_c, 9, 42, 0
11, 83220, Note_on_c, 9, 42, 69
11, 83235, Note_on_c, 9, 42, 0
11, 83280, Note_on_c, 9, 42, 100
11, 83295, Note_on_c, 9, 42, 0
11, 83340, Note_on_c, 9, 42, 67
11, 83355, Note_on_c, 9, 42, 0
11, 83400, Note_on_c, 9, 42, 100
11, 83415, Note_on_c, 9, 42, 0
11, 83460, Note_on_c, 9, 42, 67
11, 83460, Note_on_c, 9, 38, 100
11, 83475, Note_on_c, 9, 38, 0
11, 83475, Note_on_c, 9, 42, 0
11, 83520, Note_on_c, 9, 42, 100
11, 83535, Note_on_c, 9, 42, 0
11, 83580, Note_on_c, 9, 35, 100
11, 83580, Note_on_c, 9, 42, 67
11, 83595, Note_on_c, 9, 42, 0
11, 83595, Note_on_c, 9, 35, 0
11, 83640, Note_on_c, 9, 42, 100
11, 83655, Note_on_c, 9, 42, 0
11, 83700, Note_on_c, 9, 42, 67
11, 83715, Note_on_c, 9, 42, 0
11, 83760, Note_on_c, 9, 42, 100
11, 83775, Note_on_c, 9, 42, 0
11, 83820, Note_on_c, 9, 35, 100
11, 83820, Note_on_c, 9, 42, 67
11, 83835, Note_on_c, 9, 42, 0
11, 83835, Note_on_c, 9, 35, 0
11, 83880, Note_on_c, 9, 42, 100
11, 83895, Note_on_c, 9, 42, 0
11, 83940, Note_on_c, 9, 42, 67
11, 83955, Note_on_c, 9, 42, 0
11, 84000, Note_on_c, 9, 42, 100
11, 84015, Note_on_c, 9, 42, 0
11, 84060, Note_on_c, 9, 42, 67
11, 84075, Note_on_c, 9, 42, 0
11, 84120, Note_on_c, 9, 42, 100
11, 84135, Note_on_c, 9, 42, 0
11, 84180, Note_on_c, 9, 42, 100
11, 84195, Note_on_c, 9, 42, 0
11, 84240, Note_on_c, 9, 42, 100
11, 84240, Note_on_c, 9, 38, 100
11, 84255, Note_on_c, 9, 38, 0
11, 84255, Note_on_c, 9, 42, 0
11, 84300, Note_on_c, 9, 42, 100
11, 84315, Note_on_c, 9, 42, 0
11, 84330, Note_on_c, 9, 46, 100
11, 84345, Note_on_c, 9, 46, 0
11, 84360, Note_on_c, 9, 42, 100
11, 84360, Note_on_c, 9, 35, 100
11, 84375, Note_on_c, 9, 35, 0
11, 84375, Note_on_c, 9, 42, 0
11, 84420, Note_on_c, 9, 42, 69
11, 84435, Note_on_c, 9, 42, 0
11, 84480, Note_on_c, 9, 42, 100
11, 84495, Note_on_c, 9, 42, 0
11, 84540, Note_on_c, 9, 42, 67
11, 84555, Note_on_c, 9, 42, 0
11, 84600, Note_on_c, 9, 42, 100
11, 84615, Note_on_c, 9, 42, 0
11, 84660, Note_on_c, 9, 42, 67
11, 84675, Note_on_c, 9, 42, 0
11, 84720, Note_on_c, 9, 42, 100
11, 84735, Note_on_c, 9, 42, 0
11, 84780, Note_on_c, 9, 42, 67
11, 84795, Note_on_c, 9, 42, 0
11, 84840, Note_on_c, 9, 42, 100
11, 84855, Note_on_c, 9, 42, 0
11, 84900, Note_on_c, 9, 38, 100
11, 84900, Note_on_c, 9, 42, 67
11, 84915, Note_on_c, 9, 42, 0
11, 84915, Note_on_c, 9, 38, 0
11, 84960, Note_on_c, 9, 42, 100
11, 84975, Note_on_c, 9, 42, 0
11, 85020, Note_on_c, 9, 35, 100
11, 85020, Note_on_c, 9, 42, 67
11, 85035, Note_on_c, 9, 42, 0
11, 85035, Note_on_c, 9, 35, 0
11, 85080, Note_on_c, 9, 42, 100
11, 85095, Note_on_c, 9, 42, 0
11, 85140, Note_on_c, 9, 42, 100
11, 85155, Note_on_c, 9, 42, 0
11, 85200, Note_on_c, 9, 46, 100
11, 85215, Note_on_c, 9, 46, 0
11, 85260, Note_on_c, 9, 35, 100
11, 85275, Note_on_c, 9, 35, 0
11, 85320, Note_on_c, 9, 42, 100
11, 85335, Note_on_c, 9, 42, 0
11, 85380, Note_on_c, 9, 42, 100
11, 85395, Note_on_c, 9, 42, 0
11, 85440, Note_on_c, 9, 42, 100
11, 85455, Note_on_c, 9, 42, 0
11, 85500, Note_on_c, 9, 46, 100
11, 85515, Note_on_c, 9, 46, 0
11, 85620, Note_on_c, 9, 42, 100
11, 85635, Note_on_c, 9, 42, 0
11, 85680, Note_on_c, 9, 38, 100
11, 85680, Note_on_c, 9, 46, 100
11, 85695, Note_on_c, 9, 46, 0
11, 85695, Note_on_c, 9, 38, 0
11, 85740, Note_on_c, 9, 42, 100
11, 85755, Note_on_c, 9, 42, 0
11, 85800, Note_on_c, 9, 42, 90
11, 85800, Note_on_c, 9, 35, 100
11, 85815, Note_on_c, 9, 35, 0
11, 85815, Note_on_c, 9, 42, 0
11, 85860, Note_on_c, 9, 42, 69
11, 85875, Note_on_c, 9, 42, 0
11, 85920, Note_on_c, 9, 42, 76
11, 85935, Note_on_c, 9, 42, 0
11, 85980, Note_on_c, 9, 42, 61
11, 85995, Note_on_c, 9, 42, 0
11, 86040, Note_on_c, 9, 42, 100
11, 86055, Note_on_c, 9, 42, 0
11, 86100, Note_on_c, 9, 42, 69
11, 86115, Note_on_c, 9, 42, 0
11, 86160, Note_on_c, 9, 42, 100
11, 86175, Note_on_c, 9, 42, 0
11, 86220, Note_on_c, 9, 42, 67
11, 86235, Note_on_c, 9, 42, 0
11, 86280, Note_on_c, 9, 42, 100
11, 86295, Note_on_c, 9, 42, 0
11, 86340, Note_on_c, 9, 42, 67
11, 86340, Note_on_c, 9, 38, 100
11, 86355, Note_on_c, 9, 38, 0
11, 86355, Note_on_c, 9, 42, 0
11, 86400, Note_on_c, 9, 42, 100
11, 86415, Note_on_c, 9, 42, 0
11, 86460, Note_on_c, 9, 42, 67
11, 86460, Note_on_c, 9, 35, 100
11, 86475, Note_on_c, 9, 35, 0
11, 86475, Note_on_c, 9, 42, 0
11, 86520, Note_on_c, 9, 42, 100
11, 86535, Note_on_c, 9, 42, 0
11, 86580, Note_on_c, 9, 42, 67
11, 86595, Note_on_c, 9, 42, 0
11, 86640, Note_on_c, 9, 42, 100
11, 86655, Note_on_c, 9, 42, 0
11, 86700, Note_on_c, 9, 35, 100
11, 86700, Note_on_c, 9, 42, 67
11, 86715, Note_on_c, 9, 42, 0
11, 86715, Note_on_c, 9, 35, 0
11, 86760, Note_on_c, 9, 42, 100
11, 86775, Note_on_c, 9, 42, 0
11, 86820, Note_on_c, 9, 42, 67
11, 86835, Note_on_c, 9, 42, 0
11, 86880, Note_on_c, 9, 42, 100
11, 86895, Note_on_c, 9, 42, 0
11, 86940, Note_on_c, 9, 42, 67
11, 86955, Note_on_c, 9, 42, 0
11, 87000, Note_on_c, 9, 42, 100
11, 87015, Note_on_c, 9, 42, 0
11, 87060, Note_on_c, 9, 42, 100
11, 87075, Note_on_c, 9, 42, 0
11, 87120, Note_on_c, 9, 42, 100
11, 87120, Note_on_c, 9, 38, 100
11, 87135, Note_on_c, 9, 38, 0
11, 87135, Note_on_c, 9, 42, 0
11, 87180, Note_on_c, 9, 42, 100
11, 87195, Note_on_c, 9, 42, 0
11, 87210, Note_on_c, 9, 46, 100
11, 87225, Note_on_c, 9, 46, 0
11, 87240, Note_on_c, 9, 35, 100
11, 87240, Note_on_c, 9, 42, 100
11, 87255, Note_on_c, 9, 42, 0
11, 87255, Note_on_c, 9, 35, 0
11, 87300, Note_on_c, 9, 42, 69
11, 87315, Note_on_c, 9, 42, 0
11, 87360, Note_on_c, 9, 42, 100
11, 87375, Note_on_c, 9, 42, 0
11, 87420, Note_on_c, 9, 42, 67
11, 87435, Note_on_c, 9, 42, 0
11, 87480, Note_on_c, 9, 42, 100
11, 87495, Note_on_c, 9, 42, 0
11, 87540, Note_on_c, 9, 42, 67
11, 87555, Note_on_c, 9, 42, 0
11, 87600, Note_on_c, 9, 42, 100
11, 87615, Note_on_c, 9, 42, 0
11, 87660, Note_on_c, 9, 42, 67
11, 87675, Note_on_c, 9, 42, 0
11, 87720, Note_on_c, 9, 42, 100
11, 87735, Note_on_c, 9, 42, 0
11, 87780, Note_on_c, 9, 38, 100
11, 87780, Note_on_c, 9, 42, 67
11, 87795, Note_on_c, 9, 42, 0
11, 87795, Note_on_c, 9, 38, 0
11, 87840, Note_on_c, 9, 42, 100
11, 87855, Note_on_c, 9, 42, 0
11, 87900, Note_on_c, 9, 42, 67
11, 87900, Note_on_c, 9, 35, 100
11, 87915, Note_on_c, 9, 35, 0
11, 87915, Note_on_c, 9, 42, 0
11, 87960, Note_on_c, 9, 42, 100
11, 87975, Note_on_c, 9, 42, 0
11, 88020, Note_on_c, 9, 42, 100
11, 88035, Note_on_c, 9, 42, 0
11, 88080, Note_on_c, 9, 46, 100
11, 88095, Note_on_c, 9, 46, 0
11, 88140, Note_on_c, 9, 35, 100
11, 88155, Note_on_c, 9, 35, 0
11, 88200, Note_on_c, 9, 42, 100
11, 88215, Note_on_c, 9, 42, 0
11, 88260, Note_on_c, 9, 42, 100
11, 88275, Note_on_c, 9, 42, 0
11, 88320, Note_on_c, 9, 42, 100
11, 88335, Note_on_c, 9, 42, 0
11, 88380, Note_on_c, 9, 46, 100
11, 88395, Note_on_c, 9, 46, 0
11, 88500, Note_on_c, 9, 42, 100
11, 88515, Note_on_c, 9, 42, 0
11, 88560, Note_on_c, 9, 46, 100
11, 88560, Note_on_c, 9, 38, 100
11, 88575, Note_on_c, 9, 38, 0
11, 88575, Note_on_c, 9, 46, 0
11, 88620, Note_on_c, 9, 42, 100
11, 88635, Note_on_c, 9, 42, 0
11, 88680, Control_c, 9, 11, 127
11, 88680, Note_on_c, 9, 54, 84
11, 88680, Note_on_c, 9, 63, 100
11, 88695, Note_on_c, 9, 63, 0
11, 88695, Note_on_c, 9, 54, 0
11, 88710, Control_c, 9, 11, 126
11, 88730, Control_c, 9, 11, 125
11, 88740, Note_on_c, 9, 54, 100
11, 88740, Note_on_c, 9, 63, 100
11, 88750, Control_c, 9, 11, 124
11, 88755, Note_on_c, 9, 63, 0
11, 88755, Note_on_c, 9, 54, 0
11, 88780, Control_c, 9, 11, 123
11, 88800, Control_c, 9, 11, 122
11, 88800, Note_on_c, 9, 54, 81
11, 88800, Note_on_c, 9, 62, 100
11, 88815, Note_on_c, 9, 62, 0
11, 88815, Note_on_c, 9, 54, 0
11, 88820, Control_c, 9, 11, 121
11, 88840, Control_c, 9, 11, 120
11, 88860, Note_on_c, 9, 54, 81
11, 88860, Note_on_c, 9, 63, 100
11, 88870, Control_c, 9, 11, 119
11, 88875, Note_on_c, 9, 63, 0
11, 88875, Note_on_c, 9, 54, 0
11, 88890, Control_c, 9, 11, 118
11, 88910, Control_c, 9, 11, 117
11, 88920, Note_on_c, 9, 54, 100
11, 88920, Note_on_c, 9, 63, 100
11, 88935, Note_on_c, 9, 63, 0
11, 88935, Note_on_c, 9, 54, 0
11, 88940, Control_c, 9, 11, 116
11, 88960, Control_c, 9, 11, 115
11, 88980, Control_c, 9, 11, 114
11, 88980, Note_on_c, 9, 54, 78
11, 88980, Note_on_c, 9, 62, 100
11, 88995, Note_on_c, 9, 62, 0
11, 88995, Note_on_c, 9, 54, 0
11, 89000, Control_c, 9, 11, 113
11, 89030, Control_c, 9, 11, 112
11, 89040, Note_on_c, 9, 54, 100
11, 89040, Note_on_c, 9, 63, 100
11, 89050, Control_c, 9, 11, 111
11, 89055, Note_on_c, 9, 63, 0
11, 89055, Note_on_c, 9, 54, 0
11, 89070, Control_c, 9, 11, 110
11, 89090, Control_c, 9, 11, 109
11, 89100, Note_on_c, 9, 54, 78
11, 89100, Note_on_c, 9, 63, 100
11, 89115, Note_on_c, 9, 63, 0
11, 89115, Note_on_c, 9, 54, 0
11, 89120, Control_c, 9, 11, 108
11, 89140, Control_c, 9, 11, 107
11, 89160, Control_c, 9, 11, 106
11, 89160, Note_on_c, 9, 54, 100
11, 89160, Note_on_c, 9, 62, 100
11, 89175, Note_on_c, 9, 62, 0
11, 89175, Note_on_c, 9, 54, 0
11, 89190, Control_c, 9, 11, 105
11, 89210, Control_c, 9, 11, 104
11, 89220, Note_on_c, 9, 54, 78
11, 89220, Note_on_c, 9, 63, 100
11, 89230, Control_c, 9, 11, 103
11, 89235, Note_on_c, 9, 63, 0
11, 89235, Note_on_c, 9, 54, 0
11, 89250, Control_c, 9, 11, 102
11, 89280, Control_c, 9, 11, 101
11, 89280, Note_on_c, 9, 54, 78
11, 89280, Note_on_c, 9, 63, 100
11, 89295, Note_on_c, 9, 63, 0
11, 89295, Note_on_c, 9, 54, 0
11, 89300, Control_c, 9, 11, 100
11, 89320, Control_c, 9, 11, 99
11, 89340, Control_c, 9, 11, 98
11, 89340, Note_on_c, 9, 54, 78
11, 89340, Note_on_c, 9, 62, 100
11, 89355, Note_on_c, 9, 62, 0
11, 89355, Note_on_c, 9, 54, 0
11, 89370, Control_c, 9, 11, 97
11, 89390, Control_c, 9, 11, 96
11, 89400, Note_on_c, 9, 54, 84
11, 89400, Note_on_c, 9, 63, 100
11, 89410, Control_c, 9, 11, 95
11, 89415, Note_on_c, 9, 63, 0
11, 89415, Note_on_c, 9, 54, 0
11, 89440, Control_c, 9, 11, 94
11, 89460, Control_c, 9, 11, 93
11, 89460, Note_on_c, 9, 54, 100
11, 89460, Note_on_c, 9, 63, 100
11, 89475, Note_on_c, 9, 63, 0
11, 89475, Note_on_c, 9, 54, 0
11, 89480, Control_c, 9, 11, 92
11, 89500, Control_c, 9, 11, 91
11, 89520, Note_on_c, 9, 54, 81
11, 89520, Note_on_c, 9, 62, 100
11, 89530, Control_c, 9, 11, 90
11, 89535, Note_on_c, 9, 62, 0
11, 89535, Note_on_c, 9, 54, 0
11, 89550, Control_c, 9, 11, 89
11, 89570, Control_c, 9, 11, 88
11, 89580, Note_on_c, 9, 54, 81
11, 89580, Note_on_c, 9, 63, 100
11, 89595, Note_on_c, 9, 63, 0
11, 89595, Note_on_c, 9, 54, 0
11, 89600, Control_c, 9, 11, 87
11, 89620, Control_c, 9, 11, 86
11, 89640, Control_c, 9, 11, 85
11, 89640, Note_on_c, 9, 54, 100
11, 89640, Note_on_c, 9, 63, 100
11, 89655, Note_on_c, 9, 63, 0
11, 89655, Note_on_c, 9, 54, 0
11, 89660, Control_c, 9, 11, 84
11, 89690, Control_c, 9, 11, 83
11, 89700, Note_on_c, 9, 54, 78
11, 89700, Note_on_c, 9, 62, 100
11, 89710, Control_c, 9, 11, 82
11, 89715, Note_on_c, 9, 62, 0
11, 89715, Note_on_c, 9, 54, 0
11, 89730, Control_c, 9, 11, 81
11, 89750, Control_c, 9, 11, 80
11, 89760, Note_on_c, 9, 54, 100
11, 89760, Note_on_c, 9, 63, 100
11, 89775, Note_on_c, 9, 63, 0
11, 89775, Note_on_c, 9, 54, 0
11, 89780, Control_c, 9, 11, 79
11, 89800, Control_c, 9, 11, 78
11, 89820, Control_c, 9, 11, 77
11, 89820, Note_on_c, 9, 54, 78
11, 89820, Note_on_c, 9, 63, 100
11, 89835, Note_on_c, 9, 63, 0
11, 89835, Note_on_c, 9, 54, 0
11, 89850, Control_c, 9, 11, 76
11, 89870, Control_c, 9, 11, 75
11, 89880, Note_on_c, 9, 54, 100
11, 89880, Note_on_c, 9, 62, 100
11, 89890, Control_c, 9, 11, 74
11, 89895, Note_on_c, 9, 62, 0
11, 89895, Note_on_c, 9, 54, 0
11, 89910, Control_c, 9, 11, 73
11, 89940, Control_c, 9, 11, 72
11, 89940, Note_on_c, 9, 54, 78
11, 89940, Note_on_c, 9, 63, 100
11, 89955, Note_on_c, 9, 63, 0
11, 89955, Note_on_c, 9, 54, 0
11, 89960, Control_c, 9, 11, 71
11, 89980, Control_c, 9, 11, 70
11, 90000, Control_c, 9, 11, 69
11, 90000, Note_on_c, 9, 54, 78
11, 90000, Note_on_c, 9, 63, 100
11, 90015, Note_on_c, 9, 63, 0
11, 90015, Note_on_c, 9, 54, 0
11, 90030, Control_c, 9, 11, 68
11, 90050, Control_c, 9, 11, 67
11, 90060, Note_on_c, 9, 54, 78
11, 90060, Note_on_c, 9, 62, 100
11, 90070, Control_c, 9, 11, 66
11, 90075, Note_on_c, 9, 62, 0
11, 90075, Note_on_c, 9, 54, 0
11, 90100, Control_c, 9, 11, 65
11, 90120, Control_c, 9, 11, 64
11, 90120, Note_on_c, 9, 63, 100
11, 90120, Note_on_c, 9, 54, 84
11, 90135, Note_on_c, 9, 54, 0
11, 90135, Note_on_c, 9, 63, 0
11, 90140, Control_c, 9, 11, 63
11, 90160, Control_c, 9, 11, 62
11, 90180, Note_on_c, 9, 63, 100
11, 90180, Note_on_c, 9, 54, 100
11, 90190, Control_c, 9, 11, 61
11, 90195, Note_on_c, 9, 54, 0
11, 90195, Note_on_c, 9, 63, 0
11, 90210, Control_c, 9, 11, 60
11, 90230, Control_c, 9, 11, 59
11, 90240, Note_on_c, 9, 62, 100
11, 90240, Note_on_c, 9, 54, 81
11, 90255, Note_on_c, 9, 54, 0
11, 90255, Note_on_c, 9, 62, 0
11, 90260, Control_c, 9, 11, 58
11, 90280, Control_c, 9, 11, 57
11, 90300, Control_c, 9, 11, 56
11, 90300, Note_on_c, 9, 63, 100
11, 90300, Note_on_c, 9, 54, 81
11, 90315, Note_on_c, 9, 54, 0
11, 90315, Note_on_c, 9, 63, 0
11, 90320, Control_c, 9, 11, 55
11, 90350, Control_c, 9, 11, 54
11, 90360, Note_on_c, 9, 63, 100
11, 90360, Note_on_c, 9, 54, 100
11, 90370, Control_c, 9, 11, 53
11, 90375, Note_on_c, 9, 54, 0
11, 90375, Note_on_c, 9, 63, 0
11, 90390, Control_c, 9, 11, 52
11, 90410, Control_c, 9, 11, 51
11, 90420, Note_on_c, 9, 62, 100
11, 90420, Note_on_c, 9, 54, 78
11, 90435, Note_on_c, 9, 54, 0
11, 90435, Note_on_c, 9, 62, 0
11, 90440, Control_c, 9, 11, 50
11, 90460, Control_c, 9, 11, 49
11, 90480, Control_c, 9, 11, 48
11, 90480, Note_on_c, 9, 63, 100
11, 90480, Note_on_c, 9, 54, 100
11, 90495, Note_on_c, 9, 54, 0
11, 90495, Note_on_c, 9, 63, 0
11, 90510, Control_c, 9, 11, 47
11, 90530, Control_c, 9, 11, 46
11, 90540, Note_on_c, 9, 63, 100
11, 90540, Note_on_c, 9, 54, 78
11, 90550, Control_c, 9, 11, 45
11, 90555, Note_on_c, 9, 54, 0
11, 90555, Note_on_c, 9, 63, 0
11, 90570, Control_c, 9, 11, 44
11, 90600, Control_c, 9, 11, 43
11, 90600, Note_on_c, 9, 62, 100
11, 90600, Note_on_c, 9, 54, 100
11, 90615, Note_on_c, 9, 54, 0
11, 90615, Note_on_c, 9, 62, 0
11, 90620, Control_c, 9, 11, 42
11, 90640, Control_c, 9, 11, 41
11, 90660, Control_c, 9, 11, 40
11, 90660, Note_on_c, 9, 63, 100
11, 90660, Note_on_c, 9, 54, 78
11, 90675, Note_on_c, 9, 54, 0
11, 90675, Note_on_c, 9, 63, 0
11, 90690, Control_c, 9, 11, 39
11, 90710, Control_c, 9, 11, 38
11, 90720, Note_on_c, 9, 63, 100
11, 90720, Note_on_c, 9, 54, 78
11, 90730, Control_c, 9, 11, 37
11, 90735, Note_on_c, 9, 54, 0
11, 90735, Note_on_c, 9, 63, 0
11, 90760, Control_c, 9, 11, 36
11, 90780, Control_c, 9, 11, 35
11, 90780, Note_on_c, 9, 62, 100
11, 90780, Note_on_c, 9, 54, 78
11, 90795, Note_on_c, 9, 54, 0
11, 90795, Note_on_c, 9, 62, 0
11, 90800, Control_c, 9, 11, 34
11, 90820, Control_c, 9, 11, 33
11, 90840, Note_on_c, 9, 54, 84
11, 90840, Note_on_c, 9, 63, 100
11, 90850, Control_c, 9, 11, 32
11, 90855, Note_on_c, 9, 63, 0
11, 90855, Note_on_c, 9, 54, 0
11, 90870, Control_c, 9, 11, 31
11, 90890, Control_c, 9, 11, 30
11, 90900, Note_on_c, 9, 54, 100
11, 90900, Note_on_c, 9, 63, 100
11, 90915, Note_on_c, 9, 63, 0
11, 90915, Note_on_c, 9, 54, 0
11, 90920, Control_c, 9, 11, 29
11, 90940, Control_c, 9, 11, 28
11, 90960, Control_c, 9, 11, 27
11, 90960, Note_on_c, 9, 54, 81
11, 90960, Note_on_c, 9, 62, 100
11, 90975, Note_on_c, 9, 62, 0
11, 90975, Note_on_c, 9, 54, 0
11, 90980, Control_c, 9, 11, 26
11, 91010, Control_c, 9, 11, 25
11, 91020, Note_on_c, 9, 54, 81
11, 91020, Note_on_c, 9, 63, 100
11, 91030, Control_c, 9, 11, 24
11, 91035, Note_on_c, 9, 63, 0
11, 91035, Note_on_c, 9, 54, 0
11, 91050, Control_c, 9, 11, 23
11, 91070, Control_c, 9, 11, 22
11, 91080, Note_on_c, 9, 54, 100
11, 91080, Note_on_c, 9, 63, 100
11, 91095, Note_on_c, 9, 63, 0
11, 91095, Note_on_c, 9, 54, 0
11, 91100, Control_c, 9, 11, 21
11, 91120, Control_c, 9, 11, 20
11, 91140, Control_c, 9, 11, 19
11, 91140, Note_on_c, 9, 54, 78
11, 91140, Note_on_c, 9, 62, 100
11, 91155, Note_on_c, 9, 62, 0
11, 91155, Note_on_c, 9, 54, 0
11, 91170, Control_c, 9, 11, 18
11, 91190, Control_c, 9, 11, 17
11, 91200, Note_on_c, 9, 54, 100
11, 91200, Note_on_c, 9, 63, 100
11, 91210, Control_c, 9, 11, 16
11, 91215, Note_on_c, 9, 63, 0
11, 91215, Note_on_c, 9, 54, 0
11, 91230, Control_c, 9, 11, 15
11, 91260, Control_c, 9, 11, 14
11, 91260, Note_on_c, 9, 54, 78
11, 91260, Note_on_c, 9, 63, 100
11, 91275, Note_on_c, 9, 63, 0
11, 91275, Note_on_c, 9, 54, 0
11, 91280, Control_c, 9, 11, 13
11, 91300, Control_c, 9, 11, 12
11, 91320, Control_c, 9, 11, 11
11, 91320, Note_on_c, 9, 54, 100
11, 91320, Note_on_c, 9, 62, 100
11, 91335, Note_on_c, 9, 62, 0
11, 91335, Note_on_c, 9, 54, 0
11, 91350, Control_c, 9, 11, 10
11, 91370, Control_c, 9, 11, 9
11, 91380, Note_on_c, 9, 54, 78
11, 91380, Note_on_c, 9, 63, 100
11, 91390, Control_c, 9, 11, 8
11, 91395, Note_on_c, 9, 63, 0
11, 91395, Note_on_c, 9, 54, 0
11, 91420, Control_c, 9, 11, 7
11, 91440, Control_c, 9, 11, 6
11, 91440, Note_on_c, 9, 54, 78
11, 91440, Note_on_c, 9, 63, 100
11, 91455, Note_on_c, 9, 63, 0
11, 91455, Note_on_c, 9, 54, 0
11, 91460, Control_c, 9, 11, 5
11, 91480, Control_c, 9, 11, 4
11, 91500, Note_on_c, 9, 54, 78
11, 91500, Note_on_c, 9, 62, 100
11, 91510, Control_c, 9, 11, 3
11, 91515, Note_on_c, 9, 62, 0
11, 91515, Note_on_c, 9, 54, 0
11, 91530, Control_c, 9, 11, 2
11, 91550, Control_c, 9, 11, 1
11, 91570, Control_c, 9, 11, 0
11, 91570, End_track
12, 0, Start_track
12, 0, Title_t, "A11-ORCHESTRA   "
12, 0, Control_c, 10, 0, 0
12, 0, Control_c, 10, 32, 3
12, 0, Program_c, 10, 48
12, 0, Control_c, 10, 7, 120
12, 0, Control_c, 10, 10, 64
12, 197, Control_c, 10, 91, 60
12, 198, Control_c, 10, 93, 0
12, 360, Control_c, 10, 99, 28
12, 360, Control_c, 10, 98, 50
12, 360, Control_c, 10, 6, 64
12, 360, Control_c, 10, 38, 127
12, 370, Control_c, 10, 99, 28
12, 370, Control_c, 10, 98, 59
12, 370, Control_c, 10, 6, 64
12, 370, Control_c, 10, 38, 127
12, 390, Control_c, 10, 99, 28
12, 390, Control_c, 10, 98, 49
12, 390, Control_c, 10, 6, 64
12, 390, Control_c, 10, 38, 127
12, 400, Control_c, 10, 99, 28
12, 400, Control_c, 10, 98, 53
12, 400, Control_c, 10, 6, 64
12, 400, Control_c, 10, 38, 127
12, 400, Control_c, 10, 99, 28
12, 400, Control_c, 10, 98, 48
12, 400, Control_c, 10, 6, 64
12, 400, Control_c, 10, 38, 127
12, 410, Control_c, 10, 99, 28
12, 410, Control_c, 10, 98, 47
12, 410, Control_c, 10, 6, 64
12, 410, Control_c, 10, 38, 127
12, 425, Control_c, 10, 99, 28
12, 425, Control_c, 10, 98, 52
12, 425, Control_c, 10, 6, 64
12, 425, Control_c, 10, 38, 127
12, 435, Control_c, 10, 99, 28
12, 435, Control_c, 10, 98, 46
12, 435, Control_c, 10, 6, 64
12, 435, Control_c, 10, 38, 127
12, 440, Control_c, 10, 99, 28
12, 440, Control_c, 10, 98, 51
12, 440, Control_c, 10, 6, 64
12, 440, Control_c, 10, 38, 127
12, 465, Control_c, 10, 99, 28
12, 465, Control_c, 10, 98, 45
12, 465, Control_c, 10, 6, 64
12, 465, Control_c, 10, 38, 127
12, 480, Control_c, 10, 99, 28
12, 480, Control_c, 10, 98, 44
12, 480, Control_c, 10, 6, 64
12, 480, Control_c, 10, 38, 127
12, 500, Control_c, 10, 99, 28
12, 500, Control_c, 10, 98, 43
12, 500, Control_c, 10, 6, 64
12, 500, Control_c, 10, 38, 127
12, 515, Control_c, 10, 99, 28
12, 515, Control_c, 10, 98, 42
12, 515, Control_c, 10, 6, 64
12, 515, Control_c, 10, 38, 127
12, 535, Control_c, 10, 99, 28
12, 535, Control_c, 10, 98, 41
12, 535, Control_c, 10, 6, 64
12, 535, Control_c, 10, 38, 127
12, 9480, Note_on_c, 10, 45, 110
12, 9495, Note_on_c, 10, 45, 0
12, 9600, Note_on_c, 10, 52, 110
12, 9615, Note_on_c, 10, 52, 0
12, 9720, Note_on_c, 10, 59, 110
12, 9720, Note_on_c, 10, 50, 110
12, 9735, Note_on_c, 10, 50, 0
12, 9735, Note_on_c, 10, 59, 0
12, 10140, Note_on_c, 10, 48, 110
12, 10155, Note_on_c, 10, 48, 0
12, 10260, Note_on_c, 10, 48, 110
12, 10275, Note_on_c, 10, 48, 0
12, 10320, Note_on_c, 10, 48, 110
12, 10335, Note_on_c, 10, 48, 0
12, 10380, Note_on_c, 10, 45, 110
12, 10395, Note_on_c, 10, 45, 0
12, 10440, Note_on_c, 10, 46, 110
12, 10455, Note_on_c, 10, 46, 0
12, 10560, Note_on_c, 10, 48, 110
12, 10560, Note_on_c, 10, 59, 110
12, 10575, Note_on_c, 10, 59, 0
12, 10575, Note_on_c, 10, 48, 0
12, 10680, Note_on_c, 10, 50, 92
12, 10695, Note_on_c, 10, 50, 0
12, 11160, Note_on_c, 10, 50, 110
12, 11175, Note_on_c, 10, 50, 0
12, 11280, Note_on_c, 10, 48, 110
12, 11295, Note_on_c, 10, 48, 0
12, 11340, Note_on_c, 10, 48, 110
12, 11355, Note_on_c, 10, 48, 0
12, 11370, Note_on_c, 10, 48, 110
12, 11385, Note_on_c, 10, 48, 0
12, 11400, Note_on_c, 10, 46, 110
12, 11415, Note_on_c, 10, 46, 0
12, 11460, Note_on_c, 10, 46, 110
12, 11475, Note_on_c, 10, 46, 0
12, 11520, Note_on_c, 10, 59, 110
12, 11520, Note_on_c, 10, 46, 110
12, 11535, Note_on_c, 10, 46, 0
12, 11535, Note_on_c, 10, 59, 0
12, 11640, Note_on_c, 10, 46, 110
12, 11655, Note_on_c, 10, 46, 0
12, 11700, Note_on_c, 10, 46, 110
12, 11715, Note_on_c, 10, 46, 0
12, 11760, Note_on_c, 10, 45, 110
12, 11775, Note_on_c, 10, 45, 0
12, 11820, Note_on_c, 10, 45, 110
12, 11835, Note_on_c, 10, 45, 0
12, 11880, Note_on_c, 10, 59, 110
12, 11880, Note_on_c, 10, 45, 110
12, 11895, Note_on_c, 10, 45, 0
12, 11895, Note_on_c, 10, 59, 0
12, 12000, Note_on_c, 10, 45, 110
12, 12015, Note_on_c, 10, 45, 0
12, 12120, Note_on_c, 10, 43, 110
12, 12135, Note_on_c, 10, 43, 0
12, 12240, Note_on_c, 10, 43, 110
12, 12240, Note_on_c, 10, 59, 110
12, 12255, Note_on_c, 10, 59, 0
12, 12255, Note_on_c, 10, 43, 0
12, 12300, Note_on_c, 10, 43, 110
12, 12315, Note_on_c, 10, 43, 0
12, 12360, Note_on_c, 10, 43, 110
12, 12375, Note_on_c, 10, 43, 0
12, 12480, Note_on_c, 10, 45, 110
12, 12495, Note_on_c, 10, 45, 0
12, 12540, Note_on_c, 10, 45, 110
12, 12555, Note_on_c, 10, 45, 0
12, 12570, Note_on_c, 10, 45, 110
12, 12585, Note_on_c, 10, 45, 0
12, 12600, Note_on_c, 10, 45, 110
12, 12615, Note_on_c, 10, 45, 0
12, 12660, Note_on_c, 10, 45, 110
12, 12675, Note_on_c, 10, 45, 0
12, 12720, Note_on_c, 10, 45, 110
12, 12735, Note_on_c, 10, 45, 0
12, 12780, Note_on_c, 10, 45, 110
12, 12795, Note_on_c, 10, 45, 0
12, 12840, Note_on_c, 10, 45, 110
12, 12855, Note_on_c, 10, 45, 0
12, 12900, Note_on_c, 10, 45, 110
12, 12915, Note_on_c, 10, 45, 0
12, 12930, Note_on_c, 10, 45, 110
12, 12945, Note_on_c, 10, 45, 0
12, 12960, Note_on_c, 10, 45, 110
12, 12975, Note_on_c, 10, 45, 0
12, 13020, Note_on_c, 10, 45, 110
12, 13035, Note_on_c, 10, 45, 0
12, 13080, Note_on_c, 10, 45, 110
12, 13095, Note_on_c, 10, 45, 0
12, 13140, Note_on_c, 10, 45, 110
12, 13155, Note_on_c, 10, 45, 0
12, 13200, Note_on_c, 10, 59, 110
12, 13200, Note_on_c, 10, 50, 110
12, 13215, Note_on_c, 10, 50, 0
12, 13215, Note_on_c, 10, 59, 0
12, 13380, Note_on_c, 10, 50, 110
12, 13395, Note_on_c, 10, 50, 0
12, 13560, Note_on_c, 10, 50, 110
12, 13575, Note_on_c, 10, 50, 0
12, 13680, Note_on_c, 10, 50, 110
12, 13695, Note_on_c, 10, 50, 0
12, 13800, Note_on_c, 10, 50, 110
12, 13815, Note_on_c, 10, 50, 0
12, 13860, Note_on_c, 10, 45, 110
12, 13875, Note_on_c, 10, 45, 0
12, 13920, Note_on_c, 10, 50, 110
12, 13935, Note_on_c, 10, 50, 0
12, 14100, Note_on_c, 10, 50, 110
12, 14115, Note_on_c, 10, 50, 0
12, 14220, Note_on_c, 10, 50, 110
12, 14235, Note_on_c, 10, 50, 0
12, 14280, Note_on_c, 10, 50, 110
12, 14295, Note_on_c, 10, 50, 0
12, 14400, Note_on_c, 10, 45, 110
12, 14415, Note_on_c, 10, 45, 0
12, 14520, Note_on_c, 10, 45, 110
12, 14535, Note_on_c, 10, 45, 0
12, 14640, Note_on_c, 10, 50, 110
12, 14655, Note_on_c, 10, 50, 0
12, 14820, Note_on_c, 10, 50, 110
12, 14835, Note_on_c, 10, 50, 0
12, 15000, Note_on_c, 10, 50, 110
12, 15015, Note_on_c, 10, 50, 0
12, 15120, Note_on_c, 10, 50, 110
12, 15135, Note_on_c, 10, 50, 0
12, 15240, Note_on_c, 10, 50, 110
12, 15255, Note_on_c, 10, 50, 0
12, 15300, Note_on_c, 10, 45, 110
12, 15315, Note_on_c, 10, 45, 0
12, 15360, Note_on_c, 10, 50, 110
12, 15375, Note_on_c, 10, 50, 0
12, 15540, Note_on_c, 10, 50, 110
12, 15555, Note_on_c, 10, 50, 0
12, 15660, Note_on_c, 10, 50, 110
12, 15675, Note_on_c, 10, 50, 0
12, 15720, Note_on_c, 10, 50, 110
12, 15735, Note_on_c, 10, 50, 0
12, 15780, Note_on_c, 10, 45, 110
12, 15795, Note_on_c, 10, 45, 0
12, 15810, Note_on_c, 10, 45, 110
12, 15825, Note_on_c, 10, 45, 0
12, 15840, Note_on_c, 10, 45, 110
12, 15855, Note_on_c, 10, 45, 0
12, 15900, Note_on_c, 10, 45, 110
12, 15915, Note_on_c, 10, 45, 0
12, 15930, Note_on_c, 10, 45, 110
12, 15945, Note_on_c, 10, 45, 0
12, 15960, Note_on_c, 10, 45, 110
12, 15975, Note_on_c, 10, 45, 0
12, 16020, Note_on_c, 10, 45, 110
12, 16035, Note_on_c, 10, 45, 0
12, 16050, Note_on_c, 10, 45, 110
12, 16065, Note_on_c, 10, 45, 0
12, 16080, Note_on_c, 10, 59, 110
12, 16080, Note_on_c, 10, 50, 110
12, 16095, Note_on_c, 10, 50, 0
12, 16095, Note_on_c, 10, 59, 0
12, 16260, Note_on_c, 10, 50, 110
12, 16275, Note_on_c, 10, 50, 0
12, 16440, Note_on_c, 10, 50, 110
12, 16455, Note_on_c, 10, 50, 0
12, 16560, Note_on_c, 10, 50, 110
12, 16575, Note_on_c, 10, 50, 0
12, 16680, Note_on_c, 10, 50, 110
12, 16695, Note_on_c, 10, 50, 0
12, 16740, Note_on_c, 10, 45, 110
12, 16755, Note_on_c, 10, 45, 0
12, 16800, Note_on_c, 10, 50, 110
12, 16815, Note_on_c, 10, 50, 0
12, 16980, Note_on_c, 10, 50, 110
12, 16995, Note_on_c, 10, 50, 0
12, 17100, Note_on_c, 10, 50, 110
12, 17115, Note_on_c, 10, 50, 0
12, 17160, Note_on_c, 10, 50, 110
12, 17175, Note_on_c, 10, 50, 0
12, 17280, Note_on_c, 10, 45, 110
12, 17295, Note_on_c, 10, 45, 0
12, 17400, Note_on_c, 10, 45, 110
12, 17415, Note_on_c, 10, 45, 0
12, 17520, Note_on_c, 10, 50, 110
12, 17535, Note_on_c, 10, 50, 0
12, 17700, Note_on_c, 10, 50, 110
12, 17715, Note_on_c, 10, 50, 0
12, 17880, Note_on_c, 10, 50, 110
12, 17895, Note_on_c, 10, 50, 0
12, 18000, Note_on_c, 10, 50, 110
12, 18015, Note_on_c, 10, 50, 0
12, 18120, Note_on_c, 10, 50, 110
12, 18135, Note_on_c, 10, 50, 0
12, 18180, Note_on_c, 10, 45, 110
12, 18195, Note_on_c, 10, 45, 0
12, 18240, Note_on_c, 10, 50, 110
12, 18255, Note_on_c, 10, 50, 0
12, 18420, Note_on_c, 10, 51, 127
12, 18420, Note_on_c, 10, 50, 127
12, 18435, Note_on_c, 10, 50, 0
12, 18435, Note_on_c, 10, 51, 0
12, 18600, Note_on_c, 10, 45, 112
12, 18615, Note_on_c, 10, 45, 0
12, 18780, Note_on_c, 10, 41, 92
12, 18795, Note_on_c, 10, 41, 0
12, 19620, Note_on_c, 10, 46, 127
12, 19635, Note_on_c, 10, 46, 0
12, 19860, Note_on_c, 10, 41, 127
12, 19875, Note_on_c, 10, 41, 0
12, 20400, Note_on_c, 10, 41, 127
12, 20415, Note_on_c, 10, 41, 0
12, 21060, Note_on_c, 10, 46, 127
12, 21075, Note_on_c, 10, 46, 0
12, 21300, Note_on_c, 10, 41, 127
12, 21315, Note_on_c, 10, 41, 0
12, 21840, Note_on_c, 10, 41, 127
12, 21855, Note_on_c, 10, 41, 0
12, 22500, Note_on_c, 10, 46, 127
12, 22515, Note_on_c, 10, 46, 0
12, 22740, Note_on_c, 10, 41, 127
12, 22755, Note_on_c, 10, 41, 0
12, 23280, Note_on_c, 10, 41, 127
12, 23295, Note_on_c, 10, 41, 0
12, 23940, Note_on_c, 10, 41, 127
12, 23955, Note_on_c, 10, 41, 0
12, 24180, Note_on_c, 10, 51, 127
12, 24195, Note_on_c, 10, 51, 0
12, 24240, Note_on_c, 10, 51, 127
12, 24255, Note_on_c, 10, 51, 0
12, 24360, Note_on_c, 10, 46, 127
12, 24375, Note_on_c, 10, 46, 0
12, 24420, Note_on_c, 10, 46, 127
12, 24435, Note_on_c, 10, 46, 0
12, 24540, Note_on_c, 10, 41, 127
12, 24555, Note_on_c, 10, 41, 0
12, 24600, Note_on_c, 10, 41, 127
12, 24615, Note_on_c, 10, 41, 0
12, 50400, Note_on_c, 10, 45, 110
12, 50415, Note_on_c, 10, 45, 0
12, 50520, Note_on_c, 10, 52, 110
12, 50535, Note_on_c, 10, 52, 0
12, 50640, Note_on_c, 10, 59, 110
12, 50640, Note_on_c, 10, 50, 110
12, 50655, Note_on_c, 10, 50, 0
12, 50655, Note_on_c, 10, 59, 0
12, 51060, Note_on_c, 10, 48, 110
12, 51075, Note_on_c, 10, 48, 0
12, 51180, Note_on_c, 10, 48, 110
12, 51195, Note_on_c, 10, 48, 0
12, 51240, Note_on_c, 10, 48, 110
12, 51255, Note_on_c, 10, 48, 0
12, 51300, Note_on_c, 10, 45, 110
12, 51315, Note_on_c, 10, 45, 0
12, 51360, Note_on_c, 10, 46, 110
12, 51375, Note_on_c, 10, 46, 0
12, 51480, Note_on_c, 10, 48, 110
12, 51480, Note_on_c, 10, 59, 110
12, 51495, Note_on_c, 10, 59, 0
12, 51495, Note_on_c, 10, 48, 0
12, 51600, Note_on_c, 10, 50, 101
12, 51615, Note_on_c, 10, 50, 0
12, 52080, Note_on_c, 10, 50, 110
12, 52095, Note_on_c, 10, 50, 0
12, 52200, Note_on_c, 10, 48, 110
12, 52215, Note_on_c, 10, 48, 0
12, 52260, Note_on_c, 10, 48, 110
12, 52275, Note_on_c, 10, 48, 0
12, 52290, Note_on_c, 10, 48, 110
12, 52305, Note_on_c, 10, 48, 0
12, 52320, Note_on_c, 10, 46, 110
12, 52335, Note_on_c, 10, 46, 0
12, 52380, Note_on_c, 10, 46, 110
12, 52395, Note_on_c, 10, 46, 0
12, 52440, Note_on_c, 10, 59, 110
12, 52440, Note_on_c, 10, 46, 110
12, 52455, Note_on_c, 10, 46, 0
12, 52455, Note_on_c, 10, 59, 0
12, 52560, Note_on_c, 10, 46, 110
12, 52575, Note_on_c, 10, 46, 0
12, 52620, Note_on_c, 10, 46, 110
12, 52635, Note_on_c, 10, 46, 0
12, 52680, Note_on_c, 10, 45, 110
12, 52695, Note_on_c, 10, 45, 0
12, 52740, Note_on_c, 10, 45, 110
12, 52755, Note_on_c, 10, 45, 0
12, 52800, Note_on_c, 10, 59, 110
12, 52800, Note_on_c, 10, 45, 110
12, 52815, Note_on_c, 10, 45, 0
12, 52815, Note_on_c, 10, 59, 0
12, 52920, Note_on_c, 10, 45, 110
12, 52935, Note_on_c, 10, 45, 0
12, 53040, Note_on_c, 10, 43, 110
12, 53055, Note_on_c, 10, 43, 0
12, 53160, Note_on_c, 10, 43, 110
12, 53160, Note_on_c, 10, 59, 110
12, 53175, Note_on_c, 10, 59, 0
12, 53175, Note_on_c, 10, 43, 0
12, 53220, Note_on_c, 10, 43, 110
12, 53235, Note_on_c, 10, 43, 0
12, 53280, Note_on_c, 10, 43, 110
12, 53295, Note_on_c, 10, 43, 0
12, 53400, Note_on_c, 10, 45, 110
12, 53415, Note_on_c, 10, 45, 0
12, 53460, Note_on_c, 10, 45, 110
12, 53475, Note_on_c, 10, 45, 0
12, 53490, Note_on_c, 10, 45, 110
12, 53505, Note_on_c, 10, 45, 0
12, 53520, Note_on_c, 10, 45, 110
12, 53535, Note_on_c, 10, 45, 0
12, 53580, Note_on_c, 10, 45, 110
12, 53595, Note_on_c, 10, 45, 0
12, 53640, Note_on_c, 10, 45, 110
12, 53655, Note_on_c, 10, 45, 0
12, 53700, Note_on_c, 10, 45, 110
12, 53715, Note_on_c, 10, 45, 0
12, 53760, Note_on_c, 10, 45, 110
12, 53775, Note_on_c, 10, 45, 0
12, 53820, Note_on_c, 10, 45, 110
12, 53835, Note_on_c, 10, 45, 0
12, 53850, Note_on_c, 10, 45, 110
12, 53865, Note_on_c, 10, 45, 0
12, 53880, Note_on_c, 10, 45, 110
12, 53895, Note_on_c, 10, 45, 0
12, 53940, Note_on_c, 10, 45, 110
12, 53955, Note_on_c, 10, 45, 0
12, 54000, Note_on_c, 10, 45, 110
12, 54015, Note_on_c, 10, 45, 0
12, 54060, Note_on_c, 10, 45, 110
12, 54075, Note_on_c, 10, 45, 0
12, 54120, Note_on_c, 10, 59, 110
12, 54120, Note_on_c, 10, 50, 110
12, 54135, Note_on_c, 10, 50, 0
12, 54135, Note_on_c, 10, 59, 0
12, 54300, Note_on_c, 10, 50, 110
12, 54315, Note_on_c, 10, 50, 0
12, 54480, Note_on_c, 10, 50, 110
12, 54495, Note_on_c, 10, 50, 0
12, 54600, Note_on_c, 10, 50, 110
12, 54615, Note_on_c, 10, 50, 0
12, 54720, Note_on_c, 10, 50, 110
12, 54735, Note_on_c, 10, 50, 0
12, 54780, Note_on_c, 10, 45, 110
12, 54795, Note_on_c, 10, 45, 0
12, 54840, Note_on_c, 10, 50, 110
12, 54855, Note_on_c, 10, 50, 0
12, 55020, Note_on_c, 10, 50, 110
12, 55035, Note_on_c, 10, 50, 0
12, 55140, Note_on_c, 10, 50, 110
12, 55155, Note_on_c, 10, 50, 0
12, 55200, Note_on_c, 10, 50, 110
12, 55215, Note_on_c, 10, 50, 0
12, 55320, Note_on_c, 10, 45, 110
12, 55335, Note_on_c, 10, 45, 0
12, 55440, Note_on_c, 10, 45, 110
12, 55455, Note_on_c, 10, 45, 0
12, 55560, Note_on_c, 10, 50, 110
12, 55575, Note_on_c, 10, 50, 0
12, 55740, Note_on_c, 10, 50, 110
12, 55755, Note_on_c, 10, 50, 0
12, 55920, Note_on_c, 10, 50, 110
12, 55935, Note_on_c, 10, 50, 0
12, 56040, Note_on_c, 10, 50, 110
12, 56055, Note_on_c, 10, 50, 0
12, 56160, Note_on_c, 10, 50, 110
12, 56175, Note_on_c, 10, 50, 0
12, 56220, Note_on_c, 10, 45, 110
12, 56235, Note_on_c, 10, 45, 0
12, 56280, Note_on_c, 10, 50, 110
12, 56295, Note_on_c, 10, 50, 0
12, 56460, Note_on_c, 10, 50, 110
12, 56475, Note_on_c, 10, 50, 0
12, 56580, Note_on_c, 10, 50, 110
12, 56595, Note_on_c, 10, 50, 0
12, 56640, Note_on_c, 10, 50, 110
12, 56655, Note_on_c, 10, 50, 0
12, 56700, Note_on_c, 10, 45, 110
12, 56715, Note_on_c, 10, 45, 0
12, 56730, Note_on_c, 10, 45, 110
12, 56745, Note_on_c, 10, 45, 0
12, 56760, Note_on_c, 10, 45, 110
12, 56775, Note_on_c, 10, 45, 0
12, 56820, Note_on_c, 10, 45, 110
12, 56835, Note_on_c, 10, 45, 0
12, 56850, Note_on_c, 10, 45, 110
12, 56865, Note_on_c, 10, 45, 0
12, 56880, Note_on_c, 10, 45, 110
12, 56895, Note_on_c, 10, 45, 0
12, 56940, Note_on_c, 10, 45, 110
12, 56955, Note_on_c, 10, 45, 0
12, 56970, Note_on_c, 10, 45, 110
12, 56985, Note_on_c, 10, 45, 0
12, 57000, Note_on_c, 10, 59, 110
12, 57000, Note_on_c, 10, 50, 110
12, 57015, Note_on_c, 10, 50, 0
12, 57015, Note_on_c, 10, 59, 0
12, 57180, Note_on_c, 10, 50, 110
12, 57195, Note_on_c, 10, 50, 0
12, 57360, Note_on_c, 10, 50, 110
12, 57375, Note_on_c, 10, 50, 0
12, 57480, Note_on_c, 10, 50, 110
12, 57495, Note_on_c, 10, 50, 0
12, 57600, Note_on_c, 10, 50, 110
12, 57615, Note_on_c, 10, 50, 0
12, 57660, Note_on_c, 10, 45, 110
12, 57675, Note_on_c, 10, 45, 0
12, 57720, Note_on_c, 10, 50, 110
12, 57735, Note_on_c, 10, 50, 0
12, 57900, Note_on_c, 10, 50, 110
12, 57915, Note_on_c, 10, 50, 0
12, 58020, Note_on_c, 10, 50, 110
12, 58035, Note_on_c, 10, 50, 0
12, 58080, Note_on_c, 10, 50, 110
12, 58095, Note_on_c, 10, 50, 0
12, 58200, Note_on_c, 10, 45, 110
12, 58215, Note_on_c, 10, 45, 0
12, 58320, Note_on_c, 10, 45, 110
12, 58335, Note_on_c, 10, 45, 0
12, 58440, Note_on_c, 10, 50, 110
12, 58455, Note_on_c, 10, 50, 0
12, 58620, Note_on_c, 10, 50, 110
12, 58635, Note_on_c, 10, 50, 0
12, 58800, Note_on_c, 10, 50, 110
12, 58815, Note_on_c, 10, 50, 0
12, 58920, Note_on_c, 10, 50, 110
12, 58935, Note_on_c, 10, 50, 0
12, 59040, Note_on_c, 10, 50, 110
12, 59055, Note_on_c, 10, 50, 0
12, 59100, Note_on_c, 10, 45, 110
12, 59115, Note_on_c, 10, 45, 0
12, 59160, Note_on_c, 10, 50, 110
12, 59175, Note_on_c, 10, 50, 0
12, 59340, Note_on_c, 10, 51, 127
12, 59340, Note_on_c, 10, 50, 127
12, 59355, Note_on_c, 10, 50, 0
12, 59355, Note_on_c, 10, 51, 0
12, 59520, Note_on_c, 10, 45, 112
12, 59535, Note_on_c, 10, 45, 0
12, 59700, Note_on_c, 10, 41, 92
12, 59715, Note_on_c, 10, 41, 0
12, 60540, Note_on_c, 10, 46, 127
12, 60555, Note_on_c, 10, 46, 0
12, 60780, Note_on_c, 10, 41, 127
12, 60795, Note_on_c, 10, 41, 0
12, 61320, Note_on_c, 10, 41, 127
12, 61335, Note_on_c, 10, 41, 0
12, 61980, Note_on_c, 10, 46, 127
12, 61995, Note_on_c, 10, 46, 0
12, 62220, Note_on_c, 10, 41, 127
12, 62235, Note_on_c, 10, 41, 0
12, 62760, Note_on_c, 10, 41, 127
12, 62775, Note_on_c, 10, 41, 0
12, 63420, Note_on_c, 10, 46, 127
12, 63435, Note_on_c, 10, 46, 0
12, 63660, Note_on_c, 10, 41, 127
12, 63675, Note_on_c, 10, 41, 0
12, 64200, Note_on_c, 10, 41, 127
12, 64215, Note_on_c, 10, 41, 0
12, 64860, Note_on_c, 10, 41, 127
12, 64875, Note_on_c, 10, 41, 0
12, 65100, Note_on_c, 10, 51, 127
12, 65115, Note_on_c, 10, 51, 0
12, 65160, Note_on_c, 10, 51, 127
12, 65175, Note_on_c, 10, 51, 0
12, 65280, Note_on_c, 10, 46, 127
12, 65295, Note_on_c, 10, 46, 0
12, 65340, Note_on_c, 10, 46, 127
12, 65355, Note_on_c, 10, 46, 0
12, 65460, Note_on_c, 10, 41, 127
12, 65475, Note_on_c, 10, 41, 0
12, 65520, Note_on_c, 10, 41, 127
12, 65535, Note_on_c, 10, 41, 0
12, 65535, End_track
13, 0, Start_track
13, 0, Title_t, "A12-Strings     "
13, 0, Control_c, 11, 0, 0
13, 0, Control_c, 11, 32, 2
13, 0, Program_c, 11, 48
13, 0, Control_c, 11, 7, 110
13, 0, Control_c, 11, 10, 32
13, 207, Control_c, 11, 91, 40
13, 208, Control_c, 11, 93, 0
13, 13200, Note_on_c, 11, 86, 110
13, 13230, Note_on_c, 11, 86, 0
13, 13260, Note_on_c, 11, 74, 110
13, 13290, Note_on_c, 11, 74, 0
13, 13320, Note_on_c, 11, 74, 110
13, 13350, Note_on_c, 11, 74, 0
13, 13380, Note_on_c, 11, 74, 110
13, 13410, Note_on_c, 11, 74, 0
13, 13440, Note_on_c, 11, 74, 110
13, 13470, Note_on_c, 11, 74, 0
13, 13500, Note_on_c, 11, 86, 110
13, 13530, Note_on_c, 11, 86, 0
13, 13560, Note_on_c, 11, 86, 110
13, 13590, Note_on_c, 11, 86, 0
13, 13620, Note_on_c, 11, 74, 110
13, 13650, Note_on_c, 11, 74, 0
13, 13680, Note_on_c, 11, 74, 110
13, 13710, Note_on_c, 11, 74, 0
13, 13740, Note_on_c, 11, 86, 110
13, 13770, Note_on_c, 11, 86, 0
13, 13800, Note_on_c, 11, 86, 110
13, 13830, Note_on_c, 11, 86, 0
13, 13860, Note_on_c, 11, 74, 110
13, 13890, Note_on_c, 11, 74, 0
13, 13920, Note_on_c, 11, 74, 110
13, 13950, Note_on_c, 11, 74, 0
13, 13980, Note_on_c, 11, 86, 110
13, 14010, Note_on_c, 11, 86, 0
13, 14040, Note_on_c, 11, 86, 110
13, 14070, Note_on_c, 11, 86, 0
13, 14100, Note_on_c, 11, 74, 110
13, 14130, Note_on_c, 11, 74, 0
13, 14160, Note_on_c, 11, 74, 110
13, 14190, Note_on_c, 11, 74, 0
13, 14220, Note_on_c, 11, 86, 110
13, 14250, Note_on_c, 11, 86, 0
13, 14280, Note_on_c, 11, 86, 110
13, 14310, Note_on_c, 11, 86, 0
13, 14340, Note_on_c, 11, 74, 110
13, 14370, Note_on_c, 11, 74, 0
13, 14400, Note_on_c, 11, 74, 110
13, 14430, Note_on_c, 11, 74, 0
13, 14460, Note_on_c, 11, 86, 110
13, 14490, Note_on_c, 11, 86, 0
13, 14520, Note_on_c, 11, 86, 110
13, 14550, Note_on_c, 11, 86, 0
13, 14580, Note_on_c, 11, 74, 110
13, 14610, Note_on_c, 11, 74, 0
13, 14640, Note_on_c, 11, 86, 110
13, 14670, Note_on_c, 11, 86, 0
13, 14700, Note_on_c, 11, 74, 110
13, 14730, Note_on_c, 11, 74, 0
13, 14760, Note_on_c, 11, 74, 110
13, 14790, Note_on_c, 11, 74, 0
13, 14820, Note_on_c, 11, 74, 110
13, 14850, Note_on_c, 11, 74, 0
13, 14880, Note_on_c, 11, 74, 110
13, 14910, Note_on_c, 11, 74, 0
13, 14940, Note_on_c, 11, 86, 110
13, 14970, Note_on_c, 11, 86, 0
13, 15000, Note_on_c, 11, 86, 110
13, 15030, Note_on_c, 11, 86, 0
13, 15060, Note_on_c, 11, 74, 110
13, 15090, Note_on_c, 11, 74, 0
13, 15120, Note_on_c, 11, 74, 110
13, 15150, Note_on_c, 11, 74, 0
13, 15180, Note_on_c, 11, 86, 110
13, 15210, Note_on_c, 11, 86, 0
13, 15240, Note_on_c, 11, 86, 110
13, 15270, Note_on_c, 11, 86, 0
13, 15300, Note_on_c, 11, 74, 110
13, 15330, Note_on_c, 11, 74, 0
13, 15360, Note_on_c, 11, 74, 110
13, 15390, Note_on_c, 11, 74, 0
13, 15420, Note_on_c, 11, 86, 110
13, 15450, Note_on_c, 11, 86, 0
13, 15480, Note_on_c, 11, 86, 110
13, 15510, Note_on_c, 11, 86, 0
13, 15540, Note_on_c, 11, 74, 110
13, 15570, Note_on_c, 11, 74, 0
13, 15600, Note_on_c, 11, 74, 110
13, 15630, Note_on_c, 11, 74, 0
13, 15660, Note_on_c, 11, 86, 110
13, 15690, Note_on_c, 11, 86, 0
13, 15720, Note_on_c, 11, 86, 110
13, 15750, Note_on_c, 11, 86, 0
13, 15780, Note_on_c, 11, 74, 110
13, 15810, Note_on_c, 11, 74, 0
13, 15840, Note_on_c, 11, 74, 110
13, 15870, Note_on_c, 11, 74, 0
13, 15900, Note_on_c, 11, 86, 110
13, 15930, Note_on_c, 11, 86, 0
13, 15960, Note_on_c, 11, 86, 110
13, 15990, Note_on_c, 11, 86, 0
13, 16020, Note_on_c, 11, 74, 110
13, 16050, Note_on_c, 11, 74, 0
13, 16080, Note_on_c, 11, 86, 110
13, 16110, Note_on_c, 11, 86, 0
13, 16140, Note_on_c, 11, 74, 110
13, 16170, Note_on_c, 11, 74, 0
13, 16200, Note_on_c, 11, 74, 110
13, 16230, Note_on_c, 11, 74, 0
13, 16260, Note_on_c, 11, 74, 110
13, 16290, Note_on_c, 11, 74, 0
13, 16320, Note_on_c, 11, 74, 110
13, 16350, Note_on_c, 11, 74, 0
13, 16380, Note_on_c, 11, 86, 110
13, 16410, Note_on_c, 11, 86, 0
13, 16440, Note_on_c, 11, 86, 110
13, 16470, Note_on_c, 11, 86, 0
13, 16500, Note_on_c, 11, 74, 110
13, 16530, Note_on_c, 11, 74, 0
13, 16560, Note_on_c, 11, 74, 110
13, 16590, Note_on_c, 11, 74, 0
13, 16620, Note_on_c, 11, 86, 110
13, 16650, Note_on_c, 11, 86, 0
13, 16680, Note_on_c, 11, 86, 110
13, 16710, Note_on_c, 11, 86, 0
13, 16740, Note_on_c, 11, 74, 110
13, 16770, Note_on_c, 11, 74, 0
13, 16800, Note_on_c, 11, 74, 110
13, 16830, Note_on_c, 11, 74, 0
13, 16860, Note_on_c, 11, 86, 110
13, 16890, Note_on_c, 11, 86, 0
13, 16920, Note_on_c, 11, 86, 110
13, 16950, Note_on_c, 11, 86, 0
13, 16980, Note_on_c, 11, 74, 110
13, 17010, Note_on_c, 11, 74, 0
13, 17040, Note_on_c, 11, 74, 110
13, 17070, Note_on_c, 11, 74, 0
13, 17100, Note_on_c, 11, 86, 110
13, 17130, Note_on_c, 11, 86, 0
13, 17160, Note_on_c, 11, 86, 110
13, 17190, Note_on_c, 11, 86, 0
13, 17220, Note_on_c, 11, 74, 110
13, 17250, Note_on_c, 11, 74, 0
13, 17280, Note_on_c, 11, 74, 110
13, 17310, Note_on_c, 11, 74, 0
13, 17340, Note_on_c, 11, 86, 110
13, 17370, Note_on_c, 11, 86, 0
13, 17400, Note_on_c, 11, 86, 110
13, 17430, Note_on_c, 11, 86, 0
13, 17460, Note_on_c, 11, 74, 110
13, 17490, Note_on_c, 11, 74, 0
13, 17520, Note_on_c, 11, 86, 110
13, 17550, Note_on_c, 11, 86, 0
13, 17580, Note_on_c, 11, 74, 110
13, 17610, Note_on_c, 11, 74, 0
13, 17640, Note_on_c, 11, 74, 110
13, 17670, Note_on_c, 11, 74, 0
13, 17700, Note_on_c, 11, 74, 110
13, 17730, Note_on_c, 11, 74, 0
13, 17760, Note_on_c, 11, 74, 110
13, 17790, Note_on_c, 11, 74, 0
13, 17820, Note_on_c, 11, 86, 110
13, 17850, Note_on_c, 11, 86, 0
13, 17880, Note_on_c, 11, 86, 110
13, 17910, Note_on_c, 11, 86, 0
13, 17940, Note_on_c, 11, 74, 110
13, 17970, Note_on_c, 11, 74, 0
13, 18000, Note_on_c, 11, 74, 110
13, 18030, Note_on_c, 11, 74, 0
13, 18060, Note_on_c, 11, 86, 110
13, 18090, Note_on_c, 11, 86, 0
13, 18120, Note_on_c, 11, 86, 110
13, 18150, Note_on_c, 11, 86, 0
13, 18180, Note_on_c, 11, 74, 110
13, 18210, Note_on_c, 11, 74, 0
13, 18240, Note_on_c, 11, 74, 110
13, 18270, Note_on_c, 11, 74, 0
13, 18300, Note_on_c, 11, 86, 110
13, 18330, Note_on_c, 11, 86, 0
13, 18360, Note_on_c, 11, 86, 110
13, 18390, Note_on_c, 11, 86, 0
13, 18420, Note_on_c, 11, 74, 110
13, 18450, Note_on_c, 11, 74, 0
13, 18480, Note_on_c, 11, 74, 110
13, 18510, Note_on_c, 11, 74, 0
13, 18540, Note_on_c, 11, 86, 110
13, 18570, Note_on_c, 11, 86, 0
13, 18600, Note_on_c, 11, 86, 110
13, 18630, Note_on_c, 11, 86, 0
13, 18660, Note_on_c, 11, 74, 110
13, 18690, Note_on_c, 11, 74, 0
13, 18720, Note_on_c, 11, 74, 110
13, 18750, Note_on_c, 11, 74, 0
13, 18780, Note_on_c, 11, 86, 110
13, 18810, Note_on_c, 11, 86, 0
13, 18840, Note_on_c, 11, 86, 110
13, 18870, Note_on_c, 11, 86, 0
13, 18900, Note_on_c, 11, 74, 110
13, 18930, Note_on_c, 11, 74, 0
13, 54120, Note_on_c, 11, 86, 110
13, 54150, Note_on_c, 11, 86, 0
13, 54180, Note_on_c, 11, 74, 110
13, 54210, Note_on_c, 11, 74, 0
13, 54240, Note_on_c, 11, 74, 110
13, 54270, Note_on_c, 11, 74, 0
13, 54300, Note_on_c, 11, 74, 110
13, 54330, Note_on_c, 11, 74, 0
13, 54360, Note_on_c, 11, 74, 110
13, 54390, Note_on_c, 11, 74, 0
13, 54420, Note_on_c, 11, 86, 110
13, 54450, Note_on_c, 11, 86, 0
13, 54480, Note_on_c, 11, 86, 110
13, 54510, Note_on_c, 11, 86, 0
13, 54540, Note_on_c, 11, 74, 110
13, 54570, Note_on_c, 11, 74, 0
13, 54600, Note_on_c, 11, 74, 110
13, 54630, Note_on_c, 11, 74, 0
13, 54660, Note_on_c, 11, 86, 110
13, 54690, Note_on_c, 11, 86, 0
13, 54720, Note_on_c, 11, 86, 110
13, 54750, Note_on_c, 11, 86, 0
13, 54780, Note_on_c, 11, 74, 110
13, 54810, Note_on_c, 11, 74, 0
13, 54840, Note_on_c, 11, 74, 110
13, 54870, Note_on_c, 11, 74, 0
13, 54900, Note_on_c, 11, 86, 110
13, 54930, Note_on_c, 11, 86, 0
13, 54960, Note_on_c, 11, 86, 110
13, 54990, Note_on_c, 11, 86, 0
13, 55020, Note_on_c, 11, 74, 110
13, 55050, Note_on_c, 11, 74, 0
13, 55080, Note_on_c, 11, 74, 110
13, 55110, Note_on_c, 11, 74, 0
13, 55140, Note_on_c, 11, 86, 110
13, 55170, Note_on_c, 11, 86, 0
13, 55200, Note_on_c, 11, 86, 110
13, 55230, Note_on_c, 11, 86, 0
13, 55260, Note_on_c, 11, 74, 110
13, 55290, Note_on_c, 11, 74, 0
13, 55320, Note_on_c, 11, 74, 110
13, 55350, Note_on_c, 11, 74, 0
13, 55380, Note_on_c, 11, 86, 110
13, 55410, Note_on_c, 11, 86, 0
13, 55440, Note_on_c, 11, 86, 110
13, 55470, Note_on_c, 11, 86, 0
13, 55500, Note_on_c, 11, 74, 110
13, 55530, Note_on_c, 11, 74, 0
13, 55560, Note_on_c, 11, 86, 110
13, 55590, Note_on_c, 11, 86, 0
13, 55620, Note_on_c, 11, 74, 110
13, 55650, Note_on_c, 11, 74, 0
13, 55680, Note_on_c, 11, 74, 110
13, 55710, Note_on_c, 11, 74, 0
13, 55740, Note_on_c, 11, 74, 110
13, 55770, Note_on_c, 11, 74, 0
13, 55800, Note_on_c, 11, 74, 110
13, 55830, Note_on_c, 11, 74, 0
13, 55860, Note_on_c, 11, 86, 110
13, 55890, Note_on_c, 11, 86, 0
13, 55920, Note_on_c, 11, 86, 110
13, 55950, Note_on_c, 11, 86, 0
13, 55980, Note_on_c, 11, 74, 110
13, 56010, Note_on_c, 11, 74, 0
13, 56040, Note_on_c, 11, 74, 110
13, 56070, Note_on_c, 11, 74, 0
13, 56100, Note_on_c, 11, 86, 110
13, 56130, Note_on_c, 11, 86, 0
13, 56160, Note_on_c, 11, 86, 110
13, 56190, Note_on_c, 11, 86, 0
13, 56220, Note_on_c, 11, 74, 110
13, 56250, Note_on_c, 11, 74, 0
13, 56280, Note_on_c, 11, 74, 110
13, 56310, Note_on_c, 11, 74, 0
13, 56340, Note_on_c, 11, 86, 110
13, 56370, Note_on_c, 11, 86, 0
13, 56400, Note_on_c, 11, 86, 110
13, 56430, Note_on_c, 11, 86, 0
13, 56460, Note_on_c, 11, 74, 110
13, 56490, Note_on_c, 11, 74, 0
13, 56520, Note_on_c, 11, 74, 110
13, 56550, Note_on_c, 11, 74, 0
13, 56580, Note_on_c, 11, 86, 110
13, 56610, Note_on_c, 11, 86, 0
13, 56640, Note_on_c, 11, 86, 110
13, 56670, Note_on_c, 11, 86, 0
13, 56700, Note_on_c, 11, 74, 110
13, 56730, Note_on_c, 11, 74, 0
13, 56760, Note_on_c, 11, 74, 110
13, 56790, Note_on_c, 11, 74, 0
13, 56820, Note_on_c, 11, 86, 110
13, 56850, Note_on_c, 11, 86, 0
13, 56880, Note_on_c, 11, 86, 110
13, 56910, Note_on_c, 11, 86, 0
13, 56940, Note_on_c, 11, 74, 110
13, 56970, Note_on_c, 11, 74, 0
13, 57000, Note_on_c, 11, 86, 110
13, 57030, Note_on_c, 11, 86, 0
13, 57060, Note_on_c, 11, 74, 110
13, 57090, Note_on_c, 11, 74, 0
13, 57120, Note_on_c, 11, 74, 110
13, 57150, Note_on_c, 11, 74, 0
13, 57180, Note_on_c, 11, 74, 110
13, 57210, Note_on_c, 11, 74, 0
13, 57240, Note_on_c, 11, 74, 110
13, 57270, Note_on_c, 11, 74, 0
13, 57300, Note_on_c, 11, 86, 110
13, 57330, Note_on_c, 11, 86, 0
13, 57360, Note_on_c, 11, 86, 110
13, 57390, Note_on_c, 11, 86, 0
13, 57420, Note_on_c, 11, 74, 110
13, 57450, Note_on_c, 11, 74, 0
13, 57480, Note_on_c, 11, 74, 110
13, 57510, Note_on_c, 11, 74, 0
13, 57540, Note_on_c, 11, 86, 110
13, 57570, Note_on_c, 11, 86, 0
13, 57600, Note_on_c, 11, 86, 110
13, 57630, Note_on_c, 11, 86, 0
13, 57660, Note_on_c, 11, 74, 110
13, 57690, Note_on_c, 11, 74, 0
13, 57720, Note_on_c, 11, 74, 110
13, 57750, Note_on_c, 11, 74, 0
13, 57780, Note_on_c, 11, 86, 110
13, 57810, Note_on_c, 11, 86, 0
13, 57840, Note_on_c, 11, 86, 110
13, 57870, Note_on_c, 11, 86, 0
13, 57900, Note_on_c, 11, 74, 110
13, 57930, Note_on_c, 11, 74, 0
13, 57960, Note_on_c, 11, 74, 110
13, 57990, Note_on_c, 11, 74, 0
13, 58020, Note_on_c, 11, 86, 110
13, 58050, Note_on_c, 11, 86, 0
13, 58080, Note_on_c, 11, 86, 110
13, 58110, Note_on_c, 11, 86, 0
13, 58140, Note_on_c, 11, 74, 110
13, 58170, Note_on_c, 11, 74, 0
13, 58200, Note_on_c, 11, 74, 110
13, 58230, Note_on_c, 11, 74, 0
13, 58260, Note_on_c, 11, 86, 110
13, 58290, Note_on_c, 11, 86, 0
13, 58320, Note_on_c, 11, 86, 110
13, 58350, Note_on_c, 11, 86, 0
13, 58380, Note_on_c, 11, 74, 110
13, 58410, Note_on_c, 11, 74, 0
13, 58440, Note_on_c, 11, 86, 110
13, 58470, Note_on_c, 11, 86, 0
13, 58500, Note_on_c, 11, 74, 110
13, 58530, Note_on_c, 11, 74, 0
13, 58560, Note_on_c, 11, 74, 110
13, 58590, Note_on_c, 11, 74, 0
13, 58620, Note_on_c, 11, 74, 110
13, 58650, Note_on_c, 11, 74, 0
13, 58680, Note_on_c, 11, 74, 110
13, 58710, Note_on_c, 11, 74, 0
13, 58740, Note_on_c, 11, 86, 110
13, 58770, Note_on_c, 11, 86, 0
13, 58800, Note_on_c, 11, 86, 110
13, 58830, Note_on_c, 11, 86, 0
13, 58860, Note_on_c, 11, 74, 110
13, 58890, Note_on_c, 11, 74, 0
13, 58920, Note_on_c, 11, 74, 110
13, 58950, Note_on_c, 11, 74, 0
13, 58980, Note_on_c, 11, 86, 110
13, 59010, Note_on_c, 11, 86, 0
13, 59040, Note_on_c, 11, 86, 110
13, 59070, Note_on_c, 11, 86, 0
13, 59100, Note_on_c, 11, 74, 110
13, 59130, Note_on_c, 11, 74, 0
13, 59160, Note_on_c, 11, 74, 110
13, 59190, Note_on_c, 11, 74, 0
13, 59220, Note_on_c, 11, 86, 110
13, 59250, Note_on_c, 11, 86, 0
13, 59280, Note_on_c, 11, 86, 110
13, 59310, Note_on_c, 11, 86, 0
13, 59340, Note_on_c, 11, 74, 110
13, 59370, Note_on_c, 11, 74, 0
13, 59400, Note_on_c, 11, 74, 110
13, 59430, Note_on_c, 11, 74, 0
13, 59460, Note_on_c, 11, 86, 110
13, 59490, Note_on_c, 11, 86, 0
13, 59520, Note_on_c, 11, 86, 110
13, 59550, Note_on_c, 11, 86, 0
13, 59580, Note_on_c, 11, 74, 110
13, 59610, Note_on_c, 11, 74, 0
13, 59640, Note_on_c, 11, 74, 110
13, 59670, Note_on_c, 11, 74, 0
13, 59700, Note_on_c, 11, 86, 110
13, 59730, Note_on_c, 11, 86, 0
13, 59760, Note_on_c, 11, 86, 110
13, 59790, Note_on_c, 11, 86, 0
13, 59820, Note_on_c, 11, 74, 110
13, 59850, Note_on_c, 11, 74, 0
13, 59850, End_track
14, 0, Start_track
14, 0, Title_t, "A13-SynthBass 2 "
14, 0, Control_c, 12, 0, 0
14, 0, Control_c, 12, 32, 2
14, 0, Program_c, 12, 39
14, 0, Control_c, 12, 7, 110
14, 0, Control_c, 12, 10, 64
14, 217, Control_c, 12, 91, 20
14, 218, Control_c, 12, 93, 10
14, 18960, Note_on_c, 12, 29, 110
14, 19014, Note_on_c, 12, 29, 0
14, 19020, Note_on_c, 12, 29, 110
14, 19074, Note_on_c, 12, 29, 0
14, 19080, Note_on_c, 12, 29, 110
14, 19134, Note_on_c, 12, 29, 0
14, 19140, Note_on_c, 12, 29, 110
14, 19194, Note_on_c, 12, 29, 0
14, 19200, Note_on_c, 12, 29, 110
14, 19254, Note_on_c, 12, 29, 0
14, 19260, Note_on_c, 12, 29, 110
14, 19314, Note_on_c, 12, 29, 0
14, 19320, Note_on_c, 12, 29, 110
14, 19374, Note_on_c, 12, 29, 0
14, 19380, Note_on_c, 12, 29, 110
14, 19434, Note_on_c, 12, 29, 0
14, 19440, Note_on_c, 12, 29, 110
14, 19494, Note_on_c, 12, 29, 0
14, 19500, Note_on_c, 12, 29, 110
14, 19554, Note_on_c, 12, 29, 0
14, 19560, Note_on_c, 12, 29, 110
14, 19614, Note_on_c, 12, 29, 0
14, 19620, Note_on_c, 12, 29, 110
14, 19674, Note_on_c, 12, 29, 0
14, 19680, Note_on_c, 12, 29, 110
14, 19734, Note_on_c, 12, 29, 0
14, 19740, Note_on_c, 12, 29, 110
14, 19794, Note_on_c, 12, 29, 0
14, 19800, Note_on_c, 12, 29, 110
14, 19854, Note_on_c, 12, 29, 0
14, 19860, Note_on_c, 12, 29, 110
14, 19914, Note_on_c, 12, 29, 0
14, 19920, Note_on_c, 12, 29, 110
14, 19974, Note_on_c, 12, 29, 0
14, 19980, Note_on_c, 12, 29, 110
14, 20034, Note_on_c, 12, 29, 0
14, 20040, Note_on_c, 12, 29, 110
14, 20094, Note_on_c, 12, 29, 0
14, 20100, Note_on_c, 12, 29, 110
14, 20154, Note_on_c, 12, 29, 0
14, 20160, Note_on_c, 12, 29, 110
14, 20214, Note_on_c, 12, 29, 0
14, 20220, Note_on_c, 12, 29, 110
14, 20274, Note_on_c, 12, 29, 0
14, 20280, Note_on_c, 12, 29, 110
14, 20334, Note_on_c, 12, 29, 0
14, 20340, Note_on_c, 12, 29, 110
14, 20394, Note_on_c, 12, 29, 0
14, 20400, Note_on_c, 12, 29, 110
14, 20454, Note_on_c, 12, 29, 0
14, 20460, Note_on_c, 12, 29, 110
14, 20514, Note_on_c, 12, 29, 0
14, 20520, Note_on_c, 12, 29, 110
14, 20574, Note_on_c, 12, 29, 0
14, 20580, Note_on_c, 12, 29, 110
14, 20634, Note_on_c, 12, 29, 0
14, 20640, Note_on_c, 12, 29, 110
14, 20694, Note_on_c, 12, 29, 0
14, 20700, Note_on_c, 12, 29, 110
14, 20754, Note_on_c, 12, 29, 0
14, 20760, Note_on_c, 12, 29, 110
14, 20814, Note_on_c, 12, 29, 0
14, 20820, Note_on_c, 12, 29, 110
14, 20874, Note_on_c, 12, 29, 0
14, 20880, Note_on_c, 12, 29, 110
14, 20934, Note_on_c, 12, 29, 0
14, 20940, Note_on_c, 12, 29, 110
14, 20994, Note_on_c, 12, 29, 0
14, 21000, Note_on_c, 12, 29, 110
14, 21054, Note_on_c, 12, 29, 0
14, 21060, Note_on_c, 12, 29, 110
14, 21114, Note_on_c, 12, 29, 0
14, 21120, Note_on_c, 12, 29, 110
14, 21174, Note_on_c, 12, 29, 0
14, 21180, Note_on_c, 12, 29, 110
14, 21234, Note_on_c, 12, 29, 0
14, 21240, Note_on_c, 12, 29, 110
14, 21294, Note_on_c, 12, 29, 0
14, 21300, Note_on_c, 12, 29, 110
14, 21354, Note_on_c, 12, 29, 0
14, 21360, Note_on_c, 12, 29, 110
14, 21414, Note_on_c, 12, 29, 0
14, 21420, Note_on_c, 12, 29, 110
14, 21474, Note_on_c, 12, 29, 0
14, 21480, Note_on_c, 12, 29, 110
14, 21534, Note_on_c, 12, 29, 0
14, 21540, Note_on_c, 12, 29, 110
14, 21594, Note_on_c, 12, 29, 0
14, 21600, Note_on_c, 12, 29, 110
14, 21654, Note_on_c, 12, 29, 0
14, 21660, Note_on_c, 12, 29, 110
14, 21714, Note_on_c, 12, 29, 0
14, 21720, Note_on_c, 12, 29, 110
14, 21774, Note_on_c, 12, 29, 0
14, 21780, Note_on_c, 12, 29, 110
14, 21834, Note_on_c, 12, 29, 0
14, 21840, Note_on_c, 12, 29, 110
14, 21894, Note_on_c, 12, 29, 0
14, 21900, Note_on_c, 12, 29, 110
14, 21954, Note_on_c, 12, 29, 0
14, 21960, Note_on_c, 12, 29, 110
14, 22014, Note_on_c, 12, 29, 0
14, 22020, Note_on_c, 12, 29, 110
14, 22074, Note_on_c, 12, 29, 0
14, 22080, Note_on_c, 12, 29, 110
14, 22134, Note_on_c, 12, 29, 0
14, 22140, Note_on_c, 12, 29, 110
14, 22194, Note_on_c, 12, 29, 0
14, 22200, Note_on_c, 12, 29, 110
14, 22254, Note_on_c, 12, 29, 0
14, 22260, Note_on_c, 12, 29, 110
14, 22314, Note_on_c, 12, 29, 0
14, 22320, Note_on_c, 12, 29, 110
14, 22374, Note_on_c, 12, 29, 0
14, 22380, Note_on_c, 12, 29, 110
14, 22434, Note_on_c, 12, 29, 0
14, 22440, Note_on_c, 12, 29, 110
14, 22494, Note_on_c, 12, 29, 0
14, 22500, Note_on_c, 12, 29, 110
14, 22554, Note_on_c, 12, 29, 0
14, 22560, Note_on_c, 12, 29, 110
14, 22614, Note_on_c, 12, 29, 0
14, 22620, Note_on_c, 12, 29, 110
14, 22674, Note_on_c, 12, 29, 0
14, 22680, Note_on_c, 12, 29, 110
14, 22734, Note_on_c, 12, 29, 0
14, 22740, Note_on_c, 12, 29, 110
14, 22794, Note_on_c, 12, 29, 0
14, 22800, Note_on_c, 12, 29, 110
14, 22854, Note_on_c, 12, 29, 0
14, 22860, Note_on_c, 12, 29, 110
14, 22914, Note_on_c, 12, 29, 0
14, 22920, Note_on_c, 12, 29, 110
14, 22974, Note_on_c, 12, 29, 0
14, 22980, Note_on_c, 12, 29, 110
14, 23034, Note_on_c, 12, 29, 0
14, 23040, Note_on_c, 12, 29, 110
14, 23094, Note_on_c, 12, 29, 0
14, 23100, Note_on_c, 12, 29, 110
14, 23154, Note_on_c, 12, 29, 0
14, 23160, Note_on_c, 12, 29, 110
14, 23214, Note_on_c, 12, 29, 0
14, 23220, Note_on_c, 12, 29, 110
14, 23274, Note_on_c, 12, 29, 0
14, 23280, Note_on_c, 12, 29, 110
14, 23334, Note_on_c, 12, 29, 0
14, 23340, Note_on_c, 12, 29, 110
14, 23394, Note_on_c, 12, 29, 0
14, 23400, Note_on_c, 12, 29, 110
14, 23454, Note_on_c, 12, 29, 0
14, 23460, Note_on_c, 12, 29, 110
14, 23514, Note_on_c, 12, 29, 0
14, 23520, Note_on_c, 12, 29, 110
14, 23574, Note_on_c, 12, 29, 0
14, 23580, Note_on_c, 12, 29, 110
14, 23634, Note_on_c, 12, 29, 0
14, 23640, Note_on_c, 12, 29, 110
14, 23694, Note_on_c, 12, 29, 0
14, 23700, Note_on_c, 12, 29, 110
14, 23754, Note_on_c, 12, 29, 0
14, 23760, Note_on_c, 12, 29, 110
14, 23814, Note_on_c, 12, 29, 0
14, 23820, Note_on_c, 12, 29, 110
14, 23874, Note_on_c, 12, 29, 0
14, 23880, Note_on_c, 12, 29, 110
14, 23934, Note_on_c, 12, 29, 0
14, 23940, Note_on_c, 12, 29, 110
14, 23994, Note_on_c, 12, 29, 0
14, 24000, Note_on_c, 12, 29, 110
14, 24054, Note_on_c, 12, 29, 0
14, 24060, Note_on_c, 12, 29, 110
14, 24114, Note_on_c, 12, 29, 0
14, 24120, Note_on_c, 12, 29, 110
14, 24174, Note_on_c, 12, 29, 0
14, 24180, Note_on_c, 12, 29, 110
14, 24234, Note_on_c, 12, 29, 0
14, 24240, Note_on_c, 12, 29, 110
14, 24294, Note_on_c, 12, 29, 0
14, 24300, Note_on_c, 12, 29, 110
14, 24354, Note_on_c, 12, 29, 0
14, 24360, Note_on_c, 12, 29, 110
14, 24414, Note_on_c, 12, 29, 0
14, 24420, Note_on_c, 12, 29, 110
14, 24474, Note_on_c, 12, 29, 0
14, 24480, Note_on_c, 12, 29, 110
14, 24534, Note_on_c, 12, 29, 0
14, 24540, Note_on_c, 12, 29, 110
14, 24594, Note_on_c, 12, 29, 0
14, 24600, Note_on_c, 12, 29, 110
14, 24654, Note_on_c, 12, 29, 0
14, 24660, Note_on_c, 12, 29, 110
14, 24714, Note_on_c, 12, 29, 0
14, 59880, Note_on_c, 12, 29, 110
14, 59934, Note_on_c, 12, 29, 0
14, 59940, Note_on_c, 12, 29, 110
14, 59994, Note_on_c, 12, 29, 0
14, 60000, Note_on_c, 12, 29, 110
14, 60054, Note_on_c, 12, 29, 0
14, 60060, Note_on_c, 12, 29, 110
14, 60114, Note_on_c, 12, 29, 0
14, 60120, Note_on_c, 12, 29, 110
14, 60174, Note_on_c, 12, 29, 0
14, 60180, Note_on_c, 12, 29, 110
14, 60234, Note_on_c, 12, 29, 0
14, 60240, Note_on_c, 12, 29, 110
14, 60294, Note_on_c, 12, 29, 0
14, 60300, Note_on_c, 12, 29, 110
14, 60354, Note_on_c, 12, 29, 0
14, 60360, Note_on_c, 12, 29, 110
14, 60414, Note_on_c, 12, 29, 0
14, 60420, Note_on_c, 12, 29, 110
14, 60474, Note_on_c, 12, 29, 0
14, 60480, Note_on_c, 12, 29, 110
14, 60534, Note_on_c, 12, 29, 0
14, 60540, Note_on_c, 12, 29, 110
14, 60594, Note_on_c, 12, 29, 0
14, 60600, Note_on_c, 12, 29, 110
14, 60654, Note_on_c, 12, 29, 0
14, 60660, Note_on_c, 12, 29, 110
14, 60714, Note_on_c, 12, 29, 0
14, 60720, Note_on_c, 12, 29, 110
14, 60774, Note_on_c, 12, 29, 0
14, 60780, Note_on_c, 12, 29, 110
14, 60834, Note_on_c, 12, 29, 0
14, 60840, Note_on_c, 12, 29, 110
14, 60894, Note_on_c, 12, 29, 0
14, 60900, Note_on_c, 12, 29, 110
14, 60954, Note_on_c, 12, 29, 0
14, 60960, Note_on_c, 12, 29, 110
14, 61014, Note_on_c, 12, 29, 0
14, 61020, Note_on_c, 12, 29, 110
14, 61074, Note_on_c, 12, 29, 0
14, 61080, Note_on_c, 12, 29, 110
14, 61134, Note_on_c, 12, 29, 0
14, 61140, Note_on_c, 12, 29, 110
14, 61194, Note_on_c, 12, 29, 0
14, 61200, Note_on_c, 12, 29, 110
14, 61254, Note_on_c, 12, 29, 0
14, 61260, Note_on_c, 12, 29, 110
14, 61314, Note_on_c, 12, 29, 0
14, 61320, Note_on_c, 12, 29, 110
14, 61374, Note_on_c, 12, 29, 0
14, 61380, Note_on_c, 12, 29, 110
14, 61434, Note_on_c, 12, 29, 0
14, 61440, Note_on_c, 12, 29, 110
14, 61494, Note_on_c, 12, 29, 0
14, 61500, Note_on_c, 12, 29, 110
14, 61554, Note_on_c, 12, 29, 0
14, 61560, Note_on_c, 12, 29, 110
14, 61614, Note_on_c, 12, 29, 0
14, 61620, Note_on_c, 12, 29, 110
14, 61674, Note_on_c, 12, 29, 0
14, 61680, Note_on_c, 12, 29, 110
14, 61734, Note_on_c, 12, 29, 0
14, 61740, Note_on_c, 12, 29, 110
14, 61794, Note_on_c, 12, 29, 0
14, 61800, Note_on_c, 12, 29, 110
14, 61854, Note_on_c, 12, 29, 0
14, 61860, Note_on_c, 12, 29, 110
14, 61914, Note_on_c, 12, 29, 0
14, 61920, Note_on_c, 12, 29, 110
14, 61974, Note_on_c, 12, 29, 0
14, 61980, Note_on_c, 12, 29, 110
14, 62034, Note_on_c, 12, 29, 0
14, 62040, Note_on_c, 12, 29, 110
14, 62094, Note_on_c, 12, 29, 0
14, 62100, Note_on_c, 12, 29, 110
14, 62154, Note_on_c, 12, 29, 0
14, 62160, Note_on_c, 12, 29, 110
14, 62214, Note_on_c, 12, 29, 0
14, 62220, Note_on_c, 12, 29, 110
14, 62274, Note_on_c, 12, 29, 0
14, 62280, Note_on_c, 12, 29, 110
14, 62334, Note_on_c, 12, 29, 0
14, 62340, Note_on_c, 12, 29, 110
14, 62394, Note_on_c, 12, 29, 0
14, 62400, Note_on_c, 12, 29, 110
14, 62454, Note_on_c, 12, 29, 0
14, 62460, Note_on_c, 12, 29, 110
14, 62514, Note_on_c, 12, 29, 0
14, 62520, Note_on_c, 12, 29, 110
14, 62574, Note_on_c, 12, 29, 0
14, 62580, Note_on_c, 12, 29, 110
14, 62634, Note_on_c, 12, 29, 0
14, 62640, Note_on_c, 12, 29, 110
14, 62694, Note_on_c, 12, 29, 0
14, 62700, Note_on_c, 12, 29, 110
14, 62754, Note_on_c, 12, 29, 0
14, 62760, Note_on_c, 12, 29, 110
14, 62814, Note_on_c, 12, 29, 0
14, 62820, Note_on_c, 12, 29, 110
14, 62874, Note_on_c, 12, 29, 0
14, 62880, Note_on_c, 12, 29, 110
14, 62934, Note_on_c, 12, 29, 0
14, 62940, Note_on_c, 12, 29, 110
14, 62994, Note_on_c, 12, 29, 0
14, 63000, Note_on_c, 12, 29, 110
14, 63054, Note_on_c, 12, 29, 0
14, 63060, Note_on_c, 12, 29, 110
14, 63114, Note_on_c, 12, 29, 0
14, 63120, Note_on_c, 12, 29, 110
14, 63174, Note_on_c, 12, 29, 0
14, 63180, Note_on_c, 12, 29, 110
14, 63234, Note_on_c, 12, 29, 0
14, 63240, Note_on_c, 12, 29, 110
14, 63294, Note_on_c, 12, 29, 0
14, 63300, Note_on_c, 12, 29, 110
14, 63354, Note_on_c, 12, 29, 0
14, 63360, Note_on_c, 12, 29, 110
14, 63414, Note_on_c, 12, 29, 0
14, 63420, Note_on_c, 12, 29, 110
14, 63474, Note_on_c, 12, 29, 0
14, 63480, Note_on_c, 12, 29, 110
14, 63534, Note_on_c, 12, 29, 0
14, 63540, Note_on_c, 12, 29, 110
14, 63594, Note_on_c, 12, 29, 0
14, 63600, Note_on_c, 12, 29, 110
14, 63654, Note_on_c, 12, 29, 0
14, 63660, Note_on_c, 12, 29, 110
14, 63714, Note_on_c, 12, 29, 0
14, 63720, Note_on_c, 12, 29, 110
14, 63774, Note_on_c, 12, 29, 0
14, 63780, Note_on_c, 12, 29, 110
14, 63834, Note_on_c, 12, 29, 0
14, 63840, Note_on_c, 12, 29, 110
14, 63894, Note_on_c, 12, 29, 0
14, 63900, Note_on_c, 12, 29, 110
14, 63954, Note_on_c, 12, 29, 0
14, 63960, Note_on_c, 12, 29, 110
14, 64014, Note_on_c, 12, 29, 0
14, 64020, Note_on_c, 12, 29, 110
14, 64074, Note_on_c, 12, 29, 0
14, 64080, Note_on_c, 12, 29, 110
14, 64134, Note_on_c, 12, 29, 0
14, 64140, Note_on_c, 12, 29, 110
14, 64194, Note_on_c, 12, 29, 0
14, 64200, Note_on_c, 12, 29, 110
14, 64254, Note_on_c, 12, 29, 0
14, 64260, Note_on_c, 12, 29, 110
14, 64314, Note_on_c, 12, 29, 0
14, 64320, Note_on_c, 12, 29, 110
14, 64374, Note_on_c, 12, 29, 0
14, 64380, Note_on_c, 12, 29, 110
14, 64434, Note_on_c, 12, 29, 0
14, 64440, Note_on_c, 12, 29, 110
14, 64494, Note_on_c, 12, 29, 0
14, 64500, Note_on_c, 12, 29, 110
14, 64554, Note_on_c, 12, 29, 0
14, 64560, Note_on_c, 12, 29, 110
14, 64614, Note_on_c, 12, 29, 0
14, 64620, Note_on_c, 12, 29, 110
14, 64674, Note_on_c, 12, 29, 0
14, 64680, Note_on_c, 12, 29, 110
14, 64734, Note_on_c, 12, 29, 0
14, 64740, Note_on_c, 12, 29, 110
14, 64794, Note_on_c, 12, 29, 0
14, 64800, Note_on_c, 12, 29, 110
14, 64854, Note_on_c, 12, 29, 0
14, 64860, Note_on_c, 12, 29, 110
14, 64914, Note_on_c, 12, 29, 0
14, 64920, Note_on_c, 12, 29, 110
14, 64974, Note_on_c, 12, 29, 0
14, 64980, Note_on_c, 12, 29, 110
14, 65034, Note_on_c, 12, 29, 0
14, 65040, Note_on_c, 12, 29, 110
14, 65094, Note_on_c, 12, 29, 0
14, 65100, Note_on_c, 12, 29, 110
14, 65154, Note_on_c, 12, 29, 0
14, 65160, Note_on_c, 12, 29, 110
14, 65214, Note_on_c, 12, 29, 0
14, 65220, Note_on_c, 12, 29, 110
14, 65274, Note_on_c, 12, 29, 0
14, 65280, Note_on_c, 12, 29, 110
14, 65334, Note_on_c, 12, 29, 0
14, 65340, Note_on_c, 12, 29, 110
14, 65394, Note_on_c, 12, 29, 0
14, 65400, Note_on_c, 12, 29, 110
14, 65454, Note_on_c, 12, 29, 0
14, 65460, Note_on_c, 12, 29, 110
14, 65514, Note_on_c, 12, 29, 0
14, 65520, Note_on_c, 12, 29, 110
14, 65574, Note_on_c, 12, 29, 0
14, 65580, Note_on_c, 12, 29, 110
14, 65634, Note_on_c, 12, 29, 0
14, 65634, End_track
15, 0, Start_track
15, 0, Title_t, "A14-Piano 1     "
15, 0, Control_c, 13, 0, 0
15, 0, Control_c, 13, 32, 3
15, 0, Program_c, 13, 47
15, 0, Control_c, 13, 7, 127
15, 0, Control_c, 13, 10, 64
15, 227, Control_c, 13, 91, 60
15, 228, Control_c, 13, 93, 20
15, 18420, Note_on_c, 13, 50, 127
15, 18540, Note_on_c, 13, 50, 0
15, 18600, Note_on_c, 13, 45, 127
15, 18720, Note_on_c, 13, 45, 0
15, 18780, Note_on_c, 13, 41, 127
15, 18900, Note_on_c, 13, 41, 0
15, 19620, Note_on_c, 13, 46, 105
15, 19740, Note_on_c, 13, 46, 0
15, 19860, Note_on_c, 13, 41, 105
15, 19980, Note_on_c, 13, 41, 0
15, 20400, Note_on_c, 13, 41, 105
15, 20520, Note_on_c, 13, 41, 0
15, 21060, Note_on_c, 13, 46, 105
15, 21180, Note_on_c, 13, 46, 0
15, 21300, Note_on_c, 13, 41, 105
15, 21420, Note_on_c, 13, 41, 0
15, 21840, Note_on_c, 13, 41, 105
15, 21960, Note_on_c, 13, 41, 0
15, 22500, Note_on_c, 13, 47, 104
15, 22620, Note_on_c, 13, 47, 0
15, 22740, Note_on_c, 13, 41, 104
15, 22860, Note_on_c, 13, 41, 0
15, 23280, Note_on_c, 13, 41, 104
15, 23400, Note_on_c, 13, 41, 0
15, 23940, Note_on_c, 13, 41, 104
15, 24060, Note_on_c, 13, 41, 0
15, 24180, Note_on_c, 13, 51, 127
15, 24210, Note_on_c, 13, 51, 0
15, 24240, Note_on_c, 13, 51, 127
15, 24270, Note_on_c, 13, 51, 0
15, 24360, Note_on_c, 13, 47, 111
15, 24390, Note_on_c, 13, 47, 0
15, 24420, Note_on_c, 13, 47, 111
15, 24450, Note_on_c, 13, 47, 0
15, 24540, Note_on_c, 13, 41, 93
15, 24570, Note_on_c, 13, 41, 0
15, 24600, Note_on_c, 13, 41, 93
15, 24630, Note_on_c, 13, 41, 0
15, 59340, Note_on_c, 13, 50, 127
15, 59460, Note_on_c, 13, 50, 0
15, 59520, Note_on_c, 13, 45, 127
15, 59640, Note_on_c, 13, 45, 0
15, 59700, Note_on_c, 13, 41, 127
15, 59820, Note_on_c, 13, 41, 0
15, 60540, Note_on_c, 13, 46, 105
15, 60660, Note_on_c, 13, 46, 0
15, 60780, Note_on_c, 13, 41, 105
15, 60900, Note_on_c, 13, 41, 0
15, 61320, Note_on_c, 13, 41, 105
15, 61440, Note_on_c, 13, 41, 0
15, 61980, Note_on_c, 13, 46, 105
15, 62100, Note_on_c, 13, 46, 0
15, 62220, Note_on_c, 13, 41, 105
15, 62340, Note_on_c, 13, 41, 0
15, 62760, Note_on_c, 13, 41, 105
15, 62880, Note_on_c, 13, 41, 0
15, 63420, Note_on_c, 13, 47, 104
15, 63540, Note_on_c, 13, 47, 0
15, 63660, Note_on_c, 13, 41, 104
15, 63780, Note_on_c, 13, 41, 0
15, 64200, Note_on_c, 13, 41, 104
15, 64320, Note_on_c, 13, 41, 0
15, 64860, Note_on_c, 13, 41, 104
15, 64980, Note_on_c, 13, 41, 0
15, 65100, Note_on_c, 13, 51, 127
15, 65130, Note_on_c, 13, 51, 0
15, 65160, Note_on_c, 13, 51, 127
15, 65190, Note_on_c, 13, 51, 0
15, 65280, Note_on_c, 13, 47, 111
15, 65310, Note_on_c, 13, 47, 0
15, 65340, Note_on_c, 13, 47, 111
15, 65370, Note_on_c, 13, 47, 0
15, 65460, Note_on_c, 13, 41, 93
15, 65490, Note_on_c, 13, 41, 0
15, 65520, Note_on_c, 13, 41, 93
15, 65550, Note_on_c, 13, 41, 0
15, 65550, End_track
16, 0, Start_track
16, 0, Title_t, "A15-Piano 1     "
16, 0, Control_c, 14, 0, 0
16, 0, Control_c, 14, 32, 3
16, 0, Program_c, 14, 57
16, 0, Control_c, 14, 7, 100
16, 0, Control_c, 14, 10, 44
16, 237, Control_c, 14, 91, 50
16, 238, Control_c, 14, 93, 10
16, 11400, Note_on_c, 14, 69, 111
16, 11760, Note_on_c, 14, 69, 0
16, 11760, Note_on_c, 14, 67, 111
16, 12120, Note_on_c, 14, 67, 0
16, 12120, Note_on_c, 14, 65, 110
16, 12480, Note_on_c, 14, 65, 0
16, 12480, Note_on_c, 14, 67, 109
16, 13200, Note_on_c, 14, 67, 0
16, 52320, Note_on_c, 14, 69, 111
16, 52680, Note_on_c, 14, 69, 0
16, 52680, Note_on_c, 14, 67, 111
16, 53040, Note_on_c, 14, 67, 0
16, 53040, Note_on_c, 14, 65, 110
16, 53400, Note_on_c, 14, 65, 0
16, 53400, Note_on_c, 14, 67, 109
16, 54120, Note_on_c, 14, 67, 0
16, 54120, End_track
17, 0, Start_track
17, 0, Title_t, "A16-Piano 1     "
17, 0, Control_c, 15, 0, 0
17, 0, Control_c, 15, 32, 3
17, 0, Program_c, 15, 0
17, 0, Control_c, 15, 7, 100
17, 0, Control_c, 15, 10, 64
17, 247, Control_c, 15, 91, 40
17, 248, Control_c, 15, 93, 0
17, 248, End_track
0, 0, End_of_file
