0, 0, Header, 1, 18, 480
1, 0, Start_track
1, 0, Title_t, "\226³\221è"
1, 0, Copyright_t, "Copyright by ?"
1, 0, Title_t, "Conductor track"
1, 0, Key_signature, 0, "major"
1, 0, Time_signature, 1, 2, 24, 8
1, 0, Tempo, 250000
1, 480, Text_t, "Start"
1, 480, Tempo, 384615
1, 480, Key_signature, 0, "major"
1, 480, Time_signature, 4, 2, 24, 8
1, 480, End_track
2, 0, Start_track
2, 0, Title_t, "System Setup"
2, 0, System_exclusive, 5, 126, 127, 9, 1, 247
2, 480, End_track
3, 0, Start_track
3, 0, Title_t, "CH #1"
3, 0, Instrument_name_t, "Bass&Lead"
3, 240, Control_c, 0, 7, 100
3, 300, Control_c, 0, 10, 64
3, 360, Control_c, 0, 11, 100
3, 420, Program_c, 0, 87
3, 480, Text_t, "Start"
3, 480, Control_c, 0, 11, 100
3, 480, Control_c, 0, 10, 64
3, 960, Note_on_c, 0, 57, 127
3, 960, Note_on_c, 0, 53, 127
3, 960, Note_on_c, 0, 50, 127
3, 1080, Note_on_c, 0, 50, 0
3, 1080, Note_on_c, 0, 53, 0
3, 1080, Note_on_c, 0, 57, 0
3, 1440, Note_on_c, 0, 62, 127
3, 1440, Note_on_c, 0, 57, 127
3, 1440, Note_on_c, 0, 53, 127
3, 1560, Note_on_c, 0, 53, 0
3, 1560, Note_on_c, 0, 57, 0
3, 1560, Note_on_c, 0, 62, 0
3, 1920, Note_on_c, 0, 65, 127
3, 1920, Note_on_c, 0, 62, 127
3, 1920, Note_on_c, 0, 57, 127
3, 2040, Note_on_c, 0, 57, 0
3, 2040, Note_on_c, 0, 62, 0
3, 2040, Note_on_c, 0, 65, 0
3, 2880, Note_on_c, 0, 58, 127
3, 2880, Note_on_c, 0, 53, 127
3, 2880, Note_on_c, 0, 50, 127
3, 3000, Note_on_c, 0, 50, 0
3, 3000, Note_on_c, 0, 53, 0
3, 3000, Note_on_c, 0, 58, 0
3, 3360, Note_on_c, 0, 58, 127
3, 3360, Note_on_c, 0, 62, 127
3, 3360, Note_on_c, 0, 53, 127
3, 3480, Note_on_c, 0, 53, 0
3, 3480, Note_on_c, 0, 62, 0
3, 3480, Note_on_c, 0, 58, 0
3, 3840, Note_on_c, 0, 65, 127
3, 3840, Note_on_c, 0, 62, 127
3, 3840, Note_on_c, 0, 58, 127
3, 3960, Note_on_c, 0, 58, 0
3, 3960, Note_on_c, 0, 62, 0
3, 3960, Note_on_c, 0, 65, 0
3, 4320, Control_c, 0, 10, 64
3, 4800, Note_on_c, 0, 57, 127
3, 4800, Note_on_c, 0, 53, 127
3, 4800, Note_on_c, 0, 50, 127
3, 4920, Note_on_c, 0, 50, 0
3, 4920, Note_on_c, 0, 53, 0
3, 4920, Note_on_c, 0, 57, 0
3, 5280, Note_on_c, 0, 62, 127
3, 5280, Note_on_c, 0, 57, 127
3, 5280, Note_on_c, 0, 53, 127
3, 5400, Note_on_c, 0, 53, 0
3, 5400, Note_on_c, 0, 57, 0
3, 5400, Note_on_c, 0, 62, 0
3, 5760, Note_on_c, 0, 65, 127
3, 5760, Note_on_c, 0, 62, 127
3, 5760, Note_on_c, 0, 57, 127
3, 5880, Note_on_c, 0, 57, 0
3, 5880, Note_on_c, 0, 62, 0
3, 5880, Note_on_c, 0, 65, 0
3, 8160, Control_c, 0, 10, 64
3, 8640, Note_on_c, 0, 57, 127
3, 8640, Note_on_c, 0, 53, 127
3, 8640, Note_on_c, 0, 50, 127
3, 8760, Note_on_c, 0, 50, 0
3, 8760, Note_on_c, 0, 53, 0
3, 8760, Note_on_c, 0, 57, 0
3, 9120, Note_on_c, 0, 62, 127
3, 9120, Note_on_c, 0, 57, 127
3, 9120, Note_on_c, 0, 53, 127
3, 9240, Note_on_c, 0, 53, 0
3, 9240, Note_on_c, 0, 57, 0
3, 9240, Note_on_c, 0, 62, 0
3, 9600, Note_on_c, 0, 65, 127
3, 9600, Note_on_c, 0, 62, 127
3, 9600, Note_on_c, 0, 57, 127
3, 9720, Note_on_c, 0, 57, 0
3, 9720, Note_on_c, 0, 62, 0
3, 9720, Note_on_c, 0, 65, 0
3, 10560, Note_on_c, 0, 58, 127
3, 10560, Note_on_c, 0, 53, 127
3, 10560, Note_on_c, 0, 50, 127
3, 10680, Note_on_c, 0, 50, 0
3, 10680, Note_on_c, 0, 53, 0
3, 10680, Note_on_c, 0, 58, 0
3, 11040, Note_on_c, 0, 58, 127
3, 11040, Note_on_c, 0, 62, 127
3, 11040, Note_on_c, 0, 53, 127
3, 11160, Note_on_c, 0, 53, 0
3, 11160, Note_on_c, 0, 62, 0
3, 11160, Note_on_c, 0, 58, 0
3, 11520, Note_on_c, 0, 65, 127
3, 11520, Note_on_c, 0, 62, 127
3, 11520, Note_on_c, 0, 58, 127
3, 11640, Note_on_c, 0, 58, 0
3, 11640, Note_on_c, 0, 62, 0
3, 11640, Note_on_c, 0, 65, 0
3, 12000, Control_c, 0, 10, 64
3, 12480, Note_on_c, 0, 57, 127
3, 12480, Note_on_c, 0, 53, 127
3, 12480, Note_on_c, 0, 50, 127
3, 12600, Note_on_c, 0, 50, 0
3, 12600, Note_on_c, 0, 53, 0
3, 12600, Note_on_c, 0, 57, 0
3, 12960, Note_on_c, 0, 62, 127
3, 12960, Note_on_c, 0, 57, 127
3, 12960, Note_on_c, 0, 53, 127
3, 13080, Note_on_c, 0, 53, 0
3, 13080, Note_on_c, 0, 57, 0
3, 13080, Note_on_c, 0, 62, 0
3, 13440, Note_on_c, 0, 65, 127
3, 13440, Note_on_c, 0, 62, 127
3, 13440, Note_on_c, 0, 57, 127
3, 13560, Note_on_c, 0, 57, 0
3, 13560, Note_on_c, 0, 62, 0
3, 13560, Note_on_c, 0, 65, 0
3, 15840, Control_c, 0, 10, 64
3, 16320, Note_on_c, 0, 57, 127
3, 16320, Note_on_c, 0, 53, 127
3, 16320, Note_on_c, 0, 50, 127
3, 16440, Note_on_c, 0, 50, 0
3, 16440, Note_on_c, 0, 53, 0
3, 16440, Note_on_c, 0, 57, 0
3, 16800, Note_on_c, 0, 62, 127
3, 16800, Note_on_c, 0, 57, 127
3, 16800, Note_on_c, 0, 53, 127
3, 16920, Note_on_c, 0, 53, 0
3, 16920, Note_on_c, 0, 57, 0
3, 16920, Note_on_c, 0, 62, 0
3, 17280, Note_on_c, 0, 65, 127
3, 17280, Note_on_c, 0, 62, 127
3, 17280, Note_on_c, 0, 57, 127
3, 17400, Note_on_c, 0, 57, 0
3, 17400, Note_on_c, 0, 62, 0
3, 17400, Note_on_c, 0, 65, 0
3, 18240, Note_on_c, 0, 58, 127
3, 18240, Note_on_c, 0, 53, 127
3, 18240, Note_on_c, 0, 50, 127
3, 18360, Note_on_c, 0, 50, 0
3, 18360, Note_on_c, 0, 53, 0
3, 18360, Note_on_c, 0, 58, 0
3, 18720, Note_on_c, 0, 58, 127
3, 18720, Note_on_c, 0, 62, 127
3, 18720, Note_on_c, 0, 53, 127
3, 18840, Note_on_c, 0, 53, 0
3, 18840, Note_on_c, 0, 62, 0
3, 18840, Note_on_c, 0, 58, 0
3, 19200, Note_on_c, 0, 65, 127
3, 19200, Note_on_c, 0, 62, 127
3, 19200, Note_on_c, 0, 58, 127
3, 19320, Note_on_c, 0, 58, 0
3, 19320, Note_on_c, 0, 62, 0
3, 19320, Note_on_c, 0, 65, 0
3, 19680, Control_c, 0, 10, 64
3, 20160, Note_on_c, 0, 57, 127
3, 20160, Note_on_c, 0, 53, 127
3, 20160, Note_on_c, 0, 50, 127
3, 20280, Note_on_c, 0, 50, 0
3, 20280, Note_on_c, 0, 53, 0
3, 20280, Note_on_c, 0, 57, 0
3, 20640, Note_on_c, 0, 62, 127
3, 20640, Note_on_c, 0, 57, 127
3, 20640, Note_on_c, 0, 53, 127
3, 20760, Note_on_c, 0, 53, 0
3, 20760, Note_on_c, 0, 57, 0
3, 20760, Note_on_c, 0, 62, 0
3, 21120, Note_on_c, 0, 65, 127
3, 21120, Note_on_c, 0, 62, 127
3, 21120, Note_on_c, 0, 57, 127
3, 21240, Note_on_c, 0, 57, 0
3, 21240, Note_on_c, 0, 62, 0
3, 21240, Note_on_c, 0, 65, 0
3, 23520, Control_c, 0, 10, 64
3, 24000, Note_on_c, 0, 57, 127
3, 24000, Note_on_c, 0, 53, 127
3, 24000, Note_on_c, 0, 50, 127
3, 24120, Note_on_c, 0, 50, 0
3, 24120, Note_on_c, 0, 53, 0
3, 24120, Note_on_c, 0, 57, 0
3, 24480, Note_on_c, 0, 62, 127
3, 24480, Note_on_c, 0, 57, 127
3, 24480, Note_on_c, 0, 53, 127
3, 24600, Note_on_c, 0, 53, 0
3, 24600, Note_on_c, 0, 57, 0
3, 24600, Note_on_c, 0, 62, 0
3, 24960, Note_on_c, 0, 65, 127
3, 24960, Note_on_c, 0, 62, 127
3, 24960, Note_on_c, 0, 57, 127
3, 25080, Note_on_c, 0, 57, 0
3, 25080, Note_on_c, 0, 62, 0
3, 25080, Note_on_c, 0, 65, 0
3, 25920, Note_on_c, 0, 58, 127
3, 25920, Note_on_c, 0, 53, 127
3, 25920, Note_on_c, 0, 50, 127
3, 26040, Note_on_c, 0, 50, 0
3, 26040, Note_on_c, 0, 53, 0
3, 26040, Note_on_c, 0, 58, 0
3, 26400, Note_on_c, 0, 58, 127
3, 26400, Note_on_c, 0, 62, 127
3, 26400, Note_on_c, 0, 53, 127
3, 26520, Note_on_c, 0, 53, 0
3, 26520, Note_on_c, 0, 62, 0
3, 26520, Note_on_c, 0, 58, 0
3, 26880, Note_on_c, 0, 65, 127
3, 26880, Note_on_c, 0, 62, 127
3, 26880, Note_on_c, 0, 58, 127
3, 27000, Note_on_c, 0, 58, 0
3, 27000, Note_on_c, 0, 62, 0
3, 27000, Note_on_c, 0, 65, 0
3, 27360, Control_c, 0, 10, 64
3, 27840, Note_on_c, 0, 57, 127
3, 27840, Note_on_c, 0, 53, 127
3, 27840, Note_on_c, 0, 50, 127
3, 27960, Note_on_c, 0, 50, 0
3, 27960, Note_on_c, 0, 53, 0
3, 27960, Note_on_c, 0, 57, 0
3, 28320, Note_on_c, 0, 62, 127
3, 28320, Note_on_c, 0, 57, 127
3, 28320, Note_on_c, 0, 53, 127
3, 28440, Note_on_c, 0, 53, 0
3, 28440, Note_on_c, 0, 57, 0
3, 28440, Note_on_c, 0, 62, 0
3, 28800, Note_on_c, 0, 65, 127
3, 28800, Note_on_c, 0, 62, 127
3, 28800, Note_on_c, 0, 57, 127
3, 28920, Note_on_c, 0, 57, 0
3, 28920, Note_on_c, 0, 62, 0
3, 28920, Note_on_c, 0, 65, 0
3, 29760, Note_on_c, 0, 58, 127
3, 29760, Note_on_c, 0, 53, 127
3, 29760, Note_on_c, 0, 50, 127
3, 29880, Note_on_c, 0, 50, 0
3, 29880, Note_on_c, 0, 53, 0
3, 29880, Note_on_c, 0, 58, 0
3, 30240, Note_on_c, 0, 58, 127
3, 30240, Note_on_c, 0, 62, 127
3, 30240, Note_on_c, 0, 53, 127
3, 30360, Note_on_c, 0, 53, 0
3, 30360, Note_on_c, 0, 62, 0
3, 30360, Note_on_c, 0, 58, 0
3, 30720, Note_on_c, 0, 65, 127
3, 30720, Note_on_c, 0, 62, 127
3, 30720, Note_on_c, 0, 58, 127
3, 30840, Note_on_c, 0, 58, 0
3, 30840, Note_on_c, 0, 62, 0
3, 30840, Note_on_c, 0, 65, 0
3, 31200, Control_c, 0, 10, 64
3, 31680, Note_on_c, 0, 57, 127
3, 31680, Note_on_c, 0, 53, 127
3, 31680, Note_on_c, 0, 50, 127
3, 31800, Note_on_c, 0, 50, 0
3, 31800, Note_on_c, 0, 53, 0
3, 31800, Note_on_c, 0, 57, 0
3, 32160, Note_on_c, 0, 62, 127
3, 32160, Note_on_c, 0, 57, 127
3, 32160, Note_on_c, 0, 53, 127
3, 32280, Note_on_c, 0, 53, 0
3, 32280, Note_on_c, 0, 57, 0
3, 32280, Note_on_c, 0, 62, 0
3, 32640, Note_on_c, 0, 65, 127
3, 32640, Note_on_c, 0, 62, 127
3, 32640, Note_on_c, 0, 57, 127
3, 32760, Note_on_c, 0, 57, 0
3, 32760, Note_on_c, 0, 62, 0
3, 32760, Note_on_c, 0, 65, 0
3, 33600, Note_on_c, 0, 58, 127
3, 33600, Note_on_c, 0, 53, 127
3, 33600, Note_on_c, 0, 50, 127
3, 33720, Note_on_c, 0, 50, 0
3, 33720, Note_on_c, 0, 53, 0
3, 33720, Note_on_c, 0, 58, 0
3, 34080, Note_on_c, 0, 58, 127
3, 34080, Note_on_c, 0, 62, 127
3, 34080, Note_on_c, 0, 53, 127
3, 34200, Note_on_c, 0, 53, 0
3, 34200, Note_on_c, 0, 62, 0
3, 34200, Note_on_c, 0, 58, 0
3, 34560, Note_on_c, 0, 65, 127
3, 34560, Note_on_c, 0, 62, 127
3, 34560, Note_on_c, 0, 58, 127
3, 34680, Note_on_c, 0, 58, 0
3, 34680, Note_on_c, 0, 62, 0
3, 34680, Note_on_c, 0, 65, 0
3, 35040, Control_c, 0, 10, 64
3, 35520, Note_on_c, 0, 57, 127
3, 35520, Note_on_c, 0, 53, 127
3, 35520, Note_on_c, 0, 50, 127
3, 35640, Note_on_c, 0, 50, 0
3, 35640, Note_on_c, 0, 53, 0
3, 35640, Note_on_c, 0, 57, 0
3, 36000, Note_on_c, 0, 62, 127
3, 36000, Note_on_c, 0, 57, 127
3, 36000, Note_on_c, 0, 53, 127
3, 36120, Note_on_c, 0, 53, 0
3, 36120, Note_on_c, 0, 57, 0
3, 36120, Note_on_c, 0, 62, 0
3, 36480, Note_on_c, 0, 65, 127
3, 36480, Note_on_c, 0, 62, 127
3, 36480, Note_on_c, 0, 57, 127
3, 36600, Note_on_c, 0, 57, 0
3, 36600, Note_on_c, 0, 62, 0
3, 36600, Note_on_c, 0, 65, 0
3, 37440, Note_on_c, 0, 58, 127
3, 37440, Note_on_c, 0, 53, 127
3, 37440, Note_on_c, 0, 50, 127
3, 37560, Note_on_c, 0, 50, 0
3, 37560, Note_on_c, 0, 53, 0
3, 37560, Note_on_c, 0, 58, 0
3, 37920, Note_on_c, 0, 58, 127
3, 37920, Note_on_c, 0, 62, 127
3, 37920, Note_on_c, 0, 53, 127
3, 38040, Note_on_c, 0, 53, 0
3, 38040, Note_on_c, 0, 62, 0
3, 38040, Note_on_c, 0, 58, 0
3, 38400, Note_on_c, 0, 65, 127
3, 38400, Note_on_c, 0, 62, 127
3, 38400, Note_on_c, 0, 58, 127
3, 38520, Note_on_c, 0, 58, 0
3, 38520, Note_on_c, 0, 62, 0
3, 38520, Note_on_c, 0, 65, 0
3, 38880, Control_c, 0, 10, 64
3, 39360, Note_on_c, 0, 57, 127
3, 39360, Note_on_c, 0, 53, 127
3, 39360, Note_on_c, 0, 50, 127
3, 39480, Note_on_c, 0, 50, 0
3, 39480, Note_on_c, 0, 53, 0
3, 39480, Note_on_c, 0, 57, 0
3, 39840, Note_on_c, 0, 62, 127
3, 39840, Note_on_c, 0, 57, 127
3, 39840, Note_on_c, 0, 53, 127
3, 39960, Note_on_c, 0, 53, 0
3, 39960, Note_on_c, 0, 57, 0
3, 39960, Note_on_c, 0, 62, 0
3, 40320, Note_on_c, 0, 65, 127
3, 40320, Note_on_c, 0, 62, 127
3, 40320, Note_on_c, 0, 57, 127
3, 40440, Note_on_c, 0, 57, 0
3, 40440, Note_on_c, 0, 62, 0
3, 40440, Note_on_c, 0, 65, 0
3, 41280, Note_on_c, 0, 58, 127
3, 41280, Note_on_c, 0, 53, 127
3, 41280, Note_on_c, 0, 50, 127
3, 41400, Note_on_c, 0, 50, 0
3, 41400, Note_on_c, 0, 53, 0
3, 41400, Note_on_c, 0, 58, 0
3, 41760, Note_on_c, 0, 58, 127
3, 41760, Note_on_c, 0, 62, 127
3, 41760, Note_on_c, 0, 53, 127
3, 41880, Note_on_c, 0, 53, 0
3, 41880, Note_on_c, 0, 62, 0
3, 41880, Note_on_c, 0, 58, 0
3, 42240, Note_on_c, 0, 65, 127
3, 42240, Note_on_c, 0, 62, 127
3, 42240, Note_on_c, 0, 58, 127
3, 42360, Note_on_c, 0, 58, 0
3, 42360, Note_on_c, 0, 62, 0
3, 42360, Note_on_c, 0, 65, 0
3, 42720, Control_c, 0, 10, 64
3, 43200, Note_on_c, 0, 57, 127
3, 43200, Note_on_c, 0, 53, 127
3, 43200, Note_on_c, 0, 50, 127
3, 43320, Note_on_c, 0, 50, 0
3, 43320, Note_on_c, 0, 53, 0
3, 43320, Note_on_c, 0, 57, 0
3, 43680, Note_on_c, 0, 62, 127
3, 43680, Note_on_c, 0, 57, 127
3, 43680, Note_on_c, 0, 53, 127
3, 43800, Note_on_c, 0, 53, 0
3, 43800, Note_on_c, 0, 57, 0
3, 43800, Note_on_c, 0, 62, 0
3, 44160, Note_on_c, 0, 65, 127
3, 44160, Note_on_c, 0, 62, 127
3, 44160, Note_on_c, 0, 57, 127
3, 44280, Note_on_c, 0, 57, 0
3, 44280, Note_on_c, 0, 62, 0
3, 44280, Note_on_c, 0, 65, 0
3, 45120, Note_on_c, 0, 58, 127
3, 45120, Note_on_c, 0, 53, 127
3, 45120, Note_on_c, 0, 50, 127
3, 45240, Note_on_c, 0, 50, 0
3, 45240, Note_on_c, 0, 53, 0
3, 45240, Note_on_c, 0, 58, 0
3, 45600, Note_on_c, 0, 58, 127
3, 45600, Note_on_c, 0, 62, 127
3, 45600, Note_on_c, 0, 53, 127
3, 45720, Note_on_c, 0, 53, 0
3, 45720, Note_on_c, 0, 62, 0
3, 45720, Note_on_c, 0, 58, 0
3, 46080, Note_on_c, 0, 65, 127
3, 46080, Note_on_c, 0, 62, 127
3, 46080, Note_on_c, 0, 58, 127
3, 46200, Note_on_c, 0, 58, 0
3, 46200, Note_on_c, 0, 62, 0
3, 46200, Note_on_c, 0, 65, 0
3, 46560, Control_c, 0, 10, 64
3, 47040, Note_on_c, 0, 57, 127
3, 47040, Note_on_c, 0, 53, 127
3, 47040, Note_on_c, 0, 50, 127
3, 47160, Note_on_c, 0, 50, 0
3, 47160, Note_on_c, 0, 53, 0
3, 47160, Note_on_c, 0, 57, 0
3, 47520, Note_on_c, 0, 62, 127
3, 47520, Note_on_c, 0, 57, 127
3, 47520, Note_on_c, 0, 53, 127
3, 47640, Note_on_c, 0, 53, 0
3, 47640, Note_on_c, 0, 57, 0
3, 47640, Note_on_c, 0, 62, 0
3, 48000, Note_on_c, 0, 65, 127
3, 48000, Note_on_c, 0, 62, 127
3, 48000, Note_on_c, 0, 57, 127
3, 48120, Note_on_c, 0, 57, 0
3, 48120, Note_on_c, 0, 62, 0
3, 48120, Note_on_c, 0, 65, 0
3, 48960, Note_on_c, 0, 58, 127
3, 48960, Note_on_c, 0, 53, 127
3, 48960, Note_on_c, 0, 50, 127
3, 49080, Note_on_c, 0, 50, 0
3, 49080, Note_on_c, 0, 53, 0
3, 49080, Note_on_c, 0, 58, 0
3, 49440, Note_on_c, 0, 58, 127
3, 49440, Note_on_c, 0, 62, 127
3, 49440, Note_on_c, 0, 53, 127
3, 49560, Note_on_c, 0, 53, 0
3, 49560, Note_on_c, 0, 62, 0
3, 49560, Note_on_c, 0, 58, 0
3, 49920, Note_on_c, 0, 65, 127
3, 49920, Note_on_c, 0, 62, 127
3, 49920, Note_on_c, 0, 58, 127
3, 50040, Note_on_c, 0, 58, 0
3, 50040, Note_on_c, 0, 62, 0
3, 50040, Note_on_c, 0, 65, 0
3, 50400, Control_c, 0, 10, 64
3, 50880, Note_on_c, 0, 57, 127
3, 50880, Note_on_c, 0, 53, 127
3, 50880, Note_on_c, 0, 50, 127
3, 51000, Note_on_c, 0, 50, 0
3, 51000, Note_on_c, 0, 53, 0
3, 51000, Note_on_c, 0, 57, 0
3, 51360, Note_on_c, 0, 62, 127
3, 51360, Note_on_c, 0, 57, 127
3, 51360, Note_on_c, 0, 53, 127
3, 51480, Note_on_c, 0, 53, 0
3, 51480, Note_on_c, 0, 57, 0
3, 51480, Note_on_c, 0, 62, 0
3, 51840, Note_on_c, 0, 65, 127
3, 51840, Note_on_c, 0, 62, 127
3, 51840, Note_on_c, 0, 57, 127
3, 51960, Note_on_c, 0, 57, 0
3, 51960, Note_on_c, 0, 62, 0
3, 51960, Note_on_c, 0, 65, 0
3, 52800, Note_on_c, 0, 58, 127
3, 52800, Note_on_c, 0, 53, 127
3, 52800, Note_on_c, 0, 50, 127
3, 52920, Note_on_c, 0, 50, 0
3, 52920, Note_on_c, 0, 53, 0
3, 52920, Note_on_c, 0, 58, 0
3, 53280, Note_on_c, 0, 58, 127
3, 53280, Note_on_c, 0, 62, 127
3, 53280, Note_on_c, 0, 53, 127
3, 53400, Note_on_c, 0, 53, 0
3, 53400, Note_on_c, 0, 62, 0
3, 53400, Note_on_c, 0, 58, 0
3, 53760, Note_on_c, 0, 65, 127
3, 53760, Note_on_c, 0, 62, 127
3, 53760, Note_on_c, 0, 58, 127
3, 53880, Note_on_c, 0, 58, 0
3, 53880, Note_on_c, 0, 62, 0
3, 53880, Note_on_c, 0, 65, 0
3, 54240, Control_c, 0, 10, 64
3, 54720, Note_on_c, 0, 57, 127
3, 54720, Note_on_c, 0, 53, 127
3, 54720, Note_on_c, 0, 50, 127
3, 54840, Note_on_c, 0, 50, 0
3, 54840, Note_on_c, 0, 53, 0
3, 54840, Note_on_c, 0, 57, 0
3, 55200, Note_on_c, 0, 62, 127
3, 55200, Note_on_c, 0, 57, 127
3, 55200, Note_on_c, 0, 53, 127
3, 55320, Note_on_c, 0, 53, 0
3, 55320, Note_on_c, 0, 57, 0
3, 55320, Note_on_c, 0, 62, 0
3, 55680, Note_on_c, 0, 65, 127
3, 55680, Note_on_c, 0, 62, 127
3, 55680, Note_on_c, 0, 57, 127
3, 55800, Note_on_c, 0, 57, 0
3, 55800, Note_on_c, 0, 62, 0
3, 55800, Note_on_c, 0, 65, 0
3, 56640, Note_on_c, 0, 58, 127
3, 56640, Note_on_c, 0, 53, 127
3, 56640, Note_on_c, 0, 50, 127
3, 56760, Note_on_c, 0, 50, 0
3, 56760, Note_on_c, 0, 53, 0
3, 56760, Note_on_c, 0, 58, 0
3, 57120, Note_on_c, 0, 58, 127
3, 57120, Note_on_c, 0, 62, 127
3, 57120, Note_on_c, 0, 53, 127
3, 57240, Note_on_c, 0, 53, 0
3, 57240, Note_on_c, 0, 62, 0
3, 57240, Note_on_c, 0, 58, 0
3, 57600, Note_on_c, 0, 65, 127
3, 57600, Note_on_c, 0, 62, 127
3, 57600, Note_on_c, 0, 58, 127
3, 57720, Note_on_c, 0, 58, 0
3, 57720, Note_on_c, 0, 62, 0
3, 57720, Note_on_c, 0, 65, 0
3, 58080, Control_c, 0, 10, 64
3, 58560, Note_on_c, 0, 57, 127
3, 58560, Note_on_c, 0, 53, 127
3, 58560, Note_on_c, 0, 50, 127
3, 58680, Note_on_c, 0, 50, 0
3, 58680, Note_on_c, 0, 53, 0
3, 58680, Note_on_c, 0, 57, 0
3, 59040, Note_on_c, 0, 62, 127
3, 59040, Note_on_c, 0, 57, 127
3, 59040, Note_on_c, 0, 53, 127
3, 59160, Note_on_c, 0, 53, 0
3, 59160, Note_on_c, 0, 57, 0
3, 59160, Note_on_c, 0, 62, 0
3, 59520, Note_on_c, 0, 65, 127
3, 59520, Note_on_c, 0, 62, 127
3, 59520, Note_on_c, 0, 57, 127
3, 59640, Note_on_c, 0, 57, 0
3, 59640, Note_on_c, 0, 62, 0
3, 59640, Note_on_c, 0, 65, 0
3, 60480, Note_on_c, 0, 58, 127
3, 60480, Note_on_c, 0, 53, 127
3, 60480, Note_on_c, 0, 50, 127
3, 60600, Note_on_c, 0, 50, 0
3, 60600, Note_on_c, 0, 53, 0
3, 60600, Note_on_c, 0, 58, 0
3, 60960, Note_on_c, 0, 58, 127
3, 60960, Note_on_c, 0, 62, 127
3, 60960, Note_on_c, 0, 53, 127
3, 61080, Note_on_c, 0, 53, 0
3, 61080, Note_on_c, 0, 62, 0
3, 61080, Note_on_c, 0, 58, 0
3, 61440, Note_on_c, 0, 65, 127
3, 61440, Note_on_c, 0, 62, 127
3, 61440, Note_on_c, 0, 58, 127
3, 61560, Note_on_c, 0, 58, 0
3, 61560, Note_on_c, 0, 62, 0
3, 61560, Note_on_c, 0, 65, 0
3, 61920, Control_c, 0, 10, 64
3, 62400, Note_on_c, 0, 57, 127
3, 62400, Note_on_c, 0, 53, 127
3, 62400, Note_on_c, 0, 50, 127
3, 62520, Note_on_c, 0, 50, 0
3, 62520, Note_on_c, 0, 53, 0
3, 62520, Note_on_c, 0, 57, 0
3, 62880, Note_on_c, 0, 62, 127
3, 62880, Note_on_c, 0, 57, 127
3, 62880, Note_on_c, 0, 53, 127
3, 63000, Note_on_c, 0, 53, 0
3, 63000, Note_on_c, 0, 57, 0
3, 63000, Note_on_c, 0, 62, 0
3, 63360, Note_on_c, 0, 65, 127
3, 63360, Note_on_c, 0, 62, 127
3, 63360, Note_on_c, 0, 57, 127
3, 63480, Note_on_c, 0, 57, 0
3, 63480, Note_on_c, 0, 62, 0
3, 63480, Note_on_c, 0, 65, 0
3, 64320, Note_on_c, 0, 58, 127
3, 64320, Note_on_c, 0, 53, 127
3, 64320, Note_on_c, 0, 50, 127
3, 64440, Note_on_c, 0, 50, 0
3, 64440, Note_on_c, 0, 53, 0
3, 64440, Note_on_c, 0, 58, 0
3, 64800, Note_on_c, 0, 58, 127
3, 64800, Note_on_c, 0, 62, 127
3, 64800, Note_on_c, 0, 53, 127
3, 64920, Note_on_c, 0, 53, 0
3, 64920, Note_on_c, 0, 62, 0
3, 64920, Note_on_c, 0, 58, 0
3, 65280, Note_on_c, 0, 65, 127
3, 65280, Note_on_c, 0, 62, 127
3, 65280, Note_on_c, 0, 58, 127
3, 65400, Note_on_c, 0, 58, 0
3, 65400, Note_on_c, 0, 62, 0
3, 65400, Note_on_c, 0, 65, 0
3, 65760, Control_c, 0, 10, 64
3, 66240, Note_on_c, 0, 57, 127
3, 66240, Note_on_c, 0, 53, 127
3, 66240, Note_on_c, 0, 50, 127
3, 66360, Note_on_c, 0, 50, 0
3, 66360, Note_on_c, 0, 53, 0
3, 66360, Note_on_c, 0, 57, 0
3, 66720, Note_on_c, 0, 62, 127
3, 66720, Note_on_c, 0, 57, 127
3, 66720, Note_on_c, 0, 53, 127
3, 66840, Note_on_c, 0, 53, 0
3, 66840, Note_on_c, 0, 57, 0
3, 66840, Note_on_c, 0, 62, 0
3, 67200, Note_on_c, 0, 65, 127
3, 67200, Note_on_c, 0, 62, 127
3, 67200, Note_on_c, 0, 57, 127
3, 67320, Note_on_c, 0, 57, 0
3, 67320, Note_on_c, 0, 62, 0
3, 67320, Note_on_c, 0, 65, 0
3, 68160, Note_on_c, 0, 58, 127
3, 68160, Note_on_c, 0, 53, 127
3, 68160, Note_on_c, 0, 50, 127
3, 68280, Note_on_c, 0, 50, 0
3, 68280, Note_on_c, 0, 53, 0
3, 68280, Note_on_c, 0, 58, 0
3, 68640, Note_on_c, 0, 58, 127
3, 68640, Note_on_c, 0, 62, 127
3, 68640, Note_on_c, 0, 53, 127
3, 68760, Note_on_c, 0, 53, 0
3, 68760, Note_on_c, 0, 62, 0
3, 68760, Note_on_c, 0, 58, 0
3, 69120, Note_on_c, 0, 65, 127
3, 69120, Note_on_c, 0, 62, 127
3, 69120, Note_on_c, 0, 58, 127
3, 69240, Note_on_c, 0, 58, 0
3, 69240, Note_on_c, 0, 62, 0
3, 69240, Note_on_c, 0, 65, 0
3, 69600, Control_c, 0, 10, 64
3, 70080, Note_on_c, 0, 57, 127
3, 70080, Note_on_c, 0, 53, 127
3, 70080, Note_on_c, 0, 50, 127
3, 70200, Note_on_c, 0, 50, 0
3, 70200, Note_on_c, 0, 53, 0
3, 70200, Note_on_c, 0, 57, 0
3, 70560, Note_on_c, 0, 62, 127
3, 70560, Note_on_c, 0, 57, 127
3, 70560, Note_on_c, 0, 53, 127
3, 70680, Note_on_c, 0, 53, 0
3, 70680, Note_on_c, 0, 57, 0
3, 70680, Note_on_c, 0, 62, 0
3, 71040, Note_on_c, 0, 65, 127
3, 71040, Note_on_c, 0, 62, 127
3, 71040, Note_on_c, 0, 57, 127
3, 71160, Note_on_c, 0, 57, 0
3, 71160, Note_on_c, 0, 62, 0
3, 71160, Note_on_c, 0, 65, 0
3, 72000, Note_on_c, 0, 58, 127
3, 72000, Note_on_c, 0, 53, 127
3, 72000, Note_on_c, 0, 50, 127
3, 72120, Note_on_c, 0, 50, 0
3, 72120, Note_on_c, 0, 53, 0
3, 72120, Note_on_c, 0, 58, 0
3, 72480, Note_on_c, 0, 58, 127
3, 72480, Note_on_c, 0, 62, 127
3, 72480, Note_on_c, 0, 53, 127
3, 72600, Note_on_c, 0, 53, 0
3, 72600, Note_on_c, 0, 62, 0
3, 72600, Note_on_c, 0, 58, 0
3, 72960, Note_on_c, 0, 65, 127
3, 72960, Note_on_c, 0, 62, 127
3, 72960, Note_on_c, 0, 58, 127
3, 73080, Note_on_c, 0, 58, 0
3, 73080, Note_on_c, 0, 62, 0
3, 73080, Note_on_c, 0, 65, 0
3, 73440, Control_c, 0, 10, 64
3, 73920, Note_on_c, 0, 57, 127
3, 73920, Note_on_c, 0, 53, 127
3, 73920, Note_on_c, 0, 50, 127
3, 74040, Note_on_c, 0, 50, 0
3, 74040, Note_on_c, 0, 53, 0
3, 74040, Note_on_c, 0, 57, 0
3, 74400, Note_on_c, 0, 62, 127
3, 74400, Note_on_c, 0, 57, 127
3, 74400, Note_on_c, 0, 53, 127
3, 74520, Note_on_c, 0, 53, 0
3, 74520, Note_on_c, 0, 57, 0
3, 74520, Note_on_c, 0, 62, 0
3, 74880, Note_on_c, 0, 65, 127
3, 74880, Note_on_c, 0, 62, 127
3, 74880, Note_on_c, 0, 57, 127
3, 75000, Note_on_c, 0, 57, 0
3, 75000, Note_on_c, 0, 62, 0
3, 75000, Note_on_c, 0, 65, 0
3, 75840, Note_on_c, 0, 58, 127
3, 75840, Note_on_c, 0, 53, 127
3, 75840, Note_on_c, 0, 50, 127
3, 75960, Note_on_c, 0, 50, 0
3, 75960, Note_on_c, 0, 53, 0
3, 75960, Note_on_c, 0, 58, 0
3, 76320, Note_on_c, 0, 58, 127
3, 76320, Note_on_c, 0, 62, 127
3, 76320, Note_on_c, 0, 53, 127
3, 76440, Note_on_c, 0, 53, 0
3, 76440, Note_on_c, 0, 62, 0
3, 76440, Note_on_c, 0, 58, 0
3, 76800, Note_on_c, 0, 65, 127
3, 76800, Note_on_c, 0, 62, 127
3, 76800, Note_on_c, 0, 58, 127
3, 76920, Note_on_c, 0, 58, 0
3, 76920, Note_on_c, 0, 62, 0
3, 76920, Note_on_c, 0, 65, 0
3, 77280, Control_c, 0, 10, 64
3, 77760, Note_on_c, 0, 57, 127
3, 77760, Note_on_c, 0, 53, 127
3, 77760, Note_on_c, 0, 50, 127
3, 77880, Note_on_c, 0, 50, 0
3, 77880, Note_on_c, 0, 53, 0
3, 77880, Note_on_c, 0, 57, 0
3, 78240, Note_on_c, 0, 62, 127
3, 78240, Note_on_c, 0, 57, 127
3, 78240, Note_on_c, 0, 53, 127
3, 78360, Note_on_c, 0, 53, 0
3, 78360, Note_on_c, 0, 57, 0
3, 78360, Note_on_c, 0, 62, 0
3, 78720, Note_on_c, 0, 65, 127
3, 78720, Note_on_c, 0, 62, 127
3, 78720, Note_on_c, 0, 57, 127
3, 78840, Note_on_c, 0, 57, 0
3, 78840, Note_on_c, 0, 62, 0
3, 78840, Note_on_c, 0, 65, 0
3, 79680, Note_on_c, 0, 58, 127
3, 79680, Note_on_c, 0, 53, 127
3, 79680, Note_on_c, 0, 50, 127
3, 79800, Note_on_c, 0, 50, 0
3, 79800, Note_on_c, 0, 53, 0
3, 79800, Note_on_c, 0, 58, 0
3, 80160, Note_on_c, 0, 58, 127
3, 80160, Note_on_c, 0, 62, 127
3, 80160, Note_on_c, 0, 53, 127
3, 80280, Note_on_c, 0, 53, 0
3, 80280, Note_on_c, 0, 62, 0
3, 80280, Note_on_c, 0, 58, 0
3, 80640, Note_on_c, 0, 65, 127
3, 80640, Note_on_c, 0, 62, 127
3, 80640, Note_on_c, 0, 58, 127
3, 80760, Note_on_c, 0, 58, 0
3, 80760, Note_on_c, 0, 62, 0
3, 80760, Note_on_c, 0, 65, 0
3, 81120, Control_c, 0, 10, 64
3, 81600, Note_on_c, 0, 57, 127
3, 81600, Note_on_c, 0, 53, 127
3, 81600, Note_on_c, 0, 50, 127
3, 81720, Note_on_c, 0, 50, 0
3, 81720, Note_on_c, 0, 53, 0
3, 81720, Note_on_c, 0, 57, 0
3, 82080, Note_on_c, 0, 62, 127
3, 82080, Note_on_c, 0, 57, 127
3, 82080, Note_on_c, 0, 53, 127
3, 82200, Note_on_c, 0, 53, 0
3, 82200, Note_on_c, 0, 57, 0
3, 82200, Note_on_c, 0, 62, 0
3, 82560, Note_on_c, 0, 65, 127
3, 82560, Note_on_c, 0, 62, 127
3, 82560, Note_on_c, 0, 57, 127
3, 82680, Note_on_c, 0, 57, 0
3, 82680, Note_on_c, 0, 62, 0
3, 82680, Note_on_c, 0, 65, 0
3, 83520, Note_on_c, 0, 58, 127
3, 83520, Note_on_c, 0, 53, 127
3, 83520, Note_on_c, 0, 50, 127
3, 83640, Note_on_c, 0, 50, 0
3, 83640, Note_on_c, 0, 53, 0
3, 83640, Note_on_c, 0, 58, 0
3, 84000, Note_on_c, 0, 58, 127
3, 84000, Note_on_c, 0, 62, 127
3, 84000, Note_on_c, 0, 53, 127
3, 84120, Note_on_c, 0, 53, 0
3, 84120, Note_on_c, 0, 62, 0
3, 84120, Note_on_c, 0, 58, 0
3, 84480, Note_on_c, 0, 65, 127
3, 84480, Note_on_c, 0, 62, 127
3, 84480, Note_on_c, 0, 58, 127
3, 84600, Note_on_c, 0, 58, 0
3, 84600, Note_on_c, 0, 62, 0
3, 84600, Note_on_c, 0, 65, 0
3, 84960, Control_c, 0, 10, 64
3, 85440, Note_on_c, 0, 57, 127
3, 85440, Note_on_c, 0, 53, 127
3, 85440, Note_on_c, 0, 50, 127
3, 85560, Note_on_c, 0, 50, 0
3, 85560, Note_on_c, 0, 53, 0
3, 85560, Note_on_c, 0, 57, 0
3, 85920, Note_on_c, 0, 62, 127
3, 85920, Note_on_c, 0, 57, 127
3, 85920, Note_on_c, 0, 53, 127
3, 86040, Note_on_c, 0, 53, 0
3, 86040, Note_on_c, 0, 57, 0
3, 86040, Note_on_c, 0, 62, 0
3, 86400, Note_on_c, 0, 65, 127
3, 86400, Note_on_c, 0, 62, 127
3, 86400, Note_on_c, 0, 57, 127
3, 86520, Note_on_c, 0, 57, 0
3, 86520, Note_on_c, 0, 62, 0
3, 86520, Note_on_c, 0, 65, 0
3, 87360, Note_on_c, 0, 58, 127
3, 87360, Note_on_c, 0, 53, 127
3, 87360, Note_on_c, 0, 50, 127
3, 87480, Note_on_c, 0, 50, 0
3, 87480, Note_on_c, 0, 53, 0
3, 87480, Note_on_c, 0, 58, 0
3, 87840, Note_on_c, 0, 58, 127
3, 87840, Note_on_c, 0, 62, 127
3, 87840, Note_on_c, 0, 53, 127
3, 87960, Note_on_c, 0, 53, 0
3, 87960, Note_on_c, 0, 62, 0
3, 87960, Note_on_c, 0, 58, 0
3, 88320, Note_on_c, 0, 65, 127
3, 88320, Note_on_c, 0, 62, 127
3, 88320, Note_on_c, 0, 58, 127
3, 88440, Note_on_c, 0, 58, 0
3, 88440, Note_on_c, 0, 62, 0
3, 88440, Note_on_c, 0, 65, 0
3, 88800, Control_c, 0, 10, 64
3, 89280, Note_on_c, 0, 57, 127
3, 89280, Note_on_c, 0, 53, 127
3, 89280, Note_on_c, 0, 50, 127
3, 89400, Note_on_c, 0, 50, 0
3, 89400, Note_on_c, 0, 53, 0
3, 89400, Note_on_c, 0, 57, 0
3, 89760, Note_on_c, 0, 62, 127
3, 89760, Note_on_c, 0, 57, 127
3, 89760, Note_on_c, 0, 53, 127
3, 89880, Note_on_c, 0, 53, 0
3, 89880, Note_on_c, 0, 57, 0
3, 89880, Note_on_c, 0, 62, 0
3, 90240, Note_on_c, 0, 65, 127
3, 90240, Note_on_c, 0, 62, 127
3, 90240, Note_on_c, 0, 57, 127
3, 90360, Note_on_c, 0, 57, 0
3, 90360, Note_on_c, 0, 62, 0
3, 90360, Note_on_c, 0, 65, 0
3, 91200, Note_on_c, 0, 58, 127
3, 91200, Note_on_c, 0, 53, 127
3, 91200, Note_on_c, 0, 50, 127
3, 91320, Note_on_c, 0, 50, 0
3, 91320, Note_on_c, 0, 53, 0
3, 91320, Note_on_c, 0, 58, 0
3, 91680, Note_on_c, 0, 58, 127
3, 91680, Note_on_c, 0, 62, 127
3, 91680, Note_on_c, 0, 53, 127
3, 91800, Note_on_c, 0, 53, 0
3, 91800, Note_on_c, 0, 62, 0
3, 91800, Note_on_c, 0, 58, 0
3, 92160, Note_on_c, 0, 65, 127
3, 92160, Note_on_c, 0, 62, 127
3, 92160, Note_on_c, 0, 58, 127
3, 92280, Note_on_c, 0, 58, 0
3, 92280, Note_on_c, 0, 62, 0
3, 92280, Note_on_c, 0, 65, 0
3, 93120, Note_on_c, 0, 55, 127
3, 93240, Note_on_c, 0, 55, 0
3, 93600, Note_on_c, 0, 58, 127
3, 93720, Note_on_c, 0, 58, 0
3, 94080, Note_on_c, 0, 62, 127
3, 94200, Note_on_c, 0, 62, 0
3, 94560, Note_on_c, 0, 57, 127
3, 94680, Note_on_c, 0, 57, 0
3, 95040, Note_on_c, 0, 60, 127
3, 95160, Note_on_c, 0, 60, 0
3, 95520, Note_on_c, 0, 64, 127
3, 95640, Note_on_c, 0, 64, 0
3, 96000, Note_on_c, 0, 67, 127
3, 96120, Note_on_c, 0, 67, 0
3, 96960, Note_on_c, 0, 55, 127
3, 97080, Note_on_c, 0, 55, 0
3, 97440, Note_on_c, 0, 60, 127
3, 97560, Note_on_c, 0, 60, 0
3, 97920, Note_on_c, 0, 62, 127
3, 98040, Note_on_c, 0, 62, 0
3, 98400, Note_on_c, 0, 55, 127
3, 98520, Note_on_c, 0, 55, 0
3, 98880, Note_on_c, 0, 62, 127
3, 99000, Note_on_c, 0, 62, 0
3, 99360, Note_on_c, 0, 67, 127
3, 99480, Note_on_c, 0, 67, 0
3, 99840, Note_on_c, 0, 70, 127
3, 99960, Note_on_c, 0, 70, 0
3, 100800, Note_on_c, 0, 57, 127
3, 100920, Note_on_c, 0, 57, 0
3, 101280, Note_on_c, 0, 62, 127
3, 101400, Note_on_c, 0, 62, 0
3, 101760, Note_on_c, 0, 64, 127
3, 101880, Note_on_c, 0, 64, 0
3, 102720, Note_on_c, 0, 62, 127
3, 102840, Note_on_c, 0, 62, 0
3, 103200, Note_on_c, 0, 58, 127
3, 103320, Note_on_c, 0, 58, 0
3, 103680, Note_on_c, 0, 57, 127
3, 103800, Note_on_c, 0, 57, 0
3, 104160, Note_on_c, 0, 58, 127
3, 104280, Note_on_c, 0, 58, 0
3, 104640, Note_on_c, 0, 58, 127
3, 104760, Note_on_c, 0, 58, 0
3, 105120, Note_on_c, 0, 62, 127
3, 105240, Note_on_c, 0, 62, 0
3, 105600, Note_on_c, 0, 64, 127
3, 105720, Note_on_c, 0, 64, 0
3, 106560, Note_on_c, 0, 62, 127
3, 106680, Note_on_c, 0, 62, 0
3, 107040, Note_on_c, 0, 58, 127
3, 107160, Note_on_c, 0, 58, 0
3, 107520, Note_on_c, 0, 57, 127
3, 107640, Note_on_c, 0, 57, 0
3, 108480, Note_on_c, 0, 57, 127
3, 108600, Note_on_c, 0, 57, 0
3, 108960, Note_on_c, 0, 60, 127
3, 109080, Note_on_c, 0, 60, 0
3, 109440, Note_on_c, 0, 62, 127
3, 109560, Note_on_c, 0, 62, 0
3, 109920, Note_on_c, 0, 55, 127
3, 110040, Note_on_c, 0, 55, 0
3, 110400, Note_on_c, 0, 60, 127
3, 110520, Note_on_c, 0, 60, 0
3, 110880, Note_on_c, 0, 65, 127
3, 111000, Note_on_c, 0, 65, 0
3, 111360, Note_on_c, 0, 67, 127
3, 111480, Note_on_c, 0, 67, 0
3, 112320, Note_on_c, 0, 55, 127
3, 112440, Note_on_c, 0, 55, 0
3, 112800, Note_on_c, 0, 62, 127
3, 112920, Note_on_c, 0, 62, 0
3, 113280, Note_on_c, 0, 65, 127
3, 113400, Note_on_c, 0, 65, 0
3, 113760, Note_on_c, 0, 57, 127
3, 113880, Note_on_c, 0, 57, 0
3, 114240, Note_on_c, 0, 64, 127
3, 114360, Note_on_c, 0, 64, 0
3, 114720, Note_on_c, 0, 67, 127
3, 114840, Note_on_c, 0, 67, 0
3, 115200, Note_on_c, 0, 69, 127
3, 115320, Note_on_c, 0, 69, 0
3, 116160, Note_on_c, 0, 62, 127
3, 116280, Note_on_c, 0, 62, 0
3, 116640, Note_on_c, 0, 67, 127
3, 116760, Note_on_c, 0, 67, 0
3, 117120, Note_on_c, 0, 69, 127
3, 117240, Note_on_c, 0, 69, 0
3, 118080, Note_on_c, 0, 67, 127
3, 118200, Note_on_c, 0, 67, 0
3, 118560, Note_on_c, 0, 62, 127
3, 118680, Note_on_c, 0, 62, 0
3, 119040, Note_on_c, 0, 57, 127
3, 119160, Note_on_c, 0, 57, 0
3, 120000, Note_on_c, 0, 55, 127
3, 120120, Note_on_c, 0, 55, 0
3, 120480, Note_on_c, 0, 62, 127
3, 120600, Note_on_c, 0, 62, 0
3, 120960, Note_on_c, 0, 64, 127
3, 121080, Note_on_c, 0, 64, 0
3, 121440, Note_on_c, 0, 65, 127
3, 121560, Note_on_c, 0, 65, 0
3, 123360, Control_c, 0, 10, 64
3, 123840, Note_on_c, 0, 57, 127
3, 123840, Note_on_c, 0, 53, 127
3, 123840, Note_on_c, 0, 50, 127
3, 123960, Note_on_c, 0, 50, 0
3, 123960, Note_on_c, 0, 53, 0
3, 123960, Note_on_c, 0, 57, 0
3, 124320, Note_on_c, 0, 62, 127
3, 124320, Note_on_c, 0, 57, 127
3, 124320, Note_on_c, 0, 53, 127
3, 124440, Note_on_c, 0, 53, 0
3, 124440, Note_on_c, 0, 57, 0
3, 124440, Note_on_c, 0, 62, 0
3, 124800, Note_on_c, 0, 65, 127
3, 124800, Note_on_c, 0, 62, 127
3, 124800, Note_on_c, 0, 57, 127
3, 124920, Note_on_c, 0, 57, 0
3, 124920, Note_on_c, 0, 62, 0
3, 124920, Note_on_c, 0, 65, 0
3, 125760, Note_on_c, 0, 58, 127
3, 125760, Note_on_c, 0, 53, 127
3, 125760, Note_on_c, 0, 50, 127
3, 125880, Note_on_c, 0, 50, 0
3, 125880, Note_on_c, 0, 53, 0
3, 125880, Note_on_c, 0, 58, 0
3, 126240, Note_on_c, 0, 58, 127
3, 126240, Note_on_c, 0, 62, 127
3, 126240, Note_on_c, 0, 53, 127
3, 126360, Note_on_c, 0, 53, 0
3, 126360, Note_on_c, 0, 62, 0
3, 126360, Note_on_c, 0, 58, 0
3, 126720, Note_on_c, 0, 65, 127
3, 126720, Note_on_c, 0, 62, 127
3, 126720, Note_on_c, 0, 58, 127
3, 126840, Note_on_c, 0, 58, 0
3, 126840, Note_on_c, 0, 62, 0
3, 126840, Note_on_c, 0, 65, 0
3, 127200, Control_c, 0, 10, 64
3, 127680, Note_on_c, 0, 57, 127
3, 127680, Note_on_c, 0, 53, 127
3, 127680, Note_on_c, 0, 50, 127
3, 127800, Note_on_c, 0, 50, 0
3, 127800, Note_on_c, 0, 53, 0
3, 127800, Note_on_c, 0, 57, 0
3, 128160, Note_on_c, 0, 62, 127
3, 128160, Note_on_c, 0, 57, 127
3, 128160, Note_on_c, 0, 53, 127
3, 128280, Note_on_c, 0, 53, 0
3, 128280, Note_on_c, 0, 57, 0
3, 128280, Note_on_c, 0, 62, 0
3, 128640, Note_on_c, 0, 65, 127
3, 128640, Note_on_c, 0, 62, 127
3, 128640, Note_on_c, 0, 57, 127
3, 128760, Note_on_c, 0, 57, 0
3, 128760, Note_on_c, 0, 62, 0
3, 128760, Note_on_c, 0, 65, 0
3, 129360, Control_c, 0, 11, 95
3, 129600, Control_c, 0, 11, 91
3, 129840, Control_c, 0, 11, 89
3, 130080, Control_c, 0, 11, 86
3, 130320, Control_c, 0, 11, 83
3, 130560, Control_c, 0, 11, 80
3, 130800, Control_c, 0, 11, 77
3, 131040, Control_c, 0, 11, 71
3, 131040, Control_c, 0, 10, 64
3, 131280, Control_c, 0, 11, 69
3, 131520, Control_c, 0, 11, 66
3, 131520, Note_on_c, 0, 57, 127
3, 131520, Note_on_c, 0, 53, 127
3, 131520, Note_on_c, 0, 50, 127
3, 131640, Note_on_c, 0, 50, 0
3, 131640, Note_on_c, 0, 53, 0
3, 131640, Note_on_c, 0, 57, 0
3, 131760, Control_c, 0, 11, 63
3, 132000, Control_c, 0, 11, 60
3, 132000, Note_on_c, 0, 62, 127
3, 132000, Note_on_c, 0, 57, 127
3, 132000, Note_on_c, 0, 53, 127
3, 132120, Note_on_c, 0, 53, 0
3, 132120, Note_on_c, 0, 57, 0
3, 132120, Note_on_c, 0, 62, 0
3, 132240, Control_c, 0, 11, 57
3, 132480, Control_c, 0, 11, 52
3, 132480, Note_on_c, 0, 65, 127
3, 132480, Note_on_c, 0, 62, 127
3, 132480, Note_on_c, 0, 57, 127
3, 132600, Note_on_c, 0, 57, 0
3, 132600, Note_on_c, 0, 62, 0
3, 132600, Note_on_c, 0, 65, 0
3, 132720, Control_c, 0, 11, 43
3, 132960, Control_c, 0, 11, 36
3, 133200, Control_c, 0, 11, 31
3, 133440, Control_c, 0, 11, 27
3, 133440, Note_on_c, 0, 58, 127
3, 133440, Note_on_c, 0, 53, 127
3, 133440, Note_on_c, 0, 50, 127
3, 133560, Note_on_c, 0, 50, 0
3, 133560, Note_on_c, 0, 53, 0
3, 133560, Note_on_c, 0, 58, 0
3, 133680, Control_c, 0, 11, 26
3, 133920, Control_c, 0, 11, 23
3, 133920, Note_on_c, 0, 58, 127
3, 133920, Note_on_c, 0, 62, 127
3, 133920, Note_on_c, 0, 53, 127
3, 134040, Note_on_c, 0, 53, 0
3, 134040, Note_on_c, 0, 62, 0
3, 134040, Note_on_c, 0, 58, 0
3, 134160, Control_c, 0, 11, 19
3, 134400, Control_c, 0, 11, 15
3, 134400, Note_on_c, 0, 65, 127
3, 134400, Note_on_c, 0, 62, 127
3, 134400, Note_on_c, 0, 58, 127
3, 134520, Note_on_c, 0, 58, 0
3, 134520, Note_on_c, 0, 62, 0
3, 134520, Note_on_c, 0, 65, 0
3, 134640, Control_c, 0, 11, 10
3, 134880, Control_c, 0, 11, 7
3, 134880, Control_c, 0, 10, 64
3, 135120, Control_c, 0, 11, 4
3, 135360, Control_c, 0, 11, 3
3, 135360, Note_on_c, 0, 57, 127
3, 135360, Note_on_c, 0, 53, 127
3, 135360, Note_on_c, 0, 50, 127
3, 135480, Note_on_c, 0, 50, 0
3, 135480, Note_on_c, 0, 53, 0
3, 135480, Note_on_c, 0, 57, 0
3, 135600, Control_c, 0, 11, 2
3, 135840, Note_on_c, 0, 62, 127
3, 135840, Note_on_c, 0, 57, 127
3, 135840, Note_on_c, 0, 53, 127
3, 135960, Note_on_c, 0, 53, 0
3, 135960, Note_on_c, 0, 57, 0
3, 135960, Note_on_c, 0, 62, 0
3, 136080, Control_c, 0, 11, 1
3, 136320, Control_c, 0, 11, 0
3, 136320, Note_on_c, 0, 65, 127
3, 136320, Note_on_c, 0, 62, 127
3, 136320, Note_on_c, 0, 57, 127
3, 136440, Note_on_c, 0, 57, 0
3, 136440, Note_on_c, 0, 62, 0
3, 136440, Note_on_c, 0, 65, 0
3, 136440, End_track
4, 0, Start_track
4, 0, Title_t, "CH #2"
4, 0, Instrument_name_t, "Overdrive Gt."
4, 240, Control_c, 1, 7, 100
4, 300, Control_c, 1, 10, 64
4, 360, Control_c, 1, 11, 100
4, 420, Program_c, 1, 29
4, 480, Text_t, "Start"
4, 480, Control_c, 1, 11, 100
4, 480, Control_c, 1, 10, 64
4, 480, Note_on_c, 1, 62, 127
4, 480, Note_on_c, 1, 50, 127
4, 2400, Note_on_c, 1, 50, 0
4, 2400, Note_on_c, 1, 62, 0
4, 2400, Note_on_c, 1, 58, 127
4, 2400, Note_on_c, 1, 46, 127
4, 4320, Note_on_c, 1, 46, 0
4, 4320, Note_on_c, 1, 58, 0
4, 4320, Note_on_c, 1, 62, 127
4, 4320, Note_on_c, 1, 50, 127
4, 6240, Note_on_c, 1, 50, 0
4, 6240, Note_on_c, 1, 62, 0
4, 8160, Control_c, 1, 10, 64
4, 8160, Note_on_c, 1, 62, 127
4, 8160, Note_on_c, 1, 50, 127
4, 10080, Note_on_c, 1, 50, 0
4, 10080, Note_on_c, 1, 62, 0
4, 10080, Note_on_c, 1, 58, 127
4, 10080, Note_on_c, 1, 46, 127
4, 12000, Note_on_c, 1, 46, 0
4, 12000, Note_on_c, 1, 58, 0
4, 12000, Note_on_c, 1, 62, 127
4, 12000, Note_on_c, 1, 50, 127
4, 13920, Note_on_c, 1, 50, 0
4, 13920, Note_on_c, 1, 62, 0
4, 15840, Control_c, 1, 10, 64
4, 15840, Note_on_c, 1, 62, 127
4, 15840, Note_on_c, 1, 50, 127
4, 17760, Note_on_c, 1, 50, 0
4, 17760, Note_on_c, 1, 62, 0
4, 17760, Note_on_c, 1, 58, 127
4, 17760, Note_on_c, 1, 46, 127
4, 19680, Note_on_c, 1, 46, 0
4, 19680, Note_on_c, 1, 58, 0
4, 19680, Note_on_c, 1, 62, 127
4, 19680, Note_on_c, 1, 50, 127
4, 21600, Note_on_c, 1, 50, 0
4, 21600, Note_on_c, 1, 62, 0
4, 23520, Control_c, 1, 10, 64
4, 23520, Note_on_c, 1, 62, 127
4, 23520, Note_on_c, 1, 50, 127
4, 25440, Note_on_c, 1, 50, 0
4, 25440, Note_on_c, 1, 62, 0
4, 25440, Note_on_c, 1, 58, 127
4, 25440, Note_on_c, 1, 46, 127
4, 27360, Note_on_c, 1, 46, 0
4, 27360, Note_on_c, 1, 58, 0
4, 27360, Note_on_c, 1, 62, 127
4, 27360, Note_on_c, 1, 50, 127
4, 29280, Note_on_c, 1, 50, 0
4, 29280, Note_on_c, 1, 62, 0
4, 31200, Control_c, 1, 10, 64
4, 31200, Note_on_c, 1, 62, 127
4, 31200, Note_on_c, 1, 50, 127
4, 33120, Note_on_c, 1, 50, 0
4, 33120, Note_on_c, 1, 62, 0
4, 33120, Note_on_c, 1, 58, 127
4, 33120, Note_on_c, 1, 46, 127
4, 35040, Note_on_c, 1, 46, 0
4, 35040, Note_on_c, 1, 58, 0
4, 35040, Note_on_c, 1, 62, 127
4, 35040, Note_on_c, 1, 50, 127
4, 36960, Note_on_c, 1, 50, 0
4, 36960, Note_on_c, 1, 62, 0
4, 38880, Control_c, 1, 10, 64
4, 38880, Note_on_c, 1, 62, 127
4, 38880, Note_on_c, 1, 50, 127
4, 40800, Note_on_c, 1, 50, 0
4, 40800, Note_on_c, 1, 62, 0
4, 40800, Note_on_c, 1, 58, 127
4, 40800, Note_on_c, 1, 46, 127
4, 42720, Note_on_c, 1, 46, 0
4, 42720, Note_on_c, 1, 58, 0
4, 42720, Note_on_c, 1, 62, 127
4, 42720, Note_on_c, 1, 50, 127
4, 44640, Note_on_c, 1, 50, 0
4, 44640, Note_on_c, 1, 62, 0
4, 46560, Control_c, 1, 10, 64
4, 46560, Note_on_c, 1, 62, 127
4, 46560, Note_on_c, 1, 50, 127
4, 48480, Note_on_c, 1, 50, 0
4, 48480, Note_on_c, 1, 62, 0
4, 48480, Note_on_c, 1, 58, 127
4, 48480, Note_on_c, 1, 46, 127
4, 50400, Note_on_c, 1, 46, 0
4, 50400, Note_on_c, 1, 58, 0
4, 50400, Note_on_c, 1, 62, 127
4, 50400, Note_on_c, 1, 50, 127
4, 52320, Note_on_c, 1, 50, 0
4, 52320, Note_on_c, 1, 62, 0
4, 54240, Control_c, 1, 10, 64
4, 54240, Note_on_c, 1, 62, 127
4, 54240, Note_on_c, 1, 50, 127
4, 56160, Note_on_c, 1, 50, 0
4, 56160, Note_on_c, 1, 62, 0
4, 56160, Note_on_c, 1, 58, 127
4, 56160, Note_on_c, 1, 46, 127
4, 58080, Note_on_c, 1, 46, 0
4, 58080, Note_on_c, 1, 58, 0
4, 58080, Note_on_c, 1, 62, 127
4, 58080, Note_on_c, 1, 50, 127
4, 60000, Note_on_c, 1, 50, 0
4, 60000, Note_on_c, 1, 62, 0
4, 61920, Control_c, 1, 10, 64
4, 61920, Note_on_c, 1, 62, 127
4, 61920, Note_on_c, 1, 50, 127
4, 63840, Note_on_c, 1, 50, 0
4, 63840, Note_on_c, 1, 62, 0
4, 63840, Note_on_c, 1, 58, 127
4, 63840, Note_on_c, 1, 46, 127
4, 65760, Note_on_c, 1, 46, 0
4, 65760, Note_on_c, 1, 58, 0
4, 65760, Note_on_c, 1, 62, 127
4, 65760, Note_on_c, 1, 50, 127
4, 67680, Note_on_c, 1, 50, 0
4, 67680, Note_on_c, 1, 62, 0
4, 69600, Control_c, 1, 10, 64
4, 69600, Note_on_c, 1, 62, 127
4, 69600, Note_on_c, 1, 50, 127
4, 71520, Note_on_c, 1, 50, 0
4, 71520, Note_on_c, 1, 62, 0
4, 71520, Note_on_c, 1, 58, 127
4, 71520, Note_on_c, 1, 46, 127
4, 73440, Note_on_c, 1, 46, 0
4, 73440, Note_on_c, 1, 58, 0
4, 73440, Note_on_c, 1, 62, 127
4, 73440, Note_on_c, 1, 50, 127
4, 75360, Note_on_c, 1, 50, 0
4, 75360, Note_on_c, 1, 62, 0
4, 77280, Control_c, 1, 10, 64
4, 77280, Note_on_c, 1, 62, 127
4, 77280, Note_on_c, 1, 50, 127
4, 79200, Note_on_c, 1, 50, 0
4, 79200, Note_on_c, 1, 62, 0
4, 79200, Note_on_c, 1, 58, 127
4, 79200, Note_on_c, 1, 46, 127
4, 81120, Note_on_c, 1, 46, 0
4, 81120, Note_on_c, 1, 58, 0
4, 81120, Note_on_c, 1, 62, 127
4, 81120, Note_on_c, 1, 50, 127
4, 83040, Note_on_c, 1, 50, 0
4, 83040, Note_on_c, 1, 62, 0
4, 84960, Control_c, 1, 10, 64
4, 84960, Note_on_c, 1, 62, 127
4, 84960, Note_on_c, 1, 50, 127
4, 86880, Note_on_c, 1, 50, 0
4, 86880, Note_on_c, 1, 62, 0
4, 86880, Note_on_c, 1, 58, 127
4, 86880, Note_on_c, 1, 46, 127
4, 88800, Note_on_c, 1, 46, 0
4, 88800, Note_on_c, 1, 58, 0
4, 88800, Note_on_c, 1, 62, 127
4, 88800, Note_on_c, 1, 50, 127
4, 90720, Note_on_c, 1, 50, 0
4, 90720, Note_on_c, 1, 62, 0
4, 123360, Control_c, 1, 10, 64
4, 123360, Note_on_c, 1, 62, 127
4, 123360, Note_on_c, 1, 50, 127
4, 125280, Note_on_c, 1, 50, 0
4, 125280, Note_on_c, 1, 62, 0
4, 125280, Note_on_c, 1, 58, 127
4, 125280, Note_on_c, 1, 46, 127
4, 127200, Note_on_c, 1, 46, 0
4, 127200, Note_on_c, 1, 58, 0
4, 127200, Note_on_c, 1, 62, 127
4, 127200, Note_on_c, 1, 50, 127
4, 129120, Note_on_c, 1, 50, 0
4, 129120, Note_on_c, 1, 62, 0
4, 129360, Control_c, 1, 11, 95
4, 129600, Control_c, 1, 11, 91
4, 129840, Control_c, 1, 11, 89
4, 130080, Control_c, 1, 11, 86
4, 130320, Control_c, 1, 11, 83
4, 130560, Control_c, 1, 11, 80
4, 130800, Control_c, 1, 11, 77
4, 131040, Control_c, 1, 11, 71
4, 131040, Control_c, 1, 10, 64
4, 131040, Note_on_c, 1, 62, 127
4, 131040, Note_on_c, 1, 50, 127
4, 131280, Control_c, 1, 11, 69
4, 131520, Control_c, 1, 11, 66
4, 131760, Control_c, 1, 11, 63
4, 132000, Control_c, 1, 11, 60
4, 132240, Control_c, 1, 11, 57
4, 132480, Control_c, 1, 11, 52
4, 132720, Control_c, 1, 11, 43
4, 132960, Note_on_c, 1, 50, 0
4, 132960, Note_on_c, 1, 62, 0
4, 132960, Control_c, 1, 11, 36
4, 132960, Note_on_c, 1, 58, 127
4, 132960, Note_on_c, 1, 46, 127
4, 133200, Control_c, 1, 11, 31
4, 133440, Control_c, 1, 11, 27
4, 133680, Control_c, 1, 11, 26
4, 133920, Control_c, 1, 11, 23
4, 134160, Control_c, 1, 11, 19
4, 134400, Control_c, 1, 11, 15
4, 134640, Control_c, 1, 11, 10
4, 134880, Note_on_c, 1, 46, 0
4, 134880, Note_on_c, 1, 58, 0
4, 134880, Control_c, 1, 11, 7
4, 134880, Note_on_c, 1, 62, 127
4, 134880, Note_on_c, 1, 50, 127
4, 135120, Control_c, 1, 11, 4
4, 135360, Control_c, 1, 11, 3
4, 135600, Control_c, 1, 11, 2
4, 136080, Control_c, 1, 11, 1
4, 136320, Control_c, 1, 11, 0
4, 136800, Note_on_c, 1, 50, 0
4, 136800, Note_on_c, 1, 62, 0
4, 136800, End_track
5, 0, Start_track
5, 0, Title_t, "CH #3"
5, 0, Instrument_name_t, "Vibraphone"
5, 240, Control_c, 2, 7, 100
5, 300, Control_c, 2, 10, 64
5, 360, Control_c, 2, 11, 100
5, 420, Program_c, 2, 11
5, 480, Text_t, "Start"
5, 480, Control_c, 2, 11, 100
5, 480, Control_c, 2, 10, 64
5, 15840, Note_on_c, 2, 69, 127
5, 15840, Note_on_c, 2, 57, 127
5, 16800, Note_on_c, 2, 57, 0
5, 16800, Note_on_c, 2, 69, 0
5, 16800, Note_on_c, 2, 74, 127
5, 16800, Note_on_c, 2, 62, 127
5, 17760, Note_on_c, 2, 62, 0
5, 17760, Note_on_c, 2, 74, 0
5, 17760, Note_on_c, 2, 70, 127
5, 17760, Note_on_c, 2, 58, 127
5, 19680, Note_on_c, 2, 58, 0
5, 19680, Note_on_c, 2, 70, 0
5, 23520, Note_on_c, 2, 69, 127
5, 23520, Note_on_c, 2, 57, 127
5, 24480, Note_on_c, 2, 57, 0
5, 24480, Note_on_c, 2, 69, 0
5, 24480, Note_on_c, 2, 74, 127
5, 24480, Note_on_c, 2, 62, 127
5, 25440, Note_on_c, 2, 62, 0
5, 25440, Note_on_c, 2, 74, 0
5, 25440, Note_on_c, 2, 70, 127
5, 25440, Note_on_c, 2, 58, 127
5, 27360, Note_on_c, 2, 58, 0
5, 27360, Note_on_c, 2, 70, 0
5, 129360, Control_c, 2, 11, 95
5, 129600, Control_c, 2, 11, 91
5, 129840, Control_c, 2, 11, 89
5, 130080, Control_c, 2, 11, 86
5, 130320, Control_c, 2, 11, 83
5, 130560, Control_c, 2, 11, 80
5, 130800, Control_c, 2, 11, 77
5, 131040, Control_c, 2, 11, 71
5, 131280, Control_c, 2, 11, 69
5, 131520, Control_c, 2, 11, 66
5, 131760, Control_c, 2, 11, 63
5, 132000, Control_c, 2, 11, 60
5, 132240, Control_c, 2, 11, 57
5, 132480, Control_c, 2, 11, 52
5, 132720, Control_c, 2, 11, 43
5, 132960, Control_c, 2, 11, 36
5, 133200, Control_c, 2, 11, 31
5, 133440, Control_c, 2, 11, 27
5, 133680, Control_c, 2, 11, 26
5, 133920, Control_c, 2, 11, 23
5, 134160, Control_c, 2, 11, 19
5, 134400, Control_c, 2, 11, 15
5, 134640, Control_c, 2, 11, 10
5, 134880, Control_c, 2, 11, 7
5, 135120, Control_c, 2, 11, 4
5, 135360, Control_c, 2, 11, 3
5, 135600, Control_c, 2, 11, 2
5, 136080, Control_c, 2, 11, 1
5, 136320, Control_c, 2, 11, 0
5, 136320, End_track
6, 0, Start_track
6, 0, Title_t, "CH #4"
6, 0, Instrument_name_t, "Harmonica"
6, 240, Control_c, 3, 7, 100
6, 300, Control_c, 3, 10, 64
6, 360, Control_c, 3, 11, 100
6, 420, Program_c, 3, 22
6, 480, Text_t, "Start"
6, 480, Control_c, 3, 11, 100
6, 480, Control_c, 3, 10, 64
6, 31200, Note_on_c, 3, 69, 127
6, 32160, Note_on_c, 3, 69, 0
6, 32160, Note_on_c, 3, 64, 127
6, 32640, Note_on_c, 3, 64, 0
6, 32640, Note_on_c, 3, 65, 127
6, 33120, Note_on_c, 3, 65, 0
6, 33120, Note_on_c, 3, 67, 127
6, 34080, Note_on_c, 3, 67, 0
6, 34080, Note_on_c, 3, 70, 127
6, 35040, Note_on_c, 3, 70, 0
6, 35040, Note_on_c, 3, 69, 127
6, 36000, Note_on_c, 3, 69, 0
6, 36000, Note_on_c, 3, 62, 127
6, 36960, Note_on_c, 3, 62, 0
6, 36960, Note_on_c, 3, 64, 127
6, 38400, Note_on_c, 3, 64, 0
6, 38400, Note_on_c, 3, 65, 127
6, 38880, Note_on_c, 3, 65, 0
6, 38880, Note_on_c, 3, 69, 127
6, 39840, Note_on_c, 3, 69, 0
6, 39840, Note_on_c, 3, 64, 127
6, 40320, Note_on_c, 3, 64, 0
6, 40320, Note_on_c, 3, 65, 127
6, 40800, Note_on_c, 3, 65, 0
6, 40800, Note_on_c, 3, 67, 127
6, 41760, Note_on_c, 3, 67, 0
6, 41760, Note_on_c, 3, 70, 127
6, 42720, Note_on_c, 3, 70, 0
6, 42720, Note_on_c, 3, 69, 127
6, 43680, Note_on_c, 3, 69, 0
6, 43680, Note_on_c, 3, 74, 127
6, 44640, Note_on_c, 3, 74, 0
6, 44640, Note_on_c, 3, 70, 127
6, 46080, Note_on_c, 3, 70, 0
6, 46080, Note_on_c, 3, 67, 127
6, 46560, Note_on_c, 3, 67, 0
6, 46560, Note_on_c, 3, 69, 127
6, 48480, Note_on_c, 3, 69, 0
6, 61920, Note_on_c, 3, 69, 127
6, 62880, Note_on_c, 3, 69, 0
6, 62880, Note_on_c, 3, 64, 127
6, 63360, Note_on_c, 3, 64, 0
6, 63360, Note_on_c, 3, 65, 127
6, 63840, Note_on_c, 3, 65, 0
6, 63840, Note_on_c, 3, 67, 127
6, 64800, Note_on_c, 3, 67, 0
6, 64800, Note_on_c, 3, 70, 127
6, 65760, Note_on_c, 3, 70, 0
6, 65760, Note_on_c, 3, 69, 127
6, 66720, Note_on_c, 3, 69, 0
6, 66720, Note_on_c, 3, 62, 127
6, 67680, Note_on_c, 3, 62, 0
6, 67680, Note_on_c, 3, 64, 127
6, 69120, Note_on_c, 3, 64, 0
6, 69120, Note_on_c, 3, 65, 127
6, 69600, Note_on_c, 3, 65, 0
6, 69600, Note_on_c, 3, 69, 127
6, 70560, Note_on_c, 3, 69, 0
6, 70560, Note_on_c, 3, 64, 127
6, 71040, Note_on_c, 3, 64, 0
6, 71040, Note_on_c, 3, 65, 127
6, 71520, Note_on_c, 3, 65, 0
6, 71520, Note_on_c, 3, 67, 127
6, 72480, Note_on_c, 3, 67, 0
6, 72480, Note_on_c, 3, 70, 127
6, 73440, Note_on_c, 3, 70, 0
6, 73440, Note_on_c, 3, 69, 127
6, 74400, Note_on_c, 3, 69, 0
6, 74400, Note_on_c, 3, 74, 127
6, 75360, Note_on_c, 3, 74, 0
6, 75360, Note_on_c, 3, 70, 127
6, 76800, Note_on_c, 3, 70, 0
6, 76800, Note_on_c, 3, 69, 127
6, 77280, Note_on_c, 3, 69, 0
6, 77280, Note_on_c, 3, 69, 127
6, 79200, Note_on_c, 3, 69, 0
6, 129360, Control_c, 3, 11, 95
6, 129600, Control_c, 3, 11, 91
6, 129840, Control_c, 3, 11, 89
6, 130080, Control_c, 3, 11, 86
6, 130320, Control_c, 3, 11, 83
6, 130560, Control_c, 3, 11, 80
6, 130800, Control_c, 3, 11, 77
6, 131040, Control_c, 3, 11, 71
6, 131280, Control_c, 3, 11, 69
6, 131520, Control_c, 3, 11, 66
6, 131760, Control_c, 3, 11, 63
6, 132000, Control_c, 3, 11, 60
6, 132240, Control_c, 3, 11, 57
6, 132480, Control_c, 3, 11, 52
6, 132720, Control_c, 3, 11, 43
6, 132960, Control_c, 3, 11, 36
6, 133200, Control_c, 3, 11, 31
6, 133440, Control_c, 3, 11, 27
6, 133680, Control_c, 3, 11, 26
6, 133920, Control_c, 3, 11, 23
6, 134160, Control_c, 3, 11, 19
6, 134400, Control_c, 3, 11, 15
6, 134640, Control_c, 3, 11, 10
6, 134880, Control_c, 3, 11, 7
6, 135120, Control_c, 3, 11, 4
6, 135360, Control_c, 3, 11, 3
6, 135600, Control_c, 3, 11, 2
6, 136080, Control_c, 3, 11, 1
6, 136320, Control_c, 3, 11, 0
6, 136320, End_track
7, 0, Start_track
7, 0, Title_t, "CH #5"
7, 0, Instrument_name_t, "Oboe"
7, 240, Control_c, 4, 7, 100
7, 300, Control_c, 4, 10, 64
7, 360, Control_c, 4, 11, 100
7, 420, Program_c, 4, 68
7, 480, Text_t, "Start"
7, 480, Control_c, 4, 11, 100
7, 480, Control_c, 4, 10, 64
7, 31200, Note_on_c, 4, 69, 127
7, 32160, Note_on_c, 4, 69, 0
7, 32160, Note_on_c, 4, 64, 127
7, 32640, Note_on_c, 4, 64, 0
7, 32640, Note_on_c, 4, 65, 127
7, 33120, Note_on_c, 4, 65, 0
7, 33120, Note_on_c, 4, 67, 127
7, 34080, Note_on_c, 4, 67, 0
7, 34080, Note_on_c, 4, 70, 127
7, 35040, Note_on_c, 4, 70, 0
7, 35040, Note_on_c, 4, 69, 127
7, 36000, Note_on_c, 4, 69, 0
7, 36000, Note_on_c, 4, 62, 127
7, 36960, Note_on_c, 4, 62, 0
7, 36960, Note_on_c, 4, 64, 127
7, 38400, Note_on_c, 4, 64, 0
7, 38400, Note_on_c, 4, 65, 127
7, 38880, Note_on_c, 4, 65, 0
7, 38880, Note_on_c, 4, 69, 127
7, 39840, Note_on_c, 4, 69, 0
7, 39840, Note_on_c, 4, 64, 127
7, 40320, Note_on_c, 4, 64, 0
7, 40320, Note_on_c, 4, 65, 127
7, 40800, Note_on_c, 4, 65, 0
7, 40800, Note_on_c, 4, 67, 127
7, 41760, Note_on_c, 4, 67, 0
7, 41760, Note_on_c, 4, 70, 127
7, 42720, Note_on_c, 4, 70, 0
7, 42720, Note_on_c, 4, 69, 127
7, 43680, Note_on_c, 4, 69, 0
7, 43680, Note_on_c, 4, 74, 127
7, 44640, Note_on_c, 4, 74, 0
7, 44640, Note_on_c, 4, 70, 127
7, 46080, Note_on_c, 4, 70, 0
7, 46080, Note_on_c, 4, 67, 127
7, 46560, Note_on_c, 4, 67, 0
7, 46560, Note_on_c, 4, 69, 127
7, 48480, Note_on_c, 4, 69, 0
7, 61920, Note_on_c, 4, 69, 127
7, 62880, Note_on_c, 4, 69, 0
7, 62880, Note_on_c, 4, 64, 127
7, 63360, Note_on_c, 4, 64, 0
7, 63360, Note_on_c, 4, 65, 127
7, 63840, Note_on_c, 4, 65, 0
7, 63840, Note_on_c, 4, 67, 127
7, 64800, Note_on_c, 4, 67, 0
7, 64800, Note_on_c, 4, 70, 127
7, 65760, Note_on_c, 4, 70, 0
7, 65760, Note_on_c, 4, 69, 127
7, 66720, Note_on_c, 4, 69, 0
7, 66720, Note_on_c, 4, 62, 127
7, 67680, Note_on_c, 4, 62, 0
7, 67680, Note_on_c, 4, 64, 127
7, 69120, Note_on_c, 4, 64, 0
7, 69120, Note_on_c, 4, 65, 127
7, 69600, Note_on_c, 4, 65, 0
7, 69600, Note_on_c, 4, 69, 127
7, 70560, Note_on_c, 4, 69, 0
7, 70560, Note_on_c, 4, 64, 127
7, 71040, Note_on_c, 4, 64, 0
7, 71040, Note_on_c, 4, 65, 127
7, 71520, Note_on_c, 4, 65, 0
7, 71520, Note_on_c, 4, 67, 127
7, 72480, Note_on_c, 4, 67, 0
7, 72480, Note_on_c, 4, 70, 127
7, 73440, Note_on_c, 4, 70, 0
7, 73440, Note_on_c, 4, 69, 127
7, 74400, Note_on_c, 4, 69, 0
7, 74400, Note_on_c, 4, 74, 127
7, 75360, Note_on_c, 4, 74, 0
7, 75360, Note_on_c, 4, 70, 127
7, 76800, Note_on_c, 4, 70, 0
7, 76800, Note_on_c, 4, 69, 127
7, 77280, Note_on_c, 4, 69, 0
7, 77280, Note_on_c, 4, 69, 127
7, 79200, Note_on_c, 4, 69, 0
7, 129360, Control_c, 4, 11, 95
7, 129600, Control_c, 4, 11, 91
7, 129840, Control_c, 4, 11, 89
7, 130080, Control_c, 4, 11, 86
7, 130320, Control_c, 4, 11, 83
7, 130560, Control_c, 4, 11, 80
7, 130800, Control_c, 4, 11, 77
7, 131040, Control_c, 4, 11, 71
7, 131280, Control_c, 4, 11, 69
7, 131520, Control_c, 4, 11, 66
7, 131760, Control_c, 4, 11, 63
7, 132000, Control_c, 4, 11, 60
7, 132240, Control_c, 4, 11, 57
7, 132480, Control_c, 4, 11, 52
7, 132720, Control_c, 4, 11, 43
7, 132960, Control_c, 4, 11, 36
7, 133200, Control_c, 4, 11, 31
7, 133440, Control_c, 4, 11, 27
7, 133680, Control_c, 4, 11, 26
7, 133920, Control_c, 4, 11, 23
7, 134160, Control_c, 4, 11, 19
7, 134400, Control_c, 4, 11, 15
7, 134640, Control_c, 4, 11, 10
7, 134880, Control_c, 4, 11, 7
7, 135120, Control_c, 4, 11, 4
7, 135360, Control_c, 4, 11, 3
7, 135600, Control_c, 4, 11, 2
7, 136080, Control_c, 4, 11, 1
7, 136320, Control_c, 4, 11, 0
7, 136320, End_track
8, 0, Start_track
8, 0, Title_t, "CH #6"
8, 0, Instrument_name_t, "Slow Str."
8, 240, Control_c, 5, 7, 100
8, 300, Control_c, 5, 10, 64
8, 360, Control_c, 5, 11, 100
8, 420, Program_c, 5, 49
8, 480, Text_t, "Start"
8, 480, Control_c, 5, 11, 100
8, 480, Control_c, 5, 10, 64
8, 46560, Note_on_c, 5, 69, 127
8, 46560, Note_on_c, 5, 57, 127
8, 47520, Note_on_c, 5, 57, 0
8, 47520, Note_on_c, 5, 69, 0
8, 47520, Note_on_c, 5, 77, 127
8, 47520, Note_on_c, 5, 65, 127
8, 48480, Note_on_c, 5, 65, 0
8, 48480, Note_on_c, 5, 77, 0
8, 48480, Note_on_c, 5, 74, 127
8, 48480, Note_on_c, 5, 62, 127
8, 52320, Note_on_c, 5, 62, 0
8, 52320, Note_on_c, 5, 74, 0
8, 54240, Note_on_c, 5, 69, 127
8, 54240, Note_on_c, 5, 57, 127
8, 55200, Note_on_c, 5, 57, 0
8, 55200, Note_on_c, 5, 69, 0
8, 55200, Note_on_c, 5, 77, 127
8, 55200, Note_on_c, 5, 65, 127
8, 56160, Note_on_c, 5, 65, 0
8, 56160, Note_on_c, 5, 77, 0
8, 56160, Note_on_c, 5, 74, 127
8, 56160, Note_on_c, 5, 62, 127
8, 61920, Note_on_c, 5, 62, 0
8, 61920, Note_on_c, 5, 74, 0
8, 77280, Note_on_c, 5, 57, 127
8, 77280, Note_on_c, 5, 45, 127
8, 78240, Note_on_c, 5, 45, 0
8, 78240, Note_on_c, 5, 57, 0
8, 78240, Note_on_c, 5, 65, 127
8, 78240, Note_on_c, 5, 53, 127
8, 79200, Note_on_c, 5, 53, 0
8, 79200, Note_on_c, 5, 65, 0
8, 79200, Note_on_c, 5, 62, 127
8, 79200, Note_on_c, 5, 50, 127
8, 83040, Note_on_c, 5, 50, 0
8, 83040, Note_on_c, 5, 62, 0
8, 84960, Note_on_c, 5, 57, 127
8, 84960, Note_on_c, 5, 45, 127
8, 85920, Note_on_c, 5, 45, 0
8, 85920, Note_on_c, 5, 57, 0
8, 85920, Note_on_c, 5, 65, 127
8, 85920, Note_on_c, 5, 53, 127
8, 86880, Note_on_c, 5, 53, 0
8, 86880, Note_on_c, 5, 65, 0
8, 86880, Note_on_c, 5, 62, 127
8, 86880, Note_on_c, 5, 50, 127
8, 92640, Note_on_c, 5, 50, 0
8, 92640, Note_on_c, 5, 62, 0
8, 129360, Control_c, 5, 11, 95
8, 129600, Control_c, 5, 11, 91
8, 129840, Control_c, 5, 11, 89
8, 130080, Control_c, 5, 11, 86
8, 130320, Control_c, 5, 11, 83
8, 130560, Control_c, 5, 11, 80
8, 130800, Control_c, 5, 11, 77
8, 131040, Control_c, 5, 11, 71
8, 131280, Control_c, 5, 11, 69
8, 131520, Control_c, 5, 11, 66
8, 131760, Control_c, 5, 11, 63
8, 132000, Control_c, 5, 11, 60
8, 132240, Control_c, 5, 11, 57
8, 132480, Control_c, 5, 11, 52
8, 132720, Control_c, 5, 11, 43
8, 132960, Control_c, 5, 11, 36
8, 133200, Control_c, 5, 11, 31
8, 133440, Control_c, 5, 11, 27
8, 133680, Control_c, 5, 11, 26
8, 133920, Control_c, 5, 11, 23
8, 134160, Control_c, 5, 11, 19
8, 134400, Control_c, 5, 11, 15
8, 134640, Control_c, 5, 11, 10
8, 134880, Control_c, 5, 11, 7
8, 135120, Control_c, 5, 11, 4
8, 135360, Control_c, 5, 11, 3
8, 135600, Control_c, 5, 11, 2
8, 136080, Control_c, 5, 11, 1
8, 136320, Control_c, 5, 11, 0
8, 136320, End_track
9, 0, Start_track
9, 0, Title_t, "CH #7"
9, 0, Instrument_name_t, "Reed Organ"
9, 240, Control_c, 6, 7, 100
9, 300, Control_c, 6, 10, 64
9, 360, Control_c, 6, 11, 100
9, 420, Program_c, 6, 20
9, 480, Text_t, "Start"
9, 480, Control_c, 6, 11, 100
9, 480, Control_c, 6, 10, 64
9, 92640, Note_on_c, 6, 64, 127
9, 94080, Note_on_c, 6, 64, 0
9, 94080, Note_on_c, 6, 65, 127
9, 94560, Note_on_c, 6, 65, 0
9, 94560, Note_on_c, 6, 67, 127
9, 96000, Note_on_c, 6, 67, 0
9, 96000, Note_on_c, 6, 65, 127
9, 96480, Note_on_c, 6, 65, 0
9, 96480, Note_on_c, 6, 64, 127
9, 97440, Note_on_c, 6, 64, 0
9, 97440, Note_on_c, 6, 65, 127
9, 98400, Note_on_c, 6, 65, 0
9, 98400, Note_on_c, 6, 64, 127
9, 98880, Note_on_c, 6, 64, 0
9, 98880, Note_on_c, 6, 62, 127
9, 99360, Note_on_c, 6, 62, 0
9, 99360, Note_on_c, 6, 58, 127
9, 100320, Note_on_c, 6, 58, 0
9, 100320, Note_on_c, 6, 57, 127
9, 104160, Note_on_c, 6, 57, 0
9, 104160, Note_on_c, 6, 58, 127
9, 108000, Note_on_c, 6, 58, 0
9, 108000, Note_on_c, 6, 64, 127
9, 109440, Note_on_c, 6, 64, 0
9, 109440, Note_on_c, 6, 65, 127
9, 109920, Note_on_c, 6, 65, 0
9, 109920, Note_on_c, 6, 67, 127
9, 111360, Note_on_c, 6, 67, 0
9, 111360, Note_on_c, 6, 65, 127
9, 111840, Note_on_c, 6, 65, 0
9, 111840, Note_on_c, 6, 64, 127
9, 113280, Note_on_c, 6, 64, 0
9, 113280, Note_on_c, 6, 62, 127
9, 113760, Note_on_c, 6, 62, 0
9, 113760, Note_on_c, 6, 64, 127
9, 114240, Note_on_c, 6, 64, 0
9, 114240, Note_on_c, 6, 65, 127
9, 114720, Note_on_c, 6, 65, 0
9, 114720, Note_on_c, 6, 67, 127
9, 115200, Note_on_c, 6, 67, 0
9, 115200, Note_on_c, 6, 69, 127
9, 115680, Note_on_c, 6, 69, 0
9, 115680, Note_on_c, 6, 70, 127
9, 119040, Note_on_c, 6, 70, 0
9, 129360, Control_c, 6, 11, 95
9, 129600, Control_c, 6, 11, 91
9, 129840, Control_c, 6, 11, 89
9, 130080, Control_c, 6, 11, 86
9, 130320, Control_c, 6, 11, 83
9, 130560, Control_c, 6, 11, 80
9, 130800, Control_c, 6, 11, 77
9, 131040, Control_c, 6, 11, 71
9, 131280, Control_c, 6, 11, 69
9, 131520, Control_c, 6, 11, 66
9, 131760, Control_c, 6, 11, 63
9, 132000, Control_c, 6, 11, 60
9, 132240, Control_c, 6, 11, 57
9, 132480, Control_c, 6, 11, 52
9, 132720, Control_c, 6, 11, 43
9, 132960, Control_c, 6, 11, 36
9, 133200, Control_c, 6, 11, 31
9, 133440, Control_c, 6, 11, 27
9, 133680, Control_c, 6, 11, 26
9, 133920, Control_c, 6, 11, 23
9, 134160, Control_c, 6, 11, 19
9, 134400, Control_c, 6, 11, 15
9, 134640, Control_c, 6, 11, 10
9, 134880, Control_c, 6, 11, 7
9, 135120, Control_c, 6, 11, 4
9, 135360, Control_c, 6, 11, 3
9, 135600, Control_c, 6, 11, 2
9, 136080, Control_c, 6, 11, 1
9, 136320, Control_c, 6, 11, 0
9, 136320, End_track
10, 0, Start_track
10, 0, Title_t, "CH #8"
10, 0, Instrument_name_t, "Brass"
10, 240, Control_c, 7, 7, 48
10, 300, Control_c, 7, 10, 64
10, 360, Control_c, 7, 11, 100
10, 420, Program_c, 7, 61
10, 480, Text_t, "Start"
10, 480, Control_c, 7, 11, 100
10, 480, Control_c, 7, 10, 64
10, 92640, Note_on_c, 7, 60, 127
10, 92640, Note_on_c, 7, 48, 127
10, 92640, Note_on_c, 7, 55, 127
10, 96480, Note_on_c, 7, 55, 0
10, 96480, Note_on_c, 7, 48, 0
10, 96480, Note_on_c, 7, 60, 0
10, 96480, Note_on_c, 7, 60, 127
10, 96480, Note_on_c, 7, 55, 127
10, 96480, Note_on_c, 7, 48, 127
10, 100320, Note_on_c, 7, 48, 0
10, 100320, Note_on_c, 7, 55, 0
10, 100320, Note_on_c, 7, 60, 0
10, 100320, Note_on_c, 7, 57, 127
10, 100320, Note_on_c, 7, 45, 127
10, 100320, Note_on_c, 7, 50, 127
10, 104160, Note_on_c, 7, 50, 0
10, 104160, Note_on_c, 7, 45, 0
10, 104160, Note_on_c, 7, 57, 0
10, 104160, Note_on_c, 7, 58, 127
10, 104160, Note_on_c, 7, 46, 127
10, 104160, Note_on_c, 7, 50, 127
10, 108000, Note_on_c, 7, 50, 0
10, 108000, Note_on_c, 7, 46, 0
10, 108000, Note_on_c, 7, 58, 0
10, 108000, Note_on_c, 7, 60, 127
10, 108000, Note_on_c, 7, 55, 127
10, 108000, Note_on_c, 7, 48, 127
10, 111840, Note_on_c, 7, 48, 0
10, 111840, Note_on_c, 7, 55, 0
10, 111840, Note_on_c, 7, 60, 0
10, 111840, Note_on_c, 7, 60, 127
10, 111840, Note_on_c, 7, 55, 127
10, 111840, Note_on_c, 7, 48, 127
10, 115680, Note_on_c, 7, 48, 0
10, 115680, Note_on_c, 7, 55, 0
10, 115680, Note_on_c, 7, 60, 0
10, 115680, Note_on_c, 7, 58, 127
10, 115680, Note_on_c, 7, 46, 127
10, 115680, Note_on_c, 7, 50, 127
10, 119520, Note_on_c, 7, 50, 0
10, 119520, Note_on_c, 7, 46, 0
10, 119520, Note_on_c, 7, 58, 0
10, 119520, Note_on_c, 7, 58, 127
10, 119520, Note_on_c, 7, 46, 127
10, 119520, Note_on_c, 7, 50, 127
10, 123360, Note_on_c, 7, 50, 0
10, 123360, Note_on_c, 7, 46, 0
10, 123360, Note_on_c, 7, 58, 0
10, 129360, Control_c, 7, 11, 95
10, 129600, Control_c, 7, 11, 91
10, 129840, Control_c, 7, 11, 89
10, 130080, Control_c, 7, 11, 86
10, 130320, Control_c, 7, 11, 83
10, 130560, Control_c, 7, 11, 80
10, 130800, Control_c, 7, 11, 77
10, 131040, Control_c, 7, 11, 71
10, 131280, Control_c, 7, 11, 69
10, 131520, Control_c, 7, 11, 66
10, 131760, Control_c, 7, 11, 63
10, 132000, Control_c, 7, 11, 60
10, 132240, Control_c, 7, 11, 57
10, 132480, Control_c, 7, 11, 52
10, 132720, Control_c, 7, 11, 43
10, 132960, Control_c, 7, 11, 36
10, 133200, Control_c, 7, 11, 31
10, 133440, Control_c, 7, 11, 27
10, 133680, Control_c, 7, 11, 26
10, 133920, Control_c, 7, 11, 23
10, 134160, Control_c, 7, 11, 19
10, 134400, Control_c, 7, 11, 15
10, 134640, Control_c, 7, 11, 10
10, 134880, Control_c, 7, 11, 7
10, 135120, Control_c, 7, 11, 4
10, 135360, Control_c, 7, 11, 3
10, 135600, Control_c, 7, 11, 2
10, 136080, Control_c, 7, 11, 1
10, 136320, Control_c, 7, 11, 0
10, 136320, End_track
11, 0, Start_track
11, 0, Title_t, "CH #9"
11, 0, Instrument_name_t, "Timpani"
11, 240, Control_c, 8, 7, 100
11, 300, Control_c, 8, 10, 64
11, 360, Control_c, 8, 11, 100
11, 420, Program_c, 8, 47
11, 480, Text_t, "Start"
11, 480, Control_c, 8, 11, 100
11, 480, Control_c, 8, 10, 64
11, 95040, Note_on_c, 8, 52, 127
11, 95160, Note_on_c, 8, 52, 0
11, 95520, Note_on_c, 8, 46, 127
11, 95640, Note_on_c, 8, 46, 0
11, 98880, Note_on_c, 8, 52, 127
11, 99000, Note_on_c, 8, 52, 0
11, 99360, Note_on_c, 8, 46, 127
11, 99480, Note_on_c, 8, 46, 0
11, 99840, Note_on_c, 8, 46, 127
11, 99960, Note_on_c, 8, 46, 0
11, 110400, Note_on_c, 8, 52, 127
11, 110520, Note_on_c, 8, 52, 0
11, 110880, Note_on_c, 8, 46, 127
11, 111000, Note_on_c, 8, 46, 0
11, 114240, Note_on_c, 8, 52, 127
11, 114360, Note_on_c, 8, 52, 0
11, 114720, Note_on_c, 8, 46, 127
11, 114840, Note_on_c, 8, 46, 0
11, 115200, Note_on_c, 8, 46, 127
11, 115320, Note_on_c, 8, 46, 0
11, 121920, Note_on_c, 8, 45, 127
11, 122040, Note_on_c, 8, 45, 0
11, 122400, Note_on_c, 8, 45, 127
11, 122520, Note_on_c, 8, 45, 0
11, 129360, Control_c, 8, 11, 95
11, 129600, Control_c, 8, 11, 91
11, 129840, Control_c, 8, 11, 89
11, 130080, Control_c, 8, 11, 86
11, 130320, Control_c, 8, 11, 83
11, 130560, Control_c, 8, 11, 80
11, 130800, Control_c, 8, 11, 77
11, 131040, Control_c, 8, 11, 71
11, 131280, Control_c, 8, 11, 69
11, 131520, Control_c, 8, 11, 66
11, 131760, Control_c, 8, 11, 63
11, 132000, Control_c, 8, 11, 60
11, 132240, Control_c, 8, 11, 57
11, 132480, Control_c, 8, 11, 52
11, 132720, Control_c, 8, 11, 43
11, 132960, Control_c, 8, 11, 36
11, 133200, Control_c, 8, 11, 31
11, 133440, Control_c, 8, 11, 27
11, 133680, Control_c, 8, 11, 26
11, 133920, Control_c, 8, 11, 23
11, 134160, Control_c, 8, 11, 19
11, 134400, Control_c, 8, 11, 15
11, 134640, Control_c, 8, 11, 10
11, 134880, Control_c, 8, 11, 7
11, 135120, Control_c, 8, 11, 4
11, 135360, Control_c, 8, 11, 3
11, 135600, Control_c, 8, 11, 2
11, 136080, Control_c, 8, 11, 1
11, 136320, Control_c, 8, 11, 0
11, 136320, End_track
12, 0, Start_track
12, 0, Title_t, "CH #10"
12, 0, Instrument_name_t, "Piano1"
12, 240, Control_c, 9, 7, 100
12, 300, Control_c, 9, 10, 64
12, 360, Control_c, 9, 11, 100
12, 420, Program_c, 9, 0
12, 480, Text_t, "Start"
12, 480, Control_c, 9, 11, 100
12, 480, Control_c, 9, 10, 64
12, 92640, Note_on_c, 9, 59, 127
12, 92640, Note_on_c, 9, 55, 127
12, 92640, Note_on_c, 9, 52, 127
12, 92760, Note_on_c, 9, 52, 0
12, 92760, Note_on_c, 9, 55, 0
12, 92760, Note_on_c, 9, 59, 0
12, 93120, Note_on_c, 9, 80, 127
12, 93360, Note_on_c, 9, 80, 0
12, 93600, Note_on_c, 9, 80, 127
12, 93660, Note_on_c, 9, 80, 0
12, 96480, Note_on_c, 9, 59, 127
12, 96480, Note_on_c, 9, 55, 127
12, 96480, Note_on_c, 9, 52, 127
12, 96600, Note_on_c, 9, 52, 0
12, 96600, Note_on_c, 9, 55, 0
12, 96600, Note_on_c, 9, 59, 0
12, 96960, Note_on_c, 9, 80, 127
12, 97020, Note_on_c, 9, 80, 0
12, 97200, Note_on_c, 9, 80, 127
12, 97260, Note_on_c, 9, 80, 0
12, 97440, Note_on_c, 9, 80, 127
12, 97500, Note_on_c, 9, 80, 0
12, 108000, Note_on_c, 9, 59, 127
12, 108000, Note_on_c, 9, 55, 127
12, 108000, Note_on_c, 9, 52, 127
12, 108120, Note_on_c, 9, 52, 0
12, 108120, Note_on_c, 9, 55, 0
12, 108120, Note_on_c, 9, 59, 0
12, 108480, Note_on_c, 9, 80, 127
12, 108720, Note_on_c, 9, 80, 0
12, 108960, Note_on_c, 9, 80, 127
12, 109020, Note_on_c, 9, 80, 0
12, 111840, Note_on_c, 9, 59, 127
12, 111840, Note_on_c, 9, 55, 127
12, 111840, Note_on_c, 9, 52, 127
12, 111960, Note_on_c, 9, 52, 0
12, 111960, Note_on_c, 9, 55, 0
12, 111960, Note_on_c, 9, 59, 0
12, 112320, Note_on_c, 9, 80, 127
12, 112380, Note_on_c, 9, 80, 0
12, 112560, Note_on_c, 9, 80, 127
12, 112620, Note_on_c, 9, 80, 0
12, 112800, Note_on_c, 9, 80, 127
12, 112860, Note_on_c, 9, 80, 0
12, 129360, Control_c, 9, 11, 95
12, 129600, Control_c, 9, 11, 91
12, 129840, Control_c, 9, 11, 89
12, 130080, Control_c, 9, 11, 86
12, 130320, Control_c, 9, 11, 83
12, 130560, Control_c, 9, 11, 80
12, 130800, Control_c, 9, 11, 77
12, 131040, Control_c, 9, 11, 71
12, 131280, Control_c, 9, 11, 69
12, 131520, Control_c, 9, 11, 66
12, 131760, Control_c, 9, 11, 63
12, 132000, Control_c, 9, 11, 60
12, 132240, Control_c, 9, 11, 57
12, 132480, Control_c, 9, 11, 52
12, 132720, Control_c, 9, 11, 43
12, 132960, Control_c, 9, 11, 36
12, 133200, Control_c, 9, 11, 31
12, 133440, Control_c, 9, 11, 27
12, 133680, Control_c, 9, 11, 26
12, 133920, Control_c, 9, 11, 23
12, 134160, Control_c, 9, 11, 19
12, 134400, Control_c, 9, 11, 15
12, 134640, Control_c, 9, 11, 10
12, 134880, Control_c, 9, 11, 7
12, 135120, Control_c, 9, 11, 4
12, 135360, Control_c, 9, 11, 3
12, 135600, Control_c, 9, 11, 2
12, 136080, Control_c, 9, 11, 1
12, 136320, Control_c, 9, 11, 0
12, 136320, End_track
13, 0, Start_track
13, 0, Title_t, "CH #11"
13, 0, Instrument_name_t, "Piano1"
13, 240, Control_c, 10, 7, 100
13, 300, Control_c, 10, 10, 64
13, 360, Control_c, 10, 11, 100
13, 420, Program_c, 10, 0
13, 480, Text_t, "Start"
13, 480, Control_c, 10, 11, 100
13, 480, Control_c, 10, 10, 64
13, 129360, Control_c, 10, 11, 95
13, 129600, Control_c, 10, 11, 91
13, 129840, Control_c, 10, 11, 89
13, 130080, Control_c, 10, 11, 86
13, 130320, Control_c, 10, 11, 83
13, 130560, Control_c, 10, 11, 80
13, 130800, Control_c, 10, 11, 77
13, 131040, Control_c, 10, 11, 71
13, 131280, Control_c, 10, 11, 69
13, 131520, Control_c, 10, 11, 66
13, 131760, Control_c, 10, 11, 63
13, 132000, Control_c, 10, 11, 60
13, 132240, Control_c, 10, 11, 57
13, 132480, Control_c, 10, 11, 52
13, 132720, Control_c, 10, 11, 43
13, 132960, Control_c, 10, 11, 36
13, 133200, Control_c, 10, 11, 31
13, 133440, Control_c, 10, 11, 27
13, 133680, Control_c, 10, 11, 26
13, 133920, Control_c, 10, 11, 23
13, 134160, Control_c, 10, 11, 19
13, 134400, Control_c, 10, 11, 15
13, 134640, Control_c, 10, 11, 10
13, 134880, Control_c, 10, 11, 7
13, 135120, Control_c, 10, 11, 4
13, 135360, Control_c, 10, 11, 3
13, 135600, Control_c, 10, 11, 2
13, 136080, Control_c, 10, 11, 1
13, 136320, Control_c, 10, 11, 0
13, 136320, End_track
14, 0, Start_track
14, 0, Title_t, "CH #12"
14, 0, Instrument_name_t, "Piano1"
14, 240, Control_c, 11, 7, 100
14, 300, Control_c, 11, 10, 64
14, 360, Control_c, 11, 11, 100
14, 420, Program_c, 11, 0
14, 480, Text_t, "Start"
14, 480, Control_c, 11, 11, 100
14, 480, Control_c, 11, 10, 64
14, 129360, Control_c, 11, 11, 95
14, 129600, Control_c, 11, 11, 91
14, 129840, Control_c, 11, 11, 89
14, 130080, Control_c, 11, 11, 86
14, 130320, Control_c, 11, 11, 83
14, 130560, Control_c, 11, 11, 80
14, 130800, Control_c, 11, 11, 77
14, 131040, Control_c, 11, 11, 71
14, 131280, Control_c, 11, 11, 69
14, 131520, Control_c, 11, 11, 66
14, 131760, Control_c, 11, 11, 63
14, 132000, Control_c, 11, 11, 60
14, 132240, Control_c, 11, 11, 57
14, 132480, Control_c, 11, 11, 52
14, 132720, Control_c, 11, 11, 43
14, 132960, Control_c, 11, 11, 36
14, 133200, Control_c, 11, 11, 31
14, 133440, Control_c, 11, 11, 27
14, 133680, Control_c, 11, 11, 26
14, 133920, Control_c, 11, 11, 23
14, 134160, Control_c, 11, 11, 19
14, 134400, Control_c, 11, 11, 15
14, 134640, Control_c, 11, 11, 10
14, 134880, Control_c, 11, 11, 7
14, 135120, Control_c, 11, 11, 4
14, 135360, Control_c, 11, 11, 3
14, 135600, Control_c, 11, 11, 2
14, 136080, Control_c, 11, 11, 1
14, 136320, Control_c, 11, 11, 0
14, 136320, End_track
15, 0, Start_track
15, 0, Title_t, "CH #13"
15, 0, Instrument_name_t, "Piano1"
15, 240, Control_c, 12, 7, 100
15, 300, Control_c, 12, 10, 64
15, 360, Control_c, 12, 11, 100
15, 420, Program_c, 12, 0
15, 480, Text_t, "Start"
15, 480, Control_c, 12, 11, 100
15, 480, Control_c, 12, 10, 64
15, 129360, Control_c, 12, 11, 95
15, 129600, Control_c, 12, 11, 91
15, 129840, Control_c, 12, 11, 89
15, 130080, Control_c, 12, 11, 86
15, 130320, Control_c, 12, 11, 83
15, 130560, Control_c, 12, 11, 80
15, 130800, Control_c, 12, 11, 77
15, 131040, Control_c, 12, 11, 71
15, 131280, Control_c, 12, 11, 69
15, 131520, Control_c, 12, 11, 66
15, 131760, Control_c, 12, 11, 63
15, 132000, Control_c, 12, 11, 60
15, 132240, Control_c, 12, 11, 57
15, 132480, Control_c, 12, 11, 52
15, 132720, Control_c, 12, 11, 43
15, 132960, Control_c, 12, 11, 36
15, 133200, Control_c, 12, 11, 31
15, 133440, Control_c, 12, 11, 27
15, 133680, Control_c, 12, 11, 26
15, 133920, Control_c, 12, 11, 23
15, 134160, Control_c, 12, 11, 19
15, 134400, Control_c, 12, 11, 15
15, 134640, Control_c, 12, 11, 10
15, 134880, Control_c, 12, 11, 7
15, 135120, Control_c, 12, 11, 4
15, 135360, Control_c, 12, 11, 3
15, 135600, Control_c, 12, 11, 2
15, 136080, Control_c, 12, 11, 1
15, 136320, Control_c, 12, 11, 0
15, 136320, End_track
16, 0, Start_track
16, 0, Title_t, "CH #14"
16, 0, Instrument_name_t, "Piano1"
16, 240, Control_c, 13, 7, 100
16, 300, Control_c, 13, 10, 64
16, 360, Control_c, 13, 11, 100
16, 420, Program_c, 13, 0
16, 480, Text_t, "Start"
16, 480, Control_c, 13, 11, 100
16, 480, Control_c, 13, 10, 64
16, 129360, Control_c, 13, 11, 95
16, 129600, Control_c, 13, 11, 91
16, 129840, Control_c, 13, 11, 89
16, 130080, Control_c, 13, 11, 86
16, 130320, Control_c, 13, 11, 83
16, 130560, Control_c, 13, 11, 80
16, 130800, Control_c, 13, 11, 77
16, 131040, Control_c, 13, 11, 71
16, 131280, Control_c, 13, 11, 69
16, 131520, Control_c, 13, 11, 66
16, 131760, Control_c, 13, 11, 63
16, 132000, Control_c, 13, 11, 60
16, 132240, Control_c, 13, 11, 57
16, 132480, Control_c, 13, 11, 52
16, 132720, Control_c, 13, 11, 43
16, 132960, Control_c, 13, 11, 36
16, 133200, Control_c, 13, 11, 31
16, 133440, Control_c, 13, 11, 27
16, 133680, Control_c, 13, 11, 26
16, 133920, Control_c, 13, 11, 23
16, 134160, Control_c, 13, 11, 19
16, 134400, Control_c, 13, 11, 15
16, 134640, Control_c, 13, 11, 10
16, 134880, Control_c, 13, 11, 7
16, 135120, Control_c, 13, 11, 4
16, 135360, Control_c, 13, 11, 3
16, 135600, Control_c, 13, 11, 2
16, 136080, Control_c, 13, 11, 1
16, 136320, Control_c, 13, 11, 0
16, 136320, End_track
17, 0, Start_track
17, 0, Title_t, "CH #15"
17, 0, Instrument_name_t, "Piano1"
17, 240, Control_c, 14, 7, 100
17, 300, Control_c, 14, 10, 64
17, 360, Control_c, 14, 11, 100
17, 420, Program_c, 14, 0
17, 480, Text_t, "Start"
17, 480, Control_c, 14, 11, 100
17, 480, Control_c, 14, 10, 64
17, 129360, Control_c, 14, 11, 95
17, 129600, Control_c, 14, 11, 91
17, 129840, Control_c, 14, 11, 89
17, 130080, Control_c, 14, 11, 86
17, 130320, Control_c, 14, 11, 83
17, 130560, Control_c, 14, 11, 80
17, 130800, Control_c, 14, 11, 77
17, 131040, Control_c, 14, 11, 71
17, 131280, Control_c, 14, 11, 69
17, 131520, Control_c, 14, 11, 66
17, 131760, Control_c, 14, 11, 63
17, 132000, Control_c, 14, 11, 60
17, 132240, Control_c, 14, 11, 57
17, 132480, Control_c, 14, 11, 52
17, 132720, Control_c, 14, 11, 43
17, 132960, Control_c, 14, 11, 36
17, 133200, Control_c, 14, 11, 31
17, 133440, Control_c, 14, 11, 27
17, 133680, Control_c, 14, 11, 26
17, 133920, Control_c, 14, 11, 23
17, 134160, Control_c, 14, 11, 19
17, 134400, Control_c, 14, 11, 15
17, 134640, Control_c, 14, 11, 10
17, 134880, Control_c, 14, 11, 7
17, 135120, Control_c, 14, 11, 4
17, 135360, Control_c, 14, 11, 3
17, 135600, Control_c, 14, 11, 2
17, 136080, Control_c, 14, 11, 1
17, 136320, Control_c, 14, 11, 0
17, 136320, End_track
18, 0, Start_track
18, 0, Title_t, "CH #16"
18, 0, Instrument_name_t, "Piano1"
18, 240, Control_c, 15, 7, 100
18, 300, Control_c, 15, 10, 64
18, 360, Control_c, 15, 11, 100
18, 420, Program_c, 15, 0
18, 480, Text_t, "Start"
18, 480, Control_c, 15, 11, 100
18, 480, Control_c, 15, 10, 64
18, 129360, Control_c, 15, 11, 95
18, 129600, Control_c, 15, 11, 91
18, 129840, Control_c, 15, 11, 89
18, 130080, Control_c, 15, 11, 86
18, 130320, Control_c, 15, 11, 83
18, 130560, Control_c, 15, 11, 80
18, 130800, Control_c, 15, 11, 77
18, 131040, Control_c, 15, 11, 71
18, 131280, Control_c, 15, 11, 69
18, 131520, Control_c, 15, 11, 66
18, 131760, Control_c, 15, 11, 63
18, 132000, Control_c, 15, 11, 60
18, 132240, Control_c, 15, 11, 57
18, 132480, Control_c, 15, 11, 52
18, 132720, Control_c, 15, 11, 43
18, 132960, Control_c, 15, 11, 36
18, 133200, Control_c, 15, 11, 31
18, 133440, Control_c, 15, 11, 27
18, 133680, Control_c, 15, 11, 26
18, 133920, Control_c, 15, 11, 23
18, 134160, Control_c, 15, 11, 19
18, 134400, Control_c, 15, 11, 15
18, 134640, Control_c, 15, 11, 10
18, 134880, Control_c, 15, 11, 7
18, 135120, Control_c, 15, 11, 4
18, 135360, Control_c, 15, 11, 3
18, 135600, Control_c, 15, 11, 2
18, 136080, Control_c, 15, 11, 1
18, 136320, Control_c, 15, 11, 0
18, 136320, End_track
0, 0, End_of_file
