0, 0, Header, 1, 17, 120
1, 0, Start_track
1, 0, Title_t, "untitled"
1, 0, Text_t, "yu-ki\012"
1, 0, Text_t, " \012"
1, 0, System_exclusive, 10, 65, 16, 66, 18, 0, 0, 127, 0, 1, 247
1, 0, System_exclusive, 10, 65, 16, 66, 18, 64, 1, 51, 90, 50, 247
1, 0, System_exclusive, 10, 65, 16, 66, 18, 64, 1, 52, 90, 49, 247
1, 0, System_exclusive, 10, 65, 16, 66, 18, 64, 1, 56, 4, 3, 247
1, 0, System_exclusive, 10, 65, 16, 66, 18, 64, 1, 58, 80, 53, 247
1, 0, System_exclusive, 10, 65, 16, 66, 18, 64, 2, 1, 67, 122, 247
1, 0, System_exclusive, 10, 65, 16, 66, 18, 64, 2, 3, 67, 120, 247
1, 0, System_exclusive, 10, 65, 16, 66, 18, 65, 4, 38, 65, 84, 247
1, 0, System_exclusive, 10, 65, 16, 66, 18, 65, 4, 80, 96, 11, 247
1, 0, System_exclusive, 10, 65, 16, 66, 18, 65, 4, 81, 96, 10, 247
1, 0, Time_signature, 4, 2, 24, 8
1, 0, Key_signature, 0, "major"
1, 0, Tempo, 461538
1, 0, End_track
2, 0, Start_track
2, 0, Title_t, "A1-Strings   : "
2, 60, Text_t, "Start of Setup by GSAE"
2, 77, Control_c, 0, 91, 70
2, 78, Control_c, 0, 93, 35
2, 81, Control_c, 0, 99, 1
2, 81, Control_c, 0, 98, 102
2, 81, Control_c, 0, 6, 69
2, 81, Control_c, 0, 38, 0
2, 120, Control_c, 0, 0, 0
2, 121, Control_c, 0, 32, 3
2, 122, Program_c, 0, 48
2, 123, Control_c, 0, 7, 90
2, 123, Control_c, 0, 10, 84
2, 231, Text_t, "End of Setup by GSAE"
2, 945, Control_c, 0, 99, 1
2, 945, Control_c, 0, 98, 102
2, 945, Control_c, 0, 6, 69
2, 945, Control_c, 0, 38, 127
2, 960, Note_on_c, 0, 55, 110
2, 960, Note_on_c, 0, 62, 110
2, 960, Note_on_c, 0, 65, 110
2, 996, Note_on_c, 0, 65, 0
2, 996, Note_on_c, 0, 62, 0
2, 996, Note_on_c, 0, 55, 0
2, 1020, Note_on_c, 0, 55, 70
2, 1020, Note_on_c, 0, 62, 70
2, 1020, Note_on_c, 0, 65, 70
2, 1056, Note_on_c, 0, 65, 0
2, 1056, Note_on_c, 0, 62, 0
2, 1056, Note_on_c, 0, 55, 0
2, 1080, Note_on_c, 0, 55, 70
2, 1080, Note_on_c, 0, 62, 70
2, 1080, Note_on_c, 0, 65, 70
2, 1116, Note_on_c, 0, 65, 0
2, 1116, Note_on_c, 0, 62, 0
2, 1116, Note_on_c, 0, 55, 0
2, 1140, Note_on_c, 0, 55, 110
2, 1140, Note_on_c, 0, 60, 110
2, 1140, Note_on_c, 0, 64, 110
2, 1176, Note_on_c, 0, 64, 0
2, 1176, Note_on_c, 0, 60, 0
2, 1176, Note_on_c, 0, 55, 0
2, 1200, Note_on_c, 0, 55, 70
2, 1200, Note_on_c, 0, 60, 70
2, 1200, Note_on_c, 0, 64, 70
2, 1236, Note_on_c, 0, 64, 0
2, 1236, Note_on_c, 0, 60, 0
2, 1236, Note_on_c, 0, 55, 0
2, 1260, Note_on_c, 0, 55, 70
2, 1260, Note_on_c, 0, 60, 70
2, 1260, Note_on_c, 0, 64, 70
2, 1296, Note_on_c, 0, 64, 0
2, 1296, Note_on_c, 0, 60, 0
2, 1296, Note_on_c, 0, 55, 0
2, 1320, Note_on_c, 0, 55, 110
2, 1320, Note_on_c, 0, 59, 110
2, 1320, Note_on_c, 0, 62, 110
2, 1356, Note_on_c, 0, 62, 0
2, 1356, Note_on_c, 0, 59, 0
2, 1356, Note_on_c, 0, 55, 0
2, 1380, Note_on_c, 0, 55, 71
2, 1380, Note_on_c, 0, 59, 71
2, 1380, Note_on_c, 0, 62, 71
2, 1416, Note_on_c, 0, 62, 0
2, 1416, Note_on_c, 0, 59, 0
2, 1416, Note_on_c, 0, 55, 0
2, 1440, Note_on_c, 0, 55, 71
2, 1440, Note_on_c, 0, 59, 71
2, 1440, Note_on_c, 0, 62, 71
2, 1476, Note_on_c, 0, 62, 0
2, 1476, Note_on_c, 0, 59, 0
2, 1476, Note_on_c, 0, 55, 0
2, 1500, Note_on_c, 0, 55, 110
2, 1500, Note_on_c, 0, 60, 110
2, 1500, Note_on_c, 0, 64, 110
2, 1536, Note_on_c, 0, 64, 0
2, 1536, Note_on_c, 0, 60, 0
2, 1536, Note_on_c, 0, 55, 0
2, 1560, Note_on_c, 0, 55, 72
2, 1560, Note_on_c, 0, 60, 72
2, 1560, Note_on_c, 0, 64, 72
2, 1596, Note_on_c, 0, 64, 0
2, 1596, Note_on_c, 0, 60, 0
2, 1596, Note_on_c, 0, 55, 0
2, 1620, Note_on_c, 0, 55, 110
2, 1620, Note_on_c, 0, 62, 110
2, 1620, Note_on_c, 0, 65, 110
2, 1656, Note_on_c, 0, 65, 0
2, 1656, Note_on_c, 0, 62, 0
2, 1656, Note_on_c, 0, 55, 0
2, 1680, Note_on_c, 0, 55, 110
2, 1680, Note_on_c, 0, 60, 110
2, 1680, Note_on_c, 0, 64, 110
2, 1716, Note_on_c, 0, 64, 0
2, 1716, Note_on_c, 0, 60, 0
2, 1716, Note_on_c, 0, 55, 0
2, 1740, Note_on_c, 0, 55, 71
2, 1740, Note_on_c, 0, 60, 71
2, 1740, Note_on_c, 0, 64, 71
2, 1776, Note_on_c, 0, 64, 0
2, 1776, Note_on_c, 0, 60, 0
2, 1776, Note_on_c, 0, 55, 0
2, 1800, Note_on_c, 0, 55, 110
2, 1800, Note_on_c, 0, 59, 110
2, 1800, Note_on_c, 0, 62, 110
2, 1836, Note_on_c, 0, 62, 0
2, 1836, Note_on_c, 0, 59, 0
2, 1836, Note_on_c, 0, 55, 0
2, 1860, Note_on_c, 0, 55, 71
2, 1860, Note_on_c, 0, 59, 71
2, 1860, Note_on_c, 0, 62, 71
2, 1896, Note_on_c, 0, 62, 0
2, 1896, Note_on_c, 0, 59, 0
2, 1896, Note_on_c, 0, 55, 0
2, 1920, Note_on_c, 0, 55, 110
2, 1920, Note_on_c, 0, 62, 110
2, 1920, Note_on_c, 0, 65, 110
2, 1956, Note_on_c, 0, 65, 0
2, 1956, Note_on_c, 0, 62, 0
2, 1956, Note_on_c, 0, 55, 0
2, 1980, Note_on_c, 0, 55, 72
2, 1980, Note_on_c, 0, 62, 72
2, 1980, Note_on_c, 0, 65, 72
2, 2016, Note_on_c, 0, 65, 0
2, 2016, Note_on_c, 0, 62, 0
2, 2016, Note_on_c, 0, 55, 0
2, 2040, Note_on_c, 0, 55, 71
2, 2040, Note_on_c, 0, 62, 71
2, 2040, Note_on_c, 0, 65, 71
2, 2076, Note_on_c, 0, 65, 0
2, 2076, Note_on_c, 0, 62, 0
2, 2076, Note_on_c, 0, 55, 0
2, 2100, Note_on_c, 0, 55, 110
2, 2100, Note_on_c, 0, 60, 110
2, 2100, Note_on_c, 0, 64, 110
2, 2136, Note_on_c, 0, 64, 0
2, 2136, Note_on_c, 0, 60, 0
2, 2136, Note_on_c, 0, 55, 0
2, 2160, Note_on_c, 0, 55, 71
2, 2160, Note_on_c, 0, 60, 71
2, 2160, Note_on_c, 0, 64, 71
2, 2196, Note_on_c, 0, 64, 0
2, 2196, Note_on_c, 0, 60, 0
2, 2196, Note_on_c, 0, 55, 0
2, 2220, Note_on_c, 0, 55, 71
2, 2220, Note_on_c, 0, 60, 71
2, 2220, Note_on_c, 0, 64, 71
2, 2256, Note_on_c, 0, 64, 0
2, 2256, Note_on_c, 0, 60, 0
2, 2256, Note_on_c, 0, 55, 0
2, 2280, Note_on_c, 0, 55, 110
2, 2280, Note_on_c, 0, 59, 110
2, 2280, Note_on_c, 0, 62, 110
2, 2316, Note_on_c, 0, 62, 0
2, 2316, Note_on_c, 0, 59, 0
2, 2316, Note_on_c, 0, 55, 0
2, 2340, Note_on_c, 0, 55, 72
2, 2340, Note_on_c, 0, 59, 72
2, 2340, Note_on_c, 0, 62, 72
2, 2376, Note_on_c, 0, 62, 0
2, 2376, Note_on_c, 0, 59, 0
2, 2376, Note_on_c, 0, 55, 0
2, 2400, Note_on_c, 0, 55, 72
2, 2400, Note_on_c, 0, 59, 72
2, 2400, Note_on_c, 0, 62, 72
2, 2436, Note_on_c, 0, 62, 0
2, 2436, Note_on_c, 0, 59, 0
2, 2436, Note_on_c, 0, 55, 0
2, 2460, Note_on_c, 0, 55, 110
2, 2460, Note_on_c, 0, 60, 110
2, 2460, Note_on_c, 0, 64, 110
2, 2496, Note_on_c, 0, 64, 0
2, 2496, Note_on_c, 0, 60, 0
2, 2496, Note_on_c, 0, 55, 0
2, 2520, Note_on_c, 0, 55, 70
2, 2520, Note_on_c, 0, 60, 70
2, 2520, Note_on_c, 0, 64, 70
2, 2556, Note_on_c, 0, 64, 0
2, 2556, Note_on_c, 0, 60, 0
2, 2556, Note_on_c, 0, 55, 0
2, 2580, Note_on_c, 0, 55, 110
2, 2580, Note_on_c, 0, 62, 110
2, 2580, Note_on_c, 0, 65, 110
2, 2616, Note_on_c, 0, 65, 0
2, 2616, Note_on_c, 0, 62, 0
2, 2616, Note_on_c, 0, 55, 0
2, 2640, Note_on_c, 0, 55, 110
2, 2640, Note_on_c, 0, 60, 110
2, 2640, Note_on_c, 0, 64, 110
2, 2676, Note_on_c, 0, 64, 0
2, 2676, Note_on_c, 0, 60, 0
2, 2676, Note_on_c, 0, 55, 0
2, 2700, Note_on_c, 0, 55, 73
2, 2700, Note_on_c, 0, 60, 73
2, 2700, Note_on_c, 0, 64, 73
2, 2736, Note_on_c, 0, 64, 0
2, 2736, Note_on_c, 0, 60, 0
2, 2736, Note_on_c, 0, 55, 0
2, 2760, Note_on_c, 0, 55, 110
2, 2760, Note_on_c, 0, 59, 110
2, 2760, Note_on_c, 0, 62, 110
2, 2796, Note_on_c, 0, 62, 0
2, 2796, Note_on_c, 0, 59, 0
2, 2796, Note_on_c, 0, 55, 0
2, 2820, Note_on_c, 0, 55, 70
2, 2820, Note_on_c, 0, 59, 70
2, 2820, Note_on_c, 0, 62, 70
2, 2856, Note_on_c, 0, 62, 0
2, 2856, Note_on_c, 0, 59, 0
2, 2856, Note_on_c, 0, 55, 0
2, 2880, Note_on_c, 0, 55, 110
2, 2880, Note_on_c, 0, 64, 110
2, 2880, Note_on_c, 0, 62, 110
2, 2910, Note_on_c, 0, 62, 0
2, 2910, Note_on_c, 0, 55, 0
2, 2916, Note_on_c, 0, 64, 0
2, 2940, Note_on_c, 0, 55, 71
2, 2940, Note_on_c, 0, 62, 71
2, 2940, Note_on_c, 0, 64, 71
2, 2976, Note_on_c, 0, 64, 0
2, 2976, Note_on_c, 0, 62, 0
2, 2976, Note_on_c, 0, 55, 0
2, 3000, Note_on_c, 0, 62, 73
2, 3000, Note_on_c, 0, 64, 73
2, 3000, Note_on_c, 0, 55, 73
2, 3030, Note_on_c, 0, 55, 0
2, 3030, Note_on_c, 0, 62, 0
2, 3036, Note_on_c, 0, 64, 0
2, 3060, Note_on_c, 0, 57, 110
2, 3060, Note_on_c, 0, 60, 110
2, 3060, Note_on_c, 0, 65, 110
2, 3090, Note_on_c, 0, 60, 0
2, 3090, Note_on_c, 0, 57, 0
2, 3096, Note_on_c, 0, 65, 0
2, 3120, Note_on_c, 0, 65, 71
2, 3120, Note_on_c, 0, 60, 71
2, 3120, Note_on_c, 0, 57, 71
2, 3156, Note_on_c, 0, 57, 0
2, 3156, Note_on_c, 0, 60, 0
2, 3156, Note_on_c, 0, 65, 0
2, 3180, Note_on_c, 0, 57, 72
2, 3180, Note_on_c, 0, 60, 72
2, 3180, Note_on_c, 0, 65, 72
2, 3210, Note_on_c, 0, 60, 0
2, 3210, Note_on_c, 0, 57, 0
2, 3216, Note_on_c, 0, 65, 0
2, 3240, Note_on_c, 0, 55, 110
2, 3240, Note_on_c, 0, 59, 110
2, 3240, Note_on_c, 0, 62, 110
2, 3270, Note_on_c, 0, 59, 0
2, 3270, Note_on_c, 0, 55, 0
2, 3276, Note_on_c, 0, 62, 0
2, 3300, Note_on_c, 0, 62, 71
2, 3300, Note_on_c, 0, 59, 71
2, 3300, Note_on_c, 0, 55, 71
2, 3336, Note_on_c, 0, 55, 0
2, 3336, Note_on_c, 0, 59, 0
2, 3336, Note_on_c, 0, 62, 0
2, 3360, Note_on_c, 0, 55, 71
2, 3360, Note_on_c, 0, 59, 71
2, 3360, Note_on_c, 0, 62, 71
2, 3390, Note_on_c, 0, 59, 0
2, 3390, Note_on_c, 0, 55, 0
2, 3396, Note_on_c, 0, 62, 0
2, 3420, Note_on_c, 0, 55, 110
2, 3420, Note_on_c, 0, 60, 110
2, 3420, Note_on_c, 0, 64, 110
2, 3450, Note_on_c, 0, 60, 0
2, 3450, Note_on_c, 0, 55, 0
2, 3456, Note_on_c, 0, 64, 0
2, 3480, Note_on_c, 0, 55, 71
2, 3480, Note_on_c, 0, 60, 71
2, 3480, Note_on_c, 0, 64, 71
2, 3516, Note_on_c, 0, 64, 0
2, 3516, Note_on_c, 0, 60, 0
2, 3516, Note_on_c, 0, 55, 0
2, 3540, Note_on_c, 0, 55, 69
2, 3540, Note_on_c, 0, 60, 69
2, 3540, Note_on_c, 0, 64, 69
2, 3570, Note_on_c, 0, 60, 0
2, 3570, Note_on_c, 0, 55, 0
2, 3576, Note_on_c, 0, 64, 0
2, 3600, Note_on_c, 0, 55, 110
2, 3600, Note_on_c, 0, 60, 110
2, 3600, Note_on_c, 0, 64, 110
2, 3630, Note_on_c, 0, 60, 0
2, 3630, Note_on_c, 0, 55, 0
2, 3636, Note_on_c, 0, 64, 0
2, 3660, Note_on_c, 0, 55, 71
2, 3660, Note_on_c, 0, 60, 71
2, 3660, Note_on_c, 0, 64, 71
2, 3696, Note_on_c, 0, 64, 0
2, 3696, Note_on_c, 0, 60, 0
2, 3696, Note_on_c, 0, 55, 0
2, 3720, Note_on_c, 0, 55, 110
2, 3720, Note_on_c, 0, 59, 110
2, 3720, Note_on_c, 0, 64, 110
2, 3750, Note_on_c, 0, 59, 0
2, 3750, Note_on_c, 0, 55, 0
2, 3756, Note_on_c, 0, 64, 0
2, 3780, Note_on_c, 0, 55, 71
2, 3780, Note_on_c, 0, 64, 71
2, 3780, Note_on_c, 0, 59, 71
2, 3816, Note_on_c, 0, 59, 0
2, 3816, Note_on_c, 0, 64, 0
2, 3816, Note_on_c, 0, 55, 0
2, 3840, Note_on_c, 0, 55, 110
2, 3840, Note_on_c, 0, 62, 110
2, 3840, Note_on_c, 0, 64, 110
2, 3870, Note_on_c, 0, 62, 0
2, 3870, Note_on_c, 0, 55, 0
2, 3876, Note_on_c, 0, 64, 0
2, 3900, Note_on_c, 0, 55, 71
2, 3900, Note_on_c, 0, 62, 71
2, 3900, Note_on_c, 0, 64, 71
2, 3936, Note_on_c, 0, 64, 0
2, 3936, Note_on_c, 0, 62, 0
2, 3936, Note_on_c, 0, 55, 0
2, 3960, Note_on_c, 0, 55, 72
2, 3960, Note_on_c, 0, 62, 72
2, 3960, Note_on_c, 0, 64, 72
2, 3990, Note_on_c, 0, 62, 0
2, 3990, Note_on_c, 0, 55, 0
2, 3996, Note_on_c, 0, 64, 0
2, 4020, Note_on_c, 0, 57, 110
2, 4020, Note_on_c, 0, 60, 110
2, 4020, Note_on_c, 0, 65, 110
2, 4050, Note_on_c, 0, 60, 0
2, 4050, Note_on_c, 0, 57, 0
2, 4056, Note_on_c, 0, 65, 0
2, 4080, Note_on_c, 0, 57, 71
2, 4080, Note_on_c, 0, 60, 71
2, 4080, Note_on_c, 0, 65, 71
2, 4116, Note_on_c, 0, 65, 0
2, 4116, Note_on_c, 0, 60, 0
2, 4116, Note_on_c, 0, 57, 0
2, 4140, Note_on_c, 0, 57, 71
2, 4140, Note_on_c, 0, 60, 71
2, 4140, Note_on_c, 0, 65, 71
2, 4170, Note_on_c, 0, 60, 0
2, 4170, Note_on_c, 0, 57, 0
2, 4176, Note_on_c, 0, 65, 0
2, 4200, Note_on_c, 0, 55, 110
2, 4200, Note_on_c, 0, 59, 110
2, 4200, Note_on_c, 0, 62, 110
2, 4230, Note_on_c, 0, 59, 0
2, 4230, Note_on_c, 0, 55, 0
2, 4236, Note_on_c, 0, 62, 0
2, 4260, Note_on_c, 0, 55, 71
2, 4260, Note_on_c, 0, 59, 71
2, 4260, Note_on_c, 0, 62, 71
2, 4296, Note_on_c, 0, 62, 0
2, 4296, Note_on_c, 0, 59, 0
2, 4296, Note_on_c, 0, 55, 0
2, 4320, Note_on_c, 0, 55, 71
2, 4320, Note_on_c, 0, 59, 71
2, 4320, Note_on_c, 0, 62, 71
2, 4350, Note_on_c, 0, 59, 0
2, 4350, Note_on_c, 0, 55, 0
2, 4356, Note_on_c, 0, 62, 0
2, 4380, Note_on_c, 0, 55, 110
2, 4380, Note_on_c, 0, 60, 110
2, 4380, Note_on_c, 0, 64, 110
2, 4410, Note_on_c, 0, 60, 0
2, 4410, Note_on_c, 0, 55, 0
2, 4416, Note_on_c, 0, 64, 0
2, 4440, Note_on_c, 0, 64, 71
2, 4440, Note_on_c, 0, 60, 71
2, 4440, Note_on_c, 0, 55, 71
2, 4476, Note_on_c, 0, 55, 0
2, 4476, Note_on_c, 0, 60, 0
2, 4476, Note_on_c, 0, 64, 0
2, 4500, Note_on_c, 0, 62, 110
2, 4500, Note_on_c, 0, 65, 110
2, 4500, Note_on_c, 0, 55, 110
2, 4530, Note_on_c, 0, 55, 0
2, 4530, Note_on_c, 0, 62, 0
2, 4536, Note_on_c, 0, 65, 0
2, 4560, Note_on_c, 0, 55, 101
2, 4560, Note_on_c, 0, 60, 101
2, 4560, Note_on_c, 0, 64, 101
2, 4668, Note_on_c, 0, 64, 0
2, 4668, Note_on_c, 0, 60, 0
2, 4668, Note_on_c, 0, 55, 0
2, 4680, Note_on_c, 0, 55, 101
2, 4680, Note_on_c, 0, 59, 101
2, 4680, Note_on_c, 0, 62, 101
2, 4788, Note_on_c, 0, 62, 0
2, 4788, Note_on_c, 0, 59, 0
2, 4788, Note_on_c, 0, 55, 0
2, 4800, Note_on_c, 0, 55, 110
2, 4800, Note_on_c, 0, 60, 110
2, 4800, Note_on_c, 0, 64, 110
2, 4830, Note_on_c, 0, 60, 0
2, 4830, Note_on_c, 0, 55, 0
2, 4836, Note_on_c, 0, 64, 0
2, 4860, Note_on_c, 0, 55, 71
2, 4860, Note_on_c, 0, 60, 71
2, 4860, Note_on_c, 0, 64, 71
2, 4896, Note_on_c, 0, 64, 0
2, 4896, Note_on_c, 0, 60, 0
2, 4896, Note_on_c, 0, 55, 0
2, 4920, Note_on_c, 0, 55, 71
2, 4920, Note_on_c, 0, 60, 71
2, 4920, Note_on_c, 0, 64, 71
2, 4956, Note_on_c, 0, 64, 0
2, 4956, Note_on_c, 0, 60, 0
2, 4956, Note_on_c, 0, 55, 0
2, 4980, Note_on_c, 0, 55, 110
2, 4980, Note_on_c, 0, 62, 110
2, 4980, Note_on_c, 0, 64, 110
2, 5010, Note_on_c, 0, 62, 0
2, 5010, Note_on_c, 0, 55, 0
2, 5016, Note_on_c, 0, 64, 0
2, 5040, Note_on_c, 0, 64, 71
2, 5040, Note_on_c, 0, 62, 71
2, 5040, Note_on_c, 0, 55, 71
2, 5076, Note_on_c, 0, 55, 0
2, 5076, Note_on_c, 0, 62, 0
2, 5076, Note_on_c, 0, 64, 0
2, 5100, Note_on_c, 0, 64, 71
2, 5100, Note_on_c, 0, 62, 71
2, 5100, Note_on_c, 0, 55, 71
2, 5136, Note_on_c, 0, 55, 0
2, 5136, Note_on_c, 0, 62, 0
2, 5136, Note_on_c, 0, 64, 0
2, 5160, Note_on_c, 0, 55, 110
2, 5160, Note_on_c, 0, 59, 110
2, 5160, Note_on_c, 0, 64, 110
2, 5190, Note_on_c, 0, 59, 0
2, 5190, Note_on_c, 0, 55, 0
2, 5196, Note_on_c, 0, 64, 0
2, 5220, Note_on_c, 0, 55, 71
2, 5220, Note_on_c, 0, 59, 71
2, 5220, Note_on_c, 0, 64, 71
2, 5256, Note_on_c, 0, 64, 0
2, 5256, Note_on_c, 0, 59, 0
2, 5256, Note_on_c, 0, 55, 0
2, 5280, Note_on_c, 0, 55, 71
2, 5280, Note_on_c, 0, 59, 71
2, 5280, Note_on_c, 0, 64, 71
2, 5316, Note_on_c, 0, 64, 0
2, 5316, Note_on_c, 0, 59, 0
2, 5316, Note_on_c, 0, 55, 0
2, 5340, Note_on_c, 0, 55, 110
2, 5340, Note_on_c, 0, 60, 110
2, 5340, Note_on_c, 0, 64, 110
2, 5370, Note_on_c, 0, 60, 0
2, 5370, Note_on_c, 0, 55, 0
2, 5376, Note_on_c, 0, 64, 0
2, 5400, Note_on_c, 0, 64, 71
2, 5400, Note_on_c, 0, 60, 71
2, 5400, Note_on_c, 0, 55, 71
2, 5436, Note_on_c, 0, 55, 0
2, 5436, Note_on_c, 0, 60, 0
2, 5436, Note_on_c, 0, 64, 0
2, 5460, Note_on_c, 0, 62, 110
2, 5460, Note_on_c, 0, 64, 110
2, 5460, Note_on_c, 0, 55, 110
2, 5496, Note_on_c, 0, 55, 0
2, 5496, Note_on_c, 0, 64, 0
2, 5496, Note_on_c, 0, 62, 0
2, 5520, Note_on_c, 0, 55, 110
2, 5520, Note_on_c, 0, 60, 110
2, 5520, Note_on_c, 0, 64, 110
2, 5550, Note_on_c, 0, 60, 0
2, 5550, Note_on_c, 0, 55, 0
2, 5556, Note_on_c, 0, 64, 0
2, 5580, Note_on_c, 0, 55, 71
2, 5580, Note_on_c, 0, 60, 71
2, 5580, Note_on_c, 0, 64, 71
2, 5616, Note_on_c, 0, 64, 0
2, 5616, Note_on_c, 0, 60, 0
2, 5616, Note_on_c, 0, 55, 0
2, 5640, Note_on_c, 0, 55, 110
2, 5640, Note_on_c, 0, 59, 110
2, 5640, Note_on_c, 0, 64, 110
2, 5670, Note_on_c, 0, 59, 0
2, 5670, Note_on_c, 0, 55, 0
2, 5676, Note_on_c, 0, 64, 0
2, 5700, Note_on_c, 0, 55, 71
2, 5700, Note_on_c, 0, 59, 71
2, 5700, Note_on_c, 0, 64, 71
2, 5736, Note_on_c, 0, 64, 0
2, 5736, Note_on_c, 0, 59, 0
2, 5736, Note_on_c, 0, 55, 0
2, 5760, Note_on_c, 0, 57, 110
2, 5760, Note_on_c, 0, 60, 110
2, 5760, Note_on_c, 0, 65, 110
2, 5790, Note_on_c, 0, 60, 0
2, 5790, Note_on_c, 0, 57, 0
2, 5796, Note_on_c, 0, 65, 0
2, 5820, Note_on_c, 0, 57, 71
2, 5820, Note_on_c, 0, 60, 71
2, 5820, Note_on_c, 0, 65, 71
2, 5856, Note_on_c, 0, 65, 0
2, 5856, Note_on_c, 0, 60, 0
2, 5856, Note_on_c, 0, 57, 0
2, 5880, Note_on_c, 0, 57, 71
2, 5880, Note_on_c, 0, 60, 71
2, 5880, Note_on_c, 0, 65, 71
2, 5916, Note_on_c, 0, 65, 0
2, 5916, Note_on_c, 0, 60, 0
2, 5916, Note_on_c, 0, 57, 0
2, 5940, Note_on_c, 0, 55, 110
2, 5940, Note_on_c, 0, 59, 110
2, 5940, Note_on_c, 0, 65, 110
2, 5970, Note_on_c, 0, 59, 0
2, 5970, Note_on_c, 0, 55, 0
2, 5976, Note_on_c, 0, 65, 0
2, 6000, Note_on_c, 0, 59, 71
2, 6000, Note_on_c, 0, 55, 71
2, 6000, Note_on_c, 0, 65, 71
2, 6036, Note_on_c, 0, 65, 0
2, 6036, Note_on_c, 0, 55, 0
2, 6036, Note_on_c, 0, 59, 0
2, 6060, Note_on_c, 0, 59, 71
2, 6060, Note_on_c, 0, 55, 71
2, 6060, Note_on_c, 0, 65, 71
2, 6096, Note_on_c, 0, 65, 0
2, 6096, Note_on_c, 0, 55, 0
2, 6096, Note_on_c, 0, 59, 0
2, 6120, Note_on_c, 0, 53, 110
2, 6120, Note_on_c, 0, 57, 110
2, 6120, Note_on_c, 0, 65, 110
2, 6150, Note_on_c, 0, 57, 0
2, 6150, Note_on_c, 0, 53, 0
2, 6156, Note_on_c, 0, 65, 0
2, 6180, Note_on_c, 0, 53, 71
2, 6180, Note_on_c, 0, 57, 71
2, 6180, Note_on_c, 0, 65, 71
2, 6216, Note_on_c, 0, 65, 0
2, 6216, Note_on_c, 0, 57, 0
2, 6216, Note_on_c, 0, 53, 0
2, 6240, Note_on_c, 0, 53, 71
2, 6240, Note_on_c, 0, 57, 71
2, 6240, Note_on_c, 0, 65, 71
2, 6276, Note_on_c, 0, 65, 0
2, 6276, Note_on_c, 0, 57, 0
2, 6276, Note_on_c, 0, 53, 0
2, 6300, Note_on_c, 0, 55, 110
2, 6300, Note_on_c, 0, 59, 110
2, 6300, Note_on_c, 0, 65, 110
2, 6330, Note_on_c, 0, 59, 0
2, 6330, Note_on_c, 0, 55, 0
2, 6336, Note_on_c, 0, 65, 0
2, 6360, Note_on_c, 0, 55, 71
2, 6360, Note_on_c, 0, 59, 71
2, 6360, Note_on_c, 0, 65, 71
2, 6396, Note_on_c, 0, 65, 0
2, 6396, Note_on_c, 0, 59, 0
2, 6396, Note_on_c, 0, 55, 0
2, 6420, Note_on_c, 0, 55, 71
2, 6420, Note_on_c, 0, 59, 71
2, 6420, Note_on_c, 0, 65, 71
2, 6456, Note_on_c, 0, 65, 0
2, 6456, Note_on_c, 0, 59, 0
2, 6456, Note_on_c, 0, 55, 0
2, 6480, Note_on_c, 0, 55, 103
2, 6480, Note_on_c, 0, 60, 103
2, 6480, Note_on_c, 0, 65, 103
2, 6588, Note_on_c, 0, 65, 0
2, 6588, Note_on_c, 0, 60, 0
2, 6588, Note_on_c, 0, 55, 0
2, 6600, Note_on_c, 0, 55, 103
2, 6600, Note_on_c, 0, 62, 103
2, 6600, Note_on_c, 0, 65, 103
2, 6708, Note_on_c, 0, 65, 0
2, 6708, Note_on_c, 0, 62, 0
2, 6708, Note_on_c, 0, 55, 0
2, 6720, Note_on_c, 0, 59, 110
2, 6720, Note_on_c, 0, 64, 110
2, 6720, Note_on_c, 0, 67, 110
2, 6756, Note_on_c, 0, 67, 0
2, 6756, Note_on_c, 0, 64, 0
2, 6756, Note_on_c, 0, 59, 0
2, 6780, Note_on_c, 0, 59, 71
2, 6780, Note_on_c, 0, 64, 71
2, 6780, Note_on_c, 0, 67, 71
2, 6816, Note_on_c, 0, 67, 0
2, 6816, Note_on_c, 0, 64, 0
2, 6816, Note_on_c, 0, 59, 0
2, 6840, Note_on_c, 0, 59, 71
2, 6840, Note_on_c, 0, 64, 71
2, 6840, Note_on_c, 0, 67, 71
2, 6876, Note_on_c, 0, 67, 0
2, 6876, Note_on_c, 0, 64, 0
2, 6876, Note_on_c, 0, 59, 0
2, 6900, Note_on_c, 0, 59, 110
2, 6900, Note_on_c, 0, 64, 110
2, 6900, Note_on_c, 0, 69, 110
2, 6936, Note_on_c, 0, 69, 0
2, 6936, Note_on_c, 0, 64, 0
2, 6936, Note_on_c, 0, 59, 0
2, 6960, Note_on_c, 0, 59, 71
2, 6960, Note_on_c, 0, 64, 71
2, 6960, Note_on_c, 0, 69, 71
2, 6996, Note_on_c, 0, 69, 0
2, 6996, Note_on_c, 0, 64, 0
2, 6996, Note_on_c, 0, 59, 0
2, 7020, Note_on_c, 0, 59, 71
2, 7020, Note_on_c, 0, 64, 71
2, 7020, Note_on_c, 0, 69, 71
2, 7056, Note_on_c, 0, 69, 0
2, 7056, Note_on_c, 0, 64, 0
2, 7056, Note_on_c, 0, 59, 0
2, 7080, Note_on_c, 0, 59, 110
2, 7080, Note_on_c, 0, 64, 110
2, 7080, Note_on_c, 0, 67, 110
2, 7116, Note_on_c, 0, 67, 0
2, 7116, Note_on_c, 0, 64, 0
2, 7116, Note_on_c, 0, 59, 0
2, 7140, Note_on_c, 0, 59, 71
2, 7140, Note_on_c, 0, 64, 71
2, 7140, Note_on_c, 0, 67, 71
2, 7176, Note_on_c, 0, 67, 0
2, 7176, Note_on_c, 0, 64, 0
2, 7176, Note_on_c, 0, 59, 0
2, 7200, Note_on_c, 0, 59, 71
2, 7200, Note_on_c, 0, 64, 71
2, 7200, Note_on_c, 0, 67, 71
2, 7236, Note_on_c, 0, 67, 0
2, 7236, Note_on_c, 0, 64, 0
2, 7236, Note_on_c, 0, 59, 0
2, 7260, Note_on_c, 0, 59, 110
2, 7260, Note_on_c, 0, 64, 110
2, 7260, Note_on_c, 0, 69, 110
2, 7296, Note_on_c, 0, 69, 0
2, 7296, Note_on_c, 0, 64, 0
2, 7296, Note_on_c, 0, 59, 0
2, 7320, Note_on_c, 0, 59, 71
2, 7320, Note_on_c, 0, 64, 71
2, 7320, Note_on_c, 0, 69, 71
2, 7356, Note_on_c, 0, 69, 0
2, 7356, Note_on_c, 0, 64, 0
2, 7356, Note_on_c, 0, 59, 0
2, 7380, Note_on_c, 0, 59, 71
2, 7380, Note_on_c, 0, 64, 71
2, 7380, Note_on_c, 0, 69, 71
2, 7416, Note_on_c, 0, 69, 0
2, 7416, Note_on_c, 0, 64, 0
2, 7416, Note_on_c, 0, 59, 0
2, 7440, Note_on_c, 0, 59, 110
2, 7440, Note_on_c, 0, 64, 110
2, 7440, Note_on_c, 0, 67, 110
2, 7476, Note_on_c, 0, 67, 0
2, 7476, Note_on_c, 0, 64, 0
2, 7476, Note_on_c, 0, 59, 0
2, 7500, Note_on_c, 0, 59, 71
2, 7500, Note_on_c, 0, 64, 71
2, 7500, Note_on_c, 0, 67, 71
2, 7536, Note_on_c, 0, 67, 0
2, 7536, Note_on_c, 0, 64, 0
2, 7536, Note_on_c, 0, 59, 0
2, 7560, Note_on_c, 0, 61, 110
2, 7560, Note_on_c, 0, 64, 110
2, 7560, Note_on_c, 0, 67, 110
2, 7596, Note_on_c, 0, 67, 0
2, 7596, Note_on_c, 0, 64, 0
2, 7596, Note_on_c, 0, 61, 0
2, 7620, Note_on_c, 0, 61, 71
2, 7620, Note_on_c, 0, 64, 71
2, 7620, Note_on_c, 0, 67, 71
2, 7656, Note_on_c, 0, 67, 0
2, 7656, Note_on_c, 0, 64, 0
2, 7656, Note_on_c, 0, 61, 0
2, 7680, Note_on_c, 0, 57, 110
2, 7680, Note_on_c, 0, 62, 110
2, 7680, Note_on_c, 0, 65, 110
2, 7716, Note_on_c, 0, 65, 0
2, 7716, Note_on_c, 0, 62, 0
2, 7716, Note_on_c, 0, 57, 0
2, 7740, Note_on_c, 0, 57, 71
2, 7740, Note_on_c, 0, 62, 71
2, 7740, Note_on_c, 0, 65, 71
2, 7776, Note_on_c, 0, 65, 0
2, 7776, Note_on_c, 0, 62, 0
2, 7776, Note_on_c, 0, 57, 0
2, 7800, Note_on_c, 0, 57, 71
2, 7800, Note_on_c, 0, 62, 71
2, 7800, Note_on_c, 0, 65, 71
2, 7836, Note_on_c, 0, 65, 0
2, 7836, Note_on_c, 0, 62, 0
2, 7836, Note_on_c, 0, 57, 0
2, 7860, Note_on_c, 0, 57, 110
2, 7860, Note_on_c, 0, 60, 110
2, 7860, Note_on_c, 0, 64, 110
2, 7896, Note_on_c, 0, 64, 0
2, 7896, Note_on_c, 0, 60, 0
2, 7896, Note_on_c, 0, 57, 0
2, 7920, Note_on_c, 0, 64, 71
2, 7920, Note_on_c, 0, 60, 71
2, 7920, Note_on_c, 0, 57, 71
2, 7956, Note_on_c, 0, 57, 0
2, 7956, Note_on_c, 0, 60, 0
2, 7956, Note_on_c, 0, 64, 0
2, 7980, Note_on_c, 0, 64, 71
2, 7980, Note_on_c, 0, 60, 71
2, 7980, Note_on_c, 0, 57, 71
2, 8016, Note_on_c, 0, 57, 0
2, 8016, Note_on_c, 0, 60, 0
2, 8016, Note_on_c, 0, 64, 0
2, 8040, Note_on_c, 0, 57, 110
2, 8040, Note_on_c, 0, 59, 110
2, 8040, Note_on_c, 0, 62, 110
2, 8076, Note_on_c, 0, 62, 0
2, 8076, Note_on_c, 0, 59, 0
2, 8076, Note_on_c, 0, 57, 0
2, 8100, Note_on_c, 0, 57, 71
2, 8100, Note_on_c, 0, 62, 71
2, 8100, Note_on_c, 0, 59, 71
2, 8136, Note_on_c, 0, 59, 0
2, 8136, Note_on_c, 0, 62, 0
2, 8136, Note_on_c, 0, 57, 0
2, 8160, Note_on_c, 0, 57, 71
2, 8160, Note_on_c, 0, 59, 71
2, 8160, Note_on_c, 0, 62, 71
2, 8196, Note_on_c, 0, 62, 0
2, 8196, Note_on_c, 0, 59, 0
2, 8196, Note_on_c, 0, 57, 0
2, 8220, Note_on_c, 0, 57, 110
2, 8220, Note_on_c, 0, 60, 110
2, 8220, Note_on_c, 0, 64, 110
2, 8256, Note_on_c, 0, 64, 0
2, 8256, Note_on_c, 0, 60, 0
2, 8256, Note_on_c, 0, 57, 0
2, 8280, Note_on_c, 0, 57, 71
2, 8280, Note_on_c, 0, 60, 71
2, 8280, Note_on_c, 0, 64, 71
2, 8316, Note_on_c, 0, 64, 0
2, 8316, Note_on_c, 0, 60, 0
2, 8316, Note_on_c, 0, 57, 0
2, 8340, Note_on_c, 0, 57, 71
2, 8340, Note_on_c, 0, 60, 71
2, 8340, Note_on_c, 0, 64, 71
2, 8376, Note_on_c, 0, 64, 0
2, 8376, Note_on_c, 0, 60, 0
2, 8376, Note_on_c, 0, 57, 0
2, 8400, Note_on_c, 0, 57, 110
2, 8400, Note_on_c, 0, 62, 110
2, 8400, Note_on_c, 0, 65, 110
2, 8436, Note_on_c, 0, 65, 0
2, 8436, Note_on_c, 0, 62, 0
2, 8436, Note_on_c, 0, 57, 0
2, 8460, Note_on_c, 0, 57, 71
2, 8460, Note_on_c, 0, 62, 71
2, 8460, Note_on_c, 0, 65, 71
2, 8496, Note_on_c, 0, 65, 0
2, 8496, Note_on_c, 0, 62, 0
2, 8496, Note_on_c, 0, 57, 0
2, 8520, Note_on_c, 0, 57, 110
2, 8520, Note_on_c, 0, 64, 110
2, 8520, Note_on_c, 0, 67, 110
2, 8556, Note_on_c, 0, 67, 0
2, 8556, Note_on_c, 0, 64, 0
2, 8556, Note_on_c, 0, 57, 0
2, 8580, Note_on_c, 0, 57, 71
2, 8580, Note_on_c, 0, 64, 71
2, 8580, Note_on_c, 0, 67, 71
2, 8616, Note_on_c, 0, 67, 0
2, 8616, Note_on_c, 0, 64, 0
2, 8616, Note_on_c, 0, 57, 0
2, 8640, Note_on_c, 0, 62, 110
2, 8640, Note_on_c, 0, 57, 110
2, 8640, Note_on_c, 0, 65, 110
2, 8676, Note_on_c, 0, 65, 0
2, 8676, Note_on_c, 0, 57, 0
2, 8676, Note_on_c, 0, 62, 0
2, 8700, Note_on_c, 0, 57, 71
2, 8700, Note_on_c, 0, 62, 71
2, 8700, Note_on_c, 0, 65, 71
2, 8736, Note_on_c, 0, 65, 0
2, 8736, Note_on_c, 0, 62, 0
2, 8736, Note_on_c, 0, 57, 0
2, 8760, Note_on_c, 0, 57, 71
2, 8760, Note_on_c, 0, 62, 71
2, 8760, Note_on_c, 0, 65, 71
2, 8796, Note_on_c, 0, 65, 0
2, 8796, Note_on_c, 0, 62, 0
2, 8796, Note_on_c, 0, 57, 0
2, 8820, Note_on_c, 0, 60, 110
2, 8820, Note_on_c, 0, 57, 110
2, 8820, Note_on_c, 0, 64, 110
2, 8856, Note_on_c, 0, 64, 0
2, 8856, Note_on_c, 0, 57, 0
2, 8856, Note_on_c, 0, 60, 0
2, 8880, Note_on_c, 0, 57, 71
2, 8880, Note_on_c, 0, 60, 71
2, 8880, Note_on_c, 0, 64, 71
2, 8916, Note_on_c, 0, 64, 0
2, 8916, Note_on_c, 0, 60, 0
2, 8916, Note_on_c, 0, 57, 0
2, 8940, Note_on_c, 0, 57, 71
2, 8940, Note_on_c, 0, 60, 71
2, 8940, Note_on_c, 0, 64, 71
2, 8976, Note_on_c, 0, 64, 0
2, 8976, Note_on_c, 0, 60, 0
2, 8976, Note_on_c, 0, 57, 0
2, 9000, Note_on_c, 0, 59, 110
2, 9000, Note_on_c, 0, 57, 110
2, 9000, Note_on_c, 0, 62, 110
2, 9036, Note_on_c, 0, 62, 0
2, 9036, Note_on_c, 0, 57, 0
2, 9036, Note_on_c, 0, 59, 0
2, 9060, Note_on_c, 0, 62, 71
2, 9060, Note_on_c, 0, 59, 71
2, 9060, Note_on_c, 0, 57, 71
2, 9096, Note_on_c, 0, 57, 0
2, 9096, Note_on_c, 0, 59, 0
2, 9096, Note_on_c, 0, 62, 0
2, 9120, Note_on_c, 0, 59, 71
2, 9120, Note_on_c, 0, 62, 71
2, 9120, Note_on_c, 0, 57, 71
2, 9156, Note_on_c, 0, 57, 0
2, 9156, Note_on_c, 0, 62, 0
2, 9156, Note_on_c, 0, 59, 0
2, 9180, Note_on_c, 0, 60, 110
2, 9180, Note_on_c, 0, 57, 110
2, 9180, Note_on_c, 0, 64, 110
2, 9216, Note_on_c, 0, 64, 0
2, 9216, Note_on_c, 0, 57, 0
2, 9216, Note_on_c, 0, 60, 0
2, 9240, Note_on_c, 0, 57, 71
2, 9240, Note_on_c, 0, 60, 71
2, 9240, Note_on_c, 0, 64, 71
2, 9276, Note_on_c, 0, 64, 0
2, 9276, Note_on_c, 0, 60, 0
2, 9276, Note_on_c, 0, 57, 0
2, 9300, Note_on_c, 0, 57, 71
2, 9300, Note_on_c, 0, 60, 71
2, 9300, Note_on_c, 0, 64, 71
2, 9336, Note_on_c, 0, 64, 0
2, 9336, Note_on_c, 0, 60, 0
2, 9336, Note_on_c, 0, 57, 0
2, 9360, Note_on_c, 0, 62, 110
2, 9360, Note_on_c, 0, 57, 110
2, 9360, Note_on_c, 0, 65, 110
2, 9396, Note_on_c, 0, 65, 0
2, 9396, Note_on_c, 0, 57, 0
2, 9396, Note_on_c, 0, 62, 0
2, 9420, Note_on_c, 0, 57, 71
2, 9420, Note_on_c, 0, 62, 71
2, 9420, Note_on_c, 0, 65, 71
2, 9456, Note_on_c, 0, 65, 0
2, 9456, Note_on_c, 0, 62, 0
2, 9456, Note_on_c, 0, 57, 0
2, 9480, Note_on_c, 0, 64, 110
2, 9480, Note_on_c, 0, 57, 110
2, 9480, Note_on_c, 0, 67, 110
2, 9516, Note_on_c, 0, 67, 0
2, 9516, Note_on_c, 0, 57, 0
2, 9516, Note_on_c, 0, 64, 0
2, 9540, Note_on_c, 0, 57, 71
2, 9540, Note_on_c, 0, 64, 71
2, 9540, Note_on_c, 0, 67, 71
2, 9576, Note_on_c, 0, 67, 0
2, 9576, Note_on_c, 0, 64, 0
2, 9576, Note_on_c, 0, 57, 0
2, 9600, Note_on_c, 0, 62, 110
2, 9600, Note_on_c, 0, 56, 110
2, 9600, Note_on_c, 0, 65, 110
2, 9636, Note_on_c, 0, 65, 0
2, 9636, Note_on_c, 0, 56, 0
2, 9636, Note_on_c, 0, 62, 0
2, 9660, Note_on_c, 0, 56, 71
2, 9660, Note_on_c, 0, 62, 71
2, 9660, Note_on_c, 0, 65, 71
2, 9696, Note_on_c, 0, 65, 0
2, 9696, Note_on_c, 0, 62, 0
2, 9696, Note_on_c, 0, 56, 0
2, 9720, Note_on_c, 0, 56, 71
2, 9720, Note_on_c, 0, 62, 71
2, 9720, Note_on_c, 0, 65, 71
2, 9756, Note_on_c, 0, 65, 0
2, 9756, Note_on_c, 0, 62, 0
2, 9756, Note_on_c, 0, 56, 0
2, 9780, Note_on_c, 0, 60, 110
2, 9780, Note_on_c, 0, 56, 110
2, 9780, Note_on_c, 0, 64, 110
2, 9816, Note_on_c, 0, 64, 0
2, 9816, Note_on_c, 0, 56, 0
2, 9816, Note_on_c, 0, 60, 0
2, 9840, Note_on_c, 0, 56, 71
2, 9840, Note_on_c, 0, 60, 71
2, 9840, Note_on_c, 0, 64, 71
2, 9876, Note_on_c, 0, 64, 0
2, 9876, Note_on_c, 0, 60, 0
2, 9876, Note_on_c, 0, 56, 0
2, 9900, Note_on_c, 0, 56, 71
2, 9900, Note_on_c, 0, 60, 71
2, 9900, Note_on_c, 0, 64, 71
2, 9936, Note_on_c, 0, 64, 0
2, 9936, Note_on_c, 0, 60, 0
2, 9936, Note_on_c, 0, 56, 0
2, 9960, Note_on_c, 0, 59, 110
2, 9960, Note_on_c, 0, 56, 110
2, 9960, Note_on_c, 0, 62, 110
2, 9996, Note_on_c, 0, 62, 0
2, 9996, Note_on_c, 0, 56, 0
2, 9996, Note_on_c, 0, 59, 0
2, 10020, Note_on_c, 0, 56, 71
2, 10020, Note_on_c, 0, 59, 71
2, 10020, Note_on_c, 0, 62, 71
2, 10056, Note_on_c, 0, 62, 0
2, 10056, Note_on_c, 0, 59, 0
2, 10056, Note_on_c, 0, 56, 0
2, 10080, Note_on_c, 0, 56, 71
2, 10080, Note_on_c, 0, 59, 71
2, 10080, Note_on_c, 0, 62, 71
2, 10116, Note_on_c, 0, 62, 0
2, 10116, Note_on_c, 0, 59, 0
2, 10116, Note_on_c, 0, 56, 0
2, 10140, Note_on_c, 0, 60, 110
2, 10140, Note_on_c, 0, 56, 110
2, 10140, Note_on_c, 0, 64, 110
2, 10176, Note_on_c, 0, 64, 0
2, 10176, Note_on_c, 0, 56, 0
2, 10176, Note_on_c, 0, 60, 0
2, 10200, Note_on_c, 0, 56, 71
2, 10200, Note_on_c, 0, 60, 71
2, 10200, Note_on_c, 0, 64, 71
2, 10236, Note_on_c, 0, 64, 0
2, 10236, Note_on_c, 0, 60, 0
2, 10236, Note_on_c, 0, 56, 0
2, 10260, Note_on_c, 0, 56, 71
2, 10260, Note_on_c, 0, 60, 71
2, 10260, Note_on_c, 0, 64, 71
2, 10296, Note_on_c, 0, 64, 0
2, 10296, Note_on_c, 0, 60, 0
2, 10296, Note_on_c, 0, 56, 0
2, 10320, Note_on_c, 0, 62, 110
2, 10320, Note_on_c, 0, 56, 110
2, 10320, Note_on_c, 0, 65, 110
2, 10356, Note_on_c, 0, 65, 0
2, 10356, Note_on_c, 0, 56, 0
2, 10356, Note_on_c, 0, 62, 0
2, 10380, Note_on_c, 0, 56, 71
2, 10380, Note_on_c, 0, 62, 71
2, 10380, Note_on_c, 0, 65, 71
2, 10416, Note_on_c, 0, 65, 0
2, 10416, Note_on_c, 0, 62, 0
2, 10416, Note_on_c, 0, 56, 0
2, 10440, Note_on_c, 0, 59, 110
2, 10440, Note_on_c, 0, 55, 110
2, 10440, Note_on_c, 0, 62, 110
2, 10476, Note_on_c, 0, 62, 0
2, 10476, Note_on_c, 0, 55, 0
2, 10476, Note_on_c, 0, 59, 0
2, 10500, Note_on_c, 0, 55, 71
2, 10500, Note_on_c, 0, 59, 71
2, 10500, Note_on_c, 0, 62, 71
2, 10536, Note_on_c, 0, 62, 0
2, 10536, Note_on_c, 0, 59, 0
2, 10536, Note_on_c, 0, 55, 0
2, 10560, Note_on_c, 0, 55, 110
2, 10560, Note_on_c, 0, 64, 110
2, 10560, Note_on_c, 0, 62, 110
2, 10590, Note_on_c, 0, 62, 0
2, 10590, Note_on_c, 0, 55, 0
2, 10596, Note_on_c, 0, 64, 0
2, 10620, Note_on_c, 0, 55, 71
2, 10620, Note_on_c, 0, 62, 71
2, 10620, Note_on_c, 0, 64, 71
2, 10656, Note_on_c, 0, 64, 0
2, 10656, Note_on_c, 0, 62, 0
2, 10656, Note_on_c, 0, 55, 0
2, 10680, Note_on_c, 0, 62, 73
2, 10680, Note_on_c, 0, 64, 73
2, 10680, Note_on_c, 0, 55, 73
2, 10710, Note_on_c, 0, 55, 0
2, 10710, Note_on_c, 0, 62, 0
2, 10716, Note_on_c, 0, 64, 0
2, 10740, Note_on_c, 0, 57, 110
2, 10740, Note_on_c, 0, 60, 110
2, 10740, Note_on_c, 0, 65, 110
2, 10770, Note_on_c, 0, 60, 0
2, 10770, Note_on_c, 0, 57, 0
2, 10776, Note_on_c, 0, 65, 0
2, 10800, Note_on_c, 0, 65, 71
2, 10800, Note_on_c, 0, 60, 71
2, 10800, Note_on_c, 0, 57, 71
2, 10836, Note_on_c, 0, 57, 0
2, 10836, Note_on_c, 0, 60, 0
2, 10836, Note_on_c, 0, 65, 0
2, 10860, Note_on_c, 0, 57, 72
2, 10860, Note_on_c, 0, 60, 72
2, 10860, Note_on_c, 0, 65, 72
2, 10890, Note_on_c, 0, 60, 0
2, 10890, Note_on_c, 0, 57, 0
2, 10896, Note_on_c, 0, 65, 0
2, 10920, Note_on_c, 0, 55, 110
2, 10920, Note_on_c, 0, 59, 110
2, 10920, Note_on_c, 0, 62, 110
2, 10950, Note_on_c, 0, 59, 0
2, 10950, Note_on_c, 0, 55, 0
2, 10956, Note_on_c, 0, 62, 0
2, 10980, Note_on_c, 0, 62, 71
2, 10980, Note_on_c, 0, 59, 71
2, 10980, Note_on_c, 0, 55, 71
2, 11016, Note_on_c, 0, 55, 0
2, 11016, Note_on_c, 0, 59, 0
2, 11016, Note_on_c, 0, 62, 0
2, 11040, Note_on_c, 0, 55, 71
2, 11040, Note_on_c, 0, 59, 71
2, 11040, Note_on_c, 0, 62, 71
2, 11070, Note_on_c, 0, 59, 0
2, 11070, Note_on_c, 0, 55, 0
2, 11076, Note_on_c, 0, 62, 0
2, 11100, Note_on_c, 0, 55, 110
2, 11100, Note_on_c, 0, 60, 110
2, 11100, Note_on_c, 0, 64, 110
2, 11130, Note_on_c, 0, 60, 0
2, 11130, Note_on_c, 0, 55, 0
2, 11136, Note_on_c, 0, 64, 0
2, 11160, Note_on_c, 0, 55, 71
2, 11160, Note_on_c, 0, 60, 71
2, 11160, Note_on_c, 0, 64, 71
2, 11196, Note_on_c, 0, 64, 0
2, 11196, Note_on_c, 0, 60, 0
2, 11196, Note_on_c, 0, 55, 0
2, 11220, Note_on_c, 0, 55, 69
2, 11220, Note_on_c, 0, 60, 69
2, 11220, Note_on_c, 0, 64, 69
2, 11250, Note_on_c, 0, 60, 0
2, 11250, Note_on_c, 0, 55, 0
2, 11256, Note_on_c, 0, 64, 0
2, 11280, Note_on_c, 0, 55, 110
2, 11280, Note_on_c, 0, 60, 110
2, 11280, Note_on_c, 0, 64, 110
2, 11310, Note_on_c, 0, 60, 0
2, 11310, Note_on_c, 0, 55, 0
2, 11316, Note_on_c, 0, 64, 0
2, 11340, Note_on_c, 0, 55, 71
2, 11340, Note_on_c, 0, 60, 71
2, 11340, Note_on_c, 0, 64, 71
2, 11376, Note_on_c, 0, 64, 0
2, 11376, Note_on_c, 0, 60, 0
2, 11376, Note_on_c, 0, 55, 0
2, 11400, Note_on_c, 0, 55, 110
2, 11400, Note_on_c, 0, 59, 110
2, 11400, Note_on_c, 0, 64, 110
2, 11430, Note_on_c, 0, 59, 0
2, 11430, Note_on_c, 0, 55, 0
2, 11436, Note_on_c, 0, 64, 0
2, 11460, Note_on_c, 0, 55, 71
2, 11460, Note_on_c, 0, 64, 71
2, 11460, Note_on_c, 0, 59, 71
2, 11496, Note_on_c, 0, 59, 0
2, 11496, Note_on_c, 0, 64, 0
2, 11496, Note_on_c, 0, 55, 0
2, 11520, Note_on_c, 0, 55, 110
2, 11520, Note_on_c, 0, 62, 110
2, 11520, Note_on_c, 0, 64, 110
2, 11550, Note_on_c, 0, 62, 0
2, 11550, Note_on_c, 0, 55, 0
2, 11556, Note_on_c, 0, 64, 0
2, 11580, Note_on_c, 0, 55, 71
2, 11580, Note_on_c, 0, 62, 71
2, 11580, Note_on_c, 0, 64, 71
2, 11616, Note_on_c, 0, 64, 0
2, 11616, Note_on_c, 0, 62, 0
2, 11616, Note_on_c, 0, 55, 0
2, 11640, Note_on_c, 0, 55, 72
2, 11640, Note_on_c, 0, 62, 72
2, 11640, Note_on_c, 0, 64, 72
2, 11670, Note_on_c, 0, 62, 0
2, 11670, Note_on_c, 0, 55, 0
2, 11676, Note_on_c, 0, 64, 0
2, 11700, Note_on_c, 0, 57, 110
2, 11700, Note_on_c, 0, 60, 110
2, 11700, Note_on_c, 0, 65, 110
2, 11730, Note_on_c, 0, 60, 0
2, 11730, Note_on_c, 0, 57, 0
2, 11736, Note_on_c, 0, 65, 0
2, 11760, Note_on_c, 0, 57, 71
2, 11760, Note_on_c, 0, 60, 71
2, 11760, Note_on_c, 0, 65, 71
2, 11796, Note_on_c, 0, 65, 0
2, 11796, Note_on_c, 0, 60, 0
2, 11796, Note_on_c, 0, 57, 0
2, 11820, Note_on_c, 0, 57, 71
2, 11820, Note_on_c, 0, 60, 71
2, 11820, Note_on_c, 0, 65, 71
2, 11850, Note_on_c, 0, 60, 0
2, 11850, Note_on_c, 0, 57, 0
2, 11856, Note_on_c, 0, 65, 0
2, 11880, Note_on_c, 0, 55, 110
2, 11880, Note_on_c, 0, 59, 110
2, 11880, Note_on_c, 0, 62, 110
2, 11910, Note_on_c, 0, 59, 0
2, 11910, Note_on_c, 0, 55, 0
2, 11916, Note_on_c, 0, 62, 0
2, 11940, Note_on_c, 0, 55, 71
2, 11940, Note_on_c, 0, 59, 71
2, 11940, Note_on_c, 0, 62, 71
2, 11976, Note_on_c, 0, 62, 0
2, 11976, Note_on_c, 0, 59, 0
2, 11976, Note_on_c, 0, 55, 0
2, 12000, Note_on_c, 0, 55, 71
2, 12000, Note_on_c, 0, 59, 71
2, 12000, Note_on_c, 0, 62, 71
2, 12030, Note_on_c, 0, 59, 0
2, 12030, Note_on_c, 0, 55, 0
2, 12036, Note_on_c, 0, 62, 0
2, 12060, Note_on_c, 0, 55, 110
2, 12060, Note_on_c, 0, 60, 110
2, 12060, Note_on_c, 0, 64, 110
2, 12090, Note_on_c, 0, 60, 0
2, 12090, Note_on_c, 0, 55, 0
2, 12096, Note_on_c, 0, 64, 0
2, 12120, Note_on_c, 0, 64, 71
2, 12120, Note_on_c, 0, 60, 71
2, 12120, Note_on_c, 0, 55, 71
2, 12156, Note_on_c, 0, 55, 0
2, 12156, Note_on_c, 0, 60, 0
2, 12156, Note_on_c, 0, 64, 0
2, 12180, Note_on_c, 0, 62, 110
2, 12180, Note_on_c, 0, 65, 110
2, 12180, Note_on_c, 0, 55, 110
2, 12210, Note_on_c, 0, 55, 0
2, 12210, Note_on_c, 0, 62, 0
2, 12216, Note_on_c, 0, 65, 0
2, 12240, Note_on_c, 0, 55, 101
2, 12240, Note_on_c, 0, 60, 101
2, 12240, Note_on_c, 0, 64, 101
2, 12348, Note_on_c, 0, 64, 0
2, 12348, Note_on_c, 0, 60, 0
2, 12348, Note_on_c, 0, 55, 0
2, 12360, Note_on_c, 0, 55, 101
2, 12360, Note_on_c, 0, 59, 101
2, 12360, Note_on_c, 0, 62, 101
2, 12468, Note_on_c, 0, 62, 0
2, 12468, Note_on_c, 0, 59, 0
2, 12468, Note_on_c, 0, 55, 0
2, 12480, Note_on_c, 0, 55, 110
2, 12480, Note_on_c, 0, 60, 110
2, 12480, Note_on_c, 0, 64, 110
2, 12510, Note_on_c, 0, 60, 0
2, 12510, Note_on_c, 0, 55, 0
2, 12516, Note_on_c, 0, 64, 0
2, 12540, Note_on_c, 0, 55, 71
2, 12540, Note_on_c, 0, 60, 71
2, 12540, Note_on_c, 0, 64, 71
2, 12576, Note_on_c, 0, 64, 0
2, 12576, Note_on_c, 0, 60, 0
2, 12576, Note_on_c, 0, 55, 0
2, 12600, Note_on_c, 0, 55, 71
2, 12600, Note_on_c, 0, 60, 71
2, 12600, Note_on_c, 0, 64, 71
2, 12636, Note_on_c, 0, 64, 0
2, 12636, Note_on_c, 0, 60, 0
2, 12636, Note_on_c, 0, 55, 0
2, 12660, Note_on_c, 0, 55, 110
2, 12660, Note_on_c, 0, 62, 110
2, 12660, Note_on_c, 0, 64, 110
2, 12690, Note_on_c, 0, 62, 0
2, 12690, Note_on_c, 0, 55, 0
2, 12696, Note_on_c, 0, 64, 0
2, 12720, Note_on_c, 0, 64, 71
2, 12720, Note_on_c, 0, 62, 71
2, 12720, Note_on_c, 0, 55, 71
2, 12756, Note_on_c, 0, 55, 0
2, 12756, Note_on_c, 0, 62, 0
2, 12756, Note_on_c, 0, 64, 0
2, 12780, Note_on_c, 0, 64, 71
2, 12780, Note_on_c, 0, 62, 71
2, 12780, Note_on_c, 0, 55, 71
2, 12816, Note_on_c, 0, 55, 0
2, 12816, Note_on_c, 0, 62, 0
2, 12816, Note_on_c, 0, 64, 0
2, 12840, Note_on_c, 0, 55, 110
2, 12840, Note_on_c, 0, 59, 110
2, 12840, Note_on_c, 0, 64, 110
2, 12870, Note_on_c, 0, 59, 0
2, 12870, Note_on_c, 0, 55, 0
2, 12876, Note_on_c, 0, 64, 0
2, 12900, Note_on_c, 0, 55, 71
2, 12900, Note_on_c, 0, 59, 71
2, 12900, Note_on_c, 0, 64, 71
2, 12936, Note_on_c, 0, 64, 0
2, 12936, Note_on_c, 0, 59, 0
2, 12936, Note_on_c, 0, 55, 0
2, 12960, Note_on_c, 0, 55, 71
2, 12960, Note_on_c, 0, 59, 71
2, 12960, Note_on_c, 0, 64, 71
2, 12996, Note_on_c, 0, 64, 0
2, 12996, Note_on_c, 0, 59, 0
2, 12996, Note_on_c, 0, 55, 0
2, 13020, Note_on_c, 0, 55, 110
2, 13020, Note_on_c, 0, 60, 110
2, 13020, Note_on_c, 0, 64, 110
2, 13050, Note_on_c, 0, 60, 0
2, 13050, Note_on_c, 0, 55, 0
2, 13056, Note_on_c, 0, 64, 0
2, 13080, Note_on_c, 0, 64, 71
2, 13080, Note_on_c, 0, 60, 71
2, 13080, Note_on_c, 0, 55, 71
2, 13116, Note_on_c, 0, 55, 0
2, 13116, Note_on_c, 0, 60, 0
2, 13116, Note_on_c, 0, 64, 0
2, 13140, Note_on_c, 0, 62, 110
2, 13140, Note_on_c, 0, 64, 110
2, 13140, Note_on_c, 0, 55, 110
2, 13176, Note_on_c, 0, 55, 0
2, 13176, Note_on_c, 0, 64, 0
2, 13176, Note_on_c, 0, 62, 0
2, 13200, Note_on_c, 0, 55, 110
2, 13200, Note_on_c, 0, 60, 110
2, 13200, Note_on_c, 0, 64, 110
2, 13230, Note_on_c, 0, 60, 0
2, 13230, Note_on_c, 0, 55, 0
2, 13236, Note_on_c, 0, 64, 0
2, 13260, Note_on_c, 0, 55, 71
2, 13260, Note_on_c, 0, 60, 71
2, 13260, Note_on_c, 0, 64, 71
2, 13296, Note_on_c, 0, 64, 0
2, 13296, Note_on_c, 0, 60, 0
2, 13296, Note_on_c, 0, 55, 0
2, 13320, Note_on_c, 0, 55, 110
2, 13320, Note_on_c, 0, 59, 110
2, 13320, Note_on_c, 0, 64, 110
2, 13350, Note_on_c, 0, 59, 0
2, 13350, Note_on_c, 0, 55, 0
2, 13356, Note_on_c, 0, 64, 0
2, 13380, Note_on_c, 0, 55, 71
2, 13380, Note_on_c, 0, 59, 71
2, 13380, Note_on_c, 0, 64, 71
2, 13416, Note_on_c, 0, 64, 0
2, 13416, Note_on_c, 0, 59, 0
2, 13416, Note_on_c, 0, 55, 0
2, 13440, Note_on_c, 0, 57, 110
2, 13440, Note_on_c, 0, 60, 110
2, 13440, Note_on_c, 0, 65, 110
2, 13470, Note_on_c, 0, 60, 0
2, 13470, Note_on_c, 0, 57, 0
2, 13476, Note_on_c, 0, 65, 0
2, 13500, Note_on_c, 0, 57, 71
2, 13500, Note_on_c, 0, 60, 71
2, 13500, Note_on_c, 0, 65, 71
2, 13536, Note_on_c, 0, 65, 0
2, 13536, Note_on_c, 0, 60, 0
2, 13536, Note_on_c, 0, 57, 0
2, 13560, Note_on_c, 0, 57, 71
2, 13560, Note_on_c, 0, 60, 71
2, 13560, Note_on_c, 0, 65, 71
2, 13596, Note_on_c, 0, 65, 0
2, 13596, Note_on_c, 0, 60, 0
2, 13596, Note_on_c, 0, 57, 0
2, 13620, Note_on_c, 0, 55, 110
2, 13620, Note_on_c, 0, 59, 110
2, 13620, Note_on_c, 0, 65, 110
2, 13650, Note_on_c, 0, 59, 0
2, 13650, Note_on_c, 0, 55, 0
2, 13656, Note_on_c, 0, 65, 0
2, 13680, Note_on_c, 0, 59, 71
2, 13680, Note_on_c, 0, 55, 71
2, 13680, Note_on_c, 0, 65, 71
2, 13716, Note_on_c, 0, 65, 0
2, 13716, Note_on_c, 0, 55, 0
2, 13716, Note_on_c, 0, 59, 0
2, 13740, Note_on_c, 0, 59, 71
2, 13740, Note_on_c, 0, 55, 71
2, 13740, Note_on_c, 0, 65, 71
2, 13776, Note_on_c, 0, 65, 0
2, 13776, Note_on_c, 0, 55, 0
2, 13776, Note_on_c, 0, 59, 0
2, 13800, Note_on_c, 0, 53, 110
2, 13800, Note_on_c, 0, 57, 110
2, 13800, Note_on_c, 0, 65, 110
2, 13830, Note_on_c, 0, 57, 0
2, 13830, Note_on_c, 0, 53, 0
2, 13836, Note_on_c, 0, 65, 0
2, 13860, Note_on_c, 0, 53, 71
2, 13860, Note_on_c, 0, 57, 71
2, 13860, Note_on_c, 0, 65, 71
2, 13896, Note_on_c, 0, 65, 0
2, 13896, Note_on_c, 0, 57, 0
2, 13896, Note_on_c, 0, 53, 0
2, 13920, Note_on_c, 0, 53, 71
2, 13920, Note_on_c, 0, 57, 71
2, 13920, Note_on_c, 0, 65, 71
2, 13956, Note_on_c, 0, 65, 0
2, 13956, Note_on_c, 0, 57, 0
2, 13956, Note_on_c, 0, 53, 0
2, 13980, Note_on_c, 0, 55, 110
2, 13980, Note_on_c, 0, 59, 110
2, 13980, Note_on_c, 0, 65, 110
2, 14010, Note_on_c, 0, 59, 0
2, 14010, Note_on_c, 0, 55, 0
2, 14016, Note_on_c, 0, 65, 0
2, 14040, Note_on_c, 0, 55, 71
2, 14040, Note_on_c, 0, 59, 71
2, 14040, Note_on_c, 0, 65, 71
2, 14076, Note_on_c, 0, 65, 0
2, 14076, Note_on_c, 0, 59, 0
2, 14076, Note_on_c, 0, 55, 0
2, 14100, Note_on_c, 0, 55, 71
2, 14100, Note_on_c, 0, 59, 71
2, 14100, Note_on_c, 0, 65, 71
2, 14136, Note_on_c, 0, 65, 0
2, 14136, Note_on_c, 0, 59, 0
2, 14136, Note_on_c, 0, 55, 0
2, 14160, Note_on_c, 0, 55, 103
2, 14160, Note_on_c, 0, 60, 103
2, 14160, Note_on_c, 0, 65, 103
2, 14268, Note_on_c, 0, 65, 0
2, 14268, Note_on_c, 0, 60, 0
2, 14268, Note_on_c, 0, 55, 0
2, 14280, Note_on_c, 0, 55, 103
2, 14280, Note_on_c, 0, 62, 103
2, 14280, Note_on_c, 0, 65, 103
2, 14388, Note_on_c, 0, 65, 0
2, 14388, Note_on_c, 0, 62, 0
2, 14388, Note_on_c, 0, 55, 0
2, 14400, Note_on_c, 0, 59, 110
2, 14400, Note_on_c, 0, 64, 110
2, 14400, Note_on_c, 0, 67, 110
2, 14436, Note_on_c, 0, 67, 0
2, 14436, Note_on_c, 0, 64, 0
2, 14436, Note_on_c, 0, 59, 0
2, 14460, Note_on_c, 0, 59, 71
2, 14460, Note_on_c, 0, 64, 71
2, 14460, Note_on_c, 0, 67, 71
2, 14496, Note_on_c, 0, 67, 0
2, 14496, Note_on_c, 0, 64, 0
2, 14496, Note_on_c, 0, 59, 0
2, 14520, Note_on_c, 0, 59, 71
2, 14520, Note_on_c, 0, 64, 71
2, 14520, Note_on_c, 0, 67, 71
2, 14556, Note_on_c, 0, 67, 0
2, 14556, Note_on_c, 0, 64, 0
2, 14556, Note_on_c, 0, 59, 0
2, 14580, Note_on_c, 0, 59, 110
2, 14580, Note_on_c, 0, 64, 110
2, 14580, Note_on_c, 0, 69, 110
2, 14616, Note_on_c, 0, 69, 0
2, 14616, Note_on_c, 0, 64, 0
2, 14616, Note_on_c, 0, 59, 0
2, 14640, Note_on_c, 0, 59, 71
2, 14640, Note_on_c, 0, 64, 71
2, 14640, Note_on_c, 0, 69, 71
2, 14676, Note_on_c, 0, 69, 0
2, 14676, Note_on_c, 0, 64, 0
2, 14676, Note_on_c, 0, 59, 0
2, 14700, Note_on_c, 0, 59, 71
2, 14700, Note_on_c, 0, 64, 71
2, 14700, Note_on_c, 0, 69, 71
2, 14736, Note_on_c, 0, 69, 0
2, 14736, Note_on_c, 0, 64, 0
2, 14736, Note_on_c, 0, 59, 0
2, 14760, Note_on_c, 0, 59, 110
2, 14760, Note_on_c, 0, 64, 110
2, 14760, Note_on_c, 0, 67, 110
2, 14796, Note_on_c, 0, 67, 0
2, 14796, Note_on_c, 0, 64, 0
2, 14796, Note_on_c, 0, 59, 0
2, 14820, Note_on_c, 0, 59, 71
2, 14820, Note_on_c, 0, 64, 71
2, 14820, Note_on_c, 0, 67, 71
2, 14856, Note_on_c, 0, 67, 0
2, 14856, Note_on_c, 0, 64, 0
2, 14856, Note_on_c, 0, 59, 0
2, 14880, Note_on_c, 0, 59, 71
2, 14880, Note_on_c, 0, 64, 71
2, 14880, Note_on_c, 0, 67, 71
2, 14916, Note_on_c, 0, 67, 0
2, 14916, Note_on_c, 0, 64, 0
2, 14916, Note_on_c, 0, 59, 0
2, 14940, Note_on_c, 0, 59, 110
2, 14940, Note_on_c, 0, 64, 110
2, 14940, Note_on_c, 0, 69, 110
2, 14976, Note_on_c, 0, 69, 0
2, 14976, Note_on_c, 0, 64, 0
2, 14976, Note_on_c, 0, 59, 0
2, 15000, Note_on_c, 0, 59, 71
2, 15000, Note_on_c, 0, 64, 71
2, 15000, Note_on_c, 0, 69, 71
2, 15036, Note_on_c, 0, 69, 0
2, 15036, Note_on_c, 0, 64, 0
2, 15036, Note_on_c, 0, 59, 0
2, 15060, Note_on_c, 0, 59, 71
2, 15060, Note_on_c, 0, 64, 71
2, 15060, Note_on_c, 0, 69, 71
2, 15096, Note_on_c, 0, 69, 0
2, 15096, Note_on_c, 0, 64, 0
2, 15096, Note_on_c, 0, 59, 0
2, 15120, Note_on_c, 0, 59, 110
2, 15120, Note_on_c, 0, 64, 110
2, 15120, Note_on_c, 0, 67, 110
2, 15156, Note_on_c, 0, 67, 0
2, 15156, Note_on_c, 0, 64, 0
2, 15156, Note_on_c, 0, 59, 0
2, 15180, Note_on_c, 0, 59, 71
2, 15180, Note_on_c, 0, 64, 71
2, 15180, Note_on_c, 0, 67, 71
2, 15216, Note_on_c, 0, 67, 0
2, 15216, Note_on_c, 0, 64, 0
2, 15216, Note_on_c, 0, 59, 0
2, 15240, Note_on_c, 0, 61, 110
2, 15240, Note_on_c, 0, 64, 110
2, 15240, Note_on_c, 0, 67, 110
2, 15276, Note_on_c, 0, 67, 0
2, 15276, Note_on_c, 0, 64, 0
2, 15276, Note_on_c, 0, 61, 0
2, 15300, Note_on_c, 0, 61, 71
2, 15300, Note_on_c, 0, 64, 71
2, 15300, Note_on_c, 0, 67, 71
2, 15336, Note_on_c, 0, 67, 0
2, 15336, Note_on_c, 0, 64, 0
2, 15336, Note_on_c, 0, 61, 0
2, 15360, Note_on_c, 0, 57, 110
2, 15360, Note_on_c, 0, 62, 110
2, 15360, Note_on_c, 0, 65, 110
2, 15396, Note_on_c, 0, 65, 0
2, 15396, Note_on_c, 0, 62, 0
2, 15396, Note_on_c, 0, 57, 0
2, 15420, Note_on_c, 0, 57, 71
2, 15420, Note_on_c, 0, 62, 71
2, 15420, Note_on_c, 0, 65, 71
2, 15456, Note_on_c, 0, 65, 0
2, 15456, Note_on_c, 0, 62, 0
2, 15456, Note_on_c, 0, 57, 0
2, 15480, Note_on_c, 0, 57, 71
2, 15480, Note_on_c, 0, 62, 71
2, 15480, Note_on_c, 0, 65, 71
2, 15516, Note_on_c, 0, 65, 0
2, 15516, Note_on_c, 0, 62, 0
2, 15516, Note_on_c, 0, 57, 0
2, 15540, Note_on_c, 0, 57, 110
2, 15540, Note_on_c, 0, 60, 110
2, 15540, Note_on_c, 0, 64, 110
2, 15576, Note_on_c, 0, 64, 0
2, 15576, Note_on_c, 0, 60, 0
2, 15576, Note_on_c, 0, 57, 0
2, 15600, Note_on_c, 0, 64, 71
2, 15600, Note_on_c, 0, 60, 71
2, 15600, Note_on_c, 0, 57, 71
2, 15636, Note_on_c, 0, 57, 0
2, 15636, Note_on_c, 0, 60, 0
2, 15636, Note_on_c, 0, 64, 0
2, 15660, Note_on_c, 0, 64, 71
2, 15660, Note_on_c, 0, 60, 71
2, 15660, Note_on_c, 0, 57, 71
2, 15696, Note_on_c, 0, 57, 0
2, 15696, Note_on_c, 0, 60, 0
2, 15696, Note_on_c, 0, 64, 0
2, 15720, Note_on_c, 0, 57, 110
2, 15720, Note_on_c, 0, 59, 110
2, 15720, Note_on_c, 0, 62, 110
2, 15756, Note_on_c, 0, 62, 0
2, 15756, Note_on_c, 0, 59, 0
2, 15756, Note_on_c, 0, 57, 0
2, 15780, Note_on_c, 0, 57, 71
2, 15780, Note_on_c, 0, 62, 71
2, 15780, Note_on_c, 0, 59, 71
2, 15816, Note_on_c, 0, 59, 0
2, 15816, Note_on_c, 0, 62, 0
2, 15816, Note_on_c, 0, 57, 0
2, 15840, Note_on_c, 0, 57, 71
2, 15840, Note_on_c, 0, 59, 71
2, 15840, Note_on_c, 0, 62, 71
2, 15876, Note_on_c, 0, 62, 0
2, 15876, Note_on_c, 0, 59, 0
2, 15876, Note_on_c, 0, 57, 0
2, 15900, Note_on_c, 0, 57, 110
2, 15900, Note_on_c, 0, 60, 110
2, 15900, Note_on_c, 0, 64, 110
2, 15936, Note_on_c, 0, 64, 0
2, 15936, Note_on_c, 0, 60, 0
2, 15936, Note_on_c, 0, 57, 0
2, 15960, Note_on_c, 0, 57, 71
2, 15960, Note_on_c, 0, 60, 71
2, 15960, Note_on_c, 0, 64, 71
2, 15996, Note_on_c, 0, 64, 0
2, 15996, Note_on_c, 0, 60, 0
2, 15996, Note_on_c, 0, 57, 0
2, 16020, Note_on_c, 0, 57, 71
2, 16020, Note_on_c, 0, 60, 71
2, 16020, Note_on_c, 0, 64, 71
2, 16056, Note_on_c, 0, 64, 0
2, 16056, Note_on_c, 0, 60, 0
2, 16056, Note_on_c, 0, 57, 0
2, 16080, Note_on_c, 0, 57, 110
2, 16080, Note_on_c, 0, 62, 110
2, 16080, Note_on_c, 0, 65, 110
2, 16116, Note_on_c, 0, 65, 0
2, 16116, Note_on_c, 0, 62, 0
2, 16116, Note_on_c, 0, 57, 0
2, 16140, Note_on_c, 0, 57, 71
2, 16140, Note_on_c, 0, 62, 71
2, 16140, Note_on_c, 0, 65, 71
2, 16176, Note_on_c, 0, 65, 0
2, 16176, Note_on_c, 0, 62, 0
2, 16176, Note_on_c, 0, 57, 0
2, 16200, Note_on_c, 0, 57, 110
2, 16200, Note_on_c, 0, 64, 110
2, 16200, Note_on_c, 0, 67, 110
2, 16236, Note_on_c, 0, 67, 0
2, 16236, Note_on_c, 0, 64, 0
2, 16236, Note_on_c, 0, 57, 0
2, 16260, Note_on_c, 0, 57, 71
2, 16260, Note_on_c, 0, 64, 71
2, 16260, Note_on_c, 0, 67, 71
2, 16296, Note_on_c, 0, 67, 0
2, 16296, Note_on_c, 0, 64, 0
2, 16296, Note_on_c, 0, 57, 0
2, 16320, Note_on_c, 0, 62, 110
2, 16320, Note_on_c, 0, 57, 110
2, 16320, Note_on_c, 0, 65, 110
2, 16356, Note_on_c, 0, 65, 0
2, 16356, Note_on_c, 0, 57, 0
2, 16356, Note_on_c, 0, 62, 0
2, 16380, Note_on_c, 0, 57, 71
2, 16380, Note_on_c, 0, 62, 71
2, 16380, Note_on_c, 0, 65, 71
2, 16416, Note_on_c, 0, 65, 0
2, 16416, Note_on_c, 0, 62, 0
2, 16416, Note_on_c, 0, 57, 0
2, 16440, Note_on_c, 0, 57, 71
2, 16440, Note_on_c, 0, 62, 71
2, 16440, Note_on_c, 0, 65, 71
2, 16476, Note_on_c, 0, 65, 0
2, 16476, Note_on_c, 0, 62, 0
2, 16476, Note_on_c, 0, 57, 0
2, 16500, Note_on_c, 0, 60, 110
2, 16500, Note_on_c, 0, 57, 110
2, 16500, Note_on_c, 0, 64, 110
2, 16536, Note_on_c, 0, 64, 0
2, 16536, Note_on_c, 0, 57, 0
2, 16536, Note_on_c, 0, 60, 0
2, 16560, Note_on_c, 0, 57, 71
2, 16560, Note_on_c, 0, 60, 71
2, 16560, Note_on_c, 0, 64, 71
2, 16596, Note_on_c, 0, 64, 0
2, 16596, Note_on_c, 0, 60, 0
2, 16596, Note_on_c, 0, 57, 0
2, 16620, Note_on_c, 0, 57, 71
2, 16620, Note_on_c, 0, 60, 71
2, 16620, Note_on_c, 0, 64, 71
2, 16656, Note_on_c, 0, 64, 0
2, 16656, Note_on_c, 0, 60, 0
2, 16656, Note_on_c, 0, 57, 0
2, 16680, Note_on_c, 0, 59, 110
2, 16680, Note_on_c, 0, 57, 110
2, 16680, Note_on_c, 0, 62, 110
2, 16716, Note_on_c, 0, 62, 0
2, 16716, Note_on_c, 0, 57, 0
2, 16716, Note_on_c, 0, 59, 0
2, 16740, Note_on_c, 0, 62, 71
2, 16740, Note_on_c, 0, 59, 71
2, 16740, Note_on_c, 0, 57, 71
2, 16776, Note_on_c, 0, 57, 0
2, 16776, Note_on_c, 0, 59, 0
2, 16776, Note_on_c, 0, 62, 0
2, 16800, Note_on_c, 0, 59, 71
2, 16800, Note_on_c, 0, 62, 71
2, 16800, Note_on_c, 0, 57, 71
2, 16836, Note_on_c, 0, 57, 0
2, 16836, Note_on_c, 0, 62, 0
2, 16836, Note_on_c, 0, 59, 0
2, 16860, Note_on_c, 0, 60, 110
2, 16860, Note_on_c, 0, 57, 110
2, 16860, Note_on_c, 0, 64, 110
2, 16896, Note_on_c, 0, 64, 0
2, 16896, Note_on_c, 0, 57, 0
2, 16896, Note_on_c, 0, 60, 0
2, 16920, Note_on_c, 0, 57, 71
2, 16920, Note_on_c, 0, 60, 71
2, 16920, Note_on_c, 0, 64, 71
2, 16956, Note_on_c, 0, 64, 0
2, 16956, Note_on_c, 0, 60, 0
2, 16956, Note_on_c, 0, 57, 0
2, 16980, Note_on_c, 0, 57, 71
2, 16980, Note_on_c, 0, 60, 71
2, 16980, Note_on_c, 0, 64, 71
2, 17016, Note_on_c, 0, 64, 0
2, 17016, Note_on_c, 0, 60, 0
2, 17016, Note_on_c, 0, 57, 0
2, 17040, Note_on_c, 0, 62, 110
2, 17040, Note_on_c, 0, 57, 110
2, 17040, Note_on_c, 0, 65, 110
2, 17076, Note_on_c, 0, 65, 0
2, 17076, Note_on_c, 0, 57, 0
2, 17076, Note_on_c, 0, 62, 0
2, 17100, Note_on_c, 0, 57, 71
2, 17100, Note_on_c, 0, 62, 71
2, 17100, Note_on_c, 0, 65, 71
2, 17136, Note_on_c, 0, 65, 0
2, 17136, Note_on_c, 0, 62, 0
2, 17136, Note_on_c, 0, 57, 0
2, 17160, Note_on_c, 0, 64, 110
2, 17160, Note_on_c, 0, 57, 110
2, 17160, Note_on_c, 0, 67, 110
2, 17196, Note_on_c, 0, 67, 0
2, 17196, Note_on_c, 0, 57, 0
2, 17196, Note_on_c, 0, 64, 0
2, 17220, Note_on_c, 0, 57, 71
2, 17220, Note_on_c, 0, 64, 71
2, 17220, Note_on_c, 0, 67, 71
2, 17256, Note_on_c, 0, 67, 0
2, 17256, Note_on_c, 0, 64, 0
2, 17256, Note_on_c, 0, 57, 0
2, 17280, Note_on_c, 0, 62, 110
2, 17280, Note_on_c, 0, 65, 110
2, 17280, Note_on_c, 0, 55, 71
2, 17316, Note_on_c, 0, 55, 0
2, 17316, Note_on_c, 0, 65, 0
2, 17316, Note_on_c, 0, 62, 0
2, 17340, Note_on_c, 0, 55, 71
2, 17340, Note_on_c, 0, 62, 71
2, 17340, Note_on_c, 0, 65, 71
2, 17376, Note_on_c, 0, 65, 0
2, 17376, Note_on_c, 0, 62, 0
2, 17376, Note_on_c, 0, 55, 0
2, 17400, Note_on_c, 0, 55, 71
2, 17400, Note_on_c, 0, 65, 71
2, 17400, Note_on_c, 0, 62, 71
2, 17436, Note_on_c, 0, 62, 0
2, 17436, Note_on_c, 0, 65, 0
2, 17436, Note_on_c, 0, 55, 0
2, 17460, Note_on_c, 0, 55, 71
2, 17460, Note_on_c, 0, 60, 110
2, 17460, Note_on_c, 0, 64, 110
2, 17496, Note_on_c, 0, 64, 0
2, 17496, Note_on_c, 0, 60, 0
2, 17496, Note_on_c, 0, 55, 0
2, 17520, Note_on_c, 0, 55, 71
2, 17520, Note_on_c, 0, 60, 71
2, 17520, Note_on_c, 0, 64, 71
2, 17556, Note_on_c, 0, 64, 0
2, 17556, Note_on_c, 0, 60, 0
2, 17556, Note_on_c, 0, 55, 0
2, 17580, Note_on_c, 0, 55, 71
2, 17580, Note_on_c, 0, 60, 71
2, 17580, Note_on_c, 0, 64, 71
2, 17616, Note_on_c, 0, 64, 0
2, 17616, Note_on_c, 0, 60, 0
2, 17616, Note_on_c, 0, 55, 0
2, 17640, Note_on_c, 0, 55, 71
2, 17640, Note_on_c, 0, 59, 110
2, 17640, Note_on_c, 0, 62, 110
2, 17676, Note_on_c, 0, 62, 0
2, 17676, Note_on_c, 0, 59, 0
2, 17676, Note_on_c, 0, 55, 0
2, 17700, Note_on_c, 0, 59, 71
2, 17700, Note_on_c, 0, 62, 71
2, 17700, Note_on_c, 0, 55, 71
2, 17736, Note_on_c, 0, 55, 0
2, 17736, Note_on_c, 0, 62, 0
2, 17736, Note_on_c, 0, 59, 0
2, 17760, Note_on_c, 0, 59, 71
2, 17760, Note_on_c, 0, 62, 71
2, 17760, Note_on_c, 0, 55, 71
2, 17796, Note_on_c, 0, 55, 0
2, 17796, Note_on_c, 0, 62, 0
2, 17796, Note_on_c, 0, 59, 0
2, 17820, Note_on_c, 0, 55, 71
2, 17820, Note_on_c, 0, 60, 110
2, 17820, Note_on_c, 0, 64, 110
2, 17856, Note_on_c, 0, 64, 0
2, 17856, Note_on_c, 0, 60, 0
2, 17856, Note_on_c, 0, 55, 0
2, 17880, Note_on_c, 0, 60, 71
2, 17880, Note_on_c, 0, 64, 71
2, 17880, Note_on_c, 0, 55, 71
2, 17916, Note_on_c, 0, 55, 0
2, 17916, Note_on_c, 0, 64, 0
2, 17916, Note_on_c, 0, 60, 0
2, 17940, Note_on_c, 0, 60, 71
2, 17940, Note_on_c, 0, 55, 71
2, 17940, Note_on_c, 0, 64, 71
2, 17976, Note_on_c, 0, 64, 0
2, 17976, Note_on_c, 0, 55, 0
2, 17976, Note_on_c, 0, 60, 0
2, 18000, Note_on_c, 0, 55, 71
2, 18000, Note_on_c, 0, 62, 110
2, 18000, Note_on_c, 0, 65, 110
2, 18036, Note_on_c, 0, 65, 0
2, 18036, Note_on_c, 0, 62, 0
2, 18036, Note_on_c, 0, 55, 0
2, 18060, Note_on_c, 0, 62, 71
2, 18060, Note_on_c, 0, 65, 71
2, 18060, Note_on_c, 0, 55, 71
2, 18096, Note_on_c, 0, 55, 0
2, 18096, Note_on_c, 0, 65, 0
2, 18096, Note_on_c, 0, 62, 0
2, 18120, Note_on_c, 0, 61, 110
2, 18120, Note_on_c, 0, 65, 110
2, 18120, Note_on_c, 0, 55, 71
2, 18156, Note_on_c, 0, 55, 0
2, 18156, Note_on_c, 0, 65, 0
2, 18156, Note_on_c, 0, 61, 0
2, 18180, Note_on_c, 0, 65, 71
2, 18180, Note_on_c, 0, 61, 71
2, 18180, Note_on_c, 0, 55, 71
2, 18216, Note_on_c, 0, 55, 0
2, 18216, Note_on_c, 0, 61, 0
2, 18216, Note_on_c, 0, 65, 0
2, 29760, Note_on_c, 0, 55, 110
2, 29760, Note_on_c, 0, 64, 110
2, 29760, Note_on_c, 0, 62, 110
2, 29790, Note_on_c, 0, 62, 0
2, 29790, Note_on_c, 0, 55, 0
2, 29796, Note_on_c, 0, 64, 0
2, 29820, Note_on_c, 0, 55, 71
2, 29820, Note_on_c, 0, 62, 71
2, 29820, Note_on_c, 0, 64, 71
2, 29856, Note_on_c, 0, 64, 0
2, 29856, Note_on_c, 0, 62, 0
2, 29856, Note_on_c, 0, 55, 0
2, 29880, Note_on_c, 0, 62, 73
2, 29880, Note_on_c, 0, 64, 73
2, 29880, Note_on_c, 0, 55, 73
2, 29910, Note_on_c, 0, 55, 0
2, 29910, Note_on_c, 0, 62, 0
2, 29916, Note_on_c, 0, 64, 0
2, 29940, Note_on_c, 0, 57, 110
2, 29940, Note_on_c, 0, 60, 110
2, 29940, Note_on_c, 0, 65, 110
2, 29970, Note_on_c, 0, 60, 0
2, 29970, Note_on_c, 0, 57, 0
2, 29976, Note_on_c, 0, 65, 0
2, 30000, Note_on_c, 0, 65, 71
2, 30000, Note_on_c, 0, 60, 71
2, 30000, Note_on_c, 0, 57, 71
2, 30036, Note_on_c, 0, 57, 0
2, 30036, Note_on_c, 0, 60, 0
2, 30036, Note_on_c, 0, 65, 0
2, 30060, Note_on_c, 0, 57, 72
2, 30060, Note_on_c, 0, 60, 72
2, 30060, Note_on_c, 0, 65, 72
2, 30090, Note_on_c, 0, 60, 0
2, 30090, Note_on_c, 0, 57, 0
2, 30096, Note_on_c, 0, 65, 0
2, 30120, Note_on_c, 0, 55, 110
2, 30120, Note_on_c, 0, 59, 110
2, 30120, Note_on_c, 0, 62, 110
2, 30150, Note_on_c, 0, 59, 0
2, 30150, Note_on_c, 0, 55, 0
2, 30156, Note_on_c, 0, 62, 0
2, 30180, Note_on_c, 0, 62, 71
2, 30180, Note_on_c, 0, 59, 71
2, 30180, Note_on_c, 0, 55, 71
2, 30216, Note_on_c, 0, 55, 0
2, 30216, Note_on_c, 0, 59, 0
2, 30216, Note_on_c, 0, 62, 0
2, 30240, Note_on_c, 0, 55, 71
2, 30240, Note_on_c, 0, 59, 71
2, 30240, Note_on_c, 0, 62, 71
2, 30270, Note_on_c, 0, 59, 0
2, 30270, Note_on_c, 0, 55, 0
2, 30276, Note_on_c, 0, 62, 0
2, 30300, Note_on_c, 0, 55, 110
2, 30300, Note_on_c, 0, 60, 110
2, 30300, Note_on_c, 0, 64, 110
2, 30330, Note_on_c, 0, 60, 0
2, 30330, Note_on_c, 0, 55, 0
2, 30336, Note_on_c, 0, 64, 0
2, 30360, Note_on_c, 0, 55, 71
2, 30360, Note_on_c, 0, 60, 71
2, 30360, Note_on_c, 0, 64, 71
2, 30396, Note_on_c, 0, 64, 0
2, 30396, Note_on_c, 0, 60, 0
2, 30396, Note_on_c, 0, 55, 0
2, 30420, Note_on_c, 0, 55, 69
2, 30420, Note_on_c, 0, 60, 69
2, 30420, Note_on_c, 0, 64, 69
2, 30450, Note_on_c, 0, 60, 0
2, 30450, Note_on_c, 0, 55, 0
2, 30456, Note_on_c, 0, 64, 0
2, 30480, Note_on_c, 0, 55, 110
2, 30480, Note_on_c, 0, 60, 110
2, 30480, Note_on_c, 0, 64, 110
2, 30510, Note_on_c, 0, 60, 0
2, 30510, Note_on_c, 0, 55, 0
2, 30516, Note_on_c, 0, 64, 0
2, 30540, Note_on_c, 0, 55, 71
2, 30540, Note_on_c, 0, 60, 71
2, 30540, Note_on_c, 0, 64, 71
2, 30576, Note_on_c, 0, 64, 0
2, 30576, Note_on_c, 0, 60, 0
2, 30576, Note_on_c, 0, 55, 0
2, 30600, Note_on_c, 0, 55, 110
2, 30600, Note_on_c, 0, 59, 110
2, 30600, Note_on_c, 0, 64, 110
2, 30630, Note_on_c, 0, 59, 0
2, 30630, Note_on_c, 0, 55, 0
2, 30636, Note_on_c, 0, 64, 0
2, 30660, Note_on_c, 0, 55, 71
2, 30660, Note_on_c, 0, 64, 71
2, 30660, Note_on_c, 0, 59, 71
2, 30696, Note_on_c, 0, 59, 0
2, 30696, Note_on_c, 0, 64, 0
2, 30696, Note_on_c, 0, 55, 0
2, 30720, Note_on_c, 0, 55, 110
2, 30720, Note_on_c, 0, 62, 110
2, 30720, Note_on_c, 0, 64, 110
2, 30750, Note_on_c, 0, 62, 0
2, 30750, Note_on_c, 0, 55, 0
2, 30756, Note_on_c, 0, 64, 0
2, 30780, Note_on_c, 0, 55, 71
2, 30780, Note_on_c, 0, 62, 71
2, 30780, Note_on_c, 0, 64, 71
2, 30816, Note_on_c, 0, 64, 0
2, 30816, Note_on_c, 0, 62, 0
2, 30816, Note_on_c, 0, 55, 0
2, 30840, Note_on_c, 0, 55, 72
2, 30840, Note_on_c, 0, 62, 72
2, 30840, Note_on_c, 0, 64, 72
2, 30870, Note_on_c, 0, 62, 0
2, 30870, Note_on_c, 0, 55, 0
2, 30876, Note_on_c, 0, 64, 0
2, 30900, Note_on_c, 0, 57, 110
2, 30900, Note_on_c, 0, 60, 110
2, 30900, Note_on_c, 0, 65, 110
2, 30930, Note_on_c, 0, 60, 0
2, 30930, Note_on_c, 0, 57, 0
2, 30936, Note_on_c, 0, 65, 0
2, 30960, Note_on_c, 0, 57, 71
2, 30960, Note_on_c, 0, 60, 71
2, 30960, Note_on_c, 0, 65, 71
2, 30996, Note_on_c, 0, 65, 0
2, 30996, Note_on_c, 0, 60, 0
2, 30996, Note_on_c, 0, 57, 0
2, 31020, Note_on_c, 0, 57, 71
2, 31020, Note_on_c, 0, 60, 71
2, 31020, Note_on_c, 0, 65, 71
2, 31050, Note_on_c, 0, 60, 0
2, 31050, Note_on_c, 0, 57, 0
2, 31056, Note_on_c, 0, 65, 0
2, 31080, Note_on_c, 0, 55, 110
2, 31080, Note_on_c, 0, 59, 110
2, 31080, Note_on_c, 0, 62, 110
2, 31110, Note_on_c, 0, 59, 0
2, 31110, Note_on_c, 0, 55, 0
2, 31116, Note_on_c, 0, 62, 0
2, 31140, Note_on_c, 0, 55, 71
2, 31140, Note_on_c, 0, 59, 71
2, 31140, Note_on_c, 0, 62, 71
2, 31176, Note_on_c, 0, 62, 0
2, 31176, Note_on_c, 0, 59, 0
2, 31176, Note_on_c, 0, 55, 0
2, 31200, Note_on_c, 0, 55, 71
2, 31200, Note_on_c, 0, 59, 71
2, 31200, Note_on_c, 0, 62, 71
2, 31230, Note_on_c, 0, 59, 0
2, 31230, Note_on_c, 0, 55, 0
2, 31236, Note_on_c, 0, 62, 0
2, 31260, Note_on_c, 0, 55, 110
2, 31260, Note_on_c, 0, 60, 110
2, 31260, Note_on_c, 0, 64, 110
2, 31290, Note_on_c, 0, 60, 0
2, 31290, Note_on_c, 0, 55, 0
2, 31296, Note_on_c, 0, 64, 0
2, 31320, Note_on_c, 0, 64, 71
2, 31320, Note_on_c, 0, 60, 71
2, 31320, Note_on_c, 0, 55, 71
2, 31356, Note_on_c, 0, 55, 0
2, 31356, Note_on_c, 0, 60, 0
2, 31356, Note_on_c, 0, 64, 0
2, 31380, Note_on_c, 0, 62, 110
2, 31380, Note_on_c, 0, 65, 110
2, 31380, Note_on_c, 0, 55, 110
2, 31410, Note_on_c, 0, 55, 0
2, 31410, Note_on_c, 0, 62, 0
2, 31416, Note_on_c, 0, 65, 0
2, 31440, Note_on_c, 0, 55, 101
2, 31440, Note_on_c, 0, 60, 101
2, 31440, Note_on_c, 0, 64, 101
2, 31548, Note_on_c, 0, 64, 0
2, 31548, Note_on_c, 0, 60, 0
2, 31548, Note_on_c, 0, 55, 0
2, 31560, Note_on_c, 0, 55, 101
2, 31560, Note_on_c, 0, 59, 101
2, 31560, Note_on_c, 0, 62, 101
2, 31668, Note_on_c, 0, 62, 0
2, 31668, Note_on_c, 0, 59, 0
2, 31668, Note_on_c, 0, 55, 0
2, 31680, Note_on_c, 0, 55, 110
2, 31680, Note_on_c, 0, 60, 110
2, 31680, Note_on_c, 0, 64, 110
2, 31710, Note_on_c, 0, 60, 0
2, 31710, Note_on_c, 0, 55, 0
2, 31716, Note_on_c, 0, 64, 0
2, 31740, Note_on_c, 0, 55, 71
2, 31740, Note_on_c, 0, 60, 71
2, 31740, Note_on_c, 0, 64, 71
2, 31776, Note_on_c, 0, 64, 0
2, 31776, Note_on_c, 0, 60, 0
2, 31776, Note_on_c, 0, 55, 0
2, 31800, Note_on_c, 0, 55, 71
2, 31800, Note_on_c, 0, 60, 71
2, 31800, Note_on_c, 0, 64, 71
2, 31836, Note_on_c, 0, 64, 0
2, 31836, Note_on_c, 0, 60, 0
2, 31836, Note_on_c, 0, 55, 0
2, 31860, Note_on_c, 0, 55, 110
2, 31860, Note_on_c, 0, 62, 110
2, 31860, Note_on_c, 0, 64, 110
2, 31890, Note_on_c, 0, 62, 0
2, 31890, Note_on_c, 0, 55, 0
2, 31896, Note_on_c, 0, 64, 0
2, 31920, Note_on_c, 0, 64, 71
2, 31920, Note_on_c, 0, 62, 71
2, 31920, Note_on_c, 0, 55, 71
2, 31956, Note_on_c, 0, 55, 0
2, 31956, Note_on_c, 0, 62, 0
2, 31956, Note_on_c, 0, 64, 0
2, 31980, Note_on_c, 0, 64, 71
2, 31980, Note_on_c, 0, 62, 71
2, 31980, Note_on_c, 0, 55, 71
2, 32016, Note_on_c, 0, 55, 0
2, 32016, Note_on_c, 0, 62, 0
2, 32016, Note_on_c, 0, 64, 0
2, 32040, Note_on_c, 0, 55, 110
2, 32040, Note_on_c, 0, 59, 110
2, 32040, Note_on_c, 0, 64, 110
2, 32070, Note_on_c, 0, 59, 0
2, 32070, Note_on_c, 0, 55, 0
2, 32076, Note_on_c, 0, 64, 0
2, 32100, Note_on_c, 0, 55, 71
2, 32100, Note_on_c, 0, 59, 71
2, 32100, Note_on_c, 0, 64, 71
2, 32136, Note_on_c, 0, 64, 0
2, 32136, Note_on_c, 0, 59, 0
2, 32136, Note_on_c, 0, 55, 0
2, 32160, Note_on_c, 0, 55, 71
2, 32160, Note_on_c, 0, 59, 71
2, 32160, Note_on_c, 0, 64, 71
2, 32196, Note_on_c, 0, 64, 0
2, 32196, Note_on_c, 0, 59, 0
2, 32196, Note_on_c, 0, 55, 0
2, 32220, Note_on_c, 0, 55, 110
2, 32220, Note_on_c, 0, 60, 110
2, 32220, Note_on_c, 0, 64, 110
2, 32250, Note_on_c, 0, 60, 0
2, 32250, Note_on_c, 0, 55, 0
2, 32256, Note_on_c, 0, 64, 0
2, 32280, Note_on_c, 0, 64, 71
2, 32280, Note_on_c, 0, 60, 71
2, 32280, Note_on_c, 0, 55, 71
2, 32316, Note_on_c, 0, 55, 0
2, 32316, Note_on_c, 0, 60, 0
2, 32316, Note_on_c, 0, 64, 0
2, 32340, Note_on_c, 0, 62, 110
2, 32340, Note_on_c, 0, 64, 110
2, 32340, Note_on_c, 0, 55, 110
2, 32376, Note_on_c, 0, 55, 0
2, 32376, Note_on_c, 0, 64, 0
2, 32376, Note_on_c, 0, 62, 0
2, 32400, Note_on_c, 0, 55, 110
2, 32400, Note_on_c, 0, 60, 110
2, 32400, Note_on_c, 0, 64, 110
2, 32430, Note_on_c, 0, 60, 0
2, 32430, Note_on_c, 0, 55, 0
2, 32436, Note_on_c, 0, 64, 0
2, 32460, Note_on_c, 0, 55, 71
2, 32460, Note_on_c, 0, 60, 71
2, 32460, Note_on_c, 0, 64, 71
2, 32496, Note_on_c, 0, 64, 0
2, 32496, Note_on_c, 0, 60, 0
2, 32496, Note_on_c, 0, 55, 0
2, 32520, Note_on_c, 0, 55, 110
2, 32520, Note_on_c, 0, 59, 110
2, 32520, Note_on_c, 0, 64, 110
2, 32550, Note_on_c, 0, 59, 0
2, 32550, Note_on_c, 0, 55, 0
2, 32556, Note_on_c, 0, 64, 0
2, 32580, Note_on_c, 0, 55, 71
2, 32580, Note_on_c, 0, 59, 71
2, 32580, Note_on_c, 0, 64, 71
2, 32616, Note_on_c, 0, 64, 0
2, 32616, Note_on_c, 0, 59, 0
2, 32616, Note_on_c, 0, 55, 0
2, 32640, Note_on_c, 0, 57, 110
2, 32640, Note_on_c, 0, 60, 110
2, 32640, Note_on_c, 0, 65, 110
2, 32670, Note_on_c, 0, 60, 0
2, 32670, Note_on_c, 0, 57, 0
2, 32676, Note_on_c, 0, 65, 0
2, 32700, Note_on_c, 0, 57, 71
2, 32700, Note_on_c, 0, 60, 71
2, 32700, Note_on_c, 0, 65, 71
2, 32736, Note_on_c, 0, 65, 0
2, 32736, Note_on_c, 0, 60, 0
2, 32736, Note_on_c, 0, 57, 0
2, 32760, Note_on_c, 0, 57, 71
2, 32760, Note_on_c, 0, 60, 71
2, 32760, Note_on_c, 0, 65, 71
2, 32796, Note_on_c, 0, 65, 0
2, 32796, Note_on_c, 0, 60, 0
2, 32796, Note_on_c, 0, 57, 0
2, 32820, Note_on_c, 0, 55, 110
2, 32820, Note_on_c, 0, 59, 110
2, 32820, Note_on_c, 0, 65, 110
2, 32850, Note_on_c, 0, 59, 0
2, 32850, Note_on_c, 0, 55, 0
2, 32856, Note_on_c, 0, 65, 0
2, 32880, Note_on_c, 0, 59, 71
2, 32880, Note_on_c, 0, 55, 71
2, 32880, Note_on_c, 0, 65, 71
2, 32916, Note_on_c, 0, 65, 0
2, 32916, Note_on_c, 0, 55, 0
2, 32916, Note_on_c, 0, 59, 0
2, 32940, Note_on_c, 0, 59, 71
2, 32940, Note_on_c, 0, 55, 71
2, 32940, Note_on_c, 0, 65, 71
2, 32976, Note_on_c, 0, 65, 0
2, 32976, Note_on_c, 0, 55, 0
2, 32976, Note_on_c, 0, 59, 0
2, 33000, Note_on_c, 0, 53, 110
2, 33000, Note_on_c, 0, 57, 110
2, 33000, Note_on_c, 0, 65, 110
2, 33030, Note_on_c, 0, 57, 0
2, 33030, Note_on_c, 0, 53, 0
2, 33036, Note_on_c, 0, 65, 0
2, 33060, Note_on_c, 0, 53, 71
2, 33060, Note_on_c, 0, 57, 71
2, 33060, Note_on_c, 0, 65, 71
2, 33096, Note_on_c, 0, 65, 0
2, 33096, Note_on_c, 0, 57, 0
2, 33096, Note_on_c, 0, 53, 0
2, 33120, Note_on_c, 0, 53, 71
2, 33120, Note_on_c, 0, 57, 71
2, 33120, Note_on_c, 0, 65, 71
2, 33156, Note_on_c, 0, 65, 0
2, 33156, Note_on_c, 0, 57, 0
2, 33156, Note_on_c, 0, 53, 0
2, 33180, Note_on_c, 0, 55, 110
2, 33180, Note_on_c, 0, 59, 110
2, 33180, Note_on_c, 0, 65, 110
2, 33210, Note_on_c, 0, 59, 0
2, 33210, Note_on_c, 0, 55, 0
2, 33216, Note_on_c, 0, 65, 0
2, 33240, Note_on_c, 0, 55, 71
2, 33240, Note_on_c, 0, 59, 71
2, 33240, Note_on_c, 0, 65, 71
2, 33276, Note_on_c, 0, 65, 0
2, 33276, Note_on_c, 0, 59, 0
2, 33276, Note_on_c, 0, 55, 0
2, 33300, Note_on_c, 0, 55, 71
2, 33300, Note_on_c, 0, 59, 71
2, 33300, Note_on_c, 0, 65, 71
2, 33336, Note_on_c, 0, 65, 0
2, 33336, Note_on_c, 0, 59, 0
2, 33336, Note_on_c, 0, 55, 0
2, 33360, Note_on_c, 0, 55, 103
2, 33360, Note_on_c, 0, 60, 103
2, 33360, Note_on_c, 0, 65, 103
2, 33468, Note_on_c, 0, 65, 0
2, 33468, Note_on_c, 0, 60, 0
2, 33468, Note_on_c, 0, 55, 0
2, 33480, Note_on_c, 0, 55, 103
2, 33480, Note_on_c, 0, 62, 103
2, 33480, Note_on_c, 0, 65, 103
2, 33588, Note_on_c, 0, 65, 0
2, 33588, Note_on_c, 0, 62, 0
2, 33588, Note_on_c, 0, 55, 0
2, 33600, Note_on_c, 0, 59, 110
2, 33600, Note_on_c, 0, 64, 110
2, 33600, Note_on_c, 0, 67, 110
2, 33636, Note_on_c, 0, 67, 0
2, 33636, Note_on_c, 0, 64, 0
2, 33636, Note_on_c, 0, 59, 0
2, 33660, Note_on_c, 0, 59, 71
2, 33660, Note_on_c, 0, 64, 71
2, 33660, Note_on_c, 0, 67, 71
2, 33696, Note_on_c, 0, 67, 0
2, 33696, Note_on_c, 0, 64, 0
2, 33696, Note_on_c, 0, 59, 0
2, 33720, Note_on_c, 0, 59, 71
2, 33720, Note_on_c, 0, 64, 71
2, 33720, Note_on_c, 0, 67, 71
2, 33756, Note_on_c, 0, 67, 0
2, 33756, Note_on_c, 0, 64, 0
2, 33756, Note_on_c, 0, 59, 0
2, 33780, Note_on_c, 0, 59, 110
2, 33780, Note_on_c, 0, 64, 110
2, 33780, Note_on_c, 0, 69, 110
2, 33816, Note_on_c, 0, 69, 0
2, 33816, Note_on_c, 0, 64, 0
2, 33816, Note_on_c, 0, 59, 0
2, 33840, Note_on_c, 0, 59, 71
2, 33840, Note_on_c, 0, 64, 71
2, 33840, Note_on_c, 0, 69, 71
2, 33876, Note_on_c, 0, 69, 0
2, 33876, Note_on_c, 0, 64, 0
2, 33876, Note_on_c, 0, 59, 0
2, 33900, Note_on_c, 0, 59, 71
2, 33900, Note_on_c, 0, 64, 71
2, 33900, Note_on_c, 0, 69, 71
2, 33936, Note_on_c, 0, 69, 0
2, 33936, Note_on_c, 0, 64, 0
2, 33936, Note_on_c, 0, 59, 0
2, 33960, Note_on_c, 0, 59, 110
2, 33960, Note_on_c, 0, 64, 110
2, 33960, Note_on_c, 0, 67, 110
2, 33996, Note_on_c, 0, 67, 0
2, 33996, Note_on_c, 0, 64, 0
2, 33996, Note_on_c, 0, 59, 0
2, 34020, Note_on_c, 0, 59, 71
2, 34020, Note_on_c, 0, 64, 71
2, 34020, Note_on_c, 0, 67, 71
2, 34056, Note_on_c, 0, 67, 0
2, 34056, Note_on_c, 0, 64, 0
2, 34056, Note_on_c, 0, 59, 0
2, 34080, Note_on_c, 0, 59, 71
2, 34080, Note_on_c, 0, 64, 71
2, 34080, Note_on_c, 0, 67, 71
2, 34116, Note_on_c, 0, 67, 0
2, 34116, Note_on_c, 0, 64, 0
2, 34116, Note_on_c, 0, 59, 0
2, 34140, Note_on_c, 0, 59, 110
2, 34140, Note_on_c, 0, 64, 110
2, 34140, Note_on_c, 0, 69, 110
2, 34176, Note_on_c, 0, 69, 0
2, 34176, Note_on_c, 0, 64, 0
2, 34176, Note_on_c, 0, 59, 0
2, 34200, Note_on_c, 0, 59, 71
2, 34200, Note_on_c, 0, 64, 71
2, 34200, Note_on_c, 0, 69, 71
2, 34236, Note_on_c, 0, 69, 0
2, 34236, Note_on_c, 0, 64, 0
2, 34236, Note_on_c, 0, 59, 0
2, 34260, Note_on_c, 0, 59, 71
2, 34260, Note_on_c, 0, 64, 71
2, 34260, Note_on_c, 0, 69, 71
2, 34296, Note_on_c, 0, 69, 0
2, 34296, Note_on_c, 0, 64, 0
2, 34296, Note_on_c, 0, 59, 0
2, 34320, Note_on_c, 0, 59, 110
2, 34320, Note_on_c, 0, 64, 110
2, 34320, Note_on_c, 0, 67, 110
2, 34356, Note_on_c, 0, 67, 0
2, 34356, Note_on_c, 0, 64, 0
2, 34356, Note_on_c, 0, 59, 0
2, 34380, Note_on_c, 0, 59, 71
2, 34380, Note_on_c, 0, 64, 71
2, 34380, Note_on_c, 0, 67, 71
2, 34416, Note_on_c, 0, 67, 0
2, 34416, Note_on_c, 0, 64, 0
2, 34416, Note_on_c, 0, 59, 0
2, 34440, Note_on_c, 0, 61, 110
2, 34440, Note_on_c, 0, 64, 110
2, 34440, Note_on_c, 0, 67, 110
2, 34476, Note_on_c, 0, 67, 0
2, 34476, Note_on_c, 0, 64, 0
2, 34476, Note_on_c, 0, 61, 0
2, 34500, Note_on_c, 0, 61, 71
2, 34500, Note_on_c, 0, 64, 71
2, 34500, Note_on_c, 0, 67, 71
2, 34536, Note_on_c, 0, 67, 0
2, 34536, Note_on_c, 0, 64, 0
2, 34536, Note_on_c, 0, 61, 0
2, 34560, Note_on_c, 0, 57, 110
2, 34560, Note_on_c, 0, 62, 110
2, 34560, Note_on_c, 0, 65, 110
2, 34596, Note_on_c, 0, 65, 0
2, 34596, Note_on_c, 0, 62, 0
2, 34596, Note_on_c, 0, 57, 0
2, 34620, Note_on_c, 0, 57, 71
2, 34620, Note_on_c, 0, 62, 71
2, 34620, Note_on_c, 0, 65, 71
2, 34656, Note_on_c, 0, 65, 0
2, 34656, Note_on_c, 0, 62, 0
2, 34656, Note_on_c, 0, 57, 0
2, 34680, Note_on_c, 0, 57, 71
2, 34680, Note_on_c, 0, 62, 71
2, 34680, Note_on_c, 0, 65, 71
2, 34716, Note_on_c, 0, 65, 0
2, 34716, Note_on_c, 0, 62, 0
2, 34716, Note_on_c, 0, 57, 0
2, 34740, Note_on_c, 0, 57, 110
2, 34740, Note_on_c, 0, 60, 110
2, 34740, Note_on_c, 0, 64, 110
2, 34776, Note_on_c, 0, 64, 0
2, 34776, Note_on_c, 0, 60, 0
2, 34776, Note_on_c, 0, 57, 0
2, 34800, Note_on_c, 0, 64, 71
2, 34800, Note_on_c, 0, 60, 71
2, 34800, Note_on_c, 0, 57, 71
2, 34836, Note_on_c, 0, 57, 0
2, 34836, Note_on_c, 0, 60, 0
2, 34836, Note_on_c, 0, 64, 0
2, 34860, Note_on_c, 0, 64, 71
2, 34860, Note_on_c, 0, 60, 71
2, 34860, Note_on_c, 0, 57, 71
2, 34896, Note_on_c, 0, 57, 0
2, 34896, Note_on_c, 0, 60, 0
2, 34896, Note_on_c, 0, 64, 0
2, 34920, Note_on_c, 0, 57, 110
2, 34920, Note_on_c, 0, 59, 110
2, 34920, Note_on_c, 0, 62, 110
2, 34956, Note_on_c, 0, 62, 0
2, 34956, Note_on_c, 0, 59, 0
2, 34956, Note_on_c, 0, 57, 0
2, 34980, Note_on_c, 0, 57, 71
2, 34980, Note_on_c, 0, 62, 71
2, 34980, Note_on_c, 0, 59, 71
2, 35016, Note_on_c, 0, 59, 0
2, 35016, Note_on_c, 0, 62, 0
2, 35016, Note_on_c, 0, 57, 0
2, 35040, Note_on_c, 0, 57, 71
2, 35040, Note_on_c, 0, 59, 71
2, 35040, Note_on_c, 0, 62, 71
2, 35076, Note_on_c, 0, 62, 0
2, 35076, Note_on_c, 0, 59, 0
2, 35076, Note_on_c, 0, 57, 0
2, 35100, Note_on_c, 0, 57, 110
2, 35100, Note_on_c, 0, 60, 110
2, 35100, Note_on_c, 0, 64, 110
2, 35136, Note_on_c, 0, 64, 0
2, 35136, Note_on_c, 0, 60, 0
2, 35136, Note_on_c, 0, 57, 0
2, 35160, Note_on_c, 0, 57, 71
2, 35160, Note_on_c, 0, 60, 71
2, 35160, Note_on_c, 0, 64, 71
2, 35196, Note_on_c, 0, 64, 0
2, 35196, Note_on_c, 0, 60, 0
2, 35196, Note_on_c, 0, 57, 0
2, 35220, Note_on_c, 0, 57, 71
2, 35220, Note_on_c, 0, 60, 71
2, 35220, Note_on_c, 0, 64, 71
2, 35256, Note_on_c, 0, 64, 0
2, 35256, Note_on_c, 0, 60, 0
2, 35256, Note_on_c, 0, 57, 0
2, 35280, Note_on_c, 0, 57, 110
2, 35280, Note_on_c, 0, 62, 110
2, 35280, Note_on_c, 0, 65, 110
2, 35316, Note_on_c, 0, 65, 0
2, 35316, Note_on_c, 0, 62, 0
2, 35316, Note_on_c, 0, 57, 0
2, 35340, Note_on_c, 0, 57, 71
2, 35340, Note_on_c, 0, 62, 71
2, 35340, Note_on_c, 0, 65, 71
2, 35376, Note_on_c, 0, 65, 0
2, 35376, Note_on_c, 0, 62, 0
2, 35376, Note_on_c, 0, 57, 0
2, 35400, Note_on_c, 0, 57, 110
2, 35400, Note_on_c, 0, 64, 110
2, 35400, Note_on_c, 0, 67, 110
2, 35436, Note_on_c, 0, 67, 0
2, 35436, Note_on_c, 0, 64, 0
2, 35436, Note_on_c, 0, 57, 0
2, 35460, Note_on_c, 0, 57, 71
2, 35460, Note_on_c, 0, 64, 71
2, 35460, Note_on_c, 0, 67, 71
2, 35496, Note_on_c, 0, 67, 0
2, 35496, Note_on_c, 0, 64, 0
2, 35496, Note_on_c, 0, 57, 0
2, 35520, Note_on_c, 0, 62, 110
2, 35520, Note_on_c, 0, 57, 110
2, 35520, Note_on_c, 0, 65, 110
2, 35556, Note_on_c, 0, 65, 0
2, 35556, Note_on_c, 0, 57, 0
2, 35556, Note_on_c, 0, 62, 0
2, 35580, Note_on_c, 0, 57, 71
2, 35580, Note_on_c, 0, 62, 71
2, 35580, Note_on_c, 0, 65, 71
2, 35616, Note_on_c, 0, 65, 0
2, 35616, Note_on_c, 0, 62, 0
2, 35616, Note_on_c, 0, 57, 0
2, 35640, Note_on_c, 0, 57, 71
2, 35640, Note_on_c, 0, 62, 71
2, 35640, Note_on_c, 0, 65, 71
2, 35676, Note_on_c, 0, 65, 0
2, 35676, Note_on_c, 0, 62, 0
2, 35676, Note_on_c, 0, 57, 0
2, 35700, Note_on_c, 0, 60, 110
2, 35700, Note_on_c, 0, 57, 110
2, 35700, Note_on_c, 0, 64, 110
2, 35736, Note_on_c, 0, 64, 0
2, 35736, Note_on_c, 0, 57, 0
2, 35736, Note_on_c, 0, 60, 0
2, 35760, Note_on_c, 0, 57, 71
2, 35760, Note_on_c, 0, 60, 71
2, 35760, Note_on_c, 0, 64, 71
2, 35796, Note_on_c, 0, 64, 0
2, 35796, Note_on_c, 0, 60, 0
2, 35796, Note_on_c, 0, 57, 0
2, 35820, Note_on_c, 0, 57, 71
2, 35820, Note_on_c, 0, 60, 71
2, 35820, Note_on_c, 0, 64, 71
2, 35856, Note_on_c, 0, 64, 0
2, 35856, Note_on_c, 0, 60, 0
2, 35856, Note_on_c, 0, 57, 0
2, 35880, Note_on_c, 0, 59, 110
2, 35880, Note_on_c, 0, 57, 110
2, 35880, Note_on_c, 0, 62, 110
2, 35916, Note_on_c, 0, 62, 0
2, 35916, Note_on_c, 0, 57, 0
2, 35916, Note_on_c, 0, 59, 0
2, 35940, Note_on_c, 0, 62, 71
2, 35940, Note_on_c, 0, 59, 71
2, 35940, Note_on_c, 0, 57, 71
2, 35976, Note_on_c, 0, 57, 0
2, 35976, Note_on_c, 0, 59, 0
2, 35976, Note_on_c, 0, 62, 0
2, 36000, Note_on_c, 0, 59, 71
2, 36000, Note_on_c, 0, 62, 71
2, 36000, Note_on_c, 0, 57, 71
2, 36036, Note_on_c, 0, 57, 0
2, 36036, Note_on_c, 0, 62, 0
2, 36036, Note_on_c, 0, 59, 0
2, 36060, Note_on_c, 0, 60, 110
2, 36060, Note_on_c, 0, 57, 110
2, 36060, Note_on_c, 0, 64, 110
2, 36096, Note_on_c, 0, 64, 0
2, 36096, Note_on_c, 0, 57, 0
2, 36096, Note_on_c, 0, 60, 0
2, 36120, Note_on_c, 0, 57, 71
2, 36120, Note_on_c, 0, 60, 71
2, 36120, Note_on_c, 0, 64, 71
2, 36156, Note_on_c, 0, 64, 0
2, 36156, Note_on_c, 0, 60, 0
2, 36156, Note_on_c, 0, 57, 0
2, 36180, Note_on_c, 0, 57, 71
2, 36180, Note_on_c, 0, 60, 71
2, 36180, Note_on_c, 0, 64, 71
2, 36216, Note_on_c, 0, 64, 0
2, 36216, Note_on_c, 0, 60, 0
2, 36216, Note_on_c, 0, 57, 0
2, 36240, Note_on_c, 0, 62, 110
2, 36240, Note_on_c, 0, 57, 110
2, 36240, Note_on_c, 0, 65, 110
2, 36276, Note_on_c, 0, 65, 0
2, 36276, Note_on_c, 0, 57, 0
2, 36276, Note_on_c, 0, 62, 0
2, 36300, Note_on_c, 0, 57, 71
2, 36300, Note_on_c, 0, 62, 71
2, 36300, Note_on_c, 0, 65, 71
2, 36336, Note_on_c, 0, 65, 0
2, 36336, Note_on_c, 0, 62, 0
2, 36336, Note_on_c, 0, 57, 0
2, 36360, Note_on_c, 0, 64, 110
2, 36360, Note_on_c, 0, 57, 110
2, 36360, Note_on_c, 0, 67, 110
2, 36396, Note_on_c, 0, 67, 0
2, 36396, Note_on_c, 0, 57, 0
2, 36396, Note_on_c, 0, 64, 0
2, 36420, Note_on_c, 0, 57, 71
2, 36420, Note_on_c, 0, 64, 71
2, 36420, Note_on_c, 0, 67, 71
2, 36456, Note_on_c, 0, 67, 0
2, 36456, Note_on_c, 0, 64, 0
2, 36456, Note_on_c, 0, 57, 0
2, 36480, Note_on_c, 0, 62, 110
2, 36480, Note_on_c, 0, 56, 110
2, 36480, Note_on_c, 0, 65, 110
2, 36516, Note_on_c, 0, 65, 0
2, 36516, Note_on_c, 0, 56, 0
2, 36516, Note_on_c, 0, 62, 0
2, 36540, Note_on_c, 0, 56, 71
2, 36540, Note_on_c, 0, 62, 71
2, 36540, Note_on_c, 0, 65, 71
2, 36576, Note_on_c, 0, 65, 0
2, 36576, Note_on_c, 0, 62, 0
2, 36576, Note_on_c, 0, 56, 0
2, 36600, Note_on_c, 0, 56, 71
2, 36600, Note_on_c, 0, 62, 71
2, 36600, Note_on_c, 0, 65, 71
2, 36636, Note_on_c, 0, 65, 0
2, 36636, Note_on_c, 0, 62, 0
2, 36636, Note_on_c, 0, 56, 0
2, 36660, Note_on_c, 0, 60, 110
2, 36660, Note_on_c, 0, 56, 110
2, 36660, Note_on_c, 0, 64, 110
2, 36696, Note_on_c, 0, 64, 0
2, 36696, Note_on_c, 0, 56, 0
2, 36696, Note_on_c, 0, 60, 0
2, 36720, Note_on_c, 0, 56, 71
2, 36720, Note_on_c, 0, 60, 71
2, 36720, Note_on_c, 0, 64, 71
2, 36756, Note_on_c, 0, 64, 0
2, 36756, Note_on_c, 0, 60, 0
2, 36756, Note_on_c, 0, 56, 0
2, 36780, Note_on_c, 0, 56, 71
2, 36780, Note_on_c, 0, 60, 71
2, 36780, Note_on_c, 0, 64, 71
2, 36816, Note_on_c, 0, 64, 0
2, 36816, Note_on_c, 0, 60, 0
2, 36816, Note_on_c, 0, 56, 0
2, 36840, Note_on_c, 0, 59, 110
2, 36840, Note_on_c, 0, 56, 110
2, 36840, Note_on_c, 0, 62, 110
2, 36876, Note_on_c, 0, 62, 0
2, 36876, Note_on_c, 0, 56, 0
2, 36876, Note_on_c, 0, 59, 0
2, 36900, Note_on_c, 0, 56, 71
2, 36900, Note_on_c, 0, 59, 71
2, 36900, Note_on_c, 0, 62, 71
2, 36936, Note_on_c, 0, 62, 0
2, 36936, Note_on_c, 0, 59, 0
2, 36936, Note_on_c, 0, 56, 0
2, 36960, Note_on_c, 0, 56, 71
2, 36960, Note_on_c, 0, 59, 71
2, 36960, Note_on_c, 0, 62, 71
2, 36996, Note_on_c, 0, 62, 0
2, 36996, Note_on_c, 0, 59, 0
2, 36996, Note_on_c, 0, 56, 0
2, 37020, Note_on_c, 0, 60, 110
2, 37020, Note_on_c, 0, 56, 110
2, 37020, Note_on_c, 0, 64, 110
2, 37056, Note_on_c, 0, 64, 0
2, 37056, Note_on_c, 0, 56, 0
2, 37056, Note_on_c, 0, 60, 0
2, 37080, Note_on_c, 0, 56, 71
2, 37080, Note_on_c, 0, 60, 71
2, 37080, Note_on_c, 0, 64, 71
2, 37116, Note_on_c, 0, 64, 0
2, 37116, Note_on_c, 0, 60, 0
2, 37116, Note_on_c, 0, 56, 0
2, 37140, Note_on_c, 0, 56, 71
2, 37140, Note_on_c, 0, 60, 71
2, 37140, Note_on_c, 0, 64, 71
2, 37176, Note_on_c, 0, 64, 0
2, 37176, Note_on_c, 0, 60, 0
2, 37176, Note_on_c, 0, 56, 0
2, 37200, Note_on_c, 0, 62, 110
2, 37200, Note_on_c, 0, 56, 110
2, 37200, Note_on_c, 0, 65, 110
2, 37236, Note_on_c, 0, 65, 0
2, 37236, Note_on_c, 0, 56, 0
2, 37236, Note_on_c, 0, 62, 0
2, 37260, Note_on_c, 0, 56, 71
2, 37260, Note_on_c, 0, 62, 71
2, 37260, Note_on_c, 0, 65, 71
2, 37296, Note_on_c, 0, 65, 0
2, 37296, Note_on_c, 0, 62, 0
2, 37296, Note_on_c, 0, 56, 0
2, 37320, Note_on_c, 0, 59, 110
2, 37320, Note_on_c, 0, 55, 110
2, 37320, Note_on_c, 0, 62, 110
2, 37356, Note_on_c, 0, 62, 0
2, 37356, Note_on_c, 0, 55, 0
2, 37356, Note_on_c, 0, 59, 0
2, 37380, Note_on_c, 0, 55, 71
2, 37380, Note_on_c, 0, 59, 71
2, 37380, Note_on_c, 0, 62, 71
2, 37416, Note_on_c, 0, 62, 0
2, 37416, Note_on_c, 0, 59, 0
2, 37416, Note_on_c, 0, 55, 0
2, 37440, Note_on_c, 0, 55, 110
2, 37440, Note_on_c, 0, 64, 110
2, 37440, Note_on_c, 0, 62, 110
2, 37470, Note_on_c, 0, 62, 0
2, 37470, Note_on_c, 0, 55, 0
2, 37476, Note_on_c, 0, 64, 0
2, 37500, Note_on_c, 0, 55, 71
2, 37500, Note_on_c, 0, 62, 71
2, 37500, Note_on_c, 0, 64, 71
2, 37536, Note_on_c, 0, 64, 0
2, 37536, Note_on_c, 0, 62, 0
2, 37536, Note_on_c, 0, 55, 0
2, 37560, Note_on_c, 0, 62, 73
2, 37560, Note_on_c, 0, 64, 73
2, 37560, Note_on_c, 0, 55, 73
2, 37590, Note_on_c, 0, 55, 0
2, 37590, Note_on_c, 0, 62, 0
2, 37596, Note_on_c, 0, 64, 0
2, 37620, Note_on_c, 0, 57, 110
2, 37620, Note_on_c, 0, 60, 110
2, 37620, Note_on_c, 0, 65, 110
2, 37650, Note_on_c, 0, 60, 0
2, 37650, Note_on_c, 0, 57, 0
2, 37656, Note_on_c, 0, 65, 0
2, 37680, Note_on_c, 0, 65, 71
2, 37680, Note_on_c, 0, 60, 71
2, 37680, Note_on_c, 0, 57, 71
2, 37716, Note_on_c, 0, 57, 0
2, 37716, Note_on_c, 0, 60, 0
2, 37716, Note_on_c, 0, 65, 0
2, 37740, Note_on_c, 0, 57, 72
2, 37740, Note_on_c, 0, 60, 72
2, 37740, Note_on_c, 0, 65, 72
2, 37770, Note_on_c, 0, 60, 0
2, 37770, Note_on_c, 0, 57, 0
2, 37776, Note_on_c, 0, 65, 0
2, 37800, Note_on_c, 0, 55, 110
2, 37800, Note_on_c, 0, 59, 110
2, 37800, Note_on_c, 0, 62, 110
2, 37830, Note_on_c, 0, 59, 0
2, 37830, Note_on_c, 0, 55, 0
2, 37836, Note_on_c, 0, 62, 0
2, 37860, Note_on_c, 0, 62, 71
2, 37860, Note_on_c, 0, 59, 71
2, 37860, Note_on_c, 0, 55, 71
2, 37896, Note_on_c, 0, 55, 0
2, 37896, Note_on_c, 0, 59, 0
2, 37896, Note_on_c, 0, 62, 0
2, 37920, Note_on_c, 0, 55, 71
2, 37920, Note_on_c, 0, 59, 71
2, 37920, Note_on_c, 0, 62, 71
2, 37950, Note_on_c, 0, 59, 0
2, 37950, Note_on_c, 0, 55, 0
2, 37956, Note_on_c, 0, 62, 0
2, 37980, Note_on_c, 0, 55, 110
2, 37980, Note_on_c, 0, 60, 110
2, 37980, Note_on_c, 0, 64, 110
2, 38010, Note_on_c, 0, 60, 0
2, 38010, Note_on_c, 0, 55, 0
2, 38016, Note_on_c, 0, 64, 0
2, 38040, Note_on_c, 0, 55, 71
2, 38040, Note_on_c, 0, 60, 71
2, 38040, Note_on_c, 0, 64, 71
2, 38076, Note_on_c, 0, 64, 0
2, 38076, Note_on_c, 0, 60, 0
2, 38076, Note_on_c, 0, 55, 0
2, 38100, Note_on_c, 0, 55, 69
2, 38100, Note_on_c, 0, 60, 69
2, 38100, Note_on_c, 0, 64, 69
2, 38130, Note_on_c, 0, 60, 0
2, 38130, Note_on_c, 0, 55, 0
2, 38136, Note_on_c, 0, 64, 0
2, 38160, Note_on_c, 0, 55, 110
2, 38160, Note_on_c, 0, 60, 110
2, 38160, Note_on_c, 0, 64, 110
2, 38190, Note_on_c, 0, 60, 0
2, 38190, Note_on_c, 0, 55, 0
2, 38196, Note_on_c, 0, 64, 0
2, 38220, Note_on_c, 0, 55, 71
2, 38220, Note_on_c, 0, 60, 71
2, 38220, Note_on_c, 0, 64, 71
2, 38256, Note_on_c, 0, 64, 0
2, 38256, Note_on_c, 0, 60, 0
2, 38256, Note_on_c, 0, 55, 0
2, 38280, Note_on_c, 0, 55, 110
2, 38280, Note_on_c, 0, 59, 110
2, 38280, Note_on_c, 0, 64, 110
2, 38310, Note_on_c, 0, 59, 0
2, 38310, Note_on_c, 0, 55, 0
2, 38316, Note_on_c, 0, 64, 0
2, 38340, Note_on_c, 0, 55, 71
2, 38340, Note_on_c, 0, 64, 71
2, 38340, Note_on_c, 0, 59, 71
2, 38376, Note_on_c, 0, 59, 0
2, 38376, Note_on_c, 0, 64, 0
2, 38376, Note_on_c, 0, 55, 0
2, 38400, Note_on_c, 0, 55, 110
2, 38400, Note_on_c, 0, 62, 110
2, 38400, Note_on_c, 0, 64, 110
2, 38430, Note_on_c, 0, 62, 0
2, 38430, Note_on_c, 0, 55, 0
2, 38436, Note_on_c, 0, 64, 0
2, 38460, Note_on_c, 0, 55, 71
2, 38460, Note_on_c, 0, 62, 71
2, 38460, Note_on_c, 0, 64, 71
2, 38496, Note_on_c, 0, 64, 0
2, 38496, Note_on_c, 0, 62, 0
2, 38496, Note_on_c, 0, 55, 0
2, 38520, Note_on_c, 0, 55, 72
2, 38520, Note_on_c, 0, 62, 72
2, 38520, Note_on_c, 0, 64, 72
2, 38550, Note_on_c, 0, 62, 0
2, 38550, Note_on_c, 0, 55, 0
2, 38556, Note_on_c, 0, 64, 0
2, 38580, Note_on_c, 0, 57, 110
2, 38580, Note_on_c, 0, 60, 110
2, 38580, Note_on_c, 0, 65, 110
2, 38610, Note_on_c, 0, 60, 0
2, 38610, Note_on_c, 0, 57, 0
2, 38616, Note_on_c, 0, 65, 0
2, 38640, Note_on_c, 0, 57, 71
2, 38640, Note_on_c, 0, 60, 71
2, 38640, Note_on_c, 0, 65, 71
2, 38676, Note_on_c, 0, 65, 0
2, 38676, Note_on_c, 0, 60, 0
2, 38676, Note_on_c, 0, 57, 0
2, 38700, Note_on_c, 0, 57, 71
2, 38700, Note_on_c, 0, 60, 71
2, 38700, Note_on_c, 0, 65, 71
2, 38730, Note_on_c, 0, 60, 0
2, 38730, Note_on_c, 0, 57, 0
2, 38736, Note_on_c, 0, 65, 0
2, 38760, Note_on_c, 0, 55, 110
2, 38760, Note_on_c, 0, 59, 110
2, 38760, Note_on_c, 0, 62, 110
2, 38790, Note_on_c, 0, 59, 0
2, 38790, Note_on_c, 0, 55, 0
2, 38796, Note_on_c, 0, 62, 0
2, 38820, Note_on_c, 0, 55, 71
2, 38820, Note_on_c, 0, 59, 71
2, 38820, Note_on_c, 0, 62, 71
2, 38856, Note_on_c, 0, 62, 0
2, 38856, Note_on_c, 0, 59, 0
2, 38856, Note_on_c, 0, 55, 0
2, 38880, Note_on_c, 0, 55, 71
2, 38880, Note_on_c, 0, 59, 71
2, 38880, Note_on_c, 0, 62, 71
2, 38910, Note_on_c, 0, 59, 0
2, 38910, Note_on_c, 0, 55, 0
2, 38916, Note_on_c, 0, 62, 0
2, 38940, Note_on_c, 0, 55, 110
2, 38940, Note_on_c, 0, 60, 110
2, 38940, Note_on_c, 0, 64, 110
2, 38970, Note_on_c, 0, 60, 0
2, 38970, Note_on_c, 0, 55, 0
2, 38976, Note_on_c, 0, 64, 0
2, 39000, Note_on_c, 0, 64, 71
2, 39000, Note_on_c, 0, 60, 71
2, 39000, Note_on_c, 0, 55, 71
2, 39036, Note_on_c, 0, 55, 0
2, 39036, Note_on_c, 0, 60, 0
2, 39036, Note_on_c, 0, 64, 0
2, 39060, Note_on_c, 0, 62, 110
2, 39060, Note_on_c, 0, 65, 110
2, 39060, Note_on_c, 0, 55, 110
2, 39090, Note_on_c, 0, 55, 0
2, 39090, Note_on_c, 0, 62, 0
2, 39096, Note_on_c, 0, 65, 0
2, 39120, Note_on_c, 0, 55, 101
2, 39120, Note_on_c, 0, 60, 101
2, 39120, Note_on_c, 0, 64, 101
2, 39228, Note_on_c, 0, 64, 0
2, 39228, Note_on_c, 0, 60, 0
2, 39228, Note_on_c, 0, 55, 0
2, 39240, Note_on_c, 0, 55, 101
2, 39240, Note_on_c, 0, 59, 101
2, 39240, Note_on_c, 0, 62, 101
2, 39348, Note_on_c, 0, 62, 0
2, 39348, Note_on_c, 0, 59, 0
2, 39348, Note_on_c, 0, 55, 0
2, 39360, Note_on_c, 0, 55, 110
2, 39360, Note_on_c, 0, 60, 110
2, 39360, Note_on_c, 0, 64, 110
2, 39390, Note_on_c, 0, 60, 0
2, 39390, Note_on_c, 0, 55, 0
2, 39396, Note_on_c, 0, 64, 0
2, 39420, Note_on_c, 0, 55, 71
2, 39420, Note_on_c, 0, 60, 71
2, 39420, Note_on_c, 0, 64, 71
2, 39456, Note_on_c, 0, 64, 0
2, 39456, Note_on_c, 0, 60, 0
2, 39456, Note_on_c, 0, 55, 0
2, 39480, Note_on_c, 0, 55, 71
2, 39480, Note_on_c, 0, 60, 71
2, 39480, Note_on_c, 0, 64, 71
2, 39516, Note_on_c, 0, 64, 0
2, 39516, Note_on_c, 0, 60, 0
2, 39516, Note_on_c, 0, 55, 0
2, 39540, Note_on_c, 0, 55, 110
2, 39540, Note_on_c, 0, 62, 110
2, 39540, Note_on_c, 0, 64, 110
2, 39570, Note_on_c, 0, 62, 0
2, 39570, Note_on_c, 0, 55, 0
2, 39576, Note_on_c, 0, 64, 0
2, 39600, Note_on_c, 0, 64, 71
2, 39600, Note_on_c, 0, 62, 71
2, 39600, Note_on_c, 0, 55, 71
2, 39636, Note_on_c, 0, 55, 0
2, 39636, Note_on_c, 0, 62, 0
2, 39636, Note_on_c, 0, 64, 0
2, 39660, Note_on_c, 0, 64, 71
2, 39660, Note_on_c, 0, 62, 71
2, 39660, Note_on_c, 0, 55, 71
2, 39696, Note_on_c, 0, 55, 0
2, 39696, Note_on_c, 0, 62, 0
2, 39696, Note_on_c, 0, 64, 0
2, 39720, Note_on_c, 0, 55, 110
2, 39720, Note_on_c, 0, 59, 110
2, 39720, Note_on_c, 0, 64, 110
2, 39750, Note_on_c, 0, 59, 0
2, 39750, Note_on_c, 0, 55, 0
2, 39756, Note_on_c, 0, 64, 0
2, 39780, Note_on_c, 0, 55, 71
2, 39780, Note_on_c, 0, 59, 71
2, 39780, Note_on_c, 0, 64, 71
2, 39816, Note_on_c, 0, 64, 0
2, 39816, Note_on_c, 0, 59, 0
2, 39816, Note_on_c, 0, 55, 0
2, 39840, Note_on_c, 0, 55, 71
2, 39840, Note_on_c, 0, 59, 71
2, 39840, Note_on_c, 0, 64, 71
2, 39876, Note_on_c, 0, 64, 0
2, 39876, Note_on_c, 0, 59, 0
2, 39876, Note_on_c, 0, 55, 0
2, 39900, Note_on_c, 0, 55, 110
2, 39900, Note_on_c, 0, 60, 110
2, 39900, Note_on_c, 0, 64, 110
2, 39930, Note_on_c, 0, 60, 0
2, 39930, Note_on_c, 0, 55, 0
2, 39936, Note_on_c, 0, 64, 0
2, 39960, Note_on_c, 0, 64, 71
2, 39960, Note_on_c, 0, 60, 71
2, 39960, Note_on_c, 0, 55, 71
2, 39996, Note_on_c, 0, 55, 0
2, 39996, Note_on_c, 0, 60, 0
2, 39996, Note_on_c, 0, 64, 0
2, 40020, Note_on_c, 0, 62, 110
2, 40020, Note_on_c, 0, 64, 110
2, 40020, Note_on_c, 0, 55, 110
2, 40056, Note_on_c, 0, 55, 0
2, 40056, Note_on_c, 0, 64, 0
2, 40056, Note_on_c, 0, 62, 0
2, 40080, Note_on_c, 0, 55, 110
2, 40080, Note_on_c, 0, 60, 110
2, 40080, Note_on_c, 0, 64, 110
2, 40110, Note_on_c, 0, 60, 0
2, 40110, Note_on_c, 0, 55, 0
2, 40116, Note_on_c, 0, 64, 0
2, 40140, Note_on_c, 0, 55, 71
2, 40140, Note_on_c, 0, 60, 71
2, 40140, Note_on_c, 0, 64, 71
2, 40176, Note_on_c, 0, 64, 0
2, 40176, Note_on_c, 0, 60, 0
2, 40176, Note_on_c, 0, 55, 0
2, 40200, Note_on_c, 0, 55, 110
2, 40200, Note_on_c, 0, 59, 110
2, 40200, Note_on_c, 0, 64, 110
2, 40230, Note_on_c, 0, 59, 0
2, 40230, Note_on_c, 0, 55, 0
2, 40236, Note_on_c, 0, 64, 0
2, 40260, Note_on_c, 0, 55, 71
2, 40260, Note_on_c, 0, 59, 71
2, 40260, Note_on_c, 0, 64, 71
2, 40296, Note_on_c, 0, 64, 0
2, 40296, Note_on_c, 0, 59, 0
2, 40296, Note_on_c, 0, 55, 0
2, 40320, Note_on_c, 0, 57, 110
2, 40320, Note_on_c, 0, 60, 110
2, 40320, Note_on_c, 0, 65, 110
2, 40350, Note_on_c, 0, 60, 0
2, 40350, Note_on_c, 0, 57, 0
2, 40356, Note_on_c, 0, 65, 0
2, 40380, Note_on_c, 0, 57, 71
2, 40380, Note_on_c, 0, 60, 71
2, 40380, Note_on_c, 0, 65, 71
2, 40416, Note_on_c, 0, 65, 0
2, 40416, Note_on_c, 0, 60, 0
2, 40416, Note_on_c, 0, 57, 0
2, 40440, Note_on_c, 0, 57, 71
2, 40440, Note_on_c, 0, 60, 71
2, 40440, Note_on_c, 0, 65, 71
2, 40476, Note_on_c, 0, 65, 0
2, 40476, Note_on_c, 0, 60, 0
2, 40476, Note_on_c, 0, 57, 0
2, 40500, Note_on_c, 0, 55, 110
2, 40500, Note_on_c, 0, 59, 110
2, 40500, Note_on_c, 0, 65, 110
2, 40530, Note_on_c, 0, 59, 0
2, 40530, Note_on_c, 0, 55, 0
2, 40536, Note_on_c, 0, 65, 0
2, 40560, Note_on_c, 0, 59, 71
2, 40560, Note_on_c, 0, 55, 71
2, 40560, Note_on_c, 0, 65, 71
2, 40596, Note_on_c, 0, 65, 0
2, 40596, Note_on_c, 0, 55, 0
2, 40596, Note_on_c, 0, 59, 0
2, 40620, Note_on_c, 0, 59, 71
2, 40620, Note_on_c, 0, 55, 71
2, 40620, Note_on_c, 0, 65, 71
2, 40656, Note_on_c, 0, 65, 0
2, 40656, Note_on_c, 0, 55, 0
2, 40656, Note_on_c, 0, 59, 0
2, 40680, Note_on_c, 0, 53, 110
2, 40680, Note_on_c, 0, 57, 110
2, 40680, Note_on_c, 0, 65, 110
2, 40710, Note_on_c, 0, 57, 0
2, 40710, Note_on_c, 0, 53, 0
2, 40716, Note_on_c, 0, 65, 0
2, 40740, Note_on_c, 0, 53, 71
2, 40740, Note_on_c, 0, 57, 71
2, 40740, Note_on_c, 0, 65, 71
2, 40776, Note_on_c, 0, 65, 0
2, 40776, Note_on_c, 0, 57, 0
2, 40776, Note_on_c, 0, 53, 0
2, 40800, Note_on_c, 0, 53, 71
2, 40800, Note_on_c, 0, 57, 71
2, 40800, Note_on_c, 0, 65, 71
2, 40836, Note_on_c, 0, 65, 0
2, 40836, Note_on_c, 0, 57, 0
2, 40836, Note_on_c, 0, 53, 0
2, 40860, Note_on_c, 0, 55, 110
2, 40860, Note_on_c, 0, 59, 110
2, 40860, Note_on_c, 0, 65, 110
2, 40890, Note_on_c, 0, 59, 0
2, 40890, Note_on_c, 0, 55, 0
2, 40896, Note_on_c, 0, 65, 0
2, 40920, Note_on_c, 0, 55, 71
2, 40920, Note_on_c, 0, 59, 71
2, 40920, Note_on_c, 0, 65, 71
2, 40956, Note_on_c, 0, 65, 0
2, 40956, Note_on_c, 0, 59, 0
2, 40956, Note_on_c, 0, 55, 0
2, 40980, Note_on_c, 0, 55, 71
2, 40980, Note_on_c, 0, 59, 71
2, 40980, Note_on_c, 0, 65, 71
2, 41016, Note_on_c, 0, 65, 0
2, 41016, Note_on_c, 0, 59, 0
2, 41016, Note_on_c, 0, 55, 0
2, 41040, Note_on_c, 0, 55, 103
2, 41040, Note_on_c, 0, 60, 103
2, 41040, Note_on_c, 0, 65, 103
2, 41148, Note_on_c, 0, 65, 0
2, 41148, Note_on_c, 0, 60, 0
2, 41148, Note_on_c, 0, 55, 0
2, 41160, Note_on_c, 0, 55, 103
2, 41160, Note_on_c, 0, 62, 103
2, 41160, Note_on_c, 0, 65, 103
2, 41268, Note_on_c, 0, 65, 0
2, 41268, Note_on_c, 0, 62, 0
2, 41268, Note_on_c, 0, 55, 0
2, 41280, Note_on_c, 0, 59, 110
2, 41280, Note_on_c, 0, 64, 110
2, 41280, Note_on_c, 0, 67, 110
2, 41316, Note_on_c, 0, 67, 0
2, 41316, Note_on_c, 0, 64, 0
2, 41316, Note_on_c, 0, 59, 0
2, 41340, Note_on_c, 0, 59, 71
2, 41340, Note_on_c, 0, 64, 71
2, 41340, Note_on_c, 0, 67, 71
2, 41376, Note_on_c, 0, 67, 0
2, 41376, Note_on_c, 0, 64, 0
2, 41376, Note_on_c, 0, 59, 0
2, 41400, Note_on_c, 0, 59, 71
2, 41400, Note_on_c, 0, 64, 71
2, 41400, Note_on_c, 0, 67, 71
2, 41436, Note_on_c, 0, 67, 0
2, 41436, Note_on_c, 0, 64, 0
2, 41436, Note_on_c, 0, 59, 0
2, 41460, Note_on_c, 0, 59, 110
2, 41460, Note_on_c, 0, 64, 110
2, 41460, Note_on_c, 0, 69, 110
2, 41496, Note_on_c, 0, 69, 0
2, 41496, Note_on_c, 0, 64, 0
2, 41496, Note_on_c, 0, 59, 0
2, 41520, Note_on_c, 0, 59, 71
2, 41520, Note_on_c, 0, 64, 71
2, 41520, Note_on_c, 0, 69, 71
2, 41556, Note_on_c, 0, 69, 0
2, 41556, Note_on_c, 0, 64, 0
2, 41556, Note_on_c, 0, 59, 0
2, 41580, Note_on_c, 0, 59, 71
2, 41580, Note_on_c, 0, 64, 71
2, 41580, Note_on_c, 0, 69, 71
2, 41616, Note_on_c, 0, 69, 0
2, 41616, Note_on_c, 0, 64, 0
2, 41616, Note_on_c, 0, 59, 0
2, 41640, Note_on_c, 0, 59, 110
2, 41640, Note_on_c, 0, 64, 110
2, 41640, Note_on_c, 0, 67, 110
2, 41676, Note_on_c, 0, 67, 0
2, 41676, Note_on_c, 0, 64, 0
2, 41676, Note_on_c, 0, 59, 0
2, 41700, Note_on_c, 0, 59, 71
2, 41700, Note_on_c, 0, 64, 71
2, 41700, Note_on_c, 0, 67, 71
2, 41736, Note_on_c, 0, 67, 0
2, 41736, Note_on_c, 0, 64, 0
2, 41736, Note_on_c, 0, 59, 0
2, 41760, Note_on_c, 0, 59, 71
2, 41760, Note_on_c, 0, 64, 71
2, 41760, Note_on_c, 0, 67, 71
2, 41796, Note_on_c, 0, 67, 0
2, 41796, Note_on_c, 0, 64, 0
2, 41796, Note_on_c, 0, 59, 0
2, 41820, Note_on_c, 0, 59, 110
2, 41820, Note_on_c, 0, 64, 110
2, 41820, Note_on_c, 0, 69, 110
2, 41856, Note_on_c, 0, 69, 0
2, 41856, Note_on_c, 0, 64, 0
2, 41856, Note_on_c, 0, 59, 0
2, 41880, Note_on_c, 0, 59, 71
2, 41880, Note_on_c, 0, 64, 71
2, 41880, Note_on_c, 0, 69, 71
2, 41916, Note_on_c, 0, 69, 0
2, 41916, Note_on_c, 0, 64, 0
2, 41916, Note_on_c, 0, 59, 0
2, 41940, Note_on_c, 0, 59, 71
2, 41940, Note_on_c, 0, 64, 71
2, 41940, Note_on_c, 0, 69, 71
2, 41976, Note_on_c, 0, 69, 0
2, 41976, Note_on_c, 0, 64, 0
2, 41976, Note_on_c, 0, 59, 0
2, 42000, Note_on_c, 0, 59, 110
2, 42000, Note_on_c, 0, 64, 110
2, 42000, Note_on_c, 0, 67, 110
2, 42036, Note_on_c, 0, 67, 0
2, 42036, Note_on_c, 0, 64, 0
2, 42036, Note_on_c, 0, 59, 0
2, 42060, Note_on_c, 0, 59, 71
2, 42060, Note_on_c, 0, 64, 71
2, 42060, Note_on_c, 0, 67, 71
2, 42096, Note_on_c, 0, 67, 0
2, 42096, Note_on_c, 0, 64, 0
2, 42096, Note_on_c, 0, 59, 0
2, 42120, Note_on_c, 0, 61, 110
2, 42120, Note_on_c, 0, 64, 110
2, 42120, Note_on_c, 0, 67, 110
2, 42156, Note_on_c, 0, 67, 0
2, 42156, Note_on_c, 0, 64, 0
2, 42156, Note_on_c, 0, 61, 0
2, 42180, Note_on_c, 0, 61, 71
2, 42180, Note_on_c, 0, 64, 71
2, 42180, Note_on_c, 0, 67, 71
2, 42216, Note_on_c, 0, 67, 0
2, 42216, Note_on_c, 0, 64, 0
2, 42216, Note_on_c, 0, 61, 0
2, 42240, Note_on_c, 0, 57, 110
2, 42240, Note_on_c, 0, 62, 110
2, 42240, Note_on_c, 0, 65, 110
2, 42276, Note_on_c, 0, 65, 0
2, 42276, Note_on_c, 0, 62, 0
2, 42276, Note_on_c, 0, 57, 0
2, 42300, Note_on_c, 0, 57, 71
2, 42300, Note_on_c, 0, 62, 71
2, 42300, Note_on_c, 0, 65, 71
2, 42336, Note_on_c, 0, 65, 0
2, 42336, Note_on_c, 0, 62, 0
2, 42336, Note_on_c, 0, 57, 0
2, 42360, Note_on_c, 0, 57, 71
2, 42360, Note_on_c, 0, 62, 71
2, 42360, Note_on_c, 0, 65, 71
2, 42396, Note_on_c, 0, 65, 0
2, 42396, Note_on_c, 0, 62, 0
2, 42396, Note_on_c, 0, 57, 0
2, 42420, Note_on_c, 0, 57, 110
2, 42420, Note_on_c, 0, 60, 110
2, 42420, Note_on_c, 0, 64, 110
2, 42456, Note_on_c, 0, 64, 0
2, 42456, Note_on_c, 0, 60, 0
2, 42456, Note_on_c, 0, 57, 0
2, 42480, Note_on_c, 0, 64, 71
2, 42480, Note_on_c, 0, 60, 71
2, 42480, Note_on_c, 0, 57, 71
2, 42516, Note_on_c, 0, 57, 0
2, 42516, Note_on_c, 0, 60, 0
2, 42516, Note_on_c, 0, 64, 0
2, 42540, Note_on_c, 0, 64, 71
2, 42540, Note_on_c, 0, 60, 71
2, 42540, Note_on_c, 0, 57, 71
2, 42576, Note_on_c, 0, 57, 0
2, 42576, Note_on_c, 0, 60, 0
2, 42576, Note_on_c, 0, 64, 0
2, 42600, Note_on_c, 0, 57, 110
2, 42600, Note_on_c, 0, 59, 110
2, 42600, Note_on_c, 0, 62, 110
2, 42636, Note_on_c, 0, 62, 0
2, 42636, Note_on_c, 0, 59, 0
2, 42636, Note_on_c, 0, 57, 0
2, 42660, Note_on_c, 0, 57, 71
2, 42660, Note_on_c, 0, 62, 71
2, 42660, Note_on_c, 0, 59, 71
2, 42696, Note_on_c, 0, 59, 0
2, 42696, Note_on_c, 0, 62, 0
2, 42696, Note_on_c, 0, 57, 0
2, 42720, Note_on_c, 0, 57, 71
2, 42720, Note_on_c, 0, 59, 71
2, 42720, Note_on_c, 0, 62, 71
2, 42756, Note_on_c, 0, 62, 0
2, 42756, Note_on_c, 0, 59, 0
2, 42756, Note_on_c, 0, 57, 0
2, 42780, Note_on_c, 0, 57, 110
2, 42780, Note_on_c, 0, 60, 110
2, 42780, Note_on_c, 0, 64, 110
2, 42816, Note_on_c, 0, 64, 0
2, 42816, Note_on_c, 0, 60, 0
2, 42816, Note_on_c, 0, 57, 0
2, 42840, Note_on_c, 0, 57, 71
2, 42840, Note_on_c, 0, 60, 71
2, 42840, Note_on_c, 0, 64, 71
2, 42876, Note_on_c, 0, 64, 0
2, 42876, Note_on_c, 0, 60, 0
2, 42876, Note_on_c, 0, 57, 0
2, 42900, Note_on_c, 0, 57, 71
2, 42900, Note_on_c, 0, 60, 71
2, 42900, Note_on_c, 0, 64, 71
2, 42936, Note_on_c, 0, 64, 0
2, 42936, Note_on_c, 0, 60, 0
2, 42936, Note_on_c, 0, 57, 0
2, 42960, Note_on_c, 0, 57, 110
2, 42960, Note_on_c, 0, 62, 110
2, 42960, Note_on_c, 0, 65, 110
2, 42996, Note_on_c, 0, 65, 0
2, 42996, Note_on_c, 0, 62, 0
2, 42996, Note_on_c, 0, 57, 0
2, 43020, Note_on_c, 0, 57, 71
2, 43020, Note_on_c, 0, 62, 71
2, 43020, Note_on_c, 0, 65, 71
2, 43056, Note_on_c, 0, 65, 0
2, 43056, Note_on_c, 0, 62, 0
2, 43056, Note_on_c, 0, 57, 0
2, 43080, Note_on_c, 0, 57, 110
2, 43080, Note_on_c, 0, 64, 110
2, 43080, Note_on_c, 0, 67, 110
2, 43116, Note_on_c, 0, 67, 0
2, 43116, Note_on_c, 0, 64, 0
2, 43116, Note_on_c, 0, 57, 0
2, 43140, Note_on_c, 0, 57, 71
2, 43140, Note_on_c, 0, 64, 71
2, 43140, Note_on_c, 0, 67, 71
2, 43176, Note_on_c, 0, 67, 0
2, 43176, Note_on_c, 0, 64, 0
2, 43176, Note_on_c, 0, 57, 0
2, 43200, Note_on_c, 0, 62, 110
2, 43200, Note_on_c, 0, 57, 110
2, 43200, Note_on_c, 0, 65, 110
2, 43236, Note_on_c, 0, 65, 0
2, 43236, Note_on_c, 0, 57, 0
2, 43236, Note_on_c, 0, 62, 0
2, 43260, Note_on_c, 0, 57, 71
2, 43260, Note_on_c, 0, 62, 71
2, 43260, Note_on_c, 0, 65, 71
2, 43296, Note_on_c, 0, 65, 0
2, 43296, Note_on_c, 0, 62, 0
2, 43296, Note_on_c, 0, 57, 0
2, 43320, Note_on_c, 0, 57, 71
2, 43320, Note_on_c, 0, 62, 71
2, 43320, Note_on_c, 0, 65, 71
2, 43356, Note_on_c, 0, 65, 0
2, 43356, Note_on_c, 0, 62, 0
2, 43356, Note_on_c, 0, 57, 0
2, 43380, Note_on_c, 0, 60, 110
2, 43380, Note_on_c, 0, 57, 110
2, 43380, Note_on_c, 0, 64, 110
2, 43416, Note_on_c, 0, 64, 0
2, 43416, Note_on_c, 0, 57, 0
2, 43416, Note_on_c, 0, 60, 0
2, 43440, Note_on_c, 0, 57, 71
2, 43440, Note_on_c, 0, 60, 71
2, 43440, Note_on_c, 0, 64, 71
2, 43476, Note_on_c, 0, 64, 0
2, 43476, Note_on_c, 0, 60, 0
2, 43476, Note_on_c, 0, 57, 0
2, 43500, Note_on_c, 0, 57, 71
2, 43500, Note_on_c, 0, 60, 71
2, 43500, Note_on_c, 0, 64, 71
2, 43536, Note_on_c, 0, 64, 0
2, 43536, Note_on_c, 0, 60, 0
2, 43536, Note_on_c, 0, 57, 0
2, 43560, Note_on_c, 0, 59, 110
2, 43560, Note_on_c, 0, 57, 110
2, 43560, Note_on_c, 0, 62, 110
2, 43596, Note_on_c, 0, 62, 0
2, 43596, Note_on_c, 0, 57, 0
2, 43596, Note_on_c, 0, 59, 0
2, 43620, Note_on_c, 0, 62, 71
2, 43620, Note_on_c, 0, 59, 71
2, 43620, Note_on_c, 0, 57, 71
2, 43656, Note_on_c, 0, 57, 0
2, 43656, Note_on_c, 0, 59, 0
2, 43656, Note_on_c, 0, 62, 0
2, 43680, Note_on_c, 0, 59, 71
2, 43680, Note_on_c, 0, 62, 71
2, 43680, Note_on_c, 0, 57, 71
2, 43716, Note_on_c, 0, 57, 0
2, 43716, Note_on_c, 0, 62, 0
2, 43716, Note_on_c, 0, 59, 0
2, 43740, Note_on_c, 0, 60, 110
2, 43740, Note_on_c, 0, 57, 110
2, 43740, Note_on_c, 0, 64, 110
2, 43776, Note_on_c, 0, 64, 0
2, 43776, Note_on_c, 0, 57, 0
2, 43776, Note_on_c, 0, 60, 0
2, 43800, Note_on_c, 0, 57, 71
2, 43800, Note_on_c, 0, 60, 71
2, 43800, Note_on_c, 0, 64, 71
2, 43836, Note_on_c, 0, 64, 0
2, 43836, Note_on_c, 0, 60, 0
2, 43836, Note_on_c, 0, 57, 0
2, 43860, Note_on_c, 0, 57, 71
2, 43860, Note_on_c, 0, 60, 71
2, 43860, Note_on_c, 0, 64, 71
2, 43896, Note_on_c, 0, 64, 0
2, 43896, Note_on_c, 0, 60, 0
2, 43896, Note_on_c, 0, 57, 0
2, 43920, Note_on_c, 0, 62, 110
2, 43920, Note_on_c, 0, 57, 110
2, 43920, Note_on_c, 0, 65, 110
2, 43956, Note_on_c, 0, 65, 0
2, 43956, Note_on_c, 0, 57, 0
2, 43956, Note_on_c, 0, 62, 0
2, 43980, Note_on_c, 0, 57, 71
2, 43980, Note_on_c, 0, 62, 71
2, 43980, Note_on_c, 0, 65, 71
2, 44016, Note_on_c, 0, 65, 0
2, 44016, Note_on_c, 0, 62, 0
2, 44016, Note_on_c, 0, 57, 0
2, 44040, Note_on_c, 0, 64, 110
2, 44040, Note_on_c, 0, 57, 110
2, 44040, Note_on_c, 0, 67, 110
2, 44076, Note_on_c, 0, 67, 0
2, 44076, Note_on_c, 0, 57, 0
2, 44076, Note_on_c, 0, 64, 0
2, 44100, Note_on_c, 0, 57, 71
2, 44100, Note_on_c, 0, 64, 71
2, 44100, Note_on_c, 0, 67, 71
2, 44136, Note_on_c, 0, 67, 0
2, 44136, Note_on_c, 0, 64, 0
2, 44136, Note_on_c, 0, 57, 0
2, 44160, Note_on_c, 0, 62, 110
2, 44160, Note_on_c, 0, 65, 110
2, 44160, Note_on_c, 0, 55, 71
2, 44196, Note_on_c, 0, 55, 0
2, 44196, Note_on_c, 0, 65, 0
2, 44196, Note_on_c, 0, 62, 0
2, 44220, Note_on_c, 0, 55, 71
2, 44220, Note_on_c, 0, 62, 71
2, 44220, Note_on_c, 0, 65, 71
2, 44256, Note_on_c, 0, 65, 0
2, 44256, Note_on_c, 0, 62, 0
2, 44256, Note_on_c, 0, 55, 0
2, 44280, Note_on_c, 0, 55, 71
2, 44280, Note_on_c, 0, 65, 71
2, 44280, Note_on_c, 0, 62, 71
2, 44316, Note_on_c, 0, 62, 0
2, 44316, Note_on_c, 0, 65, 0
2, 44316, Note_on_c, 0, 55, 0
2, 44340, Note_on_c, 0, 55, 71
2, 44340, Note_on_c, 0, 60, 110
2, 44340, Note_on_c, 0, 64, 110
2, 44376, Note_on_c, 0, 64, 0
2, 44376, Note_on_c, 0, 60, 0
2, 44376, Note_on_c, 0, 55, 0
2, 44400, Note_on_c, 0, 55, 71
2, 44400, Note_on_c, 0, 60, 71
2, 44400, Note_on_c, 0, 64, 71
2, 44436, Note_on_c, 0, 64, 0
2, 44436, Note_on_c, 0, 60, 0
2, 44436, Note_on_c, 0, 55, 0
2, 44460, Note_on_c, 0, 55, 71
2, 44460, Note_on_c, 0, 60, 71
2, 44460, Note_on_c, 0, 64, 71
2, 44496, Note_on_c, 0, 64, 0
2, 44496, Note_on_c, 0, 60, 0
2, 44496, Note_on_c, 0, 55, 0
2, 44520, Note_on_c, 0, 55, 71
2, 44520, Note_on_c, 0, 59, 110
2, 44520, Note_on_c, 0, 62, 110
2, 44556, Note_on_c, 0, 62, 0
2, 44556, Note_on_c, 0, 59, 0
2, 44556, Note_on_c, 0, 55, 0
2, 44580, Note_on_c, 0, 59, 71
2, 44580, Note_on_c, 0, 62, 71
2, 44580, Note_on_c, 0, 55, 71
2, 44616, Note_on_c, 0, 55, 0
2, 44616, Note_on_c, 0, 62, 0
2, 44616, Note_on_c, 0, 59, 0
2, 44640, Note_on_c, 0, 59, 71
2, 44640, Note_on_c, 0, 62, 71
2, 44640, Note_on_c, 0, 55, 71
2, 44676, Note_on_c, 0, 55, 0
2, 44676, Note_on_c, 0, 62, 0
2, 44676, Note_on_c, 0, 59, 0
2, 44700, Note_on_c, 0, 55, 71
2, 44700, Note_on_c, 0, 60, 110
2, 44700, Note_on_c, 0, 64, 110
2, 44736, Note_on_c, 0, 64, 0
2, 44736, Note_on_c, 0, 60, 0
2, 44736, Note_on_c, 0, 55, 0
2, 44760, Note_on_c, 0, 60, 71
2, 44760, Note_on_c, 0, 64, 71
2, 44760, Note_on_c, 0, 55, 71
2, 44796, Note_on_c, 0, 55, 0
2, 44796, Note_on_c, 0, 64, 0
2, 44796, Note_on_c, 0, 60, 0
2, 44820, Note_on_c, 0, 60, 71
2, 44820, Note_on_c, 0, 55, 71
2, 44820, Note_on_c, 0, 64, 71
2, 44856, Note_on_c, 0, 64, 0
2, 44856, Note_on_c, 0, 55, 0
2, 44856, Note_on_c, 0, 60, 0
2, 44880, Note_on_c, 0, 55, 71
2, 44880, Note_on_c, 0, 62, 110
2, 44880, Note_on_c, 0, 65, 110
2, 44916, Note_on_c, 0, 65, 0
2, 44916, Note_on_c, 0, 62, 0
2, 44916, Note_on_c, 0, 55, 0
2, 44940, Note_on_c, 0, 62, 71
2, 44940, Note_on_c, 0, 65, 71
2, 44940, Note_on_c, 0, 55, 71
2, 44976, Note_on_c, 0, 55, 0
2, 44976, Note_on_c, 0, 65, 0
2, 44976, Note_on_c, 0, 62, 0
2, 45000, Note_on_c, 0, 61, 110
2, 45000, Note_on_c, 0, 65, 110
2, 45000, Note_on_c, 0, 55, 71
2, 45036, Note_on_c, 0, 55, 0
2, 45036, Note_on_c, 0, 65, 0
2, 45036, Note_on_c, 0, 61, 0
2, 45060, Note_on_c, 0, 65, 71
2, 45060, Note_on_c, 0, 61, 71
2, 45060, Note_on_c, 0, 55, 71
2, 45096, Note_on_c, 0, 55, 0
2, 45096, Note_on_c, 0, 61, 0
2, 45096, Note_on_c, 0, 65, 0
2, 56640, Control_c, 0, 11, 127
2, 56640, Note_on_c, 0, 55, 110
2, 56640, Note_on_c, 0, 64, 110
2, 56640, Note_on_c, 0, 62, 110
2, 56670, Note_on_c, 0, 62, 0
2, 56670, Note_on_c, 0, 55, 0
2, 56670, Control_c, 0, 11, 126
2, 56676, Note_on_c, 0, 64, 0
2, 56690, Control_c, 0, 11, 125
2, 56700, Note_on_c, 0, 55, 71
2, 56700, Note_on_c, 0, 62, 71
2, 56700, Note_on_c, 0, 64, 71
2, 56710, Control_c, 0, 11, 124
2, 56736, Note_on_c, 0, 64, 0
2, 56736, Note_on_c, 0, 62, 0
2, 56736, Note_on_c, 0, 55, 0
2, 56740, Control_c, 0, 11, 123
2, 56760, Control_c, 0, 11, 122
2, 56760, Note_on_c, 0, 62, 73
2, 56760, Note_on_c, 0, 64, 73
2, 56760, Note_on_c, 0, 55, 73
2, 56780, Control_c, 0, 11, 121
2, 56790, Note_on_c, 0, 55, 0
2, 56790, Note_on_c, 0, 62, 0
2, 56796, Note_on_c, 0, 64, 0
2, 56800, Control_c, 0, 11, 120
2, 56820, Note_on_c, 0, 57, 110
2, 56820, Note_on_c, 0, 60, 110
2, 56820, Note_on_c, 0, 65, 110
2, 56830, Control_c, 0, 11, 119
2, 56850, Note_on_c, 0, 60, 0
2, 56850, Note_on_c, 0, 57, 0
2, 56850, Control_c, 0, 11, 118
2, 56856, Note_on_c, 0, 65, 0
2, 56870, Control_c, 0, 11, 117
2, 56880, Note_on_c, 0, 65, 71
2, 56880, Note_on_c, 0, 60, 71
2, 56880, Note_on_c, 0, 57, 71
2, 56890, Control_c, 0, 11, 116
2, 56916, Note_on_c, 0, 57, 0
2, 56916, Note_on_c, 0, 60, 0
2, 56916, Note_on_c, 0, 65, 0
2, 56920, Control_c, 0, 11, 115
2, 56940, Control_c, 0, 11, 114
2, 56940, Note_on_c, 0, 57, 72
2, 56940, Note_on_c, 0, 60, 72
2, 56940, Note_on_c, 0, 65, 72
2, 56960, Control_c, 0, 11, 113
2, 56970, Note_on_c, 0, 60, 0
2, 56970, Note_on_c, 0, 57, 0
2, 56976, Note_on_c, 0, 65, 0
2, 56990, Control_c, 0, 11, 112
2, 57000, Note_on_c, 0, 55, 110
2, 57000, Note_on_c, 0, 59, 110
2, 57000, Note_on_c, 0, 62, 110
2, 57010, Control_c, 0, 11, 111
2, 57030, Note_on_c, 0, 59, 0
2, 57030, Note_on_c, 0, 55, 0
2, 57030, Control_c, 0, 11, 110
2, 57036, Note_on_c, 0, 62, 0
2, 57050, Control_c, 0, 11, 109
2, 57060, Note_on_c, 0, 62, 71
2, 57060, Note_on_c, 0, 59, 71
2, 57060, Note_on_c, 0, 55, 71
2, 57080, Control_c, 0, 11, 108
2, 57096, Note_on_c, 0, 55, 0
2, 57096, Note_on_c, 0, 59, 0
2, 57096, Note_on_c, 0, 62, 0
2, 57100, Control_c, 0, 11, 107
2, 57120, Control_c, 0, 11, 106
2, 57120, Note_on_c, 0, 55, 71
2, 57120, Note_on_c, 0, 59, 71
2, 57120, Note_on_c, 0, 62, 71
2, 57140, Control_c, 0, 11, 105
2, 57150, Note_on_c, 0, 59, 0
2, 57150, Note_on_c, 0, 55, 0
2, 57156, Note_on_c, 0, 62, 0
2, 57170, Control_c, 0, 11, 104
2, 57180, Note_on_c, 0, 55, 110
2, 57180, Note_on_c, 0, 60, 110
2, 57180, Note_on_c, 0, 64, 110
2, 57190, Control_c, 0, 11, 103
2, 57210, Note_on_c, 0, 60, 0
2, 57210, Note_on_c, 0, 55, 0
2, 57210, Control_c, 0, 11, 102
2, 57216, Note_on_c, 0, 64, 0
2, 57230, Control_c, 0, 11, 101
2, 57240, Note_on_c, 0, 55, 71
2, 57240, Note_on_c, 0, 60, 71
2, 57240, Note_on_c, 0, 64, 71
2, 57260, Control_c, 0, 11, 100
2, 57276, Note_on_c, 0, 64, 0
2, 57276, Note_on_c, 0, 60, 0
2, 57276, Note_on_c, 0, 55, 0
2, 57280, Control_c, 0, 11, 99
2, 57300, Control_c, 0, 11, 98
2, 57300, Note_on_c, 0, 55, 69
2, 57300, Note_on_c, 0, 60, 69
2, 57300, Note_on_c, 0, 64, 69
2, 57330, Note_on_c, 0, 60, 0
2, 57330, Note_on_c, 0, 55, 0
2, 57330, Control_c, 0, 11, 97
2, 57336, Note_on_c, 0, 64, 0
2, 57350, Control_c, 0, 11, 96
2, 57360, Note_on_c, 0, 55, 110
2, 57360, Note_on_c, 0, 60, 110
2, 57360, Note_on_c, 0, 64, 110
2, 57370, Control_c, 0, 11, 95
2, 57390, Note_on_c, 0, 60, 0
2, 57390, Note_on_c, 0, 55, 0
2, 57390, Control_c, 0, 11, 94
2, 57396, Note_on_c, 0, 64, 0
2, 57420, Control_c, 0, 11, 93
2, 57420, Note_on_c, 0, 55, 71
2, 57420, Note_on_c, 0, 60, 71
2, 57420, Note_on_c, 0, 64, 71
2, 57440, Control_c, 0, 11, 92
2, 57456, Note_on_c, 0, 64, 0
2, 57456, Note_on_c, 0, 60, 0
2, 57456, Note_on_c, 0, 55, 0
2, 57460, Control_c, 0, 11, 91
2, 57480, Control_c, 0, 11, 90
2, 57480, Note_on_c, 0, 55, 110
2, 57480, Note_on_c, 0, 59, 110
2, 57480, Note_on_c, 0, 64, 110
2, 57510, Note_on_c, 0, 59, 0
2, 57510, Note_on_c, 0, 55, 0
2, 57510, Control_c, 0, 11, 89
2, 57516, Note_on_c, 0, 64, 0
2, 57530, Control_c, 0, 11, 88
2, 57540, Note_on_c, 0, 55, 71
2, 57540, Note_on_c, 0, 64, 71
2, 57540, Note_on_c, 0, 59, 71
2, 57550, Control_c, 0, 11, 87
2, 57570, Control_c, 0, 11, 86
2, 57576, Note_on_c, 0, 59, 0
2, 57576, Note_on_c, 0, 64, 0
2, 57576, Note_on_c, 0, 55, 0
2, 57600, Control_c, 0, 11, 85
2, 57600, Note_on_c, 0, 55, 110
2, 57600, Note_on_c, 0, 62, 110
2, 57600, Note_on_c, 0, 64, 110
2, 57620, Control_c, 0, 11, 84
2, 57630, Note_on_c, 0, 62, 0
2, 57630, Note_on_c, 0, 55, 0
2, 57636, Note_on_c, 0, 64, 0
2, 57640, Control_c, 0, 11, 83
2, 57660, Note_on_c, 0, 55, 71
2, 57660, Note_on_c, 0, 62, 71
2, 57660, Note_on_c, 0, 64, 71
2, 57670, Control_c, 0, 11, 82
2, 57690, Control_c, 0, 11, 81
2, 57696, Note_on_c, 0, 64, 0
2, 57696, Note_on_c, 0, 62, 0
2, 57696, Note_on_c, 0, 55, 0
2, 57710, Control_c, 0, 11, 80
2, 57720, Note_on_c, 0, 55, 72
2, 57720, Note_on_c, 0, 62, 72
2, 57720, Note_on_c, 0, 64, 72
2, 57730, Control_c, 0, 11, 79
2, 57750, Note_on_c, 0, 62, 0
2, 57750, Note_on_c, 0, 55, 0
2, 57756, Note_on_c, 0, 64, 0
2, 57760, Control_c, 0, 11, 78
2, 57780, Control_c, 0, 11, 77
2, 57780, Note_on_c, 0, 57, 110
2, 57780, Note_on_c, 0, 60, 110
2, 57780, Note_on_c, 0, 65, 110
2, 57800, Control_c, 0, 11, 76
2, 57810, Note_on_c, 0, 60, 0
2, 57810, Note_on_c, 0, 57, 0
2, 57816, Note_on_c, 0, 65, 0
2, 57820, Control_c, 0, 11, 75
2, 57840, Note_on_c, 0, 57, 71
2, 57840, Note_on_c, 0, 60, 71
2, 57840, Note_on_c, 0, 65, 71
2, 57850, Control_c, 0, 11, 74
2, 57870, Control_c, 0, 11, 73
2, 57876, Note_on_c, 0, 65, 0
2, 57876, Note_on_c, 0, 60, 0
2, 57876, Note_on_c, 0, 57, 0
2, 57890, Control_c, 0, 11, 72
2, 57900, Note_on_c, 0, 57, 71
2, 57900, Note_on_c, 0, 60, 71
2, 57900, Note_on_c, 0, 65, 71
2, 57910, Control_c, 0, 11, 71
2, 57930, Note_on_c, 0, 60, 0
2, 57930, Note_on_c, 0, 57, 0
2, 57936, Note_on_c, 0, 65, 0
2, 57940, Control_c, 0, 11, 70
2, 57960, Control_c, 0, 11, 69
2, 57960, Note_on_c, 0, 55, 110
2, 57960, Note_on_c, 0, 59, 110
2, 57960, Note_on_c, 0, 62, 110
2, 57980, Control_c, 0, 11, 68
2, 57990, Note_on_c, 0, 59, 0
2, 57990, Note_on_c, 0, 55, 0
2, 57996, Note_on_c, 0, 62, 0
2, 58010, Control_c, 0, 11, 67
2, 58020, Note_on_c, 0, 55, 71
2, 58020, Note_on_c, 0, 59, 71
2, 58020, Note_on_c, 0, 62, 71
2, 58030, Control_c, 0, 11, 66
2, 58050, Control_c, 0, 11, 65
2, 58056, Note_on_c, 0, 62, 0
2, 58056, Note_on_c, 0, 59, 0
2, 58056, Note_on_c, 0, 55, 0
2, 58070, Control_c, 0, 11, 64
2, 58080, Note_on_c, 0, 55, 71
2, 58080, Note_on_c, 0, 59, 71
2, 58080, Note_on_c, 0, 62, 71
2, 58100, Control_c, 0, 11, 63
2, 58110, Note_on_c, 0, 59, 0
2, 58110, Note_on_c, 0, 55, 0
2, 58116, Note_on_c, 0, 62, 0
2, 58120, Control_c, 0, 11, 62
2, 58140, Control_c, 0, 11, 61
2, 58140, Note_on_c, 0, 55, 110
2, 58140, Note_on_c, 0, 60, 110
2, 58140, Note_on_c, 0, 64, 110
2, 58160, Control_c, 0, 11, 60
2, 58170, Note_on_c, 0, 60, 0
2, 58170, Note_on_c, 0, 55, 0
2, 58176, Note_on_c, 0, 64, 0
2, 58190, Control_c, 0, 11, 59
2, 58200, Note_on_c, 0, 64, 71
2, 58200, Note_on_c, 0, 60, 71
2, 58200, Note_on_c, 0, 55, 71
2, 58210, Control_c, 0, 11, 58
2, 58230, Control_c, 0, 11, 57
2, 58236, Note_on_c, 0, 55, 0
2, 58236, Note_on_c, 0, 60, 0
2, 58236, Note_on_c, 0, 64, 0
2, 58260, Control_c, 0, 11, 56
2, 58260, Note_on_c, 0, 62, 110
2, 58260, Note_on_c, 0, 65, 110
2, 58260, Note_on_c, 0, 55, 110
2, 58280, Control_c, 0, 11, 55
2, 58290, Note_on_c, 0, 55, 0
2, 58290, Note_on_c, 0, 62, 0
2, 58296, Note_on_c, 0, 65, 0
2, 58300, Control_c, 0, 11, 54
2, 58320, Control_c, 0, 11, 53
2, 58320, Note_on_c, 0, 55, 101
2, 58320, Note_on_c, 0, 60, 101
2, 58320, Note_on_c, 0, 64, 101
2, 58350, Control_c, 0, 11, 52
2, 58370, Control_c, 0, 11, 51
2, 58390, Control_c, 0, 11, 50
2, 58410, Control_c, 0, 11, 49
2, 58428, Note_on_c, 0, 64, 0
2, 58428, Note_on_c, 0, 60, 0
2, 58428, Note_on_c, 0, 55, 0
2, 58440, Control_c, 0, 11, 48
2, 58440, Note_on_c, 0, 55, 101
2, 58440, Note_on_c, 0, 59, 101
2, 58440, Note_on_c, 0, 62, 101
2, 58460, Control_c, 0, 11, 47
2, 58480, Control_c, 0, 11, 46
2, 58500, Control_c, 0, 11, 45
2, 58530, Control_c, 0, 11, 44
2, 58548, Note_on_c, 0, 62, 0
2, 58548, Note_on_c, 0, 59, 0
2, 58548, Note_on_c, 0, 55, 0
2, 58550, Control_c, 0, 11, 43
2, 58560, Note_on_c, 0, 55, 110
2, 58560, Note_on_c, 0, 60, 110
2, 58560, Note_on_c, 0, 64, 110
2, 58570, Control_c, 0, 11, 42
2, 58590, Note_on_c, 0, 60, 0
2, 58590, Note_on_c, 0, 55, 0
2, 58596, Note_on_c, 0, 64, 0
2, 58600, Control_c, 0, 11, 41
2, 58620, Control_c, 0, 11, 40
2, 58620, Note_on_c, 0, 55, 71
2, 58620, Note_on_c, 0, 60, 71
2, 58620, Note_on_c, 0, 64, 71
2, 58640, Control_c, 0, 11, 39
2, 58656, Note_on_c, 0, 64, 0
2, 58656, Note_on_c, 0, 60, 0
2, 58656, Note_on_c, 0, 55, 0
2, 58660, Control_c, 0, 11, 38
2, 58680, Note_on_c, 0, 55, 71
2, 58680, Note_on_c, 0, 60, 71
2, 58680, Note_on_c, 0, 64, 71
2, 58690, Control_c, 0, 11, 37
2, 58710, Control_c, 0, 11, 36
2, 58716, Note_on_c, 0, 64, 0
2, 58716, Note_on_c, 0, 60, 0
2, 58716, Note_on_c, 0, 55, 0
2, 58730, Control_c, 0, 11, 35
2, 58740, Note_on_c, 0, 55, 110
2, 58740, Note_on_c, 0, 62, 110
2, 58740, Note_on_c, 0, 64, 110
2, 58750, Control_c, 0, 11, 34
2, 58770, Note_on_c, 0, 62, 0
2, 58770, Note_on_c, 0, 55, 0
2, 58776, Note_on_c, 0, 64, 0
2, 58780, Control_c, 0, 11, 33
2, 58800, Control_c, 0, 11, 32
2, 58800, Note_on_c, 0, 64, 71
2, 58800, Note_on_c, 0, 62, 71
2, 58800, Note_on_c, 0, 55, 71
2, 58820, Control_c, 0, 11, 31
2, 58836, Note_on_c, 0, 55, 0
2, 58836, Note_on_c, 0, 62, 0
2, 58836, Note_on_c, 0, 64, 0
2, 58840, Control_c, 0, 11, 30
2, 58860, Note_on_c, 0, 64, 71
2, 58860, Note_on_c, 0, 62, 71
2, 58860, Note_on_c, 0, 55, 71
2, 58870, Control_c, 0, 11, 29
2, 58890, Control_c, 0, 11, 28
2, 58896, Note_on_c, 0, 55, 0
2, 58896, Note_on_c, 0, 62, 0
2, 58896, Note_on_c, 0, 64, 0
2, 58910, Control_c, 0, 11, 27
2, 58920, Note_on_c, 0, 55, 110
2, 58920, Note_on_c, 0, 59, 110
2, 58920, Note_on_c, 0, 64, 110
2, 58940, Control_c, 0, 11, 26
2, 58950, Note_on_c, 0, 59, 0
2, 58950, Note_on_c, 0, 55, 0
2, 58956, Note_on_c, 0, 64, 0
2, 58960, Control_c, 0, 11, 25
2, 58980, Control_c, 0, 11, 24
2, 58980, Note_on_c, 0, 55, 71
2, 58980, Note_on_c, 0, 59, 71
2, 58980, Note_on_c, 0, 64, 71
2, 59000, Control_c, 0, 11, 23
2, 59016, Note_on_c, 0, 64, 0
2, 59016, Note_on_c, 0, 59, 0
2, 59016, Note_on_c, 0, 55, 0
2, 59030, Control_c, 0, 11, 22
2, 59040, Note_on_c, 0, 55, 71
2, 59040, Note_on_c, 0, 59, 71
2, 59040, Note_on_c, 0, 64, 71
2, 59050, Control_c, 0, 11, 21
2, 59070, Control_c, 0, 11, 20
2, 59076, Note_on_c, 0, 64, 0
2, 59076, Note_on_c, 0, 59, 0
2, 59076, Note_on_c, 0, 55, 0
2, 59090, Control_c, 0, 11, 19
2, 59100, Note_on_c, 0, 55, 110
2, 59100, Note_on_c, 0, 60, 110
2, 59100, Note_on_c, 0, 64, 110
2, 59120, Control_c, 0, 11, 18
2, 59130, Note_on_c, 0, 60, 0
2, 59130, Note_on_c, 0, 55, 0
2, 59136, Note_on_c, 0, 64, 0
2, 59140, Control_c, 0, 11, 17
2, 59160, Control_c, 0, 11, 16
2, 59160, Note_on_c, 0, 64, 71
2, 59160, Note_on_c, 0, 60, 71
2, 59160, Note_on_c, 0, 55, 71
2, 59180, Control_c, 0, 11, 15
2, 59196, Note_on_c, 0, 55, 0
2, 59196, Note_on_c, 0, 60, 0
2, 59196, Note_on_c, 0, 64, 0
2, 59210, Control_c, 0, 11, 14
2, 59220, Note_on_c, 0, 62, 110
2, 59220, Note_on_c, 0, 64, 110
2, 59220, Note_on_c, 0, 55, 110
2, 59230, Control_c, 0, 11, 13
2, 59250, Control_c, 0, 11, 12
2, 59256, Note_on_c, 0, 55, 0
2, 59256, Note_on_c, 0, 64, 0
2, 59256, Note_on_c, 0, 62, 0
2, 59280, Control_c, 0, 11, 11
2, 59280, Note_on_c, 0, 55, 110
2, 59280, Note_on_c, 0, 60, 110
2, 59280, Note_on_c, 0, 64, 110
2, 59300, Control_c, 0, 11, 10
2, 59310, Note_on_c, 0, 60, 0
2, 59310, Note_on_c, 0, 55, 0
2, 59316, Note_on_c, 0, 64, 0
2, 59320, Control_c, 0, 11, 9
2, 59340, Control_c, 0, 11, 8
2, 59340, Note_on_c, 0, 55, 71
2, 59340, Note_on_c, 0, 60, 71
2, 59340, Note_on_c, 0, 64, 71
2, 59370, Control_c, 0, 11, 7
2, 59376, Note_on_c, 0, 64, 0
2, 59376, Note_on_c, 0, 60, 0
2, 59376, Note_on_c, 0, 55, 0
2, 59390, Control_c, 0, 11, 6
2, 59400, Note_on_c, 0, 55, 110
2, 59400, Note_on_c, 0, 59, 110
2, 59400, Note_on_c, 0, 64, 110
2, 59410, Control_c, 0, 11, 5
2, 59430, Note_on_c, 0, 59, 0
2, 59430, Note_on_c, 0, 55, 0
2, 59430, Control_c, 0, 11, 4
2, 59436, Note_on_c, 0, 64, 0
2, 59460, Control_c, 0, 11, 3
2, 59460, Note_on_c, 0, 55, 71
2, 59460, Note_on_c, 0, 59, 71
2, 59460, Note_on_c, 0, 64, 71
2, 59480, Control_c, 0, 11, 2
2, 59496, Note_on_c, 0, 64, 0
2, 59496, Note_on_c, 0, 59, 0
2, 59496, Note_on_c, 0, 55, 0
2, 59500, Control_c, 0, 11, 1
2, 59520, Control_c, 0, 11, 0
2, 60240, Control_c, 0, 11, 0
2, 60240, End_track
3, 0, Start_track
3, 0, Title_t, "A2-Tuba        "
3, 89, Control_c, 1, 91, 60
3, 90, Control_c, 1, 93, 20
3, 125, Control_c, 1, 0, 0
3, 126, Control_c, 1, 32, 3
3, 127, Program_c, 1, 58
3, 128, Control_c, 1, 7, 100
3, 128, Control_c, 1, 10, 64
3, 1920, Note_on_c, 1, 31, 115
3, 1969, Note_on_c, 1, 31, 0
3, 2100, Note_on_c, 1, 38, 115
3, 2149, Note_on_c, 1, 38, 0
3, 2160, Note_on_c, 1, 31, 115
3, 2209, Note_on_c, 1, 31, 0
3, 2340, Note_on_c, 1, 38, 115
3, 2389, Note_on_c, 1, 38, 0
3, 2400, Note_on_c, 1, 31, 115
3, 2449, Note_on_c, 1, 31, 0
3, 2580, Note_on_c, 1, 38, 115
3, 2629, Note_on_c, 1, 38, 0
3, 2640, Note_on_c, 1, 31, 115
3, 2689, Note_on_c, 1, 31, 0
3, 2760, Note_on_c, 1, 31, 115
3, 2857, Note_on_c, 1, 31, 0
3, 2880, Note_on_c, 1, 36, 115
3, 2929, Note_on_c, 1, 36, 0
3, 3060, Note_on_c, 1, 36, 115
3, 3109, Note_on_c, 1, 36, 0
3, 3180, Note_on_c, 1, 31, 115
3, 3229, Note_on_c, 1, 31, 0
3, 3240, Note_on_c, 1, 36, 115
3, 3289, Note_on_c, 1, 36, 0
3, 3420, Note_on_c, 1, 36, 115
3, 3469, Note_on_c, 1, 36, 0
3, 3600, Note_on_c, 1, 36, 115
3, 3649, Note_on_c, 1, 36, 0
3, 3720, Note_on_c, 1, 31, 115
3, 3817, Note_on_c, 1, 31, 0
3, 3840, Note_on_c, 1, 36, 115
3, 3889, Note_on_c, 1, 36, 0
3, 4020, Note_on_c, 1, 36, 115
3, 4069, Note_on_c, 1, 36, 0
3, 4140, Note_on_c, 1, 31, 115
3, 4189, Note_on_c, 1, 31, 0
3, 4200, Note_on_c, 1, 36, 115
3, 4249, Note_on_c, 1, 36, 0
3, 4380, Note_on_c, 1, 36, 115
3, 4429, Note_on_c, 1, 36, 0
3, 4560, Note_on_c, 1, 36, 115
3, 4657, Note_on_c, 1, 36, 0
3, 4680, Note_on_c, 1, 35, 115
3, 4777, Note_on_c, 1, 35, 0
3, 4800, Note_on_c, 1, 33, 115
3, 4849, Note_on_c, 1, 33, 0
3, 4980, Note_on_c, 1, 33, 115
3, 5029, Note_on_c, 1, 33, 0
3, 5100, Note_on_c, 1, 28, 115
3, 5149, Note_on_c, 1, 28, 0
3, 5160, Note_on_c, 1, 33, 115
3, 5209, Note_on_c, 1, 33, 0
3, 5340, Note_on_c, 1, 33, 115
3, 5389, Note_on_c, 1, 33, 0
3, 5520, Note_on_c, 1, 33, 115
3, 5569, Note_on_c, 1, 33, 0
3, 5640, Note_on_c, 1, 28, 115
3, 5737, Note_on_c, 1, 28, 0
3, 5760, Note_on_c, 1, 31, 115
3, 5809, Note_on_c, 1, 31, 0
3, 5940, Note_on_c, 1, 31, 115
3, 5989, Note_on_c, 1, 31, 0
3, 6060, Note_on_c, 1, 38, 115
3, 6109, Note_on_c, 1, 38, 0
3, 6120, Note_on_c, 1, 31, 115
3, 6169, Note_on_c, 1, 31, 0
3, 6300, Note_on_c, 1, 31, 115
3, 6349, Note_on_c, 1, 31, 0
3, 6480, Note_on_c, 1, 31, 115
3, 6577, Note_on_c, 1, 31, 0
3, 6600, Note_on_c, 1, 29, 115
3, 6697, Note_on_c, 1, 29, 0
3, 6720, Note_on_c, 1, 40, 115
3, 6769, Note_on_c, 1, 40, 0
3, 6900, Note_on_c, 1, 40, 115
3, 6949, Note_on_c, 1, 40, 0
3, 7020, Note_on_c, 1, 35, 115
3, 7069, Note_on_c, 1, 35, 0
3, 7080, Note_on_c, 1, 40, 115
3, 7129, Note_on_c, 1, 40, 0
3, 7260, Note_on_c, 1, 40, 115
3, 7309, Note_on_c, 1, 40, 0
3, 7440, Note_on_c, 1, 40, 115
3, 7489, Note_on_c, 1, 40, 0
3, 7560, Note_on_c, 1, 33, 115
3, 7657, Note_on_c, 1, 33, 0
3, 7680, Note_on_c, 1, 38, 115
3, 7729, Note_on_c, 1, 38, 0
3, 7860, Note_on_c, 1, 38, 115
3, 7909, Note_on_c, 1, 38, 0
3, 7980, Note_on_c, 1, 33, 115
3, 8029, Note_on_c, 1, 33, 0
3, 8040, Note_on_c, 1, 38, 115
3, 8089, Note_on_c, 1, 38, 0
3, 8220, Note_on_c, 1, 38, 115
3, 8269, Note_on_c, 1, 38, 0
3, 8400, Note_on_c, 1, 38, 115
3, 8449, Note_on_c, 1, 38, 0
3, 8520, Note_on_c, 1, 33, 115
3, 8617, Note_on_c, 1, 33, 0
3, 8640, Note_on_c, 1, 38, 115
3, 8689, Note_on_c, 1, 38, 0
3, 8820, Note_on_c, 1, 38, 115
3, 8869, Note_on_c, 1, 38, 0
3, 8940, Note_on_c, 1, 33, 115
3, 8989, Note_on_c, 1, 33, 0
3, 9000, Note_on_c, 1, 38, 115
3, 9049, Note_on_c, 1, 38, 0
3, 9180, Note_on_c, 1, 38, 115
3, 9229, Note_on_c, 1, 38, 0
3, 9360, Note_on_c, 1, 38, 115
3, 9409, Note_on_c, 1, 38, 0
3, 9480, Note_on_c, 1, 33, 115
3, 9577, Note_on_c, 1, 33, 0
3, 9600, Note_on_c, 1, 38, 115
3, 9649, Note_on_c, 1, 38, 0
3, 9780, Note_on_c, 1, 38, 115
3, 9829, Note_on_c, 1, 38, 0
3, 9900, Note_on_c, 1, 32, 115
3, 9949, Note_on_c, 1, 32, 0
3, 9960, Note_on_c, 1, 38, 115
3, 10009, Note_on_c, 1, 38, 0
3, 10140, Note_on_c, 1, 38, 115
3, 10189, Note_on_c, 1, 38, 0
3, 10320, Note_on_c, 1, 38, 115
3, 10369, Note_on_c, 1, 38, 0
3, 10440, Note_on_c, 1, 31, 115
3, 10537, Note_on_c, 1, 31, 0
3, 10560, Note_on_c, 1, 36, 115
3, 10609, Note_on_c, 1, 36, 0
3, 10740, Note_on_c, 1, 36, 115
3, 10789, Note_on_c, 1, 36, 0
3, 10860, Note_on_c, 1, 31, 115
3, 10909, Note_on_c, 1, 31, 0
3, 10920, Note_on_c, 1, 36, 115
3, 10969, Note_on_c, 1, 36, 0
3, 11100, Note_on_c, 1, 36, 115
3, 11149, Note_on_c, 1, 36, 0
3, 11280, Note_on_c, 1, 36, 115
3, 11329, Note_on_c, 1, 36, 0
3, 11400, Note_on_c, 1, 31, 115
3, 11497, Note_on_c, 1, 31, 0
3, 11520, Note_on_c, 1, 36, 115
3, 11569, Note_on_c, 1, 36, 0
3, 11700, Note_on_c, 1, 36, 115
3, 11749, Note_on_c, 1, 36, 0
3, 11820, Note_on_c, 1, 31, 115
3, 11869, Note_on_c, 1, 31, 0
3, 11880, Note_on_c, 1, 36, 115
3, 11929, Note_on_c, 1, 36, 0
3, 12060, Note_on_c, 1, 36, 115
3, 12109, Note_on_c, 1, 36, 0
3, 12240, Note_on_c, 1, 36, 115
3, 12337, Note_on_c, 1, 36, 0
3, 12360, Note_on_c, 1, 35, 115
3, 12457, Note_on_c, 1, 35, 0
3, 12480, Note_on_c, 1, 33, 115
3, 12529, Note_on_c, 1, 33, 0
3, 12660, Note_on_c, 1, 33, 115
3, 12709, Note_on_c, 1, 33, 0
3, 12780, Note_on_c, 1, 28, 115
3, 12829, Note_on_c, 1, 28, 0
3, 12840, Note_on_c, 1, 33, 115
3, 12889, Note_on_c, 1, 33, 0
3, 13020, Note_on_c, 1, 33, 115
3, 13069, Note_on_c, 1, 33, 0
3, 13200, Note_on_c, 1, 33, 115
3, 13249, Note_on_c, 1, 33, 0
3, 13320, Note_on_c, 1, 28, 115
3, 13417, Note_on_c, 1, 28, 0
3, 13440, Note_on_c, 1, 31, 115
3, 13489, Note_on_c, 1, 31, 0
3, 13620, Note_on_c, 1, 31, 115
3, 13669, Note_on_c, 1, 31, 0
3, 13740, Note_on_c, 1, 38, 115
3, 13789, Note_on_c, 1, 38, 0
3, 13800, Note_on_c, 1, 31, 115
3, 13849, Note_on_c, 1, 31, 0
3, 13980, Note_on_c, 1, 31, 115
3, 14029, Note_on_c, 1, 31, 0
3, 14160, Note_on_c, 1, 31, 115
3, 14257, Note_on_c, 1, 31, 0
3, 14280, Note_on_c, 1, 29, 115
3, 14377, Note_on_c, 1, 29, 0
3, 14400, Note_on_c, 1, 40, 115
3, 14449, Note_on_c, 1, 40, 0
3, 14580, Note_on_c, 1, 40, 115
3, 14629, Note_on_c, 1, 40, 0
3, 14700, Note_on_c, 1, 35, 115
3, 14749, Note_on_c, 1, 35, 0
3, 14760, Note_on_c, 1, 40, 115
3, 14809, Note_on_c, 1, 40, 0
3, 14940, Note_on_c, 1, 40, 115
3, 14989, Note_on_c, 1, 40, 0
3, 15120, Note_on_c, 1, 40, 115
3, 15169, Note_on_c, 1, 40, 0
3, 15240, Note_on_c, 1, 33, 115
3, 15337, Note_on_c, 1, 33, 0
3, 15360, Note_on_c, 1, 38, 115
3, 15409, Note_on_c, 1, 38, 0
3, 15540, Note_on_c, 1, 38, 115
3, 15589, Note_on_c, 1, 38, 0
3, 15660, Note_on_c, 1, 33, 115
3, 15709, Note_on_c, 1, 33, 0
3, 15720, Note_on_c, 1, 38, 115
3, 15769, Note_on_c, 1, 38, 0
3, 15900, Note_on_c, 1, 38, 115
3, 15949, Note_on_c, 1, 38, 0
3, 16080, Note_on_c, 1, 38, 115
3, 16129, Note_on_c, 1, 38, 0
3, 16200, Note_on_c, 1, 33, 115
3, 16297, Note_on_c, 1, 33, 0
3, 16320, Note_on_c, 1, 38, 115
3, 16369, Note_on_c, 1, 38, 0
3, 16500, Note_on_c, 1, 38, 115
3, 16549, Note_on_c, 1, 38, 0
3, 16620, Note_on_c, 1, 33, 115
3, 16669, Note_on_c, 1, 33, 0
3, 16680, Note_on_c, 1, 38, 115
3, 16729, Note_on_c, 1, 38, 0
3, 16860, Note_on_c, 1, 38, 115
3, 16909, Note_on_c, 1, 38, 0
3, 17040, Note_on_c, 1, 38, 115
3, 17089, Note_on_c, 1, 38, 0
3, 17160, Note_on_c, 1, 33, 115
3, 17257, Note_on_c, 1, 33, 0
3, 17280, Note_on_c, 1, 31, 115
3, 17442, Note_on_c, 1, 31, 0
3, 17460, Note_on_c, 1, 33, 115
3, 17622, Note_on_c, 1, 33, 0
3, 17640, Note_on_c, 1, 35, 115
3, 17802, Note_on_c, 1, 35, 0
3, 17820, Note_on_c, 1, 36, 115
3, 17982, Note_on_c, 1, 36, 0
3, 18000, Note_on_c, 1, 38, 115
3, 18108, Note_on_c, 1, 38, 0
3, 18120, Note_on_c, 1, 37, 115
3, 18228, Note_on_c, 1, 37, 0
3, 18240, Note_on_c, 1, 36, 115
3, 18289, Note_on_c, 1, 36, 0
3, 18420, Note_on_c, 1, 36, 115
3, 18469, Note_on_c, 1, 36, 0
3, 18540, Note_on_c, 1, 31, 115
3, 18589, Note_on_c, 1, 31, 0
3, 18600, Note_on_c, 1, 36, 115
3, 18649, Note_on_c, 1, 36, 0
3, 18780, Note_on_c, 1, 36, 115
3, 18829, Note_on_c, 1, 36, 0
3, 18960, Note_on_c, 1, 36, 115
3, 19009, Note_on_c, 1, 36, 0
3, 19080, Note_on_c, 1, 31, 115
3, 19129, Note_on_c, 1, 31, 0
3, 19200, Note_on_c, 1, 40, 115
3, 19249, Note_on_c, 1, 40, 0
3, 19380, Note_on_c, 1, 40, 115
3, 19429, Note_on_c, 1, 40, 0
3, 19500, Note_on_c, 1, 35, 115
3, 19549, Note_on_c, 1, 35, 0
3, 19560, Note_on_c, 1, 40, 115
3, 19609, Note_on_c, 1, 40, 0
3, 19740, Note_on_c, 1, 40, 115
3, 19789, Note_on_c, 1, 40, 0
3, 19920, Note_on_c, 1, 40, 115
3, 20028, Note_on_c, 1, 40, 0
3, 20040, Note_on_c, 1, 35, 115
3, 20148, Note_on_c, 1, 35, 0
3, 20160, Note_on_c, 1, 33, 115
3, 20209, Note_on_c, 1, 33, 0
3, 20340, Note_on_c, 1, 33, 115
3, 20389, Note_on_c, 1, 33, 0
3, 20460, Note_on_c, 1, 40, 115
3, 20509, Note_on_c, 1, 40, 0
3, 20520, Note_on_c, 1, 33, 115
3, 20569, Note_on_c, 1, 33, 0
3, 20700, Note_on_c, 1, 33, 115
3, 20749, Note_on_c, 1, 33, 0
3, 20880, Note_on_c, 1, 33, 115
3, 20929, Note_on_c, 1, 33, 0
3, 21000, Note_on_c, 1, 40, 115
3, 21108, Note_on_c, 1, 40, 0
3, 21120, Note_on_c, 1, 31, 115
3, 21169, Note_on_c, 1, 31, 0
3, 21300, Note_on_c, 1, 31, 115
3, 21349, Note_on_c, 1, 31, 0
3, 21420, Note_on_c, 1, 38, 115
3, 21469, Note_on_c, 1, 38, 0
3, 21480, Note_on_c, 1, 31, 115
3, 21529, Note_on_c, 1, 31, 0
3, 21660, Note_on_c, 1, 31, 115
3, 21709, Note_on_c, 1, 31, 0
3, 21840, Note_on_c, 1, 31, 115
3, 21948, Note_on_c, 1, 31, 0
3, 21960, Note_on_c, 1, 38, 115
3, 22068, Note_on_c, 1, 38, 0
3, 22080, Note_on_c, 1, 36, 115
3, 22129, Note_on_c, 1, 36, 0
3, 22260, Note_on_c, 1, 36, 115
3, 22309, Note_on_c, 1, 36, 0
3, 22380, Note_on_c, 1, 31, 115
3, 22429, Note_on_c, 1, 31, 0
3, 22440, Note_on_c, 1, 36, 115
3, 22489, Note_on_c, 1, 36, 0
3, 22620, Note_on_c, 1, 36, 115
3, 22669, Note_on_c, 1, 36, 0
3, 22800, Note_on_c, 1, 36, 115
3, 22849, Note_on_c, 1, 36, 0
3, 22920, Note_on_c, 1, 31, 115
3, 22969, Note_on_c, 1, 31, 0
3, 23040, Note_on_c, 1, 40, 115
3, 23089, Note_on_c, 1, 40, 0
3, 23220, Note_on_c, 1, 40, 115
3, 23269, Note_on_c, 1, 40, 0
3, 23340, Note_on_c, 1, 35, 115
3, 23389, Note_on_c, 1, 35, 0
3, 23400, Note_on_c, 1, 40, 115
3, 23449, Note_on_c, 1, 40, 0
3, 23580, Note_on_c, 1, 40, 115
3, 23629, Note_on_c, 1, 40, 0
3, 23760, Note_on_c, 1, 40, 115
3, 23868, Note_on_c, 1, 40, 0
3, 23880, Note_on_c, 1, 35, 115
3, 23988, Note_on_c, 1, 35, 0
3, 24000, Note_on_c, 1, 41, 115
3, 24049, Note_on_c, 1, 41, 0
3, 24180, Note_on_c, 1, 41, 115
3, 24229, Note_on_c, 1, 41, 0
3, 24300, Note_on_c, 1, 36, 115
3, 24349, Note_on_c, 1, 36, 0
3, 24360, Note_on_c, 1, 41, 115
3, 24409, Note_on_c, 1, 41, 0
3, 24540, Note_on_c, 1, 41, 115
3, 24589, Note_on_c, 1, 41, 0
3, 24720, Note_on_c, 1, 41, 115
3, 24769, Note_on_c, 1, 41, 0
3, 24840, Note_on_c, 1, 36, 115
3, 24948, Note_on_c, 1, 36, 0
3, 24960, Note_on_c, 1, 29, 115
3, 24960, Note_on_c, 1, 41, 115
3, 24987, Note_on_c, 1, 41, 0
3, 24987, Note_on_c, 1, 29, 0
3, 25020, Note_on_c, 1, 31, 115
3, 25020, Note_on_c, 1, 43, 115
3, 25047, Note_on_c, 1, 43, 0
3, 25047, Note_on_c, 1, 31, 0
3, 25080, Note_on_c, 1, 32, 115
3, 25080, Note_on_c, 1, 44, 115
3, 25107, Note_on_c, 1, 44, 0
3, 25107, Note_on_c, 1, 32, 0
3, 25140, Note_on_c, 1, 31, 115
3, 25140, Note_on_c, 1, 43, 115
3, 25167, Note_on_c, 1, 43, 0
3, 25167, Note_on_c, 1, 31, 0
3, 25200, Note_on_c, 1, 32, 115
3, 25200, Note_on_c, 1, 44, 115
3, 25227, Note_on_c, 1, 44, 0
3, 25227, Note_on_c, 1, 32, 0
3, 25260, Note_on_c, 1, 34, 115
3, 25260, Note_on_c, 1, 46, 115
3, 25368, Note_on_c, 1, 46, 0
3, 25368, Note_on_c, 1, 34, 0
3, 25380, Note_on_c, 1, 32, 115
3, 25380, Note_on_c, 1, 44, 115
3, 25488, Note_on_c, 1, 44, 0
3, 25488, Note_on_c, 1, 32, 0
3, 25500, Note_on_c, 1, 34, 115
3, 25500, Note_on_c, 1, 46, 115
3, 25554, Note_on_c, 1, 46, 0
3, 25554, Note_on_c, 1, 34, 0
3, 25560, Note_on_c, 1, 36, 115
3, 25560, Note_on_c, 1, 48, 115
3, 25614, Note_on_c, 1, 48, 0
3, 25614, Note_on_c, 1, 36, 0
3, 25620, Note_on_c, 1, 38, 115
3, 25620, Note_on_c, 1, 50, 115
3, 25674, Note_on_c, 1, 50, 0
3, 25674, Note_on_c, 1, 38, 0
3, 25680, Note_on_c, 1, 41, 115
3, 25680, Note_on_c, 1, 53, 115
3, 25734, Note_on_c, 1, 53, 0
3, 25734, Note_on_c, 1, 41, 0
3, 25740, Note_on_c, 1, 40, 115
3, 25740, Note_on_c, 1, 52, 115
3, 25794, Note_on_c, 1, 52, 0
3, 25794, Note_on_c, 1, 40, 0
3, 25800, Note_on_c, 1, 38, 115
3, 25800, Note_on_c, 1, 50, 115
3, 25854, Note_on_c, 1, 50, 0
3, 25854, Note_on_c, 1, 38, 0
3, 25860, Note_on_c, 1, 41, 115
3, 25860, Note_on_c, 1, 53, 115
3, 25914, Note_on_c, 1, 53, 0
3, 25914, Note_on_c, 1, 41, 0
3, 25920, Note_on_c, 1, 37, 115
3, 25974, Note_on_c, 1, 37, 0
3, 26100, Note_on_c, 1, 37, 115
3, 26154, Note_on_c, 1, 37, 0
3, 26400, Note_on_c, 1, 37, 115
3, 26454, Note_on_c, 1, 37, 0
3, 26580, Note_on_c, 1, 37, 115
3, 26634, Note_on_c, 1, 37, 0
3, 26760, Note_on_c, 1, 34, 115
3, 26809, Note_on_c, 1, 34, 0
3, 26820, Note_on_c, 1, 35, 115
3, 26847, Note_on_c, 1, 35, 0
3, 26850, Note_on_c, 1, 36, 115
3, 26877, Note_on_c, 1, 36, 0
3, 26880, Note_on_c, 1, 37, 115
3, 26934, Note_on_c, 1, 37, 0
3, 27060, Note_on_c, 1, 37, 115
3, 27114, Note_on_c, 1, 37, 0
3, 27360, Note_on_c, 1, 37, 115
3, 27414, Note_on_c, 1, 37, 0
3, 27540, Note_on_c, 1, 37, 115
3, 27594, Note_on_c, 1, 37, 0
3, 27720, Note_on_c, 1, 37, 115
3, 27769, Note_on_c, 1, 37, 0
3, 27780, Note_on_c, 1, 36, 115
3, 27807, Note_on_c, 1, 36, 0
3, 27810, Note_on_c, 1, 35, 115
3, 27837, Note_on_c, 1, 35, 0
3, 27840, Note_on_c, 1, 34, 115
3, 27889, Note_on_c, 1, 34, 0
3, 28020, Note_on_c, 1, 34, 115
3, 28069, Note_on_c, 1, 34, 0
3, 28320, Note_on_c, 1, 34, 115
3, 28369, Note_on_c, 1, 34, 0
3, 28500, Note_on_c, 1, 34, 115
3, 28549, Note_on_c, 1, 34, 0
3, 28680, Note_on_c, 1, 34, 115
3, 28729, Note_on_c, 1, 34, 0
3, 28740, Note_on_c, 1, 36, 115
3, 28767, Note_on_c, 1, 36, 0
3, 28770, Note_on_c, 1, 37, 115
3, 28797, Note_on_c, 1, 37, 0
3, 28800, Note_on_c, 1, 39, 115
3, 29040, Note_on_c, 1, 39, 0
3, 29040, Note_on_c, 1, 34, 115
3, 29280, Note_on_c, 1, 34, 0
3, 29280, Note_on_c, 1, 38, 115
3, 29520, Note_on_c, 1, 38, 0
3, 29520, Note_on_c, 1, 31, 115
3, 29760, Note_on_c, 1, 31, 0
3, 29760, Note_on_c, 1, 36, 115
3, 29809, Note_on_c, 1, 36, 0
3, 29940, Note_on_c, 1, 36, 115
3, 29989, Note_on_c, 1, 36, 0
3, 30060, Note_on_c, 1, 31, 115
3, 30109, Note_on_c, 1, 31, 0
3, 30120, Note_on_c, 1, 36, 115
3, 30169, Note_on_c, 1, 36, 0
3, 30300, Note_on_c, 1, 36, 115
3, 30349, Note_on_c, 1, 36, 0
3, 30480, Note_on_c, 1, 36, 115
3, 30529, Note_on_c, 1, 36, 0
3, 30600, Note_on_c, 1, 31, 115
3, 30697, Note_on_c, 1, 31, 0
3, 30720, Note_on_c, 1, 36, 115
3, 30769, Note_on_c, 1, 36, 0
3, 30900, Note_on_c, 1, 36, 115
3, 30949, Note_on_c, 1, 36, 0
3, 31020, Note_on_c, 1, 31, 115
3, 31069, Note_on_c, 1, 31, 0
3, 31080, Note_on_c, 1, 36, 115
3, 31129, Note_on_c, 1, 36, 0
3, 31260, Note_on_c, 1, 36, 115
3, 31309, Note_on_c, 1, 36, 0
3, 31440, Note_on_c, 1, 36, 115
3, 31537, Note_on_c, 1, 36, 0
3, 31560, Note_on_c, 1, 35, 115
3, 31657, Note_on_c, 1, 35, 0
3, 31680, Note_on_c, 1, 33, 115
3, 31729, Note_on_c, 1, 33, 0
3, 31860, Note_on_c, 1, 33, 115
3, 31909, Note_on_c, 1, 33, 0
3, 31980, Note_on_c, 1, 28, 115
3, 32029, Note_on_c, 1, 28, 0
3, 32040, Note_on_c, 1, 33, 115
3, 32089, Note_on_c, 1, 33, 0
3, 32220, Note_on_c, 1, 33, 115
3, 32269, Note_on_c, 1, 33, 0
3, 32400, Note_on_c, 1, 33, 115
3, 32449, Note_on_c, 1, 33, 0
3, 32520, Note_on_c, 1, 28, 115
3, 32617, Note_on_c, 1, 28, 0
3, 32640, Note_on_c, 1, 31, 115
3, 32689, Note_on_c, 1, 31, 0
3, 32820, Note_on_c, 1, 31, 115
3, 32869, Note_on_c, 1, 31, 0
3, 32940, Note_on_c, 1, 38, 115
3, 32989, Note_on_c, 1, 38, 0
3, 33000, Note_on_c, 1, 31, 115
3, 33049, Note_on_c, 1, 31, 0
3, 33180, Note_on_c, 1, 31, 115
3, 33229, Note_on_c, 1, 31, 0
3, 33360, Note_on_c, 1, 31, 115
3, 33457, Note_on_c, 1, 31, 0
3, 33480, Note_on_c, 1, 29, 115
3, 33577, Note_on_c, 1, 29, 0
3, 33600, Note_on_c, 1, 40, 115
3, 33649, Note_on_c, 1, 40, 0
3, 33780, Note_on_c, 1, 40, 115
3, 33829, Note_on_c, 1, 40, 0
3, 33900, Note_on_c, 1, 35, 115
3, 33949, Note_on_c, 1, 35, 0
3, 33960, Note_on_c, 1, 40, 115
3, 34009, Note_on_c, 1, 40, 0
3, 34140, Note_on_c, 1, 40, 115
3, 34189, Note_on_c, 1, 40, 0
3, 34320, Note_on_c, 1, 40, 115
3, 34369, Note_on_c, 1, 40, 0
3, 34440, Note_on_c, 1, 33, 115
3, 34537, Note_on_c, 1, 33, 0
3, 34560, Note_on_c, 1, 38, 115
3, 34609, Note_on_c, 1, 38, 0
3, 34740, Note_on_c, 1, 38, 115
3, 34789, Note_on_c, 1, 38, 0
3, 34860, Note_on_c, 1, 33, 115
3, 34909, Note_on_c, 1, 33, 0
3, 34920, Note_on_c, 1, 38, 115
3, 34969, Note_on_c, 1, 38, 0
3, 35100, Note_on_c, 1, 38, 115
3, 35149, Note_on_c, 1, 38, 0
3, 35280, Note_on_c, 1, 38, 115
3, 35329, Note_on_c, 1, 38, 0
3, 35400, Note_on_c, 1, 33, 115
3, 35497, Note_on_c, 1, 33, 0
3, 35520, Note_on_c, 1, 38, 115
3, 35569, Note_on_c, 1, 38, 0
3, 35700, Note_on_c, 1, 38, 115
3, 35749, Note_on_c, 1, 38, 0
3, 35820, Note_on_c, 1, 33, 115
3, 35869, Note_on_c, 1, 33, 0
3, 35880, Note_on_c, 1, 38, 115
3, 35929, Note_on_c, 1, 38, 0
3, 36060, Note_on_c, 1, 38, 115
3, 36109, Note_on_c, 1, 38, 0
3, 36240, Note_on_c, 1, 38, 115
3, 36289, Note_on_c, 1, 38, 0
3, 36360, Note_on_c, 1, 33, 115
3, 36457, Note_on_c, 1, 33, 0
3, 36480, Note_on_c, 1, 38, 115
3, 36529, Note_on_c, 1, 38, 0
3, 36660, Note_on_c, 1, 38, 115
3, 36709, Note_on_c, 1, 38, 0
3, 36780, Note_on_c, 1, 32, 115
3, 36829, Note_on_c, 1, 32, 0
3, 36840, Note_on_c, 1, 38, 115
3, 36889, Note_on_c, 1, 38, 0
3, 37020, Note_on_c, 1, 38, 115
3, 37069, Note_on_c, 1, 38, 0
3, 37200, Note_on_c, 1, 38, 115
3, 37249, Note_on_c, 1, 38, 0
3, 37320, Note_on_c, 1, 31, 115
3, 37417, Note_on_c, 1, 31, 0
3, 37440, Note_on_c, 1, 36, 115
3, 37489, Note_on_c, 1, 36, 0
3, 37620, Note_on_c, 1, 36, 115
3, 37669, Note_on_c, 1, 36, 0
3, 37740, Note_on_c, 1, 31, 115
3, 37789, Note_on_c, 1, 31, 0
3, 37800, Note_on_c, 1, 36, 115
3, 37849, Note_on_c, 1, 36, 0
3, 37980, Note_on_c, 1, 36, 115
3, 38029, Note_on_c, 1, 36, 0
3, 38160, Note_on_c, 1, 36, 115
3, 38209, Note_on_c, 1, 36, 0
3, 38280, Note_on_c, 1, 31, 115
3, 38377, Note_on_c, 1, 31, 0
3, 38400, Note_on_c, 1, 36, 115
3, 38449, Note_on_c, 1, 36, 0
3, 38580, Note_on_c, 1, 36, 115
3, 38629, Note_on_c, 1, 36, 0
3, 38700, Note_on_c, 1, 31, 115
3, 38749, Note_on_c, 1, 31, 0
3, 38760, Note_on_c, 1, 36, 115
3, 38809, Note_on_c, 1, 36, 0
3, 38940, Note_on_c, 1, 36, 115
3, 38989, Note_on_c, 1, 36, 0
3, 39120, Note_on_c, 1, 36, 115
3, 39217, Note_on_c, 1, 36, 0
3, 39240, Note_on_c, 1, 35, 115
3, 39337, Note_on_c, 1, 35, 0
3, 39360, Note_on_c, 1, 33, 115
3, 39409, Note_on_c, 1, 33, 0
3, 39540, Note_on_c, 1, 33, 115
3, 39589, Note_on_c, 1, 33, 0
3, 39660, Note_on_c, 1, 28, 115
3, 39709, Note_on_c, 1, 28, 0
3, 39720, Note_on_c, 1, 33, 115
3, 39769, Note_on_c, 1, 33, 0
3, 39900, Note_on_c, 1, 33, 115
3, 39949, Note_on_c, 1, 33, 0
3, 40080, Note_on_c, 1, 33, 115
3, 40129, Note_on_c, 1, 33, 0
3, 40200, Note_on_c, 1, 28, 115
3, 40297, Note_on_c, 1, 28, 0
3, 40320, Note_on_c, 1, 31, 115
3, 40369, Note_on_c, 1, 31, 0
3, 40500, Note_on_c, 1, 31, 115
3, 40549, Note_on_c, 1, 31, 0
3, 40620, Note_on_c, 1, 38, 115
3, 40669, Note_on_c, 1, 38, 0
3, 40680, Note_on_c, 1, 31, 115
3, 40729, Note_on_c, 1, 31, 0
3, 40860, Note_on_c, 1, 31, 115
3, 40909, Note_on_c, 1, 31, 0
3, 41040, Note_on_c, 1, 31, 115
3, 41137, Note_on_c, 1, 31, 0
3, 41160, Note_on_c, 1, 29, 115
3, 41257, Note_on_c, 1, 29, 0
3, 41280, Note_on_c, 1, 40, 115
3, 41329, Note_on_c, 1, 40, 0
3, 41460, Note_on_c, 1, 40, 115
3, 41509, Note_on_c, 1, 40, 0
3, 41580, Note_on_c, 1, 35, 115
3, 41629, Note_on_c, 1, 35, 0
3, 41640, Note_on_c, 1, 40, 115
3, 41689, Note_on_c, 1, 40, 0
3, 41820, Note_on_c, 1, 40, 115
3, 41869, Note_on_c, 1, 40, 0
3, 42000, Note_on_c, 1, 40, 115
3, 42049, Note_on_c, 1, 40, 0
3, 42120, Note_on_c, 1, 33, 115
3, 42217, Note_on_c, 1, 33, 0
3, 42240, Note_on_c, 1, 38, 115
3, 42289, Note_on_c, 1, 38, 0
3, 42420, Note_on_c, 1, 38, 115
3, 42469, Note_on_c, 1, 38, 0
3, 42540, Note_on_c, 1, 33, 115
3, 42589, Note_on_c, 1, 33, 0
3, 42600, Note_on_c, 1, 38, 115
3, 42649, Note_on_c, 1, 38, 0
3, 42780, Note_on_c, 1, 38, 115
3, 42829, Note_on_c, 1, 38, 0
3, 42960, Note_on_c, 1, 38, 115
3, 43009, Note_on_c, 1, 38, 0
3, 43080, Note_on_c, 1, 33, 115
3, 43177, Note_on_c, 1, 33, 0
3, 43200, Note_on_c, 1, 38, 115
3, 43249, Note_on_c, 1, 38, 0
3, 43380, Note_on_c, 1, 38, 115
3, 43429, Note_on_c, 1, 38, 0
3, 43500, Note_on_c, 1, 33, 115
3, 43549, Note_on_c, 1, 33, 0
3, 43560, Note_on_c, 1, 38, 115
3, 43609, Note_on_c, 1, 38, 0
3, 43740, Note_on_c, 1, 38, 115
3, 43789, Note_on_c, 1, 38, 0
3, 43920, Note_on_c, 1, 38, 115
3, 43969, Note_on_c, 1, 38, 0
3, 44040, Note_on_c, 1, 33, 115
3, 44137, Note_on_c, 1, 33, 0
3, 44160, Note_on_c, 1, 31, 115
3, 44322, Note_on_c, 1, 31, 0
3, 44340, Note_on_c, 1, 33, 115
3, 44502, Note_on_c, 1, 33, 0
3, 44520, Note_on_c, 1, 35, 115
3, 44682, Note_on_c, 1, 35, 0
3, 44700, Note_on_c, 1, 36, 115
3, 44862, Note_on_c, 1, 36, 0
3, 44880, Note_on_c, 1, 38, 115
3, 44988, Note_on_c, 1, 38, 0
3, 45000, Note_on_c, 1, 37, 115
3, 45108, Note_on_c, 1, 37, 0
3, 45120, Note_on_c, 1, 36, 115
3, 45169, Note_on_c, 1, 36, 0
3, 45300, Note_on_c, 1, 36, 115
3, 45349, Note_on_c, 1, 36, 0
3, 45420, Note_on_c, 1, 31, 115
3, 45469, Note_on_c, 1, 31, 0
3, 45480, Note_on_c, 1, 36, 115
3, 45529, Note_on_c, 1, 36, 0
3, 45660, Note_on_c, 1, 36, 115
3, 45709, Note_on_c, 1, 36, 0
3, 45840, Note_on_c, 1, 36, 115
3, 45889, Note_on_c, 1, 36, 0
3, 45960, Note_on_c, 1, 31, 115
3, 46009, Note_on_c, 1, 31, 0
3, 46080, Note_on_c, 1, 40, 115
3, 46129, Note_on_c, 1, 40, 0
3, 46260, Note_on_c, 1, 40, 115
3, 46309, Note_on_c, 1, 40, 0
3, 46380, Note_on_c, 1, 35, 115
3, 46429, Note_on_c, 1, 35, 0
3, 46440, Note_on_c, 1, 40, 115
3, 46489, Note_on_c, 1, 40, 0
3, 46620, Note_on_c, 1, 40, 115
3, 46669, Note_on_c, 1, 40, 0
3, 46800, Note_on_c, 1, 40, 115
3, 46908, Note_on_c, 1, 40, 0
3, 46920, Note_on_c, 1, 35, 115
3, 47028, Note_on_c, 1, 35, 0
3, 47040, Note_on_c, 1, 33, 115
3, 47089, Note_on_c, 1, 33, 0
3, 47220, Note_on_c, 1, 33, 115
3, 47269, Note_on_c, 1, 33, 0
3, 47340, Note_on_c, 1, 40, 115
3, 47389, Note_on_c, 1, 40, 0
3, 47400, Note_on_c, 1, 33, 115
3, 47449, Note_on_c, 1, 33, 0
3, 47580, Note_on_c, 1, 33, 115
3, 47629, Note_on_c, 1, 33, 0
3, 47760, Note_on_c, 1, 33, 115
3, 47809, Note_on_c, 1, 33, 0
3, 47880, Note_on_c, 1, 40, 115
3, 47988, Note_on_c, 1, 40, 0
3, 48000, Note_on_c, 1, 31, 115
3, 48049, Note_on_c, 1, 31, 0
3, 48180, Note_on_c, 1, 31, 115
3, 48229, Note_on_c, 1, 31, 0
3, 48300, Note_on_c, 1, 38, 115
3, 48349, Note_on_c, 1, 38, 0
3, 48360, Note_on_c, 1, 31, 115
3, 48409, Note_on_c, 1, 31, 0
3, 48540, Note_on_c, 1, 31, 115
3, 48589, Note_on_c, 1, 31, 0
3, 48720, Note_on_c, 1, 31, 115
3, 48828, Note_on_c, 1, 31, 0
3, 48840, Note_on_c, 1, 38, 115
3, 48948, Note_on_c, 1, 38, 0
3, 48960, Note_on_c, 1, 36, 115
3, 49009, Note_on_c, 1, 36, 0
3, 49140, Note_on_c, 1, 36, 115
3, 49189, Note_on_c, 1, 36, 0
3, 49260, Note_on_c, 1, 31, 115
3, 49309, Note_on_c, 1, 31, 0
3, 49320, Note_on_c, 1, 36, 115
3, 49369, Note_on_c, 1, 36, 0
3, 49500, Note_on_c, 1, 36, 115
3, 49549, Note_on_c, 1, 36, 0
3, 49680, Note_on_c, 1, 36, 115
3, 49729, Note_on_c, 1, 36, 0
3, 49800, Note_on_c, 1, 31, 115
3, 49849, Note_on_c, 1, 31, 0
3, 49920, Note_on_c, 1, 40, 115
3, 49969, Note_on_c, 1, 40, 0
3, 50100, Note_on_c, 1, 40, 115
3, 50149, Note_on_c, 1, 40, 0
3, 50220, Note_on_c, 1, 35, 115
3, 50269, Note_on_c, 1, 35, 0
3, 50280, Note_on_c, 1, 40, 115
3, 50329, Note_on_c, 1, 40, 0
3, 50460, Note_on_c, 1, 40, 115
3, 50509, Note_on_c, 1, 40, 0
3, 50640, Note_on_c, 1, 40, 115
3, 50748, Note_on_c, 1, 40, 0
3, 50760, Note_on_c, 1, 35, 115
3, 50868, Note_on_c, 1, 35, 0
3, 50880, Note_on_c, 1, 41, 115
3, 50929, Note_on_c, 1, 41, 0
3, 51060, Note_on_c, 1, 41, 115
3, 51109, Note_on_c, 1, 41, 0
3, 51180, Note_on_c, 1, 36, 115
3, 51229, Note_on_c, 1, 36, 0
3, 51240, Note_on_c, 1, 41, 115
3, 51289, Note_on_c, 1, 41, 0
3, 51420, Note_on_c, 1, 41, 115
3, 51469, Note_on_c, 1, 41, 0
3, 51600, Note_on_c, 1, 41, 115
3, 51649, Note_on_c, 1, 41, 0
3, 51720, Note_on_c, 1, 36, 115
3, 51828, Note_on_c, 1, 36, 0
3, 51840, Note_on_c, 1, 29, 115
3, 51840, Note_on_c, 1, 41, 115
3, 51867, Note_on_c, 1, 41, 0
3, 51867, Note_on_c, 1, 29, 0
3, 51900, Note_on_c, 1, 31, 115
3, 51900, Note_on_c, 1, 43, 115
3, 51927, Note_on_c, 1, 43, 0
3, 51927, Note_on_c, 1, 31, 0
3, 51960, Note_on_c, 1, 32, 115
3, 51960, Note_on_c, 1, 44, 115
3, 51987, Note_on_c, 1, 44, 0
3, 51987, Note_on_c, 1, 32, 0
3, 52020, Note_on_c, 1, 31, 115
3, 52020, Note_on_c, 1, 43, 115
3, 52047, Note_on_c, 1, 43, 0
3, 52047, Note_on_c, 1, 31, 0
3, 52080, Note_on_c, 1, 32, 115
3, 52080, Note_on_c, 1, 44, 115
3, 52107, Note_on_c, 1, 44, 0
3, 52107, Note_on_c, 1, 32, 0
3, 52140, Note_on_c, 1, 34, 115
3, 52140, Note_on_c, 1, 46, 115
3, 52248, Note_on_c, 1, 46, 0
3, 52248, Note_on_c, 1, 34, 0
3, 52260, Note_on_c, 1, 32, 115
3, 52260, Note_on_c, 1, 44, 115
3, 52368, Note_on_c, 1, 44, 0
3, 52368, Note_on_c, 1, 32, 0
3, 52380, Note_on_c, 1, 34, 115
3, 52380, Note_on_c, 1, 46, 115
3, 52434, Note_on_c, 1, 46, 0
3, 52434, Note_on_c, 1, 34, 0
3, 52440, Note_on_c, 1, 36, 115
3, 52440, Note_on_c, 1, 48, 115
3, 52494, Note_on_c, 1, 48, 0
3, 52494, Note_on_c, 1, 36, 0
3, 52500, Note_on_c, 1, 38, 115
3, 52500, Note_on_c, 1, 50, 115
3, 52554, Note_on_c, 1, 50, 0
3, 52554, Note_on_c, 1, 38, 0
3, 52560, Note_on_c, 1, 41, 115
3, 52560, Note_on_c, 1, 53, 115
3, 52614, Note_on_c, 1, 53, 0
3, 52614, Note_on_c, 1, 41, 0
3, 52620, Note_on_c, 1, 40, 115
3, 52620, Note_on_c, 1, 52, 115
3, 52674, Note_on_c, 1, 52, 0
3, 52674, Note_on_c, 1, 40, 0
3, 52680, Note_on_c, 1, 38, 115
3, 52680, Note_on_c, 1, 50, 115
3, 52734, Note_on_c, 1, 50, 0
3, 52734, Note_on_c, 1, 38, 0
3, 52740, Note_on_c, 1, 41, 115
3, 52740, Note_on_c, 1, 53, 115
3, 52794, Note_on_c, 1, 53, 0
3, 52794, Note_on_c, 1, 41, 0
3, 52800, Note_on_c, 1, 37, 115
3, 52854, Note_on_c, 1, 37, 0
3, 52980, Note_on_c, 1, 37, 115
3, 53034, Note_on_c, 1, 37, 0
3, 53280, Note_on_c, 1, 37, 115
3, 53334, Note_on_c, 1, 37, 0
3, 53460, Note_on_c, 1, 37, 115
3, 53514, Note_on_c, 1, 37, 0
3, 53640, Note_on_c, 1, 34, 115
3, 53689, Note_on_c, 1, 34, 0
3, 53700, Note_on_c, 1, 35, 115
3, 53727, Note_on_c, 1, 35, 0
3, 53730, Note_on_c, 1, 36, 115
3, 53757, Note_on_c, 1, 36, 0
3, 53760, Note_on_c, 1, 37, 115
3, 53814, Note_on_c, 1, 37, 0
3, 53940, Note_on_c, 1, 37, 115
3, 53994, Note_on_c, 1, 37, 0
3, 54240, Note_on_c, 1, 37, 115
3, 54294, Note_on_c, 1, 37, 0
3, 54420, Note_on_c, 1, 37, 115
3, 54474, Note_on_c, 1, 37, 0
3, 54600, Note_on_c, 1, 37, 115
3, 54649, Note_on_c, 1, 37, 0
3, 54660, Note_on_c, 1, 36, 115
3, 54687, Note_on_c, 1, 36, 0
3, 54690, Note_on_c, 1, 35, 115
3, 54717, Note_on_c, 1, 35, 0
3, 54720, Note_on_c, 1, 34, 115
3, 54769, Note_on_c, 1, 34, 0
3, 54900, Note_on_c, 1, 34, 115
3, 54949, Note_on_c, 1, 34, 0
3, 55200, Note_on_c, 1, 34, 115
3, 55249, Note_on_c, 1, 34, 0
3, 55380, Note_on_c, 1, 34, 115
3, 55429, Note_on_c, 1, 34, 0
3, 55560, Note_on_c, 1, 34, 115
3, 55609, Note_on_c, 1, 34, 0
3, 55620, Note_on_c, 1, 36, 115
3, 55647, Note_on_c, 1, 36, 0
3, 55650, Note_on_c, 1, 37, 115
3, 55677, Note_on_c, 1, 37, 0
3, 55680, Note_on_c, 1, 39, 115
3, 55920, Note_on_c, 1, 39, 0
3, 55920, Note_on_c, 1, 34, 115
3, 56160, Note_on_c, 1, 34, 0
3, 56160, Note_on_c, 1, 38, 115
3, 56400, Note_on_c, 1, 38, 0
3, 56400, Note_on_c, 1, 31, 115
3, 56630, Control_c, 1, 11, 127
3, 56640, Note_on_c, 1, 31, 0
3, 56640, Note_on_c, 1, 36, 115
3, 56660, Control_c, 1, 11, 126
3, 56680, Control_c, 1, 11, 125
3, 56689, Note_on_c, 1, 36, 0
3, 56700, Control_c, 1, 11, 124
3, 56730, Control_c, 1, 11, 123
3, 56750, Control_c, 1, 11, 122
3, 56770, Control_c, 1, 11, 121
3, 56800, Control_c, 1, 11, 120
3, 56820, Control_c, 1, 11, 119
3, 56820, Note_on_c, 1, 36, 115
3, 56840, Control_c, 1, 11, 118
3, 56860, Control_c, 1, 11, 117
3, 56869, Note_on_c, 1, 36, 0
3, 56890, Control_c, 1, 11, 116
3, 56910, Control_c, 1, 11, 115
3, 56930, Control_c, 1, 11, 114
3, 56940, Note_on_c, 1, 31, 115
3, 56960, Control_c, 1, 11, 113
3, 56980, Control_c, 1, 11, 112
3, 56989, Note_on_c, 1, 31, 0
3, 57000, Control_c, 1, 11, 111
3, 57000, Note_on_c, 1, 36, 115
3, 57030, Control_c, 1, 11, 110
3, 57049, Note_on_c, 1, 36, 0
3, 57050, Control_c, 1, 11, 109
3, 57070, Control_c, 1, 11, 108
3, 57090, Control_c, 1, 11, 107
3, 57120, Control_c, 1, 11, 106
3, 57140, Control_c, 1, 11, 105
3, 57160, Control_c, 1, 11, 104
3, 57180, Note_on_c, 1, 36, 115
3, 57190, Control_c, 1, 11, 103
3, 57210, Control_c, 1, 11, 102
3, 57229, Note_on_c, 1, 36, 0
3, 57230, Control_c, 1, 11, 101
3, 57260, Control_c, 1, 11, 100
3, 57280, Control_c, 1, 11, 99
3, 57300, Control_c, 1, 11, 98
3, 57320, Control_c, 1, 11, 97
3, 57350, Control_c, 1, 11, 96
3, 57360, Note_on_c, 1, 36, 115
3, 57370, Control_c, 1, 11, 95
3, 57390, Control_c, 1, 11, 94
3, 57409, Note_on_c, 1, 36, 0
3, 57420, Control_c, 1, 11, 93
3, 57440, Control_c, 1, 11, 92
3, 57460, Control_c, 1, 11, 91
3, 57480, Note_on_c, 1, 31, 115
3, 57490, Control_c, 1, 11, 90
3, 57510, Control_c, 1, 11, 89
3, 57530, Control_c, 1, 11, 88
3, 57550, Control_c, 1, 11, 87
3, 57577, Note_on_c, 1, 31, 0
3, 57580, Control_c, 1, 11, 86
3, 57600, Control_c, 1, 11, 85
3, 57600, Note_on_c, 1, 36, 115
3, 57620, Control_c, 1, 11, 84
3, 57649, Note_on_c, 1, 36, 0
3, 57650, Control_c, 1, 11, 83
3, 57670, Control_c, 1, 11, 82
3, 57690, Control_c, 1, 11, 81
3, 57720, Control_c, 1, 11, 80
3, 57740, Control_c, 1, 11, 79
3, 57760, Control_c, 1, 11, 78
3, 57780, Control_c, 1, 11, 77
3, 57780, Note_on_c, 1, 36, 115
3, 57810, Control_c, 1, 11, 76
3, 57829, Note_on_c, 1, 36, 0
3, 57830, Control_c, 1, 11, 75
3, 57850, Control_c, 1, 11, 74
3, 57880, Control_c, 1, 11, 73
3, 57900, Control_c, 1, 11, 72
3, 57900, Note_on_c, 1, 31, 115
3, 57920, Control_c, 1, 11, 71
3, 57949, Note_on_c, 1, 31, 0
3, 57950, Control_c, 1, 11, 70
3, 57960, Note_on_c, 1, 36, 115
3, 57970, Control_c, 1, 11, 69
3, 57990, Control_c, 1, 11, 68
3, 58009, Note_on_c, 1, 36, 0
3, 58010, Control_c, 1, 11, 67
3, 58040, Control_c, 1, 11, 66
3, 58060, Control_c, 1, 11, 65
3, 58080, Control_c, 1, 11, 64
3, 58110, Control_c, 1, 11, 63
3, 58130, Control_c, 1, 11, 62
3, 58140, Note_on_c, 1, 36, 115
3, 58150, Control_c, 1, 11, 61
3, 58180, Control_c, 1, 11, 60
3, 58189, Note_on_c, 1, 36, 0
3, 58200, Control_c, 1, 11, 59
3, 58220, Control_c, 1, 11, 58
3, 58240, Control_c, 1, 11, 57
3, 58270, Control_c, 1, 11, 56
3, 58290, Control_c, 1, 11, 55
3, 58310, Control_c, 1, 11, 54
3, 58320, Note_on_c, 1, 36, 115
3, 58340, Control_c, 1, 11, 53
3, 58360, Control_c, 1, 11, 52
3, 58380, Control_c, 1, 11, 51
3, 58410, Control_c, 1, 11, 50
3, 58417, Note_on_c, 1, 36, 0
3, 58430, Control_c, 1, 11, 49
3, 58440, Note_on_c, 1, 35, 115
3, 58450, Control_c, 1, 11, 48
3, 58470, Control_c, 1, 11, 47
3, 58500, Control_c, 1, 11, 46
3, 58520, Control_c, 1, 11, 45
3, 58537, Note_on_c, 1, 35, 0
3, 58540, Control_c, 1, 11, 44
3, 58560, Note_on_c, 1, 33, 115
3, 58570, Control_c, 1, 11, 43
3, 58590, Control_c, 1, 11, 42
3, 58609, Note_on_c, 1, 33, 0
3, 58610, Control_c, 1, 11, 41
3, 58640, Control_c, 1, 11, 40
3, 58660, Control_c, 1, 11, 39
3, 58680, Control_c, 1, 11, 38
3, 58700, Control_c, 1, 11, 37
3, 58730, Control_c, 1, 11, 36
3, 58740, Note_on_c, 1, 33, 115
3, 58750, Control_c, 1, 11, 35
3, 58770, Control_c, 1, 11, 34
3, 58789, Note_on_c, 1, 33, 0
3, 58800, Control_c, 1, 11, 33
3, 58820, Control_c, 1, 11, 32
3, 58840, Control_c, 1, 11, 31
3, 58860, Note_on_c, 1, 28, 115
3, 58870, Control_c, 1, 11, 30
3, 58890, Control_c, 1, 11, 29
3, 58909, Note_on_c, 1, 28, 0
3, 58910, Control_c, 1, 11, 28
3, 58920, Note_on_c, 1, 33, 115
3, 58930, Control_c, 1, 11, 27
3, 58960, Control_c, 1, 11, 26
3, 58969, Note_on_c, 1, 33, 0
3, 58980, Control_c, 1, 11, 25
3, 59000, Control_c, 1, 11, 24
3, 59030, Control_c, 1, 11, 23
3, 59050, Control_c, 1, 11, 22
3, 59070, Control_c, 1, 11, 21
3, 59100, Control_c, 1, 11, 20
3, 59100, Note_on_c, 1, 33, 115
3, 59120, Control_c, 1, 11, 19
3, 59140, Control_c, 1, 11, 18
3, 59149, Note_on_c, 1, 33, 0
3, 59160, Control_c, 1, 11, 17
3, 59190, Control_c, 1, 11, 16
3, 59210, Control_c, 1, 11, 15
3, 59230, Control_c, 1, 11, 14
3, 59260, Control_c, 1, 11, 13
3, 59280, Control_c, 1, 11, 12
3, 59280, Note_on_c, 1, 33, 115
3, 59300, Control_c, 1, 11, 11
3, 59329, Note_on_c, 1, 33, 0
3, 59330, Control_c, 1, 11, 10
3, 59350, Control_c, 1, 11, 9
3, 59370, Control_c, 1, 11, 8
3, 59390, Control_c, 1, 11, 7
3, 59400, Note_on_c, 1, 28, 115
3, 59420, Control_c, 1, 11, 6
3, 59440, Control_c, 1, 11, 5
3, 59460, Control_c, 1, 11, 4
3, 59490, Control_c, 1, 11, 3
3, 59497, Note_on_c, 1, 28, 0
3, 59510, Control_c, 1, 11, 2
3, 59530, Control_c, 1, 11, 1
3, 59550, Control_c, 1, 11, 0
3, 59550, End_track
4, 0, Start_track
4, 0, Title_t, "A3-SlowStrings "
4, 98, Control_c, 2, 91, 40
4, 99, Control_c, 2, 93, 0
4, 102, Control_c, 2, 99, 1
4, 102, Control_c, 2, 98, 99
4, 102, Control_c, 2, 6, 53
4, 102, Control_c, 2, 38, 0
4, 105, Control_c, 2, 99, 1
4, 105, Control_c, 2, 98, 102
4, 105, Control_c, 2, 6, 61
4, 105, Control_c, 2, 38, 0
4, 130, Control_c, 2, 0, 0
4, 131, Control_c, 2, 32, 2
4, 132, Program_c, 2, 49
4, 133, Control_c, 2, 7, 100
4, 133, Control_c, 2, 10, 22
4, 945, Control_c, 2, 99, 1
4, 945, Control_c, 2, 98, 102
4, 945, Control_c, 2, 6, 61
4, 945, Control_c, 2, 38, 127
4, 963, Control_c, 2, 99, 1
4, 963, Control_c, 2, 98, 102
4, 963, Control_c, 2, 6, 61
4, 963, Control_c, 2, 38, 127
4, 1920, Note_on_c, 2, 43, 110
4, 1974, Note_on_c, 2, 43, 0
4, 2100, Note_on_c, 2, 50, 110
4, 2154, Note_on_c, 2, 50, 0
4, 2160, Note_on_c, 2, 43, 110
4, 2214, Note_on_c, 2, 43, 0
4, 2340, Note_on_c, 2, 50, 110
4, 2394, Note_on_c, 2, 50, 0
4, 2400, Note_on_c, 2, 43, 110
4, 2454, Note_on_c, 2, 43, 0
4, 2580, Note_on_c, 2, 50, 110
4, 2634, Note_on_c, 2, 50, 0
4, 2640, Note_on_c, 2, 43, 110
4, 2694, Note_on_c, 2, 43, 0
4, 2760, Note_on_c, 2, 43, 110
4, 2868, Note_on_c, 2, 43, 0
4, 2880, Note_on_c, 2, 36, 115
4, 2929, Note_on_c, 2, 36, 0
4, 3060, Note_on_c, 2, 36, 115
4, 3109, Note_on_c, 2, 36, 0
4, 3180, Note_on_c, 2, 31, 115
4, 3229, Note_on_c, 2, 31, 0
4, 3240, Note_on_c, 2, 36, 115
4, 3289, Note_on_c, 2, 36, 0
4, 3420, Note_on_c, 2, 36, 115
4, 3469, Note_on_c, 2, 36, 0
4, 3600, Note_on_c, 2, 36, 115
4, 3649, Note_on_c, 2, 36, 0
4, 3720, Note_on_c, 2, 31, 115
4, 3817, Note_on_c, 2, 31, 0
4, 3840, Note_on_c, 2, 36, 115
4, 3889, Note_on_c, 2, 36, 0
4, 4020, Note_on_c, 2, 36, 115
4, 4069, Note_on_c, 2, 36, 0
4, 4140, Note_on_c, 2, 31, 115
4, 4189, Note_on_c, 2, 31, 0
4, 4200, Note_on_c, 2, 36, 115
4, 4249, Note_on_c, 2, 36, 0
4, 4380, Note_on_c, 2, 36, 115
4, 4429, Note_on_c, 2, 36, 0
4, 4560, Note_on_c, 2, 36, 115
4, 4657, Note_on_c, 2, 36, 0
4, 4680, Note_on_c, 2, 35, 115
4, 4777, Note_on_c, 2, 35, 0
4, 4800, Note_on_c, 2, 33, 115
4, 4849, Note_on_c, 2, 33, 0
4, 4980, Note_on_c, 2, 33, 115
4, 5029, Note_on_c, 2, 33, 0
4, 5100, Note_on_c, 2, 28, 115
4, 5149, Note_on_c, 2, 28, 0
4, 5160, Note_on_c, 2, 33, 115
4, 5209, Note_on_c, 2, 33, 0
4, 5340, Note_on_c, 2, 33, 115
4, 5389, Note_on_c, 2, 33, 0
4, 5520, Note_on_c, 2, 33, 115
4, 5569, Note_on_c, 2, 33, 0
4, 5640, Note_on_c, 2, 28, 115
4, 5737, Note_on_c, 2, 28, 0
4, 5760, Note_on_c, 2, 31, 115
4, 5809, Note_on_c, 2, 31, 0
4, 5940, Note_on_c, 2, 31, 115
4, 5989, Note_on_c, 2, 31, 0
4, 6060, Note_on_c, 2, 38, 115
4, 6109, Note_on_c, 2, 38, 0
4, 6120, Note_on_c, 2, 31, 115
4, 6169, Note_on_c, 2, 31, 0
4, 6300, Note_on_c, 2, 31, 115
4, 6349, Note_on_c, 2, 31, 0
4, 6480, Note_on_c, 2, 31, 115
4, 6577, Note_on_c, 2, 31, 0
4, 6600, Note_on_c, 2, 29, 115
4, 6697, Note_on_c, 2, 29, 0
4, 6720, Note_on_c, 2, 40, 115
4, 6769, Note_on_c, 2, 40, 0
4, 6900, Note_on_c, 2, 40, 115
4, 6949, Note_on_c, 2, 40, 0
4, 7020, Note_on_c, 2, 35, 115
4, 7069, Note_on_c, 2, 35, 0
4, 7080, Note_on_c, 2, 40, 115
4, 7129, Note_on_c, 2, 40, 0
4, 7260, Note_on_c, 2, 40, 115
4, 7309, Note_on_c, 2, 40, 0
4, 7440, Note_on_c, 2, 40, 115
4, 7489, Note_on_c, 2, 40, 0
4, 7560, Note_on_c, 2, 33, 115
4, 7657, Note_on_c, 2, 33, 0
4, 7680, Note_on_c, 2, 38, 115
4, 7729, Note_on_c, 2, 38, 0
4, 7860, Note_on_c, 2, 38, 115
4, 7909, Note_on_c, 2, 38, 0
4, 7980, Note_on_c, 2, 33, 115
4, 8029, Note_on_c, 2, 33, 0
4, 8040, Note_on_c, 2, 38, 115
4, 8089, Note_on_c, 2, 38, 0
4, 8220, Note_on_c, 2, 38, 115
4, 8269, Note_on_c, 2, 38, 0
4, 8400, Note_on_c, 2, 38, 115
4, 8449, Note_on_c, 2, 38, 0
4, 8520, Note_on_c, 2, 33, 115
4, 8617, Note_on_c, 2, 33, 0
4, 8640, Note_on_c, 2, 38, 115
4, 8689, Note_on_c, 2, 38, 0
4, 8820, Note_on_c, 2, 38, 115
4, 8869, Note_on_c, 2, 38, 0
4, 8940, Note_on_c, 2, 33, 115
4, 8989, Note_on_c, 2, 33, 0
4, 9000, Note_on_c, 2, 38, 115
4, 9049, Note_on_c, 2, 38, 0
4, 9180, Note_on_c, 2, 38, 115
4, 9229, Note_on_c, 2, 38, 0
4, 9360, Note_on_c, 2, 38, 115
4, 9409, Note_on_c, 2, 38, 0
4, 9480, Note_on_c, 2, 33, 115
4, 9577, Note_on_c, 2, 33, 0
4, 9600, Note_on_c, 2, 38, 115
4, 9649, Note_on_c, 2, 38, 0
4, 9780, Note_on_c, 2, 38, 115
4, 9829, Note_on_c, 2, 38, 0
4, 9900, Note_on_c, 2, 32, 115
4, 9949, Note_on_c, 2, 32, 0
4, 9960, Note_on_c, 2, 38, 115
4, 10009, Note_on_c, 2, 38, 0
4, 10140, Note_on_c, 2, 38, 115
4, 10189, Note_on_c, 2, 38, 0
4, 10320, Note_on_c, 2, 38, 115
4, 10369, Note_on_c, 2, 38, 0
4, 10440, Note_on_c, 2, 31, 115
4, 10537, Note_on_c, 2, 31, 0
4, 10560, Note_on_c, 2, 36, 115
4, 10609, Note_on_c, 2, 36, 0
4, 10740, Note_on_c, 2, 36, 115
4, 10789, Note_on_c, 2, 36, 0
4, 10860, Note_on_c, 2, 31, 115
4, 10909, Note_on_c, 2, 31, 0
4, 10920, Note_on_c, 2, 36, 115
4, 10969, Note_on_c, 2, 36, 0
4, 11100, Note_on_c, 2, 36, 115
4, 11149, Note_on_c, 2, 36, 0
4, 11280, Note_on_c, 2, 36, 115
4, 11329, Note_on_c, 2, 36, 0
4, 11400, Note_on_c, 2, 31, 115
4, 11497, Note_on_c, 2, 31, 0
4, 11520, Note_on_c, 2, 36, 115
4, 11569, Note_on_c, 2, 36, 0
4, 11700, Note_on_c, 2, 36, 115
4, 11749, Note_on_c, 2, 36, 0
4, 11820, Note_on_c, 2, 31, 115
4, 11869, Note_on_c, 2, 31, 0
4, 11880, Note_on_c, 2, 36, 115
4, 11929, Note_on_c, 2, 36, 0
4, 12060, Note_on_c, 2, 36, 115
4, 12109, Note_on_c, 2, 36, 0
4, 12240, Note_on_c, 2, 36, 115
4, 12337, Note_on_c, 2, 36, 0
4, 12360, Note_on_c, 2, 35, 115
4, 12457, Note_on_c, 2, 35, 0
4, 12480, Note_on_c, 2, 33, 115
4, 12529, Note_on_c, 2, 33, 0
4, 12660, Note_on_c, 2, 33, 115
4, 12709, Note_on_c, 2, 33, 0
4, 12780, Note_on_c, 2, 28, 115
4, 12829, Note_on_c, 2, 28, 0
4, 12840, Note_on_c, 2, 33, 115
4, 12889, Note_on_c, 2, 33, 0
4, 13020, Note_on_c, 2, 33, 115
4, 13069, Note_on_c, 2, 33, 0
4, 13200, Note_on_c, 2, 33, 115
4, 13249, Note_on_c, 2, 33, 0
4, 13320, Note_on_c, 2, 28, 115
4, 13417, Note_on_c, 2, 28, 0
4, 13440, Note_on_c, 2, 31, 115
4, 13489, Note_on_c, 2, 31, 0
4, 13620, Note_on_c, 2, 31, 115
4, 13669, Note_on_c, 2, 31, 0
4, 13740, Note_on_c, 2, 38, 115
4, 13789, Note_on_c, 2, 38, 0
4, 13800, Note_on_c, 2, 31, 115
4, 13849, Note_on_c, 2, 31, 0
4, 13980, Note_on_c, 2, 31, 115
4, 14029, Note_on_c, 2, 31, 0
4, 14160, Note_on_c, 2, 31, 115
4, 14257, Note_on_c, 2, 31, 0
4, 14280, Note_on_c, 2, 29, 115
4, 14377, Note_on_c, 2, 29, 0
4, 14400, Note_on_c, 2, 40, 115
4, 14449, Note_on_c, 2, 40, 0
4, 14580, Note_on_c, 2, 40, 115
4, 14629, Note_on_c, 2, 40, 0
4, 14700, Note_on_c, 2, 35, 115
4, 14749, Note_on_c, 2, 35, 0
4, 14760, Note_on_c, 2, 40, 115
4, 14809, Note_on_c, 2, 40, 0
4, 14940, Note_on_c, 2, 40, 115
4, 14989, Note_on_c, 2, 40, 0
4, 15120, Note_on_c, 2, 40, 115
4, 15169, Note_on_c, 2, 40, 0
4, 15240, Note_on_c, 2, 33, 115
4, 15337, Note_on_c, 2, 33, 0
4, 15360, Note_on_c, 2, 38, 115
4, 15409, Note_on_c, 2, 38, 0
4, 15540, Note_on_c, 2, 38, 115
4, 15589, Note_on_c, 2, 38, 0
4, 15660, Note_on_c, 2, 33, 115
4, 15709, Note_on_c, 2, 33, 0
4, 15720, Note_on_c, 2, 38, 115
4, 15769, Note_on_c, 2, 38, 0
4, 15900, Note_on_c, 2, 38, 115
4, 15949, Note_on_c, 2, 38, 0
4, 16080, Note_on_c, 2, 38, 115
4, 16129, Note_on_c, 2, 38, 0
4, 16200, Note_on_c, 2, 33, 115
4, 16297, Note_on_c, 2, 33, 0
4, 16320, Note_on_c, 2, 38, 115
4, 16369, Note_on_c, 2, 38, 0
4, 16500, Note_on_c, 2, 38, 115
4, 16549, Note_on_c, 2, 38, 0
4, 16620, Note_on_c, 2, 33, 115
4, 16669, Note_on_c, 2, 33, 0
4, 16680, Note_on_c, 2, 38, 115
4, 16729, Note_on_c, 2, 38, 0
4, 16860, Note_on_c, 2, 38, 115
4, 16909, Note_on_c, 2, 38, 0
4, 17040, Note_on_c, 2, 38, 115
4, 17089, Note_on_c, 2, 38, 0
4, 17160, Note_on_c, 2, 33, 115
4, 17257, Note_on_c, 2, 33, 0
4, 17280, Note_on_c, 2, 31, 115
4, 17442, Note_on_c, 2, 31, 0
4, 17460, Note_on_c, 2, 33, 115
4, 17622, Note_on_c, 2, 33, 0
4, 17640, Note_on_c, 2, 35, 115
4, 17802, Note_on_c, 2, 35, 0
4, 17820, Note_on_c, 2, 36, 115
4, 17982, Note_on_c, 2, 36, 0
4, 18000, Note_on_c, 2, 38, 115
4, 18108, Note_on_c, 2, 38, 0
4, 18120, Note_on_c, 2, 37, 115
4, 18228, Note_on_c, 2, 37, 0
4, 18240, Note_on_c, 2, 36, 115
4, 18289, Note_on_c, 2, 36, 0
4, 18420, Note_on_c, 2, 36, 115
4, 18469, Note_on_c, 2, 36, 0
4, 18540, Note_on_c, 2, 31, 115
4, 18589, Note_on_c, 2, 31, 0
4, 18600, Note_on_c, 2, 36, 115
4, 18649, Note_on_c, 2, 36, 0
4, 18780, Note_on_c, 2, 36, 115
4, 18829, Note_on_c, 2, 36, 0
4, 18960, Note_on_c, 2, 36, 115
4, 19009, Note_on_c, 2, 36, 0
4, 19080, Note_on_c, 2, 31, 115
4, 19129, Note_on_c, 2, 31, 0
4, 19200, Note_on_c, 2, 40, 115
4, 19249, Note_on_c, 2, 40, 0
4, 19380, Note_on_c, 2, 40, 115
4, 19429, Note_on_c, 2, 40, 0
4, 19500, Note_on_c, 2, 35, 115
4, 19549, Note_on_c, 2, 35, 0
4, 19560, Note_on_c, 2, 40, 115
4, 19609, Note_on_c, 2, 40, 0
4, 19740, Note_on_c, 2, 40, 115
4, 19789, Note_on_c, 2, 40, 0
4, 19920, Note_on_c, 2, 40, 115
4, 20028, Note_on_c, 2, 40, 0
4, 20040, Note_on_c, 2, 35, 115
4, 20148, Note_on_c, 2, 35, 0
4, 20160, Note_on_c, 2, 33, 115
4, 20209, Note_on_c, 2, 33, 0
4, 20340, Note_on_c, 2, 33, 115
4, 20389, Note_on_c, 2, 33, 0
4, 20460, Note_on_c, 2, 40, 115
4, 20509, Note_on_c, 2, 40, 0
4, 20520, Note_on_c, 2, 33, 115
4, 20569, Note_on_c, 2, 33, 0
4, 20700, Note_on_c, 2, 33, 115
4, 20749, Note_on_c, 2, 33, 0
4, 20880, Note_on_c, 2, 33, 115
4, 20929, Note_on_c, 2, 33, 0
4, 21000, Note_on_c, 2, 40, 115
4, 21108, Note_on_c, 2, 40, 0
4, 21120, Note_on_c, 2, 31, 115
4, 21169, Note_on_c, 2, 31, 0
4, 21300, Note_on_c, 2, 31, 115
4, 21349, Note_on_c, 2, 31, 0
4, 21420, Note_on_c, 2, 38, 115
4, 21469, Note_on_c, 2, 38, 0
4, 21480, Note_on_c, 2, 31, 115
4, 21529, Note_on_c, 2, 31, 0
4, 21660, Note_on_c, 2, 31, 115
4, 21709, Note_on_c, 2, 31, 0
4, 21840, Note_on_c, 2, 31, 115
4, 21948, Note_on_c, 2, 31, 0
4, 21960, Note_on_c, 2, 38, 115
4, 22068, Note_on_c, 2, 38, 0
4, 22080, Note_on_c, 2, 36, 115
4, 22129, Note_on_c, 2, 36, 0
4, 22260, Note_on_c, 2, 36, 115
4, 22309, Note_on_c, 2, 36, 0
4, 22380, Note_on_c, 2, 31, 115
4, 22429, Note_on_c, 2, 31, 0
4, 22440, Note_on_c, 2, 36, 115
4, 22489, Note_on_c, 2, 36, 0
4, 22620, Note_on_c, 2, 36, 115
4, 22669, Note_on_c, 2, 36, 0
4, 22800, Note_on_c, 2, 36, 115
4, 22849, Note_on_c, 2, 36, 0
4, 22920, Note_on_c, 2, 31, 115
4, 22969, Note_on_c, 2, 31, 0
4, 23040, Note_on_c, 2, 40, 115
4, 23089, Note_on_c, 2, 40, 0
4, 23220, Note_on_c, 2, 40, 115
4, 23269, Note_on_c, 2, 40, 0
4, 23340, Note_on_c, 2, 35, 115
4, 23389, Note_on_c, 2, 35, 0
4, 23400, Note_on_c, 2, 40, 115
4, 23449, Note_on_c, 2, 40, 0
4, 23580, Note_on_c, 2, 40, 115
4, 23629, Note_on_c, 2, 40, 0
4, 23760, Note_on_c, 2, 40, 115
4, 23868, Note_on_c, 2, 40, 0
4, 23880, Note_on_c, 2, 35, 115
4, 23988, Note_on_c, 2, 35, 0
4, 24000, Note_on_c, 2, 41, 115
4, 24049, Note_on_c, 2, 41, 0
4, 24180, Note_on_c, 2, 41, 115
4, 24229, Note_on_c, 2, 41, 0
4, 24300, Note_on_c, 2, 36, 115
4, 24349, Note_on_c, 2, 36, 0
4, 24360, Note_on_c, 2, 41, 115
4, 24409, Note_on_c, 2, 41, 0
4, 24540, Note_on_c, 2, 41, 115
4, 24589, Note_on_c, 2, 41, 0
4, 24720, Note_on_c, 2, 41, 115
4, 24769, Note_on_c, 2, 41, 0
4, 24840, Note_on_c, 2, 36, 115
4, 24948, Note_on_c, 2, 36, 0
4, 24960, Note_on_c, 2, 29, 115
4, 24960, Note_on_c, 2, 41, 115
4, 24987, Note_on_c, 2, 41, 0
4, 24987, Note_on_c, 2, 29, 0
4, 25020, Note_on_c, 2, 31, 115
4, 25020, Note_on_c, 2, 43, 115
4, 25047, Note_on_c, 2, 43, 0
4, 25047, Note_on_c, 2, 31, 0
4, 25080, Note_on_c, 2, 32, 115
4, 25080, Note_on_c, 2, 44, 115
4, 25107, Note_on_c, 2, 44, 0
4, 25107, Note_on_c, 2, 32, 0
4, 25140, Note_on_c, 2, 31, 115
4, 25140, Note_on_c, 2, 43, 115
4, 25167, Note_on_c, 2, 43, 0
4, 25167, Note_on_c, 2, 31, 0
4, 25200, Note_on_c, 2, 32, 115
4, 25200, Note_on_c, 2, 44, 115
4, 25227, Note_on_c, 2, 44, 0
4, 25227, Note_on_c, 2, 32, 0
4, 25260, Note_on_c, 2, 34, 115
4, 25260, Note_on_c, 2, 46, 115
4, 25368, Note_on_c, 2, 46, 0
4, 25368, Note_on_c, 2, 34, 0
4, 25380, Note_on_c, 2, 32, 115
4, 25380, Note_on_c, 2, 44, 115
4, 25488, Note_on_c, 2, 44, 0
4, 25488, Note_on_c, 2, 32, 0
4, 25500, Note_on_c, 2, 34, 115
4, 25500, Note_on_c, 2, 46, 115
4, 25554, Note_on_c, 2, 46, 0
4, 25554, Note_on_c, 2, 34, 0
4, 25560, Note_on_c, 2, 36, 115
4, 25560, Note_on_c, 2, 48, 115
4, 25614, Note_on_c, 2, 48, 0
4, 25614, Note_on_c, 2, 36, 0
4, 25620, Note_on_c, 2, 38, 115
4, 25620, Note_on_c, 2, 50, 115
4, 25674, Note_on_c, 2, 50, 0
4, 25674, Note_on_c, 2, 38, 0
4, 25680, Note_on_c, 2, 41, 115
4, 25680, Note_on_c, 2, 53, 115
4, 25734, Note_on_c, 2, 53, 0
4, 25734, Note_on_c, 2, 41, 0
4, 25740, Note_on_c, 2, 40, 115
4, 25740, Note_on_c, 2, 52, 115
4, 25794, Note_on_c, 2, 52, 0
4, 25794, Note_on_c, 2, 40, 0
4, 25800, Note_on_c, 2, 38, 115
4, 25800, Note_on_c, 2, 50, 115
4, 25854, Note_on_c, 2, 50, 0
4, 25854, Note_on_c, 2, 38, 0
4, 25860, Note_on_c, 2, 41, 115
4, 25860, Note_on_c, 2, 53, 115
4, 25914, Note_on_c, 2, 53, 0
4, 25914, Note_on_c, 2, 41, 0
4, 25920, Note_on_c, 2, 37, 115
4, 25974, Note_on_c, 2, 37, 0
4, 26100, Note_on_c, 2, 37, 115
4, 26154, Note_on_c, 2, 37, 0
4, 26400, Note_on_c, 2, 37, 115
4, 26454, Note_on_c, 2, 37, 0
4, 26580, Note_on_c, 2, 37, 115
4, 26634, Note_on_c, 2, 37, 0
4, 26760, Note_on_c, 2, 34, 115
4, 26809, Note_on_c, 2, 34, 0
4, 26820, Note_on_c, 2, 35, 115
4, 26847, Note_on_c, 2, 35, 0
4, 26850, Note_on_c, 2, 36, 115
4, 26877, Note_on_c, 2, 36, 0
4, 26880, Note_on_c, 2, 37, 115
4, 26934, Note_on_c, 2, 37, 0
4, 27060, Note_on_c, 2, 37, 115
4, 27114, Note_on_c, 2, 37, 0
4, 27360, Note_on_c, 2, 37, 115
4, 27414, Note_on_c, 2, 37, 0
4, 27540, Note_on_c, 2, 37, 115
4, 27594, Note_on_c, 2, 37, 0
4, 27720, Note_on_c, 2, 37, 115
4, 27769, Note_on_c, 2, 37, 0
4, 27780, Note_on_c, 2, 36, 115
4, 27807, Note_on_c, 2, 36, 0
4, 27810, Note_on_c, 2, 35, 115
4, 27837, Note_on_c, 2, 35, 0
4, 27840, Note_on_c, 2, 34, 115
4, 27889, Note_on_c, 2, 34, 0
4, 28020, Note_on_c, 2, 34, 115
4, 28069, Note_on_c, 2, 34, 0
4, 28320, Note_on_c, 2, 34, 115
4, 28369, Note_on_c, 2, 34, 0
4, 28500, Note_on_c, 2, 34, 115
4, 28549, Note_on_c, 2, 34, 0
4, 28680, Note_on_c, 2, 34, 115
4, 28729, Note_on_c, 2, 34, 0
4, 28740, Note_on_c, 2, 36, 115
4, 28767, Note_on_c, 2, 36, 0
4, 28770, Note_on_c, 2, 37, 115
4, 28797, Note_on_c, 2, 37, 0
4, 28800, Note_on_c, 2, 39, 115
4, 29040, Note_on_c, 2, 39, 0
4, 29040, Note_on_c, 2, 34, 115
4, 29280, Note_on_c, 2, 34, 0
4, 29280, Note_on_c, 2, 38, 115
4, 29520, Note_on_c, 2, 38, 0
4, 29520, Note_on_c, 2, 31, 115
4, 29760, Note_on_c, 2, 31, 0
4, 29760, Note_on_c, 2, 36, 115
4, 29809, Note_on_c, 2, 36, 0
4, 29940, Note_on_c, 2, 36, 115
4, 29989, Note_on_c, 2, 36, 0
4, 30060, Note_on_c, 2, 31, 115
4, 30109, Note_on_c, 2, 31, 0
4, 30120, Note_on_c, 2, 36, 115
4, 30169, Note_on_c, 2, 36, 0
4, 30300, Note_on_c, 2, 36, 115
4, 30349, Note_on_c, 2, 36, 0
4, 30480, Note_on_c, 2, 36, 115
4, 30529, Note_on_c, 2, 36, 0
4, 30600, Note_on_c, 2, 31, 115
4, 30697, Note_on_c, 2, 31, 0
4, 30720, Note_on_c, 2, 36, 115
4, 30769, Note_on_c, 2, 36, 0
4, 30900, Note_on_c, 2, 36, 115
4, 30949, Note_on_c, 2, 36, 0
4, 31020, Note_on_c, 2, 31, 115
4, 31069, Note_on_c, 2, 31, 0
4, 31080, Note_on_c, 2, 36, 115
4, 31129, Note_on_c, 2, 36, 0
4, 31260, Note_on_c, 2, 36, 115
4, 31309, Note_on_c, 2, 36, 0
4, 31440, Note_on_c, 2, 36, 115
4, 31537, Note_on_c, 2, 36, 0
4, 31560, Note_on_c, 2, 35, 115
4, 31657, Note_on_c, 2, 35, 0
4, 31680, Note_on_c, 2, 33, 115
4, 31729, Note_on_c, 2, 33, 0
4, 31860, Note_on_c, 2, 33, 115
4, 31909, Note_on_c, 2, 33, 0
4, 31980, Note_on_c, 2, 28, 115
4, 32029, Note_on_c, 2, 28, 0
4, 32040, Note_on_c, 2, 33, 115
4, 32089, Note_on_c, 2, 33, 0
4, 32220, Note_on_c, 2, 33, 115
4, 32269, Note_on_c, 2, 33, 0
4, 32400, Note_on_c, 2, 33, 115
4, 32449, Note_on_c, 2, 33, 0
4, 32520, Note_on_c, 2, 28, 115
4, 32617, Note_on_c, 2, 28, 0
4, 32640, Note_on_c, 2, 31, 115
4, 32689, Note_on_c, 2, 31, 0
4, 32820, Note_on_c, 2, 31, 115
4, 32869, Note_on_c, 2, 31, 0
4, 32940, Note_on_c, 2, 38, 115
4, 32989, Note_on_c, 2, 38, 0
4, 33000, Note_on_c, 2, 31, 115
4, 33049, Note_on_c, 2, 31, 0
4, 33180, Note_on_c, 2, 31, 115
4, 33229, Note_on_c, 2, 31, 0
4, 33360, Note_on_c, 2, 31, 115
4, 33457, Note_on_c, 2, 31, 0
4, 33480, Note_on_c, 2, 29, 115
4, 33577, Note_on_c, 2, 29, 0
4, 33600, Note_on_c, 2, 40, 115
4, 33649, Note_on_c, 2, 40, 0
4, 33780, Note_on_c, 2, 40, 115
4, 33829, Note_on_c, 2, 40, 0
4, 33900, Note_on_c, 2, 35, 115
4, 33949, Note_on_c, 2, 35, 0
4, 33960, Note_on_c, 2, 40, 115
4, 34009, Note_on_c, 2, 40, 0
4, 34140, Note_on_c, 2, 40, 115
4, 34189, Note_on_c, 2, 40, 0
4, 34320, Note_on_c, 2, 40, 115
4, 34369, Note_on_c, 2, 40, 0
4, 34440, Note_on_c, 2, 33, 115
4, 34537, Note_on_c, 2, 33, 0
4, 34560, Note_on_c, 2, 38, 115
4, 34609, Note_on_c, 2, 38, 0
4, 34740, Note_on_c, 2, 38, 115
4, 34789, Note_on_c, 2, 38, 0
4, 34860, Note_on_c, 2, 33, 115
4, 34909, Note_on_c, 2, 33, 0
4, 34920, Note_on_c, 2, 38, 115
4, 34969, Note_on_c, 2, 38, 0
4, 35100, Note_on_c, 2, 38, 115
4, 35149, Note_on_c, 2, 38, 0
4, 35280, Note_on_c, 2, 38, 115
4, 35329, Note_on_c, 2, 38, 0
4, 35400, Note_on_c, 2, 33, 115
4, 35497, Note_on_c, 2, 33, 0
4, 35520, Note_on_c, 2, 38, 115
4, 35569, Note_on_c, 2, 38, 0
4, 35700, Note_on_c, 2, 38, 115
4, 35749, Note_on_c, 2, 38, 0
4, 35820, Note_on_c, 2, 33, 115
4, 35869, Note_on_c, 2, 33, 0
4, 35880, Note_on_c, 2, 38, 115
4, 35929, Note_on_c, 2, 38, 0
4, 36060, Note_on_c, 2, 38, 115
4, 36109, Note_on_c, 2, 38, 0
4, 36240, Note_on_c, 2, 38, 115
4, 36289, Note_on_c, 2, 38, 0
4, 36360, Note_on_c, 2, 33, 115
4, 36457, Note_on_c, 2, 33, 0
4, 36480, Note_on_c, 2, 38, 115
4, 36529, Note_on_c, 2, 38, 0
4, 36660, Note_on_c, 2, 38, 115
4, 36709, Note_on_c, 2, 38, 0
4, 36780, Note_on_c, 2, 32, 115
4, 36829, Note_on_c, 2, 32, 0
4, 36840, Note_on_c, 2, 38, 115
4, 36889, Note_on_c, 2, 38, 0
4, 37020, Note_on_c, 2, 38, 115
4, 37069, Note_on_c, 2, 38, 0
4, 37200, Note_on_c, 2, 38, 115
4, 37249, Note_on_c, 2, 38, 0
4, 37320, Note_on_c, 2, 31, 115
4, 37417, Note_on_c, 2, 31, 0
4, 37440, Note_on_c, 2, 36, 115
4, 37489, Note_on_c, 2, 36, 0
4, 37620, Note_on_c, 2, 36, 115
4, 37669, Note_on_c, 2, 36, 0
4, 37740, Note_on_c, 2, 31, 115
4, 37789, Note_on_c, 2, 31, 0
4, 37800, Note_on_c, 2, 36, 115
4, 37849, Note_on_c, 2, 36, 0
4, 37980, Note_on_c, 2, 36, 115
4, 38029, Note_on_c, 2, 36, 0
4, 38160, Note_on_c, 2, 36, 115
4, 38209, Note_on_c, 2, 36, 0
4, 38280, Note_on_c, 2, 31, 115
4, 38377, Note_on_c, 2, 31, 0
4, 38400, Note_on_c, 2, 36, 115
4, 38449, Note_on_c, 2, 36, 0
4, 38580, Note_on_c, 2, 36, 115
4, 38629, Note_on_c, 2, 36, 0
4, 38700, Note_on_c, 2, 31, 115
4, 38749, Note_on_c, 2, 31, 0
4, 38760, Note_on_c, 2, 36, 115
4, 38809, Note_on_c, 2, 36, 0
4, 38940, Note_on_c, 2, 36, 115
4, 38989, Note_on_c, 2, 36, 0
4, 39120, Note_on_c, 2, 36, 115
4, 39217, Note_on_c, 2, 36, 0
4, 39240, Note_on_c, 2, 35, 115
4, 39337, Note_on_c, 2, 35, 0
4, 39360, Note_on_c, 2, 33, 115
4, 39409, Note_on_c, 2, 33, 0
4, 39540, Note_on_c, 2, 33, 115
4, 39589, Note_on_c, 2, 33, 0
4, 39660, Note_on_c, 2, 28, 115
4, 39709, Note_on_c, 2, 28, 0
4, 39720, Note_on_c, 2, 33, 115
4, 39769, Note_on_c, 2, 33, 0
4, 39900, Note_on_c, 2, 33, 115
4, 39949, Note_on_c, 2, 33, 0
4, 40080, Note_on_c, 2, 33, 115
4, 40129, Note_on_c, 2, 33, 0
4, 40200, Note_on_c, 2, 28, 115
4, 40297, Note_on_c, 2, 28, 0
4, 40320, Note_on_c, 2, 31, 115
4, 40369, Note_on_c, 2, 31, 0
4, 40500, Note_on_c, 2, 31, 115
4, 40549, Note_on_c, 2, 31, 0
4, 40620, Note_on_c, 2, 38, 115
4, 40669, Note_on_c, 2, 38, 0
4, 40680, Note_on_c, 2, 31, 115
4, 40729, Note_on_c, 2, 31, 0
4, 40860, Note_on_c, 2, 31, 115
4, 40909, Note_on_c, 2, 31, 0
4, 41040, Note_on_c, 2, 31, 115
4, 41137, Note_on_c, 2, 31, 0
4, 41160, Note_on_c, 2, 29, 115
4, 41257, Note_on_c, 2, 29, 0
4, 41280, Note_on_c, 2, 40, 115
4, 41329, Note_on_c, 2, 40, 0
4, 41460, Note_on_c, 2, 40, 115
4, 41509, Note_on_c, 2, 40, 0
4, 41580, Note_on_c, 2, 35, 115
4, 41629, Note_on_c, 2, 35, 0
4, 41640, Note_on_c, 2, 40, 115
4, 41689, Note_on_c, 2, 40, 0
4, 41820, Note_on_c, 2, 40, 115
4, 41869, Note_on_c, 2, 40, 0
4, 42000, Note_on_c, 2, 40, 115
4, 42049, Note_on_c, 2, 40, 0
4, 42120, Note_on_c, 2, 33, 115
4, 42217, Note_on_c, 2, 33, 0
4, 42240, Note_on_c, 2, 38, 115
4, 42289, Note_on_c, 2, 38, 0
4, 42420, Note_on_c, 2, 38, 115
4, 42469, Note_on_c, 2, 38, 0
4, 42540, Note_on_c, 2, 33, 115
4, 42589, Note_on_c, 2, 33, 0
4, 42600, Note_on_c, 2, 38, 115
4, 42649, Note_on_c, 2, 38, 0
4, 42780, Note_on_c, 2, 38, 115
4, 42829, Note_on_c, 2, 38, 0
4, 42960, Note_on_c, 2, 38, 115
4, 43009, Note_on_c, 2, 38, 0
4, 43080, Note_on_c, 2, 33, 115
4, 43177, Note_on_c, 2, 33, 0
4, 43200, Note_on_c, 2, 38, 115
4, 43249, Note_on_c, 2, 38, 0
4, 43380, Note_on_c, 2, 38, 115
4, 43429, Note_on_c, 2, 38, 0
4, 43500, Note_on_c, 2, 33, 115
4, 43549, Note_on_c, 2, 33, 0
4, 43560, Note_on_c, 2, 38, 115
4, 43609, Note_on_c, 2, 38, 0
4, 43740, Note_on_c, 2, 38, 115
4, 43789, Note_on_c, 2, 38, 0
4, 43920, Note_on_c, 2, 38, 115
4, 43969, Note_on_c, 2, 38, 0
4, 44040, Note_on_c, 2, 33, 115
4, 44137, Note_on_c, 2, 33, 0
4, 44160, Note_on_c, 2, 31, 115
4, 44322, Note_on_c, 2, 31, 0
4, 44340, Note_on_c, 2, 33, 115
4, 44502, Note_on_c, 2, 33, 0
4, 44520, Note_on_c, 2, 35, 115
4, 44682, Note_on_c, 2, 35, 0
4, 44700, Note_on_c, 2, 36, 115
4, 44862, Note_on_c, 2, 36, 0
4, 44880, Note_on_c, 2, 38, 115
4, 44988, Note_on_c, 2, 38, 0
4, 45000, Note_on_c, 2, 37, 115
4, 45108, Note_on_c, 2, 37, 0
4, 45120, Note_on_c, 2, 36, 115
4, 45169, Note_on_c, 2, 36, 0
4, 45300, Note_on_c, 2, 36, 115
4, 45349, Note_on_c, 2, 36, 0
4, 45420, Note_on_c, 2, 31, 115
4, 45469, Note_on_c, 2, 31, 0
4, 45480, Note_on_c, 2, 36, 115
4, 45529, Note_on_c, 2, 36, 0
4, 45660, Note_on_c, 2, 36, 115
4, 45709, Note_on_c, 2, 36, 0
4, 45840, Note_on_c, 2, 36, 115
4, 45889, Note_on_c, 2, 36, 0
4, 45960, Note_on_c, 2, 31, 115
4, 46009, Note_on_c, 2, 31, 0
4, 46080, Note_on_c, 2, 40, 115
4, 46129, Note_on_c, 2, 40, 0
4, 46260, Note_on_c, 2, 40, 115
4, 46309, Note_on_c, 2, 40, 0
4, 46380, Note_on_c, 2, 35, 115
4, 46429, Note_on_c, 2, 35, 0
4, 46440, Note_on_c, 2, 40, 115
4, 46489, Note_on_c, 2, 40, 0
4, 46620, Note_on_c, 2, 40, 115
4, 46669, Note_on_c, 2, 40, 0
4, 46800, Note_on_c, 2, 40, 115
4, 46908, Note_on_c, 2, 40, 0
4, 46920, Note_on_c, 2, 35, 115
4, 47028, Note_on_c, 2, 35, 0
4, 47040, Note_on_c, 2, 33, 115
4, 47089, Note_on_c, 2, 33, 0
4, 47220, Note_on_c, 2, 33, 115
4, 47269, Note_on_c, 2, 33, 0
4, 47340, Note_on_c, 2, 40, 115
4, 47389, Note_on_c, 2, 40, 0
4, 47400, Note_on_c, 2, 33, 115
4, 47449, Note_on_c, 2, 33, 0
4, 47580, Note_on_c, 2, 33, 115
4, 47629, Note_on_c, 2, 33, 0
4, 47760, Note_on_c, 2, 33, 115
4, 47809, Note_on_c, 2, 33, 0
4, 47880, Note_on_c, 2, 40, 115
4, 47988, Note_on_c, 2, 40, 0
4, 48000, Note_on_c, 2, 31, 115
4, 48049, Note_on_c, 2, 31, 0
4, 48180, Note_on_c, 2, 31, 115
4, 48229, Note_on_c, 2, 31, 0
4, 48300, Note_on_c, 2, 38, 115
4, 48349, Note_on_c, 2, 38, 0
4, 48360, Note_on_c, 2, 31, 115
4, 48409, Note_on_c, 2, 31, 0
4, 48540, Note_on_c, 2, 31, 115
4, 48589, Note_on_c, 2, 31, 0
4, 48720, Note_on_c, 2, 31, 115
4, 48828, Note_on_c, 2, 31, 0
4, 48840, Note_on_c, 2, 38, 115
4, 48948, Note_on_c, 2, 38, 0
4, 48960, Note_on_c, 2, 36, 115
4, 49009, Note_on_c, 2, 36, 0
4, 49140, Note_on_c, 2, 36, 115
4, 49189, Note_on_c, 2, 36, 0
4, 49260, Note_on_c, 2, 31, 115
4, 49309, Note_on_c, 2, 31, 0
4, 49320, Note_on_c, 2, 36, 115
4, 49369, Note_on_c, 2, 36, 0
4, 49500, Note_on_c, 2, 36, 115
4, 49549, Note_on_c, 2, 36, 0
4, 49680, Note_on_c, 2, 36, 115
4, 49729, Note_on_c, 2, 36, 0
4, 49800, Note_on_c, 2, 31, 115
4, 49849, Note_on_c, 2, 31, 0
4, 49920, Note_on_c, 2, 40, 115
4, 49969, Note_on_c, 2, 40, 0
4, 50100, Note_on_c, 2, 40, 115
4, 50149, Note_on_c, 2, 40, 0
4, 50220, Note_on_c, 2, 35, 115
4, 50269, Note_on_c, 2, 35, 0
4, 50280, Note_on_c, 2, 40, 115
4, 50329, Note_on_c, 2, 40, 0
4, 50460, Note_on_c, 2, 40, 115
4, 50509, Note_on_c, 2, 40, 0
4, 50640, Note_on_c, 2, 40, 115
4, 50748, Note_on_c, 2, 40, 0
4, 50760, Note_on_c, 2, 35, 115
4, 50868, Note_on_c, 2, 35, 0
4, 50880, Note_on_c, 2, 41, 115
4, 50929, Note_on_c, 2, 41, 0
4, 51060, Note_on_c, 2, 41, 115
4, 51109, Note_on_c, 2, 41, 0
4, 51180, Note_on_c, 2, 36, 115
4, 51229, Note_on_c, 2, 36, 0
4, 51240, Note_on_c, 2, 41, 115
4, 51289, Note_on_c, 2, 41, 0
4, 51420, Note_on_c, 2, 41, 115
4, 51469, Note_on_c, 2, 41, 0
4, 51600, Note_on_c, 2, 41, 115
4, 51649, Note_on_c, 2, 41, 0
4, 51720, Note_on_c, 2, 36, 115
4, 51828, Note_on_c, 2, 36, 0
4, 51840, Note_on_c, 2, 29, 115
4, 51840, Note_on_c, 2, 41, 115
4, 51867, Note_on_c, 2, 41, 0
4, 51867, Note_on_c, 2, 29, 0
4, 51900, Note_on_c, 2, 31, 115
4, 51900, Note_on_c, 2, 43, 115
4, 51927, Note_on_c, 2, 43, 0
4, 51927, Note_on_c, 2, 31, 0
4, 51960, Note_on_c, 2, 32, 115
4, 51960, Note_on_c, 2, 44, 115
4, 51987, Note_on_c, 2, 44, 0
4, 51987, Note_on_c, 2, 32, 0
4, 52020, Note_on_c, 2, 31, 115
4, 52020, Note_on_c, 2, 43, 115
4, 52047, Note_on_c, 2, 43, 0
4, 52047, Note_on_c, 2, 31, 0
4, 52080, Note_on_c, 2, 32, 115
4, 52080, Note_on_c, 2, 44, 115
4, 52107, Note_on_c, 2, 44, 0
4, 52107, Note_on_c, 2, 32, 0
4, 52140, Note_on_c, 2, 34, 115
4, 52140, Note_on_c, 2, 46, 115
4, 52248, Note_on_c, 2, 46, 0
4, 52248, Note_on_c, 2, 34, 0
4, 52260, Note_on_c, 2, 32, 115
4, 52260, Note_on_c, 2, 44, 115
4, 52368, Note_on_c, 2, 44, 0
4, 52368, Note_on_c, 2, 32, 0
4, 52380, Note_on_c, 2, 34, 115
4, 52380, Note_on_c, 2, 46, 115
4, 52434, Note_on_c, 2, 46, 0
4, 52434, Note_on_c, 2, 34, 0
4, 52440, Note_on_c, 2, 36, 115
4, 52440, Note_on_c, 2, 48, 115
4, 52494, Note_on_c, 2, 48, 0
4, 52494, Note_on_c, 2, 36, 0
4, 52500, Note_on_c, 2, 38, 115
4, 52500, Note_on_c, 2, 50, 115
4, 52554, Note_on_c, 2, 50, 0
4, 52554, Note_on_c, 2, 38, 0
4, 52560, Note_on_c, 2, 41, 115
4, 52560, Note_on_c, 2, 53, 115
4, 52614, Note_on_c, 2, 53, 0
4, 52614, Note_on_c, 2, 41, 0
4, 52620, Note_on_c, 2, 40, 115
4, 52620, Note_on_c, 2, 52, 115
4, 52674, Note_on_c, 2, 52, 0
4, 52674, Note_on_c, 2, 40, 0
4, 52680, Note_on_c, 2, 38, 115
4, 52680, Note_on_c, 2, 50, 115
4, 52734, Note_on_c, 2, 50, 0
4, 52734, Note_on_c, 2, 38, 0
4, 52740, Note_on_c, 2, 41, 115
4, 52740, Note_on_c, 2, 53, 115
4, 52794, Note_on_c, 2, 53, 0
4, 52794, Note_on_c, 2, 41, 0
4, 52800, Note_on_c, 2, 37, 115
4, 52854, Note_on_c, 2, 37, 0
4, 52980, Note_on_c, 2, 37, 115
4, 53034, Note_on_c, 2, 37, 0
4, 53280, Note_on_c, 2, 37, 115
4, 53334, Note_on_c, 2, 37, 0
4, 53460, Note_on_c, 2, 37, 115
4, 53514, Note_on_c, 2, 37, 0
4, 53640, Note_on_c, 2, 34, 115
4, 53689, Note_on_c, 2, 34, 0
4, 53700, Note_on_c, 2, 35, 115
4, 53727, Note_on_c, 2, 35, 0
4, 53730, Note_on_c, 2, 36, 115
4, 53757, Note_on_c, 2, 36, 0
4, 53760, Note_on_c, 2, 37, 115
4, 53814, Note_on_c, 2, 37, 0
4, 53940, Note_on_c, 2, 37, 115
4, 53994, Note_on_c, 2, 37, 0
4, 54240, Note_on_c, 2, 37, 115
4, 54294, Note_on_c, 2, 37, 0
4, 54420, Note_on_c, 2, 37, 115
4, 54474, Note_on_c, 2, 37, 0
4, 54600, Note_on_c, 2, 37, 115
4, 54649, Note_on_c, 2, 37, 0
4, 54660, Note_on_c, 2, 36, 115
4, 54687, Note_on_c, 2, 36, 0
4, 54690, Note_on_c, 2, 35, 115
4, 54717, Note_on_c, 2, 35, 0
4, 54720, Note_on_c, 2, 34, 115
4, 54769, Note_on_c, 2, 34, 0
4, 54900, Note_on_c, 2, 34, 115
4, 54949, Note_on_c, 2, 34, 0
4, 55200, Note_on_c, 2, 34, 115
4, 55249, Note_on_c, 2, 34, 0
4, 55380, Note_on_c, 2, 34, 115
4, 55429, Note_on_c, 2, 34, 0
4, 55560, Note_on_c, 2, 34, 115
4, 55609, Note_on_c, 2, 34, 0
4, 55620, Note_on_c, 2, 36, 115
4, 55647, Note_on_c, 2, 36, 0
4, 55650, Note_on_c, 2, 37, 115
4, 55677, Note_on_c, 2, 37, 0
4, 55680, Note_on_c, 2, 39, 115
4, 55920, Note_on_c, 2, 39, 0
4, 55920, Note_on_c, 2, 34, 115
4, 56160, Note_on_c, 2, 34, 0
4, 56160, Note_on_c, 2, 38, 115
4, 56400, Note_on_c, 2, 38, 0
4, 56400, Note_on_c, 2, 31, 115
4, 56640, Note_on_c, 2, 31, 0
4, 56640, Control_c, 2, 11, 127
4, 56640, Note_on_c, 2, 36, 115
4, 56670, Control_c, 2, 11, 126
4, 56689, Note_on_c, 2, 36, 0
4, 56690, Control_c, 2, 11, 125
4, 56710, Control_c, 2, 11, 124
4, 56740, Control_c, 2, 11, 123
4, 56760, Control_c, 2, 11, 122
4, 56780, Control_c, 2, 11, 121
4, 56800, Control_c, 2, 11, 120
4, 56820, Note_on_c, 2, 36, 115
4, 56830, Control_c, 2, 11, 119
4, 56850, Control_c, 2, 11, 118
4, 56869, Note_on_c, 2, 36, 0
4, 56870, Control_c, 2, 11, 117
4, 56890, Control_c, 2, 11, 116
4, 56920, Control_c, 2, 11, 115
4, 56940, Control_c, 2, 11, 114
4, 56940, Note_on_c, 2, 31, 115
4, 56960, Control_c, 2, 11, 113
4, 56980, Control_c, 2, 11, 112
4, 56989, Note_on_c, 2, 31, 0
4, 57000, Note_on_c, 2, 36, 115
4, 57010, Control_c, 2, 11, 111
4, 57030, Control_c, 2, 11, 110
4, 57049, Note_on_c, 2, 36, 0
4, 57050, Control_c, 2, 11, 109
4, 57070, Control_c, 2, 11, 108
4, 57100, Control_c, 2, 11, 107
4, 57120, Control_c, 2, 11, 106
4, 57140, Control_c, 2, 11, 105
4, 57160, Control_c, 2, 11, 104
4, 57180, Note_on_c, 2, 36, 115
4, 57190, Control_c, 2, 11, 103
4, 57210, Control_c, 2, 11, 102
4, 57229, Note_on_c, 2, 36, 0
4, 57230, Control_c, 2, 11, 101
4, 57250, Control_c, 2, 11, 100
4, 57280, Control_c, 2, 11, 99
4, 57300, Control_c, 2, 11, 98
4, 57320, Control_c, 2, 11, 97
4, 57340, Control_c, 2, 11, 96
4, 57360, Note_on_c, 2, 36, 115
4, 57370, Control_c, 2, 11, 95
4, 57390, Control_c, 2, 11, 94
4, 57409, Note_on_c, 2, 36, 0
4, 57410, Control_c, 2, 11, 93
4, 57430, Control_c, 2, 11, 92
4, 57460, Control_c, 2, 11, 91
4, 57480, Control_c, 2, 11, 90
4, 57480, Note_on_c, 2, 31, 115
4, 57500, Control_c, 2, 11, 89
4, 57520, Control_c, 2, 11, 88
4, 57550, Control_c, 2, 11, 87
4, 57570, Control_c, 2, 11, 86
4, 57577, Note_on_c, 2, 31, 0
4, 57590, Control_c, 2, 11, 85
4, 57600, Note_on_c, 2, 36, 115
4, 57610, Control_c, 2, 11, 84
4, 57640, Control_c, 2, 11, 83
4, 57649, Note_on_c, 2, 36, 0
4, 57660, Control_c, 2, 11, 82
4, 57680, Control_c, 2, 11, 81
4, 57700, Control_c, 2, 11, 80
4, 57730, Control_c, 2, 11, 79
4, 57750, Control_c, 2, 11, 78
4, 57770, Control_c, 2, 11, 77
4, 57780, Note_on_c, 2, 36, 115
4, 57790, Control_c, 2, 11, 76
4, 57820, Control_c, 2, 11, 75
4, 57829, Note_on_c, 2, 36, 0
4, 57840, Control_c, 2, 11, 74
4, 57860, Control_c, 2, 11, 73
4, 57880, Control_c, 2, 11, 72
4, 57900, Note_on_c, 2, 31, 115
4, 57910, Control_c, 2, 11, 71
4, 57930, Control_c, 2, 11, 70
4, 57949, Note_on_c, 2, 31, 0
4, 57950, Control_c, 2, 11, 69
4, 57960, Note_on_c, 2, 36, 115
4, 57970, Control_c, 2, 11, 68
4, 58000, Control_c, 2, 11, 67
4, 58009, Note_on_c, 2, 36, 0
4, 58020, Control_c, 2, 11, 66
4, 58040, Control_c, 2, 11, 65
4, 58060, Control_c, 2, 11, 64
4, 58090, Control_c, 2, 11, 63
4, 58110, Control_c, 2, 11, 62
4, 58130, Control_c, 2, 11, 61
4, 58140, Note_on_c, 2, 36, 115
4, 58150, Control_c, 2, 11, 60
4, 58180, Control_c, 2, 11, 59
4, 58189, Note_on_c, 2, 36, 0
4, 58200, Control_c, 2, 11, 58
4, 58220, Control_c, 2, 11, 57
4, 58240, Control_c, 2, 11, 56
4, 58270, Control_c, 2, 11, 55
4, 58290, Control_c, 2, 11, 54
4, 58310, Control_c, 2, 11, 53
4, 58320, Note_on_c, 2, 36, 115
4, 58330, Control_c, 2, 11, 52
4, 58360, Control_c, 2, 11, 51
4, 58380, Control_c, 2, 11, 50
4, 58400, Control_c, 2, 11, 49
4, 58417, Note_on_c, 2, 36, 0
4, 58420, Control_c, 2, 11, 48
4, 58440, Note_on_c, 2, 35, 115
4, 58450, Control_c, 2, 11, 47
4, 58470, Control_c, 2, 11, 46
4, 58490, Control_c, 2, 11, 45
4, 58510, Control_c, 2, 11, 44
4, 58537, Note_on_c, 2, 35, 0
4, 58540, Control_c, 2, 11, 43
4, 58560, Control_c, 2, 11, 42
4, 58560, Note_on_c, 2, 33, 115
4, 58580, Control_c, 2, 11, 41
4, 58600, Control_c, 2, 11, 40
4, 58609, Note_on_c, 2, 33, 0
4, 58630, Control_c, 2, 11, 39
4, 58650, Control_c, 2, 11, 38
4, 58670, Control_c, 2, 11, 37
4, 58690, Control_c, 2, 11, 36
4, 58720, Control_c, 2, 11, 35
4, 58740, Control_c, 2, 11, 34
4, 58740, Note_on_c, 2, 33, 115
4, 58760, Control_c, 2, 11, 33
4, 58780, Control_c, 2, 11, 32
4, 58789, Note_on_c, 2, 33, 0
4, 58810, Control_c, 2, 11, 31
4, 58830, Control_c, 2, 11, 30
4, 58850, Control_c, 2, 11, 29
4, 58860, Note_on_c, 2, 28, 115
4, 58870, Control_c, 2, 11, 28
4, 58900, Control_c, 2, 11, 27
4, 58909, Note_on_c, 2, 28, 0
4, 58920, Control_c, 2, 11, 26
4, 58920, Note_on_c, 2, 33, 115
4, 58940, Control_c, 2, 11, 25
4, 58960, Control_c, 2, 11, 24
4, 58969, Note_on_c, 2, 33, 0
4, 58990, Control_c, 2, 11, 23
4, 59010, Control_c, 2, 11, 22
4, 59030, Control_c, 2, 11, 21
4, 59050, Control_c, 2, 11, 20
4, 59080, Control_c, 2, 11, 19
4, 59100, Control_c, 2, 11, 18
4, 59100, Note_on_c, 2, 33, 115
4, 59120, Control_c, 2, 11, 17
4, 59140, Control_c, 2, 11, 16
4, 59149, Note_on_c, 2, 33, 0
4, 59170, Control_c, 2, 11, 15
4, 59190, Control_c, 2, 11, 14
4, 59210, Control_c, 2, 11, 13
4, 59230, Control_c, 2, 11, 12
4, 59260, Control_c, 2, 11, 11
4, 59280, Control_c, 2, 11, 10
4, 59280, Note_on_c, 2, 33, 115
4, 59300, Control_c, 2, 11, 9
4, 59320, Control_c, 2, 11, 8
4, 59329, Note_on_c, 2, 33, 0
4, 59350, Control_c, 2, 11, 7
4, 59370, Control_c, 2, 11, 6
4, 59390, Control_c, 2, 11, 5
4, 59400, Note_on_c, 2, 28, 115
4, 59410, Control_c, 2, 11, 4
4, 59440, Control_c, 2, 11, 3
4, 59460, Control_c, 2, 11, 2
4, 59480, Control_c, 2, 11, 1
4, 59497, Note_on_c, 2, 28, 0
4, 59500, Control_c, 2, 11, 0
4, 59500, End_track
5, 0, Start_track
5, 0, Title_t, "A4-French Horns"
5, 113, Control_c, 3, 91, 50
5, 114, Control_c, 3, 93, 25
5, 135, Control_c, 3, 0, 0
5, 136, Control_c, 3, 32, 3
5, 137, Program_c, 3, 60
5, 138, Control_c, 3, 7, 127
5, 138, Control_c, 3, 10, 64
5, 2760, Note_on_c, 3, 55, 100
5, 2880, Note_on_c, 3, 55, 0
5, 2880, Note_on_c, 3, 60, 100
5, 2904, Note_on_c, 3, 60, 0
5, 2920, Note_on_c, 3, 62, 100
5, 2944, Note_on_c, 3, 62, 0
5, 2960, Note_on_c, 3, 64, 100
5, 2984, Note_on_c, 3, 64, 0
5, 3000, Note_on_c, 3, 67, 100
5, 3600, Note_on_c, 3, 67, 0
5, 3720, Note_on_c, 3, 65, 100
5, 3760, Note_on_c, 3, 65, 0
5, 3760, Note_on_c, 3, 62, 100
5, 3800, Note_on_c, 3, 62, 0
5, 3800, Note_on_c, 3, 59, 100
5, 3840, Note_on_c, 3, 59, 0
5, 3840, Note_on_c, 3, 60, 100
5, 4070, Note_on_c, 3, 60, 0
5, 4080, Note_on_c, 3, 55, 100
5, 4560, Note_on_c, 3, 55, 0
5, 4680, Note_on_c, 3, 55, 100
5, 4800, Note_on_c, 3, 55, 0
5, 4800, Note_on_c, 3, 60, 100
5, 4824, Note_on_c, 3, 60, 0
5, 4840, Note_on_c, 3, 62, 100
5, 4864, Note_on_c, 3, 62, 0
5, 4880, Note_on_c, 3, 64, 100
5, 4904, Note_on_c, 3, 64, 0
5, 4920, Note_on_c, 3, 67, 100
5, 5520, Note_on_c, 3, 67, 0
5, 5640, Note_on_c, 3, 67, 100
5, 5680, Note_on_c, 3, 67, 0
5, 5680, Note_on_c, 3, 65, 100
5, 5720, Note_on_c, 3, 65, 0
5, 5720, Note_on_c, 3, 64, 100
5, 5760, Note_on_c, 3, 64, 0
5, 5760, Note_on_c, 3, 64, 100
5, 5990, Note_on_c, 3, 64, 0
5, 6000, Note_on_c, 3, 62, 100
5, 6480, Note_on_c, 3, 62, 0
5, 6600, Note_on_c, 3, 55, 100
5, 6720, Note_on_c, 3, 55, 0
5, 6720, Note_on_c, 3, 59, 100
5, 6744, Note_on_c, 3, 59, 0
5, 6760, Note_on_c, 3, 64, 100
5, 6784, Note_on_c, 3, 64, 0
5, 6800, Note_on_c, 3, 67, 100
5, 6824, Note_on_c, 3, 67, 0
5, 6840, Note_on_c, 3, 71, 100
5, 7440, Note_on_c, 3, 71, 0
5, 7560, Note_on_c, 3, 71, 100
5, 7600, Note_on_c, 3, 71, 0
5, 7600, Note_on_c, 3, 67, 100
5, 7640, Note_on_c, 3, 67, 0
5, 7640, Note_on_c, 3, 64, 100
5, 7680, Note_on_c, 3, 64, 0
5, 7680, Note_on_c, 3, 64, 100
5, 7910, Note_on_c, 3, 64, 0
5, 7920, Note_on_c, 3, 62, 100
5, 8400, Note_on_c, 3, 62, 0
5, 8520, Note_on_c, 3, 57, 100
5, 8640, Note_on_c, 3, 57, 0
5, 8640, Note_on_c, 3, 64, 100
5, 8664, Note_on_c, 3, 64, 0
5, 8680, Note_on_c, 3, 62, 100
5, 8704, Note_on_c, 3, 62, 0
5, 8720, Note_on_c, 3, 64, 100
5, 8744, Note_on_c, 3, 64, 0
5, 8760, Note_on_c, 3, 65, 100
5, 9360, Note_on_c, 3, 65, 0
5, 9480, Note_on_c, 3, 64, 100
5, 9504, Note_on_c, 3, 64, 0
5, 9520, Note_on_c, 3, 62, 100
5, 9544, Note_on_c, 3, 62, 0
5, 9560, Note_on_c, 3, 64, 100
5, 9584, Note_on_c, 3, 64, 0
5, 9600, Note_on_c, 3, 65, 100
5, 10080, Note_on_c, 3, 65, 0
5, 10080, Note_on_c, 3, 68, 100
5, 10320, Note_on_c, 3, 68, 0
5, 10320, Note_on_c, 3, 67, 100
5, 10440, Note_on_c, 3, 67, 0
5, 19680, Note_on_c, 3, 59, 70
5, 19680, Note_on_c, 3, 64, 70
5, 19920, Note_on_c, 3, 64, 0
5, 19920, Note_on_c, 3, 59, 0
5, 19920, Note_on_c, 3, 64, 84
5, 19920, Note_on_c, 3, 67, 84
5, 20160, Note_on_c, 3, 67, 0
5, 20160, Note_on_c, 3, 64, 0
5, 20160, Note_on_c, 3, 60, 91
5, 20640, Note_on_c, 3, 54, 93
5, 21120, Note_on_c, 3, 54, 0
5, 21120, Note_on_c, 3, 60, 0
5, 21120, Note_on_c, 3, 59, 98
5, 21120, Note_on_c, 3, 55, 98
5, 21600, Note_on_c, 3, 55, 0
5, 21600, Note_on_c, 3, 59, 0
5, 21600, Note_on_c, 3, 62, 93
5, 21600, Note_on_c, 3, 65, 93
5, 21840, Note_on_c, 3, 65, 0
5, 21840, Note_on_c, 3, 62, 0
5, 21840, Note_on_c, 3, 60, 93
5, 21840, Note_on_c, 3, 64, 93
5, 21960, Note_on_c, 3, 64, 0
5, 21960, Note_on_c, 3, 60, 0
5, 21960, Note_on_c, 3, 59, 93
5, 21960, Note_on_c, 3, 62, 93
5, 22080, Note_on_c, 3, 62, 0
5, 22080, Note_on_c, 3, 59, 0
5, 22080, Note_on_c, 3, 60, 93
5, 22080, Note_on_c, 3, 55, 93
5, 22560, Note_on_c, 3, 55, 0
5, 22560, Note_on_c, 3, 54, 91
5, 23040, Note_on_c, 3, 54, 0
5, 23040, Note_on_c, 3, 60, 0
5, 23040, Note_on_c, 3, 59, 89
5, 23040, Note_on_c, 3, 52, 89
5, 23520, Note_on_c, 3, 52, 0
5, 23520, Note_on_c, 3, 59, 0
5, 23520, Note_on_c, 3, 59, 70
5, 23520, Note_on_c, 3, 64, 70
5, 23760, Note_on_c, 3, 64, 0
5, 23760, Note_on_c, 3, 59, 0
5, 23760, Note_on_c, 3, 64, 84
5, 23760, Note_on_c, 3, 67, 84
5, 24000, Note_on_c, 3, 67, 0
5, 24000, Note_on_c, 3, 64, 0
5, 24000, Note_on_c, 3, 60, 84
5, 24000, Note_on_c, 3, 65, 84
5, 24960, Note_on_c, 3, 65, 0
5, 24960, Note_on_c, 3, 60, 0
5, 24960, Note_on_c, 3, 60, 84
5, 24960, Note_on_c, 3, 53, 84
5, 24987, Note_on_c, 3, 53, 0
5, 24990, Note_on_c, 3, 60, 0
5, 25020, Note_on_c, 3, 60, 84
5, 25020, Note_on_c, 3, 55, 84
5, 25047, Note_on_c, 3, 55, 0
5, 25050, Note_on_c, 3, 60, 0
5, 25080, Note_on_c, 3, 60, 84
5, 25080, Note_on_c, 3, 56, 84
5, 25107, Note_on_c, 3, 56, 0
5, 25110, Note_on_c, 3, 60, 0
5, 25140, Note_on_c, 3, 60, 84
5, 25140, Note_on_c, 3, 55, 84
5, 25167, Note_on_c, 3, 55, 0
5, 25170, Note_on_c, 3, 60, 0
5, 25200, Note_on_c, 3, 60, 84
5, 25200, Note_on_c, 3, 56, 84
5, 25227, Note_on_c, 3, 56, 0
5, 25230, Note_on_c, 3, 60, 0
5, 25260, Note_on_c, 3, 60, 84
5, 25260, Note_on_c, 3, 58, 84
5, 25368, Note_on_c, 3, 58, 0
5, 25368, Note_on_c, 3, 60, 0
5, 25380, Note_on_c, 3, 60, 84
5, 25380, Note_on_c, 3, 56, 84
5, 25488, Note_on_c, 3, 56, 0
5, 25488, Note_on_c, 3, 60, 0
5, 25500, Note_on_c, 3, 62, 84
5, 25500, Note_on_c, 3, 58, 84
5, 25554, Note_on_c, 3, 58, 0
5, 25554, Note_on_c, 3, 62, 0
5, 25560, Note_on_c, 3, 63, 84
5, 25560, Note_on_c, 3, 60, 84
5, 25614, Note_on_c, 3, 60, 0
5, 25614, Note_on_c, 3, 63, 0
5, 25620, Note_on_c, 3, 62, 84
5, 25620, Note_on_c, 3, 65, 84
5, 25674, Note_on_c, 3, 65, 0
5, 25674, Note_on_c, 3, 62, 0
5, 25680, Note_on_c, 3, 65, 84
5, 25680, Note_on_c, 3, 68, 84
5, 25734, Note_on_c, 3, 68, 0
5, 25734, Note_on_c, 3, 65, 0
5, 25740, Note_on_c, 3, 64, 84
5, 25740, Note_on_c, 3, 67, 84
5, 25794, Note_on_c, 3, 67, 0
5, 25794, Note_on_c, 3, 64, 0
5, 25800, Note_on_c, 3, 62, 84
5, 25800, Note_on_c, 3, 65, 84
5, 25854, Note_on_c, 3, 65, 0
5, 25854, Note_on_c, 3, 62, 0
5, 25860, Note_on_c, 3, 65, 84
5, 25860, Note_on_c, 3, 68, 84
5, 25914, Note_on_c, 3, 68, 0
5, 25914, Note_on_c, 3, 65, 0
5, 29640, Note_on_c, 3, 55, 100
5, 29760, Note_on_c, 3, 55, 0
5, 29760, Note_on_c, 3, 60, 100
5, 29784, Note_on_c, 3, 60, 0
5, 29800, Note_on_c, 3, 62, 100
5, 29824, Note_on_c, 3, 62, 0
5, 29840, Note_on_c, 3, 64, 100
5, 29864, Note_on_c, 3, 64, 0
5, 29880, Note_on_c, 3, 67, 100
5, 30480, Note_on_c, 3, 67, 0
5, 30600, Note_on_c, 3, 65, 100
5, 30640, Note_on_c, 3, 65, 0
5, 30640, Note_on_c, 3, 62, 100
5, 30680, Note_on_c, 3, 62, 0
5, 30680, Note_on_c, 3, 59, 100
5, 30720, Note_on_c, 3, 59, 0
5, 30720, Note_on_c, 3, 60, 100
5, 30950, Note_on_c, 3, 60, 0
5, 30960, Note_on_c, 3, 55, 100
5, 31440, Note_on_c, 3, 55, 0
5, 31560, Note_on_c, 3, 55, 100
5, 31680, Note_on_c, 3, 55, 0
5, 31680, Note_on_c, 3, 60, 100
5, 31704, Note_on_c, 3, 60, 0
5, 31720, Note_on_c, 3, 62, 100
5, 31744, Note_on_c, 3, 62, 0
5, 31760, Note_on_c, 3, 64, 100
5, 31784, Note_on_c, 3, 64, 0
5, 31800, Note_on_c, 3, 67, 100
5, 32400, Note_on_c, 3, 67, 0
5, 32520, Note_on_c, 3, 67, 100
5, 32560, Note_on_c, 3, 67, 0
5, 32560, Note_on_c, 3, 65, 100
5, 32600, Note_on_c, 3, 65, 0
5, 32600, Note_on_c, 3, 64, 100
5, 32640, Note_on_c, 3, 64, 0
5, 32640, Note_on_c, 3, 64, 100
5, 32870, Note_on_c, 3, 64, 0
5, 32880, Note_on_c, 3, 62, 100
5, 33360, Note_on_c, 3, 62, 0
5, 33480, Note_on_c, 3, 55, 100
5, 33600, Note_on_c, 3, 55, 0
5, 33600, Note_on_c, 3, 59, 100
5, 33624, Note_on_c, 3, 59, 0
5, 33640, Note_on_c, 3, 64, 100
5, 33664, Note_on_c, 3, 64, 0
5, 33680, Note_on_c, 3, 67, 100
5, 33704, Note_on_c, 3, 67, 0
5, 33720, Note_on_c, 3, 71, 100
5, 34320, Note_on_c, 3, 71, 0
5, 34440, Note_on_c, 3, 71, 100
5, 34480, Note_on_c, 3, 71, 0
5, 34480, Note_on_c, 3, 67, 100
5, 34520, Note_on_c, 3, 67, 0
5, 34520, Note_on_c, 3, 64, 100
5, 34560, Note_on_c, 3, 64, 0
5, 34560, Note_on_c, 3, 64, 100
5, 34790, Note_on_c, 3, 64, 0
5, 34800, Note_on_c, 3, 62, 100
5, 35280, Note_on_c, 3, 62, 0
5, 35400, Note_on_c, 3, 57, 100
5, 35520, Note_on_c, 3, 57, 0
5, 35520, Note_on_c, 3, 64, 100
5, 35544, Note_on_c, 3, 64, 0
5, 35560, Note_on_c, 3, 62, 100
5, 35584, Note_on_c, 3, 62, 0
5, 35600, Note_on_c, 3, 64, 100
5, 35624, Note_on_c, 3, 64, 0
5, 35640, Note_on_c, 3, 65, 100
5, 36240, Note_on_c, 3, 65, 0
5, 36360, Note_on_c, 3, 64, 100
5, 36384, Note_on_c, 3, 64, 0
5, 36400, Note_on_c, 3, 62, 100
5, 36424, Note_on_c, 3, 62, 0
5, 36440, Note_on_c, 3, 64, 100
5, 36464, Note_on_c, 3, 64, 0
5, 36480, Note_on_c, 3, 65, 100
5, 36960, Note_on_c, 3, 65, 0
5, 36960, Note_on_c, 3, 68, 100
5, 37200, Note_on_c, 3, 68, 0
5, 37200, Note_on_c, 3, 67, 100
5, 37320, Note_on_c, 3, 67, 0
5, 46560, Note_on_c, 3, 59, 70
5, 46560, Note_on_c, 3, 64, 70
5, 46800, Note_on_c, 3, 64, 0
5, 46800, Note_on_c, 3, 59, 0
5, 46800, Note_on_c, 3, 64, 84
5, 46800, Note_on_c, 3, 67, 84
5, 47040, Note_on_c, 3, 67, 0
5, 47040, Note_on_c, 3, 64, 0
5, 47040, Note_on_c, 3, 60, 91
5, 47520, Note_on_c, 3, 54, 93
5, 48000, Note_on_c, 3, 54, 0
5, 48000, Note_on_c, 3, 60, 0
5, 48000, Note_on_c, 3, 59, 98
5, 48000, Note_on_c, 3, 55, 98
5, 48480, Note_on_c, 3, 55, 0
5, 48480, Note_on_c, 3, 59, 0
5, 48480, Note_on_c, 3, 62, 93
5, 48480, Note_on_c, 3, 65, 93
5, 48720, Note_on_c, 3, 65, 0
5, 48720, Note_on_c, 3, 62, 0
5, 48720, Note_on_c, 3, 60, 93
5, 48720, Note_on_c, 3, 64, 93
5, 48840, Note_on_c, 3, 64, 0
5, 48840, Note_on_c, 3, 60, 0
5, 48840, Note_on_c, 3, 59, 93
5, 48840, Note_on_c, 3, 62, 93
5, 48960, Note_on_c, 3, 62, 0
5, 48960, Note_on_c, 3, 59, 0
5, 48960, Note_on_c, 3, 60, 93
5, 48960, Note_on_c, 3, 55, 93
5, 49440, Note_on_c, 3, 55, 0
5, 49440, Note_on_c, 3, 54, 91
5, 49920, Note_on_c, 3, 54, 0
5, 49920, Note_on_c, 3, 60, 0
5, 49920, Note_on_c, 3, 59, 89
5, 49920, Note_on_c, 3, 52, 89
5, 50400, Note_on_c, 3, 52, 0
5, 50400, Note_on_c, 3, 59, 0
5, 50400, Note_on_c, 3, 59, 70
5, 50400, Note_on_c, 3, 64, 70
5, 50640, Note_on_c, 3, 64, 0
5, 50640, Note_on_c, 3, 59, 0
5, 50640, Note_on_c, 3, 64, 84
5, 50640, Note_on_c, 3, 67, 84
5, 50880, Note_on_c, 3, 67, 0
5, 50880, Note_on_c, 3, 64, 0
5, 50880, Note_on_c, 3, 60, 84
5, 50880, Note_on_c, 3, 65, 84
5, 51840, Note_on_c, 3, 65, 0
5, 51840, Note_on_c, 3, 60, 0
5, 51840, Note_on_c, 3, 60, 84
5, 51840, Note_on_c, 3, 53, 84
5, 51867, Note_on_c, 3, 53, 0
5, 51870, Note_on_c, 3, 60, 0
5, 51900, Note_on_c, 3, 60, 84
5, 51900, Note_on_c, 3, 55, 84
5, 51927, Note_on_c, 3, 55, 0
5, 51930, Note_on_c, 3, 60, 0
5, 51960, Note_on_c, 3, 60, 84
5, 51960, Note_on_c, 3, 56, 84
5, 51987, Note_on_c, 3, 56, 0
5, 51990, Note_on_c, 3, 60, 0
5, 52020, Note_on_c, 3, 60, 84
5, 52020, Note_on_c, 3, 55, 84
5, 52047, Note_on_c, 3, 55, 0
5, 52050, Note_on_c, 3, 60, 0
5, 52080, Note_on_c, 3, 60, 84
5, 52080, Note_on_c, 3, 56, 84
5, 52107, Note_on_c, 3, 56, 0
5, 52110, Note_on_c, 3, 60, 0
5, 52140, Note_on_c, 3, 60, 84
5, 52140, Note_on_c, 3, 58, 84
5, 52248, Note_on_c, 3, 58, 0
5, 52248, Note_on_c, 3, 60, 0
5, 52260, Note_on_c, 3, 60, 84
5, 52260, Note_on_c, 3, 56, 84
5, 52368, Note_on_c, 3, 56, 0
5, 52368, Note_on_c, 3, 60, 0
5, 52380, Note_on_c, 3, 62, 84
5, 52380, Note_on_c, 3, 58, 84
5, 52434, Note_on_c, 3, 58, 0
5, 52434, Note_on_c, 3, 62, 0
5, 52440, Note_on_c, 3, 63, 84
5, 52440, Note_on_c, 3, 60, 84
5, 52494, Note_on_c, 3, 60, 0
5, 52494, Note_on_c, 3, 63, 0
5, 52500, Note_on_c, 3, 62, 84
5, 52500, Note_on_c, 3, 65, 84
5, 52554, Note_on_c, 3, 65, 0
5, 52554, Note_on_c, 3, 62, 0
5, 52560, Note_on_c, 3, 65, 84
5, 52560, Note_on_c, 3, 68, 84
5, 52614, Note_on_c, 3, 68, 0
5, 52614, Note_on_c, 3, 65, 0
5, 52620, Note_on_c, 3, 64, 84
5, 52620, Note_on_c, 3, 67, 84
5, 52674, Note_on_c, 3, 67, 0
5, 52674, Note_on_c, 3, 64, 0
5, 52680, Note_on_c, 3, 62, 84
5, 52680, Note_on_c, 3, 65, 84
5, 52734, Note_on_c, 3, 65, 0
5, 52734, Note_on_c, 3, 62, 0
5, 52740, Note_on_c, 3, 65, 84
5, 52740, Note_on_c, 3, 68, 84
5, 52794, Note_on_c, 3, 68, 0
5, 52794, Note_on_c, 3, 65, 0
5, 56520, Note_on_c, 3, 55, 100
5, 56640, Note_on_c, 3, 55, 0
5, 56640, Control_c, 3, 11, 126
5, 56640, Note_on_c, 3, 60, 100
5, 56664, Note_on_c, 3, 60, 0
5, 56670, Control_c, 3, 11, 125
5, 56680, Note_on_c, 3, 62, 100
5, 56690, Control_c, 3, 11, 124
5, 56704, Note_on_c, 3, 62, 0
5, 56710, Control_c, 3, 11, 123
5, 56720, Note_on_c, 3, 64, 100
5, 56740, Control_c, 3, 11, 122
5, 56744, Note_on_c, 3, 64, 0
5, 56760, Control_c, 3, 11, 121
5, 56760, Note_on_c, 3, 67, 100
5, 56780, Control_c, 3, 11, 120
5, 56800, Control_c, 3, 11, 119
5, 56830, Control_c, 3, 11, 118
5, 56850, Control_c, 3, 11, 117
5, 56870, Control_c, 3, 11, 116
5, 56900, Control_c, 3, 11, 115
5, 56920, Control_c, 3, 11, 114
5, 56940, Control_c, 3, 11, 113
5, 56960, Control_c, 3, 11, 112
5, 56990, Control_c, 3, 11, 111
5, 57010, Control_c, 3, 11, 110
5, 57030, Control_c, 3, 11, 109
5, 57060, Control_c, 3, 11, 108
5, 57080, Control_c, 3, 11, 107
5, 57100, Control_c, 3, 11, 106
5, 57120, Control_c, 3, 11, 105
5, 57150, Control_c, 3, 11, 104
5, 57170, Control_c, 3, 11, 103
5, 57190, Control_c, 3, 11, 102
5, 57220, Control_c, 3, 11, 101
5, 57240, Control_c, 3, 11, 100
5, 57260, Control_c, 3, 11, 99
5, 57280, Control_c, 3, 11, 98
5, 57310, Control_c, 3, 11, 97
5, 57330, Control_c, 3, 11, 96
5, 57350, Control_c, 3, 11, 95
5, 57360, Note_on_c, 3, 67, 0
5, 57380, Control_c, 3, 11, 94
5, 57400, Control_c, 3, 11, 93
5, 57420, Control_c, 3, 11, 92
5, 57440, Control_c, 3, 11, 91
5, 57470, Control_c, 3, 11, 90
5, 57480, Note_on_c, 3, 65, 100
5, 57490, Control_c, 3, 11, 89
5, 57510, Control_c, 3, 11, 88
5, 57520, Note_on_c, 3, 65, 0
5, 57520, Note_on_c, 3, 62, 100
5, 57540, Control_c, 3, 11, 87
5, 57560, Note_on_c, 3, 62, 0
5, 57560, Control_c, 3, 11, 86
5, 57560, Note_on_c, 3, 59, 100
5, 57580, Control_c, 3, 11, 85
5, 57600, Note_on_c, 3, 59, 0
5, 57600, Control_c, 3, 11, 84
5, 57600, Note_on_c, 3, 60, 100
5, 57630, Control_c, 3, 11, 83
5, 57650, Control_c, 3, 11, 82
5, 57670, Control_c, 3, 11, 81
5, 57700, Control_c, 3, 11, 80
5, 57720, Control_c, 3, 11, 79
5, 57740, Control_c, 3, 11, 78
5, 57760, Control_c, 3, 11, 77
5, 57790, Control_c, 3, 11, 76
5, 57810, Control_c, 3, 11, 75
5, 57830, Note_on_c, 3, 60, 0
5, 57830, Control_c, 3, 11, 74
5, 57840, Note_on_c, 3, 55, 100
5, 57860, Control_c, 3, 11, 73
5, 57880, Control_c, 3, 11, 72
5, 57900, Control_c, 3, 11, 71
5, 57920, Control_c, 3, 11, 70
5, 57950, Control_c, 3, 11, 69
5, 57970, Control_c, 3, 11, 68
5, 57990, Control_c, 3, 11, 67
5, 58020, Control_c, 3, 11, 66
5, 58040, Control_c, 3, 11, 65
5, 58060, Control_c, 3, 11, 64
5, 58080, Control_c, 3, 11, 63
5, 58110, Control_c, 3, 11, 62
5, 58130, Control_c, 3, 11, 61
5, 58150, Control_c, 3, 11, 60
5, 58180, Control_c, 3, 11, 59
5, 58200, Control_c, 3, 11, 58
5, 58220, Control_c, 3, 11, 57
5, 58240, Control_c, 3, 11, 56
5, 58270, Control_c, 3, 11, 55
5, 58290, Control_c, 3, 11, 54
5, 58310, Control_c, 3, 11, 53
5, 58320, Note_on_c, 3, 55, 0
5, 58340, Control_c, 3, 11, 52
5, 58360, Control_c, 3, 11, 51
5, 58380, Control_c, 3, 11, 50
5, 58400, Control_c, 3, 11, 49
5, 58430, Control_c, 3, 11, 48
5, 58440, Note_on_c, 3, 55, 100
5, 58450, Control_c, 3, 11, 47
5, 58470, Control_c, 3, 11, 46
5, 58500, Control_c, 3, 11, 45
5, 58520, Control_c, 3, 11, 44
5, 58540, Control_c, 3, 11, 43
5, 58560, Note_on_c, 3, 55, 0
5, 58560, Control_c, 3, 11, 42
5, 58560, Note_on_c, 3, 60, 100
5, 58584, Note_on_c, 3, 60, 0
5, 58590, Control_c, 3, 11, 41
5, 58600, Note_on_c, 3, 62, 100
5, 58610, Control_c, 3, 11, 40
5, 58624, Note_on_c, 3, 62, 0
5, 58630, Control_c, 3, 11, 39
5, 58640, Note_on_c, 3, 64, 100
5, 58660, Control_c, 3, 11, 38
5, 58664, Note_on_c, 3, 64, 0
5, 58680, Control_c, 3, 11, 37
5, 58680, Note_on_c, 3, 67, 100
5, 58700, Control_c, 3, 11, 36
5, 58720, Control_c, 3, 11, 35
5, 58750, Control_c, 3, 11, 34
5, 58770, Control_c, 3, 11, 33
5, 58790, Control_c, 3, 11, 32
5, 58820, Control_c, 3, 11, 31
5, 58840, Control_c, 3, 11, 30
5, 58860, Control_c, 3, 11, 29
5, 58880, Control_c, 3, 11, 28
5, 58910, Control_c, 3, 11, 27
5, 58930, Control_c, 3, 11, 26
5, 58950, Control_c, 3, 11, 25
5, 58980, Control_c, 3, 11, 24
5, 59000, Control_c, 3, 11, 23
5, 59020, Control_c, 3, 11, 22
5, 59040, Control_c, 3, 11, 21
5, 59070, Control_c, 3, 11, 20
5, 59090, Control_c, 3, 11, 19
5, 59110, Control_c, 3, 11, 18
5, 59140, Control_c, 3, 11, 17
5, 59160, Control_c, 3, 11, 16
5, 59180, Control_c, 3, 11, 15
5, 59200, Control_c, 3, 11, 14
5, 59230, Control_c, 3, 11, 13
5, 59250, Control_c, 3, 11, 12
5, 59270, Control_c, 3, 11, 11
5, 59280, Note_on_c, 3, 67, 0
5, 59300, Control_c, 3, 11, 10
5, 59320, Control_c, 3, 11, 9
5, 59340, Control_c, 3, 11, 8
5, 59360, Control_c, 3, 11, 7
5, 59390, Control_c, 3, 11, 6
5, 59400, Note_on_c, 3, 67, 100
5, 59410, Control_c, 3, 11, 5
5, 59430, Control_c, 3, 11, 4
5, 59440, Note_on_c, 3, 67, 0
5, 59440, Note_on_c, 3, 65, 100
5, 59460, Control_c, 3, 11, 3
5, 59480, Note_on_c, 3, 65, 0
5, 59480, Control_c, 3, 11, 2
5, 59480, Note_on_c, 3, 64, 100
5, 59500, Control_c, 3, 11, 1
5, 59520, Note_on_c, 3, 64, 0
5, 59520, Control_c, 3, 11, 0
5, 59520, End_track
6, 0, Start_track
6, 0, Title_t, "A5-Piccolo     "
6, 122, Control_c, 4, 91, 60
6, 123, Control_c, 4, 93, 10
6, 140, Control_c, 4, 0, 0
6, 141, Control_c, 4, 32, 3
6, 142, Program_c, 4, 72
6, 143, Control_c, 4, 7, 95
6, 143, Control_c, 4, 10, 96
6, 2640, Note_on_c, 4, 50, 110
6, 2640, Note_on_c, 4, 62, 110
6, 2658, Note_on_c, 4, 62, 0
6, 2658, Note_on_c, 4, 50, 0
6, 2660, Note_on_c, 4, 55, 110
6, 2660, Note_on_c, 4, 67, 110
6, 2678, Note_on_c, 4, 67, 0
6, 2678, Note_on_c, 4, 55, 0
6, 2680, Note_on_c, 4, 62, 110
6, 2680, Note_on_c, 4, 74, 110
6, 2698, Note_on_c, 4, 74, 0
6, 2698, Note_on_c, 4, 62, 0
6, 2700, Note_on_c, 4, 67, 110
6, 2700, Note_on_c, 4, 79, 110
6, 2718, Note_on_c, 4, 79, 0
6, 2718, Note_on_c, 4, 67, 0
6, 2720, Note_on_c, 4, 62, 110
6, 2720, Note_on_c, 4, 74, 110
6, 2738, Note_on_c, 4, 74, 0
6, 2738, Note_on_c, 4, 62, 0
6, 2740, Note_on_c, 4, 55, 110
6, 2740, Note_on_c, 4, 67, 110
6, 2758, Note_on_c, 4, 67, 0
6, 2758, Note_on_c, 4, 55, 0
6, 2760, Note_on_c, 4, 59, 110
6, 2760, Note_on_c, 4, 71, 110
6, 2778, Note_on_c, 4, 71, 0
6, 2778, Note_on_c, 4, 59, 0
6, 2780, Note_on_c, 4, 62, 110
6, 2780, Note_on_c, 4, 74, 110
6, 2798, Note_on_c, 4, 74, 0
6, 2798, Note_on_c, 4, 62, 0
6, 2800, Note_on_c, 4, 67, 110
6, 2800, Note_on_c, 4, 79, 110
6, 2818, Note_on_c, 4, 79, 0
6, 2818, Note_on_c, 4, 67, 0
6, 2820, Note_on_c, 4, 71, 110
6, 2820, Note_on_c, 4, 83, 110
6, 2838, Note_on_c, 4, 83, 0
6, 2838, Note_on_c, 4, 71, 0
6, 2840, Note_on_c, 4, 74, 110
6, 2840, Note_on_c, 4, 86, 110
6, 2858, Note_on_c, 4, 86, 0
6, 2858, Note_on_c, 4, 74, 0
6, 2860, Note_on_c, 4, 79, 110
6, 2860, Note_on_c, 4, 91, 110
6, 2878, Note_on_c, 4, 91, 0
6, 2878, Note_on_c, 4, 79, 0
6, 2880, Note_on_c, 4, 84, 110
6, 2880, Note_on_c, 4, 96, 110
6, 2910, Note_on_c, 4, 96, 0
6, 2910, Note_on_c, 4, 84, 0
6, 2910, End_track
7, 0, Start_track
7, 0, Title_t, "A6-Piccolo     "
7, 131, Control_c, 5, 91, 60
7, 132, Control_c, 5, 93, 10
7, 145, Control_c, 5, 0, 0
7, 146, Control_c, 5, 32, 3
7, 147, Program_c, 5, 72
7, 148, Control_c, 5, 7, 95
7, 148, Control_c, 5, 10, 32
7, 2640, Note_on_c, 5, 55, 110
7, 2658, Note_on_c, 5, 55, 0
7, 2660, Note_on_c, 5, 62, 110
7, 2678, Note_on_c, 5, 62, 0
7, 2680, Note_on_c, 5, 67, 110
7, 2698, Note_on_c, 5, 67, 0
7, 2700, Note_on_c, 5, 71, 110
7, 2718, Note_on_c, 5, 71, 0
7, 2720, Note_on_c, 5, 67, 110
7, 2738, Note_on_c, 5, 67, 0
7, 2740, Note_on_c, 5, 62, 110
7, 2758, Note_on_c, 5, 62, 0
7, 2760, Note_on_c, 5, 67, 110
7, 2778, Note_on_c, 5, 67, 0
7, 2780, Note_on_c, 5, 71, 110
7, 2798, Note_on_c, 5, 71, 0
7, 2800, Note_on_c, 5, 74, 110
7, 2818, Note_on_c, 5, 74, 0
7, 2820, Note_on_c, 5, 79, 110
7, 2838, Note_on_c, 5, 79, 0
7, 2840, Note_on_c, 5, 83, 110
7, 2858, Note_on_c, 5, 83, 0
7, 2860, Note_on_c, 5, 86, 110
7, 2878, Note_on_c, 5, 86, 0
7, 2880, Note_on_c, 5, 96, 110
7, 2920, Note_on_c, 5, 96, 0
7, 10560, Note_on_c, 5, 67, 100
7, 10560, Note_on_c, 5, 74, 100
7, 10560, Note_on_c, 5, 76, 100
7, 10590, Note_on_c, 5, 67, 0
7, 10592, Note_on_c, 5, 76, 0
7, 10592, Note_on_c, 5, 74, 0
7, 10680, Note_on_c, 5, 67, 100
7, 10680, Note_on_c, 5, 74, 100
7, 10680, Note_on_c, 5, 76, 100
7, 10710, Note_on_c, 5, 67, 0
7, 10712, Note_on_c, 5, 76, 0
7, 10712, Note_on_c, 5, 74, 0
7, 10740, Note_on_c, 5, 67, 100
7, 10740, Note_on_c, 5, 72, 100
7, 10740, Note_on_c, 5, 77, 100
7, 10770, Note_on_c, 5, 67, 0
7, 10772, Note_on_c, 5, 77, 0
7, 10772, Note_on_c, 5, 72, 0
7, 10860, Note_on_c, 5, 67, 100
7, 10860, Note_on_c, 5, 72, 100
7, 10860, Note_on_c, 5, 77, 100
7, 10890, Note_on_c, 5, 67, 0
7, 10892, Note_on_c, 5, 77, 0
7, 10892, Note_on_c, 5, 72, 0
7, 10920, Note_on_c, 5, 67, 100
7, 10920, Note_on_c, 5, 71, 100
7, 10920, Note_on_c, 5, 74, 100
7, 10950, Note_on_c, 5, 67, 0
7, 10952, Note_on_c, 5, 74, 0
7, 10952, Note_on_c, 5, 71, 0
7, 11040, Note_on_c, 5, 67, 100
7, 11040, Note_on_c, 5, 71, 100
7, 11040, Note_on_c, 5, 74, 100
7, 11070, Note_on_c, 5, 67, 0
7, 11072, Note_on_c, 5, 74, 0
7, 11072, Note_on_c, 5, 71, 0
7, 11100, Note_on_c, 5, 67, 100
7, 11100, Note_on_c, 5, 72, 100
7, 11100, Note_on_c, 5, 76, 100
7, 11130, Note_on_c, 5, 67, 0
7, 11132, Note_on_c, 5, 76, 0
7, 11132, Note_on_c, 5, 72, 0
7, 11220, Note_on_c, 5, 67, 100
7, 11220, Note_on_c, 5, 72, 100
7, 11220, Note_on_c, 5, 76, 100
7, 11250, Note_on_c, 5, 67, 0
7, 11252, Note_on_c, 5, 76, 0
7, 11252, Note_on_c, 5, 72, 0
7, 11280, Note_on_c, 5, 67, 100
7, 11280, Note_on_c, 5, 72, 100
7, 11280, Note_on_c, 5, 76, 100
7, 11310, Note_on_c, 5, 67, 0
7, 11312, Note_on_c, 5, 76, 0
7, 11312, Note_on_c, 5, 72, 0
7, 11400, Note_on_c, 5, 67, 100
7, 11400, Note_on_c, 5, 71, 100
7, 11400, Note_on_c, 5, 74, 100
7, 11430, Note_on_c, 5, 67, 0
7, 11432, Note_on_c, 5, 74, 0
7, 11432, Note_on_c, 5, 71, 0
7, 11520, Note_on_c, 5, 67, 100
7, 11520, Note_on_c, 5, 74, 100
7, 11520, Note_on_c, 5, 76, 100
7, 11550, Note_on_c, 5, 67, 0
7, 11552, Note_on_c, 5, 76, 0
7, 11552, Note_on_c, 5, 74, 0
7, 11640, Note_on_c, 5, 67, 100
7, 11640, Note_on_c, 5, 74, 100
7, 11640, Note_on_c, 5, 76, 100
7, 11670, Note_on_c, 5, 67, 0
7, 11672, Note_on_c, 5, 76, 0
7, 11672, Note_on_c, 5, 74, 0
7, 11700, Note_on_c, 5, 72, 100
7, 11700, Note_on_c, 5, 77, 100
7, 11700, Note_on_c, 5, 67, 100
7, 11730, Note_on_c, 5, 67, 0
7, 11732, Note_on_c, 5, 77, 0
7, 11732, Note_on_c, 5, 72, 0
7, 11820, Note_on_c, 5, 67, 100
7, 11820, Note_on_c, 5, 67, 100
7, 11820, Note_on_c, 5, 72, 100
7, 11820, Note_on_c, 5, 77, 100
7, 11850, Note_on_c, 5, 67, 0
7, 11850, Note_on_c, 5, 67, 0
7, 11852, Note_on_c, 5, 72, 0
7, 11852, Note_on_c, 5, 77, 0
7, 11880, Note_on_c, 5, 67, 100
7, 11880, Note_on_c, 5, 71, 100
7, 11880, Note_on_c, 5, 74, 100
7, 11910, Note_on_c, 5, 67, 0
7, 11912, Note_on_c, 5, 74, 0
7, 11912, Note_on_c, 5, 71, 0
7, 12000, Note_on_c, 5, 67, 100
7, 12000, Note_on_c, 5, 71, 100
7, 12000, Note_on_c, 5, 74, 100
7, 12030, Note_on_c, 5, 67, 0
7, 12032, Note_on_c, 5, 74, 0
7, 12032, Note_on_c, 5, 71, 0
7, 12060, Note_on_c, 5, 67, 100
7, 12060, Note_on_c, 5, 72, 100
7, 12060, Note_on_c, 5, 76, 100
7, 12090, Note_on_c, 5, 67, 0
7, 12092, Note_on_c, 5, 76, 0
7, 12092, Note_on_c, 5, 72, 0
7, 12120, Note_on_c, 5, 67, 100
7, 12150, Note_on_c, 5, 67, 0
7, 12180, Note_on_c, 5, 67, 100
7, 12180, Note_on_c, 5, 74, 100
7, 12180, Note_on_c, 5, 77, 100
7, 12210, Note_on_c, 5, 67, 0
7, 12212, Note_on_c, 5, 77, 0
7, 12212, Note_on_c, 5, 74, 0
7, 12240, Note_on_c, 5, 67, 100
7, 12240, Note_on_c, 5, 72, 100
7, 12240, Note_on_c, 5, 76, 100
7, 12348, Note_on_c, 5, 76, 0
7, 12348, Note_on_c, 5, 72, 0
7, 12348, Note_on_c, 5, 67, 0
7, 12480, Note_on_c, 5, 67, 100
7, 12480, Note_on_c, 5, 72, 100
7, 12480, Note_on_c, 5, 76, 100
7, 12510, Note_on_c, 5, 72, 0
7, 12510, Note_on_c, 5, 67, 0
7, 12516, Note_on_c, 5, 76, 0
7, 12600, Note_on_c, 5, 67, 100
7, 12600, Note_on_c, 5, 72, 100
7, 12600, Note_on_c, 5, 76, 100
7, 12636, Note_on_c, 5, 76, 0
7, 12636, Note_on_c, 5, 72, 0
7, 12636, Note_on_c, 5, 67, 0
7, 12660, Note_on_c, 5, 67, 100
7, 12660, Note_on_c, 5, 74, 100
7, 12690, Note_on_c, 5, 74, 0
7, 12690, Note_on_c, 5, 67, 0
7, 12780, Note_on_c, 5, 76, 100
7, 12780, Note_on_c, 5, 74, 100
7, 12780, Note_on_c, 5, 67, 100
7, 12816, Note_on_c, 5, 67, 0
7, 12816, Note_on_c, 5, 74, 0
7, 12816, Note_on_c, 5, 76, 0
7, 12840, Note_on_c, 5, 67, 100
7, 12840, Note_on_c, 5, 71, 100
7, 12840, Note_on_c, 5, 76, 100
7, 12870, Note_on_c, 5, 71, 0
7, 12870, Note_on_c, 5, 67, 0
7, 12876, Note_on_c, 5, 76, 0
7, 12960, Note_on_c, 5, 67, 100
7, 12960, Note_on_c, 5, 71, 100
7, 12960, Note_on_c, 5, 76, 100
7, 12996, Note_on_c, 5, 76, 0
7, 12996, Note_on_c, 5, 71, 0
7, 12996, Note_on_c, 5, 67, 0
7, 13020, Note_on_c, 5, 67, 100
7, 13020, Note_on_c, 5, 72, 100
7, 13020, Note_on_c, 5, 76, 100
7, 13050, Note_on_c, 5, 72, 0
7, 13050, Note_on_c, 5, 67, 0
7, 13056, Note_on_c, 5, 76, 0
7, 13140, Note_on_c, 5, 74, 100
7, 13140, Note_on_c, 5, 76, 100
7, 13140, Note_on_c, 5, 67, 100
7, 13176, Note_on_c, 5, 67, 0
7, 13176, Note_on_c, 5, 76, 0
7, 13176, Note_on_c, 5, 74, 0
7, 13200, Note_on_c, 5, 67, 100
7, 13200, Note_on_c, 5, 72, 100
7, 13200, Note_on_c, 5, 76, 100
7, 13230, Note_on_c, 5, 72, 0
7, 13230, Note_on_c, 5, 67, 0
7, 13236, Note_on_c, 5, 76, 0
7, 13320, Note_on_c, 5, 67, 100
7, 13320, Note_on_c, 5, 71, 100
7, 13320, Note_on_c, 5, 76, 100
7, 13350, Note_on_c, 5, 71, 0
7, 13350, Note_on_c, 5, 67, 0
7, 13356, Note_on_c, 5, 76, 0
7, 13440, Note_on_c, 5, 69, 100
7, 13440, Note_on_c, 5, 72, 100
7, 13440, Note_on_c, 5, 77, 100
7, 13470, Note_on_c, 5, 72, 0
7, 13470, Note_on_c, 5, 69, 0
7, 13476, Note_on_c, 5, 77, 0
7, 13560, Note_on_c, 5, 69, 100
7, 13560, Note_on_c, 5, 72, 100
7, 13560, Note_on_c, 5, 77, 100
7, 13596, Note_on_c, 5, 77, 0
7, 13596, Note_on_c, 5, 72, 0
7, 13596, Note_on_c, 5, 69, 0
7, 13620, Note_on_c, 5, 67, 100
7, 13620, Note_on_c, 5, 71, 100
7, 13620, Note_on_c, 5, 77, 100
7, 13650, Note_on_c, 5, 71, 0
7, 13650, Note_on_c, 5, 67, 0
7, 13656, Note_on_c, 5, 77, 0
7, 13740, Note_on_c, 5, 71, 100
7, 13740, Note_on_c, 5, 67, 100
7, 13740, Note_on_c, 5, 77, 100
7, 13776, Note_on_c, 5, 77, 0
7, 13776, Note_on_c, 5, 67, 0
7, 13776, Note_on_c, 5, 71, 0
7, 13800, Note_on_c, 5, 65, 100
7, 13800, Note_on_c, 5, 69, 100
7, 13800, Note_on_c, 5, 77, 100
7, 13830, Note_on_c, 5, 69, 0
7, 13830, Note_on_c, 5, 65, 0
7, 13836, Note_on_c, 5, 77, 0
7, 13920, Note_on_c, 5, 65, 100
7, 13920, Note_on_c, 5, 69, 100
7, 13920, Note_on_c, 5, 77, 100
7, 13956, Note_on_c, 5, 77, 0
7, 13956, Note_on_c, 5, 69, 0
7, 13956, Note_on_c, 5, 65, 0
7, 13980, Note_on_c, 5, 67, 100
7, 13980, Note_on_c, 5, 71, 100
7, 13980, Note_on_c, 5, 77, 100
7, 14010, Note_on_c, 5, 71, 0
7, 14010, Note_on_c, 5, 67, 0
7, 14016, Note_on_c, 5, 77, 0
7, 14100, Note_on_c, 5, 67, 100
7, 14100, Note_on_c, 5, 71, 100
7, 14100, Note_on_c, 5, 77, 100
7, 14136, Note_on_c, 5, 77, 0
7, 14136, Note_on_c, 5, 71, 0
7, 14136, Note_on_c, 5, 67, 0
7, 14160, Note_on_c, 5, 67, 100
7, 14160, Note_on_c, 5, 72, 100
7, 14160, Note_on_c, 5, 77, 100
7, 14268, Note_on_c, 5, 77, 0
7, 14268, Note_on_c, 5, 72, 0
7, 14268, Note_on_c, 5, 67, 0
7, 14400, Note_on_c, 5, 71, 100
7, 14400, Note_on_c, 5, 76, 100
7, 14400, Note_on_c, 5, 79, 100
7, 14436, Note_on_c, 5, 79, 0
7, 14436, Note_on_c, 5, 76, 0
7, 14436, Note_on_c, 5, 71, 0
7, 14520, Note_on_c, 5, 71, 100
7, 14520, Note_on_c, 5, 76, 100
7, 14520, Note_on_c, 5, 79, 100
7, 14556, Note_on_c, 5, 79, 0
7, 14556, Note_on_c, 5, 76, 0
7, 14556, Note_on_c, 5, 71, 0
7, 14580, Note_on_c, 5, 71, 100
7, 14580, Note_on_c, 5, 76, 100
7, 14580, Note_on_c, 5, 81, 100
7, 14616, Note_on_c, 5, 81, 0
7, 14616, Note_on_c, 5, 76, 0
7, 14616, Note_on_c, 5, 71, 0
7, 14700, Note_on_c, 5, 71, 100
7, 14700, Note_on_c, 5, 76, 100
7, 14700, Note_on_c, 5, 81, 100
7, 14736, Note_on_c, 5, 81, 0
7, 14736, Note_on_c, 5, 76, 0
7, 14736, Note_on_c, 5, 71, 0
7, 14760, Note_on_c, 5, 71, 100
7, 14760, Note_on_c, 5, 76, 100
7, 14760, Note_on_c, 5, 79, 100
7, 14796, Note_on_c, 5, 79, 0
7, 14796, Note_on_c, 5, 76, 0
7, 14796, Note_on_c, 5, 71, 0
7, 14880, Note_on_c, 5, 71, 100
7, 14880, Note_on_c, 5, 76, 100
7, 14880, Note_on_c, 5, 79, 100
7, 14916, Note_on_c, 5, 79, 0
7, 14916, Note_on_c, 5, 76, 0
7, 14916, Note_on_c, 5, 71, 0
7, 14940, Note_on_c, 5, 71, 100
7, 14940, Note_on_c, 5, 76, 100
7, 14940, Note_on_c, 5, 81, 100
7, 14976, Note_on_c, 5, 81, 0
7, 14976, Note_on_c, 5, 76, 0
7, 14976, Note_on_c, 5, 71, 0
7, 15060, Note_on_c, 5, 71, 100
7, 15060, Note_on_c, 5, 76, 100
7, 15060, Note_on_c, 5, 81, 100
7, 15096, Note_on_c, 5, 81, 0
7, 15096, Note_on_c, 5, 76, 0
7, 15096, Note_on_c, 5, 71, 0
7, 15120, Note_on_c, 5, 71, 100
7, 15120, Note_on_c, 5, 76, 100
7, 15120, Note_on_c, 5, 79, 100
7, 15156, Note_on_c, 5, 79, 0
7, 15156, Note_on_c, 5, 76, 0
7, 15156, Note_on_c, 5, 71, 0
7, 15240, Note_on_c, 5, 73, 100
7, 15240, Note_on_c, 5, 76, 100
7, 15240, Note_on_c, 5, 79, 100
7, 15276, Note_on_c, 5, 79, 0
7, 15276, Note_on_c, 5, 76, 0
7, 15276, Note_on_c, 5, 73, 0
7, 15360, Note_on_c, 5, 69, 100
7, 15360, Note_on_c, 5, 74, 100
7, 15360, Note_on_c, 5, 77, 100
7, 15396, Note_on_c, 5, 77, 0
7, 15396, Note_on_c, 5, 74, 0
7, 15396, Note_on_c, 5, 69, 0
7, 15480, Note_on_c, 5, 69, 100
7, 15480, Note_on_c, 5, 74, 100
7, 15480, Note_on_c, 5, 77, 100
7, 15516, Note_on_c, 5, 77, 0
7, 15516, Note_on_c, 5, 74, 0
7, 15516, Note_on_c, 5, 69, 0
7, 15540, Note_on_c, 5, 69, 100
7, 15540, Note_on_c, 5, 72, 100
7, 15540, Note_on_c, 5, 76, 100
7, 15576, Note_on_c, 5, 76, 0
7, 15576, Note_on_c, 5, 72, 0
7, 15576, Note_on_c, 5, 69, 0
7, 15660, Note_on_c, 5, 76, 100
7, 15660, Note_on_c, 5, 72, 100
7, 15660, Note_on_c, 5, 69, 100
7, 15696, Note_on_c, 5, 69, 0
7, 15696, Note_on_c, 5, 72, 0
7, 15696, Note_on_c, 5, 76, 0
7, 15720, Note_on_c, 5, 69, 100
7, 15720, Note_on_c, 5, 71, 100
7, 15720, Note_on_c, 5, 74, 100
7, 15756, Note_on_c, 5, 74, 0
7, 15756, Note_on_c, 5, 71, 0
7, 15756, Note_on_c, 5, 69, 0
7, 15840, Note_on_c, 5, 69, 100
7, 15840, Note_on_c, 5, 71, 100
7, 15840, Note_on_c, 5, 74, 100
7, 15876, Note_on_c, 5, 74, 0
7, 15876, Note_on_c, 5, 71, 0
7, 15876, Note_on_c, 5, 69, 0
7, 15900, Note_on_c, 5, 69, 100
7, 15900, Note_on_c, 5, 72, 100
7, 15900, Note_on_c, 5, 76, 100
7, 15936, Note_on_c, 5, 76, 0
7, 15936, Note_on_c, 5, 72, 0
7, 15936, Note_on_c, 5, 69, 0
7, 16020, Note_on_c, 5, 69, 100
7, 16020, Note_on_c, 5, 72, 100
7, 16020, Note_on_c, 5, 76, 100
7, 16056, Note_on_c, 5, 76, 0
7, 16056, Note_on_c, 5, 72, 0
7, 16056, Note_on_c, 5, 69, 0
7, 16080, Note_on_c, 5, 69, 100
7, 16080, Note_on_c, 5, 74, 100
7, 16080, Note_on_c, 5, 77, 100
7, 16116, Note_on_c, 5, 77, 0
7, 16116, Note_on_c, 5, 74, 0
7, 16116, Note_on_c, 5, 69, 0
7, 16200, Note_on_c, 5, 69, 100
7, 16200, Note_on_c, 5, 76, 100
7, 16200, Note_on_c, 5, 79, 100
7, 16236, Note_on_c, 5, 79, 0
7, 16236, Note_on_c, 5, 76, 0
7, 16236, Note_on_c, 5, 69, 0
7, 16320, Note_on_c, 5, 74, 100
7, 16320, Note_on_c, 5, 69, 100
7, 16320, Note_on_c, 5, 77, 100
7, 16356, Note_on_c, 5, 77, 0
7, 16356, Note_on_c, 5, 69, 0
7, 16356, Note_on_c, 5, 74, 0
7, 16440, Note_on_c, 5, 69, 100
7, 16440, Note_on_c, 5, 74, 100
7, 16440, Note_on_c, 5, 77, 100
7, 16476, Note_on_c, 5, 77, 0
7, 16476, Note_on_c, 5, 74, 0
7, 16476, Note_on_c, 5, 69, 0
7, 16500, Note_on_c, 5, 72, 100
7, 16500, Note_on_c, 5, 69, 100
7, 16500, Note_on_c, 5, 76, 100
7, 16536, Note_on_c, 5, 76, 0
7, 16536, Note_on_c, 5, 69, 0
7, 16536, Note_on_c, 5, 72, 0
7, 16620, Note_on_c, 5, 69, 100
7, 16620, Note_on_c, 5, 72, 100
7, 16620, Note_on_c, 5, 76, 100
7, 16656, Note_on_c, 5, 76, 0
7, 16656, Note_on_c, 5, 72, 0
7, 16656, Note_on_c, 5, 69, 0
7, 16680, Note_on_c, 5, 71, 100
7, 16680, Note_on_c, 5, 69, 100
7, 16680, Note_on_c, 5, 74, 100
7, 16716, Note_on_c, 5, 74, 0
7, 16716, Note_on_c, 5, 69, 0
7, 16716, Note_on_c, 5, 71, 0
7, 16800, Note_on_c, 5, 71, 100
7, 16800, Note_on_c, 5, 74, 100
7, 16800, Note_on_c, 5, 69, 100
7, 16836, Note_on_c, 5, 69, 0
7, 16836, Note_on_c, 5, 74, 0
7, 16836, Note_on_c, 5, 71, 0
7, 16860, Note_on_c, 5, 72, 100
7, 16860, Note_on_c, 5, 69, 100
7, 16860, Note_on_c, 5, 76, 100
7, 16896, Note_on_c, 5, 76, 0
7, 16896, Note_on_c, 5, 69, 0
7, 16896, Note_on_c, 5, 72, 0
7, 16980, Note_on_c, 5, 69, 100
7, 16980, Note_on_c, 5, 72, 100
7, 16980, Note_on_c, 5, 76, 100
7, 17016, Note_on_c, 5, 76, 0
7, 17016, Note_on_c, 5, 72, 0
7, 17016, Note_on_c, 5, 69, 0
7, 17040, Note_on_c, 5, 74, 100
7, 17040, Note_on_c, 5, 69, 100
7, 17040, Note_on_c, 5, 77, 100
7, 17076, Note_on_c, 5, 77, 0
7, 17076, Note_on_c, 5, 69, 0
7, 17076, Note_on_c, 5, 74, 0
7, 17160, Note_on_c, 5, 76, 100
7, 17160, Note_on_c, 5, 69, 100
7, 17160, Note_on_c, 5, 79, 100
7, 17196, Note_on_c, 5, 79, 0
7, 17196, Note_on_c, 5, 69, 0
7, 17196, Note_on_c, 5, 76, 0
7, 17280, Note_on_c, 5, 67, 100
7, 17280, Note_on_c, 5, 74, 100
7, 17280, Note_on_c, 5, 77, 100
7, 17316, Note_on_c, 5, 77, 0
7, 17316, Note_on_c, 5, 74, 0
7, 17316, Note_on_c, 5, 67, 0
7, 17400, Note_on_c, 5, 67, 100
7, 17400, Note_on_c, 5, 74, 100
7, 17400, Note_on_c, 5, 77, 100
7, 17436, Note_on_c, 5, 77, 0
7, 17436, Note_on_c, 5, 74, 0
7, 17436, Note_on_c, 5, 67, 0
7, 17460, Note_on_c, 5, 67, 100
7, 17460, Note_on_c, 5, 72, 100
7, 17460, Note_on_c, 5, 76, 100
7, 17496, Note_on_c, 5, 76, 0
7, 17496, Note_on_c, 5, 72, 0
7, 17496, Note_on_c, 5, 67, 0
7, 17580, Note_on_c, 5, 67, 100
7, 17580, Note_on_c, 5, 72, 100
7, 17580, Note_on_c, 5, 76, 100
7, 17616, Note_on_c, 5, 76, 0
7, 17616, Note_on_c, 5, 72, 0
7, 17616, Note_on_c, 5, 67, 0
7, 17640, Note_on_c, 5, 67, 100
7, 17640, Note_on_c, 5, 71, 100
7, 17640, Note_on_c, 5, 74, 100
7, 17676, Note_on_c, 5, 74, 0
7, 17676, Note_on_c, 5, 71, 0
7, 17676, Note_on_c, 5, 67, 0
7, 17760, Note_on_c, 5, 67, 100
7, 17760, Note_on_c, 5, 71, 100
7, 17760, Note_on_c, 5, 74, 100
7, 17796, Note_on_c, 5, 74, 0
7, 17796, Note_on_c, 5, 71, 0
7, 17796, Note_on_c, 5, 67, 0
7, 17820, Note_on_c, 5, 67, 100
7, 17820, Note_on_c, 5, 72, 100
7, 17820, Note_on_c, 5, 76, 100
7, 17856, Note_on_c, 5, 76, 0
7, 17856, Note_on_c, 5, 72, 0
7, 17856, Note_on_c, 5, 67, 0
7, 17940, Note_on_c, 5, 67, 100
7, 17940, Note_on_c, 5, 72, 100
7, 17940, Note_on_c, 5, 76, 100
7, 17976, Note_on_c, 5, 76, 0
7, 17976, Note_on_c, 5, 72, 0
7, 17976, Note_on_c, 5, 67, 0
7, 18000, Note_on_c, 5, 67, 100
7, 18000, Note_on_c, 5, 74, 100
7, 18000, Note_on_c, 5, 77, 100
7, 18036, Note_on_c, 5, 77, 0
7, 18036, Note_on_c, 5, 74, 0
7, 18036, Note_on_c, 5, 67, 0
7, 18120, Note_on_c, 5, 67, 100
7, 18120, Note_on_c, 5, 73, 100
7, 18120, Note_on_c, 5, 77, 100
7, 18156, Note_on_c, 5, 77, 0
7, 18156, Note_on_c, 5, 73, 0
7, 18156, Note_on_c, 5, 67, 0
7, 37440, Note_on_c, 5, 67, 100
7, 37440, Note_on_c, 5, 74, 100
7, 37440, Note_on_c, 5, 76, 100
7, 37470, Note_on_c, 5, 67, 0
7, 37472, Note_on_c, 5, 76, 0
7, 37472, Note_on_c, 5, 74, 0
7, 37560, Note_on_c, 5, 67, 100
7, 37560, Note_on_c, 5, 74, 100
7, 37560, Note_on_c, 5, 76, 100
7, 37590, Note_on_c, 5, 67, 0
7, 37592, Note_on_c, 5, 76, 0
7, 37592, Note_on_c, 5, 74, 0
7, 37620, Note_on_c, 5, 67, 100
7, 37620, Note_on_c, 5, 72, 100
7, 37620, Note_on_c, 5, 77, 100
7, 37650, Note_on_c, 5, 67, 0
7, 37652, Note_on_c, 5, 77, 0
7, 37652, Note_on_c, 5, 72, 0
7, 37740, Note_on_c, 5, 67, 100
7, 37740, Note_on_c, 5, 72, 100
7, 37740, Note_on_c, 5, 77, 100
7, 37770, Note_on_c, 5, 67, 0
7, 37772, Note_on_c, 5, 77, 0
7, 37772, Note_on_c, 5, 72, 0
7, 37800, Note_on_c, 5, 67, 100
7, 37800, Note_on_c, 5, 71, 100
7, 37800, Note_on_c, 5, 74, 100
7, 37830, Note_on_c, 5, 67, 0
7, 37832, Note_on_c, 5, 74, 0
7, 37832, Note_on_c, 5, 71, 0
7, 37920, Note_on_c, 5, 67, 100
7, 37920, Note_on_c, 5, 71, 100
7, 37920, Note_on_c, 5, 74, 100
7, 37950, Note_on_c, 5, 67, 0
7, 37952, Note_on_c, 5, 74, 0
7, 37952, Note_on_c, 5, 71, 0
7, 37980, Note_on_c, 5, 67, 100
7, 37980, Note_on_c, 5, 72, 100
7, 37980, Note_on_c, 5, 76, 100
7, 38010, Note_on_c, 5, 67, 0
7, 38012, Note_on_c, 5, 76, 0
7, 38012, Note_on_c, 5, 72, 0
7, 38100, Note_on_c, 5, 67, 100
7, 38100, Note_on_c, 5, 72, 100
7, 38100, Note_on_c, 5, 76, 100
7, 38130, Note_on_c, 5, 67, 0
7, 38132, Note_on_c, 5, 76, 0
7, 38132, Note_on_c, 5, 72, 0
7, 38160, Note_on_c, 5, 67, 100
7, 38160, Note_on_c, 5, 72, 100
7, 38160, Note_on_c, 5, 76, 100
7, 38190, Note_on_c, 5, 67, 0
7, 38192, Note_on_c, 5, 76, 0
7, 38192, Note_on_c, 5, 72, 0
7, 38280, Note_on_c, 5, 67, 100
7, 38280, Note_on_c, 5, 71, 100
7, 38280, Note_on_c, 5, 74, 100
7, 38310, Note_on_c, 5, 67, 0
7, 38312, Note_on_c, 5, 74, 0
7, 38312, Note_on_c, 5, 71, 0
7, 38400, Note_on_c, 5, 67, 100
7, 38400, Note_on_c, 5, 74, 100
7, 38400, Note_on_c, 5, 76, 100
7, 38430, Note_on_c, 5, 67, 0
7, 38432, Note_on_c, 5, 76, 0
7, 38432, Note_on_c, 5, 74, 0
7, 38520, Note_on_c, 5, 67, 100
7, 38520, Note_on_c, 5, 74, 100
7, 38520, Note_on_c, 5, 76, 100
7, 38550, Note_on_c, 5, 67, 0
7, 38552, Note_on_c, 5, 76, 0
7, 38552, Note_on_c, 5, 74, 0
7, 38580, Note_on_c, 5, 72, 100
7, 38580, Note_on_c, 5, 77, 100
7, 38580, Note_on_c, 5, 67, 100
7, 38610, Note_on_c, 5, 67, 0
7, 38612, Note_on_c, 5, 77, 0
7, 38612, Note_on_c, 5, 72, 0
7, 38700, Note_on_c, 5, 67, 100
7, 38700, Note_on_c, 5, 67, 100
7, 38700, Note_on_c, 5, 72, 100
7, 38700, Note_on_c, 5, 77, 100
7, 38730, Note_on_c, 5, 67, 0
7, 38730, Note_on_c, 5, 67, 0
7, 38732, Note_on_c, 5, 72, 0
7, 38732, Note_on_c, 5, 77, 0
7, 38760, Note_on_c, 5, 67, 100
7, 38760, Note_on_c, 5, 71, 100
7, 38760, Note_on_c, 5, 74, 100
7, 38790, Note_on_c, 5, 67, 0
7, 38792, Note_on_c, 5, 74, 0
7, 38792, Note_on_c, 5, 71, 0
7, 38880, Note_on_c, 5, 67, 100
7, 38880, Note_on_c, 5, 71, 100
7, 38880, Note_on_c, 5, 74, 100
7, 38910, Note_on_c, 5, 67, 0
7, 38912, Note_on_c, 5, 74, 0
7, 38912, Note_on_c, 5, 71, 0
7, 38940, Note_on_c, 5, 67, 100
7, 38940, Note_on_c, 5, 72, 100
7, 38940, Note_on_c, 5, 76, 100
7, 38970, Note_on_c, 5, 67, 0
7, 38972, Note_on_c, 5, 76, 0
7, 38972, Note_on_c, 5, 72, 0
7, 39000, Note_on_c, 5, 67, 100
7, 39030, Note_on_c, 5, 67, 0
7, 39060, Note_on_c, 5, 67, 100
7, 39060, Note_on_c, 5, 74, 100
7, 39060, Note_on_c, 5, 77, 100
7, 39090, Note_on_c, 5, 67, 0
7, 39092, Note_on_c, 5, 77, 0
7, 39092, Note_on_c, 5, 74, 0
7, 39120, Note_on_c, 5, 67, 100
7, 39120, Note_on_c, 5, 72, 100
7, 39120, Note_on_c, 5, 76, 100
7, 39228, Note_on_c, 5, 76, 0
7, 39228, Note_on_c, 5, 72, 0
7, 39228, Note_on_c, 5, 67, 0
7, 39360, Note_on_c, 5, 67, 100
7, 39360, Note_on_c, 5, 72, 100
7, 39360, Note_on_c, 5, 76, 100
7, 39390, Note_on_c, 5, 72, 0
7, 39390, Note_on_c, 5, 67, 0
7, 39396, Note_on_c, 5, 76, 0
7, 39480, Note_on_c, 5, 67, 100
7, 39480, Note_on_c, 5, 72, 100
7, 39480, Note_on_c, 5, 76, 100
7, 39516, Note_on_c, 5, 76, 0
7, 39516, Note_on_c, 5, 72, 0
7, 39516, Note_on_c, 5, 67, 0
7, 39540, Note_on_c, 5, 67, 100
7, 39540, Note_on_c, 5, 74, 100
7, 39570, Note_on_c, 5, 74, 0
7, 39570, Note_on_c, 5, 67, 0
7, 39660, Note_on_c, 5, 76, 100
7, 39660, Note_on_c, 5, 74, 100
7, 39660, Note_on_c, 5, 67, 100
7, 39696, Note_on_c, 5, 67, 0
7, 39696, Note_on_c, 5, 74, 0
7, 39696, Note_on_c, 5, 76, 0
7, 39720, Note_on_c, 5, 67, 100
7, 39720, Note_on_c, 5, 71, 100
7, 39720, Note_on_c, 5, 76, 100
7, 39750, Note_on_c, 5, 71, 0
7, 39750, Note_on_c, 5, 67, 0
7, 39756, Note_on_c, 5, 76, 0
7, 39840, Note_on_c, 5, 67, 100
7, 39840, Note_on_c, 5, 71, 100
7, 39840, Note_on_c, 5, 76, 100
7, 39876, Note_on_c, 5, 76, 0
7, 39876, Note_on_c, 5, 71, 0
7, 39876, Note_on_c, 5, 67, 0
7, 39900, Note_on_c, 5, 67, 100
7, 39900, Note_on_c, 5, 72, 100
7, 39900, Note_on_c, 5, 76, 100
7, 39930, Note_on_c, 5, 72, 0
7, 39930, Note_on_c, 5, 67, 0
7, 39936, Note_on_c, 5, 76, 0
7, 40020, Note_on_c, 5, 74, 100
7, 40020, Note_on_c, 5, 76, 100
7, 40020, Note_on_c, 5, 67, 100
7, 40056, Note_on_c, 5, 67, 0
7, 40056, Note_on_c, 5, 76, 0
7, 40056, Note_on_c, 5, 74, 0
7, 40080, Note_on_c, 5, 67, 100
7, 40080, Note_on_c, 5, 72, 100
7, 40080, Note_on_c, 5, 76, 100
7, 40110, Note_on_c, 5, 72, 0
7, 40110, Note_on_c, 5, 67, 0
7, 40116, Note_on_c, 5, 76, 0
7, 40200, Note_on_c, 5, 67, 100
7, 40200, Note_on_c, 5, 71, 100
7, 40200, Note_on_c, 5, 76, 100
7, 40230, Note_on_c, 5, 71, 0
7, 40230, Note_on_c, 5, 67, 0
7, 40236, Note_on_c, 5, 76, 0
7, 40320, Note_on_c, 5, 69, 100
7, 40320, Note_on_c, 5, 72, 100
7, 40320, Note_on_c, 5, 77, 100
7, 40350, Note_on_c, 5, 72, 0
7, 40350, Note_on_c, 5, 69, 0
7, 40356, Note_on_c, 5, 77, 0
7, 40440, Note_on_c, 5, 69, 100
7, 40440, Note_on_c, 5, 72, 100
7, 40440, Note_on_c, 5, 77, 100
7, 40476, Note_on_c, 5, 77, 0
7, 40476, Note_on_c, 5, 72, 0
7, 40476, Note_on_c, 5, 69, 0
7, 40500, Note_on_c, 5, 67, 100
7, 40500, Note_on_c, 5, 71, 100
7, 40500, Note_on_c, 5, 77, 100
7, 40530, Note_on_c, 5, 71, 0
7, 40530, Note_on_c, 5, 67, 0
7, 40536, Note_on_c, 5, 77, 0
7, 40620, Note_on_c, 5, 71, 100
7, 40620, Note_on_c, 5, 67, 100
7, 40620, Note_on_c, 5, 77, 100
7, 40656, Note_on_c, 5, 77, 0
7, 40656, Note_on_c, 5, 67, 0
7, 40656, Note_on_c, 5, 71, 0
7, 40680, Note_on_c, 5, 65, 100
7, 40680, Note_on_c, 5, 69, 100
7, 40680, Note_on_c, 5, 77, 100
7, 40710, Note_on_c, 5, 69, 0
7, 40710, Note_on_c, 5, 65, 0
7, 40716, Note_on_c, 5, 77, 0
7, 40800, Note_on_c, 5, 65, 100
7, 40800, Note_on_c, 5, 69, 100
7, 40800, Note_on_c, 5, 77, 100
7, 40836, Note_on_c, 5, 77, 0
7, 40836, Note_on_c, 5, 69, 0
7, 40836, Note_on_c, 5, 65, 0
7, 40860, Note_on_c, 5, 67, 100
7, 40860, Note_on_c, 5, 71, 100
7, 40860, Note_on_c, 5, 77, 100
7, 40890, Note_on_c, 5, 71, 0
7, 40890, Note_on_c, 5, 67, 0
7, 40896, Note_on_c, 5, 77, 0
7, 40980, Note_on_c, 5, 67, 100
7, 40980, Note_on_c, 5, 71, 100
7, 40980, Note_on_c, 5, 77, 100
7, 41016, Note_on_c, 5, 77, 0
7, 41016, Note_on_c, 5, 71, 0
7, 41016, Note_on_c, 5, 67, 0
7, 41040, Note_on_c, 5, 67, 100
7, 41040, Note_on_c, 5, 72, 100
7, 41040, Note_on_c, 5, 77, 100
7, 41148, Note_on_c, 5, 77, 0
7, 41148, Note_on_c, 5, 72, 0
7, 41148, Note_on_c, 5, 67, 0
7, 41280, Note_on_c, 5, 71, 100
7, 41280, Note_on_c, 5, 76, 100
7, 41280, Note_on_c, 5, 79, 100
7, 41316, Note_on_c, 5, 79, 0
7, 41316, Note_on_c, 5, 76, 0
7, 41316, Note_on_c, 5, 71, 0
7, 41400, Note_on_c, 5, 71, 100
7, 41400, Note_on_c, 5, 76, 100
7, 41400, Note_on_c, 5, 79, 100
7, 41436, Note_on_c, 5, 79, 0
7, 41436, Note_on_c, 5, 76, 0
7, 41436, Note_on_c, 5, 71, 0
7, 41460, Note_on_c, 5, 71, 100
7, 41460, Note_on_c, 5, 76, 100
7, 41460, Note_on_c, 5, 81, 100
7, 41496, Note_on_c, 5, 81, 0
7, 41496, Note_on_c, 5, 76, 0
7, 41496, Note_on_c, 5, 71, 0
7, 41580, Note_on_c, 5, 71, 100
7, 41580, Note_on_c, 5, 76, 100
7, 41580, Note_on_c, 5, 81, 100
7, 41616, Note_on_c, 5, 81, 0
7, 41616, Note_on_c, 5, 76, 0
7, 41616, Note_on_c, 5, 71, 0
7, 41640, Note_on_c, 5, 71, 100
7, 41640, Note_on_c, 5, 76, 100
7, 41640, Note_on_c, 5, 79, 100
7, 41676, Note_on_c, 5, 79, 0
7, 41676, Note_on_c, 5, 76, 0
7, 41676, Note_on_c, 5, 71, 0
7, 41760, Note_on_c, 5, 71, 100
7, 41760, Note_on_c, 5, 76, 100
7, 41760, Note_on_c, 5, 79, 100
7, 41796, Note_on_c, 5, 79, 0
7, 41796, Note_on_c, 5, 76, 0
7, 41796, Note_on_c, 5, 71, 0
7, 41820, Note_on_c, 5, 71, 100
7, 41820, Note_on_c, 5, 76, 100
7, 41820, Note_on_c, 5, 81, 100
7, 41856, Note_on_c, 5, 81, 0
7, 41856, Note_on_c, 5, 76, 0
7, 41856, Note_on_c, 5, 71, 0
7, 41940, Note_on_c, 5, 71, 100
7, 41940, Note_on_c, 5, 76, 100
7, 41940, Note_on_c, 5, 81, 100
7, 41976, Note_on_c, 5, 81, 0
7, 41976, Note_on_c, 5, 76, 0
7, 41976, Note_on_c, 5, 71, 0
7, 42000, Note_on_c, 5, 71, 100
7, 42000, Note_on_c, 5, 76, 100
7, 42000, Note_on_c, 5, 79, 100
7, 42036, Note_on_c, 5, 79, 0
7, 42036, Note_on_c, 5, 76, 0
7, 42036, Note_on_c, 5, 71, 0
7, 42120, Note_on_c, 5, 73, 100
7, 42120, Note_on_c, 5, 76, 100
7, 42120, Note_on_c, 5, 79, 100
7, 42156, Note_on_c, 5, 79, 0
7, 42156, Note_on_c, 5, 76, 0
7, 42156, Note_on_c, 5, 73, 0
7, 42240, Note_on_c, 5, 69, 100
7, 42240, Note_on_c, 5, 74, 100
7, 42240, Note_on_c, 5, 77, 100
7, 42276, Note_on_c, 5, 77, 0
7, 42276, Note_on_c, 5, 74, 0
7, 42276, Note_on_c, 5, 69, 0
7, 42360, Note_on_c, 5, 69, 100
7, 42360, Note_on_c, 5, 74, 100
7, 42360, Note_on_c, 5, 77, 100
7, 42396, Note_on_c, 5, 77, 0
7, 42396, Note_on_c, 5, 74, 0
7, 42396, Note_on_c, 5, 69, 0
7, 42420, Note_on_c, 5, 69, 100
7, 42420, Note_on_c, 5, 72, 100
7, 42420, Note_on_c, 5, 76, 100
7, 42456, Note_on_c, 5, 76, 0
7, 42456, Note_on_c, 5, 72, 0
7, 42456, Note_on_c, 5, 69, 0
7, 42540, Note_on_c, 5, 76, 100
7, 42540, Note_on_c, 5, 72, 100
7, 42540, Note_on_c, 5, 69, 100
7, 42576, Note_on_c, 5, 69, 0
7, 42576, Note_on_c, 5, 72, 0
7, 42576, Note_on_c, 5, 76, 0
7, 42600, Note_on_c, 5, 69, 100
7, 42600, Note_on_c, 5, 71, 100
7, 42600, Note_on_c, 5, 74, 100
7, 42636, Note_on_c, 5, 74, 0
7, 42636, Note_on_c, 5, 71, 0
7, 42636, Note_on_c, 5, 69, 0
7, 42720, Note_on_c, 5, 69, 100
7, 42720, Note_on_c, 5, 71, 100
7, 42720, Note_on_c, 5, 74, 100
7, 42756, Note_on_c, 5, 74, 0
7, 42756, Note_on_c, 5, 71, 0
7, 42756, Note_on_c, 5, 69, 0
7, 42780, Note_on_c, 5, 69, 100
7, 42780, Note_on_c, 5, 72, 100
7, 42780, Note_on_c, 5, 76, 100
7, 42816, Note_on_c, 5, 76, 0
7, 42816, Note_on_c, 5, 72, 0
7, 42816, Note_on_c, 5, 69, 0
7, 42900, Note_on_c, 5, 69, 100
7, 42900, Note_on_c, 5, 72, 100
7, 42900, Note_on_c, 5, 76, 100
7, 42936, Note_on_c, 5, 76, 0
7, 42936, Note_on_c, 5, 72, 0
7, 42936, Note_on_c, 5, 69, 0
7, 42960, Note_on_c, 5, 69, 100
7, 42960, Note_on_c, 5, 74, 100
7, 42960, Note_on_c, 5, 77, 100
7, 42996, Note_on_c, 5, 77, 0
7, 42996, Note_on_c, 5, 74, 0
7, 42996, Note_on_c, 5, 69, 0
7, 43080, Note_on_c, 5, 69, 100
7, 43080, Note_on_c, 5, 76, 100
7, 43080, Note_on_c, 5, 79, 100
7, 43116, Note_on_c, 5, 79, 0
7, 43116, Note_on_c, 5, 76, 0
7, 43116, Note_on_c, 5, 69, 0
7, 43200, Note_on_c, 5, 74, 100
7, 43200, Note_on_c, 5, 69, 100
7, 43200, Note_on_c, 5, 77, 100
7, 43236, Note_on_c, 5, 77, 0
7, 43236, Note_on_c, 5, 69, 0
7, 43236, Note_on_c, 5, 74, 0
7, 43320, Note_on_c, 5, 69, 100
7, 43320, Note_on_c, 5, 74, 100
7, 43320, Note_on_c, 5, 77, 100
7, 43356, Note_on_c, 5, 77, 0
7, 43356, Note_on_c, 5, 74, 0
7, 43356, Note_on_c, 5, 69, 0
7, 43380, Note_on_c, 5, 72, 100
7, 43380, Note_on_c, 5, 69, 100
7, 43380, Note_on_c, 5, 76, 100
7, 43416, Note_on_c, 5, 76, 0
7, 43416, Note_on_c, 5, 69, 0
7, 43416, Note_on_c, 5, 72, 0
7, 43500, Note_on_c, 5, 69, 100
7, 43500, Note_on_c, 5, 72, 100
7, 43500, Note_on_c, 5, 76, 100
7, 43536, Note_on_c, 5, 76, 0
7, 43536, Note_on_c, 5, 72, 0
7, 43536, Note_on_c, 5, 69, 0
7, 43560, Note_on_c, 5, 71, 100
7, 43560, Note_on_c, 5, 69, 100
7, 43560, Note_on_c, 5, 74, 100
7, 43596, Note_on_c, 5, 74, 0
7, 43596, Note_on_c, 5, 69, 0
7, 43596, Note_on_c, 5, 71, 0
7, 43680, Note_on_c, 5, 71, 100
7, 43680, Note_on_c, 5, 74, 100
7, 43680, Note_on_c, 5, 69, 100
7, 43716, Note_on_c, 5, 69, 0
7, 43716, Note_on_c, 5, 74, 0
7, 43716, Note_on_c, 5, 71, 0
7, 43740, Note_on_c, 5, 72, 100
7, 43740, Note_on_c, 5, 69, 100
7, 43740, Note_on_c, 5, 76, 100
7, 43776, Note_on_c, 5, 76, 0
7, 43776, Note_on_c, 5, 69, 0
7, 43776, Note_on_c, 5, 72, 0
7, 43860, Note_on_c, 5, 69, 100
7, 43860, Note_on_c, 5, 72, 100
7, 43860, Note_on_c, 5, 76, 100
7, 43896, Note_on_c, 5, 76, 0
7, 43896, Note_on_c, 5, 72, 0
7, 43896, Note_on_c, 5, 69, 0
7, 43920, Note_on_c, 5, 74, 100
7, 43920, Note_on_c, 5, 69, 100
7, 43920, Note_on_c, 5, 77, 100
7, 43956, Note_on_c, 5, 77, 0
7, 43956, Note_on_c, 5, 69, 0
7, 43956, Note_on_c, 5, 74, 0
7, 44040, Note_on_c, 5, 76, 100
7, 44040, Note_on_c, 5, 69, 100
7, 44040, Note_on_c, 5, 79, 100
7, 44076, Note_on_c, 5, 79, 0
7, 44076, Note_on_c, 5, 69, 0
7, 44076, Note_on_c, 5, 76, 0
7, 44160, Note_on_c, 5, 67, 100
7, 44160, Note_on_c, 5, 74, 100
7, 44160, Note_on_c, 5, 77, 100
7, 44196, Note_on_c, 5, 77, 0
7, 44196, Note_on_c, 5, 74, 0
7, 44196, Note_on_c, 5, 67, 0
7, 44280, Note_on_c, 5, 67, 100
7, 44280, Note_on_c, 5, 74, 100
7, 44280, Note_on_c, 5, 77, 100
7, 44316, Note_on_c, 5, 77, 0
7, 44316, Note_on_c, 5, 74, 0
7, 44316, Note_on_c, 5, 67, 0
7, 44340, Note_on_c, 5, 67, 100
7, 44340, Note_on_c, 5, 72, 100
7, 44340, Note_on_c, 5, 76, 100
7, 44376, Note_on_c, 5, 76, 0
7, 44376, Note_on_c, 5, 72, 0
7, 44376, Note_on_c, 5, 67, 0
7, 44460, Note_on_c, 5, 67, 100
7, 44460, Note_on_c, 5, 72, 100
7, 44460, Note_on_c, 5, 76, 100
7, 44496, Note_on_c, 5, 76, 0
7, 44496, Note_on_c, 5, 72, 0
7, 44496, Note_on_c, 5, 67, 0
7, 44520, Note_on_c, 5, 67, 100
7, 44520, Note_on_c, 5, 71, 100
7, 44520, Note_on_c, 5, 74, 100
7, 44556, Note_on_c, 5, 74, 0
7, 44556, Note_on_c, 5, 71, 0
7, 44556, Note_on_c, 5, 67, 0
7, 44640, Note_on_c, 5, 67, 100
7, 44640, Note_on_c, 5, 71, 100
7, 44640, Note_on_c, 5, 74, 100
7, 44676, Note_on_c, 5, 74, 0
7, 44676, Note_on_c, 5, 71, 0
7, 44676, Note_on_c, 5, 67, 0
7, 44700, Note_on_c, 5, 67, 100
7, 44700, Note_on_c, 5, 72, 100
7, 44700, Note_on_c, 5, 76, 100
7, 44736, Note_on_c, 5, 76, 0
7, 44736, Note_on_c, 5, 72, 0
7, 44736, Note_on_c, 5, 67, 0
7, 44820, Note_on_c, 5, 67, 100
7, 44820, Note_on_c, 5, 72, 100
7, 44820, Note_on_c, 5, 76, 100
7, 44856, Note_on_c, 5, 76, 0
7, 44856, Note_on_c, 5, 72, 0
7, 44856, Note_on_c, 5, 67, 0
7, 44880, Note_on_c, 5, 67, 100
7, 44880, Note_on_c, 5, 74, 100
7, 44880, Note_on_c, 5, 77, 100
7, 44916, Note_on_c, 5, 77, 0
7, 44916, Note_on_c, 5, 74, 0
7, 44916, Note_on_c, 5, 67, 0
7, 45000, Note_on_c, 5, 67, 100
7, 45000, Note_on_c, 5, 73, 100
7, 45000, Note_on_c, 5, 77, 100
7, 45036, Note_on_c, 5, 77, 0
7, 45036, Note_on_c, 5, 73, 0
7, 45036, Note_on_c, 5, 67, 0
7, 45036, End_track
8, 0, Start_track
8, 0, Title_t, "A7-Trumpet     "
8, 140, Control_c, 6, 91, 60
8, 141, Control_c, 6, 93, 0
8, 150, Control_c, 6, 0, 0
8, 151, Control_c, 6, 32, 3
8, 152, Program_c, 6, 56
8, 153, Control_c, 6, 7, 110
8, 153, Control_c, 6, 10, 64
8, 10440, Note_on_c, 6, 67, 102
8, 10560, Note_on_c, 6, 67, 0
8, 10560, Note_on_c, 6, 72, 110
8, 10584, Note_on_c, 6, 72, 0
8, 10600, Note_on_c, 6, 74, 110
8, 10624, Note_on_c, 6, 74, 0
8, 10640, Note_on_c, 6, 76, 110
8, 10664, Note_on_c, 6, 76, 0
8, 10680, Note_on_c, 6, 79, 110
8, 11280, Note_on_c, 6, 79, 0
8, 11400, Note_on_c, 6, 77, 110
8, 11432, Note_on_c, 6, 77, 0
8, 11440, Note_on_c, 6, 74, 110
8, 11472, Note_on_c, 6, 74, 0
8, 11480, Note_on_c, 6, 71, 110
8, 11512, Note_on_c, 6, 71, 0
8, 11520, Note_on_c, 6, 72, 110
8, 11750, Note_on_c, 6, 72, 0
8, 11760, Note_on_c, 6, 67, 110
8, 12240, Note_on_c, 6, 67, 0
8, 12360, Note_on_c, 6, 67, 110
8, 12480, Note_on_c, 6, 67, 0
8, 12480, Note_on_c, 6, 72, 110
8, 12504, Note_on_c, 6, 72, 0
8, 12520, Note_on_c, 6, 74, 110
8, 12544, Note_on_c, 6, 74, 0
8, 12560, Note_on_c, 6, 76, 110
8, 12584, Note_on_c, 6, 76, 0
8, 12600, Note_on_c, 6, 79, 110
8, 13200, Note_on_c, 6, 79, 0
8, 13320, Note_on_c, 6, 79, 110
8, 13352, Note_on_c, 6, 79, 0
8, 13360, Note_on_c, 6, 77, 110
8, 13392, Note_on_c, 6, 77, 0
8, 13400, Note_on_c, 6, 76, 110
8, 13432, Note_on_c, 6, 76, 0
8, 13440, Note_on_c, 6, 76, 110
8, 13670, Note_on_c, 6, 76, 0
8, 13680, Note_on_c, 6, 74, 110
8, 14160, Note_on_c, 6, 74, 0
8, 14280, Note_on_c, 6, 67, 110
8, 14400, Note_on_c, 6, 67, 0
8, 14400, Note_on_c, 6, 71, 110
8, 14424, Note_on_c, 6, 71, 0
8, 14440, Note_on_c, 6, 76, 110
8, 14464, Note_on_c, 6, 76, 0
8, 14480, Note_on_c, 6, 79, 110
8, 14504, Note_on_c, 6, 79, 0
8, 14520, Note_on_c, 6, 83, 110
8, 15120, Note_on_c, 6, 83, 0
8, 15240, Note_on_c, 6, 83, 110
8, 15272, Note_on_c, 6, 83, 0
8, 15280, Note_on_c, 6, 79, 110
8, 15312, Note_on_c, 6, 79, 0
8, 15320, Note_on_c, 6, 76, 110
8, 15352, Note_on_c, 6, 76, 0
8, 15360, Note_on_c, 6, 76, 110
8, 15590, Note_on_c, 6, 76, 0
8, 15600, Note_on_c, 6, 74, 110
8, 16080, Note_on_c, 6, 74, 0
8, 16200, Note_on_c, 6, 69, 110
8, 16320, Note_on_c, 6, 69, 0
8, 16320, Note_on_c, 6, 76, 110
8, 16344, Note_on_c, 6, 76, 0
8, 16360, Note_on_c, 6, 74, 110
8, 16384, Note_on_c, 6, 74, 0
8, 16400, Note_on_c, 6, 76, 110
8, 16424, Note_on_c, 6, 76, 0
8, 16440, Note_on_c, 6, 77, 110
8, 17040, Note_on_c, 6, 77, 0
8, 17160, Note_on_c, 6, 76, 110
8, 17184, Note_on_c, 6, 76, 0
8, 17200, Note_on_c, 6, 79, 110
8, 17224, Note_on_c, 6, 79, 0
8, 17240, Note_on_c, 6, 76, 110
8, 17264, Note_on_c, 6, 76, 0
8, 17280, Note_on_c, 6, 76, 110
8, 17453, Note_on_c, 6, 76, 0
8, 17460, Note_on_c, 6, 74, 110
8, 18240, Note_on_c, 6, 74, 0
8, 37320, Note_on_c, 6, 67, 100
8, 37440, Note_on_c, 6, 67, 0
8, 37440, Note_on_c, 6, 72, 110
8, 37464, Note_on_c, 6, 72, 0
8, 37480, Note_on_c, 6, 74, 110
8, 37504, Note_on_c, 6, 74, 0
8, 37520, Note_on_c, 6, 76, 110
8, 37544, Note_on_c, 6, 76, 0
8, 37560, Note_on_c, 6, 79, 110
8, 38160, Note_on_c, 6, 79, 0
8, 38280, Note_on_c, 6, 77, 110
8, 38312, Note_on_c, 6, 77, 0
8, 38320, Note_on_c, 6, 74, 110
8, 38352, Note_on_c, 6, 74, 0
8, 38360, Note_on_c, 6, 71, 110
8, 38392, Note_on_c, 6, 71, 0
8, 38400, Note_on_c, 6, 72, 110
8, 38630, Note_on_c, 6, 72, 0
8, 38640, Note_on_c, 6, 67, 110
8, 39120, Note_on_c, 6, 67, 0
8, 39240, Note_on_c, 6, 67, 110
8, 39360, Note_on_c, 6, 67, 0
8, 39360, Note_on_c, 6, 72, 110
8, 39384, Note_on_c, 6, 72, 0
8, 39400, Note_on_c, 6, 74, 110
8, 39424, Note_on_c, 6, 74, 0
8, 39440, Note_on_c, 6, 76, 110
8, 39464, Note_on_c, 6, 76, 0
8, 39480, Note_on_c, 6, 79, 110
8, 40080, Note_on_c, 6, 79, 0
8, 40200, Note_on_c, 6, 79, 110
8, 40232, Note_on_c, 6, 79, 0
8, 40240, Note_on_c, 6, 77, 110
8, 40272, Note_on_c, 6, 77, 0
8, 40280, Note_on_c, 6, 76, 110
8, 40312, Note_on_c, 6, 76, 0
8, 40320, Note_on_c, 6, 76, 110
8, 40550, Note_on_c, 6, 76, 0
8, 40560, Note_on_c, 6, 74, 110
8, 41040, Note_on_c, 6, 74, 0
8, 41160, Note_on_c, 6, 67, 110
8, 41280, Note_on_c, 6, 67, 0
8, 41280, Note_on_c, 6, 71, 110
8, 41304, Note_on_c, 6, 71, 0
8, 41320, Note_on_c, 6, 76, 110
8, 41344, Note_on_c, 6, 76, 0
8, 41360, Note_on_c, 6, 79, 110
8, 41384, Note_on_c, 6, 79, 0
8, 41400, Note_on_c, 6, 83, 110
8, 42000, Note_on_c, 6, 83, 0
8, 42120, Note_on_c, 6, 83, 110
8, 42152, Note_on_c, 6, 83, 0
8, 42160, Note_on_c, 6, 79, 110
8, 42192, Note_on_c, 6, 79, 0
8, 42200, Note_on_c, 6, 76, 110
8, 42232, Note_on_c, 6, 76, 0
8, 42240, Note_on_c, 6, 76, 110
8, 42470, Note_on_c, 6, 76, 0
8, 42480, Note_on_c, 6, 74, 110
8, 42960, Note_on_c, 6, 74, 0
8, 43080, Note_on_c, 6, 69, 110
8, 43200, Note_on_c, 6, 69, 0
8, 43200, Note_on_c, 6, 76, 110
8, 43224, Note_on_c, 6, 76, 0
8, 43240, Note_on_c, 6, 74, 110
8, 43264, Note_on_c, 6, 74, 0
8, 43280, Note_on_c, 6, 76, 110
8, 43304, Note_on_c, 6, 76, 0
8, 43320, Note_on_c, 6, 77, 110
8, 43920, Note_on_c, 6, 77, 0
8, 44040, Note_on_c, 6, 76, 110
8, 44064, Note_on_c, 6, 76, 0
8, 44080, Note_on_c, 6, 79, 110
8, 44104, Note_on_c, 6, 79, 0
8, 44120, Note_on_c, 6, 76, 110
8, 44144, Note_on_c, 6, 76, 0
8, 44160, Note_on_c, 6, 76, 110
8, 44333, Note_on_c, 6, 76, 0
8, 44340, Note_on_c, 6, 74, 110
8, 45120, Note_on_c, 6, 74, 0
8, 45120, End_track
9, 0, Start_track
9, 0, Title_t, "A8-French Horns"
9, 149, Control_c, 7, 91, 50
9, 150, Control_c, 7, 93, 10
9, 155, Control_c, 7, 0, 0
9, 156, Control_c, 7, 32, 3
9, 157, Program_c, 7, 60
9, 158, Control_c, 7, 7, 110
9, 158, Control_c, 7, 10, 84
9, 10440, Note_on_c, 7, 55, 100
9, 10560, Note_on_c, 7, 55, 0
9, 10560, Note_on_c, 7, 60, 105
9, 10584, Note_on_c, 7, 60, 0
9, 10600, Note_on_c, 7, 62, 105
9, 10624, Note_on_c, 7, 62, 0
9, 10640, Note_on_c, 7, 64, 105
9, 10664, Note_on_c, 7, 64, 0
9, 10680, Note_on_c, 7, 67, 105
9, 11280, Note_on_c, 7, 67, 0
9, 11400, Note_on_c, 7, 65, 105
9, 11432, Note_on_c, 7, 65, 0
9, 11440, Note_on_c, 7, 62, 105
9, 11472, Note_on_c, 7, 62, 0
9, 11480, Note_on_c, 7, 59, 105
9, 11512, Note_on_c, 7, 59, 0
9, 11520, Note_on_c, 7, 60, 105
9, 11750, Note_on_c, 7, 60, 0
9, 11760, Note_on_c, 7, 55, 105
9, 12240, Note_on_c, 7, 55, 0
9, 12360, Note_on_c, 7, 55, 105
9, 12480, Note_on_c, 7, 55, 0
9, 12480, Note_on_c, 7, 60, 105
9, 12504, Note_on_c, 7, 60, 0
9, 12520, Note_on_c, 7, 62, 105
9, 12544, Note_on_c, 7, 62, 0
9, 12560, Note_on_c, 7, 64, 105
9, 12584, Note_on_c, 7, 64, 0
9, 12600, Note_on_c, 7, 67, 105
9, 13200, Note_on_c, 7, 67, 0
9, 13320, Note_on_c, 7, 67, 105
9, 13352, Note_on_c, 7, 67, 0
9, 13360, Note_on_c, 7, 65, 105
9, 13392, Note_on_c, 7, 65, 0
9, 13400, Note_on_c, 7, 64, 105
9, 13432, Note_on_c, 7, 64, 0
9, 13440, Note_on_c, 7, 64, 105
9, 13670, Note_on_c, 7, 64, 0
9, 13680, Note_on_c, 7, 62, 105
9, 14160, Note_on_c, 7, 62, 0
9, 14280, Note_on_c, 7, 55, 105
9, 14400, Note_on_c, 7, 55, 0
9, 14400, Note_on_c, 7, 59, 105
9, 14424, Note_on_c, 7, 59, 0
9, 14440, Note_on_c, 7, 64, 105
9, 14464, Note_on_c, 7, 64, 0
9, 14480, Note_on_c, 7, 67, 105
9, 14504, Note_on_c, 7, 67, 0
9, 14520, Note_on_c, 7, 71, 105
9, 15120, Note_on_c, 7, 71, 0
9, 15240, Note_on_c, 7, 71, 105
9, 15272, Note_on_c, 7, 71, 0
9, 15280, Note_on_c, 7, 67, 105
9, 15312, Note_on_c, 7, 67, 0
9, 15320, Note_on_c, 7, 64, 105
9, 15352, Note_on_c, 7, 64, 0
9, 15360, Note_on_c, 7, 64, 105
9, 15590, Note_on_c, 7, 64, 0
9, 15600, Note_on_c, 7, 62, 105
9, 16080, Note_on_c, 7, 62, 0
9, 16200, Note_on_c, 7, 57, 105
9, 16320, Note_on_c, 7, 57, 0
9, 16320, Note_on_c, 7, 64, 105
9, 16344, Note_on_c, 7, 64, 0
9, 16360, Note_on_c, 7, 62, 105
9, 16384, Note_on_c, 7, 62, 0
9, 16400, Note_on_c, 7, 64, 105
9, 16424, Note_on_c, 7, 64, 0
9, 16440, Note_on_c, 7, 65, 105
9, 17040, Note_on_c, 7, 65, 0
9, 17160, Note_on_c, 7, 64, 105
9, 17184, Note_on_c, 7, 64, 0
9, 17200, Note_on_c, 7, 67, 105
9, 17224, Note_on_c, 7, 67, 0
9, 17240, Note_on_c, 7, 64, 105
9, 17264, Note_on_c, 7, 64, 0
9, 17280, Note_on_c, 7, 64, 105
9, 17453, Note_on_c, 7, 64, 0
9, 17460, Note_on_c, 7, 62, 105
9, 18240, Note_on_c, 7, 62, 0
9, 37320, Note_on_c, 7, 55, 100
9, 37440, Note_on_c, 7, 55, 0
9, 37440, Note_on_c, 7, 60, 105
9, 37464, Note_on_c, 7, 60, 0
9, 37480, Note_on_c, 7, 62, 105
9, 37504, Note_on_c, 7, 62, 0
9, 37520, Note_on_c, 7, 64, 105
9, 37544, Note_on_c, 7, 64, 0
9, 37560, Note_on_c, 7, 67, 105
9, 38160, Note_on_c, 7, 67, 0
9, 38280, Note_on_c, 7, 65, 105
9, 38312, Note_on_c, 7, 65, 0
9, 38320, Note_on_c, 7, 62, 105
9, 38352, Note_on_c, 7, 62, 0
9, 38360, Note_on_c, 7, 59, 105
9, 38392, Note_on_c, 7, 59, 0
9, 38400, Note_on_c, 7, 60, 105
9, 38630, Note_on_c, 7, 60, 0
9, 38640, Note_on_c, 7, 55, 105
9, 39120, Note_on_c, 7, 55, 0
9, 39240, Note_on_c, 7, 55, 105
9, 39360, Note_on_c, 7, 55, 0
9, 39360, Note_on_c, 7, 60, 105
9, 39384, Note_on_c, 7, 60, 0
9, 39400, Note_on_c, 7, 62, 105
9, 39424, Note_on_c, 7, 62, 0
9, 39440, Note_on_c, 7, 64, 105
9, 39464, Note_on_c, 7, 64, 0
9, 39480, Note_on_c, 7, 67, 105
9, 40080, Note_on_c, 7, 67, 0
9, 40200, Note_on_c, 7, 67, 105
9, 40232, Note_on_c, 7, 67, 0
9, 40240, Note_on_c, 7, 65, 105
9, 40272, Note_on_c, 7, 65, 0
9, 40280, Note_on_c, 7, 64, 105
9, 40312, Note_on_c, 7, 64, 0
9, 40320, Note_on_c, 7, 64, 105
9, 40550, Note_on_c, 7, 64, 0
9, 40560, Note_on_c, 7, 62, 105
9, 41040, Note_on_c, 7, 62, 0
9, 41160, Note_on_c, 7, 55, 105
9, 41280, Note_on_c, 7, 55, 0
9, 41280, Note_on_c, 7, 59, 105
9, 41304, Note_on_c, 7, 59, 0
9, 41320, Note_on_c, 7, 64, 105
9, 41344, Note_on_c, 7, 64, 0
9, 41360, Note_on_c, 7, 67, 105
9, 41384, Note_on_c, 7, 67, 0
9, 41400, Note_on_c, 7, 71, 105
9, 42000, Note_on_c, 7, 71, 0
9, 42120, Note_on_c, 7, 71, 105
9, 42152, Note_on_c, 7, 71, 0
9, 42160, Note_on_c, 7, 67, 105
9, 42192, Note_on_c, 7, 67, 0
9, 42200, Note_on_c, 7, 64, 105
9, 42232, Note_on_c, 7, 64, 0
9, 42240, Note_on_c, 7, 64, 105
9, 42470, Note_on_c, 7, 64, 0
9, 42480, Note_on_c, 7, 62, 105
9, 42960, Note_on_c, 7, 62, 0
9, 43080, Note_on_c, 7, 57, 105
9, 43200, Note_on_c, 7, 57, 0
9, 43200, Note_on_c, 7, 64, 105
9, 43224, Note_on_c, 7, 64, 0
9, 43240, Note_on_c, 7, 62, 105
9, 43264, Note_on_c, 7, 62, 0
9, 43280, Note_on_c, 7, 64, 105
9, 43304, Note_on_c, 7, 64, 0
9, 43320, Note_on_c, 7, 65, 105
9, 43920, Note_on_c, 7, 65, 0
9, 44040, Note_on_c, 7, 64, 105
9, 44064, Note_on_c, 7, 64, 0
9, 44080, Note_on_c, 7, 67, 105
9, 44104, Note_on_c, 7, 67, 0
9, 44120, Note_on_c, 7, 64, 105
9, 44144, Note_on_c, 7, 64, 0
9, 44160, Note_on_c, 7, 64, 105
9, 44333, Note_on_c, 7, 64, 0
9, 44340, Note_on_c, 7, 62, 105
9, 45120, Note_on_c, 7, 62, 0
9, 45120, End_track
10, 0, Start_track
10, 0, Title_t, "A9-Strings     "
10, 158, Control_c, 8, 91, 70
10, 159, Control_c, 8, 93, 0
10, 160, Control_c, 8, 0, 0
10, 161, Control_c, 8, 32, 2
10, 162, Program_c, 8, 48
10, 163, Control_c, 8, 7, 100
10, 163, Control_c, 8, 10, 64
10, 18240, Note_on_c, 8, 64, 100
10, 18240, Note_on_c, 8, 76, 100
10, 18720, Note_on_c, 8, 76, 0
10, 18720, Note_on_c, 8, 64, 0
10, 18720, Note_on_c, 8, 72, 100
10, 18720, Note_on_c, 8, 84, 100
10, 18960, Note_on_c, 8, 84, 0
10, 18960, Note_on_c, 8, 72, 0
10, 18960, Note_on_c, 8, 71, 100
10, 18960, Note_on_c, 8, 83, 100
10, 19200, Note_on_c, 8, 83, 0
10, 19200, Note_on_c, 8, 71, 0
10, 19200, Note_on_c, 8, 67, 100
10, 19200, Note_on_c, 8, 79, 100
10, 20160, Note_on_c, 8, 79, 0
10, 20160, Note_on_c, 8, 67, 0
10, 20160, Note_on_c, 8, 64, 100
10, 20160, Note_on_c, 8, 76, 100
10, 20640, Note_on_c, 8, 76, 0
10, 20640, Note_on_c, 8, 64, 0
10, 20640, Note_on_c, 8, 72, 100
10, 20640, Note_on_c, 8, 84, 100
10, 20880, Note_on_c, 8, 84, 0
10, 20880, Note_on_c, 8, 72, 0
10, 20880, Note_on_c, 8, 71, 100
10, 20880, Note_on_c, 8, 83, 100
10, 21120, Note_on_c, 8, 83, 0
10, 21120, Note_on_c, 8, 71, 0
10, 21120, Note_on_c, 8, 74, 100
10, 21120, Note_on_c, 8, 86, 100
10, 22080, Note_on_c, 8, 86, 0
10, 22080, Note_on_c, 8, 74, 0
10, 22080, Note_on_c, 8, 64, 100
10, 22080, Note_on_c, 8, 76, 100
10, 22560, Note_on_c, 8, 76, 0
10, 22560, Note_on_c, 8, 64, 0
10, 22560, Note_on_c, 8, 72, 100
10, 22560, Note_on_c, 8, 84, 100
10, 22800, Note_on_c, 8, 84, 0
10, 22800, Note_on_c, 8, 72, 0
10, 22800, Note_on_c, 8, 71, 100
10, 22800, Note_on_c, 8, 83, 100
10, 23040, Note_on_c, 8, 83, 0
10, 23040, Note_on_c, 8, 71, 0
10, 23040, Note_on_c, 8, 67, 100
10, 23040, Note_on_c, 8, 79, 100
10, 24000, Note_on_c, 8, 79, 0
10, 24000, Note_on_c, 8, 67, 0
10, 24000, Note_on_c, 8, 67, 100
10, 24000, Note_on_c, 8, 79, 100
10, 24480, Note_on_c, 8, 79, 0
10, 24480, Note_on_c, 8, 67, 0
10, 24480, Note_on_c, 8, 76, 100
10, 24480, Note_on_c, 8, 88, 100
10, 24720, Note_on_c, 8, 88, 0
10, 24720, Note_on_c, 8, 76, 0
10, 24720, Note_on_c, 8, 74, 100
10, 24720, Note_on_c, 8, 86, 100
10, 24960, Note_on_c, 8, 86, 0
10, 24960, Note_on_c, 8, 74, 0
10, 24960, Note_on_c, 8, 77, 100
10, 24960, Note_on_c, 8, 89, 100
10, 25920, Note_on_c, 8, 89, 0
10, 25920, Note_on_c, 8, 77, 0
10, 25920, Note_on_c, 8, 79, 100
10, 25920, Note_on_c, 8, 91, 100
10, 26640, Note_on_c, 8, 91, 0
10, 26640, Note_on_c, 8, 79, 0
10, 26640, Note_on_c, 8, 80, 100
10, 26640, Note_on_c, 8, 92, 100
10, 26880, Note_on_c, 8, 92, 0
10, 26880, Note_on_c, 8, 80, 0
10, 26880, Note_on_c, 8, 77, 100
10, 26880, Note_on_c, 8, 89, 100
10, 27840, Note_on_c, 8, 89, 0
10, 27840, Note_on_c, 8, 77, 0
10, 27840, Note_on_c, 8, 79, 100
10, 27840, Note_on_c, 8, 91, 100
10, 28560, Note_on_c, 8, 91, 0
10, 28560, Note_on_c, 8, 79, 0
10, 28560, Note_on_c, 8, 82, 100
10, 28560, Note_on_c, 8, 94, 100
10, 28680, Note_on_c, 8, 94, 0
10, 28680, Note_on_c, 8, 82, 0
10, 28680, Note_on_c, 8, 80, 100
10, 28680, Note_on_c, 8, 92, 100
10, 28800, Note_on_c, 8, 92, 0
10, 28800, Note_on_c, 8, 80, 0
10, 28800, Note_on_c, 8, 77, 100
10, 28800, Note_on_c, 8, 89, 100
10, 29760, Note_on_c, 8, 89, 0
10, 29760, Note_on_c, 8, 77, 0
10, 45120, Note_on_c, 8, 64, 100
10, 45120, Note_on_c, 8, 76, 100
10, 45600, Note_on_c, 8, 76, 0
10, 45600, Note_on_c, 8, 64, 0
10, 45600, Note_on_c, 8, 72, 100
10, 45600, Note_on_c, 8, 84, 100
10, 45840, Note_on_c, 8, 84, 0
10, 45840, Note_on_c, 8, 72, 0
10, 45840, Note_on_c, 8, 71, 100
10, 45840, Note_on_c, 8, 83, 100
10, 46080, Note_on_c, 8, 83, 0
10, 46080, Note_on_c, 8, 71, 0
10, 46080, Note_on_c, 8, 67, 100
10, 46080, Note_on_c, 8, 79, 100
10, 47040, Note_on_c, 8, 79, 0
10, 47040, Note_on_c, 8, 67, 0
10, 47040, Note_on_c, 8, 64, 100
10, 47040, Note_on_c, 8, 76, 100
10, 47520, Note_on_c, 8, 76, 0
10, 47520, Note_on_c, 8, 64, 0
10, 47520, Note_on_c, 8, 72, 100
10, 47520, Note_on_c, 8, 84, 100
10, 47760, Note_on_c, 8, 84, 0
10, 47760, Note_on_c, 8, 72, 0
10, 47760, Note_on_c, 8, 71, 100
10, 47760, Note_on_c, 8, 83, 100
10, 48000, Note_on_c, 8, 83, 0
10, 48000, Note_on_c, 8, 71, 0
10, 48000, Note_on_c, 8, 74, 100
10, 48000, Note_on_c, 8, 86, 100
10, 48960, Note_on_c, 8, 86, 0
10, 48960, Note_on_c, 8, 74, 0
10, 48960, Note_on_c, 8, 64, 100
10, 48960, Note_on_c, 8, 76, 100
10, 49440, Note_on_c, 8, 76, 0
10, 49440, Note_on_c, 8, 64, 0
10, 49440, Note_on_c, 8, 72, 100
10, 49440, Note_on_c, 8, 84, 100
10, 49680, Note_on_c, 8, 84, 0
10, 49680, Note_on_c, 8, 72, 0
10, 49680, Note_on_c, 8, 71, 100
10, 49680, Note_on_c, 8, 83, 100
10, 49920, Note_on_c, 8, 83, 0
10, 49920, Note_on_c, 8, 71, 0
10, 49920, Note_on_c, 8, 67, 100
10, 49920, Note_on_c, 8, 79, 100
10, 50880, Note_on_c, 8, 79, 0
10, 50880, Note_on_c, 8, 67, 0
10, 50880, Note_on_c, 8, 67, 100
10, 50880, Note_on_c, 8, 79, 100
10, 51360, Note_on_c, 8, 79, 0
10, 51360, Note_on_c, 8, 67, 0
10, 51360, Note_on_c, 8, 76, 100
10, 51360, Note_on_c, 8, 88, 100
10, 51600, Note_on_c, 8, 88, 0
10, 51600, Note_on_c, 8, 76, 0
10, 51600, Note_on_c, 8, 74, 100
10, 51600, Note_on_c, 8, 86, 100
10, 51840, Note_on_c, 8, 86, 0
10, 51840, Note_on_c, 8, 74, 0
10, 51840, Note_on_c, 8, 77, 100
10, 51840, Note_on_c, 8, 89, 100
10, 52800, Note_on_c, 8, 89, 0
10, 52800, Note_on_c, 8, 77, 0
10, 52800, Note_on_c, 8, 79, 100
10, 52800, Note_on_c, 8, 91, 100
10, 53520, Note_on_c, 8, 91, 0
10, 53520, Note_on_c, 8, 79, 0
10, 53520, Note_on_c, 8, 80, 100
10, 53520, Note_on_c, 8, 92, 100
10, 53760, Note_on_c, 8, 92, 0
10, 53760, Note_on_c, 8, 80, 0
10, 53760, Note_on_c, 8, 77, 100
10, 53760, Note_on_c, 8, 89, 100
10, 54720, Note_on_c, 8, 89, 0
10, 54720, Note_on_c, 8, 77, 0
10, 54720, Note_on_c, 8, 79, 100
10, 54720, Note_on_c, 8, 91, 100
10, 55440, Note_on_c, 8, 91, 0
10, 55440, Note_on_c, 8, 79, 0
10, 55440, Note_on_c, 8, 82, 100
10, 55440, Note_on_c, 8, 94, 100
10, 55560, Note_on_c, 8, 94, 0
10, 55560, Note_on_c, 8, 82, 0
10, 55560, Note_on_c, 8, 80, 100
10, 55560, Note_on_c, 8, 92, 100
10, 55680, Note_on_c, 8, 92, 0
10, 55680, Note_on_c, 8, 80, 0
10, 55680, Note_on_c, 8, 77, 100
10, 55680, Note_on_c, 8, 89, 100
10, 56640, Note_on_c, 8, 89, 0
10, 56640, Note_on_c, 8, 77, 0
10, 56640, End_track
11, 0, Start_track
11, 0, Title_t, "A10-ORCHESTRA   "
11, 165, Control_c, 9, 0, 0
11, 166, Control_c, 9, 32, 3
11, 167, Program_c, 9, 48
11, 167, Control_c, 9, 91, 90
11, 168, Control_c, 9, 7, 100
11, 168, Control_c, 9, 10, 64
11, 168, Control_c, 9, 93, 0
11, 593, Control_c, 9, 99, 28
11, 593, Control_c, 9, 98, 38
11, 593, Control_c, 9, 6, 63
11, 593, Control_c, 9, 38, 127
11, 656, Control_c, 9, 99, 28
11, 656, Control_c, 9, 98, 57
11, 656, Control_c, 9, 6, 42
11, 656, Control_c, 9, 38, 127
11, 660, Control_c, 9, 99, 28
11, 660, Control_c, 9, 98, 59
11, 660, Control_c, 9, 6, 87
11, 660, Control_c, 9, 38, 127
11, 783, Control_c, 9, 99, 28
11, 783, Control_c, 9, 98, 80
11, 783, Control_c, 9, 6, 95
11, 783, Control_c, 9, 38, 127
11, 830, Control_c, 9, 99, 28
11, 830, Control_c, 9, 98, 81
11, 830, Control_c, 9, 6, 95
11, 830, Control_c, 9, 38, 127
11, 960, Note_on_c, 9, 80, 100
11, 975, Note_on_c, 9, 80, 0
11, 1080, Note_on_c, 9, 80, 100
11, 1095, Note_on_c, 9, 80, 0
11, 1140, Note_on_c, 9, 80, 100
11, 1155, Note_on_c, 9, 80, 0
11, 1260, Note_on_c, 9, 80, 100
11, 1275, Note_on_c, 9, 80, 0
11, 1320, Note_on_c, 9, 80, 100
11, 1335, Note_on_c, 9, 80, 0
11, 1440, Note_on_c, 9, 80, 100
11, 1455, Note_on_c, 9, 80, 0
11, 1500, Note_on_c, 9, 80, 100
11, 1515, Note_on_c, 9, 80, 0
11, 1620, Note_on_c, 9, 80, 100
11, 1635, Note_on_c, 9, 80, 0
11, 1680, Note_on_c, 9, 80, 100
11, 1695, Note_on_c, 9, 80, 0
11, 1740, Note_on_c, 9, 80, 100
11, 1755, Note_on_c, 9, 80, 0
11, 1800, Note_on_c, 9, 81, 100
11, 1815, Note_on_c, 9, 81, 0
11, 1920, Note_on_c, 9, 80, 100
11, 1935, Note_on_c, 9, 80, 0
11, 2040, Note_on_c, 9, 80, 100
11, 2055, Note_on_c, 9, 80, 0
11, 2100, Note_on_c, 9, 80, 100
11, 2115, Note_on_c, 9, 80, 0
11, 2220, Note_on_c, 9, 80, 100
11, 2235, Note_on_c, 9, 80, 0
11, 2280, Note_on_c, 9, 80, 100
11, 2295, Note_on_c, 9, 80, 0
11, 2400, Note_on_c, 9, 80, 100
11, 2415, Note_on_c, 9, 80, 0
11, 2460, Note_on_c, 9, 80, 100
11, 2475, Note_on_c, 9, 80, 0
11, 2580, Note_on_c, 9, 80, 100
11, 2595, Note_on_c, 9, 80, 0
11, 2640, Note_on_c, 9, 80, 100
11, 2655, Note_on_c, 9, 80, 0
11, 2700, Note_on_c, 9, 80, 100
11, 2715, Note_on_c, 9, 80, 0
11, 2760, Note_on_c, 9, 81, 100
11, 2775, Note_on_c, 9, 81, 0
11, 2880, Note_on_c, 9, 57, 100
11, 2880, Note_on_c, 9, 80, 100
11, 2880, Note_on_c, 9, 59, 100
11, 2880, Note_on_c, 9, 38, 100
11, 2895, Note_on_c, 9, 38, 0
11, 2895, Note_on_c, 9, 57, 0
11, 2895, Note_on_c, 9, 80, 0
11, 2895, Note_on_c, 9, 59, 0
11, 3000, Note_on_c, 9, 80, 100
11, 3015, Note_on_c, 9, 80, 0
11, 3057, Note_on_c, 9, 38, 52
11, 3060, Note_on_c, 9, 38, 61
11, 3060, Note_on_c, 9, 80, 100
11, 3067, Note_on_c, 9, 38, 80
11, 3072, Note_on_c, 9, 38, 0
11, 3075, Note_on_c, 9, 38, 0
11, 3075, Note_on_c, 9, 80, 0
11, 3076, Note_on_c, 9, 38, 100
11, 3082, Note_on_c, 9, 38, 0
11, 3091, Note_on_c, 9, 38, 0
11, 3180, Note_on_c, 9, 80, 100
11, 3195, Note_on_c, 9, 80, 0
11, 3237, Note_on_c, 9, 38, 49
11, 3240, Note_on_c, 9, 80, 100
11, 3240, Note_on_c, 9, 38, 58
11, 3247, Note_on_c, 9, 38, 76
11, 3252, Note_on_c, 9, 38, 0
11, 3255, Note_on_c, 9, 80, 0
11, 3255, Note_on_c, 9, 38, 0
11, 3256, Note_on_c, 9, 38, 99
11, 3262, Note_on_c, 9, 38, 0
11, 3271, Note_on_c, 9, 38, 0
11, 3360, Note_on_c, 9, 80, 100
11, 3375, Note_on_c, 9, 80, 0
11, 3420, Note_on_c, 9, 80, 100
11, 3435, Note_on_c, 9, 80, 0
11, 3540, Note_on_c, 9, 80, 100
11, 3555, Note_on_c, 9, 80, 0
11, 3600, Note_on_c, 9, 80, 100
11, 3615, Note_on_c, 9, 80, 0
11, 3660, Note_on_c, 9, 80, 100
11, 3675, Note_on_c, 9, 80, 0
11, 3720, Note_on_c, 9, 81, 100
11, 3735, Note_on_c, 9, 81, 0
11, 3837, Note_on_c, 9, 38, 52
11, 3840, Note_on_c, 9, 38, 61
11, 3840, Note_on_c, 9, 80, 100
11, 3840, Note_on_c, 9, 80, 100
11, 3847, Note_on_c, 9, 38, 80
11, 3852, Note_on_c, 9, 38, 0
11, 3855, Note_on_c, 9, 80, 0
11, 3855, Note_on_c, 9, 38, 0
11, 3855, Note_on_c, 9, 80, 0
11, 3856, Note_on_c, 9, 38, 100
11, 3862, Note_on_c, 9, 38, 0
11, 3871, Note_on_c, 9, 38, 0
11, 3960, Note_on_c, 9, 80, 100
11, 3975, Note_on_c, 9, 80, 0
11, 4017, Note_on_c, 9, 38, 52
11, 4020, Note_on_c, 9, 80, 100
11, 4020, Note_on_c, 9, 38, 61
11, 4027, Note_on_c, 9, 38, 80
11, 4032, Note_on_c, 9, 38, 0
11, 4035, Note_on_c, 9, 80, 0
11, 4035, Note_on_c, 9, 38, 0
11, 4036, Note_on_c, 9, 38, 100
11, 4042, Note_on_c, 9, 38, 0
11, 4051, Note_on_c, 9, 38, 0
11, 4140, Note_on_c, 9, 80, 100
11, 4155, Note_on_c, 9, 80, 0
11, 4197, Note_on_c, 9, 38, 49
11, 4200, Note_on_c, 9, 80, 100
11, 4200, Note_on_c, 9, 38, 58
11, 4207, Note_on_c, 9, 38, 76
11, 4212, Note_on_c, 9, 38, 0
11, 4215, Note_on_c, 9, 80, 0
11, 4215, Note_on_c, 9, 38, 0
11, 4216, Note_on_c, 9, 38, 99
11, 4222, Note_on_c, 9, 38, 0
11, 4231, Note_on_c, 9, 38, 0
11, 4320, Note_on_c, 9, 80, 100
11, 4335, Note_on_c, 9, 80, 0
11, 4380, Note_on_c, 9, 80, 100
11, 4395, Note_on_c, 9, 80, 0
11, 4500, Note_on_c, 9, 80, 100
11, 4515, Note_on_c, 9, 80, 0
11, 4560, Note_on_c, 9, 80, 100
11, 4575, Note_on_c, 9, 80, 0
11, 4620, Note_on_c, 9, 80, 100
11, 4635, Note_on_c, 9, 80, 0
11, 4680, Note_on_c, 9, 81, 100
11, 4695, Note_on_c, 9, 81, 0
11, 4797, Note_on_c, 9, 38, 52
11, 4800, Note_on_c, 9, 38, 61
11, 4800, Note_on_c, 9, 80, 100
11, 4800, Note_on_c, 9, 80, 100
11, 4807, Note_on_c, 9, 38, 80
11, 4812, Note_on_c, 9, 38, 0
11, 4815, Note_on_c, 9, 80, 0
11, 4815, Note_on_c, 9, 38, 0
11, 4815, Note_on_c, 9, 80, 0
11, 4816, Note_on_c, 9, 38, 100
11, 4822, Note_on_c, 9, 38, 0
11, 4831, Note_on_c, 9, 38, 0
11, 4920, Note_on_c, 9, 80, 100
11, 4935, Note_on_c, 9, 80, 0
11, 4977, Note_on_c, 9, 38, 52
11, 4980, Note_on_c, 9, 38, 61
11, 4980, Note_on_c, 9, 80, 100
11, 4987, Note_on_c, 9, 38, 80
11, 4992, Note_on_c, 9, 38, 0
11, 4995, Note_on_c, 9, 38, 0
11, 4995, Note_on_c, 9, 80, 0
11, 4996, Note_on_c, 9, 38, 100
11, 5002, Note_on_c, 9, 38, 0
11, 5011, Note_on_c, 9, 38, 0
11, 5100, Note_on_c, 9, 80, 100
11, 5115, Note_on_c, 9, 80, 0
11, 5157, Note_on_c, 9, 38, 49
11, 5160, Note_on_c, 9, 80, 100
11, 5160, Note_on_c, 9, 38, 58
11, 5167, Note_on_c, 9, 38, 76
11, 5172, Note_on_c, 9, 38, 0
11, 5175, Note_on_c, 9, 80, 0
11, 5175, Note_on_c, 9, 38, 0
11, 5176, Note_on_c, 9, 38, 99
11, 5182, Note_on_c, 9, 38, 0
11, 5191, Note_on_c, 9, 38, 0
11, 5280, Note_on_c, 9, 80, 100
11, 5295, Note_on_c, 9, 80, 0
11, 5340, Note_on_c, 9, 80, 100
11, 5355, Note_on_c, 9, 80, 0
11, 5460, Note_on_c, 9, 80, 100
11, 5475, Note_on_c, 9, 80, 0
11, 5520, Note_on_c, 9, 80, 100
11, 5535, Note_on_c, 9, 80, 0
11, 5580, Note_on_c, 9, 80, 100
11, 5595, Note_on_c, 9, 80, 0
11, 5640, Note_on_c, 9, 81, 100
11, 5655, Note_on_c, 9, 81, 0
11, 5757, Note_on_c, 9, 38, 52
11, 5760, Note_on_c, 9, 38, 61
11, 5760, Note_on_c, 9, 80, 100
11, 5760, Note_on_c, 9, 80, 100
11, 5767, Note_on_c, 9, 38, 80
11, 5772, Note_on_c, 9, 38, 0
11, 5775, Note_on_c, 9, 80, 0
11, 5775, Note_on_c, 9, 38, 0
11, 5775, Note_on_c, 9, 80, 0
11, 5776, Note_on_c, 9, 38, 100
11, 5782, Note_on_c, 9, 38, 0
11, 5791, Note_on_c, 9, 38, 0
11, 5880, Note_on_c, 9, 80, 100
11, 5895, Note_on_c, 9, 80, 0
11, 5937, Note_on_c, 9, 38, 52
11, 5940, Note_on_c, 9, 80, 100
11, 5940, Note_on_c, 9, 38, 61
11, 5947, Note_on_c, 9, 38, 80
11, 5952, Note_on_c, 9, 38, 0
11, 5955, Note_on_c, 9, 80, 0
11, 5955, Note_on_c, 9, 38, 0
11, 5956, Note_on_c, 9, 38, 100
11, 5962, Note_on_c, 9, 38, 0
11, 5971, Note_on_c, 9, 38, 0
11, 6060, Note_on_c, 9, 80, 100
11, 6075, Note_on_c, 9, 80, 0
11, 6117, Note_on_c, 9, 38, 49
11, 6120, Note_on_c, 9, 80, 100
11, 6120, Note_on_c, 9, 38, 58
11, 6127, Note_on_c, 9, 38, 76
11, 6132, Note_on_c, 9, 38, 0
11, 6135, Note_on_c, 9, 80, 0
11, 6135, Note_on_c, 9, 38, 0
11, 6136, Note_on_c, 9, 38, 99
11, 6142, Note_on_c, 9, 38, 0
11, 6151, Note_on_c, 9, 38, 0
11, 6240, Note_on_c, 9, 80, 100
11, 6255, Note_on_c, 9, 80, 0
11, 6300, Note_on_c, 9, 80, 100
11, 6315, Note_on_c, 9, 80, 0
11, 6420, Note_on_c, 9, 80, 100
11, 6435, Note_on_c, 9, 80, 0
11, 6480, Note_on_c, 9, 80, 100
11, 6495, Note_on_c, 9, 80, 0
11, 6540, Note_on_c, 9, 80, 100
11, 6555, Note_on_c, 9, 80, 0
11, 6600, Note_on_c, 9, 81, 100
11, 6615, Note_on_c, 9, 81, 0
11, 6717, Note_on_c, 9, 38, 52
11, 6720, Note_on_c, 9, 38, 61
11, 6720, Note_on_c, 9, 80, 100
11, 6720, Note_on_c, 9, 80, 100
11, 6727, Note_on_c, 9, 38, 80
11, 6732, Note_on_c, 9, 38, 0
11, 6735, Note_on_c, 9, 80, 0
11, 6735, Note_on_c, 9, 38, 0
11, 6735, Note_on_c, 9, 80, 0
11, 6736, Note_on_c, 9, 38, 100
11, 6742, Note_on_c, 9, 38, 0
11, 6751, Note_on_c, 9, 38, 0
11, 6840, Note_on_c, 9, 80, 100
11, 6855, Note_on_c, 9, 80, 0
11, 6897, Note_on_c, 9, 38, 52
11, 6900, Note_on_c, 9, 38, 61
11, 6900, Note_on_c, 9, 80, 100
11, 6907, Note_on_c, 9, 38, 80
11, 6912, Note_on_c, 9, 38, 0
11, 6915, Note_on_c, 9, 38, 0
11, 6915, Note_on_c, 9, 80, 0
11, 6916, Note_on_c, 9, 38, 100
11, 6922, Note_on_c, 9, 38, 0
11, 6931, Note_on_c, 9, 38, 0
11, 7020, Note_on_c, 9, 80, 100
11, 7035, Note_on_c, 9, 80, 0
11, 7077, Note_on_c, 9, 38, 49
11, 7080, Note_on_c, 9, 80, 100
11, 7080, Note_on_c, 9, 38, 58
11, 7087, Note_on_c, 9, 38, 76
11, 7092, Note_on_c, 9, 38, 0
11, 7095, Note_on_c, 9, 80, 0
11, 7095, Note_on_c, 9, 38, 0
11, 7096, Note_on_c, 9, 38, 99
11, 7102, Note_on_c, 9, 38, 0
11, 7111, Note_on_c, 9, 38, 0
11, 7200, Note_on_c, 9, 80, 100
11, 7215, Note_on_c, 9, 80, 0
11, 7260, Note_on_c, 9, 80, 100
11, 7275, Note_on_c, 9, 80, 0
11, 7380, Note_on_c, 9, 80, 100
11, 7395, Note_on_c, 9, 80, 0
11, 7440, Note_on_c, 9, 80, 100
11, 7455, Note_on_c, 9, 80, 0
11, 7500, Note_on_c, 9, 80, 100
11, 7515, Note_on_c, 9, 80, 0
11, 7560, Note_on_c, 9, 81, 100
11, 7575, Note_on_c, 9, 81, 0
11, 7677, Note_on_c, 9, 38, 52
11, 7680, Note_on_c, 9, 38, 61
11, 7680, Note_on_c, 9, 80, 100
11, 7680, Note_on_c, 9, 80, 100
11, 7687, Note_on_c, 9, 38, 80
11, 7692, Note_on_c, 9, 38, 0
11, 7695, Note_on_c, 9, 80, 0
11, 7695, Note_on_c, 9, 38, 0
11, 7695, Note_on_c, 9, 80, 0
11, 7696, Note_on_c, 9, 38, 100
11, 7702, Note_on_c, 9, 38, 0
11, 7711, Note_on_c, 9, 38, 0
11, 7800, Note_on_c, 9, 80, 100
11, 7815, Note_on_c, 9, 80, 0
11, 7857, Note_on_c, 9, 38, 52
11, 7860, Note_on_c, 9, 80, 100
11, 7860, Note_on_c, 9, 38, 61
11, 7867, Note_on_c, 9, 38, 80
11, 7872, Note_on_c, 9, 38, 0
11, 7875, Note_on_c, 9, 80, 0
11, 7875, Note_on_c, 9, 38, 0
11, 7876, Note_on_c, 9, 38, 100
11, 7882, Note_on_c, 9, 38, 0
11, 7891, Note_on_c, 9, 38, 0
11, 7980, Note_on_c, 9, 80, 100
11, 7995, Note_on_c, 9, 80, 0
11, 8037, Note_on_c, 9, 38, 49
11, 8040, Note_on_c, 9, 80, 100
11, 8040, Note_on_c, 9, 38, 58
11, 8047, Note_on_c, 9, 38, 76
11, 8052, Note_on_c, 9, 38, 0
11, 8055, Note_on_c, 9, 80, 0
11, 8055, Note_on_c, 9, 38, 0
11, 8056, Note_on_c, 9, 38, 99
11, 8062, Note_on_c, 9, 38, 0
11, 8071, Note_on_c, 9, 38, 0
11, 8160, Note_on_c, 9, 80, 100
11, 8175, Note_on_c, 9, 80, 0
11, 8220, Note_on_c, 9, 80, 100
11, 8235, Note_on_c, 9, 80, 0
11, 8340, Note_on_c, 9, 80, 100
11, 8355, Note_on_c, 9, 80, 0
11, 8400, Note_on_c, 9, 80, 100
11, 8415, Note_on_c, 9, 80, 0
11, 8460, Note_on_c, 9, 80, 100
11, 8475, Note_on_c, 9, 80, 0
11, 8520, Note_on_c, 9, 81, 100
11, 8535, Note_on_c, 9, 81, 0
11, 8637, Note_on_c, 9, 38, 52
11, 8640, Note_on_c, 9, 38, 61
11, 8640, Note_on_c, 9, 80, 100
11, 8640, Note_on_c, 9, 80, 100
11, 8647, Note_on_c, 9, 38, 80
11, 8652, Note_on_c, 9, 38, 0
11, 8655, Note_on_c, 9, 80, 0
11, 8655, Note_on_c, 9, 38, 0
11, 8655, Note_on_c, 9, 80, 0
11, 8656, Note_on_c, 9, 38, 100
11, 8662, Note_on_c, 9, 38, 0
11, 8671, Note_on_c, 9, 38, 0
11, 8760, Note_on_c, 9, 80, 100
11, 8775, Note_on_c, 9, 80, 0
11, 8817, Note_on_c, 9, 38, 52
11, 8820, Note_on_c, 9, 38, 61
11, 8820, Note_on_c, 9, 80, 100
11, 8827, Note_on_c, 9, 38, 80
11, 8832, Note_on_c, 9, 38, 0
11, 8835, Note_on_c, 9, 38, 0
11, 8835, Note_on_c, 9, 80, 0
11, 8836, Note_on_c, 9, 38, 100
11, 8842, Note_on_c, 9, 38, 0
11, 8851, Note_on_c, 9, 38, 0
11, 8940, Note_on_c, 9, 80, 100
11, 8955, Note_on_c, 9, 80, 0
11, 8997, Note_on_c, 9, 38, 49
11, 9000, Note_on_c, 9, 80, 100
11, 9000, Note_on_c, 9, 38, 58
11, 9007, Note_on_c, 9, 38, 76
11, 9012, Note_on_c, 9, 38, 0
11, 9015, Note_on_c, 9, 80, 0
11, 9015, Note_on_c, 9, 38, 0
11, 9016, Note_on_c, 9, 38, 99
11, 9022, Note_on_c, 9, 38, 0
11, 9031, Note_on_c, 9, 38, 0
11, 9120, Note_on_c, 9, 80, 100
11, 9135, Note_on_c, 9, 80, 0
11, 9180, Note_on_c, 9, 80, 100
11, 9195, Note_on_c, 9, 80, 0
11, 9300, Note_on_c, 9, 80, 100
11, 9315, Note_on_c, 9, 80, 0
11, 9360, Note_on_c, 9, 80, 100
11, 9375, Note_on_c, 9, 80, 0
11, 9420, Note_on_c, 9, 80, 100
11, 9435, Note_on_c, 9, 80, 0
11, 9480, Note_on_c, 9, 81, 100
11, 9495, Note_on_c, 9, 81, 0
11, 9597, Note_on_c, 9, 38, 52
11, 9600, Note_on_c, 9, 38, 61
11, 9600, Note_on_c, 9, 80, 100
11, 9600, Note_on_c, 9, 80, 100
11, 9607, Note_on_c, 9, 38, 80
11, 9612, Note_on_c, 9, 38, 0
11, 9615, Note_on_c, 9, 80, 0
11, 9615, Note_on_c, 9, 38, 0
11, 9615, Note_on_c, 9, 80, 0
11, 9616, Note_on_c, 9, 38, 100
11, 9622, Note_on_c, 9, 38, 0
11, 9631, Note_on_c, 9, 38, 0
11, 9720, Note_on_c, 9, 80, 100
11, 9735, Note_on_c, 9, 80, 0
11, 9777, Note_on_c, 9, 38, 52
11, 9780, Note_on_c, 9, 80, 100
11, 9780, Note_on_c, 9, 38, 61
11, 9787, Note_on_c, 9, 38, 80
11, 9792, Note_on_c, 9, 38, 0
11, 9795, Note_on_c, 9, 80, 0
11, 9795, Note_on_c, 9, 38, 0
11, 9796, Note_on_c, 9, 38, 100
11, 9802, Note_on_c, 9, 38, 0
11, 9811, Note_on_c, 9, 38, 0
11, 9900, Note_on_c, 9, 80, 100
11, 9915, Note_on_c, 9, 80, 0
11, 9957, Note_on_c, 9, 38, 49
11, 9960, Note_on_c, 9, 80, 100
11, 9960, Note_on_c, 9, 38, 58
11, 9967, Note_on_c, 9, 38, 76
11, 9972, Note_on_c, 9, 38, 0
11, 9975, Note_on_c, 9, 80, 0
11, 9975, Note_on_c, 9, 38, 0
11, 9976, Note_on_c, 9, 38, 99
11, 9982, Note_on_c, 9, 38, 0
11, 9991, Note_on_c, 9, 38, 0
11, 10080, Note_on_c, 9, 80, 100
11, 10095, Note_on_c, 9, 80, 0
11, 10140, Note_on_c, 9, 80, 100
11, 10155, Note_on_c, 9, 80, 0
11, 10260, Note_on_c, 9, 80, 100
11, 10275, Note_on_c, 9, 80, 0
11, 10320, Note_on_c, 9, 80, 100
11, 10335, Note_on_c, 9, 80, 0
11, 10380, Note_on_c, 9, 80, 100
11, 10395, Note_on_c, 9, 80, 0
11, 10440, Note_on_c, 9, 81, 100
11, 10455, Note_on_c, 9, 81, 0
11, 10560, Note_on_c, 9, 57, 100
11, 10560, Note_on_c, 9, 38, 100
11, 10560, Note_on_c, 9, 59, 100
11, 10575, Note_on_c, 9, 59, 0
11, 10575, Note_on_c, 9, 38, 0
11, 10575, Note_on_c, 9, 57, 0
11, 10620, Note_on_c, 9, 38, 69
11, 10635, Note_on_c, 9, 38, 0
11, 10650, Note_on_c, 9, 38, 69
11, 10665, Note_on_c, 9, 38, 0
11, 10680, Note_on_c, 9, 38, 100
11, 10695, Note_on_c, 9, 38, 0
11, 10740, Note_on_c, 9, 38, 100
11, 10755, Note_on_c, 9, 38, 0
11, 10800, Note_on_c, 9, 38, 69
11, 10815, Note_on_c, 9, 38, 0
11, 10830, Note_on_c, 9, 38, 69
11, 10845, Note_on_c, 9, 38, 0
11, 10860, Note_on_c, 9, 38, 100
11, 10875, Note_on_c, 9, 38, 0
11, 10920, Note_on_c, 9, 38, 100
11, 10935, Note_on_c, 9, 38, 0
11, 10980, Note_on_c, 9, 38, 69
11, 10995, Note_on_c, 9, 38, 0
11, 11010, Note_on_c, 9, 38, 69
11, 11025, Note_on_c, 9, 38, 0
11, 11040, Note_on_c, 9, 38, 100
11, 11055, Note_on_c, 9, 38, 0
11, 11100, Note_on_c, 9, 38, 100
11, 11115, Note_on_c, 9, 38, 0
11, 11160, Note_on_c, 9, 38, 69
11, 11175, Note_on_c, 9, 38, 0
11, 11190, Note_on_c, 9, 38, 69
11, 11205, Note_on_c, 9, 38, 0
11, 11220, Note_on_c, 9, 38, 100
11, 11235, Note_on_c, 9, 38, 0
11, 11280, Note_on_c, 9, 38, 100
11, 11295, Note_on_c, 9, 38, 0
11, 11340, Note_on_c, 9, 38, 71
11, 11355, Note_on_c, 9, 38, 0
11, 11370, Note_on_c, 9, 38, 71
11, 11385, Note_on_c, 9, 38, 0
11, 11400, Note_on_c, 9, 38, 100
11, 11415, Note_on_c, 9, 38, 0
11, 11460, Note_on_c, 9, 38, 71
11, 11475, Note_on_c, 9, 38, 0
11, 11490, Note_on_c, 9, 38, 71
11, 11505, Note_on_c, 9, 38, 0
11, 11520, Note_on_c, 9, 38, 100
11, 11535, Note_on_c, 9, 38, 0
11, 11580, Note_on_c, 9, 38, 69
11, 11595, Note_on_c, 9, 38, 0
11, 11610, Note_on_c, 9, 38, 69
11, 11625, Note_on_c, 9, 38, 0
11, 11640, Note_on_c, 9, 38, 100
11, 11655, Note_on_c, 9, 38, 0
11, 11700, Note_on_c, 9, 38, 100
11, 11715, Note_on_c, 9, 38, 0
11, 11760, Note_on_c, 9, 38, 69
11, 11775, Note_on_c, 9, 38, 0
11, 11790, Note_on_c, 9, 38, 69
11, 11805, Note_on_c, 9, 38, 0
11, 11820, Note_on_c, 9, 38, 100
11, 11835, Note_on_c, 9, 38, 0
11, 11880, Note_on_c, 9, 38, 100
11, 11895, Note_on_c, 9, 38, 0
11, 11940, Note_on_c, 9, 38, 69
11, 11955, Note_on_c, 9, 38, 0
11, 11970, Note_on_c, 9, 38, 69
11, 11985, Note_on_c, 9, 38, 0
11, 12000, Note_on_c, 9, 38, 100
11, 12015, Note_on_c, 9, 38, 0
11, 12060, Note_on_c, 9, 38, 100
11, 12075, Note_on_c, 9, 38, 0
11, 12120, Note_on_c, 9, 38, 69
11, 12135, Note_on_c, 9, 38, 0
11, 12150, Note_on_c, 9, 38, 69
11, 12165, Note_on_c, 9, 38, 0
11, 12180, Note_on_c, 9, 38, 100
11, 12195, Note_on_c, 9, 38, 0
11, 12240, Note_on_c, 9, 38, 100
11, 12255, Note_on_c, 9, 38, 0
11, 12300, Note_on_c, 9, 38, 71
11, 12315, Note_on_c, 9, 38, 0
11, 12330, Note_on_c, 9, 38, 71
11, 12345, Note_on_c, 9, 38, 0
11, 12360, Note_on_c, 9, 38, 71
11, 12375, Note_on_c, 9, 38, 0
11, 12390, Note_on_c, 9, 38, 100
11, 12405, Note_on_c, 9, 38, 0
11, 12420, Note_on_c, 9, 38, 71
11, 12435, Note_on_c, 9, 38, 0
11, 12450, Note_on_c, 9, 38, 71
11, 12465, Note_on_c, 9, 38, 0
11, 12480, Note_on_c, 9, 38, 100
11, 12495, Note_on_c, 9, 38, 0
11, 12540, Note_on_c, 9, 38, 69
11, 12555, Note_on_c, 9, 38, 0
11, 12570, Note_on_c, 9, 38, 69
11, 12585, Note_on_c, 9, 38, 0
11, 12600, Note_on_c, 9, 38, 100
11, 12615, Note_on_c, 9, 38, 0
11, 12660, Note_on_c, 9, 38, 100
11, 12675, Note_on_c, 9, 38, 0
11, 12720, Note_on_c, 9, 38, 69
11, 12735, Note_on_c, 9, 38, 0
11, 12750, Note_on_c, 9, 38, 69
11, 12765, Note_on_c, 9, 38, 0
11, 12780, Note_on_c, 9, 38, 100
11, 12795, Note_on_c, 9, 38, 0
11, 12840, Note_on_c, 9, 38, 100
11, 12855, Note_on_c, 9, 38, 0
11, 12900, Note_on_c, 9, 38, 69
11, 12915, Note_on_c, 9, 38, 0
11, 12930, Note_on_c, 9, 38, 69
11, 12945, Note_on_c, 9, 38, 0
11, 12960, Note_on_c, 9, 38, 100
11, 12975, Note_on_c, 9, 38, 0
11, 13020, Note_on_c, 9, 38, 100
11, 13035, Note_on_c, 9, 38, 0
11, 13080, Note_on_c, 9, 38, 69
11, 13095, Note_on_c, 9, 38, 0
11, 13110, Note_on_c, 9, 38, 69
11, 13125, Note_on_c, 9, 38, 0
11, 13140, Note_on_c, 9, 38, 100
11, 13155, Note_on_c, 9, 38, 0
11, 13200, Note_on_c, 9, 38, 100
11, 13215, Note_on_c, 9, 38, 0
11, 13260, Note_on_c, 9, 38, 71
11, 13275, Note_on_c, 9, 38, 0
11, 13290, Note_on_c, 9, 38, 71
11, 13305, Note_on_c, 9, 38, 0
11, 13320, Note_on_c, 9, 38, 100
11, 13335, Note_on_c, 9, 38, 0
11, 13380, Note_on_c, 9, 38, 71
11, 13395, Note_on_c, 9, 38, 0
11, 13410, Note_on_c, 9, 38, 71
11, 13425, Note_on_c, 9, 38, 0
11, 13440, Note_on_c, 9, 38, 100
11, 13455, Note_on_c, 9, 38, 0
11, 13500, Note_on_c, 9, 38, 69
11, 13515, Note_on_c, 9, 38, 0
11, 13530, Note_on_c, 9, 38, 69
11, 13545, Note_on_c, 9, 38, 0
11, 13560, Note_on_c, 9, 38, 100
11, 13575, Note_on_c, 9, 38, 0
11, 13620, Note_on_c, 9, 38, 100
11, 13635, Note_on_c, 9, 38, 0
11, 13680, Note_on_c, 9, 38, 69
11, 13695, Note_on_c, 9, 38, 0
11, 13710, Note_on_c, 9, 38, 69
11, 13725, Note_on_c, 9, 38, 0
11, 13740, Note_on_c, 9, 38, 100
11, 13755, Note_on_c, 9, 38, 0
11, 13800, Note_on_c, 9, 38, 100
11, 13815, Note_on_c, 9, 38, 0
11, 13860, Note_on_c, 9, 38, 69
11, 13875, Note_on_c, 9, 38, 0
11, 13890, Note_on_c, 9, 38, 69
11, 13905, Note_on_c, 9, 38, 0
11, 13920, Note_on_c, 9, 38, 100
11, 13935, Note_on_c, 9, 38, 0
11, 13980, Note_on_c, 9, 38, 100
11, 13995, Note_on_c, 9, 38, 0
11, 14040, Note_on_c, 9, 38, 69
11, 14055, Note_on_c, 9, 38, 0
11, 14070, Note_on_c, 9, 38, 69
11, 14085, Note_on_c, 9, 38, 0
11, 14100, Note_on_c, 9, 38, 100
11, 14115, Note_on_c, 9, 38, 0
11, 14160, Note_on_c, 9, 38, 100
11, 14175, Note_on_c, 9, 38, 0
11, 14220, Note_on_c, 9, 38, 71
11, 14235, Note_on_c, 9, 38, 0
11, 14250, Note_on_c, 9, 38, 71
11, 14265, Note_on_c, 9, 38, 0
11, 14280, Note_on_c, 9, 38, 71
11, 14295, Note_on_c, 9, 38, 0
11, 14310, Note_on_c, 9, 38, 100
11, 14325, Note_on_c, 9, 38, 0
11, 14340, Note_on_c, 9, 38, 71
11, 14355, Note_on_c, 9, 38, 0
11, 14370, Note_on_c, 9, 38, 71
11, 14385, Note_on_c, 9, 38, 0
11, 14400, Note_on_c, 9, 38, 100
11, 14415, Note_on_c, 9, 38, 0
11, 14460, Note_on_c, 9, 38, 69
11, 14475, Note_on_c, 9, 38, 0
11, 14490, Note_on_c, 9, 38, 69
11, 14505, Note_on_c, 9, 38, 0
11, 14520, Note_on_c, 9, 38, 100
11, 14535, Note_on_c, 9, 38, 0
11, 14580, Note_on_c, 9, 38, 100
11, 14595, Note_on_c, 9, 38, 0
11, 14640, Note_on_c, 9, 38, 69
11, 14655, Note_on_c, 9, 38, 0
11, 14670, Note_on_c, 9, 38, 69
11, 14685, Note_on_c, 9, 38, 0
11, 14700, Note_on_c, 9, 38, 100
11, 14715, Note_on_c, 9, 38, 0
11, 14760, Note_on_c, 9, 38, 100
11, 14775, Note_on_c, 9, 38, 0
11, 14820, Note_on_c, 9, 38, 69
11, 14835, Note_on_c, 9, 38, 0
11, 14850, Note_on_c, 9, 38, 69
11, 14865, Note_on_c, 9, 38, 0
11, 14880, Note_on_c, 9, 38, 100
11, 14895, Note_on_c, 9, 38, 0
11, 14940, Note_on_c, 9, 38, 100
11, 14955, Note_on_c, 9, 38, 0
11, 15000, Note_on_c, 9, 38, 69
11, 15015, Note_on_c, 9, 38, 0
11, 15030, Note_on_c, 9, 38, 69
11, 15045, Note_on_c, 9, 38, 0
11, 15060, Note_on_c, 9, 38, 100
11, 15075, Note_on_c, 9, 38, 0
11, 15120, Note_on_c, 9, 38, 100
11, 15135, Note_on_c, 9, 38, 0
11, 15180, Note_on_c, 9, 38, 71
11, 15195, Note_on_c, 9, 38, 0
11, 15210, Note_on_c, 9, 38, 71
11, 15225, Note_on_c, 9, 38, 0
11, 15240, Note_on_c, 9, 38, 100
11, 15255, Note_on_c, 9, 38, 0
11, 15300, Note_on_c, 9, 38, 71
11, 15315, Note_on_c, 9, 38, 0
11, 15330, Note_on_c, 9, 38, 71
11, 15345, Note_on_c, 9, 38, 0
11, 15360, Note_on_c, 9, 38, 100
11, 15375, Note_on_c, 9, 38, 0
11, 15420, Note_on_c, 9, 38, 69
11, 15435, Note_on_c, 9, 38, 0
11, 15450, Note_on_c, 9, 38, 69
11, 15465, Note_on_c, 9, 38, 0
11, 15480, Note_on_c, 9, 38, 100
11, 15495, Note_on_c, 9, 38, 0
11, 15540, Note_on_c, 9, 38, 100
11, 15555, Note_on_c, 9, 38, 0
11, 15600, Note_on_c, 9, 38, 69
11, 15615, Note_on_c, 9, 38, 0
11, 15630, Note_on_c, 9, 38, 69
11, 15645, Note_on_c, 9, 38, 0
11, 15660, Note_on_c, 9, 38, 100
11, 15675, Note_on_c, 9, 38, 0
11, 15720, Note_on_c, 9, 38, 100
11, 15735, Note_on_c, 9, 38, 0
11, 15780, Note_on_c, 9, 38, 69
11, 15795, Note_on_c, 9, 38, 0
11, 15810, Note_on_c, 9, 38, 69
11, 15825, Note_on_c, 9, 38, 0
11, 15840, Note_on_c, 9, 38, 100
11, 15855, Note_on_c, 9, 38, 0
11, 15900, Note_on_c, 9, 38, 100
11, 15915, Note_on_c, 9, 38, 0
11, 15960, Note_on_c, 9, 38, 69
11, 15975, Note_on_c, 9, 38, 0
11, 15990, Note_on_c, 9, 38, 69
11, 16005, Note_on_c, 9, 38, 0
11, 16020, Note_on_c, 9, 38, 100
11, 16035, Note_on_c, 9, 38, 0
11, 16080, Note_on_c, 9, 38, 100
11, 16095, Note_on_c, 9, 38, 0
11, 16140, Note_on_c, 9, 38, 71
11, 16155, Note_on_c, 9, 38, 0
11, 16170, Note_on_c, 9, 38, 71
11, 16185, Note_on_c, 9, 38, 0
11, 16200, Note_on_c, 9, 38, 71
11, 16215, Note_on_c, 9, 38, 0
11, 16230, Note_on_c, 9, 38, 100
11, 16245, Note_on_c, 9, 38, 0
11, 16260, Note_on_c, 9, 38, 71
11, 16275, Note_on_c, 9, 38, 0
11, 16290, Note_on_c, 9, 38, 71
11, 16305, Note_on_c, 9, 38, 0
11, 16320, Note_on_c, 9, 38, 100
11, 16335, Note_on_c, 9, 38, 0
11, 16380, Note_on_c, 9, 38, 69
11, 16395, Note_on_c, 9, 38, 0
11, 16410, Note_on_c, 9, 38, 69
11, 16425, Note_on_c, 9, 38, 0
11, 16440, Note_on_c, 9, 38, 100
11, 16455, Note_on_c, 9, 38, 0
11, 16500, Note_on_c, 9, 38, 100
11, 16515, Note_on_c, 9, 38, 0
11, 16560, Note_on_c, 9, 38, 69
11, 16575, Note_on_c, 9, 38, 0
11, 16590, Note_on_c, 9, 38, 69
11, 16605, Note_on_c, 9, 38, 0
11, 16620, Note_on_c, 9, 38, 100
11, 16635, Note_on_c, 9, 38, 0
11, 16680, Note_on_c, 9, 38, 100
11, 16695, Note_on_c, 9, 38, 0
11, 16740, Note_on_c, 9, 38, 69
11, 16755, Note_on_c, 9, 38, 0
11, 16770, Note_on_c, 9, 38, 69
11, 16785, Note_on_c, 9, 38, 0
11, 16800, Note_on_c, 9, 38, 100
11, 16815, Note_on_c, 9, 38, 0
11, 16860, Note_on_c, 9, 38, 100
11, 16875, Note_on_c, 9, 38, 0
11, 16920, Note_on_c, 9, 38, 69
11, 16935, Note_on_c, 9, 38, 0
11, 16950, Note_on_c, 9, 38, 69
11, 16965, Note_on_c, 9, 38, 0
11, 16980, Note_on_c, 9, 38, 100
11, 16995, Note_on_c, 9, 38, 0
11, 17040, Note_on_c, 9, 38, 100
11, 17055, Note_on_c, 9, 38, 0
11, 17100, Note_on_c, 9, 38, 71
11, 17115, Note_on_c, 9, 38, 0
11, 17130, Note_on_c, 9, 38, 71
11, 17145, Note_on_c, 9, 38, 0
11, 17160, Note_on_c, 9, 38, 100
11, 17175, Note_on_c, 9, 38, 0
11, 17220, Note_on_c, 9, 38, 71
11, 17235, Note_on_c, 9, 38, 0
11, 17250, Note_on_c, 9, 38, 71
11, 17265, Note_on_c, 9, 38, 0
11, 17280, Note_on_c, 9, 38, 100
11, 17295, Note_on_c, 9, 38, 0
11, 17340, Note_on_c, 9, 38, 69
11, 17355, Note_on_c, 9, 38, 0
11, 17370, Note_on_c, 9, 38, 69
11, 17385, Note_on_c, 9, 38, 0
11, 17400, Note_on_c, 9, 38, 100
11, 17415, Note_on_c, 9, 38, 0
11, 17460, Note_on_c, 9, 38, 100
11, 17475, Note_on_c, 9, 38, 0
11, 17520, Note_on_c, 9, 38, 69
11, 17535, Note_on_c, 9, 38, 0
11, 17550, Note_on_c, 9, 38, 69
11, 17565, Note_on_c, 9, 38, 0
11, 17580, Note_on_c, 9, 38, 100
11, 17595, Note_on_c, 9, 38, 0
11, 17640, Note_on_c, 9, 38, 100
11, 17655, Note_on_c, 9, 38, 0
11, 17700, Note_on_c, 9, 38, 69
11, 17715, Note_on_c, 9, 38, 0
11, 17730, Note_on_c, 9, 38, 69
11, 17745, Note_on_c, 9, 38, 0
11, 17760, Note_on_c, 9, 38, 100
11, 17775, Note_on_c, 9, 38, 0
11, 17820, Note_on_c, 9, 38, 100
11, 17835, Note_on_c, 9, 38, 0
11, 17880, Note_on_c, 9, 38, 69
11, 17895, Note_on_c, 9, 38, 0
11, 17910, Note_on_c, 9, 38, 69
11, 17925, Note_on_c, 9, 38, 0
11, 17940, Note_on_c, 9, 38, 100
11, 17955, Note_on_c, 9, 38, 0
11, 18000, Note_on_c, 9, 38, 100
11, 18015, Note_on_c, 9, 38, 0
11, 18060, Note_on_c, 9, 38, 71
11, 18075, Note_on_c, 9, 38, 0
11, 18090, Note_on_c, 9, 38, 71
11, 18105, Note_on_c, 9, 38, 0
11, 18120, Note_on_c, 9, 38, 71
11, 18135, Note_on_c, 9, 38, 0
11, 18150, Note_on_c, 9, 38, 100
11, 18165, Note_on_c, 9, 38, 0
11, 18180, Note_on_c, 9, 38, 71
11, 18195, Note_on_c, 9, 38, 0
11, 18210, Note_on_c, 9, 38, 71
11, 18225, Note_on_c, 9, 38, 0
11, 18240, Note_on_c, 9, 57, 100
11, 18240, Note_on_c, 9, 59, 100
11, 18240, Note_on_c, 9, 80, 100
11, 18255, Note_on_c, 9, 80, 0
11, 18255, Note_on_c, 9, 59, 0
11, 18255, Note_on_c, 9, 57, 0
11, 18360, Note_on_c, 9, 81, 100
11, 18375, Note_on_c, 9, 81, 0
11, 18480, Note_on_c, 9, 80, 100
11, 18495, Note_on_c, 9, 80, 0
11, 18540, Note_on_c, 9, 80, 100
11, 18555, Note_on_c, 9, 80, 0
11, 18600, Note_on_c, 9, 81, 100
11, 18615, Note_on_c, 9, 81, 0
11, 18720, Note_on_c, 9, 80, 100
11, 18735, Note_on_c, 9, 80, 0
11, 18840, Note_on_c, 9, 81, 100
11, 18855, Note_on_c, 9, 81, 0
11, 18960, Note_on_c, 9, 80, 100
11, 18975, Note_on_c, 9, 80, 0
11, 19020, Note_on_c, 9, 80, 100
11, 19035, Note_on_c, 9, 80, 0
11, 19080, Note_on_c, 9, 81, 100
11, 19095, Note_on_c, 9, 81, 0
11, 19200, Note_on_c, 9, 80, 100
11, 19215, Note_on_c, 9, 80, 0
11, 19320, Note_on_c, 9, 81, 100
11, 19335, Note_on_c, 9, 81, 0
11, 19440, Note_on_c, 9, 80, 100
11, 19455, Note_on_c, 9, 80, 0
11, 19500, Note_on_c, 9, 80, 100
11, 19515, Note_on_c, 9, 80, 0
11, 19560, Note_on_c, 9, 81, 100
11, 19575, Note_on_c, 9, 81, 0
11, 19620, Note_on_c, 9, 80, 100
11, 19635, Note_on_c, 9, 80, 0
11, 19640, Note_on_c, 9, 80, 100
11, 19655, Note_on_c, 9, 80, 0
11, 19660, Note_on_c, 9, 80, 100
11, 19675, Note_on_c, 9, 80, 0
11, 19680, Note_on_c, 9, 80, 100
11, 19695, Note_on_c, 9, 80, 0
11, 19800, Note_on_c, 9, 81, 100
11, 19815, Note_on_c, 9, 81, 0
11, 19920, Note_on_c, 9, 80, 100
11, 19935, Note_on_c, 9, 80, 0
11, 19980, Note_on_c, 9, 80, 100
11, 19995, Note_on_c, 9, 80, 0
11, 20040, Note_on_c, 9, 81, 100
11, 20055, Note_on_c, 9, 81, 0
11, 20100, Note_on_c, 9, 80, 100
11, 20115, Note_on_c, 9, 80, 0
11, 20160, Note_on_c, 9, 80, 100
11, 20175, Note_on_c, 9, 80, 0
11, 20280, Note_on_c, 9, 81, 100
11, 20295, Note_on_c, 9, 81, 0
11, 20400, Note_on_c, 9, 80, 100
11, 20415, Note_on_c, 9, 80, 0
11, 20460, Note_on_c, 9, 80, 100
11, 20475, Note_on_c, 9, 80, 0
11, 20520, Note_on_c, 9, 81, 100
11, 20535, Note_on_c, 9, 81, 0
11, 20640, Note_on_c, 9, 80, 100
11, 20655, Note_on_c, 9, 80, 0
11, 20760, Note_on_c, 9, 81, 100
11, 20775, Note_on_c, 9, 81, 0
11, 20880, Note_on_c, 9, 80, 100
11, 20895, Note_on_c, 9, 80, 0
11, 20940, Note_on_c, 9, 80, 100
11, 20955, Note_on_c, 9, 80, 0
11, 21000, Note_on_c, 9, 81, 100
11, 21015, Note_on_c, 9, 81, 0
11, 21120, Note_on_c, 9, 80, 100
11, 21135, Note_on_c, 9, 80, 0
11, 21240, Note_on_c, 9, 81, 100
11, 21255, Note_on_c, 9, 81, 0
11, 21360, Note_on_c, 9, 80, 100
11, 21375, Note_on_c, 9, 80, 0
11, 21420, Note_on_c, 9, 80, 100
11, 21435, Note_on_c, 9, 80, 0
11, 21480, Note_on_c, 9, 81, 100
11, 21495, Note_on_c, 9, 81, 0
11, 21540, Note_on_c, 9, 80, 100
11, 21555, Note_on_c, 9, 80, 0
11, 21560, Note_on_c, 9, 80, 100
11, 21575, Note_on_c, 9, 80, 0
11, 21580, Note_on_c, 9, 80, 100
11, 21595, Note_on_c, 9, 80, 0
11, 21600, Note_on_c, 9, 80, 100
11, 21615, Note_on_c, 9, 80, 0
11, 21720, Note_on_c, 9, 81, 100
11, 21735, Note_on_c, 9, 81, 0
11, 21840, Note_on_c, 9, 80, 100
11, 21855, Note_on_c, 9, 80, 0
11, 21900, Note_on_c, 9, 80, 100
11, 21915, Note_on_c, 9, 80, 0
11, 21960, Note_on_c, 9, 81, 100
11, 21975, Note_on_c, 9, 81, 0
11, 22020, Note_on_c, 9, 80, 100
11, 22035, Note_on_c, 9, 80, 0
11, 22080, Note_on_c, 9, 80, 100
11, 22095, Note_on_c, 9, 80, 0
11, 22200, Note_on_c, 9, 81, 100
11, 22215, Note_on_c, 9, 81, 0
11, 22320, Note_on_c, 9, 80, 100
11, 22335, Note_on_c, 9, 80, 0
11, 22380, Note_on_c, 9, 80, 100
11, 22395, Note_on_c, 9, 80, 0
11, 22440, Note_on_c, 9, 81, 100
11, 22455, Note_on_c, 9, 81, 0
11, 22560, Note_on_c, 9, 80, 100
11, 22575, Note_on_c, 9, 80, 0
11, 22680, Note_on_c, 9, 81, 100
11, 22695, Note_on_c, 9, 81, 0
11, 22800, Note_on_c, 9, 80, 100
11, 22815, Note_on_c, 9, 80, 0
11, 22860, Note_on_c, 9, 80, 100
11, 22875, Note_on_c, 9, 80, 0
11, 22920, Note_on_c, 9, 81, 100
11, 22935, Note_on_c, 9, 81, 0
11, 23040, Note_on_c, 9, 80, 100
11, 23055, Note_on_c, 9, 80, 0
11, 23160, Note_on_c, 9, 81, 100
11, 23175, Note_on_c, 9, 81, 0
11, 23280, Note_on_c, 9, 80, 100
11, 23295, Note_on_c, 9, 80, 0
11, 23340, Note_on_c, 9, 80, 100
11, 23355, Note_on_c, 9, 80, 0
11, 23400, Note_on_c, 9, 81, 100
11, 23415, Note_on_c, 9, 81, 0
11, 23460, Note_on_c, 9, 80, 100
11, 23475, Note_on_c, 9, 80, 0
11, 23480, Note_on_c, 9, 80, 100
11, 23495, Note_on_c, 9, 80, 0
11, 23500, Note_on_c, 9, 80, 100
11, 23515, Note_on_c, 9, 80, 0
11, 23520, Note_on_c, 9, 80, 100
11, 23535, Note_on_c, 9, 80, 0
11, 23640, Note_on_c, 9, 81, 100
11, 23655, Note_on_c, 9, 81, 0
11, 23760, Note_on_c, 9, 80, 100
11, 23775, Note_on_c, 9, 80, 0
11, 23820, Note_on_c, 9, 80, 100
11, 23835, Note_on_c, 9, 80, 0
11, 23880, Note_on_c, 9, 81, 100
11, 23895, Note_on_c, 9, 81, 0
11, 23940, Note_on_c, 9, 80, 100
11, 23955, Note_on_c, 9, 80, 0
11, 24000, Note_on_c, 9, 80, 100
11, 24015, Note_on_c, 9, 80, 0
11, 24120, Note_on_c, 9, 81, 100
11, 24135, Note_on_c, 9, 81, 0
11, 24240, Note_on_c, 9, 80, 100
11, 24255, Note_on_c, 9, 80, 0
11, 24300, Note_on_c, 9, 80, 100
11, 24315, Note_on_c, 9, 80, 0
11, 24360, Note_on_c, 9, 81, 100
11, 24375, Note_on_c, 9, 81, 0
11, 24480, Note_on_c, 9, 80, 100
11, 24495, Note_on_c, 9, 80, 0
11, 24600, Note_on_c, 9, 81, 100
11, 24615, Note_on_c, 9, 81, 0
11, 24720, Note_on_c, 9, 80, 100
11, 24735, Note_on_c, 9, 80, 0
11, 24780, Note_on_c, 9, 80, 100
11, 24795, Note_on_c, 9, 80, 0
11, 24840, Note_on_c, 9, 81, 100
11, 24855, Note_on_c, 9, 81, 0
11, 24960, Note_on_c, 9, 80, 100
11, 24975, Note_on_c, 9, 80, 0
11, 25080, Note_on_c, 9, 81, 100
11, 25095, Note_on_c, 9, 81, 0
11, 25200, Note_on_c, 9, 80, 100
11, 25215, Note_on_c, 9, 80, 0
11, 25260, Note_on_c, 9, 80, 100
11, 25275, Note_on_c, 9, 80, 0
11, 25320, Note_on_c, 9, 81, 100
11, 25335, Note_on_c, 9, 81, 0
11, 25380, Note_on_c, 9, 80, 100
11, 25395, Note_on_c, 9, 80, 0
11, 25400, Note_on_c, 9, 80, 100
11, 25415, Note_on_c, 9, 80, 0
11, 25420, Note_on_c, 9, 80, 100
11, 25435, Note_on_c, 9, 80, 0
11, 25440, Note_on_c, 9, 80, 100
11, 25455, Note_on_c, 9, 80, 0
11, 25560, Note_on_c, 9, 81, 100
11, 25575, Note_on_c, 9, 81, 0
11, 25680, Note_on_c, 9, 80, 100
11, 25695, Note_on_c, 9, 80, 0
11, 25740, Note_on_c, 9, 80, 100
11, 25755, Note_on_c, 9, 80, 0
11, 25800, Note_on_c, 9, 81, 100
11, 25815, Note_on_c, 9, 81, 0
11, 25860, Note_on_c, 9, 80, 100
11, 25875, Note_on_c, 9, 80, 0
11, 25920, Note_on_c, 9, 40, 100
11, 25920, Note_on_c, 9, 57, 100
11, 25920, Note_on_c, 9, 59, 100
11, 25935, Note_on_c, 9, 59, 0
11, 25935, Note_on_c, 9, 57, 0
11, 25935, Note_on_c, 9, 40, 0
11, 25980, Note_on_c, 9, 40, 66
11, 25995, Note_on_c, 9, 40, 0
11, 26010, Note_on_c, 9, 40, 66
11, 26025, Note_on_c, 9, 40, 0
11, 26040, Note_on_c, 9, 40, 81
11, 26055, Note_on_c, 9, 40, 0
11, 26100, Note_on_c, 9, 40, 100
11, 26115, Note_on_c, 9, 40, 0
11, 26280, Note_on_c, 9, 40, 100
11, 26295, Note_on_c, 9, 40, 0
11, 26340, Note_on_c, 9, 40, 66
11, 26355, Note_on_c, 9, 40, 0
11, 26370, Note_on_c, 9, 40, 66
11, 26385, Note_on_c, 9, 40, 0
11, 26400, Note_on_c, 9, 40, 100
11, 26415, Note_on_c, 9, 40, 0
11, 26460, Note_on_c, 9, 40, 66
11, 26475, Note_on_c, 9, 40, 0
11, 26490, Note_on_c, 9, 40, 66
11, 26505, Note_on_c, 9, 40, 0
11, 26520, Note_on_c, 9, 40, 81
11, 26535, Note_on_c, 9, 40, 0
11, 26580, Note_on_c, 9, 40, 100
11, 26595, Note_on_c, 9, 40, 0
11, 26760, Note_on_c, 9, 40, 100
11, 26775, Note_on_c, 9, 40, 0
11, 26820, Note_on_c, 9, 40, 66
11, 26835, Note_on_c, 9, 40, 0
11, 26850, Note_on_c, 9, 40, 66
11, 26865, Note_on_c, 9, 40, 0
11, 26880, Note_on_c, 9, 40, 100
11, 26895, Note_on_c, 9, 40, 0
11, 26940, Note_on_c, 9, 40, 66
11, 26955, Note_on_c, 9, 40, 0
11, 26970, Note_on_c, 9, 40, 66
11, 26985, Note_on_c, 9, 40, 0
11, 27000, Note_on_c, 9, 40, 81
11, 27015, Note_on_c, 9, 40, 0
11, 27060, Note_on_c, 9, 40, 100
11, 27075, Note_on_c, 9, 40, 0
11, 27240, Note_on_c, 9, 40, 100
11, 27255, Note_on_c, 9, 40, 0
11, 27300, Note_on_c, 9, 40, 66
11, 27315, Note_on_c, 9, 40, 0
11, 27330, Note_on_c, 9, 40, 66
11, 27345, Note_on_c, 9, 40, 0
11, 27360, Note_on_c, 9, 40, 100
11, 27375, Note_on_c, 9, 40, 0
11, 27420, Note_on_c, 9, 40, 66
11, 27435, Note_on_c, 9, 40, 0
11, 27450, Note_on_c, 9, 40, 66
11, 27465, Note_on_c, 9, 40, 0
11, 27480, Note_on_c, 9, 40, 81
11, 27495, Note_on_c, 9, 40, 0
11, 27540, Note_on_c, 9, 40, 100
11, 27555, Note_on_c, 9, 40, 0
11, 27720, Note_on_c, 9, 40, 100
11, 27735, Note_on_c, 9, 40, 0
11, 27780, Note_on_c, 9, 40, 66
11, 27795, Note_on_c, 9, 40, 0
11, 27810, Note_on_c, 9, 40, 66
11, 27825, Note_on_c, 9, 40, 0
11, 27840, Note_on_c, 9, 40, 100
11, 27855, Note_on_c, 9, 40, 0
11, 27900, Note_on_c, 9, 40, 66
11, 27915, Note_on_c, 9, 40, 0
11, 27930, Note_on_c, 9, 40, 66
11, 27945, Note_on_c, 9, 40, 0
11, 27960, Note_on_c, 9, 40, 81
11, 27975, Note_on_c, 9, 40, 0
11, 28020, Note_on_c, 9, 40, 100
11, 28035, Note_on_c, 9, 40, 0
11, 28200, Note_on_c, 9, 40, 100
11, 28215, Note_on_c, 9, 40, 0
11, 28260, Note_on_c, 9, 40, 66
11, 28275, Note_on_c, 9, 40, 0
11, 28290, Note_on_c, 9, 40, 66
11, 28305, Note_on_c, 9, 40, 0
11, 28320, Note_on_c, 9, 40, 100
11, 28335, Note_on_c, 9, 40, 0
11, 28380, Note_on_c, 9, 40, 66
11, 28395, Note_on_c, 9, 40, 0
11, 28410, Note_on_c, 9, 40, 66
11, 28425, Note_on_c, 9, 40, 0
11, 28440, Note_on_c, 9, 40, 81
11, 28455, Note_on_c, 9, 40, 0
11, 28500, Note_on_c, 9, 40, 100
11, 28515, Note_on_c, 9, 40, 0
11, 28680, Note_on_c, 9, 40, 100
11, 28695, Note_on_c, 9, 40, 0
11, 28740, Note_on_c, 9, 40, 66
11, 28755, Note_on_c, 9, 40, 0
11, 28770, Note_on_c, 9, 40, 66
11, 28785, Note_on_c, 9, 40, 0
11, 28800, Note_on_c, 9, 40, 100
11, 28815, Note_on_c, 9, 40, 0
11, 28860, Note_on_c, 9, 40, 66
11, 28875, Note_on_c, 9, 40, 0
11, 28890, Note_on_c, 9, 40, 66
11, 28905, Note_on_c, 9, 40, 0
11, 28920, Note_on_c, 9, 40, 81
11, 28935, Note_on_c, 9, 40, 0
11, 28980, Note_on_c, 9, 40, 100
11, 28995, Note_on_c, 9, 40, 0
11, 29040, Note_on_c, 9, 40, 66
11, 29055, Note_on_c, 9, 40, 0
11, 29070, Note_on_c, 9, 40, 66
11, 29085, Note_on_c, 9, 40, 0
11, 29100, Note_on_c, 9, 40, 81
11, 29115, Note_on_c, 9, 40, 0
11, 29160, Note_on_c, 9, 40, 100
11, 29175, Note_on_c, 9, 40, 0
11, 29220, Note_on_c, 9, 40, 66
11, 29235, Note_on_c, 9, 40, 0
11, 29250, Note_on_c, 9, 40, 66
11, 29265, Note_on_c, 9, 40, 0
11, 29280, Note_on_c, 9, 40, 80
11, 29295, Note_on_c, 9, 40, 0
11, 29340, Note_on_c, 9, 40, 100
11, 29355, Note_on_c, 9, 40, 0
11, 29400, Note_on_c, 9, 40, 66
11, 29415, Note_on_c, 9, 40, 0
11, 29430, Note_on_c, 9, 40, 66
11, 29445, Note_on_c, 9, 40, 0
11, 29460, Note_on_c, 9, 40, 81
11, 29475, Note_on_c, 9, 40, 0
11, 29520, Note_on_c, 9, 40, 100
11, 29535, Note_on_c, 9, 40, 0
11, 29580, Note_on_c, 9, 40, 66
11, 29595, Note_on_c, 9, 40, 0
11, 29610, Note_on_c, 9, 40, 66
11, 29625, Note_on_c, 9, 40, 0
11, 29640, Note_on_c, 9, 40, 81
11, 29655, Note_on_c, 9, 40, 0
11, 29670, Note_on_c, 9, 40, 100
11, 29685, Note_on_c, 9, 40, 0
11, 29700, Note_on_c, 9, 40, 66
11, 29715, Note_on_c, 9, 40, 0
11, 29730, Note_on_c, 9, 40, 66
11, 29745, Note_on_c, 9, 40, 0
11, 29760, Note_on_c, 9, 57, 100
11, 29760, Note_on_c, 9, 80, 100
11, 29760, Note_on_c, 9, 59, 100
11, 29760, Note_on_c, 9, 38, 100
11, 29775, Note_on_c, 9, 38, 0
11, 29775, Note_on_c, 9, 57, 0
11, 29775, Note_on_c, 9, 80, 0
11, 29775, Note_on_c, 9, 59, 0
11, 29880, Note_on_c, 9, 80, 100
11, 29895, Note_on_c, 9, 80, 0
11, 29937, Note_on_c, 9, 38, 52
11, 29940, Note_on_c, 9, 38, 61
11, 29940, Note_on_c, 9, 80, 100
11, 29947, Note_on_c, 9, 38, 80
11, 29952, Note_on_c, 9, 38, 0
11, 29955, Note_on_c, 9, 38, 0
11, 29955, Note_on_c, 9, 80, 0
11, 29956, Note_on_c, 9, 38, 100
11, 29962, Note_on_c, 9, 38, 0
11, 29971, Note_on_c, 9, 38, 0
11, 30060, Note_on_c, 9, 80, 100
11, 30075, Note_on_c, 9, 80, 0
11, 30117, Note_on_c, 9, 38, 49
11, 30120, Note_on_c, 9, 80, 100
11, 30120, Note_on_c, 9, 38, 58
11, 30127, Note_on_c, 9, 38, 76
11, 30132, Note_on_c, 9, 38, 0
11, 30135, Note_on_c, 9, 80, 0
11, 30135, Note_on_c, 9, 38, 0
11, 30136, Note_on_c, 9, 38, 99
11, 30142, Note_on_c, 9, 38, 0
11, 30151, Note_on_c, 9, 38, 0
11, 30240, Note_on_c, 9, 80, 100
11, 30255, Note_on_c, 9, 80, 0
11, 30300, Note_on_c, 9, 80, 100
11, 30315, Note_on_c, 9, 80, 0
11, 30420, Note_on_c, 9, 80, 100
11, 30435, Note_on_c, 9, 80, 0
11, 30480, Note_on_c, 9, 80, 100
11, 30495, Note_on_c, 9, 80, 0
11, 30540, Note_on_c, 9, 80, 100
11, 30555, Note_on_c, 9, 80, 0
11, 30600, Note_on_c, 9, 81, 100
11, 30615, Note_on_c, 9, 81, 0
11, 30717, Note_on_c, 9, 38, 52
11, 30720, Note_on_c, 9, 38, 61
11, 30720, Note_on_c, 9, 80, 100
11, 30720, Note_on_c, 9, 80, 100
11, 30727, Note_on_c, 9, 38, 80
11, 30732, Note_on_c, 9, 38, 0
11, 30735, Note_on_c, 9, 80, 0
11, 30735, Note_on_c, 9, 38, 0
11, 30735, Note_on_c, 9, 80, 0
11, 30736, Note_on_c, 9, 38, 100
11, 30742, Note_on_c, 9, 38, 0
11, 30751, Note_on_c, 9, 38, 0
11, 30840, Note_on_c, 9, 80, 100
11, 30855, Note_on_c, 9, 80, 0
11, 30897, Note_on_c, 9, 38, 52
11, 30900, Note_on_c, 9, 80, 100
11, 30900, Note_on_c, 9, 38, 61
11, 30907, Note_on_c, 9, 38, 80
11, 30912, Note_on_c, 9, 38, 0
11, 30915, Note_on_c, 9, 80, 0
11, 30915, Note_on_c, 9, 38, 0
11, 30916, Note_on_c, 9, 38, 100
11, 30922, Note_on_c, 9, 38, 0
11, 30931, Note_on_c, 9, 38, 0
11, 31020, Note_on_c, 9, 80, 100
11, 31035, Note_on_c, 9, 80, 0
11, 31077, Note_on_c, 9, 38, 49
11, 31080, Note_on_c, 9, 80, 100
11, 31080, Note_on_c, 9, 38, 58
11, 31087, Note_on_c, 9, 38, 76
11, 31092, Note_on_c, 9, 38, 0
11, 31095, Note_on_c, 9, 80, 0
11, 31095, Note_on_c, 9, 38, 0
11, 31096, Note_on_c, 9, 38, 99
11, 31102, Note_on_c, 9, 38, 0
11, 31111, Note_on_c, 9, 38, 0
11, 31200, Note_on_c, 9, 80, 100
11, 31215, Note_on_c, 9, 80, 0
11, 31260, Note_on_c, 9, 80, 100
11, 31275, Note_on_c, 9, 80, 0
11, 31380, Note_on_c, 9, 80, 100
11, 31395, Note_on_c, 9, 80, 0
11, 31440, Note_on_c, 9, 80, 100
11, 31455, Note_on_c, 9, 80, 0
11, 31500, Note_on_c, 9, 80, 100
11, 31515, Note_on_c, 9, 80, 0
11, 31560, Note_on_c, 9, 81, 100
11, 31575, Note_on_c, 9, 81, 0
11, 31677, Note_on_c, 9, 38, 52
11, 31680, Note_on_c, 9, 38, 61
11, 31680, Note_on_c, 9, 80, 100
11, 31680, Note_on_c, 9, 80, 100
11, 31687, Note_on_c, 9, 38, 80
11, 31692, Note_on_c, 9, 38, 0
11, 31695, Note_on_c, 9, 80, 0
11, 31695, Note_on_c, 9, 38, 0
11, 31695, Note_on_c, 9, 80, 0
11, 31696, Note_on_c, 9, 38, 100
11, 31702, Note_on_c, 9, 38, 0
11, 31711, Note_on_c, 9, 38, 0
11, 31800, Note_on_c, 9, 80, 100
11, 31815, Note_on_c, 9, 80, 0
11, 31857, Note_on_c, 9, 38, 52
11, 31860, Note_on_c, 9, 38, 61
11, 31860, Note_on_c, 9, 80, 100
11, 31867, Note_on_c, 9, 38, 80
11, 31872, Note_on_c, 9, 38, 0
11, 31875, Note_on_c, 9, 38, 0
11, 31875, Note_on_c, 9, 80, 0
11, 31876, Note_on_c, 9, 38, 100
11, 31882, Note_on_c, 9, 38, 0
11, 31891, Note_on_c, 9, 38, 0
11, 31980, Note_on_c, 9, 80, 100
11, 31995, Note_on_c, 9, 80, 0
11, 32037, Note_on_c, 9, 38, 49
11, 32040, Note_on_c, 9, 80, 100
11, 32040, Note_on_c, 9, 38, 58
11, 32047, Note_on_c, 9, 38, 76
11, 32052, Note_on_c, 9, 38, 0
11, 32055, Note_on_c, 9, 80, 0
11, 32055, Note_on_c, 9, 38, 0
11, 32056, Note_on_c, 9, 38, 99
11, 32062, Note_on_c, 9, 38, 0
11, 32071, Note_on_c, 9, 38, 0
11, 32160, Note_on_c, 9, 80, 100
11, 32175, Note_on_c, 9, 80, 0
11, 32220, Note_on_c, 9, 80, 100
11, 32235, Note_on_c, 9, 80, 0
11, 32340, Note_on_c, 9, 80, 100
11, 32355, Note_on_c, 9, 80, 0
11, 32400, Note_on_c, 9, 80, 100
11, 32415, Note_on_c, 9, 80, 0
11, 32460, Note_on_c, 9, 80, 100
11, 32475, Note_on_c, 9, 80, 0
11, 32520, Note_on_c, 9, 81, 100
11, 32535, Note_on_c, 9, 81, 0
11, 32637, Note_on_c, 9, 38, 52
11, 32640, Note_on_c, 9, 38, 61
11, 32640, Note_on_c, 9, 80, 100
11, 32640, Note_on_c, 9, 80, 100
11, 32647, Note_on_c, 9, 38, 80
11, 32652, Note_on_c, 9, 38, 0
11, 32655, Note_on_c, 9, 80, 0
11, 32655, Note_on_c, 9, 38, 0
11, 32655, Note_on_c, 9, 80, 0
11, 32656, Note_on_c, 9, 38, 100
11, 32662, Note_on_c, 9, 38, 0
11, 32671, Note_on_c, 9, 38, 0
11, 32760, Note_on_c, 9, 80, 100
11, 32775, Note_on_c, 9, 80, 0
11, 32817, Note_on_c, 9, 38, 52
11, 32820, Note_on_c, 9, 80, 100
11, 32820, Note_on_c, 9, 38, 61
11, 32827, Note_on_c, 9, 38, 80
11, 32832, Note_on_c, 9, 38, 0
11, 32835, Note_on_c, 9, 80, 0
11, 32835, Note_on_c, 9, 38, 0
11, 32836, Note_on_c, 9, 38, 100
11, 32842, Note_on_c, 9, 38, 0
11, 32851, Note_on_c, 9, 38, 0
11, 32940, Note_on_c, 9, 80, 100
11, 32955, Note_on_c, 9, 80, 0
11, 32997, Note_on_c, 9, 38, 49
11, 33000, Note_on_c, 9, 80, 100
11, 33000, Note_on_c, 9, 38, 58
11, 33007, Note_on_c, 9, 38, 76
11, 33012, Note_on_c, 9, 38, 0
11, 33015, Note_on_c, 9, 80, 0
11, 33015, Note_on_c, 9, 38, 0
11, 33016, Note_on_c, 9, 38, 99
11, 33022, Note_on_c, 9, 38, 0
11, 33031, Note_on_c, 9, 38, 0
11, 33120, Note_on_c, 9, 80, 100
11, 33135, Note_on_c, 9, 80, 0
11, 33180, Note_on_c, 9, 80, 100
11, 33195, Note_on_c, 9, 80, 0
11, 33300, Note_on_c, 9, 80, 100
11, 33315, Note_on_c, 9, 80, 0
11, 33360, Note_on_c, 9, 80, 100
11, 33375, Note_on_c, 9, 80, 0
11, 33420, Note_on_c, 9, 80, 100
11, 33435, Note_on_c, 9, 80, 0
11, 33480, Note_on_c, 9, 81, 100
11, 33495, Note_on_c, 9, 81, 0
11, 33597, Note_on_c, 9, 38, 52
11, 33600, Note_on_c, 9, 38, 61
11, 33600, Note_on_c, 9, 80, 100
11, 33600, Note_on_c, 9, 80, 100
11, 33607, Note_on_c, 9, 38, 80
11, 33612, Note_on_c, 9, 38, 0
11, 33615, Note_on_c, 9, 80, 0
11, 33615, Note_on_c, 9, 38, 0
11, 33615, Note_on_c, 9, 80, 0
11, 33616, Note_on_c, 9, 38, 100
11, 33622, Note_on_c, 9, 38, 0
11, 33631, Note_on_c, 9, 38, 0
11, 33720, Note_on_c, 9, 80, 100
11, 33735, Note_on_c, 9, 80, 0
11, 33777, Note_on_c, 9, 38, 52
11, 33780, Note_on_c, 9, 38, 61
11, 33780, Note_on_c, 9, 80, 100
11, 33787, Note_on_c, 9, 38, 80
11, 33792, Note_on_c, 9, 38, 0
11, 33795, Note_on_c, 9, 38, 0
11, 33795, Note_on_c, 9, 80, 0
11, 33796, Note_on_c, 9, 38, 100
11, 33802, Note_on_c, 9, 38, 0
11, 33811, Note_on_c, 9, 38, 0
11, 33900, Note_on_c, 9, 80, 100
11, 33915, Note_on_c, 9, 80, 0
11, 33957, Note_on_c, 9, 38, 49
11, 33960, Note_on_c, 9, 80, 100
11, 33960, Note_on_c, 9, 38, 58
11, 33967, Note_on_c, 9, 38, 76
11, 33972, Note_on_c, 9, 38, 0
11, 33975, Note_on_c, 9, 80, 0
11, 33975, Note_on_c, 9, 38, 0
11, 33976, Note_on_c, 9, 38, 99
11, 33982, Note_on_c, 9, 38, 0
11, 33991, Note_on_c, 9, 38, 0
11, 34080, Note_on_c, 9, 80, 100
11, 34095, Note_on_c, 9, 80, 0
11, 34140, Note_on_c, 9, 80, 100
11, 34155, Note_on_c, 9, 80, 0
11, 34260, Note_on_c, 9, 80, 100
11, 34275, Note_on_c, 9, 80, 0
11, 34320, Note_on_c, 9, 80, 100
11, 34335, Note_on_c, 9, 80, 0
11, 34380, Note_on_c, 9, 80, 100
11, 34395, Note_on_c, 9, 80, 0
11, 34440, Note_on_c, 9, 81, 100
11, 34455, Note_on_c, 9, 81, 0
11, 34557, Note_on_c, 9, 38, 52
11, 34560, Note_on_c, 9, 38, 61
11, 34560, Note_on_c, 9, 80, 100
11, 34560, Note_on_c, 9, 80, 100
11, 34567, Note_on_c, 9, 38, 80
11, 34572, Note_on_c, 9, 38, 0
11, 34575, Note_on_c, 9, 80, 0
11, 34575, Note_on_c, 9, 38, 0
11, 34575, Note_on_c, 9, 80, 0
11, 34576, Note_on_c, 9, 38, 100
11, 34582, Note_on_c, 9, 38, 0
11, 34591, Note_on_c, 9, 38, 0
11, 34680, Note_on_c, 9, 80, 100
11, 34695, Note_on_c, 9, 80, 0
11, 34737, Note_on_c, 9, 38, 52
11, 34740, Note_on_c, 9, 80, 100
11, 34740, Note_on_c, 9, 38, 61
11, 34747, Note_on_c, 9, 38, 80
11, 34752, Note_on_c, 9, 38, 0
11, 34755, Note_on_c, 9, 80, 0
11, 34755, Note_on_c, 9, 38, 0
11, 34756, Note_on_c, 9, 38, 100
11, 34762, Note_on_c, 9, 38, 0
11, 34771, Note_on_c, 9, 38, 0
11, 34860, Note_on_c, 9, 80, 100
11, 34875, Note_on_c, 9, 80, 0
11, 34917, Note_on_c, 9, 38, 49
11, 34920, Note_on_c, 9, 80, 100
11, 34920, Note_on_c, 9, 38, 58
11, 34927, Note_on_c, 9, 38, 76
11, 34932, Note_on_c, 9, 38, 0
11, 34935, Note_on_c, 9, 80, 0
11, 34935, Note_on_c, 9, 38, 0
11, 34936, Note_on_c, 9, 38, 99
11, 34942, Note_on_c, 9, 38, 0
11, 34951, Note_on_c, 9, 38, 0
11, 35040, Note_on_c, 9, 80, 100
11, 35055, Note_on_c, 9, 80, 0
11, 35100, Note_on_c, 9, 80, 100
11, 35115, Note_on_c, 9, 80, 0
11, 35220, Note_on_c, 9, 80, 100
11, 35235, Note_on_c, 9, 80, 0
11, 35280, Note_on_c, 9, 80, 100
11, 35295, Note_on_c, 9, 80, 0
11, 35340, Note_on_c, 9, 80, 100
11, 35355, Note_on_c, 9, 80, 0
11, 35400, Note_on_c, 9, 81, 100
11, 35415, Note_on_c, 9, 81, 0
11, 35517, Note_on_c, 9, 38, 52
11, 35520, Note_on_c, 9, 38, 61
11, 35520, Note_on_c, 9, 80, 100
11, 35520, Note_on_c, 9, 80, 100
11, 35527, Note_on_c, 9, 38, 80
11, 35532, Note_on_c, 9, 38, 0
11, 35535, Note_on_c, 9, 80, 0
11, 35535, Note_on_c, 9, 38, 0
11, 35535, Note_on_c, 9, 80, 0
11, 35536, Note_on_c, 9, 38, 100
11, 35542, Note_on_c, 9, 38, 0
11, 35551, Note_on_c, 9, 38, 0
11, 35640, Note_on_c, 9, 80, 100
11, 35655, Note_on_c, 9, 80, 0
11, 35697, Note_on_c, 9, 38, 52
11, 35700, Note_on_c, 9, 38, 61
11, 35700, Note_on_c, 9, 80, 100
11, 35707, Note_on_c, 9, 38, 80
11, 35712, Note_on_c, 9, 38, 0
11, 35715, Note_on_c, 9, 38, 0
11, 35715, Note_on_c, 9, 80, 0
11, 35716, Note_on_c, 9, 38, 100
11, 35722, Note_on_c, 9, 38, 0
11, 35731, Note_on_c, 9, 38, 0
11, 35820, Note_on_c, 9, 80, 100
11, 35835, Note_on_c, 9, 80, 0
11, 35877, Note_on_c, 9, 38, 49
11, 35880, Note_on_c, 9, 80, 100
11, 35880, Note_on_c, 9, 38, 58
11, 35887, Note_on_c, 9, 38, 76
11, 35892, Note_on_c, 9, 38, 0
11, 35895, Note_on_c, 9, 80, 0
11, 35895, Note_on_c, 9, 38, 0
11, 35896, Note_on_c, 9, 38, 99
11, 35902, Note_on_c, 9, 38, 0
11, 35911, Note_on_c, 9, 38, 0
11, 36000, Note_on_c, 9, 80, 100
11, 36015, Note_on_c, 9, 80, 0
11, 36060, Note_on_c, 9, 80, 100
11, 36075, Note_on_c, 9, 80, 0
11, 36180, Note_on_c, 9, 80, 100
11, 36195, Note_on_c, 9, 80, 0
11, 36240, Note_on_c, 9, 80, 100
11, 36255, Note_on_c, 9, 80, 0
11, 36300, Note_on_c, 9, 80, 100
11, 36315, Note_on_c, 9, 80, 0
11, 36360, Note_on_c, 9, 81, 100
11, 36375, Note_on_c, 9, 81, 0
11, 36477, Note_on_c, 9, 38, 52
11, 36480, Note_on_c, 9, 38, 61
11, 36480, Note_on_c, 9, 80, 100
11, 36480, Note_on_c, 9, 80, 100
11, 36487, Note_on_c, 9, 38, 80
11, 36492, Note_on_c, 9, 38, 0
11, 36495, Note_on_c, 9, 80, 0
11, 36495, Note_on_c, 9, 38, 0
11, 36495, Note_on_c, 9, 80, 0
11, 36496, Note_on_c, 9, 38, 100
11, 36502, Note_on_c, 9, 38, 0
11, 36511, Note_on_c, 9, 38, 0
11, 36600, Note_on_c, 9, 80, 100
11, 36615, Note_on_c, 9, 80, 0
11, 36657, Note_on_c, 9, 38, 52
11, 36660, Note_on_c, 9, 80, 100
11, 36660, Note_on_c, 9, 38, 61
11, 36667, Note_on_c, 9, 38, 80
11, 36672, Note_on_c, 9, 38, 0
11, 36675, Note_on_c, 9, 80, 0
11, 36675, Note_on_c, 9, 38, 0
11, 36676, Note_on_c, 9, 38, 100
11, 36682, Note_on_c, 9, 38, 0
11, 36691, Note_on_c, 9, 38, 0
11, 36780, Note_on_c, 9, 80, 100
11, 36795, Note_on_c, 9, 80, 0
11, 36837, Note_on_c, 9, 38, 49
11, 36840, Note_on_c, 9, 80, 100
11, 36840, Note_on_c, 9, 38, 58
11, 36847, Note_on_c, 9, 38, 76
11, 36852, Note_on_c, 9, 38, 0
11, 36855, Note_on_c, 9, 80, 0
11, 36855, Note_on_c, 9, 38, 0
11, 36856, Note_on_c, 9, 38, 99
11, 36862, Note_on_c, 9, 38, 0
11, 36871, Note_on_c, 9, 38, 0
11, 36960, Note_on_c, 9, 80, 100
11, 36975, Note_on_c, 9, 80, 0
11, 37020, Note_on_c, 9, 80, 100
11, 37035, Note_on_c, 9, 80, 0
11, 37140, Note_on_c, 9, 80, 100
11, 37155, Note_on_c, 9, 80, 0
11, 37200, Note_on_c, 9, 80, 100
11, 37215, Note_on_c, 9, 80, 0
11, 37260, Note_on_c, 9, 80, 100
11, 37275, Note_on_c, 9, 80, 0
11, 37320, Note_on_c, 9, 81, 100
11, 37335, Note_on_c, 9, 81, 0
11, 37440, Note_on_c, 9, 57, 100
11, 37440, Note_on_c, 9, 38, 100
11, 37440, Note_on_c, 9, 59, 100
11, 37455, Note_on_c, 9, 59, 0
11, 37455, Note_on_c, 9, 38, 0
11, 37455, Note_on_c, 9, 57, 0
11, 37500, Note_on_c, 9, 38, 69
11, 37515, Note_on_c, 9, 38, 0
11, 37530, Note_on_c, 9, 38, 69
11, 37545, Note_on_c, 9, 38, 0
11, 37560, Note_on_c, 9, 38, 100
11, 37575, Note_on_c, 9, 38, 0
11, 37620, Note_on_c, 9, 38, 100
11, 37635, Note_on_c, 9, 38, 0
11, 37680, Note_on_c, 9, 38, 69
11, 37695, Note_on_c, 9, 38, 0
11, 37710, Note_on_c, 9, 38, 69
11, 37725, Note_on_c, 9, 38, 0
11, 37740, Note_on_c, 9, 38, 100
11, 37755, Note_on_c, 9, 38, 0
11, 37800, Note_on_c, 9, 38, 100
11, 37815, Note_on_c, 9, 38, 0
11, 37860, Note_on_c, 9, 38, 69
11, 37875, Note_on_c, 9, 38, 0
11, 37890, Note_on_c, 9, 38, 69
11, 37905, Note_on_c, 9, 38, 0
11, 37920, Note_on_c, 9, 38, 100
11, 37935, Note_on_c, 9, 38, 0
11, 37980, Note_on_c, 9, 38, 100
11, 37995, Note_on_c, 9, 38, 0
11, 38040, Note_on_c, 9, 38, 69
11, 38055, Note_on_c, 9, 38, 0
11, 38070, Note_on_c, 9, 38, 69
11, 38085, Note_on_c, 9, 38, 0
11, 38100, Note_on_c, 9, 38, 100
11, 38115, Note_on_c, 9, 38, 0
11, 38160, Note_on_c, 9, 38, 100
11, 38175, Note_on_c, 9, 38, 0
11, 38220, Note_on_c, 9, 38, 71
11, 38235, Note_on_c, 9, 38, 0
11, 38250, Note_on_c, 9, 38, 71
11, 38265, Note_on_c, 9, 38, 0
11, 38280, Note_on_c, 9, 38, 100
11, 38295, Note_on_c, 9, 38, 0
11, 38340, Note_on_c, 9, 38, 71
11, 38355, Note_on_c, 9, 38, 0
11, 38370, Note_on_c, 9, 38, 71
11, 38385, Note_on_c, 9, 38, 0
11, 38400, Note_on_c, 9, 38, 100
11, 38415, Note_on_c, 9, 38, 0
11, 38460, Note_on_c, 9, 38, 69
11, 38475, Note_on_c, 9, 38, 0
11, 38490, Note_on_c, 9, 38, 69
11, 38505, Note_on_c, 9, 38, 0
11, 38520, Note_on_c, 9, 38, 100
11, 38535, Note_on_c, 9, 38, 0
11, 38580, Note_on_c, 9, 38, 100
11, 38595, Note_on_c, 9, 38, 0
11, 38640, Note_on_c, 9, 38, 69
11, 38655, Note_on_c, 9, 38, 0
11, 38670, Note_on_c, 9, 38, 69
11, 38685, Note_on_c, 9, 38, 0
11, 38700, Note_on_c, 9, 38, 100
11, 38715, Note_on_c, 9, 38, 0
11, 38760, Note_on_c, 9, 38, 100
11, 38775, Note_on_c, 9, 38, 0
11, 38820, Note_on_c, 9, 38, 69
11, 38835, Note_on_c, 9, 38, 0
11, 38850, Note_on_c, 9, 38, 69
11, 38865, Note_on_c, 9, 38, 0
11, 38880, Note_on_c, 9, 38, 100
11, 38895, Note_on_c, 9, 38, 0
11, 38940, Note_on_c, 9, 38, 100
11, 38955, Note_on_c, 9, 38, 0
11, 39000, Note_on_c, 9, 38, 69
11, 39015, Note_on_c, 9, 38, 0
11, 39030, Note_on_c, 9, 38, 69
11, 39045, Note_on_c, 9, 38, 0
11, 39060, Note_on_c, 9, 38, 100
11, 39075, Note_on_c, 9, 38, 0
11, 39120, Note_on_c, 9, 38, 100
11, 39135, Note_on_c, 9, 38, 0
11, 39180, Note_on_c, 9, 38, 71
11, 39195, Note_on_c, 9, 38, 0
11, 39210, Note_on_c, 9, 38, 71
11, 39225, Note_on_c, 9, 38, 0
11, 39240, Note_on_c, 9, 38, 71
11, 39255, Note_on_c, 9, 38, 0
11, 39270, Note_on_c, 9, 38, 100
11, 39285, Note_on_c, 9, 38, 0
11, 39300, Note_on_c, 9, 38, 71
11, 39315, Note_on_c, 9, 38, 0
11, 39330, Note_on_c, 9, 38, 71
11, 39345, Note_on_c, 9, 38, 0
11, 39360, Note_on_c, 9, 38, 100
11, 39375, Note_on_c, 9, 38, 0
11, 39420, Note_on_c, 9, 38, 69
11, 39435, Note_on_c, 9, 38, 0
11, 39450, Note_on_c, 9, 38, 69
11, 39465, Note_on_c, 9, 38, 0
11, 39480, Note_on_c, 9, 38, 100
11, 39495, Note_on_c, 9, 38, 0
11, 39540, Note_on_c, 9, 38, 100
11, 39555, Note_on_c, 9, 38, 0
11, 39600, Note_on_c, 9, 38, 69
11, 39615, Note_on_c, 9, 38, 0
11, 39630, Note_on_c, 9, 38, 69
11, 39645, Note_on_c, 9, 38, 0
11, 39660, Note_on_c, 9, 38, 100
11, 39675, Note_on_c, 9, 38, 0
11, 39720, Note_on_c, 9, 38, 100
11, 39735, Note_on_c, 9, 38, 0
11, 39780, Note_on_c, 9, 38, 69
11, 39795, Note_on_c, 9, 38, 0
11, 39810, Note_on_c, 9, 38, 69
11, 39825, Note_on_c, 9, 38, 0
11, 39840, Note_on_c, 9, 38, 100
11, 39855, Note_on_c, 9, 38, 0
11, 39900, Note_on_c, 9, 38, 100
11, 39915, Note_on_c, 9, 38, 0
11, 39960, Note_on_c, 9, 38, 69
11, 39975, Note_on_c, 9, 38, 0
11, 39990, Note_on_c, 9, 38, 69
11, 40005, Note_on_c, 9, 38, 0
11, 40020, Note_on_c, 9, 38, 100
11, 40035, Note_on_c, 9, 38, 0
11, 40080, Note_on_c, 9, 38, 100
11, 40095, Note_on_c, 9, 38, 0
11, 40140, Note_on_c, 9, 38, 71
11, 40155, Note_on_c, 9, 38, 0
11, 40170, Note_on_c, 9, 38, 71
11, 40185, Note_on_c, 9, 38, 0
11, 40200, Note_on_c, 9, 38, 100
11, 40215, Note_on_c, 9, 38, 0
11, 40260, Note_on_c, 9, 38, 71
11, 40275, Note_on_c, 9, 38, 0
11, 40290, Note_on_c, 9, 38, 71
11, 40305, Note_on_c, 9, 38, 0
11, 40320, Note_on_c, 9, 38, 100
11, 40335, Note_on_c, 9, 38, 0
11, 40380, Note_on_c, 9, 38, 69
11, 40395, Note_on_c, 9, 38, 0
11, 40410, Note_on_c, 9, 38, 69
11, 40425, Note_on_c, 9, 38, 0
11, 40440, Note_on_c, 9, 38, 100
11, 40455, Note_on_c, 9, 38, 0
11, 40500, Note_on_c, 9, 38, 100
11, 40515, Note_on_c, 9, 38, 0
11, 40560, Note_on_c, 9, 38, 69
11, 40575, Note_on_c, 9, 38, 0
11, 40590, Note_on_c, 9, 38, 69
11, 40605, Note_on_c, 9, 38, 0
11, 40620, Note_on_c, 9, 38, 100
11, 40635, Note_on_c, 9, 38, 0
11, 40680, Note_on_c, 9, 38, 100
11, 40695, Note_on_c, 9, 38, 0
11, 40740, Note_on_c, 9, 38, 69
11, 40755, Note_on_c, 9, 38, 0
11, 40770, Note_on_c, 9, 38, 69
11, 40785, Note_on_c, 9, 38, 0
11, 40800, Note_on_c, 9, 38, 100
11, 40815, Note_on_c, 9, 38, 0
11, 40860, Note_on_c, 9, 38, 100
11, 40875, Note_on_c, 9, 38, 0
11, 40920, Note_on_c, 9, 38, 69
11, 40935, Note_on_c, 9, 38, 0
11, 40950, Note_on_c, 9, 38, 69
11, 40965, Note_on_c, 9, 38, 0
11, 40980, Note_on_c, 9, 38, 100
11, 40995, Note_on_c, 9, 38, 0
11, 41040, Note_on_c, 9, 38, 100
11, 41055, Note_on_c, 9, 38, 0
11, 41100, Note_on_c, 9, 38, 71
11, 41115, Note_on_c, 9, 38, 0
11, 41130, Note_on_c, 9, 38, 71
11, 41145, Note_on_c, 9, 38, 0
11, 41160, Note_on_c, 9, 38, 71
11, 41175, Note_on_c, 9, 38, 0
11, 41190, Note_on_c, 9, 38, 100
11, 41205, Note_on_c, 9, 38, 0
11, 41220, Note_on_c, 9, 38, 71
11, 41235, Note_on_c, 9, 38, 0
11, 41250, Note_on_c, 9, 38, 71
11, 41265, Note_on_c, 9, 38, 0
11, 41280, Note_on_c, 9, 38, 100
11, 41295, Note_on_c, 9, 38, 0
11, 41340, Note_on_c, 9, 38, 69
11, 41355, Note_on_c, 9, 38, 0
11, 41370, Note_on_c, 9, 38, 69
11, 41385, Note_on_c, 9, 38, 0
11, 41400, Note_on_c, 9, 38, 100
11, 41415, Note_on_c, 9, 38, 0
11, 41460, Note_on_c, 9, 38, 100
11, 41475, Note_on_c, 9, 38, 0
11, 41520, Note_on_c, 9, 38, 69
11, 41535, Note_on_c, 9, 38, 0
11, 41550, Note_on_c, 9, 38, 69
11, 41565, Note_on_c, 9, 38, 0
11, 41580, Note_on_c, 9, 38, 100
11, 41595, Note_on_c, 9, 38, 0
11, 41640, Note_on_c, 9, 38, 100
11, 41655, Note_on_c, 9, 38, 0
11, 41700, Note_on_c, 9, 38, 69
11, 41715, Note_on_c, 9, 38, 0
11, 41730, Note_on_c, 9, 38, 69
11, 41745, Note_on_c, 9, 38, 0
11, 41760, Note_on_c, 9, 38, 100
11, 41775, Note_on_c, 9, 38, 0
11, 41820, Note_on_c, 9, 38, 100
11, 41835, Note_on_c, 9, 38, 0
11, 41880, Note_on_c, 9, 38, 69
11, 41895, Note_on_c, 9, 38, 0
11, 41910, Note_on_c, 9, 38, 69
11, 41925, Note_on_c, 9, 38, 0
11, 41940, Note_on_c, 9, 38, 100
11, 41955, Note_on_c, 9, 38, 0
11, 42000, Note_on_c, 9, 38, 100
11, 42015, Note_on_c, 9, 38, 0
11, 42060, Note_on_c, 9, 38, 71
11, 42075, Note_on_c, 9, 38, 0
11, 42090, Note_on_c, 9, 38, 71
11, 42105, Note_on_c, 9, 38, 0
11, 42120, Note_on_c, 9, 38, 100
11, 42135, Note_on_c, 9, 38, 0
11, 42180, Note_on_c, 9, 38, 71
11, 42195, Note_on_c, 9, 38, 0
11, 42210, Note_on_c, 9, 38, 71
11, 42225, Note_on_c, 9, 38, 0
11, 42240, Note_on_c, 9, 38, 100
11, 42255, Note_on_c, 9, 38, 0
11, 42300, Note_on_c, 9, 38, 69
11, 42315, Note_on_c, 9, 38, 0
11, 42330, Note_on_c, 9, 38, 69
11, 42345, Note_on_c, 9, 38, 0
11, 42360, Note_on_c, 9, 38, 100
11, 42375, Note_on_c, 9, 38, 0
11, 42420, Note_on_c, 9, 38, 100
11, 42435, Note_on_c, 9, 38, 0
11, 42480, Note_on_c, 9, 38, 69
11, 42495, Note_on_c, 9, 38, 0
11, 42510, Note_on_c, 9, 38, 69
11, 42525, Note_on_c, 9, 38, 0
11, 42540, Note_on_c, 9, 38, 100
11, 42555, Note_on_c, 9, 38, 0
11, 42600, Note_on_c, 9, 38, 100
11, 42615, Note_on_c, 9, 38, 0
11, 42660, Note_on_c, 9, 38, 69
11, 42675, Note_on_c, 9, 38, 0
11, 42690, Note_on_c, 9, 38, 69
11, 42705, Note_on_c, 9, 38, 0
11, 42720, Note_on_c, 9, 38, 100
11, 42735, Note_on_c, 9, 38, 0
11, 42780, Note_on_c, 9, 38, 100
11, 42795, Note_on_c, 9, 38, 0
11, 42840, Note_on_c, 9, 38, 69
11, 42855, Note_on_c, 9, 38, 0
11, 42870, Note_on_c, 9, 38, 69
11, 42885, Note_on_c, 9, 38, 0
11, 42900, Note_on_c, 9, 38, 100
11, 42915, Note_on_c, 9, 38, 0
11, 42960, Note_on_c, 9, 38, 100
11, 42975, Note_on_c, 9, 38, 0
11, 43020, Note_on_c, 9, 38, 71
11, 43035, Note_on_c, 9, 38, 0
11, 43050, Note_on_c, 9, 38, 71
11, 43065, Note_on_c, 9, 38, 0
11, 43080, Note_on_c, 9, 38, 71
11, 43095, Note_on_c, 9, 38, 0
11, 43110, Note_on_c, 9, 38, 100
11, 43125, Note_on_c, 9, 38, 0
11, 43140, Note_on_c, 9, 38, 71
11, 43155, Note_on_c, 9, 38, 0
11, 43170, Note_on_c, 9, 38, 71
11, 43185, Note_on_c, 9, 38, 0
11, 43200, Note_on_c, 9, 38, 100
11, 43215, Note_on_c, 9, 38, 0
11, 43260, Note_on_c, 9, 38, 69
11, 43275, Note_on_c, 9, 38, 0
11, 43290, Note_on_c, 9, 38, 69
11, 43305, Note_on_c, 9, 38, 0
11, 43320, Note_on_c, 9, 38, 100
11, 43335, Note_on_c, 9, 38, 0
11, 43380, Note_on_c, 9, 38, 100
11, 43395, Note_on_c, 9, 38, 0
11, 43440, Note_on_c, 9, 38, 69
11, 43455, Note_on_c, 9, 38, 0
11, 43470, Note_on_c, 9, 38, 69
11, 43485, Note_on_c, 9, 38, 0
11, 43500, Note_on_c, 9, 38, 100
11, 43515, Note_on_c, 9, 38, 0
11, 43560, Note_on_c, 9, 38, 100
11, 43575, Note_on_c, 9, 38, 0
11, 43620, Note_on_c, 9, 38, 69
11, 43635, Note_on_c, 9, 38, 0
11, 43650, Note_on_c, 9, 38, 69
11, 43665, Note_on_c, 9, 38, 0
11, 43680, Note_on_c, 9, 38, 100
11, 43695, Note_on_c, 9, 38, 0
11, 43740, Note_on_c, 9, 38, 100
11, 43755, Note_on_c, 9, 38, 0
11, 43800, Note_on_c, 9, 38, 69
11, 43815, Note_on_c, 9, 38, 0
11, 43830, Note_on_c, 9, 38, 69
11, 43845, Note_on_c, 9, 38, 0
11, 43860, Note_on_c, 9, 38, 100
11, 43875, Note_on_c, 9, 38, 0
11, 43920, Note_on_c, 9, 38, 100
11, 43935, Note_on_c, 9, 38, 0
11, 43980, Note_on_c, 9, 38, 71
11, 43995, Note_on_c, 9, 38, 0
11, 44010, Note_on_c, 9, 38, 71
11, 44025, Note_on_c, 9, 38, 0
11, 44040, Note_on_c, 9, 38, 100
11, 44055, Note_on_c, 9, 38, 0
11, 44100, Note_on_c, 9, 38, 71
11, 44115, Note_on_c, 9, 38, 0
11, 44130, Note_on_c, 9, 38, 71
11, 44145, Note_on_c, 9, 38, 0
11, 44160, Note_on_c, 9, 38, 100
11, 44175, Note_on_c, 9, 38, 0
11, 44220, Note_on_c, 9, 38, 69
11, 44235, Note_on_c, 9, 38, 0
11, 44250, Note_on_c, 9, 38, 69
11, 44265, Note_on_c, 9, 38, 0
11, 44280, Note_on_c, 9, 38, 100
11, 44295, Note_on_c, 9, 38, 0
11, 44340, Note_on_c, 9, 38, 100
11, 44355, Note_on_c, 9, 38, 0
11, 44400, Note_on_c, 9, 38, 69
11, 44415, Note_on_c, 9, 38, 0
11, 44430, Note_on_c, 9, 38, 69
11, 44445, Note_on_c, 9, 38, 0
11, 44460, Note_on_c, 9, 38, 100
11, 44475, Note_on_c, 9, 38, 0
11, 44520, Note_on_c, 9, 38, 100
11, 44535, Note_on_c, 9, 38, 0
11, 44580, Note_on_c, 9, 38, 69
11, 44595, Note_on_c, 9, 38, 0
11, 44610, Note_on_c, 9, 38, 69
11, 44625, Note_on_c, 9, 38, 0
11, 44640, Note_on_c, 9, 38, 100
11, 44655, Note_on_c, 9, 38, 0
11, 44700, Note_on_c, 9, 38, 100
11, 44715, Note_on_c, 9, 38, 0
11, 44760, Note_on_c, 9, 38, 69
11, 44775, Note_on_c, 9, 38, 0
11, 44790, Note_on_c, 9, 38, 69
11, 44805, Note_on_c, 9, 38, 0
11, 44820, Note_on_c, 9, 38, 100
11, 44835, Note_on_c, 9, 38, 0
11, 44880, Note_on_c, 9, 38, 100
11, 44895, Note_on_c, 9, 38, 0
11, 44940, Note_on_c, 9, 38, 71
11, 44955, Note_on_c, 9, 38, 0
11, 44970, Note_on_c, 9, 38, 71
11, 44985, Note_on_c, 9, 38, 0
11, 45000, Note_on_c, 9, 38, 71
11, 45015, Note_on_c, 9, 38, 0
11, 45030, Note_on_c, 9, 38, 100
11, 45045, Note_on_c, 9, 38, 0
11, 45060, Note_on_c, 9, 38, 71
11, 45075, Note_on_c, 9, 38, 0
11, 45090, Note_on_c, 9, 38, 71
11, 45105, Note_on_c, 9, 38, 0
11, 45120, Note_on_c, 9, 57, 100
11, 45120, Note_on_c, 9, 59, 100
11, 45120, Note_on_c, 9, 80, 100
11, 45135, Note_on_c, 9, 80, 0
11, 45135, Note_on_c, 9, 59, 0
11, 45135, Note_on_c, 9, 57, 0
11, 45240, Note_on_c, 9, 81, 100
11, 45255, Note_on_c, 9, 81, 0
11, 45360, Note_on_c, 9, 80, 100
11, 45375, Note_on_c, 9, 80, 0
11, 45420, Note_on_c, 9, 80, 100
11, 45435, Note_on_c, 9, 80, 0
11, 45480, Note_on_c, 9, 81, 100
11, 45495, Note_on_c, 9, 81, 0
11, 45600, Note_on_c, 9, 80, 100
11, 45615, Note_on_c, 9, 80, 0
11, 45720, Note_on_c, 9, 81, 100
11, 45735, Note_on_c, 9, 81, 0
11, 45840, Note_on_c, 9, 80, 100
11, 45855, Note_on_c, 9, 80, 0
11, 45900, Note_on_c, 9, 80, 100
11, 45915, Note_on_c, 9, 80, 0
11, 45960, Note_on_c, 9, 81, 100
11, 45975, Note_on_c, 9, 81, 0
11, 46080, Note_on_c, 9, 80, 100
11, 46095, Note_on_c, 9, 80, 0
11, 46200, Note_on_c, 9, 81, 100
11, 46215, Note_on_c, 9, 81, 0
11, 46320, Note_on_c, 9, 80, 100
11, 46335, Note_on_c, 9, 80, 0
11, 46380, Note_on_c, 9, 80, 100
11, 46395, Note_on_c, 9, 80, 0
11, 46440, Note_on_c, 9, 81, 100
11, 46455, Note_on_c, 9, 81, 0
11, 46500, Note_on_c, 9, 80, 100
11, 46515, Note_on_c, 9, 80, 0
11, 46520, Note_on_c, 9, 80, 100
11, 46535, Note_on_c, 9, 80, 0
11, 46540, Note_on_c, 9, 80, 100
11, 46555, Note_on_c, 9, 80, 0
11, 46560, Note_on_c, 9, 80, 100
11, 46575, Note_on_c, 9, 80, 0
11, 46680, Note_on_c, 9, 81, 100
11, 46695, Note_on_c, 9, 81, 0
11, 46800, Note_on_c, 9, 80, 100
11, 46815, Note_on_c, 9, 80, 0
11, 46860, Note_on_c, 9, 80, 100
11, 46875, Note_on_c, 9, 80, 0
11, 46920, Note_on_c, 9, 81, 100
11, 46935, Note_on_c, 9, 81, 0
11, 46980, Note_on_c, 9, 80, 100
11, 46995, Note_on_c, 9, 80, 0
11, 47040, Note_on_c, 9, 80, 100
11, 47055, Note_on_c, 9, 80, 0
11, 47160, Note_on_c, 9, 81, 100
11, 47175, Note_on_c, 9, 81, 0
11, 47280, Note_on_c, 9, 80, 100
11, 47295, Note_on_c, 9, 80, 0
11, 47340, Note_on_c, 9, 80, 100
11, 47355, Note_on_c, 9, 80, 0
11, 47400, Note_on_c, 9, 81, 100
11, 47415, Note_on_c, 9, 81, 0
11, 47520, Note_on_c, 9, 80, 100
11, 47535, Note_on_c, 9, 80, 0
11, 47640, Note_on_c, 9, 81, 100
11, 47655, Note_on_c, 9, 81, 0
11, 47760, Note_on_c, 9, 80, 100
11, 47775, Note_on_c, 9, 80, 0
11, 47820, Note_on_c, 9, 80, 100
11, 47835, Note_on_c, 9, 80, 0
11, 47880, Note_on_c, 9, 81, 100
11, 47895, Note_on_c, 9, 81, 0
11, 48000, Note_on_c, 9, 80, 100
11, 48015, Note_on_c, 9, 80, 0
11, 48120, Note_on_c, 9, 81, 100
11, 48135, Note_on_c, 9, 81, 0
11, 48240, Note_on_c, 9, 80, 100
11, 48255, Note_on_c, 9, 80, 0
11, 48300, Note_on_c, 9, 80, 100
11, 48315, Note_on_c, 9, 80, 0
11, 48360, Note_on_c, 9, 81, 100
11, 48375, Note_on_c, 9, 81, 0
11, 48420, Note_on_c, 9, 80, 100
11, 48435, Note_on_c, 9, 80, 0
11, 48440, Note_on_c, 9, 80, 100
11, 48455, Note_on_c, 9, 80, 0
11, 48460, Note_on_c, 9, 80, 100
11, 48475, Note_on_c, 9, 80, 0
11, 48480, Note_on_c, 9, 80, 100
11, 48495, Note_on_c, 9, 80, 0
11, 48600, Note_on_c, 9, 81, 100
11, 48615, Note_on_c, 9, 81, 0
11, 48720, Note_on_c, 9, 80, 100
11, 48735, Note_on_c, 9, 80, 0
11, 48780, Note_on_c, 9, 80, 100
11, 48795, Note_on_c, 9, 80, 0
11, 48840, Note_on_c, 9, 81, 100
11, 48855, Note_on_c, 9, 81, 0
11, 48900, Note_on_c, 9, 80, 100
11, 48915, Note_on_c, 9, 80, 0
11, 48960, Note_on_c, 9, 80, 100
11, 48975, Note_on_c, 9, 80, 0
11, 49080, Note_on_c, 9, 81, 100
11, 49095, Note_on_c, 9, 81, 0
11, 49200, Note_on_c, 9, 80, 100
11, 49215, Note_on_c, 9, 80, 0
11, 49260, Note_on_c, 9, 80, 100
11, 49275, Note_on_c, 9, 80, 0
11, 49320, Note_on_c, 9, 81, 100
11, 49335, Note_on_c, 9, 81, 0
11, 49440, Note_on_c, 9, 80, 100
11, 49455, Note_on_c, 9, 80, 0
11, 49560, Note_on_c, 9, 81, 100
11, 49575, Note_on_c, 9, 81, 0
11, 49680, Note_on_c, 9, 80, 100
11, 49695, Note_on_c, 9, 80, 0
11, 49740, Note_on_c, 9, 80, 100
11, 49755, Note_on_c, 9, 80, 0
11, 49800, Note_on_c, 9, 81, 100
11, 49815, Note_on_c, 9, 81, 0
11, 49920, Note_on_c, 9, 80, 100
11, 49935, Note_on_c, 9, 80, 0
11, 50040, Note_on_c, 9, 81, 100
11, 50055, Note_on_c, 9, 81, 0
11, 50160, Note_on_c, 9, 80, 100
11, 50175, Note_on_c, 9, 80, 0
11, 50220, Note_on_c, 9, 80, 100
11, 50235, Note_on_c, 9, 80, 0
11, 50280, Note_on_c, 9, 81, 100
11, 50295, Note_on_c, 9, 81, 0
11, 50340, Note_on_c, 9, 80, 100
11, 50355, Note_on_c, 9, 80, 0
11, 50360, Note_on_c, 9, 80, 100
11, 50375, Note_on_c, 9, 80, 0
11, 50380, Note_on_c, 9, 80, 100
11, 50395, Note_on_c, 9, 80, 0
11, 50400, Note_on_c, 9, 80, 100
11, 50415, Note_on_c, 9, 80, 0
11, 50520, Note_on_c, 9, 81, 100
11, 50535, Note_on_c, 9, 81, 0
11, 50640, Note_on_c, 9, 80, 100
11, 50655, Note_on_c, 9, 80, 0
11, 50700, Note_on_c, 9, 80, 100
11, 50715, Note_on_c, 9, 80, 0
11, 50760, Note_on_c, 9, 81, 100
11, 50775, Note_on_c, 9, 81, 0
11, 50820, Note_on_c, 9, 80, 100
11, 50835, Note_on_c, 9, 80, 0
11, 50880, Note_on_c, 9, 80, 100
11, 50895, Note_on_c, 9, 80, 0
11, 51000, Note_on_c, 9, 81, 100
11, 51015, Note_on_c, 9, 81, 0
11, 51120, Note_on_c, 9, 80, 100
11, 51135, Note_on_c, 9, 80, 0
11, 51180, Note_on_c, 9, 80, 100
11, 51195, Note_on_c, 9, 80, 0
11, 51240, Note_on_c, 9, 81, 100
11, 51255, Note_on_c, 9, 81, 0
11, 51360, Note_on_c, 9, 80, 100
11, 51375, Note_on_c, 9, 80, 0
11, 51480, Note_on_c, 9, 81, 100
11, 51495, Note_on_c, 9, 81, 0
11, 51600, Note_on_c, 9, 80, 100
11, 51615, Note_on_c, 9, 80, 0
11, 51660, Note_on_c, 9, 80, 100
11, 51675, Note_on_c, 9, 80, 0
11, 51720, Note_on_c, 9, 81, 100
11, 51735, Note_on_c, 9, 81, 0
11, 51840, Note_on_c, 9, 80, 100
11, 51855, Note_on_c, 9, 80, 0
11, 51960, Note_on_c, 9, 81, 100
11, 51975, Note_on_c, 9, 81, 0
11, 52080, Note_on_c, 9, 80, 100
11, 52095, Note_on_c, 9, 80, 0
11, 52140, Note_on_c, 9, 80, 100
11, 52155, Note_on_c, 9, 80, 0
11, 52200, Note_on_c, 9, 81, 100
11, 52215, Note_on_c, 9, 81, 0
11, 52260, Note_on_c, 9, 80, 100
11, 52275, Note_on_c, 9, 80, 0
11, 52280, Note_on_c, 9, 80, 100
11, 52295, Note_on_c, 9, 80, 0
11, 52300, Note_on_c, 9, 80, 100
11, 52315, Note_on_c, 9, 80, 0
11, 52320, Note_on_c, 9, 80, 100
11, 52335, Note_on_c, 9, 80, 0
11, 52440, Note_on_c, 9, 81, 100
11, 52455, Note_on_c, 9, 81, 0
11, 52560, Note_on_c, 9, 80, 100
11, 52575, Note_on_c, 9, 80, 0
11, 52620, Note_on_c, 9, 80, 100
11, 52635, Note_on_c, 9, 80, 0
11, 52680, Note_on_c, 9, 81, 100
11, 52695, Note_on_c, 9, 81, 0
11, 52740, Note_on_c, 9, 80, 100
11, 52755, Note_on_c, 9, 80, 0
11, 52800, Note_on_c, 9, 40, 100
11, 52800, Note_on_c, 9, 57, 100
11, 52800, Note_on_c, 9, 59, 100
11, 52815, Note_on_c, 9, 59, 0
11, 52815, Note_on_c, 9, 57, 0
11, 52815, Note_on_c, 9, 40, 0
11, 52860, Note_on_c, 9, 40, 66
11, 52875, Note_on_c, 9, 40, 0
11, 52890, Note_on_c, 9, 40, 66
11, 52905, Note_on_c, 9, 40, 0
11, 52920, Note_on_c, 9, 40, 81
11, 52935, Note_on_c, 9, 40, 0
11, 52980, Note_on_c, 9, 40, 100
11, 52995, Note_on_c, 9, 40, 0
11, 53160, Note_on_c, 9, 40, 100
11, 53175, Note_on_c, 9, 40, 0
11, 53220, Note_on_c, 9, 40, 66
11, 53235, Note_on_c, 9, 40, 0
11, 53250, Note_on_c, 9, 40, 66
11, 53265, Note_on_c, 9, 40, 0
11, 53280, Note_on_c, 9, 40, 100
11, 53295, Note_on_c, 9, 40, 0
11, 53340, Note_on_c, 9, 40, 66
11, 53355, Note_on_c, 9, 40, 0
11, 53370, Note_on_c, 9, 40, 66
11, 53385, Note_on_c, 9, 40, 0
11, 53400, Note_on_c, 9, 40, 81
11, 53415, Note_on_c, 9, 40, 0
11, 53460, Note_on_c, 9, 40, 100
11, 53475, Note_on_c, 9, 40, 0
11, 53640, Note_on_c, 9, 40, 100
11, 53655, Note_on_c, 9, 40, 0
11, 53700, Note_on_c, 9, 40, 66
11, 53715, Note_on_c, 9, 40, 0
11, 53730, Note_on_c, 9, 40, 66
11, 53745, Note_on_c, 9, 40, 0
11, 53760, Note_on_c, 9, 40, 100
11, 53775, Note_on_c, 9, 40, 0
11, 53820, Note_on_c, 9, 40, 66
11, 53835, Note_on_c, 9, 40, 0
11, 53850, Note_on_c, 9, 40, 66
11, 53865, Note_on_c, 9, 40, 0
11, 53880, Note_on_c, 9, 40, 81
11, 53895, Note_on_c, 9, 40, 0
11, 53940, Note_on_c, 9, 40, 100
11, 53955, Note_on_c, 9, 40, 0
11, 54120, Note_on_c, 9, 40, 100
11, 54135, Note_on_c, 9, 40, 0
11, 54180, Note_on_c, 9, 40, 66
11, 54195, Note_on_c, 9, 40, 0
11, 54210, Note_on_c, 9, 40, 66
11, 54225, Note_on_c, 9, 40, 0
11, 54240, Note_on_c, 9, 40, 100
11, 54255, Note_on_c, 9, 40, 0
11, 54300, Note_on_c, 9, 40, 66
11, 54315, Note_on_c, 9, 40, 0
11, 54330, Note_on_c, 9, 40, 66
11, 54345, Note_on_c, 9, 40, 0
11, 54360, Note_on_c, 9, 40, 81
11, 54375, Note_on_c, 9, 40, 0
11, 54420, Note_on_c, 9, 40, 100
11, 54435, Note_on_c, 9, 40, 0
11, 54600, Note_on_c, 9, 40, 100
11, 54615, Note_on_c, 9, 40, 0
11, 54660, Note_on_c, 9, 40, 66
11, 54675, Note_on_c, 9, 40, 0
11, 54690, Note_on_c, 9, 40, 66
11, 54705, Note_on_c, 9, 40, 0
11, 54720, Note_on_c, 9, 40, 100
11, 54735, Note_on_c, 9, 40, 0
11, 54780, Note_on_c, 9, 40, 66
11, 54795, Note_on_c, 9, 40, 0
11, 54810, Note_on_c, 9, 40, 66
11, 54825, Note_on_c, 9, 40, 0
11, 54840, Note_on_c, 9, 40, 81
11, 54855, Note_on_c, 9, 40, 0
11, 54900, Note_on_c, 9, 40, 100
11, 54915, Note_on_c, 9, 40, 0
11, 55080, Note_on_c, 9, 40, 100
11, 55095, Note_on_c, 9, 40, 0
11, 55140, Note_on_c, 9, 40, 66
11, 55155, Note_on_c, 9, 40, 0
11, 55170, Note_on_c, 9, 40, 66
11, 55185, Note_on_c, 9, 40, 0
11, 55200, Note_on_c, 9, 40, 100
11, 55215, Note_on_c, 9, 40, 0
11, 55260, Note_on_c, 9, 40, 66
11, 55275, Note_on_c, 9, 40, 0
11, 55290, Note_on_c, 9, 40, 66
11, 55305, Note_on_c, 9, 40, 0
11, 55320, Note_on_c, 9, 40, 81
11, 55335, Note_on_c, 9, 40, 0
11, 55380, Note_on_c, 9, 40, 100
11, 55395, Note_on_c, 9, 40, 0
11, 55560, Note_on_c, 9, 40, 100
11, 55575, Note_on_c, 9, 40, 0
11, 55620, Note_on_c, 9, 40, 66
11, 55635, Note_on_c, 9, 40, 0
11, 55650, Note_on_c, 9, 40, 66
11, 55665, Note_on_c, 9, 40, 0
11, 55680, Note_on_c, 9, 40, 100
11, 55695, Note_on_c, 9, 40, 0
11, 55740, Note_on_c, 9, 40, 66
11, 55755, Note_on_c, 9, 40, 0
11, 55770, Note_on_c, 9, 40, 66
11, 55785, Note_on_c, 9, 40, 0
11, 55800, Note_on_c, 9, 40, 81
11, 55815, Note_on_c, 9, 40, 0
11, 55860, Note_on_c, 9, 40, 100
11, 55875, Note_on_c, 9, 40, 0
11, 55920, Note_on_c, 9, 40, 66
11, 55935, Note_on_c, 9, 40, 0
11, 55950, Note_on_c, 9, 40, 66
11, 55965, Note_on_c, 9, 40, 0
11, 55980, Note_on_c, 9, 40, 81
11, 55995, Note_on_c, 9, 40, 0
11, 56040, Note_on_c, 9, 40, 100
11, 56055, Note_on_c, 9, 40, 0
11, 56100, Note_on_c, 9, 40, 66
11, 56115, Note_on_c, 9, 40, 0
11, 56130, Note_on_c, 9, 40, 66
11, 56145, Note_on_c, 9, 40, 0
11, 56160, Note_on_c, 9, 40, 80
11, 56175, Note_on_c, 9, 40, 0
11, 56220, Note_on_c, 9, 40, 100
11, 56235, Note_on_c, 9, 40, 0
11, 56280, Note_on_c, 9, 40, 66
11, 56295, Note_on_c, 9, 40, 0
11, 56310, Note_on_c, 9, 40, 66
11, 56325, Note_on_c, 9, 40, 0
11, 56340, Note_on_c, 9, 40, 81
11, 56355, Note_on_c, 9, 40, 0
11, 56400, Note_on_c, 9, 40, 100
11, 56415, Note_on_c, 9, 40, 0
11, 56460, Note_on_c, 9, 40, 66
11, 56475, Note_on_c, 9, 40, 0
11, 56490, Note_on_c, 9, 40, 66
11, 56505, Note_on_c, 9, 40, 0
11, 56520, Note_on_c, 9, 40, 81
11, 56535, Note_on_c, 9, 40, 0
11, 56550, Note_on_c, 9, 40, 100
11, 56565, Note_on_c, 9, 40, 0
11, 56580, Note_on_c, 9, 40, 66
11, 56595, Note_on_c, 9, 40, 0
11, 56610, Note_on_c, 9, 40, 66
11, 56625, Note_on_c, 9, 40, 0
11, 56640, Control_c, 9, 11, 127
11, 56640, Note_on_c, 9, 57, 100
11, 56640, Note_on_c, 9, 80, 100
11, 56640, Note_on_c, 9, 59, 100
11, 56640, Note_on_c, 9, 38, 100
11, 56655, Note_on_c, 9, 38, 0
11, 56655, Note_on_c, 9, 57, 0
11, 56655, Note_on_c, 9, 80, 0
11, 56655, Note_on_c, 9, 59, 0
11, 56670, Control_c, 9, 11, 126
11, 56690, Control_c, 9, 11, 125
11, 56710, Control_c, 9, 11, 124
11, 56740, Control_c, 9, 11, 123
11, 56760, Control_c, 9, 11, 122
11, 56760, Note_on_c, 9, 80, 100
11, 56775, Note_on_c, 9, 80, 0
11, 56780, Control_c, 9, 11, 121
11, 56800, Control_c, 9, 11, 120
11, 56817, Note_on_c, 9, 38, 52
11, 56820, Note_on_c, 9, 38, 61
11, 56820, Note_on_c, 9, 80, 100
11, 56827, Note_on_c, 9, 38, 80
11, 56830, Control_c, 9, 11, 119
11, 56832, Note_on_c, 9, 38, 0
11, 56835, Note_on_c, 9, 38, 0
11, 56835, Note_on_c, 9, 80, 0
11, 56836, Note_on_c, 9, 38, 100
11, 56842, Note_on_c, 9, 38, 0
11, 56850, Control_c, 9, 11, 118
11, 56851, Note_on_c, 9, 38, 0
11, 56870, Control_c, 9, 11, 117
11, 56890, Control_c, 9, 11, 116
11, 56920, Control_c, 9, 11, 115
11, 56940, Control_c, 9, 11, 114
11, 56940, Note_on_c, 9, 80, 100
11, 56955, Note_on_c, 9, 80, 0
11, 56960, Control_c, 9, 11, 113
11, 56990, Control_c, 9, 11, 112
11, 56997, Note_on_c, 9, 38, 49
11, 57000, Note_on_c, 9, 80, 100
11, 57000, Note_on_c, 9, 38, 58
11, 57007, Note_on_c, 9, 38, 76
11, 57010, Control_c, 9, 11, 111
11, 57012, Note_on_c, 9, 38, 0
11, 57015, Note_on_c, 9, 80, 0
11, 57015, Note_on_c, 9, 38, 0
11, 57016, Note_on_c, 9, 38, 99
11, 57022, Note_on_c, 9, 38, 0
11, 57030, Control_c, 9, 11, 110
11, 57031, Note_on_c, 9, 38, 0
11, 57050, Control_c, 9, 11, 109
11, 57080, Control_c, 9, 11, 108
11, 57100, Control_c, 9, 11, 107
11, 57120, Control_c, 9, 11, 106
11, 57120, Note_on_c, 9, 80, 100
11, 57135, Note_on_c, 9, 80, 0
11, 57140, Control_c, 9, 11, 105
11, 57170, Control_c, 9, 11, 104
11, 57180, Note_on_c, 9, 80, 100
11, 57190, Control_c, 9, 11, 103
11, 57195, Note_on_c, 9, 80, 0
11, 57210, Control_c, 9, 11, 102
11, 57230, Control_c, 9, 11, 101
11, 57260, Control_c, 9, 11, 100
11, 57280, Control_c, 9, 11, 99
11, 57300, Control_c, 9, 11, 98
11, 57300, Note_on_c, 9, 80, 100
11, 57315, Note_on_c, 9, 80, 0
11, 57330, Control_c, 9, 11, 97
11, 57350, Control_c, 9, 11, 96
11, 57360, Note_on_c, 9, 80, 100
11, 57370, Control_c, 9, 11, 95
11, 57375, Note_on_c, 9, 80, 0
11, 57390, Control_c, 9, 11, 94
11, 57420, Control_c, 9, 11, 93
11, 57420, Note_on_c, 9, 80, 100
11, 57435, Note_on_c, 9, 80, 0
11, 57440, Control_c, 9, 11, 92
11, 57460, Control_c, 9, 11, 91
11, 57480, Control_c, 9, 11, 90
11, 57480, Note_on_c, 9, 81, 100
11, 57495, Note_on_c, 9, 81, 0
11, 57510, Control_c, 9, 11, 89
11, 57530, Control_c, 9, 11, 88
11, 57550, Control_c, 9, 11, 87
11, 57570, Control_c, 9, 11, 86
11, 57597, Note_on_c, 9, 38, 52
11, 57600, Control_c, 9, 11, 85
11, 57600, Note_on_c, 9, 38, 61
11, 57600, Note_on_c, 9, 80, 100
11, 57600, Note_on_c, 9, 80, 100
11, 57607, Note_on_c, 9, 38, 80
11, 57612, Note_on_c, 9, 38, 0
11, 57615, Note_on_c, 9, 80, 0
11, 57615, Note_on_c, 9, 38, 0
11, 57615, Note_on_c, 9, 80, 0
11, 57616, Note_on_c, 9, 38, 100
11, 57620, Control_c, 9, 11, 84
11, 57622, Note_on_c, 9, 38, 0
11, 57631, Note_on_c, 9, 38, 0
11, 57640, Control_c, 9, 11, 83
11, 57670, Control_c, 9, 11, 82
11, 57690, Control_c, 9, 11, 81
11, 57710, Control_c, 9, 11, 80
11, 57720, Note_on_c, 9, 80, 100
11, 57730, Control_c, 9, 11, 79
11, 57735, Note_on_c, 9, 80, 0
11, 57760, Control_c, 9, 11, 78
11, 57777, Note_on_c, 9, 38, 52
11, 57780, Control_c, 9, 11, 77
11, 57780, Note_on_c, 9, 80, 100
11, 57780, Note_on_c, 9, 38, 61
11, 57787, Note_on_c, 9, 38, 80
11, 57792, Note_on_c, 9, 38, 0
11, 57795, Note_on_c, 9, 80, 0
11, 57795, Note_on_c, 9, 38, 0
11, 57796, Note_on_c, 9, 38, 100
11, 57800, Control_c, 9, 11, 76
11, 57802, Note_on_c, 9, 38, 0
11, 57811, Note_on_c, 9, 38, 0
11, 57820, Control_c, 9, 11, 75
11, 57850, Control_c, 9, 11, 74
11, 57870, Control_c, 9, 11, 73
11, 57890, Control_c, 9, 11, 72
11, 57900, Note_on_c, 9, 80, 100
11, 57910, Control_c, 9, 11, 71
11, 57915, Note_on_c, 9, 80, 0
11, 57940, Control_c, 9, 11, 70
11, 57957, Note_on_c, 9, 38, 49
11, 57960, Control_c, 9, 11, 69
11, 57960, Note_on_c, 9, 80, 100
11, 57960, Note_on_c, 9, 38, 58
11, 57967, Note_on_c, 9, 38, 76
11, 57972, Note_on_c, 9, 38, 0
11, 57975, Note_on_c, 9, 80, 0
11, 57975, Note_on_c, 9, 38, 0
11, 57976, Note_on_c, 9, 38, 99
11, 57980, Control_c, 9, 11, 68
11, 57982, Note_on_c, 9, 38, 0
11, 57991, Note_on_c, 9, 38, 0
11, 58010, Control_c, 9, 11, 67
11, 58030, Control_c, 9, 11, 66
11, 58050, Control_c, 9, 11, 65
11, 58070, Control_c, 9, 11, 64
11, 58080, Note_on_c, 9, 80, 100
11, 58095, Note_on_c, 9, 80, 0
11, 58100, Control_c, 9, 11, 63
11, 58120, Control_c, 9, 11, 62
11, 58140, Control_c, 9, 11, 61
11, 58140, Note_on_c, 9, 80, 100
11, 58155, Note_on_c, 9, 80, 0
11, 58160, Control_c, 9, 11, 60
11, 58190, Control_c, 9, 11, 59
11, 58210, Control_c, 9, 11, 58
11, 58230, Control_c, 9, 11, 57
11, 58260, Control_c, 9, 11, 56
11, 58260, Note_on_c, 9, 80, 100
11, 58275, Note_on_c, 9, 80, 0
11, 58280, Control_c, 9, 11, 55
11, 58300, Control_c, 9, 11, 54
11, 58320, Control_c, 9, 11, 53
11, 58320, Note_on_c, 9, 80, 100
11, 58335, Note_on_c, 9, 80, 0
11, 58350, Control_c, 9, 11, 52
11, 58370, Control_c, 9, 11, 51
11, 58380, Note_on_c, 9, 80, 100
11, 58390, Control_c, 9, 11, 50
11, 58395, Note_on_c, 9, 80, 0
11, 58410, Control_c, 9, 11, 49
11, 58440, Control_c, 9, 11, 48
11, 58440, Note_on_c, 9, 81, 100
11, 58455, Note_on_c, 9, 81, 0
11, 58460, Control_c, 9, 11, 47
11, 58480, Control_c, 9, 11, 46
11, 58500, Control_c, 9, 11, 45
11, 58530, Control_c, 9, 11, 44
11, 58550, Control_c, 9, 11, 43
11, 58557, Note_on_c, 9, 38, 52
11, 58560, Note_on_c, 9, 38, 61
11, 58560, Note_on_c, 9, 80, 100
11, 58560, Note_on_c, 9, 80, 100
11, 58567, Note_on_c, 9, 38, 80
11, 58570, Control_c, 9, 11, 42
11, 58572, Note_on_c, 9, 38, 0
11, 58575, Note_on_c, 9, 80, 0
11, 58575, Note_on_c, 9, 38, 0
11, 58575, Note_on_c, 9, 80, 0
11, 58576, Note_on_c, 9, 38, 100
11, 58582, Note_on_c, 9, 38, 0
11, 58591, Note_on_c, 9, 38, 0
11, 58600, Control_c, 9, 11, 41
11, 58620, Control_c, 9, 11, 40
11, 58640, Control_c, 9, 11, 39
11, 58660, Control_c, 9, 11, 38
11, 58680, Note_on_c, 9, 80, 100
11, 58690, Control_c, 9, 11, 37
11, 58695, Note_on_c, 9, 80, 0
11, 58710, Control_c, 9, 11, 36
11, 58730, Control_c, 9, 11, 35
11, 58737, Note_on_c, 9, 38, 52
11, 58740, Note_on_c, 9, 38, 61
11, 58740, Note_on_c, 9, 80, 100
11, 58747, Note_on_c, 9, 38, 80
11, 58750, Control_c, 9, 11, 34
11, 58752, Note_on_c, 9, 38, 0
11, 58755, Note_on_c, 9, 38, 0
11, 58755, Note_on_c, 9, 80, 0
11, 58756, Note_on_c, 9, 38, 100
11, 58762, Note_on_c, 9, 38, 0
11, 58771, Note_on_c, 9, 38, 0
11, 58780, Control_c, 9, 11, 33
11, 58800, Control_c, 9, 11, 32
11, 58820, Control_c, 9, 11, 31
11, 58840, Control_c, 9, 11, 30
11, 58860, Note_on_c, 9, 80, 100
11, 58870, Control_c, 9, 11, 29
11, 58875, Note_on_c, 9, 80, 0
11, 58890, Control_c, 9, 11, 28
11, 58910, Control_c, 9, 11, 27
11, 58917, Note_on_c, 9, 38, 49
11, 58920, Note_on_c, 9, 80, 100
11, 58920, Note_on_c, 9, 38, 58
11, 58927, Note_on_c, 9, 38, 76
11, 58932, Note_on_c, 9, 38, 0
11, 58935, Note_on_c, 9, 80, 0
11, 58935, Note_on_c, 9, 38, 0
11, 58936, Note_on_c, 9, 38, 99
11, 58940, Control_c, 9, 11, 26
11, 58942, Note_on_c, 9, 38, 0
11, 58951, Note_on_c, 9, 38, 0
11, 58960, Control_c, 9, 11, 25
11, 58980, Control_c, 9, 11, 24
11, 59000, Control_c, 9, 11, 23
11, 59030, Control_c, 9, 11, 22
11, 59040, Note_on_c, 9, 80, 100
11, 59050, Control_c, 9, 11, 21
11, 59055, Note_on_c, 9, 80, 0
11, 59070, Control_c, 9, 11, 20
11, 59090, Control_c, 9, 11, 19
11, 59100, Note_on_c, 9, 80, 100
11, 59115, Note_on_c, 9, 80, 0
11, 59120, Control_c, 9, 11, 18
11, 59140, Control_c, 9, 11, 17
11, 59160, Control_c, 9, 11, 16
11, 59180, Control_c, 9, 11, 15
11, 59210, Control_c, 9, 11, 14
11, 59220, Note_on_c, 9, 80, 100
11, 59230, Control_c, 9, 11, 13
11, 59235, Note_on_c, 9, 80, 0
11, 59250, Control_c, 9, 11, 12
11, 59280, Control_c, 9, 11, 11
11, 59280, Note_on_c, 9, 80, 100
11, 59295, Note_on_c, 9, 80, 0
11, 59300, Control_c, 9, 11, 10
11, 59320, Control_c, 9, 11, 9
11, 59340, Control_c, 9, 11, 8
11, 59340, Note_on_c, 9, 80, 100
11, 59355, Note_on_c, 9, 80, 0
11, 59370, Control_c, 9, 11, 7
11, 59390, Control_c, 9, 11, 6
11, 59400, Note_on_c, 9, 81, 100
11, 59410, Control_c, 9, 11, 5
11, 59415, Note_on_c, 9, 81, 0
11, 59430, Control_c, 9, 11, 4
11, 59460, Control_c, 9, 11, 3
11, 59480, Control_c, 9, 11, 2
11, 59500, Control_c, 9, 11, 1
11, 59520, Control_c, 9, 11, 0
11, 59520, End_track
12, 0, Start_track
12, 0, Title_t, "A11-Timpani     "
12, 170, Control_c, 10, 0, 0
12, 171, Control_c, 10, 32, 3
12, 172, Program_c, 10, 47
12, 173, Control_c, 10, 7, 110
12, 173, Control_c, 10, 10, 64
12, 176, Control_c, 10, 91, 60
12, 177, Control_c, 10, 93, 20
12, 2760, Note_on_c, 10, 43, 110
12, 2784, Note_on_c, 10, 43, 0
12, 2790, Note_on_c, 10, 43, 110
12, 2814, Note_on_c, 10, 43, 0
12, 2820, Note_on_c, 10, 43, 110
12, 2844, Note_on_c, 10, 43, 0
12, 2850, Note_on_c, 10, 43, 110
12, 2874, Note_on_c, 10, 43, 0
12, 2880, Note_on_c, 10, 48, 110
12, 2904, Note_on_c, 10, 48, 0
12, 10440, Note_on_c, 10, 43, 110
12, 10464, Note_on_c, 10, 43, 0
12, 10470, Note_on_c, 10, 43, 110
12, 10494, Note_on_c, 10, 43, 0
12, 10500, Note_on_c, 10, 43, 110
12, 10524, Note_on_c, 10, 43, 0
12, 10530, Note_on_c, 10, 43, 110
12, 10554, Note_on_c, 10, 43, 0
12, 10560, Note_on_c, 10, 48, 110
12, 10584, Note_on_c, 10, 48, 0
12, 10740, Note_on_c, 10, 43, 110
12, 10764, Note_on_c, 10, 43, 0
12, 10920, Note_on_c, 10, 48, 110
12, 10944, Note_on_c, 10, 48, 0
12, 11520, Note_on_c, 10, 48, 110
12, 11544, Note_on_c, 10, 48, 0
12, 11700, Note_on_c, 10, 43, 110
12, 11724, Note_on_c, 10, 43, 0
12, 11880, Note_on_c, 10, 48, 110
12, 11904, Note_on_c, 10, 48, 0
12, 12060, Note_on_c, 10, 43, 110
12, 12084, Note_on_c, 10, 43, 0
12, 12180, Note_on_c, 10, 43, 110
12, 12204, Note_on_c, 10, 43, 0
12, 12240, Note_on_c, 10, 48, 110
12, 12264, Note_on_c, 10, 48, 0
12, 12360, Note_on_c, 10, 43, 110
12, 12384, Note_on_c, 10, 43, 0
12, 12480, Note_on_c, 10, 45, 110
12, 12504, Note_on_c, 10, 45, 0
12, 12660, Note_on_c, 10, 52, 110
12, 12684, Note_on_c, 10, 52, 0
12, 12840, Note_on_c, 10, 45, 110
12, 12864, Note_on_c, 10, 45, 0
12, 13440, Note_on_c, 10, 43, 110
12, 13464, Note_on_c, 10, 43, 0
12, 13620, Note_on_c, 10, 50, 110
12, 13644, Note_on_c, 10, 50, 0
12, 13800, Note_on_c, 10, 43, 110
12, 13824, Note_on_c, 10, 43, 0
12, 13980, Note_on_c, 10, 43, 110
12, 14004, Note_on_c, 10, 43, 0
12, 14100, Note_on_c, 10, 43, 110
12, 14124, Note_on_c, 10, 43, 0
12, 14160, Note_on_c, 10, 50, 110
12, 14184, Note_on_c, 10, 50, 0
12, 14280, Note_on_c, 10, 43, 110
12, 14304, Note_on_c, 10, 43, 0
12, 14400, Note_on_c, 10, 52, 110
12, 14424, Note_on_c, 10, 52, 0
12, 14580, Note_on_c, 10, 47, 110
12, 14604, Note_on_c, 10, 47, 0
12, 14760, Note_on_c, 10, 52, 110
12, 14784, Note_on_c, 10, 52, 0
12, 15360, Note_on_c, 10, 50, 110
12, 15384, Note_on_c, 10, 50, 0
12, 15540, Note_on_c, 10, 50, 110
12, 15564, Note_on_c, 10, 50, 0
12, 15720, Note_on_c, 10, 45, 110
12, 15744, Note_on_c, 10, 45, 0
12, 15900, Note_on_c, 10, 45, 110
12, 15924, Note_on_c, 10, 45, 0
12, 16020, Note_on_c, 10, 45, 110
12, 16044, Note_on_c, 10, 45, 0
12, 16080, Note_on_c, 10, 50, 110
12, 16104, Note_on_c, 10, 50, 0
12, 16200, Note_on_c, 10, 45, 110
12, 16224, Note_on_c, 10, 45, 0
12, 16320, Note_on_c, 10, 50, 110
12, 16344, Note_on_c, 10, 50, 0
12, 16500, Note_on_c, 10, 45, 110
12, 16524, Note_on_c, 10, 45, 0
12, 16680, Note_on_c, 10, 50, 110
12, 16704, Note_on_c, 10, 50, 0
12, 17280, Note_on_c, 10, 50, 110
12, 17304, Note_on_c, 10, 50, 0
12, 17460, Note_on_c, 10, 50, 110
12, 17484, Note_on_c, 10, 50, 0
12, 17640, Note_on_c, 10, 43, 110
12, 17664, Note_on_c, 10, 43, 0
12, 17820, Note_on_c, 10, 43, 110
12, 17844, Note_on_c, 10, 43, 0
12, 17940, Note_on_c, 10, 43, 110
12, 17964, Note_on_c, 10, 43, 0
12, 18000, Note_on_c, 10, 50, 110
12, 18024, Note_on_c, 10, 50, 0
12, 18120, Note_on_c, 10, 49, 110
12, 18144, Note_on_c, 10, 49, 0
12, 18240, Note_on_c, 10, 48, 110
12, 18264, Note_on_c, 10, 48, 0
12, 18960, Note_on_c, 10, 48, 12
12, 18980, Note_on_c, 10, 48, 0
12, 18980, Note_on_c, 10, 48, 21
12, 19000, Note_on_c, 10, 48, 0
12, 19000, Note_on_c, 10, 48, 29
12, 19020, Note_on_c, 10, 48, 0
12, 19020, Note_on_c, 10, 48, 38
12, 19040, Note_on_c, 10, 48, 0
12, 19040, Note_on_c, 10, 48, 46
12, 19060, Note_on_c, 10, 48, 0
12, 19060, Note_on_c, 10, 48, 54
12, 19080, Note_on_c, 10, 48, 0
12, 19080, Note_on_c, 10, 48, 63
12, 19100, Note_on_c, 10, 48, 0
12, 19100, Note_on_c, 10, 48, 71
12, 19120, Note_on_c, 10, 48, 0
12, 19120, Note_on_c, 10, 48, 80
12, 19140, Note_on_c, 10, 48, 0
12, 19140, Note_on_c, 10, 48, 88
12, 19160, Note_on_c, 10, 48, 0
12, 19160, Note_on_c, 10, 48, 96
12, 19180, Note_on_c, 10, 48, 0
12, 19180, Note_on_c, 10, 48, 105
12, 19200, Note_on_c, 10, 48, 0
12, 19200, Note_on_c, 10, 52, 110
12, 19224, Note_on_c, 10, 52, 0
12, 19920, Note_on_c, 10, 52, 110
12, 19944, Note_on_c, 10, 52, 0
12, 20040, Note_on_c, 10, 47, 110
12, 20064, Note_on_c, 10, 47, 0
12, 20160, Note_on_c, 10, 45, 110
12, 20184, Note_on_c, 10, 45, 0
12, 20880, Note_on_c, 10, 45, 16
12, 20900, Note_on_c, 10, 45, 0
12, 20900, Note_on_c, 10, 45, 24
12, 20920, Note_on_c, 10, 45, 0
12, 20920, Note_on_c, 10, 45, 32
12, 20940, Note_on_c, 10, 45, 0
12, 20940, Note_on_c, 10, 45, 40
12, 20960, Note_on_c, 10, 45, 0
12, 20960, Note_on_c, 10, 45, 48
12, 20980, Note_on_c, 10, 45, 0
12, 20980, Note_on_c, 10, 45, 56
12, 21000, Note_on_c, 10, 45, 0
12, 21000, Note_on_c, 10, 45, 64
12, 21020, Note_on_c, 10, 45, 0
12, 21020, Note_on_c, 10, 45, 72
12, 21040, Note_on_c, 10, 45, 0
12, 21040, Note_on_c, 10, 45, 80
12, 21060, Note_on_c, 10, 45, 0
12, 21060, Note_on_c, 10, 45, 88
12, 21080, Note_on_c, 10, 45, 0
12, 21080, Note_on_c, 10, 45, 96
12, 21100, Note_on_c, 10, 45, 0
12, 21100, Note_on_c, 10, 45, 104
12, 21120, Note_on_c, 10, 45, 0
12, 21120, Note_on_c, 10, 43, 110
12, 21144, Note_on_c, 10, 43, 0
12, 21840, Note_on_c, 10, 43, 22
12, 21860, Note_on_c, 10, 43, 0
12, 21860, Note_on_c, 10, 43, 29
12, 21880, Note_on_c, 10, 43, 0
12, 21880, Note_on_c, 10, 43, 37
12, 21900, Note_on_c, 10, 43, 0
12, 21900, Note_on_c, 10, 43, 44
12, 21920, Note_on_c, 10, 43, 0
12, 21920, Note_on_c, 10, 43, 51
12, 21940, Note_on_c, 10, 43, 0
12, 21940, Note_on_c, 10, 43, 59
12, 21960, Note_on_c, 10, 43, 0
12, 21960, Note_on_c, 10, 43, 66
12, 21980, Note_on_c, 10, 43, 0
12, 21980, Note_on_c, 10, 43, 74
12, 22000, Note_on_c, 10, 43, 0
12, 22000, Note_on_c, 10, 43, 81
12, 22020, Note_on_c, 10, 43, 0
12, 22020, Note_on_c, 10, 43, 89
12, 22040, Note_on_c, 10, 43, 0
12, 22040, Note_on_c, 10, 43, 96
12, 22060, Note_on_c, 10, 43, 0
12, 22060, Note_on_c, 10, 43, 104
12, 22080, Note_on_c, 10, 43, 0
12, 22080, Note_on_c, 10, 48, 110
12, 22104, Note_on_c, 10, 48, 0
12, 22800, Note_on_c, 10, 48, 12
12, 22820, Note_on_c, 10, 48, 0
12, 22820, Note_on_c, 10, 48, 21
12, 22840, Note_on_c, 10, 48, 0
12, 22840, Note_on_c, 10, 48, 29
12, 22860, Note_on_c, 10, 48, 0
12, 22860, Note_on_c, 10, 48, 38
12, 22880, Note_on_c, 10, 48, 0
12, 22880, Note_on_c, 10, 48, 46
12, 22900, Note_on_c, 10, 48, 0
12, 22900, Note_on_c, 10, 48, 54
12, 22920, Note_on_c, 10, 48, 0
12, 22920, Note_on_c, 10, 48, 63
12, 22940, Note_on_c, 10, 48, 0
12, 22940, Note_on_c, 10, 48, 71
12, 22960, Note_on_c, 10, 48, 0
12, 22960, Note_on_c, 10, 48, 80
12, 22980, Note_on_c, 10, 48, 0
12, 22980, Note_on_c, 10, 48, 88
12, 23000, Note_on_c, 10, 48, 0
12, 23000, Note_on_c, 10, 48, 96
12, 23020, Note_on_c, 10, 48, 0
12, 23020, Note_on_c, 10, 48, 105
12, 23040, Note_on_c, 10, 48, 0
12, 23040, Note_on_c, 10, 52, 110
12, 23064, Note_on_c, 10, 52, 0
12, 23760, Note_on_c, 10, 52, 110
12, 23784, Note_on_c, 10, 52, 0
12, 23880, Note_on_c, 10, 47, 110
12, 23904, Note_on_c, 10, 47, 0
12, 24000, Note_on_c, 10, 53, 110
12, 24024, Note_on_c, 10, 53, 0
12, 24720, Note_on_c, 10, 53, 20
12, 24740, Note_on_c, 10, 53, 0
12, 24740, Note_on_c, 10, 53, 27
12, 24760, Note_on_c, 10, 53, 0
12, 24760, Note_on_c, 10, 53, 35
12, 24780, Note_on_c, 10, 53, 0
12, 24780, Note_on_c, 10, 53, 43
12, 24800, Note_on_c, 10, 53, 0
12, 24800, Note_on_c, 10, 53, 50
12, 24820, Note_on_c, 10, 53, 0
12, 24820, Note_on_c, 10, 53, 58
12, 24840, Note_on_c, 10, 53, 0
12, 24840, Note_on_c, 10, 53, 66
12, 24860, Note_on_c, 10, 53, 0
12, 24860, Note_on_c, 10, 53, 73
12, 24880, Note_on_c, 10, 53, 0
12, 24880, Note_on_c, 10, 53, 81
12, 24900, Note_on_c, 10, 53, 0
12, 24900, Note_on_c, 10, 53, 89
12, 24920, Note_on_c, 10, 53, 0
12, 24920, Note_on_c, 10, 53, 96
12, 24940, Note_on_c, 10, 53, 0
12, 24940, Note_on_c, 10, 53, 104
12, 24960, Note_on_c, 10, 53, 0
12, 24960, Note_on_c, 10, 53, 110
12, 24980, Note_on_c, 10, 53, 0
12, 25080, Note_on_c, 10, 44, 23
12, 25100, Note_on_c, 10, 44, 0
12, 25100, Note_on_c, 10, 44, 28
12, 25120, Note_on_c, 10, 44, 0
12, 25120, Note_on_c, 10, 44, 33
12, 25140, Note_on_c, 10, 44, 0
12, 25140, Note_on_c, 10, 44, 38
12, 25160, Note_on_c, 10, 44, 0
12, 25160, Note_on_c, 10, 44, 43
12, 25180, Note_on_c, 10, 44, 0
12, 25180, Note_on_c, 10, 44, 48
12, 25200, Note_on_c, 10, 44, 0
12, 25200, Note_on_c, 10, 44, 53
12, 25220, Note_on_c, 10, 44, 0
12, 25220, Note_on_c, 10, 44, 58
12, 25240, Note_on_c, 10, 44, 0
12, 25240, Note_on_c, 10, 44, 63
12, 25260, Note_on_c, 10, 44, 0
12, 25260, Note_on_c, 10, 44, 67
12, 25280, Note_on_c, 10, 44, 0
12, 25280, Note_on_c, 10, 44, 72
12, 25300, Note_on_c, 10, 44, 0
12, 25300, Note_on_c, 10, 44, 77
12, 25320, Note_on_c, 10, 44, 0
12, 25320, Note_on_c, 10, 44, 79
12, 25340, Note_on_c, 10, 44, 0
12, 25340, Note_on_c, 10, 44, 70
12, 25360, Note_on_c, 10, 44, 0
12, 25360, Note_on_c, 10, 44, 62
12, 25380, Note_on_c, 10, 44, 0
12, 25380, Note_on_c, 10, 44, 53
12, 25400, Note_on_c, 10, 44, 0
12, 25400, Note_on_c, 10, 44, 44
12, 25420, Note_on_c, 10, 44, 0
12, 25420, Note_on_c, 10, 44, 36
12, 25440, Note_on_c, 10, 44, 0
12, 25440, Note_on_c, 10, 44, 27
12, 25460, Note_on_c, 10, 44, 0
12, 25460, Note_on_c, 10, 44, 30
12, 25480, Note_on_c, 10, 44, 0
12, 25480, Note_on_c, 10, 44, 39
12, 25500, Note_on_c, 10, 44, 0
12, 25500, Note_on_c, 10, 44, 48
12, 25520, Note_on_c, 10, 44, 0
12, 25520, Note_on_c, 10, 44, 57
12, 25540, Note_on_c, 10, 44, 0
12, 25540, Note_on_c, 10, 44, 66
12, 25560, Note_on_c, 10, 44, 0
12, 25560, Note_on_c, 10, 44, 75
12, 25580, Note_on_c, 10, 44, 0
12, 25580, Note_on_c, 10, 44, 69
12, 25600, Note_on_c, 10, 44, 0
12, 25600, Note_on_c, 10, 44, 58
12, 25620, Note_on_c, 10, 44, 0
12, 25620, Note_on_c, 10, 44, 47
12, 25640, Note_on_c, 10, 44, 0
12, 25640, Note_on_c, 10, 44, 36
12, 25660, Note_on_c, 10, 44, 0
12, 25660, Note_on_c, 10, 44, 26
12, 25680, Note_on_c, 10, 44, 0
12, 25680, Note_on_c, 10, 53, 34
12, 25700, Note_on_c, 10, 53, 0
12, 25700, Note_on_c, 10, 53, 41
12, 25720, Note_on_c, 10, 53, 0
12, 25720, Note_on_c, 10, 53, 47
12, 25740, Note_on_c, 10, 53, 0
12, 25740, Note_on_c, 10, 53, 54
12, 25760, Note_on_c, 10, 53, 0
12, 25760, Note_on_c, 10, 53, 61
12, 25780, Note_on_c, 10, 53, 0
12, 25780, Note_on_c, 10, 53, 68
12, 25800, Note_on_c, 10, 53, 0
12, 25800, Note_on_c, 10, 53, 75
12, 25820, Note_on_c, 10, 53, 0
12, 25820, Note_on_c, 10, 53, 82
12, 25840, Note_on_c, 10, 53, 0
12, 25840, Note_on_c, 10, 53, 89
12, 25860, Note_on_c, 10, 53, 0
12, 25860, Note_on_c, 10, 53, 96
12, 25880, Note_on_c, 10, 53, 0
12, 25880, Note_on_c, 10, 53, 102
12, 25900, Note_on_c, 10, 53, 0
12, 25900, Note_on_c, 10, 53, 109
12, 25920, Note_on_c, 10, 53, 0
12, 25920, Note_on_c, 10, 49, 110
12, 25944, Note_on_c, 10, 49, 0
12, 26100, Note_on_c, 10, 49, 110
12, 26124, Note_on_c, 10, 49, 0
12, 26280, Note_on_c, 10, 44, 110
12, 26304, Note_on_c, 10, 44, 0
12, 26400, Note_on_c, 10, 49, 110
12, 26424, Note_on_c, 10, 49, 0
12, 26580, Note_on_c, 10, 49, 110
12, 26604, Note_on_c, 10, 49, 0
12, 26880, Note_on_c, 10, 49, 110
12, 26904, Note_on_c, 10, 49, 0
12, 27060, Note_on_c, 10, 49, 110
12, 27084, Note_on_c, 10, 49, 0
12, 27240, Note_on_c, 10, 44, 110
12, 27264, Note_on_c, 10, 44, 0
12, 27360, Note_on_c, 10, 49, 110
12, 27384, Note_on_c, 10, 49, 0
12, 27540, Note_on_c, 10, 49, 110
12, 27564, Note_on_c, 10, 49, 0
12, 27840, Note_on_c, 10, 46, 110
12, 27864, Note_on_c, 10, 46, 0
12, 28020, Note_on_c, 10, 46, 110
12, 28044, Note_on_c, 10, 46, 0
12, 28200, Note_on_c, 10, 53, 110
12, 28224, Note_on_c, 10, 53, 0
12, 28320, Note_on_c, 10, 46, 110
12, 28344, Note_on_c, 10, 46, 0
12, 28500, Note_on_c, 10, 46, 110
12, 28524, Note_on_c, 10, 46, 0
12, 28800, Note_on_c, 10, 51, 110
12, 28824, Note_on_c, 10, 51, 0
12, 28980, Note_on_c, 10, 51, 110
12, 29004, Note_on_c, 10, 51, 0
12, 29160, Note_on_c, 10, 46, 110
12, 29184, Note_on_c, 10, 46, 0
12, 29280, Note_on_c, 10, 50, 110
12, 29304, Note_on_c, 10, 50, 0
12, 29460, Note_on_c, 10, 50, 110
12, 29484, Note_on_c, 10, 50, 0
12, 29640, Note_on_c, 10, 43, 110
12, 29664, Note_on_c, 10, 43, 0
12, 29760, Note_on_c, 10, 48, 110
12, 29784, Note_on_c, 10, 48, 0
12, 37320, Note_on_c, 10, 43, 110
12, 37344, Note_on_c, 10, 43, 0
12, 37350, Note_on_c, 10, 43, 110
12, 37374, Note_on_c, 10, 43, 0
12, 37380, Note_on_c, 10, 43, 110
12, 37404, Note_on_c, 10, 43, 0
12, 37410, Note_on_c, 10, 43, 110
12, 37434, Note_on_c, 10, 43, 0
12, 37440, Note_on_c, 10, 48, 110
12, 37464, Note_on_c, 10, 48, 0
12, 37620, Note_on_c, 10, 43, 110
12, 37644, Note_on_c, 10, 43, 0
12, 37800, Note_on_c, 10, 48, 110
12, 37824, Note_on_c, 10, 48, 0
12, 38400, Note_on_c, 10, 48, 110
12, 38424, Note_on_c, 10, 48, 0
12, 38580, Note_on_c, 10, 43, 110
12, 38604, Note_on_c, 10, 43, 0
12, 38760, Note_on_c, 10, 48, 110
12, 38784, Note_on_c, 10, 48, 0
12, 38940, Note_on_c, 10, 43, 110
12, 38964, Note_on_c, 10, 43, 0
12, 39060, Note_on_c, 10, 43, 110
12, 39084, Note_on_c, 10, 43, 0
12, 39120, Note_on_c, 10, 48, 110
12, 39144, Note_on_c, 10, 48, 0
12, 39240, Note_on_c, 10, 43, 110
12, 39264, Note_on_c, 10, 43, 0
12, 39360, Note_on_c, 10, 45, 110
12, 39384, Note_on_c, 10, 45, 0
12, 39540, Note_on_c, 10, 52, 110
12, 39564, Note_on_c, 10, 52, 0
12, 39720, Note_on_c, 10, 45, 110
12, 39744, Note_on_c, 10, 45, 0
12, 40320, Note_on_c, 10, 43, 110
12, 40344, Note_on_c, 10, 43, 0
12, 40500, Note_on_c, 10, 50, 110
12, 40524, Note_on_c, 10, 50, 0
12, 40680, Note_on_c, 10, 43, 110
12, 40704, Note_on_c, 10, 43, 0
12, 40860, Note_on_c, 10, 43, 110
12, 40884, Note_on_c, 10, 43, 0
12, 40980, Note_on_c, 10, 43, 110
12, 41004, Note_on_c, 10, 43, 0
12, 41040, Note_on_c, 10, 50, 110
12, 41064, Note_on_c, 10, 50, 0
12, 41160, Note_on_c, 10, 43, 110
12, 41184, Note_on_c, 10, 43, 0
12, 41280, Note_on_c, 10, 52, 110
12, 41304, Note_on_c, 10, 52, 0
12, 41460, Note_on_c, 10, 47, 110
12, 41484, Note_on_c, 10, 47, 0
12, 41640, Note_on_c, 10, 52, 110
12, 41664, Note_on_c, 10, 52, 0
12, 42240, Note_on_c, 10, 50, 110
12, 42264, Note_on_c, 10, 50, 0
12, 42420, Note_on_c, 10, 50, 110
12, 42444, Note_on_c, 10, 50, 0
12, 42600, Note_on_c, 10, 45, 110
12, 42624, Note_on_c, 10, 45, 0
12, 42780, Note_on_c, 10, 45, 110
12, 42804, Note_on_c, 10, 45, 0
12, 42900, Note_on_c, 10, 45, 110
12, 42924, Note_on_c, 10, 45, 0
12, 42960, Note_on_c, 10, 50, 110
12, 42984, Note_on_c, 10, 50, 0
12, 43080, Note_on_c, 10, 45, 110
12, 43104, Note_on_c, 10, 45, 0
12, 43200, Note_on_c, 10, 50, 110
12, 43224, Note_on_c, 10, 50, 0
12, 43380, Note_on_c, 10, 45, 110
12, 43404, Note_on_c, 10, 45, 0
12, 43560, Note_on_c, 10, 50, 110
12, 43584, Note_on_c, 10, 50, 0
12, 44160, Note_on_c, 10, 50, 110
12, 44184, Note_on_c, 10, 50, 0
12, 44340, Note_on_c, 10, 50, 110
12, 44364, Note_on_c, 10, 50, 0
12, 44520, Note_on_c, 10, 43, 110
12, 44544, Note_on_c, 10, 43, 0
12, 44700, Note_on_c, 10, 43, 110
12, 44724, Note_on_c, 10, 43, 0
12, 44820, Note_on_c, 10, 43, 110
12, 44844, Note_on_c, 10, 43, 0
12, 44880, Note_on_c, 10, 50, 110
12, 44904, Note_on_c, 10, 50, 0
12, 45000, Note_on_c, 10, 49, 110
12, 45024, Note_on_c, 10, 49, 0
12, 45120, Note_on_c, 10, 48, 110
12, 45144, Note_on_c, 10, 48, 0
12, 45840, Note_on_c, 10, 48, 12
12, 45860, Note_on_c, 10, 48, 0
12, 45860, Note_on_c, 10, 48, 21
12, 45880, Note_on_c, 10, 48, 0
12, 45880, Note_on_c, 10, 48, 29
12, 45900, Note_on_c, 10, 48, 0
12, 45900, Note_on_c, 10, 48, 38
12, 45920, Note_on_c, 10, 48, 0
12, 45920, Note_on_c, 10, 48, 46
12, 45940, Note_on_c, 10, 48, 0
12, 45940, Note_on_c, 10, 48, 54
12, 45960, Note_on_c, 10, 48, 0
12, 45960, Note_on_c, 10, 48, 63
12, 45980, Note_on_c, 10, 48, 0
12, 45980, Note_on_c, 10, 48, 71
12, 46000, Note_on_c, 10, 48, 0
12, 46000, Note_on_c, 10, 48, 80
12, 46020, Note_on_c, 10, 48, 0
12, 46020, Note_on_c, 10, 48, 88
12, 46040, Note_on_c, 10, 48, 0
12, 46040, Note_on_c, 10, 48, 96
12, 46060, Note_on_c, 10, 48, 0
12, 46060, Note_on_c, 10, 48, 105
12, 46080, Note_on_c, 10, 48, 0
12, 46080, Note_on_c, 10, 52, 110
12, 46104, Note_on_c, 10, 52, 0
12, 46800, Note_on_c, 10, 52, 110
12, 46824, Note_on_c, 10, 52, 0
12, 46920, Note_on_c, 10, 47, 110
12, 46944, Note_on_c, 10, 47, 0
12, 47040, Note_on_c, 10, 45, 110
12, 47064, Note_on_c, 10, 45, 0
12, 47760, Note_on_c, 10, 45, 16
12, 47780, Note_on_c, 10, 45, 0
12, 47780, Note_on_c, 10, 45, 24
12, 47800, Note_on_c, 10, 45, 0
12, 47800, Note_on_c, 10, 45, 32
12, 47820, Note_on_c, 10, 45, 0
12, 47820, Note_on_c, 10, 45, 40
12, 47840, Note_on_c, 10, 45, 0
12, 47840, Note_on_c, 10, 45, 48
12, 47860, Note_on_c, 10, 45, 0
12, 47860, Note_on_c, 10, 45, 56
12, 47880, Note_on_c, 10, 45, 0
12, 47880, Note_on_c, 10, 45, 64
12, 47900, Note_on_c, 10, 45, 0
12, 47900, Note_on_c, 10, 45, 72
12, 47920, Note_on_c, 10, 45, 0
12, 47920, Note_on_c, 10, 45, 80
12, 47940, Note_on_c, 10, 45, 0
12, 47940, Note_on_c, 10, 45, 88
12, 47960, Note_on_c, 10, 45, 0
12, 47960, Note_on_c, 10, 45, 96
12, 47980, Note_on_c, 10, 45, 0
12, 47980, Note_on_c, 10, 45, 104
12, 48000, Note_on_c, 10, 45, 0
12, 48000, Note_on_c, 10, 43, 110
12, 48024, Note_on_c, 10, 43, 0
12, 48720, Note_on_c, 10, 43, 22
12, 48740, Note_on_c, 10, 43, 0
12, 48740, Note_on_c, 10, 43, 29
12, 48760, Note_on_c, 10, 43, 0
12, 48760, Note_on_c, 10, 43, 37
12, 48780, Note_on_c, 10, 43, 0
12, 48780, Note_on_c, 10, 43, 44
12, 48800, Note_on_c, 10, 43, 0
12, 48800, Note_on_c, 10, 43, 51
12, 48820, Note_on_c, 10, 43, 0
12, 48820, Note_on_c, 10, 43, 59
12, 48840, Note_on_c, 10, 43, 0
12, 48840, Note_on_c, 10, 43, 66
12, 48860, Note_on_c, 10, 43, 0
12, 48860, Note_on_c, 10, 43, 74
12, 48880, Note_on_c, 10, 43, 0
12, 48880, Note_on_c, 10, 43, 81
12, 48900, Note_on_c, 10, 43, 0
12, 48900, Note_on_c, 10, 43, 89
12, 48920, Note_on_c, 10, 43, 0
12, 48920, Note_on_c, 10, 43, 96
12, 48940, Note_on_c, 10, 43, 0
12, 48940, Note_on_c, 10, 43, 104
12, 48960, Note_on_c, 10, 43, 0
12, 48960, Note_on_c, 10, 48, 110
12, 48984, Note_on_c, 10, 48, 0
12, 49680, Note_on_c, 10, 48, 12
12, 49700, Note_on_c, 10, 48, 0
12, 49700, Note_on_c, 10, 48, 21
12, 49720, Note_on_c, 10, 48, 0
12, 49720, Note_on_c, 10, 48, 29
12, 49740, Note_on_c, 10, 48, 0
12, 49740, Note_on_c, 10, 48, 38
12, 49760, Note_on_c, 10, 48, 0
12, 49760, Note_on_c, 10, 48, 46
12, 49780, Note_on_c, 10, 48, 0
12, 49780, Note_on_c, 10, 48, 54
12, 49800, Note_on_c, 10, 48, 0
12, 49800, Note_on_c, 10, 48, 63
12, 49820, Note_on_c, 10, 48, 0
12, 49820, Note_on_c, 10, 48, 71
12, 49840, Note_on_c, 10, 48, 0
12, 49840, Note_on_c, 10, 48, 80
12, 49860, Note_on_c, 10, 48, 0
12, 49860, Note_on_c, 10, 48, 88
12, 49880, Note_on_c, 10, 48, 0
12, 49880, Note_on_c, 10, 48, 96
12, 49900, Note_on_c, 10, 48, 0
12, 49900, Note_on_c, 10, 48, 105
12, 49920, Note_on_c, 10, 48, 0
12, 49920, Note_on_c, 10, 52, 110
12, 49944, Note_on_c, 10, 52, 0
12, 50640, Note_on_c, 10, 52, 110
12, 50664, Note_on_c, 10, 52, 0
12, 50760, Note_on_c, 10, 47, 110
12, 50784, Note_on_c, 10, 47, 0
12, 50880, Note_on_c, 10, 53, 110
12, 50904, Note_on_c, 10, 53, 0
12, 51600, Note_on_c, 10, 53, 20
12, 51620, Note_on_c, 10, 53, 0
12, 51620, Note_on_c, 10, 53, 27
12, 51640, Note_on_c, 10, 53, 0
12, 51640, Note_on_c, 10, 53, 35
12, 51660, Note_on_c, 10, 53, 0
12, 51660, Note_on_c, 10, 53, 43
12, 51680, Note_on_c, 10, 53, 0
12, 51680, Note_on_c, 10, 53, 50
12, 51700, Note_on_c, 10, 53, 0
12, 51700, Note_on_c, 10, 53, 58
12, 51720, Note_on_c, 10, 53, 0
12, 51720, Note_on_c, 10, 53, 66
12, 51740, Note_on_c, 10, 53, 0
12, 51740, Note_on_c, 10, 53, 73
12, 51760, Note_on_c, 10, 53, 0
12, 51760, Note_on_c, 10, 53, 81
12, 51780, Note_on_c, 10, 53, 0
12, 51780, Note_on_c, 10, 53, 89
12, 51800, Note_on_c, 10, 53, 0
12, 51800, Note_on_c, 10, 53, 96
12, 51820, Note_on_c, 10, 53, 0
12, 51820, Note_on_c, 10, 53, 104
12, 51840, Note_on_c, 10, 53, 0
12, 51840, Note_on_c, 10, 53, 110
12, 51860, Note_on_c, 10, 53, 0
12, 51960, Note_on_c, 10, 44, 23
12, 51980, Note_on_c, 10, 44, 0
12, 51980, Note_on_c, 10, 44, 28
12, 52000, Note_on_c, 10, 44, 0
12, 52000, Note_on_c, 10, 44, 33
12, 52020, Note_on_c, 10, 44, 0
12, 52020, Note_on_c, 10, 44, 38
12, 52040, Note_on_c, 10, 44, 0
12, 52040, Note_on_c, 10, 44, 43
12, 52060, Note_on_c, 10, 44, 0
12, 52060, Note_on_c, 10, 44, 48
12, 52080, Note_on_c, 10, 44, 0
12, 52080, Note_on_c, 10, 44, 53
12, 52100, Note_on_c, 10, 44, 0
12, 52100, Note_on_c, 10, 44, 58
12, 52120, Note_on_c, 10, 44, 0
12, 52120, Note_on_c, 10, 44, 63
12, 52140, Note_on_c, 10, 44, 0
12, 52140, Note_on_c, 10, 44, 67
12, 52160, Note_on_c, 10, 44, 0
12, 52160, Note_on_c, 10, 44, 72
12, 52180, Note_on_c, 10, 44, 0
12, 52180, Note_on_c, 10, 44, 77
12, 52200, Note_on_c, 10, 44, 0
12, 52200, Note_on_c, 10, 44, 79
12, 52220, Note_on_c, 10, 44, 0
12, 52220, Note_on_c, 10, 44, 70
12, 52240, Note_on_c, 10, 44, 0
12, 52240, Note_on_c, 10, 44, 62
12, 52260, Note_on_c, 10, 44, 0
12, 52260, Note_on_c, 10, 44, 53
12, 52280, Note_on_c, 10, 44, 0
12, 52280, Note_on_c, 10, 44, 44
12, 52300, Note_on_c, 10, 44, 0
12, 52300, Note_on_c, 10, 44, 36
12, 52320, Note_on_c, 10, 44, 0
12, 52320, Note_on_c, 10, 44, 27
12, 52340, Note_on_c, 10, 44, 0
12, 52340, Note_on_c, 10, 44, 30
12, 52360, Note_on_c, 10, 44, 0
12, 52360, Note_on_c, 10, 44, 39
12, 52380, Note_on_c, 10, 44, 0
12, 52380, Note_on_c, 10, 44, 48
12, 52400, Note_on_c, 10, 44, 0
12, 52400, Note_on_c, 10, 44, 57
12, 52420, Note_on_c, 10, 44, 0
12, 52420, Note_on_c, 10, 44, 66
12, 52440, Note_on_c, 10, 44, 0
12, 52440, Note_on_c, 10, 44, 75
12, 52460, Note_on_c, 10, 44, 0
12, 52460, Note_on_c, 10, 44, 69
12, 52480, Note_on_c, 10, 44, 0
12, 52480, Note_on_c, 10, 44, 58
12, 52500, Note_on_c, 10, 44, 0
12, 52500, Note_on_c, 10, 44, 47
12, 52520, Note_on_c, 10, 44, 0
12, 52520, Note_on_c, 10, 44, 36
12, 52540, Note_on_c, 10, 44, 0
12, 52540, Note_on_c, 10, 44, 26
12, 52560, Note_on_c, 10, 44, 0
12, 52560, Note_on_c, 10, 53, 34
12, 52580, Note_on_c, 10, 53, 0
12, 52580, Note_on_c, 10, 53, 41
12, 52600, Note_on_c, 10, 53, 0
12, 52600, Note_on_c, 10, 53, 47
12, 52620, Note_on_c, 10, 53, 0
12, 52620, Note_on_c, 10, 53, 54
12, 52640, Note_on_c, 10, 53, 0
12, 52640, Note_on_c, 10, 53, 61
12, 52660, Note_on_c, 10, 53, 0
12, 52660, Note_on_c, 10, 53, 68
12, 52680, Note_on_c, 10, 53, 0
12, 52680, Note_on_c, 10, 53, 75
12, 52700, Note_on_c, 10, 53, 0
12, 52700, Note_on_c, 10, 53, 82
12, 52720, Note_on_c, 10, 53, 0
12, 52720, Note_on_c, 10, 53, 89
12, 52740, Note_on_c, 10, 53, 0
12, 52740, Note_on_c, 10, 53, 96
12, 52760, Note_on_c, 10, 53, 0
12, 52760, Note_on_c, 10, 53, 102
12, 52780, Note_on_c, 10, 53, 0
12, 52780, Note_on_c, 10, 53, 109
12, 52800, Note_on_c, 10, 53, 0
12, 52800, Note_on_c, 10, 49, 110
12, 52824, Note_on_c, 10, 49, 0
12, 52980, Note_on_c, 10, 49, 110
12, 53004, Note_on_c, 10, 49, 0
12, 53160, Note_on_c, 10, 44, 110
12, 53184, Note_on_c, 10, 44, 0
12, 53280, Note_on_c, 10, 49, 110
12, 53304, Note_on_c, 10, 49, 0
12, 53460, Note_on_c, 10, 49, 110
12, 53484, Note_on_c, 10, 49, 0
12, 53760, Note_on_c, 10, 49, 110
12, 53784, Note_on_c, 10, 49, 0
12, 53940, Note_on_c, 10, 49, 110
12, 53964, Note_on_c, 10, 49, 0
12, 54120, Note_on_c, 10, 44, 110
12, 54144, Note_on_c, 10, 44, 0
12, 54240, Note_on_c, 10, 49, 110
12, 54264, Note_on_c, 10, 49, 0
12, 54420, Note_on_c, 10, 49, 110
12, 54444, Note_on_c, 10, 49, 0
12, 54720, Note_on_c, 10, 46, 110
12, 54744, Note_on_c, 10, 46, 0
12, 54900, Note_on_c, 10, 46, 110
12, 54924, Note_on_c, 10, 46, 0
12, 55080, Note_on_c, 10, 53, 110
12, 55104, Note_on_c, 10, 53, 0
12, 55200, Note_on_c, 10, 46, 110
12, 55224, Note_on_c, 10, 46, 0
12, 55380, Note_on_c, 10, 46, 110
12, 55404, Note_on_c, 10, 46, 0
12, 55680, Note_on_c, 10, 51, 110
12, 55704, Note_on_c, 10, 51, 0
12, 55860, Note_on_c, 10, 51, 110
12, 55884, Note_on_c, 10, 51, 0
12, 56040, Note_on_c, 10, 46, 110
12, 56064, Note_on_c, 10, 46, 0
12, 56160, Note_on_c, 10, 50, 110
12, 56184, Note_on_c, 10, 50, 0
12, 56340, Note_on_c, 10, 50, 110
12, 56364, Note_on_c, 10, 50, 0
12, 56520, Note_on_c, 10, 43, 110
12, 56544, Note_on_c, 10, 43, 0
12, 56640, Note_on_c, 10, 48, 110
12, 56664, Note_on_c, 10, 48, 0
12, 56664, End_track
13, 0, Start_track
13, 0, Title_t, "A12-Chiffer Lead"
13, 175, Control_c, 11, 0, 0
13, 176, Control_c, 11, 32, 3
13, 177, Program_c, 11, 83
13, 178, Control_c, 11, 7, 90
13, 178, Control_c, 11, 10, 106
13, 185, Control_c, 11, 91, 60
13, 186, Control_c, 11, 93, 0
13, 18240, Note_on_c, 11, 60, 90
13, 18267, Note_on_c, 11, 60, 0
13, 18270, Note_on_c, 11, 72, 90
13, 18297, Note_on_c, 11, 72, 0
13, 18300, Note_on_c, 11, 60, 90
13, 18327, Note_on_c, 11, 60, 0
13, 18360, Note_on_c, 11, 72, 90
13, 18414, Note_on_c, 11, 72, 0
13, 18420, Note_on_c, 11, 60, 90
13, 18447, Note_on_c, 11, 60, 0
13, 18450, Note_on_c, 11, 72, 90
13, 18477, Note_on_c, 11, 72, 0
13, 18480, Note_on_c, 11, 60, 90
13, 18507, Note_on_c, 11, 60, 0
13, 18510, Note_on_c, 11, 72, 90
13, 18537, Note_on_c, 11, 72, 0
13, 18540, Note_on_c, 11, 60, 90
13, 18567, Note_on_c, 11, 60, 0
13, 18600, Note_on_c, 11, 72, 90
13, 18654, Note_on_c, 11, 72, 0
13, 18660, Note_on_c, 11, 60, 90
13, 18687, Note_on_c, 11, 60, 0
13, 18690, Note_on_c, 11, 72, 90
13, 18717, Note_on_c, 11, 72, 0
13, 18720, Note_on_c, 11, 60, 90
13, 18747, Note_on_c, 11, 60, 0
13, 18750, Note_on_c, 11, 72, 90
13, 18777, Note_on_c, 11, 72, 0
13, 18780, Note_on_c, 11, 60, 90
13, 18807, Note_on_c, 11, 60, 0
13, 18840, Note_on_c, 11, 72, 90
13, 18894, Note_on_c, 11, 72, 0
13, 18900, Note_on_c, 11, 60, 90
13, 18927, Note_on_c, 11, 60, 0
13, 18930, Note_on_c, 11, 72, 90
13, 18957, Note_on_c, 11, 72, 0
13, 18960, Note_on_c, 11, 60, 90
13, 18987, Note_on_c, 11, 60, 0
13, 18990, Note_on_c, 11, 72, 90
13, 19017, Note_on_c, 11, 72, 0
13, 19020, Note_on_c, 11, 60, 90
13, 19047, Note_on_c, 11, 60, 0
13, 19080, Note_on_c, 11, 72, 90
13, 19134, Note_on_c, 11, 72, 0
13, 19140, Note_on_c, 11, 60, 90
13, 19167, Note_on_c, 11, 60, 0
13, 19170, Note_on_c, 11, 72, 90
13, 19197, Note_on_c, 11, 72, 0
13, 19200, Note_on_c, 11, 64, 90
13, 19227, Note_on_c, 11, 64, 0
13, 19230, Note_on_c, 11, 76, 90
13, 19257, Note_on_c, 11, 76, 0
13, 19260, Note_on_c, 11, 64, 90
13, 19287, Note_on_c, 11, 64, 0
13, 19320, Note_on_c, 11, 76, 90
13, 19374, Note_on_c, 11, 76, 0
13, 19380, Note_on_c, 11, 64, 90
13, 19407, Note_on_c, 11, 64, 0
13, 19410, Note_on_c, 11, 76, 90
13, 19437, Note_on_c, 11, 76, 0
13, 19440, Note_on_c, 11, 64, 90
13, 19467, Note_on_c, 11, 64, 0
13, 19470, Note_on_c, 11, 76, 90
13, 19497, Note_on_c, 11, 76, 0
13, 19500, Note_on_c, 11, 64, 90
13, 19527, Note_on_c, 11, 64, 0
13, 19560, Note_on_c, 11, 76, 90
13, 19614, Note_on_c, 11, 76, 0
13, 19620, Note_on_c, 11, 64, 90
13, 19647, Note_on_c, 11, 64, 0
13, 19650, Note_on_c, 11, 76, 90
13, 19677, Note_on_c, 11, 76, 0
13, 19680, Note_on_c, 11, 64, 90
13, 19707, Note_on_c, 11, 64, 0
13, 19710, Note_on_c, 11, 76, 90
13, 19737, Note_on_c, 11, 76, 0
13, 19740, Note_on_c, 11, 64, 90
13, 19767, Note_on_c, 11, 64, 0
13, 19800, Note_on_c, 11, 76, 90
13, 19854, Note_on_c, 11, 76, 0
13, 19860, Note_on_c, 11, 64, 90
13, 19887, Note_on_c, 11, 64, 0
13, 19890, Note_on_c, 11, 76, 90
13, 19917, Note_on_c, 11, 76, 0
13, 19920, Note_on_c, 11, 64, 90
13, 19947, Note_on_c, 11, 64, 0
13, 19950, Note_on_c, 11, 76, 90
13, 19977, Note_on_c, 11, 76, 0
13, 19980, Note_on_c, 11, 64, 90
13, 20007, Note_on_c, 11, 64, 0
13, 20040, Note_on_c, 11, 76, 90
13, 20094, Note_on_c, 11, 76, 0
13, 20100, Note_on_c, 11, 64, 90
13, 20127, Note_on_c, 11, 64, 0
13, 20130, Note_on_c, 11, 76, 90
13, 20157, Note_on_c, 11, 76, 0
13, 20160, Note_on_c, 11, 64, 90
13, 20187, Note_on_c, 11, 64, 0
13, 20190, Note_on_c, 11, 76, 90
13, 20217, Note_on_c, 11, 76, 0
13, 20220, Note_on_c, 11, 64, 90
13, 20247, Note_on_c, 11, 64, 0
13, 20280, Note_on_c, 11, 76, 90
13, 20334, Note_on_c, 11, 76, 0
13, 20340, Note_on_c, 11, 64, 90
13, 20367, Note_on_c, 11, 64, 0
13, 20370, Note_on_c, 11, 76, 90
13, 20397, Note_on_c, 11, 76, 0
13, 20400, Note_on_c, 11, 64, 90
13, 20427, Note_on_c, 11, 64, 0
13, 20430, Note_on_c, 11, 76, 90
13, 20457, Note_on_c, 11, 76, 0
13, 20460, Note_on_c, 11, 64, 90
13, 20487, Note_on_c, 11, 64, 0
13, 20520, Note_on_c, 11, 76, 90
13, 20574, Note_on_c, 11, 76, 0
13, 20580, Note_on_c, 11, 64, 90
13, 20607, Note_on_c, 11, 64, 0
13, 20610, Note_on_c, 11, 76, 90
13, 20637, Note_on_c, 11, 76, 0
13, 20640, Note_on_c, 11, 64, 90
13, 20667, Note_on_c, 11, 64, 0
13, 20670, Note_on_c, 11, 76, 90
13, 20697, Note_on_c, 11, 76, 0
13, 20700, Note_on_c, 11, 64, 90
13, 20727, Note_on_c, 11, 64, 0
13, 20760, Note_on_c, 11, 76, 90
13, 20814, Note_on_c, 11, 76, 0
13, 20820, Note_on_c, 11, 64, 90
13, 20847, Note_on_c, 11, 64, 0
13, 20850, Note_on_c, 11, 76, 90
13, 20877, Note_on_c, 11, 76, 0
13, 20880, Note_on_c, 11, 64, 90
13, 20907, Note_on_c, 11, 64, 0
13, 20910, Note_on_c, 11, 76, 90
13, 20937, Note_on_c, 11, 76, 0
13, 20940, Note_on_c, 11, 64, 90
13, 20967, Note_on_c, 11, 64, 0
13, 21000, Note_on_c, 11, 76, 90
13, 21054, Note_on_c, 11, 76, 0
13, 21060, Note_on_c, 11, 64, 90
13, 21087, Note_on_c, 11, 64, 0
13, 21090, Note_on_c, 11, 76, 90
13, 21117, Note_on_c, 11, 76, 0
13, 21120, Note_on_c, 11, 62, 90
13, 21147, Note_on_c, 11, 62, 0
13, 21150, Note_on_c, 11, 74, 90
13, 21177, Note_on_c, 11, 74, 0
13, 21180, Note_on_c, 11, 62, 90
13, 21207, Note_on_c, 11, 62, 0
13, 21240, Note_on_c, 11, 74, 90
13, 21294, Note_on_c, 11, 74, 0
13, 21300, Note_on_c, 11, 62, 90
13, 21327, Note_on_c, 11, 62, 0
13, 21330, Note_on_c, 11, 74, 90
13, 21357, Note_on_c, 11, 74, 0
13, 21360, Note_on_c, 11, 62, 90
13, 21387, Note_on_c, 11, 62, 0
13, 21390, Note_on_c, 11, 74, 90
13, 21417, Note_on_c, 11, 74, 0
13, 21420, Note_on_c, 11, 62, 90
13, 21447, Note_on_c, 11, 62, 0
13, 21480, Note_on_c, 11, 74, 90
13, 21534, Note_on_c, 11, 74, 0
13, 21540, Note_on_c, 11, 62, 90
13, 21567, Note_on_c, 11, 62, 0
13, 21570, Note_on_c, 11, 74, 90
13, 21597, Note_on_c, 11, 74, 0
13, 21600, Note_on_c, 11, 62, 90
13, 21627, Note_on_c, 11, 62, 0
13, 21630, Note_on_c, 11, 74, 90
13, 21657, Note_on_c, 11, 74, 0
13, 21660, Note_on_c, 11, 62, 90
13, 21687, Note_on_c, 11, 62, 0
13, 21720, Note_on_c, 11, 74, 90
13, 21774, Note_on_c, 11, 74, 0
13, 21780, Note_on_c, 11, 62, 90
13, 21807, Note_on_c, 11, 62, 0
13, 21810, Note_on_c, 11, 74, 90
13, 21837, Note_on_c, 11, 74, 0
13, 21840, Note_on_c, 11, 62, 90
13, 21867, Note_on_c, 11, 62, 0
13, 21870, Note_on_c, 11, 74, 90
13, 21897, Note_on_c, 11, 74, 0
13, 21900, Note_on_c, 11, 62, 90
13, 21927, Note_on_c, 11, 62, 0
13, 21960, Note_on_c, 11, 74, 90
13, 22014, Note_on_c, 11, 74, 0
13, 22020, Note_on_c, 11, 62, 90
13, 22047, Note_on_c, 11, 62, 0
13, 22050, Note_on_c, 11, 74, 90
13, 22077, Note_on_c, 11, 74, 0
13, 22080, Note_on_c, 11, 60, 90
13, 22107, Note_on_c, 11, 60, 0
13, 22110, Note_on_c, 11, 72, 90
13, 22137, Note_on_c, 11, 72, 0
13, 22140, Note_on_c, 11, 60, 90
13, 22167, Note_on_c, 11, 60, 0
13, 22200, Note_on_c, 11, 72, 90
13, 22254, Note_on_c, 11, 72, 0
13, 22260, Note_on_c, 11, 60, 90
13, 22287, Note_on_c, 11, 60, 0
13, 22290, Note_on_c, 11, 72, 90
13, 22317, Note_on_c, 11, 72, 0
13, 22320, Note_on_c, 11, 60, 90
13, 22347, Note_on_c, 11, 60, 0
13, 22350, Note_on_c, 11, 72, 90
13, 22377, Note_on_c, 11, 72, 0
13, 22380, Note_on_c, 11, 60, 90
13, 22407, Note_on_c, 11, 60, 0
13, 22440, Note_on_c, 11, 72, 90
13, 22494, Note_on_c, 11, 72, 0
13, 22500, Note_on_c, 11, 60, 90
13, 22527, Note_on_c, 11, 60, 0
13, 22530, Note_on_c, 11, 72, 90
13, 22557, Note_on_c, 11, 72, 0
13, 22560, Note_on_c, 11, 60, 90
13, 22587, Note_on_c, 11, 60, 0
13, 22590, Note_on_c, 11, 72, 90
13, 22617, Note_on_c, 11, 72, 0
13, 22620, Note_on_c, 11, 60, 90
13, 22647, Note_on_c, 11, 60, 0
13, 22680, Note_on_c, 11, 72, 90
13, 22734, Note_on_c, 11, 72, 0
13, 22740, Note_on_c, 11, 60, 90
13, 22767, Note_on_c, 11, 60, 0
13, 22770, Note_on_c, 11, 72, 90
13, 22797, Note_on_c, 11, 72, 0
13, 22800, Note_on_c, 11, 60, 90
13, 22827, Note_on_c, 11, 60, 0
13, 22830, Note_on_c, 11, 72, 90
13, 22857, Note_on_c, 11, 72, 0
13, 22860, Note_on_c, 11, 60, 90
13, 22887, Note_on_c, 11, 60, 0
13, 22920, Note_on_c, 11, 72, 90
13, 22974, Note_on_c, 11, 72, 0
13, 22980, Note_on_c, 11, 60, 90
13, 23007, Note_on_c, 11, 60, 0
13, 23010, Note_on_c, 11, 72, 90
13, 23037, Note_on_c, 11, 72, 0
13, 23040, Note_on_c, 11, 64, 90
13, 23067, Note_on_c, 11, 64, 0
13, 23070, Note_on_c, 11, 76, 90
13, 23097, Note_on_c, 11, 76, 0
13, 23100, Note_on_c, 11, 64, 90
13, 23127, Note_on_c, 11, 64, 0
13, 23160, Note_on_c, 11, 76, 90
13, 23214, Note_on_c, 11, 76, 0
13, 23220, Note_on_c, 11, 64, 90
13, 23247, Note_on_c, 11, 64, 0
13, 23250, Note_on_c, 11, 76, 90
13, 23277, Note_on_c, 11, 76, 0
13, 23280, Note_on_c, 11, 64, 90
13, 23307, Note_on_c, 11, 64, 0
13, 23310, Note_on_c, 11, 76, 90
13, 23337, Note_on_c, 11, 76, 0
13, 23340, Note_on_c, 11, 64, 90
13, 23367, Note_on_c, 11, 64, 0
13, 23400, Note_on_c, 11, 76, 90
13, 23454, Note_on_c, 11, 76, 0
13, 23460, Note_on_c, 11, 64, 90
13, 23487, Note_on_c, 11, 64, 0
13, 23490, Note_on_c, 11, 76, 90
13, 23517, Note_on_c, 11, 76, 0
13, 23520, Note_on_c, 11, 64, 90
13, 23547, Note_on_c, 11, 64, 0
13, 23550, Note_on_c, 11, 76, 90
13, 23577, Note_on_c, 11, 76, 0
13, 23580, Note_on_c, 11, 64, 90
13, 23607, Note_on_c, 11, 64, 0
13, 23640, Note_on_c, 11, 76, 90
13, 23694, Note_on_c, 11, 76, 0
13, 23700, Note_on_c, 11, 64, 90
13, 23727, Note_on_c, 11, 64, 0
13, 23730, Note_on_c, 11, 76, 90
13, 23757, Note_on_c, 11, 76, 0
13, 23760, Note_on_c, 11, 64, 90
13, 23787, Note_on_c, 11, 64, 0
13, 23790, Note_on_c, 11, 76, 90
13, 23817, Note_on_c, 11, 76, 0
13, 23820, Note_on_c, 11, 64, 90
13, 23847, Note_on_c, 11, 64, 0
13, 23880, Note_on_c, 11, 76, 90
13, 23934, Note_on_c, 11, 76, 0
13, 23940, Note_on_c, 11, 64, 90
13, 23967, Note_on_c, 11, 64, 0
13, 23970, Note_on_c, 11, 76, 90
13, 23997, Note_on_c, 11, 76, 0
13, 24000, Note_on_c, 11, 65, 90
13, 24027, Note_on_c, 11, 65, 0
13, 24030, Note_on_c, 11, 77, 90
13, 24057, Note_on_c, 11, 77, 0
13, 24060, Note_on_c, 11, 65, 90
13, 24087, Note_on_c, 11, 65, 0
13, 24120, Note_on_c, 11, 77, 90
13, 24174, Note_on_c, 11, 77, 0
13, 24180, Note_on_c, 11, 65, 90
13, 24207, Note_on_c, 11, 65, 0
13, 24210, Note_on_c, 11, 77, 90
13, 24237, Note_on_c, 11, 77, 0
13, 24240, Note_on_c, 11, 65, 90
13, 24267, Note_on_c, 11, 65, 0
13, 24270, Note_on_c, 11, 77, 90
13, 24297, Note_on_c, 11, 77, 0
13, 24300, Note_on_c, 11, 65, 90
13, 24327, Note_on_c, 11, 65, 0
13, 24360, Note_on_c, 11, 77, 90
13, 24414, Note_on_c, 11, 77, 0
13, 24420, Note_on_c, 11, 65, 90
13, 24447, Note_on_c, 11, 65, 0
13, 24450, Note_on_c, 11, 77, 90
13, 24477, Note_on_c, 11, 77, 0
13, 24480, Note_on_c, 11, 65, 90
13, 24507, Note_on_c, 11, 65, 0
13, 24510, Note_on_c, 11, 77, 90
13, 24537, Note_on_c, 11, 77, 0
13, 24540, Note_on_c, 11, 65, 90
13, 24567, Note_on_c, 11, 65, 0
13, 24600, Note_on_c, 11, 77, 90
13, 24654, Note_on_c, 11, 77, 0
13, 24660, Note_on_c, 11, 65, 90
13, 24687, Note_on_c, 11, 65, 0
13, 24690, Note_on_c, 11, 77, 90
13, 24717, Note_on_c, 11, 77, 0
13, 24720, Note_on_c, 11, 65, 90
13, 24747, Note_on_c, 11, 65, 0
13, 24750, Note_on_c, 11, 77, 90
13, 24777, Note_on_c, 11, 77, 0
13, 24780, Note_on_c, 11, 65, 90
13, 24807, Note_on_c, 11, 65, 0
13, 24840, Note_on_c, 11, 77, 90
13, 24894, Note_on_c, 11, 77, 0
13, 24900, Note_on_c, 11, 65, 90
13, 24927, Note_on_c, 11, 65, 0
13, 24930, Note_on_c, 11, 77, 90
13, 24957, Note_on_c, 11, 77, 0
13, 24960, Note_on_c, 11, 65, 90
13, 24987, Note_on_c, 11, 65, 0
13, 24990, Note_on_c, 11, 77, 90
13, 25017, Note_on_c, 11, 77, 0
13, 25020, Note_on_c, 11, 65, 90
13, 25047, Note_on_c, 11, 65, 0
13, 25080, Note_on_c, 11, 77, 90
13, 25134, Note_on_c, 11, 77, 0
13, 25140, Note_on_c, 11, 65, 90
13, 25167, Note_on_c, 11, 65, 0
13, 25170, Note_on_c, 11, 77, 90
13, 25197, Note_on_c, 11, 77, 0
13, 25200, Note_on_c, 11, 65, 90
13, 25227, Note_on_c, 11, 65, 0
13, 25230, Note_on_c, 11, 77, 90
13, 25257, Note_on_c, 11, 77, 0
13, 25260, Note_on_c, 11, 65, 90
13, 25287, Note_on_c, 11, 65, 0
13, 25320, Note_on_c, 11, 77, 90
13, 25374, Note_on_c, 11, 77, 0
13, 25380, Note_on_c, 11, 65, 90
13, 25407, Note_on_c, 11, 65, 0
13, 25410, Note_on_c, 11, 77, 90
13, 25437, Note_on_c, 11, 77, 0
13, 25440, Note_on_c, 11, 65, 90
13, 25467, Note_on_c, 11, 65, 0
13, 25470, Note_on_c, 11, 77, 90
13, 25497, Note_on_c, 11, 77, 0
13, 25500, Note_on_c, 11, 65, 90
13, 25527, Note_on_c, 11, 65, 0
13, 25560, Note_on_c, 11, 77, 90
13, 25614, Note_on_c, 11, 77, 0
13, 25620, Note_on_c, 11, 65, 90
13, 25647, Note_on_c, 11, 65, 0
13, 25650, Note_on_c, 11, 77, 90
13, 25677, Note_on_c, 11, 77, 0
13, 25680, Note_on_c, 11, 65, 90
13, 25707, Note_on_c, 11, 65, 0
13, 25710, Note_on_c, 11, 77, 90
13, 25737, Note_on_c, 11, 77, 0
13, 25740, Note_on_c, 11, 65, 90
13, 25767, Note_on_c, 11, 65, 0
13, 25800, Note_on_c, 11, 77, 90
13, 25854, Note_on_c, 11, 77, 0
13, 25860, Note_on_c, 11, 65, 90
13, 25887, Note_on_c, 11, 65, 0
13, 25890, Note_on_c, 11, 77, 90
13, 25917, Note_on_c, 11, 77, 0
13, 45120, Note_on_c, 11, 60, 90
13, 45147, Note_on_c, 11, 60, 0
13, 45150, Note_on_c, 11, 72, 90
13, 45177, Note_on_c, 11, 72, 0
13, 45180, Note_on_c, 11, 60, 90
13, 45207, Note_on_c, 11, 60, 0
13, 45240, Note_on_c, 11, 72, 90
13, 45294, Note_on_c, 11, 72, 0
13, 45300, Note_on_c, 11, 60, 90
13, 45327, Note_on_c, 11, 60, 0
13, 45330, Note_on_c, 11, 72, 90
13, 45357, Note_on_c, 11, 72, 0
13, 45360, Note_on_c, 11, 60, 90
13, 45387, Note_on_c, 11, 60, 0
13, 45390, Note_on_c, 11, 72, 90
13, 45417, Note_on_c, 11, 72, 0
13, 45420, Note_on_c, 11, 60, 90
13, 45447, Note_on_c, 11, 60, 0
13, 45480, Note_on_c, 11, 72, 90
13, 45534, Note_on_c, 11, 72, 0
13, 45540, Note_on_c, 11, 60, 90
13, 45567, Note_on_c, 11, 60, 0
13, 45570, Note_on_c, 11, 72, 90
13, 45597, Note_on_c, 11, 72, 0
13, 45600, Note_on_c, 11, 60, 90
13, 45627, Note_on_c, 11, 60, 0
13, 45630, Note_on_c, 11, 72, 90
13, 45657, Note_on_c, 11, 72, 0
13, 45660, Note_on_c, 11, 60, 90
13, 45687, Note_on_c, 11, 60, 0
13, 45720, Note_on_c, 11, 72, 90
13, 45774, Note_on_c, 11, 72, 0
13, 45780, Note_on_c, 11, 60, 90
13, 45807, Note_on_c, 11, 60, 0
13, 45810, Note_on_c, 11, 72, 90
13, 45837, Note_on_c, 11, 72, 0
13, 45840, Note_on_c, 11, 60, 90
13, 45867, Note_on_c, 11, 60, 0
13, 45870, Note_on_c, 11, 72, 90
13, 45897, Note_on_c, 11, 72, 0
13, 45900, Note_on_c, 11, 60, 90
13, 45927, Note_on_c, 11, 60, 0
13, 45960, Note_on_c, 11, 72, 90
13, 46014, Note_on_c, 11, 72, 0
13, 46020, Note_on_c, 11, 60, 90
13, 46047, Note_on_c, 11, 60, 0
13, 46050, Note_on_c, 11, 72, 90
13, 46077, Note_on_c, 11, 72, 0
13, 46080, Note_on_c, 11, 64, 90
13, 46107, Note_on_c, 11, 64, 0
13, 46110, Note_on_c, 11, 76, 90
13, 46137, Note_on_c, 11, 76, 0
13, 46140, Note_on_c, 11, 64, 90
13, 46167, Note_on_c, 11, 64, 0
13, 46200, Note_on_c, 11, 76, 90
13, 46254, Note_on_c, 11, 76, 0
13, 46260, Note_on_c, 11, 64, 90
13, 46287, Note_on_c, 11, 64, 0
13, 46290, Note_on_c, 11, 76, 90
13, 46317, Note_on_c, 11, 76, 0
13, 46320, Note_on_c, 11, 64, 90
13, 46347, Note_on_c, 11, 64, 0
13, 46350, Note_on_c, 11, 76, 90
13, 46377, Note_on_c, 11, 76, 0
13, 46380, Note_on_c, 11, 64, 90
13, 46407, Note_on_c, 11, 64, 0
13, 46440, Note_on_c, 11, 76, 90
13, 46494, Note_on_c, 11, 76, 0
13, 46500, Note_on_c, 11, 64, 90
13, 46527, Note_on_c, 11, 64, 0
13, 46530, Note_on_c, 11, 76, 90
13, 46557, Note_on_c, 11, 76, 0
13, 46560, Note_on_c, 11, 64, 90
13, 46587, Note_on_c, 11, 64, 0
13, 46590, Note_on_c, 11, 76, 90
13, 46617, Note_on_c, 11, 76, 0
13, 46620, Note_on_c, 11, 64, 90
13, 46647, Note_on_c, 11, 64, 0
13, 46680, Note_on_c, 11, 76, 90
13, 46734, Note_on_c, 11, 76, 0
13, 46740, Note_on_c, 11, 64, 90
13, 46767, Note_on_c, 11, 64, 0
13, 46770, Note_on_c, 11, 76, 90
13, 46797, Note_on_c, 11, 76, 0
13, 46800, Note_on_c, 11, 64, 90
13, 46827, Note_on_c, 11, 64, 0
13, 46830, Note_on_c, 11, 76, 90
13, 46857, Note_on_c, 11, 76, 0
13, 46860, Note_on_c, 11, 64, 90
13, 46887, Note_on_c, 11, 64, 0
13, 46920, Note_on_c, 11, 76, 90
13, 46974, Note_on_c, 11, 76, 0
13, 46980, Note_on_c, 11, 64, 90
13, 47007, Note_on_c, 11, 64, 0
13, 47010, Note_on_c, 11, 76, 90
13, 47037, Note_on_c, 11, 76, 0
13, 47040, Note_on_c, 11, 64, 90
13, 47067, Note_on_c, 11, 64, 0
13, 47070, Note_on_c, 11, 76, 90
13, 47097, Note_on_c, 11, 76, 0
13, 47100, Note_on_c, 11, 64, 90
13, 47127, Note_on_c, 11, 64, 0
13, 47160, Note_on_c, 11, 76, 90
13, 47214, Note_on_c, 11, 76, 0
13, 47220, Note_on_c, 11, 64, 90
13, 47247, Note_on_c, 11, 64, 0
13, 47250, Note_on_c, 11, 76, 90
13, 47277, Note_on_c, 11, 76, 0
13, 47280, Note_on_c, 11, 64, 90
13, 47307, Note_on_c, 11, 64, 0
13, 47310, Note_on_c, 11, 76, 90
13, 47337, Note_on_c, 11, 76, 0
13, 47340, Note_on_c, 11, 64, 90
13, 47367, Note_on_c, 11, 64, 0
13, 47400, Note_on_c, 11, 76, 90
13, 47454, Note_on_c, 11, 76, 0
13, 47460, Note_on_c, 11, 64, 90
13, 47487, Note_on_c, 11, 64, 0
13, 47490, Note_on_c, 11, 76, 90
13, 47517, Note_on_c, 11, 76, 0
13, 47520, Note_on_c, 11, 64, 90
13, 47547, Note_on_c, 11, 64, 0
13, 47550, Note_on_c, 11, 76, 90
13, 47577, Note_on_c, 11, 76, 0
13, 47580, Note_on_c, 11, 64, 90
13, 47607, Note_on_c, 11, 64, 0
13, 47640, Note_on_c, 11, 76, 90
13, 47694, Note_on_c, 11, 76, 0
13, 47700, Note_on_c, 11, 64, 90
13, 47727, Note_on_c, 11, 64, 0
13, 47730, Note_on_c, 11, 76, 90
13, 47757, Note_on_c, 11, 76, 0
13, 47760, Note_on_c, 11, 64, 90
13, 47787, Note_on_c, 11, 64, 0
13, 47790, Note_on_c, 11, 76, 90
13, 47817, Note_on_c, 11, 76, 0
13, 47820, Note_on_c, 11, 64, 90
13, 47847, Note_on_c, 11, 64, 0
13, 47880, Note_on_c, 11, 76, 90
13, 47934, Note_on_c, 11, 76, 0
13, 47940, Note_on_c, 11, 64, 90
13, 47967, Note_on_c, 11, 64, 0
13, 47970, Note_on_c, 11, 76, 90
13, 47997, Note_on_c, 11, 76, 0
13, 48000, Note_on_c, 11, 62, 90
13, 48027, Note_on_c, 11, 62, 0
13, 48030, Note_on_c, 11, 74, 90
13, 48057, Note_on_c, 11, 74, 0
13, 48060, Note_on_c, 11, 62, 90
13, 48087, Note_on_c, 11, 62, 0
13, 48120, Note_on_c, 11, 74, 90
13, 48174, Note_on_c, 11, 74, 0
13, 48180, Note_on_c, 11, 62, 90
13, 48207, Note_on_c, 11, 62, 0
13, 48210, Note_on_c, 11, 74, 90
13, 48237, Note_on_c, 11, 74, 0
13, 48240, Note_on_c, 11, 62, 90
13, 48267, Note_on_c, 11, 62, 0
13, 48270, Note_on_c, 11, 74, 90
13, 48297, Note_on_c, 11, 74, 0
13, 48300, Note_on_c, 11, 62, 90
13, 48327, Note_on_c, 11, 62, 0
13, 48360, Note_on_c, 11, 74, 90
13, 48414, Note_on_c, 11, 74, 0
13, 48420, Note_on_c, 11, 62, 90
13, 48447, Note_on_c, 11, 62, 0
13, 48450, Note_on_c, 11, 74, 90
13, 48477, Note_on_c, 11, 74, 0
13, 48480, Note_on_c, 11, 62, 90
13, 48507, Note_on_c, 11, 62, 0
13, 48510, Note_on_c, 11, 74, 90
13, 48537, Note_on_c, 11, 74, 0
13, 48540, Note_on_c, 11, 62, 90
13, 48567, Note_on_c, 11, 62, 0
13, 48600, Note_on_c, 11, 74, 90
13, 48654, Note_on_c, 11, 74, 0
13, 48660, Note_on_c, 11, 62, 90
13, 48687, Note_on_c, 11, 62, 0
13, 48690, Note_on_c, 11, 74, 90
13, 48717, Note_on_c, 11, 74, 0
13, 48720, Note_on_c, 11, 62, 90
13, 48747, Note_on_c, 11, 62, 0
13, 48750, Note_on_c, 11, 74, 90
13, 48777, Note_on_c, 11, 74, 0
13, 48780, Note_on_c, 11, 62, 90
13, 48807, Note_on_c, 11, 62, 0
13, 48840, Note_on_c, 11, 74, 90
13, 48894, Note_on_c, 11, 74, 0
13, 48900, Note_on_c, 11, 62, 90
13, 48927, Note_on_c, 11, 62, 0
13, 48930, Note_on_c, 11, 74, 90
13, 48957, Note_on_c, 11, 74, 0
13, 48960, Note_on_c, 11, 60, 90
13, 48987, Note_on_c, 11, 60, 0
13, 48990, Note_on_c, 11, 72, 90
13, 49017, Note_on_c, 11, 72, 0
13, 49020, Note_on_c, 11, 60, 90
13, 49047, Note_on_c, 11, 60, 0
13, 49080, Note_on_c, 11, 72, 90
13, 49134, Note_on_c, 11, 72, 0
13, 49140, Note_on_c, 11, 60, 90
13, 49167, Note_on_c, 11, 60, 0
13, 49170, Note_on_c, 11, 72, 90
13, 49197, Note_on_c, 11, 72, 0
13, 49200, Note_on_c, 11, 60, 90
13, 49227, Note_on_c, 11, 60, 0
13, 49230, Note_on_c, 11, 72, 90
13, 49257, Note_on_c, 11, 72, 0
13, 49260, Note_on_c, 11, 60, 90
13, 49287, Note_on_c, 11, 60, 0
13, 49320, Note_on_c, 11, 72, 90
13, 49374, Note_on_c, 11, 72, 0
13, 49380, Note_on_c, 11, 60, 90
13, 49407, Note_on_c, 11, 60, 0
13, 49410, Note_on_c, 11, 72, 90
13, 49437, Note_on_c, 11, 72, 0
13, 49440, Note_on_c, 11, 60, 90
13, 49467, Note_on_c, 11, 60, 0
13, 49470, Note_on_c, 11, 72, 90
13, 49497, Note_on_c, 11, 72, 0
13, 49500, Note_on_c, 11, 60, 90
13, 49527, Note_on_c, 11, 60, 0
13, 49560, Note_on_c, 11, 72, 90
13, 49614, Note_on_c, 11, 72, 0
13, 49620, Note_on_c, 11, 60, 90
13, 49647, Note_on_c, 11, 60, 0
13, 49650, Note_on_c, 11, 72, 90
13, 49677, Note_on_c, 11, 72, 0
13, 49680, Note_on_c, 11, 60, 90
13, 49707, Note_on_c, 11, 60, 0
13, 49710, Note_on_c, 11, 72, 90
13, 49737, Note_on_c, 11, 72, 0
13, 49740, Note_on_c, 11, 60, 90
13, 49767, Note_on_c, 11, 60, 0
13, 49800, Note_on_c, 11, 72, 90
13, 49854, Note_on_c, 11, 72, 0
13, 49860, Note_on_c, 11, 60, 90
13, 49887, Note_on_c, 11, 60, 0
13, 49890, Note_on_c, 11, 72, 90
13, 49917, Note_on_c, 11, 72, 0
13, 49920, Note_on_c, 11, 64, 90
13, 49947, Note_on_c, 11, 64, 0
13, 49950, Note_on_c, 11, 76, 90
13, 49977, Note_on_c, 11, 76, 0
13, 49980, Note_on_c, 11, 64, 90
13, 50007, Note_on_c, 11, 64, 0
13, 50040, Note_on_c, 11, 76, 90
13, 50094, Note_on_c, 11, 76, 0
13, 50100, Note_on_c, 11, 64, 90
13, 50127, Note_on_c, 11, 64, 0
13, 50130, Note_on_c, 11, 76, 90
13, 50157, Note_on_c, 11, 76, 0
13, 50160, Note_on_c, 11, 64, 90
13, 50187, Note_on_c, 11, 64, 0
13, 50190, Note_on_c, 11, 76, 90
13, 50217, Note_on_c, 11, 76, 0
13, 50220, Note_on_c, 11, 64, 90
13, 50247, Note_on_c, 11, 64, 0
13, 50280, Note_on_c, 11, 76, 90
13, 50334, Note_on_c, 11, 76, 0
13, 50340, Note_on_c, 11, 64, 90
13, 50367, Note_on_c, 11, 64, 0
13, 50370, Note_on_c, 11, 76, 90
13, 50397, Note_on_c, 11, 76, 0
13, 50400, Note_on_c, 11, 64, 90
13, 50427, Note_on_c, 11, 64, 0
13, 50430, Note_on_c, 11, 76, 90
13, 50457, Note_on_c, 11, 76, 0
13, 50460, Note_on_c, 11, 64, 90
13, 50487, Note_on_c, 11, 64, 0
13, 50520, Note_on_c, 11, 76, 90
13, 50574, Note_on_c, 11, 76, 0
13, 50580, Note_on_c, 11, 64, 90
13, 50607, Note_on_c, 11, 64, 0
13, 50610, Note_on_c, 11, 76, 90
13, 50637, Note_on_c, 11, 76, 0
13, 50640, Note_on_c, 11, 64, 90
13, 50667, Note_on_c, 11, 64, 0
13, 50670, Note_on_c, 11, 76, 90
13, 50697, Note_on_c, 11, 76, 0
13, 50700, Note_on_c, 11, 64, 90
13, 50727, Note_on_c, 11, 64, 0
13, 50760, Note_on_c, 11, 76, 90
13, 50814, Note_on_c, 11, 76, 0
13, 50820, Note_on_c, 11, 64, 90
13, 50847, Note_on_c, 11, 64, 0
13, 50850, Note_on_c, 11, 76, 90
13, 50877, Note_on_c, 11, 76, 0
13, 50880, Note_on_c, 11, 65, 90
13, 50907, Note_on_c, 11, 65, 0
13, 50910, Note_on_c, 11, 77, 90
13, 50937, Note_on_c, 11, 77, 0
13, 50940, Note_on_c, 11, 65, 90
13, 50967, Note_on_c, 11, 65, 0
13, 51000, Note_on_c, 11, 77, 90
13, 51054, Note_on_c, 11, 77, 0
13, 51060, Note_on_c, 11, 65, 90
13, 51087, Note_on_c, 11, 65, 0
13, 51090, Note_on_c, 11, 77, 90
13, 51117, Note_on_c, 11, 77, 0
13, 51120, Note_on_c, 11, 65, 90
13, 51147, Note_on_c, 11, 65, 0
13, 51150, Note_on_c, 11, 77, 90
13, 51177, Note_on_c, 11, 77, 0
13, 51180, Note_on_c, 11, 65, 90
13, 51207, Note_on_c, 11, 65, 0
13, 51240, Note_on_c, 11, 77, 90
13, 51294, Note_on_c, 11, 77, 0
13, 51300, Note_on_c, 11, 65, 90
13, 51327, Note_on_c, 11, 65, 0
13, 51330, Note_on_c, 11, 77, 90
13, 51357, Note_on_c, 11, 77, 0
13, 51360, Note_on_c, 11, 65, 90
13, 51387, Note_on_c, 11, 65, 0
13, 51390, Note_on_c, 11, 77, 90
13, 51417, Note_on_c, 11, 77, 0
13, 51420, Note_on_c, 11, 65, 90
13, 51447, Note_on_c, 11, 65, 0
13, 51480, Note_on_c, 11, 77, 90
13, 51534, Note_on_c, 11, 77, 0
13, 51540, Note_on_c, 11, 65, 90
13, 51567, Note_on_c, 11, 65, 0
13, 51570, Note_on_c, 11, 77, 90
13, 51597, Note_on_c, 11, 77, 0
13, 51600, Note_on_c, 11, 65, 90
13, 51627, Note_on_c, 11, 65, 0
13, 51630, Note_on_c, 11, 77, 90
13, 51657, Note_on_c, 11, 77, 0
13, 51660, Note_on_c, 11, 65, 90
13, 51687, Note_on_c, 11, 65, 0
13, 51720, Note_on_c, 11, 77, 90
13, 51774, Note_on_c, 11, 77, 0
13, 51780, Note_on_c, 11, 65, 90
13, 51807, Note_on_c, 11, 65, 0
13, 51810, Note_on_c, 11, 77, 90
13, 51837, Note_on_c, 11, 77, 0
13, 51840, Note_on_c, 11, 65, 90
13, 51867, Note_on_c, 11, 65, 0
13, 51870, Note_on_c, 11, 77, 90
13, 51897, Note_on_c, 11, 77, 0
13, 51900, Note_on_c, 11, 65, 90
13, 51927, Note_on_c, 11, 65, 0
13, 51960, Note_on_c, 11, 77, 90
13, 52014, Note_on_c, 11, 77, 0
13, 52020, Note_on_c, 11, 65, 90
13, 52047, Note_on_c, 11, 65, 0
13, 52050, Note_on_c, 11, 77, 90
13, 52077, Note_on_c, 11, 77, 0
13, 52080, Note_on_c, 11, 65, 90
13, 52107, Note_on_c, 11, 65, 0
13, 52110, Note_on_c, 11, 77, 90
13, 52137, Note_on_c, 11, 77, 0
13, 52140, Note_on_c, 11, 65, 90
13, 52167, Note_on_c, 11, 65, 0
13, 52200, Note_on_c, 11, 77, 90
13, 52254, Note_on_c, 11, 77, 0
13, 52260, Note_on_c, 11, 65, 90
13, 52287, Note_on_c, 11, 65, 0
13, 52290, Note_on_c, 11, 77, 90
13, 52317, Note_on_c, 11, 77, 0
13, 52320, Note_on_c, 11, 65, 90
13, 52347, Note_on_c, 11, 65, 0
13, 52350, Note_on_c, 11, 77, 90
13, 52377, Note_on_c, 11, 77, 0
13, 52380, Note_on_c, 11, 65, 90
13, 52407, Note_on_c, 11, 65, 0
13, 52440, Note_on_c, 11, 77, 90
13, 52494, Note_on_c, 11, 77, 0
13, 52500, Note_on_c, 11, 65, 90
13, 52527, Note_on_c, 11, 65, 0
13, 52530, Note_on_c, 11, 77, 90
13, 52557, Note_on_c, 11, 77, 0
13, 52560, Note_on_c, 11, 65, 90
13, 52587, Note_on_c, 11, 65, 0
13, 52590, Note_on_c, 11, 77, 90
13, 52617, Note_on_c, 11, 77, 0
13, 52620, Note_on_c, 11, 65, 90
13, 52647, Note_on_c, 11, 65, 0
13, 52680, Note_on_c, 11, 77, 90
13, 52734, Note_on_c, 11, 77, 0
13, 52740, Note_on_c, 11, 65, 90
13, 52767, Note_on_c, 11, 65, 0
13, 52770, Note_on_c, 11, 77, 90
13, 52797, Note_on_c, 11, 77, 0
13, 52797, End_track
14, 0, Start_track
14, 0, Title_t, "A13-Bass & Lead "
14, 180, Control_c, 12, 0, 0
14, 181, Control_c, 12, 32, 3
14, 182, Program_c, 12, 87
14, 183, Control_c, 12, 7, 90
14, 183, Control_c, 12, 10, 22
14, 194, Control_c, 12, 91, 50
14, 195, Control_c, 12, 93, 0
14, 18240, Note_on_c, 12, 60, 90
14, 19200, Note_on_c, 12, 60, 0
14, 19200, Note_on_c, 12, 59, 90
14, 20160, Note_on_c, 12, 59, 0
14, 20160, Note_on_c, 12, 57, 90
14, 20880, Note_on_c, 12, 57, 0
14, 20880, Note_on_c, 12, 57, 69
14, 20895, Note_on_c, 12, 57, 0
14, 20910, Note_on_c, 12, 57, 70
14, 20925, Note_on_c, 12, 57, 0
14, 20940, Note_on_c, 12, 57, 71
14, 20955, Note_on_c, 12, 57, 0
14, 20970, Note_on_c, 12, 57, 73
14, 20985, Note_on_c, 12, 57, 0
14, 21000, Note_on_c, 12, 57, 74
14, 21015, Note_on_c, 12, 57, 0
14, 21030, Note_on_c, 12, 57, 75
14, 21045, Note_on_c, 12, 57, 0
14, 21060, Note_on_c, 12, 57, 76
14, 21075, Note_on_c, 12, 57, 0
14, 21090, Note_on_c, 12, 57, 78
14, 21105, Note_on_c, 12, 57, 0
14, 21120, Note_on_c, 12, 55, 80
14, 21135, Note_on_c, 12, 55, 0
14, 21150, Note_on_c, 12, 55, 80
14, 21165, Note_on_c, 12, 55, 0
14, 21180, Note_on_c, 12, 55, 80
14, 21195, Note_on_c, 12, 55, 0
14, 21210, Note_on_c, 12, 55, 80
14, 21225, Note_on_c, 12, 55, 0
14, 21240, Note_on_c, 12, 55, 80
14, 21255, Note_on_c, 12, 55, 0
14, 21300, Note_on_c, 12, 55, 80
14, 21315, Note_on_c, 12, 55, 0
14, 21330, Note_on_c, 12, 55, 80
14, 21345, Note_on_c, 12, 55, 0
14, 21390, Note_on_c, 12, 55, 80
14, 21405, Note_on_c, 12, 55, 0
14, 21420, Note_on_c, 12, 55, 80
14, 21435, Note_on_c, 12, 55, 0
14, 21480, Note_on_c, 12, 55, 80
14, 21495, Note_on_c, 12, 55, 0
14, 21510, Note_on_c, 12, 55, 80
14, 21525, Note_on_c, 12, 55, 0
14, 21570, Note_on_c, 12, 55, 80
14, 21585, Note_on_c, 12, 55, 0
14, 21600, Note_on_c, 12, 55, 80
14, 21615, Note_on_c, 12, 55, 0
14, 21630, Note_on_c, 12, 55, 80
14, 21645, Note_on_c, 12, 55, 0
14, 21660, Note_on_c, 12, 55, 80
14, 21675, Note_on_c, 12, 55, 0
14, 21690, Note_on_c, 12, 55, 80
14, 21705, Note_on_c, 12, 55, 0
14, 21720, Note_on_c, 12, 55, 80
14, 21735, Note_on_c, 12, 55, 0
14, 21780, Note_on_c, 12, 55, 80
14, 21795, Note_on_c, 12, 55, 0
14, 21810, Note_on_c, 12, 55, 80
14, 21825, Note_on_c, 12, 55, 0
14, 21870, Note_on_c, 12, 55, 80
14, 21885, Note_on_c, 12, 55, 0
14, 21900, Note_on_c, 12, 55, 80
14, 21915, Note_on_c, 12, 55, 0
14, 21960, Note_on_c, 12, 55, 80
14, 21975, Note_on_c, 12, 55, 0
14, 21990, Note_on_c, 12, 55, 80
14, 22005, Note_on_c, 12, 55, 0
14, 22050, Note_on_c, 12, 55, 80
14, 22065, Note_on_c, 12, 55, 0
14, 22080, Note_on_c, 12, 60, 90
14, 23040, Note_on_c, 12, 60, 0
14, 23040, Note_on_c, 12, 59, 90
14, 24000, Note_on_c, 12, 59, 0
14, 24000, Note_on_c, 12, 57, 90
14, 24960, Note_on_c, 12, 57, 0
14, 24960, Note_on_c, 12, 56, 90
14, 25920, Note_on_c, 12, 56, 0
14, 45120, Note_on_c, 12, 60, 90
14, 46080, Note_on_c, 12, 60, 0
14, 46080, Note_on_c, 12, 59, 90
14, 47040, Note_on_c, 12, 59, 0
14, 47040, Note_on_c, 12, 57, 90
14, 47760, Note_on_c, 12, 57, 0
14, 47760, Note_on_c, 12, 57, 69
14, 47775, Note_on_c, 12, 57, 0
14, 47790, Note_on_c, 12, 57, 70
14, 47805, Note_on_c, 12, 57, 0
14, 47820, Note_on_c, 12, 57, 71
14, 47835, Note_on_c, 12, 57, 0
14, 47850, Note_on_c, 12, 57, 73
14, 47865, Note_on_c, 12, 57, 0
14, 47880, Note_on_c, 12, 57, 74
14, 47895, Note_on_c, 12, 57, 0
14, 47910, Note_on_c, 12, 57, 75
14, 47925, Note_on_c, 12, 57, 0
14, 47940, Note_on_c, 12, 57, 76
14, 47955, Note_on_c, 12, 57, 0
14, 47970, Note_on_c, 12, 57, 78
14, 47985, Note_on_c, 12, 57, 0
14, 48000, Note_on_c, 12, 55, 80
14, 48015, Note_on_c, 12, 55, 0
14, 48030, Note_on_c, 12, 55, 80
14, 48045, Note_on_c, 12, 55, 0
14, 48060, Note_on_c, 12, 55, 80
14, 48075, Note_on_c, 12, 55, 0
14, 48090, Note_on_c, 12, 55, 80
14, 48105, Note_on_c, 12, 55, 0
14, 48120, Note_on_c, 12, 55, 80
14, 48135, Note_on_c, 12, 55, 0
14, 48180, Note_on_c, 12, 55, 80
14, 48195, Note_on_c, 12, 55, 0
14, 48210, Note_on_c, 12, 55, 80
14, 48225, Note_on_c, 12, 55, 0
14, 48270, Note_on_c, 12, 55, 80
14, 48285, Note_on_c, 12, 55, 0
14, 48300, Note_on_c, 12, 55, 80
14, 48315, Note_on_c, 12, 55, 0
14, 48360, Note_on_c, 12, 55, 80
14, 48375, Note_on_c, 12, 55, 0
14, 48390, Note_on_c, 12, 55, 80
14, 48405, Note_on_c, 12, 55, 0
14, 48450, Note_on_c, 12, 55, 80
14, 48465, Note_on_c, 12, 55, 0
14, 48480, Note_on_c, 12, 55, 80
14, 48495, Note_on_c, 12, 55, 0
14, 48510, Note_on_c, 12, 55, 80
14, 48525, Note_on_c, 12, 55, 0
14, 48540, Note_on_c, 12, 55, 80
14, 48555, Note_on_c, 12, 55, 0
14, 48570, Note_on_c, 12, 55, 80
14, 48585, Note_on_c, 12, 55, 0
14, 48600, Note_on_c, 12, 55, 80
14, 48615, Note_on_c, 12, 55, 0
14, 48660, Note_on_c, 12, 55, 80
14, 48675, Note_on_c, 12, 55, 0
14, 48690, Note_on_c, 12, 55, 80
14, 48705, Note_on_c, 12, 55, 0
14, 48750, Note_on_c, 12, 55, 80
14, 48765, Note_on_c, 12, 55, 0
14, 48780, Note_on_c, 12, 55, 80
14, 48795, Note_on_c, 12, 55, 0
14, 48840, Note_on_c, 12, 55, 80
14, 48855, Note_on_c, 12, 55, 0
14, 48870, Note_on_c, 12, 55, 80
14, 48885, Note_on_c, 12, 55, 0
14, 48930, Note_on_c, 12, 55, 80
14, 48945, Note_on_c, 12, 55, 0
14, 48960, Note_on_c, 12, 60, 90
14, 49920, Note_on_c, 12, 60, 0
14, 49920, Note_on_c, 12, 59, 90
14, 50880, Note_on_c, 12, 59, 0
14, 50880, Note_on_c, 12, 57, 90
14, 51840, Note_on_c, 12, 57, 0
14, 51840, Note_on_c, 12, 56, 90
14, 52800, Note_on_c, 12, 56, 0
14, 52800, End_track
15, 0, Start_track
15, 0, Title_t, "A14-Strings   : "
15, 185, Control_c, 13, 0, 0
15, 186, Control_c, 13, 32, 3
15, 187, Program_c, 13, 48
15, 188, Control_c, 13, 7, 90
15, 188, Control_c, 13, 10, 32
15, 203, Control_c, 13, 91, 50
15, 204, Control_c, 13, 93, 10
15, 18240, Note_on_c, 13, 55, 100
15, 18240, Note_on_c, 13, 60, 100
15, 18720, Note_on_c, 13, 55, 0
15, 18720, Note_on_c, 13, 54, 100
15, 19200, Note_on_c, 13, 54, 0
15, 19200, Note_on_c, 13, 60, 0
15, 19200, Note_on_c, 13, 59, 100
15, 19200, Note_on_c, 13, 55, 100
15, 20160, Note_on_c, 13, 55, 0
15, 20160, Note_on_c, 13, 59, 0
15, 20160, Note_on_c, 13, 57, 100
15, 20640, Note_on_c, 13, 54, 100
15, 21120, Note_on_c, 13, 54, 0
15, 21120, Note_on_c, 13, 57, 0
15, 21120, Note_on_c, 13, 50, 100
15, 21120, Note_on_c, 13, 55, 100
15, 22080, Note_on_c, 13, 55, 0
15, 22080, Note_on_c, 13, 50, 0
15, 22080, Note_on_c, 13, 55, 100
15, 22080, Note_on_c, 13, 60, 100
15, 22560, Note_on_c, 13, 55, 0
15, 22560, Note_on_c, 13, 54, 100
15, 23040, Note_on_c, 13, 54, 0
15, 23040, Note_on_c, 13, 60, 0
15, 23040, Note_on_c, 13, 59, 100
15, 23040, Note_on_c, 13, 55, 100
15, 24000, Note_on_c, 13, 55, 0
15, 24000, Note_on_c, 13, 59, 0
15, 24000, Note_on_c, 13, 53, 100
15, 24000, Note_on_c, 13, 57, 100
15, 24960, Note_on_c, 13, 57, 0
15, 24960, Note_on_c, 13, 53, 0
15, 24960, Note_on_c, 13, 53, 100
15, 24960, Note_on_c, 13, 56, 100
15, 25920, Note_on_c, 13, 56, 0
15, 25920, Note_on_c, 13, 53, 0
15, 25920, Note_on_c, 13, 53, 100
15, 25920, Note_on_c, 13, 56, 100
15, 26400, Note_on_c, 13, 56, 0
15, 26400, Note_on_c, 13, 53, 0
15, 26400, Note_on_c, 13, 53, 100
15, 26400, Note_on_c, 13, 56, 100
15, 26880, Note_on_c, 13, 56, 0
15, 26880, Note_on_c, 13, 53, 0
15, 26880, Note_on_c, 13, 53, 100
15, 26880, Note_on_c, 13, 56, 100
15, 27840, Note_on_c, 13, 56, 0
15, 27840, Note_on_c, 13, 53, 0
15, 27840, Note_on_c, 13, 58, 100
15, 27840, Note_on_c, 13, 53, 100
15, 28800, Note_on_c, 13, 53, 0
15, 28800, Note_on_c, 13, 58, 0
15, 28800, Note_on_c, 13, 53, 100
15, 29280, Note_on_c, 13, 53, 0
15, 29280, Note_on_c, 13, 55, 100
15, 29760, Note_on_c, 13, 55, 0
15, 45120, Note_on_c, 13, 55, 100
15, 45120, Note_on_c, 13, 60, 100
15, 45600, Note_on_c, 13, 55, 0
15, 45600, Note_on_c, 13, 54, 100
15, 46080, Note_on_c, 13, 54, 0
15, 46080, Note_on_c, 13, 60, 0
15, 46080, Note_on_c, 13, 59, 100
15, 46080, Note_on_c, 13, 55, 100
15, 47040, Note_on_c, 13, 55, 0
15, 47040, Note_on_c, 13, 59, 0
15, 47040, Note_on_c, 13, 57, 100
15, 47520, Note_on_c, 13, 54, 100
15, 48000, Note_on_c, 13, 54, 0
15, 48000, Note_on_c, 13, 57, 0
15, 48000, Note_on_c, 13, 50, 100
15, 48000, Note_on_c, 13, 55, 100
15, 48960, Note_on_c, 13, 55, 0
15, 48960, Note_on_c, 13, 50, 0
15, 48960, Note_on_c, 13, 55, 100
15, 48960, Note_on_c, 13, 60, 100
15, 49440, Note_on_c, 13, 55, 0
15, 49440, Note_on_c, 13, 54, 100
15, 49920, Note_on_c, 13, 54, 0
15, 49920, Note_on_c, 13, 60, 0
15, 49920, Note_on_c, 13, 59, 100
15, 49920, Note_on_c, 13, 55, 100
15, 50880, Note_on_c, 13, 55, 0
15, 50880, Note_on_c, 13, 59, 0
15, 50880, Note_on_c, 13, 53, 100
15, 50880, Note_on_c, 13, 57, 100
15, 51840, Note_on_c, 13, 57, 0
15, 51840, Note_on_c, 13, 53, 0
15, 51840, Note_on_c, 13, 53, 100
15, 51840, Note_on_c, 13, 56, 100
15, 52800, Note_on_c, 13, 56, 0
15, 52800, Note_on_c, 13, 53, 0
15, 52800, Note_on_c, 13, 53, 100
15, 52800, Note_on_c, 13, 56, 100
15, 53280, Note_on_c, 13, 56, 0
15, 53280, Note_on_c, 13, 53, 0
15, 53280, Note_on_c, 13, 53, 100
15, 53280, Note_on_c, 13, 56, 100
15, 53760, Note_on_c, 13, 56, 0
15, 53760, Note_on_c, 13, 53, 0
15, 53760, Note_on_c, 13, 53, 100
15, 53760, Note_on_c, 13, 56, 100
15, 54720, Note_on_c, 13, 56, 0
15, 54720, Note_on_c, 13, 53, 0
15, 54720, Note_on_c, 13, 58, 100
15, 54720, Note_on_c, 13, 53, 100
15, 55680, Note_on_c, 13, 53, 0
15, 55680, Note_on_c, 13, 58, 0
15, 55680, Note_on_c, 13, 53, 100
15, 56160, Note_on_c, 13, 53, 0
15, 56160, Note_on_c, 13, 55, 100
15, 56640, Note_on_c, 13, 55, 0
15, 56640, End_track
16, 0, Start_track
16, 0, Title_t, "A15-Strings   : "
16, 190, Control_c, 14, 0, 0
16, 191, Control_c, 14, 32, 3
16, 192, Program_c, 14, 48
16, 193, Control_c, 14, 7, 90
16, 193, Control_c, 14, 10, 64
16, 212, Control_c, 14, 91, 50
16, 213, Control_c, 14, 93, 10
16, 25920, Note_on_c, 14, 61, 100
16, 26400, Note_on_c, 14, 61, 0
16, 26400, Note_on_c, 14, 61, 100
16, 26640, Note_on_c, 14, 61, 0
16, 26640, Note_on_c, 14, 63, 100
16, 26880, Note_on_c, 14, 63, 0
16, 26880, Note_on_c, 14, 65, 100
16, 26880, Note_on_c, 14, 60, 100
16, 27840, Note_on_c, 14, 60, 0
16, 27840, Note_on_c, 14, 65, 0
16, 27840, Note_on_c, 14, 61, 100
16, 27840, Note_on_c, 14, 65, 100
16, 28560, Note_on_c, 14, 61, 0
16, 28560, Note_on_c, 14, 63, 100
16, 28560, Note_on_c, 14, 60, 100
16, 28680, Note_on_c, 14, 60, 0
16, 28680, Note_on_c, 14, 63, 0
16, 28680, Note_on_c, 14, 61, 100
16, 28800, Note_on_c, 14, 61, 0
16, 28800, Note_on_c, 14, 65, 0
16, 28800, Note_on_c, 14, 61, 100
16, 28800, Note_on_c, 14, 56, 100
16, 28800, Note_on_c, 14, 65, 100
16, 29280, Note_on_c, 14, 65, 0
16, 29280, Note_on_c, 14, 56, 0
16, 29280, Note_on_c, 14, 61, 0
16, 29280, Note_on_c, 14, 62, 100
16, 29280, Note_on_c, 14, 59, 100
16, 29280, Note_on_c, 14, 67, 100
16, 29760, Note_on_c, 14, 67, 0
16, 29760, Note_on_c, 14, 59, 0
16, 29760, Note_on_c, 14, 62, 0
16, 52800, Note_on_c, 14, 61, 100
16, 53280, Note_on_c, 14, 61, 0
16, 53280, Note_on_c, 14, 61, 100
16, 53520, Note_on_c, 14, 61, 0
16, 53520, Note_on_c, 14, 63, 100
16, 53760, Note_on_c, 14, 63, 0
16, 53760, Note_on_c, 14, 65, 100
16, 53760, Note_on_c, 14, 60, 100
16, 54720, Note_on_c, 14, 60, 0
16, 54720, Note_on_c, 14, 65, 0
16, 54720, Note_on_c, 14, 61, 100
16, 54720, Note_on_c, 14, 65, 100
16, 55440, Note_on_c, 14, 61, 0
16, 55440, Note_on_c, 14, 63, 100
16, 55440, Note_on_c, 14, 60, 100
16, 55560, Note_on_c, 14, 60, 0
16, 55560, Note_on_c, 14, 63, 0
16, 55560, Note_on_c, 14, 61, 100
16, 55680, Note_on_c, 14, 61, 0
16, 55680, Note_on_c, 14, 65, 0
16, 55680, Note_on_c, 14, 61, 100
16, 55680, Note_on_c, 14, 56, 100
16, 55680, Note_on_c, 14, 65, 100
16, 56160, Note_on_c, 14, 65, 0
16, 56160, Note_on_c, 14, 56, 0
16, 56160, Note_on_c, 14, 61, 0
16, 56160, Note_on_c, 14, 62, 100
16, 56160, Note_on_c, 14, 59, 100
16, 56160, Note_on_c, 14, 67, 100
16, 56640, Note_on_c, 14, 67, 0
16, 56640, Note_on_c, 14, 59, 0
16, 56640, Note_on_c, 14, 62, 0
16, 56640, End_track
17, 0, Start_track
17, 0, Title_t, "A16-Reverse Cym."
17, 195, Control_c, 15, 0, 0
17, 196, Control_c, 15, 32, 3
17, 197, Program_c, 15, 119
17, 198, Control_c, 15, 7, 127
17, 198, Control_c, 15, 10, 64
17, 221, Control_c, 15, 91, 80
17, 222, Control_c, 15, 93, 20
17, 223, Control_c, 15, 94, 10
17, 18030, Note_on_c, 15, 69, 127
17, 18030, Note_on_c, 15, 61, 127
17, 18030, Note_on_c, 15, 73, 127
17, 18240, Note_on_c, 15, 73, 0
17, 18240, Note_on_c, 15, 61, 0
17, 18240, Note_on_c, 15, 69, 0
17, 44910, Note_on_c, 15, 69, 127
17, 44910, Note_on_c, 15, 61, 127
17, 44910, Note_on_c, 15, 73, 127
17, 45120, Note_on_c, 15, 73, 0
17, 45120, Note_on_c, 15, 61, 0
17, 45120, Note_on_c, 15, 69, 0
17, 45120, End_track
0, 0, End_of_file
