0, 0, Header, 0, 1, 480
1, 0, Start_track
1, 0, System_exclusive, 5, 126, 127, 9, 1, 247
1, 0, Copyright_t, "\215ì\213È\201F\220A\217¼\220L\225v\216\201\201@\203f\201[\203^\201[\220§\215ì\201F\202\215\201E\202\216"
1, 0, Title_t, "FINAL FANTASY X \201u\203u\203\211\203Xde\203`\203\207\203R\203{\201v"
1, 0, Control_c, 0, 7, 120
1, 0, Control_c, 1, 7, 100
1, 0, Control_c, 2, 7, 120
1, 0, Control_c, 3, 7, 120
1, 0, Control_c, 4, 7, 120
1, 0, Control_c, 5, 7, 120
1, 0, Control_c, 6, 7, 60
1, 0, Control_c, 7, 7, 80
1, 0, Control_c, 8, 7, 120
1, 0, Control_c, 9, 7, 100
1, 0, Control_c, 10, 7, 120
1, 0, Control_c, 11, 7, 120
1, 0, Control_c, 12, 7, 120
1, 0, Control_c, 13, 7, 120
1, 0, Control_c, 14, 7, 100
1, 0, Control_c, 15, 7, 100
1, 0, Program_c, 0, 61
1, 0, Program_c, 1, 61
1, 0, Program_c, 2, 61
1, 0, Program_c, 3, 61
1, 0, Program_c, 4, 33
1, 0, Program_c, 5, 71
1, 0, Program_c, 6, 2
1, 0, Program_c, 7, 2
1, 0, Program_c, 8, 61
1, 0, Program_c, 10, 2
1, 0, Program_c, 11, 75
1, 0, Program_c, 12, 11
1, 0, Program_c, 13, 61
1, 0, Tempo, 600000
1, 1920, Note_on_c, 9, 45, 100
1, 1920, Note_on_c, 9, 36, 100
1, 2040, Note_off_c, 9, 36, 0
1, 2040, Note_off_c, 9, 45, 0
1, 2160, Note_on_c, 9, 42, 100
1, 2160, Note_on_c, 9, 45, 100
1, 2280, Note_off_c, 9, 42, 0
1, 2280, Note_off_c, 9, 45, 0
1, 2400, Note_on_c, 9, 43, 100
1, 2400, Note_on_c, 9, 36, 100
1, 2520, Note_off_c, 9, 36, 0
1, 2520, Note_off_c, 9, 43, 0
1, 2560, Note_on_c, 9, 50, 100
1, 2640, Note_on_c, 9, 42, 100
1, 2640, Note_on_c, 9, 47, 100
1, 2680, Note_off_c, 9, 50, 0
1, 2760, Note_off_c, 9, 47, 0
1, 2760, Note_off_c, 9, 42, 0
1, 2800, Note_on_c, 9, 50, 90
1, 2800, Note_on_c, 9, 43, 100
1, 2880, Note_on_c, 9, 36, 100
1, 2880, Note_on_c, 9, 45, 100
1, 2920, Note_off_c, 9, 43, 0
1, 2920, Note_off_c, 9, 50, 0
1, 3000, Note_off_c, 9, 45, 0
1, 3000, Note_off_c, 9, 36, 0
1, 3040, Note_on_c, 9, 45, 100
1, 3120, Note_on_c, 9, 43, 100
1, 3120, Note_on_c, 9, 42, 100
1, 3160, Note_off_c, 9, 45, 0
1, 3240, Note_off_c, 9, 42, 0
1, 3240, Note_off_c, 9, 43, 0
1, 3280, Note_on_c, 9, 50, 100
1, 3360, Note_on_c, 9, 45, 100
1, 3360, Note_on_c, 9, 36, 100
1, 3400, Note_off_c, 9, 50, 0
1, 3480, Note_off_c, 9, 45, 0
1, 3480, Note_off_c, 9, 36, 0
1, 3520, Note_on_c, 9, 41, 100
1, 3600, Note_on_c, 9, 45, 100
1, 3600, Note_on_c, 9, 42, 100
1, 3640, Note_off_c, 9, 41, 0
1, 3720, Note_off_c, 9, 45, 0
1, 3720, Note_off_c, 9, 42, 0
1, 3760, Note_on_c, 9, 41, 90
1, 3840, Note_on_c, 9, 36, 100
1, 3840, Note_on_c, 9, 45, 100
1, 3880, Note_off_c, 9, 41, 0
1, 3960, Note_off_c, 9, 45, 0
1, 3960, Note_off_c, 9, 36, 0
1, 4080, Note_on_c, 9, 42, 100
1, 4080, Note_on_c, 9, 45, 100
1, 4200, Note_off_c, 9, 42, 0
1, 4200, Note_off_c, 9, 45, 0
1, 4320, Note_on_c, 9, 36, 100
1, 4320, Note_on_c, 9, 43, 100
1, 4440, Note_off_c, 9, 36, 0
1, 4440, Note_off_c, 9, 43, 0
1, 4480, Note_on_c, 9, 50, 100
1, 4560, Note_on_c, 9, 47, 100
1, 4560, Note_on_c, 9, 42, 100
1, 4600, Note_off_c, 9, 50, 0
1, 4680, Note_off_c, 9, 42, 0
1, 4680, Note_off_c, 9, 47, 0
1, 4720, Note_on_c, 9, 50, 90
1, 4720, Note_on_c, 9, 43, 100
1, 4800, Note_on_c, 9, 45, 100
1, 4800, Note_on_c, 9, 36, 100
1, 4840, Note_off_c, 9, 43, 0
1, 4840, Note_off_c, 9, 50, 0
1, 4920, Note_off_c, 9, 45, 0
1, 4920, Note_off_c, 9, 36, 0
1, 4960, Note_on_c, 9, 45, 100
1, 5040, Note_on_c, 9, 42, 100
1, 5040, Note_on_c, 9, 43, 100
1, 5080, Note_off_c, 9, 45, 0
1, 5160, Note_off_c, 9, 43, 0
1, 5160, Note_off_c, 9, 42, 0
1, 5200, Note_on_c, 9, 50, 100
1, 5280, Note_on_c, 9, 45, 100
1, 5280, Note_on_c, 9, 36, 100
1, 5320, Note_off_c, 9, 50, 0
1, 5400, Note_off_c, 9, 36, 0
1, 5400, Note_off_c, 9, 45, 0
1, 5440, Note_on_c, 9, 41, 100
1, 5520, Note_on_c, 9, 45, 100
1, 5520, Note_on_c, 9, 42, 100
1, 5560, Note_off_c, 9, 41, 0
1, 5640, Note_off_c, 9, 45, 0
1, 5640, Note_off_c, 9, 42, 0
1, 5680, Note_on_c, 9, 41, 90
1, 5760, Note_on_c, 9, 36, 100
1, 5760, Note_on_c, 9, 49, 100
1, 5760, Note_on_c, 0, 64, 110
1, 5760, Note_on_c, 2, 52, 110
1, 5760, Note_on_c, 1, 58, 110
1, 5760, Note_on_c, 9, 45, 100
1, 5800, Note_off_c, 9, 41, 0
1, 5840, Note_off_c, 1, 58, 0
1, 5840, Note_off_c, 2, 52, 0
1, 5840, Note_off_c, 0, 64, 0
1, 5880, Note_off_c, 9, 49, 0
1, 5880, Note_off_c, 9, 45, 0
1, 5880, Note_off_c, 9, 36, 0
1, 6000, Note_on_c, 9, 45, 100
1, 6000, Note_on_c, 9, 42, 100
1, 6120, Note_off_c, 9, 45, 0
1, 6120, Note_off_c, 9, 42, 0
1, 6120, Note_on_c, 0, 67, 110
1, 6120, Note_on_c, 1, 59, 110
1, 6120, Note_on_c, 2, 55, 110
1, 6200, Note_off_c, 2, 55, 0
1, 6200, Note_off_c, 0, 67, 0
1, 6200, Note_off_c, 1, 59, 0
1, 6240, Note_on_c, 9, 36, 100
1, 6240, Note_on_c, 9, 43, 100
1, 6360, Note_off_c, 9, 43, 0
1, 6360, Note_off_c, 9, 36, 0
1, 6400, Note_on_c, 9, 50, 100
1, 6480, Note_on_c, 9, 47, 100
1, 6480, Note_on_c, 2, 57, 95
1, 6480, Note_on_c, 1, 64, 95
1, 6480, Note_on_c, 9, 42, 100
1, 6480, Note_on_c, 0, 69, 95
1, 6520, Note_off_c, 9, 50, 0
1, 6560, Note_off_c, 1, 64, 0
1, 6560, Note_off_c, 2, 57, 0
1, 6560, Note_off_c, 0, 69, 0
1, 6600, Note_off_c, 9, 42, 0
1, 6600, Note_off_c, 9, 47, 0
1, 6640, Note_on_c, 9, 43, 100
1, 6640, Note_on_c, 9, 50, 90
1, 6720, Note_on_c, 9, 45, 100
1, 6720, Note_on_c, 0, 64, 110
1, 6720, Note_on_c, 2, 52, 110
1, 6720, Note_on_c, 9, 36, 100
1, 6720, Note_on_c, 1, 58, 110
1, 6760, Note_off_c, 9, 50, 0
1, 6760, Note_off_c, 9, 43, 0
1, 6800, Note_off_c, 0, 64, 0
1, 6800, Note_off_c, 1, 58, 0
1, 6800, Note_off_c, 2, 52, 0
1, 6840, Note_off_c, 9, 45, 0
1, 6840, Note_off_c, 9, 36, 0
1, 6880, Note_on_c, 9, 45, 100
1, 6960, Note_on_c, 9, 42, 100
1, 6960, Note_on_c, 9, 43, 100
1, 7000, Note_off_c, 9, 45, 0
1, 7080, Note_off_c, 9, 43, 0
1, 7080, Note_off_c, 9, 42, 0
1, 7080, Note_on_c, 1, 59, 110
1, 7080, Note_on_c, 0, 67, 110
1, 7080, Note_on_c, 2, 55, 110
1, 7120, Note_on_c, 9, 50, 100
1, 7160, Note_off_c, 2, 55, 0
1, 7160, Note_off_c, 1, 59, 0
1, 7160, Note_off_c, 0, 67, 0
1, 7200, Note_on_c, 9, 36, 100
1, 7200, Note_on_c, 9, 45, 100
1, 7240, Note_off_c, 9, 50, 0
1, 7320, Note_off_c, 9, 45, 0
1, 7320, Note_off_c, 9, 36, 0
1, 7360, Note_on_c, 9, 41, 100
1, 7440, Note_on_c, 9, 45, 100
1, 7440, Note_on_c, 1, 64, 95
1, 7440, Note_on_c, 2, 57, 95
1, 7440, Note_on_c, 9, 42, 100
1, 7440, Note_on_c, 0, 69, 95
1, 7480, Note_off_c, 9, 41, 0
1, 7520, Note_off_c, 0, 69, 0
1, 7520, Note_off_c, 2, 57, 0
1, 7520, Note_off_c, 1, 64, 0
1, 7560, Note_off_c, 9, 42, 0
1, 7560, Note_off_c, 9, 45, 0
1, 7600, Note_on_c, 9, 41, 90
1, 7680, Note_on_c, 9, 36, 100
1, 7680, Note_on_c, 0, 64, 110
1, 7680, Note_on_c, 2, 52, 110
1, 7680, Note_on_c, 9, 45, 100
1, 7680, Note_on_c, 1, 58, 110
1, 7720, Note_off_c, 9, 41, 0
1, 7760, Note_off_c, 0, 64, 0
1, 7760, Note_off_c, 1, 58, 0
1, 7760, Note_off_c, 2, 52, 0
1, 7800, Note_off_c, 9, 45, 0
1, 7800, Note_off_c, 9, 36, 0
1, 7920, Note_on_c, 9, 45, 100
1, 7920, Note_on_c, 9, 42, 100
1, 8040, Note_off_c, 9, 45, 0
1, 8040, Note_off_c, 9, 42, 0
1, 8040, Note_on_c, 0, 67, 110
1, 8040, Note_on_c, 2, 55, 110
1, 8040, Note_on_c, 1, 59, 110
1, 8120, Note_off_c, 2, 55, 0
1, 8120, Note_off_c, 1, 59, 0
1, 8120, Note_off_c, 0, 67, 0
1, 8160, Note_on_c, 9, 43, 100
1, 8160, Note_on_c, 9, 36, 100
1, 8280, Note_off_c, 9, 43, 0
1, 8280, Note_off_c, 9, 36, 0
1, 8320, Note_on_c, 9, 50, 100
1, 8400, Note_on_c, 2, 57, 95
1, 8400, Note_on_c, 0, 69, 95
1, 8400, Note_on_c, 9, 42, 100
1, 8400, Note_on_c, 1, 64, 95
1, 8400, Note_on_c, 9, 47, 100
1, 8440, Note_off_c, 9, 50, 0
1, 8480, Note_off_c, 1, 64, 0
1, 8480, Note_off_c, 0, 69, 0
1, 8480, Note_off_c, 2, 57, 0
1, 8520, Note_off_c, 9, 42, 0
1, 8520, Note_off_c, 9, 47, 0
1, 8560, Note_on_c, 9, 50, 90
1, 8560, Note_on_c, 9, 43, 100
1, 8640, Note_on_c, 0, 67, 110
1, 8640, Note_on_c, 9, 45, 100
1, 8640, Note_on_c, 9, 36, 100
1, 8640, Note_on_c, 2, 55, 110
1, 8680, Note_off_c, 9, 43, 0
1, 8680, Note_off_c, 9, 50, 0
1, 8680, Note_off_c, 2, 55, 0
1, 8680, Note_on_c, 2, 57, 110
1, 8760, Note_off_c, 9, 36, 0
1, 8760, Note_off_c, 2, 57, 0
1, 8760, Note_off_c, 9, 45, 0
1, 8760, Note_on_c, 2, 55, 110
1, 8800, Note_off_c, 0, 67, 0
1, 8800, Note_off_c, 2, 55, 0
1, 8800, Note_on_c, 2, 53, 110
1, 8800, Note_on_c, 9, 45, 100
1, 8800, Note_on_c, 0, 67, 110
1, 8880, Note_off_c, 0, 67, 0
1, 8880, Note_off_c, 2, 53, 0
1, 8880, Note_on_c, 0, 69, 110
1, 8880, Note_on_c, 1, 64, 110
1, 8880, Note_on_c, 9, 42, 100
1, 8880, Note_on_c, 2, 57, 110
1, 8880, Note_on_c, 9, 43, 100
1, 8920, Note_off_c, 9, 45, 0
1, 9000, Note_off_c, 9, 43, 0
1, 9000, Note_off_c, 9, 42, 0
1, 9040, Note_off_c, 0, 69, 0
1, 9040, Note_off_c, 2, 57, 0
1, 9040, Note_off_c, 1, 64, 0
1, 9040, Note_on_c, 1, 62, 110
1, 9040, Note_on_c, 0, 67, 110
1, 9040, Note_on_c, 9, 50, 100
1, 9040, Note_on_c, 2, 55, 110
1, 9120, Note_off_c, 2, 55, 0
1, 9120, Note_off_c, 1, 62, 0
1, 9120, Note_off_c, 0, 67, 0
1, 9120, Note_on_c, 9, 45, 100
1, 9120, Note_on_c, 9, 36, 100
1, 9160, Note_off_c, 9, 50, 0
1, 9240, Note_off_c, 9, 36, 0
1, 9240, Note_off_c, 9, 45, 0
1, 9280, Note_on_c, 9, 41, 100
1, 9360, Note_on_c, 9, 45, 100
1, 9360, Note_on_c, 9, 42, 100
1, 9400, Note_off_c, 9, 41, 0
1, 9480, Note_off_c, 9, 45, 0
1, 9480, Note_off_c, 9, 42, 0
1, 9520, Note_on_c, 9, 41, 90
1, 9600, Note_on_c, 1, 58, 110
1, 9600, Note_on_c, 0, 64, 110
1, 9600, Note_on_c, 2, 52, 110
1, 9600, Note_on_c, 9, 45, 100
1, 9600, Note_on_c, 9, 36, 100
1, 9640, Note_off_c, 9, 41, 0
1, 9680, Note_off_c, 0, 64, 0
1, 9680, Note_off_c, 1, 58, 0
1, 9680, Note_off_c, 2, 52, 0
1, 9720, Note_off_c, 9, 45, 0
1, 9720, Note_off_c, 9, 36, 0
1, 9840, Note_on_c, 9, 42, 100
1, 9840, Note_on_c, 9, 45, 100
1, 9960, Note_off_c, 9, 45, 0
1, 9960, Note_off_c, 9, 42, 0
1, 9960, Note_on_c, 0, 67, 110
1, 9960, Note_on_c, 1, 59, 110
1, 9960, Note_on_c, 2, 55, 110
1, 10040, Note_off_c, 0, 67, 0
1, 10040, Note_off_c, 2, 55, 0
1, 10040, Note_off_c, 1, 59, 0
1, 10080, Note_on_c, 9, 43, 100
1, 10080, Note_on_c, 9, 36, 100
1, 10200, Note_off_c, 9, 43, 0
1, 10200, Note_off_c, 9, 36, 0
1, 10240, Note_on_c, 9, 50, 100
1, 10320, Note_on_c, 0, 69, 95
1, 10320, Note_on_c, 2, 57, 95
1, 10320, Note_on_c, 1, 64, 95
1, 10320, Note_on_c, 9, 42, 100
1, 10320, Note_on_c, 9, 47, 100
1, 10360, Note_off_c, 9, 50, 0
1, 10400, Note_off_c, 0, 69, 0
1, 10400, Note_off_c, 1, 64, 0
1, 10400, Note_off_c, 2, 57, 0
1, 10440, Note_off_c, 9, 42, 0
1, 10440, Note_off_c, 9, 47, 0
1, 10480, Note_on_c, 9, 50, 90
1, 10480, Note_on_c, 9, 43, 100
1, 10560, Note_on_c, 0, 64, 110
1, 10560, Note_on_c, 9, 45, 100
1, 10560, Note_on_c, 9, 36, 100
1, 10560, Note_on_c, 2, 52, 110
1, 10560, Note_on_c, 1, 58, 110
1, 10600, Note_off_c, 9, 43, 0
1, 10600, Note_off_c, 9, 50, 0
1, 10640, Note_off_c, 1, 58, 0
1, 10640, Note_off_c, 0, 64, 0
1, 10640, Note_off_c, 2, 52, 0
1, 10680, Note_off_c, 9, 36, 0
1, 10680, Note_off_c, 9, 45, 0
1, 10720, Note_on_c, 9, 45, 100
1, 10800, Note_on_c, 9, 43, 100
1, 10800, Note_on_c, 9, 42, 100
1, 10840, Note_off_c, 9, 45, 0
1, 10920, Note_off_c, 9, 43, 0
1, 10920, Note_off_c, 9, 42, 0
1, 10920, Note_on_c, 0, 67, 110
1, 10920, Note_on_c, 1, 59, 110
1, 10920, Note_on_c, 2, 55, 110
1, 10960, Note_on_c, 9, 50, 100
1, 11000, Note_off_c, 0, 67, 0
1, 11000, Note_off_c, 1, 59, 0
1, 11000, Note_off_c, 2, 55, 0
1, 11040, Note_on_c, 9, 45, 100
1, 11040, Note_on_c, 9, 36, 100
1, 11080, Note_off_c, 9, 50, 0
1, 11160, Note_off_c, 9, 36, 0
1, 11160, Note_off_c, 9, 45, 0
1, 11200, Note_on_c, 9, 41, 100
1, 11280, Note_on_c, 0, 69, 95
1, 11280, Note_on_c, 2, 57, 95
1, 11280, Note_on_c, 9, 45, 100
1, 11280, Note_on_c, 9, 42, 100
1, 11280, Note_on_c, 1, 64, 95
1, 11320, Note_off_c, 9, 41, 0
1, 11360, Note_off_c, 0, 69, 0
1, 11360, Note_off_c, 2, 57, 0
1, 11360, Note_off_c, 1, 64, 0
1, 11400, Note_off_c, 9, 45, 0
1, 11400, Note_off_c, 9, 42, 0
1, 11440, Note_on_c, 9, 41, 90
1, 11520, Note_on_c, 0, 64, 110
1, 11520, Note_on_c, 9, 36, 100
1, 11520, Note_on_c, 1, 58, 110
1, 11520, Note_on_c, 2, 52, 110
1, 11520, Note_on_c, 9, 45, 100
1, 11560, Note_off_c, 9, 41, 0
1, 11600, Note_off_c, 0, 64, 0
1, 11600, Note_off_c, 1, 58, 0
1, 11600, Note_off_c, 2, 52, 0
1, 11640, Note_off_c, 9, 45, 0
1, 11640, Note_off_c, 9, 36, 0
1, 11760, Note_on_c, 9, 45, 100
1, 11760, Note_on_c, 9, 42, 100
1, 11880, Note_off_c, 9, 45, 0
1, 11880, Note_off_c, 9, 42, 0
1, 11880, Note_on_c, 1, 59, 110
1, 11880, Note_on_c, 2, 55, 110
1, 11880, Note_on_c, 0, 67, 110
1, 11960, Note_off_c, 0, 67, 0
1, 11960, Note_off_c, 2, 55, 0
1, 11960, Note_off_c, 1, 59, 0
1, 12000, Note_on_c, 9, 43, 100
1, 12000, Note_on_c, 9, 36, 100
1, 12120, Note_off_c, 9, 43, 0
1, 12120, Note_off_c, 9, 36, 0
1, 12160, Note_on_c, 9, 50, 100
1, 12240, Note_on_c, 1, 64, 95
1, 12240, Note_on_c, 0, 69, 95
1, 12240, Note_on_c, 2, 57, 95
1, 12240, Note_on_c, 9, 42, 100
1, 12240, Note_on_c, 9, 47, 100
1, 12280, Note_off_c, 9, 50, 0
1, 12320, Note_off_c, 0, 69, 0
1, 12320, Note_off_c, 2, 57, 0
1, 12320, Note_off_c, 1, 64, 0
1, 12360, Note_off_c, 9, 47, 0
1, 12360, Note_off_c, 9, 42, 0
1, 12400, Note_on_c, 9, 43, 100
1, 12400, Note_on_c, 9, 50, 90
1, 12480, Note_on_c, 0, 67, 110
1, 12480, Note_on_c, 9, 45, 100
1, 12480, Note_on_c, 2, 55, 110
1, 12480, Note_on_c, 1, 62, 110
1, 12480, Note_on_c, 9, 36, 100
1, 12520, Note_off_c, 9, 43, 0
1, 12520, Note_off_c, 9, 50, 0
1, 12600, Note_off_c, 9, 36, 0
1, 12600, Note_off_c, 9, 45, 0
1, 12640, Note_off_c, 2, 55, 0
1, 12640, Note_off_c, 0, 67, 0
1, 12640, Note_off_c, 1, 62, 0
1, 12640, Note_on_c, 0, 64, 110
1, 12640, Note_on_c, 2, 52, 110
1, 12640, Note_on_c, 9, 45, 100
1, 12640, Note_on_c, 1, 58, 110
1, 12720, Note_off_c, 0, 64, 0
1, 12720, Note_off_c, 1, 58, 0
1, 12720, Note_off_c, 2, 52, 0
1, 12720, Note_on_c, 9, 43, 100
1, 12720, Note_on_c, 9, 42, 100
1, 12760, Note_off_c, 9, 45, 0
1, 12840, Note_off_c, 9, 43, 0
1, 12840, Note_off_c, 9, 42, 0
1, 12880, Note_on_c, 2, 51, 110
1, 12880, Note_on_c, 0, 63, 110
1, 12880, Note_on_c, 1, 59, 110
1, 12880, Note_on_c, 9, 50, 100
1, 12960, Note_on_c, 9, 36, 100
1, 12960, Note_on_c, 9, 45, 100
1, 13000, Note_off_c, 9, 50, 0
1, 13080, Note_off_c, 9, 45, 0
1, 13080, Note_off_c, 9, 36, 0
1, 13120, Note_on_c, 9, 41, 100
1, 13200, Note_on_c, 9, 45, 100
1, 13200, Note_on_c, 9, 42, 100
1, 13240, Note_off_c, 9, 41, 0
1, 13320, Note_off_c, 0, 63, 0
1, 13320, Note_off_c, 9, 45, 0
1, 13320, Note_off_c, 9, 42, 0
1, 13320, Note_off_c, 2, 51, 0
1, 13360, Note_on_c, 9, 41, 90
1, 13440, Note_off_c, 1, 59, 0
1, 13440, Note_on_c, 3, 40, 100
1, 13440, Note_on_c, 1, 58, 110
1, 13440, Note_on_c, 0, 64, 110
1, 13440, Note_on_c, 9, 36, 100
1, 13440, Note_on_c, 9, 49, 100
1, 13440, Note_on_c, 2, 52, 110
1, 13440, Note_on_c, 9, 45, 100
1, 13480, Note_off_c, 9, 41, 0
1, 13520, Note_off_c, 2, 52, 0
1, 13520, Note_off_c, 0, 64, 0
1, 13520, Note_off_c, 1, 58, 0
1, 13560, Note_off_c, 9, 45, 0
1, 13560, Note_off_c, 9, 36, 0
1, 13560, Note_off_c, 9, 49, 0
1, 13680, Note_on_c, 9, 45, 100
1, 13680, Note_on_c, 9, 42, 100
1, 13680, Note_on_c, 9, 39, 100
1, 13800, Note_off_c, 9, 45, 0
1, 13800, Note_off_c, 9, 42, 0
1, 13800, Note_off_c, 9, 39, 0
1, 13800, Note_on_c, 1, 59, 110
1, 13800, Note_on_c, 0, 67, 110
1, 13800, Note_on_c, 2, 55, 110
1, 13880, Note_off_c, 2, 55, 0
1, 13880, Note_off_c, 1, 59, 0
1, 13880, Note_off_c, 0, 67, 0
1, 13920, Note_on_c, 9, 36, 100
1, 13920, Note_on_c, 9, 43, 100
1, 14040, Note_off_c, 9, 43, 0
1, 14040, Note_off_c, 9, 36, 0
1, 14080, Note_on_c, 9, 50, 100
1, 14160, Note_on_c, 0, 69, 95
1, 14160, Note_on_c, 1, 64, 95
1, 14160, Note_on_c, 9, 47, 100
1, 14160, Note_on_c, 2, 57, 95
1, 14160, Note_on_c, 9, 42, 100
1, 14160, Note_on_c, 9, 39, 100
1, 14200, Note_off_c, 9, 50, 0
1, 14240, Note_off_c, 0, 69, 0
1, 14240, Note_off_c, 1, 64, 0
1, 14240, Note_off_c, 2, 57, 0
1, 14280, Note_off_c, 9, 47, 0
1, 14280, Note_off_c, 9, 39, 0
1, 14280, Note_off_c, 9, 42, 0
1, 14320, Note_on_c, 9, 43, 100
1, 14320, Note_on_c, 9, 50, 90
1, 14400, Note_on_c, 9, 36, 100
1, 14400, Note_on_c, 1, 58, 110
1, 14400, Note_on_c, 9, 45, 100
1, 14400, Note_on_c, 2, 52, 110
1, 14400, Note_on_c, 0, 64, 110
1, 14440, Note_off_c, 9, 43, 0
1, 14440, Note_off_c, 9, 50, 0
1, 14480, Note_off_c, 0, 64, 0
1, 14480, Note_off_c, 2, 52, 0
1, 14480, Note_off_c, 1, 58, 0
1, 14520, Note_off_c, 9, 36, 0
1, 14520, Note_off_c, 9, 45, 0
1, 14560, Note_on_c, 9, 45, 100
1, 14640, Note_on_c, 9, 43, 100
1, 14640, Note_on_c, 9, 39, 100
1, 14640, Note_on_c, 9, 42, 100
1, 14680, Note_off_c, 9, 45, 0
1, 14760, Note_off_c, 9, 43, 0
1, 14760, Note_off_c, 9, 39, 0
1, 14760, Note_off_c, 9, 42, 0
1, 14760, Note_on_c, 2, 55, 110
1, 14760, Note_on_c, 1, 59, 110
1, 14760, Note_on_c, 0, 67, 110
1, 14800, Note_on_c, 9, 50, 100
1, 14840, Note_off_c, 2, 55, 0
1, 14840, Note_off_c, 0, 67, 0
1, 14840, Note_off_c, 1, 59, 0
1, 14880, Note_on_c, 9, 45, 100
1, 14880, Note_on_c, 9, 36, 100
1, 14920, Note_off_c, 9, 50, 0
1, 15000, Note_off_c, 9, 45, 0
1, 15000, Note_off_c, 9, 36, 0
1, 15040, Note_on_c, 9, 41, 100
1, 15120, Note_on_c, 0, 69, 95
1, 15120, Note_on_c, 1, 64, 95
1, 15120, Note_on_c, 9, 45, 100
1, 15120, Note_on_c, 9, 39, 100
1, 15120, Note_on_c, 9, 42, 100
1, 15120, Note_on_c, 2, 57, 95
1, 15160, Note_off_c, 9, 41, 0
1, 15200, Note_off_c, 0, 69, 0
1, 15200, Note_off_c, 1, 64, 0
1, 15200, Note_off_c, 2, 57, 0
1, 15240, Note_off_c, 9, 45, 0
1, 15240, Note_off_c, 9, 39, 0
1, 15240, Note_off_c, 9, 42, 0
1, 15280, Note_on_c, 9, 41, 90
1, 15360, Note_on_c, 9, 36, 100
1, 15360, Note_on_c, 9, 45, 100
1, 15360, Note_on_c, 2, 52, 110
1, 15360, Note_on_c, 0, 64, 110
1, 15360, Note_on_c, 1, 58, 110
1, 15400, Note_off_c, 9, 41, 0
1, 15440, Note_off_c, 2, 52, 0
1, 15440, Note_off_c, 1, 58, 0
1, 15440, Note_off_c, 0, 64, 0
1, 15480, Note_off_c, 9, 36, 0
1, 15480, Note_off_c, 9, 45, 0
1, 15600, Note_on_c, 9, 45, 100
1, 15600, Note_on_c, 9, 42, 100
1, 15600, Note_on_c, 9, 39, 100
1, 15720, Note_off_c, 9, 45, 0
1, 15720, Note_off_c, 9, 39, 0
1, 15720, Note_off_c, 9, 42, 0
1, 15720, Note_on_c, 0, 67, 110
1, 15720, Note_on_c, 2, 55, 110
1, 15720, Note_on_c, 1, 59, 110
1, 15800, Note_off_c, 1, 59, 0
1, 15800, Note_off_c, 2, 55, 0
1, 15800, Note_off_c, 0, 67, 0
1, 15840, Note_on_c, 9, 43, 100
1, 15840, Note_on_c, 9, 36, 100
1, 15960, Note_off_c, 9, 43, 0
1, 15960, Note_off_c, 9, 36, 0
1, 16000, Note_on_c, 9, 50, 100
1, 16080, Note_on_c, 2, 57, 95
1, 16080, Note_on_c, 9, 39, 100
1, 16080, Note_on_c, 1, 64, 95
1, 16080, Note_on_c, 9, 47, 100
1, 16080, Note_on_c, 0, 69, 95
1, 16080, Note_on_c, 9, 42, 100
1, 16120, Note_off_c, 9, 50, 0
1, 16160, Note_off_c, 0, 69, 0
1, 16160, Note_off_c, 2, 57, 0
1, 16160, Note_off_c, 1, 64, 0
1, 16200, Note_off_c, 9, 42, 0
1, 16200, Note_off_c, 9, 39, 0
1, 16200, Note_off_c, 9, 47, 0
1, 16240, Note_on_c, 9, 50, 90
1, 16240, Note_on_c, 9, 43, 100
1, 16320, Note_on_c, 0, 67, 110
1, 16320, Note_on_c, 9, 45, 100
1, 16320, Note_on_c, 9, 36, 100
1, 16320, Note_on_c, 2, 55, 110
1, 16360, Note_off_c, 9, 43, 0
1, 16360, Note_off_c, 9, 50, 0
1, 16360, Note_off_c, 2, 55, 0
1, 16360, Note_on_c, 2, 57, 110
1, 16440, Note_off_c, 9, 36, 0
1, 16440, Note_off_c, 9, 45, 0
1, 16440, Note_off_c, 2, 57, 0
1, 16440, Note_on_c, 2, 55, 110
1, 16480, Note_off_c, 2, 55, 0
1, 16480, Note_off_c, 0, 67, 0
1, 16480, Note_on_c, 2, 53, 110
1, 16480, Note_on_c, 0, 67, 110
1, 16480, Note_on_c, 9, 45, 100
1, 16560, Note_off_c, 0, 67, 0
1, 16560, Note_off_c, 2, 53, 0
1, 16560, Note_on_c, 0, 69, 110
1, 16560, Note_on_c, 2, 57, 110
1, 16560, Note_on_c, 1, 64, 110
1, 16560, Note_on_c, 9, 43, 100
1, 16560, Note_on_c, 9, 39, 100
1, 16560, Note_on_c, 9, 42, 100
1, 16600, Note_off_c, 9, 45, 0
1, 16680, Note_off_c, 9, 39, 0
1, 16680, Note_off_c, 9, 43, 0
1, 16680, Note_off_c, 9, 42, 0
1, 16720, Note_off_c, 0, 69, 0
1, 16720, Note_off_c, 1, 64, 0
1, 16720, Note_off_c, 2, 57, 0
1, 16720, Note_on_c, 1, 62, 110
1, 16720, Note_on_c, 9, 50, 100
1, 16720, Note_on_c, 2, 55, 110
1, 16720, Note_on_c, 0, 67, 110
1, 16800, Note_off_c, 3, 40, 0
1, 16800, Note_off_c, 2, 55, 0
1, 16800, Note_off_c, 1, 62, 0
1, 16800, Note_off_c, 0, 67, 0
1, 16800, Note_on_c, 9, 45, 100
1, 16800, Note_on_c, 9, 36, 100
1, 16840, Note_off_c, 9, 50, 0
1, 16920, Note_off_c, 9, 45, 0
1, 16920, Note_off_c, 9, 36, 0
1, 16960, Note_on_c, 9, 41, 100
1, 17040, Note_on_c, 9, 45, 100
1, 17040, Note_on_c, 3, 35, 100
1, 17040, Note_on_c, 9, 39, 100
1, 17040, Note_on_c, 9, 42, 100
1, 17080, Note_off_c, 9, 41, 0
1, 17080, Note_off_c, 3, 35, 0
1, 17080, Note_on_c, 3, 37, 100
1, 17160, Note_off_c, 9, 39, 0
1, 17160, Note_off_c, 9, 42, 0
1, 17160, Note_off_c, 9, 45, 0
1, 17160, Note_off_c, 3, 37, 0
1, 17160, Note_on_c, 3, 38, 100
1, 17200, Note_off_c, 3, 38, 0
1, 17200, Note_on_c, 9, 41, 90
1, 17200, Note_on_c, 3, 39, 100
1, 17280, Note_off_c, 3, 39, 0
1, 17280, Note_on_c, 1, 58, 110
1, 17280, Note_on_c, 9, 45, 100
1, 17280, Note_on_c, 0, 64, 110
1, 17280, Note_on_c, 9, 36, 100
1, 17280, Note_on_c, 2, 52, 110
1, 17280, Note_on_c, 3, 40, 100
1, 17320, Note_off_c, 9, 41, 0
1, 17360, Note_off_c, 2, 52, 0
1, 17360, Note_off_c, 1, 58, 0
1, 17360, Note_off_c, 0, 64, 0
1, 17400, Note_off_c, 9, 36, 0
1, 17400, Note_off_c, 9, 45, 0
1, 17520, Note_on_c, 9, 39, 100
1, 17520, Note_on_c, 9, 45, 100
1, 17520, Note_on_c, 9, 42, 100
1, 17640, Note_off_c, 9, 39, 0
1, 17640, Note_off_c, 9, 42, 0
1, 17640, Note_off_c, 9, 45, 0
1, 17640, Note_on_c, 2, 55, 110
1, 17640, Note_on_c, 1, 59, 110
1, 17640, Note_on_c, 0, 67, 110
1, 17720, Note_off_c, 1, 59, 0
1, 17720, Note_off_c, 2, 55, 0
1, 17720, Note_off_c, 0, 67, 0
1, 17760, Note_on_c, 9, 36, 100
1, 17760, Note_on_c, 9, 43, 100
1, 17880, Note_off_c, 9, 43, 0
1, 17880, Note_off_c, 9, 36, 0
1, 17920, Note_on_c, 9, 50, 100
1, 18000, Note_on_c, 2, 57, 95
1, 18000, Note_on_c, 9, 47, 100
1, 18000, Note_on_c, 9, 39, 100
1, 18000, Note_on_c, 0, 69, 95
1, 18000, Note_on_c, 1, 64, 95
1, 18000, Note_on_c, 9, 42, 100
1, 18040, Note_off_c, 9, 50, 0
1, 18080, Note_off_c, 0, 69, 0
1, 18080, Note_off_c, 1, 64, 0
1, 18080, Note_off_c, 2, 57, 0
1, 18120, Note_off_c, 9, 42, 0
1, 18120, Note_off_c, 9, 47, 0
1, 18120, Note_off_c, 9, 39, 0
1, 18160, Note_on_c, 9, 50, 90
1, 18160, Note_on_c, 9, 43, 100
1, 18240, Note_on_c, 2, 52, 110
1, 18240, Note_on_c, 0, 64, 110
1, 18240, Note_on_c, 9, 36, 100
1, 18240, Note_on_c, 9, 45, 100
1, 18240, Note_on_c, 1, 58, 110
1, 18280, Note_off_c, 9, 50, 0
1, 18280, Note_off_c, 9, 43, 0
1, 18320, Note_off_c, 0, 64, 0
1, 18320, Note_off_c, 1, 58, 0
1, 18320, Note_off_c, 2, 52, 0
1, 18360, Note_off_c, 9, 36, 0
1, 18360, Note_off_c, 9, 45, 0
1, 18400, Note_on_c, 9, 45, 100
1, 18480, Note_on_c, 9, 42, 100
1, 18480, Note_on_c, 9, 39, 100
1, 18480, Note_on_c, 9, 43, 100
1, 18520, Note_off_c, 9, 45, 0
1, 18600, Note_off_c, 9, 43, 0
1, 18600, Note_off_c, 9, 39, 0
1, 18600, Note_off_c, 9, 42, 0
1, 18600, Note_on_c, 1, 59, 110
1, 18600, Note_on_c, 0, 67, 110
1, 18600, Note_on_c, 2, 55, 110
1, 18640, Note_on_c, 9, 50, 100
1, 18680, Note_off_c, 2, 55, 0
1, 18680, Note_off_c, 0, 67, 0
1, 18680, Note_off_c, 1, 59, 0
1, 18720, Note_on_c, 9, 36, 100
1, 18720, Note_on_c, 9, 45, 100
1, 18760, Note_off_c, 9, 50, 0
1, 18840, Note_off_c, 9, 45, 0
1, 18840, Note_off_c, 9, 36, 0
1, 18880, Note_on_c, 9, 41, 100
1, 18960, Note_on_c, 9, 39, 100
1, 18960, Note_on_c, 9, 42, 100
1, 18960, Note_on_c, 2, 57, 95
1, 18960, Note_on_c, 9, 45, 100
1, 18960, Note_on_c, 0, 69, 95
1, 18960, Note_on_c, 1, 64, 95
1, 19000, Note_off_c, 9, 41, 0
1, 19040, Note_off_c, 2, 57, 0
1, 19040, Note_off_c, 0, 69, 0
1, 19040, Note_off_c, 1, 64, 0
1, 19080, Note_off_c, 9, 42, 0
1, 19080, Note_off_c, 9, 39, 0
1, 19080, Note_off_c, 9, 45, 0
1, 19120, Note_on_c, 9, 41, 90
1, 19200, Note_on_c, 9, 36, 100
1, 19200, Note_on_c, 2, 58, 110
1, 19200, Note_on_c, 0, 70, 110
1, 19200, Note_on_c, 1, 64, 110
1, 19200, Note_on_c, 9, 45, 100
1, 19240, Note_off_c, 9, 41, 0
1, 19280, Note_off_c, 2, 58, 0
1, 19280, Note_off_c, 1, 64, 0
1, 19280, Note_off_c, 0, 70, 0
1, 19320, Note_off_c, 9, 45, 0
1, 19320, Note_off_c, 9, 36, 0
1, 19440, Note_on_c, 9, 45, 100
1, 19440, Note_on_c, 9, 42, 100
1, 19440, Note_on_c, 9, 39, 100
1, 19560, Note_off_c, 9, 45, 0
1, 19560, Note_off_c, 9, 42, 0
1, 19560, Note_off_c, 9, 39, 0
1, 19560, Note_on_c, 0, 71, 110
1, 19560, Note_on_c, 1, 64, 110
1, 19560, Note_on_c, 2, 59, 110
1, 19640, Note_off_c, 0, 71, 0
1, 19640, Note_off_c, 1, 64, 0
1, 19640, Note_off_c, 2, 59, 0
1, 19680, Note_on_c, 9, 43, 100
1, 19680, Note_on_c, 9, 36, 100
1, 19800, Note_off_c, 9, 43, 0
1, 19800, Note_off_c, 9, 36, 0
1, 19840, Note_on_c, 9, 50, 100
1, 19920, Note_on_c, 9, 47, 100
1, 19920, Note_on_c, 9, 39, 100
1, 19920, Note_on_c, 1, 64, 110
1, 19920, Note_on_c, 0, 74, 110
1, 19920, Note_on_c, 2, 62, 110
1, 19920, Note_on_c, 9, 42, 100
1, 19960, Note_off_c, 9, 50, 0
1, 20000, Note_off_c, 0, 74, 0
1, 20000, Note_off_c, 1, 64, 0
1, 20000, Note_off_c, 2, 62, 0
1, 20040, Note_off_c, 9, 42, 0
1, 20040, Note_off_c, 9, 47, 0
1, 20040, Note_off_c, 9, 39, 0
1, 20080, Note_on_c, 9, 50, 90
1, 20080, Note_on_c, 9, 43, 100
1, 20160, Note_off_c, 3, 40, 0
1, 20160, Note_on_c, 9, 45, 100
1, 20200, Note_off_c, 9, 43, 0
1, 20200, Note_off_c, 9, 50, 0
1, 20200, Note_on_c, 9, 48, 100
1, 20280, Note_off_c, 9, 45, 0
1, 20280, Note_on_c, 9, 47, 100
1, 20280, Note_on_c, 0, 76, 110
1, 20280, Note_on_c, 2, 64, 110
1, 20320, Note_off_c, 9, 48, 0
1, 20320, Note_on_c, 9, 45, 100
1, 20400, Note_off_c, 9, 47, 0
1, 20400, Note_on_c, 9, 46, 100
1, 20400, Note_on_c, 9, 38, 100
1, 20440, Note_off_c, 9, 45, 0
1, 20520, Note_off_c, 9, 38, 0
1, 20520, Note_off_c, 9, 46, 0
1, 20640, Note_off_c, 2, 64, 0
1, 20640, Note_off_c, 0, 76, 0
1, 20640, Note_on_c, 0, 77, 110
1, 20640, Note_on_c, 9, 42, 20
1, 20640, Note_on_c, 2, 65, 110
1, 20720, Note_off_c, 0, 77, 0
1, 20720, Note_off_c, 2, 65, 0
1, 20760, Note_off_c, 9, 42, 0
1, 20880, Note_on_c, 0, 78, 110
1, 20880, Note_on_c, 2, 66, 110
1, 20960, Note_off_c, 0, 78, 0
1, 20960, Note_off_c, 2, 66, 0
1, 21120, Note_on_c, 0, 79, 110
1, 21120, Note_on_c, 2, 67, 110
1, 21120, Note_on_c, 9, 42, 100
1, 21120, Note_on_c, 4, 43, 100
1, 21120, Note_on_c, 9, 36, 100
1, 21240, Note_off_c, 9, 36, 0
1, 21240, Note_off_c, 9, 42, 0
1, 21280, Note_off_c, 4, 43, 0
1, 21280, Note_off_c, 0, 79, 0
1, 21280, Note_off_c, 2, 67, 0
1, 21360, Note_on_c, 9, 46, 100
1, 21480, Note_off_c, 9, 46, 0
1, 21600, Note_on_c, 9, 42, 100
1, 21600, Note_on_c, 9, 36, 100
1, 21720, Note_off_c, 9, 42, 0
1, 21720, Note_off_c, 9, 36, 0
1, 21760, Note_on_c, 9, 42, 100
1, 21840, Note_on_c, 0, 76, 110
1, 21840, Note_on_c, 9, 46, 100
1, 21840, Note_on_c, 2, 64, 110
1, 21840, Note_on_c, 4, 40, 100
1, 21880, Note_off_c, 9, 42, 0
1, 21960, Note_off_c, 9, 46, 0
1, 22080, Note_off_c, 0, 76, 0
1, 22080, Note_off_c, 4, 40, 0
1, 22080, Note_off_c, 2, 64, 0
1, 22080, Note_on_c, 9, 36, 100
1, 22080, Note_on_c, 4, 41, 100
1, 22080, Note_on_c, 2, 65, 110
1, 22080, Note_on_c, 9, 42, 100
1, 22080, Note_on_c, 0, 77, 110
1, 22200, Note_off_c, 9, 42, 0
1, 22200, Note_off_c, 9, 36, 0
1, 22240, Note_off_c, 0, 77, 0
1, 22240, Note_off_c, 2, 65, 0
1, 22240, Note_off_c, 4, 41, 0
1, 22240, Note_on_c, 9, 42, 100
1, 22320, Note_on_c, 9, 46, 100
1, 22360, Note_off_c, 9, 42, 0
1, 22440, Note_off_c, 9, 46, 0
1, 22560, Note_on_c, 9, 36, 100
1, 22560, Note_on_c, 9, 42, 100
1, 22680, Note_off_c, 9, 36, 0
1, 22680, Note_off_c, 9, 42, 0
1, 22720, Note_on_c, 9, 42, 100
1, 22800, Note_on_c, 0, 74, 110
1, 22800, Note_on_c, 9, 46, 100
1, 22800, Note_on_c, 2, 62, 110
1, 22800, Note_on_c, 4, 38, 100
1, 22840, Note_off_c, 9, 42, 0
1, 22920, Note_off_c, 9, 46, 0
1, 23040, Note_off_c, 4, 38, 0
1, 23040, Note_off_c, 2, 62, 0
1, 23040, Note_off_c, 0, 74, 0
1, 23040, Note_on_c, 4, 43, 100
1, 23040, Note_on_c, 0, 79, 110
1, 23040, Note_on_c, 9, 36, 100
1, 23040, Note_on_c, 9, 42, 100
1, 23040, Note_on_c, 2, 67, 110
1, 23160, Note_off_c, 9, 42, 0
1, 23160, Note_off_c, 9, 36, 0
1, 23280, Note_off_c, 2, 67, 0
1, 23280, Note_off_c, 0, 79, 0
1, 23280, Note_off_c, 4, 43, 0
1, 23280, Note_on_c, 2, 62, 110
1, 23280, Note_on_c, 0, 74, 110
1, 23280, Note_on_c, 4, 38, 100
1, 23280, Note_on_c, 9, 46, 100
1, 23400, Note_off_c, 9, 46, 0
1, 23520, Note_off_c, 4, 38, 0
1, 23520, Note_off_c, 2, 62, 0
1, 23520, Note_off_c, 0, 74, 0
1, 23520, Note_on_c, 9, 42, 100
1, 23520, Note_on_c, 2, 65, 110
1, 23520, Note_on_c, 0, 77, 110
1, 23520, Note_on_c, 4, 41, 100
1, 23520, Note_on_c, 9, 36, 100
1, 23640, Note_off_c, 9, 36, 0
1, 23640, Note_off_c, 9, 42, 0
1, 23680, Note_on_c, 9, 42, 100
1, 23760, Note_off_c, 0, 77, 0
1, 23760, Note_off_c, 2, 65, 0
1, 23760, Note_off_c, 4, 41, 0
1, 23760, Note_on_c, 2, 62, 110
1, 23760, Note_on_c, 0, 74, 110
1, 23760, Note_on_c, 9, 46, 100
1, 23760, Note_on_c, 4, 38, 100
1, 23800, Note_off_c, 9, 42, 0
1, 23880, Note_off_c, 9, 46, 0
1, 24000, Note_off_c, 2, 62, 0
1, 24000, Note_off_c, 4, 38, 0
1, 24000, Note_off_c, 0, 74, 0
1, 24000, Note_on_c, 9, 42, 100
1, 24000, Note_on_c, 9, 36, 100
1, 24120, Note_off_c, 9, 36, 0
1, 24120, Note_off_c, 9, 42, 0
1, 24160, Note_on_c, 9, 42, 100
1, 24240, Note_on_c, 3, 38, 100
1, 24240, Note_on_c, 9, 46, 100
1, 24240, Note_on_c, 9, 49, 100
1, 24280, Note_off_c, 9, 42, 0
1, 24360, Note_off_c, 9, 49, 0
1, 24360, Note_off_c, 9, 46, 0
1, 24480, Note_on_c, 9, 36, 100
1, 24480, Note_on_c, 9, 42, 100
1, 24600, Note_off_c, 9, 36, 0
1, 24600, Note_off_c, 9, 42, 0
1, 24640, Note_on_c, 9, 42, 100
1, 24720, Note_on_c, 4, 42, 100
1, 24720, Note_on_c, 2, 66, 110
1, 24720, Note_on_c, 9, 46, 100
1, 24720, Note_on_c, 0, 78, 110
1, 24760, Note_off_c, 9, 42, 0
1, 24840, Note_off_c, 9, 46, 0
1, 24960, Note_off_c, 2, 66, 0
1, 24960, Note_off_c, 0, 78, 0
1, 24960, Note_off_c, 4, 42, 0
1, 24960, Note_off_c, 3, 38, 0
1, 24960, Note_on_c, 0, 79, 110
1, 24960, Note_on_c, 9, 36, 100
1, 24960, Note_on_c, 2, 67, 110
1, 24960, Note_on_c, 9, 42, 100
1, 24960, Note_on_c, 4, 43, 100
1, 25080, Note_off_c, 9, 36, 0
1, 25080, Note_off_c, 9, 42, 0
1, 25120, Note_off_c, 4, 43, 0
1, 25120, Note_off_c, 0, 79, 0
1, 25120, Note_off_c, 2, 67, 0
1, 25200, Note_on_c, 9, 46, 100
1, 25320, Note_off_c, 9, 46, 0
1, 25440, Note_on_c, 9, 42, 100
1, 25440, Note_on_c, 9, 36, 100
1, 25560, Note_off_c, 9, 42, 0
1, 25560, Note_off_c, 9, 36, 0
1, 25600, Note_on_c, 9, 42, 100
1, 25680, Note_on_c, 0, 76, 110
1, 25680, Note_on_c, 2, 64, 110
1, 25680, Note_on_c, 4, 40, 100
1, 25680, Note_on_c, 9, 46, 100
1, 25720, Note_off_c, 9, 42, 0
1, 25800, Note_off_c, 9, 46, 0
1, 25920, Note_off_c, 0, 76, 0
1, 25920, Note_off_c, 4, 40, 0
1, 25920, Note_off_c, 2, 64, 0
1, 25920, Note_on_c, 0, 77, 110
1, 25920, Note_on_c, 9, 36, 100
1, 25920, Note_on_c, 4, 41, 100
1, 25920, Note_on_c, 2, 65, 110
1, 25920, Note_on_c, 9, 42, 100
1, 26040, Note_off_c, 9, 36, 0
1, 26040, Note_off_c, 9, 42, 0
1, 26080, Note_off_c, 2, 65, 0
1, 26080, Note_off_c, 4, 41, 0
1, 26080, Note_off_c, 0, 77, 0
1, 26080, Note_on_c, 9, 42, 100
1, 26160, Note_on_c, 9, 46, 100
1, 26200, Note_off_c, 9, 42, 0
1, 26280, Note_off_c, 9, 46, 0
1, 26400, Note_on_c, 9, 42, 100
1, 26400, Note_on_c, 9, 36, 100
1, 26520, Note_off_c, 9, 36, 0
1, 26520, Note_off_c, 9, 42, 0
1, 26560, Note_on_c, 9, 42, 100
1, 26640, Note_on_c, 0, 78, 110
1, 26640, Note_on_c, 4, 42, 100
1, 26640, Note_on_c, 9, 46, 100
1, 26640, Note_on_c, 2, 66, 110
1, 26680, Note_off_c, 9, 42, 0
1, 26760, Note_off_c, 9, 46, 0
1, 26880, Note_off_c, 0, 78, 0
1, 26880, Note_off_c, 4, 42, 0
1, 26880, Note_off_c, 2, 66, 0
1, 26880, Note_on_c, 3, 50, 75
1, 26880, Note_on_c, 9, 42, 100
1, 26880, Note_on_c, 4, 43, 100
1, 26880, Note_on_c, 2, 67, 110
1, 26880, Note_on_c, 9, 36, 100
1, 26880, Note_on_c, 0, 79, 110
1, 26920, Note_off_c, 0, 79, 0
1, 26920, Note_off_c, 2, 67, 0
1, 26920, Note_off_c, 4, 43, 0
1, 26920, Note_on_c, 0, 81, 110
1, 26920, Note_on_c, 2, 69, 110
1, 26920, Note_on_c, 4, 45, 100
1, 26960, Note_on_c, 9, 46, 80
1, 27000, Note_off_c, 0, 81, 0
1, 27000, Note_off_c, 4, 45, 0
1, 27000, Note_off_c, 9, 36, 0
1, 27000, Note_off_c, 9, 42, 0
1, 27000, Note_off_c, 2, 69, 0
1, 27000, Note_on_c, 2, 67, 110
1, 27000, Note_on_c, 0, 79, 110
1, 27000, Note_on_c, 4, 43, 100
1, 27040, Note_off_c, 4, 43, 0
1, 27040, Note_off_c, 0, 79, 0
1, 27040, Note_off_c, 2, 67, 0
1, 27040, Note_on_c, 2, 66, 110
1, 27040, Note_on_c, 0, 78, 110
1, 27040, Note_on_c, 9, 42, 80
1, 27040, Note_on_c, 4, 42, 100
1, 27080, Note_off_c, 9, 46, 0
1, 27120, Note_off_c, 0, 78, 0
1, 27120, Note_off_c, 4, 42, 0
1, 27120, Note_off_c, 2, 66, 0
1, 27120, Note_off_c, 3, 50, 0
1, 27120, Note_on_c, 0, 79, 110
1, 27120, Note_on_c, 3, 47, 75
1, 27120, Note_on_c, 9, 46, 100
1, 27120, Note_on_c, 4, 43, 100
1, 27120, Note_on_c, 2, 67, 110
1, 27160, Note_off_c, 9, 42, 0
1, 27240, Note_off_c, 9, 46, 0
1, 27280, Note_off_c, 0, 79, 0
1, 27280, Note_off_c, 2, 67, 0
1, 27280, Note_off_c, 4, 43, 0
1, 27280, Note_on_c, 0, 83, 110
1, 27280, Note_on_c, 4, 47, 100
1, 27280, Note_on_c, 2, 71, 110
1, 27360, Note_off_c, 0, 83, 0
1, 27360, Note_off_c, 4, 47, 0
1, 27360, Note_off_c, 3, 47, 0
1, 27360, Note_off_c, 2, 71, 0
1, 27360, Note_on_c, 0, 86, 110
1, 27360, Note_on_c, 3, 67, 100
1, 27360, Note_on_c, 9, 42, 100
1, 27360, Note_on_c, 2, 74, 110
1, 27360, Note_on_c, 4, 50, 100
1, 27360, Note_on_c, 1, 71, 100
1, 27360, Note_on_c, 9, 36, 100
1, 27480, Note_off_c, 9, 36, 0
1, 27480, Note_off_c, 9, 42, 0
1, 27520, Note_off_c, 4, 50, 0
1, 27520, Note_off_c, 1, 71, 0
1, 27520, Note_off_c, 0, 86, 0
1, 27520, Note_off_c, 3, 67, 0
1, 27520, Note_off_c, 2, 74, 0
1, 27520, Note_on_c, 2, 76, 110
1, 27520, Note_on_c, 4, 52, 100
1, 27520, Note_on_c, 1, 70, 100
1, 27520, Note_on_c, 3, 66, 100
1, 27520, Note_on_c, 9, 46, 100
1, 27520, Note_on_c, 0, 88, 110
1, 27520, Note_on_c, 9, 36, 100
1, 27600, Note_off_c, 4, 52, 0
1, 27600, Note_off_c, 1, 70, 0
1, 27600, Note_off_c, 0, 88, 0
1, 27600, Note_off_c, 3, 66, 0
1, 27600, Note_off_c, 2, 76, 0
1, 27600, Note_on_c, 9, 42, 100
1, 27640, Note_off_c, 9, 46, 0
1, 27640, Note_off_c, 9, 36, 0
1, 27720, Note_off_c, 9, 42, 0
1, 27760, Note_on_c, 2, 77, 110
1, 27760, Note_on_c, 3, 65, 100
1, 27760, Note_on_c, 9, 46, 100
1, 27760, Note_on_c, 1, 69, 100
1, 27760, Note_on_c, 4, 53, 100
1, 27760, Note_on_c, 0, 89, 110
1, 27760, Note_on_c, 9, 36, 100
1, 27840, Note_off_c, 0, 89, 0
1, 27840, Note_off_c, 1, 69, 0
1, 27840, Note_off_c, 4, 53, 0
1, 27840, Note_off_c, 3, 65, 0
1, 27840, Note_off_c, 2, 77, 0
1, 27840, Note_on_c, 9, 42, 100
1, 27880, Note_off_c, 9, 36, 0
1, 27880, Note_off_c, 9, 46, 0
1, 27960, Note_off_c, 9, 42, 0
1, 28240, Note_on_c, 9, 42, 100
1, 28320, Note_on_c, 9, 45, 100
1, 28360, Note_off_c, 9, 42, 0
1, 28440, Note_off_c, 9, 45, 0
1, 28560, Note_on_c, 9, 43, 100
1, 28680, Note_off_c, 9, 43, 0
1, 28800, Note_on_c, 6, 74, 100
1, 28800, Note_on_c, 5, 74, 100
1, 28800, Note_on_c, 7, 43, 100
1, 28800, Note_on_c, 4, 43, 100
1, 28800, Note_on_c, 6, 62, 100
1, 28800, Note_on_c, 9, 36, 100
1, 28800, Note_on_c, 9, 42, 100
1, 28800, Note_on_c, 6, 71, 100
1, 28840, Note_off_c, 6, 74, 0
1, 28840, Note_off_c, 7, 43, 0
1, 28840, Note_off_c, 6, 62, 0
1, 28840, Note_off_c, 6, 71, 0
1, 28840, Note_off_c, 5, 74, 0
1, 28920, Note_off_c, 4, 43, 0
1, 28920, Note_off_c, 9, 36, 0
1, 28920, Note_off_c, 9, 42, 0
1, 29040, Note_on_c, 9, 46, 100
1, 29160, Note_off_c, 9, 46, 0
1, 29280, Note_on_c, 9, 42, 100
1, 29400, Note_off_c, 9, 42, 0
1, 29440, Note_on_c, 6, 63, 100
1, 29440, Note_on_c, 9, 42, 100
1, 29440, Note_on_c, 9, 36, 100
1, 29440, Note_on_c, 5, 71, 100
1, 29440, Note_on_c, 6, 71, 100
1, 29440, Note_on_c, 7, 43, 100
1, 29440, Note_on_c, 4, 51, 100
1, 29440, Note_on_c, 6, 75, 100
1, 29520, Note_off_c, 5, 71, 0
1, 29520, Note_on_c, 5, 67, 100
1, 29520, Note_on_c, 9, 46, 100
1, 29560, Note_off_c, 9, 42, 0
1, 29560, Note_off_c, 9, 36, 0
1, 29640, Note_off_c, 9, 46, 0
1, 29760, Note_off_c, 4, 51, 0
1, 29760, Note_off_c, 6, 71, 0
1, 29760, Note_off_c, 6, 75, 0
1, 29760, Note_off_c, 5, 67, 0
1, 29760, Note_off_c, 6, 63, 0
1, 29760, Note_off_c, 7, 43, 0
1, 29760, Note_on_c, 6, 76, 100
1, 29760, Note_on_c, 4, 52, 100
1, 29760, Note_on_c, 9, 36, 100
1, 29760, Note_on_c, 5, 64, 100
1, 29760, Note_on_c, 6, 64, 100
1, 29760, Note_on_c, 9, 42, 100
1, 29760, Note_on_c, 7, 43, 100
1, 29760, Note_on_c, 6, 71, 100
1, 29800, Note_off_c, 6, 71, 0
1, 29800, Note_off_c, 7, 43, 0
1, 29800, Note_off_c, 6, 76, 0
1, 29800, Note_off_c, 5, 64, 0
1, 29800, Note_off_c, 6, 64, 0
1, 29880, Note_off_c, 4, 52, 0
1, 29880, Note_off_c, 9, 36, 0
1, 29880, Note_off_c, 9, 42, 0
1, 29920, Note_on_c, 9, 42, 100
1, 30000, Note_on_c, 5, 74, 100
1, 30000, Note_on_c, 9, 46, 100
1, 30040, Note_off_c, 9, 42, 0
1, 30040, Note_off_c, 5, 74, 0
1, 30120, Note_off_c, 9, 46, 0
1, 30240, Note_on_c, 5, 71, 100
1, 30240, Note_on_c, 9, 42, 100
1, 30280, Note_off_c, 5, 71, 0
1, 30360, Note_off_c, 9, 42, 0
1, 30400, Note_on_c, 4, 51, 100
1, 30400, Note_on_c, 9, 42, 100
1, 30400, Note_on_c, 6, 63, 100
1, 30400, Note_on_c, 6, 71, 100
1, 30400, Note_on_c, 7, 43, 100
1, 30400, Note_on_c, 9, 36, 100
1, 30400, Note_on_c, 6, 75, 100
1, 30480, Note_on_c, 5, 67, 100
1, 30480, Note_on_c, 9, 46, 100
1, 30520, Note_off_c, 9, 36, 0
1, 30520, Note_off_c, 9, 42, 0
1, 30520, Note_off_c, 5, 67, 0
1, 30600, Note_off_c, 9, 46, 0
1, 30720, Note_off_c, 7, 43, 0
1, 30720, Note_off_c, 6, 75, 0
1, 30720, Note_off_c, 6, 63, 0
1, 30720, Note_off_c, 6, 71, 0
1, 30720, Note_off_c, 4, 51, 0
1, 30720, Note_on_c, 6, 74, 100
1, 30720, Note_on_c, 9, 36, 100
1, 30720, Note_on_c, 9, 42, 100
1, 30720, Note_on_c, 7, 43, 100
1, 30720, Note_on_c, 6, 71, 100
1, 30720, Note_on_c, 4, 50, 100
1, 30720, Note_on_c, 5, 71, 100
1, 30720, Note_on_c, 6, 62, 100
1, 30760, Note_off_c, 6, 71, 0
1, 30760, Note_off_c, 7, 43, 0
1, 30760, Note_off_c, 6, 62, 0
1, 30760, Note_off_c, 6, 74, 0
1, 30800, Note_off_c, 5, 71, 0
1, 30840, Note_off_c, 9, 36, 0
1, 30840, Note_off_c, 9, 42, 0
1, 30960, Note_off_c, 4, 50, 0
1, 30960, Note_on_c, 6, 74, 100
1, 30960, Note_on_c, 4, 46, 100
1, 30960, Note_on_c, 6, 62, 100
1, 30960, Note_on_c, 7, 43, 100
1, 30960, Note_on_c, 6, 71, 100
1, 30960, Note_on_c, 9, 46, 100
1, 31000, Note_off_c, 7, 43, 0
1, 31000, Note_off_c, 6, 71, 0
1, 31000, Note_off_c, 6, 62, 0
1, 31000, Note_off_c, 6, 74, 0
1, 31080, Note_off_c, 9, 46, 0
1, 31200, Note_off_c, 4, 46, 0
1, 31200, Note_on_c, 6, 71, 100
1, 31200, Note_on_c, 6, 63, 100
1, 31200, Note_on_c, 7, 43, 100
1, 31200, Note_on_c, 4, 47, 100
1, 31200, Note_on_c, 9, 36, 100
1, 31200, Note_on_c, 6, 75, 100
1, 31200, Note_on_c, 9, 42, 100
1, 31200, Note_on_c, 5, 67, 100
1, 31280, Note_off_c, 5, 67, 0
1, 31320, Note_off_c, 9, 42, 0
1, 31320, Note_off_c, 9, 36, 0
1, 31360, Note_off_c, 6, 75, 0
1, 31360, Note_off_c, 7, 43, 0
1, 31360, Note_off_c, 6, 71, 0
1, 31360, Note_off_c, 6, 63, 0
1, 31360, Note_on_c, 6, 74, 100
1, 31360, Note_on_c, 9, 42, 100
1, 31360, Note_on_c, 6, 62, 100
1, 31360, Note_on_c, 7, 43, 100
1, 31360, Note_on_c, 6, 71, 100
1, 31440, Note_off_c, 7, 43, 0
1, 31440, Note_off_c, 6, 74, 0
1, 31440, Note_off_c, 6, 62, 0
1, 31440, Note_off_c, 6, 71, 0
1, 31440, Note_off_c, 4, 47, 0
1, 31440, Note_on_c, 6, 75, 100
1, 31440, Note_on_c, 9, 46, 100
1, 31440, Note_on_c, 6, 63, 100
1, 31440, Note_on_c, 6, 71, 100
1, 31440, Note_on_c, 4, 40, 100
1, 31440, Note_on_c, 7, 43, 100
1, 31480, Note_off_c, 9, 42, 0
1, 31560, Note_off_c, 9, 46, 0
1, 31600, Note_off_c, 4, 40, 0
1, 31600, Note_off_c, 6, 63, 0
1, 31600, Note_off_c, 7, 43, 0
1, 31600, Note_off_c, 6, 75, 0
1, 31600, Note_off_c, 6, 71, 0
1, 31600, Note_on_c, 6, 71, 100
1, 31600, Note_on_c, 6, 64, 100
1, 31600, Note_on_c, 6, 76, 100
1, 31600, Note_on_c, 7, 43, 100
1, 31600, Note_on_c, 5, 71, 100
1, 31600, Note_on_c, 9, 36, 100
1, 31600, Note_on_c, 4, 43, 100
1, 31680, Note_off_c, 6, 76, 0
1, 31680, Note_off_c, 6, 64, 0
1, 31680, Note_off_c, 7, 43, 0
1, 31680, Note_off_c, 5, 71, 0
1, 31680, Note_off_c, 6, 71, 0
1, 31680, Note_off_c, 4, 43, 0
1, 31680, Note_on_c, 9, 42, 100
1, 31720, Note_off_c, 9, 36, 0
1, 31800, Note_off_c, 9, 42, 0
1, 31840, Note_on_c, 9, 42, 100
1, 31920, Note_on_c, 9, 46, 100
1, 31960, Note_off_c, 9, 42, 0
1, 32040, Note_off_c, 9, 46, 0
1, 32160, Note_on_c, 9, 42, 100
1, 32280, Note_off_c, 9, 42, 0
1, 32320, Note_on_c, 7, 43, 100
1, 32320, Note_on_c, 6, 75, 100
1, 32320, Note_on_c, 6, 63, 100
1, 32320, Note_on_c, 9, 42, 100
1, 32320, Note_on_c, 4, 43, 100
1, 32320, Note_on_c, 5, 69, 100
1, 32320, Note_on_c, 6, 71, 100
1, 32320, Note_on_c, 9, 36, 100
1, 32400, Note_on_c, 9, 46, 100
1, 32440, Note_off_c, 9, 36, 0
1, 32440, Note_off_c, 9, 42, 0
1, 32520, Note_off_c, 9, 46, 0
1, 32640, Note_off_c, 7, 43, 0
1, 32640, Note_off_c, 5, 69, 0
1, 32640, Note_off_c, 6, 71, 0
1, 32640, Note_off_c, 6, 63, 0
1, 32640, Note_off_c, 4, 43, 0
1, 32640, Note_off_c, 6, 75, 0
1, 32640, Note_on_c, 6, 74, 100
1, 32640, Note_on_c, 5, 67, 100
1, 32640, Note_on_c, 6, 71, 100
1, 32640, Note_on_c, 7, 43, 100
1, 32640, Note_on_c, 4, 43, 100
1, 32640, Note_on_c, 9, 42, 100
1, 32640, Note_on_c, 9, 36, 100
1, 32640, Note_on_c, 6, 62, 100
1, 32680, Note_off_c, 6, 74, 0
1, 32680, Note_off_c, 7, 43, 0
1, 32680, Note_off_c, 6, 62, 0
1, 32680, Note_off_c, 6, 71, 0
1, 32720, Note_off_c, 5, 67, 0
1, 32760, Note_off_c, 9, 36, 0
1, 32760, Note_off_c, 4, 43, 0
1, 32760, Note_off_c, 9, 42, 0
1, 32880, Note_on_c, 5, 67, 100
1, 32880, Note_on_c, 9, 46, 100
1, 33000, Note_off_c, 9, 46, 0
1, 33040, Note_off_c, 5, 67, 0
1, 33040, Note_on_c, 5, 69, 100
1, 33120, Note_off_c, 5, 69, 0
1, 33120, Note_on_c, 5, 67, 100
1, 33120, Note_on_c, 9, 42, 100
1, 33240, Note_off_c, 9, 42, 0
1, 33280, Note_off_c, 5, 67, 0
1, 33280, Note_on_c, 6, 71, 100
1, 33280, Note_on_c, 4, 51, 100
1, 33280, Note_on_c, 6, 63, 100
1, 33280, Note_on_c, 5, 65, 100
1, 33280, Note_on_c, 9, 36, 100
1, 33280, Note_on_c, 9, 42, 100
1, 33280, Note_on_c, 7, 43, 100
1, 33280, Note_on_c, 6, 75, 100
1, 33360, Note_off_c, 5, 65, 0
1, 33360, Note_on_c, 9, 46, 100
1, 33400, Note_off_c, 9, 36, 0
1, 33400, Note_off_c, 9, 42, 0
1, 33480, Note_off_c, 9, 46, 0
1, 33520, Note_on_c, 5, 67, 100
1, 33600, Note_off_c, 5, 67, 0
1, 33600, Note_off_c, 6, 71, 0
1, 33600, Note_off_c, 6, 75, 0
1, 33600, Note_off_c, 4, 51, 0
1, 33600, Note_off_c, 6, 63, 0
1, 33600, Note_off_c, 7, 43, 0
1, 33600, Note_on_c, 6, 76, 100
1, 33600, Note_on_c, 6, 64, 100
1, 33600, Note_on_c, 6, 71, 100
1, 33600, Note_on_c, 9, 36, 100
1, 33600, Note_on_c, 9, 42, 100
1, 33600, Note_on_c, 7, 43, 100
1, 33600, Note_on_c, 4, 52, 100
1, 33640, Note_off_c, 6, 76, 0
1, 33640, Note_off_c, 7, 43, 0
1, 33640, Note_off_c, 6, 64, 0
1, 33640, Note_off_c, 6, 71, 0
1, 33720, Note_off_c, 4, 52, 0
1, 33720, Note_off_c, 9, 42, 0
1, 33720, Note_off_c, 9, 36, 0
1, 33760, Note_on_c, 9, 42, 100
1, 33840, Note_on_c, 9, 46, 100
1, 33880, Note_off_c, 9, 42, 0
1, 33960, Note_off_c, 9, 46, 0
1, 34080, Note_on_c, 9, 42, 100
1, 34200, Note_off_c, 9, 42, 0
1, 34240, Note_on_c, 4, 51, 100
1, 34240, Note_on_c, 6, 75, 100
1, 34240, Note_on_c, 6, 63, 100
1, 34240, Note_on_c, 9, 42, 100
1, 34240, Note_on_c, 7, 43, 100
1, 34240, Note_on_c, 5, 65, 100
1, 34240, Note_on_c, 6, 71, 100
1, 34240, Note_on_c, 9, 36, 100
1, 34320, Note_on_c, 9, 46, 100
1, 34360, Note_off_c, 9, 36, 0
1, 34360, Note_off_c, 9, 42, 0
1, 34440, Note_off_c, 9, 46, 0
1, 34560, Note_off_c, 4, 51, 0
1, 34560, Note_off_c, 5, 65, 0
1, 34560, Note_off_c, 6, 71, 0
1, 34560, Note_off_c, 6, 63, 0
1, 34560, Note_off_c, 7, 43, 0
1, 34560, Note_off_c, 6, 75, 0
1, 34560, Note_on_c, 6, 74, 100
1, 34560, Note_on_c, 4, 50, 100
1, 34560, Note_on_c, 9, 36, 100
1, 34560, Note_on_c, 6, 62, 100
1, 34560, Note_on_c, 5, 67, 100
1, 34560, Note_on_c, 9, 42, 100
1, 34560, Note_on_c, 7, 43, 100
1, 34560, Note_on_c, 6, 71, 100
1, 34640, Note_off_c, 6, 74, 0
1, 34640, Note_off_c, 6, 71, 0
1, 34640, Note_off_c, 5, 67, 0
1, 34640, Note_off_c, 6, 62, 0
1, 34680, Note_off_c, 9, 36, 0
1, 34680, Note_off_c, 9, 42, 0
1, 34680, Note_off_c, 7, 43, 0
1, 34800, Note_off_c, 4, 50, 0
1, 34800, Note_on_c, 9, 46, 100
1, 34800, Note_on_c, 4, 43, 100
1, 34800, Note_on_c, 5, 67, 100
1, 34920, Note_off_c, 9, 46, 0
1, 34960, Note_off_c, 5, 67, 0
1, 34960, Note_on_c, 5, 71, 100
1, 35040, Note_off_c, 5, 71, 0
1, 35040, Note_off_c, 4, 43, 0
1, 35040, Note_on_c, 6, 70, 100
1, 35040, Note_on_c, 9, 42, 100
1, 35040, Note_on_c, 7, 42, 100
1, 35040, Note_on_c, 4, 42, 100
1, 35040, Note_on_c, 5, 74, 100
1, 35040, Note_on_c, 6, 76, 100
1, 35040, Note_on_c, 6, 64, 100
1, 35040, Note_on_c, 9, 36, 100
1, 35160, Note_off_c, 9, 36, 0
1, 35160, Note_off_c, 9, 42, 0
1, 35200, Note_off_c, 7, 42, 0
1, 35200, Note_off_c, 4, 42, 0
1, 35200, Note_off_c, 5, 74, 0
1, 35200, Note_on_c, 9, 42, 100
1, 35200, Note_on_c, 5, 76, 100
1, 35200, Note_on_c, 7, 42, 100
1, 35200, Note_on_c, 4, 42, 100
1, 35280, Note_off_c, 5, 76, 0
1, 35280, Note_on_c, 9, 46, 100
1, 35320, Note_off_c, 9, 42, 0
1, 35400, Note_off_c, 9, 46, 0
1, 35440, Note_off_c, 6, 70, 0
1, 35440, Note_off_c, 4, 42, 0
1, 35440, Note_off_c, 6, 76, 0
1, 35440, Note_off_c, 7, 42, 0
1, 35440, Note_off_c, 6, 64, 0
1, 35440, Note_on_c, 6, 77, 100
1, 35440, Note_on_c, 4, 41, 100
1, 35440, Note_on_c, 7, 41, 100
1, 35440, Note_on_c, 9, 36, 100
1, 35440, Note_on_c, 6, 65, 100
1, 35440, Note_on_c, 6, 68, 100
1, 35440, Note_on_c, 5, 77, 100
1, 35520, Note_off_c, 4, 41, 0
1, 35520, Note_off_c, 6, 65, 0
1, 35520, Note_off_c, 6, 77, 0
1, 35520, Note_off_c, 6, 68, 0
1, 35520, Note_off_c, 5, 77, 0
1, 35520, Note_off_c, 7, 41, 0
1, 35520, Note_on_c, 9, 42, 100
1, 35560, Note_off_c, 9, 36, 0
1, 35640, Note_off_c, 9, 42, 0
1, 36000, Note_on_c, 8, 77, 120
1, 36000, Note_on_c, 9, 38, 100
1, 36000, Note_on_c, 9, 49, 100
1, 36000, Note_on_c, 8, 65, 120
1, 36120, Note_off_c, 9, 38, 0
1, 36120, Note_off_c, 9, 49, 0
1, 36480, Note_off_c, 8, 77, 0
1, 36480, Note_off_c, 8, 65, 0
1, 36480, Note_on_c, 6, 74, 100
1, 36480, Note_on_c, 6, 62, 100
1, 36480, Note_on_c, 6, 71, 100
1, 36480, Note_on_c, 5, 74, 100
1, 36480, Note_on_c, 4, 43, 100
1, 36480, Note_on_c, 9, 36, 100
1, 36480, Note_on_c, 9, 42, 100
1, 36480, Note_on_c, 7, 43, 100
1, 36520, Note_off_c, 5, 74, 0
1, 36520, Note_off_c, 7, 43, 0
1, 36520, Note_off_c, 6, 62, 0
1, 36520, Note_off_c, 6, 71, 0
1, 36520, Note_off_c, 6, 74, 0
1, 36600, Note_off_c, 9, 36, 0
1, 36600, Note_off_c, 9, 42, 0
1, 36600, Note_off_c, 4, 43, 0
1, 36720, Note_on_c, 9, 46, 100
1, 36840, Note_off_c, 9, 46, 0
1, 36960, Note_on_c, 9, 42, 100
1, 37080, Note_off_c, 9, 42, 0
1, 37120, Note_on_c, 6, 63, 100
1, 37120, Note_on_c, 7, 43, 100
1, 37120, Note_on_c, 4, 51, 100
1, 37120, Note_on_c, 9, 36, 100
1, 37120, Note_on_c, 9, 42, 100
1, 37120, Note_on_c, 6, 75, 100
1, 37120, Note_on_c, 5, 71, 100
1, 37120, Note_on_c, 6, 71, 100
1, 37200, Note_off_c, 5, 71, 0
1, 37200, Note_on_c, 5, 67, 100
1, 37200, Note_on_c, 9, 46, 100
1, 37240, Note_off_c, 9, 42, 0
1, 37240, Note_off_c, 9, 36, 0
1, 37320, Note_off_c, 9, 46, 0
1, 37440, Note_off_c, 4, 51, 0
1, 37440, Note_off_c, 5, 67, 0
1, 37440, Note_off_c, 6, 75, 0
1, 37440, Note_off_c, 6, 71, 0
1, 37440, Note_off_c, 6, 63, 0
1, 37440, Note_off_c, 7, 43, 0
1, 37440, Note_on_c, 6, 76, 100
1, 37440, Note_on_c, 9, 42, 100
1, 37440, Note_on_c, 4, 52, 100
1, 37440, Note_on_c, 7, 43, 100
1, 37440, Note_on_c, 5, 64, 100
1, 37440, Note_on_c, 9, 36, 100
1, 37440, Note_on_c, 6, 71, 100
1, 37440, Note_on_c, 6, 64, 100
1, 37480, Note_off_c, 6, 64, 0
1, 37480, Note_off_c, 6, 71, 0
1, 37480, Note_off_c, 7, 43, 0
1, 37480, Note_off_c, 5, 64, 0
1, 37480, Note_off_c, 6, 76, 0
1, 37560, Note_off_c, 9, 36, 0
1, 37560, Note_off_c, 9, 42, 0
1, 37560, Note_off_c, 4, 52, 0
1, 37600, Note_on_c, 9, 42, 100
1, 37680, Note_on_c, 5, 74, 100
1, 37680, Note_on_c, 9, 46, 100
1, 37720, Note_off_c, 9, 42, 0
1, 37720, Note_off_c, 5, 74, 0
1, 37800, Note_off_c, 9, 46, 0
1, 37920, Note_on_c, 5, 71, 100
1, 37920, Note_on_c, 9, 42, 100
1, 37960, Note_off_c, 5, 71, 0
1, 38040, Note_off_c, 9, 42, 0
1, 38080, Note_on_c, 4, 51, 100
1, 38080, Note_on_c, 9, 42, 100
1, 38080, Note_on_c, 6, 63, 100
1, 38080, Note_on_c, 6, 71, 100
1, 38080, Note_on_c, 7, 43, 100
1, 38080, Note_on_c, 9, 36, 100
1, 38080, Note_on_c, 6, 75, 100
1, 38160, Note_on_c, 5, 67, 100
1, 38160, Note_on_c, 9, 46, 100
1, 38200, Note_off_c, 9, 36, 0
1, 38200, Note_off_c, 9, 42, 0
1, 38200, Note_off_c, 5, 67, 0
1, 38280, Note_off_c, 9, 46, 0
1, 38400, Note_off_c, 7, 43, 0
1, 38400, Note_off_c, 6, 75, 0
1, 38400, Note_off_c, 6, 63, 0
1, 38400, Note_off_c, 6, 71, 0
1, 38400, Note_off_c, 4, 51, 0
1, 38400, Note_on_c, 6, 74, 100
1, 38400, Note_on_c, 6, 71, 100
1, 38400, Note_on_c, 7, 43, 100
1, 38400, Note_on_c, 4, 50, 100
1, 38400, Note_on_c, 6, 62, 100
1, 38400, Note_on_c, 9, 36, 100
1, 38400, Note_on_c, 9, 42, 100
1, 38400, Note_on_c, 5, 71, 100
1, 38440, Note_off_c, 6, 74, 0
1, 38440, Note_off_c, 7, 43, 0
1, 38440, Note_off_c, 6, 71, 0
1, 38440, Note_off_c, 6, 62, 0
1, 38480, Note_off_c, 5, 71, 0
1, 38520, Note_off_c, 9, 36, 0
1, 38520, Note_off_c, 9, 42, 0
1, 38640, Note_off_c, 4, 50, 0
1, 38640, Note_on_c, 6, 74, 100
1, 38640, Note_on_c, 9, 46, 100
1, 38640, Note_on_c, 6, 62, 100
1, 38640, Note_on_c, 7, 43, 100
1, 38640, Note_on_c, 6, 71, 100
1, 38640, Note_on_c, 4, 46, 100
1, 38680, Note_off_c, 7, 43, 0
1, 38680, Note_off_c, 6, 74, 0
1, 38680, Note_off_c, 6, 71, 0
1, 38680, Note_off_c, 6, 62, 0
1, 38760, Note_off_c, 9, 46, 0
1, 38880, Note_off_c, 4, 46, 0
1, 38880, Note_on_c, 6, 71, 100
1, 38880, Note_on_c, 6, 63, 100
1, 38880, Note_on_c, 5, 67, 100
1, 38880, Note_on_c, 7, 43, 100
1, 38880, Note_on_c, 4, 47, 100
1, 38880, Note_on_c, 6, 75, 100
1, 38880, Note_on_c, 9, 42, 100
1, 38880, Note_on_c, 9, 36, 100
1, 38960, Note_off_c, 5, 67, 0
1, 39000, Note_off_c, 9, 42, 0
1, 39000, Note_off_c, 9, 36, 0
1, 39040, Note_off_c, 6, 75, 0
1, 39040, Note_off_c, 7, 43, 0
1, 39040, Note_off_c, 6, 71, 0
1, 39040, Note_off_c, 6, 63, 0
1, 39040, Note_on_c, 6, 74, 100
1, 39040, Note_on_c, 6, 71, 100
1, 39040, Note_on_c, 9, 42, 100
1, 39040, Note_on_c, 6, 62, 100
1, 39040, Note_on_c, 7, 43, 100
1, 39120, Note_off_c, 6, 74, 0
1, 39120, Note_off_c, 7, 43, 0
1, 39120, Note_off_c, 6, 62, 0
1, 39120, Note_off_c, 6, 71, 0
1, 39120, Note_off_c, 4, 47, 0
1, 39120, Note_on_c, 6, 75, 100
1, 39120, Note_on_c, 9, 46, 100
1, 39120, Note_on_c, 6, 63, 100
1, 39120, Note_on_c, 6, 71, 100
1, 39120, Note_on_c, 4, 40, 100
1, 39120, Note_on_c, 7, 43, 100
1, 39160, Note_off_c, 9, 42, 0
1, 39240, Note_off_c, 9, 46, 0
1, 39280, Note_off_c, 4, 40, 0
1, 39280, Note_off_c, 6, 63, 0
1, 39280, Note_off_c, 7, 43, 0
1, 39280, Note_off_c, 6, 75, 0
1, 39280, Note_off_c, 6, 71, 0
1, 39280, Note_on_c, 6, 71, 100
1, 39280, Note_on_c, 5, 71, 100
1, 39280, Note_on_c, 4, 43, 100
1, 39280, Note_on_c, 9, 36, 100
1, 39280, Note_on_c, 6, 64, 100
1, 39280, Note_on_c, 6, 76, 100
1, 39280, Note_on_c, 7, 43, 100
1, 39360, Note_off_c, 6, 76, 0
1, 39360, Note_off_c, 6, 64, 0
1, 39360, Note_off_c, 7, 43, 0
1, 39360, Note_off_c, 5, 71, 0
1, 39360, Note_off_c, 6, 71, 0
1, 39360, Note_off_c, 4, 43, 0
1, 39360, Note_on_c, 9, 42, 100
1, 39400, Note_off_c, 9, 36, 0
1, 39480, Note_off_c, 9, 42, 0
1, 39520, Note_on_c, 9, 42, 100
1, 39600, Note_on_c, 9, 46, 100
1, 39640, Note_off_c, 9, 42, 0
1, 39720, Note_off_c, 9, 46, 0
1, 39840, Note_on_c, 9, 42, 100
1, 39960, Note_off_c, 9, 42, 0
1, 40000, Note_on_c, 4, 43, 100
1, 40000, Note_on_c, 6, 71, 100
1, 40000, Note_on_c, 9, 36, 100
1, 40000, Note_on_c, 6, 75, 100
1, 40000, Note_on_c, 9, 42, 100
1, 40000, Note_on_c, 6, 63, 100
1, 40000, Note_on_c, 5, 69, 100
1, 40000, Note_on_c, 7, 43, 100
1, 40080, Note_on_c, 9, 46, 100
1, 40120, Note_off_c, 9, 36, 0
1, 40120, Note_off_c, 9, 42, 0
1, 40200, Note_off_c, 9, 46, 0
1, 40320, Note_off_c, 4, 43, 0
1, 40320, Note_off_c, 5, 69, 0
1, 40320, Note_off_c, 6, 71, 0
1, 40320, Note_off_c, 6, 63, 0
1, 40320, Note_off_c, 7, 43, 0
1, 40320, Note_off_c, 6, 75, 0
1, 40320, Note_on_c, 6, 74, 100
1, 40320, Note_on_c, 7, 43, 100
1, 40320, Note_on_c, 6, 62, 100
1, 40320, Note_on_c, 5, 67, 100
1, 40320, Note_on_c, 9, 42, 100
1, 40320, Note_on_c, 6, 71, 100
1, 40320, Note_on_c, 9, 36, 100
1, 40320, Note_on_c, 4, 43, 100
1, 40360, Note_off_c, 6, 71, 0
1, 40360, Note_off_c, 7, 43, 0
1, 40360, Note_off_c, 6, 62, 0
1, 40360, Note_off_c, 6, 74, 0
1, 40400, Note_off_c, 5, 67, 0
1, 40440, Note_off_c, 9, 36, 0
1, 40440, Note_off_c, 9, 42, 0
1, 40440, Note_off_c, 4, 43, 0
1, 40560, Note_on_c, 5, 67, 100
1, 40560, Note_on_c, 9, 46, 100
1, 40680, Note_off_c, 9, 46, 0
1, 40720, Note_off_c, 5, 67, 0
1, 40720, Note_on_c, 5, 69, 100
1, 40800, Note_off_c, 5, 69, 0
1, 40800, Note_on_c, 5, 67, 100
1, 40800, Note_on_c, 9, 42, 100
1, 40920, Note_off_c, 9, 42, 0
1, 40960, Note_off_c, 5, 67, 0
1, 40960, Note_on_c, 6, 71, 100
1, 40960, Note_on_c, 9, 42, 100
1, 40960, Note_on_c, 6, 63, 100
1, 40960, Note_on_c, 5, 65, 100
1, 40960, Note_on_c, 7, 43, 100
1, 40960, Note_on_c, 9, 36, 100
1, 40960, Note_on_c, 4, 51, 100
1, 40960, Note_on_c, 6, 75, 100
1, 41040, Note_off_c, 5, 65, 0
1, 41040, Note_on_c, 9, 46, 100
1, 41080, Note_off_c, 9, 36, 0
1, 41080, Note_off_c, 9, 42, 0
1, 41160, Note_off_c, 9, 46, 0
1, 41200, Note_on_c, 5, 67, 100
1, 41280, Note_off_c, 5, 67, 0
1, 41280, Note_off_c, 6, 71, 0
1, 41280, Note_off_c, 6, 75, 0
1, 41280, Note_off_c, 4, 51, 0
1, 41280, Note_off_c, 6, 63, 0
1, 41280, Note_off_c, 7, 43, 0
1, 41280, Note_on_c, 6, 76, 100
1, 41280, Note_on_c, 7, 43, 100
1, 41280, Note_on_c, 4, 52, 100
1, 41280, Note_on_c, 6, 64, 100
1, 41280, Note_on_c, 6, 71, 100
1, 41280, Note_on_c, 9, 42, 100
1, 41280, Note_on_c, 9, 36, 100
1, 41320, Note_off_c, 6, 76, 0
1, 41320, Note_off_c, 7, 43, 0
1, 41320, Note_off_c, 6, 64, 0
1, 41320, Note_off_c, 6, 71, 0
1, 41400, Note_off_c, 9, 36, 0
1, 41400, Note_off_c, 9, 42, 0
1, 41400, Note_off_c, 4, 52, 0
1, 41440, Note_on_c, 9, 42, 100
1, 41520, Note_on_c, 9, 46, 100
1, 41560, Note_off_c, 9, 42, 0
1, 41640, Note_off_c, 9, 46, 0
1, 41760, Note_on_c, 9, 42, 100
1, 41880, Note_off_c, 9, 42, 0
1, 41920, Note_on_c, 10, 65, 80
1, 41920, Note_on_c, 5, 65, 100
1, 41920, Note_on_c, 9, 42, 100
1, 41920, Note_on_c, 6, 71, 100
1, 41920, Note_on_c, 6, 75, 100
1, 41920, Note_on_c, 6, 63, 100
1, 41920, Note_on_c, 7, 43, 100
1, 41920, Note_on_c, 9, 36, 100
1, 41920, Note_on_c, 4, 51, 100
1, 41920, Note_on_c, 10, 77, 80
1, 42000, Note_off_c, 10, 77, 0
1, 42000, Note_off_c, 10, 65, 0
1, 42000, Note_on_c, 9, 46, 100
1, 42000, Note_on_c, 10, 67, 80
1, 42000, Note_on_c, 10, 79, 80
1, 42040, Note_off_c, 9, 36, 0
1, 42040, Note_off_c, 9, 42, 0
1, 42040, Note_off_c, 10, 67, 0
1, 42040, Note_off_c, 10, 79, 0
1, 42040, Note_on_c, 10, 81, 80
1, 42040, Note_on_c, 10, 69, 80
1, 42080, Note_off_c, 10, 69, 0
1, 42080, Note_off_c, 10, 81, 0
1, 42080, Note_on_c, 10, 71, 80
1, 42080, Note_on_c, 10, 83, 80
1, 42120, Note_off_c, 10, 83, 0
1, 42120, Note_off_c, 10, 71, 0
1, 42120, Note_off_c, 9, 46, 0
1, 42120, Note_on_c, 10, 84, 80
1, 42120, Note_on_c, 10, 72, 80
1, 42160, Note_off_c, 10, 84, 0
1, 42160, Note_off_c, 10, 72, 0
1, 42160, Note_on_c, 10, 86, 80
1, 42160, Note_on_c, 10, 74, 80
1, 42200, Note_off_c, 10, 86, 0
1, 42200, Note_off_c, 10, 74, 0
1, 42200, Note_on_c, 10, 88, 80
1, 42200, Note_on_c, 10, 76, 80
1, 42240, Note_off_c, 7, 43, 0
1, 42240, Note_off_c, 5, 65, 0
1, 42240, Note_off_c, 10, 88, 0
1, 42240, Note_off_c, 6, 71, 0
1, 42240, Note_off_c, 6, 75, 0
1, 42240, Note_off_c, 4, 51, 0
1, 42240, Note_off_c, 6, 63, 0
1, 42240, Note_off_c, 10, 76, 0
1, 42240, Note_on_c, 10, 76, 100
1, 42240, Note_on_c, 10, 79, 100
1, 42240, Note_on_c, 7, 67, 120
1, 42240, Note_on_c, 5, 67, 100
1, 42240, Note_on_c, 4, 52, 100
1, 42240, Note_on_c, 10, 91, 100
1, 42240, Note_on_c, 9, 45, 100
1, 42240, Note_on_c, 10, 88, 100
1, 42320, Note_off_c, 5, 67, 0
1, 42360, Note_off_c, 9, 45, 0
1, 42480, Note_off_c, 4, 52, 0
1, 42480, Note_on_c, 9, 36, 100
1, 42480, Note_on_c, 6, 71, 100
1, 42480, Note_on_c, 5, 67, 100
1, 42480, Note_on_c, 4, 44, 100
1, 42480, Note_on_c, 9, 42, 100
1, 42480, Note_on_c, 6, 76, 100
1, 42600, Note_off_c, 10, 76, 0
1, 42600, Note_off_c, 10, 88, 0
1, 42600, Note_off_c, 10, 91, 0
1, 42600, Note_off_c, 7, 67, 0
1, 42600, Note_off_c, 10, 79, 0
1, 42600, Note_off_c, 9, 36, 0
1, 42600, Note_off_c, 9, 42, 0
1, 42640, Note_off_c, 5, 67, 0
1, 42640, Note_on_c, 10, 76, 100
1, 42640, Note_on_c, 10, 88, 100
1, 42640, Note_on_c, 10, 93, 100
1, 42640, Note_on_c, 9, 48, 100
1, 42640, Note_on_c, 5, 71, 100
1, 42640, Note_on_c, 10, 81, 100
1, 42640, Note_on_c, 7, 69, 120
1, 42720, Note_off_c, 4, 44, 0
1, 42720, Note_off_c, 5, 71, 0
1, 42720, Note_off_c, 6, 76, 0
1, 42720, Note_off_c, 6, 71, 0
1, 42720, Note_on_c, 4, 45, 100
1, 42720, Note_on_c, 5, 74, 100
1, 42760, Note_off_c, 9, 48, 0
1, 42880, Note_off_c, 10, 81, 0
1, 42880, Note_off_c, 5, 74, 0
1, 42880, Note_off_c, 10, 93, 0
1, 42880, Note_off_c, 10, 76, 0
1, 42880, Note_off_c, 10, 88, 0
1, 42880, Note_off_c, 7, 69, 0
1, 42880, Note_on_c, 5, 76, 100
1, 42880, Note_on_c, 6, 76, 100
1, 42880, Note_on_c, 6, 71, 100
1, 42880, Note_on_c, 9, 36, 100
1, 42960, Note_off_c, 6, 76, 0
1, 42960, Note_off_c, 6, 71, 0
1, 42960, Note_off_c, 5, 76, 0
1, 42960, Note_off_c, 4, 45, 0
1, 42960, Note_on_c, 10, 88, 100
1, 42960, Note_on_c, 9, 42, 100
1, 42960, Note_on_c, 7, 67, 120
1, 42960, Note_on_c, 10, 79, 100
1, 42960, Note_on_c, 4, 49, 100
1, 42960, Note_on_c, 10, 91, 100
1, 42960, Note_on_c, 9, 43, 100
1, 42960, Note_on_c, 10, 76, 100
1, 43000, Note_off_c, 9, 36, 0
1, 43080, Note_off_c, 9, 42, 0
1, 43080, Note_off_c, 9, 43, 0
1, 43120, Note_on_c, 5, 77, 100
1, 43200, Note_off_c, 7, 67, 0
1, 43200, Note_off_c, 10, 76, 0
1, 43200, Note_off_c, 10, 79, 0
1, 43200, Note_off_c, 10, 88, 0
1, 43200, Note_off_c, 4, 49, 0
1, 43200, Note_off_c, 5, 77, 0
1, 43200, Note_off_c, 10, 91, 0
1, 43200, Note_on_c, 7, 65, 120
1, 43200, Note_on_c, 10, 77, 100
1, 43200, Note_on_c, 10, 74, 100
1, 43200, Note_on_c, 9, 36, 100
1, 43200, Note_on_c, 4, 50, 100
1, 43200, Note_on_c, 10, 86, 100
1, 43200, Note_on_c, 10, 89, 100
1, 43320, Note_off_c, 9, 36, 0
1, 43360, Note_on_c, 9, 48, 100
1, 43440, Note_off_c, 4, 50, 0
1, 43440, Note_on_c, 6, 71, 100
1, 43440, Note_on_c, 4, 42, 100
1, 43440, Note_on_c, 9, 42, 100
1, 43440, Note_on_c, 6, 74, 100
1, 43480, Note_off_c, 9, 48, 0
1, 43560, Note_off_c, 7, 65, 0
1, 43560, Note_off_c, 10, 89, 0
1, 43560, Note_off_c, 10, 77, 0
1, 43560, Note_off_c, 10, 74, 0
1, 43560, Note_off_c, 9, 42, 0
1, 43560, Note_off_c, 10, 86, 0
1, 43600, Note_on_c, 9, 36, 100
1, 43600, Note_on_c, 10, 91, 100
1, 43600, Note_on_c, 10, 79, 100
1, 43600, Note_on_c, 10, 86, 100
1, 43600, Note_on_c, 10, 74, 100
1, 43600, Note_on_c, 7, 67, 120
1, 43680, Note_off_c, 6, 74, 0
1, 43680, Note_off_c, 6, 71, 0
1, 43680, Note_off_c, 4, 42, 0
1, 43680, Note_on_c, 4, 43, 100
1, 43680, Note_on_c, 9, 43, 100
1, 43720, Note_off_c, 9, 36, 0
1, 43800, Note_off_c, 9, 43, 0
1, 43840, Note_off_c, 10, 91, 0
1, 43840, Note_off_c, 7, 67, 0
1, 43840, Note_off_c, 10, 86, 0
1, 43840, Note_off_c, 10, 74, 0
1, 43840, Note_off_c, 10, 79, 0
1, 43840, Note_on_c, 6, 71, 100
1, 43840, Note_on_c, 6, 74, 100
1, 43920, Note_off_c, 4, 43, 0
1, 43920, Note_off_c, 6, 71, 0
1, 43920, Note_off_c, 6, 74, 0
1, 43920, Note_on_c, 10, 74, 100
1, 43920, Note_on_c, 10, 77, 100
1, 43920, Note_on_c, 10, 86, 100
1, 43920, Note_on_c, 9, 55, 100
1, 43920, Note_on_c, 7, 65, 120
1, 43920, Note_on_c, 10, 89, 100
1, 43920, Note_on_c, 9, 42, 100
1, 43920, Note_on_c, 9, 38, 90
1, 43920, Note_on_c, 4, 38, 100
1, 43960, Note_on_c, 9, 38, 90
1, 44040, Note_off_c, 9, 38, 0
1, 44040, Note_off_c, 9, 55, 0
1, 44040, Note_off_c, 9, 42, 0
1, 44040, Note_on_c, 9, 38, 90
1, 44080, Note_off_c, 9, 38, 0
1, 44080, Note_on_c, 9, 38, 90
1, 44160, Note_off_c, 10, 77, 0
1, 44160, Note_off_c, 10, 74, 0
1, 44160, Note_off_c, 10, 86, 0
1, 44160, Note_off_c, 4, 38, 0
1, 44160, Note_off_c, 7, 65, 0
1, 44160, Note_off_c, 10, 89, 0
1, 44160, Note_off_c, 9, 38, 0
1, 44160, Note_on_c, 9, 36, 100
1, 44160, Note_on_c, 6, 64, 100
1, 44160, Note_on_c, 9, 53, 110
1, 44160, Note_on_c, 11, 76, 100
1, 44160, Note_on_c, 12, 76, 100
1, 44160, Note_on_c, 6, 55, 100
1, 44160, Note_on_c, 4, 36, 100
1, 44160, Note_on_c, 10, 88, 80
1, 44160, Note_on_c, 10, 79, 80
1, 44160, Note_on_c, 6, 60, 100
1, 44160, Note_on_c, 6, 67, 100
1, 44160, Note_on_c, 10, 84, 80
1, 44200, Note_off_c, 9, 38, 0
1, 44240, Note_off_c, 12, 76, 0
1, 44240, Note_off_c, 11, 76, 0
1, 44280, Note_off_c, 9, 36, 0
1, 44280, Note_off_c, 9, 53, 0
1, 44400, Note_off_c, 4, 36, 0
1, 44400, Note_on_c, 9, 53, 100
1, 44400, Note_on_c, 4, 43, 100
1, 44520, Note_off_c, 9, 53, 0
1, 44560, Note_on_c, 9, 53, 100
1, 44640, Note_off_c, 4, 43, 0
1, 44640, Note_on_c, 4, 48, 100
1, 44640, Note_on_c, 9, 53, 110
1, 44680, Note_off_c, 9, 53, 0
1, 44760, Note_off_c, 9, 53, 0
1, 44800, Note_on_c, 12, 72, 100
1, 44800, Note_on_c, 11, 72, 100
1, 44880, Note_off_c, 4, 48, 0
1, 44880, Note_off_c, 11, 72, 0
1, 44880, Note_off_c, 12, 72, 0
1, 44880, Note_on_c, 9, 53, 100
1, 44880, Note_on_c, 4, 47, 100
1, 44880, Note_on_c, 11, 69, 100
1, 44880, Note_on_c, 12, 69, 100
1, 45000, Note_off_c, 9, 53, 0
1, 45040, Note_off_c, 12, 69, 0
1, 45040, Note_off_c, 11, 69, 0
1, 45040, Note_off_c, 4, 47, 0
1, 45040, Note_on_c, 9, 53, 100
1, 45040, Note_on_c, 11, 66, 100
1, 45040, Note_on_c, 12, 66, 100
1, 45040, Note_on_c, 4, 46, 100
1, 45120, Note_off_c, 6, 60, 0
1, 45120, Note_off_c, 6, 64, 0
1, 45120, Note_off_c, 6, 67, 0
1, 45120, Note_off_c, 4, 46, 0
1, 45120, Note_off_c, 12, 66, 0
1, 45120, Note_off_c, 6, 55, 0
1, 45120, Note_off_c, 11, 66, 0
1, 45120, Note_on_c, 4, 45, 100
1, 45120, Note_on_c, 9, 53, 110
1, 45160, Note_off_c, 9, 53, 0
1, 45240, Note_off_c, 9, 53, 0
1, 45280, Note_on_c, 6, 64, 100
1, 45280, Note_on_c, 6, 60, 100
1, 45280, Note_on_c, 6, 57, 100
1, 45280, Note_on_c, 6, 66, 100
1, 45280, Note_on_c, 9, 36, 100
1, 45280, Note_on_c, 6, 54, 100
1, 45360, Note_off_c, 6, 66, 0
1, 45360, Note_off_c, 6, 60, 0
1, 45360, Note_off_c, 6, 54, 0
1, 45360, Note_off_c, 4, 45, 0
1, 45360, Note_off_c, 6, 64, 0
1, 45360, Note_off_c, 6, 57, 0
1, 45360, Note_on_c, 9, 53, 100
1, 45360, Note_on_c, 4, 50, 100
1, 45400, Note_off_c, 9, 36, 0
1, 45480, Note_off_c, 9, 53, 0
1, 45520, Note_on_c, 9, 53, 100
1, 45600, Note_off_c, 4, 50, 0
1, 45600, Note_on_c, 6, 57, 100
1, 45600, Note_on_c, 9, 36, 100
1, 45600, Note_on_c, 4, 38, 100
1, 45600, Note_on_c, 6, 66, 100
1, 45600, Note_on_c, 6, 60, 100
1, 45600, Note_on_c, 6, 64, 100
1, 45600, Note_on_c, 6, 54, 100
1, 45640, Note_off_c, 9, 53, 0
1, 45720, Note_off_c, 9, 36, 0
1, 45760, Note_on_c, 12, 69, 100
1, 45760, Note_on_c, 11, 69, 100
1, 45760, Note_on_c, 9, 53, 110
1, 45840, Note_off_c, 12, 69, 0
1, 45840, Note_off_c, 11, 69, 0
1, 45840, Note_off_c, 4, 38, 0
1, 45840, Note_on_c, 4, 40, 100
1, 45840, Note_on_c, 11, 72, 100
1, 45840, Note_on_c, 9, 53, 100
1, 45840, Note_on_c, 12, 72, 100
1, 45880, Note_off_c, 9, 53, 0
1, 45960, Note_off_c, 9, 53, 0
1, 46000, Note_off_c, 12, 72, 0
1, 46000, Note_off_c, 4, 40, 0
1, 46000, Note_off_c, 11, 72, 0
1, 46000, Note_on_c, 11, 76, 100
1, 46000, Note_on_c, 12, 76, 100
1, 46000, Note_on_c, 4, 42, 100
1, 46080, Note_off_c, 6, 54, 0
1, 46080, Note_off_c, 6, 57, 0
1, 46080, Note_off_c, 10, 84, 0
1, 46080, Note_off_c, 6, 60, 0
1, 46080, Note_off_c, 12, 76, 0
1, 46080, Note_off_c, 11, 76, 0
1, 46080, Note_off_c, 6, 64, 0
1, 46080, Note_off_c, 6, 66, 0
1, 46080, Note_off_c, 10, 79, 0
1, 46080, Note_off_c, 10, 88, 0
1, 46080, Note_off_c, 4, 42, 0
1, 46080, Note_on_c, 10, 86, 80
1, 46080, Note_on_c, 12, 74, 100
1, 46080, Note_on_c, 11, 74, 100
1, 46080, Note_on_c, 10, 79, 80
1, 46080, Note_on_c, 6, 71, 100
1, 46080, Note_on_c, 9, 53, 110
1, 46080, Note_on_c, 10, 83, 80
1, 46080, Note_on_c, 4, 43, 100
1, 46080, Note_on_c, 9, 36, 100
1, 46120, Note_off_c, 11, 74, 0
1, 46120, Note_off_c, 12, 74, 0
1, 46120, Note_on_c, 12, 76, 100
1, 46120, Note_on_c, 11, 76, 100
1, 46200, Note_off_c, 12, 76, 0
1, 46200, Note_off_c, 9, 53, 0
1, 46200, Note_off_c, 11, 76, 0
1, 46200, Note_off_c, 9, 36, 0
1, 46200, Note_on_c, 12, 74, 100
1, 46200, Note_on_c, 11, 74, 100
1, 46240, Note_off_c, 11, 74, 0
1, 46240, Note_off_c, 6, 71, 0
1, 46240, Note_off_c, 12, 74, 0
1, 46240, Note_on_c, 12, 71, 100
1, 46240, Note_on_c, 6, 66, 100
1, 46240, Note_on_c, 11, 71, 100
1, 46320, Note_off_c, 4, 43, 0
1, 46320, Note_off_c, 6, 66, 0
1, 46320, Note_off_c, 11, 71, 0
1, 46320, Note_off_c, 12, 71, 0
1, 46320, Note_on_c, 12, 72, 100
1, 46320, Note_on_c, 9, 53, 100
1, 46320, Note_on_c, 4, 50, 100
1, 46320, Note_on_c, 11, 72, 100
1, 46320, Note_on_c, 6, 67, 100
1, 46440, Note_off_c, 9, 53, 0
1, 46480, Note_off_c, 11, 72, 0
1, 46480, Note_off_c, 6, 67, 0
1, 46480, Note_off_c, 12, 72, 0
1, 46480, Note_on_c, 11, 73, 100
1, 46480, Note_on_c, 6, 72, 100
1, 46480, Note_on_c, 12, 73, 100
1, 46480, Note_on_c, 9, 53, 100
1, 46560, Note_off_c, 4, 50, 0
1, 46560, Note_off_c, 6, 72, 0
1, 46560, Note_off_c, 12, 73, 0
1, 46560, Note_off_c, 11, 73, 0
1, 46560, Note_on_c, 12, 74, 100
1, 46560, Note_on_c, 9, 53, 110
1, 46560, Note_on_c, 4, 55, 100
1, 46560, Note_on_c, 11, 74, 100
1, 46560, Note_on_c, 6, 71, 100
1, 46600, Note_off_c, 9, 53, 0
1, 46680, Note_off_c, 9, 53, 0
1, 46720, Note_off_c, 11, 74, 0
1, 46720, Note_off_c, 6, 71, 0
1, 46720, Note_off_c, 12, 74, 0
1, 46720, Note_on_c, 12, 79, 100
1, 46720, Note_on_c, 6, 67, 100
1, 46720, Note_on_c, 11, 79, 100
1, 46800, Note_off_c, 11, 79, 0
1, 46800, Note_off_c, 4, 55, 0
1, 46800, Note_off_c, 12, 79, 0
1, 46800, Note_on_c, 4, 47, 100
1, 46800, Note_on_c, 6, 69, 100
1, 46800, Note_on_c, 6, 62, 100
1, 46800, Note_on_c, 9, 53, 100
1, 46920, Note_off_c, 9, 53, 0
1, 46960, Note_off_c, 6, 69, 0
1, 46960, Note_off_c, 6, 67, 0
1, 46960, Note_off_c, 6, 62, 0
1, 46960, Note_on_c, 11, 74, 100
1, 46960, Note_on_c, 6, 67, 100
1, 46960, Note_on_c, 12, 74, 100
1, 46960, Note_on_c, 9, 53, 100
1, 47040, Note_off_c, 6, 67, 0
1, 47040, Note_off_c, 4, 47, 0
1, 47040, Note_on_c, 9, 36, 100
1, 47040, Note_on_c, 4, 50, 100
1, 47040, Note_on_c, 6, 62, 100
1, 47040, Note_on_c, 6, 66, 100
1, 47040, Note_on_c, 9, 53, 110
1, 47080, Note_off_c, 9, 53, 0
1, 47160, Note_off_c, 9, 53, 0
1, 47160, Note_off_c, 9, 36, 0
1, 47200, Note_off_c, 6, 66, 0
1, 47200, Note_off_c, 6, 62, 0
1, 47200, Note_on_c, 6, 66, 100
1, 47200, Note_on_c, 6, 62, 100
1, 47280, Note_off_c, 4, 50, 0
1, 47280, Note_off_c, 6, 62, 0
1, 47280, Note_off_c, 6, 66, 0
1, 47280, Note_on_c, 4, 54, 100
1, 47280, Note_on_c, 6, 76, 100
1, 47280, Note_on_c, 9, 53, 100
1, 47280, Note_on_c, 6, 72, 100
1, 47280, Note_on_c, 9, 36, 100
1, 47400, Note_off_c, 9, 53, 0
1, 47400, Note_off_c, 9, 36, 0
1, 47440, Note_off_c, 6, 76, 0
1, 47440, Note_off_c, 6, 72, 0
1, 47440, Note_on_c, 6, 71, 100
1, 47440, Note_on_c, 9, 53, 100
1, 47440, Note_on_c, 6, 74, 100
1, 47520, Note_off_c, 4, 54, 0
1, 47520, Note_on_c, 4, 43, 100
1, 47560, Note_off_c, 9, 53, 0
1, 47680, Note_off_c, 6, 74, 0
1, 47680, Note_off_c, 6, 71, 0
1, 47680, Note_on_c, 9, 36, 100
1, 47680, Note_on_c, 9, 53, 110
1, 47680, Note_on_c, 6, 66, 100
1, 47760, Note_off_c, 12, 74, 0
1, 47760, Note_off_c, 11, 74, 0
1, 47760, Note_off_c, 4, 43, 0
1, 47760, Note_off_c, 6, 66, 0
1, 47760, Note_on_c, 9, 53, 100
1, 47760, Note_on_c, 6, 71, 100
1, 47760, Note_on_c, 4, 47, 100
1, 47800, Note_off_c, 9, 36, 0
1, 47800, Note_off_c, 9, 53, 0
1, 47880, Note_off_c, 9, 53, 0
1, 47920, Note_off_c, 6, 71, 0
1, 47920, Note_on_c, 9, 36, 100
1, 47920, Note_on_c, 6, 66, 100
1, 48000, Note_off_c, 10, 79, 0
1, 48000, Note_off_c, 10, 83, 0
1, 48000, Note_off_c, 10, 86, 0
1, 48000, Note_off_c, 4, 47, 0
1, 48000, Note_off_c, 6, 66, 0
1, 48000, Note_on_c, 10, 84, 80
1, 48000, Note_on_c, 6, 67, 100
1, 48000, Note_on_c, 9, 36, 100
1, 48000, Note_on_c, 4, 48, 100
1, 48000, Note_on_c, 10, 79, 80
1, 48000, Note_on_c, 11, 72, 100
1, 48000, Note_on_c, 10, 76, 80
1, 48000, Note_on_c, 12, 72, 100
1, 48040, Note_off_c, 9, 36, 0
1, 48080, Note_off_c, 11, 72, 0
1, 48080, Note_off_c, 12, 72, 0
1, 48080, Note_off_c, 6, 67, 0
1, 48120, Note_off_c, 9, 36, 0
1, 48160, Note_on_c, 6, 69, 100
1, 48160, Note_on_c, 9, 38, 100
1, 48240, Note_off_c, 4, 48, 0
1, 48240, Note_off_c, 6, 69, 0
1, 48240, Note_on_c, 9, 43, 100
1, 48240, Note_on_c, 9, 42, 100
1, 48240, Note_on_c, 4, 36, 100
1, 48280, Note_off_c, 9, 38, 0
1, 48360, Note_off_c, 9, 42, 0
1, 48360, Note_off_c, 9, 43, 0
1, 48400, Note_on_c, 9, 41, 100
1, 48480, Note_off_c, 10, 84, 0
1, 48480, Note_off_c, 4, 36, 0
1, 48480, Note_on_c, 10, 85, 80
1, 48480, Note_on_c, 6, 67, 100
1, 48480, Note_on_c, 6, 73, 100
1, 48480, Note_on_c, 6, 64, 100
1, 48480, Note_on_c, 9, 36, 100
1, 48480, Note_on_c, 4, 37, 100
1, 48520, Note_off_c, 9, 41, 0
1, 48560, Note_off_c, 6, 64, 0
1, 48560, Note_off_c, 6, 73, 0
1, 48560, Note_off_c, 6, 67, 0
1, 48600, Note_off_c, 9, 36, 0
1, 48640, Note_on_c, 11, 69, 100
1, 48640, Note_on_c, 12, 69, 100
1, 48720, Note_off_c, 11, 69, 0
1, 48720, Note_off_c, 12, 69, 0
1, 48720, Note_off_c, 4, 37, 0
1, 48720, Note_on_c, 12, 66, 100
1, 48720, Note_on_c, 11, 66, 100
1, 48720, Note_on_c, 9, 55, 100
1, 48720, Note_on_c, 9, 42, 100
1, 48720, Note_on_c, 4, 49, 100
1, 48840, Note_off_c, 9, 55, 0
1, 48840, Note_off_c, 9, 42, 0
1, 48880, Note_off_c, 11, 66, 0
1, 48880, Note_off_c, 12, 66, 0
1, 48880, Note_on_c, 11, 62, 100
1, 48880, Note_on_c, 12, 62, 100
1, 48960, Note_off_c, 10, 85, 0
1, 48960, Note_off_c, 10, 79, 0
1, 48960, Note_off_c, 10, 76, 0
1, 48960, Note_off_c, 12, 62, 0
1, 48960, Note_off_c, 4, 49, 0
1, 48960, Note_off_c, 11, 62, 0
1, 48960, Note_on_c, 4, 50, 100
1, 48960, Note_on_c, 10, 81, 80
1, 48960, Note_on_c, 6, 66, 100
1, 48960, Note_on_c, 10, 86, 80
1, 48960, Note_on_c, 6, 69, 100
1, 48960, Note_on_c, 9, 38, 90
1, 48960, Note_on_c, 10, 78, 80
1, 48960, Note_on_c, 6, 74, 100
1, 49000, Note_on_c, 9, 38, 90
1, 49040, Note_off_c, 6, 74, 0
1, 49040, Note_off_c, 6, 69, 0
1, 49040, Note_off_c, 6, 66, 0
1, 49080, Note_off_c, 9, 38, 0
1, 49080, Note_on_c, 9, 38, 90
1, 49120, Note_off_c, 9, 38, 0
1, 49120, Note_on_c, 9, 38, 90
1, 49200, Note_off_c, 4, 50, 0
1, 49200, Note_off_c, 9, 38, 0
1, 49200, Note_on_c, 6, 69, 100
1, 49200, Note_on_c, 9, 38, 100
1, 49200, Note_on_c, 9, 42, 100
1, 49200, Note_on_c, 6, 74, 100
1, 49200, Note_on_c, 4, 38, 100
1, 49200, Note_on_c, 6, 66, 100
1, 49240, Note_off_c, 9, 38, 0
1, 49280, Note_off_c, 6, 74, 0
1, 49280, Note_off_c, 6, 69, 0
1, 49280, Note_off_c, 6, 66, 0
1, 49320, Note_off_c, 9, 38, 0
1, 49320, Note_off_c, 9, 42, 0
1, 49440, Note_off_c, 4, 38, 0
1, 49440, Note_off_c, 10, 86, 0
1, 49440, Note_on_c, 4, 39, 100
1, 49440, Note_on_c, 10, 87, 80
1, 49440, Note_on_c, 9, 42, 100
1, 49560, Note_off_c, 9, 42, 0
1, 49600, Note_on_c, 11, 66, 100
1, 49600, Note_on_c, 9, 36, 100
1, 49600, Note_on_c, 9, 46, 100
1, 49600, Note_on_c, 6, 66, 100
1, 49600, Note_on_c, 6, 69, 100
1, 49600, Note_on_c, 6, 75, 100
1, 49600, Note_on_c, 12, 66, 100
1, 49680, Note_off_c, 4, 39, 0
1, 49680, Note_off_c, 12, 66, 0
1, 49680, Note_off_c, 11, 66, 0
1, 49680, Note_on_c, 9, 46, 100
1, 49680, Note_on_c, 9, 52, 100
1, 49680, Note_on_c, 11, 69, 100
1, 49680, Note_on_c, 4, 51, 100
1, 49680, Note_on_c, 12, 69, 100
1, 49720, Note_off_c, 9, 46, 0
1, 49720, Note_off_c, 9, 36, 0
1, 49800, Note_off_c, 9, 52, 0
1, 49800, Note_off_c, 9, 46, 0
1, 49840, Note_off_c, 11, 69, 0
1, 49840, Note_off_c, 12, 69, 0
1, 49840, Note_on_c, 12, 72, 100
1, 49840, Note_on_c, 11, 72, 100
1, 49840, Note_on_c, 9, 42, 100
1, 49920, Note_off_c, 4, 51, 0
1, 49920, Note_off_c, 11, 72, 0
1, 49920, Note_off_c, 10, 87, 0
1, 49920, Note_off_c, 6, 66, 0
1, 49920, Note_off_c, 10, 81, 0
1, 49920, Note_off_c, 6, 69, 0
1, 49920, Note_off_c, 10, 78, 0
1, 49920, Note_off_c, 12, 72, 0
1, 49920, Note_off_c, 6, 75, 0
1, 49920, Note_on_c, 10, 88, 80
1, 49920, Note_on_c, 11, 71, 100
1, 49920, Note_on_c, 12, 71, 100
1, 49920, Note_on_c, 10, 83, 80
1, 49920, Note_on_c, 6, 71, 100
1, 49920, Note_on_c, 9, 53, 110
1, 49920, Note_on_c, 6, 67, 100
1, 49920, Note_on_c, 9, 36, 100
1, 49920, Note_on_c, 10, 79, 80
1, 49920, Note_on_c, 4, 52, 100
1, 49920, Note_on_c, 6, 76, 100
1, 49960, Note_off_c, 12, 71, 0
1, 49960, Note_off_c, 11, 71, 0
1, 49960, Note_off_c, 9, 42, 0
1, 49960, Note_on_c, 12, 72, 100
1, 49960, Note_on_c, 11, 72, 100
1, 50040, Note_off_c, 9, 53, 0
1, 50040, Note_off_c, 11, 72, 0
1, 50040, Note_off_c, 9, 36, 0
1, 50040, Note_off_c, 12, 72, 0
1, 50040, Note_on_c, 11, 71, 100
1, 50040, Note_on_c, 12, 71, 100
1, 50080, Note_off_c, 11, 71, 0
1, 50080, Note_off_c, 12, 71, 0
1, 50080, Note_on_c, 11, 69, 100
1, 50080, Note_on_c, 12, 69, 100
1, 50160, Note_off_c, 4, 52, 0
1, 50160, Note_off_c, 11, 69, 0
1, 50160, Note_off_c, 12, 69, 0
1, 50160, Note_on_c, 4, 45, 100
1, 50160, Note_on_c, 12, 71, 100
1, 50160, Note_on_c, 11, 71, 100
1, 50160, Note_on_c, 9, 53, 100
1, 50280, Note_off_c, 9, 53, 0
1, 50320, Note_off_c, 10, 88, 0
1, 50320, Note_off_c, 10, 79, 0
1, 50320, Note_off_c, 10, 83, 0
1, 50320, Note_off_c, 6, 71, 0
1, 50320, Note_off_c, 12, 71, 0
1, 50320, Note_off_c, 6, 76, 0
1, 50320, Note_off_c, 11, 71, 0
1, 50320, Note_off_c, 6, 67, 0
1, 50320, Note_on_c, 6, 67, 100
1, 50320, Note_on_c, 10, 79, 80
1, 50320, Note_on_c, 10, 83, 80
1, 50320, Note_on_c, 6, 76, 100
1, 50320, Note_on_c, 6, 71, 100
1, 50320, Note_on_c, 9, 53, 100
1, 50320, Note_on_c, 11, 69, 100
1, 50320, Note_on_c, 10, 88, 80
1, 50320, Note_on_c, 12, 69, 100
1, 50400, Note_off_c, 11, 69, 0
1, 50400, Note_off_c, 12, 69, 0
1, 50400, Note_off_c, 4, 45, 0
1, 50400, Note_on_c, 4, 44, 100
1, 50400, Note_on_c, 11, 71, 100
1, 50400, Note_on_c, 12, 71, 100
1, 50400, Note_on_c, 9, 53, 110
1, 50440, Note_off_c, 9, 53, 0
1, 50520, Note_off_c, 9, 53, 0
1, 50560, Note_off_c, 11, 71, 0
1, 50560, Note_off_c, 12, 71, 0
1, 50560, Note_on_c, 12, 73, 100
1, 50560, Note_on_c, 11, 73, 100
1, 50640, Note_off_c, 6, 71, 0
1, 50640, Note_off_c, 4, 44, 0
1, 50640, Note_off_c, 6, 76, 0
1, 50640, Note_off_c, 6, 67, 0
1, 50640, Note_off_c, 11, 73, 0
1, 50640, Note_off_c, 12, 73, 0
1, 50640, Note_on_c, 6, 67, 100
1, 50640, Note_on_c, 6, 69, 100
1, 50640, Note_on_c, 9, 53, 100
1, 50640, Note_on_c, 6, 64, 100
1, 50640, Note_on_c, 4, 49, 100
1, 50760, Note_off_c, 9, 53, 0
1, 50800, Note_on_c, 9, 53, 100
1, 50800, Note_on_c, 12, 74, 100
1, 50800, Note_on_c, 11, 74, 100
1, 50880, Note_off_c, 10, 79, 0
1, 50880, Note_off_c, 4, 49, 0
1, 50880, Note_off_c, 6, 69, 0
1, 50880, Note_off_c, 10, 83, 0
1, 50880, Note_off_c, 6, 64, 0
1, 50880, Note_off_c, 6, 67, 0
1, 50880, Note_off_c, 10, 88, 0
1, 50880, Note_on_c, 4, 50, 100
1, 50880, Note_on_c, 6, 72, 100
1, 50880, Note_on_c, 6, 69, 100
1, 50880, Note_on_c, 6, 66, 100
1, 50880, Note_on_c, 9, 53, 110
1, 50880, Note_on_c, 10, 89, 80
1, 50880, Note_on_c, 6, 74, 100
1, 50920, Note_off_c, 10, 89, 0
1, 50920, Note_off_c, 9, 53, 0
1, 50920, Note_on_c, 10, 90, 80
1, 51000, Note_off_c, 9, 53, 0
1, 51000, Note_off_c, 10, 90, 0
1, 51000, Note_on_c, 10, 89, 80
1, 51040, Note_off_c, 10, 89, 0
1, 51040, Note_on_c, 9, 36, 100
1, 51040, Note_on_c, 10, 86, 80
1, 51120, Note_off_c, 4, 50, 0
1, 51120, Note_off_c, 10, 86, 0
1, 51120, Note_on_c, 10, 93, 100
1, 51120, Note_on_c, 9, 53, 100
1, 51120, Note_on_c, 4, 42, 100
1, 51160, Note_off_c, 9, 36, 0
1, 51240, Note_off_c, 9, 53, 0
1, 51280, Note_off_c, 6, 66, 0
1, 51280, Note_off_c, 6, 69, 0
1, 51280, Note_off_c, 6, 72, 0
1, 51280, Note_off_c, 6, 74, 0
1, 51280, Note_off_c, 10, 93, 0
1, 51280, Note_on_c, 6, 74, 100
1, 51280, Note_on_c, 6, 66, 100
1, 51280, Note_on_c, 6, 69, 100
1, 51280, Note_on_c, 10, 86, 70
1, 51280, Note_on_c, 9, 53, 100
1, 51280, Note_on_c, 6, 72, 100
1, 51360, Note_off_c, 4, 42, 0
1, 51360, Note_off_c, 10, 86, 0
1, 51360, Note_on_c, 13, 56, 120
1, 51360, Note_on_c, 9, 36, 100
1, 51360, Note_on_c, 10, 91, 100
1, 51360, Note_on_c, 4, 40, 100
1, 51400, Note_off_c, 9, 53, 0
1, 51440, Note_off_c, 13, 56, 0
1, 51440, Note_on_c, 13, 57, 120
1, 51480, Note_off_c, 9, 36, 0
1, 51520, Note_off_c, 13, 57, 0
1, 51520, Note_off_c, 10, 91, 0
1, 51520, Note_on_c, 9, 53, 110
1, 51520, Note_on_c, 13, 59, 120
1, 51520, Note_on_c, 10, 90, 100
1, 51600, Note_off_c, 11, 74, 0
1, 51600, Note_off_c, 4, 40, 0
1, 51600, Note_off_c, 13, 59, 0
1, 51600, Note_off_c, 10, 90, 0
1, 51600, Note_off_c, 12, 74, 0
1, 51600, Note_on_c, 13, 60, 120
1, 51600, Note_on_c, 4, 38, 100
1, 51600, Note_on_c, 9, 53, 100
1, 51640, Note_off_c, 9, 53, 0
1, 51680, Note_off_c, 13, 60, 0
1, 51680, Note_on_c, 13, 62, 120
1, 51720, Note_off_c, 9, 53, 0
1, 51760, Note_off_c, 13, 62, 0
1, 51760, Note_on_c, 9, 36, 100
1, 51760, Note_on_c, 13, 63, 120
1, 51840, Note_off_c, 6, 74, 0
1, 51840, Note_off_c, 6, 69, 0
1, 51840, Note_off_c, 13, 63, 0
1, 51840, Note_off_c, 4, 38, 0
1, 51840, Note_off_c, 6, 66, 0
1, 51840, Note_off_c, 6, 72, 0
1, 51840, Note_on_c, 13, 64, 120
1, 51840, Note_on_c, 6, 67, 100
1, 51840, Note_on_c, 6, 64, 100
1, 51840, Note_on_c, 9, 36, 100
1, 51840, Note_on_c, 4, 36, 100
1, 51840, Note_on_c, 6, 60, 100
1, 51840, Note_on_c, 9, 53, 110
1, 51840, Note_on_c, 6, 55, 100
1, 51880, Note_off_c, 9, 36, 0
1, 51920, Note_off_c, 13, 64, 0
1, 51960, Note_off_c, 9, 53, 0
1, 51960, Note_off_c, 9, 36, 0
1, 52000, Note_on_c, 10, 81, 100
1, 52000, Note_on_c, 10, 84, 100
1, 52080, Note_off_c, 10, 81, 0
1, 52080, Note_off_c, 4, 36, 0
1, 52080, Note_off_c, 10, 84, 0
1, 52080, Note_on_c, 9, 53, 100
1, 52080, Note_on_c, 4, 43, 100
1, 52200, Note_off_c, 9, 53, 0
1, 52240, Note_on_c, 9, 53, 100
1, 52320, Note_off_c, 4, 43, 0
1, 52320, Note_on_c, 9, 53, 110
1, 52320, Note_on_c, 10, 84, 100
1, 52320, Note_on_c, 4, 48, 100
1, 52320, Note_on_c, 10, 81, 100
1, 52360, Note_off_c, 9, 53, 0
1, 52400, Note_off_c, 10, 81, 0
1, 52400, Note_off_c, 10, 84, 0
1, 52440, Note_off_c, 9, 53, 0
1, 52480, Note_on_c, 13, 60, 120
1, 52560, Note_off_c, 13, 60, 0
1, 52560, Note_off_c, 4, 48, 0
1, 52560, Note_on_c, 9, 53, 100
1, 52560, Note_on_c, 4, 47, 100
1, 52560, Note_on_c, 13, 57, 120
1, 52680, Note_off_c, 9, 53, 0
1, 52720, Note_off_c, 13, 57, 0
1, 52720, Note_off_c, 4, 47, 0
1, 52720, Note_on_c, 4, 46, 100
1, 52720, Note_on_c, 13, 54, 120
1, 52720, Note_on_c, 9, 53, 100
1, 52800, Note_off_c, 6, 60, 0
1, 52800, Note_off_c, 6, 64, 0
1, 52800, Note_off_c, 6, 55, 0
1, 52800, Note_off_c, 13, 54, 0
1, 52800, Note_off_c, 6, 67, 0
1, 52800, Note_off_c, 4, 46, 0
1, 52800, Note_on_c, 4, 45, 100
1, 52800, Note_on_c, 10, 81, 100
1, 52800, Note_on_c, 9, 53, 110
1, 52800, Note_on_c, 10, 84, 100
1, 52840, Note_off_c, 9, 53, 0
1, 52880, Note_off_c, 10, 84, 0
1, 52880, Note_off_c, 10, 81, 0
1, 52920, Note_off_c, 9, 53, 0
1, 52960, Note_on_c, 6, 64, 100
1, 52960, Note_on_c, 6, 57, 100
1, 52960, Note_on_c, 6, 66, 100
1, 52960, Note_on_c, 6, 60, 100
1, 52960, Note_on_c, 6, 54, 100
1, 52960, Note_on_c, 9, 36, 100
1, 53040, Note_off_c, 6, 66, 0
1, 53040, Note_off_c, 6, 57, 0
1, 53040, Note_off_c, 4, 45, 0
1, 53040, Note_off_c, 6, 60, 0
1, 53040, Note_off_c, 6, 64, 0
1, 53040, Note_off_c, 6, 54, 0
1, 53040, Note_on_c, 10, 81, 100
1, 53040, Note_on_c, 10, 84, 100
1, 53040, Note_on_c, 9, 53, 100
1, 53040, Note_on_c, 4, 50, 100
1, 53080, Note_off_c, 9, 36, 0
1, 53120, Note_off_c, 10, 84, 0
1, 53120, Note_off_c, 10, 81, 0
1, 53160, Note_off_c, 9, 53, 0
1, 53200, Note_on_c, 9, 53, 100
1, 53280, Note_off_c, 4, 50, 0
1, 53280, Note_on_c, 4, 38, 100
1, 53280, Note_on_c, 6, 57, 100
1, 53280, Note_on_c, 6, 66, 100
1, 53280, Note_on_c, 10, 83, 100
1, 53280, Note_on_c, 6, 54, 100
1, 53280, Note_on_c, 6, 60, 100
1, 53280, Note_on_c, 10, 86, 100
1, 53280, Note_on_c, 9, 36, 100
1, 53280, Note_on_c, 6, 64, 100
1, 53320, Note_off_c, 9, 53, 0
1, 53360, Note_off_c, 10, 83, 0
1, 53360, Note_on_c, 10, 83, 100
1, 53400, Note_off_c, 9, 36, 0
1, 53440, Note_off_c, 10, 83, 0
1, 53440, Note_off_c, 10, 86, 0
1, 53440, Note_on_c, 10, 81, 100
1, 53440, Note_on_c, 9, 53, 110
1, 53440, Note_on_c, 10, 84, 100
1, 53440, Note_on_c, 13, 57, 120
1, 53520, Note_off_c, 10, 84, 0
1, 53520, Note_off_c, 4, 38, 0
1, 53520, Note_off_c, 10, 81, 0
1, 53520, Note_off_c, 13, 57, 0
1, 53520, Note_on_c, 13, 60, 120
1, 53520, Note_on_c, 9, 53, 100
1, 53520, Note_on_c, 4, 40, 100
1, 53560, Note_off_c, 9, 53, 0
1, 53640, Note_off_c, 9, 53, 0
1, 53680, Note_off_c, 13, 60, 0
1, 53680, Note_off_c, 4, 40, 0
1, 53680, Note_on_c, 4, 42, 100
1, 53680, Note_on_c, 13, 64, 120
1, 53760, Note_off_c, 6, 57, 0
1, 53760, Note_off_c, 6, 60, 0
1, 53760, Note_off_c, 6, 66, 0
1, 53760, Note_off_c, 6, 54, 0
1, 53760, Note_off_c, 6, 64, 0
1, 53760, Note_off_c, 13, 64, 0
1, 53760, Note_off_c, 4, 42, 0
1, 53760, Note_on_c, 9, 36, 100
1, 53760, Note_on_c, 6, 71, 100
1, 53760, Note_on_c, 6, 74, 100
1, 53760, Note_on_c, 13, 62, 120
1, 53760, Note_on_c, 9, 53, 110
1, 53760, Note_on_c, 4, 43, 100
1, 53760, Note_on_c, 10, 86, 100
1, 53800, Note_off_c, 13, 62, 0
1, 53800, Note_on_c, 13, 64, 120
1, 53880, Note_off_c, 9, 53, 0
1, 53880, Note_off_c, 9, 36, 0
1, 53880, Note_off_c, 13, 64, 0
1, 53880, Note_on_c, 13, 62, 120
1, 53920, Note_off_c, 13, 62, 0
1, 53920, Note_on_c, 13, 59, 120
1, 54000, Note_off_c, 6, 74, 0
1, 54000, Note_off_c, 4, 43, 0
1, 54000, Note_off_c, 6, 71, 0
1, 54000, Note_off_c, 13, 59, 0
1, 54000, Note_on_c, 13, 60, 120
1, 54000, Note_on_c, 9, 53, 100
1, 54000, Note_on_c, 6, 72, 100
1, 54000, Note_on_c, 6, 76, 100
1, 54000, Note_on_c, 4, 50, 100
1, 54120, Note_off_c, 9, 53, 0
1, 54160, Note_off_c, 6, 76, 0
1, 54160, Note_off_c, 6, 72, 0
1, 54160, Note_off_c, 13, 60, 0
1, 54160, Note_on_c, 6, 71, 100
1, 54160, Note_on_c, 13, 61, 120
1, 54160, Note_on_c, 6, 74, 100
1, 54160, Note_on_c, 9, 53, 100
1, 54240, Note_off_c, 10, 86, 0
1, 54240, Note_off_c, 4, 50, 0
1, 54240, Note_off_c, 13, 61, 0
1, 54240, Note_on_c, 13, 62, 120
1, 54240, Note_on_c, 10, 88, 100
1, 54240, Note_on_c, 4, 55, 100
1, 54240, Note_on_c, 10, 91, 100
1, 54240, Note_on_c, 9, 53, 110
1, 54280, Note_off_c, 9, 53, 0
1, 54360, Note_off_c, 9, 53, 0
1, 54400, Note_off_c, 6, 71, 0
1, 54400, Note_off_c, 13, 62, 0
1, 54400, Note_off_c, 6, 74, 0
1, 54400, Note_on_c, 13, 67, 120
1, 54400, Note_on_c, 6, 67, 100
1, 54480, Note_off_c, 4, 55, 0
1, 54480, Note_off_c, 13, 67, 0
1, 54480, Note_off_c, 6, 67, 0
1, 54480, Note_on_c, 6, 71, 100
1, 54480, Note_on_c, 9, 53, 100
1, 54480, Note_on_c, 4, 47, 100
1, 54480, Note_on_c, 6, 74, 100
1, 54600, Note_off_c, 9, 53, 0
1, 54640, Note_off_c, 6, 71, 0
1, 54640, Note_off_c, 6, 74, 0
1, 54640, Note_on_c, 9, 53, 100
1, 54640, Note_on_c, 13, 62, 120
1, 54640, Note_on_c, 6, 67, 100
1, 54720, Note_off_c, 10, 88, 0
1, 54720, Note_off_c, 4, 47, 0
1, 54720, Note_off_c, 6, 67, 0
1, 54720, Note_off_c, 10, 91, 0
1, 54720, Note_on_c, 10, 86, 100
1, 54720, Note_on_c, 9, 36, 100
1, 54720, Note_on_c, 6, 71, 100
1, 54720, Note_on_c, 10, 90, 100
1, 54720, Note_on_c, 6, 74, 100
1, 54720, Note_on_c, 4, 50, 100
1, 54720, Note_on_c, 9, 53, 110
1, 54760, Note_off_c, 9, 53, 0
1, 54840, Note_off_c, 9, 53, 0
1, 54840, Note_off_c, 9, 36, 0
1, 54880, Note_off_c, 6, 74, 0
1, 54880, Note_off_c, 6, 71, 0
1, 54880, Note_on_c, 6, 71, 100
1, 54880, Note_on_c, 6, 74, 100
1, 54960, Note_off_c, 6, 74, 0
1, 54960, Note_off_c, 6, 71, 0
1, 54960, Note_off_c, 4, 50, 0
1, 54960, Note_on_c, 9, 36, 100
1, 54960, Note_on_c, 6, 76, 100
1, 54960, Note_on_c, 6, 72, 100
1, 54960, Note_on_c, 4, 54, 100
1, 54960, Note_on_c, 9, 53, 100
1, 55080, Note_off_c, 9, 53, 0
1, 55080, Note_off_c, 9, 36, 0
1, 55120, Note_off_c, 6, 76, 0
1, 55120, Note_off_c, 6, 72, 0
1, 55120, Note_on_c, 9, 53, 100
1, 55120, Note_on_c, 6, 74, 100
1, 55120, Note_on_c, 6, 71, 100
1, 55200, Note_off_c, 10, 90, 0
1, 55200, Note_off_c, 4, 54, 0
1, 55200, Note_off_c, 10, 86, 0
1, 55200, Note_on_c, 10, 86, 100
1, 55200, Note_on_c, 4, 43, 100
1, 55200, Note_on_c, 10, 83, 100
1, 55240, Note_off_c, 9, 53, 0
1, 55360, Note_off_c, 6, 74, 0
1, 55360, Note_off_c, 6, 71, 0
1, 55360, Note_on_c, 9, 53, 110
1, 55360, Note_on_c, 9, 36, 100
1, 55360, Note_on_c, 6, 67, 100
1, 55440, Note_off_c, 6, 67, 0
1, 55440, Note_off_c, 13, 62, 0
1, 55440, Note_off_c, 4, 43, 0
1, 55440, Note_on_c, 6, 71, 100
1, 55440, Note_on_c, 4, 47, 100
1, 55440, Note_on_c, 6, 74, 100
1, 55440, Note_on_c, 9, 53, 100
1, 55480, Note_off_c, 9, 36, 0
1, 55480, Note_off_c, 9, 53, 0
1, 55560, Note_off_c, 9, 53, 0
1, 55600, Note_off_c, 6, 71, 0
1, 55600, Note_off_c, 6, 74, 0
1, 55600, Note_on_c, 9, 36, 100
1, 55600, Note_on_c, 6, 67, 100
1, 55680, Note_off_c, 10, 86, 0
1, 55680, Note_off_c, 10, 83, 0
1, 55680, Note_off_c, 4, 47, 0
1, 55680, Note_off_c, 6, 67, 0
1, 55680, Note_on_c, 13, 57, 120
1, 55680, Note_on_c, 9, 36, 100
1, 55680, Note_on_c, 11, 72, 100
1, 55680, Note_on_c, 9, 46, 100
1, 55680, Note_on_c, 12, 69, 100
1, 55720, Note_off_c, 9, 36, 0
1, 55760, Note_off_c, 11, 72, 0
1, 55760, Note_off_c, 12, 69, 0
1, 55760, Note_off_c, 13, 57, 0
1, 55800, Note_off_c, 9, 46, 0
1, 55800, Note_off_c, 9, 36, 0
1, 55920, Note_on_c, 12, 69, 100
1, 55920, Note_on_c, 9, 42, 100
1, 55920, Note_on_c, 13, 57, 120
1, 55920, Note_on_c, 11, 72, 100
1, 56040, Note_off_c, 9, 42, 0
1, 56080, Note_off_c, 13, 57, 0
1, 56080, Note_off_c, 11, 72, 0
1, 56080, Note_off_c, 12, 69, 0
1, 56080, Note_on_c, 13, 59, 120
1, 56080, Note_on_c, 11, 74, 100
1, 56080, Note_on_c, 12, 71, 100
1, 56080, Note_on_c, 9, 42, 100
1, 56160, Note_off_c, 13, 59, 0
1, 56160, Note_off_c, 12, 71, 0
1, 56160, Note_off_c, 11, 74, 0
1, 56160, Note_on_c, 9, 46, 100
1, 56160, Note_on_c, 13, 57, 120
1, 56160, Note_on_c, 12, 69, 100
1, 56160, Note_on_c, 9, 36, 100
1, 56160, Note_on_c, 11, 72, 100
1, 56200, Note_off_c, 9, 42, 0
1, 56280, Note_off_c, 9, 46, 0
1, 56280, Note_off_c, 13, 57, 0
1, 56280, Note_off_c, 9, 36, 0
1, 56280, Note_off_c, 11, 72, 0
1, 56280, Note_off_c, 12, 69, 0
1, 56280, Note_on_c, 13, 59, 120
1, 56280, Note_on_c, 11, 74, 100
1, 56280, Note_on_c, 12, 71, 100
1, 56320, Note_off_c, 13, 59, 0
1, 56320, Note_off_c, 11, 74, 0
1, 56320, Note_off_c, 12, 71, 0
1, 56320, Note_on_c, 13, 57, 120
1, 56320, Note_on_c, 11, 72, 100
1, 56320, Note_on_c, 12, 69, 100
1, 56400, Note_off_c, 13, 57, 0
1, 56400, Note_off_c, 11, 72, 0
1, 56400, Note_off_c, 12, 69, 0
1, 56400, Note_on_c, 9, 42, 100
1, 56400, Note_on_c, 12, 68, 100
1, 56400, Note_on_c, 13, 56, 120
1, 56400, Note_on_c, 11, 71, 100
1, 56520, Note_off_c, 9, 42, 0
1, 56560, Note_off_c, 13, 56, 0
1, 56560, Note_off_c, 11, 71, 0
1, 56560, Note_off_c, 12, 68, 0
1, 56560, Note_on_c, 9, 42, 100
1, 56560, Note_on_c, 11, 72, 100
1, 56560, Note_on_c, 13, 57, 120
1, 56560, Note_on_c, 12, 69, 100
1, 56640, Note_off_c, 11, 72, 0
1, 56640, Note_off_c, 12, 69, 0
1, 56640, Note_off_c, 13, 57, 0
1, 56640, Note_on_c, 9, 36, 100
1, 56640, Note_on_c, 9, 46, 100
1, 56680, Note_off_c, 9, 42, 0
1, 56760, Note_off_c, 9, 46, 0
1, 56760, Note_off_c, 9, 36, 0
1, 56880, Note_on_c, 9, 42, 100
1, 57000, Note_off_c, 9, 42, 0
1, 57040, Note_on_c, 9, 42, 100
1, 57120, Note_on_c, 9, 36, 100
1, 57120, Note_on_c, 9, 46, 100
1, 57160, Note_off_c, 9, 42, 0
1, 57240, Note_off_c, 9, 46, 0
1, 57240, Note_off_c, 9, 36, 0
1, 57280, Note_on_c, 12, 68, 100
1, 57280, Note_on_c, 11, 71, 100
1, 57280, Note_on_c, 13, 56, 120
1, 57360, Note_on_c, 9, 42, 100
1, 57480, Note_off_c, 9, 42, 0
1, 57520, Note_on_c, 9, 42, 100
1, 57600, Note_off_c, 13, 56, 0
1, 57600, Note_off_c, 12, 68, 0
1, 57600, Note_off_c, 11, 71, 0
1, 57600, Note_on_c, 9, 36, 100
1, 57600, Note_on_c, 9, 46, 100
1, 57600, Note_on_c, 12, 69, 100
1, 57600, Note_on_c, 11, 72, 100
1, 57600, Note_on_c, 13, 57, 120
1, 57640, Note_off_c, 9, 42, 0
1, 57680, Note_off_c, 11, 72, 0
1, 57680, Note_off_c, 13, 57, 0
1, 57680, Note_off_c, 12, 69, 0
1, 57720, Note_off_c, 9, 36, 0
1, 57720, Note_off_c, 9, 46, 0
1, 57840, Note_on_c, 11, 72, 100
1, 57840, Note_on_c, 13, 57, 120
1, 57840, Note_on_c, 12, 69, 100
1, 57840, Note_on_c, 9, 42, 100
1, 57960, Note_off_c, 9, 42, 0
1, 58000, Note_off_c, 13, 57, 0
1, 58000, Note_off_c, 11, 72, 0
1, 58000, Note_off_c, 12, 69, 0
1, 58000, Note_on_c, 9, 42, 100
1, 58000, Note_on_c, 13, 59, 120
1, 58000, Note_on_c, 12, 71, 100
1, 58000, Note_on_c, 11, 74, 100
1, 58080, Note_off_c, 12, 71, 0
1, 58080, Note_off_c, 13, 59, 0
1, 58080, Note_off_c, 11, 74, 0
1, 58080, Note_on_c, 12, 72, 100
1, 58080, Note_on_c, 9, 36, 100
1, 58080, Note_on_c, 9, 46, 100
1, 58080, Note_on_c, 13, 60, 120
1, 58080, Note_on_c, 11, 76, 100
1, 58120, Note_off_c, 9, 42, 0
1, 58200, Note_off_c, 9, 46, 0
1, 58200, Note_off_c, 9, 36, 0
1, 58240, Note_off_c, 13, 60, 0
1, 58240, Note_off_c, 12, 72, 0
1, 58240, Note_off_c, 11, 76, 0
1, 58240, Note_on_c, 11, 78, 100
1, 58240, Note_on_c, 13, 62, 120
1, 58240, Note_on_c, 12, 74, 100
1, 58320, Note_off_c, 11, 78, 0
1, 58320, Note_off_c, 12, 74, 0
1, 58320, Note_off_c, 13, 62, 0
1, 58320, Note_on_c, 9, 42, 100
1, 58440, Note_off_c, 9, 42, 0
1, 58480, Note_on_c, 11, 79, 100
1, 58480, Note_on_c, 12, 76, 100
1, 58480, Note_on_c, 9, 42, 100
1, 58480, Note_on_c, 13, 64, 120
1, 58560, Note_off_c, 11, 79, 0
1, 58560, Note_off_c, 12, 76, 0
1, 58560, Note_off_c, 13, 64, 0
1, 58560, Note_on_c, 9, 46, 100
1, 58560, Note_on_c, 9, 36, 100
1, 58600, Note_off_c, 9, 42, 0
1, 58680, Note_off_c, 9, 46, 0
1, 58680, Note_off_c, 9, 36, 0
1, 58720, Note_on_c, 9, 38, 100
1, 58800, Note_on_c, 9, 42, 100
1, 58800, Note_on_c, 9, 36, 100
1, 58840, Note_off_c, 9, 38, 0
1, 58920, Note_off_c, 9, 36, 0
1, 58920, Note_off_c, 9, 42, 0
1, 58960, Note_on_c, 9, 36, 100
1, 58960, Note_on_c, 9, 42, 100
1, 59040, Note_on_c, 9, 46, 100
1, 59040, Note_on_c, 9, 38, 100
1, 59080, Note_off_c, 9, 36, 0
1, 59080, Note_off_c, 9, 42, 0
1, 59160, Note_off_c, 9, 46, 0
1, 59160, Note_off_c, 9, 38, 0
1, 59200, Note_on_c, 13, 63, 120
1, 59200, Note_on_c, 13, 66, 120
1, 59200, Note_on_c, 11, 75, 100
1, 59200, Note_on_c, 11, 78, 100
1, 59200, Note_on_c, 13, 57, 120
1, 59200, Note_on_c, 13, 60, 120
1, 59200, Note_on_c, 12, 78, 100
1, 59200, Note_on_c, 11, 81, 100
1, 59280, Note_off_c, 11, 78, 0
1, 59280, Note_off_c, 13, 63, 0
1, 59280, Note_on_c, 9, 38, 100
1, 59280, Note_on_c, 9, 42, 100
1, 59280, Note_on_c, 11, 78, 100
1, 59280, Note_on_c, 13, 63, 120
1, 59400, Note_off_c, 9, 38, 0
1, 59400, Note_off_c, 9, 42, 0
1, 59440, Note_on_c, 9, 42, 100
1, 59440, Note_on_c, 9, 38, 100
1, 59520, Note_off_c, 13, 57, 0
1, 59520, Note_off_c, 11, 81, 0
1, 59520, Note_off_c, 13, 66, 0
1, 59520, Note_off_c, 11, 75, 0
1, 59520, Note_off_c, 12, 78, 0
1, 59520, Note_off_c, 11, 78, 0
1, 59520, Note_off_c, 13, 60, 0
1, 59520, Note_off_c, 13, 63, 0
1, 59520, Note_on_c, 13, 67, 120
1, 59520, Note_on_c, 9, 36, 100
1, 59520, Note_on_c, 13, 62, 120
1, 59520, Note_on_c, 9, 45, 100
1, 59520, Note_on_c, 13, 64, 120
1, 59520, Note_on_c, 11, 79, 100
1, 59520, Note_on_c, 11, 83, 100
1, 59520, Note_on_c, 9, 49, 100
1, 59520, Note_on_c, 12, 79, 100
1, 59520, Note_on_c, 11, 74, 100
1, 59520, Note_on_c, 13, 59, 120
1, 59560, Note_off_c, 9, 38, 0
1, 59560, Note_off_c, 9, 42, 0
1, 59640, Note_off_c, 9, 49, 0
1, 59640, Note_off_c, 13, 62, 0
1, 59640, Note_off_c, 13, 64, 0
1, 59640, Note_off_c, 13, 67, 0
1, 59640, Note_off_c, 9, 36, 0
1, 59640, Note_off_c, 9, 45, 0
1, 59640, Note_off_c, 11, 74, 0
1, 59640, Note_off_c, 11, 79, 0
1, 59640, Note_off_c, 13, 59, 0
1, 59640, Note_off_c, 11, 83, 0
1, 59640, Note_off_c, 12, 79, 0
1, 59760, Note_on_c, 9, 45, 100
1, 59760, Note_on_c, 9, 42, 100
1, 59880, Note_off_c, 9, 45, 0
1, 59880, Note_off_c, 9, 42, 0
1, 60000, Note_on_c, 9, 43, 100
1, 60000, Note_on_c, 9, 36, 100
1, 60120, Note_off_c, 9, 43, 0
1, 60120, Note_off_c, 9, 36, 0
1, 60160, Note_on_c, 9, 50, 100
1, 60240, Note_on_c, 9, 47, 100
1, 60240, Note_on_c, 9, 42, 100
1, 60280, Note_off_c, 9, 50, 0
1, 60360, Note_off_c, 9, 42, 0
1, 60360, Note_off_c, 9, 47, 0
1, 60400, Note_on_c, 9, 43, 100
1, 60400, Note_on_c, 9, 50, 90
1, 60480, Note_on_c, 9, 45, 100
1, 60480, Note_on_c, 9, 36, 100
1, 60520, Note_off_c, 9, 43, 0
1, 60520, Note_off_c, 9, 50, 0
1, 60600, Note_off_c, 9, 45, 0
1, 60600, Note_off_c, 9, 36, 0
1, 60640, Note_on_c, 9, 45, 100
1, 60720, Note_on_c, 9, 43, 100
1, 60720, Note_on_c, 9, 42, 100
1, 60760, Note_off_c, 9, 45, 0
1, 60840, Note_off_c, 9, 43, 0
1, 60840, Note_off_c, 9, 42, 0
1, 60880, Note_on_c, 9, 50, 100
1, 60960, Note_on_c, 9, 45, 100
1, 60960, Note_on_c, 9, 36, 100
1, 61000, Note_off_c, 9, 50, 0
1, 61080, Note_off_c, 9, 36, 0
1, 61080, Note_off_c, 9, 45, 0
1, 61120, Note_on_c, 9, 41, 100
1, 61200, Note_on_c, 9, 45, 100
1, 61200, Note_on_c, 9, 42, 100
1, 61240, Note_off_c, 9, 41, 0
1, 61320, Note_off_c, 9, 45, 0
1, 61320, Note_off_c, 9, 42, 0
1, 61360, Note_on_c, 9, 41, 90
1, 61440, Note_on_c, 9, 45, 100
1, 61440, Note_on_c, 9, 36, 100
1, 61480, Note_off_c, 9, 41, 0
1, 61560, Note_off_c, 9, 45, 0
1, 61560, Note_off_c, 9, 36, 0
1, 61680, Note_on_c, 9, 45, 100
1, 61680, Note_on_c, 9, 42, 100
1, 61800, Note_off_c, 9, 45, 0
1, 61800, Note_off_c, 9, 42, 0
1, 61920, Note_on_c, 9, 43, 100
1, 61920, Note_on_c, 9, 36, 100
1, 62040, Note_off_c, 9, 43, 0
1, 62040, Note_off_c, 9, 36, 0
1, 62080, Note_on_c, 9, 50, 100
1, 62160, Note_on_c, 9, 47, 100
1, 62160, Note_on_c, 9, 42, 100
1, 62200, Note_off_c, 9, 50, 0
1, 62280, Note_off_c, 9, 47, 0
1, 62280, Note_off_c, 9, 42, 0
1, 62320, Note_on_c, 9, 50, 90
1, 62320, Note_on_c, 9, 43, 100
1, 62400, Note_on_c, 9, 36, 100
1, 62400, Note_on_c, 9, 45, 100
1, 62440, Note_off_c, 9, 50, 0
1, 62440, Note_off_c, 9, 43, 0
1, 62520, Note_off_c, 9, 45, 0
1, 62520, Note_off_c, 9, 36, 0
1, 62560, Note_on_c, 9, 45, 100
1, 62640, Note_on_c, 9, 43, 100
1, 62640, Note_on_c, 9, 42, 100
1, 62680, Note_off_c, 9, 45, 0
1, 62760, Note_off_c, 9, 43, 0
1, 62760, Note_off_c, 9, 42, 0
1, 62800, Note_on_c, 9, 50, 100
1, 62880, Note_on_c, 9, 45, 100
1, 62880, Note_on_c, 9, 36, 100
1, 62920, Note_off_c, 9, 50, 0
1, 63000, Note_off_c, 9, 45, 0
1, 63000, Note_off_c, 9, 36, 0
1, 63040, Note_on_c, 9, 41, 100
1, 63120, Note_on_c, 9, 45, 100
1, 63120, Note_on_c, 9, 42, 100
1, 63160, Note_off_c, 9, 41, 0
1, 63240, Note_off_c, 9, 45, 0
1, 63240, Note_off_c, 9, 42, 0
1, 63280, Note_on_c, 9, 41, 90
1, 63360, Note_on_c, 0, 64, 110
1, 63360, Note_on_c, 9, 36, 100
1, 63360, Note_on_c, 2, 52, 110
1, 63360, Note_on_c, 9, 45, 100
1, 63360, Note_on_c, 9, 49, 100
1, 63360, Note_on_c, 1, 58, 110
1, 63400, Note_off_c, 9, 41, 0
1, 63440, Note_off_c, 0, 64, 0
1, 63440, Note_off_c, 2, 52, 0
1, 63440, Note_off_c, 1, 58, 0
1, 63480, Note_off_c, 9, 45, 0
1, 63480, Note_off_c, 9, 36, 0
1, 63480, Note_off_c, 9, 49, 0
1, 63600, Note_on_c, 9, 42, 100
1, 63600, Note_on_c, 9, 45, 100
1, 63720, Note_off_c, 9, 45, 0
1, 63720, Note_off_c, 9, 42, 0
1, 63720, Note_on_c, 2, 55, 110
1, 63720, Note_on_c, 1, 59, 110
1, 63720, Note_on_c, 0, 67, 110
1, 63800, Note_off_c, 1, 59, 0
1, 63800, Note_off_c, 0, 67, 0
1, 63800, Note_off_c, 2, 55, 0
1, 63840, Note_on_c, 9, 43, 100
1, 63840, Note_on_c, 9, 36, 100
1, 63960, Note_off_c, 9, 43, 0
1, 63960, Note_off_c, 9, 36, 0
1, 64000, Note_on_c, 9, 50, 100
1, 64080, Note_on_c, 2, 57, 95
1, 64080, Note_on_c, 9, 42, 100
1, 64080, Note_on_c, 1, 64, 95
1, 64080, Note_on_c, 9, 47, 100
1, 64080, Note_on_c, 0, 69, 95
1, 64120, Note_off_c, 9, 50, 0
1, 64160, Note_off_c, 0, 69, 0
1, 64160, Note_off_c, 2, 57, 0
1, 64160, Note_off_c, 1, 64, 0
1, 64200, Note_off_c, 9, 47, 0
1, 64200, Note_off_c, 9, 42, 0
1, 64240, Note_on_c, 9, 50, 90
1, 64240, Note_on_c, 9, 43, 100
1, 64320, Note_on_c, 0, 64, 110
1, 64320, Note_on_c, 9, 36, 100
1, 64320, Note_on_c, 1, 58, 110
1, 64320, Note_on_c, 9, 45, 100
1, 64320, Note_on_c, 2, 52, 110
1, 64360, Note_off_c, 9, 43, 0
1, 64360, Note_off_c, 9, 50, 0
1, 64400, Note_off_c, 0, 64, 0
1, 64400, Note_off_c, 1, 58, 0
1, 64400, Note_off_c, 2, 52, 0
1, 64440, Note_off_c, 9, 36, 0
1, 64440, Note_off_c, 9, 45, 0
1, 64480, Note_on_c, 9, 45, 100
1, 64560, Note_on_c, 9, 43, 100
1, 64560, Note_on_c, 9, 42, 100
1, 64600, Note_off_c, 9, 45, 0
1, 64680, Note_off_c, 9, 43, 0
1, 64680, Note_off_c, 9, 42, 0
1, 64680, Note_on_c, 0, 67, 110
1, 64680, Note_on_c, 2, 55, 110
1, 64680, Note_on_c, 1, 59, 110
1, 64720, Note_on_c, 9, 50, 100
1, 64760, Note_off_c, 0, 67, 0
1, 64760, Note_off_c, 1, 59, 0
1, 64760, Note_off_c, 2, 55, 0
1, 64800, Note_on_c, 9, 45, 100
1, 64800, Note_on_c, 9, 36, 100
1, 64840, Note_off_c, 9, 50, 0
1, 64920, Note_off_c, 9, 36, 0
1, 64920, Note_off_c, 9, 45, 0
1, 64960, Note_on_c, 9, 41, 100
1, 65040, Note_on_c, 9, 45, 100
1, 65040, Note_on_c, 0, 69, 95
1, 65040, Note_on_c, 2, 57, 95
1, 65040, Note_on_c, 1, 64, 95
1, 65040, Note_on_c, 9, 42, 100
1, 65080, Note_off_c, 9, 41, 0
1, 65120, Note_off_c, 0, 69, 0
1, 65120, Note_off_c, 2, 57, 0
1, 65120, Note_off_c, 1, 64, 0
1, 65160, Note_off_c, 9, 45, 0
1, 65160, Note_off_c, 9, 42, 0
1, 65200, Note_on_c, 9, 41, 90
1, 65280, Note_on_c, 1, 58, 110
1, 65280, Note_on_c, 2, 52, 110
1, 65280, Note_on_c, 0, 64, 110
1, 65280, Note_on_c, 9, 36, 100
1, 65280, Note_on_c, 9, 45, 100
1, 65320, Note_off_c, 9, 41, 0
1, 65360, Note_off_c, 0, 64, 0
1, 65360, Note_off_c, 1, 58, 0
1, 65360, Note_off_c, 2, 52, 0
1, 65400, Note_off_c, 9, 36, 0
1, 65400, Note_off_c, 9, 45, 0
1, 65520, Note_on_c, 9, 42, 100
1, 65520, Note_on_c, 9, 45, 100
1, 65640, Note_off_c, 9, 45, 0
1, 65640, Note_off_c, 9, 42, 0
1, 65640, Note_on_c, 0, 67, 110
1, 65640, Note_on_c, 1, 59, 110
1, 65640, Note_on_c, 2, 55, 110
1, 65720, Note_off_c, 0, 67, 0
1, 65720, Note_off_c, 1, 59, 0
1, 65720, Note_off_c, 2, 55, 0
1, 65760, Note_on_c, 9, 36, 100
1, 65760, Note_on_c, 9, 43, 100
1, 65880, Note_off_c, 9, 43, 0
1, 65880, Note_off_c, 9, 36, 0
1, 65920, Note_on_c, 9, 50, 100
1, 66000, Note_on_c, 2, 57, 95
1, 66000, Note_on_c, 1, 64, 95
1, 66000, Note_on_c, 0, 69, 95
1, 66000, Note_on_c, 9, 47, 100
1, 66000, Note_on_c, 9, 42, 100
1, 66040, Note_off_c, 9, 50, 0
1, 66080, Note_off_c, 2, 57, 0
1, 66080, Note_off_c, 0, 69, 0
1, 66080, Note_off_c, 1, 64, 0
1, 66120, Note_off_c, 9, 47, 0
1, 66120, Note_off_c, 9, 42, 0
1, 66160, Note_on_c, 9, 50, 90
1, 66160, Note_on_c, 9, 43, 100
1, 66240, Note_on_c, 0, 67, 110
1, 66240, Note_on_c, 2, 55, 110
1, 66240, Note_on_c, 9, 45, 100
1, 66240, Note_on_c, 9, 36, 100
1, 66280, Note_off_c, 9, 43, 0
1, 66280, Note_off_c, 2, 55, 0
1, 66280, Note_off_c, 9, 50, 0
1, 66280, Note_on_c, 2, 57, 110
1, 66360, Note_off_c, 9, 36, 0
1, 66360, Note_off_c, 9, 45, 0
1, 66360, Note_off_c, 2, 57, 0
1, 66360, Note_on_c, 2, 55, 110
1, 66400, Note_off_c, 2, 55, 0
1, 66400, Note_off_c, 0, 67, 0
1, 66400, Note_on_c, 0, 67, 110
1, 66400, Note_on_c, 9, 45, 100
1, 66400, Note_on_c, 2, 53, 110
1, 66480, Note_off_c, 2, 53, 0
1, 66480, Note_off_c, 0, 67, 0
1, 66480, Note_on_c, 0, 69, 110
1, 66480, Note_on_c, 1, 64, 110
1, 66480, Note_on_c, 9, 42, 100
1, 66480, Note_on_c, 2, 57, 110
1, 66480, Note_on_c, 9, 43, 100
1, 66520, Note_off_c, 9, 45, 0
1, 66600, Note_off_c, 9, 42, 0
1, 66600, Note_off_c, 9, 43, 0
1, 66640, Note_off_c, 0, 69, 0
1, 66640, Note_off_c, 2, 57, 0
1, 66640, Note_off_c, 1, 64, 0
1, 66640, Note_on_c, 0, 67, 110
1, 66640, Note_on_c, 2, 55, 110
1, 66640, Note_on_c, 1, 62, 110
1, 66640, Note_on_c, 9, 50, 100
1, 66720, Note_off_c, 0, 67, 0
1, 66720, Note_off_c, 1, 62, 0
1, 66720, Note_off_c, 2, 55, 0
1, 66720, Note_on_c, 9, 45, 100
1, 66720, Note_on_c, 9, 36, 100
1, 66760, Note_off_c, 9, 50, 0
1, 66840, Note_off_c, 9, 45, 0
1, 66840, Note_off_c, 9, 36, 0
1, 66880, Note_on_c, 9, 41, 100
1, 66960, Note_on_c, 9, 42, 100
1, 66960, Note_on_c, 9, 45, 100
1, 67000, Note_off_c, 9, 41, 0
1, 67080, Note_off_c, 9, 45, 0
1, 67080, Note_off_c, 9, 42, 0
1, 67120, Note_on_c, 9, 41, 90
1, 67200, Note_on_c, 0, 64, 110
1, 67200, Note_on_c, 2, 52, 110
1, 67200, Note_on_c, 9, 36, 100
1, 67200, Note_on_c, 1, 58, 110
1, 67200, Note_on_c, 9, 45, 100
1, 67240, Note_off_c, 9, 41, 0
1, 67280, Note_off_c, 0, 64, 0
1, 67280, Note_off_c, 1, 58, 0
1, 67280, Note_off_c, 2, 52, 0
1, 67320, Note_off_c, 9, 45, 0
1, 67320, Note_off_c, 9, 36, 0
1, 67440, Note_on_c, 9, 45, 100
1, 67440, Note_on_c, 9, 42, 100
1, 67560, Note_off_c, 9, 45, 0
1, 67560, Note_off_c, 9, 42, 0
1, 67560, Note_on_c, 0, 67, 110
1, 67560, Note_on_c, 1, 59, 110
1, 67560, Note_on_c, 2, 55, 110
1, 67640, Note_off_c, 0, 67, 0
1, 67640, Note_off_c, 2, 55, 0
1, 67640, Note_off_c, 1, 59, 0
1, 67680, Note_on_c, 9, 43, 100
1, 67680, Note_on_c, 9, 36, 100
1, 67800, Note_off_c, 9, 36, 0
1, 67800, Note_off_c, 9, 43, 0
1, 67840, Note_on_c, 9, 50, 100
1, 67920, Note_on_c, 0, 69, 95
1, 67920, Note_on_c, 1, 64, 95
1, 67920, Note_on_c, 9, 47, 100
1, 67920, Note_on_c, 2, 57, 95
1, 67920, Note_on_c, 9, 42, 100
1, 67960, Note_off_c, 9, 50, 0
1, 68000, Note_off_c, 1, 64, 0
1, 68000, Note_off_c, 2, 57, 0
1, 68000, Note_off_c, 0, 69, 0
1, 68040, Note_off_c, 9, 47, 0
1, 68040, Note_off_c, 9, 42, 0
1, 68080, Note_on_c, 9, 43, 100
1, 68080, Note_on_c, 9, 50, 90
1, 68160, Note_on_c, 0, 64, 110
1, 68160, Note_on_c, 2, 52, 110
1, 68160, Note_on_c, 9, 45, 100
1, 68160, Note_on_c, 9, 36, 100
1, 68160, Note_on_c, 1, 58, 110
1, 68200, Note_off_c, 9, 50, 0
1, 68200, Note_off_c, 9, 43, 0
1, 68240, Note_off_c, 0, 64, 0
1, 68240, Note_off_c, 1, 58, 0
1, 68240, Note_off_c, 2, 52, 0
1, 68280, Note_off_c, 9, 45, 0
1, 68280, Note_off_c, 9, 36, 0
1, 68320, Note_on_c, 9, 45, 100
1, 68400, Note_on_c, 9, 43, 100
1, 68400, Note_on_c, 9, 42, 100
1, 68440, Note_off_c, 9, 45, 0
1, 68520, Note_off_c, 9, 43, 0
1, 68520, Note_off_c, 9, 42, 0
1, 68520, Note_on_c, 0, 67, 110
1, 68520, Note_on_c, 2, 55, 110
1, 68520, Note_on_c, 1, 59, 110
1, 68560, Note_on_c, 9, 50, 100
1, 68600, Note_off_c, 0, 67, 0
1, 68600, Note_off_c, 1, 59, 0
1, 68600, Note_off_c, 2, 55, 0
1, 68640, Note_on_c, 9, 45, 100
1, 68640, Note_on_c, 9, 36, 100
1, 68680, Note_off_c, 9, 50, 0
1, 68760, Note_off_c, 9, 45, 0
1, 68760, Note_off_c, 9, 36, 0
1, 68800, Note_on_c, 9, 41, 100
1, 68880, Note_on_c, 0, 69, 95
1, 68880, Note_on_c, 9, 45, 100
1, 68880, Note_on_c, 2, 57, 95
1, 68880, Note_on_c, 1, 64, 95
1, 68880, Note_on_c, 9, 42, 100
1, 68920, Note_off_c, 9, 41, 0
1, 68960, Note_off_c, 0, 69, 0
1, 68960, Note_off_c, 2, 57, 0
1, 68960, Note_off_c, 1, 64, 0
1, 69000, Note_off_c, 9, 42, 0
1, 69000, Note_off_c, 9, 45, 0
1, 69040, Note_on_c, 9, 41, 90
1, 69120, Note_on_c, 0, 64, 110
1, 69120, Note_on_c, 1, 58, 110
1, 69120, Note_on_c, 9, 45, 100
1, 69120, Note_on_c, 9, 36, 100
1, 69120, Note_on_c, 2, 52, 110
1, 69160, Note_off_c, 9, 41, 0
1, 69200, Note_off_c, 0, 64, 0
1, 69200, Note_off_c, 1, 58, 0
1, 69200, Note_off_c, 2, 52, 0
1, 69240, Note_off_c, 9, 45, 0
1, 69240, Note_off_c, 9, 36, 0
1, 69360, Note_on_c, 9, 45, 100
1, 69360, Note_on_c, 9, 42, 100
1, 69480, Note_off_c, 9, 45, 0
1, 69480, Note_off_c, 9, 42, 0
1, 69480, Note_on_c, 0, 67, 110
1, 69480, Note_on_c, 1, 59, 110
1, 69480, Note_on_c, 2, 55, 110
1, 69560, Note_off_c, 2, 55, 0
1, 69560, Note_off_c, 0, 67, 0
1, 69560, Note_off_c, 1, 59, 0
1, 69600, Note_on_c, 9, 43, 100
1, 69600, Note_on_c, 9, 36, 100
1, 69720, Note_off_c, 9, 43, 0
1, 69720, Note_off_c, 9, 36, 0
1, 69760, Note_on_c, 9, 50, 100
1, 69840, Note_on_c, 0, 69, 95
1, 69840, Note_on_c, 2, 57, 95
1, 69840, Note_on_c, 1, 64, 95
1, 69840, Note_on_c, 9, 42, 100
1, 69840, Note_on_c, 9, 47, 100
1, 69880, Note_off_c, 9, 50, 0
1, 69920, Note_off_c, 1, 64, 0
1, 69920, Note_off_c, 2, 57, 0
1, 69920, Note_off_c, 0, 69, 0
1, 69960, Note_off_c, 9, 42, 0
1, 69960, Note_off_c, 9, 47, 0
1, 70000, Note_on_c, 9, 43, 100
1, 70000, Note_on_c, 9, 50, 90
1, 70080, Note_on_c, 0, 67, 110
1, 70080, Note_on_c, 9, 36, 100
1, 70080, Note_on_c, 9, 45, 100
1, 70080, Note_on_c, 2, 55, 110
1, 70080, Note_on_c, 1, 62, 110
1, 70120, Note_off_c, 9, 43, 0
1, 70120, Note_off_c, 9, 50, 0
1, 70200, Note_off_c, 9, 36, 0
1, 70200, Note_off_c, 9, 45, 0
1, 70240, Note_off_c, 2, 55, 0
1, 70240, Note_off_c, 0, 67, 0
1, 70240, Note_off_c, 1, 62, 0
1, 70240, Note_on_c, 1, 58, 110
1, 70240, Note_on_c, 9, 45, 100
1, 70240, Note_on_c, 0, 64, 110
1, 70240, Note_on_c, 2, 52, 110
1, 70320, Note_off_c, 0, 64, 0
1, 70320, Note_off_c, 1, 58, 0
1, 70320, Note_off_c, 2, 52, 0
1, 70320, Note_on_c, 9, 43, 100
1, 70320, Note_on_c, 9, 42, 100
1, 70360, Note_off_c, 9, 45, 0
1, 70440, Note_off_c, 9, 43, 0
1, 70440, Note_off_c, 9, 42, 0
1, 70480, Note_on_c, 2, 51, 110
1, 70480, Note_on_c, 0, 63, 110
1, 70480, Note_on_c, 1, 59, 110
1, 70480, Note_on_c, 9, 50, 100
1, 70560, Note_on_c, 9, 36, 100
1, 70560, Note_on_c, 9, 45, 100
1, 70600, Note_off_c, 9, 50, 0
1, 70680, Note_off_c, 9, 45, 0
1, 70680, Note_off_c, 9, 36, 0
1, 70720, Note_on_c, 9, 41, 100
1, 70800, Note_on_c, 9, 45, 100
1, 70800, Note_on_c, 9, 42, 100
1, 70840, Note_off_c, 9, 41, 0
1, 70920, Note_off_c, 0, 63, 0
1, 70920, Note_off_c, 9, 45, 0
1, 70920, Note_off_c, 2, 51, 0
1, 70920, Note_off_c, 9, 42, 0
1, 70960, Note_on_c, 9, 41, 90
1, 71040, Note_off_c, 1, 59, 0
1, 71040, Note_on_c, 0, 64, 110
1, 71040, Note_on_c, 9, 45, 100
1, 71040, Note_on_c, 9, 49, 100
1, 71040, Note_on_c, 3, 40, 100
1, 71040, Note_on_c, 1, 58, 110
1, 71040, Note_on_c, 9, 36, 100
1, 71040, Note_on_c, 2, 52, 110
1, 71080, Note_off_c, 9, 41, 0
1, 71120, Note_off_c, 0, 64, 0
1, 71120, Note_off_c, 1, 58, 0
1, 71120, Note_off_c, 2, 52, 0
1, 71160, Note_off_c, 9, 49, 0
1, 71160, Note_off_c, 9, 36, 0
1, 71160, Note_off_c, 9, 45, 0
1, 71280, Note_on_c, 9, 42, 100
1, 71280, Note_on_c, 9, 45, 100
1, 71280, Note_on_c, 9, 39, 100
1, 71400, Note_off_c, 9, 39, 0
1, 71400, Note_off_c, 9, 42, 0
1, 71400, Note_off_c, 9, 45, 0
1, 71400, Note_on_c, 0, 67, 110
1, 71400, Note_on_c, 2, 55, 110
1, 71400, Note_on_c, 1, 59, 110
1, 71480, Note_off_c, 0, 67, 0
1, 71480, Note_off_c, 1, 59, 0
1, 71480, Note_off_c, 2, 55, 0
1, 71520, Note_on_c, 9, 43, 100
1, 71520, Note_on_c, 9, 36, 100
1, 71640, Note_off_c, 9, 43, 0
1, 71640, Note_off_c, 9, 36, 0
1, 71680, Note_on_c, 9, 50, 100
1, 71760, Note_on_c, 1, 64, 95
1, 71760, Note_on_c, 9, 47, 100
1, 71760, Note_on_c, 2, 57, 95
1, 71760, Note_on_c, 9, 39, 100
1, 71760, Note_on_c, 0, 69, 95
1, 71760, Note_on_c, 9, 42, 100
1, 71800, Note_off_c, 9, 50, 0
1, 71840, Note_off_c, 0, 69, 0
1, 71840, Note_off_c, 2, 57, 0
1, 71840, Note_off_c, 1, 64, 0
1, 71880, Note_off_c, 9, 42, 0
1, 71880, Note_off_c, 9, 39, 0
1, 71880, Note_off_c, 9, 47, 0
1, 71920, Note_on_c, 9, 43, 100
1, 71920, Note_on_c, 9, 50, 90
1, 72000, Note_on_c, 0, 64, 110
1, 72000, Note_on_c, 2, 52, 110
1, 72000, Note_on_c, 9, 36, 100
1, 72000, Note_on_c, 9, 45, 100
1, 72000, Note_on_c, 1, 58, 110
1, 72040, Note_off_c, 9, 43, 0
1, 72040, Note_off_c, 9, 50, 0
1, 72080, Note_off_c, 0, 64, 0
1, 72080, Note_off_c, 2, 52, 0
1, 72080, Note_off_c, 1, 58, 0
1, 72120, Note_off_c, 9, 36, 0
1, 72120, Note_off_c, 9, 45, 0
1, 72160, Note_on_c, 9, 45, 100
1, 72240, Note_on_c, 9, 43, 100
1, 72240, Note_on_c, 9, 39, 100
1, 72240, Note_on_c, 9, 42, 100
1, 72280, Note_off_c, 9, 45, 0
1, 72360, Note_off_c, 9, 39, 0
1, 72360, Note_off_c, 9, 42, 0
1, 72360, Note_off_c, 9, 43, 0
1, 72360, Note_on_c, 0, 67, 110
1, 72360, Note_on_c, 1, 59, 110
1, 72360, Note_on_c, 2, 55, 110
1, 72400, Note_on_c, 9, 50, 100
1, 72440, Note_off_c, 0, 67, 0
1, 72440, Note_off_c, 2, 55, 0
1, 72440, Note_off_c, 1, 59, 0
1, 72480, Note_on_c, 9, 45, 100
1, 72480, Note_on_c, 9, 36, 100
1, 72520, Note_off_c, 9, 50, 0
1, 72600, Note_off_c, 9, 45, 0
1, 72600, Note_off_c, 9, 36, 0
1, 72640, Note_on_c, 9, 41, 100
1, 72720, Note_on_c, 0, 69, 95
1, 72720, Note_on_c, 2, 57, 95
1, 72720, Note_on_c, 9, 42, 100
1, 72720, Note_on_c, 9, 39, 100
1, 72720, Note_on_c, 9, 45, 100
1, 72720, Note_on_c, 1, 64, 95
1, 72760, Note_off_c, 9, 41, 0
1, 72800, Note_off_c, 0, 69, 0
1, 72800, Note_off_c, 2, 57, 0
1, 72800, Note_off_c, 1, 64, 0
1, 72840, Note_off_c, 9, 42, 0
1, 72840, Note_off_c, 9, 39, 0
1, 72840, Note_off_c, 9, 45, 0
1, 72880, Note_on_c, 9, 41, 90
1, 72960, Note_on_c, 1, 58, 110
1, 72960, Note_on_c, 2, 52, 110
1, 72960, Note_on_c, 0, 64, 110
1, 72960, Note_on_c, 9, 36, 100
1, 72960, Note_on_c, 9, 45, 100
1, 73000, Note_off_c, 9, 41, 0
1, 73040, Note_off_c, 0, 64, 0
1, 73040, Note_off_c, 2, 52, 0
1, 73040, Note_off_c, 1, 58, 0
1, 73080, Note_off_c, 9, 45, 0
1, 73080, Note_off_c, 9, 36, 0
1, 73200, Note_on_c, 9, 45, 100
1, 73200, Note_on_c, 9, 39, 100
1, 73200, Note_on_c, 9, 42, 100
1, 73320, Note_off_c, 9, 45, 0
1, 73320, Note_off_c, 9, 42, 0
1, 73320, Note_off_c, 9, 39, 0
1, 73320, Note_on_c, 1, 59, 110
1, 73320, Note_on_c, 0, 67, 110
1, 73320, Note_on_c, 2, 55, 110
1, 73400, Note_off_c, 2, 55, 0
1, 73400, Note_off_c, 1, 59, 0
1, 73400, Note_off_c, 0, 67, 0
1, 73440, Note_on_c, 9, 43, 100
1, 73440, Note_on_c, 9, 36, 100
1, 73560, Note_off_c, 9, 43, 0
1, 73560, Note_off_c, 9, 36, 0
1, 73600, Note_on_c, 9, 50, 100
1, 73680, Note_on_c, 0, 69, 95
1, 73680, Note_on_c, 9, 47, 100
1, 73680, Note_on_c, 9, 39, 100
1, 73680, Note_on_c, 1, 64, 95
1, 73680, Note_on_c, 9, 42, 100
1, 73680, Note_on_c, 2, 57, 95
1, 73720, Note_off_c, 9, 50, 0
1, 73760, Note_off_c, 0, 69, 0
1, 73760, Note_off_c, 1, 64, 0
1, 73760, Note_off_c, 2, 57, 0
1, 73800, Note_off_c, 9, 42, 0
1, 73800, Note_off_c, 9, 47, 0
1, 73800, Note_off_c, 9, 39, 0
1, 73840, Note_on_c, 9, 50, 90
1, 73840, Note_on_c, 9, 43, 100
1, 73920, Note_on_c, 0, 67, 110
1, 73920, Note_on_c, 9, 45, 100
1, 73920, Note_on_c, 9, 36, 100
1, 73920, Note_on_c, 2, 55, 110
1, 73960, Note_off_c, 9, 43, 0
1, 73960, Note_off_c, 9, 50, 0
1, 73960, Note_off_c, 2, 55, 0
1, 73960, Note_on_c, 2, 57, 110
1, 74040, Note_off_c, 9, 36, 0
1, 74040, Note_off_c, 9, 45, 0
1, 74040, Note_off_c, 2, 57, 0
1, 74040, Note_on_c, 2, 55, 110
1, 74080, Note_off_c, 2, 55, 0
1, 74080, Note_off_c, 0, 67, 0
1, 74080, Note_on_c, 2, 53, 110
1, 74080, Note_on_c, 0, 67, 110
1, 74080, Note_on_c, 9, 45, 100
1, 74160, Note_off_c, 0, 67, 0
1, 74160, Note_off_c, 2, 53, 0
1, 74160, Note_on_c, 1, 64, 110
1, 74160, Note_on_c, 0, 69, 110
1, 74160, Note_on_c, 9, 39, 100
1, 74160, Note_on_c, 2, 57, 110
1, 74160, Note_on_c, 9, 43, 100
1, 74160, Note_on_c, 9, 42, 100
1, 74200, Note_off_c, 9, 45, 0
1, 74280, Note_off_c, 9, 39, 0
1, 74280, Note_off_c, 9, 43, 0
1, 74280, Note_off_c, 9, 42, 0
1, 74320, Note_off_c, 0, 69, 0
1, 74320, Note_off_c, 1, 64, 0
1, 74320, Note_off_c, 2, 57, 0
1, 74320, Note_on_c, 1, 62, 110
1, 74320, Note_on_c, 9, 50, 100
1, 74320, Note_on_c, 2, 55, 110
1, 74320, Note_on_c, 0, 67, 110
1, 74400, Note_off_c, 3, 40, 0
1, 74400, Note_off_c, 2, 55, 0
1, 74400, Note_off_c, 1, 62, 0
1, 74400, Note_off_c, 0, 67, 0
1, 74400, Note_on_c, 9, 45, 100
1, 74400, Note_on_c, 9, 36, 100
1, 74440, Note_off_c, 9, 50, 0
1, 74520, Note_off_c, 9, 36, 0
1, 74520, Note_off_c, 9, 45, 0
1, 74560, Note_on_c, 9, 41, 100
1, 74640, Note_on_c, 9, 39, 100
1, 74640, Note_on_c, 9, 45, 100
1, 74640, Note_on_c, 9, 42, 100
1, 74640, Note_on_c, 3, 35, 100
1, 74680, Note_off_c, 3, 35, 0
1, 74680, Note_off_c, 9, 41, 0
1, 74680, Note_on_c, 3, 37, 100
1, 74760, Note_off_c, 9, 42, 0
1, 74760, Note_off_c, 3, 37, 0
1, 74760, Note_off_c, 9, 39, 0
1, 74760, Note_off_c, 9, 45, 0
1, 74760, Note_on_c, 3, 38, 100
1, 74800, Note_off_c, 3, 38, 0
1, 74800, Note_on_c, 9, 41, 90
1, 74800, Note_on_c, 3, 39, 100
1, 74880, Note_off_c, 3, 39, 0
1, 74880, Note_on_c, 0, 64, 110
1, 74880, Note_on_c, 1, 58, 110
1, 74880, Note_on_c, 3, 40, 100
1, 74880, Note_on_c, 9, 45, 100
1, 74880, Note_on_c, 2, 52, 110
1, 74880, Note_on_c, 9, 36, 100
1, 74920, Note_off_c, 9, 41, 0
1, 74960, Note_off_c, 0, 64, 0
1, 74960, Note_off_c, 2, 52, 0
1, 74960, Note_off_c, 1, 58, 0
1, 75000, Note_off_c, 9, 45, 0
1, 75000, Note_off_c, 9, 36, 0
1, 75120, Note_on_c, 9, 42, 100
1, 75120, Note_on_c, 9, 45, 100
1, 75120, Note_on_c, 9, 39, 100
1, 75240, Note_off_c, 9, 45, 0
1, 75240, Note_off_c, 9, 42, 0
1, 75240, Note_off_c, 9, 39, 0
1, 75240, Note_on_c, 0, 67, 110
1, 75240, Note_on_c, 1, 59, 110
1, 75240, Note_on_c, 2, 55, 110
1, 75320, Note_off_c, 0, 67, 0
1, 75320, Note_off_c, 1, 59, 0
1, 75320, Note_off_c, 2, 55, 0
1, 75360, Note_on_c, 9, 43, 100
1, 75360, Note_on_c, 9, 36, 100
1, 75480, Note_off_c, 9, 43, 0
1, 75480, Note_off_c, 9, 36, 0
1, 75520, Note_on_c, 9, 50, 100
1, 75600, Note_on_c, 1, 64, 95
1, 75600, Note_on_c, 9, 39, 100
1, 75600, Note_on_c, 0, 69, 95
1, 75600, Note_on_c, 9, 47, 100
1, 75600, Note_on_c, 2, 57, 95
1, 75600, Note_on_c, 9, 42, 100
1, 75640, Note_off_c, 9, 50, 0
1, 75680, Note_off_c, 0, 69, 0
1, 75680, Note_off_c, 1, 64, 0
1, 75680, Note_off_c, 2, 57, 0
1, 75720, Note_off_c, 9, 47, 0
1, 75720, Note_off_c, 9, 39, 0
1, 75720, Note_off_c, 9, 42, 0
1, 75760, Note_on_c, 9, 50, 90
1, 75760, Note_on_c, 9, 43, 100
1, 75840, Note_on_c, 9, 36, 100
1, 75840, Note_on_c, 0, 64, 110
1, 75840, Note_on_c, 2, 52, 110
1, 75840, Note_on_c, 1, 58, 110
1, 75840, Note_on_c, 9, 45, 100
1, 75880, Note_off_c, 9, 43, 0
1, 75880, Note_off_c, 9, 50, 0
1, 75920, Note_off_c, 0, 64, 0
1, 75920, Note_off_c, 2, 52, 0
1, 75920, Note_off_c, 1, 58, 0
1, 75960, Note_off_c, 9, 36, 0
1, 75960, Note_off_c, 9, 45, 0
1, 76000, Note_on_c, 9, 45, 100
1, 76080, Note_on_c, 9, 43, 100
1, 76080, Note_on_c, 9, 39, 100
1, 76080, Note_on_c, 9, 42, 100
1, 76120, Note_off_c, 9, 45, 0
1, 76200, Note_off_c, 9, 42, 0
1, 76200, Note_off_c, 9, 39, 0
1, 76200, Note_off_c, 9, 43, 0
1, 76200, Note_on_c, 1, 59, 110
1, 76200, Note_on_c, 2, 55, 110
1, 76200, Note_on_c, 0, 67, 110
1, 76240, Note_on_c, 9, 50, 100
1, 76280, Note_off_c, 2, 55, 0
1, 76280, Note_off_c, 0, 67, 0
1, 76280, Note_off_c, 1, 59, 0
1, 76320, Note_on_c, 9, 45, 100
1, 76320, Note_on_c, 9, 36, 100
1, 76360, Note_off_c, 9, 50, 0
1, 76440, Note_off_c, 9, 45, 0
1, 76440, Note_off_c, 9, 36, 0
1, 76480, Note_on_c, 9, 41, 100
1, 76560, Note_on_c, 0, 69, 95
1, 76560, Note_on_c, 9, 42, 100
1, 76560, Note_on_c, 9, 45, 100
1, 76560, Note_on_c, 9, 39, 100
1, 76560, Note_on_c, 1, 64, 95
1, 76560, Note_on_c, 2, 57, 95
1, 76600, Note_off_c, 9, 41, 0
1, 76640, Note_off_c, 1, 64, 0
1, 76640, Note_off_c, 2, 57, 0
1, 76640, Note_off_c, 0, 69, 0
1, 76680, Note_off_c, 9, 42, 0
1, 76680, Note_off_c, 9, 39, 0
1, 76680, Note_off_c, 9, 45, 0
1, 76720, Note_on_c, 9, 41, 90
1, 76800, Note_on_c, 0, 70, 110
1, 76800, Note_on_c, 9, 36, 100
1, 76800, Note_on_c, 9, 45, 100
1, 76800, Note_on_c, 2, 58, 110
1, 76800, Note_on_c, 1, 64, 110
1, 76840, Note_off_c, 9, 41, 0
1, 76880, Note_off_c, 0, 70, 0
1, 76880, Note_off_c, 2, 58, 0
1, 76880, Note_off_c, 1, 64, 0
1, 76920, Note_off_c, 9, 45, 0
1, 76920, Note_off_c, 9, 36, 0
1, 77040, Note_on_c, 9, 45, 100
1, 77040, Note_on_c, 9, 39, 100
1, 77040, Note_on_c, 9, 42, 100
1, 77160, Note_off_c, 9, 45, 0
1, 77160, Note_off_c, 9, 42, 0
1, 77160, Note_off_c, 9, 39, 0
1, 77160, Note_on_c, 0, 71, 110
1, 77160, Note_on_c, 2, 59, 110
1, 77160, Note_on_c, 1, 64, 110
1, 77240, Note_off_c, 0, 71, 0
1, 77240, Note_off_c, 1, 64, 0
1, 77240, Note_off_c, 2, 59, 0
1, 77280, Note_on_c, 9, 43, 100
1, 77280, Note_on_c, 9, 36, 100
1, 77400, Note_off_c, 9, 36, 0
1, 77400, Note_off_c, 9, 43, 0
1, 77440, Note_on_c, 9, 50, 100
1, 77520, Note_on_c, 0, 74, 110
1, 77520, Note_on_c, 9, 42, 100
1, 77520, Note_on_c, 9, 47, 100
1, 77520, Note_on_c, 9, 39, 100
1, 77520, Note_on_c, 1, 64, 110
1, 77520, Note_on_c, 2, 62, 110
1, 77560, Note_off_c, 9, 50, 0
1, 77600, Note_off_c, 1, 64, 0
1, 77600, Note_off_c, 2, 62, 0
1, 77600, Note_off_c, 0, 74, 0
1, 77640, Note_off_c, 9, 42, 0
1, 77640, Note_off_c, 9, 39, 0
1, 77640, Note_off_c, 9, 47, 0
1, 77680, Note_on_c, 9, 43, 100
1, 77680, Note_on_c, 9, 50, 90
1, 77760, Note_off_c, 3, 40, 0
1, 77760, Note_on_c, 9, 45, 100
1, 77800, Note_off_c, 9, 50, 0
1, 77800, Note_off_c, 9, 43, 0
1, 77800, Note_on_c, 9, 48, 100
1, 77880, Note_off_c, 9, 45, 0
1, 77880, Note_on_c, 2, 64, 110
1, 77880, Note_on_c, 0, 76, 110
1, 77880, Note_on_c, 9, 47, 100
1, 77920, Note_off_c, 9, 48, 0
1, 77920, Note_on_c, 9, 45, 100
1, 78000, Note_off_c, 9, 47, 0
1, 78000, Note_on_c, 9, 38, 100
1, 78000, Note_on_c, 9, 46, 100
1, 78040, Note_off_c, 9, 45, 0
1, 78120, Note_off_c, 9, 46, 0
1, 78120, Note_off_c, 9, 38, 0
1, 78240, Note_off_c, 2, 64, 0
1, 78240, Note_off_c, 0, 76, 0
1, 78240, Note_on_c, 2, 65, 110
1, 78240, Note_on_c, 0, 77, 110
1, 78240, Note_on_c, 9, 42, 20
1, 78320, Note_off_c, 2, 65, 0
1, 78320, Note_off_c, 0, 77, 0
1, 78360, Note_off_c, 9, 42, 0
1, 78480, Note_on_c, 2, 66, 110
1, 78480, Note_on_c, 0, 78, 110
1, 78560, Note_off_c, 0, 78, 0
1, 78560, Note_off_c, 2, 66, 0
1, 78720, Note_on_c, 2, 67, 110
1, 78720, Note_on_c, 9, 36, 100
1, 78720, Note_on_c, 9, 42, 100
1, 78720, Note_on_c, 0, 79, 110
1, 78720, Note_on_c, 4, 43, 100
1, 78840, Note_off_c, 9, 36, 0
1, 78840, Note_off_c, 9, 42, 0
1, 78880, Note_off_c, 4, 43, 0
1, 78880, Note_off_c, 2, 67, 0
1, 78880, Note_off_c, 0, 79, 0
1, 78960, Note_on_c, 9, 46, 100
1, 79080, Note_off_c, 9, 46, 0
1, 79200, Note_on_c, 9, 42, 100
1, 79200, Note_on_c, 9, 36, 100
1, 79320, Note_off_c, 9, 42, 0
1, 79320, Note_off_c, 9, 36, 0
1, 79360, Note_on_c, 9, 42, 100
1, 79440, Note_on_c, 0, 76, 110
1, 79440, Note_on_c, 4, 40, 100
1, 79440, Note_on_c, 9, 46, 100
1, 79440, Note_on_c, 2, 64, 110
1, 79480, Note_off_c, 9, 42, 0
1, 79560, Note_off_c, 9, 46, 0
1, 79680, Note_off_c, 0, 76, 0
1, 79680, Note_off_c, 4, 40, 0
1, 79680, Note_off_c, 2, 64, 0
1, 79680, Note_on_c, 9, 36, 100
1, 79680, Note_on_c, 9, 42, 100
1, 79680, Note_on_c, 4, 41, 100
1, 79680, Note_on_c, 0, 77, 110
1, 79680, Note_on_c, 2, 65, 110
1, 79800, Note_off_c, 9, 36, 0
1, 79800, Note_off_c, 9, 42, 0
1, 79840, Note_off_c, 4, 41, 0
1, 79840, Note_off_c, 0, 77, 0
1, 79840, Note_off_c, 2, 65, 0
1, 79840, Note_on_c, 9, 42, 100
1, 79920, Note_on_c, 9, 46, 100
1, 79960, Note_off_c, 9, 42, 0
1, 80040, Note_off_c, 9, 46, 0
1, 80160, Note_on_c, 9, 42, 100
1, 80160, Note_on_c, 9, 36, 100
1, 80280, Note_off_c, 9, 42, 0
1, 80280, Note_off_c, 9, 36, 0
1, 80320, Note_on_c, 9, 42, 100
1, 80400, Note_on_c, 9, 46, 100
1, 80400, Note_on_c, 4, 38, 100
1, 80400, Note_on_c, 2, 62, 110
1, 80400, Note_on_c, 0, 74, 110
1, 80440, Note_off_c, 9, 42, 0
1, 80520, Note_off_c, 9, 46, 0
1, 80640, Note_off_c, 4, 38, 0
1, 80640, Note_off_c, 0, 74, 0
1, 80640, Note_off_c, 2, 62, 0
1, 80640, Note_on_c, 9, 36, 100
1, 80640, Note_on_c, 2, 67, 110
1, 80640, Note_on_c, 0, 79, 110
1, 80640, Note_on_c, 4, 43, 100
1, 80640, Note_on_c, 9, 42, 100
1, 80760, Note_off_c, 9, 42, 0
1, 80760, Note_off_c, 9, 36, 0
1, 80880, Note_off_c, 0, 79, 0
1, 80880, Note_off_c, 4, 43, 0
1, 80880, Note_off_c, 2, 67, 0
1, 80880, Note_on_c, 0, 74, 110
1, 80880, Note_on_c, 9, 46, 100
1, 80880, Note_on_c, 2, 62, 110
1, 80880, Note_on_c, 4, 38, 100
1, 81000, Note_off_c, 9, 46, 0
1, 81120, Note_off_c, 0, 74, 0
1, 81120, Note_off_c, 4, 38, 0
1, 81120, Note_off_c, 2, 62, 0
1, 81120, Note_on_c, 4, 41, 100
1, 81120, Note_on_c, 2, 65, 110
1, 81120, Note_on_c, 9, 42, 100
1, 81120, Note_on_c, 0, 77, 110
1, 81120, Note_on_c, 9, 36, 100
1, 81240, Note_off_c, 9, 36, 0
1, 81240, Note_off_c, 9, 42, 0
1, 81280, Note_on_c, 9, 42, 100
1, 81360, Note_off_c, 2, 65, 0
1, 81360, Note_off_c, 0, 77, 0
1, 81360, Note_off_c, 4, 41, 0
1, 81360, Note_on_c, 4, 38, 100
1, 81360, Note_on_c, 2, 62, 110
1, 81360, Note_on_c, 9, 46, 100
1, 81360, Note_on_c, 0, 74, 110
1, 81400, Note_off_c, 9, 42, 0
1, 81480, Note_off_c, 9, 46, 0
1, 81600, Note_off_c, 0, 74, 0
1, 81600, Note_off_c, 4, 38, 0
1, 81600, Note_off_c, 2, 62, 0
1, 81600, Note_on_c, 9, 36, 100
1, 81600, Note_on_c, 9, 42, 100
1, 81720, Note_off_c, 9, 42, 0
1, 81720, Note_off_c, 9, 36, 0
1, 81760, Note_on_c, 9, 42, 100
1, 81840, Note_on_c, 9, 49, 100
1, 81840, Note_on_c, 9, 46, 100
1, 81840, Note_on_c, 3, 38, 100
1, 81880, Note_off_c, 9, 42, 0
1, 81960, Note_off_c, 9, 49, 0
1, 81960, Note_off_c, 9, 46, 0
1, 82080, Note_on_c, 9, 36, 100
1, 82080, Note_on_c, 9, 42, 100
1, 82200, Note_off_c, 9, 42, 0
1, 82200, Note_off_c, 9, 36, 0
1, 82240, Note_on_c, 9, 42, 100
1, 82320, Note_on_c, 0, 78, 110
1, 82320, Note_on_c, 2, 66, 110
1, 82320, Note_on_c, 4, 42, 100
1, 82320, Note_on_c, 9, 46, 100
1, 82360, Note_off_c, 9, 42, 0
1, 82440, Note_off_c, 9, 46, 0
1, 82560, Note_off_c, 4, 42, 0
1, 82560, Note_off_c, 3, 38, 0
1, 82560, Note_off_c, 0, 78, 0
1, 82560, Note_off_c, 2, 66, 0
1, 82560, Note_on_c, 0, 79, 110
1, 82560, Note_on_c, 2, 67, 110
1, 82560, Note_on_c, 4, 43, 100
1, 82560, Note_on_c, 9, 36, 100
1, 82560, Note_on_c, 9, 42, 100
1, 82680, Note_off_c, 9, 36, 0
1, 82680, Note_off_c, 9, 42, 0
1, 82720, Note_off_c, 4, 43, 0
1, 82720, Note_off_c, 0, 79, 0
1, 82720, Note_off_c, 2, 67, 0
1, 82800, Note_on_c, 9, 46, 100
1, 82920, Note_off_c, 9, 46, 0
1, 83040, Note_on_c, 9, 42, 100
1, 83040, Note_on_c, 9, 36, 100
1, 83160, Note_off_c, 9, 36, 0
1, 83160, Note_off_c, 9, 42, 0
1, 83200, Note_on_c, 9, 42, 100
1, 83280, Note_on_c, 0, 76, 110
1, 83280, Note_on_c, 9, 46, 100
1, 83280, Note_on_c, 2, 64, 110
1, 83280, Note_on_c, 4, 40, 100
1, 83320, Note_off_c, 9, 42, 0
1, 83400, Note_off_c, 9, 46, 0
1, 83520, Note_off_c, 0, 76, 0
1, 83520, Note_off_c, 4, 40, 0
1, 83520, Note_off_c, 2, 64, 0
1, 83520, Note_on_c, 4, 41, 100
1, 83520, Note_on_c, 9, 42, 100
1, 83520, Note_on_c, 9, 36, 100
1, 83520, Note_on_c, 2, 65, 110
1, 83520, Note_on_c, 0, 77, 110
1, 83640, Note_off_c, 9, 36, 0
1, 83640, Note_off_c, 9, 42, 0
1, 83680, Note_off_c, 4, 41, 0
1, 83680, Note_off_c, 0, 77, 0
1, 83680, Note_off_c, 2, 65, 0
1, 83680, Note_on_c, 9, 42, 100
1, 83760, Note_on_c, 9, 46, 100
1, 83800, Note_off_c, 9, 42, 0
1, 83880, Note_off_c, 9, 46, 0
1, 84000, Note_on_c, 9, 42, 100
1, 84000, Note_on_c, 9, 36, 100
1, 84120, Note_off_c, 9, 42, 0
1, 84120, Note_off_c, 9, 36, 0
1, 84160, Note_on_c, 9, 42, 100
1, 84240, Note_on_c, 4, 42, 100
1, 84240, Note_on_c, 2, 66, 110
1, 84240, Note_on_c, 0, 78, 110
1, 84240, Note_on_c, 9, 46, 100
1, 84280, Note_off_c, 9, 42, 0
1, 84360, Note_off_c, 9, 46, 0
1, 84480, Note_off_c, 0, 78, 0
1, 84480, Note_off_c, 4, 42, 0
1, 84480, Note_off_c, 2, 66, 0
1, 84480, Note_on_c, 3, 50, 75
1, 84480, Note_on_c, 0, 79, 110
1, 84480, Note_on_c, 9, 36, 100
1, 84480, Note_on_c, 9, 42, 100
1, 84480, Note_on_c, 2, 67, 110
1, 84480, Note_on_c, 4, 43, 100
1, 84520, Note_off_c, 4, 43, 0
1, 84520, Note_off_c, 2, 67, 0
1, 84520, Note_off_c, 0, 79, 0
1, 84520, Note_on_c, 0, 81, 110
1, 84520, Note_on_c, 4, 45, 100
1, 84520, Note_on_c, 2, 69, 110
1, 84560, Note_on_c, 9, 46, 80
1, 84600, Note_off_c, 9, 42, 0
1, 84600, Note_off_c, 4, 45, 0
1, 84600, Note_off_c, 9, 36, 0
1, 84600, Note_off_c, 0, 81, 0
1, 84600, Note_off_c, 2, 69, 0
1, 84600, Note_on_c, 2, 67, 110
1, 84600, Note_on_c, 4, 43, 100
1, 84600, Note_on_c, 0, 79, 110
1, 84640, Note_off_c, 4, 43, 0
1, 84640, Note_off_c, 0, 79, 0
1, 84640, Note_off_c, 2, 67, 0
1, 84640, Note_on_c, 4, 42, 100
1, 84640, Note_on_c, 2, 66, 110
1, 84640, Note_on_c, 0, 78, 110
1, 84640, Note_on_c, 9, 42, 80
1, 84680, Note_off_c, 9, 46, 0
1, 84720, Note_off_c, 3, 50, 0
1, 84720, Note_off_c, 0, 78, 0
1, 84720, Note_off_c, 4, 42, 0
1, 84720, Note_off_c, 2, 66, 0
1, 84720, Note_on_c, 9, 46, 100
1, 84720, Note_on_c, 3, 47, 75
1, 84720, Note_on_c, 2, 67, 110
1, 84720, Note_on_c, 0, 79, 110
1, 84720, Note_on_c, 4, 43, 100
1, 84760, Note_off_c, 9, 42, 0
1, 84840, Note_off_c, 9, 46, 0
1, 84880, Note_off_c, 4, 43, 0
1, 84880, Note_off_c, 0, 79, 0
1, 84880, Note_off_c, 2, 67, 0
1, 84880, Note_on_c, 0, 83, 110
1, 84880, Note_on_c, 4, 47, 100
1, 84880, Note_on_c, 2, 71, 110
1, 84960, Note_off_c, 3, 47, 0
1, 84960, Note_off_c, 4, 47, 0
1, 84960, Note_off_c, 0, 83, 0
1, 84960, Note_off_c, 2, 71, 0
1, 84960, Note_on_c, 3, 67, 100
1, 84960, Note_on_c, 1, 71, 100
1, 84960, Note_on_c, 9, 36, 100
1, 84960, Note_on_c, 2, 74, 110
1, 84960, Note_on_c, 9, 42, 100
1, 84960, Note_on_c, 4, 50, 100
1, 84960, Note_on_c, 0, 86, 110
1, 85080, Note_off_c, 9, 36, 0
1, 85080, Note_off_c, 9, 42, 0
1, 85120, Note_off_c, 4, 50, 0
1, 85120, Note_off_c, 1, 71, 0
1, 85120, Note_off_c, 0, 86, 0
1, 85120, Note_off_c, 3, 67, 0
1, 85120, Note_off_c, 2, 74, 0
1, 85120, Note_on_c, 2, 76, 110
1, 85120, Note_on_c, 3, 66, 100
1, 85120, Note_on_c, 0, 88, 110
1, 85120, Note_on_c, 9, 36, 100
1, 85120, Note_on_c, 1, 70, 100
1, 85120, Note_on_c, 9, 46, 100
1, 85120, Note_on_c, 4, 52, 100
1, 85200, Note_off_c, 0, 88, 0
1, 85200, Note_off_c, 1, 70, 0
1, 85200, Note_off_c, 4, 52, 0
1, 85200, Note_off_c, 3, 66, 0
1, 85200, Note_off_c, 2, 76, 0
1, 85200, Note_on_c, 9, 42, 100
1, 85240, Note_off_c, 9, 36, 0
1, 85240, Note_off_c, 9, 46, 0
1, 85320, Note_off_c, 9, 42, 0
1, 85360, Note_on_c, 9, 46, 100
1, 85360, Note_on_c, 2, 77, 110
1, 85360, Note_on_c, 0, 89, 110
1, 85360, Note_on_c, 1, 69, 100
1, 85360, Note_on_c, 4, 53, 100
1, 85360, Note_on_c, 9, 36, 100
1, 85360, Note_on_c, 3, 65, 100
1, 85440, Note_off_c, 0, 89, 0
1, 85440, Note_off_c, 3, 65, 0
1, 85440, Note_off_c, 2, 77, 0
1, 85440, Note_off_c, 4, 53, 0
1, 85440, Note_off_c, 1, 69, 0
1, 85440, Note_on_c, 9, 42, 100
1, 85480, Note_off_c, 9, 36, 0
1, 85480, Note_off_c, 9, 46, 0
1, 85560, Note_off_c, 9, 42, 0
1, 85840, Note_on_c, 9, 42, 100
1, 85920, Note_on_c, 9, 45, 100
1, 85960, Note_off_c, 9, 42, 0
1, 86040, Note_off_c, 9, 45, 0
1, 86160, Note_on_c, 9, 43, 100
1, 86280, Note_off_c, 9, 43, 0
1, 86400, Note_on_c, 6, 74, 100
1, 86400, Note_on_c, 9, 36, 100
1, 86400, Note_on_c, 4, 43, 100
1, 86400, Note_on_c, 6, 62, 100
1, 86400, Note_on_c, 6, 71, 100
1, 86400, Note_on_c, 9, 42, 100
1, 86400, Note_on_c, 7, 43, 100
1, 86400, Note_on_c, 5, 74, 100
1, 86440, Note_off_c, 6, 74, 0
1, 86440, Note_off_c, 7, 43, 0
1, 86440, Note_off_c, 6, 62, 0
1, 86440, Note_off_c, 6, 71, 0
1, 86440, Note_off_c, 5, 74, 0
1, 86520, Note_off_c, 4, 43, 0
1, 86520, Note_off_c, 9, 36, 0
1, 86520, Note_off_c, 9, 42, 0
1, 86640, Note_on_c, 9, 46, 100
1, 86760, Note_off_c, 9, 46, 0
1, 86880, Note_on_c, 9, 42, 100
1, 87000, Note_off_c, 9, 42, 0
1, 87040, Note_on_c, 4, 51, 100
1, 87040, Note_on_c, 6, 63, 100
1, 87040, Note_on_c, 7, 43, 100
1, 87040, Note_on_c, 9, 42, 100
1, 87040, Note_on_c, 6, 75, 100
1, 87040, Note_on_c, 9, 36, 100
1, 87040, Note_on_c, 6, 71, 100
1, 87040, Note_on_c, 5, 71, 100
1, 87120, Note_off_c, 5, 71, 0
1, 87120, Note_on_c, 9, 46, 100
1, 87120, Note_on_c, 5, 67, 100
1, 87160, Note_off_c, 9, 36, 0
1, 87160, Note_off_c, 9, 42, 0
1, 87240, Note_off_c, 9, 46, 0
1, 87360, Note_off_c, 7, 43, 0
1, 87360, Note_off_c, 6, 71, 0
1, 87360, Note_off_c, 6, 75, 0
1, 87360, Note_off_c, 6, 63, 0
1, 87360, Note_off_c, 4, 51, 0
1, 87360, Note_off_c, 5, 67, 0
1, 87360, Note_on_c, 7, 43, 100
1, 87360, Note_on_c, 4, 52, 100
1, 87360, Note_on_c, 6, 76, 100
1, 87360, Note_on_c, 9, 36, 100
1, 87360, Note_on_c, 6, 64, 100
1, 87360, Note_on_c, 9, 42, 100
1, 87360, Note_on_c, 6, 71, 100
1, 87360, Note_on_c, 5, 64, 100
1, 87400, Note_off_c, 7, 43, 0
1, 87400, Note_off_c, 5, 64, 0
1, 87400, Note_off_c, 6, 64, 0
1, 87400, Note_off_c, 6, 71, 0
1, 87400, Note_off_c, 6, 76, 0
1, 87480, Note_off_c, 9, 36, 0
1, 87480, Note_off_c, 9, 42, 0
1, 87480, Note_off_c, 4, 52, 0
1, 87520, Note_on_c, 9, 42, 100
1, 87600, Note_on_c, 5, 74, 100
1, 87600, Note_on_c, 9, 46, 100
1, 87640, Note_off_c, 9, 42, 0
1, 87640, Note_off_c, 5, 74, 0
1, 87720, Note_off_c, 9, 46, 0
1, 87840, Note_on_c, 9, 42, 100
1, 87840, Note_on_c, 5, 71, 100
1, 87880, Note_off_c, 5, 71, 0
1, 87960, Note_off_c, 9, 42, 0
1, 88000, Note_on_c, 9, 42, 100
1, 88000, Note_on_c, 6, 71, 100
1, 88000, Note_on_c, 4, 51, 100
1, 88000, Note_on_c, 9, 36, 100
1, 88000, Note_on_c, 7, 43, 100
1, 88000, Note_on_c, 6, 63, 100
1, 88000, Note_on_c, 6, 75, 100
1, 88080, Note_on_c, 5, 67, 100
1, 88080, Note_on_c, 9, 46, 100
1, 88120, Note_off_c, 9, 36, 0
1, 88120, Note_off_c, 9, 42, 0
1, 88120, Note_off_c, 5, 67, 0
1, 88200, Note_off_c, 9, 46, 0
1, 88320, Note_off_c, 6, 63, 0
1, 88320, Note_off_c, 6, 75, 0
1, 88320, Note_off_c, 7, 43, 0
1, 88320, Note_off_c, 6, 71, 0
1, 88320, Note_off_c, 4, 51, 0
1, 88320, Note_on_c, 6, 74, 100
1, 88320, Note_on_c, 7, 43, 100
1, 88320, Note_on_c, 9, 36, 100
1, 88320, Note_on_c, 6, 62, 100
1, 88320, Note_on_c, 5, 71, 100
1, 88320, Note_on_c, 4, 50, 100
1, 88320, Note_on_c, 6, 71, 100
1, 88320, Note_on_c, 9, 42, 100
1, 88360, Note_off_c, 6, 71, 0
1, 88360, Note_off_c, 7, 43, 0
1, 88360, Note_off_c, 6, 74, 0
1, 88360, Note_off_c, 6, 62, 0
1, 88400, Note_off_c, 5, 71, 0
1, 88440, Note_off_c, 9, 36, 0
1, 88440, Note_off_c, 9, 42, 0
1, 88560, Note_off_c, 4, 50, 0
1, 88560, Note_on_c, 4, 46, 100
1, 88560, Note_on_c, 6, 74, 100
1, 88560, Note_on_c, 6, 62, 100
1, 88560, Note_on_c, 7, 43, 100
1, 88560, Note_on_c, 9, 46, 100
1, 88560, Note_on_c, 6, 71, 100
1, 88600, Note_off_c, 6, 71, 0
1, 88600, Note_off_c, 7, 43, 0
1, 88600, Note_off_c, 6, 62, 0
1, 88600, Note_off_c, 6, 74, 0
1, 88680, Note_off_c, 9, 46, 0
1, 88800, Note_off_c, 4, 46, 0
1, 88800, Note_on_c, 6, 71, 100
1, 88800, Note_on_c, 9, 36, 100
1, 88800, Note_on_c, 9, 42, 100
1, 88800, Note_on_c, 6, 63, 100
1, 88800, Note_on_c, 6, 75, 100
1, 88800, Note_on_c, 4, 47, 100
1, 88800, Note_on_c, 5, 67, 100
1, 88800, Note_on_c, 7, 43, 100
1, 88880, Note_off_c, 5, 67, 0
1, 88920, Note_off_c, 9, 42, 0
1, 88920, Note_off_c, 9, 36, 0
1, 88960, Note_off_c, 6, 75, 0
1, 88960, Note_off_c, 7, 43, 0
1, 88960, Note_off_c, 6, 71, 0
1, 88960, Note_off_c, 6, 63, 0
1, 88960, Note_on_c, 6, 71, 100
1, 88960, Note_on_c, 7, 43, 100
1, 88960, Note_on_c, 6, 74, 100
1, 88960, Note_on_c, 6, 62, 100
1, 88960, Note_on_c, 9, 42, 100
1, 89040, Note_off_c, 6, 74, 0
1, 89040, Note_off_c, 7, 43, 0
1, 89040, Note_off_c, 6, 62, 0
1, 89040, Note_off_c, 6, 71, 0
1, 89040, Note_off_c, 4, 47, 0
1, 89040, Note_on_c, 6, 75, 100
1, 89040, Note_on_c, 6, 63, 100
1, 89040, Note_on_c, 6, 71, 100
1, 89040, Note_on_c, 7, 43, 100
1, 89040, Note_on_c, 4, 40, 100
1, 89040, Note_on_c, 9, 46, 100
1, 89080, Note_off_c, 9, 42, 0
1, 89160, Note_off_c, 9, 46, 0
1, 89200, Note_off_c, 6, 75, 0
1, 89200, Note_off_c, 6, 63, 0
1, 89200, Note_off_c, 7, 43, 0
1, 89200, Note_off_c, 4, 40, 0
1, 89200, Note_off_c, 6, 71, 0
1, 89200, Note_on_c, 6, 76, 100
1, 89200, Note_on_c, 5, 71, 100
1, 89200, Note_on_c, 9, 36, 100
1, 89200, Note_on_c, 7, 43, 100
1, 89200, Note_on_c, 6, 71, 100
1, 89200, Note_on_c, 4, 43, 100
1, 89200, Note_on_c, 6, 64, 100
1, 89280, Note_off_c, 6, 71, 0
1, 89280, Note_off_c, 7, 43, 0
1, 89280, Note_off_c, 6, 76, 0
1, 89280, Note_off_c, 6, 64, 0
1, 89280, Note_off_c, 5, 71, 0
1, 89280, Note_off_c, 4, 43, 0
1, 89280, Note_on_c, 9, 42, 100
1, 89320, Note_off_c, 9, 36, 0
1, 89400, Note_off_c, 9, 42, 0
1, 89440, Note_on_c, 9, 42, 100
1, 89520, Note_on_c, 9, 46, 100
1, 89560, Note_off_c, 9, 42, 0
1, 89640, Note_off_c, 9, 46, 0
1, 89760, Note_on_c, 9, 42, 100
1, 89880, Note_off_c, 9, 42, 0
1, 89920, Note_on_c, 4, 43, 100
1, 89920, Note_on_c, 7, 43, 100
1, 89920, Note_on_c, 6, 71, 100
1, 89920, Note_on_c, 9, 36, 100
1, 89920, Note_on_c, 6, 63, 100
1, 89920, Note_on_c, 6, 75, 100
1, 89920, Note_on_c, 9, 42, 100
1, 89920, Note_on_c, 5, 69, 100
1, 90000, Note_on_c, 9, 46, 100
1, 90040, Note_off_c, 9, 36, 0
1, 90040, Note_off_c, 9, 42, 0
1, 90120, Note_off_c, 9, 46, 0
1, 90240, Note_off_c, 4, 43, 0
1, 90240, Note_off_c, 5, 69, 0
1, 90240, Note_off_c, 6, 71, 0
1, 90240, Note_off_c, 6, 63, 0
1, 90240, Note_off_c, 7, 43, 0
1, 90240, Note_off_c, 6, 75, 0
1, 90240, Note_on_c, 6, 74, 100
1, 90240, Note_on_c, 6, 62, 100
1, 90240, Note_on_c, 5, 67, 100
1, 90240, Note_on_c, 6, 71, 100
1, 90240, Note_on_c, 4, 43, 100
1, 90240, Note_on_c, 9, 36, 100
1, 90240, Note_on_c, 9, 42, 100
1, 90240, Note_on_c, 7, 43, 100
1, 90280, Note_off_c, 6, 71, 0
1, 90280, Note_off_c, 7, 43, 0
1, 90280, Note_off_c, 6, 62, 0
1, 90280, Note_off_c, 6, 74, 0
1, 90320, Note_off_c, 5, 67, 0
1, 90360, Note_off_c, 9, 36, 0
1, 90360, Note_off_c, 9, 42, 0
1, 90360, Note_off_c, 4, 43, 0
1, 90480, Note_on_c, 5, 67, 100
1, 90480, Note_on_c, 9, 46, 100
1, 90600, Note_off_c, 9, 46, 0
1, 90640, Note_off_c, 5, 67, 0
1, 90640, Note_on_c, 5, 69, 100
1, 90720, Note_off_c, 5, 69, 0
1, 90720, Note_on_c, 5, 67, 100
1, 90720, Note_on_c, 9, 42, 100
1, 90840, Note_off_c, 9, 42, 0
1, 90880, Note_off_c, 5, 67, 0
1, 90880, Note_on_c, 6, 63, 100
1, 90880, Note_on_c, 4, 51, 100
1, 90880, Note_on_c, 5, 65, 100
1, 90880, Note_on_c, 6, 75, 100
1, 90880, Note_on_c, 9, 42, 100
1, 90880, Note_on_c, 9, 36, 100
1, 90880, Note_on_c, 6, 71, 100
1, 90880, Note_on_c, 7, 43, 100
1, 90960, Note_off_c, 5, 65, 0
1, 90960, Note_on_c, 9, 46, 100
1, 91000, Note_off_c, 9, 36, 0
1, 91000, Note_off_c, 9, 42, 0
1, 91080, Note_off_c, 9, 46, 0
1, 91120, Note_on_c, 5, 67, 100
1, 91200, Note_off_c, 7, 43, 0
1, 91200, Note_off_c, 6, 63, 0
1, 91200, Note_off_c, 6, 71, 0
1, 91200, Note_off_c, 4, 51, 0
1, 91200, Note_off_c, 5, 67, 0
1, 91200, Note_off_c, 6, 75, 0
1, 91200, Note_on_c, 4, 52, 100
1, 91200, Note_on_c, 6, 64, 100
1, 91200, Note_on_c, 9, 42, 100
1, 91200, Note_on_c, 6, 71, 100
1, 91200, Note_on_c, 7, 43, 100
1, 91200, Note_on_c, 6, 76, 100
1, 91200, Note_on_c, 9, 36, 100
1, 91240, Note_off_c, 6, 76, 0
1, 91240, Note_off_c, 7, 43, 0
1, 91240, Note_off_c, 6, 64, 0
1, 91240, Note_off_c, 6, 71, 0
1, 91320, Note_off_c, 4, 52, 0
1, 91320, Note_off_c, 9, 42, 0
1, 91320, Note_off_c, 9, 36, 0
1, 91360, Note_on_c, 9, 42, 100
1, 91440, Note_on_c, 9, 46, 100
1, 91480, Note_off_c, 9, 42, 0
1, 91560, Note_off_c, 9, 46, 0
1, 91680, Note_on_c, 9, 42, 100
1, 91800, Note_off_c, 9, 42, 0
1, 91840, Note_on_c, 4, 51, 100
1, 91840, Note_on_c, 6, 63, 100
1, 91840, Note_on_c, 9, 36, 100
1, 91840, Note_on_c, 9, 42, 100
1, 91840, Note_on_c, 6, 75, 100
1, 91840, Note_on_c, 6, 71, 100
1, 91840, Note_on_c, 5, 65, 100
1, 91840, Note_on_c, 7, 43, 100
1, 91920, Note_on_c, 9, 46, 100
1, 91960, Note_off_c, 9, 36, 0
1, 91960, Note_off_c, 9, 42, 0
1, 92040, Note_off_c, 9, 46, 0
1, 92160, Note_off_c, 6, 63, 0
1, 92160, Note_off_c, 5, 65, 0
1, 92160, Note_off_c, 6, 71, 0
1, 92160, Note_off_c, 7, 43, 0
1, 92160, Note_off_c, 4, 51, 0
1, 92160, Note_off_c, 6, 75, 0
1, 92160, Note_on_c, 6, 74, 100
1, 92160, Note_on_c, 9, 42, 100
1, 92160, Note_on_c, 6, 62, 100
1, 92160, Note_on_c, 9, 36, 100
1, 92160, Note_on_c, 6, 71, 100
1, 92160, Note_on_c, 5, 67, 100
1, 92160, Note_on_c, 4, 50, 100
1, 92160, Note_on_c, 7, 43, 100
1, 92240, Note_off_c, 6, 74, 0
1, 92240, Note_off_c, 6, 62, 0
1, 92240, Note_off_c, 6, 71, 0
1, 92240, Note_off_c, 5, 67, 0
1, 92280, Note_off_c, 9, 36, 0
1, 92280, Note_off_c, 7, 43, 0
1, 92280, Note_off_c, 9, 42, 0
1, 92400, Note_off_c, 4, 50, 0
1, 92400, Note_on_c, 5, 67, 100
1, 92400, Note_on_c, 4, 43, 100
1, 92400, Note_on_c, 9, 46, 100
1, 92520, Note_off_c, 9, 46, 0
1, 92560, Note_off_c, 5, 67, 0
1, 92560, Note_on_c, 5, 71, 100
1, 92640, Note_off_c, 5, 71, 0
1, 92640, Note_off_c, 4, 43, 0
1, 92640, Note_on_c, 4, 42, 100
1, 92640, Note_on_c, 7, 42, 100
1, 92640, Note_on_c, 6, 76, 100
1, 92640, Note_on_c, 9, 36, 100
1, 92640, Note_on_c, 6, 64, 100
1, 92640, Note_on_c, 6, 70, 100
1, 92640, Note_on_c, 5, 74, 100
1, 92640, Note_on_c, 9, 42, 100
1, 92760, Note_off_c, 9, 36, 0
1, 92760, Note_off_c, 9, 42, 0
1, 92800, Note_off_c, 7, 42, 0
1, 92800, Note_off_c, 4, 42, 0
1, 92800, Note_off_c, 5, 74, 0
1, 92800, Note_on_c, 9, 42, 100
1, 92800, Note_on_c, 5, 76, 100
1, 92800, Note_on_c, 7, 42, 100
1, 92800, Note_on_c, 4, 42, 100
1, 92880, Note_off_c, 5, 76, 0
1, 92880, Note_on_c, 9, 46, 100
1, 92920, Note_off_c, 9, 42, 0
1, 93000, Note_off_c, 9, 46, 0
1, 93040, Note_off_c, 6, 64, 0
1, 93040, Note_off_c, 7, 42, 0
1, 93040, Note_off_c, 6, 70, 0
1, 93040, Note_off_c, 4, 42, 0
1, 93040, Note_off_c, 6, 76, 0
1, 93040, Note_on_c, 7, 41, 100
1, 93040, Note_on_c, 5, 77, 100
1, 93040, Note_on_c, 9, 36, 100
1, 93040, Note_on_c, 4, 41, 100
1, 93040, Note_on_c, 6, 68, 100
1, 93040, Note_on_c, 6, 77, 100
1, 93040, Note_on_c, 6, 65, 100
1, 93120, Note_off_c, 5, 77, 0
1, 93120, Note_off_c, 7, 41, 0
1, 93120, Note_off_c, 6, 65, 0
1, 93120, Note_off_c, 4, 41, 0
1, 93120, Note_off_c, 6, 77, 0
1, 93120, Note_off_c, 6, 68, 0
1, 93120, Note_on_c, 9, 42, 100
1, 93160, Note_off_c, 9, 36, 0
1, 93240, Note_off_c, 9, 42, 0
1, 93600, Note_on_c, 8, 77, 120
1, 93600, Note_on_c, 9, 49, 100
1, 93600, Note_on_c, 9, 38, 100
1, 93600, Note_on_c, 8, 65, 120
1, 93720, Note_off_c, 9, 38, 0
1, 93720, Note_off_c, 9, 49, 0
1, 94080, Note_off_c, 8, 77, 0
1, 94080, Note_off_c, 8, 65, 0
1, 94080, Note_on_c, 6, 74, 100
1, 94080, Note_on_c, 9, 36, 100
1, 94080, Note_on_c, 9, 42, 100
1, 94080, Note_on_c, 4, 43, 100
1, 94080, Note_on_c, 5, 74, 100
1, 94080, Note_on_c, 7, 43, 100
1, 94080, Note_on_c, 6, 71, 100
1, 94080, Note_on_c, 6, 62, 100
1, 94120, Note_off_c, 5, 74, 0
1, 94120, Note_off_c, 7, 43, 0
1, 94120, Note_off_c, 6, 62, 0
1, 94120, Note_off_c, 6, 71, 0
1, 94120, Note_off_c, 6, 74, 0
1, 94200, Note_off_c, 9, 36, 0
1, 94200, Note_off_c, 9, 42, 0
1, 94200, Note_off_c, 4, 43, 0
1, 94320, Note_on_c, 9, 46, 100
1, 94440, Note_off_c, 9, 46, 0
1, 94560, Note_on_c, 9, 42, 100
1, 94680, Note_off_c, 9, 42, 0
1, 94720, Note_on_c, 6, 63, 100
1, 94720, Note_on_c, 6, 71, 100
1, 94720, Note_on_c, 6, 75, 100
1, 94720, Note_on_c, 9, 36, 100
1, 94720, Note_on_c, 5, 71, 100
1, 94720, Note_on_c, 4, 51, 100
1, 94720, Note_on_c, 9, 42, 100
1, 94720, Note_on_c, 7, 43, 100
1, 94800, Note_off_c, 5, 71, 0
1, 94800, Note_on_c, 5, 67, 100
1, 94800, Note_on_c, 9, 46, 100
1, 94840, Note_off_c, 9, 36, 0
1, 94840, Note_off_c, 9, 42, 0
1, 94920, Note_off_c, 9, 46, 0
1, 95040, Note_off_c, 7, 43, 0
1, 95040, Note_off_c, 6, 71, 0
1, 95040, Note_off_c, 6, 75, 0
1, 95040, Note_off_c, 4, 51, 0
1, 95040, Note_off_c, 5, 67, 0
1, 95040, Note_off_c, 6, 63, 0
1, 95040, Note_on_c, 6, 64, 100
1, 95040, Note_on_c, 6, 71, 100
1, 95040, Note_on_c, 6, 76, 100
1, 95040, Note_on_c, 9, 42, 100
1, 95040, Note_on_c, 7, 43, 100
1, 95040, Note_on_c, 9, 36, 100
1, 95040, Note_on_c, 5, 64, 100
1, 95040, Note_on_c, 4, 52, 100
1, 95080, Note_off_c, 6, 71, 0
1, 95080, Note_off_c, 7, 43, 0
1, 95080, Note_off_c, 6, 64, 0
1, 95080, Note_off_c, 5, 64, 0
1, 95080, Note_off_c, 6, 76, 0
1, 95160, Note_off_c, 9, 36, 0
1, 95160, Note_off_c, 4, 52, 0
1, 95160, Note_off_c, 9, 42, 0
1, 95200, Note_on_c, 9, 42, 100
1, 95280, Note_on_c, 9, 46, 100
1, 95280, Note_on_c, 5, 74, 100
1, 95320, Note_off_c, 5, 74, 0
1, 95320, Note_off_c, 9, 42, 0
1, 95400, Note_off_c, 9, 46, 0
1, 95520, Note_on_c, 5, 71, 100
1, 95520, Note_on_c, 9, 42, 100
1, 95560, Note_off_c, 5, 71, 0
1, 95640, Note_off_c, 9, 42, 0
1, 95680, Note_on_c, 6, 63, 100
1, 95680, Note_on_c, 6, 75, 100
1, 95680, Note_on_c, 9, 36, 100
1, 95680, Note_on_c, 9, 42, 100
1, 95680, Note_on_c, 7, 43, 100
1, 95680, Note_on_c, 4, 51, 100
1, 95680, Note_on_c, 6, 71, 100
1, 95760, Note_on_c, 5, 67, 100
1, 95760, Note_on_c, 9, 46, 100
1, 95800, Note_off_c, 9, 36, 0
1, 95800, Note_off_c, 9, 42, 0
1, 95800, Note_off_c, 5, 67, 0
1, 95880, Note_off_c, 9, 46, 0
1, 96000, Note_off_c, 7, 43, 0
1, 96000, Note_off_c, 6, 75, 0
1, 96000, Note_off_c, 6, 63, 0
1, 96000, Note_off_c, 6, 71, 0
1, 96000, Note_off_c, 4, 51, 0
1, 96000, Note_on_c, 6, 74, 100
1, 96000, Note_on_c, 4, 50, 100
1, 96000, Note_on_c, 6, 62, 100
1, 96000, Note_on_c, 6, 71, 100
1, 96000, Note_on_c, 9, 42, 100
1, 96000, Note_on_c, 5, 71, 100
1, 96000, Note_on_c, 9, 36, 100
1, 96000, Note_on_c, 7, 43, 100
1, 96040, Note_off_c, 6, 74, 0
1, 96040, Note_off_c, 7, 43, 0
1, 96040, Note_off_c, 6, 71, 0
1, 96040, Note_off_c, 6, 62, 0
1, 96080, Note_off_c, 5, 71, 0
1, 96120, Note_off_c, 9, 36, 0
1, 96120, Note_off_c, 9, 42, 0
1, 96240, Note_off_c, 4, 50, 0
1, 96240, Note_on_c, 6, 74, 100
1, 96240, Note_on_c, 9, 46, 100
1, 96240, Note_on_c, 4, 46, 100
1, 96240, Note_on_c, 7, 43, 100
1, 96240, Note_on_c, 6, 71, 100
1, 96240, Note_on_c, 6, 62, 100
1, 96280, Note_off_c, 7, 43, 0
1, 96280, Note_off_c, 6, 71, 0
1, 96280, Note_off_c, 6, 62, 0
1, 96280, Note_off_c, 6, 74, 0
1, 96360, Note_off_c, 9, 46, 0
1, 96480, Note_off_c, 4, 46, 0
1, 96480, Note_on_c, 6, 75, 100
1, 96480, Note_on_c, 9, 42, 100
1, 96480, Note_on_c, 7, 43, 100
1, 96480, Note_on_c, 4, 47, 100
1, 96480, Note_on_c, 9, 36, 100
1, 96480, Note_on_c, 6, 71, 100
1, 96480, Note_on_c, 5, 67, 100
1, 96480, Note_on_c, 6, 63, 100
1, 96560, Note_off_c, 5, 67, 0
1, 96600, Note_off_c, 9, 36, 0
1, 96600, Note_off_c, 9, 42, 0
1, 96640, Note_off_c, 6, 63, 0
1, 96640, Note_off_c, 6, 75, 0
1, 96640, Note_off_c, 6, 71, 0
1, 96640, Note_off_c, 7, 43, 0
1, 96640, Note_on_c, 6, 71, 100
1, 96640, Note_on_c, 6, 62, 100
1, 96640, Note_on_c, 6, 74, 100
1, 96640, Note_on_c, 9, 42, 100
1, 96640, Note_on_c, 7, 43, 100
1, 96720, Note_off_c, 6, 74, 0
1, 96720, Note_off_c, 7, 43, 0
1, 96720, Note_off_c, 6, 62, 0
1, 96720, Note_off_c, 6, 71, 0
1, 96720, Note_off_c, 4, 47, 0
1, 96720, Note_on_c, 6, 75, 100
1, 96720, Note_on_c, 7, 43, 100
1, 96720, Note_on_c, 9, 46, 100
1, 96720, Note_on_c, 6, 63, 100
1, 96720, Note_on_c, 4, 40, 100
1, 96720, Note_on_c, 6, 71, 100
1, 96760, Note_off_c, 9, 42, 0
1, 96840, Note_off_c, 9, 46, 0
1, 96880, Note_off_c, 4, 40, 0
1, 96880, Note_off_c, 6, 63, 0
1, 96880, Note_off_c, 7, 43, 0
1, 96880, Note_off_c, 6, 75, 0
1, 96880, Note_off_c, 6, 71, 0
1, 96880, Note_on_c, 6, 76, 100
1, 96880, Note_on_c, 7, 43, 100
1, 96880, Note_on_c, 6, 64, 100
1, 96880, Note_on_c, 6, 71, 100
1, 96880, Note_on_c, 4, 43, 100
1, 96880, Note_on_c, 5, 71, 100
1, 96880, Note_on_c, 9, 36, 100
1, 96960, Note_off_c, 6, 76, 0
1, 96960, Note_off_c, 7, 43, 0
1, 96960, Note_off_c, 5, 71, 0
1, 96960, Note_off_c, 6, 64, 0
1, 96960, Note_off_c, 6, 71, 0
1, 96960, Note_off_c, 4, 43, 0
1, 96960, Note_on_c, 9, 42, 100
1, 97000, Note_off_c, 9, 36, 0
1, 97080, Note_off_c, 9, 42, 0
1, 97120, Note_on_c, 9, 42, 100
1, 97200, Note_on_c, 9, 46, 100
1, 97240, Note_off_c, 9, 42, 0
1, 97320, Note_off_c, 9, 46, 0
1, 97440, Note_on_c, 9, 42, 100
1, 97560, Note_off_c, 9, 42, 0
1, 97600, Note_on_c, 7, 43, 100
1, 97600, Note_on_c, 9, 42, 100
1, 97600, Note_on_c, 5, 69, 100
1, 97600, Note_on_c, 4, 43, 100
1, 97600, Note_on_c, 9, 36, 100
1, 97600, Note_on_c, 6, 71, 100
1, 97600, Note_on_c, 6, 75, 100
1, 97600, Note_on_c, 6, 63, 100
1, 97680, Note_on_c, 9, 46, 100
1, 97720, Note_off_c, 9, 36, 0
1, 97720, Note_off_c, 9, 42, 0
1, 97800, Note_off_c, 9, 46, 0
1, 97920, Note_off_c, 7, 43, 0
1, 97920, Note_off_c, 5, 69, 0
1, 97920, Note_off_c, 6, 71, 0
1, 97920, Note_off_c, 6, 63, 0
1, 97920, Note_off_c, 4, 43, 0
1, 97920, Note_off_c, 6, 75, 0
1, 97920, Note_on_c, 6, 74, 100
1, 97920, Note_on_c, 9, 36, 100
1, 97920, Note_on_c, 9, 42, 100
1, 97920, Note_on_c, 7, 43, 100
1, 97920, Note_on_c, 6, 71, 100
1, 97920, Note_on_c, 4, 43, 100
1, 97920, Note_on_c, 5, 67, 100
1, 97920, Note_on_c, 6, 62, 100
1, 97960, Note_off_c, 6, 71, 0
1, 97960, Note_off_c, 7, 43, 0
1, 97960, Note_off_c, 6, 62, 0
1, 97960, Note_off_c, 6, 74, 0
1, 98000, Note_off_c, 5, 67, 0
1, 98040, Note_off_c, 9, 36, 0
1, 98040, Note_off_c, 4, 43, 0
1, 98040, Note_off_c, 9, 42, 0
1, 98160, Note_on_c, 5, 67, 100
1, 98160, Note_on_c, 9, 46, 100
1, 98280, Note_off_c, 9, 46, 0
1, 98320, Note_off_c, 5, 67, 0
1, 98320, Note_on_c, 5, 69, 100
1, 98400, Note_off_c, 5, 69, 0
1, 98400, Note_on_c, 5, 67, 100
1, 98400, Note_on_c, 9, 42, 100
1, 98520, Note_off_c, 9, 42, 0
1, 98560, Note_off_c, 5, 67, 0
1, 98560, Note_on_c, 5, 65, 100
1, 98560, Note_on_c, 6, 75, 100
1, 98560, Note_on_c, 4, 51, 100
1, 98560, Note_on_c, 9, 36, 100
1, 98560, Note_on_c, 6, 71, 100
1, 98560, Note_on_c, 6, 63, 100
1, 98560, Note_on_c, 7, 43, 100
1, 98560, Note_on_c, 9, 42, 100
1, 98640, Note_off_c, 5, 65, 0
1, 98640, Note_on_c, 9, 46, 100
1, 98680, Note_off_c, 9, 42, 0
1, 98680, Note_off_c, 9, 36, 0
1, 98760, Note_off_c, 9, 46, 0
1, 98800, Note_on_c, 5, 67, 100
1, 98880, Note_off_c, 5, 67, 0
1, 98880, Note_off_c, 6, 71, 0
1, 98880, Note_off_c, 6, 75, 0
1, 98880, Note_off_c, 4, 51, 0
1, 98880, Note_off_c, 6, 63, 0
1, 98880, Note_off_c, 7, 43, 0
1, 98880, Note_on_c, 6, 76, 100
1, 98880, Note_on_c, 4, 52, 100
1, 98880, Note_on_c, 9, 36, 100
1, 98880, Note_on_c, 9, 42, 100
1, 98880, Note_on_c, 6, 64, 100
1, 98880, Note_on_c, 6, 71, 100
1, 98880, Note_on_c, 7, 43, 100
1, 98920, Note_off_c, 6, 71, 0
1, 98920, Note_off_c, 6, 76, 0
1, 98920, Note_off_c, 7, 43, 0
1, 98920, Note_off_c, 6, 64, 0
1, 99000, Note_off_c, 9, 42, 0
1, 99000, Note_off_c, 4, 52, 0
1, 99000, Note_off_c, 9, 36, 0
1, 99040, Note_on_c, 9, 42, 100
1, 99120, Note_on_c, 9, 46, 100
1, 99160, Note_off_c, 9, 42, 0
1, 99240, Note_off_c, 9, 46, 0
1, 99360, Note_on_c, 9, 42, 100
1, 99480, Note_off_c, 9, 42, 0
1, 99520, Note_on_c, 10, 65, 80
1, 99520, Note_on_c, 6, 63, 100
1, 99520, Note_on_c, 9, 36, 100
1, 99520, Note_on_c, 10, 77, 80
1, 99520, Note_on_c, 9, 42, 100
1, 99520, Note_on_c, 5, 65, 100
1, 99520, Note_on_c, 6, 71, 100
1, 99520, Note_on_c, 7, 43, 100
1, 99520, Note_on_c, 4, 51, 100
1, 99520, Note_on_c, 6, 75, 100
1, 99600, Note_off_c, 10, 77, 0
1, 99600, Note_off_c, 10, 65, 0
1, 99600, Note_on_c, 9, 46, 100
1, 99600, Note_on_c, 10, 79, 80
1, 99600, Note_on_c, 10, 67, 80
1, 99640, Note_off_c, 9, 42, 0
1, 99640, Note_off_c, 9, 36, 0
1, 99640, Note_off_c, 10, 67, 0
1, 99640, Note_off_c, 10, 79, 0
1, 99640, Note_on_c, 10, 81, 80
1, 99640, Note_on_c, 10, 69, 80
1, 99680, Note_off_c, 10, 69, 0
1, 99680, Note_off_c, 10, 81, 0
1, 99680, Note_on_c, 10, 83, 80
1, 99680, Note_on_c, 10, 71, 80
1, 99720, Note_off_c, 10, 83, 0
1, 99720, Note_off_c, 10, 71, 0
1, 99720, Note_off_c, 9, 46, 0
1, 99720, Note_on_c, 10, 72, 80
1, 99720, Note_on_c, 10, 84, 80
1, 99760, Note_off_c, 10, 84, 0
1, 99760, Note_off_c, 10, 72, 0
1, 99760, Note_on_c, 10, 86, 80
1, 99760, Note_on_c, 10, 74, 80
1, 99800, Note_off_c, 10, 74, 0
1, 99800, Note_off_c, 10, 86, 0
1, 99800, Note_on_c, 10, 76, 80
1, 99800, Note_on_c, 10, 88, 80
1, 99840, Note_off_c, 5, 65, 0
1, 99840, Note_off_c, 6, 63, 0
1, 99840, Note_off_c, 4, 51, 0
1, 99840, Note_off_c, 6, 71, 0
1, 99840, Note_off_c, 6, 75, 0
1, 99840, Note_off_c, 10, 88, 0
1, 99840, Note_off_c, 7, 43, 0
1, 99840, Note_off_c, 10, 76, 0
1, 99840, Note_on_c, 9, 45, 100
1, 99840, Note_on_c, 10, 79, 100
1, 99840, Note_on_c, 10, 88, 100
1, 99840, Note_on_c, 10, 91, 100
1, 99840, Note_on_c, 4, 52, 100
1, 99840, Note_on_c, 10, 76, 100
1, 99840, Note_on_c, 7, 67, 120
1, 99840, Note_on_c, 5, 67, 100
1, 99920, Note_off_c, 5, 67, 0
1, 99960, Note_off_c, 9, 45, 0
1, 100080, Note_off_c, 4, 52, 0
1, 100080, Note_on_c, 4, 44, 100
1, 100080, Note_on_c, 9, 36, 100
1, 100080, Note_on_c, 5, 67, 100
1, 100080, Note_on_c, 6, 71, 100
1, 100080, Note_on_c, 6, 76, 100
1, 100080, Note_on_c, 9, 42, 100
1, 100200, Note_off_c, 9, 42, 0
1, 100200, Note_off_c, 10, 79, 0
1, 100200, Note_off_c, 10, 88, 0
1, 100200, Note_off_c, 10, 91, 0
1, 100200, Note_off_c, 7, 67, 0
1, 100200, Note_off_c, 10, 76, 0
1, 100200, Note_off_c, 9, 36, 0
1, 100240, Note_off_c, 5, 67, 0
1, 100240, Note_on_c, 10, 88, 100
1, 100240, Note_on_c, 10, 76, 100
1, 100240, Note_on_c, 9, 48, 100
1, 100240, Note_on_c, 7, 69, 120
1, 100240, Note_on_c, 10, 93, 100
1, 100240, Note_on_c, 10, 81, 100
1, 100240, Note_on_c, 5, 71, 100
1, 100320, Note_off_c, 6, 71, 0
1, 100320, Note_off_c, 4, 44, 0
1, 100320, Note_off_c, 6, 76, 0
1, 100320, Note_off_c, 5, 71, 0
1, 100320, Note_on_c, 5, 74, 100
1, 100320, Note_on_c, 4, 45, 100
1, 100360, Note_off_c, 9, 48, 0
1, 100480, Note_off_c, 10, 81, 0
1, 100480, Note_off_c, 7, 69, 0
1, 100480, Note_off_c, 5, 74, 0
1, 100480, Note_off_c, 10, 88, 0
1, 100480, Note_off_c, 10, 93, 0
1, 100480, Note_off_c, 10, 76, 0
1, 100480, Note_on_c, 9, 36, 100
1, 100480, Note_on_c, 5, 76, 100
1, 100480, Note_on_c, 6, 71, 100
1, 100480, Note_on_c, 6, 76, 100
1, 100560, Note_off_c, 4, 45, 0
1, 100560, Note_off_c, 5, 76, 0
1, 100560, Note_off_c, 6, 71, 0
1, 100560, Note_off_c, 6, 76, 0
1, 100560, Note_on_c, 10, 76, 100
1, 100560, Note_on_c, 10, 88, 100
1, 100560, Note_on_c, 10, 91, 100
1, 100560, Note_on_c, 9, 43, 100
1, 100560, Note_on_c, 10, 79, 100
1, 100560, Note_on_c, 4, 49, 100
1, 100560, Note_on_c, 9, 42, 100
1, 100560, Note_on_c, 7, 67, 120
1, 100600, Note_off_c, 9, 36, 0
1, 100680, Note_off_c, 9, 42, 0
1, 100680, Note_off_c, 9, 43, 0
1, 100720, Note_on_c, 5, 77, 100
1, 100800, Note_off_c, 4, 49, 0
1, 100800, Note_off_c, 10, 76, 0
1, 100800, Note_off_c, 10, 79, 0
1, 100800, Note_off_c, 10, 88, 0
1, 100800, Note_off_c, 7, 67, 0
1, 100800, Note_off_c, 5, 77, 0
1, 100800, Note_off_c, 10, 91, 0
1, 100800, Note_on_c, 7, 65, 120
1, 100800, Note_on_c, 10, 74, 100
1, 100800, Note_on_c, 10, 86, 100
1, 100800, Note_on_c, 4, 50, 100
1, 100800, Note_on_c, 10, 77, 100
1, 100800, Note_on_c, 9, 36, 100
1, 100800, Note_on_c, 10, 89, 100
1, 100920, Note_off_c, 9, 36, 0
1, 100960, Note_on_c, 9, 48, 100
1, 101040, Note_off_c, 4, 50, 0
1, 101040, Note_on_c, 4, 42, 100
1, 101040, Note_on_c, 6, 71, 100
1, 101040, Note_on_c, 6, 74, 100
1, 101040, Note_on_c, 9, 42, 100
1, 101080, Note_off_c, 9, 48, 0
1, 101160, Note_off_c, 10, 77, 0
1, 101160, Note_off_c, 10, 89, 0
1, 101160, Note_off_c, 7, 65, 0
1, 101160, Note_off_c, 10, 74, 0
1, 101160, Note_off_c, 10, 86, 0
1, 101160, Note_off_c, 9, 42, 0
1, 101200, Note_on_c, 10, 91, 100
1, 101200, Note_on_c, 7, 67, 120
1, 101200, Note_on_c, 10, 86, 100
1, 101200, Note_on_c, 10, 74, 100
1, 101200, Note_on_c, 9, 36, 100
1, 101200, Note_on_c, 10, 79, 100
1, 101280, Note_off_c, 4, 42, 0
1, 101280, Note_off_c, 6, 71, 0
1, 101280, Note_off_c, 6, 74, 0
1, 101280, Note_on_c, 9, 43, 100
1, 101280, Note_on_c, 4, 43, 100
1, 101320, Note_off_c, 9, 36, 0
1, 101400, Note_off_c, 9, 43, 0
1, 101440, Note_off_c, 10, 79, 0
1, 101440, Note_off_c, 7, 67, 0
1, 101440, Note_off_c, 10, 86, 0
1, 101440, Note_off_c, 10, 91, 0
1, 101440, Note_off_c, 10, 74, 0
1, 101440, Note_on_c, 6, 71, 100
1, 101440, Note_on_c, 6, 74, 100
1, 101520, Note_off_c, 4, 43, 0
1, 101520, Note_off_c, 6, 74, 0
1, 101520, Note_off_c, 6, 71, 0
1, 101520, Note_on_c, 10, 86, 100
1, 101520, Note_on_c, 10, 77, 100
1, 101520, Note_on_c, 10, 89, 100
1, 101520, Note_on_c, 9, 55, 100
1, 101520, Note_on_c, 10, 74, 100
1, 101520, Note_on_c, 9, 42, 100
1, 101520, Note_on_c, 4, 38, 100
1, 101520, Note_on_c, 9, 38, 90
1, 101520, Note_on_c, 7, 65, 120
1, 101560, Note_on_c, 9, 38, 90
1, 101640, Note_off_c, 9, 38, 0
1, 101640, Note_off_c, 9, 42, 0
1, 101640, Note_off_c, 9, 55, 0
1, 101640, Note_on_c, 9, 38, 90
1, 101680, Note_off_c, 9, 38, 0
1, 101680, Note_on_c, 9, 38, 90
1, 101760, Note_off_c, 10, 77, 0
1, 101760, Note_off_c, 10, 86, 0
1, 101760, Note_off_c, 7, 65, 0
1, 101760, Note_off_c, 10, 74, 0
1, 101760, Note_off_c, 10, 89, 0
1, 101760, Note_off_c, 4, 38, 0
1, 101760, Note_off_c, 9, 38, 0
1, 101760, Note_on_c, 10, 88, 80
1, 101760, Note_on_c, 9, 53, 110
1, 101760, Note_on_c, 6, 55, 100
1, 101760, Note_on_c, 6, 60, 100
1, 101760, Note_on_c, 10, 79, 80
1, 101760, Note_on_c, 10, 84, 80
1, 101760, Note_on_c, 6, 64, 100
1, 101760, Note_on_c, 6, 67, 100
1, 101760, Note_on_c, 4, 36, 100
1, 101760, Note_on_c, 9, 36, 100
1, 101760, Note_on_c, 12, 76, 100
1, 101760, Note_on_c, 11, 76, 100
1, 101800, Note_off_c, 9, 38, 0
1, 101840, Note_off_c, 12, 76, 0
1, 101840, Note_off_c, 11, 76, 0
1, 101880, Note_off_c, 9, 36, 0
1, 101880, Note_off_c, 9, 53, 0
1, 102000, Note_off_c, 4, 36, 0
1, 102000, Note_on_c, 9, 53, 100
1, 102000, Note_on_c, 4, 43, 100
1, 102120, Note_off_c, 9, 53, 0
1, 102160, Note_on_c, 9, 53, 100
1, 102240, Note_off_c, 4, 43, 0
1, 102240, Note_on_c, 4, 48, 100
1, 102240, Note_on_c, 9, 53, 110
1, 102280, Note_off_c, 9, 53, 0
1, 102360, Note_off_c, 9, 53, 0
1, 102400, Note_on_c, 11, 72, 100
1, 102400, Note_on_c, 12, 72, 100
1, 102480, Note_off_c, 4, 48, 0
1, 102480, Note_off_c, 11, 72, 0
1, 102480, Note_off_c, 12, 72, 0
1, 102480, Note_on_c, 4, 47, 100
1, 102480, Note_on_c, 11, 69, 100
1, 102480, Note_on_c, 12, 69, 100
1, 102480, Note_on_c, 9, 53, 100
1, 102600, Note_off_c, 9, 53, 0
1, 102640, Note_off_c, 4, 47, 0
1, 102640, Note_off_c, 12, 69, 0
1, 102640, Note_off_c, 11, 69, 0
1, 102640, Note_on_c, 12, 66, 100
1, 102640, Note_on_c, 4, 46, 100
1, 102640, Note_on_c, 9, 53, 100
1, 102640, Note_on_c, 11, 66, 100
1, 102720, Note_off_c, 11, 66, 0
1, 102720, Note_off_c, 6, 67, 0
1, 102720, Note_off_c, 6, 55, 0
1, 102720, Note_off_c, 4, 46, 0
1, 102720, Note_off_c, 6, 60, 0
1, 102720, Note_off_c, 6, 64, 0
1, 102720, Note_off_c, 12, 66, 0
1, 102720, Note_on_c, 4, 45, 100
1, 102720, Note_on_c, 9, 53, 110
1, 102760, Note_off_c, 9, 53, 0
1, 102840, Note_off_c, 9, 53, 0
1, 102880, Note_on_c, 6, 64, 100
1, 102880, Note_on_c, 9, 36, 100
1, 102880, Note_on_c, 6, 54, 100
1, 102880, Note_on_c, 6, 66, 100
1, 102880, Note_on_c, 6, 57, 100
1, 102880, Note_on_c, 6, 60, 100
1, 102960, Note_off_c, 4, 45, 0
1, 102960, Note_off_c, 6, 57, 0
1, 102960, Note_off_c, 6, 60, 0
1, 102960, Note_off_c, 6, 54, 0
1, 102960, Note_off_c, 6, 66, 0
1, 102960, Note_off_c, 6, 64, 0
1, 102960, Note_on_c, 9, 53, 100
1, 102960, Note_on_c, 4, 50, 100
1, 103000, Note_off_c, 9, 36, 0
1, 103080, Note_off_c, 9, 53, 0
1, 103120, Note_on_c, 9, 53, 100
1, 103200, Note_off_c, 4, 50, 0
1, 103200, Note_on_c, 6, 64, 100
1, 103200, Note_on_c, 6, 66, 100
1, 103200, Note_on_c, 6, 54, 100
1, 103200, Note_on_c, 9, 36, 100
1, 103200, Note_on_c, 6, 60, 100
1, 103200, Note_on_c, 6, 57, 100
1, 103200, Note_on_c, 4, 38, 100
1, 103240, Note_off_c, 9, 53, 0
1, 103320, Note_off_c, 9, 36, 0
1, 103360, Note_on_c, 11, 69, 100
1, 103360, Note_on_c, 9, 53, 110
1, 103360, Note_on_c, 12, 69, 100
1, 103440, Note_off_c, 4, 38, 0
1, 103440, Note_off_c, 12, 69, 0
1, 103440, Note_off_c, 11, 69, 0
1, 103440, Note_on_c, 9, 53, 100
1, 103440, Note_on_c, 11, 72, 100
1, 103440, Note_on_c, 12, 72, 100
1, 103440, Note_on_c, 4, 40, 100
1, 103480, Note_off_c, 9, 53, 0
1, 103560, Note_off_c, 9, 53, 0
1, 103600, Note_off_c, 11, 72, 0
1, 103600, Note_off_c, 4, 40, 0
1, 103600, Note_off_c, 12, 72, 0
1, 103600, Note_on_c, 11, 76, 100
1, 103600, Note_on_c, 12, 76, 100
1, 103600, Note_on_c, 4, 42, 100
1, 103680, Note_off_c, 12, 76, 0
1, 103680, Note_off_c, 6, 54, 0
1, 103680, Note_off_c, 6, 57, 0
1, 103680, Note_off_c, 6, 60, 0
1, 103680, Note_off_c, 10, 88, 0
1, 103680, Note_off_c, 10, 79, 0
1, 103680, Note_off_c, 6, 64, 0
1, 103680, Note_off_c, 4, 42, 0
1, 103680, Note_off_c, 6, 66, 0
1, 103680, Note_off_c, 10, 84, 0
1, 103680, Note_off_c, 11, 76, 0
1, 103680, Note_on_c, 10, 83, 80
1, 103680, Note_on_c, 10, 86, 80
1, 103680, Note_on_c, 12, 74, 100
1, 103680, Note_on_c, 9, 53, 110
1, 103680, Note_on_c, 9, 36, 100
1, 103680, Note_on_c, 6, 71, 100
1, 103680, Note_on_c, 10, 79, 80
1, 103680, Note_on_c, 4, 43, 100
1, 103680, Note_on_c, 11, 74, 100
1, 103720, Note_off_c, 12, 74, 0
1, 103720, Note_off_c, 11, 74, 0
1, 103720, Note_on_c, 12, 76, 100
1, 103720, Note_on_c, 11, 76, 100
1, 103800, Note_off_c, 11, 76, 0
1, 103800, Note_off_c, 9, 53, 0
1, 103800, Note_off_c, 12, 76, 0
1, 103800, Note_off_c, 9, 36, 0
1, 103800, Note_on_c, 12, 74, 100
1, 103800, Note_on_c, 11, 74, 100
1, 103840, Note_off_c, 11, 74, 0
1, 103840, Note_off_c, 6, 71, 0
1, 103840, Note_off_c, 12, 74, 0
1, 103840, Note_on_c, 12, 71, 100
1, 103840, Note_on_c, 6, 66, 100
1, 103840, Note_on_c, 11, 71, 100
1, 103920, Note_off_c, 4, 43, 0
1, 103920, Note_off_c, 6, 66, 0
1, 103920, Note_off_c, 12, 71, 0
1, 103920, Note_off_c, 11, 71, 0
1, 103920, Note_on_c, 9, 53, 100
1, 103920, Note_on_c, 12, 72, 100
1, 103920, Note_on_c, 11, 72, 100
1, 103920, Note_on_c, 6, 67, 100
1, 103920, Note_on_c, 4, 50, 100
1, 104040, Note_off_c, 9, 53, 0
1, 104080, Note_off_c, 12, 72, 0
1, 104080, Note_off_c, 6, 67, 0
1, 104080, Note_off_c, 11, 72, 0
1, 104080, Note_on_c, 9, 53, 100
1, 104080, Note_on_c, 6, 72, 100
1, 104080, Note_on_c, 12, 73, 100
1, 104080, Note_on_c, 11, 73, 100
1, 104160, Note_off_c, 11, 73, 0
1, 104160, Note_off_c, 6, 72, 0
1, 104160, Note_off_c, 4, 50, 0
1, 104160, Note_off_c, 12, 73, 0
1, 104160, Note_on_c, 12, 74, 100
1, 104160, Note_on_c, 9, 53, 110
1, 104160, Note_on_c, 4, 55, 100
1, 104160, Note_on_c, 6, 71, 100
1, 104160, Note_on_c, 11, 74, 100
1, 104200, Note_off_c, 9, 53, 0
1, 104280, Note_off_c, 9, 53, 0
1, 104320, Note_off_c, 11, 74, 0
1, 104320, Note_off_c, 12, 74, 0
1, 104320, Note_off_c, 6, 71, 0
1, 104320, Note_on_c, 12, 79, 100
1, 104320, Note_on_c, 11, 79, 100
1, 104320, Note_on_c, 6, 67, 100
1, 104400, Note_off_c, 4, 55, 0
1, 104400, Note_off_c, 12, 79, 0
1, 104400, Note_off_c, 11, 79, 0
1, 104400, Note_on_c, 6, 69, 100
1, 104400, Note_on_c, 6, 62, 100
1, 104400, Note_on_c, 4, 47, 100
1, 104400, Note_on_c, 9, 53, 100
1, 104520, Note_off_c, 9, 53, 0
1, 104560, Note_off_c, 6, 69, 0
1, 104560, Note_off_c, 6, 67, 0
1, 104560, Note_off_c, 6, 62, 0
1, 104560, Note_on_c, 12, 74, 100
1, 104560, Note_on_c, 11, 74, 100
1, 104560, Note_on_c, 9, 53, 100
1, 104560, Note_on_c, 6, 67, 100
1, 104640, Note_off_c, 6, 67, 0
1, 104640, Note_off_c, 4, 47, 0
1, 104640, Note_on_c, 6, 66, 100
1, 104640, Note_on_c, 6, 62, 100
1, 104640, Note_on_c, 9, 36, 100
1, 104640, Note_on_c, 9, 53, 110
1, 104640, Note_on_c, 4, 50, 100
1, 104680, Note_off_c, 9, 53, 0
1, 104760, Note_off_c, 9, 53, 0
1, 104760, Note_off_c, 9, 36, 0
1, 104800, Note_off_c, 6, 66, 0
1, 104800, Note_off_c, 6, 62, 0
1, 104800, Note_on_c, 6, 66, 100
1, 104800, Note_on_c, 6, 62, 100
1, 104880, Note_off_c, 4, 50, 0
1, 104880, Note_off_c, 6, 62, 0
1, 104880, Note_off_c, 6, 66, 0
1, 104880, Note_on_c, 6, 76, 100
1, 104880, Note_on_c, 6, 72, 100
1, 104880, Note_on_c, 4, 54, 100
1, 104880, Note_on_c, 9, 36, 100
1, 104880, Note_on_c, 9, 53, 100
1, 105000, Note_off_c, 9, 53, 0
1, 105000, Note_off_c, 9, 36, 0
1, 105040, Note_off_c, 6, 76, 0
1, 105040, Note_off_c, 6, 72, 0
1, 105040, Note_on_c, 6, 71, 100
1, 105040, Note_on_c, 9, 53, 100
1, 105040, Note_on_c, 6, 74, 100
1, 105120, Note_off_c, 4, 54, 0
1, 105120, Note_on_c, 4, 43, 100
1, 105160, Note_off_c, 9, 53, 0
1, 105280, Note_off_c, 6, 74, 0
1, 105280, Note_off_c, 6, 71, 0
1, 105280, Note_on_c, 6, 66, 100
1, 105280, Note_on_c, 9, 36, 100
1, 105280, Note_on_c, 9, 53, 110
1, 105360, Note_off_c, 6, 66, 0
1, 105360, Note_off_c, 12, 74, 0
1, 105360, Note_off_c, 4, 43, 0
1, 105360, Note_off_c, 11, 74, 0
1, 105360, Note_on_c, 6, 71, 100
1, 105360, Note_on_c, 9, 53, 100
1, 105360, Note_on_c, 4, 47, 100
1, 105400, Note_off_c, 9, 53, 0
1, 105400, Note_off_c, 9, 36, 0
1, 105480, Note_off_c, 9, 53, 0
1, 105520, Note_off_c, 6, 71, 0
1, 105520, Note_on_c, 6, 66, 100
1, 105520, Note_on_c, 9, 36, 100
1, 105600, Note_off_c, 10, 79, 0
1, 105600, Note_off_c, 4, 47, 0
1, 105600, Note_off_c, 10, 83, 0
1, 105600, Note_off_c, 10, 86, 0
1, 105600, Note_off_c, 6, 66, 0
1, 105600, Note_on_c, 10, 84, 80
1, 105600, Note_on_c, 4, 48, 100
1, 105600, Note_on_c, 10, 76, 80
1, 105600, Note_on_c, 9, 36, 100
1, 105600, Note_on_c, 10, 79, 80
1, 105600, Note_on_c, 6, 67, 100
1, 105600, Note_on_c, 12, 72, 100
1, 105600, Note_on_c, 11, 72, 100
1, 105640, Note_off_c, 9, 36, 0
1, 105680, Note_off_c, 11, 72, 0
1, 105680, Note_off_c, 6, 67, 0
1, 105680, Note_off_c, 12, 72, 0
1, 105720, Note_off_c, 9, 36, 0
1, 105760, Note_on_c, 6, 69, 100
1, 105760, Note_on_c, 9, 38, 100
1, 105840, Note_off_c, 6, 69, 0
1, 105840, Note_off_c, 4, 48, 0
1, 105840, Note_on_c, 9, 42, 100
1, 105840, Note_on_c, 4, 36, 100
1, 105840, Note_on_c, 9, 43, 100
1, 105880, Note_off_c, 9, 38, 0
1, 105960, Note_off_c, 9, 42, 0
1, 105960, Note_off_c, 9, 43, 0
1, 106000, Note_on_c, 9, 41, 100
1, 106080, Note_off_c, 10, 84, 0
1, 106080, Note_off_c, 4, 36, 0
1, 106080, Note_on_c, 10, 85, 80
1, 106080, Note_on_c, 6, 73, 100
1, 106080, Note_on_c, 9, 36, 100
1, 106080, Note_on_c, 4, 37, 100
1, 106080, Note_on_c, 6, 64, 100
1, 106080, Note_on_c, 6, 67, 100
1, 106120, Note_off_c, 9, 41, 0
1, 106160, Note_off_c, 6, 73, 0
1, 106160, Note_off_c, 6, 64, 0
1, 106160, Note_off_c, 6, 67, 0
1, 106200, Note_off_c, 9, 36, 0
1, 106240, Note_on_c, 11, 69, 100
1, 106240, Note_on_c, 12, 69, 100
1, 106320, Note_off_c, 4, 37, 0
1, 106320, Note_off_c, 11, 69, 0
1, 106320, Note_off_c, 12, 69, 0
1, 106320, Note_on_c, 4, 49, 100
1, 106320, Note_on_c, 9, 42, 100
1, 106320, Note_on_c, 12, 66, 100
1, 106320, Note_on_c, 9, 55, 100
1, 106320, Note_on_c, 11, 66, 100
1, 106440, Note_off_c, 9, 55, 0
1, 106440, Note_off_c, 9, 42, 0
1, 106480, Note_off_c, 12, 66, 0
1, 106480, Note_off_c, 11, 66, 0
1, 106480, Note_on_c, 11, 62, 100
1, 106480, Note_on_c, 12, 62, 100
1, 106560, Note_off_c, 4, 49, 0
1, 106560, Note_off_c, 10, 76, 0
1, 106560, Note_off_c, 12, 62, 0
1, 106560, Note_off_c, 11, 62, 0
1, 106560, Note_off_c, 10, 79, 0
1, 106560, Note_off_c, 10, 85, 0
1, 106560, Note_on_c, 6, 66, 100
1, 106560, Note_on_c, 10, 81, 80
1, 106560, Note_on_c, 6, 69, 100
1, 106560, Note_on_c, 10, 86, 80
1, 106560, Note_on_c, 4, 50, 100
1, 106560, Note_on_c, 6, 74, 100
1, 106560, Note_on_c, 10, 78, 80
1, 106560, Note_on_c, 9, 38, 90
1, 106600, Note_on_c, 9, 38, 90
1, 106640, Note_off_c, 6, 74, 0
1, 106640, Note_off_c, 6, 69, 0
1, 106640, Note_off_c, 6, 66, 0
1, 106680, Note_off_c, 9, 38, 0
1, 106680, Note_on_c, 9, 38, 90
1, 106720, Note_off_c, 9, 38, 0
1, 106720, Note_on_c, 9, 38, 90
1, 106800, Note_off_c, 4, 50, 0
1, 106800, Note_off_c, 9, 38, 0
1, 106800, Note_on_c, 6, 74, 100
1, 106800, Note_on_c, 4, 38, 100
1, 106800, Note_on_c, 9, 38, 100
1, 106800, Note_on_c, 6, 66, 100
1, 106800, Note_on_c, 6, 69, 100
1, 106800, Note_on_c, 9, 42, 100
1, 106840, Note_off_c, 9, 38, 0
1, 106880, Note_off_c, 6, 74, 0
1, 106880, Note_off_c, 6, 69, 0
1, 106880, Note_off_c, 6, 66, 0
1, 106920, Note_off_c, 9, 42, 0
1, 106920, Note_off_c, 9, 38, 0
1, 107040, Note_off_c, 4, 38, 0
1, 107040, Note_off_c, 10, 86, 0
1, 107040, Note_on_c, 9, 42, 100
1, 107040, Note_on_c, 4, 39, 100
1, 107040, Note_on_c, 10, 87, 80
1, 107160, Note_off_c, 9, 42, 0
1, 107200, Note_on_c, 9, 36, 100
1, 107200, Note_on_c, 6, 66, 100
1, 107200, Note_on_c, 11, 66, 100
1, 107200, Note_on_c, 6, 75, 100
1, 107200, Note_on_c, 6, 69, 100
1, 107200, Note_on_c, 12, 66, 100
1, 107200, Note_on_c, 9, 46, 100
1, 107280, Note_off_c, 12, 66, 0
1, 107280, Note_off_c, 11, 66, 0
1, 107280, Note_off_c, 4, 39, 0
1, 107280, Note_on_c, 12, 69, 100
1, 107280, Note_on_c, 11, 69, 100
1, 107280, Note_on_c, 9, 46, 100
1, 107280, Note_on_c, 9, 52, 100
1, 107280, Note_on_c, 4, 51, 100
1, 107320, Note_off_c, 9, 36, 0
1, 107320, Note_off_c, 9, 46, 0
1, 107400, Note_off_c, 9, 52, 0
1, 107400, Note_off_c, 9, 46, 0
1, 107440, Note_off_c, 12, 69, 0
1, 107440, Note_off_c, 11, 69, 0
1, 107440, Note_on_c, 12, 72, 100
1, 107440, Note_on_c, 9, 42, 100
1, 107440, Note_on_c, 11, 72, 100
1, 107520, Note_off_c, 10, 78, 0
1, 107520, Note_off_c, 4, 51, 0
1, 107520, Note_off_c, 6, 66, 0
1, 107520, Note_off_c, 6, 69, 0
1, 107520, Note_off_c, 10, 81, 0
1, 107520, Note_off_c, 10, 87, 0
1, 107520, Note_off_c, 6, 75, 0
1, 107520, Note_off_c, 11, 72, 0
1, 107520, Note_off_c, 12, 72, 0
1, 107520, Note_on_c, 11, 71, 100
1, 107520, Note_on_c, 10, 79, 80
1, 107520, Note_on_c, 6, 71, 100
1, 107520, Note_on_c, 10, 83, 80
1, 107520, Note_on_c, 10, 88, 80
1, 107520, Note_on_c, 6, 76, 100
1, 107520, Note_on_c, 9, 36, 100
1, 107520, Note_on_c, 9, 53, 110
1, 107520, Note_on_c, 12, 71, 100
1, 107520, Note_on_c, 6, 67, 100
1, 107520, Note_on_c, 4, 52, 100
1, 107560, Note_off_c, 9, 42, 0
1, 107560, Note_off_c, 12, 71, 0
1, 107560, Note_off_c, 11, 71, 0
1, 107560, Note_on_c, 12, 72, 100
1, 107560, Note_on_c, 11, 72, 100
1, 107640, Note_off_c, 9, 36, 0
1, 107640, Note_off_c, 12, 72, 0
1, 107640, Note_off_c, 9, 53, 0
1, 107640, Note_off_c, 11, 72, 0
1, 107640, Note_on_c, 12, 71, 100
1, 107640, Note_on_c, 11, 71, 100
1, 107680, Note_off_c, 12, 71, 0
1, 107680, Note_off_c, 11, 71, 0
1, 107680, Note_on_c, 12, 69, 100
1, 107680, Note_on_c, 11, 69, 100
1, 107760, Note_off_c, 4, 52, 0
1, 107760, Note_off_c, 11, 69, 0
1, 107760, Note_off_c, 12, 69, 0
1, 107760, Note_on_c, 12, 71, 100
1, 107760, Note_on_c, 11, 71, 100
1, 107760, Note_on_c, 4, 45, 100
1, 107760, Note_on_c, 9, 53, 100
1, 107880, Note_off_c, 9, 53, 0
1, 107920, Note_off_c, 10, 79, 0
1, 107920, Note_off_c, 6, 76, 0
1, 107920, Note_off_c, 10, 83, 0
1, 107920, Note_off_c, 6, 67, 0
1, 107920, Note_off_c, 6, 71, 0
1, 107920, Note_off_c, 10, 88, 0
1, 107920, Note_off_c, 12, 71, 0
1, 107920, Note_off_c, 11, 71, 0
1, 107920, Note_on_c, 6, 67, 100
1, 107920, Note_on_c, 10, 79, 80
1, 107920, Note_on_c, 10, 88, 80
1, 107920, Note_on_c, 6, 71, 100
1, 107920, Note_on_c, 9, 53, 100
1, 107920, Note_on_c, 6, 76, 100
1, 107920, Note_on_c, 11, 69, 100
1, 107920, Note_on_c, 12, 69, 100
1, 107920, Note_on_c, 10, 83, 80
1, 108000, Note_off_c, 4, 45, 0
1, 108000, Note_off_c, 11, 69, 0
1, 108000, Note_off_c, 12, 69, 0
1, 108000, Note_on_c, 11, 71, 100
1, 108000, Note_on_c, 12, 71, 100
1, 108000, Note_on_c, 9, 53, 110
1, 108000, Note_on_c, 4, 44, 100
1, 108040, Note_off_c, 9, 53, 0
1, 108120, Note_off_c, 9, 53, 0
1, 108160, Note_off_c, 11, 71, 0
1, 108160, Note_off_c, 12, 71, 0
1, 108160, Note_on_c, 11, 73, 100
1, 108160, Note_on_c, 12, 73, 100
1, 108240, Note_off_c, 6, 67, 0
1, 108240, Note_off_c, 6, 76, 0
1, 108240, Note_off_c, 6, 71, 0
1, 108240, Note_off_c, 4, 44, 0
1, 108240, Note_off_c, 12, 73, 0
1, 108240, Note_off_c, 11, 73, 0
1, 108240, Note_on_c, 6, 69, 100
1, 108240, Note_on_c, 9, 53, 100
1, 108240, Note_on_c, 4, 49, 100
1, 108240, Note_on_c, 6, 67, 100
1, 108240, Note_on_c, 6, 64, 100
1, 108360, Note_off_c, 9, 53, 0
1, 108400, Note_on_c, 9, 53, 100
1, 108400, Note_on_c, 12, 74, 100
1, 108400, Note_on_c, 11, 74, 100
1, 108480, Note_off_c, 10, 88, 0
1, 108480, Note_off_c, 10, 79, 0
1, 108480, Note_off_c, 10, 83, 0
1, 108480, Note_off_c, 6, 69, 0
1, 108480, Note_off_c, 6, 64, 0
1, 108480, Note_off_c, 6, 67, 0
1, 108480, Note_off_c, 4, 49, 0
1, 108480, Note_on_c, 6, 72, 100
1, 108480, Note_on_c, 6, 69, 100
1, 108480, Note_on_c, 6, 66, 100
1, 108480, Note_on_c, 4, 50, 100
1, 108480, Note_on_c, 10, 89, 80
1, 108480, Note_on_c, 9, 53, 110
1, 108480, Note_on_c, 6, 74, 100
1, 108520, Note_off_c, 10, 89, 0
1, 108520, Note_off_c, 9, 53, 0
1, 108520, Note_on_c, 10, 90, 80
1, 108600, Note_off_c, 9, 53, 0
1, 108600, Note_off_c, 10, 90, 0
1, 108600, Note_on_c, 10, 89, 80
1, 108640, Note_off_c, 10, 89, 0
1, 108640, Note_on_c, 10, 86, 80
1, 108640, Note_on_c, 9, 36, 100
1, 108720, Note_off_c, 4, 50, 0
1, 108720, Note_off_c, 10, 86, 0
1, 108720, Note_on_c, 10, 93, 100
1, 108720, Note_on_c, 4, 42, 100
1, 108720, Note_on_c, 9, 53, 100
1, 108760, Note_off_c, 9, 36, 0
1, 108840, Note_off_c, 9, 53, 0
1, 108880, Note_off_c, 6, 74, 0
1, 108880, Note_off_c, 6, 66, 0
1, 108880, Note_off_c, 6, 69, 0
1, 108880, Note_off_c, 6, 72, 0
1, 108880, Note_off_c, 10, 93, 0
1, 108880, Note_on_c, 6, 74, 100
1, 108880, Note_on_c, 10, 86, 70
1, 108880, Note_on_c, 6, 69, 100
1, 108880, Note_on_c, 6, 72, 100
1, 108880, Note_on_c, 9, 53, 100
1, 108880, Note_on_c, 6, 66, 100
1, 108960, Note_off_c, 4, 42, 0
1, 108960, Note_off_c, 10, 86, 0
1, 108960, Note_on_c, 13, 56, 120
1, 108960, Note_on_c, 10, 91, 100
1, 108960, Note_on_c, 4, 40, 100
1, 108960, Note_on_c, 9, 36, 100
1, 109000, Note_off_c, 9, 53, 0
1, 109040, Note_off_c, 13, 56, 0
1, 109040, Note_on_c, 13, 57, 120
1, 109080, Note_off_c, 9, 36, 0
1, 109120, Note_off_c, 10, 91, 0
1, 109120, Note_off_c, 13, 57, 0
1, 109120, Note_on_c, 13, 59, 120
1, 109120, Note_on_c, 9, 53, 110
1, 109120, Note_on_c, 10, 90, 100
1, 109200, Note_off_c, 11, 74, 0
1, 109200, Note_off_c, 4, 40, 0
1, 109200, Note_off_c, 12, 74, 0
1, 109200, Note_off_c, 13, 59, 0
1, 109200, Note_off_c, 10, 90, 0
1, 109200, Note_on_c, 13, 60, 120
1, 109200, Note_on_c, 4, 38, 100
1, 109200, Note_on_c, 9, 53, 100
1, 109240, Note_off_c, 9, 53, 0
1, 109280, Note_off_c, 13, 60, 0
1, 109280, Note_on_c, 13, 62, 120
1, 109320, Note_off_c, 9, 53, 0
1, 109360, Note_off_c, 13, 62, 0
1, 109360, Note_on_c, 9, 36, 100
1, 109360, Note_on_c, 13, 63, 120
1, 109440, Note_off_c, 4, 38, 0
1, 109440, Note_off_c, 6, 69, 0
1, 109440, Note_off_c, 6, 66, 0
1, 109440, Note_off_c, 6, 72, 0
1, 109440, Note_off_c, 6, 74, 0
1, 109440, Note_off_c, 13, 63, 0
1, 109440, Note_on_c, 6, 67, 100
1, 109440, Note_on_c, 9, 53, 110
1, 109440, Note_on_c, 6, 55, 100
1, 109440, Note_on_c, 9, 36, 100
1, 109440, Note_on_c, 4, 36, 100
1, 109440, Note_on_c, 6, 60, 100
1, 109440, Note_on_c, 6, 64, 100
1, 109440, Note_on_c, 13, 64, 120
1, 109480, Note_off_c, 9, 36, 0
1, 109520, Note_off_c, 13, 64, 0
1, 109560, Note_off_c, 9, 53, 0
1, 109560, Note_off_c, 9, 36, 0
1, 109600, Note_on_c, 10, 81, 100
1, 109600, Note_on_c, 10, 84, 100
1, 109680, Note_off_c, 10, 81, 0
1, 109680, Note_off_c, 10, 84, 0
1, 109680, Note_off_c, 4, 36, 0
1, 109680, Note_on_c, 9, 53, 100
1, 109680, Note_on_c, 4, 43, 100
1, 109800, Note_off_c, 9, 53, 0
1, 109840, Note_on_c, 9, 53, 100
1, 109920, Note_off_c, 4, 43, 0
1, 109920, Note_on_c, 10, 84, 100
1, 109920, Note_on_c, 9, 53, 110
1, 109920, Note_on_c, 10, 81, 100
1, 109920, Note_on_c, 4, 48, 100
1, 109960, Note_off_c, 9, 53, 0
1, 110000, Note_off_c, 10, 84, 0
1, 110000, Note_off_c, 10, 81, 0
1, 110040, Note_off_c, 9, 53, 0
1, 110080, Note_on_c, 13, 60, 120
1, 110160, Note_off_c, 13, 60, 0
1, 110160, Note_off_c, 4, 48, 0
1, 110160, Note_on_c, 9, 53, 100
1, 110160, Note_on_c, 4, 47, 100
1, 110160, Note_on_c, 13, 57, 120
1, 110280, Note_off_c, 9, 53, 0
1, 110320, Note_off_c, 13, 57, 0
1, 110320, Note_off_c, 4, 47, 0
1, 110320, Note_on_c, 9, 53, 100
1, 110320, Note_on_c, 13, 54, 120
1, 110320, Note_on_c, 4, 46, 100
1, 110400, Note_off_c, 6, 55, 0
1, 110400, Note_off_c, 6, 64, 0
1, 110400, Note_off_c, 6, 67, 0
1, 110400, Note_off_c, 6, 60, 0
1, 110400, Note_off_c, 4, 46, 0
1, 110400, Note_off_c, 13, 54, 0
1, 110400, Note_on_c, 4, 45, 100
1, 110400, Note_on_c, 9, 53, 110
1, 110400, Note_on_c, 10, 84, 100
1, 110400, Note_on_c, 10, 81, 100
1, 110440, Note_off_c, 9, 53, 0
1, 110480, Note_off_c, 10, 81, 0
1, 110480, Note_off_c, 10, 84, 0
1, 110520, Note_off_c, 9, 53, 0
1, 110560, Note_on_c, 6, 64, 100
1, 110560, Note_on_c, 9, 36, 100
1, 110560, Note_on_c, 6, 60, 100
1, 110560, Note_on_c, 6, 54, 100
1, 110560, Note_on_c, 6, 66, 100
1, 110560, Note_on_c, 6, 57, 100
1, 110640, Note_off_c, 4, 45, 0
1, 110640, Note_off_c, 6, 54, 0
1, 110640, Note_off_c, 6, 64, 0
1, 110640, Note_off_c, 6, 57, 0
1, 110640, Note_off_c, 6, 60, 0
1, 110640, Note_off_c, 6, 66, 0
1, 110640, Note_on_c, 4, 50, 100
1, 110640, Note_on_c, 9, 53, 100
1, 110640, Note_on_c, 10, 81, 100
1, 110640, Note_on_c, 10, 84, 100
1, 110680, Note_off_c, 9, 36, 0
1, 110720, Note_off_c, 10, 84, 0
1, 110720, Note_off_c, 10, 81, 0
1, 110760, Note_off_c, 9, 53, 0
1, 110800, Note_on_c, 9, 53, 100
1, 110880, Note_off_c, 4, 50, 0
1, 110880, Note_on_c, 4, 38, 100
1, 110880, Note_on_c, 10, 86, 100
1, 110880, Note_on_c, 10, 83, 100
1, 110880, Note_on_c, 6, 57, 100
1, 110880, Note_on_c, 6, 60, 100
1, 110880, Note_on_c, 6, 64, 100
1, 110880, Note_on_c, 9, 36, 100
1, 110880, Note_on_c, 6, 54, 100
1, 110880, Note_on_c, 6, 66, 100
1, 110920, Note_off_c, 9, 53, 0
1, 110960, Note_off_c, 10, 83, 0
1, 110960, Note_on_c, 10, 83, 100
1, 111000, Note_off_c, 9, 36, 0
1, 111040, Note_off_c, 10, 83, 0
1, 111040, Note_off_c, 10, 86, 0
1, 111040, Note_on_c, 10, 81, 100
1, 111040, Note_on_c, 10, 84, 100
1, 111040, Note_on_c, 9, 53, 110
1, 111040, Note_on_c, 13, 57, 120
1, 111120, Note_off_c, 4, 38, 0
1, 111120, Note_off_c, 10, 81, 0
1, 111120, Note_off_c, 10, 84, 0
1, 111120, Note_off_c, 13, 57, 0
1, 111120, Note_on_c, 4, 40, 100
1, 111120, Note_on_c, 9, 53, 100
1, 111120, Note_on_c, 13, 60, 120
1, 111160, Note_off_c, 9, 53, 0
1, 111240, Note_off_c, 9, 53, 0
1, 111280, Note_off_c, 4, 40, 0
1, 111280, Note_off_c, 13, 60, 0
1, 111280, Note_on_c, 13, 64, 120
1, 111280, Note_on_c, 4, 42, 100
1, 111360, Note_off_c, 6, 66, 0
1, 111360, Note_off_c, 6, 60, 0
1, 111360, Note_off_c, 6, 64, 0
1, 111360, Note_off_c, 13, 64, 0
1, 111360, Note_off_c, 6, 54, 0
1, 111360, Note_off_c, 6, 57, 0
1, 111360, Note_off_c, 4, 42, 0
1, 111360, Note_on_c, 6, 71, 100
1, 111360, Note_on_c, 9, 53, 110
1, 111360, Note_on_c, 6, 74, 100
1, 111360, Note_on_c, 13, 62, 120
1, 111360, Note_on_c, 10, 86, 100
1, 111360, Note_on_c, 4, 43, 100
1, 111360, Note_on_c, 9, 36, 100
1, 111400, Note_off_c, 13, 62, 0
1, 111400, Note_on_c, 13, 64, 120
1, 111480, Note_off_c, 13, 64, 0
1, 111480, Note_off_c, 9, 53, 0
1, 111480, Note_off_c, 9, 36, 0
1, 111480, Note_on_c, 13, 62, 120
1, 111520, Note_off_c, 13, 62, 0
1, 111520, Note_on_c, 13, 59, 120
1, 111600, Note_off_c, 6, 74, 0
1, 111600, Note_off_c, 4, 43, 0
1, 111600, Note_off_c, 6, 71, 0
1, 111600, Note_off_c, 13, 59, 0
1, 111600, Note_on_c, 6, 72, 100
1, 111600, Note_on_c, 13, 60, 120
1, 111600, Note_on_c, 4, 50, 100
1, 111600, Note_on_c, 9, 53, 100
1, 111600, Note_on_c, 6, 76, 100
1, 111720, Note_off_c, 9, 53, 0
1, 111760, Note_off_c, 6, 76, 0
1, 111760, Note_off_c, 6, 72, 0
1, 111760, Note_off_c, 13, 60, 0
1, 111760, Note_on_c, 6, 71, 100
1, 111760, Note_on_c, 9, 53, 100
1, 111760, Note_on_c, 6, 74, 100
1, 111760, Note_on_c, 13, 61, 120
1, 111840, Note_off_c, 10, 86, 0
1, 111840, Note_off_c, 13, 61, 0
1, 111840, Note_off_c, 4, 50, 0
1, 111840, Note_on_c, 13, 62, 120
1, 111840, Note_on_c, 10, 91, 100
1, 111840, Note_on_c, 9, 53, 110
1, 111840, Note_on_c, 10, 88, 100
1, 111840, Note_on_c, 4, 55, 100
1, 111880, Note_off_c, 9, 53, 0
1, 111960, Note_off_c, 9, 53, 0
1, 112000, Note_off_c, 6, 74, 0
1, 112000, Note_off_c, 6, 71, 0
1, 112000, Note_off_c, 13, 62, 0
1, 112000, Note_on_c, 6, 67, 100
1, 112000, Note_on_c, 13, 67, 120
1, 112080, Note_off_c, 4, 55, 0
1, 112080, Note_off_c, 6, 67, 0
1, 112080, Note_off_c, 13, 67, 0
1, 112080, Note_on_c, 9, 53, 100
1, 112080, Note_on_c, 4, 47, 100
1, 112080, Note_on_c, 6, 71, 100
1, 112080, Note_on_c, 6, 74, 100
1, 112200, Note_off_c, 9, 53, 0
1, 112240, Note_off_c, 6, 74, 0
1, 112240, Note_off_c, 6, 71, 0
1, 112240, Note_on_c, 13, 62, 120
1, 112240, Note_on_c, 6, 67, 100
1, 112240, Note_on_c, 9, 53, 100
1, 112320, Note_off_c, 10, 88, 0
1, 112320, Note_off_c, 10, 91, 0
1, 112320, Note_off_c, 6, 67, 0
1, 112320, Note_off_c, 4, 47, 0
1, 112320, Note_on_c, 10, 86, 100
1, 112320, Note_on_c, 10, 90, 100
1, 112320, Note_on_c, 6, 74, 100
1, 112320, Note_on_c, 9, 53, 110
1, 112320, Note_on_c, 9, 36, 100
1, 112320, Note_on_c, 4, 50, 100
1, 112320, Note_on_c, 6, 71, 100
1, 112360, Note_off_c, 9, 53, 0
1, 112440, Note_off_c, 9, 36, 0
1, 112440, Note_off_c, 9, 53, 0
1, 112480, Note_off_c, 6, 71, 0
1, 112480, Note_off_c, 6, 74, 0
1, 112480, Note_on_c, 6, 74, 100
1, 112480, Note_on_c, 6, 71, 100
1, 112560, Note_off_c, 4, 50, 0
1, 112560, Note_off_c, 6, 71, 0
1, 112560, Note_off_c, 6, 74, 0
1, 112560, Note_on_c, 6, 72, 100
1, 112560, Note_on_c, 9, 36, 100
1, 112560, Note_on_c, 4, 54, 100
1, 112560, Note_on_c, 9, 53, 100
1, 112560, Note_on_c, 6, 76, 100
1, 112680, Note_off_c, 9, 53, 0
1, 112680, Note_off_c, 9, 36, 0
1, 112720, Note_off_c, 6, 72, 0
1, 112720, Note_off_c, 6, 76, 0
1, 112720, Note_on_c, 9, 53, 100
1, 112720, Note_on_c, 6, 71, 100
1, 112720, Note_on_c, 6, 74, 100
1, 112800, Note_off_c, 10, 90, 0
1, 112800, Note_off_c, 4, 54, 0
1, 112800, Note_off_c, 10, 86, 0
1, 112800, Note_on_c, 4, 43, 100
1, 112800, Note_on_c, 10, 83, 100
1, 112800, Note_on_c, 10, 86, 100
1, 112840, Note_off_c, 9, 53, 0
1, 112960, Note_off_c, 6, 71, 0
1, 112960, Note_off_c, 6, 74, 0
1, 112960, Note_on_c, 9, 36, 100
1, 112960, Note_on_c, 9, 53, 110
1, 112960, Note_on_c, 6, 67, 100
1, 113040, Note_off_c, 4, 43, 0
1, 113040, Note_off_c, 6, 67, 0
1, 113040, Note_off_c, 13, 62, 0
1, 113040, Note_on_c, 9, 53, 100
1, 113040, Note_on_c, 4, 47, 100
1, 113040, Note_on_c, 6, 71, 100
1, 113040, Note_on_c, 6, 74, 100
1, 113080, Note_off_c, 9, 36, 0
1, 113080, Note_off_c, 9, 53, 0
1, 113160, Note_off_c, 9, 53, 0
1, 113200, Note_off_c, 6, 74, 0
1, 113200, Note_off_c, 6, 71, 0
1, 113200, Note_on_c, 9, 36, 100
1, 113200, Note_on_c, 6, 67, 100
1, 113280, Note_off_c, 10, 86, 0
1, 113280, Note_off_c, 4, 47, 0
1, 113280, Note_off_c, 10, 83, 0
1, 113280, Note_off_c, 6, 67, 0
1, 113280, Note_on_c, 11, 72, 100
1, 113280, Note_on_c, 9, 46, 100
1, 113280, Note_on_c, 13, 57, 120
1, 113280, Note_on_c, 12, 69, 100
1, 113280, Note_on_c, 9, 36, 100
1, 113320, Note_off_c, 9, 36, 0
1, 113360, Note_off_c, 11, 72, 0
1, 113360, Note_off_c, 12, 69, 0
1, 113360, Note_off_c, 13, 57, 0
1, 113400, Note_off_c, 9, 46, 0
1, 113400, Note_off_c, 9, 36, 0
1, 113520, Note_on_c, 11, 72, 100
1, 113520, Note_on_c, 12, 69, 100
1, 113520, Note_on_c, 13, 57, 120
1, 113520, Note_on_c, 9, 42, 100
1, 113640, Note_off_c, 9, 42, 0
1, 113680, Note_off_c, 11, 72, 0
1, 113680, Note_off_c, 13, 57, 0
1, 113680, Note_off_c, 12, 69, 0
1, 113680, Note_on_c, 9, 42, 100
1, 113680, Note_on_c, 13, 59, 120
1, 113680, Note_on_c, 11, 74, 100
1, 113680, Note_on_c, 12, 71, 100
1, 113760, Note_off_c, 11, 74, 0
1, 113760, Note_off_c, 13, 59, 0
1, 113760, Note_off_c, 12, 71, 0
1, 113760, Note_on_c, 9, 36, 100
1, 113760, Note_on_c, 11, 72, 100
1, 113760, Note_on_c, 9, 46, 100
1, 113760, Note_on_c, 13, 57, 120
1, 113760, Note_on_c, 12, 69, 100
1, 113800, Note_off_c, 9, 42, 0
1, 113880, Note_off_c, 9, 46, 0
1, 113880, Note_off_c, 13, 57, 0
1, 113880, Note_off_c, 9, 36, 0
1, 113880, Note_off_c, 11, 72, 0
1, 113880, Note_off_c, 12, 69, 0
1, 113880, Note_on_c, 11, 74, 100
1, 113880, Note_on_c, 12, 71, 100
1, 113880, Note_on_c, 13, 59, 120
1, 113920, Note_off_c, 13, 59, 0
1, 113920, Note_off_c, 11, 74, 0
1, 113920, Note_off_c, 12, 71, 0
1, 113920, Note_on_c, 12, 69, 100
1, 113920, Note_on_c, 13, 57, 120
1, 113920, Note_on_c, 11, 72, 100
1, 114000, Note_off_c, 11, 72, 0
1, 114000, Note_off_c, 13, 57, 0
1, 114000, Note_off_c, 12, 69, 0
1, 114000, Note_on_c, 11, 71, 100
1, 114000, Note_on_c, 12, 68, 100
1, 114000, Note_on_c, 13, 56, 120
1, 114000, Note_on_c, 9, 42, 100
1, 114120, Note_off_c, 9, 42, 0
1, 114160, Note_off_c, 12, 68, 0
1, 114160, Note_off_c, 11, 71, 0
1, 114160, Note_off_c, 13, 56, 0
1, 114160, Note_on_c, 12, 69, 100
1, 114160, Note_on_c, 11, 72, 100
1, 114160, Note_on_c, 13, 57, 120
1, 114160, Note_on_c, 9, 42, 100
1, 114240, Note_off_c, 12, 69, 0
1, 114240, Note_off_c, 13, 57, 0
1, 114240, Note_off_c, 11, 72, 0
1, 114240, Note_on_c, 9, 46, 100
1, 114240, Note_on_c, 9, 36, 100
1, 114280, Note_off_c, 9, 42, 0
1, 114360, Note_off_c, 9, 36, 0
1, 114360, Note_off_c, 9, 46, 0
1, 114480, Note_on_c, 9, 42, 100
1, 114600, Note_off_c, 9, 42, 0
1, 114640, Note_on_c, 9, 42, 100
1, 114720, Note_on_c, 9, 36, 100
1, 114720, Note_on_c, 9, 46, 100
1, 114760, Note_off_c, 9, 42, 0
1, 114840, Note_off_c, 9, 46, 0
1, 114840, Note_off_c, 9, 36, 0
1, 114880, Note_on_c, 12, 68, 100
1, 114880, Note_on_c, 13, 56, 120
1, 114880, Note_on_c, 11, 71, 100
1, 114960, Note_on_c, 9, 42, 100
1, 115080, Note_off_c, 9, 42, 0
1, 115120, Note_on_c, 9, 42, 100
1, 115200, Note_off_c, 12, 68, 0
1, 115200, Note_off_c, 11, 71, 0
1, 115200, Note_off_c, 13, 56, 0
1, 115200, Note_on_c, 9, 36, 100
1, 115200, Note_on_c, 11, 72, 100
1, 115200, Note_on_c, 13, 57, 120
1, 115200, Note_on_c, 9, 46, 100
1, 115200, Note_on_c, 12, 69, 100
1, 115240, Note_off_c, 9, 42, 0
1, 115280, Note_off_c, 11, 72, 0
1, 115280, Note_off_c, 12, 69, 0
1, 115280, Note_off_c, 13, 57, 0
1, 115320, Note_off_c, 9, 46, 0
1, 115320, Note_off_c, 9, 36, 0
1, 115440, Note_on_c, 9, 42, 100
1, 115440, Note_on_c, 13, 57, 120
1, 115440, Note_on_c, 11, 72, 100
1, 115440, Note_on_c, 12, 69, 100
1, 115560, Note_off_c, 9, 42, 0
1, 115600, Note_off_c, 13, 57, 0
1, 115600, Note_off_c, 11, 72, 0
1, 115600, Note_off_c, 12, 69, 0
1, 115600, Note_on_c, 13, 59, 120
1, 115600, Note_on_c, 9, 42, 100
1, 115600, Note_on_c, 11, 74, 100
1, 115600, Note_on_c, 12, 71, 100
1, 115680, Note_off_c, 13, 59, 0
1, 115680, Note_off_c, 12, 71, 0
1, 115680, Note_off_c, 11, 74, 0
1, 115680, Note_on_c, 12, 72, 100
1, 115680, Note_on_c, 9, 46, 100
1, 115680, Note_on_c, 11, 76, 100
1, 115680, Note_on_c, 13, 60, 120
1, 115680, Note_on_c, 9, 36, 100
1, 115720, Note_off_c, 9, 42, 0
1, 115800, Note_off_c, 9, 46, 0
1, 115800, Note_off_c, 9, 36, 0
1, 115840, Note_off_c, 12, 72, 0
1, 115840, Note_off_c, 13, 60, 0
1, 115840, Note_off_c, 11, 76, 0
1, 115840, Note_on_c, 11, 78, 100
1, 115840, Note_on_c, 12, 74, 100
1, 115840, Note_on_c, 13, 62, 120
1, 115920, Note_off_c, 13, 62, 0
1, 115920, Note_off_c, 11, 78, 0
1, 115920, Note_off_c, 12, 74, 0
1, 115920, Note_on_c, 9, 42, 100
1, 116040, Note_off_c, 9, 42, 0
1, 116080, Note_on_c, 11, 79, 100
1, 116080, Note_on_c, 13, 64, 120
1, 116080, Note_on_c, 9, 42, 100
1, 116080, Note_on_c, 12, 76, 100
1, 116160, Note_off_c, 11, 79, 0
1, 116160, Note_off_c, 13, 64, 0
1, 116160, Note_off_c, 12, 76, 0
1, 116160, Note_on_c, 9, 46, 100
1, 116160, Note_on_c, 9, 36, 100
1, 116200, Note_off_c, 9, 42, 0
1, 116280, Note_off_c, 9, 46, 0
1, 116280, Note_off_c, 9, 36, 0
1, 116320, Note_on_c, 9, 38, 100
1, 116400, Note_on_c, 9, 36, 100
1, 116400, Note_on_c, 9, 42, 100
1, 116440, Note_off_c, 9, 38, 0
1, 116520, Note_off_c, 9, 42, 0
1, 116520, Note_off_c, 9, 36, 0
1, 116560, Note_on_c, 9, 42, 100
1, 116560, Note_on_c, 9, 36, 100
1, 116640, Note_on_c, 9, 38, 100
1, 116640, Note_on_c, 9, 46, 100
1, 116680, Note_off_c, 9, 36, 0
1, 116680, Note_off_c, 9, 42, 0
1, 116760, Note_off_c, 9, 46, 0
1, 116760, Note_off_c, 9, 38, 0
1, 116800, Note_on_c, 13, 60, 120
1, 116800, Note_on_c, 11, 78, 100
1, 116800, Note_on_c, 13, 57, 120
1, 116800, Note_on_c, 13, 66, 120
1, 116800, Note_on_c, 11, 75, 100
1, 116800, Note_on_c, 11, 81, 100
1, 116800, Note_on_c, 13, 63, 120
1, 116800, Note_on_c, 12, 78, 100
1, 116880, Note_off_c, 11, 78, 0
1, 116880, Note_off_c, 13, 63, 0
1, 116880, Note_on_c, 9, 42, 100
1, 116880, Note_on_c, 11, 78, 100
1, 116880, Note_on_c, 9, 38, 100
1, 116880, Note_on_c, 13, 63, 120
1, 117000, Note_off_c, 9, 42, 0
1, 117000, Note_off_c, 9, 38, 0
1, 117040, Note_on_c, 9, 38, 100
1, 117040, Note_on_c, 9, 42, 100
1, 117120, Note_off_c, 13, 57, 0
1, 117120, Note_off_c, 13, 63, 0
1, 117120, Note_off_c, 11, 78, 0
1, 117120, Note_off_c, 12, 78, 0
1, 117120, Note_off_c, 11, 75, 0
1, 117120, Note_off_c, 13, 60, 0
1, 117120, Note_off_c, 13, 66, 0
1, 117120, Note_off_c, 11, 81, 0
1, 117120, Note_on_c, 11, 74, 100
1, 117120, Note_on_c, 11, 79, 100
1, 117120, Note_on_c, 9, 49, 100
1, 117120, Note_on_c, 11, 83, 100
1, 117120, Note_on_c, 13, 59, 120
1, 117120, Note_on_c, 13, 67, 120
1, 117120, Note_on_c, 13, 64, 120
1, 117120, Note_on_c, 9, 36, 100
1, 117120, Note_on_c, 13, 62, 120
1, 117120, Note_on_c, 12, 79, 100
1, 117120, Note_on_c, 9, 45, 100
1, 117160, Note_off_c, 9, 38, 0
1, 117160, Note_off_c, 9, 42, 0
1, 117240, Note_off_c, 13, 59, 0
1, 117240, Note_off_c, 13, 62, 0
1, 117240, Note_off_c, 13, 64, 0
1, 117240, Note_off_c, 13, 67, 0
1, 117240, Note_off_c, 11, 83, 0
1, 117240, Note_off_c, 9, 36, 0
1, 117240, Note_off_c, 11, 74, 0
1, 117240, Note_off_c, 11, 79, 0
1, 117240, Note_off_c, 9, 45, 0
1, 117240, Note_off_c, 9, 49, 0
1, 117240, Note_off_c, 12, 79, 0
1, 117360, Note_on_c, 9, 42, 100
1, 117360, Note_on_c, 9, 45, 100
1, 117480, Note_off_c, 9, 42, 0
1, 117480, Note_off_c, 9, 45, 0
1, 117600, Note_on_c, 9, 36, 100
1, 117600, Note_on_c, 9, 43, 100
1, 117720, Note_off_c, 9, 36, 0
1, 117720, Note_off_c, 9, 43, 0
1, 117760, Note_on_c, 9, 50, 100
1, 117840, Note_on_c, 9, 47, 100
1, 117840, Note_on_c, 9, 42, 100
1, 117880, Note_off_c, 9, 50, 0
1, 117960, Note_off_c, 9, 47, 0
1, 117960, Note_off_c, 9, 42, 0
1, 118000, Note_on_c, 9, 43, 100
1, 118000, Note_on_c, 9, 50, 90
1, 118080, Note_on_c, 9, 45, 100
1, 118080, Note_on_c, 9, 36, 100
1, 118120, Note_off_c, 9, 43, 0
1, 118120, Note_off_c, 9, 50, 0
1, 118200, Note_off_c, 9, 45, 0
1, 118200, Note_off_c, 9, 36, 0
1, 118240, Note_on_c, 9, 45, 100
1, 118320, Note_on_c, 9, 42, 100
1, 118320, Note_on_c, 9, 43, 100
1, 118360, Note_off_c, 9, 45, 0
1, 118440, Note_off_c, 9, 43, 0
1, 118440, Note_off_c, 9, 42, 0
1, 118480, Note_on_c, 9, 50, 100
1, 118560, Note_on_c, 9, 36, 100
1, 118560, Note_on_c, 9, 45, 100
1, 118600, Note_off_c, 9, 50, 0
1, 118680, Note_off_c, 9, 45, 0
1, 118680, Note_off_c, 9, 36, 0
1, 118720, Note_on_c, 9, 41, 100
1, 118800, Note_on_c, 9, 42, 100
1, 118800, Note_on_c, 9, 45, 100
1, 118840, Note_off_c, 9, 41, 0
1, 118920, Note_off_c, 9, 45, 0
1, 118920, Note_off_c, 9, 42, 0
1, 118960, Note_on_c, 9, 41, 90
1, 119040, Note_on_c, 9, 45, 100
1, 119040, Note_on_c, 9, 36, 100
1, 119080, Note_off_c, 9, 41, 0
1, 119160, Note_off_c, 9, 36, 0
1, 119160, Note_off_c, 9, 45, 0
1, 119280, Note_on_c, 9, 42, 100
1, 119280, Note_on_c, 9, 45, 100
1, 119400, Note_off_c, 9, 45, 0
1, 119400, Note_off_c, 9, 42, 0
1, 119520, Note_on_c, 9, 36, 100
1, 119520, Note_on_c, 9, 43, 100
1, 119640, Note_off_c, 9, 36, 0
1, 119640, Note_off_c, 9, 43, 0
1, 119680, Note_on_c, 9, 50, 100
1, 119760, Note_on_c, 9, 42, 100
1, 119760, Note_on_c, 9, 47, 100
1, 119800, Note_off_c, 9, 50, 0
1, 119880, Note_off_c, 9, 47, 0
1, 119880, Note_off_c, 9, 42, 0
1, 119920, Note_on_c, 9, 43, 100
1, 119920, Note_on_c, 9, 50, 90
1, 120000, Note_on_c, 9, 45, 100
1, 120000, Note_on_c, 9, 36, 100
1, 120040, Note_off_c, 9, 50, 0
1, 120040, Note_off_c, 9, 43, 0
1, 120120, Note_off_c, 9, 45, 0
1, 120120, Note_off_c, 9, 36, 0
1, 120160, Note_on_c, 9, 45, 100
1, 120240, Note_on_c, 9, 43, 100
1, 120240, Note_on_c, 9, 42, 100
1, 120280, Note_off_c, 9, 45, 0
1, 120360, Note_off_c, 9, 43, 0
1, 120360, Note_off_c, 9, 42, 0
1, 120400, Note_on_c, 9, 50, 100
1, 120480, Note_on_c, 9, 36, 100
1, 120480, Note_on_c, 9, 45, 100
1, 120520, Note_off_c, 9, 50, 0
1, 120600, Note_off_c, 9, 36, 0
1, 120600, Note_off_c, 9, 45, 0
1, 120640, Note_on_c, 9, 41, 100
1, 120720, Note_on_c, 9, 42, 100
1, 120720, Note_on_c, 9, 45, 100
1, 120760, Note_off_c, 9, 41, 0
1, 120840, Note_off_c, 9, 45, 0
1, 120840, Note_off_c, 9, 42, 0
1, 120880, Note_on_c, 9, 41, 90
1, 120960, Note_on_c, 2, 52, 110
1, 120960, Note_on_c, 0, 64, 110
1, 120960, Note_on_c, 9, 45, 100
1, 120960, Note_on_c, 9, 49, 100
1, 120960, Note_on_c, 9, 36, 100
1, 120960, Note_on_c, 1, 58, 110
1, 121000, Note_off_c, 9, 41, 0
1, 121040, Note_off_c, 1, 58, 0
1, 121040, Note_off_c, 2, 52, 0
1, 121040, Note_off_c, 0, 64, 0
1, 121080, Note_off_c, 9, 45, 0
1, 121080, Note_off_c, 9, 36, 0
1, 121080, Note_off_c, 9, 49, 0
1, 121200, Note_on_c, 9, 42, 100
1, 121200, Note_on_c, 9, 45, 100
1, 121320, Note_off_c, 9, 45, 0
1, 121320, Note_off_c, 9, 42, 0
1, 121320, Note_on_c, 2, 55, 110
1, 121320, Note_on_c, 0, 67, 110
1, 121320, Note_on_c, 1, 59, 110
1, 121400, Note_off_c, 2, 55, 0
1, 121400, Note_off_c, 0, 67, 0
1, 121400, Note_off_c, 1, 59, 0
1, 121440, Note_on_c, 9, 36, 100
1, 121440, Note_on_c, 9, 43, 100
1, 121560, Note_off_c, 9, 36, 0
1, 121560, Note_off_c, 9, 43, 0
1, 121600, Note_on_c, 9, 50, 100
1, 121680, Note_on_c, 2, 57, 95
1, 121680, Note_on_c, 1, 64, 95
1, 121680, Note_on_c, 9, 47, 100
1, 121680, Note_on_c, 0, 69, 95
1, 121680, Note_on_c, 9, 42, 100
1, 121720, Note_off_c, 9, 50, 0
1, 121760, Note_off_c, 0, 69, 0
1, 121760, Note_off_c, 1, 64, 0
1, 121760, Note_off_c, 2, 57, 0
1, 121800, Note_off_c, 9, 42, 0
1, 121800, Note_off_c, 9, 47, 0
1, 121840, Note_on_c, 9, 50, 90
1, 121840, Note_on_c, 9, 43, 100
1, 121920, Note_on_c, 9, 36, 100
1, 121920, Note_on_c, 1, 58, 110
1, 121920, Note_on_c, 0, 64, 110
1, 121920, Note_on_c, 2, 52, 110
1, 121920, Note_on_c, 9, 45, 100
1, 121960, Note_off_c, 9, 43, 0
1, 121960, Note_off_c, 9, 50, 0
1, 122000, Note_off_c, 2, 52, 0
1, 122000, Note_off_c, 0, 64, 0
1, 122000, Note_off_c, 1, 58, 0
1, 122040, Note_off_c, 9, 45, 0
1, 122040, Note_off_c, 9, 36, 0
1, 122080, Note_on_c, 9, 45, 100
1, 122160, Note_on_c, 9, 42, 100
1, 122160, Note_on_c, 9, 43, 100
1, 122200, Note_off_c, 9, 45, 0
1, 122280, Note_off_c, 9, 43, 0
1, 122280, Note_off_c, 9, 42, 0
1, 122280, Note_on_c, 2, 55, 110
1, 122280, Note_on_c, 0, 67, 110
1, 122280, Note_on_c, 1, 59, 110
1, 122320, Note_on_c, 9, 50, 100
1, 122360, Note_off_c, 0, 67, 0
1, 122360, Note_off_c, 1, 59, 0
1, 122360, Note_off_c, 2, 55, 0
1, 122400, Note_on_c, 9, 45, 100
1, 122400, Note_on_c, 9, 36, 100
1, 122440, Note_off_c, 9, 50, 0
1, 122520, Note_off_c, 9, 45, 0
1, 122520, Note_off_c, 9, 36, 0
1, 122560, Note_on_c, 9, 41, 100
1, 122640, Note_on_c, 9, 42, 100
1, 122640, Note_on_c, 9, 45, 100
1, 122640, Note_on_c, 1, 64, 95
1, 122640, Note_on_c, 2, 57, 95
1, 122640, Note_on_c, 0, 69, 95
1, 122680, Note_off_c, 9, 41, 0
1, 122720, Note_off_c, 0, 69, 0
1, 122720, Note_off_c, 1, 64, 0
1, 122720, Note_off_c, 2, 57, 0
1, 122760, Note_off_c, 9, 45, 0
1, 122760, Note_off_c, 9, 42, 0
1, 122800, Note_on_c, 9, 41, 90
1, 122880, Note_on_c, 1, 58, 110
1, 122880, Note_on_c, 0, 64, 110
1, 122880, Note_on_c, 2, 52, 110
1, 122880, Note_on_c, 9, 36, 100
1, 122880, Note_on_c, 9, 45, 100
1, 122920, Note_off_c, 9, 41, 0
1, 122960, Note_off_c, 0, 64, 0
1, 122960, Note_off_c, 1, 58, 0
1, 122960, Note_off_c, 2, 52, 0
1, 123000, Note_off_c, 9, 36, 0
1, 123000, Note_off_c, 9, 45, 0
1, 123120, Note_on_c, 9, 45, 100
1, 123120, Note_on_c, 9, 42, 100
1, 123240, Note_off_c, 9, 45, 0
1, 123240, Note_off_c, 9, 42, 0
1, 123240, Note_on_c, 0, 67, 110
1, 123240, Note_on_c, 1, 59, 110
1, 123240, Note_on_c, 2, 55, 110
1, 123320, Note_off_c, 2, 55, 0
1, 123320, Note_off_c, 0, 67, 0
1, 123320, Note_off_c, 1, 59, 0
1, 123360, Note_on_c, 9, 43, 100
1, 123360, Note_on_c, 9, 36, 100
1, 123480, Note_off_c, 9, 43, 0
1, 123480, Note_off_c, 9, 36, 0
1, 123520, Note_on_c, 9, 50, 100
1, 123600, Note_on_c, 0, 69, 95
1, 123600, Note_on_c, 1, 64, 95
1, 123600, Note_on_c, 2, 57, 95
1, 123600, Note_on_c, 9, 42, 100
1, 123600, Note_on_c, 9, 47, 100
1, 123640, Note_off_c, 9, 50, 0
1, 123680, Note_off_c, 0, 69, 0
1, 123680, Note_off_c, 2, 57, 0
1, 123680, Note_off_c, 1, 64, 0
1, 123720, Note_off_c, 9, 47, 0
1, 123720, Note_off_c, 9, 42, 0
1, 123760, Note_on_c, 9, 43, 100
1, 123760, Note_on_c, 9, 50, 90
1, 123840, Note_on_c, 2, 55, 110
1, 123840, Note_on_c, 9, 36, 100
1, 123840, Note_on_c, 0, 67, 110
1, 123840, Note_on_c, 9, 45, 100
1, 123880, Note_off_c, 9, 43, 0
1, 123880, Note_off_c, 2, 55, 0
1, 123880, Note_off_c, 9, 50, 0
1, 123880, Note_on_c, 2, 57, 110
1, 123960, Note_off_c, 9, 36, 0
1, 123960, Note_off_c, 9, 45, 0
1, 123960, Note_off_c, 2, 57, 0
1, 123960, Note_on_c, 2, 55, 110
1, 124000, Note_off_c, 2, 55, 0
1, 124000, Note_off_c, 0, 67, 0
1, 124000, Note_on_c, 0, 67, 110
1, 124000, Note_on_c, 2, 53, 110
1, 124000, Note_on_c, 9, 45, 100
1, 124080, Note_off_c, 0, 67, 0
1, 124080, Note_off_c, 2, 53, 0
1, 124080, Note_on_c, 2, 57, 110
1, 124080, Note_on_c, 0, 69, 110
1, 124080, Note_on_c, 1, 64, 110
1, 124080, Note_on_c, 9, 43, 100
1, 124080, Note_on_c, 9, 42, 100
1, 124120, Note_off_c, 9, 45, 0
1, 124200, Note_off_c, 9, 42, 0
1, 124200, Note_off_c, 9, 43, 0
1, 124240, Note_off_c, 2, 57, 0
1, 124240, Note_off_c, 0, 69, 0
1, 124240, Note_off_c, 1, 64, 0
1, 124240, Note_on_c, 0, 67, 110
1, 124240, Note_on_c, 1, 62, 110
1, 124240, Note_on_c, 9, 50, 100
1, 124240, Note_on_c, 2, 55, 110
1, 124320, Note_off_c, 0, 67, 0
1, 124320, Note_off_c, 2, 55, 0
1, 124320, Note_off_c, 1, 62, 0
1, 124320, Note_on_c, 9, 45, 100
1, 124320, Note_on_c, 9, 36, 100
1, 124360, Note_off_c, 9, 50, 0
1, 124440, Note_off_c, 9, 45, 0
1, 124440, Note_off_c, 9, 36, 0
1, 124480, Note_on_c, 9, 41, 100
1, 124560, Note_on_c, 9, 45, 100
1, 124560, Note_on_c, 9, 42, 100
1, 124600, Note_off_c, 9, 41, 0
1, 124680, Note_off_c, 9, 45, 0
1, 124680, Note_off_c, 9, 42, 0
1, 124720, Note_on_c, 9, 41, 90
1, 124800, Note_on_c, 1, 58, 110
1, 124800, Note_on_c, 9, 45, 100
1, 124800, Note_on_c, 9, 36, 100
1, 124800, Note_on_c, 2, 52, 110
1, 124800, Note_on_c, 0, 64, 110
1, 124840, Note_off_c, 9, 41, 0
1, 124880, Note_off_c, 0, 64, 0
1, 124880, Note_off_c, 2, 52, 0
1, 124880, Note_off_c, 1, 58, 0
1, 124920, Note_off_c, 9, 45, 0
1, 124920, Note_off_c, 9, 36, 0
1, 125040, Note_on_c, 9, 45, 100
1, 125040, Note_on_c, 9, 42, 100
1, 125160, Note_off_c, 9, 45, 0
1, 125160, Note_off_c, 9, 42, 0
1, 125160, Note_on_c, 0, 67, 110
1, 125160, Note_on_c, 1, 59, 110
1, 125160, Note_on_c, 2, 55, 110
1, 125240, Note_off_c, 2, 55, 0
1, 125240, Note_off_c, 0, 67, 0
1, 125240, Note_off_c, 1, 59, 0
1, 125280, Note_on_c, 9, 43, 100
1, 125280, Note_on_c, 9, 36, 100
1, 125400, Note_off_c, 9, 43, 0
1, 125400, Note_off_c, 9, 36, 0
1, 125440, Note_on_c, 9, 50, 100
1, 125520, Note_on_c, 0, 69, 95
1, 125520, Note_on_c, 2, 57, 95
1, 125520, Note_on_c, 1, 64, 95
1, 125520, Note_on_c, 9, 42, 100
1, 125520, Note_on_c, 9, 47, 100
1, 125560, Note_off_c, 9, 50, 0
1, 125600, Note_off_c, 1, 64, 0
1, 125600, Note_off_c, 2, 57, 0
1, 125600, Note_off_c, 0, 69, 0
1, 125640, Note_off_c, 9, 42, 0
1, 125640, Note_off_c, 9, 47, 0
1, 125680, Note_on_c, 9, 50, 90
1, 125680, Note_on_c, 9, 43, 100
1, 125760, Note_on_c, 9, 36, 100
1, 125760, Note_on_c, 1, 58, 110
1, 125760, Note_on_c, 9, 45, 100
1, 125760, Note_on_c, 0, 64, 110
1, 125760, Note_on_c, 2, 52, 110
1, 125800, Note_off_c, 9, 43, 0
1, 125800, Note_off_c, 9, 50, 0
1, 125840, Note_off_c, 0, 64, 0
1, 125840, Note_off_c, 1, 58, 0
1, 125840, Note_off_c, 2, 52, 0
1, 125880, Note_off_c, 9, 36, 0
1, 125880, Note_off_c, 9, 45, 0
1, 125920, Note_on_c, 9, 45, 100
1, 126000, Note_on_c, 9, 42, 100
1, 126000, Note_on_c, 9, 43, 100
1, 126040, Note_off_c, 9, 45, 0
1, 126120, Note_off_c, 9, 43, 0
1, 126120, Note_off_c, 9, 42, 0
1, 126120, Note_on_c, 0, 67, 110
1, 126120, Note_on_c, 1, 59, 110
1, 126120, Note_on_c, 2, 55, 110
1, 126160, Note_on_c, 9, 50, 100
1, 126200, Note_off_c, 2, 55, 0
1, 126200, Note_off_c, 0, 67, 0
1, 126200, Note_off_c, 1, 59, 0
1, 126240, Note_on_c, 9, 45, 100
1, 126240, Note_on_c, 9, 36, 100
1, 126280, Note_off_c, 9, 50, 0
1, 126360, Note_off_c, 9, 36, 0
1, 126360, Note_off_c, 9, 45, 0
1, 126400, Note_on_c, 9, 41, 100
1, 126480, Note_on_c, 9, 45, 100
1, 126480, Note_on_c, 1, 64, 95
1, 126480, Note_on_c, 9, 42, 100
1, 126480, Note_on_c, 2, 57, 95
1, 126480, Note_on_c, 0, 69, 95
1, 126520, Note_off_c, 9, 41, 0
1, 126560, Note_off_c, 1, 64, 0
1, 126560, Note_off_c, 2, 57, 0
1, 126560, Note_off_c, 0, 69, 0
1, 126600, Note_off_c, 9, 42, 0
1, 126600, Note_off_c, 9, 45, 0
1, 126640, Note_on_c, 9, 41, 90
1, 126720, Note_on_c, 9, 36, 100
1, 126720, Note_on_c, 9, 45, 100
1, 126720, Note_on_c, 2, 52, 110
1, 126720, Note_on_c, 0, 64, 110
1, 126720, Note_on_c, 1, 58, 110
1, 126760, Note_off_c, 9, 41, 0
1, 126800, Note_off_c, 2, 52, 0
1, 126800, Note_off_c, 0, 64, 0
1, 126800, Note_off_c, 1, 58, 0
1, 126840, Note_off_c, 9, 36, 0
1, 126840, Note_off_c, 9, 45, 0
1, 126960, Note_on_c, 9, 42, 100
1, 126960, Note_on_c, 9, 45, 100
1, 127080, Note_off_c, 9, 45, 0
1, 127080, Note_off_c, 9, 42, 0
1, 127080, Note_on_c, 0, 67, 110
1, 127080, Note_on_c, 1, 59, 110
1, 127080, Note_on_c, 2, 55, 108
1, 127160, Note_off_c, 2, 55, 0
1, 127160, Note_off_c, 0, 67, 0
1, 127160, Note_off_c, 1, 59, 0
1, 127200, Note_on_c, 9, 43, 100
1, 127200, Note_on_c, 9, 36, 100
1, 127320, Note_off_c, 9, 43, 0
1, 127320, Note_off_c, 9, 36, 0
1, 127360, Note_on_c, 9, 50, 100
1, 127440, Note_on_c, 1, 64, 95
1, 127440, Note_on_c, 9, 47, 100
1, 127440, Note_on_c, 0, 69, 95
1, 127440, Note_on_c, 9, 42, 100
1, 127440, Note_on_c, 2, 57, 95
1, 127480, Note_off_c, 9, 50, 0
1, 127520, Note_off_c, 2, 57, 0
1, 127520, Note_off_c, 0, 69, 0
1, 127520, Note_off_c, 1, 64, 0
1, 127560, Note_off_c, 9, 47, 0
1, 127560, Note_off_c, 9, 42, 0
1, 127600, Note_on_c, 9, 43, 100
1, 127600, Note_on_c, 9, 50, 90
1, 127680, Note_on_c, 2, 55, 110
1, 127680, Note_on_c, 0, 67, 110
1, 127680, Note_on_c, 9, 45, 100
1, 127680, Note_on_c, 1, 62, 110
1, 127680, Note_on_c, 9, 36, 100
1, 127720, Note_off_c, 9, 43, 0
1, 127720, Note_off_c, 9, 50, 0
1, 127800, Note_off_c, 9, 36, 0
1, 127800, Note_off_c, 9, 45, 0
1, 127840, Note_off_c, 2, 55, 0
1, 127840, Note_off_c, 0, 67, 0
1, 127840, Note_off_c, 1, 62, 0
1, 127840, Note_on_c, 0, 64, 110
1, 127840, Note_on_c, 2, 52, 110
1, 127840, Note_on_c, 1, 58, 110
1, 127840, Note_on_c, 9, 45, 100
1, 127920, Note_off_c, 0, 64, 0
1, 127920, Note_off_c, 1, 58, 0
1, 127920, Note_off_c, 2, 52, 0
1, 127920, Note_on_c, 9, 42, 100
1, 127920, Note_on_c, 9, 43, 100
1, 127960, Note_off_c, 9, 45, 0
1, 128040, Note_off_c, 9, 42, 0
1, 128040, Note_off_c, 9, 43, 0
1, 128080, Note_on_c, 0, 63, 110
1, 128080, Note_on_c, 9, 50, 100
1, 128080, Note_on_c, 1, 59, 108
1, 128080, Note_on_c, 2, 51, 110
1, 128160, Note_on_c, 9, 36, 100
1, 128160, Note_on_c, 9, 45, 100
1, 128200, Note_off_c, 9, 50, 0
1, 128280, Note_off_c, 9, 45, 0
1, 128280, Note_off_c, 9, 36, 0
1, 128320, Note_on_c, 9, 41, 100
1, 128400, Note_on_c, 9, 45, 100
1, 128400, Note_on_c, 9, 42, 100
1, 128440, Note_off_c, 9, 41, 0
1, 128520, Note_off_c, 9, 45, 0
1, 128520, Note_off_c, 2, 51, 0
1, 128520, Note_off_c, 0, 63, 0
1, 128520, Note_off_c, 9, 42, 0
1, 128560, Note_on_c, 9, 41, 90
1, 128640, Note_off_c, 1, 59, 0
1, 128640, Note_on_c, 2, 52, 102
1, 128640, Note_on_c, 1, 58, 110
1, 128640, Note_on_c, 0, 64, 102
1, 128640, Note_on_c, 9, 36, 100
1, 128640, Note_on_c, 9, 49, 100
1, 128640, Note_on_c, 9, 45, 100
1, 128680, Note_off_c, 9, 41, 0
1, 128720, Note_off_c, 0, 64, 0
1, 128720, Note_off_c, 1, 58, 0
1, 128720, Note_off_c, 2, 52, 0
1, 128760, Note_off_c, 9, 45, 0
1, 128760, Note_off_c, 9, 49, 0
1, 128760, Note_off_c, 9, 36, 0
1, 128880, Note_on_c, 9, 45, 100
1, 128880, Note_on_c, 9, 39, 78
1, 128880, Note_on_c, 9, 42, 100
1, 129000, Note_off_c, 9, 45, 0
1, 129000, Note_off_c, 9, 42, 0
1, 129000, Note_off_c, 9, 39, 0
1, 129000, Note_on_c, 1, 59, 102
1, 129000, Note_on_c, 2, 55, 102
1, 129000, Note_on_c, 0, 67, 102
1, 129080, Note_off_c, 0, 67, 0
1, 129080, Note_off_c, 1, 59, 0
1, 129080, Note_off_c, 2, 55, 0
1, 129120, Note_on_c, 9, 43, 100
1, 129120, Note_on_c, 9, 36, 100
1, 129240, Note_off_c, 9, 43, 0
1, 129240, Note_off_c, 9, 36, 0
1, 129280, Note_on_c, 9, 50, 100
1, 129360, Note_on_c, 2, 57, 84
1, 129360, Note_on_c, 9, 42, 100
1, 129360, Note_on_c, 9, 47, 100
1, 129360, Note_on_c, 9, 39, 54
1, 129360, Note_on_c, 0, 69, 84
1, 129360, Note_on_c, 1, 64, 84
1, 129400, Note_off_c, 9, 50, 0
1, 129440, Note_off_c, 0, 69, 0
1, 129440, Note_off_c, 1, 64, 0
1, 129440, Note_off_c, 2, 57, 0
1, 129480, Note_off_c, 9, 42, 0
1, 129480, Note_off_c, 9, 47, 0
1, 129480, Note_off_c, 9, 39, 0
1, 129520, Note_on_c, 9, 50, 90
1, 129520, Note_on_c, 9, 43, 100
1, 129600, Note_on_c, 1, 58, 102
1, 129600, Note_on_c, 9, 36, 100
1, 129600, Note_on_c, 9, 45, 100
1, 129600, Note_on_c, 2, 52, 96
1, 129600, Note_on_c, 0, 64, 96
1, 129640, Note_off_c, 9, 50, 0
1, 129640, Note_off_c, 9, 43, 0
1, 129680, Note_off_c, 2, 52, 0
1, 129680, Note_off_c, 0, 64, 0
1, 129680, Note_off_c, 1, 58, 0
1, 129720, Note_off_c, 9, 45, 0
1, 129720, Note_off_c, 9, 36, 0
1, 129760, Note_on_c, 9, 45, 100
1, 129840, Note_on_c, 9, 42, 100
1, 129840, Note_on_c, 9, 43, 100
1, 129840, Note_on_c, 9, 39, 30
1, 129880, Note_off_c, 9, 45, 0
1, 129960, Note_off_c, 9, 42, 0
1, 129960, Note_off_c, 9, 43, 0
1, 129960, Note_off_c, 9, 39, 0
1, 129960, Note_on_c, 1, 59, 96
1, 129960, Note_on_c, 2, 55, 90
1, 129960, Note_on_c, 0, 67, 90
1, 130000, Note_on_c, 9, 50, 100
1, 130040, Note_off_c, 0, 67, 0
1, 130040, Note_off_c, 2, 55, 0
1, 130040, Note_off_c, 1, 59, 0
1, 130080, Note_on_c, 9, 36, 100
1, 130080, Note_on_c, 9, 45, 100
1, 130120, Note_off_c, 9, 50, 0
1, 130200, Note_off_c, 9, 36, 0
1, 130200, Note_off_c, 9, 45, 0
1, 130240, Note_on_c, 9, 41, 100
1, 130320, Note_on_c, 9, 42, 100
1, 130320, Note_on_c, 0, 69, 66
1, 130320, Note_on_c, 9, 39, 18
1, 130320, Note_on_c, 2, 57, 66
1, 130320, Note_on_c, 9, 45, 100
1, 130320, Note_on_c, 1, 64, 78
1, 130360, Note_off_c, 9, 41, 0
1, 130400, Note_off_c, 0, 69, 0
1, 130400, Note_off_c, 1, 64, 0
1, 130400, Note_off_c, 2, 57, 0
1, 130440, Note_off_c, 9, 39, 0
1, 130440, Note_off_c, 9, 42, 0
1, 130440, Note_off_c, 9, 45, 0
1, 130480, Note_on_c, 9, 41, 90
1, 130560, Note_on_c, 0, 64, 84
1, 130560, Note_on_c, 2, 52, 84
1, 130560, Note_on_c, 9, 45, 100
1, 130560, Note_on_c, 9, 36, 100
1, 130560, Note_on_c, 1, 58, 96
1, 130600, Note_off_c, 9, 41, 0
1, 130640, Note_off_c, 0, 64, 0
1, 130640, Note_off_c, 2, 52, 0
1, 130640, Note_off_c, 1, 58, 0
1, 130680, Note_off_c, 9, 36, 0
1, 130680, Note_off_c, 9, 45, 0
1, 130920, Note_on_c, 1, 59, 90
1, 130920, Note_on_c, 0, 67, 84
1, 130920, Note_on_c, 2, 55, 78
1, 131000, Note_off_c, 2, 55, 0
1, 131000, Note_off_c, 0, 67, 0
1, 131000, Note_off_c, 1, 59, 0
1, 131280, Note_on_c, 0, 69, 66
1, 131280, Note_on_c, 1, 64, 72
1, 131280, Note_on_c, 2, 57, 54
1, 131360, Note_off_c, 0, 69, 0
1, 131360, Note_off_c, 2, 57, 0
1, 131360, Note_off_c, 1, 64, 0
1, 131520, Note_on_c, 0, 67, 78
1, 131520, Note_on_c, 2, 55, 72
1, 131560, Note_off_c, 2, 55, 0
1, 131560, Note_on_c, 2, 57, 72
1, 131640, Note_off_c, 2, 57, 0
1, 131640, Note_on_c, 2, 55, 66
1, 131680, Note_off_c, 0, 67, 0
1, 131680, Note_off_c, 2, 55, 0
1, 131680, Note_on_c, 0, 67, 78
1, 131680, Note_on_c, 2, 53, 66
1, 131760, Note_off_c, 0, 67, 0
1, 131760, Note_off_c, 2, 53, 0
1, 131760, Note_on_c, 1, 64, 90
1, 131760, Note_on_c, 0, 69, 78
1, 131760, Note_on_c, 2, 57, 66
1, 131920, Note_off_c, 2, 57, 0
1, 131920, Note_off_c, 0, 69, 0
1, 131920, Note_off_c, 1, 64, 0
1, 131920, Note_on_c, 1, 62, 90
1, 131920, Note_on_c, 0, 67, 72
1, 131920, Note_on_c, 2, 55, 60
1, 132000, Note_off_c, 2, 55, 0
1, 132000, Note_off_c, 0, 67, 0
1, 132000, Note_off_c, 1, 62, 0
1, 132240, Note_on_c, 3, 35, 66
1, 132280, Note_off_c, 3, 35, 0
1, 132280, Note_on_c, 3, 37, 66
1, 132360, Note_off_c, 3, 37, 0
1, 132360, Note_on_c, 3, 38, 66
1, 132400, Note_off_c, 3, 38, 0
1, 132400, Note_on_c, 3, 39, 60
1, 132480, Note_off_c, 3, 39, 0
1, 132480, Note_on_c, 1, 58, 84
1, 132480, Note_on_c, 0, 64, 48
1, 132480, Note_on_c, 3, 40, 30
1, 132480, Note_on_c, 2, 52, 54
1, 132560, Note_off_c, 2, 52, 0
1, 132560, Note_off_c, 0, 64, 0
1, 132560, Note_off_c, 1, 58, 0
1, 132840, Note_on_c, 2, 55, 48
1, 132840, Note_on_c, 1, 59, 78
1, 132840, Note_on_c, 0, 67, 48
1, 132920, Note_off_c, 1, 59, 0
1, 132920, Note_off_c, 0, 67, 0
1, 132920, Note_off_c, 2, 55, 0
1, 133200, Note_on_c, 1, 64, 54
1, 133200, Note_on_c, 2, 57, 30
1, 133200, Note_on_c, 0, 69, 30
1, 133280, Note_off_c, 2, 57, 0
1, 133280, Note_off_c, 0, 69, 0
1, 133280, Note_off_c, 1, 64, 0
1, 133440, Note_on_c, 0, 64, 36
1, 133440, Note_on_c, 2, 52, 48
1, 133440, Note_on_c, 1, 58, 60
1, 133520, Note_off_c, 0, 64, 0
1, 133520, Note_off_c, 1, 58, 0
1, 133520, Note_off_c, 2, 52, 0
1, 133800, Note_on_c, 2, 55, 36
1, 133800, Note_on_c, 0, 67, 36
1, 133800, Note_on_c, 1, 59, 48
1, 133880, Note_off_c, 2, 55, 0
1, 133880, Note_off_c, 0, 67, 0
1, 133880, Note_off_c, 1, 59, 0
1, 134160, Note_on_c, 0, 69, 18
1, 134160, Note_on_c, 2, 57, 18
1, 134160, Note_on_c, 1, 64, 18
1, 134240, Note_off_c, 2, 57, 0
1, 134240, Note_off_c, 1, 64, 0
1, 134240, Note_off_c, 0, 69, 0
1, 134400, Note_on_c, 2, 58, 36
1, 134400, Note_on_c, 0, 70, 30
1, 134400, Note_on_c, 1, 64, 18
1, 134480, Note_off_c, 2, 58, 0
1, 134480, Note_off_c, 0, 70, 0
1, 134480, Note_off_c, 1, 64, 0
1, 134760, Note_on_c, 1, 64, 12
1, 134760, Note_on_c, 0, 71, 24
1, 134760, Note_on_c, 2, 59, 30
1, 134840, Note_off_c, 1, 64, 0
1, 134840, Note_off_c, 0, 71, 0
1, 134840, Note_off_c, 2, 59, 0
1, 135120, Note_on_c, 1, 64, 6
1, 135120, Note_on_c, 2, 62, 24
1, 135120, Note_on_c, 0, 74, 24
1, 135200, Note_off_c, 2, 62, 0
1, 135200, Note_off_c, 0, 74, 0
1, 135200, Note_off_c, 1, 64, 0
1, 135360, Note_off_c, 3, 40, 0
1, 135480, Note_on_c, 2, 64, 18
1, 135480, Note_on_c, 0, 76, 12
1, 135840, Note_off_c, 0, 76, 0
1, 135840, Note_off_c, 2, 64, 0
1, 135840, Note_on_c, 2, 65, 12
1, 135840, Note_on_c, 0, 77, 6
1, 135920, Note_off_c, 2, 65, 0
1, 135920, Note_off_c, 0, 77, 0
1, 136080, Note_on_c, 2, 66, 6
1, 136080, Note_on_c, 0, 78, 6
1, 136160, Note_off_c, 2, 66, 0
1, 136160, Note_off_c, 0, 78, 0
1, 136160, End_track
0, 0, End_of_file
