0, 0, Header, 1, 17, 120
1, 0, Start_track
1, 0, Title_t, "untitled"
1, 0, Text_t, "\012"
1, 0, Text_t, " \012"
1, 0, System_exclusive, 10, 65, 16, 66, 18, 0, 0, 127, 0, 1, 247
1, 0, System_exclusive, 10, 65, 16, 66, 18, 64, 1, 51, 100, 40, 247
1, 0, System_exclusive, 10, 65, 16, 66, 18, 64, 1, 52, 100, 39, 247
1, 0, System_exclusive, 10, 65, 16, 66, 18, 64, 1, 56, 4, 3, 247
1, 0, System_exclusive, 10, 65, 16, 66, 18, 64, 1, 58, 80, 53, 247
1, 0, System_exclusive, 10, 65, 16, 66, 18, 64, 2, 1, 68, 121, 247
1, 0, System_exclusive, 10, 65, 16, 66, 18, 64, 2, 2, 1, 59, 247
1, 0, System_exclusive, 10, 65, 16, 66, 18, 64, 2, 3, 68, 119, 247
1, 0, System_exclusive, 10, 65, 16, 66, 18, 64, 26, 21, 2, 15, 247
1, 0, Time_signature, 3, 2, 24, 8
1, 0, Key_signature, 0, "major"
1, 0, Tempo, 405405
1, 0, End_track
2, 0, Start_track
2, 0, Title_t, "A1-Strings     "
2, 0, Control_c, 0, 0, 0
2, 0, Control_c, 0, 32, 2
2, 0, Program_c, 0, 48
2, 0, Control_c, 0, 7, 100
2, 0, Control_c, 0, 10, 106
2, 60, Text_t, "Start of Setup by GSAE"
2, 81, Control_c, 0, 91, 40
2, 82, Control_c, 0, 93, 0
2, 85, Control_c, 0, 99, 1
2, 85, Control_c, 0, 98, 102
2, 85, Control_c, 0, 6, 68
2, 85, Control_c, 0, 38, 0
2, 231, Text_t, "End of Setup by GSAE"
2, 686, Control_c, 0, 99, 1
2, 686, Control_c, 0, 98, 102
2, 686, Control_c, 0, 6, 68
2, 686, Control_c, 0, 38, 1
2, 1080, Note_on_c, 0, 62, 100
2, 1080, Note_on_c, 0, 55, 100
2, 1107, Note_on_c, 0, 55, 0
2, 1107, Note_on_c, 0, 62, 0
2, 1260, Note_on_c, 0, 62, 100
2, 1260, Note_on_c, 0, 55, 100
2, 1287, Note_on_c, 0, 55, 0
2, 1287, Note_on_c, 0, 62, 0
2, 1440, Note_on_c, 0, 62, 100
2, 1440, Note_on_c, 0, 55, 100
2, 1467, Note_on_c, 0, 55, 0
2, 1467, Note_on_c, 0, 62, 0
2, 1560, Note_on_c, 0, 62, 100
2, 1560, Note_on_c, 0, 55, 100
2, 1587, Note_on_c, 0, 55, 0
2, 1587, Note_on_c, 0, 62, 0
2, 1680, Note_on_c, 0, 62, 100
2, 1680, Note_on_c, 0, 55, 100
2, 1707, Note_on_c, 0, 55, 0
2, 1707, Note_on_c, 0, 62, 0
2, 1800, Note_on_c, 0, 62, 100
2, 1800, Note_on_c, 0, 55, 100
2, 1827, Note_on_c, 0, 55, 0
2, 1827, Note_on_c, 0, 62, 0
2, 1980, Note_on_c, 0, 62, 100
2, 1980, Note_on_c, 0, 55, 100
2, 2007, Note_on_c, 0, 55, 0
2, 2007, Note_on_c, 0, 62, 0
2, 2160, Note_on_c, 0, 62, 100
2, 2160, Note_on_c, 0, 55, 100
2, 2187, Note_on_c, 0, 55, 0
2, 2187, Note_on_c, 0, 62, 0
2, 2280, Note_on_c, 0, 62, 100
2, 2280, Note_on_c, 0, 55, 100
2, 2307, Note_on_c, 0, 55, 0
2, 2307, Note_on_c, 0, 62, 0
2, 2400, Note_on_c, 0, 62, 100
2, 2400, Note_on_c, 0, 55, 100
2, 2427, Note_on_c, 0, 55, 0
2, 2427, Note_on_c, 0, 62, 0
2, 2520, Note_on_c, 0, 62, 100
2, 2520, Note_on_c, 0, 55, 100
2, 2547, Note_on_c, 0, 55, 0
2, 2547, Note_on_c, 0, 62, 0
2, 2700, Note_on_c, 0, 62, 100
2, 2700, Note_on_c, 0, 55, 100
2, 2727, Note_on_c, 0, 55, 0
2, 2727, Note_on_c, 0, 62, 0
2, 2880, Note_on_c, 0, 62, 100
2, 2880, Note_on_c, 0, 55, 100
2, 2907, Note_on_c, 0, 55, 0
2, 2907, Note_on_c, 0, 62, 0
2, 3000, Note_on_c, 0, 62, 100
2, 3000, Note_on_c, 0, 55, 100
2, 3027, Note_on_c, 0, 55, 0
2, 3027, Note_on_c, 0, 62, 0
2, 3120, Note_on_c, 0, 62, 100
2, 3120, Note_on_c, 0, 55, 100
2, 3147, Note_on_c, 0, 55, 0
2, 3147, Note_on_c, 0, 62, 0
2, 3240, Note_on_c, 0, 62, 100
2, 3240, Note_on_c, 0, 55, 100
2, 3267, Note_on_c, 0, 55, 0
2, 3267, Note_on_c, 0, 62, 0
2, 3420, Note_on_c, 0, 62, 100
2, 3420, Note_on_c, 0, 55, 100
2, 3447, Note_on_c, 0, 55, 0
2, 3447, Note_on_c, 0, 62, 0
2, 3600, Note_on_c, 0, 62, 100
2, 3600, Note_on_c, 0, 55, 100
2, 3627, Note_on_c, 0, 55, 0
2, 3627, Note_on_c, 0, 62, 0
2, 3720, Note_on_c, 0, 62, 100
2, 3720, Note_on_c, 0, 55, 100
2, 3747, Note_on_c, 0, 55, 0
2, 3747, Note_on_c, 0, 62, 0
2, 3840, Note_on_c, 0, 62, 100
2, 3840, Note_on_c, 0, 55, 100
2, 3867, Note_on_c, 0, 55, 0
2, 3867, Note_on_c, 0, 62, 0
2, 3960, Note_on_c, 0, 62, 100
2, 3960, Note_on_c, 0, 55, 100
2, 3987, Note_on_c, 0, 55, 0
2, 3987, Note_on_c, 0, 62, 0
2, 4140, Note_on_c, 0, 62, 100
2, 4140, Note_on_c, 0, 55, 100
2, 4167, Note_on_c, 0, 55, 0
2, 4167, Note_on_c, 0, 62, 0
2, 4320, Note_on_c, 0, 62, 100
2, 4320, Note_on_c, 0, 55, 100
2, 4347, Note_on_c, 0, 55, 0
2, 4347, Note_on_c, 0, 62, 0
2, 4440, Note_on_c, 0, 62, 100
2, 4440, Note_on_c, 0, 55, 100
2, 4467, Note_on_c, 0, 55, 0
2, 4467, Note_on_c, 0, 62, 0
2, 4560, Note_on_c, 0, 62, 100
2, 4560, Note_on_c, 0, 55, 100
2, 4587, Note_on_c, 0, 55, 0
2, 4587, Note_on_c, 0, 62, 0
2, 4680, Note_on_c, 0, 62, 100
2, 4680, Note_on_c, 0, 55, 100
2, 4707, Note_on_c, 0, 55, 0
2, 4707, Note_on_c, 0, 62, 0
2, 4860, Note_on_c, 0, 62, 100
2, 4860, Note_on_c, 0, 55, 100
2, 4887, Note_on_c, 0, 55, 0
2, 4887, Note_on_c, 0, 62, 0
2, 5040, Note_on_c, 0, 62, 100
2, 5040, Note_on_c, 0, 55, 100
2, 5067, Note_on_c, 0, 55, 0
2, 5067, Note_on_c, 0, 62, 0
2, 5160, Note_on_c, 0, 62, 100
2, 5160, Note_on_c, 0, 55, 100
2, 5187, Note_on_c, 0, 55, 0
2, 5187, Note_on_c, 0, 62, 0
2, 5280, Note_on_c, 0, 62, 100
2, 5280, Note_on_c, 0, 55, 100
2, 5307, Note_on_c, 0, 55, 0
2, 5307, Note_on_c, 0, 62, 0
2, 5400, Note_on_c, 0, 62, 100
2, 5400, Note_on_c, 0, 55, 100
2, 5427, Note_on_c, 0, 55, 0
2, 5427, Note_on_c, 0, 62, 0
2, 5580, Note_on_c, 0, 62, 100
2, 5580, Note_on_c, 0, 55, 100
2, 5607, Note_on_c, 0, 55, 0
2, 5607, Note_on_c, 0, 62, 0
2, 5760, Note_on_c, 0, 62, 100
2, 5760, Note_on_c, 0, 55, 100
2, 5787, Note_on_c, 0, 55, 0
2, 5787, Note_on_c, 0, 62, 0
2, 5880, Note_on_c, 0, 62, 100
2, 5880, Note_on_c, 0, 55, 100
2, 5907, Note_on_c, 0, 55, 0
2, 5907, Note_on_c, 0, 62, 0
2, 6000, Note_on_c, 0, 62, 100
2, 6000, Note_on_c, 0, 55, 100
2, 6027, Note_on_c, 0, 55, 0
2, 6027, Note_on_c, 0, 62, 0
2, 6120, Note_on_c, 0, 62, 100
2, 6120, Note_on_c, 0, 55, 100
2, 6147, Note_on_c, 0, 55, 0
2, 6147, Note_on_c, 0, 62, 0
2, 6300, Note_on_c, 0, 62, 100
2, 6300, Note_on_c, 0, 55, 100
2, 6327, Note_on_c, 0, 55, 0
2, 6327, Note_on_c, 0, 62, 0
2, 6480, Note_on_c, 0, 62, 100
2, 6480, Note_on_c, 0, 55, 100
2, 6507, Note_on_c, 0, 55, 0
2, 6507, Note_on_c, 0, 62, 0
2, 6600, Note_on_c, 0, 62, 100
2, 6600, Note_on_c, 0, 55, 100
2, 6627, Note_on_c, 0, 55, 0
2, 6627, Note_on_c, 0, 62, 0
2, 6720, Note_on_c, 0, 62, 100
2, 6720, Note_on_c, 0, 55, 100
2, 6747, Note_on_c, 0, 55, 0
2, 6747, Note_on_c, 0, 62, 0
2, 6840, Note_on_c, 0, 62, 100
2, 6840, Note_on_c, 0, 55, 100
2, 6867, Note_on_c, 0, 55, 0
2, 6867, Note_on_c, 0, 62, 0
2, 7020, Note_on_c, 0, 62, 100
2, 7020, Note_on_c, 0, 55, 100
2, 7047, Note_on_c, 0, 55, 0
2, 7047, Note_on_c, 0, 62, 0
2, 7200, Note_on_c, 0, 62, 100
2, 7200, Note_on_c, 0, 55, 100
2, 7227, Note_on_c, 0, 55, 0
2, 7227, Note_on_c, 0, 62, 0
2, 7320, Note_on_c, 0, 62, 100
2, 7320, Note_on_c, 0, 55, 100
2, 7347, Note_on_c, 0, 55, 0
2, 7347, Note_on_c, 0, 62, 0
2, 7440, Note_on_c, 0, 62, 100
2, 7440, Note_on_c, 0, 55, 100
2, 7467, Note_on_c, 0, 55, 0
2, 7467, Note_on_c, 0, 62, 0
2, 7560, Note_on_c, 0, 62, 100
2, 7560, Note_on_c, 0, 55, 100
2, 7587, Note_on_c, 0, 55, 0
2, 7587, Note_on_c, 0, 62, 0
2, 7740, Note_on_c, 0, 62, 100
2, 7740, Note_on_c, 0, 55, 100
2, 7767, Note_on_c, 0, 55, 0
2, 7767, Note_on_c, 0, 62, 0
2, 7920, Note_on_c, 0, 62, 100
2, 7920, Note_on_c, 0, 55, 100
2, 7947, Note_on_c, 0, 55, 0
2, 7947, Note_on_c, 0, 62, 0
2, 8040, Note_on_c, 0, 62, 100
2, 8040, Note_on_c, 0, 55, 100
2, 8067, Note_on_c, 0, 55, 0
2, 8067, Note_on_c, 0, 62, 0
2, 8160, Note_on_c, 0, 62, 100
2, 8160, Note_on_c, 0, 55, 100
2, 8187, Note_on_c, 0, 55, 0
2, 8187, Note_on_c, 0, 62, 0
2, 8280, Note_on_c, 0, 62, 100
2, 8280, Note_on_c, 0, 55, 100
2, 8307, Note_on_c, 0, 55, 0
2, 8307, Note_on_c, 0, 62, 0
2, 8460, Note_on_c, 0, 62, 100
2, 8460, Note_on_c, 0, 55, 100
2, 8487, Note_on_c, 0, 55, 0
2, 8487, Note_on_c, 0, 62, 0
2, 8640, Note_on_c, 0, 62, 100
2, 8640, Note_on_c, 0, 55, 100
2, 8667, Note_on_c, 0, 55, 0
2, 8667, Note_on_c, 0, 62, 0
2, 8760, Note_on_c, 0, 62, 100
2, 8760, Note_on_c, 0, 55, 100
2, 8787, Note_on_c, 0, 55, 0
2, 8787, Note_on_c, 0, 62, 0
2, 8880, Note_on_c, 0, 62, 100
2, 8880, Note_on_c, 0, 55, 100
2, 8907, Note_on_c, 0, 55, 0
2, 8907, Note_on_c, 0, 62, 0
2, 9000, Note_on_c, 0, 62, 100
2, 9000, Note_on_c, 0, 55, 100
2, 9027, Note_on_c, 0, 55, 0
2, 9027, Note_on_c, 0, 62, 0
2, 9180, Note_on_c, 0, 62, 100
2, 9180, Note_on_c, 0, 55, 100
2, 9207, Note_on_c, 0, 55, 0
2, 9207, Note_on_c, 0, 62, 0
2, 9360, Note_on_c, 0, 62, 100
2, 9360, Note_on_c, 0, 55, 100
2, 9387, Note_on_c, 0, 55, 0
2, 9387, Note_on_c, 0, 62, 0
2, 9480, Note_on_c, 0, 62, 100
2, 9480, Note_on_c, 0, 55, 100
2, 9507, Note_on_c, 0, 55, 0
2, 9507, Note_on_c, 0, 62, 0
2, 9600, Note_on_c, 0, 62, 100
2, 9600, Note_on_c, 0, 55, 100
2, 9627, Note_on_c, 0, 55, 0
2, 9627, Note_on_c, 0, 62, 0
2, 9720, Note_on_c, 0, 62, 100
2, 9720, Note_on_c, 0, 55, 100
2, 9747, Note_on_c, 0, 55, 0
2, 9747, Note_on_c, 0, 62, 0
2, 9900, Note_on_c, 0, 62, 100
2, 9900, Note_on_c, 0, 55, 100
2, 9927, Note_on_c, 0, 55, 0
2, 9927, Note_on_c, 0, 62, 0
2, 10080, Note_on_c, 0, 62, 100
2, 10080, Note_on_c, 0, 55, 100
2, 10107, Note_on_c, 0, 55, 0
2, 10107, Note_on_c, 0, 62, 0
2, 10200, Note_on_c, 0, 62, 100
2, 10200, Note_on_c, 0, 55, 100
2, 10227, Note_on_c, 0, 55, 0
2, 10227, Note_on_c, 0, 62, 0
2, 10320, Note_on_c, 0, 62, 100
2, 10320, Note_on_c, 0, 55, 100
2, 10347, Note_on_c, 0, 55, 0
2, 10347, Note_on_c, 0, 62, 0
2, 10440, Note_on_c, 0, 65, 100
2, 10440, Note_on_c, 0, 58, 100
2, 10440, Note_on_c, 0, 70, 100
2, 10467, Note_on_c, 0, 70, 0
2, 10467, Note_on_c, 0, 58, 0
2, 10467, Note_on_c, 0, 65, 0
2, 10740, Note_on_c, 0, 65, 100
2, 10740, Note_on_c, 0, 58, 100
2, 10740, Note_on_c, 0, 70, 100
2, 10767, Note_on_c, 0, 70, 0
2, 10767, Note_on_c, 0, 58, 0
2, 10767, Note_on_c, 0, 65, 0
2, 10860, Note_on_c, 0, 65, 73
2, 10860, Note_on_c, 0, 58, 73
2, 10860, Note_on_c, 0, 70, 73
2, 10887, Note_on_c, 0, 70, 0
2, 10887, Note_on_c, 0, 58, 0
2, 10887, Note_on_c, 0, 65, 0
2, 10920, Note_on_c, 0, 65, 100
2, 10920, Note_on_c, 0, 58, 100
2, 10920, Note_on_c, 0, 70, 100
2, 10947, Note_on_c, 0, 70, 0
2, 10947, Note_on_c, 0, 58, 0
2, 10947, Note_on_c, 0, 65, 0
2, 11040, Note_on_c, 0, 65, 68
2, 11040, Note_on_c, 0, 58, 68
2, 11040, Note_on_c, 0, 70, 68
2, 11067, Note_on_c, 0, 70, 0
2, 11067, Note_on_c, 0, 58, 0
2, 11067, Note_on_c, 0, 65, 0
2, 11100, Note_on_c, 0, 65, 80
2, 11100, Note_on_c, 0, 58, 80
2, 11100, Note_on_c, 0, 70, 80
2, 11127, Note_on_c, 0, 70, 0
2, 11127, Note_on_c, 0, 58, 0
2, 11127, Note_on_c, 0, 65, 0
2, 11160, Note_on_c, 0, 65, 100
2, 11160, Note_on_c, 0, 58, 100
2, 11160, Note_on_c, 0, 70, 100
2, 11187, Note_on_c, 0, 70, 0
2, 11187, Note_on_c, 0, 58, 0
2, 11187, Note_on_c, 0, 65, 0
2, 11580, Note_on_c, 0, 65, 100
2, 11580, Note_on_c, 0, 58, 100
2, 11580, Note_on_c, 0, 70, 100
2, 11607, Note_on_c, 0, 70, 0
2, 11607, Note_on_c, 0, 58, 0
2, 11607, Note_on_c, 0, 65, 0
2, 11640, Note_on_c, 0, 65, 78
2, 11640, Note_on_c, 0, 58, 78
2, 11640, Note_on_c, 0, 70, 78
2, 11667, Note_on_c, 0, 70, 0
2, 11667, Note_on_c, 0, 58, 0
2, 11667, Note_on_c, 0, 65, 0
2, 11760, Note_on_c, 0, 65, 63
2, 11760, Note_on_c, 0, 58, 63
2, 11760, Note_on_c, 0, 70, 63
2, 11787, Note_on_c, 0, 70, 0
2, 11787, Note_on_c, 0, 58, 0
2, 11787, Note_on_c, 0, 65, 0
2, 11820, Note_on_c, 0, 65, 80
2, 11820, Note_on_c, 0, 58, 80
2, 11820, Note_on_c, 0, 70, 80
2, 11847, Note_on_c, 0, 70, 0
2, 11847, Note_on_c, 0, 58, 0
2, 11847, Note_on_c, 0, 65, 0
2, 11880, Note_on_c, 0, 65, 100
2, 11880, Note_on_c, 0, 58, 100
2, 11880, Note_on_c, 0, 70, 100
2, 11907, Note_on_c, 0, 70, 0
2, 11907, Note_on_c, 0, 58, 0
2, 11907, Note_on_c, 0, 65, 0
2, 12300, Note_on_c, 0, 65, 100
2, 12300, Note_on_c, 0, 58, 100
2, 12300, Note_on_c, 0, 70, 100
2, 12327, Note_on_c, 0, 70, 0
2, 12327, Note_on_c, 0, 58, 0
2, 12327, Note_on_c, 0, 65, 0
2, 12360, Note_on_c, 0, 65, 78
2, 12360, Note_on_c, 0, 58, 78
2, 12360, Note_on_c, 0, 70, 78
2, 12387, Note_on_c, 0, 70, 0
2, 12387, Note_on_c, 0, 58, 0
2, 12387, Note_on_c, 0, 65, 0
2, 12480, Note_on_c, 0, 65, 63
2, 12480, Note_on_c, 0, 58, 63
2, 12480, Note_on_c, 0, 70, 63
2, 12507, Note_on_c, 0, 70, 0
2, 12507, Note_on_c, 0, 58, 0
2, 12507, Note_on_c, 0, 65, 0
2, 12540, Note_on_c, 0, 65, 80
2, 12540, Note_on_c, 0, 58, 80
2, 12540, Note_on_c, 0, 70, 80
2, 12567, Note_on_c, 0, 70, 0
2, 12567, Note_on_c, 0, 58, 0
2, 12567, Note_on_c, 0, 65, 0
2, 12600, Note_on_c, 0, 65, 100
2, 12600, Note_on_c, 0, 58, 100
2, 12600, Note_on_c, 0, 70, 100
2, 12627, Note_on_c, 0, 70, 0
2, 12627, Note_on_c, 0, 58, 0
2, 12627, Note_on_c, 0, 65, 0
2, 13020, Note_on_c, 0, 65, 100
2, 13020, Note_on_c, 0, 58, 100
2, 13020, Note_on_c, 0, 70, 100
2, 13047, Note_on_c, 0, 70, 0
2, 13047, Note_on_c, 0, 58, 0
2, 13047, Note_on_c, 0, 65, 0
2, 13080, Note_on_c, 0, 65, 78
2, 13080, Note_on_c, 0, 58, 78
2, 13080, Note_on_c, 0, 70, 78
2, 13107, Note_on_c, 0, 70, 0
2, 13107, Note_on_c, 0, 58, 0
2, 13107, Note_on_c, 0, 65, 0
2, 13200, Note_on_c, 0, 65, 63
2, 13200, Note_on_c, 0, 58, 63
2, 13200, Note_on_c, 0, 70, 63
2, 13227, Note_on_c, 0, 70, 0
2, 13227, Note_on_c, 0, 58, 0
2, 13227, Note_on_c, 0, 65, 0
2, 13260, Note_on_c, 0, 65, 80
2, 13260, Note_on_c, 0, 58, 80
2, 13260, Note_on_c, 0, 70, 80
2, 13287, Note_on_c, 0, 70, 0
2, 13287, Note_on_c, 0, 58, 0
2, 13287, Note_on_c, 0, 65, 0
2, 13320, Note_on_c, 0, 66, 100
2, 13320, Note_on_c, 0, 59, 100
2, 13320, Note_on_c, 0, 71, 100
2, 13347, Note_on_c, 0, 71, 0
2, 13347, Note_on_c, 0, 59, 0
2, 13347, Note_on_c, 0, 66, 0
2, 13740, Note_on_c, 0, 66, 100
2, 13740, Note_on_c, 0, 59, 100
2, 13740, Note_on_c, 0, 71, 100
2, 13767, Note_on_c, 0, 71, 0
2, 13767, Note_on_c, 0, 59, 0
2, 13767, Note_on_c, 0, 66, 0
2, 13800, Note_on_c, 0, 66, 78
2, 13800, Note_on_c, 0, 59, 78
2, 13800, Note_on_c, 0, 71, 78
2, 13827, Note_on_c, 0, 71, 0
2, 13827, Note_on_c, 0, 59, 0
2, 13827, Note_on_c, 0, 66, 0
2, 13920, Note_on_c, 0, 66, 63
2, 13920, Note_on_c, 0, 59, 63
2, 13920, Note_on_c, 0, 71, 63
2, 13947, Note_on_c, 0, 71, 0
2, 13947, Note_on_c, 0, 59, 0
2, 13947, Note_on_c, 0, 66, 0
2, 13980, Note_on_c, 0, 66, 80
2, 13980, Note_on_c, 0, 59, 80
2, 13980, Note_on_c, 0, 71, 80
2, 14007, Note_on_c, 0, 71, 0
2, 14007, Note_on_c, 0, 59, 0
2, 14007, Note_on_c, 0, 66, 0
2, 14040, Note_on_c, 0, 66, 100
2, 14040, Note_on_c, 0, 59, 100
2, 14040, Note_on_c, 0, 71, 100
2, 14067, Note_on_c, 0, 71, 0
2, 14067, Note_on_c, 0, 59, 0
2, 14067, Note_on_c, 0, 66, 0
2, 14460, Note_on_c, 0, 66, 100
2, 14460, Note_on_c, 0, 59, 100
2, 14460, Note_on_c, 0, 71, 100
2, 14487, Note_on_c, 0, 71, 0
2, 14487, Note_on_c, 0, 59, 0
2, 14487, Note_on_c, 0, 66, 0
2, 14520, Note_on_c, 0, 66, 78
2, 14520, Note_on_c, 0, 59, 78
2, 14520, Note_on_c, 0, 71, 78
2, 14547, Note_on_c, 0, 71, 0
2, 14547, Note_on_c, 0, 59, 0
2, 14547, Note_on_c, 0, 66, 0
2, 14640, Note_on_c, 0, 66, 63
2, 14640, Note_on_c, 0, 59, 63
2, 14640, Note_on_c, 0, 71, 63
2, 14667, Note_on_c, 0, 71, 0
2, 14667, Note_on_c, 0, 59, 0
2, 14667, Note_on_c, 0, 66, 0
2, 14700, Note_on_c, 0, 66, 80
2, 14700, Note_on_c, 0, 59, 80
2, 14700, Note_on_c, 0, 71, 80
2, 14727, Note_on_c, 0, 71, 0
2, 14727, Note_on_c, 0, 59, 0
2, 14727, Note_on_c, 0, 66, 0
2, 14760, Note_on_c, 0, 64, 100
2, 14760, Note_on_c, 0, 57, 100
2, 14760, Note_on_c, 0, 69, 100
2, 14787, Note_on_c, 0, 69, 0
2, 14787, Note_on_c, 0, 57, 0
2, 14787, Note_on_c, 0, 64, 0
2, 15180, Note_on_c, 0, 64, 100
2, 15180, Note_on_c, 0, 57, 100
2, 15180, Note_on_c, 0, 69, 100
2, 15207, Note_on_c, 0, 69, 0
2, 15207, Note_on_c, 0, 57, 0
2, 15207, Note_on_c, 0, 64, 0
2, 15240, Note_on_c, 0, 64, 78
2, 15240, Note_on_c, 0, 57, 78
2, 15240, Note_on_c, 0, 69, 78
2, 15267, Note_on_c, 0, 69, 0
2, 15267, Note_on_c, 0, 57, 0
2, 15267, Note_on_c, 0, 64, 0
2, 15360, Note_on_c, 0, 64, 63
2, 15360, Note_on_c, 0, 57, 63
2, 15360, Note_on_c, 0, 69, 63
2, 15387, Note_on_c, 0, 69, 0
2, 15387, Note_on_c, 0, 57, 0
2, 15387, Note_on_c, 0, 64, 0
2, 15420, Note_on_c, 0, 64, 80
2, 15420, Note_on_c, 0, 57, 80
2, 15420, Note_on_c, 0, 69, 80
2, 15447, Note_on_c, 0, 69, 0
2, 15447, Note_on_c, 0, 57, 0
2, 15447, Note_on_c, 0, 64, 0
2, 15480, Note_on_c, 0, 64, 100
2, 15480, Note_on_c, 0, 57, 100
2, 15480, Note_on_c, 0, 69, 100
2, 15507, Note_on_c, 0, 69, 0
2, 15507, Note_on_c, 0, 57, 0
2, 15507, Note_on_c, 0, 64, 0
2, 15900, Note_on_c, 0, 64, 100
2, 15900, Note_on_c, 0, 57, 100
2, 15900, Note_on_c, 0, 69, 100
2, 15927, Note_on_c, 0, 69, 0
2, 15927, Note_on_c, 0, 57, 0
2, 15927, Note_on_c, 0, 64, 0
2, 15960, Note_on_c, 0, 64, 78
2, 15960, Note_on_c, 0, 57, 78
2, 15960, Note_on_c, 0, 69, 78
2, 15987, Note_on_c, 0, 69, 0
2, 15987, Note_on_c, 0, 57, 0
2, 15987, Note_on_c, 0, 64, 0
2, 16080, Note_on_c, 0, 64, 63
2, 16080, Note_on_c, 0, 57, 63
2, 16080, Note_on_c, 0, 69, 63
2, 16107, Note_on_c, 0, 69, 0
2, 16107, Note_on_c, 0, 57, 0
2, 16107, Note_on_c, 0, 64, 0
2, 16140, Note_on_c, 0, 64, 80
2, 16140, Note_on_c, 0, 57, 80
2, 16140, Note_on_c, 0, 69, 80
2, 16167, Note_on_c, 0, 69, 0
2, 16167, Note_on_c, 0, 57, 0
2, 16167, Note_on_c, 0, 64, 0
2, 19800, Note_on_c, 0, 69, 100
2, 19800, Note_on_c, 0, 62, 100
2, 19890, Note_on_c, 0, 62, 0
2, 19890, Note_on_c, 0, 69, 0
2, 19980, Note_on_c, 0, 62, 100
2, 19980, Note_on_c, 0, 69, 100
2, 20070, Note_on_c, 0, 69, 0
2, 20070, Note_on_c, 0, 62, 0
2, 20520, Note_on_c, 0, 62, 100
2, 20520, Note_on_c, 0, 69, 100
2, 20610, Note_on_c, 0, 69, 0
2, 20610, Note_on_c, 0, 62, 0
2, 20700, Note_on_c, 0, 69, 100
2, 20700, Note_on_c, 0, 62, 100
2, 20790, Note_on_c, 0, 62, 0
2, 20790, Note_on_c, 0, 69, 0
2, 21240, Note_on_c, 0, 69, 100
2, 21240, Note_on_c, 0, 62, 100
2, 21330, Note_on_c, 0, 62, 0
2, 21330, Note_on_c, 0, 69, 0
2, 21420, Note_on_c, 0, 62, 100
2, 21420, Note_on_c, 0, 69, 100
2, 21510, Note_on_c, 0, 69, 0
2, 21510, Note_on_c, 0, 62, 0
2, 21960, Note_on_c, 0, 62, 100
2, 21960, Note_on_c, 0, 69, 100
2, 22050, Note_on_c, 0, 69, 0
2, 22050, Note_on_c, 0, 62, 0
2, 22140, Note_on_c, 0, 69, 100
2, 22140, Note_on_c, 0, 62, 100
2, 22230, Note_on_c, 0, 62, 0
2, 22230, Note_on_c, 0, 69, 0
2, 22680, Note_on_c, 0, 62, 100
2, 22680, Note_on_c, 0, 55, 100
2, 22707, Note_on_c, 0, 55, 0
2, 22707, Note_on_c, 0, 62, 0
2, 22860, Note_on_c, 0, 62, 100
2, 22860, Note_on_c, 0, 55, 100
2, 22887, Note_on_c, 0, 55, 0
2, 22887, Note_on_c, 0, 62, 0
2, 23040, Note_on_c, 0, 62, 100
2, 23040, Note_on_c, 0, 55, 100
2, 23067, Note_on_c, 0, 55, 0
2, 23067, Note_on_c, 0, 62, 0
2, 23160, Note_on_c, 0, 62, 100
2, 23160, Note_on_c, 0, 55, 100
2, 23187, Note_on_c, 0, 55, 0
2, 23187, Note_on_c, 0, 62, 0
2, 23280, Note_on_c, 0, 62, 100
2, 23280, Note_on_c, 0, 55, 100
2, 23307, Note_on_c, 0, 55, 0
2, 23307, Note_on_c, 0, 62, 0
2, 23400, Note_on_c, 0, 62, 100
2, 23400, Note_on_c, 0, 55, 100
2, 23427, Note_on_c, 0, 55, 0
2, 23427, Note_on_c, 0, 62, 0
2, 23580, Note_on_c, 0, 62, 100
2, 23580, Note_on_c, 0, 55, 100
2, 23607, Note_on_c, 0, 55, 0
2, 23607, Note_on_c, 0, 62, 0
2, 23760, Note_on_c, 0, 62, 100
2, 23760, Note_on_c, 0, 55, 100
2, 23787, Note_on_c, 0, 55, 0
2, 23787, Note_on_c, 0, 62, 0
2, 23880, Note_on_c, 0, 62, 100
2, 23880, Note_on_c, 0, 55, 100
2, 23907, Note_on_c, 0, 55, 0
2, 23907, Note_on_c, 0, 62, 0
2, 24000, Note_on_c, 0, 62, 100
2, 24000, Note_on_c, 0, 55, 100
2, 24027, Note_on_c, 0, 55, 0
2, 24027, Note_on_c, 0, 62, 0
2, 24120, Note_on_c, 0, 62, 100
2, 24120, Note_on_c, 0, 55, 100
2, 24147, Note_on_c, 0, 55, 0
2, 24147, Note_on_c, 0, 62, 0
2, 24300, Note_on_c, 0, 62, 100
2, 24300, Note_on_c, 0, 55, 100
2, 24327, Note_on_c, 0, 55, 0
2, 24327, Note_on_c, 0, 62, 0
2, 24480, Note_on_c, 0, 62, 100
2, 24480, Note_on_c, 0, 55, 100
2, 24507, Note_on_c, 0, 55, 0
2, 24507, Note_on_c, 0, 62, 0
2, 24600, Note_on_c, 0, 62, 100
2, 24600, Note_on_c, 0, 55, 100
2, 24627, Note_on_c, 0, 55, 0
2, 24627, Note_on_c, 0, 62, 0
2, 24720, Note_on_c, 0, 62, 100
2, 24720, Note_on_c, 0, 55, 100
2, 24747, Note_on_c, 0, 55, 0
2, 24747, Note_on_c, 0, 62, 0
2, 24840, Note_on_c, 0, 62, 100
2, 24840, Note_on_c, 0, 55, 100
2, 24867, Note_on_c, 0, 55, 0
2, 24867, Note_on_c, 0, 62, 0
2, 25020, Note_on_c, 0, 62, 100
2, 25020, Note_on_c, 0, 55, 100
2, 25047, Note_on_c, 0, 55, 0
2, 25047, Note_on_c, 0, 62, 0
2, 25200, Note_on_c, 0, 62, 100
2, 25200, Note_on_c, 0, 55, 100
2, 25227, Note_on_c, 0, 55, 0
2, 25227, Note_on_c, 0, 62, 0
2, 25320, Note_on_c, 0, 62, 100
2, 25320, Note_on_c, 0, 55, 100
2, 25347, Note_on_c, 0, 55, 0
2, 25347, Note_on_c, 0, 62, 0
2, 25440, Note_on_c, 0, 62, 100
2, 25440, Note_on_c, 0, 55, 100
2, 25467, Note_on_c, 0, 55, 0
2, 25467, Note_on_c, 0, 62, 0
2, 25560, Note_on_c, 0, 62, 100
2, 25560, Note_on_c, 0, 55, 100
2, 25587, Note_on_c, 0, 55, 0
2, 25587, Note_on_c, 0, 62, 0
2, 25740, Note_on_c, 0, 62, 100
2, 25740, Note_on_c, 0, 55, 100
2, 25767, Note_on_c, 0, 55, 0
2, 25767, Note_on_c, 0, 62, 0
2, 25920, Note_on_c, 0, 62, 100
2, 25920, Note_on_c, 0, 55, 100
2, 25947, Note_on_c, 0, 55, 0
2, 25947, Note_on_c, 0, 62, 0
2, 26040, Note_on_c, 0, 62, 100
2, 26040, Note_on_c, 0, 55, 100
2, 26067, Note_on_c, 0, 55, 0
2, 26067, Note_on_c, 0, 62, 0
2, 26160, Note_on_c, 0, 62, 100
2, 26160, Note_on_c, 0, 55, 100
2, 26187, Note_on_c, 0, 55, 0
2, 26187, Note_on_c, 0, 62, 0
2, 26280, Note_on_c, 0, 62, 100
2, 26280, Note_on_c, 0, 55, 100
2, 26307, Note_on_c, 0, 55, 0
2, 26307, Note_on_c, 0, 62, 0
2, 26460, Note_on_c, 0, 62, 100
2, 26460, Note_on_c, 0, 55, 100
2, 26487, Note_on_c, 0, 55, 0
2, 26487, Note_on_c, 0, 62, 0
2, 26640, Note_on_c, 0, 62, 100
2, 26640, Note_on_c, 0, 55, 100
2, 26667, Note_on_c, 0, 55, 0
2, 26667, Note_on_c, 0, 62, 0
2, 26760, Note_on_c, 0, 62, 100
2, 26760, Note_on_c, 0, 55, 100
2, 26787, Note_on_c, 0, 55, 0
2, 26787, Note_on_c, 0, 62, 0
2, 26880, Note_on_c, 0, 62, 100
2, 26880, Note_on_c, 0, 55, 100
2, 26907, Note_on_c, 0, 55, 0
2, 26907, Note_on_c, 0, 62, 0
2, 27000, Note_on_c, 0, 62, 100
2, 27000, Note_on_c, 0, 55, 100
2, 27027, Note_on_c, 0, 55, 0
2, 27027, Note_on_c, 0, 62, 0
2, 27180, Note_on_c, 0, 62, 100
2, 27180, Note_on_c, 0, 55, 100
2, 27207, Note_on_c, 0, 55, 0
2, 27207, Note_on_c, 0, 62, 0
2, 27360, Note_on_c, 0, 62, 100
2, 27360, Note_on_c, 0, 55, 100
2, 27387, Note_on_c, 0, 55, 0
2, 27387, Note_on_c, 0, 62, 0
2, 27480, Note_on_c, 0, 62, 100
2, 27480, Note_on_c, 0, 55, 100
2, 27507, Note_on_c, 0, 55, 0
2, 27507, Note_on_c, 0, 62, 0
2, 27600, Note_on_c, 0, 62, 100
2, 27600, Note_on_c, 0, 55, 100
2, 27627, Note_on_c, 0, 55, 0
2, 27627, Note_on_c, 0, 62, 0
2, 27720, Note_on_c, 0, 62, 100
2, 27720, Note_on_c, 0, 55, 100
2, 27747, Note_on_c, 0, 55, 0
2, 27747, Note_on_c, 0, 62, 0
2, 27900, Note_on_c, 0, 62, 100
2, 27900, Note_on_c, 0, 55, 100
2, 27927, Note_on_c, 0, 55, 0
2, 27927, Note_on_c, 0, 62, 0
2, 28080, Note_on_c, 0, 62, 100
2, 28080, Note_on_c, 0, 55, 100
2, 28107, Note_on_c, 0, 55, 0
2, 28107, Note_on_c, 0, 62, 0
2, 28200, Note_on_c, 0, 62, 100
2, 28200, Note_on_c, 0, 55, 100
2, 28227, Note_on_c, 0, 55, 0
2, 28227, Note_on_c, 0, 62, 0
2, 28320, Note_on_c, 0, 62, 100
2, 28320, Note_on_c, 0, 55, 100
2, 28347, Note_on_c, 0, 55, 0
2, 28347, Note_on_c, 0, 62, 0
2, 28440, Note_on_c, 0, 62, 100
2, 28440, Note_on_c, 0, 55, 100
2, 28467, Note_on_c, 0, 55, 0
2, 28467, Note_on_c, 0, 62, 0
2, 28620, Note_on_c, 0, 62, 100
2, 28620, Note_on_c, 0, 55, 100
2, 28647, Note_on_c, 0, 55, 0
2, 28647, Note_on_c, 0, 62, 0
2, 28800, Note_on_c, 0, 62, 100
2, 28800, Note_on_c, 0, 55, 100
2, 28827, Note_on_c, 0, 55, 0
2, 28827, Note_on_c, 0, 62, 0
2, 28920, Note_on_c, 0, 62, 100
2, 28920, Note_on_c, 0, 55, 100
2, 28947, Note_on_c, 0, 55, 0
2, 28947, Note_on_c, 0, 62, 0
2, 29040, Note_on_c, 0, 62, 100
2, 29040, Note_on_c, 0, 55, 100
2, 29067, Note_on_c, 0, 55, 0
2, 29067, Note_on_c, 0, 62, 0
2, 29160, Note_on_c, 0, 62, 100
2, 29160, Note_on_c, 0, 55, 100
2, 29187, Note_on_c, 0, 55, 0
2, 29187, Note_on_c, 0, 62, 0
2, 29340, Note_on_c, 0, 62, 100
2, 29340, Note_on_c, 0, 55, 100
2, 29367, Note_on_c, 0, 55, 0
2, 29367, Note_on_c, 0, 62, 0
2, 29520, Note_on_c, 0, 62, 100
2, 29520, Note_on_c, 0, 55, 100
2, 29547, Note_on_c, 0, 55, 0
2, 29547, Note_on_c, 0, 62, 0
2, 29640, Note_on_c, 0, 62, 100
2, 29640, Note_on_c, 0, 55, 100
2, 29667, Note_on_c, 0, 55, 0
2, 29667, Note_on_c, 0, 62, 0
2, 29760, Note_on_c, 0, 62, 100
2, 29760, Note_on_c, 0, 55, 100
2, 29787, Note_on_c, 0, 55, 0
2, 29787, Note_on_c, 0, 62, 0
2, 29880, Note_on_c, 0, 62, 100
2, 29880, Note_on_c, 0, 55, 100
2, 29907, Note_on_c, 0, 55, 0
2, 29907, Note_on_c, 0, 62, 0
2, 30060, Note_on_c, 0, 62, 100
2, 30060, Note_on_c, 0, 55, 100
2, 30087, Note_on_c, 0, 55, 0
2, 30087, Note_on_c, 0, 62, 0
2, 30240, Note_on_c, 0, 62, 100
2, 30240, Note_on_c, 0, 55, 100
2, 30267, Note_on_c, 0, 55, 0
2, 30267, Note_on_c, 0, 62, 0
2, 30360, Note_on_c, 0, 62, 100
2, 30360, Note_on_c, 0, 55, 100
2, 30387, Note_on_c, 0, 55, 0
2, 30387, Note_on_c, 0, 62, 0
2, 30480, Note_on_c, 0, 62, 100
2, 30480, Note_on_c, 0, 55, 100
2, 30507, Note_on_c, 0, 55, 0
2, 30507, Note_on_c, 0, 62, 0
2, 30600, Note_on_c, 0, 62, 100
2, 30600, Note_on_c, 0, 55, 100
2, 30627, Note_on_c, 0, 55, 0
2, 30627, Note_on_c, 0, 62, 0
2, 30780, Note_on_c, 0, 62, 100
2, 30780, Note_on_c, 0, 55, 100
2, 30807, Note_on_c, 0, 55, 0
2, 30807, Note_on_c, 0, 62, 0
2, 30960, Note_on_c, 0, 62, 100
2, 30960, Note_on_c, 0, 55, 100
2, 30987, Note_on_c, 0, 55, 0
2, 30987, Note_on_c, 0, 62, 0
2, 31080, Note_on_c, 0, 62, 100
2, 31080, Note_on_c, 0, 55, 100
2, 31107, Note_on_c, 0, 55, 0
2, 31107, Note_on_c, 0, 62, 0
2, 31200, Note_on_c, 0, 62, 100
2, 31200, Note_on_c, 0, 55, 100
2, 31227, Note_on_c, 0, 55, 0
2, 31227, Note_on_c, 0, 62, 0
2, 31320, Note_on_c, 0, 62, 100
2, 31320, Note_on_c, 0, 55, 100
2, 31347, Note_on_c, 0, 55, 0
2, 31347, Note_on_c, 0, 62, 0
2, 31500, Note_on_c, 0, 62, 100
2, 31500, Note_on_c, 0, 55, 100
2, 31527, Note_on_c, 0, 55, 0
2, 31527, Note_on_c, 0, 62, 0
2, 31680, Note_on_c, 0, 62, 100
2, 31680, Note_on_c, 0, 55, 100
2, 31707, Note_on_c, 0, 55, 0
2, 31707, Note_on_c, 0, 62, 0
2, 31800, Note_on_c, 0, 62, 100
2, 31800, Note_on_c, 0, 55, 100
2, 31827, Note_on_c, 0, 55, 0
2, 31827, Note_on_c, 0, 62, 0
2, 31920, Note_on_c, 0, 62, 100
2, 31920, Note_on_c, 0, 55, 100
2, 31947, Note_on_c, 0, 55, 0
2, 31947, Note_on_c, 0, 62, 0
2, 32040, Note_on_c, 0, 65, 100
2, 32040, Note_on_c, 0, 58, 100
2, 32040, Note_on_c, 0, 70, 100
2, 32067, Note_on_c, 0, 70, 0
2, 32067, Note_on_c, 0, 58, 0
2, 32067, Note_on_c, 0, 65, 0
2, 32340, Note_on_c, 0, 65, 100
2, 32340, Note_on_c, 0, 58, 100
2, 32340, Note_on_c, 0, 70, 100
2, 32367, Note_on_c, 0, 70, 0
2, 32367, Note_on_c, 0, 58, 0
2, 32367, Note_on_c, 0, 65, 0
2, 32460, Note_on_c, 0, 65, 73
2, 32460, Note_on_c, 0, 58, 73
2, 32460, Note_on_c, 0, 70, 73
2, 32487, Note_on_c, 0, 70, 0
2, 32487, Note_on_c, 0, 58, 0
2, 32487, Note_on_c, 0, 65, 0
2, 32520, Note_on_c, 0, 65, 100
2, 32520, Note_on_c, 0, 58, 100
2, 32520, Note_on_c, 0, 70, 100
2, 32547, Note_on_c, 0, 70, 0
2, 32547, Note_on_c, 0, 58, 0
2, 32547, Note_on_c, 0, 65, 0
2, 32640, Note_on_c, 0, 65, 68
2, 32640, Note_on_c, 0, 58, 68
2, 32640, Note_on_c, 0, 70, 68
2, 32667, Note_on_c, 0, 70, 0
2, 32667, Note_on_c, 0, 58, 0
2, 32667, Note_on_c, 0, 65, 0
2, 32700, Note_on_c, 0, 65, 80
2, 32700, Note_on_c, 0, 58, 80
2, 32700, Note_on_c, 0, 70, 80
2, 32727, Note_on_c, 0, 70, 0
2, 32727, Note_on_c, 0, 58, 0
2, 32727, Note_on_c, 0, 65, 0
2, 32760, Note_on_c, 0, 65, 100
2, 32760, Note_on_c, 0, 58, 100
2, 32760, Note_on_c, 0, 70, 100
2, 32787, Note_on_c, 0, 70, 0
2, 32787, Note_on_c, 0, 58, 0
2, 32787, Note_on_c, 0, 65, 0
2, 33180, Note_on_c, 0, 65, 100
2, 33180, Note_on_c, 0, 58, 100
2, 33180, Note_on_c, 0, 70, 100
2, 33207, Note_on_c, 0, 70, 0
2, 33207, Note_on_c, 0, 58, 0
2, 33207, Note_on_c, 0, 65, 0
2, 33240, Note_on_c, 0, 65, 78
2, 33240, Note_on_c, 0, 58, 78
2, 33240, Note_on_c, 0, 70, 78
2, 33267, Note_on_c, 0, 70, 0
2, 33267, Note_on_c, 0, 58, 0
2, 33267, Note_on_c, 0, 65, 0
2, 33360, Note_on_c, 0, 65, 63
2, 33360, Note_on_c, 0, 58, 63
2, 33360, Note_on_c, 0, 70, 63
2, 33387, Note_on_c, 0, 70, 0
2, 33387, Note_on_c, 0, 58, 0
2, 33387, Note_on_c, 0, 65, 0
2, 33420, Note_on_c, 0, 65, 80
2, 33420, Note_on_c, 0, 58, 80
2, 33420, Note_on_c, 0, 70, 80
2, 33447, Note_on_c, 0, 70, 0
2, 33447, Note_on_c, 0, 58, 0
2, 33447, Note_on_c, 0, 65, 0
2, 33480, Note_on_c, 0, 65, 100
2, 33480, Note_on_c, 0, 58, 100
2, 33480, Note_on_c, 0, 70, 100
2, 33507, Note_on_c, 0, 70, 0
2, 33507, Note_on_c, 0, 58, 0
2, 33507, Note_on_c, 0, 65, 0
2, 33900, Note_on_c, 0, 65, 100
2, 33900, Note_on_c, 0, 58, 100
2, 33900, Note_on_c, 0, 70, 100
2, 33927, Note_on_c, 0, 70, 0
2, 33927, Note_on_c, 0, 58, 0
2, 33927, Note_on_c, 0, 65, 0
2, 33960, Note_on_c, 0, 65, 78
2, 33960, Note_on_c, 0, 58, 78
2, 33960, Note_on_c, 0, 70, 78
2, 33987, Note_on_c, 0, 70, 0
2, 33987, Note_on_c, 0, 58, 0
2, 33987, Note_on_c, 0, 65, 0
2, 34080, Note_on_c, 0, 65, 63
2, 34080, Note_on_c, 0, 58, 63
2, 34080, Note_on_c, 0, 70, 63
2, 34107, Note_on_c, 0, 70, 0
2, 34107, Note_on_c, 0, 58, 0
2, 34107, Note_on_c, 0, 65, 0
2, 34140, Note_on_c, 0, 65, 80
2, 34140, Note_on_c, 0, 58, 80
2, 34140, Note_on_c, 0, 70, 80
2, 34167, Note_on_c, 0, 70, 0
2, 34167, Note_on_c, 0, 58, 0
2, 34167, Note_on_c, 0, 65, 0
2, 34200, Note_on_c, 0, 65, 100
2, 34200, Note_on_c, 0, 58, 100
2, 34200, Note_on_c, 0, 70, 100
2, 34227, Note_on_c, 0, 70, 0
2, 34227, Note_on_c, 0, 58, 0
2, 34227, Note_on_c, 0, 65, 0
2, 34620, Note_on_c, 0, 65, 100
2, 34620, Note_on_c, 0, 58, 100
2, 34620, Note_on_c, 0, 70, 100
2, 34647, Note_on_c, 0, 70, 0
2, 34647, Note_on_c, 0, 58, 0
2, 34647, Note_on_c, 0, 65, 0
2, 34680, Note_on_c, 0, 65, 78
2, 34680, Note_on_c, 0, 58, 78
2, 34680, Note_on_c, 0, 70, 78
2, 34707, Note_on_c, 0, 70, 0
2, 34707, Note_on_c, 0, 58, 0
2, 34707, Note_on_c, 0, 65, 0
2, 34800, Note_on_c, 0, 65, 63
2, 34800, Note_on_c, 0, 58, 63
2, 34800, Note_on_c, 0, 70, 63
2, 34827, Note_on_c, 0, 70, 0
2, 34827, Note_on_c, 0, 58, 0
2, 34827, Note_on_c, 0, 65, 0
2, 34860, Note_on_c, 0, 65, 80
2, 34860, Note_on_c, 0, 58, 80
2, 34860, Note_on_c, 0, 70, 80
2, 34887, Note_on_c, 0, 70, 0
2, 34887, Note_on_c, 0, 58, 0
2, 34887, Note_on_c, 0, 65, 0
2, 34920, Note_on_c, 0, 66, 100
2, 34920, Note_on_c, 0, 59, 100
2, 34920, Note_on_c, 0, 71, 100
2, 34947, Note_on_c, 0, 71, 0
2, 34947, Note_on_c, 0, 59, 0
2, 34947, Note_on_c, 0, 66, 0
2, 35340, Note_on_c, 0, 66, 100
2, 35340, Note_on_c, 0, 59, 100
2, 35340, Note_on_c, 0, 71, 100
2, 35367, Note_on_c, 0, 71, 0
2, 35367, Note_on_c, 0, 59, 0
2, 35367, Note_on_c, 0, 66, 0
2, 35400, Note_on_c, 0, 66, 78
2, 35400, Note_on_c, 0, 59, 78
2, 35400, Note_on_c, 0, 71, 78
2, 35427, Note_on_c, 0, 71, 0
2, 35427, Note_on_c, 0, 59, 0
2, 35427, Note_on_c, 0, 66, 0
2, 35520, Note_on_c, 0, 66, 63
2, 35520, Note_on_c, 0, 59, 63
2, 35520, Note_on_c, 0, 71, 63
2, 35547, Note_on_c, 0, 71, 0
2, 35547, Note_on_c, 0, 59, 0
2, 35547, Note_on_c, 0, 66, 0
2, 35580, Note_on_c, 0, 66, 80
2, 35580, Note_on_c, 0, 59, 80
2, 35580, Note_on_c, 0, 71, 80
2, 35607, Note_on_c, 0, 71, 0
2, 35607, Note_on_c, 0, 59, 0
2, 35607, Note_on_c, 0, 66, 0
2, 35640, Note_on_c, 0, 66, 100
2, 35640, Note_on_c, 0, 59, 100
2, 35640, Note_on_c, 0, 71, 100
2, 35667, Note_on_c, 0, 71, 0
2, 35667, Note_on_c, 0, 59, 0
2, 35667, Note_on_c, 0, 66, 0
2, 36060, Note_on_c, 0, 66, 100
2, 36060, Note_on_c, 0, 59, 100
2, 36060, Note_on_c, 0, 71, 100
2, 36087, Note_on_c, 0, 71, 0
2, 36087, Note_on_c, 0, 59, 0
2, 36087, Note_on_c, 0, 66, 0
2, 36120, Note_on_c, 0, 66, 78
2, 36120, Note_on_c, 0, 59, 78
2, 36120, Note_on_c, 0, 71, 78
2, 36147, Note_on_c, 0, 71, 0
2, 36147, Note_on_c, 0, 59, 0
2, 36147, Note_on_c, 0, 66, 0
2, 36240, Note_on_c, 0, 66, 63
2, 36240, Note_on_c, 0, 59, 63
2, 36240, Note_on_c, 0, 71, 63
2, 36267, Note_on_c, 0, 71, 0
2, 36267, Note_on_c, 0, 59, 0
2, 36267, Note_on_c, 0, 66, 0
2, 36300, Note_on_c, 0, 66, 80
2, 36300, Note_on_c, 0, 59, 80
2, 36300, Note_on_c, 0, 71, 80
2, 36327, Note_on_c, 0, 71, 0
2, 36327, Note_on_c, 0, 59, 0
2, 36327, Note_on_c, 0, 66, 0
2, 36360, Note_on_c, 0, 64, 100
2, 36360, Note_on_c, 0, 57, 100
2, 36360, Note_on_c, 0, 69, 100
2, 36387, Note_on_c, 0, 69, 0
2, 36387, Note_on_c, 0, 57, 0
2, 36387, Note_on_c, 0, 64, 0
2, 36780, Note_on_c, 0, 64, 100
2, 36780, Note_on_c, 0, 57, 100
2, 36780, Note_on_c, 0, 69, 100
2, 36807, Note_on_c, 0, 69, 0
2, 36807, Note_on_c, 0, 57, 0
2, 36807, Note_on_c, 0, 64, 0
2, 36840, Note_on_c, 0, 64, 78
2, 36840, Note_on_c, 0, 57, 78
2, 36840, Note_on_c, 0, 69, 78
2, 36867, Note_on_c, 0, 69, 0
2, 36867, Note_on_c, 0, 57, 0
2, 36867, Note_on_c, 0, 64, 0
2, 36960, Note_on_c, 0, 64, 63
2, 36960, Note_on_c, 0, 57, 63
2, 36960, Note_on_c, 0, 69, 63
2, 36987, Note_on_c, 0, 69, 0
2, 36987, Note_on_c, 0, 57, 0
2, 36987, Note_on_c, 0, 64, 0
2, 37020, Note_on_c, 0, 64, 80
2, 37020, Note_on_c, 0, 57, 80
2, 37020, Note_on_c, 0, 69, 80
2, 37047, Note_on_c, 0, 69, 0
2, 37047, Note_on_c, 0, 57, 0
2, 37047, Note_on_c, 0, 64, 0
2, 37080, Note_on_c, 0, 64, 100
2, 37080, Note_on_c, 0, 57, 100
2, 37080, Note_on_c, 0, 69, 100
2, 37107, Note_on_c, 0, 69, 0
2, 37107, Note_on_c, 0, 57, 0
2, 37107, Note_on_c, 0, 64, 0
2, 37500, Note_on_c, 0, 64, 100
2, 37500, Note_on_c, 0, 57, 100
2, 37500, Note_on_c, 0, 69, 100
2, 37527, Note_on_c, 0, 69, 0
2, 37527, Note_on_c, 0, 57, 0
2, 37527, Note_on_c, 0, 64, 0
2, 37560, Note_on_c, 0, 64, 78
2, 37560, Note_on_c, 0, 57, 78
2, 37560, Note_on_c, 0, 69, 78
2, 37587, Note_on_c, 0, 69, 0
2, 37587, Note_on_c, 0, 57, 0
2, 37587, Note_on_c, 0, 64, 0
2, 37680, Note_on_c, 0, 64, 63
2, 37680, Note_on_c, 0, 57, 63
2, 37680, Note_on_c, 0, 69, 63
2, 37707, Note_on_c, 0, 69, 0
2, 37707, Note_on_c, 0, 57, 0
2, 37707, Note_on_c, 0, 64, 0
2, 37740, Note_on_c, 0, 64, 80
2, 37740, Note_on_c, 0, 57, 80
2, 37740, Note_on_c, 0, 69, 80
2, 37767, Note_on_c, 0, 69, 0
2, 37767, Note_on_c, 0, 57, 0
2, 37767, Note_on_c, 0, 64, 0
2, 41400, Note_on_c, 0, 69, 100
2, 41400, Note_on_c, 0, 62, 100
2, 41490, Note_on_c, 0, 62, 0
2, 41490, Note_on_c, 0, 69, 0
2, 41580, Note_on_c, 0, 62, 100
2, 41580, Note_on_c, 0, 69, 100
2, 41670, Note_on_c, 0, 69, 0
2, 41670, Note_on_c, 0, 62, 0
2, 42120, Note_on_c, 0, 62, 100
2, 42120, Note_on_c, 0, 69, 100
2, 42210, Note_on_c, 0, 69, 0
2, 42210, Note_on_c, 0, 62, 0
2, 42300, Note_on_c, 0, 69, 100
2, 42300, Note_on_c, 0, 62, 100
2, 42390, Note_on_c, 0, 62, 0
2, 42390, Note_on_c, 0, 69, 0
2, 42840, Note_on_c, 0, 69, 100
2, 42840, Note_on_c, 0, 62, 100
2, 42930, Note_on_c, 0, 62, 0
2, 42930, Note_on_c, 0, 69, 0
2, 43020, Note_on_c, 0, 62, 100
2, 43020, Note_on_c, 0, 69, 100
2, 43110, Note_on_c, 0, 69, 0
2, 43110, Note_on_c, 0, 62, 0
2, 43560, Note_on_c, 0, 62, 100
2, 43560, Note_on_c, 0, 69, 100
2, 43650, Note_on_c, 0, 69, 0
2, 43650, Note_on_c, 0, 62, 0
2, 43740, Note_on_c, 0, 69, 100
2, 43740, Note_on_c, 0, 62, 100
2, 43830, Note_on_c, 0, 62, 0
2, 43830, Note_on_c, 0, 69, 0
2, 44280, Note_on_c, 0, 62, 100
2, 44280, Note_on_c, 0, 55, 100
2, 44307, Note_on_c, 0, 55, 0
2, 44307, Note_on_c, 0, 62, 0
2, 44460, Note_on_c, 0, 62, 100
2, 44460, Note_on_c, 0, 55, 100
2, 44487, Note_on_c, 0, 55, 0
2, 44487, Note_on_c, 0, 62, 0
2, 44640, Note_on_c, 0, 62, 100
2, 44640, Note_on_c, 0, 55, 100
2, 44667, Note_on_c, 0, 55, 0
2, 44667, Note_on_c, 0, 62, 0
2, 44760, Note_on_c, 0, 62, 100
2, 44760, Note_on_c, 0, 55, 100
2, 44787, Note_on_c, 0, 55, 0
2, 44787, Note_on_c, 0, 62, 0
2, 44880, Note_on_c, 0, 62, 100
2, 44880, Note_on_c, 0, 55, 100
2, 44907, Note_on_c, 0, 55, 0
2, 44907, Note_on_c, 0, 62, 0
2, 45000, Note_on_c, 0, 62, 100
2, 45000, Note_on_c, 0, 55, 100
2, 45027, Note_on_c, 0, 55, 0
2, 45027, Note_on_c, 0, 62, 0
2, 45180, Note_on_c, 0, 62, 100
2, 45180, Note_on_c, 0, 55, 100
2, 45207, Note_on_c, 0, 55, 0
2, 45207, Note_on_c, 0, 62, 0
2, 45360, Note_on_c, 0, 62, 100
2, 45360, Note_on_c, 0, 55, 100
2, 45387, Note_on_c, 0, 55, 0
2, 45387, Note_on_c, 0, 62, 0
2, 45480, Note_on_c, 0, 62, 100
2, 45480, Note_on_c, 0, 55, 100
2, 45507, Note_on_c, 0, 55, 0
2, 45507, Note_on_c, 0, 62, 0
2, 45600, Note_on_c, 0, 62, 100
2, 45600, Note_on_c, 0, 55, 100
2, 45627, Note_on_c, 0, 55, 0
2, 45627, Note_on_c, 0, 62, 0
2, 45720, Note_on_c, 0, 62, 100
2, 45720, Note_on_c, 0, 55, 100
2, 45747, Note_on_c, 0, 55, 0
2, 45747, Note_on_c, 0, 62, 0
2, 45900, Note_on_c, 0, 62, 100
2, 45900, Note_on_c, 0, 55, 100
2, 45927, Note_on_c, 0, 55, 0
2, 45927, Note_on_c, 0, 62, 0
2, 46080, Note_on_c, 0, 62, 100
2, 46080, Note_on_c, 0, 55, 100
2, 46107, Note_on_c, 0, 55, 0
2, 46107, Note_on_c, 0, 62, 0
2, 46200, Note_on_c, 0, 62, 100
2, 46200, Note_on_c, 0, 55, 100
2, 46227, Note_on_c, 0, 55, 0
2, 46227, Note_on_c, 0, 62, 0
2, 46320, Note_on_c, 0, 62, 100
2, 46320, Note_on_c, 0, 55, 100
2, 46347, Note_on_c, 0, 55, 0
2, 46347, Note_on_c, 0, 62, 0
2, 46440, Note_on_c, 0, 62, 100
2, 46440, Note_on_c, 0, 55, 100
2, 46467, Note_on_c, 0, 55, 0
2, 46467, Note_on_c, 0, 62, 0
2, 46620, Note_on_c, 0, 62, 100
2, 46620, Note_on_c, 0, 55, 100
2, 46647, Note_on_c, 0, 55, 0
2, 46647, Note_on_c, 0, 62, 0
2, 46800, Note_on_c, 0, 62, 100
2, 46800, Note_on_c, 0, 55, 100
2, 46827, Note_on_c, 0, 55, 0
2, 46827, Note_on_c, 0, 62, 0
2, 46920, Note_on_c, 0, 62, 100
2, 46920, Note_on_c, 0, 55, 100
2, 46947, Note_on_c, 0, 55, 0
2, 46947, Note_on_c, 0, 62, 0
2, 47040, Note_on_c, 0, 62, 100
2, 47040, Note_on_c, 0, 55, 100
2, 47067, Note_on_c, 0, 55, 0
2, 47067, Note_on_c, 0, 62, 0
2, 47157, Control_c, 0, 11, 127
2, 47160, Note_on_c, 0, 62, 100
2, 47160, Note_on_c, 0, 55, 100
2, 47177, Control_c, 0, 11, 126
2, 47187, Note_on_c, 0, 55, 0
2, 47187, Note_on_c, 0, 62, 0
2, 47197, Control_c, 0, 11, 125
2, 47217, Control_c, 0, 11, 124
2, 47227, Control_c, 0, 11, 123
2, 47247, Control_c, 0, 11, 122
2, 47267, Control_c, 0, 11, 121
2, 47277, Control_c, 0, 11, 120
2, 47297, Control_c, 0, 11, 119
2, 47317, Control_c, 0, 11, 118
2, 47337, Control_c, 0, 11, 117
2, 47340, Note_on_c, 0, 62, 100
2, 47340, Note_on_c, 0, 55, 100
2, 47347, Control_c, 0, 11, 116
2, 47367, Note_on_c, 0, 55, 0
2, 47367, Note_on_c, 0, 62, 0
2, 47367, Control_c, 0, 11, 115
2, 47387, Control_c, 0, 11, 114
2, 47397, Control_c, 0, 11, 113
2, 47417, Control_c, 0, 11, 112
2, 47437, Control_c, 0, 11, 111
2, 47447, Control_c, 0, 11, 110
2, 47467, Control_c, 0, 11, 109
2, 47487, Control_c, 0, 11, 108
2, 47507, Control_c, 0, 11, 107
2, 47517, Control_c, 0, 11, 106
2, 47520, Note_on_c, 0, 62, 100
2, 47520, Note_on_c, 0, 55, 100
2, 47537, Control_c, 0, 11, 105
2, 47547, Note_on_c, 0, 55, 0
2, 47547, Note_on_c, 0, 62, 0
2, 47557, Control_c, 0, 11, 104
2, 47567, Control_c, 0, 11, 103
2, 47587, Control_c, 0, 11, 102
2, 47607, Control_c, 0, 11, 101
2, 47617, Control_c, 0, 11, 100
2, 47637, Control_c, 0, 11, 99
2, 47640, Note_on_c, 0, 62, 100
2, 47640, Note_on_c, 0, 55, 100
2, 47657, Control_c, 0, 11, 98
2, 47667, Note_on_c, 0, 55, 0
2, 47667, Note_on_c, 0, 62, 0
2, 47677, Control_c, 0, 11, 97
2, 47687, Control_c, 0, 11, 96
2, 47707, Control_c, 0, 11, 95
2, 47727, Control_c, 0, 11, 94
2, 47737, Control_c, 0, 11, 93
2, 47757, Control_c, 0, 11, 92
2, 47760, Note_on_c, 0, 62, 100
2, 47760, Note_on_c, 0, 55, 100
2, 47777, Control_c, 0, 11, 91
2, 47787, Note_on_c, 0, 55, 0
2, 47787, Note_on_c, 0, 62, 0
2, 47787, Control_c, 0, 11, 90
2, 47807, Control_c, 0, 11, 89
2, 47827, Control_c, 0, 11, 88
2, 47847, Control_c, 0, 11, 87
2, 47857, Control_c, 0, 11, 86
2, 47877, Control_c, 0, 11, 85
2, 47880, Note_on_c, 0, 62, 100
2, 47880, Note_on_c, 0, 55, 100
2, 47897, Control_c, 0, 11, 84
2, 47907, Note_on_c, 0, 55, 0
2, 47907, Note_on_c, 0, 62, 0
2, 47907, Control_c, 0, 11, 83
2, 47927, Control_c, 0, 11, 82
2, 47947, Control_c, 0, 11, 81
2, 47957, Control_c, 0, 11, 80
2, 47977, Control_c, 0, 11, 79
2, 47997, Control_c, 0, 11, 78
2, 48017, Control_c, 0, 11, 77
2, 48027, Control_c, 0, 11, 76
2, 48047, Control_c, 0, 11, 75
2, 48060, Note_on_c, 0, 62, 100
2, 48060, Note_on_c, 0, 55, 100
2, 48067, Control_c, 0, 11, 74
2, 48077, Control_c, 0, 11, 73
2, 48087, Note_on_c, 0, 55, 0
2, 48087, Note_on_c, 0, 62, 0
2, 48097, Control_c, 0, 11, 72
2, 48117, Control_c, 0, 11, 71
2, 48127, Control_c, 0, 11, 70
2, 48147, Control_c, 0, 11, 69
2, 48167, Control_c, 0, 11, 68
2, 48187, Control_c, 0, 11, 67
2, 48197, Control_c, 0, 11, 66
2, 48217, Control_c, 0, 11, 65
2, 48237, Control_c, 0, 11, 64
2, 48240, Note_on_c, 0, 62, 100
2, 48240, Note_on_c, 0, 55, 100
2, 48247, Control_c, 0, 11, 63
2, 48267, Note_on_c, 0, 55, 0
2, 48267, Note_on_c, 0, 62, 0
2, 48267, Control_c, 0, 11, 62
2, 48287, Control_c, 0, 11, 61
2, 48297, Control_c, 0, 11, 60
2, 48317, Control_c, 0, 11, 59
2, 48337, Control_c, 0, 11, 58
2, 48357, Control_c, 0, 11, 57
2, 48360, Note_on_c, 0, 62, 100
2, 48360, Note_on_c, 0, 55, 100
2, 48367, Control_c, 0, 11, 56
2, 48387, Note_on_c, 0, 55, 0
2, 48387, Note_on_c, 0, 62, 0
2, 48387, Control_c, 0, 11, 55
2, 48407, Control_c, 0, 11, 54
2, 48417, Control_c, 0, 11, 53
2, 48437, Control_c, 0, 11, 52
2, 48457, Control_c, 0, 11, 51
2, 48467, Control_c, 0, 11, 50
2, 48480, Note_on_c, 0, 62, 100
2, 48480, Note_on_c, 0, 55, 100
2, 48487, Control_c, 0, 11, 49
2, 48507, Note_on_c, 0, 55, 0
2, 48507, Note_on_c, 0, 62, 0
2, 48507, Control_c, 0, 11, 48
2, 48527, Control_c, 0, 11, 47
2, 48537, Control_c, 0, 11, 46
2, 48557, Control_c, 0, 11, 45
2, 48577, Control_c, 0, 11, 44
2, 48587, Control_c, 0, 11, 43
2, 48600, Note_on_c, 0, 62, 100
2, 48600, Note_on_c, 0, 55, 100
2, 48607, Control_c, 0, 11, 42
2, 48627, Note_on_c, 0, 55, 0
2, 48627, Note_on_c, 0, 62, 0
2, 48627, Control_c, 0, 11, 41
2, 48637, Control_c, 0, 11, 40
2, 48657, Control_c, 0, 11, 39
2, 48677, Control_c, 0, 11, 38
2, 48697, Control_c, 0, 11, 37
2, 48707, Control_c, 0, 11, 36
2, 48727, Control_c, 0, 11, 35
2, 48747, Control_c, 0, 11, 34
2, 48757, Control_c, 0, 11, 33
2, 48777, Control_c, 0, 11, 32
2, 48780, Note_on_c, 0, 62, 100
2, 48780, Note_on_c, 0, 55, 100
2, 48797, Control_c, 0, 11, 31
2, 48807, Note_on_c, 0, 55, 0
2, 48807, Note_on_c, 0, 62, 0
2, 48807, Control_c, 0, 11, 30
2, 48827, Control_c, 0, 11, 29
2, 48847, Control_c, 0, 11, 28
2, 48867, Control_c, 0, 11, 27
2, 48877, Control_c, 0, 11, 26
2, 48897, Control_c, 0, 11, 25
2, 48917, Control_c, 0, 11, 24
2, 48927, Control_c, 0, 11, 23
2, 48947, Control_c, 0, 11, 22
2, 48960, Note_on_c, 0, 62, 100
2, 48960, Note_on_c, 0, 55, 100
2, 48967, Control_c, 0, 11, 21
2, 48977, Control_c, 0, 11, 20
2, 48987, Note_on_c, 0, 55, 0
2, 48987, Note_on_c, 0, 62, 0
2, 48997, Control_c, 0, 11, 19
2, 49017, Control_c, 0, 11, 18
2, 49037, Control_c, 0, 11, 17
2, 49047, Control_c, 0, 11, 16
2, 49067, Control_c, 0, 11, 15
2, 49080, Note_on_c, 0, 62, 100
2, 49080, Note_on_c, 0, 55, 100
2, 49087, Control_c, 0, 11, 14
2, 49097, Control_c, 0, 11, 10
2, 51200, Control_c, 0, 0, 0
2, 51262, Control_c, 0, 0, 10
2, 57417, Control_c, 0, 12, 20
2, 57428, Control_c, 0, 11, 10
2, 57439, Control_c, 0, 10, 20
2, 57450, Control_c, 0, 9, 20
2, 57461, Control_c, 0, 8, 13
2, 59571, Control_c, 0, 100, 0
2, 59626, Control_c, 0, 100, 7
2, 65781, Control_c, 0, 7, 10
2, 65792, Control_c, 0, 6, 10
2, 67895, Control_c, 0, 0, 0
2, 67957, Control_c, 0, 0, 10
2, 74112, Control_c, 0, 5, 20
2, 74123, Control_c, 0, 4, 10
2, 74134, Control_c, 0, 3, 20
2, 74145, Control_c, 0, 2, 20
2, 74156, Control_c, 0, 1, 10
2, 74167, Control_c, 0, 0, 0
2, 90470, Control_c, 0, 0, 77
2, 90470, Control_c, 0, 0, 0
2, 90470, Control_c, 0, 0, 0
2, 90470, Control_c, 13, 133, 25
2, 90564, Control_c, 13, 26, 63
2, 90564, Control_c, 13, 0, 192
2, 90564, Note_off_c, 5, 2, 144
2, 90569, Note_off_c, 5, 2, 0
2, 90569, Note_off_c, 5, 0, 0
2, 90569, Note_off_c, 5, 0, 0
2, 90569, Note_off_c, 5, 0, 0
2, 90569, Note_off_c, 5, 0, 0
2, 90569, Note_off_c, 5, 0, 0
2, 90569, Note_off_c, 5, 0, 0
2, 90569, Note_off_c, 5, 0, 0
2, 90569, Note_off_c, 5, 0, 0
2, 90569, Note_off_c, 5, 0, 0
2, 90569, Note_off_c, 5, 0, 0
2, 90569, Note_off_c, 5, 0, 0
2, 90569, Note_off_c, 5, 0, 0
2, 90569, Note_off_c, 5, 0, 0
2, 90569, Note_off_c, 5, 0, 0
2, 90569, Note_off_c, 5, 0, 0
2, 90569, Note_off_c, 5, 0, 0
2, 90569, Note_off_c, 5, 0, 0
2, 90569, Note_off_c, 5, 0, 0
2, 90569, Note_off_c, 5, 0, 0
2, 90569, Note_off_c, 5, 0, 0
2, 90569, Note_off_c, 5, 0, 0
2, 90569, Note_off_c, 5, 0, 0
2, 90569, Note_off_c, 5, 0, 0
2, 90569, Note_off_c, 5, 0, 0
2, 90569, Note_off_c, 5, 0, 0
2, 90569, Note_off_c, 5, 0, 0
2, 90569, Note_off_c, 5, 0, 0
2, 90569, Note_off_c, 5, 0, 0
2, 90569, Note_off_c, 5, 0, 0
2, 90569, Note_off_c, 5, 0, 0
2, 90569, Note_off_c, 5, 0, 0
2, 90569, Note_off_c, 5, 0, 0
2, 90569, Note_off_c, 5, 0, 0
2, 90569, Note_off_c, 5, 0, 0
2, 90569, Note_off_c, 5, 0, 0
2, 90569, Note_off_c, 5, 0, 0
2, 90569, Note_off_c, 5, 0, 0
2, 90569, Note_off_c, 5, 0, 0
2, 90569, Note_off_c, 5, 0, 0
2, 90569, Note_off_c, 5, 0, 0
2, 90569, Note_off_c, 5, 0, 0
2, 90569, Note_off_c, 5, 0, 0
2, 90569, Note_off_c, 5, 0, 0
2, 90569, Note_off_c, 5, 0, 0
2, 90569, Note_off_c, 5, 0, 0
2, 90569, Note_off_c, 5, 0, 0
2, 90569, Note_off_c, 5, 0, 0
2, 90569, Note_off_c, 5, 0, 0
2, 90569, Note_off_c, 5, 0, 0
2, 90569, Note_off_c, 5, 0, 0
2, 90569, Note_off_c, 5, 0, 0
2, 90569, Note_off_c, 5, 0, 0
2, 90569, Note_off_c, 5, 0, 0
2, 90569, Note_off_c, 5, 0, 0
2, 90569, Note_off_c, 5, 0, 0
2, 90569, Note_off_c, 5, 0, 0
2, 90569, Note_off_c, 5, 0, 0
2, 90569, Note_off_c, 5, 0, 0
2, 90569, Note_off_c, 5, 0, 0
2, 90569, Note_off_c, 5, 0, 0
2, 90569, Note_off_c, 5, 0, 0
2, 90569, Note_off_c, 5, 0, 0
2, 90569, Note_off_c, 5, 0, 0
2, 90569, Note_off_c, 5, 0, 0
2, 90569, Note_off_c, 5, 0, 0
2, 90569, Note_off_c, 5, 0, 0
2, 90569, Note_off_c, 5, 0, 0
2, 90569, Note_off_c, 5, 0, 0
2, 90569, Note_off_c, 5, 0, 0
2, 90569, Note_off_c, 5, 0, 0
2, 90569, Note_off_c, 5, 0, 0
2, 90569, Note_off_c, 5, 0, 0
2, 90569, Note_off_c, 5, 0, 0
2, 90569, Note_off_c, 5, 0, 0
2, 90569, Note_off_c, 5, 0, 0
2, 90569, Note_off_c, 5, 0, 0
2, 90569, Note_off_c, 5, 0, 0
2, 90569, Note_off_c, 5, 0, 0
2, 90569, Note_off_c, 5, 0, 0
2, 90569, Note_off_c, 5, 0, 0
2, 90569, Note_off_c, 5, 0, 0
2, 90569, Note_off_c, 5, 0, 0
2, 90569, Note_off_c, 5, 0, 0
2, 90569, Note_off_c, 5, 0, 0
2, 90569, Note_off_c, 5, 0, 0
2, 90569, Note_off_c, 5, 0, 0
2, 90569, Note_off_c, 5, 0, 0
2, 90569, Note_off_c, 5, 0, 0
2, 90569, Note_off_c, 5, 0, 0
2, 90569, Note_off_c, 5, 0, 0
2, 90569, Note_off_c, 5, 0, 0
2, 90569, Note_off_c, 5, 0, 0
2, 90569, Note_off_c, 5, 0, 0
2, 90569, Note_off_c, 5, 0, 0
2, 90569, Note_off_c, 5, 0, 0
2, 90569, Note_off_c, 5, 0, 0
2, 90569, Note_off_c, 5, 0, 0
2, 90569, Note_off_c, 5, 0, 0
2, 90569, Note_off_c, 5, 0, 0
2, 90569, Note_off_c, 5, 0, 0
2, 90569, Note_off_c, 5, 0, 0
2, 90569, Note_off_c, 5, 0, 0
2, 90569, Note_off_c, 5, 0, 0
2, 90569, Note_off_c, 5, 0, 0
2, 90569, Note_off_c, 5, 0, 0
2, 90569, Note_off_c, 5, 0, 0
2, 90569, Note_off_c, 5, 0, 0
2, 90569, Note_off_c, 5, 0, 0
2, 90569, Note_off_c, 5, 0, 0
2, 90569, Note_off_c, 5, 0, 0
2, 90569, Note_off_c, 5, 0, 0
2, 90569, Note_off_c, 5, 0, 0
2, 90569, Note_off_c, 5, 0, 0
2, 90569, Note_off_c, 5, 0, 0
2, 90569, Note_off_c, 5, 0, 0
2, 90569, Note_off_c, 5, 0, 0
2, 90569, Note_off_c, 5, 0, 0
2, 90569, Note_off_c, 5, 0, 0
2, 90569, Note_off_c, 5, 0, 0
2, 90569, Note_off_c, 5, 0, 0
2, 90569, Note_off_c, 5, 0, 0
2, 90569, Note_off_c, 5, 0, 0
2, 90569, Note_off_c, 5, 0, 0
2, 90569, Note_off_c, 5, 0, 0
2, 90569, Note_off_c, 5, 0, 0
2, 90569, Note_off_c, 5, 0, 0
2, 90569, Note_off_c, 5, 0, 0
2, 90569, Note_off_c, 5, 0, 0
2, 90569, Note_off_c, 5, 0, 0
2, 90569, Note_off_c, 5, 0, 0
2, 90569, Note_off_c, 5, 0, 0
2, 90569, Note_off_c, 5, 0, 0
2, 90569, Note_off_c, 5, 0, 0
2, 90569, Note_off_c, 5, 0, 0
2, 90569, Note_off_c, 5, 0, 0
2, 90569, Note_off_c, 5, 0, 0
2, 90569, Note_off_c, 5, 0, 0
2, 90569, Note_off_c, 5, 0, 0
2, 90569, Note_off_c, 5, 0, 0
2, 90569, Note_off_c, 5, 0, 0
2, 90569, Note_off_c, 5, 0, 0
2, 90569, Note_off_c, 5, 0, 0
2, 90569, Note_off_c, 5, 0, 0
2, 90569, Note_off_c, 5, 0, 0
2, 90569, Note_off_c, 5, 0, 0
2, 90569, Note_off_c, 5, 0, 0
2, 90569, Note_off_c, 5, 0, 0
2, 90569, Note_off_c, 5, 0, 0
2, 90569, Note_off_c, 5, 0, 0
2, 90569, Note_off_c, 5, 0, 0
2, 90569, Note_off_c, 5, 0, 0
2, 90569, Note_off_c, 5, 0, 0
2, 90569, Note_off_c, 5, 0, 0
2, 90569, Note_off_c, 5, 0, 0
2, 90569, Note_off_c, 5, 0, 0
2, 90569, Note_off_c, 5, 0, 0
2, 90569, Note_off_c, 5, 0, 0
2, 90569, Note_off_c, 5, 0, 0
2, 90569, Note_off_c, 5, 0, 0
2, 90569, Note_off_c, 5, 0, 0
2, 90569, Note_off_c, 5, 0, 0
2, 90569, Note_off_c, 5, 0, 0
2, 90569, Note_off_c, 5, 0, 0
2, 90569, Note_off_c, 5, 0, 0
2, 90569, Note_off_c, 5, 0, 0
2, 90569, Note_off_c, 5, 0, 0
2, 90569, Note_off_c, 5, 0, 0
2, 90569, Note_off_c, 5, 0, 0
2, 90569, Note_off_c, 5, 0, 0
2, 90569, Note_off_c, 5, 0, 0
2, 90569, Note_off_c, 5, 0, 0
2, 90569, Note_off_c, 5, 0, 0
2, 90569, Note_off_c, 5, 0, 0
2, 90569, Note_off_c, 5, 0, 0
2, 90569, Note_off_c, 5, 0, 0
2, 90569, Note_off_c, 5, 0, 0
2, 90569, Note_off_c, 5, 0, 0
2, 90569, Note_off_c, 5, 0, 0
2, 90569, Note_off_c, 5, 0, 0
2, 90569, Note_off_c, 5, 0, 0
2, 90569, Note_off_c, 5, 0, 0
2, 90569, Note_off_c, 5, 0, 0
2, 90569, Note_off_c, 5, 0, 0
2, 90569, Note_off_c, 5, 0, 0
2, 90569, Note_off_c, 5, 0, 0
2, 90569, Note_off_c, 5, 0, 0
2, 90569, Note_off_c, 5, 0, 0
2, 90569, Note_off_c, 5, 0, 0
2, 90569, Note_off_c, 5, 0, 0
2, 90569, Note_off_c, 5, 0, 0
2, 90569, Note_off_c, 5, 0, 0
2, 90569, Note_off_c, 5, 0, 0
2, 90569, Note_off_c, 5, 0, 0
2, 90569, Note_off_c, 5, 0, 0
2, 90569, Note_off_c, 5, 0, 0
2, 90569, Note_off_c, 5, 0, 0
2, 90569, Note_off_c, 5, 0, 0
2, 90569, Note_off_c, 5, 0, 0
2, 90569, Note_off_c, 5, 0, 0
2, 90569, Note_off_c, 5, 0, 0
2, 90569, Note_off_c, 5, 0, 0
2, 90569, Note_off_c, 5, 0, 0
2, 90569, Note_off_c, 5, 0, 0
2, 90569, Note_off_c, 5, 0, 0
2, 90569, Note_off_c, 5, 0, 0
2, 90569, Note_off_c, 5, 0, 0
2, 90569, Note_off_c, 5, 0, 0
2, 90569, Note_off_c, 5, 0, 0
2, 90569, Note_off_c, 5, 0, 0
2, 90569, Note_off_c, 5, 0, 0
2, 90569, Note_off_c, 5, 0, 0
2, 90569, Note_off_c, 5, 0, 0
2, 90569, Note_off_c, 5, 0, 0
2, 90569, Note_off_c, 5, 0, 0
2, 90569, Note_off_c, 5, 0, 0
2, 90569, Note_off_c, 5, 0, 0
2, 90569, Note_off_c, 5, 0, 0
2, 90569, Note_off_c, 5, 0, 0
2, 90569, Note_off_c, 5, 0, 0
2, 90569, Note_off_c, 5, 0, 0
2, 90569, Note_off_c, 5, 0, 0
2, 90569, Note_off_c, 5, 0, 0
2, 90569, Note_off_c, 5, 0, 0
2, 90569, Note_off_c, 5, 0, 0
2, 90569, Note_off_c, 5, 0, 0
2, 90569, Note_off_c, 5, 0, 0
2, 90569, Note_off_c, 5, 0, 0
2, 90569, Note_off_c, 5, 0, 0
2, 90569, Note_off_c, 5, 0, 0
2, 90569, Note_off_c, 5, 0, 0
2, 90569, Note_off_c, 5, 0, 0
2, 90569, Note_off_c, 5, 0, 0
2, 90569, Note_off_c, 5, 0, 0
2, 90569, Note_off_c, 5, 0, 0
2, 90569, Note_off_c, 5, 0, 0
2, 90569, Note_off_c, 5, 0, 0
2, 90569, Note_off_c, 5, 0, 0
2, 90569, Note_off_c, 5, 0, 0
2, 90569, Note_off_c, 5, 0, 0
2, 90569, Note_off_c, 5, 0, 0
2, 90569, Note_off_c, 5, 0, 0
2, 90569, Note_off_c, 5, 0, 0
2, 90569, Note_off_c, 5, 0, 0
2, 90569, Note_off_c, 5, 0, 0
2, 90569, Note_off_c, 5, 0, 0
2, 90569, Note_off_c, 5, 0, 0
2, 90569, Note_off_c, 5, 0, 0
2, 90569, Note_off_c, 5, 0, 0
2, 90569, Note_off_c, 5, 0, 0
2, 90569, Note_off_c, 5, 0, 0
2, 90569, Note_off_c, 5, 0, 0
2, 90569, Note_off_c, 5, 0, 0
2, 90569, Note_off_c, 5, 0, 0
2, 90569, Note_off_c, 5, 0, 0
2, 90569, Note_off_c, 5, 0, 0
2, 90569, Note_off_c, 5, 0, 0
2, 90569, Note_off_c, 5, 0, 0
2, 90569, Note_off_c, 5, 0, 0
2, 90569, Note_off_c, 5, 0, 0
2, 90569, Note_off_c, 5, 0, 0
2, 90569, Note_off_c, 5, 0, 0
2, 90569, Note_off_c, 5, 0, 0
2, 90569, Note_off_c, 5, 0, 0
2, 90569, Note_off_c, 5, 0, 0
2, 90569, Note_off_c, 5, 0, 0
2, 90569, Note_off_c, 5, 0, 0
2, 90569, Note_off_c, 5, 0, 0
2, 90569, Note_off_c, 5, 0, 0
2, 90569, Note_off_c, 5, 0, 0
2, 90569, Note_off_c, 5, 0, 0
2, 90569, Note_off_c, 5, 0, 0
2, 90569, Note_off_c, 5, 0, 0
2, 90569, Note_off_c, 5, 0, 0
2, 90569, Note_off_c, 5, 0, 0
2, 90569, Note_off_c, 5, 0, 0
2, 90569, Note_off_c, 5, 0, 0
2, 90569, Note_off_c, 5, 0, 0
2, 90569, Note_off_c, 5, 0, 0
2, 90569, Note_off_c, 5, 0, 0
2, 90569, Note_off_c, 5, 0, 0
2, 90569, Note_off_c, 5, 0, 0
2, 90569, Note_off_c, 5, 0, 0
2, 90569, Note_off_c, 5, 0, 0
2, 90569, Note_off_c, 5, 0, 0
2, 90569, Note_off_c, 5, 0, 0
2, 90569, Note_off_c, 5, 0, 0
2, 90569, Note_off_c, 5, 0, 0
2, 90569, Note_off_c, 5, 0, 0
2, 90569, Note_off_c, 5, 0, 0
2, 90569, Note_off_c, 5, 0, 0
2, 90569, Note_off_c, 5, 0, 0
2, 90569, Note_off_c, 5, 0, 0
2, 90569, Note_off_c, 5, 0, 0
2, 90569, Note_off_c, 5, 0, 0
2, 90569, Note_off_c, 5, 0, 0
2, 90569, Note_off_c, 5, 0, 0
2, 90569, Note_off_c, 5, 0, 0
2, 90569, Note_off_c, 5, 0, 0
2, 90569, Note_off_c, 5, 0, 0
2, 90569, Note_off_c, 5, 0, 0
2, 90569, Note_off_c, 5, 0, 0
2, 90569, Note_off_c, 5, 0, 0
2, 90569, Note_off_c, 5, 0, 0
2, 90569, Note_off_c, 5, 0, 0
2, 90569, Note_off_c, 5, 0, 0
2, 90569, Note_off_c, 5, 0, 0
2, 90569, Note_off_c, 5, 0, 0
2, 90569, Note_off_c, 5, 0, 0
2, 90569, Note_off_c, 5, 0, 0
2, 90569, Note_off_c, 5, 0, 0
2, 90569, Note_off_c, 5, 0, 0
2, 90569, Note_off_c, 5, 0, 0
2, 90569, Note_off_c, 5, 0, 0
2, 90569, Note_off_c, 5, 0, 0
2, 90569, Note_off_c, 5, 0, 0
2, 90569, Note_off_c, 5, 0, 0
2, 90569, Note_off_c, 5, 0, 0
2, 90569, Note_off_c, 5, 0, 0
2, 90569, Note_off_c, 5, 0, 0
2, 90569, Note_off_c, 5, 0, 0
2, 90569, Note_off_c, 5, 0, 0
2, 90569, Note_off_c, 5, 0, 0
2, 90569, Note_off_c, 5, 0, 0
2, 90569, Note_off_c, 5, 0, 0
2, 90569, Note_off_c, 5, 0, 0
2, 90569, Note_off_c, 5, 0, 0
2, 90569, Note_off_c, 5, 0, 0
2, 90569, Note_off_c, 5, 0, 0
2, 90569, Note_off_c, 5, 0, 0
2, 90569, Note_off_c, 5, 0, 0
2, 90569, Note_off_c, 5, 0, 0
2, 90569, Note_off_c, 5, 0, 0
2, 90569, Note_off_c, 5, 0, 0
2, 90569, Note_off_c, 5, 0, 0
2, 90569, Note_off_c, 5, 0, 0
2, 90569, Note_off_c, 5, 0, 0
2, 90569, Note_off_c, 5, 0, 0
2, 90569, Note_off_c, 5, 0, 0
2, 90569, Note_off_c, 5, 0, 0
2, 90569, Note_off_c, 5, 0, 0
2, 90569, Note_off_c, 5, 0, 0
2, 90569, Note_off_c, 5, 0, 0
2, 90569, Note_off_c, 5, 0, 0
2, 90569, Note_off_c, 5, 0, 0
2, 90569, Note_off_c, 5, 0, 0
2, 90569, Note_off_c, 5, 0, 0
2, 90569, Note_off_c, 5, 0, 0
2, 90569, Note_off_c, 5, 0, 0
2, 90569, Note_off_c, 5, 0, 0
2, 90569, Note_off_c, 5, 0, 0
2, 90569, Note_off_c, 5, 0, 0
2, 90569, Note_off_c, 5, 0, 0
2, 90569, Note_off_c, 5, 0, 0
2, 90569, Note_off_c, 5, 0, 0
2, 90569, Note_off_c, 5, 0, 0
2, 90569, Note_off_c, 5, 0, 0
2, 90569, Note_off_c, 5, 0, 0
2, 90569, Note_off_c, 5, 0, 0
2, 90569, Note_off_c, 5, 0, 0
2, 90569, Note_off_c, 5, 0, 0
2, 90569, Note_off_c, 5, 0, 0
2, 90569, Note_off_c, 5, 0, 0
2, 90569, Note_off_c, 5, 0, 0
2, 90569, Note_off_c, 5, 0, 0
2, 90569, Note_off_c, 5, 0, 0
2, 90569, Note_off_c, 5, 0, 0
2, 90569, Note_off_c, 5, 0, 0
2, 90569, Note_off_c, 5, 0, 0
2, 90569, Note_off_c, 5, 0, 0
2, 90569, Note_off_c, 5, 0, 0
2, 90569, Note_off_c, 5, 0, 0
2, 90569, Note_off_c, 5, 0, 0
2, 90569, Note_off_c, 5, 0, 0
2, 90569, Note_off_c, 5, 0, 0
2, 90569, Note_off_c, 5, 0, 0
2, 90569, Note_off_c, 5, 0, 0
2, 90569, Note_off_c, 5, 0, 0
2, 90569, Note_off_c, 5, 0, 0
2, 90569, Note_off_c, 5, 0, 0
2, 90569, Note_off_c, 5, 0, 0
2, 90569, Note_off_c, 5, 0, 0
2, 90569, Note_off_c, 5, 0, 0
2, 90569, Note_off_c, 5, 0, 0
2, 90569, Note_off_c, 5, 0, 0
2, 90569, Note_off_c, 5, 0, 0
2, 90569, Note_off_c, 5, 0, 0
2, 90569, Note_off_c, 5, 0, 0
2, 90569, Note_off_c, 5, 0, 0
2, 90569, Note_off_c, 5, 0, 0
2, 90569, Note_off_c, 5, 0, 0
2, 90569, Note_off_c, 5, 0, 0
2, 90569, Note_off_c, 5, 0, 0
2, 90569, Note_off_c, 5, 0, 0
2, 90569, Note_off_c, 5, 0, 0
2, 90569, Note_off_c, 5, 0, 0
2, 90569, Note_off_c, 5, 0, 0
2, 90569, Note_off_c, 5, 0, 0
2, 90569, Note_off_c, 5, 0, 0
2, 90569, Note_off_c, 5, 0, 0
2, 90569, Note_off_c, 5, 0, 0
2, 90569, Note_off_c, 5, 0, 0
2, 90569, Note_off_c, 5, 0, 0
2, 90569, Note_off_c, 5, 0, 0
2, 90569, Note_off_c, 5, 0, 0
2, 90569, Note_off_c, 5, 0, 0
2, 90569, Note_off_c, 5, 0, 0
2, 90569, Note_off_c, 5, 0, 0
2, 90569, Note_off_c, 5, 0, 0
2, 90569, Note_off_c, 5, 0, 0
2, 90569, Note_off_c, 5, 0, 0
2, 90569, Note_off_c, 5, 0, 0
2, 90569, Note_off_c, 5, 0, 0
2, 90569, Note_off_c, 5, 0, 0
2, 90569, Note_off_c, 5, 0, 0
2, 90569, Note_off_c, 5, 0, 0
2, 90569, Note_off_c, 5, 0, 0
2, 90569, Note_off_c, 5, 0, 0
2, 90569, Note_off_c, 5, 0, 0
2, 90569, Note_off_c, 5, 0, 0
2, 90569, Note_off_c, 5, 0, 0
2, 90569, Note_off_c, 5, 0, 0
2, 90569, Note_off_c, 5, 0, 0
2, 90569, Note_off_c, 5, 0, 0
2, 90569, Note_off_c, 5, 0, 0
2, 90569, Note_off_c, 5, 0, 0
2, 90569, Note_off_c, 5, 0, 0
2, 90569, Note_off_c, 5, 0, 0
2, 90569, Note_off_c, 5, 0, 0
2, 90569, Note_off_c, 5, 0, 0
2, 90569, Note_off_c, 5, 0, 0
2, 90569, Note_off_c, 5, 0, 0
2, 90569, Note_off_c, 5, 0, 0
2, 90569, Note_off_c, 5, 0, 0
2, 90569, Note_off_c, 5, 0, 0
2, 90569, Note_off_c, 5, 0, 0
2, 90569, Note_off_c, 5, 0, 0
2, 90569, Note_off_c, 5, 0, 0
2, 90569, Note_off_c, 5, 0, 0
2, 90569, Note_off_c, 5, 0, 0
2, 90569, Note_off_c, 5, 0, 0
2, 90569, Note_off_c, 5, 0, 0
2, 90569, Note_off_c, 5, 0, 0
2, 90569, Note_off_c, 5, 0, 0
2, 90569, Note_off_c, 5, 0, 0
2, 90569, Note_off_c, 5, 0, 0
2, 90569, Note_off_c, 5, 0, 0
2, 90569, Note_off_c, 5, 0, 0
2, 90569, Note_off_c, 5, 0, 0
2, 90569, Note_off_c, 5, 0, 0
2, 90569, Note_off_c, 5, 0, 0
2, 90569, Note_off_c, 5, 0, 0
2, 90569, Note_off_c, 5, 0, 0
2, 90569, Note_off_c, 5, 0, 0
2, 90569, Note_off_c, 5, 0, 0
2, 90569, Note_off_c, 5, 0, 0
2, 90569, Note_off_c, 5, 0, 0
2, 90569, Note_off_c, 5, 0, 0
2, 90569, Note_off_c, 5, 0, 0
2, 90569, Note_off_c, 5, 0, 0
2, 90569, Note_off_c, 5, 0, 0
2, 90569, Note_off_c, 5, 0, 0
2, 90569, Note_off_c, 5, 0, 0
2, 90569, Note_off_c, 5, 0, 0
2, 90569, Note_off_c, 5, 0, 0
2, 90569, Note_off_c, 5, 0, 0
2, 90569, Note_off_c, 5, 0, 0
2, 90569, Note_off_c, 5, 0, 0
2, 90569, Note_off_c, 5, 0, 0
2, 90569, Note_off_c, 5, 0, 0
2, 90569, Note_off_c, 5, 0, 0
2, 90569, Note_off_c, 5, 0, 0
2, 90569, Note_off_c, 5, 0, 0
2, 90569, Note_off_c, 5, 0, 0
2, 90569, Note_off_c, 5, 0, 0
2, 90569, Note_off_c, 5, 0, 0
2, 90569, Note_off_c, 5, 0, 0
2, 90569, Note_off_c, 5, 0, 0
2, 90569, Note_off_c, 5, 0, 0
2, 90569, Note_off_c, 5, 0, 0
2, 90569, Note_off_c, 5, 0, 0
2, 90569, Note_off_c, 5, 0, 0
2, 90569, Note_off_c, 5, 0, 0
2, 90569, Note_off_c, 5, 0, 0
2, 90569, Note_off_c, 5, 0, 0
2, 90569, Note_off_c, 5, 0, 0
2, 90569, Note_off_c, 5, 0, 0
2, 90569, Note_off_c, 5, 0, 0
2, 90569, Note_off_c, 5, 0, 0
2, 90569, Note_off_c, 5, 0, 0
2, 90569, Note_off_c, 5, 0, 0
2, 90569, Note_off_c, 5, 0, 0
2, 90569, Note_off_c, 5, 0, 0
2, 90569, Note_off_c, 5, 0, 0
2, 90569, Note_off_c, 5, 0, 0
2, 90569, Note_off_c, 5, 0, 0
2, 90569, Note_off_c, 5, 0, 0
2, 90569, Note_off_c, 5, 0, 0
2, 90569, Note_off_c, 5, 0, 0
2, 90569, Note_off_c, 5, 0, 0
2, 90569, Note_off_c, 5, 0, 0
2, 90569, Note_off_c, 5, 0, 0
2, 90569, Note_off_c, 5, 0, 0
2, 90569, Note_off_c, 5, 0, 0
2, 90569, Note_off_c, 5, 0, 0
2, 90569, Note_off_c, 5, 0, 0
2, 90569, Note_off_c, 5, 0, 0
2, 90569, Note_off_c, 5, 0, 0
2, 90569, Note_off_c, 5, 0, 0
2, 90569, Note_off_c, 5, 0, 0
2, 90569, Note_off_c, 5, 0, 0
2, 90569, Note_off_c, 5, 0, 0
2, 90569, Note_off_c, 5, 0, 0
2, 90569, Note_off_c, 5, 0, 0
2, 90569, Note_off_c, 5, 0, 0
2, 90569, Note_off_c, 5, 0, 0
2, 90569, Note_off_c, 5, 0, 0
2, 90569, Note_off_c, 5, 0, 0
2, 90569, Note_off_c, 5, 0, 0
2, 90569, Note_off_c, 5, 0, 0
2, 90569, Note_off_c, 5, 0, 0
2, 90569, Note_off_c, 5, 0, 0
2, 90569, Note_off_c, 5, 0, 0
2, 90569, Note_off_c, 5, 0, 0
2, 90569, Note_off_c, 5, 0, 0
2, 90569, Note_off_c, 5, 0, 0
2, 90569, Note_off_c, 5, 0, 0
2, 90569, Note_off_c, 5, 0, 0
2, 90569, Note_off_c, 5, 0, 0
2, 90569, Note_off_c, 5, 0, 0
2, 90569, Note_off_c, 5, 0, 0
2, 90569, Note_off_c, 5, 0, 0
2, 90569, Note_off_c, 5, 0, 0
2, 90569, Note_off_c, 5, 0, 0
2, 90569, Note_off_c, 5, 0, 0
2, 90569, Note_off_c, 5, 0, 0
2, 90569, Note_off_c, 5, 0, 0
2, 90569, Note_off_c, 5, 0, 0
2, 90569, Note_off_c, 5, 0, 0
2, 90569, Note_off_c, 5, 0, 0
2, 90569, Note_off_c, 5, 0, 0
2, 90569, Note_off_c, 5, 0, 0
2, 90569, Note_off_c, 5, 0, 0
2, 90569, Note_off_c, 5, 0, 0
2, 90569, Note_off_c, 5, 0, 0
2, 90569, Note_off_c, 5, 0, 0
2, 90569, Note_off_c, 5, 0, 0
2, 90569, Note_off_c, 5, 0, 0
2, 90569, Note_off_c, 5, 0, 0
2, 90569, Note_off_c, 5, 0, 0
2, 90569, Note_off_c, 5, 0, 0
2, 90569, Note_off_c, 5, 0, 0
2, 90569, Note_off_c, 5, 0, 0
2, 90569, Note_off_c, 5, 0, 0
2, 90569, Note_off_c, 5, 0, 0
2, 90569, Note_off_c, 5, 0, 0
2, 90569, Note_off_c, 5, 0, 0
2, 90569, Note_off_c, 5, 0, 0
2, 90569, Note_off_c, 5, 0, 0
2, 90569, Note_off_c, 5, 0, 0
2, 90569, Note_off_c, 5, 0, 0
2, 90569, Note_off_c, 5, 0, 0
2, 90569, Note_off_c, 5, 0, 0
2, 90569, Note_off_c, 5, 0, 0
2, 90569, Note_off_c, 5, 0, 0
2, 90569, Note_off_c, 5, 0, 0
2, 90569, Note_off_c, 5, 0, 0
2, 90569, Note_off_c, 5, 0, 0
2, 90569, Note_off_c, 5, 0, 0
2, 90569, Note_off_c, 5, 0, 0
2, 90569, Note_off_c, 5, 0, 0
2, 90569, Note_off_c, 5, 0, 0
2, 90569, Note_off_c, 5, 0, 0
2, 90569, Note_off_c, 5, 0, 0
2, 90569, Note_off_c, 5, 0, 0
2, 90569, Note_off_c, 5, 0, 0
2, 90569, Note_off_c, 5, 0, 0
2, 90569, Note_off_c, 5, 0, 0
2, 90569, Note_off_c, 5, 0, 0
2, 90569, Note_off_c, 5, 0, 0
2, 90569, Note_off_c, 5, 0, 0
2, 90569, Note_off_c, 5, 0, 0
2, 90569, Note_off_c, 5, 0, 0
2, 90569, Note_off_c, 5, 0, 0
2, 90569, Note_off_c, 5, 0, 0
2, 90569, Note_off_c, 5, 0, 0
2, 90569, Note_off_c, 5, 0, 0
2, 90569, Note_off_c, 5, 0, 0
2, 90569, Note_off_c, 5, 0, 0
2, 90569, Note_off_c, 5, 0, 0
2, 90569, Note_off_c, 5, 0, 0
2, 90569, Note_off_c, 5, 0, 0
2, 90569, Note_off_c, 5, 0, 0
2, 90569, Note_off_c, 5, 0, 0
2, 90569, Note_off_c, 5, 0, 0
2, 90569, Note_off_c, 5, 0, 0
2, 90569, Note_off_c, 5, 0, 0
2, 90569, Note_off_c, 5, 0, 0
2, 90569, Note_off_c, 5, 0, 0
2, 90569, Note_off_c, 5, 0, 0
2, 90569, Note_off_c, 5, 0, 0
2, 90569, Note_off_c, 5, 0, 0
2, 90569, Note_off_c, 5, 0, 0
2, 90569, Note_off_c, 5, 0, 0
2, 90569, Note_off_c, 5, 0, 0
2, 90569, Note_off_c, 5, 0, 0
2, 90569, Note_off_c, 5, 0, 0
2, 90569, Note_off_c, 5, 0, 0
2, 90569, Note_off_c, 5, 0, 0
2, 90569, Note_off_c, 5, 0, 0
2, 90569, Note_off_c, 5, 0, 0
2, 90569, Note_off_c, 5, 0, 0
2, 90569, Note_off_c, 5, 0, 0
2, 90569, Note_off_c, 5, 0, 0
2, 90569, Note_off_c, 5, 0, 0
2, 90569, Note_off_c, 5, 0, 0
2, 90569, Note_off_c, 5, 0, 0
2, 90569, Note_off_c, 5, 0, 0
2, 90569, Note_off_c, 5, 0, 0
2, 90569, Note_off_c, 5, 0, 0
2, 90569, Note_off_c, 5, 0, 0
2, 90569, Note_off_c, 5, 0, 0
2, 90569, Note_off_c, 5, 0, 0
2, 90569, Note_off_c, 5, 0, 0
2, 90569, Note_off_c, 5, 0, 0
2, 90569, Note_off_c, 5, 0, 0
2, 90569, Note_off_c, 5, 0, 0
2, 90569, Note_off_c, 5, 0, 0
2, 90569, Note_off_c, 5, 0, 0
2, 90569, Note_off_c, 5, 0, 0
2, 90569, Note_off_c, 5, 0, 0
2, 90569, Note_off_c, 5, 0, 0
2, 90569, Note_off_c, 5, 0, 0
2, 90569, Note_off_c, 5, 0, 0
2, 90569, Note_off_c, 5, 0, 0
2, 90569, Note_off_c, 5, 0, 0
2, 90569, Note_off_c, 5, 0, 0
2, 90569, Note_off_c, 5, 0, 0
2, 90569, Note_off_c, 5, 0, 0
2, 90569, Note_off_c, 5, 0, 0
2, 90569, Note_off_c, 5, 0, 0
2, 90569, Note_off_c, 5, 0, 0
2, 90569, Note_off_c, 5, 0, 0
2, 90569, Note_off_c, 5, 0, 0
2, 90569, Note_off_c, 5, 0, 0
2, 90569, Note_off_c, 5, 0, 0
2, 90569, Note_off_c, 5, 0, 0
2, 90569, Note_off_c, 5, 0, 0
2, 90569, Note_off_c, 5, 0, 0
2, 90569, Note_off_c, 5, 0, 0
2, 90569, Note_off_c, 5, 0, 0
2, 90569, Note_off_c, 5, 0, 0
2, 90569, Note_off_c, 5, 0, 0
2, 90569, Note_off_c, 5, 0, 0
2, 90569, Note_off_c, 5, 0, 0
2, 90569, Note_off_c, 5, 0, 0
2, 90569, Note_off_c, 5, 0, 0
2, 90569, Note_off_c, 5, 0, 0
2, 90569, Note_off_c, 5, 0, 0
2, 90569, Note_off_c, 5, 0, 0
2, 90569, Note_off_c, 5, 0, 0
2, 90569, Note_off_c, 5, 0, 0
2, 90569, Note_off_c, 5, 0, 0
2, 90569, Note_off_c, 5, 0, 0
2, 90569, Note_off_c, 5, 0, 0
2, 90569, Note_off_c, 5, 0, 0
2, 90569, Note_off_c, 5, 0, 0
2, 90569, Note_off_c, 5, 0, 0
2, 90569, Note_off_c, 5, 0, 0
2, 90569, Note_off_c, 5, 0, 0
2, 90569, Note_off_c, 5, 0, 0
2, 90569, Note_off_c, 5, 0, 0
2, 90569, Note_off_c, 5, 0, 0
2, 90569, Note_off_c, 5, 0, 0
2, 90569, Note_off_c, 5, 0, 0
2, 90569, Note_off_c, 5, 0, 0
2, 90569, Note_off_c, 5, 0, 0
2, 90569, Note_off_c, 5, 0, 0
2, 90569, Note_off_c, 5, 0, 0
2, 90569, Note_off_c, 5, 0, 0
2, 90569, Note_off_c, 5, 0, 0
2, 90569, Note_off_c, 5, 0, 0
2, 90569, Note_off_c, 5, 0, 0
2, 90569, Note_off_c, 5, 0, 0
2, 90569, Note_off_c, 5, 0, 0
2, 90569, Note_off_c, 5, 0, 0
2, 90569, Note_off_c, 5, 0, 0
2, 90569, Note_off_c, 5, 0, 0
2, 90569, Note_off_c, 5, 0, 0
2, 90569, Note_off_c, 5, 0, 0
2, 90569, Note_off_c, 5, 0, 0
2, 90569, Note_off_c, 5, 0, 0
2, 90569, Note_off_c, 5, 0, 0
2, 90569, Note_off_c, 5, 0, 0
2, 90569, Note_off_c, 5, 0, 0
2, 90569, Note_off_c, 5, 0, 0
2, 90569, Note_off_c, 5, 0, 0
2, 90569, Note_off_c, 5, 0, 0
2, 90569, Note_off_c, 5, 0, 0
2, 90569, Note_off_c, 5, 0, 0
2, 90569, Note_off_c, 5, 0, 0
2, 90569, Note_off_c, 5, 0, 0
2, 90569, Note_off_c, 5, 0, 0
2, 90569, Note_off_c, 5, 0, 0
2, 90569, Note_off_c, 5, 0, 0
2, 90569, Note_off_c, 5, 0, 0
2, 90569, Note_off_c, 5, 0, 0
2, 90569, Note_off_c, 5, 0, 0
2, 90569, Note_off_c, 5, 0, 0
2, 90569, Note_off_c, 5, 0, 0
2, 90569, Note_off_c, 5, 0, 0
2, 90569, Note_off_c, 5, 0, 0
2, 90569, Note_off_c, 5, 0, 0
2, 90569, Note_off_c, 5, 0, 0
2, 90569, Note_off_c, 5, 0, 0
2, 90569, Note_off_c, 5, 0, 0
2, 90569, Note_off_c, 5, 0, 0
2, 90569, Note_off_c, 5, 0, 0
2, 90569, Note_off_c, 5, 0, 0
2, 90569, Note_off_c, 5, 0, 0
2, 90569, Note_off_c, 5, 0, 0
2, 90569, Note_off_c, 5, 0, 0
