0, 0, Header, 1, 12, 480
1, 0, Start_track
1, 0, End_track
2, 0, Start_track
2, 15, Note_on_c, 3, 40, 110
2, 21, Note_on_c, 0, 84, 110
2, 1152, Control_c, 0, 7, 77
2, 1152, Note_on_c, 0, 81, 110
2, 2304, Note_on_c, 0, 61, 64
2, 4608, Note_on_c, 0, 85, 110
2, 5216, Note_off_c, 0, 85, 64
2, 5376, Note_off_c, 0, 81, 64
2, 5568, Note_on_c, 0, 85, 110
2, 6112, Note_on_c, 0, 64, 110
2, 6112, Note_off_c, 0, 80, 64
2, 6184, Note_on_c, 0, 71, 110
2, 6720, Note_on_c, 0, 83, 110
2, 8192, Note_on_c, 0, 80, 110
2, 8448, Note_off_c, 0, 81, 64
2, 8640, Note_off_c, 0, 85, 64
2, 8640, Note_on_c, 0, 81, 110
2, 18240, Note_on_c, 0, 72, 64
2, 18432, Note_on_c, 0, 81, 110
2, 18432, Control_c, 0, 7, 58
2, 19008, Control_c, 0, 7, 46
2, 19008, Control_c, 0, 7, 104
2, 20768, Note_on_c, 0, 71, 110
2, 20960, Note_off_c, 0, 81, 64
2, 21312, Note_off_c, 0, 64, 64
2, 21504, Note_off_c, 0, 62, 64
2, 21504, Control_c, 0, 7, 55
2, 21520, Control_c, 0, 7, 92
2, 21712, Note_off_c, 0, 61, 64
2, 22848, Note_on_c, 0, 66, 64
2, 22880, Note_on_c, 0, 64, 64
2, 23552, Note_off_c, 0, 63, 64
2, 23616, Note_on_c, 0, 64, 64
2, 23616, Control_c, 0, 7, 112
2, 23808, Note_on_c, 0, 61, 64, 86
2, 23808, Note_off_c, 0, 67, 64
2, 24192, Note_off_c, 0, 66, 64
2, 24192, Control_c, 0, 7, 116
2, 24192, Control_c, 6, 7, 44
2, 24496, Note_on_c, 0, 63, 110
2, 24576, Note_off_c, 0, 71, 64
2, 24672, Control_c, 0, 7, 41
2, 24768, Note_on_c, 0, 61, 64
2, 25120, Note_on_c, 0, 64, 64
2, 25152, Note_off_c, 0, 64, 64
2, 25632, Note_off_c, 0, 66, 64
2, 26424, Note_off_c, 0, 66, 64
2, 26496, Note_on_c, 0, 64, 64
2, 26624, Note_on_c, 0, 66, 64
2, 26688, Note_off_c, 2, 7, 15
2, 27040, Note_off_c, 0, 57, 64
2, 29504, Note_on_c, 0, 66, 110
2, 55104, Control_c, 0, 7, 62
2, 55680, Control_c, 7, 7, 100
2, 55840, Control_c, 0, 7, 64
2, 58368, Note_off_c, 7, 71, 64
2, 59328, Control_c, 0, 7, 42
2, 60768, Note_off_c, 0, 69, 64
2, 64128, Control_c, 0, 7, 62
2, 65664, Note_off_c, 0, 68, 64
2, 65664, Note_off_c, 0, 64, 64
2, 65664, Note_off_c, 0, 68, 64
2, 66016, Control_c, 0, 7, 60
2, 67520, Control_c, 0, 7, 6
2, 67584, Note_on_c, 0, 64, 110
2, 67584, Control_c, 0, 7, 6
2, 71232, Note_on_c, 0, 67, 110
2, 71424, Note_on_c, 0, 64, 110
2, 71648, Note_on_c, 0, 73, 110
2, 71648, Note_on_c, 0, 64, 95
2, 71808, Note_on_c, 0, 67, 110
2, 72208, Note_on_c, 0, 71, 110
2, 72800, Control_c, 0, 7, 74
2, 74496, Note_on_c, 0, 59, 95
2, 74688, Note_on_c, 0, 68, 64
2, 74880, Note_on_c, 0, 64, 110
2, 77504, Note_on_c, 0, 68, 95
2, 77728, Note_on_c, 0, 52, 110
2, 78720, Note_off_c, 0, 69, 64
2, 79872, Note_off_c, 0, 64, 64
2, 80736, Note_on_c, 3, 73, 64
2, 81408, Note_off_c, 0, 78, 64
2, 81408, Note_on_c, 0, 88, 82
2, 81408, Note_on_c, 0, 64, 110
2, 81600, Note_on_c, 0, 66, 97
2, 82080, Note_on_c, 0, 69, 95
2, 85280, Note_off_c, 0, 64, 64
2, 87968, Note_off_c, 0, 68, 64
2, 88320, Note_on_c, 0, 68, 95
2, 90256, Note_on_c, 0, 81, 110
2, 90464, Note_on_c, 0, 52, 110
2, 90624, Note_off_c, 0, 61, 64
2, 90624, Note_off_c, 0, 62, 64
2, 92160, Note_on_c, 0, 41, 110
2, 92384, Note_on_c, 0, 63, 110
2, 92960, Note_off_c, 0, 66, 64
2, 99360, Note_off_c, 0, 68, 64
2, 106752, Note_on_c, 0, 68, 110
2, 107328, Note_on_c, 0, 64, 95
2, 114496, Note_on_c, 0, 81, 110
2, 114816, Note_off_c, 0, 71, 64
2, 116704, Note_on_c, 0, 68, 110
2, 116928, Note_off_c, 0, 66, 64
2, 117312, Control_c, 0, 7, 166
2, 119520, Note_off_c, 0, 71, 64
2, 144384, Note_off_c, 0, 72, 64
2, 148672, Control_c, 0, 7, 6
2, 152352, Note_on_c, 0, 64, 110
2, 155680, Note_on_c, 0, 75, 110
2, 155920, Note_on_c, 0, 64, 110
2, 156256, Control_c, 0, 35, 64
2, 156288, Note_on_c, 0, 73, 110
2, 156288, Note_off_c, 0, 54, 64
2, 156480, Note_on_c, 0, 76, 110
2, 157728, Control_c, 0, 7, 71
2, 158272, Control_c, 0, 7, 73
2, 158784, Control_c, 0, 7, 62
2, 158976, Note_on_c, 0, 64, 110
2, 159200, Note_on_c, 0, 68, 110
2, 159360, Note_off_c, 0, 69, 64
2, 159712, Note_off_c, 0, 68, 64
2, 160192, Note_on_c, 0, 61, 110
2, 160416, Note_on_c, 0, 64, 110
2, 160416, Note_on_c, 0, 61, 110
2, 160704, Note_on_c, 0, 68, 110
2, 160768, Note_on_c, 0, 69, 110
2, 163616, Control_c, 0, 7, 75
2, 164352, Note_off_c, 0, 66, 64
2, 170688, Note_off_c, 0, 69, 64
2, 171064, Note_off_c, 0, 66, 64
2, 171264, Control_c, 0, 7, 71
2, 171648, Note_off_c, 0, 68, 64
2, 175104, Note_off_c, 2, 52, 64
2, 175680, Note_on_c, 0, 64, 95
2, 178752, Note_on_c, 0, 63, 110
2, 178752, Note_on_c, 0, 64, 95
2, 184304, Note_on_c, 0, 61, 96
2, 187360, Note_on_c, 0, 80, 110
2, 201984, Note_off_c, 0, 88, 64
2, 202752, Note_on_c, 0, 81, 64
2, 205888, Note_off_c, 0, 67, 64
2, 209664, Note_off_c, 0, 71, 64
2, 213504, Control_c, 10, 68, 94
2, 215232, Note_off_c, 0, 71, 64
2, 215424, Note_off_c, 0, 76, 64
2, 215616, Note_off_c, 0, 66, 64
2, 216000, Note_on_c, 0, 64, 110
2, 216384, Note_on_c, 0, 66, 110
2, 216576, Note_off_c, 0, 72, 64
2, 216736, Note_on_c, 0, 90, 110
2, 217120, Note_off_c, 0, 68, 64
2, 218816, Note_on_c, 0, 64, 110
2, 218816, End_track
3, 0, Start_track
3, 4, Note_on_c, 6, 73, 110
3, 3456, Note_off_c, 1, 80, 64
3, 7648, Note_off_c, 1, 61, 64
3, 14016, Note_off_c, 1, 80, 64
3, 14096, Note_off_c, 1, 61, 64
3, 14272, Note_on_c, 1, 68, 110
3, 14400, Note_off_c, 1, 68, 64
3, 14976, Note_on_c, 1, 68, 110
3, 15072, Note_off_c, 1, 76, 64
3, 15936, Note_on_c, 1, 68, 110
3, 16320, Note_on_c, 1, 61, 81
3, 16588, Note_off_c, 1, 61, 64
3, 16704, Note_off_c, 1, 68, 64
3, 17088, Note_off_c, 1, 10, 64
3, 23616, Note_on_c, 2, 56, 70
3, 26880, Note_on_c, 1, 73, 110
3, 28224, Note_off_c, 1, 76, 64
3, 28416, Note_off_c, 1, 71, 64
3, 29184, Note_off_c, 1, 69, 64
3, 31872, Note_on_c, 1, 68, 110
3, 31936, Note_off_c, 1, 71, 64
3, 33984, Note_off_c, 1, 71, 64
3, 35136, Note_off_c, 1, 66, 64
3, 36704, Note_off_c, 1, 63, 64
3, 36768, Note_off_c, 1, 73, 64
3, 38304, Note_off_c, 1, 68, 64
3, 40128, Note_off_c, 2, 64, 64
3, 41472, Note_on_c, 1, 68, 64
3, 42624, Note_off_c, 1, 61, 64
3, 43424, Note_off_c, 1, 73, 64
3, 46080, Note_on_c, 1, 64, 86
3, 49152, Note_on_c, 1, 66, 110
3, 59744, Note_off_c, 4, 35, 64
3, 79872, Note_on_c, 1, 69, 110
3, 86080, Note_on_c, 1, 69, 110
3, 87168, Note_off_c, 1, 68, 64
3, 89280, Note_off_c, 1, 68, 64
3, 91008, Note_off_c, 2, 61, 64
3, 130720, Note_on_c, 1, 71, 110
3, 130752, Note_on_c, 1, 68, 110
3, 132896, Note_on_c, 1, 66, 64
3, 132928, Note_on_c, 1, 66, 110
3, 135168, Note_off_c, 1, 64, 64
3, 135360, Note_off_c, 2, 57, 64
3, 135552, Note_off_c, 1, 63, 64
3, 135552, Note_off_c, 1, 71, 64
3, 135744, Note_on_c, 1, 71, 64
3, 135968, Note_on_c, 1, 73, 110
3, 136496, Note_on_c, 1, 76, 110
3, 136512, Note_off_c, 2, 57, 64
3, 137056, Note_off_c, 1, 61, 64
3, 137056, Note_on_c, 1, 71, 64
3, 137248, Note_off_c, 1, 63, 64
3, 137280, Note_off_c, 1, 68, 64
3, 137856, Note_off_c, 1, 63, 64
3, 138608, Note_on_c, 1, 68, 64
3, 138944, Note_off_c, 1, 76, 64
3, 139568, Note_off_c, 1, 76, 64
3, 141504, Note_on_c, 1, 69, 110
3, 144384, Note_on_c, 1, 68, 110
3, 144576, Note_off_c, 1, 75, 64
3, 158368, Note_off_c, 1, 66, 64
3, 163744, Note_on_c, 1, 68, 110
3, 171552, Note_off_c, 1, 66, 64
3, 172608, Note_off_c, 1, 69, 64
3, 177600, Note_off_c, 1, 66, 64
3, 219264, Note_on_c, 1, 66, 64
3, 224256, Note_off_c, 1, 66, 64
3, 224448, Note_off_c, 1, 73, 64
3, 224448, Control_c, 1, 7, 15
3, 225024, Control_c, 1, 7, 105
3, 225024, Note_off_c, 1, 71, 64
3, 225024, Control_c, 1, 7, 17
3, 225216, Note_off_c, 1, 66, 64
3, 225408, Note_on_c, 1, 71, 64
3, 225408, Note_off_c, 1, 66, 64
3, 225696, Note_on_c, 1, 73, 110
3, 226176, Note_off_c, 1, 66, 64
3, 226560, Note_on_c, 1, 75, 110
3, 226560, Note_on_c, 1, 75, 110
3, 226752, Note_off_c, 1, 66, 64
3, 226752, Control_c, 1, 7, 97
3, 226864, Control_c, 1, 7, 11
3, 226976, Control_c, 1, 7, 101
3, 227136, Control_c, 1, 7, 7
3, 227136, Note_off_c, 1, 76, 64
3, 227200, Control_c, 1, 7, 108
3, 229184, Control_c, 1, 7, 114
3, 230400, Note_on_c, 1, 69, 110
3, 230400, Control_c, 1, 7, 65
3, 231360, Note_off_c, 3, 42, 64
3, 231360, Control_c, 1, 7, 40
3, 231552, Note_off_c, 1, 63, 64
3, 232512, Control_c, 1, 7, 38
3, 232896, Note_off_c, 9, 44, 64
3, 235168, Control_c, 1, 7, 48
3, 235200, Note_off_c, 1, 63, 64
3, 235488, Control_c, 1, 7, 41
3, 235584, Control_c, 2, 7, 28
3, 235776, Note_on_c, 1, 64, 64
3, 235792, Control_c, 1, 7, 38
3, 236736, Control_c, 1, 7, 7
3, 236832, Note_off_c, 1, 68, 64
3, 236832, Control_c, 3, 7, 43
3, 236928, Note_on_c, 1, 71, 110
3, 240384, Control_c, 1, 7, 110
3, 240544, Control_c, 1, 7, 55
3, 240544, End_track
4, 0, Start_track
4, 912, Note_on_c, 1, 63, 96
4, 3072, Note_on_c, 2, 61, 64
4, 4992, Note_on_c, 2, 56, 64
4, 8064, Note_off_c, 2, 61, 64
4, 8640, Note_on_c, 2, 61, 64
4, 23984, Note_off_c, 4, 35, 64
4, 28000, Note_off_c, 2, 56, 64
4, 28192, Note_on_c, 2, 66, 110
4, 28216, Note_on_c, 2, 56, 110
4, 29760, Note_off_c, 2, 63, 64
4, 30912, Note_on_c, 2, 51, 70
4, 33504, Note_on_c, 1, 69, 110
4, 33808, Note_off_c, 2, 63, 64
4, 34368, Note_on_c, 2, 57, 110
4, 34560, Note_on_c, 0, 68, 64
4, 34560, Note_on_c, 2, 56, 70
4, 34720, Note_on_c, 2, 52, 70
4, 34944, Note_on_c, 2, 56, 70
4, 35328, Note_on_c, 2, 57, 70
4, 35936, Note_off_c, 2, 57, 64
4, 36288, Note_off_c, 2, 59, 64
4, 36672, Note_off_c, 2, 59, 64
4, 36864, Note_on_c, 2, 56, 70
4, 36864, Note_on_c, 2, 52, 70
4, 39328, Note_on_c, 2, 54, 70
4, 39904, Note_on_c, 2, 56, 70
4, 40320, Note_on_c, 2, 56, 70
4, 40720, Note_on_c, 2, 56, 70
4, 41184, Note_on_c, 2, 56, 110
4, 42432, Note_on_c, 2, 59, 110
4, 42432, Note_on_c, 2, 56, 70
4, 43200, Note_off_c, 2, 56, 64
4, 43584, Note_on_c, 2, 56, 70
4, 46080, Note_on_c, 2, 56, 70
4, 46080, Note_off_c, 2, 57, 64
4, 46176, Note_off_c, 2, 54, 64
4, 46368, Note_off_c, 2, 56, 64
4, 46432, Note_on_c, 2, 59, 110
4, 46672, Note_on_c, 2, 57, 110
4, 46848, Note_off_c, 2, 57, 64
4, 49136, Note_on_c, 2, 57, 70
4, 49344, Note_on_c, 2, 58, 70
4, 66816, Note_off_c, 8, 71, 64
4, 87760, Note_off_c, 2, 63, 64
4, 88128, Note_on_c, 2, 57, 110
4, 89056, Note_off_c, 2, 63, 64
4, 94048, Note_on_c, 2, 66, 110
4, 129024, Note_off_c, 2, 56, 64
4, 132864, Note_on_c, 2, 59, 70
4, 134176, Note_on_c, 2, 59, 64
4, 135168, Note_on_c, 2, 59, 71
4, 135360, Note_on_c, 2, 57, 70
4, 138848, Note_on_c, 2, 52, 70
4, 144384, Note_off_c, 2, 54, 64
4, 144384, Note_on_c, 2, 56, 70
4, 213504, Note_off_c, 2, 61, 64
4, 214384, Note_off_c, 2, 64, 64
4, 216544, Note_on_c, 2, 64, 110
4, 217536, Note_on_c, 2, 66, 110
4, 217920, Note_off_c, 2, 66, 64
4, 218240, Note_off_c, 2, 63, 64
4, 218288, Note_off_c, 2, 56, 64
4, 218528, Note_off_c, 2, 56, 64
4, 218816, Note_on_c, 2, 56, 70
4, 219168, Note_on_c, 2, 56, 70
4, 219232, Note_off_c, 2, 66, 64
4, 219264, Note_on_c, 2, 61, 110
4, 219264, Note_on_c, 2, 61, 70
4, 225232, Note_on_c, 2, 56, 70
4, 225600, Control_c, 2, 7, 95
4, 226752, Note_on_c, 2, 61, 70
4, 228080, Control_c, 2, 7, 10
4, 230368, Note_on_c, 2, 59, 70
4, 230400, Note_off_c, 2, 56, 64
4, 230400, Note_on_c, 2, 61, 70
4, 230784, Control_c, 2, 7, 23
4, 231168, Note_off_c, 2, 55, 64
4, 231168, Note_off_c, 2, 52, 64
4, 231552, Control_c, 2, 7, 18
4, 231664, Control_c, 2, 7, 40
4, 231744, Note_off_c, 2, 59, 64
4, 231792, Control_c, 2, 7, 11
4, 231936, Note_off_c, 2, 59, 64
4, 232224, Control_c, 2, 7, 55
4, 232640, Note_on_c, 2, 57, 70
4, 232800, Control_c, 2, 7, 17
4, 232832, Note_on_c, 2, 52, 70
4, 232832, Note_off_c, 2, 56, 64
4, 232896, Note_off_c, 2, 52, 64
4, 232896, Note_off_c, 2, 56, 64
4, 233568, Control_c, 2, 7, 64
4, 233568, Control_c, 2, 7, 35
4, 233664, Control_c, 2, 7, 49
4, 233888, Note_on_c, 2, 59, 64
4, 233952, Control_c, 2, 7, 35
4, 234048, Control_c, 2, 7, 30
4, 234112, Control_c, 2, 7, 34
4, 234240, Note_off_c, 2, 56, 64
4, 234240, Control_c, 2, 7, 44
4, 234240, Control_c, 2, 7, 39
4, 234336, Control_c, 2, 7, 44
4, 234432, Control_c, 2, 7, 45
4, 234432, Control_c, 2, 7, 47
4, 234528, Control_c, 2, 7, 50
4, 234624, Control_c, 2, 7, 30
4, 234624, Control_c, 2, 68, 95
4, 234624, Control_c, 2, 7, 41
4, 234816, Control_c, 2, 7, 25
4, 234816, Control_c, 2, 7, 33
4, 234816, Control_c, 2, 7, 39
4, 234912, Control_c, 2, 7, 36
4, 234928, Control_c, 2, 44, 64
4, 235104, Control_c, 2, 7, 27
4, 235296, Control_c, 2, 7, 46
4, 235872, Control_c, 2, 7, 35
4, 235968, Control_c, 2, 7, 32
4, 236064, Control_c, 2, 7, 37
4, 236160, Control_c, 2, 70, 64
4, 236160, Control_c, 2, 7, 35
4, 236256, Control_c, 2, 7, 40
4, 236256, Control_c, 2, 7, 49
4, 236448, Control_c, 2, 7, 40
4, 236448, Control_c, 2, 7, 22
4, 236544, Control_c, 2, 7, 40
4, 236544, Control_c, 2, 7, 43
4, 236640, Control_c, 2, 7, 31
4, 236736, Note_on_c, 2, 52, 70
4, 236768, Control_c, 2, 7, 24
4, 236832, Control_c, 2, 7, 59
4, 236864, Control_c, 2, 7, 38
4, 236928, Control_c, 2, 7, 47
4, 236976, Control_c, 2, 7, 37
4, 237024, Control_c, 2, 7, 33
4, 237024, Control_c, 2, 7, 48
4, 237280, Control_c, 2, 7, 34
4, 237600, Control_c, 2, 7, 26
4, 237888, Control_c, 2, 7, 14
4, 237984, Control_c, 2, 7, 24
4, 238048, Control_c, 2, 7, 33
4, 238240, Control_c, 2, 7, 39
4, 238272, Control_c, 2, 7, 24
4, 238656, Control_c, 2, 7, 44
4, 238656, Control_c, 2, 7, 18
4, 238688, Control_c, 2, 7, 12
4, 238848, Control_c, 2, 7, 48
4, 238848, Note_off_c, 2, 57, 64
4, 238944, Control_c, 2, 7, 10
4, 239040, Control_c, 2, 7, 27
4, 239216, Note_off_c, 2, 52, 64
4, 239424, Control_c, 2, 7, 29
4, 239424, Control_c, 2, 7, 17
4, 239616, Note_off_c, 2, 59, 64
4, 239728, Control_c, 2, 7, 52
4, 239808, Control_c, 6, 7, 16
4, 239840, Control_c, 2, 7, 24
4, 240000, Control_c, 2, 7, 15
4, 240272, Control_c, 2, 7, 16
4, 240288, Control_c, 2, 7, 15
4, 240384, Control_c, 2, 7, 15
4, 240544, Control_c, 2, 7, 15
4, 240576, Control_c, 2, 7, 27
4, 240672, Control_c, 2, 7, 17
4, 240960, Control_c, 2, 7, 29
4, 241056, Control_c, 2, 7, 12
4, 241440, Control_c, 2, 7, 4
4, 242304, Note_on_c, 2, 56, 70
4, 242304, Control_c, 2, 7, 22
4, 242304, Control_c, 2, 7, 23
4, 242304, Note_off_c, 2, 56, 64
4, 246768, Control_c, 4, 7, 54
4, 247153, Note_off_c, 9, 44, 64
4, 247153, End_track
5, 0, Start_track
5, 7472, Note_off_c, 4, 37, 64
5, 16080, Note_on_c, 3, 52, 110
5, 16704, Note_off_c, 3, 45, 64
5, 18432, Control_c, 3, 7, 100
5, 23616, Note_off_c, 0, 71, 64
5, 33024, Note_off_c, 3, 33, 64
5, 33024, Note_on_c, 3, 39, 110
5, 33600, Note_off_c, 3, 33, 64
5, 33824, Note_on_c, 3, 35, 110
5, 33920, Control_c, 3, 7, 58
5, 35792, Note_on_c, 3, 33, 110
5, 35808, Note_on_c, 3, 40, 110
5, 36096, Note_on_c, 3, 39, 110
5, 36480, Note_off_c, 3, 42, 64
5, 36672, Note_on_c, 3, 33, 110
5, 37424, Note_on_c, 3, 40, 110
5, 37632, Note_off_c, 3, 40, 64
5, 39168, Note_off_c, 3, 35, 64
5, 39936, Control_c, 3, 7, 45
5, 39936, Note_on_c, 3, 42, 110
5, 40320, Note_off_c, 3, 39, 64
5, 43008, Note_on_c, 3, 39, 110
5, 43328, Note_on_c, 3, 42, 110
5, 43424, Note_off_c, 3, 40, 64
5, 44576, Note_off_c, 4, 45, 64
5, 45120, Note_on_c, 3, 33, 110
5, 45504, Note_off_c, 4, 40
5, 45712, Note_off_c, 3, 39, 64
5, 46560, Note_off_c, 6, 75, 108
5, 46869  Note_on_c, 6, 73, 110
5, 47520, Note_on_c, 3, 41, 110
5, 48448, Note_on_c, 3, 42, 110
5, 48960, Note_on_c, 3, 36, 110
5, 49184, Note_off_c, 3, 40, 64
5, 49344, Note_off_c, 3, 39, 64
5, 49728, Note_off_c, 3, 33, 64
5, 49760, Note_off_c, 3, 49, 64
5, 49920, Note_on_c, 3, 42, 110
5, 50304, Note_on_c, 3, 42, 110
5, 51648, Note_on_c, 3, 37, 110
5, 53664, Note_on_c, 3, 42, 110
5, 54528, Note_off_c, 3, 42, 64
5, 55104, Note_on_c, 3, 42, 110
5, 55200, Note_off_c, 3, 32, 64
5, 55680, Note_off_c, 3, 37, 64
5, 57912, Note_on_c, 3, 37, 110
5, 58336, Note_on_c, 3, 36, 110
5, 58944, Note_on_c, 3, 40, 110
5, 59328, Note_off_c, 3, 34, 64
5, 66240, Note_on_c, 3, 39, 110
5, 70656, Note_off_c, 3, 39, 64
5, 71424, Note_off_c, 3, 46, 64
5, 71728, Note_on_c, 3, 44, 110
5, 71808, Note_off_c, 3, 34, 110
5, 75056, Note_off_c, 3, 40, 64
5, 75648, Note_on_c, 3, 40, 110
5, 75840, Note_off_c, 3, 48, 64
5, 79552, Note_on_c, 3, 45, 110
5, 84096, Note_on_c, 3, 52, 110
5, 84672, Note_off_c, 3, 49, 64
5, 86016, Note_on_c, 3, 45, 110
5, 86016, Note_off_c, 3, 36, 64
5, 90048, Note_off_c, 3, 44, 64
5, 93328, Note_on_c, 3, 40, 110
5, 93824, Note_off_c, 3, 40, 64
5, 94368, Note_off_c, 3, 49, 64
5, 94656, Note_off_c, 3, 40, 64
5, 95136, Note_off_c, 3, 40, 64
5, 95232, Note_off_c, 3, 44, 64
5, 95808, Note_on_c, 3, 47, 110
5, 96384, Note_on_c, 3, 52, 110
5, 96672, Note_off_c, 3, 37, 64
5, 97920, Note_off_c, 3, 71, 64
5, 112128, Note_off_c, 3, 59, 64
5, 131424, Note_on_c, 3, 33, 110
5, 131520, Note_on_c, 3, 33, 110
5, 135168, Note_off_c, 3, 33, 64
5, 135360, Note_off_c, 3, 33, 64
5, 135568, Note_on_c, 3, 33, 110
5, 136128, Note_on_c, 3, 33, 110
5, 136320, Note_off_c, 3, 33, 64
5, 136992, Note_on_c, 3, 33, 110
5, 137472, Note_off_c, 3, 33, 64
5, 137856, Note_on_c, 3, 33, 110
5, 139712, Note_off_c, 3, 52, 64
5, 139808, Note_on_c, 3, 47, 110
5, 140032, Note_off_c, 3, 40, 64
5, 141312, Note_off_c, 3, 37, 64
5, 143232, Note_off_c, 3, 37, 64
5, 144448, Note_on_c, 3, 37, 110
5, 144480, Note_off_c, 3, 44, 64
5, 144672, Note_on_c, 3, 42, 110
5, 146976, Note_on_c, 3, 42, 110
5, 148032, Note_on_c, 3, 40, 110
5, 149760, Note_on_c, 3, 49, 110
5, 149760, Note_off_c, 3, 44, 64
5, 150368, Note_off_c, 3, 42, 64
5, 150368, Note_off_c, 3, 45, 64
5, 150528, Note_off_c, 3, 47, 64
5, 151488, Note_on_c, 3, 49, 110
5, 151680, Note_on_c, 3, 42, 110
5, 152224, Note_on_c, 3, 43, 110
5, 153024, Note_on_c, 3, 40, 110
5, 153216, Note_off_c, 3, 7, 49
5, 153504, Note_off_c, 3, 44, 64
5, 154176, Note_on_c, 3, 47, 110
5, 154176, Note_off_c, 3, 40, 64
5, 154560, Note_on_c, 3, 49, 110
5, 155616, Control_c, 3, 7, 100
5, 156672, Note_on_c, 3, 49, 110
5, 156864, Note_on_c, 3, 47, 110
5, 157216, Note_on_c, 3, 39, 110
5, 157248, Note_off_c, 3, 44, 64
5, 157520, Program_c, 3, 32, 60
5, 158304, Note_off_c, 3, 46, 64
5, 158592, Note_on_c, 3, 47, 110
5, 158784, Note_off_c, 3, 49, 64
5, 158784, Note_on_c, 3, 40, 110
5, 159360, Note_off_c, 3, 47, 64
5, 159744, Note_on_c, 3, 47, 110
5, 163392, Note_off_c, 3, 40, 64
5, 165696, Note_off_c, 3, 44, 64
5, 168160, Note_off_c, 3, 40, 64
5, 170176, Note_on_c, 3, 52, 110
5, 171648, Note_off_c, 5, 61, 64
5, 174304, Note_off_c, 3, 42, 64
5, 174720, Note_off_c, 3, 49, 64
5, 175104, Note_off_c, 3, 44, 64
5, 175808, Note_off_c, 3, 37, 64
5, 175872, Note_on_c, 0, 88, 64
5, 176336, Note_off_c, 4, 37, 64
5, 176640, Note_off_c, 3, 44, 64
5, 176656, Note_off_c, 3, 40, 64
5, 176832, Note_on_c, 3, 36, 110
5, 176832, Note_on_c, 3, 42, 110
5, 177600, Note_on_c, 3, 44, 110
5, 178176, Note_on_c, 3, 52, 110
5, 178176, Note_on_c, 3, 45, 110
5, 178176, Note_on_c, 3, 47, 110
5, 178752, Note_on_c, 8, 88, 110
5, 194208, Note_on_c, 3, 49, 110
5, 216384, Note_off_c, 3, 3, 47
5, 217120, Control_c, 3, 7, 73
5, 224336, Control_c, 3, 7, 53
5, 226848, Control_c, 3, 7, 93
5, 227136, Note_off_c, 3, 35, 64
5, 227200, Note_off_c, 3, 33, 64
5, 227712, Control_c, 3, 7, 76
5, 227712, Control_c, 3, 7, 71
5, 227792, Control_c, 3, 72, 17
5, 227800, Note_off_c, 2, 61, 64
5, 227808, Control_c, 3, 7, 82
5, 227904, Control_c, 3, 7, 87
5, 227968, Control_c, 3, 7, 82
5, 228656, Control_c, 3, 7, 75
5, 229152, Control_c, 3, 7, 71
5, 229152, Control_c, 3, 7, 82
5, 229344, Control_c, 3, 7, 77
5, 229440, Control_c, 3, 7, 72
5, 229632, Note_off_c, 3, 35, 64
5, 229632, Control_c, 3, 7, 80
5, 229632, Note_on_c, 3, 33, 110
5, 230016, Note_on_c, 3, 32, 124
5, 230080, Note_off_c, 3, 40, 64
5, 230112, Control_c, 3, 7, 60
5, 230144, Control_c, 3, 7, 65
5, 230688, Note_off_c, 3, 36, 64
5, 230976, Control_c, 3, 7, 62
5, 231064, Control_c, 3, 7, 33
5, 231072, Control_c, 3, 7, 42
5, 231076, Control_c, 3, 7, 66
5, 231264, Control_c, 3, 7, 66
5, 231296, Note_on_c, 3, 35, 110
5, 231456, Control_c, 3, 7, 41
5, 231456, Control_c, 3, 7, 69
5, 231552, Control_c, 3, 7, 62
5, 231648, Control_c, 3, 7, 60
5, 231648, Control_c, 3, 7, 63
5, 231648, Control_c, 3, 7, 63
5, 231648, Control_c, 3, 7, 45
5, 231648, Control_c, 3, 7, 67
5, 231744, Control_c, 3, 7, 51
5, 231744, Control_c, 3, 7, 70
5, 231936, Control_c, 3, 7, 31
5, 231936, Control_c, 3, 7, 53
5, 231968, Control_c, 3, 7, 88
5, 232032, Control_c, 3, 7, 45
5, 232128, Control_c, 3, 7, 62
5, 232128, Note_on_c, 3, 39, 110
5, 232128, Control_c, 3, 7, 58
5, 232320, Control_c, 3, 7, 46
5, 232320, Control_c, 3, 7, 57
5, 232320, Note_off_c, 3, 35, 64
5, 232512, Control_c, 3, 7, 61
5, 232608, Control_c, 3, 7, 56
5, 232800, Note_on_c, 3, 33, 110
5, 232896, Note_off_c, 3, 35, 64
5, 232928, Control_c, 3, 7, 35
5, 232928, Control_c, 3, 7, 42
5, 233088, Control_c, 3, 7, 40
5, 233184, Note_off_c, 3, 33, 64
5, 233280, Control_c, 3, 7, 44
5, 233280, Control_c, 3, 7, 42
5, 233568, Control_c, 3, 7, 40
5, 233856, Control_c, 3, 7, 41
5, 233872, Control_c, 3, 7, 40
5, 234016, Control_c, 3, 7, 56
5, 234048, Control_c, 1, 7, 43
5, 234048, Control_c, 3, 7, 46
5, 234048, Control_c, 3, 7, 29
5, 234112, Control_c, 3, 7, 47
5, 234144, Control_c, 3, 7, 52
5, 234144, Control_c, 3, 7, 47
5, 234176, Control_c, 3, 7, 58
5, 234240, Control_c, 3, 7, 56
5, 234240, Control_c, 3, 7, 37
5, 234368, Control_c, 3, 7, 46
5, 234432, Control_c, 3, 7, 39
5, 234432, Control_c, 3, 7, 44
5, 234432, Control_c, 3, 7, 63
5, 234432, Control_c, 3, 7, 40
5, 234528, Control_c, 3, 7, 44
5, 234528, Control_c, 3, 7, 46
5, 234624, Control_c, 3, 7, 57
5, 234624, Control_c, 3, 7, 49
5, 234624, Control_c, 3, 7, 42
5, 234624, Control_c, 3, 7, 30
5, 234624, Note_on_c, 3, 39, 110
5, 234640, Control_c, 3, 7, 45
5, 234720, Control_c, 3, 7, 46
5, 234720, Control_c, 3, 7, 5
5, 234848, Control_c, 3, 7, 30
5, 234848, Control_c, 3, 7, 36
5, 234912, Control_c, 3, 7, 39
5, 234944, Control_c, 3, 7, 58
5, 234944, Control_c, 3, 7, 4
5, 234944, Control_c, 3, 7, 62
5, 234944, Control_c, 3, 7, 22
5, 235008, Control_c, 3, 7, 41
5, 235008, Control_c, 3, 7, 32
5, 235008, Control_c, 3, 36, 110
5, 235008, Control_c, 3, 7, 41
5, 235008, Control_c, 3, 7, 42
5, 235072, Control_c, 3, 7, 42
5, 235200, Control_c, 3, 7, 47
5, 235200, Control_c, 3, 7, 33
5, 235296, Control_c, 3, 7, 43
5, 235360, Control_c, 3, 7, 44
5, 235360, Control_c, 3, 7, 32
5, 235488, Control_c, 3, 7, 54
5, 235584, Control_c, 3, 7, 46
5, 235680, Control_c, 3, 7, 57
5, 235776, Control_c, 3, 7, 34
5, 235784, Control_c, 3, 7, 32
5, 235904, Control_c, 3, 7, 48
5, 235936, Control_c, 3, 7, 48
5, 236064, Control_c, 3, 7, 36
5, 236064, Control_c, 3, 7, 44
5, 236064, Control_c, 3, 7, 48
5, 236064, Control_c, 3, 7, 37
5, 236064, Control_c, 3, 7, 44
5, 236160, Control_c, 3, 7, 35
5, 236256, Control_c, 3, 7, 33
5, 236336, Control_c, 3, 7, 27
5, 236352, Control_c, 3, 7, 48
5, 236448, Control_c, 3, 7, 47
5, 236448, Control_c, 3, 7, 48
5, 236448, Control_c, 3, 7, 33
5, 236640, Control_c, 3, 7, 40
5, 236832, Control_c, 3, 7, 46
5, 236832, Control_c, 3, 7, 44
5, 236864, Control_c, 3, 7, 32
5, 236864, Control_c, 3, 7, 48
5, 236928, Control_c, 3, 7, 44
5, 237024, Control_c, 3, 7, 41
5, 237128, Control_c, 3, 7, 27
5, 237216, Control_c, 3, 7, 32
5, 237600, Control_c, 3, 7, 34
5, 237984, Control_c, 3, 7, 38
5, 238368, Control_c, 3, 7, 42
5, 238432, Control_c, 3, 7, 47
5, 238672, Control_c, 3, 7, 2
5, 239040, Control_c, 3, 7, 49
5, 239040, Note_off_c, 2, 57, 64
5, 239040, Note_off_c, 3, 36, 64
5, 239232, Control_c, 3, 7, 43
5, 240512, Control_c, 3, 7, 19
5, 241248, Control_c, 3, 7, 4
5, 241632, Control_c, 3, 7, 16
5, 242304, Note_off_c, 3, 32, 64
5, 242496, Note_on_c, 0, 72, 110
5, 164736, Note_on_c, 3, 44, 110
5, 165504, Note_off_c, 3, 44, 64
5, 168576, Note_on_c, 3, 42, 110
5, 170392, Note_off_c, 3, 49, 64
5, 170688, Note_on_c, 3, 45, 110
5, 179104, Note_off_c, 3, 49, 64
5, 184320, Note_on_c, 3, 28, 110
5, 191616, Note_off_c, 3, 44, 64
5, 195648, Note_off_c, 3, 46, 64
5, 224928, Control_c, 3, 7, 93
5, 225216, Control_c, 3, 7, 89
5, 225824, Control_c, 3, 7, 83
5, 226720, Control_c, 3, 7, 84
5, 226752, Control_c, 3, 7, 10
5, 226848, Control_c, 3, 7, 81
5, 227008, Control_c, 3, 7, 82
5, 227520, Control_c, 3, 7, 85
5, 227600, Note_on_c, 3, 33, 110
5, 227616, Control_c, 3, 7, 88
5, 227808, Control_c, 3, 7, 81
5, 227904, Control_c, 3, 7, 81
5, 232416, Note_off_c, 3, 33, 64
5, 232608, Note_off_c, 3, 33, 64
5, 232800, Control_c, 3, 7, 53
5, 233088, Control_c, 3, 7, 82
5, 233376, Control_c, 3, 7, 42
5, 233472, Control_c, 3, 7, 42
5, 234048, Control_c, 3, 7, 49
5, 234432, Note_on_c, 3, 44, 64
5, 235296, Control_c, 3, 7, 40
5, 236064, Control_c, 3, 7, 56
5, 236256, Control_c, 3, 7, 46
5, 236768, Control_c, 3,  57, 70
5, 237024, Control_c, 3, 7, 16
5, 238368, Control_c, 3, 7, 32
5, 239616, Control_c, 3, 7, 4
5, 239808, Note_off_c, 3, 36, 64
5, 240384, Control_c, 5, 7, 90
5, 241824, Control_c, 3, 7, 21
5, 242304, Note_on_c, 3, 33, 110
5, 242400, Control_c, 3, 7, 14
5, 242400, End_track
6, 0, Start_track
6, 3464, Note_off_c, 7, 87, 64
6, 8256, Note_on_c, 4, 35, 110
6, 13440, Note_on_c, 4, 43, 110
6, 14400, Note_off_c, 4, 40, 64
6, 19584, Note_off_c, 4, 44, 64
6, 33600, Note_on_c, 4, 44, 110
6, 33600, Note_off_c, 4, 42, 64
6, 39120, Note_on_c, 4, 45, 110
6, 39168, Note_on_c, 4, 35, 110
6, 39936, Note_on_c, 4, 68, 64
6, 43584, Note_off_c, 4, 42, 64
6, 43680, Note_on_c, 3, 36, 110
6, 43904, Note_off_c, 4, 25, 76
6, 48576, Note_on_c, 4, 42, 110
6, 50496, Note_off_c, 4, 47, 64
6, 52800, Note_on_c, 4, 47, 110
6, 53376, Note_off_c, 4, 47, 64
6, 53952, Note_on_c, 4, 47, 110
6, 54336, Note_on_c, 4, 47, 110
6, 54528, Note_on_c, 4, 42, 110
6, 54816, Note_off_c, 4, 42, 64
6, 54912, Note_off_c, 4, 47, 64
6, 55872, Note_off_c, 4, 42, 64
6, 56832, Note_on_c, 4, 40, 110
6, 56832, Note_off_c, 4, 42, 64
6, 57088, Note_on_c, 4, 49, 110
6, 57088, Note_off_c, 4, 39, 64
6, 57216, Note_on_c, 4, 42, 110
6, 57664, Note_on_c, 4, 47, 110
6, 58368, Note_off_c, 4, 40, 64
6, 58368, Note_on_c, 4, 47, 110
6, 58368, Note_off_c, 4, 42, 64
6, 58368, Note_on_c, 4, 45, 110
6, 58944, Note_on_c, 4, 45, 110
6, 58976, Note_on_c, 4, 47, 110
6, 59328, Note_on_c, 4, 42, 110
6, 59504, Note_off_c, 4, 49, 64
6, 59520, Note_off_c, 4, 47, 64
6, 59520, Note_on_c, 4, 42, 110
6, 59584, Note_off_c, 4, 47, 64
6, 59936, Note_off_c, 4, 42, 64
6, 60672, Note_off_c, 4, 45, 64
6, 60928, Note_off_c, 4, 47, 64
6, 61248, Note_on_c, 4, 40, 110
6, 64128, Note_off_c, 4, 47, 64
6, 64512, Note_on_c, 4, 67, 110
6, 64528, Note_on_c, 4, 49, 110
6, 66048, Note_off_c, 4, 40, 64
6, 66240, Note_on_c, 4, 47, 110
6, 67104, Note_off_c, 4, 47, 64
6, 68768, Note_on_c, 4, 47, 110
6, 69888, Note_off_c, 4, 49, 64
6, 72960, Note_off_c, 0, 64, 64
6, 72960, Note_on_c, 4, 42, 110
6, 72992, Note_off_c, 4, 34, 64
6, 73328, Note_off_c, 4, 45, 64
6, 73728, Note_off_c, 4, 49, 64
6, 73728, Note_off_c, 4, 47, 64
6, 73920, Note_on_c, 4, 47, 110
6, 74304, Note_on_c, 4, 47, 110
6, 74304, Note_off_c, 4, 47, 64
6, 74880, Note_on_c, 4, 45, 110
6, 75456, Note_off_c, 4, 44, 64
6, 75472, Note_on_c, 4, 35, 110
6, 85632, Note_on_c, 4, 40, 110
6, 89888, Note_on_c, 4, 45, 110
6, 93312, Note_on_c, 4, 42, 110
6, 93344, Note_on_c, 6, 32, 64 
6, 93696, Note_off_c, 4, 47, 64
6, 95808, Note_off_c, 4, 41, 64
6, 95840, Note_off_c, 4, 45, 64
6, 96000, Note_off_c, 4, 45, 64
6, 99872, Note_on_c, 4, 53, 110
6, 99888, Note_on_c, 4, 47, 64
6, 111360, Note_on_c, 4, 40, 110
6, 121344, Note_off_c, 4, 37, 64
6, 124224, Note_on_c, 4, 35, 110
6, 140768, Note_off_c, 4, 37, 64
6, 140832, Note_on_c, 4, 49, 110
6, 144000, Note_on_c, 4, 33, 74,
6, 144070, Note_off_c, 4, 37, 64
6, 146880, Note_off_c, 4, 44, 64
6, 147456, Note_off_c, 4, 40, 64
6, 150528, Note_on_c, 4, 47, 110
6, 151232, Note_on_c, 4, 47, 110
6, 152768, Note_off_c, 4, 37, 64
6, 153600, Note_on_c, 4, 44, 110
6, 153792, Note_on_c, 4, 51, 110
6, 153824, Note_off_c, 4, 44, 64
6, 154176, Note_on_c, 4, 47, 110
6, 154400, Note_on_c, 4, 40, 110
6, 154560, Note_on_c, 4, 45, 110
6, 155520, Note_off_c, 4, 42, 64
6, 156160, Note_off_c, 4, 76, 64
6, 156208, Note_off_c, 4, 44, 64
6, 156288, Note_on_c, 4, 47, 110
6, 156448, Note_on_c, 4, 44, 110
6, 156800, Note_on_c, 4, 43, 110
6, 157248, Note_off_c, 4, 49, 64
6, 157440, Note_off_c, 4, 43, 64
6, 158176, Note_off_c, 4, 45, 64
6, 158976, Note_off_c, 4, 47, 64
6, 159104, Note_off_c, 4, 44, 64
6, 159168, Note_on_c, 4, 49, 110
6, 159744, Note_off_c, 4, 49, 64
6, 160512, Note_off_c, 4, 38, 64
6, 160704, Note_on_c, 4, 35, 110
6, 160896, Note_on_c, 4, 52, 110
6, 161248, Note_on_c, 4, 37, 110
6, 161760, Note_off_c, 4, 34, 64
6, 162544, Note_off_c, 4, 31, 64
6, 164544, Note_on_c, 4, 33, 110
6, 164576, Note_off_c, 4, 49, 64
6, 164576, Note_on_c, 4, 44, 110
6, 165184, Note_off_c, 4, 37, 64
6, 165184, Note_off_c, 4, 42, 64
6, 165984, Note_on_c, 4, 45, 110
6, 166752, Note_off_c, 4, 39, 64
6, 168192, Note_on_c, 4, 32, 110
6, 168352, Note_off_c, 4, 39, 64
6, 168576, Note_on_c, 4, 36, 110
6, 169696, Note_on_c, 4, 31, 110
6, 178368, Note_on_c, 4, 39, 110
6, 180368, Note_off_c, 4, 32, 64
6, 184608, Note_on_c, 4, 4240, 64
6, 184896, Note_on_c, 4, 28, 110
6, 187360, Note_off_c, 3, 110
6, 194688, Note_off_c, 4, 68, 110
6, 195040, Note_on_c, 4, 41, 110
6, 196160, Note_off_c, 4, 49, 64
6, 201376, Note_off_c, 4, 47, 64
6, 205600, Note_on_c, 4, 40, 110
6, 209088, Note_on_c, 4, 40, 110
6, 209088, Note_off_c, 4, 45, 64
6, 214176, Note_off_c, 4, 40, 64
6, 218176, Note_on_c, 4, 55, 110
6, 226848, Control_c, 4, 7, 31
6, 229040, Note_off_c, 4, 40, 64
6, 230400, Note_off_c, 4, 49, 64
6, 230400, Control_c, 4, 7, 23
6, 230592, Note_off_c, 4, 33, 64
6, 230880, Control_c, 4, 7, 22
6, 231232, Note_off_c, 4, 40, 64
6, 231552, Note_off_c, 4, 39, 64
6, 231744, Note_on_c, 7, 76, 86
6, 232016, Note_on_c, 4, 40, 110
6, 232896, Note_on_c, 4, 33, 110
6, 233088, Note_on_c, 4, 39, 110
6, 233120, Control_c, 4, 7, 41
6, 233296, Note_off_c, 4, 47, 64
6, 233872, Note_on_c, 4, 40, 110
6, 234048, Control_c, 4, 7, 45
6, 234048, Note_on_c, 4, 36, 110
6, 234048, Note_on_c, 4, 33, 110
6, 234432, Note_on_c, 4, 44, 110
6, 234528, Control_c, 4, 7, 40
6, 234624, Note_on_c, 4, 42, 110
6, 234816, Note_on_c, 4, 36, 110
6, 235776, Control_c, 4, 7, 22
6, 235968, Control_c, 4, 7, 45
6, 236064, Control_c, 4, 7, 40
6, 236160, Note_off_c, 4, 40, 64
6, 236960, Control_c, 4, 7, 26
6, 237472, Control_c, 4, 7, 49
6, 238048, Control_c, 4, 7, 28
6, 238176, Control_c, 4, 7, 57
6, 238208, Control_c, 4, 7, 51
6, 238528, Control_c, 4, 7, 28
6, 238640, Note_off_c, 4, 35, 64
6, 238752, Control_c, 4, 7, 31
6, 240976, Note_off_c, 4, 33, 64
6, 241632, Control_c, 4, 7, 70
6, 5952, Note_off_c, 4, 44, 64
6, 14608, Note_on_c, 0, 64, 110
6, 19808, Note_on_c, 4, 37, 110
6, 35136, Note_on_c, 5, 61, 96
6, 35520, Note_on_c, 4, 33, 110
6, 35520, Note_off_c, 4, 33, 64
6, 48352, Note_off_c, 4, 40, 64
6, 50624, Note_on_c, 4, 47, 110
6, 53440, Note_on_c, 4, 47, 110
6, 114432, Note_on_c, 4, 37, 110
6, 117664, Note_off_c, 4, 37, 64
6, 118272, Note_off_c, 4, 34, 64
6, 140672, Note_off_c, 4, 38, 64
6, 181248, Note_on_c, 4, 40, 110
6, 183680, Note_off_c, 4, 49, 64
6, 183968, Note_on_c, 4, 42, 110
6, 184320, Note_on_c, 4, 31, 110
6, 187584, Note_off_c, 4, 40, 64
6, 192576, Note_off_c, 4, 45, 64
6, 205248, Note_off_c, 4, 44, 64
6, 208096, Note_on_c, 4, 42, 110
6, 231552, Note_on_c, 4, 39, 110
6, 233120, Note_off_c, 4, 42, 64
6, 234336, Control_c, 4, 7, 16
6, 234816, Control_c, 4, 64
6, 235392, Control_c, 4, 7, 59
6, 236064, Control_c, 4, 7, 46
6, 236256, Control_c, 4, 7, 28
6, 236640, Note_on_c, 4, 39, 110
6, 236736, Control_c, 4, 7, 41
6, 237024, Note_off_c, 4, 36, 64
6, 241248, Control_c, 4, 7, 36
7, 0, Start_track
7, 0, Title_t, "-e-anssuy"
7, 1152, Note_off_c, 8, 76, 64
7, 30720, Note_on_c, 5, 59, 110
7, 31552, Note_on_c, 5, 59, 110
7, 33088, Note_on_c, 5, 59, 96
7, 33216, Note_off_c, 5, 61, 64
7, 33376, Note_off_c, 5, 61, 64
7, 33696, Note_on_c, 5, 61, 110
7, 33752, Note_on_c, 5, 59, 110
7, 34016, Note_on_c, 5, 59, 96
7, 34368, Note_off_c, 5, 59, 64
7, 35136, Note_off_c, 5, 59, 64
7, 35424, Note_on_c, 5, 59, 64
7, 35616, Note_on_c, 5, 59, 110
7, 36288, Note_off_c, 5, 59, 64
7, 36480, Note_off_c, 5, 59, 64
7, 36576, Note_off_c, 5, 59, 64
7, 36960, Note_off_c, 5, 56, 64
7, 37024, Note_off_c, 5, 59, 64
7, 37184, Note_on_c, 5, 59, 96
7, 37736, Note_off_c, 5, 59, 64
7, 38880, Note_off_c, 5, 59, 64
7, 39744, Note_off_c, 5, 59, 64
7, 41472, Note_off_c, 5, 61, 64
7, 42432, Note_off_c, 5, 61, 64
7, 42976, Note_on_c, 5, 61, 64
7, 43200, Note_off_c, 5, 61, 64
7, 43200, Note_on_c, 5, 61, 110
7, 43200, Note_on_c, 5, 61, 96
7, 43584, Note_on_c, 5, 61, 96
7, 43808, Note_on_c, 7, 83, 64
7, 44448, Note_off_c, 5, 61, 64
7, 44864, Note_off_c, 5, 61, 64
7, 45696, Note_off_c, 5, 61, 64
7, 45824, Note_on_c, 5, 61, 96
7, 46064, Note_on_c, 5, 59, 96
7, 47616, Note_on_c, 2, 46, 70
7, 49920, Note_on_c, 5, 61, 110
7, 51864, Note_off_c, 5, 61, 64
7, 55680, Note_on_c, 5, 73, 110
7, 83520, Note_on_c, 5, 61, 96
7, 83616, Note_on_c, 5, 61, 110
7, 84064, Note_off_c, 5, 61, 64
7, 94880, Note_on_c, 5, 78, 110
7, 94880, Note_on_c, 5, 76, 110
7, 95072, Note_off_c, 5, 76, 64
7, 95232, Note_off_c, 5, 76, 64
7, 95232, Note_on_c, 7, 76, 89
7, 95232, Note_off_c, 5, 71, 64
7, 95840, Note_off_c, 5, 76, 664
7, 96000, Note_on_c, 5, 78, 110
7, 97920, Note_on_c, 5, 75, 110
7, 98304, Note_off_c, 5, 76, 64
7, 99872, Note_off_c, 5, 76, 64
7, 100032, Note_on_c, 5, 64, 64
7, 100216, Note_off_c, 5, 81, 64
7, 102208, Note_off_c, 5, 81, 64
7, 103296, Note_off_c, 5, 75, 64
7, 103680, Note_off_c, 5, 81, 78
7, 103680, Note_on_c, 5, 73, 81
7, 103680, Note_on_c, 5, 78, 110
7, 104320, Note_on_c, 5, 61, 96
7, 106848, Note_on_c, 5, 76, 110
7, 109424, Note_off_c, 5, 78, 64
7, 109472, Note_on_c, 5, 81, 11, 100
7, 109824, Note_off_c, 5, 98, 64
7, 109824, Note_on_c, 5, 76, 96
7, 110048, Note_off_c, 5, 78, 64
7, 119040, Note_off_c, 5, 61, 64
7, 130272, Note_on_c, 5, 61, 96
7, 134816, Note_off_c, 5, 61, 64
7, 135552, Note_on_c, 5, 61, 110
7, 135744, Note_off_c, 5, 61, 64
7, 135936, Note_off_c, 5, 61, 64
7, 136296, Note_off_c, 5, 61, 64
7, 136320, Note_on_c, 5, 61, 64
7, 137280, Note_on_c, 5, 61, 110
7, 137856, Note_on_c, 5, 61, 64
7, 140544, Note_off_c, 5, 61, 64
7, 140704, Note_on_c, 5, 63, 96
7, 140768, Note_on_c, 5, 61, 110
7, 140864, Note_on_c, 5, 61, 110
7, 140960, Note_off_c, 5, 61, 64
7, 142464, Note_on_c, 5, 61, 110
7, 143232, Note_on_c, 5, 61, 110
7, 143296, Note_off_c, 5, 61, 64
7, 144000, Note_off_c, 5, 73, 64
7, 156064, Note_on_c, 5, 75, 110
7, 158576, Note_off_c, 5, 78, 64
7, 173792, Note_on_c, 5, 76, 110
7, 178368, Note_on_c, 5, 61, 64
7, 180480, Note_off_c, 5, 61, 64
7, 180608, Note_on_c, 5, 61, 96
7, 184096, Note_on_c, 5, 61, 64
7, 186240, Note_off_c, 5, 73, 64
7, 186640, Note_off_c, 5, 64, 64
7, 189728, Note_off_c, 5, 61, 64
7, 190464, Control_c, 5, 78, 110
7, 191616, Note_off_c, 5, 78, 64
7, 192608, Note_off_c, 5, 78, 64
7, 193216, Note_off_c, 5, 76, 64
7, 193696, Note_on_c, 5, 73, 110
7, 193824, Note_on_c, 5, 73, 88
7, 193824, Note_on_c, 5, 73, 64
7, 193920, Note_off_c, 5, 73, 64
7, 194112, Note_off_c, 5, 76, 64
7, 194304, Note_off_c, 5, 78, 64
7, 194304, Note_on_c, 5, 76, 110
7, 194880, Note_off_c, 5, 78, 64
7, 194880, Note_on_c, 5, 78, 110
7, 194880, Note_on_c, 5, 76, 110
7, 195648, Note_on_c, 5, 75, 110
7, 195648, Note_off_c, 5, 76, 64
7, 195648, Note_on_c, 5, 76, 110
7, 195648, Note_off_c, 5, 78, 64
7, 195648, Note_off_c, 5, 64, 64
7, 195648, Note_off_c, 5, 76, 64
7, 195840, Note_off_c, 5, 78, 64
7, 195840, Note_on_c, 5, 63, 110
7, 195872, Note_on_c, 5, 76, 110
7, 196128, Note_off_c, 5, 79, 64
7, 196128, Note_off_c, 5, 78, 64
7, 196128, Note_on_c, 5, 75, 88
7, 196320, Note_on_c, 5, 76, 110
7, 196512, Note_on_c, 5, 78, 110
7, 196608, Note_off_c, 5, 75, 64
7, 196640, Note_on_c, 5, 73, 86
7, 196672, Note_off_c, 5, 90, 64
7, 196768, Note_on_c, 5, 76, 72
7, 199168, Note_off_c, 5, 69, 64
7, 201664, Note_on_c, 5, 78, 64
7, 202128, Note_on_c, 5, 68, 64
7, 208896, Note_on_c, 5, 64, 72
7, 216192, Note_on_c, 5, 61, 64
7, 223104, Note_off_c, 5, 61, 64
7, 223392, Control_c, 5, 7, 58
7, 225696, Note_on_c, 5, 61, 96
7, 230080, Note_on_c, 5, 63, 110
7, 231360, Note_off_c, 5, 61, 64
7, 231456, Note_off_c, 5, 61, 64
7, 231552, Note_off_c, 5, 61, 64
7, 231936, Note_off_c, 5, 61, 64
7, 232320, Control_c, 5, 7, 56
7, 232528, Note_on_c, 5, 61, 110
7, 232704, Note_off_c, 5, 63, 64
7, 233184, Note_on_c, 5, 61, 110
7, 234240, Note_on_c, 5, 61, 96
7, 234336, Note_off_c, 5, 61, 64
7, 234816, Control_c, 5, 7, 38
7, 235008, Note_on_c, 5, 61, 110
7, 235104, Note_on_c, 6, 71, 64
7, 235360, Note_on_c, 5, 61, 96
7, 235968, Note_on_c, 5, 61, 96
7, 236064, Control_c, 5, 7, 36
7, 236160, Note_off_c, 5, 61, 64
7, 236160, Note_off_c, 5, 61, 64
7, 236544, Control_c, 5, 7, 41
7, 238064, Control_c, 5, 7, 26
7, 238080, Note_off_c, 5, 61, 64
7, 238176, Note_on_c, 5, 61, 96
7, 238176, Control_c, 5, 7, 44
7, 238464, Control_c, 5, 7, 37
7, 240416, Note_off_c, 5, 63, 64
7, 241440, Control_c, 5, 7, 21
7, 241440, End_track
7, 31904, Note_on_c, 5, 61, 96
7, 40480, Note_off_c, 5, 61, 64
7, 40528, Note_off_c, 5, 61, 64
7, 40624, Note_on_c, 5, 61, 64
7, 41280, Note_on_c, 5, 61, 110
7, 42432, Note_off_c, 5, 61, 64
7, 120416, Note_off_c, 5, 61, 64
7, 120448, Note_on_c, 5, 61, 96
7, 120576, Note_on_c, 5, 61, 96
7, 120672, Note_off_c, 5, 61, 64
7, 122592, Note_on_c, 5, 61, 64
7, 122816, Note_on_c, 5, 61, 96
7, 122848, Note_off_c, 5, 61, 64
7, 123072, Note_off_c, 5, 61, 64
7, 123168, Note_off_c, 5, 61, 64
7, 123680, Note_off_c, 5, 61, 64
7, 123696, Note_off_c, 5, 61, 64
7, 124736, Note_off_c, 5, 61, 64
7, 125120, Note_off_c, 5, 61, 64
7, 125376, Note_on_c, 5, 61, 64
7, 125568, Note_on_c, 5, 61, 96
7, 125696, Note_on_c, 5, 61, 110
7, 125760, Note_on_c, 5, 61, 96
7, 125760, Note_on_c, 5, 61, 96
7, 126720, Note_on_c, 5, 61, 110
7, 128096, Note_off_c, 5, 61, 64
7, 128640, Note_on_c, 5, 61, 110
7, 128672, Note_on_c, 5, 61, 110
7, 128928, Note_off_c, 5, 61, 64
7, 129024, Note_on_c, 5, 61, 110
7, 129920, Note_off_c, 5, 61, 64
7, 229600, Note_off_c, 5, 61, 64
7, 9600, Note_on_c, 5, 61, 64
7, 20256, Note_off_c, 5, 61, 64
7, 99664, Note_on_c, 5, 59, 96
7, 205440, Note_on_c, 5, 68, 82
7, 207008, Note_off_c, 5, 78, 64
7, 207584, Note_off_c, 5, 76, 64
7, 208896, Note_off_c, 5888, }, 4, 45, 2, 64, 64
7, 215040, Note_on_c, 5, 59, 64
7, 215232, Note_on_c, 5, 68, 80
7, 217632, Note_off_c, 5, 59, 64
7, 225424, Note_on_c, 5, 59, 64
7, 229920, Note_off_c, 5, 59, 64
8, 0, Start_track
8, 4, Note_on_c, 9, 36, 110
8, 2359, Control_c, 3, 7, 18
8, 6144, Note_on_c, 6, 63, 110
8, 6912, Note_off_c, 6, 74, 64
8, 23904, Note_on_c, 6, 68, 110
8, 31712, Note_off_c, 6, 63, 64
8, 32928, Note_on_c, 6, 68, 64
8, 34080, Note_on_c, 6, 73, 110
8, 34528, Note_on_c, 6, 73, 64
8, 36064, Note_off_c, 6, 58, 64
8, 38752, Note_on_c, 6, 71, 60
8, 39936, Note_off_c, 6, 66, 64
8, 40096, Note_off_c, 6, 76, 64
8, 41088, Note_off_c, 6, 71, 64
8, 42016, Note_off_c, 6, 68, 64
8, 44576, Note_off_c, 6, 71, 64
8, 48224, Note_off_c, 6, 76, 64
8, 51040, Note_off_c, 0, 68, 64
8, 51456, Note_off_c, 6, 68, 64
8, 130752, Note_on_c, 6, 68, 110
8, 138240, Note_off_c, 6, 68, 64
8, 138240, Note_on_c, 6, 75, 110
8, 139008, Note_off_c, 6, 73, 64
8, 142368, Note_on_c, 6, 63, 64
8, 143248, Note_off_c, 6, 71, 64
8, 143424, Note_on_c, 6, 69, 64
8, 143808, Note_on_c, 6, 68, 110
8, 145376, Note_off_c, 6, 63, 64
8, 146896, Note_on_c, 6, 78, 110
8, 147232, Note_off_c, 6, 75, 64
8, 163584, Note_off_c, 6, 73, 64
8, 214656, Note_on_c, 6, 71, 110
8, 219456, Note_off_c, 6, 75, 64
8, 224448, Note_off_c, 6, 66, 64
8, 224832, Control_c, 6, 7, 47
8, 225984, Note_on_c, 6, 71, 64
8, 226560, Note_on_c, 6, 73, 110
8, 226768, Control_c, 1, 7, 101
8, 226880, Control_c, 6, 7, 19
8, 227328, Note_on_c, 6, 76, 110
8, 227808, Control_c, 6, 7, 41
8, 227808, Control_c, 6, 7, 56
8, 228576, Control_c, 9, 7, 73
8, 230592, Note_off_c, 6, 71, 64
8, 230784, Control_c, 6, 7, 46
8, 230816, Note_on_c, 6, 68, 110
8, 231072, Control_c, 6, 7, 32
8, 231072, Control_c, 6, 7, 36
8, 231072, Control_c, 6, 7, 33
8, 231360, Control_c, 6, 7, 52
8, 231552, Note_on_c, 6, 71, 73
8, 231744, Control_c, 6, 7, 37
8, 231744, Note_off_c, 6, 69, 64
8, 231744, Control_c, 6, 7, 41
8, 231840, Note_off_c, 6, 75, 64
8, 231936, Control_c, 61, 107
8, 232096, Note_on_c, 6, 68, 64
8, 232320, Control_c, 6, 7, 41
8, 232416, Control_c, 6, 7, 22
8, 232608, Control_c, 6, 7, 34
8, 232704, Note_off_c, 6, 66, 75
8, 232800, Control_c, 6, 7, 43
8, 232800, Note_off_c, 6, 71, 64
8, 232896, Note_on_c, 6, 58, 64
8, 232896, Note_on_c, 6, 66, 64
8, 232928, Control_c, 6, 7, 22
8, 232928, Control_c, 6, 7, 22
8, 232928, Control_c, 6, 7, 56
8, 232992, Control_c, 6, 7, 25
8, 233056, Note_on_c, 6, 68, 82, 64
8, 233280, Note_off_c, 6, 71, 64
8, 233472, Note_off_c, 6, 73, 64
8, 233472, Note_off_c, 6, 71, 64
8, 233696, Note_on_c, 6, 63, 64
8, 233760, Control_c, 6, 7, 15
8, 234256, Control_c, 6, 7, 35
8, 234656, Control_c, 6, 7, 36
8, 235584, Control_c, 6, 7, 45
8, 235680, Control_c, 6, 7, 56
8, 235680, Control_c, 6, 7, 25
8, 235904, Control_c, 6, 7, 21
8, 235968, Note_on_c, 8, 80, 110
8, 235968, Control_c, 6, 7, 51
8, 236016, Note_off_c, 6, 66, 64
8, 236064, Control_c, 6, 7, 50
8, 236064, Control_c, 6, 7, 41
8, 236064, Control_c, 0, 7, 18
8, 236160, Note_on_c, 6, 58, 64
8, 236160, Note_on_c, 6, 68, 64
8, 236160, Note_on_c, 6, 58, 64
8, 236544, Note_on_c, 6, 63, 64
8, 236736, Note_on_c, 6, 69, 110
8, 236832, Control_c, 6, 7, 44
8, 237808, Note_off_c, 6, 73, 64
8, 241344, Control_c, 6, 7, 41
8, 241344, Control_c, 6, 7, 32
8, 241344, End_track
9, 0, End_track
9, 6, Note_off_c, 9, 46, 64
9, 1559, Note_on_c, 2, 56, 70
9, 6112, Note_on_c, 8, 78, 82
9, 9600, Note_off_c, 0, 68, 64
9, 38784, Note_on_c, 7, 85, 110
9, 44480, Note_on_c, 7, 75, 64
9, 52768, Note_on_c, 7, 76, 64
9, 53376, Note_on_c, 7, 78, 81
9, 53952, Note_off_c, 7, 89, 64
9, 54144, Note_on_c, 7, 78, 91
9, 54336, Note_on_c, 7, 81, 110
9, 54624, Note_off_c, 7, 83, 64
9, 55168, Note_off_c, 1, 68, 64
9, 55584, Note_off_c, 7, 80, 64
9, 55616, Note_off_c, 7, 76, 64
9, 55744, Note_on_c, 7, 75, 81
9, 55872, Note_off_c, 7, 76, 64
9, 56256, Note_off_c, 7, 67, 64
9, 56256, Note_on_c, 7, 69, 86
9, 56256, Note_off_c, 7, 76, 64
9, 56448, Note_on_c, 7, 71, 86
9, 56448, Note_off_c, 7, 71, 64
9, 56860, Note_off_c, 7, 75, 64
9, 57984, Note_on_c, 7, 82, 81
9, 58368, Note_on_c, 7, 73, 86
9, 58848, Note_off_c, 7, 75, 64
9, 59104, Note_off_c, 7, 76, 64
9, 59168, Note_off_c, 7, 76, 64
9, 59328, Note_on_c, 7, 71, 86
9, 59520, Note_on_c, 7, 75, 79
9, 59520, Note_on_c, 7, 72, 86
9, 59520, Note_on_c, 7, 89, 104
9, 61120, Note_on_c, 7, 75, 79
9, 61248, Note_off_c, 7, 76, 64
9, 62592, Note_on_c, 7, 76, 86
9, 62688, Note_on_c, 7, 75, 81
9, 62976, Note_off_c, 7, 73, 64
9, 63552, Note_on_c, 7, 71, 86
9, 63776, Note_off_c, 7, 81, 64
9, 63776, Note_off_c, 7, 73, 64
9, 64112, Note_off_c, 7, 79, 64
9, 64320, Note_on_c, 7, 76, 81
9, 64512, Note_off_c, 7, 75, 64
9, 64672, Note_on_c, 7, 71, 86
9, 65216, Note_off_c, 7, 76, 64
9, 65664, Note_off_c, 7, 81, 64
9, 65664, Note_on_c, 7, 80, 86
9, 66016, Note_on_c, 7, 71, 86
9, 66048, Note_off_c, 7, 73, 64
9, 66624, Note_on_c, 7, 73, 86
9, 66624, Note_off_c, 7, 73, 64
9, 67200, Note_on_c, 7, 83, 108
9, 67216, Note_on_c, 7, 91, 23
9, 67584, Note_off_c, 7, 67, 64
9, 67584, Note_on_c, 7, 67, 86
9, 67680, Note_on_c, 7, 78, 86
9, 67776, Note_off_c, 7, 73, 64
9, 67968, Note_on_c, 7, 76, 86
9, 69312, Note_on_c, 7, 63, 86
9, 69504, Note_off_c, 7, 83, 64
9, 69664, Note_on_c, 7, 76, 91
9, 69696, Note_off_c, 7, 63, 64
9, 69824, Note_on_c, 7, 78, 99
9, 70816, Note_off_c, 7, 75, 64
9, 71424, Note_on_c, 7, 76, 84
9, 72000, Note_off_c, 7, 87, 64
9, 72960, Note_off_c, 7, 75, 64
9, 73472, Note_off_c, 7, 76, 64
9, 73728, Note_off_c, 7, 75, 64
9, 74688, Note_on_c, 7, 83, 110
9, 74880, Note_on_c, 7, 75, 70
9, 75456, Note_on_c, 7, 87, 108
9, 75840, Note_on_c, 7, 83, 110
9, 76000, Note_on_c, 7, 83, 110
9, 76416, Note_off_c, 7, 73, 64
9, 96000, Note_on_c, 7, 78, 110
9, 99456, Note_on_c, 7, 78, 110
9, 100032, Note_off_c, 7, 76, 64
9, 142464, Note_on_c, 7, 76, 86
9, 148928, Note_on_c, 7, 76, 91
9, 149152, Note_on_c, 7, 82, 86
9, 149568, Note_on_c, 7, 81, 108
9, 150112, Note_off_c, 7, 76, 64
9, 150176, Note_off_c, 7, 76, 64
9, 150336, Note_off_c, 7, 84, 64
9, 150432, Note_off_c, 7, 67, 64
9, 150720, Note_on_c, 7, 83, 108
9, 151296, Note_off_c, 7, 63, 64
9, 151456, Note_off_c, 7, 71, 64
9, 151648, Note_off_c, 7, 76, 64
9, 151776, Note_on_c, 7, 69, 89
9, 153600, Note_off_c, 7, 75, 64
9, 153744, Note_off_c, 7, 88, 64
9, 153984, Note_off_c, 7, 68, 64
9, 154176, Note_on_c, 7, 76, 86
9, 154368, Note_on_c, 7, 78, 110
9, 154560, Note_off_c, 7, 76, 64
9, 155312, Note_on_c, 7, 81, 86
9, 155424, Note_on_c, 7, 76, 86
9, 155712, Note_off_c, 7, 78, 64
9, 155712, Note_on_c, 7, 76, 86
9, 156064, Note_off_c, 7, 75, 64
9, 156220, Note_on_c, 7, 71, 86
9, 156288, Note_on_c, 7, 71, 86
9, 156448, Note_on_c, 7, 76, 86
9, 156480, Note_on_c, 7, 79, 87
9, 156544, Note_on_c, 7, 63, 86
9, 156576, Note_on_c, 7, 89, 107
9, 156672, Note_off_c, 7, 76, 64
9, 156672, Note_off_c, 7, 75, 64
9, 156672, Note_off_c, 7, 87, 64
9, 156672, Note_on_c, 7, 78, 91
9, 156672, Note_off_c, 7, 85, 64
9, 156672, Note_on_c, 7, 71, 86
9, 156672, Note_off_c, 7, 76, 64
9, 156768, Note_off_c, 7, 87, 64
9, 156768, Note_off_c, 7, 80, 64
9, 156896, Note_off_c, 7, 71, 64
9, 156896, Note_off_c, 7, 83, 64
9, 157024, Note_off_c, 7, 73, 64
9, 157232, Note_off_c, 7, 75, 64
9, 157248, Note_on_c, 7, 63, 86
9, 157536, Note_on_c, 7, 79, 110
9, 157632, Note_on_c, 7, 80, 86
9, 157728, Note_on_c, 7, 69, 110
9, 158208, Note_on_c, 7, 76, 110
9, 158496, Note_off_c, 7, 80, 64
9, 158560, Note_on_c, 7, 79, 89
9, 158784, Note_on_c, 7, 87, 108
9, 159360, Note_off_c, 7, 78, 64
9, 159552, Note_off_c, 7, 76, 64
9, 159552, Note_on_c, 7, 75, 74
9, 159936, Note_off_c, 7, 88, 64
9, 160192, Note_off_c, 7, 75, 64
9, 160416, Note_on_c, 7, 83, 108
9, 160512, Note_on_c, 7, 76, 91
9, 162432, Note_off_c, 7, 81, 64
9, 163168, Note_on_c, 7, 67, 86
9, 163264, Note_on_c, 7, 76, 78
9, 163392, Note_off_c, 7, 73, 64
9, 163392, Note_on_c, 7, 69, 86
9, 163392, Note_on_c, 7, 64, 86
9, 163808, Note_on_c, 7, 83, 110
9, 163808, Note_on_c, 7, 83, 110
9, 164160, Note_on_c, 7, 71, 86
9, 164320, Note_on_c, 7, 73, 86
9, 164352, Note_off_c, 7, 81, 64
9, 164352, Note_off_c, 7, 76, 64
9, 164544, Note_off_c, 7, 87, 64
9, 164544, Note_on_c, 7, 71, 86
9, 164928, Note_off_c, 7, 84, 64
9, 165312, Note_off_c, 6, 710, 110
9, 165376, Note_on_c, 7, 84, 86
9, 165504, Note_off_c, 7, 67, 64
9, 167040, Note_off_c, 7, 63, 64
9, 167424, Note_off_c, 7, 68, 64
9, 169536, Note_off_c, 7, 67, 64
9, 170232, Note_on_c, 9, 36, 110
9, 170688, Note_off_c, 7, 75, 64
9, 170688, Note_on_c, 7, 78, 110
9, 179264, Note_off_c, 7, 80, 64
9, 191200, Note_on_c, 7, 78, 103
9, 192672, Note_off_c, 7, 75, 64
9, 193344, Note_off_c, 7, 78, 64
9, 193664, Note_off_c, 7, 78, 64
9, 193728, Note_off_c, 7, 78, 64
9, 194304, Note_off_c, 7, 78, 64
9, 194880, Note_off_c, 7, 78, 64
9, 195552, Note_on_c, 7, 79, 110
9, 195648, Note_on_c, 7, 78, 74
9, 196224, Note_on_c, 7, 78, 110
9, 196608, Note_on_c, 7, 78, 110
9, 199872, Note_off_c, 7, 76, 64
9, 199872, End_track
10, 0, Start_track
10, 6112, Note_on_c, 7, 68, 86
10, 19776, Note_on_c, 7, 83, 110
10, 33184, Note_on_c, 1, 76, 110
10, 52608, Note_off_c, 8, 88, 64
10, 52768, Note_off_c, 8, 71, 64
10, 52896, Note_off_c, 8, 82, 64
10, 53184, Note_on_c, 8, 83, 110
10, 53576, Note_off_c, 8
10, 53760, Note_on_c, 8, 88, 110
10, 53920, Note_on_c, 8, 78, 86
10, 53952, Note_on_c, 8, 85, 110
10, 53952, Note_on_c, 8, 76, 110
10, 55200, Note_off_c, 8, 78, 64
10, 55264, Note_on_c, 8, 78, 86
10, 55680, Note_off_c, 8, 83, 64
10, 55808, Note_on_c, 8, 80, 86
10, 56464, Note_off_c, 8, 73, 64
10, 56640, Note_on_c, 8, 73, 86
10, 57504, Note_off_c, 8, 76, 64
10, 59328, Note_off_c, 7, 87, 64
10, 59520, Note_off_c, 8, }, 5, 61, 64
10, 60096, Note_off_c, 8, 75, 64
10, 60832, Note_off_c, 8, 73, 64
10, 61248, Note_on_c, 8, 76, 110
10, 61248, Note_off_c, 8, 78, 64
10, 62976, Note_on_c, 8, 73, 86
10, 63744, Note_off_c, 8, 80, 64
10, 63936, Note_on_c, 8, 71, 86
10, 65280, Note_on_c, 8, 75, 113
10, 65856, Note_off_c, 8, 76, 64
10, 65984, Note_on_c, 8, 75, 86
10, 66384, Note_on_c, 8, 75, 110
10, 67776, Note_off_c, 8, 73, 64
10, 67808, Note_on_c, 8, 80, 111
10, 68128, Note_off_c, 8, 87, 64
10, 68544, Note_off_c, 8, 75, 64
10, 70080, Note_off_c, 8, 73, 64
10, 70656, Note_on_c, 8, 85, 110
10, 70656, Note_on_c, 8, 88, 110
10, 70656, Note_on_c, 8, 83, 110
10, 71520, Note_on_c, 8, 80, 110
10, 71648, Note_on_c, 8, 78, 110
10, 71808, Note_off_c, 8, 82, 64
10, 71808, Note_off_c, 8, 85, 64
10, 72576, Note_on_c, 8, 78, 110
10, 72624, Note_off_c, 8, 78, 64
10, 72768, Note_off_c, 8, 78, 64
10, 72960, Note_on_c, 8, 76, 110
10, 73152, Note_on_c, 8, 69, 86
10, 74304, Note_off_c, 8, 80, 64
10, 74400, Note_on_c, 8, 80, 110
10, 75264, Note_on_c, 8, 87, 110
10, 76096, Note_on_c, 8, 76, 86
10, 76608, Note_on_c, 8, 87, 110
10, 76608, Note_off_c, 8, 73, 64
10, 100416, Note_on_c, 8, 78, 81
10, 100512, Note_off_c, 8, 83, 64
10, 100896, Note_off_c, 8, 85, 64
10, 105280, Note_on_c, 8, 87, 110
10, 105692, Note_off_c, 8, Control_c, 2, 7, 74
10, 105696, Control_c, 8, 8, 100
10, 110016, Note_off_c, 8, 83, 64
10, 110016, Note_on_c, 8, 78, 103
10, 110080, Note_on_c, 8, 73, 64
10, 112016, Note_off_c, 8, 75, 64
10, 112224, Note_off_c, 8, 78, 64
10, 112416, Note_on_c, 8, 85, 1199360
10, 143968, Note_on_c, 8, 79, 86
10, 147648, Note_off_c, 9, Control_c, 0, 7, 50
10, 148608, Note_on_c, 8, 83, 110
10, 150016, Note_on_c, 8, 73, 110
10, 150144, Note_off_c, 8, 76, 64
10, 150528, Note_off_c, 8, 75, 64
10, 150528, Note_off_c, 8, 85, 64
10, 150720, Note_on_c, 8, 83, 110
10, 151488, Note_off_c, 8, 85, 64
10, 151680, Note_off_c, 8, 67, 64
10, 151712, Note_off_c, 7, 63, 64
10, 152256, Note_off_c, 8, 75, 64
10, 152640, Note_on_c, 8, 75, 69
10, 152832, Note_on_c, 8, 75, 110
10, 153376, Note_off_c, 8, 73, 64
10, 153824, Note_on_c, 8, 76, 110
10, 154368, Note_on_c, 8, 78, 110
10, 154560, Note_off_c, 8, 73, 64
10, 154752, Note_off_c, 8, 76, 64
10, 155712, Note_off_c, 8, 76, 64
10, 155904, Note_on_c, 8, 80, 112
10, 156096, Note_off_c, 8, 75, 64
10, 156672, Note_on_c, 8, 75, 110
10, 156672, Note_on_c, 8, 68, 86
10, 156688, Note_on_c, 8, 76, 86
10, 156832, Note_on_c, 8, 76, 110
10, 156864, Note_on_c, 8, 76, 86
10, 157024, Note_off_c, 8, 75, 64
10, 157024, Note_off_c, 8, 75, 64
10, 157248, Note_on_c, 8, 73, 86
10, 158208, Note_on_c, 8, 87, 110
10, 158592, Note_on_c, 8, 78, 110
10, 159360, Note_on_c, 8, 80, 86
10, 160864, Note_off_c, 8, 73, 64
10, 161472, Note_off_c, 8, 69, 64
10, 162576, Note_off_c, 7, 82, 64
10, 162624, Note_on_c, 8, 80, 86
10, 162624, Note_off_c, 8, 85, 64
10, 163392, Note_on_c, 8, 45, 64
10, 164160, Note_off_c, 8, 87, 64
10, 164416, 7, Note_on_c, 5, 59, 110
10, 166072, Note_on_c, 8, 78, 81
10, 169728, Note_on_c, 8, 7
10, 169776, Note_on_c, 8, 73, 110
10, 170688, Note_on_c, 8, 78, 81
10, 172632, Note_on_c, 8, 75, 81
10, 192960, Note_on_c, 8, 71, 110
10, 193136, Note_off_c, 8, 76, 64
10, 193248, Note_off_c, 10, 59, 64
10, 193344, Note_on_c, 8, 85, 119
10, 196128, Note_off_c, 8, 76, 64
10, 196608, Note_off_c, 8, 73, 64
10, 197184, Note_off_c, 8, 76, 64
10, 198080, Note_on_c, 8, 78, 110
10, 198496, Note_on_c, 8, 78, 81
10, 198912, Note_on_c, 8, 78, 110
10, 200096, Note_off_c, 8, 67, 64
10, 201408, Note_on_c, 8, 76, 79
10, 204352, Note_off_c, 8, 76, 64
10, 205024, Note_on_c, 8, 76, 94
10, 205056, Note_off_c, 8, 76, 64
10, 206400, Note_on_c, 8, 78, 82
10, 206560, Note_off_c, 8, 78, 64
10, 207168, Note_off_c, 8, 80, 64
10, 207328, Note_off_c, 8, 71, 64
10, 207328, Note_on_c, 8, 78, 102
10, 207360, Note_on_c, 8, 73, 110
10, 207360, Note_off_c, 8, 76, 64
10, 207552, Note_on_c, 8, 75, 110
10, 208032, Note_on_c, 8, 78, 54
10, 208512, Note_on_c, 8, 75, 63
10, 239616, Note_on_c, 9, 44, 110
10, 271248, Note_off_c, 8, 73, 64
10, 271248, End_track
11, 0, Start_track
11, 0, Control_c, 9, 15, 68, 
11, 2,  Note_off_c, 1, 89, 64
11, 3, Note_off_c, 64
11, 168, Note_off_c, 9, 71, 86
11, 216, Note_on_c, 2, 52, 70
11, 2184, Note_on_c, 9, 46, 96
11, 2239, Control_c, 3, 7, 57
11, 3072, Note_off_c, 9, 38, 64
11, 3648, Note_on_c, 9, 46, 110
11, 4064, Note_off_c, 9, 36, 64
11, 5792, Note_on_c, 9, 36, 110
11, 6144, Note_on_c, 9, 44, 78
11, 6912, Note_on_c, 9, 44, 96
11, 7008, Note_on_c, 9, 44, 96
11, 7584, Note_off_c, 9, 44, 64
11, 12272, Note_off_c, 9, 44, 64
11, 15676, Note_off_c, 0, 88, 64
11, 20608, Note_on_c, 9, 36, 110
11, 28192, Note_on_c, 9, 44, 110
11, 28216, Note_off_c, 9, 36, 64
11, 28320, Note_on_c, 9, 36, 110
11, 28704, Note_off_c, 9, 76, 86
11, 29600, Note_on_c, 9, 37, 110
11, 31712, Note_on_c, 9, 46, 110
11, 31712, Note_off_c, 9, 44, 64
11, 31776, Note_on_c, 9, 44, 64
11, 33024, Note_on_c, 9, 44, 64
11, 33216, Note_on_c, 9, 44, 64
11, 33216, Note_off_c, 9, 44, 64
11, 33216, Note_on_c, 9, 44, 64
11, 33216, Note_on_c, 9, 44, 110
11, 33408, Note_on_c, 9, 38, 110
11, 33408, Note_on_c, 9, 46, 110
11, 33496, Note_on_c, 9, 36, 110
11, 33600, Note_on_c, 9, 44, 110
11, 33600, Note_on_c, 9, 44, 110
11, 33600, Note_off_c, 9, 7, 33
11, 33792, Note_on_c, 9, 44, 64
11, 33824, Note_on_c, 9, 44, 110
11, 33920, Note_on_c, 9, 44, 64
11, 33984, Note_on_c, 9, 46, 110
11, 34048, Note_off_c, 9, 44, 64
11, 34048, Note_off_c, 9, 44, 64
11, 34272, Note_off_c, 9, 44, 64
11, 34528, Note_off_c, 9, 44, 64
11, 34668, Note_off_c, 9, 44, 64
11, 34784, Note_on_c, 9, 44, 96
11, 34912, Note_on_c, 9, 44, 96
11, 34944, Note_off_c, 9, 44, 64
11, 34944, Note_on_c, 9, 44, 96
11, 34944, Note_on_c, 9, 46, 110
11, 35520, Note_off_c, 9, 38, 64
11, 35632, Note_off_c, 9, 44, 64
11, 35712, Note_off_c, 9, 38, 64
11, 35808, Note_on_c, 9, 44, 110
11, 35936, Note_off_c, 9, 36, 64
11, 36224, Note_on_c, 9, 44, 110
11, 36608, Note_off_c, 9, 44, 64
11, 36672, Note_on_c, 9, 38, 110
11, 37216, Note_on_c, 9, 38, 110
11, 37728, Note_off_c, 9, 44, 64
11, 37824, Note_off_c, 9, 44, 64
11, 37824, Note_on_c, 9, 38, 110
11, 38592, Note_on_c, 9, 44, 64
11, 39168, Note_on_c, 9, 38, 110
11, 39544, Note_off_c, 9, 44, 64
11, 39568, Note_on_c, 9, 38, 110
11, 39744, Note_off_c, 9, 46, 64
11, 39744, Note_on_c, 9, 44, 110
11, 40128, Note_on_c, 9, 44, 64
11, 40320, Note_off_c, 9, 44, 64
11, 40800, Note_on_c, 9, 64, 64
11, 40800, Note_off_c, 9, 44, 64
11, 41600, Note_on_c, 9, 44, 64
11, 42016, Note_off_c, 9, 44, 64
11, 42624, Note_off_c, 9, 44, 64
11, 42624, Note_on_c, 9, 44, 64
11, 43296, Note_on_c, 9, 36, 110
11, 43296, Note_on_c, 9, 44, 64
11, 43376, Note_on_c, 9, 38, 110
11, 43680, Note_off_c, 9, 44, 64
11, 43712, Note_off_c, 9, 44, 64
11, 43792, Note_off_c, 9, 44, 64
11, 43904, Note_on_c, 9, 44, 64
11, 44160, Note_on_c, 9, 44, 64
11, 44736, Note_off_c, 9, 44, 64
11, 44744, Note_off_c, 9, 44, 64
11, 44928, Note_off_c, 9, 44, 64
11, 45088, Note_off_c, 9, 38, 110
11, 45312, Note_on_c, 9, 44, 96
11, 46080, Control_c, 9, 7, 83
11, 46656, Note_on_c, 9, 44, 110
11, 46880, Note_on_c, 9, 36, 110
11, 47408, Note_off_c, 9, 38, 64
11, 47520, Note_on_c, 9, 44, 96
11, 47616, Note_off_c, 9, 44, 64
11, 48000, Note_off_c, 9, 38, 64
11, 48288, Note_on_c, 9, 38, 110
11, 49696, Note_on_c, 4, 40, 110
11, 50304, Note_off_c, 9, 44, 64
11, 50336, Note_on_c, 9, 38, 110
11, 51072, Note_off_c, 9, 44, 64
11, 51264, Note_off_c, 9, 36, 64
11, 51648, Note_off_c, 9, 44, 64
11, 52416, Note_off_c, 9, 44, 64
11, 52624, Note_on_c, 9, 44, 64
11, 52800, Note_on_c, 9, 44, 110
11, 53184, Note_off_c, 9, 44, 64
11, 53184, Note_off_c, 9, 44, 64
11, 53184, Control_c, 9, 7, 42
11, 53264, Note_on_c, 9, 44, 64
11, 53280, Note_on_c, 9, 44, 96
11, 53376, Note_off_c, 9, 44, 64
11, 53408, Note_on_c, 9, 38, 110
11, 53408, Note_off_c, 9, 44, 64
11, 53568, Note_on_c, 9, 36, 110
11, 53568, Note_off_c, 9, 44, 64
11, 53728, Note_on_c, 9, 44, 64
11, 53792, Note_on_c, 9, 44, 64
11, 53792, Note_on_c, 9, 44, 96
11, 54848, Note_off_c, 9, 44, 64
11, 55392, Note_on_c, 9, 36, 110
11, 55488, Note_on_c, 9, 44, 110
11, 55680, Note_on_c, 9, 52, 110
11, 55680, Note_on_c, 9, 44, 110
11, 55696, Note_on_c, 9, 36, 110
11, 55872, Note_on_c, 9, 36, 110
11, 56064, Note_on_c, 9, 38, 110
11, 56256, Note_on_c, 9, 44, 64
11, 56448, Note_off_c, 9, 36, 64
11, 56832, Note_off_c, 9, 44, 64
11, 56832, Note_on_c, 9, 44, 64
11, 56832, Note_on_c, 9, 36, 110
11, 56864, Note_on_c, 9, 36, 110
11, 57184, Note_off_c, 9, 44, 64
11, 57408, Note_on_c, 9, 44, 110
11, 57408, Note_on_c, 9, 36, 110
11, 57696, Note_off_c, 9, 44, 64
11, 57984, Note_on_c, 9, 38, 110
11, 58048, Note_off_c, 9, 44, 64
11, 58176, Note_on_c, 9, 44, 64
11, 58176, Note_on_c, 9, 44, 64
11, 58176, Note_on_c, 9, 36, 110
11, 58368, Note_on_c, 9, 44, 110
11, 58784, Note_on_c, 9, 36, 110
11, 59424, Note_off_c, 9, 44, 64
11, 59520, Note_on_c, 9, 36, 110
11, 59520, Note_off_c, 9, 44, 64
11, 59712, Note_off_c, 9, 36, 64
11, 59712, Note_off_c, 9, 44, 64
11, 60768, Note_on_c, 9, 46, 9
11, 61824, Note_on_c, 9, 44, 110
11, 62080, Note_on_c, 9, 36, 110
11, 62784, Note_on_c, 9, 44, 110
11, 63104, Note_on_c, 9, 38, 110
11, 63472, Note_off_c, 9, 44, 64
11, 63568, Note_off_c, 4, 36, 64
11, 65664, Note_off_c, 9, 68, 110
11, 65664, Note_on_c, 9, 44, 64
11, 67584, Note_on_c, 9, 36, 110
11, 67744, Note_off_c, 9, 44, 64
11, 68000, Note_on_c, 9, 36, 110
11, 68176, Note_on_c, 9, 38, 110
11, 68544, Note_on_c, 9, 36, 110
11, 72768, Note_off_c, 9, 44, 64
11, 74400, Note_on_c, 9, 44, 96
11, 74592, Note_on_c, 9, 44, 64
11, 75072, Note_off_c, 9, 44, 64
11, 75872, Note_on_c, 9, 36, 110
11, 76416, Note_off_c, 9, 36, 64
11, 80640, Note_off_c, 9, 36, 64
11, 83136, Note_off_c, 9, 36, 64
11, 85632, Note_on_c, 9, 59, 110
11, 92448, Note_on_c, 9, 57, 110
11, 93120, Note_off_c, 9, 59, 64
11, 93920, Note_on_c, 9, 38, 110
11, 94464, Note_on_c, 9, 36, 110
11, 130464, Note_on_c, 9, 44, 64
11, 132800, Note_on_c, 9, 44, 110
11, 132864, Note_on_c, 9, 44, 110
11, 132864, Note_on_c, 9, 44, 96
11, 133536, Note_off_c, 9, 44, 64
11, 135168, Note_on_c, 9, 44, 110
11, 135456, Note_off_c, 9, 44, 64
11, 135552, Note_off_c, 9, 44, 64
11, 135552, Note_on_c, 9, 44, 110
11, 135648, Note_on_c, 9, 44, 110
11, 136224, Note_on_c, 9, 46, 110
11, 138784, Note_on_c, 9, 38, 110
11, 140064, Note_off_c, 9, 44, 64
11, 140224, Note_off_c, 9, 44, 64
11, 140832, Note_off_c, 9, 44, 64
11, 141312, Control_c, 9, 7, 100
11, 142184, Note_off_c, 9, 38, 64
11, 142848, Note_off_c, 9, 44, 64
11, 142848, Note_on_c, 9, 44, 110
11, 143232, Note_on_c, 9, 44, 110
11, 143312, Note_on_c, 9, 44, 110
11, 143776, Note_on_c, 9, 44, 64
11, 144000, Note_on_c, 9, 36, 110
11, 144928, Note_on_c, 9, 38, 110
11, 145920, Note_off_c, 9, 46, 64
11, 146608, Note_off_c, 9, 44, 64
11, 146976, Note_off_c, 9, 38, 64
11, 147648, Note_on_c, 9, 44, 110
11, 148608, Note_on_c, 9, 44, 110
11, 148624, Note_on_c, 9, 44, 64
11, 149568, Note_off_c, 9, 38, 64
11, 149568, Note_on_c, 9, 36, 110
11, 149664, Note_off_c, 9, 44, 64
11, 149760, Note_on_c, 9, 36, 110
11, 149760, Note_on_c, 3, 40, 110
11, 150336, Note_off_c, 9, 46, 64
11, 150720, Note_off_c, 9, 44, 64
11, 150816, Note_on_c, 9, 46, 110
11, 150848, Note_on_c, 9, 36, 110
11, 151328, Note_on_c, 9, 38, 110
11, 151360, Note_on_c, 9, 44, 110
11, 151392, Note_off_c, 9, 36, 64
11, 151680, Note_on_c, 9, 38, 110
11, 151808, Note_on_c, 9, 44, 110
11, 152032, Note_off_c, 9, 44, 64
11, 152256, Note_off_c, 9, 44, 64
11, 152256, Note_off_c, 9, 44, 64
11, 152832, Note_off_c, 9, 36, 64
11, 153088, Note_on_c, 9, 36, 110
11, 153200, Note_on_c, 9, 38, 110
11, 153216, Note_off_c, 9, 44, 64
11, 153504, Note_off_c, 9, 36, 64
11, 153600, Note_off_c, 9, 36, 64
11, 153600, Note_off_c, 9, 44, 64
11, 153608, Note_on_c, 9, 44, 110
11, 153956, Note_on_c, 9, 44, 96
11, 153984, Note_off_c, 9, 44, 64
11, 153984, Note_off_c, 9, 36, 64
11, 154176, Note_on_c, 9, 44, 110
11, 154272, Note_off_c, 9, 36, 64
11, 154272, Note_on_c, 9, 44, 110
11, 154368, Note_off_c, 9, 44, 64
11, 154752, Note_on_c, 9, 44, 110
11, 154752, Note_on_c, 9, 44, 64
11, 154944, Note_off_c, 9, 44, 64
11, 154976, Note_on_c, 9, 36, 110
11, 155328, Note_on_c, 9, 36, 110
11, 155424, Note_off_c, 9, 44, 64
11, 155424, Note_on_c, 9, 44, 96
11, 155456, Note_off_c, 9, 44, 64
11, 155488, Note_off_c, 9, 44, 64
11, 155520, Note_off_c, 9, 44, 64
11, 155696, Note_on_c, 9, 36, 110
11, 155776, Note_off_c, 9, 44, 64
11, 155936, Note_on_c, 9, 46, 110
11, 156064, Note_on_c, 9, 44, 96
11, 156288, Note_on_c, 9, 36, 110
11, 156368, Note_on_c, 9, 36, 110
11, 156384, Note_off_c, 9, 44, 64
11, 156480, Note_off_c, 9, 44, 64
11, 156672, Note_on_c, 9, 44, 96
11, 156672, Note_on_c, 9, 44, 110
11, 156672, Note_on_c, 9, 44, 110
11, 156672, Note_on_c, 9, 36, 110
11, 156672, Note_on_c, 9, 44, 64
11, 156672, Note_on_c, 9, 45, 110
11, 157440, Note_on_c, 9, 36, 110
11, 157728, Note_on_c, 9, 36, 110
11, 157824, Note_on_c, 9, 36, 110
11, 158592, Note_on_c, 9, 36, 110
11, 158592, Note_off_c, 9, 36, 64
11, 158704, Note_on_c, 9, 44, 96
11, 159168, Note_on_c, 9, 59, 96
11, 159264, Note_on_c, 9, 38, 110
11, 160224, Note_off_c, 9, 44, 64
11, 160544, Note_on_c, 9, 36, 110
11, 160800, Note_on_c, 9, 46, 110
11, 160896, Note_on_c, 9, 36, 110
11, 160896, Note_off_c, 9, 44, 64
11, 161120, Note_off_c, 9, 44, 64
11, 161472, Note_on_c, 9, 36, 110
11, 161856, Note_on_c, 9, 44, 64
11, 162144, Note_off_c, 9, 44, 64
11, 162432, Note_on_c, 9, 38, 110
11, 163776, Note_on_c, 9, 36, 110
11, 163808, Note_off_c, 9, 0
11, 164160, Note_on_c, 5, 59, 110
11, 164160, Note_off_c, 9, 36, 64
11, 164576, Note_on_c, 9, 36, 110
11, 165088, Note_on_c, 9, 44, 110
11, 165120, Note_on_c, 9, 44, 64
11, 165312, Note_off_c, 9, 46, 64
11, 165504, Note_on_c, 9, 44, 96
11, 166272, Note_on_c, 9, 36, 110
11, 166464, Note_on_c, 9, 44, 110
11, 166464, Note_off_c, 9, 44, 64
11, 166752, Note_off_c, 9, 36, 64
11, 167616, Note_off_c, 9, 38, 64
11, 167624, Note_off_c, 9, 44, 64
11, 168096, Note_on_c, 9, 44, 110
11, 168192, Note_off_c, 9, 36, 64
11, 169344, Note_off_c, 9, 44, 64
11, 169632, Note_off_c, 9, 44, 64
11, 171648, Note_off_c, 9, 36, 64
11, 174560, Note_on_c, 9, 36, 110
11, 180256, Note_on_c, 9, 41, 87
11, 184320, Note_on_c, 9, 78, 81
11, 184480, Note_off_c, 9, 36, 64
11, 184512, Note_off_c, 9, 59, 64
11, 188128, Note_on_c, 9, 36, 110
11, 190336, Note_off_c, 9, 46, 64
11, 190464, Note_off_c, 9, 44, 64
11, 190464, Note_on_c, 9, 44, 96
11, 191616, Note_off_c, 9, 36, 64
11, 192064, Note_on_c, 9, 36, 110
11, 192768, Note_on_c, 9, 36, 110
11, 193536, Note_off_c, 9, 44, 64
11, 194496, Note_on_c, 9, 44, 64
11, 194880, Note_on_c, 9, 36, 110
11, 196608, Note_on_c, 9, 44, 96
11, 205824, Note_on_c, 9, 41, 81
11, 206400, Note_off_c, 9, 0, 85
11, 211296, Note_off_c, 9, 44, 64
11, 211584, Note_off_c, 9, 44, 64
11, 212544, Note_on_c, 9, 44, 64
11, 213696, Note_on_c, 9, 44, 110
11, 213696, Note_on_c, 9, 44, 110
11, 215424, Note_on_c, 9, 36, 110
11, 216672, Note_off_c, 9, 44, 64
11, 217136, Note_off_c, 9, 44, 64
11, 217232, Note_on_c, 9, 44, 64
11, 217632, Note_off_c, 9, 44, 64
11, 217696, Note_on_c, 9, 44, 64
11, 218112, Note_on_c, 9, 36, 110
11, 218688, Note_on_c, 9, 44, 64
11, 218688, Note_off_c, 9, 44, 64
11, 219264, Note_on_c, 9, 1144, 64
11, 223584, Note_on_c, 9, 44, 110
11, 223712, Note_on_c, 9, 44, 64
11, 224064, Note_off_c, 9, 38, 64
11, 224160, Control_c, 9, 7, 83
11, 225024, Note_on_c, 9, 44, 96
11, 225600, Note_on_c, 9, 44, 64
11, 225792, Note_on_c, 9, 36, 110
11, 226176, Control_c, 9, 7, 82
11, 226368, Control_c, 9, 7, 77
11, 226560, Note_on_c, 9, 38, 110
11, 226752, Note_on_c, 9, 36, 110
11, 226752, Control_c, 9, 7, 98
11, 226752, Note_on_c, 9, 38, 110
11, 226944, Note_off_c, 9, 44, 64
11, 226944, Note_on_c, 9, 44, 96
11, 227136, Control_c, 9, 7, 47
11, 227232, Note_on_c, 9, 44, 64
11, 227712, Note_on_c, 9, 44, 110
11, 228576, Note_on_c, 9, 36, 110
11, 229024, Note_off_c, 9, 44, 64
11, 229216, Note_off_c, 9, 44, 64
11, 229232, Note_off_c, 9, 44, 64
11, 229728, Control_c, 9, 7, 93
11, 229920, Note_off_c, 9, 44, 64
11, 230016, Note_on_c, 9, 44, 96
11, 230064, Note_on_c, 9, 44, 64
11, 230112, Note_on_c, 9, 36, 110
11, 230272, Note_off_c, 9, 44, 64
11, 230496, Note_on_c, 9, 44, 110
11, 230688, Note_on_c, 9, 44, 110
11, 230880, Control_c, 9, 7, 98
11, 231008, Note_on_c, 9, 44, 96
11, 231072, Note_on_c, 9, 36, 110
11, 231072, Note_on_c, 9, 44, 64
11, 231264, Note_off_c, 9, 44, 64
11, 231264, Control_c, 9, 7, 59
11, 231744, Note_off_c, 9, 44, 64
11, 231744, Note_on_c, 9, 44, 110
11, 231856, Note_off_c, 9, 44, 64
11, 232192, Note_on_c, 9, 36, 110
11, 232224, Note_on_c, 9, 38, 110
11, 232320, Control_c, 9, 7, 31
11, 232416, Note_off_c, 9, 44, 64
11, 232512, Note_off_c, 9, 44, 64
11, 232704, Note_off_c, 9, 44, 64
11, 232800, Note_on_c, 9, 1052, 64
11, 232800, Note_off_c, 9, 44, 64
11, 232800, Note_off_c, 9, 44, 64
11, 232896, Note_on_c, 9, 44, 110
11, 232896, Note_on_c, 9, 44, 96
11, 232896, Note_on_c, 9, 44, 96
11, 232896, Note_off_c, 9, 44, 64
11, 233024, Note_off_c, 9, 44, 64
11, 233088, Note_off_c, 9, 38, 64
11, 233152, Control_c, 9, 7, 51
11, 233280, Note_on_c, 9, 36, 110
11, 233792, Control_c, 9, 7, 38
11, 233952, Note_off_c, 9, 44, 64
11, 234016, Control_c, 9, 7, 51
11, 234016, Control_c, 2, 7, 57
11, 234240, Note_off_c, 9, 44, 64
11, 234240, Note_on_c, 9, 44, 96
11, 234240, Note_off_c, 9, 44, 64
11, 234432, Note_off_c, 9, 38, 64
11, 234432, Control_c, 9, 7, 51
11, 234432, Note_on_c, 9, 44, 64
11, 234624, Note_on_c, 9, 44, 96
11, 234720, Note_off_c, 9, 44, 64
11, 235072, Note_on_c, 9, 38, 110
11, 235200, Note_on_c, 9, 36, 110
11, 235264, Note_off_c, 9, 44, 64
11, 235392, Control_c, 9, 7, 32
11, 235776, Note_on_c, 9, 44, 64
11, 235968, Note_on_c, 9, 44, 110
11, 236144, Note_on_c, 9, 38, 110
11, 236160, Note_on_c, 9, 44, 96
11, 236160, Note_on_c, 9, 44, 64
11, 236160, Note_on_c, 9, 38, 110
11, 236736, Control_c, 9, 7, 32
11, 236800, Note_on_c, 9, 44, 110
11, 237712, Note_off_c, 9, 44, 64
11, 238080, Control_c, 9, 7, 40
11, 238080, Note_on_c, 7, 65, 910
11, 238176, Note_off_c, 9, 44, 64
11, 239712, Note_off_c, 9, 44, 64
11, 240256, Note_off_c, 9, 44, 64
11, 240384, Note_on_c, 9, 36, 110
11, 241056, Note_on_c, 9, 38, 110
11, 241152, Control_c, 9, 7, 48
11, 241248, Note_on_c, 9, 44, 96
11, 241536, Note_on_c, 9, 44, 64
11, 242208, Note_off_c, 9, 44, 64
11, 242368, Control_c, 9, 7, 71
11, 242400, Note_off_c, 9, 44, 64
11, 242496, Note_on_c, 9, 44, 64
11, 242912, Note_off_c, 9, 44, 64
11, 242912, End_track
12, 0, Start_track
12, 97920, Note_off_c, 10, 63, 82
12, 99648, Note_on_c, 10, 76, 82
12, 153600, Control_c, 10, 76, 86
12, 201152, Note_on_c, 10, 91, 64
12, 202976, Note_on_c, 10, 78, 82
12, 201568, Note_off_c, 10, 66, 64
12, 205024, Note_on_c, 10, 71, 64
12, 205024, Note_on_c, 10, 76, 82
12, 205824, Note_off_c, 0, 85, 64
12, 205824, Note_off_c, 0, 80, 64
12, 205824, End_track
0, 0, End_of_file
