0, 163232, Note_on_c, 0, 58, 64
1, 51072, Note_off_c, 7, 85, 64
1, 70272, Note_off_c, 9, 36, 64
1, 236064, Note_off_c, 5, 61, 96
1, 242304, Note_on_c, 9, 44, 64
2, 0, Control_c, 0, 90, 64
2, 2, Note_on_c, 9, 44, 110
2, 6, 164256, Note_on_c, 9, 45, 110
2, 8, Note_on_c, 4, 49, 110
2, 10, 6876, Note_on_c, 0, 85, 110
2, 112, Note_off_c, 4, 37, 64
2, 432, Note_off_c, 0, 88, 64
2, 670, Control_c, 1, 7, 56
2, 704, Note_on_c, 0, 85, 114
2, 768, Note_off_c, 0, 88, 64
2, 768, Note_on_c, 0, 85, 110
2, 886, Note_off_c, 9, 44, 64
2, 976, Note_off_c, 0, 80, 64
2, 1216, Note_off_c, 4, 37, 64
2, 1944, Note_off_c, 4, 30
2, 2304, Note_on_c, 0, 74, 64
2, 3072, Note_on_c, 0, 85, 110
2, 3264, Note_off_c, 0, 80, 64
2, 3456, Note_on_c, 0, 81, 110
2, 3856, Note_on_c, 0, 81, 110
2, 4496, Note_off_c, 0, 80, 64
2, 4608, Note_off_c, 0, 82, 64
2, 4608, Note_on_c, 0, 85, 110
2, 4664, Note_on_c, 0, 81, 110
2, 4992, Note_off_c, 0, 81, 64
2, 5376, Note_off_c, 0, 85, 64
2, 5456, Control_c, 0, 7, 35
2, 5600, Note_on_c, 0, 81, 82
2, 5776, Note_off_c, 0, 88, 64
2, 5792, Note_off_c, 0, 81, 64
2, 5952, Note_off_c, 0, 80, 64
2, 5968, Note_off_c, 0, 85, 64
2, 6128, Note_off_c, 0, 85, 64
2, 6648, Note_on_c, 0, 80, 110
2, 6848, Control_c, 0, 7, 58
2, 7104, Control_c, 0, 7, 128
2, 7184, Note_on_c, 0, 81, 110
2, 7200, Note_off_c, 0, 85, 64
2, 7488, Note_off_c, 0, 81, 64
2, 7488, Note_off_c, 0, 87, 64
2, 7600, Note_off_c, 0, 81, 64
2, 7648, Note_off_c, 0, 81, 64
2, 8048, Note_on_c, 0, 85, 110
2, 8064, Note_on_c, 0, 81, 110
2, 8064, Note_off_c, 0, 80, 64
2, 8112, Note_on_c, 8, 76, 110
2, 8256, Note_off_c, 0, 80, 64
2, 8624, Note_off_c, 0, 85, 64
2, 8624, Note_off_c, 0, 85, 64
2, 8736, Note_on_c, 0, 85, 96
2, 8752, Note_on_c, 0, 85, 110
2, 8832, Note_off_c, 0, 80, 64
2, 8832, Note_on_c, 0, 83, 110
2, 8832, Note_on_c, 0, 81, 110
2, 9360, Note_on_c, 0, 85, 110
2, 15072, Control_c, 0, 7, 72
2, 15072, Control_c, 0, 7, 33
2, 15360, Note_off_c, 0, 85, 64
2, 15744, Note_off_c, 0, 75, 64
2, 16704, Note_on_c, 0, 85, 110
2, 17056, Note_off_c, 4, 44, 64
2, 17088, Note_on_c, 0, 85, 110
2, 17664, Note_on_c, 0, 81, 110
2, 17664, Note_off_c, 0, 80, 64
2, 18432, Program_c, 0, 88, 60
2, 18432, Control_c, 0, 7, 25
2, 18448, Note_off_c, 0, 6, 64
2, 18488, Note_on_c, 8, 78, 81
2, 18528, Note_off_c, 0, 85, 64
2, 19008, Note_off_c, 0, 81, 64
2, 19584, Note_off_c, 0, 64, 64
2, 19680, Note_on_c, 0, 81, 110
2, 19776, Control_c, 0, 7, 41
2, 20128, Control_c, 0, 7, 110
2, 20256, Note_on_c, 0, 61, 81
2, 20448, Note_off_c, 0, 62, 64
2, 20672, Note_off_c, 0, 57, 64
2, 20736, Note_on_c, 0, 64, 110
2, 20736, Note_off_c, 0, 64, 64
2, 20776, Note_off_c, 8, 81, 64
2, 20928, Note_off_c, 0, 61, 64
2, 20928, Note_off_c, 0, 85, 64
2, 21312, Note_on_c, 0, 61, 84
2, 21664, Note_off_c, 0, 61, 64
2, 21696, Note_on_c, 0, 68, 110
2, 21888, Control_c, 0, 7, 25
2, 21920, Note_on_c, 0, 66, 64
2, 22064, Note_off_c, 0, 67, 64
2, 22080, Control_c, 0, 7, 17
2, 22080, Note_off_c, 0, 66, 64
2, 22464, Note_off_c, 4, 37, 64
2, 22544, Note_off_c, 0, 63, 64
2, 22656, Note_on_c, 0, 64, 111
2, 22864, Note_on_c, 0, 67, 110
2, 23152, Control_c, 0, 7, 17
2, 23616, Note_off_c, 0, 75, 64
2, 23616, Note_off_c, 0, 67, 64
2, 23648, Control_c, 0, 7, 27
2, 24080, Note_on_c, 0, 67, 64
2, 24096, Note_off_c, 6, 74, 64
2, 24192, Note_on_c, 0, 66, 110
2, 24192, Note_on_c, 0, 61, 64
2, 24272, Control_c, 0, 7, 36
2, 24384, Control_c, 0, 7, 73
2, 24480, Control_c, 0, 7, 62
2, 24544, Note_on_c, 0, 66, 64
2, 24576, Note_on_c, 6, 68, 64
2, 24576, Note_on_c, 0, 71, 64
2, 24576, Note_on_c, 0, 66, 64
2, 24576, Note_on_c, 0, 67, 64
2, 24608, Note_off_c, 0, 66, 64
2, 24768, Note_on_c, 0, 63, 64
2, 24768, Note_off_c, 0, 66, 40
2, 25152, Note_on_c, 0, 66, 64
2, 25344, Note_on_c, 0, 66, 64
2, 25536, Control_c, 0, 7, 44
2, 26112, Note_on_c, 0, 67, 64
2, 26208, Control_c, 0, 7, 112
2, 26384, Note_off_c, 0, 61, 64
2, 26400, Control_c, 0, 7, 91
2, 26496, Note_on_c, 0, 64, 64
2, 26592, Note_off_c, 0, 64, 64
2, 26688, Note_off_c, 0, 67, 64
2, 26688, Note_on_c, 0, 66, 64
2, 26688, Control_c, 0, 7, 111
2, 26880, Control_c, 0, 7, 95
2, 26880, Note_off_c, 0, 66, 64
2, 27040, Note_off_c, 0, 66, 64
2, 27264, Note_on_c, 0, 61, 64
2, 27264, Note_on_c, 0, 61, 64
2, 27544, Control_c, 0, 7, 44
2, 29056, Note_off_c, 0, 66, 64
2, 29312, Note_on_c, 0, 66, 64
2, 29440, Note_off_c, 0, 67, 64
2, 32208, Note_off_c, 0, 75, 64
2, 42240, Note_off_c, 0, 80, 64
2, 44928, Note_off_c, 0, 80, 64
2, 48288, Note_off_c, 0, 87, 64
2, 50240, Note_on_c, 0, 78, 110
2, 50720, Note_off_c, 0, 68, 64
2, 51456, Note_on_c, 0, 64, 110
2, 52528, Note_on_c, 0, 66, 110
2, 52720, Note_off_c, 0, 68, 64
2, 52800, Control_c, 0, 7, 70
2, 52832, Note_off_c, 0, 75, 64
2, 52896, Note_off_c, 0, 66, 64
2, 52896, Note_off_c, 0, 78, 64
2, 53056, Note_off_c, 0, 68, 64
2, 53152, Control_c, 0, 7, 66
2, 53296, Control_c, 0, 7, 70
2, 53664, Note_on_c, 0, 67, 110
2, 53664, Note_off_c, 0, 63, 64
2, 53696, Note_on_c, 0, 73, 110
2, 53984, Note_on_c, 0, 71, 110
2, 54048, Note_off_c, 0, 63, 64
2, 54432, Note_on_c, 0, 66, 110
2, 54528, Note_off_c, 0, 71, 64
2, 54848, Note_on_c, 0, 88, 110
2, 54912, Note_on_c, 0, 71, 110
2, 55072, Control_c, 0, 7, 68
2, 55296, Control_c, 0, 7, 61
2, 55296, Note_off_c, 0, 64, 64
2, 55488, Control_c, 0, 7, 100
2, 55488, Note_off_c, 0, 66, 64
2, 55584, Control_c, 0, 7, 71
2, 55680, Note_on_c, 0, 73, 110
2, 55680, Note_off_c, 0, 64, 64
2, 55872, Control_c, 0, 7, 61
2, 56064, Control_c, 0, 7, 60
2, 56160, Control_c, 0, 7, 71
2, 56448, Control_c, 0, 7, 65
2, 56448, Note_on_c, 0, 76, 110
2, 56640, Control_c, 0, 7, 64
2, 57024, Control_c, 0, 7, 70
2, 57216, Control_c, 0, 7, 74
2, 57408, Control_c, 0, 7, 72
2, 57632, Control_c, 0, 7, 80
2, 57696, Control_c, 0, 7, 90
2, 58176, Note_on_c, 0, 66, 75
2, 58368, Control_c, 0, 7, 60
2, 58368, Control_c, 0, 7, 11
2, 58368, Control_c, 0, 7, 60
2, 58944, Control_c, 0, 7, 63
2, 59040, Note_off_c, 0, 75, 64
2, 59328, Note_on_c, 0, 64, 110
2, 59712, Note_off_c, 0, 64, 64
2, 60096, Note_on_c, 0, 52, 110
2, 60192, Control_c, 0, 7, 60
2, 60272, Control_c, 0, 7, 62
2, 60288, Note_on_c, 0, 73, 110
2, 60672, Note_on_c, 0, 63, 110
2, 60736, Note_on_c, 0, 67, 110
2, 60768, Note_off_c, 0, 68, 64
2, 60768, Note_off_c, 0, 64, 64
2, 60768, Note_on_c, 0, 69, 110
2, 60768, Note_on_c, 0, 64, 110
2, 60768, Note_on_c, 0, 68, 110
2, 60768, Note_off_c, 0, 71, 64
2, 61056, Note_off_c, 0, 68, 64
2, 61152, Note_on_c, 0, 68, 95
2, 61248, Control_c, 0, 7, 90
2, 61440, Note_on_c, 0, 68, 64
2, 61440, Control_c, 0, 7, 69
2, 61440, Note_on_c, 0, 64, 110
2, 61536, Control_c, 0, 7, 60
2, 61600, Note_on_c, 0, 64, 110
2, 61632, Note_on_c, 0, 66, 64
2, 61664, Note_on_c, 0, 64, 110
2, 61664, Note_off_c, 0, 64, 64
2, 61792, Note_off_c, 0, 64, 64
2, 61824, Control_c, 0, 7, 67
2, 61824, Control_c, 0, 7, 77
2, 62016, Note_on_c, 0, 66, 110
2, 62080, Control_c, 0, 7, 68
2, 62112, Note_off_c, 0, 64, 64
2, 62240, Note_on_c, 0, 64, 110
2, 62288, Control_c, 0, 7, 92
2, 62496, Control_c, 0, 7, 12
2, 62550, Note_on_c, 9, 69, 110
2, 62592, Control_c, 0, 7, 62
2, 62592, Control_c, 0, 7, 76
2, 62784, Control_c, 0, 7, 65
2, 62784, Control_c, 0, 7, 64
2, 62784, Control_c, 0, 7, 61
2, 62816, Control_c, 0, 7, 74
2, 62880, Control_c, 0, 7, 25
2, 62912, Control_c, 0, 7, 62
2, 63056, Control_c, 0, 7, 73
2, 63072, Control_c, 0, 7, 65
2, 63168, Note_on_c, 0, 55, 64
2, 63168, Control_c, 0, 7, 61
2, 63168, Control_c, 0, 7, 13
2, 63168, Control_c, 0, 7, 61
2, 63168, Control_c, 0, 7, 61
2, 63312, Control_c, 0, 7, 7
2, 63360, Control_c, 0, 7, 61
2, 63360, Note_off_c, 0, 75, 64
2, 63360, Control_c, 0, 7, 66
2, 63440, Control_c, 6, 7, 41
2, 63488, Note_off_c, 0, 71, 64
2, 63552, Control_c, 0, 7, 64
2, 63552, Control_c, 0, 7, 76
2, 63552, Control_c, 0, 7, 78
2, 63584, Control_c, 0, 7, 60
2, 63584, Control_c, 0, 7, 12
2, 63712, Control_c, 0, 7, 70
2, 63728, Control_c, 0, 7, 66
2, 63744, Control_c, 0, 7, 64
2, 63744, Control_c, 0, 7, 63
2, 63744, Control_c, 9, 7, 15
2, 63748, Control_c, 0, 7, 4
2, 63760, Control_c, 0, 7, 90
2, 63840, Control_c, 0, 7, 68
2, 64128, Note_on_c, 0, 47, 36
2, 64320, Note_on_c, 0, 68, 110
2, 64512, Control_c, 0, 7, 62
2, 64512, Control_c, 0, 7, 100
2, 64512, Note_off_c, 0, 71, 64
2, 64512, Control_c, 0, 7, 62
2, 64704, Control_c, 0, 7, 100
2, 64736, Note_off_c, 0, 64, 64
2, 65088, Note_on_c, 0, 68, 110
2, 65184, Note_off_c, 0, 67, 64
2, 65184, Note_off_c, 0, 66, 64
2, 65184, Note_on_c, 0, 68, 110
2, 65184, Note_on_c, 0, 68, 110
2, 65280, Note_on_c, 0, 64, 110
2, 65280, Control_c, 0, 7, 84
2, 65280, Note_off_c, 0, 75, 64
2, 65472, Note_on_c, 0, 664
2, 65472, Control_c, 0, 7, 12
2, 65664, Control_c, 0, 4, 47
2, 65760, Note_off_c, 0, 68, 64
2, 65760, Control_c, 0, 7, 12
2, 65824, Control_c, 0, 7, 69
2, 66016, Control_c, 0, 7, 66
2, 66240, Note_on_c, 0, 64, 110
2, 66240, Note_on_c, 0, 64, 110
2, 66432, Control_c, 0, 7, 60
2, 66624, Note_off_c, 0, 64, 64
2, 66624, Note_on_c, 0, 64, 110
2, 66816, Control_c, 0, 7, 65
2, 66816, Control_c, 0, 7, 100
2, 66832, Control_c, 0, 7, 66
2, 66848, Control_c, 0, 7, 62
2, 67008, Note_on_c, 0, 73, 110
2, 67152, Note_off_c, 0, 68, 64
2, 67168, Control_c, 0, 7, 61
2, 67168, Control_c, 0, 7, 69
2, 67200, Note_on_c, 0, 64, 110
2, 67248, Note_on_c, 0, 70, 110
2, 67296, Note_off_c, 0, 63, 64
2, 67488, Control_c, 0, 7, 68
2, 67488, Note_on_c, 0, 64, 110
2, 67584, Control_c, 0, 7, 73
2, 67584, Control_c, 0, 7, 62
2, 67584, Control_c, 0, 7, 23
2, 67584, Control_c, 0, 7, 100
2, 67584, Note_on_c, 0, 67, 110
2, 67584, Control_c, 0, 7, 61
2, 67584, Control_c, 0, 7, 63
2, 67584, Control_c, 0, 7, 65
2, 67680, Note_off_c, 0, 76, 64
2, 67744, Control_c, 0, 7, 62
2, 67792, Note_off_c, 0, 66, 64
2, 67840, Control_c, 0, 7, 72
2, 67968, Note_off_c, 0, 68, 64
2, 68111, Note_on_c, 9, 36, 110
2, 68128, Control_c, 0, 7, 74
2, 68448, Control_c, 0, 7, 65
2, 68448, Control_c, 0, 7, 61
2, 68448, Control_c, 0, 7, 67
2, 68480, Control_c, 0, 7, 64
2, 68528, Control_c, 0, 7, 65
2, 68544, Note_on_c, 9, 44, 64
2, 68544, Control_c, 0, 7, 87
2, 68576, Control_c, 0, 7, 61
2, 68656, Control_c, 0, 7, 62
2, 68736, Control_c, 0, 7, 61
2, 68864, Control_c, 0, 7, 54
2, 69328, Control_c, 0, 7, 61
2, 69424, Control_c, 0, 7, 61
2, 69472, Control_c, 0, 7, 65
2, 69536, Control_c, 0, 7, 71
2, 69632, Control_c, 0, 7, 71
2, 69728, Control_c, 0, 7, 61
2, 69824, Control_c, 0, 7, 77
2, 70272, Note_off_c, 0, 68, 64
2, 70448, Note_off_c, 0, 58, 64
2, 70464, Note_off_c, 0, 75, 64
2, 70960, Note_on_c, 0, 64, 110
2, 71072, Note_on_c, 0, 63, 110
2, 71072, Note_off_c, 0, 69, 64
2, 71136, Note_off_c, 0, 64, 64
2, 71232, Note_on_c, 0, 66, 110
2, 71232, Note_on_c, 0, 64, 110
2, 71272, Note_on_c, 0, 64, 110
2, 71328, Note_off_c, 0, 48, 64
2, 71328, Note_off_c, 0, 63, 64
2, 71424, Note_on_c, 0, 64, 110
2, 71424, Note_off_c, 0, 64, 64
2, 71616, Note_off_c, 0, 63, 64
2, 71728, Note_off_c, 0, 68, 64
2, 71744, Note_off_c, 0, 90, 64
2, 71808, Note_off_c, 0, 47, 64
2, 71808, Note_on_c, 0, 67, 51 
2, 72000, Note_off_c, 0, 64, 64
2, 72960, Note_off_c, 0, 70, 64
2, 72960, Note_on_c, 0, 67, 110
2, 73088, Note_off_c, 0, 80, 64
2, 73344, Note_on_c, 0, 68, 110
2, 73440, Note_on_c, 0, 52, 64
2, 73444, Note_off_c, 0, 75, 64
2, 73520, Note_on_c, 0, 66, 110
2, 73536, Note_on_c, 0, 73, 110
2, 73552, Control_c, 0, 7, 90
2, 73632, Note_on_c, 0, 64, 110
2, 73728, Note_on_c, 0, 
2, 73728, Note_on_c, 0, 67, 110
2, 73728, Control_c, 0, 7, 66
2, 73728, Note_on_c, 0, 67, 110
2, 73824, Note_off_c, 0, 73, 64
2, 73920, Note_off_c, 0, 64, 64
2, 74016, Control_c, 0, 7, 68
2, 74016, Control_c, 0, 7, 63
2, 74112, Control_c, 0, 7, 71
2, 74112, Control_c, 0, 7, 62
2, 74304, Control_c, 0, 7, 64
2, 74304, Note_off_c, 0, 64, 64
2, 74304, Control_c, 0, 7, 8
2, 74304, Control_c, 0, 7, 70
2, 74304, Control_c, 0, 7, 65
2, 74464, Control_c, 0, 7, 72
2, 74496, Note_on_c, 0, 64, 110
2, 74592, Control_c, 0, 7, 61
2, 74592, Control_c, 0, 7, 72
2, 74688, Note_off_c, 0, 64, 64
2, 74976, Control_c, 0, 7, 34
2, 75168, Control_c, 0, 7, 62
2, 75264, Control_c, 0, 7, 63
2, 75264, Note_on_c, 0, 64, 95
2, 75264, Control_c, 0, 7, 63
2, 75360, Control_c, 0, 7, 62
2, 75360, Control_c, 0, 7, 64
2, 75432, Note_off_c, 0, 64, 64
2, 75456, Note_on_c, 0, 67, 110
2, 75464, Control_c, 0, 7, 6
2, 75840, Note_on_c, 0, 66, 110
2, 75872, Note_on_c, 0, 68, 110
2, 76016, Control_c, 0, 7, 60
2, 76224, Note_on_c, 0, 75, 110
2, 76224, Control_c, 0, 7, 64
2, 76416, Note_off_c, 0, 66, 64
2, 76416, Note_off_c, 0, 68, 64
2, 76480, Note_on_c, 0, 56, 97
2, 76608, Note_off_c, 0, 73, 64
2, 76608, Note_on_c, 0, 69, 110
2, 76624, Note_off_c, 0, 68, 64
2, 76800, Control_c, 0, 7, 60
2, 79472, Note_off_c, 0, 64, 64
2, 79808, Note_on_c, 0, 75, 110
2, 79872, Note_off_c, 0, 61, 64
2, 79872, Note_off_c, 0, 70, 64
2, 79904, Note_on_c, 0, 67, 110
2, 79968, Note_off_c, 0, 64, 64
2, 80448, Note_off_c, 0, 85, 64
2, 80640, Note_off_c, 0, 64, 64
2, 81024, Note_off_c, 0, 75, 64
2, 82176, Note_on_c, 0, 64, 110
2, 82976, Note_on_c, 0, 53, 110
2, 82976, Note_off_c, 0, 68, 64
2, 84160, Note_off_c, 0, 58, 64
2, 84416, Note_off_c, 0, 85, 64
2, 84480, Note_on_c, 0, 75, 110
2, 86016, Note_on_c, 0, 66, 688
2, 86016, Note_off_c, 0, 63, 64
2, 86016, Note_on_c, 0, 59, 110
2, 87520, Note_off_c, 0, 73, 64
2, 88928, Note_off_c, 0, 80, 64
2, 89008, Note_on_c, 0, 57, 110
2, 89056, Note_on_c, 0, 67, 110
2, 89600, Note_on_c, 0, 73, 110
2, 89664, Note_off_c, 0, 74, 64
2, 89664, Note_off_c, 0, 52, 64
2, 90232, Note_off_c, 0, 75, 64
2, 90624, Note_off_c, 0, 47, 64
2, 92224, Control_c, 0, 7, 65
2, 93696, Note_on_c, 0, 69, 110
2, 95616, Note_off_c, 0, 64, 64
2, 96192, Note_on_c, 9, 44, 96
2, 100608, Note_off_c, 0, 80, 64
2, 100896, Note_on_c, 0, 85, 110
2, 100896, Note_on_c, 0, 90, 110
2, 102400, Note_on_c, 0, 85, 110
2, 102752, Note_off_c, 0, 82, 64
2, 103680, Note_on_c, 0, 85, 111
2, 103680, Note_off_c, 0, 80, 64
2, 104224, Note_off_c, 0, 81, 64
2, 104448, Note_on_c, 0, 85, 110
2, 104448, Note_on_c, 0, 81, 110
2, 104448, Note_on_c, 0, 76, 110
2, 104640, Note_on_c, 0, 81, 110
2, 106560, Note_off_c, 0, 81, 64
2, 106720, Note_off_c, 0, 74, 64
2, 106768, Note_off_c, 0, 88, 64
2, 107321, Note_on_c, 9, 36, 110
2, 109824, Note_off_c, 0, 58, 64
2, 109824, Note_off_c, 0, 80, 64
2, 110464, Note_on_c, 0, 92, 110
2, 110592, Note_off_c, 0, 66, 64
2, 110592, Note_on_c, 0, 16, 21
2, 112896, Note_on_c, 0, 92, 64
2, 113472, Note_on_c, 0, 64, 110
2, 114240, Note_off_c, 0, 73, 64
2, 114432, Note_off_c, 0, 71, 64
2, 114816, Note_off_c, 0, 61, 64
2, 115008, Note_off_c, 0, 67, 64
2, 115296, Note_on_c, 0, 61, 110
2, 115392, Note_off_c, 0, 64, 64
2, 115392, Note_off_c, 0, 67, 75
2, 115488, Note_on_c, 0, 81, 81
2, 115488, Note_on_c, 0, 68, 110
2, 115488, Control_c, 0, 7, 90
2, 115680, Note_off_c, 0, 61, 64
2, 115808, Note_on_c, 0, 72, 110
2, 116160, Note_off_c, 0, 88, 64
2, 116544, Note_on_c, 0, 73, 110
2, 116544, Note_on_c, 0, 64, 110
2, 116960, Note_on_c, 0, 71, 110
2, 117112, Note_on_c, 0, 64, 110
2, 117472, Note_off_c, 0, 66, 64
2, 117488, Note_off_c, 0, 73, 64
2, 117488, Note_on_c, 0, 64, 110
2, 117888, Note_off_c, 0, 61, 64
2, 118272, Control_c, 0, 7, 92
2, 118272, Note_on_c, 0, 67, 71
2, 118464, Note_on_c, 0, 80, 110
2, 118848, Note_on_c, 0, 66, 96
2, 118880, Note_on_c, 0, 73, 110
2, 118880, Note_off_c, 0, 66, 64
2, 121120, Note_off_c, 0, 66, 64
2, 121184, Note_off_c, 0, 66, 64
2, 121312, Control_c, 0, 7, 21
2, 122176, Note_off_c, 0, 73, 64
2, 122400, Note_off_c, 0, 71, 64
2, 122416, Note_on_c, 0, 68, 110
2, 122592, Note_on_c, 0, 80, 110
2, 122704, Note_on_c, 0, 71, 110
2, 122784, Note_on_c, 0, 61, 110
2, 122784, Note_off_c, 0, 66, 64
2, 122784, Note_off_c, 0, 66, 64
2, 134400, Note_off_c, 0, 85, 64
2, 143680, Note_on_c, 0, 78, 64
2, 144448, Note_on_c, 0, 68, 110
2, 144608, Note_on_c, 0, 88, 64
2, 145568, Note_on_c, 0, 66, 110
2, 146496, Note_on_c, 0, 70, 110
2, 147648, Note_on_c, 0, 64, 110
2, 147664, Note_off_c, 0, 73, 64
2, 148224, Note_on_c, 0, 78, 110
2, 148224, Note_off_c, 0, 69, 64
2, 148424, Note_on_c, 0, 68, 110
2, 148608, Note_on_c, 0, 64, 110
2, 148704, Note_off_c, 0, 68, 64
2, 148928, Note_off_c, 0, 75, 64
2, 149280, Note_off_c, 0, 69, 64
2, 149568, Note_on_c, 0, 78, 110
2, 149752, Note_on_c, 0, 75, 110
2, 149936, Note_on_c, 0, 73, 110
2, 150128, Note_on_c, 0, 64, 110
2, 150144, Note_off_c, 0, 75, 64
2, 150144, Note_on_c, 0, 73, 110
2, 150144, Note_off_c, 0, 64, 64
2, 150144, Note_on_c, 0, 67, 110
2, 150144, Note_on_c, 0, 66, 95
2, 150176, Note_on_c, 0, 57, 110
2, 150176, Note_off_c, 0, 68, 64
2, 150272, Note_on_c, 0, 68, 110
2, 150320, Note_off_c, 0, 68, 64
2, 150336, Note_on_c, 0, 68, 95
2, 150336, Control_c, 0, 7, 60
2, 150336, Note_on_c, 0, 68, 110
2, 150368, Note_on_c, 0, 63, 110
2, 150432, Note_on_c, 0, 63, 110
2, 150432, Control_c, 0, 7, 62
2, 150528, Note_off_c, 0, 68, 64
2, 150528, Note_off_c, 0, 76, 64
2, 150528, Note_on_c, 0, 64, 110
2, 150528, Note_on_c, 0, 64, 110
2, 150528, Note_on_c, 0, 66, 110
2, 150720, Note_on_c, 0, 88, 110
2, 150720, Note_off_c, 0, 75, 64
2, 150720, Note_on_c, 0, 73, 110
2, 150720, Note_on_c, 0, 63, 110
2, 150720, Note_on_c, 0, 86, 64
2, 150720, Note_on_c, 9, 59, 110
2, 150720, Note_off_c, 0, 73, 64
2, 150816, Note_on_c, 0, 71, 110
2, 150848, Note_on_c, 0, 75, 110
2, 150848, Note_on_c, 0, 68, 110
2, 150912, Note_on_c, 0, 64, 110
2, 150912, Note_off_c, 0, 54, 64
2, 151264, Control_c, 0, 7, 76
2, 151264, Control_c, 0, 7, 67
2, 151680, Control_c, 0, 7, 62
2, 151728, Note_on_c, 0, 64, 110
2, 151744, Control_c, 0, 7, 74
2, 152160, Control_c, 0, 7, 72
2, 152176, Control_c, 0, 7, 78
2, 152352, Control_c, 0, 7, 64
2, 152672, Control_c, 0, 7, 61
2, 152896, Note_on_c, 0, 64, 110
2, 153216, Note_off_c, 0, 66, 64
2, 153216, Note_on_c, 0, 68, 110
2, 153216, Note_off_c, 0, 66, 64
2, 153216, Note_off_c, 0, 64, 64
2, 153696, Control_c, 0, 7, 60
2, 153696, Note_on_c, 0, 66, 110
2, 153696, Note_on_c, 0, 73, 110
2, 153696, Note_off_c, 0, 72, 64
2, 154144, Note_on_c, 0, 45, 150
2, 154176, Note_on_c, 0, 43, 110
2, 154176, Note_off_c, 0, 64, 64
2, 154272, Note_off_c, 0, 56, 64
2, 154272, Control_c, 0, 7, 100
2, 154272, Note_on_c, 0, 73, 110
2, 154464, Note_off_c, 0, 68, 64
2, 154464, Control_c, 0, 7, 67
2, 154544, Note_on_c, 0, 68, 110
2, 154560, Note_off_c, 0, 88, 64
2, 154560, Note_on_c, 0, 80, 110
2, 154752, Note_off_c, 0, 68, 64
2, 154752, Control_c, 0, 7, 30
2, 154976, Note_on_c, 0, 68, 110
2, 155104, Control_c, 0, 7, 62
2, 155120, Note_on_c, 0, 68, 110
2, 155200, Control_c, 0, 7, 66
2, 155328, Note_off_c, 0, 64, 64
2, 155328, Note_off_c, 0, 75, 64
2, 155712, Note_on_c, 0, 61, 110
2, 155872, Note_on_c, 0, 59, 110
2, 156000, Note_on_c, 0, 68, 110
2, 156064, Control_c, 0, 7, 61
2, 156096, Control_c, 0, 7, 71
2, 156160, Note_on_c, 0, 76, 110
2, 156176, Note_on_c, 0, 64, 110
2, 156176, Note_on_c, 0, 67, 110
2, 156272, Control_c, 0, 7, 94
2, 156272, Note_on_c, 0, 67, 4
2, 156272, Note_on_c, 0, 59, 110
2, 156288, Note_off_c, 0, 75, 64
2, 156288, Note_off_c, 0, 75, 64
2, 156288, Note_off_c, 0, 64, 64
2, 156288, Note_off_c, 0, 64, 64
2, 156288, Note_on_c, 0, 68, 110
2, 156288, Note_on_c, 0, 64, 110
2, 156288, Note_off_c, 0, 67, 64
2, 156288, Note_off_c, 0, 75, 64
2, 156320, Control_c, 0, 7, 66
2, 156384, Note_on_c, 0, 64, 110
2, 156448, Note_off_c, 0, 71, 64
2, 156480, Note_off_c, 0, 64, 64
2, 156480, Note_on_c, 0, 73, 110
2, 156480, Note_off_c, 0, 75, 64
2, 156480, Note_on_c, 0, 68, 110
2, 156480, Note_off_c, 0, 74, 64
2, 156480, Note_on_c, 0, 71, 110
2, 156480, Control_c, 0, 7, 100
2, 156480, Control_c, 0, 7, 63
2, 156560, Control_c, 0, 7, 90
2, 156576, Control_c, 0, 7, 69
2, 156640, Note_off_c, 0, 68, 64
2, 156672, Note_on_c, 0, 64, 110
2, 156672, Control_c, 0, 7, 71
2, 156672, Note_on_c, 0, 64, 110
2, 156672, Note_off_c, 0, 75, 64
2, 156672, Note_on_c, 0, 68, 110
2, 156672, Note_on_c, 0, 75, 110
2, 156672, Note_on_c, 9, 44, 64
2, 156672, Note_off_c, 0, 78, 64
2, 156672, Control_c, 0, 7, 69
2, 156672, Control_c, 0, 110
2, 156832, Note_on_c, 0, 41, 64
2, 156864, Note_on_c, 0, 68, 110
2, 156864, Control_c, 0, 7, 63
2, 156896, Note_off_c, 0, 69, 64
2, 156960, Note_off_c, 0, 68, 64
2, 157024, Control_c, 0, 7, 110
2, 157024, Control_c, 0, 7, 65
2, 157120, Control_c, 0, 7, 71
2, 157120, Control_c, 0, 7, 67
2, 157248, Control_c, 0, 7, 94
2, 157248, Control_c, 0, 10, 64
2, 157248, Control_c, 0, 7, 71
2, 157408, Control_c, 0, 7, 100
2, 157440, Control_c, 0, 7, 61
2, 157440, Control_c, 0, 7, 69
2, 157440, Control_c, 0, 7, 71
2, 157440, Control_c, 0, 7, 73
2, 157472, Control_c, 0, 7, 68
2, 157520, Control_c, 0, 7, 61
2, 157792, Control_c, 0, 7, 71
2, 157824, Control_c, 0, 7, 66
2, 157824, Control_c, 0, 7, 65
2, 157984, Control_c, 0, 7, 69
2, 158208, Note_off_c, 0, 71, 64
2, 158208, Control_c, 0, 7, 72
2, 158208, Note_on_c, 0, 66, 110
2, 158208, Control_c, 0, 7, 69
2, 158240, Note_on_c, 0, 64, 110
2, 158272, Control_c, 0, 7, 71
2, 158368, Control_c, 0, 7, 78
2, 158400, Control_c, 0, 7, 69
2, 158496, Control_c, 0, 7, 62
2, 158560, Control_c, 0, 7, 70
2, 158560, Control_c, 0, 7, 61
2, 158592, Control_c, 0, 7, 76
2, 158592, Control_c, 0, 7, 64
2, 158592, Note_on_c, 0, 57, 110
2, 158784, Control_c, 0, 7, 70
2, 158784, Control_c, 0, 7, 43
2, 158784, Control_c, 0, 7, 70
2, 158784, Control_c, 0, 7, 74
2, 158816, Note_on_c, 0, 71, 110
2, 158976, Note_on_c, 5, 61, 96
2, 159136, Note_off_c, 0, 67, 64
2, 159168, Control_c, 0, 7, 100
2, 159168, Control_c, 0, 7, 62
2, 159360, Control_c, 0, 7, 66
2, 159360, Control_c, 0, 7, 67
2, 159360, Note_off_c, 0, 68, 64
2, 159360, Control_c, 0, 7, 100
2, 159552, Note_on_c, 0, 64, 110
2, 159552, Note_on_c, 0, 66, 110
2, 159688, Note_on_c, 0, 63, 110
2, 159744, Control_c, 0, 7, 100
2, 159744, Note_off_c, 0, 69, 64
2, 159744, Note_on_c, 0, 66, 110
2, 159744, Control_c, 0, 7, 90
2, 159872, Note_on_c, 0, 67, 110
2, 159968, Note_on_c, 0, 64, 110
2, 160096, Note_on_c, 0, 74, 110
2, 160192, Note_on_c, 0, 66, 110
2, 160320, Note_on_c, 0, 66, 110
2, 160320, Control_c, 0, 7, 63
2, 160320, Note_on_c, 0, 73, 110
2, 160320, Note_off_c, 0, 48, 62
2, 160320, Note_on_c, 0, 66, 110
2, 160320, Note_off_c, 0, 71, 64
2, 160512, Note_on_c, 0, 74, 82
2, 160704, Note_on_c, 0, 73, 110
2, 160896, Note_on_c, 0, 67, 110
2, 160992, Note_off_c, 0, 78, 64
2, 160992, Note_on_c, 0, 66, 110
2, 160992, Note_off_c, 0, 63, 64
2, 161680, Note_off_c, 0, 75, 64
2, 162144, Note_off_c, 0, 64, 64
2, 162224, Note_off_c, 0, 63, 64
2, 162288, Note_on_c, 0, 71, 110
2, 162432, Note_on_c, 0, 67, 110
2, 162720, Note_off_c, 0, 75, 64
2, 162816, Note_on_c, 0, 57, 110
2, 162832, Note_off_c, 0, 71, 64
2, 163008, Control_c, 0, 7, 66
2, 163008, Control_c, 0, 7, 61
2, 163008, Note_on_c, 0, 67, 110
2, 163168, Control_c, 0, 7, 75
2, 163168, Control_c, 0, 7, 68
2, 163200, Control_c, 0, 7, 61
2, 163392, Note_off_c, 0, 64, 64
2, 163696, Control_c, 0, 7, 64
2, 163904, Control_c, 0, 7, 62
2, 163936, Control_c, 0, 7, 65
2, 163936, Control_c, 0, 7, 55
2, 164352, Control_c, 0, 7, 66
2, 164448, Control_c, 0, 7, 84
2, 164736, Control_c, 0, 7, 63
2, 165120, Control_c, 0, 7, 64
2, 165504, Control_c, 0, 7, 76
2, 165504, Control_c, 0, 7, 60
2, 165536, Note_off_c, 0, 66, 64
2, 165632, Control_c, 0, 7, 70
2, 165696, Control_c, 0, 7, 60
2, 165728, Control_c, 0, 7, 68
2, 165888, Note_off_c, 0, 64, 64
2, 165984, Note_off_c, 0, 68, 64
2, 166144, Note_on_c, 0, 66, 110
2, 166464, Control_c, 0, 7, 92
2, 166464, Note_off_c, 0, 71, 64
2, 166880, Note_on_c, 0, 64, 110
2, 167216, Control_c, 0, 7, 60
2, 168096, Note_on_c, 0, 73, 110
2, 168384, Control_c, 0, 7, 71
2, 168752, Note_off_c, 0, 69, 64
2, 169536, Control_c, 0, 7, 100
2, 169568, Note_off_c, 0, 63, 64
2, 169632, Control_c, 0, 7, 61
2, 170112, Control_c, 0, 7, 90
2, 170304, Control_c, 0, 7, 76
2, 170336, Control_c, 0, 7, 90
2, 170416, Control_c, 0, 7, 62
2, 170624, Note_off_c, 0, 64, 64
2, 170688, Control_c, 0, 7, 64
2, 170880, Note_on_c, 3, 49, 110
2, 170880, Control_c, 0, 7, 65
2, 171040, Control_c, 0, 7, 64
2, 171168, Control_c, 0, 7, 90
2, 171168, Note_off_c, 0, 66, 64
2, 171648, Note_off_c, 0, 68, 64
2, 171648, Note_off_c, 0, 73, 64
2, 172224, Note_on_c, 0, 75, 110
2, 172800, Note_on_c, 0, 64, 110
2, 173760, Note_on_c, 0, 68, 110
2, 173760, Note_off_c, 0, 64, 64
2, 173760, Note_on_c, 0, 68, 95
2, 173792, Note_off_c, 0, 64, 64
2, 174720, Note_on_c, 10, 66, 82
2, 175136, Note_off_c, 0, 68, 64
2, 175296, Note_off_c, 0, 68, 64
2, 175680, Note_off_c, 0, 68, 64
2, 175680, Note_on_c, 0, 69, 110
2, 176256, Note_on_c, 0, 61, 110
2, 176256, Note_on_c, 0, 64, 110
2, 176256, Note_off_c, 0, 63, 64
2, 176288, Note_on_c, 0, 73, 110
2, 176352, Note_on_c, 0, 64, 110
2, 176480, Note_on_c, 0, 64, 110
2, 176608, Note_off_c, 0, 62, 64
2, 176640, Note_off_c, 0, 73, 64
2, 176672, Note_off_c, 0, 64, 64
2, 176832, Note_on_c, 0, 64, 95
2, 178176, Note_on_c, 0, 52, 61
2, 178176, Note_on_c, 0, 66, 110
2, 178176, Note_on_c, 4, 51, 110
2, 179616, Note_off_c, 0, 69, 64
2, 180480, Note_on_c, 0, 47, 95
2, 180896, Note_on_c, 0, 61, 110
2, 181248, Control_c, 0, 7, 94
2, 184320, Note_on_c, 0, 61, 110
2, 184356, Note_off_c, 0, 75, 64
2, 186208, Note_off_c, 0, 78, 64
2, 186624, Note_off_c, 0, 68, 64
2, 187712, Note_off_c, 0, 64, 64
2, 188128, Note_off_c, 0, 52, 64
2, 188320, Note_on_c, 0, 75, 110
2, 188512, Note_off_c, 0, 64, 64
2, 188928, Note_on_c, 0, 75, 110
2, 189920, Note_on_c, 0, 78, 110
2, 190160, Note_off_c, 0, 88, 64
2, 190848, Note_on_c, 0, 64, 110
2, 192384, Note_on_c, 0, 66, 110
2, 193632, Note_on_c, 0, 52, 64
2, 194880, Note_on_c, 0, 66, 110
2, 195648, Note_off_c, 0, 64, 64
2, 196608, Note_on_c, 0, 57, 110
2, 196608, Control_c, 0, 7, 60
2, 196608, Note_on_c, 0, 67, 110
2, 196608, Note_on_c, 0, 72, 110
2, 200640, Note_off_c, 0, 68, 64
2, 202752, Note_off_c, 0, 81, 64
2, 205824, Note_on_c, 0, 64, 110
2, 209088, Note_on_c, 0, 73, 110
2, 209888, Note_off_c, 0, 80, 64
2, 210240, Note_off_c, 0, 66, 64
2, 211168, Note_off_c, 0, 75, 64
2, 212352, Note_off_c, 0, 66, 64
2, 213280, Note_off_c, 0, 75, 64
2, 213664, Control_c, 0, 72, 64
2, 213728, Note_on_c, 0, 92, 64
2, 214048, Note_off_c, 0, 68, 64
2, 214272, Note_on_c, 0, 64, 110
2, 214688, Note_off_c, 0, 64, 64
2, 215232, Note_on_c, 0, 66, 110
2, 215232, Note_off_c, 0, 71, 64
2, 215232, Note_on_c, 0, 80, 110
2, 215520, Note_off_c, 0, 68, 64
2, 215936, Note_on_c, 0, 71, 110
2, 216572, Note_on_c, 0, 80, 110
2, 216672, Control_c, 0, 7, 51
2, 217328, Note_on_c, 0, 64, 110
2, 217648, Note_off_c, 0, 75, 64
2, 217824, Note_off_c, 0, 81, 64
2, 217824, Note_off_c, 0, 88, 64
2, 219264, Control_c, 0, 7, 108
2, 219648, Note_on_c, 0, 68, 110
2, 222608, Control_c, 0, 7, 60
2, 230608, Control_c, 0, 7, 73
2, 240704, Control_c, 0, 7, 141
2, 800424, Note_on_c, 2, 56, 70
2, 170688, Note_off_c, 9, 38, 64
2, 165822, Note_on_c, 5, 61, 96
2, 206733, Note_on_c, 0, 81, 110
2, 5184, Note_off_c, 0, 81, 64
2, 8736, Note_on_c, 0, 80, 110
2, 9616, Note_on_c, 0, 80, 110
2, 54848, Note_off_c, 3, 35, 64
2, 70272, Note_off_c, 0, 64, 64
2, 71424, Note_off_c, 0, 61, 64
2, 84480, Note_on_c, 0, 52, 110
2, 84608, Note_on_c, 0, 69, 110
2, 85616, Note_on_c, 0, 52, 110
2, 94848, Note_off_c, 0, 70, 64
2, 95808, Note_off_c, 0, 66, 64
2, 95808, Note_on_c, 0, 69, 110
2, 148128, Note_off_c, 0, 66, 64
2, 149152, Note_off_c, 0, 66, 64
2, 149568, Note_on_c, 0, 73, 110
2, 150528, Note_on_c, 0, 64, 110
2, 153632, Note_on_c, 0, 68, 110
2, 154752, Note_on_c, 0, 80, 82
2, 155328, Note_on_c, 0, 71, 110
2, 155520, Control_c, 0, 7, 43
2, 156768, Note_on_c, 0, 72, 110
2, 156960, Note_on_c, 0, 68, 110
2, 157536, Note_on_c, 0, 52, 110
2, 157952, Note_on_c, 0, 76, 110
2, 159744, Control_c, 0, 7, 60
2, 176864, Note_off_c, 0, 61, 64
2, 196608, Note_on_c, 0, 71, 110
2, 198688, Note_on_c, 0, 87, 89
2, 203680, Note_off_c, 7, 78, 64
2, 208896, Note_off_c, 0, 88, 64
2, 213120, Note_on_c, 0, 81, 110
2, 241952, Control_c, 0, 7, 62
2, 221600, Note_off_c, 1, 68, 64
2, 24384, Note_on_c, 0, 64, 64
2, 72672, Note_off_c, 0, 52, 64
2, 76224, Note_off_c, 0, 64, 64
2, 79552, Note_off_c, 0, 63, 64
2, 82944, Note_on_c, 0, 68, 95
2, 83520, Note_on_c, 0, 68, 110
2, 83520, Note_off_c, 0, 68, 64
2, 83712, Note_off_c, 0, 68, 64
2, 84096, Note_on_c, 0, 69, 110
2, 86016, Note_on_c, 0, 61, 110
2, 86016, Note_off_c, 0, 56, 64
2, 86976, Note_on_c, 0, 64, 110
2, 93920, Note_on_c, 0, 64, 110
2, 150720, Note_on_c, 0, 64, 110
2, 154560, Note_off_c, 8, 78, 64
2, 156080, Note_on_c, 0, 75, 110
2, 170464, Control_c, 0, 7, 100
2, 174112, Note_off_c, 0, 53, 64
2, 179712, Note_off_c, 0, 64, 64
2, 182720, Note_on_c, 0, 80, 110
2, 184160, Note_on_c, 0, 63, 110
2, 187168, Note_on_c, 0, 67, 110
2, 256384, Control_c, 3, 7, 28
2, 158368, Note_on_c, 1, 76, 110
2, 175104, Control_c, 2, 7, 10
2, 158083, Note_on_c, 4, 49, 110
2, 219642, Note_off_c, 9, 44, 64
2, 173696, Control_c, 0, 7, 61
2, 210048, Note_off_c, 0, 68, 64
2, 210240, Note_off_c, 0, 64, 64
2, 211200, Note_off_c, 0, 78, 64
2, 215808, Note_on_c, 0, 61, 110
2, 158976, Note_on_c, 9, 44, 110
2, 22544, Note_on_c, 0, 66, 64
2, 23072, Note_on_c, 0, 61, 591, 46, 110
2, 24960, Note_on_c, 0, 66, 64
2, 25968, Control_c, 0, 7, 43
2, 90208, Note_on_c, 0, 85, 110
2, 90624, Note_off_c, 0, 80, 64
2, 111680, Note_off_c, 0, 72, 64
2, 112320, Note_off_c, 0, 78, 64
2, 114432, Note_off_c, 0, 66, 64
2, 115488, Note_off_c, 0, 64, 64
2, 115488, Note_on_c, 0, 64, 110
2, 115968, Note_on_c, 0, 71, 110
2, 119888, Note_off_c, 0, 76, 64
2, 122496, Note_on_c, 0, 66, 110
2, 122784, Note_on_c, 0, 72, 110
2, 165024, Control_c, 0, 7, 78
2, 172616, Control_c, 0, 7, 83
2, 205056, Note_off_c, 0, 64, 64
3, 0, Note_on_c, 0, 67, 110
3, 40, Note_on_c, 9, 44, 64
3, 72, Note_on_c, 2, 66, 110
3, 144, Note_on_c, 4, 40, 110
3, 496, Note_off_c, 0, 61, 64
3, 1344, Note_on_c, 1, 61, 81
3, 1496, Note_off_c, 9, 36, 64
3, 1728, Note_off_c, 1, 61, 64
3, 1728, Note_on_c, 1, 64, 110
3, 4032, Note_off_c, 9, 44, 64
3, 8928, Note_off_c, 6, 81, 64
3, 9216, Control_c, 1, 7, 73
3, 9792, Note_off_c, 1, 68, 64
3, 10176, Note_on_c, 1, 68, 110
3, 10176, Note_on_c, 1, 68, 110
3, 10368, Note_off_c, 1, 71, 64
3, 10368, Note_off_c, 1, 68, 64
3, 10560, Note_off_c, 1, 76, 64
3, 10560, Note_off_c, 1, 68, 64
3, 10752, Note_on_c, 1, 68, 110
3, 11120, Note_on_c, 1, 68, 110
3, 11536, Note_on_c, 1, 68, 110
3, 11536, Note_off_c, 1, 61, 64
3, 11712, Note_off_c, 1, 61, 64
3, 12672, Note_on_c, 1, 61, 64
3, 13056, Note_on_c, 1, 61, 81
3, 13824, Note_on_c, 1, 61, 81
3, 14016, Note_on_c, 1, 61, 110
3, 14016, Note_off_c, 1, 76, 64
3, 14016, Note_off_c, 1, 61, 64
3, 14032, Note_on_c, 9, 36, 110
3, 14096, Note_off_c, 3, 37, 64
3, 14096, Note_on_c, 1, 68, 110
3, 14176, Note_on_c, 1, 68, 110
3, 14176, Note_on_c, 1, 61, 81
3, 14400, Note_on_c, 1, 72, 110
3, 14400, Note_off_c, 1, 68, 64
3, 14400, Note_off_c, 1, 76, 64
3, 14400, Note_off_c, 1, 68, 64
3, 14448, Note_off_c, 1, 60, 64
3, 14592, Note_on_c, 1, 75, 110
3, 14672, Note_off_c, 1, 68, 64
3, 15360, Note_off_c, 1, 68, 64
3, 15864, Note_off_c, 2, 61, 64
3, 15936, Note_on_c, 1, 61, 81
3, 15936, Note_on_c, 1, 76, 110
3, 16128, Note_off_c, 1, 68, 64
3, 16128, Note_off_c, 2, 61, 64
3, 16704, Note_off_c, 1, 68, 64
3, 16704, Note_on_c, 1, 68, 110
3, 17184, Note_on_c, 1, 71, 110
3, 17248, Note_on_c, 1, 61, 82
3, 17248, Note_off_c, 1, 68, 64
3, 17264, Note_off_c, 1, 61, 64
3, 17280, Note_on_c, 1, 61, 81
3, 17568, Note_on_c, 1, 61, 81
3, 17664, Note_on_c, 1, 61, 81
3, 17664, Note_on_c, 1, 71, 64
3, 17664, Note_off_c, 1, 61, 64
3, 18224, Note_on_c, 2, 56, 70
3, 18432, Note_on_c, 1, 61, 81
3, 18432, Note_on_c, 1, 68, 64
3, 19040, Note_on_c, 1, 61, 81
3, 19808, Note_on_c, 1, 69, 110
3, 23232, Note_off_c, 1, 62, 64
3, 28608, Note_on_c, 1, 68, 64
3, 28800, Note_on_c, 1, 66, 64
3, 29568, Note_off_c, 1, 76, 64
3, 29952, Note_on_c, 1, 68, 110
3, 33792, Note_off_c, 1, 68, 64
3, 33984, Note_off_c, 1, 64, 64
3, 33984, Note_on_c, 1, 75, 110
3, 33984, Note_on_c, 1, 75, 110
3, 33984, Note_off_c, 1, 71, 64
3, 34560, Note_on_c, 1, 63, 110
3, 34784, Note_off_c, 1, 68, 64
3, 34784, Note_on_c, 1, 68, 64
3, 34944, Note_off_c, 1, 69, 64
3, 35104, Note_off_c, 1, 68, 64
3, 35520, Note_off_c, 1, 71, 64
3, 35712, Note_on_c, 1, 64
3, 35712, Note_off_c, 1, 68, 64
3, 36384, Note_off_c, 1, 66, 64
3, 36672, Note_on_c, 1, 73, 110
3, 36672, Note_on_c, 1, 64, 64
3, 39168, Note_off_c, 1, 64
3, 39168, Note_off_c, 1, 63, 64
3, 39936, Note_off_c, 1, 73, 64
3, 39968, Note_off_c, 0
3, 40576, Note_off_c, 1, 75, 64
3, 40992, Note_off_c, 1, 68, 64
3, 41088, Note_off_c, 1, 76, 64
3, 41184, Note_on_c, 1, 66, 64
3, 41312, Note_off_c, 2, 59, 64
3, 41472, Note_on_c, 1, 64, 64
3, 41664, Note_on_c, 1, 69, 110
3, 41856, Note_off_c, 1, 61, 64
3, 42432, Note_on_c, 1, 68, 110
3, 42624, Note_on_c, 1, 63, 64
3, 43136, Note_off_c, 1, 73, 64
3, 43200, Note_on_c, 9, 38, 112
3, 43616, Note_on_c, 1, 64, 64
3, 43776, Note_on_c, 1, 64, 64
3, 43808, Note_off_c, 1, 73, 64
3, 43904, Note_on_c, 1, 71, 64
3, 44256, Note_off_c, 8, 83, 64
3, 45312, Note_off_c, 1, 73, 64
3, 45504, Note_on_c, 1, 63, 110
3, 45512, Note_off_c, 4, 33, 64
3, 46080, Note_on_c, 1, 64, 64
3, 48416, Note_off_c, 1, 64, 64
3, 56672, Note_on_c, 1, 69, 110
3, 74304, Note_off_c, 1, 58, 64
3, 76608, Note_on_c, 1, 73, 110
3, 79520, Note_off_c, 1, 71, 64
3, 104320, Note_on_c, 1, 78, 110
3, 116176, Note_on_c, 1, 68, 110
3, 118464, Note_on_c, 1, 76, 110
3, 123072, Note_off_c, 1, 73, 64
3, 124224, Note_off_c, 1, 68, 64
3, 125760, Note_on_c, 1, 66, 64
3, 130176, Note_on_c, 1, 75, 110
3, 130176, Note_on_c, 1, 68, 64
3, 130336, Note_off_c, 1, 63, 64
3, 130944, Note_on_c, 1, 73, 110
3, 131312, Note_off_c, 1, 63, 64
3, 131328, Note_off_c, 1, 73, 64
3, 131520, Note_off_c, 1, 76, 64
3, 131904, Note_on_c, 1, 73, 110
3, 132384, Note_on_c, 1, 66, 81
3, 132608, Note_on_c, 1, 80, 59
3, 132768, Note_off_c, 1, 71, 64
3, 132896, Note_off_c, 1, 71, 64
3, 134784, Note_on_c, 1, 64, 64
3, 134784, Note_on_c, 1, 64, 110
3, 135136, Note_on_c, 9, 36, 110
3, 135168, Note_on_c, 1, 69, 110
3, 135360, Note_off_c, 1, 64, 64
3, 135360, Note_off_c, 1, 58, 64
3, 135360, Note_off_c, 1, 71, 64
3, 135360, Note_on_c, 1, 63, 110
3, 135360, Note_on_c, 1, 64, 64
3, 135360, Note_off_c, 1, 71, 64
3, 135568, Control_c, 1, 7, 46
3, 135568, Note_on_c, 1, 68, 110
3, 135648, Note_off_c, 1, 73, 64
3, 135744, Note_off_c, 1, 71, 64
3, 135776, Note_on_c, 1, 66, 64
3, 135936, Note_on_c, 1, 66, 110
3, 135936, Note_off_c, 1, 66, 64
3, 135936, Note_off_c, 1, 68, 64
3, 135936, Note_off_c, 1, 68, 64
3, 135968, Note_off_c, 1, 64, 64
3, 135968, Note_on_c, 1, 64, 64
3, 136320, Note_on_c, 1, 73, 64
3, 136320, Note_on_c, 1, 64, 64
3, 136320, Note_on_c, 1, 68, 110
3, 136512, Note_off_c, 1, 64, 64
3, 136512, Note_on_c, 1, 75, 110
3, 136608, Note_off_c, 1, 66, 64
3, 136896, Note_on_c, 1, 68, 64
3, 137248, Note_off_c, 1, 64, 64
3, 137472, Note_on_c, 1, 69, 64
3, 137664, Note_on_c, 1, 71, 110
3, 137664, Note_on_c, 1, 64, 64
3, 137856, Note_off_c, 1, 56, 64
3, 137856, Note_off_c, 1, 58, 64
3, 137856, Note_off_c, 1, 63, 64
3, 137856, Note_off_c, 1, 64, 64
3, 137856, Note_on_c, 1, 61, 64
3, 137872, Note_on_c, 1, 64, 64
3, 137888, Note_on_c, 1, 39, 64
3, 138048, Note_on_c, 1, 58, 64
3, 139776, Note_off_c, 1, 69, 64
3, 140384, Note_off_c, 5, 61, 64
3, 140448, Note_off_c, 1, 66, 64
3, 140544, Note_off_c, 1, 69, 64
3, 140544, Note_off_c, 1, 64, 64
3, 140576, Note_on_c, 1, 68, 64
3, 140768, Note_off_c, 1, 69, 64
3, 140928, Note_on_c, 1, 71, 64
3, 141504, Note_off_c, 9, 44, 64
3, 141632, Note_on_c, 1, 66, 64
3, 141728, Note_on_c, 1, 56, 64
3, 143328, Note_off_c, 1, 66, 64
3, 143552, Note_off_c, 1, 53, 64
3, 143552, Note_off_c, 1, 69, 64
3, 143584, Note_on_c, 1, 71, 110
3, 143616, Note_on_c, 1, 64, 110
3, 143616, Note_off_c, 1, 71, 64
3, 143616, Note_on_c, 1, 63, 110
3, 143808, Note_off_c, 1, 64, 64
3, 145632, Note_on_c, 1, 69, 110
3, 149664, Note_on_c, 1, 68, 110
3, 163200, Note_off_c, 1, 63, 64
3, 166664, Note_on_c, 1, 73, 110
3, 170688, Note_on_c, 1, 58, 64
3, 170784, Note_on_c, 1, 80, 110
3, 172032, Note_on_c, 1, 76, 110
3, 172256, Note_off_c, 0, 67, 64
3, 172320, Note_on_c, 4, 40, 110
3, 172320, Note_off_c, 1, 78, 110
3, 173056, Note_on_c, 1, 69, 110
3, 173600, Note_on_c, 1, 78, 110
3, 173760, Note_off_c, 1, 64, 64
3, 175104, Note_off_c, 1, 76, 64
3, 176640, Control_c, 1, 7, 11
3, 177760, Note_off_c, 1, 68, 64
3, 178752, Note_off_c, 1, 75, 64
3, 179904, Note_on_c, 1, 76, 110
3, 180832, Note_off_c, 2, 57, 64
3, 213696, Note_on_c, 1, 73, 110
3, 218112, Note_on_c, 1, 61, 64
3, 218112, Note_on_c, 1, 76, 110
3, 218304, Note_off_c, 1, 68, 64
3, 219040, Note_off_c, 1, 73, 64
3, 219264, Control_c, 1, 7, 55
3, 219648, Note_off_c, 1, 73, 64
3, 224448, Note_on_c, 1, 66, 64
3, 224448, Note_off_c, 1, 71, 64
3, 224544, Control_c, 1, 7, 103
3, 225184, Note_on_c, 1, 73, 110
3, 225504, Control_c, 1, 7, 65
3, 225600, Note_off_c, 1, 71, 64
3, 225712, Control_c, 1, 7, 67
3, 225792, Control_c, 1, 7, 33
3, 225792, Control_c, 1, 7, 91
3, 225792, Control_c, 1, 7, 122
3, 225824, Control_c, 1, 7, 98
3, 225888, Note_off_c, 1, 66, 64
3, 225984, Note_on_c, 1, 71, 110
3, 226080, Control_c, 1, 7, 102
3, 226080, Control_c, 1, 7, 110
3, 226464, Control_c, 1, 7, 87
3, 226656, Note_off_c, 1, 69, 64
3, 226656, Control_c, 1, 7, 16
3, 226752, Note_off_c, 1, 71, 64
3, 226944, Note_off_c, 1, 71, 64
3, 227520, Note_on_c, 1, 78, 62
3, 227712, Control_c, 1, 7, 80
3, 227840, Control_c, 9, 7, 100
3, 227904, Control_c, 1, 7, 84
3, 227936, Control_c, 1, 7, 110
3, 228000, Control_c, 1, 7, 101
3, 228096, Control_c, 1, 7, 81
3, 229024, Control_c, 1, 7, 103
3, 229056, Control_c, 1, 7, 81
3, 229248, Control_c, 1, 7, 10
3, 229440, Control_c, 1, 7, 58
3, 230208, Control_c, 1, 7, 49
3, 230304, Control_c, 1, 7, 17
3, 230400, Note_off_c, 1, 61, 64
3, 230784, Control_c, 1, 7, 5
3, 230976, Control_c, 1, 7, 50
3, 230976, Note_on_c, 1, 66, 70
3, 231168, Note_on_c, 1, 69, 64
3, 231168, Control_c, 1, 7, 53
3, 231168, Note_on_c, 1, 64, 110
3, 231264, Control_c, 1, 7, 52
3, 231360, Control_c, 1, 7, 43
3, 231360, Note_off_c, 1, 66, 64
3, 231552, Note_on_c, 1, 68, 64
3, 231552, Note_on_c, 1, 66, 110
3, 231648, Control_c, 1, 7, 19
3, 231840, Control_c, 1, 58, 64
3, 231936, Note_on_c, 1, 66, 110
3, 231968, Note_off_c, 1, 64, 64
3, 232128, Note_on_c, 1, 58, 64
3, 232128, Note_off_c, 1, 64, 64
3, 232832, Control_c, 1, 7, 203
3, 232896, Note_off_c, 1, 68, 64
3, 233088, Note_off_c, 1, 63, 64
3, 233088, Note_off_c, 1, 68, 64
3, 233152, Control_c, 1, 7, 53
3, 233184, Control_c, 1, 7, 48
3, 233280, Note_off_c, 1, 64, 64
3, 233280, Control_c, 1, 7, 56
3, 233280, Control_c, 1, 7, 58
3, 233464, Control_c, 1, 7, 53
3, 233664, Control_c, 1, 7, 45
3, 233856, Control_c, 1, 7, 18
3, 233872, Note_on_c, 1, 64, 64
3, 233888, Control_c, 1, 7, 45
3, 234128, Control_c, 1, 7, 26
3, 234240, Control_c, 1, 7, 27
3, 234240, Note_off_c, 1, 64, 64
3, 234336, Control_c, 1, 7, 29
3, 234336, Control_c, 1, 7, 17
3, 234432, Control_c, 1, 7, 27
3, 234528, Control_c, 1, 7, 46
3, 234528, Control_c, 1, 7, 52
3, 234816, Control_c, 1, 7, 53
3, 234816, Control_c, 1, 7, 46
3, 234816, Note_on_c, 1, 58, 64
3, 234816, Control_c, 1, 7, 56
3, 234816, Note_on_c, 1, 66, 64
3, 234848, Control_c, 1, 7, 40
3, 234848, Note_off_c, 1, 66, 64
3, 234944, Control_c, 10, 7, 83
3, 235376, Control_c, 1, 7, 56
3, 235488, Control_c, 1, 7, 55
3, 235680, Control_c, 1, 7, 57
3, 235872, Control_c, 1, 7, 40
3, 235872, Control_c, 1, 7, 54
3, 235904, Control_c, 1, 7, 51
3, 235904, Control_c, 1, 7, 50
3, 235968, Control_c, 1, 7, 47
3, 236064, Control_c, 1, 7, 42
3, 236064, Control_c, 1, 7, 45
3, 236128, Note_off_c, 1, 73, 64
3, 236160, Control_c, 1, 7, 35
3, 236256, Control_c, 1, 7, 48
3, 236256, Control_c, 1, 7, 49
3, 236352, Note_on_c, 1, 69, 110
3, 236656, Control_c, 1, 7, 41
3, 236736, Control_c, 1, 71, 64
3, 236736, Note_off_c, 1, 63, 64
3, 236752, Control_c, 1, 7, 31
3, 236832, Control_c, 1, 7, 51
3, 236832, Control_c, 1, 7, 38
3, 236848, Note_off_c, 2, 51, 64
3, 236928, Note_off_c, 0, 73, 64
3, 236960, Control_c, 1, 7, 41
3, 237024, Control_c, 1, 7, 20
3, 237616, Control_c, 1, 7, 38
3, 237888, Control_c, 1, 7, 59
3, 238048, Note_on_c, 1, 63, 110
3, 238268, Control_c, 0, 7, 62
3, 238464, Control_c, 1, 7, 17
3, 238464, Control_c, 1, 7, 70
3, 238464, Control_c, 1, 7, 21
3, 238464, Control_c, 1, 7, 57
3, 238464, Control_c, 1, 79, 64
3, 238560, Control_c, 1, 7, 28
3, 238752, Control_c, 1, 7, 19
3, 238848, Note_off_c, 1, 64, 64
3, 238912, Control_c, 1, 7, 33
3, 239040, Control_c, 1, 7, 41
3, 239424, Control_c, 1, 7, 58
3, 239424, Control_c, 1, 7, 32
3, 240192, Control_c, 1, 7, 19
3, 240704, Control_c, 1, 7, 17
3, 240960, Control_c, 1, 7, 10
3, 242208, Control_c, 1, 7, 26
3, 135360, Note_off_c, 10, 88, 64
4, 23, Note_on_c, 6, 64, 64
4, 28, Note_on_c, 5, 61, 96
4, 400, Note_off_c, 0, 82, 64
4, 768, Note_on_c, 0, 64, 64
4, 800, Note_off_c, 2, 68, 64
4, 2398, Control_c, 9, 7, 99
4, 2880, Note_off_c, 2, 61, 64
4, 2880, Note_off_c, 2, 63, 64
4, 2880, Note_on_c, 2, 61, 70
4, 2880, Note_on_c, 2, 66, 110
4, 2880, Note_on_c, 2, 68, 64
4, 3456, Note_on_c, 0, 85, 110
4, 4032, Note_off_c, 2, 66, 64
4, 4128, Note_on_c, 4, 37, 110
4, 4624, Note_on_c, 2, 66, 64
4, 4896, Note_on_c, 2, 66, 110
4, 7488, Note_off_c, 2, 66, 64
4, 8064, Note_on_c, 2, 66, 110
4, 8064, Note_on_c, 2, 62, 64
4, 8064, Note_off_c, 2, 63, 64
4, 8064, Note_off_c, 2, 61, 64
4, 9216, Control_c, 1, 7, 69
4, 9216, Note_on_c, 2, 66, 70
4, 12896, Note_off_c, 2, 63, 64
4, 17280, Note_off_c, 2, 56, 64
4, 18032, Note_on_c, 4, 37, 110
4, 18048, Note_on_c, 2, 64, 110
4, 18240, Note_off_c, 1, 64
4, 18432, Control_c, 2, 7, 11
4, 28224, Note_on_c, 2, 56, 64
4, 28224, Note_off_c, 2, 63, 64
4, 28224, Note_on_c, 2, 56, 70
4, 28352, Control_c, 2, 7, 48
4, 28448, Note_on_c, 2, 61, 110
4, 28560, Note_off_c, 2, 61, 64
4, 28608, Note_on_c, 2, 56, 70
4, 28800, Note_off_c, 2, 56, 64
4, 28880, Note_off_c, 2, 61, 64
4, 28992, Note_off_c, 2, 61, 64
4, 29280, Note_on_c, 2, 66, 70
4, 29376, Note_on_c, 2, 61, 70
4, 29952, Note_on_c, 2, 56, 70
4, 30048, Note_on_c, 2, 66, 110
4, 30144, Note_on_c, 2, 61, 70
4, 30624, Note_on_c, 2, 56, 70
4, 30720, Note_on_c, 0, 63, 110
4, 31840, Note_off_c, 2, 57, 64
4, 33184, Note_on_c, 2, 57, 70
4, 33792, Note_on_c, 2, 57, 70
4, 33792, Control_c, 2, 7, 20
4, 33808, Note_on_c, 2, 56, 70
4, 33824, Note_off_c, 2, 56, 64
4, 34368, Note_on_c, 2, 52, 70
4, 34576, Note_on_c, 2, 57, 70
4, 35328, Note_on_c, 2, 57, 70
4, 35712, Note_on_c, 2, 56, 70
4, 35744, Note_on_c, 0, 67, 110
4, 36016, Note_on_c, 2, 56, 70
4, 36064, Note_on_c, 2, 57, 70
4, 36480, Note_on_c, 2, 56, 70
4, 36672, Note_on_c, 0, 59, 110
4, 36896, Note_on_c, 2, 59, 70
4, 36976, Note_on_c, 2, 56, 70
4, 38752, Note_on_c, 3, 7, 48
4, 39936, Note_on_c, 5, 61, 64
4, 39936, Note_off_c, 2, 59, 64
4, 39936, Note_on_c, 2, 59, 110
4, 40224, Note_on_c, 2, 58, 70
4, 40224, Note_off_c, 2, 59, 64
4, 40320, Note_off_c, 2, 63, 64
4, 40704, Note_on_c, 2, 52, 70
4, 40800, Note_off_c, 2, 63, 64
4, 41088, Note_on_c, 2, 56, 70
4, 41664, Note_on_c, 2, 58, 70
4, 41696, Note_on_c, 2, 56, 70
4, 42640, Note_on_c, 2, 59, 70
4, 44128, Note_off_c, 4, 35, 64
4, 44320, Note_off_c, 2, 52, 64
4, 45088, Control_c, 2, 7, 13
4, 45312, Note_off_c, 2, 56, 64
4, 45504, Note_on_c, 2, 57, 70
4, 46080, Note_off_c, 2, 56, 64
4, 46080, Note_on_c, 2, 58, 70
4, 46240, Note_on_c, 2, 63, 110
4, 46816, Note_on_c, 2, 57, 64
4, 47008, Note_off_c, 2, 52, 64
4, 47232, Note_on_c, 2, 57, 70
4, 47680, Note_off_c, 2, 52, 64
4, 47808, Note_off_c, 2, 56, 64
4, 48192, Note_on_c, 2, 57, 110
4, 48256, Note_on_c, 2, 57, 70
4, 48832, Note_off_c, 0, 66, 64
4, 49152, Note_on_c, 2, 59, 70
4, 49344, Note_off_c, 2, 54, 64
4, 49552, Note_on_c, 2, 52, 70
4, 50880, Note_off_c, 2, 56, 64
4, 50944, Note_on_c, 2, 63, 110
4, 80864, Note_off_c, 2, 66, 64
4, 87744, Note_off_c, 1, 61, 110
4, 90144, Note_off_c, 2, 67, 64
4, 96672, Note_on_c, 1, 68, 110
4, 113120, Note_on_c, 2, 66, 64
4, 118368, Note_on_c, 2, 56, 70
4, 119040, Note_on_c, 2, 66, 110
4, 121568, Note_on_c, 2, 61, 64
4, 124064, Note_off_c, 2, 63, 64
4, 129024, Note_on_c, 2, 56, 70
4, 130048, Note_on_c, 2, 57, 70
4, 130752, Note_on_c, 2, 46, 70
4, 131304, Note_on_c, 2, 52, 70
4, 131616, Note_on_c, 2, 56, 110
4, 135264, Note_off_c, 2, 57, 64
4, 136320, Note_on_c, 2, 52, 70
4, 136512, Note_off_c, 2, 59, 64
4, 136736, Note_on_c, 2, 51, 64
4, 137664, Note_on_c, 2, 59, 70
4, 140032, Note_on_c, 2, 64, 110
4, 140128, Note_off_c, 2, 56, 64
4, 140544, Note_on_c, 2, 59, 110
4, 142080, Note_off_c, 2, 68, 64
4, 142512, Note_on_c, 2, 54, 70
4, 143040, Note_off_c, 2, 66, 64
4, 143264, Note_on_c, 2, 57, 110
4, 143328, Note_on_c, 2, 52, 70
4, 143616, Note_off_c, 2, 56, 64
4, 143616, Note_on_c, 0, 67, 110
4, 143808, Note_on_c, 2, 54, 16
4, 144000, Note_off_c, 2, 66, 64
4, 144576, Note_on_c, 2, 56, 70
4, 144576, Note_on_c, 2, 61, 64
4, 145728, Note_on_c, 2, 66, 110
4, 149376, Note_on_c, 2, 57, 70
4, 163008, Note_on_c, 2, 56, 110
4, 163040, Note_on_c, 2, 66, 110
4, 174336, Note_off_c, 2, 64, 64
4, 180832, Note_off_c, 2, 64, 64
4, 181088, Note_off_c, 2, 61, 64
4, 182400, Note_off_c, 2, 61, 64
4, 182576, Note_on_c, 2, 63, 110
4, 183360, Note_on_c, 2, 64, 110
4, 184320, Note_off_c, 2, 61, 64
4, 188928, Note_on_c, 2, 66, 110
4, 216000, Note_off_c, 2, 59, 64
4, 218112, Note_off_c, 2, 56, 64
4, 218880, Control_c, 2, 7, 16
4, 218880, Note_on_c, 2, 66, 110
4, 219456, Note_on_c, 2, 66, 110
4, 219456, Note_on_c, 2, 66, 110
4, 219712, Note_off_c, 2, 66, 64
4, 221184, Note_off_c, 2, 61, 64
4, 221440, Control_c, 2, 7, 39
4, 224448, Control_c, 2, 7, 53
4, 230400, Control_c, 2, 7, 57
4, 231072, Control_c, 2, 7, 5
4, 231072, Control_c, 2, 7, 41
4, 231168, Control_c, 2, 7, 27
4, 231264, Control_c, 2, 7, 24
4, 231352, Control_c, 2, 7, 58
4, 231360, Note_off_c, 2, 56, 64
4, 231360, Note_on_c, 2, 52, 70
4, 231360, Control_c, 2, 7, 42
4, 231744, Note_on_c, 2, 56, 70
4, 231968, Note_on_c, 2, 57, 70
4, 232032, Control_c, 2, 7, 20
4, 232128, Control_c, 2, 7, 46
4, 232320, Control_c, 2, 7, 55
4, 232320, Control_c, 2, 7, 44
4, 232320, Note_off_c, 2, 40, 64
4, 232416, Note_on_c, 9, 44, 64
4, 232608, Note_on_c, 2, 59, 70
4, 232608, Control_c, 2, 7, 46
4, 232608, Control_c, 2, 7, 51
4, 232704, Note_on_c, 2, 56, 70
4, 232800, Control_c, 2, 7, 51
4, 232800, Note_off_c, 2, 52, 64
4, 232832, Control_c, 2, 7, 58
4, 232896, Note_off_c, 2, 56, 64
4, 232896, Control_c, 2, 7, 40
4, 232896, Note_off_c, 2, 59, 64
4, 232896, Note_on_c, 2, 58, 64
4, 232896, Note_off_c, 0, 66, 64
4, 232912, Control_c, 2, 7, 28
4, 232928, Control_c, 2, 7, 34
4, 233072, Control_c, 2, 7, 40
4, 233088, Control_c, 2, 7, 56
4, 233088, Control_c, 2, 7, 40
4, 233088, Note_off_c, 2, 57, 64
4, 233280, Note_off_c, 2, 57, 64
4, 233280, Note_off_c, 2, 59, 64
4, 233472, Note_on_c, 2, 59, 64
4, 233472, Note_off_c, 2, 57, 64
4, 233664, Control_c, 2, 7, 40
4, 233696, Note_on_c, 1, 7, 31
4, 233856, Control_c, 2, 7, 46
4, 234048, Control_c, 2, 7, 16
4, 234112, Control_c, 2, 7, 59
4, 234128, Control_c, 2, 7, 47
4, 234144, Control_c, 2, 7, 37
4, 234144, Control_c, 2, 7, 100
4, 234240, Note_off_c, 2, 52, 64
4, 234240, Control_c, 2, 7, 42
4, 234240, Note_on_c, 2, 57, 70
4, 234240, Note_off_c, 2, 56, 64
4, 234240, Note_off_c, 2, 57, 64
4, 234336, Control_c, 2, 7, 16
4, 234336, Control_c, 2, 7, 26
4, 234336, Control_c, 2, 7, 28
4, 234432, Note_on_c, 4, 47, 110
4, 234432, Control_c, 2, 7, 32
4, 234528, Control_c, 2, 7, 41
4, 234624, Control_c, 2, 7, 42
4, 234624, Control_c, 2, 7, 41
4, 234720, Control_c, 2, 51, 110
4, 234816, Note_on_c, 3, 40, 110
4, 234816, Control_c, 2, 7, 33
4, 234816, Control_c, 2, 7, 47
4, 234848, Control_c, 2, 7, 40
4, 234912, Control_c, 2, 7, 69
4, 235008, Control_c, 2, 7, 40
4, 235008, Control_c, 2, 7, 48
4, 235008, Control_c, 2, 7, 21
4, 235168, Control_c, 2, 7, 39
4, 235296, Control_c, 2, 7, 38
4, 235296, Control_c, 2, 7, 18
4, 235376, Control_c, 2, 7, 21
4, 235456, Control_c, 4, 7, 44
4, 235488, Note_on_c, 2, 56, 70
4, 235680, Control_c, 2, 7, 42
4, 235760, Control_c, 2, 110
4, 235776, Note_off_c, 2, 57, 64
4, 235968, Control_c, 2, 7, 15
4, 235968, Control_c, 2, 7, 24
4, 235968, Control_c, 2, 7, 14
4, 235968, Control_c, 2, 7, 19
4, 236048, Note_on_c, 9, 36, 110
4, 236064, Control_c, 2, 7, 41
4, 236064, Control_c, 2, 7, 51
4, 236064, Control_c, 2, 7, 3
4, 236160, Control_c, 2, 7, 40
4, 236160, Control_c, 2, 7, 53
4, 236176, Control_c, 2, 7, 34
4, 236256, Control_c, 2, 7, 57
4, 236256, Control_c, 2, 7, 49
4, 236256, Control_c, 2, 7, 28
4, 236256, Note_off_c, 2, 57, 64
4, 236256, Control_c, 2, 7, 52
4, 236352, Control_c, 2, 7, 43
4, 236544, Note_off_c, 2, 56, 64
4, 236544, Control_c, 2, 7, 100
4, 236544, Note_on_c, 2, 57, 64
4, 236640, Control_c, 2, 7, 40
4, 236736, Note_on_c, 2, 54, 70
4, 236736, Note_on_c, 2, 40, 70
4, 236736, Note_on_c, 2, 59, 70
4, 236752, Note_on_c, 2, 52, 64
4, 236848, Control_c, 2, 7, 22
4, 236928, Control_c, 2, 7, 31
4, 236928, Control_c, 2, 7, 46
4, 237024, Control_c, 2, 7, 4
4, 237408, Control_c, 2, 7, 32
4, 237504, Control_c, 2, 7, 27
4, 237600, Control_c, 2, 7, 27
4, 237792, Control_c, 2, 7, 27
4, 237792, Control_c, 2, 7, 37
4, 237888, Control_c, 2, 7, 25
4, 238048, Control_c, 2, 7, 34
4, 238048, Note_off_c, 2, 56, 64
4, 238272, Control_c, 2, 7, 30
4, 238272, Control_c, 2, 7, 45
4, 238368, Control_c, 2, 7, 27
4, 238368, Control_c, 2, 7, 18
4, 238464, Control_c, 2, 7, 31
4, 238464, Note_off_c, 2, 58, 64
4, 238848, Control_c, 2, 7, 31
4, 238848, Note_on_c, 2, 56, 70
4, 238848, Note_off_c, 2, 57, 64
4, 238848, Note_off_c, 2, 54, 64
4, 238880, Control_c, 2, 7, 38
4, 238944, Control_c, 2, 7, 22
4, 239032, Note_off_c, 2, 52, 64
4, 239136, Control_c, 2, 7, 20
4, 239520, Control_c, 2, 7, 2
4, 239840, Control_c, 2, 7, 58
4, 240192, Note_off_c, 5, 61, 64
4, 240384, Control_c, 2, 7, 14
4, 240480, Control_c, 2, 7, 34
4, 240608, Control_c, 6, 7, 6
4, 241344, Note_on_c, 2, 57, 70
4, 241344, Control_c, 2, 7, 3
4, 241632, Control_c, 2, 7, 13
4, 241920, Control_c, 2, 7, 24
4, 241920, Control_c, 2, 7, 28
4, 242400, Control_c, 2, 7, 27
5, 0, Control_c, 6, 7, 100
5, 0, Title_t, "Fanta:y 0, 73, 64
5, 15, Note_on_c, 0, 96, 110
5, 768, Note_off_c, 3, 51, 64
5, 1344, Note_on_c, 3, 37, 110
5, 1432, Note_off_c, 0, 85, 64
5, 2112, Note_on_c, 3, 37, 110
5, 2396, Note_off_c, 0, 67, 64
5, 2800, Note_off_c, 0, 55, 64
5, 2880, Note_on_c, 3, 33, 110
5, 4608, Note_off_c, 3, 37, 64
5, 4800, Note_on_c, 4, 45, 110
5, 4992, Note_off_c, 3, 35, 64
5, 5456, Note_on_c, 3, 49, 110
5, 6144, Note_on_c, 3, 38, 110
5, 6144, Note_on_c, 3, 37, 110
5, 6992, Note_off_c, 3, 38, 64
5, 7088, Note_on_c, 3, 38, 110
5, 7200, Note_off_c, 3, 44, 64
5, 8772, Note_off_c, 9, 44, 64
5, 14304, Note_off_c, 3, 46, 64
5, 15168, Note_on_c, 7, 78, 91
5, 16688, Control_c, 3, 7, 100
5, 17056, Note_off_c, 3, 49, 64
5, 17072, Note_on_c, 0, 83, 119
5, 18224, Note_off_c, 3, 381, 64
5, 19568, Note_on_c, 3, 44, 110
5, 21120, Note_off_c, 3, 37, 64
5, 21312, Note_on_c, 3, 38, 110
5, 21312, Note_on_c, 3, 37, 110
5, 21504, Note_on_c, 3, 37, 110
5, 23088, Note_off_c, 3, 39, 64
5, 23616, Note_off_c, 3, 33, 64
5, 24960, Note_off_c, 3, 38, 64
5, 26400, Note_off_c, 3, 37, 64
5, 27840, Note_on_c, 3, 38, 110
5, 30336, Note_on_c, 3, 35, 110
5, 31488, Note_on_c, 3, 37, 110
5, 31968, Note_off_c, 3, 37, 64
5, 33024, Note_on_c, 3, 39, 110
5, 33184, Note_off_c, 3, 42, 64
5, 33408, Control_c, 3, 7, 48
5, 33504, Control_c, 3, 7, 47
5, 33696, Note_on_c, 3, 33, 110
5, 33728, Note_off_c, 3, 42, 64
5, 33792, Note_off_c, 3, 40, 64
5, 33792, Note_on_c, 3, 40, 110
5, 33792, Note_off_c, 3, 42, 64
5, 33792, Note_on_c, 3, 40, 110
5, 33792, Note_off_c, 3, 39, 64
5, 33888, Note_off_c, 3, 40, 64
5, 33984, Note_off_c, 3, 42, 64
5, 34944, Note_on_c, 3, 47, 110
5, 35136, Note_off_c, 3, 35, 64
5, 35136, Note_off_c, 3, 33, 64
5, 35136, Note_off_c, 3, 33, 64
5, 35328, Note_off_c, 3, 39, 64
5, 35520, Note_off_c, 3, 40, 64
5, 35616, Note_on_c, 3, 33, 110
5, 35712, Program_c, 3, 32, 95
5, 35936, Note_on_c, 3, 42, 110
5, 36096, Note_off_c, 3, 42, 64
5, 36192, Note_off_c, 3, 35, 64
5, 36576, Note_on_c, 3, 40, 110
5, 36672, Note_off_c, 3, 39, 64
5, 36864, Note_on_c, 3, 33, 110
5, 37792, Note_on_c, 3, 42, 110
5, 38336, Note_on_c, 3, 40, 110
5, 39168, Note_off_c, 3, 33, 64
5, 39552, Note_off_c, 3, 39, 64
5, 39552, Note_on_c, 3, 42, 110
5, 39936, Note_off_c, 3, 33, 64
5, 41584, Note_off_c, 3, 39, 64
5, 42336, Note_off_c, 3, 39, 64
5, 42464, Note_off_c, 4, 40, 64
5, 42624, Note_off_c, 3, 37, 64
5, 42624, Note_off_c, 3, 35, 64
5, 43008, Note_on_c, 3, 33, 110
5, 43008, Note_off_c, 3, 35, 64
5, 43008, Note_on_c, 3, 39, 110
5, 43008, Note_off_c, 1, 59, 64
5, 43008, Note_on_c, 3, 42, 110
5, 43008, Note_on_c, 3, 33, 110
5, 43008, Note_on_c, 3, 39, 110
5, 43200, Note_off_c, 3, 33, 64
5, 43200, Control_c, 3, 7, 41
5, 43232, Note_on_c, 3, 42, 110
5, 43296, Note_off_c, 3, 49, 64
5, 43296, Note_on_c, 3, 33, 110
5, 43296, Note_off_c, 3, 42, 64
5, 43392, Note_on_c, 3, 33, 110
5, 43392, Note_on_c, 3, 39, 110
5, 43408, Note_off_c, 3, 33, 64
5, 43424, Note_off_c, 3, 40, 64
5, 43424, Note_on_c, 3, 40, 110
5, 43424, Note_off_c, 3, 44, 64
5, 43488, Note_on_c, 3, 33, 110
5, 43584, Note_on_c, 3, 47, 110
5, 43584, Note_on_c, 3, 31, 110
5, 43584, Note_on_c, 3, 37, 110
5, 43680, Note_on_c, 3, 49, 110
5, 43712, Control_c, 3, 7, 19
5, 43776, Note_off_c, 3, 44, 64
5, 43776, Note_off_c, 3, 49, 64
5, 43776, Note_on_c, 3, 42, 110
5, 43792, Note_off_c, 3, 42, 64
5, 43808, Note_off_c, 3, 41, 64
5, 43808, Note_on_c, 3, 36, 110
5, 43904, Note_on_c, 3, 49, 110
5, 43904, Note_off_c, 3, 41, 64
5, 44160, Note_on_c, 3, 44, 110
5, 44160, Note_off_c, 4, 40, 64
5, 44352, Note_off_c, 3, 33, 64
5, 44736, Note_off_c, 3, 33, 64
5, 44776, Note_off_c, 3, 42, 64
5, 44928, Note_off_c, 3, 49, 64
5, 45312, Note_off_c, 4, 35, 64
5, 45312, Note_off_c, 3, 39, 64
5, 45504, Note_on_c, 3, 39, 110
5, 45508, Note_off_c, 3, 42, 64
5, 45600, Note_on_c, 3, 36, 110
5, 45600, Note_off_c, 3, 42, 64
5, 45600, Note_on_c, 3, 47, 110
5, 45696, Note_on_c, 3, 37, 110
5, 45696, Note_on_c, 3, 42, 110
5, 45696, Note_on_c, 3, 33, 110
5, 45696, Note_on_c, 3, 42, 110
5, 45728, Note_on_c, 3, 33, 110
5, 45776, Note_off_c, 3, 39, 64
5, 45792, Note_on_c, 3, 39, 110
5, 45888, Note_on_c, 3, 39, 110
5, 45984, Note_on_c, 0, 69, 110
5, 46080, Control_c, 3, 7, 43
5, 46080, Note_on_c, 3, 33, 110
5, 46080, Note_off_c, 3, 36, 64
5, 46080, Note_on_c, 3, 35, 110
5, 46080, Control_c, 3, 7, 58
5, 46088, Note_off_c, 3, 40, 64
5, 46272, Note_off_c, 3, 39, 64
5, 46448, Note_off_c, 3, 39, 64
5, 46632, Note_off_c, 3, 33, 64
5, 46848, Note_on_c, 3, 39, 110
5, 47232, Note_on_c, 3, 42, 110
5, 47392, Note_on_c, 3, 41, 110
5, 47456, Note_off_c, 3, 42, 64
5, 47520, Note_on_c, 3, 39, 110
5, 48352, Note_off_c, 3, 33, 64
5, 48672, Note_on_c, 3, 39, 110
5, 49184, Note_off_c, 2, 56, 64
5, 49600, Note_off_c, 3, 42, 64
5, 49728, Note_on_c, 3, 47, 110
5, 49728, Note_off_c, 3, 51, 64
5, 49920, Note_on_c, 3, 39, 110
5, 49984, Note_off_c, 3, 39, 64
5, 51840, Note_off_c, 3, 47, 64
5, 52416, Note_on_c, 3, 34, 110
5, 52624, Note_off_c, 3, 45, 49
5, 53360, Note_on_c, 3, 47, 110
5, 53376, Note_off_c, 3, 40, 64
5, 53376, Note_off_c, 3, 76, 64
5, 53376, Note_on_c, 3, 47, 110
5, 53376, Note_off_c, 3, 40, 64
5, 53568, Note_on_c, 3, 48, 110
5, 53760, Note_on_c, 3, 41, 110
5, 53936, Note_on_c, 3, 51, 110
5, 53952, Note_off_c, 3, 49, 64
5, 54352, Note_on_c, 3, 40, 64
5, 54528, Note_off_c, 3, 45, 64
5, 54912, Note_on_c, 3, 45, 110
5, 55072, Note_off_c, 3, 42, 64
5, 55296, Note_on_c, 3, 45, 110
5, 55296, Note_off_c, 3, 46, 64
5, 55488, Note_off_c, 3, 45, 64
5, 55808, Note_on_c, 3, 45, 110
5, 55872, Note_off_c, 4, 47, 64
5, 57024, Note_off_c, 3, 42, 64
5, 57024, Control_c, 4, 7, 68
5, 57280, Note_off_c, 3, 45, 64
5, 57504, Note_on_c, 3, 40, 110
5, 57504, Note_on_c, 3, 45, 110
5, 57600, Note_off_c, 3, 32, 64
5, 57600, Note_on_c, 3, 42, 110
5, 57792, Note_off_c, 3, 33, 64
5, 57952, Note_on_c, 3, 43, 110
5, 57984, Note_on_c, 3, 37, 110
5, 57984, Note_off_c, 3, 40, 64
5, 57984, Note_on_c, 3, 54, 110
5, 57984, Note_off_c, 3, 33, 64
5, 57984, Note_on_c, 3, 42, 110
5, 58368, Note_off_c, 3, 44, 64
5, 58368, Note_off_c, 3, 49, 64
5, 58464, Note_on_c, 3, 42, 110
5, 58752, Note_off_c, 3, 47, 64
5, 58944, Note_on_c, 3, 45, 110
5, 58944, Note_on_c, 3, 43, 110
5, 58944, Note_off_c, 3, 42, 64
5, 58944, Note_on_c, 3, 49, 110
5, 58976, Note_off_c, 3, 49, 64
5, 59136, Note_off_c, 3, 46, 64
5, 59328, Note_off_c, 3, 40, 64
5, 59328, Note_on_c, 3, 37, 110
5, 59328, Note_off_c, 3, 36, 64
5, 59344, Note_off_c, 3, 44, 64
5, 59360, Note_on_c, 3, 49, 110
5, 59424, Note_on_c, 3, 44, 110
5, 59520, Note_off_c, 3, 40, 64
5, 59520, Note_off_c, 3, 42, 64
5, 59584, Note_on_c, 3, 40, 110
5, 59712, Note_on_c, 3, 40, 110
5, 59840, Note_off_c, 3, 45, 64
5, 60096, Note_off_c, 3, 44, 64
5, 60272, Note_on_c, 3, 40, 110
5, 60272, Note_off_c, 5, 64, 64
5, 60288, Note_off_c, 3, 47, 64
5, 60288, Note_off_c, 3, 41, 64
5, 61056, Control_c, 3, 7, 100
5, 61056, Note_on_c, 3, 42, 110
5, 61568, Note_off_c, 3, 76, 64
5, 61664, Note_off_c, 3, 48, 64
5, 62976, Note_on_c, 3, 42, 110
5, 63360, Note_off_c, 3, 33, 64
5, 63360, Control_c, 3, 7, 14
5, 63552, Note_on_c, 3, 40, 110
5, 63552, Note_off_c, 3, 47, 64
5, 63552, Note_off_c, 3, 44, 64
5, 63568, Note_off_c, 3, 45, 64
5, 64128, Note_off_c, 5, 81, 64
5, 64320, Note_off_c, 3, 44, 64
5, 64512, Note_off_c, 3, 44, 64
5, 64512, Note_off_c, 3, 44, 64
5, 64512, Control_c, 3, 7, 12
5, 65088, Note_on_c, 3, 47, 110
5, 65696, Note_on_c, 3, 42, 110
5, 65888, Note_on_c, 3, 45, 110
5, 65984, Note_off_c, 3, 85, 64
5, 66432, Note_off_c, 3, 40, 64
5, 66752, Control_c, 3, 7, 100
5, 67136, Note_on_c, 3, 42, 110
5, 67200, Note_on_c, 3, 47, 110
5, 67200, Note_on_c, 3, 39, 110
5, 67584, Note_on_c, 3, 45, 110
5, 67776, Note_off_c, 3, 47, 64
5, 67968, Note_off_c, 3, 45, 64
5, 68160, Note_off_c, 3, 37, 64
5, 68160, Note_on_c, 3, 40, 110
5, 68576, Note_on_c, 3, 44, 110
5, 68736, Note_off_c, 3, 42, 64
5, 68768, Note_off_c, 3, 47, 64
5, 69312, Note_off_c, 3, 37, 64
5, 69312, Note_on_c, 3, 37, 110
5, 69792, Note_on_c, 3, 42, 110
5, 70272, Note_off_c, 4, 37, 64
5, 70464, Note_on_c, 3, 44, 110
5, 70656, Note_on_c, 3, 34, 110
5, 71072, Note_on_c, 3, 40, 110
5, 71232, Note_off_c, 3, 42, 64
5, 71232, Note_off_c, 3, 44, 64
5, 71328, Note_on_c, 3, 45, 110
5, 71408, Note_on_c, 3, 41, 110
5, 71488, Note_on_c, 3, 41, 110
5, 71616, Note_off_c, 3, 52, 64
5, 71808, Note_off_c, 3, 40, 64
5, 71816, Note_on_c, 5, 59, 96
5, 71840, Note_on_c, 3, 45, 110
5, 73152, Note_off_c, 3, 46, 64
5, 73152, Note_on_c, 3, 49, 110
5, 73328, Note_on_c, 3, 41, 106
5, 73328, Note_on_c, 3, 45, 110
5, 73344, Note_on_c, 3, 47, 110
5, 73344, Note_on_c, 3, 47, 110
5, 73344, Note_off_c, 3, 44, 64
5, 73344, Note_on_c, 3, 47, 110
5, 73344, Note_off_c, 3, 49, 64
5, 73344, Note_on_c, 3, 43, 110
5, 73344, Note_off_c, 3, 44, 64
5, 73344, Note_on_c, 3, 45, 110
5, 73408, Note_on_c, 3, 44, 110
5, 73536, Note_on_c, 3, 47, 242
5, 73536, Note_off_c, 3, 47, 64
5, 73728, Note_off_c, 3, 46, 64
5, 73728, Note_on_c, 3, 37, 110
5, 73744, Note_on_c, 3, 44, 110
5, 73952, Note_on_c, 3, 45, 110
5, 74080, Note_off_c, 3, 37, 64
5, 74304, Note_off_c, 3, 40, 64
5, 74304, Note_off_c, 3, 45, 64
5, 74304, Note_off_c, 3, 35, 64
5, 74304, Note_on_c, 3, 30, 110
5, 74400, Note_off_c, 3, 37, 64
5, 74688, Note_off_c, 3, 44, 64
5, 74784, Note_off_c, 3, 51, 64
5, 75072, Note_on_c, 3, 45, 110
5, 75456, Control_c, 3, 7, 100
5, 75840, Note_off_c, 3, 47, 64
5, 75840, Note_on_c, 3, 43, 110
5, 75872, Note_on_c, 3, 47, 110
5, 75872, Note_on_c, 3, 41, 110
5, 75936, Note_off_c, 3, 38, 64
5, 76000, Note_on_c, 3, 47, 110
5, 76032, Note_off_c, 3, 44, 64
5, 76224, Note_on_c, 3, 42, 110
5, 76240, Note_off_c, 3, 49, 64
5, 76352, Note_off_c, 3, 34, 60
5, 76896, Note_off_c, 3, 47, 64
5, 77984, Note_on_c, 3, 44, 110
5, 78208, Control_c, 3, 91, 44
5, 78784, Note_off_c, 3, 36, 64
5, 79520, Note_off_c, 3, 40, 64
5, 79808, Note_off_c, 3, 47, 64
5, 79808, Note_off_c, 3, 44, 64
5, 79808, Note_off_c, 3, 44, 64
5, 79872, Note_on_c, 3, 42, 110
5, 79872, Note_off_c, 3, 42, 64
5, 79872, Program_c, 3, 32, 60
5, 79904, Note_on_c, 3, 43, 110
5, 80528, Note_off_c, 3, 47, 64
5, 81664, Note_off_c, 3, 49, 64
5, 81824, Note_off_c, 3, 44, 64
5, 82016, Note_on_c, 3, 42, 110
5, 82176, Note_off_c, 3, 59, 64
5, 82848, Note_on_c, 3, 47, 110
5, 82992, Note_on_c, 3, 40, 110
5, 83520, Note_on_c, 3, 47, 110
5, 83520, Note_on_c, 3, 52, 110
5, 84064, Note_on_c, 3, 40, 110
5, 84096, Note_on_c, 3, 42, 110
5, 84672, Note_off_c, 3, 44, 64
5, 84672, Note_off_c, 3, 41, 64
5, 84672, Note_on_c, 3, 42, 110
5, 84672, Note_off_c, 3, 45, 64
5, 84928, Note_off_c, 3, 41, 64
5, 85024, Note_off_c, 3, 49, 64
5, 85248, Note_on_c, 3, 45, 110
5, 85248, Note_on_c, 3, 47, 110
5, 85632, Note_off_c, 3, 49, 64
5, 86016, Note_off_c, 3, 42, 64
5, 86016, Note_on_c, 3, 49, 110
5, 87520, Note_on_c, 3, 45, 110
5, 87728, Note_on_c, 3, 52, 110
5, 90816, Note_on_c, 3, 31, 110
5, 92160, Note_off_c, 3, 38, 64
5, 92192, Note_on_c, 3, 52, 110
5, 92256, Note_on_c, 3, 40, 110
5, 92960, Note_on_c, 3, 42, 110
5, 93824, Note_on_c, 3, 47, 110
5, 94272, Note_on_c, 3, 45, 110
5, 94272, Note_off_c, 3, 49, 64
5, 95008, Note_off_c, 3, 47, 64
5, 95040, Note_off_c, 3, 37, 64
5, 95232, Note_on_c, 3, 44, 110
5, 95232, Note_off_c, 4, 40, 64
5, 95232, Note_off_c, 3, 47, 64
5, 95616, Note_off_c, 3, 42, 64
5, 95808, Note_off_c, 3, 36, 64
5, 95808, Note_off_c, 3, 49, 64
5, 95808, Note_on_c, 3, 45, 110
5, 96384, Note_on_c, 3, 44, 110
5, 96576, Note_off_c, 3, 44, 64
5, 96576, Note_off_c, 3, 40, 64
5, 96608, Note_on_c, 3, 45, 110
5, 96672, Note_off_c, 3, 40, 64
5, 96672, Note_off_c, 3, 47, 64
5, 96960, Note_off_c, 3, 45, 64
5, 97136, Note_on_c, 3, 45, 110
5, 97344, Note_off_c, 3, 42, 64
5, 97344, Note_on_c, 3, 41, 110
5, 97600, Note_on_c, 3, 47, 110
5, 97728, Note_on_c, 3, 42, 110
5, 97920, Note_on_c, 3, 49, 110
5, 98816, Note_on_c, 3, 40, 110
5, 98880, Note_on_c, 3, 47, 110
5, 98912, Note_on_c, 3, 42, 110
5, 98912, Note_off_c, 3, 47, 64
5, 98944, Note_off_c, 3, 46, 64
5, 99264, Note_on_c, 3, 40, 110
5, 99616, Note_on_c, 3, 42, 110
5, 100096, Note_on_c, 3, 44, 110
5, 100096, Note_off_c, 3, 47, 64
5, 100824, Note_on_c, 3, 40, 110
5, 113664, Note_off_c, 3, 37, 64
5, 115200, Note_on_c, 3, 37, 110
5, 117600, Note_on_c, 3, 43, 110
5, 118272, Note_off_c, 3, 37, 64
5, 119200, Note_on_c, 3, 37, 110
5, 126264, Note_off_c, 3, 37, 64
5, 129376, Note_on_c, 3, 35, 110
5, 130752, Note_on_c, 3, 35, 110
5, 132672, Note_off_c, 3, 35, 64
5, 133224, Note_off_c, 3, 35, 64
5, 133584, Note_on_c, 3, 33, 110
5, 134880, Note_on_c, 3, 44, 110
5, 134976, Note_off_c, 3, 35, 64
5, 135360, Note_on_c, 3, 33, 110
5, 135744, Note_on_c, 3, 40, 110
5, 135744, Note_off_c, 3, 39, 64
5, 135776, Note_off_c, 3, 36, 64
5, 137248, Note_off_c, 3, 37, 64
5, 137280, Note_on_c, 3, 35, 110
5, 137472, Note_on_c, 3, 33, 110
5, 137664, Note_off_c, 3, 39, 64
5, 137856, Note_on_c, 3, 39, 110
5, 139200, Note_off_c, 3, 49, 64
5, 140160, Note_on_c, 3, 37, 110
5, 140544, Note_on_c, 3, 40, 110
5, 140960, Note_off_c, 3, 49, 64
5, 140960, Note_on_c, 3, 49, 110
5, 140976, Note_on_c, 3, 52, 110
5, 141504, Note_off_c, 3, 35, 64
5, 141728, Note_on_c, 3, 33, 110
5, 142080, Note_off_c, 3, 40, 64
5, 143712, Note_on_c, 3, 42, 110
5, 143808, Note_off_c, 3, 33, 64
5, 144288, Note_on_c, 3, 35, 110
5, 144384, Note_off_c, 3, 32, 64
5, 144572, Control_c, 3, 7, 58
5, 144704, Note_on_c, 3, 36, 110
5, 146752, Note_off_c, 3, 36, 64
5, 148288, Note_on_c, 3, 42, 110
5, 148384, Note_on_c, 3, 42, 110
5, 148608, Note_off_c, 3, 35, 64
5, 149568, Note_off_c, 3, 44, 64
5, 149760, Note_on_c, 3, 40, 110
5, 150128, Note_off_c, 3, 47, 64
5, 150144, Note_off_c, 3, 44, 64
5, 150144, Note_on_c, 3, 47, 110
5, 150144, Note_on_c, 3, 45, 110
5, 150176, Note_on_c, 3, 47, 110
5, 150336, Note_on_c, 3, 42, 110
5, 150528, Note_on_c, 4, 43, 110
5, 150528, Note_off_c, 3, 44, 64
5, 150528, Note_off_c, 3, 45, 64
5, 150528, Note_off_c, 3, 44, 64
5, 151680, Note_on_c, 3, 45, 110
5, 151744, Note_on_c, 3, 49, 110
5, 152256, Note_off_c, 4, 42, 64
5, 152640, Note_on_c, 3, 33, 110
5, 153600, Note_off_c, 3, 44, 64
5, 153600, Note_on_c, 3, 46, 110
5, 153600, Note_on_c, 3, 42, 110
5, 153696, Note_on_c, 3, 45, 110
5, 153792, Note_off_c, 3, 49, 64
5, 153984, Note_on_c, 3, 49, 110
5, 154176, Note_on_c, 3, 51, 110
5, 154256, Note_off_c, 4, 47, 67
5, 154752, Note_off_c, 3, 47, 64
5, 154976, Note_off_c, 3, 7, 78
5, 155136, Note_on_c, 3, 47, 110
5, 155328, Note_on_c, 3, 44, 110
5, 155680, Note_off_c, 3, 42, 64
5, 155712, Note_off_c, 3, 42, 64
5, 155904, Note_on_c, 3, 47, 110
5, 156064, Note_on_c, 3, 47, 110
5, 156296, Note_on_c, 4, 45, 110
5, 156576, Note_off_c, 3, 51, 64
5, 156672, Note_off_c, 3, 49, 64
5, 156672, Note_off_c, 3, 42, 64
5, 156688, Note_off_c, 3, 45, 64
5, 156688, Note_off_c, 3, 45, 64
5, 156864, Note_on_c, 3, 41, 105
5, 157248, Note_on_c, 3, 44, 110
5, 157408, Note_on_c, 3, 49, 110
5, 157632, Note_off_c, 3, 33, 64
5, 158208, Note_on_c, 3, 45, 110
5, 158208, Note_on_c, 3, 45, 110
5, 158304, Note_off_c, 3, 47, 64
5, 158400, Note_on_c, 3, 45, 110
5, 158592, Note_off_c, 3, 47, 64
5, 159568, Note_on_c, 3, 47, 110
5, 159744, Note_on_c, 3, 47, 110
5, 159744, Note_on_c, 3, 33, 110
5, 159744, Note_off_c, 3, 41, 64
5, 159968, Program_c, 3, 32, 64
5, 160096, Note_off_c, 3, 45, 64
5, 160320, Note_off_c, 3, 42, 64
5, 160512, Note_on_c, 3, 40, 110
5, 160512, Note_off_c, 3, 42, 64
5, 160704, Note_off_c, 3, 44, 64
5, 160800, Note_on_c, 3, 63, 110
5, 160960, Note_on_c, 3, 35, 110
5, 161472, Note_off_c, 3, 31, 64
5, 161632, Note_off_c, 3, 37, 64
5, 162048, Note_off_c, 3, 45, 64
5, 162432, Note_off_c, 3, 37, 64
5, 162528, Note_on_c, 3, 37, 110
5, 163008, Note_on_c, 3, 36, 110
5, 163584, Note_off_c, 3, 39, 64
5, 163680, Note_on_c, 3, 42, 110
5, 163968, Note_on_c, 3, 42, 110
5, 165504, Note_off_c, 3, 38, 64
5, 165504, Note_on_c, 3, 42, 110
5, 165504, Note_on_c, 3, 44, 110
5, 165504, Note_off_c, 3, 44, 64
5, 165696, Note_off_c, 3, 32, 64
5, 165696, Note_off_c, 3, 32, 64
5, 166256, Note_off_c, 3, 36, 64
5, 166872, Note_on_c, 3, 42, 110
5, 167904, Note_off_c, 3, 47, 64
5, 168576, Note_on_c, 3, 45, 110
5, 168576, Note_off_c, 3, 42, 64
5, 168576, Note_off_c, 3, 45, 64
5, 168736, Note_off_c, 3, 44, 64
5, 168928, Note_on_c, 3, 49, 110
5, 168928, Note_off_c, 3, 44, 64
5, 169024, Control_c, 3, 7, 100
5, 169472, Note_on_c, 3, 42, 110
5, 169536, Note_on_c, 3, 47, 110
5, 170080, Note_off_c, 3, 38, 64
5, 171648, Control_c, 3, 7, 100
5, 172032, Note_on_c, 3, 36, 110
5, 172032, Note_off_c, 3, 41, 64
5, 173984, Note_off_c, 3, 47, 64
5, 174336, Note_off_c, 3, 40, 64
5, 174368, Note_off_c, 3, 42, 64
5, 175680, Note_on_c, 3, 39, 110
5, 176032, Note_on_c, 3, 39, 110
5, 176256, Note_on_c, 4, 35, 110
5, 176448, Note_off_c, 3, 52, 64
5, 176448, Note_on_c, 3, 49, 110
5, 176608, Note_off_c, 3, 47, 64
5, 176640, Note_on_c, 3, 42, 110
5, 176640, Note_on_c, 3, 42, 110
5, 176640, Note_on_c, 4, 35, 110
5, 176672, Note_off_c, 4, 37, 64
5, 176672, Note_off_c, 0, 80, 64
5, 176864, Control_c, 3, 7, 100
5, 176864, Note_off_c, 3, 44, 64
5, 176928, Note_off_c, 3, 35, 64
5, 177728, Note_off_c, 3, 37, 64
5, 177760, Note_off_c, 3, 36, 64
5, 178144, Note_on_c, 3, 45, 110
5, 178304, Note_off_c, 3, 44, 64
5, 178560, Note_off_c, 3, 37, 64
5, 178752, Note_off_c, 3, 41, 64
5, 178752, Note_on_c, 3, 42, 110
5, 179520, Note_off_c, 3, 49, 64
5, 180032, Note_off_c, 3, 52, 64
5, 180160, Note_on_c, 3, 39, 110
5, 180480, Note_off_c, 3, 41, 64
5, 180480, Note_off_c, 5, 88, 64
5, 180608, Note_off_c, 3, 49, 64
5, 180640, Note_on_c, 3, 45, 110
5, 182944, Note_off_c, 3, 49, 64
5, 183136, Note_on_c, 3, 49, 110
5, 183808, Note_on_c, 3, 49, 110
5, 183968, Note_on_c, 3, 45, 110
5, 184128, Note_off_c, 3, 45, 64
5, 184320, Program_c, 3, 35, 53 
5, 184320, Note_off_c, 3, 44, 64
5, 186048, Note_off_c, 3, 42, 64
5, 186232, Note_off_c, 3, 40, 64
5, 186624, Note_on_c, 3, 44, 110
5, 187392, Note_on_c, 3, 45, 110
5, 187568, Note_off_c, 3, 40, 64
5, 187776, Note_off_c, 3, 44, 64
5, 190048, Note_on_c, 3, 44, 110
5, 190080, Note_on_c, 3, 47, 110
5, 190464, Program_c, 3, 32, 52
5, 190464, Program_c, 3, 32, 54
5, 190528, Note_off_c, 3, 42, 64
5, 190672, Control_c, 3, 7, 100
5, 190880, Note_on_c, 3, 47, 110
5, 191008, Note_off_c, 3, 40, 64
5, 191040, Note_on_c, 3, 40, 110
5, 191136, Note_on_c, 3, 42, 110
5, 191264, Note_off_c, 3, 40, 64
5, 192160, Note_off_c, 3, 44, 64
5, 192160, Note_on_c, 3, 49, 110
5, 192576, Note_off_c, 3, 42, 64
5, 192672, Note_on_c, 3, 41, 110
5, 192864, Note_on_c, 3, 40, 110
5, 192960, Note_on_c, 3, 40, 110
5, 193120, Note_on_c, 3, 47, 110
5, 193552, Note_off_c, 3, 47, 64
5, 194560, Note_on_c, 3, 35, 110
5, 194688, Note_on_c, 3, 45, 110
5, 194880, Note_off_c, 3, 47, 64
5, 195744, Note_on_c, 3, 49, 110
5, 195872, Note_on_c, 3, 42, 110
5, 196032, Note_on_c, 3, 37, 110
5, 196608, Control_c, 3, 7, 100
5, 196608, Note_off_c, 3, 42, 64
5, 196608, Note_on_c, 3, 49, 110
5, 196640, Note_off_c, 3, 37, 64
5, 207936, Note_on_c, 3, 47, 110
5, 208704, Note_off_c, 3, 40, 64
5, 209088, Note_off_c, 3, 42, 64
5, 209664, Note_on_c, 3, 52, 110
5, 209664, Note_on_c, 3, 38, 110
5, 210048, Note_off_c, 3, 35, 64
5, 210272, Note_off_c, 3, 37, 64
5, 211200, Note_off_c, 3, 37, 64
5, 212672, Note_off_c, 3, 37, 64
5, 213152, Note_off_c, 3, 37, 64
5, 213152, Note_on_c, 3, 37, 110
5, 213472, Note_off_c, 3, 39, 64
5, 213504, Control_c, 3, 7, 84
5, 213696, Note_on_c, 3, 37, 110
5, 213856, Note_off_c, 3, 37, 64
5, 214080, Note_on_c, 3, 37, 110
5, 214272, Note_on_c, 3, 32, 110
5, 215808, Note_off_c, 3, 37, 64
5, 216384, Note_on_c, 3, 33, 110
5, 216960, Note_off_c, 3, 37, 64
5, 217920, Note_on_c, 3, 37, 110
5, 218112, Note_on_c, 3, 37, 110
5, 218272, Note_on_c, 3, 28, 110
5, 218304, Note_on_c, 3, 37, 110
5, 218624, Note_off_c, 3, 39, 64
5, 218688, Note_on_c, 3, 38, 110
5, 219248, Note_off_c, 3, 37, 64
5, 225792, Control_c, 3, 7, 64
5, 226752, Control_c, 3, 7, 76
5, 227136, Control_c, 3, 7, 71
5, 227136, Control_c, 3, 7, 94
5, 227616, Control_c, 3, 7, 14
5, 227712, Control_c, 3, 7, 75
5, 228000, Control_c, 3, 7, 80
5, 228864, Control_c, 3, 7, 63
5, 229056, Control_c, 3, 7, 72
5, 229344, Control_c, 3, 7, 71
5, 229632, Note_on_c, 3, 40, 110
5, 229648, Control_c, 3, 7, 79
5, 229728, Control_c, 3, 7, 67
5, 229728, Control_c, 3, 7, 71
5, 229920, Control_c, 3, 7, 6
5, 229920, Control_c, 3, 7, 81
5, 230016, Note_off_c, 3, 39, 64
5, 230400, Control_c, 3, 7, 53
5, 230496, Note_on_c, 3, 35, 110
5, 230592, Control_c, 3, 7, 59
5, 230811, Note_off_c, 9, 36, 64
5, 231040, Note_on_c, 3, 40, 110
5, 231072, Control_c, 3, 7, 42
5, 231072, Control_c, 3, 7, 58
5, 231168, Control_c, 3, 7, 13
5, 231168, Control_c, 3, 7, 60
5, 231264, Control_c, 3, 7, 68
5, 231264, Control_c, 3, 7, 4
5, 231264, Control_c, 3, 7, 40
5, 231376, Note_on_c, 9, 55, 64
5, 231456, Control_c, 3, 7, 65
5, 231552, Note_on_c, 3, 39, 110
5, 231552, Note_off_c, 5, 61, 64
5, 231552, Control_c, 3, 7, 50
5, 231552, Note_off_c, 3, 35, 64
5, 231552, Note_on_c, 3, 33, 110
5, 231552, Note_on_c, 3, 36, 64
5, 231648, Control_c, 3, 7, 52
5, 231744, Note_on_c, 3, 40, 110
5, 231744, Control_c, 3, 7, 56
5, 232032, Control_c, 3, 7, 54
5, 232128, Control_c, 3, 7, 54
5, 232128, Control_c, 3, 7, 55
5, 232224, Control_c, 3, 7, 55
5, 232320, Control_c, 3, 7, 5
5, 232320, Note_on_c, 3, 39, 110
5, 232352, Control_c, 3, 7, 53
5, 232416, Control_c, 3, 7, 42
5, 232512, Control_c, 3, 7, 66
5, 232512, Note_on_c, 3, 39, 110
5, 232512, Control_c, 3, 7, 57
5, 232608, Control_c, 3, 7, 54
5, 232704, Control_c, 3, 7, 47
5, 232800, Note_off_c, 3, 33, 64
5, 232800, Control_c, 3, 7, 53
5, 232832, Control_c, 3, 7, 44
5, 232896, Note_on_c, 3, 33, 110
5, 232896, Note_off_c, 3, 35, 64
5, 232928, Control_c, 3, 7, 45
5, 232992, Control_c, 3, 7, 51
5, 232992, Control_c, 3, 7, 4
5, 233088, Note_off_c, 10, 80, 64
5, 233088, Control_c, 3, 7, 43
5, 233088, Control_c, 3, 7, 32
5, 233088, Note_off_c, 3, 35, 64
5, 233088, Control_c, 3, 7, 58
5, 233184, Control_c, 3, 7, 50
5, 233280, Control_c, 3, 7, 50
5, 233488, Control_c, 3, 7, 76
5, 233664, Control_c, 3, 7, 52
5, 233664, Control_c, 3, 7, 34
5, 233856, Control_c, 3, 7, 42
5, 233856, Control_c, 3, 7, 58
5, 233888, Control_c, 3, 7, 54
5, 234016, Control_c, 3, 7, 38
5, 234016, Control_c, 3, 7, 53
5, 234016, Control_c, 3, 7, 43
5, 234048, Control_c, 3, 7, 50
5, 234048, Control_c, 3, 7, 61
5, 234048, Control_c, 3, 7, 54
5, 234048, Note_off_c, 3, 36, 64
5, 234048, Control_c, 3, 7, 42
5, 234048, Control_c, 3, 7, 49
5, 234048, Control_c, 3, 7, 42
5, 234048, Note_off_c, 3, 33, 64
5, 234048, Control_c, 3, 7, 45
5, 234048, Note_off_c, 3, 40, 64
5, 234048, Control_c, 3, 7, 47
5, 234048, Control_c, 3, 7, 40
5, 234048, Control_c, 3, 7, 40
5, 234048, Note_on_c, 3, 304, 64
5, 234048, Note_off_c, 3, 35, 64
5, 234064, Control_c, 3, 7, 25
5, 234240, Note_on_c, 7, 81, 107
5, 234336, Control_c, 3, 7, 47
5, 234336, Control_c, 3, 7, 40
5, 234336, Control_c, 3, 7, 47
5, 234336, Control_c, 3, 7, 48
5, 234432, Control_c, 3, 7, 53
5, 234432, Control_c, 3, 7, 40
5, 234432, Note_on_c, 3, 37, 110
5, 234432, Control_c, 3, 7, 48
5, 234432, Control_c, 3, 7, 40
5, 234448, Control_c, 3, 7, 42
5, 234528, Control_c, 3, 39, 96
5, 234528, Control_c, 3, 7, 40
5, 234720, Control_c, 3, 7, 40
5, 234720, Control_c, 3, 7, 51
5, 234816, Note_off_c, 3, 33, 64
5, 234816, Control_c, 3, 7, 41
5, 234816, Control_c, 3, 7, 42
5, 234816, Control_c, 3, 7, 30
5, 234816, Control_c, 3, 7, 44
5, 234816, Control_c, 3, 7, 37
5, 234816, Control_c, 3, 7, 34
5, 234848, Control_c, 3, 7, 47
5, 234848, Control_c, 3, 7, 40
5, 234848, Control_c, 3, 7, 43
5, 234848, Control_c, 3, 7, 41
5, 234848, Control_c, 3, 7, 58
5, 234912, Control_c, 3, 7, 66
5, 234912, Control_c, 3, 7, 44
5, 234912, Control_c, 3, 7, 24
5, 235008, Control_c, 3, 7, 41
5, 235104, Control_c, 3, 7, 44
5, 235104, Control_c, 3, 7, 44
5, 235104, Control_c, 3, 7, 46
5, 235290, Control_c, 9, 7, 12
5, 235296, Control_c, 3, 7, 38
5, 235296, Control_c, 3, 7, 28
5, 235296, Control_c, 3, 7, 42
5, 235392, Note_on_c, 3, 39, 110
5, 235680, Control_c, 3, 7, 42
5, 235776, Control_c, 3, 7, 23
5, 235792, Control_c, 3, 7, 40
5, 235792, Control_c, 3, 7, 33
5, 235840, Control_c, 3, 7, 41
5, 235872, Control_c, 3, 7, 47
5, 235968, Control_c, 3, 7, 66
5, 236032, Control_c, 3, 7, 40
5, 236032, Control_c, 3, 7, 24
5, 236064, Control_c, 3, 7, 36
5, 236064, Control_c, 4, 7, 40
5, 236064, Control_c, 3, 7, 61
5, 236064, Control_c, 3, 7, 48
5, 236064, Note_on_c, 1, 76, 110
5, 236064, Control_c, 3, 7, 54
5, 236160, Control_c, 3, 7, 42
5, 236160, Control_c, 3, 7, 42
5, 236160, Control_c, 3, 7, 22
5, 236160, Control_c, 3, 7, 35
5, 236160, Control_c, 3, 7, 42
5, 236256, Control_c, 4, 7, 28
5, 236352, Control_c, 3, 7, 33
5, 236352, Control_c, 3, 7, 43
5, 236352, Control_c, 3, 7, 43
5, 236352, Control_c, 3, 7, 39
5, 236544, Control_c, 3, 7, 56
5, 236544, Control_c, 3, 7, 4
5, 236544, Control_c, 3, 7, 27
5, 236640, Control_c, 3, 7, 47
5, 236640, Control_c, 3, 7, 31
5, 236736, Control_c, 3, 7, 43
5, 236736, Note_off_c, 3, 33, 64
5, 236736, Note_off_c, 4, 40, 64
5, 236752, Control_c, 3, 7, 48
5, 236768, Control_c, 3, 7, 21
5, 236832, Control_c, 3, 7, 48
5, 236832, Control_c, 3, 7, 46
5, 236928, Control_c, 3, 7, 27
5, 236928, Control_c, 4, 7, 33
5, 236960, Control_c, 3, 7, 42
5, 236960, Control_c, 3, 7, 43
5, 237088, Control_c, 4, 7, 14
5, 237408, Control_c, 3, 7, 40
5, 237696, Control_c, 3, 7, 54
5, 237696, Control_c, 3, 7, 17
5, 237792, Control_c, 3, 7, 36
5, 237824, Control_c, 3, 7, 41
5, 237888, Control_c, 3, 7, 24
5, 237888, Control_c, 3, 7, 29
5, 237888, Control_c, 3, 7, 27
5, 237920, Control_c, 3, 7, 24
5, 237984, Control_c, 3, 7, 48
5, 237984, Control_c, 3, 7, 29
5, 238048, Note_on_c, 3, 44, 110
5, 238048, Control_c, 3, 7, 32
5, 238176, Control_c, 3, 7, 21
5, 238176, Control_c, 3, 7, 51
5, 238176, Control_c, 3, 7, 22
5, 238272, Control_c, 3, 7, 27
5, 238272, Control_c, 3, 7, 27
5, 238464, Control_c, 3, 7, 38
5, 238464, Note_off_c, 3, 39, 64
5, 238464, Control_c, 4, 7, 14
5, 238464, Note_off_c, 3, 33, 64
5, 238464, Control_c, 3, 7, 31
5, 238560, Control_c, 3, 7, 22
5, 238560, Control_c, 3, 7, 28
5, 238848, Note_on_c, 8, 68, 86
5, 238848, Control_c, 3, 7, 48
5, 238848, Note_on_c, 3, 44, 110
5, 238944, Control_c, 3, 7, 28
5, 238976, Control_c, 4, 7, 25
5, 239008, Note_off_c, 3, 44, 64
5, 239008, Note_off_c, 3, 42, 64
5, 239040, Control_c, 3, 7, 11
5, 239040, Note_off_c, 3, 49, 64
5, 239136, Control_c, 3, 7, 28
5, 239232, Note_on_c, 3, 36, 110
5, 239232, Note_on_c, 3, 33, 110
5, 239328, Control_c, 3, 7, 46
5, 239360, Control_c, 3, 7, 30
5, 239520, Control_c, 3, 7, 18
5, 239648, Control_c, 3, 7, 18
5, 239808, Control_c, 3, 7, 11
5, 239808, Note_off_c, 3, 42, 64
5, 240000, Control_c, 3, 7, 34
5, 240160, Control_c, 3, 7, 14
5, 240160, Control_c, 3, 7, 10
5, 240192, Control_c, 3, 7, 13
5, 240288, Control_c, 3, 7, 12
5, 240384, Note_off_c, 3, 35, 64
5, 240384, Control_c, 3, 7, 14
5, 240384, Control_c, 3, 7, 18
5, 240480, Control_c, 3, 7, 14
5, 240480, Control_c, 3, 7, 63
5, 240672, Control_c, 3, 7, 21
5, 240768, Control_c, 3, 7, 2
5, 240768, Control_c, 3, 7, 17
5, 240768, Control_c, 3, 7, 16
5, 240768, Note_on_c, 3, 44, 110
5, 240896, Control_c, 3, 7, 12
5, 241024, Control_c, 3, 7, 1
5, 241056, Control_c, 3, 7, 3
5, 241248, Control_c, 3, 7, 64
5, 241536, Control_c, 3, 7, 4
5, 241568, Control_c, 3, 7, 16
5, 241920, Note_on_c, 3, 33, 110
5, 241920, Note_off_c, 3, 35, 64
5, 242112, Control_c, 3, 7, 57
5, 242208, Control_c, 3, 7, 23
5, 242304, Control_c, 3, 7, 14
5, 242496, Control_c, 3, 7, 44
5, 242656, Control_c, 3, 7, 10
5, 234647, Note_off_c, 0, 88, 64
5, 241827, Control_c, 3, 7, 34
5, 250723, Note_off_c, 5, 78, 64
5, 234042, Note_off_c, 1, 68, 64
5, 230272, Control_c, 3, 7, 33
5, 231552, Control_c, 3, 7, 42
5, 231552, Note_on_c, 3, 39, 110
5, 231856, Control_c, 3, 7, 62
5, 232000, Control_c, 3, 7, 47
5, 232032, Note_on_c, 3, 33, 110
5, 232320, Control_c, 3, 7, 30
5, 232704, Control_c, 3, 7, 58
5, 232800, Control_c, 3, 7, 54
5, 232832, Control_c, 3, 7, 54
5, 232896, Note_off_c, 3, 37, 64
5, 232928, Control_c, 3, 7, 56
5, 232928, Note_on_c, 3, 36, 110
5, 233088, Control_c, 3, 7, 40
5, 233088, Control_c, 3, 7, 15
5, 233184, Control_c, 3, 7, 57
5, 233472, Control_c, 3, 7, 37
5, 233888, Control_c, 3, 7, 55
5, 233888, Control_c, 3, 7, 47
5, 234048, Control_c, 3, 7, 35
5, 234048, Note_off_c, 3, 35, 64
5, 234048, Control_c, 3, 7, 48
5, 234048, Control_c, 3, 7, 49
5, 234048, Note_off_c, 3, 33, 64
5, 234112, Control_c, 3, 7, 38
5, 234336, Control_c, 3, 7, 48
5, 234432, Control_c, 3, 7, 36
5, 234528, Control_c, 3, 7, 50
5, 234928, Control_c, 3, 7, 48
5, 234944, Control_c, 3, 7, 44
5, 235008, Control_c, 3, 7, 43
5, 235104, Control_c, 3, 7, 42
5, 235168, Control_c, 3, 7, 21
5, 235360, Control_c, 3, 7, 31
5, 235360, Control_c, 3, 7, 58
5, 235584, Control_c, 3, 7, 23
5, 235760, Control_c, 3, 7, 56
5, 235808, Control_c, 3, 7, 40
5, 236064, Control_c, 3, 7, 46
5, 236064, Control_c, 9, 110
5, 236064, Control_c, 4, 7, 46
5, 236160, Control_c, 3, 7, 36
5, 236544, Control_c, 3, 7, 29
5, 236544, Control_c, 3, 7, 30
5, 236544, Control_c, 3, 7, 42
5, 236736, Note_off_c, 3, 33, 64
5, 236832, Control_c, 0
5, 236960, Control_c, 3, 7, 46
5, 237120, Control_c, 4, 7, 17
5, 237600, Control_c, 3, 7, 35
5, 237696, Control_c, 3, 7, 45
5, 237888, Control_c, 3, 7, 21
5, 238272, Control_c, 3, 7, 42
5, 238272, Control_c, 3, 7, 22
5, 238272, Control_c, 3, 7, 27
5, 238464, Control_c, 3, 7, 36
5, 238656, Control_c, 3, 7, 21
5, 238688, Note_off_c, 3, 40, 64
5, 238848, Note_off_c, 3, 36, 64
5, 239328, Control_c, 3, 7, 48
5, 239520, Control_c, 4, 7, 42
5, 239904, Control_c, 3, 7, 17
5, 240192, Control_c, 3, 7, 17
5, 240288, Control_c, 3, 7, 18
5, 240288, Control_c, 3, 7, 14
5, 240384, Control_c, 3, 7, 4
5, 240672, Control_c, 3, 7, 50
5, 240704, Control_c, 3, 7, 11
5, 241224, Control_c, 3, 7, 79
5, 242304, Control_c, 3, 7, 20
5, 168384, Control_c, 3, 7, 60
5, 36672, Note_off_c, 3, 33, 64
5, 36768, Note_on_c, 3, 33, 110
5, 43776, Note_on_c, 3, 39, 1100
5, 51168, Note_off_c, 3, 39, 64
5, 52320, Note_off_c, 3, 33, 64
5, 53952, Note_on_c, 3, 47, 110
5, 56256, Note_on_c, 3, 36, 110
5, 57008, Note_off_c, 3, 45, 64
5, 58560, Note_off_c, 3, 42, 64
5, 58976, Note_on_c, 36, 64
5, 61056, Note_off_c, 3, 45, 64
5, 64416, Note_on_c, 3, 39, 110
5, 68768, Note_on_c, 3, 47, 110
5, 95424, Note_on_c, 3, 47, 110
5, 97632, Note_off_c, 3, 42, 64
5, 99328, Note_off_c, 3, 37, 64
5, 158784, Note_on_c, 3, 37, 110
5, 162432, Note_off_c, 3, 37, 64
5, 171648, Note_on_c, 3, 44, 110
5, 195648, Note_on_c, 3, 46, 110
5, 196912, Note_off_c, 3, 49, 64
5, 233216, Control_c, 3, 7, 31
5, 234816, Control_c, 3, 7, 31
5, 235072, Control_c, 3, 7, 41
5, 235776, Note_on_c, 3, 39, 110
5, 236448, Control_c, 3, 7, 31
5, 236952, Control_c, 3, 7, 28
5, 237216, Control_c, 3, 7, 17
5, 237216, Control_c, 3, 7, 35
5, 238272, Control_c, 3, 7, 39
5, 238688, Control_c, 3, 7, 40
5, 239232, Control_c, 3, 7, 21
5, 239936, Control_c, 3, 7, 16
5, 234624, Note_off_c, 8, 73, 64
5, 231264, Control_c, 3, 7, 48
5, 231552, Control_c, 3, 7, 66
5, 235776, Note_off_c, 3, 35, 64
5, 242304, Control_c, 3, 7, 14
5, 242752, Note_off_c, 3, 39, 64
5, 242816, Control_c, 3, 7, 3
5, 239511, Note_on_c, 9, 44, 110
5, 247843, Note_off_c, 8, 78, 64
5, 149667, Note_on_c, 8, 82, 86
6, 14, Note_on_c, 0, 88, 110
6, 20, Note_on_c, 9, 36, 110
6, 240, Note_off_c, 5, 61, 64
6, 456, Note_off_c, 0, 80, 64
6, 576, Note_on_c, 4, 37, 110
6, 2112, Note_on_c, 4, 37, 110
6, 5184, Note_off_c, 4, 37, 64
6, 5952, Note_off_c, 0, 80, 64
6, 6896, Note_on_c, 5, 76, 96
6, 8864, Note_on_c, 4, 47, 110
6, 18032, Note_off_c, 4, 37, 64
6, 18432, Note_on_c, 4, 37, 110
6, 22464, Control_c, 4, 7, 75
6, 22616, Note_on_c, 4, 35, 110
6, 22944, Control_c, 4, 7, 7
6, 23040, Program_c, 4, 37, 64
6, 24192, Note_off_c, 4, 37, 64
6, 24384, Control_c, 4, 7, 65
6, 25532, Note_off_c, 4, 38, 64
6, 28584, Note_on_c, 4, 37, 110
6, 29888, Note_off_c, 4, 28, 64
6, 31296, Note_on_c, 4, 39, 110
6, 32640, Note_off_c, 4, 31, 64
6, 33984, Note_on_c, 4, 47, 110
6, 34304, Note_on_c, 4, 37, 110
6, 34912, Note_off_c, 4, 33, 64
6, 36064, Note_off_c, 4, 33, 64
6, 41280, Note_off_c, 4, 36, 64
6, 42432, Note_on_c, 4, 35, 110
6, 42624, Note_on_c, 4, 39, 110
6, 43232, Note_off_c, 4, 39, 64
6, 44048, Note_off_c, 4, 47, 64
6, 44768, Note_off_c, 4, 39, 64
6, 45120, Note_on_c, 4, 40, 110
6, 45312, Note_on_c, 4, 47, 110
6, 45824, Note_on_c, 4, 44, 110
6, 46080, Note_off_c, 4, 36, 64
6, 46256, Note_off_c, 4, 36, 64
6, 46256, Note_on_c, 4, 36, 110
6, 46432, Note_on_c, 4, 51, 110
6, 47156, Note_on_c, 4, 37, 110
6, 47600, Note_on_c, 4, 42, 110
6, 48192, Note_on_c, 4, 37, 110
6, 48704, Note_on_c, 4, 42, 110
6, 48800, Note_on_c, 4, 42, 110
6, 49120, Note_on_c, 4, 40, 110
6, 49760, Note_on_c, 4, 42, 110
6, 50336, Note_on_c, 4, 37, 110
6, 50816, Note_off_c, 4, 32, 64
6, 51552, Note_on_c, 4, 37, 110
6, 51840, Note_on_c, 4, 37, 110
6, 52224, Note_on_c, 4, 42, 110
6, 52224, Note_off_c, 4, 47, 64
6, 52384, Note_off_c, 4, 37, 64
6, 52416, Note_on_c, 4, 37, 110
6, 52800, Note_on_c, 4, 44, 110
6, 52800, Note_off_c, 4, 31, 64
6, 53088, Note_off_c, 4, 47, 64
6, 53376, Note_off_c, 4, 45, 64
6, 53376, Note_on_c, 4, 49, 110
6, 53376, Note_on_c, 4, 49, 110
6, 53376, Note_off_c, 4, 47, 64
6, 53568, Note_off_c, 4, 45, 64
6, 53568, Note_on_c, 4, 42, 110
6, 53744, Note_on_c, 4, 47, 110
6, 53760, Note_on_c, 4, 45, 110
6, 53760, Note_off_c, 4, 45, 64
6, 53760, Note_on_c, 4, 47, 110
6, 53824, Note_on_c, 4, 42, 110
6, 53856, Note_off_c, 4, 47, 64
6, 53952, Note_on_c, 4, 47, 110
6, 53952, Note_on_c, 4, 47, 110
6, 53956, Note_off_c, 4, 47, 64
6, 53984, Note_off_c, 4, 44, 64
6, 54144, Note_off_c, 4, 42, 64
6, 54144, Note_off_c, 4, 40, 64
6, 54320, Note_on_c, 4, 49, 110
6, 54336, Note_on_c, 4, 42, 110
6, 54528, Note_off_c, 4, 45, 64
6, 54912, Note_off_c, 4, 36, 64
6, 55072, Note_off_c, 4, 44, 64
6, 55072, Note_on_c, 4, 47, 110
6, 55104, Note_on_c, 4, 36, 64
6, 55120, Note_on_c, 4, 53, 110
6, 55264, Note_on_c, 4, 42, 110
6, 55296, Note_on_c, 4, 42, 110
6, 55296, Note_off_c, 4, 42, 64
6, 55392, Note_off_c, 4, 45, 64
6, 55488, Note_off_c, 4, 45, 64
6, 55680, Note_on_c, 4, 47, 110
6, 55872, Note_on_c, 4, 40, 110
6, 56256, Note_on_c, 4, 33, 110
6, 56256, Note_off_c, 4, 42, 64
6, 56448, Note_off_c, 4, 36, 64
6, 57216, Note_on_c, 4, 45, 110
6, 57216, Note_off_c, 4, 35, 64
6, 57216, Note_on_c, 4, 49, 110
6, 57216, Note_on_c, 4, 49, 110
6, 57216, Note_on_c, 4, 44, 64
6, 57376, Note_off_c, 4, 45, 64
6, 57696, Note_on_c, 4, 36, 110
6, 57696, Note_off_c, 4, 71, 64
6, 57984, Note_on_c, 4, 39, 110
6, 57984, Note_on_c, 4, 39, 110
6, 58144, Note_off_c, 4, 47, 64
6, 58368, Note_off_c, 4, 44, 64
6, 58368, Note_off_c, 4, 45, 64
6, 58368, Note_off_c, 4, 47, 64
6, 58368, Note_on_c, 4, 42, 110
6, 58368, Note_on_c, 4, 47, 110
6, 58368, Note_off_c, 4, 41, 64
6, 58368, Note_on_c, 4, 49, 110
6, 58368, Note_off_c, 4, 45, 64
6, 58368, Note_off_c, 4, 45, 64
6, 58944, Note_off_c, 9, 36, 64
6, 58944, Note_on_c, 4, 47, 110
6, 58944, Note_on_c, 4, 47, 110
6, 58944, Note_on_c, 4, 45, 110
6, 58976, Note_off_c, 4, 49, 64
6, 58976, Note_off_c, 4, 45, 64
6, 58976, Note_on_c, 4, 47, 110
6, 59136, Note_on_c, 4, 45, 110
6, 59312, Note_on_c, 4, 46, 110
6, 59328, Note_off_c, 4, 47, 64
6, 59328, Note_off_c, 4, 47, 64
6, 59424, Note_off_c, 4, 45, 64
6, 59520, Note_off_c, 4, 47, 64
6, 59520, Note_off_c, 4, 45, 64
6, 59520, Note_on_c, 4, 42, 110
6, 60288, Note_on_c, 4, 37, 110
6, 60768, Note_off_c, 4, 45, 64
6, 61056, Note_off_c, 4, 41, 64
6, 65088, Note_on_c, 4, 37, 110
6, 65632, Note_off_c, 4, 47, 64
6, 66432, Note_off_c, 4, 35, 64
6, 67584, Note_on_c, 4, 44, 110
6, 67584, Note_off_c, 4, 36, 64
6, 68768, Note_off_c, 4, 39, 64
6, 70272, Note_on_c, 4, 47, 110
6, 70272, Note_off_c, 4, 35, 64
6, 71728, Note_off_c, 4, 37, 64
6, 72192, Note_on_c, 4, 52, 110
6, 73312, Note_on_c, 4, 49, 110
6, 73920, Note_off_c, 2, 75, 110
6, 74304, Note_on_c, 0, 64, 91
6, 74304, Note_on_c, 4, 34, 110
6, 74528, Note_on_c, 4, 47, 110
6, 75424, Note_off_c, 4, 38, 64
6, 75648, Note_off_c, 4, 44, 64
6, 75648, Note_on_c, 4, 42, 110
6, 75648, Note_off_c, 4, 44, 64
6, 76032, Note_on_c, 4, 37, 110
6, 76608, Note_on_c, 4, 49, 110
6, 77984, Note_on_c, 4, 40, 110
6, 79296, Note_off_c, 4, 31, 64
6, 79888, Note_on_c, 4, 47, 110
6, 79936, Note_on_c, 4, 45, 110
6, 80096, Note_on_c, 4, 48, 110
6, 80240, Note_off_c, 4, 41, 64
6, 80640, Note_off_c, 4, 44, 64
6, 81024, Note_off_c, 4, 75, 64
6, 82560, Note_on_c, 4, 42, 110
6, 82944, Note_off_c, 4, 49, 64
6, 82976, Note_on_c, 4, 51, 110
6, 84096, Note_off_c, 4, 45, 64
6, 84480, Note_off_c, 4, 42, 64
6, 84480, Note_on_c, 4, 49, 110
6, 86016, Note_off_c, 4, 44, 64
6, 86512, Note_off_c, 4, 45, 64
6, 87520, Note_on_c, 4, 45, 110
6, 88320, Note_off_c, 4, 47, 64
6, 88320, Note_on_c, 4, 37, 110
6, 88424, Note_off_c, 4, 42, 64
6, 88704, Note_on_c, 4, 37, 110
6, 89088, Note_off_c, 4, 37, 64
6, 90240, Note_off_c, 4, 47, 64
6, 92768, Note_off_c, 4, 45, 64
6, 92960, Note_on_c, 4, 49, 110
6, 93386, Note_off_c, 4, 42, 64
6, 93664, Note_off_c, 4, 45, 64
6, 94048, Note_on_c, 4, 47, 110
6, 94848, Note_on_c, 3, 44, 110
6, 95232, Note_on_c, 4, 45, 110
6, 95232, Note_on_c, 4, 47, 110
6, 95584, Note_off_c, 4, 42, 64
6, 95616, Note_off_c, 4, 45, 64
6, 95808, Note_on_c, 4, 51, 110
6, 96960, Note_on_c, 4, 42, 110
6, 97328, Note_off_c, 4, 48, 64
6, 97440, Note_on_c, 4, 47, 110
6, 97536, Note_off_c, 4, 47, 64
6, 97696, Note_off_c, 4, 47, 64
6, 97920, Note_on_c, 4, 45, 110
6, 98112, Note_on_c, 4, 47, 110
6, 98208, Note_on_c, 4, 45, 110
6, 98304, Note_off_c, 4, 47, 64
6, 98304, Note_on_c, 4, 51, 110
6, 98592, Note_on_c, 4, 47, 110
6, 98688, Note_on_c, 4, 45, 110
6, 98880, Note_off_c, 3, 44, 64
6, 99360, Note_on_c, 5, 78, 110
6, 99456, Note_on_c, 4, 37, 110
6, 99648, Note_on_c, 4, 49, 110
6, 99656, Note_off_c, 4, 45, 64
6, 99680, Note_on_c, 4, 45, 110
6, 113664, Note_on_c, 4, 37, 110
6, 114816, Note_on_c, 4, 37, 110
6, 118464, Note_off_c, 4, 37, 64
6, 125664, Note_on_c, 4, 33, 110
6, 125952, Note_off_c, 4, 37, 64
6, 130048, Note_off_c, 4, 39, 64
6, 130048, Note_on_c, 4, 35, 110
6, 130288, Note_off_c, 4, 33, 64
6, 131328, Note_off_c, 4, 35, 64
6, 131520, Note_off_c, 4, 33, 64
6, 131904, Note_on_c, 4, 35, 110
6, 131936, Note_off_c, 4, 33, 64
6, 132672, Note_on_c, 9, 46, 96
6, 132864, Note_off_c, 4, 44, 64
6, 134976, Note_on_c, 4, 42, 110
6, 135360, Note_on_c, 4, 35, 110
6, 136328, Note_on_c, 4, 39, 110
6, 136512, Note_on_c, 4, 39, 110
6, 137088, Note_off_c, 4, 37, 64
6, 138048, Note_off_c, 4, 37, 64
6, 140160, Note_on_c, 4, 42, 110
6, 140544, Note_off_c, 4, 49, 64
6, 140736, Note_off_c, 4, 42, 64
6, 140832, Note_off_c, 4, 42, 64
6, 143520, Note_off_c, 4, 49, 64
6, 143580, Note_on_c, 4, 44, 110
6, 143616, Note_on_c, 0, 64, 110
6, 143808, Note_off_c, 4, 44, 64
6, 143808, Note_on_c, 4, 42, 110
6, 143936, Note_off_c, 0, 75, 64
6, 144384, Note_off_c, 4, 39, 64
6, 144384, Note_on_c, 5, 59, 64
6, 145120, Note_on_c, 4, 42, 110
6, 145760, Note_off_c, 4, 42, 64
6, 145856, Note_on_c, 4, 42, 110
6, 147664, Note_off_c, 4, 39, 64
6, 147872, Note_on_c, 4, 39, 110
6, 148224, Note_off_c, 4, 49, 64
6, 150112, Note_on_c, 4, 39, 110
6, 150144, Note_off_c, 4, 42, 64
6, 151392, Note_off_c, 4, 40, 64
6, 151680, Control_c, 4, 7, 14
6, 152032, Note_on_c, 4, 47, 110
6, 154176, Note_on_c, 4, 41, 110
6, 154752, Note_on_c, 4, 47, 110
6, 154944, Note_off_c, 4, 42, 64
6, 156288, Note_off_c, 7, 73, 64
6, 156872, Note_on_c, 4, 47, 110
6, 157920, Note_on_c, 4, 52, 110
6, 158592, Note_off_c, 4, 47, 64
6, 158976, Note_off_c, 4, 47, 64
6, 159360, Note_off_c, 4, 39, 64
6, 159616, Note_on_c, 4, 33, 110
6, 161664, Note_on_c, 4, 40, 110
6, 162432, Note_off_c, 4, 44, 64
6, 163008, Note_off_c, 4, 40, 64
6, 163584, Note_on_c, 4, 34, 110
6, 164544, Note_off_c, 4, 40, 64
6, 165568, Note_off_c, 4, 38, 64
6, 167520, Note_off_c, 4, 47, 64
6, 167520, Note_off_c, 4, 37, 64
6, 168000, Note_off_c, 4, 47, 64
6, 168576, Note_on_c, 4, 42, 110
6, 170720, Note_on_c, 4, 40, 110
6, 171360, Note_off_c, 4, 37, 64
6, 172032, Note_on_c, 4, 51, 110
6, 172928, Note_off_c, 4, 44, 64
6, 174720, Note_off_c, 4, 45, 64
6, 175104, Note_on_c, 4, 49, 110
6, 175104, Note_on_c, 4, 45, 110
6, 175680, Note_off_c, 4, 47, 64
6, 176640, Control_c, 4, 7, 86
6, 176640, Note_on_c, 4, 376, 110
6, 176896, Note_on_c, 4, 41, 110
6, 178464, Note_off_c, 4, 34, 64
6, 178536, Note_off_c, 4, 67, 64
6, 179360, Note_off_c, 4, 36, 64
6, 180128, Note_off_c, 4, 42, 64
6, 181248, Note_off_c, 4, 44, 64
6, 181248, Note_off_c, 4, 35, 64
6, 183136, Note_off_c, 4, 44, 64
6, 184320, Note_off_c, 4, 42, 64
6, 184480, Note_on_c, 48, 64
6, 185664, Note_on_c, 4, 44, 110
6, 186048, Note_on_c, 4, 42, 110
6, 186624, Note_off_c, 4, 47, 64
6, 186912, Note_on_c, 4, 49, 110
6, 187776, Note_off_c, 4, 27, 64
6, 191008, Note_on_c, 4, 47, 110
6, 192480, Note_off_c, 4, 40, 64
6, 192608, Note_on_c, 4, 42, 110
6, 193152, Note_on_c, 4, 47, 110
6, 193536, Note_on_c, 4, 37, 110
6, 193616, Note_off_c, 4, 45, 64
6, 193920, Note_off_c, 4, 45, 64
6, 194592, Note_on_c, 4, 45, 110
6, 194608, Control_c, 3, 7, 11
6, 194688, Note_off_c, 4, 47, 64
6, 195264, Note_off_c, 4, 47, 64
6, 195568, Control_c, 4, 7, 50
6, 195680, Note_off_c, 4, 40, 64
6, 195840, Note_on_c, 4, 49, 110
6, 195872, Note_on_c, 5, 61, 64
6, 196032, Note_on_c, 4, 40, 110
6, 196608, Note_on_c, 4, 44, 64
6, 196736, Note_off_c, 4, 47, 64
6, 196800, Note_off_c, 4, 47, 64
6, 198688, Note_on_c, 4, 45, 110
6, 199840, Note_on_c, 3, 43, 110
6, 211904, Note_on_c, 4, 37, 110
6, 214272, Note_on_c, 4, 37, 110
6, 217424, Note_off_c, 4, 37, 64
6, 218112, Note_off_c, 4, 37, 64
6, 219272, Note_on_c, 4, 40, 110
6, 224832, Control_c, 4, 7, 7
6, 226368, Control_c, 4, 7, 81
6, 226752, Note_off_c, 4, 40, 64
6, 227424, Control_c, 4, 7, 14
6, 228704, Control_c, 4, 7, 62
6, 228752, Note_on_c, 4, 39, 110
6, 229056, Control_c, 4, 7, 2
6, 230080, Control_c, 4, 7, 46
6, 230400, Note_off_c, 4, 40, 64
6, 230400, Note_off_c, 4, 40, 64
6, 230720, Control_c, 4, 7, 2
6, 231968, Note_off_c, 4, 33, 64
6, 232320, Note_on_c, 4, 39, 110
6, 232896, Note_off_c, 4, 52, 64
6, 233088, Note_on_c, 4, 42, 110
6, 233664, Note_on_c, 6, 71, 64
6, 233776, Control_c, 4, 7, 16
6, 233952, Control_c, 4, 7, 27
6, 234048, Note_on_c, 4, 39, 110
6, 234240, Note_on_c, 4, 40, 110
6, 234240, Control_c, 4, 7, 57
6, 234240, Note_on_c, 4, 39, 110
6, 234528, Control_c, 4, 7, 43
6, 234624, Control_c, 4, 7, 22
6, 234720, Control_c, 4, 7, 22
6, 234848, Control_c, 4, 7, 27
6, 235488, Control_c, 4, 7, 51
6, 235488, Control_c, 4, 7, 37
6, 235616, Control_c, 4, 7, 41
6, 235808, Control_c, 4, 7, 25
6, 236064, Control_c, 4, 7, 40
6, 236064, Control_c, 4, 7, 18
6, 236160, Control_c, 4, 7, 48
6, 236256, Control_c, 4, 7, 47
6, 236544, Control_c, 4, 7, 51
6, 236544, Control_c, 4, 7, 24
6, 236736, Control_c, 4, 7, 42
6, 236736, Control_c, 4, 7, 17
6, 236832, Control_c, 4, 7, 28
6, 236936, Note_off_c, 4, 43, 64
6, 236960, Note_on_c, 4, 42, 110
6, 237184, Control_c, 4, 7, 29
6, 237488, Control_c, 4, 7, 46
6, 237696, Note_off_c, 4, 35, 64
6, 237696, Note_on_c, 4, 41, 110
6, 237824, Note_off_c, 3, 37, 64
6, 238016, Note_off_c, 4, 36, 64
6, 238176, Control_c, 4, 7, 14
6, 238272, Control_c, 4, 7, 27
6, 238368, Control_c, 4, 7, 53
6, 239040, Note_off_c, 4, 4, 81
6, 239840, Note_off_c, 4, 40, 64
6, 240096, Note_off_c, 4, 52, 64
6, 240192, Control_c, 4, 7, 22
6, 240192, Control_c, 4, 7, 90
6, 241152, Note_on_c, 4, 35, 110
6, 241440, Control_c, 3, 7, 25
6, 242304, Note_on_c, 4, 42, 110
6, 242304, Note_on_c, 4, 39, 110
6, 246464, Note_off_c, 4, 33, 64
6, 9429760, Note_off_c, 0, 64, 64
6, 33024, Note_off_c, 4, 40, 64
6, 43776, Note_on_c, 4, 44, 110
6, 53952, Note_off_c, 4, 47, 64
6, 55296, Note_on_c, 4, 47, 110
6, 55888, Note_on_c, 4, 47, 110
6, 56832, Note_off_c, 4, 44, 64
6, 58256, Note_off_c, 4, 47, 64
6, 231648, Control_c, 4, 7, 31
6, 233088, Note_on_c, 4, 40, 110
6, 234464, Control_c, 4, 7, 51
6, 235904, Control_c, 4, 7, 24
6, 236160, Note_on_c, 4, 42, 110
6, 238176, Control_c, 4, 7, 51
6, 4, Note_on_c, 9, 47, 110
6, 768, Note_on_c, 4, 47, 110
6, 1920, Note_off_c, 4, 37, 64
6, 2304, 95232, Note_on_c, 9, 59, 110
6, 3520, Note_off_c, 3, 45, 64
6, 5760, Note_off_c, 4, 76, 110
6, 15936, Note_off_c, 4, 38, 64
6, 22896, Note_off_c, 4, 35, 64
6, 23616, Note_on_c, 4, 37, 110
6, 26112, Note_off_c, 4, 37, 64
6, 31488, Note_on_c, 4, 37, 110
6, 31680, Note_on_c, 4, 33, 110
6, 31840, Note_on_c, 4, 40, 110
6, 32640, Note_on_c, 4, 40, 110
6, 33184, Note_on_c, 3, 42, 110
6, 33408, Note_off_c, 4, 40, 64
6, 33600, Note_off_c, 4, 47, 64
6, 33792, Note_on_c, 4, 51, 110
6, 33792, Control_c, 3, 7, 33
6, 34368, Note_on_c, 4, 40, 110
6, 35616, Note_on_c, 4, 42, 110
6, 35712, Note_on_c, 4, 40, 110
6, 36480, Note_on_c, 4, 33, 110
6, 36672, Note_off_c, 4, 33, 64
6, 37728, Note_off_c, 4, 40, 64
6, 39168, Note_on_c, 4, 42, 110
6, 39488, Note_off_c, 1, 58, 64
6, 39728, Note_on_c, 4, 47, 110
6, 39936, Note_off_c, 3, 7, 7
6, 42720, Note_on_c, 4, 33, 110
6, 43008, Note_on_c, 4, 40, 110
6, 43008, Note_on_c, 4, 42, 110
6, 43008, Note_on_c, 4, 44, 110
6, 43488, Note_on_c, 5, 61, 64
6, 43584, Note_off_c, 4, 42, 64
6, 43584, Note_on_c, 4, 42, 110
6, 43712, Note_off_c, 4, 42, 64
6, 43808, Note_on_c, 4, 42, 110
6, 44352, Note_off_c, 2, 61, 64
6, 44384, Note_off_c, 4, 42, 64
6, 45696, Note_on_c, 4, 39, 110
6, 46256, Note_off_c, 4, 39, 64
6, 47632, Note_on_c, 4, 42, 110
6, 48000, Note_on_c, 4, 40, 110
6, 48176, Note_off_c, 4, 33, 64
6, 48576, Note_on_c, 4, 42, 110
6, 48736, Note_off_c, 4, 42, 64
6, 49344, Note_off_c, 4, 42, 64
6, 49344, Note_off_c, 4, 42, 64
6, 50368, Note_off_c, 4, 51, 64
6, 50688, Note_off_c, 4, 47, 64
6, 52528, Note_on_c, 4, 42, 110
6, 53184, Note_on_c, 4, 49, 110
6, 53376, Note_on_c, 4, 47, 110
6, 53376, Note_on_c, 4, 42, 110
6, 53376, Note_off_c, 4, 44, 64
6, 53408, Note_on_c, 4, 47, 14
6, 53552, Note_off_c, 0, 68, 64
6, 53568, Note_on_c, 4, 52, 110
6, 53568, Note_off_c, 4, 47, 64
6, 53760, Note_off_c, 4, 45, 64
6, 53760, Note_off_c, 4, 47, 64
6, 54144, Note_on_c, 4, 47, 110
6, 54144, Note_off_c, 4, 47, 64
6, 54336, Note_on_c, 4, 47, 110
6, 54336, Note_off_c, 4, 61, 64
6, 54336, Note_on_c, 4, 42, 110
6, 54432, Note_on_c, 4, 52, 110
6, 54528, Note_off_c, 4, 47, 64
6, 55008, Note_off_c, 4, 36, 64
6, 55008, Note_off_c, 4, 42, 64
6, 55296, Note_on_c, 4, 44, 110
6, 55584, Control_c, 3, 7, 44
6, 55872, Note_on_c, 4, 37, 110
6, 56256, Note_off_c, 4, 40, 64
6, 56256, Note_on_c, 4, 42, 110
6, 56256, Note_on_c, 4, 47, 110
6, 56640, Note_on_c, 4, 34, 110
6, 57600, Note_on_c, 4, 45, 110
6, 57696, Note_on_c, 4, 49, 110
6, 58048, Note_off_c, 4, 42, 64
6, 58336, Note_off_c, 4, 44, 64
6, 58368, Note_off_c, 4, 42, 64
6, 58368, Note_off_c, 4, 40, 64
6, 58368, Note_off_c, 4, 42, 64
6, 58496, Note_on_c, 4, 42, 110
6, 58944, Note_on_c, 4, 47, 110
6, 58944, Note_on_c, 4, 47, 110
6, 58944, Note_off_c, 4, 47, 64
6, 59040, Note_off_c, 4, 40, 64
6, 59104, Note_off_c, 4, 47, 64
6, 59328, Note_on_c, 4, 45, 110
6, 59328, Note_on_c, 4, 43, 110
6, 59424, Note_off_c, 4, 45, 64
6, 59520, Note_off_c, 4, 47, 64
6, 59520, Note_on_c, 4, 47, 110
6, 59520, Note_off_c, 4, 47, 64
6, 59520, Note_on_c, 8, 76, 110
6, 59520, Note_off_c, 4, 45, 64
6, 59520, Note_on_c, 4, 42, 110
6, 59840, Note_off_c, 4, 47, 64
6, 59904, Note_on_c, 4, 34, 110
6, 63184, Note_off_c, 4, 40, 64
6, 63360, Note_on_c, 4, 37, 110
6, 63552, Note_off_c, 4, 52, 64
6, 65056, Note_off_c, 4, 47, 64
6, 65088, Note_on_c, 0, 88, 110
6, 65664, Note_off_c, 4, 37, 64
6, 67120, Note_on_c, 4, 41, 110
6, 67328, Note_on_c, 4, 40, 110
6, 67744, Note_on_c, 4, 34, 110
6, 67808, Note_on_c, 4, 42, 110
6, 68576, Note_on_c, 4, 45, 110
6, 68768, Note_off_c, 4, 47, 64
6, 71232, Note_off_c, 4, 45, 64
6, 71232, Note_off_c, 4, 37, 64
6, 71424, Note_on_c, 4, 52, 110
6, 71456, Note_off_c, 4, 45, 64
6, 72192, Note_on_c, 4, 47, 110
6, 72192, Note_off_c, 4, 44, 64
6, 72384, Note_off_c, 4, 21, 64
6, 72480, Note_on_c, 4, 37, 110
6, 73152, Note_off_c, 4, 39, 64
6, 73344, Note_on_c, 4, 40, 110
6, 74688, Note_off_c, 4, 36, 64
6, 74880, Note_on_c, 4, 48, 64
6, 74880, Note_on_c, 4, 40, 110
6, 74880, Note_on_c, 4, 47, 110
6, 75264, Note_on_c, 4, 45, 110
6, 75456, Note_off_c, 4, 45, 64
6, 75472, Note_on_c, 4, 40, 110
6, 75872, Note_off_c, 4, 47, 64
6, 76000, Note_on_c, 4, 47, 110
6, 76032, Note_on_c, 4, 31, 110
6, 76032, Note_off_c, 0, 85, 64
6, 76112, Note_off_c, 4, 32, 64
6, 76128, Note_on_c, 4, 32, 110
6, 76800, Note_off_c, 4, 32, 64
6, 79488, Note_off_c, 3, 36, 64
6, 79872, Note_off_c, 4, 40, 64
6, 81024, Note_off_c, 4, 51, 64
6, 83920, Note_on_c, 4, 45, 110
6, 84448, Note_off_c, 4, 47, 64
6, 84640, Note_off_c, 4, 37, 64
6, 84704, Note_on_c, 4, 42, 110
6, 84896, Note_off_c, 4, 49, 64
6, 85424, Note_off_c, 4, 47, 64
6, 85440, Note_on_c, 4, 37, 110
6, 85664, Note_off_c, 4, 45, 64
6, 86016, Note_on_c, 3, 42, 110
6, 88000, Note_off_c, 4, 42, 64
6, 88704, Note_on_c, 4, 43, 110
6, 89088, Note_on_c, 4, 49, 110
6, 89820, Note_on_c, 4, 39, 110
6, 90240, Note_on_c, 4, 52, 110
6, 92736, Note_on_c, 4, 40, 110
6, 95008, Note_off_c, 4, 45, 64
6, 95616, Note_off_c, 4, 47, 64
6, 95680, Note_off_c, 4, 47, 64
6, 96000, Note_off_c, 4, 75, 64
6, 96160, Note_off_c, 4, 42, 64
6, 96384, Note_off_c, 4, 47, 64
6, 96672, Note_on_c, 4, 44, 110
6, 97344, Note_on_c, 3, 41, 105
6, 97344, Note_on_c, 4, 47, 110
6, 97344, Note_off_c, 4, 47, 64
6, 97536, Note_on_c, 4, 46, 110
6, 97920, Note_off_c, 3, 44, 64
6, 97920, Note_off_c, 3, 47, 64
6, 98080, Note_off_c, 4, 47, 64
6, 98464, Note_on_c, 4, 44, 110
6, 98880, Note_on_c, 4, 45, 110
6, 99456, Note_off_c, 4, 47, 64
6, 99648, Note_on_c, 4, 45, 110
6, 100416, Note_off_c, 4, 47, 64
6, 100416, Note_on_c, 4, 42, 110
6, 100416, Note_off_c, 4, 45, 64
6, 100608, Note_on_c, 0, 80, 110
6, 100992, Note_on_c, 4, 51, 110
6, 104320, Note_off_c, 4, 45, 64
6, 107520, Note_on_c, 4, 40, 110
6, 113664, Note_on_c, 4, 38, 110
6, 116832, Note_on_c, 4, 40, 110
6, 117472, Note_off_c, 4, 38, 64
6, 118464, Note_on_c, 4, 37, 110
6, 120192, Note_off_c, 4, 44, 64
6, 126752, Note_off_c, 4, 37, 64
6, 134816, Note_on_c, 0, 68, 110
6, 135168, Control_c, 4, 7, 45
6, 135968, Note_off_c, 4, 42, 64
6, 140224, Note_off_c, 3, 39, 64
6, 140672, Note_on_c, 4, 40, 110
6, 148608, Note_off_c, 4, 40, 64
6, 150368, Note_off_c, 4, 49, 64
6, 150528, Note_off_c, 4, 42, 64
6, 152256, Note_on_c, 4, 47, 110
6, 152352, Note_on_c, 4, 44, 110
6, 152640, Note_on_c, 4, 45, 110
6, 152736, Note_off_c, 4, 47, 64
6, 152832, Note_on_c, 4, 40, 110
6, 153600, Note_off_c, 4, 45, 64
6, 153600, Note_on_c, 4, 47, 110
6, 153792, Note_on_c, 4, 43, 110
6, 154176, Note_on_c, 4, 49, 110
6, 154176, Note_on_c, 4, 51, 110
6, 154176, Note_on_c, 4, 71, 110
6, 154368, Control_c, 4, 7, 15
6, 154528, Note_off_c, 4, 47, 64
6, 154752, Note_on_c, 4, 44, 110
6, 154752, Note_on_c, 4, 49, 110
6, 154752, Note_on_c, 4, 47, 110
6, 154976, Note_off_c, 4, 44, 64
6, 155328, Note_off_c, 4, 45, 64
6, 155520, Note_off_c, 4, 45, 64
6, 155712, Note_off_c, 4, 47, 64
6, 155712, Note_on_c, 4, 49, 110
6, 155744, Note_off_c, 4, 47, 64
6, 156048, Note_off_c, 4, 42, 64
6, 156160, Note_off_c, 4, 47, 64
6, 156272, Note_on_c, 4, 47, 110
6, 156288, Note_off_c, 4, 47, 64
6, 156288, Note_on_c, 4, 47, 110
6, 156352, Note_off_c, 4, 44, 64
6, 156672, Note_on_c, 4, 49, 110
6, 156672, Note_on_c, 4, 47, 110
6, 156928, Note_off_c, 4, 45, 64
6, 157248, Note_off_c, 4, 40, 64
6, 157984, Note_on_c, 4, 47, 110
6, 158208, Note_off_c, 4, 42, 64
6, 158208, Note_on_c, 4, 47, 110
6, 158336, Note_off_c, 4, 45, 64
6, 158560, Note_off_c, 4, 47, 64
6, 158592, Note_on_c, 4, 47, 110
6, 158976, Note_on_c, 4, 42, 110
6, 159168, Note_off_c, 4, 40, 64
6, 159360, Note_off_c, 4, 45, 64
6, 162432, Note_off_c, 4, 33, 64
6, 162528, Note_off_c, 4, 37, 64
6, 164576, Note_on_c, 4, 42, 110
6, 167200, Note_on_c, 4, 31, 110
6, 168000, Note_on_c, 4, 40, 110
6, 169312, Note_off_c, 4, 40, 64
6, 170112, Note_on_c, 0, 85, 110
6, 170592, Note_on_c, 4, 47, 110
6, 170976, Note_off_c, 4, 40, 64
6, 171072, Note_off_c, 4, 49, 64
6, 174336, Note_off_c, 4, 42, 64
6, 174336, Note_on_c, 4, 41, 110
6, 174720, Note_off_c, 4, 35, 64
6, 179312, Note_on_c, 4, 40, 110
6, 180064, Note_off_c, 4, 34, 64
6, 180480, Note_off_c, 4, 47, 64
6, 180480, Note_off_c, 4, 34, 64
6, 180480, Note_on_c, 4, 39, 110
6, 180832, Note_on_c, 4, 47, 110
6, 183040, Note_off_c, 4, 44, 64
6, 183552, Note_on_c, 4, 52, 110
6, 183952, Note_off_c, 4, 42, 64
6, 184320, Note_off_c, 4, 47, 64
6, 184320, Note_off_c, 4, 45, 64
6, 184320, Note_on_c, 4, 45, 110
6, 184480, Note_off_c, 4, 40, 64
6, 184896, Note_off_c, 4, 45, 64
6, 184928, Note_on_c, 4, 52, 110
6, 185056, Note_off_c, 4, 40, 64
6, 185248, Note_off_c, 4, 44, 64
6, 185568, Note_on_c, 4, 52, 110
6, 185696, Note_on_c, 4, 49, 110
6, 188928, Note_off_c, 4, 42, 64
6, 190048, Note_off_c, 4, 45, 64
6, 190080, Note_off_c, 4, 47, 64
6, 190176, Note_on_c, 4, 47, 110
6, 190464, Note_on_c, 2, 54, 70
6, 190672, Note_on_c, 4, 37, 110
6, 190880, Note_on_c, 4, 49, 110
6, 190880, Note_off_c, 3, 37, 64
6, 191680, Note_off_c, 4, 47, 64
6, 192192, Note_off_c, 4, 5, 16
6, 192192, Note_on_c, 4, 40, 110
6, 192384, Note_off_c, 4, 37, 64
6, 192576, Note_off_c, 4, 45, 64
6, 192608, Note_on_c, 4, 41, 110
6, 192960, Note_off_c, 4, 45, 64
6, 192960, Note_on_c, 4, 47, 110
6, 193216, Note_on_c, 4, 40, 110
6, 193728, Note_on_c, 4, 47, 110
6, 193888, Note_on_c, 4, 49, 96
6, 194112, Note_on_c, 4, 44, 110
6, 194112, Note_off_c, 4, 45, 64
6, 194128, Note_on_c, 4, 45, 110
6, 194176, Note_off_c, 4, 45, 64
6, 194432, Note_off_c, 4, 40, 64
6, 194688, Note_on_c, 4, 45, 110
6, 195648, Note_on_c, 4, 47, 110
6, 195648, Note_off_c, 4, 49, 64
6, 195872, Note_off_c, 4, 49, 64
6, 195872, Note_on_c, 4, 47, 110
6, 196032, Note_off_c, 4, 45, 64
6, 196224, Note_off_c, 4, 45, 64
6, 196224, Note_on_c, 4, 44, 110
6, 197728, Note_on_c, 4, 42, 110
6, 198112, Note_on_c, 4, 47, 110
6, 198176, Note_on_c, 4, 37, 110
6, 198912, Note_on_c, 4, 42, 110
6, 198912, Note_on_c, 4, 45, 110
6, 199168, Note_off_c, 4, 45, 64
6, 199264, Note_off_c, 4, 45, 64
6, 199264, Note_on_c, 4, 37, 110
6, 199680, Note_on_c, 4, 45, 110
6, 200096, Note_off_c, 4, 40, 64
6, 202752, Note_on_c, 4, 40, 110
6, 210448, Note_off_c, 4, 40, 64
6, 210736, Note_on_c, 4, 37, 110
6, 210848, Note_on_c, 4, 37, 110
6, 211968, Note_off_c, 4, 37, 64
6, 213952, Note_on_c, 4, 38, 110
6, 216576, Note_on_c, 4, 37, 110
6, 218688, Note_off_c, 4, 37, 64
6, 218848, Note_off_c, 4, 37, 64
6, 218880, Note_on_c, 4, 37, 110
6, 224224, Note_off_c, 4, 39, 64
6, 225696, Control_c, 4, 7, 27
6, 226752, Control_c, 4, 7, 70
6, 230400, Note_off_c, 4, 39, 64
6, 230784, Control_c, 4, 7, 40
6, 231072, Control_c, 4, 7, 45
6, 231648, Note_off_c, 4, 33, 64
6, 231968, Note_off_c, 4, 39, 64
6, 232128, Control_c, 3, 7, 42
6, 232416, Control_c, 4, 7, 44
6, 232800, Note_off_c, 4, 42, 64
6, 232896, Control_c, 4, 7, 41
6, 232896, Note_off_c, 4, 33, 64
6, 233088, Note_off_c, 4, 33, 64
6, 233664, Control_c, 4, 7, 52
6, 233664, Note_off_c, 4, 36, 64
6, 233760, Control_c, 4, 7, 56
6, 233856, Control_c, 4, 7, 49
6, 234048, Control_c, 4, 7, 29
6, 234112, Control_c, 4, 7, 41
6, 234240, Note_on_c, 4, 42, 110
6, 234624, Note_off_c, 4, 33, 64
6, 234848, Control_c, 4, 7, 57
6, 235008, Note_off_c, 4, 40134, 64
6, 235584, Control_c, 4, 7, 56
6, 235968, Control_c, 4, 7, 42
6, 235968, Control_c, 4, 7, 40
6, 236096, Note_on_c, 4, 40, 110
6, 236160, Note_on_c, 4, 35, 110
6, 236160, Note_off_c, 4, 42, 64
6, 236352, Control_c, 4, 7, 30
6, 236448, Control_c, 4, 7, 33
6, 236544, Note_off_c, 4, 42, 64
6, 236640, Control_c, 4, 7, 28
6, 236640, Note_on_c, 4, 53, 110
6, 236832, Control_c, 4, 7, 29
6, 238272, Control_c, 4, 7, 33
6, 238368, Control_c, 4, 7, 32
6, 238460, Note_off_c, 4, 42, 64
6, 238656, Control_c, 4, 7, 37
6, 239008, Note_off_c, 4, 37, 64
6, 239248, Note_off_c, 4, 47, 64
6, 239616, Note_off_c, 4, 42, 64
6, 241056, Control_c, 4, 7, 4
6, 241632, Control_c, 4, 7, 56
6, 71808352, Note_on_c, 5, 76, 110
6, 48960, Note_on_c, 4, 40, 110
6, 49552, Note_off_c, 4, 40, 64
6, 53984, Note_on_c, 4, 39, 110
6, 54016, Note_off_c, 4, 47, 64
6, 56896, Note_off_c, 4, 39, 64
6, 57024, Note_off_c, 4, 32, 64
6, 57312, Note_on_c, 4, 36, 110
6, 57504, Note_off_c, 4, 39, 64
6, 57984, Note_on_c, 4, 33, 110
6, 58368, Note_on_c, 4, 33, 110
6, 59328, Note_on_c, 4, 40, 110
6, 59328, Note_off_c, 4, 35, 64
6, 59328, Note_off_c, 4, 36, 64
6, 59520, Note_off_c, 4, 42, 64
6, 64128, Note_on_c, 4, 47, 110
6, 64544, Note_off_c, 4, 45, 64
6, 73152, Note_on_c, 4, 32, 110
6, 73376, Note_off_c, 4, 45, 64
6, 74176, Note_off_c, 4, 35, 64
6, 74976, Note_on_c, 4, 34, 110
6, 132848, Note_on_c, 4, 40, 110
7, 13, Note_on_c, 5, 63, 110
7, 19, Note_on_c, 9, 44, 64
7, 23, Note_off_c, 8, 73, 64
7, 180, Note_on_c, 9, 36, 110
7, 240, Note_on_c, 9, 44, 64
7, 1800,  Note_on_c, 9, 44, 110
7, 2056, Note_on_c, 5, 78, 110
7, 2764, Note_off_c, 9, 41, 64
7, 9352, Control_c, 5, 7, 69
7, 11008, Note_off_c, 8, 92, 64
7, 18048, Control_c, 5, 7, 18
7, 18432, Control_c, 5, 7, 110
7, 18812, Control_c, 5, 7, 50
7, 18816, Note_off_c, 3, 49, 64
7, 18912, Program_c, 5, 81
7, 19008, Note_off_c, 5, 61, 64
7, 19008, Note_on_c, 5, 61, 96
7, 19392, Note_off_c, 0, 81, 64
7, 19968, Note_off_c, 5, 61, 64
7, 20352, Control_c, 5, 7, 90
7, 20576, Note_on_c, 5, 61, 64
7, 20736, Control_c, 5, 7, 90
7, 20832, Control_c, 5, 7, 47
7, 21104, Note_off_c, 5, 61, 64
7, 21120, Note_on_c, 5, 61, 64
7, 21136, Note_on_c, 5, 61, 110
7, 21216, Note_on_c, 5, 61, 96
7, 21312, Control_c, 5, 7, 48
7, 21328, Note_off_c, 5, 61, 64
7, 21504, Control_c, 5, 7, 52
7, 21600, Note_off_c, 5, 61, 64
7, 21616, Note_on_c, 4, 38, 110
7, 21696, Control_c, 5, 7, 48
7, 21792, Note_off_c, 5, 61, 64
7, 21792, Note_off_c, 5, 61, 64
7, 21888, Control_c, 5, 7, 63
7, 21920, Note_off_c, 5, 61, 64
7, 22816, Note_on_c, 5, 61, 110
7, 23040, Note_on_c, 5, 61, 61, 64
7, 23168, Control_c, 5, 7, 55
7, 23424, Note_on_c, 5, 61, 110
7, 23432, Note_off_c, 9, 46, 64
7, 23520, Control_c, 5, 7, 64
7, 23616, Note_off_c, 5, 61, 64
7, 23648, Control_c, 5, 7, 67
7, 23792, Control_c, 5, 7, 94
7, 23920, Control_c, 5, 7, 57
7, 24256, Control_c, 5, 7, 66
7, 24448, Control_c, 5, 7, 68
7, 24512, Note_on_c, 5, 61, 70
7, 24672, Note_off_c, 5, 61, 64
7, 25344, Note_on_c, 5, 61, 96
7, 25344, Control_c, 5, 7, 25
7, 25440, Control_c, 5, 7, 90
7, 25544, Control_c, 5, 7, 90
7, 25792, Note_off_c, 5, 61, 64
7, 25824, Control_c, 5, 7, 83
7, 25920, Note_off_c, 5, 61, 64
7, 26112, Control_c, 5, 7, 76
7, 26112, Note_off_c, 5, 59, 64
7, 26176, Note_off_c, 5, 61, 64
7, 26496, Note_on_c, 5, 61, 110
7, 26592, Control_c, 5, 7, 99
7, 26688, Control_c, 4, 7, 80
7, 26784, Note_on_c, 5, 59, 96
7, 26880, Note_on_c, 5, 59, 96
7, 26976, Note_off_c, 5, 85, 64
7, 27072, Note_on_c, 5, 59, 96
7, 27136, Control_c, 5, 7, 82
7, 27296, Note_off_c, 5, 68, 64
7, 27344, Note_off_c, 5, 59, 64
7, 27456, Note_on_c, 5, 61, 96
7, 27536, Note_on_c, 5, 61, 110
7, 27552, Note_off_c, 5, 59, 64
7, 27648, Program_c, 5, 81
7, 27856, Note_on_c, 5, 61, 96
7, 28224, Note_off_c, 5, 61, 64
7, 28608, Note_on_c, 5, 61, 96
7, 28608, Note_off_c, 5, 61, 64
7, 29760, Note_off_c, 5, 61, 64
7, 30112, Note_on_c, 5, 61, 96
7, 30144, Note_off_c, 5, 61, 64
7, 30336, Note_on_c, 5, 61, 110
7, 30432, Note_off_c, 5, 61, 64
7, 30528, Note_off_c, 5, 61, 64
7, 30912, Note_on_c, 5, 61, 96
7, 31488, Note_on_c, 5, 61, 96
7, 31808, Note_on_c, 5, 61, 96
7, 32448, Note_on_c, 5, 61, 110
7, 32640, Note_off_c, 6, 71, 64
7, 33024, Note_on_c, 5, 61, 96
7, 33024, Note_on_c, 5, 61, 96
7, 33184, Note_on_c, 5, 61, 110
7, 33184, Note_on_c, 5, 61, 110
7, 33216, Note_off_c, 5, 61, 64
7, 33216, Note_off_c, 5, 61, 64
7, 33216, Note_off_c, 5, 61, 64
7, 33216, Note_off_c, 5, 61, 64
7, 33216, Note_off_c, 5, 61, 64
7, 33328, Note_on_c, 5, 61, 96
7, 33408, Note_on_c, 5, 61, 110
7, 33408, Note_off_c, 5, 61, 64
7, 33408, Note_off_c, 5, 61, 64
7, 33472, Note_on_c, 5, 59, 110
7, 33504, Note_off_c, 5, 59, 64
7, 33504, Note_on_c, 5, 61, 110
7, 33600, Control_c, 5, 7, 34
7, 33696, Note_on_c, 5, 61, 96
7, 33696, Note_on_c, 5, 61, 64
7, 33712, Control_c, 5, 7, 52
7, 33904, Note_off_c, 5, 63, 64
7, 34256, Note_off_c, 5, 61, 64
7, 34464, Note_off_c, 5, 59, 64
7, 34720, Note_on_c, 5, 59, 96
7, 35192, Note_on_c, 5, 61, 96
7, 35232, Note_off_c, 5, 61, 64
7, 35408, Note_on_c, 5, 59, 96
7, 35488, Note_off_c, 5, 63, 64
7, 35520, Note_on_c, 5, 59, 110
7, 35616, Note_on_c, 5, 59, 110
7, 36000, Note_on_c, 5, 63, 96
7, 36256, Note_on_c, 5, 61, 110
7, 36672, Note_on_c, 5, 63, 64
7, 37056, Note_off_c, 5, 59, 64
7, 37344, Note_off_c, 5, 61, 64
7, 37408, Note_off_c, 5, 61, 64
7, 37824, Note_on_c, 5, 59, 110
7, 37920, Note_on_c, 5, 59, 96
7, 37952, Note_off_c, 5, 63, 64
7, 38400, Note_off_c, 5, 61, 64
7, 38464, Note_off_c, 5, 61, 64
7, 39360, Note_off_c, 5, 61, 64
7, 39456, Note_off_c, 5, 59, 64
7, 39552, Note_on_c, 5, 73, 110
7, 39616, Note_off_c, 5, 61, 64
7, 39776, Note_off_c, 5, 64, 64
7, 40096, Note_off_c, 5, 61, 64
7, 40128, Note_on_c, 5, 61, 96
7, 40512, Note_on_c, 5, 61, 64
7, 40528, Note_on_c, 5, 61, 96
7, 40704, Note_off_c, 5, 61, 64
7, 40960, Note_on_c, 5, 61, 96
7, 41248, Note_on_c, 5, 61, 110
7, 41272, Note_on_c, 5, 61, 110
7, 41280, Note_on_c, 5, 61, 110
7, 41408, Note_off_c, 5, 61, 64
7, 41504, Note_on_c, 2, 44, 64
7, 41664, Note_off_c, 5, 61, 64
7, 41664, Note_on_c, 5, 61, 96
7, 41664, Note_off_c, 5, 61, 64
7, 41664, Note_on_c, 5, 61, 64
7, 41664, Note_off_c, 5, 61, 64
7, 41664, Note_on_c, 4, 39, 110
7, 41824, Note_on_c, 5, 61, 96
7, 42336, Note_off_c, 5, 61, 64
7, 42528, Note_on_c, 5, 61, 64
7, 42560, Note_off_c, 5, 61, 64
7, 43008, Note_on_c, 5, 61, 96
7, 43008, Note_off_c, 5, 61, 64
7, 43008, Note_on_c, 5, 61, 64
7, 43008, Note_on_c, 5, 61, 96
7, 43008, Note_on_c, 5, 61, 110
7, 43184, Note_off_c, 5, 61, 64
7, 43200, Note_on_c, 5, 61, 110
7, 43296, Note_on_c, 5, 61, 96
7, 43328, Note_off_c, 2, 64, 64
7, 43328, Note_on_c, 5, 61, 110
7, 43328, Note_off_c, 5, 61, 64
7, 43328, Note_off_c, 5, 61, 64
7, 43376, Note_on_c, 5, 63, 110
7, 43392, Note_off_c, 5, 61, 64
7, 43392, Note_on_c, 5, 61, 96
7, 43408, Note_on_c, 5, 61, 110
7, 43424, Note_off_c, 5, 61, 64
7, 43424, Note_off_c, 5, 61, 64
7, 43504, Note_on_c, 5, 61, 110
7, 43616, Note_off_c, 5, 61, 96
7, 43616, Note_on_c, 4, 42, 110
7, 43680, Note_on_c, 5, 61, 110
7, 43680, Note_off_c, 5, 61, 64
7, 43712, Note_on_c, 5, 61, 73
7, 43808, Note_on_c, 5, 61, 110
7, 43904, Note_off_c, 5, 61, 64
7, 44256, Note_off_c, 5, 61, 64
7, 44288, Note_on_c, 5, 61, 110
7, 45120, Note_off_c, 5, 61, 64
7, 45216, Note_on_c, 5, 61, 110
7, 45216, Note_off_c, 5, 61, 64
7, 45216, Note_off_c, 5, 63, 64
7, 45504, Note_on_c, 5, 61, 110
7, 45600, Note_on_c, 5, 61, 64
7, 45696, Note_on_c, 5, 61, 96
7, 45728, Note_off_c, 5, 61, 64
7, 45904, Note_off_c, 5, 63, 64
7, 46080, Note_off_c, 5, 61, 64
7, 46080, Note_off_c, 5, 61, 64
7, 46240, Note_off_c, 5, 61, 64
7, 46672, Note_off_c, 5, 61, 64
7, 46848, Note_off_c, 5, 61, 64
7, 47200, Note_off_c, 5, 61, 64
7, 47296, Note_on_c, 5, 61, 96
7, 47520, Note_on_c, 5, 61, 96
7, 47632, Note_on_c, 5, 63, 64
7, 47648, Note_off_c, 5, 63, 64
7, 47712, Note_off_c, 5, 61, 64
7, 47808, Note_on_c, 5, 61, 96
7, 47808, Note_on_c, 5, 61, 64
7, 47904, Note_off_c, 5, 61, 64
7, 48000, Note_off_c, 5, 61, 64
7, 48240, Note_off_c, 5, 61, 64
7, 48288, Control_c, 5, 7, 49
7, 49152, Note_on_c, 5, 61, 110
7, 49168, Note_on_c, 5, 61, 110
7, 49248, Note_off_c, 5, 63, 64
7, 49440, Note_off_c, 5, 61, 64
7, 50688, Note_off_c, 5, 68, 64
7, 51264, Note_off_c, 5, 73, 64
7, 51264, Note_on_c, 5, 68, 110
7, 51552, Control_c, 5, 7, 64
7, 51648, Note_off_c, 5, 61, 64
7, 51840, Note_off_c, 5, 81, 64
7, 52368, Note_on_c, 5, 61, 110
7, 52800, Note_off_c, 5, 76, 64
7, 53600, Note_on_c, 5, 61, 110
7, 53664, Note_on_c, 5, 63, 110
7, 53776, Note_off_c, 5, 61, 64
7, 53984, Note_off_c, 5, 75, 64
7, 55072, Note_on_c, 5, 63, 110
7, 55776, Note_on_c, 5, 76, 110
7, 57024, Note_on_c, 5, 63, 62
7, 57216, Note_on_c, 5, 63, 110
7, 59168, Note_on_c, 5, 76, 110
7, 59712, Note_off_c, 5, 63, 64
7, 59840, Note_off_c, 5, 35, 64
7, 64512, Note_on_c, 5, 73, 110
7, 71456, Note_off_c, 5, 61, 64
7, 73344, Note_off_c, 5, 76, 64
7, 75456, Note_off_c, 5, 69, 64
7, 76416, Note_off_c, 5, 73, 64
7, 80288, Note_off_c, 5, 61, 64
7, 80752, Note_on_c, 6, 68, 110
7, 80768, Note_off_c, 5, 78, 64
7, 81216, Note_on_c, 5, 61, 110
7, 81280, Note_on_c, 5, 61, 96
7, 81504, Note_off_c, 5, 61, 64
7, 81600, Note_off_c, 5, 61, 64
7, 81600, Note_on_c, 5, 36, 110
7, 81728, Note_on_c, 5, 61, 96
7, 83104, Note_on_c, 5, 61, 96
7, 83616, Note_off_c, 5, 63, 64
7, 84320, Note_off_c, 5, 61, 64
7, 84528, Note_on_c, 5, 61, 64
7, 84672, Note_on_c, 5, 78, 110
7, 84704, Note_on_c, 2, 64, 110
7, 85216, Note_on_c, 5, 61, 110
7, 85248, Note_on_c, 5, 63, 110
7, 85632, Note_on_c, 5, 64, 110
7, 86944, Note_off_c, 5, 61, 64
7, 87168, Note_on_c, 5, 73, 110
7, 87936, Note_off_c, 5, 61, 64
7, 89088, Note_on_c, 5, 61, 110
7, 89408, Note_off_c, 5, 61, 64
7, 89632, Note_off_c, 5, 76, 64
7, 90048, Note_off_c, 5, 73, 64
7, 90048, Note_off_c, 5, 76, 64
7, 90464, Note_off_c, 5, 76, 64
7, 91264, Note_off_c, 5, 59, 64
7, 91584, Note_on_c, 5, 76, 88
7, 92128, Note_off_c, 5, 59, 64
7, 93312, Note_off_c, 5, 63, 64
7, 93696, Note_on_c, 5, 59, 96
7, 94880, Note_off_c, 5, 76, 64
7, 95008, Note_on_c, 5, 75, 110
7, 95232, Note_on_c, 5, 76, 110
7, 95424, Note_off_c, 5, 78, 64
7, 95616, Note_on_c, 5, 59, 110
7, 95616, Note_off_c, 5, 76, 64
7, 95616, Note_on_c, 5, 75, 110
7, 95616, Note_off_c, 5, 75, 64
7, 95648, Note_on_c, 5, 71, 110
7, 95680, Note_off_c, 5, 76, 64
7, 95808, Note_on_c, 5, 73, 110
7, 95808, Note_on_c, 5, 71, 80
7, 95808, Note_on_c, 5, 75, 110
7, 95808, Note_off_c, 5, 73, 64
7, 95840, Note_off_c, 7, 76, 64
7, 96000, Note_off_c, 5, 53, 64
7, 96000, Note_on_c, 5, 75, 110
7, 96160, Note_on_c, 5, 73, 80
7, 96160, Note_on_c, 5, 64, 110
7, 96384, Note_on_c, 5, 75, 110
7, 96384, Note_on_c, 5, 73, 81
7, 96608, Note_on_c, 5, 73, 110
7, 96640, Note_on_c, 5, 76, 110
7, 96656, Note_on_c, 5, 80, 110
7, 96672, Note_on_c, 5, 73, 110
7, 96768, Note_off_c, 5, 75, 64
7, 97056, Note_on_c, 5, 73, 110
7, 97120, Note_off_c, 5, 76, 64
7, 97152, Note_off_c, 5, 75, 64
7, 97344, Note_off_c, 5, 59, 110
7, 97344, Note_off_c, 5, 76, 64
7, 97344, Note_on_c, 5, 76, 110
7, 97344, Note_on_c, 5, 71, 110
7, 97344, Note_on_c, 5, 76, 96
7, 97520, Note_on_c, 5, 75, 110
7, 97520, Note_off_c, 5, 73, 64
7, 97536, Note_on_c, 9, 44, 64
7, 97536, Note_on_c, 5, 76, 110
7, 97536, Note_on_c, 5, 78, 110
7, 97536, Note_off_c, 5, 61, 64
7, 97536, Note_on_c, 9, 36, 110
7, 97552, Note_off_c, 7, 78, 64
7, 97728, Note_on_c, 5, 78, 110
7, 97728, Note_on_c, 5, 75, 110
7, 97728, Note_on_c, 5, 78, 80
7, 97824, Note_on_c, 5, 59, 64
7, 98016, Note_on_c, 5, 80, 104
7, 98080, Note_off_c, 5, 73, 64
7, 98184, Note_off_c, 5, 78, 64
7, 98304, Note_off_c, 5, 76, 64
7, 98304, Note_off_c, 5, 73, 64
7, 98304, Note_on_c, 5, 76, 110
7, 98304, Note_on_c, 5, 78, 110
7, 98336, Note_off_c, 5, 75, 64
7, 98432, Note_on_c, 5, 73, 110
7, 98464, Note_on_c, 5, 75, 110
7, 98656, Note_off_c, 5, 78, 64
7, 98784, Note_off_c, 5, 73, 64
7, 98816, Note_off_c, 5, 75, 64
7, 98880, Note_off_c, 5, 64, 64
7, 98880, Note_off_c, 5, 75, 64
7, 98880, Note_off_c, 5, 75, 64
7, 98880, Note_on_c, 5, 76, 64
7, 99040, Note_off_c, 9, 7, 14
7, 99040, Note_off_c, 5, 78, 64
7, 99040, Note_on_c, 5, 73, 96
7, 99072, Note_off_c, 5, 75, 64
7, 99072, Note_on_c, 5, 78, 110
7, 99072, Note_on_c, 5, 75, 110
7, 99200, Note_off_c, 5, 75, 64
7, 99264, Note_on_c, 5, 75, 110
7, 99264, Note_on_c, 5, 73, 64
7, 99360, Note_off_c, 5, 78, 64
7, 99424, Note_off_c, 5, 71, 64
7, 99424, Note_off_c, 5, 71, 64
7, 99456, Note_on_c, 5, 78, 110
7, 99456, Note_on_c, 5, 76, 96
7, 99456, Note_off_c, 5, 76, 64
7, 99488, Note_off_c, 5, 71, 64
7, 99584, Note_on_c, 5, 75, 110
7, 99640, Note_off_c, 5, 76, 64
7, 99648, Note_off_c, 5, 76, 64
7, 99648, Note_on_c, 5, 75, 110
7, 99648, Note_off_c, 5, 75, 64
7, 99680, Note_off_c, 5, 76, 64
7, 99840, Note_on_c, 5, 76, 86
7, 99840, Note_off_c, 5, 76, 64
7, 99840, Note_off_c, 5, 76, 64
7, 100032, Note_off_c, 5, 68, 64
7, 100224, Note_off_c, 5, 61, 64
7, 100416, Note_on_c, 5, 73, 64
7, 100416, Note_on_c, 5, 78, 110
7, 100512, Note_off_c, 5, 76, 64
7, 100608, Note_on_c, 5, 73, 110
7, 100800, Note_off_c, 5, 85, 64
7, 101088, Note_on_c, 5, 68, 96
7, 101376, Note_off_c, 5, 76, 64
7, 101376, Note_off_c, 5, 79, 64
7, 103104, Note_off_c, 5, 78, 64
7, 103296, Note_on_c, 5, 81, 110
7, 103680, Note_off_c, 5, 81, 64
7, 103680, Note_on_c, 5, 78, 110
7, 103872, Note_off_c, 5, 78, 64
7, 103904, Note_on_c, 5, 80, 104
7, 104064, Note_off_c, 5, 64, 64
7, 104128, Note_on_c, 5, 61, 64
7, 104448, Note_on_c, 5, 75, 110
7, 104448, Note_off_c, 5, 64, 64
7, 104480, Note_on_c, 5, 78, 88
7, 105520, Note_off_c, 5, 76, 64
7, 106176, Note_off_c, 5, 81, 64
7, 106368, Note_off_c, 5, 81, 64
7, 106656, Note_off_c, 5, 64, 64
7, 106752, Note_on_c, 5, 68, 64
7, 106752, Note_off_c, 5, 85, 64
7, 107520, Control_c, 5, 76, 96
7, 109456, Note_on_c, 5, 78, 91
7, 109728, Note_off_c, 5, 61, 64
7, 109856, Note_on_c, 5, 78, 96
7, 110208, Note_off_c, 5, 61, 64
7, 110240, Note_on_c, 5, 61, 110
7, 112128, Note_off_c, 5, 75, 64
7, 112704, Note_off_c, 5, 78, 78
7, 112704, Note_off_c, 5, 81, 64
7, 112864, Note_on_c, 5, 75, 64
7, 112896, Note_on_c, 5, 64, 72
7, 113088, Note_off_c, 5, 68, 64
7, 113088, Note_on_c, 5, 64, 64
7, 113152, Note_on_c, 5, 61, 110
7, 113280, Note_off_c, 5, 68, 64
7, 113376, Note_on_c, 5, 61, 64
7, 113664, Note_off_c, 5, 68, 64
7, 113664, Control_c, 5, 73, 82
7, 113856, Note_on_c, 5, 68, 110
7, 113888, Note_off_c, 5, 61, 64
7, 114848, Note_on_c, 5, 61, 96
7, 115168, Note_off_c, 5, 61, 64
7, 115584, Note_on_c, 5, 61, 110
7, 115968, Note_on_c, 5, 61, 110
7, 116160, Note_on_c, 5, 61, 104
7, 116544, Note_on_c, 5, 61, 96
7, 116576, Note_on_c, 5, 61, 64
7, 116736, Note_off_c, 5, 61, 64
7, 116736, Note_off_c, 5, 61, 64
7, 116768, Note_off_c, 5, 61, 64
7, 117408, Note_off_c, 5, 61, 64
7, 117824, Note_off_c, 5, 61, 64
7, 118080, Note_on_c, 5, 61, 64
7, 118112, Note_on_c, 5, 81, 112
7, 118848, Note_on_c, 5, 61, 96
7, 119040, Note_on_c, 5, 61, 110
7, 119040, Note_on_c, 5, 61, 64
7, 119424, Note_on_c, 5, 61, 64
7, 119680, Note_off_c, 5, 61, 64
7, 120576, Note_off_c, 5, 61, 64
7, 121024, Control_c, 5, 7, 90
7, 121600, Note_on_c, 5, 61, 64
7, 121632, Note_on_c, 5, 61, 110
7, 121824, Note_off_c, 5, 59, 64
7, 121920, Note_off_c, 5, 85, 64
7, 122400, Note_on_c, 5, 61, 110
7, 123168, Note_off_c, 5, 61, 64
7, 123168, Note_off_c, 5, 59, 64
7, 123296, Note_off_c, 5, 61, 64
7, 123840, Note_off_c, 5, 61, 64
7, 124128, Note_on_c, 5, 61, 110
7, 124800, Note_off_c, 5, 78, 64
7, 124928, Note_on_c, 5, 61, 110
7, 125376, Note_off_c, 5, 59, 64
7, 125760, Note_off_c, 5, 61, 64
7, 125952, Note_on_c, 5, 61, 110
7, 125984, Note_on_c, 5, 61, 110
7, 126512, Note_on_c, 5, 61, 64
7, 126624, Note_on_c, 5, 61, 96
7, 126720, Note_off_c, 5, 61, 64
7, 126848, Note_off_c, 5, 61, 64
7, 127680, Note_off_c, 5, 61, 64
7, 127872, Note_on_c, 5, 59, 64
7, 127872, Note_off_c, 5, 59, 64
7, 128032, Note_on_c, 5, 61, 96
7, 130240, Note_off_c, 5, 59, 64
7, 130248, Note_on_c, 5, 59, 64
7, 132672, Note_on_c, 5, 59, 110
7, 132800, Note_off_c, 5, 59, 64
7, 132856, Note_on_c, 5, 59, 96
7, 134720, Note_off_c, 5, 61, 64
7, 134784, Note_on_c, 5, 68, 110
7, 135168, Note_on_c, 5, 63, 96
7, 135264, Note_on_c, 5, 61, 64
7, 135456, Note_on_c, 5, 61, 64
7, 135936, Note_off_c, 5, 69, 64
7, 136096, Note_on_c, 5, 61, 96
7, 136320, Note_on_c, 9, 44, 96
7, 138048, Note_off_c, 5, 61, 64
7, 138176, Note_off_c, 5, 61, 64
7, 138240, Note_off_c, 5, 63, 64
7, 138496, Note_on_c, 5, 61, 110
7, 138528, Note_off_c, 5, 61, 64
7, 138976, Note_off_c, 5, 63, 64
7, 139712, Note_off_c, 5, 63, 64
7, 139712, Note_on_c, 5, 63, 110
7, 140032, Note_on_c, 5, 61, 110
7, 140032, Note_off_c, 5, 61, 64
7, 140128, Note_off_c, 5, 61, 64
7, 140160, Note_on_c, 5, 63, 96
7, 140320, Note_off_c, 5, 61, 64
7, 140448, Note_off_c, 5, 61, 64
7, 140832, Note_on_c, 5, 63, 72
7, 140864, Note_off_c, 5, 61, 64
7, 140928, Note_off_c, 5, 61, 64
7, 140960, Note_off_c, 5, 63, 64
7, 141120, Note_off_c, 5, 63, 64
7, 141248, Note_on_c, 5, 61, 96
7, 141312, Control_c, 5, 7, 52
7, 141312, Note_off_c, 5, 63, 64
7, 141408, Note_on_c, 5, 59, 110
7, 141824, Note_off_c, 5, 61, 64
7, 141888, Note_on_c, 5, 61, 96
7, 143264, Note_on_c, 5, 61, 110
7, 143424, Note_on_c, 5, 63, 110
7, 143584, Note_on_c, 5, 63, 64
7, 143808, Note_off_c, 5, 63, 64
7, 143808, Note_off_c, 5, 63, 64
7, 143808, Note_on_c, 5, 63, 96
7, 143808, Note_on_c, 5, 61, 64
7, 144384, Note_on_c, 5, 61, 110
7, 144576, Note_off_c, 5, 63, 64
7, 144576, Note_on_c, 5, 63, 96
7, 144800, Note_off_c, 5, 63, 64
7, 144928, Note_on_c, 5, 63, 110
7, 145120, Note_off_c, 5, 63, 64
7, 145184, Note_on_c, 5, 63, 96
7, 145216, Note_off_c, 5, 63, 64
7, 145920, Note_off_c, 5, 63, 64
7, 146080, Note_on_c, 5, 63, 64
7, 146656, Note_on_c, 5, 63, 64
7, 146688, Note_on_c, 5, 63, 110
7, 147872, Note_off_c, 5, 63, 64
7, 148544, Note_on_c, 5, 63, 110
7, 148640, Note_off_c, 4, 44, 64
7, 154368, Note_off_c, 5, 70, 64
7, 160416, Note_off_c, 5, 69, 64
7, 163328, Note_on_c, 5, 64, 96
7, 170496, Note_on_c, 5, 76, 91
7, 171456, Note_on_c, 5, 61, 96
7, 173088, Note_off_c, 5, 61, 64
7, 174144, Note_off_c, 5, 61, 64
7, 174368, Note_on_c, 5, 61, 96
7, 174720, Note_off_c, 5, 61, 64
7, 175008, Note_on_c, 5, 63, 64
7, 175072, Note_on_c, 5, 61, 96
7, 175104, Note_on_c, 5, 61, 96
7, 175392, Note_off_c, 5, 61, 64
7, 175488, Note_on_c, 5, 61, 96
7, 175488, Note_on_c, 5, 61, 64
7, 175680, Note_on_c, 5, 61, 96
7, 175680, Note_off_c, 5, 61, 64
7, 175776, Note_off_c, 5, 61, 64
7, 176064, Note_off_c, 5, 61, 64
7, 176128, Note_off_c, 5, 61, 64
7, 176160, Note_off_c, 5, 61, 64
7, 176256, Note_off_c, 5, 61, 64
7, 176256, Note_on_c, 5, 61, 96
7, 176256, Note_off_c, 5, 61, 64
7, 176256, Note_on_c, 5, 61, 64
7, 176448, Note_on_c, 5, 61, 96
7, 176448, Note_off_c, 5, 61, 64
7, 176656, Note_on_c, 5, 61, 64
7, 176752, Note_off_c, 5, 61, 64
7, 176944, Note_off_c, 5, 61, 64
7, 176952, Note_on_c, 5, 61, 64
7, 177272, Note_off_c, 5, 61, 64
7, 177272, Note_on_c, 5, 61, 64
7, 177600, Note_on_c, 5, 61, 64
7, 177824, Note_off_c, 5, 61, 64
7, 178336, Note_off_c, 5, 61, 64
7, 178560, Note_off_c, 5, 61, 64
7, 179520, Note_off_c, 5, 61, 64
7, 179616, Note_on_c, 5, 85, 112
7, 179616, Note_on_c, 5, 61, 64
7, 179616, Note_on_c, 5, 61, 110
7, 179712, Note_on_c, 5, 61, 96
7, 180032, Note_off_c, 5, 61, 64
7, 180064, Note_on_c, 5, 61, 96
7, 180064, Note_off_c, 5, 59, 64
7, 180192, Note_on_c, 5, 59, 64
7, 180480, Note_off_c, 5, 78, 64
7, 180480, Note_off_c, 5, 61, 64
7, 180480, Note_off_c, 5, 75, 64
7, 180480, Note_off_c, 5, 59, 64
7, 180640, Note_off_c, 5, 61, 64
7, 180672, Note_off_c, 5, 59, 64
7, 180864, Note_off_c, 5, 63, 64
7, 180864, Note_on_c, 5, 61, 96
7, 180864, Note_on_c, 5, 61, 96
7, 180872, Note_off_c, 5, 63, 64
7, 181248, Note_off_c, 5, 59, 64
7, 181248, Note_on_c, 5, 59, 110
7, 181472, Note_on_c, 5, 59, 96
7, 184320, Note_on_c, 5, 59, 96
7, 184320, Note_on_c, 5, 73, 88
7, 184928, Note_off_c, 5, 61, 64
7, 185088, Note_off_c, 5, 78, 64
7, 185216, Note_on_c, 5, 61, 64
7, 185280, Note_on_c, 5, 61, 64
7, 185280, Note_on_c, 5, 59, 64
7, 185488, Note_off_c, 5, 59, 64
7, 185600, Note_on_c, 5, 59, 110
7, 186048, Note_on_c, 5, 78, 110
7, 186240, Control_c, 5, 7, 90
7, 186240, Note_on_c, 5, 78, 110
7, 186368, Note_on_c, 5, 78, 96
7, 186560, Note_off_c, 5, 61, 64
7, 186624, Note_on_c, 5, 63, 64
7, 186624, Note_on_c, 5, 61, 96
7, 186720, Note_off_c, 5, 61, 64
7, 187776, Note_on_c, 5, 59, 96
7, 187968, Note_on_c, 5, 59, 96
7, 188224, Note_off_c, 5, 63, 64
7, 188352, Note_off_c, 5, 59, 64
7, 189280, Note_off_c, 5, 70, 64
7, 189500, Note_on_c, 5, 59, 96
7, 189696, Note_off_c, 5, 59, 64
7, 189696, Note_off_c, 5, 59, 64
7, 190048, Note_on_c, 5, 87, 110
7, 190080, Note_off_c, 5, 78, 64
7, 190080, Note_on_c, 5, 61, 64
7, 190080, Note_off_c, 5, 75, 64
7, 190208, Note_on_c, 3, 45, 110
7, 190240, Note_on_c, 5, 78, 110
7, 190272, Note_off_c, 5, 61, 64
7, 190464, Note_off_c, 5, 73, 64
7, 190464, Note_on_c, 5, 73, 110
7, 190672, Note_on_c, 5, 73, 110
7, 190672, Note_off_c, 5, 78, 64
7, 190688, Note_on_c, 5, 73, 80
7, 190688, Note_on_c, 5, 76, 110
7, 190768, Note_on_c, 5, 78, 110
7, 190944, Note_off_c, 5, 78, 64
7, 191232, Note_off_c, 5, 75, 64
7, 191296, Note_on_c, 5, 76, 110
7, 191584, Note_on_c, 5, 73, 88
7, 191616, Note_on_c, 5, 73, 110
7, 191616, Note_on_c, 5, 76, 110
7, 191680, Note_on_c, 5, 78, 64
7, 191816, Note_on_c, 7, 78, 110
7, 192000, Note_off_c, 5, 73, 64
7, 192000, Note_on_c, 5, 76, 110
7, 192000, Note_off_c, 5, 71, 64
7, 192000, Note_on_c, 5, 78, 110
7, 192096, Note_on_c, 5, 76, 9
7, 192160, Note_on_c, 5, 75, 110
7, 192160, Note_off_c, 5, 73, 64
7, 192160, Note_off_c, 5, 83, 64
7, 192160, Note_off_c, 7, 79, 64
7, 192192, Note_off_c, 5, 71, 64
7, 192352, Note_off_c, 5, 76, 64
7, 192560, Note_off_c, 5, 76, 64
7, 192576, Note_off_c, 5, 76, 64
7, 192576, Note_off_c, 5, 76, 64
7, 192608, Note_on_c, 5, 59, 110
7, 192672, Note_on_c, 5, 71, 110
7, 192768, Note_off_c, 5, 76, 64
7, 192768, Note_off_c, 5, 78, 64
7, 192960, Note_on_c, 7, 71, 110
7, 193120, Note_on_c, 5, 78, 110
7, 193120, Note_on_c, 5, 73, 110
7, 193248, Note_on_c, 5, 75, 110
7, 193344, Note_on_c, 5, 78, 96
7, 193344, Note_on_c, 5, 78, 110
7, 193344, Note_on_c, 3, 44, 110
7, 193536, Note_on_c, 5, 76, 72
7, 193536, Note_off_c, 5, 78, 64
7, 193536, Note_off_c, 5, 76, 64
7, 193536, Note_off_c, 5, 75, 64
7, 193536, Note_on_c, 5, 68, 96
7, 193536, Note_on_c, 5, 76, 110
7, 193728, Note_off_c, 5, 76, 64
7, 193728, Note_off_c, 5, 76, 64
7, 193728, Note_off_c, 5, 59, 64
7, 193728, Note_on_c, 5, 78, 110
7, 193728, Note_off_c, 5, 76, 64
7, 193792, Note_on_c, 5, 73, 110
7, 193888, Note_off_c, 5, 71, 64
7, 193920, Note_on_c, 5, 71, 110
7, 193920, Note_on_c, 5, 76, 110
7, 193920, Note_on_c, 5, 73, 110
7, 193920, Note_off_c, 5, 76, 64
7, 194080, Note_off_c, 5, 78, 64
7, 194080, Note_on_c, 5, 76, 110
7, 194112, Note_off_c, 5, 78, 64
7, 194112, Note_on_c, 5, 78, 110
7, 194112, Note_off_c, 5, 78, 64
7, 194144, Note_off_c, 5, 76, 64
7, 194160, Note_off_c, 5, 78, 64
7, 194304, Note_on_c, 5, 73, 75
7, 194304, Note_on_c, 5, 78, 110
7, 194304, Note_on_c, 5, 75, 110
7, 194304, Note_off_c, 5, 76, 64
7, 194368, Note_off_c, 5, 73, 64
7, 194368, Note_off_c, 5, 76, 64
7, 194368, Note_off_c, 5, 76, 64
7, 194400, Note_off_c, 5, 78, 64
7, 194432, Note_on_c, 5, 73, 110
7, 194464, Note_off_c, 5, 73, 64
7, 194496, Note_on_c, 5, 73, 110
7, 194592, Note_off_c, 5, 76, 64
7, 194688, Note_on_c, 5, 78, 110
7, 194688, Note_on_c, 5, 76, 88
7, 194688, Note_off_c, 5, 82, 64
7, 194688, Note_off_c, 5, 73, 64
7, 194784, Note_on_c, 5, 76, 110
7, 194848, Note_on_c, 5, 79, 110
7, 194880, Note_off_c, 5, 76, 64
7, 194880, Note_off_c, 5, 76, 64
7, 194880, Note_off_c, 5, 78, 64
7, 194880, Note_on_c, 5, 78, 64
7, 194880, Note_on_c, 5, 78, 110
7, 194880, Note_off_c, 5, 76, 64
7, 194880, Note_off_c, 5, 75, 64
7, 194880, Note_off_c, 5, 76, 64
7, 194880, Note_on_c, 5, 73, 64
7, 194880, Note_on_c, 5, 78, 110
7, 194880, Note_on_c, 5, 73, 86
7, 194912, Note_on_c, 5, 75, 110
7, 195072, Note_on_c, 5, 76, 110
7, 195168, Note_on_c, 5, 74, 110
7, 195264, Note_on_c, 5, 76, 100
7, 195264, Note_off_c, 5, 76, 64
7, 195264, Note_off_c, 5, 73, 64
7, 195456, Note_on_c, 5, 73, 86
7, 195568, Note_on_c, 5, 76, 110
7, 195648, Note_off_c, 5, 68, 64
7, 195648, Note_off_c, 5, 76, 64
7, 195648, Note_off_c, 5, 78, 64
7, 195648, Note_off_c, 5, 76, 64
7, 195648, Note_off_c, 5, 78, 64
7, 195744, Note_on_c, 9, 36, 110
7, 195808, Note_on_c, 5, 75, 110
7, 195808, Note_on_c, 5, 76, 110
7, 195840, Note_on_c, 5, 73, 110
7, 195840, Note_off_c, 5, 76, 64
7, 195840, Note_on_c, 5, 73, 110
7, 195840, Note_off_c, 5, 76, 64
7, 195840, Note_on_c, 5, 76, 110
7, 195840, Note_off_c, 5, 71, 64
7, 195840, Note_off_c, 5, 76, 64
7, 195840, Note_off_c, 5, 76, 64
7, 195872, Note_on_c, 7, 75, 110
7, 195872, Note_on_c, 5, 76, 110
7, 195872, Note_on_c, 5, 76, 110
7, 195872, Note_on_c, 5, 73, 110
7, 196000, Note_on_c, 5, 76, 110
7, 196032, Note_off_c, 5, 73, 64
7, 196104, Note_on_c, 5, 73, 86
7, 196128, Note_off_c, 7, 84, 110
7, 196128, Note_off_c, 5, 83, 64
7, 196128, Note_off_c, 5, 64, 64
7, 196176, Note_off_c, 5, 73, 64
7, 196608, Note_off_c, 5, 78, 64
7, 196608, Note_on_c, 5, 78, 110
7, 196608, Note_on_c, 5, 76, 88
7, 196608, Control_c, 5, 78, 80
7, 196608, Note_on_c, 5, 73, 86
7, 196608, Note_on_c, 5, 78, 110
7, 196608, Note_off_c, 5, 73, 64
7, 196608, Note_on_c, 5, 78, 110
7, 196608, Note_on_c, 5, 61, 96
7, 196676, Note_off_c, 5, 76, 64
7, 196704, Note_on_c, 5, 76, 110
7, 196704, Note_on_c, 5, 76, 110
7, 196736, Note_on_c, 5, 78, 110
7, 196832, Note_on_c, 5, 73, 110
7, 196832, Note_off_c, 5, 76, 64
7, 196928, Note_on_c, 5, 76, 110
7, 198112, Note_off_c, 5, 76, 64
7, 198528, Note_off_c, 5, 78, 64
7, 198560, Note_on_c, 5, 78, 110
7, 198784, Note_on_c, 5, 75, 110
7, 198912, Note_on_c, 5, 78, 96
7, 198944, Note_on_c, 9, 36, 110
7, 198944, Note_off_c, 5, 78, 64
7, 199456, Note_on_c, 5, 64, 64
7, 199520, Note_off_c, 5, 76, 64
7, 199552, Note_on_c, 5, 78, 110
7, 199680, Note_on_c, 5, 73, 64
7, 200032, Note_off_c, 5, 80, 64
7, 200640, Note_on_c, 7, 70
7, 201088, Note_on_c, 5, 78, 110
7, 201760, Note_on_c, 5, 73, 80
7, 201984, Note_off_c, 5, 88, 64
7, 202560, Note_on_c, 5, 76, 110
7, 202560, Note_off_c, 5, 61, 64
7, 202752, Note_on_c, 5, 78, 110
7, 204672, Note_off_c, 5, 78, 64
7, 204864, Note_on_c, 5, 76, 110
7, 205024, Note_off_c, 5, 71, 64
7, 205024, Note_off_c, 5, 76, 64
7, 205056, Note_off_c, 5, 68, 64
7, 205056, Note_on_c, 5, 76, 110
7, 205056, Note_on_c, 5, 61, 64
7, 205248, Note_off_c, 5, 78, 64
7, 205440, Note_off_c, 5, 57, 64
7, 205568, Note_on_c, 5, 78, 64
7, 205616, Note_off_c, 5, 73, 64
7, 206016, Note_off_c, 5, 76, 64
7, 206496, Note_on_c, 5, 64, 86
7, 206560, Note_off_c, 5, 78, 64
7, 206560, Note_off_c, 3, 44, 64
7, 206608, Note_off_c, 5, 88, 64
7, 206752, Note_on_c, 5, 64, 64
7, 206768, Note_on_c, 5, 71, 111
7, 207168, Note_off_c, 5, 76, 64
7, 207360, Note_on_c, 5, 80, 104
7, 208096, Note_on_c, 5, 90, 120
7, 208128, Note_on_c, 5, 73, 88
7, 208160, Note_off_c, 5, 73, 64
7, 208512, Note_on_c, 5, 83, 124
7, 208768, Note_off_c, 5, 76, 64
7, 208800, Note_on_c, 5, 80, 110
7, 208800, Note_on_c, 5, 78, 96
7, 208896, Note_off_c, 5, 67, 64
7, 208896, Note_on_c, 5, 81, 110
7, 208896, Note_off_c, 5, 78, 64
7, 208896, Note_off_c, 5, 76, 64
7, 208960, Note_on_c, 5, 85, 120
7, 209280, Note_off_c, 5, 64, 64
7, 209600, Note_on_c, 5, 68, 64
7, 209888, Note_on_c, 5, 61, 96
7, 209920, Note_on_c, 5, 61, 64
7, 210240, Note_off_c, 5, 61, 64
7, 210240, Note_on_c, 5, 61, 96
7, 210464, Note_on_c, 5, 61, 96
7, 210528, Note_off_c, 5, 61, 64
7, 210720, Note_off_c, 5, 61, 64
7, 211200, Note_off_c, 5, 61, 64
7, 211232, Note_on_c, 5, 61, 96
7, 211776, Note_on_c, 5, 61, 96
7, 211776, Note_off_c, 5, 61, 64
7, 212032, Note_off_c, 5, 61, 64
7, 212064, Note_on_c, 5, 61, 110
7, 212096, Note_on_c, 5, 61, 64
7, 212240, Note_on_c, 5, 61, 96
7, 212352, Note_on_c, 5, 61, 96
7, 212384, Note_on_c, 5, 61, 110
7, 212544, Note_off_c, 5, 61, 64
7, 212544, Note_off_c, 5, 61, 64
7, 212576, Note_off_c, 7, 75, 64
7, 212672, Note_on_c, 5, 59, 96
7, 212768, Note_on_c, 5, 61, 96
7, 212832, Note_on_c, 5, 61, 64
7, 213024, Note_off_c, 5, 61, 64
7, 213280, Note_on_c, 5, 61, 64
7, 213504, Note_on_c, 5, 61, 96
7, 213504, Note_off_c, 5, 61, 64
7, 213504, Control_c, 5, 7, 90
7, 214048, Note_off_c, 5, 61, 64
7, 214272, Note_off_c, 5, 61, 64
7, 214336, Note_off_c, 5, 61, 64
7, 214368, Note_off_c, 5, 61, 64
7, 214672, Note_on_c, 5, 61, 96
7, 214848, Note_on_c, 5, 59, 110
7, 215040, Note_on_c, 5, 61, 64
7, 215040, Note_off_c, 5, 61, 64
7, 215040, Note_on_c, 5, 61, 96
7, 215232, Note_on_c, 5, 76, 96
7, 215424, Note_off_c, 5, 61, 64
7, 215520, Note_on_c, 5, 59, 96
7, 215616, Note_on_c, 5, 61, 110
7, 215680, Note_on_c, 5, 61, 64
7, 216000, Note_off_c, 5, 61, 64
7, 216000, Note_on_c, 5, 61, 96
7, 216000, Note_off_c, 5, 61, 64
7, 216032, Note_off_c, 5, 61, 64
7, 216192, Note_off_c, 5, 61, 64
7, 216352, Note_on_c, 5, 61, 110
7, 216384, Note_off_c, 5, 61, 64
7, 216384, Note_on_c, 5, 61, 96
7, 216672, Note_off_c, 5, 59, 64
7, 216960, Note_on_c, 5, 61, 96
7, 217056, Note_off_c, 5, 59, 64
7, 217328, Note_on_c, 5, 59, 96
7, 217504, Note_off_c, 5, 59, 64
7, 217632, Note_off_c, 5, 59, 64
7, 217632, Note_off_c, 5, 61, 64
7, 217888, Note_on_c, 5, 61, 96
7, 218080, Note_off_c, 5, 61, 64
7, 218304, Note_on_c, 5, 61, 96
7, 218688, Note_off_c, 5, 61, 64
7, 218704, Note_off_c, 5, 59, 64
7, 218880, Note_on_c, 5, 61, 96
7, 219040, Note_on_c, 5, 61, 64
7, 219168, Note_on_c, 5, 61, 96
7, 219264, Note_off_c, 5, 61, 64
7, 219264, Note_on_c, 5, 59, 96
7, 219264, Note_on_c, 5, 61, 96
7, 219264, Note_off_c, 5, 61, 64
7, 219264, Note_off_c, 5, 61, 64
7, 219360, Note_off_c, 5, 61, 64
7, 219424, Note_off_c, 5, 61, 64
7, 219456, Note_off_c, 5, 61, 64
7, 219456, Note_on_c, 5, 61, 96
7, 219552, Control_c, 5, 7, 90
7, 219664, Note_on_c, 5, 61, 64
7, 219768, Note_off_c, 5, 61, 64
7, 220624, Note_on_c, 5, 61, 72
7, 220992, Note_off_c, 5, 61, 64
7, 221760, Note_off_c, 5, 61, 64
7, 223104, Control_c, 5, 7, 90
7, 223168, Control_c, 5, 7, 48
7, 224544, Note_on_c, 5, 59, 64
7, 224544, Note_on_c, 5, 59, 96
7, 224672, Note_on_c, 5, 59, 96
7, 225728, Note_off_c, 5, 59, 64
7, 226656, Note_on_c, 5, 61, 96
7, 227136, Note_off_c, 5, 59, 64
7, 227232, Control_c, 5, 7, 66
7, 227520, Note_off_c, 5, 59, 64
7, 227616, Control_c, 5, 576, 73
7, 228176, Note_on_c, 5, 63, 96
7, 229728, Note_on_c, 5, 59, 96
7, 229728, Note_off_c, 5, 71, 64
7, 229728, Note_off_c, 5, 59, 64
7, 230016, Control_c, 5, 7, 62
7, 230304, Note_off_c, 5, 61, 64
7, 230304, Note_off_c, 5, 61, 64
7, 230560, Control_c, 5, 7, 11
7, 230944, Note_on_c, 5, 63, 110
7, 231072, Note_on_c, 7, 75, 86
7, 231168, Note_off_c, 5, 61, 64
7, 231264, Note_off_c, 5, 61, 64
7, 231264, Note_off_c, 5, 61, 64
7, 231264, Note_on_c, 5, 59, 96
7, 231352, Control_c, 5, 71, 42
7, 231360, Note_on_c, 5, 61, 110
7, 231552, Control_c, 5, 7, 54
7, 231552, Note_on_c, 5, 61, 61
7, 231552, Note_on_c, 5, 61, 110
7, 231672, Note_off_c, 5, 61, 64
7, 231744, Note_on_c, 5, 61, 110
7, 231840, Control_c, 5, 7, 63
7, 231936, Note_off_c, 5, 61, 64
7, 231936, Note_off_c, 5, 61, 64
7, 232096, Note_off_c, 5, 61, 64
7, 232128, Note_off_c, 5, 59, 64
7, 232192, Note_on_c, 5, 63, 110
7, 232224, Control_c, 5, 7, 49
7, 232224, Note_on_c, 5, 61, 110
7, 232320, Note_off_c, 5, 59, 64
7, 232320, Control_c, 5, 7, 46
7, 232352, Note_off_c, 5, 61, 64
7, 232416, Note_off_c, 5, 61, 64
7, 232608, Note_on_c, 5, 61, 78
7, 232800, Note_on_c, 5, 61, 96
7, 232896, Note_off_c, 5, 59, 64
7, 232896, Note_off_c, 5, 61, 64
7, 233088, Note_on_c, 5, 59, 110
7, 233088, Note_on_c, 5, 61, 110
7, 233184, Note_off_c, 5, 61, 64
7, 233344, Control_c, 5, 7, 47
7, 233376, Note_off_c, 5, 61, 64
7, 233472, Note_on_c, 5, 61, 96
7, 233472, Note_off_c, 5, 61, 64
7, 233472, Note_off_c, 5, 61, 64
7, 233568, Note_on_c, 5, 61, 110
7, 233568, Control_c, 5, 7, 58
7, 233600, Note_off_c, 5, 61, 64
7, 233664, Note_on_c, 5, 61, 110
7, 233664, Control_c, 5, 7, 44
7, 233952, Control_c, 5, 7, 47
7, 234016, Note_on_c, 5, 61, 64
7, 234016, Note_on_c, 5, 61, 96
7, 234016, Control_c, 5, 7, 81
7, 234048, Note_off_c, 5, 61, 64
7, 234048, Note_on_c, 5, 61, 110
7, 234112, Control_c, 5, 7, 48
7, 234112, Note_on_c, 5, 63, 95
7, 234144, Control_c, 5, 7, 40
7, 234240, Note_on_c, 5, 61, 96
7, 234240, Note_off_c, 5, 61, 64
7, 234240, Note_on_c, 5, 61, 110
7, 234240, Note_on_c, 5, 61, 96
7, 234240, Note_on_c, 5, 61, 110
7, 234336, Note_off_c, 5, 61, 64
7, 234432, Note_on_c, 5, 61, 110
7, 234432, Note_off_c, 5, 63, 64
7, 234432, Note_on_c, 5, 61, 70
7, 234432, Control_c, 5, 7, 31
7, 234432, Note_on_c, 5, 61, 96
7, 234624, Note_on_c, 5, 61, 110
7, 234624, Note_on_c, 4, 33, 110
7, 234720, Note_on_c, 5, 61, 110
7, 234848, Note_on_c, 5, 61, 64
7, 235008, Note_on_c, 5, 61, 96
7, 235008, Note_on_c, 5, 63, 23
7, 235200, Control_c, 5, 7, 42
7, 235264, Note_on_c, 5, 61, 64
7, 235264, Note_off_c, 5, 61, 64
7, 235296, Note_on_c, 5, 61, 110
7, 235296, Control_c, 5, 7, 52
7, 235328, Note_off_c, 5, 63, 64
7, 235360, Note_on_c, 5, 61, 110
7, 235392, Note_off_c, 5, 63, 64
7, 235488, Note_off_c, 5, 61, 64
7, 235488, Control_c, 5, 7, 37
7, 235584, Control_c, 5, 7, 5
7, 235680, Note_on_c, 5, 61, 110
7, 235680, Control_c, 5, 7, 44
7, 235680, Control_c, 5, 7, 53
7, 235744, Control_c, 5, 7, 22
7, 235776, Control_c, 5, 7, 57
7, 235968, Note_on_c, 5, 63, 110
7, 236032, Note_off_c, 5, 61, 64
7, 236032, Control_c, 5, 7, 41
7, 236048, Note_off_c, 5, 61, 64
7, 236048, Note_on_c, 5, 61, 110
7, 236064, Note_off_c, 0, 59, 64
7, 236160, Note_off_c, 5, 61, 64
7, 236160, Note_off_c, 5, 61, 64
7, 236160, Note_off_c, 5, 61, 64
7, 236192, Control_c, 5, 9, 46, 64
7, 236256, Note_on_c, 5, 61, 64
7, 236448, Note_off_c, 5, 61, 64
7, 236448, Note_off_c, 5, 61, 64
7, 236560, Control_c, 5, 7, 48
7, 236832, Control_c, 5, 7, 56
7, 236960, Control_c, 5, 7, 37
7, 236960, Note_off_c, 5,66, 64
7, 237024, Control_c, 6, 7, 27
7, 237216, Control_c, 5, 7, 46
7, 237312, Note_on_c, 5, 61, 96
7, 237408, Note_off_c, 5, 61, 64
7, 237440, Note_off_c, 5, 61, 64
7, 237696, Control_c, 5, 7, 31
7, 237696, Note_on_c, 5, 61, 64
7, 237824, Note_on_c, 4, 49, 110
7, 238016, Note_on_c, 5, 61, 110
7, 238080, Control_c, 5, 7, 42
7, 238240, Note_on_c, 5, 61, 110
7, 238272, Control_c, 5, 7, 48
7, 238432, Control_c, 5, 7, 53
7, 238464, Note_off_c, 5, 73, 64
7, 238464, Note_off_c, 5, 61, 64
7, 238560, Control_c, 5, 7, 46
7, 238560, Control_c, 5, 7, 17
7, 238768, Control_c, 5, 7, 40
7, 238848, Note_off_c, 5, 61, 64
7, 238944, Note_off_c, 5, 61, 64
7, 239328, Control_c, 5, 7, 41
7, 239328, Control_c, 5, 7, 42
7, 239360, Control_c, 5, 7, 41
7, 239520, Note_off_c, 5, 61, 64
7, 240000, Control_c, 5, 7, 65
7, 240096, Note_off_c, 5, 63, 64
7, 240256, Control_c, 4, 7, 6
7, 240896, Control_c, 5, 7, 51
7, 241344, Control_c, 5, 7, 36
7, 241920, Control_c, 5, 7, 28
7, 241920, Note_off_c, 4, 40, 64
7, 242208, Note_off_c, 5, 61, 64
7, 242496, Control_c, 5, 7, 47
7, 245440, Control_c, 5, 7, 45
7, 278784, Control_c, 3, 7, 14
7, 994592, Note_off_c, 1, 68, 64
7, 105361, Control_c, 3, 7, 43
7, 115292, Note_off_c, 9, 44, 64
7, 122817, Note_off_c, 0, 68, 64
7, 176640, Note_off_c, 8, 87, 64
7, 232624, Note_off_c, 4, 42, 64
7, 231168, Note_off_c, 5, 61, 64
7, 231424, Note_off_c, 5, 61, 64
7, 232224, Note_on_c, 5, 61, 96
7, 235312, Note_on_c, 5, 61, 110
7, 236448, Control_c, 5, 7, 56
7, 239264, Control_c, 5, 7, 48
7, 165217, Note_off_c, 9, 36, 64
7, 234944, Note_off_c, 1, 68, 64
8, 0, Control_c, 6, 10, 107
8, 0, Control_c, 1, 68, 110
8, 28, Note_off_c, 9, 36, 64
8, 144, 78, Note_off_c, 8, 85, 64
8, 576, Note_off_c, 6, 68, 64
8, 1152, Note_on_c, 0, 61, 110
8, 1728, Note_off_c, 6, 61, 64
8, 2304, Note_off_c, 7, 81, 64
8, 3072, Note_off_c, 0, 69, 64
8, 6624, Note_off_c, 6, 69, 64
8, 9408, Note_on_c, 8, 73, 71
8, 10048, Note_on_c, 6, 61, 81
8, 10560, Note_off_c, 6, 61, 64
8, 13632, Note_off_c, 6, 71, 64
8, 14080, Note_on_c, 6, 68, 110
8, 14208, Note_on_c, 6, 73, 110
8, 14208, Note_on_c, 6, 69, 110
8, 14400, Note_off_c, 7, 73, 64
8, 14400, Note_on_c, 6, 64, 96
8, 14400, Note_off_c, 6, 68, 64
8, 14592, Note_on_c, 6, 76, 110
8, 15840, Note_on_c, 6, 68, 64
8, 16096, Note_off_c, 6, 68, 66
8, 16096, Note_on_c, 6, 61, 81
8, 16512, Note_off_c, 6, 66, 64
8, 16688, Note_off_c, 6, 61, 64
8, 16896, Note_on_c, 4, 37, 110
8, 17280, Note_on_c, 6, 61, 81
8, 17280, Note_on_c, 6, 61, 81
8, 17856, Note_on_c, 6, 76, 110
8, 17888, Note_off_c, 6, 68, 64
8, 18048, Note_on_c, 6, 78, 110
8, 18080, Note_off_c, 6, 68, 64
8, 18240, Note_on_c, 2, 69, 96
8, 18432, Note_on_c, 6, 71, 110
8, 19808, Note_on_c, 8, 87, 117
8, 20992, Note_on_c, 5, 61, 96
8, 23232, Note_on_c, 6, 68, 110
8, 24192, Note_on_c, 6, 68, 110
8, 28000, Note_off_c, 6, 68, 64
8, 28128, Note_off_c, 6, 76, 64
8, 28416, Note_off_c, 6, 68, 64
8, 28720, Note_on_c, 6, 71, 64
8, 28928, Note_off_c, 6, 76, 64
8, 29440, Note_off_c, 6, 75, 64
8, 30336, Note_off_c, 6, 69, 64
8, 30528, Note_off_c, 6, 71, 64
8, 30720, Note_on_c, 6, 71, 64
8, 33024, Note_on_c, 6, 76, 110
8, 33184, Note_off_c, 6, 64, 64
8, 33216, Note_off_c, 6, 73, 64
8, 33600, Note_off_c, 6, 71, 64
8, 33792, Note_on_c, 6, 66, 64
8, 33792, Note_on_c, 6, 58, 64
8, 34368, Note_on_c, 6, 75, 110
8, 34560, Note_off_c, 0, 68, 64
8, 34560, Note_on_c, 6, 68, 110
8, 34720, Note_off_c, 6, 66, 64
8, 34944, Note_off_c, 6, 71, 64
8, 35108, Note_on_c, 6, 71, 110
8, 35120, Note_on_c, 6, 71, 64
8, 35136, Note_on_c, 6, 69, 110
8, 35136, Note_off_c, 6, 73, 64
8, 35520, Note_on_c, 6, 66, 64
8, 35632, Note_off_c, 6, 68, 64
8, 35712, Note_on_c, 6, 68, 64
8, 36064, Note_on_c, 6, 71, 110
8, 36672, Note_off_c, 2, 64, 64
8, 36672, Note_on_c, 6, 71, 110
8, 36864, Note_on_c, 6, 69, 110
8, 36928, Note_on_c, 6, 73, 64
8, 37712, Note_off_c, 6, 69, 64
8, 37888, Note_off_c, 6, 71, 64
8, 39168, Note_off_c, 6, 64, 64
8, 39712, Note_off_c, 6, 69, 64
8, 40128, Note_off_c, 6, 73, 64
8, 40320, Note_off_c, 6, 76, 64
8, 40896, Note_on_c, 6, 73, 110
8, 41088, Note_on_c, 6, 63, 110
8, 41664, Note_on_c, 6, 71, 110
8, 41856, Note_off_c, 6, 68, 64
8, 41856, Note_off_c, 6, 66, 64
8, 42336, Note_off_c, 6, 68, 64
8, 43504, Note_on_c, 8, 85, 64
8, 43680, Note_off_c, 6, 68, 64
8, 43808, Note_off_c, 6, 75, 64
8, 45312, Note_off_c, 6, 64, 64
8, 45888, Note_off_c, 6, 75, 64
8, 48576, Note_off_c, 6, 71, 64
8, 48960, Note_on_c, 6, 71, 64
8, 51264, Note_off_c, 6, 68, 64
8, 56160, Note_off_c, 6, 66, 64
8, 56640, Note_on_c, 7, 73, 86
8, 61664, Note_on_c, 6, 76, 110
8, 62208, Note_on_c, 0, 64, 110
8, 75264, Note_off_c, 9, 59, 64
8, 76896, Note_off_c, 6, 73, 64
8, 90880, Note_off_c, 2, 66, 64
8, 123072, Note_off_c, 6, 73, 64
8, 129600, Note_off_c, 6, 71, 64
8, 130368, Note_off_c, 6, 71, 64
8, 130944, Note_on_c, 6, 69, 110
8, 131328, Note_on_c, 6, 64, 64
8, 138240, Note_off_c, 6, 73, 64
8, 138432, Note_on_c, 6, 69, 110
8, 138816, Note_off_c, 6, 76, 64
8, 140160, Note_off_c, 6, 73, 64
8, 165792, Note_off_c, 6, 73, 64
8, 172800, Note_off_c, 6, 68, 64
8, 215040, Note_on_c, 6, 73, 110
8, 216064, Note_off_c, 6, 76, 64
8, 216576, Note_on_c, 6, 76, 110
8, 216672, Note_on_c, 6, 76, 110
8, 217824, Note_on_c, 6, 76, 110
8, 218112, Note_off_c, 6, 75, 64
8, 218464, Note_on_c, 6, 78, 110
8, 218688, Note_on_c, 6, 68, 81
8, 218784, Note_on_c, 6, 61, 81
8, 218888, Note_on_c, 6, 75, 110
8, 219040, Note_off_c, 6, 71, 64
8, 219168, Note_off_c, 6, 71, 64
8, 219456, Note_off_c, 6, 64, 64
8, 220736, Note_on_c, 6, 68, 110
8, 221952, Note_on_c, 6, 61, 64
8, 221952, Note_on_c, 6, 73, 110
8, 223104, Control_c, 6, 7, 49
8, 224224, Note_off_c, 6, 73, 64
8, 224256, Note_off_c, 6, 61, 64
8, 224560, Control_c, 6, 7, 45
8, 224928, Note_on_c, 6, 66, 64
8, 225024, Control_c, 6, 7, 4
8, 225600, Note_on_c, 6, 58, 64
8, 225600, Control_c, 6, 7, 46
8, 226176, Note_off_c, 6, 71, 64
8, 226368, Control_c, 6, 7, 55
8, 226464, Note_on_c, 6, 71, 64
8, 226752, Control_c, 6, 7, 46
8, 226752, Control_c, 6, 7, 52
8, 226944, Control_c, 6, 7, 19
8, 226944, Control_c, 6, 7, 53
8, 226976, Control_c, 6, 7, 55
8, 227136, Note_off_c, 6, 71, 64
8, 227424, Control_c, 6, 7, 50
8, 227520, Control_c, 6, 7, 2
8, 227520, Control_c, 6, 7, 36
8, 227520, Control_c, 6, 7, 64
8, 227712, Control_c, 6, 7, 59
8, 227808, Control_c, 6, 7, 5
8, 227808, Note_on_c, 6, 64, 64
8, 228288, Control_c, 6, 7, 13
8, 228480, Control_c, 6, 7, 46
8, 228576, Control_c, 9, 7, 88
8, 228672, Note_on_c, 6, 66, 64
8, 228768, Control_c, 6, 7, 23
8, 228768, Control_c, 6, 7, 14
8, 228896, Control_c, 6, 7, 18
8, 229024, Control_c, 6, 7, 41
8, 229056, Control_c, 6, 7, 50
8, 229056, Control_c, 6, 7, 52
8, 229248, Control_c, 6, 7, 88
8, 229536, Control_c, 6, 7, 44
8, 230016, Note_on_c, 6, 64, 64
8, 230016, Note_on_c, 6, 69, 64
8, 230016, Note_on_c, 6, 64, 64
8, 230080, Note_on_c, 6, 68, 64
8, 230080, Control_c, 6, 7, 38
8, 230176, Note_on_c, 6, 71, 110
8, 230200, Note_on_c, 6, 69, 64
8, 230208, Note_off_c, 6, 68, 64
8, 230240, Note_off_c, 6, 73, 64
8, 230400, Control_c, 6, 7, 46
8, 230400, Note_on_c, 6, 68, 64
8, 230400, Note_off_c, 6, 71, 64
8, 230464, Control_c, 6, 7, 11
8, 230624, Control_c, 6, 7, 40
8, 230784, Control_c, 6, 7, 27
8, 230784, Note_on_c, 6, 66, 64
8, 231072, Control_c, 6, 7, 64
8, 231072, Note_on_c, 6, 71, 64
8, 231072, Control_c, 6, 7, 32
8, 231168, Control_c, 6, 7, 63
8, 231168, Note_off_c, 6, 75, 64
8, 231168, Note_off_c, 6, 68, 64
8, 231168, Note_on_c, 6, 73, 110
8, 231168, Note_on_c, 6, 71, 110
8, 231168, Note_off_c, 6, 64, 64
8, 231264, Control_c, 6, 7, 34
8, 231264, Note_off_c, 6, 63, 64
8, 231360, Control_c, 6, 7, 66
8, 231360, Control_c, 6, 7, 21
8, 231360, Note_off_c, 6, 71, 64
8, 231360, Control_c, 6, 7, 52
8, 231552, Note_off_c, 6, 66, 64
8, 231552, Note_on_c, 6, 68, 64
8, 231552, Note_on_c, 6, 68, 64
8, 231616, Note_on_c, 6, 58, 64
8, 231648, Control_c, 6, 7, 24
8, 231648, Control_c, 6, 7, 80
8, 231656, Control_c, 6, 7, 21
8, 231680, Note_on_c, 6, 68, 110
8, 231744, Control_c, 6, 7, 18
8, 231744, Control_c, 6, 7, 27
8, 231744, Note_off_c, 6, 66, 64
8, 231744, Note_on_c, 6, 64, 64
8, 231744, Control_c, 6, 7, 41
8, 231744, Note_off_c, 6, 71, 64
8, 231904, Note_on_c, 6, 68, 64
8, 231904, Note_off_c, 6, 68, 64
8, 231936, Control_c, 6, 7, 31
8, 231936, Note_on_c, 6, 71, 64
8, 231936, Note_on_c, 6, 71, 35
8, 231936, Note_on_c, 6, 66, 64
8, 231968, Note_off_c, 6, 75, 64
8, 232032, Control_c, 6, 7, 14
8, 232128, Control_c, 6, 7, 46
8, 232128, Note_on_c, 6, 63, 64
8, 232192, Note_off_c, 0, 65, 64
8, 232320, Note_on_c, 6, 76, 110
8, 232320, Note_on_c, 6, 73, 64
8, 232320, Note_on_c, 6, 66, 64
8, 232320, Control_c, 6, 7, 44
8, 232512, Control_c, 6, 7, 32
8, 232512, Note_on_c, 6, 73, 110
8, 232512, Note_on_c, 6, 69, 64
8, 232512, Note_off_c, 6, 64, 64
8, 232528, Control_c, 6, 7, 35
8, 232608, Control_c, 6, 7, 41
8, 232704, Note_on_c, 6, 68, 64
8, 232712, Note_on_c, 6, 64, 110
8, 232800, Control_c, 6, 7, 59
8, 232832, Control_c, 2, 7, 46
8, 232896, Note_on_c, 6, 68, 64
8, 232896, Note_on_c, 6, 64, 64
8, 232896, Note_on_c, 6, 68, 64
8, 232896, Note_off_c, 6, 68, 64
8, 232896, Note_on_c, 6, 64, 64
8, 232896, Note_off_c, 6, 75, 64
8, 232896, Note_on_c, 6, 68, 64
8, 232992, Note_on_c, 6, 69, 64
8, 233088, Note_on_c, 6, 71, 110
8, 233088, Note_off_c, 6, 66, 64
8, 233088, Note_on_c, 6, 69, 110
8, 233184, Control_c, 6, 7, 49
8, 233280, Note_off_c, 6, 71, 64
8, 233280, Control_c, 6, 7, 23
8, 233472, Control_c, 7, 7, 41
8, 233568, Control_c, 6, 7, 41
8, 233760, Control_c, 6, 7, 11
8, 233856, Control_c, 6, 7, 30
8, 233872, Control_c, 6, 7, 27
8, 233952, Control_c, 6, 7, 44
8, 234016, Note_on_c, 6, 75, 110
8, 234048, Control_c, 6, 7, 51
8, 234240, Control_c, 6, 7, 41
8, 234240, Control_c, 6, 7, 42
8, 234272, Control_c, 6, 7, 30
8, 234432, Control_c, 6, 7, 21
8, 234432, Control_c, 6, 7, 41
8, 234432, Control_c, 6, 7, 39
8, 234528, Control_c, 6, 7, 22
8, 234528, Control_c, 6, 7, 64
8, 234720, Control_c, 6, 7, 38
8, 234720, Control_c, 6, 7, 30
8, 234816, Control_c, 6, 7, 22
8, 234848, Note_on_c, 6, 64, 64
8, 235072, Control_c, 6, 7, 2
8, 235072, Control_c, 6, 7, 32
8, 235104, Control_c, 6, 7, 41
8, 235200, Control_c, 6, 7, 31
8, 235296, Control_c, 6, 73, 64
8, 235488, Control_c, 6, 7, 16
8, 235584, Control_c, 6, 7, 34
8, 235776, Control_c, 6, 7, 44
8, 235904, Control_c, 6, 7, 27
8, 235968, Control_c, 6, 7, 110
8, 236128, Control_c, 6, 7, 46
8, 236256, Control_c, 6, 7, 47
8, 236448, Control_c, 6, 7, 15
8, 236544, Control_c, 6, 7, 21
8, 236544, Control_c, 6, 7, 37
8, 236544, Control_c, 6, 7, 25
8, 236544, Control_c, 6, 7, 27
8, 236544, Note_on_c, 6, 63, 110
8, 236640, Control_c, 6, 7, 22
8, 236736, Note_on_c, 6, 66, 110
8, 236736, Note_on_c, 6, 58, 64
8, 236960, Note_off_c, 6, 64, 64
8, 236960, Control_c, 6, 7, 49
8, 237024, Control_c, 6, 7, 19
8, 237504, Control_c, 6, 7, 49
8, 238240, Control_c, 6, 7, 21
8, 238272, Control_c, 6, 7, 32
8, 238752, Control_c, 6, 7, 67
8, 238848, Control_c, 6, 7, 29
8, 238944, Control_c, 2, 7, 31
8, 239040, Note_off_c, 6, 68, 64
8, 239040, Control_c, 6, 7, 13
8, 239360, Control_c, 6, 7, 33
8, 239808, Note_on_c, 6, 58, 64
8, 239808, Control_c, 6, 7, 22
8, 240096, Control_c, 6, 7, 11
8, 241408, Control_c, 6, 7, 18
8, 241536, Control_c, 6, 7, 5
8, 242080, Control_c, 6, 7, 51
8, 242208, Control_c, 6, 7, 41
8, 242400, Control_c, 6, 7, 43
8, 151049, Note_off_c, 4, 36, 64
8, 768, Note_off_c, 6, 68, 64
8, 4032, Note_off_c, 6, 71, 64
8, 5168, Note_off_c, 6, 61, 64
8, 5760, Note_off_c, 6, 68, 64
8, 6752, Note_on_c, 6, 76, 110
8, 7680, Note_off_c, 6, 69, 64
8, 9296, Note_on_c, 6, 71, 110
8, 12288, Note_on_c, 6, 69, 110
8, 13056, Note_off_c, 6, 67, 64
8, 28224, Note_off_c, 0, 67, 64
8, 28416, Note_off_c, 6, 73, 64
8, 29376, Note_on_c, 6, 68, 110
8, 45312, Note_on_c, 6, 71, 64
8, 50112, Note_off_c, 6, 75, 64
8, 52608, Note_on_c, 6, 71, 64
8, 89856, Note_on_c, 6, 71, 110
8, 123968, Note_off_c, 6, 71, 64
8, 135168, Note_off_c, 6, 66, 64
8, 220032, Note_off_c, 6, 71, 64
8, 226176, Note_off_c, 6, 71, 64
8, 230592, Note_off_c, 6, 66, 64
8, 241920, Note_off_c, 7, 73, 64
9, 0, Title_t, "Nob D4208, Note_off_c, 5, 61, 64
9, 0, Title_t, "Normnl 64
9, 57, 119552, Note_off_c, 4, 49, 64
9, 1004, 626032, Control_c, 7, 7, 100
9, 15744, Note_off_c, 0, 80, 64
9, 52728, Note_off_c, 7, 86, 64
9, 52800, Note_on_c, 7, 88, 110
9, 52800, Note_off_c, 7, 88, 64
9, 53152, Control_c, 7, 7, 100
9, 53184, Note_off_c, 7, 83, 64
9, 53568, Note_on_c, 7, 80, 91
9, 53664, Note_on_c, 7, 87, 108
9, 53760, Note_on_c, 7, 81, 110
9, 53760, Note_on_c, 7, 85, 107
9, 53792, Note_off_c, 7, 85, 64
9, 53792, Note_off_c, 7, 81, 64
9, 53792, Note_off_c, 7, 87, 64
9, 54528, Note_off_c, 5, 81, 64
9, 54752, Note_on_c, 7, 76, 81
9, 55008, Note_off_c, 7, 87, 64
9, 55104, Note_on_c, 7, 76, 86
9, 55296, Note_off_c, 7, 76, 64
9, 55392, Note_off_c, 7, 76, 64
9, 55456, Note_on_c, 7, 78, 110
9, 55488, Note_off_c, 7, 76, 64
9, 55584, Note_on_c, 7, 78, 91
9, 55584, Note_on_c, 7, 73, 86
9, 55680, Note_off_c, 7, 76, 64
9, 55680, Note_off_c, 7, 87, 64
9, 55680, Note_on_c, 7, 79, 86
9, 55808, Note_on_c, 7, 85, 108
9, 55840, Note_on_c, 7, 78, 110
9, 55872, Note_on_c, 7, 73, 86
9, 55872, Note_off_c, 7, 67, 64
9, 55872, Note_off_c, 7, 76, 64
9, 56064, Note_off_c, 7, 80, 64
9, 56256, Note_off_c, 7, 76, 64
9, 56640, Note_off_c, 7, 68, 64
9, 57024, Note_off_c, 7, 75, 64
9, 57520, Note_off_c, 7, 75, 64
9, 58368, Note_off_c, 7, 71, 64
9, 58560, Note_on_c, 7, 80, 108
9, 58944, Note_on_c, 7, 83, 110
9, 58944, Note_on_c, 7, 73, 86
9, 58944, Note_on_c, 7, 78, 91
9, 59136, Note_on_c, 7, 73, 86
9, 59328, Note_on_c, 7, 78, 110
9, 59520, Note_off_c, 5, 75, 64
9, 59520, Note_off_c, 7, 75, 64
9, 59648, Note_on_c, 7, 75, 119
9, 59704, Note_on_c, 7, 80, 110
9, 59712, Note_off_c, 7, 87, 64
9, 60032, Note_on_c, 7, 83, 118
9, 60064, Note_on_c, 7, 67, 86
9, 60288, Note_off_c, 7, 73, 64
9, 60320, Note_on_c, 7, 75, 86
9, 60416, Note_off_c, 7, 73, 64
9, 60768, Note_off_c, 7, 80, 64
9, 60864, Note_on_c, 7, 81, 108
9, 60864, Note_off_c, 7, 75, 64
9, 61024, Note_on_c, 7, 85, 107
9, 61056, Note_on_c, 7, 88, 47
9, 61120, Note_off_c, 7, 75, 64
9, 61664, Note_on_c, 7, 79, 89
9, 62496, Note_off_c, 7, 75, 64
9, 62592, Note_off_c, 7, 83, 64
9, 62608, Note_on_c, 7, 73, 86
9, 62784, Note_on_c, 7, 75, 86
9, 63744, Note_off_c, 7, 87, 64
9, 63760, Note_on_c, 7, 80, 91
9, 63760, Note_on_c, 2, 66, 110
9, 63776, Note_off_c, 7, 76, 64
9, 64128, Note_on_c, 7, 76, 78
9, 64128, Note_off_c, 7, 75, 64
9, 64512, Note_on_c, 7, 67, 86
9, 64512, Note_off_c, 7, 87, 64
9, 64704, Control_c, 8, 7, 100
9, 64896, Note_on_c, 7, 87, 110
9, 64896, Note_on_c, 7, 80, 86
9, 65088, Note_on_c, 7, 69, 86
9, 65184, Note_off_c, 7, 80, 64
9, 65280, Note_off_c, 7, 62, 64
9, 65664, Note_off_c, 7, 75, 64
9, 65856, Note_off_c, 7, 69, 64
9, 65888, Note_on_c, 7, 87, 110
9, 65888, Note_off_c, 7, 80, 64
9, 66224, Note_off_c, 7, 84, 64
9, 66240, Note_on_c, 7, 85, 108
9, 66240, Note_off_c, 7, 87, 64
9, 66240, Note_on_c, 7, 87, 108
9, 66432, Note_off_c, 7, 88, 64
9, 66624, Note_off_c, 7, 76, 64
9, 66624, Note_off_c, 7, 78, 64
9, 66624, Note_off_c, 7, 75, 64
9, 66624, Note_on_c, 7, 76, 81
9, 67168, Note_on_c, 7, 73, 86
9, 67200, Note_on_c, 7, 76, 86
9, 67200, Note_on_c, 7, 80, 110
9, 67200, Note_on_c, 7, 85, 108
9, 67584, Note_on_c, 7, 67, 86
9, 67584, Note_off_c, 7, 63, 64
9, 67584, Note_off_c, 7, 68, 64
9, 67616, Note_on_c, 7, 76, 86
9, 67776, Note_off_c, 7, 64, 64
9, 67776, Note_off_c, 7, 75, 64
9, 67776, Note_off_c, 7, 63, 64
9, 67808, Note_on_c, 7, 75, 86
9, 67968, Note_on_c, 7, 71, 86
9, 68128, Note_on_c, 7, 78, 91
9, 68336, Note_off_c, 7, 63, 64
9, 68736, Note_off_c, 7, 63, 64
9, 68736, Note_on_c, 7, 73, 110
9, 69088, Note_off_c, 7, 78, 64
9, 69888, Note_off_c, 7, 80, 64
9, 69888, Note_on_c, 7, 76, 86
9, 70080, Note_off_c, 7, 63, 64
9, 70656, Note_off_c, 7, 75, 64
9, 70880, Note_off_c, 7, 80, 64
9, 70880, Note_off_c, 7, 82, 64
9, 71040, Note_off_c, 7, 87, 64
9, 71040, Note_on_c, 7, 76, 69
9, 71224, Note_on_c, 8, 68, 86
9, 71232, Note_on_c, 7, 73, 75
9, 71424, Note_on_c, 7, 83, 108
9, 71808, Note_on_c, 7, 84, 110
9, 71824, Note_on_c, 7, 87, 110
9, 72128, Note_off_c, 7, 78, 64
9, 72192, Note_off_c, 7, 85, 64
9, 72384, Note_off_c, 7, 83, 64
9, 72608, Note_on_c, 7, 80, 108
9, 72800, Note_off_c, 7, 75, 64
9, 72960, Note_off_c, 7, 76, 64
9, 72960, Note_on_c, 7, 79, 86
9, 73152, Note_on_c, 7, 73, 86
9, 73344, Note_off_c, 7, 76, 64
9, 73536, Note_on_c, 7, 87, 110
9, 73536, Note_on_c, 7, 87, 110
9, 73632, Note_on_c, 7, 75, 86
9, 73920, Note_on_c, 5, 80, 120
9, 74112, Note_on_c, 7, 82, 86
9, 74416, Note_on_c, 7, 75, 110
9, 74688, Note_off_c, 7, 85, 64
9, 74880, Note_off_c, 7, 76, 64
9, 75072, Note_on_c, 7, 69, 89
9, 75456, Note_on_c, 7, 88, 110
9, 75456, Note_off_c, 7, 78, 64
9, 75456, Note_on_c, 7, 85, 110
9, 75648, Note_off_c, 7, 67, 64
9, 75664, Note_on_c, 7, 76, 86
9, 75872, Note_off_c, 7, 71, 64
9, 76224, Note_on_c, 7, 79, 89
9, 76224, Note_on_c, 7, 76, 81
9, 76480, Note_on_c, 7, 71, 86
9, 76608, Note_on_c, 7, 76, 81
9, 76736, Note_off_c, 7, 76, 64
9, 76832, Note_off_c, 7, 72, 64
9, 78304, Note_on_c, 7, 78, 91
9, 92960, Note_on_c, 7, 75, 110
9, 94880, Note_on_c, 7, 76, 110
9, 95232, Program_c, 7, 80, 64
9, 95424, Note_on_c, 7, 73, 110
9, 95424, Note_on_c, 7, 75, 110
9, 95424, Note_on_c, 7, 78, 110
9, 95616, Note_off_c, 7, 78, 64
9, 95808, Note_off_c, 7, 78, 64
9, 95808, Note_on_c, 7, 73, 110
9, 95808, Note_off_c, 7, 75, 64
9, 95840, Note_off_c, 7, 76, 64
9, 96000, Note_off_c, 7, 75, 64
9, 96000, Note_off_c, 7, 75, 64
9, 96000, Note_off_c, 7, 76, 64
9, 96016, Note_on_c, 7, 78, 110
9, 96224, Note_on_c, 7, 78, 110
9, 96360, Note_on_c, 7, 78, 110
9, 96384, Note_off_c, 7, 75, 64
9, 96384, Note_off_c, 7, 67, 64
9, 96384, Note_off_c, 7, 76, 64
9, 96416, Note_on_c, 7, 73, 110
9, 96576, Note_on_c, 7, 88, 110
9, 96576, Note_on_c, 7, 73, 110
9, 96576, Note_on_c, 7, 95, 110
9, 96576, Note_on_c, 7, 75, 110
9, 96608, End_track
9, 96608, Note_on_c, 7, 73, 110
9, 96672, Note_on_c, 7, 83, 110
9, 96672, Note_off_c, 7, 69, 64
9, 96672, Note_on_c, 7, 76, 83
9, 96704, Note_off_c, 7, 76, 64
9, 96768, Note_on_c, 7, 76, 78
9, 96768, Note_off_c, 7, 78, 64
9, 96768, Note_on_c, 7, 73, 110
9, 97248, Note_on_c, 7, 76, 91
9, 97344, Note_off_c, 7, 75, 64
9, 97344, Note_off_c, 7, 76, 64
9, 97504, Note_on_c, 7, 73, 110
9, 97536, Note_off_c, 7, 71, 64
9, 97536, Note_off_c, 7, 75, 64
9, 97632, Note_on_c, 7, 75, 108
9, 97728, Note_off_c, 7, 75, 64
9, 97744, Note_on_c, 7, 71, 110
9, 97824, Note_off_c, 0, 75, 64
9, 97840, Note_on_c, 7, 75, 110
9, 98304, Note_off_c, 7, 76, 64
9, 98368, Note_off_c, 7, 75, 64
9, 98416, Note_on_c, 7, 78, 110
9, 98496, Note_off_c, 7, 75, 64
9, 98560, Note_on_c, 7, 76, 110
9, 98560, Note_off_c, 7, 76, 64
9, 98688, Note_on_c, 7, 73, 110
9, 98880, Note_off_c, 7, 78, 64
9, 98912, Note_on_c, 7, 71, 110
9, 99040, Note_on_c, 7, 75, 110
9, 99040, Note_on_c, 7, 76, 110
9, 99232, Note_off_c, 5, 61, 64
9, 99264, Note_off_c, 7, 76, 64
9, 99360, Note_on_c, 7, 75, 110
9, 99424, Note_off_c, 7, 78, 64
9, 99424, Note_off_c, 7, 76, 64
9, 99440, Note_off_c, 5, 78, 64
9, 99456, Note_on_c, 7, 76, 110
9, 99456, Note_on_c, 7, 78, 110
9, 99648, Note_off_c, 5, 76, 64
9, 99648, Note_on_c, 7, 70, 64
9, 99648, Note_off_c, 7, 76, 64
9, 99648, Note_on_c, 7, 78, 110
9, 99648, Note_on_c, 7, 75, 110
9, 99648, Note_off_c, 7, 78, 64
9, 99872, Note_off_c, 7, 75, 64
9, 99872, Note_on_c, 7, 78, 110
9, 100320, Note_off_c, 64, 52, 62
9, 100608, Note_off_c, 3, 43, 64
9, 100928, Note_off_c, 7, 83, 64
9, 100992, Note_on_c, 7, 85, 110
9, 103680, Note_on_c, 7, 81, 110
9, 105680, Note_off_c, 7, 85, 64
9, 111472, Note_off_c, 6, 76, 64
9, 114240, Note_off_c, 7, 83, 64
9, 138240, Note_off_c, 7, 76, 64
9, 141312, Note_on_c, 7, 76, 91
9, 144416, Note_on_c, 8, 84, 86
9, 146688, Note_off_c, 8, 80, 64
9, 147440, Note_off_c, 7, 76, 64
9, 148000, Note_off_c, 7, 78, 64
9, 148000, Note_on_c, 7, 88, 110
9, 148832, Note_on_c, 7, 88, 108
9, 149760, Note_off_c, 7, 85, 64
9, 150144, Note_on_c, 7, 69, 86
9, 150144, Note_off_c, 7, 76, 64
9, 150176, Note_on_c, 7, 76, 86
9, 150304, Note_on_c, 7, 71, 89
9, 150528, Note_on_c, 7, 73, 86
9, 150720, Note_on_c, 7, 79, 86
9, 150720, Note_off_c, 7, 83, 64
9, 150720, Note_on_c, 7, 76, 7u
9, 151168, Note_off_c, 7, 76, 64
9, 151360, Note_on_c, 7, 76, 86
9, 151680, Note_off_c, 7, 76, 64
9, 151680, Note_off_c, 7, 81, 64
9, 151744, Note_off_c, 7, 68, 64
9, 152032, Note_on_c, 7, 69, 86
9, 152064, Note_on_c, 7, 71, 86
9, 152448, Note_off_c, 7, 75, 64
9, 152480, Note_off_c, 7, 63, 64
9, 152832, Note_off_c, 7, 81, 64
9, 152864, Note_on_c, 7, 76, 86
9, 153024, Note_on_c, 7, 75, 74
9, 153056, Note_on_c, 7, 76, 86
9, 153600, Note_off_c, 7, 78, 64
9, 153600, Note_off_c, 7, 76, 64
9, 153600, Note_off_c, 7, 69, 64
9, 153600, Note_off_c, 7, 75, 64
9, 153792, Note_on_c, 7, 76, 110
9, 153824, Note_off_c, 7, 71, 64
9, 153920, Note_on_c, 7, 76, 86
9, 154016, Note_on_c, 7, 76, 86
9, 154176, Note_off_c, 7, 71, 64
9, 154360, Note_off_c, 7, 87, 64
9, 154368, Note_on_c, 7, 76, 76
9, 154848, Note_on_c, 7, 87, 111
9, 155520, Note_on_c, 7, 80, 44
9, 155520, Note_on_c, 7, 76, 86
9, 155712, Note_off_c, 7, 76, 64
9, 155712, Note_off_c, 7, 52, 64
9, 156032, Note_on_c, 7, 76, 110
9, 156192, Note_off_c, 7, 87, 64
9, 156288, Note_on_c, 7, 76, 86
9, 156288, Note_off_c, 7, 87, 64
9, 156288, Note_off_c, 7, 83, 64
9, 156288, Note_on_c, 7, 78, 91
9, 156288, Note_off_c, 7, 78, 64
9, 156288, Note_off_c, 7, 76, 64
9, 156288, Note_on_c, 7, 76, 81
9, 156480, Note_on_c, 7, 71, 86
9, 156672, Note_on_c, 7, 80, 91
9, 156672, Note_on_c, 7, 76, 86
9, 156672, Note_off_c, 6, 73, 64
9, 156672, Note_on_c, 7, 88, 110
9, 156672, Note_off_c, 7, 76, 64
9, 156672, Note_off_c, 7, 78, 64
9, 156672, Note_off_c, 7, 76, 64
9, 156672, Note_off_c, 7, 67, 64
9, 156672, Note_on_c, 7, 49, 110
9, 156672, Note_off_c, 7, 69, 64
9, 156768, Note_on_c, 7, 88, 108
9, 156768, Note_off_c, 7, 76, 64
9, 157024, Note_off_c, 7, 71, 64
9, 157024, Note_on_c, 7, 76, 86
9, 157024, Note_off_c, 7, 75, 64
9, 157120, Note_off_c, 7, 76, 64
9, 157248, Note_on_c, 7, 76, 86
9, 157440, Note_off_c, 7, 76, 64
9, 157440, Note_on_c, 7, 73, 86
9, 157440, Note_on_c, 7, 79, 89
9, 157632, Note_on_c, 7, 87, 110
9, 157792, Note_on_c, 7, 67, 86
9, 157824, Note_off_c, 7, 71, 64
9, 157824, Note_off_c, 7, 68, 64
9, 158784, Note_off_c, 7, 76, 64
9, 158784, Note_on_c, 7, 63, 86
9, 159040, Note_off_c, 7, 75, 64
9, 159712, Note_off_c, 7, 67, 64
9, 159744, Note_on_c, 7, 81, 110
9, 159744, Note_off_c, 7, 79, 64
9, 160320, Note_on_c, 7, 92, 110
9, 160416, Note_off_c, 7, 75, 64
9, 160704, Note_on_c, 7, 81, 101
9, 160896, Note_on_c, 7, 88, 110
9, 161248, Note_off_c, 7, 76, 64
9, 161280, Note_off_c, 7, 84, 64
9, 161728, Note_on_c, 7, 75, 86
9, 161856, Note_off_c, 7, 76, 64
9, 162720, Note_on_c, 7, 83, 86
9, 162816, Note_on_c, 7, 73, 71
9, 162816, Note_on_c, 7, 83, 111
9, 162816, Note_off_c, 7, 79, 64
9, 163104, Note_off_c, 7, 75, 64
9, 163200, Note_off_c, 7, 63, 64
9, 163296, Note_on_c, 7, 73, 86
9, 163296, Note_on_c, 7, 63, 86
9, 163300, Note_on_c, 7, 67, 80
9, 163520, Note_off_c, 7, 87, 64
9, 163584, Note_off_c, 7, 81, 64
9, 163584, Note_off_c, 7, 73, 64
9, 163680, Note_off_c, 7, 71, 64
9, 163968, Note_on_c, 7, 73, 86
9, 164336, Note_off_c, 6, 75, 64
9, 164352, Note_off_c, 7, 63, 64
9, 164736, Note_off_c, 7, 63, 64
9, 165824, Note_off_c, 7, 81, 64
9, 166048, Note_on_c, 7, 88, 110
9, 166664, Note_off_c, 7, 83, 64
9, 166848, Note_on_c, 7, 78, 91
9, 167232, Note_on_c, 7, 68, 86
9, 167328, Note_on_c, 7, 81, 110
9, 167616, Note_on_c, 7, 83, 108
9, 167616, Note_off_c, 7, 83, 64
9, 168160, Note_on_c, 7, 82, 86
9, 169120, Note_off_c, 7, 85, 64
9, 169152, Note_on_c, 7, 75, 77
9, 169568, Note_on_c, 7, 87, 108
9, 169920, Note_on_c, 7, 80, 91
9, 170304, Note_on_c, 7, 76, 110
9, 170688, Note_off_c, 7, 76, 64
9, 170688, Note_off_c, 0, 73, 64
9, 171840, Note_on_c, 7, 110
9, 176064, Note_on_c, 7, 79, 89
9, 190048, Note_on_c, 7, 76, 110
9, 190080, Note_on_c, 7, 78, 110
9, 190464, Note_off_c, 7, 76, 64
9, 190464, Note_off_c, 7, 76, 64
9, 190464, Note_off_c, 7, 75, 110
9, 190720, Note_off_c, 7, 78, 64
9, 191040, Note_off_c, 7, 75, 64
9, 191264, Note_on_c, 7, 87, 110
9, 191616, Note_on_c, 7, 76, 110
9, 191616, Note_on_c, 7, 75, 110
9, 192384, Note_off_c, 7, 76, 64
9, 192576, Note_off_c, 7, 76, 64
9, 192768, Note_off_c, 7, 76, 64
9, 192768, Note_off_c, 7, 76, 64
9, 192800, Note_off_c, 7, 83, 64
9, 193536, Note_on_c, 5, 69, 96
9, 193536, Note_off_c, 7, 78, 64
9, 193728, Note_off_c, 5, 73, 64
9, 193824, Note_on_c, 7, 78, 91
9, 193824, Note_off_c, 7, 78, 64
9, 193824, Note_on_c, 7, 76, 110
9, 193920, Note_on_c, 7, 75, 110
9, 194112, Note_on_c, 7, 82, 110
9, 194112, Note_off_c, 7, 78, 64
9, 194208, Note_off_c, 5, 75, 6S
9, 194304, Note_on_c, 7, 85, 110
9, 194304, Note_off_c, 7, 75, 64
9, 194496, Note_on_c, 7, 78, 110
9, 194496, Note_off_c, 7, 75, 64
9, 194496, Note_on_c, 7, 78, 110
9, 194688, Note_on_c, 7, 78, 110
9, 194688, Note_off_c, 7, 76, 64
9, 194688, Note_off_c, 4, 83, 64
9, 194712, Note_off_c, 1, 71, 64
9, 194880, Note_on_c, 7, 784
9, 195264, Note_on_c, 7, 75, 110
9, 195264, Note_off_c, 7, 78, 64
9, 195424, Note_on_c, 9, 38, 110
9, 195616, Note_off_c, 9, 59, 64
9, 195648, Note_on_c, 7, 76, 110
9, 195648, Note_on_c, 7, 73, 110
9, 195744, Note_off_c, 7, 71, 64
9, 195840, Note_on_c, 7, 78, 110
9, 196000, Note_off_c, 7, 75, 64
9, 196128, Note_on_c, 7, 78, 110
9, 196192, Note_off_c, 7, 76, 64
9, 196224, Note_on_c, 7, 88, 110
9, 196320, Note_on_c, 7, 81, 110
9, 196448, Note_off_c, 7, 88, 64
9, 196608, Note_off_c, 7, 78, 64
9, 20732, Note_on_c, 7, 64, 64
9, 53280, Note_off_c, 7, 82, 64
9, 54272, Note_on_c, 7, 76, 86
9, 63772, Note_on_c, 7, 76, 86
9, 63968, Note_off_c, 7, 87, 64
9, 64512, Control_c, 7, 7, 107
9, 65664, Note_off_c, 7, 88, 64
9, 73728, Note_on_c, 7, 88, 116
9, 75264, Note_on_c, 7, 75, 86
9, 75648, Note_off_c, 7, 63, 64
9, 162432, Note_on_c, 7, 67, 96
9, 196608, Note_on_c, 7, 78, 110
9, 196608, Note_off_c, 7, 83, 64
9, 196608, Note_on_c, 7, 88, 110
9, 196608, Note_off_c, 7, 87, 64
9, 196608, Note_off_c, 7, 82, 64
9, 196608, Note_on_c, 7, 88, 110
9, 196608, Note_off_c, 7, 85, 64
9, 196608, Note_off_c, 7, 85, 64
9, 196608, Note_on_c, 7, 78, 110
9, 196608, Note_off_c, 7, 78, 64
9, 196732, Note_off_c, 6, 76, 64
9, 197920, Note_on_c, 7, 67, 110
9, 199040, Note_off_c, 7, 75, 64
9, 201216, Note_on_c, 7, 87, 107
9, 204672, Note_off_c, 7, 88, 64
9, 205024, Note_off_c, 7, 76, 64
9, 205408, Note_off_c, 7, 90, 64
9, 205440, Note_off_c, 9, 46, 64
9, 205824, Note_on_c, 7, 79, 110
9, 207136, Note_on_c, 7, 73, 86
9, 209056, Note_off_c, 5, 76, 64
9, 57984, Note_on_c, 7, 82, 86
9, 62400, Note_on_c, 7, 79, 89
9, 63168, Note_off_c, 7, 80, 64
9, 63552, Note_off_c, 7, 68, 64
9, 63552, Note_on_c, 7, 68, 91
9, 65248, Note_on_c, 7, 67, 86
9, 65440, Note_on_c, 7, 73, 86
9, 66624, Note_off_c, 7, 75, 81
9, 67392, Note_off_c, 7, 71, 64
9, 73344, Note_on_c, 10, 63, 82
9, 75872, Note_off_c, 7, 75, 64
9, 77248, Note_off_c, 7, 76, 64
9, 77920, Note_on_c, 7, 81, 108
9, 209280, Note_on_c, 7, 90, 110
9, 216384, Note_off_c, 9, 44, 64
9, 243072, Note_off_c, 7, 76, 64
9, 157824, Control_c, 3, 7, 7
10, 0, Control_c, 1, 10, 64
10, 0, Control_c, 0, 10
10, 0, Note_on_c, 8, 63, 86
10, 76, Note_on_c, 9, 36, 110
10, 5376, Note_on_c, 0, 80, 110
10, 15456, Note_on_c, 5, 76, 96
10, 20272, Note_off_c, 0, 80, 64
10, 50816, Note_on_c, 8, 76, 110
10, 52416, Note_off_c, 8, 76, 64
10, 52704, Note_on_c, 8, 76, 110
10, 52800, Note_off_c, 8, 80, 64
10, 52800, Note_on_c, 8, 76, 110
10, 52800, Note_off_c, 8, 80, 64
10, 52832, Note_off_c, 8, 73, 64
10, 53184, Note_on_c, 8, 78, 110
10, 53184, Note_on_c, 8, 78, 110
10, 53184, Note_off_c, 8, 75, 64
10, 53280, Note_off_c, 3, 47, 64
10, 53360, Note_on_c, 8, 76, 110
10, 53472, Note_off_c, 8, 83, 64
10, 53472, Note_on_c, 8, 624
10, 53568, Note_on_c, 8, 80, 110
10, 53568, Note_off_c, 8, 78, 64
10, 53568, Note_off_c, 8, 80, 64
10, 53568, Note_off_c, 8, 76, 64
10, 53568, Note_on_c, 8, 78, 91
10, 53760, Note_on_c, 8, 80, 110
10, 53760, Note_on_c, 8, 82, 110
10, 53760, Note_on_c, 8, 83, 110
10, 53760, Note_off_c, 8, 76, 64
10, 53760, Note_on_c, 8, 67, 86
10, 53952, Note_on_c, 8, 84, 110
10, 53952, Note_off_c, 8, 75, 64
10, 53984, Note_on_c, 8, 80, 86
10, 53984, Note_on_c, 8, 83, 110
10, 54336, Note_on_c, 8, 87, 110
10, 54528, Note_off_c, 8, 87, 64
10, 54528, Note_off_c, 7, 76, 64
10, 54912, Note_on_c, 8, 75, 86
10, 54944, Note_off_c, 9, 68, 110
10, 55072, Note_off_c, 8, 69, 64
10, 55296, Note_on_c, 8, 78, 110
10, 55360, Note_off_c, 8, 80, 64
10, 55392, Note_off_c, 8, 67, 64
10, 55392, Note_off_c, 7, 83, 64
10, 55488, Note_on_c, 8, 76, 110
10, 55488, Note_on_c, 8, 79, 86
10, 55584, Note_off_c, 8, 79, 64
10, 55616, Note_on_c, 8, 73, 86
10, 55680, Note_on_c, 8, 78, 110
10, 55680, Note_off_c, 8, 76, 64
10, 55680, Note_on_c, 8, 76, 110
10, 55744, Note_off_c, 8, 88, 64
10, 55776, Note_on_c, 8, 78, 110
10, 55776, Note_off_c, 8, 75, 64
10, 55808, Note_off_c, 8, 80, 64
10, 55808, Note_off_c, 10, 64, 64
10, 55808, Note_off_c, 8, 71, 64
10, 55856, Note_off_c, 8, 71, 64
10, 56064, Note_off_c, 8, 79, 64
10, 56256, Note_on_c, 8, 87, 110
10, 56256, Note_on_c, 8, 75, 86
10, 56256, Note_on_c, 8, 80, 86
10, 56352, Note_off_c, 8, 79, 64
10, 56352, Note_off_c, 8, 85, 64
10, 56672, Note_off_c, 8, 73, 64
10, 56736, Note_off_c, 8, 73, 64
10, 56736, Note_off_c, 8, 76, 64
10, 56736, Note_on_c, 8, 85, 110
10, 56768, Note_off_c, 8, 88, 64
10, 56832, Note_off_c, 8, 76, 64
10, 56832, Note_off_c, 8, 79, 64
10, 57224, Note_off_c, 8, 79, 64
10, 57280, Note_on_c, 8, 76, 86
10, 57504, Note_off_c, 8, 76, 64
10, 57568, Note_on_c, 8, 78, 110
10, 57824, Note_on_c, 8, 69, 86
10, 57984, Note_on_c, 8, 85, 110
10, 57984, Note_off_c, 8, 73, 64
10, 58144, Note_off_c, 8, 78, 64
10, 58176, Note_off_c, 8, 75, 64
10, 58176, Note_on_c, 8, 76, 110
10, 58368, Note_off_c, 8, 68, 64
10, 58560, Note_on_c, 8, 76, 110
10, 58752, Note_on_c, 8, 69, 86
10, 58752, Note_off_c, 8, 82, 64
10, 58944, Note_on_c, 8, 78, 110
10, 58976, Note_off_c, 1, 75, 110
10, 58976, Note_off_c, 7, 87, 64
10, 59328, Note_on_c, 9, 46, 110
10, 59328, Note_off_c, 7, 83, 64
10, 59328, Note_off_c, 8, 68, 64
10, 59520, Note_off_c, 8, 85, 64
10, 59520, Note_on_c, 8, 76, 110
10, 59520, Note_on_c, 8, 75, 86
10, 59712, Note_off_c, 8, 76, 64
10, 60064, Note_on_c, 8, 82, 86
10, 60096, Note_off_c, 8, 83, 64
10, 60096, Note_off_c, 8, 80, 64
10, 60320, Note_on_c, 8, 81, 110
10, 61024, Note_off_c, 8, 80, 64
10, 61152, Note_off_c, 8, 76, 64
10, 61248, Note_off_c, 8, 75, 64
10, 61248, Note_on_c, 8, 78, 103
10, 61248, Note_off_c, 8, 76, 64
10, 61440, Note_on_c, 8, 76, 110
10, 61616, Note_on_c, 8, 75, 65
10, 61664, Note_off_c, 8, 88, 64
10, 61728, Note_on_c, 8, 76, 74
10, 61824, Note_on_c, 8, 76, 110
10, 61824, Note_off_c, 8, 75, 64
10, 62176, Note_on_c, 8, 81, 110
10, 62592, Note_on_c, 8, 75, 110
10, 62592, Note_on_c, 8, 73, 110
10, 62672, Note_on_c, 8, 82, 86
10, 62784, Note_off_c, 8, 83, 64
10, 62816, Note_on_c, 8, 73, 84
10, 62960, Note_off_c, 8, 75, 64
10, 62976, Note_on_c, 8, 78, 107
10, 63008, Note_off_c, 8, 71, 64
10, 63168, Note_off_c, 8, 78, 64
10, 63344, Note_off_c, 8, 76, 64
10, 63360, Note_on_c, 8, 76, 110
10, 63360, Note_off_c, 8, 71, 64
10, 63360, Note_off_c, 8, 75, 64
10, 63360, Note_off_c, 8, 75, 64
10, 63360, Note_on_c, 8, 75, 86
10, 63520, Note_on_c, 8, 82, 86
10, 63552, Note_on_c, 8, 85, 10
10, 63552, Note_on_c, 8, 81, 110
10, 63584, Note_off_c, 8, 68, 64
10, 63648, Note_on_c, 8, 83, 110
10, 63680, Note_off_c, 9, 36, 64
10, 63744, Note_on_c, 8, 82, 86
10, 63744, Note_on_c, 8, 76, 110
10, 63744, Note_off_c, 8, 76, 64
10, 63744, Note_off_c, 8, 68, 64
10, 63744, Note_off_c, 8, 73, 64
10, 63744, Note_off_c, 8, 76, 64
10, 63744, Note_on_c, 8, 76, 110
10, 64096, Note_on_c, 8, 82, 110
10, 64320, Note_on_c, 8, 71, 86
10, 64320, Note_on_c, 8, 75, 86
10, 64448, Note_on_c, 8, 71, 86
10, 64512, Control_c, 8, 7, 73
10, 64512, Note_off_c, 8, 75, 64
10, 64704, Note_on_c, 8, 75, 86
10, 64768, Note_off_c, 8, 76, 64
10, 65056, Note_on_c, 8, 76, 110
10, 65152, Note_off_c, 8, 73, 64
10, 65184, Note_on_c, 8, 87, 110
10, 65280, Note_on_c, 8, 76, 110
10, 65456, Note_on_c, 8, 76, 110
10, 65472, Note_on_c, 8, 85, 110
10, 65488, Note_off_c, 8, 83, 64
10, 65664, Note_off_c, 8, 80, 64
10, 65824, Note_off_c, 8, 83, 64
10, 65856, Note_on_c, 8, 81, 110
10, 65856, Note_off_c, 7, 75, 64
10, 65856, Note_on_c, 8, 78, 110
10, 66048, Note_on_c, 8, 73, 117
10, 66240, Note_on_c, 8, 78, 110
10, 66240, Note_off_c, 8, 73, 64
10, 66416, Note_on_c, 8, 76, 110
10, 66416, Note_on_c, 8, 73, 86
10, 66432, Note_off_c, 8, 78, 64
10, 66432, Note_on_c, 8, 76, 34
10, 66432, Note_off_c, 8, 85, 64
10, 66624, Note_on_c, 8, 83, 110
10, 66624, Note_off_c, 8, 75, 64
10, 66624, Note_off_c, 8, 78, 64
10, 67008, Note_off_c, 8, 78, 64
10, 67168, Note_off_c, 8, 87, 64
10, 67168, Note_off_c, 8, 80, 64
10, 67168, Note_on_c, 8, 73, 110
10, 67200, Note_on_c, 8, 81, 110
10, 67200, Note_off_c, 8, 80, 64
10, 67200, Note_on_c, 8, 81, 86
10, 67308, Note_off_c, 8, 61, 64
10, 67392, Note_on_c, 8, 83, 110
10, 67584, Note_off_c, 8, 83, 64
10, 67584, Note_on_c, 8, 85, 119
10, 67584, Note_off_c, 8, 67, 64
10, 67584, Note_off_c, 8, 79, 64
10, 67616, Note_off_c, 8, 78, 64
10, 67680, Note_off_c, 8, 80, 64
10, 67760, Note_off_c, 8, 73, 64
10, 67776, Note_on_c, 8, 73, 73
10, 67776, Note_off_c, 8, 73, 64
10, 67776, Note_on_c, 8, 87, 110
10, 67968, Note_on_c, 8, 71, 86
10, 67968, Note_on_c, 8, 73, 86
10, 68104, Note_on_c, 8, 76, 110
10, 68736, Note_off_c, 8, 78, 64
10, 68832, Note_on_c, 8, 75, 96
10, 68928, Note_on_c, 8, 79, 110
10, 69120, Note_off_c, 8, 71, 64
10, 69504, Note_off_c, 8, 76, 64
10, 70080, Note_off_c, 8, 79, 64
10, 70272, Note_on_c, 8, 75, 110
10, 70656, Note_on_c, 8, 87, 110
10, 70656, Note_on_c, 8, 75, 110
10, 70656, Note_off_c, 8, 73, 64
10, 70752, Note_off_c, 8, 78, 64
10, 70848, Note_on_c, 8, 76, 110
10, 70848, Note_on_c, 8, 73, 55
10, 71008, Note_off_c, 8, 76, 64
10, 71008, Note_off_c, 8, 85, 64
10, 71040, Note_off_c, 8, 87, 64
10, 71168, Note_off_c, 8, 67, 64
10, 71232, Note_on_c, 8, 76, 74
10, 71232, Note_off_c, 8, 73, 64
10, 71232, Note_on_c, 8, 78, 110
10, 71424, Note_off_c, 8, 76, 64
10, 71616, Note_off_c, 8, 75, 64
10, 71824, Note_on_c, 8, 76, 110
10, 71840, Note_off_c, 8, 76, 64
10, 72000, Note_off_c, 8, 76, 64
10, 72000, Note_on_c, 8, 82, 86
10, 72032, Note_off_c, 8, 73, 64
10, 72160, Note_on_c, 8, 75, 110
10, 72384, Note_off_c, 8, 73, 64
10, 72384, Note_on_c, 8, 75, 73
10, 72384, Note_on_c, 8, 73, 55
10, 72480, Note_off_c, 8, 76, 64
10, 72576, Note_on_c, 8, 87, 110
10, 72736, Note_on_c, 8, 87, 110
10, 72768, Note_on_c, 8, 73, 110
10, 72776, Note_on_c, 8, 75, 110
10, 72960, Note_on_c, 8, 75, 110
10, 72960, Note_off_c, 8, 75, 64
10, 72992, Note_off_c, 8, 79, 64
10, 73048, Note_off_c, 7, 68, 64
10, 73056, Note_on_c, 8, 75, 86
10, 73152, Note_on_c, 8, 80, 110
10, 73152, Note_off_c, 8, 73, 64
10, 73152, Note_off_c, 8, 76, 64
10, 73344, Note_on_c, 8, 87, 110
10, 73536, Note_on_c, 8, 75, 86
10, 73536, Note_off_c, 8, 73, 64
10, 73712, Control_c, 8, 81, 110
10, 73728, Note_on_c, 8, 78, 110
10, 73728, Note_off_c, 8, 76, 64
10, 73728, Note_on_c, 8, 73, 86
10, 73728, Note_off_c, 8, 75, 64
10, 73728, Note_off_c, 8, 76, 64
10, 73824, Note_off_c, 8, 84, 64
10, 74112, Note_off_c, 8, 76, 64
10, 74304, Note_off_c, 8, 80, 64
10, 74304, Note_on_c, 8, 85, 119
10, 74432, Note_on_c, 8, 73, 110
10, 74512, Note_on_c, 8, 83, 110
10, 74592, Note_on_c, 8, 79, 110
10, 74688, Note_on_c, 8, 87, 110
10, 74720, Note_on_c, 8, 82, 86
10, 74880, Note_on_c, 8, 80, 86
10, 75040, Note_on_c, 8, 83, 110
10, 75168, Control_c, 8, 7, 100
10, 75264, Note_off_c, 8, 87, 64
10, 75328, Note_off_c, 8, 75, 64
10, 75376, Note_off_c, 8, 78, 64
10, 75456, Note_on_c, 8, 75, 86
10, 75552, Note_off_c, 8, 87, 64
10, 75648, Note_off_c, 8, 73, 64
10, 75648, Note_on_c, 8, 73, 86
10, 75648, Note_on_c, 8, 8
10, 75648, Note_on_c, 8, 73, 86
10, 75648, Note_off_c, 8, 76, 64
10, 75680, Note_on_c, 8, 75, 86
10, 75776, Note_on_c, 8, 85, 110
10, 76000, Note_on_c, 8, 87, 110
10, 76032, Note_on_c, 8, 76, 86
10, 76032, Note_on_c, 8, 75, 86
10, 76336, Note_off_c, 8, 75, 64
10, 76384, Note_on_c, 8, 83, 110
10, 76416, Note_off_c, 8, 75, 64
10, 76512, Note_off_c, 8, 79, 64
10, 76608, Note_on_c, 8, 75, 110
10, 76608, Note_on_c, 8, 81, 110
10, 76608, Note_on_c, 8, 78, 110
10, 77376, Note_off_c, 8, 78, 64
10, 78976, Note_off_c, 8, 77, 64
10, 79872, Note_off_c, 8, 78, 64
10, 95776, Note_off_c, 8, 78, 64
10, 95808, Note_on_c, 8, 73, 110
10, 95840, Note_on_c, 8, 78, 110
10, 96384, Note_on_c, 8, 88, 110
10, 97152, Note_off_c, 8, 75, 64
10, 97344, Note_off_c, 8, 78, 64
10, 97520, Note_off_c, 8, 75, 64
10, 97536, Note_on_c, 8, 75, 110
10, 97536, Note_on_c, 8, 76, 110
10, 97728, Note_on_c, 9, 44, 96
10, 97824, Note_off_c, 7, 76, 64
10, 97920, Note_off_c, 7, 76, 64
10, 99648, Note_on_c, 8, 76, 110
10, 100032, Note_on_c, 3, 45, 64
10, 100608, Note_off_c, 8, 78, 64
10, 100608, Note_on_c, 8, 78, 110
10, 101088, Note_on_c, 8, 80, 111
10, 101248, Note_on_c, 8, 76, 69
10, 102336, Note_off_c, 8, 76, 64
10, 102720, Note_on_c, 8, 78, 102
10, 102752, Note_on_c, 8, 73, 71
10, 103296, Note_off_c, 8, 73, 64
10, 103488, Note_off_c, 8, 76, 64
10, 103488, Note_off_c, 8, 76, 64
10, 103568, Note_on_c, 8, 76, 65
10, 103680, Note_off_c, 8, 76, 64
10, 103680, Note_on_c, 8, 78, 103
10, 104064, Note_on_c, 8, 80, 98
10, 105216, Note_off_c, 8, 78, 64
10, 105600, Note_on_c, 8, 73, 55
10, 105696, Note_on_c, 8, 78, 70
10, 105760, Note_on_c, 8, 85, 64
10, 105984, Note_off_c, 10, 71, 64
10, 105984, Note_off_c, 8, 75, 64
10, 106752, Note_on_c, 8, 73, 71
10, 106944, Note_off_c, 8, 75, 64
10, 107712, Note_off_c, 8, 81, 64
10, 108128, Note_on_c, 8, 73, 71
10, 108256, Note_on_c, 8, 76, 91
10, 109184, Note_on_c, 8, 73, 71
10, 110112, Note_off_c, 8, 76, 64
10, 110208, Note_off_c, 8, 76, 64
10, 110400, Note_off_c, 8, 80, 64
10, 110752, Note_on_c, 8, 81, 64
10, 110784, Note_on_c, 8, 87, 110
10, 110784, Note_off_c, 8, 76, 64
10, 111200, Note_off_c, 8, 73, 64
10, 111360, Note_off_c, 8, 82, 64
10, 112016, Note_on_c, 8, 73, 73
10, 112128, Note_off_c, 8, 76, 64
10, 112128, Note_on_c, 8, 85, 110
10, 112224, Note_on_c, 8, 78, 110
10, 112320, Note_on_c, 8, 85, 119
10, 112800, Note_on_c, 8, 78, 103
10, 112896, Note_off_c, 8, 85, 64
10, 112896, Note_on_c, 8, 76, 65
10, 112896, Note_off_c, 8, 76, 64
10, 113664, Note_off_c, 8, 73, 64
10, 115200, Note_off_c, 8, 80, 64
10, 118240, Note_off_c, 8, 85, 64
10, 142016, Note_off_c, 8, 76, 64
10, 142880, Note_off_c, 8, 80, 64
10, 147648, Note_off_c, 8, 87, 64
10, 147840, Note_on_c, 8, 73, 110
10, 148032, Note_off_c, 8, 78, 64
10, 148416, Note_off_c, 8, 78, 64
10, 148704, Note_on_c, 8, 80, 110
10, 148800, Note_on_c, 8, 80, 111
10, 148928, Note_off_c, 8, 85, 64
10, 149152, Note_on_c, 8, 75, 04
10, 149568, Note_off_c, 1, 80, 64
10, 149664, Note_on_c, 8, 87, 110
10, 150144, Note_on_c, 8, 87, 110
10, 150144, Note_off_c, 8, 76, 64
10, 150144, Note_off_c, 8, 87, 64
10, 150336, Note_off_c, 8, 76, 64
10, 150336, Note_off_c, 8, 78, 86
10, 150336, Note_off_c, 8, 75, 64
10, 150336, Note_on_c, 8, 75, 110
10, 150336, Note_on_c, 8, 75, 96
10, 150432, Note_off_c, 8, 68, 64
10, 150528, Note_on_c, 8, 78, 110
10, 150528, Note_off_c, 8, 78, 64
10, 150528, Note_on_c, 8, 85, 110
10, 150528, Note_on_c, 5, 61, 96
10, 150720, Note_off_c, 8, 71, 64
10, 150720, Note_off_c, 8, 71, 64
10, 150816, Note_on_c, 8, 80, 86
10, 151296, Note_off_c, 8, 75, 64
10, 151296, Note_on_c, 8, 73, 86
10, 151488, Note_off_c, 8, 69, 64
10, 151568, Note_off_c, 8, 69, 64
10, 151616, Note_off_c, 7, 76, 64
10, 152032, Note_on_c, 8, 69, 86
10, 152256, Note_off_c, 8, 75, 64
10, 152256, Note_on_c, 7, 87, 108
10, 152448, Note_off_c, 3, 42, 64
10, 152672, Note_on_c, 8, 85, 110
10, 152832, Note_on_c, 8, 75, 110
10, 153024, Note_on_c, 8, 73, 86
10, 153216, Note_off_c, 8, 73, 64
10, 153792, Note_on_c, 8, 75, 86
10, 153920, Note_off_c, 8, 76, 64
10, 154368, Note_off_c, 8, 75, 64
10, 154976, Note_on_c, 8, 75, 86
10, 155520, Note_off_c, 8, 83, 64
10, 155648, Note_off_c, 8, 78, 64
10, 155680, Note_off_c, 8, 78, 64
10, 156096, Note_on_c, 8, 76, 86
10, 156480, Note_on_c, 8, 80, 86
10, 156480, Note_off_c, 8, 78, 64
10, 156480, Note_on_c, 8, 83, 110
10, 156480, Note_off_c, 8, 82, 64
10, 156576, Note_off_c, 8, 80, 64
10, 156672, Note_on_c, 8, 68, 86
10, 156672, Note_off_c, 8, 63, 64
10, 156672, Note_on_c, 7, 75, 73
10, 156672, Note_on_c, 5, 76, 96
10, 156672, Note_on_c, 8, 73, 86
10, 156768, Note_on_c, 8, 85, 110
10, 157056, Note_on_c, 8, 76, 86
10, 157248, Note_off_c, 8, 76, 64
10, 157408, Note_on_c, 7, 87, 108
10, 157632, Note_off_c, 8, 73, 64
10, 157792, Note_on_c, 8, 76, 110
10, 157824, Note_on_c, 8, 78, 110
10, 158112, Note_on_c, 8, 68, 86
10, 158144, Note_on_c, 8, 83, 110
10, 158208, Note_on_c, 8, 75, 110
10, 158272, Note_on_c, 8, 78, 86
10, 158400, Note_off_c, 8, 75, 64
10, 158592, Note_on_c, 8, 88, 110
10, 158784, Note_off_c, 8, 87, 64
10, 158872, Note_on_c, 8, 69, 86
10, 159360, Note_on_c, 8, 79, 81
10, 159360, Note_off_c, 8, 79, 64
10, 159552, Note_on_c, 8, 79, 110
10, 159552, Note_off_c, 8, 79, 64
10, 159936, Note_off_c, 8, 76, 64
10, 160128, Note_off_c, 8, 85, 64
10, 160128, Note_off_c, 8, 76, 64
10, 160224, Note_on_c, 8, 87, 110
10, 160320, Note_on_c, 8, 70, 110
10, 160320, Note_on_c, 8, 76, 76
10, 160320, Note_off_c, 8, 83, 64
10, 160416, Note_off_c, 8, 76, 64
10, 160512, Note_off_c, 8, 76, 64
10, 160512, Note_on_c, 8, 80, 86
10, 160528, Note_off_c, 8, 83, 64
10, 160704, Note_on_c, 8, 82, 86
10, 160704, Note_on_c, 8, 79, 110
10, 160704, Note_on_c, 8, 80, 110
10, 160704, Note_on_c, 8, 83, 110
10, 160896, Note_off_c, 8, 80, 64
10, 160896, Note_on_c, 8, 73, 86
10, 160896, Note_on_c, 8, 83, 110
10, 160896, Note_off_c, 8, 80, 64
10, 161280, Note_on_c, 8, 76, 110
10, 161888, Note_off_c, 8, 87, 64
10, 161888, Note_on_c, 8, 80, 86
10, 162048, Note_off_c, 8, 71, 64
10, 162432, Note_on_c, 8, 81, 110
10, 162816, Note_off_c, 8, 73, 64
10, 162816, Note_off_c, 8, 73, 64
10, 162816, Note_on_c, 8, 73, 86
10, 162816, Note_on_c, 8, 78, 110
10, 162848, Note_off_c, 8, 88, 64
10, 163008, Note_on_c, 8, 82, 110
10, 163168, Note_on_c, 8, 73, 86
10, 163200, Note_off_c, 8, 76, 64
10, 163200, Note_on_c, 8, 71, 110
10, 163296, Note_off_c, 8, 66, 64
10, 163360, Note_off_c, 8, 63, 64
10, 163488, Note_on_c, 8, 85, 110
10, 163584, Note_on_c, 8, 83, 110
10, 163584, Note_on_c, 8, 73, 86
10, 163776, Note_on_c, 6, 71, 64
10, 163968, Note_on_c, 8, 80, 86
10, 164128, Note_off_c, 8, 85, 64
10, 164320, Note_on_c, 8, 79, 110
10, 164352, Note_on_c, 8, 75, 110
10, 164544, Note_on_c, 8, 80, 110
10, 164576, Note_on_c, 8, 73, 110
10, 164576, Note_off_c, 8, 76, 64
10, 165120, Note_off_c, 8, 68, 64
10, 165312, Note_off_c, 8, 76, 64
10, 165408, Note_off_c, 8, 82, 64
10, 165504, Note_on_c, 7, 73, 86
10, 165504, Note_on_c, 8, 78, 110
10, 165728, Note_off_c, 8, 76, 64
10, 165888, Note_on_c, 8, 78, 110
10, 166464, Note_off_c, 8, 76, 64
10, 166688, Note_off_c, 8, 738, 64
10, 166848, Note_off_c, 8, 75, 64
10, 166848, Note_off_c, 8, 76, 64
10, 166880, Note_on_c, 8, 82, 86
10, 167040, Note_on_c, 8, 78, 110
10, 167040, Note_on_c, 8, 73, 81
10, 167424, Note_off_c, 8, 76, 64
10, 167424, Note_off_c, 8, 73, 64
10, 167616, Note_on_c, 8, 83, 110
10, 167616, Note_on_c, 8, 83, 110
10, 167616, Note_on_c, 8, 75, 110
10, 167632, Note_off_c, 8, 76, 64
10, 167712, Note_off_c, 8, 69, 64
10, 169504, Note_on_c, 8, 73, 110
10, 169504, Note_on_c, 8, 73, 86
10, 169536, Note_off_c, 8, 88, 64
10, 170400, Note_on_c, 8, 75, 119
10, 170400, Note_off_c, 8, 78, 64
10, 170416, Note_on_c, 8, 83, 110
10, 170880, Note_off_c, 8, 76, 64
10, 171072, Note_off_c, 7, 80, 64
10, 171648, Note_on_c, 8, 83, 110
10, 171872, Note_on_c, 8, 73, 110
10, 190368, Note_off_c, 8, 78, 64
10, 190464, Note_off_c, 8, 87, 64
10, 190464, Note_on_c, 8, 78, 103
10, 191712, Note_on_c, 8, 78, 110
10, 191808, Note_off_c, 8, 85, 64
10, 56640, Note_on_c, 8, 7, 35
10, 192000, Note_off_c, 8, 78, 64
10, 192160, Note_on_c, 8, 76, 86
10, 192192, Note_on_c, 7, 83, 110
10, 192368, Note_on_c, 7, 83, 110
10, 192576, Note_off_c, 8, 82, 64
10, 192576, Note_on_c, 8, 80, 110
10, 192768, Note_off_c, 8, 75, 64
10, 192960, Note_on_c, 8, 73, 110
10, 192960, Note_off_c, 8, 76, 64
10, 192992, Note_on_c, 8, 76, 110
10, 193360, Note_off_c, 8, 75, 64
10, 193536, Note_on_c, 7, 75, 64
10, 193728, Note_on_c, 8, 78, 110
10, 194304, Note_on_c, 8, 88, 110
10, 194304, Note_on_c, 9, 38, 110
10, 194880, Note_on_c, 8, 75, 55
10, 194880, Note_off_c, 8, 78, 64
10, 195648, Note_off_c, 8, 78, 64
10, 195648, Note_off_c, 8, 76, 64
10, 195840, Note_on_c, 7, 87, 110
10, 195840, Note_off_c, 8, 76, 64
10, 195840, Note_on_c, 8, 79, 110
10, 196000, Note_on_c, 8, 78, 102
10, 196320, Note_on_c, 8, 75, 110
10, 196608, Note_on_c, 8, 78, 110
10, 196608, Note_on_c, 8, 78, 110
10, 196608, Note_off_c, 8, 73, 64
10, 196608, Note_off_c, 8, 76, 64
10, 196704, Note_off_c, 8, 85, 64
10, 196960, Note_off_c, 8, 73, 64
10, 198112, Note_off_c, 7, 80, 64
10, 198112, Note_off_c, 8, 78, 64
10, 198720, Note_on_c, 8, 85, 110
10, 198880, Note_on_c, 8, 73, 110
10, 198912, Note_off_c, 8, 75, 64
10, 198912, Note_off_c, 8, 78, 64
10, 200032, Note_on_c, 1, 68, 64
10, 200032, Note_off_c, 8, 82, 64
10, 200256, Note_off_c, 1, 80, 64
10, 200640, Note_on_c, 8, 81, 110
10, 200656, Note_off_c, 1, 80, 64
10, 200736, Note_off_c, 7, 80, 64
10, 201792, Note_off_c, 8, 83, 64
10, 201888, Note_off_c, 8, 76, 64
10, 201984, Note_on_c, 8, 76, 81
10, 201984, Note_on_c, 8, 75, 73
10, 201984, Note_on_c, 8, 76, 74
10, 202560, Note_on_c, 8, 76, 91
10, 202560, Note_on_c, 8, 78, 64
10, 202752, Note_on_c, 8, 85, 110
10, 202752, Note_off_c, 8, 80, 64
10, 202752, Note_off_c, 8, 76, 64
10, 202912, Note_off_c, 8, 85, 64
10, 203024, Note_on_c, 8, 80, 99
10, 203136, Note_off_c, 8, 78, 64
10, 203232, Note_off_c, 8, 78, 64
10, 203520, Note_on_c, 8, 80, 88
10, 203680, Note_on_c, 8, 80, 111
10, 204064, Note_on_c, 8, 78, 81
10, 204288, Note_off_c, 8, 80, 64
10, 204288, Note_off_c, 8, 78, 64
10, 204448, Note_on_c, 8, 85, 110
10, 204640, Note_off_c, 8, 78, 64
10, 204656, Note_off_c, 9, 86, 64
10, 205024, Note_off_c, 8, 75, 64
10, 205024, Note_off_c, 8, 76, 64
10, 205024, Note_on_c, 8, 88, 119
10, 205056, Note_on_c, 8, 80, 110
10, 205056, Note_on_c, 8, 78, 110
10, 205136, Note_off_c, 8, 80, 64
10, 205216, Note_on_c, 8, 87, 110
10, 205248, Note_on_c, 8, 80, 111
10, 205824, Note_on_c, 8, 80, 111
10, 206016, Note_on_c, 8, 73, 71
10, 206176, Note_off_c, 8, 78, 64
10, 206560, Note_on_c, 8, 75, 55
10, 206560, Note_off_c, 8, 86, 64
10, 206768, Note_off_c, 8, 78, 64
10, 206784, Note_off_c, 8, 75, 64
10, 206784, Note_off_c, 8, 76, 64
10, 206784, Note_on_c, 8, 78, 110
10, 206784, Note_off_c, 8, 83, 64
10, 207136, Note_on_c, 8, 80, 111
10, 207136, Note_off_c, 8, 73, 64
10, 207152, Note_off_c, 8, 80, 64
10, 207344, Note_on_c, 8, 85, 96
10, 207360, Note_on_c, 8, 87, 113
10, 207360, Note_on_c, 8, 78, 103
10, 207520, Note_off_c, 8, 85, 64
10, 207536, Note_on_c, 8, 78, 110
10, 207552, Note_on_c, 8, 80, 98
10, 207744, Note_on_c, 8, 78, 80
10, 207744, Note_off_c, 8, 76, 64
10, 207744, Note_on_c, 8, 85, 96
10, 207744, Note_off_c, 8, 73, 64
10, 207952, Note_on_c, 8, 75, 66
10, 208128, Note_off_c, 8, 75, 64
10, 208512, Note_off_c, 8, 78, 64
10, 208800, Note_off_c, 8, 80, 64
10, 208832, Note_on_c, 8, 80, 111
10, 208896, Note_on_c, 8, 85, 110
10, 208896, Note_on_c, 8, 83, 118
10, 209152, Note_off_c, 8, 85, 64
10, 217632, Note_off_c, 8, 78, 64
10, 175488, Note_off_c, 8, 85, 64
10, 206752, Note_on_c, 0, 85, 110
10, 237286, Note_off_c, 5, 61, 64
10, 103264, Note_off_c, 6, 71, 64
10, 110294, Note_off_c, 0, 87, 64
10, 158208, Note_off_c, 9, 36, 64
10, 60416, Note_on_c, 8, 73, 110
10, 62208, Note_on_c, 8, 73, 86
10, 62816, Note_off_c, 8, 76, 64
10, 65184, Note_on_c, 8, 81, 110
10, 67168, Note_off_c, 8, 73, 64
10, 67200, Note_off_c, 8, 67, 64
10, 67776, Note_on_c, 8, 83, 110
10, 73536, Note_on_c, 8, 75, 55
10, 77344, Note_off_c, 8, 87, 64
10, 163774, Note_on_c, 9, 44, 96
10, 148896, Control_c, 3, 7, 30
10, 152832, Note_off_c, 0, 76, 64
11, 2, Note_on_c, 8, 76, 86
11, 2, Note_on_c, 9, 36, 110
11, 4, Note_on_c, 4, 37, 110
11, 40, Note_on_c, 4, 33, 110
11, 44, Note_off_c, 0, 75, 64
11, 76, Note_on_c, 8, 80, 119
11, 153, Note_off_c, 9, 53, 64
11, 232, Note_on_c, 8, 78, 107
11, 236, Note_on_c, 9, 44, 110
11, 240, Note_off_c, 6, 66, 64
11, 476, Note_on_c, 9, 44, 64
11, 744, Note_on_c, 10, 66, 91
11, 768, Note_on_c, 9, 46, 96
11, 960, Note_on_c, 0, 85, 111
11, 1152, Note_off_c, 0, 85, 64
11, 1344, Note_off_c, 9, 36, 64
11, 1463, Note_off_c, 0, 87, 64
11, 1536, Control_c, 9, 45, 110
11, 1920, Note_on_c, 0, 85, 110
11, 2256, Note_off_c, 3, 37, 64
11, 2304, Note_on_c, 9, 44, 96
11, 2304, Note_on_c, 9, 36, 110
11, 2496, Note_on_c, 9, 44, 110
11, 2688, Note_off_c, 9, 44, 64
11, 2784, Note_on_c, 9, 44, 96
11, 2880, Note_off_c, 9, 44, 64
11, 3072, Note_on_c, 9, 46, 96
11, 3072, Note_off_c, 9, 64, 44
11, 3072, Note_off_c, 9, 44, 64
11, 3072, Note_on_c, 9, 44, 96
11, 3152, Note_on_c, 9, 44, 98
11, 3456, Note_on_c, 5, 61, 96
11, 3494, Note_on_c, 6, 73, 64
11, 3648, Note_on_c, 9, 44, 64
11, 3792, Note_off_c, 9, 44, 64
11, 3856, Note_on_c, 9, 38, 110
11, 4032, Note_on_c, 9, 44, 96
11, 4032, Note_off_c, 9, 36, 64
11, 4032, Note_off_c, 9, 44, 64
11, 4128, Note_on_c, 9, 44, 96
11, 4176, Note_on_c, 9, 44, 64
11, 4320, Note_on_c, 9, 44, 78
11, 4336, Note_off_c, 9, 36, 64
11, 4608, Note_on_c, 9, 44, 96
11, 4632, Note_on_c, 9, 44, 110
11, 4800, Note_off_c, 9, 44, 64
11, 4896, Note_on_c, 9, 46, 98
11, 4992, Note_on_c, 9, 36, 110
11, 5312, Note_off_c, 9, 44, 64
11, 5344, Note_off_c, 9, 46, 64
11, 5376, Note_on_c, 9, 36, 110
11, 5616, Control_c, 9, 11, 23 
11, 5644, Note_off_c, 9, 44, 64
11, 5952, Note_off_c, 0, 71, 64
11, 5952, Note_off_c, 9, 44, 64
11, 6320, Note_on_c, 9, 44, 64
11, 6336, Note_off_c, 9, 44, 64
11, 6336, Note_on_c, 9, 44, 64
11, 6672, Note_off_c, 9, 44, 64
11, 6720, Note_off_c, 9, 44, 64
11, 6816, Note_on_c, 9, 44, 110
11, 6912, Note_off_c, 9, 44, 64
11, 6912, Note_on_c, 9, 44, 64
11, 6912, Note_on_c, 9, 38, 110
11, 7456, Note_off_c, 9, 46, 64
11, 7680, Note_off_c, 9, 44, 64
11, 7992, Note_on_c, 9, 36, 110
11, 8256, Note_on_c, 9, 44, 96
11, 8296, Note_on_c, 9, 44, 96
11, 8896, Note_on_c, 9, 36, 110
11, 8928, Note_off_c, 9, 57 ,84
11, 9600, Note_on_c, 9, 46, 96
11, 9808, Note_off_c, 4, 37, 64
11, 09920, Note_on_c, 9, 36, 110
11, 11936, Note_off_c, 9, 36, 64
11, 12088, Note_on_c, 9, 46, 96
11, 12896, Note_on_c, 9, 44, 110
11, 13024, Note_on_c, 9, 38, 110
11, 13056, Note_off_c, 9, 44, 64
11, 13088, Note_on_c, 9, 44, 96
11, 13264, Note_on_c, 9, 38, 110
11, 13824, Note_off_c, 9, 36, 64
11, 13824, Control_c, 9, 44, 110
11, 14016, Note_on_c, 9, 36, 110
11, 14016, Note_on_c, 9, 44, 64
11, 14016, Note_off_c, 9, 44, 64
11, 14016, Note_on_c, 9, 44, 64
11, 14016, Note_off_c, 9, 46, 64
11, 14064, Note_on_c, 9, 46, 97
11, 14096, Note_off_c, 6, 64, 64
11, 14208, Note_on_c, 9, 61, 96
11, 14208, Note_off_c, 9, 44, 64
11, 14208, Note_off_c, 9, 44, 64
11, 14208, Note_on_c, 9, 44, 96
11, 14208, Note_on_c, 9, 46, 96
11, 14672, Note_off_c, 0, 88, 110
11, 14672, Note_off_c, 5, 61, 64
11, 14784, Note_off_c, 9, 44, 64
11, 15072, Note_off_c, 9, 38, 64
11, 15168, Note_on_c, 9, 46, 110
11, 15360, Note_on_c, 9, 36, 110
11, 15360, Note_on_c, 9, 44, 64
11, 15552, Note_off_c, 9, 46, 64
11, 15552, Note_off_c, 9, 44, 64
11, 15696, Note_off_c, 9, 36, 64
11, 15744, Note_on_c, 9, 38, 110
11, 15744, Note_on_c, 9, 36, 110
11, 16480, Note_on_c, 9, 46, 96
11, 16512, Note_off_c, 9, 36, 64
11, 16592, Note_off_c, 0, 66, 64
11, 16704, Note_off_c, 9, 44, 64
11, 16704, Note_off_c, 9, 38, 64
11, 16800, Note_off_c, 9, 46, 64
11, 16856, Note_off_c, 9, 44, 64
11, 16896, Note_on_c, 9, 36, 110
11, 16992, Note_off_c, 9, 36, 64
11, 17056, Note_on_c, 9, 44, 64
11, 18048, Note_on_c, 9, 44, 110
11, 18048, Note_on_c, 9, 36, 110
11, 18128, Note_off_c, 9, 44, 64
11, 18144, Note_on_c, 9, 44, 64
11, 18240, Note_off_c, 9, 44, 64
11, 18432, Note_off_c, 9, 36, 64
11, 18584, Note_on_c, 9, 36, 110
11, 18624, Control_c, 1, 7, 110
11, 18624, Note_off_c, 9, 44, 64
11, 19008, Note_on_c, 9, 36, 110
11, 19136, Note_on_c, 9, 44, 64
11, 19200, Note_on_c, 9, 44, 96
11, 19472, Note_on_c, 9, 44, 110
11, 19680, Note_off_c, 9, 36, 64
11, 19808, Note_off_c, 9, 44, 64
11, 20256, Control_c, 9, 7, 100
11, 20608, Note_off_c, 9, 44, 64
11, 20672, Note_on_c, 9, 36, 110
11, 21216, Note_off_c, 9, 44, 64
11, 21264, Note_off_c, 9, 44, 64
11, 21312, Note_on_c, 9, 46, 98
11, 21312, Note_off_c, 9, 36, 64
11, 21312, Note_on_c, 9, 44, 64
11, 21568, Note_on_c, 9, 46, 96
11, 21712, Note_off_c, 9, 44, 64
11, 21792, Note_off_c, 9, 44, 64
11, 21888, Note_on_c, 9, 46, 97
11, 21904, Note_on_c, 9, 44, 110
11, 22368, Note_on_c, 9, 44, 78
11, 22672, Note_on_c, 2, 64, 110
11, 22768, Note_off_c, 9, 44, 64
11, 23040, Note_on_c, 9, 44, 110
11, 23040, Note_off_c, 3, 37, 64
11, 23104, Control_c, 9, 7, 31
11, 23104, Note_off_c, 9, 44, 64
11, 23232, Note_on_c, 9, 44, 110
11, 23280, Note_off_c, 9, 36, 64
11, 23424, Note_on_c, 9, 44, 96
11, 23488, Note_off_c, 9, 44, 64
11, 23808, Note_on_c, 9, 46, 98
11, 24096, Note_off_c, 9, 44, 64
11, 24192, Note_on_c, 9, 36, 110
11, 24192, Note_on_c, 9, 44, 64
11, 24800, Note_on_c, 9, 44, 96
11, 24928, Note_on_c, 9, 36, 110
11, 25632, Note_off_c, 9, 46, 64
11, 25824, Note_off_c, 9, 44, 64
11, 25824, Note_on_c, 9, 44, 110
11, 25920, Note_off_c, 9, 44, 64
11, 26112, Note_off_c, 9, 44, 64
11, 26144, Note_on_c, 9, 36, 110
11, 26592, Note_off_c, 9, 44, 64
11, 26784, Note_on_c, 9, 44, 110
11, 26784, Note_off_c, 9, 64, 110
11, 27040, Note_on_c, 9, 38, 110
11, 27648, Note_on_c, 9, 36, 110
11, 27744, Note_off_c, 9, 46, 64
11, 28136, Note_off_c, 9, 44, 64
11, 28224, Note_on_c, 9, 44, 96
11, 28352, Note_off_c, 9, 46, 64
11, 28608, Note_on_c, 9, 44, 64
11, 28800, Note_on_c, 9, 36, 110
11, 30144, Note_off_c, 9, 44, 64
11, 30144, Note_on_c, 9, 44, 96
11, 30144, Note_off_c, 9, 44, 64
11, 30144, Note_off_c, 9, 38, 64
11, 30240, Note_on_c, 9, 44, 64
11, 30304, Note_on_c, 9, 44, 110
11, 30336, Note_on_c, 9, 46, 110
11, 30624, Note_on_c, 9, 38, 110
11, 30976, Note_off_c, 9, 44, 64
11, 31104, Note_off_c, 9, 44, 64
11, 31200, Note_off_c, 9, 44, 64
11, 31232, Note_off_c, 9, 44, 64
11, 31264, Note_off_c, 9, 44, 64
11, 31264, Note_on_c, 9, 44, 64
11, 31264, Note_off_c, 9, 44, 64
11, 31296, Note_off_c, 9, 46, 64
11, 31488, Note_off_c, 9, 44, 64
11, 31616, Note_off_c, 9, 46, 64
11, 31680, Note_off_c, 9, 44, 64
11, 31680, Note_off_c, 9, 36, 64
11, 31776, Note_off_c, 9, 44, 64
11, 31808, Note_on_c, 9, 36, 110
11, 31808, Note_off_c, 9, 36, 64
11, 31808, Note_off_c, 9, 44, 64
11, 31808, Note_on_c, 9, 36, 110
11, 31808, Note_on_c, 9, 44, 64
11, 31840, Note_on_c, 9, 44, 96
11, 31840, Note_off_c, 9, 44, 64
11, 31840, Note_off_c, 9, 38, 64
11, 31840, Note_off_c, 9, 44, 64
11, 31968, Note_off_c, 9, 44, 64
11, 32032, Note_on_c, 9, 44, 64
11, 32064, Note_off_c, 9, 44, 64
11, 32064, Note_off_c, 9, 44, 64
11, 32064, Note_on_c, 9, 44, 110
11, 32192, Note_on_c, 9, 44, 64
11, 32224, Note_on_c, 9, 44, 64
11, 32256, Note_on_c, 9, 44, 110
11, 32288, Note_off_c, 9, 44, 64
11, 32352, Note_off_c, 9, 44, 64
11, 32448, Note_on_c, 9, 44, 96
11, 32576, Note_on_c, 9, 46, 110
11, 32640, Note_on_c, 9, 44, 64
11, 32640, Note_on_c, 9, 44, 110
11, 32640, Note_on_c, 9, 44, 64
11, 32672, Note_off_c, 9, 44, 64
11, 32784, Note_on_c, 9, 44, 64
11, 33024, Note_on_c, 9, 44, 64
11, 33024, Note_on_c, 9, 44, 64
11, 33024, Note_on_c, 9, 46, 110
11, 33056, Note_off_c, 9, 44, 64
11, 33088, Note_on_c, 9, 44, 96
11, 33088, Note_on_c, 9, 44, 110
11, 33216, Note_off_c, 9, 44, 64
11, 33216, Note_on_c, 9, 36, 110
11, 33216, Note_on_c, 9, 44, 110
11, 33216, Note_off_c, 9, 44, 64
11, 33312, Note_on_c, 9, 44, 64
11, 33408, Note_off_c, 9, 44, 64
11, 33600, Note_on_c, 8, 82, 64
11, 33600, Note_off_c, 9, 44, 64
11, 33600, Note_on_c, 8, 81, 111
11, 33600, Note_off_c, 9, 38, 64
11, 33600, Note_off_c, 9, 44, 64
11, 33696, Note_on_c, 9, 36, 110
11, 33696, Note_on_c, 9, 44, 110
11, 33792, Note_on_c, 9, 44, 64
11, 33792, Note_on_c, 9, 44, 96
11, 33824, Note_on_c, 9, 44, 64
11, 33824, Note_off_c, 9, 44, 64
11, 33888, Note_off_c, 9, 44, 64
11, 33920, Note_off_c, 9, 36, 64
11, 34080, Note_off_c, 9, 38, 64
11, 34080, Note_off_c, 9, 36, 64
11, 34080, Note_on_c, 9, 44, 64
11, 34208, Note_off_c, 9, 44, 64
11, 34272, Note_on_c, 9, 38, 110
11, 34272, Note_off_c, 9, 44, 64
11, 34368, Note_off_c, 9, 64, 64
11, 34368, Note_on_c, 9, 44, 64
11, 34464, Note_off_c, 9, 44, 64
11, 34464, Control_c, 9, 7, 46
11, 34464, Note_off_c, 9, 44, 64
11, 34496, Note_on_c, 9, 36, 110
11, 34560, Note_on_c, 9, 44, 96
11, 34560, Note_off_c, 9, 44, 64
11, 34560, Note_on_c, 9, 36, 110
11, 34640, Note_off_c, 9, 44, 64
11, 34664, Note_on_c, 9, 44, 64
11, 34672, Note_on_c, 9, 36, 110
11, 34720, Note_on_c, 9, 44, 64
11, 34752, Note_off_c, 9, 44, 64
11, 34784, Note_on_c, 9, 36, 110
11, 34848, Note_off_c, 9, 44, 64
11, 34912, Note_on_c, 9, 44, 110
11, 34944, Note_on_c, 9, 44, 110
11, 34944, Note_on_c, 9, 38, 110
11, 34976, Note_on_c, 9, 44, 110
11, 35008, Note_on_c, 9, 44, 96
11, 35008, Note_on_c, 9, 44, 96
11, 35072, Note_on_c, 9, 44, 96
11, 35232, Note_on_c, 9, 44, 64
11, 35232, Note_off_c, 9, 44, 64
11, 35232, Note_on_c, 9, 36, 65
11, 35328, Note_off_c, 9, 44, 64
11, 35520, Note_on_c, 9, 44, 64
11, 35520, Note_on_c, 9, 44, 110
11, 35616, Note_off_c, 9, 44, 64
11, 35616, Note_on_c, 9, 38, 110
11, 35616, Note_on_c, 9, 44, 64
11, 35616, Note_off_c, 9, 46, 64
11, 35712, Note_on_c, 9, 44, 64
11, 35712, Note_on_c, 9, 44, 64
11, 35808, Note_off_c, 9, 44, 64
11, 35840, Note_on_c, 9, 44, 64
11, 35904, Note_on_c, 9, 44, 64
11, 35904, Note_on_c, 9, 38, 110
11, 35936, Note_on_c, 9, 44, 96
11, 35936, Note_on_c, 9, 44, 110
11, 35936, Note_on_c, 9, 38, 110
11, 36064, Note_on_c, 9, 44, 64
11, 36064, Note_off_c, 9, 44, 64
11, 36096, Note_off_c, 9, 44, 64
11, 36096, Note_on_c, 9, 44, 96
11, 36096, Note_on_c, 9, 44, 64
11, 36240, Note_off_c, 9, 44, 74
11, 36288, Note_on_c, 9, 44, 110
11, 36288, Note_on_c, 9, 44, 110
11, 36480, Note_off_c, 9, 44, 64
11, 36480, Note_on_c, 9, 38, 110
11, 36672, Note_off_c, 9, 44, 64
11, 36672, Note_off_c, 9, 44, 64
11, 36672, Note_off_c, 9, 44, 64
11, 36672, Note_on_c, 9, 44, 64
11, 36672, Note_on_c, 9, 44, 110
11, 36768, Note_off_c, 9, 44, 64
11, 36768, Note_on_c, 9, 36, 110
11, 36768, Note_on_c, 9, 44, 64
11, 36800, Note_on_c, 9, 44, 64
11, 37024, Note_on_c, 9, 44, 96
11, 37056, Note_off_c, 9, 44, 64
11, 37056, Note_off_c, 9, 44, 64
11, 37056, Note_off_c, 9, 44, 64
11, 37248, Note_off_c, 9, 44, 64
11, 37248, Note_on_c, 9, 44, 64
11, 37408, Note_on_c, 9, 44, 110
11, 37408, Note_off_c, 9, 44, 64
11, 37600, Note_off_c, 9, 44, 64
11, 37632, Note_on_c, 9, 38, 110
11, 37632, Note_off_c, 9, 44, 64
11, 37648, Note_off_c, 9, 44, 64
11, 37824, Note_on_c, 9, 44, 64
11, 37888, Note_off_c, 9, 38, 64
11, 37920, Note_on_c, 9, 44, 96
11, 38016, Note_off_c, 9, 44, 64
11, 38144, Note_on_c, 9, 44, 110
11, 38144, Note_off_c, 9, 44, 64
11, 38208, Note_off_c, 9, 44, 64
11, 38272, Note_on_c, 9, 44, 110
11, 38336, Note_off_c, 9, 44, 64
11, 38592, Note_on_c, 9, 38, 110
11, 38704, Note_on_c, 9, 44, 64
11, 38784, Note_on_c, 9, 38, 110
11, 38784, Note_off_c, 9, 44, 64
11, 39040, Note_on_c, 9, 44, 64
11, 39078, Control_c, 2, 7, 48
11, 39264, Note_off_c, 9, 46, 64
11, 39328, Note_off_c, 9, 44, 64
11, 39552, Note_on_c, 9, 44, 110
11, 39584, Note_on_c, 9, 38, 110
11, 39744, Note_on_c, 9, 44, 96
11, 39776, Note_on_c, 9, 44, 64
11, 39936, Note_on_c, 9, 44, 64
11, 39968, Note_on_c, 9, 44, 96
11, 40096, Note_off_c, 9, 44, 64
11, 40128, Note_off_c, 9, 38, 64
11, 40128, Note_on_c, 9, 44, 64
11, 40320, Note_off_c, 9, 44, 64
11, 40480, Note_off_c, 9, 44, 64
11, 40704, Note_on_c, 9, 44, 64
11, 40704, Note_on_c, 9, 44, 96
11, 40704, Note_off_c, 9, 44, 64
11, 41600, Note_on_c, 9, 44, 64
11, 41664, Note_off_c, 9, 44, 64
11, 41856, Note_on_c, 9, 44, 64
11, 41856, Note_off_c, 9, 44, 64
11, 41952, Note_on_c, 9, 44, 96
11, 42232, Note_on_c, 9, 44, 64
11, 42240, Note_on_c, 9, 44, 96
11, 42608, Note_on_c, 9, 44, 64
11, 42624, Note_on_c, 9, 44, 96
11, 42624, Note_on_c, 9, 44, 96
11, 42816, Note_on_c, 9, 44, 96
11, 42816, Note_on_c, 9, 44, 110
11, 42944, Note_off_c, 9, 44, 64
11, 43008, Note_on_c, 9, 44, 64
11, 43008, Note_off_c, 9, 44, 64
11, 43008, Note_on_c, 9, 38, 110
11, 43008, Note_on_c, 9, 38, 110
11, 43104, Note_on_c, 9, 46, 110
11, 43104, Note_off_c, 4, 33, 64
11, 43136, Note_off_c, 9, 44, 64
11, 43136, Note_off_c, 9, 44, 64
11, 43232, Note_on_c, 9, 44, 110
11, 43296, Note_off_c, 9, 44, 64
11, 43328, Note_on_c, 9, 46, 110
11, 43328, Note_off_c, 9, 38, 64
11, 43392, Note_off_c, 9, 44, 64
11, 43392, Note_on_c, 9, 44, 64
11, 43392, Note_on_c, 9, 38, 110
11, 43392, Note_off_c, 9, 44, 64
11, 43424, Note_on_c, 9, 44, 110
11, 43488, Note_on_c, 9, 44, 96
11, 43552, Note_off_c, 9, 44, 64
11, 43584, Note_off_c, 9, 44, 64
11, 43584, Note_on_c, 9, 44, 110
11, 43680, Note_off_c, 9, 44, 64
11, 43680, Note_off_c, 9, 44, 64
11, 43680, Note_off_c, 9, 44, 64
11, 43776, Note_on_c, 9, 44, 110
11, 43808, Note_off_c, 9, 36, 64
11, 43808, Note_off_c, 9, 44, 64
11, 43808, Note_off_c, 9, 44, 64
11, 43808, Note_off_c, 9, 44, 64
11, 43808, Note_on_c, 9, 44, 96
11, 43808, Note_on_c, 9, 44, 64
11, 43808, Note_off_c, 9, 44, 64
11, 43904, Note_on_c, 9, 44, 96
11, 43936, Note_on_c, 9, 44, 110
11, 44032, Note_on_c, 9, 44, 64
11, 44032, Note_off_c, 9, 44, 64
11, 44160, Note_off_c, 9, 44, 64
11, 44160, Note_on_c, 9, 44, 110
11, 44256, Note_on_c, 9, 36, 110
11, 44256, Note_off_c, 9, 44, 64
11, 44352, Note_off_c, 9, 44, 64
11, 44384, Note_on_c, 9, 44, 110
11, 44544, Note_off_c, 9, 44, 64
11, 44544, Note_off_c, 9, 44, 64
11, 44544, Note_off_c, 9, 44, 64
11, 44560, Note_off_c, 9, 44, 64
11, 44736, Note_off_c, 9, 36, 64
11, 44736, Note_off_c, 9, 44, 64
11, 44932, Note_on_c, 9, 36, 110
11, 44960, Note_on_c, 9, 44, 96
11, 45104, Note_off_c, 9, 44, 64
11, 45120, Note_on_c, 9, 38, 110
11, 45184, Note_off_c, 9, 44, 64
11, 45216, Note_off_c, 9, 44, 64
11, 45312, Note_off_c, 9, 36, 64
11, 45408, Note_off_c, 9, 44, 64
11, 45504, Note_on_c, 9, 38, 110
11, 45504, Note_on_c, 9, 44, 96
11, 45504, Control_c, 9, 7, 40
11, 45600, Note_off_c, 9, 44, 64
11, 45632, Note_off_c, 9, 44, 64
11, 45696, Note_on_c, 9, 44, 64
11, 45696, Note_off_c, 9, 44, 64
11, 45696, Note_off_c, 9, 44, 64
11, 45696, Note_off_c, 9, 38, 64
11, 45696, Note_off_c, 9, 44, 64
11, 45792, Note_off_c, 9, 44, 64
11, 45792, Note_on_c, 9, 36, 110
11, 45792, Note_on_c, 9, 38, 110
11, 45808, Note_on_c, 9, 38, 110
11, 45888, Note_off_c, 9, 36, 64
11, 46064, Note_off_c, 9, 44, 64
11, 46080, Note_on_c, 9, 38, 110
11, 46080, Note_off_c, 9, 44, 64
11, 46080, Note_off_c, 9, 44, 64
11, 46080, Note_on_c, 9, 44, 110
11, 46080, Note_on_c, 9, 38, 110
11, 46264, Note_off_c, 9, 44, 64
11, 46368, Note_on_c, 9, 44, 110
11, 46560, Note_off_c, 9, 44, 64
11, 46656, Note_off_c, 9, 44, 64
11, 46656, Note_off_c, 9, 44, 64
11, 46656, Note_on_c, 9, 44, 110
11, 46656, Note_on_c, 9, 44, 64
11, 46664, Note_off_c, 9, 44, 64
11, 46688, Note_on_c, 9, 44, 110
11, 46752, Note_on_c, 9, 38, 110
11, 46880, Note_on_c, 9, 38, 110
11, 47232, Note_on_c, 9, 44, 96
11, 47328, Note_on_c, 9, 38, 110
11, 47408, Note_on_c, 9, 38, 110
11, 47424, Note_on_c, 9, 44, 96
11, 47424, Note_on_c, 9, 38, 110
11, 47424, Note_off_c, 9, 44, 64
11, 47424, Note_on_c, 9, 36, 110
11, 47616, Note_on_c, 9, 44, 110
11, 47616, Note_off_c, 9, 44, 64
11, 47616, Note_off_c, 9, 44, 64
11, 47624, Note_off_c, 9, 44, 64
11, 47684, Note_on_c, 9, 36, 110
11, 47808, Note_on_c, 9, 44, 64
11, 47904, Note_on_c, 9, 44, 96
11, 48000, Note_off_c, 9, 38, 64
11, 48096, Note_on_c, 9, 44, 64
11, 48480, Note_on_c, 9, 44, 64
11, 48512, Note_on_c, 9, 44, 96
11, 48576, Note_on_c, 9, 44, 64
11, 49088, Note_off_c, 9, 44, 64
11, 49152, Note_on_c, 9, 44, 64
11, 49152, Note_on_c, 9, 44, 110
11, 49152, Note_on_c, 9, 44, 96
11, 49152, Note_on_c, 9, 44, 64
11, 49152, Note_on_c, 9, 44, 110
11, 49280, Note_on_c, 9, 44, 96
11, 49344, Note_on_c, 9, 36, 110
11, 49440, Note_off_c, 9, 44, 64
11, 49536, Note_on_c, 9, 46, 64
11, 49536, Note_on_c, 9, 44, 64
11, 49568, Note_on_c, 9, 46, 110
11, 49696, Note_off_c, 9, 44, 64
11, 49824, Note_off_c, 9, 42, 64
11, 50080, Note_off_c, 9, 44, 64
11, 50112, Note_on_c, 9, 44, 110
11, 50144, Note_on_c, 9, 44, 64
11, 50416, Note_on_c, 7, 80, 91
11, 50816, Note_off_c, 9, 44, 64
11, 50912, Note_off_c, 8, 83, 64
11, 51168, Note_off_c, 9, 44, 64
11, 51264, Note_on_c, 9, 38, 110
11, 51424, Note_off_c, 9, 36, 64
11, 51456, Note_off_c, 9, 44, 64
11, 51456, Note_off_c, 9, 44, 64
11, 51840, Note_on_c, 9, 36, 110
11, 51840, Note_on_c, 9, 38, 110
11, 51840, Note_on_c, 9, 36, 110
11, 51840, Note_on_c, 9, 36, 110
11, 52192, Note_on_c, 9, 36, 110
11, 52224, Note_on_c, 9, 36, 110
11, 52224, Control_c, 9, 7, 12
11, 52224, Note_on_c, 9, 44, 110
11, 52416, Note_off_c, 9, 44, 64
11, 52416, Note_on_c, 9, 36, 110
11, 52416, Note_off_c, 9, 44, 64
11, 52512, Note_on_c, 9, 44, 110
11, 52552, Note_on_c, 9, 36, 110
11, 52672, Note_on_c, 9, 44, 64
11, 52800, Note_on_c, 9, 44, 96
11, 52896, Note_on_c, 9, 44, 110
11, 52960, Note_on_c, 9, 44, 96
11, 53056, Note_off_c, 9, 44, 64
11, 53056, Note_on_c, 9, 36, 110
11, 53088, Note_off_c, 9, 44, 64
11, 53088, Note_off_c, 9, 44, 64
11, 53088, Note_off_c, 9, 44, 64
11, 53152, Note_off_c, 9, 44, 64
11, 53152, Note_off_c, 9, 44, 64
11, 53184, Note_off_c, 9, 44, 64
11, 53184, Note_on_c, 9, 36, 110
11, 53184, Note_on_c, 9, 36, 110
11, 53184, Note_on_c, 9, 38, 110
11, 53184, Note_off_c, 9, 38, 64
11, 53184, Note_on_c, 9, 36, 110
11, 53184, Note_on_c, 9, 36, 110
11, 53376, Note_on_c, 9, 44, 64
11, 53376, Note_on_c, 9, 44, 64
11, 53376, Note_off_c, 9, 44, 64
11, 53464, Note_on_c, 9, 44, 64
11, 53472, Note_on_c, 9, 44, 110
11, 53472, Note_on_c, 9, 36, 110
11, 53568, Note_on_c, 9, 38, 110
11, 53568, Note_on_c, 9, 38, 110
11, 53568, Note_on_c, 9, 44, 64
11, 53568, Note_off_c, 9, 36, 64
11, 53568, Note_on_c, 9, 36, 110
11, 53568, Note_on_c, 9, 38, 110
11, 53568, Note_off_c, 9, 44, 64
11, 53584, Note_on_c, 9, 5, 62, 64
11, 53600, Note_off_c, 9, 44, 64
11, 53664, Note_on_c, 9, 44, 96
11, 53664, Control_c, 9, 7, 81
11, 53664, Control_c, 9, 7, 32
11, 53664, Note_off_c, 9, 44, 64
11, 53736, Note_on_c, 9, 44, 110
11, 53760, Control_c, 9, 7, 43
11, 53760, Note_on_c, 9, 44, 110
11, 53760, Note_on_c, 9, 44, 110
11, 53792, Note_off_c, 9, 44, 64
11, 53792, Note_on_c, 9, 36, 110
11, 53808, Note_on_c, 9, 38, 110
11, 53856, Note_on_c, 9, 44, 96
11, 53856, Note_on_c, 9, 44, 110
11, 53952, Note_on_c, 9, 44, 110
11, 53952, Note_off_c, 9, 44, 64
11, 53952, Note_on_c, 9, 36, 110
11, 53952, Note_off_c, 9, 44, 64
11, 53984, Note_on_c, 9, 44, 64
11, 53984, Note_on_c, 9, 36, 110
11, 54048, Note_off_c, 9, 44, 64
11, 54112, Note_on_c, 9, 36, 110
11, 54112, Note_off_c, 9, 44, 64
11, 54144, Note_off_c, 9, 36, 64
11, 54144, Note_on_c, 9, 36, 110
11, 54144, Note_off_c, 9, 44, 64
11, 54336, Note_off_c, 9, 44, 64
11, 54336, Note_on_c, 9, 44, 64
11, 54336, Note_on_c, 9, 38, 110
11, 54448, Note_off_c, 9, 36, 64
11, 54464, Note_off_c, 9, 44, 64
11, 54528, Note_on_c, 9, 38, 110
11, 54528, Note_on_c, 9, 44, 96
11, 54528, Note_on_c, 9, 44, 64
11, 54528, Note_on_c, 9, 38, 110
11, 54720, Note_off_c, 9, 44, 64
11, 54848, Note_off_c, 9, 44, 64
11, 54912, Note_on_c, 9, 38, 110
11, 54944, Note_off_c, 9, 44, 64
11, 54944, Note_off_c, 9, 36, 64
11, 55008, Note_off_c, 9, 44, 64
11, 55008, Note_on_c, 9, 44, 96
11, 55072, Note_off_c, 9, 44, 64
11, 55104, Note_on_c, 9, 44, 110
11, 55200, Note_off_c, 9, 44, 64
11, 55296, Note_on_c, 9, 44, 110
11, 55296, Note_on_c, 9, 36, 110
11, 55296, Note_on_c, 9, 44, 110
11, 55296, Note_on_c, 9, 44, 64
11, 55296, Note_on_c, 9, 38, 110
11, 55488, Note_off_c, 9, 44, 64
11, 55488, Note_on_c, 9, 44, 110
11, 55488, Note_on_c, 9, 36, 110
11, 55488, Note_on_c, 9, 44, 96
11, 55488, Note_on_c, 9, 46, 110
11, 55584, Note_off_c, 9, 44, 64
11, 55584, Note_on_c, 9, 44, 110
11, 55584, Note_on_c, 9, 38, 110
11, 55680, Note_on_c, 9, 44, 96
11, 55680, Note_off_c, 9, 36, 64
11, 55680, Note_off_c, 9, 44, 64
11, 55680, Note_off_c, 9, 44, 64
11, 55696, Note_off_c, 9, 0
11, 55776, Note_off_c, 9, 44, 64
11, 55872, Note_off_c, 9, 44, 64
11, 55872, Note_on_c, 9, 36, 110
11, 55872, Note_on_c, 9, 44, 64
11, 55872, Note_on_c, 9, 36, 110
11, 55872, Note_off_c, 9, 44, 64
11, 55872, Note_on_c, 9, 44, 110
11, 55872, Note_on_c, 9, 36, 110
11, 55872, Note_on_c, 9, 44, 110
11, 55872, Note_on_c, 9, 44, 100
11, 55872, Note_on_c, 9, 44, 96
11, 55872, Note_on_c, 9, 36, 110
11, 55872, Note_on_c, 9, 44, 110
11, 55896, Note_off_c, 9, 44, 64
11, 55936, Note_on_c, 9, 36, 110
11, 56032, Note_on_c, 0, 75, 110
11, 56064, Note_off_c, 9, 44, 64
11, 56064, Note_off_c, 9, 44, 64
11, 56064, Note_on_c, 9, 36, 110
11, 56160, Note_on_c, 9, 36, 110
11, 56256, Note_on_c, 9, 38, 110
11, 56256, Note_on_c, 9, 44, 110
11, 56272, Note_on_c, 9, 44, 110
11, 56448, Note_off_c, 9, 38, 64
11, 56448, Note_on_c, 9, 38, 110
11, 56448, Note_off_c, 9, 44, 64
11, 56448, Note_off_c, 9, 44, 64
11, 56448, Note_on_c, 9, 44, 96
11, 56544, Note_on_c, 9, 36, 110
11, 56576, Note_on_c, 9, 36, 110
11, 56656, Note_on_c, 9, 44, 96
11, 56832, Note_on_c, 9, 44, 110
11, 56832, Note_off_c, 9, 44, 64
11, 56832, Note_on_c, 9, 44, 96
11, 56832, Note_on_c, 9, 44, 110
11, 56832, Note_on_c, 9, 36, 110
11, 56832, Note_off_c, 9, 38, 64
11, 56832, Note_off_c, 9, 36, 64
11, 56864, Note_off_c, 9, 44, 64
11, 56928, Note_off_c, 9, 38, 64
11, 56960, Note_off_c, 9, 44, 64
11, 57024, Note_on_c, 9, 44, 96
11, 57024, Note_off_c, 9, 36, 64
11, 57024, Note_off_c, 9, 44, 64
11, 57024, Note_off_c, 9, 44, 64
11, 57088, Note_off_c, 6, 71, 64
11, 57088, Note_on_c, 9, 44, 64
11, 57120, Note_off_c, 9, 44, 64
11, 57184, Note_off_c, 9, 44, 64
11, 57216, Note_off_c, 6, 68, 64
11, 57216, Note_off_c, 9, 36, 64
11, 57216, Note_on_c, 9, 44, 96
11, 57248, Note_on_c, 9, 38, 110
11, 57280, Note_on_c, 9, 36, 110
11, 57408, Note_off_c, 8, 82, 64
11, 57408, Note_on_c, 9, 46, 110
11, 57488, Note_on_c, 9, 36, 110
11, 57504, Control_c, 9, 7, 81
11, 57600, Note_off_c, 9, 44, 64
11, 57600, Note_off_c, 9, 44, 64
11, 57600, Note_on_c, 9, 36, 110
11, 57600, Note_on_c, 9, 36, 110
11, 57600, Note_off_c, 9, 38, 64
11, 57600, Note_on_c, 9, 38, 110
11, 57696, Note_off_c, 9, 44, 64
11, 57792, Note_on_c, 9, 44, 64
11, 57792, Note_off_c, 9, 44, 64
11, 57792, Note_off_c, 9, 44, 64
11, 57824, Note_on_c, 9, 36, 110
11, 57824, Note_on_c, 9, 44, 110
11, 57888, Note_on_c, 9, 44, 96
11, 58080, Note_on_c, 9, 44, 96
11, 58336, Note_on_c, 9, 44, 96
11, 58368, Note_on_c, 9, 44, 110
11, 58368, Note_on_c, 9, 44, 96
11, 58368, Note_off_c, 9, 44, 64
11, 58368, Note_on_c, 9, 44, 110
11, 58368, Note_on_c, 9, 38, 110
11, 58464, Note_off_c, 9, 44, 64
11, 58464, Note_off_c, 9, 44, 64
11, 58560, Note_on_c, 9, 44, 64
11, 58560, Note_off_c, 9, 44, 64
11, 58752, Note_on_c, 9, 44, 110
11, 58912, Note_on_c, 9, 44, 64
11, 58976, Note_off_c, 9, 44, 64
11, 58976, Note_on_c, 9, 36, 110
11, 59040, Note_off_c, 9, 44, 64
11, 59104, Note_on_c, 9, 36, 110
11, 59328, Note_on_c, 9, 36, 110
11, 59328, Note_on_c, 9, 44, 64
11, 59328, Note_off_c, 9, 40, 110
11, 59328, Note_off_c, 9, 44, 64
11, 59520, Note_off_c, 9, 36, 64
11, 59520, Note_off_c, 9, 44, 64
11, 59520, Note_off_c, 9, 44, 64
11, 59520, Note_on_c, 9, 44, 64
11, 59520, Note_off_c, 9, 36, 64
11, 59520, Note_on_c, 9, 44, 64
11, 59552, Note_off_c, 9, 44, 64
11, 59656, Note_on_c, 9, 36, 110
11, 59712, Note_off_c, 8, 65, 64
11, 59712, Note_on_c, 9, 36, 110
11, 59712, Note_off_c, 9, 44, 64
11, 59712, Note_on_c, 9, 46, 110
11, 59712, Note_on_c, 9, 38, 110
11, 59744, Note_on_c, 9, 44, 64
11, 59936, Note_on_c, 9, 44, 96
11, 60096, Note_on_c, 9, 38, 110
11, 60192, Note_on_c, 9, 44, 64
11, 60256, Note_on_c, 9, 36, 110
11, 60288, Note_off_c, 9, 36, 64
11, 60512, Note_on_c, 9, 36, 110
11, 60736, Note_on_c, 9, 44, 96
11, 60864, Note_off_c, 9, 44, 64
11, 60864, Note_on_c, 9, 44, 110
11, 61040, Note_on_c, 9, 44, 64
11, 61120, Note_off_c, 9, 44, 64
11, 61120, Note_on_c, 9, 44, 110
11, 61216, Note_on_c, 9, 36, 110
11, 61232, Note_on_c, 9, 44, 64
11, 61248, Note_off_c, 9, 44, 64
11, 61264, Note_on_c, 9, 38, 110
11, 61280, Note_off_c, 9, 44, 64
11, 61312, Note_on_c, 9, 38, 110
11, 61440, Note_on_c, 9, 44, 64
11, 61440, Note_on_c, 9, 36, 110
11, 61568, Note_on_c, 9, 36, 110
11, 61632, Note_on_c, 9, 44, 64
11, 61632, Note_on_c, 9, 44, 64
11, 61632, Note_off_c, 9, 44, 64
11, 61664, Note_on_c, 9, 44, 64
11, 61728, Note_off_c, 9, 44, 64
11, 61808, Note_on_c, 9, 36, 110
11, 61824, Note_on_c, 9, 36, 110
11, 61824, Note_on_c, 9, 36, 110
11, 61824, Note_off_c, 9, 38, 64
11, 62016, Note_on_c, 9, 36, 110
11, 62080, Note_on_c, 9, 38, 110
11, 62080, Note_off_c, 9, 44, 64
11, 62112, Note_off_c, 9, 44, 64
11, 62208, Note_off_c, 9, 36, 64
11, 62208, Note_off_c, 9, 44, 64
11, 62208, Note_on_c, 9, 44, 64
11, 62336, Note_off_c, 9, 36, 64
11, 62400, Note_off_c, 9, 44, 64
11, 62400, Note_off_c, 9, 44, 64
11, 62592, Note_off_c, 9, 44, 64
11, 62592, Note_on_c, 9, 44, 64
11, 62592, Note_on_c, 9, 36, 110
11, 62592, Note_off_c, 9, 38, 64
11, 62608, Note_on_c, 9, 38, 110
11, 62688, Note_on_c, 9, 44, 64
11, 62784, Note_on_c, 9, 44, 64
11, 62784, Note_on_c, 9, 38, 110
11, 62816, Note_on_c, 9, 36, 110
11, 62904, Note_on_c, 9, 44, 96
11, 62912, Note_on_c, 9, 44, 110
11, 62944, Note_off_c, 9, 44, 64
11, 62976, Note_on_c, 9, 44, 96
11, 63168, Note_off_c, 9, 44, 64
11, 63168, Note_off_c, 9, 44, 64
11, 63168, Note_off_c, 9, 44, 64
11, 63168, Note_off_c, 9, 44, 64
11, 63168, Note_off_c, 9, 36, 64
11, 63184, Note_off_c, 9, 38, 64
11, 63200, Note_off_c, 9, 44, 64
11, 63264, Note_on_c, 9, 38, 110
11, 63344, Note_on_c, 9, 36, 110
11, 63360, Note_on_c, 9, 38, 110
11, 63360, Note_off_c, 9, 44, 64
11, 63360, Note_on_c, 9, 44, 64
11, 63360, Note_on_c, 9, 36, 110
11, 63360, Note_on_c, 9, 38, 110
11, 63360, Note_on_c, 9, 36, 110
11, 63360, Note_on_c, 9, 44, 64
11, 63360, Note_on_c, 9, 36, 110
11, 63360, Note_on_c, 9, 36, 110
11, 63392, Note_off_c, 9, 44, 64
11, 63552, Note_on_c, 9, 44, 64
11, 63552, Note_off_c, 9, 44, 64
11, 63552, Note_off_c, 9, 44, 64
11, 63552, Note_off_c, 9, 44, 64
11, 63584, Control_c, 9, 7, 18
11, 63584, Note_on_c, 9, 36, 110
11, 63584, Note_on_c, 9, 36, 110
11, 63712, Control_c, 9, 7, 37
11, 63744, Control_c, 9, 7, 58
11, 63744, Note_on_c, 9, 44, 110
11, 63760, Note_on_c, 9, 36, 110
11, 63776, Note_on_c, 9, 38, 110
11, 63936, Note_on_c, 9, 38, 110
11, 63936, Note_off_c, 9, 44, 64
11, 64128, Note_off_c, 9, 44, 64
11, 64128, Note_on_c, 9, 44, 96
11, 64128, Note_on_c, 9, 44, 76
11, 64128, Note_off_c, 9, 44, 64
11, 64128, Note_on_c, 9, 44, 64
11, 64128, Note_on_c, 9, 44, 96
11, 64136, Note_on_c, 9, 44, 96
11, 64208, Note_off_c, 9, 44, 64
11, 64320, Note_on_c, 9, 38, 110
11, 64320, Note_off_c, 9, 44, 64
11, 64320, Note_on_c, 9, 36, 110
11, 64320, Note_on_c, 9, 44, 110
11, 64320, Note_on_c, 9, 44, 96
11, 64512, Control_c, 9, 7, 14
11, 64512, Note_off_c, 9, 44, 64
11, 64512, Note_off_c, 9, 44, 64
11, 64704, Note_off_c, 9, 38, 64
11, 64800, Note_off_c, 9, 44, 64
11, 64832, Note_off_c, 9, 44, 64
11, 65088, Note_off_c, 9, 44, 64
11, 65088, Note_on_c, 9, 44, 64
11, 65184, Note_off_c, 9, 36, 64
11, 65248, Note_on_c, 9, 36, 110
11, 65272, Note_on_c, 9, 36, 110
11, 65280, Note_off_c, 9, 36, 64
11, 65280, Note_on_c, 9, 38, 110
11, 65280, Note_on_c, 9, 44, 110
11, 65376, Note_on_c, 9, 44, 64
11, 65472, Note_on_c, 9, 36, 110
11, 65568, Note_on_c, 9, 44, 64
11, 65584, Note_on_c, 9, 36, 110
11, 65632, Note_on_c, 9, 44, 110
11, 65664, Note_on_c, 9, 44, 96
11, 65664, Note_on_c, 9, 36, 110
11, 65664, Note_on_c, 9, 44, 96
11, 65664, Note_on_c, 9, 44, 110
11, 65824, Note_off_c, 9, 44, 64
11, 65824, Note_off_c, 9, 44, 64
11, 65856, Note_on_c, 9, 44, 96
11, 65856, Note_off_c, 9, 1, 110
11, 65984, Note_on_c, 9, 44, 110
11, 66048, Note_off_c, 9, 44, 64
11, 66144, Note_on_c, 9, 36, 110
11, 66240, Note_off_c, 9, 44, 64
11, 66240, Note_off_c, 9, 44, 64
11, 66240, Note_on_c, 9, 38, 110
11, 66240, Note_on_c, 9, 44, 96
11, 66272, Note_on_c, 9, 36, 110
11, 66432, Note_off_c, 9, 44, 64
11, 66432, Note_off_c, 9, 36, 64
11, 66432, Note_on_c, 9, 36, 110
11, 66432, Note_off_c, 9, 44, 64
11, 66464, Note_on_c, 9, 44, 110
11, 66528, Note_off_c, 9, 44, 64
11, 66624, Note_on_c, 9, 36, 110
11, 66624, Note_off_c, 9, 44, 64
11, 66624, Note_on_c, 9, 44, 110
11, 66624, Note_off_c, 9, 44, 64
11, 66816, Note_on_c, 9, 36, 110
11, 67168, Note_off_c, 9, 44, 64
11, 67168, Note_on_c, 9, 44, 64
11, 67200, Note_on_c, 9, 36, 110
11, 67200, Note_on_c, 9, 44, 110
11, 67296, Note_on_c, 9, 44, 110
11, 67304, Note_on_c, 9, 38, 110
11, 67376, Note_on_c, 9, 36, 110
11, 67392, Note_on_c, 9, 36, 110
11, 67392, Note_off_c, 9, 44, 64
11, 67544, Note_off_c, 9, 44, 64
11, 67584, Note_on_c, 9, 44, 64
11, 67584, Note_on_c, 9, 38, 44
11, 67584, Note_on_c, 9, 44, 64
11, 67584, Note_on_c, 9, 44, 64
11, 67600, Note_off_c, 9, 44, 64
11, 67680, Note_off_c, 9, 44, 64
11, 67760, Note_off_c, 9, 46, 64
11, 67776, Note_on_c, 9, 44, 64
11, 67776, Note_off_c, 9, 44, 64
11, 67776, Note_off_c, 9, 44, 64
11, 67776, Note_on_c, 9, 44, 96
11, 67776, Note_off_c, 9, 80, 88
11, 67776, Note_on_c, 9, 44, 96
11, 67776, Note_off_c, 9, 36, 64
11, 67776, Note_on_c, 9, 38, 110
11, 67792, Note_on_c, 9, 44, 96
11, 67808, Note_on_c, 9, 36, 110
11, 67872, Note_off_c, 9, 44, 64
11, 67904, Note_on_c, 9, 38, 110
11, 67936, Note_on_c, 9, 38, 110
11, 67968, Note_on_c, 9, 36, 110
11, 67968, Note_off_c, 9, 44, 64
11, 67968, Note_on_c, 9, 38, 110
11, 68160, Note_on_c, 9, 44, 78
11, 68160, Note_on_c, 9, 38, 110
11, 68384, Note_on_c, 9, 44, 96
11, 68480, Note_on_c, 9, 44, 110
11, 68544, Note_on_c, 9, 36, 110
11, 68544, Note_on_c, 9, 44, 110
11, 68544, Note_on_c, 9, 36, 110
11, 68672, Note_off_c, 9, 44, 64
11, 68736, Note_off_c, 9, 36, 64
11, 68856, Note_off_c, 0, 66, 64
11, 69024, Note_off_c, 9, 44, 64
11, 69120, Note_on_c, 9, 44, 64
11, 69328, Note_on_c, 9, 44, 64
11, 69392, Note_on_c, 9, 44, 96
11, 69392, Note_off_c, 9, 44, 64
11, 69440, Note_off_c, 9, 44, 64
11, 69504, Note_off_c, 9, 38, 64
11, 69520, Note_on_c, 9, 44, 64
11, 69520, Note_on_c, 9, 36, 110
11, 69536, Note_on_c, 9, 36, 110
11, 69600, Note_on_c, 9, 38, 110
11, 69632, Note_off_c, 9, 44, 64
11, 69696, Note_off_c, 9, 36, 64
11, 69824, Note_on_c, 9, 44, 64
11, 69824, Note_off_c, 9, 44, 64
11, 69824, Note_on_c, 9, 44, 96
11, 69888, Note_on_c, 9, 36, 110
11, 69920, Note_off_c, 9, 38, 64
11, 70272, Note_on_c, 9, 44, 110
11, 70464, Note_on_c, 9, 36, 110
11, 70464, Note_on_c, 9, 44, 110
11, 70496, Note_on_c, 9, 44, 110
11, 70656, Note_on_c, 9, 36, 110
11, 70656, Note_on_c, 9, 36, 110
11, 70816, Note_on_c, 9, 38, 110
11, 70816, Note_off_c, 9, 44, 64
11, 71008, Note_on_c, 9, 44, 110
11, 71040, Note_on_c, 9, 38, 110
11, 71072, Note_off_c, 9, 44, 64
11, 71072, Note_off_c, 9, 38, 64
11, 71328, Note_off_c, 9, 44, 64
11, 71424, Note_on_c, 9, 38, 110
11, 71440, Note_off_c, 9, 36, 64
11, 71616, Note_on_c, 9, 46, 110
11, 71808, Note_on_c, 9, 38, 110
11, 72032, Note_off_c, 9, 36, 64
11, 72160, Note_on_c, 9, 38, 110
11, 72160, Note_off_c, 9, 44, 64
11, 72160, Note_off_c, 9, 44, 64
11, 72480, Note_on_c, 9, 44, 96
11, 72576, Note_off_c, 9, 36, 64
11, 72672, Note_off_c, 9, 44, 64
11, 72768, Note_on_c, 9, 44, 96
11, 72768, Note_on_c, 9, 38, 110
11, 72768, Note_on_c, 9, 59, 110
11, 72960, Note_on_c, 9, 44, 64
11, 73184, Note_on_c, 9, 36, 110
11, 73328, Note_off_c, 9, 44, 64
11, 73344, Note_on_c, 9, 44, 78
11, 73344, Note_on_c, 9, 38, 110
11, 73344, Note_on_c, 9, 36, 110
11, 73344, Note_off_c, 9, 44, 64
11, 73344, Note_on_c, 9, 44, 64
11, 73424, Note_on_c, 9, 36, 110
11, 73424, Note_on_c, 9, 44, 96
11, 73536, Note_on_c, 9, 36, 110
11, 73728, Note_on_c, 9, 38, 110
11, 73728, Note_on_c, 9, 38, 110
11, 73728, Note_off_c, 9, 44, 64
11, 73920, Note_on_c, 9, 36, 110
11, 73920, Note_on_c, 9, 44, 96
11, 74112, Note_on_c, 9, 44, 110
11, 74112, Note_on_c, 9, 46, 110
11, 74208, Note_on_c, 9, 73, 86
11, 74304, Note_off_c, 9, 36, 64
11, 74464, Note_on_c, 9, 46, 110
11, 74592, Note_on_c, 9, 44, 96
11, 74592, Note_off_c, 9, 44, 64
11, 74688, Note_off_c, 9, 44, 64
11, 74848, Note_on_c, 9, 36, 110
11, 74880, Note_on_c, 2, 52, 70
11, 75104, Note_on_c, 9, 36, 110
11, 75264, Note_off_c, 9, 44, 64
11, 75264, Note_on_c, 9, 36, 110
11, 75264, Note_on_c, 9, 38, 110
11, 75264, Note_on_c, 9, 58, 110
11, 75432, Note_on_c, 9, 38, 110
11, 75456, Note_off_c, 9, 44, 64
11, 75456, Note_off_c, 9, 35, 64
11, 75456, Note_on_c, 9, 44, 96
11, 75456, Note_on_c, 9, 38, 110
11, 75456, Note_on_c, 9, 44, 96
11, 75632, Note_off_c, 9, 44, 64
11, 75648, Note_on_c, 9, 44, 64
11, 75648, Note_on_c, 9, 36, 110
11, 75648, Note_on_c, 9, 44, 64
11, 75656, Note_on_c, 9, 44, 110
11, 75744, Note_off_c, 9, 44, 64
11, 75744, Note_on_c, 9, 36, 110
11, 75808, Note_on_c, 9, 44, 96
11, 75808, Note_off_c, 9, 36, 64
11, 75824, Note_off_c, 9, 44, 64
11, 75840, Note_on_c, 9, 36, 110
11, 75840, Note_off_c, 9, 44, 64
11, 75840, Note_on_c, 9, 44, 96
11, 75968, Note_on_c, 9, 38, 110
11, 76032, Note_off_c, 9, 36, 64
11, 76032, Note_on_c, 9, 44, 110
11, 76128, Note_off_c, 9, 44, 64
11, 76224, Note_on_c, 9, 44, 96
11, 76256, Note_off_c, 9, 44, 64
11, 76256, Note_off_c, 9, 44, 64
11, 76256, Note_off_c, 9, 44, 64
11, 76416, Note_off_c, 9, 36, 64
11, 76416, Note_off_c, 9, 44, 64
11, 76416, Note_off_c, 9, 44, 64
11, 76608, Note_off_c, 9, 44, 64
11, 76608, Note_off_c, 9, 38, 64
11, 76736, Note_on_c, 9, 67, 86
11, 76800, Note_on_c, 9, 44, 64
11, 76800, Note_on_c, 9, 36, 110
11, 76800, Note_off_c, 9, 44, 64
11, 76832, Note_on_c, 9, 36, 110
11, 76864, Note_off_c, 9, 57, 64
11, 77920, Note_off_c, 9, 36, 64
11, 77952, Note_off_c, 9, 38, 64
11, 78304, Note_off_c, 9, 44, 64
11, 79264, Note_on_c, 9, 44, 96
11, 79488, Note_on_c, 9, 44, 110
11, 79552, Note_on_c, 9, 38, 110
11, 79872, Note_off_c, 9, 36, 64
11, 80224, Note_off_c, 9, 59, 64
11, 80240, Note_on_c, 9, 36, 110
11, 80448, Note_on_c, 9, 38, 64
11, 80448, Note_off_c, 9, 38, 64
11, 80640, Note_on_c, 9, 38, 110
11, 80672, Note_on_c, 9, 59, 110
11, 81024, Note_off_c, 9, 53, 64
11, 81280, Note_on_c, 9, 59, 96
11, 81408, Note_off_c, 9, 59, 64
11, 81600, Note_on_c, 9, 57, 110
11, 81920, Note_on_c, 9, 38, 64
11, 82208, Note_off_c, 9, 59, 64
11, 82944, Note_off_c, 9, 36, 64
11, 84096, Note_on_c, 9, 59, 110
11, 84288, Note_on_c, 9, 59, 71
11, 84320, Note_on_c, 9, 36, 110
11, 84704, Note_off_c, 9, 59, 64
11, 84896, Note_off_c, 4, 36, 64
11, 85024, Note_off_c, 9, 59, 64
11, 85024, Note_on_c, 9, 36, 110
11, 85056, Note_off_c, 9, 59, 64
11, 85216, Note_on_c, 9, 59, 110
11, 89088, Note_on_c, 9, 87, 64
11, 89088, Note_on_c, 9, 36, 110
11, 89280, Note_off_c, 9, 36, 64
11, 90016, Note_off_c, 9, 38, 64
11, 90240, Note_on_c, 9, 36, 110
11, 91008, Note_on_c, 9, 36, 110
11, 91200, Note_on_c, 9, 36, 110
11, 91856, Note_off_c, 9, 38, 64
11, 92160, Note_on_c, 9, 59, 110
11, 92864, Note_off_c, 9, 59, 64
11, 92928, Note_on_c, 9, 59, 110
11, 93696, Note_on_c, 9, 59, 64
11, 93696, Note_on_c, 9, 59, 110
11, 95616, Note_on_c, 9, 44, 110
11, 95616, Note_on_c, 9, 36, 110
11, 95616, Note_on_c, 9, 36, 110
11, 95632, Note_off_c, 9, 59, 64
11, 95648, Note_off_c, 9, 44, 64
11, 95808, Note_on_c, 9, 46, 110
11, 96000, Note_on_c, 9, 44, 110
11, 96192, Note_off_c, 9, 44, 64
11, 96192, Note_on_c, 9, 36, 110
11, 96192, Note_on_c, 9, 44, 64
11, 96220, Note_on_c, 9, 44, 110
11, 96384, Note_on_c, 9, 46, 110
11, 96384, Note_off_c, 9, 44, 64
11, 96672, Note_on_c, 9, 36, 110
11, 96704, Note_off_c, 9, 36, 64
11, 96768, Note_on_c, 9, 36, 110
11, 98080, Note_on_c, 9, 44, 110
11, 98208, Note_off_c, 9, 36, 64
11, 98880, Note_on_c, 9, 44, 64
11, 99072, Note_on_c, 9, 36, 110
11, 99168, Note_on_c, 9, 38, 110
11, 99728, Note_on_c, 9, 36, 110
11, 99840, Note_on_c, 9, 36, 110
11, 100192, Note_off_c, 9, 46, 64
11, 103392, Note_on_c, 9, 53, 101
11, 104352, Note_on_c, 9, 53, 101
11, 104928, Note_off_c, 9, 57, 64
11, 107648, Note_on_c, 9, 44, 110
11, 112736, Note_off_c, 9, 36, 64
11, 113184, Note_on_c, 9, 36, 110
11, 113664, Note_on_c, 9, 36, 110
11, 113664, Control_c, 9, 3, 71
11, 114432, Note_off_c, 9, 44, 64
11, 114816, Note_off_c, 9, 36, 64
11, 115232, Note_on_c, 9, 10, 87
11, 115680, Note_on_c, 9, 36, 110
11, 116160, Note_off_c, 9, 44, 64
11, 116704, Note_on_c, 9, 44, 78
11, 117392, Note_off_c, 9, 44, 64
11, 117408, Note_off_c, 9, 46, 64
11, 118048, Note_off_c, 9, 44, 64
11, 118048, Note_on_c, 9, 46, 96
11, 118080, Note_off_c, 8, 38, 64
11, 118208, Note_on_c, 9, 44, 64
11, 118208, Note_off_c, 9, 44, 64
11, 118272, Note_on_c, 9, 36, 110
11, 118464, Note_on_c, 9, 46, 99
11, 118656, Note_on_c, 9, 44, 96
11, 119040, Note_off_c, 9, 46, 64
11, 120448, Note_off_c, 9, 46, 64
11, 120672, Note_off_c, 9, 44, 64
11, 121120n0, Note_off_c, 9, 44, 64
11, 122400, Note_off_c, 9, 44, 64
11, 122784, Note_on_c, 9, 44, 64
11, 123648, Note_on_c, 9, 44, 64
11, 123696, Note_on_c, 9, 36, 110
11, 124416, Note_off_c, 9, 44, 64
11, 124640, Note_off_c, 9, 44, 64
11, 125184, Note_on_c, 9, 44, 64
11, 125600, Note_off_c, 9, 36, 64
11, 125696, Note_off_c, 9, 44, 64
11, 125760, Note_on_c, 9, 36, 110
11, 126912, Note_on_c, 9, 44, 110
11, 128896, Note_on_c, 9, 44, 110
11, 129408, Note_off_c, 9, 44, 64
11, 129792, Note_on_c, 9, 38, 110
11, 130576, Note_off_c, 9, 38, 64
11, 130848, Note_on_c, 9, 44, 110
11, 130976, Note_on_c, 9, 36, 110
11, 131008, Note_off_c, 9, 44, 64
11, 131216, Note_off_c, 9, 44, 64
11, 131232, Note_on_c, 9, 36, 110
11, 131520, Note_off_c, 9, 44, 64
11, 131712, Note_on_c, 9, 36, 110
11, 131712, Note_on_c, 9, 44, 110
11, 131904, Note_on_c, 9, 44, 96
11, 131936, Note_on_c, 9, 36, 110
11, 132000, Note_off_c, 9, 46, 64
11, 132256, Note_on_c, 9, 44, 64
11, 132288, Note_off_c, 9, 38, 64
11, 132320, Note_off_c, 9, 38, 64
11, 132576, Note_on_c, 9, 44, 64
11, 132768, Note_off_c, 9, 44, 64
11, 132864, Note_on_c, 9, 44, 64
11, 133024, Note_on_c, 9, 44, 64
11, 133056, Note_on_c, 9, 38, 110
11, 133248, Note_on_c, 9, 44, 110
11, 133568, Note_on_c, 9, 44, 110
11, 133664, Note_on_c, 9, 44, 96
11, 133920, Note_off_c, 9, 44, 64
11, 134016, Note_off_c, 9, 44, 64
11, 134176, Note_off_c, 9, 38, 64
11, 134176, Note_off_c, 9, 44, 64
11, 134400, Note_on_c, 9, 44, 64
11, 134400, Note_on_c, 9, 44, 96
11, 134496, Note_off_c, 9, 44, 64
11, 134496, Note_on_c, 9, 44, 96
11, 134688, Note_on_c, 9, 44, 110
11, 134976, Note_on_c, 9, 38, 110
11, 135040, Note_off_c, 9, 44, 64
11, 135072, Note_on_c, 8, 76, 71
11, 135168, Note_on_c, 9, 44, 96
11, 135168, Note_on_c, 9, 44, 64
11, 135168, Program_c, 9, 0
11, 135264, Note_on_c, 9, 38, 110
11, 135360, Note_on_c, 9, 44, 110
11, 135360, Note_on_c, 9, 36, 110
11, 136320, Note_on_c, 9, 38, 110
11, 136320, Note_off_c, 9, 44, 64
11, 136416, Note_off_c, 9, 38, 64
11, 136448, Note_on_c, 9, 44, 64
11, 136512, Note_on_c, 9, 44, 110
11, 136512, Note_off_c, 9, 38, 64
11, 136512, Note_off_c, 9, 44, 64
11, 136800, Note_off_c, 9, 44, 64
11, 137184, Note_on_c, 9, 44, 96
11, 137440, Note_on_c, 9, 44, 64
11, 137472, Note_off_c, 9, 38, 64
11, 137664, Note_on_c, 9, 36, 110
11, 137664, Note_on_c, 9, 38, 110
11, 137664, Note_off_c, 9, 36, 64
11, 137680, Note_off_c, 9, 44, 64
11, 138240, Note_off_c, 9, 44, 64
11, 138240, Note_on_c, 9, 44, 110
11, 138272, Note_on_c, 9, 44, 64
11, 139008, Note_off_c, 9, 44, 64
11, 139744, Note_off_c, 9, 44, 64
11, 139904, Note_off_c, 9, 44, 64
11, 140032, Note_on_c, 9, 36, 110
11, 140128, Note_on_c, 9, 44, 64
11, 140128, Note_on_c, 9, 44, 110
11, 140128, Note_on_c, 9, 36, 110
11, 140160, Note_on_c, 9, 36, 110
11, 140160, Note_on_c, 9, 44, 110
11, 140160, Note_on_c, 9, 44, 96
11, 140160, Note_on_c, 9, 38, 110
11, 140160, Note_on_c, 9, 44, 96
11, 140192, Note_off_c, 9, 36, 64
11, 140192, Note_off_c, 3, 37, 64
11, 140224, Note_off_c, 9, 44, 64
11, 140240, Note_off_c, 9, 44, 64
11, 140368, Note_on_c, 9, 44, 96
11, 140384, Note_off_c, 9, 44, 64
11, 140448, Note_on_c, 9, 44, 110
11, 140544, Note_off_c, 9, 44, 64
11, 140544, Note_off_c, 9, 44, 64
11, 140544, Note_off_c, 9, 44, 64
11, 140544, Note_off_c, 9, 46, 64
11, 140544, Note_off_c, 9, 44, 64
11, 140576, Note_on_c, 9, 44, 96
11, 140640, Note_on_c, 9, 38, 110
11, 140736, Note_on_c, 9, 38, 110
11, 140768, Note_off_c, 9, 44, 64
11, 140800, Note_off_c, 9, 44, 64
11, 140832, Note_off_c, 9, 44, 64
11, 140928, Note_on_c, 9, 38, 110
11, 140928, Note_off_c, 9, 44, 64
11, 140928, Note_off_c, 9, 44, 64
11, 140928, Note_on_c, 9, 44, 96
11, 140960, Note_on_c, 9, 44, 96
11, 140960, Note_on_c, 9, 44, 110
11, 140960, Note_on_c, 9, 44, 110
11, 141120, Note_on_c, 9, 44, 96
11, 141248, Note_off_c, 9, 44, 64
11, 141312, Note_on_c, 9, 38, 110
11, 141312, Note_on_c, 9, 38, 110
11, 141504, Note_off_c, 9, 44, 64
11, 141600, Note_on_c, 9, 36, 110
11, 141824, Note_on_c, 9, 36, 110
11, 141824, Note_off_c, 9, 44, 64
11, 141824, Note_off_c, 9, 38, 64
11, 141824, Note_off_c, 9, 44, 64
11, 141824, Note_on_c, 9, 36, 110
11, 141888, Note_on_c, 9, 44, 110
11, 142016, Note_off_c, 9, 36, 64
11, 142048, Note_on_c, 9, 44, 110
11, 142080, Note_on_c, 9, 36, 110
11, 142080, Note_on_c, 9, 36, 110
11, 142080, Note_on_c, 9, 44, 64
11, 142080, Note_on_c, 9, 44, 96
11, 142288, Note_on_c, 9, 36, 110
11, 142368, Note_off_c, 9, 36, 64
11, 142752, Note_on_c, 9, 38, 110
11, 142880, Note_on_c, 9, 44, 110
11, 143136, Note_on_c, 9, 38, 110
11, 143216, Note_on_c, 9, 44, 64
11, 143232, Note_off_c, 9, 44, 64
11, 143232, Note_off_c, 8, 87, 64
11, 143424, Note_on_c, 9, 36, 64
11, 143616, Note_off_c, 9, 36, 64
11, 143616, Note_off_c, 9, 44, 64
11, 143616, Note_on_c, 9, 38, 110
11, 143616, Note_on_c, 9, 44, 96
11, 143616, Note_off_c, 9, 44, 64
11, 143648, Note_off_c, 9, 44, 64
11, 143680, Note_on_c, 9, 36, 110
11, 143728, Note_on_c, 9, 36, 110
11, 143808, Note_off_c, 9, 44, 64
11, 143936, Note_off_c, 9, 44, 64
11, 144000, Note_on_c, 9, 44, 64
11, 144032, Note_off_c, 9, 44, 64
11, 144032, Note_on_c, 9, 44, 64
11, 144160, Note_off_c, 9, 44, 64, 110
11, 144160, Note_off_c, 9, 44, 64
11, 144256, Note_on_c, 9, 44, 64
11, 144384, Note_off_c, 9, 44, 64
11, 144384, Note_off_c, 9, 44, 64
11, 144384, Note_on_c, 9, 36, 110
11, 144384, Note_on_c, 9, 38, 110
11, 144384, Note_off_c, 9, 44, 64
11, 144608, Note_off_c, 9, 36, 64
11, 144640, Note_off_c, 9, 44, 64
11, 144672, Note_on_c, 9, 44, 96
11, 144691, Note_on_c, 9, 44, 96
11, 144704, Note_off_c, 9, 44, 64
11, 144928, Note_off_c, 9, 64
11, 144960, Note_on_c, 9, 38, 110
11, 145152, Note_on_c, 9, 38, 110
11, 145408, Note_on_c, 9, 44, 96
11, 145568, Note_off_c, 9, 44, 64
11, 145568, Note_on_c, 9, 38, 110
11, 145728, Note_off_c, 9, 38, 64
11, 146080, Note_off_c, 9, 44, 64
11, 146080, Note_on_c, 9, 44, 110
11, 146112, Note_on_c, 9, 44, 96
11, 146112, Note_off_c, 3, 37, 64
11, 146112, Note_on_c, 9, 46, 110
11, 146128, Note_off_c, 9, 44, 64
11, 146304, Note_on_c, 9, 5, 7, 17
11, 146496, Note_on_c, 9, 44, 110
11, 146688, Note_on_c, 8, 88, 110
11, 146720, Note_off_c, 9, 36, 64
11, 146784, Note_on_c, 9, 44, 64
11, 146784, Note_on_c, 9, 36, 110
11, 146816, Note_off_c, 9, 38, 64
11, 146880, Note_on_c, 9, 44, 96
11, 146880, Note_on_c, 9, 44, 96
11, 147040, Note_on_c, 9, 44, 64
11, 147264, Note_on_c, 9, 38, 110
11, 147584, Note_off_c, 9, 44, 64
11, 147744, Note_on_c, 9, 44, 110
11, 147744, Note_off_c, 9, 44, 64
11, 147856, Note_on_c, 9, 44, 96
11, 147968, Note_off_c, 8, 76, 64
11, 148032, Note_off_c, 9, 44, 64
11, 148032, Note_on_c, 9, 46, 110
11, 148032, Note_on_c, 9, 46, 110
11, 148032, Note_on_c, 9, 44, 110
11, 148128, Note_on_c, 9, 44, 96
11, 148128, Note_on_c, 9, 36, 110
11, 148192, Note_on_c, 9, 44, 96
11, 148208, Note_off_c, 9, 44, 64
11, 148224, Note_on_c, 9, 44, 110
11, 148256, Note_on_c, 9, 44, 64
11, 148416, Note_on_c, 9, 44, 64
11, 148416, Note_off_c, 9, 44, 64
11, 148432, Note_off_c, 9, 44, 64
11, 148448, Note_off_c, 9, 44, 64
11, 148576, Note_off_c, 9, 44, 64
11, 148608, Note_on_c, 9, 44, 96
11, 148608, Note_on_c, 9, 38, 110
11, 148608, Note_off_c, 9, 36, 64
11, 148608, Note_off_c, 9, 44, 64
11, 148704, Note_on_c, 9, 38, 110
11, 148912, Note_off_c, 9, 44, 64
11, 148928, Note_on_c, 9, 44, 64
11, 148928, Note_on_c, 9, 44, 64
11, 148928, Note_on_c, 9, 38, 110
11, 149024, Note_on_c, 9, 44, 96
11, 149184, Note_off_c, 9, 44, 64
11, 149188, Note_on_c, 9, 44, 110
11, 149280, Note_on_c, 9, 38, 110
11, 149280, Note_on_c, 9, 38, 110
11, 149376, Note_off_c, 9, 37, 110
11, 149440, Note_off_c, 9, 44, 64
11, 149440, Note_on_c, 9, 36, 110
11, 149600, Note_off_c, 9, 44, 64
11, 149600, Note_on_c, 9, 44, 110
11, 149760, Note_off_c, 9, 44, 64
11, 149760, Note_on_c, 9, 44, 96
11, 149760, Note_on_c, 9, 36, 110
11, 149952, Note_off_c, 9, 38, 64
11, 150048, Note_off_c, 9, 44, 64
11, 150144, Note_off_c, 9, 44, 64
11, 150144, Note_off_c, 9, 44, 64
11, 150144, Note_on_c, 9, 44, 110
11, 150144, Note_off_c, 9, 38, 64
11, 150208, Note_off_c, 9, 36, 64
11, 150336, Note_on_c, 9, 44, 96
11, 150336, Note_off_c, 9, 36, 64
11, 150528, Note_on_c, 9, 36, 110
11, 150528, Note_on_c, 9, 38, 110
11, 150528, Note_off_c, 9, 44, 64
11, 150528, Note_on_c, 9, 44, 96
11, 150560, Note_off_c, 9, 44, 64
11, 150592, Note_on_c, 9, 44, 110
11, 150848, Note_off_c, 9, 44, 64
11, 151072, Note_off_c, 9, 44, 64
11, 151264, Note_off_c, 9, 44, 64
11, 151520, Note_off_c, 9, 44, 64
11, 151680, Note_on_c, 9, 36, 110
11, 151744, Note_on_c, 9, 36, 110
11, 152032, Note_off_c, 9, 44, 64
11, 152256, Note_on_c, 9, 44, 110
11, 152448, Note_on_c, 9, 44, 96
11, 152456, Note_on_c, 9, 36, 110
11, 152672, Note_on_c, 9, 44, 110
11, 152832, Note_on_c, 9, 44, 64
11, 152832, Note_on_c, 9, 44, 96
11, 153016, Note_on_c, 9, 36, 110
11, 153024, Note_on_c, 9, 47, 110
11, 153024, Note_on_c, 9, 36, 110
11, 153248, Note_off_c, 9, 38, 64
11, 153504, Note_off_c, 9, 38, 64
11, 153600, Note_on_c, 9, 36, 110
11, 153600, Note_off_c, 9, 44, 64
11, 153632, Note_off_c, 9, 44, 64
11, 153664, Note_off_c, 9, 44, 64
11, 153912, Note_off_c, 9, 36, 64
11, 154176, Note_on_c, 9, 44, 64
11, 154176, Note_off_c, 9, 36, 64
11, 154368, Note_on_c, 9, 38, 110
11, 154464, Note_on_c, 9, 44, 110
11, 154560, Control_c, 9, 7, 100
11, 154752, Note_on_c, 9, 38, 110
11, 154752, Note_on_c, 9, 44, 110
11, 154784, Note_off_c, 9, 44, 64
11, 154944, Note_on_c, 9, 36, 110
11, 154976, Note_on_c, 9, 44, 64
11, 155136, Note_off_c, 9, 44, 64
11, 155136, Note_off_c, 9, 44, 64
11, 155328, Note_off_c, 9, 44, 64
11, 155424, Note_off_c, 9, 44, 64
11, 155520, Note_on_c, 9, 44, 110
11, 155520, Note_on_c, 9, 36, 110
11, 155520, Note_on_c, 9, 44, 110
11, 155648, Note_on_c, 9, 36, 110
11, 155712, Note_on_c, 9, 44, 64
11, 156032, Note_off_c, 9, 44, 64
11, 156064, Note_on_c, 9, 36, 110
11, 156064, Note_on_c, 9, 44, 64
11, 156080, Note_on_c, 9, 44, 110
11, 156176, Note_on_c, 9, 44, 64
11, 156288, Note_off_c, 0, 75, 64
11, 156288, Note_off_c, 9, 38, 64
11, 156480, Note_off_c, 9, 44, 64
11, 156480, Note_off_c, 9, 44, 64
11, 156672, Note_on_c, 9, 44, 110
11, 156672, Note_on_c, 9, 46, 110
11, 156672, Note_off_c, 9, 44, 64
11, 156672, Note_off_c, 9, 38, 64
11, 156672, Note_on_c, 9, 36, 110
11, 156672, Note_on_c, 9, 44, 110
11, 156672, Note_off_c, 9, 44, 64
11, 156688, Note_off_c, 9, 36, 64
11, 156800, Note_off_c, 9, 44, 64
11, 156832, Note_off_c, 9, 36, 64
11, 156864, Note_on_c, 9, 44, 110
11, 156864, Note_on_c, 9, 36, 110
11, 156960, Note_off_c, 9, 44, 64
11, 157248, Note_off_c, 9, 44, 64
11, 157440, Note_on_c, 9, 36, 110
11, 157440, Note_on_c, 9, 44, 110
11, 157440, Note_on_c, 9, 44, 110
11, 157448, Note_on_c, 9, 44, 96
11, 157728, Note_on_c, 9, 44, 110
11, 157744, Note_off_c, 9, 44, 64
11, 157824, Note_on_c, 9, 36, 110
11, 158016, Note_on_c, 9, 38, 110
11, 158080, Note_off_c, 9, 44, 64
11, 158208, Note_on_c, 9, 44, 96
11, 158208, Note_off_c, 9, 44, 64
11, 158272, Note_off_c, 9, 44, 64
11, 158304, Note_off_c, 9, 44, 64
11, 158304, Note_off_c, 9, 44, 64
11, 158400, Note_off_c, 9, 44, 64
11, 158400, Note_off_c, 9, 38, 64
11, 158592, Note_off_c, 9, 36, 64
11, 158592, Note_on_c, 9, 44, 96
11, 158784, Note_off_c, 9, 36, 64
11, 158912, Note_on_c, 9, 44, 110
11, 159168, Note_on_c, 8, 75, 86
11, 159264, Note_on_c, 9, 44, 88
11, 159552, Note_on_c, 9, 44, 96
11, 159744, Note_on_c, 9, 44, 96
11, 159744, Note_on_c, 9, 44, 96
11, 159744, Note_on_c, 9, 38, 110
11, 159744, Note_on_c, 9, 44, 64
11, 159744, Note_on_c, 9, 38, 110
11, 159744, Note_on_c, 9, 44, 64
11, 159936, Note_on_c, 9, 46, 110
11, 160128, Note_on_c, 9, 44, 96
11, 160128, Note_on_c, 9, 44, 78
11, 160320, Note_on_c, 9, 44, 64
11, 160320, Note_on_c, 9, 44, 64
11, 160384, Note_on_c, 9, 44, 64
11, 160608, Note_off_c, 9, 44, 64
11, 160704, Note_off_c, 9, 38, 64
11, 160704, Note_on_c, 9, 44, 64
11, 160800, Note_off_c, 9, 38, 64
11, 160800, Note_off_c, 9, 44, 64
11, 160896, Note_on_c, 9, 44, 76
11, 160896, Note_on_c, 9, 44, 64
11, 160928, Note_off_c, 9, 44, 64
11, 160960, Note_on_c, 9, 38, 110
11, 160992, Note_on_c, 9, 57, 110
11, 160992, Note_off_c, 9, 44, 64
11, 161088, Note_off_c, 9, 44, 64
11, 161376, Note_on_c, 9, 44, 64
11, 161472, Note_off_c, 9, 44, 64
11, 161472, Note_on_c, 9, 44, 110
11, 161856, Note_off_c, 9, 44, 64
11, 162232, Note_on_c, 9, 38, 110
11, 162240, Note_on_c, 9, 36, 110
11, 162512, Note_on_c, 9, 36, 110
11, 162624, Note_on_c, 9, 36, 110
11, 162816, Note_on_c, 9, 44, 96
11, 163392, Note_off_c, 9, 36, 64
11, 163392, Note_on_c, 9, 38, 110
11, 163408, Note_off_c, 9, 44, 64
11, 163584, Note_off_c, 9, 44, 64
11, 163584, Note_on_c, 9, 38, 110
11, 163792, Note_on_c, 9, 44, 64
11, 164432, Note_on_c, 9, 36, 110
11, 164448, Note_off_c, 9, 44, 64
11, 164704, Note_off_c, 9, 44, 64
11, 165312, Note_on_c, 9, 36, 110
11, 165472, Note_on_c, 9, 36, 110
11, 165504, Note_on_c, 9, 36, 110
11, 165504, Note_on_c, 9, 36, 110
11, 165568, Note_off_c, 9, 44, 64
11, 165696, Note_off_c, 9, 44, 64
11, 165712, Note_off_c, 9, 36, 64
11, 166848, Note_off_c, 9, 44, 64
11, 167040, Note_off_c, 9, 36, 64
11, 167040, Note_off_c, 9, 44, 64
11, 167776, Note_off_c, 9, 44, 64
11, 168576, Note_off_c, 9, 38, 64
11, 168656, Note_on_c, 9, 82, 64
11, 169536, Note_on_c, 9, 36, 110
11, 170080, Note_on_c, 9, 59, 64
11, 170272, Note_off_c, 9, 36, 64
11, 170400, Note_on_c, 9, 46, 110
11, 170496, Note_off_c, 9, 44, 64
11, 170592, Note_off_c, 9, 44, 64
11, 170784, Note_on_c, 9, 36, 110
11, 170880, Note_on_c, 9, 59, 110
11, 171040, Note_off_c, 9, 44, 64
11, 171456, Note_on_c, 9, 46, 110
11, 171648, Note_off_c, 9, 44, 64
11, 171904, Note_off_c, 9, 44, 64
11, 172032, Note_on_c, 9, 46, 110
11, 172032, Note_on_c, 9, 44, 96
11, 172032, Note_on_c, 9, 36, 110
11, 173440, Note_on_c, 9, 36, 110
11, 173760, Note_off_c, 9, 36, 64
11, 174112, Note_on_c, 9, 38, 110
11, 174336, Note_on_c, 9, 38, 110
11, 174336, Note_on_c, 9, 57, 110
11, 174720, Note_on_c, 9, 44, 96
11, 175072, Control_c, 9, 7, 20
11, 175104, Note_off_c, 9, 44, 64
11, 175104, Note_on_c, 9, 59, 110
11, 175680, Note_off_c, 9, 36, 64
11, 175680, Note_off_c, 9, 36, 64
11, 175680, Note_on_c, 9, 36, 110
11, 175680, Note_on_c, 9, 36, 110
11, 175968, Note_on_c, 9, 59, 96
11, 176256, Note_off_c, 9, 36, 64
11, 176448, Note_off_c, 9, 36, 64
11, 176640, Note_off_c, 9, 36, 64
11, 176640, Note_on_c, 9, 59, 110
11, 176640, Note_off_c, 9, 36, 64
11, 176832, Note_on_c, 9, 59, 110
11, 176832, Note_off_c, 9, 36, 64
11, 177184, Note_off_c, 9, 36, 64
11, 177216, Note_on_c, 9, 59, 110
11, 177408, Note_off_c, 9, 38, 64
11, 177792, Note_off_c, 9, 36, 64
11, 178144, Note_off_c, 9, 49, 64
11, 178176, Note_off_c, 9, 59, 64
11, 178176, Note_on_c, 9, 38, 110
11, 178272, Note_off_c, 9, 36, 64
11, 178304, Note_off_c, 9, 59, 64
11, 178640, Note_off_c, 9, 59, 64
11, 178752, Note_off_c, 9, 59, 64
11, 178784, Note_off_c, 9, 38, 64
11, 178912, Note_on_c, 9, 36, 110
11, 179328, Note_off_c, 9, 44, 64
11, 179360, Note_off_c, 9, 36, 64
11, 179424, Note_on_c, 9, 36, 110
11, 179520, Note_off_c, 9, 36, 64
11, 179712, Note_off_c, 9, 59, 64
11, 180096, Note_on_c, 9, 36, 110
11, 180672, Note_off_c, 9, 36, 64
11, 180672, Note_on_c, 9, 59, 110
11, 180864, Note_on_c, 9, 59, 110
11, 180864, Note_off_c, 9, 59, 64
11, 180896, Note_off_c, 9, 36, 64
11, 180928, Note_on_c, 9, 59, 110
11, 181248, Note_on_c, 9, 36, 110
11, 181280, Note_on_c, 9, 59, 96
11, 183552, Note_off_c, 9, 59, 64
11, 183952, Note_off_c, 9, 59, 64
11, 183968, Note_on_c, 9, 59, 96
11, 184416, Note_on_c, 9, 36, 110
11, 185088, Note_off_c, 9, 57, 64
11, 185472, Note_off_c, 9, 59, 64
11, 185664, Note_on_c, 9, 59, 96
11, 185856, Note_on_c, 9, 36, 110
11, 186048, Note_off_c, 9, 59, 64
11, 186288, Note_on_c, 9, 59, 110
11, 186448, Note_off_c, 9, 59, 64
11, 186624, Note_on_c, 9, 59, 110
11, 186664, Note_off_c, 9, 36, 64
11, 188128, Note_on_c, 9, 59, 110
11, 188192, Note_on_c, 9, 59, 110
11, 188320, Note_on_c, 9, 59, 96
11, 188352, Note_on_c, 9, 36, 64
11, 188736, Note_off_c, 9, 36, 64
11, 189056, Note_off_c, 9, 59, 64
11, 189120, Note_on_c, 9, 59, 86
11, 189632, Note_off_c, 9, 59, 64
11, 189824, Note_off_c, 9, 36, 64
11, 190112, Note_on_c, 9, 36, 110
11, 190176, Note_off_c, 9, 36, 64
11, 190464, Note_on_c, 9, 36, 110
11, 190464, Note_on_c, 9, 36, 110
11, 190464, Note_off_c, 9, 36, 64
11, 190464, Note_on_c, 9, 36, 110
11, 190464, Note_on_c, 9, 46, 98
11, 190656, Note_on_c, 9, 38, 110
11, 190688, Note_on_c, 9, 44, 96
11, 190752, Note_off_c, 9, 36, 64
11, 190816, Note_off_c, 9, 36, 64
11, 190848, Note_off_c, 9, 44, 64
11, 190944, Note_off_c, 9, 44, 64
11, 191264, Note_on_c, 9, 38, 75
11, 191424, Note_on_c, 9, 46, 110
11, 191680, Note_off_c, 9, 46, 64
11, 191680, Note_off_c, 9, 36, 64
11, 192000, Note_on_c, 9, 44, 96
11, 192576, Note_off_c, 9, 38, 64
11, 192576, Note_on_c, 9, 44, 110
11, 192576, Note_on_c, 9, 36, 110
11, 192576, Note_on_c, 9, 36, 110
11, 192672, Note_on_c, 9, 36, 110
11, 192672, Note_off_c, 9, 46, 64
11, 192768, Note_on_c, 9, 44, 110
11, 192768, Note_off_c, 9, 36, 64
11, 192928, Note_off_c, 00, 64
11, 192960, Note_on_c, 9, 44, 96
11, 192992, Note_on_c, 9, 44, 110
11, 192992, Note_off_c, 9, 46, 64
11, 193152, Note_off_c, 9, 44, 64
11, 193344, Note_off_c, 9, 36, 64
11, 193344, Note_off_c, 9, 44, 64
11, 193408, Note_on_c, 9, 38, 110
11, 193536, Note_on_c, 9, 44, 110
11, 193536, Note_on_c, 9, 44, 64
11, 193632, Note_off_c, 9, 46, 64
11, 193656, Note_on_c, 9, 36, 110
11, 194112, Note_off_c, 9, 46, 64
11, 194176, Note_off_c, 9, 44, 64
11, 194304, Note_on_c, 9, 44, 110
11, 194496, Note_on_c, 9, 44, 110
11, 194496, Note_on_c, 9, 44, 64
11, 194592, Note_on_c, 9, 36, 110
11, 194688, Note_on_c, 9, 36, 110
11, 194880, Note_on_c, 9, 44, 110
11, 195264, Control_c, 9, 7, 100
11, 195264, Note_on_c, 9, 38, 110
11, 195648, Note_off_c, 9, 38, 64
11, 195872, Note_off_c, 9, 44, 64
11, 196128, Note_off_c, 9, 44, 64
11, 196256, Note_off_c, 9, 44, 64
11, 196256, Note_on_c, 9, 36, 110
11, 196432, Note_on_c, 9, 38, 110
11, 196576, Note_off_c, 9, 46, 64
11, 196608, Note_on_c, 9, 44, 110
11, 196608, Note_on_c, 9, 36, 110
11, 196608, Note_off_c, 9, 38, 64
11, 196608, Note_on_c, 9, 44, 110
11, 196608, Note_off_c, 9, 44, 64
11, 196608, Note_on_c, 9, 46, 110
11, 196624, Note_on_c, 9, 44, 1, 80
11, 196736, Note_on_c, 9, 44, 110
11, 196896, Note_on_c, 9, 36, 110
11, 196928, Note_off_c, 9, 38, 64
11, 196960, Note_on_c, 9, 36, 110
11, 198336, Note_off_c, 9, 44, 64
11, 201216, Note_on_c, 9, 53, 105
11, 201808, Note_on_c, 9, 36, 110
11, 201888, Note_on_c, 9, 53, 110
11, 201888, Note_on_c, 9, 53, 102
11, 201984, Note_off_c, 9, 44, 64
11, 201984, Note_off_c, 9, 53, 64
11, 201984, Note_off_c, 9, 36, 64
11, 203216, Note_on_c, 9, 45, 110
11, 205376, Note_on_c, 9, 44, 78
11, 206176, Note_on_c, 9, 47, 110
11, 206208, Note_on_c, 9, 36, 110
11, 206272, Note_off_c, 9, 45, 110
11, 206576, Note_off_c, 9, 44, 64
11, 206784, Note_off_c, 9, 45, 64
11, 207360, Note_on_c, 9, 45, 115
11, 207456, Note_on_c, 9, 44, 64
11, 207744, Note_on_c, 9, 36, 110
11, 207752, Note_off_c, 9, 45, 64
11, 207968, Note_off_c, 9, 46, 64
11, 208928, Note_on_c, 9, 41, 64
11, 209472, Note_off_c, 9, 36, 64
11, 209936, Note_off_c, 9, 44, 64
11, 210112, Note_on_c, 9, 36, 110
11, 210240, Note_on_c, 9, 44, 64
11, 210240, Note_on_c, 9, 36, 110
11, 210240, Note_off_c, 9, 45, 64
11, 210240, Note_on_c, 9, 36, 110
11, 210240, Note_off_c, 9, 44, 64
11, 210368, Note_off_c, 9, 44, 64
11, 211200, Note_on_c, 9, 46, 96
11, 211264, Note_on_c, 9, 46, 98
11, 211360, Note_on_c, 9, 36, 110
11, 211488, Note_off_c, 9, 36, 64
11, 211792, Note_off_c, 9, 46, 64
11, 212064, Note_on_c, 9, 36, 110
11, 212096, Note_off_c, 9, 36, 64
11, 212896, Note_on_c, 9, 46, 97
11, 213104, Note_on_c, 1, 76, 110
11, 213408, Note_on_c, 9, 46, 98
11, 213408, Note_on_c, 9, 46, 97
11, 213632, Note_on_c, 9, 36, 64
11, 214080, Note_off_c, 9, 44, 64
11, 214272, Note_off_c, 9, 44, 64
11, 214272, Note_off_c, 9, 44, 64
11, 214272, Note_off_c, 9, 46, 64
11, 214656, Note_off_c, 9, 44, 64
11, 214656, Note_off_c, 9, 44, 64
11, 214688, Note_on_c, 9, 44, 64
11, 215424, Note_on_c, 9, 44, 96
11, 215680, Note_on_c, 9, 38, 110
11, 216000, Note_on_c, 9, 44, 96
11, 216160, Note_on_c, 9, 36, 110
11, 216384, Note_on_c, 9, 46, 97
11, 216384, Note_on_c, 9, 46, 98
11, 216384, Note_off_c, 9, 44, 64
11, 216576, Note_on_c, 9, 46, 97
11, 216960, Note_off_c, 9, 36, 64
11, 217248, Control_c, 9, 7, 100
11, 217408, Note_on_c, 9, 44, 64
11, 217632, Note_off_c, 9, 44, 64
11, 217632, Note_on_c, 9, 44, 78
11, 217632, Note_on_c, 9, 36, 110
11, 217888, Note_off_c, 9, 44, 64
11, 218112, Program_c, 9, 46, 75
11, 218112, Note_on_c, 9, 44, 110
11, 218112, Note_on_c, 9, 44, 78
11, 218208, Note_on_c, 9, 46, 97
11, 218240, Note_on_c, 9, 38, 110
11, 218304, Note_off_c, 9, 46, 64
11, 218336, Note_on_c, 9, 46, 97
11, 218528, Note_off_c, 9, 44, 64
11, 218784, Note_on_c, 9, 44, 96
11, 218880, Note_on_c, 9, 38, 110
11, 218880, Note_on_c, 9, 44, 96
11, 219264, Note_off_c, 9, 44, 64
11, 219264, Note_on_c, 9, 36, 110
11, 219264, Note_on_c, 9, 46, 97
11, 219264, Note_off_c, 9, 44, 64
11, 219264, Note_off_c, 9, 44, 64
11, 219264, Note_off_c, 9, 44, 64
11, 219360, Note_on_c, 9, 66, 110
11, 219456, Note_off_c, 9, 44, 64
11, 219456, Note_off_c, 9, 44, 64
11, 219456, Note_on_c, 9, 44, 64
11, 219456, Note_off_c, 9, 44, 64
11, 219456, Note_off_c, 9, 44, 64
11, 219552, Note_on_c, 9, 44, 64
11, 219648, Note_on_c, 9, 36, 110
11, 219648, Note_off_c, 9, 44, 64
11, 219872, Note_off_c, 9, 44, 64
11, 220000, Note_off_c, 9, 44, 64
11, 220224, Note_on_c, 9, 38, 110
11, 220224, Note_off_c, 9, 44, 64
11, 220224, Note_off_c, 9, 44, 64
11, 220416, Note_on_c, 9, 44, 96
11, 220608, Note_on_c, 9, 44, 64
11, 220704, Note_on_c, 9, 36, 110
11, 220976, Note_off_c, 9, 46, 64
11, 221056, Note_on_c, 9, 44, 96
11, 221056, Note_off_c, 9, 44, 64
11, 221184, Note_on_c, 9, 46, 110
11, 221248, Note_on_c, 9, 46, 110
11, 221472, Note_off_c, 9, 44, 64
11, 221568, Note_on_c, 9, 44, 96
11, 221760, Note_on_c, 9, 36, 110
11, 221792, Note_on_c, 9, 36, 110
11, 222224, Note_on_c, 9, 36, 110
11, 222528, Note_off_c, 9, 44, 64
11, 223104, Control_c, 9, 7, 74
11, 223168, Note_off_c, 9, 44, 64
11, 223232, Note_on_c, 9, 44, 110
11, 223456, Control_c, 9, 7, 58
11, 223472, Note_on_c, 8, 71, 86
11, 223484, Control_c, 9, 7, 73
11, 223488, Note_off_c, 9, 36, 64
11, 223584, Note_on_c, 9, 44, 96
11, 223680, Note_on_c, 9, 44, 110
11, 223776, Control_c, 9, 7, 86
11, 223808, Note_on_c, 9, 36, 110
11, 224032, Note_off_c, 9, 44, 64
11, 224032, Control_c, 9, 7, 55
11, 224032, Note_off_c, 9, 59, 110
11, 224256, Note_on_c, 9, 44, 64
11, 224256, Note_off_c, 9, 44, 64
11, 224256, Control_c, 9, 7, 86
11, 224256, Note_on_c, 9, 36, 110
11, 224256, Control_c, 9, 7, 56
11, 224256, Note_on_c, 9, 44, 64
11, 224320, Note_off_c, 9, 44, 64
11, 224352, Note_off_c, 9, 44, 64
11, 224448, Note_on_c, 9, 36, 110
11, 224448, Note_off_c, 9, 36, 64
11, 224488, Note_on_c, 9, 38, 110
11, 224544, Note_on_c, 9, 61, 64
11, 224736, Control_c, 9, 7, 47
11, 224736, Control_c, 9, 7, 73
11, 224736, Note_on_c, 9, 46, 94
11, 224736, Note_off_c, 9, 44, 64
11, 224832, Note_on_c, 9, 44, 110
11, 224832, Note_off_c, 9, 44, 64
11, 224832, Note_on_c, 9, 44, 64
11, 224832, Note_on_c, 9, 44, 96
11, 224928, Control_c, 9, 7, 83
11, 224960, Control_c, 9, 7, 31
11, 225024, Note_off_c, 9, 44, 64
11, 225024, Note_on_c, 9, 46, 110
11, 225216, Control_c, 9, 7, 43
11, 225408, Control_c, 9, 7, 31
11, 225408, Note_on_c, 9, 46, 110
11, 225408, Note_off_c, 9, 46, 64
11, 225408, Control_c, 9, 7, 87
11, 225600, Note_on_c, 9, 44, 110
11, 225600, Control_c, 9, 7, 121
11, 225600, Control_c, 9, 7, 6
11, 225600, Control_c, 9, 7, 9
11, 225600, Note_off_c, 9, 44, 64
11, 225632, Control_c, 9, 7, 90
11, 225696, Note_off_c, 9, 44, 64
11, 225792, Control_c, 9, 7, 95
11, 225808, Note_on_c, 9, 38, 110
11, 225920, Note_on_c, 9, 44, 110
11, 225920, Note_on_c, 9, 44, 64
11, 225984, Control_c, 9, 7, 100
11, 226080, Control_c, 9, 7, 82
11, 226176, Note_on_c, 9, 44, 64
11, 226176, Note_on_c, 9, 36, 110
11, 226176, Note_on_c, 9, 44, 110
11, 226176, Note_on_c, 9, 39, 46
11, 226176, Note_off_c, 9, 44, 64
11, 226176, Note_off_c, 9, 44, 64
11, 226176, Note_on_c, 9, 44, 64
11, 226176, Note_off_c, 9, 36, 64
11, 226176, Control_c, 9, 7, 80
11, 226240, Note_off_c, 9, 44, 64
11, 226272, Note_on_c, 9, 36, 110
11, 226272, Note_off_c, 9, 44, 64
11, 226336, Note_on_c, 9, 44, 96
11, 226352, Note_off_c, 9, 44, 64
11, 226464, Control_c, 9, 7, 77
11, 226464, Note_off_c, 9, 36, 64
11, 226464, Note_off_c, 9, 44, 64
11, 226560, Control_c, 9, 7, 99
11, 226560, Note_off_c, 9, 44, 64
11, 226656, Note_off_c, 9, 44, 64
11, 226656, Note_off_c, 9, 44, 64
11, 226752, Note_on_c, 9, 44, 64
11, 226752, Control_c, 9, 7, 100
11, 226752, Note_on_c, 9, 38, 110
11, 226752, Note_on_c, 9, 44, 96
11, 226752, Note_on_c, 9, 44, 96
11, 226784, Note_on_c, 9, 44, 96
11, 226848, Note_off_c, 9, 44, 64
11, 226944, Control_c, 9, 7, 100
11, 227008, Note_off_c, 9, 44, 64
11, 227104, Control_c, 9, 7, 81
11, 227136, Control_c, 9, 7, 100
11, 227136, Note_off_c, 9, 44, 64
11, 227136, Note_on_c, 9, 44, 64
11, 227136, Note_off_c, 1, 44, 10
11, 227136, Control_c, 9, 7, 48
11, 227200, Note_on_c, 9, 44, 64
11, 227216, Control_c, 9, 7, 10
11, 227328, Note_on_c, 9, 44, 96
11, 227328, Note_off_c, 9, 44, 64
11, 227424, Note_on_c, 9, 44, 96
11, 227504, Note_on_c, 9, 44, 64
11, 227520, Note_off_c, 9, 44, 64
11, 227520, Note_on_c, 9, 44, 96
11, 227680, Note_on_c, 9, 44, 110
11, 227704, Control_c, 9, 7, 90
11, 227704, Control_c, 9, 7, 38
11, 227712, Note_off_c, 9, 44, 64
11, 227712, Note_on_c, 9, 64
11, 227712, Note_on_c, 9, 44, 64
11, 227728, Note_on_c, 9, 36, 110
11, 227744, Control_c, 9, 7, 1
11, 227808, Note_off_c, 9, 38, 64
11, 227904, Note_on_c, 9, 44, 96
11, 227904, Note_off_c, 9, 44, 64
11, 227904, Note_on_c, 9, 38, 110
11, 227904, Note_off_c, 9, 44, 64
11, 228000, Note_off_c, 9, 44, 64
11, 228032, Note_on_c, 9, 44, 96
11, 228096, Note_on_c, 9, 38, 110
11, 228128, Note_on_c, 9, 44, 64
11, 228192, Note_on_c, 9, 38, 110
11, 228192, Note_on_c, 9, 44, 64
11, 228288, Note_on_c, 9, 44, 64
11, 228736, Note_off_c, 9, 44, 64
11, 228768, Note_on_c, 9, 36, 110
11, 229024, Note_on_c, 9, 44, 110
11, 229024, Note_off_c, 9, 44, 64
11, 229024, Control_c, 9, 7, 90
11, 229056, Note_off_c, 9, 44, 64
11, 229344, Note_off_c, 9, 44, 64
11, 229408, Control_c, 9, 7, 91
11, 229456, Control_c, 9, 7, 100
11, 229472, Control_c, 9, 7, 75
11, 229472, Note_on_c, 9, 44, 110
11, 229472, Note_on_c, 9, 38, 110
11, 229472, Note_on_c, 9, 44, 96
11, 229544, Control_c, 9, 7, 100
11, 229632, Note_off_c, 9, 44, 64
11, 229632, Note_off_c, 9, 44, 64
11, 229728, Note_on_c, 9, 44, 96
11, 229728, Note_off_c, 9, 44, 64
11, 229728, Note_off_c, 9, 44, 64
11, 229920, Note_off_c, 9, 38, 64
11, 230016, Note_on_c, 9, 36, 110
11, 230016, Control_c, 9, 7, 46
11, 230016, Note_off_c, 9, 44, 64
11, 230016, Note_on_c, 9, 44, 64
11, 230016, Note_off_c, 9, 44, 64
11, 230080, Note_off_c, 9, 44, 64
11, 230112, Note_off_c, 9, 44, 64
11, 230176, Note_off_c, 9, 44, 64
11, 230208, Note_on_c, 9, 44, 96
11, 230208, Note_off_c, 9, 38, 64
11, 230272, Note_on_c, 9, 44, 96
11, 230304, Control_c, 9, 7, 34
11, 230304, Note_on_c, 9, 44, 96
11, 230400, Note_on_c, 9, 44, 96
11, 230400, Note_off_c, 9, 44, 64
11, 230400, Note_off_c, 9, 44, 64
11, 230400, Note_on_c, 9, 44, 96
11, 230400, Control_c, 9, 7, 56
11, 230400, Note_on_c, 9, 36, 110
11, 230496, Note_off_c, 9, 44, 64
11, 230496, Note_on_c, 9, 46, 110
11, 230496, Note_on_c, 9, 44, 64
11, 230592, Note_off_c, 9, 44, 64
11, 230688, Note_on_c, 9, 44, 96
11, 230688, Control_c, 9, 7, 19
11, 230752, Control_c, 9, 7, 51
11, 230816, Note_on_c, 9, 38, 110
11, 230880, Note_off_c, 9, 44, 64
11, 230880, Note_on_c, 9, 5, 51
11, 230912, Control_c, 9, 7, 17
11, 230976, Note_off_c, 9, 44, 64
11, 231008, Control_c, 9, 7, 55
11, 231040, Note_off_c, 9, 44, 64
11, 231072, Note_on_c, 9, 44, 110
11, 231072, Note_on_c, 9, 46, 110
11, 231168, Note_off_c, 9, 36, 64
11, 231168, Note_on_c, 9, 44, 96
11, 231264, Note_on_c, 9, 44, 96
11, 231264, Note_on_c, 9, 38, 110
11, 231264, Note_off_c, 9, 44, 64
11, 231352, Note_off_c, 9, 44, 64
11, 231360, Note_off_c, 9, 36, 64
11, 231360, Note_off_c, 9, 44, 64
11, 231360, Control_c, 9, 7, 51
11, 231360, Note_on_c, 9, 44, 96
11, 231456, Note_off_c, 9, 44, 64
11, 231456, Note_off_c, 9, 44, 64
11, 231456, Note_off_c, 9, 44, 64
11, 231552, Note_on_c, 9, 44, 64
11, 231552, Note_on_c, 9, 44, 110
11, 231632, Note_off_c, 9, 44, 64
11, 231648, Note_on_c, 9, 38, 110
11, 231672, Note_on_c, 9, 44, 96
11, 231744, Note_on_c, 9, 28, 110
11, 231744, Note_off_c, 9, 38, 64
11, 231744, Note_off_c, 9, 44, 64
11, 231744, Note_off_c, 9, 44, 64
11, 231744, Note_off_c, 9, 44, 64
11, 231808, Note_on_c, 9, 44, 96
11, 231840, Note_on_c, 9, 44, 64
11, 231872, Note_off_c, 9, 44, 64
11, 231936, Note_off_c, 9, 44, 64
11, 231936, Note_on_c, 9, 44, 96
11, 231968, Note_off_c, 9, 44, 64
11, 231968, Note_on_c, 9, 100
11, 231968, Note_off_c, 9, 44, 64
11, 231968, Note_off_c, 9, 44, 64
11, 231968, Note_on_c, 9, 44, 110
11, 231968, Note_on_c, 9, 44, 64
11, 232016, Note_off_c, 9, 36, 64
11, 232016, Note_on_c, 9, 44, 96
11, 232032, Program_c, 9, 0
11, 232032, Note_on_c, 9, 44, 110
11, 232032, Note_off_c, 9, 46, 64
11, 232032, Control_c, 9, 7, 24
11, 232032, Note_on_c, 8, 76, 86
11, 232032, Note_off_c, 9, 44, 64
11, 232032, Note_off_c, 9, 44, 64
11, 232096, Note_on_c, 9, 44, 64
11, 232096, Note_on_c, 9, 44, 110
11, 232128, Note_on_c, 9, 44, 110
11, 232128, Note_on_c, 9, 44, 64
11, 232128, Control_c, 9, 7, 52
11, 232128, Note_off_c, 9, 44, 64
11, 232128, Note_on_c, 9, 36, 110
11, 232128, Note_on_c, 9, 38, 110
11, 232128, Note_on_c, 9, 44, 96
11, 232128, Note_on_c, 9, 36, 110
11, 232128, Note_on_c, 9, 44, 96
11, 232128, Note_on_c, 9, 36, 110
11, 232128, Note_off_c, 9, 44, 64
11, 232128, Note_on_c, 3, 40, 11
11, 232192, Note_off_c, 9, 44, 64
11, 232224, Note_on_c, 9, 44, 110
11, 232224, Control_c, 9, 7, 46
11, 232224, Note_on_c, 9, 36, 110
11, 232320, Note_off_c, 9, 36, 64
11, 232320, Control_c, 9, 7, 4
11, 232320, Note_on_c, 9, 44, 96
11, 232320, Note_on_c, 9, 44, 110
11, 232320, Note_on_c, 9, 44, 96
11, 232320, Note_on_c, 9, 44, 110
11, 232320, Note_off_c, 9, 44, 64
11, 232320, Note_on_c, 9, 44, 96
11, 232416, Note_off_c, 9, 44, 64
11, 232480, Note_on_c, 9, 44, 110
11, 232624, Note_on_c, 9, 58, 64
11, 232704, Note_off_c, 9, 44, 64
11, 232704, Note_off_c, 9, 44, 64
11, 232736, Note_off_c, 9, 38, 64
11, 232736, Control_c, 9, 7, 58
11, 232736, Note_on_c, 9, 44, 96
11, 232736, Note_off_c, 9, 36, 64
11, 232800, Note_off_c, 9, 44, 64
11, 232816, Control_c, 9, 7, 42
11, 232832, Note_on_c, 9, 44, 110
11, 232896, Note_on_c, 9, 44, 98
11, 232896, Note_off_c, 9, 38, 64
11, 232896, Note_off_c, 9, 44, 64
11, 232896, Note_on_c, 9, 44, 110
11, 232896, Note_off_c, 9, 44, 64
11, 232896, Note_off_c, 9, 44, 64
11, 232896, Note_on_c, 9, 36, 101
11, 232896, Control_c, 9, 7, 20
11, 232896, Note_off_c, 9, 44, 64
11, 232896, Note_on_c, 9, 44, 64
11, 232896, Note_on_c, 9, 44, 64
11, 232896, Note_on_c, 9, 44, 110
11, 232928, Note_on_c, 9, 44, 96
11, 232928, Note_off_c, 9, 44, 64
11, 232928, Control_c, 9, 7, 46
11, 232992, Note_on_c, 9, 64, 64
11, 233072, Control_c, 9, 7, 46
11, 233088, Control_c, 9, 7, 43
11, 233088, Note_on_c, 9, 44, 96
11, 233088, Note_off_c, 9, 44, 64
11, 233088, Note_on_c, 9, 44, 64
11, 233088, Note_on_c, 9, 44, 64
11, 233088, Note_on_c, 9, 44, 64
11, 233088, Note_on_c, 9, 44, 64
11, 233088, Control_c, 9, 7, 57
11, 233184, Note_off_c, 9, 44, 64
11, 233184, Note_off_c, 9, 44, 64
11, 233280, Note_on_c, 9, 44, 110
11, 233280, Control_c, 9, 7, 48
11, 233376, Control_c, 9, 7, 47
11, 233472, Control_c, 9, 7, 42
11, 233472, Note_on_c, 9, 44, 110
11, 233472, Note_on_c, 9, 44, 110
11, 233664, Note_off_c, 9, 44, 64
11, 233664, Note_off_c, 9, 44, 64
11, 233760, Note_off_c, 9, 44, 96
11, 233760, Note_on_c, 9, 44, 110
11, 233856, Note_off_c, 9, 44, 64
11, 233872, Note_on_c, 9, 38, 110
11, 233888, Note_off_c, 9, 36, 64
11, 233984, Control_c, 9, 7, 42
11, 234048, Note_off_c, 9, 44, 64
11, 234048, Note_off_c, 9, 44, 64
11, 234048, Note_on_c, 9, 44, 110
11, 234048, Note_on_c, 9, 44, 64
11, 234048, Note_on_c, 9, 44, 64
11, 234080, Note_on_c, 9, 44, 96
11, 234112, Note_on_c, 9, 44, 64
11, 234112, Note_on_c, 9, 44, 96
11, 234112, Note_on_c, 9, 44, 110
11, 234128, Note_off_c, 9, 44, 64
11, 234144, Note_off_c, 9, 44, 64
11, 234144, Note_on_c, 9, 44, 64
11, 234224, Note_on_c, 9, 44, 110
11, 234228, Note_off_c, 9, 44, 64
11, 234240, Note_on_c, 9, 38, 110
11, 234240, Note_on_c, 9, 36, 110
11, 234240, Note_off_c, 9, 44, 64
11, 234240, Note_on_c, 9, 38, 110
11, 234240, Note_off_c, 9, 38, 64
11, 234240, Note_on_c, 9, 44, 96
11, 234240, Note_off_c, 9, 44, 64
11, 234336, Control_c, 9, 7, 23
11, 234336, Note_on_c, 3, 39, 110
11, 234336, Note_on_c, 9, 44, 110
11, 234336, Control_c, 9, 7, 52
11, 234336, Note_on_c, 9, 44, 110
11, 234432, Control_c, 9, 7, 301
11, 234432, Note_on_c, 9, 44, 14
11, 234432, Note_on_c, 9, 44, 64
11, 234432, Note_off_c, 9, 44, 64
11, 234432, Control_c, 9, 7, 46
11, 234496, Note_on_c, 9, 44, 64
11, 234528, Note_on_c, 9, 36, 110
11, 234528, Note_off_c, 9, 38, 64
11, 234544, Note_off_c, 9, 44, 64
11, 234624, Note_on_c, 9, 44, 64
11, 234624, Note_on_c, 9, 44, 110
11, 234624, Note_on_c, 9, 36, 110
11, 234624, Note_off_c, 9, 44, 64
11, 234624, Note_on_c, 9, 44, 64
11, 234624, Control_c, 9, 7, 48
11, 234640, Control_c, 9, 7, 44
11, 234720, Control_c, 9, 7, 46
11, 234720, Note_on_c, 1, 61, 64
11, 234816, Note_on_c, 9, 44, 64
11, 234816, Note_on_c, 9, 44, 64
11, 234848, Note_on_c, 9, 36, 110
11, 234848, Note_off_c, 9, 44, 64
11, 234848, Control_c, 9, 7, 47
11, 234912, Note_off_c, 9, 44, 64
11, 234912, Control_c, 9, 7, 48
11, 234912, Note_off_c, 9, 44, 64
11, 234936, Control_c, 1, 7, 110
11, 235008, Note_on_c, 9, 44, 110
11, 235008, Note_off_c, 9, 44, 64
11, 235072, Note_off_c, 9, 44, 64
11, 235200, Note_on_c, 9, 44, 96
11, 235200, Note_off_c, 9, 36, 64
11, 235200, Note_off_c, 9, 44, 64
11, 235296, Note_on_c, 9, 44, 64
11, 235360, Note_off_c, 9, 44, 64
11, 235392, Control_c, 9, 7, 46
11, 235472, Control_c, 9, 7, 29
11, 235680, Control_c, 9, 7, 57
11, 235680, Note_on_c, 9, 44, 64
11, 235712, Note_on_c, 9, 44, 110
11, 235904, Note_on_c, 9, 38, 110
11, 235904, Note_on_c, 9, 38, 110
11, 235904, Note_on_c, 9, 44, 64
11, 235968, Control_c, 9, 7, 40
11, 236064, Control_c, 9, 7, 42
11, 236160, Note_on_c, 9, 44, 64
11, 236160, Note_on_c, 9, 38, 110
11, 236160, Control_c, 9, 7, 44
11, 236160, Note_on_c, 9, 44, 110
11, 236160, Note_off_c, 9, 44, 64
11, 236160, Note_on_c, 9, 44, 96
11, 236160, Control_c, 9, 7, 12
11, 236256, Note_off_c, 9, 46, 64
11, 236352, Note_off_c, 9, 44, 64
11, 236352, Note_off_c, 9, 44, 64
11, 236352, Note_off_c, 9, 44, 64
11, 236352, Note_off_c, 9, 44, 64
11, 236448, Control_c, 9, 7, 43
11, 236448, Note_off_c, 9, 44, 64
11, 236448, Note_off_c, 9, 44, 64
11, 236448, Control_c, 9, 7, 48
11, 236448, Note_off_c, 9, 44, 64
11, 236448, Note_off_c, 9, 44, 64
11, 236608, Note_off_c, 9, 36, 64
11, 236640, Control_c, 9, 7, 33
11, 236736, Note_off_c, 9, 38, 64
11, 236832, Control_c, 9, 7, 46
11, 236832, Note_on_c, 9, 44, 110
11, 236848, Note_off_c, 9, 44, 64
11, 236864, Control_c, 9, 7, 43
11, 236864, Control_c, 9, 7, 41
11, 236928, Note_off_c, 9, 44, 64
11, 236960, Note_off_c, 9, 44, 64
11, 237024, Note_on_c, 9, 44, 64
11, 237304, Control_c, 9, 7, 39
11, 237408, Note_on_c, 9, 44, 96
11, 237424, Note_on_c, 9, 44, 96
11, 237504, Control_c, 9, 7, 33
11, 237600, Note_on_c, 9, 44, 110
11, 237696, Note_off_c, 9, 44, 64
11, 237696, Note_on_c, 9, 44, 182, {, 9, 44, 64
11, 237696, Note_off_c, 9, 4464, 64
11, 237888, Note_off_c, 9, 44, 64
11, 238048, Note_off_c, 9, 44, 64
11, 238080, Note_on_c, 9, 44, 96
11, 238080, Note_off_c, 9, 44, 64
11, 238176, Note_off_c, 9, 44, 64
11, 238176, Control_c, 9, 7, 4
11, 238272, Note_on_c, 9, 44, 96
11, 238464, Note_on_c, 9, 44, 110
11, 238672, Note_on_c, 9, 44, 96
11, 238752, Note_on_c, 9, 44, 96
11, 238848, Note_on_c, 9, 44, 96
11, 239008, Note_on_c, 9, 44, 64
11, 239040, Note_off_c, 9, 44, 64
11, 239232, Note_on_c, 9, 44, 64
11, 239328, Control_c, 9, 7, 33
11, 239328, Note_on_c, 9, 44, 64
11, 239552, Control_c, 9, 7, 58
11, 240000, Note_off_c, 9, 44, 64
11, 240000, Note_on_c, 9, 44, 110
11, 240000, Note_on_c, 9, 44, 110
11, 240000, Note_on_c, 9, 44, 110
11, 240000, Note_on_c, 9, 44, 64
11, 240096, Note_on_c, 9, 36, 110
11, 240128, Note_on_c, 9, 44, 96
11, 240192, Note_on_c, 9, 44, 64
11, 240288, Note_on_c, 9, 36, 110
11, 240384, Note_on_c, 9, 44, 96
11, 240480, Note_on_c, 9, 44, 64
11, 240576, Control_c, 9, 7, 100
11, 240576, Note_on_c, 9, 36, 110
11, 240672, Note_on_c, 9, 44, 110
11, 240704, Control_c, 3, 7, 47
11, 240768, Note_off_c, 9, 44, 64
11, 240768, Control_c, 9, 7, 33
11, 240768, Note_on_c, 9, 44, 96
11, 240960, Note_on_c, 9, 44, 96
11, 240960, Control_c, 9, 7, 49
11, 240992, Note_on_c, 9, 38, 110
11, 241024, Note_off_c, 9, 36, 64
11, 241024, Note_off_c, 9, 44, 64
11, 241152, Note_on_c, 9, 44, 96
11, 241152, Note_on_c, 9, 44, 64
11, 241216, Note_off_c, 9, 44, 64
11, 241248, Control_c, 9, 7, 96
11, 241248, Note_on_c, 9, 36, 110
11, 241248, Note_off_c, 9, 44, 64
11, 241344, Note_off_c, 9, 44, 64
11, 241344, Note_off_c, 9, 44, 64
11, 241344, Note_on_c, 9, 38, 110
11, 241408, Note_on_c, 9, 44, 64
11, 241536, Control_c, 9, 7, 78
11, 241632, Note_on_c, 9, 44, 96
11, 241664, Control_c, 9, 7, 42
11, 241728, Note_on_c, 9, 44, 96
11, 241728, Note_on_c, 9, 44, 96
11, 241728, Control_c, 9, 7, 81
11, 241760, Note_off_c, 9, 36, 64
11, 241920, Control_c, 9, 7, 81
11, 241920, Note_off_c, 9, 44, 64
11, 241920, Control_c, 9, 7, 98
11, 241920, Note_on_c, 9, 38, 110
11, 241920, Control_c, 9, 59, 64
11, 242016, Control_c, 9, 7, 21
11, 242112, Note_on_c, 9, 36, 110
11, 242112, Control_c, 9, 7, 35
11, 242208, Note_on_c, 9, 36, 110
11, 242208, Note_off_c, 9, 44, 64
11, 242208, Note_off_c, 9, 44, 64
11, 242208, Note_off_c, 9, 44, 64
11, 242208, Note_off_c, 9, 36, 64
11, 242304, Note_on_c, 9, 35, 64
11, 242304, Note_on_c, 9, 44, 110
11, 242304, Note_on_c, 9, 44, 110
11, 242304, Control_c, 9, 7, 10
11, 242368, Note_off_c, 9, 44, 64
11, 242592, Control_c, 9, 7, 15
11, 242592, Note_on_c, 9, 44, 110
11, 242712, Control_c, 9, 7, 52
11, 242912, Note_off_c, 9, 44, 64
11, 244800, Note_on_c, 9, 36, 110
11, 253952, Note_off_c, 9, 44, 64
11, 259232, Note_off_c, 9, 44, 64
11, 262688, Note_on_c, 9, 59, 110
11, 204144, Note_off_c, 9, 44, 64
11, 216384, Note_off_c, 9, 44, 64
11, 100411, Note_on_c, 9, 44, 96
11, 133824, Note_off_c, 9, 36, 64
11, 535624, Note_off_c, 8, 84, 64
11, 635585, Note_off_c, 9, 36, 64
11, 735685, Note_off_c, 10, 66, 64
11, 752675, Note_on_c, 9, 36, 110
11, 232227, Note_off_c, 9, 44, 64
11, 910082, Note_off_c, 9, 44, 64
11, 961987, Note_off_c, 6, 73, 64
11, 128252, Control_c, 3, 7, 9
11, 241824, Note_off_c, 9, 44, 64
11, 132864, Note_on_c, 9, 44, 110
11, 132864, Note_on_c, 9, 44, 96
11, 138240, Note_on_c, 9, 38, 110
11, 139808, Note_off_c, 9, 44, 64
11, 180640, Note_on_c, 9, 36, 710
11, 180864, Note_off_c, 9, 59, 64
11, 180928, Note_on_c, 9, 59, 110
11, 186264, Note_on_c, 9, 59, 110
11, 227360, Note_on_c, 9, 38, 110
11, 229920, Note_on_c, 9, 44, 110
11, 230016, Note_on_c, 9, 44, 110
11, 232416, Control_c, 9, 7, 63
11, 241248, Note_off_c, 9, 44, 64
11, 230086, Note_off_c, 9, 44, 64
11, 32832, Note_off_c, 9, 44, 64
11, 34560, Note_on_c, 9, 44, 64
11, 38144, Note_off_c, 9, 44, 64
11, 43352, Note_on_c, 9, 44, 64
11, 44320, Note_off_c, 9, 44, 64
11, 46080, Note_on_c, 9, 36, 110
11, 226752, Note_on_c, 9, 44, 110
11, 227712, Control_c, 9, 7, 96
11, 229024, Note_on_c, 9, 44, 96
11, 241632, Note_off_c, 9, 44, 64
11, 242592, Control_c, 9, 7, 55
12, 0, Control_c, 6, 7, 5
12, 20544, Note_on_c, 0, 81, 111
12, 28416, Note_off_c, 0, 71, 64
12, 98304, Note_on_c, 10, 68, 82
12, 98304, Note_on_c, 10, 56, 64
12, 99648, Note_off_c, 10, 66, 64
12, 101376, Control_c, 0, 7, 70
12, 103360, Note_on_c, 0, 61, 110
12, 187392, Note_on_c, 10, 56, 64
12, 190064, Note_on_c, 10, 52, 64
12, 190368, Note_on_c, 10, 63, 82
12, 190368, Note_off_c, 10, 364
12, 193536, Note_on_c, 10, 54, 64
12, 193952, Note_on_c, 10, 54, 64
12, 196608, Note_off_c, 10, 54, 64
12, 196608, Note_off_c, 10, 54, 64
12, 196992, Note_on_c, 10, 71, 82
12, 197920, Control_c, 10, 7, 81
12, 198688, Note_on_c, 10, 63, 82
12, 198912, Note_off_c, 10, 81, 64
12, 202752, Note_off_c, 10, 66, 64
12, 202752, Note_off_c, 10, 64, 64
12, 202752, Note_off_c, 10, 76, 64
12, 202752, Note_off_c, 10, 78, 64
12, 202752, Note_on_c, 10, 61, 82
12, 204688, Note_on_c, 10, 54, 64
12, 205752, Note_off_c, 10, 62, 64
12, 205824, Note_off_c, 0, 75, 64
12, 205824, Note_off_c, 10, 69, 64
12, 206752, Note_off_c, 10, 64, 64
12, 208864, Note_off_c, 1, 61, 64
12, 208896, Note_off_c, 10, 78, 64
12, 220032, Note_on_c, 1, 71, 64
12, 239712, Control_c, 0, 7, 7
51, 43696, Note_on_c, 9, 44, 110