0, 0, Header, 1, 12, 384
1, 0, Start_track
1, 0, Tempo, 315780
1, 0, Time_signature, 3, 2, 24, 8
1, 27648, Time_signature, 4, 2, 24, 8
1, 242688, End_track
2, 0, Start_track
2, 0, Title_t, "Final "
2, 0, Control_c, 0, 7, 100
2, 0, Program_c, 0, 48
2, 0, Control_c, 0, 10, 64
2, 0, Control_c, 0, 91, 31
2, 0, Note_on_c, 0, 80, 110
2, 0, Note_on_c, 0, 85, 110
2, 192, Note_off_c, 0, 85, 64
2, 192, Note_off_c, 0, 80, 64
2, 384, Note_on_c, 0, 80, 110
2, 384, Note_on_c, 0, 85, 110
2, 576, Note_off_c, 0, 85, 64
2, 576, Note_off_c, 0, 80, 64
2, 576, Note_on_c, 0, 80, 110
2, 576, Note_on_c, 0, 85, 110
2, 768, Note_off_c, 0, 85, 64
2, 768, Note_off_c, 0, 80, 64
2, 960, Note_on_c, 0, 80, 110
2, 960, Note_on_c, 0, 85, 110
2, 1152, Note_off_c, 0, 85, 64
2, 1152, Note_off_c, 0, 80, 64
2, 1152, Note_on_c, 0, 80, 110
2, 1152, Note_on_c, 0, 85, 110
2, 1344, Note_off_c, 0, 85, 64
2, 1344, Note_off_c, 0, 80, 64
2, 1536, Note_on_c, 0, 80, 110
2, 1536, Note_on_c, 0, 85, 110
2, 1728, Note_off_c, 0, 85, 64
2, 1728, Note_off_c, 0, 80, 64
2, 1920, Note_on_c, 0, 80, 110
2, 1920, Note_on_c, 0, 85, 110
2, 2112, Note_off_c, 0, 85, 64
2, 2112, Note_off_c, 0, 80, 64
2, 2304, Note_on_c, 0, 81, 110
2, 2304, Note_on_c, 0, 85, 110
2, 2496, Note_off_c, 0, 85, 64
2, 2496, Note_off_c, 0, 81, 64
2, 2688, Note_on_c, 0, 81, 110
2, 2688, Note_on_c, 0, 85, 110
2, 2880, Note_off_c, 0, 85, 64
2, 2880, Note_off_c, 0, 81, 64
2, 2880, Note_on_c, 0, 81, 110
2, 2880, Note_on_c, 0, 85, 110
2, 3072, Note_off_c, 0, 85, 64
2, 3072, Note_off_c, 0, 81, 64
2, 3264, Note_on_c, 0, 81, 110
2, 3264, Note_on_c, 0, 85, 110
2, 3456, Note_off_c, 0, 85, 64
2, 3456, Note_off_c, 0, 81, 64
2, 3456, Note_on_c, 0, 81, 110
2, 3456, Note_on_c, 0, 85, 110
2, 3648, Note_off_c, 0, 85, 64
2, 3648, Note_off_c, 0, 81, 64
2, 3840, Note_on_c, 0, 81, 110
2, 3840, Note_on_c, 0, 85, 110
2, 4032, Note_off_c, 0, 85, 64
2, 4032, Note_off_c, 0, 81, 64
2, 4224, Note_on_c, 0, 81, 110
2, 4224, Note_on_c, 0, 85, 110
2, 4416, Note_off_c, 0, 85, 64
2, 4416, Note_off_c, 0, 81, 64
2, 4608, Note_on_c, 0, 81, 110
2, 4608, Note_on_c, 0, 85, 110
2, 4800, Note_off_c, 0, 85, 64
2, 4800, Note_off_c, 0, 81, 64
2, 4992, Note_on_c, 0, 81, 110
2, 4992, Note_on_c, 0, 85, 110
2, 5184, Note_off_c, 0, 85, 64
2, 5184, Note_off_c, 0, 81, 64
2, 5184, Note_on_c, 0, 81, 110
2, 5184, Note_on_c, 0, 85, 110
2, 5376, Note_off_c, 0, 85, 64
2, 5376, Note_off_c, 0, 81, 64
2, 5568, Note_on_c, 0, 81, 110
2, 5568, Note_on_c, 0, 85, 110
2, 5760, Note_off_c, 0, 85, 64
2, 5760, Note_off_c, 0, 81, 64
2, 5760, Note_on_c, 0, 81, 110
2, 5760, Note_on_c, 0, 85, 110
2, 5952, Note_off_c, 0, 85, 64
2, 5952, Note_off_c, 0, 81, 64
2, 6144, Note_on_c, 0, 81, 110
2, 6144, Note_on_c, 0, 85, 110
2, 6336, Note_off_c, 0, 85, 64
2, 6336, Note_off_c, 0, 81, 64
2, 6528, Note_on_c, 0, 81, 110
2, 6528, Note_on_c, 0, 85, 110
2, 6720, Note_off_c, 0, 85, 64
2, 6720, Note_off_c, 0, 81, 64
2, 6912, Note_on_c, 0, 81, 110
2, 6912, Note_on_c, 0, 85, 110
2, 7104, Note_off_c, 0, 85, 64
2, 7104, Note_off_c, 0, 81, 64
2, 7296, Note_on_c, 0, 81, 110
2, 7296, Note_on_c, 0, 85, 110
2, 7488, Note_off_c, 0, 85, 64
2, 7488, Note_off_c, 0, 81, 64
2, 7488, Note_on_c, 0, 81, 110
2, 7488, Note_on_c, 0, 85, 110
2, 7680, Note_off_c, 0, 85, 64
2, 7680, Note_off_c, 0, 81, 64
2, 7872, Note_on_c, 0, 81, 110
2, 7872, Note_on_c, 0, 85, 110
2, 8064, Note_off_c, 0, 85, 64
2, 8064, Note_off_c, 0, 81, 64
2, 8064, Note_on_c, 0, 81, 110
2, 8064, Note_on_c, 0, 85, 110
2, 8256, Note_off_c, 0, 85, 64
2, 8256, Note_off_c, 0, 81, 64
2, 8448, Note_on_c, 0, 73, 101
2, 8448, Note_on_c, 0, 71, 101
2, 8544, Note_off_c, 0, 71, 64
2, 8544, Note_off_c, 0, 73, 64
2, 8544, Note_on_c, 0, 75, 103
2, 8544, Note_on_c, 0, 73, 103
2, 8640, Note_off_c, 0, 73, 64
2, 8640, Note_off_c, 0, 75, 64
2, 8640, Note_on_c, 0, 76, 106
2, 8640, Note_on_c, 0, 74, 106
2, 8736, Note_off_c, 0, 74, 64
2, 8736, Note_off_c, 0, 76, 64
2, 8736, Note_on_c, 0, 77, 109
2, 8736, Note_on_c, 0, 80, 109
2, 8832, Note_off_c, 0, 80, 64
2, 8832, Note_off_c, 0, 77, 64
2, 8832, Note_on_c, 0, 78, 111
2, 8832, Note_on_c, 0, 81, 111
2, 8928, Note_off_c, 0, 81, 64
2, 8928, Note_off_c, 0, 78, 64
2, 8928, Note_on_c, 0, 83, 114
2, 8928, Note_on_c, 0, 80, 114
2, 9024, Note_off_c, 0, 80, 64
2, 9024, Note_off_c, 0, 83, 64
2, 9024, Note_on_c, 0, 80, 117
2, 9024, Note_on_c, 0, 85, 117
2, 9120, Note_off_c, 0, 85, 64
2, 9120, Note_off_c, 0, 80, 64
2, 18432, Control_c, 0, 7, 100
2, 18432, Program_c, 0, 48
2, 18432, Control_c, 0, 7, 26
2, 18432, Note_on_c, 0, 61, 110
2, 18624, Note_off_c, 0, 61, 64
2, 18624, Control_c, 0, 7, 27
2, 18720, Control_c, 0, 7, 28
2, 18816, Note_on_c, 0, 61, 110
2, 18912, Control_c, 0, 7, 30
2, 19008, Note_off_c, 0, 61, 64
2, 19008, Control_c, 0, 7, 31
2, 19008, Note_on_c, 0, 61, 110
2, 19200, Note_off_c, 0, 61, 64
2, 19200, Control_c, 0, 7, 33
2, 19392, Control_c, 0, 7, 34
2, 19392, Note_on_c, 0, 61, 110
2, 19488, Control_c, 0, 7, 35
2, 19584, Note_off_c, 0, 61, 64
2, 19584, Note_on_c, 0, 61, 110
2, 19680, Control_c, 0, 7, 37
2, 19776, Note_off_c, 0, 61, 64
2, 19776, Control_c, 0, 7, 38
2, 19776, Note_on_c, 0, 63, 110
2, 19968, Note_off_c, 0, 63, 64
2, 19968, Control_c, 0, 7, 39
2, 19968, Note_on_c, 0, 64, 110
2, 20064, Control_c, 0, 7, 40
2, 20160, Note_off_c, 0, 64, 64
2, 20160, Note_on_c, 0, 63, 110
2, 20256, Control_c, 0, 7, 42
2, 20352, Note_off_c, 0, 63, 64
2, 20352, Note_on_c, 0, 61, 110
2, 20448, Control_c, 0, 7, 43
2, 20544, Note_off_c, 0, 61, 64
2, 20544, Control_c, 0, 7, 44
2, 20544, Note_on_c, 0, 63, 110
2, 20736, Note_off_c, 0, 63, 64
2, 20736, Control_c, 0, 7, 46
2, 20736, Note_on_c, 0, 61, 64
2, 20736, Note_on_c, 0, 64, 110
2, 20832, Control_c, 0, 7, 47
2, 20928, Note_off_c, 0, 64, 64
2, 20928, Note_off_c, 0, 61, 64
2, 21024, Control_c, 0, 7, 49
2, 21120, Note_on_c, 0, 61, 64
2, 21120, Note_on_c, 0, 64, 110
2, 21312, Note_off_c, 0, 64, 64
2, 21312, Note_off_c, 0, 61, 64
2, 21312, Control_c, 0, 7, 51
2, 21312, Note_on_c, 0, 61, 64
2, 21312, Note_on_c, 0, 64, 110
2, 21504, Note_off_c, 0, 64, 64
2, 21504, Note_off_c, 0, 61, 64
2, 21504, Control_c, 0, 7, 53
2, 21600, Control_c, 0, 7, 54
2, 21696, Note_on_c, 0, 61, 64
2, 21696, Note_on_c, 0, 64, 110
2, 21792, Control_c, 0, 7, 55
2, 21888, Note_off_c, 0, 64, 64
2, 21888, Note_off_c, 0, 61, 64
2, 21888, Control_c, 0, 7, 56
2, 21888, Note_on_c, 0, 61, 64
2, 21888, Note_on_c, 0, 64, 110
2, 22080, Note_off_c, 0, 64, 64
2, 22080, Note_off_c, 0, 61, 64
2, 22080, Control_c, 0, 7, 58
2, 22080, Note_on_c, 0, 63, 64
2, 22080, Note_on_c, 0, 66, 110
2, 22176, Control_c, 0, 7, 59
2, 22272, Note_off_c, 0, 66, 64
2, 22272, Note_off_c, 0, 63, 64
2, 22272, Note_on_c, 0, 64, 64
2, 22272, Note_on_c, 0, 68, 110
2, 22368, Control_c, 0, 7, 60
2, 22464, Note_off_c, 0, 68, 64
2, 22464, Note_off_c, 0, 64, 64
2, 22464, Note_on_c, 0, 63, 64
2, 22464, Note_on_c, 0, 66, 110
2, 22560, Control_c, 0, 7, 62
2, 22656, Note_off_c, 0, 66, 64
2, 22656, Note_off_c, 0, 63, 64
2, 22656, Control_c, 0, 7, 63
2, 22656, Note_on_c, 0, 61, 64
2, 22656, Note_on_c, 0, 64, 110
2, 22848, Note_off_c, 0, 64, 64
2, 22848, Note_off_c, 0, 61, 64
2, 22848, Control_c, 0, 7, 65
2, 22848, Note_on_c, 0, 63, 64
2, 22848, Note_on_c, 0, 66, 110
2, 23040, Note_off_c, 0, 66, 64
2, 23040, Note_off_c, 0, 63, 64
2, 23040, Note_on_c, 0, 64, 64
2, 23040, Note_on_c, 0, 67, 110
2, 23136, Control_c, 0, 7, 67
2, 23232, Note_off_c, 0, 67, 64
2, 23232, Note_off_c, 0, 64, 64
2, 23232, Control_c, 0, 7, 68
2, 23424, Control_c, 0, 7, 70
2, 23424, Note_on_c, 0, 64, 64
2, 23424, Note_on_c, 0, 67, 110
2, 23616, Note_off_c, 0, 67, 64
2, 23616, Note_off_c, 0, 64, 64
2, 23616, Control_c, 0, 7, 71
2, 23616, Note_on_c, 0, 64, 64
2, 23616, Note_on_c, 0, 67, 110
2, 23712, Control_c, 0, 7, 72
2, 23808, Note_off_c, 0, 67, 64
2, 23808, Note_off_c, 0, 64, 64
2, 23904, Control_c, 0, 7, 74
2, 24000, Control_c, 0, 7, 75
2, 24000, Note_on_c, 0, 64, 64
2, 24000, Note_on_c, 0, 67, 110
2, 24192, Note_off_c, 0, 67, 64
2, 24192, Note_off_c, 0, 64, 64
2, 24192, Control_c, 0, 7, 76
2, 24192, Note_on_c, 0, 64, 64
2, 24192, Note_on_c, 0, 67, 110
2, 24288, Control_c, 0, 7, 77
2, 24384, Note_off_c, 0, 67, 64
2, 24384, Note_off_c, 0, 64, 64
2, 24384, Note_on_c, 0, 63, 64
2, 24384, Note_on_c, 0, 66, 64
2, 24384, Note_on_c, 0, 69, 110
2, 24480, Control_c, 0, 7, 79
2, 24576, Note_off_c, 0, 69, 64
2, 24576, Note_off_c, 0, 66, 64
2, 24576, Note_off_c, 0, 63, 64
2, 24576, Note_on_c, 0, 64, 64
2, 24576, Note_on_c, 0, 67, 64
2, 24576, Note_on_c, 0, 71, 110
2, 24672, Control_c, 0, 7, 81
2, 24768, Note_off_c, 0, 71, 64
2, 24768, Note_off_c, 0, 67, 64
2, 24768, Note_off_c, 0, 64, 64
2, 24768, Note_on_c, 0, 63, 64
2, 24768, Note_on_c, 0, 66, 64
2, 24768, Note_on_c, 0, 69, 110
2, 24960, Note_off_c, 0, 69, 64
2, 24960, Note_off_c, 0, 66, 64
2, 24960, Note_off_c, 0, 63, 64
2, 24960, Control_c, 0, 7, 83
2, 24960, Note_on_c, 0, 64, 64
2, 24960, Note_on_c, 0, 67, 110
2, 25056, Control_c, 0, 7, 84
2, 25152, Note_off_c, 0, 67, 64
2, 25152, Note_off_c, 0, 64, 64
2, 25152, Note_on_c, 0, 66, 64
2, 25152, Note_on_c, 0, 69, 110
2, 25248, Control_c, 0, 7, 86
2, 25344, Note_off_c, 0, 69, 64
2, 25344, Note_off_c, 0, 66, 64
2, 25344, Note_on_c, 0, 66, 64
2, 25344, Note_on_c, 0, 62, 64
2, 25344, Note_on_c, 0, 71, 110
2, 25440, Control_c, 0, 7, 87
2, 25536, Note_off_c, 0, 71, 64
2, 25536, Note_off_c, 0, 62, 64
2, 25536, Note_off_c, 0, 66, 64
2, 25536, Control_c, 0, 7, 88
2, 25632, Control_c, 0, 7, 89
2, 25728, Control_c, 0, 7, 89
2, 25728, Note_on_c, 0, 66, 64
2, 25728, Note_on_c, 0, 62, 64
2, 25728, Note_on_c, 0, 71, 110
2, 25824, Control_c, 0, 7, 91
2, 25920, Note_off_c, 0, 71, 64
2, 25920, Note_off_c, 0, 62, 64
2, 25920, Note_off_c, 0, 66, 64
2, 25920, Control_c, 0, 7, 94
2, 25920, Note_on_c, 0, 66, 64
2, 25920, Note_on_c, 0, 62, 64
2, 25920, Note_on_c, 0, 71, 110
2, 26016, Control_c, 0, 7, 97
2, 26112, Note_off_c, 0, 71, 64
2, 26112, Note_off_c, 0, 62, 64
2, 26112, Note_off_c, 0, 66, 64
2, 26112, Control_c, 0, 7, 100
2, 26208, Control_c, 0, 7, 102
2, 26304, Control_c, 0, 7, 105
2, 26304, Note_on_c, 0, 66, 64
2, 26304, Note_on_c, 0, 62, 64
2, 26304, Note_on_c, 0, 71, 110
2, 26400, Control_c, 0, 7, 108
2, 26496, Note_off_c, 0, 71, 64
2, 26496, Note_off_c, 0, 62, 64
2, 26496, Note_off_c, 0, 66, 64
2, 26496, Control_c, 0, 7, 111
2, 26496, Note_on_c, 0, 66, 64
2, 26496, Note_on_c, 0, 62, 64
2, 26496, Note_on_c, 0, 71, 110
2, 26592, Control_c, 0, 7, 113
2, 26688, Note_off_c, 0, 71, 64
2, 26688, Note_off_c, 0, 62, 64
2, 26688, Note_off_c, 0, 66, 64
2, 26688, Control_c, 0, 7, 116
2, 26688, Note_on_c, 0, 61, 64
2, 26688, Note_on_c, 0, 64, 64
2, 26688, Note_on_c, 0, 73, 110
2, 26784, Control_c, 0, 7, 119
2, 26880, Note_off_c, 0, 73, 64
2, 26880, Note_off_c, 0, 64, 64
2, 26880, Note_off_c, 0, 61, 64
2, 26880, Control_c, 0, 7, 122
2, 26880, Note_on_c, 0, 59, 64
2, 26880, Note_on_c, 0, 66, 64
2, 26880, Note_on_c, 0, 74, 110
2, 26976, Control_c, 0, 7, 122
2, 27072, Note_off_c, 0, 74, 64
2, 27072, Note_off_c, 0, 66, 64
2, 27072, Note_off_c, 0, 59, 64
2, 27072, Control_c, 0, 7, 121
2, 27072, Note_on_c, 0, 61, 64
2, 27072, Note_on_c, 0, 64, 64
2, 27072, Note_on_c, 0, 73, 110
2, 27168, Control_c, 0, 7, 120
2, 27264, Note_off_c, 0, 73, 64
2, 27264, Note_off_c, 0, 64, 64
2, 27264, Note_off_c, 0, 61, 64
2, 27264, Control_c, 0, 7, 119
2, 27264, Note_on_c, 0, 62, 64
2, 27264, Note_on_c, 0, 71, 110
2, 27360, Control_c, 0, 7, 118
2, 27456, Note_off_c, 0, 71, 64
2, 27456, Note_off_c, 0, 62, 64
2, 27456, Control_c, 0, 7, 117
2, 27456, Note_on_c, 0, 66, 64
2, 27456, Note_on_c, 0, 74, 110
2, 27552, Control_c, 0, 7, 116
2, 27648, Note_off_c, 0, 74, 64
2, 27648, Note_off_c, 0, 66, 64
2, 27648, Control_c, 0, 7, 100
2, 52224, Control_c, 0, 7, 100
2, 52224, Control_c, 0, 7, 90
2, 52224, Note_on_c, 0, 73, 110
2, 52224, Note_on_c, 0, 64, 110
2, 52224, Note_on_c, 0, 68, 110
2, 52320, Note_off_c, 0, 68, 64
2, 52320, Note_off_c, 0, 64, 64
2, 52320, Note_off_c, 0, 73, 64
2, 52800, Note_on_c, 0, 66, 110
2, 52800, Note_on_c, 0, 71, 110
2, 52800, Note_on_c, 0, 75, 110
2, 52896, Note_off_c, 0, 75, 64
2, 52896, Note_off_c, 0, 71, 64
2, 52896, Note_off_c, 0, 66, 64
2, 53376, Note_on_c, 0, 68, 110
2, 53376, Note_on_c, 0, 73, 110
2, 53376, Note_on_c, 0, 76, 110
2, 53472, Note_off_c, 0, 76, 64
2, 53472, Note_off_c, 0, 73, 64
2, 53472, Note_off_c, 0, 68, 64
2, 53952, Note_on_c, 0, 66, 110
2, 53952, Note_on_c, 0, 71, 110
2, 53952, Note_on_c, 0, 75, 110
2, 54048, Note_off_c, 0, 75, 64
2, 54048, Note_off_c, 0, 71, 64
2, 54048, Note_off_c, 0, 66, 64
2, 54528, Note_on_c, 0, 64, 110
2, 54528, Note_on_c, 0, 68, 110
2, 54528, Note_on_c, 0, 73, 110
2, 54624, Note_off_c, 0, 73, 64
2, 54624, Note_off_c, 0, 68, 64
2, 54624, Note_off_c, 0, 64, 64
2, 54912, Note_on_c, 0, 68, 110
2, 54912, Note_on_c, 0, 73, 110
2, 54912, Note_on_c, 0, 76, 110
2, 55008, Note_off_c, 0, 76, 64
2, 55008, Note_off_c, 0, 73, 64
2, 55008, Note_off_c, 0, 68, 64
2, 55296, Control_c, 0, 7, 60
2, 55296, Note_on_c, 0, 61, 110
2, 55296, Note_on_c, 0, 64, 110
2, 55296, Note_on_c, 0, 69, 110
2, 55488, Control_c, 0, 7, 61
2, 55584, Control_c, 0, 7, 62
2, 55776, Control_c, 0, 7, 63
2, 55872, Control_c, 0, 7, 64
2, 55968, Control_c, 0, 7, 65
2, 56160, Control_c, 0, 7, 66
2, 56256, Control_c, 0, 7, 67
2, 56448, Control_c, 0, 7, 68
2, 56544, Control_c, 0, 7, 69
2, 56736, Control_c, 0, 7, 70
2, 56832, Control_c, 0, 7, 71
2, 56928, Control_c, 0, 7, 72
2, 57120, Control_c, 0, 7, 73
2, 57216, Control_c, 0, 7, 74
2, 57408, Control_c, 0, 7, 75
2, 57504, Control_c, 0, 7, 76
2, 57696, Control_c, 0, 7, 77
2, 57792, Control_c, 0, 7, 78
2, 57984, Note_off_c, 0, 69, 64
2, 57984, Note_off_c, 0, 64, 64
2, 57984, Note_off_c, 0, 61, 64
2, 57984, Control_c, 0, 7, 90
2, 58368, Note_on_c, 0, 63, 110
2, 58368, Note_on_c, 0, 66, 110
2, 58368, Note_on_c, 0, 71, 110
2, 58464, Note_off_c, 0, 71, 64
2, 58464, Note_off_c, 0, 66, 64
2, 58464, Note_off_c, 0, 63, 64
2, 58944, Note_on_c, 0, 68, 110
2, 58944, Note_on_c, 0, 64, 110
2, 58944, Note_on_c, 0, 73, 110
2, 59040, Note_off_c, 0, 73, 64
2, 59040, Note_off_c, 0, 64, 64
2, 59040, Note_off_c, 0, 68, 64
2, 59520, Note_on_c, 0, 66, 110
2, 59520, Note_on_c, 0, 71, 110
2, 59520, Note_on_c, 0, 75, 110
2, 59616, Note_off_c, 0, 75, 64
2, 59616, Note_off_c, 0, 71, 64
2, 59616, Note_off_c, 0, 66, 64
2, 60096, Note_on_c, 0, 68, 110
2, 60096, Note_on_c, 0, 73, 110
2, 60096, Note_on_c, 0, 64, 110
2, 60192, Note_off_c, 0, 64, 64
2, 60192, Note_off_c, 0, 73, 64
2, 60192, Note_off_c, 0, 68, 64
2, 60672, Note_on_c, 0, 66, 110
2, 60672, Note_on_c, 0, 71, 110
2, 60672, Note_on_c, 0, 63, 110
2, 60768, Note_off_c, 0, 63, 64
2, 60768, Note_off_c, 0, 71, 64
2, 60768, Note_off_c, 0, 66, 64
2, 61056, Note_on_c, 0, 66, 110
2, 61056, Note_on_c, 0, 71, 110
2, 61056, Note_on_c, 0, 75, 110
2, 61152, Note_off_c, 0, 75, 64
2, 61152, Note_off_c, 0, 71, 64
2, 61152, Note_off_c, 0, 66, 64
2, 61440, Control_c, 0, 7, 60
2, 61440, Note_on_c, 0, 56, 76
2, 61440, Note_on_c, 0, 64, 110
2, 61440, Note_on_c, 0, 68, 110
2, 61536, Control_c, 0, 7, 60
2, 61632, Control_c, 0, 7, 61
2, 61728, Control_c, 0, 7, 62
2, 61824, Control_c, 0, 7, 62
2, 61920, Control_c, 0, 7, 63
2, 62016, Control_c, 0, 7, 64
2, 62112, Control_c, 0, 7, 65
2, 62208, Control_c, 0, 7, 65
2, 62304, Control_c, 0, 7, 66
2, 62400, Control_c, 0, 7, 67
2, 62496, Control_c, 0, 7, 67
2, 62592, Control_c, 0, 7, 68
2, 62688, Control_c, 0, 7, 69
2, 62784, Control_c, 0, 7, 69
2, 62880, Control_c, 0, 7, 70
2, 62976, Control_c, 0, 7, 71
2, 63072, Control_c, 0, 7, 72
2, 63168, Control_c, 0, 7, 72
2, 63264, Control_c, 0, 7, 73
2, 63360, Control_c, 0, 7, 74
2, 63456, Control_c, 0, 7, 74
2, 63552, Control_c, 0, 7, 75
2, 63648, Control_c, 0, 7, 76
2, 63744, Control_c, 0, 7, 76
2, 63840, Control_c, 0, 7, 77
2, 63936, Control_c, 0, 7, 78
2, 64128, Note_off_c, 0, 68, 64
2, 64128, Note_off_c, 0, 64, 64
2, 64128, Note_off_c, 0, 56, 64
2, 64128, Control_c, 0, 7, 90
2, 64512, Control_c, 0, 7, 100
2, 64512, Note_on_c, 0, 64, 110
2, 64512, Note_on_c, 0, 61, 110
2, 64512, Note_on_c, 0, 69, 110
2, 64512, Control_c, 0, 7, 90
2, 64608, Note_off_c, 0, 69, 64
2, 64608, Note_off_c, 0, 61, 64
2, 64608, Note_off_c, 0, 64, 64
2, 65088, Note_on_c, 0, 68, 110
2, 65088, Note_on_c, 0, 63, 110
2, 65088, Note_on_c, 0, 71, 110
2, 65184, Note_off_c, 0, 71, 64
2, 65184, Note_off_c, 0, 63, 64
2, 65184, Note_off_c, 0, 68, 64
2, 65664, Note_on_c, 0, 69, 110
2, 65664, Note_on_c, 0, 73, 110
2, 65664, Note_on_c, 0, 64, 110
2, 65760, Note_off_c, 0, 64, 64
2, 65760, Note_off_c, 0, 73, 64
2, 65760, Note_off_c, 0, 69, 64
2, 66240, Note_on_c, 0, 66, 110
2, 66240, Note_on_c, 0, 63, 110
2, 66240, Note_on_c, 0, 71, 110
2, 66336, Note_off_c, 0, 71, 64
2, 66336, Note_off_c, 0, 63, 64
2, 66336, Note_off_c, 0, 66, 64
2, 66816, Note_on_c, 0, 64, 110
2, 66816, Note_on_c, 0, 61, 110
2, 66816, Note_on_c, 0, 69, 110
2, 66912, Note_off_c, 0, 69, 64
2, 66912, Note_off_c, 0, 61, 64
2, 66912, Note_off_c, 0, 64, 64
2, 67200, Note_on_c, 0, 59, 110
2, 67200, Note_on_c, 0, 68, 110
2, 67200, Note_on_c, 0, 64, 110
2, 67296, Note_off_c, 0, 64, 64
2, 67296, Note_off_c, 0, 68, 64
2, 67296, Note_off_c, 0, 59, 64
2, 67584, Note_on_c, 0, 63, 110
2, 67584, Note_on_c, 0, 67, 110
2, 67584, Note_on_c, 0, 57, 110
2, 67584, Control_c, 0, 7, 60
2, 67776, Control_c, 0, 7, 61
2, 67872, Control_c, 0, 7, 62
2, 68064, Control_c, 0, 7, 63
2, 68160, Control_c, 0, 7, 64
2, 68256, Control_c, 0, 7, 65
2, 68448, Control_c, 0, 7, 66
2, 68544, Control_c, 0, 7, 67
2, 68736, Control_c, 0, 7, 68
2, 68832, Control_c, 0, 7, 69
2, 69024, Control_c, 0, 7, 70
2, 69120, Control_c, 0, 7, 71
2, 69216, Control_c, 0, 7, 72
2, 69408, Control_c, 0, 7, 73
2, 69504, Control_c, 0, 7, 74
2, 69696, Control_c, 0, 7, 75
2, 69792, Control_c, 0, 7, 76
2, 69984, Control_c, 0, 7, 77
2, 70080, Control_c, 0, 7, 78
2, 70272, Note_off_c, 0, 57, 64
2, 70272, Note_off_c, 0, 67, 64
2, 70272, Note_off_c, 0, 63, 64
2, 70272, Control_c, 0, 7, 90
2, 70656, Note_on_c, 0, 58, 110
2, 70656, Note_on_c, 0, 67, 110
2, 70656, Note_on_c, 0, 70, 110
2, 70752, Note_off_c, 0, 70, 64
2, 70752, Note_off_c, 0, 67, 64
2, 70752, Note_off_c, 0, 58, 64
2, 71232, Note_on_c, 0, 59, 110
2, 71232, Note_on_c, 0, 67, 110
2, 71232, Note_on_c, 0, 71, 110
2, 71328, Note_off_c, 0, 71, 64
2, 71328, Note_off_c, 0, 67, 64
2, 71328, Note_off_c, 0, 59, 64
2, 71808, Note_on_c, 0, 61, 110
2, 71808, Note_on_c, 0, 67, 110
2, 71808, Note_on_c, 0, 73, 110
2, 71904, Note_off_c, 0, 73, 64
2, 71904, Note_off_c, 0, 67, 64
2, 71904, Note_off_c, 0, 61, 64
2, 72384, Note_on_c, 0, 68, 110
2, 72384, Note_on_c, 0, 76, 110
2, 72384, Note_on_c, 0, 64, 110
2, 72480, Note_off_c, 0, 64, 64
2, 72480, Note_off_c, 0, 76, 64
2, 72480, Note_off_c, 0, 68, 64
2, 72960, Note_on_c, 0, 67, 110
2, 72960, Note_on_c, 0, 75, 110
2, 72960, Note_on_c, 0, 63, 110
2, 73056, Note_off_c, 0, 63, 64
2, 73056, Note_off_c, 0, 75, 64
2, 73056, Note_off_c, 0, 67, 64
2, 73344, Note_on_c, 0, 61, 110
2, 73344, Note_on_c, 0, 70, 110
2, 73344, Note_on_c, 0, 73, 110
2, 73440, Note_off_c, 0, 73, 64
2, 73440, Note_off_c, 0, 70, 64
2, 73440, Note_off_c, 0, 61, 64
2, 73728, Note_on_c, 0, 67, 110
2, 73728, Note_on_c, 0, 72, 76
2, 73728, Note_on_c, 0, 75, 110
2, 73728, Control_c, 0, 7, 60
2, 73824, Control_c, 0, 7, 60
2, 73920, Control_c, 0, 7, 61
2, 74016, Control_c, 0, 7, 62
2, 74112, Control_c, 0, 7, 62
2, 74208, Control_c, 0, 7, 63
2, 74304, Control_c, 0, 7, 64
2, 74400, Control_c, 0, 7, 65
2, 74496, Control_c, 0, 7, 65
2, 74592, Control_c, 0, 7, 66
2, 74688, Control_c, 0, 7, 67
2, 74784, Control_c, 0, 7, 67
2, 74880, Control_c, 0, 7, 68
2, 74976, Control_c, 0, 7, 69
2, 75072, Control_c, 0, 7, 69
2, 75168, Control_c, 0, 7, 70
2, 75264, Control_c, 0, 7, 71
2, 75360, Control_c, 0, 7, 72
2, 75456, Control_c, 0, 7, 72
2, 75552, Control_c, 0, 7, 73
2, 75648, Control_c, 0, 7, 74
2, 75744, Control_c, 0, 7, 74
2, 75840, Control_c, 0, 7, 75
2, 75936, Control_c, 0, 7, 76
2, 76032, Control_c, 0, 7, 76
2, 76128, Control_c, 0, 7, 77
2, 76224, Control_c, 0, 7, 78
2, 76416, Note_off_c, 0, 75, 64
2, 76416, Note_off_c, 0, 72, 64
2, 76416, Note_off_c, 0, 67, 64
2, 76416, Control_c, 0, 7, 90
2, 76800, Control_c, 0, 7, 100
2, 76800, Program_c, 0, 48
2, 76800, Note_on_c, 0, 68, 95
2, 76800, Note_on_c, 0, 64, 95
2, 76800, Note_on_c, 0, 49, 95
2, 77376, Note_off_c, 0, 68, 64
2, 77376, Note_on_c, 0, 69, 95
2, 77952, Note_off_c, 0, 69, 64
2, 77952, Note_on_c, 0, 70, 95
2, 78528, Note_off_c, 0, 70, 64
2, 78528, Note_on_c, 0, 69, 95
2, 79104, Note_off_c, 0, 69, 64
2, 79104, Note_on_c, 0, 68, 95
2, 79488, Note_off_c, 0, 68, 64
2, 79488, Note_on_c, 0, 66, 95
2, 79872, Note_off_c, 0, 66, 64
2, 79872, Note_off_c, 0, 49, 64
2, 79872, Note_off_c, 0, 64, 64
2, 79872, Note_on_c, 0, 52, 110
2, 79872, Note_on_c, 0, 61, 110
2, 79872, Note_on_c, 0, 64, 110
2, 81408, Note_off_c, 0, 64, 64
2, 81408, Note_off_c, 0, 61, 64
2, 81408, Note_off_c, 0, 52, 64
2, 81408, Note_on_c, 0, 53, 110
2, 81408, Note_on_c, 0, 61, 110
2, 81408, Note_on_c, 0, 65, 110
2, 82944, Note_off_c, 0, 65, 64
2, 82944, Note_off_c, 0, 61, 64
2, 82944, Note_off_c, 0, 53, 64
2, 82944, Note_on_c, 0, 54, 110
2, 82944, Note_on_c, 0, 61, 110
2, 82944, Note_on_c, 0, 66, 110
2, 84480, Note_off_c, 0, 66, 64
2, 84480, Note_off_c, 0, 61, 64
2, 84480, Note_off_c, 0, 54, 64
2, 84480, Note_on_c, 0, 53, 110
2, 84480, Note_on_c, 0, 61, 110
2, 84480, Note_on_c, 0, 65, 110
2, 86016, Note_off_c, 0, 65, 64
2, 86016, Note_off_c, 0, 61, 64
2, 86016, Note_off_c, 0, 53, 64
2, 86016, Control_c, 0, 7, 100
2, 86016, Program_c, 0, 48
2, 86016, Note_on_c, 0, 47, 95
2, 86016, Note_on_c, 0, 59, 95
2, 86016, Note_on_c, 0, 66, 95
2, 86592, Note_off_c, 0, 66, 64
2, 86592, Note_on_c, 0, 68, 95
2, 87168, Note_off_c, 0, 68, 64
2, 87168, Note_on_c, 0, 69, 95
2, 87744, Note_off_c, 0, 69, 64
2, 87744, Note_on_c, 0, 68, 95
2, 88320, Note_off_c, 0, 68, 64
2, 88320, Note_on_c, 0, 66, 95
2, 88704, Note_off_c, 0, 66, 64
2, 88704, Note_on_c, 0, 64, 95
2, 89088, Note_off_c, 0, 64, 64
2, 89088, Note_off_c, 0, 59, 64
2, 89088, Note_off_c, 0, 47, 64
2, 89088, Note_on_c, 0, 52, 110
2, 89088, Note_on_c, 0, 59, 110
2, 89088, Note_on_c, 0, 64, 110
2, 90624, Note_off_c, 0, 64, 64
2, 90624, Note_off_c, 0, 59, 64
2, 90624, Note_off_c, 0, 52, 64
2, 90624, Note_on_c, 0, 64, 110
2, 90624, Note_on_c, 0, 61, 110
2, 90624, Note_on_c, 0, 52, 110
2, 92160, Note_off_c, 0, 52, 64
2, 92160, Note_off_c, 0, 61, 64
2, 92160, Note_off_c, 0, 64, 64
2, 92160, Note_on_c, 0, 66, 110
2, 92160, Note_on_c, 0, 52, 110
2, 92160, Note_on_c, 0, 63, 110
2, 93696, Note_off_c, 0, 63, 64
2, 93696, Note_off_c, 0, 52, 64
2, 93696, Note_off_c, 0, 66, 64
2, 93696, Note_on_c, 0, 61, 110
2, 93696, Note_on_c, 0, 64, 110
2, 93696, Note_on_c, 0, 52, 110
2, 95232, Note_off_c, 0, 52, 64
2, 95232, Note_off_c, 0, 64, 64
2, 95232, Note_off_c, 0, 61, 64
2, 101376, Note_on_c, 0, 80, 82
2, 101376, Note_on_c, 0, 85, 110
2, 103680, Note_off_c, 0, 85, 64
2, 103680, Note_off_c, 0, 80, 64
2, 103680, Note_on_c, 0, 83, 82
2, 103680, Note_on_c, 0, 87, 110
2, 104448, Note_off_c, 0, 87, 64
2, 104448, Note_off_c, 0, 83, 64
2, 104448, Note_on_c, 0, 81, 82
2, 104448, Note_on_c, 0, 88, 110
2, 106752, Note_off_c, 0, 88, 64
2, 106752, Note_off_c, 0, 81, 64
2, 106752, Note_on_c, 0, 80, 82
2, 106752, Note_on_c, 0, 92, 110
2, 107520, Note_off_c, 0, 92, 64
2, 107520, Note_off_c, 0, 80, 64
2, 107520, Note_on_c, 0, 78, 82
2, 107520, Note_on_c, 0, 90, 110
2, 109824, Note_off_c, 0, 90, 64
2, 109824, Note_off_c, 0, 78, 64
2, 109824, Note_on_c, 0, 76, 82
2, 109824, Note_on_c, 0, 88, 110
2, 110592, Note_off_c, 0, 88, 64
2, 110592, Note_off_c, 0, 76, 64
2, 110592, Note_on_c, 0, 74, 82
2, 110592, Note_on_c, 0, 90, 110
2, 113664, Note_off_c, 0, 90, 64
2, 113664, Note_off_c, 0, 74, 64
2, 113664, Control_c, 0, 7, 100
2, 113664, Program_c, 0, 48
2, 113664, Note_on_c, 0, 64, 110
2, 113664, Note_on_c, 0, 68, 110
2, 113664, Note_on_c, 0, 75, 110
2, 113856, Note_off_c, 0, 75, 64
2, 113856, Note_off_c, 0, 68, 64
2, 113856, Note_off_c, 0, 64, 64
2, 114240, Note_on_c, 0, 64, 110
2, 114240, Note_on_c, 0, 68, 110
2, 114240, Note_on_c, 0, 75, 110
2, 114432, Note_off_c, 0, 75, 64
2, 114432, Note_off_c, 0, 68, 64
2, 114432, Note_off_c, 0, 64, 64
2, 114816, Note_on_c, 0, 64, 110
2, 114816, Note_on_c, 0, 68, 110
2, 114816, Note_on_c, 0, 75, 110
2, 115008, Note_off_c, 0, 75, 64
2, 115008, Note_off_c, 0, 68, 64
2, 115008, Note_off_c, 0, 64, 64
2, 115392, Note_on_c, 0, 61, 110
2, 115392, Note_on_c, 0, 66, 110
2, 115392, Note_on_c, 0, 73, 110
2, 115488, Note_off_c, 0, 73, 64
2, 115488, Note_off_c, 0, 66, 64
2, 115488, Note_off_c, 0, 61, 64
2, 115584, Note_on_c, 0, 61, 110
2, 115584, Note_on_c, 0, 66, 110
2, 115584, Note_on_c, 0, 73, 110
2, 115680, Note_off_c, 0, 73, 64
2, 115680, Note_off_c, 0, 66, 64
2, 115680, Note_off_c, 0, 61, 64
2, 115968, Note_on_c, 0, 64, 110
2, 115968, Note_on_c, 0, 72, 110
2, 115968, Note_on_c, 0, 61, 110
2, 116160, Note_off_c, 0, 61, 64
2, 116160, Note_off_c, 0, 72, 64
2, 116160, Note_off_c, 0, 64, 64
2, 116544, Note_on_c, 0, 64, 110
2, 116544, Note_on_c, 0, 72, 110
2, 116544, Note_on_c, 0, 61, 110
2, 116736, Note_off_c, 0, 61, 64
2, 116736, Note_off_c, 0, 72, 64
2, 116736, Note_off_c, 0, 64, 64
2, 117120, Note_on_c, 0, 64, 110
2, 117120, Note_on_c, 0, 72, 110
2, 117120, Note_on_c, 0, 61, 110
2, 117312, Note_off_c, 0, 61, 64
2, 117312, Note_off_c, 0, 72, 64
2, 117312, Note_off_c, 0, 64, 64
2, 117696, Note_on_c, 0, 61, 110
2, 117696, Note_on_c, 0, 66, 110
2, 117696, Note_on_c, 0, 73, 110
2, 117792, Note_off_c, 0, 73, 64
2, 117792, Note_off_c, 0, 66, 64
2, 117792, Note_off_c, 0, 61, 64
2, 117888, Note_on_c, 0, 61, 110
2, 117888, Note_on_c, 0, 66, 110
2, 117888, Note_on_c, 0, 73, 110
2, 117984, Note_off_c, 0, 73, 64
2, 117984, Note_off_c, 0, 66, 64
2, 117984, Note_off_c, 0, 61, 64
2, 118272, Control_c, 0, 7, 100
2, 118272, Program_c, 0, 48
2, 118272, Note_on_c, 0, 64, 110
2, 118272, Note_on_c, 0, 68, 110
2, 118272, Note_on_c, 0, 75, 110
2, 118464, Note_off_c, 0, 75, 64
2, 118464, Note_off_c, 0, 68, 64
2, 118464, Note_off_c, 0, 64, 64
2, 118848, Note_on_c, 0, 64, 110
2, 118848, Note_on_c, 0, 68, 110
2, 118848, Note_on_c, 0, 75, 110
2, 119040, Note_off_c, 0, 75, 64
2, 119040, Note_off_c, 0, 68, 64
2, 119040, Note_off_c, 0, 64, 64
2, 119424, Note_on_c, 0, 64, 110
2, 119424, Note_on_c, 0, 68, 110
2, 119424, Note_on_c, 0, 75, 110
2, 119616, Note_off_c, 0, 75, 64
2, 119616, Note_off_c, 0, 68, 64
2, 119616, Note_off_c, 0, 64, 64
2, 120000, Note_on_c, 0, 88, 64
2, 120000, Note_on_c, 0, 68, 110
2, 120000, Note_on_c, 0, 76, 110
2, 120000, Note_on_c, 0, 64, 110
2, 120096, Note_off_c, 0, 64, 64
2, 120096, Note_off_c, 0, 76, 64
2, 120096, Note_off_c, 0, 68, 64
2, 120096, Note_off_c, 0, 88, 64
2, 120192, Note_on_c, 0, 88, 64
2, 120192, Note_on_c, 0, 68, 110
2, 120192, Note_on_c, 0, 76, 110
2, 120192, Note_on_c, 0, 64, 110
2, 120288, Note_off_c, 0, 64, 64
2, 120288, Note_off_c, 0, 76, 64
2, 120288, Note_off_c, 0, 68, 64
2, 120288, Note_off_c, 0, 88, 64
2, 120576, Note_on_c, 0, 90, 64
2, 120576, Note_on_c, 0, 71, 110
2, 120576, Note_on_c, 0, 66, 110
2, 120576, Note_on_c, 0, 78, 110
2, 120768, Note_off_c, 0, 78, 64
2, 120768, Note_off_c, 0, 66, 64
2, 120768, Note_off_c, 0, 71, 64
2, 120768, Note_off_c, 0, 90, 64
2, 121152, Note_on_c, 0, 90, 64
2, 121152, Note_on_c, 0, 71, 110
2, 121152, Note_on_c, 0, 66, 110
2, 121152, Note_on_c, 0, 78, 110
2, 121344, Note_off_c, 0, 78, 64
2, 121344, Note_off_c, 0, 66, 64
2, 121344, Note_off_c, 0, 71, 64
2, 121344, Note_off_c, 0, 90, 64
2, 121728, Note_on_c, 0, 90, 64
2, 121728, Note_on_c, 0, 71, 110
2, 121728, Note_on_c, 0, 66, 110
2, 121728, Note_on_c, 0, 78, 110
2, 121920, Note_off_c, 0, 78, 64
2, 121920, Note_off_c, 0, 66, 64
2, 121920, Note_off_c, 0, 71, 64
2, 121920, Note_off_c, 0, 90, 64
2, 122304, Note_on_c, 0, 92, 64
2, 122304, Note_on_c, 0, 71, 110
2, 122304, Note_on_c, 0, 80, 110
2, 122304, Note_on_c, 0, 68, 110
2, 122400, Note_off_c, 0, 68, 64
2, 122400, Note_off_c, 0, 80, 64
2, 122400, Note_off_c, 0, 71, 64
2, 122400, Note_off_c, 0, 92, 64
2, 122496, Note_on_c, 0, 92, 64
2, 122496, Note_on_c, 0, 71, 110
2, 122496, Note_on_c, 0, 80, 110
2, 122496, Note_on_c, 0, 68, 110
2, 122592, Note_off_c, 0, 68, 64
2, 122592, Note_off_c, 0, 80, 64
2, 122592, Note_off_c, 0, 71, 64
2, 122592, Note_off_c, 0, 92, 64
2, 147456, Control_c, 0, 7, 100
2, 147456, Control_c, 0, 7, 90
2, 147456, Note_on_c, 0, 73, 110
2, 147456, Note_on_c, 0, 64, 110
2, 147456, Note_on_c, 0, 68, 110
2, 147552, Note_off_c, 0, 68, 64
2, 147552, Note_off_c, 0, 64, 64
2, 147552, Note_off_c, 0, 73, 64
2, 148032, Note_on_c, 0, 66, 110
2, 148032, Note_on_c, 0, 71, 110
2, 148032, Note_on_c, 0, 75, 110
2, 148128, Note_off_c, 0, 75, 64
2, 148128, Note_off_c, 0, 71, 64
2, 148128, Note_off_c, 0, 66, 64
2, 148608, Note_on_c, 0, 68, 110
2, 148608, Note_on_c, 0, 73, 110
2, 148608, Note_on_c, 0, 76, 110
2, 148704, Note_off_c, 0, 76, 64
2, 148704, Note_off_c, 0, 73, 64
2, 148704, Note_off_c, 0, 68, 64
2, 149184, Note_on_c, 0, 66, 110
2, 149184, Note_on_c, 0, 71, 110
2, 149184, Note_on_c, 0, 75, 110
2, 149280, Note_off_c, 0, 75, 64
2, 149280, Note_off_c, 0, 71, 64
2, 149280, Note_off_c, 0, 66, 64
2, 149760, Note_on_c, 0, 64, 110
2, 149760, Note_on_c, 0, 68, 110
2, 149760, Note_on_c, 0, 73, 110
2, 149856, Note_off_c, 0, 73, 64
2, 149856, Note_off_c, 0, 68, 64
2, 149856, Note_off_c, 0, 64, 64
2, 150144, Note_on_c, 0, 68, 110
2, 150144, Note_on_c, 0, 73, 110
2, 150144, Note_on_c, 0, 76, 110
2, 150240, Note_off_c, 0, 76, 64
2, 150240, Note_off_c, 0, 73, 64
2, 150240, Note_off_c, 0, 68, 64
2, 150528, Control_c, 0, 7, 60
2, 150528, Note_on_c, 0, 61, 110
2, 150528, Note_on_c, 0, 64, 110
2, 150528, Note_on_c, 0, 69, 110
2, 150720, Control_c, 0, 7, 61
2, 150816, Control_c, 0, 7, 62
2, 151008, Control_c, 0, 7, 63
2, 151104, Control_c, 0, 7, 64
2, 151200, Control_c, 0, 7, 65
2, 151392, Control_c, 0, 7, 66
2, 151488, Control_c, 0, 7, 67
2, 151680, Control_c, 0, 7, 68
2, 151776, Control_c, 0, 7, 69
2, 151968, Control_c, 0, 7, 70
2, 152064, Control_c, 0, 7, 71
2, 152160, Control_c, 0, 7, 72
2, 152352, Control_c, 0, 7, 73
2, 152448, Control_c, 0, 7, 74
2, 152640, Control_c, 0, 7, 75
2, 152736, Control_c, 0, 7, 76
2, 152928, Control_c, 0, 7, 77
2, 153024, Control_c, 0, 7, 78
2, 153216, Note_off_c, 0, 69, 64
2, 153216, Note_off_c, 0, 64, 64
2, 153216, Note_off_c, 0, 61, 64
2, 153216, Control_c, 0, 7, 90
2, 153600, Note_on_c, 0, 63, 110
2, 153600, Note_on_c, 0, 66, 110
2, 153600, Note_on_c, 0, 71, 110
2, 153696, Note_off_c, 0, 71, 64
2, 153696, Note_off_c, 0, 66, 64
2, 153696, Note_off_c, 0, 63, 64
2, 154176, Note_on_c, 0, 68, 110
2, 154176, Note_on_c, 0, 64, 110
2, 154176, Note_on_c, 0, 73, 110
2, 154272, Note_off_c, 0, 73, 64
2, 154272, Note_off_c, 0, 64, 64
2, 154272, Note_off_c, 0, 68, 64
2, 154752, Note_on_c, 0, 66, 110
2, 154752, Note_on_c, 0, 71, 110
2, 154752, Note_on_c, 0, 75, 110
2, 154848, Note_off_c, 0, 75, 64
2, 154848, Note_off_c, 0, 71, 64
2, 154848, Note_off_c, 0, 66, 64
2, 155328, Note_on_c, 0, 68, 110
2, 155328, Note_on_c, 0, 73, 110
2, 155328, Note_on_c, 0, 64, 110
2, 155424, Note_off_c, 0, 64, 64
2, 155424, Note_off_c, 0, 73, 64
2, 155424, Note_off_c, 0, 68, 64
2, 155904, Note_on_c, 0, 66, 110
2, 155904, Note_on_c, 0, 71, 110
2, 155904, Note_on_c, 0, 63, 110
2, 156000, Note_off_c, 0, 63, 64
2, 156000, Note_off_c, 0, 71, 64
2, 156000, Note_off_c, 0, 66, 64
2, 156288, Note_on_c, 0, 66, 110
2, 156288, Note_on_c, 0, 71, 110
2, 156288, Note_on_c, 0, 75, 110
2, 156384, Note_off_c, 0, 75, 64
2, 156384, Note_off_c, 0, 71, 64
2, 156384, Note_off_c, 0, 66, 64
2, 156672, Control_c, 0, 7, 60
2, 156672, Note_on_c, 0, 56, 76
2, 156672, Note_on_c, 0, 64, 110
2, 156672, Note_on_c, 0, 68, 110
2, 156768, Control_c, 0, 7, 60
2, 156864, Control_c, 0, 7, 61
2, 156960, Control_c, 0, 7, 62
2, 157056, Control_c, 0, 7, 62
2, 157152, Control_c, 0, 7, 63
2, 157248, Control_c, 0, 7, 64
2, 157344, Control_c, 0, 7, 65
2, 157440, Control_c, 0, 7, 65
2, 157536, Control_c, 0, 7, 66
2, 157632, Control_c, 0, 7, 67
2, 157728, Control_c, 0, 7, 67
2, 157824, Control_c, 0, 7, 68
2, 157920, Control_c, 0, 7, 69
2, 158016, Control_c, 0, 7, 69
2, 158112, Control_c, 0, 7, 70
2, 158208, Control_c, 0, 7, 71
2, 158304, Control_c, 0, 7, 72
2, 158400, Control_c, 0, 7, 72
2, 158496, Control_c, 0, 7, 73
2, 158592, Control_c, 0, 7, 74
2, 158688, Control_c, 0, 7, 74
2, 158784, Control_c, 0, 7, 75
2, 158880, Control_c, 0, 7, 76
2, 158976, Control_c, 0, 7, 76
2, 159072, Control_c, 0, 7, 77
2, 159168, Control_c, 0, 7, 78
2, 159360, Note_off_c, 0, 68, 64
2, 159360, Note_off_c, 0, 64, 64
2, 159360, Note_off_c, 0, 56, 64
2, 159360, Control_c, 0, 7, 90
2, 159744, Control_c, 0, 7, 100
2, 159744, Note_on_c, 0, 64, 110
2, 159744, Note_on_c, 0, 61, 110
2, 159744, Note_on_c, 0, 69, 110
2, 159744, Control_c, 0, 7, 90
2, 159840, Note_off_c, 0, 69, 64
2, 159840, Note_off_c, 0, 61, 64
2, 159840, Note_off_c, 0, 64, 64
2, 160320, Note_on_c, 0, 68, 110
2, 160320, Note_on_c, 0, 63, 110
2, 160320, Note_on_c, 0, 71, 110
2, 160416, Note_off_c, 0, 71, 64
2, 160416, Note_off_c, 0, 63, 64
2, 160416, Note_off_c, 0, 68, 64
2, 160896, Note_on_c, 0, 69, 110
2, 160896, Note_on_c, 0, 73, 110
2, 160896, Note_on_c, 0, 64, 110
2, 160992, Note_off_c, 0, 64, 64
2, 160992, Note_off_c, 0, 73, 64
2, 160992, Note_off_c, 0, 69, 64
2, 161472, Note_on_c, 0, 66, 110
2, 161472, Note_on_c, 0, 63, 110
2, 161472, Note_on_c, 0, 71, 110
2, 161568, Note_off_c, 0, 71, 64
2, 161568, Note_off_c, 0, 63, 64
2, 161568, Note_off_c, 0, 66, 64
2, 162048, Note_on_c, 0, 64, 110
2, 162048, Note_on_c, 0, 61, 110
2, 162048, Note_on_c, 0, 69, 110
2, 162144, Note_off_c, 0, 69, 64
2, 162144, Note_off_c, 0, 61, 64
2, 162144, Note_off_c, 0, 64, 64
2, 162432, Note_on_c, 0, 59, 110
2, 162432, Note_on_c, 0, 68, 110
2, 162432, Note_on_c, 0, 64, 110
2, 162528, Note_off_c, 0, 64, 64
2, 162528, Note_off_c, 0, 68, 64
2, 162528, Note_off_c, 0, 59, 64
2, 162816, Note_on_c, 0, 63, 110
2, 162816, Note_on_c, 0, 67, 110
2, 162816, Note_on_c, 0, 57, 110
2, 162816, Control_c, 0, 7, 60
2, 163008, Control_c, 0, 7, 61
2, 163104, Control_c, 0, 7, 62
2, 163296, Control_c, 0, 7, 63
2, 163392, Control_c, 0, 7, 64
2, 163488, Control_c, 0, 7, 65
2, 163680, Control_c, 0, 7, 66
2, 163776, Control_c, 0, 7, 67
2, 163968, Control_c, 0, 7, 68
2, 164064, Control_c, 0, 7, 69
2, 164256, Control_c, 0, 7, 70
2, 164352, Control_c, 0, 7, 71
2, 164448, Control_c, 0, 7, 72
2, 164640, Control_c, 0, 7, 73
2, 164736, Control_c, 0, 7, 74
2, 164928, Control_c, 0, 7, 75
2, 165024, Control_c, 0, 7, 76
2, 165216, Control_c, 0, 7, 77
2, 165312, Control_c, 0, 7, 78
2, 165504, Note_off_c, 0, 57, 64
2, 165504, Note_off_c, 0, 67, 64
2, 165504, Note_off_c, 0, 63, 64
2, 165504, Control_c, 0, 7, 90
2, 165888, Note_on_c, 0, 58, 110
2, 165888, Note_on_c, 0, 67, 110
2, 165888, Note_on_c, 0, 70, 110
2, 165984, Note_off_c, 0, 70, 64
2, 165984, Note_off_c, 0, 67, 64
2, 165984, Note_off_c, 0, 58, 64
2, 166464, Note_on_c, 0, 59, 110
2, 166464, Note_on_c, 0, 67, 110
2, 166464, Note_on_c, 0, 71, 110
2, 166560, Note_off_c, 0, 71, 64
2, 166560, Note_off_c, 0, 67, 64
2, 166560, Note_off_c, 0, 59, 64
2, 167040, Note_on_c, 0, 61, 110
2, 167040, Note_on_c, 0, 67, 110
2, 167040, Note_on_c, 0, 73, 110
2, 167136, Note_off_c, 0, 73, 64
2, 167136, Note_off_c, 0, 67, 64
2, 167136, Note_off_c, 0, 61, 64
2, 167616, Note_on_c, 0, 68, 110
2, 167616, Note_on_c, 0, 76, 110
2, 167616, Note_on_c, 0, 64, 110
2, 167712, Note_off_c, 0, 64, 64
2, 167712, Note_off_c, 0, 76, 64
2, 167712, Note_off_c, 0, 68, 64
2, 168192, Note_on_c, 0, 67, 110
2, 168192, Note_on_c, 0, 75, 110
2, 168192, Note_on_c, 0, 63, 110
2, 168288, Note_off_c, 0, 63, 64
2, 168288, Note_off_c, 0, 75, 64
2, 168288, Note_off_c, 0, 67, 64
2, 168576, Note_on_c, 0, 61, 110
2, 168576, Note_on_c, 0, 70, 110
2, 168576, Note_on_c, 0, 73, 110
2, 168672, Note_off_c, 0, 73, 64
2, 168672, Note_off_c, 0, 70, 64
2, 168672, Note_off_c, 0, 61, 64
2, 168960, Note_on_c, 0, 67, 110
2, 168960, Note_on_c, 0, 72, 76
2, 168960, Note_on_c, 0, 75, 110
2, 168960, Control_c, 0, 7, 60
2, 169056, Control_c, 0, 7, 60
2, 169152, Control_c, 0, 7, 61
2, 169248, Control_c, 0, 7, 62
2, 169344, Control_c, 0, 7, 62
2, 169440, Control_c, 0, 7, 63
2, 169536, Control_c, 0, 7, 64
2, 169632, Control_c, 0, 7, 65
2, 169728, Control_c, 0, 7, 65
2, 169824, Control_c, 0, 7, 66
2, 169920, Control_c, 0, 7, 67
2, 170016, Control_c, 0, 7, 67
2, 170112, Control_c, 0, 7, 68
2, 170208, Control_c, 0, 7, 69
2, 170304, Control_c, 0, 7, 69
2, 170400, Control_c, 0, 7, 70
2, 170496, Control_c, 0, 7, 71
2, 170592, Control_c, 0, 7, 72
2, 170688, Control_c, 0, 7, 72
2, 170784, Control_c, 0, 7, 73
2, 170880, Control_c, 0, 7, 74
2, 170976, Control_c, 0, 7, 74
2, 171072, Control_c, 0, 7, 75
2, 171168, Control_c, 0, 7, 76
2, 171264, Control_c, 0, 7, 76
2, 171360, Control_c, 0, 7, 77
2, 171456, Control_c, 0, 7, 78
2, 171648, Note_off_c, 0, 75, 64
2, 171648, Note_off_c, 0, 72, 64
2, 171648, Note_off_c, 0, 67, 64
2, 171648, Control_c, 0, 7, 90
2, 172032, Control_c, 0, 7, 100
2, 172032, Program_c, 0, 48
2, 172032, Note_on_c, 0, 68, 95
2, 172032, Note_on_c, 0, 64, 95
2, 172032, Note_on_c, 0, 49, 95
2, 172608, Note_off_c, 0, 68, 64
2, 172608, Note_on_c, 0, 69, 95
2, 173184, Note_off_c, 0, 69, 64
2, 173184, Note_on_c, 0, 70, 95
2, 173760, Note_off_c, 0, 70, 64
2, 173760, Note_on_c, 0, 69, 95
2, 174336, Note_off_c, 0, 69, 64
2, 174336, Note_on_c, 0, 68, 95
2, 174720, Note_off_c, 0, 68, 64
2, 174720, Note_on_c, 0, 66, 95
2, 175104, Note_off_c, 0, 66, 64
2, 175104, Note_off_c, 0, 49, 64
2, 175104, Note_off_c, 0, 64, 64
2, 175104, Note_on_c, 0, 52, 110
2, 175104, Note_on_c, 0, 61, 110
2, 175104, Note_on_c, 0, 64, 110
2, 176640, Note_off_c, 0, 64, 64
2, 176640, Note_off_c, 0, 61, 64
2, 176640, Note_off_c, 0, 52, 64
2, 176640, Note_on_c, 0, 53, 110
2, 176640, Note_on_c, 0, 61, 110
2, 176640, Note_on_c, 0, 65, 110
2, 178176, Note_off_c, 0, 65, 64
2, 178176, Note_off_c, 0, 61, 64
2, 178176, Note_off_c, 0, 53, 64
2, 178176, Note_on_c, 0, 54, 110
2, 178176, Note_on_c, 0, 61, 110
2, 178176, Note_on_c, 0, 66, 110
2, 179712, Note_off_c, 0, 66, 64
2, 179712, Note_off_c, 0, 61, 64
2, 179712, Note_off_c, 0, 54, 64
2, 179712, Note_on_c, 0, 53, 110
2, 179712, Note_on_c, 0, 61, 110
2, 179712, Note_on_c, 0, 65, 110
2, 181248, Note_off_c, 0, 65, 64
2, 181248, Note_off_c, 0, 61, 64
2, 181248, Note_off_c, 0, 53, 64
2, 181248, Control_c, 0, 7, 100
2, 181248, Program_c, 0, 48
2, 181248, Note_on_c, 0, 47, 95
2, 181248, Note_on_c, 0, 59, 95
2, 181248, Note_on_c, 0, 66, 95
2, 181824, Note_off_c, 0, 66, 64
2, 181824, Note_on_c, 0, 68, 95
2, 182400, Note_off_c, 0, 68, 64
2, 182400, Note_on_c, 0, 69, 95
2, 182976, Note_off_c, 0, 69, 64
2, 182976, Note_on_c, 0, 68, 95
2, 183552, Note_off_c, 0, 68, 64
2, 183552, Note_on_c, 0, 66, 95
2, 183936, Note_off_c, 0, 66, 64
2, 183936, Note_on_c, 0, 64, 95
2, 184320, Note_off_c, 0, 64, 64
2, 184320, Note_off_c, 0, 59, 64
2, 184320, Note_off_c, 0, 47, 64
2, 184320, Note_on_c, 0, 52, 110
2, 184320, Note_on_c, 0, 59, 110
2, 184320, Note_on_c, 0, 64, 110
2, 185856, Note_off_c, 0, 64, 64
2, 185856, Note_off_c, 0, 59, 64
2, 185856, Note_off_c, 0, 52, 64
2, 185856, Note_on_c, 0, 64, 110
2, 185856, Note_on_c, 0, 61, 110
2, 185856, Note_on_c, 0, 52, 110
2, 187392, Note_off_c, 0, 52, 64
2, 187392, Note_off_c, 0, 61, 64
2, 187392, Note_off_c, 0, 64, 64
2, 187392, Note_on_c, 0, 66, 110
2, 187392, Note_on_c, 0, 52, 110
2, 187392, Note_on_c, 0, 63, 110
2, 188928, Note_off_c, 0, 63, 64
2, 188928, Note_off_c, 0, 52, 64
2, 188928, Note_off_c, 0, 66, 64
2, 188928, Note_on_c, 0, 61, 110
2, 188928, Note_on_c, 0, 64, 110
2, 188928, Note_on_c, 0, 52, 110
2, 190464, Note_off_c, 0, 52, 64
2, 190464, Note_off_c, 0, 64, 64
2, 190464, Note_off_c, 0, 61, 64
2, 196608, Note_on_c, 0, 80, 82
2, 196608, Note_on_c, 0, 85, 110
2, 198912, Note_off_c, 0, 85, 64
2, 198912, Note_off_c, 0, 80, 64
2, 198912, Note_on_c, 0, 83, 82
2, 198912, Note_on_c, 0, 87, 110
2, 199680, Note_off_c, 0, 87, 64
2, 199680, Note_off_c, 0, 83, 64
2, 199680, Note_on_c, 0, 81, 82
2, 199680, Note_on_c, 0, 88, 110
2, 201984, Note_off_c, 0, 88, 64
2, 201984, Note_off_c, 0, 81, 64
2, 201984, Note_on_c, 0, 80, 82
2, 201984, Note_on_c, 0, 92, 110
2, 202752, Note_off_c, 0, 92, 64
2, 202752, Note_off_c, 0, 80, 64
2, 202752, Note_on_c, 0, 78, 82
2, 202752, Note_on_c, 0, 90, 110
2, 205056, Note_off_c, 0, 90, 64
2, 205056, Note_off_c, 0, 78, 64
2, 205056, Note_on_c, 0, 76, 82
2, 205056, Note_on_c, 0, 88, 110
2, 205824, Note_off_c, 0, 88, 64
2, 205824, Note_off_c, 0, 76, 64
2, 205824, Note_on_c, 0, 74, 82
2, 205824, Note_on_c, 0, 90, 110
2, 208896, Note_off_c, 0, 90, 64
2, 208896, Note_off_c, 0, 74, 64
2, 208896, Control_c, 0, 7, 100
2, 208896, Program_c, 0, 48
2, 208896, Note_on_c, 0, 64, 110
2, 208896, Note_on_c, 0, 68, 110
2, 208896, Note_on_c, 0, 75, 110
2, 209088, Note_off_c, 0, 75, 64
2, 209088, Note_off_c, 0, 68, 64
2, 209088, Note_off_c, 0, 64, 64
2, 209472, Note_on_c, 0, 64, 110
2, 209472, Note_on_c, 0, 68, 110
2, 209472, Note_on_c, 0, 75, 110
2, 209664, Note_off_c, 0, 75, 64
2, 209664, Note_off_c, 0, 68, 64
2, 209664, Note_off_c, 0, 64, 64
2, 210048, Note_on_c, 0, 64, 110
2, 210048, Note_on_c, 0, 68, 110
2, 210048, Note_on_c, 0, 75, 110
2, 210240, Note_off_c, 0, 75, 64
2, 210240, Note_off_c, 0, 68, 64
2, 210240, Note_off_c, 0, 64, 64
2, 210624, Note_on_c, 0, 61, 110
2, 210624, Note_on_c, 0, 66, 110
2, 210624, Note_on_c, 0, 73, 110
2, 210720, Note_off_c, 0, 73, 64
2, 210720, Note_off_c, 0, 66, 64
2, 210720, Note_off_c, 0, 61, 64
2, 210816, Note_on_c, 0, 61, 110
2, 210816, Note_on_c, 0, 66, 110
2, 210816, Note_on_c, 0, 73, 110
2, 210912, Note_off_c, 0, 73, 64
2, 210912, Note_off_c, 0, 66, 64
2, 210912, Note_off_c, 0, 61, 64
2, 211200, Note_on_c, 0, 64, 110
2, 211200, Note_on_c, 0, 72, 110
2, 211200, Note_on_c, 0, 61, 110
2, 211392, Note_off_c, 0, 61, 64
2, 211392, Note_off_c, 0, 72, 64
2, 211392, Note_off_c, 0, 64, 64
2, 211776, Note_on_c, 0, 64, 110
2, 211776, Note_on_c, 0, 72, 110
2, 211776, Note_on_c, 0, 61, 110
2, 211968, Note_off_c, 0, 61, 64
2, 211968, Note_off_c, 0, 72, 64
2, 211968, Note_off_c, 0, 64, 64
2, 212352, Note_on_c, 0, 64, 110
2, 212352, Note_on_c, 0, 72, 110
2, 212352, Note_on_c, 0, 61, 110
2, 212544, Note_off_c, 0, 61, 64
2, 212544, Note_off_c, 0, 72, 64
2, 212544, Note_off_c, 0, 64, 64
2, 212928, Note_on_c, 0, 61, 110
2, 212928, Note_on_c, 0, 66, 110
2, 212928, Note_on_c, 0, 73, 110
2, 213024, Note_off_c, 0, 73, 64
2, 213024, Note_off_c, 0, 66, 64
2, 213024, Note_off_c, 0, 61, 64
2, 213120, Note_on_c, 0, 61, 110
2, 213120, Note_on_c, 0, 66, 110
2, 213120, Note_on_c, 0, 73, 110
2, 213216, Note_off_c, 0, 73, 64
2, 213216, Note_off_c, 0, 66, 64
2, 213216, Note_off_c, 0, 61, 64
2, 213504, Control_c, 0, 7, 100
2, 213504, Program_c, 0, 48
2, 213504, Note_on_c, 0, 64, 110
2, 213504, Note_on_c, 0, 68, 110
2, 213504, Note_on_c, 0, 75, 110
2, 213696, Note_off_c, 0, 75, 64
2, 213696, Note_off_c, 0, 68, 64
2, 213696, Note_off_c, 0, 64, 64
2, 214080, Note_on_c, 0, 64, 110
2, 214080, Note_on_c, 0, 68, 110
2, 214080, Note_on_c, 0, 75, 110
2, 214272, Note_off_c, 0, 75, 64
2, 214272, Note_off_c, 0, 68, 64
2, 214272, Note_off_c, 0, 64, 64
2, 214656, Note_on_c, 0, 64, 110
2, 214656, Note_on_c, 0, 68, 110
2, 214656, Note_on_c, 0, 75, 110
2, 214848, Note_off_c, 0, 75, 64
2, 214848, Note_off_c, 0, 68, 64
2, 214848, Note_off_c, 0, 64, 64
2, 215232, Note_on_c, 0, 88, 64
2, 215232, Note_on_c, 0, 68, 110
2, 215232, Note_on_c, 0, 76, 110
2, 215232, Note_on_c, 0, 64, 110
2, 215328, Note_off_c, 0, 64, 64
2, 215328, Note_off_c, 0, 76, 64
2, 215328, Note_off_c, 0, 68, 64
2, 215328, Note_off_c, 0, 88, 64
2, 215424, Note_on_c, 0, 88, 64
2, 215424, Note_on_c, 0, 68, 110
2, 215424, Note_on_c, 0, 76, 110
2, 215424, Note_on_c, 0, 64, 110
2, 215520, Note_off_c, 0, 64, 64
2, 215520, Note_off_c, 0, 76, 64
2, 215520, Note_off_c, 0, 68, 64
2, 215520, Note_off_c, 0, 88, 64
2, 215808, Note_on_c, 0, 71, 110
2, 215808, Note_on_c, 0, 90, 64
2, 215808, Note_on_c, 0, 66, 110
2, 215808, Note_on_c, 0, 78, 110
2, 216000, Note_off_c, 0, 78, 64
2, 216000, Note_off_c, 0, 66, 64
2, 216000, Note_off_c, 0, 90, 64
2, 216000, Note_off_c, 0, 71, 64
2, 216384, Note_on_c, 0, 71, 110
2, 216384, Note_on_c, 0, 90, 64
2, 216384, Note_on_c, 0, 66, 110
2, 216384, Note_on_c, 0, 78, 110
2, 216576, Note_off_c, 0, 78, 64
2, 216576, Note_off_c, 0, 66, 64
2, 216576, Note_off_c, 0, 90, 64
2, 216576, Note_off_c, 0, 71, 64
2, 216960, Note_on_c, 0, 71, 110
2, 216960, Note_on_c, 0, 90, 64
2, 216960, Note_on_c, 0, 66, 110
2, 216960, Note_on_c, 0, 78, 110
2, 217152, Note_off_c, 0, 78, 64
2, 217152, Note_off_c, 0, 66, 64
2, 217152, Note_off_c, 0, 90, 64
2, 217152, Note_off_c, 0, 71, 64
2, 217536, Note_on_c, 0, 71, 110
2, 217536, Note_on_c, 0, 92, 64
2, 217536, Note_on_c, 0, 80, 110
2, 217536, Note_on_c, 0, 68, 110
2, 217632, Note_off_c, 0, 68, 64
2, 217632, Note_off_c, 0, 80, 64
2, 217632, Note_off_c, 0, 92, 64
2, 217632, Note_off_c, 0, 71, 64
2, 217728, Note_on_c, 0, 71, 110
2, 217728, Note_on_c, 0, 92, 64
2, 217728, Note_on_c, 0, 80, 110
2, 217728, Note_on_c, 0, 68, 110
2, 217824, Note_off_c, 0, 68, 64
2, 217824, Note_off_c, 0, 80, 64
2, 217824, Note_off_c, 0, 92, 64
2, 217824, Note_off_c, 0, 71, 64
2, 218112, End_track
3, 0, Start_track
3, 0, Title_t, "Fantasy 10"
3, 0, Control_c, 1, 7, 110
3, 0, Program_c, 1, 56
3, 0, Control_c, 1, 10, 58
3, 0, Control_c, 1, 91, 62
3, 0, Note_on_c, 1, 68, 110
3, 192, Note_off_c, 1, 68, 64
3, 384, Note_on_c, 1, 68, 110
3, 576, Note_off_c, 1, 68, 64
3, 576, Note_on_c, 1, 68, 110
3, 768, Note_off_c, 1, 68, 64
3, 960, Note_on_c, 1, 68, 110
3, 1152, Note_off_c, 1, 68, 64
3, 1152, Note_on_c, 1, 68, 110
3, 1344, Note_off_c, 1, 68, 64
3, 1536, Note_on_c, 1, 66, 110
3, 1728, Note_off_c, 1, 66, 64
3, 1920, Note_on_c, 1, 71, 110
3, 2112, Note_off_c, 1, 71, 64
3, 2304, Note_on_c, 1, 64, 110
3, 4608, Note_off_c, 1, 64, 64
3, 4608, Control_c, 1, 7, 110
3, 4608, Program_c, 1, 56
3, 4608, Note_on_c, 1, 73, 110
3, 4800, Note_off_c, 1, 73, 64
3, 4992, Note_on_c, 1, 73, 110
3, 5184, Note_off_c, 1, 73, 64
3, 5184, Note_on_c, 1, 73, 110
3, 5376, Note_off_c, 1, 73, 64
3, 5568, Note_on_c, 1, 73, 110
3, 5760, Note_off_c, 1, 73, 64
3, 5760, Note_on_c, 1, 73, 110
3, 5952, Note_off_c, 1, 73, 64
3, 6144, Note_on_c, 1, 71, 110
3, 6336, Note_off_c, 1, 71, 64
3, 6528, Note_on_c, 1, 76, 110
3, 6720, Note_off_c, 1, 76, 64
3, 6912, Note_on_c, 1, 69, 110
3, 9216, Note_off_c, 1, 69, 64
3, 9216, Control_c, 1, 7, 110
3, 9216, Program_c, 1, 56
3, 9216, Note_on_c, 1, 61, 81
3, 9216, Note_on_c, 1, 68, 110
3, 9408, Note_off_c, 1, 68, 64
3, 9408, Note_off_c, 1, 61, 64
3, 9600, Note_on_c, 1, 61, 81
3, 9600, Note_on_c, 1, 68, 110
3, 9792, Note_off_c, 1, 68, 64
3, 9792, Note_off_c, 1, 61, 64
3, 9792, Note_on_c, 1, 61, 81
3, 9792, Note_on_c, 1, 68, 110
3, 9984, Note_off_c, 1, 68, 64
3, 9984, Note_off_c, 1, 61, 64
3, 10176, Note_on_c, 1, 61, 81
3, 10176, Note_on_c, 1, 68, 110
3, 10368, Note_off_c, 1, 68, 64
3, 10368, Note_off_c, 1, 61, 64
3, 10368, Note_on_c, 1, 61, 81
3, 10368, Note_on_c, 1, 68, 110
3, 10560, Note_off_c, 1, 68, 64
3, 10560, Note_off_c, 1, 61, 64
3, 10752, Note_on_c, 1, 61, 81
3, 10752, Note_on_c, 1, 69, 110
3, 10944, Note_off_c, 1, 69, 64
3, 10944, Note_off_c, 1, 61, 64
3, 11136, Note_on_c, 1, 61, 81
3, 11136, Note_on_c, 1, 69, 110
3, 11328, Note_off_c, 1, 69, 64
3, 11328, Note_off_c, 1, 61, 64
3, 11520, Note_on_c, 1, 61, 81
3, 11520, Note_on_c, 1, 68, 110
3, 11712, Note_off_c, 1, 68, 64
3, 11712, Note_off_c, 1, 61, 64
3, 11904, Note_on_c, 1, 61, 81
3, 11904, Note_on_c, 1, 68, 110
3, 12096, Note_off_c, 1, 68, 64
3, 12096, Note_off_c, 1, 61, 64
3, 12096, Note_on_c, 1, 61, 81
3, 12096, Note_on_c, 1, 68, 110
3, 12288, Note_off_c, 1, 68, 64
3, 12288, Note_off_c, 1, 61, 64
3, 12480, Note_on_c, 1, 61, 81
3, 12480, Note_on_c, 1, 68, 110
3, 12672, Note_off_c, 1, 68, 64
3, 12672, Note_off_c, 1, 61, 64
3, 12672, Note_on_c, 1, 61, 81
3, 12672, Note_on_c, 1, 68, 110
3, 12864, Note_off_c, 1, 68, 64
3, 12864, Note_off_c, 1, 61, 64
3, 13056, Note_on_c, 1, 64, 81
3, 13056, Note_on_c, 1, 71, 110
3, 13248, Note_off_c, 1, 71, 64
3, 13248, Note_off_c, 1, 64, 64
3, 13440, Note_on_c, 1, 62, 81
3, 13440, Note_on_c, 1, 69, 110
3, 13632, Note_off_c, 1, 69, 64
3, 13632, Note_off_c, 1, 62, 64
3, 13824, Control_c, 1, 7, 110
3, 13824, Program_c, 1, 56
3, 13824, Note_on_c, 1, 61, 81
3, 13824, Note_on_c, 1, 76, 110
3, 13824, Note_on_c, 1, 68, 110
3, 14016, Note_off_c, 1, 68, 64
3, 14016, Note_off_c, 1, 76, 64
3, 14016, Note_off_c, 1, 61, 64
3, 14208, Note_on_c, 1, 61, 81
3, 14208, Note_on_c, 1, 76, 110
3, 14208, Note_on_c, 1, 68, 110
3, 14400, Note_off_c, 1, 68, 64
3, 14400, Note_off_c, 1, 76, 64
3, 14400, Note_off_c, 1, 61, 64
3, 14400, Note_on_c, 1, 61, 81
3, 14400, Note_on_c, 1, 76, 110
3, 14400, Note_on_c, 1, 68, 110
3, 14592, Note_off_c, 1, 68, 64
3, 14592, Note_off_c, 1, 76, 64
3, 14592, Note_off_c, 1, 61, 64
3, 14784, Note_on_c, 1, 61, 81
3, 14784, Note_on_c, 1, 76, 110
3, 14784, Note_on_c, 1, 68, 110
3, 14976, Note_off_c, 1, 68, 64
3, 14976, Note_off_c, 1, 76, 64
3, 14976, Note_off_c, 1, 61, 64
3, 14976, Note_on_c, 1, 61, 81
3, 14976, Note_on_c, 1, 76, 110
3, 14976, Note_on_c, 1, 68, 110
3, 15168, Note_off_c, 1, 68, 64
3, 15168, Note_off_c, 1, 76, 64
3, 15168, Note_off_c, 1, 61, 64
3, 15360, Note_on_c, 1, 61, 81
3, 15360, Note_on_c, 1, 76, 110
3, 15360, Note_on_c, 1, 69, 110
3, 15552, Note_off_c, 1, 69, 64
3, 15552, Note_off_c, 1, 76, 64
3, 15552, Note_off_c, 1, 61, 64
3, 15744, Note_on_c, 1, 61, 81
3, 15744, Note_on_c, 1, 76, 110
3, 15744, Note_on_c, 1, 69, 110
3, 15936, Note_off_c, 1, 69, 64
3, 15936, Note_off_c, 1, 76, 64
3, 15936, Note_off_c, 1, 61, 64
3, 16128, Note_on_c, 1, 61, 81
3, 16128, Note_on_c, 1, 76, 110
3, 16128, Note_on_c, 1, 68, 110
3, 16320, Note_off_c, 1, 68, 64
3, 16320, Note_off_c, 1, 76, 64
3, 16320, Note_off_c, 1, 61, 64
3, 16512, Note_on_c, 1, 61, 81
3, 16512, Note_on_c, 1, 76, 110
3, 16512, Note_on_c, 1, 68, 110
3, 16704, Note_off_c, 1, 68, 64
3, 16704, Note_off_c, 1, 76, 64
3, 16704, Note_off_c, 1, 61, 64
3, 16704, Note_on_c, 1, 61, 81
3, 16704, Note_on_c, 1, 76, 110
3, 16704, Note_on_c, 1, 68, 110
3, 16896, Note_off_c, 1, 68, 64
3, 16896, Note_off_c, 1, 76, 64
3, 16896, Note_off_c, 1, 61, 64
3, 17088, Note_on_c, 1, 61, 81
3, 17088, Note_on_c, 1, 76, 110
3, 17088, Note_on_c, 1, 68, 110
3, 17280, Note_off_c, 1, 68, 64
3, 17280, Note_off_c, 1, 76, 64
3, 17280, Note_off_c, 1, 61, 64
3, 17280, Note_on_c, 1, 61, 81
3, 17280, Note_on_c, 1, 76, 110
3, 17280, Note_on_c, 1, 68, 110
3, 17472, Note_off_c, 1, 68, 64
3, 17472, Note_off_c, 1, 76, 64
3, 17472, Note_off_c, 1, 61, 64
3, 17664, Note_on_c, 1, 64, 81
3, 17664, Note_on_c, 1, 78, 110
3, 17664, Note_on_c, 1, 71, 110
3, 17856, Note_off_c, 1, 71, 64
3, 17856, Note_off_c, 1, 78, 64
3, 17856, Note_off_c, 1, 64, 64
3, 18048, Note_on_c, 1, 62, 81
3, 18048, Note_on_c, 1, 78, 110
3, 18048, Note_on_c, 1, 69, 110
3, 18240, Note_off_c, 1, 69, 64
3, 18240, Note_off_c, 1, 78, 64
3, 18240, Note_off_c, 1, 62, 64
3, 27648, Control_c, 1, 7, 110
3, 27648, Program_c, 1, 56
3, 27648, Note_on_c, 1, 68, 64
3, 27648, Note_on_c, 1, 73, 110
3, 27840, Note_off_c, 1, 73, 64
3, 27840, Note_off_c, 1, 68, 64
3, 28224, Note_on_c, 1, 71, 64
3, 28224, Note_on_c, 1, 75, 110
3, 28416, Note_off_c, 1, 75, 64
3, 28416, Note_off_c, 1, 71, 64
3, 28800, Note_on_c, 1, 73, 64
3, 28800, Note_on_c, 1, 76, 110
3, 28992, Note_off_c, 1, 76, 64
3, 28992, Note_off_c, 1, 73, 64
3, 29376, Note_on_c, 1, 71, 64
3, 29376, Note_on_c, 1, 75, 110
3, 29568, Note_off_c, 1, 75, 64
3, 29568, Note_off_c, 1, 71, 64
3, 29952, Note_on_c, 1, 68, 64
3, 29952, Note_on_c, 1, 73, 110
3, 30144, Note_off_c, 1, 73, 64
3, 30144, Note_off_c, 1, 68, 64
3, 30336, Note_on_c, 1, 73, 64
3, 30336, Note_on_c, 1, 76, 110
3, 30528, Note_off_c, 1, 76, 64
3, 30528, Note_off_c, 1, 73, 64
3, 30720, Note_on_c, 1, 66, 64
3, 30720, Note_on_c, 1, 69, 110
3, 33408, Note_off_c, 1, 69, 64
3, 33408, Note_off_c, 1, 66, 64
3, 33792, Note_on_c, 1, 66, 64
3, 33792, Note_on_c, 1, 71, 110
3, 33984, Note_off_c, 1, 71, 64
3, 33984, Note_off_c, 1, 66, 64
3, 34368, Note_on_c, 1, 66, 64
3, 34368, Note_on_c, 1, 73, 110
3, 34560, Note_off_c, 1, 73, 64
3, 34560, Note_off_c, 1, 66, 64
3, 34944, Note_on_c, 1, 71, 64
3, 34944, Note_on_c, 1, 75, 110
3, 35136, Note_off_c, 1, 75, 64
3, 35136, Note_off_c, 1, 71, 64
3, 35520, Note_on_c, 1, 66, 64
3, 35520, Note_on_c, 1, 73, 110
3, 35712, Note_off_c, 1, 73, 64
3, 35712, Note_off_c, 1, 66, 64
3, 36096, Note_on_c, 1, 66, 64
3, 36096, Note_on_c, 1, 71, 110
3, 36288, Note_off_c, 1, 71, 64
3, 36288, Note_off_c, 1, 66, 64
3, 36480, Note_on_c, 1, 71, 64
3, 36480, Note_on_c, 1, 75, 110
3, 36672, Note_off_c, 1, 75, 64
3, 36672, Note_off_c, 1, 71, 64
3, 36864, Note_on_c, 1, 64, 64
3, 36864, Note_on_c, 1, 68, 110
3, 39936, Note_off_c, 1, 68, 64
3, 39936, Note_off_c, 1, 64, 64
3, 39936, Control_c, 1, 7, 110
3, 39936, Program_c, 1, 56
3, 39936, Note_on_c, 1, 64, 64
3, 39936, Note_on_c, 1, 69, 110
3, 40128, Note_off_c, 1, 69, 64
3, 40128, Note_off_c, 1, 64, 64
3, 40512, Note_on_c, 1, 68, 64
3, 40512, Note_on_c, 1, 71, 110
3, 40704, Note_off_c, 1, 71, 64
3, 40704, Note_off_c, 1, 68, 64
3, 41088, Note_on_c, 1, 69, 64
3, 41088, Note_on_c, 1, 73, 110
3, 41280, Note_off_c, 1, 73, 64
3, 41280, Note_off_c, 1, 69, 64
3, 41664, Note_on_c, 1, 68, 64
3, 41664, Note_on_c, 1, 71, 110
3, 41856, Note_off_c, 1, 71, 64
3, 41856, Note_off_c, 1, 68, 64
3, 42240, Note_on_c, 1, 66, 64
3, 42240, Note_on_c, 1, 69, 110
3, 42432, Note_off_c, 1, 69, 64
3, 42432, Note_off_c, 1, 66, 64
3, 42624, Note_on_c, 1, 64, 64
3, 42624, Note_on_c, 1, 68, 110
3, 42816, Note_off_c, 1, 68, 64
3, 42816, Note_off_c, 1, 64, 64
3, 43008, Note_on_c, 1, 61, 64
3, 43008, Note_on_c, 1, 66, 110
3, 45312, Note_off_c, 1, 66, 64
3, 45312, Note_off_c, 1, 61, 64
3, 45312, Note_on_c, 1, 59, 64
3, 45312, Note_on_c, 1, 64, 110
3, 46080, Note_off_c, 1, 64, 64
3, 46080, Note_off_c, 1, 59, 64
3, 46080, Note_on_c, 1, 58, 64
3, 46080, Note_on_c, 1, 63, 110
3, 48384, Note_off_c, 1, 63, 64
3, 48384, Note_off_c, 1, 58, 64
3, 48384, Note_on_c, 1, 58, 64
3, 48384, Note_on_c, 1, 63, 110
3, 49152, Note_off_c, 1, 63, 64
3, 49152, Note_off_c, 1, 58, 64
3, 49152, Note_on_c, 1, 63, 64
3, 49152, Note_on_c, 1, 68, 110
3, 51456, Note_off_c, 1, 68, 64
3, 51456, Note_off_c, 1, 63, 64
3, 76800, Control_c, 1, 7, 110
3, 76800, Program_c, 1, 56
3, 76800, Note_on_c, 1, 80, 110
3, 76992, Note_off_c, 1, 80, 64
3, 76992, Note_on_c, 1, 80, 110
3, 77184, Note_off_c, 1, 80, 64
3, 77184, Note_on_c, 1, 80, 110
3, 77376, Note_off_c, 1, 80, 64
3, 77376, Note_on_c, 1, 78, 110
3, 77760, Note_off_c, 1, 78, 64
3, 77760, Note_on_c, 1, 80, 110
3, 77952, Note_off_c, 1, 80, 64
3, 77952, Note_on_c, 1, 76, 110
3, 78144, Note_off_c, 1, 76, 64
3, 78144, Note_on_c, 1, 76, 110
3, 78336, Note_off_c, 1, 76, 64
3, 78336, Note_on_c, 1, 76, 110
3, 78528, Note_off_c, 1, 76, 64
3, 78528, Note_on_c, 1, 75, 110
3, 78912, Note_off_c, 1, 75, 64
3, 78912, Note_on_c, 1, 76, 110
3, 79104, Note_off_c, 1, 76, 64
3, 79104, Note_on_c, 1, 73, 110
3, 79488, Note_off_c, 1, 73, 64
3, 79488, Note_on_c, 1, 71, 110
3, 79872, Note_off_c, 1, 71, 64
3, 79872, Note_on_c, 1, 69, 110
3, 80640, Note_off_c, 1, 69, 64
3, 80640, Note_on_c, 1, 80, 110
3, 85632, Note_off_c, 1, 80, 64
3, 122880, Control_c, 1, 7, 110
3, 122880, Program_c, 1, 56
3, 122880, Note_on_c, 1, 68, 64
3, 122880, Note_on_c, 1, 73, 110
3, 123072, Note_off_c, 1, 73, 64
3, 123072, Note_off_c, 1, 68, 64
3, 123456, Note_on_c, 1, 71, 64
3, 123456, Note_on_c, 1, 75, 110
3, 123648, Note_off_c, 1, 75, 64
3, 123648, Note_off_c, 1, 71, 64
3, 124032, Note_on_c, 1, 73, 64
3, 124032, Note_on_c, 1, 76, 110
3, 124224, Note_off_c, 1, 76, 64
3, 124224, Note_off_c, 1, 73, 64
3, 124608, Note_on_c, 1, 71, 64
3, 124608, Note_on_c, 1, 75, 110
3, 124800, Note_off_c, 1, 75, 64
3, 124800, Note_off_c, 1, 71, 64
3, 125184, Note_on_c, 1, 68, 64
3, 125184, Note_on_c, 1, 73, 110
3, 125376, Note_off_c, 1, 73, 64
3, 125376, Note_off_c, 1, 68, 64
3, 125568, Note_on_c, 1, 73, 64
3, 125568, Note_on_c, 1, 76, 110
3, 125760, Note_off_c, 1, 76, 64
3, 125760, Note_off_c, 1, 73, 64
3, 125952, Note_on_c, 1, 66, 64
3, 125952, Note_on_c, 1, 69, 110
3, 128640, Note_off_c, 1, 69, 64
3, 128640, Note_off_c, 1, 66, 64
3, 129024, Note_on_c, 1, 66, 64
3, 129024, Note_on_c, 1, 71, 110
3, 129216, Note_off_c, 1, 71, 64
3, 129216, Note_off_c, 1, 66, 64
3, 129600, Note_on_c, 1, 66, 64
3, 129600, Note_on_c, 1, 73, 110
3, 129792, Note_off_c, 1, 73, 64
3, 129792, Note_off_c, 1, 66, 64
3, 130176, Note_on_c, 1, 71, 64
3, 130176, Note_on_c, 1, 75, 110
3, 130368, Note_off_c, 1, 75, 64
3, 130368, Note_off_c, 1, 71, 64
3, 130752, Note_on_c, 1, 66, 64
3, 130752, Note_on_c, 1, 73, 110
3, 130944, Note_off_c, 1, 73, 64
3, 130944, Note_off_c, 1, 66, 64
3, 131328, Note_on_c, 1, 66, 64
3, 131328, Note_on_c, 1, 71, 110
3, 131520, Note_off_c, 1, 71, 64
3, 131520, Note_off_c, 1, 66, 64
3, 131712, Note_on_c, 1, 71, 64
3, 131712, Note_on_c, 1, 75, 110
3, 131904, Note_off_c, 1, 75, 64
3, 131904, Note_off_c, 1, 71, 64
3, 132096, Note_on_c, 1, 64, 64
3, 132096, Note_on_c, 1, 68, 110
3, 135168, Note_off_c, 1, 68, 64
3, 135168, Note_off_c, 1, 64, 64
3, 135168, Control_c, 1, 7, 110
3, 135168, Program_c, 1, 56
3, 135168, Note_on_c, 1, 64, 64
3, 135168, Note_on_c, 1, 69, 110
3, 135360, Note_off_c, 1, 69, 64
3, 135360, Note_off_c, 1, 64, 64
3, 135744, Note_on_c, 1, 68, 64
3, 135744, Note_on_c, 1, 71, 110
3, 135936, Note_off_c, 1, 71, 64
3, 135936, Note_off_c, 1, 68, 64
3, 136320, Note_on_c, 1, 69, 64
3, 136320, Note_on_c, 1, 73, 110
3, 136512, Note_off_c, 1, 73, 64
3, 136512, Note_off_c, 1, 69, 64
3, 136896, Note_on_c, 1, 68, 64
3, 136896, Note_on_c, 1, 71, 110
3, 137088, Note_off_c, 1, 71, 64
3, 137088, Note_off_c, 1, 68, 64
3, 137472, Note_on_c, 1, 66, 64
3, 137472, Note_on_c, 1, 69, 110
3, 137664, Note_off_c, 1, 69, 64
3, 137664, Note_off_c, 1, 66, 64
3, 137856, Note_on_c, 1, 64, 64
3, 137856, Note_on_c, 1, 68, 110
3, 138048, Note_off_c, 1, 68, 64
3, 138048, Note_off_c, 1, 64, 64
3, 138240, Note_on_c, 1, 61, 64
3, 138240, Note_on_c, 1, 66, 110
3, 140544, Note_off_c, 1, 66, 64
3, 140544, Note_off_c, 1, 61, 64
3, 140544, Note_on_c, 1, 59, 64
3, 140544, Note_on_c, 1, 64, 110
3, 141312, Note_off_c, 1, 64, 64
3, 141312, Note_off_c, 1, 59, 64
3, 141312, Note_on_c, 1, 58, 64
3, 141312, Note_on_c, 1, 63, 110
3, 143616, Note_off_c, 1, 63, 64
3, 143616, Note_off_c, 1, 58, 64
3, 143616, Note_on_c, 1, 58, 64
3, 143616, Note_on_c, 1, 63, 110
3, 144384, Note_off_c, 1, 63, 64
3, 144384, Note_off_c, 1, 58, 64
3, 144384, Note_on_c, 1, 63, 64
3, 144384, Note_on_c, 1, 68, 110
3, 146688, Note_off_c, 1, 68, 64
3, 146688, Note_off_c, 1, 63, 64
3, 172032, Control_c, 1, 7, 110
3, 172032, Program_c, 1, 56
3, 172032, Note_on_c, 1, 80, 110
3, 172224, Note_off_c, 1, 80, 64
3, 172224, Note_on_c, 1, 80, 110
3, 172416, Note_off_c, 1, 80, 64
3, 172416, Note_on_c, 1, 80, 110
3, 172608, Note_off_c, 1, 80, 64
3, 172608, Note_on_c, 1, 78, 110
3, 172992, Note_off_c, 1, 78, 64
3, 172992, Note_on_c, 1, 80, 110
3, 173184, Note_off_c, 1, 80, 64
3, 173184, Note_on_c, 1, 76, 110
3, 173376, Note_off_c, 1, 76, 64
3, 173376, Note_on_c, 1, 76, 110
3, 173568, Note_off_c, 1, 76, 64
3, 173568, Note_on_c, 1, 76, 110
3, 173760, Note_off_c, 1, 76, 64
3, 173760, Note_on_c, 1, 75, 110
3, 174144, Note_off_c, 1, 75, 64
3, 174144, Note_on_c, 1, 76, 110
3, 174336, Note_off_c, 1, 76, 64
3, 174336, Note_on_c, 1, 73, 110
3, 174720, Note_off_c, 1, 73, 64
3, 174720, Note_on_c, 1, 71, 110
3, 175104, Note_off_c, 1, 71, 64
3, 175104, Note_on_c, 1, 69, 110
3, 175872, Note_off_c, 1, 69, 64
3, 175872, Note_on_c, 1, 80, 110
3, 180864, Note_off_c, 1, 80, 64
3, 218112, Control_c, 1, 7, 110
3, 218112, Program_c, 1, 56
3, 218112, Note_on_c, 1, 68, 64
3, 218112, Note_on_c, 1, 73, 110
3, 218304, Note_off_c, 1, 73, 64
3, 218304, Note_off_c, 1, 68, 64
3, 218688, Note_on_c, 1, 71, 64
3, 218688, Note_on_c, 1, 75, 110
3, 218880, Note_off_c, 1, 75, 64
3, 218880, Note_off_c, 1, 71, 64
3, 219264, Note_on_c, 1, 73, 64
3, 219264, Note_on_c, 1, 76, 110
3, 219456, Note_off_c, 1, 76, 64
3, 219456, Note_off_c, 1, 73, 64
3, 219840, Note_on_c, 1, 71, 64
3, 219840, Note_on_c, 1, 75, 110
3, 220032, Note_off_c, 1, 75, 64
3, 220032, Note_off_c, 1, 71, 64
3, 220416, Note_on_c, 1, 68, 64
3, 220416, Note_on_c, 1, 73, 110
3, 220608, Note_off_c, 1, 73, 64
3, 220608, Note_off_c, 1, 68, 64
3, 220800, Note_on_c, 1, 73, 64
3, 220800, Note_on_c, 1, 76, 110
3, 220992, Note_off_c, 1, 76, 64
3, 220992, Note_off_c, 1, 73, 64
3, 221184, Note_on_c, 1, 66, 64
3, 221184, Note_on_c, 1, 69, 110
3, 223872, Note_off_c, 1, 69, 64
3, 223872, Note_off_c, 1, 66, 64
3, 224256, Control_c, 1, 7, 110
3, 224256, Program_c, 1, 56
3, 224256, Control_c, 1, 7, 110
3, 224256, Note_on_c, 1, 66, 64
3, 224256, Note_on_c, 1, 71, 110
3, 224352, Control_c, 1, 7, 109
3, 224448, Note_off_c, 1, 71, 64
3, 224448, Note_off_c, 1, 66, 64
3, 224544, Control_c, 1, 7, 108
3, 224640, Control_c, 1, 7, 107
3, 224832, Control_c, 1, 7, 106
3, 224832, Note_on_c, 1, 66, 64
3, 224832, Note_on_c, 1, 73, 110
3, 225024, Note_off_c, 1, 73, 64
3, 225024, Note_off_c, 1, 66, 64
3, 225024, Control_c, 1, 7, 105
3, 225216, Control_c, 1, 7, 104
3, 225408, Control_c, 1, 7, 103
3, 225408, Note_on_c, 1, 71, 64
3, 225408, Note_on_c, 1, 75, 110
3, 225504, Control_c, 1, 7, 102
3, 225600, Note_off_c, 1, 75, 64
3, 225600, Note_off_c, 1, 71, 64
3, 225696, Control_c, 1, 7, 101
3, 225888, Control_c, 1, 7, 100
3, 225984, Note_on_c, 1, 66, 64
3, 225984, Note_on_c, 1, 73, 110
3, 226080, Control_c, 1, 7, 99
3, 226176, Note_off_c, 1, 73, 64
3, 226176, Note_off_c, 1, 66, 64
3, 226176, Control_c, 1, 7, 98
3, 226368, Control_c, 1, 7, 97
3, 226560, Control_c, 1, 7, 96
3, 226560, Note_on_c, 1, 66, 64
3, 226560, Note_on_c, 1, 71, 110
3, 226752, Note_off_c, 1, 71, 64
3, 226752, Note_off_c, 1, 66, 64
3, 226752, Control_c, 1, 7, 95
3, 226848, Control_c, 1, 7, 94
3, 226944, Note_on_c, 1, 71, 64
3, 226944, Note_on_c, 1, 75, 110
3, 227040, Control_c, 1, 7, 93
3, 227136, Note_off_c, 1, 75, 64
3, 227136, Note_off_c, 1, 71, 64
3, 227232, Control_c, 1, 7, 92
3, 227328, Note_on_c, 1, 64, 64
3, 227328, Note_on_c, 1, 68, 110
3, 227424, Control_c, 1, 7, 91
3, 227520, Control_c, 1, 7, 90
3, 227712, Control_c, 1, 7, 89
3, 227904, Control_c, 1, 7, 88
3, 228096, Control_c, 1, 7, 87
3, 228192, Control_c, 1, 7, 86
3, 228384, Control_c, 1, 7, 85
3, 228576, Control_c, 1, 7, 84
3, 228768, Control_c, 1, 7, 83
3, 228960, Control_c, 1, 7, 82
3, 229056, Control_c, 1, 7, 81
3, 229248, Control_c, 1, 7, 80
3, 229440, Control_c, 1, 7, 79
3, 229632, Control_c, 1, 7, 78
3, 229728, Control_c, 1, 7, 77
3, 229920, Control_c, 1, 7, 76
3, 230112, Control_c, 1, 7, 75
3, 230304, Control_c, 1, 7, 74
3, 230400, Note_off_c, 1, 68, 64
3, 230400, Note_off_c, 1, 64, 64
3, 230400, Control_c, 1, 7, 73
3, 230400, Note_on_c, 1, 64, 64
3, 230400, Note_on_c, 1, 69, 110
3, 230592, Note_off_c, 1, 69, 64
3, 230592, Note_off_c, 1, 64, 64
3, 230592, Control_c, 1, 7, 72
3, 230784, Control_c, 1, 7, 71
3, 230976, Control_c, 1, 7, 70
3, 230976, Note_on_c, 1, 68, 64
3, 230976, Note_on_c, 1, 71, 110
3, 231072, Control_c, 1, 7, 69
3, 231168, Note_off_c, 1, 71, 64
3, 231168, Note_off_c, 1, 68, 64
3, 231264, Control_c, 1, 7, 68
3, 231456, Control_c, 1, 7, 67
3, 231552, Note_on_c, 1, 69, 64
3, 231552, Note_on_c, 1, 73, 110
3, 231648, Control_c, 1, 7, 66
3, 231744, Note_off_c, 1, 73, 64
3, 231744, Note_off_c, 1, 69, 64
3, 231744, Control_c, 1, 7, 65
3, 231936, Control_c, 1, 7, 64
3, 232128, Control_c, 1, 7, 63
3, 232128, Note_on_c, 1, 68, 64
3, 232128, Note_on_c, 1, 71, 110
3, 232320, Note_off_c, 1, 71, 64
3, 232320, Note_off_c, 1, 68, 64
3, 232320, Control_c, 1, 7, 62
3, 232512, Control_c, 1, 7, 61
3, 232608, Control_c, 1, 7, 60
3, 232704, Note_on_c, 1, 66, 64
3, 232704, Note_on_c, 1, 69, 110
3, 232800, Control_c, 1, 7, 59
3, 232896, Note_off_c, 1, 69, 64
3, 232896, Note_off_c, 1, 66, 64
3, 232992, Control_c, 1, 7, 58
3, 233088, Note_on_c, 1, 64, 64
3, 233088, Note_on_c, 1, 68, 110
3, 233184, Control_c, 1, 7, 57
3, 233280, Note_off_c, 1, 68, 64
3, 233280, Note_off_c, 1, 64, 64
3, 233280, Control_c, 1, 7, 56
3, 233472, Control_c, 1, 7, 55
3, 233472, Note_on_c, 1, 61, 64
3, 233472, Note_on_c, 1, 66, 110
3, 233664, Control_c, 1, 7, 54
3, 233856, Control_c, 1, 7, 53
3, 233952, Control_c, 1, 7, 52
3, 234144, Control_c, 1, 7, 51
3, 234336, Control_c, 1, 7, 50
3, 234528, Control_c, 1, 7, 49
3, 234624, Control_c, 1, 7, 48
3, 234816, Control_c, 1, 7, 47
3, 235008, Control_c, 1, 7, 46
3, 235200, Control_c, 1, 7, 45
3, 235296, Control_c, 1, 7, 44
3, 235488, Control_c, 1, 7, 43
3, 235680, Control_c, 1, 7, 42
3, 235776, Note_off_c, 1, 66, 64
3, 235776, Note_off_c, 1, 61, 64
3, 235776, Note_on_c, 1, 59, 64
3, 235776, Note_on_c, 1, 64, 110
3, 235872, Control_c, 1, 7, 41
3, 236064, Control_c, 1, 7, 40
3, 236160, Control_c, 1, 7, 39
3, 236352, Control_c, 1, 7, 38
3, 236544, Note_off_c, 1, 64, 64
3, 236544, Note_off_c, 1, 59, 64
3, 236544, Control_c, 1, 7, 37
3, 236544, Note_on_c, 1, 58, 64
3, 236544, Note_on_c, 1, 63, 110
3, 236736, Control_c, 1, 7, 36
3, 236832, Control_c, 1, 7, 35
3, 237024, Control_c, 1, 7, 34
3, 237216, Control_c, 1, 7, 33
3, 237408, Control_c, 1, 7, 32
3, 237504, Control_c, 1, 7, 31
3, 237696, Control_c, 1, 7, 30
3, 237888, Control_c, 1, 7, 29
3, 238080, Control_c, 1, 7, 28
3, 238176, Control_c, 1, 7, 27
3, 238368, Control_c, 1, 7, 26
3, 238560, Control_c, 1, 7, 25
3, 238752, Control_c, 1, 7, 24
3, 238848, Note_off_c, 1, 63, 64
3, 238848, Note_off_c, 1, 58, 64
3, 238848, Control_c, 1, 7, 23
3, 238848, Note_on_c, 1, 58, 64
3, 238848, Note_on_c, 1, 63, 110
3, 239040, Control_c, 1, 7, 22
3, 239232, Control_c, 1, 7, 21
3, 239424, Control_c, 1, 7, 20
3, 239616, Note_off_c, 1, 63, 64
3, 239616, Note_off_c, 1, 58, 64
3, 239616, Control_c, 1, 7, 19
3, 239616, Note_on_c, 1, 63, 64
3, 239616, Note_on_c, 1, 68, 110
3, 239712, Control_c, 1, 7, 18
3, 239904, Control_c, 1, 7, 17
3, 240096, Control_c, 1, 7, 16
3, 240288, Control_c, 1, 7, 15
3, 240384, Control_c, 1, 7, 14
3, 240576, Control_c, 1, 7, 13
3, 240768, Control_c, 1, 7, 12
3, 240960, Control_c, 1, 7, 11
3, 241056, Control_c, 1, 7, 10
3, 241248, Control_c, 1, 7, 9
3, 241440, Control_c, 1, 7, 8
3, 241632, Control_c, 1, 7, 7
3, 241728, Control_c, 1, 7, 6
3, 241920, Note_off_c, 1, 68, 64
3, 241920, Note_off_c, 1, 63, 64
3, 241920, Control_c, 1, 7, 5
3, 242112, Control_c, 1, 7, 4
3, 242304, Control_c, 1, 7, 3
3, 242400, Control_c, 1, 7, 2
3, 242592, Control_c, 1, 7, 1
3, 242688, End_track
4, 0, Start_track
4, 0, Title_t, "Normal"
4, 0, Control_c, 2, 7, 100
4, 0, Program_c, 2, 60
4, 0, Control_c, 2, 10, 87
4, 0, Control_c, 2, 91, 68
4, 2304, Note_on_c, 2, 61, 64
4, 2304, Note_on_c, 2, 64, 110
4, 2880, Note_off_c, 2, 64, 64
4, 2880, Note_off_c, 2, 61, 64
4, 2880, Note_on_c, 2, 59, 64
4, 2880, Note_on_c, 2, 63, 110
4, 3456, Note_off_c, 2, 63, 64
4, 3456, Note_off_c, 2, 59, 64
4, 3456, Note_on_c, 2, 57, 64
4, 3456, Note_on_c, 2, 61, 110
4, 4032, Note_off_c, 2, 61, 64
4, 4032, Note_off_c, 2, 57, 64
4, 4032, Note_on_c, 2, 56, 64
4, 4032, Note_on_c, 2, 59, 110
4, 4608, Note_off_c, 2, 59, 64
4, 4608, Note_off_c, 2, 56, 64
4, 4608, Note_on_c, 2, 54, 64
4, 4608, Note_on_c, 2, 57, 110
4, 6912, Note_off_c, 2, 57, 64
4, 6912, Note_off_c, 2, 54, 64
4, 6912, Note_on_c, 2, 66, 64
4, 6912, Note_on_c, 2, 69, 110
4, 7488, Note_off_c, 2, 69, 64
4, 7488, Note_off_c, 2, 66, 64
4, 7488, Note_on_c, 2, 64, 64
4, 7488, Note_on_c, 2, 68, 110
4, 8064, Note_off_c, 2, 68, 64
4, 8064, Note_off_c, 2, 64, 64
4, 8064, Note_on_c, 2, 62, 64
4, 8064, Note_on_c, 2, 66, 110
4, 8640, Note_off_c, 2, 66, 64
4, 8640, Note_off_c, 2, 62, 64
4, 8640, Note_on_c, 2, 61, 64
4, 8640, Note_on_c, 2, 64, 110
4, 9216, Note_off_c, 2, 64, 64
4, 9216, Note_off_c, 2, 61, 64
4, 27648, Control_c, 2, 7, 100
4, 27648, Program_c, 2, 60
4, 27648, Note_on_c, 2, 56, 70
4, 27648, Note_on_c, 2, 61, 70
4, 27840, Note_off_c, 2, 61, 64
4, 27840, Note_off_c, 2, 56, 64
4, 28224, Note_on_c, 2, 56, 70
4, 28224, Note_on_c, 2, 61, 70
4, 28416, Note_off_c, 2, 61, 64
4, 28416, Note_off_c, 2, 56, 64
4, 28800, Note_on_c, 2, 56, 70
4, 28800, Note_on_c, 2, 61, 70
4, 28992, Note_off_c, 2, 61, 64
4, 28992, Note_off_c, 2, 56, 64
4, 29376, Note_on_c, 2, 56, 70
4, 29376, Note_on_c, 2, 61, 70
4, 29568, Note_off_c, 2, 61, 64
4, 29568, Note_off_c, 2, 56, 64
4, 29952, Note_on_c, 2, 56, 70
4, 29952, Note_on_c, 2, 61, 70
4, 30144, Note_off_c, 2, 61, 64
4, 30144, Note_off_c, 2, 56, 64
4, 30336, Note_on_c, 2, 56, 70
4, 30336, Note_on_c, 2, 61, 70
4, 30528, Note_off_c, 2, 61, 64
4, 30528, Note_off_c, 2, 56, 64
4, 30720, Note_on_c, 2, 59, 70
4, 30720, Note_on_c, 2, 61, 70
4, 31488, Note_off_c, 2, 59, 64
4, 31488, Note_on_c, 2, 57, 70
4, 33024, Note_off_c, 2, 57, 64
4, 33024, Note_on_c, 2, 56, 70
4, 33792, Note_off_c, 2, 56, 64
4, 33792, Note_off_c, 2, 61, 64
4, 33792, Control_c, 2, 7, 100
4, 33792, Program_c, 2, 60
4, 33792, Note_on_c, 2, 59, 70
4, 33792, Note_on_c, 2, 54, 70
4, 33984, Note_off_c, 2, 54, 64
4, 33984, Note_off_c, 2, 59, 64
4, 34368, Note_on_c, 2, 59, 70
4, 34368, Note_on_c, 2, 54, 70
4, 34560, Note_off_c, 2, 54, 64
4, 34560, Note_off_c, 2, 59, 64
4, 34944, Note_on_c, 2, 59, 70
4, 34944, Note_on_c, 2, 54, 70
4, 35136, Note_off_c, 2, 54, 64
4, 35136, Note_off_c, 2, 59, 64
4, 35520, Note_on_c, 2, 59, 70
4, 35520, Note_on_c, 2, 54, 70
4, 35712, Note_off_c, 2, 54, 64
4, 35712, Note_off_c, 2, 59, 64
4, 36096, Note_on_c, 2, 59, 70
4, 36096, Note_on_c, 2, 54, 70
4, 36288, Note_off_c, 2, 54, 64
4, 36288, Note_off_c, 2, 59, 64
4, 36480, Note_on_c, 2, 59, 70
4, 36480, Note_on_c, 2, 54, 70
4, 36672, Note_off_c, 2, 54, 64
4, 36672, Note_off_c, 2, 59, 64
4, 36864, Note_on_c, 2, 59, 70
4, 36864, Note_on_c, 2, 57, 70
4, 37632, Note_off_c, 2, 57, 64
4, 37632, Note_on_c, 2, 56, 70
4, 39168, Note_off_c, 2, 56, 64
4, 39168, Note_on_c, 2, 54, 70
4, 39936, Note_off_c, 2, 54, 64
4, 39936, Note_off_c, 2, 59, 64
4, 39936, Control_c, 2, 7, 100
4, 39936, Program_c, 2, 60
4, 39936, Note_on_c, 2, 57, 70
4, 39936, Note_on_c, 2, 52, 70
4, 40128, Note_off_c, 2, 52, 64
4, 40128, Note_off_c, 2, 57, 64
4, 40512, Note_on_c, 2, 57, 70
4, 40512, Note_on_c, 2, 52, 70
4, 40704, Note_off_c, 2, 52, 64
4, 40704, Note_off_c, 2, 57, 64
4, 41088, Note_on_c, 2, 57, 70
4, 41088, Note_on_c, 2, 52, 70
4, 41280, Note_off_c, 2, 52, 64
4, 41280, Note_off_c, 2, 57, 64
4, 41664, Note_on_c, 2, 57, 70
4, 41664, Note_on_c, 2, 52, 70
4, 41856, Note_off_c, 2, 52, 64
4, 41856, Note_off_c, 2, 57, 64
4, 42240, Note_on_c, 2, 57, 70
4, 42240, Note_on_c, 2, 52, 70
4, 42432, Note_off_c, 2, 52, 64
4, 42432, Note_off_c, 2, 57, 64
4, 42624, Note_on_c, 2, 57, 70
4, 42624, Note_on_c, 2, 52, 70
4, 42816, Note_off_c, 2, 52, 64
4, 42816, Note_off_c, 2, 57, 64
4, 43008, Note_on_c, 2, 58, 70
4, 43008, Note_on_c, 2, 54, 70
4, 45312, Note_off_c, 2, 54, 64
4, 45312, Note_off_c, 2, 58, 64
4, 45312, Note_on_c, 2, 52, 70
4, 45312, Note_on_c, 2, 56, 70
4, 46080, Note_off_c, 2, 56, 64
4, 46080, Note_off_c, 2, 52, 64
4, 46080, Note_on_c, 2, 55, 70
4, 46080, Note_on_c, 2, 51, 70
4, 48000, Note_off_c, 2, 51, 64
4, 48000, Note_off_c, 2, 55, 64
4, 48384, Note_on_c, 2, 46, 70
4, 48384, Note_on_c, 2, 51, 70
4, 49152, Note_off_c, 2, 51, 64
4, 49152, Note_off_c, 2, 46, 64
4, 49152, Note_on_c, 2, 51, 70
4, 49152, Note_on_c, 2, 56, 70
4, 51840, Note_off_c, 2, 56, 64
4, 51840, Note_off_c, 2, 51, 64
4, 86016, Note_on_c, 2, 66, 110
4, 86592, Note_off_c, 2, 66, 64
4, 86592, Note_on_c, 2, 64, 110
4, 86976, Note_off_c, 2, 64, 64
4, 86976, Note_on_c, 2, 66, 110
4, 87168, Note_off_c, 2, 66, 64
4, 87168, Note_on_c, 2, 63, 110
4, 87744, Note_off_c, 2, 63, 64
4, 87744, Note_on_c, 2, 61, 110
4, 88128, Note_off_c, 2, 61, 64
4, 88128, Note_on_c, 2, 63, 110
4, 88320, Note_off_c, 2, 63, 64
4, 88320, Note_on_c, 2, 59, 110
4, 88704, Note_off_c, 2, 59, 64
4, 88704, Note_on_c, 2, 57, 110
4, 89088, Note_off_c, 2, 57, 64
4, 89088, Note_on_c, 2, 56, 110
4, 89856, Note_off_c, 2, 56, 64
4, 89856, Note_on_c, 2, 66, 110
4, 94848, Note_off_c, 2, 66, 64
4, 122880, Control_c, 2, 7, 100
4, 122880, Program_c, 2, 60
4, 122880, Note_on_c, 2, 56, 70
4, 122880, Note_on_c, 2, 61, 70
4, 123072, Note_off_c, 2, 61, 64
4, 123072, Note_off_c, 2, 56, 64
4, 123456, Note_on_c, 2, 56, 70
4, 123456, Note_on_c, 2, 61, 70
4, 123648, Note_off_c, 2, 61, 64
4, 123648, Note_off_c, 2, 56, 64
4, 124032, Note_on_c, 2, 56, 70
4, 124032, Note_on_c, 2, 61, 70
4, 124224, Note_off_c, 2, 61, 64
4, 124224, Note_off_c, 2, 56, 64
4, 124608, Note_on_c, 2, 56, 70
4, 124608, Note_on_c, 2, 61, 70
4, 124800, Note_off_c, 2, 61, 64
4, 124800, Note_off_c, 2, 56, 64
4, 125184, Note_on_c, 2, 56, 70
4, 125184, Note_on_c, 2, 61, 70
4, 125376, Note_off_c, 2, 61, 64
4, 125376, Note_off_c, 2, 56, 64
4, 125568, Note_on_c, 2, 56, 70
4, 125568, Note_on_c, 2, 61, 70
4, 125760, Note_off_c, 2, 61, 64
4, 125760, Note_off_c, 2, 56, 64
4, 125952, Note_on_c, 2, 59, 70
4, 125952, Note_on_c, 2, 61, 70
4, 126720, Note_off_c, 2, 59, 64
4, 126720, Note_on_c, 2, 57, 70
4, 128256, Note_off_c, 2, 57, 64
4, 128256, Note_on_c, 2, 56, 70
4, 129024, Note_off_c, 2, 56, 64
4, 129024, Note_off_c, 2, 61, 64
4, 129024, Control_c, 2, 7, 100
4, 129024, Program_c, 2, 60
4, 129024, Note_on_c, 2, 59, 70
4, 129024, Note_on_c, 2, 54, 70
4, 129216, Note_off_c, 2, 54, 64
4, 129216, Note_off_c, 2, 59, 64
4, 129600, Note_on_c, 2, 59, 70
4, 129600, Note_on_c, 2, 54, 70
4, 129792, Note_off_c, 2, 54, 64
4, 129792, Note_off_c, 2, 59, 64
4, 130176, Note_on_c, 2, 59, 70
4, 130176, Note_on_c, 2, 54, 70
4, 130368, Note_off_c, 2, 54, 64
4, 130368, Note_off_c, 2, 59, 64
4, 130752, Note_on_c, 2, 59, 70
4, 130752, Note_on_c, 2, 54, 70
4, 130944, Note_off_c, 2, 54, 64
4, 130944, Note_off_c, 2, 59, 64
4, 131328, Note_on_c, 2, 59, 70
4, 131328, Note_on_c, 2, 54, 70
4, 131520, Note_off_c, 2, 54, 64
4, 131520, Note_off_c, 2, 59, 64
4, 131712, Note_on_c, 2, 59, 70
4, 131712, Note_on_c, 2, 54, 70
4, 131904, Note_off_c, 2, 54, 64
4, 131904, Note_off_c, 2, 59, 64
4, 132096, Note_on_c, 2, 59, 70
4, 132096, Note_on_c, 2, 57, 70
4, 132864, Note_off_c, 2, 57, 64
4, 132864, Note_on_c, 2, 56, 70
4, 134400, Note_off_c, 2, 56, 64
4, 134400, Note_on_c, 2, 54, 70
4, 135168, Note_off_c, 2, 54, 64
4, 135168, Note_off_c, 2, 59, 64
4, 135168, Control_c, 2, 7, 100
4, 135168, Program_c, 2, 60
4, 135168, Note_on_c, 2, 57, 70
4, 135168, Note_on_c, 2, 52, 70
4, 135360, Note_off_c, 2, 52, 64
4, 135360, Note_off_c, 2, 57, 64
4, 135744, Note_on_c, 2, 57, 70
4, 135744, Note_on_c, 2, 52, 70
4, 135936, Note_off_c, 2, 52, 64
4, 135936, Note_off_c, 2, 57, 64
4, 136320, Note_on_c, 2, 57, 70
4, 136320, Note_on_c, 2, 52, 70
4, 136512, Note_off_c, 2, 52, 64
4, 136512, Note_off_c, 2, 57, 64
4, 136896, Note_on_c, 2, 57, 70
4, 136896, Note_on_c, 2, 52, 70
4, 137088, Note_off_c, 2, 52, 64
4, 137088, Note_off_c, 2, 57, 64
4, 137472, Note_on_c, 2, 57, 70
4, 137472, Note_on_c, 2, 52, 70
4, 137664, Note_off_c, 2, 52, 64
4, 137664, Note_off_c, 2, 57, 64
4, 137856, Note_on_c, 2, 57, 70
4, 137856, Note_on_c, 2, 52, 70
4, 138048, Note_off_c, 2, 52, 64
4, 138048, Note_off_c, 2, 57, 64
4, 138240, Note_on_c, 2, 58, 70
4, 138240, Note_on_c, 2, 54, 70
4, 140544, Note_off_c, 2, 54, 64
4, 140544, Note_off_c, 2, 58, 64
4, 140544, Note_on_c, 2, 52, 70
4, 140544, Note_on_c, 2, 56, 70
4, 141312, Note_off_c, 2, 56, 64
4, 141312, Note_off_c, 2, 52, 64
4, 141312, Note_on_c, 2, 55, 70
4, 141312, Note_on_c, 2, 51, 70
4, 143232, Note_off_c, 2, 51, 64
4, 143232, Note_off_c, 2, 55, 64
4, 143616, Note_on_c, 2, 46, 70
4, 143616, Note_on_c, 2, 51, 70
4, 144384, Note_off_c, 2, 51, 64
4, 144384, Note_off_c, 2, 46, 64
4, 144384, Note_on_c, 2, 51, 70
4, 144384, Note_on_c, 2, 56, 70
4, 147072, Note_off_c, 2, 56, 64
4, 147072, Note_off_c, 2, 51, 64
4, 181248, Note_on_c, 2, 66, 110
4, 181824, Note_off_c, 2, 66, 64
4, 181824, Note_on_c, 2, 64, 110
4, 182208, Note_off_c, 2, 64, 64
4, 182208, Note_on_c, 2, 66, 110
4, 182400, Note_off_c, 2, 66, 64
4, 182400, Note_on_c, 2, 63, 110
4, 182976, Note_off_c, 2, 63, 64
4, 182976, Note_on_c, 2, 61, 110
4, 183360, Note_off_c, 2, 61, 64
4, 183360, Note_on_c, 2, 63, 110
4, 183552, Note_off_c, 2, 63, 64
4, 183552, Note_on_c, 2, 59, 110
4, 183936, Note_off_c, 2, 59, 64
4, 183936, Note_on_c, 2, 57, 110
4, 184320, Note_off_c, 2, 57, 64
4, 184320, Note_on_c, 2, 56, 110
4, 185088, Note_off_c, 2, 56, 64
4, 185088, Note_on_c, 2, 66, 110
4, 190080, Note_off_c, 2, 66, 64
4, 218112, Control_c, 2, 7, 100
4, 218112, Program_c, 2, 60
4, 218112, Note_on_c, 2, 56, 70
4, 218112, Note_on_c, 2, 61, 70
4, 218304, Note_off_c, 2, 61, 64
4, 218304, Note_off_c, 2, 56, 64
4, 218688, Note_on_c, 2, 56, 70
4, 218688, Note_on_c, 2, 61, 70
4, 218880, Note_off_c, 2, 61, 64
4, 218880, Note_off_c, 2, 56, 64
4, 219264, Note_on_c, 2, 56, 70
4, 219264, Note_on_c, 2, 61, 70
4, 219456, Note_off_c, 2, 61, 64
4, 219456, Note_off_c, 2, 56, 64
4, 219840, Note_on_c, 2, 56, 70
4, 219840, Note_on_c, 2, 61, 70
4, 220032, Note_off_c, 2, 61, 64
4, 220032, Note_off_c, 2, 56, 64
4, 220416, Note_on_c, 2, 56, 70
4, 220416, Note_on_c, 2, 61, 70
4, 220608, Note_off_c, 2, 61, 64
4, 220608, Note_off_c, 2, 56, 64
4, 220800, Note_on_c, 2, 56, 70
4, 220800, Note_on_c, 2, 61, 70
4, 220992, Note_off_c, 2, 61, 64
4, 220992, Note_off_c, 2, 56, 64
4, 221184, Note_on_c, 2, 59, 70
4, 221184, Note_on_c, 2, 61, 70
4, 221952, Note_off_c, 2, 59, 64
4, 221952, Note_on_c, 2, 57, 70
4, 223488, Note_off_c, 2, 57, 64
4, 223488, Note_on_c, 2, 56, 70
4, 224256, Note_off_c, 2, 56, 64
4, 224256, Note_off_c, 2, 61, 64
4, 224256, Control_c, 2, 7, 100
4, 224256, Program_c, 2, 60
4, 224256, Control_c, 2, 7, 100
4, 224256, Note_on_c, 2, 59, 70
4, 224256, Note_on_c, 2, 54, 70
4, 224352, Control_c, 2, 7, 99
4, 224448, Note_off_c, 2, 54, 64
4, 224448, Note_off_c, 2, 59, 64
4, 224448, Control_c, 2, 7, 99
4, 224544, Control_c, 2, 7, 98
4, 224640, Control_c, 2, 7, 98
4, 224736, Control_c, 2, 7, 97
4, 224832, Control_c, 2, 7, 97
4, 224832, Note_on_c, 2, 59, 70
4, 224832, Note_on_c, 2, 54, 70
4, 224928, Control_c, 2, 7, 96
4, 225024, Note_off_c, 2, 54, 64
4, 225024, Note_off_c, 2, 59, 64
4, 225024, Control_c, 2, 7, 95
4, 225120, Control_c, 2, 7, 95
4, 225216, Control_c, 2, 7, 94
4, 225312, Control_c, 2, 7, 94
4, 225408, Control_c, 2, 7, 93
4, 225408, Note_on_c, 2, 59, 70
4, 225408, Note_on_c, 2, 54, 70
4, 225504, Control_c, 2, 7, 93
4, 225600, Note_off_c, 2, 54, 64
4, 225600, Note_off_c, 2, 59, 64
4, 225600, Control_c, 2, 7, 92
4, 225696, Control_c, 2, 7, 92
4, 225792, Control_c, 2, 7, 91
4, 225888, Control_c, 2, 7, 91
4, 225984, Control_c, 2, 7, 90
4, 225984, Note_on_c, 2, 59, 70
4, 225984, Note_on_c, 2, 54, 70
4, 226080, Control_c, 2, 7, 90
4, 226176, Note_off_c, 2, 54, 64
4, 226176, Note_off_c, 2, 59, 64
4, 226176, Control_c, 2, 7, 89
4, 226272, Control_c, 2, 7, 89
4, 226368, Control_c, 2, 7, 88
4, 226464, Control_c, 2, 7, 88
4, 226560, Control_c, 2, 7, 87
4, 226560, Note_on_c, 2, 59, 70
4, 226560, Note_on_c, 2, 54, 70
4, 226656, Control_c, 2, 7, 87
4, 226752, Note_off_c, 2, 54, 64
4, 226752, Note_off_c, 2, 59, 64
4, 226752, Control_c, 2, 7, 86
4, 226848, Control_c, 2, 7, 86
4, 226944, Control_c, 2, 7, 85
4, 226944, Note_on_c, 2, 59, 70
4, 226944, Note_on_c, 2, 54, 70
4, 227040, Control_c, 2, 7, 85
4, 227136, Note_off_c, 2, 54, 64
4, 227136, Note_off_c, 2, 59, 64
4, 227136, Control_c, 2, 7, 84
4, 227232, Control_c, 2, 7, 84
4, 227328, Control_c, 2, 7, 83
4, 227328, Note_on_c, 2, 59, 70
4, 227328, Note_on_c, 2, 57, 70
4, 227424, Control_c, 2, 7, 83
4, 227520, Control_c, 2, 7, 82
4, 227616, Control_c, 2, 7, 82
4, 227712, Control_c, 2, 7, 81
4, 227808, Control_c, 2, 7, 81
4, 227904, Control_c, 2, 7, 80
4, 228000, Control_c, 2, 7, 80
4, 228096, Note_off_c, 2, 57, 64
4, 228096, Control_c, 2, 7, 79
4, 228096, Note_on_c, 2, 56, 70
4, 228192, Control_c, 2, 7, 79
4, 228288, Control_c, 2, 7, 78
4, 228384, Control_c, 2, 7, 77
4, 228480, Control_c, 2, 7, 77
4, 228576, Control_c, 2, 7, 76
4, 228672, Control_c, 2, 7, 76
4, 228768, Control_c, 2, 7, 75
4, 228864, Control_c, 2, 7, 75
4, 228960, Control_c, 2, 7, 74
4, 229056, Control_c, 2, 7, 74
4, 229152, Control_c, 2, 7, 73
4, 229248, Control_c, 2, 7, 73
4, 229344, Control_c, 2, 7, 72
4, 229440, Control_c, 2, 7, 72
4, 229536, Control_c, 2, 7, 71
4, 229632, Note_off_c, 2, 56, 64
4, 229632, Control_c, 2, 7, 71
4, 229632, Note_on_c, 2, 54, 70
4, 229728, Control_c, 2, 7, 70
4, 229824, Control_c, 2, 7, 70
4, 229920, Control_c, 2, 7, 69
4, 230016, Control_c, 2, 7, 69
4, 230112, Control_c, 2, 7, 68
4, 230208, Control_c, 2, 7, 68
4, 230304, Control_c, 2, 7, 67
4, 230400, Note_off_c, 2, 54, 64
4, 230400, Note_off_c, 2, 59, 64
4, 230400, Control_c, 2, 7, 67
4, 230400, Note_on_c, 2, 57, 70
4, 230400, Note_on_c, 2, 52, 70
4, 230496, Control_c, 2, 7, 66
4, 230592, Note_off_c, 2, 52, 64
4, 230592, Note_off_c, 2, 57, 64
4, 230592, Control_c, 2, 7, 66
4, 230688, Control_c, 2, 7, 65
4, 230784, Control_c, 2, 7, 65
4, 230880, Control_c, 2, 7, 64
4, 230976, Control_c, 2, 7, 64
4, 230976, Note_on_c, 2, 57, 70
4, 230976, Note_on_c, 2, 52, 70
4, 231072, Control_c, 2, 7, 63
4, 231168, Note_off_c, 2, 52, 64
4, 231168, Note_off_c, 2, 57, 64
4, 231168, Control_c, 2, 7, 63
4, 231264, Control_c, 2, 7, 62
4, 231360, Control_c, 2, 7, 62
4, 231456, Control_c, 2, 7, 61
4, 231552, Control_c, 2, 7, 60
4, 231552, Note_on_c, 2, 57, 70
4, 231552, Note_on_c, 2, 52, 70
4, 231648, Control_c, 2, 7, 60
4, 231744, Note_off_c, 2, 52, 64
4, 231744, Note_off_c, 2, 57, 64
4, 231744, Control_c, 2, 7, 59
4, 231840, Control_c, 2, 7, 59
4, 231936, Control_c, 2, 7, 58
4, 232032, Control_c, 2, 7, 58
4, 232128, Control_c, 2, 7, 57
4, 232128, Note_on_c, 2, 57, 70
4, 232128, Note_on_c, 2, 52, 70
4, 232224, Control_c, 2, 7, 57
4, 232320, Note_off_c, 2, 52, 64
4, 232320, Note_off_c, 2, 57, 64
4, 232320, Control_c, 2, 7, 56
4, 232416, Control_c, 2, 7, 56
4, 232512, Control_c, 2, 7, 55
4, 232608, Control_c, 2, 7, 55
4, 232704, Control_c, 2, 7, 54
4, 232704, Note_on_c, 2, 57, 70
4, 232704, Note_on_c, 2, 52, 70
4, 232800, Control_c, 2, 7, 54
4, 232896, Note_off_c, 2, 52, 64
4, 232896, Note_off_c, 2, 57, 64
4, 232896, Control_c, 2, 7, 53
4, 232992, Control_c, 2, 7, 53
4, 233088, Control_c, 2, 7, 52
4, 233088, Note_on_c, 2, 57, 70
4, 233088, Note_on_c, 2, 52, 70
4, 233184, Control_c, 2, 7, 52
4, 233280, Note_off_c, 2, 52, 64
4, 233280, Note_off_c, 2, 57, 64
4, 233280, Control_c, 2, 7, 51
4, 233376, Control_c, 2, 7, 51
4, 233472, Control_c, 2, 7, 50
4, 233472, Note_on_c, 2, 58, 70
4, 233472, Note_on_c, 2, 54, 70
4, 233568, Control_c, 2, 7, 50
4, 233664, Control_c, 2, 7, 49
4, 233760, Control_c, 2, 7, 49
4, 233856, Control_c, 2, 7, 48
4, 233952, Control_c, 2, 7, 48
4, 234048, Control_c, 2, 7, 47
4, 234144, Control_c, 2, 7, 47
4, 234240, Control_c, 2, 7, 46
4, 234336, Control_c, 2, 7, 46
4, 234432, Control_c, 2, 7, 45
4, 234528, Control_c, 2, 7, 45
4, 234624, Control_c, 2, 7, 44
4, 234720, Control_c, 2, 7, 44
4, 234816, Control_c, 2, 7, 43
4, 234912, Control_c, 2, 7, 42
4, 235008, Control_c, 2, 7, 42
4, 235104, Control_c, 2, 7, 41
4, 235200, Control_c, 2, 7, 41
4, 235296, Control_c, 2, 7, 40
4, 235392, Control_c, 2, 7, 40
4, 235488, Control_c, 2, 7, 39
4, 235584, Control_c, 2, 7, 39
4, 235680, Control_c, 2, 7, 38
4, 235776, Note_off_c, 2, 54, 64
4, 235776, Note_off_c, 2, 58, 64
4, 235776, Control_c, 2, 7, 38
4, 235776, Note_on_c, 2, 52, 70
4, 235776, Note_on_c, 2, 56, 70
4, 235872, Control_c, 2, 7, 37
4, 235968, Control_c, 2, 7, 37
4, 236064, Control_c, 2, 7, 36
4, 236160, Control_c, 2, 7, 36
4, 236256, Control_c, 2, 7, 35
4, 236352, Control_c, 2, 7, 35
4, 236448, Control_c, 2, 7, 34
4, 236544, Note_off_c, 2, 56, 64
4, 236544, Note_off_c, 2, 52, 64
4, 236544, Control_c, 2, 7, 34
4, 236544, Note_on_c, 2, 55, 70
4, 236544, Note_on_c, 2, 51, 70
4, 236640, Control_c, 2, 7, 33
4, 236736, Control_c, 2, 7, 33
4, 236832, Control_c, 2, 7, 32
4, 236928, Control_c, 2, 7, 32
4, 237024, Control_c, 2, 7, 31
4, 237120, Control_c, 2, 7, 31
4, 237216, Control_c, 2, 7, 30
4, 237312, Control_c, 2, 7, 30
4, 237408, Control_c, 2, 7, 29
4, 237504, Control_c, 2, 7, 29
4, 237600, Control_c, 2, 7, 28
4, 237696, Control_c, 2, 7, 28
4, 237792, Control_c, 2, 7, 27
4, 237888, Control_c, 2, 7, 27
4, 237984, Control_c, 2, 7, 26
4, 238080, Control_c, 2, 7, 25
4, 238176, Control_c, 2, 7, 25
4, 238272, Control_c, 2, 7, 24
4, 238368, Control_c, 2, 7, 24
4, 238464, Note_off_c, 2, 51, 64
4, 238464, Note_off_c, 2, 55, 64
4, 238464, Control_c, 2, 7, 23
4, 238560, Control_c, 2, 7, 23
4, 238656, Control_c, 2, 7, 22
4, 238752, Control_c, 2, 7, 22
4, 238848, Control_c, 2, 7, 21
4, 238848, Note_on_c, 2, 46, 70
4, 238848, Note_on_c, 2, 51, 70
4, 238944, Control_c, 2, 7, 21
4, 239040, Control_c, 2, 7, 20
4, 239136, Control_c, 2, 7, 20
4, 239232, Control_c, 2, 7, 19
4, 239328, Control_c, 2, 7, 19
4, 239424, Control_c, 2, 7, 18
4, 239520, Control_c, 2, 7, 18
4, 239616, Note_off_c, 2, 51, 64
4, 239616, Note_off_c, 2, 46, 64
4, 239616, Control_c, 2, 7, 17
4, 239616, Note_on_c, 2, 51, 70
4, 239616, Note_on_c, 2, 56, 70
4, 239712, Control_c, 2, 7, 17
4, 239808, Control_c, 2, 7, 16
4, 239904, Control_c, 2, 7, 16
4, 240000, Control_c, 2, 7, 15
4, 240096, Control_c, 2, 7, 15
4, 240192, Control_c, 2, 7, 14
4, 240288, Control_c, 2, 7, 14
4, 240384, Control_c, 2, 7, 13
4, 240480, Control_c, 2, 7, 13
4, 240576, Control_c, 2, 7, 12
4, 240672, Control_c, 2, 7, 12
4, 240768, Control_c, 2, 7, 11
4, 240864, Control_c, 2, 7, 11
4, 240960, Control_c, 2, 7, 10
4, 241056, Control_c, 2, 7, 10
4, 241152, Control_c, 2, 7, 9
4, 241248, Control_c, 2, 7, 8
4, 241344, Control_c, 2, 7, 8
4, 241440, Control_c, 2, 7, 7
4, 241536, Control_c, 2, 7, 7
4, 241632, Control_c, 2, 7, 6
4, 241728, Control_c, 2, 7, 6
4, 241824, Control_c, 2, 7, 5
4, 241920, Control_c, 2, 7, 5
4, 242016, Control_c, 2, 7, 4
4, 242112, Control_c, 2, 7, 4
4, 242208, Control_c, 2, 7, 3
4, 242304, Note_off_c, 2, 56, 64
4, 242304, Note_off_c, 2, 51, 64
4, 242304, Control_c, 2, 7, 3
4, 242400, Control_c, 2, 7, 2
4, 242496, Control_c, 2, 7, 2
4, 242592, Control_c, 2, 7, 1
4, 242688, End_track
5, 0, Start_track
5, 0, Title_t, "Battle"
5, 0, Control_c, 3, 7, 100
5, 0, Program_c, 3, 32
5, 0, Control_c, 3, 10, 64
5, 0, Control_c, 3, 91, 43
5, 0, Note_on_c, 3, 37, 110
5, 192, Note_off_c, 3, 37, 64
5, 576, Note_on_c, 3, 37, 110
5, 768, Note_off_c, 3, 37, 64
5, 1152, Note_on_c, 3, 37, 110
5, 1344, Note_off_c, 3, 37, 64
5, 2304, Note_on_c, 3, 33, 110
5, 2496, Note_off_c, 3, 33, 64
5, 2880, Note_on_c, 3, 33, 110
5, 3072, Note_off_c, 3, 33, 64
5, 3456, Note_on_c, 3, 33, 110
5, 3648, Note_off_c, 3, 33, 64
5, 4608, Control_c, 3, 7, 100
5, 4608, Program_c, 3, 32
5, 4608, Note_on_c, 3, 42, 110
5, 4800, Note_off_c, 3, 42, 64
5, 5184, Note_on_c, 3, 42, 110
5, 5376, Note_off_c, 3, 42, 64
5, 5760, Note_on_c, 3, 42, 110
5, 5952, Note_off_c, 3, 42, 64
5, 6912, Note_on_c, 3, 38, 110
5, 7104, Note_off_c, 3, 38, 64
5, 7488, Note_on_c, 3, 38, 110
5, 7680, Note_off_c, 3, 38, 64
5, 8064, Note_on_c, 3, 38, 110
5, 8256, Note_off_c, 3, 38, 64
5, 9216, Control_c, 3, 7, 100
5, 9216, Program_c, 3, 32
5, 9216, Note_on_c, 3, 37, 110
5, 9600, Note_off_c, 3, 37, 64
5, 9600, Note_on_c, 3, 44, 110
5, 9792, Note_off_c, 3, 44, 64
5, 9792, Note_on_c, 3, 49, 110
5, 10176, Note_off_c, 3, 49, 64
5, 10176, Note_on_c, 3, 44, 110
5, 10368, Note_off_c, 3, 44, 64
5, 10368, Note_on_c, 3, 45, 110
5, 10752, Note_off_c, 3, 45, 64
5, 10752, Note_on_c, 3, 49, 110
5, 11136, Note_off_c, 3, 49, 64
5, 11136, Note_on_c, 3, 52, 110
5, 11520, Note_off_c, 3, 52, 64
5, 11520, Note_on_c, 3, 37, 110
5, 11904, Note_off_c, 3, 37, 64
5, 11904, Note_on_c, 3, 44, 110
5, 12096, Note_off_c, 3, 44, 64
5, 12096, Note_on_c, 3, 49, 110
5, 12480, Note_off_c, 3, 49, 64
5, 12480, Note_on_c, 3, 44, 110
5, 12672, Note_off_c, 3, 44, 64
5, 12672, Note_on_c, 3, 45, 110
5, 13056, Note_off_c, 3, 45, 64
5, 13056, Note_on_c, 3, 52, 110
5, 13440, Note_off_c, 3, 52, 64
5, 13440, Note_on_c, 3, 54, 110
5, 13824, Note_off_c, 3, 54, 64
5, 13824, Control_c, 3, 7, 100
5, 13824, Program_c, 3, 32
5, 13824, Note_on_c, 3, 37, 110
5, 14208, Note_off_c, 3, 37, 64
5, 14208, Note_on_c, 3, 44, 110
5, 14400, Note_off_c, 3, 44, 64
5, 14400, Note_on_c, 3, 49, 110
5, 14784, Note_off_c, 3, 49, 64
5, 14784, Note_on_c, 3, 44, 110
5, 14976, Note_off_c, 3, 44, 64
5, 14976, Note_on_c, 3, 45, 110
5, 15360, Note_off_c, 3, 45, 64
5, 15360, Note_on_c, 3, 49, 110
5, 15744, Note_off_c, 3, 49, 64
5, 15744, Note_on_c, 3, 52, 110
5, 16128, Note_off_c, 3, 52, 64
5, 16128, Note_on_c, 3, 37, 110
5, 16512, Note_off_c, 3, 37, 64
5, 16512, Note_on_c, 3, 44, 110
5, 16704, Note_off_c, 3, 44, 64
5, 16704, Note_on_c, 3, 49, 110
5, 17088, Note_off_c, 3, 49, 64
5, 17088, Note_on_c, 3, 44, 110
5, 17280, Note_off_c, 3, 44, 64
5, 17280, Note_on_c, 3, 45, 110
5, 17664, Note_off_c, 3, 45, 64
5, 17664, Note_on_c, 3, 52, 110
5, 18048, Note_off_c, 3, 52, 64
5, 18048, Note_on_c, 3, 54, 110
5, 18432, Note_off_c, 3, 54, 64
5, 18432, Program_c, 3, 32
5, 18432, Note_on_c, 3, 37, 110
5, 18624, Note_off_c, 3, 37, 64
5, 19008, Note_on_c, 3, 37, 110
5, 19200, Note_off_c, 3, 37, 64
5, 19584, Note_on_c, 3, 37, 110
5, 19776, Note_off_c, 3, 37, 64
5, 20736, Note_on_c, 3, 37, 110
5, 20928, Note_off_c, 3, 37, 64
5, 21312, Note_on_c, 3, 37, 110
5, 21504, Note_off_c, 3, 37, 64
5, 21888, Note_on_c, 3, 37, 110
5, 22080, Note_off_c, 3, 37, 64
5, 23040, Program_c, 3, 32
5, 23040, Note_on_c, 3, 37, 110
5, 23232, Note_off_c, 3, 37, 64
5, 23616, Note_on_c, 3, 37, 110
5, 23808, Note_off_c, 3, 37, 64
5, 24192, Note_on_c, 3, 37, 110
5, 24384, Note_off_c, 3, 37, 64
5, 25344, Note_on_c, 3, 38, 110
5, 25536, Note_off_c, 3, 38, 64
5, 25920, Note_on_c, 3, 38, 110
5, 26112, Note_off_c, 3, 38, 64
5, 26496, Note_on_c, 3, 38, 110
5, 26688, Note_off_c, 3, 38, 64
5, 27648, Program_c, 3, 32
5, 27648, Note_on_c, 3, 37, 110
5, 27840, Note_off_c, 3, 37, 64
5, 28224, Note_on_c, 3, 37, 110
5, 28416, Note_off_c, 3, 37, 64
5, 28800, Note_on_c, 3, 37, 110
5, 28992, Note_off_c, 3, 37, 64
5, 29376, Note_on_c, 3, 37, 110
5, 29568, Note_off_c, 3, 37, 64
5, 29952, Note_on_c, 3, 37, 110
5, 30144, Note_off_c, 3, 37, 64
5, 30144, Note_on_c, 3, 39, 110
5, 30336, Note_off_c, 3, 39, 64
5, 30336, Note_on_c, 3, 40, 110
5, 30528, Note_off_c, 3, 40, 64
5, 30720, Note_on_c, 3, 37, 110
5, 30912, Note_off_c, 3, 37, 64
5, 31296, Note_on_c, 3, 37, 110
5, 31488, Note_off_c, 3, 37, 64
5, 31872, Note_on_c, 3, 37, 110
5, 32064, Note_off_c, 3, 37, 64
5, 32448, Note_on_c, 3, 37, 110
5, 32640, Note_off_c, 3, 37, 64
5, 33024, Note_on_c, 3, 37, 110
5, 33216, Note_off_c, 3, 37, 64
5, 33216, Note_on_c, 3, 39, 110
5, 33408, Note_off_c, 3, 39, 64
5, 33408, Note_on_c, 3, 40, 110
5, 33600, Note_off_c, 3, 40, 64
5, 33792, Program_c, 3, 32
5, 33792, Note_on_c, 3, 35, 110
5, 33984, Note_off_c, 3, 35, 64
5, 34368, Note_on_c, 3, 35, 110
5, 34560, Note_off_c, 3, 35, 64
5, 34944, Note_on_c, 3, 35, 110
5, 35136, Note_off_c, 3, 35, 64
5, 35520, Note_on_c, 3, 35, 110
5, 35712, Note_off_c, 3, 35, 64
5, 36096, Note_on_c, 3, 35, 110
5, 36288, Note_off_c, 3, 35, 64
5, 36288, Note_on_c, 3, 37, 110
5, 36480, Note_off_c, 3, 37, 64
5, 36480, Note_on_c, 3, 39, 110
5, 36672, Note_off_c, 3, 39, 64
5, 36864, Note_on_c, 3, 40, 110
5, 37056, Note_off_c, 3, 40, 64
5, 37440, Note_on_c, 3, 40, 110
5, 37632, Note_off_c, 3, 40, 64
5, 38016, Note_on_c, 3, 40, 110
5, 38208, Note_off_c, 3, 40, 64
5, 38592, Note_on_c, 3, 40, 110
5, 38784, Note_off_c, 3, 40, 64
5, 39168, Note_on_c, 3, 40, 110
5, 39552, Note_off_c, 3, 40, 64
5, 39552, Note_on_c, 3, 39, 110
5, 39936, Note_off_c, 3, 39, 64
5, 39936, Program_c, 3, 32
5, 39936, Note_on_c, 3, 33, 110
5, 40128, Note_off_c, 3, 33, 64
5, 40512, Note_on_c, 3, 33, 110
5, 40704, Note_off_c, 3, 33, 64
5, 41088, Note_on_c, 3, 33, 110
5, 41280, Note_off_c, 3, 33, 64
5, 41664, Note_on_c, 3, 33, 110
5, 41856, Note_off_c, 3, 33, 64
5, 42240, Note_on_c, 3, 33, 110
5, 42432, Note_off_c, 3, 33, 64
5, 42432, Note_on_c, 3, 35, 110
5, 42624, Note_off_c, 3, 35, 64
5, 42624, Note_on_c, 3, 37, 110
5, 43008, Note_off_c, 3, 37, 64
5, 43008, Note_on_c, 3, 42, 110
5, 43200, Note_off_c, 3, 42, 64
5, 43584, Note_on_c, 3, 42, 110
5, 43776, Note_off_c, 3, 42, 64
5, 44160, Note_on_c, 3, 42, 110
5, 44352, Note_off_c, 3, 42, 64
5, 44736, Note_on_c, 3, 42, 110
5, 44928, Note_off_c, 3, 42, 64
5, 45312, Note_on_c, 3, 42, 110
5, 45696, Note_off_c, 3, 42, 64
5, 45696, Note_on_c, 3, 40, 110
5, 46080, Note_off_c, 3, 40, 64
5, 46080, Program_c, 3, 32
5, 46080, Note_on_c, 3, 39, 110
5, 46272, Note_off_c, 3, 39, 64
5, 46656, Note_on_c, 3, 39, 110
5, 46848, Note_off_c, 3, 39, 64
5, 47232, Note_on_c, 3, 39, 110
5, 47424, Note_off_c, 3, 39, 64
5, 47808, Note_on_c, 3, 39, 110
5, 48000, Note_off_c, 3, 39, 64
5, 48384, Note_on_c, 3, 39, 110
5, 48576, Note_off_c, 3, 39, 64
5, 48576, Note_on_c, 3, 41, 110
5, 48768, Note_off_c, 3, 41, 64
5, 48768, Note_on_c, 3, 44, 110
5, 48960, Note_off_c, 3, 44, 64
5, 48960, Note_on_c, 3, 39, 110
5, 49152, Note_off_c, 3, 39, 64
5, 49152, Note_on_c, 3, 36, 110
5, 49344, Note_off_c, 3, 36, 64
5, 49728, Note_on_c, 3, 36, 110
5, 49920, Note_off_c, 3, 36, 64
5, 50304, Note_on_c, 3, 36, 110
5, 50496, Note_off_c, 3, 36, 64
5, 50688, Note_on_c, 3, 32, 110
5, 50880, Note_off_c, 3, 32, 64
5, 51264, Note_on_c, 3, 32, 110
5, 51456, Note_off_c, 3, 32, 64
5, 51840, Note_on_c, 3, 32, 110
5, 52032, Note_off_c, 3, 32, 64
5, 52224, Control_c, 3, 7, 100
5, 52224, Program_c, 3, 32
5, 52224, Note_on_c, 3, 49, 110
5, 52800, Note_off_c, 3, 49, 64
5, 52800, Note_on_c, 3, 40, 110
5, 52992, Note_off_c, 3, 40, 64
5, 53184, Note_on_c, 3, 47, 110
5, 53376, Note_off_c, 3, 47, 64
5, 53376, Note_on_c, 3, 49, 110
5, 53952, Note_off_c, 3, 49, 64
5, 53952, Note_on_c, 3, 44, 110
5, 54336, Note_off_c, 3, 44, 64
5, 54336, Note_on_c, 3, 47, 110
5, 54528, Note_off_c, 3, 47, 64
5, 54528, Note_on_c, 3, 49, 110
5, 54912, Note_off_c, 3, 49, 64
5, 54912, Note_on_c, 3, 47, 110
5, 55296, Note_off_c, 3, 47, 64
5, 55296, Note_on_c, 3, 45, 110
5, 55872, Note_off_c, 3, 45, 64
5, 55872, Note_on_c, 3, 33, 110
5, 56448, Note_off_c, 3, 33, 64
5, 56448, Note_on_c, 3, 35, 110
5, 57024, Note_off_c, 3, 35, 64
5, 57024, Note_on_c, 3, 37, 110
5, 57600, Note_off_c, 3, 37, 64
5, 57600, Note_on_c, 3, 39, 110
5, 57984, Note_off_c, 3, 39, 64
5, 57984, Note_on_c, 3, 40, 110
5, 58368, Note_off_c, 3, 40, 64
5, 58368, Control_c, 3, 7, 100
5, 58368, Program_c, 3, 32
5, 58368, Note_on_c, 3, 35, 110
5, 58944, Note_off_c, 3, 35, 64
5, 58944, Note_on_c, 3, 40, 110
5, 59136, Note_off_c, 3, 40, 64
5, 59328, Note_on_c, 3, 42, 110
5, 59520, Note_off_c, 3, 42, 64
5, 59520, Note_on_c, 3, 47, 110
5, 60096, Note_off_c, 3, 47, 64
5, 60096, Note_on_c, 3, 40, 110
5, 60480, Note_off_c, 3, 40, 64
5, 60480, Note_on_c, 3, 42, 110
5, 60672, Note_off_c, 3, 42, 64
5, 60672, Note_on_c, 3, 47, 110
5, 61056, Note_off_c, 3, 47, 64
5, 61056, Note_on_c, 3, 45, 110
5, 61440, Note_off_c, 3, 45, 64
5, 61440, Note_on_c, 3, 40, 110
5, 62016, Note_off_c, 3, 40, 64
5, 62016, Note_on_c, 3, 52, 110
5, 62592, Note_off_c, 3, 52, 64
5, 62592, Note_on_c, 3, 51, 110
5, 62976, Note_off_c, 3, 51, 64
5, 62976, Note_on_c, 3, 49, 110
5, 63360, Note_off_c, 3, 49, 64
5, 63360, Note_on_c, 3, 47, 110
5, 63744, Note_off_c, 3, 47, 64
5, 63744, Note_on_c, 3, 45, 110
5, 64128, Note_off_c, 3, 45, 64
5, 64128, Note_on_c, 3, 44, 110
5, 64512, Note_off_c, 3, 44, 64
5, 64512, Control_c, 3, 7, 100
5, 64512, Program_c, 3, 32
5, 64512, Note_on_c, 3, 45, 110
5, 65088, Note_off_c, 3, 45, 64
5, 65088, Note_on_c, 3, 37, 110
5, 65280, Note_off_c, 3, 37, 64
5, 65472, Note_on_c, 3, 40, 110
5, 65664, Note_off_c, 3, 40, 64
5, 65664, Note_on_c, 3, 45, 110
5, 66240, Note_off_c, 3, 45, 64
5, 66240, Note_on_c, 3, 37, 110
5, 66624, Note_off_c, 3, 37, 64
5, 66624, Note_on_c, 3, 40, 110
5, 66816, Note_off_c, 3, 40, 64
5, 66816, Note_on_c, 3, 45, 110
5, 67200, Note_off_c, 3, 45, 64
5, 67200, Note_on_c, 3, 44, 110
5, 67584, Note_off_c, 3, 44, 64
5, 67584, Note_on_c, 3, 43, 110
5, 68160, Note_off_c, 3, 43, 64
5, 68160, Note_on_c, 3, 37, 110
5, 68736, Note_off_c, 3, 37, 64
5, 68736, Note_on_c, 3, 39, 110
5, 69312, Note_off_c, 3, 39, 64
5, 69312, Note_on_c, 3, 34, 110
5, 69888, Note_off_c, 3, 34, 64
5, 69888, Note_on_c, 3, 31, 110
5, 70272, Note_off_c, 3, 31, 64
5, 70272, Note_on_c, 3, 27, 110
5, 70656, Note_off_c, 3, 27, 64
5, 70656, Control_c, 3, 7, 100
5, 70656, Program_c, 3, 32
5, 70656, Note_on_c, 3, 40, 110
5, 71232, Note_off_c, 3, 40, 64
5, 71232, Note_on_c, 3, 42, 110
5, 71808, Note_off_c, 3, 42, 64
5, 71808, Note_on_c, 3, 43, 110
5, 72384, Note_off_c, 3, 43, 64
5, 72384, Note_on_c, 3, 44, 110
5, 72960, Note_off_c, 3, 44, 64
5, 72960, Note_on_c, 3, 46, 110
5, 73344, Note_off_c, 3, 46, 64
5, 73344, Note_on_c, 3, 43, 110
5, 73728, Note_off_c, 3, 43, 64
5, 73728, Note_on_c, 3, 44, 110
5, 74304, Note_off_c, 3, 44, 64
5, 74304, Note_on_c, 3, 46, 110
5, 74880, Note_off_c, 3, 46, 64
5, 74880, Note_on_c, 3, 48, 110
5, 75456, Note_off_c, 3, 48, 64
5, 75456, Note_on_c, 3, 49, 110
5, 76032, Note_off_c, 3, 49, 64
5, 76032, Note_on_c, 3, 51, 110
5, 76416, Note_off_c, 3, 51, 64
5, 76416, Note_on_c, 3, 44, 110
5, 76800, Note_off_c, 3, 44, 64
5, 76800, Control_c, 3, 7, 100
5, 76800, Program_c, 3, 32
5, 76800, Note_on_c, 3, 37, 110
5, 79104, Note_off_c, 3, 37, 64
5, 79104, Note_on_c, 3, 49, 110
5, 79488, Note_off_c, 3, 49, 64
5, 79488, Note_on_c, 3, 47, 110
5, 79872, Note_off_c, 3, 47, 64
5, 79872, Note_on_c, 3, 45, 110
5, 80448, Note_off_c, 3, 45, 64
5, 80448, Note_on_c, 3, 40, 110
5, 81024, Note_off_c, 3, 40, 64
5, 81024, Note_on_c, 3, 49, 110
5, 81600, Note_off_c, 3, 49, 64
5, 81600, Note_on_c, 3, 41, 110
5, 82176, Note_off_c, 3, 41, 64
5, 82176, Note_on_c, 3, 45, 110
5, 82560, Note_off_c, 3, 45, 64
5, 82560, Note_on_c, 3, 49, 110
5, 82944, Note_off_c, 3, 49, 64
5, 82944, Note_on_c, 3, 45, 110
5, 83520, Note_off_c, 3, 45, 64
5, 83520, Note_on_c, 3, 42, 110
5, 84096, Note_off_c, 3, 42, 64
5, 84096, Note_on_c, 3, 49, 110
5, 84672, Note_off_c, 3, 49, 64
5, 84672, Note_on_c, 3, 41, 110
5, 85248, Note_off_c, 3, 41, 64
5, 85248, Note_on_c, 3, 45, 110
5, 85632, Note_off_c, 3, 45, 64
5, 85632, Note_on_c, 3, 49, 110
5, 86016, Note_off_c, 3, 49, 64
5, 86016, Control_c, 3, 7, 100
5, 86016, Program_c, 3, 32
5, 86016, Note_on_c, 3, 35, 110
5, 88320, Note_off_c, 3, 35, 64
5, 88320, Note_on_c, 3, 47, 110
5, 88704, Note_off_c, 3, 47, 64
5, 88704, Note_on_c, 3, 45, 110
5, 89088, Note_off_c, 3, 45, 64
5, 89088, Note_on_c, 3, 44, 110
5, 89664, Note_off_c, 3, 44, 64
5, 89664, Note_on_c, 3, 40, 110
5, 90240, Note_off_c, 3, 40, 64
5, 90240, Note_on_c, 3, 47, 110
5, 90816, Note_off_c, 3, 47, 64
5, 90816, Note_on_c, 3, 40, 110
5, 91392, Note_off_c, 3, 40, 64
5, 91392, Note_on_c, 3, 44, 110
5, 91776, Note_off_c, 3, 44, 64
5, 91776, Note_on_c, 3, 49, 110
5, 92160, Note_off_c, 3, 49, 64
5, 92160, Note_on_c, 3, 52, 110
5, 92736, Note_off_c, 3, 52, 64
5, 92736, Note_on_c, 3, 40, 110
5, 93312, Note_off_c, 3, 40, 64
5, 93312, Note_on_c, 3, 44, 110
5, 93888, Note_off_c, 3, 44, 64
5, 93888, Note_on_c, 3, 47, 110
5, 94464, Note_off_c, 3, 47, 64
5, 94464, Note_on_c, 3, 40, 110
5, 94848, Note_off_c, 3, 40, 64
5, 94848, Note_on_c, 3, 47, 110
5, 95232, Note_off_c, 3, 47, 64
5, 95232, Control_c, 3, 7, 100
5, 95232, Program_c, 3, 32
5, 95232, Note_on_c, 3, 45, 110
5, 95808, Note_off_c, 3, 45, 64
5, 95808, Note_on_c, 3, 39, 110
5, 96000, Note_off_c, 3, 39, 64
5, 96192, Note_on_c, 3, 40, 110
5, 96384, Note_off_c, 3, 40, 64
5, 96384, Note_on_c, 3, 45, 110
5, 96960, Note_off_c, 3, 45, 64
5, 96960, Note_on_c, 3, 37, 110
5, 97344, Note_off_c, 3, 37, 64
5, 97344, Note_on_c, 3, 40, 110
5, 97536, Note_off_c, 3, 40, 64
5, 97536, Note_on_c, 3, 45, 110
5, 97920, Note_off_c, 3, 45, 64
5, 97920, Note_on_c, 3, 42, 110
5, 98304, Note_off_c, 3, 42, 64
5, 98304, Note_on_c, 3, 47, 110
5, 98880, Note_off_c, 3, 47, 64
5, 98880, Note_on_c, 3, 40, 110
5, 99072, Note_off_c, 3, 40, 64
5, 99264, Note_on_c, 3, 42, 110
5, 99456, Note_off_c, 3, 42, 64
5, 99456, Note_on_c, 3, 47, 110
5, 100032, Note_off_c, 3, 47, 64
5, 100032, Note_on_c, 3, 39, 110
5, 100416, Note_off_c, 3, 39, 64
5, 100416, Note_on_c, 3, 42, 110
5, 100608, Note_off_c, 3, 42, 64
5, 100608, Note_on_c, 3, 47, 110
5, 100992, Note_off_c, 3, 47, 64
5, 100992, Note_on_c, 3, 51, 110
5, 101376, Note_off_c, 3, 51, 64
5, 101376, Note_on_c, 3, 49, 110
5, 103680, Note_off_c, 3, 49, 64
5, 103680, Note_on_c, 3, 47, 110
5, 104448, Note_off_c, 3, 47, 64
5, 104448, Note_on_c, 3, 45, 110
5, 106752, Note_off_c, 3, 45, 64
5, 106752, Note_on_c, 3, 44, 110
5, 107520, Note_off_c, 3, 44, 64
5, 107520, Note_on_c, 3, 42, 110
5, 109824, Note_off_c, 3, 42, 64
5, 109824, Note_on_c, 3, 40, 110
5, 110592, Note_off_c, 3, 40, 64
5, 110592, Note_on_c, 3, 38, 110
5, 113664, Note_off_c, 3, 38, 64
5, 113664, Control_c, 3, 7, 100
5, 113664, Program_c, 3, 32
5, 113664, Note_on_c, 3, 37, 110
5, 113856, Note_off_c, 3, 37, 64
5, 114240, Note_on_c, 3, 37, 110
5, 114432, Note_off_c, 3, 37, 64
5, 114816, Note_on_c, 3, 37, 110
5, 115008, Note_off_c, 3, 37, 64
5, 115968, Note_on_c, 3, 37, 110
5, 116160, Note_off_c, 3, 37, 64
5, 116544, Note_on_c, 3, 37, 110
5, 116736, Note_off_c, 3, 37, 64
5, 117120, Note_on_c, 3, 37, 110
5, 117312, Note_off_c, 3, 37, 64
5, 118272, Control_c, 3, 7, 100
5, 118272, Program_c, 3, 32
5, 118272, Note_on_c, 3, 37, 110
5, 118464, Note_off_c, 3, 37, 64
5, 118848, Note_on_c, 3, 37, 110
5, 119040, Note_off_c, 3, 37, 64
5, 119424, Note_on_c, 3, 37, 110
5, 119616, Note_off_c, 3, 37, 64
5, 120576, Note_on_c, 3, 38, 110
5, 120768, Note_off_c, 3, 38, 64
5, 121152, Note_on_c, 3, 38, 110
5, 121344, Note_off_c, 3, 38, 64
5, 121728, Note_on_c, 3, 38, 110
5, 121920, Note_off_c, 3, 38, 64
5, 122880, Program_c, 3, 32
5, 122880, Note_on_c, 3, 37, 110
5, 123072, Note_off_c, 3, 37, 64
5, 123456, Note_on_c, 3, 37, 110
5, 123648, Note_off_c, 3, 37, 64
5, 124032, Note_on_c, 3, 37, 110
5, 124224, Note_off_c, 3, 37, 64
5, 124608, Note_on_c, 3, 37, 110
5, 124800, Note_off_c, 3, 37, 64
5, 125184, Note_on_c, 3, 37, 110
5, 125376, Note_off_c, 3, 37, 64
5, 125376, Note_on_c, 3, 39, 110
5, 125568, Note_off_c, 3, 39, 64
5, 125568, Note_on_c, 3, 40, 110
5, 125760, Note_off_c, 3, 40, 64
5, 125952, Note_on_c, 3, 37, 110
5, 126144, Note_off_c, 3, 37, 64
5, 126528, Note_on_c, 3, 37, 110
5, 126720, Note_off_c, 3, 37, 64
5, 127104, Note_on_c, 3, 37, 110
5, 127296, Note_off_c, 3, 37, 64
5, 127680, Note_on_c, 3, 37, 110
5, 127872, Note_off_c, 3, 37, 64
5, 128256, Note_on_c, 3, 37, 110
5, 128448, Note_off_c, 3, 37, 64
5, 128448, Note_on_c, 3, 39, 110
5, 128640, Note_off_c, 3, 39, 64
5, 128640, Note_on_c, 3, 40, 110
5, 128832, Note_off_c, 3, 40, 64
5, 129024, Program_c, 3, 32
5, 129024, Note_on_c, 3, 35, 110
5, 129216, Note_off_c, 3, 35, 64
5, 129600, Note_on_c, 3, 35, 110
5, 129792, Note_off_c, 3, 35, 64
5, 130176, Note_on_c, 3, 35, 110
5, 130368, Note_off_c, 3, 35, 64
5, 130752, Note_on_c, 3, 35, 110
5, 130944, Note_off_c, 3, 35, 64
5, 131328, Note_on_c, 3, 35, 110
5, 131520, Note_off_c, 3, 35, 64
5, 131520, Note_on_c, 3, 37, 110
5, 131712, Note_off_c, 3, 37, 64
5, 131712, Note_on_c, 3, 39, 110
5, 131904, Note_off_c, 3, 39, 64
5, 132096, Note_on_c, 3, 40, 110
5, 132288, Note_off_c, 3, 40, 64
5, 132672, Note_on_c, 3, 40, 110
5, 132864, Note_off_c, 3, 40, 64
5, 133248, Note_on_c, 3, 40, 110
5, 133440, Note_off_c, 3, 40, 64
5, 133824, Note_on_c, 3, 40, 110
5, 134016, Note_off_c, 3, 40, 64
5, 134400, Note_on_c, 3, 40, 110
5, 134784, Note_off_c, 3, 40, 64
5, 134784, Note_on_c, 3, 39, 110
5, 135168, Note_off_c, 3, 39, 64
5, 135168, Program_c, 3, 32
5, 135168, Note_on_c, 3, 33, 110
5, 135360, Note_off_c, 3, 33, 64
5, 135744, Note_on_c, 3, 33, 110
5, 135936, Note_off_c, 3, 33, 64
5, 136320, Note_on_c, 3, 33, 110
5, 136512, Note_off_c, 3, 33, 64
5, 136896, Note_on_c, 3, 33, 110
5, 137088, Note_off_c, 3, 33, 64
5, 137472, Note_on_c, 3, 33, 110
5, 137664, Note_off_c, 3, 33, 64
5, 137664, Note_on_c, 3, 35, 110
5, 137856, Note_off_c, 3, 35, 64
5, 137856, Note_on_c, 3, 37, 110
5, 138240, Note_off_c, 3, 37, 64
5, 138240, Note_on_c, 3, 42, 110
5, 138432, Note_off_c, 3, 42, 64
5, 138816, Note_on_c, 3, 42, 110
5, 139008, Note_off_c, 3, 42, 64
5, 139392, Note_on_c, 3, 42, 110
5, 139584, Note_off_c, 3, 42, 64
5, 139968, Note_on_c, 3, 42, 110
5, 140160, Note_off_c, 3, 42, 64
5, 140544, Note_on_c, 3, 42, 110
5, 140928, Note_off_c, 3, 42, 64
5, 140928, Note_on_c, 3, 40, 110
5, 141312, Note_off_c, 3, 40, 64
5, 141312, Program_c, 3, 32
5, 141312, Note_on_c, 3, 39, 110
5, 141504, Note_off_c, 3, 39, 64
5, 141888, Note_on_c, 3, 39, 110
5, 142080, Note_off_c, 3, 39, 64
5, 142464, Note_on_c, 3, 39, 110
5, 142656, Note_off_c, 3, 39, 64
5, 143040, Note_on_c, 3, 39, 110
5, 143232, Note_off_c, 3, 39, 64
5, 143616, Note_on_c, 3, 39, 110
5, 143808, Note_off_c, 3, 39, 64
5, 143808, Note_on_c, 3, 41, 110
5, 144000, Note_off_c, 3, 41, 64
5, 144000, Note_on_c, 3, 44, 110
5, 144192, Note_off_c, 3, 44, 64
5, 144192, Note_on_c, 3, 39, 110
5, 144384, Note_off_c, 3, 39, 64
5, 144384, Note_on_c, 3, 36, 110
5, 144576, Note_off_c, 3, 36, 64
5, 144960, Note_on_c, 3, 36, 110
5, 145152, Note_off_c, 3, 36, 64
5, 145536, Note_on_c, 3, 36, 110
5, 145728, Note_off_c, 3, 36, 64
5, 145920, Note_on_c, 3, 32, 110
5, 146112, Note_off_c, 3, 32, 64
5, 146496, Note_on_c, 3, 32, 110
5, 146688, Note_off_c, 3, 32, 64
5, 147072, Note_on_c, 3, 32, 110
5, 147264, Note_off_c, 3, 32, 64
5, 147456, Control_c, 3, 7, 100
5, 147456, Program_c, 3, 32
5, 147456, Note_on_c, 3, 49, 110
5, 148032, Note_off_c, 3, 49, 64
5, 148032, Note_on_c, 3, 40, 110
5, 148224, Note_off_c, 3, 40, 64
5, 148416, Note_on_c, 3, 47, 110
5, 148608, Note_off_c, 3, 47, 64
5, 148608, Note_on_c, 3, 49, 110
5, 149184, Note_off_c, 3, 49, 64
5, 149184, Note_on_c, 3, 44, 110
5, 149568, Note_off_c, 3, 44, 64
5, 149568, Note_on_c, 3, 47, 110
5, 149760, Note_off_c, 3, 47, 64
5, 149760, Note_on_c, 3, 49, 110
5, 150144, Note_off_c, 3, 49, 64
5, 150144, Note_on_c, 3, 47, 110
5, 150528, Note_off_c, 3, 47, 64
5, 150528, Note_on_c, 3, 45, 110
5, 151104, Note_off_c, 3, 45, 64
5, 151104, Note_on_c, 3, 33, 110
5, 151680, Note_off_c, 3, 33, 64
5, 151680, Note_on_c, 3, 35, 110
5, 152256, Note_off_c, 3, 35, 64
5, 152256, Note_on_c, 3, 37, 110
5, 152832, Note_off_c, 3, 37, 64
5, 152832, Note_on_c, 3, 39, 110
5, 153216, Note_off_c, 3, 39, 64
5, 153216, Note_on_c, 3, 40, 110
5, 153600, Note_off_c, 3, 40, 64
5, 153600, Control_c, 3, 7, 100
5, 153600, Program_c, 3, 32
5, 153600, Note_on_c, 3, 35, 110
5, 154176, Note_off_c, 3, 35, 64
5, 154176, Note_on_c, 3, 40, 110
5, 154368, Note_off_c, 3, 40, 64
5, 154560, Note_on_c, 3, 42, 110
5, 154752, Note_off_c, 3, 42, 64
5, 154752, Note_on_c, 3, 47, 110
5, 155328, Note_off_c, 3, 47, 64
5, 155328, Note_on_c, 3, 40, 110
5, 155712, Note_off_c, 3, 40, 64
5, 155712, Note_on_c, 3, 42, 110
5, 155904, Note_off_c, 3, 42, 64
5, 155904, Note_on_c, 3, 47, 110
5, 156288, Note_off_c, 3, 47, 64
5, 156288, Note_on_c, 3, 45, 110
5, 156672, Note_off_c, 3, 45, 64
5, 156672, Note_on_c, 3, 40, 110
5, 157248, Note_off_c, 3, 40, 64
5, 157248, Note_on_c, 3, 52, 110
5, 157824, Note_off_c, 3, 52, 64
5, 157824, Note_on_c, 3, 51, 110
5, 158208, Note_off_c, 3, 51, 64
5, 158208, Note_on_c, 3, 49, 110
5, 158592, Note_off_c, 3, 49, 64
5, 158592, Note_on_c, 3, 47, 110
5, 158976, Note_off_c, 3, 47, 64
5, 158976, Note_on_c, 3, 45, 110
5, 159360, Note_off_c, 3, 45, 64
5, 159360, Note_on_c, 3, 44, 110
5, 159744, Note_off_c, 3, 44, 64
5, 159744, Control_c, 3, 7, 100
5, 159744, Program_c, 3, 32
5, 159744, Note_on_c, 3, 45, 110
5, 160320, Note_off_c, 3, 45, 64
5, 160320, Note_on_c, 3, 37, 110
5, 160512, Note_off_c, 3, 37, 64
5, 160704, Note_on_c, 3, 40, 110
5, 160896, Note_off_c, 3, 40, 64
5, 160896, Note_on_c, 3, 45, 110
5, 161472, Note_off_c, 3, 45, 64
5, 161472, Note_on_c, 3, 37, 110
5, 161856, Note_off_c, 3, 37, 64
5, 161856, Note_on_c, 3, 40, 110
5, 162048, Note_off_c, 3, 40, 64
5, 162048, Note_on_c, 3, 45, 110
5, 162432, Note_off_c, 3, 45, 64
5, 162432, Note_on_c, 3, 44, 110
5, 162816, Note_off_c, 3, 44, 64
5, 162816, Note_on_c, 3, 43, 110
5, 163392, Note_off_c, 3, 43, 64
5, 163392, Note_on_c, 3, 37, 110
5, 163968, Note_off_c, 3, 37, 64
5, 163968, Note_on_c, 3, 39, 110
5, 164544, Note_off_c, 3, 39, 64
5, 164544, Note_on_c, 3, 34, 110
5, 165120, Note_off_c, 3, 34, 64
5, 165120, Note_on_c, 3, 31, 110
5, 165504, Note_off_c, 3, 31, 64
5, 165504, Note_on_c, 3, 27, 110
5, 165888, Note_off_c, 3, 27, 64
5, 165888, Control_c, 3, 7, 100
5, 165888, Program_c, 3, 32
5, 165888, Note_on_c, 3, 40, 110
5, 166464, Note_off_c, 3, 40, 64
5, 166464, Note_on_c, 3, 42, 110
5, 167040, Note_off_c, 3, 42, 64
5, 167040, Note_on_c, 3, 43, 110
5, 167616, Note_off_c, 3, 43, 64
5, 167616, Note_on_c, 3, 44, 110
5, 168192, Note_off_c, 3, 44, 64
5, 168192, Note_on_c, 3, 46, 110
5, 168576, Note_off_c, 3, 46, 64
5, 168576, Note_on_c, 3, 43, 110
5, 168960, Note_off_c, 3, 43, 64
5, 168960, Note_on_c, 3, 44, 110
5, 169536, Note_off_c, 3, 44, 64
5, 169536, Note_on_c, 3, 46, 110
5, 170112, Note_off_c, 3, 46, 64
5, 170112, Note_on_c, 3, 48, 110
5, 170688, Note_off_c, 3, 48, 64
5, 170688, Note_on_c, 3, 49, 110
5, 171264, Note_off_c, 3, 49, 64
5, 171264, Note_on_c, 3, 51, 110
5, 171648, Note_off_c, 3, 51, 64
5, 171648, Note_on_c, 3, 44, 110
5, 172032, Note_off_c, 3, 44, 64
5, 172032, Control_c, 3, 7, 100
5, 172032, Program_c, 3, 32
5, 172032, Note_on_c, 3, 37, 110
5, 174336, Note_off_c, 3, 37, 64
5, 174336, Note_on_c, 3, 49, 110
5, 174720, Note_off_c, 3, 49, 64
5, 174720, Note_on_c, 3, 47, 110
5, 175104, Note_off_c, 3, 47, 64
5, 175104, Note_on_c, 3, 45, 110
5, 175680, Note_off_c, 3, 45, 64
5, 175680, Note_on_c, 3, 40, 110
5, 176256, Note_off_c, 3, 40, 64
5, 176256, Note_on_c, 3, 49, 110
5, 176832, Note_off_c, 3, 49, 64
5, 176832, Note_on_c, 3, 41, 110
5, 177408, Note_off_c, 3, 41, 64
5, 177408, Note_on_c, 3, 45, 110
5, 177792, Note_off_c, 3, 45, 64
5, 177792, Note_on_c, 3, 49, 110
5, 178176, Note_off_c, 3, 49, 64
5, 178176, Note_on_c, 3, 45, 110
5, 178752, Note_off_c, 3, 45, 64
5, 178752, Note_on_c, 3, 42, 110
5, 179328, Note_off_c, 3, 42, 64
5, 179328, Note_on_c, 3, 49, 110
5, 179904, Note_off_c, 3, 49, 64
5, 179904, Note_on_c, 3, 41, 110
5, 180480, Note_off_c, 3, 41, 64
5, 180480, Note_on_c, 3, 45, 110
5, 180864, Note_off_c, 3, 45, 64
5, 180864, Note_on_c, 3, 49, 110
5, 181248, Note_off_c, 3, 49, 64
5, 181248, Control_c, 3, 7, 100
5, 181248, Program_c, 3, 32
5, 181248, Note_on_c, 3, 35, 110
5, 183552, Note_off_c, 3, 35, 64
5, 183552, Note_on_c, 3, 47, 110
5, 183936, Note_off_c, 3, 47, 64
5, 183936, Note_on_c, 3, 45, 110
5, 184320, Note_off_c, 3, 45, 64
5, 184320, Note_on_c, 3, 44, 110
5, 184896, Note_off_c, 3, 44, 64
5, 184896, Note_on_c, 3, 40, 110
5, 185472, Note_off_c, 3, 40, 64
5, 185472, Note_on_c, 3, 47, 110
5, 186048, Note_off_c, 3, 47, 64
5, 186048, Note_on_c, 3, 40, 110
5, 186624, Note_off_c, 3, 40, 64
5, 186624, Note_on_c, 3, 44, 110
5, 187008, Note_off_c, 3, 44, 64
5, 187008, Note_on_c, 3, 49, 110
5, 187392, Note_off_c, 3, 49, 64
5, 187392, Note_on_c, 3, 52, 110
5, 187968, Note_off_c, 3, 52, 64
5, 187968, Note_on_c, 3, 40, 110
5, 188544, Note_off_c, 3, 40, 64
5, 188544, Note_on_c, 3, 44, 110
5, 189120, Note_off_c, 3, 44, 64
5, 189120, Note_on_c, 3, 47, 110
5, 189696, Note_off_c, 3, 47, 64
5, 189696, Note_on_c, 3, 40, 110
5, 190080, Note_off_c, 3, 40, 64
5, 190080, Note_on_c, 3, 47, 110
5, 190464, Note_off_c, 3, 47, 64
5, 190464, Control_c, 3, 7, 100
5, 190464, Program_c, 3, 32
5, 190464, Note_on_c, 3, 45, 110
5, 191040, Note_off_c, 3, 45, 64
5, 191040, Note_on_c, 3, 39, 110
5, 191232, Note_off_c, 3, 39, 64
5, 191424, Note_on_c, 3, 40, 110
5, 191616, Note_off_c, 3, 40, 64
5, 191616, Note_on_c, 3, 45, 110
5, 192192, Note_off_c, 3, 45, 64
5, 192192, Note_on_c, 3, 37, 110
5, 192576, Note_off_c, 3, 37, 64
5, 192576, Note_on_c, 3, 40, 110
5, 192768, Note_off_c, 3, 40, 64
5, 192768, Note_on_c, 3, 45, 110
5, 193152, Note_off_c, 3, 45, 64
5, 193152, Note_on_c, 3, 42, 110
5, 193536, Note_off_c, 3, 42, 64
5, 193536, Note_on_c, 3, 47, 110
5, 194112, Note_off_c, 3, 47, 64
5, 194112, Note_on_c, 3, 40, 110
5, 194304, Note_off_c, 3, 40, 64
5, 194496, Note_on_c, 3, 42, 110
5, 194688, Note_off_c, 3, 42, 64
5, 194688, Note_on_c, 3, 47, 110
5, 195264, Note_off_c, 3, 47, 64
5, 195264, Note_on_c, 3, 39, 110
5, 195648, Note_off_c, 3, 39, 64
5, 195648, Note_on_c, 3, 42, 110
5, 195840, Note_off_c, 3, 42, 64
5, 195840, Note_on_c, 3, 47, 110
5, 196224, Note_off_c, 3, 47, 64
5, 196224, Note_on_c, 3, 51, 110
5, 196608, Note_off_c, 3, 51, 64
5, 196608, Note_on_c, 3, 49, 110
5, 198912, Note_off_c, 3, 49, 64
5, 198912, Note_on_c, 3, 47, 110
5, 199680, Note_off_c, 3, 47, 64
5, 199680, Note_on_c, 3, 45, 110
5, 201984, Note_off_c, 3, 45, 64
5, 201984, Note_on_c, 3, 44, 110
5, 202752, Note_off_c, 3, 44, 64
5, 202752, Note_on_c, 3, 42, 110
5, 205056, Note_off_c, 3, 42, 64
5, 205056, Note_on_c, 3, 40, 110
5, 205824, Note_off_c, 3, 40, 64
5, 205824, Note_on_c, 3, 38, 110
5, 208896, Note_off_c, 3, 38, 64
5, 208896, Control_c, 3, 7, 100
5, 208896, Program_c, 3, 32
5, 208896, Note_on_c, 3, 37, 110
5, 209088, Note_off_c, 3, 37, 64
5, 209472, Note_on_c, 3, 37, 110
5, 209664, Note_off_c, 3, 37, 64
5, 210048, Note_on_c, 3, 37, 110
5, 210240, Note_off_c, 3, 37, 64
5, 211200, Note_on_c, 3, 37, 110
5, 211392, Note_off_c, 3, 37, 64
5, 211776, Note_on_c, 3, 37, 110
5, 211968, Note_off_c, 3, 37, 64
5, 212352, Note_on_c, 3, 37, 110
5, 212544, Note_off_c, 3, 37, 64
5, 213504, Control_c, 3, 7, 100
5, 213504, Program_c, 3, 32
5, 213504, Note_on_c, 3, 37, 110
5, 213696, Note_off_c, 3, 37, 64
5, 214080, Note_on_c, 3, 37, 110
5, 214272, Note_off_c, 3, 37, 64
5, 214656, Note_on_c, 3, 37, 110
5, 214848, Note_off_c, 3, 37, 64
5, 215808, Note_on_c, 3, 38, 110
5, 216000, Note_off_c, 3, 38, 64
5, 216384, Note_on_c, 3, 38, 110
5, 216576, Note_off_c, 3, 38, 64
5, 216960, Note_on_c, 3, 38, 110
5, 217152, Note_off_c, 3, 38, 64
5, 218112, Program_c, 3, 32
5, 218112, Note_on_c, 3, 37, 110
5, 218304, Note_off_c, 3, 37, 64
5, 218688, Note_on_c, 3, 37, 110
5, 218880, Note_off_c, 3, 37, 64
5, 219264, Note_on_c, 3, 37, 110
5, 219456, Note_off_c, 3, 37, 64
5, 219840, Note_on_c, 3, 37, 110
5, 220032, Note_off_c, 3, 37, 64
5, 220416, Note_on_c, 3, 37, 110
5, 220608, Note_off_c, 3, 37, 64
5, 220608, Note_on_c, 3, 39, 110
5, 220800, Note_off_c, 3, 39, 64
5, 220800, Note_on_c, 3, 40, 110
5, 220992, Note_off_c, 3, 40, 64
5, 221184, Note_on_c, 3, 37, 110
5, 221376, Note_off_c, 3, 37, 64
5, 221760, Note_on_c, 3, 37, 110
5, 221952, Note_off_c, 3, 37, 64
5, 222336, Note_on_c, 3, 37, 110
5, 222528, Note_off_c, 3, 37, 64
5, 222912, Note_on_c, 3, 37, 110
5, 223104, Note_off_c, 3, 37, 64
5, 223488, Note_on_c, 3, 37, 110
5, 223680, Note_off_c, 3, 37, 64
5, 223680, Note_on_c, 3, 39, 110
5, 223872, Note_off_c, 3, 39, 64
5, 223872, Note_on_c, 3, 40, 110
5, 224064, Note_off_c, 3, 40, 64
5, 224256, Program_c, 3, 32
5, 224256, Control_c, 3, 7, 100
5, 224256, Control_c, 3, 7, 100
5, 224256, Note_on_c, 3, 35, 110
5, 224352, Control_c, 3, 7, 99
5, 224352, Control_c, 3, 7, 99
5, 224448, Note_off_c, 3, 35, 64
5, 224448, Control_c, 3, 7, 99
5, 224448, Control_c, 3, 7, 99
5, 224544, Control_c, 3, 7, 98
5, 224544, Control_c, 3, 7, 98
5, 224640, Control_c, 3, 7, 98
5, 224640, Control_c, 3, 7, 98
5, 224736, Control_c, 3, 7, 97
5, 224736, Control_c, 3, 7, 97
5, 224832, Control_c, 3, 7, 97
5, 224832, Control_c, 3, 7, 97
5, 224832, Note_on_c, 3, 35, 110
5, 224928, Control_c, 3, 7, 96
5, 224928, Control_c, 3, 7, 96
5, 225024, Note_off_c, 3, 35, 64
5, 225024, Control_c, 3, 7, 95
5, 225024, Control_c, 3, 7, 95
5, 225120, Control_c, 3, 7, 95
5, 225120, Control_c, 3, 7, 95
5, 225216, Control_c, 3, 7, 94
5, 225216, Control_c, 3, 7, 94
5, 225312, Control_c, 3, 7, 94
5, 225312, Control_c, 3, 7, 94
5, 225408, Control_c, 3, 7, 93
5, 225408, Control_c, 3, 7, 93
5, 225408, Note_on_c, 3, 35, 110
5, 225504, Control_c, 3, 7, 93
5, 225504, Control_c, 3, 7, 93
5, 225600, Note_off_c, 3, 35, 64
5, 225600, Control_c, 3, 7, 92
5, 225600, Control_c, 3, 7, 92
5, 225696, Control_c, 3, 7, 92
5, 225696, Control_c, 3, 7, 92
5, 225792, Control_c, 3, 7, 91
5, 225792, Control_c, 3, 7, 91
5, 225888, Control_c, 3, 7, 91
5, 225888, Control_c, 3, 7, 91
5, 225984, Control_c, 3, 7, 90
5, 225984, Control_c, 3, 7, 90
5, 225984, Note_on_c, 3, 35, 110
5, 226080, Control_c, 3, 7, 90
5, 226080, Control_c, 3, 7, 90
5, 226176, Note_off_c, 3, 35, 64
5, 226176, Control_c, 3, 7, 89
5, 226176, Control_c, 3, 7, 89
5, 226272, Control_c, 3, 7, 89
5, 226272, Control_c, 3, 7, 89
5, 226368, Control_c, 3, 7, 88
5, 226368, Control_c, 3, 7, 88
5, 226464, Control_c, 3, 7, 88
5, 226464, Control_c, 3, 7, 88
5, 226560, Control_c, 3, 7, 87
5, 226560, Control_c, 3, 7, 87
5, 226560, Note_on_c, 3, 35, 110
5, 226656, Control_c, 3, 7, 87
5, 226656, Control_c, 3, 7, 87
5, 226752, Note_off_c, 3, 35, 64
5, 226752, Control_c, 3, 7, 86
5, 226752, Control_c, 3, 7, 86
5, 226752, Note_on_c, 3, 37, 110
5, 226848, Control_c, 3, 7, 86
5, 226848, Control_c, 3, 7, 86
5, 226944, Note_off_c, 3, 37, 64
5, 226944, Control_c, 3, 7, 85
5, 226944, Control_c, 3, 7, 85
5, 226944, Note_on_c, 3, 39, 110
5, 227040, Control_c, 3, 7, 85
5, 227040, Control_c, 3, 7, 85
5, 227136, Note_off_c, 3, 39, 64
5, 227136, Control_c, 3, 7, 84
5, 227136, Control_c, 3, 7, 84
5, 227232, Control_c, 3, 7, 84
5, 227232, Control_c, 3, 7, 84
5, 227328, Control_c, 3, 7, 83
5, 227328, Control_c, 3, 7, 83
5, 227328, Note_on_c, 3, 40, 110
5, 227424, Control_c, 3, 7, 83
5, 227424, Control_c, 3, 7, 83
5, 227520, Note_off_c, 3, 40, 64
5, 227520, Control_c, 3, 7, 82
5, 227520, Control_c, 3, 7, 82
5, 227616, Control_c, 3, 7, 82
5, 227616, Control_c, 3, 7, 82
5, 227712, Control_c, 3, 7, 81
5, 227712, Control_c, 3, 7, 81
5, 227808, Control_c, 3, 7, 81
5, 227808, Control_c, 3, 7, 81
5, 227904, Control_c, 3, 7, 80
5, 227904, Control_c, 3, 7, 80
5, 227904, Note_on_c, 3, 40, 110
5, 228000, Control_c, 3, 7, 80
5, 228000, Control_c, 3, 7, 80
5, 228096, Note_off_c, 3, 40, 64
5, 228096, Control_c, 3, 7, 79
5, 228096, Control_c, 3, 7, 79
5, 228192, Control_c, 3, 7, 79
5, 228192, Control_c, 3, 7, 79
5, 228288, Control_c, 3, 7, 78
5, 228288, Control_c, 3, 7, 78
5, 228384, Control_c, 3, 7, 77
5, 228384, Control_c, 3, 7, 77
5, 228480, Control_c, 3, 7, 77
5, 228480, Control_c, 3, 7, 77
5, 228480, Note_on_c, 3, 40, 110
5, 228576, Control_c, 3, 7, 76
5, 228576, Control_c, 3, 7, 76
5, 228672, Note_off_c, 3, 40, 64
5, 228672, Control_c, 3, 7, 76
5, 228672, Control_c, 3, 7, 76
5, 228768, Control_c, 3, 7, 75
5, 228768, Control_c, 3, 7, 75
5, 228864, Control_c, 3, 7, 75
5, 228864, Control_c, 3, 7, 75
5, 228960, Control_c, 3, 7, 74
5, 228960, Control_c, 3, 7, 74
5, 229056, Control_c, 3, 7, 74
5, 229056, Control_c, 3, 7, 74
5, 229056, Note_on_c, 3, 40, 110
5, 229152, Control_c, 3, 7, 73
5, 229152, Control_c, 3, 7, 73
5, 229248, Note_off_c, 3, 40, 64
5, 229248, Control_c, 3, 7, 73
5, 229248, Control_c, 3, 7, 73
5, 229344, Control_c, 3, 7, 72
5, 229344, Control_c, 3, 7, 72
5, 229440, Control_c, 3, 7, 72
5, 229440, Control_c, 3, 7, 72
5, 229536, Control_c, 3, 7, 71
5, 229536, Control_c, 3, 7, 71
5, 229632, Control_c, 3, 7, 71
5, 229632, Control_c, 3, 7, 71
5, 229632, Note_on_c, 3, 40, 110
5, 229728, Control_c, 3, 7, 70
5, 229728, Control_c, 3, 7, 70
5, 229824, Control_c, 3, 7, 70
5, 229824, Control_c, 3, 7, 70
5, 229920, Control_c, 3, 7, 69
5, 229920, Control_c, 3, 7, 69
5, 230016, Note_off_c, 3, 40, 64
5, 230016, Control_c, 3, 7, 69
5, 230016, Control_c, 3, 7, 69
5, 230016, Note_on_c, 3, 39, 110
5, 230112, Control_c, 3, 7, 68
5, 230112, Control_c, 3, 7, 68
5, 230208, Control_c, 3, 7, 68
5, 230208, Control_c, 3, 7, 68
5, 230304, Control_c, 3, 7, 67
5, 230304, Control_c, 3, 7, 67
5, 230400, Note_off_c, 3, 39, 64
5, 230400, Control_c, 3, 7, 67
5, 230400, Control_c, 3, 7, 67
5, 230400, Note_on_c, 3, 33, 110
5, 230496, Control_c, 3, 7, 66
5, 230496, Control_c, 3, 7, 66
5, 230592, Note_off_c, 3, 33, 64
5, 230592, Control_c, 3, 7, 66
5, 230592, Control_c, 3, 7, 66
5, 230688, Control_c, 3, 7, 65
5, 230688, Control_c, 3, 7, 65
5, 230784, Control_c, 3, 7, 65
5, 230784, Control_c, 3, 7, 65
5, 230880, Control_c, 3, 7, 64
5, 230880, Control_c, 3, 7, 64
5, 230976, Control_c, 3, 7, 64
5, 230976, Control_c, 3, 7, 64
5, 230976, Note_on_c, 3, 33, 110
5, 231072, Control_c, 3, 7, 63
5, 231072, Control_c, 3, 7, 63
5, 231168, Note_off_c, 3, 33, 64
5, 231168, Control_c, 3, 7, 63
5, 231168, Control_c, 3, 7, 63
5, 231264, Control_c, 3, 7, 62
5, 231264, Control_c, 3, 7, 62
5, 231360, Control_c, 3, 7, 62
5, 231360, Control_c, 3, 7, 62
5, 231456, Control_c, 3, 7, 61
5, 231456, Control_c, 3, 7, 61
5, 231552, Control_c, 3, 7, 60
5, 231552, Control_c, 3, 7, 60
5, 231552, Note_on_c, 3, 33, 110
5, 231648, Control_c, 3, 7, 60
5, 231648, Control_c, 3, 7, 60
5, 231744, Note_off_c, 3, 33, 64
5, 231744, Control_c, 3, 7, 59
5, 231744, Control_c, 3, 7, 59
5, 231840, Control_c, 3, 7, 59
5, 231840, Control_c, 3, 7, 59
5, 231936, Control_c, 3, 7, 58
5, 231936, Control_c, 3, 7, 58
5, 232032, Control_c, 3, 7, 58
5, 232032, Control_c, 3, 7, 58
5, 232128, Control_c, 3, 7, 57
5, 232128, Control_c, 3, 7, 57
5, 232128, Note_on_c, 3, 33, 110
5, 232224, Control_c, 3, 7, 57
5, 232224, Control_c, 3, 7, 57
5, 232320, Note_off_c, 3, 33, 64
5, 232320, Control_c, 3, 7, 56
5, 232320, Control_c, 3, 7, 56
5, 232416, Control_c, 3, 7, 56
5, 232416, Control_c, 3, 7, 56
5, 232512, Control_c, 3, 7, 55
5, 232512, Control_c, 3, 7, 55
5, 232608, Control_c, 3, 7, 55
5, 232608, Control_c, 3, 7, 55
5, 232704, Control_c, 3, 7, 54
5, 232704, Control_c, 3, 7, 54
5, 232704, Note_on_c, 3, 33, 110
5, 232800, Control_c, 3, 7, 54
5, 232800, Control_c, 3, 7, 54
5, 232896, Note_off_c, 3, 33, 64
5, 232896, Control_c, 3, 7, 53
5, 232896, Control_c, 3, 7, 53
5, 232896, Note_on_c, 3, 35, 110
5, 232992, Control_c, 3, 7, 53
5, 232992, Control_c, 3, 7, 53
5, 233088, Note_off_c, 3, 35, 64
5, 233088, Control_c, 3, 7, 52
5, 233088, Control_c, 3, 7, 52
5, 233088, Note_on_c, 3, 37, 110
5, 233184, Control_c, 3, 7, 52
5, 233184, Control_c, 3, 7, 52
5, 233280, Control_c, 3, 7, 51
5, 233280, Control_c, 3, 7, 51
5, 233376, Control_c, 3, 7, 51
5, 233376, Control_c, 3, 7, 51
5, 233472, Note_off_c, 3, 37, 64
5, 233472, Control_c, 3, 7, 50
5, 233472, Control_c, 3, 7, 50
5, 233472, Note_on_c, 3, 42, 110
5, 233568, Control_c, 3, 7, 50
5, 233568, Control_c, 3, 7, 50
5, 233664, Note_off_c, 3, 42, 64
5, 233664, Control_c, 3, 7, 49
5, 233664, Control_c, 3, 7, 49
5, 233760, Control_c, 3, 7, 49
5, 233760, Control_c, 3, 7, 49
5, 233856, Control_c, 3, 7, 48
5, 233856, Control_c, 3, 7, 48
5, 233952, Control_c, 3, 7, 48
5, 233952, Control_c, 3, 7, 48
5, 234048, Control_c, 3, 7, 47
5, 234048, Control_c, 3, 7, 47
5, 234048, Note_on_c, 3, 42, 110
5, 234144, Control_c, 3, 7, 47
5, 234144, Control_c, 3, 7, 47
5, 234240, Note_off_c, 3, 42, 64
5, 234240, Control_c, 3, 7, 46
5, 234240, Control_c, 3, 7, 46
5, 234336, Control_c, 3, 7, 46
5, 234336, Control_c, 3, 7, 46
5, 234432, Control_c, 3, 7, 45
5, 234432, Control_c, 3, 7, 45
5, 234528, Control_c, 3, 7, 45
5, 234528, Control_c, 3, 7, 45
5, 234624, Control_c, 3, 7, 44
5, 234624, Control_c, 3, 7, 44
5, 234624, Note_on_c, 3, 42, 110
5, 234720, Control_c, 3, 7, 44
5, 234720, Control_c, 3, 7, 44
5, 234816, Note_off_c, 3, 42, 64
5, 234816, Control_c, 3, 7, 43
5, 234816, Control_c, 3, 7, 43
5, 234912, Control_c, 3, 7, 42
5, 234912, Control_c, 3, 7, 42
5, 235008, Control_c, 3, 7, 42
5, 235008, Control_c, 3, 7, 42
5, 235104, Control_c, 3, 7, 41
5, 235104, Control_c, 3, 7, 41
5, 235200, Control_c, 3, 7, 41
5, 235200, Control_c, 3, 7, 41
5, 235200, Note_on_c, 3, 42, 110
5, 235296, Control_c, 3, 7, 40
5, 235296, Control_c, 3, 7, 40
5, 235392, Note_off_c, 3, 42, 64
5, 235392, Control_c, 3, 7, 40
5, 235392, Control_c, 3, 7, 40
5, 235488, Control_c, 3, 7, 39
5, 235488, Control_c, 3, 7, 39
5, 235584, Control_c, 3, 7, 39
5, 235584, Control_c, 3, 7, 39
5, 235680, Control_c, 3, 7, 38
5, 235680, Control_c, 3, 7, 38
5, 235776, Control_c, 3, 7, 38
5, 235776, Control_c, 3, 7, 38
5, 235776, Note_on_c, 3, 42, 110
5, 235872, Control_c, 3, 7, 37
5, 235872, Control_c, 3, 7, 37
5, 235968, Control_c, 3, 7, 37
5, 235968, Control_c, 3, 7, 37
5, 236064, Control_c, 3, 7, 36
5, 236064, Control_c, 3, 7, 36
5, 236160, Note_off_c, 3, 42, 64
5, 236160, Control_c, 3, 7, 36
5, 236160, Control_c, 3, 7, 36
5, 236160, Note_on_c, 3, 40, 110
5, 236256, Control_c, 3, 7, 35
5, 236256, Control_c, 3, 7, 35
5, 236352, Control_c, 3, 7, 35
5, 236352, Control_c, 3, 7, 35
5, 236448, Control_c, 3, 7, 34
5, 236448, Control_c, 3, 7, 34
5, 236544, Note_off_c, 3, 40, 64
5, 236544, Control_c, 3, 7, 34
5, 236544, Control_c, 3, 7, 34
5, 236544, Note_on_c, 3, 39, 110
5, 236640, Control_c, 3, 7, 33
5, 236640, Control_c, 3, 7, 33
5, 236736, Note_off_c, 3, 39, 64
5, 236736, Control_c, 3, 7, 33
5, 236736, Control_c, 3, 7, 33
5, 236832, Control_c, 3, 7, 32
5, 236832, Control_c, 3, 7, 32
5, 236928, Control_c, 3, 7, 32
5, 236928, Control_c, 3, 7, 32
5, 237024, Control_c, 3, 7, 31
5, 237024, Control_c, 3, 7, 31
5, 237120, Control_c, 3, 7, 31
5, 237120, Control_c, 3, 7, 31
5, 237120, Note_on_c, 3, 39, 110
5, 237216, Control_c, 3, 7, 30
5, 237216, Control_c, 3, 7, 30
5, 237312, Note_off_c, 3, 39, 64
5, 237312, Control_c, 3, 7, 30
5, 237312, Control_c, 3, 7, 30
5, 237408, Control_c, 3, 7, 29
5, 237408, Control_c, 3, 7, 29
5, 237504, Control_c, 3, 7, 29
5, 237504, Control_c, 3, 7, 29
5, 237600, Control_c, 3, 7, 28
5, 237600, Control_c, 3, 7, 28
5, 237696, Control_c, 3, 7, 28
5, 237696, Control_c, 3, 7, 28
5, 237696, Note_on_c, 3, 39, 110
5, 237792, Control_c, 3, 7, 27
5, 237792, Control_c, 3, 7, 27
5, 237888, Note_off_c, 3, 39, 64
5, 237888, Control_c, 3, 7, 27
5, 237888, Control_c, 3, 7, 27
5, 237984, Control_c, 3, 7, 26
5, 237984, Control_c, 3, 7, 26
5, 238080, Control_c, 3, 7, 25
5, 238080, Control_c, 3, 7, 25
5, 238176, Control_c, 3, 7, 25
5, 238176, Control_c, 3, 7, 25
5, 238272, Control_c, 3, 7, 24
5, 238272, Control_c, 3, 7, 24
5, 238272, Note_on_c, 3, 39, 110
5, 238368, Control_c, 3, 7, 24
5, 238368, Control_c, 3, 7, 24
5, 238464, Note_off_c, 3, 39, 64
5, 238464, Control_c, 3, 7, 23
5, 238464, Control_c, 3, 7, 23
5, 238560, Control_c, 3, 7, 23
5, 238560, Control_c, 3, 7, 23
5, 238656, Control_c, 3, 7, 22
5, 238656, Control_c, 3, 7, 22
5, 238752, Control_c, 3, 7, 22
5, 238752, Control_c, 3, 7, 22
5, 238848, Control_c, 3, 7, 21
5, 238848, Control_c, 3, 7, 21
5, 238848, Note_on_c, 3, 39, 110
5, 238944, Control_c, 3, 7, 21
5, 238944, Control_c, 3, 7, 21
5, 239040, Note_off_c, 3, 39, 64
5, 239040, Control_c, 3, 7, 20
5, 239040, Control_c, 3, 7, 20
5, 239040, Note_on_c, 3, 41, 110
5, 239136, Control_c, 3, 7, 20
5, 239136, Control_c, 3, 7, 20
5, 239232, Note_off_c, 3, 41, 64
5, 239232, Control_c, 3, 7, 19
5, 239232, Control_c, 3, 7, 19
5, 239232, Note_on_c, 3, 44, 110
5, 239328, Control_c, 3, 7, 19
5, 239328, Control_c, 3, 7, 19
5, 239424, Note_off_c, 3, 44, 64
5, 239424, Control_c, 3, 7, 18
5, 239424, Control_c, 3, 7, 18
5, 239424, Note_on_c, 3, 39, 110
5, 239520, Control_c, 3, 7, 18
5, 239520, Control_c, 3, 7, 18
5, 239616, Note_off_c, 3, 39, 64
5, 239616, Control_c, 3, 7, 17
5, 239616, Control_c, 3, 7, 17
5, 239616, Note_on_c, 3, 36, 110
5, 239712, Control_c, 3, 7, 17
5, 239712, Control_c, 3, 7, 17
5, 239808, Note_off_c, 3, 36, 64
5, 239808, Control_c, 3, 7, 16
5, 239808, Control_c, 3, 7, 16
5, 239904, Control_c, 3, 7, 16
5, 239904, Control_c, 3, 7, 16
5, 240000, Control_c, 3, 7, 15
5, 240000, Control_c, 3, 7, 15
5, 240096, Control_c, 3, 7, 15
5, 240096, Control_c, 3, 7, 15
5, 240192, Control_c, 3, 7, 14
5, 240192, Control_c, 3, 7, 14
5, 240192, Note_on_c, 3, 36, 110
5, 240288, Control_c, 3, 7, 14
5, 240288, Control_c, 3, 7, 14
5, 240384, Note_off_c, 3, 36, 64
5, 240384, Control_c, 3, 7, 13
5, 240384, Control_c, 3, 7, 13
5, 240480, Control_c, 3, 7, 13
5, 240480, Control_c, 3, 7, 13
5, 240576, Control_c, 3, 7, 12
5, 240576, Control_c, 3, 7, 12
5, 240672, Control_c, 3, 7, 12
5, 240672, Control_c, 3, 7, 12
5, 240768, Control_c, 3, 7, 11
5, 240768, Control_c, 3, 7, 11
5, 240768, Note_on_c, 3, 36, 110
5, 240864, Control_c, 3, 7, 11
5, 240864, Control_c, 3, 7, 11
5, 240960, Note_off_c, 3, 36, 64
5, 240960, Control_c, 3, 7, 10
5, 240960, Control_c, 3, 7, 10
5, 241056, Control_c, 3, 7, 10
5, 241056, Control_c, 3, 7, 10
5, 241152, Control_c, 3, 7, 9
5, 241152, Control_c, 3, 7, 9
5, 241152, Note_on_c, 3, 32, 110
5, 241248, Control_c, 3, 7, 8
5, 241248, Control_c, 3, 7, 8
5, 241344, Note_off_c, 3, 32, 64
5, 241344, Control_c, 3, 7, 8
5, 241344, Control_c, 3, 7, 8
5, 241440, Control_c, 3, 7, 7
5, 241440, Control_c, 3, 7, 7
5, 241536, Control_c, 3, 7, 7
5, 241536, Control_c, 3, 7, 7
5, 241632, Control_c, 3, 7, 6
5, 241632, Control_c, 3, 7, 6
5, 241728, Control_c, 3, 7, 6
5, 241728, Control_c, 3, 7, 6
5, 241728, Note_on_c, 3, 32, 110
5, 241824, Control_c, 3, 7, 5
5, 241824, Control_c, 3, 7, 5
5, 241920, Note_off_c, 3, 32, 64
5, 241920, Control_c, 3, 7, 5
5, 241920, Control_c, 3, 7, 5
5, 242016, Control_c, 3, 7, 4
5, 242016, Control_c, 3, 7, 4
5, 242112, Control_c, 3, 7, 4
5, 242112, Control_c, 3, 7, 4
5, 242208, Control_c, 3, 7, 3
5, 242208, Control_c, 3, 7, 3
5, 242304, Control_c, 3, 7, 3
5, 242304, Control_c, 3, 7, 3
5, 242304, Note_on_c, 3, 32, 110
5, 242400, Control_c, 3, 7, 2
5, 242400, Control_c, 3, 7, 2
5, 242496, Note_off_c, 3, 32, 64
5, 242496, Control_c, 3, 7, 2
5, 242496, Control_c, 3, 7, 2
5, 242592, Control_c, 3, 7, 1
5, 242592, Control_c, 3, 7, 1
5, 242688, End_track
6, 0, Start_track
6, 0, Title_t, "----------"
6, 0, Program_c, 4, 37
6, 0, Control_c, 4, 10, 64
6, 0, Control_c, 4, 91, 41
6, 0, Control_c, 4, 91, 41
6, 0, Note_on_c, 4, 37, 110
6, 192, Note_off_c, 4, 37, 64
6, 576, Note_on_c, 4, 37, 110
6, 768, Note_off_c, 4, 37, 64
6, 1152, Note_on_c, 4, 37, 110
6, 1344, Note_off_c, 4, 37, 64
6, 2304, Note_on_c, 4, 33, 110
6, 2496, Note_off_c, 4, 33, 64
6, 2880, Note_on_c, 4, 33, 110
6, 3072, Note_off_c, 4, 33, 64
6, 3456, Note_on_c, 4, 33, 110
6, 3648, Note_off_c, 4, 33, 64
6, 4608, Program_c, 4, 37
6, 4608, Note_on_c, 4, 42, 110
6, 4800, Note_off_c, 4, 42, 64
6, 5184, Note_on_c, 4, 42, 110
6, 5376, Note_off_c, 4, 42, 64
6, 5760, Note_on_c, 4, 42, 110
6, 5952, Note_off_c, 4, 42, 64
6, 6912, Note_on_c, 4, 38, 110
6, 7104, Note_off_c, 4, 38, 64
6, 7488, Note_on_c, 4, 38, 110
6, 7680, Note_off_c, 4, 38, 64
6, 8064, Note_on_c, 4, 38, 110
6, 8256, Note_off_c, 4, 38, 64
6, 18432, Program_c, 4, 37
6, 18432, Note_on_c, 4, 37, 110
6, 18624, Note_off_c, 4, 37, 64
6, 19008, Note_on_c, 4, 37, 110
6, 19200, Note_off_c, 4, 37, 64
6, 19584, Note_on_c, 4, 37, 110
6, 19776, Note_off_c, 4, 37, 64
6, 20736, Note_on_c, 4, 37, 110
6, 20928, Note_off_c, 4, 37, 64
6, 21312, Note_on_c, 4, 37, 110
6, 21504, Note_off_c, 4, 37, 64
6, 21888, Note_on_c, 4, 37, 110
6, 22080, Note_off_c, 4, 37, 64
6, 23040, Program_c, 4, 37
6, 23040, Note_on_c, 4, 37, 110
6, 23232, Note_off_c, 4, 37, 64
6, 23616, Note_on_c, 4, 37, 110
6, 23808, Note_off_c, 4, 37, 64
6, 24192, Note_on_c, 4, 37, 110
6, 24384, Note_off_c, 4, 37, 64
6, 25344, Note_on_c, 4, 38, 110
6, 25536, Note_off_c, 4, 38, 64
6, 25920, Note_on_c, 4, 38, 110
6, 26112, Note_off_c, 4, 38, 64
6, 26496, Note_on_c, 4, 38, 110
6, 26688, Note_off_c, 4, 38, 64
6, 27648, Program_c, 4, 37
6, 27648, Note_on_c, 4, 37, 110
6, 27840, Note_off_c, 4, 37, 64
6, 28224, Note_on_c, 4, 37, 110
6, 28416, Note_off_c, 4, 37, 64
6, 28800, Note_on_c, 4, 37, 110
6, 28992, Note_off_c, 4, 37, 64
6, 29376, Note_on_c, 4, 37, 110
6, 29568, Note_off_c, 4, 37, 64
6, 29952, Note_on_c, 4, 37, 110
6, 30144, Note_off_c, 4, 37, 64
6, 30144, Note_on_c, 4, 39, 110
6, 30336, Note_off_c, 4, 39, 64
6, 30336, Note_on_c, 4, 40, 110
6, 30528, Note_off_c, 4, 40, 64
6, 30720, Note_on_c, 4, 37, 110
6, 30912, Note_off_c, 4, 37, 64
6, 31296, Note_on_c, 4, 37, 110
6, 31488, Note_off_c, 4, 37, 64
6, 31872, Note_on_c, 4, 37, 110
6, 32064, Note_off_c, 4, 37, 64
6, 32448, Note_on_c, 4, 37, 110
6, 32640, Note_off_c, 4, 37, 64
6, 33024, Note_on_c, 4, 37, 110
6, 33216, Note_off_c, 4, 37, 64
6, 33216, Note_on_c, 4, 39, 110
6, 33408, Note_off_c, 4, 39, 64
6, 33408, Note_on_c, 4, 40, 110
6, 33600, Note_off_c, 4, 40, 64
6, 33792, Control_c, 4, 7, 85
6, 33792, Program_c, 4, 37
6, 33792, Note_on_c, 4, 35, 110
6, 33984, Note_off_c, 4, 35, 64
6, 34368, Note_on_c, 4, 35, 110
6, 34560, Note_off_c, 4, 35, 64
6, 34944, Note_on_c, 4, 35, 110
6, 35136, Note_off_c, 4, 35, 64
6, 35520, Note_on_c, 4, 35, 110
6, 35712, Note_off_c, 4, 35, 64
6, 36096, Note_on_c, 4, 35, 110
6, 36288, Note_off_c, 4, 35, 64
6, 36288, Note_on_c, 4, 37, 110
6, 36480, Note_off_c, 4, 37, 64
6, 36480, Note_on_c, 4, 39, 110
6, 36672, Note_off_c, 4, 39, 64
6, 36864, Note_on_c, 4, 40, 110
6, 37056, Note_off_c, 4, 40, 64
6, 37440, Note_on_c, 4, 40, 110
6, 37632, Note_off_c, 4, 40, 64
6, 38016, Note_on_c, 4, 40, 110
6, 38208, Note_off_c, 4, 40, 64
6, 38592, Note_on_c, 4, 40, 110
6, 38784, Note_off_c, 4, 40, 64
6, 39168, Note_on_c, 4, 40, 110
6, 39552, Note_off_c, 4, 40, 64
6, 39552, Note_on_c, 4, 39, 110
6, 39936, Note_off_c, 4, 39, 64
6, 39936, Program_c, 4, 37
6, 39936, Note_on_c, 4, 33, 110
6, 40128, Note_off_c, 4, 33, 64
6, 40512, Note_on_c, 4, 33, 110
6, 40704, Note_off_c, 4, 33, 64
6, 41088, Note_on_c, 4, 33, 110
6, 41280, Note_off_c, 4, 33, 64
6, 41664, Note_on_c, 4, 33, 110
6, 41856, Note_off_c, 4, 33, 64
6, 42240, Note_on_c, 4, 33, 110
6, 42432, Note_off_c, 4, 33, 64
6, 42432, Note_on_c, 4, 35, 110
6, 42624, Note_off_c, 4, 35, 64
6, 42624, Note_on_c, 4, 37, 110
6, 43008, Note_off_c, 4, 37, 64
6, 43008, Note_on_c, 4, 42, 110
6, 43200, Note_off_c, 4, 42, 64
6, 43584, Note_on_c, 4, 42, 110
6, 43776, Note_off_c, 4, 42, 64
6, 44160, Note_on_c, 4, 42, 110
6, 44352, Note_off_c, 4, 42, 64
6, 44736, Note_on_c, 4, 42, 110
6, 44928, Note_off_c, 4, 42, 64
6, 45312, Note_on_c, 4, 42, 110
6, 45696, Note_off_c, 4, 42, 64
6, 45696, Note_on_c, 4, 40, 110
6, 46080, Note_off_c, 4, 40, 64
6, 46080, Program_c, 4, 37
6, 46080, Note_on_c, 4, 39, 110
6, 46272, Note_off_c, 4, 39, 64
6, 46656, Note_on_c, 4, 39, 110
6, 46848, Note_off_c, 4, 39, 64
6, 47232, Note_on_c, 4, 39, 110
6, 47424, Note_off_c, 4, 39, 64
6, 47808, Note_on_c, 4, 39, 110
6, 48000, Note_off_c, 4, 39, 64
6, 48384, Note_on_c, 4, 39, 110
6, 48576, Note_off_c, 4, 39, 64
6, 48576, Note_on_c, 4, 41, 110
6, 48768, Note_off_c, 4, 41, 64
6, 48768, Note_on_c, 4, 44, 110
6, 48960, Note_off_c, 4, 44, 64
6, 48960, Note_on_c, 4, 39, 110
6, 49152, Note_off_c, 4, 39, 64
6, 49152, Note_on_c, 4, 36, 110
6, 49344, Note_off_c, 4, 36, 64
6, 49728, Note_on_c, 4, 36, 110
6, 49920, Note_off_c, 4, 36, 64
6, 50304, Note_on_c, 4, 36, 110
6, 50496, Note_off_c, 4, 36, 64
6, 50688, Note_on_c, 4, 32, 110
6, 50880, Note_off_c, 4, 32, 64
6, 51264, Note_on_c, 4, 32, 110
6, 51456, Note_off_c, 4, 32, 64
6, 51840, Note_on_c, 4, 32, 110
6, 52032, Note_off_c, 4, 32, 64
6, 52224, Program_c, 4, 37
6, 52224, Note_on_c, 4, 49, 110
6, 52800, Note_off_c, 4, 49, 64
6, 52800, Note_on_c, 4, 40, 110
6, 52992, Note_off_c, 4, 40, 64
6, 53184, Note_on_c, 4, 47, 110
6, 53376, Note_off_c, 4, 47, 64
6, 53376, Note_on_c, 4, 49, 110
6, 53952, Note_off_c, 4, 49, 64
6, 53952, Note_on_c, 4, 44, 110
6, 54336, Note_off_c, 4, 44, 64
6, 54336, Note_on_c, 4, 47, 110
6, 54528, Note_off_c, 4, 47, 64
6, 54528, Note_on_c, 4, 49, 110
6, 54912, Note_off_c, 4, 49, 64
6, 54912, Note_on_c, 4, 47, 110
6, 55296, Note_off_c, 4, 47, 64
6, 55296, Note_on_c, 4, 45, 110
6, 55872, Note_off_c, 4, 45, 64
6, 55872, Note_on_c, 4, 33, 110
6, 56448, Note_off_c, 4, 33, 64
6, 56448, Note_on_c, 4, 35, 110
6, 57024, Note_off_c, 4, 35, 64
6, 57024, Note_on_c, 4, 37, 110
6, 57600, Note_off_c, 4, 37, 64
6, 57600, Note_on_c, 4, 39, 110
6, 57984, Note_off_c, 4, 39, 64
6, 57984, Note_on_c, 4, 40, 110
6, 58368, Note_off_c, 4, 40, 64
6, 58368, Program_c, 4, 37
6, 58368, Note_on_c, 4, 35, 110
6, 58944, Note_off_c, 4, 35, 64
6, 58944, Note_on_c, 4, 40, 110
6, 59136, Note_off_c, 4, 40, 64
6, 59328, Note_on_c, 4, 42, 110
6, 59520, Note_off_c, 4, 42, 64
6, 59520, Note_on_c, 4, 47, 110
6, 60096, Note_off_c, 4, 47, 64
6, 60096, Note_on_c, 4, 40, 110
6, 60480, Note_off_c, 4, 40, 64
6, 60480, Note_on_c, 4, 42, 110
6, 60672, Note_off_c, 4, 42, 64
6, 60672, Note_on_c, 4, 47, 110
6, 61056, Note_off_c, 4, 47, 64
6, 61056, Note_on_c, 4, 45, 110
6, 61440, Note_off_c, 4, 45, 64
6, 61440, Note_on_c, 4, 40, 110
6, 62016, Note_off_c, 4, 40, 64
6, 62016, Note_on_c, 4, 52, 110
6, 62592, Note_off_c, 4, 52, 64
6, 62592, Note_on_c, 4, 51, 110
6, 62976, Note_off_c, 4, 51, 64
6, 62976, Note_on_c, 4, 49, 110
6, 63360, Note_off_c, 4, 49, 64
6, 63360, Note_on_c, 4, 47, 110
6, 63744, Note_off_c, 4, 47, 64
6, 63744, Note_on_c, 4, 45, 110
6, 64128, Note_off_c, 4, 45, 64
6, 64128, Note_on_c, 4, 44, 110
6, 64512, Note_off_c, 4, 44, 64
6, 64512, Program_c, 4, 37
6, 64512, Note_on_c, 4, 45, 110
6, 65088, Note_off_c, 4, 45, 64
6, 65088, Note_on_c, 4, 37, 110
6, 65280, Note_off_c, 4, 37, 64
6, 65472, Note_on_c, 4, 40, 110
6, 65664, Note_off_c, 4, 40, 64
6, 65664, Note_on_c, 4, 45, 110
6, 66240, Note_off_c, 4, 45, 64
6, 66240, Note_on_c, 4, 37, 110
6, 66624, Note_off_c, 4, 37, 64
6, 66624, Note_on_c, 4, 40, 110
6, 66816, Note_off_c, 4, 40, 64
6, 66816, Note_on_c, 4, 45, 110
6, 67200, Note_off_c, 4, 45, 64
6, 67200, Note_on_c, 4, 44, 110
6, 67584, Note_off_c, 4, 44, 64
6, 67584, Note_on_c, 4, 43, 110
6, 68160, Note_off_c, 4, 43, 64
6, 68160, Note_on_c, 4, 37, 110
6, 68736, Note_off_c, 4, 37, 64
6, 68736, Note_on_c, 4, 39, 110
6, 69312, Note_off_c, 4, 39, 64
6, 69312, Note_on_c, 4, 34, 110
6, 69888, Note_off_c, 4, 34, 64
6, 69888, Note_on_c, 4, 31, 110
6, 70272, Note_off_c, 4, 31, 64
6, 70272, Note_on_c, 4, 27, 110
6, 70656, Note_off_c, 4, 27, 64
6, 70656, Program_c, 4, 37
6, 70656, Note_on_c, 4, 28, 110
6, 71232, Note_off_c, 4, 28, 64
6, 71232, Note_on_c, 4, 30, 110
6, 71808, Note_off_c, 4, 30, 64
6, 71808, Note_on_c, 4, 31, 110
6, 72384, Note_off_c, 4, 31, 64
6, 72384, Note_on_c, 4, 32, 110
6, 72960, Note_off_c, 4, 32, 64
6, 72960, Note_on_c, 4, 34, 110
6, 73344, Note_off_c, 4, 34, 64
6, 73344, Note_on_c, 4, 31, 110
6, 73728, Note_off_c, 4, 31, 64
6, 73728, Note_on_c, 4, 32, 110
6, 74304, Note_off_c, 4, 32, 64
6, 74304, Note_on_c, 4, 34, 110
6, 74880, Note_off_c, 4, 34, 64
6, 74880, Note_on_c, 4, 36, 110
6, 75456, Note_off_c, 4, 36, 64
6, 75456, Note_on_c, 4, 37, 110
6, 76032, Note_off_c, 4, 37, 64
6, 76032, Note_on_c, 4, 39, 110
6, 76416, Note_off_c, 4, 39, 64
6, 76416, Note_on_c, 4, 32, 110
6, 76800, Note_off_c, 4, 32, 64
6, 76800, Note_on_c, 4, 37, 110
6, 79104, Note_off_c, 4, 37, 64
6, 79104, Note_on_c, 4, 49, 110
6, 79488, Note_off_c, 4, 49, 64
6, 79488, Note_on_c, 4, 47, 110
6, 79872, Note_off_c, 4, 47, 64
6, 79872, Note_on_c, 4, 45, 110
6, 80448, Note_off_c, 4, 45, 64
6, 80448, Note_on_c, 4, 40, 110
6, 81024, Note_off_c, 4, 40, 64
6, 81024, Note_on_c, 4, 49, 110
6, 81600, Note_off_c, 4, 49, 64
6, 81600, Note_on_c, 4, 41, 110
6, 82176, Note_off_c, 4, 41, 64
6, 82176, Note_on_c, 4, 45, 110
6, 82560, Note_off_c, 4, 45, 64
6, 82560, Note_on_c, 4, 49, 110
6, 82944, Note_off_c, 4, 49, 64
6, 82944, Note_on_c, 4, 45, 110
6, 83520, Note_off_c, 4, 45, 64
6, 83520, Note_on_c, 4, 42, 110
6, 84096, Note_off_c, 4, 42, 64
6, 84096, Note_on_c, 4, 49, 110
6, 84672, Note_off_c, 4, 49, 64
6, 84672, Note_on_c, 4, 41, 110
6, 85248, Note_off_c, 4, 41, 64
6, 85248, Note_on_c, 4, 45, 110
6, 85632, Note_off_c, 4, 45, 64
6, 85632, Note_on_c, 4, 49, 110
6, 86016, Note_off_c, 4, 49, 64
6, 86016, Note_on_c, 4, 35, 110
6, 88320, Note_off_c, 4, 35, 64
6, 88320, Note_on_c, 4, 47, 110
6, 88704, Note_off_c, 4, 47, 64
6, 88704, Note_on_c, 4, 45, 110
6, 89088, Note_off_c, 4, 45, 64
6, 89088, Note_on_c, 4, 44, 110
6, 89664, Note_off_c, 4, 44, 64
6, 89664, Note_on_c, 4, 40, 110
6, 90240, Note_off_c, 4, 40, 64
6, 90240, Note_on_c, 4, 47, 110
6, 90816, Note_off_c, 4, 47, 64
6, 90816, Note_on_c, 4, 40, 110
6, 91392, Note_off_c, 4, 40, 64
6, 91392, Note_on_c, 4, 44, 110
6, 91776, Note_off_c, 4, 44, 64
6, 91776, Note_on_c, 4, 49, 110
6, 92160, Note_off_c, 4, 49, 64
6, 92160, Note_on_c, 4, 52, 110
6, 92736, Note_off_c, 4, 52, 64
6, 92736, Note_on_c, 4, 40, 110
6, 93312, Note_off_c, 4, 40, 64
6, 93312, Note_on_c, 4, 44, 110
6, 93888, Note_off_c, 4, 44, 64
6, 93888, Note_on_c, 4, 47, 110
6, 94464, Note_off_c, 4, 47, 64
6, 94464, Note_on_c, 4, 40, 110
6, 94848, Note_off_c, 4, 40, 64
6, 94848, Note_on_c, 4, 47, 110
6, 95232, Note_off_c, 4, 47, 64
6, 95232, Note_on_c, 4, 45, 110
6, 95808, Note_off_c, 4, 45, 64
6, 95808, Note_on_c, 4, 39, 110
6, 96000, Note_off_c, 4, 39, 64
6, 96192, Note_on_c, 4, 40, 110
6, 96384, Note_off_c, 4, 40, 64
6, 96384, Note_on_c, 4, 45, 110
6, 96960, Note_off_c, 4, 45, 64
6, 96960, Note_on_c, 4, 37, 110
6, 97344, Note_off_c, 4, 37, 64
6, 97344, Note_on_c, 4, 40, 110
6, 97536, Note_off_c, 4, 40, 64
6, 97536, Note_on_c, 4, 45, 110
6, 97920, Note_off_c, 4, 45, 64
6, 97920, Note_on_c, 4, 42, 110
6, 98304, Note_off_c, 4, 42, 64
6, 98304, Note_on_c, 4, 47, 110
6, 98880, Note_off_c, 4, 47, 64
6, 98880, Note_on_c, 4, 40, 110
6, 99072, Note_off_c, 4, 40, 64
6, 99264, Note_on_c, 4, 42, 110
6, 99456, Note_off_c, 4, 42, 64
6, 99456, Note_on_c, 4, 47, 110
6, 100032, Note_off_c, 4, 47, 64
6, 100032, Note_on_c, 4, 39, 110
6, 100416, Note_off_c, 4, 39, 64
6, 100416, Note_on_c, 4, 42, 110
6, 100608, Note_off_c, 4, 42, 64
6, 100608, Note_on_c, 4, 47, 110
6, 100992, Note_off_c, 4, 47, 64
6, 100992, Note_on_c, 4, 51, 110
6, 101376, Note_off_c, 4, 51, 64
6, 101376, Note_on_c, 4, 49, 110
6, 103680, Note_off_c, 4, 49, 64
6, 103680, Note_on_c, 4, 47, 110
6, 104448, Note_off_c, 4, 47, 64
6, 104448, Note_on_c, 4, 45, 110
6, 106752, Note_off_c, 4, 45, 64
6, 106752, Note_on_c, 4, 44, 110
6, 107520, Note_off_c, 4, 44, 64
6, 107520, Note_on_c, 4, 42, 110
6, 109824, Note_off_c, 4, 42, 64
6, 109824, Note_on_c, 4, 40, 110
6, 110592, Note_off_c, 4, 40, 64
6, 110592, Note_on_c, 4, 38, 110
6, 113664, Note_off_c, 4, 38, 64
6, 113664, Note_on_c, 4, 37, 110
6, 113856, Note_off_c, 4, 37, 64
6, 114240, Note_on_c, 4, 37, 110
6, 114432, Note_off_c, 4, 37, 64
6, 114816, Note_on_c, 4, 37, 110
6, 115008, Note_off_c, 4, 37, 64
6, 115968, Note_on_c, 4, 37, 110
6, 116160, Note_off_c, 4, 37, 64
6, 116544, Note_on_c, 4, 37, 110
6, 116736, Note_off_c, 4, 37, 64
6, 117120, Note_on_c, 4, 37, 110
6, 117312, Note_off_c, 4, 37, 64
6, 118272, Note_on_c, 4, 37, 110
6, 118464, Note_off_c, 4, 37, 64
6, 118848, Note_on_c, 4, 37, 110
6, 119040, Note_off_c, 4, 37, 64
6, 119424, Note_on_c, 4, 37, 110
6, 119616, Note_off_c, 4, 37, 64
6, 120576, Note_on_c, 4, 38, 110
6, 120768, Note_off_c, 4, 38, 64
6, 121152, Note_on_c, 4, 38, 110
6, 121344, Note_off_c, 4, 38, 64
6, 121728, Note_on_c, 4, 38, 110
6, 121920, Note_off_c, 4, 38, 64
6, 122880, Program_c, 4, 37
6, 122880, Note_on_c, 4, 37, 110
6, 123072, Note_off_c, 4, 37, 64
6, 123456, Note_on_c, 4, 37, 110
6, 123648, Note_off_c, 4, 37, 64
6, 124032, Note_on_c, 4, 37, 110
6, 124224, Note_off_c, 4, 37, 64
6, 124608, Note_on_c, 4, 37, 110
6, 124800, Note_off_c, 4, 37, 64
6, 125184, Note_on_c, 4, 37, 110
6, 125376, Note_off_c, 4, 37, 64
6, 125376, Note_on_c, 4, 39, 110
6, 125568, Note_off_c, 4, 39, 64
6, 125568, Note_on_c, 4, 40, 110
6, 125760, Note_off_c, 4, 40, 64
6, 125952, Note_on_c, 4, 37, 110
6, 126144, Note_off_c, 4, 37, 64
6, 126528, Note_on_c, 4, 37, 110
6, 126720, Note_off_c, 4, 37, 64
6, 127104, Note_on_c, 4, 37, 110
6, 127296, Note_off_c, 4, 37, 64
6, 127680, Note_on_c, 4, 37, 110
6, 127872, Note_off_c, 4, 37, 64
6, 128256, Note_on_c, 4, 37, 110
6, 128448, Note_off_c, 4, 37, 64
6, 128448, Note_on_c, 4, 39, 110
6, 128640, Note_off_c, 4, 39, 64
6, 128640, Note_on_c, 4, 40, 110
6, 128832, Note_off_c, 4, 40, 64
6, 129024, Control_c, 4, 7, 85
6, 129024, Program_c, 4, 37
6, 129024, Note_on_c, 4, 35, 110
6, 129216, Note_off_c, 4, 35, 64
6, 129600, Note_on_c, 4, 35, 110
6, 129792, Note_off_c, 4, 35, 64
6, 130176, Note_on_c, 4, 35, 110
6, 130368, Note_off_c, 4, 35, 64
6, 130752, Note_on_c, 4, 35, 110
6, 130944, Note_off_c, 4, 35, 64
6, 131328, Note_on_c, 4, 35, 110
6, 131520, Note_off_c, 4, 35, 64
6, 131520, Note_on_c, 4, 37, 110
6, 131712, Note_off_c, 4, 37, 64
6, 131712, Note_on_c, 4, 39, 110
6, 131904, Note_off_c, 4, 39, 64
6, 132096, Note_on_c, 4, 40, 110
6, 132288, Note_off_c, 4, 40, 64
6, 132672, Note_on_c, 4, 40, 110
6, 132864, Note_off_c, 4, 40, 64
6, 133248, Note_on_c, 4, 40, 110
6, 133440, Note_off_c, 4, 40, 64
6, 133824, Note_on_c, 4, 40, 110
6, 134016, Note_off_c, 4, 40, 64
6, 134400, Note_on_c, 4, 40, 110
6, 134784, Note_off_c, 4, 40, 64
6, 134784, Note_on_c, 4, 39, 110
6, 135168, Note_off_c, 4, 39, 64
6, 135168, Program_c, 4, 37
6, 135168, Note_on_c, 4, 33, 110
6, 135360, Note_off_c, 4, 33, 64
6, 135744, Note_on_c, 4, 33, 110
6, 135936, Note_off_c, 4, 33, 64
6, 136320, Note_on_c, 4, 33, 110
6, 136512, Note_off_c, 4, 33, 64
6, 136896, Note_on_c, 4, 33, 110
6, 137088, Note_off_c, 4, 33, 64
6, 137472, Note_on_c, 4, 33, 110
6, 137664, Note_off_c, 4, 33, 64
6, 137664, Note_on_c, 4, 35, 110
6, 137856, Note_off_c, 4, 35, 64
6, 137856, Note_on_c, 4, 37, 110
6, 138240, Note_off_c, 4, 37, 64
6, 138240, Note_on_c, 4, 42, 110
6, 138432, Note_off_c, 4, 42, 64
6, 138816, Note_on_c, 4, 42, 110
6, 139008, Note_off_c, 4, 42, 64
6, 139392, Note_on_c, 4, 42, 110
6, 139584, Note_off_c, 4, 42, 64
6, 139968, Note_on_c, 4, 42, 110
6, 140160, Note_off_c, 4, 42, 64
6, 140544, Note_on_c, 4, 42, 110
6, 140928, Note_off_c, 4, 42, 64
6, 140928, Note_on_c, 4, 40, 110
6, 141312, Note_off_c, 4, 40, 64
6, 141312, Program_c, 4, 37
6, 141312, Note_on_c, 4, 39, 110
6, 141504, Note_off_c, 4, 39, 64
6, 141888, Note_on_c, 4, 39, 110
6, 142080, Note_off_c, 4, 39, 64
6, 142464, Note_on_c, 4, 39, 110
6, 142656, Note_off_c, 4, 39, 64
6, 143040, Note_on_c, 4, 39, 110
6, 143232, Note_off_c, 4, 39, 64
6, 143616, Note_on_c, 4, 39, 110
6, 143808, Note_off_c, 4, 39, 64
6, 143808, Note_on_c, 4, 41, 110
6, 144000, Note_off_c, 4, 41, 64
6, 144000, Note_on_c, 4, 44, 110
6, 144192, Note_off_c, 4, 44, 64
6, 144192, Note_on_c, 4, 39, 110
6, 144384, Note_off_c, 4, 39, 64
6, 144384, Note_on_c, 4, 36, 110
6, 144576, Note_off_c, 4, 36, 64
6, 144960, Note_on_c, 4, 36, 110
6, 145152, Note_off_c, 4, 36, 64
6, 145536, Note_on_c, 4, 36, 110
6, 145728, Note_off_c, 4, 36, 64
6, 145920, Note_on_c, 4, 32, 110
6, 146112, Note_off_c, 4, 32, 64
6, 146496, Note_on_c, 4, 32, 110
6, 146688, Note_off_c, 4, 32, 64
6, 147072, Note_on_c, 4, 32, 110
6, 147264, Note_off_c, 4, 32, 64
6, 147456, Program_c, 4, 37
6, 147456, Note_on_c, 4, 49, 110
6, 148032, Note_off_c, 4, 49, 64
6, 148032, Note_on_c, 4, 40, 110
6, 148224, Note_off_c, 4, 40, 64
6, 148416, Note_on_c, 4, 47, 110
6, 148608, Note_off_c, 4, 47, 64
6, 148608, Note_on_c, 4, 49, 110
6, 149184, Note_off_c, 4, 49, 64
6, 149184, Note_on_c, 4, 44, 110
6, 149568, Note_off_c, 4, 44, 64
6, 149568, Note_on_c, 4, 47, 110
6, 149760, Note_off_c, 4, 47, 64
6, 149760, Note_on_c, 4, 49, 110
6, 150144, Note_off_c, 4, 49, 64
6, 150144, Note_on_c, 4, 47, 110
6, 150528, Note_off_c, 4, 47, 64
6, 150528, Note_on_c, 4, 45, 110
6, 151104, Note_off_c, 4, 45, 64
6, 151104, Note_on_c, 4, 33, 110
6, 151680, Note_off_c, 4, 33, 64
6, 151680, Note_on_c, 4, 35, 110
6, 152256, Note_off_c, 4, 35, 64
6, 152256, Note_on_c, 4, 37, 110
6, 152832, Note_off_c, 4, 37, 64
6, 152832, Note_on_c, 4, 39, 110
6, 153216, Note_off_c, 4, 39, 64
6, 153216, Note_on_c, 4, 40, 110
6, 153600, Note_off_c, 4, 40, 64
6, 153600, Program_c, 4, 37
6, 153600, Note_on_c, 4, 35, 110
6, 154176, Note_off_c, 4, 35, 64
6, 154176, Note_on_c, 4, 40, 110
6, 154368, Note_off_c, 4, 40, 64
6, 154560, Note_on_c, 4, 42, 110
6, 154752, Note_off_c, 4, 42, 64
6, 154752, Note_on_c, 4, 47, 110
6, 155328, Note_off_c, 4, 47, 64
6, 155328, Note_on_c, 4, 40, 110
6, 155712, Note_off_c, 4, 40, 64
6, 155712, Note_on_c, 4, 42, 110
6, 155904, Note_off_c, 4, 42, 64
6, 155904, Note_on_c, 4, 47, 110
6, 156288, Note_off_c, 4, 47, 64
6, 156288, Note_on_c, 4, 45, 110
6, 156672, Note_off_c, 4, 45, 64
6, 156672, Note_on_c, 4, 40, 110
6, 157248, Note_off_c, 4, 40, 64
6, 157248, Note_on_c, 4, 52, 110
6, 157824, Note_off_c, 4, 52, 64
6, 157824, Note_on_c, 4, 51, 110
6, 158208, Note_off_c, 4, 51, 64
6, 158208, Note_on_c, 4, 49, 110
6, 158592, Note_off_c, 4, 49, 64
6, 158592, Note_on_c, 4, 47, 110
6, 158976, Note_off_c, 4, 47, 64
6, 158976, Note_on_c, 4, 45, 110
6, 159360, Note_off_c, 4, 45, 64
6, 159360, Note_on_c, 4, 44, 110
6, 159744, Note_off_c, 4, 44, 64
6, 159744, Program_c, 4, 37
6, 159744, Note_on_c, 4, 45, 110
6, 160320, Note_off_c, 4, 45, 64
6, 160320, Note_on_c, 4, 37, 110
6, 160512, Note_off_c, 4, 37, 64
6, 160704, Note_on_c, 4, 40, 110
6, 160896, Note_off_c, 4, 40, 64
6, 160896, Note_on_c, 4, 45, 110
6, 161472, Note_off_c, 4, 45, 64
6, 161472, Note_on_c, 4, 37, 110
6, 161856, Note_off_c, 4, 37, 64
6, 161856, Note_on_c, 4, 40, 110
6, 162048, Note_off_c, 4, 40, 64
6, 162048, Note_on_c, 4, 45, 110
6, 162432, Note_off_c, 4, 45, 64
6, 162432, Note_on_c, 4, 44, 110
6, 162816, Note_off_c, 4, 44, 64
6, 162816, Note_on_c, 4, 43, 110
6, 163392, Note_off_c, 4, 43, 64
6, 163392, Note_on_c, 4, 37, 110
6, 163968, Note_off_c, 4, 37, 64
6, 163968, Note_on_c, 4, 39, 110
6, 164544, Note_off_c, 4, 39, 64
6, 164544, Note_on_c, 4, 34, 110
6, 165120, Note_off_c, 4, 34, 64
6, 165120, Note_on_c, 4, 31, 110
6, 165504, Note_off_c, 4, 31, 64
6, 165504, Note_on_c, 4, 27, 110
6, 165888, Note_off_c, 4, 27, 64
6, 165888, Program_c, 4, 37
6, 165888, Note_on_c, 4, 28, 110
6, 166464, Note_off_c, 4, 28, 64
6, 166464, Note_on_c, 4, 30, 110
6, 167040, Note_off_c, 4, 30, 64
6, 167040, Note_on_c, 4, 31, 110
6, 167616, Note_off_c, 4, 31, 64
6, 167616, Note_on_c, 4, 32, 110
6, 168192, Note_off_c, 4, 32, 64
6, 168192, Note_on_c, 4, 34, 110
6, 168576, Note_off_c, 4, 34, 64
6, 168576, Note_on_c, 4, 31, 110
6, 168960, Note_off_c, 4, 31, 64
6, 168960, Note_on_c, 4, 32, 110
6, 169536, Note_off_c, 4, 32, 64
6, 169536, Note_on_c, 4, 34, 110
6, 170112, Note_off_c, 4, 34, 64
6, 170112, Note_on_c, 4, 36, 110
6, 170688, Note_off_c, 4, 36, 64
6, 170688, Note_on_c, 4, 37, 110
6, 171264, Note_off_c, 4, 37, 64
6, 171264, Note_on_c, 4, 39, 110
6, 171648, Note_off_c, 4, 39, 64
6, 171648, Note_on_c, 4, 32, 110
6, 172032, Note_off_c, 4, 32, 64
6, 172032, Note_on_c, 4, 37, 110
6, 174336, Note_off_c, 4, 37, 64
6, 174336, Note_on_c, 4, 49, 110
6, 174720, Note_off_c, 4, 49, 64
6, 174720, Note_on_c, 4, 47, 110
6, 175104, Note_off_c, 4, 47, 64
6, 175104, Note_on_c, 4, 45, 110
6, 175680, Note_off_c, 4, 45, 64
6, 175680, Note_on_c, 4, 40, 110
6, 176256, Note_off_c, 4, 40, 64
6, 176256, Note_on_c, 4, 49, 110
6, 176832, Note_off_c, 4, 49, 64
6, 176832, Note_on_c, 4, 41, 110
6, 177408, Note_off_c, 4, 41, 64
6, 177408, Note_on_c, 4, 45, 110
6, 177792, Note_off_c, 4, 45, 64
6, 177792, Note_on_c, 4, 49, 110
6, 178176, Note_off_c, 4, 49, 64
6, 178176, Note_on_c, 4, 45, 110
6, 178752, Note_off_c, 4, 45, 64
6, 178752, Note_on_c, 4, 42, 110
6, 179328, Note_off_c, 4, 42, 64
6, 179328, Note_on_c, 4, 49, 110
6, 179904, Note_off_c, 4, 49, 64
6, 179904, Note_on_c, 4, 41, 110
6, 180480, Note_off_c, 4, 41, 64
6, 180480, Note_on_c, 4, 45, 110
6, 180864, Note_off_c, 4, 45, 64
6, 180864, Note_on_c, 4, 49, 110
6, 181248, Note_off_c, 4, 49, 64
6, 181248, Note_on_c, 4, 35, 110
6, 183552, Note_off_c, 4, 35, 64
6, 183552, Note_on_c, 4, 47, 110
6, 183936, Note_off_c, 4, 47, 64
6, 183936, Note_on_c, 4, 45, 110
6, 184320, Note_off_c, 4, 45, 64
6, 184320, Note_on_c, 4, 44, 110
6, 184896, Note_off_c, 4, 44, 64
6, 184896, Note_on_c, 4, 40, 110
6, 185472, Note_off_c, 4, 40, 64
6, 185472, Note_on_c, 4, 47, 110
6, 186048, Note_off_c, 4, 47, 64
6, 186048, Note_on_c, 4, 40, 110
6, 186624, Note_off_c, 4, 40, 64
6, 186624, Note_on_c, 4, 44, 110
6, 187008, Note_off_c, 4, 44, 64
6, 187008, Note_on_c, 4, 49, 110
6, 187392, Note_off_c, 4, 49, 64
6, 187392, Note_on_c, 4, 52, 110
6, 187968, Note_off_c, 4, 52, 64
6, 187968, Note_on_c, 4, 40, 110
6, 188544, Note_off_c, 4, 40, 64
6, 188544, Note_on_c, 4, 44, 110
6, 189120, Note_off_c, 4, 44, 64
6, 189120, Note_on_c, 4, 47, 110
6, 189696, Note_off_c, 4, 47, 64
6, 189696, Note_on_c, 4, 40, 110
6, 190080, Note_off_c, 4, 40, 64
6, 190080, Note_on_c, 4, 47, 110
6, 190464, Note_off_c, 4, 47, 64
6, 190464, Note_on_c, 4, 45, 110
6, 191040, Note_off_c, 4, 45, 64
6, 191040, Note_on_c, 4, 39, 110
6, 191232, Note_off_c, 4, 39, 64
6, 191424, Note_on_c, 4, 40, 110
6, 191616, Note_off_c, 4, 40, 64
6, 191616, Note_on_c, 4, 45, 110
6, 192192, Note_off_c, 4, 45, 64
6, 192192, Note_on_c, 4, 37, 110
6, 192576, Note_off_c, 4, 37, 64
6, 192576, Note_on_c, 4, 40, 110
6, 192768, Note_off_c, 4, 40, 64
6, 192768, Note_on_c, 4, 45, 110
6, 193152, Note_off_c, 4, 45, 64
6, 193152, Note_on_c, 4, 42, 110
6, 193536, Note_off_c, 4, 42, 64
6, 193536, Note_on_c, 4, 47, 110
6, 194112, Note_off_c, 4, 47, 64
6, 194112, Note_on_c, 4, 40, 110
6, 194304, Note_off_c, 4, 40, 64
6, 194496, Note_on_c, 4, 42, 110
6, 194688, Note_off_c, 4, 42, 64
6, 194688, Note_on_c, 4, 47, 110
6, 195264, Note_off_c, 4, 47, 64
6, 195264, Note_on_c, 4, 39, 110
6, 195648, Note_off_c, 4, 39, 64
6, 195648, Note_on_c, 4, 42, 110
6, 195840, Note_off_c, 4, 42, 64
6, 195840, Note_on_c, 4, 47, 110
6, 196224, Note_off_c, 4, 47, 64
6, 196224, Note_on_c, 4, 51, 110
6, 196608, Note_off_c, 4, 51, 64
6, 196608, Note_on_c, 4, 49, 110
6, 198912, Note_off_c, 4, 49, 64
6, 198912, Note_on_c, 4, 47, 110
6, 199680, Note_off_c, 4, 47, 64
6, 199680, Note_on_c, 4, 45, 110
6, 201984, Note_off_c, 4, 45, 64
6, 201984, Note_on_c, 4, 44, 110
6, 202752, Note_off_c, 4, 44, 64
6, 202752, Note_on_c, 4, 42, 110
6, 205056, Note_off_c, 4, 42, 64
6, 205056, Note_on_c, 4, 40, 110
6, 205824, Note_off_c, 4, 40, 64
6, 205824, Note_on_c, 4, 38, 110
6, 208896, Note_off_c, 4, 38, 64
6, 208896, Note_on_c, 4, 37, 110
6, 209088, Note_off_c, 4, 37, 64
6, 209472, Note_on_c, 4, 37, 110
6, 209664, Note_off_c, 4, 37, 64
6, 210048, Note_on_c, 4, 37, 110
6, 210240, Note_off_c, 4, 37, 64
6, 211200, Note_on_c, 4, 37, 110
6, 211392, Note_off_c, 4, 37, 64
6, 211776, Note_on_c, 4, 37, 110
6, 211968, Note_off_c, 4, 37, 64
6, 212352, Note_on_c, 4, 37, 110
6, 212544, Note_off_c, 4, 37, 64
6, 213504, Note_on_c, 4, 37, 110
6, 213696, Note_off_c, 4, 37, 64
6, 214080, Note_on_c, 4, 37, 110
6, 214272, Note_off_c, 4, 37, 64
6, 214656, Note_on_c, 4, 37, 110
6, 214848, Note_off_c, 4, 37, 64
6, 215808, Note_on_c, 4, 38, 110
6, 216000, Note_off_c, 4, 38, 64
6, 216384, Note_on_c, 4, 38, 110
6, 216576, Note_off_c, 4, 38, 64
6, 216960, Note_on_c, 4, 38, 110
6, 217152, Note_off_c, 4, 38, 64
6, 218112, Program_c, 4, 37
6, 218112, Note_on_c, 4, 37, 110
6, 218304, Note_off_c, 4, 37, 64
6, 218688, Note_on_c, 4, 37, 110
6, 218880, Note_off_c, 4, 37, 64
6, 219264, Note_on_c, 4, 37, 110
6, 219456, Note_off_c, 4, 37, 64
6, 219840, Note_on_c, 4, 37, 110
6, 220032, Note_off_c, 4, 37, 64
6, 220416, Note_on_c, 4, 37, 110
6, 220608, Note_off_c, 4, 37, 64
6, 220608, Note_on_c, 4, 39, 110
6, 220800, Note_off_c, 4, 39, 64
6, 220800, Note_on_c, 4, 40, 110
6, 220992, Note_off_c, 4, 40, 64
6, 221184, Note_on_c, 4, 37, 110
6, 221376, Note_off_c, 4, 37, 64
6, 221760, Note_on_c, 4, 37, 110
6, 221952, Note_off_c, 4, 37, 64
6, 222336, Note_on_c, 4, 37, 110
6, 222528, Note_off_c, 4, 37, 64
6, 222912, Note_on_c, 4, 37, 110
6, 223104, Note_off_c, 4, 37, 64
6, 223488, Note_on_c, 4, 37, 110
6, 223680, Note_off_c, 4, 37, 64
6, 223680, Note_on_c, 4, 39, 110
6, 223872, Note_off_c, 4, 39, 64
6, 223872, Note_on_c, 4, 40, 110
6, 224064, Note_off_c, 4, 40, 64
6, 224256, Program_c, 4, 37
6, 224256, Control_c, 4, 7, 86
6, 224256, Note_on_c, 4, 35, 110
6, 224352, Control_c, 4, 7, 85
6, 224448, Note_off_c, 4, 35, 64
6, 224544, Control_c, 4, 7, 84
6, 224736, Control_c, 4, 7, 83
6, 224832, Note_on_c, 4, 35, 110
6, 225024, Note_off_c, 4, 35, 64
6, 225024, Control_c, 4, 7, 82
6, 225216, Control_c, 4, 7, 81
6, 225408, Control_c, 4, 7, 80
6, 225408, Note_on_c, 4, 35, 110
6, 225600, Note_off_c, 4, 35, 64
6, 225600, Control_c, 4, 7, 79
6, 225888, Control_c, 4, 7, 78
6, 225984, Note_on_c, 4, 35, 110
6, 226080, Control_c, 4, 7, 77
6, 226176, Note_off_c, 4, 35, 64
6, 226272, Control_c, 4, 7, 76
6, 226560, Control_c, 4, 7, 75
6, 226560, Note_on_c, 4, 35, 110
6, 226752, Note_off_c, 4, 35, 64
6, 226752, Control_c, 4, 7, 74
6, 226752, Note_on_c, 4, 37, 110
6, 226944, Note_off_c, 4, 37, 64
6, 226944, Control_c, 4, 7, 73
6, 226944, Note_on_c, 4, 39, 110
6, 227136, Note_off_c, 4, 39, 64
6, 227136, Control_c, 4, 7, 72
6, 227328, Note_on_c, 4, 40, 110
6, 227424, Control_c, 4, 7, 71
6, 227520, Note_off_c, 4, 40, 64
6, 227616, Control_c, 4, 7, 70
6, 227808, Control_c, 4, 7, 69
6, 227904, Note_on_c, 4, 40, 110
6, 228000, Control_c, 4, 7, 68
6, 228096, Note_off_c, 4, 40, 64
6, 228288, Control_c, 4, 7, 67
6, 228480, Control_c, 4, 7, 66
6, 228480, Note_on_c, 4, 40, 110
6, 228672, Note_off_c, 4, 40, 64
6, 228672, Control_c, 4, 7, 65
6, 228864, Control_c, 4, 7, 64
6, 229056, Note_on_c, 4, 40, 110
6, 229152, Control_c, 4, 7, 63
6, 229248, Note_off_c, 4, 40, 64
6, 229344, Control_c, 4, 7, 62
6, 229536, Control_c, 4, 7, 61
6, 229632, Note_on_c, 4, 40, 110
6, 229728, Control_c, 4, 7, 60
6, 230016, Note_off_c, 4, 40, 64
6, 230016, Control_c, 4, 7, 59
6, 230016, Note_on_c, 4, 39, 110
6, 230208, Control_c, 4, 7, 58
6, 230400, Note_off_c, 4, 39, 64
6, 230400, Control_c, 4, 7, 57
6, 230400, Note_on_c, 4, 33, 110
6, 230592, Note_off_c, 4, 33, 64
6, 230592, Control_c, 4, 7, 56
6, 230880, Control_c, 4, 7, 55
6, 230976, Note_on_c, 4, 33, 110
6, 231072, Control_c, 4, 7, 54
6, 231168, Note_off_c, 4, 33, 64
6, 231264, Control_c, 4, 7, 53
6, 231552, Control_c, 4, 7, 52
6, 231552, Note_on_c, 4, 33, 110
6, 231744, Note_off_c, 4, 33, 64
6, 231744, Control_c, 4, 7, 51
6, 231936, Control_c, 4, 7, 50
6, 232128, Control_c, 4, 7, 49
6, 232128, Note_on_c, 4, 33, 110
6, 232320, Note_off_c, 4, 33, 64
6, 232416, Control_c, 4, 7, 48
6, 232608, Control_c, 4, 7, 47
6, 232704, Note_on_c, 4, 33, 110
6, 232800, Control_c, 4, 7, 46
6, 232896, Note_off_c, 4, 33, 64
6, 232896, Note_on_c, 4, 35, 110
6, 232992, Control_c, 4, 7, 45
6, 233088, Note_off_c, 4, 35, 64
6, 233088, Note_on_c, 4, 37, 110
6, 233280, Control_c, 4, 7, 44
6, 233472, Note_off_c, 4, 37, 64
6, 233472, Control_c, 4, 7, 43
6, 233472, Note_on_c, 4, 42, 110
6, 233664, Note_off_c, 4, 42, 64
6, 233664, Control_c, 4, 7, 42
6, 233856, Control_c, 4, 7, 41
6, 234048, Note_on_c, 4, 42, 110
6, 234144, Control_c, 4, 7, 40
6, 234240, Note_off_c, 4, 42, 64
6, 234336, Control_c, 4, 7, 39
6, 234528, Control_c, 4, 7, 38
6, 234624, Note_on_c, 4, 42, 110
6, 234720, Control_c, 4, 7, 37
6, 234816, Note_off_c, 4, 42, 64
6, 235008, Control_c, 4, 7, 36
6, 235200, Control_c, 4, 7, 35
6, 235200, Note_on_c, 4, 42, 110
6, 235392, Note_off_c, 4, 42, 64
6, 235392, Control_c, 4, 7, 34
6, 235584, Control_c, 4, 7, 33
6, 235776, Note_on_c, 4, 42, 110
6, 235872, Control_c, 4, 7, 32
6, 236064, Control_c, 4, 7, 31
6, 236160, Note_off_c, 4, 42, 64
6, 236160, Note_on_c, 4, 40, 110
6, 236256, Control_c, 4, 7, 30
6, 236544, Note_off_c, 4, 40, 64
6, 236544, Control_c, 4, 7, 29
6, 236544, Note_on_c, 4, 39, 110
6, 236736, Note_off_c, 4, 39, 64
6, 236736, Control_c, 4, 7, 28
6, 236928, Control_c, 4, 7, 27
6, 237120, Control_c, 4, 7, 26
6, 237120, Note_on_c, 4, 39, 110
6, 237312, Note_off_c, 4, 39, 64
6, 237408, Control_c, 4, 7, 25
6, 237600, Control_c, 4, 7, 24
6, 237696, Note_on_c, 4, 39, 110
6, 237792, Control_c, 4, 7, 23
6, 237888, Note_off_c, 4, 39, 64
6, 237984, Control_c, 4, 7, 22
6, 238272, Control_c, 4, 7, 21
6, 238272, Note_on_c, 4, 39, 110
6, 238464, Note_off_c, 4, 39, 64
6, 238464, Control_c, 4, 7, 20
6, 238656, Control_c, 4, 7, 19
6, 238848, Control_c, 4, 7, 18
6, 238848, Note_on_c, 4, 39, 110
6, 239040, Note_off_c, 4, 39, 64
6, 239040, Note_on_c, 4, 41, 110
6, 239136, Control_c, 4, 7, 17
6, 239232, Note_off_c, 4, 41, 64
6, 239232, Note_on_c, 4, 44, 110
6, 239328, Control_c, 4, 7, 16
6, 239424, Note_off_c, 4, 44, 64
6, 239424, Note_on_c, 4, 39, 110
6, 239520, Control_c, 4, 7, 15
6, 239616, Note_off_c, 4, 39, 64
6, 239616, Note_on_c, 4, 36, 110
6, 239712, Control_c, 4, 7, 14
6, 239808, Note_off_c, 4, 36, 64
6, 240000, Control_c, 4, 7, 13
6, 240192, Control_c, 4, 7, 12
6, 240192, Note_on_c, 4, 36, 110
6, 240384, Note_off_c, 4, 36, 64
6, 240384, Control_c, 4, 7, 11
6, 240576, Control_c, 4, 7, 10
6, 240768, Note_on_c, 4, 36, 110
6, 240864, Control_c, 4, 7, 9
6, 240960, Note_off_c, 4, 36, 64
6, 241056, Control_c, 4, 7, 8
6, 241152, Note_on_c, 4, 32, 110
6, 241248, Control_c, 4, 7, 7
6, 241344, Note_off_c, 4, 32, 64
6, 241536, Control_c, 4, 7, 6
6, 241728, Control_c, 4, 7, 5
6, 241728, Note_on_c, 4, 32, 110
6, 241920, Note_off_c, 4, 32, 64
6, 241920, Control_c, 4, 7, 4
6, 242112, Control_c, 4, 7, 3
6, 242304, Note_on_c, 4, 32, 110
6, 242400, Control_c, 4, 7, 2
6, 242496, Note_off_c, 4, 32, 64
6, 242592, Control_c, 4, 7, 1
6, 242688, End_track
7, 0, Start_track
7, 0, Title_t, "Composed:"
7, 0, Control_c, 5, 7, 90
7, 0, Program_c, 5, 81
7, 0, Control_c, 5, 10, 48
7, 0, Control_c, 5, 91, 81
7, 18432, Control_c, 5, 7, 90
7, 18432, Program_c, 5, 81
7, 18432, Control_c, 5, 7, 45
7, 18432, Note_on_c, 5, 61, 110
7, 18624, Note_off_c, 5, 61, 64
7, 18624, Control_c, 5, 7, 46
7, 18624, Note_on_c, 5, 61, 96
7, 18720, Note_off_c, 5, 61, 64
7, 18720, Control_c, 5, 7, 47
7, 18816, Note_on_c, 5, 61, 64
7, 18912, Note_off_c, 5, 61, 64
7, 18912, Control_c, 5, 7, 48
7, 19008, Control_c, 5, 7, 49
7, 19008, Note_on_c, 5, 61, 110
7, 19200, Note_off_c, 5, 61, 64
7, 19200, Control_c, 5, 7, 50
7, 19200, Note_on_c, 5, 61, 96
7, 19296, Note_off_c, 5, 61, 64
7, 19392, Control_c, 5, 7, 51
7, 19392, Note_on_c, 5, 61, 64
7, 19488, Note_off_c, 5, 61, 64
7, 19584, Note_on_c, 5, 61, 110
7, 19680, Control_c, 5, 7, 53
7, 19776, Note_off_c, 5, 61, 64
7, 19776, Note_on_c, 5, 61, 96
7, 19872, Note_off_c, 5, 61, 64
7, 19968, Control_c, 5, 7, 54
7, 19968, Note_on_c, 5, 61, 110
7, 20064, Note_off_c, 5, 61, 64
7, 20064, Control_c, 5, 7, 55
7, 20160, Note_on_c, 5, 61, 96
7, 20256, Note_off_c, 5, 61, 64
7, 20256, Control_c, 5, 7, 56
7, 20352, Note_on_c, 5, 61, 110
7, 20448, Note_off_c, 5, 61, 64
7, 20448, Control_c, 5, 7, 57
7, 20544, Control_c, 5, 7, 58
7, 20544, Note_on_c, 5, 61, 96
7, 20640, Note_off_c, 5, 61, 64
7, 20736, Control_c, 5, 7, 59
7, 20736, Note_on_c, 5, 61, 110
7, 20928, Note_off_c, 5, 61, 64
7, 20928, Note_on_c, 5, 61, 96
7, 21024, Note_off_c, 5, 61, 64
7, 21024, Control_c, 5, 7, 61
7, 21120, Note_on_c, 5, 61, 64
7, 21216, Note_off_c, 5, 61, 64
7, 21312, Control_c, 5, 7, 62
7, 21312, Note_on_c, 5, 61, 110
7, 21504, Note_off_c, 5, 61, 64
7, 21504, Control_c, 5, 7, 63
7, 21504, Note_on_c, 5, 61, 96
7, 21600, Note_off_c, 5, 61, 64
7, 21600, Control_c, 5, 7, 64
7, 21696, Note_on_c, 5, 61, 64
7, 21792, Note_off_c, 5, 61, 64
7, 21792, Control_c, 5, 7, 65
7, 21888, Control_c, 5, 7, 66
7, 21888, Note_on_c, 5, 61, 110
7, 22080, Note_off_c, 5, 61, 64
7, 22080, Control_c, 5, 7, 67
7, 22080, Note_on_c, 5, 61, 96
7, 22176, Note_off_c, 5, 61, 64
7, 22272, Note_on_c, 5, 61, 110
7, 22368, Note_off_c, 5, 61, 64
7, 22368, Control_c, 5, 7, 69
7, 22464, Note_on_c, 5, 61, 96
7, 22560, Note_off_c, 5, 61, 64
7, 22560, Control_c, 5, 7, 70
7, 22656, Note_on_c, 5, 61, 110
7, 22752, Note_off_c, 5, 61, 64
7, 22848, Control_c, 5, 7, 71
7, 22848, Note_on_c, 5, 61, 96
7, 22944, Note_off_c, 5, 61, 64
7, 23040, Note_on_c, 5, 61, 110
7, 23136, Control_c, 5, 7, 73
7, 23232, Note_off_c, 5, 61, 64
7, 23232, Control_c, 5, 7, 74
7, 23232, Note_on_c, 5, 61, 96
7, 23328, Note_off_c, 5, 61, 64
7, 23424, Control_c, 5, 7, 75
7, 23424, Note_on_c, 5, 61, 64
7, 23520, Note_off_c, 5, 61, 64
7, 23616, Control_c, 5, 7, 76
7, 23616, Note_on_c, 5, 61, 110
7, 23712, Control_c, 5, 7, 77
7, 23808, Note_off_c, 5, 61, 64
7, 23808, Note_on_c, 5, 61, 96
7, 23904, Note_off_c, 5, 61, 64
7, 23904, Control_c, 5, 7, 78
7, 24000, Note_on_c, 5, 61, 64
7, 24096, Note_off_c, 5, 61, 64
7, 24192, Control_c, 5, 7, 79
7, 24192, Note_on_c, 5, 61, 110
7, 24288, Control_c, 5, 7, 80
7, 24384, Note_off_c, 5, 61, 64
7, 24384, Note_on_c, 5, 61, 96
7, 24480, Note_off_c, 5, 61, 64
7, 24480, Control_c, 5, 7, 81
7, 24576, Note_on_c, 5, 61, 110
7, 24672, Note_off_c, 5, 61, 64
7, 24672, Control_c, 5, 7, 82
7, 24768, Note_on_c, 5, 61, 96
7, 24864, Note_off_c, 5, 61, 64
7, 24960, Control_c, 5, 7, 84
7, 24960, Note_on_c, 5, 61, 110
7, 25056, Note_off_c, 5, 61, 64
7, 25056, Control_c, 5, 7, 85
7, 25152, Note_on_c, 5, 61, 96
7, 25248, Note_off_c, 5, 61, 64
7, 25248, Control_c, 5, 7, 86
7, 25344, Note_on_c, 5, 59, 110
7, 25440, Control_c, 5, 7, 87
7, 25536, Note_off_c, 5, 59, 64
7, 25536, Note_on_c, 5, 59, 96
7, 25632, Note_off_c, 5, 59, 64
7, 25632, Control_c, 5, 7, 88
7, 25728, Control_c, 5, 7, 89
7, 25728, Note_on_c, 5, 59, 64
7, 25824, Note_off_c, 5, 59, 64
7, 25920, Control_c, 5, 7, 90
7, 25920, Note_on_c, 5, 59, 110
7, 26112, Note_off_c, 5, 59, 64
7, 26112, Control_c, 5, 7, 91
7, 26112, Note_on_c, 5, 59, 96
7, 26208, Note_off_c, 5, 59, 64
7, 26304, Control_c, 5, 7, 92
7, 26304, Note_on_c, 5, 59, 64
7, 26400, Note_off_c, 5, 59, 64
7, 26400, Control_c, 5, 7, 93
7, 26496, Note_on_c, 5, 59, 110
7, 26592, Control_c, 5, 7, 94
7, 26688, Note_off_c, 5, 59, 64
7, 26688, Note_on_c, 5, 59, 96
7, 26784, Note_off_c, 5, 59, 64
7, 26784, Control_c, 5, 7, 95
7, 26880, Note_on_c, 5, 59, 110
7, 26976, Note_off_c, 5, 59, 64
7, 26976, Control_c, 5, 7, 96
7, 27072, Control_c, 5, 7, 97
7, 27072, Note_on_c, 5, 59, 96
7, 27168, Note_off_c, 5, 59, 64
7, 27264, Control_c, 5, 7, 98
7, 27264, Note_on_c, 5, 59, 110
7, 27360, Note_off_c, 5, 59, 64
7, 27456, Control_c, 5, 7, 99
7, 27456, Note_on_c, 5, 59, 96
7, 27552, Note_off_c, 5, 59, 64
7, 27648, Control_c, 5, 7, 90
7, 27648, Program_c, 5, 81
7, 27648, Note_on_c, 5, 61, 110
7, 27648, Control_c, 5, 7, 100
7, 27744, Note_off_c, 5, 61, 64
7, 27840, Note_on_c, 5, 61, 96
7, 27936, Note_off_c, 5, 61, 64
7, 28032, Note_on_c, 5, 61, 64
7, 28128, Note_off_c, 5, 61, 64
7, 28224, Note_on_c, 5, 61, 110
7, 28320, Note_off_c, 5, 61, 64
7, 28416, Note_on_c, 5, 61, 96
7, 28512, Note_off_c, 5, 61, 64
7, 28608, Note_on_c, 5, 61, 64
7, 28704, Note_off_c, 5, 61, 64
7, 28800, Note_on_c, 5, 61, 110
7, 28896, Note_off_c, 5, 61, 64
7, 28992, Note_on_c, 5, 61, 96
7, 29088, Note_off_c, 5, 61, 64
7, 29184, Note_on_c, 5, 61, 110
7, 29280, Note_off_c, 5, 61, 64
7, 29376, Note_on_c, 5, 61, 96
7, 29472, Note_off_c, 5, 61, 64
7, 29568, Note_on_c, 5, 61, 110
7, 29664, Note_off_c, 5, 61, 64
7, 29760, Note_on_c, 5, 61, 96
7, 29856, Note_off_c, 5, 61, 64
7, 29952, Note_on_c, 5, 61, 110
7, 30048, Note_off_c, 5, 61, 64
7, 30144, Note_on_c, 5, 61, 96
7, 30240, Note_off_c, 5, 61, 64
7, 30336, Note_on_c, 5, 61, 64
7, 30432, Note_off_c, 5, 61, 64
7, 30528, Note_on_c, 5, 61, 110
7, 30624, Note_off_c, 5, 61, 64
7, 30720, Note_on_c, 5, 61, 96
7, 30816, Note_off_c, 5, 61, 64
7, 30912, Note_on_c, 5, 61, 64
7, 31008, Note_off_c, 5, 61, 64
7, 31104, Note_on_c, 5, 61, 110
7, 31200, Note_off_c, 5, 61, 64
7, 31296, Note_on_c, 5, 61, 96
7, 31392, Note_off_c, 5, 61, 64
7, 31488, Note_on_c, 5, 61, 110
7, 31584, Note_off_c, 5, 61, 64
7, 31680, Note_on_c, 5, 61, 96
7, 31776, Note_off_c, 5, 61, 64
7, 31872, Note_on_c, 5, 61, 110
7, 31968, Note_off_c, 5, 61, 64
7, 32064, Note_on_c, 5, 61, 96
7, 32160, Note_off_c, 5, 61, 64
7, 32256, Note_on_c, 5, 61, 110
7, 32352, Note_off_c, 5, 61, 64
7, 32448, Note_on_c, 5, 61, 96
7, 32544, Note_off_c, 5, 61, 64
7, 32640, Note_on_c, 5, 61, 110
7, 32736, Note_off_c, 5, 61, 64
7, 32832, Note_on_c, 5, 61, 96
7, 32928, Note_off_c, 5, 61, 64
7, 33024, Note_on_c, 5, 61, 110
7, 33120, Note_off_c, 5, 61, 64
7, 33216, Note_on_c, 5, 61, 96
7, 33312, Note_off_c, 5, 61, 64
7, 33408, Note_on_c, 5, 61, 64
7, 33504, Note_off_c, 5, 61, 64
7, 33600, Note_on_c, 5, 61, 110
7, 33696, Note_off_c, 5, 61, 64
7, 33792, Control_c, 5, 7, 90
7, 33792, Program_c, 5, 81
7, 33792, Note_on_c, 5, 59, 110
7, 33888, Note_off_c, 5, 59, 64
7, 33984, Note_on_c, 5, 59, 96
7, 34080, Note_off_c, 5, 59, 64
7, 34176, Note_on_c, 5, 59, 64
7, 34272, Note_off_c, 5, 59, 64
7, 34368, Note_on_c, 5, 59, 110
7, 34464, Note_off_c, 5, 59, 64
7, 34560, Note_on_c, 5, 59, 96
7, 34656, Note_off_c, 5, 59, 64
7, 34752, Note_on_c, 5, 59, 64
7, 34848, Note_off_c, 5, 59, 64
7, 34944, Note_on_c, 5, 59, 110
7, 35040, Note_off_c, 5, 59, 64
7, 35136, Note_on_c, 5, 59, 96
7, 35232, Note_off_c, 5, 59, 64
7, 35328, Note_on_c, 5, 59, 110
7, 35424, Note_off_c, 5, 59, 64
7, 35520, Note_on_c, 5, 59, 96
7, 35616, Note_off_c, 5, 59, 64
7, 35712, Note_on_c, 5, 59, 110
7, 35808, Note_off_c, 5, 59, 64
7, 35904, Note_on_c, 5, 59, 96
7, 36000, Note_off_c, 5, 59, 64
7, 36096, Note_on_c, 5, 59, 110
7, 36192, Note_off_c, 5, 59, 64
7, 36288, Note_on_c, 5, 59, 96
7, 36384, Note_off_c, 5, 59, 64
7, 36480, Note_on_c, 5, 59, 64
7, 36576, Note_off_c, 5, 59, 64
7, 36672, Note_on_c, 5, 59, 110
7, 36768, Note_off_c, 5, 59, 64
7, 36864, Note_on_c, 5, 59, 96
7, 36960, Note_off_c, 5, 59, 64
7, 37056, Note_on_c, 5, 59, 64
7, 37152, Note_off_c, 5, 59, 64
7, 37248, Note_on_c, 5, 59, 110
7, 37344, Note_off_c, 5, 59, 64
7, 37440, Note_on_c, 5, 59, 96
7, 37536, Note_off_c, 5, 59, 64
7, 37632, Note_on_c, 5, 59, 110
7, 37728, Note_off_c, 5, 59, 64
7, 37824, Note_on_c, 5, 59, 96
7, 37920, Note_off_c, 5, 59, 64
7, 38016, Note_on_c, 5, 59, 110
7, 38112, Note_off_c, 5, 59, 64
7, 38208, Note_on_c, 5, 59, 96
7, 38304, Note_off_c, 5, 59, 64
7, 38400, Note_on_c, 5, 59, 110
7, 38496, Note_off_c, 5, 59, 64
7, 38592, Note_on_c, 5, 59, 96
7, 38688, Note_off_c, 5, 59, 64
7, 38784, Note_on_c, 5, 59, 110
7, 38880, Note_off_c, 5, 59, 64
7, 38976, Note_on_c, 5, 59, 96
7, 39072, Note_off_c, 5, 59, 64
7, 39168, Note_on_c, 5, 59, 110
7, 39264, Note_off_c, 5, 59, 64
7, 39360, Note_on_c, 5, 59, 96
7, 39456, Note_off_c, 5, 59, 64
7, 39552, Note_on_c, 5, 59, 64
7, 39648, Note_off_c, 5, 59, 64
7, 39744, Note_on_c, 5, 59, 110
7, 39840, Note_off_c, 5, 59, 64
7, 39936, Control_c, 5, 7, 90
7, 39936, Program_c, 5, 81
7, 39936, Note_on_c, 5, 61, 110
7, 40032, Note_off_c, 5, 61, 64
7, 40128, Note_on_c, 5, 61, 96
7, 40224, Note_off_c, 5, 61, 64
7, 40320, Note_on_c, 5, 61, 64
7, 40416, Note_off_c, 5, 61, 64
7, 40512, Note_on_c, 5, 61, 110
7, 40608, Note_off_c, 5, 61, 64
7, 40704, Note_on_c, 5, 61, 96
7, 40800, Note_off_c, 5, 61, 64
7, 40896, Note_on_c, 5, 61, 64
7, 40992, Note_off_c, 5, 61, 64
7, 41088, Note_on_c, 5, 61, 110
7, 41184, Note_off_c, 5, 61, 64
7, 41280, Note_on_c, 5, 61, 96
7, 41376, Note_off_c, 5, 61, 64
7, 41472, Note_on_c, 5, 61, 110
7, 41568, Note_off_c, 5, 61, 64
7, 41664, Note_on_c, 5, 61, 96
7, 41760, Note_off_c, 5, 61, 64
7, 41856, Note_on_c, 5, 61, 110
7, 41952, Note_off_c, 5, 61, 64
7, 42048, Note_on_c, 5, 61, 96
7, 42144, Note_off_c, 5, 61, 64
7, 42240, Note_on_c, 5, 61, 110
7, 42336, Note_off_c, 5, 61, 64
7, 42432, Note_on_c, 5, 61, 96
7, 42528, Note_off_c, 5, 61, 64
7, 42624, Note_on_c, 5, 61, 64
7, 42720, Note_off_c, 5, 61, 64
7, 42816, Note_on_c, 5, 61, 110
7, 42912, Note_off_c, 5, 61, 64
7, 43008, Note_on_c, 5, 61, 96
7, 43104, Note_off_c, 5, 61, 64
7, 43200, Note_on_c, 5, 61, 64
7, 43296, Note_off_c, 5, 61, 64
7, 43392, Note_on_c, 5, 61, 110
7, 43488, Note_off_c, 5, 61, 64
7, 43584, Note_on_c, 5, 61, 96
7, 43680, Note_off_c, 5, 61, 64
7, 43776, Note_on_c, 5, 61, 110
7, 43872, Note_off_c, 5, 61, 64
7, 43968, Note_on_c, 5, 61, 96
7, 44064, Note_off_c, 5, 61, 64
7, 44160, Note_on_c, 5, 61, 110
7, 44256, Note_off_c, 5, 61, 64
7, 44352, Note_on_c, 5, 61, 96
7, 44448, Note_off_c, 5, 61, 64
7, 44544, Note_on_c, 5, 61, 110
7, 44640, Note_off_c, 5, 61, 64
7, 44736, Note_on_c, 5, 61, 96
7, 44832, Note_off_c, 5, 61, 64
7, 44928, Note_on_c, 5, 61, 110
7, 45024, Note_off_c, 5, 61, 64
7, 45120, Note_on_c, 5, 61, 96
7, 45216, Note_off_c, 5, 61, 64
7, 45312, Note_on_c, 5, 61, 110
7, 45408, Note_off_c, 5, 61, 64
7, 45504, Note_on_c, 5, 61, 96
7, 45600, Note_off_c, 5, 61, 64
7, 45696, Note_on_c, 5, 61, 64
7, 45792, Note_off_c, 5, 61, 64
7, 45888, Note_on_c, 5, 61, 110
7, 45984, Note_off_c, 5, 61, 64
7, 46080, Control_c, 5, 7, 90
7, 46080, Program_c, 5, 81
7, 46080, Note_on_c, 5, 61, 110
7, 46176, Note_off_c, 5, 61, 64
7, 46272, Note_on_c, 5, 61, 96
7, 46368, Note_off_c, 5, 61, 64
7, 46464, Note_on_c, 5, 61, 64
7, 46560, Note_off_c, 5, 61, 64
7, 46656, Note_on_c, 5, 61, 110
7, 46752, Note_off_c, 5, 61, 64
7, 46848, Note_on_c, 5, 61, 96
7, 46944, Note_off_c, 5, 61, 64
7, 47040, Note_on_c, 5, 61, 64
7, 47136, Note_off_c, 5, 61, 64
7, 47232, Note_on_c, 5, 61, 110
7, 47328, Note_off_c, 5, 61, 64
7, 47424, Note_on_c, 5, 61, 96
7, 47520, Note_off_c, 5, 61, 64
7, 47616, Note_on_c, 5, 61, 110
7, 47712, Note_off_c, 5, 61, 64
7, 47808, Note_on_c, 5, 61, 96
7, 47904, Note_off_c, 5, 61, 64
7, 48000, Note_on_c, 5, 61, 110
7, 48096, Note_off_c, 5, 61, 64
7, 48192, Note_on_c, 5, 61, 96
7, 48288, Note_off_c, 5, 61, 64
7, 48384, Note_on_c, 5, 61, 110
7, 48480, Note_off_c, 5, 61, 64
7, 48576, Note_on_c, 5, 61, 96
7, 48672, Note_off_c, 5, 61, 64
7, 48768, Note_on_c, 5, 61, 64
7, 48864, Note_off_c, 5, 61, 64
7, 48960, Note_on_c, 5, 61, 110
7, 49056, Note_off_c, 5, 61, 64
7, 49152, Note_on_c, 5, 63, 96
7, 49248, Note_off_c, 5, 63, 64
7, 49344, Note_on_c, 5, 63, 64
7, 49440, Note_off_c, 5, 63, 64
7, 49536, Note_on_c, 5, 63, 110
7, 49632, Note_off_c, 5, 63, 64
7, 49728, Note_on_c, 5, 63, 96
7, 49824, Note_off_c, 5, 63, 64
7, 49920, Note_on_c, 5, 63, 110
7, 50016, Note_off_c, 5, 63, 64
7, 50112, Note_on_c, 5, 63, 96
7, 50208, Note_off_c, 5, 63, 64
7, 50304, Note_on_c, 5, 63, 110
7, 50400, Note_off_c, 5, 63, 64
7, 50496, Note_on_c, 5, 63, 96
7, 50592, Note_off_c, 5, 63, 64
7, 50688, Note_on_c, 5, 63, 110
7, 50784, Note_off_c, 5, 63, 64
7, 50880, Note_on_c, 5, 63, 96
7, 50976, Note_off_c, 5, 63, 64
7, 51072, Note_on_c, 5, 63, 110
7, 51168, Note_off_c, 5, 63, 64
7, 51264, Note_on_c, 5, 63, 96
7, 51360, Note_off_c, 5, 63, 64
7, 51456, Note_on_c, 5, 63, 110
7, 51552, Note_off_c, 5, 63, 64
7, 51648, Note_on_c, 5, 63, 96
7, 51744, Note_off_c, 5, 63, 64
7, 51840, Note_on_c, 5, 63, 64
7, 51936, Note_off_c, 5, 63, 64
7, 52032, Note_on_c, 5, 63, 110
7, 52128, Note_off_c, 5, 63, 64
7, 79872, Control_c, 5, 7, 90
7, 79872, Program_c, 5, 81
7, 79872, Note_on_c, 5, 61, 110
7, 79968, Note_off_c, 5, 61, 64
7, 80064, Note_on_c, 5, 61, 96
7, 80160, Note_off_c, 5, 61, 64
7, 80256, Note_on_c, 5, 61, 64
7, 80352, Note_off_c, 5, 61, 64
7, 80448, Note_on_c, 5, 61, 110
7, 80544, Note_off_c, 5, 61, 64
7, 80640, Note_on_c, 5, 61, 96
7, 80736, Note_off_c, 5, 61, 64
7, 80832, Note_on_c, 5, 61, 64
7, 80928, Note_off_c, 5, 61, 64
7, 81024, Note_on_c, 5, 61, 110
7, 81120, Note_off_c, 5, 61, 64
7, 81216, Note_on_c, 5, 61, 96
7, 81312, Note_off_c, 5, 61, 64
7, 81408, Note_on_c, 5, 61, 110
7, 81504, Note_off_c, 5, 61, 64
7, 81600, Note_on_c, 5, 61, 96
7, 81696, Note_off_c, 5, 61, 64
7, 81792, Note_on_c, 5, 61, 110
7, 81888, Note_off_c, 5, 61, 64
7, 81984, Note_on_c, 5, 61, 96
7, 82080, Note_off_c, 5, 61, 64
7, 82176, Note_on_c, 5, 61, 110
7, 82272, Note_off_c, 5, 61, 64
7, 82368, Note_on_c, 5, 61, 96
7, 82464, Note_off_c, 5, 61, 64
7, 82560, Note_on_c, 5, 61, 64
7, 82656, Note_off_c, 5, 61, 64
7, 82752, Note_on_c, 5, 61, 110
7, 82848, Note_off_c, 5, 61, 64
7, 82944, Note_on_c, 5, 61, 96
7, 83040, Note_off_c, 5, 61, 64
7, 83136, Note_on_c, 5, 61, 64
7, 83232, Note_off_c, 5, 61, 64
7, 83328, Note_on_c, 5, 61, 110
7, 83424, Note_off_c, 5, 61, 64
7, 83520, Note_on_c, 5, 61, 96
7, 83616, Note_off_c, 5, 61, 64
7, 83712, Note_on_c, 5, 61, 110
7, 83808, Note_off_c, 5, 61, 64
7, 83904, Note_on_c, 5, 61, 96
7, 84000, Note_off_c, 5, 61, 64
7, 84096, Note_on_c, 5, 61, 110
7, 84192, Note_off_c, 5, 61, 64
7, 84288, Note_on_c, 5, 61, 96
7, 84384, Note_off_c, 5, 61, 64
7, 84480, Note_on_c, 5, 61, 110
7, 84576, Note_off_c, 5, 61, 64
7, 84672, Note_on_c, 5, 61, 96
7, 84768, Note_off_c, 5, 61, 64
7, 84864, Note_on_c, 5, 61, 110
7, 84960, Note_off_c, 5, 61, 64
7, 85056, Note_on_c, 5, 61, 96
7, 85152, Note_off_c, 5, 61, 64
7, 85248, Note_on_c, 5, 61, 110
7, 85344, Note_off_c, 5, 61, 64
7, 85440, Note_on_c, 5, 61, 96
7, 85536, Note_off_c, 5, 61, 64
7, 85632, Note_on_c, 5, 61, 64
7, 85728, Note_off_c, 5, 61, 64
7, 85824, Note_on_c, 5, 61, 110
7, 85920, Note_off_c, 5, 61, 64
7, 89088, Control_c, 5, 7, 90
7, 89088, Program_c, 5, 81
7, 89088, Note_on_c, 5, 59, 110
7, 89184, Note_off_c, 5, 59, 64
7, 89280, Note_on_c, 5, 59, 96
7, 89376, Note_off_c, 5, 59, 64
7, 89472, Note_on_c, 5, 59, 64
7, 89568, Note_off_c, 5, 59, 64
7, 89664, Note_on_c, 5, 59, 110
7, 89760, Note_off_c, 5, 59, 64
7, 89856, Note_on_c, 5, 59, 96
7, 89952, Note_off_c, 5, 59, 64
7, 90048, Note_on_c, 5, 59, 64
7, 90144, Note_off_c, 5, 59, 64
7, 90240, Note_on_c, 5, 59, 110
7, 90336, Note_off_c, 5, 59, 64
7, 90432, Note_on_c, 5, 59, 96
7, 90528, Note_off_c, 5, 59, 64
7, 90624, Note_on_c, 5, 59, 110
7, 90720, Note_off_c, 5, 59, 64
7, 90816, Note_on_c, 5, 59, 96
7, 90912, Note_off_c, 5, 59, 64
7, 91008, Note_on_c, 5, 59, 110
7, 91104, Note_off_c, 5, 59, 64
7, 91200, Note_on_c, 5, 59, 96
7, 91296, Note_off_c, 5, 59, 64
7, 91392, Note_on_c, 5, 59, 110
7, 91488, Note_off_c, 5, 59, 64
7, 91584, Note_on_c, 5, 59, 96
7, 91680, Note_off_c, 5, 59, 64
7, 91776, Note_on_c, 5, 59, 64
7, 91872, Note_off_c, 5, 59, 64
7, 91968, Note_on_c, 5, 59, 110
7, 92064, Note_off_c, 5, 59, 64
7, 92160, Note_on_c, 5, 59, 96
7, 92256, Note_off_c, 5, 59, 64
7, 92352, Note_on_c, 5, 59, 64
7, 92448, Note_off_c, 5, 59, 64
7, 92544, Note_on_c, 5, 59, 110
7, 92640, Note_off_c, 5, 59, 64
7, 92736, Note_on_c, 5, 59, 96
7, 92832, Note_off_c, 5, 59, 64
7, 92928, Note_on_c, 5, 59, 110
7, 93024, Note_off_c, 5, 59, 64
7, 93120, Note_on_c, 5, 59, 96
7, 93216, Note_off_c, 5, 59, 64
7, 93312, Note_on_c, 5, 59, 110
7, 93408, Note_off_c, 5, 59, 64
7, 93504, Note_on_c, 5, 59, 96
7, 93600, Note_off_c, 5, 59, 64
7, 93696, Note_on_c, 5, 59, 110
7, 93792, Note_off_c, 5, 59, 64
7, 93888, Note_on_c, 5, 59, 96
7, 93984, Note_off_c, 5, 59, 64
7, 94080, Note_on_c, 5, 59, 110
7, 94176, Note_off_c, 5, 59, 64
7, 94272, Note_on_c, 5, 59, 96
7, 94368, Note_off_c, 5, 59, 64
7, 94464, Note_on_c, 5, 59, 110
7, 94560, Note_off_c, 5, 59, 64
7, 94656, Note_on_c, 5, 59, 96
7, 94752, Note_off_c, 5, 59, 64
7, 94848, Note_on_c, 5, 59, 64
7, 94944, Note_off_c, 5, 59, 64
7, 95040, Note_on_c, 5, 59, 110
7, 95136, Note_off_c, 5, 59, 64
7, 95232, Control_c, 5, 7, 90
7, 95424, Note_on_c, 5, 69, 110
7, 95616, Note_off_c, 5, 69, 64
7, 95616, Note_on_c, 5, 71, 110
7, 95808, Note_off_c, 5, 71, 64
7, 95808, Note_on_c, 5, 73, 110
7, 96000, Note_off_c, 5, 73, 64
7, 96000, Note_on_c, 5, 75, 110
7, 96384, Note_off_c, 5, 75, 64
7, 96384, Note_on_c, 5, 73, 110
7, 96576, Note_off_c, 5, 73, 64
7, 96576, Note_on_c, 5, 75, 110
7, 96768, Note_off_c, 5, 75, 64
7, 96768, Note_on_c, 5, 76, 110
7, 97152, Note_off_c, 5, 76, 64
7, 97152, Note_on_c, 5, 75, 110
7, 97344, Note_off_c, 5, 75, 64
7, 97344, Note_on_c, 5, 76, 110
7, 97536, Note_off_c, 5, 76, 64
7, 97536, Note_on_c, 5, 78, 110
7, 97824, Note_off_c, 5, 78, 64
7, 97824, Note_on_c, 5, 76, 110
7, 98112, Note_off_c, 5, 76, 64
7, 98112, Note_on_c, 5, 78, 110
7, 98304, Note_off_c, 5, 78, 64
7, 98496, Note_on_c, 5, 71, 110
7, 98688, Note_off_c, 5, 71, 64
7, 98688, Note_on_c, 5, 73, 110
7, 98880, Note_off_c, 5, 73, 64
7, 98880, Note_on_c, 5, 75, 110
7, 99072, Note_off_c, 5, 75, 64
7, 99072, Note_on_c, 5, 76, 110
7, 99456, Note_off_c, 5, 76, 64
7, 99456, Note_on_c, 5, 75, 110
7, 99648, Note_off_c, 5, 75, 64
7, 99648, Note_on_c, 5, 76, 110
7, 99840, Note_off_c, 5, 76, 64
7, 99840, Note_on_c, 5, 78, 110
7, 100224, Note_off_c, 5, 78, 64
7, 100224, Note_on_c, 5, 76, 110
7, 100416, Note_off_c, 5, 76, 64
7, 100416, Note_on_c, 5, 78, 110
7, 100608, Note_off_c, 5, 78, 64
7, 100608, Note_on_c, 5, 83, 110
7, 100896, Note_off_c, 5, 83, 64
7, 100896, Note_on_c, 5, 81, 110
7, 101184, Note_off_c, 5, 81, 64
7, 101184, Note_on_c, 5, 83, 110
7, 101376, Note_off_c, 5, 83, 64
7, 101376, Control_c, 5, 7, 90
7, 101376, Program_c, 5, 81
7, 102912, Note_on_c, 5, 88, 120
7, 103104, Note_off_c, 5, 88, 64
7, 103104, Note_on_c, 5, 85, 112
7, 103296, Note_off_c, 5, 85, 64
7, 103296, Note_on_c, 5, 80, 104
7, 103488, Note_off_c, 5, 80, 64
7, 103488, Note_on_c, 5, 76, 96
7, 103680, Note_off_c, 5, 76, 64
7, 103680, Note_on_c, 5, 73, 88
7, 103872, Note_off_c, 5, 73, 64
7, 103872, Note_on_c, 5, 68, 80
7, 104064, Note_off_c, 5, 68, 64
7, 104064, Note_on_c, 5, 64, 72
7, 104256, Note_off_c, 5, 64, 64
7, 104256, Note_on_c, 5, 61, 64
7, 104448, Note_off_c, 5, 61, 64
7, 105984, Note_on_c, 5, 88, 120
7, 106176, Note_off_c, 5, 88, 64
7, 106176, Note_on_c, 5, 85, 112
7, 106368, Note_off_c, 5, 85, 64
7, 106368, Note_on_c, 5, 80, 104
7, 106560, Note_off_c, 5, 80, 64
7, 106560, Note_on_c, 5, 76, 96
7, 106752, Note_off_c, 5, 76, 64
7, 106752, Note_on_c, 5, 73, 88
7, 106944, Note_off_c, 5, 73, 64
7, 106944, Note_on_c, 5, 68, 80
7, 107136, Note_off_c, 5, 68, 64
7, 107136, Note_on_c, 5, 64, 72
7, 107328, Note_off_c, 5, 64, 64
7, 107328, Note_on_c, 5, 61, 64
7, 107520, Note_off_c, 5, 61, 64
7, 107520, Control_c, 5, 7, 90
7, 107520, Program_c, 5, 81
7, 109056, Note_on_c, 5, 90, 120
7, 109248, Note_off_c, 5, 90, 64
7, 109248, Note_on_c, 5, 85, 112
7, 109440, Note_off_c, 5, 85, 64
7, 109440, Note_on_c, 5, 81, 104
7, 109632, Note_off_c, 5, 81, 64
7, 109632, Note_on_c, 5, 78, 96
7, 109824, Note_off_c, 5, 78, 64
7, 109824, Note_on_c, 5, 76, 88
7, 110016, Note_off_c, 5, 76, 64
7, 110016, Note_on_c, 5, 73, 80
7, 110208, Note_off_c, 5, 73, 64
7, 110208, Note_on_c, 5, 68, 72
7, 110400, Note_off_c, 5, 68, 64
7, 110400, Note_on_c, 5, 64, 64
7, 110592, Note_off_c, 5, 64, 64
7, 112128, Note_on_c, 5, 90, 120
7, 112320, Note_off_c, 5, 90, 64
7, 112320, Note_on_c, 5, 85, 112
7, 112512, Note_off_c, 5, 85, 64
7, 112512, Note_on_c, 5, 81, 104
7, 112704, Note_off_c, 5, 81, 64
7, 112704, Note_on_c, 5, 78, 96
7, 112896, Note_off_c, 5, 78, 64
7, 112896, Note_on_c, 5, 76, 88
7, 113088, Note_off_c, 5, 76, 64
7, 113088, Note_on_c, 5, 73, 80
7, 113280, Note_off_c, 5, 73, 64
7, 113280, Note_on_c, 5, 71, 72
7, 113472, Note_off_c, 5, 71, 64
7, 113472, Note_on_c, 5, 68, 64
7, 113664, Note_off_c, 5, 68, 64
7, 113664, Control_c, 5, 7, 90
7, 113664, Program_c, 5, 81
7, 113664, Note_on_c, 5, 61, 110
7, 113856, Note_off_c, 5, 61, 64
7, 113856, Note_on_c, 5, 61, 96
7, 113952, Note_off_c, 5, 61, 64
7, 114048, Note_on_c, 5, 61, 64
7, 114144, Note_off_c, 5, 61, 64
7, 114240, Note_on_c, 5, 61, 110
7, 114432, Note_off_c, 5, 61, 64
7, 114432, Note_on_c, 5, 61, 96
7, 114528, Note_off_c, 5, 61, 64
7, 114624, Note_on_c, 5, 61, 64
7, 114720, Note_off_c, 5, 61, 64
7, 114816, Note_on_c, 5, 61, 110
7, 115008, Note_off_c, 5, 61, 64
7, 115008, Note_on_c, 5, 61, 96
7, 115104, Note_off_c, 5, 61, 64
7, 115200, Note_on_c, 5, 61, 110
7, 115296, Note_off_c, 5, 61, 64
7, 115392, Note_on_c, 5, 61, 96
7, 115488, Note_off_c, 5, 61, 64
7, 115584, Note_on_c, 5, 61, 110
7, 115680, Note_off_c, 5, 61, 64
7, 115776, Note_on_c, 5, 61, 96
7, 115872, Note_off_c, 5, 61, 64
7, 115968, Note_on_c, 5, 61, 110
7, 116160, Note_off_c, 5, 61, 64
7, 116160, Note_on_c, 5, 61, 96
7, 116256, Note_off_c, 5, 61, 64
7, 116352, Note_on_c, 5, 61, 64
7, 116448, Note_off_c, 5, 61, 64
7, 116544, Note_on_c, 5, 61, 110
7, 116736, Note_off_c, 5, 61, 64
7, 116736, Note_on_c, 5, 61, 96
7, 116832, Note_off_c, 5, 61, 64
7, 116928, Note_on_c, 5, 61, 64
7, 117024, Note_off_c, 5, 61, 64
7, 117120, Note_on_c, 5, 61, 110
7, 117312, Note_off_c, 5, 61, 64
7, 117312, Note_on_c, 5, 61, 96
7, 117408, Note_off_c, 5, 61, 64
7, 117504, Note_on_c, 5, 61, 110
7, 117600, Note_off_c, 5, 61, 64
7, 117696, Note_on_c, 5, 61, 96
7, 117792, Note_off_c, 5, 61, 64
7, 117888, Note_on_c, 5, 61, 110
7, 117984, Note_off_c, 5, 61, 64
7, 118080, Note_on_c, 5, 61, 96
7, 118176, Note_off_c, 5, 61, 64
7, 118272, Note_on_c, 5, 61, 110
7, 118464, Note_off_c, 5, 61, 64
7, 118464, Note_on_c, 5, 61, 96
7, 118560, Note_off_c, 5, 61, 64
7, 118656, Note_on_c, 5, 61, 64
7, 118752, Note_off_c, 5, 61, 64
7, 118848, Note_on_c, 5, 61, 110
7, 119040, Note_off_c, 5, 61, 64
7, 119040, Note_on_c, 5, 61, 96
7, 119136, Note_off_c, 5, 61, 64
7, 119232, Note_on_c, 5, 61, 64
7, 119328, Note_off_c, 5, 61, 64
7, 119424, Note_on_c, 5, 61, 110
7, 119616, Note_off_c, 5, 61, 64
7, 119616, Note_on_c, 5, 61, 96
7, 119712, Note_off_c, 5, 61, 64
7, 119808, Note_on_c, 5, 61, 110
7, 119904, Note_off_c, 5, 61, 64
7, 120000, Note_on_c, 5, 61, 96
7, 120096, Note_off_c, 5, 61, 64
7, 120192, Note_on_c, 5, 61, 110
7, 120288, Note_off_c, 5, 61, 64
7, 120384, Note_on_c, 5, 61, 96
7, 120480, Note_off_c, 5, 61, 64
7, 120576, Note_on_c, 5, 59, 110
7, 120768, Note_off_c, 5, 59, 64
7, 120768, Note_on_c, 5, 59, 96
7, 120864, Note_off_c, 5, 59, 64
7, 120960, Note_on_c, 5, 59, 64
7, 121056, Note_off_c, 5, 59, 64
7, 121152, Note_on_c, 5, 59, 110
7, 121344, Note_off_c, 5, 59, 64
7, 121344, Note_on_c, 5, 59, 96
7, 121440, Note_off_c, 5, 59, 64
7, 121536, Note_on_c, 5, 59, 64
7, 121632, Note_off_c, 5, 59, 64
7, 121728, Note_on_c, 5, 59, 110
7, 121920, Note_off_c, 5, 59, 64
7, 121920, Note_on_c, 5, 59, 96
7, 122016, Note_off_c, 5, 59, 64
7, 122112, Note_on_c, 5, 59, 110
7, 122208, Note_off_c, 5, 59, 64
7, 122304, Note_on_c, 5, 59, 96
7, 122400, Note_off_c, 5, 59, 64
7, 122496, Note_on_c, 5, 59, 110
7, 122592, Note_off_c, 5, 59, 64
7, 122688, Note_on_c, 5, 59, 96
7, 122784, Note_off_c, 5, 59, 64
7, 122880, Control_c, 5, 7, 90
7, 122880, Program_c, 5, 81
7, 122880, Note_on_c, 5, 61, 110
7, 122976, Note_off_c, 5, 61, 64
7, 123072, Note_on_c, 5, 61, 96
7, 123168, Note_off_c, 5, 61, 64
7, 123264, Note_on_c, 5, 61, 64
7, 123360, Note_off_c, 5, 61, 64
7, 123456, Note_on_c, 5, 61, 110
7, 123552, Note_off_c, 5, 61, 64
7, 123648, Note_on_c, 5, 61, 96
7, 123744, Note_off_c, 5, 61, 64
7, 123840, Note_on_c, 5, 61, 64
7, 123936, Note_off_c, 5, 61, 64
7, 124032, Note_on_c, 5, 61, 110
7, 124128, Note_off_c, 5, 61, 64
7, 124224, Note_on_c, 5, 61, 96
7, 124320, Note_off_c, 5, 61, 64
7, 124416, Note_on_c, 5, 61, 110
7, 124512, Note_off_c, 5, 61, 64
7, 124608, Note_on_c, 5, 61, 96
7, 124704, Note_off_c, 5, 61, 64
7, 124800, Note_on_c, 5, 61, 110
7, 124896, Note_off_c, 5, 61, 64
7, 124992, Note_on_c, 5, 61, 96
7, 125088, Note_off_c, 5, 61, 64
7, 125184, Note_on_c, 5, 61, 110
7, 125280, Note_off_c, 5, 61, 64
7, 125376, Note_on_c, 5, 61, 96
7, 125472, Note_off_c, 5, 61, 64
7, 125568, Note_on_c, 5, 61, 64
7, 125664, Note_off_c, 5, 61, 64
7, 125760, Note_on_c, 5, 61, 110
7, 125856, Note_off_c, 5, 61, 64
7, 125952, Note_on_c, 5, 61, 96
7, 126048, Note_off_c, 5, 61, 64
7, 126144, Note_on_c, 5, 61, 64
7, 126240, Note_off_c, 5, 61, 64
7, 126336, Note_on_c, 5, 61, 110
7, 126432, Note_off_c, 5, 61, 64
7, 126528, Note_on_c, 5, 61, 96
7, 126624, Note_off_c, 5, 61, 64
7, 126720, Note_on_c, 5, 61, 110
7, 126816, Note_off_c, 5, 61, 64
7, 126912, Note_on_c, 5, 61, 96
7, 127008, Note_off_c, 5, 61, 64
7, 127104, Note_on_c, 5, 61, 110
7, 127200, Note_off_c, 5, 61, 64
7, 127296, Note_on_c, 5, 61, 96
7, 127392, Note_off_c, 5, 61, 64
7, 127488, Note_on_c, 5, 61, 110
7, 127584, Note_off_c, 5, 61, 64
7, 127680, Note_on_c, 5, 61, 96
7, 127776, Note_off_c, 5, 61, 64
7, 127872, Note_on_c, 5, 61, 110
7, 127968, Note_off_c, 5, 61, 64
7, 128064, Note_on_c, 5, 61, 96
7, 128160, Note_off_c, 5, 61, 64
7, 128256, Note_on_c, 5, 61, 110
7, 128352, Note_off_c, 5, 61, 64
7, 128448, Note_on_c, 5, 61, 96
7, 128544, Note_off_c, 5, 61, 64
7, 128640, Note_on_c, 5, 61, 64
7, 128736, Note_off_c, 5, 61, 64
7, 128832, Note_on_c, 5, 61, 110
7, 128928, Note_off_c, 5, 61, 64
7, 129024, Control_c, 5, 7, 90
7, 129024, Program_c, 5, 81
7, 129024, Note_on_c, 5, 59, 110
7, 129120, Note_off_c, 5, 59, 64
7, 129216, Note_on_c, 5, 59, 96
7, 129312, Note_off_c, 5, 59, 64
7, 129408, Note_on_c, 5, 59, 64
7, 129504, Note_off_c, 5, 59, 64
7, 129600, Note_on_c, 5, 59, 110
7, 129696, Note_off_c, 5, 59, 64
7, 129792, Note_on_c, 5, 59, 96
7, 129888, Note_off_c, 5, 59, 64
7, 129984, Note_on_c, 5, 59, 64
7, 130080, Note_off_c, 5, 59, 64
7, 130176, Note_on_c, 5, 59, 110
7, 130272, Note_off_c, 5, 59, 64
7, 130368, Note_on_c, 5, 59, 96
7, 130464, Note_off_c, 5, 59, 64
7, 130560, Note_on_c, 5, 59, 110
7, 130656, Note_off_c, 5, 59, 64
7, 130752, Note_on_c, 5, 59, 96
7, 130848, Note_off_c, 5, 59, 64
7, 130944, Note_on_c, 5, 59, 110
7, 131040, Note_off_c, 5, 59, 64
7, 131136, Note_on_c, 5, 59, 96
7, 131232, Note_off_c, 5, 59, 64
7, 131328, Note_on_c, 5, 59, 110
7, 131424, Note_off_c, 5, 59, 64
7, 131520, Note_on_c, 5, 59, 96
7, 131616, Note_off_c, 5, 59, 64
7, 131712, Note_on_c, 5, 59, 64
7, 131808, Note_off_c, 5, 59, 64
7, 131904, Note_on_c, 5, 59, 110
7, 132000, Note_off_c, 5, 59, 64
7, 132096, Note_on_c, 5, 59, 96
7, 132192, Note_off_c, 5, 59, 64
7, 132288, Note_on_c, 5, 59, 64
7, 132384, Note_off_c, 5, 59, 64
7, 132480, Note_on_c, 5, 59, 110
7, 132576, Note_off_c, 5, 59, 64
7, 132672, Note_on_c, 5, 59, 96
7, 132768, Note_off_c, 5, 59, 64
7, 132864, Note_on_c, 5, 59, 110
7, 132960, Note_off_c, 5, 59, 64
7, 133056, Note_on_c, 5, 59, 96
7, 133152, Note_off_c, 5, 59, 64
7, 133248, Note_on_c, 5, 59, 110
7, 133344, Note_off_c, 5, 59, 64
7, 133440, Note_on_c, 5, 59, 96
7, 133536, Note_off_c, 5, 59, 64
7, 133632, Note_on_c, 5, 59, 110
7, 133728, Note_off_c, 5, 59, 64
7, 133824, Note_on_c, 5, 59, 96
7, 133920, Note_off_c, 5, 59, 64
7, 134016, Note_on_c, 5, 59, 110
7, 134112, Note_off_c, 5, 59, 64
7, 134208, Note_on_c, 5, 59, 96
7, 134304, Note_off_c, 5, 59, 64
7, 134400, Note_on_c, 5, 59, 110
7, 134496, Note_off_c, 5, 59, 64
7, 134592, Note_on_c, 5, 59, 96
7, 134688, Note_off_c, 5, 59, 64
7, 134784, Note_on_c, 5, 59, 64
7, 134880, Note_off_c, 5, 59, 64
7, 134976, Note_on_c, 5, 59, 110
7, 135072, Note_off_c, 5, 59, 64
7, 135168, Control_c, 5, 7, 90
7, 135168, Program_c, 5, 81
7, 135168, Note_on_c, 5, 61, 110
7, 135264, Note_off_c, 5, 61, 64
7, 135360, Note_on_c, 5, 61, 96
7, 135456, Note_off_c, 5, 61, 64
7, 135552, Note_on_c, 5, 61, 64
7, 135648, Note_off_c, 5, 61, 64
7, 135744, Note_on_c, 5, 61, 110
7, 135840, Note_off_c, 5, 61, 64
7, 135936, Note_on_c, 5, 61, 96
7, 136032, Note_off_c, 5, 61, 64
7, 136128, Note_on_c, 5, 61, 64
7, 136224, Note_off_c, 5, 61, 64
7, 136320, Note_on_c, 5, 61, 110
7, 136416, Note_off_c, 5, 61, 64
7, 136512, Note_on_c, 5, 61, 96
7, 136608, Note_off_c, 5, 61, 64
7, 136704, Note_on_c, 5, 61, 110
7, 136800, Note_off_c, 5, 61, 64
7, 136896, Note_on_c, 5, 61, 96
7, 136992, Note_off_c, 5, 61, 64
7, 137088, Note_on_c, 5, 61, 110
7, 137184, Note_off_c, 5, 61, 64
7, 137280, Note_on_c, 5, 61, 96
7, 137376, Note_off_c, 5, 61, 64
7, 137472, Note_on_c, 5, 61, 110
7, 137568, Note_off_c, 5, 61, 64
7, 137664, Note_on_c, 5, 61, 96
7, 137760, Note_off_c, 5, 61, 64
7, 137856, Note_on_c, 5, 61, 64
7, 137952, Note_off_c, 5, 61, 64
7, 138048, Note_on_c, 5, 61, 110
7, 138144, Note_off_c, 5, 61, 64
7, 138240, Note_on_c, 5, 61, 96
7, 138336, Note_off_c, 5, 61, 64
7, 138432, Note_on_c, 5, 61, 64
7, 138528, Note_off_c, 5, 61, 64
7, 138624, Note_on_c, 5, 61, 110
7, 138720, Note_off_c, 5, 61, 64
7, 138816, Note_on_c, 5, 61, 96
7, 138912, Note_off_c, 5, 61, 64
7, 139008, Note_on_c, 5, 61, 110
7, 139104, Note_off_c, 5, 61, 64
7, 139200, Note_on_c, 5, 61, 96
7, 139296, Note_off_c, 5, 61, 64
7, 139392, Note_on_c, 5, 61, 110
7, 139488, Note_off_c, 5, 61, 64
7, 139584, Note_on_c, 5, 61, 96
7, 139680, Note_off_c, 5, 61, 64
7, 139776, Note_on_c, 5, 61, 110
7, 139872, Note_off_c, 5, 61, 64
7, 139968, Note_on_c, 5, 61, 96
7, 140064, Note_off_c, 5, 61, 64
7, 140160, Note_on_c, 5, 61, 110
7, 140256, Note_off_c, 5, 61, 64
7, 140352, Note_on_c, 5, 61, 96
7, 140448, Note_off_c, 5, 61, 64
7, 140544, Note_on_c, 5, 61, 110
7, 140640, Note_off_c, 5, 61, 64
7, 140736, Note_on_c, 5, 61, 96
7, 140832, Note_off_c, 5, 61, 64
7, 140928, Note_on_c, 5, 61, 64
7, 141024, Note_off_c, 5, 61, 64
7, 141120, Note_on_c, 5, 61, 110
7, 141216, Note_off_c, 5, 61, 64
7, 141312, Control_c, 5, 7, 90
7, 141312, Program_c, 5, 81
7, 141312, Note_on_c, 5, 61, 110
7, 141408, Note_off_c, 5, 61, 64
7, 141504, Note_on_c, 5, 61, 96
7, 141600, Note_off_c, 5, 61, 64
7, 141696, Note_on_c, 5, 61, 64
7, 141792, Note_off_c, 5, 61, 64
7, 141888, Note_on_c, 5, 61, 110
7, 141984, Note_off_c, 5, 61, 64
7, 142080, Note_on_c, 5, 61, 96
7, 142176, Note_off_c, 5, 61, 64
7, 142272, Note_on_c, 5, 61, 64
7, 142368, Note_off_c, 5, 61, 64
7, 142464, Note_on_c, 5, 61, 110
7, 142560, Note_off_c, 5, 61, 64
7, 142656, Note_on_c, 5, 61, 96
7, 142752, Note_off_c, 5, 61, 64
7, 142848, Note_on_c, 5, 61, 110
7, 142944, Note_off_c, 5, 61, 64
7, 143040, Note_on_c, 5, 61, 96
7, 143136, Note_off_c, 5, 61, 64
7, 143232, Note_on_c, 5, 61, 110
7, 143328, Note_off_c, 5, 61, 64
7, 143424, Note_on_c, 5, 61, 96
7, 143520, Note_off_c, 5, 61, 64
7, 143616, Note_on_c, 5, 61, 110
7, 143712, Note_off_c, 5, 61, 64
7, 143808, Note_on_c, 5, 61, 96
7, 143904, Note_off_c, 5, 61, 64
7, 144000, Note_on_c, 5, 61, 64
7, 144096, Note_off_c, 5, 61, 64
7, 144192, Note_on_c, 5, 61, 110
7, 144288, Note_off_c, 5, 61, 64
7, 144384, Note_on_c, 5, 63, 96
7, 144480, Note_off_c, 5, 63, 64
7, 144576, Note_on_c, 5, 63, 64
7, 144672, Note_off_c, 5, 63, 64
7, 144768, Note_on_c, 5, 63, 110
7, 144864, Note_off_c, 5, 63, 64
7, 144960, Note_on_c, 5, 63, 96
7, 145056, Note_off_c, 5, 63, 64
7, 145152, Note_on_c, 5, 63, 110
7, 145248, Note_off_c, 5, 63, 64
7, 145344, Note_on_c, 5, 63, 96
7, 145440, Note_off_c, 5, 63, 64
7, 145536, Note_on_c, 5, 63, 110
7, 145632, Note_off_c, 5, 63, 64
7, 145728, Note_on_c, 5, 63, 96
7, 145824, Note_off_c, 5, 63, 64
7, 145920, Note_on_c, 5, 63, 110
7, 146016, Note_off_c, 5, 63, 64
7, 146112, Note_on_c, 5, 63, 96
7, 146208, Note_off_c, 5, 63, 64
7, 146304, Note_on_c, 5, 63, 110
7, 146400, Note_off_c, 5, 63, 64
7, 146496, Note_on_c, 5, 63, 96
7, 146592, Note_off_c, 5, 63, 64
7, 146688, Note_on_c, 5, 63, 110
7, 146784, Note_off_c, 5, 63, 64
7, 146880, Note_on_c, 5, 63, 96
7, 146976, Note_off_c, 5, 63, 64
7, 147072, Note_on_c, 5, 63, 64
7, 147168, Note_off_c, 5, 63, 64
7, 147264, Note_on_c, 5, 63, 110
7, 147360, Note_off_c, 5, 63, 64
7, 175104, Control_c, 5, 7, 90
7, 175104, Program_c, 5, 81
7, 175104, Note_on_c, 5, 61, 110
7, 175200, Note_off_c, 5, 61, 64
7, 175296, Note_on_c, 5, 61, 96
7, 175392, Note_off_c, 5, 61, 64
7, 175488, Note_on_c, 5, 61, 64
7, 175584, Note_off_c, 5, 61, 64
7, 175680, Note_on_c, 5, 61, 110
7, 175776, Note_off_c, 5, 61, 64
7, 175872, Note_on_c, 5, 61, 96
7, 175968, Note_off_c, 5, 61, 64
7, 176064, Note_on_c, 5, 61, 64
7, 176160, Note_off_c, 5, 61, 64
7, 176256, Note_on_c, 5, 61, 110
7, 176352, Note_off_c, 5, 61, 64
7, 176448, Note_on_c, 5, 61, 96
7, 176544, Note_off_c, 5, 61, 64
7, 176640, Note_on_c, 5, 61, 110
7, 176736, Note_off_c, 5, 61, 64
7, 176832, Note_on_c, 5, 61, 96
7, 176928, Note_off_c, 5, 61, 64
7, 177024, Note_on_c, 5, 61, 110
7, 177120, Note_off_c, 5, 61, 64
7, 177216, Note_on_c, 5, 61, 96
7, 177312, Note_off_c, 5, 61, 64
7, 177408, Note_on_c, 5, 61, 110
7, 177504, Note_off_c, 5, 61, 64
7, 177600, Note_on_c, 5, 61, 96
7, 177696, Note_off_c, 5, 61, 64
7, 177792, Note_on_c, 5, 61, 64
7, 177888, Note_off_c, 5, 61, 64
7, 177984, Note_on_c, 5, 61, 110
7, 178080, Note_off_c, 5, 61, 64
7, 178176, Note_on_c, 5, 61, 96
7, 178272, Note_off_c, 5, 61, 64
7, 178368, Note_on_c, 5, 61, 64
7, 178464, Note_off_c, 5, 61, 64
7, 178560, Note_on_c, 5, 61, 110
7, 178656, Note_off_c, 5, 61, 64
7, 178752, Note_on_c, 5, 61, 96
7, 178848, Note_off_c, 5, 61, 64
7, 178944, Note_on_c, 5, 61, 110
7, 179040, Note_off_c, 5, 61, 64
7, 179136, Note_on_c, 5, 61, 96
7, 179232, Note_off_c, 5, 61, 64
7, 179328, Note_on_c, 5, 61, 110
7, 179424, Note_off_c, 5, 61, 64
7, 179520, Note_on_c, 5, 61, 96
7, 179616, Note_off_c, 5, 61, 64
7, 179712, Note_on_c, 5, 61, 110
7, 179808, Note_off_c, 5, 61, 64
7, 179904, Note_on_c, 5, 61, 96
7, 180000, Note_off_c, 5, 61, 64
7, 180096, Note_on_c, 5, 61, 110
7, 180192, Note_off_c, 5, 61, 64
7, 180288, Note_on_c, 5, 61, 96
7, 180384, Note_off_c, 5, 61, 64
7, 180480, Note_on_c, 5, 61, 110
7, 180576, Note_off_c, 5, 61, 64
7, 180672, Note_on_c, 5, 61, 96
7, 180768, Note_off_c, 5, 61, 64
7, 180864, Note_on_c, 5, 61, 64
7, 180960, Note_off_c, 5, 61, 64
7, 181056, Note_on_c, 5, 61, 110
7, 181152, Note_off_c, 5, 61, 64
7, 184320, Control_c, 5, 7, 90
7, 184320, Program_c, 5, 81
7, 184320, Note_on_c, 5, 59, 110
7, 184416, Note_off_c, 5, 59, 64
7, 184512, Note_on_c, 5, 59, 96
7, 184608, Note_off_c, 5, 59, 64
7, 184704, Note_on_c, 5, 59, 64
7, 184800, Note_off_c, 5, 59, 64
7, 184896, Note_on_c, 5, 59, 110
7, 184992, Note_off_c, 5, 59, 64
7, 185088, Note_on_c, 5, 59, 96
7, 185184, Note_off_c, 5, 59, 64
7, 185280, Note_on_c, 5, 59, 64
7, 185376, Note_off_c, 5, 59, 64
7, 185472, Note_on_c, 5, 59, 110
7, 185568, Note_off_c, 5, 59, 64
7, 185664, Note_on_c, 5, 59, 96
7, 185760, Note_off_c, 5, 59, 64
7, 185856, Note_on_c, 5, 59, 110
7, 185952, Note_off_c, 5, 59, 64
7, 186048, Note_on_c, 5, 59, 96
7, 186144, Note_off_c, 5, 59, 64
7, 186240, Note_on_c, 5, 59, 110
7, 186336, Note_off_c, 5, 59, 64
7, 186432, Note_on_c, 5, 59, 96
7, 186528, Note_off_c, 5, 59, 64
7, 186624, Note_on_c, 5, 59, 110
7, 186720, Note_off_c, 5, 59, 64
7, 186816, Note_on_c, 5, 59, 96
7, 186912, Note_off_c, 5, 59, 64
7, 187008, Note_on_c, 5, 59, 64
7, 187104, Note_off_c, 5, 59, 64
7, 187200, Note_on_c, 5, 59, 110
7, 187296, Note_off_c, 5, 59, 64
7, 187392, Note_on_c, 5, 59, 96
7, 187488, Note_off_c, 5, 59, 64
7, 187584, Note_on_c, 5, 59, 64
7, 187680, Note_off_c, 5, 59, 64
7, 187776, Note_on_c, 5, 59, 110
7, 187872, Note_off_c, 5, 59, 64
7, 187968, Note_on_c, 5, 59, 96
7, 188064, Note_off_c, 5, 59, 64
7, 188160, Note_on_c, 5, 59, 110
7, 188256, Note_off_c, 5, 59, 64
7, 188352, Note_on_c, 5, 59, 96
7, 188448, Note_off_c, 5, 59, 64
7, 188544, Note_on_c, 5, 59, 110
7, 188640, Note_off_c, 5, 59, 64
7, 188736, Note_on_c, 5, 59, 96
7, 188832, Note_off_c, 5, 59, 64
7, 188928, Note_on_c, 5, 59, 110
7, 189024, Note_off_c, 5, 59, 64
7, 189120, Note_on_c, 5, 59, 96
7, 189216, Note_off_c, 5, 59, 64
7, 189312, Note_on_c, 5, 59, 110
7, 189408, Note_off_c, 5, 59, 64
7, 189504, Note_on_c, 5, 59, 96
7, 189600, Note_off_c, 5, 59, 64
7, 189696, Note_on_c, 5, 59, 110
7, 189792, Note_off_c, 5, 59, 64
7, 189888, Note_on_c, 5, 59, 96
7, 189984, Note_off_c, 5, 59, 64
7, 190080, Note_on_c, 5, 59, 64
7, 190176, Note_off_c, 5, 59, 64
7, 190272, Note_on_c, 5, 59, 110
7, 190368, Note_off_c, 5, 59, 64
7, 190464, Control_c, 5, 7, 90
7, 190656, Note_on_c, 5, 69, 110
7, 190848, Note_off_c, 5, 69, 64
7, 190848, Note_on_c, 5, 71, 110
7, 191040, Note_off_c, 5, 71, 64
7, 191040, Note_on_c, 5, 73, 110
7, 191232, Note_off_c, 5, 73, 64
7, 191232, Note_on_c, 5, 75, 110
7, 191616, Note_off_c, 5, 75, 64
7, 191616, Note_on_c, 5, 73, 110
7, 191808, Note_off_c, 5, 73, 64
7, 191808, Note_on_c, 5, 75, 110
7, 192000, Note_off_c, 5, 75, 64
7, 192000, Note_on_c, 5, 76, 110
7, 192384, Note_off_c, 5, 76, 64
7, 192384, Note_on_c, 5, 75, 110
7, 192576, Note_off_c, 5, 75, 64
7, 192576, Note_on_c, 5, 76, 110
7, 192768, Note_off_c, 5, 76, 64
7, 192768, Note_on_c, 5, 78, 110
7, 193056, Note_off_c, 5, 78, 64
7, 193056, Note_on_c, 5, 76, 110
7, 193344, Note_off_c, 5, 76, 64
7, 193344, Note_on_c, 5, 78, 110
7, 193536, Note_off_c, 5, 78, 64
7, 193728, Note_on_c, 5, 71, 110
7, 193920, Note_off_c, 5, 71, 64
7, 193920, Note_on_c, 5, 73, 110
7, 194112, Note_off_c, 5, 73, 64
7, 194112, Note_on_c, 5, 75, 110
7, 194304, Note_off_c, 5, 75, 64
7, 194304, Note_on_c, 5, 76, 110
7, 194688, Note_off_c, 5, 76, 64
7, 194688, Note_on_c, 5, 75, 110
7, 194880, Note_off_c, 5, 75, 64
7, 194880, Note_on_c, 5, 76, 110
7, 195072, Note_off_c, 5, 76, 64
7, 195072, Note_on_c, 5, 78, 110
7, 195456, Note_off_c, 5, 78, 64
7, 195456, Note_on_c, 5, 76, 110
7, 195648, Note_off_c, 5, 76, 64
7, 195648, Note_on_c, 5, 78, 110
7, 195840, Note_off_c, 5, 78, 64
7, 195840, Note_on_c, 5, 83, 110
7, 196128, Note_off_c, 5, 83, 64
7, 196128, Note_on_c, 5, 81, 110
7, 196416, Note_off_c, 5, 81, 64
7, 196416, Note_on_c, 5, 83, 110
7, 196608, Note_off_c, 5, 83, 64
7, 196608, Control_c, 5, 7, 90
7, 196608, Program_c, 5, 81
7, 198144, Note_on_c, 5, 88, 120
7, 198336, Note_off_c, 5, 88, 64
7, 198336, Note_on_c, 5, 85, 112
7, 198528, Note_off_c, 5, 85, 64
7, 198528, Note_on_c, 5, 80, 104
7, 198720, Note_off_c, 5, 80, 64
7, 198720, Note_on_c, 5, 76, 96
7, 198912, Note_off_c, 5, 76, 64
7, 198912, Note_on_c, 5, 73, 88
7, 199104, Note_off_c, 5, 73, 64
7, 199104, Note_on_c, 5, 68, 80
7, 199296, Note_off_c, 5, 68, 64
7, 199296, Note_on_c, 5, 64, 72
7, 199488, Note_off_c, 5, 64, 64
7, 199488, Note_on_c, 5, 61, 64
7, 199680, Note_off_c, 5, 61, 64
7, 201216, Note_on_c, 5, 88, 120
7, 201408, Note_off_c, 5, 88, 64
7, 201408, Note_on_c, 5, 85, 112
7, 201600, Note_off_c, 5, 85, 64
7, 201600, Note_on_c, 5, 80, 104
7, 201792, Note_off_c, 5, 80, 64
7, 201792, Note_on_c, 5, 76, 96
7, 201984, Note_off_c, 5, 76, 64
7, 201984, Note_on_c, 5, 73, 88
7, 202176, Note_off_c, 5, 73, 64
7, 202176, Note_on_c, 5, 68, 80
7, 202368, Note_off_c, 5, 68, 64
7, 202368, Note_on_c, 5, 64, 72
7, 202560, Note_off_c, 5, 64, 64
7, 202560, Note_on_c, 5, 61, 64
7, 202752, Note_off_c, 5, 61, 64
7, 202752, Control_c, 5, 7, 90
7, 202752, Program_c, 5, 81
7, 204288, Note_on_c, 5, 90, 120
7, 204480, Note_off_c, 5, 90, 64
7, 204480, Note_on_c, 5, 85, 112
7, 204672, Note_off_c, 5, 85, 64
7, 204672, Note_on_c, 5, 81, 104
7, 204864, Note_off_c, 5, 81, 64
7, 204864, Note_on_c, 5, 78, 96
7, 205056, Note_off_c, 5, 78, 64
7, 205056, Note_on_c, 5, 76, 88
7, 205248, Note_off_c, 5, 76, 64
7, 205248, Note_on_c, 5, 73, 80
7, 205440, Note_off_c, 5, 73, 64
7, 205440, Note_on_c, 5, 68, 72
7, 205632, Note_off_c, 5, 68, 64
7, 205632, Note_on_c, 5, 64, 64
7, 205824, Note_off_c, 5, 64, 64
7, 207360, Note_on_c, 5, 90, 120
7, 207552, Note_off_c, 5, 90, 64
7, 207552, Note_on_c, 5, 85, 112
7, 207744, Note_off_c, 5, 85, 64
7, 207744, Note_on_c, 5, 81, 104
7, 207936, Note_off_c, 5, 81, 64
7, 207936, Note_on_c, 5, 78, 96
7, 208128, Note_off_c, 5, 78, 64
7, 208128, Note_on_c, 5, 76, 88
7, 208320, Note_off_c, 5, 76, 64
7, 208320, Note_on_c, 5, 73, 80
7, 208512, Note_off_c, 5, 73, 64
7, 208512, Note_on_c, 5, 71, 72
7, 208704, Note_off_c, 5, 71, 64
7, 208704, Note_on_c, 5, 68, 64
7, 208896, Note_off_c, 5, 68, 64
7, 208896, Control_c, 5, 7, 90
7, 208896, Program_c, 5, 81
7, 208896, Note_on_c, 5, 61, 110
7, 209088, Note_off_c, 5, 61, 64
7, 209088, Note_on_c, 5, 61, 96
7, 209184, Note_off_c, 5, 61, 64
7, 209280, Note_on_c, 5, 61, 64
7, 209376, Note_off_c, 5, 61, 64
7, 209472, Note_on_c, 5, 61, 110
7, 209664, Note_off_c, 5, 61, 64
7, 209664, Note_on_c, 5, 61, 96
7, 209760, Note_off_c, 5, 61, 64
7, 209856, Note_on_c, 5, 61, 64
7, 209952, Note_off_c, 5, 61, 64
7, 210048, Note_on_c, 5, 61, 110
7, 210240, Note_off_c, 5, 61, 64
7, 210240, Note_on_c, 5, 61, 96
7, 210336, Note_off_c, 5, 61, 64
7, 210432, Note_on_c, 5, 61, 110
7, 210528, Note_off_c, 5, 61, 64
7, 210624, Note_on_c, 5, 61, 96
7, 210720, Note_off_c, 5, 61, 64
7, 210816, Note_on_c, 5, 61, 110
7, 210912, Note_off_c, 5, 61, 64
7, 211008, Note_on_c, 5, 61, 96
7, 211104, Note_off_c, 5, 61, 64
7, 211200, Note_on_c, 5, 61, 110
7, 211392, Note_off_c, 5, 61, 64
7, 211392, Note_on_c, 5, 61, 96
7, 211488, Note_off_c, 5, 61, 64
7, 211584, Note_on_c, 5, 61, 64
7, 211680, Note_off_c, 5, 61, 64
7, 211776, Note_on_c, 5, 61, 110
7, 211968, Note_off_c, 5, 61, 64
7, 211968, Note_on_c, 5, 61, 96
7, 212064, Note_off_c, 5, 61, 64
7, 212160, Note_on_c, 5, 61, 64
7, 212256, Note_off_c, 5, 61, 64
7, 212352, Note_on_c, 5, 61, 110
7, 212544, Note_off_c, 5, 61, 64
7, 212544, Note_on_c, 5, 61, 96
7, 212640, Note_off_c, 5, 61, 64
7, 212736, Note_on_c, 5, 61, 110
7, 212832, Note_off_c, 5, 61, 64
7, 212928, Note_on_c, 5, 61, 96
7, 213024, Note_off_c, 5, 61, 64
7, 213120, Note_on_c, 5, 61, 110
7, 213216, Note_off_c, 5, 61, 64
7, 213312, Note_on_c, 5, 61, 96
7, 213408, Note_off_c, 5, 61, 64
7, 213504, Note_on_c, 5, 61, 110
7, 213696, Note_off_c, 5, 61, 64
7, 213696, Note_on_c, 5, 61, 96
7, 213792, Note_off_c, 5, 61, 64
7, 213888, Note_on_c, 5, 61, 64
7, 213984, Note_off_c, 5, 61, 64
7, 214080, Note_on_c, 5, 61, 110
7, 214272, Note_off_c, 5, 61, 64
7, 214272, Note_on_c, 5, 61, 96
7, 214368, Note_off_c, 5, 61, 64
7, 214464, Note_on_c, 5, 61, 64
7, 214560, Note_off_c, 5, 61, 64
7, 214656, Note_on_c, 5, 61, 110
7, 214848, Note_off_c, 5, 61, 64
7, 214848, Note_on_c, 5, 61, 96
7, 214944, Note_off_c, 5, 61, 64
7, 215040, Note_on_c, 5, 61, 110
7, 215136, Note_off_c, 5, 61, 64
7, 215232, Note_on_c, 5, 61, 96
7, 215328, Note_off_c, 5, 61, 64
7, 215424, Note_on_c, 5, 61, 110
7, 215520, Note_off_c, 5, 61, 64
7, 215616, Note_on_c, 5, 61, 96
7, 215712, Note_off_c, 5, 61, 64
7, 215808, Note_on_c, 5, 59, 110
7, 216000, Note_off_c, 5, 59, 64
7, 216000, Note_on_c, 5, 59, 96
7, 216096, Note_off_c, 5, 59, 64
7, 216192, Note_on_c, 5, 59, 64
7, 216288, Note_off_c, 5, 59, 64
7, 216384, Note_on_c, 5, 59, 110
7, 216576, Note_off_c, 5, 59, 64
7, 216576, Note_on_c, 5, 59, 96
7, 216672, Note_off_c, 5, 59, 64
7, 216768, Note_on_c, 5, 59, 64
7, 216864, Note_off_c, 5, 59, 64
7, 216960, Note_on_c, 5, 59, 110
7, 217152, Note_off_c, 5, 59, 64
7, 217152, Note_on_c, 5, 59, 96
7, 217248, Note_off_c, 5, 59, 64
7, 217344, Note_on_c, 5, 59, 110
7, 217440, Note_off_c, 5, 59, 64
7, 217536, Note_on_c, 5, 59, 96
7, 217632, Note_off_c, 5, 59, 64
7, 217728, Note_on_c, 5, 59, 110
7, 217824, Note_off_c, 5, 59, 64
7, 217920, Note_on_c, 5, 59, 96
7, 218016, Note_off_c, 5, 59, 64
7, 218112, Control_c, 5, 7, 90
7, 218112, Program_c, 5, 81
7, 218112, Note_on_c, 5, 61, 110
7, 218208, Note_off_c, 5, 61, 64
7, 218304, Note_on_c, 5, 61, 96
7, 218400, Note_off_c, 5, 61, 64
7, 218496, Note_on_c, 5, 61, 64
7, 218592, Note_off_c, 5, 61, 64
7, 218688, Note_on_c, 5, 61, 110
7, 218784, Note_off_c, 5, 61, 64
7, 218880, Note_on_c, 5, 61, 96
7, 218976, Note_off_c, 5, 61, 64
7, 219072, Note_on_c, 5, 61, 64
7, 219168, Note_off_c, 5, 61, 64
7, 219264, Note_on_c, 5, 61, 110
7, 219360, Note_off_c, 5, 61, 64
7, 219456, Note_on_c, 5, 61, 96
7, 219552, Note_off_c, 5, 61, 64
7, 219648, Note_on_c, 5, 61, 110
7, 219744, Note_off_c, 5, 61, 64
7, 219840, Note_on_c, 5, 61, 96
7, 219936, Note_off_c, 5, 61, 64
7, 220032, Note_on_c, 5, 61, 110
7, 220128, Note_off_c, 5, 61, 64
7, 220224, Note_on_c, 5, 61, 96
7, 220320, Note_off_c, 5, 61, 64
7, 220416, Note_on_c, 5, 61, 110
7, 220512, Note_off_c, 5, 61, 64
7, 220608, Note_on_c, 5, 61, 96
7, 220704, Note_off_c, 5, 61, 64
7, 220800, Note_on_c, 5, 61, 64
7, 220896, Note_off_c, 5, 61, 64
7, 220992, Note_on_c, 5, 61, 110
7, 221088, Note_off_c, 5, 61, 64
7, 221184, Note_on_c, 5, 61, 96
7, 221280, Note_off_c, 5, 61, 64
7, 221376, Note_on_c, 5, 61, 64
7, 221472, Note_off_c, 5, 61, 64
7, 221568, Note_on_c, 5, 61, 110
7, 221664, Note_off_c, 5, 61, 64
7, 221760, Note_on_c, 5, 61, 96
7, 221856, Note_off_c, 5, 61, 64
7, 221952, Note_on_c, 5, 61, 110
7, 222048, Note_off_c, 5, 61, 64
7, 222144, Note_on_c, 5, 61, 96
7, 222240, Note_off_c, 5, 61, 64
7, 222336, Note_on_c, 5, 61, 110
7, 222432, Note_off_c, 5, 61, 64
7, 222528, Note_on_c, 5, 61, 96
7, 222624, Note_off_c, 5, 61, 64
7, 222720, Note_on_c, 5, 61, 110
7, 222816, Note_off_c, 5, 61, 64
7, 222912, Note_on_c, 5, 61, 96
7, 223008, Note_off_c, 5, 61, 64
7, 223104, Note_on_c, 5, 61, 110
7, 223200, Note_off_c, 5, 61, 64
7, 223296, Note_on_c, 5, 61, 96
7, 223392, Note_off_c, 5, 61, 64
7, 223488, Note_on_c, 5, 61, 110
7, 223584, Note_off_c, 5, 61, 64
7, 223680, Note_on_c, 5, 61, 96
7, 223776, Note_off_c, 5, 61, 64
7, 223872, Note_on_c, 5, 61, 64
7, 223968, Note_off_c, 5, 61, 64
7, 224064, Note_on_c, 5, 61, 110
7, 224160, Note_off_c, 5, 61, 64
7, 224256, Control_c, 5, 7, 90
7, 224256, Program_c, 5, 81
7, 224256, Control_c, 5, 7, 91
7, 224256, Note_on_c, 5, 59, 110
7, 224352, Note_off_c, 5, 59, 64
7, 224352, Control_c, 5, 7, 90
7, 224448, Note_on_c, 5, 59, 96
7, 224544, Note_off_c, 5, 59, 64
7, 224544, Control_c, 5, 7, 89
7, 224640, Note_on_c, 5, 59, 64
7, 224736, Note_off_c, 5, 59, 64
7, 224736, Control_c, 5, 7, 88
7, 224832, Note_on_c, 5, 59, 110
7, 224928, Note_off_c, 5, 59, 64
7, 224928, Control_c, 5, 7, 87
7, 225024, Note_on_c, 5, 59, 96
7, 225120, Note_off_c, 5, 59, 64
7, 225216, Control_c, 5, 7, 86
7, 225216, Note_on_c, 5, 59, 64
7, 225312, Note_off_c, 5, 59, 64
7, 225408, Control_c, 5, 7, 85
7, 225408, Note_on_c, 5, 59, 110
7, 225504, Note_off_c, 5, 59, 64
7, 225600, Control_c, 5, 7, 84
7, 225600, Note_on_c, 5, 59, 96
7, 225696, Note_off_c, 5, 59, 64
7, 225792, Control_c, 5, 7, 83
7, 225792, Note_on_c, 5, 59, 110
7, 225888, Note_off_c, 5, 59, 64
7, 225984, Control_c, 5, 7, 82
7, 225984, Note_on_c, 5, 59, 96
7, 226080, Note_off_c, 5, 59, 64
7, 226176, Control_c, 5, 7, 81
7, 226176, Note_on_c, 5, 59, 110
7, 226272, Note_off_c, 5, 59, 64
7, 226368, Control_c, 5, 7, 80
7, 226368, Note_on_c, 5, 59, 96
7, 226464, Note_off_c, 5, 59, 64
7, 226560, Note_on_c, 5, 59, 110
7, 226656, Note_off_c, 5, 59, 64
7, 226656, Control_c, 5, 7, 79
7, 226752, Note_on_c, 5, 59, 96
7, 226848, Note_off_c, 5, 59, 64
7, 226848, Control_c, 5, 7, 78
7, 226944, Note_on_c, 5, 59, 64
7, 227040, Note_off_c, 5, 59, 64
7, 227040, Control_c, 5, 7, 77
7, 227136, Note_on_c, 5, 59, 110
7, 227232, Note_off_c, 5, 59, 64
7, 227232, Control_c, 5, 7, 76
7, 227328, Note_on_c, 5, 59, 96
7, 227424, Note_off_c, 5, 59, 64
7, 227424, Control_c, 5, 7, 75
7, 227520, Note_on_c, 5, 59, 64
7, 227616, Note_off_c, 5, 59, 64
7, 227616, Control_c, 5, 7, 74
7, 227712, Note_on_c, 5, 59, 110
7, 227808, Note_off_c, 5, 59, 64
7, 227808, Control_c, 5, 7, 73
7, 227904, Note_on_c, 5, 59, 96
7, 228000, Note_off_c, 5, 59, 64
7, 228000, Control_c, 5, 7, 72
7, 228096, Note_on_c, 5, 59, 110
7, 228192, Note_off_c, 5, 59, 64
7, 228288, Control_c, 5, 7, 71
7, 228288, Note_on_c, 5, 59, 96
7, 228384, Note_off_c, 5, 59, 64
7, 228480, Control_c, 5, 7, 70
7, 228480, Note_on_c, 5, 59, 110
7, 228576, Note_off_c, 5, 59, 64
7, 228672, Control_c, 5, 7, 69
7, 228672, Note_on_c, 5, 59, 96
7, 228768, Note_off_c, 5, 59, 64
7, 228864, Control_c, 5, 7, 68
7, 228864, Note_on_c, 5, 59, 110
7, 228960, Note_off_c, 5, 59, 64
7, 229056, Control_c, 5, 7, 67
7, 229056, Note_on_c, 5, 59, 96
7, 229152, Note_off_c, 5, 59, 64
7, 229248, Control_c, 5, 7, 66
7, 229248, Note_on_c, 5, 59, 110
7, 229344, Note_off_c, 5, 59, 64
7, 229440, Control_c, 5, 7, 65
7, 229440, Note_on_c, 5, 59, 96
7, 229536, Note_off_c, 5, 59, 64
7, 229632, Note_on_c, 5, 59, 110
7, 229728, Note_off_c, 5, 59, 64
7, 229728, Control_c, 5, 7, 64
7, 229824, Note_on_c, 5, 59, 96
7, 229920, Note_off_c, 5, 59, 64
7, 229920, Control_c, 5, 7, 63
7, 230016, Note_on_c, 5, 59, 64
7, 230112, Note_off_c, 5, 59, 64
7, 230112, Control_c, 5, 7, 62
7, 230208, Note_on_c, 5, 59, 110
7, 230304, Note_off_c, 5, 59, 64
7, 230304, Control_c, 5, 7, 61
7, 230400, Note_on_c, 5, 61, 110
7, 230496, Note_off_c, 5, 61, 64
7, 230496, Control_c, 5, 7, 60
7, 230592, Note_on_c, 5, 61, 96
7, 230688, Note_off_c, 5, 61, 64
7, 230688, Control_c, 5, 7, 59
7, 230784, Note_on_c, 5, 61, 64
7, 230880, Note_off_c, 5, 61, 64
7, 230880, Control_c, 5, 7, 58
7, 230976, Note_on_c, 5, 61, 110
7, 231072, Note_off_c, 5, 61, 64
7, 231072, Control_c, 5, 7, 57
7, 231168, Note_on_c, 5, 61, 96
7, 231264, Note_off_c, 5, 61, 64
7, 231360, Control_c, 5, 7, 56
7, 231360, Note_on_c, 5, 61, 64
7, 231456, Note_off_c, 5, 61, 64
7, 231552, Control_c, 5, 7, 55
7, 231552, Note_on_c, 5, 61, 110
7, 231648, Note_off_c, 5, 61, 64
7, 231744, Control_c, 5, 7, 54
7, 231744, Note_on_c, 5, 61, 96
7, 231840, Note_off_c, 5, 61, 64
7, 231936, Control_c, 5, 7, 53
7, 231936, Note_on_c, 5, 61, 110
7, 232032, Note_off_c, 5, 61, 64
7, 232128, Control_c, 5, 7, 52
7, 232128, Note_on_c, 5, 61, 96
7, 232224, Note_off_c, 5, 61, 64
7, 232320, Control_c, 5, 7, 51
7, 232320, Note_on_c, 5, 61, 110
7, 232416, Note_off_c, 5, 61, 64
7, 232512, Control_c, 5, 7, 50
7, 232512, Note_on_c, 5, 61, 96
7, 232608, Note_off_c, 5, 61, 64
7, 232704, Note_on_c, 5, 61, 110
7, 232800, Note_off_c, 5, 61, 64
7, 232800, Control_c, 5, 7, 49
7, 232896, Note_on_c, 5, 61, 96
7, 232992, Note_off_c, 5, 61, 64
7, 232992, Control_c, 5, 7, 48
7, 233088, Note_on_c, 5, 61, 64
7, 233184, Note_off_c, 5, 61, 64
7, 233184, Control_c, 5, 7, 47
7, 233280, Note_on_c, 5, 61, 110
7, 233376, Note_off_c, 5, 61, 64
7, 233376, Control_c, 5, 7, 46
7, 233472, Note_on_c, 5, 61, 96
7, 233568, Note_off_c, 5, 61, 64
7, 233568, Control_c, 5, 7, 45
7, 233664, Note_on_c, 5, 61, 64
7, 233760, Note_off_c, 5, 61, 64
7, 233760, Control_c, 5, 7, 44
7, 233856, Note_on_c, 5, 61, 110
7, 233952, Note_off_c, 5, 61, 64
7, 233952, Control_c, 5, 7, 43
7, 234048, Note_on_c, 5, 61, 96
7, 234144, Note_off_c, 5, 61, 64
7, 234144, Control_c, 5, 7, 42
7, 234240, Note_on_c, 5, 61, 110
7, 234336, Note_off_c, 5, 61, 64
7, 234432, Control_c, 5, 7, 41
7, 234432, Note_on_c, 5, 61, 96
7, 234528, Note_off_c, 5, 61, 64
7, 234624, Control_c, 5, 7, 40
7, 234624, Note_on_c, 5, 61, 110
7, 234720, Note_off_c, 5, 61, 64
7, 234816, Control_c, 5, 7, 39
7, 234816, Note_on_c, 5, 61, 96
7, 234912, Note_off_c, 5, 61, 64
7, 235008, Control_c, 5, 7, 38
7, 235008, Note_on_c, 5, 61, 110
7, 235104, Note_off_c, 5, 61, 64
7, 235200, Control_c, 5, 7, 37
7, 235200, Note_on_c, 5, 61, 96
7, 235296, Note_off_c, 5, 61, 64
7, 235392, Control_c, 5, 7, 36
7, 235392, Note_on_c, 5, 61, 110
7, 235488, Note_off_c, 5, 61, 64
7, 235584, Control_c, 5, 7, 35
7, 235584, Note_on_c, 5, 61, 96
7, 235680, Note_off_c, 5, 61, 64
7, 235776, Note_on_c, 5, 61, 110
7, 235872, Note_off_c, 5, 61, 64
7, 235872, Control_c, 5, 7, 34
7, 235968, Note_on_c, 5, 61, 96
7, 236064, Note_off_c, 5, 61, 64
7, 236064, Control_c, 5, 7, 33
7, 236160, Note_on_c, 5, 61, 64
7, 236256, Note_off_c, 5, 61, 64
7, 236256, Control_c, 5, 7, 32
7, 236352, Note_on_c, 5, 61, 110
7, 236448, Note_off_c, 5, 61, 64
7, 236448, Control_c, 5, 7, 31
7, 236544, Note_on_c, 5, 61, 110
7, 236640, Note_off_c, 5, 61, 64
7, 236640, Control_c, 5, 7, 30
7, 236736, Note_on_c, 5, 61, 96
7, 236832, Note_off_c, 5, 61, 64
7, 236832, Control_c, 5, 7, 29
7, 236928, Note_on_c, 5, 61, 64
7, 237024, Note_off_c, 5, 61, 64
7, 237024, Control_c, 5, 7, 28
7, 237120, Note_on_c, 5, 61, 110
7, 237216, Note_off_c, 5, 61, 64
7, 237216, Control_c, 5, 7, 27
7, 237312, Note_on_c, 5, 61, 96
7, 237408, Note_off_c, 5, 61, 64
7, 237504, Control_c, 5, 7, 26
7, 237504, Note_on_c, 5, 61, 64
7, 237600, Note_off_c, 5, 61, 64
7, 237696, Control_c, 5, 7, 25
7, 237696, Note_on_c, 5, 61, 110
7, 237792, Note_off_c, 5, 61, 64
7, 237888, Control_c, 5, 7, 24
7, 237888, Note_on_c, 5, 61, 96
7, 237984, Note_off_c, 5, 61, 64
7, 238080, Control_c, 5, 7, 23
7, 238080, Note_on_c, 5, 61, 110
7, 238176, Note_off_c, 5, 61, 64
7, 238272, Control_c, 5, 7, 22
7, 238272, Note_on_c, 5, 61, 96
7, 238368, Note_off_c, 5, 61, 64
7, 238464, Control_c, 5, 7, 21
7, 238464, Note_on_c, 5, 61, 110
7, 238560, Note_off_c, 5, 61, 64
7, 238656, Control_c, 5, 7, 20
7, 238656, Note_on_c, 5, 61, 96
7, 238752, Note_off_c, 5, 61, 64
7, 238848, Note_on_c, 5, 61, 110
7, 238944, Note_off_c, 5, 61, 64
7, 238944, Control_c, 5, 7, 19
7, 239040, Note_on_c, 5, 61, 96
7, 239136, Note_off_c, 5, 61, 64
7, 239136, Control_c, 5, 7, 18
7, 239232, Note_on_c, 5, 61, 64
7, 239328, Note_off_c, 5, 61, 64
7, 239328, Control_c, 5, 7, 17
7, 239424, Note_on_c, 5, 61, 110
7, 239520, Note_off_c, 5, 61, 64
7, 239520, Control_c, 5, 7, 16
7, 239616, Note_on_c, 5, 63, 96
7, 239712, Note_off_c, 5, 63, 64
7, 239712, Control_c, 5, 7, 15
7, 239808, Note_on_c, 5, 63, 64
7, 239904, Note_off_c, 5, 63, 64
7, 239904, Control_c, 5, 7, 14
7, 240000, Note_on_c, 5, 63, 110
7, 240096, Note_off_c, 5, 63, 64
7, 240096, Control_c, 5, 7, 13
7, 240192, Note_on_c, 5, 63, 96
7, 240288, Note_off_c, 5, 63, 64
7, 240288, Control_c, 5, 7, 12
7, 240384, Note_on_c, 5, 63, 110
7, 240480, Note_off_c, 5, 63, 64
7, 240576, Control_c, 5, 7, 11
7, 240576, Note_on_c, 5, 63, 96
7, 240672, Note_off_c, 5, 63, 64
7, 240768, Control_c, 5, 7, 10
7, 240768, Note_on_c, 5, 63, 110
7, 240864, Note_off_c, 5, 63, 64
7, 240960, Control_c, 5, 7, 9
7, 240960, Note_on_c, 5, 63, 96
7, 241056, Note_off_c, 5, 63, 64
7, 241152, Control_c, 5, 7, 8
7, 241152, Note_on_c, 5, 63, 110
7, 241248, Note_off_c, 5, 63, 64
7, 241344, Control_c, 5, 7, 7
7, 241344, Note_on_c, 5, 63, 96
7, 241440, Note_off_c, 5, 63, 64
7, 241536, Control_c, 5, 7, 6
7, 241536, Note_on_c, 5, 63, 110
7, 241632, Note_off_c, 5, 63, 64
7, 241728, Control_c, 5, 7, 5
7, 241728, Note_on_c, 5, 63, 96
7, 241824, Note_off_c, 5, 63, 64
7, 241920, Note_on_c, 5, 63, 110
7, 242016, Note_off_c, 5, 63, 64
7, 242016, Control_c, 5, 7, 4
7, 242112, Note_on_c, 5, 63, 96
7, 242208, Note_off_c, 5, 63, 64
7, 242208, Control_c, 5, 7, 3
7, 242304, Note_on_c, 5, 63, 64
7, 242400, Note_off_c, 5, 63, 64
7, 242400, Control_c, 5, 7, 2
7, 242496, Note_on_c, 5, 63, 110
7, 242592, Note_off_c, 5, 63, 64
7, 242592, Control_c, 5, 7, 1
7, 242688, End_track
8, 0, Start_track
8, 0, Title_t, "Nobuo"
8, 0, Control_c, 6, 7, 60
8, 0, Control_c, 6, 10, 108
8, 0, Control_c, 6, 91, 41
8, 192, Note_on_c, 6, 68, 110
8, 384, Note_off_c, 6, 68, 64
8, 576, Note_on_c, 6, 68, 110
8, 768, Note_off_c, 6, 68, 64
8, 768, Note_on_c, 6, 68, 110
8, 960, Note_off_c, 6, 68, 64
8, 1152, Note_on_c, 6, 68, 110
8, 1344, Note_off_c, 6, 68, 64
8, 1344, Note_on_c, 6, 68, 110
8, 1536, Note_off_c, 6, 68, 64
8, 1728, Note_on_c, 6, 66, 110
8, 1920, Note_off_c, 6, 66, 64
8, 2112, Note_on_c, 6, 71, 110
8, 2304, Note_off_c, 6, 71, 64
8, 2496, Note_on_c, 6, 64, 110
8, 4800, Note_off_c, 6, 64, 64
8, 4800, Note_on_c, 6, 73, 110
8, 4992, Note_off_c, 6, 73, 64
8, 5184, Note_on_c, 6, 73, 110
8, 5376, Note_off_c, 6, 73, 64
8, 5376, Note_on_c, 6, 73, 110
8, 5568, Note_off_c, 6, 73, 64
8, 5760, Note_on_c, 6, 73, 110
8, 5952, Note_off_c, 6, 73, 64
8, 5952, Note_on_c, 6, 73, 110
8, 6144, Note_off_c, 6, 73, 64
8, 6336, Note_on_c, 6, 71, 110
8, 6528, Note_off_c, 6, 71, 64
8, 6720, Note_on_c, 6, 76, 110
8, 6912, Note_off_c, 6, 76, 64
8, 7104, Note_on_c, 6, 69, 110
8, 9216, Control_c, 6, 7, 60
8, 9216, Program_c, 6, 56
8, 9408, Note_off_c, 6, 69, 64
8, 9408, Note_on_c, 6, 61, 81
8, 9408, Note_on_c, 6, 68, 110
8, 9600, Note_off_c, 6, 68, 64
8, 9600, Note_off_c, 6, 61, 64
8, 9792, Note_on_c, 6, 61, 81
8, 9792, Note_on_c, 6, 68, 110
8, 9984, Note_off_c, 6, 68, 64
8, 9984, Note_off_c, 6, 61, 64
8, 9984, Note_on_c, 6, 61, 81
8, 9984, Note_on_c, 6, 68, 110
8, 10176, Note_off_c, 6, 68, 64
8, 10176, Note_off_c, 6, 61, 64
8, 10368, Note_on_c, 6, 61, 81
8, 10368, Note_on_c, 6, 68, 110
8, 10560, Note_off_c, 6, 68, 64
8, 10560, Note_off_c, 6, 61, 64
8, 10560, Note_on_c, 6, 61, 81
8, 10560, Note_on_c, 6, 68, 110
8, 10752, Note_off_c, 6, 68, 64
8, 10752, Note_off_c, 6, 61, 64
8, 10944, Note_on_c, 6, 61, 81
8, 10944, Note_on_c, 6, 69, 110
8, 11136, Note_off_c, 6, 69, 64
8, 11136, Note_off_c, 6, 61, 64
8, 11328, Note_on_c, 6, 61, 81
8, 11328, Note_on_c, 6, 69, 110
8, 11520, Note_off_c, 6, 69, 64
8, 11520, Note_off_c, 6, 61, 64
8, 11712, Note_on_c, 6, 61, 81
8, 11712, Note_on_c, 6, 68, 110
8, 11904, Note_off_c, 6, 68, 64
8, 11904, Note_off_c, 6, 61, 64
8, 12096, Note_on_c, 6, 61, 81
8, 12096, Note_on_c, 6, 68, 110
8, 12288, Note_off_c, 6, 68, 64
8, 12288, Note_off_c, 6, 61, 64
8, 12288, Note_on_c, 6, 61, 81
8, 12288, Note_on_c, 6, 68, 110
8, 12480, Note_off_c, 6, 68, 64
8, 12480, Note_off_c, 6, 61, 64
8, 12672, Note_on_c, 6, 61, 81
8, 12672, Note_on_c, 6, 68, 110
8, 12864, Note_off_c, 6, 68, 64
8, 12864, Note_off_c, 6, 61, 64
8, 12864, Note_on_c, 6, 61, 81
8, 12864, Note_on_c, 6, 68, 110
8, 13056, Note_off_c, 6, 68, 64
8, 13056, Note_off_c, 6, 61, 64
8, 13248, Note_on_c, 6, 64, 81
8, 13248, Note_on_c, 6, 71, 110
8, 13440, Note_off_c, 6, 71, 64
8, 13440, Note_off_c, 6, 64, 64
8, 13632, Note_on_c, 6, 62, 81
8, 13632, Note_on_c, 6, 69, 110
8, 13824, Note_off_c, 6, 69, 64
8, 13824, Note_off_c, 6, 62, 64
8, 13824, Control_c, 6, 7, 60
8, 13824, Program_c, 6, 56
8, 14016, Note_on_c, 6, 61, 81
8, 14016, Note_on_c, 6, 76, 110
8, 14016, Note_on_c, 6, 68, 110
8, 14208, Note_off_c, 6, 68, 64
8, 14208, Note_off_c, 6, 76, 64
8, 14208, Note_off_c, 6, 61, 64
8, 14400, Note_on_c, 6, 61, 81
8, 14400, Note_on_c, 6, 76, 110
8, 14400, Note_on_c, 6, 68, 110
8, 14592, Note_off_c, 6, 68, 64
8, 14592, Note_off_c, 6, 76, 64
8, 14592, Note_off_c, 6, 61, 64
8, 14592, Note_on_c, 6, 61, 81
8, 14592, Note_on_c, 6, 76, 110
8, 14592, Note_on_c, 6, 68, 110
8, 14784, Note_off_c, 6, 68, 64
8, 14784, Note_off_c, 6, 76, 64
8, 14784, Note_off_c, 6, 61, 64
8, 14976, Note_on_c, 6, 61, 81
8, 14976, Note_on_c, 6, 76, 110
8, 14976, Note_on_c, 6, 68, 110
8, 15168, Note_off_c, 6, 68, 64
8, 15168, Note_off_c, 6, 76, 64
8, 15168, Note_off_c, 6, 61, 64
8, 15168, Note_on_c, 6, 61, 81
8, 15168, Note_on_c, 6, 76, 110
8, 15168, Note_on_c, 6, 68, 110
8, 15360, Note_off_c, 6, 68, 64
8, 15360, Note_off_c, 6, 76, 64
8, 15360, Note_off_c, 6, 61, 64
8, 15552, Note_on_c, 6, 61, 81
8, 15552, Note_on_c, 6, 76, 110
8, 15552, Note_on_c, 6, 69, 110
8, 15744, Note_off_c, 6, 69, 64
8, 15744, Note_off_c, 6, 76, 64
8, 15744, Note_off_c, 6, 61, 64
8, 15936, Note_on_c, 6, 61, 81
8, 15936, Note_on_c, 6, 76, 110
8, 15936, Note_on_c, 6, 69, 110
8, 16128, Note_off_c, 6, 69, 64
8, 16128, Note_off_c, 6, 76, 64
8, 16128, Note_off_c, 6, 61, 64
8, 16320, Note_on_c, 6, 61, 81
8, 16320, Note_on_c, 6, 76, 110
8, 16320, Note_on_c, 6, 68, 110
8, 16512, Note_off_c, 6, 68, 64
8, 16512, Note_off_c, 6, 76, 64
8, 16512, Note_off_c, 6, 61, 64
8, 16704, Note_on_c, 6, 61, 81
8, 16704, Note_on_c, 6, 76, 110
8, 16704, Note_on_c, 6, 68, 110
8, 16896, Note_off_c, 6, 68, 64
8, 16896, Note_off_c, 6, 76, 64
8, 16896, Note_off_c, 6, 61, 64
8, 16896, Note_on_c, 6, 61, 81
8, 16896, Note_on_c, 6, 76, 110
8, 16896, Note_on_c, 6, 68, 110
8, 17088, Note_off_c, 6, 68, 64
8, 17088, Note_off_c, 6, 76, 64
8, 17088, Note_off_c, 6, 61, 64
8, 17280, Note_on_c, 6, 61, 81
8, 17280, Note_on_c, 6, 76, 110
8, 17280, Note_on_c, 6, 68, 110
8, 17472, Note_off_c, 6, 68, 64
8, 17472, Note_off_c, 6, 76, 64
8, 17472, Note_off_c, 6, 61, 64
8, 17472, Note_on_c, 6, 61, 81
8, 17472, Note_on_c, 6, 76, 110
8, 17472, Note_on_c, 6, 68, 110
8, 17664, Note_off_c, 6, 68, 64
8, 17664, Note_off_c, 6, 76, 64
8, 17664, Note_off_c, 6, 61, 64
8, 17856, Note_on_c, 6, 64, 81
8, 17856, Note_on_c, 6, 78, 110
8, 17856, Note_on_c, 6, 71, 110
8, 18048, Note_off_c, 6, 71, 64
8, 18048, Note_off_c, 6, 78, 64
8, 18048, Note_off_c, 6, 64, 64
8, 18240, Note_on_c, 6, 62, 81
8, 18240, Note_on_c, 6, 78, 110
8, 18240, Note_on_c, 6, 69, 110
8, 18432, Note_off_c, 6, 69, 64
8, 18432, Note_off_c, 6, 78, 64
8, 18432, Note_off_c, 6, 62, 64
8, 27840, Note_on_c, 6, 73, 110
8, 27840, Note_on_c, 6, 68, 64
8, 28032, Note_off_c, 6, 68, 64
8, 28032, Note_off_c, 6, 73, 64
8, 28416, Note_on_c, 6, 75, 110
8, 28416, Note_on_c, 6, 71, 64
8, 28608, Note_off_c, 6, 71, 64
8, 28608, Note_off_c, 6, 75, 64
8, 28992, Note_on_c, 6, 76, 110
8, 28992, Note_on_c, 6, 73, 64
8, 29184, Note_off_c, 6, 73, 64
8, 29184, Note_off_c, 6, 76, 64
8, 29568, Note_on_c, 6, 75, 110
8, 29568, Note_on_c, 6, 71, 64
8, 29760, Note_off_c, 6, 71, 64
8, 29760, Note_off_c, 6, 75, 64
8, 30144, Note_on_c, 6, 73, 110
8, 30144, Note_on_c, 6, 68, 64
8, 30336, Note_off_c, 6, 68, 64
8, 30336, Note_off_c, 6, 73, 64
8, 30528, Note_on_c, 6, 76, 110
8, 30528, Note_on_c, 6, 73, 64
8, 30720, Note_off_c, 6, 73, 64
8, 30720, Note_off_c, 6, 76, 64
8, 30912, Note_on_c, 6, 69, 110
8, 30912, Note_on_c, 6, 66, 64
8, 33600, Note_off_c, 6, 66, 64
8, 33600, Note_off_c, 6, 69, 64
8, 33984, Note_on_c, 6, 71, 110
8, 33984, Note_on_c, 6, 66, 64
8, 34176, Note_off_c, 6, 66, 64
8, 34176, Note_off_c, 6, 71, 64
8, 34560, Note_on_c, 6, 73, 110
8, 34560, Note_on_c, 6, 66, 64
8, 34752, Note_off_c, 6, 66, 64
8, 34752, Note_off_c, 6, 73, 64
8, 35136, Note_on_c, 6, 75, 110
8, 35136, Note_on_c, 6, 71, 64
8, 35328, Note_off_c, 6, 71, 64
8, 35328, Note_off_c, 6, 75, 64
8, 35712, Note_on_c, 6, 73, 110
8, 35712, Note_on_c, 6, 66, 64
8, 35904, Note_off_c, 6, 66, 64
8, 35904, Note_off_c, 6, 73, 64
8, 36288, Note_on_c, 6, 71, 110
8, 36288, Note_on_c, 6, 66, 64
8, 36480, Note_off_c, 6, 66, 64
8, 36480, Note_off_c, 6, 71, 64
8, 36672, Note_on_c, 6, 75, 110
8, 36672, Note_on_c, 6, 71, 64
8, 36864, Note_off_c, 6, 71, 64
8, 36864, Note_off_c, 6, 75, 64
8, 37056, Note_on_c, 6, 68, 110
8, 37056, Note_on_c, 6, 63, 64
8, 40128, Note_off_c, 6, 63, 64
8, 40128, Note_off_c, 6, 68, 64
8, 40128, Note_on_c, 6, 64, 64
8, 40128, Note_on_c, 6, 69, 110
8, 40320, Note_off_c, 6, 69, 64
8, 40320, Note_off_c, 6, 64, 64
8, 40704, Note_on_c, 6, 68, 64
8, 40704, Note_on_c, 6, 71, 110
8, 40896, Note_off_c, 6, 71, 64
8, 40896, Note_off_c, 6, 68, 64
8, 41280, Note_on_c, 6, 69, 64
8, 41280, Note_on_c, 6, 73, 110
8, 41472, Note_off_c, 6, 73, 64
8, 41472, Note_off_c, 6, 69, 64
8, 41856, Note_on_c, 6, 68, 64
8, 41856, Note_on_c, 6, 71, 110
8, 42048, Note_off_c, 6, 71, 64
8, 42048, Note_off_c, 6, 68, 64
8, 42432, Note_on_c, 6, 66, 64
8, 42432, Note_on_c, 6, 69, 110
8, 42624, Note_off_c, 6, 69, 64
8, 42624, Note_off_c, 6, 66, 64
8, 42816, Note_on_c, 6, 64, 64
8, 42816, Note_on_c, 6, 68, 110
8, 43008, Note_off_c, 6, 68, 64
8, 43008, Note_off_c, 6, 64, 64
8, 43200, Note_on_c, 6, 61, 64
8, 43200, Note_on_c, 6, 66, 110
8, 45504, Note_off_c, 6, 66, 64
8, 45504, Note_off_c, 6, 61, 64
8, 45504, Note_on_c, 6, 59, 64
8, 45504, Note_on_c, 6, 64, 110
8, 46272, Note_off_c, 6, 64, 64
8, 46272, Note_off_c, 6, 59, 64
8, 46272, Note_on_c, 6, 58, 64
8, 46272, Note_on_c, 6, 63, 110
8, 48576, Note_off_c, 6, 63, 64
8, 48576, Note_off_c, 6, 58, 64
8, 48576, Note_on_c, 6, 58, 64
8, 48576, Note_on_c, 6, 63, 110
8, 49344, Note_off_c, 6, 63, 64
8, 49344, Note_off_c, 6, 58, 64
8, 49344, Note_on_c, 6, 63, 64
8, 49344, Note_on_c, 6, 68, 110
8, 51648, Note_off_c, 6, 68, 64
8, 51648, Note_off_c, 6, 63, 64
8, 123072, Note_on_c, 6, 73, 110
8, 123072, Note_on_c, 6, 68, 64
8, 123264, Note_off_c, 6, 68, 64
8, 123264, Note_off_c, 6, 73, 64
8, 123648, Note_on_c, 6, 75, 110
8, 123648, Note_on_c, 6, 71, 64
8, 123840, Note_off_c, 6, 71, 64
8, 123840, Note_off_c, 6, 75, 64
8, 124224, Note_on_c, 6, 76, 110
8, 124224, Note_on_c, 6, 73, 64
8, 124416, Note_off_c, 6, 73, 64
8, 124416, Note_off_c, 6, 76, 64
8, 124800, Note_on_c, 6, 75, 110
8, 124800, Note_on_c, 6, 71, 64
8, 124992, Note_off_c, 6, 71, 64
8, 124992, Note_off_c, 6, 75, 64
8, 125376, Note_on_c, 6, 73, 110
8, 125376, Note_on_c, 6, 68, 64
8, 125568, Note_off_c, 6, 68, 64
8, 125568, Note_off_c, 6, 73, 64
8, 125760, Note_on_c, 6, 76, 110
8, 125760, Note_on_c, 6, 73, 64
8, 125952, Note_off_c, 6, 73, 64
8, 125952, Note_off_c, 6, 76, 64
8, 126144, Note_on_c, 6, 69, 110
8, 126144, Note_on_c, 6, 66, 64
8, 128832, Note_off_c, 6, 66, 64
8, 128832, Note_off_c, 6, 69, 64
8, 129216, Note_on_c, 6, 71, 110
8, 129216, Note_on_c, 6, 66, 64
8, 129408, Note_off_c, 6, 66, 64
8, 129408, Note_off_c, 6, 71, 64
8, 129792, Note_on_c, 6, 73, 110
8, 129792, Note_on_c, 6, 66, 64
8, 129984, Note_off_c, 6, 66, 64
8, 129984, Note_off_c, 6, 73, 64
8, 130368, Note_on_c, 6, 75, 110
8, 130368, Note_on_c, 6, 71, 64
8, 130560, Note_off_c, 6, 71, 64
8, 130560, Note_off_c, 6, 75, 64
8, 130944, Note_on_c, 6, 73, 110
8, 130944, Note_on_c, 6, 66, 64
8, 131136, Note_off_c, 6, 66, 64
8, 131136, Note_off_c, 6, 73, 64
8, 131520, Note_on_c, 6, 71, 110
8, 131520, Note_on_c, 6, 66, 64
8, 131712, Note_off_c, 6, 66, 64
8, 131712, Note_off_c, 6, 71, 64
8, 131904, Note_on_c, 6, 75, 110
8, 131904, Note_on_c, 6, 71, 64
8, 132096, Note_off_c, 6, 71, 64
8, 132096, Note_off_c, 6, 75, 64
8, 132288, Note_on_c, 6, 68, 110
8, 132288, Note_on_c, 6, 63, 64
8, 135360, Note_off_c, 6, 63, 64
8, 135360, Note_off_c, 6, 68, 64
8, 135360, Note_on_c, 6, 64, 64
8, 135360, Note_on_c, 6, 69, 110
8, 135552, Note_off_c, 6, 69, 64
8, 135552, Note_off_c, 6, 64, 64
8, 135936, Note_on_c, 6, 68, 64
8, 135936, Note_on_c, 6, 71, 110
8, 136128, Note_off_c, 6, 71, 64
8, 136128, Note_off_c, 6, 68, 64
8, 136512, Note_on_c, 6, 69, 64
8, 136512, Note_on_c, 6, 73, 110
8, 136704, Note_off_c, 6, 73, 64
8, 136704, Note_off_c, 6, 69, 64
8, 137088, Note_on_c, 6, 68, 64
8, 137088, Note_on_c, 6, 71, 110
8, 137280, Note_off_c, 6, 71, 64
8, 137280, Note_off_c, 6, 68, 64
8, 137664, Note_on_c, 6, 66, 64
8, 137664, Note_on_c, 6, 69, 110
8, 137856, Note_off_c, 6, 69, 64
8, 137856, Note_off_c, 6, 66, 64
8, 138048, Note_on_c, 6, 64, 64
8, 138048, Note_on_c, 6, 68, 110
8, 138240, Note_off_c, 6, 68, 64
8, 138240, Note_off_c, 6, 64, 64
8, 138432, Note_on_c, 6, 61, 64
8, 138432, Note_on_c, 6, 66, 110
8, 140736, Note_off_c, 6, 66, 64
8, 140736, Note_off_c, 6, 61, 64
8, 140736, Note_on_c, 6, 59, 64
8, 140736, Note_on_c, 6, 64, 110
8, 141504, Note_off_c, 6, 64, 64
8, 141504, Note_off_c, 6, 59, 64
8, 141504, Note_on_c, 6, 58, 64
8, 141504, Note_on_c, 6, 63, 110
8, 143808, Note_off_c, 6, 63, 64
8, 143808, Note_off_c, 6, 58, 64
8, 143808, Note_on_c, 6, 58, 64
8, 143808, Note_on_c, 6, 63, 110
8, 144576, Note_off_c, 6, 63, 64
8, 144576, Note_off_c, 6, 58, 64
8, 144576, Note_on_c, 6, 63, 64
8, 144576, Note_on_c, 6, 68, 110
8, 146880, Note_off_c, 6, 68, 64
8, 146880, Note_off_c, 6, 63, 64
8, 218304, Note_on_c, 6, 73, 110
8, 218304, Note_on_c, 6, 68, 64
8, 218496, Note_off_c, 6, 68, 64
8, 218496, Note_off_c, 6, 73, 64
8, 218880, Note_on_c, 6, 75, 110
8, 218880, Note_on_c, 6, 71, 64
8, 219072, Note_off_c, 6, 71, 64
8, 219072, Note_off_c, 6, 75, 64
8, 219456, Note_on_c, 6, 76, 110
8, 219456, Note_on_c, 6, 73, 64
8, 219648, Note_off_c, 6, 73, 64
8, 219648, Note_off_c, 6, 76, 64
8, 220032, Note_on_c, 6, 75, 110
8, 220032, Note_on_c, 6, 71, 64
8, 220224, Note_off_c, 6, 71, 64
8, 220224, Note_off_c, 6, 75, 64
8, 220608, Note_on_c, 6, 73, 110
8, 220608, Note_on_c, 6, 68, 64
8, 220800, Note_off_c, 6, 68, 64
8, 220800, Note_off_c, 6, 73, 64
8, 220992, Note_on_c, 6, 76, 110
8, 220992, Note_on_c, 6, 73, 64
8, 221184, Note_off_c, 6, 73, 64
8, 221184, Note_off_c, 6, 76, 64
8, 221376, Note_on_c, 6, 69, 110
8, 221376, Note_on_c, 6, 66, 64
8, 224064, Note_off_c, 6, 66, 64
8, 224064, Note_off_c, 6, 69, 64
8, 224256, Control_c, 6, 7, 60
8, 224448, Note_on_c, 6, 71, 110
8, 224448, Note_on_c, 6, 66, 64
8, 224544, Control_c, 6, 7, 59
8, 224640, Note_off_c, 6, 66, 64
8, 224640, Note_off_c, 6, 71, 64
8, 224832, Control_c, 6, 7, 58
8, 225024, Note_on_c, 6, 73, 110
8, 225024, Note_on_c, 6, 66, 64
8, 225216, Note_off_c, 6, 66, 64
8, 225216, Note_off_c, 6, 73, 64
8, 225216, Control_c, 6, 7, 57
8, 225504, Control_c, 6, 7, 56
8, 225600, Note_on_c, 6, 75, 110
8, 225600, Note_on_c, 6, 71, 64
8, 225792, Note_off_c, 6, 71, 64
8, 225792, Note_off_c, 6, 75, 64
8, 225792, Control_c, 6, 7, 55
8, 226080, Control_c, 6, 7, 54
8, 226176, Note_on_c, 6, 73, 110
8, 226176, Note_on_c, 6, 66, 64
8, 226368, Note_off_c, 6, 66, 64
8, 226368, Note_off_c, 6, 73, 64
8, 226464, Control_c, 6, 7, 53
8, 226752, Control_c, 6, 7, 52
8, 226752, Note_on_c, 6, 71, 110
8, 226752, Note_on_c, 6, 66, 64
8, 226944, Note_off_c, 6, 66, 64
8, 226944, Note_off_c, 6, 71, 64
8, 227040, Control_c, 6, 7, 51
8, 227136, Note_on_c, 6, 75, 110
8, 227136, Note_on_c, 6, 71, 64
8, 227328, Note_off_c, 6, 71, 64
8, 227328, Note_off_c, 6, 75, 64
8, 227328, Control_c, 6, 7, 50
8, 227520, Note_on_c, 6, 68, 110
8, 227520, Note_on_c, 6, 63, 64
8, 227616, Control_c, 6, 7, 49
8, 228000, Control_c, 6, 7, 48
8, 228288, Control_c, 6, 7, 47
8, 228576, Control_c, 6, 7, 46
8, 228864, Control_c, 6, 7, 45
8, 229248, Control_c, 6, 7, 44
8, 229536, Control_c, 6, 7, 43
8, 229824, Control_c, 6, 7, 42
8, 230112, Control_c, 6, 7, 41
8, 230400, Control_c, 6, 7, 40
8, 230592, Note_off_c, 6, 63, 64
8, 230592, Note_off_c, 6, 68, 64
8, 230592, Note_on_c, 6, 64, 64
8, 230592, Note_on_c, 6, 69, 110
8, 230784, Note_off_c, 6, 69, 64
8, 230784, Note_off_c, 6, 64, 64
8, 230784, Control_c, 6, 7, 39
8, 231072, Control_c, 6, 7, 38
8, 231168, Note_on_c, 6, 68, 64
8, 231168, Note_on_c, 6, 71, 110
8, 231360, Note_off_c, 6, 71, 64
8, 231360, Note_off_c, 6, 68, 64
8, 231360, Control_c, 6, 7, 37
8, 231648, Control_c, 6, 7, 36
8, 231744, Note_on_c, 6, 69, 64
8, 231744, Note_on_c, 6, 73, 110
8, 231936, Note_off_c, 6, 73, 64
8, 231936, Note_off_c, 6, 69, 64
8, 232032, Control_c, 6, 7, 35
8, 232320, Control_c, 6, 7, 34
8, 232320, Note_on_c, 6, 68, 64
8, 232320, Note_on_c, 6, 71, 110
8, 232512, Note_off_c, 6, 71, 64
8, 232512, Note_off_c, 6, 68, 64
8, 232608, Control_c, 6, 7, 33
8, 232896, Control_c, 6, 7, 32
8, 232896, Note_on_c, 6, 66, 64
8, 232896, Note_on_c, 6, 69, 110
8, 233088, Note_off_c, 6, 69, 64
8, 233088, Note_off_c, 6, 66, 64
8, 233184, Control_c, 6, 7, 31
8, 233280, Note_on_c, 6, 64, 64
8, 233280, Note_on_c, 6, 68, 110
8, 233472, Note_off_c, 6, 68, 64
8, 233472, Note_off_c, 6, 64, 64
8, 233568, Control_c, 6, 7, 30
8, 233664, Note_on_c, 6, 61, 64
8, 233664, Note_on_c, 6, 66, 110
8, 233856, Control_c, 6, 7, 29
8, 234144, Control_c, 6, 7, 28
8, 234432, Control_c, 6, 7, 27
8, 234816, Control_c, 6, 7, 26
8, 235104, Control_c, 6, 7, 25
8, 235392, Control_c, 6, 7, 24
8, 235680, Control_c, 6, 7, 23
8, 235968, Note_off_c, 6, 66, 64
8, 235968, Note_off_c, 6, 61, 64
8, 235968, Control_c, 6, 7, 22
8, 235968, Note_on_c, 6, 59, 64
8, 235968, Note_on_c, 6, 64, 110
8, 236352, Control_c, 6, 7, 21
8, 236640, Control_c, 6, 7, 20
8, 236736, Note_off_c, 6, 64, 64
8, 236736, Note_off_c, 6, 59, 64
8, 236736, Note_on_c, 6, 58, 64
8, 236736, Note_on_c, 6, 63, 110
8, 236928, Control_c, 6, 7, 19
8, 237216, Control_c, 6, 7, 18
8, 237600, Control_c, 6, 7, 17
8, 237888, Control_c, 6, 7, 16
8, 238176, Control_c, 6, 7, 15
8, 238464, Control_c, 6, 7, 14
8, 238752, Control_c, 6, 7, 13
8, 239040, Note_off_c, 6, 63, 64
8, 239040, Note_off_c, 6, 58, 64
8, 239040, Note_on_c, 6, 58, 64
8, 239040, Note_on_c, 6, 63, 110
8, 239136, Control_c, 6, 7, 12
8, 239424, Control_c, 6, 7, 11
8, 239712, Control_c, 6, 7, 10
8, 239808, Note_off_c, 6, 63, 64
8, 239808, Note_off_c, 6, 58, 64
8, 239808, Note_on_c, 6, 63, 64
8, 239808, Note_on_c, 6, 68, 110
8, 240000, Control_c, 6, 7, 9
8, 240384, Control_c, 6, 7, 8
8, 240672, Control_c, 6, 7, 7
8, 240960, Control_c, 6, 7, 6
8, 241248, Control_c, 6, 7, 5
8, 241536, Control_c, 6, 7, 4
8, 241920, Control_c, 6, 7, 3
8, 242112, Note_off_c, 6, 68, 64
8, 242112, Note_off_c, 6, 63, 64
8, 242208, Control_c, 6, 7, 2
8, 242496, Control_c, 6, 7, 1
8, 242688, End_track
9, 0, Start_track
9, 0, Title_t, "Uematsu"
9, 0, Control_c, 7, 7, 100
9, 0, Program_c, 7, 80
9, 0, Control_c, 7, 10, 101
9, 0, Control_c, 7, 91, 41
9, 52224, Control_c, 7, 7, 100
9, 52224, Program_c, 7, 80
9, 52224, Note_on_c, 7, 85, 110
9, 52416, Note_off_c, 7, 85, 64
9, 52416, Note_on_c, 7, 80, 95
9, 52608, Note_off_c, 7, 80, 64
9, 52608, Note_on_c, 7, 76, 81
9, 52800, Note_off_c, 7, 76, 64
9, 52800, Note_on_c, 7, 87, 107
9, 52992, Note_off_c, 7, 87, 64
9, 52992, Note_on_c, 7, 80, 91
9, 53184, Note_off_c, 7, 80, 64
9, 53184, Note_on_c, 7, 76, 74
9, 53376, Note_off_c, 7, 76, 64
9, 53376, Note_on_c, 7, 88, 108
9, 53568, Note_off_c, 7, 88, 64
9, 53568, Note_on_c, 7, 80, 91
9, 53760, Note_off_c, 7, 80, 64
9, 53760, Note_on_c, 7, 76, 74
9, 53952, Note_off_c, 7, 76, 64
9, 53952, Note_on_c, 7, 87, 110
9, 54144, Note_off_c, 7, 87, 64
9, 54144, Note_on_c, 7, 80, 91
9, 54336, Note_off_c, 7, 80, 64
9, 54336, Note_on_c, 7, 76, 72
9, 54528, Note_off_c, 7, 76, 64
9, 54528, Note_on_c, 7, 85, 108
9, 54720, Note_off_c, 7, 85, 64
9, 54720, Note_on_c, 7, 76, 79
9, 54912, Note_off_c, 7, 76, 64
9, 54912, Note_on_c, 7, 83, 108
9, 55104, Note_off_c, 7, 83, 64
9, 55104, Note_on_c, 7, 76, 78
9, 55296, Note_off_c, 7, 76, 64
9, 55296, Note_on_c, 7, 81, 110
9, 55392, Note_on_c, 7, 69, 86
9, 55488, Note_off_c, 7, 81, 64
9, 55488, Note_on_c, 7, 71, 86
9, 55584, Note_off_c, 7, 69, 64
9, 55680, Note_off_c, 7, 71, 64
9, 55680, Note_on_c, 7, 73, 86
9, 55872, Note_off_c, 7, 73, 64
9, 55872, Note_on_c, 7, 76, 86
9, 56064, Note_off_c, 7, 76, 64
9, 56064, Note_on_c, 7, 69, 86
9, 56256, Note_off_c, 7, 69, 64
9, 56256, Note_on_c, 7, 73, 86
9, 56448, Note_off_c, 7, 73, 64
9, 56448, Note_on_c, 7, 76, 86
9, 56640, Note_off_c, 7, 76, 64
9, 56640, Note_on_c, 7, 71, 86
9, 56832, Note_off_c, 7, 71, 64
9, 56832, Note_on_c, 7, 73, 86
9, 57024, Note_off_c, 7, 73, 64
9, 57024, Note_on_c, 7, 76, 86
9, 57216, Note_off_c, 7, 76, 64
9, 57216, Note_on_c, 7, 69, 86
9, 57408, Note_off_c, 7, 69, 64
9, 57408, Note_on_c, 7, 73, 86
9, 57600, Note_off_c, 7, 73, 64
9, 57600, Note_on_c, 7, 69, 86
9, 57792, Note_off_c, 7, 69, 64
9, 57792, Note_on_c, 7, 71, 86
9, 57984, Note_off_c, 7, 71, 64
9, 57984, Note_on_c, 7, 73, 86
9, 58176, Note_off_c, 7, 73, 64
9, 58176, Note_on_c, 7, 76, 86
9, 58368, Note_off_c, 7, 76, 64
9, 58368, Note_on_c, 7, 83, 107
9, 58560, Note_off_c, 7, 83, 64
9, 58560, Note_on_c, 7, 78, 91
9, 58752, Note_off_c, 7, 78, 64
9, 58752, Note_on_c, 7, 75, 74
9, 58944, Note_off_c, 7, 75, 64
9, 58944, Note_on_c, 7, 85, 108
9, 59136, Note_off_c, 7, 85, 64
9, 59136, Note_on_c, 7, 78, 91
9, 59328, Note_off_c, 7, 78, 64
9, 59328, Note_on_c, 7, 75, 74
9, 59520, Note_off_c, 7, 75, 64
9, 59520, Note_on_c, 7, 87, 108
9, 59712, Note_off_c, 7, 87, 64
9, 59712, Note_on_c, 7, 78, 91
9, 59904, Note_off_c, 7, 78, 64
9, 59904, Note_on_c, 7, 75, 74
9, 60096, Note_off_c, 7, 75, 64
9, 60096, Note_on_c, 7, 85, 107
9, 60288, Note_off_c, 7, 85, 64
9, 60288, Note_on_c, 7, 78, 91
9, 60480, Note_off_c, 7, 78, 64
9, 60480, Note_on_c, 7, 75, 74
9, 60672, Note_off_c, 7, 75, 64
9, 60672, Note_on_c, 7, 83, 107
9, 60864, Note_off_c, 7, 83, 64
9, 60864, Note_on_c, 7, 75, 77
9, 61056, Note_off_c, 7, 75, 64
9, 61056, Note_on_c, 7, 87, 108
9, 61248, Note_off_c, 7, 87, 64
9, 61248, Note_on_c, 7, 75, 81
9, 61440, Note_off_c, 7, 75, 64
9, 61440, Note_on_c, 7, 80, 110
9, 61536, Note_on_c, 7, 68, 86
9, 61632, Note_off_c, 7, 80, 64
9, 61632, Note_on_c, 7, 71, 86
9, 61728, Note_off_c, 7, 68, 64
9, 61824, Note_off_c, 7, 71, 64
9, 61824, Note_on_c, 7, 75, 86
9, 62016, Note_off_c, 7, 75, 64
9, 62016, Note_on_c, 7, 76, 86
9, 62208, Note_off_c, 7, 76, 64
9, 62208, Note_on_c, 7, 68, 86
9, 62400, Note_off_c, 7, 68, 64
9, 62400, Note_on_c, 7, 71, 86
9, 62592, Note_off_c, 7, 71, 64
9, 62592, Note_on_c, 7, 76, 86
9, 62784, Note_off_c, 7, 76, 64
9, 62784, Note_on_c, 7, 71, 86
9, 62976, Note_off_c, 7, 71, 64
9, 62976, Note_on_c, 7, 75, 86
9, 63168, Note_off_c, 7, 75, 64
9, 63168, Note_on_c, 7, 76, 86
9, 63360, Note_off_c, 7, 76, 64
9, 63360, Note_on_c, 7, 68, 86
9, 63552, Note_off_c, 7, 68, 64
9, 63552, Note_on_c, 7, 71, 86
9, 63744, Note_off_c, 7, 71, 64
9, 63744, Note_on_c, 7, 68, 86
9, 63936, Note_off_c, 7, 68, 64
9, 63936, Note_on_c, 7, 71, 86
9, 64128, Note_off_c, 7, 71, 64
9, 64128, Note_on_c, 7, 75, 86
9, 64320, Note_off_c, 7, 75, 64
9, 64320, Note_on_c, 7, 76, 86
9, 64512, Note_off_c, 7, 76, 64
9, 64512, Control_c, 7, 7, 100
9, 64512, Program_c, 7, 80
9, 64512, Note_on_c, 7, 81, 110
9, 64704, Note_off_c, 7, 81, 64
9, 64704, Note_on_c, 7, 76, 93
9, 64896, Note_off_c, 7, 76, 64
9, 64896, Note_on_c, 7, 73, 76
9, 65088, Note_off_c, 7, 73, 64
9, 65088, Note_on_c, 7, 83, 108
9, 65280, Note_off_c, 7, 83, 64
9, 65280, Note_on_c, 7, 76, 91
9, 65472, Note_off_c, 7, 76, 64
9, 65472, Note_on_c, 7, 73, 73
9, 65664, Note_off_c, 7, 73, 64
9, 65664, Note_on_c, 7, 85, 108
9, 65856, Note_off_c, 7, 85, 64
9, 65856, Note_on_c, 7, 76, 91
9, 66048, Note_off_c, 7, 76, 64
9, 66048, Note_on_c, 7, 73, 73
9, 66240, Note_off_c, 7, 73, 64
9, 66240, Note_on_c, 7, 83, 111
9, 66432, Note_off_c, 7, 83, 64
9, 66432, Note_on_c, 7, 76, 91
9, 66624, Note_off_c, 7, 76, 64
9, 66624, Note_on_c, 7, 73, 72
9, 66816, Note_off_c, 7, 73, 64
9, 66816, Note_on_c, 7, 81, 108
9, 67008, Note_off_c, 7, 81, 64
9, 67008, Note_on_c, 7, 73, 78
9, 67200, Note_off_c, 7, 73, 64
9, 67200, Note_on_c, 7, 80, 110
9, 67392, Note_off_c, 7, 80, 64
9, 67392, Note_on_c, 7, 73, 86
9, 67584, Note_off_c, 7, 73, 64
9, 67584, Note_on_c, 7, 63, 86
9, 67584, Note_on_c, 7, 79, 110
9, 67776, Note_off_c, 7, 79, 64
9, 67776, Note_off_c, 7, 63, 64
9, 67776, Note_on_c, 7, 67, 86
9, 67968, Note_off_c, 7, 67, 64
9, 67968, Note_on_c, 7, 73, 86
9, 68160, Note_off_c, 7, 73, 64
9, 68160, Note_on_c, 7, 75, 86
9, 68352, Note_off_c, 7, 75, 64
9, 68352, Note_on_c, 7, 63, 86
9, 68544, Note_off_c, 7, 63, 64
9, 68544, Note_on_c, 7, 73, 86
9, 68736, Note_off_c, 7, 73, 64
9, 68736, Note_on_c, 7, 75, 86
9, 68928, Note_off_c, 7, 75, 64
9, 68928, Note_on_c, 7, 67, 86
9, 69120, Note_off_c, 7, 67, 64
9, 69120, Note_on_c, 7, 73, 86
9, 69312, Note_off_c, 7, 73, 64
9, 69312, Note_on_c, 7, 75, 86
9, 69504, Note_off_c, 7, 75, 64
9, 69504, Note_on_c, 7, 63, 86
9, 69696, Note_off_c, 7, 63, 64
9, 69696, Note_on_c, 7, 73, 86
9, 69888, Note_off_c, 7, 73, 64
9, 69888, Note_on_c, 7, 63, 86
9, 70080, Note_off_c, 7, 63, 64
9, 70080, Note_on_c, 7, 67, 86
9, 70272, Note_off_c, 7, 67, 64
9, 70272, Note_on_c, 7, 73, 86
9, 70464, Note_off_c, 7, 73, 64
9, 70464, Note_on_c, 7, 75, 86
9, 70656, Note_off_c, 7, 75, 64
9, 70656, Note_on_c, 7, 82, 108
9, 70848, Note_off_c, 7, 82, 64
9, 70848, Note_on_c, 7, 79, 89
9, 71040, Note_off_c, 7, 79, 64
9, 71040, Note_on_c, 7, 75, 70
9, 71232, Note_off_c, 7, 75, 64
9, 71232, Note_on_c, 7, 83, 108
9, 71424, Note_off_c, 7, 83, 64
9, 71424, Note_on_c, 7, 79, 89
9, 71616, Note_off_c, 7, 79, 64
9, 71616, Note_on_c, 7, 75, 70
9, 71808, Note_off_c, 7, 75, 64
9, 71808, Note_on_c, 7, 85, 108
9, 72000, Note_off_c, 7, 85, 64
9, 72000, Note_on_c, 7, 79, 89
9, 72192, Note_off_c, 7, 79, 64
9, 72192, Note_on_c, 7, 75, 70
9, 72384, Note_off_c, 7, 75, 64
9, 72384, Note_on_c, 7, 88, 107
9, 72576, Note_off_c, 7, 88, 64
9, 72576, Note_on_c, 7, 79, 88
9, 72768, Note_off_c, 7, 79, 64
9, 72768, Note_on_c, 7, 75, 69
9, 72960, Note_off_c, 7, 75, 64
9, 72960, Note_on_c, 7, 87, 108
9, 73152, Note_off_c, 7, 87, 64
9, 73152, Note_on_c, 7, 75, 86
9, 73344, Note_off_c, 7, 75, 64
9, 73344, Note_on_c, 7, 85, 107
9, 73536, Note_off_c, 7, 85, 64
9, 73536, Note_on_c, 7, 75, 74
9, 73728, Note_off_c, 7, 75, 64
9, 73728, Note_on_c, 7, 87, 110
9, 73920, Note_off_c, 7, 87, 64
9, 73920, Note_on_c, 7, 80, 86
9, 74112, Note_off_c, 7, 80, 64
9, 74112, Note_on_c, 7, 82, 86
9, 74304, Note_off_c, 7, 82, 64
9, 74304, Note_on_c, 7, 84, 86
9, 74496, Note_off_c, 7, 84, 64
9, 74496, Note_on_c, 7, 79, 86
9, 74688, Note_off_c, 7, 79, 64
9, 74688, Note_on_c, 7, 80, 86
9, 74880, Note_off_c, 7, 80, 64
9, 74880, Note_on_c, 7, 82, 86
9, 75072, Note_off_c, 7, 82, 64
9, 75072, Note_on_c, 7, 75, 86
9, 75264, Note_off_c, 7, 75, 64
9, 75264, Note_on_c, 7, 80, 86
9, 75456, Note_off_c, 7, 80, 64
9, 75456, Note_on_c, 7, 73, 86
9, 75648, Note_off_c, 7, 73, 64
9, 75648, Note_on_c, 7, 75, 86
9, 75840, Note_off_c, 7, 75, 64
9, 75840, Note_on_c, 7, 76, 86
9, 76032, Note_off_c, 7, 76, 64
9, 76032, Note_on_c, 7, 75, 86
9, 76224, Note_off_c, 7, 75, 64
9, 76224, Note_on_c, 7, 70, 86
9, 76416, Note_off_c, 7, 70, 64
9, 76416, Note_on_c, 7, 73, 86
9, 76608, Note_off_c, 7, 73, 64
9, 76608, Note_on_c, 7, 67, 86
9, 76800, Note_off_c, 7, 67, 64
9, 95232, Control_c, 7, 7, 100
9, 95232, Program_c, 7, 80
9, 95424, Note_on_c, 7, 69, 110
9, 95616, Note_off_c, 7, 69, 64
9, 95616, Note_on_c, 7, 71, 110
9, 95808, Note_off_c, 7, 71, 64
9, 95808, Note_on_c, 7, 73, 110
9, 96000, Note_off_c, 7, 73, 64
9, 96000, Note_on_c, 7, 75, 110
9, 96384, Note_off_c, 7, 75, 64
9, 96384, Note_on_c, 7, 73, 110
9, 96576, Note_off_c, 7, 73, 64
9, 96576, Note_on_c, 7, 75, 110
9, 96768, Note_off_c, 7, 75, 64
9, 96768, Note_on_c, 7, 76, 110
9, 97152, Note_off_c, 7, 76, 64
9, 97152, Note_on_c, 7, 75, 110
9, 97344, Note_off_c, 7, 75, 64
9, 97344, Note_on_c, 7, 76, 110
9, 97536, Note_off_c, 7, 76, 64
9, 97536, Note_on_c, 7, 78, 110
9, 97824, Note_off_c, 7, 78, 64
9, 97824, Note_on_c, 7, 76, 110
9, 98112, Note_off_c, 7, 76, 64
9, 98112, Note_on_c, 7, 78, 110
9, 98304, Note_off_c, 7, 78, 64
9, 98496, Note_on_c, 7, 71, 110
9, 98688, Note_off_c, 7, 71, 64
9, 98688, Note_on_c, 7, 73, 110
9, 98880, Note_off_c, 7, 73, 64
9, 98880, Note_on_c, 7, 75, 110
9, 99072, Note_off_c, 7, 75, 64
9, 99072, Note_on_c, 7, 76, 110
9, 99456, Note_off_c, 7, 76, 64
9, 99456, Note_on_c, 7, 75, 110
9, 99648, Note_off_c, 7, 75, 64
9, 99648, Note_on_c, 7, 76, 110
9, 99840, Note_off_c, 7, 76, 64
9, 99840, Note_on_c, 7, 78, 110
9, 100224, Note_off_c, 7, 78, 64
9, 100224, Note_on_c, 7, 76, 110
9, 100416, Note_off_c, 7, 76, 64
9, 100416, Note_on_c, 7, 78, 110
9, 100608, Note_off_c, 7, 78, 64
9, 100608, Note_on_c, 7, 83, 110
9, 100896, Note_off_c, 7, 83, 64
9, 100896, Note_on_c, 7, 81, 110
9, 101184, Note_off_c, 7, 81, 64
9, 101184, Note_on_c, 7, 83, 110
9, 101376, Note_off_c, 7, 83, 64
9, 101376, Control_c, 7, 7, 100
9, 101376, Program_c, 7, 80
9, 101376, Note_on_c, 7, 85, 110
9, 103680, Note_off_c, 7, 85, 64
9, 103680, Note_on_c, 7, 87, 110
9, 104448, Note_off_c, 7, 87, 64
9, 104448, Note_on_c, 7, 88, 110
9, 106752, Note_off_c, 7, 88, 64
9, 106752, Note_on_c, 7, 92, 110
9, 107520, Note_off_c, 7, 92, 64
9, 107520, Note_on_c, 7, 90, 110
9, 109824, Note_off_c, 7, 90, 64
9, 109824, Note_on_c, 7, 88, 110
9, 110592, Note_off_c, 7, 88, 64
9, 110592, Note_on_c, 7, 90, 110
9, 113664, Note_off_c, 7, 90, 64
9, 147456, Control_c, 7, 7, 100
9, 147456, Program_c, 7, 80
9, 147456, Note_on_c, 7, 85, 110
9, 147648, Note_off_c, 7, 85, 64
9, 147648, Note_on_c, 7, 80, 95
9, 147840, Note_off_c, 7, 80, 64
9, 147840, Note_on_c, 7, 76, 81
9, 148032, Note_off_c, 7, 76, 64
9, 148032, Note_on_c, 7, 87, 107
9, 148224, Note_off_c, 7, 87, 64
9, 148224, Note_on_c, 7, 80, 91
9, 148416, Note_off_c, 7, 80, 64
9, 148416, Note_on_c, 7, 76, 74
9, 148608, Note_off_c, 7, 76, 64
9, 148608, Note_on_c, 7, 88, 108
9, 148800, Note_off_c, 7, 88, 64
9, 148800, Note_on_c, 7, 80, 91
9, 148992, Note_off_c, 7, 80, 64
9, 148992, Note_on_c, 7, 76, 74
9, 149184, Note_off_c, 7, 76, 64
9, 149184, Note_on_c, 7, 87, 110
9, 149376, Note_off_c, 7, 87, 64
9, 149376, Note_on_c, 7, 80, 91
9, 149568, Note_off_c, 7, 80, 64
9, 149568, Note_on_c, 7, 76, 72
9, 149760, Note_off_c, 7, 76, 64
9, 149760, Note_on_c, 7, 85, 108
9, 149952, Note_off_c, 7, 85, 64
9, 149952, Note_on_c, 7, 76, 79
9, 150144, Note_off_c, 7, 76, 64
9, 150144, Note_on_c, 7, 83, 108
9, 150336, Note_off_c, 7, 83, 64
9, 150336, Note_on_c, 7, 76, 78
9, 150528, Note_off_c, 7, 76, 64
9, 150528, Note_on_c, 7, 81, 110
9, 150624, Note_on_c, 7, 69, 86
9, 150720, Note_off_c, 7, 81, 64
9, 150720, Note_on_c, 7, 71, 86
9, 150816, Note_off_c, 7, 69, 64
9, 150912, Note_off_c, 7, 71, 64
9, 150912, Note_on_c, 7, 73, 86
9, 151104, Note_off_c, 7, 73, 64
9, 151104, Note_on_c, 7, 76, 86
9, 151296, Note_off_c, 7, 76, 64
9, 151296, Note_on_c, 7, 69, 86
9, 151488, Note_off_c, 7, 69, 64
9, 151488, Note_on_c, 7, 73, 86
9, 151680, Note_off_c, 7, 73, 64
9, 151680, Note_on_c, 7, 76, 86
9, 151872, Note_off_c, 7, 76, 64
9, 151872, Note_on_c, 7, 71, 86
9, 152064, Note_off_c, 7, 71, 64
9, 152064, Note_on_c, 7, 73, 86
9, 152256, Note_off_c, 7, 73, 64
9, 152256, Note_on_c, 7, 76, 86
9, 152448, Note_off_c, 7, 76, 64
9, 152448, Note_on_c, 7, 69, 86
9, 152640, Note_off_c, 7, 69, 64
9, 152640, Note_on_c, 7, 73, 86
9, 152832, Note_off_c, 7, 73, 64
9, 152832, Note_on_c, 7, 69, 86
9, 153024, Note_off_c, 7, 69, 64
9, 153024, Note_on_c, 7, 71, 86
9, 153216, Note_off_c, 7, 71, 64
9, 153216, Note_on_c, 7, 73, 86
9, 153408, Note_off_c, 7, 73, 64
9, 153408, Note_on_c, 7, 76, 86
9, 153600, Note_off_c, 7, 76, 64
9, 153600, Note_on_c, 7, 83, 107
9, 153792, Note_off_c, 7, 83, 64
9, 153792, Note_on_c, 7, 78, 91
9, 153984, Note_off_c, 7, 78, 64
9, 153984, Note_on_c, 7, 75, 74
9, 154176, Note_off_c, 7, 75, 64
9, 154176, Note_on_c, 7, 85, 108
9, 154368, Note_off_c, 7, 85, 64
9, 154368, Note_on_c, 7, 78, 91
9, 154560, Note_off_c, 7, 78, 64
9, 154560, Note_on_c, 7, 75, 74
9, 154752, Note_off_c, 7, 75, 64
9, 154752, Note_on_c, 7, 87, 108
9, 154944, Note_off_c, 7, 87, 64
9, 154944, Note_on_c, 7, 78, 91
9, 155136, Note_off_c, 7, 78, 64
9, 155136, Note_on_c, 7, 75, 74
9, 155328, Note_off_c, 7, 75, 64
9, 155328, Note_on_c, 7, 85, 107
9, 155520, Note_off_c, 7, 85, 64
9, 155520, Note_on_c, 7, 78, 91
9, 155712, Note_off_c, 7, 78, 64
9, 155712, Note_on_c, 7, 75, 74
9, 155904, Note_off_c, 7, 75, 64
9, 155904, Note_on_c, 7, 83, 107
9, 156096, Note_off_c, 7, 83, 64
9, 156096, Note_on_c, 7, 75, 77
9, 156288, Note_off_c, 7, 75, 64
9, 156288, Note_on_c, 7, 87, 108
9, 156480, Note_off_c, 7, 87, 64
9, 156480, Note_on_c, 7, 75, 81
9, 156672, Note_off_c, 7, 75, 64
9, 156672, Note_on_c, 7, 80, 110
9, 156768, Note_on_c, 7, 68, 86
9, 156864, Note_off_c, 7, 80, 64
9, 156864, Note_on_c, 7, 71, 86
9, 156960, Note_off_c, 7, 68, 64
9, 157056, Note_off_c, 7, 71, 64
9, 157056, Note_on_c, 7, 75, 86
9, 157248, Note_off_c, 7, 75, 64
9, 157248, Note_on_c, 7, 76, 86
9, 157440, Note_off_c, 7, 76, 64
9, 157440, Note_on_c, 7, 68, 86
9, 157632, Note_off_c, 7, 68, 64
9, 157632, Note_on_c, 7, 71, 86
9, 157824, Note_off_c, 7, 71, 64
9, 157824, Note_on_c, 7, 76, 86
9, 158016, Note_off_c, 7, 76, 64
9, 158016, Note_on_c, 7, 71, 86
9, 158208, Note_off_c, 7, 71, 64
9, 158208, Note_on_c, 7, 75, 86
9, 158400, Note_off_c, 7, 75, 64
9, 158400, Note_on_c, 7, 76, 86
9, 158592, Note_off_c, 7, 76, 64
9, 158592, Note_on_c, 7, 68, 86
9, 158784, Note_off_c, 7, 68, 64
9, 158784, Note_on_c, 7, 71, 86
9, 158976, Note_off_c, 7, 71, 64
9, 158976, Note_on_c, 7, 68, 86
9, 159168, Note_off_c, 7, 68, 64
9, 159168, Note_on_c, 7, 71, 86
9, 159360, Note_off_c, 7, 71, 64
9, 159360, Note_on_c, 7, 75, 86
9, 159552, Note_off_c, 7, 75, 64
9, 159552, Note_on_c, 7, 76, 86
9, 159744, Note_off_c, 7, 76, 64
9, 159744, Control_c, 7, 7, 100
9, 159744, Program_c, 7, 80
9, 159744, Note_on_c, 7, 81, 110
9, 159936, Note_off_c, 7, 81, 64
9, 159936, Note_on_c, 7, 76, 93
9, 160128, Note_off_c, 7, 76, 64
9, 160128, Note_on_c, 7, 73, 76
9, 160320, Note_off_c, 7, 73, 64
9, 160320, Note_on_c, 7, 83, 108
9, 160512, Note_off_c, 7, 83, 64
9, 160512, Note_on_c, 7, 76, 91
9, 160704, Note_off_c, 7, 76, 64
9, 160704, Note_on_c, 7, 73, 73
9, 160896, Note_off_c, 7, 73, 64
9, 160896, Note_on_c, 7, 85, 108
9, 161088, Note_off_c, 7, 85, 64
9, 161088, Note_on_c, 7, 76, 91
9, 161280, Note_off_c, 7, 76, 64
9, 161280, Note_on_c, 7, 73, 73
9, 161472, Note_off_c, 7, 73, 64
9, 161472, Note_on_c, 7, 83, 111
9, 161664, Note_off_c, 7, 83, 64
9, 161664, Note_on_c, 7, 76, 91
9, 161856, Note_off_c, 7, 76, 64
9, 161856, Note_on_c, 7, 73, 72
9, 162048, Note_off_c, 7, 73, 64
9, 162048, Note_on_c, 7, 81, 108
9, 162240, Note_off_c, 7, 81, 64
9, 162240, Note_on_c, 7, 73, 78
9, 162432, Note_off_c, 7, 73, 64
9, 162432, Note_on_c, 7, 80, 110
9, 162624, Note_off_c, 7, 80, 64
9, 162624, Note_on_c, 7, 73, 86
9, 162816, Note_off_c, 7, 73, 64
9, 162816, Note_on_c, 7, 63, 86
9, 162816, Note_on_c, 7, 79, 110
9, 163008, Note_off_c, 7, 79, 64
9, 163008, Note_off_c, 7, 63, 64
9, 163008, Note_on_c, 7, 67, 86
9, 163200, Note_off_c, 7, 67, 64
9, 163200, Note_on_c, 7, 73, 86
9, 163392, Note_off_c, 7, 73, 64
9, 163392, Note_on_c, 7, 75, 86
9, 163584, Note_off_c, 7, 75, 64
9, 163584, Note_on_c, 7, 63, 86
9, 163776, Note_off_c, 7, 63, 64
9, 163776, Note_on_c, 7, 73, 86
9, 163968, Note_off_c, 7, 73, 64
9, 163968, Note_on_c, 7, 75, 86
9, 164160, Note_off_c, 7, 75, 64
9, 164160, Note_on_c, 7, 67, 86
9, 164352, Note_off_c, 7, 67, 64
9, 164352, Note_on_c, 7, 73, 86
9, 164544, Note_off_c, 7, 73, 64
9, 164544, Note_on_c, 7, 75, 86
9, 164736, Note_off_c, 7, 75, 64
9, 164736, Note_on_c, 7, 63, 86
9, 164928, Note_off_c, 7, 63, 64
9, 164928, Note_on_c, 7, 73, 86
9, 165120, Note_off_c, 7, 73, 64
9, 165120, Note_on_c, 7, 63, 86
9, 165312, Note_off_c, 7, 63, 64
9, 165312, Note_on_c, 7, 67, 86
9, 165504, Note_off_c, 7, 67, 64
9, 165504, Note_on_c, 7, 73, 86
9, 165696, Note_off_c, 7, 73, 64
9, 165696, Note_on_c, 7, 75, 86
9, 165888, Note_off_c, 7, 75, 64
9, 165888, Note_on_c, 7, 82, 108
9, 166080, Note_off_c, 7, 82, 64
9, 166080, Note_on_c, 7, 79, 89
9, 166272, Note_off_c, 7, 79, 64
9, 166272, Note_on_c, 7, 75, 70
9, 166464, Note_off_c, 7, 75, 64
9, 166464, Note_on_c, 7, 83, 108
9, 166656, Note_off_c, 7, 83, 64
9, 166656, Note_on_c, 7, 79, 89
9, 166848, Note_off_c, 7, 79, 64
9, 166848, Note_on_c, 7, 75, 70
9, 167040, Note_off_c, 7, 75, 64
9, 167040, Note_on_c, 7, 85, 108
9, 167232, Note_off_c, 7, 85, 64
9, 167232, Note_on_c, 7, 79, 89
9, 167424, Note_off_c, 7, 79, 64
9, 167424, Note_on_c, 7, 75, 70
9, 167616, Note_off_c, 7, 75, 64
9, 167616, Note_on_c, 7, 88, 107
9, 167808, Note_off_c, 7, 88, 64
9, 167808, Note_on_c, 7, 79, 88
9, 168000, Note_off_c, 7, 79, 64
9, 168000, Note_on_c, 7, 75, 69
9, 168192, Note_off_c, 7, 75, 64
9, 168192, Note_on_c, 7, 87, 108
9, 168384, Note_off_c, 7, 87, 64
9, 168384, Note_on_c, 7, 75, 86
9, 168576, Note_off_c, 7, 75, 64
9, 168576, Note_on_c, 7, 85, 107
9, 168768, Note_off_c, 7, 85, 64
9, 168768, Note_on_c, 7, 75, 74
9, 168960, Note_off_c, 7, 75, 64
9, 168960, Note_on_c, 7, 87, 110
9, 169152, Note_off_c, 7, 87, 64
9, 169152, Note_on_c, 7, 80, 86
9, 169344, Note_off_c, 7, 80, 64
9, 169344, Note_on_c, 7, 82, 86
9, 169536, Note_off_c, 7, 82, 64
9, 169536, Note_on_c, 7, 84, 86
9, 169728, Note_off_c, 7, 84, 64
9, 169728, Note_on_c, 7, 79, 86
9, 169920, Note_off_c, 7, 79, 64
9, 169920, Note_on_c, 7, 80, 86
9, 170112, Note_off_c, 7, 80, 64
9, 170112, Note_on_c, 7, 82, 86
9, 170304, Note_off_c, 7, 82, 64
9, 170304, Note_on_c, 7, 75, 86
9, 170496, Note_off_c, 7, 75, 64
9, 170496, Note_on_c, 7, 80, 86
9, 170688, Note_off_c, 7, 80, 64
9, 170688, Note_on_c, 7, 73, 86
9, 170880, Note_off_c, 7, 73, 64
9, 170880, Note_on_c, 7, 75, 86
9, 171072, Note_off_c, 7, 75, 64
9, 171072, Note_on_c, 7, 76, 86
9, 171264, Note_off_c, 7, 76, 64
9, 171264, Note_on_c, 7, 75, 86
9, 171456, Note_off_c, 7, 75, 64
9, 171456, Note_on_c, 7, 70, 86
9, 171648, Note_off_c, 7, 70, 64
9, 171648, Note_on_c, 7, 73, 86
9, 171840, Note_off_c, 7, 73, 64
9, 171840, Note_on_c, 7, 67, 86
9, 172032, Note_off_c, 7, 67, 64
9, 190464, Control_c, 7, 7, 100
9, 190464, Program_c, 7, 80
9, 190656, Note_on_c, 7, 69, 110
9, 190848, Note_off_c, 7, 69, 64
9, 190848, Note_on_c, 7, 71, 110
9, 191040, Note_off_c, 7, 71, 64
9, 191040, Note_on_c, 7, 73, 110
9, 191232, Note_off_c, 7, 73, 64
9, 191232, Note_on_c, 7, 75, 110
9, 191616, Note_off_c, 7, 75, 64
9, 191616, Note_on_c, 7, 73, 110
9, 191808, Note_off_c, 7, 73, 64
9, 191808, Note_on_c, 7, 75, 110
9, 192000, Note_off_c, 7, 75, 64
9, 192000, Note_on_c, 7, 76, 110
9, 192384, Note_off_c, 7, 76, 64
9, 192384, Note_on_c, 7, 75, 110
9, 192576, Note_off_c, 7, 75, 64
9, 192576, Note_on_c, 7, 76, 110
9, 192768, Note_off_c, 7, 76, 64
9, 192768, Note_on_c, 7, 78, 110
9, 193056, Note_off_c, 7, 78, 64
9, 193056, Note_on_c, 7, 76, 110
9, 193344, Note_off_c, 7, 76, 64
9, 193344, Note_on_c, 7, 78, 110
9, 193536, Note_off_c, 7, 78, 64
9, 193728, Note_on_c, 7, 71, 110
9, 193920, Note_off_c, 7, 71, 64
9, 193920, Note_on_c, 7, 73, 110
9, 194112, Note_off_c, 7, 73, 64
9, 194112, Note_on_c, 7, 75, 110
9, 194304, Note_off_c, 7, 75, 64
9, 194304, Note_on_c, 7, 76, 110
9, 194688, Note_off_c, 7, 76, 64
9, 194688, Note_on_c, 7, 75, 110
9, 194880, Note_off_c, 7, 75, 64
9, 194880, Note_on_c, 7, 76, 110
9, 195072, Note_off_c, 7, 76, 64
9, 195072, Note_on_c, 7, 78, 110
9, 195456, Note_off_c, 7, 78, 64
9, 195456, Note_on_c, 7, 76, 110
9, 195648, Note_off_c, 7, 76, 64
9, 195648, Note_on_c, 7, 78, 110
9, 195840, Note_off_c, 7, 78, 64
9, 195840, Note_on_c, 7, 83, 110
9, 196128, Note_off_c, 7, 83, 64
9, 196128, Note_on_c, 7, 81, 110
9, 196416, Note_off_c, 7, 81, 64
9, 196416, Note_on_c, 7, 83, 110
9, 196608, Note_off_c, 7, 83, 64
9, 196608, Control_c, 7, 7, 100
9, 196608, Program_c, 7, 80
9, 196608, Note_on_c, 7, 85, 110
9, 198912, Note_off_c, 7, 85, 64
9, 198912, Note_on_c, 7, 87, 110
9, 199680, Note_off_c, 7, 87, 64
9, 199680, Note_on_c, 7, 88, 110
9, 201984, Note_off_c, 7, 88, 64
9, 201984, Note_on_c, 7, 92, 110
9, 202752, Note_off_c, 7, 92, 64
9, 202752, Note_on_c, 7, 90, 110
9, 205056, Note_off_c, 7, 90, 64
9, 205056, Note_on_c, 7, 88, 110
9, 205824, Note_off_c, 7, 88, 64
9, 205824, Note_on_c, 7, 90, 110
9, 208896, Note_off_c, 7, 90, 64
9, 208896, End_track
10, 0, Start_track
10, 0, Title_t, "Sequenced:"
10, 0, Control_c, 8, 7, 70
10, 0, Program_c, 8, 80
10, 0, Control_c, 8, 10, 43
10, 0, Control_c, 8, 91, 103
10, 52224, Control_c, 8, 7, 70
10, 52416, Note_on_c, 8, 85, 110
10, 52608, Note_off_c, 8, 85, 64
10, 52608, Note_on_c, 8, 80, 110
10, 52800, Note_off_c, 8, 80, 64
10, 52800, Note_on_c, 8, 76, 110
10, 52992, Note_off_c, 8, 76, 64
10, 52992, Note_on_c, 8, 87, 110
10, 53184, Note_off_c, 8, 87, 64
10, 53184, Note_on_c, 8, 80, 110
10, 53376, Note_off_c, 8, 80, 64
10, 53376, Note_on_c, 8, 76, 110
10, 53568, Note_off_c, 8, 76, 64
10, 53568, Note_on_c, 8, 88, 110
10, 53760, Note_off_c, 8, 88, 64
10, 53760, Note_on_c, 8, 80, 110
10, 53952, Note_off_c, 8, 80, 64
10, 53952, Note_on_c, 8, 76, 110
10, 54144, Note_off_c, 8, 76, 64
10, 54144, Note_on_c, 8, 87, 110
10, 54336, Note_off_c, 8, 87, 64
10, 54336, Note_on_c, 8, 80, 110
10, 54528, Note_off_c, 8, 80, 64
10, 54528, Note_on_c, 8, 76, 110
10, 54720, Note_off_c, 8, 76, 64
10, 54720, Note_on_c, 8, 85, 110
10, 54912, Note_off_c, 8, 85, 64
10, 54912, Note_on_c, 8, 76, 110
10, 55104, Note_off_c, 8, 76, 64
10, 55104, Note_on_c, 8, 83, 110
10, 55296, Note_off_c, 8, 83, 64
10, 55296, Note_on_c, 8, 76, 110
10, 55488, Note_off_c, 8, 76, 64
10, 55488, Note_on_c, 8, 81, 110
10, 55584, Note_on_c, 8, 69, 86
10, 55680, Note_off_c, 8, 81, 64
10, 55680, Note_on_c, 8, 71, 86
10, 55776, Note_off_c, 8, 69, 64
10, 55872, Note_off_c, 8, 71, 64
10, 55872, Note_on_c, 8, 73, 86
10, 56064, Note_off_c, 8, 73, 64
10, 56064, Note_on_c, 8, 76, 86
10, 56256, Note_off_c, 8, 76, 64
10, 56256, Note_on_c, 8, 69, 86
10, 56448, Note_off_c, 8, 69, 64
10, 56448, Note_on_c, 8, 73, 86
10, 56640, Note_off_c, 8, 73, 64
10, 56640, Note_on_c, 8, 76, 86
10, 56832, Note_off_c, 8, 76, 64
10, 56832, Note_on_c, 8, 71, 86
10, 57024, Note_off_c, 8, 71, 64
10, 57024, Note_on_c, 8, 73, 86
10, 57216, Note_off_c, 8, 73, 64
10, 57216, Note_on_c, 8, 76, 86
10, 57408, Note_off_c, 8, 76, 64
10, 57408, Note_on_c, 8, 69, 86
10, 57600, Note_off_c, 8, 69, 64
10, 57600, Note_on_c, 8, 73, 86
10, 57792, Note_off_c, 8, 73, 64
10, 57792, Note_on_c, 8, 69, 86
10, 57984, Note_off_c, 8, 69, 64
10, 57984, Note_on_c, 8, 71, 86
10, 58176, Note_off_c, 8, 71, 64
10, 58176, Note_on_c, 8, 73, 86
10, 58368, Note_off_c, 8, 73, 64
10, 58368, Note_on_c, 8, 76, 86
10, 58560, Note_off_c, 8, 76, 64
10, 58560, Note_on_c, 8, 83, 108
10, 58752, Note_off_c, 8, 83, 64
10, 58752, Note_on_c, 8, 78, 110
10, 58944, Note_off_c, 8, 78, 64
10, 58944, Note_on_c, 8, 75, 110
10, 59136, Note_off_c, 8, 75, 64
10, 59136, Note_on_c, 8, 85, 110
10, 59328, Note_off_c, 8, 85, 64
10, 59328, Note_on_c, 8, 78, 110
10, 59520, Note_off_c, 8, 78, 64
10, 59520, Note_on_c, 8, 75, 110
10, 59712, Note_off_c, 8, 75, 64
10, 59712, Note_on_c, 8, 87, 110
10, 59904, Note_off_c, 8, 87, 64
10, 59904, Note_on_c, 8, 78, 110
10, 60096, Note_off_c, 8, 78, 64
10, 60096, Note_on_c, 8, 75, 110
10, 60288, Note_off_c, 8, 75, 64
10, 60288, Note_on_c, 8, 85, 110
10, 60480, Note_off_c, 8, 85, 64
10, 60480, Note_on_c, 8, 78, 110
10, 60672, Note_off_c, 8, 78, 64
10, 60672, Note_on_c, 8, 75, 110
10, 60864, Note_off_c, 8, 75, 64
10, 60864, Note_on_c, 8, 83, 110
10, 61056, Note_off_c, 8, 83, 64
10, 61056, Note_on_c, 8, 75, 110
10, 61248, Note_off_c, 8, 75, 64
10, 61248, Note_on_c, 8, 87, 110
10, 61440, Note_off_c, 8, 87, 64
10, 61440, Note_on_c, 8, 75, 110
10, 61632, Note_off_c, 8, 75, 64
10, 61632, Note_on_c, 8, 80, 110
10, 61728, Note_on_c, 8, 68, 86
10, 61824, Note_off_c, 8, 80, 64
10, 61824, Note_on_c, 8, 71, 86
10, 61920, Note_off_c, 8, 68, 64
10, 62016, Note_off_c, 8, 71, 64
10, 62016, Note_on_c, 8, 75, 86
10, 62208, Note_off_c, 8, 75, 64
10, 62208, Note_on_c, 8, 76, 86
10, 62400, Note_off_c, 8, 76, 64
10, 62400, Note_on_c, 8, 68, 86
10, 62592, Note_off_c, 8, 68, 64
10, 62592, Note_on_c, 8, 71, 86
10, 62784, Note_off_c, 8, 71, 64
10, 62784, Note_on_c, 8, 76, 86
10, 62976, Note_off_c, 8, 76, 64
10, 62976, Note_on_c, 8, 71, 86
10, 63168, Note_off_c, 8, 71, 64
10, 63168, Note_on_c, 8, 75, 86
10, 63360, Note_off_c, 8, 75, 64
10, 63360, Note_on_c, 8, 76, 86
10, 63552, Note_off_c, 8, 76, 64
10, 63552, Note_on_c, 8, 68, 86
10, 63744, Note_off_c, 8, 68, 64
10, 63744, Note_on_c, 8, 71, 86
10, 63936, Note_off_c, 8, 71, 64
10, 63936, Note_on_c, 8, 68, 86
10, 64128, Note_off_c, 8, 68, 64
10, 64128, Note_on_c, 8, 71, 86
10, 64320, Note_off_c, 8, 71, 64
10, 64320, Note_on_c, 8, 75, 86
10, 64512, Note_off_c, 8, 75, 64
10, 64512, Note_on_c, 8, 76, 86
10, 64704, Note_off_c, 8, 76, 64
10, 64704, Note_on_c, 8, 81, 110
10, 64896, Note_off_c, 8, 81, 64
10, 64896, Note_on_c, 8, 76, 110
10, 65088, Note_off_c, 8, 76, 64
10, 65088, Note_on_c, 8, 73, 110
10, 65280, Note_off_c, 8, 73, 64
10, 65280, Note_on_c, 8, 83, 110
10, 65472, Note_off_c, 8, 83, 64
10, 65472, Note_on_c, 8, 76, 110
10, 65664, Note_off_c, 8, 76, 64
10, 65664, Note_on_c, 8, 73, 110
10, 65856, Note_off_c, 8, 73, 64
10, 65856, Note_on_c, 8, 85, 110
10, 66048, Note_off_c, 8, 85, 64
10, 66048, Note_on_c, 8, 76, 110
10, 66240, Note_off_c, 8, 76, 64
10, 66240, Note_on_c, 8, 73, 110
10, 66432, Note_off_c, 8, 73, 64
10, 66432, Note_on_c, 8, 83, 110
10, 66624, Note_off_c, 8, 83, 64
10, 66624, Note_on_c, 8, 76, 110
10, 66816, Note_off_c, 8, 76, 64
10, 66816, Note_on_c, 8, 73, 110
10, 67008, Note_off_c, 8, 73, 64
10, 67008, Note_on_c, 8, 81, 110
10, 67200, Note_off_c, 8, 81, 64
10, 67200, Note_on_c, 8, 73, 110
10, 67392, Note_off_c, 8, 73, 64
10, 67392, Note_on_c, 8, 80, 110
10, 67584, Note_off_c, 8, 80, 64
10, 67584, Note_on_c, 8, 73, 110
10, 67776, Note_off_c, 8, 73, 64
10, 67776, Note_on_c, 8, 63, 86
10, 67776, Note_on_c, 8, 79, 110
10, 67968, Note_off_c, 8, 79, 64
10, 67968, Note_off_c, 8, 63, 64
10, 67968, Note_on_c, 8, 67, 86
10, 68160, Note_off_c, 8, 67, 64
10, 68160, Note_on_c, 8, 73, 86
10, 68352, Note_off_c, 8, 73, 64
10, 68352, Note_on_c, 8, 75, 86
10, 68544, Note_off_c, 8, 75, 64
10, 68544, Note_on_c, 8, 63, 86
10, 68736, Note_off_c, 8, 63, 64
10, 68736, Note_on_c, 8, 73, 86
10, 68928, Note_off_c, 8, 73, 64
10, 68928, Note_on_c, 8, 75, 86
10, 69120, Note_off_c, 8, 75, 64
10, 69120, Note_on_c, 8, 67, 86
10, 69312, Note_off_c, 8, 67, 64
10, 69312, Note_on_c, 8, 73, 86
10, 69504, Note_off_c, 8, 73, 64
10, 69504, Note_on_c, 8, 75, 86
10, 69696, Note_off_c, 8, 75, 64
10, 69696, Note_on_c, 8, 63, 86
10, 69888, Note_off_c, 8, 63, 64
10, 69888, Note_on_c, 8, 73, 86
10, 70080, Note_off_c, 8, 73, 64
10, 70080, Note_on_c, 8, 63, 86
10, 70272, Note_off_c, 8, 63, 64
10, 70272, Note_on_c, 8, 67, 86
10, 70464, Note_off_c, 8, 67, 64
10, 70464, Note_on_c, 8, 73, 86
10, 70656, Note_off_c, 8, 73, 64
10, 70656, Note_on_c, 8, 75, 86
10, 70848, Note_off_c, 8, 75, 64
10, 70848, Note_on_c, 8, 82, 108
10, 71040, Note_off_c, 8, 82, 64
10, 71040, Note_on_c, 8, 79, 110
10, 71232, Note_off_c, 8, 79, 64
10, 71232, Note_on_c, 8, 75, 110
10, 71424, Note_off_c, 8, 75, 64
10, 71424, Note_on_c, 8, 83, 110
10, 71616, Note_off_c, 8, 83, 64
10, 71616, Note_on_c, 8, 79, 110
10, 71808, Note_off_c, 8, 79, 64
10, 71808, Note_on_c, 8, 75, 110
10, 72000, Note_off_c, 8, 75, 64
10, 72000, Note_on_c, 8, 85, 110
10, 72192, Note_off_c, 8, 85, 64
10, 72192, Note_on_c, 8, 79, 110
10, 72384, Note_off_c, 8, 79, 64
10, 72384, Note_on_c, 8, 75, 110
10, 72576, Note_off_c, 8, 75, 64
10, 72576, Note_on_c, 8, 88, 110
10, 72768, Note_off_c, 8, 88, 64
10, 72768, Note_on_c, 8, 79, 110
10, 72960, Note_off_c, 8, 79, 64
10, 72960, Note_on_c, 8, 75, 110
10, 73152, Note_off_c, 8, 75, 64
10, 73152, Note_on_c, 8, 87, 110
10, 73344, Note_off_c, 8, 87, 64
10, 73344, Note_on_c, 8, 75, 110
10, 73536, Note_off_c, 8, 75, 64
10, 73536, Note_on_c, 8, 85, 110
10, 73728, Note_off_c, 8, 85, 64
10, 73728, Note_on_c, 8, 75, 110
10, 73920, Note_off_c, 8, 75, 64
10, 73920, Note_on_c, 8, 87, 110
10, 74112, Note_off_c, 8, 87, 64
10, 74112, Note_on_c, 8, 80, 86
10, 74304, Note_off_c, 8, 80, 64
10, 74304, Note_on_c, 8, 82, 86
10, 74496, Note_off_c, 8, 82, 64
10, 74496, Note_on_c, 8, 84, 86
10, 74688, Note_off_c, 8, 84, 64
10, 74688, Note_on_c, 8, 79, 86
10, 74880, Note_off_c, 8, 79, 64
10, 74880, Note_on_c, 8, 80, 86
10, 75072, Note_off_c, 8, 80, 64
10, 75072, Note_on_c, 8, 82, 86
10, 75264, Note_off_c, 8, 82, 64
10, 75264, Note_on_c, 8, 75, 86
10, 75456, Note_off_c, 8, 75, 64
10, 75456, Note_on_c, 8, 80, 86
10, 75648, Note_off_c, 8, 80, 64
10, 75648, Note_on_c, 8, 73, 86
10, 75840, Note_off_c, 8, 73, 64
10, 75840, Note_on_c, 8, 75, 86
10, 76032, Note_off_c, 8, 75, 64
10, 76032, Note_on_c, 8, 76, 86
10, 76224, Note_off_c, 8, 76, 64
10, 76224, Note_on_c, 8, 75, 86
10, 76416, Note_off_c, 8, 75, 64
10, 76416, Note_on_c, 8, 70, 86
10, 76608, Note_off_c, 8, 70, 64
10, 76608, Note_on_c, 8, 73, 86
10, 76800, Note_off_c, 8, 73, 64
10, 76800, Note_on_c, 8, 67, 86
10, 76992, Note_off_c, 8, 67, 64
10, 95616, Note_on_c, 8, 69, 110
10, 95808, Note_off_c, 8, 69, 64
10, 95808, Note_on_c, 8, 71, 110
10, 96000, Note_off_c, 8, 71, 64
10, 96000, Note_on_c, 8, 73, 110
10, 96192, Note_off_c, 8, 73, 64
10, 96192, Note_on_c, 8, 75, 110
10, 96576, Note_off_c, 8, 75, 64
10, 96576, Note_on_c, 8, 73, 110
10, 96768, Note_off_c, 8, 73, 64
10, 96768, Note_on_c, 8, 75, 110
10, 96960, Note_off_c, 8, 75, 64
10, 96960, Note_on_c, 8, 76, 110
10, 97344, Note_off_c, 8, 76, 64
10, 97344, Note_on_c, 8, 75, 110
10, 97536, Note_off_c, 8, 75, 64
10, 97536, Note_on_c, 8, 76, 110
10, 97728, Note_off_c, 8, 76, 64
10, 97728, Note_on_c, 8, 78, 110
10, 98016, Note_off_c, 8, 78, 64
10, 98016, Note_on_c, 8, 76, 110
10, 98304, Note_off_c, 8, 76, 64
10, 98304, Note_on_c, 8, 78, 110
10, 98496, Note_off_c, 8, 78, 64
10, 98688, Note_on_c, 8, 71, 110
10, 98880, Note_off_c, 8, 71, 64
10, 98880, Note_on_c, 8, 73, 110
10, 99072, Note_off_c, 8, 73, 64
10, 99072, Note_on_c, 8, 75, 110
10, 99264, Note_off_c, 8, 75, 64
10, 99264, Note_on_c, 8, 76, 110
10, 99648, Note_off_c, 8, 76, 64
10, 99648, Note_on_c, 8, 75, 110
10, 99840, Note_off_c, 8, 75, 64
10, 99840, Note_on_c, 8, 76, 110
10, 100032, Note_off_c, 8, 76, 64
10, 100032, Note_on_c, 8, 78, 110
10, 100416, Note_off_c, 8, 78, 64
10, 100416, Note_on_c, 8, 76, 110
10, 100608, Note_off_c, 8, 76, 64
10, 100608, Note_on_c, 8, 78, 110
10, 100800, Note_off_c, 8, 78, 64
10, 100800, Note_on_c, 8, 83, 110
10, 101088, Note_off_c, 8, 83, 64
10, 101088, Note_on_c, 8, 81, 110
10, 101376, Note_off_c, 8, 81, 64
10, 101376, Control_c, 8, 7, 100
10, 101376, Note_on_c, 8, 85, 119
10, 101376, Note_on_c, 8, 83, 110
10, 101568, Note_off_c, 8, 83, 64
10, 101568, Note_off_c, 8, 85, 64
10, 101568, Note_on_c, 8, 80, 111
10, 101760, Note_off_c, 8, 80, 64
10, 101760, Note_on_c, 8, 78, 103
10, 101952, Note_off_c, 8, 78, 64
10, 101952, Note_on_c, 8, 85, 96
10, 102144, Note_off_c, 8, 85, 64
10, 102144, Note_on_c, 8, 80, 88
10, 102336, Note_off_c, 8, 80, 64
10, 102336, Note_on_c, 8, 78, 81
10, 102528, Note_off_c, 8, 78, 64
10, 102528, Note_on_c, 8, 73, 73
10, 102720, Note_off_c, 8, 73, 64
10, 102720, Note_on_c, 8, 76, 65
10, 102912, Note_off_c, 8, 76, 64
10, 102912, Note_on_c, 8, 73, 55
10, 103104, Note_off_c, 8, 73, 64
10, 103104, Note_on_c, 8, 75, 63
10, 103296, Note_off_c, 8, 75, 64
10, 103296, Note_on_c, 8, 73, 71
10, 103488, Note_off_c, 8, 73, 64
10, 103488, Note_on_c, 8, 76, 79
10, 103680, Note_off_c, 8, 76, 64
10, 103680, Note_on_c, 8, 73, 86
10, 103872, Note_off_c, 8, 73, 64
10, 103872, Note_on_c, 8, 76, 94
10, 104064, Note_off_c, 8, 76, 64
10, 104064, Note_on_c, 8, 78, 102
10, 104256, Note_off_c, 8, 78, 64
10, 104256, Note_on_c, 8, 80, 110
10, 104448, Note_off_c, 8, 80, 64
10, 104448, Note_on_c, 8, 85, 119
10, 104640, Note_off_c, 8, 85, 64
10, 104640, Note_on_c, 8, 80, 111
10, 104832, Note_off_c, 8, 80, 64
10, 104832, Note_on_c, 8, 78, 103
10, 105024, Note_off_c, 8, 78, 64
10, 105024, Note_on_c, 8, 85, 96
10, 105216, Note_off_c, 8, 85, 64
10, 105216, Note_on_c, 8, 80, 88
10, 105408, Note_off_c, 8, 80, 64
10, 105408, Note_on_c, 8, 78, 81
10, 105600, Note_off_c, 8, 78, 64
10, 105600, Note_on_c, 8, 73, 73
10, 105792, Note_off_c, 8, 73, 64
10, 105792, Note_on_c, 8, 76, 65
10, 105984, Note_off_c, 8, 76, 64
10, 105984, Note_on_c, 8, 73, 55
10, 106176, Note_off_c, 8, 73, 64
10, 106176, Note_on_c, 8, 75, 63
10, 106368, Note_off_c, 8, 75, 64
10, 106368, Note_on_c, 8, 73, 71
10, 106560, Note_off_c, 8, 73, 64
10, 106560, Note_on_c, 8, 76, 79
10, 106752, Note_off_c, 8, 76, 64
10, 106752, Note_on_c, 8, 73, 86
10, 106944, Note_off_c, 8, 73, 64
10, 106944, Note_on_c, 8, 76, 94
10, 107136, Note_off_c, 8, 76, 64
10, 107136, Note_on_c, 8, 78, 102
10, 107328, Note_off_c, 8, 78, 64
10, 107328, Note_on_c, 8, 80, 110
10, 107520, Note_off_c, 8, 80, 64
10, 107520, Control_c, 8, 7, 100
10, 107520, Note_on_c, 8, 85, 119
10, 107712, Note_off_c, 8, 85, 64
10, 107712, Note_on_c, 8, 80, 111
10, 107904, Note_off_c, 8, 80, 64
10, 107904, Note_on_c, 8, 78, 103
10, 108096, Note_off_c, 8, 78, 64
10, 108096, Note_on_c, 8, 85, 96
10, 108288, Note_off_c, 8, 85, 64
10, 108288, Note_on_c, 8, 80, 88
10, 108480, Note_off_c, 8, 80, 64
10, 108480, Note_on_c, 8, 78, 81
10, 108672, Note_off_c, 8, 78, 64
10, 108672, Note_on_c, 8, 73, 73
10, 108864, Note_off_c, 8, 73, 64
10, 108864, Note_on_c, 8, 76, 65
10, 109056, Note_off_c, 8, 76, 64
10, 109056, Note_on_c, 8, 73, 55
10, 109248, Note_off_c, 8, 73, 64
10, 109248, Note_on_c, 8, 75, 63
10, 109440, Note_off_c, 8, 75, 64
10, 109440, Note_on_c, 8, 73, 71
10, 109632, Note_off_c, 8, 73, 64
10, 109632, Note_on_c, 8, 76, 79
10, 109824, Note_off_c, 8, 76, 64
10, 109824, Note_on_c, 8, 73, 86
10, 110016, Note_off_c, 8, 73, 64
10, 110016, Note_on_c, 8, 76, 94
10, 110208, Note_off_c, 8, 76, 64
10, 110208, Note_on_c, 8, 78, 102
10, 110400, Note_off_c, 8, 78, 64
10, 110400, Note_on_c, 8, 80, 110
10, 110592, Note_off_c, 8, 80, 64
10, 110592, Note_on_c, 8, 85, 119
10, 110784, Note_off_c, 8, 85, 64
10, 110784, Note_on_c, 8, 80, 111
10, 110976, Note_off_c, 8, 80, 64
10, 110976, Note_on_c, 8, 78, 103
10, 111168, Note_off_c, 8, 78, 64
10, 111168, Note_on_c, 8, 85, 96
10, 111360, Note_off_c, 8, 85, 64
10, 111360, Note_on_c, 8, 80, 88
10, 111552, Note_off_c, 8, 80, 64
10, 111552, Note_on_c, 8, 78, 81
10, 111744, Note_off_c, 8, 78, 64
10, 111744, Note_on_c, 8, 73, 73
10, 111936, Note_off_c, 8, 73, 64
10, 111936, Note_on_c, 8, 76, 65
10, 112128, Note_off_c, 8, 76, 64
10, 112128, Note_on_c, 8, 73, 55
10, 112320, Note_off_c, 8, 73, 64
10, 112320, Note_on_c, 8, 75, 63
10, 112512, Note_off_c, 8, 75, 64
10, 112512, Note_on_c, 8, 73, 71
10, 112704, Note_off_c, 8, 73, 64
10, 112704, Note_on_c, 8, 76, 79
10, 112896, Note_off_c, 8, 76, 64
10, 112896, Note_on_c, 8, 73, 86
10, 113088, Note_off_c, 8, 73, 64
10, 113088, Note_on_c, 8, 76, 94
10, 113280, Note_off_c, 8, 76, 64
10, 113280, Note_on_c, 8, 78, 102
10, 113472, Note_off_c, 8, 78, 64
10, 113472, Note_on_c, 8, 80, 110
10, 113664, Note_off_c, 8, 80, 64
10, 147456, Control_c, 8, 7, 70
10, 147648, Note_on_c, 8, 85, 110
10, 147840, Note_off_c, 8, 85, 64
10, 147840, Note_on_c, 8, 80, 110
10, 148032, Note_off_c, 8, 80, 64
10, 148032, Note_on_c, 8, 76, 110
10, 148224, Note_off_c, 8, 76, 64
10, 148224, Note_on_c, 8, 87, 110
10, 148416, Note_off_c, 8, 87, 64
10, 148416, Note_on_c, 8, 80, 110
10, 148608, Note_off_c, 8, 80, 64
10, 148608, Note_on_c, 8, 76, 110
10, 148800, Note_off_c, 8, 76, 64
10, 148800, Note_on_c, 8, 88, 110
10, 148992, Note_off_c, 8, 88, 64
10, 148992, Note_on_c, 8, 80, 110
10, 149184, Note_off_c, 8, 80, 64
10, 149184, Note_on_c, 8, 76, 110
10, 149376, Note_off_c, 8, 76, 64
10, 149376, Note_on_c, 8, 87, 110
10, 149568, Note_off_c, 8, 87, 64
10, 149568, Note_on_c, 8, 80, 110
10, 149760, Note_off_c, 8, 80, 64
10, 149760, Note_on_c, 8, 76, 110
10, 149952, Note_off_c, 8, 76, 64
10, 149952, Note_on_c, 8, 85, 110
10, 150144, Note_off_c, 8, 85, 64
10, 150144, Note_on_c, 8, 76, 110
10, 150336, Note_off_c, 8, 76, 64
10, 150336, Note_on_c, 8, 83, 110
10, 150528, Note_off_c, 8, 83, 64
10, 150528, Note_on_c, 8, 76, 110
10, 150720, Note_off_c, 8, 76, 64
10, 150720, Note_on_c, 8, 81, 110
10, 150816, Note_on_c, 8, 69, 86
10, 150912, Note_off_c, 8, 81, 64
10, 150912, Note_on_c, 8, 71, 86
10, 151008, Note_off_c, 8, 69, 64
10, 151104, Note_off_c, 8, 71, 64
10, 151104, Note_on_c, 8, 73, 86
10, 151296, Note_off_c, 8, 73, 64
10, 151296, Note_on_c, 8, 76, 86
10, 151488, Note_off_c, 8, 76, 64
10, 151488, Note_on_c, 8, 69, 86
10, 151680, Note_off_c, 8, 69, 64
10, 151680, Note_on_c, 8, 73, 86
10, 151872, Note_off_c, 8, 73, 64
10, 151872, Note_on_c, 8, 76, 86
10, 152064, Note_off_c, 8, 76, 64
10, 152064, Note_on_c, 8, 71, 86
10, 152256, Note_off_c, 8, 71, 64
10, 152256, Note_on_c, 8, 73, 86
10, 152448, Note_off_c, 8, 73, 64
10, 152448, Note_on_c, 8, 76, 86
10, 152640, Note_off_c, 8, 76, 64
10, 152640, Note_on_c, 8, 69, 86
10, 152832, Note_off_c, 8, 69, 64
10, 152832, Note_on_c, 8, 73, 86
10, 153024, Note_off_c, 8, 73, 64
10, 153024, Note_on_c, 8, 69, 86
10, 153216, Note_off_c, 8, 69, 64
10, 153216, Note_on_c, 8, 71, 86
10, 153408, Note_off_c, 8, 71, 64
10, 153408, Note_on_c, 8, 73, 86
10, 153600, Note_off_c, 8, 73, 64
10, 153600, Note_on_c, 8, 76, 86
10, 153792, Note_off_c, 8, 76, 64
10, 153792, Note_on_c, 8, 83, 108
10, 153984, Note_off_c, 8, 83, 64
10, 153984, Note_on_c, 8, 78, 110
10, 154176, Note_off_c, 8, 78, 64
10, 154176, Note_on_c, 8, 75, 110
10, 154368, Note_off_c, 8, 75, 64
10, 154368, Note_on_c, 8, 85, 110
10, 154560, Note_off_c, 8, 85, 64
10, 154560, Note_on_c, 8, 78, 110
10, 154752, Note_off_c, 8, 78, 64
10, 154752, Note_on_c, 8, 75, 110
10, 154944, Note_off_c, 8, 75, 64
10, 154944, Note_on_c, 8, 87, 110
10, 155136, Note_off_c, 8, 87, 64
10, 155136, Note_on_c, 8, 78, 110
10, 155328, Note_off_c, 8, 78, 64
10, 155328, Note_on_c, 8, 75, 110
10, 155520, Note_off_c, 8, 75, 64
10, 155520, Note_on_c, 8, 85, 110
10, 155712, Note_off_c, 8, 85, 64
10, 155712, Note_on_c, 8, 78, 110
10, 155904, Note_off_c, 8, 78, 64
10, 155904, Note_on_c, 8, 75, 110
10, 156096, Note_off_c, 8, 75, 64
10, 156096, Note_on_c, 8, 83, 110
10, 156288, Note_off_c, 8, 83, 64
10, 156288, Note_on_c, 8, 75, 110
10, 156480, Note_off_c, 8, 75, 64
10, 156480, Note_on_c, 8, 87, 110
10, 156672, Note_off_c, 8, 87, 64
10, 156672, Note_on_c, 8, 75, 110
10, 156864, Note_off_c, 8, 75, 64
10, 156864, Note_on_c, 8, 80, 110
10, 156960, Note_on_c, 8, 68, 86
10, 157056, Note_off_c, 8, 80, 64
10, 157056, Note_on_c, 8, 71, 86
10, 157152, Note_off_c, 8, 68, 64
10, 157248, Note_off_c, 8, 71, 64
10, 157248, Note_on_c, 8, 75, 86
10, 157440, Note_off_c, 8, 75, 64
10, 157440, Note_on_c, 8, 76, 86
10, 157632, Note_off_c, 8, 76, 64
10, 157632, Note_on_c, 8, 68, 86
10, 157824, Note_off_c, 8, 68, 64
10, 157824, Note_on_c, 8, 71, 86
10, 158016, Note_off_c, 8, 71, 64
10, 158016, Note_on_c, 8, 76, 86
10, 158208, Note_off_c, 8, 76, 64
10, 158208, Note_on_c, 8, 71, 86
10, 158400, Note_off_c, 8, 71, 64
10, 158400, Note_on_c, 8, 75, 86
10, 158592, Note_off_c, 8, 75, 64
10, 158592, Note_on_c, 8, 76, 86
10, 158784, Note_off_c, 8, 76, 64
10, 158784, Note_on_c, 8, 68, 86
10, 158976, Note_off_c, 8, 68, 64
10, 158976, Note_on_c, 8, 71, 86
10, 159168, Note_off_c, 8, 71, 64
10, 159168, Note_on_c, 8, 68, 86
10, 159360, Note_off_c, 8, 68, 64
10, 159360, Note_on_c, 8, 71, 86
10, 159552, Note_off_c, 8, 71, 64
10, 159552, Note_on_c, 8, 75, 86
10, 159744, Note_off_c, 8, 75, 64
10, 159744, Note_on_c, 8, 76, 86
10, 159936, Note_off_c, 8, 76, 64
10, 159936, Note_on_c, 8, 81, 110
10, 160128, Note_off_c, 8, 81, 64
10, 160128, Note_on_c, 8, 76, 110
10, 160320, Note_off_c, 8, 76, 64
10, 160320, Note_on_c, 8, 73, 110
10, 160512, Note_off_c, 8, 73, 64
10, 160512, Note_on_c, 8, 83, 110
10, 160704, Note_off_c, 8, 83, 64
10, 160704, Note_on_c, 8, 76, 110
10, 160896, Note_off_c, 8, 76, 64
10, 160896, Note_on_c, 8, 73, 110
10, 161088, Note_off_c, 8, 73, 64
10, 161088, Note_on_c, 8, 85, 110
10, 161280, Note_off_c, 8, 85, 64
10, 161280, Note_on_c, 8, 76, 110
10, 161472, Note_off_c, 8, 76, 64
10, 161472, Note_on_c, 8, 73, 110
10, 161664, Note_off_c, 8, 73, 64
10, 161664, Note_on_c, 8, 83, 110
10, 161856, Note_off_c, 8, 83, 64
10, 161856, Note_on_c, 8, 76, 110
10, 162048, Note_off_c, 8, 76, 64
10, 162048, Note_on_c, 8, 73, 110
10, 162240, Note_off_c, 8, 73, 64
10, 162240, Note_on_c, 8, 81, 110
10, 162432, Note_off_c, 8, 81, 64
10, 162432, Note_on_c, 8, 73, 110
10, 162624, Note_off_c, 8, 73, 64
10, 162624, Note_on_c, 8, 80, 110
10, 162816, Note_off_c, 8, 80, 64
10, 162816, Note_on_c, 8, 73, 110
10, 163008, Note_off_c, 8, 73, 64
10, 163008, Note_on_c, 8, 63, 86
10, 163008, Note_on_c, 8, 79, 110
10, 163200, Note_off_c, 8, 79, 64
10, 163200, Note_off_c, 8, 63, 64
10, 163200, Note_on_c, 8, 67, 86
10, 163392, Note_off_c, 8, 67, 64
10, 163392, Note_on_c, 8, 73, 86
10, 163584, Note_off_c, 8, 73, 64
10, 163584, Note_on_c, 8, 75, 86
10, 163776, Note_off_c, 8, 75, 64
10, 163776, Note_on_c, 8, 63, 86
10, 163968, Note_off_c, 8, 63, 64
10, 163968, Note_on_c, 8, 73, 86
10, 164160, Note_off_c, 8, 73, 64
10, 164160, Note_on_c, 8, 75, 86
10, 164352, Note_off_c, 8, 75, 64
10, 164352, Note_on_c, 8, 67, 86
10, 164544, Note_off_c, 8, 67, 64
10, 164544, Note_on_c, 8, 73, 86
10, 164736, Note_off_c, 8, 73, 64
10, 164736, Note_on_c, 8, 75, 86
10, 164928, Note_off_c, 8, 75, 64
10, 164928, Note_on_c, 8, 63, 86
10, 165120, Note_off_c, 8, 63, 64
10, 165120, Note_on_c, 8, 73, 86
10, 165312, Note_off_c, 8, 73, 64
10, 165312, Note_on_c, 8, 63, 86
10, 165504, Note_off_c, 8, 63, 64
10, 165504, Note_on_c, 8, 67, 86
10, 165696, Note_off_c, 8, 67, 64
10, 165696, Note_on_c, 8, 73, 86
10, 165888, Note_off_c, 8, 73, 64
10, 165888, Note_on_c, 8, 75, 86
10, 166080, Note_off_c, 8, 75, 64
10, 166080, Note_on_c, 8, 82, 108
10, 166272, Note_off_c, 8, 82, 64
10, 166272, Note_on_c, 8, 79, 110
10, 166464, Note_off_c, 8, 79, 64
10, 166464, Note_on_c, 8, 75, 110
10, 166656, Note_off_c, 8, 75, 64
10, 166656, Note_on_c, 8, 83, 110
10, 166848, Note_off_c, 8, 83, 64
10, 166848, Note_on_c, 8, 79, 110
10, 167040, Note_off_c, 8, 79, 64
10, 167040, Note_on_c, 8, 75, 110
10, 167232, Note_off_c, 8, 75, 64
10, 167232, Note_on_c, 8, 85, 110
10, 167424, Note_off_c, 8, 85, 64
10, 167424, Note_on_c, 8, 79, 110
10, 167616, Note_off_c, 8, 79, 64
10, 167616, Note_on_c, 8, 75, 110
10, 167808, Note_off_c, 8, 75, 64
10, 167808, Note_on_c, 8, 88, 110
10, 168000, Note_off_c, 8, 88, 64
10, 168000, Note_on_c, 8, 79, 110
10, 168192, Note_off_c, 8, 79, 64
10, 168192, Note_on_c, 8, 75, 110
10, 168384, Note_off_c, 8, 75, 64
10, 168384, Note_on_c, 8, 87, 110
10, 168576, Note_off_c, 8, 87, 64
10, 168576, Note_on_c, 8, 75, 110
10, 168768, Note_off_c, 8, 75, 64
10, 168768, Note_on_c, 8, 85, 110
10, 168960, Note_off_c, 8, 85, 64
10, 168960, Note_on_c, 8, 75, 110
10, 169152, Note_off_c, 8, 75, 64
10, 169152, Note_on_c, 8, 87, 110
10, 169344, Note_off_c, 8, 87, 64
10, 169344, Note_on_c, 8, 80, 86
10, 169536, Note_off_c, 8, 80, 64
10, 169536, Note_on_c, 8, 82, 86
10, 169728, Note_off_c, 8, 82, 64
10, 169728, Note_on_c, 8, 84, 86
10, 169920, Note_off_c, 8, 84, 64
10, 169920, Note_on_c, 8, 79, 86
10, 170112, Note_off_c, 8, 79, 64
10, 170112, Note_on_c, 8, 80, 86
10, 170304, Note_off_c, 8, 80, 64
10, 170304, Note_on_c, 8, 82, 86
10, 170496, Note_off_c, 8, 82, 64
10, 170496, Note_on_c, 8, 75, 86
10, 170688, Note_off_c, 8, 75, 64
10, 170688, Note_on_c, 8, 80, 86
10, 170880, Note_off_c, 8, 80, 64
10, 170880, Note_on_c, 8, 73, 86
10, 171072, Note_off_c, 8, 73, 64
10, 171072, Note_on_c, 8, 75, 86
10, 171264, Note_off_c, 8, 75, 64
10, 171264, Note_on_c, 8, 76, 86
10, 171456, Note_off_c, 8, 76, 64
10, 171456, Note_on_c, 8, 75, 86
10, 171648, Note_off_c, 8, 75, 64
10, 171648, Note_on_c, 8, 70, 86
10, 171840, Note_off_c, 8, 70, 64
10, 171840, Note_on_c, 8, 73, 86
10, 172032, Note_off_c, 8, 73, 64
10, 172032, Note_on_c, 8, 67, 86
10, 172224, Note_off_c, 8, 67, 64
10, 190848, Note_on_c, 8, 69, 110
10, 191040, Note_off_c, 8, 69, 64
10, 191040, Note_on_c, 8, 71, 110
10, 191232, Note_off_c, 8, 71, 64
10, 191232, Note_on_c, 8, 73, 110
10, 191424, Note_off_c, 8, 73, 64
10, 191424, Note_on_c, 8, 75, 110
10, 191808, Note_off_c, 8, 75, 64
10, 191808, Note_on_c, 8, 73, 110
10, 192000, Note_off_c, 8, 73, 64
10, 192000, Note_on_c, 8, 75, 110
10, 192192, Note_off_c, 8, 75, 64
10, 192192, Note_on_c, 8, 76, 110
10, 192576, Note_off_c, 8, 76, 64
10, 192576, Note_on_c, 8, 75, 110
10, 192768, Note_off_c, 8, 75, 64
10, 192768, Note_on_c, 8, 76, 110
10, 192960, Note_off_c, 8, 76, 64
10, 192960, Note_on_c, 8, 78, 110
10, 193248, Note_off_c, 8, 78, 64
10, 193248, Note_on_c, 8, 76, 110
10, 193536, Note_off_c, 8, 76, 64
10, 193536, Note_on_c, 8, 78, 110
10, 193728, Note_off_c, 8, 78, 64
10, 193920, Note_on_c, 8, 71, 110
10, 194112, Note_off_c, 8, 71, 64
10, 194112, Note_on_c, 8, 73, 110
10, 194304, Note_off_c, 8, 73, 64
10, 194304, Note_on_c, 8, 75, 110
10, 194496, Note_off_c, 8, 75, 64
10, 194496, Note_on_c, 8, 76, 110
10, 194880, Note_off_c, 8, 76, 64
10, 194880, Note_on_c, 8, 75, 110
10, 195072, Note_off_c, 8, 75, 64
10, 195072, Note_on_c, 8, 76, 110
10, 195264, Note_off_c, 8, 76, 64
10, 195264, Note_on_c, 8, 78, 110
10, 195648, Note_off_c, 8, 78, 64
10, 195648, Note_on_c, 8, 76, 110
10, 195840, Note_off_c, 8, 76, 64
10, 195840, Note_on_c, 8, 78, 110
10, 196032, Note_off_c, 8, 78, 64
10, 196032, Note_on_c, 8, 83, 110
10, 196320, Note_off_c, 8, 83, 64
10, 196320, Note_on_c, 8, 81, 110
10, 196608, Note_off_c, 8, 81, 64
10, 196608, Control_c, 8, 7, 100
10, 196608, Note_on_c, 8, 85, 119
10, 196608, Note_on_c, 8, 83, 110
10, 196800, Note_off_c, 8, 83, 64
10, 196800, Note_off_c, 8, 85, 64
10, 196800, Note_on_c, 8, 80, 111
10, 196992, Note_off_c, 8, 80, 64
10, 196992, Note_on_c, 8, 78, 103
10, 197184, Note_off_c, 8, 78, 64
10, 197184, Note_on_c, 8, 85, 96
10, 197376, Note_off_c, 8, 85, 64
10, 197376, Note_on_c, 8, 80, 88
10, 197568, Note_off_c, 8, 80, 64
10, 197568, Note_on_c, 8, 78, 81
10, 197760, Note_off_c, 8, 78, 64
10, 197760, Note_on_c, 8, 73, 73
10, 197952, Note_off_c, 8, 73, 64
10, 197952, Note_on_c, 8, 76, 65
10, 198144, Note_off_c, 8, 76, 64
10, 198144, Note_on_c, 8, 73, 55
10, 198336, Note_off_c, 8, 73, 64
10, 198336, Note_on_c, 8, 75, 63
10, 198528, Note_off_c, 8, 75, 64
10, 198528, Note_on_c, 8, 73, 71
10, 198720, Note_off_c, 8, 73, 64
10, 198720, Note_on_c, 8, 76, 79
10, 198912, Note_off_c, 8, 76, 64
10, 198912, Note_on_c, 8, 73, 86
10, 199104, Note_off_c, 8, 73, 64
10, 199104, Note_on_c, 8, 76, 94
10, 199296, Note_off_c, 8, 76, 64
10, 199296, Note_on_c, 8, 78, 102
10, 199488, Note_off_c, 8, 78, 64
10, 199488, Note_on_c, 8, 80, 110
10, 199680, Note_off_c, 8, 80, 64
10, 199680, Note_on_c, 8, 85, 119
10, 199872, Note_off_c, 8, 85, 64
10, 199872, Note_on_c, 8, 80, 111
10, 200064, Note_off_c, 8, 80, 64
10, 200064, Note_on_c, 8, 78, 103
10, 200256, Note_off_c, 8, 78, 64
10, 200256, Note_on_c, 8, 85, 96
10, 200448, Note_off_c, 8, 85, 64
10, 200448, Note_on_c, 8, 80, 88
10, 200640, Note_off_c, 8, 80, 64
10, 200640, Note_on_c, 8, 78, 81
10, 200832, Note_off_c, 8, 78, 64
10, 200832, Note_on_c, 8, 73, 73
10, 201024, Note_off_c, 8, 73, 64
10, 201024, Note_on_c, 8, 76, 65
10, 201216, Note_off_c, 8, 76, 64
10, 201216, Note_on_c, 8, 73, 55
10, 201408, Note_off_c, 8, 73, 64
10, 201408, Note_on_c, 8, 75, 63
10, 201600, Note_off_c, 8, 75, 64
10, 201600, Note_on_c, 8, 73, 71
10, 201792, Note_off_c, 8, 73, 64
10, 201792, Note_on_c, 8, 76, 79
10, 201984, Note_off_c, 8, 76, 64
10, 201984, Note_on_c, 8, 73, 86
10, 202176, Note_off_c, 8, 73, 64
10, 202176, Note_on_c, 8, 76, 94
10, 202368, Note_off_c, 8, 76, 64
10, 202368, Note_on_c, 8, 78, 102
10, 202560, Note_off_c, 8, 78, 64
10, 202560, Note_on_c, 8, 80, 110
10, 202752, Note_off_c, 8, 80, 64
10, 202752, Control_c, 8, 7, 100
10, 202752, Note_on_c, 8, 85, 119
10, 202944, Note_off_c, 8, 85, 64
10, 202944, Note_on_c, 8, 80, 111
10, 203136, Note_off_c, 8, 80, 64
10, 203136, Note_on_c, 8, 78, 103
10, 203328, Note_off_c, 8, 78, 64
10, 203328, Note_on_c, 8, 85, 96
10, 203520, Note_off_c, 8, 85, 64
10, 203520, Note_on_c, 8, 80, 88
10, 203712, Note_off_c, 8, 80, 64
10, 203712, Note_on_c, 8, 78, 81
10, 203904, Note_off_c, 8, 78, 64
10, 203904, Note_on_c, 8, 73, 73
10, 204096, Note_off_c, 8, 73, 64
10, 204096, Note_on_c, 8, 76, 65
10, 204288, Note_off_c, 8, 76, 64
10, 204288, Note_on_c, 8, 73, 55
10, 204480, Note_off_c, 8, 73, 64
10, 204480, Note_on_c, 8, 75, 63
10, 204672, Note_off_c, 8, 75, 64
10, 204672, Note_on_c, 8, 73, 71
10, 204864, Note_off_c, 8, 73, 64
10, 204864, Note_on_c, 8, 76, 79
10, 205056, Note_off_c, 8, 76, 64
10, 205056, Note_on_c, 8, 73, 86
10, 205248, Note_off_c, 8, 73, 64
10, 205248, Note_on_c, 8, 76, 94
10, 205440, Note_off_c, 8, 76, 64
10, 205440, Note_on_c, 8, 78, 102
10, 205632, Note_off_c, 8, 78, 64
10, 205632, Note_on_c, 8, 80, 110
10, 205824, Note_off_c, 8, 80, 64
10, 205824, Note_on_c, 8, 85, 119
10, 206016, Note_off_c, 8, 85, 64
10, 206016, Note_on_c, 8, 80, 111
10, 206208, Note_off_c, 8, 80, 64
10, 206208, Note_on_c, 8, 78, 103
10, 206400, Note_off_c, 8, 78, 64
10, 206400, Note_on_c, 8, 85, 96
10, 206592, Note_off_c, 8, 85, 64
10, 206592, Note_on_c, 8, 80, 88
10, 206784, Note_off_c, 8, 80, 64
10, 206784, Note_on_c, 8, 78, 81
10, 206976, Note_off_c, 8, 78, 64
10, 206976, Note_on_c, 8, 73, 73
10, 207168, Note_off_c, 8, 73, 64
10, 207168, Note_on_c, 8, 76, 65
10, 207360, Note_off_c, 8, 76, 64
10, 207360, Note_on_c, 8, 73, 55
10, 207552, Note_off_c, 8, 73, 64
10, 207552, Note_on_c, 8, 75, 63
10, 207744, Note_off_c, 8, 75, 64
10, 207744, Note_on_c, 8, 73, 71
10, 207936, Note_off_c, 8, 73, 64
10, 207936, Note_on_c, 8, 76, 79
10, 208128, Note_off_c, 8, 76, 64
10, 208128, Note_on_c, 8, 73, 86
10, 208320, Note_off_c, 8, 73, 64
10, 208320, Note_on_c, 8, 76, 94
10, 208512, Note_off_c, 8, 76, 64
10, 208512, Note_on_c, 8, 78, 102
10, 208704, Note_off_c, 8, 78, 64
10, 208704, Note_on_c, 8, 80, 110
10, 208896, Note_off_c, 8, 80, 64
10, 208896, End_track
11, 0, Start_track
11, 0, Title_t, "Rob Diaz-"
11, 0, Control_c, 9, 7, 100
11, 0, Program_c, 9, 0
11, 0, Control_c, 9, 10, 64
11, 0, Control_c, 9, 91, 73
11, 0, Note_on_c, 9, 46, 98
11, 0, Note_on_c, 9, 57, 110
11, 0, Note_on_c, 9, 36, 110
11, 192, Note_off_c, 9, 36, 64
11, 192, Note_off_c, 9, 46, 64
11, 192, Note_on_c, 9, 44, 64
11, 288, Note_off_c, 9, 44, 64
11, 384, Note_on_c, 9, 44, 64
11, 480, Note_off_c, 9, 44, 64
11, 576, Note_on_c, 9, 46, 97
11, 576, Note_on_c, 9, 36, 110
11, 768, Note_off_c, 9, 36, 64
11, 768, Note_off_c, 9, 46, 64
11, 768, Note_on_c, 9, 44, 78
11, 864, Note_off_c, 9, 44, 64
11, 960, Note_on_c, 9, 44, 78
11, 1056, Note_off_c, 9, 44, 64
11, 1152, Note_off_c, 9, 57, 64
11, 1152, Note_on_c, 9, 46, 98
11, 1152, Note_on_c, 9, 36, 110
11, 1344, Note_off_c, 9, 36, 64
11, 1344, Note_off_c, 9, 46, 64
11, 1344, Note_on_c, 9, 44, 64
11, 1440, Note_off_c, 9, 44, 64
11, 1536, Note_on_c, 9, 44, 78
11, 1632, Note_off_c, 9, 44, 64
11, 1728, Note_on_c, 9, 44, 64
11, 1824, Note_off_c, 9, 44, 64
11, 1920, Note_on_c, 9, 44, 78
11, 2016, Note_off_c, 9, 44, 64
11, 2112, Note_on_c, 9, 44, 64
11, 2208, Note_off_c, 9, 44, 64
11, 2304, Note_on_c, 9, 46, 98
11, 2304, Note_on_c, 9, 36, 110
11, 2496, Note_off_c, 9, 36, 64
11, 2496, Note_off_c, 9, 46, 64
11, 2496, Note_on_c, 9, 44, 64
11, 2592, Note_off_c, 9, 44, 64
11, 2688, Note_on_c, 9, 44, 64
11, 2784, Note_off_c, 9, 44, 64
11, 2880, Note_on_c, 9, 46, 97
11, 2880, Note_on_c, 9, 36, 110
11, 3072, Note_off_c, 9, 36, 64
11, 3072, Note_off_c, 9, 46, 64
11, 3072, Note_on_c, 9, 44, 78
11, 3168, Note_off_c, 9, 44, 64
11, 3264, Note_on_c, 9, 44, 78
11, 3360, Note_off_c, 9, 44, 64
11, 3456, Note_on_c, 9, 46, 98
11, 3456, Note_on_c, 9, 36, 110
11, 3648, Note_off_c, 9, 36, 64
11, 3648, Note_off_c, 9, 46, 64
11, 3648, Note_on_c, 9, 44, 64
11, 3744, Note_off_c, 9, 44, 64
11, 3840, Note_on_c, 9, 44, 78
11, 3936, Note_off_c, 9, 44, 64
11, 4032, Note_on_c, 9, 44, 64
11, 4128, Note_off_c, 9, 44, 64
11, 4224, Note_on_c, 9, 44, 78
11, 4320, Note_off_c, 9, 44, 64
11, 4416, Note_on_c, 9, 44, 64
11, 4512, Note_off_c, 9, 44, 64
11, 4608, Control_c, 9, 7, 100
11, 4608, Program_c, 9, 0
11, 4608, Note_on_c, 9, 46, 98
11, 4608, Note_on_c, 9, 36, 110
11, 4800, Note_off_c, 9, 36, 64
11, 4800, Note_off_c, 9, 46, 64
11, 4800, Note_on_c, 9, 44, 64
11, 4896, Note_off_c, 9, 44, 64
11, 4992, Note_on_c, 9, 44, 64
11, 5088, Note_off_c, 9, 44, 64
11, 5184, Note_on_c, 9, 46, 97
11, 5184, Note_on_c, 9, 36, 110
11, 5376, Note_off_c, 9, 36, 64
11, 5376, Note_off_c, 9, 46, 64
11, 5376, Note_on_c, 9, 44, 78
11, 5472, Note_off_c, 9, 44, 64
11, 5568, Note_on_c, 9, 44, 78
11, 5664, Note_off_c, 9, 44, 64
11, 5760, Note_on_c, 9, 46, 98
11, 5760, Note_on_c, 9, 36, 110
11, 5952, Note_off_c, 9, 36, 64
11, 5952, Note_off_c, 9, 46, 64
11, 5952, Note_on_c, 9, 44, 64
11, 6048, Note_off_c, 9, 44, 64
11, 6144, Note_on_c, 9, 44, 78
11, 6240, Note_off_c, 9, 44, 64
11, 6336, Note_on_c, 9, 44, 64
11, 6432, Note_off_c, 9, 44, 64
11, 6528, Note_on_c, 9, 44, 78
11, 6624, Note_off_c, 9, 44, 64
11, 6720, Note_on_c, 9, 44, 64
11, 6816, Note_off_c, 9, 44, 64
11, 6912, Note_on_c, 9, 46, 98
11, 6912, Note_on_c, 9, 36, 110
11, 7104, Note_off_c, 9, 36, 64
11, 7104, Note_off_c, 9, 46, 64
11, 7104, Note_on_c, 9, 44, 64
11, 7200, Note_off_c, 9, 44, 64
11, 7296, Note_on_c, 9, 44, 64
11, 7392, Note_off_c, 9, 44, 64
11, 7488, Note_on_c, 9, 46, 97
11, 7488, Note_on_c, 9, 36, 110
11, 7680, Note_off_c, 9, 36, 64
11, 7680, Note_off_c, 9, 46, 64
11, 7680, Note_on_c, 9, 44, 78
11, 7776, Note_off_c, 9, 44, 64
11, 7872, Note_on_c, 9, 44, 78
11, 7968, Note_off_c, 9, 44, 64
11, 8064, Note_on_c, 9, 46, 98
11, 8064, Note_on_c, 9, 36, 110
11, 8256, Note_off_c, 9, 36, 64
11, 8256, Note_off_c, 9, 46, 64
11, 8256, Note_on_c, 9, 44, 64
11, 8352, Note_off_c, 9, 44, 64
11, 8448, Note_on_c, 9, 44, 78
11, 8544, Note_off_c, 9, 44, 64
11, 8640, Note_on_c, 9, 44, 64
11, 8736, Note_off_c, 9, 44, 64
11, 8832, Note_on_c, 9, 38, 110
11, 8832, Note_on_c, 9, 57, 110
11, 8832, Note_on_c, 9, 44, 78
11, 8928, Note_off_c, 9, 44, 64
11, 9024, Note_off_c, 9, 38, 64
11, 9024, Note_on_c, 9, 44, 64
11, 9120, Note_off_c, 9, 44, 64
11, 9216, Note_off_c, 9, 57, 64
11, 9216, Control_c, 9, 7, 100
11, 9216, Program_c, 9, 0
11, 9216, Note_on_c, 9, 44, 64
11, 9216, Note_on_c, 9, 36, 110
11, 9312, Note_off_c, 9, 44, 64
11, 9408, Note_off_c, 9, 36, 64
11, 9408, Note_on_c, 9, 44, 96
11, 9504, Note_off_c, 9, 44, 64
11, 9600, Note_on_c, 9, 44, 110
11, 9600, Note_on_c, 9, 36, 110
11, 9696, Note_off_c, 9, 44, 64
11, 9792, Note_off_c, 9, 36, 64
11, 9792, Note_on_c, 9, 38, 110
11, 9792, Note_on_c, 9, 44, 64
11, 9888, Note_off_c, 9, 44, 64
11, 9984, Note_off_c, 9, 38, 64
11, 9984, Note_on_c, 9, 44, 96
11, 10080, Note_off_c, 9, 44, 64
11, 10176, Note_on_c, 9, 44, 110
11, 10176, Note_on_c, 9, 36, 110
11, 10272, Note_off_c, 9, 44, 64
11, 10368, Note_off_c, 9, 36, 64
11, 10368, Note_on_c, 9, 44, 64
11, 10368, Note_on_c, 9, 36, 110
11, 10464, Note_off_c, 9, 44, 64
11, 10560, Note_off_c, 9, 36, 64
11, 10560, Note_on_c, 9, 44, 96
11, 10656, Note_off_c, 9, 44, 64
11, 10752, Note_on_c, 9, 38, 110
11, 10752, Note_on_c, 9, 44, 110
11, 10848, Note_off_c, 9, 44, 64
11, 10944, Note_off_c, 9, 38, 64
11, 10944, Note_on_c, 9, 44, 96
11, 11040, Note_off_c, 9, 44, 64
11, 11136, Note_on_c, 9, 44, 96
11, 11136, Note_on_c, 9, 36, 110
11, 11232, Note_off_c, 9, 44, 64
11, 11328, Note_off_c, 9, 36, 64
11, 11328, Note_on_c, 9, 46, 110
11, 11520, Note_off_c, 9, 46, 64
11, 11520, Note_on_c, 9, 44, 64
11, 11520, Note_on_c, 9, 36, 110
11, 11616, Note_off_c, 9, 44, 64
11, 11712, Note_off_c, 9, 36, 64
11, 11712, Note_on_c, 9, 44, 96
11, 11808, Note_off_c, 9, 44, 64
11, 11904, Note_on_c, 9, 44, 110
11, 11904, Note_on_c, 9, 36, 110
11, 12000, Note_off_c, 9, 44, 64
11, 12096, Note_off_c, 9, 36, 64
11, 12096, Note_on_c, 9, 38, 110
11, 12096, Note_on_c, 9, 44, 64
11, 12192, Note_off_c, 9, 44, 64
11, 12288, Note_off_c, 9, 38, 64
11, 12288, Note_on_c, 9, 44, 96
11, 12384, Note_off_c, 9, 44, 64
11, 12480, Note_on_c, 9, 44, 110
11, 12480, Note_on_c, 9, 36, 110
11, 12576, Note_off_c, 9, 44, 64
11, 12672, Note_off_c, 9, 36, 64
11, 12672, Note_on_c, 9, 44, 64
11, 12672, Note_on_c, 9, 36, 110
11, 12768, Note_off_c, 9, 44, 64
11, 12864, Note_off_c, 9, 36, 64
11, 12864, Note_on_c, 9, 44, 96
11, 12960, Note_off_c, 9, 44, 64
11, 13056, Note_on_c, 9, 44, 110
11, 13056, Note_on_c, 9, 36, 110
11, 13152, Note_off_c, 9, 44, 64
11, 13248, Note_off_c, 9, 36, 64
11, 13248, Note_on_c, 9, 46, 96
11, 13440, Note_off_c, 9, 46, 64
11, 13440, Note_on_c, 9, 38, 110
11, 13440, Note_on_c, 9, 44, 110
11, 13536, Note_off_c, 9, 44, 64
11, 13632, Note_off_c, 9, 38, 64
11, 13632, Note_on_c, 9, 46, 96
11, 13824, Note_off_c, 9, 46, 64
11, 13824, Control_c, 9, 7, 100
11, 13824, Program_c, 9, 0
11, 13824, Note_on_c, 9, 44, 64
11, 13824, Note_on_c, 9, 36, 110
11, 13920, Note_off_c, 9, 44, 64
11, 14016, Note_off_c, 9, 36, 64
11, 14016, Note_on_c, 9, 44, 96
11, 14112, Note_off_c, 9, 44, 64
11, 14208, Note_on_c, 9, 44, 110
11, 14208, Note_on_c, 9, 36, 110
11, 14304, Note_off_c, 9, 44, 64
11, 14400, Note_off_c, 9, 36, 64
11, 14400, Note_on_c, 9, 38, 110
11, 14400, Note_on_c, 9, 44, 64
11, 14496, Note_off_c, 9, 44, 64
11, 14592, Note_off_c, 9, 38, 64
11, 14592, Note_on_c, 9, 44, 96
11, 14688, Note_off_c, 9, 44, 64
11, 14784, Note_on_c, 9, 44, 110
11, 14784, Note_on_c, 9, 36, 110
11, 14880, Note_off_c, 9, 44, 64
11, 14976, Note_off_c, 9, 36, 64
11, 14976, Note_on_c, 9, 44, 64
11, 14976, Note_on_c, 9, 36, 110
11, 15072, Note_off_c, 9, 44, 64
11, 15168, Note_off_c, 9, 36, 64
11, 15168, Note_on_c, 9, 44, 96
11, 15264, Note_off_c, 9, 44, 64
11, 15360, Note_on_c, 9, 38, 110
11, 15360, Note_on_c, 9, 44, 110
11, 15456, Note_off_c, 9, 44, 64
11, 15552, Note_off_c, 9, 38, 64
11, 15552, Note_on_c, 9, 44, 96
11, 15648, Note_off_c, 9, 44, 64
11, 15744, Note_on_c, 9, 44, 96
11, 15744, Note_on_c, 9, 36, 110
11, 15840, Note_off_c, 9, 44, 64
11, 15936, Note_off_c, 9, 36, 64
11, 15936, Note_on_c, 9, 46, 110
11, 16128, Note_off_c, 9, 46, 64
11, 16128, Note_on_c, 9, 44, 64
11, 16128, Note_on_c, 9, 36, 110
11, 16224, Note_off_c, 9, 44, 64
11, 16320, Note_off_c, 9, 36, 64
11, 16320, Note_on_c, 9, 44, 96
11, 16416, Note_off_c, 9, 44, 64
11, 16512, Note_on_c, 9, 44, 110
11, 16512, Note_on_c, 9, 36, 110
11, 16608, Note_off_c, 9, 44, 64
11, 16704, Note_off_c, 9, 36, 64
11, 16704, Note_on_c, 9, 38, 110
11, 16704, Note_on_c, 9, 44, 64
11, 16800, Note_off_c, 9, 44, 64
11, 16896, Note_off_c, 9, 38, 64
11, 16896, Note_on_c, 9, 44, 96
11, 16992, Note_off_c, 9, 44, 64
11, 17088, Note_on_c, 9, 44, 110
11, 17088, Note_on_c, 9, 36, 110
11, 17184, Note_off_c, 9, 44, 64
11, 17280, Note_off_c, 9, 36, 64
11, 17280, Note_on_c, 9, 44, 64
11, 17280, Note_on_c, 9, 36, 110
11, 17376, Note_off_c, 9, 44, 64
11, 17472, Note_off_c, 9, 36, 64
11, 17472, Note_on_c, 9, 44, 96
11, 17568, Note_off_c, 9, 44, 64
11, 17664, Note_on_c, 9, 44, 110
11, 17664, Note_on_c, 9, 36, 110
11, 17760, Note_off_c, 9, 44, 64
11, 17856, Note_off_c, 9, 36, 64
11, 17856, Note_on_c, 9, 46, 96
11, 18048, Note_off_c, 9, 46, 64
11, 18048, Note_on_c, 9, 38, 110
11, 18048, Note_on_c, 9, 44, 110
11, 18144, Note_off_c, 9, 44, 64
11, 18240, Note_off_c, 9, 38, 64
11, 18240, Note_on_c, 9, 46, 96
11, 18432, Note_off_c, 9, 46, 64
11, 18432, Control_c, 9, 7, 100
11, 18432, Program_c, 9, 0
11, 18432, Note_on_c, 9, 36, 110
11, 18432, Note_on_c, 9, 46, 96
11, 18624, Note_off_c, 9, 46, 64
11, 18624, Note_off_c, 9, 36, 64
11, 18624, Note_on_c, 9, 44, 96
11, 18720, Note_off_c, 9, 44, 64
11, 18816, Note_on_c, 9, 44, 110
11, 18912, Note_off_c, 9, 44, 64
11, 19008, Note_on_c, 9, 36, 110
11, 19008, Note_on_c, 9, 46, 96
11, 19200, Note_off_c, 9, 46, 64
11, 19200, Note_off_c, 9, 36, 64
11, 19200, Note_on_c, 9, 44, 96
11, 19296, Note_off_c, 9, 44, 64
11, 19392, Note_on_c, 9, 44, 110
11, 19488, Note_off_c, 9, 44, 64
11, 19584, Note_on_c, 9, 36, 110
11, 19584, Note_on_c, 9, 46, 96
11, 19776, Note_off_c, 9, 46, 64
11, 19776, Note_off_c, 9, 36, 64
11, 19776, Note_on_c, 9, 44, 96
11, 19872, Note_off_c, 9, 44, 64
11, 19968, Note_on_c, 9, 44, 110
11, 20064, Note_off_c, 9, 44, 64
11, 20160, Note_on_c, 9, 44, 96
11, 20256, Note_off_c, 9, 44, 64
11, 20352, Note_on_c, 9, 44, 101
11, 20448, Note_off_c, 9, 44, 64
11, 20544, Note_on_c, 9, 44, 96
11, 20640, Note_off_c, 9, 44, 64
11, 20736, Note_on_c, 9, 36, 110
11, 20736, Note_on_c, 9, 46, 96
11, 20928, Note_off_c, 9, 46, 64
11, 20928, Note_off_c, 9, 36, 64
11, 20928, Note_on_c, 9, 44, 96
11, 21024, Note_off_c, 9, 44, 64
11, 21120, Note_on_c, 9, 44, 110
11, 21216, Note_off_c, 9, 44, 64
11, 21312, Note_on_c, 9, 36, 110
11, 21312, Note_on_c, 9, 46, 96
11, 21504, Note_off_c, 9, 46, 64
11, 21504, Note_off_c, 9, 36, 64
11, 21504, Note_on_c, 9, 44, 96
11, 21600, Note_off_c, 9, 44, 64
11, 21696, Note_on_c, 9, 44, 110
11, 21792, Note_off_c, 9, 44, 64
11, 21888, Note_on_c, 9, 36, 110
11, 21888, Note_on_c, 9, 46, 96
11, 22080, Note_off_c, 9, 46, 64
11, 22080, Note_off_c, 9, 36, 64
11, 22080, Note_on_c, 9, 44, 96
11, 22176, Note_off_c, 9, 44, 64
11, 22272, Note_on_c, 9, 44, 110
11, 22368, Note_off_c, 9, 44, 64
11, 22464, Note_on_c, 9, 44, 96
11, 22560, Note_off_c, 9, 44, 64
11, 22656, Note_on_c, 9, 44, 100
11, 22752, Note_off_c, 9, 44, 64
11, 22848, Note_on_c, 9, 44, 96
11, 22944, Note_off_c, 9, 44, 64
11, 23040, Control_c, 9, 7, 100
11, 23040, Program_c, 9, 0
11, 23040, Note_on_c, 9, 36, 110
11, 23040, Note_on_c, 9, 46, 96
11, 23232, Note_off_c, 9, 46, 64
11, 23232, Note_off_c, 9, 36, 64
11, 23232, Note_on_c, 9, 44, 96
11, 23328, Note_off_c, 9, 44, 64
11, 23424, Note_on_c, 9, 44, 110
11, 23520, Note_off_c, 9, 44, 64
11, 23616, Note_on_c, 9, 36, 110
11, 23616, Note_on_c, 9, 46, 96
11, 23808, Note_off_c, 9, 46, 64
11, 23808, Note_off_c, 9, 36, 64
11, 23808, Note_on_c, 9, 44, 96
11, 23904, Note_off_c, 9, 44, 64
11, 24000, Note_on_c, 9, 44, 110
11, 24096, Note_off_c, 9, 44, 64
11, 24192, Note_on_c, 9, 36, 110
11, 24192, Note_on_c, 9, 46, 96
11, 24384, Note_off_c, 9, 46, 64
11, 24384, Note_off_c, 9, 36, 64
11, 24384, Note_on_c, 9, 44, 96
11, 24480, Note_off_c, 9, 44, 64
11, 24576, Note_on_c, 9, 44, 110
11, 24672, Note_off_c, 9, 44, 64
11, 24768, Note_on_c, 9, 44, 96
11, 24864, Note_off_c, 9, 44, 64
11, 24960, Note_on_c, 9, 44, 101
11, 25056, Note_off_c, 9, 44, 64
11, 25152, Note_on_c, 9, 44, 96
11, 25248, Note_off_c, 9, 44, 64
11, 25344, Note_on_c, 9, 36, 110
11, 25344, Note_on_c, 9, 46, 96
11, 25536, Note_off_c, 9, 46, 64
11, 25536, Note_off_c, 9, 36, 64
11, 25536, Note_on_c, 9, 44, 96
11, 25632, Note_off_c, 9, 44, 64
11, 25728, Note_on_c, 9, 44, 110
11, 25824, Note_off_c, 9, 44, 64
11, 25920, Note_on_c, 9, 36, 110
11, 25920, Note_on_c, 9, 46, 96
11, 26112, Note_off_c, 9, 46, 64
11, 26112, Note_off_c, 9, 36, 64
11, 26112, Note_on_c, 9, 44, 96
11, 26208, Note_off_c, 9, 44, 64
11, 26304, Note_on_c, 9, 44, 110
11, 26400, Note_off_c, 9, 44, 64
11, 26496, Note_on_c, 9, 36, 110
11, 26496, Note_on_c, 9, 46, 96
11, 26688, Note_off_c, 9, 46, 64
11, 26688, Note_off_c, 9, 36, 64
11, 26688, Note_on_c, 9, 44, 96
11, 26784, Note_off_c, 9, 44, 64
11, 26880, Note_on_c, 9, 44, 110
11, 26976, Note_off_c, 9, 44, 64
11, 27072, Note_on_c, 9, 44, 96
11, 27168, Note_off_c, 9, 44, 64
11, 27264, Note_on_c, 9, 44, 100
11, 27360, Note_off_c, 9, 44, 64
11, 27456, Note_on_c, 9, 44, 96
11, 27552, Note_off_c, 9, 44, 64
11, 27648, Control_c, 9, 7, 100
11, 27648, Program_c, 9, 0
11, 27648, Note_on_c, 9, 44, 110
11, 27648, Note_on_c, 9, 57, 110
11, 27648, Note_on_c, 9, 36, 110
11, 27744, Note_off_c, 9, 44, 64
11, 27840, Note_off_c, 9, 36, 64
11, 27840, Note_on_c, 9, 44, 96
11, 27936, Note_off_c, 9, 44, 64
11, 28032, Note_on_c, 9, 44, 64
11, 28128, Note_off_c, 9, 44, 64
11, 28224, Note_on_c, 9, 38, 110
11, 28224, Note_on_c, 9, 44, 110
11, 28320, Note_off_c, 9, 44, 64
11, 28416, Note_off_c, 9, 38, 64
11, 28416, Note_on_c, 9, 44, 96
11, 28512, Note_off_c, 9, 44, 64
11, 28608, Note_on_c, 9, 44, 64
11, 28704, Note_off_c, 9, 44, 64
11, 28800, Note_off_c, 9, 57, 64
11, 28800, Note_on_c, 9, 44, 110
11, 28800, Note_on_c, 9, 36, 110
11, 28896, Note_off_c, 9, 44, 64
11, 28992, Note_off_c, 9, 36, 64
11, 28992, Note_on_c, 9, 44, 96
11, 29088, Note_off_c, 9, 44, 64
11, 29184, Note_on_c, 9, 44, 64
11, 29280, Note_off_c, 9, 44, 64
11, 29376, Note_on_c, 9, 38, 110
11, 29376, Note_on_c, 9, 44, 110
11, 29472, Note_off_c, 9, 44, 64
11, 29568, Note_off_c, 9, 38, 64
11, 29568, Note_on_c, 9, 44, 96
11, 29664, Note_off_c, 9, 44, 64
11, 29760, Note_on_c, 9, 44, 64
11, 29856, Note_off_c, 9, 44, 64
11, 29952, Note_on_c, 9, 44, 110
11, 29952, Note_on_c, 9, 36, 110
11, 30048, Note_off_c, 9, 44, 64
11, 30144, Note_off_c, 9, 36, 64
11, 30144, Note_on_c, 9, 44, 96
11, 30240, Note_off_c, 9, 44, 64
11, 30336, Note_on_c, 9, 38, 110
11, 30336, Note_on_c, 9, 46, 110
11, 30528, Note_off_c, 9, 46, 64
11, 30528, Note_off_c, 9, 38, 64
11, 30528, Note_on_c, 9, 44, 64
11, 30624, Note_off_c, 9, 44, 64
11, 30720, Note_on_c, 9, 44, 110
11, 30720, Note_on_c, 9, 36, 110
11, 30816, Note_off_c, 9, 44, 64
11, 30912, Note_off_c, 9, 36, 64
11, 30912, Note_on_c, 9, 44, 96
11, 31008, Note_off_c, 9, 44, 64
11, 31104, Note_on_c, 9, 44, 64
11, 31200, Note_off_c, 9, 44, 64
11, 31296, Note_on_c, 9, 38, 110
11, 31296, Note_on_c, 9, 44, 110
11, 31392, Note_off_c, 9, 44, 64
11, 31488, Note_off_c, 9, 38, 64
11, 31488, Note_on_c, 9, 44, 96
11, 31584, Note_off_c, 9, 44, 64
11, 31680, Note_on_c, 9, 44, 64
11, 31776, Note_off_c, 9, 44, 64
11, 31872, Note_on_c, 9, 44, 110
11, 31872, Note_on_c, 9, 36, 110
11, 31968, Note_off_c, 9, 44, 64
11, 32064, Note_off_c, 9, 36, 64
11, 32064, Note_on_c, 9, 44, 96
11, 32160, Note_off_c, 9, 44, 64
11, 32256, Note_on_c, 9, 44, 64
11, 32352, Note_off_c, 9, 44, 64
11, 32448, Note_on_c, 9, 38, 110
11, 32448, Note_on_c, 9, 44, 110
11, 32544, Note_off_c, 9, 44, 64
11, 32640, Note_off_c, 9, 38, 64
11, 32640, Note_on_c, 9, 44, 96
11, 32736, Note_off_c, 9, 44, 64
11, 32832, Note_on_c, 9, 44, 64
11, 32928, Note_off_c, 9, 44, 64
11, 33024, Note_on_c, 9, 44, 110
11, 33024, Note_on_c, 9, 36, 110
11, 33120, Note_off_c, 9, 44, 64
11, 33216, Note_off_c, 9, 36, 64
11, 33216, Note_on_c, 9, 44, 96
11, 33312, Note_off_c, 9, 44, 64
11, 33408, Note_on_c, 9, 38, 110
11, 33408, Note_on_c, 9, 46, 110
11, 33600, Note_off_c, 9, 46, 64
11, 33600, Note_off_c, 9, 38, 64
11, 33600, Note_on_c, 9, 44, 64
11, 33696, Note_off_c, 9, 44, 64
11, 33792, Control_c, 9, 7, 100
11, 33792, Program_c, 9, 0
11, 33792, Note_on_c, 9, 44, 110
11, 33792, Note_on_c, 9, 36, 110
11, 33888, Note_off_c, 9, 44, 64
11, 33984, Note_off_c, 9, 36, 64
11, 33984, Note_on_c, 9, 44, 96
11, 34080, Note_off_c, 9, 44, 64
11, 34176, Note_on_c, 9, 44, 64
11, 34272, Note_off_c, 9, 44, 64
11, 34368, Note_on_c, 9, 38, 110
11, 34368, Note_on_c, 9, 44, 110
11, 34464, Note_off_c, 9, 44, 64
11, 34560, Note_off_c, 9, 38, 64
11, 34560, Note_on_c, 9, 44, 96
11, 34656, Note_off_c, 9, 44, 64
11, 34752, Note_on_c, 9, 44, 64
11, 34848, Note_off_c, 9, 44, 64
11, 34944, Note_on_c, 9, 44, 110
11, 34944, Note_on_c, 9, 36, 110
11, 35040, Note_off_c, 9, 44, 64
11, 35136, Note_off_c, 9, 36, 64
11, 35136, Note_on_c, 9, 44, 96
11, 35232, Note_off_c, 9, 44, 64
11, 35328, Note_on_c, 9, 44, 64
11, 35424, Note_off_c, 9, 44, 64
11, 35520, Note_on_c, 9, 38, 110
11, 35520, Note_on_c, 9, 44, 110
11, 35616, Note_off_c, 9, 44, 64
11, 35712, Note_off_c, 9, 38, 64
11, 35712, Note_on_c, 9, 44, 96
11, 35808, Note_off_c, 9, 44, 64
11, 35904, Note_on_c, 9, 44, 64
11, 36000, Note_off_c, 9, 44, 64
11, 36096, Note_on_c, 9, 44, 110
11, 36096, Note_on_c, 9, 36, 110
11, 36192, Note_off_c, 9, 44, 64
11, 36288, Note_off_c, 9, 36, 64
11, 36288, Note_on_c, 9, 44, 96
11, 36384, Note_off_c, 9, 44, 64
11, 36480, Note_on_c, 9, 38, 110
11, 36480, Note_on_c, 9, 46, 110
11, 36672, Note_off_c, 9, 46, 64
11, 36672, Note_off_c, 9, 38, 64
11, 36672, Note_on_c, 9, 44, 64
11, 36768, Note_off_c, 9, 44, 64
11, 36864, Note_on_c, 9, 44, 110
11, 36864, Note_on_c, 9, 36, 110
11, 36960, Note_off_c, 9, 44, 64
11, 37056, Note_off_c, 9, 36, 64
11, 37056, Note_on_c, 9, 44, 96
11, 37152, Note_off_c, 9, 44, 64
11, 37248, Note_on_c, 9, 44, 64
11, 37344, Note_off_c, 9, 44, 64
11, 37440, Note_on_c, 9, 38, 110
11, 37440, Note_on_c, 9, 44, 110
11, 37536, Note_off_c, 9, 44, 64
11, 37632, Note_off_c, 9, 38, 64
11, 37632, Note_on_c, 9, 44, 96
11, 37728, Note_off_c, 9, 44, 64
11, 37824, Note_on_c, 9, 44, 64
11, 37920, Note_off_c, 9, 44, 64
11, 38016, Note_on_c, 9, 44, 110
11, 38016, Note_on_c, 9, 36, 110
11, 38112, Note_off_c, 9, 44, 64
11, 38208, Note_off_c, 9, 36, 64
11, 38208, Note_on_c, 9, 44, 96
11, 38304, Note_off_c, 9, 44, 64
11, 38400, Note_on_c, 9, 44, 64
11, 38496, Note_off_c, 9, 44, 64
11, 38592, Note_on_c, 9, 38, 110
11, 38592, Note_on_c, 9, 44, 110
11, 38688, Note_off_c, 9, 44, 64
11, 38784, Note_off_c, 9, 38, 64
11, 38784, Note_on_c, 9, 44, 96
11, 38880, Note_off_c, 9, 44, 64
11, 38976, Note_on_c, 9, 44, 64
11, 39072, Note_off_c, 9, 44, 64
11, 39168, Note_on_c, 9, 44, 110
11, 39168, Note_on_c, 9, 36, 110
11, 39264, Note_off_c, 9, 44, 64
11, 39360, Note_off_c, 9, 36, 64
11, 39360, Note_on_c, 9, 44, 96
11, 39456, Note_off_c, 9, 44, 64
11, 39552, Note_on_c, 9, 38, 110
11, 39552, Note_on_c, 9, 46, 110
11, 39744, Note_off_c, 9, 46, 64
11, 39744, Note_off_c, 9, 38, 64
11, 39744, Note_on_c, 9, 44, 64
11, 39840, Note_off_c, 9, 44, 64
11, 39936, Control_c, 9, 7, 100
11, 39936, Program_c, 9, 0
11, 39936, Note_on_c, 9, 44, 110
11, 39936, Note_on_c, 9, 36, 110
11, 40032, Note_off_c, 9, 44, 64
11, 40128, Note_off_c, 9, 36, 64
11, 40128, Note_on_c, 9, 44, 96
11, 40224, Note_off_c, 9, 44, 64
11, 40320, Note_on_c, 9, 44, 64
11, 40416, Note_off_c, 9, 44, 64
11, 40512, Note_on_c, 9, 38, 110
11, 40512, Note_on_c, 9, 44, 110
11, 40608, Note_off_c, 9, 44, 64
11, 40704, Note_off_c, 9, 38, 64
11, 40704, Note_on_c, 9, 44, 96
11, 40800, Note_off_c, 9, 44, 64
11, 40896, Note_on_c, 9, 44, 64
11, 40992, Note_off_c, 9, 44, 64
11, 41088, Note_on_c, 9, 44, 110
11, 41088, Note_on_c, 9, 36, 110
11, 41184, Note_off_c, 9, 44, 64
11, 41280, Note_off_c, 9, 36, 64
11, 41280, Note_on_c, 9, 44, 96
11, 41376, Note_off_c, 9, 44, 64
11, 41472, Note_on_c, 9, 44, 64
11, 41568, Note_off_c, 9, 44, 64
11, 41664, Note_on_c, 9, 38, 110
11, 41664, Note_on_c, 9, 44, 110
11, 41760, Note_off_c, 9, 44, 64
11, 41856, Note_off_c, 9, 38, 64
11, 41856, Note_on_c, 9, 44, 96
11, 41952, Note_off_c, 9, 44, 64
11, 42048, Note_on_c, 9, 44, 64
11, 42144, Note_off_c, 9, 44, 64
11, 42240, Note_on_c, 9, 44, 110
11, 42240, Note_on_c, 9, 36, 110
11, 42336, Note_off_c, 9, 44, 64
11, 42432, Note_off_c, 9, 36, 64
11, 42432, Note_on_c, 9, 44, 96
11, 42528, Note_off_c, 9, 44, 64
11, 42624, Note_on_c, 9, 38, 110
11, 42624, Note_on_c, 9, 46, 110
11, 42816, Note_off_c, 9, 46, 64
11, 42816, Note_off_c, 9, 38, 64
11, 42816, Note_on_c, 9, 44, 64
11, 42912, Note_off_c, 9, 44, 64
11, 43008, Note_on_c, 9, 44, 110
11, 43008, Note_on_c, 9, 36, 110
11, 43104, Note_off_c, 9, 44, 64
11, 43200, Note_off_c, 9, 36, 64
11, 43200, Note_on_c, 9, 44, 96
11, 43296, Note_off_c, 9, 44, 64
11, 43392, Note_on_c, 9, 44, 64
11, 43488, Note_off_c, 9, 44, 64
11, 43584, Note_on_c, 9, 38, 110
11, 43584, Note_on_c, 9, 44, 110
11, 43680, Note_off_c, 9, 44, 64
11, 43776, Note_off_c, 9, 38, 64
11, 43776, Note_on_c, 9, 44, 96
11, 43872, Note_off_c, 9, 44, 64
11, 43968, Note_on_c, 9, 44, 64
11, 44064, Note_off_c, 9, 44, 64
11, 44160, Note_on_c, 9, 44, 110
11, 44160, Note_on_c, 9, 36, 110
11, 44256, Note_off_c, 9, 44, 64
11, 44352, Note_off_c, 9, 36, 64
11, 44352, Note_on_c, 9, 44, 96
11, 44448, Note_off_c, 9, 44, 64
11, 44544, Note_on_c, 9, 44, 64
11, 44640, Note_off_c, 9, 44, 64
11, 44736, Note_on_c, 9, 38, 110
11, 44736, Note_on_c, 9, 44, 110
11, 44832, Note_off_c, 9, 44, 64
11, 44928, Note_off_c, 9, 38, 64
11, 44928, Note_on_c, 9, 44, 96
11, 45024, Note_off_c, 9, 44, 64
11, 45120, Note_on_c, 9, 44, 64
11, 45216, Note_off_c, 9, 44, 64
11, 45312, Note_on_c, 9, 44, 110
11, 45312, Note_on_c, 9, 36, 110
11, 45408, Note_off_c, 9, 44, 64
11, 45504, Note_off_c, 9, 36, 64
11, 45504, Note_on_c, 9, 44, 96
11, 45600, Note_off_c, 9, 44, 64
11, 45696, Note_on_c, 9, 38, 110
11, 45696, Note_on_c, 9, 46, 110
11, 45888, Note_off_c, 9, 46, 64
11, 45888, Note_off_c, 9, 38, 64
11, 45888, Note_on_c, 9, 44, 64
11, 45984, Note_off_c, 9, 44, 64
11, 46080, Control_c, 9, 7, 100
11, 46080, Program_c, 9, 0
11, 46080, Note_on_c, 9, 44, 110
11, 46080, Note_on_c, 9, 36, 110
11, 46176, Note_off_c, 9, 44, 64
11, 46272, Note_off_c, 9, 36, 64
11, 46272, Note_on_c, 9, 44, 96
11, 46368, Note_off_c, 9, 44, 64
11, 46464, Note_on_c, 9, 44, 64
11, 46560, Note_off_c, 9, 44, 64
11, 46656, Note_on_c, 9, 38, 110
11, 46656, Note_on_c, 9, 44, 110
11, 46752, Note_off_c, 9, 44, 64
11, 46848, Note_off_c, 9, 38, 64
11, 46848, Note_on_c, 9, 44, 96
11, 46944, Note_off_c, 9, 44, 64
11, 47040, Note_on_c, 9, 44, 64
11, 47136, Note_off_c, 9, 44, 64
11, 47232, Note_on_c, 9, 44, 110
11, 47232, Note_on_c, 9, 36, 110
11, 47328, Note_off_c, 9, 44, 64
11, 47424, Note_off_c, 9, 36, 64
11, 47424, Note_on_c, 9, 44, 96
11, 47520, Note_off_c, 9, 44, 64
11, 47616, Note_on_c, 9, 44, 64
11, 47712, Note_off_c, 9, 44, 64
11, 47808, Note_on_c, 9, 38, 110
11, 47808, Note_on_c, 9, 44, 110
11, 47904, Note_off_c, 9, 44, 64
11, 48000, Note_off_c, 9, 38, 64
11, 48000, Note_on_c, 9, 44, 96
11, 48096, Note_off_c, 9, 44, 64
11, 48192, Note_on_c, 9, 44, 64
11, 48288, Note_off_c, 9, 44, 64
11, 48384, Note_on_c, 9, 44, 110
11, 48384, Note_on_c, 9, 36, 110
11, 48480, Note_off_c, 9, 44, 64
11, 48576, Note_off_c, 9, 36, 64
11, 48576, Note_on_c, 9, 44, 96
11, 48672, Note_off_c, 9, 44, 64
11, 48768, Note_on_c, 9, 38, 110
11, 48768, Note_on_c, 9, 46, 110
11, 48960, Note_off_c, 9, 46, 64
11, 48960, Note_off_c, 9, 38, 64
11, 48960, Note_on_c, 9, 44, 64
11, 49056, Note_off_c, 9, 44, 64
11, 49152, Note_on_c, 9, 44, 110
11, 49152, Note_on_c, 9, 36, 110
11, 49248, Note_off_c, 9, 44, 64
11, 49344, Note_off_c, 9, 36, 64
11, 49344, Note_on_c, 9, 44, 96
11, 49440, Note_off_c, 9, 44, 64
11, 49536, Note_on_c, 9, 44, 64
11, 49632, Note_off_c, 9, 44, 64
11, 49728, Note_on_c, 9, 38, 110
11, 49728, Note_on_c, 9, 44, 110
11, 49824, Note_off_c, 9, 44, 64
11, 49920, Note_off_c, 9, 38, 64
11, 49920, Note_on_c, 9, 44, 96
11, 50016, Note_off_c, 9, 44, 64
11, 50112, Note_on_c, 9, 44, 64
11, 50208, Note_off_c, 9, 44, 64
11, 50304, Note_on_c, 9, 44, 110
11, 50304, Note_on_c, 9, 36, 110
11, 50400, Note_off_c, 9, 44, 64
11, 50496, Note_off_c, 9, 36, 64
11, 50496, Note_on_c, 9, 44, 96
11, 50592, Note_off_c, 9, 44, 64
11, 50688, Note_on_c, 9, 36, 110
11, 50688, Note_on_c, 9, 44, 64
11, 50784, Note_off_c, 9, 44, 64
11, 50880, Note_off_c, 9, 36, 64
11, 50880, Note_on_c, 9, 44, 110
11, 50976, Note_off_c, 9, 44, 64
11, 51072, Note_on_c, 9, 38, 110
11, 51072, Note_on_c, 9, 44, 96
11, 51168, Note_off_c, 9, 44, 64
11, 51264, Note_off_c, 9, 38, 64
11, 51264, Note_on_c, 9, 36, 110
11, 51264, Note_on_c, 9, 44, 64
11, 51360, Note_off_c, 9, 44, 64
11, 51456, Note_off_c, 9, 36, 64
11, 51456, Note_on_c, 9, 44, 110
11, 51552, Note_off_c, 9, 44, 64
11, 51648, Note_on_c, 9, 44, 96
11, 51744, Note_off_c, 9, 44, 64
11, 51840, Note_on_c, 9, 38, 110
11, 51840, Note_on_c, 9, 46, 110
11, 52032, Note_off_c, 9, 46, 64
11, 52032, Note_off_c, 9, 38, 64
11, 52032, Note_on_c, 9, 44, 64
11, 52128, Note_off_c, 9, 44, 64
11, 52224, Control_c, 9, 7, 100
11, 52224, Program_c, 9, 0
11, 52224, Note_on_c, 9, 57, 110
11, 52224, Note_on_c, 9, 44, 110
11, 52224, Note_on_c, 9, 36, 110
11, 52320, Note_off_c, 9, 44, 64
11, 52416, Note_off_c, 9, 36, 64
11, 52416, Note_on_c, 9, 44, 96
11, 52512, Note_off_c, 9, 44, 64
11, 52608, Note_on_c, 9, 38, 110
11, 52608, Note_on_c, 9, 44, 64
11, 52704, Note_off_c, 9, 44, 64
11, 52800, Note_off_c, 9, 38, 64
11, 52800, Note_on_c, 9, 44, 110
11, 52896, Note_off_c, 9, 44, 64
11, 52992, Note_on_c, 9, 36, 110
11, 52992, Note_on_c, 9, 44, 96
11, 53088, Note_off_c, 9, 44, 64
11, 53184, Note_off_c, 9, 36, 64
11, 53184, Note_on_c, 9, 36, 110
11, 53184, Note_on_c, 9, 44, 64
11, 53280, Note_off_c, 9, 44, 64
11, 53376, Note_off_c, 9, 36, 64
11, 53376, Note_on_c, 9, 38, 110
11, 53376, Note_on_c, 9, 44, 110
11, 53472, Note_off_c, 9, 44, 64
11, 53568, Note_off_c, 9, 38, 64
11, 53568, Note_on_c, 9, 44, 96
11, 53664, Note_off_c, 9, 44, 64
11, 53760, Note_off_c, 9, 57, 64
11, 53760, Note_on_c, 9, 36, 110
11, 53760, Note_on_c, 9, 44, 64
11, 53856, Note_off_c, 9, 44, 64
11, 53952, Note_off_c, 9, 36, 64
11, 53952, Note_on_c, 9, 36, 110
11, 53952, Note_on_c, 9, 44, 110
11, 54048, Note_off_c, 9, 44, 64
11, 54144, Note_off_c, 9, 36, 64
11, 54144, Note_on_c, 9, 38, 110
11, 54144, Note_on_c, 9, 44, 96
11, 54240, Note_off_c, 9, 44, 64
11, 54336, Note_off_c, 9, 38, 64
11, 54336, Note_on_c, 9, 36, 110
11, 54336, Note_on_c, 9, 44, 64
11, 54432, Note_off_c, 9, 44, 64
11, 54528, Note_off_c, 9, 36, 64
11, 54528, Note_on_c, 9, 44, 110
11, 54624, Note_off_c, 9, 44, 64
11, 54720, Note_on_c, 9, 36, 110
11, 54720, Note_on_c, 9, 44, 96
11, 54816, Note_off_c, 9, 44, 64
11, 54912, Note_off_c, 9, 36, 64
11, 54912, Note_on_c, 9, 38, 110
11, 54912, Note_on_c, 9, 46, 110
11, 55104, Note_off_c, 9, 46, 64
11, 55104, Note_off_c, 9, 38, 64
11, 55104, Note_on_c, 9, 44, 64
11, 55200, Note_off_c, 9, 44, 64
11, 55296, Note_on_c, 9, 36, 110
11, 55296, Note_on_c, 9, 44, 110
11, 55392, Note_off_c, 9, 44, 64
11, 55488, Note_off_c, 9, 36, 64
11, 55488, Note_on_c, 9, 44, 96
11, 55584, Note_off_c, 9, 44, 64
11, 55680, Note_on_c, 9, 38, 110
11, 55680, Note_on_c, 9, 44, 64
11, 55776, Note_off_c, 9, 44, 64
11, 55872, Note_off_c, 9, 38, 64
11, 55872, Note_on_c, 9, 44, 110
11, 55968, Note_off_c, 9, 44, 64
11, 56064, Note_on_c, 9, 36, 110
11, 56064, Note_on_c, 9, 44, 96
11, 56160, Note_off_c, 9, 44, 64
11, 56256, Note_off_c, 9, 36, 64
11, 56256, Note_on_c, 9, 36, 110
11, 56256, Note_on_c, 9, 44, 64
11, 56352, Note_off_c, 9, 44, 64
11, 56448, Note_off_c, 9, 36, 64
11, 56448, Note_on_c, 9, 38, 110
11, 56448, Note_on_c, 9, 44, 110
11, 56544, Note_off_c, 9, 44, 64
11, 56640, Note_off_c, 9, 38, 64
11, 56640, Note_on_c, 9, 44, 96
11, 56736, Note_off_c, 9, 44, 64
11, 56832, Note_on_c, 9, 36, 110
11, 56832, Note_on_c, 9, 44, 64
11, 56928, Note_off_c, 9, 44, 64
11, 57024, Note_off_c, 9, 36, 64
11, 57024, Note_on_c, 9, 36, 110
11, 57024, Note_on_c, 9, 44, 110
11, 57120, Note_off_c, 9, 44, 64
11, 57216, Note_off_c, 9, 36, 64
11, 57216, Note_on_c, 9, 38, 110
11, 57216, Note_on_c, 9, 44, 96
11, 57312, Note_off_c, 9, 44, 64
11, 57408, Note_off_c, 9, 38, 64
11, 57408, Note_on_c, 9, 36, 110
11, 57408, Note_on_c, 9, 44, 64
11, 57504, Note_off_c, 9, 44, 64
11, 57600, Note_off_c, 9, 36, 64
11, 57600, Note_on_c, 9, 44, 110
11, 57696, Note_off_c, 9, 44, 64
11, 57792, Note_on_c, 9, 36, 110
11, 57792, Note_on_c, 9, 44, 96
11, 57888, Note_off_c, 9, 44, 64
11, 57984, Note_off_c, 9, 36, 64
11, 57984, Note_on_c, 9, 38, 110
11, 57984, Note_on_c, 9, 46, 110
11, 58176, Note_off_c, 9, 46, 64
11, 58176, Note_off_c, 9, 38, 64
11, 58176, Note_on_c, 9, 44, 64
11, 58272, Note_off_c, 9, 44, 64
11, 58368, Control_c, 9, 7, 100
11, 58368, Program_c, 9, 0
11, 58368, Note_on_c, 9, 44, 110
11, 58368, Note_on_c, 9, 36, 110
11, 58464, Note_off_c, 9, 44, 64
11, 58560, Note_off_c, 9, 36, 64
11, 58560, Note_on_c, 9, 44, 96
11, 58656, Note_off_c, 9, 44, 64
11, 58752, Note_on_c, 9, 38, 110
11, 58752, Note_on_c, 9, 44, 64
11, 58848, Note_off_c, 9, 44, 64
11, 58944, Note_off_c, 9, 38, 64
11, 58944, Note_on_c, 9, 44, 110
11, 59040, Note_off_c, 9, 44, 64
11, 59136, Note_on_c, 9, 36, 110
11, 59136, Note_on_c, 9, 44, 96
11, 59232, Note_off_c, 9, 44, 64
11, 59328, Note_off_c, 9, 36, 64
11, 59328, Note_on_c, 9, 36, 110
11, 59328, Note_on_c, 9, 44, 64
11, 59424, Note_off_c, 9, 44, 64
11, 59520, Note_off_c, 9, 36, 64
11, 59520, Note_on_c, 9, 38, 110
11, 59520, Note_on_c, 9, 44, 110
11, 59616, Note_off_c, 9, 44, 64
11, 59712, Note_off_c, 9, 38, 64
11, 59712, Note_on_c, 9, 44, 96
11, 59808, Note_off_c, 9, 44, 64
11, 59904, Note_on_c, 9, 36, 110
11, 59904, Note_on_c, 9, 44, 64
11, 60000, Note_off_c, 9, 44, 64
11, 60096, Note_off_c, 9, 36, 64
11, 60096, Note_on_c, 9, 36, 110
11, 60096, Note_on_c, 9, 44, 110
11, 60192, Note_off_c, 9, 44, 64
11, 60288, Note_off_c, 9, 36, 64
11, 60288, Note_on_c, 9, 38, 110
11, 60288, Note_on_c, 9, 44, 96
11, 60384, Note_off_c, 9, 44, 64
11, 60480, Note_off_c, 9, 38, 64
11, 60480, Note_on_c, 9, 36, 110
11, 60480, Note_on_c, 9, 44, 64
11, 60576, Note_off_c, 9, 44, 64
11, 60672, Note_off_c, 9, 36, 64
11, 60672, Note_on_c, 9, 44, 110
11, 60768, Note_off_c, 9, 44, 64
11, 60864, Note_on_c, 9, 36, 110
11, 60864, Note_on_c, 9, 44, 96
11, 60960, Note_off_c, 9, 44, 64
11, 61056, Note_off_c, 9, 36, 64
11, 61056, Note_on_c, 9, 38, 110
11, 61056, Note_on_c, 9, 46, 110
11, 61248, Note_off_c, 9, 46, 64
11, 61248, Note_off_c, 9, 38, 64
11, 61248, Note_on_c, 9, 44, 64
11, 61344, Note_off_c, 9, 44, 64
11, 61440, Note_on_c, 9, 36, 110
11, 61440, Note_on_c, 9, 44, 110
11, 61536, Note_off_c, 9, 44, 64
11, 61632, Note_off_c, 9, 36, 64
11, 61632, Note_on_c, 9, 44, 96
11, 61728, Note_off_c, 9, 44, 64
11, 61824, Note_on_c, 9, 38, 110
11, 61824, Note_on_c, 9, 44, 64
11, 61920, Note_off_c, 9, 44, 64
11, 62016, Note_off_c, 9, 38, 64
11, 62016, Note_on_c, 9, 44, 110
11, 62112, Note_off_c, 9, 44, 64
11, 62208, Note_on_c, 9, 36, 110
11, 62208, Note_on_c, 9, 44, 96
11, 62304, Note_off_c, 9, 44, 64
11, 62400, Note_off_c, 9, 36, 64
11, 62400, Note_on_c, 9, 36, 110
11, 62400, Note_on_c, 9, 44, 64
11, 62496, Note_off_c, 9, 44, 64
11, 62592, Note_off_c, 9, 36, 64
11, 62592, Note_on_c, 9, 38, 110
11, 62592, Note_on_c, 9, 44, 110
11, 62688, Note_off_c, 9, 44, 64
11, 62784, Note_off_c, 9, 38, 64
11, 62784, Note_on_c, 9, 44, 96
11, 62880, Note_off_c, 9, 44, 64
11, 62976, Note_on_c, 9, 36, 110
11, 62976, Note_on_c, 9, 44, 64
11, 63072, Note_off_c, 9, 44, 64
11, 63168, Note_off_c, 9, 36, 64
11, 63168, Note_on_c, 9, 36, 110
11, 63168, Note_on_c, 9, 44, 110
11, 63264, Note_off_c, 9, 44, 64
11, 63360, Note_off_c, 9, 36, 64
11, 63360, Note_on_c, 9, 38, 110
11, 63360, Note_on_c, 9, 44, 96
11, 63456, Note_off_c, 9, 44, 64
11, 63552, Note_off_c, 9, 38, 64
11, 63552, Note_on_c, 9, 36, 110
11, 63552, Note_on_c, 9, 44, 64
11, 63648, Note_off_c, 9, 44, 64
11, 63744, Note_off_c, 9, 36, 64
11, 63744, Note_on_c, 9, 44, 110
11, 63840, Note_off_c, 9, 44, 64
11, 63936, Note_on_c, 9, 36, 110
11, 63936, Note_on_c, 9, 44, 96
11, 64032, Note_off_c, 9, 44, 64
11, 64128, Note_off_c, 9, 36, 64
11, 64128, Note_on_c, 9, 38, 110
11, 64128, Note_on_c, 9, 46, 110
11, 64320, Note_off_c, 9, 46, 64
11, 64320, Note_off_c, 9, 38, 64
11, 64320, Note_on_c, 9, 44, 64
11, 64416, Note_off_c, 9, 44, 64
11, 64512, Control_c, 9, 7, 100
11, 64512, Program_c, 9, 0
11, 64512, Note_on_c, 9, 44, 110
11, 64512, Note_on_c, 9, 36, 110
11, 64608, Note_off_c, 9, 44, 64
11, 64704, Note_off_c, 9, 36, 64
11, 64704, Note_on_c, 9, 44, 96
11, 64800, Note_off_c, 9, 44, 64
11, 64896, Note_on_c, 9, 38, 110
11, 64896, Note_on_c, 9, 44, 64
11, 64992, Note_off_c, 9, 44, 64
11, 65088, Note_off_c, 9, 38, 64
11, 65088, Note_on_c, 9, 44, 110
11, 65184, Note_off_c, 9, 44, 64
11, 65280, Note_on_c, 9, 36, 110
11, 65280, Note_on_c, 9, 44, 96
11, 65376, Note_off_c, 9, 44, 64
11, 65472, Note_off_c, 9, 36, 64
11, 65472, Note_on_c, 9, 36, 110
11, 65472, Note_on_c, 9, 44, 64
11, 65568, Note_off_c, 9, 44, 64
11, 65664, Note_off_c, 9, 36, 64
11, 65664, Note_on_c, 9, 38, 110
11, 65664, Note_on_c, 9, 44, 110
11, 65760, Note_off_c, 9, 44, 64
11, 65856, Note_off_c, 9, 38, 64
11, 65856, Note_on_c, 9, 44, 96
11, 65952, Note_off_c, 9, 44, 64
11, 66048, Note_on_c, 9, 36, 110
11, 66048, Note_on_c, 9, 44, 64
11, 66144, Note_off_c, 9, 44, 64
11, 66240, Note_off_c, 9, 36, 64
11, 66240, Note_on_c, 9, 36, 110
11, 66240, Note_on_c, 9, 44, 110
11, 66336, Note_off_c, 9, 44, 64
11, 66432, Note_off_c, 9, 36, 64
11, 66432, Note_on_c, 9, 38, 110
11, 66432, Note_on_c, 9, 44, 96
11, 66528, Note_off_c, 9, 44, 64
11, 66624, Note_off_c, 9, 38, 64
11, 66624, Note_on_c, 9, 36, 110
11, 66624, Note_on_c, 9, 44, 64
11, 66720, Note_off_c, 9, 44, 64
11, 66816, Note_off_c, 9, 36, 64
11, 66816, Note_on_c, 9, 44, 110
11, 66912, Note_off_c, 9, 44, 64
11, 67008, Note_on_c, 9, 36, 110
11, 67008, Note_on_c, 9, 44, 96
11, 67104, Note_off_c, 9, 44, 64
11, 67200, Note_off_c, 9, 36, 64
11, 67200, Note_on_c, 9, 38, 110
11, 67200, Note_on_c, 9, 46, 110
11, 67392, Note_off_c, 9, 46, 64
11, 67392, Note_off_c, 9, 38, 64
11, 67392, Note_on_c, 9, 44, 64
11, 67488, Note_off_c, 9, 44, 64
11, 67584, Note_on_c, 9, 36, 110
11, 67584, Note_on_c, 9, 44, 110
11, 67680, Note_off_c, 9, 44, 64
11, 67776, Note_off_c, 9, 36, 64
11, 67776, Note_on_c, 9, 44, 96
11, 67872, Note_off_c, 9, 44, 64
11, 67968, Note_on_c, 9, 38, 110
11, 67968, Note_on_c, 9, 44, 64
11, 68064, Note_off_c, 9, 44, 64
11, 68160, Note_off_c, 9, 38, 64
11, 68160, Note_on_c, 9, 44, 110
11, 68256, Note_off_c, 9, 44, 64
11, 68352, Note_on_c, 9, 36, 110
11, 68352, Note_on_c, 9, 44, 96
11, 68448, Note_off_c, 9, 44, 64
11, 68544, Note_off_c, 9, 36, 64
11, 68544, Note_on_c, 9, 36, 110
11, 68544, Note_on_c, 9, 44, 64
11, 68640, Note_off_c, 9, 44, 64
11, 68736, Note_off_c, 9, 36, 64
11, 68736, Note_on_c, 9, 38, 110
11, 68736, Note_on_c, 9, 44, 110
11, 68832, Note_off_c, 9, 44, 64
11, 68928, Note_off_c, 9, 38, 64
11, 68928, Note_on_c, 9, 44, 96
11, 69024, Note_off_c, 9, 44, 64
11, 69120, Note_on_c, 9, 36, 110
11, 69120, Note_on_c, 9, 44, 64
11, 69216, Note_off_c, 9, 44, 64
11, 69312, Note_off_c, 9, 36, 64
11, 69312, Note_on_c, 9, 36, 110
11, 69312, Note_on_c, 9, 44, 110
11, 69408, Note_off_c, 9, 44, 64
11, 69504, Note_off_c, 9, 36, 64
11, 69504, Note_on_c, 9, 38, 110
11, 69504, Note_on_c, 9, 44, 96
11, 69600, Note_off_c, 9, 44, 64
11, 69696, Note_off_c, 9, 38, 64
11, 69696, Note_on_c, 9, 36, 110
11, 69696, Note_on_c, 9, 44, 64
11, 69792, Note_off_c, 9, 44, 64
11, 69888, Note_off_c, 9, 36, 64
11, 69888, Note_on_c, 9, 44, 110
11, 69984, Note_off_c, 9, 44, 64
11, 70080, Note_on_c, 9, 36, 110
11, 70080, Note_on_c, 9, 44, 96
11, 70176, Note_off_c, 9, 44, 64
11, 70272, Note_off_c, 9, 36, 64
11, 70272, Note_on_c, 9, 38, 110
11, 70272, Note_on_c, 9, 46, 110
11, 70464, Note_off_c, 9, 46, 64
11, 70464, Note_off_c, 9, 38, 64
11, 70464, Note_on_c, 9, 44, 64
11, 70560, Note_off_c, 9, 44, 64
11, 70656, Control_c, 9, 7, 100
11, 70656, Program_c, 9, 0
11, 70656, Note_on_c, 9, 44, 110
11, 70656, Note_on_c, 9, 36, 110
11, 70752, Note_off_c, 9, 44, 64
11, 70848, Note_off_c, 9, 36, 64
11, 70848, Note_on_c, 9, 44, 96
11, 70944, Note_off_c, 9, 44, 64
11, 71040, Note_on_c, 9, 38, 110
11, 71040, Note_on_c, 9, 44, 64
11, 71136, Note_off_c, 9, 44, 64
11, 71232, Note_off_c, 9, 38, 64
11, 71232, Note_on_c, 9, 44, 110
11, 71328, Note_off_c, 9, 44, 64
11, 71424, Note_on_c, 9, 36, 110
11, 71424, Note_on_c, 9, 44, 96
11, 71520, Note_off_c, 9, 44, 64
11, 71616, Note_off_c, 9, 36, 64
11, 71616, Note_on_c, 9, 36, 110
11, 71616, Note_on_c, 9, 44, 64
11, 71712, Note_off_c, 9, 44, 64
11, 71808, Note_off_c, 9, 36, 64
11, 71808, Note_on_c, 9, 38, 110
11, 71808, Note_on_c, 9, 44, 110
11, 71904, Note_off_c, 9, 44, 64
11, 72000, Note_off_c, 9, 38, 64
11, 72000, Note_on_c, 9, 44, 96
11, 72096, Note_off_c, 9, 44, 64
11, 72192, Note_on_c, 9, 36, 110
11, 72192, Note_on_c, 9, 44, 64
11, 72288, Note_off_c, 9, 44, 64
11, 72384, Note_off_c, 9, 36, 64
11, 72384, Note_on_c, 9, 36, 110
11, 72384, Note_on_c, 9, 44, 110
11, 72480, Note_off_c, 9, 44, 64
11, 72576, Note_off_c, 9, 36, 64
11, 72576, Note_on_c, 9, 38, 110
11, 72576, Note_on_c, 9, 44, 96
11, 72672, Note_off_c, 9, 44, 64
11, 72768, Note_off_c, 9, 38, 64
11, 72768, Note_on_c, 9, 36, 110
11, 72768, Note_on_c, 9, 44, 64
11, 72864, Note_off_c, 9, 44, 64
11, 72960, Note_off_c, 9, 36, 64
11, 72960, Note_on_c, 9, 44, 110
11, 73056, Note_off_c, 9, 44, 64
11, 73152, Note_on_c, 9, 36, 110
11, 73152, Note_on_c, 9, 44, 96
11, 73248, Note_off_c, 9, 44, 64
11, 73344, Note_off_c, 9, 36, 64
11, 73344, Note_on_c, 9, 38, 110
11, 73344, Note_on_c, 9, 46, 110
11, 73536, Note_off_c, 9, 46, 64
11, 73536, Note_off_c, 9, 38, 64
11, 73536, Note_on_c, 9, 44, 64
11, 73632, Note_off_c, 9, 44, 64
11, 73728, Note_on_c, 9, 36, 110
11, 73728, Note_on_c, 9, 44, 110
11, 73824, Note_off_c, 9, 44, 64
11, 73920, Note_off_c, 9, 36, 64
11, 73920, Note_on_c, 9, 44, 96
11, 74016, Note_off_c, 9, 44, 64
11, 74112, Note_on_c, 9, 38, 110
11, 74112, Note_on_c, 9, 44, 64
11, 74208, Note_off_c, 9, 44, 64
11, 74304, Note_off_c, 9, 38, 64
11, 74304, Note_on_c, 9, 44, 110
11, 74400, Note_off_c, 9, 44, 64
11, 74496, Note_on_c, 9, 36, 110
11, 74496, Note_on_c, 9, 44, 96
11, 74592, Note_off_c, 9, 44, 64
11, 74688, Note_off_c, 9, 36, 64
11, 74688, Note_on_c, 9, 36, 110
11, 74688, Note_on_c, 9, 44, 64
11, 74784, Note_off_c, 9, 44, 64
11, 74880, Note_off_c, 9, 36, 64
11, 74880, Note_on_c, 9, 38, 110
11, 74880, Note_on_c, 9, 44, 110
11, 74976, Note_off_c, 9, 44, 64
11, 75072, Note_off_c, 9, 38, 64
11, 75072, Note_on_c, 9, 44, 96
11, 75168, Note_off_c, 9, 44, 64
11, 75264, Note_on_c, 9, 36, 110
11, 75264, Note_on_c, 9, 44, 64
11, 75360, Note_off_c, 9, 44, 64
11, 75456, Note_off_c, 9, 36, 64
11, 75456, Note_on_c, 9, 36, 110
11, 75456, Note_on_c, 9, 44, 110
11, 75552, Note_off_c, 9, 44, 64
11, 75648, Note_off_c, 9, 36, 64
11, 75648, Note_on_c, 9, 38, 110
11, 75648, Note_on_c, 9, 44, 96
11, 75744, Note_off_c, 9, 44, 64
11, 75840, Note_off_c, 9, 38, 64
11, 75840, Note_on_c, 9, 36, 110
11, 75840, Note_on_c, 9, 44, 64
11, 75936, Note_off_c, 9, 44, 64
11, 76032, Note_off_c, 9, 36, 64
11, 76032, Note_on_c, 9, 44, 110
11, 76128, Note_off_c, 9, 44, 64
11, 76224, Note_on_c, 9, 36, 110
11, 76224, Note_on_c, 9, 44, 96
11, 76320, Note_off_c, 9, 44, 64
11, 76416, Note_off_c, 9, 36, 64
11, 76416, Note_on_c, 9, 38, 110
11, 76416, Note_on_c, 9, 46, 110
11, 76608, Note_off_c, 9, 46, 64
11, 76608, Note_off_c, 9, 38, 64
11, 76608, Note_on_c, 9, 44, 64
11, 76704, Note_off_c, 9, 44, 64
11, 76800, Control_c, 9, 7, 100
11, 76800, Program_c, 9, 0
11, 76800, Note_on_c, 9, 36, 110
11, 76800, Note_on_c, 9, 49, 110
11, 76992, Note_off_c, 9, 36, 64
11, 77376, Note_on_c, 9, 57, 110
11, 77952, Note_off_c, 9, 49, 64
11, 77952, Note_on_c, 9, 49, 110
11, 78912, Note_off_c, 9, 57, 64
11, 79296, Note_on_c, 9, 36, 110
11, 79488, Note_off_c, 9, 36, 64
11, 79488, Note_off_c, 9, 49, 64
11, 79488, Note_on_c, 9, 38, 110
11, 79680, Note_off_c, 9, 38, 64
11, 79872, Note_on_c, 9, 59, 110
11, 79872, Note_on_c, 9, 36, 110
11, 80064, Note_off_c, 9, 36, 64
11, 80064, Note_off_c, 9, 59, 64
11, 80256, Note_on_c, 9, 59, 110
11, 80448, Note_off_c, 9, 59, 64
11, 80448, Note_on_c, 9, 36, 110
11, 80640, Note_off_c, 9, 36, 64
11, 80640, Note_on_c, 9, 59, 96
11, 80640, Note_on_c, 9, 38, 110
11, 80832, Note_off_c, 9, 38, 64
11, 80832, Note_off_c, 9, 59, 64
11, 80832, Note_on_c, 9, 59, 110
11, 81024, Note_off_c, 9, 59, 64
11, 81216, Note_on_c, 9, 59, 110
11, 81216, Note_on_c, 9, 36, 110
11, 81408, Note_off_c, 9, 36, 64
11, 81408, Note_off_c, 9, 59, 64
11, 81408, Note_on_c, 9, 36, 79
11, 81600, Note_off_c, 9, 36, 64
11, 81600, Note_on_c, 9, 59, 110
11, 81792, Note_off_c, 9, 59, 64
11, 81792, Note_on_c, 9, 36, 110
11, 81984, Note_off_c, 9, 36, 64
11, 81984, Note_on_c, 9, 59, 96
11, 82176, Note_off_c, 9, 59, 64
11, 82176, Note_on_c, 9, 59, 110
11, 82176, Note_on_c, 9, 38, 110
11, 82368, Note_off_c, 9, 38, 64
11, 82368, Note_off_c, 9, 59, 64
11, 82560, Note_on_c, 9, 59, 110
11, 82752, Note_off_c, 9, 59, 64
11, 82752, Note_on_c, 9, 36, 110
11, 82944, Note_off_c, 9, 36, 64
11, 82944, Note_on_c, 9, 59, 110
11, 83136, Note_off_c, 9, 59, 64
11, 83136, Note_on_c, 9, 36, 110
11, 83328, Note_off_c, 9, 36, 64
11, 83328, Note_on_c, 9, 59, 110
11, 83520, Note_off_c, 9, 59, 64
11, 83520, Note_on_c, 9, 36, 110
11, 83712, Note_off_c, 9, 36, 64
11, 83712, Note_on_c, 9, 59, 96
11, 83712, Note_on_c, 9, 38, 110
11, 83904, Note_off_c, 9, 38, 64
11, 83904, Note_off_c, 9, 59, 64
11, 83904, Note_on_c, 9, 59, 110
11, 84096, Note_off_c, 9, 59, 64
11, 84288, Note_on_c, 9, 59, 110
11, 84288, Note_on_c, 9, 36, 110
11, 84480, Note_off_c, 9, 36, 64
11, 84480, Note_off_c, 9, 59, 64
11, 84480, Note_on_c, 9, 36, 64
11, 84672, Note_off_c, 9, 36, 64
11, 84672, Note_on_c, 9, 59, 110
11, 84864, Note_off_c, 9, 59, 64
11, 84864, Note_on_c, 9, 36, 110
11, 85056, Note_off_c, 9, 36, 64
11, 85056, Note_on_c, 9, 59, 96
11, 85248, Note_off_c, 9, 59, 64
11, 85248, Note_on_c, 9, 59, 110
11, 85248, Note_on_c, 9, 38, 110
11, 85440, Note_off_c, 9, 38, 64
11, 85440, Note_off_c, 9, 59, 64
11, 85440, Note_on_c, 9, 36, 110
11, 85632, Note_off_c, 9, 36, 64
11, 85632, Note_on_c, 9, 59, 110
11, 85824, Note_off_c, 9, 59, 64
11, 85824, Note_on_c, 9, 36, 110
11, 86016, Note_off_c, 9, 36, 64
11, 86016, Control_c, 9, 7, 100
11, 86016, Program_c, 9, 0
11, 86016, Note_on_c, 9, 36, 110
11, 86016, Note_on_c, 9, 49, 110
11, 86208, Note_off_c, 9, 36, 64
11, 86592, Note_on_c, 9, 57, 110
11, 87168, Note_off_c, 9, 49, 64
11, 87168, Note_on_c, 9, 49, 110
11, 88128, Note_off_c, 9, 57, 64
11, 88512, Note_on_c, 9, 36, 110
11, 88704, Note_off_c, 9, 36, 64
11, 88704, Note_off_c, 9, 49, 64
11, 88704, Note_on_c, 9, 38, 110
11, 88896, Note_off_c, 9, 38, 64
11, 89088, Note_on_c, 9, 59, 110
11, 89088, Note_on_c, 9, 36, 110
11, 89280, Note_off_c, 9, 36, 64
11, 89280, Note_off_c, 9, 59, 64
11, 89472, Note_on_c, 9, 59, 110
11, 89664, Note_off_c, 9, 59, 64
11, 89664, Note_on_c, 9, 36, 110
11, 89856, Note_off_c, 9, 36, 64
11, 89856, Note_on_c, 9, 59, 96
11, 89856, Note_on_c, 9, 38, 110
11, 90048, Note_off_c, 9, 38, 64
11, 90048, Note_off_c, 9, 59, 64
11, 90048, Note_on_c, 9, 59, 110
11, 90240, Note_off_c, 9, 59, 64
11, 90432, Note_on_c, 9, 59, 110
11, 90432, Note_on_c, 9, 36, 110
11, 90624, Note_off_c, 9, 36, 64
11, 90624, Note_off_c, 9, 59, 64
11, 90624, Note_on_c, 9, 36, 79
11, 90816, Note_off_c, 9, 36, 64
11, 90816, Note_on_c, 9, 59, 110
11, 91008, Note_off_c, 9, 59, 64
11, 91008, Note_on_c, 9, 36, 110
11, 91200, Note_off_c, 9, 36, 64
11, 91200, Note_on_c, 9, 59, 96
11, 91392, Note_off_c, 9, 59, 64
11, 91392, Note_on_c, 9, 59, 110
11, 91392, Note_on_c, 9, 38, 110
11, 91584, Note_off_c, 9, 38, 64
11, 91584, Note_off_c, 9, 59, 64
11, 91776, Note_on_c, 9, 59, 110
11, 91968, Note_off_c, 9, 59, 64
11, 91968, Note_on_c, 9, 36, 110
11, 92160, Note_off_c, 9, 36, 64
11, 92160, Note_on_c, 9, 59, 110
11, 92352, Note_off_c, 9, 59, 64
11, 92352, Note_on_c, 9, 36, 110
11, 92544, Note_off_c, 9, 36, 64
11, 92544, Note_on_c, 9, 59, 110
11, 92736, Note_off_c, 9, 59, 64
11, 92736, Note_on_c, 9, 36, 110
11, 92928, Note_off_c, 9, 36, 64
11, 92928, Note_on_c, 9, 59, 96
11, 92928, Note_on_c, 9, 38, 110
11, 93120, Note_off_c, 9, 38, 64
11, 93120, Note_off_c, 9, 59, 64
11, 93120, Note_on_c, 9, 59, 110
11, 93312, Note_off_c, 9, 59, 64
11, 93504, Note_on_c, 9, 59, 110
11, 93504, Note_on_c, 9, 36, 110
11, 93696, Note_off_c, 9, 36, 64
11, 93696, Note_off_c, 9, 59, 64
11, 93696, Note_on_c, 9, 36, 64
11, 93888, Note_off_c, 9, 36, 64
11, 93888, Note_on_c, 9, 59, 110
11, 94080, Note_off_c, 9, 59, 64
11, 94080, Note_on_c, 9, 36, 110
11, 94272, Note_off_c, 9, 36, 64
11, 94272, Note_on_c, 9, 59, 96
11, 94464, Note_off_c, 9, 59, 64
11, 94464, Note_on_c, 9, 59, 110
11, 94464, Note_on_c, 9, 38, 110
11, 94656, Note_off_c, 9, 38, 64
11, 94656, Note_off_c, 9, 59, 64
11, 94656, Note_on_c, 9, 36, 110
11, 94848, Note_off_c, 9, 36, 64
11, 94848, Note_on_c, 9, 38, 110
11, 94848, Note_on_c, 9, 49, 110
11, 95040, Note_off_c, 9, 38, 64
11, 95232, Note_off_c, 9, 49, 64
11, 95232, Control_c, 9, 7, 100
11, 95232, Program_c, 9, 0
11, 95232, Note_on_c, 9, 36, 110
11, 95232, Note_on_c, 9, 46, 110
11, 95424, Note_off_c, 9, 46, 64
11, 95424, Note_off_c, 9, 36, 64
11, 95424, Note_on_c, 9, 44, 110
11, 95520, Note_off_c, 9, 44, 64
11, 95616, Note_on_c, 9, 38, 110
11, 95808, Note_off_c, 9, 38, 64
11, 95808, Note_on_c, 9, 36, 110
11, 95808, Note_on_c, 9, 44, 110
11, 95904, Note_off_c, 9, 44, 64
11, 96000, Note_off_c, 9, 36, 64
11, 96192, Note_on_c, 9, 36, 110
11, 96192, Note_on_c, 9, 44, 110
11, 96288, Note_off_c, 9, 44, 64
11, 96384, Note_off_c, 9, 36, 64
11, 96384, Note_on_c, 9, 38, 110
11, 96384, Note_on_c, 9, 44, 110
11, 96480, Note_off_c, 9, 44, 64
11, 96576, Note_off_c, 9, 38, 64
11, 96576, Note_on_c, 9, 44, 110
11, 96672, Note_off_c, 9, 44, 64
11, 96768, Note_on_c, 9, 46, 110
11, 96960, Note_off_c, 9, 46, 64
11, 96960, Note_on_c, 9, 36, 110
11, 96960, Note_on_c, 9, 44, 110
11, 97056, Note_off_c, 9, 44, 64
11, 97152, Note_off_c, 9, 36, 64
11, 97152, Note_on_c, 9, 38, 110
11, 97344, Note_off_c, 9, 38, 64
11, 97344, Note_on_c, 9, 36, 110
11, 97344, Note_on_c, 9, 44, 110
11, 97440, Note_off_c, 9, 44, 64
11, 97536, Note_off_c, 9, 36, 64
11, 97536, Note_on_c, 9, 36, 110
11, 97536, Note_on_c, 9, 46, 110
11, 97728, Note_off_c, 9, 46, 64
11, 97728, Note_off_c, 9, 36, 64
11, 97728, Note_on_c, 9, 44, 110
11, 97824, Note_off_c, 9, 44, 64
11, 97920, Note_on_c, 9, 38, 110
11, 98112, Note_off_c, 9, 38, 64
11, 98112, Note_on_c, 9, 36, 110
11, 98112, Note_on_c, 9, 44, 110
11, 98208, Note_off_c, 9, 44, 64
11, 98304, Note_off_c, 9, 36, 64
11, 98304, Note_on_c, 9, 36, 110
11, 98304, Note_on_c, 9, 46, 110
11, 98496, Note_off_c, 9, 46, 64
11, 98496, Note_off_c, 9, 36, 64
11, 98496, Note_on_c, 9, 44, 110
11, 98592, Note_off_c, 9, 44, 64
11, 98688, Note_on_c, 9, 38, 110
11, 98880, Note_off_c, 9, 38, 64
11, 98880, Note_on_c, 9, 36, 110
11, 98880, Note_on_c, 9, 44, 110
11, 98976, Note_off_c, 9, 44, 64
11, 99072, Note_off_c, 9, 36, 64
11, 99264, Note_on_c, 9, 36, 110
11, 99264, Note_on_c, 9, 44, 110
11, 99360, Note_off_c, 9, 44, 64
11, 99456, Note_off_c, 9, 36, 64
11, 99456, Note_on_c, 9, 38, 110
11, 99456, Note_on_c, 9, 44, 110
11, 99552, Note_off_c, 9, 44, 64
11, 99648, Note_off_c, 9, 38, 64
11, 99648, Note_on_c, 9, 44, 110
11, 99744, Note_off_c, 9, 44, 64
11, 99840, Note_on_c, 9, 46, 110
11, 100032, Note_off_c, 9, 46, 64
11, 100032, Note_on_c, 9, 36, 110
11, 100032, Note_on_c, 9, 44, 110
11, 100128, Note_off_c, 9, 44, 64
11, 100224, Note_off_c, 9, 36, 64
11, 100224, Note_on_c, 9, 38, 110
11, 100416, Note_off_c, 9, 38, 64
11, 100416, Note_on_c, 9, 36, 110
11, 100416, Note_on_c, 9, 44, 110
11, 100512, Note_off_c, 9, 44, 64
11, 100608, Note_off_c, 9, 36, 64
11, 100608, Note_on_c, 9, 36, 110
11, 100608, Note_on_c, 9, 46, 110
11, 100800, Note_off_c, 9, 46, 64
11, 100800, Note_off_c, 9, 36, 64
11, 100800, Note_on_c, 9, 44, 110
11, 100896, Note_off_c, 9, 44, 64
11, 100992, Note_on_c, 9, 38, 110
11, 101184, Note_off_c, 9, 38, 64
11, 101184, Note_on_c, 9, 36, 110
11, 101184, Note_on_c, 9, 44, 110
11, 101280, Note_off_c, 9, 44, 64
11, 101376, Note_off_c, 9, 36, 64
11, 101376, Control_c, 9, 7, 100
11, 101376, Program_c, 9, 0
11, 101376, Note_on_c, 9, 36, 110
11, 101376, Note_on_c, 9, 57, 110
11, 101568, Note_off_c, 9, 36, 64
11, 102912, Note_off_c, 9, 57, 64
11, 103680, Note_on_c, 9, 41, 81
11, 103808, Note_off_c, 9, 41, 64
11, 103808, Note_on_c, 9, 41, 87
11, 103936, Note_off_c, 9, 41, 64
11, 103936, Note_on_c, 9, 41, 94
11, 104064, Note_off_c, 9, 41, 64
11, 104064, Note_on_c, 9, 41, 101
11, 104192, Note_off_c, 9, 41, 64
11, 104192, Note_on_c, 9, 41, 108
11, 104320, Note_off_c, 9, 41, 64
11, 104320, Note_on_c, 9, 41, 114
11, 104448, Note_off_c, 9, 41, 64
11, 104448, Note_on_c, 9, 57, 110
11, 104448, Note_on_c, 9, 36, 110
11, 104640, Note_off_c, 9, 36, 64
11, 105792, Note_on_c, 9, 53, 101
11, 105856, Note_off_c, 9, 53, 64
11, 105856, Note_on_c, 9, 53, 105
11, 105920, Note_off_c, 9, 53, 64
11, 105920, Note_on_c, 9, 53, 108
11, 105984, Note_off_c, 9, 53, 64
11, 105984, Note_off_c, 9, 57, 64
11, 105984, Note_on_c, 9, 53, 112
11, 106176, Note_off_c, 9, 53, 64
11, 106560, Note_on_c, 9, 53, 101
11, 106624, Note_off_c, 9, 53, 64
11, 106624, Note_on_c, 9, 53, 105
11, 106688, Note_off_c, 9, 53, 64
11, 106688, Note_on_c, 9, 53, 108
11, 106752, Note_off_c, 9, 53, 64
11, 106752, Note_on_c, 9, 53, 112
11, 106944, Note_off_c, 9, 53, 64
11, 106944, Note_on_c, 9, 53, 110
11, 107136, Note_off_c, 9, 53, 64
11, 107328, Note_on_c, 9, 53, 110
11, 107520, Note_off_c, 9, 53, 64
11, 107520, Control_c, 9, 7, 100
11, 107520, Program_c, 9, 0
11, 107520, Note_on_c, 9, 36, 110
11, 107520, Note_on_c, 9, 57, 110
11, 107712, Note_off_c, 9, 36, 64
11, 109056, Note_off_c, 9, 57, 64
11, 109824, Note_on_c, 9, 41, 81
11, 109952, Note_off_c, 9, 41, 64
11, 109952, Note_on_c, 9, 41, 87
11, 110080, Note_off_c, 9, 41, 64
11, 110080, Note_on_c, 9, 41, 94
11, 110208, Note_off_c, 9, 41, 64
11, 110208, Note_on_c, 9, 41, 101
11, 110336, Note_off_c, 9, 41, 64
11, 110336, Note_on_c, 9, 41, 108
11, 110464, Note_off_c, 9, 41, 64
11, 110464, Note_on_c, 9, 41, 114
11, 110592, Note_off_c, 9, 41, 64
11, 110592, Note_on_c, 9, 36, 110
11, 110592, Note_on_c, 9, 57, 110
11, 110784, Note_off_c, 9, 36, 64
11, 112080, Note_on_c, 9, 45, 105
11, 112128, Note_off_c, 9, 45, 64
11, 112128, Note_off_c, 9, 57, 64
11, 112128, Note_on_c, 9, 45, 101
11, 112128, Note_on_c, 9, 35, 110
11, 112176, Note_off_c, 9, 45, 64
11, 112224, Note_off_c, 9, 35, 64
11, 112320, Note_on_c, 9, 47, 110
11, 112320, Note_on_c, 9, 36, 110
11, 112416, Note_off_c, 9, 36, 64
11, 112416, Note_off_c, 9, 47, 64
11, 112704, Note_on_c, 9, 47, 110
11, 112704, Note_on_c, 9, 36, 110
11, 112800, Note_off_c, 9, 36, 64
11, 112800, Note_off_c, 9, 47, 64
11, 112848, Note_on_c, 9, 45, 105
11, 112896, Note_off_c, 9, 45, 64
11, 112896, Note_on_c, 9, 45, 101
11, 112896, Note_on_c, 9, 35, 110
11, 112944, Note_off_c, 9, 45, 64
11, 112992, Note_off_c, 9, 35, 64
11, 113088, Note_on_c, 9, 47, 110
11, 113088, Note_on_c, 9, 36, 110
11, 113184, Note_off_c, 9, 36, 64
11, 113184, Note_off_c, 9, 47, 64
11, 113280, Note_on_c, 9, 45, 110
11, 113280, Note_on_c, 9, 36, 110
11, 113280, Note_on_c, 9, 57, 110
11, 113376, Note_off_c, 9, 36, 64
11, 113376, Note_off_c, 9, 45, 64
11, 113664, Note_off_c, 9, 57, 64
11, 113664, Control_c, 9, 7, 100
11, 113664, Program_c, 9, 0
11, 113664, Control_c, 9, 10, 64
11, 113664, Control_c, 9, 91, 73
11, 113664, Note_on_c, 9, 46, 98
11, 113664, Note_on_c, 9, 57, 110
11, 113664, Note_on_c, 9, 36, 110
11, 113856, Note_off_c, 9, 36, 64
11, 113856, Note_off_c, 9, 46, 64
11, 113856, Note_on_c, 9, 44, 64
11, 113952, Note_off_c, 9, 44, 64
11, 114048, Note_on_c, 9, 44, 64
11, 114144, Note_off_c, 9, 44, 64
11, 114240, Note_on_c, 9, 46, 97
11, 114240, Note_on_c, 9, 36, 110
11, 114432, Note_off_c, 9, 36, 64
11, 114432, Note_off_c, 9, 46, 64
11, 114432, Note_on_c, 9, 44, 78
11, 114528, Note_off_c, 9, 44, 64
11, 114624, Note_on_c, 9, 44, 78
11, 114720, Note_off_c, 9, 44, 64
11, 114816, Note_off_c, 9, 57, 64
11, 114816, Note_on_c, 9, 46, 98
11, 114816, Note_on_c, 9, 36, 110
11, 115008, Note_off_c, 9, 36, 64
11, 115008, Note_off_c, 9, 46, 64
11, 115008, Note_on_c, 9, 44, 64
11, 115104, Note_off_c, 9, 44, 64
11, 115200, Note_on_c, 9, 44, 78
11, 115296, Note_off_c, 9, 44, 64
11, 115392, Note_on_c, 9, 44, 64
11, 115488, Note_off_c, 9, 44, 64
11, 115584, Note_on_c, 9, 44, 78
11, 115680, Note_off_c, 9, 44, 64
11, 115776, Note_on_c, 9, 44, 64
11, 115872, Note_off_c, 9, 44, 64
11, 115968, Note_on_c, 9, 46, 98
11, 115968, Note_on_c, 9, 36, 110
11, 116160, Note_off_c, 9, 36, 64
11, 116160, Note_off_c, 9, 46, 64
11, 116160, Note_on_c, 9, 44, 64
11, 116256, Note_off_c, 9, 44, 64
11, 116352, Note_on_c, 9, 44, 64
11, 116448, Note_off_c, 9, 44, 64
11, 116544, Note_on_c, 9, 46, 97
11, 116544, Note_on_c, 9, 36, 110
11, 116736, Note_off_c, 9, 36, 64
11, 116736, Note_off_c, 9, 46, 64
11, 116736, Note_on_c, 9, 44, 78
11, 116832, Note_off_c, 9, 44, 64
11, 116928, Note_on_c, 9, 44, 78
11, 117024, Note_off_c, 9, 44, 64
11, 117120, Note_on_c, 9, 46, 98
11, 117120, Note_on_c, 9, 36, 110
11, 117312, Note_off_c, 9, 36, 64
11, 117312, Note_off_c, 9, 46, 64
11, 117312, Note_on_c, 9, 44, 64
11, 117408, Note_off_c, 9, 44, 64
11, 117504, Note_on_c, 9, 44, 78
11, 117600, Note_off_c, 9, 44, 64
11, 117696, Note_on_c, 9, 44, 64
11, 117792, Note_off_c, 9, 44, 64
11, 117888, Note_on_c, 9, 44, 78
11, 117984, Note_off_c, 9, 44, 64
11, 118080, Note_on_c, 9, 44, 64
11, 118176, Note_off_c, 9, 44, 64
11, 118272, Control_c, 9, 7, 100
11, 118272, Program_c, 9, 0
11, 118272, Note_on_c, 9, 46, 98
11, 118272, Note_on_c, 9, 36, 110
11, 118464, Note_off_c, 9, 36, 64
11, 118464, Note_off_c, 9, 46, 64
11, 118464, Note_on_c, 9, 44, 64
11, 118560, Note_off_c, 9, 44, 64
11, 118656, Note_on_c, 9, 44, 64
11, 118752, Note_off_c, 9, 44, 64
11, 118848, Note_on_c, 9, 46, 97
11, 118848, Note_on_c, 9, 36, 110
11, 119040, Note_off_c, 9, 36, 64
11, 119040, Note_off_c, 9, 46, 64
11, 119040, Note_on_c, 9, 44, 78
11, 119136, Note_off_c, 9, 44, 64
11, 119232, Note_on_c, 9, 44, 78
11, 119328, Note_off_c, 9, 44, 64
11, 119424, Note_on_c, 9, 46, 98
11, 119424, Note_on_c, 9, 36, 110
11, 119616, Note_off_c, 9, 36, 64
11, 119616, Note_off_c, 9, 46, 64
11, 119616, Note_on_c, 9, 44, 64
11, 119712, Note_off_c, 9, 44, 64
11, 119808, Note_on_c, 9, 44, 78
11, 119904, Note_off_c, 9, 44, 64
11, 120000, Note_on_c, 9, 44, 64
11, 120096, Note_off_c, 9, 44, 64
11, 120192, Note_on_c, 9, 44, 78
11, 120288, Note_off_c, 9, 44, 64
11, 120384, Note_on_c, 9, 44, 64
11, 120480, Note_off_c, 9, 44, 64
11, 120576, Note_on_c, 9, 46, 98
11, 120576, Note_on_c, 9, 36, 110
11, 120768, Note_off_c, 9, 36, 64
11, 120768, Note_off_c, 9, 46, 64
11, 120768, Note_on_c, 9, 44, 64
11, 120864, Note_off_c, 9, 44, 64
11, 120960, Note_on_c, 9, 44, 64
11, 121056, Note_off_c, 9, 44, 64
11, 121152, Note_on_c, 9, 46, 97
11, 121152, Note_on_c, 9, 36, 110
11, 121344, Note_off_c, 9, 36, 64
11, 121344, Note_off_c, 9, 46, 64
11, 121344, Note_on_c, 9, 44, 78
11, 121440, Note_off_c, 9, 44, 64
11, 121536, Note_on_c, 9, 44, 78
11, 121632, Note_off_c, 9, 44, 64
11, 121728, Note_on_c, 9, 46, 98
11, 121728, Note_on_c, 9, 36, 110
11, 121920, Note_off_c, 9, 36, 64
11, 121920, Note_off_c, 9, 46, 64
11, 121920, Note_on_c, 9, 44, 64
11, 122016, Note_off_c, 9, 44, 64
11, 122112, Note_on_c, 9, 44, 78
11, 122208, Note_off_c, 9, 44, 64
11, 122304, Note_on_c, 9, 44, 64
11, 122400, Note_off_c, 9, 44, 64
11, 122496, Note_on_c, 9, 44, 78
11, 122592, Note_off_c, 9, 44, 64
11, 122688, Note_on_c, 9, 44, 64
11, 122784, Note_off_c, 9, 44, 64
11, 122880, Control_c, 9, 7, 100
11, 122880, Program_c, 9, 0
11, 122880, Note_on_c, 9, 44, 110
11, 122880, Note_on_c, 9, 57, 110
11, 122880, Note_on_c, 9, 36, 110
11, 122976, Note_off_c, 9, 44, 64
11, 123072, Note_off_c, 9, 36, 64
11, 123072, Note_on_c, 9, 44, 96
11, 123168, Note_off_c, 9, 44, 64
11, 123264, Note_on_c, 9, 44, 64
11, 123360, Note_off_c, 9, 44, 64
11, 123456, Note_on_c, 9, 38, 110
11, 123456, Note_on_c, 9, 44, 110
11, 123552, Note_off_c, 9, 44, 64
11, 123648, Note_off_c, 9, 38, 64
11, 123648, Note_on_c, 9, 44, 96
11, 123744, Note_off_c, 9, 44, 64
11, 123840, Note_on_c, 9, 44, 64
11, 123936, Note_off_c, 9, 44, 64
11, 124032, Note_off_c, 9, 57, 64
11, 124032, Note_on_c, 9, 44, 110
11, 124032, Note_on_c, 9, 36, 110
11, 124128, Note_off_c, 9, 44, 64
11, 124224, Note_off_c, 9, 36, 64
11, 124224, Note_on_c, 9, 44, 96
11, 124320, Note_off_c, 9, 44, 64
11, 124416, Note_on_c, 9, 44, 64
11, 124512, Note_off_c, 9, 44, 64
11, 124608, Note_on_c, 9, 38, 110
11, 124608, Note_on_c, 9, 44, 110
11, 124704, Note_off_c, 9, 44, 64
11, 124800, Note_off_c, 9, 38, 64
11, 124800, Note_on_c, 9, 44, 96
11, 124896, Note_off_c, 9, 44, 64
11, 124992, Note_on_c, 9, 44, 64
11, 125088, Note_off_c, 9, 44, 64
11, 125184, Note_on_c, 9, 44, 110
11, 125184, Note_on_c, 9, 36, 110
11, 125280, Note_off_c, 9, 44, 64
11, 125376, Note_off_c, 9, 36, 64
11, 125376, Note_on_c, 9, 44, 96
11, 125472, Note_off_c, 9, 44, 64
11, 125568, Note_on_c, 9, 38, 110
11, 125568, Note_on_c, 9, 46, 110
11, 125760, Note_off_c, 9, 46, 64
11, 125760, Note_off_c, 9, 38, 64
11, 125760, Note_on_c, 9, 44, 64
11, 125856, Note_off_c, 9, 44, 64
11, 125952, Note_on_c, 9, 44, 110
11, 125952, Note_on_c, 9, 36, 110
11, 126048, Note_off_c, 9, 44, 64
11, 126144, Note_off_c, 9, 36, 64
11, 126144, Note_on_c, 9, 44, 96
11, 126240, Note_off_c, 9, 44, 64
11, 126336, Note_on_c, 9, 44, 64
11, 126432, Note_off_c, 9, 44, 64
11, 126528, Note_on_c, 9, 38, 110
11, 126528, Note_on_c, 9, 44, 110
11, 126624, Note_off_c, 9, 44, 64
11, 126720, Note_off_c, 9, 38, 64
11, 126720, Note_on_c, 9, 44, 96
11, 126816, Note_off_c, 9, 44, 64
11, 126912, Note_on_c, 9, 44, 64
11, 127008, Note_off_c, 9, 44, 64
11, 127104, Note_on_c, 9, 44, 110
11, 127104, Note_on_c, 9, 36, 110
11, 127200, Note_off_c, 9, 44, 64
11, 127296, Note_off_c, 9, 36, 64
11, 127296, Note_on_c, 9, 44, 96
11, 127392, Note_off_c, 9, 44, 64
11, 127488, Note_on_c, 9, 44, 64
11, 127584, Note_off_c, 9, 44, 64
11, 127680, Note_on_c, 9, 38, 110
11, 127680, Note_on_c, 9, 44, 110
11, 127776, Note_off_c, 9, 44, 64
11, 127872, Note_off_c, 9, 38, 64
11, 127872, Note_on_c, 9, 44, 96
11, 127968, Note_off_c, 9, 44, 64
11, 128064, Note_on_c, 9, 44, 64
11, 128160, Note_off_c, 9, 44, 64
11, 128256, Note_on_c, 9, 44, 110
11, 128256, Note_on_c, 9, 36, 110
11, 128352, Note_off_c, 9, 44, 64
11, 128448, Note_off_c, 9, 36, 64
11, 128448, Note_on_c, 9, 44, 96
11, 128544, Note_off_c, 9, 44, 64
11, 128640, Note_on_c, 9, 38, 110
11, 128640, Note_on_c, 9, 46, 110
11, 128832, Note_off_c, 9, 46, 64
11, 128832, Note_off_c, 9, 38, 64
11, 128832, Note_on_c, 9, 44, 64
11, 128928, Note_off_c, 9, 44, 64
11, 129024, Control_c, 9, 7, 100
11, 129024, Program_c, 9, 0
11, 129024, Note_on_c, 9, 44, 110
11, 129024, Note_on_c, 9, 36, 110
11, 129120, Note_off_c, 9, 44, 64
11, 129216, Note_off_c, 9, 36, 64
11, 129216, Note_on_c, 9, 44, 96
11, 129312, Note_off_c, 9, 44, 64
11, 129408, Note_on_c, 9, 44, 64
11, 129504, Note_off_c, 9, 44, 64
11, 129600, Note_on_c, 9, 38, 110
11, 129600, Note_on_c, 9, 44, 110
11, 129696, Note_off_c, 9, 44, 64
11, 129792, Note_off_c, 9, 38, 64
11, 129792, Note_on_c, 9, 44, 96
11, 129888, Note_off_c, 9, 44, 64
11, 129984, Note_on_c, 9, 44, 64
11, 130080, Note_off_c, 9, 44, 64
11, 130176, Note_on_c, 9, 44, 110
11, 130176, Note_on_c, 9, 36, 110
11, 130272, Note_off_c, 9, 44, 64
11, 130368, Note_off_c, 9, 36, 64
11, 130368, Note_on_c, 9, 44, 96
11, 130464, Note_off_c, 9, 44, 64
11, 130560, Note_on_c, 9, 44, 64
11, 130656, Note_off_c, 9, 44, 64
11, 130752, Note_on_c, 9, 38, 110
11, 130752, Note_on_c, 9, 44, 110
11, 130848, Note_off_c, 9, 44, 64
11, 130944, Note_off_c, 9, 38, 64
11, 130944, Note_on_c, 9, 44, 96
11, 131040, Note_off_c, 9, 44, 64
11, 131136, Note_on_c, 9, 44, 64
11, 131232, Note_off_c, 9, 44, 64
11, 131328, Note_on_c, 9, 44, 110
11, 131328, Note_on_c, 9, 36, 110
11, 131424, Note_off_c, 9, 44, 64
11, 131520, Note_off_c, 9, 36, 64
11, 131520, Note_on_c, 9, 44, 96
11, 131616, Note_off_c, 9, 44, 64
11, 131712, Note_on_c, 9, 38, 110
11, 131712, Note_on_c, 9, 46, 110
11, 131904, Note_off_c, 9, 46, 64
11, 131904, Note_off_c, 9, 38, 64
11, 131904, Note_on_c, 9, 44, 64
11, 132000, Note_off_c, 9, 44, 64
11, 132096, Note_on_c, 9, 44, 110
11, 132096, Note_on_c, 9, 36, 110
11, 132192, Note_off_c, 9, 44, 64
11, 132288, Note_off_c, 9, 36, 64
11, 132288, Note_on_c, 9, 44, 96
11, 132384, Note_off_c, 9, 44, 64
11, 132480, Note_on_c, 9, 44, 64
11, 132576, Note_off_c, 9, 44, 64
11, 132672, Note_on_c, 9, 38, 110
11, 132672, Note_on_c, 9, 44, 110
11, 132768, Note_off_c, 9, 44, 64
11, 132864, Note_off_c, 9, 38, 64
11, 132864, Note_on_c, 9, 44, 96
11, 132960, Note_off_c, 9, 44, 64
11, 133056, Note_on_c, 9, 44, 64
11, 133152, Note_off_c, 9, 44, 64
11, 133248, Note_on_c, 9, 44, 110
11, 133248, Note_on_c, 9, 36, 110
11, 133344, Note_off_c, 9, 44, 64
11, 133440, Note_off_c, 9, 36, 64
11, 133440, Note_on_c, 9, 44, 96
11, 133536, Note_off_c, 9, 44, 64
11, 133632, Note_on_c, 9, 44, 64
11, 133728, Note_off_c, 9, 44, 64
11, 133824, Note_on_c, 9, 38, 110
11, 133824, Note_on_c, 9, 44, 110
11, 133920, Note_off_c, 9, 44, 64
11, 134016, Note_off_c, 9, 38, 64
11, 134016, Note_on_c, 9, 44, 96
11, 134112, Note_off_c, 9, 44, 64
11, 134208, Note_on_c, 9, 44, 64
11, 134304, Note_off_c, 9, 44, 64
11, 134400, Note_on_c, 9, 44, 110
11, 134400, Note_on_c, 9, 36, 110
11, 134496, Note_off_c, 9, 44, 64
11, 134592, Note_off_c, 9, 36, 64
11, 134592, Note_on_c, 9, 44, 96
11, 134688, Note_off_c, 9, 44, 64
11, 134784, Note_on_c, 9, 38, 110
11, 134784, Note_on_c, 9, 46, 110
11, 134976, Note_off_c, 9, 46, 64
11, 134976, Note_off_c, 9, 38, 64
11, 134976, Note_on_c, 9, 44, 64
11, 135072, Note_off_c, 9, 44, 64
11, 135168, Control_c, 9, 7, 100
11, 135168, Program_c, 9, 0
11, 135168, Note_on_c, 9, 44, 110
11, 135168, Note_on_c, 9, 36, 110
11, 135264, Note_off_c, 9, 44, 64
11, 135360, Note_off_c, 9, 36, 64
11, 135360, Note_on_c, 9, 44, 96
11, 135456, Note_off_c, 9, 44, 64
11, 135552, Note_on_c, 9, 44, 64
11, 135648, Note_off_c, 9, 44, 64
11, 135744, Note_on_c, 9, 38, 110
11, 135744, Note_on_c, 9, 44, 110
11, 135840, Note_off_c, 9, 44, 64
11, 135936, Note_off_c, 9, 38, 64
11, 135936, Note_on_c, 9, 44, 96
11, 136032, Note_off_c, 9, 44, 64
11, 136128, Note_on_c, 9, 44, 64
11, 136224, Note_off_c, 9, 44, 64
11, 136320, Note_on_c, 9, 44, 110
11, 136320, Note_on_c, 9, 36, 110
11, 136416, Note_off_c, 9, 44, 64
11, 136512, Note_off_c, 9, 36, 64
11, 136512, Note_on_c, 9, 44, 96
11, 136608, Note_off_c, 9, 44, 64
11, 136704, Note_on_c, 9, 44, 64
11, 136800, Note_off_c, 9, 44, 64
11, 136896, Note_on_c, 9, 38, 110
11, 136896, Note_on_c, 9, 44, 110
11, 136992, Note_off_c, 9, 44, 64
11, 137088, Note_off_c, 9, 38, 64
11, 137088, Note_on_c, 9, 44, 96
11, 137184, Note_off_c, 9, 44, 64
11, 137280, Note_on_c, 9, 44, 64
11, 137376, Note_off_c, 9, 44, 64
11, 137472, Note_on_c, 9, 44, 110
11, 137472, Note_on_c, 9, 36, 110
11, 137568, Note_off_c, 9, 44, 64
11, 137664, Note_off_c, 9, 36, 64
11, 137664, Note_on_c, 9, 44, 96
11, 137760, Note_off_c, 9, 44, 64
11, 137856, Note_on_c, 9, 38, 110
11, 137856, Note_on_c, 9, 46, 110
11, 138048, Note_off_c, 9, 46, 64
11, 138048, Note_off_c, 9, 38, 64
11, 138048, Note_on_c, 9, 44, 64
11, 138144, Note_off_c, 9, 44, 64
11, 138240, Note_on_c, 9, 44, 110
11, 138240, Note_on_c, 9, 36, 110
11, 138336, Note_off_c, 9, 44, 64
11, 138432, Note_off_c, 9, 36, 64
11, 138432, Note_on_c, 9, 44, 96
11, 138528, Note_off_c, 9, 44, 64
11, 138624, Note_on_c, 9, 44, 64
11, 138720, Note_off_c, 9, 44, 64
11, 138816, Note_on_c, 9, 38, 110
11, 138816, Note_on_c, 9, 44, 110
11, 138912, Note_off_c, 9, 44, 64
11, 139008, Note_off_c, 9, 38, 64
11, 139008, Note_on_c, 9, 44, 96
11, 139104, Note_off_c, 9, 44, 64
11, 139200, Note_on_c, 9, 44, 64
11, 139296, Note_off_c, 9, 44, 64
11, 139392, Note_on_c, 9, 44, 110
11, 139392, Note_on_c, 9, 36, 110
11, 139488, Note_off_c, 9, 44, 64
11, 139584, Note_off_c, 9, 36, 64
11, 139584, Note_on_c, 9, 44, 96
11, 139680, Note_off_c, 9, 44, 64
11, 139776, Note_on_c, 9, 44, 64
11, 139872, Note_off_c, 9, 44, 64
11, 139968, Note_on_c, 9, 38, 110
11, 139968, Note_on_c, 9, 44, 110
11, 140064, Note_off_c, 9, 44, 64
11, 140160, Note_off_c, 9, 38, 64
11, 140160, Note_on_c, 9, 44, 96
11, 140256, Note_off_c, 9, 44, 64
11, 140352, Note_on_c, 9, 44, 64
11, 140448, Note_off_c, 9, 44, 64
11, 140544, Note_on_c, 9, 44, 110
11, 140544, Note_on_c, 9, 36, 110
11, 140640, Note_off_c, 9, 44, 64
11, 140736, Note_off_c, 9, 36, 64
11, 140736, Note_on_c, 9, 44, 96
11, 140832, Note_off_c, 9, 44, 64
11, 140928, Note_on_c, 9, 38, 110
11, 140928, Note_on_c, 9, 46, 110
11, 141120, Note_off_c, 9, 46, 64
11, 141120, Note_off_c, 9, 38, 64
11, 141120, Note_on_c, 9, 44, 64
11, 141216, Note_off_c, 9, 44, 64
11, 141312, Control_c, 9, 7, 100
11, 141312, Program_c, 9, 0
11, 141312, Note_on_c, 9, 44, 110
11, 141312, Note_on_c, 9, 36, 110
11, 141408, Note_off_c, 9, 44, 64
11, 141504, Note_off_c, 9, 36, 64
11, 141504, Note_on_c, 9, 44, 96
11, 141600, Note_off_c, 9, 44, 64
11, 141696, Note_on_c, 9, 44, 64
11, 141792, Note_off_c, 9, 44, 64
11, 141888, Note_on_c, 9, 38, 110
11, 141888, Note_on_c, 9, 44, 110
11, 141984, Note_off_c, 9, 44, 64
11, 142080, Note_off_c, 9, 38, 64
11, 142080, Note_on_c, 9, 44, 96
11, 142176, Note_off_c, 9, 44, 64
11, 142272, Note_on_c, 9, 44, 64
11, 142368, Note_off_c, 9, 44, 64
11, 142464, Note_on_c, 9, 44, 110
11, 142464, Note_on_c, 9, 36, 110
11, 142560, Note_off_c, 9, 44, 64
11, 142656, Note_off_c, 9, 36, 64
11, 142656, Note_on_c, 9, 44, 96
11, 142752, Note_off_c, 9, 44, 64
11, 142848, Note_on_c, 9, 44, 64
11, 142944, Note_off_c, 9, 44, 64
11, 143040, Note_on_c, 9, 38, 110
11, 143040, Note_on_c, 9, 44, 110
11, 143136, Note_off_c, 9, 44, 64
11, 143232, Note_off_c, 9, 38, 64
11, 143232, Note_on_c, 9, 44, 96
11, 143328, Note_off_c, 9, 44, 64
11, 143424, Note_on_c, 9, 44, 64
11, 143520, Note_off_c, 9, 44, 64
11, 143616, Note_on_c, 9, 44, 110
11, 143616, Note_on_c, 9, 36, 110
11, 143712, Note_off_c, 9, 44, 64
11, 143808, Note_off_c, 9, 36, 64
11, 143808, Note_on_c, 9, 44, 96
11, 143904, Note_off_c, 9, 44, 64
11, 144000, Note_on_c, 9, 38, 110
11, 144000, Note_on_c, 9, 46, 110
11, 144192, Note_off_c, 9, 46, 64
11, 144192, Note_off_c, 9, 38, 64
11, 144192, Note_on_c, 9, 44, 64
11, 144288, Note_off_c, 9, 44, 64
11, 144384, Note_on_c, 9, 44, 110
11, 144384, Note_on_c, 9, 36, 110
11, 144480, Note_off_c, 9, 44, 64
11, 144576, Note_off_c, 9, 36, 64
11, 144576, Note_on_c, 9, 44, 96
11, 144672, Note_off_c, 9, 44, 64
11, 144768, Note_on_c, 9, 44, 64
11, 144864, Note_off_c, 9, 44, 64
11, 144960, Note_on_c, 9, 38, 110
11, 144960, Note_on_c, 9, 44, 110
11, 145056, Note_off_c, 9, 44, 64
11, 145152, Note_off_c, 9, 38, 64
11, 145152, Note_on_c, 9, 44, 96
11, 145248, Note_off_c, 9, 44, 64
11, 145344, Note_on_c, 9, 44, 64
11, 145440, Note_off_c, 9, 44, 64
11, 145536, Note_on_c, 9, 44, 110
11, 145536, Note_on_c, 9, 36, 110
11, 145632, Note_off_c, 9, 44, 64
11, 145728, Note_off_c, 9, 36, 64
11, 145728, Note_on_c, 9, 44, 96
11, 145824, Note_off_c, 9, 44, 64
11, 145920, Note_on_c, 9, 36, 110
11, 145920, Note_on_c, 9, 44, 64
11, 146016, Note_off_c, 9, 44, 64
11, 146112, Note_off_c, 9, 36, 64
11, 146112, Note_on_c, 9, 44, 110
11, 146208, Note_off_c, 9, 44, 64
11, 146304, Note_on_c, 9, 38, 110
11, 146304, Note_on_c, 9, 44, 96
11, 146400, Note_off_c, 9, 44, 64
11, 146496, Note_off_c, 9, 38, 64
11, 146496, Note_on_c, 9, 36, 110
11, 146496, Note_on_c, 9, 44, 64
11, 146592, Note_off_c, 9, 44, 64
11, 146688, Note_off_c, 9, 36, 64
11, 146688, Note_on_c, 9, 44, 110
11, 146784, Note_off_c, 9, 44, 64
11, 146880, Note_on_c, 9, 44, 96
11, 146976, Note_off_c, 9, 44, 64
11, 147072, Note_on_c, 9, 38, 110
11, 147072, Note_on_c, 9, 46, 110
11, 147264, Note_off_c, 9, 46, 64
11, 147264, Note_off_c, 9, 38, 64
11, 147264, Note_on_c, 9, 44, 64
11, 147360, Note_off_c, 9, 44, 64
11, 147456, Control_c, 9, 7, 100
11, 147456, Program_c, 9, 0
11, 147456, Note_on_c, 9, 57, 110
11, 147456, Note_on_c, 9, 44, 110
11, 147456, Note_on_c, 9, 36, 110
11, 147552, Note_off_c, 9, 44, 64
11, 147648, Note_off_c, 9, 36, 64
11, 147648, Note_on_c, 9, 44, 96
11, 147744, Note_off_c, 9, 44, 64
11, 147840, Note_on_c, 9, 38, 110
11, 147840, Note_on_c, 9, 44, 64
11, 147936, Note_off_c, 9, 44, 64
11, 148032, Note_off_c, 9, 38, 64
11, 148032, Note_on_c, 9, 44, 110
11, 148128, Note_off_c, 9, 44, 64
11, 148224, Note_on_c, 9, 36, 110
11, 148224, Note_on_c, 9, 44, 96
11, 148320, Note_off_c, 9, 44, 64
11, 148416, Note_off_c, 9, 36, 64
11, 148416, Note_on_c, 9, 36, 110
11, 148416, Note_on_c, 9, 44, 64
11, 148512, Note_off_c, 9, 44, 64
11, 148608, Note_off_c, 9, 36, 64
11, 148608, Note_on_c, 9, 38, 110
11, 148608, Note_on_c, 9, 44, 110
11, 148704, Note_off_c, 9, 44, 64
11, 148800, Note_off_c, 9, 38, 64
11, 148800, Note_on_c, 9, 44, 96
11, 148896, Note_off_c, 9, 44, 64
11, 148992, Note_off_c, 9, 57, 64
11, 148992, Note_on_c, 9, 36, 110
11, 148992, Note_on_c, 9, 44, 64
11, 149088, Note_off_c, 9, 44, 64
11, 149184, Note_off_c, 9, 36, 64
11, 149184, Note_on_c, 9, 36, 110
11, 149184, Note_on_c, 9, 44, 110
11, 149280, Note_off_c, 9, 44, 64
11, 149376, Note_off_c, 9, 36, 64
11, 149376, Note_on_c, 9, 38, 110
11, 149376, Note_on_c, 9, 44, 96
11, 149472, Note_off_c, 9, 44, 64
11, 149568, Note_off_c, 9, 38, 64
11, 149568, Note_on_c, 9, 36, 110
11, 149568, Note_on_c, 9, 44, 64
11, 149664, Note_off_c, 9, 44, 64
11, 149760, Note_off_c, 9, 36, 64
11, 149760, Note_on_c, 9, 44, 110
11, 149856, Note_off_c, 9, 44, 64
11, 149952, Note_on_c, 9, 36, 110
11, 149952, Note_on_c, 9, 44, 96
11, 150048, Note_off_c, 9, 44, 64
11, 150144, Note_off_c, 9, 36, 64
11, 150144, Note_on_c, 9, 38, 110
11, 150144, Note_on_c, 9, 46, 110
11, 150336, Note_off_c, 9, 46, 64
11, 150336, Note_off_c, 9, 38, 64
11, 150336, Note_on_c, 9, 44, 64
11, 150432, Note_off_c, 9, 44, 64
11, 150528, Note_on_c, 9, 36, 110
11, 150528, Note_on_c, 9, 44, 110
11, 150624, Note_off_c, 9, 44, 64
11, 150720, Note_off_c, 9, 36, 64
11, 150720, Note_on_c, 9, 44, 96
11, 150816, Note_off_c, 9, 44, 64
11, 150912, Note_on_c, 9, 38, 110
11, 150912, Note_on_c, 9, 44, 64
11, 151008, Note_off_c, 9, 44, 64
11, 151104, Note_off_c, 9, 38, 64
11, 151104, Note_on_c, 9, 44, 110
11, 151200, Note_off_c, 9, 44, 64
11, 151296, Note_on_c, 9, 36, 110
11, 151296, Note_on_c, 9, 44, 96
11, 151392, Note_off_c, 9, 44, 64
11, 151488, Note_off_c, 9, 36, 64
11, 151488, Note_on_c, 9, 36, 110
11, 151488, Note_on_c, 9, 44, 64
11, 151584, Note_off_c, 9, 44, 64
11, 151680, Note_off_c, 9, 36, 64
11, 151680, Note_on_c, 9, 38, 110
11, 151680, Note_on_c, 9, 44, 110
11, 151776, Note_off_c, 9, 44, 64
11, 151872, Note_off_c, 9, 38, 64
11, 151872, Note_on_c, 9, 44, 96
11, 151968, Note_off_c, 9, 44, 64
11, 152064, Note_on_c, 9, 36, 110
11, 152064, Note_on_c, 9, 44, 64
11, 152160, Note_off_c, 9, 44, 64
11, 152256, Note_off_c, 9, 36, 64
11, 152256, Note_on_c, 9, 36, 110
11, 152256, Note_on_c, 9, 44, 110
11, 152352, Note_off_c, 9, 44, 64
11, 152448, Note_off_c, 9, 36, 64
11, 152448, Note_on_c, 9, 38, 110
11, 152448, Note_on_c, 9, 44, 96
11, 152544, Note_off_c, 9, 44, 64
11, 152640, Note_off_c, 9, 38, 64
11, 152640, Note_on_c, 9, 36, 110
11, 152640, Note_on_c, 9, 44, 64
11, 152736, Note_off_c, 9, 44, 64
11, 152832, Note_off_c, 9, 36, 64
11, 152832, Note_on_c, 9, 44, 110
11, 152928, Note_off_c, 9, 44, 64
11, 153024, Note_on_c, 9, 36, 110
11, 153024, Note_on_c, 9, 44, 96
11, 153120, Note_off_c, 9, 44, 64
11, 153216, Note_off_c, 9, 36, 64
11, 153216, Note_on_c, 9, 38, 110
11, 153216, Note_on_c, 9, 46, 110
11, 153408, Note_off_c, 9, 46, 64
11, 153408, Note_off_c, 9, 38, 64
11, 153408, Note_on_c, 9, 44, 64
11, 153504, Note_off_c, 9, 44, 64
11, 153600, Control_c, 9, 7, 100
11, 153600, Program_c, 9, 0
11, 153600, Note_on_c, 9, 44, 110
11, 153600, Note_on_c, 9, 36, 110
11, 153696, Note_off_c, 9, 44, 64
11, 153792, Note_off_c, 9, 36, 64
11, 153792, Note_on_c, 9, 44, 96
11, 153888, Note_off_c, 9, 44, 64
11, 153984, Note_on_c, 9, 38, 110
11, 153984, Note_on_c, 9, 44, 64
11, 154080, Note_off_c, 9, 44, 64
11, 154176, Note_off_c, 9, 38, 64
11, 154176, Note_on_c, 9, 44, 110
11, 154272, Note_off_c, 9, 44, 64
11, 154368, Note_on_c, 9, 36, 110
11, 154368, Note_on_c, 9, 44, 96
11, 154464, Note_off_c, 9, 44, 64
11, 154560, Note_off_c, 9, 36, 64
11, 154560, Note_on_c, 9, 36, 110
11, 154560, Note_on_c, 9, 44, 64
11, 154656, Note_off_c, 9, 44, 64
11, 154752, Note_off_c, 9, 36, 64
11, 154752, Note_on_c, 9, 38, 110
11, 154752, Note_on_c, 9, 44, 110
11, 154848, Note_off_c, 9, 44, 64
11, 154944, Note_off_c, 9, 38, 64
11, 154944, Note_on_c, 9, 44, 96
11, 155040, Note_off_c, 9, 44, 64
11, 155136, Note_on_c, 9, 36, 110
11, 155136, Note_on_c, 9, 44, 64
11, 155232, Note_off_c, 9, 44, 64
11, 155328, Note_off_c, 9, 36, 64
11, 155328, Note_on_c, 9, 36, 110
11, 155328, Note_on_c, 9, 44, 110
11, 155424, Note_off_c, 9, 44, 64
11, 155520, Note_off_c, 9, 36, 64
11, 155520, Note_on_c, 9, 38, 110
11, 155520, Note_on_c, 9, 44, 96
11, 155616, Note_off_c, 9, 44, 64
11, 155712, Note_off_c, 9, 38, 64
11, 155712, Note_on_c, 9, 36, 110
11, 155712, Note_on_c, 9, 44, 64
11, 155808, Note_off_c, 9, 44, 64
11, 155904, Note_off_c, 9, 36, 64
11, 155904, Note_on_c, 9, 44, 110
11, 156000, Note_off_c, 9, 44, 64
11, 156096, Note_on_c, 9, 36, 110
11, 156096, Note_on_c, 9, 44, 96
11, 156192, Note_off_c, 9, 44, 64
11, 156288, Note_off_c, 9, 36, 64
11, 156288, Note_on_c, 9, 38, 110
11, 156288, Note_on_c, 9, 46, 110
11, 156480, Note_off_c, 9, 46, 64
11, 156480, Note_off_c, 9, 38, 64
11, 156480, Note_on_c, 9, 44, 64
11, 156576, Note_off_c, 9, 44, 64
11, 156672, Note_on_c, 9, 36, 110
11, 156672, Note_on_c, 9, 44, 110
11, 156768, Note_off_c, 9, 44, 64
11, 156864, Note_off_c, 9, 36, 64
11, 156864, Note_on_c, 9, 44, 96
11, 156960, Note_off_c, 9, 44, 64
11, 157056, Note_on_c, 9, 38, 110
11, 157056, Note_on_c, 9, 44, 64
11, 157152, Note_off_c, 9, 44, 64
11, 157248, Note_off_c, 9, 38, 64
11, 157248, Note_on_c, 9, 44, 110
11, 157344, Note_off_c, 9, 44, 64
11, 157440, Note_on_c, 9, 36, 110
11, 157440, Note_on_c, 9, 44, 96
11, 157536, Note_off_c, 9, 44, 64
11, 157632, Note_off_c, 9, 36, 64
11, 157632, Note_on_c, 9, 36, 110
11, 157632, Note_on_c, 9, 44, 64
11, 157728, Note_off_c, 9, 44, 64
11, 157824, Note_off_c, 9, 36, 64
11, 157824, Note_on_c, 9, 38, 110
11, 157824, Note_on_c, 9, 44, 110
11, 157920, Note_off_c, 9, 44, 64
11, 158016, Note_off_c, 9, 38, 64
11, 158016, Note_on_c, 9, 44, 96
11, 158112, Note_off_c, 9, 44, 64
11, 158208, Note_on_c, 9, 36, 110
11, 158208, Note_on_c, 9, 44, 64
11, 158304, Note_off_c, 9, 44, 64
11, 158400, Note_off_c, 9, 36, 64
11, 158400, Note_on_c, 9, 36, 110
11, 158400, Note_on_c, 9, 44, 110
11, 158496, Note_off_c, 9, 44, 64
11, 158592, Note_off_c, 9, 36, 64
11, 158592, Note_on_c, 9, 38, 110
11, 158592, Note_on_c, 9, 44, 96
11, 158688, Note_off_c, 9, 44, 64
11, 158784, Note_off_c, 9, 38, 64
11, 158784, Note_on_c, 9, 36, 110
11, 158784, Note_on_c, 9, 44, 64
11, 158880, Note_off_c, 9, 44, 64
11, 158976, Note_off_c, 9, 36, 64
11, 158976, Note_on_c, 9, 44, 110
11, 159072, Note_off_c, 9, 44, 64
11, 159168, Note_on_c, 9, 36, 110
11, 159168, Note_on_c, 9, 44, 96
11, 159264, Note_off_c, 9, 44, 64
11, 159360, Note_off_c, 9, 36, 64
11, 159360, Note_on_c, 9, 38, 110
11, 159360, Note_on_c, 9, 46, 110
11, 159552, Note_off_c, 9, 46, 64
11, 159552, Note_off_c, 9, 38, 64
11, 159552, Note_on_c, 9, 44, 64
11, 159648, Note_off_c, 9, 44, 64
11, 159744, Control_c, 9, 7, 100
11, 159744, Program_c, 9, 0
11, 159744, Note_on_c, 9, 44, 110
11, 159744, Note_on_c, 9, 36, 110
11, 159840, Note_off_c, 9, 44, 64
11, 159936, Note_off_c, 9, 36, 64
11, 159936, Note_on_c, 9, 44, 96
11, 160032, Note_off_c, 9, 44, 64
11, 160128, Note_on_c, 9, 38, 110
11, 160128, Note_on_c, 9, 44, 64
11, 160224, Note_off_c, 9, 44, 64
11, 160320, Note_off_c, 9, 38, 64
11, 160320, Note_on_c, 9, 44, 110
11, 160416, Note_off_c, 9, 44, 64
11, 160512, Note_on_c, 9, 36, 110
11, 160512, Note_on_c, 9, 44, 96
11, 160608, Note_off_c, 9, 44, 64
11, 160704, Note_off_c, 9, 36, 64
11, 160704, Note_on_c, 9, 36, 110
11, 160704, Note_on_c, 9, 44, 64
11, 160800, Note_off_c, 9, 44, 64
11, 160896, Note_off_c, 9, 36, 64
11, 160896, Note_on_c, 9, 38, 110
11, 160896, Note_on_c, 9, 44, 110
11, 160992, Note_off_c, 9, 44, 64
11, 161088, Note_off_c, 9, 38, 64
11, 161088, Note_on_c, 9, 44, 96
11, 161184, Note_off_c, 9, 44, 64
11, 161280, Note_on_c, 9, 36, 110
11, 161280, Note_on_c, 9, 44, 64
11, 161376, Note_off_c, 9, 44, 64
11, 161472, Note_off_c, 9, 36, 64
11, 161472, Note_on_c, 9, 36, 110
11, 161472, Note_on_c, 9, 44, 110
11, 161568, Note_off_c, 9, 44, 64
11, 161664, Note_off_c, 9, 36, 64
11, 161664, Note_on_c, 9, 38, 110
11, 161664, Note_on_c, 9, 44, 96
11, 161760, Note_off_c, 9, 44, 64
11, 161856, Note_off_c, 9, 38, 64
11, 161856, Note_on_c, 9, 36, 110
11, 161856, Note_on_c, 9, 44, 64
11, 161952, Note_off_c, 9, 44, 64
11, 162048, Note_off_c, 9, 36, 64
11, 162048, Note_on_c, 9, 44, 110
11, 162144, Note_off_c, 9, 44, 64
11, 162240, Note_on_c, 9, 36, 110
11, 162240, Note_on_c, 9, 44, 96
11, 162336, Note_off_c, 9, 44, 64
11, 162432, Note_off_c, 9, 36, 64
11, 162432, Note_on_c, 9, 38, 110
11, 162432, Note_on_c, 9, 46, 110
11, 162624, Note_off_c, 9, 46, 64
11, 162624, Note_off_c, 9, 38, 64
11, 162624, Note_on_c, 9, 44, 64
11, 162720, Note_off_c, 9, 44, 64
11, 162816, Note_on_c, 9, 36, 110
11, 162816, Note_on_c, 9, 44, 110
11, 162912, Note_off_c, 9, 44, 64
11, 163008, Note_off_c, 9, 36, 64
11, 163008, Note_on_c, 9, 44, 96
11, 163104, Note_off_c, 9, 44, 64
11, 163200, Note_on_c, 9, 38, 110
11, 163200, Note_on_c, 9, 44, 64
11, 163296, Note_off_c, 9, 44, 64
11, 163392, Note_off_c, 9, 38, 64
11, 163392, Note_on_c, 9, 44, 110
11, 163488, Note_off_c, 9, 44, 64
11, 163584, Note_on_c, 9, 36, 110
11, 163584, Note_on_c, 9, 44, 96
11, 163680, Note_off_c, 9, 44, 64
11, 163776, Note_off_c, 9, 36, 64
11, 163776, Note_on_c, 9, 36, 110
11, 163776, Note_on_c, 9, 44, 64
11, 163872, Note_off_c, 9, 44, 64
11, 163968, Note_off_c, 9, 36, 64
11, 163968, Note_on_c, 9, 38, 110
11, 163968, Note_on_c, 9, 44, 110
11, 164064, Note_off_c, 9, 44, 64
11, 164160, Note_off_c, 9, 38, 64
11, 164160, Note_on_c, 9, 44, 96
11, 164256, Note_off_c, 9, 44, 64
11, 164352, Note_on_c, 9, 36, 110
11, 164352, Note_on_c, 9, 44, 64
11, 164448, Note_off_c, 9, 44, 64
11, 164544, Note_off_c, 9, 36, 64
11, 164544, Note_on_c, 9, 36, 110
11, 164544, Note_on_c, 9, 44, 110
11, 164640, Note_off_c, 9, 44, 64
11, 164736, Note_off_c, 9, 36, 64
11, 164736, Note_on_c, 9, 38, 110
11, 164736, Note_on_c, 9, 44, 96
11, 164832, Note_off_c, 9, 44, 64
11, 164928, Note_off_c, 9, 38, 64
11, 164928, Note_on_c, 9, 36, 110
11, 164928, Note_on_c, 9, 44, 64
11, 165024, Note_off_c, 9, 44, 64
11, 165120, Note_off_c, 9, 36, 64
11, 165120, Note_on_c, 9, 44, 110
11, 165216, Note_off_c, 9, 44, 64
11, 165312, Note_on_c, 9, 36, 110
11, 165312, Note_on_c, 9, 44, 96
11, 165408, Note_off_c, 9, 44, 64
11, 165504, Note_off_c, 9, 36, 64
11, 165504, Note_on_c, 9, 38, 110
11, 165504, Note_on_c, 9, 46, 110
11, 165696, Note_off_c, 9, 46, 64
11, 165696, Note_off_c, 9, 38, 64
11, 165696, Note_on_c, 9, 44, 64
11, 165792, Note_off_c, 9, 44, 64
11, 165888, Control_c, 9, 7, 100
11, 165888, Program_c, 9, 0
11, 165888, Note_on_c, 9, 44, 110
11, 165888, Note_on_c, 9, 36, 110
11, 165984, Note_off_c, 9, 44, 64
11, 166080, Note_off_c, 9, 36, 64
11, 166080, Note_on_c, 9, 44, 96
11, 166176, Note_off_c, 9, 44, 64
11, 166272, Note_on_c, 9, 38, 110
11, 166272, Note_on_c, 9, 44, 64
11, 166368, Note_off_c, 9, 44, 64
11, 166464, Note_off_c, 9, 38, 64
11, 166464, Note_on_c, 9, 44, 110
11, 166560, Note_off_c, 9, 44, 64
11, 166656, Note_on_c, 9, 36, 110
11, 166656, Note_on_c, 9, 44, 96
11, 166752, Note_off_c, 9, 44, 64
11, 166848, Note_off_c, 9, 36, 64
11, 166848, Note_on_c, 9, 36, 110
11, 166848, Note_on_c, 9, 44, 64
11, 166944, Note_off_c, 9, 44, 64
11, 167040, Note_off_c, 9, 36, 64
11, 167040, Note_on_c, 9, 38, 110
11, 167040, Note_on_c, 9, 44, 110
11, 167136, Note_off_c, 9, 44, 64
11, 167232, Note_off_c, 9, 38, 64
11, 167232, Note_on_c, 9, 44, 96
11, 167328, Note_off_c, 9, 44, 64
11, 167424, Note_on_c, 9, 36, 110
11, 167424, Note_on_c, 9, 44, 64
11, 167520, Note_off_c, 9, 44, 64
11, 167616, Note_off_c, 9, 36, 64
11, 167616, Note_on_c, 9, 36, 110
11, 167616, Note_on_c, 9, 44, 110
11, 167712, Note_off_c, 9, 44, 64
11, 167808, Note_off_c, 9, 36, 64
11, 167808, Note_on_c, 9, 38, 110
11, 167808, Note_on_c, 9, 44, 96
11, 167904, Note_off_c, 9, 44, 64
11, 168000, Note_off_c, 9, 38, 64
11, 168000, Note_on_c, 9, 36, 110
11, 168000, Note_on_c, 9, 44, 64
11, 168096, Note_off_c, 9, 44, 64
11, 168192, Note_off_c, 9, 36, 64
11, 168192, Note_on_c, 9, 44, 110
11, 168288, Note_off_c, 9, 44, 64
11, 168384, Note_on_c, 9, 36, 110
11, 168384, Note_on_c, 9, 44, 96
11, 168480, Note_off_c, 9, 44, 64
11, 168576, Note_off_c, 9, 36, 64
11, 168576, Note_on_c, 9, 38, 110
11, 168576, Note_on_c, 9, 46, 110
11, 168768, Note_off_c, 9, 46, 64
11, 168768, Note_off_c, 9, 38, 64
11, 168768, Note_on_c, 9, 44, 64
11, 168864, Note_off_c, 9, 44, 64
11, 168960, Note_on_c, 9, 36, 110
11, 168960, Note_on_c, 9, 44, 110
11, 169056, Note_off_c, 9, 44, 64
11, 169152, Note_off_c, 9, 36, 64
11, 169152, Note_on_c, 9, 44, 96
11, 169248, Note_off_c, 9, 44, 64
11, 169344, Note_on_c, 9, 38, 110
11, 169344, Note_on_c, 9, 44, 64
11, 169440, Note_off_c, 9, 44, 64
11, 169536, Note_off_c, 9, 38, 64
11, 169536, Note_on_c, 9, 44, 110
11, 169632, Note_off_c, 9, 44, 64
11, 169728, Note_on_c, 9, 36, 110
11, 169728, Note_on_c, 9, 44, 96
11, 169824, Note_off_c, 9, 44, 64
11, 169920, Note_off_c, 9, 36, 64
11, 169920, Note_on_c, 9, 36, 110
11, 169920, Note_on_c, 9, 44, 64
11, 170016, Note_off_c, 9, 44, 64
11, 170112, Note_off_c, 9, 36, 64
11, 170112, Note_on_c, 9, 38, 110
11, 170112, Note_on_c, 9, 44, 110
11, 170208, Note_off_c, 9, 44, 64
11, 170304, Note_off_c, 9, 38, 64
11, 170304, Note_on_c, 9, 44, 96
11, 170400, Note_off_c, 9, 44, 64
11, 170496, Note_on_c, 9, 36, 110
11, 170496, Note_on_c, 9, 44, 64
11, 170592, Note_off_c, 9, 44, 64
11, 170688, Note_off_c, 9, 36, 64
11, 170688, Note_on_c, 9, 36, 110
11, 170688, Note_on_c, 9, 44, 110
11, 170784, Note_off_c, 9, 44, 64
11, 170880, Note_off_c, 9, 36, 64
11, 170880, Note_on_c, 9, 38, 110
11, 170880, Note_on_c, 9, 44, 96
11, 170976, Note_off_c, 9, 44, 64
11, 171072, Note_off_c, 9, 38, 64
11, 171072, Note_on_c, 9, 36, 110
11, 171072, Note_on_c, 9, 44, 64
11, 171168, Note_off_c, 9, 44, 64
11, 171264, Note_off_c, 9, 36, 64
11, 171264, Note_on_c, 9, 44, 110
11, 171360, Note_off_c, 9, 44, 64
11, 171456, Note_on_c, 9, 36, 110
11, 171456, Note_on_c, 9, 44, 96
11, 171552, Note_off_c, 9, 44, 64
11, 171648, Note_off_c, 9, 36, 64
11, 171648, Note_on_c, 9, 38, 110
11, 171648, Note_on_c, 9, 46, 110
11, 171840, Note_off_c, 9, 46, 64
11, 171840, Note_off_c, 9, 38, 64
11, 171840, Note_on_c, 9, 44, 64
11, 171936, Note_off_c, 9, 44, 64
11, 172032, Control_c, 9, 7, 100
11, 172032, Program_c, 9, 0
11, 172032, Note_on_c, 9, 36, 110
11, 172032, Note_on_c, 9, 49, 110
11, 172224, Note_off_c, 9, 36, 64
11, 172608, Note_on_c, 9, 57, 110
11, 173184, Note_off_c, 9, 49, 64
11, 173184, Note_on_c, 9, 49, 110
11, 174144, Note_off_c, 9, 57, 64
11, 174528, Note_on_c, 9, 36, 110
11, 174720, Note_off_c, 9, 36, 64
11, 174720, Note_off_c, 9, 49, 64
11, 174720, Note_on_c, 9, 38, 110
11, 174912, Note_off_c, 9, 38, 64
11, 175104, Note_on_c, 9, 59, 110
11, 175104, Note_on_c, 9, 36, 110
11, 175296, Note_off_c, 9, 36, 64
11, 175296, Note_off_c, 9, 59, 64
11, 175488, Note_on_c, 9, 59, 110
11, 175680, Note_off_c, 9, 59, 64
11, 175680, Note_on_c, 9, 36, 110
11, 175872, Note_off_c, 9, 36, 64
11, 175872, Note_on_c, 9, 59, 96
11, 175872, Note_on_c, 9, 38, 110
11, 176064, Note_off_c, 9, 38, 64
11, 176064, Note_off_c, 9, 59, 64
11, 176064, Note_on_c, 9, 59, 110
11, 176256, Note_off_c, 9, 59, 64
11, 176448, Note_on_c, 9, 59, 110
11, 176448, Note_on_c, 9, 36, 110
11, 176640, Note_off_c, 9, 36, 64
11, 176640, Note_off_c, 9, 59, 64
11, 176640, Note_on_c, 9, 36, 79
11, 176832, Note_off_c, 9, 36, 64
11, 176832, Note_on_c, 9, 59, 110
11, 177024, Note_off_c, 9, 59, 64
11, 177024, Note_on_c, 9, 36, 110
11, 177216, Note_off_c, 9, 36, 64
11, 177216, Note_on_c, 9, 59, 96
11, 177408, Note_off_c, 9, 59, 64
11, 177408, Note_on_c, 9, 59, 110
11, 177408, Note_on_c, 9, 38, 110
11, 177600, Note_off_c, 9, 38, 64
11, 177600, Note_off_c, 9, 59, 64
11, 177792, Note_on_c, 9, 59, 110
11, 177984, Note_off_c, 9, 59, 64
11, 177984, Note_on_c, 9, 36, 110
11, 178176, Note_off_c, 9, 36, 64
11, 178176, Note_on_c, 9, 59, 110
11, 178368, Note_off_c, 9, 59, 64
11, 178368, Note_on_c, 9, 36, 110
11, 178560, Note_off_c, 9, 36, 64
11, 178560, Note_on_c, 9, 59, 110
11, 178752, Note_off_c, 9, 59, 64
11, 178752, Note_on_c, 9, 36, 110
11, 178944, Note_off_c, 9, 36, 64
11, 178944, Note_on_c, 9, 59, 96
11, 178944, Note_on_c, 9, 38, 110
11, 179136, Note_off_c, 9, 38, 64
11, 179136, Note_off_c, 9, 59, 64
11, 179136, Note_on_c, 9, 59, 110
11, 179328, Note_off_c, 9, 59, 64
11, 179520, Note_on_c, 9, 59, 110
11, 179520, Note_on_c, 9, 36, 110
11, 179712, Note_off_c, 9, 36, 64
11, 179712, Note_off_c, 9, 59, 64
11, 179712, Note_on_c, 9, 36, 64
11, 179904, Note_off_c, 9, 36, 64
11, 179904, Note_on_c, 9, 59, 110
11, 180096, Note_off_c, 9, 59, 64
11, 180096, Note_on_c, 9, 36, 110
11, 180288, Note_off_c, 9, 36, 64
11, 180288, Note_on_c, 9, 59, 96
11, 180480, Note_off_c, 9, 59, 64
11, 180480, Note_on_c, 9, 59, 110
11, 180480, Note_on_c, 9, 38, 110
11, 180672, Note_off_c, 9, 38, 64
11, 180672, Note_off_c, 9, 59, 64
11, 180672, Note_on_c, 9, 36, 110
11, 180864, Note_off_c, 9, 36, 64
11, 180864, Note_on_c, 9, 59, 110
11, 181056, Note_off_c, 9, 59, 64
11, 181056, Note_on_c, 9, 36, 110
11, 181248, Note_off_c, 9, 36, 64
11, 181248, Control_c, 9, 7, 100
11, 181248, Program_c, 9, 0
11, 181248, Note_on_c, 9, 36, 110
11, 181248, Note_on_c, 9, 49, 110
11, 181440, Note_off_c, 9, 36, 64
11, 181824, Note_on_c, 9, 57, 110
11, 182400, Note_off_c, 9, 49, 64
11, 182400, Note_on_c, 9, 49, 110
11, 183360, Note_off_c, 9, 57, 64
11, 183744, Note_on_c, 9, 36, 110
11, 183936, Note_off_c, 9, 36, 64
11, 183936, Note_off_c, 9, 49, 64
11, 183936, Note_on_c, 9, 38, 110
11, 184128, Note_off_c, 9, 38, 64
11, 184320, Note_on_c, 9, 59, 110
11, 184320, Note_on_c, 9, 36, 110
11, 184512, Note_off_c, 9, 36, 64
11, 184512, Note_off_c, 9, 59, 64
11, 184704, Note_on_c, 9, 59, 110
11, 184896, Note_off_c, 9, 59, 64
11, 184896, Note_on_c, 9, 36, 110
11, 185088, Note_off_c, 9, 36, 64
11, 185088, Note_on_c, 9, 59, 96
11, 185088, Note_on_c, 9, 38, 110
11, 185280, Note_off_c, 9, 38, 64
11, 185280, Note_off_c, 9, 59, 64
11, 185280, Note_on_c, 9, 59, 110
11, 185472, Note_off_c, 9, 59, 64
11, 185664, Note_on_c, 9, 59, 110
11, 185664, Note_on_c, 9, 36, 110
11, 185856, Note_off_c, 9, 36, 64
11, 185856, Note_off_c, 9, 59, 64
11, 185856, Note_on_c, 9, 36, 79
11, 186048, Note_off_c, 9, 36, 64
11, 186048, Note_on_c, 9, 59, 110
11, 186240, Note_off_c, 9, 59, 64
11, 186240, Note_on_c, 9, 36, 110
11, 186432, Note_off_c, 9, 36, 64
11, 186432, Note_on_c, 9, 59, 96
11, 186624, Note_off_c, 9, 59, 64
11, 186624, Note_on_c, 9, 59, 110
11, 186624, Note_on_c, 9, 38, 110
11, 186816, Note_off_c, 9, 38, 64
11, 186816, Note_off_c, 9, 59, 64
11, 187008, Note_on_c, 9, 59, 110
11, 187200, Note_off_c, 9, 59, 64
11, 187200, Note_on_c, 9, 36, 110
11, 187392, Note_off_c, 9, 36, 64
11, 187392, Note_on_c, 9, 59, 110
11, 187584, Note_off_c, 9, 59, 64
11, 187584, Note_on_c, 9, 36, 110
11, 187776, Note_off_c, 9, 36, 64
11, 187776, Note_on_c, 9, 59, 110
11, 187968, Note_off_c, 9, 59, 64
11, 187968, Note_on_c, 9, 36, 110
11, 188160, Note_off_c, 9, 36, 64
11, 188160, Note_on_c, 9, 59, 96
11, 188160, Note_on_c, 9, 38, 110
11, 188352, Note_off_c, 9, 38, 64
11, 188352, Note_off_c, 9, 59, 64
11, 188352, Note_on_c, 9, 59, 110
11, 188544, Note_off_c, 9, 59, 64
11, 188736, Note_on_c, 9, 59, 110
11, 188736, Note_on_c, 9, 36, 110
11, 188928, Note_off_c, 9, 36, 64
11, 188928, Note_off_c, 9, 59, 64
11, 188928, Note_on_c, 9, 36, 64
11, 189120, Note_off_c, 9, 36, 64
11, 189120, Note_on_c, 9, 59, 110
11, 189312, Note_off_c, 9, 59, 64
11, 189312, Note_on_c, 9, 36, 110
11, 189504, Note_off_c, 9, 36, 64
11, 189504, Note_on_c, 9, 59, 96
11, 189696, Note_off_c, 9, 59, 64
11, 189696, Note_on_c, 9, 59, 110
11, 189696, Note_on_c, 9, 38, 110
11, 189888, Note_off_c, 9, 38, 64
11, 189888, Note_off_c, 9, 59, 64
11, 189888, Note_on_c, 9, 36, 110
11, 190080, Note_off_c, 9, 36, 64
11, 190080, Note_on_c, 9, 38, 110
11, 190080, Note_on_c, 9, 49, 110
11, 190272, Note_off_c, 9, 38, 64
11, 190464, Note_off_c, 9, 49, 64
11, 190464, Control_c, 9, 7, 100
11, 190464, Program_c, 9, 0
11, 190464, Note_on_c, 9, 36, 110
11, 190464, Note_on_c, 9, 46, 110
11, 190656, Note_off_c, 9, 46, 64
11, 190656, Note_off_c, 9, 36, 64
11, 190656, Note_on_c, 9, 44, 110
11, 190752, Note_off_c, 9, 44, 64
11, 190848, Note_on_c, 9, 38, 110
11, 191040, Note_off_c, 9, 38, 64
11, 191040, Note_on_c, 9, 36, 110
11, 191040, Note_on_c, 9, 44, 110
11, 191136, Note_off_c, 9, 44, 64
11, 191232, Note_off_c, 9, 36, 64
11, 191424, Note_on_c, 9, 36, 110
11, 191424, Note_on_c, 9, 44, 110
11, 191520, Note_off_c, 9, 44, 64
11, 191616, Note_off_c, 9, 36, 64
11, 191616, Note_on_c, 9, 38, 110
11, 191616, Note_on_c, 9, 44, 110
11, 191712, Note_off_c, 9, 44, 64
11, 191808, Note_off_c, 9, 38, 64
11, 191808, Note_on_c, 9, 44, 110
11, 191904, Note_off_c, 9, 44, 64
11, 192000, Note_on_c, 9, 46, 110
11, 192192, Note_off_c, 9, 46, 64
11, 192192, Note_on_c, 9, 36, 110
11, 192192, Note_on_c, 9, 44, 110
11, 192288, Note_off_c, 9, 44, 64
11, 192384, Note_off_c, 9, 36, 64
11, 192384, Note_on_c, 9, 38, 110
11, 192576, Note_off_c, 9, 38, 64
11, 192576, Note_on_c, 9, 36, 110
11, 192576, Note_on_c, 9, 44, 110
11, 192672, Note_off_c, 9, 44, 64
11, 192768, Note_off_c, 9, 36, 64
11, 192768, Note_on_c, 9, 36, 110
11, 192768, Note_on_c, 9, 46, 110
11, 192960, Note_off_c, 9, 46, 64
11, 192960, Note_off_c, 9, 36, 64
11, 192960, Note_on_c, 9, 44, 110
11, 193056, Note_off_c, 9, 44, 64
11, 193152, Note_on_c, 9, 38, 110
11, 193344, Note_off_c, 9, 38, 64
11, 193344, Note_on_c, 9, 36, 110
11, 193344, Note_on_c, 9, 44, 110
11, 193440, Note_off_c, 9, 44, 64
11, 193536, Note_off_c, 9, 36, 64
11, 193536, Note_on_c, 9, 36, 110
11, 193536, Note_on_c, 9, 46, 110
11, 193728, Note_off_c, 9, 46, 64
11, 193728, Note_off_c, 9, 36, 64
11, 193728, Note_on_c, 9, 44, 110
11, 193824, Note_off_c, 9, 44, 64
11, 193920, Note_on_c, 9, 38, 110
11, 194112, Note_off_c, 9, 38, 64
11, 194112, Note_on_c, 9, 36, 110
11, 194112, Note_on_c, 9, 44, 110
11, 194208, Note_off_c, 9, 44, 64
11, 194304, Note_off_c, 9, 36, 64
11, 194496, Note_on_c, 9, 36, 110
11, 194496, Note_on_c, 9, 44, 110
11, 194592, Note_off_c, 9, 44, 64
11, 194688, Note_off_c, 9, 36, 64
11, 194688, Note_on_c, 9, 38, 110
11, 194688, Note_on_c, 9, 44, 110
11, 194784, Note_off_c, 9, 44, 64
11, 194880, Note_off_c, 9, 38, 64
11, 194880, Note_on_c, 9, 44, 110
11, 194976, Note_off_c, 9, 44, 64
11, 195072, Note_on_c, 9, 46, 110
11, 195264, Note_off_c, 9, 46, 64
11, 195264, Note_on_c, 9, 36, 110
11, 195264, Note_on_c, 9, 44, 110
11, 195360, Note_off_c, 9, 44, 64
11, 195456, Note_off_c, 9, 36, 64
11, 195456, Note_on_c, 9, 38, 110
11, 195648, Note_off_c, 9, 38, 64
11, 195648, Note_on_c, 9, 36, 110
11, 195648, Note_on_c, 9, 44, 110
11, 195744, Note_off_c, 9, 44, 64
11, 195840, Note_off_c, 9, 36, 64
11, 195840, Note_on_c, 9, 36, 110
11, 195840, Note_on_c, 9, 46, 110
11, 196032, Note_off_c, 9, 46, 64
11, 196032, Note_off_c, 9, 36, 64
11, 196032, Note_on_c, 9, 44, 110
11, 196128, Note_off_c, 9, 44, 64
11, 196224, Note_on_c, 9, 38, 110
11, 196416, Note_off_c, 9, 38, 64
11, 196416, Note_on_c, 9, 36, 110
11, 196416, Note_on_c, 9, 44, 110
11, 196512, Note_off_c, 9, 44, 64
11, 196608, Note_off_c, 9, 36, 64
11, 196608, Control_c, 9, 7, 100
11, 196608, Program_c, 9, 0
11, 196608, Note_on_c, 9, 36, 110
11, 196608, Note_on_c, 9, 57, 110
11, 196800, Note_off_c, 9, 36, 64
11, 198144, Note_off_c, 9, 57, 64
11, 198912, Note_on_c, 9, 41, 81
11, 199040, Note_off_c, 9, 41, 64
11, 199040, Note_on_c, 9, 41, 87
11, 199168, Note_off_c, 9, 41, 64
11, 199168, Note_on_c, 9, 41, 94
11, 199296, Note_off_c, 9, 41, 64
11, 199296, Note_on_c, 9, 41, 101
11, 199424, Note_off_c, 9, 41, 64
11, 199424, Note_on_c, 9, 41, 108
11, 199552, Note_off_c, 9, 41, 64
11, 199552, Note_on_c, 9, 41, 114
11, 199680, Note_off_c, 9, 41, 64
11, 199680, Note_on_c, 9, 57, 110
11, 199680, Note_on_c, 9, 36, 110
11, 199872, Note_off_c, 9, 36, 64
11, 201024, Note_on_c, 9, 53, 101
11, 201088, Note_off_c, 9, 53, 64
11, 201088, Note_on_c, 9, 53, 105
11, 201152, Note_off_c, 9, 53, 64
11, 201152, Note_on_c, 9, 53, 108
11, 201216, Note_off_c, 9, 53, 64
11, 201216, Note_off_c, 9, 57, 64
11, 201216, Note_on_c, 9, 53, 112
11, 201408, Note_off_c, 9, 53, 64
11, 201792, Note_on_c, 9, 53, 101
11, 201856, Note_off_c, 9, 53, 64
11, 201856, Note_on_c, 9, 53, 105
11, 201920, Note_off_c, 9, 53, 64
11, 201920, Note_on_c, 9, 53, 108
11, 201984, Note_off_c, 9, 53, 64
11, 201984, Note_on_c, 9, 53, 112
11, 202176, Note_off_c, 9, 53, 64
11, 202176, Note_on_c, 9, 53, 110
11, 202368, Note_off_c, 9, 53, 64
11, 202560, Note_on_c, 9, 53, 110
11, 202752, Note_off_c, 9, 53, 64
11, 202752, Control_c, 9, 7, 100
11, 202752, Program_c, 9, 0
11, 202752, Note_on_c, 9, 36, 110
11, 202752, Note_on_c, 9, 57, 110
11, 202944, Note_off_c, 9, 36, 64
11, 204288, Note_off_c, 9, 57, 64
11, 205056, Note_on_c, 9, 41, 81
11, 205184, Note_off_c, 9, 41, 64
11, 205184, Note_on_c, 9, 41, 87
11, 205312, Note_off_c, 9, 41, 64
11, 205312, Note_on_c, 9, 41, 94
11, 205440, Note_off_c, 9, 41, 64
11, 205440, Note_on_c, 9, 41, 101
11, 205568, Note_off_c, 9, 41, 64
11, 205568, Note_on_c, 9, 41, 108
11, 205696, Note_off_c, 9, 41, 64
11, 205696, Note_on_c, 9, 41, 114
11, 205824, Note_off_c, 9, 41, 64
11, 205824, Note_on_c, 9, 36, 110
11, 205824, Note_on_c, 9, 57, 110
11, 206016, Note_off_c, 9, 36, 64
11, 207312, Note_on_c, 9, 45, 105
11, 207360, Note_off_c, 9, 45, 64
11, 207360, Note_off_c, 9, 57, 64
11, 207360, Note_on_c, 9, 45, 101
11, 207360, Note_on_c, 9, 35, 110
11, 207408, Note_off_c, 9, 45, 64
11, 207456, Note_off_c, 9, 35, 64
11, 207552, Note_on_c, 9, 47, 110
11, 207552, Note_on_c, 9, 36, 110
11, 207648, Note_off_c, 9, 36, 64
11, 207648, Note_off_c, 9, 47, 64
11, 207936, Note_on_c, 9, 47, 110
11, 207936, Note_on_c, 9, 36, 110
11, 208032, Note_off_c, 9, 36, 64
11, 208032, Note_off_c, 9, 47, 64
11, 208080, Note_on_c, 9, 45, 105
11, 208128, Note_off_c, 9, 45, 64
11, 208128, Note_on_c, 9, 45, 101
11, 208128, Note_on_c, 9, 35, 110
11, 208176, Note_off_c, 9, 45, 64
11, 208224, Note_off_c, 9, 35, 64
11, 208320, Note_on_c, 9, 47, 110
11, 208320, Note_on_c, 9, 36, 110
11, 208416, Note_off_c, 9, 36, 64
11, 208416, Note_off_c, 9, 47, 64
11, 208512, Note_on_c, 9, 45, 110
11, 208512, Note_on_c, 9, 36, 110
11, 208512, Note_on_c, 9, 57, 110
11, 208608, Note_off_c, 9, 36, 64
11, 208608, Note_off_c, 9, 45, 64
11, 208896, Note_off_c, 9, 57, 64
11, 208896, Control_c, 9, 7, 100
11, 208896, Program_c, 9, 0
11, 208896, Control_c, 9, 10, 64
11, 208896, Control_c, 9, 91, 73
11, 208896, Note_on_c, 9, 46, 98
11, 208896, Note_on_c, 9, 57, 110
11, 208896, Note_on_c, 9, 36, 110
11, 209088, Note_off_c, 9, 36, 64
11, 209088, Note_off_c, 9, 46, 64
11, 209088, Note_on_c, 9, 44, 64
11, 209184, Note_off_c, 9, 44, 64
11, 209280, Note_on_c, 9, 44, 64
11, 209376, Note_off_c, 9, 44, 64
11, 209472, Note_on_c, 9, 46, 97
11, 209472, Note_on_c, 9, 36, 110
11, 209664, Note_off_c, 9, 36, 64
11, 209664, Note_off_c, 9, 46, 64
11, 209664, Note_on_c, 9, 44, 78
11, 209760, Note_off_c, 9, 44, 64
11, 209856, Note_on_c, 9, 44, 78
11, 209952, Note_off_c, 9, 44, 64
11, 210048, Note_off_c, 9, 57, 64
11, 210048, Note_on_c, 9, 46, 98
11, 210048, Note_on_c, 9, 36, 110
11, 210240, Note_off_c, 9, 36, 64
11, 210240, Note_off_c, 9, 46, 64
11, 210240, Note_on_c, 9, 44, 64
11, 210336, Note_off_c, 9, 44, 64
11, 210432, Note_on_c, 9, 44, 78
11, 210528, Note_off_c, 9, 44, 64
11, 210624, Note_on_c, 9, 44, 64
11, 210720, Note_off_c, 9, 44, 64
11, 210816, Note_on_c, 9, 44, 78
11, 210912, Note_off_c, 9, 44, 64
11, 211008, Note_on_c, 9, 44, 64
11, 211104, Note_off_c, 9, 44, 64
11, 211200, Note_on_c, 9, 46, 98
11, 211200, Note_on_c, 9, 36, 110
11, 211392, Note_off_c, 9, 36, 64
11, 211392, Note_off_c, 9, 46, 64
11, 211392, Note_on_c, 9, 44, 64
11, 211488, Note_off_c, 9, 44, 64
11, 211584, Note_on_c, 9, 44, 64
11, 211680, Note_off_c, 9, 44, 64
11, 211776, Note_on_c, 9, 46, 97
11, 211776, Note_on_c, 9, 36, 110
11, 211968, Note_off_c, 9, 36, 64
11, 211968, Note_off_c, 9, 46, 64
11, 211968, Note_on_c, 9, 44, 78
11, 212064, Note_off_c, 9, 44, 64
11, 212160, Note_on_c, 9, 44, 78
11, 212256, Note_off_c, 9, 44, 64
11, 212352, Note_on_c, 9, 46, 98
11, 212352, Note_on_c, 9, 36, 110
11, 212544, Note_off_c, 9, 36, 64
11, 212544, Note_off_c, 9, 46, 64
11, 212544, Note_on_c, 9, 44, 64
11, 212640, Note_off_c, 9, 44, 64
11, 212736, Note_on_c, 9, 44, 78
11, 212832, Note_off_c, 9, 44, 64
11, 212928, Note_on_c, 9, 44, 64
11, 213024, Note_off_c, 9, 44, 64
11, 213120, Note_on_c, 9, 44, 78
11, 213216, Note_off_c, 9, 44, 64
11, 213312, Note_on_c, 9, 44, 64
11, 213408, Note_off_c, 9, 44, 64
11, 213504, Control_c, 9, 7, 100
11, 213504, Program_c, 9, 0
11, 213504, Note_on_c, 9, 46, 98
11, 213504, Note_on_c, 9, 36, 110
11, 213696, Note_off_c, 9, 36, 64
11, 213696, Note_off_c, 9, 46, 64
11, 213696, Note_on_c, 9, 44, 64
11, 213792, Note_off_c, 9, 44, 64
11, 213888, Note_on_c, 9, 44, 64
11, 213984, Note_off_c, 9, 44, 64
11, 214080, Note_on_c, 9, 46, 97
11, 214080, Note_on_c, 9, 36, 110
11, 214272, Note_off_c, 9, 36, 64
11, 214272, Note_off_c, 9, 46, 64
11, 214272, Note_on_c, 9, 44, 78
11, 214368, Note_off_c, 9, 44, 64
11, 214464, Note_on_c, 9, 44, 78
11, 214560, Note_off_c, 9, 44, 64
11, 214656, Note_on_c, 9, 46, 98
11, 214656, Note_on_c, 9, 36, 110
11, 214848, Note_off_c, 9, 36, 64
11, 214848, Note_off_c, 9, 46, 64
11, 214848, Note_on_c, 9, 44, 64
11, 214944, Note_off_c, 9, 44, 64
11, 215040, Note_on_c, 9, 44, 78
11, 215136, Note_off_c, 9, 44, 64
11, 215232, Note_on_c, 9, 44, 64
11, 215328, Note_off_c, 9, 44, 64
11, 215424, Note_on_c, 9, 44, 78
11, 215520, Note_off_c, 9, 44, 64
11, 215616, Note_on_c, 9, 44, 64
11, 215712, Note_off_c, 9, 44, 64
11, 215808, Note_on_c, 9, 46, 98
11, 215808, Note_on_c, 9, 36, 110
11, 216000, Note_off_c, 9, 36, 64
11, 216000, Note_off_c, 9, 46, 64
11, 216000, Note_on_c, 9, 44, 64
11, 216096, Note_off_c, 9, 44, 64
11, 216192, Note_on_c, 9, 44, 64
11, 216288, Note_off_c, 9, 44, 64
11, 216384, Note_on_c, 9, 46, 97
11, 216384, Note_on_c, 9, 36, 110
11, 216576, Note_off_c, 9, 36, 64
11, 216576, Note_off_c, 9, 46, 64
11, 216576, Note_on_c, 9, 44, 78
11, 216672, Note_off_c, 9, 44, 64
11, 216768, Note_on_c, 9, 44, 78
11, 216864, Note_off_c, 9, 44, 64
11, 216960, Note_on_c, 9, 46, 98
11, 216960, Note_on_c, 9, 36, 110
11, 217152, Note_off_c, 9, 36, 64
11, 217152, Note_off_c, 9, 46, 64
11, 217152, Note_on_c, 9, 44, 64
11, 217248, Note_off_c, 9, 44, 64
11, 217344, Note_on_c, 9, 44, 78
11, 217440, Note_off_c, 9, 44, 64
11, 217536, Note_on_c, 9, 44, 64
11, 217632, Note_off_c, 9, 44, 64
11, 217728, Note_on_c, 9, 44, 78
11, 217824, Note_off_c, 9, 44, 64
11, 217920, Note_on_c, 9, 44, 64
11, 218016, Note_off_c, 9, 44, 64
11, 218112, Control_c, 9, 7, 100
11, 218112, Program_c, 9, 0
11, 218112, Note_on_c, 9, 44, 110
11, 218112, Note_on_c, 9, 57, 110
11, 218112, Note_on_c, 9, 36, 110
11, 218208, Note_off_c, 9, 44, 64
11, 218304, Note_off_c, 9, 36, 64
11, 218304, Note_on_c, 9, 44, 96
11, 218400, Note_off_c, 9, 44, 64
11, 218496, Note_on_c, 9, 44, 64
11, 218592, Note_off_c, 9, 44, 64
11, 218688, Note_on_c, 9, 38, 110
11, 218688, Note_on_c, 9, 44, 110
11, 218784, Note_off_c, 9, 44, 64
11, 218880, Note_off_c, 9, 38, 64
11, 218880, Note_on_c, 9, 44, 96
11, 218976, Note_off_c, 9, 44, 64
11, 219072, Note_on_c, 9, 44, 64
11, 219168, Note_off_c, 9, 44, 64
11, 219264, Note_off_c, 9, 57, 64
11, 219264, Note_on_c, 9, 44, 110
11, 219264, Note_on_c, 9, 36, 110
11, 219360, Note_off_c, 9, 44, 64
11, 219456, Note_off_c, 9, 36, 64
11, 219456, Note_on_c, 9, 44, 96
11, 219552, Note_off_c, 9, 44, 64
11, 219648, Note_on_c, 9, 44, 64
11, 219744, Note_off_c, 9, 44, 64
11, 219840, Note_on_c, 9, 38, 110
11, 219840, Note_on_c, 9, 44, 110
11, 219936, Note_off_c, 9, 44, 64
11, 220032, Note_off_c, 9, 38, 64
11, 220032, Note_on_c, 9, 44, 96
11, 220128, Note_off_c, 9, 44, 64
11, 220224, Note_on_c, 9, 44, 64
11, 220320, Note_off_c, 9, 44, 64
11, 220416, Note_on_c, 9, 44, 110
11, 220416, Note_on_c, 9, 36, 110
11, 220512, Note_off_c, 9, 44, 64
11, 220608, Note_off_c, 9, 36, 64
11, 220608, Note_on_c, 9, 44, 96
11, 220704, Note_off_c, 9, 44, 64
11, 220800, Note_on_c, 9, 38, 110
11, 220800, Note_on_c, 9, 46, 110
11, 220992, Note_off_c, 9, 46, 64
11, 220992, Note_off_c, 9, 38, 64
11, 220992, Note_on_c, 9, 44, 64
11, 221088, Note_off_c, 9, 44, 64
11, 221184, Note_on_c, 9, 44, 110
11, 221184, Note_on_c, 9, 36, 110
11, 221280, Note_off_c, 9, 44, 64
11, 221376, Note_off_c, 9, 36, 64
11, 221376, Note_on_c, 9, 44, 96
11, 221472, Note_off_c, 9, 44, 64
11, 221568, Note_on_c, 9, 44, 64
11, 221664, Note_off_c, 9, 44, 64
11, 221760, Note_on_c, 9, 38, 110
11, 221760, Note_on_c, 9, 44, 110
11, 221856, Note_off_c, 9, 44, 64
11, 221952, Note_off_c, 9, 38, 64
11, 221952, Note_on_c, 9, 44, 96
11, 222048, Note_off_c, 9, 44, 64
11, 222144, Note_on_c, 9, 44, 64
11, 222240, Note_off_c, 9, 44, 64
11, 222336, Note_on_c, 9, 44, 110
11, 222336, Note_on_c, 9, 36, 110
11, 222432, Note_off_c, 9, 44, 64
11, 222528, Note_off_c, 9, 36, 64
11, 222528, Note_on_c, 9, 44, 96
11, 222624, Note_off_c, 9, 44, 64
11, 222720, Note_on_c, 9, 44, 64
11, 222816, Note_off_c, 9, 44, 64
11, 222912, Note_on_c, 9, 38, 110
11, 222912, Note_on_c, 9, 44, 110
11, 223008, Note_off_c, 9, 44, 64
11, 223104, Note_off_c, 9, 38, 64
11, 223104, Note_on_c, 9, 44, 96
11, 223200, Note_off_c, 9, 44, 64
11, 223296, Note_on_c, 9, 44, 64
11, 223392, Note_off_c, 9, 44, 64
11, 223488, Note_on_c, 9, 44, 110
11, 223488, Note_on_c, 9, 36, 110
11, 223584, Note_off_c, 9, 44, 64
11, 223680, Note_off_c, 9, 36, 64
11, 223680, Note_on_c, 9, 44, 96
11, 223776, Note_off_c, 9, 44, 64
11, 223872, Note_on_c, 9, 38, 110
11, 223872, Note_on_c, 9, 46, 110
11, 224064, Note_off_c, 9, 46, 64
11, 224064, Note_off_c, 9, 38, 64
11, 224064, Note_on_c, 9, 44, 64
11, 224160, Note_off_c, 9, 44, 64
11, 224256, Control_c, 9, 7, 100
11, 224256, Program_c, 9, 0
11, 224256, Control_c, 9, 7, 100
11, 224256, Note_on_c, 9, 44, 110
11, 224256, Note_on_c, 9, 36, 110
11, 224352, Note_off_c, 9, 44, 64
11, 224352, Control_c, 9, 7, 99
11, 224448, Note_off_c, 9, 36, 64
11, 224448, Note_on_c, 9, 44, 96
11, 224544, Note_off_c, 9, 44, 64
11, 224544, Control_c, 9, 7, 98
11, 224640, Note_on_c, 9, 44, 64
11, 224736, Note_off_c, 9, 44, 64
11, 224736, Control_c, 9, 7, 97
11, 224832, Note_on_c, 9, 38, 110
11, 224832, Note_on_c, 9, 44, 110
11, 224928, Note_off_c, 9, 44, 64
11, 224928, Control_c, 9, 7, 96
11, 225024, Note_off_c, 9, 38, 64
11, 225024, Control_c, 9, 7, 95
11, 225024, Note_on_c, 9, 44, 96
11, 225120, Note_off_c, 9, 44, 64
11, 225216, Control_c, 9, 7, 94
11, 225216, Note_on_c, 9, 44, 64
11, 225312, Note_off_c, 9, 44, 64
11, 225408, Control_c, 9, 7, 93
11, 225408, Note_on_c, 9, 44, 110
11, 225408, Note_on_c, 9, 36, 110
11, 225504, Note_off_c, 9, 44, 64
11, 225600, Note_off_c, 9, 36, 64
11, 225600, Control_c, 9, 7, 92
11, 225600, Note_on_c, 9, 44, 96
11, 225696, Note_off_c, 9, 44, 64
11, 225792, Control_c, 9, 7, 91
11, 225792, Note_on_c, 9, 44, 64
11, 225888, Note_off_c, 9, 44, 64
11, 225984, Control_c, 9, 7, 90
11, 225984, Note_on_c, 9, 38, 110
11, 225984, Note_on_c, 9, 44, 110
11, 226080, Note_off_c, 9, 44, 64
11, 226176, Note_off_c, 9, 38, 64
11, 226176, Control_c, 9, 7, 89
11, 226176, Note_on_c, 9, 44, 96
11, 226272, Note_off_c, 9, 44, 64
11, 226368, Control_c, 9, 7, 88
11, 226368, Note_on_c, 9, 44, 64
11, 226464, Note_off_c, 9, 44, 64
11, 226560, Control_c, 9, 7, 87
11, 226560, Note_on_c, 9, 44, 110
11, 226560, Note_on_c, 9, 36, 110
11, 226656, Note_off_c, 9, 44, 64
11, 226752, Note_off_c, 9, 36, 64
11, 226752, Control_c, 9, 7, 86
11, 226752, Note_on_c, 9, 44, 96
11, 226848, Note_off_c, 9, 44, 64
11, 226944, Control_c, 9, 7, 85
11, 226944, Note_on_c, 9, 38, 110
11, 226944, Note_on_c, 9, 46, 110
11, 227136, Note_off_c, 9, 46, 64
11, 227136, Note_off_c, 9, 38, 64
11, 227136, Control_c, 9, 7, 84
11, 227136, Note_on_c, 9, 44, 64
11, 227232, Note_off_c, 9, 44, 64
11, 227328, Control_c, 9, 7, 83
11, 227328, Note_on_c, 9, 44, 110
11, 227328, Note_on_c, 9, 36, 110
11, 227424, Note_off_c, 9, 44, 64
11, 227520, Note_off_c, 9, 36, 64
11, 227520, Control_c, 9, 7, 82
11, 227520, Note_on_c, 9, 44, 96
11, 227616, Note_off_c, 9, 44, 64
11, 227712, Control_c, 9, 7, 81
11, 227712, Note_on_c, 9, 44, 64
11, 227808, Note_off_c, 9, 44, 64
11, 227904, Control_c, 9, 7, 80
11, 227904, Note_on_c, 9, 38, 110
11, 227904, Note_on_c, 9, 44, 110
11, 228000, Note_off_c, 9, 44, 64
11, 228096, Note_off_c, 9, 38, 64
11, 228096, Control_c, 9, 7, 79
11, 228096, Note_on_c, 9, 44, 96
11, 228192, Note_off_c, 9, 44, 64
11, 228288, Control_c, 9, 7, 78
11, 228288, Note_on_c, 9, 44, 64
11, 228384, Note_off_c, 9, 44, 64
11, 228384, Control_c, 9, 7, 77
11, 228480, Note_on_c, 9, 44, 110
11, 228480, Note_on_c, 9, 36, 110
11, 228576, Note_off_c, 9, 44, 64
11, 228576, Control_c, 9, 7, 76
11, 228672, Note_off_c, 9, 36, 64
11, 228672, Note_on_c, 9, 44, 96
11, 228768, Note_off_c, 9, 44, 64
11, 228768, Control_c, 9, 7, 75
11, 228864, Note_on_c, 9, 44, 64
11, 228960, Note_off_c, 9, 44, 64
11, 228960, Control_c, 9, 7, 74
11, 229056, Note_on_c, 9, 38, 110
11, 229056, Note_on_c, 9, 44, 110
11, 229152, Note_off_c, 9, 44, 64
11, 229152, Control_c, 9, 7, 73
11, 229248, Note_off_c, 9, 38, 64
11, 229248, Note_on_c, 9, 44, 96
11, 229344, Note_off_c, 9, 44, 64
11, 229344, Control_c, 9, 7, 72
11, 229440, Note_on_c, 9, 44, 64
11, 229536, Note_off_c, 9, 44, 64
11, 229536, Control_c, 9, 7, 71
11, 229632, Note_on_c, 9, 44, 110
11, 229632, Note_on_c, 9, 36, 110
11, 229728, Note_off_c, 9, 44, 64
11, 229728, Control_c, 9, 7, 70
11, 229824, Note_off_c, 9, 36, 64
11, 229824, Note_on_c, 9, 44, 96
11, 229920, Note_off_c, 9, 44, 64
11, 229920, Control_c, 9, 7, 69
11, 230016, Note_on_c, 9, 38, 110
11, 230016, Note_on_c, 9, 46, 110
11, 230112, Control_c, 9, 7, 68
11, 230208, Note_off_c, 9, 46, 64
11, 230208, Note_off_c, 9, 38, 64
11, 230208, Note_on_c, 9, 44, 64
11, 230304, Note_off_c, 9, 44, 64
11, 230304, Control_c, 9, 7, 67
11, 230400, Note_on_c, 9, 44, 110
11, 230400, Note_on_c, 9, 36, 110
11, 230496, Note_off_c, 9, 44, 64
11, 230496, Control_c, 9, 7, 66
11, 230592, Note_off_c, 9, 36, 64
11, 230592, Note_on_c, 9, 44, 96
11, 230688, Note_off_c, 9, 44, 64
11, 230688, Control_c, 9, 7, 65
11, 230784, Note_on_c, 9, 44, 64
11, 230880, Note_off_c, 9, 44, 64
11, 230880, Control_c, 9, 7, 64
11, 230976, Note_on_c, 9, 38, 110
11, 230976, Note_on_c, 9, 44, 110
11, 231072, Note_off_c, 9, 44, 64
11, 231072, Control_c, 9, 7, 63
11, 231168, Note_off_c, 9, 38, 64
11, 231168, Note_on_c, 9, 44, 96
11, 231264, Note_off_c, 9, 44, 64
11, 231264, Control_c, 9, 7, 62
11, 231360, Note_on_c, 9, 44, 64
11, 231456, Note_off_c, 9, 44, 64
11, 231456, Control_c, 9, 7, 61
11, 231552, Control_c, 9, 7, 60
11, 231552, Note_on_c, 9, 44, 110
11, 231552, Note_on_c, 9, 36, 110
11, 231648, Note_off_c, 9, 44, 64
11, 231744, Note_off_c, 9, 36, 64
11, 231744, Control_c, 9, 7, 59
11, 231744, Note_on_c, 9, 44, 96
11, 231840, Note_off_c, 9, 44, 64
11, 231936, Control_c, 9, 7, 58
11, 231936, Note_on_c, 9, 44, 64
11, 232032, Note_off_c, 9, 44, 64
11, 232128, Control_c, 9, 7, 57
11, 232128, Note_on_c, 9, 38, 110
11, 232128, Note_on_c, 9, 44, 110
11, 232224, Note_off_c, 9, 44, 64
11, 232320, Note_off_c, 9, 38, 64
11, 232320, Control_c, 9, 7, 56
11, 232320, Note_on_c, 9, 44, 96
11, 232416, Note_off_c, 9, 44, 64
11, 232512, Control_c, 9, 7, 55
11, 232512, Note_on_c, 9, 44, 64
11, 232608, Note_off_c, 9, 44, 64
11, 232704, Control_c, 9, 7, 54
11, 232704, Note_on_c, 9, 44, 110
11, 232704, Note_on_c, 9, 36, 110
11, 232800, Note_off_c, 9, 44, 64
11, 232896, Note_off_c, 9, 36, 64
11, 232896, Control_c, 9, 7, 53
11, 232896, Note_on_c, 9, 44, 96
11, 232992, Note_off_c, 9, 44, 64
11, 233088, Control_c, 9, 7, 52
11, 233088, Note_on_c, 9, 38, 110
11, 233088, Note_on_c, 9, 46, 110
11, 233280, Note_off_c, 9, 46, 64
11, 233280, Note_off_c, 9, 38, 64
11, 233280, Control_c, 9, 7, 51
11, 233280, Note_on_c, 9, 44, 64
11, 233376, Note_off_c, 9, 44, 64
11, 233472, Control_c, 9, 7, 50
11, 233472, Note_on_c, 9, 44, 110
11, 233472, Note_on_c, 9, 36, 110
11, 233568, Note_off_c, 9, 44, 64
11, 233664, Note_off_c, 9, 36, 64
11, 233664, Control_c, 9, 7, 49
11, 233664, Note_on_c, 9, 44, 96
11, 233760, Note_off_c, 9, 44, 64
11, 233856, Control_c, 9, 7, 48
11, 233856, Note_on_c, 9, 44, 64
11, 233952, Note_off_c, 9, 44, 64
11, 234048, Control_c, 9, 7, 47
11, 234048, Note_on_c, 9, 38, 110
11, 234048, Note_on_c, 9, 44, 110
11, 234144, Note_off_c, 9, 44, 64
11, 234240, Note_off_c, 9, 38, 64
11, 234240, Control_c, 9, 7, 46
11, 234240, Note_on_c, 9, 44, 96
11, 234336, Note_off_c, 9, 44, 64
11, 234432, Control_c, 9, 7, 45
11, 234432, Note_on_c, 9, 44, 64
11, 234528, Note_off_c, 9, 44, 64
11, 234624, Control_c, 9, 7, 44
11, 234624, Note_on_c, 9, 44, 110
11, 234624, Note_on_c, 9, 36, 110
11, 234720, Note_off_c, 9, 44, 64
11, 234816, Note_off_c, 9, 36, 64
11, 234816, Control_c, 9, 7, 43
11, 234816, Note_on_c, 9, 44, 96
11, 234912, Note_off_c, 9, 44, 64
11, 234912, Control_c, 9, 7, 42
11, 235008, Note_on_c, 9, 44, 64
11, 235104, Note_off_c, 9, 44, 64
11, 235104, Control_c, 9, 7, 41
11, 235200, Note_on_c, 9, 38, 110
11, 235200, Note_on_c, 9, 44, 110
11, 235296, Note_off_c, 9, 44, 64
11, 235296, Control_c, 9, 7, 40
11, 235392, Note_off_c, 9, 38, 64
11, 235392, Note_on_c, 9, 44, 96
11, 235488, Note_off_c, 9, 44, 64
11, 235488, Control_c, 9, 7, 39
11, 235584, Note_on_c, 9, 44, 64
11, 235680, Note_off_c, 9, 44, 64
11, 235680, Control_c, 9, 7, 38
11, 235776, Note_on_c, 9, 44, 110
11, 235776, Note_on_c, 9, 36, 110
11, 235872, Note_off_c, 9, 44, 64
11, 235872, Control_c, 9, 7, 37
11, 235968, Note_off_c, 9, 36, 64
11, 235968, Note_on_c, 9, 44, 96
11, 236064, Note_off_c, 9, 44, 64
11, 236064, Control_c, 9, 7, 36
11, 236160, Note_on_c, 9, 38, 110
11, 236160, Note_on_c, 9, 46, 110
11, 236256, Control_c, 9, 7, 35
11, 236352, Note_off_c, 9, 46, 64
11, 236352, Note_off_c, 9, 38, 64
11, 236352, Note_on_c, 9, 44, 64
11, 236448, Note_off_c, 9, 44, 64
11, 236448, Control_c, 9, 7, 34
11, 236544, Note_on_c, 9, 44, 110
11, 236544, Note_on_c, 9, 36, 110
11, 236640, Note_off_c, 9, 44, 64
11, 236640, Control_c, 9, 7, 33
11, 236736, Note_off_c, 9, 36, 64
11, 236736, Note_on_c, 9, 44, 96
11, 236832, Note_off_c, 9, 44, 64
11, 236832, Control_c, 9, 7, 32
11, 236928, Note_on_c, 9, 44, 64
11, 237024, Note_off_c, 9, 44, 64
11, 237024, Control_c, 9, 7, 31
11, 237120, Note_on_c, 9, 38, 110
11, 237120, Note_on_c, 9, 44, 110
11, 237216, Note_off_c, 9, 44, 64
11, 237216, Control_c, 9, 7, 30
11, 237312, Note_off_c, 9, 38, 64
11, 237312, Note_on_c, 9, 44, 96
11, 237408, Note_off_c, 9, 44, 64
11, 237408, Control_c, 9, 7, 29
11, 237504, Note_on_c, 9, 44, 64
11, 237600, Note_off_c, 9, 44, 64
11, 237600, Control_c, 9, 7, 28
11, 237696, Note_on_c, 9, 44, 110
11, 237696, Note_on_c, 9, 36, 110
11, 237792, Note_off_c, 9, 44, 64
11, 237792, Control_c, 9, 7, 27
11, 237888, Note_off_c, 9, 36, 64
11, 237888, Note_on_c, 9, 44, 96
11, 237984, Note_off_c, 9, 44, 64
11, 237984, Control_c, 9, 7, 26
11, 238080, Control_c, 9, 7, 25
11, 238080, Note_on_c, 9, 44, 64
11, 238176, Note_off_c, 9, 44, 64
11, 238272, Control_c, 9, 7, 24
11, 238272, Note_on_c, 9, 38, 110
11, 238272, Note_on_c, 9, 44, 110
11, 238368, Note_off_c, 9, 44, 64
11, 238464, Note_off_c, 9, 38, 64
11, 238464, Control_c, 9, 7, 23
11, 238464, Note_on_c, 9, 44, 96
11, 238560, Note_off_c, 9, 44, 64
11, 238656, Control_c, 9, 7, 22
11, 238656, Note_on_c, 9, 44, 64
11, 238752, Note_off_c, 9, 44, 64
11, 238848, Control_c, 9, 7, 21
11, 238848, Note_on_c, 9, 44, 110
11, 238848, Note_on_c, 9, 36, 110
11, 238944, Note_off_c, 9, 44, 64
11, 239040, Note_off_c, 9, 36, 64
11, 239040, Control_c, 9, 7, 20
11, 239040, Note_on_c, 9, 44, 96
11, 239136, Note_off_c, 9, 44, 64
11, 239232, Control_c, 9, 7, 19
11, 239232, Note_on_c, 9, 38, 110
11, 239232, Note_on_c, 9, 46, 110
11, 239424, Note_off_c, 9, 46, 64
11, 239424, Note_off_c, 9, 38, 64
11, 239424, Control_c, 9, 7, 18
11, 239424, Note_on_c, 9, 44, 64
11, 239520, Note_off_c, 9, 44, 64
11, 239616, Control_c, 9, 7, 17
11, 239616, Note_on_c, 9, 44, 110
11, 239616, Note_on_c, 9, 36, 110
11, 239712, Note_off_c, 9, 44, 64
11, 239808, Note_off_c, 9, 36, 64
11, 239808, Control_c, 9, 7, 16
11, 239808, Note_on_c, 9, 44, 96
11, 239904, Note_off_c, 9, 44, 64
11, 240000, Control_c, 9, 7, 15
11, 240000, Note_on_c, 9, 44, 64
11, 240096, Note_off_c, 9, 44, 64
11, 240192, Control_c, 9, 7, 14
11, 240192, Note_on_c, 9, 38, 110
11, 240192, Note_on_c, 9, 44, 110
11, 240288, Note_off_c, 9, 44, 64
11, 240384, Note_off_c, 9, 38, 64
11, 240384, Control_c, 9, 7, 13
11, 240384, Note_on_c, 9, 44, 96
11, 240480, Note_off_c, 9, 44, 64
11, 240576, Control_c, 9, 7, 12
11, 240576, Note_on_c, 9, 44, 64
11, 240672, Note_off_c, 9, 44, 64
11, 240768, Control_c, 9, 7, 11
11, 240768, Note_on_c, 9, 44, 110
11, 240768, Note_on_c, 9, 36, 110
11, 240864, Note_off_c, 9, 44, 64
11, 240960, Note_off_c, 9, 36, 64
11, 240960, Control_c, 9, 7, 10
11, 240960, Note_on_c, 9, 44, 96
11, 241056, Note_off_c, 9, 44, 64
11, 241152, Control_c, 9, 7, 9
11, 241152, Note_on_c, 9, 36, 110
11, 241152, Note_on_c, 9, 44, 64
11, 241248, Note_off_c, 9, 44, 64
11, 241248, Control_c, 9, 7, 8
11, 241344, Note_off_c, 9, 36, 64
11, 241344, Note_on_c, 9, 44, 110
11, 241440, Note_off_c, 9, 44, 64
11, 241440, Control_c, 9, 7, 7
11, 241536, Note_on_c, 9, 38, 110
11, 241536, Note_on_c, 9, 44, 96
11, 241632, Note_off_c, 9, 44, 64
11, 241632, Control_c, 9, 7, 6
11, 241728, Note_off_c, 9, 38, 64
11, 241728, Note_on_c, 9, 36, 110
11, 241728, Note_on_c, 9, 44, 64
11, 241824, Note_off_c, 9, 44, 64
11, 241824, Control_c, 9, 7, 5
11, 241920, Note_off_c, 9, 36, 64
11, 241920, Note_on_c, 9, 44, 110
11, 242016, Note_off_c, 9, 44, 64
11, 242016, Control_c, 9, 7, 4
11, 242112, Note_on_c, 9, 44, 96
11, 242208, Note_off_c, 9, 44, 64
11, 242208, Control_c, 9, 7, 3
11, 242304, Note_on_c, 9, 38, 110
11, 242304, Note_on_c, 9, 46, 110
11, 242400, Control_c, 9, 7, 2
11, 242496, Note_off_c, 9, 46, 64
11, 242496, Note_off_c, 9, 38, 64
11, 242496, Note_on_c, 9, 44, 64
11, 242592, Note_off_c, 9, 44, 64
11, 242592, Control_c, 9, 7, 1
11, 242688, End_track
12, 0, Start_track
12, 0, Title_t, "Marino"
12, 0, Control_c, 10, 7, 80
12, 0, Program_c, 10, 19
12, 0, Control_c, 10, 10, 64
12, 0, Control_c, 10, 91, 127
12, 95232, Control_c, 10, 7, 80
12, 95232, Program_c, 10, 19
12, 95232, Note_on_c, 10, 52, 64
12, 95232, Note_on_c, 10, 64, 91
12, 95232, Note_on_c, 10, 69, 91
12, 98304, Note_off_c, 10, 69, 64
12, 98304, Note_off_c, 10, 64, 64
12, 98304, Note_off_c, 10, 52, 64
12, 98304, Note_on_c, 10, 54, 64
12, 98304, Note_on_c, 10, 66, 86
12, 98304, Note_on_c, 10, 71, 86
12, 101376, Note_off_c, 10, 71, 64
12, 101376, Note_off_c, 10, 66, 64
12, 101376, Note_off_c, 10, 54, 64
12, 101376, Control_c, 10, 7, 80
12, 101376, Program_c, 10, 19
12, 101376, Note_on_c, 10, 68, 82
12, 101376, Note_on_c, 10, 73, 82
12, 103680, Note_off_c, 10, 73, 64
12, 103680, Note_off_c, 10, 68, 64
12, 103680, Note_on_c, 10, 66, 82
12, 103680, Note_on_c, 10, 71, 82
12, 104448, Note_off_c, 10, 71, 64
12, 104448, Note_off_c, 10, 66, 64
12, 104448, Note_on_c, 10, 76, 82
12, 104448, Note_on_c, 10, 64, 82
12, 106752, Note_off_c, 10, 64, 64
12, 106752, Note_off_c, 10, 76, 64
12, 106752, Note_on_c, 10, 80, 82
12, 106752, Note_on_c, 10, 63, 82
12, 107520, Note_off_c, 10, 63, 64
12, 107520, Note_off_c, 10, 80, 64
12, 107520, Note_on_c, 10, 78, 82
12, 107520, Note_on_c, 10, 61, 82
12, 109824, Note_off_c, 10, 61, 64
12, 109824, Note_off_c, 10, 78, 64
12, 109824, Note_on_c, 10, 76, 82
12, 109824, Note_on_c, 10, 59, 82
12, 110592, Note_off_c, 10, 59, 64
12, 110592, Note_off_c, 10, 76, 64
12, 110592, Note_on_c, 10, 66, 82
12, 110592, Note_on_c, 10, 78, 82
12, 113664, Note_off_c, 10, 78, 64
12, 113664, Note_off_c, 10, 66, 64
12, 190464, Control_c, 10, 7, 80
12, 190464, Program_c, 10, 19
12, 190464, Note_on_c, 10, 52, 64
12, 190464, Note_on_c, 10, 64, 91
12, 190464, Note_on_c, 10, 69, 91
12, 193536, Note_off_c, 10, 69, 64
12, 193536, Note_off_c, 10, 64, 64
12, 193536, Note_off_c, 10, 52, 64
12, 193536, Note_on_c, 10, 54, 64
12, 193536, Note_on_c, 10, 66, 86
12, 193536, Note_on_c, 10, 71, 86
12, 196608, Note_off_c, 10, 71, 64
12, 196608, Note_off_c, 10, 66, 64
12, 196608, Note_off_c, 10, 54, 64
12, 196608, Control_c, 10, 7, 80
12, 196608, Program_c, 10, 19
12, 196608, Note_on_c, 10, 68, 82
12, 196608, Note_on_c, 10, 73, 82
12, 198912, Note_off_c, 10, 73, 64
12, 198912, Note_off_c, 10, 68, 64
12, 198912, Note_on_c, 10, 66, 82
12, 198912, Note_on_c, 10, 71, 82
12, 199680, Note_off_c, 10, 71, 64
12, 199680, Note_off_c, 10, 66, 64
12, 199680, Note_on_c, 10, 76, 82
12, 199680, Note_on_c, 10, 64, 82
12, 201984, Note_off_c, 10, 64, 64
12, 201984, Note_off_c, 10, 76, 64
12, 201984, Note_on_c, 10, 80, 82
12, 201984, Note_on_c, 10, 63, 82
12, 202752, Note_off_c, 10, 63, 64
12, 202752, Note_off_c, 10, 80, 64
12, 202752, Note_on_c, 10, 78, 82
12, 202752, Note_on_c, 10, 61, 82
12, 205056, Note_off_c, 10, 61, 64
12, 205056, Note_off_c, 10, 78, 64
12, 205056, Note_on_c, 10, 76, 82
12, 205056, Note_on_c, 10, 59, 82
12, 205824, Note_off_c, 10, 59, 64
12, 205824, Note_off_c, 10, 76, 64
12, 205824, Note_on_c, 10, 66, 82
12, 205824, Note_on_c, 10, 78, 82
12, 208896, Note_off_c, 10, 78, 64
12, 208896, Note_off_c, 10, 66, 64
12, 208896, End_track
0, 0, End_of_file
