0, 0, Header, 1, 6, 480
1, 0, Start_track
1, 0, Title_t, ""
1, 0, Time_signature, 4, 2, 24, 8
1, 0, Tempo, 681818
1, 0, Tempo, 681818
1, 0, Tempo, 681818
1, 0, Tempo, 681818
1, 0, Tempo, 681818
1, 840, Tempo, 3000000
1, 840, Tempo, 769230
1, 3360, Tempo, 845070
1, 3840, Tempo, 769230
1, 18240, Tempo, 1000000
1, 18240, End_track
2, 0, Start_track
2, 0, Title_t, ""
2, 0, System_exclusive, 8, 67, 16, 76, 0, 0, 126, 0, 247
2, 0, System_exclusive, 9, 67, 16, 76, 2, 1, 0, 1, 7, 247
2, 0, System_exclusive, 8, 67, 16, 76, 0, 0, 4, 127, 247
2, 0, System_exclusive, 8, 67, 16, 76, 8, 1, 8, 52, 247
2, 0, End_track
3, 0, Start_track
3, 0, Title_t, ""
3, 0, End_track
4, 0, Start_track
4, 0, Title_t, ""
4, 0, Control_c, 2, 0, 0
4, 0, Control_c, 2, 32, 0
4, 0, Program_c, 2, 6
4, 0, Pitch_bend_c, 2, 8192
4, 0, Control_c, 2, 1, 0
4, 0, Control_c, 2, 7, 127
4, 0, Control_c, 2, 10, 30
4, 0, Control_c, 2, 11, 118
4, 0, Control_c, 2, 91, 90
4, 0, Control_c, 2, 93, 10
4, 0, Control_c, 2, 99, 1
4, 0, Control_c, 2, 98, 32
4, 0, Control_c, 2, 6, 66
4, 2400, Note_on_c, 2, 79, 112
4, 2635, Note_on_c, 2, 79, 0
4, 2640, Note_on_c, 2, 76, 95
4, 2875, Note_on_c, 2, 76, 0
4, 3360, Note_on_c, 2, 67, 112
4, 3595, Note_on_c, 2, 67, 0
4, 3600, Note_on_c, 2, 64, 105
4, 3835, Note_on_c, 2, 64, 0
4, 3840, Note_on_c, 2, 62, 106
4, 4310, Note_on_c, 2, 62, 0
4, 4320, Note_on_c, 2, 64, 108
4, 4555, Note_on_c, 2, 64, 0
4, 4560, Note_on_c, 2, 65, 111
4, 4795, Note_on_c, 2, 65, 0
4, 4800, Note_on_c, 2, 64, 106
4, 5270, Note_on_c, 2, 64, 0
4, 5280, Note_on_c, 2, 65, 107
4, 5515, Note_on_c, 2, 65, 0
4, 5520, Note_on_c, 2, 67, 110
4, 5755, Note_on_c, 2, 67, 0
4, 5760, Note_on_c, 2, 69, 106
4, 5760, Note_on_c, 2, 72, 106
4, 6230, Note_on_c, 2, 69, 0
4, 6230, Note_on_c, 2, 72, 0
4, 6240, Note_on_c, 2, 70, 110
4, 6240, Note_on_c, 2, 74, 110
4, 6475, Note_on_c, 2, 70, 0
4, 6475, Note_on_c, 2, 74, 0
4, 6480, Note_on_c, 2, 69, 100
4, 6480, Note_on_c, 2, 72, 100
4, 6715, Note_on_c, 2, 69, 0
4, 6715, Note_on_c, 2, 72, 0
4, 6720, Note_on_c, 2, 67, 106
4, 6720, Note_on_c, 2, 72, 106
4, 7661, Note_on_c, 2, 67, 0
4, 7661, Note_on_c, 2, 72, 0
4, 7680, Note_on_c, 2, 74, 109
4, 7680, Note_on_c, 2, 69, 109
4, 8150, Note_on_c, 2, 74, 0
4, 8150, Note_on_c, 2, 69, 0
4, 8160, Note_on_c, 2, 70, 108
4, 8160, Note_on_c, 2, 67, 108
4, 8395, Note_on_c, 2, 67, 0
4, 8400, Note_on_c, 2, 65, 104
4, 8630, Note_on_c, 2, 70, 0
4, 8635, Note_on_c, 2, 65, 0
4, 8640, Note_on_c, 2, 76, 108
4, 8640, Note_on_c, 2, 64, 108
4, 9110, Note_on_c, 2, 76, 0
4, 9110, Note_on_c, 2, 64, 0
4, 9120, Note_on_c, 2, 60, 101
4, 9120, Note_on_c, 2, 72, 101
4, 9590, Note_on_c, 2, 60, 0
4, 9590, Note_on_c, 2, 72, 0
4, 9600, Note_on_c, 2, 72, 88
4, 9600, Note_on_c, 2, 60, 88
4, 9835, Note_on_c, 2, 72, 0
4, 9835, Note_on_c, 2, 60, 0
4, 9840, Note_on_c, 2, 74, 96
4, 9840, Note_on_c, 2, 62, 96
4, 10075, Note_on_c, 2, 74, 0
4, 10075, Note_on_c, 2, 62, 0
4, 10080, Note_on_c, 2, 74, 92
4, 10080, Note_on_c, 2, 62, 92
4, 10786, Note_on_c, 2, 74, 0
4, 10795, Note_on_c, 2, 62, 0
4, 10800, Note_on_c, 2, 79, 92
4, 10800, Note_on_c, 2, 67, 92
4, 11035, Note_on_c, 2, 79, 0
4, 11035, Note_on_c, 2, 67, 0
4, 11040, Note_on_c, 2, 83, 100
4, 11040, Note_on_c, 2, 71, 100
4, 11275, Note_on_c, 2, 83, 0
4, 11275, Note_on_c, 2, 71, 0
4, 11280, Note_on_c, 2, 84, 105
4, 11280, Note_on_c, 2, 72, 105
4, 11515, Note_on_c, 2, 84, 0
4, 11515, Note_on_c, 2, 72, 0
4, 11520, Note_on_c, 2, 70, 107
4, 11520, Note_on_c, 2, 65, 107
4, 11520, Note_on_c, 2, 84, 118
4, 11520, Note_on_c, 2, 72, 124
4, 11520, Note_on_c, 2, 77, 107
4, 11990, Note_on_c, 2, 70, 0
4, 11990, Note_on_c, 2, 84, 0
4, 11990, Note_on_c, 2, 72, 0
4, 11990, Note_on_c, 2, 77, 0
4, 12000, Note_on_c, 2, 70, 106
4, 12000, Note_on_c, 2, 82, 106
4, 12461, Note_on_c, 2, 65, 0
4, 12470, Note_on_c, 2, 70, 0
4, 12470, Note_on_c, 2, 82, 0
4, 12480, Note_on_c, 2, 79, 96
4, 12480, Note_on_c, 2, 64, 96
4, 12480, Note_on_c, 2, 72, 96
4, 12480, Note_on_c, 2, 67, 96
4, 12950, Note_on_c, 2, 79, 0
4, 12950, Note_on_c, 2, 64, 0
4, 12950, Note_on_c, 2, 72, 0
4, 12960, Note_on_c, 2, 60, 103
4, 13421, Note_on_c, 2, 67, 0
4, 13430, Note_on_c, 2, 60, 0
4, 13440, Note_on_c, 2, 68, 98
4, 13440, Note_on_c, 2, 61, 98
4, 13675, Note_on_c, 2, 68, 0
4, 13680, Note_on_c, 2, 68, 103
4, 13915, Note_on_c, 2, 68, 0
4, 13920, Note_on_c, 2, 73, 95
4, 14381, Note_on_c, 2, 61, 0
4, 14390, Note_on_c, 2, 73, 0
4, 14400, Note_on_c, 2, 67, 102
4, 14400, Note_on_c, 2, 63, 102
4, 14640, Note_on_c, 2, 70, 107
4, 14875, Note_on_c, 2, 70, 0
4, 14880, Note_on_c, 2, 75, 96
4, 15341, Note_on_c, 2, 67, 0
4, 15341, Note_on_c, 2, 63, 0
4, 15350, Note_on_c, 2, 75, 0
4, 15360, Note_on_c, 2, 64, 99
4, 15360, Note_on_c, 2, 71, 99
4, 15830, Note_on_c, 2, 64, 0
4, 15830, Note_on_c, 2, 71, 0
4, 15840, Note_on_c, 2, 61, 102
4, 15840, Note_on_c, 2, 71, 102
4, 16310, Note_on_c, 2, 61, 0
4, 16310, Note_on_c, 2, 71, 0
4, 16320, Note_on_c, 2, 66, 100
4, 16320, Note_on_c, 2, 71, 100
4, 16790, Note_on_c, 2, 66, 0
4, 16790, Note_on_c, 2, 71, 0
4, 16800, Note_on_c, 2, 63, 101
4, 16800, Note_on_c, 2, 69, 101
4, 17270, Note_on_c, 2, 63, 0
4, 17270, Note_on_c, 2, 69, 0
4, 17270, End_track
5, 0, Start_track
5, 0, Title_t, ""
5, 0, Control_c, 3, 0, 0
5, 0, Control_c, 3, 32, 0
5, 0, Program_c, 3, 6
5, 0, Pitch_bend_c, 3, 8192
5, 0, Control_c, 3, 1, 0
5, 0, Control_c, 3, 7, 127
5, 0, Control_c, 3, 10, 64
5, 0, Control_c, 3, 11, 125
5, 0, Control_c, 3, 91, 90
5, 0, Control_c, 3, 93, 10
5, 0, Control_c, 3, 99, 1
5, 0, Control_c, 3, 98, 32
5, 0, Control_c, 3, 6, 66
5, 1920, Note_on_c, 3, 86, 115
5, 2155, Note_on_c, 3, 86, 0
5, 2160, Note_on_c, 3, 84, 109
5, 2395, Note_on_c, 3, 84, 0
5, 2400, Note_on_c, 3, 84, 100
5, 2870, Note_on_c, 3, 84, 0
5, 2880, Note_on_c, 3, 74, 111
5, 3115, Note_on_c, 3, 74, 0
5, 3120, Note_on_c, 3, 72, 110
5, 3355, Note_on_c, 3, 72, 0
5, 3360, Note_on_c, 3, 72, 100
5, 3830, Note_on_c, 3, 72, 0
5, 3840, Note_on_c, 3, 74, 94
5, 3840, Note_on_c, 3, 69, 94
5, 4781, Note_on_c, 3, 74, 0
5, 4781, Note_on_c, 3, 69, 0
5, 4800, Note_on_c, 3, 67, 94
5, 4800, Note_on_c, 3, 72, 94
5, 5741, Note_on_c, 3, 67, 0
5, 5741, Note_on_c, 3, 72, 0
5, 5760, Note_on_c, 3, 60, 108
5, 6230, Note_on_c, 3, 60, 0
5, 6240, Note_on_c, 3, 62, 103
5, 6475, Note_on_c, 3, 62, 0
5, 6480, Note_on_c, 3, 60, 93
5, 6715, Note_on_c, 3, 60, 0
5, 6720, Note_on_c, 3, 60, 105
5, 7661, Note_on_c, 3, 60, 0
5, 7680, Note_on_c, 3, 62, 103
5, 8150, Note_on_c, 3, 62, 0
5, 8160, Note_on_c, 3, 58, 96
5, 8630, Note_on_c, 3, 58, 0
5, 8640, Note_on_c, 3, 64, 101
5, 9110, Note_on_c, 3, 64, 0
5, 9120, Note_on_c, 3, 60, 95
5, 9590, Note_on_c, 3, 60, 0
5, 11520, Note_on_c, 3, 74, 119
5, 11990, Note_on_c, 3, 74, 0
5, 12000, Note_on_c, 3, 76, 122
5, 12235, Note_on_c, 3, 76, 0
5, 12240, Note_on_c, 3, 77, 127
5, 12475, Note_on_c, 3, 77, 0
5, 12480, Note_on_c, 3, 76, 124
5, 12950, Note_on_c, 3, 76, 0
5, 12960, Note_on_c, 3, 72, 122
5, 13430, Note_on_c, 3, 72, 0
5, 13440, Note_on_c, 3, 77, 126
5, 13910, Note_on_c, 3, 77, 0
5, 13920, Note_on_c, 3, 79, 122
5, 14155, Note_on_c, 3, 79, 0
5, 14160, Note_on_c, 3, 80, 126
5, 14395, Note_on_c, 3, 80, 0
5, 14400, Note_on_c, 3, 79, 123
5, 14870, Note_on_c, 3, 79, 0
5, 14880, Note_on_c, 3, 75, 119
5, 15350, Note_on_c, 3, 75, 0
5, 15360, Note_on_c, 3, 80, 124
5, 15830, Note_on_c, 3, 80, 0
5, 15840, Note_on_c, 3, 78, 121
5, 16075, Note_on_c, 3, 78, 0
5, 16080, Note_on_c, 3, 76, 115
5, 16315, Note_on_c, 3, 76, 0
5, 16320, Note_on_c, 3, 75, 121
5, 16790, Note_on_c, 3, 75, 0
5, 16800, Note_on_c, 3, 71, 112
5, 17270, Note_on_c, 3, 71, 0
5, 17280, Note_on_c, 3, 71, 119
5, 17515, Note_on_c, 3, 71, 0
5, 17520, Note_on_c, 3, 73, 120
5, 17755, Note_on_c, 3, 73, 0
5, 17760, Note_on_c, 3, 73, 120
5, 19171, Note_on_c, 3, 73, 0
5, 19171, End_track
6, 0, Start_track
6, 0, Title_t, ""
6, 0, Control_c, 4, 0, 0
6, 0, Control_c, 4, 32, 0
6, 0, Program_c, 4, 6
6, 0, Pitch_bend_c, 4, 8192
6, 0, Control_c, 4, 1, 0
6, 0, Control_c, 4, 7, 127
6, 0, Control_c, 4, 10, 100
6, 0, Control_c, 4, 11, 110
6, 0, Control_c, 4, 91, 90
6, 0, Control_c, 4, 93, 10
6, 0, Control_c, 4, 99, 1
6, 0, Control_c, 4, 98, 32
6, 0, Control_c, 4, 6, 66
6, 1920, Note_on_c, 4, 86, 110
6, 1920, Note_on_c, 4, 88, 105
6, 1920, Note_on_c, 4, 79, 95
6, 2390, Note_on_c, 4, 86, 0
6, 2390, Note_on_c, 4, 88, 0
6, 2390, Note_on_c, 4, 79, 0
6, 2400, Note_on_c, 4, 76, 105
6, 2400, Note_on_c, 4, 79, 100
6, 2870, Note_on_c, 4, 76, 0
6, 2870, Note_on_c, 4, 79, 0
6, 2880, Note_on_c, 4, 79, 105
6, 2880, Note_on_c, 4, 76, 100
6, 3350, Note_on_c, 4, 79, 0
6, 3350, Note_on_c, 4, 76, 0
6, 3360, Note_on_c, 4, 72, 105
6, 3830, Note_on_c, 4, 72, 0
6, 3840, Note_on_c, 4, 65, 105
6, 3840, Note_on_c, 4, 62, 95
6, 3840, Note_on_c, 4, 57, 85
6, 4781, Note_on_c, 4, 65, 0
6, 4781, Note_on_c, 4, 62, 0
6, 4781, Note_on_c, 4, 57, 0
6, 4800, Note_on_c, 4, 64, 105
6, 4800, Note_on_c, 4, 52, 85
6, 4800, Note_on_c, 4, 67, 105
6, 4800, Note_on_c, 4, 60, 95
6, 5270, Note_on_c, 4, 52, 0
6, 5280, Note_on_c, 4, 48, 85
6, 5741, Note_on_c, 4, 64, 0
6, 5741, Note_on_c, 4, 67, 0
6, 5741, Note_on_c, 4, 60, 0
6, 5750, Note_on_c, 4, 48, 0
6, 5760, Note_on_c, 4, 53, 85
6, 5760, Note_on_c, 4, 60, 95
6, 5760, Note_on_c, 4, 65, 105
6, 6701, Note_on_c, 4, 53, 0
6, 6701, Note_on_c, 4, 60, 0
6, 6701, Note_on_c, 4, 65, 0
6, 6720, Note_on_c, 4, 52, 85
6, 6720, Note_on_c, 4, 60, 95
6, 6720, Note_on_c, 4, 64, 105
6, 7661, Note_on_c, 4, 52, 0
6, 7661, Note_on_c, 4, 60, 0
6, 7661, Note_on_c, 4, 64, 0
6, 7680, Note_on_c, 4, 53, 95
6, 7680, Note_on_c, 4, 65, 115
6, 7680, Note_on_c, 4, 50, 105
6, 7680, Note_on_c, 4, 46, 85
6, 8621, Note_on_c, 4, 53, 0
6, 8621, Note_on_c, 4, 65, 0
6, 8621, Note_on_c, 4, 50, 0
6, 8621, Note_on_c, 4, 46, 0
6, 8640, Note_on_c, 4, 67, 115
6, 8640, Note_on_c, 4, 55, 95
6, 8640, Note_on_c, 4, 48, 85
6, 8640, Note_on_c, 4, 52, 95
6, 9360, Note_on_c, 4, 58, 105
6, 9581, Note_on_c, 4, 67, 0
6, 9581, Note_on_c, 4, 55, 0
6, 9581, Note_on_c, 4, 48, 0
6, 9581, Note_on_c, 4, 52, 0
6, 9595, Note_on_c, 4, 58, 0
6, 9600, Note_on_c, 4, 55, 85
6, 9840, Note_on_c, 4, 62, 95
6, 10080, Note_on_c, 4, 67, 100
6, 11491, Note_on_c, 4, 67, 0
6, 11501, Note_on_c, 4, 55, 0
6, 11501, Note_on_c, 4, 62, 0
6, 11520, Note_on_c, 4, 53, 95
6, 11760, Note_on_c, 4, 46, 85
6, 11820, Note_on_c, 4, 53, 0
6, 12000, Note_on_c, 4, 53, 95
6, 12470, Note_on_c, 4, 46, 0
6, 12470, Note_on_c, 4, 53, 0
6, 12480, Note_on_c, 4, 48, 85
6, 12720, Note_on_c, 4, 55, 95
6, 12955, Note_on_c, 4, 55, 0
6, 12960, Note_on_c, 4, 60, 100
6, 13186, Note_on_c, 4, 48, 0
6, 13200, Note_on_c, 4, 48, 85
6, 13435, Note_on_c, 4, 60, 0
6, 13435, Note_on_c, 4, 48, 0
6, 13440, Note_on_c, 4, 49, 85
6, 13680, Note_on_c, 4, 56, 95
6, 13915, Note_on_c, 4, 56, 0
6, 13920, Note_on_c, 4, 61, 100
6, 14381, Note_on_c, 4, 49, 0
6, 14390, Note_on_c, 4, 61, 0
6, 14400, Note_on_c, 4, 51, 85
6, 14640, Note_on_c, 4, 58, 95
6, 14875, Note_on_c, 4, 58, 0
6, 14880, Note_on_c, 4, 63, 100
6, 15106, Note_on_c, 4, 51, 0
6, 15115, Note_on_c, 4, 63, 0
6, 15120, Note_on_c, 4, 51, 95
6, 15355, Note_on_c, 4, 51, 0
6, 15360, Note_on_c, 4, 59, 95
6, 15360, Note_on_c, 4, 52, 85
6, 15360, Note_on_c, 4, 64, 105
6, 15830, Note_on_c, 4, 59, 0
6, 15830, Note_on_c, 4, 52, 0
6, 15830, Note_on_c, 4, 64, 0
6, 15840, Note_on_c, 4, 59, 95
6, 15840, Note_on_c, 4, 52, 85
6, 15840, Note_on_c, 4, 56, 105
6, 16310, Note_on_c, 4, 59, 0
6, 16310, Note_on_c, 4, 52, 0
6, 16310, Note_on_c, 4, 56, 0
6, 16320, Note_on_c, 4, 66, 105
6, 16320, Note_on_c, 4, 63, 100
6, 16320, Note_on_c, 4, 56, 85
6, 16790, Note_on_c, 4, 66, 0
6, 16790, Note_on_c, 4, 63, 0
6, 16790, Note_on_c, 4, 56, 0
6, 16800, Note_on_c, 4, 54, 85
6, 16800, Note_on_c, 4, 59, 95
6, 16800, Note_on_c, 4, 63, 105
6, 17270, Note_on_c, 4, 54, 0
6, 17270, Note_on_c, 4, 59, 0
6, 17270, Note_on_c, 4, 63, 0
6, 17280, Note_on_c, 4, 49, 85
6, 17520, Note_on_c, 4, 56, 95
6, 17755, Note_on_c, 4, 56, 0
6, 17760, Note_on_c, 4, 61, 100
6, 18221, Note_on_c, 4, 49, 0
6, 18230, Note_on_c, 4, 61, 0
6, 18240, Note_on_c, 4, 37, 85
6, 19181, Note_on_c, 4, 37, 0
6, 19181, End_track
0, 0, End_of_file
