0, 0, Header, 1, 5, 192
1, 0, Start_track
1, 0, Title_t, "Hymn of the Fayth"
1, 0, Text_t, "By Nobuo Uematsu/ Arr. Simmen Stenil"
1, 0, Copyright_t, "Copyright © 2002 by Simmen Stenil"
1, 0, Copyright_t, "All Rights Reserved"
1, 0, Text_t, "Generated by NoteWorthy Composer"
1, 0, Tempo, 705882
1, 0, Time_signature, 4, 2, 24, 8
1, 0, End_track
2, 0, Start_track
2, 0, MIDI_port, 0
2, 0, Title_t, "Staff"
2, 0, Control_c, 0, 7, 127
2, 0, Control_c, 0, 10, 64
2, 0, Control_c, 0, 7, 127
2, 0, Control_c, 0, 10, 64
2, 0, Program_c, 0, 53
2, 192, Note_on_c, 0, 74, 108
2, 352, Note_on_c, 0, 74, 0
2, 384, Note_on_c, 0, 77, 108
2, 544, Note_on_c, 0, 77, 0
2, 576, Note_on_c, 0, 76, 108
2, 736, Note_on_c, 0, 76, 0
2, 768, Note_on_c, 0, 72, 108
2, 768, Note_on_c, 0, 79, 108
2, 1488, Note_on_c, 0, 72, 0
2, 1488, Note_on_c, 0, 79, 0
2, 1728, Note_on_c, 0, 79, 108
2, 1888, Note_on_c, 0, 79, 0
2, 1920, Note_on_c, 0, 77, 108
2, 2080, Note_on_c, 0, 77, 0
2, 2112, Note_on_c, 0, 79, 108
2, 2206, Note_on_c, 0, 79, 0
2, 2208, Note_on_c, 0, 81, 108
2, 2302, Note_on_c, 0, 81, 0
2, 2304, Note_on_c, 0, 74, 108
2, 3024, Note_on_c, 0, 74, 0
2, 3648, Note_on_c, 0, 76, 108
2, 3808, Note_on_c, 0, 76, 0
2, 3840, Note_on_c, 0, 76, 108
2, 4560, Note_on_c, 0, 76, 0
2, 4800, Note_on_c, 0, 77, 108
2, 4960, Note_on_c, 0, 77, 0
2, 4992, Note_on_c, 0, 76, 108
2, 5152, Note_on_c, 0, 76, 0
2, 5184, Note_on_c, 0, 79, 108
2, 5278, Note_on_c, 0, 79, 0
2, 5280, Note_on_c, 0, 81, 108
2, 5374, Note_on_c, 0, 81, 0
2, 5376, Note_on_c, 0, 74, 108
2, 6096, Note_on_c, 0, 74, 0
2, 6912, Note_on_c, 0, 74, 108
2, 7072, Note_on_c, 0, 74, 0
2, 7104, Note_on_c, 0, 74, 108
2, 7264, Note_on_c, 0, 74, 0
2, 7296, Note_on_c, 0, 76, 108
2, 7456, Note_on_c, 0, 76, 0
2, 7488, Note_on_c, 0, 76, 108
2, 7648, Note_on_c, 0, 76, 0
2, 7680, Note_on_c, 0, 77, 108
2, 8016, Note_on_c, 0, 77, 0
2, 8064, Note_on_c, 0, 77, 108
2, 8608, Note_on_c, 0, 77, 0
2, 8832, Note_on_c, 0, 76, 108
2, 8992, Note_on_c, 0, 76, 0
2, 9024, Note_on_c, 0, 72, 108
2, 9184, Note_on_c, 0, 72, 0
2, 9216, Note_on_c, 0, 72, 108
2, 9376, Note_on_c, 0, 72, 0
2, 9408, Note_on_c, 0, 74, 108
2, 9568, Note_on_c, 0, 74, 0
2, 9600, Note_on_c, 0, 74, 108
2, 10512, Note_on_c, 0, 74, 0
2, 10512, End_track
3, 0, Start_track
3, 0, MIDI_port, 0
3, 0, Title_t, "Staff-1"
3, 0, Control_c, 1, 7, 127
3, 0, Control_c, 1, 10, 64
3, 0, Control_c, 1, 7, 127
3, 0, Control_c, 1, 10, 64
3, 0, Program_c, 1, 53
3, 192, Note_on_c, 1, 65, 92
3, 352, Note_on_c, 1, 65, 0
3, 384, Note_on_c, 1, 69, 92
3, 544, Note_on_c, 1, 69, 0
3, 576, Note_on_c, 1, 67, 92
3, 736, Note_on_c, 1, 67, 0
3, 768, Note_on_c, 1, 67, 92
3, 1488, Note_on_c, 1, 67, 0
3, 1728, Note_on_c, 1, 72, 92
3, 1888, Note_on_c, 1, 72, 0
3, 1920, Note_on_c, 1, 69, 92
3, 2080, Note_on_c, 1, 69, 0
3, 2112, Note_on_c, 1, 74, 92
3, 2206, Note_on_c, 1, 74, 0
3, 2208, Note_on_c, 1, 74, 92
3, 2302, Note_on_c, 1, 74, 0
3, 2304, Note_on_c, 1, 67, 92
3, 3024, Note_on_c, 1, 67, 0
3, 3264, Note_on_c, 1, 69, 92
3, 3424, Note_on_c, 1, 69, 0
3, 3456, Note_on_c, 1, 71, 92
3, 3616, Note_on_c, 1, 71, 0
3, 3648, Note_on_c, 1, 67, 92
3, 3808, Note_on_c, 1, 67, 0
3, 3840, Note_on_c, 1, 69, 92
3, 4560, Note_on_c, 1, 69, 0
3, 4800, Note_on_c, 1, 64, 92
3, 4960, Note_on_c, 1, 64, 0
3, 4992, Note_on_c, 1, 69, 92
3, 5152, Note_on_c, 1, 69, 0
3, 5184, Note_on_c, 1, 69, 92
3, 5278, Note_on_c, 1, 69, 0
3, 5280, Note_on_c, 1, 69, 92
3, 5374, Note_on_c, 1, 69, 0
3, 5376, Note_on_c, 1, 64, 92
3, 5376, Note_on_c, 1, 67, 92
3, 6096, Note_on_c, 1, 64, 0
3, 6096, Note_on_c, 1, 67, 0
3, 6912, Note_on_c, 1, 65, 92
3, 7072, Note_on_c, 1, 65, 0
3, 7104, Note_on_c, 1, 65, 92
3, 7264, Note_on_c, 1, 65, 0
3, 7296, Note_on_c, 1, 67, 92
3, 7456, Note_on_c, 1, 67, 0
3, 7488, Note_on_c, 1, 67, 92
3, 7648, Note_on_c, 1, 67, 0
3, 7680, Note_on_c, 1, 69, 92
3, 8016, Note_on_c, 1, 69, 0
3, 8064, Note_on_c, 1, 69, 92
3, 8608, Note_on_c, 1, 69, 0
3, 8832, Note_on_c, 1, 67, 92
3, 8992, Note_on_c, 1, 67, 0
3, 9024, Note_on_c, 1, 64, 92
3, 9184, Note_on_c, 1, 64, 0
3, 9216, Note_on_c, 1, 64, 92
3, 9376, Note_on_c, 1, 64, 0
3, 9408, Note_on_c, 1, 67, 92
3, 9568, Note_on_c, 1, 67, 0
3, 9600, Note_on_c, 1, 67, 92
3, 10512, Note_on_c, 1, 67, 0
3, 10512, End_track
4, 0, Start_track
4, 0, MIDI_port, 0
4, 0, Title_t, "Staff-2"
4, 0, Control_c, 2, 7, 127
4, 0, Control_c, 2, 10, 64
4, 0, Control_c, 2, 7, 127
4, 0, Control_c, 2, 10, 64
4, 0, Program_c, 2, 53
4, 192, Note_on_c, 2, 69, 75
4, 352, Note_on_c, 2, 69, 0
4, 384, Note_on_c, 2, 72, 75
4, 544, Note_on_c, 2, 72, 0
4, 576, Note_on_c, 2, 71, 75
4, 736, Note_on_c, 2, 71, 0
4, 768, Note_on_c, 2, 76, 75
4, 1488, Note_on_c, 2, 76, 0
4, 1728, Note_on_c, 2, 76, 75
4, 1888, Note_on_c, 2, 76, 0
4, 1920, Note_on_c, 2, 72, 75
4, 2080, Note_on_c, 2, 72, 0
4, 2112, Note_on_c, 2, 76, 75
4, 2206, Note_on_c, 2, 76, 0
4, 2208, Note_on_c, 2, 76, 75
4, 2302, Note_on_c, 2, 76, 0
4, 2304, Note_on_c, 2, 76, 75
4, 3024, Note_on_c, 2, 76, 0
4, 3264, Note_on_c, 2, 72, 75
4, 3264, Note_on_c, 2, 77, 75
4, 3424, Note_on_c, 2, 72, 0
4, 3424, Note_on_c, 2, 77, 0
4, 3456, Note_on_c, 2, 74, 75
4, 3456, Note_on_c, 2, 79, 75
4, 3616, Note_on_c, 2, 74, 0
4, 3616, Note_on_c, 2, 79, 0
4, 3648, Note_on_c, 2, 71, 75
4, 3648, Note_on_c, 2, 74, 75
4, 3808, Note_on_c, 2, 71, 0
4, 3808, Note_on_c, 2, 74, 0
4, 3840, Note_on_c, 2, 69, 75
4, 3840, Note_on_c, 2, 76, 75
4, 4560, Note_on_c, 2, 69, 0
4, 4560, Note_on_c, 2, 76, 0
4, 4800, Note_on_c, 2, 69, 75
4, 4960, Note_on_c, 2, 69, 0
4, 4992, Note_on_c, 2, 67, 75
4, 4992, Note_on_c, 2, 76, 75
4, 5152, Note_on_c, 2, 67, 0
4, 5152, Note_on_c, 2, 76, 0
4, 5184, Note_on_c, 2, 67, 75
4, 5184, Note_on_c, 2, 76, 75
4, 5278, Note_on_c, 2, 67, 0
4, 5278, Note_on_c, 2, 76, 0
4, 5280, Note_on_c, 2, 67, 75
4, 5280, Note_on_c, 2, 72, 75
4, 5374, Note_on_c, 2, 67, 0
4, 5374, Note_on_c, 2, 72, 0
4, 5376, Note_on_c, 2, 74, 75
4, 6096, Note_on_c, 2, 74, 0
4, 6912, Note_on_c, 2, 69, 75
4, 7072, Note_on_c, 2, 69, 0
4, 7104, Note_on_c, 2, 69, 75
4, 7264, Note_on_c, 2, 69, 0
4, 7296, Note_on_c, 2, 71, 75
4, 7456, Note_on_c, 2, 71, 0
4, 7488, Note_on_c, 2, 71, 75
4, 7648, Note_on_c, 2, 71, 0
4, 7680, Note_on_c, 2, 72, 75
4, 8016, Note_on_c, 2, 72, 0
4, 8064, Note_on_c, 2, 72, 75
4, 8608, Note_on_c, 2, 72, 0
4, 8832, Note_on_c, 2, 71, 75
4, 8992, Note_on_c, 2, 71, 0
4, 9024, Note_on_c, 2, 67, 75
4, 9184, Note_on_c, 2, 67, 0
4, 9216, Note_on_c, 2, 67, 75
4, 9376, Note_on_c, 2, 67, 0
4, 9408, Note_on_c, 2, 69, 75
4, 9568, Note_on_c, 2, 69, 0
4, 9600, Note_on_c, 2, 69, 75
4, 10512, Note_on_c, 2, 69, 0
4, 10512, End_track
5, 0, Start_track
5, 0, MIDI_port, 0
5, 0, Title_t, "Staff-3"
5, 0, Control_c, 3, 7, 127
5, 0, Control_c, 3, 10, 64
5, 0, Control_c, 3, 7, 127
5, 0, Control_c, 3, 10, 64
5, 0, Program_c, 3, 53
5, 192, Note_on_c, 3, 50, 60
5, 352, Note_on_c, 3, 50, 0
5, 384, Note_on_c, 3, 50, 60
5, 544, Note_on_c, 3, 50, 0
5, 576, Note_on_c, 3, 50, 60
5, 736, Note_on_c, 3, 50, 0
5, 768, Note_on_c, 3, 50, 60
5, 1488, Note_on_c, 3, 50, 0
5, 1728, Note_on_c, 3, 50, 60
5, 1888, Note_on_c, 3, 50, 0
5, 1920, Note_on_c, 3, 50, 60
5, 2080, Note_on_c, 3, 50, 0
5, 2112, Note_on_c, 3, 50, 60
5, 2206, Note_on_c, 3, 50, 0
5, 2208, Note_on_c, 3, 50, 60
5, 2302, Note_on_c, 3, 50, 0
5, 2304, Note_on_c, 3, 50, 60
5, 3024, Note_on_c, 3, 50, 0
5, 3264, Note_on_c, 3, 50, 60
5, 3424, Note_on_c, 3, 50, 0
5, 3456, Note_on_c, 3, 53, 60
5, 3616, Note_on_c, 3, 53, 0
5, 3648, Note_on_c, 3, 50, 60
5, 3808, Note_on_c, 3, 50, 0
5, 3840, Note_on_c, 3, 48, 60
5, 4560, Note_on_c, 3, 48, 0
5, 4800, Note_on_c, 3, 48, 60
5, 4960, Note_on_c, 3, 48, 0
5, 4992, Note_on_c, 3, 45, 60
5, 5152, Note_on_c, 3, 45, 0
5, 5184, Note_on_c, 3, 45, 60
5, 5278, Note_on_c, 3, 45, 0
5, 5280, Note_on_c, 3, 45, 60
5, 5374, Note_on_c, 3, 45, 0
5, 5376, Note_on_c, 3, 50, 60
5, 6096, Note_on_c, 3, 50, 0
5, 6912, Note_on_c, 3, 50, 60
5, 7072, Note_on_c, 3, 50, 0
5, 7104, Note_on_c, 3, 50, 60
5, 7264, Note_on_c, 3, 50, 0
5, 7296, Note_on_c, 3, 50, 60
5, 7456, Note_on_c, 3, 50, 0
5, 7488, Note_on_c, 3, 50, 60
5, 7648, Note_on_c, 3, 50, 0
5, 7680, Note_on_c, 3, 50, 60
5, 8016, Note_on_c, 3, 50, 0
5, 8064, Note_on_c, 3, 50, 60
5, 8608, Note_on_c, 3, 50, 0
5, 8832, Note_on_c, 3, 50, 60
5, 8992, Note_on_c, 3, 50, 0
5, 9024, Note_on_c, 3, 50, 60
5, 9184, Note_on_c, 3, 50, 0
5, 9216, Note_on_c, 3, 50, 60
5, 9376, Note_on_c, 3, 50, 0
5, 9408, Note_on_c, 3, 50, 60
5, 9568, Note_on_c, 3, 50, 0
5, 9600, Note_on_c, 3, 50, 60
5, 10512, Note_on_c, 3, 50, 0
5, 10512, End_track
0, 0, End_of_file
