0, 0, Header, 1, 9, 120
1, 0, Start_track
1, 0, Title_t, "I can fly"
1, 0, Copyright_t, "Org composer: Masashi Hamauzu  GM sequencer: Thomash Lee"
1, 0, Text_t, "Org composer: Masashi Hamauzu  GM sequencer: Thomash Lee"
1, 0, Time_signature, 4, 2, 24, 8
1, 0, Key_signature, 0, "major"
1, 0, Tempo, 600000
1, 1279, Tempo, 594059
1, 2559, Tempo, 588235
1, 3839, Tempo, 582524
1, 5119, Tempo, 576923
1, 6399, Tempo, 571429
1, 7679, Tempo, 566038
1, 7680, Tempo, 833333
1, 10080, Tempo, 937500
1, 10560, Tempo, 833333
1, 10560, End_track
2, 0, Start_track
2, 0, Title_t, "Slow String 1"
2, 0, Program_c, 0, 49
2, 0, Control_c, 0, 7, 100
2, 0, Control_c, 0, 93, 40
2, 0, Control_c, 0, 11, 64
2, 0, Control_c, 0, 91, 40
2, 0, Note_on_c, 0, 32, 127
2, 30, Control_c, 0, 11, 65
2, 60, Control_c, 0, 11, 66
2, 91, Control_c, 0, 11, 67
2, 121, Control_c, 0, 11, 68
2, 152, Control_c, 0, 11, 69
2, 182, Control_c, 0, 11, 70
2, 213, Control_c, 0, 11, 71
2, 243, Control_c, 0, 11, 72
2, 274, Control_c, 0, 11, 73
2, 304, Control_c, 0, 11, 74
2, 335, Control_c, 0, 11, 75
2, 365, Control_c, 0, 11, 76
2, 395, Control_c, 0, 11, 77
2, 426, Control_c, 0, 11, 78
2, 456, Control_c, 0, 11, 79
2, 487, Control_c, 0, 11, 80
2, 517, Control_c, 0, 11, 81
2, 548, Control_c, 0, 11, 82
2, 578, Control_c, 0, 11, 83
2, 609, Control_c, 0, 11, 84
2, 639, Control_c, 0, 11, 85
2, 670, Control_c, 0, 11, 86
2, 700, Control_c, 0, 11, 87
2, 731, Control_c, 0, 11, 88
2, 761, Control_c, 0, 11, 89
2, 791, Control_c, 0, 11, 90
2, 822, Control_c, 0, 11, 91
2, 852, Control_c, 0, 11, 92
2, 883, Control_c, 0, 11, 93
2, 913, Control_c, 0, 11, 94
2, 944, Control_c, 0, 11, 95
2, 974, Control_c, 0, 11, 96
2, 1005, Control_c, 0, 11, 97
2, 1035, Control_c, 0, 11, 98
2, 1066, Control_c, 0, 11, 99
2, 1096, Control_c, 0, 11, 100
2, 1127, Control_c, 0, 11, 101
2, 1157, Control_c, 0, 11, 102
2, 1187, Control_c, 0, 11, 103
2, 1218, Control_c, 0, 11, 104
2, 1248, Control_c, 0, 11, 105
2, 1279, Control_c, 0, 11, 106
2, 1309, Control_c, 0, 11, 107
2, 1340, Control_c, 0, 11, 108
2, 1370, Control_c, 0, 11, 109
2, 1401, Control_c, 0, 11, 110
2, 1431, Control_c, 0, 11, 111
2, 1462, Control_c, 0, 11, 112
2, 1492, Control_c, 0, 11, 113
2, 1523, Control_c, 0, 11, 114
2, 1553, Control_c, 0, 11, 115
2, 1583, Control_c, 0, 11, 116
2, 1614, Control_c, 0, 11, 117
2, 1644, Control_c, 0, 11, 118
2, 1675, Control_c, 0, 11, 119
2, 1705, Control_c, 0, 11, 120
2, 1736, Control_c, 0, 11, 121
2, 1766, Control_c, 0, 11, 122
2, 1797, Control_c, 0, 11, 123
2, 1827, Control_c, 0, 11, 124
2, 1858, Control_c, 0, 11, 125
2, 1888, Control_c, 0, 11, 126
2, 1919, Control_c, 0, 11, 127
2, 3360, Note_on_c, 0, 32, 0
2, 3360, Note_on_c, 0, 31, 127
2, 4800, Note_on_c, 0, 31, 0
2, 4800, Note_on_c, 0, 32, 127
2, 6240, Note_on_c, 0, 32, 0
2, 6240, Note_on_c, 0, 31, 127
2, 7680, Note_on_c, 0, 31, 0
2, 7680, Note_on_c, 0, 32, 127
2, 8160, Note_on_c, 0, 32, 0
2, 8160, Note_on_c, 0, 31, 127
2, 8640, Note_on_c, 0, 31, 0
2, 8640, Note_on_c, 0, 32, 127
2, 9120, Note_on_c, 0, 32, 0
2, 9120, Note_on_c, 0, 31, 127
2, 9600, Note_on_c, 0, 31, 0
2, 9600, Note_on_c, 0, 32, 127
2, 10080, Note_on_c, 0, 32, 0
2, 10080, Note_on_c, 0, 31, 127
2, 10560, Note_on_c, 0, 31, 0
2, 10560, Note_on_c, 0, 36, 127
2, 10560, Note_on_c, 0, 24, 127
2, 11520, Note_on_c, 0, 24, 0
2, 11520, Note_on_c, 0, 36, 0
2, 11520, Note_on_c, 0, 32, 127
2, 12480, Note_on_c, 0, 32, 0
2, 12480, Note_on_c, 0, 24, 127
2, 12480, Note_on_c, 0, 36, 127
2, 12780, Note_on_c, 0, 37, 127
2, 12780, Note_on_c, 0, 25, 127
2, 12960, Note_on_c, 0, 25, 0
2, 12960, Note_on_c, 0, 24, 0
2, 12960, Note_on_c, 0, 36, 0
2, 12960, Note_on_c, 0, 37, 0
2, 12960, End_track
3, 0, Start_track
3, 0, Title_t, "Slow String 2"
3, 0, Program_c, 2, 49
3, 0, Control_c, 2, 7, 100
3, 0, Control_c, 2, 91, 40
3, 1920, Control_c, 2, 11, 127
3, 1920, Note_on_c, 2, 55, 96
3, 1920, Note_on_c, 2, 56, 96
3, 1920, Note_on_c, 2, 60, 96
3, 2640, Note_on_c, 2, 65, 121
3, 3360, Note_on_c, 2, 65, 0
3, 3360, Note_on_c, 2, 55, 0
3, 3360, Note_on_c, 2, 56, 0
3, 3360, Note_on_c, 2, 60, 0
3, 3360, Note_on_c, 2, 55, 96
3, 3360, Note_on_c, 2, 53, 96
3, 3360, Note_on_c, 2, 60, 96
3, 4080, Note_on_c, 2, 65, 121
3, 4800, Note_on_c, 2, 65, 0
3, 4800, Note_on_c, 2, 55, 0
3, 4800, Note_on_c, 2, 53, 0
3, 4800, Note_on_c, 2, 60, 0
3, 4800, Note_on_c, 2, 55, 96
3, 4800, Note_on_c, 2, 56, 96
3, 4800, Note_on_c, 2, 60, 96
3, 5520, Note_on_c, 2, 65, 121
3, 6240, Note_on_c, 2, 65, 0
3, 6240, Note_on_c, 2, 55, 0
3, 6240, Note_on_c, 2, 56, 0
3, 6240, Note_on_c, 2, 60, 0
3, 6240, Note_on_c, 2, 55, 96
3, 6240, Note_on_c, 2, 53, 96
3, 6240, Note_on_c, 2, 60, 96
3, 6960, Note_on_c, 2, 65, 121
3, 7680, Note_on_c, 2, 65, 0
3, 7680, Note_on_c, 2, 55, 0
3, 7680, Note_on_c, 2, 53, 0
3, 7680, Note_on_c, 2, 60, 0
3, 7680, Note_on_c, 2, 56, 105
3, 7680, Note_on_c, 2, 55, 105
3, 7680, Note_on_c, 2, 60, 105
3, 8160, Note_on_c, 2, 60, 0
3, 8160, Note_on_c, 2, 55, 0
3, 8160, Note_on_c, 2, 56, 0
3, 8160, Note_on_c, 2, 53, 96
3, 8160, Note_on_c, 2, 55, 96
3, 8160, Note_on_c, 2, 58, 105
3, 8640, Note_on_c, 2, 58, 0
3, 8640, Note_on_c, 2, 55, 0
3, 8640, Note_on_c, 2, 53, 0
3, 8640, Note_on_c, 2, 55, 104
3, 8640, Note_on_c, 2, 56, 104
3, 8640, Note_on_c, 2, 60, 104
3, 9120, Note_on_c, 2, 60, 0
3, 9120, Note_on_c, 2, 56, 0
3, 9120, Note_on_c, 2, 55, 0
3, 9120, Note_on_c, 2, 53, 106
3, 9120, Note_on_c, 2, 55, 106
3, 9120, Note_on_c, 2, 58, 106
3, 9600, Note_on_c, 2, 58, 0
3, 9600, Note_on_c, 2, 55, 0
3, 9600, Note_on_c, 2, 53, 0
3, 9600, Note_on_c, 2, 72, 107
3, 9600, Note_on_c, 2, 56, 107
3, 9600, Note_on_c, 2, 55, 107
3, 9600, Note_on_c, 2, 60, 107
3, 10080, Note_on_c, 2, 60, 0
3, 10080, Note_on_c, 2, 72, 0
3, 10080, Note_on_c, 2, 56, 0
3, 10080, Note_on_c, 2, 55, 0
3, 10080, Note_on_c, 2, 74, 106
3, 10080, Note_on_c, 2, 53, 106
3, 10080, Note_on_c, 2, 55, 106
3, 10080, Note_on_c, 2, 58, 106
3, 10320, Note_on_c, 2, 82, 127
3, 10440, Note_on_c, 2, 86, 127
3, 10560, Note_on_c, 2, 86, 0
3, 10560, Note_on_c, 2, 53, 0
3, 10560, Note_on_c, 2, 55, 0
3, 10560, Note_on_c, 2, 74, 0
3, 10560, Note_on_c, 2, 82, 0
3, 10560, Note_on_c, 2, 58, 0
3, 10560, Note_on_c, 2, 84, 124
3, 10560, Note_on_c, 2, 53, 100
3, 10560, Note_on_c, 2, 48, 100
3, 10560, Note_on_c, 2, 55, 100
3, 10560, Note_on_c, 2, 60, 100
3, 10560, Note_on_c, 2, 96, 124
3, 11520, Note_on_c, 2, 96, 0
3, 11520, Note_on_c, 2, 53, 0
3, 11520, Note_on_c, 2, 48, 0
3, 11520, Note_on_c, 2, 84, 0
3, 11520, Note_on_c, 2, 60, 0
3, 11520, Note_on_c, 2, 55, 0
3, 11520, Note_on_c, 2, 44, 127
3, 11520, Note_on_c, 2, 48, 127
3, 11520, Note_on_c, 2, 60, 127
3, 11520, Note_on_c, 2, 56, 127
3, 11520, Note_on_c, 2, 55, 127
3, 11640, Note_on_c, 2, 89, 127
3, 12000, Note_on_c, 2, 89, 0
3, 12480, Note_on_c, 2, 48, 0
3, 12480, Note_on_c, 2, 60, 0
3, 12480, Note_on_c, 2, 44, 0
3, 12480, Note_on_c, 2, 55, 0
3, 12480, Note_on_c, 2, 56, 0
3, 12480, Note_on_c, 2, 53, 127
3, 12480, Note_on_c, 2, 48, 127
3, 12600, Note_on_c, 2, 60, 127
3, 12600, Note_on_c, 2, 55, 127
3, 12960, Note_on_c, 2, 55, 0
3, 12960, Note_on_c, 2, 53, 0
3, 12960, Note_on_c, 2, 48, 0
3, 12960, Note_on_c, 2, 60, 0
3, 12960, Note_on_c, 2, 41, 108
3, 12960, Note_on_c, 2, 55, 108
3, 12960, Note_on_c, 2, 60, 108
3, 12960, Note_on_c, 2, 37, 108
3, 12960, Note_on_c, 2, 53, 108
3, 12960, Note_on_c, 2, 61, 108
3, 12960, Note_on_c, 2, 75, 108
3, 13920, Note_on_c, 2, 75, 0
3, 13920, Note_on_c, 2, 53, 0
3, 13920, Note_on_c, 2, 55, 0
3, 13920, Note_on_c, 2, 60, 0
3, 13920, Note_on_c, 2, 41, 0
3, 13920, Note_on_c, 2, 61, 0
3, 13920, Note_on_c, 2, 37, 0
3, 13920, End_track
4, 0, Start_track
4, 0, Title_t, "Flute"
4, 0, Program_c, 1, 73
4, 0, Control_c, 1, 7, 100
4, 0, Control_c, 1, 91, 40
4, 7680, Control_c, 1, 11, 127
4, 7680, Note_on_c, 1, 72, 123
4, 7920, Note_on_c, 1, 72, 0
4, 7920, Note_on_c, 1, 74, 123
4, 8040, Note_on_c, 1, 74, 0
4, 8040, Note_on_c, 1, 75, 123
4, 8160, Note_on_c, 1, 75, 0
4, 8160, Note_on_c, 1, 77, 124
4, 8400, Note_on_c, 1, 77, 0
4, 8400, Note_on_c, 1, 75, 124
4, 8520, Note_on_c, 1, 75, 0
4, 8520, Note_on_c, 1, 77, 124
4, 8640, Note_on_c, 1, 77, 0
4, 8640, Note_on_c, 1, 79, 125
4, 8880, Note_on_c, 1, 79, 0
4, 8880, Note_on_c, 1, 77, 125
4, 9120, Note_on_c, 1, 77, 0
4, 9120, Note_on_c, 1, 75, 125
4, 9360, Note_on_c, 1, 75, 0
4, 9360, Note_on_c, 1, 82, 125
4, 9600, Note_on_c, 1, 82, 0
4, 9600, Note_on_c, 1, 84, 100
4, 9600, Note_on_c, 1, 72, 125
4, 9840, Note_on_c, 1, 72, 0
4, 9840, Note_on_c, 1, 74, 124
4, 9960, Note_on_c, 1, 74, 0
4, 9960, Note_on_c, 1, 75, 124
4, 10080, Note_on_c, 1, 75, 0
4, 10080, Note_on_c, 1, 84, 0
4, 10080, Note_on_c, 1, 77, 125
4, 10560, Note_on_c, 1, 77, 0
4, 10560, Note_on_c, 1, 79, 125
4, 11520, Note_on_c, 1, 79, 0
4, 11580, Note_on_c, 1, 72, 127
4, 11640, Note_on_c, 1, 72, 0
4, 11640, Note_on_c, 1, 77, 127
4, 11910, Note_on_c, 1, 77, 0
4, 11940, Note_on_c, 1, 79, 127
4, 11970, Note_on_c, 1, 79, 0
4, 11970, Note_on_c, 1, 80, 127
4, 12000, Note_on_c, 1, 80, 0
4, 12000, Note_on_c, 1, 82, 126
4, 12030, Note_on_c, 1, 82, 0
4, 12030, Note_on_c, 1, 80, 127
4, 12060, Note_on_c, 1, 80, 0
4, 12060, Note_on_c, 1, 79, 127
4, 12090, Note_on_c, 1, 79, 0
4, 12090, Note_on_c, 1, 77, 127
4, 12120, Note_on_c, 1, 77, 0
4, 12120, Note_on_c, 1, 79, 127
4, 12150, Note_on_c, 1, 79, 0
4, 12150, Note_on_c, 1, 80, 127
4, 12180, Note_on_c, 1, 80, 0
4, 12180, Note_on_c, 1, 82, 127
4, 12210, Note_on_c, 1, 82, 0
4, 12210, Note_on_c, 1, 80, 127
4, 12240, Note_on_c, 1, 80, 0
4, 12240, Note_on_c, 1, 79, 127
4, 12270, Note_on_c, 1, 79, 0
4, 12270, Note_on_c, 1, 77, 127
4, 12300, Note_on_c, 1, 77, 0
4, 12300, Note_on_c, 1, 79, 127
4, 12330, Note_on_c, 1, 79, 0
4, 12330, Note_on_c, 1, 80, 127
4, 12360, Note_on_c, 1, 80, 0
4, 12360, Note_on_c, 1, 82, 127
4, 12400, Note_on_c, 1, 82, 0
4, 12400, Note_on_c, 1, 80, 127
4, 12440, Note_on_c, 1, 80, 0
4, 12440, Note_on_c, 1, 79, 127
4, 12480, Note_on_c, 1, 79, 0
4, 12480, End_track
5, 0, Start_track
5, 0, Title_t, "French Horn"
5, 0, Program_c, 3, 60
5, 0, Control_c, 3, 7, 100
5, 0, Control_c, 3, 93, 40
5, 0, Control_c, 3, 91, 40
5, 7680, Control_c, 3, 11, 127
5, 7680, Note_on_c, 3, 60, 127
5, 7920, Note_on_c, 3, 60, 0
5, 7920, Note_on_c, 3, 62, 127
5, 8040, Note_on_c, 3, 62, 0
5, 8040, Note_on_c, 3, 63, 127
5, 8160, Note_on_c, 3, 63, 0
5, 8160, Note_on_c, 3, 65, 127
5, 8400, Note_on_c, 3, 65, 0
5, 8400, Note_on_c, 3, 63, 127
5, 8520, Note_on_c, 3, 63, 0
5, 8520, Note_on_c, 3, 65, 127
5, 8640, Note_on_c, 3, 65, 0
5, 8640, Note_on_c, 3, 67, 127
5, 8880, Note_on_c, 3, 67, 0
5, 8880, Note_on_c, 3, 65, 127
5, 9000, Note_on_c, 3, 65, 0
5, 9000, Note_on_c, 3, 70, 111
5, 9120, Note_on_c, 3, 70, 0
5, 9120, Note_on_c, 3, 70, 127
5, 9600, Note_on_c, 3, 70, 0
5, 9600, Note_on_c, 3, 72, 127
5, 10080, Note_on_c, 3, 72, 0
5, 10080, Note_on_c, 3, 70, 127
5, 10560, Note_on_c, 3, 70, 0
5, 10560, Note_on_c, 3, 67, 126
5, 10800, Note_on_c, 3, 67, 0
5, 10800, Note_on_c, 3, 78, 126
5, 10860, Note_on_c, 3, 78, 0
5, 10860, Note_on_c, 3, 74, 126
5, 10920, Note_on_c, 3, 74, 0
5, 10920, Note_on_c, 3, 76, 126
5, 10980, Note_on_c, 3, 76, 0
5, 10980, Note_on_c, 3, 79, 126
5, 11040, Note_on_c, 3, 79, 0
5, 11040, Note_on_c, 3, 78, 126
5, 11070, Note_on_c, 3, 78, 0
5, 11070, Note_on_c, 3, 74, 126
5, 11100, Note_on_c, 3, 74, 0
5, 11100, Note_on_c, 3, 76, 126
5, 11220, Note_on_c, 3, 76, 0
5, 11220, Note_on_c, 3, 72, 126
5, 11280, Note_on_c, 3, 72, 0
5, 11280, Note_on_c, 3, 74, 126
5, 11340, Note_on_c, 3, 74, 0
5, 11340, Note_on_c, 3, 70, 126
5, 11460, Note_on_c, 3, 66, 102
5, 11520, Note_on_c, 3, 66, 0
5, 11520, Note_on_c, 3, 70, 0
5, 11580, Note_on_c, 3, 72, 126
5, 11640, Note_on_c, 3, 72, 0
5, 11640, Note_on_c, 3, 77, 126
5, 11910, Note_on_c, 3, 77, 0
5, 11940, Note_on_c, 3, 79, 126
5, 11970, Note_on_c, 3, 79, 0
5, 11970, Note_on_c, 3, 80, 126
5, 12000, Note_on_c, 3, 80, 0
5, 12000, Note_on_c, 3, 82, 126
5, 12030, Note_on_c, 3, 82, 0
5, 12030, Note_on_c, 3, 80, 126
5, 12060, Note_on_c, 3, 80, 0
5, 12060, Note_on_c, 3, 79, 126
5, 12090, Note_on_c, 3, 79, 0
5, 12090, Note_on_c, 3, 77, 126
5, 12120, Note_on_c, 3, 77, 0
5, 12120, Note_on_c, 3, 79, 126
5, 12150, Note_on_c, 3, 79, 0
5, 12150, Note_on_c, 3, 80, 126
5, 12180, Note_on_c, 3, 80, 0
5, 12180, Note_on_c, 3, 82, 126
5, 12210, Note_on_c, 3, 82, 0
5, 12210, Note_on_c, 3, 80, 126
5, 12240, Note_on_c, 3, 80, 0
5, 12240, Note_on_c, 3, 79, 126
5, 12270, Note_on_c, 3, 79, 0
5, 12270, Note_on_c, 3, 77, 126
5, 12300, Note_on_c, 3, 77, 0
5, 12300, Note_on_c, 3, 79, 126
5, 12330, Note_on_c, 3, 79, 0
5, 12330, Note_on_c, 3, 80, 126
5, 12360, Note_on_c, 3, 80, 0
5, 12360, Note_on_c, 3, 82, 126
5, 12400, Note_on_c, 3, 82, 0
5, 12400, Note_on_c, 3, 80, 126
5, 12440, Note_on_c, 3, 80, 0
5, 12440, Note_on_c, 3, 77, 126
5, 12440, Note_on_c, 3, 79, 126
5, 12480, Note_on_c, 3, 79, 0
5, 12480, Note_on_c, 3, 77, 0
5, 12540, Note_on_c, 3, 67, 110
5, 12660, Note_on_c, 3, 68, 109
5, 12780, Note_on_c, 3, 65, 108
5, 12960, Note_on_c, 3, 65, 0
5, 12960, Note_on_c, 3, 68, 0
5, 12960, Note_on_c, 3, 67, 0
5, 13020, Note_on_c, 3, 67, 98
5, 13920, Note_on_c, 3, 67, 0
5, 13920, End_track
6, 0, Start_track
6, 0, Title_t, "Trombone"
6, 0, Program_c, 4, 57
6, 0, Control_c, 4, 7, 100
6, 0, Control_c, 4, 91, 40
6, 7680, Control_c, 4, 11, 127
6, 7680, Note_on_c, 4, 60, 124
6, 7920, Note_on_c, 4, 60, 0
6, 7920, Note_on_c, 4, 62, 124
6, 8040, Note_on_c, 4, 62, 0
6, 8040, Note_on_c, 4, 63, 124
6, 8160, Note_on_c, 4, 63, 0
6, 8160, Note_on_c, 4, 65, 124
6, 8400, Note_on_c, 4, 65, 0
6, 8400, Note_on_c, 4, 63, 124
6, 8520, Note_on_c, 4, 63, 0
6, 8520, Note_on_c, 4, 65, 124
6, 8640, Note_on_c, 4, 65, 0
6, 8640, Note_on_c, 4, 67, 123
6, 8880, Note_on_c, 4, 67, 0
6, 8880, Note_on_c, 4, 65, 123
6, 9120, Note_on_c, 4, 65, 0
6, 9120, Note_on_c, 4, 63, 123
6, 9360, Note_on_c, 4, 63, 0
6, 9360, Note_on_c, 4, 70, 123
6, 9600, Note_on_c, 4, 70, 0
6, 9600, Note_on_c, 4, 60, 123
6, 9840, Note_on_c, 4, 60, 0
6, 9840, Note_on_c, 4, 62, 123
6, 9960, Note_on_c, 4, 62, 0
6, 9960, Note_on_c, 4, 63, 123
6, 10080, Note_on_c, 4, 63, 0
6, 10080, Note_on_c, 4, 65, 123
6, 10320, Note_on_c, 4, 65, 0
6, 10320, Note_on_c, 4, 70, 123
6, 10440, Note_on_c, 4, 70, 0
6, 10440, Note_on_c, 4, 74, 123
6, 10560, Note_on_c, 4, 74, 0
6, 10560, Note_on_c, 4, 65, 123
6, 10800, Note_on_c, 4, 65, 0
6, 10800, Note_on_c, 4, 66, 123
6, 10860, Note_on_c, 4, 66, 0
6, 10860, Note_on_c, 4, 62, 123
6, 10920, Note_on_c, 4, 62, 0
6, 10920, Note_on_c, 4, 64, 123
6, 10980, Note_on_c, 4, 64, 0
6, 10980, Note_on_c, 4, 67, 123
6, 11040, Note_on_c, 4, 67, 0
6, 11040, Note_on_c, 4, 66, 123
6, 11280, Note_on_c, 4, 66, 0
6, 11280, Note_on_c, 4, 62, 123
6, 11520, Note_on_c, 4, 62, 0
6, 11580, Note_on_c, 4, 60, 125
6, 11640, Note_on_c, 4, 60, 0
6, 11640, Note_on_c, 4, 65, 126
6, 11940, Note_on_c, 4, 65, 0
6, 11940, Note_on_c, 4, 67, 126
6, 11970, Note_on_c, 4, 67, 0
6, 11970, Note_on_c, 4, 68, 126
6, 12000, Note_on_c, 4, 68, 0
6, 12000, Note_on_c, 4, 70, 126
6, 12030, Note_on_c, 4, 70, 0
6, 12030, Note_on_c, 4, 68, 126
6, 12060, Note_on_c, 4, 68, 0
6, 12060, Note_on_c, 4, 67, 126
6, 12090, Note_on_c, 4, 67, 0
6, 12090, Note_on_c, 4, 65, 126
6, 12120, Note_on_c, 4, 65, 0
6, 12120, Note_on_c, 4, 67, 126
6, 12150, Note_on_c, 4, 67, 0
6, 12150, Note_on_c, 4, 68, 126
6, 12180, Note_on_c, 4, 68, 0
6, 12180, Note_on_c, 4, 70, 126
6, 12210, Note_on_c, 4, 70, 0
6, 12210, Note_on_c, 4, 68, 126
6, 12240, Note_on_c, 4, 68, 0
6, 12240, Note_on_c, 4, 67, 126
6, 12270, Note_on_c, 4, 67, 0
6, 12270, Note_on_c, 4, 65, 126
6, 12300, Note_on_c, 4, 65, 0
6, 12300, Note_on_c, 4, 67, 126
6, 12330, Note_on_c, 4, 67, 0
6, 12330, Note_on_c, 4, 68, 126
6, 12360, Note_on_c, 4, 68, 0
6, 12360, Note_on_c, 4, 70, 126
6, 12400, Note_on_c, 4, 70, 0
6, 12400, Note_on_c, 4, 68, 126
6, 12440, Note_on_c, 4, 68, 0
6, 12440, Note_on_c, 4, 65, 126
6, 12480, Note_on_c, 4, 65, 0
6, 12540, Note_on_c, 4, 72, 127
6, 12540, Note_on_c, 4, 67, 110
6, 12560, Note_on_c, 4, 72, 0
6, 12560, Note_on_c, 4, 72, 127
6, 12580, Note_on_c, 4, 72, 0
6, 12580, Note_on_c, 4, 72, 127
6, 12600, Note_on_c, 4, 72, 0
6, 12600, Note_on_c, 4, 72, 127
6, 12620, Note_on_c, 4, 72, 0
6, 12620, Note_on_c, 4, 67, 127
6, 12640, Note_on_c, 4, 67, 0
6, 12640, Note_on_c, 4, 67, 127
6, 12660, Note_on_c, 4, 67, 0
6, 12660, Note_on_c, 4, 67, 127
6, 12660, Note_on_c, 4, 68, 109
6, 12680, Note_on_c, 4, 67, 0
6, 12680, Note_on_c, 4, 72, 127
6, 12700, Note_on_c, 4, 72, 0
6, 12700, Note_on_c, 4, 72, 127
6, 12720, Note_on_c, 4, 72, 0
6, 12720, Note_on_c, 4, 72, 127
6, 12740, Note_on_c, 4, 72, 0
6, 12740, Note_on_c, 4, 67, 127
6, 12760, Note_on_c, 4, 67, 0
6, 12760, Note_on_c, 4, 67, 127
6, 12780, Note_on_c, 4, 67, 0
6, 12780, Note_on_c, 4, 65, 108
6, 12780, Note_on_c, 4, 60, 127
6, 12960, Note_on_c, 4, 60, 0
6, 12960, Note_on_c, 4, 67, 0
6, 12960, Note_on_c, 4, 68, 0
6, 12960, Note_on_c, 4, 65, 0
6, 12960, Note_on_c, 4, 37, 126
6, 13920, Note_on_c, 4, 37, 0
6, 13920, End_track
7, 0, Start_track
7, 0, Title_t, "Trumpet"
7, 0, Program_c, 5, 56
7, 0, Control_c, 5, 7, 100
7, 0, Control_c, 5, 91, 40
7, 7680, Control_c, 5, 11, 127
7, 8160, Note_on_c, 5, 65, 100
7, 8400, Note_on_c, 5, 65, 0
7, 8400, Note_on_c, 5, 63, 100
7, 8520, Note_on_c, 5, 63, 0
7, 8520, Note_on_c, 5, 65, 100
7, 8640, Note_on_c, 5, 65, 0
7, 8640, Note_on_c, 5, 60, 100
7, 8880, Note_on_c, 5, 60, 0
7, 8880, Note_on_c, 5, 62, 100
7, 9120, Note_on_c, 5, 62, 0
7, 9120, Note_on_c, 5, 63, 100
7, 9600, Note_on_c, 5, 63, 0
7, 9600, Note_on_c, 5, 60, 97
7, 9840, Note_on_c, 5, 60, 0
7, 9840, Note_on_c, 5, 62, 104
7, 9960, Note_on_c, 5, 62, 0
7, 9960, Note_on_c, 5, 63, 108
7, 10080, Note_on_c, 5, 63, 0
7, 10080, Note_on_c, 5, 65, 111
7, 10320, Note_on_c, 5, 65, 0
7, 10320, Note_on_c, 5, 70, 119
7, 10560, Note_on_c, 5, 70, 0
7, 10560, Note_on_c, 5, 72, 126
7, 11460, Note_on_c, 5, 72, 0
7, 11460, Note_on_c, 5, 66, 103
7, 11520, Note_on_c, 5, 66, 0
7, 11580, Note_on_c, 5, 60, 100
7, 11640, Note_on_c, 5, 60, 0
7, 11640, Note_on_c, 5, 65, 100
7, 11880, Note_on_c, 5, 65, 0
7, 11880, Note_on_c, 5, 68, 99
7, 11880, Note_on_c, 5, 65, 99
7, 11940, Note_on_c, 5, 65, 0
7, 11940, Note_on_c, 5, 68, 0
7, 11940, Note_on_c, 5, 68, 102
7, 11940, Note_on_c, 5, 65, 102
7, 12000, Note_on_c, 5, 65, 0
7, 12000, Note_on_c, 5, 68, 0
7, 12000, Note_on_c, 5, 70, 105
7, 12000, Note_on_c, 5, 65, 105
7, 12060, Note_on_c, 5, 65, 0
7, 12060, Note_on_c, 5, 70, 0
7, 12060, Note_on_c, 5, 70, 108
7, 12060, Note_on_c, 5, 65, 108
7, 12120, Note_on_c, 5, 65, 0
7, 12120, Note_on_c, 5, 70, 0
7, 12120, Note_on_c, 5, 70, 111
7, 12120, Note_on_c, 5, 65, 111
7, 12180, Note_on_c, 5, 65, 0
7, 12180, Note_on_c, 5, 70, 0
7, 12180, Note_on_c, 5, 70, 114
7, 12180, Note_on_c, 5, 65, 114
7, 12240, Note_on_c, 5, 65, 0
7, 12240, Note_on_c, 5, 70, 0
7, 12240, Note_on_c, 5, 68, 117
7, 12240, Note_on_c, 5, 65, 117
7, 12300, Note_on_c, 5, 65, 0
7, 12300, Note_on_c, 5, 68, 0
7, 12300, Note_on_c, 5, 70, 120
7, 12300, Note_on_c, 5, 65, 120
7, 12360, Note_on_c, 5, 65, 0
7, 12360, Note_on_c, 5, 70, 0
7, 12360, Note_on_c, 5, 65, 122
7, 12360, Note_on_c, 5, 68, 122
7, 12360, Note_on_c, 5, 70, 122
7, 12400, Note_on_c, 5, 70, 0
7, 12400, Note_on_c, 5, 68, 0
7, 12400, Note_on_c, 5, 65, 0
7, 12400, Note_on_c, 5, 65, 123
7, 12400, Note_on_c, 5, 68, 123
7, 12400, Note_on_c, 5, 70, 123
7, 12440, Note_on_c, 5, 70, 0
7, 12440, Note_on_c, 5, 68, 0
7, 12440, Note_on_c, 5, 65, 0
7, 12440, Note_on_c, 5, 65, 124
7, 12440, Note_on_c, 5, 68, 124
7, 12440, Note_on_c, 5, 70, 124
7, 12480, Note_on_c, 5, 70, 0
7, 12480, Note_on_c, 5, 68, 0
7, 12480, Note_on_c, 5, 65, 0
7, 12540, Note_on_c, 5, 84, 127
7, 12560, Note_on_c, 5, 84, 0
7, 12560, Note_on_c, 5, 84, 127
7, 12580, Note_on_c, 5, 84, 0
7, 12580, Note_on_c, 5, 84, 127
7, 12600, Note_on_c, 5, 84, 0
7, 12600, Note_on_c, 5, 84, 127
7, 12620, Note_on_c, 5, 84, 0
7, 12620, Note_on_c, 5, 79, 127
7, 12640, Note_on_c, 5, 79, 0
7, 12640, Note_on_c, 5, 79, 127
7, 12660, Note_on_c, 5, 79, 0
7, 12660, Note_on_c, 5, 79, 127
7, 12680, Note_on_c, 5, 79, 0
7, 12680, Note_on_c, 5, 84, 127
7, 12700, Note_on_c, 5, 84, 0
7, 12700, Note_on_c, 5, 84, 127
7, 12720, Note_on_c, 5, 84, 0
7, 12720, Note_on_c, 5, 84, 127
7, 12740, Note_on_c, 5, 84, 0
7, 12740, Note_on_c, 5, 79, 127
7, 12760, Note_on_c, 5, 79, 0
7, 12760, Note_on_c, 5, 79, 127
7, 12780, Note_on_c, 5, 79, 0
7, 12780, Note_on_c, 5, 72, 127
7, 12960, Note_on_c, 5, 72, 0
7, 12960, End_track
8, 0, Start_track
8, 0, Title_t, "Timpani"
8, 0, Program_c, 6, 47
8, 0, Control_c, 6, 7, 127
8, 0, Control_c, 6, 91, 40
8, 7680, Control_c, 6, 11, 127
8, 9600, Note_on_c, 6, 44, 127
8, 9720, Note_on_c, 6, 44, 0
8, 9840, Note_on_c, 6, 44, 127
8, 9960, Note_on_c, 6, 44, 0
8, 9960, Note_on_c, 6, 44, 127
8, 10080, Note_on_c, 6, 44, 0
8, 10080, Note_on_c, 6, 43, 127
8, 10200, Note_on_c, 6, 43, 0
8, 10320, Note_on_c, 6, 43, 127
8, 10440, Note_on_c, 6, 43, 0
8, 10440, Note_on_c, 6, 43, 127
8, 10500, Note_on_c, 6, 43, 0
8, 10500, Note_on_c, 6, 43, 127
8, 10520, Note_on_c, 6, 43, 0
8, 10520, Note_on_c, 6, 43, 127
8, 10540, Note_on_c, 6, 43, 0
8, 10540, Note_on_c, 6, 43, 127
8, 10560, Note_on_c, 6, 43, 0
8, 10560, Note_on_c, 6, 48, 126
8, 10680, Note_on_c, 6, 48, 0
8, 10740, Note_on_c, 6, 48, 127
8, 10760, Note_on_c, 6, 48, 0
8, 10760, Note_on_c, 6, 48, 127
8, 10780, Note_on_c, 6, 48, 0
8, 10780, Note_on_c, 6, 48, 127
8, 10800, Note_on_c, 6, 48, 0
8, 10800, Note_on_c, 6, 48, 127
8, 10820, Note_on_c, 6, 48, 0
8, 10860, Note_on_c, 6, 48, 127
8, 10880, Note_on_c, 6, 48, 0
8, 10980, Note_on_c, 6, 48, 127
8, 11000, Note_on_c, 6, 48, 0
8, 11040, Note_on_c, 6, 48, 127
8, 11060, Note_on_c, 6, 48, 0
8, 11100, Note_on_c, 6, 48, 127
8, 11120, Note_on_c, 6, 48, 0
8, 11220, Note_on_c, 6, 48, 127
8, 11240, Note_on_c, 6, 48, 0
8, 11280, Note_on_c, 6, 48, 127
8, 11300, Note_on_c, 6, 48, 0
8, 11340, Note_on_c, 6, 48, 127
8, 11360, Note_on_c, 6, 48, 0
8, 11360, Note_on_c, 6, 48, 127
8, 11380, Note_on_c, 6, 48, 0
8, 11380, Note_on_c, 6, 48, 127
8, 11400, Note_on_c, 6, 48, 0
8, 11400, Note_on_c, 6, 48, 127
8, 11420, Note_on_c, 6, 48, 0
8, 11460, Note_on_c, 6, 48, 127
8, 11480, Note_on_c, 6, 48, 0
8, 11580, Note_on_c, 6, 44, 127
8, 11600, Note_on_c, 6, 44, 0
8, 11640, Note_on_c, 6, 44, 127
8, 11660, Note_on_c, 6, 44, 0
8, 11940, Note_on_c, 6, 44, 127
8, 11960, Note_on_c, 6, 44, 0
8, 12000, Note_on_c, 6, 44, 127
8, 12020, Note_on_c, 6, 44, 0
8, 12180, Note_on_c, 6, 44, 127
8, 12240, Note_on_c, 6, 44, 0
8, 12240, Note_on_c, 6, 44, 127
8, 12300, Note_on_c, 6, 44, 0
8, 12300, Note_on_c, 6, 44, 127
8, 12360, Note_on_c, 6, 44, 0
8, 12360, Note_on_c, 6, 44, 127
8, 12400, Note_on_c, 6, 44, 0
8, 12400, Note_on_c, 6, 44, 127
8, 12440, Note_on_c, 6, 44, 0
8, 12440, Note_on_c, 6, 44, 127
8, 12480, Note_on_c, 6, 44, 0
8, 12480, Note_on_c, 6, 43, 100
8, 12480, Note_on_c, 6, 44, 126
8, 12600, Note_on_c, 6, 44, 0
8, 12600, Note_on_c, 6, 43, 0
8, 12660, Note_on_c, 6, 43, 127
8, 12660, Note_on_c, 6, 44, 127
8, 12720, Note_on_c, 6, 44, 0
8, 12720, Note_on_c, 6, 43, 0
8, 12720, Note_on_c, 6, 43, 127
8, 12720, Note_on_c, 6, 44, 127
8, 12780, Note_on_c, 6, 44, 0
8, 12780, Note_on_c, 6, 43, 0
8, 12780, Note_on_c, 6, 43, 127
8, 12780, Note_on_c, 6, 44, 127
8, 12840, Note_on_c, 6, 44, 0
8, 12840, Note_on_c, 6, 43, 0
8, 12900, Note_on_c, 6, 43, 127
8, 12900, Note_on_c, 6, 44, 127
8, 12960, Note_on_c, 6, 44, 0
8, 12960, Note_on_c, 6, 43, 0
8, 12960, Note_on_c, 6, 43, 127
8, 13020, Note_on_c, 6, 43, 0
8, 13020, End_track
9, 0, Start_track
9, 0, Title_t, "Cymbal"
9, 0, Program_c, 9, 0
9, 0, Control_c, 9, 7, 127
9, 0, Control_c, 9, 91, 40
9, 10080, Control_c, 9, 11, 127
9, 10560, Note_on_c, 9, 57, 127
9, 10560, Note_on_c, 9, 49, 127
9, 10680, Note_on_c, 9, 49, 0
9, 10680, Note_on_c, 9, 57, 0
9, 11520, Note_on_c, 9, 57, 127
9, 11520, Note_on_c, 9, 49, 127
9, 11640, Note_on_c, 9, 49, 0
9, 11640, Note_on_c, 9, 57, 0
9, 12540, Note_on_c, 9, 57, 127
9, 12540, Note_on_c, 9, 49, 127
9, 12660, Note_on_c, 9, 49, 0
9, 12660, Note_on_c, 9, 57, 0
9, 12780, Note_on_c, 9, 49, 127
9, 12780, Note_on_c, 9, 57, 127
9, 12900, Note_on_c, 9, 57, 0
9, 12900, Note_on_c, 9, 49, 0
9, 12900, End_track
0, 0, End_of_file
