0, 0, Header, 1, 13, 120
1, 0, Start_track
1, 0, Title_t, "Final Fantasy X \201y\203\213\203J\201z for SC-8820 by spikee"
1, 0, Copyright_t, "\222\207\226ì\217\207\226ç"
1, 0, Text_t, "(C)2001 SQUARE\012"
1, 0, System_exclusive, 10, 65, 16, 66, 18, 64, 0, 127, 0, 65, 247
1, 0, System_exclusive, 10, 65, 16, 66, 18, 0, 0, 127, 0, 1, 247
1, 0, System_exclusive, 10, 65, 16, 66, 18, 64, 26, 21, 2, 15, 247
1, 0, Time_signature, 4, 2, 24, 8
1, 0, Key_signature, 0, "major"
1, 0, Tempo, 405405
1, 0, Marker_t, "presented by spikee"
1, 0, End_track
2, 0, Start_track
2, 0, Title_t, "Steel Gt.(L)"
2, 0, Control_c, 0, 0, 0
2, 0, Control_c, 0, 32, 3
2, 0, Program_c, 0, 25
2, 0, Control_c, 0, 7, 115
2, 0, Control_c, 0, 10, 24
2, 60, Text_t, "Start of Setup by GSAE"
2, 64, Control_c, 0, 91, 80
2, 64, Control_c, 0, 93, 0
2, 149, Text_t, "End of Setup by GSAE"
2, 480, Note_on_c, 0, 44, 100
2, 540, Note_on_c, 0, 65, 100
2, 600, Note_on_c, 0, 58, 100
2, 660, Note_on_c, 0, 63, 100
2, 720, Note_on_c, 0, 65, 0
2, 720, Note_on_c, 0, 51, 100
2, 780, Note_on_c, 0, 58, 0
2, 780, Note_on_c, 0, 53, 100
2, 840, Note_on_c, 0, 63, 0
2, 900, Note_on_c, 0, 51, 0
2, 900, Note_on_c, 0, 58, 100
2, 960, Note_on_c, 0, 44, 0
2, 960, Note_on_c, 0, 53, 0
2, 960, Note_on_c, 0, 44, 100
2, 1020, Note_on_c, 0, 51, 100
2, 1080, Note_on_c, 0, 58, 0
2, 1080, Note_on_c, 0, 58, 100
2, 1140, Note_on_c, 0, 65, 100
2, 1200, Note_on_c, 0, 51, 0
2, 1260, Note_on_c, 0, 58, 0
2, 1260, Note_on_c, 0, 63, 100
2, 1320, Note_on_c, 0, 65, 0
2, 1380, Note_on_c, 0, 53, 100
2, 1440, Note_on_c, 0, 63, 0
2, 1440, Note_on_c, 0, 44, 0
2, 1440, Note_on_c, 0, 44, 100
2, 1500, Note_on_c, 0, 65, 100
2, 1560, Note_on_c, 0, 53, 0
2, 1560, Note_on_c, 0, 58, 100
2, 1620, Note_on_c, 0, 63, 100
2, 1680, Note_on_c, 0, 65, 0
2, 1680, Note_on_c, 0, 51, 100
2, 1740, Note_on_c, 0, 58, 0
2, 1740, Note_on_c, 0, 53, 100
2, 1800, Note_on_c, 0, 63, 0
2, 1860, Note_on_c, 0, 51, 0
2, 1860, Note_on_c, 0, 58, 100
2, 1920, Note_on_c, 0, 44, 0
2, 1920, Note_on_c, 0, 53, 0
2, 1920, Note_on_c, 0, 44, 100
2, 1980, Note_on_c, 0, 51, 100
2, 2040, Note_on_c, 0, 58, 0
2, 2040, Note_on_c, 0, 58, 100
2, 2100, Note_on_c, 0, 65, 100
2, 2160, Note_on_c, 0, 51, 0
2, 2220, Note_on_c, 0, 58, 0
2, 2220, Note_on_c, 0, 63, 100
2, 2280, Note_on_c, 0, 65, 0
2, 2340, Note_on_c, 0, 53, 100
2, 2400, Note_on_c, 0, 63, 0
2, 2400, Note_on_c, 0, 44, 0
2, 2400, Note_on_c, 0, 44, 100
2, 2460, Note_on_c, 0, 65, 100
2, 2520, Note_on_c, 0, 53, 0
2, 2520, Note_on_c, 0, 58, 100
2, 2580, Note_on_c, 0, 63, 100
2, 2640, Note_on_c, 0, 65, 0
2, 2640, Note_on_c, 0, 51, 100
2, 2700, Note_on_c, 0, 58, 0
2, 2700, Note_on_c, 0, 53, 100
2, 2760, Note_on_c, 0, 63, 0
2, 2820, Note_on_c, 0, 51, 0
2, 2820, Note_on_c, 0, 58, 100
2, 2880, Note_on_c, 0, 44, 0
2, 2880, Note_on_c, 0, 53, 0
2, 2880, Note_on_c, 0, 44, 100
2, 2940, Note_on_c, 0, 51, 100
2, 3000, Note_on_c, 0, 58, 0
2, 3000, Note_on_c, 0, 58, 100
2, 3060, Note_on_c, 0, 65, 100
2, 3120, Note_on_c, 0, 51, 0
2, 3180, Note_on_c, 0, 58, 0
2, 3180, Note_on_c, 0, 63, 100
2, 3240, Note_on_c, 0, 65, 0
2, 3300, Note_on_c, 0, 53, 100
2, 3360, Note_on_c, 0, 63, 0
2, 3360, Note_on_c, 0, 44, 0
2, 3360, Note_on_c, 0, 44, 100
2, 3420, Note_on_c, 0, 65, 100
2, 3480, Note_on_c, 0, 53, 0
2, 3480, Note_on_c, 0, 58, 100
2, 3540, Note_on_c, 0, 63, 100
2, 3600, Note_on_c, 0, 65, 0
2, 3600, Note_on_c, 0, 51, 100
2, 3660, Note_on_c, 0, 58, 0
2, 3660, Note_on_c, 0, 53, 100
2, 3720, Note_on_c, 0, 63, 0
2, 3780, Note_on_c, 0, 51, 0
2, 3780, Note_on_c, 0, 58, 100
2, 3840, Note_on_c, 0, 44, 0
2, 3840, Note_on_c, 0, 53, 0
2, 3840, Note_on_c, 0, 44, 100
2, 3900, Note_on_c, 0, 51, 100
2, 3960, Note_on_c, 0, 58, 0
2, 3960, Note_on_c, 0, 58, 100
2, 4020, Note_on_c, 0, 65, 100
2, 4080, Note_on_c, 0, 51, 0
2, 4140, Note_on_c, 0, 58, 0
2, 4140, Note_on_c, 0, 63, 100
2, 4200, Note_on_c, 0, 65, 0
2, 4260, Note_on_c, 0, 53, 100
2, 4320, Note_on_c, 0, 63, 0
2, 4320, Note_on_c, 0, 44, 0
2, 4320, Note_on_c, 0, 44, 100
2, 4380, Note_on_c, 0, 65, 100
2, 4440, Note_on_c, 0, 53, 0
2, 4440, Note_on_c, 0, 58, 100
2, 4500, Note_on_c, 0, 63, 100
2, 4560, Note_on_c, 0, 65, 0
2, 4560, Note_on_c, 0, 51, 100
2, 4620, Note_on_c, 0, 58, 0
2, 4620, Note_on_c, 0, 53, 100
2, 4680, Note_on_c, 0, 63, 0
2, 4740, Note_on_c, 0, 51, 0
2, 4740, Note_on_c, 0, 58, 100
2, 4800, Note_on_c, 0, 44, 0
2, 4800, Note_on_c, 0, 53, 0
2, 4800, Note_on_c, 0, 44, 100
2, 4860, Note_on_c, 0, 51, 100
2, 4920, Note_on_c, 0, 58, 0
2, 4920, Note_on_c, 0, 58, 100
2, 4980, Note_on_c, 0, 65, 100
2, 5040, Note_on_c, 0, 51, 0
2, 5100, Note_on_c, 0, 58, 0
2, 5100, Note_on_c, 0, 63, 100
2, 5160, Note_on_c, 0, 65, 0
2, 5220, Note_on_c, 0, 53, 100
2, 5280, Note_on_c, 0, 63, 0
2, 5280, Note_on_c, 0, 44, 0
2, 5280, Note_on_c, 0, 44, 100
2, 5340, Note_on_c, 0, 65, 100
2, 5400, Note_on_c, 0, 53, 0
2, 5400, Note_on_c, 0, 58, 100
2, 5460, Note_on_c, 0, 63, 100
2, 5520, Note_on_c, 0, 65, 0
2, 5520, Note_on_c, 0, 51, 100
2, 5580, Note_on_c, 0, 58, 0
2, 5580, Note_on_c, 0, 53, 100
2, 5640, Note_on_c, 0, 63, 0
2, 5700, Note_on_c, 0, 51, 0
2, 5700, Note_on_c, 0, 58, 100
2, 5760, Note_on_c, 0, 44, 0
2, 5760, Note_on_c, 0, 53, 0
2, 5760, Note_on_c, 0, 44, 100
2, 5820, Note_on_c, 0, 51, 100
2, 5880, Note_on_c, 0, 58, 0
2, 5880, Note_on_c, 0, 58, 100
2, 5940, Note_on_c, 0, 65, 100
2, 6000, Note_on_c, 0, 51, 0
2, 6060, Note_on_c, 0, 58, 0
2, 6060, Note_on_c, 0, 63, 100
2, 6120, Note_on_c, 0, 65, 0
2, 6180, Note_on_c, 0, 53, 100
2, 6240, Note_on_c, 0, 63, 0
2, 6240, Note_on_c, 0, 44, 0
2, 6240, Note_on_c, 0, 44, 100
2, 6300, Note_on_c, 0, 65, 100
2, 6360, Note_on_c, 0, 53, 0
2, 6360, Note_on_c, 0, 58, 100
2, 6420, Note_on_c, 0, 63, 100
2, 6480, Note_on_c, 0, 65, 0
2, 6480, Note_on_c, 0, 51, 100
2, 6540, Note_on_c, 0, 58, 0
2, 6540, Note_on_c, 0, 53, 100
2, 6600, Note_on_c, 0, 63, 0
2, 6660, Note_on_c, 0, 51, 0
2, 6660, Note_on_c, 0, 58, 100
2, 6720, Note_on_c, 0, 44, 0
2, 6720, Note_on_c, 0, 53, 0
2, 6720, Note_on_c, 0, 44, 100
2, 6780, Note_on_c, 0, 51, 100
2, 6840, Note_on_c, 0, 58, 0
2, 6840, Note_on_c, 0, 58, 100
2, 6900, Note_on_c, 0, 65, 100
2, 6960, Note_on_c, 0, 51, 0
2, 7020, Note_on_c, 0, 58, 0
2, 7020, Note_on_c, 0, 63, 100
2, 7080, Note_on_c, 0, 65, 0
2, 7140, Note_on_c, 0, 53, 100
2, 7200, Note_on_c, 0, 63, 0
2, 7200, Note_on_c, 0, 44, 0
2, 7200, Note_on_c, 0, 44, 100
2, 7260, Note_on_c, 0, 65, 100
2, 7320, Note_on_c, 0, 53, 0
2, 7320, Note_on_c, 0, 58, 100
2, 7380, Note_on_c, 0, 63, 100
2, 7440, Note_on_c, 0, 65, 0
2, 7440, Note_on_c, 0, 51, 100
2, 7500, Note_on_c, 0, 58, 0
2, 7500, Note_on_c, 0, 53, 100
2, 7560, Note_on_c, 0, 63, 0
2, 7620, Note_on_c, 0, 51, 0
2, 7620, Note_on_c, 0, 58, 100
2, 7680, Note_on_c, 0, 44, 0
2, 7680, Note_on_c, 0, 53, 0
2, 7680, Note_on_c, 0, 44, 100
2, 7740, Note_on_c, 0, 51, 100
2, 7800, Note_on_c, 0, 58, 0
2, 7800, Note_on_c, 0, 58, 100
2, 7860, Note_on_c, 0, 65, 100
2, 7920, Note_on_c, 0, 51, 0
2, 7980, Note_on_c, 0, 58, 0
2, 7980, Note_on_c, 0, 63, 100
2, 8040, Note_on_c, 0, 65, 0
2, 8100, Note_on_c, 0, 53, 100
2, 8160, Note_on_c, 0, 63, 0
2, 8160, Note_on_c, 0, 44, 0
2, 8160, Note_on_c, 0, 44, 100
2, 8220, Note_on_c, 0, 65, 100
2, 8280, Note_on_c, 0, 53, 0
2, 8280, Note_on_c, 0, 58, 100
2, 8340, Note_on_c, 0, 63, 100
2, 8400, Note_on_c, 0, 65, 0
2, 8400, Note_on_c, 0, 51, 100
2, 8460, Note_on_c, 0, 58, 0
2, 8460, Note_on_c, 0, 53, 100
2, 8520, Note_on_c, 0, 63, 0
2, 8580, Note_on_c, 0, 51, 0
2, 8580, Note_on_c, 0, 58, 100
2, 8640, Note_on_c, 0, 44, 0
2, 8640, Note_on_c, 0, 53, 0
2, 8640, Note_on_c, 0, 44, 100
2, 8700, Note_on_c, 0, 51, 100
2, 8760, Note_on_c, 0, 58, 0
2, 8760, Note_on_c, 0, 58, 100
2, 8820, Note_on_c, 0, 65, 100
2, 8880, Note_on_c, 0, 51, 0
2, 8940, Note_on_c, 0, 58, 0
2, 8940, Note_on_c, 0, 63, 100
2, 9000, Note_on_c, 0, 65, 0
2, 9060, Note_on_c, 0, 53, 100
2, 9120, Note_on_c, 0, 63, 0
2, 9120, Note_on_c, 0, 44, 0
2, 9120, Note_on_c, 0, 44, 100
2, 9180, Note_on_c, 0, 65, 100
2, 9240, Note_on_c, 0, 53, 0
2, 9240, Note_on_c, 0, 58, 100
2, 9300, Note_on_c, 0, 63, 100
2, 9360, Note_on_c, 0, 65, 0
2, 9360, Note_on_c, 0, 51, 100
2, 9420, Note_on_c, 0, 58, 0
2, 9420, Note_on_c, 0, 53, 100
2, 9480, Note_on_c, 0, 63, 0
2, 9540, Note_on_c, 0, 51, 0
2, 9540, Note_on_c, 0, 58, 100
2, 9600, Note_on_c, 0, 44, 0
2, 9600, Note_on_c, 0, 53, 0
2, 9600, Note_on_c, 0, 44, 100
2, 9660, Note_on_c, 0, 51, 100
2, 9720, Note_on_c, 0, 58, 0
2, 9720, Note_on_c, 0, 58, 100
2, 9780, Note_on_c, 0, 65, 100
2, 9840, Note_on_c, 0, 51, 0
2, 9900, Note_on_c, 0, 58, 0
2, 9900, Note_on_c, 0, 63, 100
2, 9960, Note_on_c, 0, 65, 0
2, 10020, Note_on_c, 0, 53, 100
2, 10080, Note_on_c, 0, 63, 0
2, 10080, Note_on_c, 0, 44, 0
2, 10080, Note_on_c, 0, 44, 100
2, 10140, Note_on_c, 0, 65, 100
2, 10200, Note_on_c, 0, 53, 0
2, 10200, Note_on_c, 0, 58, 100
2, 10260, Note_on_c, 0, 63, 100
2, 10320, Note_on_c, 0, 65, 0
2, 10320, Note_on_c, 0, 51, 100
2, 10380, Note_on_c, 0, 58, 0
2, 10380, Note_on_c, 0, 53, 100
2, 10440, Note_on_c, 0, 63, 0
2, 10500, Note_on_c, 0, 51, 0
2, 10500, Note_on_c, 0, 58, 100
2, 10560, Note_on_c, 0, 44, 0
2, 10560, Note_on_c, 0, 53, 0
2, 10560, Note_on_c, 0, 44, 100
2, 10620, Note_on_c, 0, 51, 100
2, 10680, Note_on_c, 0, 58, 0
2, 10680, Note_on_c, 0, 58, 100
2, 10740, Note_on_c, 0, 65, 100
2, 10800, Note_on_c, 0, 51, 0
2, 10860, Note_on_c, 0, 58, 0
2, 10860, Note_on_c, 0, 63, 100
2, 10920, Note_on_c, 0, 65, 0
2, 10980, Note_on_c, 0, 53, 100
2, 11040, Note_on_c, 0, 63, 0
2, 11040, Note_on_c, 0, 44, 0
2, 11040, Note_on_c, 0, 44, 100
2, 11100, Note_on_c, 0, 65, 100
2, 11160, Note_on_c, 0, 53, 0
2, 11160, Note_on_c, 0, 58, 100
2, 11220, Note_on_c, 0, 63, 100
2, 11280, Note_on_c, 0, 65, 0
2, 11280, Note_on_c, 0, 51, 100
2, 11340, Note_on_c, 0, 58, 0
2, 11340, Note_on_c, 0, 53, 100
2, 11400, Note_on_c, 0, 63, 0
2, 11460, Note_on_c, 0, 51, 0
2, 11460, Note_on_c, 0, 58, 100
2, 11520, Note_on_c, 0, 44, 0
2, 11520, Note_on_c, 0, 53, 0
2, 11520, Note_on_c, 0, 44, 100
2, 11580, Note_on_c, 0, 51, 100
2, 11640, Note_on_c, 0, 58, 0
2, 11640, Note_on_c, 0, 58, 100
2, 11700, Note_on_c, 0, 65, 100
2, 11760, Note_on_c, 0, 51, 0
2, 11820, Note_on_c, 0, 58, 0
2, 11820, Note_on_c, 0, 63, 100
2, 11880, Note_on_c, 0, 65, 0
2, 11940, Note_on_c, 0, 53, 100
2, 12000, Note_on_c, 0, 63, 0
2, 12000, Note_on_c, 0, 44, 0
2, 12000, Note_on_c, 0, 44, 100
2, 12060, Note_on_c, 0, 65, 100
2, 12120, Note_on_c, 0, 53, 0
2, 12120, Note_on_c, 0, 58, 100
2, 12180, Note_on_c, 0, 63, 100
2, 12240, Note_on_c, 0, 65, 0
2, 12240, Note_on_c, 0, 51, 100
2, 12300, Note_on_c, 0, 58, 0
2, 12300, Note_on_c, 0, 53, 100
2, 12360, Note_on_c, 0, 63, 0
2, 12420, Note_on_c, 0, 51, 0
2, 12420, Note_on_c, 0, 58, 100
2, 12480, Note_on_c, 0, 44, 0
2, 12480, Note_on_c, 0, 53, 0
2, 12480, Note_on_c, 0, 44, 100
2, 12540, Note_on_c, 0, 51, 100
2, 12600, Note_on_c, 0, 58, 0
2, 12600, Note_on_c, 0, 58, 100
2, 12660, Note_on_c, 0, 65, 100
2, 12720, Note_on_c, 0, 51, 0
2, 12780, Note_on_c, 0, 58, 0
2, 12780, Note_on_c, 0, 63, 100
2, 12840, Note_on_c, 0, 65, 0
2, 12900, Note_on_c, 0, 53, 100
2, 12960, Note_on_c, 0, 63, 0
2, 12960, Note_on_c, 0, 44, 0
2, 12960, Note_on_c, 0, 44, 100
2, 13020, Note_on_c, 0, 65, 100
2, 13080, Note_on_c, 0, 53, 0
2, 13080, Note_on_c, 0, 58, 100
2, 13140, Note_on_c, 0, 63, 100
2, 13200, Note_on_c, 0, 65, 0
2, 13200, Note_on_c, 0, 51, 100
2, 13260, Note_on_c, 0, 58, 0
2, 13260, Note_on_c, 0, 53, 100
2, 13320, Note_on_c, 0, 63, 0
2, 13380, Note_on_c, 0, 51, 0
2, 13380, Note_on_c, 0, 58, 100
2, 13440, Note_on_c, 0, 44, 0
2, 13440, Note_on_c, 0, 53, 0
2, 13440, Note_on_c, 0, 44, 100
2, 13500, Note_on_c, 0, 51, 100
2, 13560, Note_on_c, 0, 58, 0
2, 13560, Note_on_c, 0, 58, 100
2, 13620, Note_on_c, 0, 65, 100
2, 13680, Note_on_c, 0, 51, 0
2, 13740, Note_on_c, 0, 58, 0
2, 13740, Note_on_c, 0, 63, 100
2, 13800, Note_on_c, 0, 65, 0
2, 13860, Note_on_c, 0, 53, 100
2, 13920, Note_on_c, 0, 63, 0
2, 13920, Note_on_c, 0, 44, 0
2, 13920, Note_on_c, 0, 44, 100
2, 13980, Note_on_c, 0, 65, 100
2, 14040, Note_on_c, 0, 53, 0
2, 14040, Note_on_c, 0, 58, 100
2, 14100, Note_on_c, 0, 63, 100
2, 14160, Note_on_c, 0, 65, 0
2, 14160, Note_on_c, 0, 51, 100
2, 14220, Note_on_c, 0, 58, 0
2, 14220, Note_on_c, 0, 53, 100
2, 14280, Note_on_c, 0, 63, 0
2, 14340, Note_on_c, 0, 51, 0
2, 14340, Note_on_c, 0, 58, 100
2, 14400, Note_on_c, 0, 44, 0
2, 14400, Note_on_c, 0, 53, 0
2, 14400, Note_on_c, 0, 44, 100
2, 14460, Note_on_c, 0, 51, 100
2, 14520, Note_on_c, 0, 58, 0
2, 14520, Note_on_c, 0, 58, 100
2, 14580, Note_on_c, 0, 65, 100
2, 14640, Note_on_c, 0, 51, 0
2, 14700, Note_on_c, 0, 58, 0
2, 14700, Note_on_c, 0, 63, 100
2, 14760, Note_on_c, 0, 65, 0
2, 14820, Note_on_c, 0, 53, 100
2, 14880, Note_on_c, 0, 63, 0
2, 14880, Note_on_c, 0, 44, 0
2, 14880, Note_on_c, 0, 44, 100
2, 14940, Note_on_c, 0, 65, 100
2, 15000, Note_on_c, 0, 53, 0
2, 15000, Note_on_c, 0, 58, 100
2, 15060, Note_on_c, 0, 63, 100
2, 15120, Note_on_c, 0, 65, 0
2, 15120, Note_on_c, 0, 51, 100
2, 15180, Note_on_c, 0, 58, 0
2, 15180, Note_on_c, 0, 53, 100
2, 15240, Note_on_c, 0, 63, 0
2, 15300, Note_on_c, 0, 51, 0
2, 15300, Note_on_c, 0, 58, 100
2, 15360, Note_on_c, 0, 44, 0
2, 15360, Note_on_c, 0, 53, 0
2, 15360, Note_on_c, 0, 44, 100
2, 15420, Note_on_c, 0, 51, 100
2, 15480, Note_on_c, 0, 58, 0
2, 15480, Note_on_c, 0, 58, 100
2, 15540, Note_on_c, 0, 65, 100
2, 15600, Note_on_c, 0, 51, 0
2, 15660, Note_on_c, 0, 58, 0
2, 15660, Note_on_c, 0, 63, 100
2, 15720, Note_on_c, 0, 65, 0
2, 15780, Note_on_c, 0, 53, 100
2, 15840, Note_on_c, 0, 63, 0
2, 15840, Note_on_c, 0, 44, 0
2, 15840, Note_on_c, 0, 44, 100
2, 15900, Note_on_c, 0, 65, 100
2, 15960, Note_on_c, 0, 53, 0
2, 15960, Note_on_c, 0, 58, 100
2, 16020, Note_on_c, 0, 63, 100
2, 16080, Note_on_c, 0, 65, 0
2, 16080, Note_on_c, 0, 51, 100
2, 16140, Note_on_c, 0, 58, 0
2, 16140, Note_on_c, 0, 53, 100
2, 16200, Note_on_c, 0, 63, 0
2, 16260, Note_on_c, 0, 51, 0
2, 16260, Note_on_c, 0, 58, 100
2, 16320, Note_on_c, 0, 44, 0
2, 16320, Note_on_c, 0, 53, 0
2, 16320, Note_on_c, 0, 44, 100
2, 16380, Note_on_c, 0, 51, 100
2, 16440, Note_on_c, 0, 58, 0
2, 16440, Note_on_c, 0, 58, 100
2, 16500, Note_on_c, 0, 65, 100
2, 16560, Note_on_c, 0, 51, 0
2, 16620, Note_on_c, 0, 58, 0
2, 16620, Note_on_c, 0, 63, 100
2, 16680, Note_on_c, 0, 65, 0
2, 16740, Note_on_c, 0, 53, 100
2, 16800, Note_on_c, 0, 63, 0
2, 16800, Note_on_c, 0, 44, 0
2, 16800, Note_on_c, 0, 44, 100
2, 16860, Note_on_c, 0, 65, 100
2, 16920, Note_on_c, 0, 53, 0
2, 16920, Note_on_c, 0, 58, 100
2, 16980, Note_on_c, 0, 63, 100
2, 17040, Note_on_c, 0, 65, 0
2, 17040, Note_on_c, 0, 51, 100
2, 17100, Note_on_c, 0, 58, 0
2, 17100, Note_on_c, 0, 53, 100
2, 17160, Note_on_c, 0, 63, 0
2, 17220, Note_on_c, 0, 51, 0
2, 17220, Note_on_c, 0, 58, 100
2, 17280, Note_on_c, 0, 44, 0
2, 17280, Note_on_c, 0, 53, 0
2, 17280, Note_on_c, 0, 44, 100
2, 17340, Note_on_c, 0, 51, 100
2, 17400, Note_on_c, 0, 58, 0
2, 17400, Note_on_c, 0, 58, 100
2, 17460, Note_on_c, 0, 65, 100
2, 17520, Note_on_c, 0, 51, 0
2, 17580, Note_on_c, 0, 58, 0
2, 17580, Note_on_c, 0, 63, 100
2, 17640, Note_on_c, 0, 65, 0
2, 17700, Note_on_c, 0, 53, 100
2, 17760, Note_on_c, 0, 63, 0
2, 17760, Note_on_c, 0, 44, 0
2, 17760, Note_on_c, 0, 44, 100
2, 17820, Note_on_c, 0, 65, 100
2, 17880, Note_on_c, 0, 53, 0
2, 17880, Note_on_c, 0, 58, 100
2, 17940, Note_on_c, 0, 63, 100
2, 18000, Note_on_c, 0, 65, 0
2, 18000, Note_on_c, 0, 51, 100
2, 18060, Note_on_c, 0, 58, 0
2, 18060, Note_on_c, 0, 53, 100
2, 18120, Note_on_c, 0, 63, 0
2, 18180, Note_on_c, 0, 51, 0
2, 18180, Note_on_c, 0, 58, 100
2, 18240, Note_on_c, 0, 44, 0
2, 18240, Note_on_c, 0, 53, 0
2, 18240, Note_on_c, 0, 44, 100
2, 18300, Note_on_c, 0, 51, 100
2, 18360, Note_on_c, 0, 58, 0
2, 18360, Note_on_c, 0, 58, 100
2, 18420, Note_on_c, 0, 65, 100
2, 18480, Note_on_c, 0, 51, 0
2, 18540, Note_on_c, 0, 58, 0
2, 18540, Note_on_c, 0, 63, 100
2, 18600, Note_on_c, 0, 65, 0
2, 18660, Note_on_c, 0, 53, 100
2, 18720, Note_on_c, 0, 63, 0
2, 18720, Note_on_c, 0, 44, 0
2, 18720, Note_on_c, 0, 44, 100
2, 18780, Note_on_c, 0, 65, 100
2, 18840, Note_on_c, 0, 53, 0
2, 18840, Note_on_c, 0, 58, 100
2, 18900, Note_on_c, 0, 63, 100
2, 18960, Note_on_c, 0, 65, 0
2, 18960, Note_on_c, 0, 51, 100
2, 19020, Note_on_c, 0, 58, 0
2, 19020, Note_on_c, 0, 53, 100
2, 19080, Note_on_c, 0, 63, 0
2, 19140, Note_on_c, 0, 51, 0
2, 19140, Note_on_c, 0, 58, 100
2, 19200, Note_on_c, 0, 44, 0
2, 19200, Note_on_c, 0, 53, 0
2, 19200, Note_on_c, 0, 44, 100
2, 19260, Note_on_c, 0, 51, 100
2, 19320, Note_on_c, 0, 58, 0
2, 19320, Note_on_c, 0, 58, 100
2, 19380, Note_on_c, 0, 65, 100
2, 19440, Note_on_c, 0, 51, 0
2, 19500, Note_on_c, 0, 58, 0
2, 19500, Note_on_c, 0, 63, 100
2, 19560, Note_on_c, 0, 65, 0
2, 19620, Note_on_c, 0, 53, 100
2, 19680, Note_on_c, 0, 63, 0
2, 19680, Note_on_c, 0, 44, 0
2, 19800, Note_on_c, 0, 53, 0
2, 27360, Note_on_c, 0, 44, 100
2, 27420, Note_on_c, 0, 65, 100
2, 27480, Note_on_c, 0, 58, 100
2, 27540, Note_on_c, 0, 63, 100
2, 27600, Note_on_c, 0, 65, 0
2, 27600, Note_on_c, 0, 51, 100
2, 27660, Note_on_c, 0, 58, 0
2, 27660, Note_on_c, 0, 53, 100
2, 27720, Note_on_c, 0, 63, 0
2, 27780, Note_on_c, 0, 51, 0
2, 27780, Note_on_c, 0, 58, 100
2, 27840, Note_on_c, 0, 44, 0
2, 27840, Note_on_c, 0, 53, 0
2, 27840, Note_on_c, 0, 44, 100
2, 27900, Note_on_c, 0, 51, 100
2, 27960, Note_on_c, 0, 58, 0
2, 27960, Note_on_c, 0, 58, 100
2, 28020, Note_on_c, 0, 65, 100
2, 28080, Note_on_c, 0, 51, 0
2, 28140, Note_on_c, 0, 58, 0
2, 28140, Note_on_c, 0, 63, 100
2, 28200, Note_on_c, 0, 65, 0
2, 28260, Note_on_c, 0, 53, 100
2, 28320, Note_on_c, 0, 63, 0
2, 28320, Note_on_c, 0, 44, 0
2, 28320, Note_on_c, 0, 44, 100
2, 28380, Note_on_c, 0, 65, 100
2, 28440, Note_on_c, 0, 53, 0
2, 28440, Note_on_c, 0, 58, 100
2, 28500, Note_on_c, 0, 63, 100
2, 28560, Note_on_c, 0, 65, 0
2, 28560, Note_on_c, 0, 51, 100
2, 28620, Note_on_c, 0, 58, 0
2, 28620, Note_on_c, 0, 53, 100
2, 28680, Note_on_c, 0, 63, 0
2, 28740, Note_on_c, 0, 51, 0
2, 28740, Note_on_c, 0, 58, 100
2, 28800, Note_on_c, 0, 44, 0
2, 28800, Note_on_c, 0, 53, 0
2, 28800, Note_on_c, 0, 44, 100
2, 28860, Note_on_c, 0, 51, 100
2, 28920, Note_on_c, 0, 58, 0
2, 28920, Note_on_c, 0, 58, 100
2, 28980, Note_on_c, 0, 65, 100
2, 29040, Note_on_c, 0, 51, 0
2, 29100, Note_on_c, 0, 58, 0
2, 29100, Note_on_c, 0, 63, 100
2, 29160, Note_on_c, 0, 65, 0
2, 29220, Note_on_c, 0, 53, 100
2, 29280, Note_on_c, 0, 63, 0
2, 29280, Note_on_c, 0, 44, 0
2, 29280, Note_on_c, 0, 44, 100
2, 29340, Note_on_c, 0, 65, 100
2, 29400, Note_on_c, 0, 53, 0
2, 29400, Note_on_c, 0, 58, 100
2, 29460, Note_on_c, 0, 63, 100
2, 29520, Note_on_c, 0, 65, 0
2, 29520, Note_on_c, 0, 51, 100
2, 29580, Note_on_c, 0, 58, 0
2, 29580, Note_on_c, 0, 53, 100
2, 29640, Note_on_c, 0, 63, 0
2, 29700, Note_on_c, 0, 51, 0
2, 29700, Note_on_c, 0, 58, 100
2, 29760, Note_on_c, 0, 44, 0
2, 29760, Note_on_c, 0, 53, 0
2, 29760, Note_on_c, 0, 44, 100
2, 29820, Note_on_c, 0, 51, 100
2, 29880, Note_on_c, 0, 58, 0
2, 29880, Note_on_c, 0, 58, 100
2, 29940, Note_on_c, 0, 65, 100
2, 30000, Note_on_c, 0, 51, 0
2, 30060, Note_on_c, 0, 58, 0
2, 30060, Note_on_c, 0, 63, 100
2, 30120, Note_on_c, 0, 65, 0
2, 30180, Note_on_c, 0, 53, 100
2, 30240, Note_on_c, 0, 63, 0
2, 30240, Note_on_c, 0, 44, 0
2, 30240, Note_on_c, 0, 44, 100
2, 30300, Note_on_c, 0, 65, 100
2, 30360, Note_on_c, 0, 53, 0
2, 30360, Note_on_c, 0, 58, 100
2, 30420, Note_on_c, 0, 63, 100
2, 30480, Note_on_c, 0, 65, 0
2, 30480, Note_on_c, 0, 51, 100
2, 30540, Note_on_c, 0, 58, 0
2, 30540, Note_on_c, 0, 53, 100
2, 30600, Note_on_c, 0, 63, 0
2, 30660, Note_on_c, 0, 51, 0
2, 30660, Note_on_c, 0, 58, 100
2, 30720, Note_on_c, 0, 44, 0
2, 30720, Note_on_c, 0, 53, 0
2, 30720, Note_on_c, 0, 44, 100
2, 30780, Note_on_c, 0, 51, 100
2, 30840, Note_on_c, 0, 58, 0
2, 30840, Note_on_c, 0, 58, 100
2, 30900, Note_on_c, 0, 65, 100
2, 30960, Note_on_c, 0, 51, 0
2, 31020, Note_on_c, 0, 58, 0
2, 31020, Note_on_c, 0, 63, 100
2, 31080, Note_on_c, 0, 65, 0
2, 31140, Note_on_c, 0, 53, 100
2, 31200, Note_on_c, 0, 63, 0
2, 31200, Note_on_c, 0, 44, 0
2, 31200, Note_on_c, 0, 44, 100
2, 31260, Note_on_c, 0, 65, 100
2, 31320, Note_on_c, 0, 53, 0
2, 31320, Note_on_c, 0, 58, 100
2, 31380, Note_on_c, 0, 63, 100
2, 31440, Note_on_c, 0, 65, 0
2, 31440, Note_on_c, 0, 51, 100
2, 31500, Note_on_c, 0, 58, 0
2, 31500, Note_on_c, 0, 53, 100
2, 31560, Note_on_c, 0, 63, 0
2, 31620, Note_on_c, 0, 51, 0
2, 31620, Note_on_c, 0, 58, 100
2, 31680, Note_on_c, 0, 44, 0
2, 31680, Note_on_c, 0, 53, 0
2, 31680, Note_on_c, 0, 44, 100
2, 31740, Note_on_c, 0, 51, 100
2, 31800, Note_on_c, 0, 58, 0
2, 31800, Note_on_c, 0, 58, 100
2, 31860, Note_on_c, 0, 65, 100
2, 31920, Note_on_c, 0, 51, 0
2, 31980, Note_on_c, 0, 58, 0
2, 31980, Note_on_c, 0, 63, 100
2, 32040, Note_on_c, 0, 65, 0
2, 32100, Note_on_c, 0, 53, 100
2, 32160, Note_on_c, 0, 63, 0
2, 32160, Note_on_c, 0, 44, 0
2, 32160, Note_on_c, 0, 44, 100
2, 32220, Note_on_c, 0, 65, 100
2, 32280, Note_on_c, 0, 53, 0
2, 32280, Note_on_c, 0, 58, 100
2, 32340, Note_on_c, 0, 63, 100
2, 32400, Note_on_c, 0, 65, 0
2, 32400, Note_on_c, 0, 51, 100
2, 32460, Note_on_c, 0, 58, 0
2, 32460, Note_on_c, 0, 53, 100
2, 32520, Note_on_c, 0, 63, 0
2, 32580, Note_on_c, 0, 51, 0
2, 32580, Note_on_c, 0, 58, 100
2, 32640, Note_on_c, 0, 44, 0
2, 32640, Note_on_c, 0, 53, 0
2, 32640, Note_on_c, 0, 44, 100
2, 32700, Note_on_c, 0, 51, 100
2, 32760, Note_on_c, 0, 58, 0
2, 32760, Note_on_c, 0, 58, 100
2, 32820, Note_on_c, 0, 65, 100
2, 32880, Note_on_c, 0, 51, 0
2, 32940, Note_on_c, 0, 58, 0
2, 32940, Note_on_c, 0, 63, 100
2, 33000, Note_on_c, 0, 65, 0
2, 33060, Note_on_c, 0, 53, 100
2, 33120, Note_on_c, 0, 63, 0
2, 33120, Note_on_c, 0, 44, 0
2, 33120, Note_on_c, 0, 44, 100
2, 33180, Note_on_c, 0, 65, 100
2, 33240, Note_on_c, 0, 53, 0
2, 33240, Note_on_c, 0, 58, 100
2, 33300, Note_on_c, 0, 63, 100
2, 33360, Note_on_c, 0, 65, 0
2, 33360, Note_on_c, 0, 51, 100
2, 33420, Note_on_c, 0, 58, 0
2, 33420, Note_on_c, 0, 53, 100
2, 33480, Note_on_c, 0, 63, 0
2, 33540, Note_on_c, 0, 51, 0
2, 33540, Note_on_c, 0, 58, 100
2, 33600, Note_on_c, 0, 44, 0
2, 33600, Note_on_c, 0, 53, 0
2, 33600, Note_on_c, 0, 44, 100
2, 33660, Note_on_c, 0, 51, 100
2, 33720, Note_on_c, 0, 58, 0
2, 33720, Note_on_c, 0, 58, 100
2, 33780, Note_on_c, 0, 65, 100
2, 33840, Note_on_c, 0, 51, 0
2, 33900, Note_on_c, 0, 58, 0
2, 33900, Note_on_c, 0, 63, 100
2, 33960, Note_on_c, 0, 65, 0
2, 34020, Note_on_c, 0, 53, 100
2, 34080, Note_on_c, 0, 63, 0
2, 34080, Note_on_c, 0, 44, 0
2, 34080, Note_on_c, 0, 44, 100
2, 34140, Note_on_c, 0, 65, 100
2, 34200, Note_on_c, 0, 53, 0
2, 34200, Note_on_c, 0, 58, 100
2, 34260, Note_on_c, 0, 63, 100
2, 34320, Note_on_c, 0, 65, 0
2, 34320, Note_on_c, 0, 51, 100
2, 34380, Note_on_c, 0, 58, 0
2, 34380, Note_on_c, 0, 53, 100
2, 34440, Note_on_c, 0, 63, 0
2, 34500, Note_on_c, 0, 51, 0
2, 34500, Note_on_c, 0, 58, 100
2, 34560, Note_on_c, 0, 44, 0
2, 34560, Note_on_c, 0, 53, 0
2, 34560, Note_on_c, 0, 44, 100
2, 34620, Note_on_c, 0, 51, 100
2, 34680, Note_on_c, 0, 58, 0
2, 34680, Note_on_c, 0, 58, 100
2, 34740, Note_on_c, 0, 65, 100
2, 34800, Note_on_c, 0, 51, 0
2, 34860, Note_on_c, 0, 58, 0
2, 34860, Note_on_c, 0, 63, 100
2, 34920, Note_on_c, 0, 65, 0
2, 34980, Note_on_c, 0, 53, 100
2, 35040, Note_on_c, 0, 63, 0
2, 35040, Note_on_c, 0, 44, 0
2, 35040, Note_on_c, 0, 44, 100
2, 35100, Note_on_c, 0, 65, 100
2, 35160, Note_on_c, 0, 53, 0
2, 35160, Note_on_c, 0, 58, 100
2, 35220, Note_on_c, 0, 63, 100
2, 35280, Note_on_c, 0, 65, 0
2, 35280, Note_on_c, 0, 51, 100
2, 35340, Note_on_c, 0, 58, 0
2, 35340, Note_on_c, 0, 53, 100
2, 35400, Note_on_c, 0, 63, 0
2, 35460, Note_on_c, 0, 51, 0
2, 35460, Note_on_c, 0, 58, 100
2, 35520, Note_on_c, 0, 44, 0
2, 35520, Note_on_c, 0, 53, 0
2, 35520, Note_on_c, 0, 44, 100
2, 35580, Note_on_c, 0, 51, 100
2, 35640, Note_on_c, 0, 58, 0
2, 35640, Note_on_c, 0, 58, 100
2, 35700, Note_on_c, 0, 65, 100
2, 35760, Note_on_c, 0, 51, 0
2, 35820, Note_on_c, 0, 58, 0
2, 35820, Note_on_c, 0, 63, 100
2, 35880, Note_on_c, 0, 65, 0
2, 35940, Note_on_c, 0, 53, 100
2, 36000, Note_on_c, 0, 63, 0
2, 36000, Note_on_c, 0, 44, 0
2, 36000, Note_on_c, 0, 44, 100
2, 36060, Note_on_c, 0, 65, 100
2, 36120, Note_on_c, 0, 53, 0
2, 36120, Note_on_c, 0, 58, 100
2, 36180, Note_on_c, 0, 63, 100
2, 36240, Note_on_c, 0, 65, 0
2, 36240, Note_on_c, 0, 51, 100
2, 36300, Note_on_c, 0, 58, 0
2, 36300, Note_on_c, 0, 53, 100
2, 36360, Note_on_c, 0, 63, 0
2, 36420, Note_on_c, 0, 51, 0
2, 36420, Note_on_c, 0, 58, 100
2, 36480, Note_on_c, 0, 44, 0
2, 36480, Note_on_c, 0, 53, 0
2, 36480, Note_on_c, 0, 44, 100
2, 36540, Note_on_c, 0, 51, 100
2, 36600, Note_on_c, 0, 58, 0
2, 36600, Note_on_c, 0, 58, 100
2, 36660, Note_on_c, 0, 65, 100
2, 36720, Note_on_c, 0, 51, 0
2, 36780, Note_on_c, 0, 58, 0
2, 36780, Note_on_c, 0, 63, 100
2, 36840, Note_on_c, 0, 65, 0
2, 36900, Note_on_c, 0, 53, 100
2, 36960, Note_on_c, 0, 63, 0
2, 36960, Note_on_c, 0, 44, 0
2, 36960, Note_on_c, 0, 44, 100
2, 37020, Note_on_c, 0, 65, 100
2, 37080, Note_on_c, 0, 53, 0
2, 37080, Note_on_c, 0, 58, 100
2, 37140, Note_on_c, 0, 63, 100
2, 37200, Note_on_c, 0, 65, 0
2, 37200, Note_on_c, 0, 51, 100
2, 37260, Note_on_c, 0, 58, 0
2, 37260, Note_on_c, 0, 53, 100
2, 37320, Note_on_c, 0, 63, 0
2, 37380, Note_on_c, 0, 51, 0
2, 37380, Note_on_c, 0, 58, 100
2, 37440, Note_on_c, 0, 44, 0
2, 37440, Note_on_c, 0, 53, 0
2, 37440, Note_on_c, 0, 44, 100
2, 37500, Note_on_c, 0, 51, 100
2, 37560, Note_on_c, 0, 58, 0
2, 37560, Note_on_c, 0, 58, 100
2, 37620, Note_on_c, 0, 65, 100
2, 37680, Note_on_c, 0, 51, 0
2, 37740, Note_on_c, 0, 58, 0
2, 37740, Note_on_c, 0, 63, 100
2, 37800, Note_on_c, 0, 65, 0
2, 37860, Note_on_c, 0, 53, 100
2, 37920, Note_on_c, 0, 63, 0
2, 37920, Note_on_c, 0, 44, 0
2, 37920, Note_on_c, 0, 44, 100
2, 37980, Note_on_c, 0, 65, 100
2, 38040, Note_on_c, 0, 53, 0
2, 38040, Note_on_c, 0, 58, 100
2, 38100, Note_on_c, 0, 63, 100
2, 38160, Note_on_c, 0, 65, 0
2, 38160, Note_on_c, 0, 51, 100
2, 38220, Note_on_c, 0, 58, 0
2, 38220, Note_on_c, 0, 53, 100
2, 38280, Note_on_c, 0, 63, 0
2, 38340, Note_on_c, 0, 51, 0
2, 38340, Note_on_c, 0, 58, 100
2, 38400, Note_on_c, 0, 44, 0
2, 38400, Note_on_c, 0, 53, 0
2, 38400, Note_on_c, 0, 44, 100
2, 38460, Note_on_c, 0, 51, 100
2, 38520, Note_on_c, 0, 58, 0
2, 38520, Note_on_c, 0, 58, 100
2, 38580, Note_on_c, 0, 65, 100
2, 38640, Note_on_c, 0, 51, 0
2, 38700, Note_on_c, 0, 58, 0
2, 38700, Note_on_c, 0, 63, 100
2, 38760, Note_on_c, 0, 65, 0
2, 38820, Note_on_c, 0, 53, 100
2, 38880, Note_on_c, 0, 63, 0
2, 38880, Note_on_c, 0, 44, 0
2, 38880, Note_on_c, 0, 44, 100
2, 38940, Note_on_c, 0, 65, 100
2, 39000, Note_on_c, 0, 53, 0
2, 39000, Note_on_c, 0, 58, 100
2, 39060, Note_on_c, 0, 63, 100
2, 39120, Note_on_c, 0, 65, 0
2, 39120, Note_on_c, 0, 51, 100
2, 39180, Note_on_c, 0, 58, 0
2, 39180, Note_on_c, 0, 53, 100
2, 39240, Note_on_c, 0, 63, 0
2, 39300, Note_on_c, 0, 51, 0
2, 39300, Note_on_c, 0, 58, 100
2, 39360, Note_on_c, 0, 44, 0
2, 39360, Note_on_c, 0, 53, 0
2, 39360, Note_on_c, 0, 44, 100
2, 39420, Note_on_c, 0, 51, 100
2, 39480, Note_on_c, 0, 58, 0
2, 39480, Note_on_c, 0, 58, 100
2, 39540, Note_on_c, 0, 65, 100
2, 39600, Note_on_c, 0, 51, 0
2, 39660, Note_on_c, 0, 58, 0
2, 39660, Note_on_c, 0, 63, 100
2, 39720, Note_on_c, 0, 65, 0
2, 39780, Note_on_c, 0, 53, 100
2, 39840, Note_on_c, 0, 63, 0
2, 39840, Note_on_c, 0, 44, 0
2, 39840, Note_on_c, 0, 44, 100
2, 39900, Note_on_c, 0, 65, 100
2, 39960, Note_on_c, 0, 53, 0
2, 39960, Note_on_c, 0, 58, 100
2, 40020, Note_on_c, 0, 63, 100
2, 40080, Note_on_c, 0, 65, 0
2, 40080, Note_on_c, 0, 51, 100
2, 40140, Note_on_c, 0, 58, 0
2, 40140, Note_on_c, 0, 53, 100
2, 40200, Note_on_c, 0, 63, 0
2, 40260, Note_on_c, 0, 51, 0
2, 40260, Note_on_c, 0, 58, 100
2, 40320, Note_on_c, 0, 44, 0
2, 40320, Note_on_c, 0, 53, 0
2, 40320, Note_on_c, 0, 44, 100
2, 40380, Note_on_c, 0, 51, 100
2, 40440, Note_on_c, 0, 58, 0
2, 40440, Note_on_c, 0, 58, 100
2, 40500, Note_on_c, 0, 65, 100
2, 40560, Note_on_c, 0, 51, 0
2, 40620, Note_on_c, 0, 58, 0
2, 40620, Note_on_c, 0, 63, 100
2, 40680, Note_on_c, 0, 65, 0
2, 40740, Note_on_c, 0, 53, 100
2, 40800, Note_on_c, 0, 63, 0
2, 40800, Note_on_c, 0, 44, 0
2, 40800, Note_on_c, 0, 44, 100
2, 40860, Note_on_c, 0, 65, 100
2, 40920, Note_on_c, 0, 53, 0
2, 40920, Note_on_c, 0, 58, 100
2, 40980, Note_on_c, 0, 63, 100
2, 41040, Note_on_c, 0, 65, 0
2, 41040, Note_on_c, 0, 51, 100
2, 41100, Note_on_c, 0, 58, 0
2, 41100, Note_on_c, 0, 53, 100
2, 41160, Note_on_c, 0, 63, 0
2, 41220, Note_on_c, 0, 51, 0
2, 41220, Note_on_c, 0, 58, 100
2, 41280, Note_on_c, 0, 44, 0
2, 41280, Note_on_c, 0, 53, 0
2, 41280, Note_on_c, 0, 44, 100
2, 41340, Note_on_c, 0, 51, 100
2, 41400, Note_on_c, 0, 58, 0
2, 41400, Note_on_c, 0, 58, 100
2, 41460, Note_on_c, 0, 65, 100
2, 41520, Note_on_c, 0, 51, 0
2, 41580, Note_on_c, 0, 58, 0
2, 41580, Note_on_c, 0, 63, 100
2, 41640, Note_on_c, 0, 65, 0
2, 41700, Note_on_c, 0, 53, 100
2, 41760, Note_on_c, 0, 63, 0
2, 41760, Note_on_c, 0, 44, 0
2, 41760, Note_on_c, 0, 44, 100
2, 41820, Note_on_c, 0, 65, 100
2, 41880, Note_on_c, 0, 53, 0
2, 41880, Note_on_c, 0, 58, 100
2, 41940, Note_on_c, 0, 63, 100
2, 42000, Note_on_c, 0, 65, 0
2, 42000, Note_on_c, 0, 51, 100
2, 42060, Note_on_c, 0, 58, 0
2, 42060, Note_on_c, 0, 53, 100
2, 42120, Note_on_c, 0, 63, 0
2, 42180, Note_on_c, 0, 51, 0
2, 42180, Note_on_c, 0, 58, 100
2, 42240, Note_on_c, 0, 44, 0
2, 42240, Note_on_c, 0, 53, 0
2, 42240, Note_on_c, 0, 44, 100
2, 42300, Note_on_c, 0, 51, 100
2, 42360, Note_on_c, 0, 58, 0
2, 42360, Note_on_c, 0, 58, 100
2, 42420, Note_on_c, 0, 65, 100
2, 42480, Note_on_c, 0, 51, 0
2, 42540, Note_on_c, 0, 58, 0
2, 42540, Note_on_c, 0, 63, 100
2, 42600, Note_on_c, 0, 65, 0
2, 42660, Note_on_c, 0, 53, 100
2, 42720, Note_on_c, 0, 63, 0
2, 42720, Note_on_c, 0, 44, 0
2, 42840, Note_on_c, 0, 53, 0
2, 50400, Note_on_c, 0, 47, 100
2, 50460, Note_on_c, 0, 68, 100
2, 50520, Note_on_c, 0, 59, 100
2, 50580, Note_on_c, 0, 66, 100
2, 50640, Note_on_c, 0, 68, 0
2, 50640, Note_on_c, 0, 54, 100
2, 50700, Note_on_c, 0, 59, 0
2, 50700, Note_on_c, 0, 56, 100
2, 50760, Note_on_c, 0, 66, 0
2, 50820, Note_on_c, 0, 54, 0
2, 50820, Note_on_c, 0, 61, 100
2, 50880, Note_on_c, 0, 47, 0
2, 50880, Note_on_c, 0, 56, 0
2, 50880, Note_on_c, 0, 47, 100
2, 50940, Note_on_c, 0, 54, 100
2, 51000, Note_on_c, 0, 61, 0
2, 51000, Note_on_c, 0, 61, 100
2, 51060, Note_on_c, 0, 68, 100
2, 51120, Note_on_c, 0, 54, 0
2, 51180, Note_on_c, 0, 61, 0
2, 51180, Note_on_c, 0, 66, 100
2, 51240, Note_on_c, 0, 68, 0
2, 51300, Note_on_c, 0, 56, 100
2, 51360, Note_on_c, 0, 66, 0
2, 51360, Note_on_c, 0, 47, 0
2, 51360, Note_on_c, 0, 47, 100
2, 51420, Note_on_c, 0, 68, 100
2, 51480, Note_on_c, 0, 56, 0
2, 51480, Note_on_c, 0, 59, 100
2, 51540, Note_on_c, 0, 66, 100
2, 51600, Note_on_c, 0, 68, 0
2, 51600, Note_on_c, 0, 54, 100
2, 51660, Note_on_c, 0, 59, 0
2, 51660, Note_on_c, 0, 56, 100
2, 51720, Note_on_c, 0, 66, 0
2, 51780, Note_on_c, 0, 54, 0
2, 51780, Note_on_c, 0, 61, 100
2, 51840, Note_on_c, 0, 47, 0
2, 51840, Note_on_c, 0, 56, 0
2, 51840, Note_on_c, 0, 47, 100
2, 51900, Note_on_c, 0, 54, 100
2, 51960, Note_on_c, 0, 61, 0
2, 51960, Note_on_c, 0, 61, 100
2, 52020, Note_on_c, 0, 68, 100
2, 52080, Note_on_c, 0, 54, 0
2, 52140, Note_on_c, 0, 61, 0
2, 52140, Note_on_c, 0, 66, 100
2, 52200, Note_on_c, 0, 68, 0
2, 52260, Note_on_c, 0, 56, 100
2, 52320, Note_on_c, 0, 66, 0
2, 52320, Note_on_c, 0, 47, 0
2, 52320, Note_on_c, 0, 47, 100
2, 52380, Note_on_c, 0, 68, 100
2, 52440, Note_on_c, 0, 56, 0
2, 52440, Note_on_c, 0, 59, 100
2, 52500, Note_on_c, 0, 66, 100
2, 52560, Note_on_c, 0, 68, 0
2, 52560, Note_on_c, 0, 54, 100
2, 52620, Note_on_c, 0, 59, 0
2, 52620, Note_on_c, 0, 56, 100
2, 52680, Note_on_c, 0, 66, 0
2, 52740, Note_on_c, 0, 54, 0
2, 52740, Note_on_c, 0, 61, 100
2, 52800, Note_on_c, 0, 47, 0
2, 52800, Note_on_c, 0, 56, 0
2, 52800, Note_on_c, 0, 47, 100
2, 52860, Note_on_c, 0, 54, 100
2, 52920, Note_on_c, 0, 61, 0
2, 52920, Note_on_c, 0, 61, 100
2, 52980, Note_on_c, 0, 68, 100
2, 53040, Note_on_c, 0, 54, 0
2, 53100, Note_on_c, 0, 61, 0
2, 53100, Note_on_c, 0, 66, 100
2, 53160, Note_on_c, 0, 68, 0
2, 53220, Note_on_c, 0, 56, 100
2, 53280, Note_on_c, 0, 66, 0
2, 53280, Note_on_c, 0, 47, 0
2, 53280, Note_on_c, 0, 47, 100
2, 53340, Note_on_c, 0, 68, 100
2, 53400, Note_on_c, 0, 56, 0
2, 53400, Note_on_c, 0, 59, 100
2, 53460, Note_on_c, 0, 66, 100
2, 53520, Note_on_c, 0, 68, 0
2, 53520, Note_on_c, 0, 54, 100
2, 53580, Note_on_c, 0, 59, 0
2, 53580, Note_on_c, 0, 56, 100
2, 53640, Note_on_c, 0, 66, 0
2, 53700, Note_on_c, 0, 54, 0
2, 53700, Note_on_c, 0, 61, 100
2, 53760, Note_on_c, 0, 47, 0
2, 53760, Note_on_c, 0, 56, 0
2, 53760, Note_on_c, 0, 47, 100
2, 53820, Note_on_c, 0, 54, 100
2, 53880, Note_on_c, 0, 61, 0
2, 53880, Note_on_c, 0, 61, 100
2, 53940, Note_on_c, 0, 68, 100
2, 54000, Note_on_c, 0, 54, 0
2, 54060, Note_on_c, 0, 61, 0
2, 54060, Note_on_c, 0, 66, 100
2, 54120, Note_on_c, 0, 68, 0
2, 54180, Note_on_c, 0, 56, 100
2, 54240, Note_on_c, 0, 66, 0
2, 54240, Note_on_c, 0, 47, 0
2, 54240, Note_on_c, 0, 47, 100
2, 54300, Note_on_c, 0, 68, 100
2, 54360, Note_on_c, 0, 56, 0
2, 54360, Note_on_c, 0, 59, 100
2, 54420, Note_on_c, 0, 66, 100
2, 54480, Note_on_c, 0, 68, 0
2, 54480, Note_on_c, 0, 54, 100
2, 54540, Note_on_c, 0, 59, 0
2, 54540, Note_on_c, 0, 56, 100
2, 54600, Note_on_c, 0, 66, 0
2, 54660, Note_on_c, 0, 54, 0
2, 54660, Note_on_c, 0, 61, 100
2, 54720, Note_on_c, 0, 47, 0
2, 54720, Note_on_c, 0, 56, 0
2, 54720, Note_on_c, 0, 47, 100
2, 54780, Note_on_c, 0, 54, 100
2, 54840, Note_on_c, 0, 61, 0
2, 54840, Note_on_c, 0, 61, 100
2, 54900, Note_on_c, 0, 68, 100
2, 54960, Note_on_c, 0, 54, 0
2, 55020, Note_on_c, 0, 61, 0
2, 55020, Note_on_c, 0, 66, 100
2, 55080, Note_on_c, 0, 68, 0
2, 55140, Note_on_c, 0, 56, 100
2, 55200, Note_on_c, 0, 66, 0
2, 55200, Note_on_c, 0, 47, 0
2, 55200, Note_on_c, 0, 47, 100
2, 55260, Note_on_c, 0, 68, 100
2, 55320, Note_on_c, 0, 56, 0
2, 55320, Note_on_c, 0, 59, 100
2, 55380, Note_on_c, 0, 66, 100
2, 55440, Note_on_c, 0, 68, 0
2, 55440, Note_on_c, 0, 54, 100
2, 55500, Note_on_c, 0, 59, 0
2, 55500, Note_on_c, 0, 56, 100
2, 55560, Note_on_c, 0, 66, 0
2, 55620, Note_on_c, 0, 54, 0
2, 55620, Note_on_c, 0, 61, 100
2, 55680, Note_on_c, 0, 47, 0
2, 55680, Note_on_c, 0, 56, 0
2, 55680, Note_on_c, 0, 47, 100
2, 55740, Note_on_c, 0, 54, 100
2, 55800, Note_on_c, 0, 61, 0
2, 55800, Note_on_c, 0, 61, 100
2, 55860, Note_on_c, 0, 68, 100
2, 55920, Note_on_c, 0, 54, 0
2, 55980, Note_on_c, 0, 61, 0
2, 55980, Note_on_c, 0, 66, 100
2, 56040, Note_on_c, 0, 68, 0
2, 56100, Note_on_c, 0, 56, 100
2, 56160, Note_on_c, 0, 66, 0
2, 56160, Note_on_c, 0, 47, 0
2, 56160, Note_on_c, 0, 47, 100
2, 56220, Note_on_c, 0, 68, 100
2, 56280, Note_on_c, 0, 56, 0
2, 56280, Note_on_c, 0, 59, 100
2, 56340, Note_on_c, 0, 66, 100
2, 56400, Note_on_c, 0, 68, 0
2, 56400, Note_on_c, 0, 54, 100
2, 56460, Note_on_c, 0, 59, 0
2, 56460, Note_on_c, 0, 56, 100
2, 56520, Note_on_c, 0, 66, 0
2, 56580, Note_on_c, 0, 54, 0
2, 56580, Note_on_c, 0, 61, 100
2, 56640, Note_on_c, 0, 47, 0
2, 56640, Note_on_c, 0, 56, 0
2, 56640, Note_on_c, 0, 47, 100
2, 56700, Note_on_c, 0, 54, 100
2, 56760, Note_on_c, 0, 61, 0
2, 56760, Note_on_c, 0, 61, 100
2, 56820, Note_on_c, 0, 68, 100
2, 56880, Note_on_c, 0, 54, 0
2, 56940, Note_on_c, 0, 61, 0
2, 56940, Note_on_c, 0, 66, 100
2, 57000, Note_on_c, 0, 68, 0
2, 57060, Note_on_c, 0, 56, 100
2, 57120, Note_on_c, 0, 66, 0
2, 57120, Note_on_c, 0, 47, 0
2, 57120, Note_on_c, 0, 47, 100
2, 57180, Note_on_c, 0, 68, 100
2, 57240, Note_on_c, 0, 56, 0
2, 57240, Note_on_c, 0, 59, 100
2, 57300, Note_on_c, 0, 66, 100
2, 57360, Note_on_c, 0, 68, 0
2, 57360, Note_on_c, 0, 54, 100
2, 57420, Note_on_c, 0, 59, 0
2, 57420, Note_on_c, 0, 56, 100
2, 57480, Note_on_c, 0, 66, 0
2, 57540, Note_on_c, 0, 54, 0
2, 57540, Note_on_c, 0, 61, 100
2, 57600, Note_on_c, 0, 47, 0
2, 57600, Note_on_c, 0, 56, 0
2, 57600, Note_on_c, 0, 47, 100
2, 57660, Note_on_c, 0, 54, 100
2, 57720, Note_on_c, 0, 61, 0
2, 57720, Note_on_c, 0, 61, 100
2, 57780, Note_on_c, 0, 68, 100
2, 57840, Note_on_c, 0, 54, 0
2, 57900, Note_on_c, 0, 61, 0
2, 57900, Note_on_c, 0, 66, 100
2, 57960, Note_on_c, 0, 68, 0
2, 58020, Note_on_c, 0, 56, 100
2, 58080, Note_on_c, 0, 66, 0
2, 58080, Note_on_c, 0, 47, 0
2, 58080, Note_on_c, 0, 44, 100
2, 58140, Note_on_c, 0, 65, 100
2, 58200, Note_on_c, 0, 56, 0
2, 58200, Note_on_c, 0, 58, 100
2, 58260, Note_on_c, 0, 63, 100
2, 58320, Note_on_c, 0, 65, 0
2, 58320, Note_on_c, 0, 51, 100
2, 58380, Note_on_c, 0, 58, 0
2, 58380, Note_on_c, 0, 53, 100
2, 58440, Note_on_c, 0, 63, 0
2, 58500, Note_on_c, 0, 51, 0
2, 58500, Note_on_c, 0, 58, 100
2, 58560, Note_on_c, 0, 44, 0
2, 58560, Note_on_c, 0, 53, 0
2, 58560, Control_c, 0, 11, 127
2, 58560, Note_on_c, 0, 44, 100
2, 58590, Control_c, 0, 11, 126
2, 58610, Control_c, 0, 11, 125
2, 58620, Note_on_c, 0, 51, 100
2, 58640, Control_c, 0, 11, 124
2, 58660, Control_c, 0, 11, 123
2, 58680, Note_on_c, 0, 58, 0
2, 58680, Note_on_c, 0, 58, 100
2, 58690, Control_c, 0, 11, 122
2, 58710, Control_c, 0, 11, 121
2, 58740, Control_c, 0, 11, 120
2, 58740, Note_on_c, 0, 65, 100
2, 58760, Control_c, 0, 11, 119
2, 58790, Control_c, 0, 11, 118
2, 58800, Note_on_c, 0, 51, 0
2, 58810, Control_c, 0, 11, 117
2, 58840, Control_c, 0, 11, 116
2, 58860, Note_on_c, 0, 58, 0
2, 58860, Control_c, 0, 11, 115
2, 58860, Note_on_c, 0, 63, 100
2, 58880, Control_c, 0, 11, 114
2, 58910, Control_c, 0, 11, 113
2, 58920, Note_on_c, 0, 65, 0
2, 58930, Control_c, 0, 11, 112
2, 58960, Control_c, 0, 11, 111
2, 58980, Control_c, 0, 11, 110
2, 58980, Note_on_c, 0, 53, 100
2, 59010, Control_c, 0, 11, 109
2, 59030, Control_c, 0, 11, 108
2, 59040, Note_on_c, 0, 63, 0
2, 59040, Note_on_c, 0, 44, 0
2, 59040, Note_on_c, 0, 44, 100
2, 59060, Control_c, 0, 11, 107
2, 59080, Control_c, 0, 11, 106
2, 59100, Note_on_c, 0, 65, 100
2, 59110, Control_c, 0, 11, 105
2, 59130, Control_c, 0, 11, 104
2, 59150, Control_c, 0, 11, 103
2, 59160, Note_on_c, 0, 53, 0
2, 59160, Note_on_c, 0, 58, 100
2, 59180, Control_c, 0, 11, 102
2, 59200, Control_c, 0, 11, 101
2, 59220, Note_on_c, 0, 63, 100
2, 59230, Control_c, 0, 11, 100
2, 59250, Control_c, 0, 11, 99
2, 59280, Note_on_c, 0, 65, 0
2, 59280, Control_c, 0, 11, 98
2, 59280, Note_on_c, 0, 51, 100
2, 59300, Control_c, 0, 11, 97
2, 59330, Control_c, 0, 11, 96
2, 59340, Note_on_c, 0, 58, 0
2, 59340, Note_on_c, 0, 53, 100
2, 59350, Control_c, 0, 11, 95
2, 59380, Control_c, 0, 11, 94
2, 59400, Note_on_c, 0, 63, 0
2, 59400, Control_c, 0, 11, 93
2, 59420, Control_c, 0, 11, 92
2, 59450, Control_c, 0, 11, 91
2, 59460, Note_on_c, 0, 51, 0
2, 59460, Note_on_c, 0, 58, 100
2, 59470, Control_c, 0, 11, 90
2, 59500, Control_c, 0, 11, 89
2, 59520, Note_on_c, 0, 44, 0
2, 59520, Note_on_c, 0, 53, 0
2, 59520, Control_c, 0, 11, 88
2, 59520, Note_on_c, 0, 44, 100
2, 59550, Control_c, 0, 11, 87
2, 59570, Control_c, 0, 11, 86
2, 59580, Note_on_c, 0, 51, 100
2, 59600, Control_c, 0, 11, 85
2, 59620, Control_c, 0, 11, 84
2, 59640, Note_on_c, 0, 58, 0
2, 59640, Note_on_c, 0, 58, 100
2, 59650, Control_c, 0, 11, 83
2, 59670, Control_c, 0, 11, 82
2, 59700, Control_c, 0, 11, 81
2, 59700, Note_on_c, 0, 65, 100
2, 59720, Control_c, 0, 11, 80
2, 59740, Control_c, 0, 11, 79
2, 59760, Note_on_c, 0, 51, 0
2, 59770, Control_c, 0, 11, 78
2, 59790, Control_c, 0, 11, 77
2, 59820, Note_on_c, 0, 58, 0
2, 59820, Control_c, 0, 11, 76
2, 59820, Note_on_c, 0, 63, 100
2, 59840, Control_c, 0, 11, 75
2, 59870, Control_c, 0, 11, 74
2, 59880, Note_on_c, 0, 65, 0
2, 59890, Control_c, 0, 11, 73
2, 59920, Control_c, 0, 11, 72
2, 59940, Control_c, 0, 11, 71
2, 59940, Note_on_c, 0, 53, 100
2, 59970, Control_c, 0, 11, 70
2, 59990, Control_c, 0, 11, 69
2, 60000, Note_on_c, 0, 63, 0
2, 60000, Note_on_c, 0, 44, 0
2, 60000, Note_on_c, 0, 44, 100
2, 60010, Control_c, 0, 11, 68
2, 60040, Control_c, 0, 11, 67
2, 60060, Control_c, 0, 11, 66
2, 60060, Note_on_c, 0, 65, 100
2, 60090, Control_c, 0, 11, 65
2, 60110, Control_c, 0, 11, 64
2, 60120, Note_on_c, 0, 53, 0
2, 60120, Note_on_c, 0, 58, 100
2, 60140, Control_c, 0, 11, 63
2, 60160, Control_c, 0, 11, 62
2, 60180, Note_on_c, 0, 63, 100
2, 60190, Control_c, 0, 11, 61
2, 60210, Control_c, 0, 11, 60
2, 60240, Note_on_c, 0, 65, 0
2, 60240, Control_c, 0, 11, 59
2, 60240, Note_on_c, 0, 51, 100
2, 60260, Control_c, 0, 11, 58
2, 60280, Control_c, 0, 11, 57
2, 60300, Note_on_c, 0, 58, 0
2, 60300, Note_on_c, 0, 53, 100
2, 60310, Control_c, 0, 11, 56
2, 60330, Control_c, 0, 11, 55
2, 60360, Note_on_c, 0, 63, 0
2, 60360, Control_c, 0, 11, 54
2, 60380, Control_c, 0, 11, 53
2, 60410, Control_c, 0, 11, 52
2, 60420, Note_on_c, 0, 51, 0
2, 60420, Note_on_c, 0, 58, 100
2, 60430, Control_c, 0, 11, 51
2, 60460, Control_c, 0, 11, 50
2, 60480, Note_on_c, 0, 44, 0
2, 60480, Note_on_c, 0, 53, 0
2, 60480, Control_c, 0, 11, 49
2, 60480, Note_on_c, 0, 44, 100
2, 60510, Control_c, 0, 11, 48
2, 60530, Control_c, 0, 11, 47
2, 60540, Note_on_c, 0, 51, 100
2, 60550, Control_c, 0, 11, 46
2, 60580, Control_c, 0, 11, 45
2, 60600, Note_on_c, 0, 58, 0
2, 60600, Control_c, 0, 11, 44
2, 60600, Note_on_c, 0, 58, 100
2, 60630, Control_c, 0, 11, 43
2, 60650, Control_c, 0, 11, 42
2, 60660, Note_on_c, 0, 65, 100
2, 60680, Control_c, 0, 11, 41
2, 60700, Control_c, 0, 11, 40
2, 60720, Note_on_c, 0, 51, 0
2, 60730, Control_c, 0, 11, 39
2, 60750, Control_c, 0, 11, 38
2, 60780, Note_on_c, 0, 58, 0
2, 60780, Control_c, 0, 11, 37
2, 60780, Note_on_c, 0, 63, 100
2, 60800, Control_c, 0, 11, 36
2, 60830, Control_c, 0, 11, 35
2, 60840, Note_on_c, 0, 65, 0
2, 60850, Control_c, 0, 11, 34
2, 60870, Control_c, 0, 11, 33
2, 60900, Control_c, 0, 11, 32
2, 60900, Note_on_c, 0, 53, 100
2, 60920, Control_c, 0, 11, 31
2, 60950, Control_c, 0, 11, 30
2, 60960, Note_on_c, 0, 63, 0
2, 60960, Note_on_c, 0, 44, 0
2, 60960, Note_on_c, 0, 44, 100
2, 60970, Control_c, 0, 11, 29
2, 61000, Control_c, 0, 11, 28
2, 61020, Control_c, 0, 11, 27
2, 61020, Note_on_c, 0, 65, 100
2, 61050, Control_c, 0, 11, 26
2, 61070, Control_c, 0, 11, 25
2, 61080, Note_on_c, 0, 53, 0
2, 61080, Note_on_c, 0, 58, 100
2, 61100, Control_c, 0, 11, 24
2, 61120, Control_c, 0, 11, 23
2, 61140, Control_c, 0, 11, 22
2, 61140, Note_on_c, 0, 63, 100
2, 61170, Control_c, 0, 11, 21
2, 61190, Control_c, 0, 11, 20
2, 61200, Note_on_c, 0, 65, 0
2, 61200, Note_on_c, 0, 51, 100
2, 61220, Control_c, 0, 11, 19
2, 61240, Control_c, 0, 11, 18
2, 61260, Note_on_c, 0, 58, 0
2, 61260, Note_on_c, 0, 53, 100
2, 61270, Control_c, 0, 11, 17
2, 61290, Control_c, 0, 11, 16
2, 61320, Note_on_c, 0, 63, 0
2, 61320, Control_c, 0, 11, 15
2, 61340, Control_c, 0, 11, 14
2, 61370, Control_c, 0, 11, 10
2, 63469, Control_c, 0, 0, 0
2, 63527, Control_c, 0, 100, 10
2, 69682, Control_c, 0, 12, 20
2, 69693, Control_c, 0, 11, 30
2, 71785, Control_c, 0, 0, 0
2, 71838, Control_c, 0, 0, 0
2, 77993, Control_c, 0, 10, 0
2, 80085, Control_c, 0, 100, 20
2, 86240, Control_c, 0, 9, 30
2, 86251, Control_c, 0, 8, 10
2, 88350, Control_c, 0, 100, 10
2, 94505, Control_c, 0, 7, 30
2, 94516, Control_c, 0, 6, 20
2, 96622, Control_c, 0, 0, 0
2, 102777, Control_c, 0, 5, 0
2, 104883, Control_c, 0, 100, 30
2, 111038, Control_c, 0, 4, 20
2, 111049, Control_c, 0, 3, 10
2, 113162, Control_c, 0, 100, 20
2, 119317, Control_c, 0, 2, 20
2, 119328, Control_c, 0, 1, 20
2, 121427, Control_c, 0, 0, 0
2, 127582, Control_c, 0, 0, 60
2, 129688, Control_c, 0, 0, 0
2, 129751, Control_c, 0, 100, 60
2, 129816, Control_c, 0, 0, 60
2, 129869, Control_c, 0, 100, 60
2, 129932, Control_c, 0, 0, 0
2, 129976, Control_c, 0, 0, 120
2, 130029, Control_c, 0, 0, 0
2, 146332, Control_c, 0, 0, 77
2, 146332, Control_c, 0, 0, 0
2, 146332, Control_c, 0, 0, 0
2, 147062, Control_c, 0, 116, 128
2, 147098, Control_c, 0, 61, 0
2, 147098, Program_c, 0, 0
2, 147183, Program_c, 0, 2
2, 149236, Program_c, 0, 85
2, 149238, Program_c, 0, 0
2, 149238, Program_c, 0, 0
2, 149238, Program_c, 0, 0
2, 149238, Program_c, 0, 0
2, 149238, Program_c, 0, 0
2, 149238, Program_c, 0, 0
2, 149238, Program_c, 0, 0
2, 149238, Program_c, 0, 0
2, 149238, Program_c, 0, 0
2, 149238, Program_c, 0, 0
2, 149238, Program_c, 0, 0
2, 149238, Program_c, 0, 0
2, 149238, Program_c, 0, 0
2, 149238, Program_c, 0, 0
2, 149238, Program_c, 0, 0
2, 149238, Program_c, 0, 0
2, 149238, Program_c, 0, 0
2, 149238, Program_c, 0, 0
2, 149238, Program_c, 0, 0
2, 149238, Program_c, 0, 0
2, 149238, Program_c, 0, 0
2, 149238, Program_c, 0, 0
2, 149238, Program_c, 0, 0
2, 149238, Program_c, 0, 0
2, 149238, Program_c, 0, 0
2, 149238, Program_c, 0, 0
2, 149238, Program_c, 0, 0
2, 149238, Program_c, 0, 0
2, 149238, Program_c, 0, 0
2, 149238, Program_c, 0, 0
2, 149238, Program_c, 0, 0
2, 149238, Program_c, 0, 0
2, 149238, Program_c, 0, 0
2, 149238, Program_c, 0, 0
2, 149238, Program_c, 0, 0
2, 149238, Program_c, 0, 0
2, 149238, Program_c, 0, 0
2, 149238, Program_c, 0, 0
2, 149238, Program_c, 0, 0
2, 149238, Program_c, 0, 0
2, 149238, Program_c, 0, 0
2, 149238, Program_c, 0, 0
2, 149238, Program_c, 0, 0
2, 149238, Program_c, 0, 0
2, 149238, Program_c, 0, 0
2, 149238, Program_c, 0, 0
2, 149238, Program_c, 0, 0
2, 149238, Program_c, 0, 0
2, 149238, Program_c, 0, 0
2, 149238, Program_c, 0, 0
2, 149238, Program_c, 0, 0
2, 149238, Program_c, 0, 0
2, 149238, Program_c, 0, 0
2, 149238, Program_c, 0, 0
2, 149238, Program_c, 0, 0
2, 149238, Program_c, 0, 0
2, 149238, Program_c, 0, 0
2, 149238, Program_c, 0, 0
2, 149238, Program_c, 0, 0
2, 149238, Program_c, 0, 0
2, 149238, Program_c, 0, 0
2, 149238, Program_c, 0, 0
2, 149238, Program_c, 0, 0
2, 149238, Program_c, 0, 0
2, 149238, Program_c, 0, 0
2, 149238, Program_c, 0, 0
2, 149238, Program_c, 0, 0
2, 149238, Program_c, 0, 0
2, 149238, Program_c, 0, 0
2, 149238, Program_c, 0, 0
2, 149238, Program_c, 0, 0
2, 149238, Program_c, 0, 0
2, 149238, Program_c, 0, 0
2, 149238, Program_c, 0, 0
2, 149238, Program_c, 0, 0
2, 149238, Program_c, 0, 0
2, 149238, Program_c, 0, 0
2, 149238, Program_c, 0, 0
2, 149238, Program_c, 0, 0
2, 149238, Program_c, 0, 0
2, 149238, Program_c, 0, 0
2, 149238, Program_c, 0, 0
2, 149238, Program_c, 0, 0
2, 149238, Program_c, 0, 0
2, 149238, Program_c, 0, 0
2, 149238, Program_c, 0, 0
2, 149238, Program_c, 0, 0
2, 149238, Program_c, 0, 0
2, 149238, Program_c, 0, 0
2, 149238, Program_c, 0, 0
2, 149238, Program_c, 0, 0
2, 149238, Program_c, 0, 0
2, 149238, Program_c, 0, 0
2, 149238, Program_c, 0, 0
2, 149238, Program_c, 0, 0
2, 149238, Program_c, 0, 0
2, 149238, Program_c, 0, 0
2, 149238, Program_c, 0, 0
2, 149238, Program_c, 0, 0
2, 149238, Program_c, 0, 0
2, 149238, Program_c, 0, 0
2, 149238, Program_c, 0, 0
2, 149238, Program_c, 0, 0
2, 149238, Program_c, 0, 0
2, 149238, Program_c, 0, 0
2, 149238, Program_c, 0, 0
2, 149238, Program_c, 0, 0
2, 149238, Program_c, 0, 0
2, 149238, Program_c, 0, 0
2, 149238, Program_c, 0, 0
2, 149238, Program_c, 0, 0
2, 149238, Program_c, 0, 0
2, 149238, Program_c, 0, 0
2, 149238, Program_c, 0, 0
2, 149238, Program_c, 0, 0
2, 149238, Program_c, 0, 0
2, 149238, Program_c, 0, 0
2, 149238, Program_c, 0, 0
2, 149238, Program_c, 0, 0
2, 149238, Program_c, 0, 0
2, 149238, Program_c, 0, 0
2, 149238, Program_c, 0, 0
2, 149238, Program_c, 0, 0
2, 149238, Program_c, 0, 0
2, 149238, Program_c, 0, 0
2, 149238, Program_c, 0, 0
2, 149238, Program_c, 0, 0
2, 149238, Program_c, 0, 0
2, 149238, Program_c, 0, 0
2, 149238, Program_c, 0, 0
2, 149238, Program_c, 0, 0
2, 149238, Program_c, 0, 0
2, 149238, Program_c, 0, 0
2, 149238, Program_c, 0, 0
2, 149238, Program_c, 0, 0
2, 149238, Program_c, 0, 0
2, 149238, Program_c, 0, 0
2, 149238, Program_c, 0, 0
2, 149238, Program_c, 0, 0
2, 149238, Program_c, 0, 0
2, 149238, Program_c, 0, 0
2, 149238, Program_c, 0, 0
2, 149238, Program_c, 0, 0
2, 149238, Program_c, 0, 0
2, 149238, Program_c, 0, 0
2, 149238, Program_c, 0, 0
2, 149238, Program_c, 0, 0
2, 149238, Program_c, 0, 0
2, 149238, Program_c, 0, 0
2, 149238, Program_c, 0, 0
2, 149238, Program_c, 0, 0
2, 149238, Program_c, 0, 0
2, 149238, Program_c, 0, 0
2, 149238, Program_c, 0, 0
2, 149238, Program_c, 0, 0
2, 149238, Program_c, 0, 0
2, 149238, Program_c, 0, 0
2, 149238, Program_c, 0, 0
2, 149238, Program_c, 0, 0
2, 149238, Program_c, 0, 0
2, 149238, Program_c, 0, 0
2, 149238, Program_c, 0, 0
2, 149238, Program_c, 0, 0
2, 149238, Program_c, 0, 0
2, 149238, Program_c, 0, 0
2, 149238, Program_c, 0, 0
2, 149238, Program_c, 0, 0
2, 149238, Program_c, 0, 0
2, 149238, Program_c, 0, 0
2, 149238, Program_c, 0, 0
2, 149238, Program_c, 0, 0
2, 149238, Program_c, 0, 0
2, 149238, Program_c, 0, 0
2, 149238, Program_c, 0, 0
2, 149238, Program_c, 0, 0
2, 149238, Program_c, 0, 0
2, 149238, Program_c, 0, 0
2, 149238, Program_c, 0, 0
2, 149238, Program_c, 0, 0
2, 149238, Program_c, 0, 0
2, 149238, Program_c, 0, 0
2, 149238, Program_c, 0, 0
2, 149238, Program_c, 0, 0
2, 149238, Program_c, 0, 0
2, 149238, Program_c, 0, 0
2, 149238, Program_c, 0, 0
2, 149238, Program_c, 0, 0
2, 149238, Program_c, 0, 0
2, 149238, Program_c, 0, 0
2, 149238, Program_c, 0, 0
2, 149238, Program_c, 0, 0
2, 149238, Program_c, 0, 0
2, 149238, Program_c, 0, 0
2, 149238, Program_c, 0, 0
2, 149238, Program_c, 0, 0
2, 149238, Program_c, 0, 0
2, 149238, Program_c, 0, 0
2, 149238, Program_c, 0, 0
2, 149238, Program_c, 0, 0
2, 149238, Program_c, 0, 0
2, 149238, Program_c, 0, 0
2, 149238, Program_c, 0, 0
2, 149238, Program_c, 0, 0
2, 149238, Program_c, 0, 0
2, 149238, Program_c, 0, 0
2, 149238, Program_c, 0, 0
2, 149238, Program_c, 0, 0
2, 149238, Program_c, 0, 0
2, 149238, Program_c, 0, 0
2, 149238, Program_c, 0, 0
2, 149238, Program_c, 0, 0
2, 149238, Program_c, 0, 0
2, 149238, Program_c, 0, 0
2, 149238, Program_c, 0, 0
2, 149238, Program_c, 0, 0
2, 149238, Program_c, 0, 0
2, 149238, Program_c, 0, 0
2, 149238, Program_c, 0, 0
2, 149238, Program_c, 0, 0
2, 149238, Program_c, 0, 0
2, 149238, Program_c, 0, 0
2, 149238, Program_c, 0, 0
2, 149238, Program_c, 0, 0
2, 149238, Program_c, 0, 0
2, 149238, Program_c, 0, 0
2, 149238, Program_c, 0, 0
2, 149238, Program_c, 0, 0
2, 149238, Program_c, 0, 0
2, 149238, Program_c, 0, 0
2, 149238, Program_c, 0, 0
2, 149238, Program_c, 0, 0
2, 149238, Program_c, 0, 0
2, 149238, Program_c, 0, 0
2, 149238, Program_c, 0, 0
2, 149238, Program_c, 0, 0
2, 149238, Program_c, 0, 0
2, 149238, Program_c, 0, 0
2, 149238, Program_c, 0, 0
2, 149238, Program_c, 0, 0
2, 149238, Program_c, 0, 0
2, 149238, Program_c, 0, 0
2, 149238, Program_c, 0, 0
2, 149238, Program_c, 0, 0
2, 149238, Program_c, 0, 0
2, 149238, Program_c, 0, 0
2, 149238, Program_c, 0, 0
2, 149238, Program_c, 0, 0
2, 149238, Program_c, 0, 0
2, 149238, Program_c, 0, 0
2, 149238, Program_c, 0, 0
2, 149238, Program_c, 0, 0
2, 149238, Program_c, 0, 0
2, 149238, Program_c, 0, 0
2, 149238, Program_c, 0, 0
2, 149238, Program_c, 0, 0
2, 149238, Program_c, 0, 0
2, 149238, Program_c, 0, 0
2, 149238, Program_c, 0, 0
2, 149238, Program_c, 0, 0
2, 149238, Program_c, 0, 0
2, 149238, Program_c, 0, 0
2, 149238, Program_c, 0, 0
2, 149238, Program_c, 0, 0
2, 149238, Program_c, 0, 0
2, 149238, Program_c, 0, 0
2, 149238, Program_c, 0, 0
2, 149238, Program_c, 0, 0
2, 149238, Program_c, 0, 0
2, 149238, Program_c, 0, 0
2, 149238, Program_c, 0, 0
2, 149238, Program_c, 0, 0
2, 149238, Program_c, 0, 0
2, 149238, Program_c, 0, 0
2, 149238, Program_c, 0, 0
2, 149238, Program_c, 0, 0
2, 149238, Program_c, 0, 0
2, 149238, Program_c, 0, 0
2, 149238, Program_c, 0, 0
2, 149238, Program_c, 0, 0
2, 149238, Program_c, 0, 0
2, 149238, Program_c, 0, 0
2, 149238, Program_c, 0, 0
2, 149238, Program_c, 0, 0
2, 149238, Program_c, 0, 0
2, 149238, Program_c, 0, 0
2, 149238, Program_c, 0, 0
2, 149238, Program_c, 0, 0
2, 149238, Program_c, 0, 0
2, 149238, Program_c, 0, 0
2, 149238, Program_c, 0, 0
2, 149238, Program_c, 0, 0
2, 149238, Program_c, 0, 0
2, 149238, Program_c, 0, 0
2, 149238, Program_c, 0, 0
2, 149238, Program_c, 0, 0
2, 149238, Program_c, 0, 0
2, 149238, Program_c, 0, 0
2, 149238, Program_c, 0, 0
2, 149238, Program_c, 0, 0
2, 149238, Program_c, 0, 0
2, 149238, Program_c, 0, 0
2, 149238, Program_c, 0, 0
2, 149238, Program_c, 0, 0
2, 149238, Program_c, 0, 0
2, 149238, Program_c, 0, 0
2, 149238, Program_c, 0, 0
2, 149238, Program_c, 0, 0
2, 149238, Program_c, 0, 0
2, 149238, Program_c, 0, 0
2, 149238, Program_c, 0, 0
2, 149238, Program_c, 0, 0
2, 149238, Program_c, 0, 0
2, 149238, Program_c, 0, 0
2, 149238, Program_c, 0, 0
2, 149238, Program_c, 0, 0
2, 149238, Program_c, 0, 0
2, 149238, Program_c, 0, 0
2, 149238, Program_c, 0, 0
2, 149238, Program_c, 0, 0
2, 149238, Program_c, 0, 0
2, 149238, Program_c, 0, 0
2, 149238, Program_c, 0, 0
2, 149238, Program_c, 0, 0
2, 149238, Program_c, 0, 0
2, 149238, Program_c, 0, 0
2, 149238, Program_c, 0, 0
2, 149238, Program_c, 0, 0
2, 149238, Program_c, 0, 0
2, 149238, Program_c, 0, 0
2, 149238, Program_c, 0, 0
2, 149238, Program_c, 0, 0
2, 149238, Program_c, 0, 0
2, 149238, Program_c, 0, 0
2, 149238, Program_c, 0, 0
2, 149238, Program_c, 0, 0
2, 149238, Program_c, 0, 0
2, 149238, Program_c, 0, 0
2, 149238, Program_c, 0, 0
2, 149238, Program_c, 0, 0
2, 149238, Program_c, 0, 0
2, 149238, Program_c, 0, 0
2, 149238, Program_c, 0, 0
2, 149238, Program_c, 0, 0
2, 149238, Program_c, 0, 0
2, 149238, Program_c, 0, 0
2, 149238, Program_c, 0, 0
2, 149238, Program_c, 0, 0
2, 149238, Program_c, 0, 0
2, 149238, Program_c, 0, 0
2, 149238, Program_c, 0, 0
2, 149238, Program_c, 0, 0
2, 149238, Program_c, 0, 0
2, 149238, Program_c, 0, 0
2, 149238, Program_c, 0, 0
2, 149238, Program_c, 0, 0
2, 149238, Program_c, 0, 0
2, 149238, Program_c, 0, 0
2, 149238, Program_c, 0, 0
2, 149238, Program_c, 0, 0
2, 149238, Program_c, 0, 0
2, 149238, Program_c, 0, 0
2, 149238, Program_c, 0, 0
2, 149238, Program_c, 0, 0
2, 149238, Program_c, 0, 0
2, 149238, Program_c, 0, 0
2, 149238, Program_c, 0, 0
2, 149238, Program_c, 0, 0
2, 149238, Program_c, 0, 0
2, 149238, Program_c, 0, 0
2, 149238, Program_c, 0, 0
2, 149238, Program_c, 0, 0
2, 149238, Program_c, 0, 0
2, 149238, Program_c, 0, 0
2, 149238, Program_c, 0, 0
2, 149238, Program_c, 0, 0
2, 149238, Program_c, 0, 0
2, 149238, Program_c, 0, 0
2, 149238, Program_c, 0, 0
2, 149238, Program_c, 0, 0
2, 149238, Program_c, 0, 0
2, 149238, Program_c, 0, 0
2, 149238, Program_c, 0, 0
2, 149238, Program_c, 0, 0
2, 149238, Program_c, 0, 0
2, 149238, Program_c, 0, 0
2, 149238, Program_c, 0, 0
2, 149238, Program_c, 0, 0
2, 149238, Program_c, 0, 0
2, 149238, Program_c, 0, 0
2, 149238, Program_c, 0, 0
2, 149238, Program_c, 0, 0
2, 149238, Program_c, 0, 0
2, 149238, Program_c, 0, 0
2, 149238, Program_c, 0, 0
2, 149238, Program_c, 0, 0
2, 149238, Program_c, 0, 0
2, 149238, Program_c, 0, 0
2, 149238, Program_c, 0, 0
2, 149238, Program_c, 0, 0
2, 149238, Program_c, 0, 0
2, 149238, Program_c, 0, 0
2, 149238, Program_c, 0, 0
2, 149238, Program_c, 0, 0
2, 149238, Program_c, 0, 0
2, 149238, Program_c, 0, 0
2, 149238, Program_c, 0, 0
2, 149238, Program_c, 0, 0
2, 149238, Program_c, 0, 0
2, 149238, Program_c, 0, 0
2, 149238, Program_c, 0, 0
2, 149238, Program_c, 0, 0
2, 149238, Program_c, 0, 0
2, 149238, Program_c, 0, 0
2, 149238, Program_c, 0, 0
2, 149238, Program_c, 0, 0
2, 149238, Program_c, 0, 0
2, 149238, Program_c, 0, 0
2, 149238, Program_c, 0, 0
2, 149238, Program_c, 0, 0
2, 149238, Program_c, 0, 0
2, 149238, Program_c, 0, 0
2, 149238, Program_c, 0, 0
2, 149238, Program_c, 0, 0
2, 149238, Program_c, 0, 0
2, 149238, Program_c, 0, 0
2, 149238, Program_c, 0, 0
2, 149238, Program_c, 0, 0
2, 149238, Program_c, 0, 0
2, 149238, Program_c, 0, 0
2, 149238, Program_c, 0, 0
2, 149238, Program_c, 0, 0
2, 149238, Program_c, 0, 0
2, 149238, Program_c, 0, 0
2, 149238, Program_c, 0, 0
2, 149238, Program_c, 0, 0
2, 149238, Program_c, 0, 0
2, 149238, Program_c, 0, 0
2, 149238, Program_c, 0, 0
2, 149238, Program_c, 0, 0
2, 149238, Program_c, 0, 0
2, 149238, Program_c, 0, 0
2, 149238, Program_c, 0, 0
2, 149238, Program_c, 0, 0
2, 149238, Program_c, 0, 0
2, 149238, Program_c, 0, 0
2, 149238, Program_c, 0, 0
2, 149238, Program_c, 0, 0
2, 149238, Program_c, 0, 0
2, 149238, Program_c, 0, 0
2, 149238, Program_c, 0, 0
2, 149238, Program_c, 0, 0
2, 149238, Program_c, 0, 0
2, 149238, Program_c, 0, 0
2, 149238, Program_c, 0, 0
2, 149238, Program_c, 0, 0
2, 149238, Program_c, 0, 0
2, 149238, Program_c, 0, 0
2, 149238, Program_c, 0, 0
2, 149238, Program_c, 0, 0
2, 149238, Program_c, 0, 0
2, 149238, Program_c, 0, 0
2, 149238, Program_c, 0, 0
2, 149238, Program_c, 0, 0
2, 149238, Program_c, 0, 0
2, 149238, Program_c, 0, 0
2, 149238, Program_c, 0, 0
2, 149238, Program_c, 0, 0
2, 149238, Program_c, 0, 0
2, 149238, Program_c, 0, 0
2, 149238, Program_c, 0, 0
2, 149238, Program_c, 0, 0
2, 149238, Program_c, 0, 0
2, 149238, Program_c, 0, 0
2, 149238, Program_c, 0, 0
2, 149238, Program_c, 0, 0
2, 149238, Program_c, 0, 0
2, 149238, Program_c, 0, 0
2, 149238, Program_c, 0, 0
2, 149238, Program_c, 0, 0
2, 149238, Program_c, 0, 0
2, 149238, Program_c, 0, 0
2, 149238, Program_c, 0, 0
2, 149238, Program_c, 0, 0
2, 149238, Program_c, 0, 0
2, 149238, Program_c, 0, 0
2, 149238, Program_c, 0, 0
2, 149238, Program_c, 0, 0
2, 149238, Program_c, 0, 0
2, 149238, Program_c, 0, 0
2, 149238, Program_c, 0, 0
2, 149238, Program_c, 0, 0
2, 149238, Program_c, 0, 0
2, 149238, Program_c, 0, 0
2, 149238, Program_c, 0, 0
2, 149238, Program_c, 0, 0
2, 149238, Program_c, 0, 0
2, 149238, Program_c, 0, 0
2, 149238, Program_c, 0, 0
2, 149238, Program_c, 0, 0
2, 149238, Program_c, 0, 0
2, 149238, Program_c, 0, 0
2, 149238, Program_c, 0, 0
2, 149238, Program_c, 0, 0
2, 149238, Program_c, 0, 0
2, 149238, Program_c, 0, 0
2, 149238, Program_c, 0, 0
2, 149238, Program_c, 0, 0
2, 149238, Program_c, 0, 0
2, 149238, Program_c, 0, 0
2, 149238, Program_c, 0, 0
2, 149238, Program_c, 0, 0
2, 149238, Program_c, 0, 0
2, 149238, Program_c, 0, 0
2, 149238, Program_c, 0, 0
2, 149238, Program_c, 0, 0
2, 149238, Program_c, 0, 0
2, 149238, Program_c, 0, 0
2, 149238, Program_c, 0, 0
2, 149238, Program_c, 0, 0
2, 149238, Program_c, 0, 0
2, 149238, Program_c, 0, 0
2, 149238, Program_c, 0, 0
2, 149238, Program_c, 0, 0
2, 149238, Program_c, 0, 0
2, 149238, Program_c, 0, 0
2, 149238, Program_c, 0, 0
2, 149238, Program_c, 0, 0
2, 149238, Program_c, 0, 0
2, 149238, Program_c, 0, 0
2, 149238, Program_c, 0, 0
2, 149238, Program_c, 0, 0
2, 149238, Program_c, 0, 0
2, 149238, Program_c, 0, 0
2, 149238, Program_c, 0, 0
2, 149238, Program_c, 0, 0
2, 149238, Program_c, 0, 0
2, 149238, Program_c, 0, 0
2, 149238, Program_c, 0, 0
2, 149238, Program_c, 0, 0
2, 149238, Program_c, 0, 0
2, 149238, Program_c, 0, 0
2, 149238, Program_c, 0, 0
2, 149238, Program_c, 0, 0
2, 149238, Program_c, 0, 0
2, 149238, Program_c, 0, 0
2, 149238, Program_c, 0, 0
2, 149238, Program_c, 0, 0
2, 149238, Program_c, 0, 0
2, 149238, Program_c, 0, 0
2, 149238, Program_c, 0, 0
2, 149238, Program_c, 0, 0
2, 149238, Program_c, 0, 0
2, 149238, Program_c, 0, 0
2, 149238, Program_c, 0, 0
2, 149238, Program_c, 0, 0
2, 149238, Program_c, 0, 0
2, 149238, Program_c, 0, 0
2, 149238, Program_c, 0, 0
2, 149238, Program_c, 0, 0
2, 149238, Program_c, 0, 0
2, 149238, Program_c, 0, 0
2, 149238, Program_c, 0, 0
2, 149238, Program_c, 0, 0
2, 149238, Program_c, 0, 0
2, 149238, Program_c, 0, 0
2, 149238, Program_c, 0, 0
2, 149238, Program_c, 0, 0
2, 149238, Program_c, 0, 0
2, 149238, Program_c, 0, 0
2, 149238, Program_c, 0, 0
2, 149238, Program_c, 0, 0
2, 149238, Program_c, 0, 0
2, 149238, Program_c, 0, 0
2, 149238, Program_c, 0, 0
2, 149238, Program_c, 0, 0
2, 149238, Program_c, 0, 0
2, 149238, Program_c, 0, 0
2, 149238, Program_c, 0, 0
2, 149238, Program_c, 0, 0
2, 149238, Program_c, 0, 0
2, 149238, Program_c, 0, 0
2, 149238, Program_c, 0, 0
2, 149238, Program_c, 0, 0
2, 149238, Program_c, 0, 0
2, 149238, Program_c, 0, 0
2, 149238, Program_c, 0, 0
2, 149238, Program_c, 0, 0
2, 149238, Program_c, 0, 0
2, 149238, Program_c, 0, 0
2, 149238, Program_c, 0, 0
2, 149238, Program_c, 0, 0
2, 149238, Program_c, 0, 0
2, 149238, Program_c, 0, 0
2, 149238, Program_c, 0, 0
2, 149238, Program_c, 0, 0
2, 149238, Program_c, 0, 0
2, 149238, Program_c, 0, 0
2, 149238, Program_c, 0, 0
2, 149238, Program_c, 0, 0
2, 149238, Program_c, 0, 0
2, 149238, Program_c, 0, 0
2, 149238, Program_c, 0, 0
2, 149238, Program_c, 0, 0
2, 149238, Program_c, 0, 0
2, 149238, Program_c, 0, 0
2, 149238, Program_c, 0, 0
2, 149238, Program_c, 0, 0
2, 149238, Program_c, 0, 0
2, 149238, Program_c, 0, 0
2, 149238, Program_c, 0, 0
2, 149238, Program_c, 0, 0
2, 149238, Program_c, 0, 0
2, 149238, Program_c, 0, 0
2, 149238, Program_c, 0, 0
2, 149238, Program_c, 0, 0
2, 149238, Program_c, 0, 0
2, 149238, Program_c, 0, 0
2, 149238, Program_c, 0, 0
2, 149238, Program_c, 0, 0
2, 149238, Program_c, 0, 0
2, 149238, Program_c, 0, 0
2, 149238, Program_c, 0, 0
2, 149238, Program_c, 0, 0
2, 149238, Program_c, 0, 0
2, 149238, Program_c, 0, 0
2, 149238, Program_c, 0, 0
2, 149238, Program_c, 0, 0
2, 149238, Program_c, 0, 0
2, 149238, Program_c, 0, 0
2, 149238, Program_c, 0, 0
2, 149238, Program_c, 0, 0
2, 149238, Program_c, 0, 0
2, 149238, Program_c, 0, 0
2, 149238, Program_c, 0, 0
2, 149238, Program_c, 0, 0
2, 149238, Program_c, 0, 0
2, 149238, Program_c, 0, 0
2, 149238, Program_c, 0, 0
2, 149238, Program_c, 0, 0
2, 149238, Program_c, 0, 0
2, 149238, Program_c, 0, 0
2, 149238, Program_c, 0, 0
2, 149238, Program_c, 0, 0
2, 149238, Program_c, 0, 0
2, 149238, Program_c, 0, 0
2, 149238, Program_c, 0, 0
2, 149238, Program_c, 0, 0
2, 149238, Program_c, 0, 0
2, 149238, Program_c, 0, 0
2, 149238, Program_c, 0, 0
2, 149238, Program_c, 0, 0
2, 149238, Program_c, 0, 0
2, 149238, Program_c, 0, 0
2, 149238, Program_c, 0, 0
2, 149238, Program_c, 0, 0
2, 149238, Program_c, 0, 0
2, 149238, Program_c, 0, 0
2, 149238, Program_c, 0, 0
2, 149238, Program_c, 0, 0
2, 149238, Program_c, 0, 0
2, 149238, Program_c, 0, 0
2, 149238, Program_c, 0, 0
2, 149238, Program_c, 0, 0
2, 149238, Program_c, 0, 0
2, 149238, Program_c, 0, 0
2, 149238, Program_c, 0, 0
2, 149238, Program_c, 0, 0
2, 149238, Program_c, 0, 0
2, 149238, Program_c, 0, 0
2, 149238, Program_c, 0, 0
2, 149238, Program_c, 0, 0
2, 149238, Program_c, 0, 0
2, 149238, Program_c, 0, 0
2, 149238, Program_c, 0, 0
2, 149238, Program_c, 0, 0
2, 149238, Program_c, 0, 0
2, 149238, Program_c, 0, 0
2, 149238, Program_c, 0, 0
2, 149238, Program_c, 0, 0
2, 149238, Program_c, 0, 0
2, 149238, Program_c, 0, 0
2, 149238, Program_c, 0, 0
2, 149238, Program_c, 0, 0
2, 149238, Program_c, 0, 0
2, 149238, Program_c, 0, 0
2, 149238, Program_c, 0, 0
2, 149238, Program_c, 0, 0
2, 149238, Program_c, 0, 0
2, 149238, Program_c, 0, 0
2, 149238, Program_c, 0, 0
2, 149238, Program_c, 0, 0
2, 149238, Program_c, 0, 0
2, 149238, Program_c, 0, 0
2, 149238, Program_c, 0, 0
2, 149238, Program_c, 0, 0
2, 149238, Program_c, 0, 0
2, 149238, Program_c, 0, 0
2, 149238, Program_c, 0, 0
2, 149238, Program_c, 0, 0
2, 149238, Program_c, 0, 0
2, 149238, Program_c, 0, 0
2, 149238, Program_c, 0, 0
2, 149238, Program_c, 0, 0
2, 149238, Program_c, 0, 0
2, 149238, Program_c, 0, 0
2, 149238, Program_c, 0, 0
2, 149238, Program_c, 0, 0
2, 149238, Program_c, 0, 0
2, 149238, Program_c, 0, 0
2, 149238, Program_c, 0, 0
2, 149238, Program_c, 0, 0
2, 149238, Program_c, 0, 0
2, 149238, Program_c, 0, 0
2, 149238, Program_c, 0, 0
2, 149238, Program_c, 0, 0
2, 149238, Program_c, 0, 0
2, 149238, Program_c, 0, 0
2, 149238, Program_c, 0, 0
2, 149238, Program_c, 0, 0
2, 149238, Program_c, 0, 0
2, 149238, Program_c, 0, 0
2, 149238, Program_c, 0, 0
2, 149238, Program_c, 0, 0
2, 149238, Program_c, 0, 0
2, 149238, Program_c, 0, 0
2, 149238, Program_c, 0, 0
2, 149238, Program_c, 0, 0
2, 149238, Program_c, 0, 0
2, 149238, Program_c, 0, 0
2, 149238, Program_c, 0, 0
2, 149238, Program_c, 0, 0
2, 149238, Program_c, 0, 0
2, 149238, Program_c, 0, 0
2, 149238, Program_c, 0, 0
2, 149238, Program_c, 0, 0
2, 149238, Program_c, 0, 0
2, 149238, Program_c, 0, 0
2, 149238, Program_c, 0, 0
2, 149238, Program_c, 0, 0
2, 149238, Program_c, 0, 0
2, 149238, Program_c, 0, 0
2, 149238, Program_c, 0, 0
2, 149238, Program_c, 0, 0
2, 149238, Program_c, 0, 0
2, 149238, Program_c, 0, 0
2, 149238, Program_c, 0, 0
2, 149238, Program_c, 0, 0
2, 149238, Program_c, 0, 0
2, 149238, Program_c, 0, 0
2, 149238, Program_c, 0, 0
2, 149238, Program_c, 0, 0
2, 149238, Program_c, 0, 0
2, 149238, Program_c, 0, 0
2, 149238, Program_c, 0, 0
2, 149238, Program_c, 0, 0
2, 149238, Program_c, 0, 0
2, 149238, Program_c, 0, 0
2, 149238, Program_c, 0, 0
2, 149238, Program_c, 0, 0
2, 149238, Program_c, 0, 0
2, 149238, Program_c, 0, 0
2, 149238, Program_c, 0, 0
2, 149238, Program_c, 0, 0
2, 149238, Program_c, 0, 0
2, 149238, Program_c, 0, 0
2, 149238, Program_c, 0, 0
2, 149238, Program_c, 0, 0
2, 149238, Program_c, 0, 0
2, 149238, Program_c, 0, 0
2, 149238, Program_c, 0, 0
2, 149238, Program_c, 0, 0
2, 149238, Program_c, 0, 0
2, 149238, Program_c, 0, 0
2, 149238, Program_c, 0, 0
2, 149238, Program_c, 0, 0
2, 149238, Program_c, 0, 0
2, 149238, Program_c, 0, 0
2, 149238, Program_c, 0, 0
2, 149238, Program_c, 0, 0
2, 149238, Program_c, 0, 0
2, 149238, Program_c, 0, 0
2, 149238, Program_c, 0, 0
2, 149238, Program_c, 0, 0
2, 149238, Program_c, 0, 0
2, 149238, Program_c, 0, 0
2, 149238, Program_c, 0, 0
2, 149238, Program_c, 0, 0
2, 149238, Program_c, 0, 0
2, 149238, Program_c, 0, 0
2, 149238, Program_c, 0, 0
2, 149238, Program_c, 0, 0
2, 149238, Program_c, 0, 0
2, 149238, Program_c, 0, 0
2, 149238, Program_c, 0, 0
2, 149238, Program_c, 0, 0
2, 149238, Program_c, 0, 0
2, 149238, Program_c, 0, 0
2, 149238, Program_c, 0, 0
2, 149238, Program_c, 0, 0
2, 149238, Program_c, 0, 0
2, 149238, Program_c, 0, 0
2, 149238, Program_c, 0, 0
2, 149238, Program_c, 0, 0
2, 149238, Program_c, 0, 0
2, 149238, Program_c, 0, 0
2, 149238, Program_c, 0, 0
2, 149238, Program_c, 0, 0
2, 149238, Program_c, 0, 0
2, 149238, Program_c, 0, 0
2, 149238, Program_c, 0, 0
2, 149238, Program_c, 0, 0
2, 149238, Program_c, 0, 0
2, 149238, Program_c, 0, 0
2, 149238, Program_c, 0, 0
2, 149238, Program_c, 0, 0
2, 149238, Program_c, 0, 0
2, 149238, Program_c, 0, 0
2, 149238, Program_c, 0, 0
2, 149238, Program_c, 0, 0
2, 149238, Program_c, 0, 0
2, 149238, Program_c, 0, 0
2, 149238, Program_c, 0, 0
2, 149238, Program_c, 0, 0
2, 149238, Program_c, 0, 0
2, 149238, Program_c, 0, 0
2, 149238, Program_c, 0, 0
2, 149238, Program_c, 0, 0
2, 149238, Program_c, 0, 0
2, 149238, Program_c, 0, 0
2, 149238, Program_c, 0, 0
2, 149238, Program_c, 0, 0
2, 149238, Program_c, 0, 0
2, 149238, Program_c, 0, 0
2, 149238, Program_c, 0, 0
2, 149238, Program_c, 0, 0
2, 149238, Program_c, 0, 0
2, 149238, Program_c, 0, 0
2, 149238, Program_c, 0, 0
2, 149238, Program_c, 0, 0
2, 149238, Program_c, 0, 0
2, 149238, Program_c, 0, 0
2, 149238, Program_c, 0, 0
2, 149238, Program_c, 0, 0
2, 149238, Program_c, 0, 0
2, 149238, Program_c, 0, 0
2, 149238, Program_c, 0, 0
2, 149238, Program_c, 0, 0
2, 149238, Program_c, 0, 0
2, 149238, Program_c, 0, 0
2, 149238, Program_c, 0, 0
2, 149238, Program_c, 0, 0
2, 149238, Program_c, 0, 0
2, 149238, Program_c, 0, 0
2, 149238, Program_c, 0, 0
2, 149238, Program_c, 0, 0
2, 149238, Program_c, 0, 0
2, 149238, Program_c, 0, 0
2, 149238, Program_c, 0, 0
2, 149238, Program_c, 0, 0
2, 149238, Program_c, 0, 0
2, 149238, Program_c, 0, 0
2, 149238, Program_c, 0, 0
2, 149238, Program_c, 0, 0
2, 149238, Program_c, 0, 0
2, 149238, Program_c, 0, 0
2, 149238, Program_c, 0, 0
2, 149238, Program_c, 0, 0
2, 149238, Program_c, 0, 0
2, 149238, Program_c, 0, 0
2, 149238, Program_c, 0, 0
2, 149238, Program_c, 0, 0
2, 149238, Program_c, 0, 0
2, 149238, Program_c, 0, 0
2, 149238, Program_c, 0, 0
2, 149238, Program_c, 0, 0
2, 149238, Program_c, 0, 0
2, 149238, Program_c, 0, 0
2, 149238, Program_c, 0, 0
2, 149238, Program_c, 0, 0
2, 149238, Program_c, 0, 0
2, 149238, Program_c, 0, 0
2, 149238, Program_c, 0, 0
2, 149238, Program_c, 0, 0
2, 149238, Program_c, 0, 0
2, 149238, Program_c, 0, 0
2, 149238, Program_c, 0, 0
2, 149238, Program_c, 0, 0
2, 149238, Program_c, 0, 0
2, 149238, Program_c, 0, 0
2, 149238, Program_c, 0, 0
2, 149238, Program_c, 0, 0
2, 149238, Program_c, 0, 0
2, 149238, Program_c, 0, 0
2, 149238, Program_c, 0, 0
2, 149238, Program_c, 0, 0
2, 149238, Program_c, 0, 0
2, 149238, Program_c, 0, 0
2, 149238, Program_c, 0, 0
2, 149238, Program_c, 0, 0
2, 149238, Program_c, 0, 0
2, 149238, Program_c, 0, 0
2, 149238, Program_c, 0, 0
2, 149238, Program_c, 0, 0
2, 149238, Program_c, 0, 0
2, 149238, Program_c, 0, 0
2, 149238, Program_c, 0, 0
2, 149238, Program_c, 0, 0
2, 149238, Program_c, 0, 0
2, 149238, Program_c, 0, 0
2, 149238, Program_c, 0, 0
2, 149238, Program_c, 0, 0
2, 149238, Program_c, 0, 0
2, 149238, Program_c, 0, 0
2, 149238, Program_c, 0, 0
2, 149238, Program_c, 0, 0
2, 149238, Program_c, 0, 0
2, 149238, Program_c, 0, 0
2, 149238, Program_c, 0, 0
2, 149238, Program_c, 0, 0
2, 149238, Program_c, 0, 0
2, 149238, Program_c, 0, 0
2, 149238, Program_c, 0, 0
2, 149238, Program_c, 0, 0
2, 149238, Program_c, 0, 0
2, 149238, Program_c, 0, 0
2, 149238, Program_c, 0, 0
2, 149238, Program_c, 0, 0
2, 149238, Program_c, 0, 0
2, 149238, Program_c, 0, 0
2, 149238, Program_c, 0, 0
2, 149238, Program_c, 0, 0
2, 149238, Program_c, 0, 0
2, 149238, Program_c, 0, 0
2, 149238, Program_c, 0, 0
2, 149238, Program_c, 0, 0
2, 149238, Program_c, 0, 0
2, 149238, Program_c, 0, 0
2, 149238, Program_c, 0, 0
2, 149238, Program_c, 0, 0
2, 149238, Program_c, 0, 0
2, 149238, Program_c, 0, 0
2, 149238, Program_c, 0, 0
2, 149238, Program_c, 0, 0
2, 149238, Program_c, 0, 0
2, 149238, Program_c, 0, 0
2, 149238, Program_c, 0, 0
2, 149238, Program_c, 0, 0
2, 149238, Program_c, 0, 0
2, 149238, Program_c, 0, 0
2, 149238, Program_c, 0, 0
2, 149238, Program_c, 0, 0
2, 149238, Program_c, 0, 0
2, 149238, Program_c, 0, 0
2, 149238, Program_c, 0, 0
2, 149238, Program_c, 0, 0
2, 149238, Program_c, 0, 0
2, 149238, Program_c, 0, 0
2, 149238, Program_c, 0, 0
2, 149238, Program_c, 0, 0
2, 149238, Program_c, 0, 0
2, 149238, Program_c, 0, 0
2, 149238, Program_c, 0, 0
2, 149238, Program_c, 0, 0
2, 149238, Program_c, 0, 0
2, 149238, Program_c, 0, 0
2, 149238, Program_c, 0, 0
2, 149238, Program_c, 0, 0
2, 149238, Program_c, 0, 0
2, 149238, Program_c, 0, 0
2, 149238, Program_c, 0, 0
2, 149238, Program_c, 0, 0
2, 149238, Program_c, 0, 0
2, 149238, Program_c, 0, 0
2, 149238, Program_c, 0, 0
2, 149238, Program_c, 0, 0
2, 149238, Program_c, 0, 0
2, 149238, Program_c, 0, 0
2, 149238, Program_c, 0, 0
2, 149238, Program_c, 0, 0
2, 149238, Program_c, 0, 0
2, 149238, Program_c, 0, 0
2, 149238, Program_c, 0, 0
2, 149238, Program_c, 0, 0
2, 149238, Program_c, 0, 0
2, 149238, Program_c, 0, 0
2, 149238, Program_c, 0, 0
2, 149238, Program_c, 0, 0
2, 149238, Program_c, 0, 0
2, 149238, Program_c, 0, 0
2, 149238, Program_c, 0, 0
2, 149238, Program_c, 0, 0
2, 149238, Program_c, 0, 0
2, 149238, Program_c, 0, 0
2, 149238, Program_c, 0, 0
2, 149238, Program_c, 0, 0
2, 149238, Program_c, 0, 0
2, 149238, Program_c, 0, 0
2, 149238, Program_c, 0, 0
2, 149238, Program_c, 0, 0
2, 149238, Program_c, 0, 0
2, 149238, Program_c, 0, 0
2, 149238, Program_c, 0, 0
2, 149238, Program_c, 0, 0
2, 149238, Program_c, 0, 0
2, 149238, Program_c, 0, 0
2, 149238, Program_c, 0, 0
2, 149238, Program_c, 0, 0
2, 149238, Program_c, 0, 0
2, 149238, Program_c, 0, 0
2, 149238, Program_c, 0, 0
2, 149238, Program_c, 0, 0
2, 149238, Program_c, 0, 0
2, 149238, Program_c, 0, 0
2, 149238, Program_c, 0, 0
2, 149238, Program_c, 0, 0
2, 149238, Program_c, 0, 0
2, 149238, Program_c, 0, 0
2, 149238, Program_c, 0, 0
2, 149238, Program_c, 0, 0
2, 149238, Program_c, 0, 0
2, 149238, Program_c, 0, 0
2, 149238, Program_c, 0, 0
2, 149238, Program_c, 0, 0
2, 149238, Program_c, 0, 0
2, 149238, Program_c, 0, 0
2, 149238, Program_c, 0, 0
2, 149238, Program_c, 0, 0
2, 149238, Program_c, 0, 0
2, 149238, Program_c, 0, 0
2, 149238, Program_c, 0, 0
2, 149238, Program_c, 0, 0
2, 149238, Program_c, 0, 0
2, 149238, Program_c, 0, 0
2, 149238, Program_c, 0, 0
2, 149238, Program_c, 0, 0
2, 149238, Program_c, 0, 0
2, 149238, Program_c, 0, 0
2, 149238, Program_c, 0, 0
2, 149238, Program_c, 0, 0
2, 149238, Program_c, 0, 0
2, 149238, Program_c, 0, 0
2, 149238, Program_c, 0, 0
2, 149238, Program_c, 0, 0
2, 149238, Program_c, 0, 0
2, 149238, Program_c, 0, 0
2, 149238, Program_c, 0, 0
2, 149238, Program_c, 0, 0
2, 149238, Program_c, 0, 0
2, 149238, Program_c, 0, 0
2, 149238, Program_c, 0, 0
2, 149238, Program_c, 0, 0
2, 149238, Program_c, 0, 0
2, 149238, Program_c, 0, 0
2, 149238, Program_c, 0, 0
2, 149238, Program_c, 0, 0
2, 149238, Program_c, 0, 0
2, 149238, Program_c, 0, 0
2, 149238, Program_c, 0, 0
2, 149238, Program_c, 0, 0
2, 149238, Program_c, 0, 0
2, 149238, Program_c, 0, 0
2, 149238, Program_c, 0, 0
2, 149238, Program_c, 0, 0
2, 149238, Program_c, 0, 0
2, 149238, Program_c, 0, 0
2, 149238, Program_c, 0, 0
2, 149238, Program_c, 0, 0
2, 149238, Program_c, 0, 0
2, 149238, Program_c, 0, 0
2, 149238, Program_c, 0, 0
2, 149238, Program_c, 0, 0
2, 149238, Program_c, 0, 0
2, 149238, Program_c, 0, 0
2, 149238, Program_c, 0, 0
2, 149238, Program_c, 0, 0
2, 149238, Program_c, 0, 0
2, 149238, Program_c, 0, 0
2, 149238, Program_c, 0, 0
2, 149238, Program_c, 0, 0
2, 149238, Program_c, 0, 0
2, 149238, Program_c, 0, 0
2, 149238, Program_c, 0, 0
2, 149238, Program_c, 0, 0
2, 149238, Program_c, 0, 0
2, 149238, Program_c, 0, 0
2, 149238, Program_c, 0, 0
2, 149238, Program_c, 0, 0
2, 149238, Program_c, 0, 0
2, 149238, Program_c, 0, 0
2, 149238, Program_c, 0, 0
2, 149238, Program_c, 0, 0
2, 149238, Program_c, 0, 0
2, 149238, Program_c, 0, 0
2, 149238, Program_c, 0, 0
2, 149238, Program_c, 0, 0
2, 149238, Program_c, 0, 0
2, 149238, Program_c, 0, 0
2, 149238, Program_c, 0, 0
2, 149238, Program_c, 0, 0
2, 149238, Program_c, 0, 0
2, 149238, Program_c, 0, 0
2, 149238, Program_c, 0, 0
2, 149238, Program_c, 0, 0
2, 149238, Program_c, 0, 0
2, 149238, Program_c, 0, 0
2, 149238, Program_c, 0, 0
2, 149238, Program_c, 0, 0
2, 149238, Program_c, 0, 0
2, 149238, Program_c, 0, 0
2, 149238, Program_c, 0, 0
2, 149238, Program_c, 0, 0
2, 149238, Program_c, 0, 0
2, 149238, Program_c, 0, 0
2, 149238, Program_c, 0, 0
2, 149238, Program_c, 0, 0
2, 149238, Program_c, 0, 0
2, 149238, Program_c, 0, 0
2, 149238, Program_c, 0, 0
2, 149238, Program_c, 0, 0
2, 149238, Program_c, 0, 0
2, 149238, Program_c, 0, 0
2, 149238, Program_c, 0, 0
2, 149238, Program_c, 0, 0
2, 149238, Program_c, 0, 0
2, 149238, Program_c, 0, 0
2, 149238, Program_c, 0, 0
2, 149238, Program_c, 0, 0
2, 149238, Program_c, 0, 0
2, 149238, Program_c, 0, 0
2, 149238, Program_c, 0, 0
2, 149238, Program_c, 0, 0
2, 149238, Program_c, 0, 0
2, 149238, Program_c, 0, 0
2, 149238, Program_c, 0, 0
2, 149238, Program_c, 0, 0
2, 149238, Program_c, 0, 0
2, 149238, Program_c, 0, 0
2, 149238, Program_c, 0, 0
2, 149238, Program_c, 0, 0
2, 149238, Program_c, 0, 0
2, 149238, Program_c, 0, 0
2, 149238, Program_c, 0, 0
2, 149238, Program_c, 0, 0
2, 149238, Program_c, 0, 0
2, 149238, Program_c, 0, 0
2, 149238, Program_c, 0, 0
2, 149238, Program_c, 0, 0
2, 149238, Program_c, 0, 0
2, 149238, Program_c, 0, 0
2, 149238, Program_c, 0, 0
2, 149238, Program_c, 0, 0
2, 149238, Program_c, 0, 0
2, 149238, Program_c, 0, 0
2, 149238, Program_c, 0, 0
2, 149238, Program_c, 0, 0
2, 149238, Program_c, 0, 0
2, 149238, Program_c, 0, 0
2, 149238, Program_c, 0, 0
2, 149238, Program_c, 0, 0
2, 149238, Program_c, 0, 0
2, 149238, Program_c, 0, 0
2, 149238, Program_c, 0, 0
2, 149238, Program_c, 0, 0
2, 149238, Program_c, 0, 0
2, 149238, Program_c, 0, 0
2, 149238, Program_c, 0, 0
2, 149238, Program_c, 0, 0
2, 149238, Program_c, 0, 0
2, 149238, Program_c, 0, 0
2, 149238, Program_c, 0, 0
2, 149238, Program_c, 0, 0
2, 149238, Program_c, 0, 0
2, 149238, Program_c, 0, 0
2, 149238, Program_c, 0, 0
2, 149238, Program_c, 0, 0
2, 149238, Program_c, 0, 0
2, 149238, Program_c, 0, 0
2, 149238, Program_c, 0, 0
2, 149238, Program_c, 0, 0
2, 149238, Program_c, 0, 0
2, 149238, Program_c, 0, 0
2, 149238, Program_c, 0, 0
2, 149238, Program_c, 0, 0
2, 149238, Program_c, 0, 0
2, 149238, Program_c, 0, 0
2, 149238, Program_c, 0, 0
2, 149238, Program_c, 0, 0
2, 149238, Program_c, 0, 0
2, 149238, Program_c, 0, 0
2, 149238, Program_c, 0, 0
2, 149238, Program_c, 0, 0
2, 149238, Program_c, 0, 0
2, 149238, Program_c, 0, 0
2, 149238, Program_c, 0, 0
2, 149238, Program_c, 0, 0
2, 149238, Program_c, 0, 0
2, 149238, Program_c, 0, 0
2, 149238, Program_c, 0, 0
2, 149238, Program_c, 0, 0
2, 149238, Program_c, 0, 0
2, 149238, Program_c, 0, 0
2, 149238, Program_c, 0, 0
2, 149238, Program_c, 0, 0
2, 149238, Program_c, 0, 0
2, 149238, Program_c, 0, 0
2, 149238, Program_c, 0, 0
2, 149238, Program_c, 0, 0
2, 149238, Program_c, 0, 0
2, 149238, Program_c, 0, 0
2, 149238, Program_c, 0, 0
2, 149238, Program_c, 0, 0
2, 149238, Program_c, 0, 0
2, 149238, Program_c, 0, 0
2, 149238, Program_c, 0, 0
2, 149238, Program_c, 0, 0
2, 149238, Program_c, 0, 0
2, 149238, Program_c, 0, 0
2, 149238, Program_c, 0, 0
2, 149238, Program_c, 0, 0
2, 149238, Program_c, 0, 0
2, 149238, Program_c, 0, 0
2, 149238, Program_c, 0, 0
2, 149238, Program_c, 0, 0
2, 149238, Program_c, 0, 0
2, 149238, Program_c, 0, 0
2, 149238, Program_c, 0, 0
2, 149238, Program_c, 0, 0
2, 149238, Program_c, 0, 0
2, 149238, Program_c, 0, 0
2, 149238, Program_c, 0, 0
2, 149238, Program_c, 0, 0
2, 149238, Program_c, 0, 0
2, 149238, Program_c, 0, 0
2, 149238, Program_c, 0, 0
2, 149238, Program_c, 0, 0
2, 149238, Program_c, 0, 0
2, 149238, Program_c, 0, 0
2, 149238, Program_c, 0, 0
2, 149238, Program_c, 0, 0
2, 149238, Program_c, 0, 0
2, 149238, Program_c, 0, 0
2, 149238, Program_c, 0, 0
2, 149238, Program_c, 0, 0
2, 149238, Program_c, 0, 0
2, 149238, Program_c, 0, 0
2, 149238, Program_c, 0, 0
2, 149238, Program_c, 0, 0
2, 149238, Program_c, 0, 0
2, 149238, Program_c, 0, 0
2, 149238, Program_c, 0, 0
2, 149238, Program_c, 0, 0
2, 149238, Program_c, 0, 0
2, 149238, Program_c, 0, 0
2, 149238, Program_c, 0, 0
2, 149238, Program_c, 0, 0
2, 149238, Program_c, 0, 0
2, 149238, Program_c, 0, 0
2, 149238, Program_c, 0, 0
2, 149238, Program_c, 0, 0
2, 149238, Program_c, 0, 0
2, 149238, Program_c, 0, 0
2, 149238, Program_c, 0, 0
2, 149238, Program_c, 0, 0
2, 149238, Program_c, 0, 0
2, 149238, Program_c, 0, 0
2, 149238, Program_c, 0, 0
2, 149238, Program_c, 0, 0
2, 149238, Program_c, 0, 0
2, 149238, Program_c, 0, 0
2, 149238, Program_c, 0, 0
2, 149238, Program_c, 0, 0
2, 149238, Program_c, 0, 0
2, 149238, Program_c, 0, 0
2, 149238, Program_c, 0, 0
2, 149238, Program_c, 0, 0
2, 149238, Program_c, 0, 0
2, 149238, Program_c, 0, 0
2, 149238, Program_c, 0, 0
2, 149238, Program_c, 0, 0
2, 149238, Program_c, 0, 0
2, 149238, Program_c, 0, 0
2, 149238, Program_c, 0, 0
2, 149238, Program_c, 0, 0
2, 149238, Program_c, 0, 0
2, 149238, Program_c, 0, 0
2, 149238, Program_c, 0, 0
2, 149238, Program_c, 0, 0
2, 149238, Program_c, 0, 0
2, 149238, Program_c, 0, 0
2, 149238, Program_c, 0, 0
2, 149238, Program_c, 0, 0
2, 149238, Program_c, 0, 0
2, 149238, Program_c, 0, 0
2, 149238, Program_c, 0, 0
2, 149238, Program_c, 0, 0
2, 149238, Program_c, 0, 0
2, 149238, Program_c, 0, 0
2, 149238, Program_c, 0, 0
2, 149238, Program_c, 0, 0
2, 149238, Program_c, 0, 0
2, 149238, Program_c, 0, 0
2, 149238, Program_c, 0, 0
2, 149238, Program_c, 0, 0
2, 149238, Program_c, 0, 0
2, 149238, Program_c, 0, 0
2, 149238, Program_c, 0, 0
2, 149238, Program_c, 0, 0
2, 149238, Program_c, 0, 0
2, 149238, Program_c, 0, 0
2, 149238, Program_c, 0, 0
2, 149238, Program_c, 0, 0
2, 149238, Program_c, 0, 0
2, 149238, Program_c, 0, 0
2, 149238, Program_c, 0, 0
2, 149238, Program_c, 0, 0
2, 149238, Program_c, 0, 0
2, 149238, Program_c, 0, 0
2, 149238, Program_c, 0, 0
2, 149238, Program_c, 0, 0
2, 149238, Program_c, 0, 0
2, 149238, Program_c, 0, 0
2, 149238, Program_c, 0, 0
2, 149238, Program_c, 0, 0
2, 149238, Program_c, 0, 0
2, 149238, Program_c, 0, 0
2, 149238, Program_c, 0, 0
2, 149238, Program_c, 0, 0
2, 149238, Program_c, 0, 0
2, 149238, Program_c, 0, 0
2, 149238, Program_c, 0, 0
2, 149238, Program_c, 0, 0
2, 149238, Program_c, 0, 0
2, 149238, Program_c, 0, 0
2, 149238, Program_c, 0, 0
2, 149238, Program_c, 0, 0
2, 149238, Program_c, 0, 0
2, 149238, Program_c, 0, 0
2, 149238, Program_c, 0, 0
2, 149238, Program_c, 0, 0
2, 149238, Program_c, 0, 0
2, 149238, Program_c, 0, 0
2, 149238, Program_c, 0, 0
2, 149238, Program_c, 0, 0
2, 149238, Program_c, 0, 0
2, 149238, Program_c, 0, 0
2, 149238, Program_c, 0, 0
2, 149238, Program_c, 0, 0
2, 149238, Program_c, 0, 0
2, 149238, Program_c, 0, 0
2, 149238, Program_c, 0, 0
2, 149238, Program_c, 0, 0
2, 149238, Program_c, 0, 0
2, 149238, Program_c, 0, 0
2, 149238, Program_c, 0, 0
2, 149238, Program_c, 0, 0
2, 149238, Program_c, 0, 0
2, 149238, Program_c, 0, 0
2, 149238, Program_c, 0, 0
2, 149238, Program_c, 0, 0
2, 149238, Program_c, 0, 0
2, 149238, Program_c, 0, 0
2, 149238, Program_c, 0, 0
2, 149238, Program_c, 0, 0
2, 149238, Program_c, 0, 0
2, 149238, Program_c, 0, 0
2, 149238, Program_c, 0, 0
2, 149238, Program_c, 0, 0
2, 149238, Program_c, 0, 0
2, 149238, Program_c, 0, 0
2, 149238, Program_c, 0, 0
2, 149238, Program_c, 0, 0
2, 149238, Program_c, 0, 0
2, 149238, Program_c, 0, 0
2, 149238, Program_c, 0, 0
2, 149238, Program_c, 0, 0
2, 149238, Program_c, 0, 0
2, 149238, Program_c, 0, 0
2, 149238, Program_c, 0, 0
2, 149238, Program_c, 0, 0
2, 149238, Program_c, 0, 0
2, 149238, Program_c, 0, 0
2, 149238, Program_c, 0, 0
2, 149238, Program_c, 0, 0
2, 149238, Program_c, 0, 0
2, 149238, Program_c, 0, 0
2, 149238, Program_c, 0, 0
2, 149238, Program_c, 0, 0
2, 149238, Program_c, 0, 0
2, 149238, Program_c, 0, 0
2, 149238, Program_c, 0, 0
2, 149238, Program_c, 0, 0
2, 149238, Program_c, 0, 0
2, 149238, Program_c, 0, 0
2, 149238, Program_c, 0, 0
2, 149238, Program_c, 0, 0
2, 149238, Program_c, 0, 0
