0, 0, Header, 0, 1, 120
1, 0, Start_track
1, 0, Tempo, 674157
1, 0, Text_t, "FF10\201u\203\201\203C\203\223\203e\201[\203}\201i\211¼\201j\201vby.tetra"
1, 0, Copyright_t, ""
1, 0, Program_c, 0, 10
1, 0, Program_c, 1, 10
1, 0, Program_c, 2, 33
1, 0, Program_c, 3, 10
1, 0, Program_c, 4, 10
1, 0, Program_c, 5, 10
1, 0, Program_c, 6, 10
1, 0, Program_c, 7, 1
1, 0, Program_c, 8, 0
1, 0, Program_c, 10, 10
1, 0, Program_c, 11, 0
1, 0, Program_c, 12, 71
1, 0, Program_c, 13, 38
1, 0, Program_c, 14, 42
1, 0, Program_c, 15, 0
1, 144, Note_on_c, 0, 83, 89
1, 144, Note_on_c, 1, 88, 89
1, 144, Note_on_c, 5, 64, 89
1, 156, Note_on_c, 6, 76, 89
1, 167, Note_on_c, 6, 76, 0
1, 168, Note_on_c, 6, 79, 89
1, 179, Note_on_c, 6, 79, 0
1, 180, Note_on_c, 6, 83, 89
1, 191, Note_on_c, 0, 83, 0
1, 191, Note_on_c, 1, 88, 0
1, 191, Note_on_c, 5, 64, 0
1, 191, Note_on_c, 6, 83, 0
1, 192, Note_on_c, 0, 88, 89
1, 192, Note_on_c, 5, 74, 89
1, 192, Note_on_c, 6, 62, 89
1, 203, Note_on_c, 0, 88, 0
1, 204, Note_on_c, 0, 86, 89
1, 204, Note_on_c, 1, 90, 89
1, 215, Note_on_c, 0, 86, 0
1, 215, Note_on_c, 1, 90, 0
1, 215, Note_on_c, 5, 74, 0
1, 215, Note_on_c, 6, 62, 0
1, 216, Note_on_c, 0, 88, 89
1, 216, Note_on_c, 5, 72, 89
1, 216, Note_on_c, 6, 60, 89
1, 287, Note_on_c, 0, 88, 0
1, 287, Note_on_c, 5, 72, 0
1, 287, Note_on_c, 6, 60, 0
1, 288, Note_on_c, 0, 81, 89
1, 288, Note_on_c, 1, 86, 89
1, 288, Note_on_c, 5, 62, 89
1, 300, Note_on_c, 6, 74, 89
1, 311, Note_on_c, 6, 74, 0
1, 312, Note_on_c, 6, 78, 89
1, 323, Note_on_c, 6, 78, 0
1, 324, Note_on_c, 6, 81, 89
1, 335, Note_on_c, 0, 81, 0
1, 335, Note_on_c, 1, 86, 0
1, 335, Note_on_c, 5, 62, 0
1, 335, Note_on_c, 6, 81, 0
1, 336, Note_on_c, 0, 86, 89
1, 336, Note_on_c, 5, 72, 89
1, 336, Note_on_c, 6, 60, 89
1, 347, Note_on_c, 0, 86, 0
1, 348, Note_on_c, 0, 84, 89
1, 348, Note_on_c, 1, 88, 89
1, 359, Note_on_c, 0, 84, 0
1, 359, Note_on_c, 1, 88, 0
1, 359, Note_on_c, 5, 72, 0
1, 359, Note_on_c, 6, 60, 0
1, 360, Note_on_c, 0, 86, 89
1, 360, Note_on_c, 1, 90, 89
1, 360, Note_on_c, 5, 71, 89
1, 360, Note_on_c, 6, 59, 89
1, 431, Note_on_c, 0, 86, 0
1, 431, Note_on_c, 1, 90, 0
1, 431, Note_on_c, 5, 71, 0
1, 431, Note_on_c, 6, 59, 0
1, 432, Note_on_c, 0, 83, 89
1, 432, Note_on_c, 5, 60, 89
1, 443, Note_on_c, 5, 60, 0
1, 444, Note_on_c, 5, 67, 89
1, 455, Note_on_c, 0, 83, 0
1, 455, Note_on_c, 5, 67, 0
1, 456, Note_on_c, 0, 83, 89
1, 456, Note_on_c, 5, 74, 89
1, 467, Note_on_c, 5, 74, 0
1, 468, Note_on_c, 5, 72, 89
1, 479, Note_on_c, 0, 83, 0
1, 479, Note_on_c, 5, 72, 0
1, 480, Note_on_c, 0, 83, 89
1, 480, Note_on_c, 5, 76, 89
1, 491, Note_on_c, 5, 76, 0
1, 492, Note_on_c, 5, 78, 89
1, 502, Note_on_c, 6, 72, 89
1, 503, Note_on_c, 0, 83, 0
1, 503, Note_on_c, 5, 78, 0
1, 504, Note_on_c, 0, 83, 89
1, 504, Note_on_c, 5, 76, 89
1, 504, Note_on_c, 7, 79, 89
1, 527, Note_on_c, 0, 83, 0
1, 528, Note_on_c, 0, 81, 89
1, 563, Note_on_c, 0, 81, 0
1, 564, Note_on_c, 0, 86, 89
1, 575, Note_on_c, 0, 86, 0
1, 575, Note_on_c, 5, 76, 0
1, 575, Note_on_c, 6, 72, 0
1, 576, Note_on_c, 0, 78, 89
1, 576, Note_on_c, 5, 59, 89
1, 577, Note_on_c, 7, 79, 0
1, 587, Note_on_c, 5, 59, 0
1, 588, Note_on_c, 5, 66, 89
1, 599, Note_on_c, 5, 66, 0
1, 600, Note_on_c, 5, 71, 89
1, 611, Note_on_c, 5, 71, 0
1, 612, Note_on_c, 5, 73, 89
1, 623, Note_on_c, 5, 73, 0
1, 624, Note_on_c, 5, 74, 89
1, 635, Note_on_c, 5, 74, 0
1, 636, Note_on_c, 5, 78, 89
1, 647, Note_on_c, 0, 78, 0
1, 647, Note_on_c, 5, 78, 0
1, 648, Note_on_c, 0, 83, 89
1, 648, Note_on_c, 5, 74, 89
1, 648, Note_on_c, 6, 78, 89
1, 719, Note_on_c, 0, 83, 0
1, 719, Note_on_c, 5, 74, 0
1, 719, Note_on_c, 6, 78, 0
1, 720, Note_on_c, 0, 88, 89
1, 720, Note_on_c, 5, 57, 89
1, 731, Note_on_c, 5, 57, 0
1, 732, Note_on_c, 5, 64, 89
1, 743, Note_on_c, 0, 88, 0
1, 743, Note_on_c, 5, 64, 0
1, 744, Note_on_c, 0, 88, 89
1, 744, Note_on_c, 5, 71, 89
1, 755, Note_on_c, 5, 71, 0
1, 756, Note_on_c, 5, 69, 89
1, 767, Note_on_c, 0, 88, 0
1, 767, Note_on_c, 5, 69, 0
1, 768, Note_on_c, 0, 88, 89
1, 768, Note_on_c, 5, 72, 89
1, 779, Note_on_c, 5, 72, 0
1, 780, Note_on_c, 5, 74, 89
1, 791, Note_on_c, 0, 88, 0
1, 791, Note_on_c, 5, 74, 0
1, 792, Note_on_c, 0, 88, 89
1, 792, Note_on_c, 5, 72, 89
1, 792, Note_on_c, 6, 69, 89
1, 792, Note_on_c, 7, 76, 89
1, 815, Note_on_c, 0, 88, 0
1, 816, Note_on_c, 0, 86, 89
1, 851, Note_on_c, 0, 86, 0
1, 863, Note_on_c, 5, 72, 0
1, 863, Note_on_c, 6, 69, 0
1, 863, Note_on_c, 7, 76, 0
1, 864, Note_on_c, 0, 84, 89
1, 864, Note_on_c, 5, 53, 89
1, 875, Note_on_c, 5, 53, 0
1, 876, Note_on_c, 5, 60, 89
1, 887, Note_on_c, 5, 60, 0
1, 888, Note_on_c, 5, 65, 89
1, 899, Note_on_c, 5, 65, 0
1, 900, Note_on_c, 5, 67, 89
1, 911, Note_on_c, 5, 67, 0
1, 912, Note_on_c, 5, 69, 89
1, 923, Note_on_c, 5, 69, 0
1, 924, Note_on_c, 5, 72, 89
1, 935, Note_on_c, 0, 84, 0
1, 935, Note_on_c, 5, 72, 0
1, 936, Note_on_c, 5, 77, 89
1, 947, Note_on_c, 5, 77, 0
1, 948, Note_on_c, 5, 72, 89
1, 959, Note_on_c, 5, 72, 0
1, 960, Note_on_c, 5, 77, 89
1, 971, Note_on_c, 5, 77, 0
1, 972, Note_on_c, 5, 79, 89
1, 983, Note_on_c, 5, 79, 0
1, 984, Note_on_c, 5, 81, 89
1, 995, Note_on_c, 5, 81, 0
1, 996, Note_on_c, 5, 84, 89
1, 1007, Note_on_c, 5, 84, 0
1, 1008, Note_on_c, 0, 76, 89
1, 1008, Note_on_c, 5, 52, 89
1, 1019, Note_on_c, 5, 52, 0
1, 1020, Note_on_c, 5, 59, 89
1, 1031, Note_on_c, 5, 59, 0
1, 1032, Note_on_c, 5, 64, 89
1, 1043, Note_on_c, 0, 76, 0
1, 1043, Note_on_c, 5, 64, 0
1, 1044, Note_on_c, 0, 71, 89
1, 1044, Note_on_c, 5, 66, 89
1, 1055, Note_on_c, 0, 71, 0
1, 1055, Note_on_c, 5, 66, 0
1, 1056, Note_on_c, 0, 76, 89
1, 1056, Note_on_c, 5, 67, 89
1, 1067, Note_on_c, 0, 76, 0
1, 1067, Note_on_c, 5, 67, 0
1, 1068, Note_on_c, 0, 78, 89
1, 1068, Note_on_c, 5, 69, 89
1, 1079, Note_on_c, 0, 78, 0
1, 1079, Note_on_c, 5, 69, 0
1, 1080, Note_on_c, 0, 79, 89
1, 1080, Note_on_c, 5, 60, 89
1, 1080, Note_on_c, 6, 72, 89
1, 1091, Note_on_c, 5, 60, 0
1, 1091, Note_on_c, 6, 72, 0
1, 1092, Note_on_c, 5, 67, 89
1, 1103, Note_on_c, 0, 79, 0
1, 1104, Note_on_c, 0, 78, 89
1, 1115, Note_on_c, 5, 67, 0
1, 1116, Note_on_c, 5, 66, 89
1, 1127, Note_on_c, 0, 78, 0
1, 1127, Note_on_c, 5, 66, 0
1, 1128, Note_on_c, 0, 76, 89
1, 1128, Note_on_c, 5, 64, 89
1, 1139, Note_on_c, 5, 64, 0
1, 1140, Note_on_c, 5, 60, 89
1, 1150, Note_on_c, 1, 74, 89
1, 1151, Note_on_c, 0, 76, 0
1, 1151, Note_on_c, 5, 60, 0
1, 1152, Note_on_c, 5, 50, 89
1, 1164, Note_on_c, 6, 57, 89
1, 1165, Note_on_c, 5, 50, 0
1, 1175, Note_on_c, 6, 57, 0
1, 1176, Note_on_c, 5, 62, 89
1, 1187, Note_on_c, 1, 74, 0
1, 1187, Note_on_c, 5, 62, 0
1, 1188, Note_on_c, 0, 76, 89
1, 1188, Note_on_c, 1, 69, 89
1, 1188, Note_on_c, 5, 66, 89
1, 1199, Note_on_c, 0, 76, 0
1, 1199, Note_on_c, 1, 69, 0
1, 1199, Note_on_c, 5, 66, 0
1, 1200, Note_on_c, 0, 74, 89
1, 1200, Note_on_c, 1, 72, 89
1, 1200, Note_on_c, 5, 69, 89
1, 1211, Note_on_c, 1, 72, 0
1, 1211, Note_on_c, 5, 69, 0
1, 1212, Note_on_c, 5, 66, 89
1, 1223, Note_on_c, 0, 74, 0
1, 1223, Note_on_c, 5, 66, 0
1, 1224, Note_on_c, 0, 71, 89
1, 1224, Note_on_c, 1, 62, 89
1, 1236, Note_on_c, 5, 50, 89
1, 1247, Note_on_c, 5, 50, 0
1, 1248, Note_on_c, 5, 55, 89
1, 1259, Note_on_c, 5, 55, 0
1, 1260, Note_on_c, 5, 57, 89
1, 1271, Note_on_c, 5, 57, 0
1, 1272, Note_on_c, 5, 59, 89
1, 1283, Note_on_c, 5, 59, 0
1, 1284, Note_on_c, 5, 62, 89
1, 1295, Note_on_c, 0, 71, 0
1, 1295, Note_on_c, 1, 62, 0
1, 1295, Note_on_c, 5, 62, 0
1, 1296, Note_on_c, 0, 76, 89
1, 1296, Note_on_c, 1, 67, 89
1, 1296, Note_on_c, 5, 52, 89
1, 1296, Note_on_c, 6, 67, 89
1, 1307, Note_on_c, 5, 52, 0
1, 1308, Note_on_c, 5, 59, 89
1, 1319, Note_on_c, 5, 59, 0
1, 1320, Note_on_c, 5, 64, 89
1, 1331, Note_on_c, 0, 76, 0
1, 1331, Note_on_c, 1, 67, 0
1, 1331, Note_on_c, 5, 64, 0
1, 1331, Note_on_c, 6, 67, 0
1, 1332, Note_on_c, 0, 71, 89
1, 1332, Note_on_c, 5, 66, 89
1, 1343, Note_on_c, 0, 71, 0
1, 1343, Note_on_c, 5, 66, 0
1, 1344, Note_on_c, 0, 76, 89
1, 1344, Note_on_c, 5, 67, 89
1, 1355, Note_on_c, 0, 76, 0
1, 1355, Note_on_c, 5, 67, 0
1, 1356, Note_on_c, 0, 78, 89
1, 1356, Note_on_c, 5, 69, 89
1, 1367, Note_on_c, 0, 78, 0
1, 1367, Note_on_c, 5, 69, 0
1, 1368, Note_on_c, 0, 79, 89
1, 1368, Note_on_c, 5, 60, 89
1, 1368, Note_on_c, 6, 72, 89
1, 1379, Note_on_c, 5, 60, 0
1, 1379, Note_on_c, 6, 72, 0
1, 1380, Note_on_c, 5, 67, 89
1, 1391, Note_on_c, 0, 79, 0
1, 1392, Note_on_c, 0, 78, 89
1, 1403, Note_on_c, 5, 67, 0
1, 1404, Note_on_c, 5, 66, 89
1, 1415, Note_on_c, 0, 78, 0
1, 1415, Note_on_c, 5, 66, 0
1, 1416, Note_on_c, 0, 79, 89
1, 1416, Note_on_c, 5, 64, 89
1, 1427, Note_on_c, 5, 64, 0
1, 1428, Note_on_c, 5, 60, 89
1, 1439, Note_on_c, 0, 79, 0
1, 1439, Note_on_c, 5, 60, 0
1, 1440, Note_on_c, 0, 69, 89
1, 1440, Note_on_c, 1, 81, 89
1, 1440, Note_on_c, 5, 50, 89
1, 1451, Note_on_c, 5, 50, 0
1, 1452, Note_on_c, 5, 57, 89
1, 1463, Note_on_c, 5, 57, 0
1, 1464, Note_on_c, 5, 62, 89
1, 1475, Note_on_c, 0, 69, 0
1, 1475, Note_on_c, 1, 81, 0
1, 1475, Note_on_c, 5, 62, 0
1, 1476, Note_on_c, 0, 76, 89
1, 1476, Note_on_c, 1, 67, 89
1, 1476, Note_on_c, 2, 79, 89
1, 1476, Note_on_c, 5, 64, 89
1, 1487, Note_on_c, 0, 76, 0
1, 1487, Note_on_c, 1, 67, 0
1, 1487, Note_on_c, 2, 79, 0
1, 1487, Note_on_c, 5, 64, 0
1, 1488, Note_on_c, 0, 78, 89
1, 1488, Note_on_c, 1, 69, 89
1, 1488, Note_on_c, 2, 81, 89
1, 1488, Note_on_c, 5, 66, 89
1, 1499, Note_on_c, 0, 78, 0
1, 1499, Note_on_c, 5, 66, 0
1, 1500, Note_on_c, 5, 62, 89
1, 1511, Note_on_c, 1, 69, 0
1, 1511, Note_on_c, 2, 81, 0
1, 1511, Note_on_c, 5, 62, 0
1, 1512, Note_on_c, 0, 79, 89
1, 1512, Note_on_c, 1, 71, 89
1, 1512, Note_on_c, 2, 83, 89
1, 1524, Note_on_c, 5, 50, 89
1, 1535, Note_on_c, 5, 50, 0
1, 1536, Note_on_c, 5, 55, 89
1, 1547, Note_on_c, 5, 55, 0
1, 1548, Note_on_c, 5, 57, 89
1, 1559, Note_on_c, 5, 57, 0
1, 1560, Note_on_c, 5, 59, 89
1, 1571, Note_on_c, 5, 59, 0
1, 1572, Note_on_c, 5, 62, 89
1, 1583, Note_on_c, 0, 79, 0
1, 1583, Note_on_c, 1, 71, 0
1, 1583, Note_on_c, 2, 83, 0
1, 1583, Note_on_c, 5, 62, 0
1, 1584, Note_on_c, 0, 67, 89
1, 1584, Note_on_c, 1, 76, 89
1, 1584, Note_on_c, 5, 52, 89
1, 1595, Note_on_c, 5, 52, 0
1, 1596, Note_on_c, 5, 59, 89
1, 1607, Note_on_c, 5, 59, 0
1, 1608, Note_on_c, 5, 64, 89
1, 1619, Note_on_c, 0, 67, 0
1, 1619, Note_on_c, 5, 64, 0
1, 1620, Note_on_c, 0, 71, 89
1, 1620, Note_on_c, 5, 66, 89
1, 1621, Note_on_c, 1, 76, 0
1, 1631, Note_on_c, 0, 71, 0
1, 1631, Note_on_c, 5, 66, 0
1, 1632, Note_on_c, 0, 76, 89
1, 1632, Note_on_c, 5, 67, 89
1, 1643, Note_on_c, 0, 76, 0
1, 1643, Note_on_c, 5, 67, 0
1, 1644, Note_on_c, 0, 78, 89
1, 1644, Note_on_c, 5, 69, 89
1, 1655, Note_on_c, 0, 78, 0
1, 1655, Note_on_c, 5, 69, 0
1, 1656, Note_on_c, 0, 79, 89
1, 1656, Note_on_c, 5, 60, 89
1, 1656, Note_on_c, 6, 72, 89
1, 1667, Note_on_c, 5, 60, 0
1, 1668, Note_on_c, 5, 67, 89
1, 1669, Note_on_c, 6, 72, 0
1, 1679, Note_on_c, 0, 79, 0
1, 1680, Note_on_c, 0, 78, 89
1, 1691, Note_on_c, 5, 67, 0
1, 1692, Note_on_c, 5, 66, 89
1, 1703, Note_on_c, 0, 78, 0
1, 1703, Note_on_c, 5, 66, 0
1, 1704, Note_on_c, 0, 76, 89
1, 1704, Note_on_c, 5, 64, 89
1, 1715, Note_on_c, 5, 64, 0
1, 1716, Note_on_c, 5, 60, 89
1, 1727, Note_on_c, 0, 76, 0
1, 1727, Note_on_c, 5, 60, 0
1, 1728, Note_on_c, 0, 74, 89
1, 1728, Note_on_c, 1, 69, 89
1, 1728, Note_on_c, 5, 50, 89
1, 1739, Note_on_c, 5, 50, 0
1, 1740, Note_on_c, 5, 57, 89
1, 1751, Note_on_c, 5, 57, 0
1, 1752, Note_on_c, 5, 62, 89
1, 1763, Note_on_c, 0, 74, 0
1, 1763, Note_on_c, 1, 69, 0
1, 1763, Note_on_c, 5, 62, 0
1, 1764, Note_on_c, 0, 76, 89
1, 1764, Note_on_c, 1, 69, 89
1, 1764, Note_on_c, 5, 66, 89
1, 1775, Note_on_c, 0, 76, 0
1, 1775, Note_on_c, 1, 69, 0
1, 1775, Note_on_c, 5, 66, 0
1, 1776, Note_on_c, 0, 74, 89
1, 1776, Note_on_c, 1, 72, 89
1, 1776, Note_on_c, 5, 69, 89
1, 1787, Note_on_c, 5, 69, 0
1, 1788, Note_on_c, 5, 66, 89
1, 1789, Note_on_c, 1, 72, 0
1, 1799, Note_on_c, 0, 74, 0
1, 1799, Note_on_c, 5, 66, 0
1, 1800, Note_on_c, 0, 62, 89
1, 1800, Note_on_c, 1, 67, 89
1, 1800, Note_on_c, 2, 71, 89
1, 1812, Note_on_c, 5, 50, 89
1, 1823, Note_on_c, 5, 50, 0
1, 1824, Note_on_c, 5, 55, 89
1, 1835, Note_on_c, 5, 55, 0
1, 1836, Note_on_c, 5, 57, 89
1, 1847, Note_on_c, 1, 67, 0
1, 1847, Note_on_c, 5, 57, 0
1, 1848, Note_on_c, 1, 59, 89
1, 1848, Note_on_c, 3, 67, 89
1, 1848, Note_on_c, 5, 59, 89
1, 1849, Note_on_c, 0, 62, 0
1, 1849, Note_on_c, 2, 71, 0
1, 1859, Note_on_c, 1, 59, 0
1, 1859, Note_on_c, 3, 67, 0
1, 1860, Note_on_c, 0, 69, 89
1, 1860, Note_on_c, 6, 55, 89
1, 1861, Note_on_c, 5, 59, 0
1, 1871, Note_on_c, 0, 69, 0
1, 1871, Note_on_c, 6, 55, 0
1, 1872, Note_on_c, 0, 64, 89
1, 1872, Note_on_c, 1, 71, 89
1, 1872, Note_on_c, 2, 67, 89
1, 1872, Note_on_c, 5, 48, 89
1, 1883, Note_on_c, 5, 48, 0
1, 1884, Note_on_c, 5, 55, 89
1, 1895, Note_on_c, 0, 64, 0
1, 1895, Note_on_c, 1, 71, 0
1, 1895, Note_on_c, 2, 67, 0
1, 1895, Note_on_c, 5, 55, 0
1, 1896, Note_on_c, 0, 64, 89
1, 1896, Note_on_c, 1, 71, 89
1, 1896, Note_on_c, 2, 67, 89
1, 1896, Note_on_c, 5, 60, 89
1, 1907, Note_on_c, 5, 60, 0
1, 1908, Note_on_c, 5, 55, 89
1, 1919, Note_on_c, 0, 64, 0
1, 1919, Note_on_c, 1, 71, 0
1, 1919, Note_on_c, 2, 67, 0
1, 1919, Note_on_c, 5, 55, 0
1, 1920, Note_on_c, 0, 64, 89
1, 1920, Note_on_c, 1, 71, 89
1, 1920, Note_on_c, 2, 67, 89
1, 1920, Note_on_c, 5, 59, 89
1, 1931, Note_on_c, 5, 59, 0
1, 1932, Note_on_c, 5, 55, 89
1, 1943, Note_on_c, 0, 64, 0
1, 1943, Note_on_c, 1, 71, 0
1, 1943, Note_on_c, 2, 67, 0
1, 1943, Note_on_c, 5, 55, 0
1, 1944, Note_on_c, 0, 66, 89
1, 1944, Note_on_c, 1, 71, 89
1, 1944, Note_on_c, 5, 50, 89
1, 1967, Note_on_c, 1, 71, 0
1, 1968, Note_on_c, 1, 69, 89
1, 1991, Note_on_c, 1, 69, 0
1, 1992, Note_on_c, 1, 74, 89
1, 2015, Note_on_c, 0, 66, 0
1, 2015, Note_on_c, 1, 74, 0
1, 2015, Note_on_c, 5, 50, 0
1, 2016, Note_on_c, 0, 64, 89
1, 2016, Note_on_c, 1, 67, 89
1, 2016, Note_on_c, 5, 45, 89
1, 2027, Note_on_c, 5, 45, 0
1, 2028, Note_on_c, 5, 52, 89
1, 2039, Note_on_c, 5, 52, 0
1, 2040, Note_on_c, 5, 57, 89
1, 2051, Note_on_c, 0, 64, 0
1, 2051, Note_on_c, 1, 67, 0
1, 2052, Note_on_c, 0, 67, 89
1, 2062, Note_on_c, 6, 47, 89
1, 2063, Note_on_c, 0, 67, 0
1, 2063, Note_on_c, 5, 57, 0
1, 2064, Note_on_c, 0, 66, 89
1, 2064, Note_on_c, 5, 59, 89
1, 2075, Note_on_c, 0, 66, 0
1, 2076, Note_on_c, 0, 62, 89
1, 2077, Note_on_c, 5, 59, 0
1, 2087, Note_on_c, 0, 62, 0
1, 2087, Note_on_c, 6, 47, 0
1, 2088, Note_on_c, 0, 64, 89
1, 2088, Note_on_c, 5, 48, 89
1, 2099, Note_on_c, 5, 48, 0
1, 2100, Note_on_c, 5, 55, 89
1, 2111, Note_on_c, 0, 64, 0
1, 2111, Note_on_c, 5, 55, 0
1, 2112, Note_on_c, 0, 76, 89
1, 2112, Note_on_c, 5, 60, 89
1, 2123, Note_on_c, 5, 60, 0
1, 2124, Note_on_c, 5, 64, 89
1, 2135, Note_on_c, 5, 64, 0
1, 2136, Note_on_c, 5, 67, 89
1, 2147, Note_on_c, 5, 67, 0
1, 2148, Note_on_c, 5, 72, 89
1, 2159, Note_on_c, 5, 72, 0
1, 2160, Note_on_c, 5, 76, 89
1, 2171, Note_on_c, 5, 76, 0
1, 2172, Note_on_c, 5, 64, 89
1, 2183, Note_on_c, 5, 64, 0
1, 2184, Note_on_c, 5, 67, 89
1, 2195, Note_on_c, 5, 67, 0
1, 2196, Note_on_c, 5, 72, 89
1, 2207, Note_on_c, 5, 72, 0
1, 2208, Note_on_c, 5, 76, 89
1, 2219, Note_on_c, 5, 76, 0
1, 2220, Note_on_c, 5, 79, 89
1, 2231, Note_on_c, 0, 76, 0
1, 2231, Note_on_c, 5, 79, 0
1, 2232, Note_on_c, 0, 81, 89
1, 2232, Note_on_c, 5, 57, 89
1, 2243, Note_on_c, 5, 57, 0
1, 2244, Note_on_c, 5, 64, 89
1, 2255, Note_on_c, 5, 64, 0
1, 2256, Note_on_c, 5, 69, 89
1, 2267, Note_on_c, 5, 69, 0
1, 2268, Note_on_c, 5, 71, 89
1, 2279, Note_on_c, 0, 81, 0
1, 2279, Note_on_c, 5, 71, 0
1, 2280, Note_on_c, 0, 88, 89
1, 2280, Note_on_c, 5, 72, 89
1, 2291, Note_on_c, 5, 72, 0
1, 2292, Note_on_c, 5, 76, 89
1, 2303, Note_on_c, 0, 88, 0
1, 2303, Note_on_c, 5, 76, 0
1, 2304, Note_on_c, 0, 79, 89
1, 2304, Note_on_c, 1, 81, 89
1, 2304, Note_on_c, 2, 88, 89
1, 2304, Note_on_c, 5, 53, 89
1, 2315, Note_on_c, 5, 53, 0
1, 2316, Note_on_c, 5, 60, 89
1, 2327, Note_on_c, 2, 88, 0
1, 2327, Note_on_c, 5, 60, 0
1, 2328, Note_on_c, 2, 86, 89
1, 2328, Note_on_c, 5, 65, 89
1, 2339, Note_on_c, 5, 65, 0
1, 2340, Note_on_c, 5, 67, 89
1, 2351, Note_on_c, 0, 79, 0
1, 2351, Note_on_c, 1, 81, 0
1, 2351, Note_on_c, 2, 86, 0
1, 2351, Note_on_c, 5, 67, 0
1, 2352, Note_on_c, 0, 77, 89
1, 2352, Note_on_c, 1, 84, 89
1, 2352, Note_on_c, 5, 69, 89
1, 2363, Note_on_c, 5, 69, 0
1, 2364, Note_on_c, 5, 72, 89
1, 2375, Note_on_c, 0, 77, 0
1, 2375, Note_on_c, 1, 84, 0
1, 2375, Note_on_c, 5, 72, 0
1, 2376, Note_on_c, 0, 79, 89
1, 2376, Note_on_c, 1, 83, 89
1, 2376, Note_on_c, 5, 55, 89
1, 2387, Note_on_c, 5, 55, 0
1, 2388, Note_on_c, 5, 62, 89
1, 2399, Note_on_c, 5, 62, 0
1, 2400, Note_on_c, 5, 67, 89
1, 2411, Note_on_c, 5, 67, 0
1, 2412, Note_on_c, 5, 69, 89
1, 2423, Note_on_c, 0, 79, 0
1, 2423, Note_on_c, 1, 83, 0
1, 2423, Note_on_c, 5, 69, 0
1, 2424, Note_on_c, 5, 71, 89
1, 2435, Note_on_c, 5, 71, 0
1, 2436, Note_on_c, 5, 74, 89
1, 2446, Note_on_c, 1, 79, 89
1, 2447, Note_on_c, 5, 74, 0
1, 2448, Note_on_c, 0, 88, 89
1, 2448, Note_on_c, 5, 52, 89
1, 2459, Note_on_c, 5, 52, 0
1, 2460, Note_on_c, 5, 59, 89
1, 2471, Note_on_c, 5, 59, 0
1, 2472, Note_on_c, 5, 64, 89
1, 2483, Note_on_c, 5, 64, 0
1, 2484, Note_on_c, 5, 66, 89
1, 2495, Note_on_c, 5, 66, 0
1, 2496, Note_on_c, 5, 67, 89
1, 2507, Note_on_c, 5, 67, 0
1, 2508, Note_on_c, 5, 71, 89
1, 2519, Note_on_c, 0, 88, 0
1, 2519, Note_on_c, 1, 79, 0
1, 2519, Note_on_c, 5, 71, 0
1, 2520, Note_on_c, 0, 78, 89
1, 2520, Note_on_c, 1, 83, 89
1, 2520, Note_on_c, 5, 59, 89
1, 2531, Note_on_c, 5, 59, 0
1, 2532, Note_on_c, 5, 66, 89
1, 2543, Note_on_c, 5, 66, 0
1, 2544, Note_on_c, 5, 71, 89
1, 2555, Note_on_c, 5, 71, 0
1, 2556, Note_on_c, 5, 73, 89
1, 2567, Note_on_c, 0, 78, 0
1, 2567, Note_on_c, 1, 83, 0
1, 2567, Note_on_c, 5, 73, 0
1, 2568, Note_on_c, 0, 90, 89
1, 2568, Note_on_c, 5, 74, 89
1, 2579, Note_on_c, 5, 74, 0
1, 2580, Note_on_c, 5, 76, 89
1, 2590, Note_on_c, 1, 81, 89
1, 2591, Note_on_c, 0, 90, 0
1, 2592, Note_on_c, 0, 85, 89
1, 2592, Note_on_c, 2, 90, 89
1, 2593, Note_on_c, 5, 76, 0
1, 2594, Note_on_c, 5, 66, 89
1, 2661, Note_on_c, 1, 81, 0
1, 2663, Note_on_c, 0, 85, 0
1, 2663, Note_on_c, 2, 90, 0
1, 2663, Note_on_c, 5, 66, 0
1, 2664, Note_on_c, 0, 81, 89
1, 2664, Note_on_c, 5, 57, 89
1, 2675, Note_on_c, 5, 57, 0
1, 2676, Note_on_c, 5, 64, 89
1, 2687, Note_on_c, 5, 64, 0
1, 2688, Note_on_c, 5, 69, 89
1, 2699, Note_on_c, 5, 69, 0
1, 2700, Note_on_c, 5, 71, 89
1, 2711, Note_on_c, 0, 81, 0
1, 2711, Note_on_c, 5, 71, 0
1, 2712, Note_on_c, 0, 88, 89
1, 2712, Note_on_c, 5, 72, 89
1, 2723, Note_on_c, 5, 72, 0
1, 2724, Note_on_c, 5, 69, 89
1, 2734, Note_on_c, 1, 81, 89
1, 2735, Note_on_c, 0, 88, 0
1, 2735, Note_on_c, 5, 69, 0
1, 2736, Note_on_c, 0, 83, 89
1, 2736, Note_on_c, 2, 88, 89
1, 2736, Note_on_c, 5, 71, 89
1, 2738, Note_on_c, 6, 59, 89
1, 2759, Note_on_c, 0, 83, 0
1, 2759, Note_on_c, 1, 81, 0
1, 2760, Note_on_c, 0, 87, 89
1, 2761, Note_on_c, 2, 88, 0
1, 2783, Note_on_c, 5, 71, 0
1, 2783, Note_on_c, 6, 59, 0
1, 2784, Note_on_c, 5, 59, 89
1, 2795, Note_on_c, 5, 59, 0
1, 2796, Note_on_c, 5, 57, 89
1, 2807, Note_on_c, 0, 87, 0
1, 2807, Note_on_c, 5, 57, 0
1, 2808, Note_on_c, 0, 66, 89
1, 2808, Note_on_c, 1, 71, 89
1, 2808, Note_on_c, 5, 47, 89
1, 2819, Note_on_c, 5, 47, 0
1, 2820, Note_on_c, 5, 54, 89
1, 2831, Note_on_c, 5, 54, 0
1, 2832, Note_on_c, 5, 59, 89
1, 2843, Note_on_c, 5, 59, 0
1, 2844, Note_on_c, 5, 61, 89
1, 2855, Note_on_c, 0, 66, 0
1, 2855, Note_on_c, 1, 71, 0
1, 2855, Note_on_c, 5, 61, 0
1, 2856, Note_on_c, 0, 74, 89
1, 2856, Note_on_c, 1, 78, 89
1, 2856, Note_on_c, 2, 66, 89
1, 2856, Note_on_c, 5, 62, 89
1, 2867, Note_on_c, 5, 62, 0
1, 2868, Note_on_c, 6, 54, 89
1, 2879, Note_on_c, 0, 74, 0
1, 2879, Note_on_c, 1, 78, 0
1, 2879, Note_on_c, 2, 66, 0
1, 2879, Note_on_c, 6, 54, 0
1, 2880, Note_on_c, 0, 71, 89
1, 2880, Note_on_c, 1, 69, 89
1, 2880, Note_on_c, 2, 74, 89
1, 2880, Note_on_c, 3, 78, 89
1, 2892, Note_on_c, 5, 50, 89
1, 2903, Note_on_c, 3, 78, 0
1, 2903, Note_on_c, 5, 50, 0
1, 2904, Note_on_c, 3, 76, 89
1, 2904, Note_on_c, 4, 67, 89
1, 2904, Note_on_c, 5, 55, 89
1, 2915, Note_on_c, 5, 55, 0
1, 2916, Note_on_c, 5, 57, 89
1, 2927, Note_on_c, 0, 71, 0
1, 2927, Note_on_c, 1, 69, 0
1, 2927, Note_on_c, 2, 74, 0
1, 2927, Note_on_c, 4, 67, 0
1, 2927, Note_on_c, 5, 57, 0
1, 2928, Note_on_c, 0, 66, 89
1, 2928, Note_on_c, 1, 74, 89
1, 2928, Note_on_c, 2, 71, 89
1, 2928, Note_on_c, 5, 59, 89
1, 2929, Note_on_c, 3, 76, 0
1, 2939, Note_on_c, 5, 59, 0
1, 2940, Note_on_c, 6, 50, 89
1, 2951, Note_on_c, 0, 66, 0
1, 2951, Note_on_c, 1, 74, 0
1, 2951, Note_on_c, 2, 71, 0
1, 2951, Note_on_c, 6, 50, 0
1, 2952, Note_on_c, 0, 64, 89
1, 2952, Note_on_c, 1, 69, 89
1, 2952, Note_on_c, 2, 73, 89
1, 2952, Note_on_c, 5, 45, 89
1, 2963, Note_on_c, 5, 45, 0
1, 2964, Note_on_c, 5, 52, 89
1, 2975, Note_on_c, 5, 52, 0
1, 2976, Note_on_c, 5, 57, 89
1, 2987, Note_on_c, 5, 57, 0
1, 2988, Note_on_c, 5, 59, 89
1, 2999, Note_on_c, 0, 64, 0
1, 2999, Note_on_c, 5, 59, 0
1, 3000, Note_on_c, 0, 81, 89
1, 3000, Note_on_c, 3, 73, 89
1, 3000, Note_on_c, 4, 76, 89
1, 3000, Note_on_c, 5, 61, 89
1, 3001, Note_on_c, 2, 73, 0
1, 3011, Note_on_c, 5, 61, 0
1, 3012, Note_on_c, 6, 52, 89
1, 3023, Note_on_c, 0, 81, 0
1, 3023, Note_on_c, 1, 69, 0
1, 3023, Note_on_c, 3, 73, 0
1, 3023, Note_on_c, 4, 76, 0
1, 3023, Note_on_c, 6, 52, 0
1, 3024, Note_on_c, 0, 78, 89
1, 3024, Note_on_c, 1, 73, 89
1, 3024, Note_on_c, 2, 69, 89
1, 3024, Note_on_c, 3, 81, 89
1, 3036, Note_on_c, 5, 49, 89
1, 3047, Note_on_c, 5, 49, 0
1, 3048, Note_on_c, 5, 54, 89
1, 3059, Note_on_c, 5, 54, 0
1, 3060, Note_on_c, 5, 56, 89
1, 3071, Note_on_c, 5, 56, 0
1, 3072, Note_on_c, 5, 57, 89
1, 3084, Note_on_c, 6, 59, 89
1, 3085, Note_on_c, 5, 57, 0
1, 3093, Note_on_c, 3, 81, 0
1, 3095, Note_on_c, 1, 73, 0
1, 3095, Note_on_c, 2, 69, 0
1, 3095, Note_on_c, 6, 59, 0
1, 3096, Note_on_c, 1, 73, 89
1, 3096, Note_on_c, 2, 80, 89
1, 3096, Note_on_c, 5, 61, 89
1, 3096, Note_on_c, 6, 49, 89
1, 3097, Note_on_c, 0, 78, 0
1, 3119, Note_on_c, 1, 73, 0
1, 3119, Note_on_c, 2, 80, 0
1, 3120, Note_on_c, 0, 76, 89
1, 3143, Note_on_c, 0, 76, 0
1, 3143, Note_on_c, 5, 61, 0
1, 3144, Note_on_c, 0, 73, 89
1, 3145, Note_on_c, 6, 49, 0
1, 3167, Note_on_c, 0, 73, 0
1, 3168, Note_on_c, 0, 71, 89
1, 3168, Note_on_c, 1, 67, 89
1, 3215, Note_on_c, 0, 71, 0
1, 3215, Note_on_c, 1, 67, 0
1, 3216, Note_on_c, 0, 78, 89
1, 3216, Note_on_c, 1, 67, 89
1, 3216, Note_on_c, 6, 55, 89
1, 3216, Note_on_c, 7, 59, 89
1, 3216, Note_on_c, 8, 62, 89
1, 3239, Note_on_c, 0, 78, 0
1, 3239, Note_on_c, 6, 55, 0
1, 3239, Note_on_c, 7, 59, 0
1, 3239, Note_on_c, 8, 62, 0
1, 3240, Note_on_c, 0, 69, 89
1, 3240, Note_on_c, 5, 57, 89
1, 3240, Note_on_c, 6, 54, 89
1, 3240, Note_on_c, 7, 61, 89
1, 3241, Note_on_c, 1, 67, 0
1, 3275, Note_on_c, 0, 69, 0
1, 3276, Note_on_c, 0, 66, 89
1, 3287, Note_on_c, 0, 66, 0
1, 3287, Note_on_c, 5, 57, 0
1, 3287, Note_on_c, 6, 54, 0
1, 3287, Note_on_c, 7, 61, 0
1, 3288, Note_on_c, 0, 69, 89
1, 3288, Note_on_c, 5, 64, 89
1, 3288, Note_on_c, 6, 57, 89
1, 3288, Note_on_c, 7, 61, 89
1, 3311, Note_on_c, 5, 64, 0
1, 3311, Note_on_c, 6, 57, 0
1, 3311, Note_on_c, 7, 61, 0
1, 3312, Note_on_c, 1, 63, 89
1, 3312, Note_on_c, 2, 71, 89
1, 3313, Note_on_c, 0, 69, 0
1, 3324, Note_on_c, 5, 47, 89
1, 3335, Note_on_c, 5, 47, 0
1, 3336, Note_on_c, 5, 51, 89
1, 3347, Note_on_c, 5, 51, 0
1, 3348, Note_on_c, 5, 54, 89
1, 3359, Note_on_c, 5, 54, 0
1, 3360, Note_on_c, 5, 59, 89
1, 3371, Note_on_c, 5, 59, 0
1, 3372, Note_on_c, 5, 63, 89
1, 3383, Note_on_c, 1, 63, 0
1, 3383, Note_on_c, 2, 71, 0
1, 3383, Note_on_c, 5, 63, 0
1, 3456, End_track
0, 0, End_of_file
