0, 0, Header, 0, 1, 480
1, 0, Start_track
1, 0, Title_t, ""
1, 0, Time_signature, 3, 2, 24, 8
1, 0, Tempo, 500000
1, 0, Control_c, 2, 32, 0
1, 0, Control_c, 2, 0, 0
1, 0, Program_c, 2, 91
1, 0, Control_c, 3, 32, 0
1, 0, Control_c, 3, 0, 0
1, 0, Program_c, 3, 48
1, 0, Control_c, 4, 32, 0
1, 0, Control_c, 4, 0, 0
1, 0, Program_c, 4, 49
1, 0, Control_c, 5, 32, 0
1, 0, Control_c, 5, 0, 0
1, 0, Program_c, 5, 44
1, 0, Control_c, 6, 32, 0
1, 0, Control_c, 6, 0, 0
1, 0, Program_c, 6, 14
1, 0, Control_c, 7, 32, 0
1, 0, Control_c, 7, 0, 8
1, 0, Program_c, 7, 116
1, 0, Control_c, 8, 32, 0
1, 0, Control_c, 8, 0, 0
1, 0, Program_c, 8, 47
1, 0, Control_c, 9, 32, 0
1, 0, Control_c, 9, 0, 0
1, 0, Program_c, 9, 48
1, 0, Control_c, 10, 32, 0
1, 0, Control_c, 10, 0, 0
1, 0, Program_c, 10, 0
1, 0, Control_c, 11, 0, 127
1, 0, Control_c, 11, 32, 0
1, 0, Program_c, 11, 1
1, 0, Control_c, 12, 0, 24
1, 0, Control_c, 12, 32, 0
1, 0, Program_c, 12, 0
1, 1348, Control_c, 9, 11, 104
1, 1378, Control_c, 9, 11, 104
1, 1408, Control_c, 9, 11, 103
1, 1438, Control_c, 9, 11, 103
1, 1440, Tempo, 600000
1, 1440, Note_on_c, 7, 33, 117
1, 1440, Note_on_c, 7, 45, 117
1, 1440, Note_on_c, 8, 33, 117
1, 1440, Note_on_c, 8, 45, 117
1, 1440, Note_on_c, 9, 55, 100
1, 1440, Note_on_c, 9, 30, 100
1, 1440, Note_on_c, 9, 83, 100
1, 1450, Note_on_c, 9, 55, 0
1, 1450, Note_on_c, 9, 30, 0
1, 1450, Note_on_c, 9, 83, 0
1, 1468, Control_c, 9, 11, 102
1, 1498, Control_c, 9, 11, 102
1, 1528, Control_c, 9, 11, 101
1, 1558, Control_c, 9, 11, 101
1, 1588, Control_c, 9, 11, 100
1, 1618, Control_c, 9, 11, 100
1, 1648, Control_c, 9, 11, 99
1, 1678, Control_c, 9, 11, 99
1, 1708, Control_c, 9, 11, 98
1, 1738, Control_c, 9, 11, 98
1, 1768, Control_c, 9, 11, 97
1, 1798, Control_c, 9, 11, 97
1, 1828, Control_c, 9, 11, 96
1, 1858, Control_c, 9, 11, 95
1, 1888, Control_c, 9, 11, 95
1, 1918, Control_c, 9, 11, 94
1, 1920, Note_on_c, 9, 55, 100
1, 1920, Note_on_c, 9, 30, 100
1, 1920, Note_on_c, 9, 83, 100
1, 1930, Note_on_c, 9, 55, 0
1, 1930, Note_on_c, 9, 30, 0
1, 1930, Note_on_c, 9, 83, 0
1, 1948, Control_c, 9, 11, 94
1, 1978, Control_c, 9, 11, 93
1, 2008, Control_c, 9, 11, 93
1, 2038, Control_c, 9, 11, 92
1, 2068, Control_c, 9, 11, 92
1, 2098, Control_c, 9, 11, 91
1, 2128, Control_c, 9, 11, 91
1, 2158, Control_c, 9, 11, 90
1, 2188, Control_c, 9, 11, 90
1, 2203, Control_c, 9, 11, 95
1, 2228, Control_c, 9, 11, 91
1, 2258, Control_c, 9, 11, 89
1, 2288, Control_c, 9, 11, 87
1, 2318, Control_c, 9, 11, 85
1, 2348, Control_c, 9, 11, 83
1, 2378, Control_c, 9, 11, 81
1, 2400, Note_on_c, 7, 33, 0
1, 2400, Note_on_c, 7, 45, 0
1, 2400, Note_on_c, 8, 33, 0
1, 2400, Note_on_c, 8, 45, 0
1, 2400, Note_on_c, 7, 45, 117
1, 2400, Note_on_c, 7, 33, 117
1, 2400, Note_on_c, 8, 45, 117
1, 2400, Note_on_c, 8, 33, 117
1, 2400, Note_on_c, 9, 30, 100
1, 2400, Note_on_c, 9, 83, 100
1, 2400, Note_on_c, 9, 55, 100
1, 2408, Control_c, 9, 11, 79
1, 2410, Note_on_c, 9, 30, 0
1, 2410, Note_on_c, 9, 83, 0
1, 2410, Note_on_c, 9, 55, 0
1, 2438, Control_c, 9, 11, 77
1, 2468, Control_c, 9, 11, 74
1, 2491, Control_c, 9, 11, 70
1, 2521, Control_c, 9, 11, 69
1, 2551, Control_c, 9, 11, 67
1, 2581, Control_c, 9, 11, 66
1, 2611, Control_c, 9, 11, 64
1, 2641, Control_c, 9, 11, 63
1, 2671, Control_c, 9, 11, 61
1, 2701, Control_c, 9, 11, 59
1, 2731, Control_c, 9, 11, 58
1, 2761, Control_c, 9, 11, 56
1, 2791, Control_c, 9, 11, 55
1, 2821, Control_c, 9, 11, 53
1, 2851, Control_c, 9, 11, 51
1, 2880, Note_on_c, 7, 45, 0
1, 2880, Note_on_c, 7, 33, 0
1, 2880, Note_on_c, 8, 45, 0
1, 2880, Note_on_c, 8, 33, 0
1, 2880, Note_on_c, 6, 69, 100
1, 2880, Note_on_c, 7, 33, 117
1, 2880, Note_on_c, 7, 45, 117
1, 2880, Note_on_c, 8, 33, 117
1, 2880, Note_on_c, 8, 45, 117
1, 2880, Note_on_c, 9, 55, 100
1, 2880, Note_on_c, 9, 30, 100
1, 2880, Note_on_c, 9, 83, 100
1, 2881, Control_c, 9, 11, 50
1, 2890, Note_on_c, 9, 55, 0
1, 2890, Note_on_c, 9, 30, 0
1, 2890, Note_on_c, 9, 83, 0
1, 2911, Control_c, 9, 11, 48
1, 2941, Control_c, 9, 11, 47
1, 2971, Control_c, 9, 11, 45
1, 3001, Control_c, 9, 11, 43
1, 3031, Control_c, 9, 11, 42
1, 3061, Control_c, 9, 11, 40
1, 3091, Control_c, 9, 11, 39
1, 3121, Control_c, 9, 11, 37
1, 3151, Control_c, 9, 11, 35
1, 3181, Control_c, 9, 11, 34
1, 3211, Control_c, 9, 11, 32
1, 3241, Control_c, 9, 11, 31
1, 3271, Control_c, 9, 11, 29
1, 3301, Control_c, 9, 11, 27
1, 3331, Control_c, 9, 11, 26
1, 3360, Note_on_c, 9, 55, 100
1, 3360, Note_on_c, 9, 30, 100
1, 3360, Note_on_c, 9, 83, 100
1, 3361, Control_c, 9, 11, 24
1, 3370, Note_on_c, 9, 55, 0
1, 3370, Note_on_c, 9, 30, 0
1, 3370, Note_on_c, 9, 83, 0
1, 3391, Control_c, 9, 11, 23
1, 3421, Control_c, 9, 11, 21
1, 3428, Control_c, 9, 11, 19
1, 3458, Control_c, 9, 11, 19
1, 3488, Control_c, 9, 11, 18
1, 3518, Control_c, 9, 11, 17
1, 3548, Control_c, 9, 11, 16
1, 3578, Control_c, 9, 11, 16
1, 3608, Control_c, 9, 11, 15
1, 3638, Control_c, 9, 11, 14
1, 3668, Control_c, 9, 11, 13
1, 3698, Control_c, 9, 11, 12
1, 3728, Control_c, 9, 11, 12
1, 3758, Control_c, 9, 11, 11
1, 3788, Control_c, 9, 11, 10
1, 3818, Control_c, 9, 11, 9
1, 3840, Note_on_c, 7, 33, 0
1, 3840, Note_on_c, 7, 45, 0
1, 3840, Note_on_c, 8, 33, 0
1, 3840, Note_on_c, 8, 45, 0
1, 3840, Note_on_c, 7, 33, 117
1, 3840, Note_on_c, 7, 45, 117
1, 3840, Note_on_c, 8, 33, 117
1, 3840, Note_on_c, 8, 45, 117
1, 3840, Note_on_c, 9, 83, 100
1, 3840, Note_on_c, 9, 55, 100
1, 3840, Note_on_c, 9, 30, 100
1, 3848, Control_c, 9, 11, 8
1, 3850, Note_on_c, 9, 83, 0
1, 3850, Note_on_c, 9, 55, 0
1, 3850, Note_on_c, 9, 30, 0
1, 3878, Control_c, 9, 11, 8
1, 3908, Control_c, 9, 11, 7
1, 3938, Control_c, 9, 11, 6
1, 3968, Control_c, 9, 11, 5
1, 3998, Control_c, 9, 11, 4
1, 4028, Control_c, 9, 11, 4
1, 4058, Control_c, 9, 11, 3
1, 4094, Control_c, 9, 11, 5
1, 4124, Control_c, 9, 11, 4
1, 4154, Control_c, 9, 11, 4
1, 4176, Note_on_c, 6, 69, 0
1, 4184, Control_c, 9, 11, 3
1, 4214, Control_c, 9, 11, 3
1, 4244, Control_c, 9, 11, 2
1, 4302, Control_c, 9, 11, 48
1, 4320, Note_on_c, 7, 33, 0
1, 4320, Note_on_c, 7, 45, 0
1, 4320, Note_on_c, 8, 33, 0
1, 4320, Note_on_c, 8, 45, 0
1, 4320, Note_on_c, 7, 45, 117
1, 4320, Note_on_c, 7, 33, 117
1, 4320, Note_on_c, 8, 45, 117
1, 4320, Note_on_c, 8, 33, 117
1, 4320, Note_on_c, 9, 55, 100
1, 4320, Note_on_c, 9, 30, 100
1, 4320, Note_on_c, 9, 83, 100
1, 4330, Note_on_c, 9, 55, 0
1, 4330, Note_on_c, 9, 30, 0
1, 4330, Note_on_c, 9, 83, 0
1, 4348, Control_c, 9, 11, 102
1, 4378, Control_c, 9, 11, 102
1, 4408, Control_c, 9, 11, 101
1, 4438, Control_c, 9, 11, 101
1, 4468, Control_c, 9, 11, 100
1, 4498, Control_c, 9, 11, 100
1, 4528, Control_c, 9, 11, 99
1, 4558, Control_c, 9, 11, 99
1, 4588, Control_c, 9, 11, 98
1, 4618, Control_c, 9, 11, 98
1, 4648, Control_c, 9, 11, 97
1, 4678, Control_c, 9, 11, 97
1, 4708, Control_c, 9, 11, 96
1, 4738, Control_c, 9, 11, 95
1, 4768, Control_c, 9, 11, 95
1, 4798, Control_c, 9, 11, 94
1, 4800, Note_on_c, 9, 55, 100
1, 4800, Note_on_c, 9, 30, 100
1, 4800, Note_on_c, 9, 83, 100
1, 4810, Note_on_c, 9, 55, 0
1, 4810, Note_on_c, 9, 30, 0
1, 4810, Note_on_c, 9, 83, 0
1, 4828, Control_c, 9, 11, 94
1, 4858, Control_c, 9, 11, 93
1, 4888, Control_c, 9, 11, 93
1, 4918, Control_c, 9, 11, 92
1, 4948, Control_c, 9, 11, 92
1, 4978, Control_c, 9, 11, 91
1, 5008, Control_c, 9, 11, 91
1, 5038, Control_c, 9, 11, 90
1, 5068, Control_c, 9, 11, 90
1, 5083, Control_c, 9, 11, 95
1, 5108, Control_c, 9, 11, 91
1, 5138, Control_c, 9, 11, 89
1, 5168, Control_c, 9, 11, 87
1, 5198, Control_c, 9, 11, 85
1, 5228, Control_c, 9, 11, 83
1, 5258, Control_c, 9, 11, 81
1, 5280, Note_on_c, 7, 45, 0
1, 5280, Note_on_c, 7, 33, 0
1, 5280, Note_on_c, 8, 45, 0
1, 5280, Note_on_c, 8, 33, 0
1, 5280, Note_on_c, 7, 45, 117
1, 5280, Note_on_c, 7, 33, 117
1, 5280, Note_on_c, 8, 45, 117
1, 5280, Note_on_c, 8, 33, 117
1, 5280, Note_on_c, 9, 30, 100
1, 5280, Note_on_c, 9, 83, 100
1, 5280, Note_on_c, 9, 55, 100
1, 5288, Control_c, 9, 11, 79
1, 5290, Note_on_c, 9, 30, 0
1, 5290, Note_on_c, 9, 83, 0
1, 5290, Note_on_c, 9, 55, 0
1, 5318, Control_c, 9, 11, 77
1, 5348, Control_c, 9, 11, 74
1, 5371, Control_c, 9, 11, 70
1, 5401, Control_c, 9, 11, 69
1, 5431, Control_c, 9, 11, 67
1, 5461, Control_c, 9, 11, 66
1, 5491, Control_c, 9, 11, 64
1, 5521, Control_c, 9, 11, 63
1, 5551, Control_c, 9, 11, 61
1, 5581, Control_c, 9, 11, 59
1, 5611, Control_c, 9, 11, 58
1, 5641, Control_c, 9, 11, 56
1, 5671, Control_c, 9, 11, 55
1, 5701, Control_c, 9, 11, 53
1, 5731, Control_c, 9, 11, 51
1, 5760, Note_on_c, 7, 45, 0
1, 5760, Note_on_c, 7, 33, 0
1, 5760, Note_on_c, 8, 45, 0
1, 5760, Note_on_c, 8, 33, 0
1, 5760, Note_on_c, 6, 69, 100
1, 5760, Note_on_c, 7, 45, 117
1, 5760, Note_on_c, 7, 33, 117
1, 5760, Note_on_c, 8, 45, 117
1, 5760, Note_on_c, 8, 33, 117
1, 5760, Note_on_c, 9, 55, 100
1, 5760, Note_on_c, 9, 30, 100
1, 5760, Note_on_c, 9, 83, 100
1, 5761, Control_c, 9, 11, 50
1, 5770, Note_on_c, 9, 55, 0
1, 5770, Note_on_c, 9, 30, 0
1, 5770, Note_on_c, 9, 83, 0
1, 5791, Control_c, 9, 11, 48
1, 5821, Control_c, 9, 11, 47
1, 5851, Control_c, 9, 11, 45
1, 5881, Control_c, 9, 11, 43
1, 5911, Control_c, 9, 11, 42
1, 5941, Control_c, 9, 11, 40
1, 5971, Control_c, 9, 11, 39
1, 6001, Control_c, 9, 11, 37
1, 6031, Control_c, 9, 11, 35
1, 6061, Control_c, 9, 11, 34
1, 6091, Control_c, 9, 11, 32
1, 6121, Control_c, 9, 11, 31
1, 6151, Control_c, 9, 11, 29
1, 6181, Control_c, 9, 11, 27
1, 6211, Control_c, 9, 11, 26
1, 6240, Note_on_c, 9, 55, 100
1, 6240, Note_on_c, 9, 30, 100
1, 6240, Note_on_c, 9, 83, 100
1, 6241, Control_c, 9, 11, 24
1, 6250, Note_on_c, 9, 55, 0
1, 6250, Note_on_c, 9, 30, 0
1, 6250, Note_on_c, 9, 83, 0
1, 6271, Control_c, 9, 11, 23
1, 6301, Control_c, 9, 11, 21
1, 6308, Control_c, 9, 11, 19
1, 6338, Control_c, 9, 11, 19
1, 6368, Control_c, 9, 11, 18
1, 6398, Control_c, 9, 11, 17
1, 6428, Control_c, 9, 11, 16
1, 6458, Control_c, 9, 11, 16
1, 6488, Control_c, 9, 11, 15
1, 6518, Control_c, 9, 11, 14
1, 6548, Control_c, 9, 11, 13
1, 6578, Control_c, 9, 11, 12
1, 6608, Control_c, 9, 11, 12
1, 6638, Control_c, 9, 11, 11
1, 6668, Control_c, 9, 11, 10
1, 6698, Control_c, 9, 11, 9
1, 6720, Note_on_c, 7, 45, 0
1, 6720, Note_on_c, 7, 33, 0
1, 6720, Note_on_c, 8, 45, 0
1, 6720, Note_on_c, 8, 33, 0
1, 6720, Note_on_c, 7, 33, 117
1, 6720, Note_on_c, 7, 45, 117
1, 6720, Note_on_c, 8, 33, 117
1, 6720, Note_on_c, 8, 45, 117
1, 6720, Note_on_c, 9, 83, 100
1, 6720, Note_on_c, 9, 55, 100
1, 6720, Note_on_c, 9, 30, 100
1, 6728, Control_c, 9, 11, 8
1, 6730, Note_on_c, 9, 83, 0
1, 6730, Note_on_c, 9, 55, 0
1, 6730, Note_on_c, 9, 30, 0
1, 6758, Control_c, 9, 11, 8
1, 6788, Control_c, 9, 11, 7
1, 6818, Control_c, 9, 11, 6
1, 6848, Control_c, 9, 11, 5
1, 6878, Control_c, 9, 11, 4
1, 6908, Control_c, 9, 11, 4
1, 6938, Control_c, 9, 11, 3
1, 6974, Control_c, 9, 11, 5
1, 7004, Control_c, 9, 11, 4
1, 7034, Control_c, 9, 11, 4
1, 7056, Note_on_c, 6, 69, 0
1, 7064, Control_c, 9, 11, 3
1, 7094, Control_c, 9, 11, 3
1, 7124, Control_c, 9, 11, 2
1, 7182, Control_c, 9, 11, 48
1, 7200, Note_on_c, 7, 33, 0
1, 7200, Note_on_c, 7, 45, 0
1, 7200, Note_on_c, 8, 33, 0
1, 7200, Note_on_c, 8, 45, 0
1, 7200, Note_on_c, 3, 62, 127
1, 7200, Note_on_c, 4, 62, 127
1, 7200, Note_on_c, 5, 62, 127
1, 7200, Note_on_c, 5, 50, 127
1, 7200, Note_on_c, 7, 45, 117
1, 7200, Note_on_c, 7, 33, 117
1, 7200, Note_on_c, 8, 45, 117
1, 7200, Note_on_c, 8, 33, 117
1, 7200, Note_on_c, 9, 30, 100
1, 7200, Note_on_c, 9, 83, 100
1, 7200, Note_on_c, 9, 55, 100
1, 7210, Note_on_c, 9, 30, 0
1, 7210, Note_on_c, 9, 83, 0
1, 7210, Note_on_c, 9, 55, 0
1, 7228, Control_c, 9, 11, 102
1, 7258, Control_c, 9, 11, 102
1, 7288, Control_c, 9, 11, 101
1, 7318, Control_c, 9, 11, 101
1, 7348, Control_c, 9, 11, 100
1, 7378, Control_c, 9, 11, 100
1, 7408, Control_c, 9, 11, 99
1, 7438, Control_c, 9, 11, 99
1, 7468, Control_c, 9, 11, 98
1, 7498, Control_c, 9, 11, 98
1, 7528, Control_c, 9, 11, 97
1, 7558, Control_c, 9, 11, 97
1, 7588, Control_c, 9, 11, 96
1, 7618, Control_c, 9, 11, 95
1, 7648, Control_c, 9, 11, 95
1, 7678, Control_c, 9, 11, 94
1, 7680, Note_on_c, 9, 30, 100
1, 7680, Note_on_c, 9, 83, 100
1, 7680, Note_on_c, 9, 55, 100
1, 7690, Note_on_c, 9, 30, 0
1, 7690, Note_on_c, 9, 83, 0
1, 7690, Note_on_c, 9, 55, 0
1, 7708, Control_c, 9, 11, 94
1, 7738, Control_c, 9, 11, 93
1, 7768, Control_c, 9, 11, 93
1, 7798, Control_c, 9, 11, 92
1, 7828, Control_c, 9, 11, 92
1, 7858, Control_c, 9, 11, 91
1, 7888, Control_c, 9, 11, 91
1, 7918, Control_c, 9, 11, 90
1, 7948, Control_c, 9, 11, 90
1, 7963, Control_c, 9, 11, 95
1, 7988, Control_c, 9, 11, 91
1, 8018, Control_c, 9, 11, 89
1, 8048, Control_c, 9, 11, 87
1, 8078, Control_c, 9, 11, 85
1, 8108, Control_c, 9, 11, 83
1, 8138, Control_c, 9, 11, 81
1, 8160, Note_on_c, 7, 45, 0
1, 8160, Note_on_c, 7, 33, 0
1, 8160, Note_on_c, 8, 45, 0
1, 8160, Note_on_c, 8, 33, 0
1, 8160, Note_on_c, 7, 33, 117
1, 8160, Note_on_c, 7, 45, 117
1, 8160, Note_on_c, 8, 33, 117
1, 8160, Note_on_c, 8, 45, 117
1, 8160, Note_on_c, 9, 83, 100
1, 8160, Note_on_c, 9, 55, 100
1, 8160, Note_on_c, 9, 30, 100
1, 8168, Control_c, 9, 11, 79
1, 8170, Note_on_c, 9, 83, 0
1, 8170, Note_on_c, 9, 55, 0
1, 8170, Note_on_c, 9, 30, 0
1, 8198, Control_c, 9, 11, 77
1, 8228, Control_c, 9, 11, 74
1, 8251, Control_c, 9, 11, 70
1, 8281, Control_c, 9, 11, 69
1, 8311, Control_c, 9, 11, 67
1, 8341, Control_c, 9, 11, 66
1, 8371, Control_c, 9, 11, 64
1, 8401, Control_c, 9, 11, 63
1, 8431, Control_c, 9, 11, 61
1, 8461, Control_c, 9, 11, 59
1, 8491, Control_c, 9, 11, 58
1, 8521, Control_c, 9, 11, 56
1, 8551, Control_c, 9, 11, 55
1, 8581, Control_c, 9, 11, 53
1, 8611, Control_c, 9, 11, 51
1, 8640, Note_on_c, 5, 62, 0
1, 8640, Note_on_c, 5, 50, 0
1, 8640, Note_on_c, 7, 33, 0
1, 8640, Note_on_c, 7, 45, 0
1, 8640, Note_on_c, 8, 33, 0
1, 8640, Note_on_c, 8, 45, 0
1, 8640, Note_on_c, 5, 59, 127
1, 8640, Note_on_c, 5, 47, 127
1, 8640, Note_on_c, 7, 45, 117
1, 8640, Note_on_c, 7, 33, 117
1, 8640, Note_on_c, 8, 45, 117
1, 8640, Note_on_c, 8, 33, 117
1, 8640, Note_on_c, 9, 30, 100
1, 8640, Note_on_c, 9, 83, 100
1, 8640, Note_on_c, 9, 55, 100
1, 8641, Control_c, 9, 11, 50
1, 8650, Note_on_c, 9, 30, 0
1, 8650, Note_on_c, 9, 83, 0
1, 8650, Note_on_c, 9, 55, 0
1, 8671, Control_c, 9, 11, 48
1, 8701, Control_c, 9, 11, 47
1, 8731, Control_c, 9, 11, 45
1, 8761, Control_c, 9, 11, 43
1, 8791, Control_c, 9, 11, 42
1, 8821, Control_c, 9, 11, 40
1, 8851, Control_c, 9, 11, 39
1, 8881, Control_c, 9, 11, 37
1, 8911, Control_c, 9, 11, 35
1, 8941, Control_c, 9, 11, 34
1, 8971, Control_c, 9, 11, 32
1, 9001, Control_c, 9, 11, 31
1, 9031, Control_c, 9, 11, 29
1, 9061, Control_c, 9, 11, 27
1, 9091, Control_c, 9, 11, 26
1, 9120, Note_on_c, 9, 30, 100
1, 9120, Note_on_c, 9, 83, 100
1, 9120, Note_on_c, 9, 55, 100
1, 9121, Control_c, 9, 11, 24
1, 9130, Note_on_c, 9, 30, 0
1, 9130, Note_on_c, 9, 83, 0
1, 9130, Note_on_c, 9, 55, 0
1, 9151, Control_c, 9, 11, 23
1, 9181, Control_c, 9, 11, 21
1, 9188, Control_c, 9, 11, 19
1, 9218, Control_c, 9, 11, 19
1, 9248, Control_c, 9, 11, 18
1, 9278, Control_c, 9, 11, 17
1, 9308, Control_c, 9, 11, 16
1, 9338, Control_c, 9, 11, 16
1, 9368, Control_c, 9, 11, 15
1, 9398, Control_c, 9, 11, 14
1, 9428, Control_c, 9, 11, 13
1, 9458, Control_c, 9, 11, 12
1, 9488, Control_c, 9, 11, 12
1, 9518, Control_c, 9, 11, 11
1, 9548, Control_c, 9, 11, 10
1, 9578, Control_c, 9, 11, 9
1, 9600, Note_on_c, 7, 45, 0
1, 9600, Note_on_c, 7, 33, 0
1, 9600, Note_on_c, 8, 45, 0
1, 9600, Note_on_c, 8, 33, 0
1, 9600, Note_on_c, 7, 33, 117
1, 9600, Note_on_c, 7, 45, 117
1, 9600, Note_on_c, 8, 33, 117
1, 9600, Note_on_c, 8, 45, 117
1, 9600, Note_on_c, 9, 83, 100
1, 9600, Note_on_c, 9, 55, 100
1, 9600, Note_on_c, 9, 30, 100
1, 9608, Control_c, 9, 11, 8
1, 9610, Note_on_c, 9, 83, 0
1, 9610, Note_on_c, 9, 55, 0
1, 9610, Note_on_c, 9, 30, 0
1, 9638, Control_c, 9, 11, 8
1, 9668, Control_c, 9, 11, 7
1, 9698, Control_c, 9, 11, 6
1, 9728, Control_c, 9, 11, 5
1, 9758, Control_c, 9, 11, 4
1, 9788, Control_c, 9, 11, 4
1, 9818, Control_c, 9, 11, 3
1, 9854, Control_c, 9, 11, 5
1, 9884, Control_c, 9, 11, 4
1, 9914, Control_c, 9, 11, 4
1, 9936, Note_on_c, 3, 62, 0
1, 9936, Note_on_c, 4, 62, 0
1, 9944, Control_c, 9, 11, 3
1, 9974, Control_c, 9, 11, 3
1, 10004, Control_c, 9, 11, 2
1, 10062, Control_c, 9, 11, 48
1, 10080, Note_on_c, 5, 59, 0
1, 10080, Note_on_c, 5, 47, 0
1, 10080, Note_on_c, 7, 33, 0
1, 10080, Note_on_c, 7, 45, 0
1, 10080, Note_on_c, 8, 33, 0
1, 10080, Note_on_c, 8, 45, 0
1, 10080, Note_on_c, 3, 64, 127
1, 10080, Note_on_c, 4, 64, 127
1, 10080, Note_on_c, 5, 64, 127
1, 10080, Note_on_c, 5, 52, 127
1, 10080, Note_on_c, 7, 33, 117
1, 10080, Note_on_c, 7, 45, 117
1, 10080, Note_on_c, 8, 33, 117
1, 10080, Note_on_c, 8, 45, 117
1, 10080, Note_on_c, 9, 30, 100
1, 10080, Note_on_c, 9, 83, 100
1, 10080, Note_on_c, 9, 55, 100
1, 10090, Note_on_c, 9, 30, 0
1, 10090, Note_on_c, 9, 83, 0
1, 10090, Note_on_c, 9, 55, 0
1, 10108, Control_c, 9, 11, 102
1, 10138, Control_c, 9, 11, 102
1, 10168, Control_c, 9, 11, 101
1, 10198, Control_c, 9, 11, 101
1, 10228, Control_c, 9, 11, 100
1, 10258, Control_c, 9, 11, 100
1, 10288, Control_c, 9, 11, 99
1, 10318, Control_c, 9, 11, 99
1, 10348, Control_c, 9, 11, 98
1, 10378, Control_c, 9, 11, 98
1, 10408, Control_c, 9, 11, 97
1, 10438, Control_c, 9, 11, 97
1, 10468, Control_c, 9, 11, 96
1, 10498, Control_c, 9, 11, 95
1, 10528, Control_c, 9, 11, 95
1, 10558, Control_c, 9, 11, 94
1, 10560, Note_on_c, 9, 55, 100
1, 10560, Note_on_c, 9, 30, 100
1, 10560, Note_on_c, 9, 83, 100
1, 10570, Note_on_c, 9, 55, 0
1, 10570, Note_on_c, 9, 30, 0
1, 10570, Note_on_c, 9, 83, 0
1, 10588, Control_c, 9, 11, 94
1, 10618, Control_c, 9, 11, 93
1, 10648, Control_c, 9, 11, 93
1, 10678, Control_c, 9, 11, 92
1, 10708, Control_c, 9, 11, 92
1, 10738, Control_c, 9, 11, 91
1, 10768, Control_c, 9, 11, 91
1, 10798, Control_c, 9, 11, 90
1, 10828, Control_c, 9, 11, 90
1, 10843, Control_c, 9, 11, 95
1, 10868, Control_c, 9, 11, 91
1, 10898, Control_c, 9, 11, 89
1, 10928, Control_c, 9, 11, 87
1, 10958, Control_c, 9, 11, 85
1, 10988, Control_c, 9, 11, 83
1, 11018, Control_c, 9, 11, 81
1, 11040, Note_on_c, 7, 33, 0
1, 11040, Note_on_c, 7, 45, 0
1, 11040, Note_on_c, 8, 33, 0
1, 11040, Note_on_c, 8, 45, 0
1, 11040, Note_on_c, 7, 45, 117
1, 11040, Note_on_c, 7, 33, 117
1, 11040, Note_on_c, 8, 45, 117
1, 11040, Note_on_c, 8, 33, 117
1, 11040, Note_on_c, 9, 30, 100
1, 11040, Note_on_c, 9, 83, 100
1, 11040, Note_on_c, 9, 55, 100
1, 11048, Control_c, 9, 11, 79
1, 11050, Note_on_c, 9, 30, 0
1, 11050, Note_on_c, 9, 83, 0
1, 11050, Note_on_c, 9, 55, 0
1, 11078, Control_c, 9, 11, 77
1, 11108, Control_c, 9, 11, 74
1, 11131, Control_c, 9, 11, 70
1, 11161, Control_c, 9, 11, 69
1, 11191, Control_c, 9, 11, 67
1, 11221, Control_c, 9, 11, 66
1, 11251, Control_c, 9, 11, 64
1, 11281, Control_c, 9, 11, 63
1, 11311, Control_c, 9, 11, 61
1, 11341, Control_c, 9, 11, 59
1, 11371, Control_c, 9, 11, 58
1, 11401, Control_c, 9, 11, 56
1, 11431, Control_c, 9, 11, 55
1, 11461, Control_c, 9, 11, 53
1, 11491, Control_c, 9, 11, 51
1, 11520, Note_on_c, 5, 64, 0
1, 11520, Note_on_c, 5, 52, 0
1, 11520, Note_on_c, 7, 45, 0
1, 11520, Note_on_c, 7, 33, 0
1, 11520, Note_on_c, 8, 45, 0
1, 11520, Note_on_c, 8, 33, 0
1, 11520, Note_on_c, 5, 64, 127
1, 11520, Note_on_c, 5, 52, 127
1, 11520, Note_on_c, 7, 45, 117
1, 11520, Note_on_c, 7, 33, 117
1, 11520, Note_on_c, 8, 45, 117
1, 11520, Note_on_c, 8, 33, 117
1, 11520, Note_on_c, 9, 55, 100
1, 11520, Note_on_c, 9, 30, 100
1, 11520, Note_on_c, 9, 83, 100
1, 11521, Control_c, 9, 11, 50
1, 11530, Note_on_c, 9, 55, 0
1, 11530, Note_on_c, 9, 30, 0
1, 11530, Note_on_c, 9, 83, 0
1, 11551, Control_c, 9, 11, 48
1, 11581, Control_c, 9, 11, 47
1, 11611, Control_c, 9, 11, 45
1, 11641, Control_c, 9, 11, 43
1, 11671, Control_c, 9, 11, 42
1, 11701, Control_c, 9, 11, 40
1, 11731, Control_c, 9, 11, 39
1, 11761, Control_c, 9, 11, 37
1, 11791, Control_c, 9, 11, 35
1, 11821, Control_c, 9, 11, 34
1, 11851, Control_c, 9, 11, 32
1, 11881, Control_c, 9, 11, 31
1, 11911, Control_c, 9, 11, 29
1, 11941, Control_c, 9, 11, 27
1, 11971, Control_c, 9, 11, 26
1, 12000, Note_on_c, 9, 55, 100
1, 12000, Note_on_c, 9, 30, 100
1, 12000, Note_on_c, 9, 83, 100
1, 12001, Control_c, 9, 11, 24
1, 12010, Note_on_c, 9, 55, 0
1, 12010, Note_on_c, 9, 30, 0
1, 12010, Note_on_c, 9, 83, 0
1, 12031, Control_c, 9, 11, 23
1, 12061, Control_c, 9, 11, 21
1, 12068, Control_c, 9, 11, 19
1, 12098, Control_c, 9, 11, 19
1, 12128, Control_c, 9, 11, 18
1, 12158, Control_c, 9, 11, 17
1, 12188, Control_c, 9, 11, 16
1, 12218, Control_c, 9, 11, 16
1, 12248, Control_c, 9, 11, 15
1, 12278, Control_c, 9, 11, 14
1, 12308, Control_c, 9, 11, 13
1, 12338, Control_c, 9, 11, 12
1, 12368, Control_c, 9, 11, 12
1, 12398, Control_c, 9, 11, 11
1, 12428, Control_c, 9, 11, 10
1, 12458, Control_c, 9, 11, 9
1, 12480, Note_on_c, 7, 45, 0
1, 12480, Note_on_c, 7, 33, 0
1, 12480, Note_on_c, 8, 45, 0
1, 12480, Note_on_c, 8, 33, 0
1, 12480, Note_on_c, 7, 33, 117
1, 12480, Note_on_c, 7, 45, 117
1, 12480, Note_on_c, 8, 33, 117
1, 12480, Note_on_c, 8, 45, 117
1, 12480, Note_on_c, 9, 83, 100
1, 12480, Note_on_c, 9, 55, 100
1, 12480, Note_on_c, 9, 30, 100
1, 12488, Control_c, 9, 11, 8
1, 12490, Note_on_c, 9, 83, 0
1, 12490, Note_on_c, 9, 55, 0
1, 12490, Note_on_c, 9, 30, 0
1, 12518, Control_c, 9, 11, 8
1, 12548, Control_c, 9, 11, 7
1, 12578, Control_c, 9, 11, 6
1, 12608, Control_c, 9, 11, 5
1, 12638, Control_c, 9, 11, 4
1, 12668, Control_c, 9, 11, 4
1, 12698, Control_c, 9, 11, 3
1, 12734, Control_c, 9, 11, 5
1, 12764, Control_c, 9, 11, 4
1, 12794, Control_c, 9, 11, 4
1, 12816, Note_on_c, 3, 64, 0
1, 12816, Note_on_c, 4, 64, 0
1, 12824, Control_c, 9, 11, 3
1, 12854, Control_c, 9, 11, 3
1, 12884, Control_c, 9, 11, 2
1, 12942, Control_c, 9, 11, 48
1, 12960, Note_on_c, 5, 64, 0
1, 12960, Note_on_c, 5, 52, 0
1, 12960, Note_on_c, 7, 33, 0
1, 12960, Note_on_c, 7, 45, 0
1, 12960, Note_on_c, 8, 33, 0
1, 12960, Note_on_c, 8, 45, 0
1, 12960, Note_on_c, 3, 62, 127
1, 12960, Note_on_c, 4, 62, 127
1, 12960, Note_on_c, 7, 33, 117
1, 12960, Note_on_c, 7, 45, 117
1, 12960, Note_on_c, 8, 33, 117
1, 12960, Note_on_c, 8, 45, 117
1, 12960, Note_on_c, 9, 55, 100
1, 12960, Note_on_c, 9, 30, 100
1, 12960, Note_on_c, 9, 83, 100
1, 12970, Note_on_c, 9, 55, 0
1, 12970, Note_on_c, 9, 30, 0
1, 12970, Note_on_c, 9, 83, 0
1, 12988, Control_c, 9, 11, 102
1, 13018, Control_c, 9, 11, 102
1, 13048, Control_c, 9, 11, 101
1, 13078, Control_c, 9, 11, 101
1, 13108, Control_c, 9, 11, 100
1, 13138, Control_c, 9, 11, 100
1, 13168, Control_c, 9, 11, 99
1, 13198, Control_c, 9, 11, 99
1, 13228, Control_c, 9, 11, 98
1, 13258, Control_c, 9, 11, 98
1, 13288, Control_c, 9, 11, 97
1, 13318, Control_c, 9, 11, 97
1, 13348, Control_c, 9, 11, 96
1, 13378, Control_c, 9, 11, 95
1, 13408, Control_c, 9, 11, 95
1, 13438, Control_c, 9, 11, 94
1, 13440, Note_on_c, 9, 55, 100
1, 13440, Note_on_c, 9, 30, 100
1, 13440, Note_on_c, 9, 83, 100
1, 13450, Note_on_c, 9, 55, 0
1, 13450, Note_on_c, 9, 30, 0
1, 13450, Note_on_c, 9, 83, 0
1, 13468, Control_c, 9, 11, 94
1, 13498, Control_c, 9, 11, 93
1, 13528, Control_c, 9, 11, 93
1, 13558, Control_c, 9, 11, 92
1, 13588, Control_c, 9, 11, 92
1, 13618, Control_c, 9, 11, 91
1, 13648, Control_c, 9, 11, 91
1, 13678, Control_c, 9, 11, 90
1, 13708, Control_c, 9, 11, 90
1, 13723, Control_c, 9, 11, 95
1, 13748, Control_c, 9, 11, 91
1, 13778, Control_c, 9, 11, 89
1, 13808, Control_c, 9, 11, 87
1, 13838, Control_c, 9, 11, 85
1, 13868, Control_c, 9, 11, 83
1, 13898, Control_c, 9, 11, 81
1, 13920, Note_on_c, 7, 33, 0
1, 13920, Note_on_c, 7, 45, 0
1, 13920, Note_on_c, 8, 33, 0
1, 13920, Note_on_c, 8, 45, 0
1, 13920, Note_on_c, 7, 45, 117
1, 13920, Note_on_c, 7, 33, 117
1, 13920, Note_on_c, 8, 45, 117
1, 13920, Note_on_c, 8, 33, 117
1, 13920, Note_on_c, 9, 30, 100
1, 13920, Note_on_c, 9, 83, 100
1, 13920, Note_on_c, 9, 55, 100
1, 13928, Control_c, 9, 11, 79
1, 13930, Note_on_c, 9, 30, 0
1, 13930, Note_on_c, 9, 83, 0
1, 13930, Note_on_c, 9, 55, 0
1, 13958, Control_c, 9, 11, 77
1, 13988, Control_c, 9, 11, 74
1, 14011, Control_c, 9, 11, 70
1, 14041, Control_c, 9, 11, 69
1, 14071, Control_c, 9, 11, 67
1, 14101, Control_c, 9, 11, 66
1, 14131, Control_c, 9, 11, 64
1, 14161, Control_c, 9, 11, 63
1, 14191, Control_c, 9, 11, 61
1, 14221, Control_c, 9, 11, 59
1, 14251, Control_c, 9, 11, 58
1, 14281, Control_c, 9, 11, 56
1, 14311, Control_c, 9, 11, 55
1, 14341, Control_c, 9, 11, 53
1, 14371, Control_c, 9, 11, 51
1, 14400, Note_on_c, 7, 45, 0
1, 14400, Note_on_c, 7, 33, 0
1, 14400, Note_on_c, 8, 45, 0
1, 14400, Note_on_c, 8, 33, 0
1, 14400, Note_on_c, 5, 62, 127
1, 14400, Note_on_c, 5, 50, 127
1, 14400, Note_on_c, 7, 45, 117
1, 14400, Note_on_c, 7, 33, 117
1, 14400, Note_on_c, 8, 45, 117
1, 14400, Note_on_c, 8, 33, 117
1, 14400, Note_on_c, 9, 55, 100
1, 14400, Note_on_c, 9, 30, 100
1, 14400, Note_on_c, 9, 83, 100
1, 14401, Control_c, 9, 11, 50
1, 14410, Note_on_c, 9, 55, 0
1, 14410, Note_on_c, 9, 30, 0
1, 14410, Note_on_c, 9, 83, 0
1, 14431, Control_c, 9, 11, 48
1, 14461, Control_c, 9, 11, 47
1, 14491, Control_c, 9, 11, 45
1, 14521, Control_c, 9, 11, 43
1, 14551, Control_c, 9, 11, 42
1, 14581, Control_c, 9, 11, 40
1, 14611, Control_c, 9, 11, 39
1, 14641, Control_c, 9, 11, 37
1, 14671, Control_c, 9, 11, 35
1, 14701, Control_c, 9, 11, 34
1, 14731, Control_c, 9, 11, 32
1, 14761, Control_c, 9, 11, 31
1, 14791, Control_c, 9, 11, 29
1, 14821, Control_c, 9, 11, 27
1, 14851, Control_c, 9, 11, 26
1, 14880, Note_on_c, 9, 55, 100
1, 14880, Note_on_c, 9, 30, 100
1, 14880, Note_on_c, 9, 83, 100
1, 14881, Control_c, 9, 11, 24
1, 14890, Note_on_c, 9, 55, 0
1, 14890, Note_on_c, 9, 30, 0
1, 14890, Note_on_c, 9, 83, 0
1, 14911, Control_c, 9, 11, 23
1, 14941, Control_c, 9, 11, 21
1, 14948, Control_c, 9, 11, 19
1, 14978, Control_c, 9, 11, 19
1, 15008, Control_c, 9, 11, 18
1, 15038, Control_c, 9, 11, 17
1, 15068, Control_c, 9, 11, 16
1, 15098, Control_c, 9, 11, 16
1, 15128, Control_c, 9, 11, 15
1, 15158, Control_c, 9, 11, 14
1, 15188, Control_c, 9, 11, 13
1, 15218, Control_c, 9, 11, 12
1, 15248, Control_c, 9, 11, 12
1, 15264, Note_on_c, 5, 62, 0
1, 15264, Note_on_c, 5, 50, 0
1, 15278, Control_c, 9, 11, 11
1, 15308, Control_c, 9, 11, 10
1, 15338, Control_c, 9, 11, 9
1, 15360, Note_on_c, 7, 45, 0
1, 15360, Note_on_c, 7, 33, 0
1, 15360, Note_on_c, 8, 45, 0
1, 15360, Note_on_c, 8, 33, 0
1, 15360, Note_on_c, 5, 59, 127
1, 15360, Note_on_c, 5, 47, 127
1, 15360, Note_on_c, 7, 33, 117
1, 15360, Note_on_c, 7, 45, 117
1, 15360, Note_on_c, 8, 33, 117
1, 15360, Note_on_c, 8, 45, 117
1, 15360, Note_on_c, 9, 83, 100
1, 15360, Note_on_c, 9, 55, 100
1, 15360, Note_on_c, 9, 30, 100
1, 15368, Control_c, 9, 11, 8
1, 15370, Note_on_c, 9, 83, 0
1, 15370, Note_on_c, 9, 55, 0
1, 15370, Note_on_c, 9, 30, 0
1, 15398, Control_c, 9, 11, 8
1, 15428, Control_c, 9, 11, 7
1, 15458, Control_c, 9, 11, 6
1, 15488, Control_c, 9, 11, 5
1, 15518, Control_c, 9, 11, 4
1, 15548, Control_c, 9, 11, 4
1, 15578, Control_c, 9, 11, 3
1, 15614, Control_c, 9, 11, 5
1, 15644, Control_c, 9, 11, 4
1, 15674, Control_c, 9, 11, 4
1, 15696, Note_on_c, 3, 62, 0
1, 15696, Note_on_c, 4, 62, 0
1, 15704, Control_c, 9, 11, 3
1, 15734, Control_c, 9, 11, 3
1, 15764, Control_c, 9, 11, 2
1, 15792, Note_on_c, 5, 59, 0
1, 15792, Note_on_c, 5, 47, 0
1, 15822, Control_c, 9, 11, 48
1, 15840, Note_on_c, 7, 33, 0
1, 15840, Note_on_c, 7, 45, 0
1, 15840, Note_on_c, 8, 33, 0
1, 15840, Note_on_c, 8, 45, 0
1, 15840, Note_on_c, 3, 64, 127
1, 15840, Note_on_c, 4, 64, 127
1, 15840, Note_on_c, 5, 64, 127
1, 15840, Note_on_c, 5, 52, 127
1, 15840, Note_on_c, 7, 45, 117
1, 15840, Note_on_c, 7, 33, 117
1, 15840, Note_on_c, 8, 45, 117
1, 15840, Note_on_c, 8, 33, 117
1, 15840, Note_on_c, 9, 55, 100
1, 15840, Note_on_c, 9, 30, 100
1, 15840, Note_on_c, 9, 83, 100
1, 15850, Note_on_c, 9, 55, 0
1, 15850, Note_on_c, 9, 30, 0
1, 15850, Note_on_c, 9, 83, 0
1, 15868, Control_c, 9, 11, 102
1, 15898, Control_c, 9, 11, 102
1, 15928, Control_c, 9, 11, 101
1, 15958, Control_c, 9, 11, 101
1, 15988, Control_c, 9, 11, 100
1, 16018, Control_c, 9, 11, 100
1, 16048, Control_c, 9, 11, 99
1, 16078, Control_c, 9, 11, 99
1, 16108, Control_c, 9, 11, 98
1, 16138, Control_c, 9, 11, 98
1, 16168, Control_c, 9, 11, 97
1, 16198, Control_c, 9, 11, 97
1, 16228, Control_c, 9, 11, 96
1, 16258, Control_c, 9, 11, 95
1, 16288, Control_c, 9, 11, 95
1, 16318, Control_c, 9, 11, 94
1, 16320, Note_on_c, 9, 55, 100
1, 16320, Note_on_c, 9, 30, 100
1, 16320, Note_on_c, 9, 83, 100
1, 16330, Note_on_c, 9, 55, 0
1, 16330, Note_on_c, 9, 30, 0
1, 16330, Note_on_c, 9, 83, 0
1, 16348, Control_c, 9, 11, 94
1, 16378, Control_c, 9, 11, 93
1, 16408, Control_c, 9, 11, 93
1, 16438, Control_c, 9, 11, 92
1, 16468, Control_c, 9, 11, 92
1, 16498, Control_c, 9, 11, 91
1, 16528, Control_c, 9, 11, 91
1, 16558, Control_c, 9, 11, 90
1, 16588, Control_c, 9, 11, 90
1, 16603, Control_c, 9, 11, 95
1, 16628, Control_c, 9, 11, 91
1, 16658, Control_c, 9, 11, 89
1, 16688, Control_c, 9, 11, 87
1, 16718, Control_c, 9, 11, 85
1, 16748, Control_c, 9, 11, 83
1, 16778, Control_c, 9, 11, 81
1, 16800, Note_on_c, 7, 45, 0
1, 16800, Note_on_c, 7, 33, 0
1, 16800, Note_on_c, 8, 45, 0
1, 16800, Note_on_c, 8, 33, 0
1, 16800, Note_on_c, 7, 45, 117
1, 16800, Note_on_c, 7, 33, 117
1, 16800, Note_on_c, 8, 45, 117
1, 16800, Note_on_c, 8, 33, 117
1, 16800, Note_on_c, 9, 30, 100
1, 16800, Note_on_c, 9, 83, 100
1, 16800, Note_on_c, 9, 55, 100
1, 16808, Control_c, 9, 11, 79
1, 16810, Note_on_c, 9, 30, 0
1, 16810, Note_on_c, 9, 83, 0
1, 16810, Note_on_c, 9, 55, 0
1, 16838, Control_c, 9, 11, 77
1, 16868, Control_c, 9, 11, 74
1, 16891, Control_c, 9, 11, 70
1, 16921, Control_c, 9, 11, 69
1, 16951, Control_c, 9, 11, 67
1, 16981, Control_c, 9, 11, 66
1, 17011, Control_c, 9, 11, 64
1, 17041, Control_c, 9, 11, 63
1, 17071, Control_c, 9, 11, 61
1, 17101, Control_c, 9, 11, 59
1, 17131, Control_c, 9, 11, 58
1, 17161, Control_c, 9, 11, 56
1, 17191, Control_c, 9, 11, 55
1, 17221, Control_c, 9, 11, 53
1, 17251, Control_c, 9, 11, 51
1, 17280, Note_on_c, 7, 45, 0
1, 17280, Note_on_c, 7, 33, 0
1, 17280, Note_on_c, 8, 45, 0
1, 17280, Note_on_c, 8, 33, 0
1, 17280, Note_on_c, 7, 45, 117
1, 17280, Note_on_c, 7, 33, 117
1, 17280, Note_on_c, 8, 45, 117
1, 17280, Note_on_c, 8, 33, 117
1, 17280, Note_on_c, 9, 55, 100
1, 17280, Note_on_c, 9, 30, 100
1, 17280, Note_on_c, 9, 83, 100
1, 17281, Control_c, 9, 11, 50
1, 17290, Note_on_c, 9, 55, 0
1, 17290, Note_on_c, 9, 30, 0
1, 17290, Note_on_c, 9, 83, 0
1, 17311, Control_c, 9, 11, 48
1, 17341, Control_c, 9, 11, 47
1, 17371, Control_c, 9, 11, 45
1, 17401, Control_c, 9, 11, 43
1, 17431, Control_c, 9, 11, 42
1, 17461, Control_c, 9, 11, 40
1, 17491, Control_c, 9, 11, 39
1, 17521, Control_c, 9, 11, 37
1, 17551, Control_c, 9, 11, 35
1, 17581, Control_c, 9, 11, 34
1, 17611, Control_c, 9, 11, 32
1, 17641, Control_c, 9, 11, 31
1, 17671, Control_c, 9, 11, 29
1, 17701, Control_c, 9, 11, 27
1, 17731, Control_c, 9, 11, 26
1, 17760, Note_on_c, 9, 55, 100
1, 17760, Note_on_c, 9, 30, 100
1, 17760, Note_on_c, 9, 83, 100
1, 17761, Control_c, 9, 11, 24
1, 17770, Note_on_c, 9, 55, 0
1, 17770, Note_on_c, 9, 30, 0
1, 17770, Note_on_c, 9, 83, 0
1, 17791, Control_c, 9, 11, 23
1, 17821, Control_c, 9, 11, 21
1, 17828, Control_c, 9, 11, 19
1, 17858, Control_c, 9, 11, 19
1, 17888, Control_c, 9, 11, 18
1, 17918, Control_c, 9, 11, 17
1, 17948, Control_c, 9, 11, 16
1, 17978, Control_c, 9, 11, 16
1, 18008, Control_c, 9, 11, 15
1, 18038, Control_c, 9, 11, 14
1, 18068, Control_c, 9, 11, 13
1, 18098, Control_c, 9, 11, 12
1, 18128, Control_c, 9, 11, 12
1, 18158, Control_c, 9, 11, 11
1, 18188, Control_c, 9, 11, 10
1, 18218, Control_c, 9, 11, 9
1, 18240, Note_on_c, 7, 45, 0
1, 18240, Note_on_c, 7, 33, 0
1, 18240, Note_on_c, 8, 45, 0
1, 18240, Note_on_c, 8, 33, 0
1, 18240, Note_on_c, 7, 33, 117
1, 18240, Note_on_c, 7, 45, 117
1, 18240, Note_on_c, 8, 33, 117
1, 18240, Note_on_c, 8, 45, 117
1, 18240, Note_on_c, 9, 83, 100
1, 18240, Note_on_c, 9, 55, 100
1, 18240, Note_on_c, 9, 30, 100
1, 18248, Control_c, 9, 11, 8
1, 18250, Note_on_c, 9, 83, 0
1, 18250, Note_on_c, 9, 55, 0
1, 18250, Note_on_c, 9, 30, 0
1, 18278, Control_c, 9, 11, 8
1, 18308, Control_c, 9, 11, 7
1, 18338, Control_c, 9, 11, 6
1, 18368, Control_c, 9, 11, 5
1, 18398, Control_c, 9, 11, 4
1, 18428, Control_c, 9, 11, 4
1, 18458, Control_c, 9, 11, 3
1, 18494, Control_c, 9, 11, 5
1, 18524, Control_c, 9, 11, 4
1, 18554, Control_c, 9, 11, 4
1, 18576, Note_on_c, 3, 64, 0
1, 18576, Note_on_c, 4, 64, 0
1, 18576, Note_on_c, 5, 64, 0
1, 18576, Note_on_c, 5, 52, 0
1, 18584, Control_c, 9, 11, 3
1, 18614, Control_c, 9, 11, 3
1, 18644, Control_c, 9, 11, 2
1, 18702, Control_c, 9, 11, 48
1, 18720, Note_on_c, 7, 33, 0
1, 18720, Note_on_c, 7, 45, 0
1, 18720, Note_on_c, 8, 33, 0
1, 18720, Note_on_c, 8, 45, 0
1, 18720, Note_on_c, 3, 62, 100
1, 18720, Note_on_c, 4, 62, 100
1, 18720, Note_on_c, 5, 50, 100
1, 18720, Note_on_c, 5, 57, 100
1, 18720, Note_on_c, 5, 62, 100
1, 18720, Note_on_c, 7, 43, 117
1, 18720, Note_on_c, 7, 31, 117
1, 18720, Note_on_c, 8, 43, 117
1, 18720, Note_on_c, 8, 31, 117
1, 18720, Note_on_c, 9, 55, 100
1, 18720, Note_on_c, 9, 30, 100
1, 18720, Note_on_c, 9, 83, 100
1, 18730, Note_on_c, 9, 55, 0
1, 18730, Note_on_c, 9, 30, 0
1, 18730, Note_on_c, 9, 83, 0
1, 18748, Control_c, 9, 11, 102
1, 18778, Control_c, 9, 11, 102
1, 18808, Control_c, 9, 11, 101
1, 18838, Control_c, 9, 11, 101
1, 18868, Control_c, 9, 11, 100
1, 18898, Control_c, 9, 11, 100
1, 18928, Control_c, 9, 11, 99
1, 18958, Control_c, 9, 11, 99
1, 18988, Control_c, 9, 11, 98
1, 19018, Control_c, 9, 11, 98
1, 19048, Control_c, 9, 11, 97
1, 19078, Control_c, 9, 11, 97
1, 19108, Control_c, 9, 11, 96
1, 19138, Control_c, 9, 11, 95
1, 19168, Control_c, 9, 11, 95
1, 19198, Control_c, 9, 11, 94
1, 19200, Note_on_c, 9, 55, 100
1, 19200, Note_on_c, 9, 30, 100
1, 19200, Note_on_c, 9, 83, 100
1, 19210, Note_on_c, 9, 55, 0
1, 19210, Note_on_c, 9, 30, 0
1, 19210, Note_on_c, 9, 83, 0
1, 19228, Control_c, 9, 11, 94
1, 19258, Control_c, 9, 11, 93
1, 19288, Control_c, 9, 11, 93
1, 19318, Control_c, 9, 11, 92
1, 19348, Control_c, 9, 11, 92
1, 19378, Control_c, 9, 11, 91
1, 19408, Control_c, 9, 11, 91
1, 19438, Control_c, 9, 11, 90
1, 19468, Control_c, 9, 11, 90
1, 19483, Control_c, 9, 11, 95
1, 19508, Control_c, 9, 11, 91
1, 19538, Control_c, 9, 11, 89
1, 19568, Control_c, 9, 11, 87
1, 19598, Control_c, 9, 11, 85
1, 19628, Control_c, 9, 11, 83
1, 19658, Control_c, 9, 11, 81
1, 19680, Note_on_c, 7, 43, 0
1, 19680, Note_on_c, 7, 31, 0
1, 19680, Note_on_c, 8, 43, 0
1, 19680, Note_on_c, 8, 31, 0
1, 19680, Note_on_c, 7, 31, 117
1, 19680, Note_on_c, 7, 43, 117
1, 19680, Note_on_c, 8, 31, 117
1, 19680, Note_on_c, 8, 43, 117
1, 19680, Note_on_c, 9, 30, 100
1, 19680, Note_on_c, 9, 83, 100
1, 19680, Note_on_c, 9, 55, 100
1, 19688, Control_c, 9, 11, 79
1, 19690, Note_on_c, 9, 30, 0
1, 19690, Note_on_c, 9, 83, 0
1, 19690, Note_on_c, 9, 55, 0
1, 19718, Control_c, 9, 11, 77
1, 19748, Control_c, 9, 11, 74
1, 19771, Control_c, 9, 11, 70
1, 19801, Control_c, 9, 11, 69
1, 19831, Control_c, 9, 11, 67
1, 19861, Control_c, 9, 11, 66
1, 19891, Control_c, 9, 11, 64
1, 19921, Control_c, 9, 11, 63
1, 19951, Control_c, 9, 11, 61
1, 19981, Control_c, 9, 11, 59
1, 20011, Control_c, 9, 11, 58
1, 20016, Note_on_c, 3, 62, 0
1, 20016, Note_on_c, 4, 62, 0
1, 20016, Note_on_c, 5, 50, 0
1, 20016, Note_on_c, 5, 57, 0
1, 20016, Note_on_c, 5, 62, 0
1, 20041, Control_c, 9, 11, 56
1, 20071, Control_c, 9, 11, 55
1, 20101, Control_c, 9, 11, 53
1, 20131, Control_c, 9, 11, 51
1, 20160, Note_on_c, 7, 31, 0
1, 20160, Note_on_c, 7, 43, 0
1, 20160, Note_on_c, 8, 31, 0
1, 20160, Note_on_c, 8, 43, 0
1, 20160, Note_on_c, 3, 60, 100
1, 20160, Note_on_c, 4, 60, 100
1, 20160, Note_on_c, 5, 60, 100
1, 20160, Note_on_c, 5, 50, 100
1, 20160, Note_on_c, 5, 57, 100
1, 20160, Note_on_c, 6, 69, 100
1, 20160, Note_on_c, 7, 43, 117
1, 20160, Note_on_c, 7, 31, 117
1, 20160, Note_on_c, 8, 43, 117
1, 20160, Note_on_c, 8, 31, 117
1, 20160, Note_on_c, 9, 55, 100
1, 20160, Note_on_c, 9, 30, 100
1, 20160, Note_on_c, 9, 83, 100
1, 20161, Control_c, 9, 11, 50
1, 20170, Note_on_c, 9, 55, 0
1, 20170, Note_on_c, 9, 30, 0
1, 20170, Note_on_c, 9, 83, 0
1, 20191, Control_c, 9, 11, 48
1, 20221, Control_c, 9, 11, 47
1, 20251, Control_c, 9, 11, 45
1, 20281, Control_c, 9, 11, 43
1, 20311, Control_c, 9, 11, 42
1, 20341, Control_c, 9, 11, 40
1, 20371, Control_c, 9, 11, 39
1, 20401, Control_c, 9, 11, 37
1, 20431, Control_c, 9, 11, 35
1, 20461, Control_c, 9, 11, 34
1, 20491, Control_c, 9, 11, 32
1, 20521, Control_c, 9, 11, 31
1, 20551, Control_c, 9, 11, 29
1, 20581, Control_c, 9, 11, 27
1, 20611, Control_c, 9, 11, 26
1, 20640, Note_on_c, 9, 83, 100
1, 20640, Note_on_c, 9, 55, 100
1, 20640, Note_on_c, 9, 30, 100
1, 20641, Control_c, 9, 11, 24
1, 20650, Note_on_c, 9, 83, 0
1, 20650, Note_on_c, 9, 55, 0
1, 20650, Note_on_c, 9, 30, 0
1, 20671, Control_c, 9, 11, 23
1, 20701, Control_c, 9, 11, 21
1, 20708, Control_c, 9, 11, 19
1, 20738, Control_c, 9, 11, 19
1, 20768, Control_c, 9, 11, 18
1, 20798, Control_c, 9, 11, 17
1, 20828, Control_c, 9, 11, 16
1, 20858, Control_c, 9, 11, 16
1, 20888, Control_c, 9, 11, 15
1, 20918, Control_c, 9, 11, 14
1, 20948, Control_c, 9, 11, 13
1, 20978, Control_c, 9, 11, 12
1, 21008, Control_c, 9, 11, 12
1, 21038, Control_c, 9, 11, 11
1, 21068, Control_c, 9, 11, 10
1, 21098, Control_c, 9, 11, 9
1, 21120, Note_on_c, 7, 43, 0
1, 21120, Note_on_c, 7, 31, 0
1, 21120, Note_on_c, 8, 43, 0
1, 21120, Note_on_c, 8, 31, 0
1, 21120, Note_on_c, 7, 31, 117
1, 21120, Note_on_c, 7, 43, 117
1, 21120, Note_on_c, 8, 31, 117
1, 21120, Note_on_c, 8, 43, 117
1, 21120, Note_on_c, 9, 30, 100
1, 21120, Note_on_c, 9, 83, 100
1, 21120, Note_on_c, 9, 55, 100
1, 21128, Control_c, 9, 11, 8
1, 21130, Note_on_c, 9, 30, 0
1, 21130, Note_on_c, 9, 83, 0
1, 21130, Note_on_c, 9, 55, 0
1, 21158, Control_c, 9, 11, 8
1, 21188, Control_c, 9, 11, 7
1, 21218, Control_c, 9, 11, 6
1, 21248, Control_c, 9, 11, 5
1, 21278, Control_c, 9, 11, 4
1, 21308, Control_c, 9, 11, 4
1, 21338, Control_c, 9, 11, 3
1, 21374, Control_c, 9, 11, 5
1, 21404, Control_c, 9, 11, 4
1, 21434, Control_c, 9, 11, 4
1, 21456, Note_on_c, 3, 60, 0
1, 21456, Note_on_c, 4, 60, 0
1, 21456, Note_on_c, 5, 60, 0
1, 21456, Note_on_c, 5, 50, 0
1, 21456, Note_on_c, 5, 57, 0
1, 21456, Note_on_c, 6, 69, 0
1, 21464, Control_c, 9, 11, 3
1, 21494, Control_c, 9, 11, 3
1, 21524, Control_c, 9, 11, 2
1, 21582, Control_c, 9, 11, 48
1, 21600, Note_on_c, 7, 31, 0
1, 21600, Note_on_c, 7, 43, 0
1, 21600, Note_on_c, 8, 31, 0
1, 21600, Note_on_c, 8, 43, 0
1, 21600, Note_on_c, 3, 59, 100
1, 21600, Note_on_c, 4, 59, 100
1, 21600, Note_on_c, 5, 59, 100
1, 21600, Note_on_c, 5, 57, 100
1, 21600, Note_on_c, 5, 50, 100
1, 21600, Note_on_c, 7, 31, 117
1, 21600, Note_on_c, 7, 43, 117
1, 21600, Note_on_c, 8, 31, 117
1, 21600, Note_on_c, 8, 43, 117
1, 21600, Note_on_c, 9, 55, 100
1, 21600, Note_on_c, 9, 30, 100
1, 21600, Note_on_c, 9, 83, 100
1, 21610, Note_on_c, 9, 55, 0
1, 21610, Note_on_c, 9, 30, 0
1, 21610, Note_on_c, 9, 83, 0
1, 21628, Control_c, 9, 11, 102
1, 21658, Control_c, 9, 11, 102
1, 21688, Control_c, 9, 11, 101
1, 21718, Control_c, 9, 11, 101
1, 21748, Control_c, 9, 11, 100
1, 21778, Control_c, 9, 11, 100
1, 21808, Control_c, 9, 11, 99
1, 21838, Control_c, 9, 11, 99
1, 21868, Control_c, 9, 11, 98
1, 21898, Control_c, 9, 11, 98
1, 21928, Control_c, 9, 11, 97
1, 21958, Control_c, 9, 11, 97
1, 21988, Control_c, 9, 11, 96
1, 22018, Control_c, 9, 11, 95
1, 22048, Control_c, 9, 11, 95
1, 22078, Control_c, 9, 11, 94
1, 22080, Note_on_c, 9, 83, 100
1, 22080, Note_on_c, 9, 55, 100
1, 22080, Note_on_c, 9, 30, 100
1, 22090, Note_on_c, 9, 83, 0
1, 22090, Note_on_c, 9, 55, 0
1, 22090, Note_on_c, 9, 30, 0
1, 22108, Control_c, 9, 11, 94
1, 22138, Control_c, 9, 11, 93
1, 22168, Control_c, 9, 11, 93
1, 22198, Control_c, 9, 11, 92
1, 22228, Control_c, 9, 11, 92
1, 22258, Control_c, 9, 11, 91
1, 22288, Control_c, 9, 11, 91
1, 22318, Control_c, 9, 11, 90
1, 22348, Control_c, 9, 11, 90
1, 22363, Control_c, 9, 11, 95
1, 22388, Control_c, 9, 11, 91
1, 22418, Control_c, 9, 11, 89
1, 22448, Control_c, 9, 11, 87
1, 22478, Control_c, 9, 11, 85
1, 22508, Control_c, 9, 11, 83
1, 22538, Control_c, 9, 11, 81
1, 22560, Note_on_c, 7, 31, 0
1, 22560, Note_on_c, 7, 43, 0
1, 22560, Note_on_c, 8, 31, 0
1, 22560, Note_on_c, 8, 43, 0
1, 22560, Note_on_c, 7, 43, 117
1, 22560, Note_on_c, 7, 31, 117
1, 22560, Note_on_c, 8, 43, 117
1, 22560, Note_on_c, 8, 31, 117
1, 22560, Note_on_c, 9, 55, 100
1, 22560, Note_on_c, 9, 30, 100
1, 22560, Note_on_c, 9, 83, 100
1, 22568, Control_c, 9, 11, 79
1, 22570, Note_on_c, 9, 55, 0
1, 22570, Note_on_c, 9, 30, 0
1, 22570, Note_on_c, 9, 83, 0
1, 22598, Control_c, 9, 11, 77
1, 22628, Control_c, 9, 11, 74
1, 22651, Control_c, 9, 11, 70
1, 22681, Control_c, 9, 11, 69
1, 22711, Control_c, 9, 11, 67
1, 22741, Control_c, 9, 11, 66
1, 22771, Control_c, 9, 11, 64
1, 22801, Control_c, 9, 11, 63
1, 22831, Control_c, 9, 11, 61
1, 22861, Control_c, 9, 11, 59
1, 22891, Control_c, 9, 11, 58
1, 22896, Note_on_c, 3, 59, 0
1, 22896, Note_on_c, 4, 59, 0
1, 22896, Note_on_c, 5, 59, 0
1, 22896, Note_on_c, 5, 57, 0
1, 22896, Note_on_c, 5, 50, 0
1, 22921, Control_c, 9, 11, 56
1, 22951, Control_c, 9, 11, 55
1, 22981, Control_c, 9, 11, 53
1, 23011, Control_c, 9, 11, 51
1, 23040, Note_on_c, 7, 43, 0
1, 23040, Note_on_c, 7, 31, 0
1, 23040, Note_on_c, 8, 43, 0
1, 23040, Note_on_c, 8, 31, 0
1, 23040, Note_on_c, 3, 60, 100
1, 23040, Note_on_c, 4, 60, 100
1, 23040, Note_on_c, 5, 60, 100
1, 23040, Note_on_c, 5, 50, 100
1, 23040, Note_on_c, 5, 57, 100
1, 23040, Note_on_c, 6, 69, 100
1, 23040, Note_on_c, 7, 43, 117
1, 23040, Note_on_c, 7, 31, 117
1, 23040, Note_on_c, 8, 43, 117
1, 23040, Note_on_c, 8, 31, 117
1, 23040, Note_on_c, 9, 83, 100
1, 23040, Note_on_c, 9, 55, 100
1, 23040, Note_on_c, 9, 30, 100
1, 23041, Control_c, 9, 11, 50
1, 23050, Note_on_c, 9, 83, 0
1, 23050, Note_on_c, 9, 55, 0
1, 23050, Note_on_c, 9, 30, 0
1, 23071, Control_c, 9, 11, 48
1, 23101, Control_c, 9, 11, 47
1, 23131, Control_c, 9, 11, 45
1, 23161, Control_c, 9, 11, 43
1, 23191, Control_c, 9, 11, 42
1, 23221, Control_c, 9, 11, 40
1, 23251, Control_c, 9, 11, 39
1, 23281, Control_c, 9, 11, 37
1, 23311, Control_c, 9, 11, 35
1, 23341, Control_c, 9, 11, 34
1, 23371, Control_c, 9, 11, 32
1, 23401, Control_c, 9, 11, 31
1, 23431, Control_c, 9, 11, 29
1, 23461, Control_c, 9, 11, 27
1, 23491, Control_c, 9, 11, 26
1, 23520, Note_on_c, 9, 83, 100
1, 23520, Note_on_c, 9, 55, 100
1, 23520, Note_on_c, 9, 30, 100
1, 23521, Control_c, 9, 11, 24
1, 23530, Note_on_c, 9, 83, 0
1, 23530, Note_on_c, 9, 55, 0
1, 23530, Note_on_c, 9, 30, 0
1, 23551, Control_c, 9, 11, 23
1, 23581, Control_c, 9, 11, 21
1, 23588, Control_c, 9, 11, 19
1, 23618, Control_c, 9, 11, 19
1, 23648, Control_c, 9, 11, 18
1, 23678, Control_c, 9, 11, 17
1, 23708, Control_c, 9, 11, 16
1, 23738, Control_c, 9, 11, 16
1, 23768, Control_c, 9, 11, 15
1, 23798, Control_c, 9, 11, 14
1, 23828, Control_c, 9, 11, 13
1, 23858, Control_c, 9, 11, 12
1, 23888, Control_c, 9, 11, 12
1, 23918, Control_c, 9, 11, 11
1, 23948, Control_c, 9, 11, 10
1, 23978, Control_c, 9, 11, 9
1, 24000, Note_on_c, 7, 43, 0
1, 24000, Note_on_c, 7, 31, 0
1, 24000, Note_on_c, 8, 43, 0
1, 24000, Note_on_c, 8, 31, 0
1, 24000, Note_on_c, 7, 43, 117
1, 24000, Note_on_c, 7, 31, 117
1, 24000, Note_on_c, 8, 43, 117
1, 24000, Note_on_c, 8, 31, 117
1, 24000, Note_on_c, 9, 55, 100
1, 24000, Note_on_c, 9, 30, 100
1, 24000, Note_on_c, 9, 83, 100
1, 24008, Control_c, 9, 11, 8
1, 24010, Note_on_c, 9, 55, 0
1, 24010, Note_on_c, 9, 30, 0
1, 24010, Note_on_c, 9, 83, 0
1, 24038, Control_c, 9, 11, 8
1, 24068, Control_c, 9, 11, 7
1, 24098, Control_c, 9, 11, 6
1, 24128, Control_c, 9, 11, 5
1, 24158, Control_c, 9, 11, 4
1, 24188, Control_c, 9, 11, 4
1, 24218, Control_c, 9, 11, 3
1, 24254, Control_c, 9, 11, 5
1, 24284, Control_c, 9, 11, 4
1, 24314, Control_c, 9, 11, 4
1, 24336, Note_on_c, 3, 60, 0
1, 24336, Note_on_c, 4, 60, 0
1, 24336, Note_on_c, 5, 60, 0
1, 24336, Note_on_c, 5, 50, 0
1, 24336, Note_on_c, 5, 57, 0
1, 24336, Note_on_c, 6, 69, 0
1, 24344, Control_c, 9, 11, 3
1, 24374, Control_c, 9, 11, 3
1, 24404, Control_c, 9, 11, 2
1, 24462, Control_c, 9, 11, 48
1, 24480, Note_on_c, 7, 43, 0
1, 24480, Note_on_c, 7, 31, 0
1, 24480, Note_on_c, 8, 43, 0
1, 24480, Note_on_c, 8, 31, 0
1, 24480, Note_on_c, 3, 62, 100
1, 24480, Note_on_c, 4, 62, 100
1, 24480, Note_on_c, 5, 50, 100
1, 24480, Note_on_c, 5, 57, 100
1, 24480, Note_on_c, 5, 62, 100
1, 24480, Note_on_c, 7, 43, 117
1, 24480, Note_on_c, 7, 31, 117
1, 24480, Note_on_c, 8, 43, 117
1, 24480, Note_on_c, 8, 31, 117
1, 24480, Note_on_c, 9, 55, 100
1, 24480, Note_on_c, 9, 30, 100
1, 24480, Note_on_c, 9, 83, 100
1, 24490, Note_on_c, 9, 55, 0
1, 24490, Note_on_c, 9, 30, 0
1, 24490, Note_on_c, 9, 83, 0
1, 24508, Control_c, 9, 11, 102
1, 24538, Control_c, 9, 11, 102
1, 24568, Control_c, 9, 11, 101
1, 24598, Control_c, 9, 11, 101
1, 24628, Control_c, 9, 11, 100
1, 24658, Control_c, 9, 11, 100
1, 24688, Control_c, 9, 11, 99
1, 24718, Control_c, 9, 11, 99
1, 24748, Control_c, 9, 11, 98
1, 24778, Control_c, 9, 11, 98
1, 24808, Control_c, 9, 11, 97
1, 24838, Control_c, 9, 11, 97
1, 24868, Control_c, 9, 11, 96
1, 24898, Control_c, 9, 11, 95
1, 24928, Control_c, 9, 11, 95
1, 24958, Control_c, 9, 11, 94
1, 24960, Note_on_c, 9, 55, 100
1, 24960, Note_on_c, 9, 30, 100
1, 24960, Note_on_c, 9, 83, 100
1, 24970, Note_on_c, 9, 55, 0
1, 24970, Note_on_c, 9, 30, 0
1, 24970, Note_on_c, 9, 83, 0
1, 24988, Control_c, 9, 11, 94
1, 25018, Control_c, 9, 11, 93
1, 25048, Control_c, 9, 11, 93
1, 25078, Control_c, 9, 11, 92
1, 25108, Control_c, 9, 11, 92
1, 25138, Control_c, 9, 11, 91
1, 25168, Control_c, 9, 11, 91
1, 25198, Control_c, 9, 11, 90
1, 25228, Control_c, 9, 11, 90
1, 25243, Control_c, 9, 11, 95
1, 25268, Control_c, 9, 11, 91
1, 25298, Control_c, 9, 11, 89
1, 25328, Control_c, 9, 11, 87
1, 25358, Control_c, 9, 11, 85
1, 25388, Control_c, 9, 11, 83
1, 25418, Control_c, 9, 11, 81
1, 25440, Note_on_c, 7, 43, 0
1, 25440, Note_on_c, 7, 31, 0
1, 25440, Note_on_c, 8, 43, 0
1, 25440, Note_on_c, 8, 31, 0
1, 25440, Note_on_c, 7, 31, 117
1, 25440, Note_on_c, 7, 43, 117
1, 25440, Note_on_c, 8, 31, 117
1, 25440, Note_on_c, 8, 43, 117
1, 25440, Note_on_c, 9, 30, 100
1, 25440, Note_on_c, 9, 83, 100
1, 25440, Note_on_c, 9, 55, 100
1, 25448, Control_c, 9, 11, 79
1, 25450, Note_on_c, 9, 30, 0
1, 25450, Note_on_c, 9, 83, 0
1, 25450, Note_on_c, 9, 55, 0
1, 25478, Control_c, 9, 11, 77
1, 25508, Control_c, 9, 11, 74
1, 25531, Control_c, 9, 11, 70
1, 25561, Control_c, 9, 11, 69
1, 25591, Control_c, 9, 11, 67
1, 25621, Control_c, 9, 11, 66
1, 25651, Control_c, 9, 11, 64
1, 25681, Control_c, 9, 11, 63
1, 25711, Control_c, 9, 11, 61
1, 25741, Control_c, 9, 11, 59
1, 25771, Control_c, 9, 11, 58
1, 25776, Note_on_c, 3, 62, 0
1, 25776, Note_on_c, 4, 62, 0
1, 25776, Note_on_c, 5, 50, 0
1, 25776, Note_on_c, 5, 57, 0
1, 25776, Note_on_c, 5, 62, 0
1, 25801, Control_c, 9, 11, 56
1, 25831, Control_c, 9, 11, 55
1, 25861, Control_c, 9, 11, 53
1, 25891, Control_c, 9, 11, 51
1, 25920, Note_on_c, 7, 31, 0
1, 25920, Note_on_c, 7, 43, 0
1, 25920, Note_on_c, 8, 31, 0
1, 25920, Note_on_c, 8, 43, 0
1, 25920, Note_on_c, 3, 60, 100
1, 25920, Note_on_c, 4, 60, 100
1, 25920, Note_on_c, 5, 60, 100
1, 25920, Note_on_c, 5, 50, 100
1, 25920, Note_on_c, 5, 57, 100
1, 25920, Note_on_c, 6, 69, 100
1, 25920, Note_on_c, 7, 43, 117
1, 25920, Note_on_c, 7, 31, 117
1, 25920, Note_on_c, 8, 43, 117
1, 25920, Note_on_c, 8, 31, 117
1, 25920, Note_on_c, 9, 55, 100
1, 25920, Note_on_c, 9, 30, 100
1, 25920, Note_on_c, 9, 83, 100
1, 25921, Control_c, 9, 11, 50
1, 25930, Note_on_c, 9, 55, 0
1, 25930, Note_on_c, 9, 30, 0
1, 25930, Note_on_c, 9, 83, 0
1, 25951, Control_c, 9, 11, 48
1, 25981, Control_c, 9, 11, 47
1, 26011, Control_c, 9, 11, 45
1, 26041, Control_c, 9, 11, 43
1, 26071, Control_c, 9, 11, 42
1, 26101, Control_c, 9, 11, 40
1, 26131, Control_c, 9, 11, 39
1, 26161, Control_c, 9, 11, 37
1, 26191, Control_c, 9, 11, 35
1, 26221, Control_c, 9, 11, 34
1, 26251, Control_c, 9, 11, 32
1, 26281, Control_c, 9, 11, 31
1, 26311, Control_c, 9, 11, 29
1, 26341, Control_c, 9, 11, 27
1, 26371, Control_c, 9, 11, 26
1, 26400, Note_on_c, 9, 83, 100
1, 26400, Note_on_c, 9, 55, 100
1, 26400, Note_on_c, 9, 30, 100
1, 26401, Control_c, 9, 11, 24
1, 26410, Note_on_c, 9, 83, 0
1, 26410, Note_on_c, 9, 55, 0
1, 26410, Note_on_c, 9, 30, 0
1, 26431, Control_c, 9, 11, 23
1, 26461, Control_c, 9, 11, 21
1, 26468, Control_c, 9, 11, 19
1, 26498, Control_c, 9, 11, 19
1, 26528, Control_c, 9, 11, 18
1, 26558, Control_c, 9, 11, 17
1, 26588, Control_c, 9, 11, 16
1, 26618, Control_c, 9, 11, 16
1, 26648, Control_c, 9, 11, 15
1, 26678, Control_c, 9, 11, 14
1, 26708, Control_c, 9, 11, 13
1, 26738, Control_c, 9, 11, 12
1, 26768, Control_c, 9, 11, 12
1, 26798, Control_c, 9, 11, 11
1, 26828, Control_c, 9, 11, 10
1, 26858, Control_c, 9, 11, 9
1, 26880, Note_on_c, 7, 43, 0
1, 26880, Note_on_c, 7, 31, 0
1, 26880, Note_on_c, 8, 43, 0
1, 26880, Note_on_c, 8, 31, 0
1, 26880, Note_on_c, 7, 31, 117
1, 26880, Note_on_c, 7, 43, 117
1, 26880, Note_on_c, 8, 31, 117
1, 26880, Note_on_c, 8, 43, 117
1, 26880, Note_on_c, 9, 30, 100
1, 26880, Note_on_c, 9, 83, 100
1, 26880, Note_on_c, 9, 55, 100
1, 26888, Control_c, 9, 11, 8
1, 26890, Note_on_c, 9, 30, 0
1, 26890, Note_on_c, 9, 83, 0
1, 26890, Note_on_c, 9, 55, 0
1, 26918, Control_c, 9, 11, 8
1, 26948, Control_c, 9, 11, 7
1, 26978, Control_c, 9, 11, 6
1, 27008, Control_c, 9, 11, 5
1, 27038, Control_c, 9, 11, 4
1, 27068, Control_c, 9, 11, 4
1, 27098, Control_c, 9, 11, 3
1, 27134, Control_c, 9, 11, 5
1, 27164, Control_c, 9, 11, 4
1, 27194, Control_c, 9, 11, 4
1, 27216, Note_on_c, 3, 60, 0
1, 27216, Note_on_c, 4, 60, 0
1, 27216, Note_on_c, 5, 60, 0
1, 27216, Note_on_c, 5, 50, 0
1, 27216, Note_on_c, 5, 57, 0
1, 27216, Note_on_c, 6, 69, 0
1, 27224, Control_c, 9, 11, 3
1, 27254, Control_c, 9, 11, 3
1, 27284, Control_c, 9, 11, 2
1, 27342, Control_c, 9, 11, 48
1, 27360, Note_on_c, 7, 31, 0
1, 27360, Note_on_c, 7, 43, 0
1, 27360, Note_on_c, 8, 31, 0
1, 27360, Note_on_c, 8, 43, 0
1, 27360, Note_on_c, 3, 59, 100
1, 27360, Note_on_c, 4, 59, 100
1, 27360, Note_on_c, 5, 59, 100
1, 27360, Note_on_c, 5, 57, 100
1, 27360, Note_on_c, 5, 50, 100
1, 27360, Note_on_c, 7, 31, 117
1, 27360, Note_on_c, 7, 43, 117
1, 27360, Note_on_c, 8, 31, 117
1, 27360, Note_on_c, 8, 43, 117
1, 27360, Note_on_c, 9, 55, 100
1, 27360, Note_on_c, 9, 30, 100
1, 27360, Note_on_c, 9, 83, 100
1, 27370, Note_on_c, 9, 55, 0
1, 27370, Note_on_c, 9, 30, 0
1, 27370, Note_on_c, 9, 83, 0
1, 27388, Control_c, 9, 11, 102
1, 27418, Control_c, 9, 11, 102
1, 27448, Control_c, 9, 11, 101
1, 27478, Control_c, 9, 11, 101
1, 27508, Control_c, 9, 11, 100
1, 27538, Control_c, 9, 11, 100
1, 27568, Control_c, 9, 11, 99
1, 27598, Control_c, 9, 11, 99
1, 27628, Control_c, 9, 11, 98
1, 27658, Control_c, 9, 11, 98
1, 27688, Control_c, 9, 11, 97
1, 27718, Control_c, 9, 11, 97
1, 27748, Control_c, 9, 11, 96
1, 27778, Control_c, 9, 11, 95
1, 27808, Control_c, 9, 11, 95
1, 27838, Control_c, 9, 11, 94
1, 27840, Note_on_c, 9, 83, 100
1, 27840, Note_on_c, 9, 55, 100
1, 27840, Note_on_c, 9, 30, 100
1, 27850, Note_on_c, 9, 83, 0
1, 27850, Note_on_c, 9, 55, 0
1, 27850, Note_on_c, 9, 30, 0
1, 27868, Control_c, 9, 11, 94
1, 27898, Control_c, 9, 11, 93
1, 27928, Control_c, 9, 11, 93
1, 27958, Control_c, 9, 11, 92
1, 27988, Control_c, 9, 11, 92
1, 28018, Control_c, 9, 11, 91
1, 28048, Control_c, 9, 11, 91
1, 28078, Control_c, 9, 11, 90
1, 28108, Control_c, 9, 11, 90
1, 28123, Control_c, 9, 11, 95
1, 28148, Control_c, 9, 11, 91
1, 28178, Control_c, 9, 11, 89
1, 28208, Control_c, 9, 11, 87
1, 28238, Control_c, 9, 11, 85
1, 28268, Control_c, 9, 11, 83
1, 28298, Control_c, 9, 11, 81
1, 28320, Note_on_c, 7, 31, 0
1, 28320, Note_on_c, 7, 43, 0
1, 28320, Note_on_c, 8, 31, 0
1, 28320, Note_on_c, 8, 43, 0
1, 28320, Note_on_c, 7, 43, 117
1, 28320, Note_on_c, 7, 31, 117
1, 28320, Note_on_c, 8, 43, 117
1, 28320, Note_on_c, 8, 31, 117
1, 28320, Note_on_c, 9, 55, 100
1, 28320, Note_on_c, 9, 30, 100
1, 28320, Note_on_c, 9, 83, 100
1, 28328, Control_c, 9, 11, 79
1, 28330, Note_on_c, 9, 55, 0
1, 28330, Note_on_c, 9, 30, 0
1, 28330, Note_on_c, 9, 83, 0
1, 28358, Control_c, 9, 11, 77
1, 28388, Control_c, 9, 11, 74
1, 28411, Control_c, 9, 11, 70
1, 28441, Control_c, 9, 11, 69
1, 28471, Control_c, 9, 11, 67
1, 28501, Control_c, 9, 11, 66
1, 28531, Control_c, 9, 11, 64
1, 28561, Control_c, 9, 11, 63
1, 28591, Control_c, 9, 11, 61
1, 28621, Control_c, 9, 11, 59
1, 28651, Control_c, 9, 11, 58
1, 28656, Note_on_c, 3, 59, 0
1, 28656, Note_on_c, 4, 59, 0
1, 28656, Note_on_c, 5, 59, 0
1, 28656, Note_on_c, 5, 57, 0
1, 28656, Note_on_c, 5, 50, 0
1, 28681, Control_c, 9, 11, 56
1, 28711, Control_c, 9, 11, 55
1, 28741, Control_c, 9, 11, 53
1, 28771, Control_c, 9, 11, 51
1, 28800, Note_on_c, 7, 43, 0
1, 28800, Note_on_c, 7, 31, 0
1, 28800, Note_on_c, 8, 43, 0
1, 28800, Note_on_c, 8, 31, 0
1, 28800, Note_on_c, 3, 60, 100
1, 28800, Note_on_c, 4, 60, 100
1, 28800, Note_on_c, 5, 60, 100
1, 28800, Note_on_c, 5, 50, 100
1, 28800, Note_on_c, 5, 57, 100
1, 28800, Note_on_c, 6, 69, 100
1, 28800, Note_on_c, 7, 43, 117
1, 28800, Note_on_c, 7, 31, 117
1, 28800, Note_on_c, 8, 43, 117
1, 28800, Note_on_c, 8, 31, 117
1, 28800, Note_on_c, 9, 83, 100
1, 28800, Note_on_c, 9, 55, 100
1, 28800, Note_on_c, 9, 30, 100
1, 28801, Control_c, 9, 11, 50
1, 28810, Note_on_c, 9, 83, 0
1, 28810, Note_on_c, 9, 55, 0
1, 28810, Note_on_c, 9, 30, 0
1, 28831, Control_c, 9, 11, 48
1, 28861, Control_c, 9, 11, 47
1, 28891, Control_c, 9, 11, 45
1, 28921, Control_c, 9, 11, 43
1, 28951, Control_c, 9, 11, 42
1, 28981, Control_c, 9, 11, 40
1, 29011, Control_c, 9, 11, 39
1, 29041, Control_c, 9, 11, 37
1, 29071, Control_c, 9, 11, 35
1, 29101, Control_c, 9, 11, 34
1, 29131, Control_c, 9, 11, 32
1, 29161, Control_c, 9, 11, 31
1, 29191, Control_c, 9, 11, 29
1, 29221, Control_c, 9, 11, 27
1, 29251, Control_c, 9, 11, 26
1, 29280, Note_on_c, 9, 83, 100
1, 29280, Note_on_c, 9, 55, 100
1, 29280, Note_on_c, 9, 30, 100
1, 29281, Control_c, 9, 11, 24
1, 29290, Note_on_c, 9, 83, 0
1, 29290, Note_on_c, 9, 55, 0
1, 29290, Note_on_c, 9, 30, 0
1, 29311, Control_c, 9, 11, 23
1, 29341, Control_c, 9, 11, 21
1, 29348, Control_c, 9, 11, 19
1, 29378, Control_c, 9, 11, 19
1, 29408, Control_c, 9, 11, 18
1, 29438, Control_c, 9, 11, 17
1, 29468, Control_c, 9, 11, 16
1, 29498, Control_c, 9, 11, 16
1, 29528, Control_c, 9, 11, 15
1, 29558, Control_c, 9, 11, 14
1, 29588, Control_c, 9, 11, 13
1, 29618, Control_c, 9, 11, 12
1, 29648, Control_c, 9, 11, 12
1, 29678, Control_c, 9, 11, 11
1, 29708, Control_c, 9, 11, 10
1, 29738, Control_c, 9, 11, 9
1, 29760, Note_on_c, 7, 43, 0
1, 29760, Note_on_c, 7, 31, 0
1, 29760, Note_on_c, 8, 43, 0
1, 29760, Note_on_c, 8, 31, 0
1, 29760, Note_on_c, 2, 57, 127
1, 29760, Note_on_c, 7, 43, 117
1, 29760, Note_on_c, 7, 31, 117
1, 29760, Note_on_c, 8, 43, 117
1, 29760, Note_on_c, 8, 31, 117
1, 29760, Note_on_c, 9, 55, 100
1, 29760, Note_on_c, 9, 30, 100
1, 29760, Note_on_c, 9, 83, 100
1, 29768, Control_c, 9, 11, 8
1, 29770, Note_on_c, 9, 55, 0
1, 29770, Note_on_c, 9, 30, 0
1, 29770, Note_on_c, 9, 83, 0
1, 29798, Control_c, 9, 11, 8
1, 29828, Control_c, 9, 11, 7
1, 29858, Control_c, 9, 11, 6
1, 29888, Control_c, 9, 11, 5
1, 29918, Control_c, 9, 11, 4
1, 29948, Control_c, 9, 11, 4
1, 29978, Control_c, 9, 11, 3
1, 30014, Control_c, 9, 11, 5
1, 30044, Control_c, 9, 11, 4
1, 30074, Control_c, 9, 11, 4
1, 30096, Note_on_c, 3, 60, 0
1, 30096, Note_on_c, 4, 60, 0
1, 30096, Note_on_c, 5, 60, 0
1, 30096, Note_on_c, 5, 50, 0
1, 30096, Note_on_c, 5, 57, 0
1, 30096, Note_on_c, 6, 69, 0
1, 30104, Control_c, 9, 11, 3
1, 30134, Control_c, 9, 11, 3
1, 30164, Control_c, 9, 11, 2
1, 30192, Note_on_c, 2, 57, 0
1, 30222, Control_c, 9, 11, 48
1, 30240, Note_on_c, 7, 43, 0
1, 30240, Note_on_c, 7, 31, 0
1, 30240, Note_on_c, 8, 43, 0
1, 30240, Note_on_c, 8, 31, 0
1, 30240, Key_signature, 1, "major"
1, 30240, Note_on_c, 2, 60, 127
1, 30240, Note_on_c, 7, 33, 117
1, 30240, Note_on_c, 7, 45, 117
1, 30240, Note_on_c, 8, 33, 117
1, 30240, Note_on_c, 8, 45, 117
1, 30240, Note_on_c, 9, 55, 100
1, 30240, Note_on_c, 9, 30, 100
1, 30240, Note_on_c, 9, 83, 100
1, 30240, Note_on_c, 10, 33, 66
1, 30240, Note_on_c, 10, 45, 66
1, 30240, Note_on_c, 11, 33, 66
1, 30240, Note_on_c, 11, 45, 66
1, 30240, Note_on_c, 12, 33, 66
1, 30240, Note_on_c, 12, 45, 66
1, 30250, Note_on_c, 9, 55, 0
1, 30250, Note_on_c, 9, 30, 0
1, 30250, Note_on_c, 9, 83, 0
1, 30268, Control_c, 9, 11, 102
1, 30298, Control_c, 9, 11, 102
1, 30328, Control_c, 9, 11, 101
1, 30358, Control_c, 9, 11, 101
1, 30388, Control_c, 9, 11, 100
1, 30418, Control_c, 9, 11, 100
1, 30448, Control_c, 9, 11, 99
1, 30478, Control_c, 9, 11, 99
1, 30508, Control_c, 9, 11, 98
1, 30538, Control_c, 9, 11, 98
1, 30568, Control_c, 9, 11, 97
1, 30598, Control_c, 9, 11, 97
1, 30628, Control_c, 9, 11, 96
1, 30658, Control_c, 9, 11, 95
1, 30672, Note_on_c, 10, 33, 0
1, 30672, Note_on_c, 10, 45, 0
1, 30672, Note_on_c, 11, 33, 0
1, 30672, Note_on_c, 11, 45, 0
1, 30672, Note_on_c, 12, 33, 0
1, 30672, Note_on_c, 12, 45, 0
1, 30688, Control_c, 9, 11, 95
1, 30718, Control_c, 9, 11, 94
1, 30720, Note_on_c, 9, 55, 100
1, 30720, Note_on_c, 9, 30, 100
1, 30720, Note_on_c, 9, 83, 100
1, 30720, Note_on_c, 10, 33, 33
1, 30720, Note_on_c, 10, 45, 33
1, 30720, Note_on_c, 11, 33, 33
1, 30720, Note_on_c, 11, 45, 33
1, 30720, Note_on_c, 12, 33, 33
1, 30720, Note_on_c, 12, 45, 33
1, 30730, Note_on_c, 9, 55, 0
1, 30730, Note_on_c, 9, 30, 0
1, 30730, Note_on_c, 9, 83, 0
1, 30748, Control_c, 9, 11, 94
1, 30778, Control_c, 9, 11, 93
1, 30808, Control_c, 9, 11, 93
1, 30838, Control_c, 9, 11, 92
1, 30868, Control_c, 9, 11, 92
1, 30898, Control_c, 9, 11, 91
1, 30928, Control_c, 9, 11, 91
1, 30958, Control_c, 9, 11, 90
1, 30988, Control_c, 9, 11, 90
1, 31003, Control_c, 9, 11, 95
1, 31028, Control_c, 9, 11, 91
1, 31058, Control_c, 9, 11, 89
1, 31088, Control_c, 9, 11, 87
1, 31104, Note_on_c, 2, 60, 0
1, 31118, Control_c, 9, 11, 85
1, 31148, Control_c, 9, 11, 83
1, 31152, Note_on_c, 10, 33, 0
1, 31152, Note_on_c, 10, 45, 0
1, 31152, Note_on_c, 11, 33, 0
1, 31152, Note_on_c, 11, 45, 0
1, 31152, Note_on_c, 12, 33, 0
1, 31152, Note_on_c, 12, 45, 0
1, 31178, Control_c, 9, 11, 81
1, 31200, Note_on_c, 7, 33, 0
1, 31200, Note_on_c, 7, 45, 0
1, 31200, Note_on_c, 8, 33, 0
1, 31200, Note_on_c, 8, 45, 0
1, 31200, Note_on_c, 2, 62, 127
1, 31200, Note_on_c, 7, 45, 117
1, 31200, Note_on_c, 7, 33, 117
1, 31200, Note_on_c, 8, 45, 117
1, 31200, Note_on_c, 8, 33, 117
1, 31200, Note_on_c, 9, 30, 100
1, 31200, Note_on_c, 9, 83, 100
1, 31200, Note_on_c, 9, 55, 100
1, 31200, Note_on_c, 10, 33, 66
1, 31200, Note_on_c, 10, 45, 66
1, 31200, Note_on_c, 11, 33, 66
1, 31200, Note_on_c, 11, 45, 66
1, 31200, Note_on_c, 12, 33, 66
1, 31200, Note_on_c, 12, 45, 66
1, 31208, Control_c, 9, 11, 79
1, 31210, Note_on_c, 9, 30, 0
1, 31210, Note_on_c, 9, 83, 0
1, 31210, Note_on_c, 9, 55, 0
1, 31238, Control_c, 9, 11, 77
1, 31268, Control_c, 9, 11, 74
1, 31291, Control_c, 9, 11, 70
1, 31321, Control_c, 9, 11, 69
1, 31351, Control_c, 9, 11, 67
1, 31381, Control_c, 9, 11, 66
1, 31411, Control_c, 9, 11, 64
1, 31441, Control_c, 9, 11, 63
1, 31471, Control_c, 9, 11, 61
1, 31501, Control_c, 9, 11, 59
1, 31531, Control_c, 9, 11, 58
1, 31561, Control_c, 9, 11, 56
1, 31591, Control_c, 9, 11, 55
1, 31621, Control_c, 9, 11, 53
1, 31632, Note_on_c, 2, 62, 0
1, 31632, Note_on_c, 10, 33, 0
1, 31632, Note_on_c, 10, 45, 0
1, 31632, Note_on_c, 11, 33, 0
1, 31632, Note_on_c, 11, 45, 0
1, 31632, Note_on_c, 12, 33, 0
1, 31632, Note_on_c, 12, 45, 0
1, 31651, Control_c, 9, 11, 51
1, 31680, Note_on_c, 7, 45, 0
1, 31680, Note_on_c, 7, 33, 0
1, 31680, Note_on_c, 8, 45, 0
1, 31680, Note_on_c, 8, 33, 0
1, 31680, Note_on_c, 2, 64, 127
1, 31680, Note_on_c, 6, 69, 100
1, 31680, Note_on_c, 7, 45, 117
1, 31680, Note_on_c, 7, 33, 117
1, 31680, Note_on_c, 8, 45, 117
1, 31680, Note_on_c, 8, 33, 117
1, 31680, Note_on_c, 9, 83, 100
1, 31680, Note_on_c, 9, 55, 100
1, 31680, Note_on_c, 9, 30, 100
1, 31680, Note_on_c, 10, 33, 66
1, 31680, Note_on_c, 10, 45, 66
1, 31680, Note_on_c, 11, 33, 66
1, 31680, Note_on_c, 11, 45, 66
1, 31680, Note_on_c, 12, 33, 66
1, 31680, Note_on_c, 12, 45, 66
1, 31681, Control_c, 9, 11, 50
1, 31690, Note_on_c, 9, 83, 0
1, 31690, Note_on_c, 9, 55, 0
1, 31690, Note_on_c, 9, 30, 0
1, 31711, Control_c, 9, 11, 48
1, 31741, Control_c, 9, 11, 47
1, 31771, Control_c, 9, 11, 45
1, 31801, Control_c, 9, 11, 43
1, 31831, Control_c, 9, 11, 42
1, 31861, Control_c, 9, 11, 40
1, 31891, Control_c, 9, 11, 39
1, 31921, Control_c, 9, 11, 37
1, 31951, Control_c, 9, 11, 35
1, 31981, Control_c, 9, 11, 34
1, 32011, Control_c, 9, 11, 32
1, 32041, Control_c, 9, 11, 31
1, 32071, Control_c, 9, 11, 29
1, 32101, Control_c, 9, 11, 27
1, 32112, Note_on_c, 10, 33, 0
1, 32112, Note_on_c, 10, 45, 0
1, 32112, Note_on_c, 11, 33, 0
1, 32112, Note_on_c, 11, 45, 0
1, 32112, Note_on_c, 12, 33, 0
1, 32112, Note_on_c, 12, 45, 0
1, 32131, Control_c, 9, 11, 26
1, 32160, Note_on_c, 9, 30, 100
1, 32160, Note_on_c, 9, 83, 100
1, 32160, Note_on_c, 9, 55, 100
1, 32160, Note_on_c, 10, 33, 33
1, 32160, Note_on_c, 10, 45, 33
1, 32160, Note_on_c, 11, 33, 33
1, 32160, Note_on_c, 11, 45, 33
1, 32160, Note_on_c, 12, 33, 33
1, 32160, Note_on_c, 12, 45, 33
1, 32161, Control_c, 9, 11, 24
1, 32170, Note_on_c, 9, 30, 0
1, 32170, Note_on_c, 9, 83, 0
1, 32170, Note_on_c, 9, 55, 0
1, 32191, Control_c, 9, 11, 23
1, 32221, Control_c, 9, 11, 21
1, 32228, Control_c, 9, 11, 19
1, 32258, Control_c, 9, 11, 19
1, 32288, Control_c, 9, 11, 18
1, 32318, Control_c, 9, 11, 17
1, 32348, Control_c, 9, 11, 16
1, 32378, Control_c, 9, 11, 16
1, 32408, Control_c, 9, 11, 15
1, 32438, Control_c, 9, 11, 14
1, 32468, Control_c, 9, 11, 13
1, 32498, Control_c, 9, 11, 12
1, 32528, Control_c, 9, 11, 12
1, 32544, Note_on_c, 2, 64, 0
1, 32558, Control_c, 9, 11, 11
1, 32588, Control_c, 9, 11, 10
1, 32592, Note_on_c, 10, 33, 0
1, 32592, Note_on_c, 10, 45, 0
1, 32592, Note_on_c, 11, 33, 0
1, 32592, Note_on_c, 11, 45, 0
1, 32592, Note_on_c, 12, 33, 0
1, 32592, Note_on_c, 12, 45, 0
1, 32618, Control_c, 9, 11, 9
1, 32640, Note_on_c, 7, 45, 0
1, 32640, Note_on_c, 7, 33, 0
1, 32640, Note_on_c, 8, 45, 0
1, 32640, Note_on_c, 8, 33, 0
1, 32640, Note_on_c, 2, 67, 127
1, 32640, Note_on_c, 7, 33, 117
1, 32640, Note_on_c, 7, 45, 117
1, 32640, Note_on_c, 8, 33, 117
1, 32640, Note_on_c, 8, 45, 117
1, 32640, Note_on_c, 9, 55, 100
1, 32640, Note_on_c, 9, 30, 100
1, 32640, Note_on_c, 9, 83, 100
1, 32640, Note_on_c, 10, 33, 66
1, 32640, Note_on_c, 10, 45, 66
1, 32640, Note_on_c, 11, 33, 66
1, 32640, Note_on_c, 11, 45, 66
1, 32640, Note_on_c, 12, 33, 66
1, 32640, Note_on_c, 12, 45, 66
1, 32648, Control_c, 9, 11, 8
1, 32650, Note_on_c, 9, 55, 0
1, 32650, Note_on_c, 9, 30, 0
1, 32650, Note_on_c, 9, 83, 0
1, 32678, Control_c, 9, 11, 8
1, 32708, Control_c, 9, 11, 7
1, 32738, Control_c, 9, 11, 6
1, 32768, Control_c, 9, 11, 5
1, 32798, Control_c, 9, 11, 4
1, 32828, Control_c, 9, 11, 4
1, 32858, Control_c, 9, 11, 3
1, 32894, Control_c, 9, 11, 5
1, 32924, Control_c, 9, 11, 4
1, 32954, Control_c, 9, 11, 4
1, 32976, Note_on_c, 6, 69, 0
1, 32984, Control_c, 9, 11, 3
1, 33014, Control_c, 9, 11, 3
1, 33044, Control_c, 9, 11, 2
1, 33072, Note_on_c, 2, 67, 0
1, 33072, Note_on_c, 10, 33, 0
1, 33072, Note_on_c, 10, 45, 0
1, 33072, Note_on_c, 11, 33, 0
1, 33072, Note_on_c, 11, 45, 0
1, 33072, Note_on_c, 12, 33, 0
1, 33072, Note_on_c, 12, 45, 0
1, 33102, Control_c, 9, 11, 48
1, 33120, Note_on_c, 7, 33, 0
1, 33120, Note_on_c, 7, 45, 0
1, 33120, Note_on_c, 8, 33, 0
1, 33120, Note_on_c, 8, 45, 0
1, 33120, Note_on_c, 2, 66, 127
1, 33120, Note_on_c, 7, 33, 117
1, 33120, Note_on_c, 7, 45, 117
1, 33120, Note_on_c, 8, 33, 117
1, 33120, Note_on_c, 8, 45, 117
1, 33120, Note_on_c, 9, 83, 100
1, 33120, Note_on_c, 9, 55, 100
1, 33120, Note_on_c, 9, 30, 100
1, 33120, Note_on_c, 10, 33, 66
1, 33120, Note_on_c, 10, 45, 66
1, 33120, Note_on_c, 11, 33, 66
1, 33120, Note_on_c, 11, 45, 66
1, 33120, Note_on_c, 12, 33, 66
1, 33120, Note_on_c, 12, 45, 66
1, 33130, Note_on_c, 9, 83, 0
1, 33130, Note_on_c, 9, 55, 0
1, 33130, Note_on_c, 9, 30, 0
1, 33148, Control_c, 9, 11, 102
1, 33178, Control_c, 9, 11, 102
1, 33208, Control_c, 9, 11, 101
1, 33238, Control_c, 9, 11, 101
1, 33268, Control_c, 9, 11, 100
1, 33298, Control_c, 9, 11, 100
1, 33328, Control_c, 9, 11, 99
1, 33358, Control_c, 9, 11, 99
1, 33388, Control_c, 9, 11, 98
1, 33418, Control_c, 9, 11, 98
1, 33448, Control_c, 9, 11, 97
1, 33478, Control_c, 9, 11, 97
1, 33508, Control_c, 9, 11, 96
1, 33538, Control_c, 9, 11, 95
1, 33552, Note_on_c, 10, 33, 0
1, 33552, Note_on_c, 10, 45, 0
1, 33552, Note_on_c, 11, 33, 0
1, 33552, Note_on_c, 11, 45, 0
1, 33552, Note_on_c, 12, 33, 0
1, 33552, Note_on_c, 12, 45, 0
1, 33568, Control_c, 9, 11, 95
1, 33598, Control_c, 9, 11, 94
1, 33600, Note_on_c, 9, 30, 100
1, 33600, Note_on_c, 9, 83, 100
1, 33600, Note_on_c, 9, 55, 100
1, 33600, Note_on_c, 10, 33, 32
1, 33600, Note_on_c, 10, 45, 32
1, 33600, Note_on_c, 11, 33, 32
1, 33600, Note_on_c, 11, 45, 32
1, 33600, Note_on_c, 12, 33, 32
1, 33600, Note_on_c, 12, 45, 32
1, 33610, Note_on_c, 9, 30, 0
1, 33610, Note_on_c, 9, 83, 0
1, 33610, Note_on_c, 9, 55, 0
1, 33628, Control_c, 9, 11, 94
1, 33658, Control_c, 9, 11, 93
1, 33688, Control_c, 9, 11, 93
1, 33718, Control_c, 9, 11, 92
1, 33748, Control_c, 9, 11, 92
1, 33778, Control_c, 9, 11, 91
1, 33808, Control_c, 9, 11, 91
1, 33838, Control_c, 9, 11, 90
1, 33868, Control_c, 9, 11, 90
1, 33883, Control_c, 9, 11, 95
1, 33908, Control_c, 9, 11, 91
1, 33938, Control_c, 9, 11, 89
1, 33968, Control_c, 9, 11, 87
1, 33998, Control_c, 9, 11, 85
1, 34028, Control_c, 9, 11, 83
1, 34032, Note_on_c, 10, 33, 0
1, 34032, Note_on_c, 10, 45, 0
1, 34032, Note_on_c, 11, 33, 0
1, 34032, Note_on_c, 11, 45, 0
1, 34032, Note_on_c, 12, 33, 0
1, 34032, Note_on_c, 12, 45, 0
1, 34058, Control_c, 9, 11, 81
1, 34080, Note_on_c, 7, 33, 0
1, 34080, Note_on_c, 7, 45, 0
1, 34080, Note_on_c, 8, 33, 0
1, 34080, Note_on_c, 8, 45, 0
1, 34080, Note_on_c, 7, 45, 117
1, 34080, Note_on_c, 7, 33, 117
1, 34080, Note_on_c, 8, 45, 117
1, 34080, Note_on_c, 8, 33, 117
1, 34080, Note_on_c, 9, 83, 100
1, 34080, Note_on_c, 9, 55, 100
1, 34080, Note_on_c, 9, 30, 100
1, 34080, Note_on_c, 10, 33, 66
1, 34080, Note_on_c, 10, 45, 66
1, 34080, Note_on_c, 11, 33, 66
1, 34080, Note_on_c, 11, 45, 66
1, 34080, Note_on_c, 12, 33, 66
1, 34080, Note_on_c, 12, 45, 66
1, 34088, Control_c, 9, 11, 79
1, 34090, Note_on_c, 9, 83, 0
1, 34090, Note_on_c, 9, 55, 0
1, 34090, Note_on_c, 9, 30, 0
1, 34118, Control_c, 9, 11, 77
1, 34148, Control_c, 9, 11, 74
1, 34171, Control_c, 9, 11, 70
1, 34201, Control_c, 9, 11, 69
1, 34231, Control_c, 9, 11, 67
1, 34261, Control_c, 9, 11, 66
1, 34291, Control_c, 9, 11, 64
1, 34321, Control_c, 9, 11, 63
1, 34351, Control_c, 9, 11, 61
1, 34381, Control_c, 9, 11, 59
1, 34411, Control_c, 9, 11, 58
1, 34416, Note_on_c, 2, 66, 0
1, 34441, Control_c, 9, 11, 56
1, 34471, Control_c, 9, 11, 55
1, 34501, Control_c, 9, 11, 53
1, 34512, Note_on_c, 10, 33, 0
1, 34512, Note_on_c, 10, 45, 0
1, 34512, Note_on_c, 11, 33, 0
1, 34512, Note_on_c, 11, 45, 0
1, 34512, Note_on_c, 12, 33, 0
1, 34512, Note_on_c, 12, 45, 0
1, 34531, Control_c, 9, 11, 51
1, 34560, Note_on_c, 7, 45, 0
1, 34560, Note_on_c, 7, 33, 0
1, 34560, Note_on_c, 8, 45, 0
1, 34560, Note_on_c, 8, 33, 0
1, 34560, Note_on_c, 2, 65, 127
1, 34560, Note_on_c, 6, 69, 100
1, 34560, Note_on_c, 7, 45, 117
1, 34560, Note_on_c, 7, 33, 117
1, 34560, Note_on_c, 8, 45, 117
1, 34560, Note_on_c, 8, 33, 117
1, 34560, Note_on_c, 9, 30, 100
1, 34560, Note_on_c, 9, 83, 100
1, 34560, Note_on_c, 9, 55, 100
1, 34560, Note_on_c, 10, 33, 66
1, 34560, Note_on_c, 10, 45, 66
1, 34560, Note_on_c, 11, 33, 66
1, 34560, Note_on_c, 11, 45, 66
1, 34560, Note_on_c, 12, 33, 66
1, 34560, Note_on_c, 12, 45, 66
1, 34561, Control_c, 9, 11, 50
1, 34570, Note_on_c, 9, 30, 0
1, 34570, Note_on_c, 9, 83, 0
1, 34570, Note_on_c, 9, 55, 0
1, 34591, Control_c, 9, 11, 48
1, 34621, Control_c, 9, 11, 47
1, 34651, Control_c, 9, 11, 45
1, 34681, Control_c, 9, 11, 43
1, 34711, Control_c, 9, 11, 42
1, 34741, Control_c, 9, 11, 40
1, 34771, Control_c, 9, 11, 39
1, 34801, Control_c, 9, 11, 37
1, 34831, Control_c, 9, 11, 35
1, 34861, Control_c, 9, 11, 34
1, 34891, Control_c, 9, 11, 32
1, 34921, Control_c, 9, 11, 31
1, 34951, Control_c, 9, 11, 29
1, 34981, Control_c, 9, 11, 27
1, 34992, Note_on_c, 10, 33, 0
1, 34992, Note_on_c, 10, 45, 0
1, 34992, Note_on_c, 11, 33, 0
1, 34992, Note_on_c, 11, 45, 0
1, 34992, Note_on_c, 12, 33, 0
1, 34992, Note_on_c, 12, 45, 0
1, 35011, Control_c, 9, 11, 26
1, 35040, Note_on_c, 9, 30, 100
1, 35040, Note_on_c, 9, 83, 100
1, 35040, Note_on_c, 9, 55, 100
1, 35040, Note_on_c, 10, 33, 33
1, 35040, Note_on_c, 10, 45, 33
1, 35040, Note_on_c, 11, 33, 33
1, 35040, Note_on_c, 11, 45, 33
1, 35040, Note_on_c, 12, 33, 33
1, 35040, Note_on_c, 12, 45, 33
1, 35041, Control_c, 9, 11, 24
1, 35050, Note_on_c, 9, 30, 0
1, 35050, Note_on_c, 9, 83, 0
1, 35050, Note_on_c, 9, 55, 0
1, 35071, Control_c, 9, 11, 23
1, 35101, Control_c, 9, 11, 21
1, 35108, Control_c, 9, 11, 19
1, 35138, Control_c, 9, 11, 19
1, 35168, Control_c, 9, 11, 18
1, 35198, Control_c, 9, 11, 17
1, 35228, Control_c, 9, 11, 16
1, 35258, Control_c, 9, 11, 16
1, 35288, Control_c, 9, 11, 15
1, 35318, Control_c, 9, 11, 14
1, 35348, Control_c, 9, 11, 13
1, 35378, Control_c, 9, 11, 12
1, 35408, Control_c, 9, 11, 12
1, 35438, Control_c, 9, 11, 11
1, 35468, Control_c, 9, 11, 10
1, 35472, Note_on_c, 10, 33, 0
1, 35472, Note_on_c, 10, 45, 0
1, 35472, Note_on_c, 11, 33, 0
1, 35472, Note_on_c, 11, 45, 0
1, 35472, Note_on_c, 12, 33, 0
1, 35472, Note_on_c, 12, 45, 0
1, 35498, Control_c, 9, 11, 9
1, 35520, Note_on_c, 7, 45, 0
1, 35520, Note_on_c, 7, 33, 0
1, 35520, Note_on_c, 8, 45, 0
1, 35520, Note_on_c, 8, 33, 0
1, 35520, Note_on_c, 7, 45, 117
1, 35520, Note_on_c, 7, 33, 117
1, 35520, Note_on_c, 8, 45, 117
1, 35520, Note_on_c, 8, 33, 117
1, 35520, Note_on_c, 9, 83, 100
1, 35520, Note_on_c, 9, 55, 100
1, 35520, Note_on_c, 9, 30, 100
1, 35520, Note_on_c, 10, 33, 66
1, 35520, Note_on_c, 10, 45, 66
1, 35520, Note_on_c, 11, 33, 66
1, 35520, Note_on_c, 11, 45, 66
1, 35520, Note_on_c, 12, 33, 66
1, 35520, Note_on_c, 12, 45, 66
1, 35528, Control_c, 9, 11, 8
1, 35530, Note_on_c, 9, 83, 0
1, 35530, Note_on_c, 9, 55, 0
1, 35530, Note_on_c, 9, 30, 0
1, 35558, Control_c, 9, 11, 8
1, 35588, Control_c, 9, 11, 7
1, 35618, Control_c, 9, 11, 6
1, 35648, Control_c, 9, 11, 5
1, 35678, Control_c, 9, 11, 4
1, 35708, Control_c, 9, 11, 4
1, 35738, Control_c, 9, 11, 3
1, 35774, Control_c, 9, 11, 5
1, 35804, Control_c, 9, 11, 4
1, 35834, Control_c, 9, 11, 4
1, 35856, Note_on_c, 2, 65, 0
1, 35856, Note_on_c, 6, 69, 0
1, 35864, Control_c, 9, 11, 3
1, 35894, Control_c, 9, 11, 3
1, 35924, Control_c, 9, 11, 2
1, 35952, Note_on_c, 10, 33, 0
1, 35952, Note_on_c, 10, 45, 0
1, 35952, Note_on_c, 11, 33, 0
1, 35952, Note_on_c, 11, 45, 0
1, 35952, Note_on_c, 12, 33, 0
1, 35952, Note_on_c, 12, 45, 0
1, 35982, Control_c, 9, 11, 48
1, 36000, Note_on_c, 7, 45, 0
1, 36000, Note_on_c, 7, 33, 0
1, 36000, Note_on_c, 8, 45, 0
1, 36000, Note_on_c, 8, 33, 0
1, 36000, Note_on_c, 2, 64, 127
1, 36000, Note_on_c, 7, 45, 117
1, 36000, Note_on_c, 7, 33, 117
1, 36000, Note_on_c, 8, 45, 117
1, 36000, Note_on_c, 8, 33, 117
1, 36000, Note_on_c, 9, 83, 100
1, 36000, Note_on_c, 9, 55, 100
1, 36000, Note_on_c, 9, 30, 100
1, 36000, Note_on_c, 10, 33, 66
1, 36000, Note_on_c, 10, 45, 66
1, 36000, Note_on_c, 11, 33, 66
1, 36000, Note_on_c, 11, 45, 66
1, 36000, Note_on_c, 12, 33, 66
1, 36000, Note_on_c, 12, 45, 66
1, 36010, Note_on_c, 9, 83, 0
1, 36010, Note_on_c, 9, 55, 0
1, 36010, Note_on_c, 9, 30, 0
1, 36028, Control_c, 9, 11, 102
1, 36058, Control_c, 9, 11, 102
1, 36088, Control_c, 9, 11, 101
1, 36118, Control_c, 9, 11, 101
1, 36148, Control_c, 9, 11, 100
1, 36178, Control_c, 9, 11, 100
1, 36208, Control_c, 9, 11, 99
1, 36238, Control_c, 9, 11, 99
1, 36268, Control_c, 9, 11, 98
1, 36298, Control_c, 9, 11, 98
1, 36328, Control_c, 9, 11, 97
1, 36358, Control_c, 9, 11, 97
1, 36388, Control_c, 9, 11, 96
1, 36418, Control_c, 9, 11, 95
1, 36432, Note_on_c, 10, 33, 0
1, 36432, Note_on_c, 10, 45, 0
1, 36432, Note_on_c, 11, 33, 0
1, 36432, Note_on_c, 11, 45, 0
1, 36432, Note_on_c, 12, 33, 0
1, 36432, Note_on_c, 12, 45, 0
1, 36448, Control_c, 9, 11, 95
1, 36478, Control_c, 9, 11, 94
1, 36480, Note_on_c, 9, 83, 100
1, 36480, Note_on_c, 9, 55, 100
1, 36480, Note_on_c, 9, 30, 100
1, 36480, Note_on_c, 10, 33, 38
1, 36480, Note_on_c, 10, 45, 38
1, 36480, Note_on_c, 11, 33, 38
1, 36480, Note_on_c, 11, 45, 38
1, 36480, Note_on_c, 12, 33, 38
1, 36480, Note_on_c, 12, 45, 38
1, 36490, Note_on_c, 9, 83, 0
1, 36490, Note_on_c, 9, 55, 0
1, 36490, Note_on_c, 9, 30, 0
1, 36508, Control_c, 9, 11, 94
1, 36538, Control_c, 9, 11, 93
1, 36568, Control_c, 9, 11, 93
1, 36598, Control_c, 9, 11, 92
1, 36628, Control_c, 9, 11, 92
1, 36658, Control_c, 9, 11, 91
1, 36688, Control_c, 9, 11, 91
1, 36718, Control_c, 9, 11, 90
1, 36748, Control_c, 9, 11, 90
1, 36763, Control_c, 9, 11, 95
1, 36788, Control_c, 9, 11, 91
1, 36818, Control_c, 9, 11, 89
1, 36848, Control_c, 9, 11, 87
1, 36864, Note_on_c, 2, 64, 0
1, 36878, Control_c, 9, 11, 85
1, 36908, Control_c, 9, 11, 83
1, 36912, Note_on_c, 10, 33, 0
1, 36912, Note_on_c, 10, 45, 0
1, 36912, Note_on_c, 11, 33, 0
1, 36912, Note_on_c, 11, 45, 0
1, 36912, Note_on_c, 12, 33, 0
1, 36912, Note_on_c, 12, 45, 0
1, 36938, Control_c, 9, 11, 81
1, 36960, Note_on_c, 7, 45, 0
1, 36960, Note_on_c, 7, 33, 0
1, 36960, Note_on_c, 8, 45, 0
1, 36960, Note_on_c, 8, 33, 0
1, 36960, Note_on_c, 2, 60, 127
1, 36960, Note_on_c, 7, 33, 117
1, 36960, Note_on_c, 7, 45, 117
1, 36960, Note_on_c, 8, 33, 117
1, 36960, Note_on_c, 8, 45, 117
1, 36960, Note_on_c, 9, 55, 100
1, 36960, Note_on_c, 9, 30, 100
1, 36960, Note_on_c, 9, 83, 100
1, 36960, Note_on_c, 10, 33, 66
1, 36960, Note_on_c, 10, 45, 66
1, 36960, Note_on_c, 11, 33, 66
1, 36960, Note_on_c, 11, 45, 66
1, 36960, Note_on_c, 12, 33, 66
1, 36960, Note_on_c, 12, 45, 66
1, 36968, Control_c, 9, 11, 79
1, 36970, Note_on_c, 9, 55, 0
1, 36970, Note_on_c, 9, 30, 0
1, 36970, Note_on_c, 9, 83, 0
1, 36998, Control_c, 9, 11, 77
1, 37028, Control_c, 9, 11, 74
1, 37051, Control_c, 9, 11, 70
1, 37081, Control_c, 9, 11, 69
1, 37111, Control_c, 9, 11, 67
1, 37141, Control_c, 9, 11, 66
1, 37171, Control_c, 9, 11, 64
1, 37201, Control_c, 9, 11, 63
1, 37231, Control_c, 9, 11, 61
1, 37261, Control_c, 9, 11, 59
1, 37291, Control_c, 9, 11, 58
1, 37321, Control_c, 9, 11, 56
1, 37351, Control_c, 9, 11, 55
1, 37381, Control_c, 9, 11, 53
1, 37392, Note_on_c, 2, 60, 0
1, 37392, Note_on_c, 10, 33, 0
1, 37392, Note_on_c, 10, 45, 0
1, 37392, Note_on_c, 11, 33, 0
1, 37392, Note_on_c, 11, 45, 0
1, 37392, Note_on_c, 12, 33, 0
1, 37392, Note_on_c, 12, 45, 0
1, 37411, Control_c, 9, 11, 51
1, 37440, Note_on_c, 7, 33, 0
1, 37440, Note_on_c, 7, 45, 0
1, 37440, Note_on_c, 8, 33, 0
1, 37440, Note_on_c, 8, 45, 0
1, 37440, Note_on_c, 2, 60, 127
1, 37440, Note_on_c, 6, 69, 100
1, 37440, Note_on_c, 7, 45, 117
1, 37440, Note_on_c, 7, 33, 117
1, 37440, Note_on_c, 8, 45, 117
1, 37440, Note_on_c, 8, 33, 117
1, 37440, Note_on_c, 9, 83, 100
1, 37440, Note_on_c, 9, 55, 100
1, 37440, Note_on_c, 9, 30, 100
1, 37440, Note_on_c, 10, 33, 66
1, 37440, Note_on_c, 10, 45, 66
1, 37440, Note_on_c, 11, 33, 66
1, 37440, Note_on_c, 11, 45, 66
1, 37440, Note_on_c, 12, 33, 66
1, 37440, Note_on_c, 12, 45, 66
1, 37441, Control_c, 9, 11, 50
1, 37450, Note_on_c, 9, 83, 0
1, 37450, Note_on_c, 9, 55, 0
1, 37450, Note_on_c, 9, 30, 0
1, 37471, Control_c, 9, 11, 48
1, 37501, Control_c, 9, 11, 47
1, 37531, Control_c, 9, 11, 45
1, 37561, Control_c, 9, 11, 43
1, 37591, Control_c, 9, 11, 42
1, 37621, Control_c, 9, 11, 40
1, 37651, Control_c, 9, 11, 39
1, 37681, Control_c, 9, 11, 37
1, 37711, Control_c, 9, 11, 35
1, 37741, Control_c, 9, 11, 34
1, 37771, Control_c, 9, 11, 32
1, 37801, Control_c, 9, 11, 31
1, 37831, Control_c, 9, 11, 29
1, 37861, Control_c, 9, 11, 27
1, 37872, Note_on_c, 10, 33, 0
1, 37872, Note_on_c, 10, 45, 0
1, 37872, Note_on_c, 11, 33, 0
1, 37872, Note_on_c, 11, 45, 0
1, 37872, Note_on_c, 12, 33, 0
1, 37872, Note_on_c, 12, 45, 0
1, 37891, Control_c, 9, 11, 26
1, 37920, Note_on_c, 9, 30, 100
1, 37920, Note_on_c, 9, 83, 100
1, 37920, Note_on_c, 9, 55, 100
1, 37920, Note_on_c, 10, 33, 37
1, 37920, Note_on_c, 10, 45, 37
1, 37920, Note_on_c, 11, 33, 37
1, 37920, Note_on_c, 11, 45, 37
1, 37920, Note_on_c, 12, 33, 37
1, 37920, Note_on_c, 12, 45, 37
1, 37921, Control_c, 9, 11, 24
1, 37930, Note_on_c, 9, 30, 0
1, 37930, Note_on_c, 9, 83, 0
1, 37930, Note_on_c, 9, 55, 0
1, 37951, Control_c, 9, 11, 23
1, 37981, Control_c, 9, 11, 21
1, 37988, Control_c, 9, 11, 19
1, 38018, Control_c, 9, 11, 19
1, 38048, Control_c, 9, 11, 18
1, 38078, Control_c, 9, 11, 17
1, 38108, Control_c, 9, 11, 16
1, 38138, Control_c, 9, 11, 16
1, 38168, Control_c, 9, 11, 15
1, 38198, Control_c, 9, 11, 14
1, 38228, Control_c, 9, 11, 13
1, 38258, Control_c, 9, 11, 12
1, 38288, Control_c, 9, 11, 12
1, 38304, Note_on_c, 2, 60, 0
1, 38318, Control_c, 9, 11, 11
1, 38348, Control_c, 9, 11, 10
1, 38352, Note_on_c, 10, 33, 0
1, 38352, Note_on_c, 10, 45, 0
1, 38352, Note_on_c, 11, 33, 0
1, 38352, Note_on_c, 11, 45, 0
1, 38352, Note_on_c, 12, 33, 0
1, 38352, Note_on_c, 12, 45, 0
1, 38378, Control_c, 9, 11, 9
1, 38400, Note_on_c, 7, 45, 0
1, 38400, Note_on_c, 7, 33, 0
1, 38400, Note_on_c, 8, 45, 0
1, 38400, Note_on_c, 8, 33, 0
1, 38400, Note_on_c, 2, 59, 127
1, 38400, Note_on_c, 7, 33, 117
1, 38400, Note_on_c, 7, 45, 117
1, 38400, Note_on_c, 8, 33, 117
1, 38400, Note_on_c, 8, 45, 117
1, 38400, Note_on_c, 9, 55, 100
1, 38400, Note_on_c, 9, 30, 100
1, 38400, Note_on_c, 9, 83, 100
1, 38400, Note_on_c, 10, 33, 66
1, 38400, Note_on_c, 10, 45, 66
1, 38400, Note_on_c, 11, 33, 66
1, 38400, Note_on_c, 11, 45, 66
1, 38400, Note_on_c, 12, 33, 66
1, 38400, Note_on_c, 12, 45, 66
1, 38408, Control_c, 9, 11, 8
1, 38410, Note_on_c, 9, 55, 0
1, 38410, Note_on_c, 9, 30, 0
1, 38410, Note_on_c, 9, 83, 0
1, 38438, Control_c, 9, 11, 8
1, 38468, Control_c, 9, 11, 7
1, 38498, Control_c, 9, 11, 6
1, 38528, Control_c, 9, 11, 5
1, 38558, Control_c, 9, 11, 4
1, 38588, Control_c, 9, 11, 4
1, 38616, Note_on_c, 2, 59, 0
1, 38618, Control_c, 9, 11, 3
1, 38640, Note_on_c, 2, 60, 127
1, 38654, Control_c, 9, 11, 5
1, 38684, Control_c, 9, 11, 4
1, 38714, Control_c, 9, 11, 4
1, 38736, Note_on_c, 6, 69, 0
1, 38744, Control_c, 9, 11, 3
1, 38774, Control_c, 9, 11, 3
1, 38804, Control_c, 9, 11, 2
1, 38832, Note_on_c, 10, 33, 0
1, 38832, Note_on_c, 10, 45, 0
1, 38832, Note_on_c, 11, 33, 0
1, 38832, Note_on_c, 11, 45, 0
1, 38832, Note_on_c, 12, 33, 0
1, 38832, Note_on_c, 12, 45, 0
1, 38856, Note_on_c, 2, 60, 0
1, 38862, Control_c, 9, 11, 48
1, 38880, Note_on_c, 7, 33, 0
1, 38880, Note_on_c, 7, 45, 0
1, 38880, Note_on_c, 8, 33, 0
1, 38880, Note_on_c, 8, 45, 0
1, 38880, Note_on_c, 2, 62, 127
1, 38880, Note_on_c, 7, 33, 117
1, 38880, Note_on_c, 7, 45, 117
1, 38880, Note_on_c, 8, 33, 117
1, 38880, Note_on_c, 8, 45, 117
1, 38880, Note_on_c, 9, 83, 100
1, 38880, Note_on_c, 9, 55, 100
1, 38880, Note_on_c, 9, 30, 100
1, 38880, Note_on_c, 10, 33, 66
1, 38880, Note_on_c, 10, 45, 66
1, 38880, Note_on_c, 11, 33, 66
1, 38880, Note_on_c, 11, 45, 66
1, 38880, Note_on_c, 12, 33, 66
1, 38880, Note_on_c, 12, 45, 66
1, 38890, Note_on_c, 9, 83, 0
1, 38890, Note_on_c, 9, 55, 0
1, 38890, Note_on_c, 9, 30, 0
1, 38908, Control_c, 9, 11, 102
1, 38938, Control_c, 9, 11, 102
1, 38968, Control_c, 9, 11, 101
1, 38998, Control_c, 9, 11, 101
1, 39028, Control_c, 9, 11, 100
1, 39058, Control_c, 9, 11, 100
1, 39088, Control_c, 9, 11, 99
1, 39118, Control_c, 9, 11, 99
1, 39148, Control_c, 9, 11, 98
1, 39178, Control_c, 9, 11, 98
1, 39208, Control_c, 9, 11, 97
1, 39238, Control_c, 9, 11, 97
1, 39268, Control_c, 9, 11, 96
1, 39298, Control_c, 9, 11, 95
1, 39312, Note_on_c, 10, 33, 0
1, 39312, Note_on_c, 10, 45, 0
1, 39312, Note_on_c, 11, 33, 0
1, 39312, Note_on_c, 11, 45, 0
1, 39312, Note_on_c, 12, 33, 0
1, 39312, Note_on_c, 12, 45, 0
1, 39328, Control_c, 9, 11, 95
1, 39358, Control_c, 9, 11, 94
1, 39360, Note_on_c, 9, 30, 100
1, 39360, Note_on_c, 9, 83, 100
1, 39360, Note_on_c, 9, 55, 100
1, 39360, Note_on_c, 10, 33, 33
1, 39360, Note_on_c, 10, 45, 33
1, 39360, Note_on_c, 11, 33, 33
1, 39360, Note_on_c, 11, 45, 33
1, 39360, Note_on_c, 12, 33, 33
1, 39360, Note_on_c, 12, 45, 33
1, 39370, Note_on_c, 9, 30, 0
1, 39370, Note_on_c, 9, 83, 0
1, 39370, Note_on_c, 9, 55, 0
1, 39388, Control_c, 9, 11, 94
1, 39418, Control_c, 9, 11, 93
1, 39448, Control_c, 9, 11, 93
1, 39478, Control_c, 9, 11, 92
1, 39508, Control_c, 9, 11, 92
1, 39538, Control_c, 9, 11, 91
1, 39568, Control_c, 9, 11, 91
1, 39598, Control_c, 9, 11, 90
1, 39628, Control_c, 9, 11, 90
1, 39643, Control_c, 9, 11, 95
1, 39668, Control_c, 9, 11, 91
1, 39698, Control_c, 9, 11, 89
1, 39728, Control_c, 9, 11, 87
1, 39744, Note_on_c, 2, 62, 0
1, 39758, Control_c, 9, 11, 85
1, 39788, Control_c, 9, 11, 83
1, 39792, Note_on_c, 10, 33, 0
1, 39792, Note_on_c, 10, 45, 0
1, 39792, Note_on_c, 11, 33, 0
1, 39792, Note_on_c, 11, 45, 0
1, 39792, Note_on_c, 12, 33, 0
1, 39792, Note_on_c, 12, 45, 0
1, 39818, Control_c, 9, 11, 81
1, 39840, Note_on_c, 7, 33, 0
1, 39840, Note_on_c, 7, 45, 0
1, 39840, Note_on_c, 8, 33, 0
1, 39840, Note_on_c, 8, 45, 0
1, 39840, Note_on_c, 2, 59, 127
1, 39840, Note_on_c, 7, 45, 117
1, 39840, Note_on_c, 7, 33, 117
1, 39840, Note_on_c, 8, 45, 117
1, 39840, Note_on_c, 8, 33, 117
1, 39840, Note_on_c, 9, 83, 100
1, 39840, Note_on_c, 9, 55, 100
1, 39840, Note_on_c, 9, 30, 100
1, 39840, Note_on_c, 10, 33, 66
1, 39840, Note_on_c, 10, 45, 66
1, 39840, Note_on_c, 11, 33, 66
1, 39840, Note_on_c, 11, 45, 66
1, 39840, Note_on_c, 12, 33, 66
1, 39840, Note_on_c, 12, 45, 66
1, 39848, Control_c, 9, 11, 79
1, 39850, Note_on_c, 9, 83, 0
1, 39850, Note_on_c, 9, 55, 0
1, 39850, Note_on_c, 9, 30, 0
1, 39878, Control_c, 9, 11, 77
1, 39908, Control_c, 9, 11, 74
1, 39931, Control_c, 9, 11, 70
1, 39961, Control_c, 9, 11, 69
1, 39991, Control_c, 9, 11, 67
1, 40021, Control_c, 9, 11, 66
1, 40051, Control_c, 9, 11, 64
1, 40081, Control_c, 9, 11, 63
1, 40111, Control_c, 9, 11, 61
1, 40141, Control_c, 9, 11, 59
1, 40171, Control_c, 9, 11, 58
1, 40201, Control_c, 9, 11, 56
1, 40231, Control_c, 9, 11, 55
1, 40261, Control_c, 9, 11, 53
1, 40272, Note_on_c, 2, 59, 0
1, 40272, Note_on_c, 10, 33, 0
1, 40272, Note_on_c, 10, 45, 0
1, 40272, Note_on_c, 11, 33, 0
1, 40272, Note_on_c, 11, 45, 0
1, 40272, Note_on_c, 12, 33, 0
1, 40272, Note_on_c, 12, 45, 0
1, 40291, Control_c, 9, 11, 51
1, 40320, Note_on_c, 7, 45, 0
1, 40320, Note_on_c, 7, 33, 0
1, 40320, Note_on_c, 8, 45, 0
1, 40320, Note_on_c, 8, 33, 0
1, 40320, Note_on_c, 2, 55, 127
1, 40320, Program_c, 3, 51
1, 40320, Program_c, 4, 50
1, 40320, Note_on_c, 6, 69, 100
1, 40320, Note_on_c, 7, 45, 117
1, 40320, Note_on_c, 7, 33, 117
1, 40320, Note_on_c, 8, 45, 117
1, 40320, Note_on_c, 8, 33, 117
1, 40320, Note_on_c, 9, 30, 100
1, 40320, Note_on_c, 9, 83, 100
1, 40320, Note_on_c, 9, 55, 100
1, 40320, Note_on_c, 10, 33, 66
1, 40320, Note_on_c, 10, 45, 66
1, 40320, Note_on_c, 11, 33, 66
1, 40320, Note_on_c, 11, 45, 66
1, 40320, Note_on_c, 12, 33, 66
1, 40320, Note_on_c, 12, 45, 66
1, 40321, Control_c, 9, 11, 50
1, 40330, Note_on_c, 9, 30, 0
1, 40330, Note_on_c, 9, 83, 0
1, 40330, Note_on_c, 9, 55, 0
1, 40351, Control_c, 9, 11, 48
1, 40381, Control_c, 9, 11, 47
1, 40411, Control_c, 9, 11, 45
1, 40441, Control_c, 9, 11, 43
1, 40471, Control_c, 9, 11, 42
1, 40501, Control_c, 9, 11, 40
1, 40531, Control_c, 9, 11, 39
1, 40561, Control_c, 9, 11, 37
1, 40591, Control_c, 9, 11, 35
1, 40621, Control_c, 9, 11, 34
1, 40651, Control_c, 9, 11, 32
1, 40681, Control_c, 9, 11, 31
1, 40711, Control_c, 9, 11, 29
1, 40741, Control_c, 9, 11, 27
1, 40752, Note_on_c, 10, 33, 0
1, 40752, Note_on_c, 10, 45, 0
1, 40752, Note_on_c, 11, 33, 0
1, 40752, Note_on_c, 11, 45, 0
1, 40752, Note_on_c, 12, 33, 0
1, 40752, Note_on_c, 12, 45, 0
1, 40771, Control_c, 9, 11, 26
1, 40800, Note_on_c, 9, 30, 100
1, 40800, Note_on_c, 9, 83, 100
1, 40800, Note_on_c, 9, 55, 100
1, 40800, Note_on_c, 10, 33, 31
1, 40800, Note_on_c, 10, 45, 31
1, 40800, Note_on_c, 11, 33, 31
1, 40800, Note_on_c, 11, 45, 31
1, 40800, Note_on_c, 12, 33, 31
1, 40800, Note_on_c, 12, 45, 31
1, 40801, Control_c, 9, 11, 24
1, 40810, Note_on_c, 9, 30, 0
1, 40810, Note_on_c, 9, 83, 0
1, 40810, Note_on_c, 9, 55, 0
1, 40831, Control_c, 9, 11, 23
1, 40861, Control_c, 9, 11, 21
1, 40868, Control_c, 9, 11, 19
1, 40898, Control_c, 9, 11, 19
1, 40928, Control_c, 9, 11, 18
1, 40958, Control_c, 9, 11, 17
1, 40968, Note_on_c, 2, 55, 0
1, 40988, Control_c, 9, 11, 16
1, 41018, Control_c, 9, 11, 16
1, 41040, Note_on_c, 2, 52, 127
1, 41048, Control_c, 9, 11, 15
1, 41078, Control_c, 9, 11, 14
1, 41108, Control_c, 9, 11, 13
1, 41138, Control_c, 9, 11, 12
1, 41168, Control_c, 9, 11, 12
1, 41198, Control_c, 9, 11, 11
1, 41228, Control_c, 9, 11, 10
1, 41232, Note_on_c, 10, 33, 0
1, 41232, Note_on_c, 10, 45, 0
1, 41232, Note_on_c, 11, 33, 0
1, 41232, Note_on_c, 11, 45, 0
1, 41232, Note_on_c, 12, 33, 0
1, 41232, Note_on_c, 12, 45, 0
1, 41256, Note_on_c, 2, 52, 0
1, 41258, Control_c, 9, 11, 9
1, 41280, Note_on_c, 7, 45, 0
1, 41280, Note_on_c, 7, 33, 0
1, 41280, Note_on_c, 8, 45, 0
1, 41280, Note_on_c, 8, 33, 0
1, 41280, Note_on_c, 2, 55, 127
1, 41280, Note_on_c, 7, 45, 117
1, 41280, Note_on_c, 7, 33, 117
1, 41280, Note_on_c, 8, 45, 117
1, 41280, Note_on_c, 8, 33, 117
1, 41280, Note_on_c, 9, 83, 100
1, 41280, Note_on_c, 9, 55, 100
1, 41280, Note_on_c, 9, 30, 100
1, 41280, Note_on_c, 10, 33, 66
1, 41280, Note_on_c, 10, 45, 66
1, 41280, Note_on_c, 11, 33, 66
1, 41280, Note_on_c, 11, 45, 66
1, 41280, Note_on_c, 12, 33, 66
1, 41280, Note_on_c, 12, 45, 66
1, 41288, Control_c, 9, 11, 8
1, 41290, Note_on_c, 9, 83, 0
1, 41290, Note_on_c, 9, 55, 0
1, 41290, Note_on_c, 9, 30, 0
1, 41318, Control_c, 9, 11, 8
1, 41348, Control_c, 9, 11, 7
1, 41378, Control_c, 9, 11, 6
1, 41408, Control_c, 9, 11, 5
1, 41438, Control_c, 9, 11, 4
1, 41468, Control_c, 9, 11, 4
1, 41498, Control_c, 9, 11, 3
1, 41534, Control_c, 9, 11, 5
1, 41564, Control_c, 9, 11, 4
1, 41594, Control_c, 9, 11, 4
1, 41616, Note_on_c, 6, 69, 0
1, 41624, Control_c, 9, 11, 3
1, 41654, Control_c, 9, 11, 3
1, 41684, Control_c, 9, 11, 2
1, 41712, Note_on_c, 2, 55, 0
1, 41712, Note_on_c, 10, 33, 0
1, 41712, Note_on_c, 10, 45, 0
1, 41712, Note_on_c, 11, 33, 0
1, 41712, Note_on_c, 11, 45, 0
1, 41712, Note_on_c, 12, 33, 0
1, 41712, Note_on_c, 12, 45, 0
1, 41742, Control_c, 9, 11, 48
1, 41760, Note_on_c, 7, 45, 0
1, 41760, Note_on_c, 7, 33, 0
1, 41760, Note_on_c, 8, 45, 0
1, 41760, Note_on_c, 8, 33, 0
1, 41760, Note_on_c, 7, 33, 117
1, 41760, Note_on_c, 7, 45, 117
1, 41760, Note_on_c, 8, 33, 117
1, 41760, Note_on_c, 8, 45, 117
1, 41760, Note_on_c, 9, 55, 100
1, 41760, Note_on_c, 9, 30, 100
1, 41760, Note_on_c, 9, 83, 100
1, 41760, Note_on_c, 10, 33, 66
1, 41760, Note_on_c, 10, 45, 66
1, 41760, Note_on_c, 11, 33, 66
1, 41760, Note_on_c, 11, 45, 66
1, 41760, Note_on_c, 12, 33, 66
1, 41760, Note_on_c, 12, 45, 66
1, 41770, Note_on_c, 9, 55, 0
1, 41770, Note_on_c, 9, 30, 0
1, 41770, Note_on_c, 9, 83, 0
1, 41788, Control_c, 9, 11, 102
1, 41818, Control_c, 9, 11, 102
1, 41848, Control_c, 9, 11, 101
1, 41878, Control_c, 9, 11, 101
1, 41908, Control_c, 9, 11, 100
1, 41938, Control_c, 9, 11, 100
1, 41968, Control_c, 9, 11, 99
1, 41998, Control_c, 9, 11, 99
1, 42028, Control_c, 9, 11, 98
1, 42058, Control_c, 9, 11, 98
1, 42088, Control_c, 9, 11, 97
1, 42118, Control_c, 9, 11, 97
1, 42148, Control_c, 9, 11, 96
1, 42178, Control_c, 9, 11, 95
1, 42192, Note_on_c, 10, 33, 0
1, 42192, Note_on_c, 10, 45, 0
1, 42192, Note_on_c, 11, 33, 0
1, 42192, Note_on_c, 11, 45, 0
1, 42192, Note_on_c, 12, 33, 0
1, 42192, Note_on_c, 12, 45, 0
1, 42208, Control_c, 9, 11, 95
1, 42238, Control_c, 9, 11, 94
1, 42240, Note_on_c, 3, 57, 100
1, 42240, Note_on_c, 4, 57, 127
1, 42240, Note_on_c, 5, 57, 127
1, 42240, Note_on_c, 9, 30, 100
1, 42240, Note_on_c, 9, 83, 100
1, 42240, Note_on_c, 9, 55, 100
1, 42240, Note_on_c, 10, 45, 33
1, 42240, Note_on_c, 10, 33, 33
1, 42240, Note_on_c, 11, 45, 33
1, 42240, Note_on_c, 11, 33, 33
1, 42240, Note_on_c, 12, 45, 33
1, 42240, Note_on_c, 12, 33, 33
1, 42250, Note_on_c, 9, 30, 0
1, 42250, Note_on_c, 9, 83, 0
1, 42250, Note_on_c, 9, 55, 0
1, 42268, Control_c, 9, 11, 94
1, 42298, Control_c, 9, 11, 93
1, 42328, Control_c, 9, 11, 93
1, 42358, Control_c, 9, 11, 92
1, 42388, Control_c, 9, 11, 92
1, 42418, Control_c, 9, 11, 91
1, 42448, Control_c, 9, 11, 91
1, 42456, Note_on_c, 3, 57, 0
1, 42456, Note_on_c, 4, 57, 0
1, 42456, Note_on_c, 5, 57, 0
1, 42478, Control_c, 9, 11, 90
1, 42480, Note_on_c, 3, 59, 100
1, 42480, Note_on_c, 4, 59, 127
1, 42480, Note_on_c, 5, 59, 127
1, 42508, Control_c, 9, 11, 90
1, 42523, Control_c, 9, 11, 95
1, 42548, Control_c, 9, 11, 91
1, 42578, Control_c, 9, 11, 89
1, 42608, Control_c, 9, 11, 87
1, 42638, Control_c, 9, 11, 85
1, 42668, Control_c, 9, 11, 83
1, 42672, Note_on_c, 10, 45, 0
1, 42672, Note_on_c, 10, 33, 0
1, 42672, Note_on_c, 11, 45, 0
1, 42672, Note_on_c, 11, 33, 0
1, 42672, Note_on_c, 12, 45, 0
1, 42672, Note_on_c, 12, 33, 0
1, 42696, Note_on_c, 3, 59, 0
1, 42696, Note_on_c, 4, 59, 0
1, 42696, Note_on_c, 5, 59, 0
1, 42698, Control_c, 9, 11, 81
1, 42720, Note_on_c, 7, 33, 0
1, 42720, Note_on_c, 7, 45, 0
1, 42720, Note_on_c, 8, 33, 0
1, 42720, Note_on_c, 8, 45, 0
1, 42720, Note_on_c, 3, 60, 100
1, 42720, Note_on_c, 4, 60, 127
1, 42720, Note_on_c, 5, 60, 127
1, 42720, Note_on_c, 7, 33, 117
1, 42720, Note_on_c, 7, 45, 117
1, 42720, Note_on_c, 8, 33, 117
1, 42720, Note_on_c, 8, 45, 117
1, 42720, Note_on_c, 9, 83, 100
1, 42720, Note_on_c, 9, 55, 100
1, 42720, Note_on_c, 9, 30, 100
1, 42720, Note_on_c, 10, 45, 66
1, 42720, Note_on_c, 10, 33, 66
1, 42720, Note_on_c, 11, 45, 66
1, 42720, Note_on_c, 11, 33, 66
1, 42720, Note_on_c, 12, 45, 66
1, 42720, Note_on_c, 12, 33, 66
1, 42728, Control_c, 9, 11, 79
1, 42730, Note_on_c, 9, 83, 0
1, 42730, Note_on_c, 9, 55, 0
1, 42730, Note_on_c, 9, 30, 0
1, 42758, Control_c, 9, 11, 77
1, 42788, Control_c, 9, 11, 74
1, 42811, Control_c, 9, 11, 70
1, 42841, Control_c, 9, 11, 69
1, 42871, Control_c, 9, 11, 67
1, 42901, Control_c, 9, 11, 66
1, 42931, Control_c, 9, 11, 64
1, 42936, Note_on_c, 3, 60, 0
1, 42936, Note_on_c, 4, 60, 0
1, 42936, Note_on_c, 5, 60, 0
1, 42960, Note_on_c, 3, 64, 100
1, 42960, Note_on_c, 4, 64, 127
1, 42960, Note_on_c, 5, 64, 127
1, 42961, Control_c, 9, 11, 63
1, 42991, Control_c, 9, 11, 61
1, 43021, Control_c, 9, 11, 59
1, 43051, Control_c, 9, 11, 58
1, 43081, Control_c, 9, 11, 56
1, 43111, Control_c, 9, 11, 55
1, 43141, Control_c, 9, 11, 53
1, 43152, Note_on_c, 10, 45, 0
1, 43152, Note_on_c, 10, 33, 0
1, 43152, Note_on_c, 11, 45, 0
1, 43152, Note_on_c, 11, 33, 0
1, 43152, Note_on_c, 12, 45, 0
1, 43152, Note_on_c, 12, 33, 0
1, 43171, Control_c, 9, 11, 51
1, 43176, Note_on_c, 3, 64, 0
1, 43176, Note_on_c, 4, 64, 0
1, 43176, Note_on_c, 5, 64, 0
1, 43200, Note_on_c, 7, 33, 0
1, 43200, Note_on_c, 7, 45, 0
1, 43200, Note_on_c, 8, 33, 0
1, 43200, Note_on_c, 8, 45, 0
1, 43200, Note_on_c, 3, 62, 100
1, 43200, Note_on_c, 4, 62, 127
1, 43200, Note_on_c, 5, 62, 127
1, 43200, Note_on_c, 6, 69, 100
1, 43200, Note_on_c, 7, 33, 117
1, 43200, Note_on_c, 7, 45, 117
1, 43200, Note_on_c, 8, 33, 117
1, 43200, Note_on_c, 8, 45, 117
1, 43200, Note_on_c, 9, 55, 100
1, 43200, Note_on_c, 9, 30, 100
1, 43200, Note_on_c, 9, 83, 100
1, 43200, Note_on_c, 10, 45, 66
1, 43200, Note_on_c, 10, 33, 66
1, 43200, Note_on_c, 11, 45, 66
1, 43200, Note_on_c, 11, 33, 66
1, 43200, Note_on_c, 12, 45, 66
1, 43200, Note_on_c, 12, 33, 66
1, 43201, Control_c, 9, 11, 50
1, 43210, Note_on_c, 9, 55, 0
1, 43210, Note_on_c, 9, 30, 0
1, 43210, Note_on_c, 9, 83, 0
1, 43231, Control_c, 9, 11, 48
1, 43261, Control_c, 9, 11, 47
1, 43291, Control_c, 9, 11, 45
1, 43321, Control_c, 9, 11, 43
1, 43351, Control_c, 9, 11, 42
1, 43381, Control_c, 9, 11, 40
1, 43411, Control_c, 9, 11, 39
1, 43416, Note_on_c, 3, 62, 0
1, 43416, Note_on_c, 4, 62, 0
1, 43416, Note_on_c, 5, 62, 0
1, 43440, Note_on_c, 3, 60, 100
1, 43440, Note_on_c, 4, 60, 127
1, 43440, Note_on_c, 5, 60, 127
1, 43441, Control_c, 9, 11, 37
1, 43471, Control_c, 9, 11, 35
1, 43501, Control_c, 9, 11, 34
1, 43531, Control_c, 9, 11, 32
1, 43561, Control_c, 9, 11, 31
1, 43591, Control_c, 9, 11, 29
1, 43621, Control_c, 9, 11, 27
1, 43632, Note_on_c, 10, 45, 0
1, 43632, Note_on_c, 10, 33, 0
1, 43632, Note_on_c, 11, 45, 0
1, 43632, Note_on_c, 11, 33, 0
1, 43632, Note_on_c, 12, 45, 0
1, 43632, Note_on_c, 12, 33, 0
1, 43651, Control_c, 9, 11, 26
1, 43656, Note_on_c, 3, 60, 0
1, 43656, Note_on_c, 4, 60, 0
1, 43656, Note_on_c, 5, 60, 0
1, 43680, Note_on_c, 3, 59, 100
1, 43680, Note_on_c, 4, 59, 127
1, 43680, Note_on_c, 5, 59, 127
1, 43680, Note_on_c, 9, 83, 100
1, 43680, Note_on_c, 9, 55, 100
1, 43680, Note_on_c, 9, 30, 100
1, 43680, Note_on_c, 10, 45, 33
1, 43680, Note_on_c, 10, 33, 33
1, 43680, Note_on_c, 11, 45, 33
1, 43680, Note_on_c, 11, 33, 33
1, 43680, Note_on_c, 12, 45, 33
1, 43680, Note_on_c, 12, 33, 33
1, 43681, Control_c, 9, 11, 24
1, 43690, Note_on_c, 9, 83, 0
1, 43690, Note_on_c, 9, 55, 0
1, 43690, Note_on_c, 9, 30, 0
1, 43711, Control_c, 9, 11, 23
1, 43741, Control_c, 9, 11, 21
1, 43748, Control_c, 9, 11, 19
1, 43778, Control_c, 9, 11, 19
1, 43808, Control_c, 9, 11, 18
1, 43838, Control_c, 9, 11, 17
1, 43868, Control_c, 9, 11, 16
1, 43896, Note_on_c, 3, 59, 0
1, 43896, Note_on_c, 4, 59, 0
1, 43896, Note_on_c, 5, 59, 0
1, 43898, Control_c, 9, 11, 16
1, 43920, Note_on_c, 3, 60, 100
1, 43920, Note_on_c, 4, 60, 127
1, 43920, Note_on_c, 5, 60, 127
1, 43928, Control_c, 9, 11, 15
1, 43958, Control_c, 9, 11, 14
1, 43988, Control_c, 9, 11, 13
1, 44018, Control_c, 9, 11, 12
1, 44048, Control_c, 9, 11, 12
1, 44078, Control_c, 9, 11, 11
1, 44108, Control_c, 9, 11, 10
1, 44112, Note_on_c, 10, 45, 0
1, 44112, Note_on_c, 10, 33, 0
1, 44112, Note_on_c, 11, 45, 0
1, 44112, Note_on_c, 11, 33, 0
1, 44112, Note_on_c, 12, 45, 0
1, 44112, Note_on_c, 12, 33, 0
1, 44136, Note_on_c, 3, 60, 0
1, 44136, Note_on_c, 4, 60, 0
1, 44136, Note_on_c, 5, 60, 0
1, 44138, Control_c, 9, 11, 9
1, 44160, Note_on_c, 7, 33, 0
1, 44160, Note_on_c, 7, 45, 0
1, 44160, Note_on_c, 8, 33, 0
1, 44160, Note_on_c, 8, 45, 0
1, 44160, Note_on_c, 3, 57, 100
1, 44160, Note_on_c, 4, 57, 127
1, 44160, Note_on_c, 5, 57, 127
1, 44160, Note_on_c, 7, 45, 117
1, 44160, Note_on_c, 7, 33, 117
1, 44160, Note_on_c, 8, 45, 117
1, 44160, Note_on_c, 8, 33, 117
1, 44160, Note_on_c, 9, 30, 100
1, 44160, Note_on_c, 9, 83, 100
1, 44160, Note_on_c, 9, 55, 100
1, 44160, Note_on_c, 10, 45, 66
1, 44160, Note_on_c, 10, 33, 66
1, 44160, Note_on_c, 11, 45, 66
1, 44160, Note_on_c, 11, 33, 66
1, 44160, Note_on_c, 12, 45, 66
1, 44160, Note_on_c, 12, 33, 66
1, 44168, Control_c, 9, 11, 8
1, 44170, Note_on_c, 9, 30, 0
1, 44170, Note_on_c, 9, 83, 0
1, 44170, Note_on_c, 9, 55, 0
1, 44198, Control_c, 9, 11, 8
1, 44228, Control_c, 9, 11, 7
1, 44258, Control_c, 9, 11, 6
1, 44288, Control_c, 9, 11, 5
1, 44318, Control_c, 9, 11, 4
1, 44348, Control_c, 9, 11, 4
1, 44378, Control_c, 9, 11, 3
1, 44414, Control_c, 9, 11, 5
1, 44444, Control_c, 9, 11, 4
1, 44474, Control_c, 9, 11, 4
1, 44496, Note_on_c, 6, 69, 0
1, 44504, Control_c, 9, 11, 3
1, 44534, Control_c, 9, 11, 3
1, 44564, Control_c, 9, 11, 2
1, 44592, Note_on_c, 3, 57, 0
1, 44592, Note_on_c, 4, 57, 0
1, 44592, Note_on_c, 5, 57, 0
1, 44592, Note_on_c, 10, 45, 0
1, 44592, Note_on_c, 10, 33, 0
1, 44592, Note_on_c, 11, 45, 0
1, 44592, Note_on_c, 11, 33, 0
1, 44592, Note_on_c, 12, 45, 0
1, 44592, Note_on_c, 12, 33, 0
1, 44622, Control_c, 9, 11, 48
1, 44640, Note_on_c, 7, 45, 0
1, 44640, Note_on_c, 7, 33, 0
1, 44640, Note_on_c, 8, 45, 0
1, 44640, Note_on_c, 8, 33, 0
1, 44640, Note_on_c, 7, 33, 117
1, 44640, Note_on_c, 7, 45, 117
1, 44640, Note_on_c, 8, 33, 117
1, 44640, Note_on_c, 8, 45, 117
1, 44640, Note_on_c, 9, 83, 100
1, 44640, Note_on_c, 9, 55, 100
1, 44640, Note_on_c, 9, 30, 100
1, 44640, Note_on_c, 10, 33, 66
1, 44640, Note_on_c, 10, 45, 66
1, 44640, Note_on_c, 11, 33, 66
1, 44640, Note_on_c, 11, 45, 66
1, 44640, Note_on_c, 12, 33, 66
1, 44640, Note_on_c, 12, 45, 66
1, 44650, Note_on_c, 9, 83, 0
1, 44650, Note_on_c, 9, 55, 0
1, 44650, Note_on_c, 9, 30, 0
1, 44668, Control_c, 9, 11, 102
1, 44698, Control_c, 9, 11, 102
1, 44728, Control_c, 9, 11, 101
1, 44758, Control_c, 9, 11, 101
1, 44788, Control_c, 9, 11, 100
1, 44818, Control_c, 9, 11, 100
1, 44848, Control_c, 9, 11, 99
1, 44878, Control_c, 9, 11, 99
1, 44908, Control_c, 9, 11, 98
1, 44938, Control_c, 9, 11, 98
1, 44968, Control_c, 9, 11, 97
1, 44998, Control_c, 9, 11, 97
1, 45028, Control_c, 9, 11, 96
1, 45058, Control_c, 9, 11, 95
1, 45072, Note_on_c, 10, 33, 0
1, 45072, Note_on_c, 10, 45, 0
1, 45072, Note_on_c, 11, 33, 0
1, 45072, Note_on_c, 11, 45, 0
1, 45072, Note_on_c, 12, 33, 0
1, 45072, Note_on_c, 12, 45, 0
1, 45088, Control_c, 9, 11, 95
1, 45118, Control_c, 9, 11, 94
1, 45120, Note_on_c, 3, 57, 100
1, 45120, Note_on_c, 3, 60, 100
1, 45120, Note_on_c, 4, 57, 127
1, 45120, Note_on_c, 4, 60, 127
1, 45120, Note_on_c, 5, 57, 127
1, 45120, Note_on_c, 5, 60, 127
1, 45120, Note_on_c, 9, 83, 100
1, 45120, Note_on_c, 9, 55, 100
1, 45120, Note_on_c, 9, 30, 100
1, 45120, Note_on_c, 10, 45, 32
1, 45120, Note_on_c, 10, 33, 32
1, 45120, Note_on_c, 11, 45, 32
1, 45120, Note_on_c, 11, 33, 32
1, 45120, Note_on_c, 12, 45, 32
1, 45120, Note_on_c, 12, 33, 32
1, 45130, Note_on_c, 9, 83, 0
1, 45130, Note_on_c, 9, 55, 0
1, 45130, Note_on_c, 9, 30, 0
1, 45148, Control_c, 9, 11, 94
1, 45178, Control_c, 9, 11, 93
1, 45208, Control_c, 9, 11, 93
1, 45238, Control_c, 9, 11, 92
1, 45268, Control_c, 9, 11, 92
1, 45298, Control_c, 9, 11, 91
1, 45328, Control_c, 9, 11, 91
1, 45336, Note_on_c, 3, 57, 0
1, 45336, Note_on_c, 3, 60, 0
1, 45336, Note_on_c, 4, 57, 0
1, 45336, Note_on_c, 4, 60, 0
1, 45336, Note_on_c, 5, 57, 0
1, 45336, Note_on_c, 5, 60, 0
1, 45358, Control_c, 9, 11, 90
1, 45360, Note_on_c, 3, 59, 100
1, 45360, Note_on_c, 3, 62, 100
1, 45360, Note_on_c, 4, 59, 127
1, 45360, Note_on_c, 4, 62, 127
1, 45360, Note_on_c, 5, 59, 127
1, 45360, Note_on_c, 5, 62, 127
1, 45388, Control_c, 9, 11, 90
1, 45403, Control_c, 9, 11, 95
1, 45428, Control_c, 9, 11, 91
1, 45458, Control_c, 9, 11, 89
1, 45488, Control_c, 9, 11, 87
1, 45518, Control_c, 9, 11, 85
1, 45548, Control_c, 9, 11, 83
1, 45552, Note_on_c, 10, 45, 0
1, 45552, Note_on_c, 10, 33, 0
1, 45552, Note_on_c, 11, 45, 0
1, 45552, Note_on_c, 11, 33, 0
1, 45552, Note_on_c, 12, 45, 0
1, 45552, Note_on_c, 12, 33, 0
1, 45576, Note_on_c, 3, 59, 0
1, 45576, Note_on_c, 3, 62, 0
1, 45576, Note_on_c, 4, 59, 0
1, 45576, Note_on_c, 4, 62, 0
1, 45576, Note_on_c, 5, 59, 0
1, 45576, Note_on_c, 5, 62, 0
1, 45578, Control_c, 9, 11, 81
1, 45600, Note_on_c, 7, 33, 0
1, 45600, Note_on_c, 7, 45, 0
1, 45600, Note_on_c, 8, 33, 0
1, 45600, Note_on_c, 8, 45, 0
1, 45600, Note_on_c, 3, 60, 100
1, 45600, Note_on_c, 3, 64, 100
1, 45600, Note_on_c, 4, 60, 127
1, 45600, Note_on_c, 4, 64, 127
1, 45600, Note_on_c, 5, 60, 127
1, 45600, Note_on_c, 5, 64, 127
1, 45600, Note_on_c, 7, 33, 117
1, 45600, Note_on_c, 7, 45, 117
1, 45600, Note_on_c, 8, 33, 117
1, 45600, Note_on_c, 8, 45, 117
1, 45600, Note_on_c, 9, 55, 100
1, 45600, Note_on_c, 9, 30, 100
1, 45600, Note_on_c, 9, 83, 100
1, 45600, Note_on_c, 10, 45, 66
1, 45600, Note_on_c, 10, 33, 66
1, 45600, Note_on_c, 11, 45, 66
1, 45600, Note_on_c, 11, 33, 66
1, 45600, Note_on_c, 12, 45, 66
1, 45600, Note_on_c, 12, 33, 66
1, 45608, Control_c, 9, 11, 79
1, 45610, Note_on_c, 9, 55, 0
1, 45610, Note_on_c, 9, 30, 0
1, 45610, Note_on_c, 9, 83, 0
1, 45638, Control_c, 9, 11, 77
1, 45668, Control_c, 9, 11, 74
1, 45691, Control_c, 9, 11, 70
1, 45721, Control_c, 9, 11, 69
1, 45751, Control_c, 9, 11, 67
1, 45781, Control_c, 9, 11, 66
1, 45811, Control_c, 9, 11, 64
1, 45816, Note_on_c, 3, 60, 0
1, 45816, Note_on_c, 3, 64, 0
1, 45816, Note_on_c, 4, 60, 0
1, 45816, Note_on_c, 4, 64, 0
1, 45816, Note_on_c, 5, 60, 0
1, 45816, Note_on_c, 5, 64, 0
1, 45840, Note_on_c, 3, 64, 100
1, 45840, Note_on_c, 3, 67, 100
1, 45840, Note_on_c, 4, 64, 127
1, 45840, Note_on_c, 4, 67, 127
1, 45840, Note_on_c, 5, 64, 127
1, 45840, Note_on_c, 5, 67, 127
1, 45841, Control_c, 9, 11, 63
1, 45871, Control_c, 9, 11, 61
1, 45901, Control_c, 9, 11, 59
1, 45931, Control_c, 9, 11, 58
1, 45961, Control_c, 9, 11, 56
1, 45991, Control_c, 9, 11, 55
1, 46021, Control_c, 9, 11, 53
1, 46032, Note_on_c, 10, 45, 0
1, 46032, Note_on_c, 10, 33, 0
1, 46032, Note_on_c, 11, 45, 0
1, 46032, Note_on_c, 11, 33, 0
1, 46032, Note_on_c, 12, 45, 0
1, 46032, Note_on_c, 12, 33, 0
1, 46051, Control_c, 9, 11, 51
1, 46056, Note_on_c, 3, 64, 0
1, 46056, Note_on_c, 3, 67, 0
1, 46056, Note_on_c, 4, 64, 0
1, 46056, Note_on_c, 4, 67, 0
1, 46056, Note_on_c, 5, 64, 0
1, 46056, Note_on_c, 5, 67, 0
1, 46080, Note_on_c, 7, 33, 0
1, 46080, Note_on_c, 7, 45, 0
1, 46080, Note_on_c, 8, 33, 0
1, 46080, Note_on_c, 8, 45, 0
1, 46080, Note_on_c, 3, 62, 100
1, 46080, Note_on_c, 3, 66, 100
1, 46080, Note_on_c, 4, 62, 127
1, 46080, Note_on_c, 4, 66, 127
1, 46080, Note_on_c, 5, 62, 127
1, 46080, Note_on_c, 5, 66, 127
1, 46080, Note_on_c, 6, 69, 100
1, 46080, Note_on_c, 7, 33, 117
1, 46080, Note_on_c, 7, 45, 117
1, 46080, Note_on_c, 8, 33, 117
1, 46080, Note_on_c, 8, 45, 117
1, 46080, Note_on_c, 9, 83, 100
1, 46080, Note_on_c, 9, 55, 100
1, 46080, Note_on_c, 9, 30, 100
1, 46080, Note_on_c, 10, 45, 66
1, 46080, Note_on_c, 10, 33, 66
1, 46080, Note_on_c, 11, 45, 66
1, 46080, Note_on_c, 11, 33, 66
1, 46080, Note_on_c, 12, 45, 66
1, 46080, Note_on_c, 12, 33, 66
1, 46081, Control_c, 9, 11, 50
1, 46090, Note_on_c, 9, 83, 0
1, 46090, Note_on_c, 9, 55, 0
1, 46090, Note_on_c, 9, 30, 0
1, 46111, Control_c, 9, 11, 48
1, 46141, Control_c, 9, 11, 47
1, 46171, Control_c, 9, 11, 45
1, 46201, Control_c, 9, 11, 43
1, 46231, Control_c, 9, 11, 42
1, 46261, Control_c, 9, 11, 40
1, 46291, Control_c, 9, 11, 39
1, 46296, Note_on_c, 3, 62, 0
1, 46296, Note_on_c, 3, 66, 0
1, 46296, Note_on_c, 4, 62, 0
1, 46296, Note_on_c, 4, 66, 0
1, 46296, Note_on_c, 5, 62, 0
1, 46296, Note_on_c, 5, 66, 0
1, 46320, Note_on_c, 3, 60, 100
1, 46320, Note_on_c, 3, 64, 100
1, 46320, Note_on_c, 4, 60, 127
1, 46320, Note_on_c, 4, 64, 127
1, 46320, Note_on_c, 5, 60, 127
1, 46320, Note_on_c, 5, 64, 127
1, 46321, Control_c, 9, 11, 37
1, 46351, Control_c, 9, 11, 35
1, 46381, Control_c, 9, 11, 34
1, 46411, Control_c, 9, 11, 32
1, 46441, Control_c, 9, 11, 31
1, 46471, Control_c, 9, 11, 29
1, 46501, Control_c, 9, 11, 27
1, 46512, Note_on_c, 10, 45, 0
1, 46512, Note_on_c, 10, 33, 0
1, 46512, Note_on_c, 11, 45, 0
1, 46512, Note_on_c, 11, 33, 0
1, 46512, Note_on_c, 12, 45, 0
1, 46512, Note_on_c, 12, 33, 0
1, 46531, Control_c, 9, 11, 26
1, 46536, Note_on_c, 3, 60, 0
1, 46536, Note_on_c, 3, 64, 0
1, 46536, Note_on_c, 4, 60, 0
1, 46536, Note_on_c, 4, 64, 0
1, 46536, Note_on_c, 5, 60, 0
1, 46536, Note_on_c, 5, 64, 0
1, 46560, Note_on_c, 3, 59, 100
1, 46560, Note_on_c, 3, 62, 100
1, 46560, Note_on_c, 4, 59, 127
1, 46560, Note_on_c, 4, 62, 127
1, 46560, Note_on_c, 5, 59, 127
1, 46560, Note_on_c, 5, 62, 127
1, 46560, Note_on_c, 9, 83, 100
1, 46560, Note_on_c, 9, 55, 100
1, 46560, Note_on_c, 9, 30, 100
1, 46560, Note_on_c, 10, 45, 33
1, 46560, Note_on_c, 10, 33, 33
1, 46560, Note_on_c, 11, 45, 33
1, 46560, Note_on_c, 11, 33, 33
1, 46560, Note_on_c, 12, 45, 33
1, 46560, Note_on_c, 12, 33, 33
1, 46561, Control_c, 9, 11, 24
1, 46570, Note_on_c, 9, 83, 0
1, 46570, Note_on_c, 9, 55, 0
1, 46570, Note_on_c, 9, 30, 0
1, 46591, Control_c, 9, 11, 23
1, 46621, Control_c, 9, 11, 21
1, 46628, Control_c, 9, 11, 19
1, 46658, Control_c, 9, 11, 19
1, 46688, Control_c, 9, 11, 18
1, 46718, Control_c, 9, 11, 17
1, 46748, Control_c, 9, 11, 16
1, 46776, Note_on_c, 3, 59, 0
1, 46776, Note_on_c, 3, 62, 0
1, 46776, Note_on_c, 4, 59, 0
1, 46776, Note_on_c, 4, 62, 0
1, 46776, Note_on_c, 5, 59, 0
1, 46776, Note_on_c, 5, 62, 0
1, 46778, Control_c, 9, 11, 16
1, 46800, Note_on_c, 3, 62, 100
1, 46800, Note_on_c, 3, 66, 100
1, 46800, Note_on_c, 4, 62, 127
1, 46800, Note_on_c, 4, 66, 127
1, 46800, Note_on_c, 5, 62, 127
1, 46800, Note_on_c, 5, 66, 127
1, 46808, Control_c, 9, 11, 15
1, 46838, Control_c, 9, 11, 14
1, 46868, Control_c, 9, 11, 13
1, 46898, Control_c, 9, 11, 12
1, 46928, Control_c, 9, 11, 12
1, 46958, Control_c, 9, 11, 11
1, 46988, Control_c, 9, 11, 10
1, 46992, Note_on_c, 10, 45, 0
1, 46992, Note_on_c, 10, 33, 0
1, 46992, Note_on_c, 11, 45, 0
1, 46992, Note_on_c, 11, 33, 0
1, 46992, Note_on_c, 12, 45, 0
1, 46992, Note_on_c, 12, 33, 0
1, 47016, Note_on_c, 3, 62, 0
1, 47016, Note_on_c, 3, 66, 0
1, 47016, Note_on_c, 4, 62, 0
1, 47016, Note_on_c, 4, 66, 0
1, 47016, Note_on_c, 5, 62, 0
1, 47016, Note_on_c, 5, 66, 0
1, 47018, Control_c, 9, 11, 9
1, 47040, Note_on_c, 7, 33, 0
1, 47040, Note_on_c, 7, 45, 0
1, 47040, Note_on_c, 8, 33, 0
1, 47040, Note_on_c, 8, 45, 0
1, 47040, Note_on_c, 2, 57, 127
1, 47040, Note_on_c, 3, 60, 100
1, 47040, Note_on_c, 3, 64, 100
1, 47040, Note_on_c, 4, 60, 127
1, 47040, Note_on_c, 4, 64, 127
1, 47040, Note_on_c, 5, 60, 127
1, 47040, Note_on_c, 5, 64, 127
1, 47040, Note_on_c, 7, 33, 117
1, 47040, Note_on_c, 7, 45, 117
1, 47040, Note_on_c, 8, 33, 117
1, 47040, Note_on_c, 8, 45, 117
1, 47040, Note_on_c, 9, 55, 100
1, 47040, Note_on_c, 9, 30, 100
1, 47040, Note_on_c, 9, 83, 100
1, 47040, Note_on_c, 10, 45, 66
1, 47040, Note_on_c, 10, 33, 66
1, 47040, Note_on_c, 11, 45, 66
1, 47040, Note_on_c, 11, 33, 66
1, 47040, Note_on_c, 12, 45, 66
1, 47040, Note_on_c, 12, 33, 66
1, 47048, Control_c, 9, 11, 8
1, 47050, Note_on_c, 9, 55, 0
1, 47050, Note_on_c, 9, 30, 0
1, 47050, Note_on_c, 9, 83, 0
1, 47078, Control_c, 9, 11, 8
1, 47108, Control_c, 9, 11, 7
1, 47138, Control_c, 9, 11, 6
1, 47168, Control_c, 9, 11, 5
1, 47198, Control_c, 9, 11, 4
1, 47228, Control_c, 9, 11, 4
1, 47258, Control_c, 9, 11, 3
1, 47294, Control_c, 9, 11, 5
1, 47324, Control_c, 9, 11, 4
1, 47354, Control_c, 9, 11, 4
1, 47376, Note_on_c, 6, 69, 0
1, 47384, Control_c, 9, 11, 3
1, 47414, Control_c, 9, 11, 3
1, 47444, Control_c, 9, 11, 2
1, 47472, Note_on_c, 2, 57, 0
1, 47472, Note_on_c, 3, 60, 0
1, 47472, Note_on_c, 3, 64, 0
1, 47472, Note_on_c, 4, 60, 0
1, 47472, Note_on_c, 4, 64, 0
1, 47472, Note_on_c, 5, 60, 0
1, 47472, Note_on_c, 5, 64, 0
1, 47472, Note_on_c, 10, 45, 0
1, 47472, Note_on_c, 10, 33, 0
1, 47472, Note_on_c, 11, 45, 0
1, 47472, Note_on_c, 11, 33, 0
1, 47472, Note_on_c, 12, 45, 0
1, 47472, Note_on_c, 12, 33, 0
1, 47502, Control_c, 9, 11, 48
1, 47520, Note_on_c, 7, 33, 0
1, 47520, Note_on_c, 7, 45, 0
1, 47520, Note_on_c, 8, 33, 0
1, 47520, Note_on_c, 8, 45, 0
1, 47520, Note_on_c, 2, 60, 127
1, 47520, Note_on_c, 7, 45, 117
1, 47520, Note_on_c, 7, 33, 117
1, 47520, Note_on_c, 8, 45, 117
1, 47520, Note_on_c, 8, 33, 117
1, 47520, Note_on_c, 9, 83, 100
1, 47520, Note_on_c, 9, 55, 100
1, 47520, Note_on_c, 9, 30, 100
1, 47520, Note_on_c, 10, 33, 66
1, 47520, Note_on_c, 10, 45, 66
1, 47520, Note_on_c, 11, 33, 66
1, 47520, Note_on_c, 11, 45, 66
1, 47520, Note_on_c, 12, 33, 66
1, 47520, Note_on_c, 12, 45, 66
1, 47530, Note_on_c, 9, 83, 0
1, 47530, Note_on_c, 9, 55, 0
1, 47530, Note_on_c, 9, 30, 0
1, 47548, Control_c, 9, 11, 102
1, 47578, Control_c, 9, 11, 102
1, 47608, Control_c, 9, 11, 101
1, 47638, Control_c, 9, 11, 101
1, 47668, Control_c, 9, 11, 100
1, 47698, Control_c, 9, 11, 100
1, 47728, Control_c, 9, 11, 99
1, 47758, Control_c, 9, 11, 99
1, 47788, Control_c, 9, 11, 98
1, 47818, Control_c, 9, 11, 98
1, 47848, Control_c, 9, 11, 97
1, 47878, Control_c, 9, 11, 97
1, 47908, Control_c, 9, 11, 96
1, 47938, Control_c, 9, 11, 95
1, 47952, Note_on_c, 10, 33, 0
1, 47952, Note_on_c, 10, 45, 0
1, 47952, Note_on_c, 11, 33, 0
1, 47952, Note_on_c, 11, 45, 0
1, 47952, Note_on_c, 12, 33, 0
1, 47952, Note_on_c, 12, 45, 0
1, 47968, Control_c, 9, 11, 95
1, 47998, Control_c, 9, 11, 94
1, 48000, Note_on_c, 9, 83, 100
1, 48000, Note_on_c, 9, 55, 100
1, 48000, Note_on_c, 9, 30, 100
1, 48000, Note_on_c, 10, 33, 38
1, 48000, Note_on_c, 10, 45, 38
1, 48000, Note_on_c, 11, 33, 38
1, 48000, Note_on_c, 11, 45, 38
1, 48000, Note_on_c, 12, 33, 38
1, 48000, Note_on_c, 12, 45, 38
1, 48010, Note_on_c, 9, 83, 0
1, 48010, Note_on_c, 9, 55, 0
1, 48010, Note_on_c, 9, 30, 0
1, 48028, Control_c, 9, 11, 94
1, 48058, Control_c, 9, 11, 93
1, 48088, Control_c, 9, 11, 93
1, 48118, Control_c, 9, 11, 92
1, 48148, Control_c, 9, 11, 92
1, 48178, Control_c, 9, 11, 91
1, 48208, Control_c, 9, 11, 91
1, 48238, Control_c, 9, 11, 90
1, 48268, Control_c, 9, 11, 90
1, 48283, Control_c, 9, 11, 95
1, 48308, Control_c, 9, 11, 91
1, 48338, Control_c, 9, 11, 89
1, 48368, Control_c, 9, 11, 87
1, 48384, Note_on_c, 2, 60, 0
1, 48398, Control_c, 9, 11, 85
1, 48428, Control_c, 9, 11, 83
1, 48432, Note_on_c, 10, 33, 0
1, 48432, Note_on_c, 10, 45, 0
1, 48432, Note_on_c, 11, 33, 0
1, 48432, Note_on_c, 11, 45, 0
1, 48432, Note_on_c, 12, 33, 0
1, 48432, Note_on_c, 12, 45, 0
1, 48458, Control_c, 9, 11, 81
1, 48480, Note_on_c, 7, 45, 0
1, 48480, Note_on_c, 7, 33, 0
1, 48480, Note_on_c, 8, 45, 0
1, 48480, Note_on_c, 8, 33, 0
1, 48480, Note_on_c, 2, 62, 127
1, 48480, Note_on_c, 7, 33, 117
1, 48480, Note_on_c, 7, 45, 117
1, 48480, Note_on_c, 8, 33, 117
1, 48480, Note_on_c, 8, 45, 117
1, 48480, Note_on_c, 9, 55, 100
1, 48480, Note_on_c, 9, 30, 100
1, 48480, Note_on_c, 9, 83, 100
1, 48480, Note_on_c, 10, 33, 66
1, 48480, Note_on_c, 10, 45, 66
1, 48480, Note_on_c, 11, 33, 66
1, 48480, Note_on_c, 11, 45, 66
1, 48480, Note_on_c, 12, 33, 66
1, 48480, Note_on_c, 12, 45, 66
1, 48488, Control_c, 9, 11, 79
1, 48490, Note_on_c, 9, 55, 0
1, 48490, Note_on_c, 9, 30, 0
1, 48490, Note_on_c, 9, 83, 0
1, 48518, Control_c, 9, 11, 77
1, 48548, Control_c, 9, 11, 74
1, 48571, Control_c, 9, 11, 70
1, 48601, Control_c, 9, 11, 69
1, 48631, Control_c, 9, 11, 67
1, 48661, Control_c, 9, 11, 66
1, 48691, Control_c, 9, 11, 64
1, 48721, Control_c, 9, 11, 63
1, 48751, Control_c, 9, 11, 61
1, 48781, Control_c, 9, 11, 59
1, 48811, Control_c, 9, 11, 58
1, 48841, Control_c, 9, 11, 56
1, 48871, Control_c, 9, 11, 55
1, 48901, Control_c, 9, 11, 53
1, 48912, Note_on_c, 2, 62, 0
1, 48912, Note_on_c, 10, 33, 0
1, 48912, Note_on_c, 10, 45, 0
1, 48912, Note_on_c, 11, 33, 0
1, 48912, Note_on_c, 11, 45, 0
1, 48912, Note_on_c, 12, 33, 0
1, 48912, Note_on_c, 12, 45, 0
1, 48931, Control_c, 9, 11, 51
1, 48960, Note_on_c, 7, 33, 0
1, 48960, Note_on_c, 7, 45, 0
1, 48960, Note_on_c, 8, 33, 0
1, 48960, Note_on_c, 8, 45, 0
1, 48960, Note_on_c, 2, 64, 127
1, 48960, Note_on_c, 6, 69, 100
1, 48960, Note_on_c, 7, 45, 117
1, 48960, Note_on_c, 7, 33, 117
1, 48960, Note_on_c, 8, 45, 117
1, 48960, Note_on_c, 8, 33, 117
1, 48960, Note_on_c, 9, 83, 100
1, 48960, Note_on_c, 9, 55, 100
1, 48960, Note_on_c, 9, 30, 100
1, 48960, Note_on_c, 10, 33, 66
1, 48960, Note_on_c, 10, 45, 66
1, 48960, Note_on_c, 11, 33, 66
1, 48960, Note_on_c, 11, 45, 66
1, 48960, Note_on_c, 12, 33, 66
1, 48960, Note_on_c, 12, 45, 66
1, 48961, Control_c, 9, 11, 50
1, 48970, Note_on_c, 9, 83, 0
1, 48970, Note_on_c, 9, 55, 0
1, 48970, Note_on_c, 9, 30, 0
1, 48991, Control_c, 9, 11, 48
1, 49021, Control_c, 9, 11, 47
1, 49051, Control_c, 9, 11, 45
1, 49081, Control_c, 9, 11, 43
1, 49111, Control_c, 9, 11, 42
1, 49141, Control_c, 9, 11, 40
1, 49171, Control_c, 9, 11, 39
1, 49201, Control_c, 9, 11, 37
1, 49231, Control_c, 9, 11, 35
1, 49261, Control_c, 9, 11, 34
1, 49291, Control_c, 9, 11, 32
1, 49321, Control_c, 9, 11, 31
1, 49351, Control_c, 9, 11, 29
1, 49381, Control_c, 9, 11, 27
1, 49392, Note_on_c, 10, 33, 0
1, 49392, Note_on_c, 10, 45, 0
1, 49392, Note_on_c, 11, 33, 0
1, 49392, Note_on_c, 11, 45, 0
1, 49392, Note_on_c, 12, 33, 0
1, 49392, Note_on_c, 12, 45, 0
1, 49411, Control_c, 9, 11, 26
1, 49440, Note_on_c, 9, 30, 100
1, 49440, Note_on_c, 9, 83, 100
1, 49440, Note_on_c, 9, 55, 100
1, 49440, Note_on_c, 10, 33, 37
1, 49440, Note_on_c, 10, 45, 37
1, 49440, Note_on_c, 11, 33, 37
1, 49440, Note_on_c, 11, 45, 37
1, 49440, Note_on_c, 12, 33, 37
1, 49440, Note_on_c, 12, 45, 37
1, 49441, Control_c, 9, 11, 24
1, 49450, Note_on_c, 9, 30, 0
1, 49450, Note_on_c, 9, 83, 0
1, 49450, Note_on_c, 9, 55, 0
1, 49471, Control_c, 9, 11, 23
1, 49501, Control_c, 9, 11, 21
1, 49508, Control_c, 9, 11, 19
1, 49538, Control_c, 9, 11, 19
1, 49568, Control_c, 9, 11, 18
1, 49598, Control_c, 9, 11, 17
1, 49628, Control_c, 9, 11, 16
1, 49658, Control_c, 9, 11, 16
1, 49688, Control_c, 9, 11, 15
1, 49718, Control_c, 9, 11, 14
1, 49748, Control_c, 9, 11, 13
1, 49778, Control_c, 9, 11, 12
1, 49808, Control_c, 9, 11, 12
1, 49824, Note_on_c, 2, 64, 0
1, 49838, Control_c, 9, 11, 11
1, 49868, Control_c, 9, 11, 10
1, 49872, Note_on_c, 10, 33, 0
1, 49872, Note_on_c, 10, 45, 0
1, 49872, Note_on_c, 11, 33, 0
1, 49872, Note_on_c, 11, 45, 0
1, 49872, Note_on_c, 12, 33, 0
1, 49872, Note_on_c, 12, 45, 0
1, 49898, Control_c, 9, 11, 9
1, 49920, Note_on_c, 7, 45, 0
1, 49920, Note_on_c, 7, 33, 0
1, 49920, Note_on_c, 8, 45, 0
1, 49920, Note_on_c, 8, 33, 0
1, 49920, Note_on_c, 2, 67, 127
1, 49920, Note_on_c, 7, 33, 117
1, 49920, Note_on_c, 7, 45, 117
1, 49920, Note_on_c, 8, 33, 117
1, 49920, Note_on_c, 8, 45, 117
1, 49920, Note_on_c, 9, 55, 100
1, 49920, Note_on_c, 9, 30, 100
1, 49920, Note_on_c, 9, 83, 100
1, 49920, Note_on_c, 10, 33, 66
1, 49920, Note_on_c, 10, 45, 66
1, 49920, Note_on_c, 11, 33, 66
1, 49920, Note_on_c, 11, 45, 66
1, 49920, Note_on_c, 12, 33, 66
1, 49920, Note_on_c, 12, 45, 66
1, 49928, Control_c, 9, 11, 8
1, 49930, Note_on_c, 9, 55, 0
1, 49930, Note_on_c, 9, 30, 0
1, 49930, Note_on_c, 9, 83, 0
1, 49958, Control_c, 9, 11, 8
1, 49988, Control_c, 9, 11, 7
1, 50018, Control_c, 9, 11, 6
1, 50048, Control_c, 9, 11, 5
1, 50078, Control_c, 9, 11, 4
1, 50108, Control_c, 9, 11, 4
1, 50138, Control_c, 9, 11, 3
1, 50174, Control_c, 9, 11, 5
1, 50204, Control_c, 9, 11, 4
1, 50234, Control_c, 9, 11, 4
1, 50256, Note_on_c, 6, 69, 0
1, 50264, Control_c, 9, 11, 3
1, 50294, Control_c, 9, 11, 3
1, 50324, Control_c, 9, 11, 2
1, 50352, Note_on_c, 2, 67, 0
1, 50352, Note_on_c, 10, 33, 0
1, 50352, Note_on_c, 10, 45, 0
1, 50352, Note_on_c, 11, 33, 0
1, 50352, Note_on_c, 11, 45, 0
1, 50352, Note_on_c, 12, 33, 0
1, 50352, Note_on_c, 12, 45, 0
1, 50382, Control_c, 9, 11, 48
1, 50400, Note_on_c, 7, 33, 0
1, 50400, Note_on_c, 7, 45, 0
1, 50400, Note_on_c, 8, 33, 0
1, 50400, Note_on_c, 8, 45, 0
1, 50400, Note_on_c, 2, 66, 127
1, 50400, Note_on_c, 7, 33, 117
1, 50400, Note_on_c, 7, 45, 117
1, 50400, Note_on_c, 8, 33, 117
1, 50400, Note_on_c, 8, 45, 117
1, 50400, Note_on_c, 9, 83, 100
1, 50400, Note_on_c, 9, 55, 100
1, 50400, Note_on_c, 9, 30, 100
1, 50400, Note_on_c, 10, 33, 66
1, 50400, Note_on_c, 10, 45, 66
1, 50400, Note_on_c, 11, 33, 66
1, 50400, Note_on_c, 11, 45, 66
1, 50400, Note_on_c, 12, 33, 66
1, 50400, Note_on_c, 12, 45, 66
1, 50410, Note_on_c, 9, 83, 0
1, 50410, Note_on_c, 9, 55, 0
1, 50410, Note_on_c, 9, 30, 0
1, 50428, Control_c, 9, 11, 102
1, 50458, Control_c, 9, 11, 102
1, 50488, Control_c, 9, 11, 101
1, 50518, Control_c, 9, 11, 101
1, 50548, Control_c, 9, 11, 100
1, 50578, Control_c, 9, 11, 100
1, 50608, Control_c, 9, 11, 99
1, 50638, Control_c, 9, 11, 99
1, 50668, Control_c, 9, 11, 98
1, 50698, Control_c, 9, 11, 98
1, 50728, Control_c, 9, 11, 97
1, 50758, Control_c, 9, 11, 97
1, 50788, Control_c, 9, 11, 96
1, 50818, Control_c, 9, 11, 95
1, 50832, Note_on_c, 10, 33, 0
1, 50832, Note_on_c, 10, 45, 0
1, 50832, Note_on_c, 11, 33, 0
1, 50832, Note_on_c, 11, 45, 0
1, 50832, Note_on_c, 12, 33, 0
1, 50832, Note_on_c, 12, 45, 0
1, 50848, Control_c, 9, 11, 95
1, 50878, Control_c, 9, 11, 94
1, 50880, Note_on_c, 9, 30, 100
1, 50880, Note_on_c, 9, 83, 100
1, 50880, Note_on_c, 9, 55, 100
1, 50880, Note_on_c, 10, 33, 33
1, 50880, Note_on_c, 10, 45, 33
1, 50880, Note_on_c, 11, 33, 33
1, 50880, Note_on_c, 11, 45, 33
1, 50880, Note_on_c, 12, 33, 33
1, 50880, Note_on_c, 12, 45, 33
1, 50890, Note_on_c, 9, 30, 0
1, 50890, Note_on_c, 9, 83, 0
1, 50890, Note_on_c, 9, 55, 0
1, 50908, Control_c, 9, 11, 94
1, 50938, Control_c, 9, 11, 93
1, 50968, Control_c, 9, 11, 93
1, 50998, Control_c, 9, 11, 92
1, 51028, Control_c, 9, 11, 92
1, 51058, Control_c, 9, 11, 91
1, 51088, Control_c, 9, 11, 91
1, 51118, Control_c, 9, 11, 90
1, 51148, Control_c, 9, 11, 90
1, 51163, Control_c, 9, 11, 95
1, 51188, Control_c, 9, 11, 91
1, 51218, Control_c, 9, 11, 89
1, 51248, Control_c, 9, 11, 87
1, 51278, Control_c, 9, 11, 85
1, 51308, Control_c, 9, 11, 83
1, 51312, Note_on_c, 10, 33, 0
1, 51312, Note_on_c, 10, 45, 0
1, 51312, Note_on_c, 11, 33, 0
1, 51312, Note_on_c, 11, 45, 0
1, 51312, Note_on_c, 12, 33, 0
1, 51312, Note_on_c, 12, 45, 0
1, 51338, Control_c, 9, 11, 81
1, 51360, Note_on_c, 7, 33, 0
1, 51360, Note_on_c, 7, 45, 0
1, 51360, Note_on_c, 8, 33, 0
1, 51360, Note_on_c, 8, 45, 0
1, 51360, Note_on_c, 7, 45, 117
1, 51360, Note_on_c, 7, 33, 117
1, 51360, Note_on_c, 8, 45, 117
1, 51360, Note_on_c, 8, 33, 117
1, 51360, Note_on_c, 9, 83, 100
1, 51360, Note_on_c, 9, 55, 100
1, 51360, Note_on_c, 9, 30, 100
1, 51360, Note_on_c, 10, 33, 66
1, 51360, Note_on_c, 10, 45, 66
1, 51360, Note_on_c, 11, 33, 66
1, 51360, Note_on_c, 11, 45, 66
1, 51360, Note_on_c, 12, 33, 66
1, 51360, Note_on_c, 12, 45, 66
1, 51368, Control_c, 9, 11, 79
1, 51370, Note_on_c, 9, 83, 0
1, 51370, Note_on_c, 9, 55, 0
1, 51370, Note_on_c, 9, 30, 0
1, 51398, Control_c, 9, 11, 77
1, 51428, Control_c, 9, 11, 74
1, 51451, Control_c, 9, 11, 70
1, 51481, Control_c, 9, 11, 69
1, 51511, Control_c, 9, 11, 67
1, 51541, Control_c, 9, 11, 66
1, 51571, Control_c, 9, 11, 64
1, 51601, Control_c, 9, 11, 63
1, 51631, Control_c, 9, 11, 61
1, 51661, Control_c, 9, 11, 59
1, 51691, Control_c, 9, 11, 58
1, 51696, Note_on_c, 2, 66, 0
1, 51721, Control_c, 9, 11, 56
1, 51751, Control_c, 9, 11, 55
1, 51781, Control_c, 9, 11, 53
1, 51792, Note_on_c, 10, 33, 0
1, 51792, Note_on_c, 10, 45, 0
1, 51792, Note_on_c, 11, 33, 0
1, 51792, Note_on_c, 11, 45, 0
1, 51792, Note_on_c, 12, 33, 0
1, 51792, Note_on_c, 12, 45, 0
1, 51811, Control_c, 9, 11, 51
1, 51840, Note_on_c, 7, 45, 0
1, 51840, Note_on_c, 7, 33, 0
1, 51840, Note_on_c, 8, 45, 0
1, 51840, Note_on_c, 8, 33, 0
1, 51840, Note_on_c, 2, 65, 127
1, 51840, Note_on_c, 6, 69, 100
1, 51840, Note_on_c, 7, 45, 117
1, 51840, Note_on_c, 7, 33, 117
1, 51840, Note_on_c, 8, 45, 117
1, 51840, Note_on_c, 8, 33, 117
1, 51840, Note_on_c, 9, 30, 100
1, 51840, Note_on_c, 9, 83, 100
1, 51840, Note_on_c, 9, 55, 100
1, 51840, Note_on_c, 10, 33, 66
1, 51840, Note_on_c, 10, 45, 66
1, 51840, Note_on_c, 11, 33, 66
1, 51840, Note_on_c, 11, 45, 66
1, 51840, Note_on_c, 12, 33, 66
1, 51840, Note_on_c, 12, 45, 66
1, 51841, Control_c, 9, 11, 50
1, 51850, Note_on_c, 9, 30, 0
1, 51850, Note_on_c, 9, 83, 0
1, 51850, Note_on_c, 9, 55, 0
1, 51871, Control_c, 9, 11, 48
1, 51901, Control_c, 9, 11, 47
1, 51931, Control_c, 9, 11, 45
1, 51961, Control_c, 9, 11, 43
1, 51991, Control_c, 9, 11, 42
1, 52021, Control_c, 9, 11, 40
1, 52051, Control_c, 9, 11, 39
1, 52081, Control_c, 9, 11, 37
1, 52111, Control_c, 9, 11, 35
1, 52141, Control_c, 9, 11, 34
1, 52171, Control_c, 9, 11, 32
1, 52201, Control_c, 9, 11, 31
1, 52231, Control_c, 9, 11, 29
1, 52261, Control_c, 9, 11, 27
1, 52272, Note_on_c, 10, 33, 0
1, 52272, Note_on_c, 10, 45, 0
1, 52272, Note_on_c, 11, 33, 0
1, 52272, Note_on_c, 11, 45, 0
1, 52272, Note_on_c, 12, 33, 0
1, 52272, Note_on_c, 12, 45, 0
1, 52291, Control_c, 9, 11, 26
1, 52320, Note_on_c, 9, 30, 100
1, 52320, Note_on_c, 9, 83, 100
1, 52320, Note_on_c, 9, 55, 100
1, 52320, Note_on_c, 10, 33, 31
1, 52320, Note_on_c, 10, 45, 31
1, 52320, Note_on_c, 11, 33, 33
1, 52320, Note_on_c, 11, 45, 33
1, 52320, Note_on_c, 12, 33, 33
1, 52320, Note_on_c, 12, 45, 33
1, 52321, Control_c, 9, 11, 24
1, 52330, Note_on_c, 9, 30, 0
1, 52330, Note_on_c, 9, 83, 0
1, 52330, Note_on_c, 9, 55, 0
1, 52351, Control_c, 9, 11, 23
1, 52381, Control_c, 9, 11, 21
1, 52388, Control_c, 9, 11, 19
1, 52418, Control_c, 9, 11, 19
1, 52448, Control_c, 9, 11, 18
1, 52478, Control_c, 9, 11, 17
1, 52508, Control_c, 9, 11, 16
1, 52538, Control_c, 9, 11, 16
1, 52568, Control_c, 9, 11, 15
1, 52598, Control_c, 9, 11, 14
1, 52628, Control_c, 9, 11, 13
1, 52658, Control_c, 9, 11, 12
1, 52688, Control_c, 9, 11, 12
1, 52718, Control_c, 9, 11, 11
1, 52748, Control_c, 9, 11, 10
1, 52752, Note_on_c, 10, 33, 0
1, 52752, Note_on_c, 10, 45, 0
1, 52752, Note_on_c, 11, 33, 0
1, 52752, Note_on_c, 11, 45, 0
1, 52752, Note_on_c, 12, 33, 0
1, 52752, Note_on_c, 12, 45, 0
1, 52778, Control_c, 9, 11, 9
1, 52800, Note_on_c, 7, 45, 0
1, 52800, Note_on_c, 7, 33, 0
1, 52800, Note_on_c, 8, 45, 0
1, 52800, Note_on_c, 8, 33, 0
1, 52800, Note_on_c, 7, 45, 117
1, 52800, Note_on_c, 7, 33, 117
1, 52800, Note_on_c, 8, 45, 117
1, 52800, Note_on_c, 8, 33, 117
1, 52800, Note_on_c, 9, 83, 100
1, 52800, Note_on_c, 9, 55, 100
1, 52800, Note_on_c, 9, 30, 100
1, 52800, Note_on_c, 10, 33, 66
1, 52800, Note_on_c, 10, 45, 66
1, 52800, Note_on_c, 11, 33, 66
1, 52800, Note_on_c, 11, 45, 66
1, 52800, Note_on_c, 12, 33, 66
1, 52800, Note_on_c, 12, 45, 66
1, 52808, Control_c, 9, 11, 8
1, 52810, Note_on_c, 9, 83, 0
1, 52810, Note_on_c, 9, 55, 0
1, 52810, Note_on_c, 9, 30, 0
1, 52838, Control_c, 9, 11, 8
1, 52868, Control_c, 9, 11, 7
1, 52898, Control_c, 9, 11, 6
1, 52928, Control_c, 9, 11, 5
1, 52958, Control_c, 9, 11, 4
1, 52988, Control_c, 9, 11, 4
1, 53018, Control_c, 9, 11, 3
1, 53054, Control_c, 9, 11, 5
1, 53084, Control_c, 9, 11, 4
1, 53114, Control_c, 9, 11, 4
1, 53136, Note_on_c, 2, 65, 0
1, 53136, Note_on_c, 6, 69, 0
1, 53144, Control_c, 9, 11, 3
1, 53174, Control_c, 9, 11, 3
1, 53204, Control_c, 9, 11, 2
1, 53232, Note_on_c, 10, 33, 0
1, 53232, Note_on_c, 10, 45, 0
1, 53232, Note_on_c, 11, 33, 0
1, 53232, Note_on_c, 11, 45, 0
1, 53232, Note_on_c, 12, 33, 0
1, 53232, Note_on_c, 12, 45, 0
1, 53262, Control_c, 9, 11, 48
1, 53280, Note_on_c, 7, 45, 0
1, 53280, Note_on_c, 7, 33, 0
1, 53280, Note_on_c, 8, 45, 0
1, 53280, Note_on_c, 8, 33, 0
1, 53280, Note_on_c, 2, 64, 127
1, 53280, Note_on_c, 7, 33, 117
1, 53280, Note_on_c, 7, 45, 117
1, 53280, Note_on_c, 8, 33, 117
1, 53280, Note_on_c, 8, 45, 117
1, 53280, Note_on_c, 9, 83, 100
1, 53280, Note_on_c, 9, 55, 100
1, 53280, Note_on_c, 9, 30, 100
1, 53280, Note_on_c, 10, 33, 66
1, 53280, Note_on_c, 10, 45, 66
1, 53280, Note_on_c, 11, 33, 66
1, 53280, Note_on_c, 11, 45, 66
1, 53280, Note_on_c, 12, 33, 66
1, 53280, Note_on_c, 12, 45, 66
1, 53290, Note_on_c, 9, 83, 0
1, 53290, Note_on_c, 9, 55, 0
1, 53290, Note_on_c, 9, 30, 0
1, 53308, Control_c, 9, 11, 102
1, 53338, Control_c, 9, 11, 102
1, 53368, Control_c, 9, 11, 101
1, 53398, Control_c, 9, 11, 101
1, 53428, Control_c, 9, 11, 100
1, 53458, Control_c, 9, 11, 100
1, 53488, Control_c, 9, 11, 99
1, 53518, Control_c, 9, 11, 99
1, 53548, Control_c, 9, 11, 98
1, 53578, Control_c, 9, 11, 98
1, 53608, Control_c, 9, 11, 97
1, 53638, Control_c, 9, 11, 97
1, 53668, Control_c, 9, 11, 96
1, 53698, Control_c, 9, 11, 95
1, 53712, Note_on_c, 10, 33, 0
1, 53712, Note_on_c, 10, 45, 0
1, 53712, Note_on_c, 11, 33, 0
1, 53712, Note_on_c, 11, 45, 0
1, 53712, Note_on_c, 12, 33, 0
1, 53712, Note_on_c, 12, 45, 0
1, 53728, Control_c, 9, 11, 95
1, 53758, Control_c, 9, 11, 94
1, 53760, Note_on_c, 9, 83, 100
1, 53760, Note_on_c, 9, 55, 100
1, 53760, Note_on_c, 9, 30, 100
1, 53760, Note_on_c, 10, 45, 32
1, 53760, Note_on_c, 10, 33, 32
1, 53760, Note_on_c, 11, 33, 32
1, 53760, Note_on_c, 11, 45, 32
1, 53760, Note_on_c, 12, 33, 32
1, 53760, Note_on_c, 12, 45, 32
1, 53770, Note_on_c, 9, 83, 0
1, 53770, Note_on_c, 9, 55, 0
1, 53770, Note_on_c, 9, 30, 0
1, 53788, Control_c, 9, 11, 94
1, 53818, Control_c, 9, 11, 93
1, 53848, Control_c, 9, 11, 93
1, 53878, Control_c, 9, 11, 92
1, 53908, Control_c, 9, 11, 92
1, 53938, Control_c, 9, 11, 91
1, 53968, Control_c, 9, 11, 91
1, 53998, Control_c, 9, 11, 90
1, 54028, Control_c, 9, 11, 90
1, 54043, Control_c, 9, 11, 95
1, 54068, Control_c, 9, 11, 91
1, 54098, Control_c, 9, 11, 89
1, 54128, Control_c, 9, 11, 87
1, 54144, Note_on_c, 2, 64, 0
1, 54158, Control_c, 9, 11, 85
1, 54188, Control_c, 9, 11, 83
1, 54192, Note_on_c, 10, 45, 0
1, 54192, Note_on_c, 10, 33, 0
1, 54192, Note_on_c, 11, 33, 0
1, 54192, Note_on_c, 11, 45, 0
1, 54192, Note_on_c, 12, 33, 0
1, 54192, Note_on_c, 12, 45, 0
1, 54218, Control_c, 9, 11, 81
1, 54240, Note_on_c, 7, 33, 0
1, 54240, Note_on_c, 7, 45, 0
1, 54240, Note_on_c, 8, 33, 0
1, 54240, Note_on_c, 8, 45, 0
1, 54240, Note_on_c, 2, 60, 127
1, 54240, Note_on_c, 7, 45, 117
1, 54240, Note_on_c, 7, 33, 117
1, 54240, Note_on_c, 8, 45, 117
1, 54240, Note_on_c, 8, 33, 117
1, 54240, Note_on_c, 9, 55, 100
1, 54240, Note_on_c, 9, 30, 100
1, 54240, Note_on_c, 9, 83, 100
1, 54240, Note_on_c, 10, 45, 66
1, 54240, Note_on_c, 10, 33, 66
1, 54240, Note_on_c, 11, 33, 66
1, 54240, Note_on_c, 11, 45, 66
1, 54240, Note_on_c, 12, 33, 66
1, 54240, Note_on_c, 12, 45, 66
1, 54248, Control_c, 9, 11, 79
1, 54250, Note_on_c, 9, 55, 0
1, 54250, Note_on_c, 9, 30, 0
1, 54250, Note_on_c, 9, 83, 0
1, 54278, Control_c, 9, 11, 77
1, 54308, Control_c, 9, 11, 74
1, 54331, Control_c, 9, 11, 70
1, 54361, Control_c, 9, 11, 69
1, 54391, Control_c, 9, 11, 67
1, 54421, Control_c, 9, 11, 66
1, 54451, Control_c, 9, 11, 64
1, 54481, Control_c, 9, 11, 63
1, 54511, Control_c, 9, 11, 61
1, 54541, Control_c, 9, 11, 59
1, 54571, Control_c, 9, 11, 58
1, 54601, Control_c, 9, 11, 56
1, 54631, Control_c, 9, 11, 55
1, 54661, Control_c, 9, 11, 53
1, 54672, Note_on_c, 2, 60, 0
1, 54672, Note_on_c, 10, 45, 0
1, 54672, Note_on_c, 10, 33, 0
1, 54672, Note_on_c, 11, 33, 0
1, 54672, Note_on_c, 11, 45, 0
1, 54672, Note_on_c, 12, 33, 0
1, 54672, Note_on_c, 12, 45, 0
1, 54691, Control_c, 9, 11, 51
1, 54720, Note_on_c, 7, 45, 0
1, 54720, Note_on_c, 7, 33, 0
1, 54720, Note_on_c, 8, 45, 0
1, 54720, Note_on_c, 8, 33, 0
1, 54720, Note_on_c, 2, 60, 127
1, 54720, Note_on_c, 6, 69, 100
1, 54720, Note_on_c, 7, 33, 117
1, 54720, Note_on_c, 7, 45, 117
1, 54720, Note_on_c, 8, 33, 117
1, 54720, Note_on_c, 8, 45, 117
1, 54720, Note_on_c, 9, 83, 100
1, 54720, Note_on_c, 9, 55, 100
1, 54720, Note_on_c, 9, 30, 100
1, 54720, Note_on_c, 10, 45, 66
1, 54720, Note_on_c, 10, 33, 66
1, 54720, Note_on_c, 11, 33, 66
1, 54720, Note_on_c, 11, 45, 66
1, 54720, Note_on_c, 12, 33, 66
1, 54720, Note_on_c, 12, 45, 66
1, 54721, Control_c, 9, 11, 50
1, 54730, Note_on_c, 9, 83, 0
1, 54730, Note_on_c, 9, 55, 0
1, 54730, Note_on_c, 9, 30, 0
1, 54751, Control_c, 9, 11, 48
1, 54781, Control_c, 9, 11, 47
1, 54811, Control_c, 9, 11, 45
1, 54841, Control_c, 9, 11, 43
1, 54871, Control_c, 9, 11, 42
1, 54901, Control_c, 9, 11, 40
1, 54931, Control_c, 9, 11, 39
1, 54961, Control_c, 9, 11, 37
1, 54991, Control_c, 9, 11, 35
1, 55021, Control_c, 9, 11, 34
1, 55051, Control_c, 9, 11, 32
1, 55081, Control_c, 9, 11, 31
1, 55111, Control_c, 9, 11, 29
1, 55141, Control_c, 9, 11, 27
1, 55152, Note_on_c, 10, 45, 0
1, 55152, Note_on_c, 10, 33, 0
1, 55152, Note_on_c, 11, 33, 0
1, 55152, Note_on_c, 11, 45, 0
1, 55152, Note_on_c, 12, 33, 0
1, 55152, Note_on_c, 12, 45, 0
1, 55171, Control_c, 9, 11, 26
1, 55200, Note_on_c, 9, 83, 100
1, 55200, Note_on_c, 9, 55, 100
1, 55200, Note_on_c, 9, 30, 100
1, 55200, Note_on_c, 10, 45, 33
1, 55200, Note_on_c, 10, 33, 33
1, 55200, Note_on_c, 11, 33, 33
1, 55200, Note_on_c, 11, 45, 33
1, 55200, Note_on_c, 12, 33, 33
1, 55200, Note_on_c, 12, 45, 33
1, 55201, Control_c, 9, 11, 24
1, 55210, Note_on_c, 9, 83, 0
1, 55210, Note_on_c, 9, 55, 0
1, 55210, Note_on_c, 9, 30, 0
1, 55231, Control_c, 9, 11, 23
1, 55261, Control_c, 9, 11, 21
1, 55268, Control_c, 9, 11, 19
1, 55298, Control_c, 9, 11, 19
1, 55328, Control_c, 9, 11, 18
1, 55358, Control_c, 9, 11, 17
1, 55388, Control_c, 9, 11, 16
1, 55418, Control_c, 9, 11, 16
1, 55448, Control_c, 9, 11, 15
1, 55478, Control_c, 9, 11, 14
1, 55508, Control_c, 9, 11, 13
1, 55538, Control_c, 9, 11, 12
1, 55568, Control_c, 9, 11, 12
1, 55584, Note_on_c, 2, 60, 0
1, 55598, Control_c, 9, 11, 11
1, 55628, Control_c, 9, 11, 10
1, 55632, Note_on_c, 10, 45, 0
1, 55632, Note_on_c, 10, 33, 0
1, 55632, Note_on_c, 11, 33, 0
1, 55632, Note_on_c, 11, 45, 0
1, 55632, Note_on_c, 12, 33, 0
1, 55632, Note_on_c, 12, 45, 0
1, 55658, Control_c, 9, 11, 9
1, 55680, Note_on_c, 7, 33, 0
1, 55680, Note_on_c, 7, 45, 0
1, 55680, Note_on_c, 8, 33, 0
1, 55680, Note_on_c, 8, 45, 0
1, 55680, Note_on_c, 2, 59, 127
1, 55680, Note_on_c, 7, 33, 117
1, 55680, Note_on_c, 7, 45, 117
1, 55680, Note_on_c, 8, 33, 117
1, 55680, Note_on_c, 8, 45, 117
1, 55680, Note_on_c, 9, 55, 100
1, 55680, Note_on_c, 9, 30, 100
1, 55680, Note_on_c, 9, 83, 100
1, 55680, Note_on_c, 10, 45, 66
1, 55680, Note_on_c, 10, 33, 66
1, 55680, Note_on_c, 11, 33, 66
1, 55680, Note_on_c, 11, 45, 66
1, 55680, Note_on_c, 12, 33, 66
1, 55680, Note_on_c, 12, 45, 66
1, 55688, Control_c, 9, 11, 8
1, 55690, Note_on_c, 9, 55, 0
1, 55690, Note_on_c, 9, 30, 0
1, 55690, Note_on_c, 9, 83, 0
1, 55718, Control_c, 9, 11, 8
1, 55748, Control_c, 9, 11, 7
1, 55778, Control_c, 9, 11, 6
1, 55808, Control_c, 9, 11, 5
1, 55838, Control_c, 9, 11, 4
1, 55868, Control_c, 9, 11, 4
1, 55896, Note_on_c, 2, 59, 0
1, 55898, Control_c, 9, 11, 3
1, 55920, Note_on_c, 2, 60, 127
1, 55934, Control_c, 9, 11, 5
1, 55964, Control_c, 9, 11, 4
1, 55994, Control_c, 9, 11, 4
1, 56016, Note_on_c, 6, 69, 0
1, 56024, Control_c, 9, 11, 3
1, 56054, Control_c, 9, 11, 3
1, 56084, Control_c, 9, 11, 2
1, 56112, Note_on_c, 10, 45, 0
1, 56112, Note_on_c, 10, 33, 0
1, 56112, Note_on_c, 11, 33, 0
1, 56112, Note_on_c, 11, 45, 0
1, 56112, Note_on_c, 12, 33, 0
1, 56112, Note_on_c, 12, 45, 0
1, 56136, Note_on_c, 2, 60, 0
1, 56142, Control_c, 9, 11, 48
1, 56160, Note_on_c, 7, 33, 0
1, 56160, Note_on_c, 7, 45, 0
1, 56160, Note_on_c, 8, 33, 0
1, 56160, Note_on_c, 8, 45, 0
1, 56160, Note_on_c, 2, 62, 127
1, 56160, Note_on_c, 7, 33, 117
1, 56160, Note_on_c, 7, 45, 117
1, 56160, Note_on_c, 8, 33, 117
1, 56160, Note_on_c, 8, 45, 117
1, 56160, Note_on_c, 9, 83, 100
1, 56160, Note_on_c, 9, 55, 100
1, 56160, Note_on_c, 9, 30, 100
1, 56160, Note_on_c, 10, 33, 66
1, 56160, Note_on_c, 10, 45, 66
1, 56160, Note_on_c, 11, 33, 66
1, 56160, Note_on_c, 11, 45, 66
1, 56160, Note_on_c, 12, 33, 66
1, 56160, Note_on_c, 12, 45, 66
1, 56170, Note_on_c, 9, 83, 0
1, 56170, Note_on_c, 9, 55, 0
1, 56170, Note_on_c, 9, 30, 0
1, 56188, Control_c, 9, 11, 102
1, 56218, Control_c, 9, 11, 102
1, 56248, Control_c, 9, 11, 101
1, 56278, Control_c, 9, 11, 101
1, 56308, Control_c, 9, 11, 100
1, 56338, Control_c, 9, 11, 100
1, 56368, Control_c, 9, 11, 99
1, 56398, Control_c, 9, 11, 99
1, 56428, Control_c, 9, 11, 98
1, 56458, Control_c, 9, 11, 98
1, 56488, Control_c, 9, 11, 97
1, 56518, Control_c, 9, 11, 97
1, 56548, Control_c, 9, 11, 96
1, 56578, Control_c, 9, 11, 95
1, 56592, Note_on_c, 10, 33, 0
1, 56592, Note_on_c, 10, 45, 0
1, 56592, Note_on_c, 11, 33, 0
1, 56592, Note_on_c, 11, 45, 0
1, 56592, Note_on_c, 12, 33, 0
1, 56592, Note_on_c, 12, 45, 0
1, 56608, Control_c, 9, 11, 95
1, 56638, Control_c, 9, 11, 94
1, 56640, Note_on_c, 9, 83, 100
1, 56640, Note_on_c, 9, 55, 100
1, 56640, Note_on_c, 9, 30, 100
1, 56640, Note_on_c, 10, 33, 38
1, 56640, Note_on_c, 10, 45, 38
1, 56640, Note_on_c, 11, 33, 38
1, 56640, Note_on_c, 11, 45, 38
1, 56640, Note_on_c, 12, 33, 38
1, 56640, Note_on_c, 12, 45, 38
1, 56650, Note_on_c, 9, 83, 0
1, 56650, Note_on_c, 9, 55, 0
1, 56650, Note_on_c, 9, 30, 0
1, 56668, Control_c, 9, 11, 94
1, 56698, Control_c, 9, 11, 93
1, 56728, Control_c, 9, 11, 93
1, 56758, Control_c, 9, 11, 92
1, 56788, Control_c, 9, 11, 92
1, 56818, Control_c, 9, 11, 91
1, 56848, Control_c, 9, 11, 91
1, 56878, Control_c, 9, 11, 90
1, 56908, Control_c, 9, 11, 90
1, 56923, Control_c, 9, 11, 95
1, 56948, Control_c, 9, 11, 91
1, 56978, Control_c, 9, 11, 89
1, 57008, Control_c, 9, 11, 87
1, 57024, Note_on_c, 2, 62, 0
1, 57038, Control_c, 9, 11, 85
1, 57068, Control_c, 9, 11, 83
1, 57072, Note_on_c, 10, 33, 0
1, 57072, Note_on_c, 10, 45, 0
1, 57072, Note_on_c, 11, 33, 0
1, 57072, Note_on_c, 11, 45, 0
1, 57072, Note_on_c, 12, 33, 0
1, 57072, Note_on_c, 12, 45, 0
1, 57098, Control_c, 9, 11, 81
1, 57120, Note_on_c, 7, 33, 0
1, 57120, Note_on_c, 7, 45, 0
1, 57120, Note_on_c, 8, 33, 0
1, 57120, Note_on_c, 8, 45, 0
1, 57120, Note_on_c, 2, 59, 127
1, 57120, Note_on_c, 7, 33, 117
1, 57120, Note_on_c, 7, 45, 117
1, 57120, Note_on_c, 8, 33, 117
1, 57120, Note_on_c, 8, 45, 117
1, 57120, Note_on_c, 9, 55, 100
1, 57120, Note_on_c, 9, 30, 100
1, 57120, Note_on_c, 9, 83, 100
1, 57120, Note_on_c, 10, 33, 66
1, 57120, Note_on_c, 10, 45, 66
1, 57120, Note_on_c, 11, 33, 66
1, 57120, Note_on_c, 11, 45, 66
1, 57120, Note_on_c, 12, 33, 66
1, 57120, Note_on_c, 12, 45, 66
1, 57128, Control_c, 9, 11, 79
1, 57130, Note_on_c, 9, 55, 0
1, 57130, Note_on_c, 9, 30, 0
1, 57130, Note_on_c, 9, 83, 0
1, 57158, Control_c, 9, 11, 77
1, 57188, Control_c, 9, 11, 74
1, 57211, Control_c, 9, 11, 70
1, 57241, Control_c, 9, 11, 69
1, 57271, Control_c, 9, 11, 67
1, 57301, Control_c, 9, 11, 66
1, 57331, Control_c, 9, 11, 64
1, 57361, Control_c, 9, 11, 63
1, 57391, Control_c, 9, 11, 61
1, 57421, Control_c, 9, 11, 59
1, 57451, Control_c, 9, 11, 58
1, 57481, Control_c, 9, 11, 56
1, 57511, Control_c, 9, 11, 55
1, 57541, Control_c, 9, 11, 53
1, 57552, Note_on_c, 2, 59, 0
1, 57552, Note_on_c, 10, 33, 0
1, 57552, Note_on_c, 10, 45, 0
1, 57552, Note_on_c, 11, 33, 0
1, 57552, Note_on_c, 11, 45, 0
1, 57552, Note_on_c, 12, 33, 0
1, 57552, Note_on_c, 12, 45, 0
1, 57571, Control_c, 9, 11, 51
1, 57600, Note_on_c, 7, 33, 0
1, 57600, Note_on_c, 7, 45, 0
1, 57600, Note_on_c, 8, 33, 0
1, 57600, Note_on_c, 8, 45, 0
1, 57600, Note_on_c, 2, 55, 127
1, 57600, Note_on_c, 6, 69, 100
1, 57600, Note_on_c, 7, 45, 117
1, 57600, Note_on_c, 7, 33, 117
1, 57600, Note_on_c, 8, 45, 117
1, 57600, Note_on_c, 8, 33, 117
1, 57600, Note_on_c, 9, 83, 100
1, 57600, Note_on_c, 9, 55, 100
1, 57600, Note_on_c, 9, 30, 100
1, 57600, Note_on_c, 10, 33, 66
1, 57600, Note_on_c, 10, 45, 66
1, 57600, Note_on_c, 11, 33, 66
1, 57600, Note_on_c, 11, 45, 66
1, 57600, Note_on_c, 12, 33, 66
1, 57600, Note_on_c, 12, 45, 66
1, 57601, Control_c, 9, 11, 50
1, 57610, Note_on_c, 9, 83, 0
1, 57610, Note_on_c, 9, 55, 0
1, 57610, Note_on_c, 9, 30, 0
1, 57631, Control_c, 9, 11, 48
1, 57661, Control_c, 9, 11, 47
1, 57691, Control_c, 9, 11, 45
1, 57721, Control_c, 9, 11, 43
1, 57751, Control_c, 9, 11, 42
1, 57781, Control_c, 9, 11, 40
1, 57811, Control_c, 9, 11, 39
1, 57841, Control_c, 9, 11, 37
1, 57871, Control_c, 9, 11, 35
1, 57901, Control_c, 9, 11, 34
1, 57931, Control_c, 9, 11, 32
1, 57961, Control_c, 9, 11, 31
1, 57991, Control_c, 9, 11, 29
1, 58021, Control_c, 9, 11, 27
1, 58032, Note_on_c, 10, 33, 0
1, 58032, Note_on_c, 10, 45, 0
1, 58032, Note_on_c, 11, 33, 0
1, 58032, Note_on_c, 11, 45, 0
1, 58032, Note_on_c, 12, 33, 0
1, 58032, Note_on_c, 12, 45, 0
1, 58051, Control_c, 9, 11, 26
1, 58080, Note_on_c, 9, 30, 100
1, 58080, Note_on_c, 9, 83, 100
1, 58080, Note_on_c, 9, 55, 100
1, 58080, Note_on_c, 10, 33, 37
1, 58080, Note_on_c, 10, 45, 37
1, 58080, Note_on_c, 11, 33, 37
1, 58080, Note_on_c, 11, 45, 37
1, 58080, Note_on_c, 12, 33, 37
1, 58080, Note_on_c, 12, 45, 37
1, 58081, Control_c, 9, 11, 24
1, 58090, Note_on_c, 9, 30, 0
1, 58090, Note_on_c, 9, 83, 0
1, 58090, Note_on_c, 9, 55, 0
1, 58111, Control_c, 9, 11, 23
1, 58141, Control_c, 9, 11, 21
1, 58148, Control_c, 9, 11, 19
1, 58178, Control_c, 9, 11, 19
1, 58208, Control_c, 9, 11, 18
1, 58238, Control_c, 9, 11, 17
1, 58248, Note_on_c, 2, 55, 0
1, 58268, Control_c, 9, 11, 16
1, 58298, Control_c, 9, 11, 16
1, 58320, Note_on_c, 2, 52, 127
1, 58328, Control_c, 9, 11, 15
1, 58358, Control_c, 9, 11, 14
1, 58388, Control_c, 9, 11, 13
1, 58418, Control_c, 9, 11, 12
1, 58448, Control_c, 9, 11, 12
1, 58478, Control_c, 9, 11, 11
1, 58508, Control_c, 9, 11, 10
1, 58512, Note_on_c, 10, 33, 0
1, 58512, Note_on_c, 10, 45, 0
1, 58512, Note_on_c, 11, 33, 0
1, 58512, Note_on_c, 11, 45, 0
1, 58512, Note_on_c, 12, 33, 0
1, 58512, Note_on_c, 12, 45, 0
1, 58536, Note_on_c, 2, 52, 0
1, 58538, Control_c, 9, 11, 9
1, 58560, Note_on_c, 7, 45, 0
1, 58560, Note_on_c, 7, 33, 0
1, 58560, Note_on_c, 8, 45, 0
1, 58560, Note_on_c, 8, 33, 0
1, 58560, Note_on_c, 2, 55, 127
1, 58560, Note_on_c, 7, 33, 117
1, 58560, Note_on_c, 7, 45, 117
1, 58560, Note_on_c, 8, 33, 117
1, 58560, Note_on_c, 8, 45, 117
1, 58560, Note_on_c, 9, 55, 100
1, 58560, Note_on_c, 9, 30, 100
1, 58560, Note_on_c, 9, 83, 100
1, 58560, Note_on_c, 10, 33, 66
1, 58560, Note_on_c, 10, 45, 66
1, 58560, Note_on_c, 11, 33, 66
1, 58560, Note_on_c, 11, 45, 66
1, 58560, Note_on_c, 12, 33, 66
1, 58560, Note_on_c, 12, 45, 66
1, 58568, Control_c, 9, 11, 8
1, 58570, Note_on_c, 9, 55, 0
1, 58570, Note_on_c, 9, 30, 0
1, 58570, Note_on_c, 9, 83, 0
1, 58598, Control_c, 9, 11, 8
1, 58628, Control_c, 9, 11, 7
1, 58658, Control_c, 9, 11, 6
1, 58688, Control_c, 9, 11, 5
1, 58718, Control_c, 9, 11, 4
1, 58748, Control_c, 9, 11, 4
1, 58778, Control_c, 9, 11, 3
1, 58814, Control_c, 9, 11, 5
1, 58844, Control_c, 9, 11, 4
1, 58874, Control_c, 9, 11, 4
1, 58896, Note_on_c, 6, 69, 0
1, 58904, Control_c, 9, 11, 3
1, 58934, Control_c, 9, 11, 3
1, 58964, Control_c, 9, 11, 2
1, 58992, Note_on_c, 2, 55, 0
1, 58992, Note_on_c, 10, 33, 0
1, 58992, Note_on_c, 10, 45, 0
1, 58992, Note_on_c, 11, 33, 0
1, 58992, Note_on_c, 11, 45, 0
1, 58992, Note_on_c, 12, 33, 0
1, 58992, Note_on_c, 12, 45, 0
1, 59022, Control_c, 9, 11, 48
1, 59040, Note_on_c, 7, 33, 0
1, 59040, Note_on_c, 7, 45, 0
1, 59040, Note_on_c, 8, 33, 0
1, 59040, Note_on_c, 8, 45, 0
1, 59040, Note_on_c, 7, 45, 117
1, 59040, Note_on_c, 7, 33, 117
1, 59040, Note_on_c, 8, 45, 117
1, 59040, Note_on_c, 8, 33, 117
1, 59040, Note_on_c, 9, 83, 100
1, 59040, Note_on_c, 9, 55, 100
1, 59040, Note_on_c, 9, 30, 100
1, 59040, Note_on_c, 10, 33, 66
1, 59040, Note_on_c, 10, 45, 66
1, 59040, Note_on_c, 11, 33, 66
1, 59040, Note_on_c, 11, 45, 66
1, 59040, Note_on_c, 12, 33, 66
1, 59040, Note_on_c, 12, 45, 66
1, 59050, Note_on_c, 9, 83, 0
1, 59050, Note_on_c, 9, 55, 0
1, 59050, Note_on_c, 9, 30, 0
1, 59068, Control_c, 9, 11, 102
1, 59098, Control_c, 9, 11, 102
1, 59128, Control_c, 9, 11, 101
1, 59158, Control_c, 9, 11, 101
1, 59188, Control_c, 9, 11, 100
1, 59218, Control_c, 9, 11, 100
1, 59248, Control_c, 9, 11, 99
1, 59278, Control_c, 9, 11, 99
1, 59308, Control_c, 9, 11, 98
1, 59338, Control_c, 9, 11, 98
1, 59368, Control_c, 9, 11, 97
1, 59398, Control_c, 9, 11, 97
1, 59428, Control_c, 9, 11, 96
1, 59458, Control_c, 9, 11, 95
1, 59472, Note_on_c, 10, 33, 0
1, 59472, Note_on_c, 10, 45, 0
1, 59472, Note_on_c, 11, 33, 0
1, 59472, Note_on_c, 11, 45, 0
1, 59472, Note_on_c, 12, 33, 0
1, 59472, Note_on_c, 12, 45, 0
1, 59488, Control_c, 9, 11, 95
1, 59518, Control_c, 9, 11, 94
1, 59520, Note_on_c, 3, 79, 100
1, 59520, Note_on_c, 4, 79, 100
1, 59520, Note_on_c, 5, 79, 100
1, 59520, Note_on_c, 9, 83, 100
1, 59520, Note_on_c, 9, 55, 100
1, 59520, Note_on_c, 9, 30, 100
1, 59520, Note_on_c, 10, 45, 33
1, 59520, Note_on_c, 10, 33, 33
1, 59520, Note_on_c, 11, 33, 33
1, 59520, Note_on_c, 11, 45, 33
1, 59520, Note_on_c, 12, 33, 33
1, 59520, Note_on_c, 12, 45, 33
1, 59530, Note_on_c, 9, 83, 0
1, 59530, Note_on_c, 9, 55, 0
1, 59530, Note_on_c, 9, 30, 0
1, 59548, Control_c, 9, 11, 94
1, 59578, Control_c, 9, 11, 93
1, 59608, Control_c, 9, 11, 93
1, 59638, Control_c, 9, 11, 92
1, 59668, Control_c, 9, 11, 92
1, 59698, Control_c, 9, 11, 91
1, 59728, Control_c, 9, 11, 91
1, 59758, Control_c, 9, 11, 90
1, 59788, Control_c, 9, 11, 90
1, 59803, Control_c, 9, 11, 95
1, 59828, Control_c, 9, 11, 91
1, 59858, Control_c, 9, 11, 89
1, 59888, Control_c, 9, 11, 87
1, 59918, Control_c, 9, 11, 85
1, 59948, Control_c, 9, 11, 83
1, 59952, Note_on_c, 3, 79, 0
1, 59952, Note_on_c, 4, 79, 0
1, 59952, Note_on_c, 5, 79, 0
1, 59952, Note_on_c, 10, 45, 0
1, 59952, Note_on_c, 10, 33, 0
1, 59952, Note_on_c, 11, 33, 0
1, 59952, Note_on_c, 11, 45, 0
1, 59952, Note_on_c, 12, 33, 0
1, 59952, Note_on_c, 12, 45, 0
1, 59978, Control_c, 9, 11, 81
1, 60000, Note_on_c, 7, 45, 0
1, 60000, Note_on_c, 7, 33, 0
1, 60000, Note_on_c, 8, 45, 0
1, 60000, Note_on_c, 8, 33, 0
1, 60000, Note_on_c, 3, 78, 100
1, 60000, Note_on_c, 4, 78, 100
1, 60000, Note_on_c, 5, 78, 100
1, 60000, Note_on_c, 7, 33, 117
1, 60000, Note_on_c, 7, 45, 117
1, 60000, Note_on_c, 8, 33, 117
1, 60000, Note_on_c, 8, 45, 117
1, 60000, Note_on_c, 9, 30, 100
1, 60000, Note_on_c, 9, 83, 100
1, 60000, Note_on_c, 9, 55, 100
1, 60000, Note_on_c, 10, 33, 66
1, 60000, Note_on_c, 10, 45, 66
1, 60000, Note_on_c, 11, 33, 66
1, 60000, Note_on_c, 11, 45, 66
1, 60000, Note_on_c, 12, 33, 66
1, 60000, Note_on_c, 12, 45, 66
1, 60008, Control_c, 9, 11, 79
1, 60010, Note_on_c, 9, 30, 0
1, 60010, Note_on_c, 9, 83, 0
1, 60010, Note_on_c, 9, 55, 0
1, 60038, Control_c, 9, 11, 77
1, 60068, Control_c, 9, 11, 74
1, 60091, Control_c, 9, 11, 70
1, 60121, Control_c, 9, 11, 69
1, 60151, Control_c, 9, 11, 67
1, 60181, Control_c, 9, 11, 66
1, 60211, Control_c, 9, 11, 64
1, 60241, Control_c, 9, 11, 63
1, 60271, Control_c, 9, 11, 61
1, 60301, Control_c, 9, 11, 59
1, 60331, Control_c, 9, 11, 58
1, 60361, Control_c, 9, 11, 56
1, 60391, Control_c, 9, 11, 55
1, 60421, Control_c, 9, 11, 53
1, 60432, Note_on_c, 3, 78, 0
1, 60432, Note_on_c, 4, 78, 0
1, 60432, Note_on_c, 5, 78, 0
1, 60432, Note_on_c, 10, 33, 0
1, 60432, Note_on_c, 10, 45, 0
1, 60432, Note_on_c, 11, 33, 0
1, 60432, Note_on_c, 11, 45, 0
1, 60432, Note_on_c, 12, 33, 0
1, 60432, Note_on_c, 12, 45, 0
1, 60451, Control_c, 9, 11, 51
1, 60480, Note_on_c, 7, 33, 0
1, 60480, Note_on_c, 7, 45, 0
1, 60480, Note_on_c, 8, 33, 0
1, 60480, Note_on_c, 8, 45, 0
1, 60480, Note_on_c, 3, 77, 100
1, 60480, Note_on_c, 4, 77, 100
1, 60480, Note_on_c, 5, 77, 100
1, 60480, Note_on_c, 7, 33, 117
1, 60480, Note_on_c, 7, 45, 117
1, 60480, Note_on_c, 8, 33, 117
1, 60480, Note_on_c, 8, 45, 117
1, 60480, Note_on_c, 9, 55, 100
1, 60480, Note_on_c, 9, 30, 100
1, 60480, Note_on_c, 9, 83, 100
1, 60480, Note_on_c, 10, 33, 66
1, 60480, Note_on_c, 10, 45, 66
1, 60480, Note_on_c, 11, 33, 66
1, 60480, Note_on_c, 11, 45, 66
1, 60480, Note_on_c, 12, 33, 66
1, 60480, Note_on_c, 12, 45, 66
1, 60481, Control_c, 9, 11, 50
1, 60490, Note_on_c, 9, 55, 0
1, 60490, Note_on_c, 9, 30, 0
1, 60490, Note_on_c, 9, 83, 0
1, 60511, Control_c, 9, 11, 48
1, 60541, Control_c, 9, 11, 47
1, 60571, Control_c, 9, 11, 45
1, 60601, Control_c, 9, 11, 43
1, 60631, Control_c, 9, 11, 42
1, 60661, Control_c, 9, 11, 40
1, 60691, Control_c, 9, 11, 39
1, 60721, Control_c, 9, 11, 37
1, 60751, Control_c, 9, 11, 35
1, 60781, Control_c, 9, 11, 34
1, 60811, Control_c, 9, 11, 32
1, 60841, Control_c, 9, 11, 31
1, 60871, Control_c, 9, 11, 29
1, 60901, Control_c, 9, 11, 27
1, 60912, Note_on_c, 10, 33, 0
1, 60912, Note_on_c, 10, 45, 0
1, 60912, Note_on_c, 11, 33, 0
1, 60912, Note_on_c, 11, 45, 0
1, 60912, Note_on_c, 12, 33, 0
1, 60912, Note_on_c, 12, 45, 0
1, 60931, Control_c, 9, 11, 26
1, 60960, Note_on_c, 9, 55, 100
1, 60960, Note_on_c, 9, 30, 100
1, 60960, Note_on_c, 9, 83, 100
1, 60960, Note_on_c, 10, 33, 31
1, 60960, Note_on_c, 10, 45, 31
1, 60960, Note_on_c, 11, 33, 31
1, 60960, Note_on_c, 11, 45, 31
1, 60960, Note_on_c, 12, 33, 31
1, 60960, Note_on_c, 12, 45, 31
1, 60961, Control_c, 9, 11, 24
1, 60970, Note_on_c, 9, 55, 0
1, 60970, Note_on_c, 9, 30, 0
1, 60970, Note_on_c, 9, 83, 0
1, 60991, Control_c, 9, 11, 23
1, 61021, Control_c, 9, 11, 21
1, 61028, Control_c, 9, 11, 19
1, 61058, Control_c, 9, 11, 19
1, 61088, Control_c, 9, 11, 18
1, 61118, Control_c, 9, 11, 17
1, 61148, Control_c, 9, 11, 16
1, 61178, Control_c, 9, 11, 16
1, 61208, Control_c, 9, 11, 15
1, 61238, Control_c, 9, 11, 14
1, 61268, Control_c, 9, 11, 13
1, 61298, Control_c, 9, 11, 12
1, 61328, Control_c, 9, 11, 12
1, 61358, Control_c, 9, 11, 11
1, 61388, Control_c, 9, 11, 10
1, 61392, Note_on_c, 10, 33, 0
1, 61392, Note_on_c, 10, 45, 0
1, 61392, Note_on_c, 11, 33, 0
1, 61392, Note_on_c, 11, 45, 0
1, 61392, Note_on_c, 12, 33, 0
1, 61392, Note_on_c, 12, 45, 0
1, 61418, Control_c, 9, 11, 9
1, 61440, Note_on_c, 7, 33, 0
1, 61440, Note_on_c, 7, 45, 0
1, 61440, Note_on_c, 8, 33, 0
1, 61440, Note_on_c, 8, 45, 0
1, 61440, Note_on_c, 7, 45, 117
1, 61440, Note_on_c, 7, 33, 117
1, 61440, Note_on_c, 8, 45, 117
1, 61440, Note_on_c, 8, 33, 117
1, 61440, Note_on_c, 9, 83, 100
1, 61440, Note_on_c, 9, 55, 100
1, 61440, Note_on_c, 9, 30, 100
1, 61440, Note_on_c, 10, 33, 66
1, 61440, Note_on_c, 10, 45, 66
1, 61440, Note_on_c, 11, 33, 66
1, 61440, Note_on_c, 11, 45, 66
1, 61440, Note_on_c, 12, 33, 66
1, 61440, Note_on_c, 12, 45, 66
1, 61448, Control_c, 9, 11, 8
1, 61450, Note_on_c, 9, 83, 0
1, 61450, Note_on_c, 9, 55, 0
1, 61450, Note_on_c, 9, 30, 0
1, 61478, Control_c, 9, 11, 8
1, 61508, Control_c, 9, 11, 7
1, 61538, Control_c, 9, 11, 6
1, 61568, Control_c, 9, 11, 5
1, 61598, Control_c, 9, 11, 4
1, 61628, Control_c, 9, 11, 4
1, 61658, Control_c, 9, 11, 3
1, 61694, Control_c, 9, 11, 5
1, 61724, Control_c, 9, 11, 4
1, 61754, Control_c, 9, 11, 4
1, 61784, Control_c, 9, 11, 3
1, 61814, Control_c, 9, 11, 3
1, 61844, Control_c, 9, 11, 2
1, 61872, Note_on_c, 10, 33, 0
1, 61872, Note_on_c, 10, 45, 0
1, 61872, Note_on_c, 11, 33, 0
1, 61872, Note_on_c, 11, 45, 0
1, 61872, Note_on_c, 12, 33, 0
1, 61872, Note_on_c, 12, 45, 0
1, 61902, Control_c, 9, 11, 48
1, 61920, Note_on_c, 7, 45, 0
1, 61920, Note_on_c, 7, 33, 0
1, 61920, Note_on_c, 8, 45, 0
1, 61920, Note_on_c, 8, 33, 0
1, 61920, Note_on_c, 7, 45, 117
1, 61920, Note_on_c, 7, 33, 117
1, 61920, Note_on_c, 8, 45, 117
1, 61920, Note_on_c, 8, 33, 117
1, 61920, Note_on_c, 9, 83, 100
1, 61920, Note_on_c, 9, 55, 100
1, 61920, Note_on_c, 9, 30, 100
1, 61920, Note_on_c, 10, 33, 66
1, 61920, Note_on_c, 10, 45, 66
1, 61920, Note_on_c, 11, 33, 66
1, 61920, Note_on_c, 11, 45, 66
1, 61920, Note_on_c, 12, 33, 66
1, 61920, Note_on_c, 12, 45, 66
1, 61930, Note_on_c, 9, 83, 0
1, 61930, Note_on_c, 9, 55, 0
1, 61930, Note_on_c, 9, 30, 0
1, 61948, Control_c, 9, 11, 102
1, 61978, Control_c, 9, 11, 102
1, 62008, Control_c, 9, 11, 101
1, 62038, Control_c, 9, 11, 101
1, 62068, Control_c, 9, 11, 100
1, 62098, Control_c, 9, 11, 100
1, 62128, Control_c, 9, 11, 99
1, 62158, Control_c, 9, 11, 99
1, 62188, Control_c, 9, 11, 98
1, 62218, Control_c, 9, 11, 98
1, 62248, Control_c, 9, 11, 97
1, 62278, Control_c, 9, 11, 97
1, 62308, Control_c, 9, 11, 96
1, 62338, Control_c, 9, 11, 95
1, 62352, Note_on_c, 10, 33, 0
1, 62352, Note_on_c, 10, 45, 0
1, 62352, Note_on_c, 11, 33, 0
1, 62352, Note_on_c, 11, 45, 0
1, 62352, Note_on_c, 12, 33, 0
1, 62352, Note_on_c, 12, 45, 0
1, 62368, Control_c, 9, 11, 95
1, 62398, Control_c, 9, 11, 94
1, 62400, Note_on_c, 3, 77, 0
1, 62400, Note_on_c, 4, 77, 0
1, 62400, Note_on_c, 5, 77, 0
1, 62400, Note_on_c, 3, 77, 100
1, 62400, Note_on_c, 4, 77, 100
1, 62400, Note_on_c, 5, 77, 100
1, 62400, Note_on_c, 9, 30, 100
1, 62400, Note_on_c, 9, 83, 100
1, 62400, Note_on_c, 9, 55, 100
1, 62400, Note_on_c, 10, 33, 33
1, 62400, Note_on_c, 10, 45, 33
1, 62400, Note_on_c, 11, 45, 33
1, 62400, Note_on_c, 11, 33, 33
1, 62400, Note_on_c, 12, 45, 33
1, 62400, Note_on_c, 12, 33, 33
1, 62410, Note_on_c, 9, 30, 0
1, 62410, Note_on_c, 9, 83, 0
1, 62410, Note_on_c, 9, 55, 0
1, 62428, Control_c, 9, 11, 94
1, 62458, Control_c, 9, 11, 93
1, 62488, Control_c, 9, 11, 93
1, 62518, Control_c, 9, 11, 92
1, 62548, Control_c, 9, 11, 92
1, 62578, Control_c, 9, 11, 91
1, 62608, Control_c, 9, 11, 91
1, 62638, Control_c, 9, 11, 90
1, 62668, Control_c, 9, 11, 90
1, 62683, Control_c, 9, 11, 95
1, 62708, Control_c, 9, 11, 91
1, 62738, Control_c, 9, 11, 89
1, 62768, Control_c, 9, 11, 87
1, 62798, Control_c, 9, 11, 85
1, 62828, Control_c, 9, 11, 83
1, 62832, Note_on_c, 3, 77, 0
1, 62832, Note_on_c, 4, 77, 0
1, 62832, Note_on_c, 5, 77, 0
1, 62832, Note_on_c, 10, 33, 0
1, 62832, Note_on_c, 10, 45, 0
1, 62832, Note_on_c, 11, 45, 0
1, 62832, Note_on_c, 11, 33, 0
1, 62832, Note_on_c, 12, 45, 0
1, 62832, Note_on_c, 12, 33, 0
1, 62858, Control_c, 9, 11, 81
1, 62880, Note_on_c, 7, 45, 0
1, 62880, Note_on_c, 7, 33, 0
1, 62880, Note_on_c, 8, 45, 0
1, 62880, Note_on_c, 8, 33, 0
1, 62880, Note_on_c, 3, 76, 100
1, 62880, Note_on_c, 4, 76, 100
1, 62880, Note_on_c, 5, 76, 100
1, 62880, Note_on_c, 7, 45, 117
1, 62880, Note_on_c, 7, 33, 117
1, 62880, Note_on_c, 8, 45, 117
1, 62880, Note_on_c, 8, 33, 117
1, 62880, Note_on_c, 9, 83, 100
1, 62880, Note_on_c, 9, 55, 100
1, 62880, Note_on_c, 9, 30, 100
1, 62880, Note_on_c, 10, 33, 66
1, 62880, Note_on_c, 10, 45, 66
1, 62880, Note_on_c, 11, 45, 66
1, 62880, Note_on_c, 11, 33, 66
1, 62880, Note_on_c, 12, 45, 66
1, 62880, Note_on_c, 12, 33, 66
1, 62888, Control_c, 9, 11, 79
1, 62890, Note_on_c, 9, 83, 0
1, 62890, Note_on_c, 9, 55, 0
1, 62890, Note_on_c, 9, 30, 0
1, 62918, Control_c, 9, 11, 77
1, 62948, Control_c, 9, 11, 74
1, 62971, Control_c, 9, 11, 70
1, 63001, Control_c, 9, 11, 69
1, 63031, Control_c, 9, 11, 67
1, 63061, Control_c, 9, 11, 66
1, 63091, Control_c, 9, 11, 64
1, 63121, Control_c, 9, 11, 63
1, 63151, Control_c, 9, 11, 61
1, 63181, Control_c, 9, 11, 59
1, 63211, Control_c, 9, 11, 58
1, 63241, Control_c, 9, 11, 56
1, 63271, Control_c, 9, 11, 55
1, 63301, Control_c, 9, 11, 53
1, 63312, Note_on_c, 3, 76, 0
1, 63312, Note_on_c, 4, 76, 0
1, 63312, Note_on_c, 5, 76, 0
1, 63312, Note_on_c, 10, 33, 0
1, 63312, Note_on_c, 10, 45, 0
1, 63312, Note_on_c, 11, 45, 0
1, 63312, Note_on_c, 11, 33, 0
1, 63312, Note_on_c, 12, 45, 0
1, 63312, Note_on_c, 12, 33, 0
1, 63331, Control_c, 9, 11, 51
1, 63360, Note_on_c, 7, 45, 0
1, 63360, Note_on_c, 7, 33, 0
1, 63360, Note_on_c, 8, 45, 0
1, 63360, Note_on_c, 8, 33, 0
1, 63360, Note_on_c, 3, 75, 100
1, 63360, Note_on_c, 4, 75, 100
1, 63360, Note_on_c, 5, 75, 100
1, 63360, Note_on_c, 7, 33, 117
1, 63360, Note_on_c, 7, 45, 117
1, 63360, Note_on_c, 8, 33, 117
1, 63360, Note_on_c, 8, 45, 117
1, 63360, Note_on_c, 9, 30, 100
1, 63360, Note_on_c, 9, 83, 100
1, 63360, Note_on_c, 9, 55, 100
1, 63360, Note_on_c, 10, 33, 66
1, 63360, Note_on_c, 10, 45, 66
1, 63360, Note_on_c, 11, 45, 66
1, 63360, Note_on_c, 11, 33, 66
1, 63360, Note_on_c, 12, 45, 66
1, 63360, Note_on_c, 12, 33, 66
1, 63361, Control_c, 9, 11, 50
1, 63370, Note_on_c, 9, 30, 0
1, 63370, Note_on_c, 9, 83, 0
1, 63370, Note_on_c, 9, 55, 0
1, 63391, Control_c, 9, 11, 48
1, 63421, Control_c, 9, 11, 47
1, 63451, Control_c, 9, 11, 45
1, 63481, Control_c, 9, 11, 43
1, 63511, Control_c, 9, 11, 42
1, 63541, Control_c, 9, 11, 40
1, 63571, Control_c, 9, 11, 39
1, 63601, Control_c, 9, 11, 37
1, 63631, Control_c, 9, 11, 35
1, 63661, Control_c, 9, 11, 34
1, 63691, Control_c, 9, 11, 32
1, 63721, Control_c, 9, 11, 31
1, 63751, Control_c, 9, 11, 29
1, 63781, Control_c, 9, 11, 27
1, 63792, Note_on_c, 10, 33, 0
1, 63792, Note_on_c, 10, 45, 0
1, 63792, Note_on_c, 11, 45, 0
1, 63792, Note_on_c, 11, 33, 0
1, 63792, Note_on_c, 12, 45, 0
1, 63792, Note_on_c, 12, 33, 0
1, 63811, Control_c, 9, 11, 26
1, 63840, Note_on_c, 9, 30, 100
1, 63840, Note_on_c, 9, 83, 100
1, 63840, Note_on_c, 9, 55, 100
1, 63840, Note_on_c, 10, 33, 31
1, 63840, Note_on_c, 10, 45, 31
1, 63840, Note_on_c, 11, 45, 33
1, 63840, Note_on_c, 11, 33, 33
1, 63840, Note_on_c, 12, 45, 33
1, 63840, Note_on_c, 12, 33, 33
1, 63841, Control_c, 9, 11, 24
1, 63850, Note_on_c, 9, 30, 0
1, 63850, Note_on_c, 9, 83, 0
1, 63850, Note_on_c, 9, 55, 0
1, 63871, Control_c, 9, 11, 23
1, 63901, Control_c, 9, 11, 21
1, 63908, Control_c, 9, 11, 19
1, 63938, Control_c, 9, 11, 19
1, 63968, Control_c, 9, 11, 18
1, 63998, Control_c, 9, 11, 17
1, 64028, Control_c, 9, 11, 16
1, 64058, Control_c, 9, 11, 16
1, 64088, Control_c, 9, 11, 15
1, 64118, Control_c, 9, 11, 14
1, 64148, Control_c, 9, 11, 13
1, 64178, Control_c, 9, 11, 12
1, 64208, Control_c, 9, 11, 12
1, 64238, Control_c, 9, 11, 11
1, 64268, Control_c, 9, 11, 10
1, 64272, Note_on_c, 10, 33, 0
1, 64272, Note_on_c, 10, 45, 0
1, 64272, Note_on_c, 11, 45, 0
1, 64272, Note_on_c, 11, 33, 0
1, 64272, Note_on_c, 12, 45, 0
1, 64272, Note_on_c, 12, 33, 0
1, 64298, Control_c, 9, 11, 9
1, 64320, Note_on_c, 7, 33, 0
1, 64320, Note_on_c, 7, 45, 0
1, 64320, Note_on_c, 8, 33, 0
1, 64320, Note_on_c, 8, 45, 0
1, 64320, Note_on_c, 7, 45, 117
1, 64320, Note_on_c, 7, 33, 117
1, 64320, Note_on_c, 8, 45, 117
1, 64320, Note_on_c, 8, 33, 117
1, 64320, Note_on_c, 9, 83, 100
1, 64320, Note_on_c, 9, 55, 100
1, 64320, Note_on_c, 9, 30, 100
1, 64320, Note_on_c, 10, 33, 66
1, 64320, Note_on_c, 10, 45, 66
1, 64320, Note_on_c, 11, 45, 66
1, 64320, Note_on_c, 11, 33, 66
1, 64320, Note_on_c, 12, 45, 66
1, 64320, Note_on_c, 12, 33, 66
1, 64328, Control_c, 9, 11, 8
1, 64330, Note_on_c, 9, 83, 0
1, 64330, Note_on_c, 9, 55, 0
1, 64330, Note_on_c, 9, 30, 0
1, 64358, Control_c, 9, 11, 8
1, 64388, Control_c, 9, 11, 7
1, 64418, Control_c, 9, 11, 6
1, 64448, Control_c, 9, 11, 5
1, 64478, Control_c, 9, 11, 4
1, 64508, Control_c, 9, 11, 4
1, 64538, Control_c, 9, 11, 3
1, 64574, Control_c, 9, 11, 5
1, 64604, Control_c, 9, 11, 4
1, 64634, Control_c, 9, 11, 4
1, 64664, Control_c, 9, 11, 3
1, 64685, Note_on_c, 5, 75, 0
1, 64694, Control_c, 9, 11, 3
1, 64724, Control_c, 9, 11, 2
1, 64752, Note_on_c, 10, 33, 0
1, 64752, Note_on_c, 10, 45, 0
1, 64752, Note_on_c, 11, 45, 0
1, 64752, Note_on_c, 11, 33, 0
1, 64752, Note_on_c, 12, 45, 0
1, 64752, Note_on_c, 12, 33, 0
1, 64800, Note_on_c, 7, 45, 0
1, 64800, Note_on_c, 7, 33, 0
1, 64800, Note_on_c, 8, 45, 0
1, 64800, Note_on_c, 8, 33, 0
1, 64800, Note_on_c, 6, 62, 127
1, 64800, Note_on_c, 10, 50, 127
1, 64800, Note_on_c, 10, 62, 127
1, 64800, Note_on_c, 10, 38, 127
1, 64800, Note_on_c, 11, 33, 66
1, 64800, Note_on_c, 11, 45, 66
1, 64800, Note_on_c, 12, 33, 66
1, 64800, Note_on_c, 12, 45, 66
1, 65232, Note_on_c, 11, 33, 0
1, 65232, Note_on_c, 11, 45, 0
1, 65232, Note_on_c, 12, 33, 0
1, 65232, Note_on_c, 12, 45, 0
1, 65280, Note_on_c, 3, 75, 0
1, 65280, Note_on_c, 4, 75, 0
1, 65280, Note_on_c, 11, 45, 32
1, 65280, Note_on_c, 11, 33, 32
1, 65280, Note_on_c, 12, 45, 32
1, 65280, Note_on_c, 12, 33, 32
1, 65664, Note_on_c, 6, 62, 0
1, 65712, Note_on_c, 11, 45, 0
1, 65712, Note_on_c, 11, 33, 0
1, 65712, Note_on_c, 12, 45, 0
1, 65712, Note_on_c, 12, 33, 0
1, 65760, Note_on_c, 11, 45, 66
1, 65760, Note_on_c, 11, 33, 66
1, 65760, Note_on_c, 12, 45, 66
1, 65760, Note_on_c, 12, 33, 66
1, 66192, Note_on_c, 11, 45, 0
1, 66192, Note_on_c, 11, 33, 0
1, 66192, Note_on_c, 12, 45, 0
1, 66192, Note_on_c, 12, 33, 0
1, 66240, Note_on_c, 11, 45, 66
1, 66240, Note_on_c, 11, 33, 66
1, 66240, Note_on_c, 12, 45, 66
1, 66240, Note_on_c, 12, 33, 66
1, 66672, Note_on_c, 11, 45, 0
1, 66672, Note_on_c, 11, 33, 0
1, 66672, Note_on_c, 12, 45, 0
1, 66672, Note_on_c, 12, 33, 0
1, 66720, Note_on_c, 11, 45, 33
1, 66720, Note_on_c, 11, 33, 33
1, 66720, Note_on_c, 12, 45, 33
1, 66720, Note_on_c, 12, 33, 33
1, 67152, Note_on_c, 11, 45, 0
1, 67152, Note_on_c, 11, 33, 0
1, 67152, Note_on_c, 12, 45, 0
1, 67152, Note_on_c, 12, 33, 0
1, 67200, Note_on_c, 6, 52, 127
1, 67200, Note_on_c, 10, 40, 127
1, 67200, Note_on_c, 10, 52, 127
1, 67200, Note_on_c, 10, 28, 127
1, 67200, Note_on_c, 11, 45, 66
1, 67200, Note_on_c, 11, 33, 66
1, 67200, Note_on_c, 12, 45, 66
1, 67200, Note_on_c, 12, 33, 66
1, 67632, Note_on_c, 11, 45, 0
1, 67632, Note_on_c, 11, 33, 0
1, 67632, Note_on_c, 12, 45, 0
1, 67632, Note_on_c, 12, 33, 0
1, 67680, Note_on_c, 10, 50, 0
1, 67680, Note_on_c, 10, 62, 0
1, 67680, Note_on_c, 10, 38, 0
1, 67680, Note_on_c, 6, 57, 127
1, 67680, Note_on_c, 10, 45, 127
1, 67680, Note_on_c, 10, 57, 127
1, 67680, Note_on_c, 10, 33, 127
1, 67680, Note_on_c, 11, 33, 66
1, 67680, Note_on_c, 11, 45, 66
1, 67680, Note_on_c, 12, 33, 66
1, 67680, Note_on_c, 12, 45, 66
1, 68064, Note_on_c, 6, 52, 0
1, 68112, Note_on_c, 11, 33, 0
1, 68112, Note_on_c, 11, 45, 0
1, 68112, Note_on_c, 12, 33, 0
1, 68112, Note_on_c, 12, 45, 0
1, 68160, Note_on_c, 10, 40, 0
1, 68160, Note_on_c, 10, 52, 0
1, 68160, Note_on_c, 10, 28, 0
1, 68160, Note_on_c, 11, 33, 38
1, 68160, Note_on_c, 11, 45, 38
1, 68160, Note_on_c, 12, 33, 38
1, 68160, Note_on_c, 12, 45, 38
1, 68544, Note_on_c, 6, 57, 0
1, 68592, Note_on_c, 11, 33, 0
1, 68592, Note_on_c, 11, 45, 0
1, 68592, Note_on_c, 12, 33, 0
1, 68592, Note_on_c, 12, 45, 0
1, 68640, Note_on_c, 11, 33, 66
1, 68640, Note_on_c, 11, 45, 66
1, 68640, Note_on_c, 12, 33, 66
1, 68640, Note_on_c, 12, 45, 66
1, 69072, Note_on_c, 11, 33, 0
1, 69072, Note_on_c, 11, 45, 0
1, 69072, Note_on_c, 12, 33, 0
1, 69072, Note_on_c, 12, 45, 0
1, 69120, Note_on_c, 11, 33, 66
1, 69120, Note_on_c, 11, 45, 66
1, 69120, Note_on_c, 12, 33, 66
1, 69120, Note_on_c, 12, 45, 66
1, 69552, Note_on_c, 11, 33, 0
1, 69552, Note_on_c, 11, 45, 0
1, 69552, Note_on_c, 12, 33, 0
1, 69552, Note_on_c, 12, 45, 0
1, 69600, Note_on_c, 11, 33, 37
1, 69600, Note_on_c, 11, 45, 37
1, 69600, Note_on_c, 12, 33, 37
1, 69600, Note_on_c, 12, 45, 37
1, 70032, Note_on_c, 11, 33, 0
1, 70032, Note_on_c, 11, 45, 0
1, 70032, Note_on_c, 12, 33, 0
1, 70032, Note_on_c, 12, 45, 0
1, 70080, Note_on_c, 11, 33, 66
1, 70080, Note_on_c, 11, 45, 66
1, 70080, Note_on_c, 12, 33, 66
1, 70080, Note_on_c, 12, 45, 66
1, 70512, Note_on_c, 11, 33, 0
1, 70512, Note_on_c, 11, 45, 0
1, 70512, Note_on_c, 12, 33, 0
1, 70512, Note_on_c, 12, 45, 0
1, 70560, Note_on_c, 10, 45, 0
1, 70560, Note_on_c, 10, 57, 0
1, 70560, Note_on_c, 10, 33, 0
1, 70560, Note_on_c, 10, 48, 127
1, 70560, Note_on_c, 10, 60, 127
1, 70560, Note_on_c, 10, 36, 127
1, 70560, Note_on_c, 11, 31, 66
1, 70560, Note_on_c, 11, 43, 66
1, 70560, Note_on_c, 12, 31, 66
1, 70560, Note_on_c, 12, 43, 66
1, 70992, Note_on_c, 11, 31, 0
1, 70992, Note_on_c, 11, 43, 0
1, 70992, Note_on_c, 12, 31, 0
1, 70992, Note_on_c, 12, 43, 0
1, 71040, Note_on_c, 11, 31, 33
1, 71040, Note_on_c, 11, 43, 33
1, 71040, Note_on_c, 12, 31, 33
1, 71040, Note_on_c, 12, 43, 33
1, 71472, Note_on_c, 11, 31, 0
1, 71472, Note_on_c, 11, 43, 0
1, 71472, Note_on_c, 12, 31, 0
1, 71472, Note_on_c, 12, 43, 0
1, 71520, Note_on_c, 11, 31, 66
1, 71520, Note_on_c, 11, 43, 66
1, 71520, Note_on_c, 12, 31, 66
1, 71520, Note_on_c, 12, 43, 66
1, 71952, Note_on_c, 11, 31, 0
1, 71952, Note_on_c, 11, 43, 0
1, 71952, Note_on_c, 12, 31, 0
1, 71952, Note_on_c, 12, 43, 0
1, 72000, Note_on_c, 11, 31, 66
1, 72000, Note_on_c, 11, 43, 66
1, 72000, Note_on_c, 12, 31, 66
1, 72000, Note_on_c, 12, 43, 66
1, 72432, Note_on_c, 11, 31, 0
1, 72432, Note_on_c, 11, 43, 0
1, 72432, Note_on_c, 12, 31, 0
1, 72432, Note_on_c, 12, 43, 0
1, 72480, Note_on_c, 11, 31, 33
1, 72480, Note_on_c, 11, 43, 33
1, 72480, Note_on_c, 12, 31, 33
1, 72480, Note_on_c, 12, 43, 33
1, 72912, Note_on_c, 11, 31, 0
1, 72912, Note_on_c, 11, 43, 0
1, 72912, Note_on_c, 12, 31, 0
1, 72912, Note_on_c, 12, 43, 0
1, 72960, Note_on_c, 10, 50, 127
1, 72960, Note_on_c, 10, 26, 127
1, 72960, Note_on_c, 10, 38, 127
1, 72960, Note_on_c, 11, 31, 66
1, 72960, Note_on_c, 11, 43, 66
1, 72960, Note_on_c, 12, 31, 66
1, 72960, Note_on_c, 12, 43, 66
1, 73392, Note_on_c, 11, 31, 0
1, 73392, Note_on_c, 11, 43, 0
1, 73392, Note_on_c, 12, 31, 0
1, 73392, Note_on_c, 12, 43, 0
1, 73440, Note_on_c, 10, 48, 0
1, 73440, Note_on_c, 10, 60, 0
1, 73440, Note_on_c, 10, 36, 0
1, 73440, Note_on_c, 10, 55, 127
1, 73440, Note_on_c, 10, 31, 127
1, 73440, Note_on_c, 10, 43, 127
1, 73440, Note_on_c, 11, 31, 66
1, 73440, Note_on_c, 11, 43, 66
1, 73440, Note_on_c, 12, 31, 66
1, 73440, Note_on_c, 12, 43, 66
1, 73872, Note_on_c, 11, 31, 0
1, 73872, Note_on_c, 11, 43, 0
1, 73872, Note_on_c, 12, 31, 0
1, 73872, Note_on_c, 12, 43, 0
1, 73920, Note_on_c, 10, 50, 0
1, 73920, Note_on_c, 10, 26, 0
1, 73920, Note_on_c, 10, 38, 0
1, 73920, Note_on_c, 11, 31, 32
1, 73920, Note_on_c, 11, 43, 32
1, 73920, Note_on_c, 12, 31, 32
1, 73920, Note_on_c, 12, 43, 32
1, 74352, Note_on_c, 11, 31, 0
1, 74352, Note_on_c, 11, 43, 0
1, 74352, Note_on_c, 12, 31, 0
1, 74352, Note_on_c, 12, 43, 0
1, 74400, Note_on_c, 11, 31, 66
1, 74400, Note_on_c, 11, 43, 66
1, 74400, Note_on_c, 12, 31, 66
1, 74400, Note_on_c, 12, 43, 66
1, 74832, Note_on_c, 11, 31, 0
1, 74832, Note_on_c, 11, 43, 0
1, 74832, Note_on_c, 12, 31, 0
1, 74832, Note_on_c, 12, 43, 0
1, 74880, Note_on_c, 11, 31, 66
1, 74880, Note_on_c, 11, 43, 66
1, 74880, Note_on_c, 12, 31, 66
1, 74880, Note_on_c, 12, 43, 66
1, 75312, Note_on_c, 11, 31, 0
1, 75312, Note_on_c, 11, 43, 0
1, 75312, Note_on_c, 12, 31, 0
1, 75312, Note_on_c, 12, 43, 0
1, 75360, Note_on_c, 11, 31, 33
1, 75360, Note_on_c, 11, 43, 33
1, 75360, Note_on_c, 12, 31, 33
1, 75360, Note_on_c, 12, 43, 33
1, 75792, Note_on_c, 11, 31, 0
1, 75792, Note_on_c, 11, 43, 0
1, 75792, Note_on_c, 12, 31, 0
1, 75792, Note_on_c, 12, 43, 0
1, 75840, Note_on_c, 11, 43, 66
1, 75840, Note_on_c, 11, 31, 66
1, 75840, Note_on_c, 12, 43, 66
1, 75840, Note_on_c, 12, 31, 66
1, 76272, Note_on_c, 11, 43, 0
1, 76272, Note_on_c, 11, 31, 0
1, 76272, Note_on_c, 12, 43, 0
1, 76272, Note_on_c, 12, 31, 0
1, 76320, Note_on_c, 10, 55, 0
1, 76320, Note_on_c, 10, 31, 0
1, 76320, Note_on_c, 10, 43, 0
1, 76320, Note_on_c, 11, 43, 66
1, 76320, Note_on_c, 11, 31, 66
1, 76320, Note_on_c, 12, 43, 66
1, 76320, Note_on_c, 12, 31, 66
1, 76752, Note_on_c, 11, 43, 0
1, 76752, Note_on_c, 11, 31, 0
1, 76752, Note_on_c, 12, 43, 0
1, 76752, Note_on_c, 12, 31, 0
1, 76800, Note_on_c, 11, 43, 38
1, 76800, Note_on_c, 11, 31, 38
1, 76800, Note_on_c, 12, 43, 38
1, 76800, Note_on_c, 12, 31, 38
1, 77232, Note_on_c, 11, 43, 0
1, 77232, Note_on_c, 11, 31, 0
1, 77232, Note_on_c, 12, 43, 0
1, 77232, Note_on_c, 12, 31, 0
1, 77280, Note_on_c, 11, 43, 66
1, 77280, Note_on_c, 11, 31, 66
1, 77280, Note_on_c, 12, 43, 66
1, 77280, Note_on_c, 12, 31, 66
1, 77712, Note_on_c, 11, 43, 0
1, 77712, Note_on_c, 11, 31, 0
1, 77712, Note_on_c, 12, 43, 0
1, 77712, Note_on_c, 12, 31, 0
1, 77712, End_track
0, 0, End_of_file
