0, 0, Header, 1, 17, 120
1, 0, Start_track
1, 0, Title_t, "untitled"
1, 0, Text_t, "\012"
1, 0, Text_t, " \012"
1, 0, System_exclusive, 10, 65, 16, 66, 18, 0, 0, 127, 0, 1, 247
1, 0, System_exclusive, 10, 65, 16, 66, 18, 64, 1, 51, 100, 40, 247
1, 0, System_exclusive, 10, 65, 16, 66, 18, 64, 1, 52, 100, 39, 247
1, 0, System_exclusive, 10, 65, 16, 66, 18, 64, 1, 56, 4, 3, 247
1, 0, System_exclusive, 10, 65, 16, 66, 18, 64, 1, 58, 80, 53, 247
1, 0, System_exclusive, 10, 65, 16, 66, 18, 64, 2, 1, 67, 122, 247
1, 0, System_exclusive, 10, 65, 16, 66, 18, 64, 2, 2, 1, 59, 247
1, 0, System_exclusive, 10, 65, 16, 66, 18, 64, 2, 3, 67, 120, 247
1, 0, Time_signature, 4, 2, 24, 8
1, 0, Key_signature, 0, "major"
1, 0, Tempo, 444444
1, 46560, Tempo, 500000
1, 50400, Tempo, 500000
1, 50400, End_track
2, 0, Start_track
2, 0, Title_t, "A1-Trumpet     "
2, 0, Control_c, 0, 0, 0
2, 0, Control_c, 0, 32, 3
2, 0, Program_c, 0, 56
2, 0, Control_c, 0, 7, 115
2, 0, Control_c, 0, 10, 64
2, 60, Text_t, "Start of Setup by GSAE"
2, 79, Control_c, 0, 91, 50
2, 80, Control_c, 0, 93, 10
2, 81, Control_c, 0, 94, 5
2, 256, Text_t, "End of Setup by GSAE"
2, 960, Note_on_c, 0, 73, 127
2, 992, Note_on_c, 0, 73, 0
2, 1040, Note_on_c, 0, 73, 127
2, 1072, Note_on_c, 0, 73, 0
2, 1080, Note_on_c, 0, 73, 127
2, 1112, Note_on_c, 0, 73, 0
2, 1160, Note_on_c, 0, 73, 127
2, 1192, Note_on_c, 0, 73, 0
2, 1200, Note_on_c, 0, 73, 127
2, 1232, Note_on_c, 0, 73, 0
2, 1280, Note_on_c, 0, 73, 127
2, 1312, Note_on_c, 0, 73, 0
2, 1360, Note_on_c, 0, 71, 127
2, 1392, Note_on_c, 0, 71, 0
2, 1440, Note_on_c, 0, 69, 127
2, 1920, Note_on_c, 0, 69, 0
2, 1920, Note_on_c, 0, 73, 127
2, 1952, Note_on_c, 0, 73, 0
2, 2000, Note_on_c, 0, 73, 127
2, 2032, Note_on_c, 0, 73, 0
2, 2040, Note_on_c, 0, 73, 127
2, 2072, Note_on_c, 0, 73, 0
2, 2120, Note_on_c, 0, 73, 127
2, 2152, Note_on_c, 0, 73, 0
2, 2160, Note_on_c, 0, 73, 127
2, 2192, Note_on_c, 0, 73, 0
2, 2240, Note_on_c, 0, 71, 127
2, 2272, Note_on_c, 0, 71, 0
2, 2320, Note_on_c, 0, 76, 127
2, 2352, Note_on_c, 0, 76, 0
2, 2400, Note_on_c, 0, 69, 127
2, 2880, Note_on_c, 0, 69, 0
2, 2880, Note_on_c, 0, 68, 100
2, 2912, Note_on_c, 0, 68, 0
2, 2960, Note_on_c, 0, 68, 100
2, 2992, Note_on_c, 0, 68, 0
2, 3000, Note_on_c, 0, 68, 100
2, 3032, Note_on_c, 0, 68, 0
2, 3080, Note_on_c, 0, 68, 100
2, 3112, Note_on_c, 0, 68, 0
2, 3120, Note_on_c, 0, 68, 100
2, 3152, Note_on_c, 0, 68, 0
2, 3200, Note_on_c, 0, 69, 100
2, 3232, Note_on_c, 0, 69, 0
2, 3280, Note_on_c, 0, 69, 100
2, 3312, Note_on_c, 0, 69, 0
2, 3360, Note_on_c, 0, 68, 100
2, 3392, Note_on_c, 0, 68, 0
2, 3440, Note_on_c, 0, 68, 100
2, 3472, Note_on_c, 0, 68, 0
2, 3480, Note_on_c, 0, 68, 100
2, 3512, Note_on_c, 0, 68, 0
2, 3560, Note_on_c, 0, 68, 100
2, 3592, Note_on_c, 0, 68, 0
2, 3600, Note_on_c, 0, 68, 100
2, 3632, Note_on_c, 0, 68, 0
2, 3680, Note_on_c, 0, 71, 100
2, 3712, Note_on_c, 0, 71, 0
2, 3760, Note_on_c, 0, 69, 100
2, 3792, Note_on_c, 0, 69, 0
2, 3840, Note_on_c, 0, 76, 120
2, 3840, Note_on_c, 0, 73, 120
2, 3840, Note_on_c, 0, 68, 120
2, 3872, Note_on_c, 0, 68, 0
2, 3872, Note_on_c, 0, 73, 0
2, 3872, Note_on_c, 0, 76, 0
2, 3920, Note_on_c, 0, 76, 120
2, 3920, Note_on_c, 0, 73, 120
2, 3920, Note_on_c, 0, 68, 120
2, 3952, Note_on_c, 0, 68, 0
2, 3952, Note_on_c, 0, 73, 0
2, 3952, Note_on_c, 0, 76, 0
2, 3960, Note_on_c, 0, 76, 120
2, 3960, Note_on_c, 0, 73, 120
2, 3960, Note_on_c, 0, 68, 120
2, 3992, Note_on_c, 0, 68, 0
2, 3992, Note_on_c, 0, 73, 0
2, 3992, Note_on_c, 0, 76, 0
2, 4040, Note_on_c, 0, 76, 120
2, 4040, Note_on_c, 0, 73, 120
2, 4040, Note_on_c, 0, 68, 120
2, 4072, Note_on_c, 0, 68, 0
2, 4072, Note_on_c, 0, 73, 0
2, 4072, Note_on_c, 0, 76, 0
2, 4080, Note_on_c, 0, 76, 120
2, 4080, Note_on_c, 0, 73, 120
2, 4080, Note_on_c, 0, 68, 120
2, 4112, Note_on_c, 0, 68, 0
2, 4112, Note_on_c, 0, 73, 0
2, 4112, Note_on_c, 0, 76, 0
2, 4160, Note_on_c, 0, 76, 120
2, 4160, Note_on_c, 0, 73, 120
2, 4160, Note_on_c, 0, 69, 120
2, 4192, Note_on_c, 0, 69, 0
2, 4192, Note_on_c, 0, 73, 0
2, 4192, Note_on_c, 0, 76, 0
2, 4240, Note_on_c, 0, 76, 120
2, 4240, Note_on_c, 0, 73, 120
2, 4240, Note_on_c, 0, 69, 120
2, 4272, Note_on_c, 0, 69, 0
2, 4272, Note_on_c, 0, 73, 0
2, 4272, Note_on_c, 0, 76, 0
2, 4320, Note_on_c, 0, 76, 120
2, 4320, Note_on_c, 0, 73, 120
2, 4320, Note_on_c, 0, 68, 120
2, 4352, Note_on_c, 0, 68, 0
2, 4352, Note_on_c, 0, 73, 0
2, 4352, Note_on_c, 0, 76, 0
2, 4400, Note_on_c, 0, 76, 120
2, 4400, Note_on_c, 0, 73, 120
2, 4400, Note_on_c, 0, 68, 120
2, 4432, Note_on_c, 0, 68, 0
2, 4432, Note_on_c, 0, 73, 0
2, 4432, Note_on_c, 0, 76, 0
2, 4440, Note_on_c, 0, 76, 120
2, 4440, Note_on_c, 0, 73, 120
2, 4440, Note_on_c, 0, 68, 120
2, 4472, Note_on_c, 0, 68, 0
2, 4472, Note_on_c, 0, 73, 0
2, 4472, Note_on_c, 0, 76, 0
2, 4520, Note_on_c, 0, 76, 120
2, 4520, Note_on_c, 0, 73, 120
2, 4520, Note_on_c, 0, 68, 120
2, 4552, Note_on_c, 0, 68, 0
2, 4552, Note_on_c, 0, 73, 0
2, 4552, Note_on_c, 0, 76, 0
2, 4560, Note_on_c, 0, 76, 120
2, 4560, Note_on_c, 0, 73, 120
2, 4560, Note_on_c, 0, 68, 120
2, 4592, Note_on_c, 0, 68, 0
2, 4592, Note_on_c, 0, 73, 0
2, 4592, Note_on_c, 0, 76, 0
2, 4640, Note_on_c, 0, 78, 120
2, 4640, Note_on_c, 0, 74, 120
2, 4640, Note_on_c, 0, 71, 120
2, 4672, Note_on_c, 0, 71, 0
2, 4672, Note_on_c, 0, 74, 0
2, 4672, Note_on_c, 0, 78, 0
2, 4720, Note_on_c, 0, 78, 120
2, 4720, Note_on_c, 0, 74, 120
2, 4720, Note_on_c, 0, 69, 120
2, 4752, Note_on_c, 0, 69, 0
2, 4752, Note_on_c, 0, 74, 0
2, 4752, Note_on_c, 0, 78, 0
2, 6720, Note_on_c, 0, 73, 115
2, 6752, Note_on_c, 0, 73, 0
2, 6840, Note_on_c, 0, 75, 115
2, 6872, Note_on_c, 0, 75, 0
2, 6960, Note_on_c, 0, 76, 115
2, 6992, Note_on_c, 0, 76, 0
2, 7080, Note_on_c, 0, 75, 115
2, 7112, Note_on_c, 0, 75, 0
2, 7200, Note_on_c, 0, 73, 115
2, 7232, Note_on_c, 0, 73, 0
2, 7280, Note_on_c, 0, 71, 115
2, 7312, Note_on_c, 0, 71, 0
2, 7360, Note_on_c, 0, 69, 115
2, 7840, Note_on_c, 0, 69, 0
2, 8000, Note_on_c, 0, 71, 115
2, 8032, Note_on_c, 0, 71, 0
2, 8120, Note_on_c, 0, 73, 115
2, 8152, Note_on_c, 0, 73, 0
2, 8240, Note_on_c, 0, 75, 115
2, 8272, Note_on_c, 0, 75, 0
2, 8360, Note_on_c, 0, 73, 115
2, 8392, Note_on_c, 0, 73, 0
2, 8480, Note_on_c, 0, 71, 115
2, 8512, Note_on_c, 0, 71, 0
2, 8560, Note_on_c, 0, 75, 115
2, 8592, Note_on_c, 0, 75, 0
2, 8640, Note_on_c, 0, 68, 115
2, 9120, Note_on_c, 0, 68, 0
2, 9280, Note_on_c, 0, 69, 115
2, 9312, Note_on_c, 0, 69, 0
2, 9400, Note_on_c, 0, 71, 115
2, 9432, Note_on_c, 0, 71, 0
2, 9520, Note_on_c, 0, 73, 115
2, 9552, Note_on_c, 0, 73, 0
2, 9640, Note_on_c, 0, 71, 115
2, 9672, Note_on_c, 0, 71, 0
2, 9760, Note_on_c, 0, 69, 115
2, 9792, Note_on_c, 0, 69, 0
2, 9840, Note_on_c, 0, 68, 115
2, 9872, Note_on_c, 0, 68, 0
2, 9920, Note_on_c, 0, 66, 115
2, 10400, Note_on_c, 0, 66, 0
2, 10400, Note_on_c, 0, 64, 115
2, 10560, Note_on_c, 0, 64, 0
2, 10560, Note_on_c, 0, 63, 115
2, 11040, Note_on_c, 0, 63, 0
2, 11040, Note_on_c, 0, 67, 115
2, 11200, Note_on_c, 0, 67, 0
2, 11200, Note_on_c, 0, 68, 115
2, 11680, Note_on_c, 0, 68, 0
2, 11840, Note_on_c, 0, 73, 115
2, 11872, Note_on_c, 0, 73, 0
2, 11960, Note_on_c, 0, 75, 115
2, 11992, Note_on_c, 0, 75, 0
2, 12080, Note_on_c, 0, 76, 115
2, 12112, Note_on_c, 0, 76, 0
2, 12200, Note_on_c, 0, 75, 115
2, 12232, Note_on_c, 0, 75, 0
2, 12320, Note_on_c, 0, 73, 115
2, 12352, Note_on_c, 0, 73, 0
2, 12400, Note_on_c, 0, 71, 115
2, 12432, Note_on_c, 0, 71, 0
2, 12480, Note_on_c, 0, 69, 115
2, 13040, Note_on_c, 0, 69, 0
2, 13120, Note_on_c, 0, 71, 115
2, 13152, Note_on_c, 0, 71, 0
2, 13240, Note_on_c, 0, 73, 115
2, 13272, Note_on_c, 0, 73, 0
2, 13360, Note_on_c, 0, 75, 115
2, 13392, Note_on_c, 0, 75, 0
2, 13480, Note_on_c, 0, 73, 115
2, 13512, Note_on_c, 0, 73, 0
2, 13600, Note_on_c, 0, 71, 115
2, 13632, Note_on_c, 0, 71, 0
2, 13680, Note_on_c, 0, 75, 115
2, 13712, Note_on_c, 0, 75, 0
2, 13760, Note_on_c, 0, 68, 115
2, 14360, Note_on_c, 0, 68, 0
2, 14400, Note_on_c, 0, 69, 115
2, 14432, Note_on_c, 0, 69, 0
2, 14520, Note_on_c, 0, 71, 115
2, 14552, Note_on_c, 0, 71, 0
2, 14640, Note_on_c, 0, 73, 115
2, 14672, Note_on_c, 0, 73, 0
2, 14760, Note_on_c, 0, 71, 115
2, 14792, Note_on_c, 0, 71, 0
2, 14880, Note_on_c, 0, 69, 115
2, 14912, Note_on_c, 0, 69, 0
2, 14960, Note_on_c, 0, 68, 115
2, 14992, Note_on_c, 0, 68, 0
2, 15040, Note_on_c, 0, 67, 115
2, 15640, Note_on_c, 0, 67, 0
2, 15680, Note_on_c, 0, 70, 115
2, 15712, Note_on_c, 0, 70, 0
2, 15800, Note_on_c, 0, 72, 115
2, 15832, Note_on_c, 0, 72, 0
2, 15920, Note_on_c, 0, 73, 115
2, 15952, Note_on_c, 0, 73, 0
2, 16040, Note_on_c, 0, 76, 115
2, 16072, Note_on_c, 0, 76, 0
2, 16160, Note_on_c, 0, 75, 115
2, 16192, Note_on_c, 0, 75, 0
2, 16240, Note_on_c, 0, 73, 115
2, 16272, Note_on_c, 0, 73, 0
2, 16320, Note_on_c, 0, 75, 115
2, 16920, Note_on_c, 0, 75, 0
2, 16960, Note_on_c, 0, 80, 127
2, 17074, Note_on_c, 0, 80, 0
2, 17080, Note_on_c, 0, 78, 127
2, 17194, Note_on_c, 0, 78, 0
2, 17200, Note_on_c, 0, 76, 127
2, 17314, Note_on_c, 0, 76, 0
2, 17320, Note_on_c, 0, 75, 127
2, 17396, Note_on_c, 0, 75, 0
2, 17400, Note_on_c, 0, 76, 127
2, 17438, Note_on_c, 0, 76, 0
2, 17440, Note_on_c, 0, 73, 127
2, 17516, Note_on_c, 0, 73, 0
2, 17520, Note_on_c, 0, 71, 127
2, 17596, Note_on_c, 0, 71, 0
2, 17600, Note_on_c, 0, 69, 127
2, 17752, Note_on_c, 0, 69, 0
2, 17760, Note_on_c, 0, 80, 127
2, 18720, Note_on_c, 0, 80, 0
2, 24640, Note_on_c, 0, 68, 100
2, 24672, Note_on_c, 0, 68, 0
2, 24720, Note_on_c, 0, 68, 100
2, 24752, Note_on_c, 0, 68, 0
2, 24760, Note_on_c, 0, 68, 100
2, 24792, Note_on_c, 0, 68, 0
2, 24840, Note_on_c, 0, 68, 100
2, 24872, Note_on_c, 0, 68, 0
2, 24880, Note_on_c, 0, 68, 100
2, 24912, Note_on_c, 0, 68, 0
2, 24960, Note_on_c, 0, 69, 100
2, 24992, Note_on_c, 0, 69, 0
2, 25040, Note_on_c, 0, 69, 100
2, 25072, Note_on_c, 0, 69, 0
2, 25120, Note_on_c, 0, 68, 100
2, 25152, Note_on_c, 0, 68, 0
2, 25200, Note_on_c, 0, 68, 100
2, 25232, Note_on_c, 0, 68, 0
2, 25240, Note_on_c, 0, 68, 100
2, 25272, Note_on_c, 0, 68, 0
2, 25320, Note_on_c, 0, 68, 100
2, 25352, Note_on_c, 0, 68, 0
2, 25360, Note_on_c, 0, 68, 100
2, 25392, Note_on_c, 0, 68, 0
2, 25440, Note_on_c, 0, 71, 100
2, 25472, Note_on_c, 0, 71, 0
2, 25520, Note_on_c, 0, 69, 100
2, 25552, Note_on_c, 0, 69, 0
2, 25600, Note_on_c, 0, 76, 120
2, 25600, Note_on_c, 0, 73, 120
2, 25600, Note_on_c, 0, 68, 120
2, 25632, Note_on_c, 0, 68, 0
2, 25632, Note_on_c, 0, 73, 0
2, 25632, Note_on_c, 0, 76, 0
2, 25680, Note_on_c, 0, 76, 120
2, 25680, Note_on_c, 0, 73, 120
2, 25680, Note_on_c, 0, 68, 120
2, 25712, Note_on_c, 0, 68, 0
2, 25712, Note_on_c, 0, 73, 0
2, 25712, Note_on_c, 0, 76, 0
2, 25720, Note_on_c, 0, 76, 120
2, 25720, Note_on_c, 0, 73, 120
2, 25720, Note_on_c, 0, 68, 120
2, 25752, Note_on_c, 0, 68, 0
2, 25752, Note_on_c, 0, 73, 0
2, 25752, Note_on_c, 0, 76, 0
2, 25800, Note_on_c, 0, 76, 120
2, 25800, Note_on_c, 0, 73, 120
2, 25800, Note_on_c, 0, 68, 120
2, 25832, Note_on_c, 0, 68, 0
2, 25832, Note_on_c, 0, 73, 0
2, 25832, Note_on_c, 0, 76, 0
2, 25840, Note_on_c, 0, 76, 120
2, 25840, Note_on_c, 0, 73, 120
2, 25840, Note_on_c, 0, 68, 120
2, 25872, Note_on_c, 0, 68, 0
2, 25872, Note_on_c, 0, 73, 0
2, 25872, Note_on_c, 0, 76, 0
2, 25920, Note_on_c, 0, 76, 120
2, 25920, Note_on_c, 0, 73, 120
2, 25920, Note_on_c, 0, 69, 120
2, 25952, Note_on_c, 0, 69, 0
2, 25952, Note_on_c, 0, 73, 0
2, 25952, Note_on_c, 0, 76, 0
2, 26000, Note_on_c, 0, 76, 120
2, 26000, Note_on_c, 0, 73, 120
2, 26000, Note_on_c, 0, 69, 120
2, 26032, Note_on_c, 0, 69, 0
2, 26032, Note_on_c, 0, 73, 0
2, 26032, Note_on_c, 0, 76, 0
2, 26080, Note_on_c, 0, 76, 120
2, 26080, Note_on_c, 0, 73, 120
2, 26080, Note_on_c, 0, 68, 120
2, 26112, Note_on_c, 0, 68, 0
2, 26112, Note_on_c, 0, 73, 0
2, 26112, Note_on_c, 0, 76, 0
2, 26160, Note_on_c, 0, 76, 120
2, 26160, Note_on_c, 0, 73, 120
2, 26160, Note_on_c, 0, 68, 120
2, 26192, Note_on_c, 0, 68, 0
2, 26192, Note_on_c, 0, 73, 0
2, 26192, Note_on_c, 0, 76, 0
2, 26200, Note_on_c, 0, 76, 120
2, 26200, Note_on_c, 0, 73, 120
2, 26200, Note_on_c, 0, 68, 120
2, 26232, Note_on_c, 0, 68, 0
2, 26232, Note_on_c, 0, 73, 0
2, 26232, Note_on_c, 0, 76, 0
2, 26280, Note_on_c, 0, 76, 120
2, 26280, Note_on_c, 0, 73, 120
2, 26280, Note_on_c, 0, 68, 120
2, 26312, Note_on_c, 0, 68, 0
2, 26312, Note_on_c, 0, 73, 0
2, 26312, Note_on_c, 0, 76, 0
2, 26320, Note_on_c, 0, 76, 120
2, 26320, Note_on_c, 0, 73, 120
2, 26320, Note_on_c, 0, 68, 120
2, 26352, Note_on_c, 0, 68, 0
2, 26352, Note_on_c, 0, 73, 0
2, 26352, Note_on_c, 0, 76, 0
2, 26400, Note_on_c, 0, 78, 120
2, 26400, Note_on_c, 0, 74, 120
2, 26400, Note_on_c, 0, 71, 120
2, 26432, Note_on_c, 0, 71, 0
2, 26432, Note_on_c, 0, 74, 0
2, 26432, Note_on_c, 0, 78, 0
2, 26480, Note_on_c, 0, 78, 120
2, 26480, Note_on_c, 0, 74, 120
2, 26480, Note_on_c, 0, 69, 120
2, 26512, Note_on_c, 0, 69, 0
2, 26512, Note_on_c, 0, 74, 0
2, 26512, Note_on_c, 0, 78, 0
2, 28480, Note_on_c, 0, 73, 115
2, 28512, Note_on_c, 0, 73, 0
2, 28600, Note_on_c, 0, 75, 115
2, 28632, Note_on_c, 0, 75, 0
2, 28720, Note_on_c, 0, 76, 115
2, 28752, Note_on_c, 0, 76, 0
2, 28840, Note_on_c, 0, 75, 115
2, 28872, Note_on_c, 0, 75, 0
2, 28960, Note_on_c, 0, 73, 115
2, 28992, Note_on_c, 0, 73, 0
2, 29040, Note_on_c, 0, 71, 115
2, 29072, Note_on_c, 0, 71, 0
2, 29120, Note_on_c, 0, 69, 115
2, 29600, Note_on_c, 0, 69, 0
2, 29760, Note_on_c, 0, 71, 115
2, 29792, Note_on_c, 0, 71, 0
2, 29880, Note_on_c, 0, 73, 115
2, 29912, Note_on_c, 0, 73, 0
2, 30000, Note_on_c, 0, 75, 115
2, 30032, Note_on_c, 0, 75, 0
2, 30120, Note_on_c, 0, 73, 115
2, 30152, Note_on_c, 0, 73, 0
2, 30240, Note_on_c, 0, 71, 115
2, 30272, Note_on_c, 0, 71, 0
2, 30320, Note_on_c, 0, 75, 115
2, 30352, Note_on_c, 0, 75, 0
2, 30400, Note_on_c, 0, 68, 115
2, 30880, Note_on_c, 0, 68, 0
2, 31040, Note_on_c, 0, 69, 115
2, 31072, Note_on_c, 0, 69, 0
2, 31160, Note_on_c, 0, 71, 115
2, 31192, Note_on_c, 0, 71, 0
2, 31280, Note_on_c, 0, 73, 115
2, 31312, Note_on_c, 0, 73, 0
2, 31400, Note_on_c, 0, 71, 115
2, 31432, Note_on_c, 0, 71, 0
2, 31520, Note_on_c, 0, 69, 115
2, 31552, Note_on_c, 0, 69, 0
2, 31600, Note_on_c, 0, 68, 115
2, 31632, Note_on_c, 0, 68, 0
2, 31680, Note_on_c, 0, 66, 115
2, 32160, Note_on_c, 0, 66, 0
2, 32160, Note_on_c, 0, 64, 115
2, 32320, Note_on_c, 0, 64, 0
2, 32320, Note_on_c, 0, 63, 115
2, 32800, Note_on_c, 0, 63, 0
2, 32800, Note_on_c, 0, 67, 115
2, 32960, Note_on_c, 0, 67, 0
2, 32960, Note_on_c, 0, 68, 115
2, 33440, Note_on_c, 0, 68, 0
2, 33600, Note_on_c, 0, 73, 115
2, 33632, Note_on_c, 0, 73, 0
2, 33720, Note_on_c, 0, 75, 115
2, 33752, Note_on_c, 0, 75, 0
2, 33840, Note_on_c, 0, 76, 115
2, 33872, Note_on_c, 0, 76, 0
2, 33960, Note_on_c, 0, 75, 115
2, 33992, Note_on_c, 0, 75, 0
2, 34080, Note_on_c, 0, 73, 115
2, 34112, Note_on_c, 0, 73, 0
2, 34160, Note_on_c, 0, 71, 115
2, 34192, Note_on_c, 0, 71, 0
2, 34240, Note_on_c, 0, 69, 115
2, 34800, Note_on_c, 0, 69, 0
2, 34880, Note_on_c, 0, 71, 115
2, 34912, Note_on_c, 0, 71, 0
2, 35000, Note_on_c, 0, 73, 115
2, 35032, Note_on_c, 0, 73, 0
2, 35120, Note_on_c, 0, 75, 115
2, 35152, Note_on_c, 0, 75, 0
2, 35240, Note_on_c, 0, 73, 115
2, 35272, Note_on_c, 0, 73, 0
2, 35360, Note_on_c, 0, 71, 115
2, 35392, Note_on_c, 0, 71, 0
2, 35440, Note_on_c, 0, 75, 115
2, 35472, Note_on_c, 0, 75, 0
2, 35520, Note_on_c, 0, 68, 115
2, 36120, Note_on_c, 0, 68, 0
2, 36160, Note_on_c, 0, 69, 115
2, 36192, Note_on_c, 0, 69, 0
2, 36280, Note_on_c, 0, 71, 115
2, 36312, Note_on_c, 0, 71, 0
2, 36400, Note_on_c, 0, 73, 115
2, 36432, Note_on_c, 0, 73, 0
2, 36520, Note_on_c, 0, 71, 115
2, 36552, Note_on_c, 0, 71, 0
2, 36640, Note_on_c, 0, 69, 115
2, 36672, Note_on_c, 0, 69, 0
2, 36720, Note_on_c, 0, 68, 115
2, 36752, Note_on_c, 0, 68, 0
2, 36800, Note_on_c, 0, 67, 115
2, 37400, Note_on_c, 0, 67, 0
2, 37440, Note_on_c, 0, 70, 115
2, 37472, Note_on_c, 0, 70, 0
2, 37560, Note_on_c, 0, 72, 115
2, 37592, Note_on_c, 0, 72, 0
2, 37680, Note_on_c, 0, 73, 115
2, 37712, Note_on_c, 0, 73, 0
2, 37800, Note_on_c, 0, 76, 115
2, 37832, Note_on_c, 0, 76, 0
2, 37920, Note_on_c, 0, 75, 115
2, 37952, Note_on_c, 0, 75, 0
2, 38000, Note_on_c, 0, 73, 115
2, 38032, Note_on_c, 0, 73, 0
2, 38080, Note_on_c, 0, 75, 115
2, 38680, Note_on_c, 0, 75, 0
2, 38720, Note_on_c, 0, 80, 127
2, 38834, Note_on_c, 0, 80, 0
2, 38840, Note_on_c, 0, 78, 127
2, 38954, Note_on_c, 0, 78, 0
2, 38960, Note_on_c, 0, 76, 127
2, 39074, Note_on_c, 0, 76, 0
2, 39080, Note_on_c, 0, 75, 127
2, 39156, Note_on_c, 0, 75, 0
2, 39160, Note_on_c, 0, 76, 127
2, 39198, Note_on_c, 0, 76, 0
2, 39200, Note_on_c, 0, 73, 127
2, 39276, Note_on_c, 0, 73, 0
2, 39280, Note_on_c, 0, 71, 127
2, 39356, Note_on_c, 0, 71, 0
2, 39360, Note_on_c, 0, 69, 127
2, 39512, Note_on_c, 0, 69, 0
2, 39520, Note_on_c, 0, 80, 127
2, 40480, Note_on_c, 0, 80, 0
2, 47640, Note_on_c, 0, 67, 100
2, 47694, Note_on_c, 0, 67, 0
2, 47820, Note_on_c, 0, 68, 100
2, 47874, Note_on_c, 0, 68, 0
2, 48000, Note_on_c, 0, 65, 100
2, 48054, Note_on_c, 0, 65, 0
2, 48180, Note_on_c, 0, 67, 100
2, 48234, Note_on_c, 0, 67, 0
2, 48300, Note_on_c, 0, 68, 100
2, 48354, Note_on_c, 0, 68, 0
2, 48360, Note_on_c, 0, 67, 100
2, 48414, Note_on_c, 0, 67, 0
2, 48480, Control_c, 0, 11, 127
2, 48480, Note_on_c, 0, 65, 100
2, 48500, Control_c, 0, 11, 126
2, 48520, Control_c, 0, 11, 125
2, 48540, Control_c, 0, 11, 124
2, 48550, Control_c, 0, 11, 123
2, 48570, Control_c, 0, 11, 122
2, 48588, Note_on_c, 0, 65, 0
2, 48590, Control_c, 0, 11, 121
2, 48600, Control_c, 0, 11, 120
2, 48600, Note_on_c, 0, 67, 100
2, 48620, Control_c, 0, 11, 119
2, 48640, Control_c, 0, 11, 118
2, 48650, Control_c, 0, 11, 117
2, 48654, Note_on_c, 0, 67, 0
2, 48670, Control_c, 0, 11, 116
2, 48690, Control_c, 0, 11, 115
2, 48700, Control_c, 0, 11, 114
2, 48720, Control_c, 0, 11, 113
2, 48740, Control_c, 0, 11, 112
2, 48750, Control_c, 0, 11, 111
2, 48770, Control_c, 0, 11, 110
2, 48780, Note_on_c, 0, 68, 100
2, 48790, Control_c, 0, 11, 109
2, 48800, Control_c, 0, 11, 108
2, 48820, Control_c, 0, 11, 107
2, 48834, Note_on_c, 0, 68, 0
2, 48840, Control_c, 0, 11, 106
2, 48850, Control_c, 0, 11, 105
2, 48870, Control_c, 0, 11, 104
2, 48890, Control_c, 0, 11, 103
2, 48900, Control_c, 0, 11, 102
2, 48920, Control_c, 0, 11, 101
2, 48940, Control_c, 0, 11, 100
2, 48950, Control_c, 0, 11, 99
2, 48960, Note_on_c, 0, 65, 100
2, 48970, Control_c, 0, 11, 98
2, 48990, Control_c, 0, 11, 97
2, 49000, Control_c, 0, 11, 96
2, 49014, Note_on_c, 0, 65, 0
2, 49020, Control_c, 0, 11, 95
2, 49040, Control_c, 0, 11, 94
2, 49060, Control_c, 0, 11, 93
2, 49070, Control_c, 0, 11, 92
2, 49090, Control_c, 0, 11, 91
2, 49110, Control_c, 0, 11, 90
2, 49120, Control_c, 0, 11, 89
2, 49140, Control_c, 0, 11, 88
2, 49140, Note_on_c, 0, 67, 100
2, 49160, Control_c, 0, 11, 87
2, 49170, Control_c, 0, 11, 86
2, 49190, Control_c, 0, 11, 85
2, 49194, Note_on_c, 0, 67, 0
2, 49210, Control_c, 0, 11, 84
2, 49220, Control_c, 0, 11, 83
2, 49240, Control_c, 0, 11, 82
2, 49260, Control_c, 0, 11, 81
2, 49260, Note_on_c, 0, 68, 100
2, 49270, Control_c, 0, 11, 80
2, 49290, Control_c, 0, 11, 79
2, 49310, Control_c, 0, 11, 78
2, 49314, Note_on_c, 0, 68, 0
2, 49320, Control_c, 0, 11, 77
2, 49320, Note_on_c, 0, 67, 100
2, 49340, Control_c, 0, 11, 76
2, 49360, Control_c, 0, 11, 75
2, 49370, Control_c, 0, 11, 74
2, 49374, Note_on_c, 0, 67, 0
2, 49390, Control_c, 0, 11, 73
2, 49410, Control_c, 0, 11, 72
2, 49420, Control_c, 0, 11, 71
2, 49440, Control_c, 0, 11, 70
2, 49440, Note_on_c, 0, 65, 100
2, 49460, Control_c, 0, 11, 69
2, 49470, Control_c, 0, 11, 68
2, 49490, Control_c, 0, 11, 67
2, 49510, Control_c, 0, 11, 66
2, 49520, Control_c, 0, 11, 65
2, 49540, Control_c, 0, 11, 64
2, 49548, Note_on_c, 0, 65, 0
2, 49560, Control_c, 0, 11, 63
2, 49560, Note_on_c, 0, 67, 100
2, 49580, Control_c, 0, 11, 62
2, 49590, Control_c, 0, 11, 61
2, 49610, Control_c, 0, 11, 60
2, 49614, Note_on_c, 0, 67, 0
2, 49630, Control_c, 0, 11, 59
2, 49640, Control_c, 0, 11, 58
2, 49660, Control_c, 0, 11, 57
2, 49680, Control_c, 0, 11, 56
2, 49690, Control_c, 0, 11, 55
2, 49710, Control_c, 0, 11, 54
2, 49730, Control_c, 0, 11, 53
2, 49740, Control_c, 0, 11, 52
2, 49740, Note_on_c, 0, 68, 100
2, 49760, Control_c, 0, 11, 51
2, 49780, Control_c, 0, 11, 50
2, 49790, Control_c, 0, 11, 49
2, 49794, Note_on_c, 0, 68, 0
2, 49810, Control_c, 0, 11, 48
2, 49830, Control_c, 0, 11, 47
2, 49840, Control_c, 0, 11, 46
2, 49860, Control_c, 0, 11, 45
2, 49880, Control_c, 0, 11, 44
2, 49890, Control_c, 0, 11, 43
2, 49910, Control_c, 0, 11, 42
2, 49920, Note_on_c, 0, 65, 100
2, 49930, Control_c, 0, 11, 41
2, 49940, Control_c, 0, 11, 40
2, 49960, Control_c, 0, 11, 39
2, 49974, Note_on_c, 0, 65, 0
2, 49980, Control_c, 0, 11, 38
2, 49990, Control_c, 0, 11, 37
2, 50010, Control_c, 0, 11, 36
2, 50030, Control_c, 0, 11, 35
2, 50040, Control_c, 0, 11, 34
2, 50060, Control_c, 0, 11, 33
2, 50080, Control_c, 0, 11, 32
2, 50100, Control_c, 0, 11, 31
2, 50100, Note_on_c, 0, 67, 100
2, 50110, Control_c, 0, 11, 30
2, 50130, Control_c, 0, 11, 29
2, 50150, Control_c, 0, 11, 28
2, 50154, Note_on_c, 0, 67, 0
2, 50160, Control_c, 0, 11, 27
2, 50180, Control_c, 0, 11, 26
2, 50200, Control_c, 0, 11, 25
2, 50210, Control_c, 0, 11, 24
2, 50220, Note_on_c, 0, 68, 100
2, 50230, Control_c, 0, 11, 23
2, 50250, Control_c, 0, 11, 22
2, 50260, Control_c, 0, 11, 21
2, 50274, Note_on_c, 0, 68, 0
2, 50280, Control_c, 0, 11, 20
2, 50280, Note_on_c, 0, 67, 100
2, 50300, Control_c, 0, 11, 19
2, 50310, Control_c, 0, 11, 18
2, 50330, Control_c, 0, 11, 17
2, 50334, Note_on_c, 0, 67, 0
2, 50350, Control_c, 0, 11, 16
2, 50360, Control_c, 0, 11, 15
2, 50380, Control_c, 0, 11, 14
2, 50400, Control_c, 0, 11, 13
2, 50400, Note_on_c, 0, 65, 100
2, 50410, Control_c, 0, 11, 12
2, 50430, Control_c, 0, 11, 11
2, 50450, Control_c, 0, 11, 10
2, 50460, Control_c, 0, 11, 9
2, 50480, Control_c, 0, 11, 8
2, 50500, Control_c, 0, 11, 7
2, 50508, Note_on_c, 0, 65, 0
2, 50510, Control_c, 0, 11, 6
2, 50530, Control_c, 0, 11, 5
2, 50550, Control_c, 0, 11, 4
2, 50560, Control_c, 0, 11, 3
2, 50580, Control_c, 0, 11, 2
2, 50600, Control_c, 0, 11, 1
2, 50610, Control_c, 0, 11, 0
2, 50610, End_track
3, 0, Start_track
3, 0, Title_t, "A2-Trombone    "
3, 0, Control_c, 1, 0, 0
3, 0, Control_c, 1, 32, 1
3, 0, Program_c, 1, 57
3, 0, Control_c, 1, 7, 115
3, 0, Control_c, 1, 10, 64
3, 89, Control_c, 1, 91, 50
3, 90, Control_c, 1, 93, 10
3, 91, Control_c, 1, 94, 5
3, 960, Note_on_c, 1, 68, 110
3, 992, Note_on_c, 1, 68, 0
3, 1040, Note_on_c, 1, 68, 110
3, 1072, Note_on_c, 1, 68, 0
3, 1080, Note_on_c, 1, 68, 110
3, 1112, Note_on_c, 1, 68, 0
3, 1160, Note_on_c, 1, 68, 110
3, 1192, Note_on_c, 1, 68, 0
3, 1200, Note_on_c, 1, 68, 110
3, 1232, Note_on_c, 1, 68, 0
3, 1280, Note_on_c, 1, 68, 110
3, 1312, Note_on_c, 1, 68, 0
3, 1360, Note_on_c, 1, 68, 110
3, 1392, Note_on_c, 1, 68, 0
3, 1440, Note_on_c, 1, 64, 110
3, 1920, Note_on_c, 1, 64, 0
3, 1920, Note_on_c, 1, 66, 110
3, 1952, Note_on_c, 1, 66, 0
3, 2000, Note_on_c, 1, 66, 110
3, 2032, Note_on_c, 1, 66, 0
3, 2040, Note_on_c, 1, 66, 110
3, 2072, Note_on_c, 1, 66, 0
3, 2120, Note_on_c, 1, 66, 110
3, 2152, Note_on_c, 1, 66, 0
3, 2160, Note_on_c, 1, 66, 110
3, 2192, Note_on_c, 1, 66, 0
3, 2240, Note_on_c, 1, 64, 110
3, 2272, Note_on_c, 1, 64, 0
3, 2320, Note_on_c, 1, 69, 110
3, 2352, Note_on_c, 1, 69, 0
3, 2400, Note_on_c, 1, 62, 110
3, 2880, Note_on_c, 1, 62, 0
3, 2880, Note_on_c, 1, 61, 110
3, 2912, Note_on_c, 1, 61, 0
3, 2960, Note_on_c, 1, 61, 110
3, 2992, Note_on_c, 1, 61, 0
3, 3000, Note_on_c, 1, 61, 110
3, 3032, Note_on_c, 1, 61, 0
3, 3080, Note_on_c, 1, 61, 110
3, 3112, Note_on_c, 1, 61, 0
3, 3120, Note_on_c, 1, 61, 110
3, 3152, Note_on_c, 1, 61, 0
3, 3200, Note_on_c, 1, 61, 110
3, 3232, Note_on_c, 1, 61, 0
3, 3280, Note_on_c, 1, 61, 110
3, 3312, Note_on_c, 1, 61, 0
3, 3360, Note_on_c, 1, 61, 110
3, 3392, Note_on_c, 1, 61, 0
3, 3440, Note_on_c, 1, 61, 110
3, 3472, Note_on_c, 1, 61, 0
3, 3480, Note_on_c, 1, 61, 110
3, 3512, Note_on_c, 1, 61, 0
3, 3560, Note_on_c, 1, 61, 110
3, 3592, Note_on_c, 1, 61, 0
3, 3600, Note_on_c, 1, 61, 110
3, 3632, Note_on_c, 1, 61, 0
3, 3680, Note_on_c, 1, 62, 110
3, 3712, Note_on_c, 1, 62, 0
3, 3760, Note_on_c, 1, 62, 110
3, 3792, Note_on_c, 1, 62, 0
3, 3840, Note_on_c, 1, 61, 120
3, 3872, Note_on_c, 1, 61, 0
3, 3920, Note_on_c, 1, 61, 120
3, 3952, Note_on_c, 1, 61, 0
3, 3960, Note_on_c, 1, 61, 120
3, 3992, Note_on_c, 1, 61, 0
3, 4040, Note_on_c, 1, 61, 120
3, 4072, Note_on_c, 1, 61, 0
3, 4080, Note_on_c, 1, 61, 120
3, 4112, Note_on_c, 1, 61, 0
3, 4160, Note_on_c, 1, 61, 120
3, 4192, Note_on_c, 1, 61, 0
3, 4240, Note_on_c, 1, 61, 120
3, 4272, Note_on_c, 1, 61, 0
3, 4320, Note_on_c, 1, 61, 120
3, 4352, Note_on_c, 1, 61, 0
3, 4400, Note_on_c, 1, 61, 120
3, 4432, Note_on_c, 1, 61, 0
3, 4440, Note_on_c, 1, 61, 120
3, 4472, Note_on_c, 1, 61, 0
3, 4520, Note_on_c, 1, 61, 120
3, 4552, Note_on_c, 1, 61, 0
3, 4560, Note_on_c, 1, 61, 120
3, 4592, Note_on_c, 1, 61, 0
3, 4640, Note_on_c, 1, 62, 120
3, 4672, Note_on_c, 1, 62, 0
3, 4720, Note_on_c, 1, 62, 120
3, 4752, Note_on_c, 1, 62, 0
3, 6720, Note_on_c, 1, 64, 110
3, 6752, Note_on_c, 1, 64, 0
3, 6840, Note_on_c, 1, 66, 110
3, 6872, Note_on_c, 1, 66, 0
3, 6960, Note_on_c, 1, 68, 110
3, 6992, Note_on_c, 1, 68, 0
3, 7080, Note_on_c, 1, 66, 110
3, 7112, Note_on_c, 1, 66, 0
3, 7200, Note_on_c, 1, 64, 110
3, 7232, Note_on_c, 1, 64, 0
3, 7280, Note_on_c, 1, 63, 110
3, 7312, Note_on_c, 1, 63, 0
3, 7360, Note_on_c, 1, 61, 110
3, 7840, Note_on_c, 1, 61, 0
3, 8000, Note_on_c, 1, 63, 110
3, 8032, Note_on_c, 1, 63, 0
3, 8120, Note_on_c, 1, 64, 110
3, 8152, Note_on_c, 1, 64, 0
3, 8240, Note_on_c, 1, 66, 110
3, 8272, Note_on_c, 1, 66, 0
3, 8360, Note_on_c, 1, 64, 110
3, 8392, Note_on_c, 1, 64, 0
3, 8480, Note_on_c, 1, 63, 110
3, 8512, Note_on_c, 1, 63, 0
3, 8560, Note_on_c, 1, 66, 110
3, 8592, Note_on_c, 1, 66, 0
3, 8640, Note_on_c, 1, 64, 110
3, 9120, Note_on_c, 1, 64, 0
3, 9280, Note_on_c, 1, 61, 110
3, 9312, Note_on_c, 1, 61, 0
3, 9400, Note_on_c, 1, 63, 110
3, 9432, Note_on_c, 1, 63, 0
3, 9520, Note_on_c, 1, 64, 110
3, 9552, Note_on_c, 1, 64, 0
3, 9640, Note_on_c, 1, 63, 110
3, 9672, Note_on_c, 1, 63, 0
3, 9760, Note_on_c, 1, 61, 110
3, 9792, Note_on_c, 1, 61, 0
3, 9840, Note_on_c, 1, 59, 110
3, 9872, Note_on_c, 1, 59, 0
3, 9920, Note_on_c, 1, 58, 110
3, 10400, Note_on_c, 1, 58, 0
3, 10400, Note_on_c, 1, 56, 110
3, 10560, Note_on_c, 1, 56, 0
3, 10560, Note_on_c, 1, 55, 110
3, 11040, Note_on_c, 1, 55, 0
3, 11040, Note_on_c, 1, 49, 110
3, 11200, Note_on_c, 1, 49, 0
3, 11200, Note_on_c, 1, 48, 110
3, 11680, Note_on_c, 1, 48, 0
3, 16960, Note_on_c, 1, 68, 100
3, 17080, Note_on_c, 1, 68, 0
3, 17080, Note_on_c, 1, 69, 100
3, 17200, Note_on_c, 1, 69, 0
3, 17200, Note_on_c, 1, 70, 100
3, 17320, Note_on_c, 1, 70, 0
3, 17320, Note_on_c, 1, 69, 100
3, 17440, Note_on_c, 1, 69, 0
3, 17440, Note_on_c, 1, 68, 100
3, 17520, Note_on_c, 1, 68, 0
3, 17520, Note_on_c, 1, 66, 100
3, 17600, Note_on_c, 1, 66, 0
3, 17600, Note_on_c, 1, 64, 100
3, 18840, Note_on_c, 1, 64, 0
3, 18880, Note_on_c, 1, 66, 100
3, 19000, Note_on_c, 1, 66, 0
3, 19000, Note_on_c, 1, 68, 100
3, 19120, Note_on_c, 1, 68, 0
3, 19120, Note_on_c, 1, 69, 100
3, 19240, Note_on_c, 1, 69, 0
3, 19240, Note_on_c, 1, 68, 100
3, 19360, Note_on_c, 1, 68, 0
3, 19360, Note_on_c, 1, 66, 100
3, 19440, Note_on_c, 1, 66, 0
3, 19440, Note_on_c, 1, 63, 100
3, 19520, Note_on_c, 1, 63, 0
3, 19520, Note_on_c, 1, 64, 100
3, 20800, Note_on_c, 1, 64, 0
3, 20800, Note_on_c, 1, 57, 100
3, 21440, Note_on_c, 1, 57, 0
3, 21440, Note_on_c, 1, 59, 100
3, 22080, Note_on_c, 1, 59, 0
3, 24640, Note_on_c, 1, 61, 110
3, 24672, Note_on_c, 1, 61, 0
3, 24720, Note_on_c, 1, 61, 110
3, 24752, Note_on_c, 1, 61, 0
3, 24760, Note_on_c, 1, 61, 110
3, 24792, Note_on_c, 1, 61, 0
3, 24840, Note_on_c, 1, 61, 110
3, 24872, Note_on_c, 1, 61, 0
3, 24880, Note_on_c, 1, 61, 110
3, 24912, Note_on_c, 1, 61, 0
3, 24960, Note_on_c, 1, 61, 110
3, 24992, Note_on_c, 1, 61, 0
3, 25040, Note_on_c, 1, 61, 110
3, 25072, Note_on_c, 1, 61, 0
3, 25120, Note_on_c, 1, 61, 110
3, 25152, Note_on_c, 1, 61, 0
3, 25200, Note_on_c, 1, 61, 110
3, 25232, Note_on_c, 1, 61, 0
3, 25240, Note_on_c, 1, 61, 110
3, 25272, Note_on_c, 1, 61, 0
3, 25320, Note_on_c, 1, 61, 110
3, 25352, Note_on_c, 1, 61, 0
3, 25360, Note_on_c, 1, 61, 110
3, 25392, Note_on_c, 1, 61, 0
3, 25440, Note_on_c, 1, 62, 110
3, 25472, Note_on_c, 1, 62, 0
3, 25520, Note_on_c, 1, 62, 110
3, 25552, Note_on_c, 1, 62, 0
3, 25600, Note_on_c, 1, 61, 120
3, 25632, Note_on_c, 1, 61, 0
3, 25680, Note_on_c, 1, 61, 120
3, 25712, Note_on_c, 1, 61, 0
3, 25720, Note_on_c, 1, 61, 120
3, 25752, Note_on_c, 1, 61, 0
3, 25800, Note_on_c, 1, 61, 120
3, 25832, Note_on_c, 1, 61, 0
3, 25840, Note_on_c, 1, 61, 120
3, 25872, Note_on_c, 1, 61, 0
3, 25920, Note_on_c, 1, 61, 120
3, 25952, Note_on_c, 1, 61, 0
3, 26000, Note_on_c, 1, 61, 120
3, 26032, Note_on_c, 1, 61, 0
3, 26080, Note_on_c, 1, 61, 120
3, 26112, Note_on_c, 1, 61, 0
3, 26160, Note_on_c, 1, 61, 120
3, 26192, Note_on_c, 1, 61, 0
3, 26200, Note_on_c, 1, 61, 120
3, 26232, Note_on_c, 1, 61, 0
3, 26280, Note_on_c, 1, 61, 120
3, 26312, Note_on_c, 1, 61, 0
3, 26320, Note_on_c, 1, 61, 120
3, 26352, Note_on_c, 1, 61, 0
3, 26400, Note_on_c, 1, 62, 120
3, 26432, Note_on_c, 1, 62, 0
3, 26480, Note_on_c, 1, 62, 120
3, 26512, Note_on_c, 1, 62, 0
3, 28480, Note_on_c, 1, 64, 110
3, 28512, Note_on_c, 1, 64, 0
3, 28600, Note_on_c, 1, 66, 110
3, 28632, Note_on_c, 1, 66, 0
3, 28720, Note_on_c, 1, 68, 110
3, 28752, Note_on_c, 1, 68, 0
3, 28840, Note_on_c, 1, 66, 110
3, 28872, Note_on_c, 1, 66, 0
3, 28960, Note_on_c, 1, 64, 110
3, 28992, Note_on_c, 1, 64, 0
3, 29040, Note_on_c, 1, 63, 110
3, 29072, Note_on_c, 1, 63, 0
3, 29120, Note_on_c, 1, 61, 110
3, 29600, Note_on_c, 1, 61, 0
3, 29760, Note_on_c, 1, 63, 110
3, 29792, Note_on_c, 1, 63, 0
3, 29880, Note_on_c, 1, 64, 110
3, 29912, Note_on_c, 1, 64, 0
3, 30000, Note_on_c, 1, 66, 110
3, 30032, Note_on_c, 1, 66, 0
3, 30120, Note_on_c, 1, 64, 110
3, 30152, Note_on_c, 1, 64, 0
3, 30240, Note_on_c, 1, 63, 110
3, 30272, Note_on_c, 1, 63, 0
3, 30320, Note_on_c, 1, 66, 110
3, 30352, Note_on_c, 1, 66, 0
3, 30400, Note_on_c, 1, 64, 110
3, 30880, Note_on_c, 1, 64, 0
3, 31040, Note_on_c, 1, 61, 110
3, 31072, Note_on_c, 1, 61, 0
3, 31160, Note_on_c, 1, 63, 110
3, 31192, Note_on_c, 1, 63, 0
3, 31280, Note_on_c, 1, 64, 110
3, 31312, Note_on_c, 1, 64, 0
3, 31400, Note_on_c, 1, 63, 110
3, 31432, Note_on_c, 1, 63, 0
3, 31520, Note_on_c, 1, 61, 110
3, 31552, Note_on_c, 1, 61, 0
3, 31600, Note_on_c, 1, 59, 110
3, 31632, Note_on_c, 1, 59, 0
3, 31680, Note_on_c, 1, 58, 110
3, 32160, Note_on_c, 1, 58, 0
3, 32160, Note_on_c, 1, 56, 110
3, 32320, Note_on_c, 1, 56, 0
3, 32320, Note_on_c, 1, 55, 110
3, 32800, Note_on_c, 1, 55, 0
3, 32800, Note_on_c, 1, 49, 110
3, 32960, Note_on_c, 1, 49, 0
3, 32960, Note_on_c, 1, 48, 110
3, 33440, Note_on_c, 1, 48, 0
3, 38720, Note_on_c, 1, 68, 100
3, 38840, Note_on_c, 1, 68, 0
3, 38840, Note_on_c, 1, 69, 100
3, 38960, Note_on_c, 1, 69, 0
3, 38960, Note_on_c, 1, 70, 100
3, 39080, Note_on_c, 1, 70, 0
3, 39080, Note_on_c, 1, 69, 100
3, 39200, Note_on_c, 1, 69, 0
3, 39200, Note_on_c, 1, 68, 100
3, 39280, Note_on_c, 1, 68, 0
3, 39280, Note_on_c, 1, 66, 100
3, 39360, Note_on_c, 1, 66, 0
3, 39360, Note_on_c, 1, 64, 100
3, 40600, Note_on_c, 1, 64, 0
3, 40640, Note_on_c, 1, 66, 100
3, 40760, Note_on_c, 1, 66, 0
3, 40760, Note_on_c, 1, 68, 100
3, 40880, Note_on_c, 1, 68, 0
3, 40880, Note_on_c, 1, 69, 100
3, 41000, Note_on_c, 1, 69, 0
3, 41000, Note_on_c, 1, 68, 100
3, 41120, Note_on_c, 1, 68, 0
3, 41120, Note_on_c, 1, 66, 100
3, 41200, Note_on_c, 1, 66, 0
3, 41200, Note_on_c, 1, 63, 100
3, 41280, Note_on_c, 1, 63, 0
3, 41280, Note_on_c, 1, 64, 100
3, 42560, Note_on_c, 1, 64, 0
3, 42560, Note_on_c, 1, 57, 100
3, 43200, Note_on_c, 1, 57, 0
3, 43200, Note_on_c, 1, 59, 100
3, 43840, Note_on_c, 1, 59, 0
3, 43840, End_track
4, 0, Start_track
4, 0, Title_t, "A3-French Horns"
4, 0, Control_c, 2, 0, 0
4, 0, Control_c, 2, 32, 3
4, 0, Program_c, 2, 60
4, 0, Control_c, 2, 7, 100
4, 0, Control_c, 2, 10, 22
4, 99, Control_c, 2, 91, 60
4, 100, Control_c, 2, 93, 10
4, 1440, Note_on_c, 2, 64, 99
4, 1554, Note_on_c, 2, 64, 0
4, 1560, Note_on_c, 2, 63, 99
4, 1674, Note_on_c, 2, 63, 0
4, 1680, Note_on_c, 2, 61, 99
4, 1794, Note_on_c, 2, 61, 0
4, 1800, Note_on_c, 2, 59, 99
4, 1914, Note_on_c, 2, 59, 0
4, 1920, Note_on_c, 2, 57, 99
4, 2400, Note_on_c, 2, 57, 0
4, 2400, Note_on_c, 2, 69, 99
4, 2514, Note_on_c, 2, 69, 0
4, 2520, Note_on_c, 2, 68, 99
4, 2634, Note_on_c, 2, 68, 0
4, 2640, Note_on_c, 2, 66, 99
4, 2754, Note_on_c, 2, 66, 0
4, 2760, Note_on_c, 2, 64, 99
4, 2874, Note_on_c, 2, 64, 0
4, 7360, Note_on_c, 2, 61, 100
4, 7480, Note_on_c, 2, 61, 0
4, 7480, Note_on_c, 2, 59, 100
4, 7520, Note_on_c, 2, 59, 0
4, 7520, Note_on_c, 2, 57, 100
4, 7840, Note_on_c, 2, 57, 0
4, 7840, Note_on_c, 2, 56, 100
4, 8000, Note_on_c, 2, 56, 0
4, 8000, Note_on_c, 2, 54, 100
4, 8040, Note_on_c, 2, 54, 0
4, 8120, Note_on_c, 2, 54, 100
4, 8160, Note_on_c, 2, 54, 0
4, 8240, Note_on_c, 2, 54, 100
4, 8280, Note_on_c, 2, 54, 0
4, 8360, Note_on_c, 2, 54, 100
4, 8400, Note_on_c, 2, 54, 0
4, 8480, Note_on_c, 2, 54, 100
4, 8520, Note_on_c, 2, 54, 0
4, 8560, Note_on_c, 2, 54, 100
4, 8600, Note_on_c, 2, 54, 0
4, 8640, Note_on_c, 2, 57, 100
4, 8800, Note_on_c, 2, 57, 0
4, 8800, Note_on_c, 2, 56, 100
4, 8960, Note_on_c, 2, 59, 100
4, 9120, Note_on_c, 2, 56, 0
4, 9120, Note_on_c, 2, 54, 100
4, 9280, Note_on_c, 2, 54, 0
4, 9280, Note_on_c, 2, 59, 0
4, 9280, Note_on_c, 2, 52, 100
4, 9320, Note_on_c, 2, 52, 0
4, 9400, Note_on_c, 2, 52, 100
4, 9440, Note_on_c, 2, 52, 0
4, 9520, Note_on_c, 2, 52, 100
4, 9560, Note_on_c, 2, 52, 0
4, 9640, Note_on_c, 2, 52, 100
4, 9680, Note_on_c, 2, 52, 0
4, 9760, Note_on_c, 2, 52, 100
4, 9800, Note_on_c, 2, 52, 0
4, 9840, Note_on_c, 2, 52, 100
4, 9880, Note_on_c, 2, 52, 0
4, 9920, Note_on_c, 2, 54, 100
4, 9920, Note_on_c, 2, 58, 100
4, 10400, Note_on_c, 2, 58, 0
4, 10400, Note_on_c, 2, 54, 0
4, 10400, Note_on_c, 2, 54, 100
4, 10400, Note_on_c, 2, 58, 100
4, 10560, Note_on_c, 2, 58, 0
4, 10560, Note_on_c, 2, 54, 0
4, 10560, Note_on_c, 2, 51, 100
4, 10560, Note_on_c, 2, 58, 100
4, 11040, Note_on_c, 2, 58, 0
4, 11040, Note_on_c, 2, 51, 0
4, 11040, Note_on_c, 2, 49, 100
4, 11040, Note_on_c, 2, 58, 100
4, 11200, Note_on_c, 2, 58, 0
4, 11200, Note_on_c, 2, 49, 0
4, 11200, Note_on_c, 2, 48, 100
4, 11200, Note_on_c, 2, 56, 100
4, 11834, Note_on_c, 2, 56, 0
4, 11834, Note_on_c, 2, 48, 0
4, 18880, Note_on_c, 2, 66, 105
4, 19000, Note_on_c, 2, 66, 0
4, 19000, Note_on_c, 2, 64, 105
4, 19120, Note_on_c, 2, 64, 0
4, 19120, Note_on_c, 2, 63, 105
4, 19240, Note_on_c, 2, 63, 0
4, 19240, Note_on_c, 2, 61, 105
4, 19320, Note_on_c, 2, 61, 0
4, 19320, Note_on_c, 2, 63, 105
4, 19360, Note_on_c, 2, 63, 0
4, 19360, Note_on_c, 2, 59, 105
4, 19440, Note_on_c, 2, 59, 0
4, 19440, Note_on_c, 2, 57, 105
4, 19520, Note_on_c, 2, 57, 0
4, 19520, Note_on_c, 2, 56, 105
4, 19680, Note_on_c, 2, 56, 0
4, 19680, Note_on_c, 2, 66, 105
4, 20640, Note_on_c, 2, 66, 0
4, 29120, Note_on_c, 2, 61, 100
4, 29240, Note_on_c, 2, 61, 0
4, 29240, Note_on_c, 2, 59, 100
4, 29280, Note_on_c, 2, 59, 0
4, 29280, Note_on_c, 2, 57, 100
4, 29600, Note_on_c, 2, 57, 0
4, 29600, Note_on_c, 2, 56, 100
4, 29760, Note_on_c, 2, 56, 0
4, 29760, Note_on_c, 2, 54, 100
4, 29800, Note_on_c, 2, 54, 0
4, 29880, Note_on_c, 2, 54, 100
4, 29920, Note_on_c, 2, 54, 0
4, 30000, Note_on_c, 2, 54, 100
4, 30040, Note_on_c, 2, 54, 0
4, 30120, Note_on_c, 2, 54, 100
4, 30160, Note_on_c, 2, 54, 0
4, 30240, Note_on_c, 2, 54, 100
4, 30280, Note_on_c, 2, 54, 0
4, 30320, Note_on_c, 2, 54, 100
4, 30360, Note_on_c, 2, 54, 0
4, 30400, Note_on_c, 2, 57, 100
4, 30560, Note_on_c, 2, 57, 0
4, 30560, Note_on_c, 2, 56, 100
4, 30720, Note_on_c, 2, 59, 100
4, 30880, Note_on_c, 2, 56, 0
4, 30880, Note_on_c, 2, 54, 100
4, 31040, Note_on_c, 2, 54, 0
4, 31040, Note_on_c, 2, 59, 0
4, 31040, Note_on_c, 2, 52, 100
4, 31080, Note_on_c, 2, 52, 0
4, 31160, Note_on_c, 2, 52, 100
4, 31200, Note_on_c, 2, 52, 0
4, 31280, Note_on_c, 2, 52, 100
4, 31320, Note_on_c, 2, 52, 0
4, 31400, Note_on_c, 2, 52, 100
4, 31440, Note_on_c, 2, 52, 0
4, 31520, Note_on_c, 2, 52, 100
4, 31560, Note_on_c, 2, 52, 0
4, 31600, Note_on_c, 2, 52, 100
4, 31640, Note_on_c, 2, 52, 0
4, 31680, Note_on_c, 2, 54, 100
4, 31680, Note_on_c, 2, 58, 100
4, 32160, Note_on_c, 2, 58, 0
4, 32160, Note_on_c, 2, 54, 0
4, 32160, Note_on_c, 2, 54, 100
4, 32160, Note_on_c, 2, 58, 100
4, 32320, Note_on_c, 2, 58, 0
4, 32320, Note_on_c, 2, 54, 0
4, 32320, Note_on_c, 2, 51, 100
4, 32320, Note_on_c, 2, 58, 100
4, 32800, Note_on_c, 2, 58, 0
4, 32800, Note_on_c, 2, 51, 0
4, 32800, Note_on_c, 2, 49, 100
4, 32800, Note_on_c, 2, 58, 100
4, 32960, Note_on_c, 2, 58, 0
4, 32960, Note_on_c, 2, 49, 0
4, 32960, Note_on_c, 2, 48, 100
4, 32960, Note_on_c, 2, 56, 100
4, 33594, Note_on_c, 2, 56, 0
4, 33594, Note_on_c, 2, 48, 0
4, 40640, Note_on_c, 2, 66, 105
4, 40760, Note_on_c, 2, 66, 0
4, 40760, Note_on_c, 2, 64, 105
4, 40880, Note_on_c, 2, 64, 0
4, 40880, Note_on_c, 2, 63, 105
4, 41000, Note_on_c, 2, 63, 0
4, 41000, Note_on_c, 2, 61, 105
4, 41080, Note_on_c, 2, 61, 0
4, 41080, Note_on_c, 2, 63, 105
4, 41120, Note_on_c, 2, 63, 0
4, 41120, Note_on_c, 2, 59, 105
4, 41200, Note_on_c, 2, 59, 0
4, 41200, Note_on_c, 2, 57, 105
4, 41280, Note_on_c, 2, 57, 0
4, 41280, Note_on_c, 2, 56, 105
4, 41440, Note_on_c, 2, 56, 0
4, 41440, Note_on_c, 2, 66, 105
4, 42400, Note_on_c, 2, 66, 0
4, 46680, Note_on_c, 2, 60, 105
4, 46710, Note_on_c, 2, 60, 0
4, 46720, Note_on_c, 2, 60, 105
4, 46750, Note_on_c, 2, 60, 0
4, 46760, Note_on_c, 2, 58, 105
4, 46790, Note_on_c, 2, 58, 0
4, 46800, Note_on_c, 2, 60, 105
4, 46914, Note_on_c, 2, 60, 0
4, 46920, Note_on_c, 2, 56, 105
4, 47034, Note_on_c, 2, 56, 0
4, 47040, Note_on_c, 2, 55, 105
4, 47154, Note_on_c, 2, 55, 0
4, 47160, Note_on_c, 2, 55, 105
4, 47192, Note_on_c, 2, 55, 0
4, 47240, Note_on_c, 2, 55, 105
4, 47272, Note_on_c, 2, 55, 0
4, 47280, Note_on_c, 2, 55, 105
4, 47640, Note_on_c, 2, 55, 0
4, 47640, Note_on_c, 2, 58, 105
4, 47689, Note_on_c, 2, 58, 0
4, 47820, Note_on_c, 2, 58, 105
4, 47869, Note_on_c, 2, 58, 0
4, 48000, Note_on_c, 2, 58, 105
4, 48049, Note_on_c, 2, 58, 0
4, 48180, Note_on_c, 2, 58, 105
4, 48229, Note_on_c, 2, 58, 0
4, 48300, Note_on_c, 2, 58, 105
4, 48349, Note_on_c, 2, 58, 0
4, 48360, Note_on_c, 2, 58, 105
4, 48409, Note_on_c, 2, 58, 0
4, 48480, Control_c, 2, 11, 127
4, 48480, Note_on_c, 2, 58, 105
4, 48500, Control_c, 2, 11, 126
4, 48520, Control_c, 2, 11, 125
4, 48540, Control_c, 2, 11, 124
4, 48550, Control_c, 2, 11, 123
4, 48570, Control_c, 2, 11, 122
4, 48588, Note_on_c, 2, 58, 0
4, 48590, Control_c, 2, 11, 121
4, 48600, Control_c, 2, 11, 120
4, 48600, Note_on_c, 2, 58, 105
4, 48620, Control_c, 2, 11, 119
4, 48640, Control_c, 2, 11, 118
4, 48649, Note_on_c, 2, 58, 0
4, 48650, Control_c, 2, 11, 117
4, 48670, Control_c, 2, 11, 116
4, 48690, Control_c, 2, 11, 115
4, 48700, Control_c, 2, 11, 114
4, 48720, Control_c, 2, 11, 113
4, 48740, Control_c, 2, 11, 112
4, 48750, Control_c, 2, 11, 111
4, 48770, Control_c, 2, 11, 110
4, 48780, Note_on_c, 2, 58, 105
4, 48790, Control_c, 2, 11, 109
4, 48800, Control_c, 2, 11, 108
4, 48820, Control_c, 2, 11, 107
4, 48829, Note_on_c, 2, 58, 0
4, 48840, Control_c, 2, 11, 106
4, 48850, Control_c, 2, 11, 105
4, 48870, Control_c, 2, 11, 104
4, 48890, Control_c, 2, 11, 103
4, 48900, Control_c, 2, 11, 102
4, 48920, Control_c, 2, 11, 101
4, 48940, Control_c, 2, 11, 100
4, 48950, Control_c, 2, 11, 99
4, 48960, Note_on_c, 2, 58, 105
4, 48970, Control_c, 2, 11, 98
4, 48990, Control_c, 2, 11, 97
4, 49000, Control_c, 2, 11, 96
4, 49009, Note_on_c, 2, 58, 0
4, 49020, Control_c, 2, 11, 95
4, 49040, Control_c, 2, 11, 94
4, 49050, Control_c, 2, 11, 93
4, 49070, Control_c, 2, 11, 92
4, 49090, Control_c, 2, 11, 91
4, 49100, Control_c, 2, 11, 90
4, 49120, Control_c, 2, 11, 89
4, 49140, Control_c, 2, 11, 88
4, 49140, Note_on_c, 2, 58, 105
4, 49150, Control_c, 2, 11, 87
4, 49170, Control_c, 2, 11, 86
4, 49189, Note_on_c, 2, 58, 0
4, 49190, Control_c, 2, 11, 85
4, 49200, Control_c, 2, 11, 84
4, 49220, Control_c, 2, 11, 83
4, 49240, Control_c, 2, 11, 82
4, 49250, Control_c, 2, 11, 81
4, 49260, Note_on_c, 2, 58, 105
4, 49270, Control_c, 2, 11, 80
4, 49290, Control_c, 2, 11, 79
4, 49300, Control_c, 2, 11, 78
4, 49309, Note_on_c, 2, 58, 0
4, 49320, Control_c, 2, 11, 77
4, 49320, Note_on_c, 2, 58, 105
4, 49340, Control_c, 2, 11, 76
4, 49350, Control_c, 2, 11, 75
4, 49369, Note_on_c, 2, 58, 0
4, 49370, Control_c, 2, 11, 74
4, 49390, Control_c, 2, 11, 73
4, 49400, Control_c, 2, 11, 72
4, 49420, Control_c, 2, 11, 71
4, 49440, Control_c, 2, 11, 70
4, 49440, Note_on_c, 2, 58, 105
4, 49450, Control_c, 2, 11, 69
4, 49470, Control_c, 2, 11, 68
4, 49490, Control_c, 2, 11, 67
4, 49500, Control_c, 2, 11, 66
4, 49520, Control_c, 2, 11, 65
4, 49540, Control_c, 2, 11, 64
4, 49548, Note_on_c, 2, 58, 0
4, 49550, Control_c, 2, 11, 63
4, 49560, Note_on_c, 2, 58, 105
4, 49570, Control_c, 2, 11, 62
4, 49590, Control_c, 2, 11, 61
4, 49600, Control_c, 2, 11, 60
4, 49609, Note_on_c, 2, 58, 0
4, 49620, Control_c, 2, 11, 59
4, 49640, Control_c, 2, 11, 58
4, 49650, Control_c, 2, 11, 57
4, 49670, Control_c, 2, 11, 56
4, 49690, Control_c, 2, 11, 55
4, 49700, Control_c, 2, 11, 54
4, 49720, Control_c, 2, 11, 53
4, 49740, Control_c, 2, 11, 52
4, 49740, Note_on_c, 2, 58, 105
4, 49750, Control_c, 2, 11, 51
4, 49770, Control_c, 2, 11, 50
4, 49789, Note_on_c, 2, 58, 0
4, 49790, Control_c, 2, 11, 49
4, 49800, Control_c, 2, 11, 48
4, 49820, Control_c, 2, 11, 47
4, 49840, Control_c, 2, 11, 46
4, 49850, Control_c, 2, 11, 45
4, 49870, Control_c, 2, 11, 44
4, 49890, Control_c, 2, 11, 43
4, 49900, Control_c, 2, 11, 42
4, 49920, Control_c, 2, 11, 41
4, 49920, Note_on_c, 2, 58, 105
4, 49940, Control_c, 2, 11, 40
4, 49950, Control_c, 2, 11, 39
4, 49969, Note_on_c, 2, 58, 0
4, 49970, Control_c, 2, 11, 38
4, 49990, Control_c, 2, 11, 37
4, 50000, Control_c, 2, 11, 36
4, 50020, Control_c, 2, 11, 35
4, 50040, Control_c, 2, 11, 34
4, 50050, Control_c, 2, 11, 33
4, 50070, Control_c, 2, 11, 32
4, 50090, Control_c, 2, 11, 31
4, 50100, Control_c, 2, 11, 30
4, 50100, Note_on_c, 2, 58, 105
4, 50120, Control_c, 2, 11, 29
4, 50140, Control_c, 2, 11, 28
4, 50149, Note_on_c, 2, 58, 0
4, 50150, Control_c, 2, 11, 27
4, 50170, Control_c, 2, 11, 26
4, 50190, Control_c, 2, 11, 25
4, 50200, Control_c, 2, 11, 24
4, 50220, Control_c, 2, 11, 23
4, 50220, Note_on_c, 2, 58, 105
4, 50240, Control_c, 2, 11, 22
4, 50250, Control_c, 2, 11, 21
4, 50269, Note_on_c, 2, 58, 0
4, 50270, Control_c, 2, 11, 20
4, 50280, Note_on_c, 2, 58, 105
4, 50290, Control_c, 2, 11, 19
4, 50300, Control_c, 2, 11, 18
4, 50320, Control_c, 2, 11, 17
4, 50329, Note_on_c, 2, 58, 0
4, 50340, Control_c, 2, 11, 16
4, 50350, Control_c, 2, 11, 15
4, 50370, Control_c, 2, 11, 14
4, 50390, Control_c, 2, 11, 10
4, 50401, Control_c, 2, 12, 0
4, 52763, Control_c, 2, 105, 20
4, 59174, Control_c, 2, 11, 20
4, 59185, Control_c, 2, 10, 10
4, 59196, Control_c, 2, 9, 20
4, 59207, Control_c, 2, 8, 20
4, 59218, Control_c, 2, 7, 10
4, 59229, Control_c, 2, 6, 8
4, 61591, Control_c, 2, 0, 12
4, 68002, Control_c, 2, 5, 20
4, 68013, Control_c, 2, 4, 10
4, 68024, Control_c, 2, 3, 20
4, 68035, Control_c, 2, 2, 20
4, 68046, Control_c, 2, 1, 10
4, 68057, Control_c, 2, 0, 0
4, 84360, Control_c, 2, 0, 77
4, 84480, Control_c, 2, 100, 53
4, 84565, Control_c, 2, 15, 7
4, 84627, Control_c, 2, 0, 0
4, 92819, Note_on_c, 10, 2, 112
4, 92894, Note_on_c, 10, 2, 69
4, 93014, Note_on_c, 10, 32, 69
4, 93014, Note_on_c, 10, 0, 74
4, 93014, Note_on_c, 10, 0, 78
4, 93014, Note_off_c, 15, 48, 73
4, 93129, Note_off_c, 15, 32, 73
4, 93129, Note_off_c, 15, 88, 75
4, 93244, Note_off_c, 15, 32, 75
4, 93244, Note_off_c, 15, 88, 76
4, 93359, Note_off_c, 15, 32, 76
4, 93359, Note_off_c, 15, 88, 75
4, 93474, Note_off_c, 15, 32, 75
4, 93474, Note_off_c, 15, 88, 73
4, 93589, Note_off_c, 15, 32, 73
4, 93589, Note_off_c, 15, 48, 71
4, 93704, Note_off_c, 15, 32, 71
4, 93704, Note_off_c, 15, 48, 69
4, 93819, Note_off_c, 3, 96, 69
4, 93819, Note_off_c, 1, 32, 71
4, 93934, Note_off_c, 1, 32, 71
4, 93934, Note_off_c, 1, 88, 73
4, 94049, Note_off_c, 1, 32, 73
4, 94049, Note_off_c, 1, 88, 75
4, 94164, Note_off_c, 1, 32, 75
4, 94164, Note_off_c, 1, 88, 73
4, 94279, Note_off_c, 1, 32, 73
4, 94279, Note_off_c, 1, 88, 71
4, 94394, Note_off_c, 1, 32, 71
4, 94394, Note_off_c, 1, 48, 75
4, 94509, Note_off_c, 1, 32, 75
4, 94509, Note_off_c, 1, 48, 68
4, 94624, Note_off_c, 3, 96, 68
4, 94624, Note_off_c, 1, 32, 69
4, 94739, Note_off_c, 1, 32, 69
4, 94739, Note_off_c, 1, 88, 71
4, 94854, Note_off_c, 1, 32, 71
4, 94854, Note_off_c, 1, 88, 73
4, 94969, Note_off_c, 1, 32, 73
4, 94969, Note_off_c, 1, 88, 71
4, 95084, Note_off_c, 1, 32, 71
4, 95084, Note_off_c, 1, 88, 69
4, 95199, Note_off_c, 1, 32, 69
4, 95199, Note_off_c, 1, 48, 68
4, 95314, Note_off_c, 1, 32, 68
4, 95314, Note_off_c, 1, 48, 66
4, 95429, Note_off_c, 3, 96, 66
4, 95429, Note_off_c, 3, 0, 64
4, 95544, Note_off_c, 1, 32, 64
4, 95544, Note_off_c, 1, 0, 63
4, 95659, Note_off_c, 3, 96, 63
4, 95659, Note_off_c, 3, 0, 67
4, 95774, Note_off_c, 1, 32, 67
4, 95774, Note_off_c, 1, 0, 68
4, 95889, Note_off_c, 3, 96, 68
4, 95889, Note_off_c, 1, 32, 73
4, 96004, Note_off_c, 1, 32, 73
4, 96004, Note_off_c, 1, 88, 75
4, 96119, Note_off_c, 1, 32, 75
4, 96119, Note_off_c, 1, 88, 76
4, 96234, Note_off_c, 1, 32, 76
4, 96234, Note_off_c, 1, 88, 75
4, 96349, Note_off_c, 1, 32, 75
4, 96349, Note_off_c, 1, 88, 73
4, 96464, Note_off_c, 1, 32, 73
4, 96464, Note_off_c, 1, 48, 71
4, 96579, Note_off_c, 1, 32, 71
4, 96579, Note_off_c, 1, 48, 69
4, 96694, Note_off_c, 4, 48, 69
4, 96694, Note_off_c, 4, 80, 71
4, 96809, Note_off_c, 4, 32, 71
4, 96809, Note_off_c, 4, 88, 73
4, 96924, Note_off_c, 4, 32, 73
4, 96924, Note_off_c, 4, 88, 75
4, 97039, Note_off_c, 4, 32, 75
4, 97039, Note_off_c, 4, 88, 73
4, 97154, Note_off_c, 4, 32, 73
4, 97154, Note_off_c, 4, 88, 71
4, 97269, Note_off_c, 4, 32, 71
4, 97269, Note_off_c, 4, 48, 75
4, 97384, Note_off_c, 4, 32, 75
4, 97384, Note_off_c, 4, 48, 68
4, 97499, Note_off_c, 4, 88, 68
4, 97499, Note_off_c, 4, 40, 69
4, 97614, Note_off_c, 4, 32, 69
4, 97614, Note_off_c, 4, 88, 71
4, 97729, Note_off_c, 4, 32, 71
4, 97729, Note_off_c, 4, 88, 73
4, 97844, Note_off_c, 4, 32, 73
4, 97844, Note_off_c, 4, 88, 71
4, 97959, Note_off_c, 4, 32, 71
4, 97959, Note_off_c, 4, 88, 69
4, 98074, Note_off_c, 4, 32, 69
4, 98074, Note_off_c, 4, 48, 68
4, 98189, Note_off_c, 4, 32, 68
4, 98189, Note_off_c, 4, 48, 67
4, 98304, Note_off_c, 4, 88, 67
4, 98304, Note_off_c, 4, 40, 70
4, 98419, Note_off_c, 4, 32, 70
4, 98419, Note_off_c, 4, 88, 72
4, 98534, Note_off_c, 4, 32, 72
4, 98534, Note_off_c, 4, 88, 73
4, 98649, Note_off_c, 4, 32, 73
4, 98649, Note_off_c, 4, 88, 76
4, 98764, Note_off_c, 4, 32, 76
4, 98764, Note_off_c, 4, 88, 75
4, 98879, Note_off_c, 4, 32, 75
4, 98879, Note_off_c, 4, 48, 73
4, 98994, Note_off_c, 4, 32, 73
4, 98994, Note_off_c, 4, 48, 75
4, 99109, Note_off_c, 4, 88, 75
4, 99109, Note_off_c, 4, 40, 80
4, 99236, Note_off_c, 4, 114, 80
4, 99236, Note_off_c, 4, 6, 78
4, 99363, Note_off_c, 4, 114, 78
4, 99363, Note_off_c, 4, 6, 76
4, 99490, Note_off_c, 4, 114, 76
4, 99490, Note_off_c, 4, 6, 75
4, 99617, Note_off_c, 4, 76, 75
4, 99617, Note_off_c, 4, 4, 76
4, 99744, Note_off_c, 4, 38, 76
4, 99744, Note_off_c, 4, 2, 73
4, 99871, Note_off_c, 4, 76, 73
4, 99871, Note_off_c, 4, 4, 71
4, 99998, Note_off_c, 4, 76, 71
4, 99998, Note_off_c, 4, 4, 69
4, 100125, Note_off_c, 1, 24, 69
4, 100125, Note_off_c, 1, 8, 80
4, 100252, Note_off_c, 7, 64, 80
4, 100252, Control_c, 7, 120, 67
4, 100352, Control_c, 7, 54, 67
4, 100352, Control_c, 7, 126, 68
4, 100452, Control_c, 7, 54, 68
4, 100452, Control_c, 7, 126, 65
4, 100552, Control_c, 7, 54, 65
4, 100552, Control_c, 7, 126, 67
4, 100652, Control_c, 7, 54, 67
4, 100652, Control_c, 7, 66, 68
4, 100752, Control_c, 7, 54, 68
4, 100752, Control_c, 7, 6, 67
4, 100852, Control_c, 7, 54, 67
4, 100852, Control_c, 7, 66, 176
4, 100863, Control_c, 7, 127, 0
4, 102976, Control_c, 7, 100, 20
4, 109131, Control_c, 7, 126, 20
4, 109142, Control_c, 7, 125, 20
4, 109153, Control_c, 7, 124, 10
4, 109164, Control_c, 7, 123, 20
4, 109175, Control_c, 7, 122, 18
4, 111288, Control_c, 7, 0, 2
4, 117443, Control_c, 7, 121, 10
4, 117454, Control_c, 7, 120, 0
4, 119569, Control_c, 7, 100, 20
4, 125724, Control_c, 7, 119, 20
4, 125735, Control_c, 7, 118, 10
4, 125746, Control_c, 7, 117, 4
4, 127861, Control_c, 7, 0, 16
4, 134016, Control_c, 7, 116, 20
4, 134027, Control_c, 7, 115, 10
4, 134038, Control_c, 7, 114, 20
4, 134049, Control_c, 7, 113, 20
4, 134060, Control_c, 7, 112, 10
4, 134071, Control_c, 7, 111, 20
4, 134082, Control_c, 7, 110, 10
4, 136198, Control_c, 7, 100, 10
4, 142353, Control_c, 7, 109, 10
4, 142364, Control_c, 7, 108, 20
4, 142375, Control_c, 7, 107, 14
4, 144491, Control_c, 7, 0, 6
4, 150646, Control_c, 7, 106, 10
4, 150657, Control_c, 7, 105, 20
4, 150668, Control_c, 7, 104, 20
4, 150679, Control_c, 7, 103, 10
4, 150690, Control_c, 7, 102, 20
4, 150701, Control_c, 7, 101, 20
4, 150712, Control_c, 7, 100, 10
4, 150723, Control_c, 7, 99, 10
4, 152836, Control_c, 7, 100, 10
4, 158991, Control_c, 7, 98, 20
4, 159002, Control_c, 7, 97, 10
4, 159013, Control_c, 7, 96, 14
4, 161126, Control_c, 7, 0, 6
4, 167281, Control_c, 7, 95, 20
4, 167292, Control_c, 7, 94, 20
4, 167303, Control_c, 7, 93, 10
4, 167314, Control_c, 7, 92, 20
4, 167325, Control_c, 7, 91, 20
4, 167336, Control_c, 7, 90, 10
4, 167347, Control_c, 7, 89, 20
4, 167358, Control_c, 7, 88, 0
4, 169473, Control_c, 7, 100, 20
4, 175628, Control_c, 7, 87, 10
4, 175639, Control_c, 7, 86, 20
4, 175650, 