0, 0, Header, 0, 1, 480
1, 0, Start_track
1, 0, SMPTE_offset, 96, 0, 0, 0, 0
1, 0, Time_signature, 4, 2, 24, 8
1, 0, Key_signature, 0, "major"
1, 0, Tempo, 416666
1, 0, System_exclusive, 10, 65, 16, 66, 18, 0, 0, 127, 0, 1, 247
1, 120, System_exclusive, 10, 65, 16, 66, 18, 64, 0, 4, 127, 61, 247
1, 240, System_exclusive, 10, 65, 16, 66, 18, 64, 1, 51, 127, 13, 247
1, 360, System_exclusive, 10, 65, 16, 66, 18, 64, 1, 58, 70, 63, 247
1, 720, System_exclusive, 10, 65, 16, 66, 18, 64, 1, 52, 80, 59, 247
1, 840, System_exclusive, 10, 65, 16, 66, 18, 64, 1, 49, 1, 13, 247
1, 960, Control_c, 1, 99, 1
1, 960, Control_c, 2, 99, 1
1, 960, Control_c, 4, 99, 1
1, 960, Control_c, 0, 99, 1
1, 1079, Control_c, 1, 99, 1
1, 1079, Control_c, 2, 99, 1
1, 1079, Control_c, 4, 99, 1
1, 1079, Control_c, 0, 99, 1
1, 1080, Control_c, 1, 98, 32
1, 1080, Control_c, 1, 1, 8
1, 1080, Control_c, 1, 6, 66
1, 1080, Control_c, 2, 98, 32
1, 1080, Control_c, 2, 1, 8
1, 1080, Control_c, 2, 6, 90
1, 1080, Control_c, 4, 98, 32
1, 1080, Control_c, 4, 1, 8
1, 1080, Control_c, 4, 6, 68
1, 1080, System_exclusive, 10, 65, 16, 66, 18, 64, 26, 21, 1, 16, 247
1, 1080, Control_c, 0, 98, 32
1, 1080, Control_c, 0, 1, 0
1, 1080, Control_c, 0, 6, 66
1, 1199, Control_c, 1, 98, 32
1, 1199, Control_c, 1, 1, 8
1, 1199, Control_c, 1, 6, 66
1, 1199, Control_c, 2, 98, 32
1, 1199, Control_c, 2, 1, 8
1, 1199, Control_c, 2, 6, 90
1, 1199, Control_c, 4, 98, 32
1, 1199, Control_c, 4, 1, 8
1, 1199, Control_c, 4, 6, 68
1, 1199, Control_c, 0, 98, 32
1, 1199, Control_c, 0, 1, 0
1, 1199, Control_c, 0, 6, 66
1, 1200, Control_c, 1, 98, 33
1, 1200, Control_c, 1, 6, 72
1, 1200, Control_c, 1, 7, 94
1, 1200, Control_c, 2, 98, 33
1, 1200, Control_c, 2, 6, 92
1, 1200, Control_c, 2, 7, 92
1, 1200, Control_c, 4, 98, 33
1, 1200, Control_c, 4, 7, 92
1, 1200, Control_c, 4, 6, 64
1, 1200, Control_c, 0, 98, 33
1, 1200, Control_c, 0, 1, 0
1, 1200, Control_c, 0, 6, 72
1, 1200, Control_c, 0, 7, 94
1, 1203, System_exclusive, 41, 65, 16, 69, 18, 16, 0, 0, 104, 116, 116, 112, 58, 47, 47, 119, 119, 119, 46, 111, 110, 46, 114, 105, 109, 46, 111, 114, 46, 106, 112, 47, 126, 100, 97, 105, 122, 111, 117, 47, 51, 247
1, 1319, Control_c, 1, 98, 33
1, 1319, Control_c, 1, 6, 72
1, 1319, Control_c, 1, 7, 94
1, 1319, Control_c, 2, 98, 33
1, 1319, Control_c, 2, 6, 92
1, 1319, Control_c, 4, 98, 33
1, 1319, Control_c, 4, 6, 64
1, 1319, Control_c, 0, 98, 33
1, 1319, Control_c, 0, 6, 72
1, 1319, Control_c, 0, 7, 94
1, 1320, Control_c, 1, 11, 127
1, 1320, Control_c, 1, 11, 127
1, 1320, Control_c, 1, 98, 99
1, 1320, Control_c, 1, 93, 24
1, 1320, Control_c, 1, 6, 58
1, 1320, Control_c, 1, 91, 100
1, 1320, Control_c, 2, 11, 127
1, 1320, Control_c, 2, 11, 127
1, 1320, Control_c, 2, 98, 99
1, 1320, Control_c, 2, 6, 58
1, 1320, Control_c, 2, 93, 42
1, 1320, Control_c, 2, 91, 120
1, 1320, Control_c, 4, 11, 127
1, 1320, Control_c, 4, 11, 127
1, 1320, Control_c, 4, 98, 99
1, 1320, Control_c, 4, 6, 58
1, 1320, Control_c, 4, 93, 42
1, 1320, Control_c, 4, 91, 120
1, 1320, Control_c, 0, 11, 127
1, 1320, Control_c, 0, 11, 127
1, 1320, Control_c, 0, 98, 99
1, 1320, Control_c, 0, 10, 64
1, 1320, Control_c, 0, 6, 64
1, 1320, Control_c, 0, 93, 88
1, 1320, Control_c, 0, 91, 100
1, 1400, Control_c, 1, 94, 0
1, 1400, Control_c, 2, 94, 0
1, 1400, Control_c, 4, 94, 0
1, 1400, Control_c, 0, 94, 0
1, 1439, Control_c, 1, 98, 99
1, 1439, Control_c, 1, 93, 24
1, 1439, Control_c, 1, 6, 58
1, 1439, Control_c, 1, 91, 100
1, 1439, Control_c, 2, 98, 99
1, 1439, Control_c, 2, 6, 58
1, 1439, Control_c, 2, 93, 42
1, 1439, Control_c, 2, 91, 120
1, 1439, Control_c, 4, 98, 99
1, 1439, Control_c, 4, 6, 58
1, 1439, Control_c, 4, 93, 42
1, 1439, Control_c, 4, 91, 120
1, 1439, Control_c, 0, 98, 99
1, 1439, Control_c, 0, 10, 64
1, 1439, Control_c, 0, 6, 64
1, 1439, Control_c, 0, 93, 88
1, 1439, Control_c, 0, 91, 100
1, 1440, Control_c, 1, 98, 102
1, 1440, Control_c, 1, 99, 1
1, 1440, Control_c, 1, 6, 64
1, 1440, Control_c, 2, 98, 102
1, 1440, Control_c, 2, 99, 1
1, 1440, Control_c, 2, 6, 64
1, 1440, Control_c, 4, 98, 102
1, 1440, Control_c, 4, 99, 1
1, 1440, Control_c, 4, 6, 64
1, 1559, Control_c, 1, 98, 102
1, 1559, Control_c, 1, 99, 1
1, 1559, Control_c, 1, 6, 64
1, 1559, Control_c, 2, 98, 102
1, 1559, Control_c, 2, 99, 1
1, 1559, Control_c, 2, 6, 64
1, 1559, Control_c, 4, 98, 102
1, 1559, Control_c, 4, 99, 1
1, 1559, Control_c, 4, 6, 64
1, 1560, Control_c, 1, 6, 70
1, 1560, Control_c, 2, 6, 70
1, 1560, Control_c, 4, 6, 70
1, 1679, Control_c, 1, 6, 70
1, 1679, Control_c, 2, 6, 70
1, 1679, Control_c, 4, 6, 70
1, 1680, Control_c, 3, 91, 10
1, 1680, Control_c, 3, 7, 127
1, 1680, Control_c, 9, 7, 110
1, 1680, Control_c, 9, 91, 127
1, 1680, Control_c, 0, 10, 127
1, 1680, Control_c, 1, 10, 2
1, 1799, Control_c, 3, 7, 127
1, 1799, Control_c, 9, 91, 127
1, 1800, Program_c, 0, 30
1, 1800, Program_c, 1, 30
1, 1800, Program_c, 3, 33
1, 1800, Program_c, 9, 8
1, 1800, Control_c, 2, 0, 17
1, 1800, Program_c, 2, 30
1, 1800, Control_c, 4, 0, 0
1, 1800, Program_c, 4, 30
1, 1920, Note_on_c, 0, 37, 100
1, 1920, Note_on_c, 0, 49, 100
1, 1920, Note_on_c, 1, 37, 100
1, 1920, Note_on_c, 1, 49, 100
1, 1920, Note_on_c, 3, 25, 100
1, 1920, Note_on_c, 9, 36, 100
1, 1920, Note_on_c, 9, 46, 100
1, 2040, Note_off_c, 9, 36, 64
1, 2040, Note_off_c, 9, 46, 64
1, 2160, Note_off_c, 0, 37, 64
1, 2160, Note_off_c, 0, 49, 64
1, 2160, Note_off_c, 1, 37, 64
1, 2160, Note_off_c, 1, 49, 64
1, 2160, Note_off_c, 3, 25, 64
1, 2160, Note_on_c, 0, 37, 100
1, 2160, Note_on_c, 0, 49, 100
1, 2160, Note_on_c, 1, 37, 100
1, 2160, Note_on_c, 1, 49, 100
1, 2160, Note_on_c, 3, 25, 100
1, 2160, Note_on_c, 9, 36, 100
1, 2160, Note_on_c, 9, 46, 82
1, 2280, Note_off_c, 9, 36, 64
1, 2280, Note_off_c, 9, 46, 64
1, 2520, Note_off_c, 0, 37, 64
1, 2520, Note_off_c, 0, 49, 64
1, 2520, Note_off_c, 1, 37, 64
1, 2520, Note_off_c, 1, 49, 64
1, 2520, Note_off_c, 3, 25, 64
1, 2880, Note_on_c, 2, 60, 100
1, 2880, Note_on_c, 2, 72, 100
1, 2880, Note_on_c, 4, 60, 100
1, 3000, Pitch_bend_c, 2, 8192
1, 3000, Pitch_bend_c, 4, 8192
1, 3002, Control_c, 2, 100, 0
1, 3002, Control_c, 2, 101, 0
1, 3002, Control_c, 4, 100, 0
1, 3002, Control_c, 4, 101, 0
1, 3003, Control_c, 2, 6, 16
1, 3003, Control_c, 4, 6, 16
1, 3014, Pitch_bend_c, 2, 8193
1, 3014, Pitch_bend_c, 4, 8193
1, 3028, Pitch_bend_c, 2, 8199
1, 3028, Pitch_bend_c, 4, 8199
1, 3043, Pitch_bend_c, 2, 8208
1, 3043, Pitch_bend_c, 4, 8208
1, 3057, Pitch_bend_c, 2, 8221
1, 3057, Pitch_bend_c, 4, 8221
1, 3071, Pitch_bend_c, 2, 8237
1, 3071, Pitch_bend_c, 4, 8237
1, 3085, Pitch_bend_c, 2, 8256
1, 3085, Pitch_bend_c, 4, 8256
1, 3099, Pitch_bend_c, 2, 8279
1, 3099, Pitch_bend_c, 4, 8279
1, 3114, Pitch_bend_c, 2, 8308
1, 3114, Pitch_bend_c, 4, 8308
1, 3128, Pitch_bend_c, 2, 8338
1, 3128, Pitch_bend_c, 4, 8338
1, 3142, Pitch_bend_c, 2, 8372
1, 3142, Pitch_bend_c, 4, 8372
1, 3156, Pitch_bend_c, 2, 8409
1, 3156, Pitch_bend_c, 4, 8409
1, 3170, Pitch_bend_c, 2, 8450
1, 3170, Pitch_bend_c, 4, 8450
1, 3185, Pitch_bend_c, 2, 8497
1, 3185, Pitch_bend_c, 4, 8497
1, 3199, Pitch_bend_c, 2, 8545
1, 3199, Pitch_bend_c, 4, 8545
1, 3213, Pitch_bend_c, 2, 8597
1, 3213, Pitch_bend_c, 4, 8597
1, 3227, Pitch_bend_c, 2, 8652
1, 3227, Pitch_bend_c, 4, 8652
1, 3240, Pitch_bend_c, 2, 8704
1, 3240, Pitch_bend_c, 4, 8704
1, 3359, Pitch_bend_c, 2, 8704
1, 3359, Pitch_bend_c, 4, 8704
1, 3360, Pitch_bend_c, 2, 8704
1, 3360, Pitch_bend_c, 4, 8704
1, 3600, Pitch_bend_c, 2, 8704
1, 3600, Pitch_bend_c, 4, 8704
1, 3614, Pitch_bend_c, 2, 8698
1, 3614, Pitch_bend_c, 4, 8698
1, 3629, Pitch_bend_c, 2, 8680
1, 3629, Pitch_bend_c, 4, 8680
1, 3643, Pitch_bend_c, 2, 8653
1, 3643, Pitch_bend_c, 4, 8653
1, 3657, Pitch_bend_c, 2, 8615
1, 3657, Pitch_bend_c, 4, 8615
1, 3671, Pitch_bend_c, 2, 8567
1, 3671, Pitch_bend_c, 4, 8567
1, 3685, Pitch_bend_c, 2, 8509
1, 3685, Pitch_bend_c, 4, 8509
1, 3700, Pitch_bend_c, 2, 8434
1, 3700, Pitch_bend_c, 4, 8434
1, 3714, Pitch_bend_c, 2, 8354
1, 3714, Pitch_bend_c, 4, 8354
1, 3728, Pitch_bend_c, 2, 8263
1, 3728, Pitch_bend_c, 4, 8263
1, 3742, Pitch_bend_c, 2, 8162
1, 3742, Pitch_bend_c, 4, 8162
1, 3756, Pitch_bend_c, 2, 8050
1, 3756, Pitch_bend_c, 4, 8050
1, 3771, Pitch_bend_c, 2, 7919
1, 3771, Pitch_bend_c, 4, 7919
1, 3785, Pitch_bend_c, 2, 7786
1, 3785, Pitch_bend_c, 4, 7786
1, 3799, Pitch_bend_c, 2, 7642
1, 3799, Pitch_bend_c, 4, 7642
1, 3813, Pitch_bend_c, 2, 7488
1, 3813, Pitch_bend_c, 4, 7488
1, 3827, Pitch_bend_c, 2, 7323
1, 3827, Pitch_bend_c, 4, 7323
1, 3840, Note_off_c, 2, 60, 64
1, 3840, Note_off_c, 2, 72, 64
1, 3840, Note_off_c, 4, 60, 64
1, 3840, Pitch_bend_c, 2, 7168
1, 3840, Pitch_bend_c, 4, 7168
1, 3840, Note_on_c, 0, 37, 100
1, 3840, Note_on_c, 0, 49, 100
1, 3840, Note_on_c, 1, 37, 100
1, 3840, Note_on_c, 1, 49, 100
1, 3840, Note_on_c, 3, 25, 100
1, 3840, Note_on_c, 9, 36, 100
1, 3840, Note_on_c, 9, 46, 100
1, 3960, Note_off_c, 9, 36, 64
1, 3960, Note_off_c, 9, 46, 64
1, 4080, Note_off_c, 0, 37, 64
1, 4080, Note_off_c, 0, 49, 64
1, 4080, Note_off_c, 1, 37, 64
1, 4080, Note_off_c, 1, 49, 64
1, 4080, Note_off_c, 3, 25, 64
1, 4080, Note_on_c, 0, 37, 100
1, 4080, Note_on_c, 0, 49, 100
1, 4080, Note_on_c, 1, 37, 100
1, 4080, Note_on_c, 1, 49, 100
1, 4080, Note_on_c, 3, 25, 100
1, 4080, Note_on_c, 9, 36, 100
1, 4080, Note_on_c, 9, 46, 82
1, 4200, Note_off_c, 9, 36, 64
1, 4200, Note_off_c, 9, 46, 64
1, 4440, Note_off_c, 0, 37, 64
1, 4440, Note_off_c, 0, 49, 64
1, 4440, Note_off_c, 1, 37, 64
1, 4440, Note_off_c, 1, 49, 64
1, 4440, Note_off_c, 3, 25, 64
1, 4800, Pitch_bend_c, 2, 8192
1, 4800, Pitch_bend_c, 4, 8192
1, 4800, Note_on_c, 2, 66, 100
1, 4800, Note_on_c, 2, 54, 100
1, 4800, Note_on_c, 4, 54, 100
1, 4920, Pitch_bend_c, 2, 8192
1, 4920, Pitch_bend_c, 4, 8192
1, 4934, Pitch_bend_c, 2, 8195
1, 4934, Pitch_bend_c, 4, 8195
1, 4948, Pitch_bend_c, 2, 8206
1, 4948, Pitch_bend_c, 4, 8206
1, 4962, Pitch_bend_c, 2, 8224
1, 4962, Pitch_bend_c, 4, 8224
1, 4977, Pitch_bend_c, 2, 8250
1, 4977, Pitch_bend_c, 4, 8250
1, 4991, Pitch_bend_c, 2, 8282
1, 4991, Pitch_bend_c, 4, 8282
1, 5005, Pitch_bend_c, 2, 8321
1, 5005, Pitch_bend_c, 4, 8321
1, 5019, Pitch_bend_c, 2, 8367
1, 5019, Pitch_bend_c, 4, 8367
1, 5033, Pitch_bend_c, 2, 8421
1, 5033, Pitch_bend_c, 4, 8421
1, 5048, Pitch_bend_c, 2, 8485
1, 5048, Pitch_bend_c, 4, 8485
1, 5062, Pitch_bend_c, 2, 8552
1, 5062, Pitch_bend_c, 4, 8552
1, 5076, Pitch_bend_c, 2, 8627
1, 5076, Pitch_bend_c, 4, 8627
1, 5090, Pitch_bend_c, 2, 8708
1, 5090, Pitch_bend_c, 4, 8708
1, 5104, Pitch_bend_c, 2, 8797
1, 5104, Pitch_bend_c, 4, 8797
1, 5119, Pitch_bend_c, 2, 8899
1, 5119, Pitch_bend_c, 4, 8899
1, 5133, Pitch_bend_c, 2, 9002
1, 5133, Pitch_bend_c, 4, 9002
1, 5147, Pitch_bend_c, 2, 9112
1, 5147, Pitch_bend_c, 4, 9112
1, 5160, Pitch_bend_c, 2, 9216
1, 5160, Pitch_bend_c, 4, 9216
1, 5520, Pitch_bend_c, 2, 9216
1, 5520, Pitch_bend_c, 4, 9216
1, 5534, Pitch_bend_c, 2, 9212
1, 5534, Pitch_bend_c, 4, 9212
1, 5548, Pitch_bend_c, 2, 9201
1, 5548, Pitch_bend_c, 4, 9201
1, 5563, Pitch_bend_c, 2, 9182
1, 5563, Pitch_bend_c, 4, 9182
1, 5577, Pitch_bend_c, 2, 9157
1, 5577, Pitch_bend_c, 4, 9157
1, 5591, Pitch_bend_c, 2, 9125
1, 5591, Pitch_bend_c, 4, 9125
1, 5605, Pitch_bend_c, 2, 9086
1, 5605, Pitch_bend_c, 4, 9086
1, 5619, Pitch_bend_c, 2, 9040
1, 5619, Pitch_bend_c, 4, 9040
1, 5634, Pitch_bend_c, 2, 8982
1, 5634, Pitch_bend_c, 4, 8982
1, 5648, Pitch_bend_c, 2, 8922
1, 5648, Pitch_bend_c, 4, 8922
1, 5662, Pitch_bend_c, 2, 8855
1, 5662, Pitch_bend_c, 4, 8855
1, 5676, Pitch_bend_c, 2, 8780
1, 5676, Pitch_bend_c, 4, 8780
1, 5690, Pitch_bend_c, 2, 8699
1, 5690, Pitch_bend_c, 4, 8699
1, 5705, Pitch_bend_c, 2, 8604
1, 5705, Pitch_bend_c, 4, 8604
1, 5719, Pitch_bend_c, 2, 8508
1, 5719, Pitch_bend_c, 4, 8508
1, 5733, Pitch_bend_c, 2, 8405
1, 5733, Pitch_bend_c, 4, 8405
1, 5747, Pitch_bend_c, 2, 8295
1, 5747, Pitch_bend_c, 4, 8295
1, 5760, Note_off_c, 2, 66, 64
1, 5760, Note_off_c, 2, 54, 64
1, 5760, Note_off_c, 4, 54, 64
1, 5760, Pitch_bend_c, 2, 8192
1, 5760, Pitch_bend_c, 4, 8192
1, 5760, Note_on_c, 0, 37, 100
1, 5760, Note_on_c, 0, 49, 100
1, 5760, Note_on_c, 1, 37, 100
1, 5760, Note_on_c, 1, 49, 100
1, 5760, Note_on_c, 3, 25, 100
1, 5760, Note_on_c, 9, 36, 100
1, 5760, Note_on_c, 9, 46, 100
1, 5880, Note_off_c, 9, 36, 64
1, 5880, Note_off_c, 9, 46, 64
1, 6000, Note_off_c, 0, 37, 64
1, 6000, Note_off_c, 0, 49, 64
1, 6000, Note_off_c, 1, 37, 64
1, 6000, Note_off_c, 1, 49, 64
1, 6000, Note_off_c, 3, 25, 64
1, 6000, Note_on_c, 0, 37, 100
1, 6000, Note_on_c, 0, 49, 100
1, 6000, Note_on_c, 1, 37, 100
1, 6000, Note_on_c, 1, 49, 100
1, 6000, Note_on_c, 3, 25, 100
1, 6000, Note_on_c, 9, 36, 100
1, 6000, Note_on_c, 9, 46, 82
1, 6120, Note_off_c, 9, 36, 64
1, 6120, Note_off_c, 9, 46, 64
1, 6360, Note_off_c, 0, 37, 64
1, 6360, Note_off_c, 0, 49, 64
1, 6360, Note_off_c, 1, 37, 64
1, 6360, Note_off_c, 1, 49, 64
1, 6360, Note_off_c, 3, 25, 64
1, 6720, Pitch_bend_c, 2, 8192
1, 6720, Pitch_bend_c, 4, 8192
1, 6720, Note_on_c, 2, 60, 100
1, 6720, Note_on_c, 2, 72, 100
1, 6720, Note_on_c, 4, 60, 100
1, 6840, Pitch_bend_c, 2, 8192
1, 6840, Pitch_bend_c, 4, 8192
1, 6842, Control_c, 2, 100, 0
1, 6842, Control_c, 2, 101, 0
1, 6842, Control_c, 4, 100, 0
1, 6842, Control_c, 4, 101, 0
1, 6843, Control_c, 2, 6, 16
1, 6843, Control_c, 4, 6, 16
1, 6854, Pitch_bend_c, 2, 8193
1, 6854, Pitch_bend_c, 4, 8193
1, 6868, Pitch_bend_c, 2, 8199
1, 6868, Pitch_bend_c, 4, 8199
1, 6883, Pitch_bend_c, 2, 8208
1, 6883, Pitch_bend_c, 4, 8208
1, 6897, Pitch_bend_c, 2, 8221
1, 6897, Pitch_bend_c, 4, 8221
1, 6911, Pitch_bend_c, 2, 8237
1, 6911, Pitch_bend_c, 4, 8237
1, 6925, Pitch_bend_c, 2, 8256
1, 6925, Pitch_bend_c, 4, 8256
1, 6939, Pitch_bend_c, 2, 8279
1, 6939, Pitch_bend_c, 4, 8279
1, 6954, Pitch_bend_c, 2, 8308
1, 6954, Pitch_bend_c, 4, 8308
1, 6968, Pitch_bend_c, 2, 8338
1, 6968, Pitch_bend_c, 4, 8338
1, 6982, Pitch_bend_c, 2, 8372
1, 6982, Pitch_bend_c, 4, 8372
1, 6996, Pitch_bend_c, 2, 8409
1, 6996, Pitch_bend_c, 4, 8409
1, 7010, Pitch_bend_c, 2, 8450
1, 7010, Pitch_bend_c, 4, 8450
1, 7025, Pitch_bend_c, 2, 8497
1, 7025, Pitch_bend_c, 4, 8497
1, 7039, Pitch_bend_c, 2, 8545
1, 7039, Pitch_bend_c, 4, 8545
1, 7053, Pitch_bend_c, 2, 8597
1, 7053, Pitch_bend_c, 4, 8597
1, 7067, Pitch_bend_c, 2, 8652
1, 7067, Pitch_bend_c, 4, 8652
1, 7080, Pitch_bend_c, 2, 8704
1, 7080, Pitch_bend_c, 4, 8704
1, 7199, Pitch_bend_c, 2, 8704
1, 7199, Pitch_bend_c, 4, 8704
1, 7200, Pitch_bend_c, 2, 8704
1, 7200, Pitch_bend_c, 4, 8704
1, 7440, Pitch_bend_c, 2, 8704
1, 7440, Pitch_bend_c, 4, 8704
1, 7454, Pitch_bend_c, 2, 8698
1, 7454, Pitch_bend_c, 4, 8698
1, 7468, Pitch_bend_c, 2, 8682
1, 7468, Pitch_bend_c, 4, 8682
1, 7482, Pitch_bend_c, 2, 8655
1, 7482, Pitch_bend_c, 4, 8655
1, 7497, Pitch_bend_c, 2, 8615
1, 7497, Pitch_bend_c, 4, 8615
1, 7511, Pitch_bend_c, 2, 8567
1, 7511, Pitch_bend_c, 4, 8567
1, 7525, Pitch_bend_c, 2, 8509
1, 7525, Pitch_bend_c, 4, 8509
1, 7539, Pitch_bend_c, 2, 8440
1, 7539, Pitch_bend_c, 4, 8440
1, 7553, Pitch_bend_c, 2, 8360
1, 7553, Pitch_bend_c, 4, 8360
1, 7568, Pitch_bend_c, 2, 8263
1, 7568, Pitch_bend_c, 4, 8263
1, 7582, Pitch_bend_c, 2, 8162
1, 7582, Pitch_bend_c, 4, 8162
1, 7596, Pitch_bend_c, 2, 8050
1, 7596, Pitch_bend_c, 4, 8050
1, 7610, Pitch_bend_c, 2, 7928
1, 7610, Pitch_bend_c, 4, 7928
1, 7624, Pitch_bend_c, 2, 7796
1, 7624, Pitch_bend_c, 4, 7796
1, 7639, Pitch_bend_c, 2, 7642
1, 7639, Pitch_bend_c, 4, 7642
1, 7653, Pitch_bend_c, 2, 7488
1, 7653, Pitch_bend_c, 4, 7488
1, 7667, Pitch_bend_c, 2, 7323
1, 7667, Pitch_bend_c, 4, 7323
1, 7680, Note_off_c, 2, 60, 64
1, 7680, Note_off_c, 2, 72, 64
1, 7680, Note_off_c, 4, 60, 64
1, 7680, Pitch_bend_c, 2, 7168
1, 7680, Pitch_bend_c, 4, 7168
1, 7680, Note_on_c, 0, 43, 100
1, 7680, Note_on_c, 0, 55, 100
1, 7680, Note_on_c, 1, 43, 100
1, 7680, Note_on_c, 1, 55, 100
1, 7680, Note_on_c, 3, 31, 100
1, 7680, Note_on_c, 9, 38, 100
1, 7680, Note_on_c, 9, 57, 80
1, 7800, Note_off_c, 9, 38, 64
1, 7800, Note_off_c, 9, 57, 64
1, 7920, Note_off_c, 0, 43, 64
1, 7920, Note_off_c, 0, 55, 64
1, 7920, Note_off_c, 1, 43, 64
1, 7920, Note_off_c, 1, 55, 64
1, 7920, Note_off_c, 3, 31, 64
1, 7920, Note_on_c, 0, 42, 100
1, 7920, Note_on_c, 0, 54, 100
1, 7920, Note_on_c, 1, 42, 100
1, 7920, Note_on_c, 1, 54, 100
1, 7920, Note_on_c, 3, 30, 100
1, 7920, Note_on_c, 9, 36, 100
1, 8040, Note_off_c, 9, 36, 64
1, 8160, Note_off_c, 0, 42, 64
1, 8160, Note_off_c, 0, 54, 64
1, 8160, Note_off_c, 1, 42, 64
1, 8160, Note_off_c, 1, 54, 64
1, 8160, Note_off_c, 3, 30, 64
1, 8160, Note_on_c, 0, 43, 100
1, 8160, Note_on_c, 0, 55, 100
1, 8160, Note_on_c, 1, 43, 100
1, 8160, Note_on_c, 1, 55, 100
1, 8160, Note_on_c, 3, 31, 100
1, 8160, Note_on_c, 9, 38, 100
1, 8160, Note_on_c, 9, 36, 100
1, 8160, Note_on_c, 9, 49, 70
1, 8280, Note_off_c, 9, 38, 64
1, 8280, Note_off_c, 9, 36, 64
1, 8280, Note_off_c, 9, 49, 64
1, 8400, Note_off_c, 0, 43, 64
1, 8400, Note_off_c, 0, 55, 64
1, 8400, Note_off_c, 1, 43, 64
1, 8400, Note_off_c, 1, 55, 64
1, 8400, Note_off_c, 3, 31, 64
1, 8400, Note_on_c, 0, 42, 100
1, 8400, Note_on_c, 0, 54, 100
1, 8400, Note_on_c, 1, 42, 100
1, 8400, Note_on_c, 1, 54, 100
1, 8400, Note_on_c, 3, 30, 100
1, 8640, Note_off_c, 0, 42, 64
1, 8640, Note_off_c, 0, 54, 64
1, 8640, Note_off_c, 1, 42, 64
1, 8640, Note_off_c, 1, 54, 64
1, 8640, Note_off_c, 3, 30, 64
1, 8640, Note_on_c, 9, 38, 100
1, 8640, Note_on_c, 0, 43, 100
1, 8640, Note_on_c, 0, 55, 100
1, 8640, Note_on_c, 1, 43, 100
1, 8640, Note_on_c, 1, 55, 100
1, 8640, Note_on_c, 3, 31, 100
1, 8640, Note_on_c, 9, 57, 88
1, 8760, Note_off_c, 9, 38, 64
1, 8760, Note_off_c, 9, 57, 64
1, 8865, Note_on_c, 9, 38, 56
1, 8877, Note_off_c, 9, 38, 64
1, 8880, Note_off_c, 0, 43, 64
1, 8880, Note_off_c, 0, 55, 64
1, 8880, Note_off_c, 1, 43, 64
1, 8880, Note_off_c, 1, 55, 64
1, 8880, Note_off_c, 3, 31, 64
1, 8880, Note_on_c, 0, 42, 100
1, 8880, Note_on_c, 0, 54, 100
1, 8880, Note_on_c, 1, 42, 100
1, 8880, Note_on_c, 1, 54, 100
1, 8880, Note_on_c, 3, 30, 100
1, 8880, Note_on_c, 9, 38, 72
1, 9000, Note_off_c, 9, 38, 64
1, 9000, Note_on_c, 9, 38, 80
1, 9120, Note_off_c, 0, 42, 64
1, 9120, Note_off_c, 0, 54, 64
1, 9120, Note_off_c, 1, 42, 64
1, 9120, Note_off_c, 1, 54, 64
1, 9120, Note_off_c, 3, 30, 64
1, 9120, Note_off_c, 9, 38, 64
1, 9120, Note_on_c, 0, 40, 100
1, 9120, Note_on_c, 0, 52, 100
1, 9120, Note_on_c, 1, 40, 100
1, 9120, Note_on_c, 1, 52, 100
1, 9120, Note_on_c, 3, 29, 100
1, 9120, Note_on_c, 9, 38, 104
1, 9240, Note_off_c, 9, 38, 64
1, 9240, Note_on_c, 9, 38, 90
1, 9360, Note_off_c, 9, 38, 64
1, 9360, Note_on_c, 9, 38, 76
1, 9480, Note_off_c, 9, 38, 64
1, 9600, Note_off_c, 0, 40, 64
1, 9600, Note_off_c, 0, 52, 64
1, 9600, Note_off_c, 1, 40, 64
1, 9600, Note_off_c, 1, 52, 64
1, 9600, Note_off_c, 3, 29, 64
1, 9600, Note_on_c, 0, 37, 100
1, 9600, Note_on_c, 0, 49, 100
1, 9600, Note_on_c, 1, 37, 100
1, 9600, Note_on_c, 1, 49, 100
1, 9600, Note_on_c, 3, 25, 100
1, 9600, Note_on_c, 9, 36, 100
1, 9600, Note_on_c, 9, 57, 100
1, 9720, Note_off_c, 9, 36, 64
1, 9720, Note_off_c, 9, 57, 64
1, 9840, Note_off_c, 0, 37, 64
1, 9840, Note_off_c, 0, 49, 64
1, 9840, Note_off_c, 1, 37, 64
1, 9840, Note_off_c, 1, 49, 64
1, 9840, Note_off_c, 3, 25, 64
1, 9840, Note_on_c, 0, 37, 100
1, 9840, Note_on_c, 0, 49, 100
1, 9840, Note_on_c, 1, 37, 100
1, 9840, Note_on_c, 1, 49, 100
1, 9840, Note_on_c, 3, 25, 100
1, 10200, Note_off_c, 0, 37, 64
1, 10200, Note_off_c, 0, 49, 64
1, 10200, Note_off_c, 1, 37, 64
1, 10200, Note_off_c, 1, 49, 64
1, 10200, Note_off_c, 3, 25, 64
1, 10440, Note_on_c, 9, 50, 83
1, 10500, Note_off_c, 9, 50, 64
1, 10500, Note_on_c, 9, 50, 91
1, 10560, Note_off_c, 9, 50, 64
1, 10560, Pitch_bend_c, 2, 8192
1, 10560, Pitch_bend_c, 4, 8192
1, 10560, Note_on_c, 9, 50, 100
1, 10560, Note_on_c, 2, 60, 100
1, 10560, Note_on_c, 2, 72, 100
1, 10560, Note_on_c, 4, 60, 100
1, 10620, Note_off_c, 9, 50, 64
1, 10640, Note_on_c, 9, 50, 93
1, 10680, Pitch_bend_c, 2, 8192
1, 10680, Pitch_bend_c, 4, 8192
1, 10682, Control_c, 2, 100, 0
1, 10682, Control_c, 2, 101, 0
1, 10682, Control_c, 4, 100, 0
1, 10682, Control_c, 4, 101, 0
1, 10683, Control_c, 2, 6, 16
1, 10683, Control_c, 4, 6, 16
1, 10694, Pitch_bend_c, 2, 8193
1, 10694, Pitch_bend_c, 4, 8193
1, 10700, Note_off_c, 9, 50, 64
1, 10708, Pitch_bend_c, 2, 8199
1, 10708, Pitch_bend_c, 4, 8199
1, 10720, Note_on_c, 9, 50, 89
1, 10723, Pitch_bend_c, 2, 8208
1, 10723, Pitch_bend_c, 4, 8208
1, 10737, Pitch_bend_c, 2, 8221
1, 10737, Pitch_bend_c, 4, 8221
1, 10751, Pitch_bend_c, 2, 8237
1, 10751, Pitch_bend_c, 4, 8237
1, 10765, Pitch_bend_c, 2, 8256
1, 10765, Pitch_bend_c, 4, 8256
1, 10779, Pitch_bend_c, 2, 8279
1, 10779, Pitch_bend_c, 4, 8279
1, 10780, Note_off_c, 9, 50, 64
1, 10794, Pitch_bend_c, 2, 8308
1, 10794, Pitch_bend_c, 4, 8308
1, 10800, Note_on_c, 9, 48, 86
1, 10808, Pitch_bend_c, 2, 8338
1, 10808, Pitch_bend_c, 4, 8338
1, 10822, Pitch_bend_c, 2, 8372
1, 10822, Pitch_bend_c, 4, 8372
1, 10836, Pitch_bend_c, 2, 8409
1, 10836, Pitch_bend_c, 4, 8409
1, 10850, Pitch_bend_c, 2, 8450
1, 10850, Pitch_bend_c, 4, 8450
1, 10860, Note_off_c, 9, 48, 64
1, 10865, Pitch_bend_c, 2, 8497
1, 10865, Pitch_bend_c, 4, 8497
1, 10879, Pitch_bend_c, 2, 8545
1, 10879, Pitch_bend_c, 4, 8545
1, 10893, Pitch_bend_c, 2, 8597
1, 10893, Pitch_bend_c, 4, 8597
1, 10907, Pitch_bend_c, 2, 8652
1, 10907, Pitch_bend_c, 4, 8652
1, 10920, Pitch_bend_c, 2, 8704
1, 10920, Pitch_bend_c, 4, 8704
1, 10920, Note_on_c, 9, 48, 85
1, 10980, Note_off_c, 9, 48, 64
1, 11039, Pitch_bend_c, 2, 8704
1, 11039, Pitch_bend_c, 4, 8704
1, 11040, Pitch_bend_c, 2, 8704
1, 11040, Pitch_bend_c, 4, 8704
1, 11040, Note_on_c, 9, 47, 92
1, 11100, Note_off_c, 9, 47, 64
1, 11160, Note_on_c, 9, 47, 98
1, 11220, Note_off_c, 9, 47, 64
1, 11280, Pitch_bend_c, 2, 8704
1, 11280, Pitch_bend_c, 4, 8704
1, 11280, Note_on_c, 9, 45, 105
1, 11294, Pitch_bend_c, 2, 8698
1, 11294, Pitch_bend_c, 4, 8698
1, 11309, Pitch_bend_c, 2, 8680
1, 11309, Pitch_bend_c, 4, 8680
1, 11323, Pitch_bend_c, 2, 8653
1, 11323, Pitch_bend_c, 4, 8653
1, 11337, Pitch_bend_c, 2, 8615
1, 11337, Pitch_bend_c, 4, 8615
1, 11340, Note_off_c, 9, 45, 64
1, 11351, Pitch_bend_c, 2, 8567
1, 11351, Pitch_bend_c, 4, 8567
1, 11365, Pitch_bend_c, 2, 8509
1, 11365, Pitch_bend_c, 4, 8509
1, 11380, Pitch_bend_c, 2, 8434
1, 11380, Pitch_bend_c, 4, 8434
1, 11394, Pitch_bend_c, 2, 8354
1, 11394, Pitch_bend_c, 4, 8354
1, 11400, Note_on_c, 9, 45, 112
1, 11408, Pitch_bend_c, 2, 8263
1, 11408, Pitch_bend_c, 4, 8263
1, 11422, Pitch_bend_c, 2, 8162
1, 11422, Pitch_bend_c, 4, 8162
1, 11436, Pitch_bend_c, 2, 8050
1, 11436, Pitch_bend_c, 4, 8050
1, 11451, Pitch_bend_c, 2, 7919
1, 11451, Pitch_bend_c, 4, 7919
1, 11460, Note_off_c, 9, 45, 64
1, 11465, Pitch_bend_c, 2, 7786
1, 11465, Pitch_bend_c, 4, 7786
1, 11479, Pitch_bend_c, 2, 7642
1, 11479, Pitch_bend_c, 4, 7642
1, 11493, Pitch_bend_c, 2, 7488
1, 11493, Pitch_bend_c, 4, 7488
1, 11507, Pitch_bend_c, 2, 7323
1, 11507, Pitch_bend_c, 4, 7323
1, 11520, Note_off_c, 2, 60, 64
1, 11520, Note_off_c, 2, 72, 64
1, 11520, Note_off_c, 4, 60, 64
1, 11520, Pitch_bend_c, 2, 7168
1, 11520, Pitch_bend_c, 4, 7168
1, 11520, Note_on_c, 0, 37, 100
1, 11520, Note_on_c, 0, 49, 100
1, 11520, Note_on_c, 1, 37, 100
1, 11520, Note_on_c, 1, 49, 100
1, 11520, Note_on_c, 3, 25, 100
1, 11520, Note_on_c, 9, 36, 100
1, 11520, Note_on_c, 9, 57, 100
1, 11640, Note_off_c, 9, 36, 64
1, 11640, Note_off_c, 9, 57, 64
1, 11760, Note_off_c, 0, 37, 64
1, 11760, Note_off_c, 0, 49, 64
1, 11760, Note_off_c, 1, 37, 64
1, 11760, Note_off_c, 1, 49, 64
1, 11760, Note_off_c, 3, 25, 64
1, 11760, Note_on_c, 0, 37, 100
1, 11760, Note_on_c, 0, 49, 100
1, 11760, Note_on_c, 1, 37, 100
1, 11760, Note_on_c, 1, 49, 100
1, 11760, Note_on_c, 3, 25, 100
1, 12120, Note_off_c, 0, 37, 64
1, 12120, Note_off_c, 0, 49, 64
1, 12120, Note_off_c, 1, 37, 64
1, 12120, Note_off_c, 1, 49, 64
1, 12120, Note_off_c, 3, 25, 64
1, 12480, Pitch_bend_c, 2, 8192
1, 12480, Pitch_bend_c, 4, 8192
1, 12480, Note_on_c, 9, 38, 86
1, 12480, Note_on_c, 2, 66, 100
1, 12480, Note_on_c, 2, 54, 100
1, 12480, Note_on_c, 4, 54, 100
1, 12600, Note_off_c, 9, 38, 64
1, 12600, Pitch_bend_c, 2, 8192
1, 12600, Pitch_bend_c, 4, 8192
1, 12614, Pitch_bend_c, 2, 8195
1, 12614, Pitch_bend_c, 4, 8195
1, 12628, Pitch_bend_c, 2, 8206
1, 12628, Pitch_bend_c, 4, 8206
1, 12642, Pitch_bend_c, 2, 8224
1, 12642, Pitch_bend_c, 4, 8224
1, 12657, Pitch_bend_c, 2, 8250
1, 12657, Pitch_bend_c, 4, 8250
1, 12671, Pitch_bend_c, 2, 8282
1, 12671, Pitch_bend_c, 4, 8282
1, 12685, Pitch_bend_c, 2, 8321
1, 12685, Pitch_bend_c, 4, 8321
1, 12691, Note_on_c, 9, 43, 74
1, 12699, Pitch_bend_c, 2, 8367
1, 12699, Pitch_bend_c, 4, 8367
1, 12713, Pitch_bend_c, 2, 8421
1, 12713, Pitch_bend_c, 4, 8421
1, 12720, Note_off_c, 9, 43, 64
1, 12720, Note_on_c, 9, 43, 100
1, 12728, Pitch_bend_c, 2, 8485
1, 12728, Pitch_bend_c, 4, 8485
1, 12742, Pitch_bend_c, 2, 8552
1, 12742, Pitch_bend_c, 4, 8552
1, 12756, Pitch_bend_c, 2, 8627
1, 12756, Pitch_bend_c, 4, 8627
1, 12770, Pitch_bend_c, 2, 8708
1, 12770, Pitch_bend_c, 4, 8708
1, 12784, Pitch_bend_c, 2, 8797
1, 12784, Pitch_bend_c, 4, 8797
1, 12799, Pitch_bend_c, 2, 8899
1, 12799, Pitch_bend_c, 4, 8899
1, 12813, Pitch_bend_c, 2, 9002
1, 12813, Pitch_bend_c, 4, 9002
1, 12827, Pitch_bend_c, 2, 9112
1, 12827, Pitch_bend_c, 4, 9112
1, 12840, Note_off_c, 9, 43, 64
1, 12840, Pitch_bend_c, 2, 9216
1, 12840, Pitch_bend_c, 4, 9216
1, 12840, Note_on_c, 9, 43, 106
1, 12936, Note_on_c, 9, 50, 76
1, 12951, Note_off_c, 9, 50, 64
1, 12960, Note_off_c, 9, 43, 64
1, 12960, Note_on_c, 9, 50, 95
1, 13080, Note_off_c, 9, 50, 64
1, 13080, Note_on_c, 9, 50, 89
1, 13200, Note_off_c, 9, 50, 64
1, 13200, Pitch_bend_c, 2, 9216
1, 13200, Pitch_bend_c, 4, 9216
1, 13200, Note_on_c, 9, 47, 83
1, 13214, Pitch_bend_c, 2, 9212
1, 13214, Pitch_bend_c, 4, 9212
1, 13228, Pitch_bend_c, 2, 9201
1, 13228, Pitch_bend_c, 4, 9201
1, 13243, Pitch_bend_c, 2, 9182
1, 13243, Pitch_bend_c, 4, 9182
1, 13257, Pitch_bend_c, 2, 9157
1, 13257, Pitch_bend_c, 4, 9157
1, 13271, Pitch_bend_c, 2, 9125
1, 13271, Pitch_bend_c, 4, 9125
1, 13285, Pitch_bend_c, 2, 9086
1, 13285, Pitch_bend_c, 4, 9086
1, 13299, Pitch_bend_c, 2, 9040
1, 13299, Pitch_bend_c, 4, 9040
1, 13314, Pitch_bend_c, 2, 8982
1, 13314, Pitch_bend_c, 4, 8982
1, 13320, Note_off_c, 9, 47, 64
1, 13328, Pitch_bend_c, 2, 8922
1, 13328, Pitch_bend_c, 4, 8922
1, 13342, Pitch_bend_c, 2, 8855
1, 13342, Pitch_bend_c, 4, 8855
1, 13356, Pitch_bend_c, 2, 8780
1, 13356, Pitch_bend_c, 4, 8780
1, 13370, Pitch_bend_c, 2, 8699
1, 13370, Pitch_bend_c, 4, 8699
1, 13385, Pitch_bend_c, 2, 8604
1, 13385, Pitch_bend_c, 4, 8604
1, 13399, Pitch_bend_c, 2, 8508
1, 13399, Pitch_bend_c, 4, 8508
1, 13413, Pitch_bend_c, 2, 8405
1, 13413, Pitch_bend_c, 4, 8405
1, 13427, Pitch_bend_c, 2, 8295
1, 13427, Pitch_bend_c, 4, 8295
1, 13440, Note_off_c, 2, 66, 64
1, 13440, Note_off_c, 2, 54, 64
1, 13440, Note_off_c, 4, 54, 64
1, 13440, Pitch_bend_c, 2, 8192
1, 13440, Pitch_bend_c, 4, 8192
1, 13440, Note_on_c, 0, 37, 100
1, 13440, Note_on_c, 0, 49, 100
1, 13440, Note_on_c, 1, 37, 100
1, 13440, Note_on_c, 1, 49, 100
1, 13440, Note_on_c, 3, 25, 100
1, 13440, Note_on_c, 9, 36, 100
1, 13440, Note_on_c, 9, 57, 100
1, 13560, Note_off_c, 9, 36, 64
1, 13560, Note_off_c, 9, 57, 64
1, 13680, Note_off_c, 0, 37, 64
1, 13680, Note_off_c, 0, 49, 64
1, 13680, Note_off_c, 1, 37, 64
1, 13680, Note_off_c, 1, 49, 64
1, 13680, Note_off_c, 3, 25, 64
1, 13680, Note_on_c, 0, 37, 100
1, 13680, Note_on_c, 0, 49, 100
1, 13680, Note_on_c, 1, 37, 100
1, 13680, Note_on_c, 1, 49, 100
1, 13680, Note_on_c, 3, 25, 100
1, 13920, Note_on_c, 9, 38, 92
1, 13980, Note_off_c, 9, 38, 64
1, 13980, Note_on_c, 9, 38, 84
1, 14040, Note_off_c, 0, 37, 64
1, 14040, Note_off_c, 0, 49, 64
1, 14040, Note_off_c, 1, 37, 64
1, 14040, Note_off_c, 1, 49, 64
1, 14040, Note_off_c, 3, 25, 64
1, 14040, Note_off_c, 9, 38, 64
1, 14040, Note_on_c, 9, 38, 77
1, 14100, Note_off_c, 9, 38, 64
1, 14100, Note_on_c, 9, 38, 70
1, 14160, Note_off_c, 9, 38, 64
1, 14160, Note_on_c, 9, 38, 70
1, 14220, Note_off_c, 9, 38, 64
1, 14220, Note_on_c, 9, 38, 70
1, 14280, Note_off_c, 9, 38, 64
1, 14280, Note_on_c, 9, 38, 70
1, 14340, Note_off_c, 9, 38, 64
1, 14340, Note_on_c, 9, 38, 68
1, 14400, Note_off_c, 9, 38, 64
1, 14400, Pitch_bend_c, 2, 8192
1, 14400, Pitch_bend_c, 4, 8192
1, 14400, Note_on_c, 2, 60, 100
1, 14400, Note_on_c, 2, 72, 100
1, 14400, Note_on_c, 4, 60, 100
1, 14400, Note_on_c, 9, 38, 88
1, 14460, Note_off_c, 9, 38, 64
1, 14460, Note_on_c, 9, 38, 79
1, 14520, Note_off_c, 9, 38, 64
1, 14520, Pitch_bend_c, 2, 8192
1, 14520, Pitch_bend_c, 4, 8192
1, 14520, Note_on_c, 9, 38, 69
1, 14522, Control_c, 2, 100, 0
1, 14522, Control_c, 2, 101, 0
1, 14522, Control_c, 4, 100, 0
1, 14522, Control_c, 4, 101, 0
1, 14523, Control_c, 2, 6, 16
1, 14523, Control_c, 4, 6, 16
1, 14534, Pitch_bend_c, 2, 8193
1, 14534, Pitch_bend_c, 4, 8193
1, 14548, Pitch_bend_c, 2, 8199
1, 14548, Pitch_bend_c, 4, 8199
1, 14563, Pitch_bend_c, 2, 8208
1, 14563, Pitch_bend_c, 4, 8208
1, 14577, Pitch_bend_c, 2, 8221
1, 14577, Pitch_bend_c, 4, 8221
1, 14580, Note_off_c, 9, 38, 64
1, 14580, Note_on_c, 9, 38, 68
1, 14591, Pitch_bend_c, 2, 8237
1, 14591, Pitch_bend_c, 4, 8237
1, 14605, Pitch_bend_c, 2, 8256
1, 14605, Pitch_bend_c, 4, 8256
1, 14619, Pitch_bend_c, 2, 8279
1, 14619, Pitch_bend_c, 4, 8279
1, 14634, Pitch_bend_c, 2, 8308
1, 14634, Pitch_bend_c, 4, 8308
1, 14640, Note_off_c, 9, 38, 64
1, 14640, Note_on_c, 9, 38, 72
1, 14648, Pitch_bend_c, 2, 8338
1, 14648, Pitch_bend_c, 4, 8338
1, 14662, Pitch_bend_c, 2, 8372
1, 14662, Pitch_bend_c, 4, 8372
1, 14676, Pitch_bend_c, 2, 8409
1, 14676, Pitch_bend_c, 4, 8409
1, 14690, Pitch_bend_c, 2, 8450
1, 14690, Pitch_bend_c, 4, 8450
1, 14700, Note_off_c, 9, 38, 64
1, 14700, Note_on_c, 9, 38, 76
1, 14705, Pitch_bend_c, 2, 8497
1, 14705, Pitch_bend_c, 4, 8497
1, 14719, Pitch_bend_c, 2, 8545
1, 14719, Pitch_bend_c, 4, 8545
1, 14733, Pitch_bend_c, 2, 8597
1, 14733, Pitch_bend_c, 4, 8597
1, 14747, Pitch_bend_c, 2, 8652
1, 14747, Pitch_bend_c, 4, 8652
1, 14760, Note_off_c, 9, 38, 64
1, 14760, Pitch_bend_c, 2, 8704
1, 14760, Pitch_bend_c, 4, 8704
1, 14760, Note_on_c, 9, 38, 81
1, 14820, Note_off_c, 9, 38, 64
1, 14820, Note_on_c, 9, 38, 85
1, 14879, Pitch_bend_c, 2, 8704
1, 14879, Pitch_bend_c, 4, 8704
1, 14880, Note_off_c, 9, 38, 64
1, 14880, Pitch_bend_c, 2, 8704
1, 14880, Pitch_bend_c, 4, 8704
1, 14880, Note_on_c, 9, 38, 100
1, 14960, Note_off_c, 9, 38, 64
1, 15120, Pitch_bend_c, 2, 8704
1, 15120, Pitch_bend_c, 4, 8704
1, 15134, Pitch_bend_c, 2, 8698
1, 15134, Pitch_bend_c, 4, 8698
1, 15148, Pitch_bend_c, 2, 8682
1, 15148, Pitch_bend_c, 4, 8682
1, 15162, Pitch_bend_c, 2, 8655
1, 15162, Pitch_bend_c, 4, 8655
1, 15177, Pitch_bend_c, 2, 8615
1, 15177, Pitch_bend_c, 4, 8615
1, 15191, Pitch_bend_c, 2, 8567
1, 15191, Pitch_bend_c, 4, 8567
1, 15205, Pitch_bend_c, 2, 8509
1, 15205, Pitch_bend_c, 4, 8509
1, 15219, Pitch_bend_c, 2, 8440
1, 15219, Pitch_bend_c, 4, 8440
1, 15233, Pitch_bend_c, 2, 8360
1, 15233, Pitch_bend_c, 4, 8360
1, 15248, Pitch_bend_c, 2, 8263
1, 15248, Pitch_bend_c, 4, 8263
1, 15262, Pitch_bend_c, 2, 8162
1, 15262, Pitch_bend_c, 4, 8162
1, 15276, Pitch_bend_c, 2, 8050
1, 15276, Pitch_bend_c, 4, 8050
1, 15290, Pitch_bend_c, 2, 7928
1, 15290, Pitch_bend_c, 4, 7928
1, 15304, Pitch_bend_c, 2, 7796
1, 15304, Pitch_bend_c, 4, 7796
1, 15319, Pitch_bend_c, 2, 7642
1, 15319, Pitch_bend_c, 4, 7642
1, 15333, Pitch_bend_c, 2, 7488
1, 15333, Pitch_bend_c, 4, 7488
1, 15347, Pitch_bend_c, 2, 7323
1, 15347, Pitch_bend_c, 4, 7323
1, 15360, Note_off_c, 4, 60, 64
1, 15360, Pitch_bend_c, 4, 8192
1, 15360, Note_off_c, 2, 60, 64
1, 15360, Note_off_c, 2, 72, 64
1, 15360, Pitch_bend_c, 2, 7168
1, 15360, Note_on_c, 0, 43, 100
1, 15360, Note_on_c, 0, 55, 100
1, 15360, Note_on_c, 1, 43, 100
1, 15360, Note_on_c, 1, 55, 100
1, 15360, Note_on_c, 3, 31, 100
1, 15360, Note_on_c, 9, 38, 100
1, 15360, Note_on_c, 9, 57, 80
1, 15480, Note_off_c, 9, 38, 64
1, 15480, Note_off_c, 9, 57, 64
1, 15600, Note_off_c, 0, 43, 64
1, 15600, Note_off_c, 0, 55, 64
1, 15600, Note_off_c, 1, 43, 64
1, 15600, Note_off_c, 1, 55, 64
1, 15600, Note_off_c, 3, 31, 64
1, 15600, Note_on_c, 0, 42, 100
1, 15600, Note_on_c, 0, 54, 100
1, 15600, Note_on_c, 1, 42, 100
1, 15600, Note_on_c, 1, 54, 100
1, 15600, Note_on_c, 3, 30, 100
1, 15600, Note_on_c, 9, 36, 100
1, 15720, Note_off_c, 9, 36, 64
1, 15840, Note_off_c, 0, 42, 64
1, 15840, Note_off_c, 0, 54, 64
1, 15840, Note_off_c, 1, 42, 64
1, 15840, Note_off_c, 1, 54, 64
1, 15840, Note_off_c, 3, 30, 64
1, 15840, Note_on_c, 0, 43, 100
1, 15840, Note_on_c, 0, 55, 100
1, 15840, Note_on_c, 1, 43, 100
1, 15840, Note_on_c, 1, 55, 100
1, 15840, Note_on_c, 3, 31, 100
1, 15840, Note_on_c, 9, 38, 100
1, 15840, Note_on_c, 9, 36, 100
1, 15840, Note_on_c, 9, 49, 70
1, 15960, Note_off_c, 9, 38, 64
1, 15960, Note_off_c, 9, 36, 64
1, 15960, Note_off_c, 9, 49, 64
1, 16080, Note_off_c, 0, 43, 64
1, 16080, Note_off_c, 0, 55, 64
1, 16080, Note_off_c, 1, 43, 64
1, 16080, Note_off_c, 1, 55, 64
1, 16080, Note_off_c, 3, 31, 64
1, 16080, Note_on_c, 0, 42, 100
1, 16080, Note_on_c, 0, 54, 100
1, 16080, Note_on_c, 1, 42, 100
1, 16080, Note_on_c, 1, 54, 100
1, 16080, Note_on_c, 3, 30, 100
1, 16320, Note_off_c, 0, 42, 64
1, 16320, Note_off_c, 0, 54, 64
1, 16320, Note_off_c, 1, 42, 64
1, 16320, Note_off_c, 1, 54, 64
1, 16320, Note_off_c, 3, 30, 64
1, 16320, Note_on_c, 9, 38, 100
1, 16320, Note_on_c, 0, 43, 100
1, 16320, Note_on_c, 0, 55, 100
1, 16320, Note_on_c, 1, 43, 100
1, 16320, Note_on_c, 1, 55, 100
1, 16320, Note_on_c, 3, 31, 100
1, 16320, Note_on_c, 9, 57, 88
1, 16440, Note_off_c, 9, 38, 64
1, 16440, Note_off_c, 9, 57, 64
1, 16560, Note_off_c, 0, 43, 64
1, 16560, Note_off_c, 0, 55, 64
1, 16560, Note_off_c, 1, 43, 64
1, 16560, Note_off_c, 1, 55, 64
1, 16560, Note_off_c, 3, 31, 64
1, 16560, Note_on_c, 0, 42, 100
1, 16560, Note_on_c, 0, 54, 100
1, 16560, Note_on_c, 1, 42, 100
1, 16560, Note_on_c, 1, 54, 100
1, 16560, Note_on_c, 3, 30, 100
1, 16800, Note_off_c, 0, 42, 64
1, 16800, Note_off_c, 0, 54, 64
1, 16800, Note_off_c, 1, 42, 64
1, 16800, Note_off_c, 1, 54, 64
1, 16800, Note_off_c, 3, 30, 64
1, 16800, Note_on_c, 0, 40, 100
1, 16800, Note_on_c, 0, 52, 100
1, 16800, Note_on_c, 1, 40, 100
1, 16800, Note_on_c, 1, 52, 100
1, 16800, Note_on_c, 3, 29, 100
1, 16800, Note_on_c, 9, 38, 104
1, 16920, Note_off_c, 9, 38, 64
1, 16920, Note_on_c, 9, 38, 90
1, 17040, Note_off_c, 9, 38, 64
1, 17040, Note_on_c, 9, 38, 76
1, 17160, Note_off_c, 9, 38, 64
1, 17160, Note_on_c, 9, 38, 88
1, 17280, Pitch_bend_c, 2, 8192
1, 17280, Note_off_c, 0, 40, 64
1, 17280, Note_off_c, 0, 52, 64
1, 17280, Note_off_c, 1, 40, 64
1, 17280, Note_off_c, 1, 52, 64
1, 17280, Note_off_c, 3, 29, 64
1, 17280, Note_off_c, 9, 38, 64
1, 17280, Note_on_c, 0, 37, 100
1, 17280, Note_on_c, 0, 49, 100
1, 17280, Note_on_c, 1, 37, 100
1, 17280, Note_on_c, 1, 49, 100
1, 17280, Note_on_c, 3, 25, 100
1, 17280, Note_on_c, 9, 36, 100
1, 17280, Note_on_c, 9, 57, 100
1, 17400, Note_off_c, 0, 37, 64
1, 17400, Note_off_c, 0, 49, 64
1, 17400, Note_off_c, 1, 37, 64
1, 17400, Note_off_c, 1, 49, 64
1, 17400, Note_off_c, 9, 36, 64
1, 17400, Note_off_c, 9, 57, 64
1, 17520, Note_off_c, 3, 25, 64
1, 17520, Note_on_c, 0, 37, 100
1, 17520, Note_on_c, 0, 49, 100
1, 17520, Note_on_c, 1, 37, 100
1, 17520, Note_on_c, 1, 49, 100
1, 17520, Note_on_c, 3, 25, 100
1, 17520, Note_on_c, 9, 36, 80
1, 17640, Note_off_c, 0, 37, 64
1, 17640, Note_off_c, 0, 49, 64
1, 17640, Note_off_c, 1, 37, 64
1, 17640, Note_off_c, 1, 49, 64
1, 17640, Note_off_c, 9, 36, 64
1, 17760, Note_off_c, 3, 25, 64
1, 17760, Note_on_c, 0, 40, 100
1, 17760, Note_on_c, 0, 52, 100
1, 17760, Note_on_c, 1, 40, 100
1, 17760, Note_on_c, 1, 52, 100
1, 17760, Note_on_c, 3, 28, 100
1, 17760, Note_on_c, 9, 38, 100
1, 17760, Note_on_c, 9, 46, 90
1, 17880, Note_off_c, 9, 38, 64
1, 17880, Note_off_c, 9, 46, 64
1, 18000, Note_off_c, 3, 28, 64
1, 18000, Pitch_bend_c, 0, 3840
1, 18000, Pitch_bend_c, 0, 3840
1, 18000, Pitch_bend_c, 1, 3840
1, 18000, Pitch_bend_c, 1, 3840
1, 18000, Note_on_c, 3, 27, 100
1, 18239, Pitch_bend_c, 0, 3840
1, 18239, Pitch_bend_c, 0, 3840
1, 18239, Pitch_bend_c, 1, 3840
1, 18239, Pitch_bend_c, 1, 3840
1, 18240, Note_off_c, 0, 40, 64
1, 18240, Note_off_c, 0, 52, 64
1, 18240, Note_off_c, 1, 40, 64
1, 18240, Note_off_c, 1, 52, 64
1, 18240, Note_off_c, 3, 27, 64
1, 18240, Pitch_bend_c, 0, 8192
1, 18240, Pitch_bend_c, 1, 8192
1, 18240, Note_on_c, 9, 36, 100
1, 18240, Note_on_c, 3, 25, 100
1, 18240, Note_on_c, 0, 37, 100
1, 18240, Pitch_bend_c, 0, 8192
1, 18240, Note_on_c, 1, 37, 100
1, 18240, Pitch_bend_c, 1, 8192
1, 18240, Note_on_c, 0, 49, 100
1, 18240, Note_on_c, 1, 49, 100
1, 18240, Note_on_c, 9, 46, 70
1, 18360, Note_off_c, 9, 36, 64
1, 18360, Note_off_c, 0, 37, 64
1, 18360, Note_off_c, 1, 37, 64
1, 18360, Note_off_c, 0, 49, 64
1, 18360, Note_off_c, 1, 49, 64
1, 18360, Note_off_c, 9, 46, 64
1, 18480, Note_off_c, 3, 25, 64
1, 18480, Note_on_c, 3, 25, 100
1, 18480, Note_on_c, 0, 37, 100
1, 18480, Note_on_c, 0, 49, 100
1, 18480, Note_on_c, 1, 37, 100
1, 18480, Note_on_c, 1, 49, 100
1, 18480, Note_on_c, 9, 36, 80
1, 18600, Note_off_c, 0, 37, 64
1, 18600, Note_off_c, 0, 49, 64
1, 18600, Note_off_c, 1, 37, 64
1, 18600, Note_off_c, 1, 49, 64
1, 18600, Note_off_c, 9, 36, 64
1, 18720, Note_off_c, 3, 25, 64
1, 18720, Note_on_c, 3, 30, 100
1, 18720, Note_on_c, 0, 42, 100
1, 18720, Note_on_c, 0, 54, 100
1, 18720, Note_on_c, 1, 42, 100
1, 18720, Note_on_c, 1, 54, 100
1, 18720, Note_on_c, 9, 38, 100
1, 18720, Note_on_c, 9, 46, 90
1, 18840, Note_off_c, 9, 38, 64
1, 18840, Note_off_c, 9, 46, 64
1, 18960, Note_off_c, 3, 30, 64
1, 18960, Pitch_bend_c, 0, 256
1, 18960, Pitch_bend_c, 0, 256
1, 18960, Pitch_bend_c, 1, 256
1, 18960, Pitch_bend_c, 1, 256
1, 18960, Note_on_c, 3, 28, 100
1, 19199, Pitch_bend_c, 0, 256
1, 19199, Pitch_bend_c, 0, 256
1, 19199, Pitch_bend_c, 1, 256
1, 19199, Pitch_bend_c, 1, 256
1, 19200, Note_off_c, 0, 42, 64
1, 19200, Note_off_c, 0, 54, 64
1, 19200, Note_off_c, 1, 42, 64
1, 19200, Note_off_c, 1, 54, 64
1, 19200, Note_off_c, 3, 28, 64
1, 19200, Pitch_bend_c, 0, 8192
1, 19200, Pitch_bend_c, 1, 8192
1, 19200, Note_on_c, 9, 36, 100
1, 19200, Note_on_c, 3, 25, 100
1, 19200, Note_on_c, 0, 37, 100
1, 19200, Pitch_bend_c, 0, 8192
1, 19200, Note_on_c, 1, 37, 100
1, 19200, Pitch_bend_c, 1, 8192
1, 19200, Note_on_c, 0, 49, 100
1, 19200, Note_on_c, 1, 49, 100
1, 19200, Note_on_c, 9, 46, 70
1, 19320, Note_off_c, 9, 36, 64
1, 19320, Note_off_c, 0, 37, 64
1, 19320, Note_off_c, 1, 37, 64
1, 19320, Note_off_c, 0, 49, 64
1, 19320, Note_off_c, 1, 49, 64
1, 19320, Note_off_c, 9, 46, 64
1, 19440, Note_off_c, 3, 25, 64
1, 19440, Note_on_c, 3, 25, 100
1, 19440, Note_on_c, 0, 37, 100
1, 19440, Note_on_c, 0, 49, 100
1, 19440, Note_on_c, 1, 37, 100
1, 19440, Note_on_c, 1, 49, 100
1, 19440, Note_on_c, 9, 36, 80
1, 19560, Note_off_c, 0, 37, 64
1, 19560, Note_off_c, 0, 49, 64
1, 19560, Note_off_c, 1, 37, 64
1, 19560, Note_off_c, 1, 49, 64
1, 19560, Note_off_c, 9, 36, 64
1, 19680, Note_off_c, 3, 25, 64
1, 19680, Note_on_c, 3, 32, 100
1, 19680, Note_on_c, 0, 44, 100
1, 19680, Note_on_c, 0, 56, 100
1, 19680, Note_on_c, 1, 44, 100
1, 19680, Note_on_c, 1, 56, 100
1, 19680, Note_on_c, 9, 38, 100
1, 19680, Note_on_c, 9, 46, 90
1, 19800, Note_off_c, 9, 38, 64
1, 19800, Note_off_c, 9, 46, 64
1, 19920, Note_off_c, 3, 32, 64
1, 19920, Note_off_c, 0, 44, 64
1, 19920, Note_off_c, 0, 56, 64
1, 19920, Note_off_c, 1, 44, 64
1, 19920, Note_off_c, 1, 56, 64
1, 19920, Note_on_c, 3, 25, 100
1, 19920, Note_on_c, 0, 49, 80
1, 19920, Note_on_c, 0, 37, 80
1, 19920, Note_on_c, 1, 49, 80
1, 19920, Note_on_c, 1, 37, 80
1, 20040, Note_off_c, 0, 49, 64
1, 20040, Note_off_c, 0, 37, 64
1, 20040, Note_off_c, 1, 49, 64
1, 20040, Note_off_c, 1, 37, 64
1, 20160, Note_off_c, 3, 25, 64
1, 20160, Note_on_c, 9, 36, 100
1, 20160, Note_on_c, 3, 28, 100
1, 20160, Note_on_c, 0, 40, 100
1, 20160, Note_on_c, 0, 52, 100
1, 20160, Note_on_c, 1, 40, 100
1, 20160, Note_on_c, 1, 52, 100
1, 20160, Note_on_c, 9, 46, 70
1, 20280, Note_off_c, 9, 36, 64
1, 20280, Note_off_c, 9, 46, 64
1, 20400, Note_off_c, 3, 28, 64
1, 20400, Pitch_bend_c, 0, 3840
1, 20400, Pitch_bend_c, 0, 3840
1, 20400, Pitch_bend_c, 1, 3840
1, 20400, Pitch_bend_c, 1, 3840
1, 20400, Note_on_c, 3, 27, 100
1, 20400, Note_on_c, 9, 36, 80
1, 20520, Note_off_c, 9, 36, 64
1, 20639, Pitch_bend_c, 0, 3840
1, 20639, Pitch_bend_c, 0, 3840
1, 20639, Pitch_bend_c, 1, 3840
1, 20639, Pitch_bend_c, 1, 3840
1, 20640, Note_off_c, 0, 40, 64
1, 20640, Note_off_c, 0, 52, 64
1, 20640, Note_off_c, 1, 40, 64
1, 20640, Note_off_c, 1, 52, 64
1, 20640, Note_off_c, 3, 27, 64
1, 20640, Note_on_c, 3, 24, 100
1, 20640, Note_on_c, 9, 38, 100
1, 20640, Note_on_c, 9, 46, 90
1, 20640, Pitch_bend_c, 0, 8192
1, 20640, Pitch_bend_c, 0, 8192
1, 20640, Note_on_c, 0, 49, 80
1, 20640, Note_on_c, 0, 37, 80
1, 20640, Pitch_bend_c, 1, 8192
1, 20640, Pitch_bend_c, 1, 8192
1, 20640, Note_on_c, 1, 49, 80
1, 20640, Note_on_c, 1, 37, 80
1, 20760, Note_off_c, 9, 38, 64
1, 20760, Note_off_c, 9, 46, 64
1, 20760, Note_off_c, 0, 49, 64
1, 20760, Note_off_c, 0, 37, 64
1, 20760, Note_off_c, 1, 49, 64
1, 20760, Note_off_c, 1, 37, 64
1, 20880, Note_off_c, 3, 24, 64
1, 20880, Note_on_c, 3, 28, 100
1, 20880, Note_on_c, 0, 40, 100
1, 20880, Note_on_c, 0, 52, 100
1, 20880, Note_on_c, 1, 40, 100
1, 20880, Note_on_c, 1, 52, 100
1, 21120, Note_off_c, 3, 28, 64
1, 21120, Note_off_c, 0, 40, 64
1, 21120, Note_off_c, 0, 52, 64
1, 21120, Note_off_c, 1, 40, 64
1, 21120, Note_off_c, 1, 52, 64
1, 21120, Note_on_c, 9, 36, 100
1, 21120, Note_on_c, 3, 25, 100
1, 21120, Note_on_c, 0, 37, 100
1, 21120, Note_on_c, 0, 49, 100
1, 21120, Note_on_c, 1, 37, 100
1, 21120, Note_on_c, 1, 49, 100
1, 21120, Note_on_c, 9, 46, 70
1, 21240, Note_off_c, 9, 36, 64
1, 21240, Note_off_c, 0, 37, 64
1, 21240, Note_off_c, 0, 49, 64
1, 21240, Note_off_c, 1, 37, 64
1, 21240, Note_off_c, 1, 49, 64
1, 21240, Note_off_c, 9, 46, 64
1, 21360, Note_off_c, 3, 25, 64
1, 21360, Note_on_c, 3, 25, 100
1, 21360, Note_on_c, 0, 37, 100
1, 21360, Note_on_c, 0, 49, 100
1, 21360, Note_on_c, 1, 37, 100
1, 21360, Note_on_c, 1, 49, 100
1, 21360, Note_on_c, 9, 36, 80
1, 21480, Note_off_c, 0, 37, 64
1, 21480, Note_off_c, 0, 49, 64
1, 21480, Note_off_c, 1, 37, 64
1, 21480, Note_off_c, 1, 49, 64
1, 21480, Note_off_c, 9, 36, 64
1, 21600, Note_off_c, 3, 25, 64
1, 21600, Note_on_c, 3, 28, 100
1, 21600, Note_on_c, 0, 40, 100
1, 21600, Note_on_c, 0, 52, 100
1, 21600, Note_on_c, 1, 40, 100
1, 21600, Note_on_c, 1, 52, 100
1, 21600, Note_on_c, 9, 38, 100
1, 21600, Note_on_c, 9, 46, 90
1, 21720, Note_off_c, 9, 38, 64
1, 21720, Note_off_c, 9, 46, 64
1, 21840, Note_off_c, 3, 28, 64
1, 21840, Pitch_bend_c, 0, 3840
1, 21840, Pitch_bend_c, 0, 3840
1, 21840, Pitch_bend_c, 1, 3840
1, 21840, Pitch_bend_c, 1, 3840
1, 21840, Note_on_c, 3, 27, 100
1, 22079, Pitch_bend_c, 0, 3840
1, 22079, Pitch_bend_c, 0, 3840
1, 22079, Pitch_bend_c, 1, 3840
1, 22079, Pitch_bend_c, 1, 3840
1, 22080, Note_off_c, 0, 40, 64
1, 22080, Note_off_c, 0, 52, 64
1, 22080, Note_off_c, 1, 40, 64
1, 22080, Note_off_c, 1, 52, 64
1, 22080, Note_off_c, 3, 27, 64
1, 22080, Pitch_bend_c, 0, 8192
1, 22080, Pitch_bend_c, 1, 8192
1, 22080, Note_on_c, 9, 36, 100
1, 22080, Note_on_c, 3, 25, 100
1, 22080, Note_on_c, 0, 37, 100
1, 22080, Pitch_bend_c, 0, 8192
1, 22080, Note_on_c, 1, 37, 100
1, 22080, Pitch_bend_c, 1, 8192
1, 22080, Note_on_c, 0, 49, 100
1, 22080, Note_on_c, 1, 49, 100
1, 22080, Note_on_c, 9, 46, 70
1, 22200, Note_off_c, 9, 36, 64
1, 22200, Note_off_c, 0, 37, 64
1, 22200, Note_off_c, 1, 37, 64
1, 22200, Note_off_c, 0, 49, 64
1, 22200, Note_off_c, 1, 49, 64
1, 22200, Note_off_c, 9, 46, 64
1, 22320, Note_off_c, 3, 25, 64
1, 22320, Note_on_c, 3, 25, 100
1, 22320, Note_on_c, 0, 37, 100
1, 22320, Note_on_c, 0, 49, 100
1, 22320, Note_on_c, 1, 37, 100
1, 22320, Note_on_c, 1, 49, 100
1, 22320, Note_on_c, 9, 36, 80
1, 22440, Note_off_c, 0, 37, 64
1, 22440, Note_off_c, 0, 49, 64
1, 22440, Note_off_c, 1, 37, 64
1, 22440, Note_off_c, 1, 49, 64
1, 22440, Note_off_c, 9, 36, 64
1, 22560, Note_off_c, 3, 25, 64
1, 22560, Note_on_c, 3, 30, 100
1, 22560, Note_on_c, 0, 42, 100
1, 22560, Note_on_c, 0, 54, 100
1, 22560, Note_on_c, 1, 42, 100
1, 22560, Note_on_c, 1, 54, 100
1, 22560, Note_on_c, 9, 38, 100
1, 22560, Note_on_c, 9, 46, 90
1, 22680, Note_off_c, 9, 38, 64
1, 22680, Note_off_c, 9, 46, 64
1, 22800, Note_off_c, 3, 30, 64
1, 22800, Pitch_bend_c, 0, 256
1, 22800, Pitch_bend_c, 0, 256
1, 22800, Pitch_bend_c, 1, 256
1, 22800, Pitch_bend_c, 1, 256
1, 22800, Note_on_c, 3, 28, 100
1, 23039, Pitch_bend_c, 0, 256
1, 23039, Pitch_bend_c, 0, 256
1, 23039, Pitch_bend_c, 1, 256
1, 23039, Pitch_bend_c, 1, 256
1, 23040, Note_off_c, 0, 42, 64
1, 23040, Note_off_c, 0, 54, 64
1, 23040, Note_off_c, 1, 42, 64
1, 23040, Note_off_c, 1, 54, 64
1, 23040, Note_off_c, 3, 28, 64
1, 23040, Pitch_bend_c, 0, 8192
1, 23040, Pitch_bend_c, 1, 8192
1, 23040, Note_on_c, 9, 36, 100
1, 23040, Note_on_c, 3, 25, 100
1, 23040, Note_on_c, 0, 37, 100
1, 23040, Pitch_bend_c, 0, 8192
1, 23040, Note_on_c, 1, 37, 100
1, 23040, Pitch_bend_c, 1, 8192
1, 23040, Note_on_c, 0, 49, 100
1, 23040, Note_on_c, 1, 49, 100
1, 23040, Note_on_c, 9, 46, 70
1, 23160, Note_off_c, 9, 36, 64
1, 23160, Note_off_c, 0, 37, 64
1, 23160, Note_off_c, 1, 37, 64
1, 23160, Note_off_c, 0, 49, 64
1, 23160, Note_off_c, 1, 49, 64
1, 23160, Note_off_c, 9, 46, 64
1, 23280, Note_off_c, 3, 25, 64
1, 23280, Note_on_c, 3, 25, 100
1, 23280, Note_on_c, 0, 37, 100
1, 23280, Note_on_c, 0, 49, 100
1, 23280, Note_on_c, 1, 37, 100
1, 23280, Note_on_c, 1, 49, 100
1, 23280, Note_on_c, 9, 36, 80
1, 23400, Note_off_c, 0, 37, 64
1, 23400, Note_off_c, 0, 49, 64
1, 23400, Note_off_c, 1, 37, 64
1, 23400, Note_off_c, 1, 49, 64
1, 23400, Note_off_c, 9, 36, 64
1, 23520, Note_off_c, 3, 25, 64
1, 23520, Note_on_c, 3, 32, 100
1, 23520, Note_on_c, 0, 44, 100
1, 23520, Note_on_c, 0, 56, 100
1, 23520, Note_on_c, 1, 44, 100
1, 23520, Note_on_c, 1, 56, 100
1, 23520, Note_on_c, 9, 38, 100
1, 23520, Note_on_c, 9, 46, 90
1, 23640, Note_off_c, 9, 38, 64
1, 23640, Note_off_c, 9, 46, 64
1, 23760, Note_off_c, 3, 32, 64
1, 23760, Note_off_c, 0, 44, 64
1, 23760, Note_off_c, 0, 56, 64
1, 23760, Note_off_c, 1, 44, 64
1, 23760, Note_off_c, 1, 56, 64
1, 23760, Note_on_c, 3, 25, 100
1, 23760, Note_on_c, 0, 49, 80
1, 23760, Note_on_c, 0, 37, 80
1, 23760, Note_on_c, 1, 49, 80
1, 23760, Note_on_c, 1, 37, 80
1, 23880, Note_off_c, 0, 49, 64
1, 23880, Note_off_c, 0, 37, 64
1, 23880, Note_off_c, 1, 49, 64
1, 23880, Note_off_c, 1, 37, 64
1, 24000, Note_off_c, 3, 25, 64
1, 24000, Note_on_c, 9, 36, 100
1, 24000, Note_on_c, 3, 31, 100
1, 24000, Note_on_c, 0, 55, 100
1, 24000, Note_on_c, 0, 43, 100
1, 24000, Note_on_c, 1, 55, 100
1, 24000, Note_on_c, 1, 43, 100
1, 24000, Note_on_c, 9, 46, 70
1, 24120, Note_off_c, 9, 36, 64
1, 24120, Note_off_c, 9, 46, 64
1, 24240, Note_off_c, 3, 31, 64
1, 24240, Note_off_c, 0, 55, 64
1, 24240, Note_off_c, 0, 43, 64
1, 24240, Note_off_c, 1, 55, 64
1, 24240, Note_off_c, 1, 43, 64
1, 24240, Note_on_c, 3, 28, 100
1, 24240, Note_on_c, 0, 52, 100
1, 24240, Note_on_c, 0, 40, 100
1, 24240, Note_on_c, 1, 52, 100
1, 24240, Note_on_c, 1, 40, 100
1, 24240, Note_on_c, 9, 36, 80
1, 24360, Note_off_c, 9, 36, 64
1, 24480, Note_on_c, 9, 38, 100
1, 24480, Note_on_c, 9, 46, 90
1, 24600, Note_off_c, 9, 38, 64
1, 24600, Note_off_c, 9, 46, 64
1, 24960, Note_off_c, 3, 28, 64
1, 24960, Note_off_c, 0, 52, 64
1, 24960, Note_off_c, 0, 40, 64
1, 24960, Note_off_c, 1, 52, 64
1, 24960, Note_off_c, 1, 40, 64
1, 24960, Note_on_c, 3, 25, 100
1, 24960, Note_on_c, 0, 37, 100
1, 24960, Note_on_c, 0, 49, 100
1, 24960, Note_on_c, 1, 37, 100
1, 24960, Note_on_c, 1, 49, 100
1, 24960, Note_on_c, 9, 36, 100
1, 24960, Note_on_c, 9, 46, 70
1, 25080, Note_off_c, 0, 37, 64
1, 25080, Note_off_c, 0, 49, 64
1, 25080, Note_off_c, 1, 37, 64
1, 25080, Note_off_c, 1, 49, 64
1, 25080, Note_off_c, 9, 36, 64
1, 25080, Note_off_c, 9, 46, 64
1, 25200, Note_off_c, 3, 25, 64
1, 25200, Note_on_c, 3, 25, 100
1, 25200, Note_on_c, 0, 37, 100
1, 25200, Note_on_c, 0, 49, 100
1, 25200, Note_on_c, 1, 37, 100
1, 25200, Note_on_c, 1, 49, 100
1, 25200, Note_on_c, 9, 36, 80
1, 25320, Note_off_c, 0, 37, 64
1, 25320, Note_off_c, 0, 49, 64
1, 25320, Note_off_c, 1, 37, 64
1, 25320, Note_off_c, 1, 49, 64
1, 25320, Note_off_c, 9, 36, 64
1, 25440, Note_off_c, 3, 25, 64
1, 25440, Note_on_c, 3, 28, 100
1, 25440, Note_on_c, 0, 40, 100
1, 25440, Note_on_c, 0, 52, 100
1, 25440, Note_on_c, 1, 40, 100
1, 25440, Note_on_c, 1, 52, 100
1, 25440, Note_on_c, 9, 38, 100
1, 25440, Note_on_c, 9, 46, 90
1, 25560, Note_off_c, 9, 38, 64
1, 25560, Note_off_c, 9, 46, 64
1, 25680, Note_off_c, 3, 28, 64
1, 25680, Pitch_bend_c, 0, 3840
1, 25680, Pitch_bend_c, 0, 3840
1, 25680, Pitch_bend_c, 1, 3840
1, 25680, Pitch_bend_c, 1, 3840
1, 25680, Note_on_c, 3, 27, 100
1, 25919, Pitch_bend_c, 0, 3840
1, 25919, Pitch_bend_c, 0, 3840
1, 25919, Pitch_bend_c, 1, 3840
1, 25919, Pitch_bend_c, 1, 3840
1, 25920, Note_off_c, 0, 40, 64
1, 25920, Note_off_c, 0, 52, 64
1, 25920, Note_off_c, 1, 40, 64
1, 25920, Note_off_c, 1, 52, 64
1, 25920, Note_off_c, 3, 27, 64
1, 25920, Pitch_bend_c, 0, 8192
1, 25920, Pitch_bend_c, 1, 8192
1, 25920, Note_on_c, 9, 36, 100
1, 25920, Note_on_c, 3, 25, 100
1, 25920, Note_on_c, 0, 37, 100
1, 25920, Pitch_bend_c, 0, 8192
1, 25920, Note_on_c, 1, 37, 100
1, 25920, Pitch_bend_c, 1, 8192
1, 25920, Note_on_c, 0, 49, 100
1, 25920, Note_on_c, 1, 49, 100
1, 25920, Note_on_c, 9, 46, 70
1, 26040, Note_off_c, 9, 36, 64
1, 26040, Note_off_c, 0, 37, 64
1, 26040, Note_off_c, 1, 37, 64
1, 26040, Note_off_c, 0, 49, 64
1, 26040, Note_off_c, 1, 49, 64
1, 26040, Note_off_c, 9, 46, 64
1, 26160, Note_off_c, 3, 25, 64
1, 26160, Note_on_c, 3, 25, 100
1, 26160, Note_on_c, 0, 37, 100
1, 26160, Note_on_c, 0, 49, 100
1, 26160, Note_on_c, 1, 37, 100
1, 26160, Note_on_c, 1, 49, 100
1, 26160, Note_on_c, 9, 36, 80
1, 26280, Note_off_c, 0, 37, 64
1, 26280, Note_off_c, 0, 49, 64
1, 26280, Note_off_c, 1, 37, 64
1, 26280, Note_off_c, 1, 49, 64
1, 26280, Note_off_c, 9, 36, 64
1, 26400, Note_off_c, 3, 25, 64
1, 26400, Note_on_c, 3, 30, 100
1, 26400, Note_on_c, 0, 42, 100
1, 26400, Note_on_c, 0, 54, 100
1, 26400, Note_on_c, 1, 42, 100
1, 26400, Note_on_c, 1, 54, 100
1, 26400, Note_on_c, 9, 38, 100
1, 26400, Note_on_c, 9, 46, 90
1, 26520, Note_off_c, 9, 38, 64
1, 26520, Note_off_c, 9, 46, 64
1, 26640, Note_off_c, 3, 30, 64
1, 26640, Pitch_bend_c, 0, 256
1, 26640, Pitch_bend_c, 0, 256
1, 26640, Pitch_bend_c, 1, 256
1, 26640, Pitch_bend_c, 1, 256
1, 26640, Note_on_c, 3, 28, 100
1, 26879, Pitch_bend_c, 0, 256
1, 26879, Pitch_bend_c, 0, 256
1, 26879, Pitch_bend_c, 1, 256
1, 26879, Pitch_bend_c, 1, 256
1, 26880, Note_off_c, 0, 42, 64
1, 26880, Note_off_c, 0, 54, 64
1, 26880, Note_off_c, 1, 42, 64
1, 26880, Note_off_c, 1, 54, 64
1, 26880, Note_off_c, 3, 28, 64
1, 26880, Pitch_bend_c, 0, 8192
1, 26880, Pitch_bend_c, 1, 8192
1, 26880, Note_on_c, 9, 36, 100
1, 26880, Note_on_c, 3, 25, 100
1, 26880, Note_on_c, 0, 37, 100
1, 26880, Pitch_bend_c, 0, 8192
1, 26880, Note_on_c, 1, 37, 100
1, 26880, Pitch_bend_c, 1, 8192
1, 26880, Note_on_c, 0, 49, 100
1, 26880, Note_on_c, 1, 49, 100
1, 26880, Note_on_c, 9, 46, 70
1, 27000, Note_off_c, 9, 36, 64
1, 27000, Note_off_c, 0, 37, 64
1, 27000, Note_off_c, 1, 37, 64
1, 27000, Note_off_c, 0, 49, 64
1, 27000, Note_off_c, 1, 49, 64
1, 27000, Note_off_c, 9, 46, 64
1, 27120, Note_off_c, 3, 25, 64
1, 27120, Note_on_c, 3, 25, 100
1, 27120, Note_on_c, 0, 37, 100
1, 27120, Note_on_c, 0, 49, 100
1, 27120, Note_on_c, 1, 37, 100
1, 27120, Note_on_c, 1, 49, 100
1, 27120, Note_on_c, 9, 36, 80
1, 27240, Note_off_c, 0, 37, 64
1, 27240, Note_off_c, 0, 49, 64
1, 27240, Note_off_c, 1, 37, 64
1, 27240, Note_off_c, 1, 49, 64
1, 27240, Note_off_c, 9, 36, 64
1, 27360, Note_off_c, 3, 25, 64
1, 27360, Note_on_c, 3, 32, 100
1, 27360, Note_on_c, 0, 44, 100
1, 27360, Note_on_c, 0, 56, 100
1, 27360, Note_on_c, 1, 44, 100
1, 27360, Note_on_c, 1, 56, 100
1, 27360, Note_on_c, 9, 38, 100
1, 27360, Note_on_c, 9, 46, 90
1, 27480, Note_off_c, 9, 38, 64
1, 27480, Note_off_c, 9, 46, 64
1, 27600, Note_off_c, 3, 32, 64
1, 27600, Note_off_c, 0, 44, 64
1, 27600, Note_off_c, 0, 56, 64
1, 27600, Note_off_c, 1, 44, 64
1, 27600, Note_off_c, 1, 56, 64
1, 27600, Note_on_c, 3, 25, 100
1, 27600, Note_on_c, 0, 49, 80
1, 27600, Note_on_c, 0, 37, 80
1, 27600, Note_on_c, 1, 49, 80
1, 27600, Note_on_c, 1, 37, 80
1, 27720, Note_off_c, 0, 49, 64
1, 27720, Note_off_c, 0, 37, 64
1, 27720, Note_off_c, 1, 49, 64
1, 27720, Note_off_c, 1, 37, 64
1, 27840, Note_off_c, 3, 25, 64
1, 27840, Note_on_c, 9, 36, 100
1, 27840, Note_on_c, 3, 28, 100
1, 27840, Note_on_c, 0, 40, 100
1, 27840, Note_on_c, 0, 52, 100
1, 27840, Note_on_c, 1, 40, 100
1, 27840, Note_on_c, 1, 52, 100
1, 27840, Note_on_c, 9, 46, 70
1, 27960, Note_off_c, 9, 36, 64
1, 27960, Note_off_c, 9, 46, 64
1, 28080, Note_off_c, 3, 28, 64
1, 28080, Pitch_bend_c, 0, 3840
1, 28080, Pitch_bend_c, 0, 3840
1, 28080, Pitch_bend_c, 1, 3840
1, 28080, Pitch_bend_c, 1, 3840
1, 28080, Note_on_c, 3, 27, 100
1, 28080, Note_on_c, 9, 36, 80
1, 28200, Note_off_c, 9, 36, 64
1, 28319, Pitch_bend_c, 0, 3840
1, 28319, Pitch_bend_c, 0, 3840
1, 28319, Pitch_bend_c, 1, 3840
1, 28319, Pitch_bend_c, 1, 3840
1, 28320, Note_off_c, 0, 40, 64
1, 28320, Note_off_c, 0, 52, 64
1, 28320, Note_off_c, 1, 40, 64
1, 28320, Note_off_c, 1, 52, 64
1, 28320, Note_off_c, 3, 27, 64
1, 28320, Note_on_c, 3, 24, 100
1, 28320, Note_on_c, 9, 38, 100
1, 28320, Note_on_c, 9, 46, 90
1, 28320, Pitch_bend_c, 0, 8192
1, 28320, Pitch_bend_c, 0, 8192
1, 28320, Note_on_c, 0, 49, 80
1, 28320, Note_on_c, 0, 37, 80
1, 28320, Pitch_bend_c, 1, 8192
1, 28320, Pitch_bend_c, 1, 8192
1, 28320, Note_on_c, 1, 49, 80
1, 28320, Note_on_c, 1, 37, 80
1, 28440, Note_off_c, 9, 38, 64
1, 28440, Note_off_c, 9, 46, 64
1, 28440, Note_off_c, 0, 49, 64
1, 28440, Note_off_c, 0, 37, 64
1, 28440, Note_off_c, 1, 49, 64
1, 28440, Note_off_c, 1, 37, 64
1, 28560, Note_off_c, 3, 24, 64
1, 28560, Note_on_c, 3, 28, 100
1, 28560, Note_on_c, 0, 40, 100
1, 28560, Note_on_c, 0, 52, 100
1, 28560, Note_on_c, 1, 40, 100
1, 28560, Note_on_c, 1, 52, 100
1, 28800, Note_off_c, 3, 28, 64
1, 28800, Note_off_c, 0, 40, 64
1, 28800, Note_off_c, 0, 52, 64
1, 28800, Note_off_c, 1, 40, 64
1, 28800, Note_off_c, 1, 52, 64
1, 28800, Note_on_c, 9, 36, 100
1, 28800, Note_on_c, 3, 25, 100
1, 28800, Note_on_c, 0, 37, 100
1, 28800, Note_on_c, 0, 49, 100
1, 28800, Note_on_c, 1, 37, 100
1, 28800, Note_on_c, 1, 49, 100
1, 28800, Note_on_c, 9, 46, 70
1, 28920, Note_off_c, 9, 36, 64
1, 28920, Note_off_c, 0, 37, 64
1, 28920, Note_off_c, 0, 49, 64
1, 28920, Note_off_c, 1, 37, 64
1, 28920, Note_off_c, 1, 49, 64
1, 28920, Note_off_c, 9, 46, 64
1, 29040, Note_off_c, 3, 25, 64
1, 29040, Note_on_c, 3, 25, 100
1, 29040, Note_on_c, 0, 37, 100
1, 29040, Note_on_c, 0, 49, 100
1, 29040, Note_on_c, 1, 37, 100
1, 29040, Note_on_c, 1, 49, 100
1, 29040, Note_on_c, 9, 36, 80
1, 29160, Note_off_c, 0, 37, 64
1, 29160, Note_off_c, 0, 49, 64
1, 29160, Note_off_c, 1, 37, 64
1, 29160, Note_off_c, 1, 49, 64
1, 29160, Note_off_c, 9, 36, 64
1, 29280, Note_off_c, 3, 25, 64
1, 29280, Note_on_c, 3, 28, 100
1, 29280, Note_on_c, 0, 40, 100
1, 29280, Note_on_c, 0, 52, 100
1, 29280, Note_on_c, 1, 40, 100
1, 29280, Note_on_c, 1, 52, 100
1, 29280, Note_on_c, 9, 38, 100
1, 29280, Note_on_c, 9, 46, 90
1, 29400, Note_off_c, 9, 38, 64
1, 29400, Note_off_c, 9, 46, 64
1, 29520, Note_off_c, 3, 28, 64
1, 29520, Pitch_bend_c, 0, 3840
1, 29520, Pitch_bend_c, 0, 3840
1, 29520, Pitch_bend_c, 1, 3840
1, 29520, Pitch_bend_c, 1, 3840
1, 29520, Note_on_c, 3, 27, 100
1, 29759, Pitch_bend_c, 0, 3840
1, 29759, Pitch_bend_c, 0, 3840
1, 29759, Pitch_bend_c, 1, 3840
1, 29759, Pitch_bend_c, 1, 3840
1, 29760, Note_off_c, 0, 40, 64
1, 29760, Note_off_c, 0, 52, 64
1, 29760, Note_off_c, 1, 40, 64
1, 29760, Note_off_c, 1, 52, 64
1, 29760, Note_off_c, 3, 27, 64
1, 29760, Pitch_bend_c, 0, 8192
1, 29760, Pitch_bend_c, 1, 8192
1, 29760, Note_on_c, 9, 36, 100
1, 29760, Note_on_c, 3, 25, 100
1, 29760, Note_on_c, 0, 37, 100
1, 29760, Pitch_bend_c, 0, 8192
1, 29760, Note_on_c, 1, 37, 100
1, 29760, Pitch_bend_c, 1, 8192
1, 29760, Note_on_c, 0, 49, 100
1, 29760, Note_on_c, 1, 49, 100
1, 29760, Note_on_c, 9, 46, 70
1, 29880, Note_off_c, 9, 36, 64
1, 29880, Note_off_c, 0, 37, 64
1, 29880, Note_off_c, 1, 37, 64
1, 29880, Note_off_c, 0, 49, 64
1, 29880, Note_off_c, 1, 49, 64
1, 29880, Note_off_c, 9, 46, 64
1, 30000, Note_off_c, 3, 25, 64
1, 30000, Note_on_c, 3, 25, 100
1, 30000, Note_on_c, 0, 37, 100
1, 30000, Note_on_c, 0, 49, 100
1, 30000, Note_on_c, 1, 37, 100
1, 30000, Note_on_c, 1, 49, 100
1, 30000, Note_on_c, 9, 36, 80
1, 30120, Note_off_c, 0, 37, 64
1, 30120, Note_off_c, 0, 49, 64
1, 30120, Note_off_c, 1, 37, 64
1, 30120, Note_off_c, 1, 49, 64
1, 30120, Note_off_c, 9, 36, 64
1, 30240, Note_off_c, 3, 25, 64
1, 30240, Note_on_c, 3, 30, 100
1, 30240, Note_on_c, 0, 42, 100
1, 30240, Note_on_c, 0, 54, 100
1, 30240, Note_on_c, 1, 42, 100
1, 30240, Note_on_c, 1, 54, 100
1, 30240, Note_on_c, 9, 38, 100
1, 30240, Note_on_c, 9, 46, 90
1, 30360, Note_off_c, 9, 38, 64
1, 30360, Note_off_c, 9, 46, 64
1, 30480, Note_off_c, 3, 30, 64
1, 30480, Pitch_bend_c, 0, 256
1, 30480, Pitch_bend_c, 0, 256
1, 30480, Pitch_bend_c, 1, 256
1, 30480, Pitch_bend_c, 1, 256
1, 30480, Note_on_c, 3, 28, 100
1, 30719, Pitch_bend_c, 0, 256
1, 30719, Pitch_bend_c, 0, 256
1, 30719, Pitch_bend_c, 1, 256
1, 30719, Pitch_bend_c, 1, 256
1, 30720, Note_off_c, 0, 42, 64
1, 30720, Note_off_c, 0, 54, 64
1, 30720, Note_off_c, 1, 42, 64
1, 30720, Note_off_c, 1, 54, 64
1, 30720, Note_off_c, 3, 28, 64
1, 30720, Pitch_bend_c, 0, 8192
1, 30720, Pitch_bend_c, 1, 8192
1, 30720, Note_on_c, 9, 36, 100
1, 30720, Note_on_c, 3, 25, 100
1, 30720, Note_on_c, 0, 37, 100
1, 30720, Pitch_bend_c, 0, 8192
1, 30720, Note_on_c, 1, 37, 100
1, 30720, Pitch_bend_c, 1, 8192
1, 30720, Note_on_c, 0, 49, 100
1, 30720, Note_on_c, 1, 49, 100
1, 30720, Note_on_c, 9, 46, 70
1, 30840, Note_off_c, 9, 36, 64
1, 30840, Note_off_c, 0, 37, 64
1, 30840, Note_off_c, 1, 37, 64
1, 30840, Note_off_c, 0, 49, 64
1, 30840, Note_off_c, 1, 49, 64
1, 30840, Note_off_c, 9, 46, 64
1, 30960, Note_off_c, 3, 25, 64
1, 30960, Note_on_c, 3, 25, 100
1, 30960, Note_on_c, 0, 37, 100
1, 30960, Note_on_c, 0, 49, 100
1, 30960, Note_on_c, 1, 37, 100
1, 30960, Note_on_c, 1, 49, 100
1, 30960, Note_on_c, 9, 36, 80
1, 31080, Note_off_c, 0, 37, 64
1, 31080, Note_off_c, 0, 49, 64
1, 31080, Note_off_c, 1, 37, 64
1, 31080, Note_off_c, 1, 49, 64
1, 31080, Note_off_c, 9, 36, 64
1, 31200, Note_off_c, 3, 25, 64
1, 31200, Note_on_c, 3, 32, 100
1, 31200, Note_on_c, 0, 44, 100
1, 31200, Note_on_c, 0, 56, 100
1, 31200, Note_on_c, 1, 44, 100
1, 31200, Note_on_c, 1, 56, 100
1, 31200, Note_on_c, 9, 38, 100
1, 31200, Note_on_c, 9, 46, 90
1, 31320, Note_off_c, 9, 38, 64
1, 31320, Note_off_c, 9, 46, 64
1, 31440, Note_off_c, 3, 32, 64
1, 31440, Note_off_c, 0, 44, 64
1, 31440, Note_off_c, 0, 56, 64
1, 31440, Note_off_c, 1, 44, 64
1, 31440, Note_off_c, 1, 56, 64
1, 31440, Note_on_c, 3, 25, 100
1, 31440, Note_on_c, 0, 49, 80
1, 31440, Note_on_c, 0, 37, 80
1, 31440, Note_on_c, 1, 49, 80
1, 31440, Note_on_c, 1, 37, 80
1, 31560, Note_off_c, 0, 49, 64
1, 31560, Note_off_c, 0, 37, 64
1, 31560, Note_off_c, 1, 49, 64
1, 31560, Note_off_c, 1, 37, 64
1, 31680, Note_off_c, 3, 25, 64
1, 31680, Note_on_c, 3, 31, 100
1, 31680, Note_on_c, 0, 55, 100
1, 31680, Note_on_c, 0, 43, 100
1, 31680, Note_on_c, 1, 55, 100
1, 31680, Note_on_c, 1, 43, 100
1, 31680, Note_on_c, 9, 36, 100
1, 31680, Note_on_c, 9, 38, 80
1, 31680, Note_on_c, 9, 46, 70
1, 31800, Note_off_c, 9, 36, 64
1, 31800, Note_off_c, 9, 38, 64
1, 31800, Note_off_c, 9, 46, 64
1, 31920, Note_off_c, 3, 31, 64
1, 31920, Note_off_c, 0, 55, 64
1, 31920, Note_off_c, 0, 43, 64
1, 31920, Note_off_c, 1, 55, 64
1, 31920, Note_off_c, 1, 43, 64
1, 31920, Note_on_c, 3, 28, 100
1, 31920, Note_on_c, 0, 52, 100
1, 31920, Note_on_c, 0, 40, 100
1, 31920, Note_on_c, 1, 52, 100
1, 31920, Note_on_c, 1, 40, 100
1, 31920, Note_on_c, 9, 36, 80
1, 31920, Note_on_c, 9, 38, 100
1, 31920, Note_on_c, 9, 57, 100
1, 32040, Note_off_c, 9, 36, 64
1, 32040, Note_off_c, 9, 38, 64
1, 32040, Note_off_c, 9, 57, 64
1, 34080, Note_on_c, 9, 41, 112
1, 34084, Note_on_c, 9, 43, 112
1, 34200, Note_off_c, 9, 41, 64
1, 34204, Note_off_c, 9, 43, 64
1, 34560, Note_off_c, 3, 28, 64
1, 34560, Note_off_c, 0, 52, 64
1, 34560, Note_off_c, 0, 40, 64
1, 34560, Note_off_c, 1, 52, 64
1, 34560, Note_off_c, 1, 40, 64
1, 34560, Note_on_c, 3, 25, 100
1, 34560, Note_on_c, 0, 37, 100
1, 34560, Note_on_c, 0, 49, 100
1, 34560, Note_on_c, 1, 37, 100
1, 34560, Note_on_c, 1, 49, 100
1, 34560, Note_on_c, 9, 36, 100
1, 34560, Note_on_c, 9, 57, 100
1, 34680, Note_off_c, 0, 37, 64
1, 34680, Note_off_c, 0, 49, 64
1, 34680, Note_off_c, 1, 37, 64
1, 34680, Note_off_c, 1, 49, 64
1, 34680, Note_off_c, 9, 36, 64
1, 34680, Note_off_c, 9, 57, 64
1, 34800, Note_off_c, 3, 25, 64
1, 34800, Note_on_c, 3, 25, 100
1, 34800, Note_on_c, 0, 37, 100
1, 34800, Note_on_c, 0, 49, 100
1, 34800, Note_on_c, 1, 37, 100
1, 34800, Note_on_c, 1, 49, 100
1, 34800, Note_on_c, 9, 36, 80
1, 34920, Note_off_c, 0, 37, 64
1, 34920, Note_off_c, 0, 49, 64
1, 34920, Note_off_c, 1, 37, 64
1, 34920, Note_off_c, 1, 49, 64
1, 34920, Note_off_c, 9, 36, 64
1, 35040, Note_off_c, 3, 25, 64
1, 35040, Note_on_c, 3, 28, 100
1, 35040, Note_on_c, 0, 40, 100
1, 35040, Note_on_c, 0, 52, 100
1, 35040, Note_on_c, 1, 40, 100
1, 35040, Note_on_c, 1, 52, 100
1, 35040, Note_on_c, 9, 38, 100
1, 35040, Note_on_c, 9, 46, 90
1, 35160, Note_off_c, 9, 38, 64
1, 35160, Note_off_c, 9, 46, 64
1, 35280, Note_off_c, 3, 28, 64
1, 35280, Pitch_bend_c, 0, 3840
1, 35280, Pitch_bend_c, 0, 3840
1, 35280, Pitch_bend_c, 1, 3840
1, 35280, Pitch_bend_c, 1, 3840
1, 35280, Note_on_c, 3, 27, 100
1, 35519, Pitch_bend_c, 0, 3840
1, 35519, Pitch_bend_c, 0, 3840
1, 35519, Pitch_bend_c, 1, 3840
1, 35519, Pitch_bend_c, 1, 3840
1, 35520, Note_off_c, 0, 40, 64
1, 35520, Note_off_c, 0, 52, 64
1, 35520, Note_off_c, 1, 40, 64
1, 35520, Note_off_c, 1, 52, 64
1, 35520, Note_off_c, 3, 27, 64
1, 35520, Pitch_bend_c, 0, 8192
1, 35520, Pitch_bend_c, 1, 8192
1, 35520, Note_on_c, 9, 36, 100
1, 35520, Note_on_c, 3, 25, 100
1, 35520, Note_on_c, 0, 37, 100
1, 35520, Pitch_bend_c, 0, 8192
1, 35520, Note_on_c, 1, 37, 100
1, 35520, Pitch_bend_c, 1, 8192
1, 35520, Note_on_c, 0, 49, 100
1, 35520, Note_on_c, 1, 49, 100
1, 35520, Note_on_c, 9, 46, 70
1, 35640, Note_off_c, 9, 36, 64
1, 35640, Note_off_c, 0, 37, 64
1, 35640, Note_off_c, 1, 37, 64
1, 35640, Note_off_c, 0, 49, 64
1, 35640, Note_off_c, 1, 49, 64
1, 35640, Note_off_c, 9, 46, 64
1, 35760, Note_off_c, 3, 25, 64
1, 35760, Note_on_c, 3, 25, 100
1, 35760, Note_on_c, 0, 37, 100
1, 35760, Note_on_c, 0, 49, 100
1, 35760, Note_on_c, 1, 37, 100
1, 35760, Note_on_c, 1, 49, 100
1, 35760, Note_on_c, 9, 36, 80
1, 35880, Note_off_c, 0, 37, 64
1, 35880, Note_off_c, 0, 49, 64
1, 35880, Note_off_c, 1, 37, 64
1, 35880, Note_off_c, 1, 49, 64
1, 35880, Note_off_c, 9, 36, 64
1, 36000, Note_off_c, 3, 25, 64
1, 36000, Note_on_c, 3, 30, 100
1, 36000, Note_on_c, 0, 42, 100
1, 36000, Note_on_c, 0, 54, 100
1, 36000, Note_on_c, 1, 42, 100
1, 36000, Note_on_c, 1, 54, 100
1, 36000, Note_on_c, 9, 38, 100
1, 36000, Note_on_c, 9, 46, 90
1, 36120, Note_off_c, 9, 38, 64
1, 36120, Note_off_c, 9, 46, 64
1, 36240, Note_off_c, 3, 30, 64
1, 36240, Pitch_bend_c, 0, 256
1, 36240, Pitch_bend_c, 0, 256
1, 36240, Pitch_bend_c, 1, 256
1, 36240, Pitch_bend_c, 1, 256
1, 36240, Note_on_c, 3, 28, 100
1, 36479, Pitch_bend_c, 0, 256
1, 36479, Pitch_bend_c, 0, 256
1, 36479, Pitch_bend_c, 1, 256
1, 36479, Pitch_bend_c, 1, 256
1, 36480, Note_off_c, 0, 42, 64
1, 36480, Note_off_c, 0, 54, 64
1, 36480, Note_off_c, 1, 42, 64
1, 36480, Note_off_c, 1, 54, 64
1, 36480, Note_off_c, 3, 28, 64
1, 36480, Pitch_bend_c, 0, 8192
1, 36480, Pitch_bend_c, 1, 8192
1, 36480, Note_on_c, 9, 36, 100
1, 36480, Note_on_c, 3, 25, 100
1, 36480, Note_on_c, 0, 37, 100
1, 36480, Pitch_bend_c, 0, 8192
1, 36480, Note_on_c, 1, 37, 100
1, 36480, Pitch_bend_c, 1, 8192
1, 36480, Note_on_c, 0, 49, 100
1, 36480, Note_on_c, 1, 49, 100
1, 36480, Note_on_c, 9, 46, 70
1, 36600, Note_off_c, 9, 36, 64
1, 36600, Note_off_c, 0, 37, 64
1, 36600, Note_off_c, 1, 37, 64
1, 36600, Note_off_c, 0, 49, 64
1, 36600, Note_off_c, 1, 49, 64
1, 36600, Note_off_c, 9, 46, 64
1, 36720, Note_off_c, 3, 25, 64
1, 36720, Note_on_c, 3, 25, 100
1, 36720, Note_on_c, 0, 37, 100
1, 36720, Note_on_c, 0, 49, 100
1, 36720, Note_on_c, 1, 37, 100
1, 36720, Note_on_c, 1, 49, 100
1, 36720, Note_on_c, 9, 36, 80
1, 36840, Note_off_c, 0, 37, 64
1, 36840, Note_off_c, 0, 49, 64
1, 36840, Note_off_c, 1, 37, 64
1, 36840, Note_off_c, 1, 49, 64
1, 36840, Note_off_c, 9, 36, 64
1, 36960, Note_off_c, 3, 25, 64
1, 36960, Note_on_c, 3, 32, 100
1, 36960, Note_on_c, 0, 44, 100
1, 36960, Note_on_c, 0, 56, 100
1, 36960, Note_on_c, 1, 44, 100
1, 36960, Note_on_c, 1, 56, 100
1, 36960, Note_on_c, 9, 38, 100
1, 36960, Note_on_c, 9, 46, 90
1, 37080, Note_off_c, 9, 38, 64
1, 37080, Note_off_c, 9, 46, 64
1, 37200, Note_off_c, 3, 32, 64
1, 37200, Note_off_c, 0, 44, 64
1, 37200, Note_off_c, 0, 56, 64
1, 37200, Note_off_c, 1, 44, 64
1, 37200, Note_off_c, 1, 56, 64
1, 37200, Note_on_c, 3, 25, 100
1, 37200, Note_on_c, 0, 49, 80
1, 37200, Note_on_c, 0, 37, 80
1, 37200, Note_on_c, 1, 49, 80
1, 37200, Note_on_c, 1, 37, 80
1, 37320, Note_off_c, 0, 49, 64
1, 37320, Note_off_c, 0, 37, 64
1, 37320, Note_off_c, 1, 49, 64
1, 37320, Note_off_c, 1, 37, 64
1, 37440, Note_off_c, 3, 25, 64
1, 37440, Note_on_c, 9, 36, 100
1, 37440, Note_on_c, 3, 28, 100
1, 37440, Note_on_c, 0, 40, 100
1, 37440, Note_on_c, 0, 52, 100
1, 37440, Note_on_c, 1, 40, 100
1, 37440, Note_on_c, 1, 52, 100
1, 37440, Note_on_c, 9, 46, 70
1, 37560, Note_off_c, 9, 36, 64
1, 37560, Note_off_c, 9, 46, 64
1, 37680, Note_off_c, 3, 28, 64
1, 37680, Pitch_bend_c, 0, 3840
1, 37680, Pitch_bend_c, 0, 3840
1, 37680, Pitch_bend_c, 1, 3840
1, 37680, Pitch_bend_c, 1, 3840
1, 37680, Note_on_c, 3, 27, 100
1, 37680, Note_on_c, 9, 36, 80
1, 37800, Note_off_c, 9, 36, 64
1, 37919, Pitch_bend_c, 0, 3840
1, 37919, Pitch_bend_c, 0, 3840
1, 37919, Pitch_bend_c, 1, 3840
1, 37919, Pitch_bend_c, 1, 3840
1, 37920, Note_off_c, 0, 40, 64
1, 37920, Note_off_c, 0, 52, 64
1, 37920, Note_off_c, 1, 40, 64
1, 37920, Note_off_c, 1, 52, 64
1, 37920, Note_off_c, 3, 27, 64
1, 37920, Note_on_c, 3, 24, 100
1, 37920, Note_on_c, 9, 38, 100
1, 37920, Note_on_c, 9, 46, 90
1, 37920, Pitch_bend_c, 0, 8192
1, 37920, Pitch_bend_c, 0, 8192
1, 37920, Note_on_c, 0, 49, 80
1, 37920, Note_on_c, 0, 37, 80
1, 37920, Pitch_bend_c, 1, 8192
1, 37920, Pitch_bend_c, 1, 8192
1, 37920, Note_on_c, 1, 49, 80
1, 37920, Note_on_c, 1, 37, 80
1, 38040, Note_off_c, 9, 38, 64
1, 38040, Note_off_c, 9, 46, 64
1, 38040, Note_off_c, 0, 49, 64
1, 38040, Note_off_c, 0, 37, 64
1, 38040, Note_off_c, 1, 49, 64
1, 38040, Note_off_c, 1, 37, 64
1, 38160, Note_off_c, 3, 24, 64
1, 38160, Note_on_c, 3, 28, 100
1, 38160, Note_on_c, 0, 40, 100
1, 38160, Note_on_c, 0, 52, 100
1, 38160, Note_on_c, 1, 40, 100
1, 38160, Note_on_c, 1, 52, 100
1, 38400, Note_off_c, 3, 28, 64
1, 38400, Note_off_c, 0, 40, 64
1, 38400, Note_off_c, 0, 52, 64
1, 38400, Note_off_c, 1, 40, 64
1, 38400, Note_off_c, 1, 52, 64
1, 38400, Note_on_c, 9, 36, 100
1, 38400, Note_on_c, 3, 25, 100
1, 38400, Note_on_c, 0, 37, 100
1, 38400, Note_on_c, 0, 49, 100
1, 38400, Note_on_c, 1, 37, 100
1, 38400, Note_on_c, 1, 49, 100
1, 38400, Note_on_c, 9, 46, 70
1, 38520, Note_off_c, 9, 36, 64
1, 38520, Note_off_c, 0, 37, 64
1, 38520, Note_off_c, 0, 49, 64
1, 38520, Note_off_c, 1, 37, 64
1, 38520, Note_off_c, 1, 49, 64
1, 38520, Note_off_c, 9, 46, 64
1, 38640, Note_off_c, 3, 25, 64
1, 38640, Note_on_c, 3, 25, 100
1, 38640, Note_on_c, 0, 37, 100
1, 38640, Note_on_c, 0, 49, 100
1, 38640, Note_on_c, 1, 37, 100
1, 38640, Note_on_c, 1, 49, 100
1, 38640, Note_on_c, 9, 36, 80
1, 38760, Note_off_c, 0, 37, 64
1, 38760, Note_off_c, 0, 49, 64
1, 38760, Note_off_c, 1, 37, 64
1, 38760, Note_off_c, 1, 49, 64
1, 38760, Note_off_c, 9, 36, 64
1, 38880, Note_off_c, 3, 25, 64
1, 38880, Note_on_c, 3, 28, 100
1, 38880, Note_on_c, 0, 40, 100
1, 38880, Note_on_c, 0, 52, 100
1, 38880, Note_on_c, 1, 40, 100
1, 38880, Note_on_c, 1, 52, 100
1, 38880, Note_on_c, 9, 38, 100
1, 38880, Note_on_c, 9, 46, 90
1, 39000, Note_off_c, 9, 38, 64
1, 39000, Note_off_c, 9, 46, 64
1, 39120, Note_off_c, 3, 28, 64
1, 39120, Pitch_bend_c, 0, 3840
1, 39120, Pitch_bend_c, 0, 3840
1, 39120, Pitch_bend_c, 1, 3840
1, 39120, Pitch_bend_c, 1, 3840
1, 39120, Note_on_c, 3, 27, 100
1, 39359, Pitch_bend_c, 0, 3840
1, 39359, Pitch_bend_c, 0, 3840
1, 39359, Pitch_bend_c, 1, 3840
1, 39359, Pitch_bend_c, 1, 3840
1, 39360, Note_off_c, 0, 40, 64
1, 39360, Note_off_c, 0, 52, 64
1, 39360, Note_off_c, 1, 40, 64
1, 39360, Note_off_c, 1, 52, 64
1, 39360, Note_off_c, 3, 27, 64
1, 39360, Pitch_bend_c, 0, 8192
1, 39360, Pitch_bend_c, 1, 8192
1, 39360, Note_on_c, 9, 36, 100
1, 39360, Note_on_c, 3, 25, 100
1, 39360, Note_on_c, 0, 37, 100
1, 39360, Pitch_bend_c, 0, 8192
1, 39360, Note_on_c, 1, 37, 100
1, 39360, Pitch_bend_c, 1, 8192
1, 39360, Note_on_c, 0, 49, 100
1, 39360, Note_on_c, 1, 49, 100
1, 39360, Note_on_c, 9, 46, 70
1, 39480, Note_off_c, 9, 36, 64
1, 39480, Note_off_c, 0, 37, 64
1, 39480, Note_off_c, 1, 37, 64
1, 39480, Note_off_c, 0, 49, 64
1, 39480, Note_off_c, 1, 49, 64
1, 39480, Note_off_c, 9, 46, 64
1, 39600, Note_off_c, 3, 25, 64
1, 39600, Note_on_c, 3, 25, 100
1, 39600, Note_on_c, 0, 37, 100
1, 39600, Note_on_c, 0, 49, 100
1, 39600, Note_on_c, 1, 37, 100
1, 39600, Note_on_c, 1, 49, 100
1, 39600, Note_on_c, 9, 36, 80
1, 39720, Note_off_c, 0, 37, 64
1, 39720, Note_off_c, 0, 49, 64
1, 39720, Note_off_c, 1, 37, 64
1, 39720, Note_off_c, 1, 49, 64
1, 39720, Note_off_c, 9, 36, 64
1, 39840, Note_off_c, 3, 25, 64
1, 39840, Note_on_c, 3, 30, 100
1, 39840, Note_on_c, 0, 42, 100
1, 39840, Note_on_c, 0, 54, 100
1, 39840, Note_on_c, 1, 42, 100
1, 39840, Note_on_c, 1, 54, 100
1, 39840, Note_on_c, 9, 38, 100
1, 39840, Note_on_c, 9, 46, 90
1, 39960, Note_off_c, 9, 38, 64
1, 39960, Note_off_c, 9, 46, 64
1, 40080, Note_off_c, 3, 30, 64
1, 40080, Pitch_bend_c, 0, 256
1, 40080, Pitch_bend_c, 0, 256
1, 40080, Pitch_bend_c, 1, 256
1, 40080, Pitch_bend_c, 1, 256
1, 40080, Note_on_c, 3, 28, 100
1, 40319, Pitch_bend_c, 0, 256
1, 40319, Pitch_bend_c, 0, 256
1, 40319, Pitch_bend_c, 1, 256
1, 40319, Pitch_bend_c, 1, 256
1, 40320, Note_off_c, 0, 42, 64
1, 40320, Note_off_c, 0, 54, 64
1, 40320, Note_off_c, 1, 42, 64
1, 40320, Note_off_c, 1, 54, 64
1, 40320, Note_off_c, 3, 28, 64
1, 40320, Pitch_bend_c, 0, 8192
1, 40320, Pitch_bend_c, 1, 8192
1, 40320, Note_on_c, 9, 36, 100
1, 40320, Note_on_c, 3, 25, 100
1, 40320, Note_on_c, 0, 37, 100
1, 40320, Pitch_bend_c, 0, 8192
1, 40320, Note_on_c, 1, 37, 100
1, 40320, Pitch_bend_c, 1, 8192
1, 40320, Note_on_c, 0, 49, 100
1, 40320, Note_on_c, 1, 49, 100
1, 40320, Note_on_c, 9, 46, 70
1, 40440, Note_off_c, 9, 36, 64
1, 40440, Note_off_c, 0, 37, 64
1, 40440, Note_off_c, 1, 37, 64
1, 40440, Note_off_c, 0, 49, 64
1, 40440, Note_off_c, 1, 49, 64
1, 40440, Note_off_c, 9, 46, 64
1, 40560, Note_off_c, 3, 25, 64
1, 40560, Note_on_c, 3, 25, 100
1, 40560, Note_on_c, 0, 37, 100
1, 40560, Note_on_c, 0, 49, 100
1, 40560, Note_on_c, 1, 37, 100
1, 40560, Note_on_c, 1, 49, 100
1, 40560, Note_on_c, 9, 36, 80
1, 40680, Note_off_c, 0, 37, 64
1, 40680, Note_off_c, 0, 49, 64
1, 40680, Note_off_c, 1, 37, 64
1, 40680, Note_off_c, 1, 49, 64
1, 40680, Note_off_c, 9, 36, 64
1, 40800, Note_off_c, 3, 25, 64
1, 40800, Note_on_c, 3, 32, 100
1, 40800, Note_on_c, 0, 44, 100
1, 40800, Note_on_c, 0, 56, 100
1, 40800, Note_on_c, 1, 44, 100
1, 40800, Note_on_c, 1, 56, 100
1, 40800, Note_on_c, 9, 38, 100
1, 40800, Note_on_c, 9, 46, 90
1, 40920, Note_off_c, 9, 38, 64
1, 40920, Note_off_c, 9, 46, 64
1, 41040, Note_off_c, 3, 32, 64
1, 41040, Note_off_c, 0, 44, 64
1, 41040, Note_off_c, 0, 56, 64
1, 41040, Note_off_c, 1, 44, 64
1, 41040, Note_off_c, 1, 56, 64
1, 41040, Note_on_c, 3, 25, 100
1, 41040, Note_on_c, 0, 49, 80
1, 41040, Note_on_c, 0, 37, 80
1, 41040, Note_on_c, 1, 49, 80
1, 41040, Note_on_c, 1, 37, 80
1, 41160, Note_off_c, 0, 49, 64
1, 41160, Note_off_c, 0, 37, 64
1, 41160, Note_off_c, 1, 49, 64
1, 41160, Note_off_c, 1, 37, 64
1, 41280, Note_off_c, 3, 25, 64
1, 41280, Note_on_c, 9, 36, 100
1, 41280, Note_on_c, 3, 31, 100
1, 41280, Note_on_c, 0, 55, 100
1, 41280, Note_on_c, 0, 43, 100
1, 41280, Note_on_c, 1, 55, 100
1, 41280, Note_on_c, 1, 43, 100
1, 41280, Note_on_c, 9, 46, 70
1, 41400, Note_off_c, 9, 36, 64
1, 41400, Note_off_c, 9, 46, 64
1, 41520, Note_off_c, 3, 31, 64
1, 41520, Note_off_c, 0, 55, 64
1, 41520, Note_off_c, 0, 43, 64
1, 41520, Note_off_c, 1, 55, 64
1, 41520, Note_off_c, 1, 43, 64
1, 41520, Note_on_c, 3, 28, 100
1, 41520, Note_on_c, 0, 52, 100
1, 41520, Note_on_c, 0, 40, 100
1, 41520, Note_on_c, 1, 52, 100
1, 41520, Note_on_c, 1, 40, 100
1, 41520, Note_on_c, 9, 36, 80
1, 41640, Note_off_c, 9, 36, 64
1, 41760, Note_on_c, 9, 38, 100
1, 41760, Note_on_c, 9, 46, 90
1, 41880, Note_off_c, 9, 38, 64
1, 41880, Note_off_c, 9, 46, 64
1, 42240, Note_off_c, 3, 28, 64
1, 42240, Note_off_c, 0, 52, 64
1, 42240, Note_off_c, 0, 40, 64
1, 42240, Note_off_c, 1, 52, 64
1, 42240, Note_off_c, 1, 40, 64
1, 42240, Note_on_c, 3, 25, 100
1, 42240, Control_c, 3, 7, 127
1, 42240, Note_on_c, 0, 37, 100
1, 42240, Note_on_c, 0, 49, 100
1, 42240, Control_c, 0, 7, 94
1, 42240, Note_on_c, 1, 37, 100
1, 42240, Note_on_c, 1, 49, 100
1, 42240, Control_c, 1, 7, 94
1, 42240, Note_on_c, 9, 36, 100
1, 42240, Control_c, 9, 7, 110
1, 42240, Note_on_c, 9, 57, 100
1, 42300, Control_c, 3, 7, 126
1, 42310, Control_c, 9, 7, 108
1, 42321, Control_c, 1, 7, 93
1, 42323, Control_c, 0, 7, 93
1, 42360, Note_off_c, 0, 37, 64
1, 42360, Note_off_c, 0, 49, 64
1, 42360, Note_off_c, 1, 37, 64
1, 42360, Note_off_c, 1, 49, 64
1, 42360, Note_off_c, 9, 36, 64
1, 42360, Note_off_c, 9, 57, 64
1, 42361, Control_c, 3, 7, 125
1, 42379, Control_c, 9, 7, 108
1, 42403, Control_c, 1, 7, 92
1, 42406, Control_c, 0, 7, 92
1, 42421, Control_c, 3, 7, 124
1, 42449, Control_c, 9, 7, 107
1, 42480, Note_off_c, 3, 25, 64
1, 42480, Note_on_c, 1, 37, 100
1, 42480, Note_on_c, 1, 49, 100
1, 42480, Note_on_c, 0, 37, 100
1, 42480, Note_on_c, 0, 49, 100
1, 42480, Note_on_c, 3, 25, 100
1, 42480, Note_on_c, 9, 36, 80
1, 42482, Control_c, 3, 7, 123
1, 42485, Control_c, 1, 7, 91
1, 42489, Control_c, 0, 7, 91
1, 42519, Control_c, 9, 7, 106
1, 42542, Control_c, 3, 7, 122
1, 42567, Control_c, 1, 7, 89
1, 42572, Control_c, 0, 7, 90
1, 42589, Control_c, 9, 7, 105
1, 42600, Note_off_c, 1, 37, 64
1, 42600, Note_off_c, 1, 49, 64
1, 42600, Note_off_c, 0, 37, 64
1, 42600, Note_off_c, 0, 49, 64
1, 42600, Note_off_c, 9, 36, 64
1, 42603, Control_c, 3, 7, 121
1, 42648, Control_c, 1, 7, 89
1, 42655, Control_c, 0, 7, 89
1, 42659, Control_c, 9, 7, 104
1, 42663, Control_c, 3, 7, 120
1, 42720, Note_off_c, 3, 25, 64
1, 42720, Note_on_c, 1, 40, 100
1, 42720, Note_on_c, 1, 52, 100
1, 42720, Note_on_c, 0, 40, 100
1, 42720, Note_on_c, 0, 52, 100
1, 42720, Note_on_c, 9, 38, 100
1, 42720, Note_on_c, 3, 28, 100
1, 42720, Note_on_c, 9, 46, 90
1, 42724, Control_c, 3, 7, 119
1, 42728, Control_c, 9, 7, 103
1, 42730, Control_c, 1, 7, 88
1, 42738, Control_c, 0, 7, 88
1, 42784, Control_c, 3, 7, 118
1, 42798, Control_c, 9, 7, 102
1, 42812, Control_c, 1, 7, 87
1, 42821, Control_c, 0, 7, 87
1, 42840, Note_off_c, 9, 38, 64
1, 42840, Note_off_c, 9, 46, 64
1, 42845, Control_c, 3, 7, 117
1, 42868, Control_c, 9, 7, 101
1, 42893, Control_c, 1, 7, 86
1, 42904, Control_c, 0, 7, 86
1, 42905, Control_c, 3, 7, 116
1, 42938, Control_c, 9, 7, 100
1, 42960, Note_off_c, 3, 28, 64
1, 42960, Pitch_bend_c, 1, 3840
1, 42960, Pitch_bend_c, 1, 3840
1, 42960, Pitch_bend_c, 0, 3840
1, 42960, Pitch_bend_c, 0, 3840
1, 42960, Note_on_c, 3, 27, 100
1, 42966, Control_c, 3, 7, 115
1, 42975, Control_c, 1, 7, 85
1, 42986, Control_c, 0, 7, 85
1, 43008, Control_c, 9, 7, 99
1, 43026, Control_c, 3, 7, 114
1, 43057, Control_c, 1, 7, 84
1, 43069, Control_c, 0, 7, 84
1, 43077, Control_c, 9, 7, 98
1, 43087, Control_c, 3, 7, 113
1, 43138, Control_c, 1, 7, 83
1, 43147, Control_c, 9, 7, 97
1, 43147, Control_c, 3, 7, 112
1, 43152, Control_c, 0, 7, 83
1, 43199, Pitch_bend_c, 1, 3840
1, 43199, Pitch_bend_c, 1, 3840
1, 43199, Pitch_bend_c, 0, 3840
1, 43199, Pitch_bend_c, 0, 3840
1, 43200, Note_off_c, 1, 40, 64
1, 43200, Note_off_c, 1, 52, 64
1, 43200, Note_off_c, 0, 40, 64
1, 43200, Note_off_c, 0, 52, 64
1, 43200, Note_off_c, 3, 27, 64
1, 43200, Pitch_bend_c, 1, 8192
1, 43200, Pitch_bend_c, 0, 8192
1, 43200, Note_on_c, 9, 36, 100
1, 43200, Note_on_c, 3, 25, 100
1, 43200, Note_on_c, 1, 37, 100
1, 43200, Pitch_bend_c, 1, 8192
1, 43200, Note_on_c, 0, 37, 100
1, 43200, Pitch_bend_c, 0, 8192
1, 43200, Note_on_c, 1, 49, 100
1, 43200, Note_on_c, 0, 49, 100
1, 43200, Note_on_c, 9, 46, 70
1, 43207, Control_c, 3, 7, 111
1, 43217, Control_c, 9, 7, 96
1, 43220, Control_c, 1, 7, 82
1, 43235, Control_c, 0, 7, 82
1, 43268, Control_c, 3, 7, 110
1, 43287, Control_c, 9, 7, 95
1, 43302, Control_c, 1, 7, 81
1, 43318, Control_c, 0, 7, 81
1, 43320, Note_off_c, 9, 36, 64
1, 43320, Note_off_c, 1, 37, 64
1, 43320, Note_off_c, 0, 37, 64
1, 43320, Note_off_c, 1, 49, 64
1, 43320, Note_off_c, 0, 49, 64
1, 43320, Note_off_c, 9, 46, 64
1, 43328, Control_c, 3, 7, 109
1, 43357, Control_c, 9, 7, 94
1, 43384, Control_c, 1, 7, 80
1, 43389, Control_c, 3, 7, 108
1, 43401, Control_c, 0, 7, 80
1, 43427, Control_c, 9, 7, 93
1, 43440, Note_off_c, 3, 25, 64
1, 43440, Note_on_c, 1, 37, 100
1, 43440, Note_on_c, 1, 49, 100
1, 43440, Note_on_c, 3, 25, 100
1, 43440, Note_on_c, 0, 37, 100
1, 43440, Note_on_c, 0, 49, 100
1, 43440, Note_on_c, 9, 36, 80
1, 43449, Control_c, 3, 7, 107
1, 43465, Control_c, 1, 7, 79
1, 43484, Control_c, 0, 7, 79
1, 43496, Control_c, 9, 7, 92
1, 43510, Control_c, 3, 7, 106
1, 43547, Control_c, 1, 7, 78
1, 43560, Note_off_c, 1, 37, 64
1, 43560, Note_off_c, 1, 49, 64
1, 43560, Note_off_c, 0, 37, 64
1, 43560, Note_off_c, 0, 49, 64
1, 43560, Note_off_c, 9, 36, 64
1, 43566, Control_c, 9, 7, 91
1, 43567, Control_c, 0, 7, 78
1, 43570, Control_c, 3, 7, 105
1, 43629, Control_c, 1, 7, 77
1, 43631, Control_c, 3, 7, 104
1, 43636, Control_c, 9, 7, 90
1, 43650, Control_c, 0, 7, 77
1, 43680, Note_off_c, 3, 25, 64
1, 43680, Note_on_c, 1, 42, 100
1, 43680, Note_on_c, 1, 54, 100
1, 43680, Note_on_c, 3, 30, 100
1, 43680, Note_on_c, 9, 38, 100
1, 43680, Note_on_c, 9, 46, 90
1, 43680, Note_on_c, 0, 42, 100
1, 43680, Note_on_c, 0, 54, 100
1, 43691, Control_c, 3, 7, 103
1, 43706, Control_c, 9, 7, 89
1, 43710, Control_c, 1, 7, 76
1, 43733, Control_c, 0, 7, 76
1, 43752, Control_c, 3, 7, 102
1, 43776, Control_c, 9, 7, 88
1, 43792, Control_c, 1, 7, 75
1, 43800, Note_off_c, 9, 38, 64
1, 43800, Note_off_c, 9, 46, 64
1, 43812, Control_c, 3, 7, 101
1, 43816, Control_c, 0, 7, 75
1, 43845, Control_c, 9, 7, 87
1, 43873, Control_c, 3, 7, 100
1, 43874, Control_c, 1, 7, 74
1, 43899, Control_c, 0, 7, 74
1, 43915, Control_c, 9, 7, 86
1, 43920, Note_off_c, 3, 30, 64
1, 43920, Pitch_bend_c, 1, 256
1, 43920, Pitch_bend_c, 1, 256
1, 43920, Pitch_bend_c, 0, 256
1, 43920, Pitch_bend_c, 0, 256
1, 43920, Note_on_c, 3, 28, 100
1, 43933, Control_c, 3, 7, 99
1, 43955, Control_c, 1, 7, 73
1, 43982, Control_c, 0, 7, 73
1, 43985, Control_c, 9, 7, 85
1, 43994, Control_c, 3, 7, 98
1, 44037, Control_c, 1, 7, 72
1, 44054, Control_c, 3, 7, 97
1, 44055, Control_c, 9, 7, 84
1, 44065, Control_c, 0, 7, 72
1, 44115, Control_c, 3, 7, 96
1, 44119, Control_c, 1, 7, 71
1, 44125, Control_c, 9, 7, 83
1, 44148, Control_c, 0, 7, 71
1, 44159, Pitch_bend_c, 1, 256
1, 44159, Pitch_bend_c, 1, 256
1, 44159, Pitch_bend_c, 0, 256
1, 44159, Pitch_bend_c, 0, 256
1, 44160, Note_off_c, 1, 42, 64
1, 44160, Note_off_c, 1, 54, 64
1, 44160, Note_off_c, 0, 42, 64
1, 44160, Note_off_c, 0, 54, 64
1, 44160, Note_off_c, 3, 28, 64
1, 44160, Pitch_bend_c, 1, 8192
1, 44160, Pitch_bend_c, 0, 8192
1, 44160, Note_on_c, 3, 25, 100
1, 44160, Note_on_c, 9, 36, 100
1, 44160, Note_on_c, 1, 37, 100
1, 44160, Pitch_bend_c, 1, 8192
1, 44160, Note_on_c, 0, 37, 100
1, 44160, Pitch_bend_c, 0, 8192
1, 44160, Note_on_c, 1, 49, 100
1, 44160, Note_on_c, 0, 49, 100
1, 44160, Note_on_c, 9, 46, 70
1, 44175, Control_c, 3, 7, 95
1, 44195, Control_c, 9, 7, 82
1, 44201, Control_c, 1, 7, 70
1, 44231, Control_c, 0, 7, 70
1, 44235, Control_c, 3, 7, 94
1, 44264, Control_c, 9, 7, 81
1, 44280, Note_off_c, 9, 36, 64
1, 44280, Note_off_c, 1, 37, 64
1, 44280, Note_off_c, 0, 37, 64
1, 44280, Note_off_c, 1, 49, 64
1, 44280, Note_off_c, 0, 49, 64
1, 44280, Note_off_c, 9, 46, 64
1, 44282, Control_c, 1, 7, 69
1, 44296, Control_c, 3, 7, 93
1, 44314, Control_c, 0, 7, 69
1, 44334, Control_c, 9, 7, 80
1, 44356, Control_c, 3, 7, 92
1, 44364, Control_c, 1, 7, 68
1, 44397, Control_c, 0, 7, 68
1, 44400, Note_off_c, 3, 25, 64
1, 44400, Note_on_c, 3, 25, 100
1, 44400, Note_on_c, 1, 37, 100
1, 44400, Note_on_c, 1, 49, 100
1, 44400, Note_on_c, 0, 37, 100
1, 44400, Note_on_c, 0, 49, 100
1, 44400, Note_on_c, 9, 36, 80
1, 44404, Control_c, 9, 7, 79
1, 44417, Control_c, 3, 7, 91
1, 44446, Control_c, 1, 7, 67
1, 44474, Control_c, 9, 7, 78
1, 44477, Control_c, 3, 7, 90
1, 44480, Control_c, 0, 7, 67
1, 44520, Note_off_c, 1, 37, 64
1, 44520, Note_off_c, 1, 49, 64
1, 44520, Note_off_c, 0, 37, 64
1, 44520, Note_off_c, 0, 49, 64
1, 44520, Note_off_c, 9, 36, 64
1, 44527, Control_c, 1, 7, 66
1, 44538, Control_c, 3, 7, 89
1, 44544, Control_c, 9, 7, 77
1, 44563, Control_c, 0, 7, 66
1, 44598, Control_c, 3, 7, 88
1, 44609, Control_c, 1, 7, 65
1, 44613, Control_c, 9, 7, 76
1, 44640, Note_off_c, 3, 25, 64
1, 44640, Note_on_c, 0, 44, 100
1, 44640, Note_on_c, 0, 56, 100
1, 44640, Note_on_c, 3, 32, 100
1, 44640, Note_on_c, 1, 44, 100
1, 44640, Note_on_c, 1, 56, 100
1, 44640, Note_on_c, 9, 38, 100
1, 44640, Note_on_c, 9, 46, 90
1, 44646, Control_c, 0, 7, 65
1, 44659, Control_c, 3, 7, 87
1, 44683, Control_c, 9, 7, 75
1, 44691, Control_c, 1, 7, 64
1, 44719, Control_c, 3, 7, 86
1, 44729, Control_c, 0, 7, 64
1, 44753, Control_c, 9, 7, 74
1, 44760, Note_off_c, 9, 38, 64
1, 44760, Note_off_c, 9, 46, 64
1, 44772, Control_c, 1, 7, 63
1, 44780, Control_c, 3, 7, 85
1, 44812, Control_c, 0, 7, 63
1, 44823, Control_c, 9, 7, 73
1, 44840, Control_c, 3, 7, 84
1, 44854, Control_c, 1, 7, 62
1, 44880, Note_off_c, 0, 44, 64
1, 44880, Note_off_c, 0, 56, 64
1, 44880, Note_off_c, 3, 32, 64
1, 44880, Note_off_c, 1, 44, 64
1, 44880, Note_off_c, 1, 56, 64
1, 44880, Note_on_c, 3, 25, 100
1, 44880, Note_on_c, 0, 49, 80
1, 44880, Note_on_c, 0, 37, 80
1, 44880, Note_on_c, 1, 49, 80
1, 44880, Note_on_c, 1, 37, 80
1, 44893, Control_c, 9, 7, 72
1, 44895, Control_c, 0, 7, 62
1, 44901, Control_c, 3, 7, 83
1, 44936, Control_c, 1, 7, 61
1, 44961, Control_c, 3, 7, 82
1, 44963, Control_c, 9, 7, 71
1, 44978, Control_c, 0, 7, 61
1, 45000, Note_off_c, 0, 49, 64
1, 45000, Note_off_c, 0, 37, 64
1, 45000, Note_off_c, 1, 49, 64
1, 45000, Note_off_c, 1, 37, 64
1, 45018, Control_c, 1, 7, 60
1, 45022, Control_c, 3, 7, 81
1, 45032, Control_c, 9, 7, 70
1, 45061, Control_c, 0, 7, 60
1, 45082, Control_c, 3, 7, 80
1, 45099, Control_c, 1, 7, 59
1, 45102, Control_c, 9, 7, 69
1, 45120, Note_off_c, 3, 25, 64
1, 45120, Note_on_c, 0, 40, 100
1, 45120, Note_on_c, 0, 52, 100
1, 45120, Note_on_c, 3, 28, 100
1, 45120, Note_on_c, 1, 40, 100
1, 45120, Note_on_c, 1, 52, 100
1, 45120, Note_on_c, 9, 36, 100
1, 45120, Note_on_c, 9, 46, 70
1, 45142, Control_c, 3, 7, 79
1, 45144, Control_c, 0, 7, 59
1, 45172, Control_c, 9, 7, 68
1, 45181, Control_c, 1, 7, 58
1, 45203, Control_c, 3, 7, 78
1, 45227, Control_c, 0, 7, 58
1, 45240, Note_off_c, 9, 36, 64
1, 45240, Note_off_c, 9, 46, 64
1, 45242, Control_c, 9, 7, 67
1, 45263, Control_c, 1, 7, 57
1, 45263, Control_c, 3, 7, 77
1, 45310, Control_c, 0, 7, 57
1, 45312, Control_c, 9, 7, 66
1, 45324, Control_c, 3, 7, 76
1, 45344, Control_c, 1, 7, 56
1, 45360, Note_off_c, 3, 28, 64
1, 45360, Pitch_bend_c, 0, 3840
1, 45360, Pitch_bend_c, 0, 3840
1, 45360, Pitch_bend_c, 1, 3840
1, 45360, Pitch_bend_c, 1, 3840
1, 45360, Note_on_c, 3, 27, 100
1, 45360, Note_on_c, 9, 36, 80
1, 45381, Control_c, 9, 7, 65
1, 45384, Control_c, 3, 7, 75
1, 45393, Control_c, 0, 7, 56
1, 45426, Control_c, 1, 7, 55
1, 45445, Control_c, 3, 7, 74
1, 45451, Control_c, 9, 7, 64
1, 45476, Control_c, 0, 7, 55
1, 45480, Note_off_c, 9, 36, 64
1, 45505, Control_c, 3, 7, 73
1, 45508, Control_c, 1, 7, 54
1, 45521, Control_c, 9, 7, 63
1, 45559, Control_c, 0, 7, 54
1, 45566, Control_c, 3, 7, 72
1, 45589, Control_c, 1, 7, 53
1, 45591, Control_c, 9, 7, 62
1, 45599, Pitch_bend_c, 0, 3840
1, 45599, Pitch_bend_c, 0, 3840
1, 45599, Pitch_bend_c, 1, 3840
1, 45599, Pitch_bend_c, 1, 3840
1, 45600, Note_off_c, 0, 40, 64
1, 45600, Note_off_c, 0, 52, 64
1, 45600, Note_off_c, 1, 40, 64
1, 45600, Note_off_c, 1, 52, 64
1, 45600, Note_off_c, 3, 27, 64
1, 45600, Note_on_c, 3, 24, 100
1, 45600, Note_on_c, 9, 38, 100
1, 45600, Note_on_c, 9, 46, 90
1, 45600, Pitch_bend_c, 0, 8192
1, 45600, Pitch_bend_c, 0, 8192
1, 45600, Note_on_c, 0, 49, 80
1, 45600, Note_on_c, 0, 37, 80
1, 45600, Pitch_bend_c, 1, 8192
1, 45600, Pitch_bend_c, 1, 8192
1, 45600, Note_on_c, 1, 49, 80
1, 45600, Note_on_c, 1, 37, 80
1, 45626, Control_c, 3, 7, 71
1, 45642, Control_c, 0, 7, 53
1, 45661, Control_c, 9, 7, 61
1, 45671, Control_c, 1, 7, 52
1, 45687, Control_c, 3, 7, 70
1, 45720, Note_off_c, 9, 38, 64
1, 45720, Note_off_c, 9, 46, 64
1, 45720, Note_off_c, 0, 49, 64
1, 45720, Note_off_c, 0, 37, 64
1, 45720, Note_off_c, 1, 49, 64
1, 45720, Note_off_c, 1, 37, 64
1, 45725, Control_c, 0, 7, 52
1, 45731, Control_c, 9, 7, 60
1, 45747, Control_c, 3, 7, 69
1, 45753, Control_c, 1, 7, 51
1, 45800, Control_c, 9, 7, 59
1, 45808, Control_c, 0, 7, 51
1, 45808, Control_c, 3, 7, 68
1, 45835, Control_c, 1, 7, 50
1, 45840, Note_off_c, 3, 24, 64
1, 45840, Note_on_c, 0, 40, 100
1, 45840, Note_on_c, 0, 52, 100
1, 45840, Note_on_c, 3, 28, 100
1, 45840, Note_on_c, 1, 40, 100
1, 45840, Note_on_c, 1, 52, 100
1, 45868, Control_c, 3, 7, 67
1, 45870, Control_c, 9, 7, 58
1, 45891, Control_c, 0, 7, 50
1, 45916, Control_c, 1, 7, 49
1, 45929, Control_c, 3, 7, 66
1, 45940, Control_c, 9, 7, 57
1, 45974, Control_c, 0, 7, 49
1, 45989, Control_c, 3, 7, 65
1, 45998, Control_c, 1, 7, 48
1, 46010, Control_c, 9, 7, 56
1, 46050, Control_c, 3, 7, 64
1, 46057, Control_c, 0, 7, 48
1, 46080, Note_off_c, 0, 40, 64
1, 46080, Note_off_c, 0, 52, 64
1, 46080, Note_off_c, 3, 28, 64
1, 46080, Note_off_c, 1, 40, 64
1, 46080, Note_off_c, 1, 52, 64
1, 46080, Note_on_c, 1, 37, 100
1, 46080, Note_on_c, 1, 49, 100
1, 46080, Control_c, 1, 7, 47
1, 46080, Note_on_c, 9, 36, 100
1, 46080, Control_c, 9, 7, 55
1, 46080, Note_on_c, 3, 25, 100
1, 46080, Note_on_c, 0, 37, 100
1, 46080, Note_on_c, 0, 49, 100
1, 46080, Note_on_c, 9, 46, 70
1, 46110, Control_c, 3, 7, 63
1, 46140, Control_c, 0, 7, 47
1, 46149, Control_c, 9, 7, 54
1, 46161, Control_c, 1, 7, 46
1, 46170, Control_c, 3, 7, 62
1, 46200, Note_off_c, 1, 37, 64
1, 46200, Note_off_c, 1, 49, 64
1, 46200, Note_off_c, 9, 36, 64
1, 46200, Note_off_c, 0, 37, 64
1, 46200, Note_off_c, 0, 49, 64
1, 46200, Note_off_c, 9, 46, 64
1, 46219, Control_c, 9, 7, 53
1, 46223, Control_c, 0, 7, 46
1, 46231, Control_c, 3, 7, 61
1, 46243, Control_c, 1, 7, 45
1, 46289, Control_c, 9, 7, 52
1, 46291, Control_c, 3, 7, 60
1, 46306, Control_c, 0, 7, 45
1, 46320, Note_off_c, 3, 25, 64
1, 46320, Note_on_c, 1, 37, 100
1, 46320, Note_on_c, 1, 49, 100
1, 46320, Note_on_c, 3, 25, 100
1, 46320, Note_on_c, 0, 37, 100
1, 46320, Note_on_c, 0, 49, 100
1, 46320, Note_on_c, 9, 36, 80
1, 46325, Control_c, 1, 7, 44
1, 46352, Control_c, 3, 7, 59
1, 46359, Control_c, 9, 7, 51
1, 46389, Control_c, 0, 7, 44
1, 46406, Control_c, 1, 7, 43
1, 46412, Control_c, 3, 7, 58
1, 46429, Control_c, 9, 7, 50
1, 46440, Note_off_c, 1, 37, 64
1, 46440, Note_off_c, 1, 49, 64
1, 46440, Note_off_c, 0, 37, 64
1, 46440, Note_off_c, 0, 49, 64
1, 46440, Note_off_c, 9, 36, 64
1, 46472, Control_c, 0, 7, 43
1, 46473, Control_c, 3, 7, 57
1, 46488, Control_c, 1, 7, 42
1, 46498, Control_c, 9, 7, 49
1, 46533, Control_c, 3, 7, 56
1, 46554, Control_c, 0, 7, 42
1, 46560, Note_off_c, 3, 25, 64
1, 46560, Note_on_c, 1, 40, 100
1, 46560, Note_on_c, 1, 52, 100
1, 46560, Note_on_c, 9, 38, 100
1, 46560, Note_on_c, 9, 46, 90
1, 46560, Note_on_c, 3, 28, 100
1, 46560, Note_on_c, 0, 40, 100
1, 46560, Note_on_c, 0, 52, 100
1, 46568, Control_c, 9, 7, 48
1, 46570, Control_c, 1, 7, 41
1, 46594, Control_c, 3, 7, 55
1, 46637, Control_c, 0, 7, 41
1, 46638, Control_c, 9, 7, 47
1, 46652, Control_c, 1, 7, 40
1, 46654, Control_c, 3, 7, 54
1, 46680, Note_off_c, 9, 38, 64
1, 46680, Note_off_c, 9, 46, 64
1, 46708, Control_c, 9, 7, 46
1, 46715, Control_c, 3, 7, 53
1, 46720, Control_c, 0, 7, 40
1, 46733, Control_c, 1, 7, 39
1, 46775, Control_c, 3, 7, 52
1, 46778, Control_c, 9, 7, 45
1, 46800, Note_off_c, 3, 28, 64
1, 46800, Pitch_bend_c, 0, 3840
1, 46800, Pitch_bend_c, 0, 3840
1, 46800, Pitch_bend_c, 1, 3840
1, 46800, Pitch_bend_c, 1, 3840
1, 46800, Note_on_c, 3, 27, 100
1, 46803, Control_c, 0, 7, 39
1, 46815, Control_c, 1, 7, 38
1, 46836, Control_c, 3, 7, 51
1, 46848, Control_c, 9, 7, 44
1, 46886, Control_c, 0, 7, 38
1, 46896, Control_c, 3, 7, 50
1, 46897, Control_c, 1, 7, 37
1, 46917, Control_c, 9, 7, 43
1, 46957, Control_c, 3, 7, 49
1, 46969, Control_c, 0, 7, 37
1, 46978, Control_c, 1, 7, 36
1, 46987, Control_c, 9, 7, 42
1, 47017, Control_c, 3, 7, 48
1, 47039, Pitch_bend_c, 0, 3840
1, 47039, Pitch_bend_c, 0, 3840
1, 47039, Pitch_bend_c, 1, 3840
1, 47039, Pitch_bend_c, 1, 3840
1, 47040, Note_off_c, 1, 40, 64
1, 47040, Note_off_c, 1, 52, 64
1, 47040, Note_off_c, 0, 40, 64
1, 47040, Note_off_c, 0, 52, 64
1, 47040, Note_off_c, 3, 27, 64
1, 47040, Pitch_bend_c, 0, 8192
1, 47040, Pitch_bend_c, 1, 8192
1, 47040, Note_on_c, 9, 36, 100
1, 47040, Note_on_c, 3, 25, 100
1, 47040, Note_on_c, 0, 37, 100
1, 47040, Pitch_bend_c, 0, 8192
1, 47040, Note_on_c, 1, 37, 100
1, 47040, Pitch_bend_c, 1, 8192
1, 47040, Note_on_c, 0, 49, 100
1, 47040, Note_on_c, 1, 49, 100
1, 47040, Note_on_c, 9, 46, 70
1, 47052, Control_c, 0, 7, 36
1, 47057, Control_c, 9, 7, 41
1, 47060, Control_c, 1, 7, 35
1, 47077, Control_c, 3, 7, 47
1, 47127, Control_c, 9, 7, 40
1, 47135, Control_c, 0, 7, 35
1, 47138, Control_c, 3, 7, 46
1, 47142, Control_c, 1, 7, 34
1, 47160, Note_off_c, 9, 36, 64
1, 47160, Note_off_c, 0, 37, 64
1, 47160, Note_off_c, 1, 37, 64
1, 47160, Note_off_c, 0, 49, 64
1, 47160, Note_off_c, 1, 49, 64
1, 47160, Note_off_c, 9, 46, 64
1, 47197, Control_c, 9, 7, 39
1, 47198, Control_c, 3, 7, 45
1, 47218, Control_c, 0, 7, 34
1, 47223, Control_c, 1, 7, 33
1, 47259, Control_c, 3, 7, 44
1, 47266, Control_c, 9, 7, 38
1, 47280, Note_off_c, 3, 25, 64
1, 47280, Note_on_c, 0, 37, 100
1, 47280, Note_on_c, 0, 49, 100
1, 47280, Note_on_c, 1, 37, 100
1, 47280, Note_on_c, 1, 49, 100
1, 47280, Note_on_c, 3, 25, 100
1, 47280, Note_on_c, 9, 36, 80
1, 47301, Control_c, 0, 7, 33
1, 47305, Control_c, 1, 7, 32
1, 47319, Control_c, 3, 7, 43
1, 47336, Control_c, 9, 7, 37
1, 47380, Control_c, 3, 7, 42
1, 47384, Control_c, 0, 7, 32
1, 47387, Control_c, 1, 7, 31
1, 47400, Note_off_c, 0, 37, 64
1, 47400, Note_off_c, 0, 49, 64
1, 47400, Note_off_c, 1, 37, 64
1, 47400, Note_off_c, 1, 49, 64
1, 47400, Note_off_c, 9, 36, 64
1, 47406, Control_c, 9, 7, 36
1, 47440, Control_c, 3, 7, 41
1, 47467, Control_c, 0, 7, 31
1, 47469, Control_c, 1, 7, 30
1, 47476, Control_c, 9, 7, 35
1, 47501, Control_c, 3, 7, 40
1, 47520, Note_off_c, 3, 25, 64
1, 47520, Note_on_c, 0, 42, 100
1, 47520, Note_on_c, 0, 54, 100
1, 47520, Note_on_c, 1, 42, 100
1, 47520, Note_on_c, 1, 54, 100
1, 47520, Note_on_c, 9, 38, 100
1, 47520, Note_on_c, 9, 46, 90
1, 47520, Note_on_c, 3, 30, 100
1, 47546, Control_c, 9, 7, 34
1, 47550, Control_c, 0, 7, 30
1, 47550, Control_c, 1, 7, 29
1, 47561, Control_c, 3, 7, 39
1, 47616, Control_c, 9, 7, 33
1, 47622, Control_c, 3, 7, 38
1, 47632, Control_c, 1, 7, 28
1, 47633, Control_c, 0, 7, 29
1, 47640, Note_off_c, 9, 38, 64
1, 47640, Note_off_c, 9, 46, 64
1, 47682, Control_c, 3, 7, 37
1, 47685, Control_c, 9, 7, 32
1, 47714, Control_c, 1, 7, 27
1, 47716, Control_c, 0, 7, 28
1, 47743, Control_c, 3, 7, 36
1, 47755, Control_c, 9, 7, 31
1, 47760, Note_off_c, 3, 30, 64
1, 47760, Pitch_bend_c, 1, 256
1, 47760, Pitch_bend_c, 1, 256
1, 47760, Pitch_bend_c, 0, 256
1, 47760, Pitch_bend_c, 0, 256
1, 47760, Note_on_c, 3, 28, 100
1, 47795, Control_c, 1, 7, 26
1, 47799, Control_c, 0, 7, 27
1, 47803, Control_c, 3, 7, 35
1, 47825, Control_c, 9, 7, 30
1, 47864, Control_c, 3, 7, 34
1, 47877, Control_c, 1, 7, 25
1, 47882, Control_c, 0, 7, 26
1, 47895, Control_c, 9, 7, 29
1, 47924, Control_c, 3, 7, 33
1, 47959, Control_c, 1, 7, 24
1, 47965, Control_c, 0, 7, 25
1, 47965, Control_c, 9, 7, 28
1, 47985, Control_c, 3, 7, 32
1, 47999, Pitch_bend_c, 1, 256
1, 47999, Pitch_bend_c, 1, 256
1, 47999, Pitch_bend_c, 0, 256
1, 47999, Pitch_bend_c, 0, 256
1, 48000, Note_off_c, 0, 42, 64
1, 48000, Note_off_c, 0, 54, 64
1, 48000, Note_off_c, 1, 42, 64
1, 48000, Note_off_c, 1, 54, 64
1, 48000, Note_off_c, 3, 28, 64
1, 48000, Pitch_bend_c, 1, 8192
1, 48000, Pitch_bend_c, 0, 8192
1, 48000, Note_on_c, 9, 36, 100
1, 48000, Note_on_c, 3, 25, 100
1, 48000, Note_on_c, 1, 37, 100
1, 48000, Pitch_bend_c, 1, 8192
1, 48000, Note_on_c, 0, 37, 100
1, 48000, Pitch_bend_c, 0, 8192
1, 48000, Note_on_c, 1, 49, 100
1, 48000, Note_on_c, 0, 49, 100
1, 48000, Note_on_c, 9, 46, 70
1, 48034, Control_c, 9, 7, 27
1, 48040, Control_c, 1, 7, 23
1, 48045, Control_c, 3, 7, 31
1, 48048, Control_c, 0, 7, 24
1, 48104, Control_c, 9, 7, 26
1, 48105, Control_c, 3, 7, 30
1, 48120, Note_off_c, 9, 36, 64
1, 48120, Note_off_c, 1, 37, 64
1, 48120, Note_off_c, 0, 37, 64
1, 48120, Note_off_c, 1, 49, 64
1, 48120, Note_off_c, 0, 49, 64
1, 48120, Note_off_c, 9, 46, 64
1, 48122, Control_c, 1, 7, 22
1, 48131, Control_c, 0, 7, 23
1, 48166, Control_c, 3, 7, 29
1, 48174, Control_c, 9, 7, 25
1, 48204, Control_c, 1, 7, 21
1, 48214, Control_c, 0, 7, 22
1, 48226, Control_c, 3, 7, 28
1, 48240, Note_off_c, 3, 25, 64
1, 48240, Note_on_c, 1, 37, 100
1, 48240, Note_on_c, 1, 49, 100
1, 48240, Note_on_c, 0, 37, 100
1, 48240, Note_on_c, 0, 49, 100
1, 48240, Note_on_c, 3, 25, 100
1, 48240, Note_on_c, 9, 36, 80
1, 48244, Control_c, 9, 7, 24
1, 48286, Control_c, 1, 7, 20
1, 48287, Control_c, 3, 7, 27
1, 48297, Control_c, 0, 7, 21
1, 48314, Control_c, 9, 7, 23
1, 48347, Control_c, 3, 7, 26
1, 48360, Note_off_c, 1, 37, 64
1, 48360, Note_off_c, 1, 49, 64
1, 48360, Note_off_c, 0, 37, 64
1, 48360, Note_off_c, 0, 49, 64
1, 48360, Note_off_c, 9, 36, 64
1, 48367, Control_c, 1, 7, 19
1, 48380, Control_c, 0, 7, 20
1, 48384, Control_c, 9, 7, 22
1, 48408, Control_c, 3, 7, 25
1, 48449, Control_c, 1, 7, 18
1, 48453, Control_c, 9, 7, 21
1, 48463, Control_c, 0, 7, 19
1, 48468, Control_c, 3, 7, 24
1, 48480, Note_off_c, 3, 25, 64
1, 48480, Note_on_c, 1, 44, 100
1, 48480, Note_on_c, 1, 56, 100
1, 48480, Note_on_c, 9, 38, 100
1, 48480, Note_on_c, 9, 46, 90
1, 48480, Note_on_c, 0, 44, 100
1, 48480, Note_on_c, 0, 56, 100
1, 48480, Note_on_c, 3, 32, 100
1, 48523, Control_c, 9, 7, 20
1, 48529, Control_c, 3, 7, 23
1, 48531, Control_c, 1, 7, 17
1, 48546, Control_c, 0, 7, 18
1, 48589, Control_c, 3, 7, 22
1, 48593, Control_c, 9, 7, 19
1, 48600, Note_off_c, 9, 38, 64
1, 48600, Note_off_c, 9, 46, 64
1, 48612, Control_c, 1, 7, 16
1, 48629, Control_c, 0, 7, 17
1, 48650, Control_c, 3, 7, 21
1, 48663, Control_c, 9, 7, 18
1, 48694, Control_c, 1, 7, 15
1, 48710, Control_c, 3, 7, 20
1, 48712, Control_c, 0, 7, 16
1, 48720, Note_off_c, 1, 44, 64
1, 48720, Note_off_c, 1, 56, 64
1, 48720, Note_off_c, 0, 44, 64
1, 48720, Note_off_c, 0, 56, 64
1, 48720, Note_off_c, 3, 32, 64
1, 48720, Note_on_c, 3, 25, 100
1, 48720, Note_on_c, 1, 49, 80
1, 48720, Note_on_c, 1, 37, 80
1, 48720, Note_on_c, 0, 49, 80
1, 48720, Note_on_c, 0, 37, 80
1, 48733, Control_c, 9, 7, 17
1, 48771, Control_c, 3, 7, 19
1, 48776, Control_c, 1, 7, 14
1, 48795, Control_c, 0, 7, 15
1, 48802, Control_c, 9, 7, 16
1, 48831, Control_c, 3, 7, 18
1, 48840, Note_off_c, 1, 49, 64
1, 48840, Note_off_c, 1, 37, 64
1, 48840, Note_off_c, 0, 49, 64
1, 48840, Note_off_c, 0, 37, 64
1, 48857, Control_c, 1, 7, 13
1, 48872, Control_c, 9, 7, 15
1, 48878, Control_c, 0, 7, 14
1, 48892, Control_c, 3, 7, 17
1, 48939, Control_c, 1, 7, 12
1, 48942, Control_c, 9, 7, 14
1, 48952, Control_c, 3, 7, 16
1, 48960, Note_off_c, 3, 25, 64
1, 48960, Note_on_c, 0, 55, 100
1, 48960, Note_on_c, 0, 43, 100
1, 48960, Note_on_c, 1, 55, 100
1, 48960, Note_on_c, 1, 43, 100
1, 48960, Note_on_c, 9, 36, 100
1, 48960, Note_on_c, 3, 31, 100
1, 48960, Note_on_c, 9, 46, 70
1, 48961, Control_c, 0, 7, 13
1, 49012, Control_c, 3, 7, 15
1, 49012, Control_c, 9, 7, 13
1, 49021, Control_c, 1, 7, 11
1, 49044, Control_c, 0, 7, 12
1, 49073, Control_c, 3, 7, 14
1, 49080, Note_off_c, 9, 36, 64
1, 49080, Note_off_c, 9, 46, 64
1, 49082, Control_c, 9, 7, 12
1, 49103, Control_c, 1, 7, 10
1, 49127, Control_c, 0, 7, 11
1, 49133, Control_c, 3, 7, 13
1, 49152, Control_c, 9, 7, 11
1, 49184, Control_c, 1, 7, 9
1, 49194, Control_c, 3, 7, 12
1, 49200, Note_off_c, 0, 55, 64
1, 49200, Note_off_c, 0, 43, 64
1, 49200, Note_off_c, 1, 55, 64
1, 49200, Note_off_c, 1, 43, 64
1, 49200, Note_off_c, 3, 31, 64
1, 49200, Note_on_c, 0, 52, 100
1, 49200, Note_on_c, 0, 40, 100
1, 49200, Note_on_c, 1, 52, 100
1, 49200, Note_on_c, 1, 40, 100
1, 49200, Note_on_c, 3, 28, 100
1, 49200, Note_on_c, 9, 36, 80
1, 49210, Control_c, 0, 7, 10
1, 49221, Control_c, 9, 7, 10
1, 49254, Control_c, 3, 7, 11
1, 49266, Control_c, 1, 7, 8
1, 49291, Control_c, 9, 7, 9
1, 49293, Control_c, 0, 7, 9
1, 49315, Control_c, 3, 7, 10
1, 49320, Note_off_c, 9, 36, 64
1, 49348, Control_c, 1, 7, 7
1, 49361, Control_c, 9, 7, 8
1, 49375, Control_c, 3, 7, 9
1, 49376, Control_c, 0, 7, 8
1, 49429, Control_c, 1, 7, 6
1, 49431, Control_c, 9, 7, 7
1, 49436, Control_c, 3, 7, 8
1, 49440, Note_on_c, 9, 38, 100
1, 49440, Note_on_c, 9, 46, 90
1, 49459, Control_c, 0, 7, 7
1, 49496, Control_c, 3, 7, 7
1, 49501, Control_c, 9, 7, 6
1, 49511, Control_c, 1, 7, 5
1, 49542, Control_c, 0, 7, 6
1, 49557, Control_c, 3, 7, 6
1, 49560, Note_off_c, 9, 38, 64
1, 49560, Note_off_c, 9, 46, 64
1, 49570, Control_c, 9, 7, 5
1, 49593, Control_c, 1, 7, 4
1, 49617, Control_c, 3, 7, 5
1, 49625, Control_c, 0, 7, 5
1, 49640, Control_c, 9, 7, 4
1, 49674, Control_c, 1, 7, 3
1, 49678, Control_c, 3, 7, 4
1, 49708, Control_c, 0, 7, 4
1, 49710, Control_c, 9, 7, 3
1, 49738, Control_c, 3, 7, 3
1, 49756, Control_c, 1, 7, 2
1, 49780, Control_c, 9, 7, 2
1, 49791, Control_c, 0, 7, 3
1, 49799, Control_c, 3, 7, 2
1, 49838, Control_c, 1, 7, 1
1, 49850, Control_c, 9, 7, 1
1, 49859, Control_c, 3, 7, 1
1, 49874, Control_c, 0, 7, 2
1, 49919, Control_c, 1, 7, 0
1, 49919, Control_c, 9, 7, 0
1, 49919, Control_c, 3, 7, 0
1, 49920, Note_off_c, 1, 40, 64
1, 49920, Note_off_c, 1, 52, 64
1, 49920, Pitch_bend_c, 1, 8192
1, 49920, Note_off_c, 3, 28, 64
1, 49920, Note_off_c, 0, 52, 64
1, 49920, Note_off_c, 0, 40, 64
1, 49957, Control_c, 0, 7, 1
1, 50039, Control_c, 0, 7, 0
1, 51840, Pitch_bend_c, 0, 8192
1, 51840, Pitch_bend_c, 1, 8192
1, 51840, Pitch_bend_c, 2, 8192
1, 51840, Pitch_bend_c, 4, 8192
1, 51840, End_track
0, 0, End_of_file
