0, 0, Header, 1, 11, 384
1, 0, Start_track
1, 0, Tempo, 250000
1, 0, Time_signature, 4, 2, 24, 8
1, 319488, End_track
2, 0, Start_track
2, 0, Title_t, "FFXPrelude"
2, 0, Control_c, 0, 7, 110
2, 0, Program_c, 0, 81
2, 0, Control_c, 0, 10, 49
2, 0, Control_c, 0, 91, 67
2, 0, Note_on_c, 0, 67, 42
2, 96, Note_off_c, 0, 67, 64
2, 384, Note_on_c, 0, 67, 45
2, 480, Note_off_c, 0, 67, 64
2, 768, Note_on_c, 0, 67, 49
2, 864, Note_off_c, 0, 67, 64
2, 1056, Note_on_c, 0, 60, 52
2, 1152, Note_off_c, 0, 60, 64
2, 1440, Note_on_c, 0, 67, 55
2, 1536, Note_off_c, 0, 67, 64
2, 1920, Note_on_c, 0, 67, 60
2, 2016, Note_off_c, 0, 67, 64
2, 2304, Note_on_c, 0, 67, 63
2, 2400, Note_off_c, 0, 67, 64
2, 2592, Note_on_c, 0, 60, 66
2, 2688, Note_off_c, 0, 60, 64
2, 2976, Note_on_c, 0, 67, 69
2, 3072, Note_off_c, 0, 67, 64
2, 3456, Note_on_c, 0, 67, 74
2, 3552, Note_off_c, 0, 67, 64
2, 3840, Note_on_c, 0, 67, 77
2, 3936, Note_off_c, 0, 67, 64
2, 4128, Note_on_c, 0, 60, 80
2, 4224, Note_off_c, 0, 60, 64
2, 4512, Note_on_c, 0, 67, 83
2, 4608, Note_off_c, 0, 67, 64
2, 4992, Note_on_c, 0, 67, 88
2, 5088, Note_off_c, 0, 67, 64
2, 5376, Note_on_c, 0, 67, 91
2, 5472, Note_off_c, 0, 67, 64
2, 5664, Note_on_c, 0, 60, 94
2, 5760, Note_off_c, 0, 60, 64
2, 6048, Note_on_c, 0, 67, 98
2, 6144, Note_off_c, 0, 67, 64
2, 6144, Control_c, 0, 7, 110
2, 6144, Program_c, 0, 81
2, 6528, Note_on_c, 0, 67, 96
2, 6624, Note_off_c, 0, 67, 64
2, 6912, Note_on_c, 0, 67, 96
2, 7008, Note_off_c, 0, 67, 64
2, 7200, Note_on_c, 0, 60, 96
2, 7296, Note_off_c, 0, 60, 64
2, 7584, Note_on_c, 0, 67, 96
2, 7680, Note_off_c, 0, 67, 64
2, 8064, Note_on_c, 0, 67, 96
2, 8160, Note_off_c, 0, 67, 64
2, 8448, Note_on_c, 0, 67, 96
2, 8544, Note_off_c, 0, 67, 64
2, 8736, Note_on_c, 0, 60, 96
2, 8832, Note_off_c, 0, 60, 64
2, 9120, Note_on_c, 0, 67, 96
2, 9216, Note_off_c, 0, 67, 64
2, 9600, Note_on_c, 0, 67, 96
2, 9696, Note_off_c, 0, 67, 64
2, 9984, Note_on_c, 0, 67, 96
2, 10080, Note_off_c, 0, 67, 64
2, 10272, Note_on_c, 0, 60, 96
2, 10368, Note_off_c, 0, 60, 64
2, 10656, Note_on_c, 0, 67, 96
2, 10752, Note_off_c, 0, 67, 64
2, 11136, Note_on_c, 0, 67, 96
2, 11232, Note_off_c, 0, 67, 64
2, 11520, Note_on_c, 0, 67, 96
2, 11616, Note_off_c, 0, 67, 64
2, 11808, Note_on_c, 0, 60, 96
2, 11904, Note_off_c, 0, 60, 64
2, 12192, Note_on_c, 0, 67, 96
2, 12288, Note_off_c, 0, 67, 64
2, 12288, Control_c, 0, 7, 110
2, 12288, Program_c, 0, 81
2, 12672, Note_on_c, 0, 67, 96
2, 12768, Note_off_c, 0, 67, 64
2, 13056, Note_on_c, 0, 67, 96
2, 13152, Note_off_c, 0, 67, 64
2, 13344, Note_on_c, 0, 60, 96
2, 13440, Note_off_c, 0, 60, 64
2, 13728, Note_on_c, 0, 67, 96
2, 13824, Note_off_c, 0, 67, 64
2, 14208, Note_on_c, 0, 67, 96
2, 14304, Note_off_c, 0, 67, 64
2, 14592, Note_on_c, 0, 67, 96
2, 14688, Note_off_c, 0, 67, 64
2, 14880, Note_on_c, 0, 60, 96
2, 14976, Note_off_c, 0, 60, 64
2, 15264, Note_on_c, 0, 67, 96
2, 15360, Note_off_c, 0, 67, 64
2, 15360, Control_c, 0, 7, 110
2, 15360, Program_c, 0, 81
2, 15744, Note_on_c, 0, 67, 96
2, 15840, Note_off_c, 0, 67, 64
2, 16128, Note_on_c, 0, 67, 96
2, 16224, Note_off_c, 0, 67, 64
2, 16416, Note_on_c, 0, 60, 96
2, 16512, Note_off_c, 0, 60, 64
2, 16800, Note_on_c, 0, 67, 96
2, 16896, Note_off_c, 0, 67, 64
2, 17280, Note_on_c, 0, 67, 96
2, 17376, Note_off_c, 0, 67, 64
2, 17664, Note_on_c, 0, 67, 96
2, 17760, Note_off_c, 0, 67, 64
2, 17952, Note_on_c, 0, 60, 96
2, 18048, Note_off_c, 0, 60, 64
2, 18336, Note_on_c, 0, 67, 96
2, 18432, Note_off_c, 0, 67, 64
2, 18432, Control_c, 0, 7, 110
2, 18432, Program_c, 0, 81
2, 18816, Note_on_c, 0, 67, 96
2, 18912, Note_off_c, 0, 67, 64
2, 19200, Note_on_c, 0, 67, 96
2, 19296, Note_off_c, 0, 67, 64
2, 19488, Note_on_c, 0, 60, 96
2, 19584, Note_off_c, 0, 60, 64
2, 19872, Note_on_c, 0, 67, 96
2, 19968, Note_off_c, 0, 67, 64
2, 20352, Note_on_c, 0, 67, 96
2, 20448, Note_off_c, 0, 67, 64
2, 20736, Note_on_c, 0, 67, 96
2, 20832, Note_off_c, 0, 67, 64
2, 21024, Note_on_c, 0, 60, 96
2, 21120, Note_off_c, 0, 60, 64
2, 21408, Note_on_c, 0, 67, 96
2, 21504, Note_off_c, 0, 67, 64
2, 21504, Control_c, 0, 7, 110
2, 21504, Program_c, 0, 81
2, 21888, Note_on_c, 0, 67, 96
2, 21984, Note_off_c, 0, 67, 64
2, 22272, Note_on_c, 0, 67, 96
2, 22368, Note_off_c, 0, 67, 64
2, 22560, Note_on_c, 0, 60, 96
2, 22656, Note_off_c, 0, 60, 64
2, 22944, Note_on_c, 0, 67, 96
2, 23040, Note_off_c, 0, 67, 64
2, 23424, Note_on_c, 0, 67, 96
2, 23520, Note_off_c, 0, 67, 64
2, 23808, Note_on_c, 0, 67, 96
2, 23904, Note_off_c, 0, 67, 64
2, 24096, Note_on_c, 0, 60, 96
2, 24192, Note_off_c, 0, 60, 64
2, 24480, Note_on_c, 0, 67, 96
2, 24576, Note_off_c, 0, 67, 64
2, 24576, Control_c, 0, 7, 110
2, 24576, Program_c, 0, 81
2, 24960, Note_on_c, 0, 67, 96
2, 25056, Note_off_c, 0, 67, 64
2, 25344, Note_on_c, 0, 67, 96
2, 25440, Note_off_c, 0, 67, 64
2, 25632, Note_on_c, 0, 60, 96
2, 25728, Note_off_c, 0, 60, 64
2, 26016, Note_on_c, 0, 67, 96
2, 26112, Note_off_c, 0, 67, 64
2, 26496, Note_on_c, 0, 67, 96
2, 26592, Note_off_c, 0, 67, 64
2, 26880, Note_on_c, 0, 67, 96
2, 26976, Note_off_c, 0, 67, 64
2, 27168, Note_on_c, 0, 60, 96
2, 27264, Note_off_c, 0, 60, 64
2, 27552, Note_on_c, 0, 67, 96
2, 27648, Note_off_c, 0, 67, 64
2, 28032, Note_on_c, 0, 67, 96
2, 28128, Note_off_c, 0, 67, 64
2, 28416, Note_on_c, 0, 67, 96
2, 28512, Note_off_c, 0, 67, 64
2, 28704, Note_on_c, 0, 60, 96
2, 28800, Note_off_c, 0, 60, 64
2, 29088, Note_on_c, 0, 67, 96
2, 29184, Note_off_c, 0, 67, 64
2, 29568, Note_on_c, 0, 67, 96
2, 29664, Note_off_c, 0, 67, 64
2, 29952, Note_on_c, 0, 67, 96
2, 30048, Note_off_c, 0, 67, 64
2, 30240, Note_on_c, 0, 60, 96
2, 30336, Note_off_c, 0, 60, 64
2, 30624, Note_on_c, 0, 67, 96
2, 30720, Note_off_c, 0, 67, 64
2, 30720, Control_c, 0, 7, 110
2, 30720, Program_c, 0, 81
2, 31104, Note_on_c, 0, 67, 96
2, 31200, Note_off_c, 0, 67, 64
2, 31488, Note_on_c, 0, 67, 96
2, 31584, Note_off_c, 0, 67, 64
2, 31776, Note_on_c, 0, 60, 96
2, 31872, Note_off_c, 0, 60, 64
2, 32160, Note_on_c, 0, 67, 96
2, 32256, Note_off_c, 0, 67, 64
2, 32640, Note_on_c, 0, 67, 96
2, 32736, Note_off_c, 0, 67, 64
2, 33024, Note_on_c, 0, 67, 96
2, 33120, Note_off_c, 0, 67, 64
2, 33312, Note_on_c, 0, 60, 96
2, 33408, Note_off_c, 0, 60, 64
2, 33696, Note_on_c, 0, 67, 96
2, 33792, Note_off_c, 0, 67, 64
2, 34176, Note_on_c, 0, 67, 96
2, 34272, Note_off_c, 0, 67, 64
2, 34560, Note_on_c, 0, 67, 96
2, 34656, Note_off_c, 0, 67, 64
2, 34848, Note_on_c, 0, 60, 96
2, 34944, Note_off_c, 0, 60, 64
2, 35232, Note_on_c, 0, 67, 96
2, 35328, Note_off_c, 0, 67, 64
2, 35712, Note_on_c, 0, 67, 96
2, 35808, Note_off_c, 0, 67, 64
2, 36096, Note_on_c, 0, 67, 96
2, 36192, Note_off_c, 0, 67, 64
2, 36384, Note_on_c, 0, 60, 96
2, 36480, Note_off_c, 0, 60, 64
2, 36768, Note_on_c, 0, 67, 96
2, 36864, Note_off_c, 0, 67, 64
2, 36864, Control_c, 0, 7, 110
2, 36864, Program_c, 0, 81
2, 37248, Note_on_c, 0, 67, 96
2, 37344, Note_off_c, 0, 67, 64
2, 37632, Note_on_c, 0, 67, 96
2, 37728, Note_off_c, 0, 67, 64
2, 37920, Note_on_c, 0, 60, 96
2, 38016, Note_off_c, 0, 60, 64
2, 38304, Note_on_c, 0, 67, 96
2, 38400, Note_off_c, 0, 67, 64
2, 38784, Note_on_c, 0, 67, 96
2, 38880, Note_off_c, 0, 67, 64
2, 39168, Note_on_c, 0, 67, 96
2, 39264, Note_off_c, 0, 67, 64
2, 39456, Note_on_c, 0, 60, 96
2, 39552, Note_off_c, 0, 60, 64
2, 39840, Note_on_c, 0, 67, 96
2, 39936, Note_off_c, 0, 67, 64
2, 40320, Note_on_c, 0, 67, 96
2, 40416, Note_off_c, 0, 67, 64
2, 40704, Note_on_c, 0, 67, 96
2, 40800, Note_off_c, 0, 67, 64
2, 40992, Note_on_c, 0, 60, 96
2, 41088, Note_off_c, 0, 60, 64
2, 41376, Note_on_c, 0, 67, 96
2, 41472, Note_off_c, 0, 67, 64
2, 41856, Note_on_c, 0, 67, 96
2, 41952, Note_off_c, 0, 67, 64
2, 42240, Note_on_c, 0, 67, 96
2, 42336, Note_off_c, 0, 67, 64
2, 42528, Note_on_c, 0, 60, 96
2, 42624, Note_off_c, 0, 60, 64
2, 42912, Note_on_c, 0, 67, 96
2, 43008, Note_off_c, 0, 67, 64
2, 43008, Control_c, 0, 7, 110
2, 43008, Program_c, 0, 81
2, 43392, Note_on_c, 0, 67, 96
2, 43488, Note_off_c, 0, 67, 64
2, 43776, Note_on_c, 0, 67, 96
2, 43872, Note_off_c, 0, 67, 64
2, 44064, Note_on_c, 0, 60, 96
2, 44160, Note_off_c, 0, 60, 64
2, 44448, Note_on_c, 0, 67, 96
2, 44544, Note_off_c, 0, 67, 64
2, 44928, Note_on_c, 0, 67, 96
2, 45024, Note_off_c, 0, 67, 64
2, 45312, Note_on_c, 0, 67, 96
2, 45408, Note_off_c, 0, 67, 64
2, 45600, Note_on_c, 0, 60, 96
2, 45696, Note_off_c, 0, 60, 64
2, 45984, Note_on_c, 0, 67, 96
2, 46080, Note_off_c, 0, 67, 64
2, 46464, Note_on_c, 0, 67, 96
2, 46560, Note_off_c, 0, 67, 64
2, 46848, Note_on_c, 0, 67, 96
2, 46944, Note_off_c, 0, 67, 64
2, 47136, Note_on_c, 0, 60, 96
2, 47232, Note_off_c, 0, 60, 64
2, 47520, Note_on_c, 0, 67, 96
2, 47616, Note_off_c, 0, 67, 64
2, 48000, Note_on_c, 0, 67, 96
2, 48096, Note_off_c, 0, 67, 64
2, 48384, Note_on_c, 0, 67, 96
2, 48480, Note_off_c, 0, 67, 64
2, 48672, Note_on_c, 0, 60, 96
2, 48768, Note_off_c, 0, 60, 64
2, 49056, Note_on_c, 0, 67, 96
2, 49152, Note_off_c, 0, 67, 64
2, 49152, Control_c, 0, 7, 110
2, 49152, Program_c, 0, 81
2, 49536, Note_on_c, 0, 67, 96
2, 49632, Note_off_c, 0, 67, 64
2, 49920, Note_on_c, 0, 67, 96
2, 50016, Note_off_c, 0, 67, 64
2, 50208, Note_on_c, 0, 60, 96
2, 50304, Note_off_c, 0, 60, 64
2, 50592, Note_on_c, 0, 67, 96
2, 50688, Note_off_c, 0, 67, 64
2, 51072, Note_on_c, 0, 67, 96
2, 51168, Note_off_c, 0, 67, 64
2, 51456, Note_on_c, 0, 67, 96
2, 51552, Note_off_c, 0, 67, 64
2, 51744, Note_on_c, 0, 60, 96
2, 51840, Note_off_c, 0, 60, 64
2, 52128, Note_on_c, 0, 67, 96
2, 52224, Note_off_c, 0, 67, 64
2, 52608, Note_on_c, 0, 67, 96
2, 52704, Note_off_c, 0, 67, 64
2, 52992, Note_on_c, 0, 67, 96
2, 53088, Note_off_c, 0, 67, 64
2, 53280, Note_on_c, 0, 60, 96
2, 53376, Note_off_c, 0, 60, 64
2, 53664, Note_on_c, 0, 67, 96
2, 53760, Note_off_c, 0, 67, 64
2, 54144, Note_on_c, 0, 67, 96
2, 54240, Note_off_c, 0, 67, 64
2, 54528, Note_on_c, 0, 67, 96
2, 54624, Note_off_c, 0, 67, 64
2, 54816, Note_on_c, 0, 60, 96
2, 54912, Note_off_c, 0, 60, 64
2, 55200, Note_on_c, 0, 67, 96
2, 55296, Note_off_c, 0, 67, 64
2, 55296, Control_c, 0, 7, 110
2, 55296, Program_c, 0, 81
2, 55680, Note_on_c, 0, 67, 96
2, 55776, Note_off_c, 0, 67, 64
2, 56064, Note_on_c, 0, 67, 96
2, 56160, Note_off_c, 0, 67, 64
2, 56352, Note_on_c, 0, 60, 96
2, 56448, Note_off_c, 0, 60, 64
2, 56736, Note_on_c, 0, 67, 96
2, 56832, Note_off_c, 0, 67, 64
2, 57216, Note_on_c, 0, 67, 96
2, 57312, Note_off_c, 0, 67, 64
2, 57600, Note_on_c, 0, 67, 96
2, 57696, Note_off_c, 0, 67, 64
2, 57888, Note_on_c, 0, 60, 96
2, 57984, Note_off_c, 0, 60, 64
2, 58272, Note_on_c, 0, 67, 96
2, 58368, Note_off_c, 0, 67, 64
2, 58752, Note_on_c, 0, 67, 96
2, 58848, Note_off_c, 0, 67, 64
2, 59136, Note_on_c, 0, 67, 96
2, 59232, Note_off_c, 0, 67, 64
2, 59424, Note_on_c, 0, 60, 96
2, 59520, Note_off_c, 0, 60, 64
2, 59808, Note_on_c, 0, 67, 96
2, 59904, Note_off_c, 0, 67, 64
2, 60288, Note_on_c, 0, 67, 96
2, 60384, Note_off_c, 0, 67, 64
2, 60672, Note_on_c, 0, 67, 96
2, 60768, Note_off_c, 0, 67, 64
2, 60960, Note_on_c, 0, 60, 96
2, 61056, Note_off_c, 0, 60, 64
2, 61344, Note_on_c, 0, 67, 96
2, 61440, Note_off_c, 0, 67, 64
2, 61440, Control_c, 0, 7, 110
2, 61440, Program_c, 0, 81
2, 61824, Note_on_c, 0, 67, 96
2, 61920, Note_off_c, 0, 67, 64
2, 62208, Note_on_c, 0, 67, 96
2, 62304, Note_off_c, 0, 67, 64
2, 62496, Note_on_c, 0, 60, 96
2, 62592, Note_off_c, 0, 60, 64
2, 62880, Note_on_c, 0, 67, 96
2, 62976, Note_off_c, 0, 67, 64
2, 63360, Note_on_c, 0, 67, 96
2, 63456, Note_off_c, 0, 67, 64
2, 63744, Note_on_c, 0, 67, 96
2, 63840, Note_off_c, 0, 67, 64
2, 64032, Note_on_c, 0, 60, 96
2, 64128, Note_off_c, 0, 60, 64
2, 64416, Note_on_c, 0, 67, 96
2, 64512, Note_off_c, 0, 67, 64
2, 64896, Note_on_c, 0, 67, 96
2, 64992, Note_off_c, 0, 67, 64
2, 65280, Note_on_c, 0, 67, 96
2, 65376, Note_off_c, 0, 67, 64
2, 65568, Note_on_c, 0, 60, 96
2, 65664, Note_off_c, 0, 60, 64
2, 65952, Note_on_c, 0, 67, 96
2, 66048, Note_off_c, 0, 67, 64
2, 66432, Note_on_c, 0, 67, 96
2, 66528, Note_off_c, 0, 67, 64
2, 66816, Note_on_c, 0, 67, 96
2, 66912, Note_off_c, 0, 67, 64
2, 67104, Note_on_c, 0, 60, 96
2, 67200, Note_off_c, 0, 60, 64
2, 67488, Note_on_c, 0, 67, 96
2, 67584, Note_off_c, 0, 67, 64
2, 67584, Control_c, 0, 7, 110
2, 67584, Program_c, 0, 81
2, 67968, Note_on_c, 0, 67, 96
2, 68064, Note_off_c, 0, 67, 64
2, 68352, Note_on_c, 0, 67, 96
2, 68448, Note_off_c, 0, 67, 64
2, 68640, Note_on_c, 0, 60, 96
2, 68736, Note_off_c, 0, 60, 64
2, 69024, Note_on_c, 0, 67, 96
2, 69120, Note_off_c, 0, 67, 64
2, 69504, Note_on_c, 0, 67, 96
2, 69600, Note_off_c, 0, 67, 64
2, 69888, Note_on_c, 0, 67, 96
2, 69984, Note_off_c, 0, 67, 64
2, 70176, Note_on_c, 0, 60, 96
2, 70272, Note_off_c, 0, 60, 64
2, 70560, Note_on_c, 0, 67, 96
2, 70656, Note_off_c, 0, 67, 64
2, 71040, Note_on_c, 0, 67, 96
2, 71136, Note_off_c, 0, 67, 64
2, 71424, Note_on_c, 0, 67, 96
2, 71520, Note_off_c, 0, 67, 64
2, 71712, Note_on_c, 0, 60, 96
2, 71808, Note_off_c, 0, 60, 64
2, 72096, Note_on_c, 0, 67, 96
2, 72192, Note_off_c, 0, 67, 64
2, 72576, Note_on_c, 0, 67, 96
2, 72672, Note_off_c, 0, 67, 64
2, 72960, Note_on_c, 0, 67, 96
2, 73056, Note_off_c, 0, 67, 64
2, 73248, Note_on_c, 0, 60, 96
2, 73344, Note_off_c, 0, 60, 64
2, 73632, Note_on_c, 0, 67, 96
2, 73728, Note_off_c, 0, 67, 64
2, 73728, Control_c, 0, 7, 110
2, 73728, Program_c, 0, 81
2, 74112, Note_on_c, 0, 67, 96
2, 74208, Note_off_c, 0, 67, 64
2, 74496, Note_on_c, 0, 67, 96
2, 74592, Note_off_c, 0, 67, 64
2, 74784, Note_on_c, 0, 60, 96
2, 74880, Note_off_c, 0, 60, 64
2, 75168, Note_on_c, 0, 67, 96
2, 75264, Note_off_c, 0, 67, 64
2, 75648, Note_on_c, 0, 67, 96
2, 75744, Note_off_c, 0, 67, 64
2, 76032, Note_on_c, 0, 67, 96
2, 76128, Note_off_c, 0, 67, 64
2, 76320, Note_on_c, 0, 60, 96
2, 76416, Note_off_c, 0, 60, 64
2, 76704, Note_on_c, 0, 67, 96
2, 76800, Note_off_c, 0, 67, 64
2, 77184, Note_on_c, 0, 67, 96
2, 77280, Note_off_c, 0, 67, 64
2, 77568, Note_on_c, 0, 67, 96
2, 77664, Note_off_c, 0, 67, 64
2, 77856, Note_on_c, 0, 60, 96
2, 77952, Note_off_c, 0, 60, 64
2, 78240, Note_on_c, 0, 67, 96
2, 78336, Note_off_c, 0, 67, 64
2, 78720, Note_on_c, 0, 67, 96
2, 78816, Note_off_c, 0, 67, 64
2, 79104, Note_on_c, 0, 67, 96
2, 79200, Note_off_c, 0, 67, 64
2, 79392, Note_on_c, 0, 60, 96
2, 79488, Note_off_c, 0, 60, 64
2, 79776, Note_on_c, 0, 67, 96
2, 79872, Note_off_c, 0, 67, 64
2, 79872, Control_c, 0, 7, 110
2, 79872, Program_c, 0, 81
2, 80256, Note_on_c, 0, 67, 96
2, 80352, Note_off_c, 0, 67, 64
2, 80640, Note_on_c, 0, 67, 96
2, 80736, Note_off_c, 0, 67, 64
2, 80928, Note_on_c, 0, 60, 96
2, 81024, Note_off_c, 0, 60, 64
2, 81312, Note_on_c, 0, 67, 96
2, 81408, Note_off_c, 0, 67, 64
2, 81792, Note_on_c, 0, 67, 96
2, 81888, Note_off_c, 0, 67, 64
2, 82176, Note_on_c, 0, 67, 96
2, 82272, Note_off_c, 0, 67, 64
2, 82464, Note_on_c, 0, 60, 96
2, 82560, Note_off_c, 0, 60, 64
2, 82848, Note_on_c, 0, 67, 96
2, 82944, Note_off_c, 0, 67, 64
2, 83328, Note_on_c, 0, 67, 96
2, 83424, Note_off_c, 0, 67, 64
2, 83712, Note_on_c, 0, 67, 96
2, 83808, Note_off_c, 0, 67, 64
2, 84000, Note_on_c, 0, 60, 96
2, 84096, Note_off_c, 0, 60, 64
2, 84384, Note_on_c, 0, 67, 96
2, 84480, Note_off_c, 0, 67, 64
2, 84864, Note_on_c, 0, 67, 96
2, 84960, Note_off_c, 0, 67, 64
2, 85248, Note_on_c, 0, 67, 96
2, 85344, Note_off_c, 0, 67, 64
2, 85536, Note_on_c, 0, 60, 96
2, 85632, Note_off_c, 0, 60, 64
2, 85920, Note_on_c, 0, 67, 96
2, 86016, Note_off_c, 0, 67, 64
2, 86016, Control_c, 0, 7, 110
2, 86016, Program_c, 0, 81
2, 86400, Note_on_c, 0, 67, 96
2, 86496, Note_off_c, 0, 67, 64
2, 86784, Note_on_c, 0, 67, 96
2, 86880, Note_off_c, 0, 67, 64
2, 87072, Note_on_c, 0, 60, 96
2, 87168, Note_off_c, 0, 60, 64
2, 87456, Note_on_c, 0, 67, 96
2, 87552, Note_off_c, 0, 67, 64
2, 87936, Note_on_c, 0, 67, 96
2, 88032, Note_off_c, 0, 67, 64
2, 88320, Note_on_c, 0, 67, 96
2, 88416, Note_off_c, 0, 67, 64
2, 88608, Note_on_c, 0, 60, 96
2, 88704, Note_off_c, 0, 60, 64
2, 88992, Note_on_c, 0, 67, 96
2, 89088, Note_off_c, 0, 67, 64
2, 89472, Note_on_c, 0, 67, 96
2, 89568, Note_off_c, 0, 67, 64
2, 89856, Note_on_c, 0, 67, 96
2, 89952, Note_off_c, 0, 67, 64
2, 90144, Note_on_c, 0, 60, 96
2, 90240, Note_off_c, 0, 60, 64
2, 90528, Note_on_c, 0, 67, 96
2, 90624, Note_off_c, 0, 67, 64
2, 91008, Note_on_c, 0, 67, 96
2, 91104, Note_off_c, 0, 67, 64
2, 91392, Note_on_c, 0, 67, 96
2, 91488, Note_off_c, 0, 67, 64
2, 91680, Note_on_c, 0, 60, 96
2, 91776, Note_off_c, 0, 60, 64
2, 92064, Note_on_c, 0, 67, 96
2, 92160, Note_off_c, 0, 67, 64
2, 92160, Control_c, 0, 7, 110
2, 92160, Program_c, 0, 81
2, 92544, Note_on_c, 0, 67, 96
2, 92640, Note_off_c, 0, 67, 64
2, 92928, Note_on_c, 0, 67, 96
2, 93024, Note_off_c, 0, 67, 64
2, 93216, Note_on_c, 0, 60, 96
2, 93312, Note_off_c, 0, 60, 64
2, 93600, Note_on_c, 0, 67, 96
2, 93696, Note_off_c, 0, 67, 64
2, 94080, Note_on_c, 0, 67, 96
2, 94176, Note_off_c, 0, 67, 64
2, 94464, Note_on_c, 0, 67, 96
2, 94560, Note_off_c, 0, 67, 64
2, 94752, Note_on_c, 0, 60, 96
2, 94848, Note_off_c, 0, 60, 64
2, 95136, Note_on_c, 0, 67, 96
2, 95232, Note_off_c, 0, 67, 64
2, 95616, Note_on_c, 0, 67, 96
2, 95712, Note_off_c, 0, 67, 64
2, 96000, Note_on_c, 0, 67, 96
2, 96096, Note_off_c, 0, 67, 64
2, 96288, Note_on_c, 0, 60, 96
2, 96384, Note_off_c, 0, 60, 64
2, 96672, Note_on_c, 0, 67, 96
2, 96768, Note_off_c, 0, 67, 64
2, 97152, Note_on_c, 0, 67, 96
2, 97248, Note_off_c, 0, 67, 64
2, 97536, Note_on_c, 0, 67, 96
2, 97632, Note_off_c, 0, 67, 64
2, 97824, Note_on_c, 0, 60, 96
2, 97920, Note_off_c, 0, 60, 64
2, 98208, Note_on_c, 0, 67, 96
2, 98304, Note_off_c, 0, 67, 64
2, 98304, Control_c, 0, 7, 110
2, 98304, Program_c, 0, 81
2, 98688, Note_on_c, 0, 67, 96
2, 98784, Note_off_c, 0, 67, 64
2, 99072, Note_on_c, 0, 67, 96
2, 99168, Note_off_c, 0, 67, 64
2, 99360, Note_on_c, 0, 60, 96
2, 99456, Note_off_c, 0, 60, 64
2, 99744, Note_on_c, 0, 67, 96
2, 99840, Note_off_c, 0, 67, 64
2, 100224, Note_on_c, 0, 67, 96
2, 100320, Note_off_c, 0, 67, 64
2, 100608, Note_on_c, 0, 67, 96
2, 100704, Note_off_c, 0, 67, 64
2, 100896, Note_on_c, 0, 60, 96
2, 100992, Note_off_c, 0, 60, 64
2, 101280, Note_on_c, 0, 67, 96
2, 101376, Note_off_c, 0, 67, 64
2, 101760, Note_on_c, 0, 67, 96
2, 101856, Note_off_c, 0, 67, 64
2, 102144, Note_on_c, 0, 67, 96
2, 102240, Note_off_c, 0, 67, 64
2, 102432, Note_on_c, 0, 60, 96
2, 102528, Note_off_c, 0, 60, 64
2, 102816, Note_on_c, 0, 67, 96
2, 102912, Note_off_c, 0, 67, 64
2, 103296, Note_on_c, 0, 67, 96
2, 103392, Note_off_c, 0, 67, 64
2, 103680, Note_on_c, 0, 67, 96
2, 103776, Note_off_c, 0, 67, 64
2, 103968, Note_on_c, 0, 60, 96
2, 104064, Note_off_c, 0, 60, 64
2, 104352, Note_on_c, 0, 67, 96
2, 104448, Note_off_c, 0, 67, 64
2, 104448, Control_c, 0, 7, 110
2, 104448, Program_c, 0, 81
2, 104832, Note_on_c, 0, 67, 96
2, 104928, Note_off_c, 0, 67, 64
2, 105216, Note_on_c, 0, 67, 96
2, 105312, Note_off_c, 0, 67, 64
2, 105504, Note_on_c, 0, 60, 96
2, 105600, Note_off_c, 0, 60, 64
2, 105888, Note_on_c, 0, 67, 96
2, 105984, Note_off_c, 0, 67, 64
2, 106368, Note_on_c, 0, 67, 96
2, 106464, Note_off_c, 0, 67, 64
2, 106752, Note_on_c, 0, 67, 96
2, 106848, Note_off_c, 0, 67, 64
2, 107040, Note_on_c, 0, 60, 96
2, 107136, Note_off_c, 0, 60, 64
2, 107424, Note_on_c, 0, 67, 96
2, 107520, Note_off_c, 0, 67, 64
2, 107904, Note_on_c, 0, 67, 96
2, 108000, Note_off_c, 0, 67, 64
2, 108288, Note_on_c, 0, 67, 96
2, 108384, Note_off_c, 0, 67, 64
2, 108576, Note_on_c, 0, 60, 96
2, 108672, Note_off_c, 0, 60, 64
2, 108960, Note_on_c, 0, 67, 96
2, 109056, Note_off_c, 0, 67, 64
2, 109440, Note_on_c, 0, 67, 96
2, 109536, Note_off_c, 0, 67, 64
2, 109824, Note_on_c, 0, 67, 96
2, 109920, Note_off_c, 0, 67, 64
2, 110112, Note_on_c, 0, 60, 96
2, 110208, Note_off_c, 0, 60, 64
2, 110496, Note_on_c, 0, 67, 96
2, 110592, Note_off_c, 0, 67, 64
2, 110592, Control_c, 0, 7, 110
2, 110592, Program_c, 0, 81
2, 110976, Note_on_c, 0, 67, 96
2, 111072, Note_off_c, 0, 67, 64
2, 111360, Note_on_c, 0, 67, 96
2, 111456, Note_off_c, 0, 67, 64
2, 111648, Note_on_c, 0, 60, 96
2, 111744, Note_off_c, 0, 60, 64
2, 112032, Note_on_c, 0, 67, 96
2, 112128, Note_off_c, 0, 67, 64
2, 112512, Note_on_c, 0, 67, 96
2, 112608, Note_off_c, 0, 67, 64
2, 112896, Note_on_c, 0, 67, 96
2, 112992, Note_off_c, 0, 67, 64
2, 113184, Note_on_c, 0, 60, 96
2, 113280, Note_off_c, 0, 60, 64
2, 113568, Note_on_c, 0, 67, 96
2, 113664, Note_off_c, 0, 67, 64
2, 114048, Note_on_c, 0, 67, 96
2, 114144, Note_off_c, 0, 67, 64
2, 114432, Note_on_c, 0, 67, 96
2, 114528, Note_off_c, 0, 67, 64
2, 114720, Note_on_c, 0, 60, 96
2, 114816, Note_off_c, 0, 60, 64
2, 115104, Note_on_c, 0, 67, 96
2, 115200, Note_off_c, 0, 67, 64
2, 115584, Note_on_c, 0, 67, 96
2, 115680, Note_off_c, 0, 67, 64
2, 115968, Note_on_c, 0, 67, 96
2, 116064, Note_off_c, 0, 67, 64
2, 116256, Note_on_c, 0, 60, 96
2, 116352, Note_off_c, 0, 60, 64
2, 116640, Note_on_c, 0, 67, 96
2, 116736, Note_off_c, 0, 67, 64
2, 116736, Control_c, 0, 7, 110
2, 116736, Program_c, 0, 81
2, 117120, Note_on_c, 0, 67, 96
2, 117216, Note_off_c, 0, 67, 64
2, 117504, Note_on_c, 0, 67, 96
2, 117600, Note_off_c, 0, 67, 64
2, 117792, Note_on_c, 0, 60, 96
2, 117888, Note_off_c, 0, 60, 64
2, 118176, Note_on_c, 0, 67, 96
2, 118272, Note_off_c, 0, 67, 64
2, 118656, Note_on_c, 0, 67, 96
2, 118752, Note_off_c, 0, 67, 64
2, 119040, Note_on_c, 0, 67, 96
2, 119136, Note_off_c, 0, 67, 64
2, 119328, Note_on_c, 0, 60, 96
2, 119424, Note_off_c, 0, 60, 64
2, 119712, Note_on_c, 0, 67, 96
2, 119808, Note_off_c, 0, 67, 64
2, 120192, Note_on_c, 0, 67, 96
2, 120288, Note_off_c, 0, 67, 64
2, 120576, Note_on_c, 0, 67, 96
2, 120672, Note_off_c, 0, 67, 64
2, 120864, Note_on_c, 0, 60, 96
2, 120960, Note_off_c, 0, 60, 64
2, 121248, Note_on_c, 0, 67, 96
2, 121344, Note_off_c, 0, 67, 64
2, 121728, Note_on_c, 0, 67, 96
2, 121824, Note_off_c, 0, 67, 64
2, 122112, Note_on_c, 0, 67, 96
2, 122208, Note_off_c, 0, 67, 64
2, 122400, Note_on_c, 0, 60, 96
2, 122496, Note_off_c, 0, 60, 64
2, 122784, Note_on_c, 0, 67, 96
2, 122880, Note_off_c, 0, 67, 64
2, 122880, Control_c, 0, 7, 110
2, 122880, Program_c, 0, 81
2, 123264, Note_on_c, 0, 67, 96
2, 123360, Note_off_c, 0, 67, 64
2, 123648, Note_on_c, 0, 67, 96
2, 123744, Note_off_c, 0, 67, 64
2, 123936, Note_on_c, 0, 60, 96
2, 124032, Note_off_c, 0, 60, 64
2, 124320, Note_on_c, 0, 67, 96
2, 124416, Note_off_c, 0, 67, 64
2, 124800, Note_on_c, 0, 67, 96
2, 124896, Note_off_c, 0, 67, 64
2, 125184, Note_on_c, 0, 67, 96
2, 125280, Note_off_c, 0, 67, 64
2, 125472, Note_on_c, 0, 60, 96
2, 125568, Note_off_c, 0, 60, 64
2, 125856, Note_on_c, 0, 67, 96
2, 125952, Note_off_c, 0, 67, 64
2, 126336, Note_on_c, 0, 67, 96
2, 126432, Note_off_c, 0, 67, 64
2, 126720, Note_on_c, 0, 67, 96
2, 126816, Note_off_c, 0, 67, 64
2, 127008, Note_on_c, 0, 60, 96
2, 127104, Note_off_c, 0, 60, 64
2, 127392, Note_on_c, 0, 67, 96
2, 127488, Note_off_c, 0, 67, 64
2, 127872, Note_on_c, 0, 67, 96
2, 127968, Note_off_c, 0, 67, 64
2, 128256, Note_on_c, 0, 67, 96
2, 128352, Note_off_c, 0, 67, 64
2, 128544, Note_on_c, 0, 60, 96
2, 128640, Note_off_c, 0, 60, 64
2, 128928, Note_on_c, 0, 67, 96
2, 129024, Note_off_c, 0, 67, 64
2, 129024, Control_c, 0, 7, 110
2, 129024, Program_c, 0, 81
2, 129408, Note_on_c, 0, 67, 96
2, 129504, Note_off_c, 0, 67, 64
2, 129792, Note_on_c, 0, 67, 96
2, 129888, Note_off_c, 0, 67, 64
2, 130080, Note_on_c, 0, 60, 96
2, 130176, Note_off_c, 0, 60, 64
2, 130464, Note_on_c, 0, 67, 96
2, 130560, Note_off_c, 0, 67, 64
2, 130944, Note_on_c, 0, 67, 96
2, 131040, Note_off_c, 0, 67, 64
2, 131328, Note_on_c, 0, 67, 96
2, 131424, Note_off_c, 0, 67, 64
2, 131616, Note_on_c, 0, 60, 96
2, 131712, Note_off_c, 0, 60, 64
2, 132000, Note_on_c, 0, 67, 96
2, 132096, Note_off_c, 0, 67, 64
2, 132480, Note_on_c, 0, 67, 96
2, 132576, Note_off_c, 0, 67, 64
2, 132864, Note_on_c, 0, 67, 96
2, 132960, Note_off_c, 0, 67, 64
2, 133152, Note_on_c, 0, 60, 96
2, 133248, Note_off_c, 0, 60, 64
2, 133536, Note_on_c, 0, 67, 96
2, 133632, Note_off_c, 0, 67, 64
2, 134016, Note_on_c, 0, 67, 96
2, 134112, Note_off_c, 0, 67, 64
2, 134400, Note_on_c, 0, 67, 96
2, 134496, Note_off_c, 0, 67, 64
2, 134688, Note_on_c, 0, 60, 96
2, 134784, Note_off_c, 0, 60, 64
2, 135072, Note_on_c, 0, 67, 96
2, 135168, Note_off_c, 0, 67, 64
2, 135168, Control_c, 0, 7, 110
2, 135168, Program_c, 0, 81
2, 135552, Note_on_c, 0, 67, 96
2, 135648, Note_off_c, 0, 67, 64
2, 135936, Note_on_c, 0, 67, 96
2, 136032, Note_off_c, 0, 67, 64
2, 136224, Note_on_c, 0, 60, 96
2, 136320, Note_off_c, 0, 60, 64
2, 136608, Note_on_c, 0, 67, 96
2, 136704, Note_off_c, 0, 67, 64
2, 137088, Note_on_c, 0, 67, 96
2, 137184, Note_off_c, 0, 67, 64
2, 137472, Note_on_c, 0, 67, 96
2, 137568, Note_off_c, 0, 67, 64
2, 137760, Note_on_c, 0, 60, 96
2, 137856, Note_off_c, 0, 60, 64
2, 138144, Note_on_c, 0, 67, 96
2, 138240, Note_off_c, 0, 67, 64
2, 138624, Note_on_c, 0, 67, 96
2, 138720, Note_off_c, 0, 67, 64
2, 139008, Note_on_c, 0, 67, 96
2, 139104, Note_off_c, 0, 67, 64
2, 139296, Note_on_c, 0, 60, 96
2, 139392, Note_off_c, 0, 60, 64
2, 139680, Note_on_c, 0, 67, 96
2, 139776, Note_off_c, 0, 67, 64
2, 140160, Note_on_c, 0, 67, 96
2, 140256, Note_off_c, 0, 67, 64
2, 140544, Note_on_c, 0, 67, 96
2, 140640, Note_off_c, 0, 67, 64
2, 140832, Note_on_c, 0, 60, 96
2, 140928, Note_off_c, 0, 60, 64
2, 141216, Note_on_c, 0, 67, 96
2, 141312, Note_off_c, 0, 67, 64
2, 141312, Control_c, 0, 7, 110
2, 141312, Program_c, 0, 81
2, 141696, Note_on_c, 0, 67, 96
2, 141792, Note_off_c, 0, 67, 64
2, 142080, Note_on_c, 0, 67, 96
2, 142176, Note_off_c, 0, 67, 64
2, 142368, Note_on_c, 0, 60, 96
2, 142464, Note_off_c, 0, 60, 64
2, 142752, Note_on_c, 0, 67, 96
2, 142848, Note_off_c, 0, 67, 64
2, 143232, Note_on_c, 0, 67, 96
2, 143328, Note_off_c, 0, 67, 64
2, 143616, Note_on_c, 0, 67, 96
2, 143712, Note_off_c, 0, 67, 64
2, 143904, Note_on_c, 0, 60, 96
2, 144000, Note_off_c, 0, 60, 64
2, 144288, Note_on_c, 0, 67, 96
2, 144384, Note_off_c, 0, 67, 64
2, 144768, Note_on_c, 0, 67, 96
2, 144864, Note_off_c, 0, 67, 64
2, 145152, Note_on_c, 0, 67, 96
2, 145248, Note_off_c, 0, 67, 64
2, 145440, Note_on_c, 0, 60, 96
2, 145536, Note_off_c, 0, 60, 64
2, 145824, Note_on_c, 0, 67, 96
2, 145920, Note_off_c, 0, 67, 64
2, 146304, Note_on_c, 0, 67, 96
2, 146400, Note_off_c, 0, 67, 64
2, 146688, Note_on_c, 0, 67, 96
2, 146784, Note_off_c, 0, 67, 64
2, 146976, Note_on_c, 0, 60, 96
2, 147072, Note_off_c, 0, 60, 64
2, 147360, Note_on_c, 0, 67, 96
2, 147456, Note_off_c, 0, 67, 64
2, 147456, Control_c, 0, 7, 110
2, 147456, Program_c, 0, 81
2, 147840, Note_on_c, 0, 67, 96
2, 147936, Note_off_c, 0, 67, 64
2, 148224, Note_on_c, 0, 67, 96
2, 148320, Note_off_c, 0, 67, 64
2, 148512, Note_on_c, 0, 60, 96
2, 148608, Note_off_c, 0, 60, 64
2, 148896, Note_on_c, 0, 67, 96
2, 148992, Note_off_c, 0, 67, 64
2, 149376, Note_on_c, 0, 67, 96
2, 149472, Note_off_c, 0, 67, 64
2, 149760, Note_on_c, 0, 67, 96
2, 149856, Note_off_c, 0, 67, 64
2, 150048, Note_on_c, 0, 60, 96
2, 150144, Note_off_c, 0, 60, 64
2, 150432, Note_on_c, 0, 67, 96
2, 150528, Note_off_c, 0, 67, 64
2, 150912, Note_on_c, 0, 67, 96
2, 151008, Note_off_c, 0, 67, 64
2, 151296, Note_on_c, 0, 67, 96
2, 151392, Note_off_c, 0, 67, 64
2, 151584, Note_on_c, 0, 60, 96
2, 151680, Note_off_c, 0, 60, 64
2, 151968, Note_on_c, 0, 67, 96
2, 152064, Note_off_c, 0, 67, 64
2, 152448, Note_on_c, 0, 67, 96
2, 152544, Note_off_c, 0, 67, 64
2, 152832, Note_on_c, 0, 67, 96
2, 152928, Note_off_c, 0, 67, 64
2, 153120, Note_on_c, 0, 60, 96
2, 153216, Note_off_c, 0, 60, 64
2, 153504, Note_on_c, 0, 67, 96
2, 153600, Note_off_c, 0, 67, 64
2, 153600, Control_c, 0, 7, 110
2, 153600, Program_c, 0, 81
2, 153984, Note_on_c, 0, 67, 96
2, 154080, Note_off_c, 0, 67, 64
2, 154368, Note_on_c, 0, 67, 96
2, 154464, Note_off_c, 0, 67, 64
2, 154656, Note_on_c, 0, 60, 96
2, 154752, Note_off_c, 0, 60, 64
2, 155040, Note_on_c, 0, 67, 96
2, 155136, Note_off_c, 0, 67, 64
2, 155520, Note_on_c, 0, 67, 96
2, 155616, Note_off_c, 0, 67, 64
2, 155904, Note_on_c, 0, 67, 96
2, 156000, Note_off_c, 0, 67, 64
2, 156192, Note_on_c, 0, 60, 96
2, 156288, Note_off_c, 0, 60, 64
2, 156576, Note_on_c, 0, 67, 96
2, 156672, Note_off_c, 0, 67, 64
2, 157056, Note_on_c, 0, 67, 96
2, 157152, Note_off_c, 0, 67, 64
2, 157440, Note_on_c, 0, 67, 96
2, 157536, Note_off_c, 0, 67, 64
2, 157728, Note_on_c, 0, 60, 96
2, 157824, Note_off_c, 0, 60, 64
2, 158112, Note_on_c, 0, 67, 96
2, 158208, Note_off_c, 0, 67, 64
2, 158592, Note_on_c, 0, 67, 96
2, 158688, Note_off_c, 0, 67, 64
2, 158976, Note_on_c, 0, 67, 96
2, 159072, Note_off_c, 0, 67, 64
2, 159264, Note_on_c, 0, 60, 96
2, 159360, Note_off_c, 0, 60, 64
2, 159648, Note_on_c, 0, 67, 96
2, 159744, Note_off_c, 0, 67, 64
2, 159744, Control_c, 0, 7, 110
2, 159744, Program_c, 0, 81
2, 160128, Note_on_c, 0, 67, 96
2, 160224, Note_off_c, 0, 67, 64
2, 160512, Note_on_c, 0, 67, 96
2, 160608, Note_off_c, 0, 67, 64
2, 160800, Note_on_c, 0, 60, 96
2, 160896, Note_off_c, 0, 60, 64
2, 161184, Note_on_c, 0, 67, 96
2, 161280, Note_off_c, 0, 67, 64
2, 161664, Note_on_c, 0, 67, 96
2, 161760, Note_off_c, 0, 67, 64
2, 162048, Note_on_c, 0, 67, 96
2, 162144, Note_off_c, 0, 67, 64
2, 162336, Note_on_c, 0, 60, 96
2, 162432, Note_off_c, 0, 60, 64
2, 162720, Note_on_c, 0, 67, 96
2, 162816, Note_off_c, 0, 67, 64
2, 163200, Note_on_c, 0, 67, 96
2, 163296, Note_off_c, 0, 67, 64
2, 163584, Note_on_c, 0, 67, 96
2, 163680, Note_off_c, 0, 67, 64
2, 163872, Note_on_c, 0, 60, 96
2, 163968, Note_off_c, 0, 60, 64
2, 164256, Note_on_c, 0, 67, 96
2, 164352, Note_off_c, 0, 67, 64
2, 164736, Note_on_c, 0, 67, 96
2, 164832, Note_off_c, 0, 67, 64
2, 165120, Note_on_c, 0, 67, 96
2, 165216, Note_off_c, 0, 67, 64
2, 165408, Note_on_c, 0, 60, 96
2, 165504, Note_off_c, 0, 60, 64
2, 165792, Note_on_c, 0, 67, 96
2, 165888, Note_off_c, 0, 67, 64
2, 165888, Control_c, 0, 7, 110
2, 165888, Program_c, 0, 81
2, 166272, Note_on_c, 0, 67, 96
2, 166368, Note_off_c, 0, 67, 64
2, 166656, Note_on_c, 0, 67, 96
2, 166752, Note_off_c, 0, 67, 64
2, 166944, Note_on_c, 0, 60, 96
2, 167040, Note_off_c, 0, 60, 64
2, 167328, Note_on_c, 0, 67, 96
2, 167424, Note_off_c, 0, 67, 64
2, 167808, Note_on_c, 0, 67, 96
2, 167904, Note_off_c, 0, 67, 64
2, 168192, Note_on_c, 0, 67, 96
2, 168288, Note_off_c, 0, 67, 64
2, 168480, Note_on_c, 0, 60, 96
2, 168576, Note_off_c, 0, 60, 64
2, 168864, Note_on_c, 0, 67, 96
2, 168960, Note_off_c, 0, 67, 64
2, 169344, Note_on_c, 0, 67, 96
2, 169440, Note_off_c, 0, 67, 64
2, 169728, Note_on_c, 0, 67, 96
2, 169824, Note_off_c, 0, 67, 64
2, 170016, Note_on_c, 0, 60, 96
2, 170112, Note_off_c, 0, 60, 64
2, 170400, Note_on_c, 0, 67, 96
2, 170496, Note_off_c, 0, 67, 64
2, 170880, Note_on_c, 0, 67, 96
2, 170976, Note_off_c, 0, 67, 64
2, 171264, Note_on_c, 0, 67, 96
2, 171360, Note_off_c, 0, 67, 64
2, 171552, Note_on_c, 0, 60, 96
2, 171648, Note_off_c, 0, 60, 64
2, 171936, Note_on_c, 0, 67, 96
2, 172032, Note_off_c, 0, 67, 64
2, 172032, Control_c, 0, 7, 110
2, 172032, Program_c, 0, 81
2, 172416, Note_on_c, 0, 67, 96
2, 172512, Note_off_c, 0, 67, 64
2, 172800, Note_on_c, 0, 67, 96
2, 172896, Note_off_c, 0, 67, 64
2, 173088, Note_on_c, 0, 60, 96
2, 173184, Note_off_c, 0, 60, 64
2, 173472, Note_on_c, 0, 67, 96
2, 173568, Note_off_c, 0, 67, 64
2, 173952, Note_on_c, 0, 67, 96
2, 174048, Note_off_c, 0, 67, 64
2, 174336, Note_on_c, 0, 67, 96
2, 174432, Note_off_c, 0, 67, 64
2, 174624, Note_on_c, 0, 60, 96
2, 174720, Note_off_c, 0, 60, 64
2, 175008, Note_on_c, 0, 67, 96
2, 175104, Note_off_c, 0, 67, 64
2, 175488, Note_on_c, 0, 67, 96
2, 175584, Note_off_c, 0, 67, 64
2, 175872, Note_on_c, 0, 67, 96
2, 175968, Note_off_c, 0, 67, 64
2, 176160, Note_on_c, 0, 60, 96
2, 176256, Note_off_c, 0, 60, 64
2, 176544, Note_on_c, 0, 67, 96
2, 176640, Note_off_c, 0, 67, 64
2, 177024, Note_on_c, 0, 67, 96
2, 177120, Note_off_c, 0, 67, 64
2, 177408, Note_on_c, 0, 67, 96
2, 177504, Note_off_c, 0, 67, 64
2, 177696, Note_on_c, 0, 60, 96
2, 177792, Note_off_c, 0, 60, 64
2, 178080, Note_on_c, 0, 67, 96
2, 178176, Note_off_c, 0, 67, 64
2, 178176, Control_c, 0, 7, 110
2, 178176, Program_c, 0, 81
2, 178560, Note_on_c, 0, 67, 96
2, 178656, Note_off_c, 0, 67, 64
2, 178944, Note_on_c, 0, 67, 96
2, 179040, Note_off_c, 0, 67, 64
2, 179232, Note_on_c, 0, 60, 96
2, 179328, Note_off_c, 0, 60, 64
2, 179616, Note_on_c, 0, 67, 96
2, 179712, Note_off_c, 0, 67, 64
2, 180096, Note_on_c, 0, 67, 96
2, 180192, Note_off_c, 0, 67, 64
2, 180480, Note_on_c, 0, 67, 96
2, 180576, Note_off_c, 0, 67, 64
2, 180768, Note_on_c, 0, 60, 96
2, 180864, Note_off_c, 0, 60, 64
2, 181152, Note_on_c, 0, 67, 96
2, 181248, Note_off_c, 0, 67, 64
2, 181632, Note_on_c, 0, 67, 96
2, 181728, Note_off_c, 0, 67, 64
2, 182016, Note_on_c, 0, 67, 96
2, 182112, Note_off_c, 0, 67, 64
2, 182304, Note_on_c, 0, 60, 96
2, 182400, Note_off_c, 0, 60, 64
2, 182688, Note_on_c, 0, 67, 96
2, 182784, Note_off_c, 0, 67, 64
2, 183168, Note_on_c, 0, 67, 96
2, 183264, Note_off_c, 0, 67, 64
2, 183552, Note_on_c, 0, 67, 96
2, 183648, Note_off_c, 0, 67, 64
2, 183840, Note_on_c, 0, 60, 96
2, 183936, Note_off_c, 0, 60, 64
2, 184224, Note_on_c, 0, 67, 96
2, 184320, Note_off_c, 0, 67, 64
2, 184320, Control_c, 0, 7, 110
2, 184320, Program_c, 0, 81
2, 184704, Note_on_c, 0, 67, 96
2, 184800, Note_off_c, 0, 67, 64
2, 185088, Note_on_c, 0, 67, 96
2, 185184, Note_off_c, 0, 67, 64
2, 185376, Note_on_c, 0, 60, 96
2, 185472, Note_off_c, 0, 60, 64
2, 185760, Note_on_c, 0, 67, 96
2, 185856, Note_off_c, 0, 67, 64
2, 186240, Note_on_c, 0, 67, 96
2, 186336, Note_off_c, 0, 67, 64
2, 186624, Note_on_c, 0, 67, 96
2, 186720, Note_off_c, 0, 67, 64
2, 186912, Note_on_c, 0, 60, 96
2, 187008, Note_off_c, 0, 60, 64
2, 187296, Note_on_c, 0, 67, 96
2, 187392, Note_off_c, 0, 67, 64
2, 187776, Note_on_c, 0, 67, 96
2, 187872, Note_off_c, 0, 67, 64
2, 188160, Note_on_c, 0, 67, 96
2, 188256, Note_off_c, 0, 67, 64
2, 188448, Note_on_c, 0, 60, 96
2, 188544, Note_off_c, 0, 60, 64
2, 188832, Note_on_c, 0, 67, 96
2, 188928, Note_off_c, 0, 67, 64
2, 189312, Note_on_c, 0, 67, 96
2, 189408, Note_off_c, 0, 67, 64
2, 189696, Note_on_c, 0, 67, 96
2, 189792, Note_off_c, 0, 67, 64
2, 189984, Note_on_c, 0, 60, 96
2, 190080, Note_off_c, 0, 60, 64
2, 190368, Note_on_c, 0, 67, 96
2, 190464, Note_off_c, 0, 67, 64
2, 190464, Control_c, 0, 7, 110
2, 190464, Program_c, 0, 81
2, 190848, Note_on_c, 0, 67, 96
2, 190944, Note_off_c, 0, 67, 64
2, 191232, Note_on_c, 0, 67, 96
2, 191328, Note_off_c, 0, 67, 64
2, 191520, Note_on_c, 0, 60, 96
2, 191616, Note_off_c, 0, 60, 64
2, 191904, Note_on_c, 0, 67, 96
2, 192000, Note_off_c, 0, 67, 64
2, 192384, Note_on_c, 0, 67, 96
2, 192480, Note_off_c, 0, 67, 64
2, 192768, Note_on_c, 0, 67, 96
2, 192864, Note_off_c, 0, 67, 64
2, 193056, Note_on_c, 0, 60, 96
2, 193152, Note_off_c, 0, 60, 64
2, 193440, Note_on_c, 0, 67, 96
2, 193536, Note_off_c, 0, 67, 64
2, 193920, Note_on_c, 0, 67, 96
2, 194016, Note_off_c, 0, 67, 64
2, 194304, Note_on_c, 0, 67, 96
2, 194400, Note_off_c, 0, 67, 64
2, 194592, Note_on_c, 0, 60, 96
2, 194688, Note_off_c, 0, 60, 64
2, 194976, Note_on_c, 0, 67, 96
2, 195072, Note_off_c, 0, 67, 64
2, 195456, Note_on_c, 0, 67, 96
2, 195552, Note_off_c, 0, 67, 64
2, 195840, Note_on_c, 0, 67, 96
2, 195936, Note_off_c, 0, 67, 64
2, 196128, Note_on_c, 0, 60, 96
2, 196224, Note_off_c, 0, 60, 64
2, 196512, Note_on_c, 0, 67, 96
2, 196608, Note_off_c, 0, 67, 64
2, 196608, Control_c, 0, 7, 110
2, 196608, Program_c, 0, 81
2, 196992, Note_on_c, 0, 67, 96
2, 197088, Note_off_c, 0, 67, 64
2, 197376, Note_on_c, 0, 67, 96
2, 197472, Note_off_c, 0, 67, 64
2, 197664, Note_on_c, 0, 60, 96
2, 197760, Note_off_c, 0, 60, 64
2, 198048, Note_on_c, 0, 67, 96
2, 198144, Note_off_c, 0, 67, 64
2, 198528, Note_on_c, 0, 67, 96
2, 198624, Note_off_c, 0, 67, 64
2, 198912, Note_on_c, 0, 67, 96
2, 199008, Note_off_c, 0, 67, 64
2, 199200, Note_on_c, 0, 60, 96
2, 199296, Note_off_c, 0, 60, 64
2, 199584, Note_on_c, 0, 67, 96
2, 199680, Note_off_c, 0, 67, 64
2, 200064, Note_on_c, 0, 67, 96
2, 200160, Note_off_c, 0, 67, 64
2, 200448, Note_on_c, 0, 67, 96
2, 200544, Note_off_c, 0, 67, 64
2, 200736, Note_on_c, 0, 60, 96
2, 200832, Note_off_c, 0, 60, 64
2, 201120, Note_on_c, 0, 67, 96
2, 201216, Note_off_c, 0, 67, 64
2, 201600, Note_on_c, 0, 67, 96
2, 201696, Note_off_c, 0, 67, 64
2, 201984, Note_on_c, 0, 67, 96
2, 202080, Note_off_c, 0, 67, 64
2, 202272, Note_on_c, 0, 60, 96
2, 202368, Note_off_c, 0, 60, 64
2, 202656, Note_on_c, 0, 67, 96
2, 202752, Note_off_c, 0, 67, 64
2, 202752, Control_c, 0, 7, 110
2, 202752, Program_c, 0, 81
2, 203136, Note_on_c, 0, 67, 96
2, 203232, Note_off_c, 0, 67, 64
2, 203520, Note_on_c, 0, 67, 96
2, 203616, Note_off_c, 0, 67, 64
2, 203808, Note_on_c, 0, 60, 96
2, 203904, Note_off_c, 0, 60, 64
2, 204192, Note_on_c, 0, 67, 96
2, 204288, Note_off_c, 0, 67, 64
2, 204672, Note_on_c, 0, 67, 96
2, 204768, Note_off_c, 0, 67, 64
2, 205056, Note_on_c, 0, 67, 96
2, 205152, Note_off_c, 0, 67, 64
2, 205344, Note_on_c, 0, 60, 96
2, 205440, Note_off_c, 0, 60, 64
2, 205728, Note_on_c, 0, 67, 96
2, 205824, Note_off_c, 0, 67, 64
2, 206208, Note_on_c, 0, 67, 96
2, 206304, Note_off_c, 0, 67, 64
2, 206592, Note_on_c, 0, 67, 96
2, 206688, Note_off_c, 0, 67, 64
2, 206880, Note_on_c, 0, 60, 96
2, 206976, Note_off_c, 0, 60, 64
2, 207264, Note_on_c, 0, 67, 96
2, 207360, Note_off_c, 0, 67, 64
2, 207744, Note_on_c, 0, 67, 96
2, 207840, Note_off_c, 0, 67, 64
2, 208128, Note_on_c, 0, 67, 96
2, 208224, Note_off_c, 0, 67, 64
2, 208416, Note_on_c, 0, 60, 96
2, 208512, Note_off_c, 0, 60, 64
2, 208800, Note_on_c, 0, 67, 96
2, 208896, Note_off_c, 0, 67, 64
2, 208896, Control_c, 0, 7, 110
2, 208896, Program_c, 0, 81
2, 209280, Note_on_c, 0, 67, 96
2, 209376, Note_off_c, 0, 67, 64
2, 209664, Note_on_c, 0, 67, 96
2, 209760, Note_off_c, 0, 67, 64
2, 209952, Note_on_c, 0, 60, 96
2, 210048, Note_off_c, 0, 60, 64
2, 210336, Note_on_c, 0, 67, 96
2, 210432, Note_off_c, 0, 67, 64
2, 210816, Note_on_c, 0, 67, 96
2, 210912, Note_off_c, 0, 67, 64
2, 211200, Note_on_c, 0, 67, 96
2, 211296, Note_off_c, 0, 67, 64
2, 211488, Note_on_c, 0, 60, 96
2, 211584, Note_off_c, 0, 60, 64
2, 211872, Note_on_c, 0, 67, 96
2, 211968, Note_off_c, 0, 67, 64
2, 212352, Note_on_c, 0, 67, 96
2, 212448, Note_off_c, 0, 67, 64
2, 212736, Note_on_c, 0, 67, 96
2, 212832, Note_off_c, 0, 67, 64
2, 213024, Note_on_c, 0, 60, 96
2, 213120, Note_off_c, 0, 60, 64
2, 213408, Note_on_c, 0, 67, 96
2, 213504, Note_off_c, 0, 67, 64
2, 213888, Note_on_c, 0, 67, 96
2, 213984, Note_off_c, 0, 67, 64
2, 214272, Note_on_c, 0, 67, 96
2, 214368, Note_off_c, 0, 67, 64
2, 214560, Note_on_c, 0, 60, 96
2, 214656, Note_off_c, 0, 60, 64
2, 214944, Note_on_c, 0, 67, 96
2, 215040, Note_off_c, 0, 67, 64
2, 215040, Control_c, 0, 7, 110
2, 215040, Program_c, 0, 81
2, 215424, Note_on_c, 0, 67, 96
2, 215520, Note_off_c, 0, 67, 64
2, 215808, Note_on_c, 0, 67, 96
2, 215904, Note_off_c, 0, 67, 64
2, 216096, Note_on_c, 0, 60, 96
2, 216192, Note_off_c, 0, 60, 64
2, 216480, Note_on_c, 0, 67, 96
2, 216576, Note_off_c, 0, 67, 64
2, 216960, Note_on_c, 0, 67, 96
2, 217056, Note_off_c, 0, 67, 64
2, 217344, Note_on_c, 0, 67, 96
2, 217440, Note_off_c, 0, 67, 64
2, 217632, Note_on_c, 0, 60, 96
2, 217728, Note_off_c, 0, 60, 64
2, 218016, Note_on_c, 0, 67, 96
2, 218112, Note_off_c, 0, 67, 64
2, 218496, Note_on_c, 0, 67, 96
2, 218592, Note_off_c, 0, 67, 64
2, 218880, Note_on_c, 0, 67, 96
2, 218976, Note_off_c, 0, 67, 64
2, 219168, Note_on_c, 0, 60, 96
2, 219264, Note_off_c, 0, 60, 64
2, 219552, Note_on_c, 0, 67, 96
2, 219648, Note_off_c, 0, 67, 64
2, 220032, Note_on_c, 0, 67, 96
2, 220128, Note_off_c, 0, 67, 64
2, 220416, Note_on_c, 0, 67, 96
2, 220512, Note_off_c, 0, 67, 64
2, 220704, Note_on_c, 0, 60, 96
2, 220800, Note_off_c, 0, 60, 64
2, 221088, Note_on_c, 0, 67, 96
2, 221184, Note_off_c, 0, 67, 64
2, 221184, Control_c, 0, 7, 110
2, 221184, Program_c, 0, 81
2, 221568, Note_on_c, 0, 67, 96
2, 221664, Note_off_c, 0, 67, 64
2, 221952, Note_on_c, 0, 67, 96
2, 222048, Note_off_c, 0, 67, 64
2, 222240, Note_on_c, 0, 60, 96
2, 222336, Note_off_c, 0, 60, 64
2, 222624, Note_on_c, 0, 67, 96
2, 222720, Note_off_c, 0, 67, 64
2, 223104, Note_on_c, 0, 67, 96
2, 223200, Note_off_c, 0, 67, 64
2, 223488, Note_on_c, 0, 67, 96
2, 223584, Note_off_c, 0, 67, 64
2, 223776, Note_on_c, 0, 60, 96
2, 223872, Note_off_c, 0, 60, 64
2, 224160, Note_on_c, 0, 67, 96
2, 224256, Note_off_c, 0, 67, 64
2, 224640, Note_on_c, 0, 67, 96
2, 224736, Note_off_c, 0, 67, 64
2, 225024, Note_on_c, 0, 67, 96
2, 225120, Note_off_c, 0, 67, 64
2, 225312, Note_on_c, 0, 60, 96
2, 225408, Note_off_c, 0, 60, 64
2, 225696, Note_on_c, 0, 67, 96
2, 225792, Note_off_c, 0, 67, 64
2, 226176, Note_on_c, 0, 67, 96
2, 226272, Note_off_c, 0, 67, 64
2, 226560, Note_on_c, 0, 67, 96
2, 226656, Note_off_c, 0, 67, 64
2, 226848, Note_on_c, 0, 60, 96
2, 226944, Note_off_c, 0, 60, 64
2, 227232, Note_on_c, 0, 67, 96
2, 227328, Note_off_c, 0, 67, 64
2, 227328, Control_c, 0, 7, 110
2, 227328, Program_c, 0, 81
2, 227712, Note_on_c, 0, 67, 96
2, 227808, Note_off_c, 0, 67, 64
2, 228096, Note_on_c, 0, 67, 96
2, 228192, Note_off_c, 0, 67, 64
2, 228384, Note_on_c, 0, 60, 96
2, 228480, Note_off_c, 0, 60, 64
2, 228768, Note_on_c, 0, 67, 96
2, 228864, Note_off_c, 0, 67, 64
2, 229248, Note_on_c, 0, 67, 96
2, 229344, Note_off_c, 0, 67, 64
2, 229632, Note_on_c, 0, 67, 96
2, 229728, Note_off_c, 0, 67, 64
2, 229920, Note_on_c, 0, 60, 96
2, 230016, Note_off_c, 0, 60, 64
2, 230304, Note_on_c, 0, 67, 96
2, 230400, Note_off_c, 0, 67, 64
2, 230784, Note_on_c, 0, 67, 96
2, 230880, Note_off_c, 0, 67, 64
2, 231168, Note_on_c, 0, 67, 96
2, 231264, Note_off_c, 0, 67, 64
2, 231456, Note_on_c, 0, 60, 96
2, 231552, Note_off_c, 0, 60, 64
2, 231840, Note_on_c, 0, 67, 96
2, 231936, Note_off_c, 0, 67, 64
2, 232320, Note_on_c, 0, 67, 96
2, 232416, Note_off_c, 0, 67, 64
2, 232704, Note_on_c, 0, 67, 96
2, 232800, Note_off_c, 0, 67, 64
2, 232992, Note_on_c, 0, 60, 96
2, 233088, Note_off_c, 0, 60, 64
2, 233376, Note_on_c, 0, 67, 96
2, 233472, Note_off_c, 0, 67, 64
2, 233472, Control_c, 0, 7, 110
2, 233472, Program_c, 0, 81
2, 233856, Note_on_c, 0, 67, 96
2, 233952, Note_off_c, 0, 67, 64
2, 234240, Note_on_c, 0, 67, 96
2, 234336, Note_off_c, 0, 67, 64
2, 234528, Note_on_c, 0, 60, 96
2, 234624, Note_off_c, 0, 60, 64
2, 234912, Note_on_c, 0, 67, 96
2, 235008, Note_off_c, 0, 67, 64
2, 235392, Note_on_c, 0, 67, 96
2, 235488, Note_off_c, 0, 67, 64
2, 235776, Note_on_c, 0, 67, 96
2, 235872, Note_off_c, 0, 67, 64
2, 236064, Note_on_c, 0, 60, 96
2, 236160, Note_off_c, 0, 60, 64
2, 236448, Note_on_c, 0, 67, 96
2, 236544, Note_off_c, 0, 67, 64
2, 236928, Note_on_c, 0, 67, 96
2, 237024, Note_off_c, 0, 67, 64
2, 237312, Note_on_c, 0, 67, 96
2, 237408, Note_off_c, 0, 67, 64
2, 237600, Note_on_c, 0, 60, 96
2, 237696, Note_off_c, 0, 60, 64
2, 237984, Note_on_c, 0, 67, 96
2, 238080, Note_off_c, 0, 67, 64
2, 238464, Note_on_c, 0, 67, 96
2, 238560, Note_off_c, 0, 67, 64
2, 238848, Note_on_c, 0, 67, 96
2, 238944, Note_off_c, 0, 67, 64
2, 239136, Note_on_c, 0, 60, 96
2, 239232, Note_off_c, 0, 60, 64
2, 239520, Note_on_c, 0, 67, 96
2, 239616, Note_off_c, 0, 67, 64
2, 239616, Control_c, 0, 7, 110
2, 239616, Program_c, 0, 81
2, 240000, Note_on_c, 0, 67, 96
2, 240096, Note_off_c, 0, 67, 64
2, 240384, Note_on_c, 0, 67, 96
2, 240480, Note_off_c, 0, 67, 64
2, 240672, Note_on_c, 0, 60, 96
2, 240768, Note_off_c, 0, 60, 64
2, 241056, Note_on_c, 0, 67, 96
2, 241152, Note_off_c, 0, 67, 64
2, 241536, Note_on_c, 0, 67, 96
2, 241632, Note_off_c, 0, 67, 64
2, 241920, Note_on_c, 0, 67, 96
2, 242016, Note_off_c, 0, 67, 64
2, 242208, Note_on_c, 0, 60, 96
2, 242304, Note_off_c, 0, 60, 64
2, 242592, Note_on_c, 0, 67, 96
2, 242688, Note_off_c, 0, 67, 64
2, 243072, Note_on_c, 0, 67, 96
2, 243168, Note_off_c, 0, 67, 64
2, 243456, Note_on_c, 0, 67, 96
2, 243552, Note_off_c, 0, 67, 64
2, 243744, Note_on_c, 0, 60, 96
2, 243840, Note_off_c, 0, 60, 64
2, 244128, Note_on_c, 0, 67, 96
2, 244224, Note_off_c, 0, 67, 64
2, 244608, Note_on_c, 0, 67, 96
2, 244704, Note_off_c, 0, 67, 64
2, 244992, Note_on_c, 0, 67, 96
2, 245088, Note_off_c, 0, 67, 64
2, 245280, Note_on_c, 0, 60, 96
2, 245376, Note_off_c, 0, 60, 64
2, 245664, Note_on_c, 0, 67, 96
2, 245760, Note_off_c, 0, 67, 64
2, 245760, Control_c, 0, 7, 110
2, 245760, Program_c, 0, 81
2, 246144, Note_on_c, 0, 67, 96
2, 246240, Note_off_c, 0, 67, 64
2, 246528, Note_on_c, 0, 67, 96
2, 246624, Note_off_c, 0, 67, 64
2, 246816, Note_on_c, 0, 60, 96
2, 246912, Note_off_c, 0, 60, 64
2, 247200, Note_on_c, 0, 67, 96
2, 247296, Note_off_c, 0, 67, 64
2, 247680, Note_on_c, 0, 67, 96
2, 247776, Note_off_c, 0, 67, 64
2, 248064, Note_on_c, 0, 67, 96
2, 248160, Note_off_c, 0, 67, 64
2, 248352, Note_on_c, 0, 60, 96
2, 248448, Note_off_c, 0, 60, 64
2, 248736, Note_on_c, 0, 67, 96
2, 248832, Note_off_c, 0, 67, 64
2, 249216, Note_on_c, 0, 67, 96
2, 249312, Note_off_c, 0, 67, 64
2, 249600, Note_on_c, 0, 67, 96
2, 249696, Note_off_c, 0, 67, 64
2, 249888, Note_on_c, 0, 60, 96
2, 249984, Note_off_c, 0, 60, 64
2, 250272, Note_on_c, 0, 67, 96
2, 250368, Note_off_c, 0, 67, 64
2, 250752, Note_on_c, 0, 67, 96
2, 250848, Note_off_c, 0, 67, 64
2, 251136, Note_on_c, 0, 67, 96
2, 251232, Note_off_c, 0, 67, 64
2, 251424, Note_on_c, 0, 60, 96
2, 251520, Note_off_c, 0, 60, 64
2, 251808, Note_on_c, 0, 67, 96
2, 251904, Note_off_c, 0, 67, 64
2, 251904, Control_c, 0, 7, 110
2, 251904, Program_c, 0, 81
2, 252288, Note_on_c, 0, 67, 96
2, 252384, Note_off_c, 0, 67, 64
2, 252672, Note_on_c, 0, 67, 96
2, 252768, Note_off_c, 0, 67, 64
2, 252960, Note_on_c, 0, 60, 96
2, 253056, Note_off_c, 0, 60, 64
2, 253344, Note_on_c, 0, 67, 96
2, 253440, Note_off_c, 0, 67, 64
2, 253824, Note_on_c, 0, 67, 96
2, 253920, Note_off_c, 0, 67, 64
2, 254208, Note_on_c, 0, 67, 96
2, 254304, Note_off_c, 0, 67, 64
2, 254496, Note_on_c, 0, 60, 96
2, 254592, Note_off_c, 0, 60, 64
2, 254880, Note_on_c, 0, 67, 96
2, 254976, Note_off_c, 0, 67, 64
2, 255360, Note_on_c, 0, 67, 96
2, 255456, Note_off_c, 0, 67, 64
2, 255744, Note_on_c, 0, 67, 96
2, 255840, Note_off_c, 0, 67, 64
2, 256032, Note_on_c, 0, 60, 96
2, 256128, Note_off_c, 0, 60, 64
2, 256416, Note_on_c, 0, 67, 96
2, 256512, Note_off_c, 0, 67, 64
2, 256896, Note_on_c, 0, 67, 96
2, 256992, Note_off_c, 0, 67, 64
2, 257280, Note_on_c, 0, 67, 96
2, 257376, Note_off_c, 0, 67, 64
2, 257568, Note_on_c, 0, 60, 96
2, 257664, Note_off_c, 0, 60, 64
2, 257952, Note_on_c, 0, 67, 96
2, 258048, Note_off_c, 0, 67, 64
2, 258048, Control_c, 0, 7, 110
2, 258048, Program_c, 0, 81
2, 258432, Note_on_c, 0, 67, 96
2, 258528, Note_off_c, 0, 67, 64
2, 258816, Note_on_c, 0, 67, 96
2, 258912, Note_off_c, 0, 67, 64
2, 259104, Note_on_c, 0, 60, 96
2, 259200, Note_off_c, 0, 60, 64
2, 259488, Note_on_c, 0, 67, 96
2, 259584, Note_off_c, 0, 67, 64
2, 259968, Note_on_c, 0, 67, 96
2, 260064, Note_off_c, 0, 67, 64
2, 260352, Note_on_c, 0, 67, 96
2, 260448, Note_off_c, 0, 67, 64
2, 260640, Note_on_c, 0, 60, 96
2, 260736, Note_off_c, 0, 60, 64
2, 261024, Note_on_c, 0, 67, 96
2, 261120, Note_off_c, 0, 67, 64
2, 261504, Note_on_c, 0, 67, 96
2, 261600, Note_off_c, 0, 67, 64
2, 261888, Note_on_c, 0, 67, 96
2, 261984, Note_off_c, 0, 67, 64
2, 262176, Note_on_c, 0, 60, 96
2, 262272, Note_off_c, 0, 60, 64
2, 262560, Note_on_c, 0, 67, 96
2, 262656, Note_off_c, 0, 67, 64
2, 263040, Note_on_c, 0, 67, 96
2, 263136, Note_off_c, 0, 67, 64
2, 263424, Note_on_c, 0, 67, 96
2, 263520, Note_off_c, 0, 67, 64
2, 263712, Note_on_c, 0, 60, 96
2, 263808, Note_off_c, 0, 60, 64
2, 264096, Note_on_c, 0, 67, 96
2, 264192, Note_off_c, 0, 67, 64
2, 264192, Control_c, 0, 7, 110
2, 264192, Program_c, 0, 81
2, 264576, Note_on_c, 0, 67, 96
2, 264672, Note_off_c, 0, 67, 64
2, 264960, Note_on_c, 0, 67, 96
2, 265056, Note_off_c, 0, 67, 64
2, 265248, Note_on_c, 0, 60, 96
2, 265344, Note_off_c, 0, 60, 64
2, 265632, Note_on_c, 0, 67, 96
2, 265728, Note_off_c, 0, 67, 64
2, 266112, Note_on_c, 0, 67, 96
2, 266208, Note_off_c, 0, 67, 64
2, 266496, Note_on_c, 0, 67, 96
2, 266592, Note_off_c, 0, 67, 64
2, 266784, Note_on_c, 0, 60, 96
2, 266880, Note_off_c, 0, 60, 64
2, 267168, Note_on_c, 0, 67, 96
2, 267264, Note_off_c, 0, 67, 64
2, 267648, Note_on_c, 0, 67, 96
2, 267744, Note_off_c, 0, 67, 64
2, 268032, Note_on_c, 0, 67, 96
2, 268128, Note_off_c, 0, 67, 64
2, 268320, Note_on_c, 0, 60, 96
2, 268416, Note_off_c, 0, 60, 64
2, 268704, Note_on_c, 0, 67, 96
2, 268800, Note_off_c, 0, 67, 64
2, 269184, Note_on_c, 0, 67, 96
2, 269280, Note_off_c, 0, 67, 64
2, 269568, Note_on_c, 0, 67, 96
2, 269664, Note_off_c, 0, 67, 64
2, 269856, Note_on_c, 0, 60, 96
2, 269952, Note_off_c, 0, 60, 64
2, 270240, Note_on_c, 0, 67, 96
2, 270336, Note_off_c, 0, 67, 64
2, 270336, Control_c, 0, 7, 110
2, 270336, Program_c, 0, 81
2, 270720, Note_on_c, 0, 67, 96
2, 270816, Note_off_c, 0, 67, 64
2, 271104, Note_on_c, 0, 67, 96
2, 271200, Note_off_c, 0, 67, 64
2, 271392, Note_on_c, 0, 60, 96
2, 271488, Note_off_c, 0, 60, 64
2, 271776, Note_on_c, 0, 67, 96
2, 271872, Note_off_c, 0, 67, 64
2, 272256, Note_on_c, 0, 67, 96
2, 272352, Note_off_c, 0, 67, 64
2, 272640, Note_on_c, 0, 67, 96
2, 272736, Note_off_c, 0, 67, 64
2, 272928, Note_on_c, 0, 60, 96
2, 273024, Note_off_c, 0, 60, 64
2, 273312, Note_on_c, 0, 67, 96
2, 273408, Note_off_c, 0, 67, 64
2, 273408, Control_c, 0, 7, 110
2, 273408, Program_c, 0, 81
2, 273792, Note_on_c, 0, 67, 96
2, 273888, Note_off_c, 0, 67, 64
2, 274176, Note_on_c, 0, 67, 96
2, 274272, Note_off_c, 0, 67, 64
2, 274464, Note_on_c, 0, 60, 96
2, 274560, Note_off_c, 0, 60, 64
2, 274848, Note_on_c, 0, 67, 96
2, 274944, Note_off_c, 0, 67, 64
2, 275328, Note_on_c, 0, 67, 96
2, 275424, Note_off_c, 0, 67, 64
2, 275712, Note_on_c, 0, 67, 96
2, 275808, Note_off_c, 0, 67, 64
2, 276000, Note_on_c, 0, 60, 96
2, 276096, Note_off_c, 0, 60, 64
2, 276384, Note_on_c, 0, 67, 96
2, 276480, Note_off_c, 0, 67, 64
2, 276480, Control_c, 0, 7, 110
2, 276480, Program_c, 0, 81
2, 276864, Note_on_c, 0, 67, 96
2, 276960, Note_off_c, 0, 67, 64
2, 277248, Note_on_c, 0, 67, 96
2, 277344, Note_off_c, 0, 67, 64
2, 277536, Note_on_c, 0, 60, 96
2, 277632, Note_off_c, 0, 60, 64
2, 277920, Note_on_c, 0, 67, 96
2, 278016, Note_off_c, 0, 67, 64
2, 278400, Note_on_c, 0, 67, 96
2, 278496, Note_off_c, 0, 67, 64
2, 278784, Note_on_c, 0, 67, 96
2, 278880, Note_off_c, 0, 67, 64
2, 279072, Note_on_c, 0, 60, 96
2, 279168, Note_off_c, 0, 60, 64
2, 279456, Note_on_c, 0, 67, 96
2, 279552, Note_off_c, 0, 67, 64
2, 279936, Note_on_c, 0, 67, 96
2, 280032, Note_off_c, 0, 67, 64
2, 280320, Note_on_c, 0, 67, 96
2, 280416, Note_off_c, 0, 67, 64
2, 280608, Note_on_c, 0, 60, 96
2, 280704, Note_off_c, 0, 60, 64
2, 280992, Note_on_c, 0, 67, 96
2, 281088, Note_off_c, 0, 67, 64
2, 281472, Note_on_c, 0, 67, 96
2, 281568, Note_off_c, 0, 67, 64
2, 281856, Note_on_c, 0, 67, 96
2, 281952, Note_off_c, 0, 67, 64
2, 282144, Note_on_c, 0, 60, 96
2, 282240, Note_off_c, 0, 60, 64
2, 282528, Note_on_c, 0, 67, 96
2, 282624, Note_off_c, 0, 67, 64
2, 282624, Control_c, 0, 7, 110
2, 282624, Program_c, 0, 81
2, 283008, Note_on_c, 0, 67, 96
2, 283104, Note_off_c, 0, 67, 64
2, 283392, Note_on_c, 0, 67, 96
2, 283488, Note_off_c, 0, 67, 64
2, 283680, Note_on_c, 0, 60, 96
2, 283776, Note_off_c, 0, 60, 64
2, 284064, Note_on_c, 0, 67, 96
2, 284160, Note_off_c, 0, 67, 64
2, 284544, Note_on_c, 0, 67, 96
2, 284640, Note_off_c, 0, 67, 64
2, 284928, Note_on_c, 0, 67, 96
2, 285024, Note_off_c, 0, 67, 64
2, 285216, Note_on_c, 0, 60, 96
2, 285312, Note_off_c, 0, 60, 64
2, 285600, Note_on_c, 0, 67, 96
2, 285696, Note_off_c, 0, 67, 64
2, 285696, Control_c, 0, 7, 110
2, 285696, Program_c, 0, 81
2, 286080, Note_on_c, 0, 67, 96
2, 286176, Note_off_c, 0, 67, 64
2, 286464, Note_on_c, 0, 67, 96
2, 286560, Note_off_c, 0, 67, 64
2, 286752, Note_on_c, 0, 60, 96
2, 286848, Note_off_c, 0, 60, 64
2, 287136, Note_on_c, 0, 67, 96
2, 287232, Note_off_c, 0, 67, 64
2, 287616, Note_on_c, 0, 67, 96
2, 287712, Note_off_c, 0, 67, 64
2, 288000, Note_on_c, 0, 67, 96
2, 288096, Note_off_c, 0, 67, 64
2, 288288, Note_on_c, 0, 60, 96
2, 288384, Note_off_c, 0, 60, 64
2, 288672, Note_on_c, 0, 67, 96
2, 288768, Note_off_c, 0, 67, 64
2, 288768, Control_c, 0, 7, 110
2, 288768, Program_c, 0, 81
2, 289152, Note_on_c, 0, 67, 96
2, 289248, Note_off_c, 0, 67, 64
2, 289536, Note_on_c, 0, 67, 96
2, 289632, Note_off_c, 0, 67, 64
2, 289824, Note_on_c, 0, 60, 96
2, 289920, Note_off_c, 0, 60, 64
2, 290208, Note_on_c, 0, 67, 96
2, 290304, Note_off_c, 0, 67, 64
2, 290688, Note_on_c, 0, 67, 96
2, 290784, Note_off_c, 0, 67, 64
2, 291072, Note_on_c, 0, 67, 96
2, 291168, Note_off_c, 0, 67, 64
2, 291360, Note_on_c, 0, 60, 96
2, 291456, Note_off_c, 0, 60, 64
2, 291744, Note_on_c, 0, 67, 96
2, 291840, Note_off_c, 0, 67, 64
2, 291840, Control_c, 0, 7, 110
2, 291840, Program_c, 0, 81
2, 292224, Note_on_c, 0, 67, 96
2, 292320, Note_off_c, 0, 67, 64
2, 292608, Note_on_c, 0, 67, 96
2, 292704, Note_off_c, 0, 67, 64
2, 292896, Note_on_c, 0, 60, 96
2, 292992, Note_off_c, 0, 60, 64
2, 293280, Note_on_c, 0, 67, 96
2, 293376, Note_off_c, 0, 67, 64
2, 293760, Note_on_c, 0, 67, 96
2, 293856, Note_off_c, 0, 67, 64
2, 294144, Note_on_c, 0, 67, 96
2, 294240, Note_off_c, 0, 67, 64
2, 294432, Note_on_c, 0, 60, 96
2, 294528, Note_off_c, 0, 60, 64
2, 294816, Note_on_c, 0, 67, 96
2, 294912, Note_off_c, 0, 67, 64
2, 294912, Control_c, 0, 7, 110
2, 294912, Program_c, 0, 81
2, 295296, Note_on_c, 0, 67, 96
2, 295392, Note_off_c, 0, 67, 64
2, 295680, Note_on_c, 0, 67, 96
2, 295776, Note_off_c, 0, 67, 64
2, 295968, Note_on_c, 0, 60, 96
2, 296064, Note_off_c, 0, 60, 64
2, 296352, Note_on_c, 0, 67, 96
2, 296448, Note_off_c, 0, 67, 64
2, 296832, Note_on_c, 0, 67, 96
2, 296928, Note_off_c, 0, 67, 64
2, 297216, Note_on_c, 0, 67, 96
2, 297312, Note_off_c, 0, 67, 64
2, 297504, Note_on_c, 0, 60, 96
2, 297600, Note_off_c, 0, 60, 64
2, 297888, Note_on_c, 0, 67, 96
2, 297984, Note_off_c, 0, 67, 64
2, 298368, Note_on_c, 0, 67, 96
2, 298464, Note_off_c, 0, 67, 64
2, 298752, Note_on_c, 0, 67, 96
2, 298848, Note_off_c, 0, 67, 64
2, 299040, Note_on_c, 0, 60, 96
2, 299136, Note_off_c, 0, 60, 64
2, 299424, Note_on_c, 0, 67, 96
2, 299520, Note_off_c, 0, 67, 64
2, 299904, Note_on_c, 0, 67, 96
2, 300000, Note_off_c, 0, 67, 64
2, 300288, Note_on_c, 0, 67, 96
2, 300384, Note_off_c, 0, 67, 64
2, 300576, Note_on_c, 0, 60, 96
2, 300672, Note_off_c, 0, 60, 64
2, 300960, Note_on_c, 0, 67, 96
2, 301056, Note_off_c, 0, 67, 64
2, 301056, Control_c, 0, 7, 110
2, 301056, Program_c, 0, 81
2, 301440, Note_on_c, 0, 67, 96
2, 301536, Note_off_c, 0, 67, 64
2, 301824, Note_on_c, 0, 67, 96
2, 301920, Note_off_c, 0, 67, 64
2, 302112, Note_on_c, 0, 60, 96
2, 302208, Note_off_c, 0, 60, 64
2, 302496, Note_on_c, 0, 67, 96
2, 302592, Note_off_c, 0, 67, 64
2, 302976, Note_on_c, 0, 67, 96
2, 303072, Note_off_c, 0, 67, 64
2, 303360, Note_on_c, 0, 67, 96
2, 303456, Note_off_c, 0, 67, 64
2, 303648, Note_on_c, 0, 60, 96
2, 303744, Note_off_c, 0, 60, 64
2, 304032, Note_on_c, 0, 67, 96
2, 304128, Note_off_c, 0, 67, 64
2, 304512, Note_on_c, 0, 67, 96
2, 304608, Note_off_c, 0, 67, 64
2, 304896, Note_on_c, 0, 67, 96
2, 304992, Note_off_c, 0, 67, 64
2, 305184, Note_on_c, 0, 60, 96
2, 305280, Note_off_c, 0, 60, 64
2, 305568, Note_on_c, 0, 67, 96
2, 305664, Note_off_c, 0, 67, 64
2, 306048, Note_on_c, 0, 67, 96
2, 306144, Note_off_c, 0, 67, 64
2, 306432, Note_on_c, 0, 67, 96
2, 306528, Note_off_c, 0, 67, 64
2, 306720, Note_on_c, 0, 60, 96
2, 306816, Note_off_c, 0, 60, 64
2, 307104, Note_on_c, 0, 67, 96
2, 307200, Note_off_c, 0, 67, 64
2, 307200, Control_c, 0, 7, 110
2, 307200, Program_c, 0, 81
2, 307584, Note_on_c, 0, 67, 96
2, 307680, Note_off_c, 0, 67, 64
2, 307968, Note_on_c, 0, 67, 96
2, 308064, Note_off_c, 0, 67, 64
2, 308256, Note_on_c, 0, 60, 96
2, 308352, Note_off_c, 0, 60, 64
2, 308640, Note_on_c, 0, 67, 96
2, 308736, Note_off_c, 0, 67, 64
2, 309120, Note_on_c, 0, 67, 96
2, 309216, Note_off_c, 0, 67, 64
2, 309504, Note_on_c, 0, 67, 96
2, 309600, Note_off_c, 0, 67, 64
2, 309792, Note_on_c, 0, 60, 96
2, 309888, Note_off_c, 0, 60, 64
2, 310176, Note_on_c, 0, 67, 96
2, 310272, Note_off_c, 0, 67, 64
2, 310656, Note_on_c, 0, 67, 96
2, 310752, Note_off_c, 0, 67, 64
2, 311040, Note_on_c, 0, 67, 96
2, 311136, Note_off_c, 0, 67, 64
2, 311328, Note_on_c, 0, 60, 96
2, 311424, Note_off_c, 0, 60, 64
2, 311712, Note_on_c, 0, 67, 96
2, 311808, Note_off_c, 0, 67, 64
2, 312192, Note_on_c, 0, 67, 96
2, 312288, Note_off_c, 0, 67, 64
2, 312576, Note_on_c, 0, 67, 96
2, 312672, Note_off_c, 0, 67, 64
2, 312864, Note_on_c, 0, 60, 96
2, 312960, Note_off_c, 0, 60, 64
2, 313248, Note_on_c, 0, 67, 96
2, 313344, Note_off_c, 0, 67, 64
2, 313344, Control_c, 0, 7, 110
2, 313344, Program_c, 0, 81
2, 313728, Note_on_c, 0, 67, 96
2, 313824, Note_off_c, 0, 67, 64
2, 314112, Note_on_c, 0, 67, 96
2, 314208, Note_off_c, 0, 67, 64
2, 314400, Note_on_c, 0, 60, 96
2, 314496, Note_off_c, 0, 60, 64
2, 314784, Note_on_c, 0, 67, 96
2, 314880, Note_off_c, 0, 67, 64
2, 315264, Note_on_c, 0, 67, 96
2, 315360, Note_off_c, 0, 67, 64
2, 315648, Note_on_c, 0, 67, 96
2, 315744, Note_off_c, 0, 67, 64
2, 315936, Note_on_c, 0, 60, 96
2, 316032, Note_off_c, 0, 60, 64
2, 316320, Note_on_c, 0, 67, 96
2, 316416, Note_off_c, 0, 67, 64
2, 316800, Note_on_c, 0, 67, 96
2, 316896, Note_off_c, 0, 67, 64
2, 317184, Note_on_c, 0, 67, 96
2, 317280, Note_off_c, 0, 67, 64
2, 317472, Note_on_c, 0, 60, 96
2, 317568, Note_off_c, 0, 60, 64
2, 317856, Note_on_c, 0, 67, 96
2, 317952, Note_off_c, 0, 67, 64
2, 318336, Note_on_c, 0, 67, 96
2, 318432, Note_off_c, 0, 67, 64
2, 318720, Note_on_c, 0, 67, 96
2, 318816, Note_off_c, 0, 67, 64
2, 319008, Note_on_c, 0, 60, 96
2, 319104, Note_off_c, 0, 60, 64
2, 319392, Note_on_c, 0, 67, 96
2, 319488, Note_off_c, 0, 67, 64
2, 319488, End_track
3, 0, Start_track
3, 0, Title_t, "By: Nobuo"
3, 0, Control_c, 1, 7, 110
3, 0, Program_c, 1, 38
3, 0, Control_c, 1, 10, 33
3, 0, Control_c, 1, 91, 45
3, 24576, Control_c, 1, 7, 110
3, 24576, Program_c, 1, 38
3, 24576, Note_on_c, 1, 48, 110
3, 24768, Note_off_c, 1, 48, 64
3, 25344, Note_on_c, 1, 48, 110
3, 25536, Note_off_c, 1, 48, 64
3, 26016, Note_on_c, 1, 43, 110
3, 26112, Note_off_c, 1, 43, 64
3, 26112, Note_on_c, 1, 45, 110
3, 26304, Note_off_c, 1, 45, 64
3, 26496, Note_on_c, 1, 48, 110
3, 26688, Note_off_c, 1, 48, 64
3, 27264, Note_on_c, 1, 43, 110
3, 27456, Note_off_c, 1, 43, 64
3, 27648, Note_on_c, 1, 45, 110
3, 27840, Note_off_c, 1, 45, 64
3, 28032, Note_on_c, 1, 48, 110
3, 28224, Note_off_c, 1, 48, 64
3, 28416, Note_on_c, 1, 43, 110
3, 28608, Note_off_c, 1, 43, 64
3, 28800, Note_on_c, 1, 45, 110
3, 28992, Note_off_c, 1, 45, 64
3, 29568, Note_on_c, 1, 48, 110
3, 29760, Note_off_c, 1, 48, 64
3, 29952, Note_on_c, 1, 45, 110
3, 30144, Note_off_c, 1, 45, 64
3, 30336, Note_on_c, 1, 48, 110
3, 30528, Note_off_c, 1, 48, 64
3, 30720, Control_c, 1, 7, 110
3, 30720, Program_c, 1, 38
3, 30720, Note_on_c, 1, 45, 110
3, 30912, Note_off_c, 1, 45, 64
3, 31488, Note_on_c, 1, 45, 110
3, 31680, Note_off_c, 1, 45, 64
3, 32160, Note_on_c, 1, 40, 110
3, 32256, Note_off_c, 1, 40, 64
3, 32256, Note_on_c, 1, 43, 110
3, 32448, Note_off_c, 1, 43, 64
3, 32640, Note_on_c, 1, 45, 110
3, 32832, Note_off_c, 1, 45, 64
3, 33408, Note_on_c, 1, 40, 110
3, 33600, Note_off_c, 1, 40, 64
3, 33792, Note_on_c, 1, 43, 110
3, 33984, Note_off_c, 1, 43, 64
3, 34176, Note_on_c, 1, 45, 110
3, 34368, Note_off_c, 1, 45, 64
3, 34560, Note_on_c, 1, 40, 110
3, 34752, Note_off_c, 1, 40, 64
3, 34944, Note_on_c, 1, 43, 110
3, 35136, Note_off_c, 1, 43, 64
3, 35712, Note_on_c, 1, 45, 110
3, 35904, Note_off_c, 1, 45, 64
3, 36096, Note_on_c, 1, 43, 110
3, 36288, Note_off_c, 1, 43, 64
3, 36480, Note_on_c, 1, 45, 110
3, 36672, Note_off_c, 1, 45, 64
3, 36864, Control_c, 1, 7, 110
3, 36864, Program_c, 1, 38
3, 36864, Note_on_c, 1, 48, 110
3, 37056, Note_off_c, 1, 48, 64
3, 37632, Note_on_c, 1, 48, 110
3, 37824, Note_off_c, 1, 48, 64
3, 38304, Note_on_c, 1, 43, 110
3, 38400, Note_off_c, 1, 43, 64
3, 38400, Note_on_c, 1, 45, 110
3, 38592, Note_off_c, 1, 45, 64
3, 38784, Note_on_c, 1, 48, 110
3, 38976, Note_off_c, 1, 48, 64
3, 39552, Note_on_c, 1, 43, 110
3, 39744, Note_off_c, 1, 43, 64
3, 39936, Note_on_c, 1, 45, 110
3, 40128, Note_off_c, 1, 45, 64
3, 40320, Note_on_c, 1, 48, 110
3, 40512, Note_off_c, 1, 48, 64
3, 40704, Note_on_c, 1, 43, 110
3, 40896, Note_off_c, 1, 43, 64
3, 41088, Note_on_c, 1, 45, 110
3, 41280, Note_off_c, 1, 45, 64
3, 41856, Note_on_c, 1, 48, 110
3, 42048, Note_off_c, 1, 48, 64
3, 42240, Note_on_c, 1, 45, 110
3, 42432, Note_off_c, 1, 45, 64
3, 42624, Note_on_c, 1, 48, 110
3, 42816, Note_off_c, 1, 48, 64
3, 43008, Control_c, 1, 7, 110
3, 43008, Program_c, 1, 38
3, 43008, Note_on_c, 1, 45, 110
3, 43200, Note_off_c, 1, 45, 64
3, 43776, Note_on_c, 1, 45, 110
3, 43968, Note_off_c, 1, 45, 64
3, 44448, Note_on_c, 1, 40, 110
3, 44544, Note_off_c, 1, 40, 64
3, 44544, Note_on_c, 1, 43, 110
3, 44736, Note_off_c, 1, 43, 64
3, 44928, Note_on_c, 1, 45, 110
3, 45120, Note_off_c, 1, 45, 64
3, 45696, Note_on_c, 1, 40, 110
3, 45888, Note_off_c, 1, 40, 64
3, 46080, Note_on_c, 1, 43, 110
3, 46272, Note_off_c, 1, 43, 64
3, 46464, Note_on_c, 1, 45, 110
3, 46656, Note_off_c, 1, 45, 64
3, 46848, Note_on_c, 1, 40, 110
3, 47040, Note_off_c, 1, 40, 64
3, 47232, Note_on_c, 1, 43, 110
3, 47424, Note_off_c, 1, 43, 64
3, 48000, Note_on_c, 1, 45, 110
3, 48192, Note_off_c, 1, 45, 64
3, 48384, Note_on_c, 1, 43, 110
3, 48576, Note_off_c, 1, 43, 64
3, 48768, Note_on_c, 1, 45, 110
3, 48960, Note_off_c, 1, 45, 64
3, 49152, Control_c, 1, 7, 110
3, 49152, Program_c, 1, 38
3, 49152, Note_on_c, 1, 41, 110
3, 49344, Note_off_c, 1, 41, 64
3, 49920, Note_on_c, 1, 41, 110
3, 50112, Note_off_c, 1, 41, 64
3, 50592, Note_on_c, 1, 36, 110
3, 50688, Note_off_c, 1, 36, 64
3, 50688, Note_on_c, 1, 38, 110
3, 50880, Note_off_c, 1, 38, 64
3, 51072, Note_on_c, 1, 41, 110
3, 51264, Note_off_c, 1, 41, 64
3, 51840, Note_on_c, 1, 36, 110
3, 52032, Note_off_c, 1, 36, 64
3, 52224, Note_on_c, 1, 38, 110
3, 52416, Note_off_c, 1, 38, 64
3, 52608, Note_on_c, 1, 41, 110
3, 52800, Note_off_c, 1, 41, 64
3, 52992, Note_on_c, 1, 36, 110
3, 53184, Note_off_c, 1, 36, 64
3, 53376, Note_on_c, 1, 38, 110
3, 53568, Note_off_c, 1, 38, 64
3, 54144, Note_on_c, 1, 41, 110
3, 54336, Note_off_c, 1, 41, 64
3, 54528, Note_on_c, 1, 38, 110
3, 54720, Note_off_c, 1, 38, 64
3, 54912, Note_on_c, 1, 41, 110
3, 55104, Note_off_c, 1, 41, 64
3, 55296, Control_c, 1, 7, 110
3, 55296, Program_c, 1, 38
3, 55296, Note_on_c, 1, 43, 110
3, 55488, Note_off_c, 1, 43, 64
3, 56064, Note_on_c, 1, 43, 110
3, 56256, Note_off_c, 1, 43, 64
3, 56736, Note_on_c, 1, 38, 110
3, 56832, Note_off_c, 1, 38, 64
3, 56832, Note_on_c, 1, 40, 110
3, 57024, Note_off_c, 1, 40, 64
3, 57216, Note_on_c, 1, 43, 110
3, 57408, Note_off_c, 1, 43, 64
3, 57984, Note_on_c, 1, 38, 110
3, 58176, Note_off_c, 1, 38, 64
3, 58368, Note_on_c, 1, 40, 110
3, 58560, Note_off_c, 1, 40, 64
3, 58752, Note_on_c, 1, 43, 110
3, 58944, Note_off_c, 1, 43, 64
3, 59136, Note_on_c, 1, 38, 110
3, 59328, Note_off_c, 1, 38, 64
3, 59520, Note_on_c, 1, 40, 110
3, 59712, Note_off_c, 1, 40, 64
3, 60288, Note_on_c, 1, 43, 110
3, 60480, Note_off_c, 1, 43, 64
3, 60672, Note_on_c, 1, 40, 110
3, 60864, Note_off_c, 1, 40, 64
3, 61056, Note_on_c, 1, 43, 110
3, 61248, Note_off_c, 1, 43, 64
3, 61440, Control_c, 1, 7, 110
3, 61440, Program_c, 1, 38
3, 61440, Note_on_c, 1, 48, 110
3, 61632, Note_off_c, 1, 48, 64
3, 62208, Note_on_c, 1, 48, 110
3, 62400, Note_off_c, 1, 48, 64
3, 62880, Note_on_c, 1, 43, 110
3, 62976, Note_off_c, 1, 43, 64
3, 62976, Note_on_c, 1, 45, 110
3, 63168, Note_off_c, 1, 45, 64
3, 63360, Note_on_c, 1, 48, 110
3, 63552, Note_off_c, 1, 48, 64
3, 64128, Note_on_c, 1, 43, 110
3, 64320, Note_off_c, 1, 43, 64
3, 64512, Note_on_c, 1, 45, 110
3, 64704, Note_off_c, 1, 45, 64
3, 64896, Note_on_c, 1, 48, 110
3, 65088, Note_off_c, 1, 48, 64
3, 65280, Note_on_c, 1, 43, 110
3, 65472, Note_off_c, 1, 43, 64
3, 65664, Note_on_c, 1, 45, 110
3, 65856, Note_off_c, 1, 45, 64
3, 66432, Note_on_c, 1, 48, 110
3, 66624, Note_off_c, 1, 48, 64
3, 66816, Note_on_c, 1, 45, 110
3, 67008, Note_off_c, 1, 45, 64
3, 67200, Note_on_c, 1, 48, 110
3, 67392, Note_off_c, 1, 48, 64
3, 67584, Control_c, 1, 7, 110
3, 67584, Program_c, 1, 38
3, 67584, Note_on_c, 1, 45, 110
3, 67776, Note_off_c, 1, 45, 64
3, 68352, Note_on_c, 1, 45, 110
3, 68544, Note_off_c, 1, 45, 64
3, 69024, Note_on_c, 1, 40, 110
3, 69120, Note_off_c, 1, 40, 64
3, 69120, Note_on_c, 1, 43, 110
3, 69312, Note_off_c, 1, 43, 64
3, 69504, Note_on_c, 1, 45, 110
3, 69696, Note_off_c, 1, 45, 64
3, 70272, Note_on_c, 1, 40, 110
3, 70464, Note_off_c, 1, 40, 64
3, 70656, Note_on_c, 1, 43, 110
3, 70848, Note_off_c, 1, 43, 64
3, 71040, Note_on_c, 1, 45, 110
3, 71232, Note_off_c, 1, 45, 64
3, 71424, Note_on_c, 1, 40, 110
3, 71616, Note_off_c, 1, 40, 64
3, 71808, Note_on_c, 1, 43, 110
3, 72000, Note_off_c, 1, 43, 64
3, 72576, Note_on_c, 1, 45, 110
3, 72768, Note_off_c, 1, 45, 64
3, 72960, Note_on_c, 1, 43, 110
3, 73152, Note_off_c, 1, 43, 64
3, 73344, Note_on_c, 1, 45, 110
3, 73536, Note_off_c, 1, 45, 64
3, 73728, Control_c, 1, 7, 110
3, 73728, Program_c, 1, 38
3, 73728, Note_on_c, 1, 48, 110
3, 73920, Note_off_c, 1, 48, 64
3, 74496, Note_on_c, 1, 48, 110
3, 74688, Note_off_c, 1, 48, 64
3, 75168, Note_on_c, 1, 43, 110
3, 75264, Note_off_c, 1, 43, 64
3, 75264, Note_on_c, 1, 45, 110
3, 75456, Note_off_c, 1, 45, 64
3, 75648, Note_on_c, 1, 48, 110
3, 75840, Note_off_c, 1, 48, 64
3, 76416, Note_on_c, 1, 43, 110
3, 76608, Note_off_c, 1, 43, 64
3, 76800, Note_on_c, 1, 45, 110
3, 76992, Note_off_c, 1, 45, 64
3, 77184, Note_on_c, 1, 48, 110
3, 77376, Note_off_c, 1, 48, 64
3, 77568, Note_on_c, 1, 43, 110
3, 77760, Note_off_c, 1, 43, 64
3, 77952, Note_on_c, 1, 45, 110
3, 78144, Note_off_c, 1, 45, 64
3, 78720, Note_on_c, 1, 48, 110
3, 78912, Note_off_c, 1, 48, 64
3, 79104, Note_on_c, 1, 45, 110
3, 79296, Note_off_c, 1, 45, 64
3, 79488, Note_on_c, 1, 48, 110
3, 79680, Note_off_c, 1, 48, 64
3, 79872, Control_c, 1, 7, 110
3, 79872, Program_c, 1, 38
3, 79872, Note_on_c, 1, 45, 110
3, 80064, Note_off_c, 1, 45, 64
3, 80640, Note_on_c, 1, 45, 110
3, 80832, Note_off_c, 1, 45, 64
3, 81312, Note_on_c, 1, 40, 110
3, 81408, Note_off_c, 1, 40, 64
3, 81408, Note_on_c, 1, 43, 110
3, 81600, Note_off_c, 1, 43, 64
3, 81792, Note_on_c, 1, 45, 110
3, 81984, Note_off_c, 1, 45, 64
3, 82560, Note_on_c, 1, 40, 110
3, 82752, Note_off_c, 1, 40, 64
3, 82944, Note_on_c, 1, 43, 110
3, 83136, Note_off_c, 1, 43, 64
3, 83328, Note_on_c, 1, 45, 110
3, 83520, Note_off_c, 1, 45, 64
3, 83712, Note_on_c, 1, 40, 110
3, 83904, Note_off_c, 1, 40, 64
3, 84096, Note_on_c, 1, 43, 110
3, 84288, Note_off_c, 1, 43, 64
3, 84864, Note_on_c, 1, 45, 110
3, 85056, Note_off_c, 1, 45, 64
3, 85248, Note_on_c, 1, 43, 110
3, 85440, Note_off_c, 1, 43, 64
3, 85632, Note_on_c, 1, 45, 110
3, 85824, Note_off_c, 1, 45, 64
3, 86016, Control_c, 1, 7, 110
3, 86016, Program_c, 1, 38
3, 86016, Note_on_c, 1, 41, 110
3, 86208, Note_off_c, 1, 41, 64
3, 86784, Note_on_c, 1, 41, 110
3, 86976, Note_off_c, 1, 41, 64
3, 87456, Note_on_c, 1, 36, 110
3, 87552, Note_off_c, 1, 36, 64
3, 87552, Note_on_c, 1, 38, 110
3, 87744, Note_off_c, 1, 38, 64
3, 87936, Note_on_c, 1, 41, 110
3, 88128, Note_off_c, 1, 41, 64
3, 88704, Note_on_c, 1, 36, 110
3, 88896, Note_off_c, 1, 36, 64
3, 89088, Note_on_c, 1, 38, 110
3, 89280, Note_off_c, 1, 38, 64
3, 89472, Note_on_c, 1, 41, 110
3, 89664, Note_off_c, 1, 41, 64
3, 89856, Note_on_c, 1, 36, 110
3, 90048, Note_off_c, 1, 36, 64
3, 90240, Note_on_c, 1, 38, 110
3, 90432, Note_off_c, 1, 38, 64
3, 91008, Note_on_c, 1, 41, 110
3, 91200, Note_off_c, 1, 41, 64
3, 91392, Note_on_c, 1, 38, 110
3, 91584, Note_off_c, 1, 38, 64
3, 91776, Note_on_c, 1, 41, 110
3, 91968, Note_off_c, 1, 41, 64
3, 92160, Control_c, 1, 7, 110
3, 92160, Program_c, 1, 38
3, 92160, Note_on_c, 1, 43, 110
3, 92352, Note_off_c, 1, 43, 64
3, 92928, Note_on_c, 1, 43, 110
3, 93120, Note_off_c, 1, 43, 64
3, 93600, Note_on_c, 1, 38, 110
3, 93696, Note_off_c, 1, 38, 64
3, 93696, Note_on_c, 1, 40, 110
3, 93888, Note_off_c, 1, 40, 64
3, 94080, Note_on_c, 1, 43, 110
3, 94272, Note_off_c, 1, 43, 64
3, 94848, Note_on_c, 1, 38, 110
3, 95040, Note_off_c, 1, 38, 64
3, 95232, Note_on_c, 1, 40, 110
3, 95424, Note_off_c, 1, 40, 64
3, 95616, Note_on_c, 1, 43, 110
3, 95808, Note_off_c, 1, 43, 64
3, 96000, Note_on_c, 1, 38, 110
3, 96192, Note_off_c, 1, 38, 64
3, 96384, Note_on_c, 1, 40, 110
3, 96576, Note_off_c, 1, 40, 64
3, 97152, Note_on_c, 1, 43, 110
3, 97344, Note_off_c, 1, 43, 64
3, 97536, Note_on_c, 1, 40, 110
3, 97728, Note_off_c, 1, 40, 64
3, 97920, Note_on_c, 1, 43, 110
3, 98112, Note_off_c, 1, 43, 64
3, 98304, Control_c, 1, 7, 110
3, 98304, Program_c, 1, 38
3, 98304, Note_on_c, 1, 48, 110
3, 98496, Note_off_c, 1, 48, 64
3, 99072, Note_on_c, 1, 48, 110
3, 99264, Note_off_c, 1, 48, 64
3, 99744, Note_on_c, 1, 43, 110
3, 99840, Note_off_c, 1, 43, 64
3, 99840, Note_on_c, 1, 45, 110
3, 100032, Note_off_c, 1, 45, 64
3, 100224, Note_on_c, 1, 48, 110
3, 100416, Note_off_c, 1, 48, 64
3, 100992, Note_on_c, 1, 43, 110
3, 101184, Note_off_c, 1, 43, 64
3, 101376, Note_on_c, 1, 45, 110
3, 101568, Note_off_c, 1, 45, 64
3, 101760, Note_on_c, 1, 48, 110
3, 101952, Note_off_c, 1, 48, 64
3, 102144, Note_on_c, 1, 43, 110
3, 102336, Note_off_c, 1, 43, 64
3, 102528, Note_on_c, 1, 45, 110
3, 102720, Note_off_c, 1, 45, 64
3, 103296, Note_on_c, 1, 48, 110
3, 103488, Note_off_c, 1, 48, 64
3, 103680, Note_on_c, 1, 45, 110
3, 103872, Note_off_c, 1, 45, 64
3, 104064, Note_on_c, 1, 48, 110
3, 104256, Note_off_c, 1, 48, 64
3, 104448, Control_c, 1, 7, 110
3, 104448, Program_c, 1, 38
3, 104448, Note_on_c, 1, 45, 110
3, 104640, Note_off_c, 1, 45, 64
3, 105216, Note_on_c, 1, 45, 110
3, 105408, Note_off_c, 1, 45, 64
3, 105888, Note_on_c, 1, 40, 110
3, 105984, Note_off_c, 1, 40, 64
3, 105984, Note_on_c, 1, 43, 110
3, 106176, Note_off_c, 1, 43, 64
3, 106368, Note_on_c, 1, 45, 110
3, 106560, Note_off_c, 1, 45, 64
3, 107136, Note_on_c, 1, 40, 110
3, 107328, Note_off_c, 1, 40, 64
3, 107520, Note_on_c, 1, 43, 110
3, 107712, Note_off_c, 1, 43, 64
3, 107904, Note_on_c, 1, 45, 110
3, 108096, Note_off_c, 1, 45, 64
3, 108288, Note_on_c, 1, 40, 110
3, 108480, Note_off_c, 1, 40, 64
3, 108672, Note_on_c, 1, 43, 110
3, 108864, Note_off_c, 1, 43, 64
3, 109440, Note_on_c, 1, 45, 110
3, 109632, Note_off_c, 1, 45, 64
3, 109824, Note_on_c, 1, 43, 110
3, 110016, Note_off_c, 1, 43, 64
3, 110208, Note_on_c, 1, 45, 110
3, 110400, Note_off_c, 1, 45, 64
3, 110592, Control_c, 1, 7, 110
3, 110592, Program_c, 1, 38
3, 110592, Note_on_c, 1, 48, 110
3, 110784, Note_off_c, 1, 48, 64
3, 111360, Note_on_c, 1, 48, 110
3, 111552, Note_off_c, 1, 48, 64
3, 112032, Note_on_c, 1, 43, 110
3, 112128, Note_off_c, 1, 43, 64
3, 112128, Note_on_c, 1, 45, 110
3, 112320, Note_off_c, 1, 45, 64
3, 112512, Note_on_c, 1, 48, 110
3, 112704, Note_off_c, 1, 48, 64
3, 113280, Note_on_c, 1, 43, 110
3, 113472, Note_off_c, 1, 43, 64
3, 113664, Note_on_c, 1, 45, 110
3, 113856, Note_off_c, 1, 45, 64
3, 114048, Note_on_c, 1, 48, 110
3, 114240, Note_off_c, 1, 48, 64
3, 114432, Note_on_c, 1, 43, 110
3, 114624, Note_off_c, 1, 43, 64
3, 114816, Note_on_c, 1, 45, 110
3, 115008, Note_off_c, 1, 45, 64
3, 115584, Note_on_c, 1, 48, 110
3, 115776, Note_off_c, 1, 48, 64
3, 115968, Note_on_c, 1, 45, 110
3, 116160, Note_off_c, 1, 45, 64
3, 116352, Note_on_c, 1, 48, 110
3, 116544, Note_off_c, 1, 48, 64
3, 116736, Control_c, 1, 7, 110
3, 116736, Program_c, 1, 38
3, 116736, Note_on_c, 1, 45, 110
3, 116928, Note_off_c, 1, 45, 64
3, 117504, Note_on_c, 1, 45, 110
3, 117696, Note_off_c, 1, 45, 64
3, 118176, Note_on_c, 1, 40, 110
3, 118272, Note_off_c, 1, 40, 64
3, 118272, Note_on_c, 1, 43, 110
3, 118464, Note_off_c, 1, 43, 64
3, 118656, Note_on_c, 1, 45, 110
3, 118848, Note_off_c, 1, 45, 64
3, 119424, Note_on_c, 1, 40, 110
3, 119616, Note_off_c, 1, 40, 64
3, 119808, Note_on_c, 1, 43, 110
3, 120000, Note_off_c, 1, 43, 64
3, 120192, Note_on_c, 1, 45, 110
3, 120384, Note_off_c, 1, 45, 64
3, 120576, Note_on_c, 1, 40, 110
3, 120768, Note_off_c, 1, 40, 64
3, 120960, Note_on_c, 1, 43, 110
3, 121152, Note_off_c, 1, 43, 64
3, 121728, Note_on_c, 1, 45, 110
3, 121920, Note_off_c, 1, 45, 64
3, 122112, Note_on_c, 1, 43, 110
3, 122304, Note_off_c, 1, 43, 64
3, 122496, Note_on_c, 1, 45, 110
3, 122688, Note_off_c, 1, 45, 64
3, 122880, Control_c, 1, 7, 110
3, 122880, Program_c, 1, 38
3, 122880, Note_on_c, 1, 41, 110
3, 123072, Note_off_c, 1, 41, 64
3, 123648, Note_on_c, 1, 41, 110
3, 123840, Note_off_c, 1, 41, 64
3, 124320, Note_on_c, 1, 36, 110
3, 124416, Note_off_c, 1, 36, 64
3, 124416, Note_on_c, 1, 38, 110
3, 124608, Note_off_c, 1, 38, 64
3, 124800, Note_on_c, 1, 41, 110
3, 124992, Note_off_c, 1, 41, 64
3, 125568, Note_on_c, 1, 36, 110
3, 125760, Note_off_c, 1, 36, 64
3, 125952, Note_on_c, 1, 38, 110
3, 126144, Note_off_c, 1, 38, 64
3, 126336, Note_on_c, 1, 41, 110
3, 126528, Note_off_c, 1, 41, 64
3, 126720, Note_on_c, 1, 36, 110
3, 126912, Note_off_c, 1, 36, 64
3, 127104, Note_on_c, 1, 38, 110
3, 127296, Note_off_c, 1, 38, 64
3, 127872, Note_on_c, 1, 41, 110
3, 128064, Note_off_c, 1, 41, 64
3, 128256, Note_on_c, 1, 38, 110
3, 128448, Note_off_c, 1, 38, 64
3, 128640, Note_on_c, 1, 41, 110
3, 128832, Note_off_c, 1, 41, 64
3, 129024, Control_c, 1, 7, 110
3, 129024, Program_c, 1, 38
3, 129024, Note_on_c, 1, 43, 110
3, 129216, Note_off_c, 1, 43, 64
3, 129792, Note_on_c, 1, 43, 110
3, 129984, Note_off_c, 1, 43, 64
3, 130464, Note_on_c, 1, 38, 110
3, 130560, Note_off_c, 1, 38, 64
3, 130560, Note_on_c, 1, 40, 110
3, 130752, Note_off_c, 1, 40, 64
3, 130944, Note_on_c, 1, 43, 110
3, 131136, Note_off_c, 1, 43, 64
3, 131712, Note_on_c, 1, 38, 110
3, 131904, Note_off_c, 1, 38, 64
3, 132096, Note_on_c, 1, 40, 110
3, 132288, Note_off_c, 1, 40, 64
3, 132480, Note_on_c, 1, 43, 110
3, 132672, Note_off_c, 1, 43, 64
3, 132864, Note_on_c, 1, 38, 110
3, 133056, Note_off_c, 1, 38, 64
3, 133248, Note_on_c, 1, 40, 110
3, 133440, Note_off_c, 1, 40, 64
3, 134016, Note_on_c, 1, 43, 110
3, 134208, Note_off_c, 1, 43, 64
3, 134400, Note_on_c, 1, 40, 110
3, 134592, Note_off_c, 1, 40, 64
3, 134784, Note_on_c, 1, 43, 110
3, 134976, Note_off_c, 1, 43, 64
3, 135168, Control_c, 1, 7, 110
3, 135168, Program_c, 1, 38
3, 135168, Note_on_c, 1, 44, 110
3, 135360, Note_off_c, 1, 44, 64
3, 135936, Note_on_c, 1, 44, 110
3, 136128, Note_off_c, 1, 44, 64
3, 136608, Note_on_c, 1, 39, 110
3, 136704, Note_off_c, 1, 39, 64
3, 136704, Note_on_c, 1, 41, 110
3, 136896, Note_off_c, 1, 41, 64
3, 137088, Note_on_c, 1, 44, 110
3, 137280, Note_off_c, 1, 44, 64
3, 137856, Note_on_c, 1, 39, 110
3, 138048, Note_off_c, 1, 39, 64
3, 138240, Note_on_c, 1, 41, 110
3, 138432, Note_off_c, 1, 41, 64
3, 138624, Note_on_c, 1, 44, 110
3, 138816, Note_off_c, 1, 44, 64
3, 139008, Note_on_c, 1, 39, 110
3, 139200, Note_off_c, 1, 39, 64
3, 139392, Note_on_c, 1, 41, 110
3, 139584, Note_off_c, 1, 41, 64
3, 140160, Note_on_c, 1, 44, 110
3, 140352, Note_off_c, 1, 44, 64
3, 140544, Note_on_c, 1, 41, 110
3, 140736, Note_off_c, 1, 41, 64
3, 140928, Note_on_c, 1, 44, 110
3, 141120, Note_off_c, 1, 44, 64
3, 141312, Control_c, 1, 7, 110
3, 141312, Program_c, 1, 38
3, 141312, Note_on_c, 1, 46, 110
3, 141504, Note_off_c, 1, 46, 64
3, 142080, Note_on_c, 1, 46, 110
3, 142272, Note_off_c, 1, 46, 64
3, 142752, Note_on_c, 1, 41, 110
3, 142848, Note_off_c, 1, 41, 64
3, 142848, Note_on_c, 1, 44, 110
3, 143040, Note_off_c, 1, 44, 64
3, 143232, Note_on_c, 1, 46, 110
3, 143424, Note_off_c, 1, 46, 64
3, 144000, Note_on_c, 1, 41, 110
3, 144192, Note_off_c, 1, 41, 64
3, 144384, Note_on_c, 1, 44, 110
3, 144576, Note_off_c, 1, 44, 64
3, 144768, Note_on_c, 1, 46, 110
3, 144960, Note_off_c, 1, 46, 64
3, 145152, Note_on_c, 1, 41, 110
3, 145344, Note_off_c, 1, 41, 64
3, 145536, Note_on_c, 1, 44, 110
3, 145728, Note_off_c, 1, 44, 64
3, 146304, Note_on_c, 1, 46, 110
3, 146496, Note_off_c, 1, 46, 64
3, 146688, Note_on_c, 1, 44, 110
3, 146880, Note_off_c, 1, 44, 64
3, 147072, Note_on_c, 1, 46, 110
3, 147264, Note_off_c, 1, 46, 64
3, 147456, Control_c, 1, 7, 110
3, 147456, Program_c, 1, 38
3, 147456, Note_on_c, 1, 48, 110
3, 147648, Note_off_c, 1, 48, 64
3, 148224, Note_on_c, 1, 48, 110
3, 148416, Note_off_c, 1, 48, 64
3, 148896, Note_on_c, 1, 43, 110
3, 148992, Note_off_c, 1, 43, 64
3, 148992, Note_on_c, 1, 45, 110
3, 149184, Note_off_c, 1, 45, 64
3, 149376, Note_on_c, 1, 48, 110
3, 149568, Note_off_c, 1, 48, 64
3, 150144, Note_on_c, 1, 43, 110
3, 150336, Note_off_c, 1, 43, 64
3, 150528, Note_on_c, 1, 45, 110
3, 150720, Note_off_c, 1, 45, 64
3, 150912, Note_on_c, 1, 48, 110
3, 151104, Note_off_c, 1, 48, 64
3, 151296, Note_on_c, 1, 43, 110
3, 151488, Note_off_c, 1, 43, 64
3, 151680, Note_on_c, 1, 45, 110
3, 151872, Note_off_c, 1, 45, 64
3, 152448, Note_on_c, 1, 48, 110
3, 152640, Note_off_c, 1, 48, 64
3, 152832, Note_on_c, 1, 45, 110
3, 153024, Note_off_c, 1, 45, 64
3, 153216, Note_on_c, 1, 48, 110
3, 153408, Note_off_c, 1, 48, 64
3, 153600, Control_c, 1, 7, 110
3, 153600, Program_c, 1, 38
3, 153600, Note_on_c, 1, 45, 110
3, 153792, Note_off_c, 1, 45, 64
3, 154368, Note_on_c, 1, 45, 110
3, 154560, Note_off_c, 1, 45, 64
3, 155040, Note_on_c, 1, 40, 110
3, 155136, Note_off_c, 1, 40, 64
3, 155136, Note_on_c, 1, 43, 110
3, 155328, Note_off_c, 1, 43, 64
3, 155520, Note_on_c, 1, 45, 110
3, 155712, Note_off_c, 1, 45, 64
3, 156288, Note_on_c, 1, 40, 110
3, 156480, Note_off_c, 1, 40, 64
3, 156672, Note_on_c, 1, 43, 110
3, 156864, Note_off_c, 1, 43, 64
3, 157056, Note_on_c, 1, 45, 110
3, 157248, Note_off_c, 1, 45, 64
3, 157440, Note_on_c, 1, 40, 110
3, 157632, Note_off_c, 1, 40, 64
3, 157824, Note_on_c, 1, 43, 110
3, 158016, Note_off_c, 1, 43, 64
3, 158592, Note_on_c, 1, 45, 110
3, 158784, Note_off_c, 1, 45, 64
3, 158976, Note_on_c, 1, 43, 110
3, 159168, Note_off_c, 1, 43, 64
3, 159360, Note_on_c, 1, 45, 110
3, 159552, Note_off_c, 1, 45, 64
3, 159744, Control_c, 1, 7, 110
3, 159744, Program_c, 1, 38
3, 159744, Note_on_c, 1, 48, 110
3, 159936, Note_off_c, 1, 48, 64
3, 160512, Note_on_c, 1, 48, 110
3, 160704, Note_off_c, 1, 48, 64
3, 161184, Note_on_c, 1, 43, 110
3, 161280, Note_off_c, 1, 43, 64
3, 161280, Note_on_c, 1, 45, 110
3, 161472, Note_off_c, 1, 45, 64
3, 161664, Note_on_c, 1, 48, 110
3, 161856, Note_off_c, 1, 48, 64
3, 162432, Note_on_c, 1, 43, 110
3, 162624, Note_off_c, 1, 43, 64
3, 162816, Note_on_c, 1, 45, 110
3, 163008, Note_off_c, 1, 45, 64
3, 163200, Note_on_c, 1, 48, 110
3, 163392, Note_off_c, 1, 48, 64
3, 163584, Note_on_c, 1, 43, 110
3, 163776, Note_off_c, 1, 43, 64
3, 163968, Note_on_c, 1, 45, 110
3, 164160, Note_off_c, 1, 45, 64
3, 164736, Note_on_c, 1, 48, 110
3, 164928, Note_off_c, 1, 48, 64
3, 165120, Note_on_c, 1, 45, 110
3, 165312, Note_off_c, 1, 45, 64
3, 165504, Note_on_c, 1, 48, 110
3, 165696, Note_off_c, 1, 48, 64
3, 165888, Control_c, 1, 7, 110
3, 165888, Program_c, 1, 38
3, 165888, Note_on_c, 1, 45, 110
3, 166080, Note_off_c, 1, 45, 64
3, 166656, Note_on_c, 1, 45, 110
3, 166848, Note_off_c, 1, 45, 64
3, 167328, Note_on_c, 1, 40, 110
3, 167424, Note_off_c, 1, 40, 64
3, 167424, Note_on_c, 1, 43, 110
3, 167616, Note_off_c, 1, 43, 64
3, 167808, Note_on_c, 1, 45, 110
3, 168000, Note_off_c, 1, 45, 64
3, 168576, Note_on_c, 1, 40, 110
3, 168768, Note_off_c, 1, 40, 64
3, 168960, Note_on_c, 1, 43, 110
3, 169152, Note_off_c, 1, 43, 64
3, 169344, Note_on_c, 1, 45, 110
3, 169536, Note_off_c, 1, 45, 64
3, 169728, Note_on_c, 1, 40, 110
3, 169920, Note_off_c, 1, 40, 64
3, 170112, Note_on_c, 1, 43, 110
3, 170304, Note_off_c, 1, 43, 64
3, 170880, Note_on_c, 1, 45, 110
3, 171072, Note_off_c, 1, 45, 64
3, 171264, Note_on_c, 1, 43, 110
3, 171456, Note_off_c, 1, 43, 64
3, 171648, Note_on_c, 1, 45, 110
3, 171840, Note_off_c, 1, 45, 64
3, 172032, Control_c, 1, 7, 110
3, 172032, Program_c, 1, 38
3, 172032, Note_on_c, 1, 41, 110
3, 172224, Note_off_c, 1, 41, 64
3, 172800, Note_on_c, 1, 41, 110
3, 172992, Note_off_c, 1, 41, 64
3, 173472, Note_on_c, 1, 36, 110
3, 173568, Note_off_c, 1, 36, 64
3, 173568, Note_on_c, 1, 38, 110
3, 173760, Note_off_c, 1, 38, 64
3, 173952, Note_on_c, 1, 41, 110
3, 174144, Note_off_c, 1, 41, 64
3, 174720, Note_on_c, 1, 36, 110
3, 174912, Note_off_c, 1, 36, 64
3, 175104, Note_on_c, 1, 38, 110
3, 175296, Note_off_c, 1, 38, 64
3, 175488, Note_on_c, 1, 41, 110
3, 175680, Note_off_c, 1, 41, 64
3, 175872, Note_on_c, 1, 36, 110
3, 176064, Note_off_c, 1, 36, 64
3, 176256, Note_on_c, 1, 38, 110
3, 176448, Note_off_c, 1, 38, 64
3, 177024, Note_on_c, 1, 41, 110
3, 177216, Note_off_c, 1, 41, 64
3, 177408, Note_on_c, 1, 38, 110
3, 177600, Note_off_c, 1, 38, 64
3, 177792, Note_on_c, 1, 41, 110
3, 177984, Note_off_c, 1, 41, 64
3, 178176, Control_c, 1, 7, 110
3, 178176, Program_c, 1, 38
3, 178176, Note_on_c, 1, 43, 110
3, 178368, Note_off_c, 1, 43, 64
3, 178944, Note_on_c, 1, 43, 110
3, 179136, Note_off_c, 1, 43, 64
3, 179616, Note_on_c, 1, 38, 110
3, 179712, Note_off_c, 1, 38, 64
3, 179712, Note_on_c, 1, 40, 110
3, 179904, Note_off_c, 1, 40, 64
3, 180096, Note_on_c, 1, 43, 110
3, 180288, Note_off_c, 1, 43, 64
3, 180864, Note_on_c, 1, 38, 110
3, 181056, Note_off_c, 1, 38, 64
3, 181248, Note_on_c, 1, 40, 110
3, 181440, Note_off_c, 1, 40, 64
3, 181632, Note_on_c, 1, 43, 110
3, 181824, Note_off_c, 1, 43, 64
3, 182016, Note_on_c, 1, 38, 110
3, 182208, Note_off_c, 1, 38, 64
3, 182400, Note_on_c, 1, 40, 110
3, 182592, Note_off_c, 1, 40, 64
3, 183168, Note_on_c, 1, 43, 110
3, 183360, Note_off_c, 1, 43, 64
3, 183552, Note_on_c, 1, 40, 110
3, 183744, Note_off_c, 1, 40, 64
3, 183936, Note_on_c, 1, 43, 110
3, 184128, Note_off_c, 1, 43, 64
3, 184320, Control_c, 1, 7, 110
3, 184320, Program_c, 1, 38
3, 184320, Note_on_c, 1, 48, 110
3, 184512, Note_off_c, 1, 48, 64
3, 185088, Note_on_c, 1, 48, 110
3, 185280, Note_off_c, 1, 48, 64
3, 185760, Note_on_c, 1, 43, 110
3, 185856, Note_off_c, 1, 43, 64
3, 185856, Note_on_c, 1, 45, 110
3, 186048, Note_off_c, 1, 45, 64
3, 186240, Note_on_c, 1, 48, 110
3, 186432, Note_off_c, 1, 48, 64
3, 187008, Note_on_c, 1, 43, 110
3, 187200, Note_off_c, 1, 43, 64
3, 187392, Note_on_c, 1, 45, 110
3, 187584, Note_off_c, 1, 45, 64
3, 187776, Note_on_c, 1, 48, 110
3, 187968, Note_off_c, 1, 48, 64
3, 188160, Note_on_c, 1, 43, 110
3, 188352, Note_off_c, 1, 43, 64
3, 188544, Note_on_c, 1, 45, 110
3, 188736, Note_off_c, 1, 45, 64
3, 189312, Note_on_c, 1, 48, 110
3, 189504, Note_off_c, 1, 48, 64
3, 189696, Note_on_c, 1, 45, 110
3, 189888, Note_off_c, 1, 45, 64
3, 190080, Note_on_c, 1, 48, 110
3, 190272, Note_off_c, 1, 48, 64
3, 190464, Control_c, 1, 7, 110
3, 190464, Program_c, 1, 38
3, 190464, Note_on_c, 1, 45, 110
3, 190656, Note_off_c, 1, 45, 64
3, 191232, Note_on_c, 1, 45, 110
3, 191424, Note_off_c, 1, 45, 64
3, 191904, Note_on_c, 1, 40, 110
3, 192000, Note_off_c, 1, 40, 64
3, 192000, Note_on_c, 1, 43, 110
3, 192192, Note_off_c, 1, 43, 64
3, 192384, Note_on_c, 1, 45, 110
3, 192576, Note_off_c, 1, 45, 64
3, 193152, Note_on_c, 1, 40, 110
3, 193344, Note_off_c, 1, 40, 64
3, 193536, Note_on_c, 1, 43, 110
3, 193728, Note_off_c, 1, 43, 64
3, 193920, Note_on_c, 1, 45, 110
3, 194112, Note_off_c, 1, 45, 64
3, 194304, Note_on_c, 1, 40, 110
3, 194496, Note_off_c, 1, 40, 64
3, 194688, Note_on_c, 1, 43, 110
3, 194880, Note_off_c, 1, 43, 64
3, 195456, Note_on_c, 1, 45, 110
3, 195648, Note_off_c, 1, 45, 64
3, 195840, Note_on_c, 1, 43, 110
3, 196032, Note_off_c, 1, 43, 64
3, 196224, Note_on_c, 1, 45, 110
3, 196416, Note_off_c, 1, 45, 64
3, 196608, Control_c, 1, 7, 110
3, 196608, Program_c, 1, 38
3, 196608, Note_on_c, 1, 48, 110
3, 196800, Note_off_c, 1, 48, 64
3, 197376, Note_on_c, 1, 48, 110
3, 197568, Note_off_c, 1, 48, 64
3, 198048, Note_on_c, 1, 43, 110
3, 198144, Note_off_c, 1, 43, 64
3, 198144, Note_on_c, 1, 45, 110
3, 198336, Note_off_c, 1, 45, 64
3, 198528, Note_on_c, 1, 48, 110
3, 198720, Note_off_c, 1, 48, 64
3, 199296, Note_on_c, 1, 43, 110
3, 199488, Note_off_c, 1, 43, 64
3, 199680, Note_on_c, 1, 45, 110
3, 199872, Note_off_c, 1, 45, 64
3, 200064, Note_on_c, 1, 48, 110
3, 200256, Note_off_c, 1, 48, 64
3, 200448, Note_on_c, 1, 43, 110
3, 200640, Note_off_c, 1, 43, 64
3, 200832, Note_on_c, 1, 45, 110
3, 201024, Note_off_c, 1, 45, 64
3, 201600, Note_on_c, 1, 48, 110
3, 201792, Note_off_c, 1, 48, 64
3, 201984, Note_on_c, 1, 45, 110
3, 202176, Note_off_c, 1, 45, 64
3, 202368, Note_on_c, 1, 48, 110
3, 202560, Note_off_c, 1, 48, 64
3, 202752, Control_c, 1, 7, 110
3, 202752, Program_c, 1, 38
3, 202752, Note_on_c, 1, 45, 110
3, 202944, Note_off_c, 1, 45, 64
3, 203520, Note_on_c, 1, 45, 110
3, 203712, Note_off_c, 1, 45, 64
3, 204192, Note_on_c, 1, 40, 110
3, 204288, Note_off_c, 1, 40, 64
3, 204288, Note_on_c, 1, 43, 110
3, 204480, Note_off_c, 1, 43, 64
3, 204672, Note_on_c, 1, 45, 110
3, 204864, Note_off_c, 1, 45, 64
3, 205440, Note_on_c, 1, 40, 110
3, 205632, Note_off_c, 1, 40, 64
3, 205824, Note_on_c, 1, 43, 110
3, 206016, Note_off_c, 1, 43, 64
3, 206208, Note_on_c, 1, 45, 110
3, 206400, Note_off_c, 1, 45, 64
3, 206592, Note_on_c, 1, 40, 110
3, 206784, Note_off_c, 1, 40, 64
3, 206976, Note_on_c, 1, 43, 110
3, 207168, Note_off_c, 1, 43, 64
3, 207744, Note_on_c, 1, 45, 110
3, 207936, Note_off_c, 1, 45, 64
3, 208128, Note_on_c, 1, 43, 110
3, 208320, Note_off_c, 1, 43, 64
3, 208512, Note_on_c, 1, 45, 110
3, 208704, Note_off_c, 1, 45, 64
3, 208896, Control_c, 1, 7, 110
3, 208896, Program_c, 1, 38
3, 208896, Note_on_c, 1, 41, 110
3, 209088, Note_off_c, 1, 41, 64
3, 209664, Note_on_c, 1, 41, 110
3, 209856, Note_off_c, 1, 41, 64
3, 210336, Note_on_c, 1, 36, 110
3, 210432, Note_off_c, 1, 36, 64
3, 210432, Note_on_c, 1, 38, 110
3, 210624, Note_off_c, 1, 38, 64
3, 210816, Note_on_c, 1, 41, 110
3, 211008, Note_off_c, 1, 41, 64
3, 211584, Note_on_c, 1, 36, 110
3, 211776, Note_off_c, 1, 36, 64
3, 211968, Note_on_c, 1, 38, 110
3, 212160, Note_off_c, 1, 38, 64
3, 212352, Note_on_c, 1, 41, 110
3, 212544, Note_off_c, 1, 41, 64
3, 212736, Note_on_c, 1, 36, 110
3, 212928, Note_off_c, 1, 36, 64
3, 213120, Note_on_c, 1, 38, 110
3, 213312, Note_off_c, 1, 38, 64
3, 213888, Note_on_c, 1, 41, 110
3, 214080, Note_off_c, 1, 41, 64
3, 214272, Note_on_c, 1, 38, 110
3, 214464, Note_off_c, 1, 38, 64
3, 214656, Note_on_c, 1, 41, 110
3, 214848, Note_off_c, 1, 41, 64
3, 215040, Control_c, 1, 7, 110
3, 215040, Program_c, 1, 38
3, 215040, Note_on_c, 1, 43, 110
3, 215232, Note_off_c, 1, 43, 64
3, 215808, Note_on_c, 1, 43, 110
3, 216000, Note_off_c, 1, 43, 64
3, 216480, Note_on_c, 1, 38, 110
3, 216576, Note_off_c, 1, 38, 64
3, 216576, Note_on_c, 1, 40, 110
3, 216768, Note_off_c, 1, 40, 64
3, 216960, Note_on_c, 1, 43, 110
3, 217152, Note_off_c, 1, 43, 64
3, 217728, Note_on_c, 1, 38, 110
3, 217920, Note_off_c, 1, 38, 64
3, 218112, Note_on_c, 1, 40, 110
3, 218304, Note_off_c, 1, 40, 64
3, 218496, Note_on_c, 1, 43, 110
3, 218688, Note_off_c, 1, 43, 64
3, 218880, Note_on_c, 1, 38, 110
3, 219072, Note_off_c, 1, 38, 64
3, 219264, Note_on_c, 1, 40, 110
3, 219456, Note_off_c, 1, 40, 64
3, 220032, Note_on_c, 1, 43, 110
3, 220224, Note_off_c, 1, 43, 64
3, 220416, Note_on_c, 1, 40, 110
3, 220608, Note_off_c, 1, 40, 64
3, 220800, Note_on_c, 1, 43, 110
3, 220992, Note_off_c, 1, 43, 64
3, 221184, Control_c, 1, 7, 110
3, 221184, Program_c, 1, 38
3, 221184, Note_on_c, 1, 48, 110
3, 221376, Note_off_c, 1, 48, 64
3, 221952, Note_on_c, 1, 48, 110
3, 222144, Note_off_c, 1, 48, 64
3, 222624, Note_on_c, 1, 43, 110
3, 222720, Note_off_c, 1, 43, 64
3, 222720, Note_on_c, 1, 45, 110
3, 222912, Note_off_c, 1, 45, 64
3, 223104, Note_on_c, 1, 48, 110
3, 223296, Note_off_c, 1, 48, 64
3, 223872, Note_on_c, 1, 43, 110
3, 224064, Note_off_c, 1, 43, 64
3, 224256, Note_on_c, 1, 45, 110
3, 224448, Note_off_c, 1, 45, 64
3, 224640, Note_on_c, 1, 48, 110
3, 224832, Note_off_c, 1, 48, 64
3, 225024, Note_on_c, 1, 43, 110
3, 225216, Note_off_c, 1, 43, 64
3, 225408, Note_on_c, 1, 45, 110
3, 225600, Note_off_c, 1, 45, 64
3, 226176, Note_on_c, 1, 48, 110
3, 226368, Note_off_c, 1, 48, 64
3, 226560, Note_on_c, 1, 45, 110
3, 226752, Note_off_c, 1, 45, 64
3, 226944, Note_on_c, 1, 48, 110
3, 227136, Note_off_c, 1, 48, 64
3, 227328, Control_c, 1, 7, 110
3, 227328, Program_c, 1, 38
3, 227328, Note_on_c, 1, 45, 110
3, 227520, Note_off_c, 1, 45, 64
3, 228096, Note_on_c, 1, 45, 110
3, 228288, Note_off_c, 1, 45, 64
3, 228768, Note_on_c, 1, 40, 110
3, 228864, Note_off_c, 1, 40, 64
3, 228864, Note_on_c, 1, 43, 110
3, 229056, Note_off_c, 1, 43, 64
3, 229248, Note_on_c, 1, 45, 110
3, 229440, Note_off_c, 1, 45, 64
3, 230016, Note_on_c, 1, 40, 110
3, 230208, Note_off_c, 1, 40, 64
3, 230400, Note_on_c, 1, 43, 110
3, 230592, Note_off_c, 1, 43, 64
3, 230784, Note_on_c, 1, 45, 110
3, 230976, Note_off_c, 1, 45, 64
3, 231168, Note_on_c, 1, 40, 110
3, 231360, Note_off_c, 1, 40, 64
3, 231552, Note_on_c, 1, 43, 110
3, 231744, Note_off_c, 1, 43, 64
3, 232320, Note_on_c, 1, 45, 110
3, 232512, Note_off_c, 1, 45, 64
3, 232704, Note_on_c, 1, 43, 110
3, 232896, Note_off_c, 1, 43, 64
3, 233088, Note_on_c, 1, 45, 110
3, 233280, Note_off_c, 1, 45, 64
3, 233472, Control_c, 1, 7, 110
3, 233472, Program_c, 1, 38
3, 233472, Note_on_c, 1, 48, 110
3, 233664, Note_off_c, 1, 48, 64
3, 234240, Note_on_c, 1, 48, 110
3, 234432, Note_off_c, 1, 48, 64
3, 234912, Note_on_c, 1, 43, 110
3, 235008, Note_off_c, 1, 43, 64
3, 235008, Note_on_c, 1, 45, 110
3, 235200, Note_off_c, 1, 45, 64
3, 235392, Note_on_c, 1, 48, 110
3, 235584, Note_off_c, 1, 48, 64
3, 236160, Note_on_c, 1, 43, 110
3, 236352, Note_off_c, 1, 43, 64
3, 236544, Note_on_c, 1, 45, 110
3, 236736, Note_off_c, 1, 45, 64
3, 236928, Note_on_c, 1, 48, 110
3, 237120, Note_off_c, 1, 48, 64
3, 237312, Note_on_c, 1, 43, 110
3, 237504, Note_off_c, 1, 43, 64
3, 237696, Note_on_c, 1, 45, 110
3, 237888, Note_off_c, 1, 45, 64
3, 238464, Note_on_c, 1, 48, 110
3, 238656, Note_off_c, 1, 48, 64
3, 238848, Note_on_c, 1, 45, 110
3, 239040, Note_off_c, 1, 45, 64
3, 239232, Note_on_c, 1, 48, 110
3, 239424, Note_off_c, 1, 48, 64
3, 239616, Control_c, 1, 7, 110
3, 239616, Program_c, 1, 38
3, 239616, Note_on_c, 1, 45, 110
3, 239808, Note_off_c, 1, 45, 64
3, 240384, Note_on_c, 1, 45, 110
3, 240576, Note_off_c, 1, 45, 64
3, 241056, Note_on_c, 1, 40, 110
3, 241152, Note_off_c, 1, 40, 64
3, 241152, Note_on_c, 1, 43, 110
3, 241344, Note_off_c, 1, 43, 64
3, 241536, Note_on_c, 1, 45, 110
3, 241728, Note_off_c, 1, 45, 64
3, 242304, Note_on_c, 1, 40, 110
3, 242496, Note_off_c, 1, 40, 64
3, 242688, Note_on_c, 1, 43, 110
3, 242880, Note_off_c, 1, 43, 64
3, 243072, Note_on_c, 1, 45, 110
3, 243264, Note_off_c, 1, 45, 64
3, 243456, Note_on_c, 1, 40, 110
3, 243648, Note_off_c, 1, 40, 64
3, 243840, Note_on_c, 1, 43, 110
3, 244032, Note_off_c, 1, 43, 64
3, 244608, Note_on_c, 1, 45, 110
3, 244800, Note_off_c, 1, 45, 64
3, 244992, Note_on_c, 1, 43, 110
3, 245184, Note_off_c, 1, 43, 64
3, 245376, Note_on_c, 1, 45, 110
3, 245568, Note_off_c, 1, 45, 64
3, 245760, Control_c, 1, 7, 110
3, 245760, Program_c, 1, 38
3, 245760, Note_on_c, 1, 41, 110
3, 245952, Note_off_c, 1, 41, 64
3, 246528, Note_on_c, 1, 41, 110
3, 246720, Note_off_c, 1, 41, 64
3, 247200, Note_on_c, 1, 36, 110
3, 247296, Note_off_c, 1, 36, 64
3, 247296, Note_on_c, 1, 38, 110
3, 247488, Note_off_c, 1, 38, 64
3, 247680, Note_on_c, 1, 41, 110
3, 247872, Note_off_c, 1, 41, 64
3, 248448, Note_on_c, 1, 36, 110
3, 248640, Note_off_c, 1, 36, 64
3, 248832, Note_on_c, 1, 38, 110
3, 249024, Note_off_c, 1, 38, 64
3, 249216, Note_on_c, 1, 41, 110
3, 249408, Note_off_c, 1, 41, 64
3, 249600, Note_on_c, 1, 36, 110
3, 249792, Note_off_c, 1, 36, 64
3, 249984, Note_on_c, 1, 38, 110
3, 250176, Note_off_c, 1, 38, 64
3, 250752, Note_on_c, 1, 41, 110
3, 250944, Note_off_c, 1, 41, 64
3, 251136, Note_on_c, 1, 38, 110
3, 251328, Note_off_c, 1, 38, 64
3, 251520, Note_on_c, 1, 41, 110
3, 251712, Note_off_c, 1, 41, 64
3, 251904, Control_c, 1, 7, 110
3, 251904, Program_c, 1, 38
3, 251904, Note_on_c, 1, 43, 110
3, 252096, Note_off_c, 1, 43, 64
3, 252672, Note_on_c, 1, 43, 110
3, 252864, Note_off_c, 1, 43, 64
3, 253344, Note_on_c, 1, 38, 110
3, 253440, Note_off_c, 1, 38, 64
3, 253440, Note_on_c, 1, 40, 110
3, 253632, Note_off_c, 1, 40, 64
3, 253824, Note_on_c, 1, 43, 110
3, 254016, Note_off_c, 1, 43, 64
3, 254592, Note_on_c, 1, 38, 110
3, 254784, Note_off_c, 1, 38, 64
3, 254976, Note_on_c, 1, 40, 110
3, 255168, Note_off_c, 1, 40, 64
3, 255360, Note_on_c, 1, 43, 110
3, 255552, Note_off_c, 1, 43, 64
3, 255744, Note_on_c, 1, 38, 110
3, 255936, Note_off_c, 1, 38, 64
3, 256128, Note_on_c, 1, 40, 110
3, 256320, Note_off_c, 1, 40, 64
3, 256896, Note_on_c, 1, 43, 110
3, 257088, Note_off_c, 1, 43, 64
3, 257280, Note_on_c, 1, 40, 110
3, 257472, Note_off_c, 1, 40, 64
3, 257664, Note_on_c, 1, 43, 110
3, 257856, Note_off_c, 1, 43, 64
3, 258048, Control_c, 1, 7, 110
3, 258048, Program_c, 1, 38
3, 258048, Note_on_c, 1, 44, 110
3, 258240, Note_off_c, 1, 44, 64
3, 258816, Note_on_c, 1, 44, 110
3, 259008, Note_off_c, 1, 44, 64
3, 259488, Note_on_c, 1, 39, 110
3, 259584, Note_off_c, 1, 39, 64
3, 259584, Note_on_c, 1, 41, 110
3, 259776, Note_off_c, 1, 41, 64
3, 259968, Note_on_c, 1, 44, 110
3, 260160, Note_off_c, 1, 44, 64
3, 260736, Note_on_c, 1, 39, 110
3, 260928, Note_off_c, 1, 39, 64
3, 261120, Note_on_c, 1, 41, 110
3, 261312, Note_off_c, 1, 41, 64
3, 261504, Note_on_c, 1, 44, 110
3, 261696, Note_off_c, 1, 44, 64
3, 261888, Note_on_c, 1, 39, 110
3, 262080, Note_off_c, 1, 39, 64
3, 262272, Note_on_c, 1, 41, 110
3, 262464, Note_off_c, 1, 41, 64
3, 263040, Note_on_c, 1, 44, 110
3, 263232, Note_off_c, 1, 44, 64
3, 263424, Note_on_c, 1, 41, 110
3, 263616, Note_off_c, 1, 41, 64
3, 263808, Note_on_c, 1, 44, 110
3, 264000, Note_off_c, 1, 44, 64
3, 264192, Control_c, 1, 7, 110
3, 264192, Program_c, 1, 38
3, 264192, Note_on_c, 1, 46, 110
3, 264384, Note_off_c, 1, 46, 64
3, 264960, Note_on_c, 1, 46, 110
3, 265152, Note_off_c, 1, 46, 64
3, 265632, Note_on_c, 1, 41, 110
3, 265728, Note_off_c, 1, 41, 64
3, 265728, Note_on_c, 1, 44, 110
3, 265920, Note_off_c, 1, 44, 64
3, 266112, Note_on_c, 1, 46, 110
3, 266304, Note_off_c, 1, 46, 64
3, 266880, Note_on_c, 1, 41, 110
3, 267072, Note_off_c, 1, 41, 64
3, 267264, Note_on_c, 1, 44, 110
3, 267456, Note_off_c, 1, 44, 64
3, 267648, Note_on_c, 1, 46, 110
3, 267840, Note_off_c, 1, 46, 64
3, 268032, Note_on_c, 1, 41, 110
3, 268224, Note_off_c, 1, 41, 64
3, 268416, Note_on_c, 1, 44, 110
3, 268608, Note_off_c, 1, 44, 64
3, 269184, Note_on_c, 1, 46, 110
3, 269376, Note_off_c, 1, 46, 64
3, 269568, Note_on_c, 1, 44, 110
3, 269760, Note_off_c, 1, 44, 64
3, 269952, Note_on_c, 1, 46, 110
3, 270144, Note_off_c, 1, 46, 64
3, 270336, End_track
4, 0, Start_track
4, 0, Title_t, "Uematsu"
4, 0, Control_c, 2, 7, 110
4, 0, Program_c, 2, 38
4, 0, Control_c, 2, 10, 101
4, 0, Control_c, 2, 91, 54
4, 24576, Control_c, 2, 7, 110
4, 24576, Program_c, 2, 38
4, 24576, Note_on_c, 2, 36, 110
4, 24768, Note_off_c, 2, 36, 64
4, 25344, Note_on_c, 2, 36, 110
4, 25536, Note_off_c, 2, 36, 64
4, 26016, Note_on_c, 2, 31, 110
4, 26112, Note_off_c, 2, 31, 64
4, 26112, Note_on_c, 2, 33, 110
4, 26304, Note_off_c, 2, 33, 64
4, 26496, Note_on_c, 2, 36, 110
4, 26688, Note_off_c, 2, 36, 64
4, 27264, Note_on_c, 2, 31, 110
4, 27456, Note_off_c, 2, 31, 64
4, 27648, Note_on_c, 2, 33, 110
4, 27840, Note_off_c, 2, 33, 64
4, 28032, Note_on_c, 2, 36, 110
4, 28224, Note_off_c, 2, 36, 64
4, 28416, Note_on_c, 2, 31, 110
4, 28608, Note_off_c, 2, 31, 64
4, 28800, Note_on_c, 2, 33, 110
4, 28992, Note_off_c, 2, 33, 64
4, 29568, Note_on_c, 2, 36, 110
4, 29760, Note_off_c, 2, 36, 64
4, 29952, Note_on_c, 2, 33, 110
4, 30144, Note_off_c, 2, 33, 64
4, 30336, Note_on_c, 2, 36, 110
4, 30528, Note_off_c, 2, 36, 64
4, 30720, Control_c, 2, 7, 110
4, 30720, Program_c, 2, 38
4, 30720, Note_on_c, 2, 33, 110
4, 30912, Note_off_c, 2, 33, 64
4, 31488, Note_on_c, 2, 33, 110
4, 31680, Note_off_c, 2, 33, 64
4, 32160, Note_on_c, 2, 28, 110
4, 32256, Note_off_c, 2, 28, 64
4, 32256, Note_on_c, 2, 31, 110
4, 32448, Note_off_c, 2, 31, 64
4, 32640, Note_on_c, 2, 33, 110
4, 32832, Note_off_c, 2, 33, 64
4, 33408, Note_on_c, 2, 28, 110
4, 33600, Note_off_c, 2, 28, 64
4, 33792, Note_on_c, 2, 31, 110
4, 33984, Note_off_c, 2, 31, 64
4, 34176, Note_on_c, 2, 33, 110
4, 34368, Note_off_c, 2, 33, 64
4, 34560, Note_on_c, 2, 28, 110
4, 34752, Note_off_c, 2, 28, 64
4, 34944, Note_on_c, 2, 31, 110
4, 35136, Note_off_c, 2, 31, 64
4, 35712, Note_on_c, 2, 33, 110
4, 35904, Note_off_c, 2, 33, 64
4, 36096, Note_on_c, 2, 31, 110
4, 36288, Note_off_c, 2, 31, 64
4, 36480, Note_on_c, 2, 33, 110
4, 36672, Note_off_c, 2, 33, 64
4, 36864, Control_c, 2, 7, 110
4, 36864, Program_c, 2, 38
4, 36864, Note_on_c, 2, 36, 110
4, 37056, Note_off_c, 2, 36, 64
4, 37632, Note_on_c, 2, 36, 110
4, 37824, Note_off_c, 2, 36, 64
4, 38304, Note_on_c, 2, 31, 110
4, 38400, Note_off_c, 2, 31, 64
4, 38400, Note_on_c, 2, 33, 110
4, 38592, Note_off_c, 2, 33, 64
4, 38784, Note_on_c, 2, 36, 110
4, 38976, Note_off_c, 2, 36, 64
4, 39552, Note_on_c, 2, 31, 110
4, 39744, Note_off_c, 2, 31, 64
4, 39936, Note_on_c, 2, 33, 110
4, 40128, Note_off_c, 2, 33, 64
4, 40320, Note_on_c, 2, 36, 110
4, 40512, Note_off_c, 2, 36, 64
4, 40704, Note_on_c, 2, 31, 110
4, 40896, Note_off_c, 2, 31, 64
4, 41088, Note_on_c, 2, 33, 110
4, 41280, Note_off_c, 2, 33, 64
4, 41856, Note_on_c, 2, 36, 110
4, 42048, Note_off_c, 2, 36, 64
4, 42240, Note_on_c, 2, 33, 110
4, 42432, Note_off_c, 2, 33, 64
4, 42624, Note_on_c, 2, 36, 110
4, 42816, Note_off_c, 2, 36, 64
4, 43008, Control_c, 2, 7, 110
4, 43008, Program_c, 2, 38
4, 43008, Note_on_c, 2, 33, 110
4, 43200, Note_off_c, 2, 33, 64
4, 43776, Note_on_c, 2, 33, 110
4, 43968, Note_off_c, 2, 33, 64
4, 44448, Note_on_c, 2, 28, 110
4, 44544, Note_off_c, 2, 28, 64
4, 44544, Note_on_c, 2, 31, 110
4, 44736, Note_off_c, 2, 31, 64
4, 44928, Note_on_c, 2, 33, 110
4, 45120, Note_off_c, 2, 33, 64
4, 45696, Note_on_c, 2, 28, 110
4, 45888, Note_off_c, 2, 28, 64
4, 46080, Note_on_c, 2, 31, 110
4, 46272, Note_off_c, 2, 31, 64
4, 46464, Note_on_c, 2, 33, 110
4, 46656, Note_off_c, 2, 33, 64
4, 46848, Note_on_c, 2, 28, 110
4, 47040, Note_off_c, 2, 28, 64
4, 47232, Note_on_c, 2, 31, 110
4, 47424, Note_off_c, 2, 31, 64
4, 48000, Note_on_c, 2, 33, 110
4, 48192, Note_off_c, 2, 33, 64
4, 48384, Note_on_c, 2, 31, 110
4, 48576, Note_off_c, 2, 31, 64
4, 48768, Note_on_c, 2, 33, 110
4, 48960, Note_off_c, 2, 33, 64
4, 49152, Control_c, 2, 7, 110
4, 49152, Program_c, 2, 38
4, 49152, Note_on_c, 2, 29, 110
4, 49344, Note_off_c, 2, 29, 64
4, 49920, Note_on_c, 2, 29, 110
4, 50112, Note_off_c, 2, 29, 64
4, 50592, Note_on_c, 2, 24, 110
4, 50688, Note_off_c, 2, 24, 64
4, 50688, Note_on_c, 2, 26, 110
4, 50880, Note_off_c, 2, 26, 64
4, 51072, Note_on_c, 2, 29, 110
4, 51264, Note_off_c, 2, 29, 64
4, 51840, Note_on_c, 2, 24, 110
4, 52032, Note_off_c, 2, 24, 64
4, 52224, Note_on_c, 2, 26, 110
4, 52416, Note_off_c, 2, 26, 64
4, 52608, Note_on_c, 2, 29, 110
4, 52800, Note_off_c, 2, 29, 64
4, 52992, Note_on_c, 2, 24, 110
4, 53184, Note_off_c, 2, 24, 64
4, 53376, Note_on_c, 2, 26, 110
4, 53568, Note_off_c, 2, 26, 64
4, 54144, Note_on_c, 2, 29, 110
4, 54336, Note_off_c, 2, 29, 64
4, 54528, Note_on_c, 2, 26, 110
4, 54720, Note_off_c, 2, 26, 64
4, 54912, Note_on_c, 2, 29, 110
4, 55104, Note_off_c, 2, 29, 64
4, 55296, Control_c, 2, 7, 110
4, 55296, Program_c, 2, 38
4, 55296, Note_on_c, 2, 31, 110
4, 55488, Note_off_c, 2, 31, 64
4, 56064, Note_on_c, 2, 31, 110
4, 56256, Note_off_c, 2, 31, 64
4, 56736, Note_on_c, 2, 26, 110
4, 56832, Note_off_c, 2, 26, 64
4, 56832, Note_on_c, 2, 28, 110
4, 57024, Note_off_c, 2, 28, 64
4, 57216, Note_on_c, 2, 31, 110
4, 57408, Note_off_c, 2, 31, 64
4, 57984, Note_on_c, 2, 26, 110
4, 58176, Note_off_c, 2, 26, 64
4, 58368, Note_on_c, 2, 28, 110
4, 58560, Note_off_c, 2, 28, 64
4, 58752, Note_on_c, 2, 31, 110
4, 58944, Note_off_c, 2, 31, 64
4, 59136, Note_on_c, 2, 26, 110
4, 59328, Note_off_c, 2, 26, 64
4, 59520, Note_on_c, 2, 28, 110
4, 59712, Note_off_c, 2, 28, 64
4, 60288, Note_on_c, 2, 31, 110
4, 60480, Note_off_c, 2, 31, 64
4, 60672, Note_on_c, 2, 28, 110
4, 60864, Note_off_c, 2, 28, 64
4, 61056, Note_on_c, 2, 31, 110
4, 61248, Note_off_c, 2, 31, 64
4, 61440, Control_c, 2, 7, 110
4, 61440, Program_c, 2, 38
4, 61440, Note_on_c, 2, 36, 110
4, 61632, Note_off_c, 2, 36, 64
4, 62208, Note_on_c, 2, 36, 110
4, 62400, Note_off_c, 2, 36, 64
4, 62880, Note_on_c, 2, 31, 110
4, 62976, Note_off_c, 2, 31, 64
4, 62976, Note_on_c, 2, 33, 110
4, 63168, Note_off_c, 2, 33, 64
4, 63360, Note_on_c, 2, 36, 110
4, 63552, Note_off_c, 2, 36, 64
4, 64128, Note_on_c, 2, 31, 110
4, 64320, Note_off_c, 2, 31, 64
4, 64512, Note_on_c, 2, 33, 110
4, 64704, Note_off_c, 2, 33, 64
4, 64896, Note_on_c, 2, 36, 110
4, 65088, Note_off_c, 2, 36, 64
4, 65280, Note_on_c, 2, 31, 110
4, 65472, Note_off_c, 2, 31, 64
4, 65664, Note_on_c, 2, 33, 110
4, 65856, Note_off_c, 2, 33, 64
4, 66432, Note_on_c, 2, 36, 110
4, 66624, Note_off_c, 2, 36, 64
4, 66816, Note_on_c, 2, 33, 110
4, 67008, Note_off_c, 2, 33, 64
4, 67200, Note_on_c, 2, 36, 110
4, 67392, Note_off_c, 2, 36, 64
4, 67584, Control_c, 2, 7, 110
4, 67584, Program_c, 2, 38
4, 67584, Note_on_c, 2, 33, 110
4, 67776, Note_off_c, 2, 33, 64
4, 68352, Note_on_c, 2, 33, 110
4, 68544, Note_off_c, 2, 33, 64
4, 69024, Note_on_c, 2, 28, 110
4, 69120, Note_off_c, 2, 28, 64
4, 69120, Note_on_c, 2, 31, 110
4, 69312, Note_off_c, 2, 31, 64
4, 69504, Note_on_c, 2, 33, 110
4, 69696, Note_off_c, 2, 33, 64
4, 70272, Note_on_c, 2, 28, 110
4, 70464, Note_off_c, 2, 28, 64
4, 70656, Note_on_c, 2, 31, 110
4, 70848, Note_off_c, 2, 31, 64
4, 71040, Note_on_c, 2, 33, 110
4, 71232, Note_off_c, 2, 33, 64
4, 71424, Note_on_c, 2, 28, 110
4, 71616, Note_off_c, 2, 28, 64
4, 71808, Note_on_c, 2, 31, 110
4, 72000, Note_off_c, 2, 31, 64
4, 72576, Note_on_c, 2, 33, 110
4, 72768, Note_off_c, 2, 33, 64
4, 72960, Note_on_c, 2, 31, 110
4, 73152, Note_off_c, 2, 31, 64
4, 73344, Note_on_c, 2, 33, 110
4, 73536, Note_off_c, 2, 33, 64
4, 73728, Control_c, 2, 7, 110
4, 73728, Program_c, 2, 38
4, 73728, Note_on_c, 2, 36, 110
4, 73920, Note_off_c, 2, 36, 64
4, 74496, Note_on_c, 2, 36, 110
4, 74688, Note_off_c, 2, 36, 64
4, 75168, Note_on_c, 2, 31, 110
4, 75264, Note_off_c, 2, 31, 64
4, 75264, Note_on_c, 2, 33, 110
4, 75456, Note_off_c, 2, 33, 64
4, 75648, Note_on_c, 2, 36, 110
4, 75840, Note_off_c, 2, 36, 64
4, 76416, Note_on_c, 2, 31, 110
4, 76608, Note_off_c, 2, 31, 64
4, 76800, Note_on_c, 2, 33, 110
4, 76992, Note_off_c, 2, 33, 64
4, 77184, Note_on_c, 2, 36, 110
4, 77376, Note_off_c, 2, 36, 64
4, 77568, Note_on_c, 2, 31, 110
4, 77760, Note_off_c, 2, 31, 64
4, 77952, Note_on_c, 2, 33, 110
4, 78144, Note_off_c, 2, 33, 64
4, 78720, Note_on_c, 2, 36, 110
4, 78912, Note_off_c, 2, 36, 64
4, 79104, Note_on_c, 2, 33, 110
4, 79296, Note_off_c, 2, 33, 64
4, 79488, Note_on_c, 2, 36, 110
4, 79680, Note_off_c, 2, 36, 64
4, 79872, Control_c, 2, 7, 110
4, 79872, Program_c, 2, 38
4, 79872, Note_on_c, 2, 33, 110
4, 80064, Note_off_c, 2, 33, 64
4, 80640, Note_on_c, 2, 33, 110
4, 80832, Note_off_c, 2, 33, 64
4, 81312, Note_on_c, 2, 28, 110
4, 81408, Note_off_c, 2, 28, 64
4, 81408, Note_on_c, 2, 31, 110
4, 81600, Note_off_c, 2, 31, 64
4, 81792, Note_on_c, 2, 33, 110
4, 81984, Note_off_c, 2, 33, 64
4, 82560, Note_on_c, 2, 28, 110
4, 82752, Note_off_c, 2, 28, 64
4, 82944, Note_on_c, 2, 31, 110
4, 83136, Note_off_c, 2, 31, 64
4, 83328, Note_on_c, 2, 33, 110
4, 83520, Note_off_c, 2, 33, 64
4, 83712, Note_on_c, 2, 28, 110
4, 83904, Note_off_c, 2, 28, 64
4, 84096, Note_on_c, 2, 31, 110
4, 84288, Note_off_c, 2, 31, 64
4, 84864, Note_on_c, 2, 33, 110
4, 85056, Note_off_c, 2, 33, 64
4, 85248, Note_on_c, 2, 31, 110
4, 85440, Note_off_c, 2, 31, 64
4, 85632, Note_on_c, 2, 33, 110
4, 85824, Note_off_c, 2, 33, 64
4, 86016, Control_c, 2, 7, 110
4, 86016, Program_c, 2, 38
4, 86016, Note_on_c, 2, 29, 110
4, 86208, Note_off_c, 2, 29, 64
4, 86784, Note_on_c, 2, 29, 110
4, 86976, Note_off_c, 2, 29, 64
4, 87456, Note_on_c, 2, 24, 110
4, 87552, Note_off_c, 2, 24, 64
4, 87552, Note_on_c, 2, 26, 110
4, 87744, Note_off_c, 2, 26, 64
4, 87936, Note_on_c, 2, 29, 110
4, 88128, Note_off_c, 2, 29, 64
4, 88704, Note_on_c, 2, 24, 110
4, 88896, Note_off_c, 2, 24, 64
4, 89088, Note_on_c, 2, 26, 110
4, 89280, Note_off_c, 2, 26, 64
4, 89472, Note_on_c, 2, 29, 110
4, 89664, Note_off_c, 2, 29, 64
4, 89856, Note_on_c, 2, 24, 110
4, 90048, Note_off_c, 2, 24, 64
4, 90240, Note_on_c, 2, 26, 110
4, 90432, Note_off_c, 2, 26, 64
4, 91008, Note_on_c, 2, 29, 110
4, 91200, Note_off_c, 2, 29, 64
4, 91392, Note_on_c, 2, 26, 110
4, 91584, Note_off_c, 2, 26, 64
4, 91776, Note_on_c, 2, 29, 110
4, 91968, Note_off_c, 2, 29, 64
4, 92160, Control_c, 2, 7, 110
4, 92160, Program_c, 2, 38
4, 92160, Note_on_c, 2, 31, 110
4, 92352, Note_off_c, 2, 31, 64
4, 92928, Note_on_c, 2, 31, 110
4, 93120, Note_off_c, 2, 31, 64
4, 93600, Note_on_c, 2, 26, 110
4, 93696, Note_off_c, 2, 26, 64
4, 93696, Note_on_c, 2, 28, 110
4, 93888, Note_off_c, 2, 28, 64
4, 94080, Note_on_c, 2, 31, 110
4, 94272, Note_off_c, 2, 31, 64
4, 94848, Note_on_c, 2, 26, 110
4, 95040, Note_off_c, 2, 26, 64
4, 95232, Note_on_c, 2, 28, 110
4, 95424, Note_off_c, 2, 28, 64
4, 95616, Note_on_c, 2, 31, 110
4, 95808, Note_off_c, 2, 31, 64
4, 96000, Note_on_c, 2, 26, 110
4, 96192, Note_off_c, 2, 26, 64
4, 96384, Note_on_c, 2, 28, 110
4, 96576, Note_off_c, 2, 28, 64
4, 97152, Note_on_c, 2, 31, 110
4, 97344, Note_off_c, 2, 31, 64
4, 97536, Note_on_c, 2, 28, 110
4, 97728, Note_off_c, 2, 28, 64
4, 97920, Note_on_c, 2, 31, 110
4, 98112, Note_off_c, 2, 31, 64
4, 98304, Control_c, 2, 7, 110
4, 98304, Program_c, 2, 38
4, 98304, Note_on_c, 2, 36, 110
4, 98496, Note_off_c, 2, 36, 64
4, 99072, Note_on_c, 2, 36, 110
4, 99264, Note_off_c, 2, 36, 64
4, 99744, Note_on_c, 2, 31, 110
4, 99840, Note_off_c, 2, 31, 64
4, 99840, Note_on_c, 2, 33, 110
4, 100032, Note_off_c, 2, 33, 64
4, 100224, Note_on_c, 2, 36, 110
4, 100416, Note_off_c, 2, 36, 64
4, 100992, Note_on_c, 2, 31, 110
4, 101184, Note_off_c, 2, 31, 64
4, 101376, Note_on_c, 2, 33, 110
4, 101568, Note_off_c, 2, 33, 64
4, 101760, Note_on_c, 2, 36, 110
4, 101952, Note_off_c, 2, 36, 64
4, 102144, Note_on_c, 2, 31, 110
4, 102336, Note_off_c, 2, 31, 64
4, 102528, Note_on_c, 2, 33, 110
4, 102720, Note_off_c, 2, 33, 64
4, 103296, Note_on_c, 2, 36, 110
4, 103488, Note_off_c, 2, 36, 64
4, 103680, Note_on_c, 2, 33, 110
4, 103872, Note_off_c, 2, 33, 64
4, 104064, Note_on_c, 2, 36, 110
4, 104256, Note_off_c, 2, 36, 64
4, 104448, Control_c, 2, 7, 110
4, 104448, Program_c, 2, 38
4, 104448, Note_on_c, 2, 33, 110
4, 104640, Note_off_c, 2, 33, 64
4, 105216, Note_on_c, 2, 33, 110
4, 105408, Note_off_c, 2, 33, 64
4, 105888, Note_on_c, 2, 28, 110
4, 105984, Note_off_c, 2, 28, 64
4, 105984, Note_on_c, 2, 31, 110
4, 106176, Note_off_c, 2, 31, 64
4, 106368, Note_on_c, 2, 33, 110
4, 106560, Note_off_c, 2, 33, 64
4, 107136, Note_on_c, 2, 28, 110
4, 107328, Note_off_c, 2, 28, 64
4, 107520, Note_on_c, 2, 31, 110
4, 107712, Note_off_c, 2, 31, 64
4, 107904, Note_on_c, 2, 33, 110
4, 108096, Note_off_c, 2, 33, 64
4, 108288, Note_on_c, 2, 28, 110
4, 108480, Note_off_c, 2, 28, 64
4, 108672, Note_on_c, 2, 31, 110
4, 108864, Note_off_c, 2, 31, 64
4, 109440, Note_on_c, 2, 33, 110
4, 109632, Note_off_c, 2, 33, 64
4, 109824, Note_on_c, 2, 31, 110
4, 110016, Note_off_c, 2, 31, 64
4, 110208, Note_on_c, 2, 33, 110
4, 110400, Note_off_c, 2, 33, 64
4, 110592, Control_c, 2, 7, 110
4, 110592, Program_c, 2, 38
4, 110592, Note_on_c, 2, 36, 110
4, 110784, Note_off_c, 2, 36, 64
4, 111360, Note_on_c, 2, 36, 110
4, 111552, Note_off_c, 2, 36, 64
4, 112032, Note_on_c, 2, 31, 110
4, 112128, Note_off_c, 2, 31, 64
4, 112128, Note_on_c, 2, 33, 110
4, 112320, Note_off_c, 2, 33, 64
4, 112512, Note_on_c, 2, 36, 110
4, 112704, Note_off_c, 2, 36, 64
4, 113280, Note_on_c, 2, 31, 110
4, 113472, Note_off_c, 2, 31, 64
4, 113664, Note_on_c, 2, 33, 110
4, 113856, Note_off_c, 2, 33, 64
4, 114048, Note_on_c, 2, 36, 110
4, 114240, Note_off_c, 2, 36, 64
4, 114432, Note_on_c, 2, 31, 110
4, 114624, Note_off_c, 2, 31, 64
4, 114816, Note_on_c, 2, 33, 110
4, 115008, Note_off_c, 2, 33, 64
4, 115584, Note_on_c, 2, 36, 110
4, 115776, Note_off_c, 2, 36, 64
4, 115968, Note_on_c, 2, 33, 110
4, 116160, Note_off_c, 2, 33, 64
4, 116352, Note_on_c, 2, 36, 110
4, 116544, Note_off_c, 2, 36, 64
4, 116736, Control_c, 2, 7, 110
4, 116736, Program_c, 2, 38
4, 116736, Note_on_c, 2, 33, 110
4, 116928, Note_off_c, 2, 33, 64
4, 117504, Note_on_c, 2, 33, 110
4, 117696, Note_off_c, 2, 33, 64
4, 118176, Note_on_c, 2, 28, 110
4, 118272, Note_off_c, 2, 28, 64
4, 118272, Note_on_c, 2, 31, 110
4, 118464, Note_off_c, 2, 31, 64
4, 118656, Note_on_c, 2, 33, 110
4, 118848, Note_off_c, 2, 33, 64
4, 119424, Note_on_c, 2, 28, 110
4, 119616, Note_off_c, 2, 28, 64
4, 119808, Note_on_c, 2, 31, 110
4, 120000, Note_off_c, 2, 31, 64
4, 120192, Note_on_c, 2, 33, 110
4, 120384, Note_off_c, 2, 33, 64
4, 120576, Note_on_c, 2, 28, 110
4, 120768, Note_off_c, 2, 28, 64
4, 120960, Note_on_c, 2, 31, 110
4, 121152, Note_off_c, 2, 31, 64
4, 121728, Note_on_c, 2, 33, 110
4, 121920, Note_off_c, 2, 33, 64
4, 122112, Note_on_c, 2, 31, 110
4, 122304, Note_off_c, 2, 31, 64
4, 122496, Note_on_c, 2, 33, 110
4, 122688, Note_off_c, 2, 33, 64
4, 122880, Control_c, 2, 7, 110
4, 122880, Program_c, 2, 38
4, 122880, Note_on_c, 2, 29, 110
4, 123072, Note_off_c, 2, 29, 64
4, 123648, Note_on_c, 2, 29, 110
4, 123840, Note_off_c, 2, 29, 64
4, 124320, Note_on_c, 2, 24, 110
4, 124416, Note_off_c, 2, 24, 64
4, 124416, Note_on_c, 2, 26, 110
4, 124608, Note_off_c, 2, 26, 64
4, 124800, Note_on_c, 2, 29, 110
4, 124992, Note_off_c, 2, 29, 64
4, 125568, Note_on_c, 2, 24, 110
4, 125760, Note_off_c, 2, 24, 64
4, 125952, Note_on_c, 2, 26, 110
4, 126144, Note_off_c, 2, 26, 64
4, 126336, Note_on_c, 2, 29, 110
4, 126528, Note_off_c, 2, 29, 64
4, 126720, Note_on_c, 2, 24, 110
4, 126912, Note_off_c, 2, 24, 64
4, 127104, Note_on_c, 2, 26, 110
4, 127296, Note_off_c, 2, 26, 64
4, 127872, Note_on_c, 2, 29, 110
4, 128064, Note_off_c, 2, 29, 64
4, 128256, Note_on_c, 2, 26, 110
4, 128448, Note_off_c, 2, 26, 64
4, 128640, Note_on_c, 2, 29, 110
4, 128832, Note_off_c, 2, 29, 64
4, 129024, Control_c, 2, 7, 110
4, 129024, Program_c, 2, 38
4, 129024, Note_on_c, 2, 31, 110
4, 129216, Note_off_c, 2, 31, 64
4, 129792, Note_on_c, 2, 31, 110
4, 129984, Note_off_c, 2, 31, 64
4, 130464, Note_on_c, 2, 26, 110
4, 130560, Note_off_c, 2, 26, 64
4, 130560, Note_on_c, 2, 28, 110
4, 130752, Note_off_c, 2, 28, 64
4, 130944, Note_on_c, 2, 31, 110
4, 131136, Note_off_c, 2, 31, 64
4, 131712, Note_on_c, 2, 26, 110
4, 131904, Note_off_c, 2, 26, 64
4, 132096, Note_on_c, 2, 28, 110
4, 132288, Note_off_c, 2, 28, 64
4, 132480, Note_on_c, 2, 31, 110
4, 132672, Note_off_c, 2, 31, 64
4, 132864, Note_on_c, 2, 26, 110
4, 133056, Note_off_c, 2, 26, 64
4, 133248, Note_on_c, 2, 28, 110
4, 133440, Note_off_c, 2, 28, 64
4, 134016, Note_on_c, 2, 31, 110
4, 134208, Note_off_c, 2, 31, 64
4, 134400, Note_on_c, 2, 28, 110
4, 134592, Note_off_c, 2, 28, 64
4, 134784, Note_on_c, 2, 31, 110
4, 134976, Note_off_c, 2, 31, 64
4, 135168, Control_c, 2, 7, 110
4, 135168, Program_c, 2, 38
4, 135168, Note_on_c, 2, 32, 110
4, 135360, Note_off_c, 2, 32, 64
4, 135936, Note_on_c, 2, 32, 110
4, 136128, Note_off_c, 2, 32, 64
4, 136608, Note_on_c, 2, 27, 110
4, 136704, Note_off_c, 2, 27, 64
4, 136704, Note_on_c, 2, 29, 110
4, 136896, Note_off_c, 2, 29, 64
4, 137088, Note_on_c, 2, 32, 110
4, 137280, Note_off_c, 2, 32, 64
4, 137856, Note_on_c, 2, 27, 110
4, 138048, Note_off_c, 2, 27, 64
4, 138240, Note_on_c, 2, 29, 110
4, 138432, Note_off_c, 2, 29, 64
4, 138624, Note_on_c, 2, 32, 110
4, 138816, Note_off_c, 2, 32, 64
4, 139008, Note_on_c, 2, 27, 110
4, 139200, Note_off_c, 2, 27, 64
4, 139392, Note_on_c, 2, 29, 110
4, 139584, Note_off_c, 2, 29, 64
4, 140160, Note_on_c, 2, 32, 110
4, 140352, Note_off_c, 2, 32, 64
4, 140544, Note_on_c, 2, 29, 110
4, 140736, Note_off_c, 2, 29, 64
4, 140928, Note_on_c, 2, 32, 110
4, 141120, Note_off_c, 2, 32, 64
4, 141312, Control_c, 2, 7, 110
4, 141312, Program_c, 2, 38
4, 141312, Note_on_c, 2, 34, 110
4, 141504, Note_off_c, 2, 34, 64
4, 142080, Note_on_c, 2, 34, 110
4, 142272, Note_off_c, 2, 34, 64
4, 142752, Note_on_c, 2, 29, 110
4, 142848, Note_off_c, 2, 29, 64
4, 142848, Note_on_c, 2, 32, 110
4, 143040, Note_off_c, 2, 32, 64
4, 143232, Note_on_c, 2, 34, 110
4, 143424, Note_off_c, 2, 34, 64
4, 144000, Note_on_c, 2, 29, 110
4, 144192, Note_off_c, 2, 29, 64
4, 144384, Note_on_c, 2, 32, 110
4, 144576, Note_off_c, 2, 32, 64
4, 144768, Note_on_c, 2, 34, 110
4, 144960, Note_off_c, 2, 34, 64
4, 145152, Note_on_c, 2, 29, 110
4, 145344, Note_off_c, 2, 29, 64
4, 145536, Note_on_c, 2, 32, 110
4, 145728, Note_off_c, 2, 32, 64
4, 146304, Note_on_c, 2, 34, 110
4, 146496, Note_off_c, 2, 34, 64
4, 146688, Note_on_c, 2, 32, 110
4, 146880, Note_off_c, 2, 32, 64
4, 147072, Note_on_c, 2, 34, 110
4, 147264, Note_off_c, 2, 34, 64
4, 147456, Control_c, 2, 7, 110
4, 147456, Program_c, 2, 38
4, 147456, Note_on_c, 2, 36, 110
4, 147648, Note_off_c, 2, 36, 64
4, 148224, Note_on_c, 2, 36, 110
4, 148416, Note_off_c, 2, 36, 64
4, 148896, Note_on_c, 2, 31, 110
4, 148992, Note_off_c, 2, 31, 64
4, 148992, Note_on_c, 2, 33, 110
4, 149184, Note_off_c, 2, 33, 64
4, 149376, Note_on_c, 2, 36, 110
4, 149568, Note_off_c, 2, 36, 64
4, 150144, Note_on_c, 2, 31, 110
4, 150336, Note_off_c, 2, 31, 64
4, 150528, Note_on_c, 2, 33, 110
4, 150720, Note_off_c, 2, 33, 64
4, 150912, Note_on_c, 2, 36, 110
4, 151104, Note_off_c, 2, 36, 64
4, 151296, Note_on_c, 2, 31, 110
4, 151488, Note_off_c, 2, 31, 64
4, 151680, Note_on_c, 2, 33, 110
4, 151872, Note_off_c, 2, 33, 64
4, 152448, Note_on_c, 2, 36, 110
4, 152640, Note_off_c, 2, 36, 64
4, 152832, Note_on_c, 2, 33, 110
4, 153024, Note_off_c, 2, 33, 64
4, 153216, Note_on_c, 2, 36, 110
4, 153408, Note_off_c, 2, 36, 64
4, 153600, Control_c, 2, 7, 110
4, 153600, Program_c, 2, 38
4, 153600, Note_on_c, 2, 33, 110
4, 153792, Note_off_c, 2, 33, 64
4, 154368, Note_on_c, 2, 33, 110
4, 154560, Note_off_c, 2, 33, 64
4, 155040, Note_on_c, 2, 28, 110
4, 155136, Note_off_c, 2, 28, 64
4, 155136, Note_on_c, 2, 31, 110
4, 155328, Note_off_c, 2, 31, 64
4, 155520, Note_on_c, 2, 33, 110
4, 155712, Note_off_c, 2, 33, 64
4, 156288, Note_on_c, 2, 28, 110
4, 156480, Note_off_c, 2, 28, 64
4, 156672, Note_on_c, 2, 31, 110
4, 156864, Note_off_c, 2, 31, 64
4, 157056, Note_on_c, 2, 33, 110
4, 157248, Note_off_c, 2, 33, 64
4, 157440, Note_on_c, 2, 28, 110
4, 157632, Note_off_c, 2, 28, 64
4, 157824, Note_on_c, 2, 31, 110
4, 158016, Note_off_c, 2, 31, 64
4, 158592, Note_on_c, 2, 33, 110
4, 158784, Note_off_c, 2, 33, 64
4, 158976, Note_on_c, 2, 31, 110
4, 159168, Note_off_c, 2, 31, 64
4, 159360, Note_on_c, 2, 33, 110
4, 159552, Note_off_c, 2, 33, 64
4, 159744, Control_c, 2, 7, 110
4, 159744, Program_c, 2, 38
4, 159744, Note_on_c, 2, 36, 110
4, 159936, Note_off_c, 2, 36, 64
4, 160512, Note_on_c, 2, 36, 110
4, 160704, Note_off_c, 2, 36, 64
4, 161184, Note_on_c, 2, 31, 110
4, 161280, Note_off_c, 2, 31, 64
4, 161280, Note_on_c, 2, 33, 110
4, 161472, Note_off_c, 2, 33, 64
4, 161664, Note_on_c, 2, 36, 110
4, 161856, Note_off_c, 2, 36, 64
4, 162432, Note_on_c, 2, 31, 110
4, 162624, Note_off_c, 2, 31, 64
4, 162816, Note_on_c, 2, 33, 110
4, 163008, Note_off_c, 2, 33, 64
4, 163200, Note_on_c, 2, 36, 110
4, 163392, Note_off_c, 2, 36, 64
4, 163584, Note_on_c, 2, 31, 110
4, 163776, Note_off_c, 2, 31, 64
4, 163968, Note_on_c, 2, 33, 110
4, 164160, Note_off_c, 2, 33, 64
4, 164736, Note_on_c, 2, 36, 110
4, 164928, Note_off_c, 2, 36, 64
4, 165120, Note_on_c, 2, 33, 110
4, 165312, Note_off_c, 2, 33, 64
4, 165504, Note_on_c, 2, 36, 110
4, 165696, Note_off_c, 2, 36, 64
4, 165888, Control_c, 2, 7, 110
4, 165888, Program_c, 2, 38
4, 165888, Note_on_c, 2, 33, 110
4, 166080, Note_off_c, 2, 33, 64
4, 166656, Note_on_c, 2, 33, 110
4, 166848, Note_off_c, 2, 33, 64
4, 167328, Note_on_c, 2, 28, 110
4, 167424, Note_off_c, 2, 28, 64
4, 167424, Note_on_c, 2, 31, 110
4, 167616, Note_off_c, 2, 31, 64
4, 167808, Note_on_c, 2, 33, 110
4, 168000, Note_off_c, 2, 33, 64
4, 168576, Note_on_c, 2, 28, 110
4, 168768, Note_off_c, 2, 28, 64
4, 168960, Note_on_c, 2, 31, 110
4, 169152, Note_off_c, 2, 31, 64
4, 169344, Note_on_c, 2, 33, 110
4, 169536, Note_off_c, 2, 33, 64
4, 169728, Note_on_c, 2, 28, 110
4, 169920, Note_off_c, 2, 28, 64
4, 170112, Note_on_c, 2, 31, 110
4, 170304, Note_off_c, 2, 31, 64
4, 170880, Note_on_c, 2, 33, 110
4, 171072, Note_off_c, 2, 33, 64
4, 171264, Note_on_c, 2, 31, 110
4, 171456, Note_off_c, 2, 31, 64
4, 171648, Note_on_c, 2, 33, 110
4, 171840, Note_off_c, 2, 33, 64
4, 172032, Control_c, 2, 7, 110
4, 172032, Program_c, 2, 38
4, 172032, Note_on_c, 2, 29, 110
4, 172224, Note_off_c, 2, 29, 64
4, 172800, Note_on_c, 2, 29, 110
4, 172992, Note_off_c, 2, 29, 64
4, 173472, Note_on_c, 2, 24, 110
4, 173568, Note_off_c, 2, 24, 64
4, 173568, Note_on_c, 2, 26, 110
4, 173760, Note_off_c, 2, 26, 64
4, 173952, Note_on_c, 2, 29, 110
4, 174144, Note_off_c, 2, 29, 64
4, 174720, Note_on_c, 2, 24, 110
4, 174912, Note_off_c, 2, 24, 64
4, 175104, Note_on_c, 2, 26, 110
4, 175296, Note_off_c, 2, 26, 64
4, 175488, Note_on_c, 2, 29, 110
4, 175680, Note_off_c, 2, 29, 64
4, 175872, Note_on_c, 2, 24, 110
4, 176064, Note_off_c, 2, 24, 64
4, 176256, Note_on_c, 2, 26, 110
4, 176448, Note_off_c, 2, 26, 64
4, 177024, Note_on_c, 2, 29, 110
4, 177216, Note_off_c, 2, 29, 64
4, 177408, Note_on_c, 2, 26, 110
4, 177600, Note_off_c, 2, 26, 64
4, 177792, Note_on_c, 2, 29, 110
4, 177984, Note_off_c, 2, 29, 64
4, 178176, Control_c, 2, 7, 110
4, 178176, Program_c, 2, 38
4, 178176, Note_on_c, 2, 31, 110
4, 178368, Note_off_c, 2, 31, 64
4, 178944, Note_on_c, 2, 31, 110
4, 179136, Note_off_c, 2, 31, 64
4, 179616, Note_on_c, 2, 26, 110
4, 179712, Note_off_c, 2, 26, 64
4, 179712, Note_on_c, 2, 28, 110
4, 179904, Note_off_c, 2, 28, 64
4, 180096, Note_on_c, 2, 31, 110
4, 180288, Note_off_c, 2, 31, 64
4, 180864, Note_on_c, 2, 26, 110
4, 181056, Note_off_c, 2, 26, 64
4, 181248, Note_on_c, 2, 28, 110
4, 181440, Note_off_c, 2, 28, 64
4, 181632, Note_on_c, 2, 31, 110
4, 181824, Note_off_c, 2, 31, 64
4, 182016, Note_on_c, 2, 26, 110
4, 182208, Note_off_c, 2, 26, 64
4, 182400, Note_on_c, 2, 28, 110
4, 182592, Note_off_c, 2, 28, 64
4, 183168, Note_on_c, 2, 31, 110
4, 183360, Note_off_c, 2, 31, 64
4, 183552, Note_on_c, 2, 28, 110
4, 183744, Note_off_c, 2, 28, 64
4, 183936, Note_on_c, 2, 31, 110
4, 184128, Note_off_c, 2, 31, 64
4, 184320, Control_c, 2, 7, 110
4, 184320, Program_c, 2, 38
4, 184320, Note_on_c, 2, 36, 110
4, 184512, Note_off_c, 2, 36, 64
4, 185088, Note_on_c, 2, 36, 110
4, 185280, Note_off_c, 2, 36, 64
4, 185760, Note_on_c, 2, 31, 110
4, 185856, Note_off_c, 2, 31, 64
4, 185856, Note_on_c, 2, 33, 110
4, 186048, Note_off_c, 2, 33, 64
4, 186240, Note_on_c, 2, 36, 110
4, 186432, Note_off_c, 2, 36, 64
4, 187008, Note_on_c, 2, 31, 110
4, 187200, Note_off_c, 2, 31, 64
4, 187392, Note_on_c, 2, 33, 110
4, 187584, Note_off_c, 2, 33, 64
4, 187776, Note_on_c, 2, 36, 110
4, 187968, Note_off_c, 2, 36, 64
4, 188160, Note_on_c, 2, 31, 110
4, 188352, Note_off_c, 2, 31, 64
4, 188544, Note_on_c, 2, 33, 110
4, 188736, Note_off_c, 2, 33, 64
4, 189312, Note_on_c, 2, 36, 110
4, 189504, Note_off_c, 2, 36, 64
4, 189696, Note_on_c, 2, 33, 110
4, 189888, Note_off_c, 2, 33, 64
4, 190080, Note_on_c, 2, 36, 110
4, 190272, Note_off_c, 2, 36, 64
4, 190464, Control_c, 2, 7, 110
4, 190464, Program_c, 2, 38
4, 190464, Note_on_c, 2, 33, 110
4, 190656, Note_off_c, 2, 33, 64
4, 191232, Note_on_c, 2, 33, 110
4, 191424, Note_off_c, 2, 33, 64
4, 191904, Note_on_c, 2, 28, 110
4, 192000, Note_off_c, 2, 28, 64
4, 192000, Note_on_c, 2, 31, 110
4, 192192, Note_off_c, 2, 31, 64
4, 192384, Note_on_c, 2, 33, 110
4, 192576, Note_off_c, 2, 33, 64
4, 193152, Note_on_c, 2, 28, 110
4, 193344, Note_off_c, 2, 28, 64
4, 193536, Note_on_c, 2, 31, 110
4, 193728, Note_off_c, 2, 31, 64
4, 193920, Note_on_c, 2, 33, 110
4, 194112, Note_off_c, 2, 33, 64
4, 194304, Note_on_c, 2, 28, 110
4, 194496, Note_off_c, 2, 28, 64
4, 194688, Note_on_c, 2, 31, 110
4, 194880, Note_off_c, 2, 31, 64
4, 195456, Note_on_c, 2, 33, 110
4, 195648, Note_off_c, 2, 33, 64
4, 195840, Note_on_c, 2, 31, 110
4, 196032, Note_off_c, 2, 31, 64
4, 196224, Note_on_c, 2, 33, 110
4, 196416, Note_off_c, 2, 33, 64
4, 196608, Control_c, 2, 7, 110
4, 196608, Program_c, 2, 38
4, 196608, Note_on_c, 2, 36, 110
4, 196800, Note_off_c, 2, 36, 64
4, 197376, Note_on_c, 2, 36, 110
4, 197568, Note_off_c, 2, 36, 64
4, 198048, Note_on_c, 2, 31, 110
4, 198144, Note_off_c, 2, 31, 64
4, 198144, Note_on_c, 2, 33, 110
4, 198336, Note_off_c, 2, 33, 64
4, 198528, Note_on_c, 2, 36, 110
4, 198720, Note_off_c, 2, 36, 64
4, 199296, Note_on_c, 2, 31, 110
4, 199488, Note_off_c, 2, 31, 64
4, 199680, Note_on_c, 2, 33, 110
4, 199872, Note_off_c, 2, 33, 64
4, 200064, Note_on_c, 2, 36, 110
4, 200256, Note_off_c, 2, 36, 64
4, 200448, Note_on_c, 2, 31, 110
4, 200640, Note_off_c, 2, 31, 64
4, 200832, Note_on_c, 2, 33, 110
4, 201024, Note_off_c, 2, 33, 64
4, 201600, Note_on_c, 2, 36, 110
4, 201792, Note_off_c, 2, 36, 64
4, 201984, Note_on_c, 2, 33, 110
4, 202176, Note_off_c, 2, 33, 64
4, 202368, Note_on_c, 2, 36, 110
4, 202560, Note_off_c, 2, 36, 64
4, 202752, Control_c, 2, 7, 110
4, 202752, Program_c, 2, 38
4, 202752, Note_on_c, 2, 33, 110
4, 202944, Note_off_c, 2, 33, 64
4, 203520, Note_on_c, 2, 33, 110
4, 203712, Note_off_c, 2, 33, 64
4, 204192, Note_on_c, 2, 28, 110
4, 204288, Note_off_c, 2, 28, 64
4, 204288, Note_on_c, 2, 31, 110
4, 204480, Note_off_c, 2, 31, 64
4, 204672, Note_on_c, 2, 33, 110
4, 204864, Note_off_c, 2, 33, 64
4, 205440, Note_on_c, 2, 28, 110
4, 205632, Note_off_c, 2, 28, 64
4, 205824, Note_on_c, 2, 31, 110
4, 206016, Note_off_c, 2, 31, 64
4, 206208, Note_on_c, 2, 33, 110
4, 206400, Note_off_c, 2, 33, 64
4, 206592, Note_on_c, 2, 28, 110
4, 206784, Note_off_c, 2, 28, 64
4, 206976, Note_on_c, 2, 31, 110
4, 207168, Note_off_c, 2, 31, 64
4, 207744, Note_on_c, 2, 33, 110
4, 207936, Note_off_c, 2, 33, 64
4, 208128, Note_on_c, 2, 31, 110
4, 208320, Note_off_c, 2, 31, 64
4, 208512, Note_on_c, 2, 33, 110
4, 208704, Note_off_c, 2, 33, 64
4, 208896, Control_c, 2, 7, 110
4, 208896, Program_c, 2, 38
4, 208896, Note_on_c, 2, 29, 110
4, 209088, Note_off_c, 2, 29, 64
4, 209664, Note_on_c, 2, 29, 110
4, 209856, Note_off_c, 2, 29, 64
4, 210336, Note_on_c, 2, 24, 110
4, 210432, Note_off_c, 2, 24, 64
4, 210432, Note_on_c, 2, 26, 110
4, 210624, Note_off_c, 2, 26, 64
4, 210816, Note_on_c, 2, 29, 110
4, 211008, Note_off_c, 2, 29, 64
4, 211584, Note_on_c, 2, 24, 110
4, 211776, Note_off_c, 2, 24, 64
4, 211968, Note_on_c, 2, 26, 110
4, 212160, Note_off_c, 2, 26, 64
4, 212352, Note_on_c, 2, 29, 110
4, 212544, Note_off_c, 2, 29, 64
4, 212736, Note_on_c, 2, 24, 110
4, 212928, Note_off_c, 2, 24, 64
4, 213120, Note_on_c, 2, 26, 110
4, 213312, Note_off_c, 2, 26, 64
4, 213888, Note_on_c, 2, 29, 110
4, 214080, Note_off_c, 2, 29, 64
4, 214272, Note_on_c, 2, 26, 110
4, 214464, Note_off_c, 2, 26, 64
4, 214656, Note_on_c, 2, 29, 110
4, 214848, Note_off_c, 2, 29, 64
4, 215040, Control_c, 2, 7, 110
4, 215040, Program_c, 2, 38
4, 215040, Note_on_c, 2, 31, 110
4, 215232, Note_off_c, 2, 31, 64
4, 215808, Note_on_c, 2, 31, 110
4, 216000, Note_off_c, 2, 31, 64
4, 216480, Note_on_c, 2, 26, 110
4, 216576, Note_off_c, 2, 26, 64
4, 216576, Note_on_c, 2, 28, 110
4, 216768, Note_off_c, 2, 28, 64
4, 216960, Note_on_c, 2, 31, 110
4, 217152, Note_off_c, 2, 31, 64
4, 217728, Note_on_c, 2, 26, 110
4, 217920, Note_off_c, 2, 26, 64
4, 218112, Note_on_c, 2, 28, 110
4, 218304, Note_off_c, 2, 28, 64
4, 218496, Note_on_c, 2, 31, 110
4, 218688, Note_off_c, 2, 31, 64
4, 218880, Note_on_c, 2, 26, 110
4, 219072, Note_off_c, 2, 26, 64
4, 219264, Note_on_c, 2, 28, 110
4, 219456, Note_off_c, 2, 28, 64
4, 220032, Note_on_c, 2, 31, 110
4, 220224, Note_off_c, 2, 31, 64
4, 220416, Note_on_c, 2, 28, 110
4, 220608, Note_off_c, 2, 28, 64
4, 220800, Note_on_c, 2, 31, 110
4, 220992, Note_off_c, 2, 31, 64
4, 221184, Control_c, 2, 7, 110
4, 221184, Program_c, 2, 38
4, 221184, Note_on_c, 2, 36, 110
4, 221376, Note_off_c, 2, 36, 64
4, 221952, Note_on_c, 2, 36, 110
4, 222144, Note_off_c, 2, 36, 64
4, 222624, Note_on_c, 2, 31, 110
4, 222720, Note_off_c, 2, 31, 64
4, 222720, Note_on_c, 2, 33, 110
4, 222912, Note_off_c, 2, 33, 64
4, 223104, Note_on_c, 2, 36, 110
4, 223296, Note_off_c, 2, 36, 64
4, 223872, Note_on_c, 2, 31, 110
4, 224064, Note_off_c, 2, 31, 64
4, 224256, Note_on_c, 2, 33, 110
4, 224448, Note_off_c, 2, 33, 64
4, 224640, Note_on_c, 2, 36, 110
4, 224832, Note_off_c, 2, 36, 64
4, 225024, Note_on_c, 2, 31, 110
4, 225216, Note_off_c, 2, 31, 64
4, 225408, Note_on_c, 2, 33, 110
4, 225600, Note_off_c, 2, 33, 64
4, 226176, Note_on_c, 2, 36, 110
4, 226368, Note_off_c, 2, 36, 64
4, 226560, Note_on_c, 2, 33, 110
4, 226752, Note_off_c, 2, 33, 64
4, 226944, Note_on_c, 2, 36, 110
4, 227136, Note_off_c, 2, 36, 64
4, 227328, Control_c, 2, 7, 110
4, 227328, Program_c, 2, 38
4, 227328, Note_on_c, 2, 33, 110
4, 227520, Note_off_c, 2, 33, 64
4, 228096, Note_on_c, 2, 33, 110
4, 228288, Note_off_c, 2, 33, 64
4, 228768, Note_on_c, 2, 28, 110
4, 228864, Note_off_c, 2, 28, 64
4, 228864, Note_on_c, 2, 31, 110
4, 229056, Note_off_c, 2, 31, 64
4, 229248, Note_on_c, 2, 33, 110
4, 229440, Note_off_c, 2, 33, 64
4, 230016, Note_on_c, 2, 28, 110
4, 230208, Note_off_c, 2, 28, 64
4, 230400, Note_on_c, 2, 31, 110
4, 230592, Note_off_c, 2, 31, 64
4, 230784, Note_on_c, 2, 33, 110
4, 230976, Note_off_c, 2, 33, 64
4, 231168, Note_on_c, 2, 28, 110
4, 231360, Note_off_c, 2, 28, 64
4, 231552, Note_on_c, 2, 31, 110
4, 231744, Note_off_c, 2, 31, 64
4, 232320, Note_on_c, 2, 33, 110
4, 232512, Note_off_c, 2, 33, 64
4, 232704, Note_on_c, 2, 31, 110
4, 232896, Note_off_c, 2, 31, 64
4, 233088, Note_on_c, 2, 33, 110
4, 233280, Note_off_c, 2, 33, 64
4, 233472, Control_c, 2, 7, 110
4, 233472, Program_c, 2, 38
4, 233472, Note_on_c, 2, 36, 110
4, 233664, Note_off_c, 2, 36, 64
4, 234240, Note_on_c, 2, 36, 110
4, 234432, Note_off_c, 2, 36, 64
4, 234912, Note_on_c, 2, 31, 110
4, 235008, Note_off_c, 2, 31, 64
4, 235008, Note_on_c, 2, 33, 110
4, 235200, Note_off_c, 2, 33, 64
4, 235392, Note_on_c, 2, 36, 110
4, 235584, Note_off_c, 2, 36, 64
4, 236160, Note_on_c, 2, 31, 110
4, 236352, Note_off_c, 2, 31, 64
4, 236544, Note_on_c, 2, 33, 110
4, 236736, Note_off_c, 2, 33, 64
4, 236928, Note_on_c, 2, 36, 110
4, 237120, Note_off_c, 2, 36, 64
4, 237312, Note_on_c, 2, 31, 110
4, 237504, Note_off_c, 2, 31, 64
4, 237696, Note_on_c, 2, 33, 110
4, 237888, Note_off_c, 2, 33, 64
4, 238464, Note_on_c, 2, 36, 110
4, 238656, Note_off_c, 2, 36, 64
4, 238848, Note_on_c, 2, 33, 110
4, 239040, Note_off_c, 2, 33, 64
4, 239232, Note_on_c, 2, 36, 110
4, 239424, Note_off_c, 2, 36, 64
4, 239616, Control_c, 2, 7, 110
4, 239616, Program_c, 2, 38
4, 239616, Note_on_c, 2, 33, 110
4, 239808, Note_off_c, 2, 33, 64
4, 240384, Note_on_c, 2, 33, 110
4, 240576, Note_off_c, 2, 33, 64
4, 241056, Note_on_c, 2, 28, 110
4, 241152, Note_off_c, 2, 28, 64
4, 241152, Note_on_c, 2, 31, 110
4, 241344, Note_off_c, 2, 31, 64
4, 241536, Note_on_c, 2, 33, 110
4, 241728, Note_off_c, 2, 33, 64
4, 242304, Note_on_c, 2, 28, 110
4, 242496, Note_off_c, 2, 28, 64
4, 242688, Note_on_c, 2, 31, 110
4, 242880, Note_off_c, 2, 31, 64
4, 243072, Note_on_c, 2, 33, 110
4, 243264, Note_off_c, 2, 33, 64
4, 243456, Note_on_c, 2, 28, 110
4, 243648, Note_off_c, 2, 28, 64
4, 243840, Note_on_c, 2, 31, 110
4, 244032, Note_off_c, 2, 31, 64
4, 244608, Note_on_c, 2, 33, 110
4, 244800, Note_off_c, 2, 33, 64
4, 244992, Note_on_c, 2, 31, 110
4, 245184, Note_off_c, 2, 31, 64
4, 245376, Note_on_c, 2, 33, 110
4, 245568, Note_off_c, 2, 33, 64
4, 245760, Control_c, 2, 7, 110
4, 245760, Program_c, 2, 38
4, 245760, Note_on_c, 2, 29, 110
4, 245952, Note_off_c, 2, 29, 64
4, 246528, Note_on_c, 2, 29, 110
4, 246720, Note_off_c, 2, 29, 64
4, 247200, Note_on_c, 2, 24, 110
4, 247296, Note_off_c, 2, 24, 64
4, 247296, Note_on_c, 2, 26, 110
4, 247488, Note_off_c, 2, 26, 64
4, 247680, Note_on_c, 2, 29, 110
4, 247872, Note_off_c, 2, 29, 64
4, 248448, Note_on_c, 2, 24, 110
4, 248640, Note_off_c, 2, 24, 64
4, 248832, Note_on_c, 2, 26, 110
4, 249024, Note_off_c, 2, 26, 64
4, 249216, Note_on_c, 2, 29, 110
4, 249408, Note_off_c, 2, 29, 64
4, 249600, Note_on_c, 2, 24, 110
4, 249792, Note_off_c, 2, 24, 64
4, 249984, Note_on_c, 2, 26, 110
4, 250176, Note_off_c, 2, 26, 64
4, 250752, Note_on_c, 2, 29, 110
4, 250944, Note_off_c, 2, 29, 64
4, 251136, Note_on_c, 2, 26, 110
4, 251328, Note_off_c, 2, 26, 64
4, 251520, Note_on_c, 2, 29, 110
4, 251712, Note_off_c, 2, 29, 64
4, 251904, Control_c, 2, 7, 110
4, 251904, Program_c, 2, 38
4, 251904, Note_on_c, 2, 31, 110
4, 252096, Note_off_c, 2, 31, 64
4, 252672, Note_on_c, 2, 31, 110
4, 252864, Note_off_c, 2, 31, 64
4, 253344, Note_on_c, 2, 26, 110
4, 253440, Note_off_c, 2, 26, 64
4, 253440, Note_on_c, 2, 28, 110
4, 253632, Note_off_c, 2, 28, 64
4, 253824, Note_on_c, 2, 31, 110
4, 254016, Note_off_c, 2, 31, 64
4, 254592, Note_on_c, 2, 26, 110
4, 254784, Note_off_c, 2, 26, 64
4, 254976, Note_on_c, 2, 28, 110
4, 255168, Note_off_c, 2, 28, 64
4, 255360, Note_on_c, 2, 31, 110
4, 255552, Note_off_c, 2, 31, 64
4, 255744, Note_on_c, 2, 26, 110
4, 255936, Note_off_c, 2, 26, 64
4, 256128, Note_on_c, 2, 28, 110
4, 256320, Note_off_c, 2, 28, 64
4, 256896, Note_on_c, 2, 31, 110
4, 257088, Note_off_c, 2, 31, 64
4, 257280, Note_on_c, 2, 28, 110
4, 257472, Note_off_c, 2, 28, 64
4, 257664, Note_on_c, 2, 31, 110
4, 257856, Note_off_c, 2, 31, 64
4, 258048, Control_c, 2, 7, 110
4, 258048, Program_c, 2, 38
4, 258048, Note_on_c, 2, 32, 110
4, 258240, Note_off_c, 2, 32, 64
4, 258816, Note_on_c, 2, 32, 110
4, 259008, Note_off_c, 2, 32, 64
4, 259488, Note_on_c, 2, 27, 110
4, 259584, Note_off_c, 2, 27, 64
4, 259584, Note_on_c, 2, 29, 110
4, 259776, Note_off_c, 2, 29, 64
4, 259968, Note_on_c, 2, 32, 110
4, 260160, Note_off_c, 2, 32, 64
4, 260736, Note_on_c, 2, 27, 110
4, 260928, Note_off_c, 2, 27, 64
4, 261120, Note_on_c, 2, 29, 110
4, 261312, Note_off_c, 2, 29, 64
4, 261504, Note_on_c, 2, 32, 110
4, 261696, Note_off_c, 2, 32, 64
4, 261888, Note_on_c, 2, 27, 110
4, 262080, Note_off_c, 2, 27, 64
4, 262272, Note_on_c, 2, 29, 110
4, 262464, Note_off_c, 2, 29, 64
4, 263040, Note_on_c, 2, 32, 110
4, 263232, Note_off_c, 2, 32, 64
4, 263424, Note_on_c, 2, 29, 110
4, 263616, Note_off_c, 2, 29, 64
4, 263808, Note_on_c, 2, 32, 110
4, 264000, Note_off_c, 2, 32, 64
4, 264192, Control_c, 2, 7, 110
4, 264192, Program_c, 2, 38
4, 264192, Note_on_c, 2, 34, 110
4, 264384, Note_off_c, 2, 34, 64
4, 264960, Note_on_c, 2, 34, 110
4, 265152, Note_off_c, 2, 34, 64
4, 265632, Note_on_c, 2, 29, 110
4, 265728, Note_off_c, 2, 29, 64
4, 265728, Note_on_c, 2, 32, 110
4, 265920, Note_off_c, 2, 32, 64
4, 266112, Note_on_c, 2, 34, 110
4, 266304, Note_off_c, 2, 34, 64
4, 266880, Note_on_c, 2, 29, 110
4, 267072, Note_off_c, 2, 29, 64
4, 267264, Note_on_c, 2, 32, 110
4, 267456, Note_off_c, 2, 32, 64
4, 267648, Note_on_c, 2, 34, 110
4, 267840, Note_off_c, 2, 34, 64
4, 268032, Note_on_c, 2, 29, 110
4, 268224, Note_off_c, 2, 29, 64
4, 268416, Note_on_c, 2, 32, 110
4, 268608, Note_off_c, 2, 32, 64
4, 269184, Note_on_c, 2, 34, 110
4, 269376, Note_off_c, 2, 34, 64
4, 269568, Note_on_c, 2, 32, 110
4, 269760, Note_off_c, 2, 32, 64
4, 269952, Note_on_c, 2, 34, 110
4, 270144, Note_off_c, 2, 34, 64
4, 270336, End_track
5, 0, Start_track
5, 0, Title_t, "----------"
5, 0, Control_c, 3, 7, 80
5, 0, Program_c, 3, 117
5, 0, Control_c, 3, 10, 101
5, 0, Control_c, 3, 91, 127
5, 59904, Control_c, 3, 7, 80
5, 59904, Program_c, 3, 117
5, 59904, Note_on_c, 3, 77, 125
5, 60096, Note_off_c, 3, 77, 64
5, 60192, Note_on_c, 3, 77, 125
5, 60384, Note_off_c, 3, 77, 64
5, 60576, Note_on_c, 3, 77, 126
5, 60672, Note_off_c, 3, 77, 64
5, 60672, Note_on_c, 3, 83, 126
5, 60864, Note_off_c, 3, 83, 64
5, 60960, Note_on_c, 3, 77, 126
5, 61056, Note_off_c, 3, 77, 64
5, 61056, Note_on_c, 3, 72, 126
5, 61248, Note_off_c, 3, 72, 64
5, 145920, Control_c, 3, 7, 80
5, 145920, Program_c, 3, 117
5, 145920, Note_on_c, 3, 77, 125
5, 146112, Note_off_c, 3, 77, 64
5, 146208, Note_on_c, 3, 77, 125
5, 146400, Note_off_c, 3, 77, 64
5, 146592, Note_on_c, 3, 77, 126
5, 146688, Note_off_c, 3, 77, 64
5, 146688, Note_on_c, 3, 83, 126
5, 146880, Note_off_c, 3, 83, 64
5, 146976, Note_on_c, 3, 77, 126
5, 147072, Note_off_c, 3, 77, 64
5, 147072, Note_on_c, 3, 72, 126
5, 147264, Note_off_c, 3, 72, 64
5, 182784, Control_c, 3, 7, 80
5, 182784, Program_c, 3, 117
5, 182784, Note_on_c, 3, 77, 125
5, 182976, Note_off_c, 3, 77, 64
5, 183072, Note_on_c, 3, 77, 125
5, 183264, Note_off_c, 3, 77, 64
5, 183456, Note_on_c, 3, 77, 126
5, 183552, Note_off_c, 3, 77, 64
5, 183552, Note_on_c, 3, 83, 126
5, 183744, Note_off_c, 3, 83, 64
5, 183840, Note_on_c, 3, 77, 126
5, 183936, Note_off_c, 3, 77, 64
5, 183936, Note_on_c, 3, 72, 126
5, 184128, Note_off_c, 3, 72, 64
5, 268800, Control_c, 3, 7, 80
5, 268800, Program_c, 3, 117
5, 268800, Note_on_c, 3, 77, 125
5, 268992, Note_off_c, 3, 77, 64
5, 269088, Note_on_c, 3, 77, 125
5, 269280, Note_off_c, 3, 77, 64
5, 269472, Note_on_c, 3, 77, 126
5, 269568, Note_off_c, 3, 77, 64
5, 269568, Note_on_c, 3, 83, 126
5, 269760, Note_off_c, 3, 83, 64
5, 269856, Note_on_c, 3, 77, 126
5, 269952, Note_off_c, 3, 77, 64
5, 269952, Note_on_c, 3, 72, 126
5, 270144, Note_off_c, 3, 72, 64
5, 274944, Control_c, 3, 7, 80
5, 274944, Program_c, 3, 117
5, 274944, Note_on_c, 3, 77, 125
5, 275136, Note_off_c, 3, 77, 64
5, 275232, Note_on_c, 3, 77, 125
5, 275424, Note_off_c, 3, 77, 64
5, 275616, Note_on_c, 3, 77, 126
5, 275712, Note_off_c, 3, 77, 64
5, 275712, Note_on_c, 3, 83, 126
5, 275904, Note_off_c, 3, 83, 64
5, 276000, Note_on_c, 3, 77, 126
5, 276096, Note_off_c, 3, 77, 64
5, 276096, Note_on_c, 3, 72, 126
5, 276288, Note_off_c, 3, 72, 64
5, 284160, Control_c, 3, 7, 80
5, 284160, Program_c, 3, 117
5, 284160, Note_on_c, 3, 77, 125
5, 284352, Note_off_c, 3, 77, 64
5, 284448, Note_on_c, 3, 77, 125
5, 284640, Note_off_c, 3, 77, 64
5, 284832, Note_on_c, 3, 77, 126
5, 284928, Note_off_c, 3, 77, 64
5, 284928, Note_on_c, 3, 83, 126
5, 285120, Note_off_c, 3, 83, 64
5, 285216, Note_on_c, 3, 77, 126
5, 285312, Note_off_c, 3, 77, 64
5, 285312, Note_on_c, 3, 72, 126
5, 285504, Note_off_c, 3, 72, 64
5, 293376, Control_c, 3, 7, 80
5, 293376, Program_c, 3, 117
5, 293376, Note_on_c, 3, 77, 125
5, 293568, Note_off_c, 3, 77, 64
5, 293664, Note_on_c, 3, 77, 125
5, 293856, Note_off_c, 3, 77, 64
5, 294048, Note_on_c, 3, 77, 126
5, 294144, Note_off_c, 3, 77, 64
5, 294144, Note_on_c, 3, 83, 126
5, 294336, Note_off_c, 3, 83, 64
5, 294432, Note_on_c, 3, 77, 126
5, 294528, Note_off_c, 3, 77, 64
5, 294528, Note_on_c, 3, 72, 126
5, 294720, Note_off_c, 3, 72, 64
5, 294912, End_track
6, 0, Start_track
6, 0, Title_t, "Midi by:"
6, 0, Control_c, 4, 7, 80
6, 0, Program_c, 4, 117
6, 0, Control_c, 4, 10, 29
6, 0, Control_c, 4, 91, 127
6, 59904, Control_c, 4, 7, 80
6, 59904, Program_c, 4, 117
6, 59904, Note_on_c, 4, 65, 125
6, 60096, Note_off_c, 4, 65, 64
6, 60192, Note_on_c, 4, 65, 125
6, 60384, Note_off_c, 4, 65, 64
6, 60576, Note_on_c, 4, 65, 126
6, 60672, Note_off_c, 4, 65, 64
6, 60672, Note_on_c, 4, 71, 126
6, 60864, Note_off_c, 4, 71, 64
6, 60960, Note_on_c, 4, 65, 126
6, 61056, Note_off_c, 4, 65, 64
6, 61056, Note_on_c, 4, 60, 126
6, 61248, Note_off_c, 4, 60, 64
6, 145920, Control_c, 4, 7, 80
6, 145920, Program_c, 4, 117
6, 145920, Note_on_c, 4, 65, 125
6, 146112, Note_off_c, 4, 65, 64
6, 146208, Note_on_c, 4, 65, 125
6, 146400, Note_off_c, 4, 65, 64
6, 146592, Note_on_c, 4, 65, 126
6, 146688, Note_off_c, 4, 65, 64
6, 146688, Note_on_c, 4, 71, 126
6, 146880, Note_off_c, 4, 71, 64
6, 146976, Note_on_c, 4, 65, 126
6, 147072, Note_off_c, 4, 65, 64
6, 147072, Note_on_c, 4, 60, 126
6, 147264, Note_off_c, 4, 60, 64
6, 182784, Control_c, 4, 7, 80
6, 182784, Program_c, 4, 117
6, 182784, Note_on_c, 4, 65, 125
6, 182976, Note_off_c, 4, 65, 64
6, 183072, Note_on_c, 4, 65, 125
6, 183264, Note_off_c, 4, 65, 64
6, 183456, Note_on_c, 4, 65, 126
6, 183552, Note_off_c, 4, 65, 64
6, 183552, Note_on_c, 4, 71, 126
6, 183744, Note_off_c, 4, 71, 64
6, 183840, Note_on_c, 4, 65, 126
6, 183936, Note_off_c, 4, 65, 64
6, 183936, Note_on_c, 4, 60, 126
6, 184128, Note_off_c, 4, 60, 64
6, 268800, Control_c, 4, 7, 80
6, 268800, Program_c, 4, 117
6, 268800, Note_on_c, 4, 65, 125
6, 268992, Note_off_c, 4, 65, 64
6, 269088, Note_on_c, 4, 65, 125
6, 269280, Note_off_c, 4, 65, 64
6, 269472, Note_on_c, 4, 65, 126
6, 269568, Note_off_c, 4, 65, 64
6, 269568, Note_on_c, 4, 71, 126
6, 269760, Note_off_c, 4, 71, 64
6, 269856, Note_on_c, 4, 65, 126
6, 269952, Note_off_c, 4, 65, 64
6, 269952, Note_on_c, 4, 60, 126
6, 270144, Note_off_c, 4, 60, 64
6, 274944, Control_c, 4, 7, 80
6, 274944, Program_c, 4, 117
6, 274944, Note_on_c, 4, 65, 125
6, 275136, Note_off_c, 4, 65, 64
6, 275232, Note_on_c, 4, 65, 125
6, 275424, Note_off_c, 4, 65, 64
6, 275616, Note_on_c, 4, 65, 126
6, 275712, Note_off_c, 4, 65, 64
6, 275712, Note_on_c, 4, 71, 126
6, 275904, Note_off_c, 4, 71, 64
6, 276000, Note_on_c, 4, 65, 126
6, 276096, Note_off_c, 4, 65, 64
6, 276096, Note_on_c, 4, 60, 126
6, 276288, Note_off_c, 4, 60, 64
6, 284160, Control_c, 4, 7, 80
6, 284160, Program_c, 4, 117
6, 284160, Note_on_c, 4, 65, 125
6, 284352, Note_off_c, 4, 65, 64
6, 284448, Note_on_c, 4, 65, 125
6, 284640, Note_off_c, 4, 65, 64
6, 284832, Note_on_c, 4, 65, 126
6, 284928, Note_off_c, 4, 65, 64
6, 284928, Note_on_c, 4, 71, 126
6, 285120, Note_off_c, 4, 71, 64
6, 285216, Note_on_c, 4, 65, 126
6, 285312, Note_off_c, 4, 65, 64
6, 285312, Note_on_c, 4, 60, 126
6, 285504, Note_off_c, 4, 60, 64
6, 293376, Control_c, 4, 7, 80
6, 293376, Program_c, 4, 117
6, 293376, Note_on_c, 4, 65, 125
6, 293568, Note_off_c, 4, 65, 64
6, 293664, Note_on_c, 4, 65, 125
6, 293856, Note_off_c, 4, 65, 64
6, 294048, Note_on_c, 4, 65, 126
6, 294144, Note_off_c, 4, 65, 64
6, 294144, Note_on_c, 4, 71, 126
6, 294336, Note_off_c, 4, 71, 64
6, 294432, Note_on_c, 4, 65, 126
6, 294528, Note_off_c, 4, 65, 64
6, 294528, Note_on_c, 4, 60, 126
6, 294720, Note_off_c, 4, 60, 64
6, 294912, End_track
7, 0, Start_track
7, 0, Title_t, "Rob Diaz-"
7, 0, Program_c, 5, 46
7, 0, Control_c, 5, 10, 90
7, 0, Control_c, 5, 91, 48
7, 61440, Control_c, 5, 7, 110
7, 61440, Program_c, 5, 46
7, 61440, Note_on_c, 5, 48, 51
7, 61536, Note_off_c, 5, 48, 64
7, 61632, Note_on_c, 5, 50, 55
7, 61728, Note_off_c, 5, 50, 64
7, 61824, Note_on_c, 5, 52, 60
7, 61920, Note_off_c, 5, 52, 64
7, 62016, Note_on_c, 5, 55, 64
7, 62112, Note_off_c, 5, 55, 64
7, 62208, Note_on_c, 5, 60, 68
7, 62304, Note_off_c, 5, 60, 64
7, 62400, Note_on_c, 5, 62, 73
7, 62496, Note_off_c, 5, 62, 64
7, 62592, Note_on_c, 5, 64, 77
7, 62688, Note_off_c, 5, 64, 64
7, 62784, Note_on_c, 5, 67, 81
7, 62880, Note_off_c, 5, 67, 64
7, 62976, Note_on_c, 5, 72, 86
7, 63072, Note_off_c, 5, 72, 64
7, 63168, Note_on_c, 5, 74, 90
7, 63264, Note_off_c, 5, 74, 64
7, 63360, Note_on_c, 5, 76, 94
7, 63456, Note_off_c, 5, 76, 64
7, 63552, Note_on_c, 5, 79, 99
7, 63648, Note_off_c, 5, 79, 64
7, 63744, Note_on_c, 5, 84, 103
7, 63840, Note_off_c, 5, 84, 64
7, 63936, Note_on_c, 5, 86, 108
7, 64032, Note_off_c, 5, 86, 64
7, 64128, Note_on_c, 5, 88, 112
7, 64224, Note_off_c, 5, 88, 64
7, 64320, Note_on_c, 5, 91, 116
7, 64416, Note_off_c, 5, 91, 64
7, 64512, Note_on_c, 5, 96, 121
7, 64608, Note_off_c, 5, 96, 64
7, 64704, Note_on_c, 5, 91, 116
7, 64800, Note_off_c, 5, 91, 64
7, 64896, Note_on_c, 5, 88, 111
7, 64992, Note_off_c, 5, 88, 64
7, 65088, Note_on_c, 5, 86, 107
7, 65184, Note_off_c, 5, 86, 64
7, 65280, Note_on_c, 5, 84, 102
7, 65376, Note_off_c, 5, 84, 64
7, 65472, Note_on_c, 5, 79, 97
7, 65568, Note_off_c, 5, 79, 64
7, 65664, Note_on_c, 5, 76, 93
7, 65760, Note_off_c, 5, 76, 64
7, 65856, Note_on_c, 5, 74, 88
7, 65952, Note_off_c, 5, 74, 64
7, 66048, Note_on_c, 5, 72, 83
7, 66144, Note_off_c, 5, 72, 64
7, 66240, Note_on_c, 5, 67, 79
7, 66336, Note_off_c, 5, 67, 64
7, 66432, Note_on_c, 5, 64, 74
7, 66528, Note_off_c, 5, 64, 64
7, 66624, Note_on_c, 5, 62, 70
7, 66720, Note_off_c, 5, 62, 64
7, 66816, Note_on_c, 5, 60, 65
7, 66912, Note_off_c, 5, 60, 64
7, 67008, Note_on_c, 5, 55, 60
7, 67104, Note_off_c, 5, 55, 64
7, 67200, Note_on_c, 5, 52, 56
7, 67296, Note_off_c, 5, 52, 64
7, 67392, Note_on_c, 5, 50, 51
7, 67488, Note_off_c, 5, 50, 64
7, 67584, Control_c, 5, 7, 110
7, 67584, Program_c, 5, 46
7, 67584, Note_on_c, 5, 45, 50
7, 67680, Note_off_c, 5, 45, 64
7, 67776, Note_on_c, 5, 47, 54
7, 67872, Note_off_c, 5, 47, 64
7, 67968, Note_on_c, 5, 48, 59
7, 68064, Note_off_c, 5, 48, 64
7, 68160, Note_on_c, 5, 52, 63
7, 68256, Note_off_c, 5, 52, 64
7, 68352, Note_on_c, 5, 57, 67
7, 68448, Note_off_c, 5, 57, 64
7, 68544, Note_on_c, 5, 59, 72
7, 68640, Note_off_c, 5, 59, 64
7, 68736, Note_on_c, 5, 60, 76
7, 68832, Note_off_c, 5, 60, 64
7, 68928, Note_on_c, 5, 64, 81
7, 69024, Note_off_c, 5, 64, 64
7, 69120, Note_on_c, 5, 69, 85
7, 69216, Note_off_c, 5, 69, 64
7, 69312, Note_on_c, 5, 71, 90
7, 69408, Note_off_c, 5, 71, 64
7, 69504, Note_on_c, 5, 72, 94
7, 69600, Note_off_c, 5, 72, 64
7, 69696, Note_on_c, 5, 76, 98
7, 69792, Note_off_c, 5, 76, 64
7, 69888, Note_on_c, 5, 81, 103
7, 69984, Note_off_c, 5, 81, 64
7, 70080, Note_on_c, 5, 83, 107
7, 70176, Note_off_c, 5, 83, 64
7, 70272, Note_on_c, 5, 84, 112
7, 70368, Note_off_c, 5, 84, 64
7, 70464, Note_on_c, 5, 88, 116
7, 70560, Note_off_c, 5, 88, 64
7, 70656, Note_on_c, 5, 93, 121
7, 70752, Note_off_c, 5, 93, 64
7, 70848, Note_on_c, 5, 88, 116
7, 70944, Note_off_c, 5, 88, 64
7, 71040, Note_on_c, 5, 84, 111
7, 71136, Note_off_c, 5, 84, 64
7, 71232, Note_on_c, 5, 83, 107
7, 71328, Note_off_c, 5, 83, 64
7, 71424, Note_on_c, 5, 81, 102
7, 71520, Note_off_c, 5, 81, 64
7, 71616, Note_on_c, 5, 76, 98
7, 71712, Note_off_c, 5, 76, 64
7, 71808, Note_on_c, 5, 72, 93
7, 71904, Note_off_c, 5, 72, 64
7, 72000, Note_on_c, 5, 71, 89
7, 72096, Note_off_c, 5, 71, 64
7, 72192, Note_on_c, 5, 69, 84
7, 72288, Note_off_c, 5, 69, 64
7, 72384, Note_on_c, 5, 64, 79
7, 72480, Note_off_c, 5, 64, 64
7, 72576, Note_on_c, 5, 60, 75
7, 72672, Note_off_c, 5, 60, 64
7, 72768, Note_on_c, 5, 59, 70
7, 72864, Note_off_c, 5, 59, 64
7, 72960, Note_on_c, 5, 57, 66
7, 73056, Note_off_c, 5, 57, 64
7, 73152, Note_on_c, 5, 52, 61
7, 73248, Note_off_c, 5, 52, 64
7, 73344, Note_on_c, 5, 48, 57
7, 73440, Note_off_c, 5, 48, 64
7, 73536, Note_on_c, 5, 47, 52
7, 73632, Note_off_c, 5, 47, 64
7, 73728, Control_c, 5, 7, 110
7, 73728, Program_c, 5, 46
7, 73728, Note_on_c, 5, 48, 51
7, 73824, Note_off_c, 5, 48, 64
7, 73920, Note_on_c, 5, 50, 55
7, 74016, Note_off_c, 5, 50, 64
7, 74112, Note_on_c, 5, 52, 60
7, 74208, Note_off_c, 5, 52, 64
7, 74304, Note_on_c, 5, 55, 64
7, 74400, Note_off_c, 5, 55, 64
7, 74496, Note_on_c, 5, 60, 68
7, 74592, Note_off_c, 5, 60, 64
7, 74688, Note_on_c, 5, 62, 73
7, 74784, Note_off_c, 5, 62, 64
7, 74880, Note_on_c, 5, 64, 77
7, 74976, Note_off_c, 5, 64, 64
7, 75072, Note_on_c, 5, 67, 81
7, 75168, Note_off_c, 5, 67, 64
7, 75264, Note_on_c, 5, 72, 86
7, 75360, Note_off_c, 5, 72, 64
7, 75456, Note_on_c, 5, 74, 90
7, 75552, Note_off_c, 5, 74, 64
7, 75648, Note_on_c, 5, 76, 94
7, 75744, Note_off_c, 5, 76, 64
7, 75840, Note_on_c, 5, 79, 99
7, 75936, Note_off_c, 5, 79, 64
7, 76032, Note_on_c, 5, 84, 103
7, 76128, Note_off_c, 5, 84, 64
7, 76224, Note_on_c, 5, 86, 108
7, 76320, Note_off_c, 5, 86, 64
7, 76416, Note_on_c, 5, 88, 112
7, 76512, Note_off_c, 5, 88, 64
7, 76608, Note_on_c, 5, 91, 116
7, 76704, Note_off_c, 5, 91, 64
7, 76800, Note_on_c, 5, 96, 121
7, 76896, Note_off_c, 5, 96, 64
7, 76992, Note_on_c, 5, 91, 116
7, 77088, Note_off_c, 5, 91, 64
7, 77184, Note_on_c, 5, 88, 111
7, 77280, Note_off_c, 5, 88, 64
7, 77376, Note_on_c, 5, 86, 107
7, 77472, Note_off_c, 5, 86, 64
7, 77568, Note_on_c, 5, 84, 102
7, 77664, Note_off_c, 5, 84, 64
7, 77760, Note_on_c, 5, 79, 97
7, 77856, Note_off_c, 5, 79, 64
7, 77952, Note_on_c, 5, 76, 93
7, 78048, Note_off_c, 5, 76, 64
7, 78144, Note_on_c, 5, 74, 88
7, 78240, Note_off_c, 5, 74, 64
7, 78336, Note_on_c, 5, 72, 83
7, 78432, Note_off_c, 5, 72, 64
7, 78528, Note_on_c, 5, 67, 79
7, 78624, Note_off_c, 5, 67, 64
7, 78720, Note_on_c, 5, 64, 74
7, 78816, Note_off_c, 5, 64, 64
7, 78912, Note_on_c, 5, 62, 70
7, 79008, Note_off_c, 5, 62, 64
7, 79104, Note_on_c, 5, 60, 65
7, 79200, Note_off_c, 5, 60, 64
7, 79296, Note_on_c, 5, 55, 60
7, 79392, Note_off_c, 5, 55, 64
7, 79488, Note_on_c, 5, 52, 56
7, 79584, Note_off_c, 5, 52, 64
7, 79680, Note_on_c, 5, 50, 51
7, 79776, Note_off_c, 5, 50, 64
7, 79872, Control_c, 5, 7, 110
7, 79872, Program_c, 5, 46
7, 79872, Note_on_c, 5, 45, 50
7, 79968, Note_off_c, 5, 45, 64
7, 80064, Note_on_c, 5, 47, 54
7, 80160, Note_off_c, 5, 47, 64
7, 80256, Note_on_c, 5, 48, 59
7, 80352, Note_off_c, 5, 48, 64
7, 80448, Note_on_c, 5, 52, 63
7, 80544, Note_off_c, 5, 52, 64
7, 80640, Note_on_c, 5, 57, 67
7, 80736, Note_off_c, 5, 57, 64
7, 80832, Note_on_c, 5, 59, 72
7, 80928, Note_off_c, 5, 59, 64
7, 81024, Note_on_c, 5, 60, 76
7, 81120, Note_off_c, 5, 60, 64
7, 81216, Note_on_c, 5, 64, 81
7, 81312, Note_off_c, 5, 64, 64
7, 81408, Note_on_c, 5, 69, 85
7, 81504, Note_off_c, 5, 69, 64
7, 81600, Note_on_c, 5, 71, 90
7, 81696, Note_off_c, 5, 71, 64
7, 81792, Note_on_c, 5, 72, 94
7, 81888, Note_off_c, 5, 72, 64
7, 81984, Note_on_c, 5, 76, 98
7, 82080, Note_off_c, 5, 76, 64
7, 82176, Note_on_c, 5, 81, 103
7, 82272, Note_off_c, 5, 81, 64
7, 82368, Note_on_c, 5, 83, 107
7, 82464, Note_off_c, 5, 83, 64
7, 82560, Note_on_c, 5, 84, 112
7, 82656, Note_off_c, 5, 84, 64
7, 82752, Note_on_c, 5, 88, 116
7, 82848, Note_off_c, 5, 88, 64
7, 82944, Note_on_c, 5, 93, 121
7, 83040, Note_off_c, 5, 93, 64
7, 83136, Note_on_c, 5, 88, 116
7, 83232, Note_off_c, 5, 88, 64
7, 83328, Note_on_c, 5, 84, 111
7, 83424, Note_off_c, 5, 84, 64
7, 83520, Note_on_c, 5, 83, 107
7, 83616, Note_off_c, 5, 83, 64
7, 83712, Note_on_c, 5, 81, 102
7, 83808, Note_off_c, 5, 81, 64
7, 83904, Note_on_c, 5, 76, 98
7, 84000, Note_off_c, 5, 76, 64
7, 84096, Note_on_c, 5, 72, 93
7, 84192, Note_off_c, 5, 72, 64
7, 84288, Note_on_c, 5, 71, 89
7, 84384, Note_off_c, 5, 71, 64
7, 84480, Note_on_c, 5, 69, 84
7, 84576, Note_off_c, 5, 69, 64
7, 84672, Note_on_c, 5, 64, 79
7, 84768, Note_off_c, 5, 64, 64
7, 84864, Note_on_c, 5, 60, 75
7, 84960, Note_off_c, 5, 60, 64
7, 85056, Note_on_c, 5, 59, 70
7, 85152, Note_off_c, 5, 59, 64
7, 85248, Note_on_c, 5, 57, 66
7, 85344, Note_off_c, 5, 57, 64
7, 85440, Note_on_c, 5, 52, 61
7, 85536, Note_off_c, 5, 52, 64
7, 85632, Note_on_c, 5, 48, 57
7, 85728, Note_off_c, 5, 48, 64
7, 85824, Note_on_c, 5, 47, 52
7, 85920, Note_off_c, 5, 47, 64
7, 86016, Control_c, 5, 7, 110
7, 86016, Program_c, 5, 46
7, 86016, Note_on_c, 5, 45, 50
7, 86112, Note_off_c, 5, 45, 64
7, 86208, Note_on_c, 5, 48, 54
7, 86304, Note_off_c, 5, 48, 64
7, 86400, Note_on_c, 5, 53, 59
7, 86496, Note_off_c, 5, 53, 64
7, 86592, Note_on_c, 5, 55, 63
7, 86688, Note_off_c, 5, 55, 64
7, 86784, Note_on_c, 5, 57, 67
7, 86880, Note_off_c, 5, 57, 64
7, 86976, Note_on_c, 5, 60, 72
7, 87072, Note_off_c, 5, 60, 64
7, 87168, Note_on_c, 5, 65, 76
7, 87264, Note_off_c, 5, 65, 64
7, 87360, Note_on_c, 5, 67, 81
7, 87456, Note_off_c, 5, 67, 64
7, 87552, Note_on_c, 5, 69, 85
7, 87648, Note_off_c, 5, 69, 64
7, 87744, Note_on_c, 5, 72, 90
7, 87840, Note_off_c, 5, 72, 64
7, 87936, Note_on_c, 5, 77, 94
7, 88032, Note_off_c, 5, 77, 64
7, 88128, Note_on_c, 5, 79, 98
7, 88224, Note_off_c, 5, 79, 64
7, 88320, Note_on_c, 5, 81, 103
7, 88416, Note_off_c, 5, 81, 64
7, 88512, Note_on_c, 5, 84, 107
7, 88608, Note_off_c, 5, 84, 64
7, 88704, Note_on_c, 5, 89, 112
7, 88800, Note_off_c, 5, 89, 64
7, 88896, Note_on_c, 5, 91, 116
7, 88992, Note_off_c, 5, 91, 64
7, 89088, Note_on_c, 5, 93, 121
7, 89184, Note_off_c, 5, 93, 64
7, 89280, Note_on_c, 5, 91, 116
7, 89376, Note_off_c, 5, 91, 64
7, 89472, Note_on_c, 5, 89, 112
7, 89568, Note_off_c, 5, 89, 64
7, 89664, Note_on_c, 5, 84, 107
7, 89760, Note_off_c, 5, 84, 64
7, 89856, Note_on_c, 5, 81, 103
7, 89952, Note_off_c, 5, 81, 64
7, 90048, Note_on_c, 5, 79, 98
7, 90144, Note_off_c, 5, 79, 64
7, 90240, Note_on_c, 5, 77, 94
7, 90336, Note_off_c, 5, 77, 64
7, 90432, Note_on_c, 5, 72, 90
7, 90528, Note_off_c, 5, 72, 64
7, 90624, Note_on_c, 5, 69, 85
7, 90720, Note_off_c, 5, 69, 64
7, 90816, Note_on_c, 5, 67, 81
7, 90912, Note_off_c, 5, 67, 64
7, 91008, Note_on_c, 5, 65, 76
7, 91104, Note_off_c, 5, 65, 64
7, 91200, Note_on_c, 5, 60, 72
7, 91296, Note_off_c, 5, 60, 64
7, 91392, Note_on_c, 5, 57, 67
7, 91488, Note_off_c, 5, 57, 64
7, 91584, Note_on_c, 5, 55, 63
7, 91680, Note_off_c, 5, 55, 64
7, 91776, Note_on_c, 5, 53, 59
7, 91872, Note_off_c, 5, 53, 64
7, 91968, Note_on_c, 5, 48, 54
7, 92064, Note_off_c, 5, 48, 64
7, 92160, Control_c, 5, 7, 110
7, 92160, Program_c, 5, 46
7, 92160, Note_on_c, 5, 47, 50
7, 92256, Note_off_c, 5, 47, 64
7, 92352, Note_on_c, 5, 50, 54
7, 92448, Note_off_c, 5, 50, 64
7, 92544, Note_on_c, 5, 55, 59
7, 92640, Note_off_c, 5, 55, 64
7, 92736, Note_on_c, 5, 57, 63
7, 92832, Note_off_c, 5, 57, 64
7, 92928, Note_on_c, 5, 59, 67
7, 93024, Note_off_c, 5, 59, 64
7, 93120, Note_on_c, 5, 62, 72
7, 93216, Note_off_c, 5, 62, 64
7, 93312, Note_on_c, 5, 67, 76
7, 93408, Note_off_c, 5, 67, 64
7, 93504, Note_on_c, 5, 69, 81
7, 93600, Note_off_c, 5, 69, 64
7, 93696, Note_on_c, 5, 71, 85
7, 93792, Note_off_c, 5, 71, 64
7, 93888, Note_on_c, 5, 74, 90
7, 93984, Note_off_c, 5, 74, 64
7, 94080, Note_on_c, 5, 79, 94
7, 94176, Note_off_c, 5, 79, 64
7, 94272, Note_on_c, 5, 81, 98
7, 94368, Note_off_c, 5, 81, 64
7, 94464, Note_on_c, 5, 83, 103
7, 94560, Note_off_c, 5, 83, 64
7, 94656, Note_on_c, 5, 86, 107
7, 94752, Note_off_c, 5, 86, 64
7, 94848, Note_on_c, 5, 91, 112
7, 94944, Note_off_c, 5, 91, 64
7, 95040, Note_on_c, 5, 93, 116
7, 95136, Note_off_c, 5, 93, 64
7, 95232, Note_on_c, 5, 95, 121
7, 95328, Note_off_c, 5, 95, 64
7, 95424, Note_on_c, 5, 93, 116
7, 95520, Note_off_c, 5, 93, 64
7, 95616, Note_on_c, 5, 91, 112
7, 95712, Note_off_c, 5, 91, 64
7, 95808, Note_on_c, 5, 86, 107
7, 95904, Note_off_c, 5, 86, 64
7, 96000, Note_on_c, 5, 83, 103
7, 96096, Note_off_c, 5, 83, 64
7, 96192, Note_on_c, 5, 81, 98
7, 96288, Note_off_c, 5, 81, 64
7, 96384, Note_on_c, 5, 79, 94
7, 96480, Note_off_c, 5, 79, 64
7, 96576, Note_on_c, 5, 74, 90
7, 96672, Note_off_c, 5, 74, 64
7, 96768, Note_on_c, 5, 71, 85
7, 96864, Note_off_c, 5, 71, 64
7, 96960, Note_on_c, 5, 69, 81
7, 97056, Note_off_c, 5, 69, 64
7, 97152, Note_on_c, 5, 67, 76
7, 97248, Note_off_c, 5, 67, 64
7, 97344, Note_on_c, 5, 62, 72
7, 97440, Note_off_c, 5, 62, 64
7, 97536, Note_on_c, 5, 59, 67
7, 97632, Note_off_c, 5, 59, 64
7, 97728, Note_on_c, 5, 57, 63
7, 97824, Note_off_c, 5, 57, 64
7, 97920, Note_on_c, 5, 55, 59
7, 98016, Note_off_c, 5, 55, 64
7, 98112, Note_on_c, 5, 50, 54
7, 98208, Note_off_c, 5, 50, 64
7, 98304, Control_c, 5, 7, 110
7, 98304, Program_c, 5, 46
7, 98304, Note_on_c, 5, 48, 51
7, 98400, Note_off_c, 5, 48, 64
7, 98496, Note_on_c, 5, 50, 55
7, 98592, Note_off_c, 5, 50, 64
7, 98688, Note_on_c, 5, 52, 60
7, 98784, Note_off_c, 5, 52, 64
7, 98880, Note_on_c, 5, 55, 64
7, 98976, Note_off_c, 5, 55, 64
7, 99072, Note_on_c, 5, 60, 68
7, 99168, Note_off_c, 5, 60, 64
7, 99264, Note_on_c, 5, 62, 73
7, 99360, Note_off_c, 5, 62, 64
7, 99456, Note_on_c, 5, 64, 77
7, 99552, Note_off_c, 5, 64, 64
7, 99648, Note_on_c, 5, 67, 81
7, 99744, Note_off_c, 5, 67, 64
7, 99840, Note_on_c, 5, 72, 86
7, 99936, Note_off_c, 5, 72, 64
7, 100032, Note_on_c, 5, 74, 90
7, 100128, Note_off_c, 5, 74, 64
7, 100224, Note_on_c, 5, 76, 94
7, 100320, Note_off_c, 5, 76, 64
7, 100416, Note_on_c, 5, 79, 99
7, 100512, Note_off_c, 5, 79, 64
7, 100608, Note_on_c, 5, 84, 103
7, 100704, Note_off_c, 5, 84, 64
7, 100800, Note_on_c, 5, 86, 108
7, 100896, Note_off_c, 5, 86, 64
7, 100992, Note_on_c, 5, 88, 112
7, 101088, Note_off_c, 5, 88, 64
7, 101184, Note_on_c, 5, 91, 116
7, 101280, Note_off_c, 5, 91, 64
7, 101376, Note_on_c, 5, 96, 121
7, 101472, Note_off_c, 5, 96, 64
7, 101568, Note_on_c, 5, 91, 116
7, 101664, Note_off_c, 5, 91, 64
7, 101760, Note_on_c, 5, 88, 111
7, 101856, Note_off_c, 5, 88, 64
7, 101952, Note_on_c, 5, 86, 107
7, 102048, Note_off_c, 5, 86, 64
7, 102144, Note_on_c, 5, 84, 102
7, 102240, Note_off_c, 5, 84, 64
7, 102336, Note_on_c, 5, 79, 97
7, 102432, Note_off_c, 5, 79, 64
7, 102528, Note_on_c, 5, 76, 93
7, 102624, Note_off_c, 5, 76, 64
7, 102720, Note_on_c, 5, 74, 88
7, 102816, Note_off_c, 5, 74, 64
7, 102912, Note_on_c, 5, 72, 83
7, 103008, Note_off_c, 5, 72, 64
7, 103104, Note_on_c, 5, 67, 79
7, 103200, Note_off_c, 5, 67, 64
7, 103296, Note_on_c, 5, 64, 74
7, 103392, Note_off_c, 5, 64, 64
7, 103488, Note_on_c, 5, 62, 70
7, 103584, Note_off_c, 5, 62, 64
7, 103680, Note_on_c, 5, 60, 65
7, 103776, Note_off_c, 5, 60, 64
7, 103872, Note_on_c, 5, 55, 60
7, 103968, Note_off_c, 5, 55, 64
7, 104064, Note_on_c, 5, 52, 56
7, 104160, Note_off_c, 5, 52, 64
7, 104256, Note_on_c, 5, 50, 51
7, 104352, Note_off_c, 5, 50, 64
7, 104448, Control_c, 5, 7, 110
7, 104448, Program_c, 5, 46
7, 104448, Note_on_c, 5, 45, 50
7, 104544, Note_off_c, 5, 45, 64
7, 104640, Note_on_c, 5, 47, 54
7, 104736, Note_off_c, 5, 47, 64
7, 104832, Note_on_c, 5, 48, 59
7, 104928, Note_off_c, 5, 48, 64
7, 105024, Note_on_c, 5, 52, 63
7, 105120, Note_off_c, 5, 52, 64
7, 105216, Note_on_c, 5, 57, 67
7, 105312, Note_off_c, 5, 57, 64
7, 105408, Note_on_c, 5, 59, 72
7, 105504, Note_off_c, 5, 59, 64
7, 105600, Note_on_c, 5, 60, 76
7, 105696, Note_off_c, 5, 60, 64
7, 105792, Note_on_c, 5, 64, 81
7, 105888, Note_off_c, 5, 64, 64
7, 105984, Note_on_c, 5, 69, 85
7, 106080, Note_off_c, 5, 69, 64
7, 106176, Note_on_c, 5, 71, 90
7, 106272, Note_off_c, 5, 71, 64
7, 106368, Note_on_c, 5, 72, 94
7, 106464, Note_off_c, 5, 72, 64
7, 106560, Note_on_c, 5, 76, 98
7, 106656, Note_off_c, 5, 76, 64
7, 106752, Note_on_c, 5, 81, 103
7, 106848, Note_off_c, 5, 81, 64
7, 106944, Note_on_c, 5, 83, 107
7, 107040, Note_off_c, 5, 83, 64
7, 107136, Note_on_c, 5, 84, 112
7, 107232, Note_off_c, 5, 84, 64
7, 107328, Note_on_c, 5, 88, 116
7, 107424, Note_off_c, 5, 88, 64
7, 107520, Note_on_c, 5, 93, 121
7, 107616, Note_off_c, 5, 93, 64
7, 107712, Note_on_c, 5, 88, 116
7, 107808, Note_off_c, 5, 88, 64
7, 107904, Note_on_c, 5, 84, 111
7, 108000, Note_off_c, 5, 84, 64
7, 108096, Note_on_c, 5, 83, 107
7, 108192, Note_off_c, 5, 83, 64
7, 108288, Note_on_c, 5, 81, 102
7, 108384, Note_off_c, 5, 81, 64
7, 108480, Note_on_c, 5, 76, 98
7, 108576, Note_off_c, 5, 76, 64
7, 108672, Note_on_c, 5, 72, 93
7, 108768, Note_off_c, 5, 72, 64
7, 108864, Note_on_c, 5, 71, 89
7, 108960, Note_off_c, 5, 71, 64
7, 109056, Note_on_c, 5, 69, 84
7, 109152, Note_off_c, 5, 69, 64
7, 109248, Note_on_c, 5, 64, 79
7, 109344, Note_off_c, 5, 64, 64
7, 109440, Note_on_c, 5, 60, 75
7, 109536, Note_off_c, 5, 60, 64
7, 109632, Note_on_c, 5, 59, 70
7, 109728, Note_off_c, 5, 59, 64
7, 109824, Note_on_c, 5, 57, 66
7, 109920, Note_off_c, 5, 57, 64
7, 110016, Note_on_c, 5, 52, 61
7, 110112, Note_off_c, 5, 52, 64
7, 110208, Note_on_c, 5, 48, 57
7, 110304, Note_off_c, 5, 48, 64
7, 110400, Note_on_c, 5, 47, 52
7, 110496, Note_off_c, 5, 47, 64
7, 110592, Control_c, 5, 7, 110
7, 110592, Program_c, 5, 46
7, 110592, Note_on_c, 5, 48, 51
7, 110688, Note_off_c, 5, 48, 64
7, 110784, Note_on_c, 5, 50, 55
7, 110880, Note_off_c, 5, 50, 64
7, 110976, Note_on_c, 5, 52, 60
7, 111072, Note_off_c, 5, 52, 64
7, 111168, Note_on_c, 5, 55, 64
7, 111264, Note_off_c, 5, 55, 64
7, 111360, Note_on_c, 5, 60, 68
7, 111456, Note_off_c, 5, 60, 64
7, 111552, Note_on_c, 5, 62, 73
7, 111648, Note_off_c, 5, 62, 64
7, 111744, Note_on_c, 5, 64, 77
7, 111840, Note_off_c, 5, 64, 64
7, 111936, Note_on_c, 5, 67, 81
7, 112032, Note_off_c, 5, 67, 64
7, 112128, Note_on_c, 5, 72, 86
7, 112224, Note_off_c, 5, 72, 64
7, 112320, Note_on_c, 5, 74, 90
7, 112416, Note_off_c, 5, 74, 64
7, 112512, Note_on_c, 5, 76, 94
7, 112608, Note_off_c, 5, 76, 64
7, 112704, Note_on_c, 5, 79, 99
7, 112800, Note_off_c, 5, 79, 64
7, 112896, Note_on_c, 5, 84, 103
7, 112992, Note_off_c, 5, 84, 64
7, 113088, Note_on_c, 5, 86, 108
7, 113184, Note_off_c, 5, 86, 64
7, 113280, Note_on_c, 5, 88, 112
7, 113376, Note_off_c, 5, 88, 64
7, 113472, Note_on_c, 5, 91, 116
7, 113568, Note_off_c, 5, 91, 64
7, 113664, Note_on_c, 5, 96, 121
7, 113760, Note_off_c, 5, 96, 64
7, 113856, Note_on_c, 5, 91, 116
7, 113952, Note_off_c, 5, 91, 64
7, 114048, Note_on_c, 5, 88, 111
7, 114144, Note_off_c, 5, 88, 64
7, 114240, Note_on_c, 5, 86, 107
7, 114336, Note_off_c, 5, 86, 64
7, 114432, Note_on_c, 5, 84, 102
7, 114528, Note_off_c, 5, 84, 64
7, 114624, Note_on_c, 5, 79, 97
7, 114720, Note_off_c, 5, 79, 64
7, 114816, Note_on_c, 5, 76, 93
7, 114912, Note_off_c, 5, 76, 64
7, 115008, Note_on_c, 5, 74, 88
7, 115104, Note_off_c, 5, 74, 64
7, 115200, Note_on_c, 5, 72, 83
7, 115296, Note_off_c, 5, 72, 64
7, 115392, Note_on_c, 5, 67, 79
7, 115488, Note_off_c, 5, 67, 64
7, 115584, Note_on_c, 5, 64, 74
7, 115680, Note_off_c, 5, 64, 64
7, 115776, Note_on_c, 5, 62, 70
7, 115872, Note_off_c, 5, 62, 64
7, 115968, Note_on_c, 5, 60, 65
7, 116064, Note_off_c, 5, 60, 64
7, 116160, Note_on_c, 5, 55, 60
7, 116256, Note_off_c, 5, 55, 64
7, 116352, Note_on_c, 5, 52, 56
7, 116448, Note_off_c, 5, 52, 64
7, 116544, Note_on_c, 5, 50, 51
7, 116640, Note_off_c, 5, 50, 64
7, 116736, Control_c, 5, 7, 110
7, 116736, Program_c, 5, 46
7, 116736, Note_on_c, 5, 45, 50
7, 116832, Note_off_c, 5, 45, 64
7, 116928, Note_on_c, 5, 47, 54
7, 117024, Note_off_c, 5, 47, 64
7, 117120, Note_on_c, 5, 48, 59
7, 117216, Note_off_c, 5, 48, 64
7, 117312, Note_on_c, 5, 52, 63
7, 117408, Note_off_c, 5, 52, 64
7, 117504, Note_on_c, 5, 57, 67
7, 117600, Note_off_c, 5, 57, 64
7, 117696, Note_on_c, 5, 59, 72
7, 117792, Note_off_c, 5, 59, 64
7, 117888, Note_on_c, 5, 60, 76
7, 117984, Note_off_c, 5, 60, 64
7, 118080, Note_on_c, 5, 64, 81
7, 118176, Note_off_c, 5, 64, 64
7, 118272, Note_on_c, 5, 69, 85
7, 118368, Note_off_c, 5, 69, 64
7, 118464, Note_on_c, 5, 71, 90
7, 118560, Note_off_c, 5, 71, 64
7, 118656, Note_on_c, 5, 72, 94
7, 118752, Note_off_c, 5, 72, 64
7, 118848, Note_on_c, 5, 76, 98
7, 118944, Note_off_c, 5, 76, 64
7, 119040, Note_on_c, 5, 81, 103
7, 119136, Note_off_c, 5, 81, 64
7, 119232, Note_on_c, 5, 83, 107
7, 119328, Note_off_c, 5, 83, 64
7, 119424, Note_on_c, 5, 84, 112
7, 119520, Note_off_c, 5, 84, 64
7, 119616, Note_on_c, 5, 88, 116
7, 119712, Note_off_c, 5, 88, 64
7, 119808, Note_on_c, 5, 93, 121
7, 119904, Note_off_c, 5, 93, 64
7, 120000, Note_on_c, 5, 88, 116
7, 120096, Note_off_c, 5, 88, 64
7, 120192, Note_on_c, 5, 84, 111
7, 120288, Note_off_c, 5, 84, 64
7, 120384, Note_on_c, 5, 83, 107
7, 120480, Note_off_c, 5, 83, 64
7, 120576, Note_on_c, 5, 81, 102
7, 120672, Note_off_c, 5, 81, 64
7, 120768, Note_on_c, 5, 76, 98
7, 120864, Note_off_c, 5, 76, 64
7, 120960, Note_on_c, 5, 72, 93
7, 121056, Note_off_c, 5, 72, 64
7, 121152, Note_on_c, 5, 71, 89
7, 121248, Note_off_c, 5, 71, 64
7, 121344, Note_on_c, 5, 69, 84
7, 121440, Note_off_c, 5, 69, 64
7, 121536, Note_on_c, 5, 64, 79
7, 121632, Note_off_c, 5, 64, 64
7, 121728, Note_on_c, 5, 60, 75
7, 121824, Note_off_c, 5, 60, 64
7, 121920, Note_on_c, 5, 59, 70
7, 122016, Note_off_c, 5, 59, 64
7, 122112, Note_on_c, 5, 57, 66
7, 122208, Note_off_c, 5, 57, 64
7, 122304, Note_on_c, 5, 52, 61
7, 122400, Note_off_c, 5, 52, 64
7, 122496, Note_on_c, 5, 48, 57
7, 122592, Note_off_c, 5, 48, 64
7, 122688, Note_on_c, 5, 47, 52
7, 122784, Note_off_c, 5, 47, 64
7, 122880, Control_c, 5, 7, 110
7, 122880, Program_c, 5, 46
7, 122880, Note_on_c, 5, 45, 50
7, 122976, Note_off_c, 5, 45, 64
7, 123072, Note_on_c, 5, 48, 54
7, 123168, Note_off_c, 5, 48, 64
7, 123264, Note_on_c, 5, 53, 59
7, 123360, Note_off_c, 5, 53, 64
7, 123456, Note_on_c, 5, 55, 63
7, 123552, Note_off_c, 5, 55, 64
7, 123648, Note_on_c, 5, 57, 67
7, 123744, Note_off_c, 5, 57, 64
7, 123840, Note_on_c, 5, 60, 72
7, 123936, Note_off_c, 5, 60, 64
7, 124032, Note_on_c, 5, 65, 76
7, 124128, Note_off_c, 5, 65, 64
7, 124224, Note_on_c, 5, 67, 81
7, 124320, Note_off_c, 5, 67, 64
7, 124416, Note_on_c, 5, 69, 85
7, 124512, Note_off_c, 5, 69, 64
7, 124608, Note_on_c, 5, 72, 90
7, 124704, Note_off_c, 5, 72, 64
7, 124800, Note_on_c, 5, 77, 94
7, 124896, Note_off_c, 5, 77, 64
7, 124992, Note_on_c, 5, 79, 98
7, 125088, Note_off_c, 5, 79, 64
7, 125184, Note_on_c, 5, 81, 103
7, 125280, Note_off_c, 5, 81, 64
7, 125376, Note_on_c, 5, 84, 107
7, 125472, Note_off_c, 5, 84, 64
7, 125568, Note_on_c, 5, 89, 112
7, 125664, Note_off_c, 5, 89, 64
7, 125760, Note_on_c, 5, 91, 116
7, 125856, Note_off_c, 5, 91, 64
7, 125952, Note_on_c, 5, 93, 121
7, 126048, Note_off_c, 5, 93, 64
7, 126144, Note_on_c, 5, 91, 116
7, 126240, Note_off_c, 5, 91, 64
7, 126336, Note_on_c, 5, 89, 112
7, 126432, Note_off_c, 5, 89, 64
7, 126528, Note_on_c, 5, 84, 107
7, 126624, Note_off_c, 5, 84, 64
7, 126720, Note_on_c, 5, 81, 103
7, 126816, Note_off_c, 5, 81, 64
7, 126912, Note_on_c, 5, 79, 98
7, 127008, Note_off_c, 5, 79, 64
7, 127104, Note_on_c, 5, 77, 94
7, 127200, Note_off_c, 5, 77, 64
7, 127296, Note_on_c, 5, 72, 90
7, 127392, Note_off_c, 5, 72, 64
7, 127488, Note_on_c, 5, 69, 85
7, 127584, Note_off_c, 5, 69, 64
7, 127680, Note_on_c, 5, 67, 81
7, 127776, Note_off_c, 5, 67, 64
7, 127872, Note_on_c, 5, 65, 76
7, 127968, Note_off_c, 5, 65, 64
7, 128064, Note_on_c, 5, 60, 72
7, 128160, Note_off_c, 5, 60, 64
7, 128256, Note_on_c, 5, 57, 67
7, 128352, Note_off_c, 5, 57, 64
7, 128448, Note_on_c, 5, 55, 63
7, 128544, Note_off_c, 5, 55, 64
7, 128640, Note_on_c, 5, 53, 59
7, 128736, Note_off_c, 5, 53, 64
7, 128832, Note_on_c, 5, 48, 54
7, 128928, Note_off_c, 5, 48, 64
7, 129024, Control_c, 5, 7, 110
7, 129024, Program_c, 5, 46
7, 129024, Note_on_c, 5, 47, 50
7, 129120, Note_off_c, 5, 47, 64
7, 129216, Note_on_c, 5, 50, 54
7, 129312, Note_off_c, 5, 50, 64
7, 129408, Note_on_c, 5, 55, 59
7, 129504, Note_off_c, 5, 55, 64
7, 129600, Note_on_c, 5, 57, 63
7, 129696, Note_off_c, 5, 57, 64
7, 129792, Note_on_c, 5, 59, 67
7, 129888, Note_off_c, 5, 59, 64
7, 129984, Note_on_c, 5, 62, 72
7, 130080, Note_off_c, 5, 62, 64
7, 130176, Note_on_c, 5, 67, 76
7, 130272, Note_off_c, 5, 67, 64
7, 130368, Note_on_c, 5, 69, 81
7, 130464, Note_off_c, 5, 69, 64
7, 130560, Note_on_c, 5, 71, 85
7, 130656, Note_off_c, 5, 71, 64
7, 130752, Note_on_c, 5, 74, 90
7, 130848, Note_off_c, 5, 74, 64
7, 130944, Note_on_c, 5, 79, 94
7, 131040, Note_off_c, 5, 79, 64
7, 131136, Note_on_c, 5, 81, 98
7, 131232, Note_off_c, 5, 81, 64
7, 131328, Note_on_c, 5, 83, 103
7, 131424, Note_off_c, 5, 83, 64
7, 131520, Note_on_c, 5, 86, 107
7, 131616, Note_off_c, 5, 86, 64
7, 131712, Note_on_c, 5, 91, 112
7, 131808, Note_off_c, 5, 91, 64
7, 131904, Note_on_c, 5, 93, 116
7, 132000, Note_off_c, 5, 93, 64
7, 132096, Note_on_c, 5, 95, 121
7, 132192, Note_off_c, 5, 95, 64
7, 132288, Note_on_c, 5, 93, 116
7, 132384, Note_off_c, 5, 93, 64
7, 132480, Note_on_c, 5, 91, 112
7, 132576, Note_off_c, 5, 91, 64
7, 132672, Note_on_c, 5, 86, 107
7, 132768, Note_off_c, 5, 86, 64
7, 132864, Note_on_c, 5, 83, 103
7, 132960, Note_off_c, 5, 83, 64
7, 133056, Note_on_c, 5, 81, 98
7, 133152, Note_off_c, 5, 81, 64
7, 133248, Note_on_c, 5, 79, 94
7, 133344, Note_off_c, 5, 79, 64
7, 133440, Note_on_c, 5, 74, 90
7, 133536, Note_off_c, 5, 74, 64
7, 133632, Note_on_c, 5, 71, 85
7, 133728, Note_off_c, 5, 71, 64
7, 133824, Note_on_c, 5, 69, 81
7, 133920, Note_off_c, 5, 69, 64
7, 134016, Note_on_c, 5, 67, 76
7, 134112, Note_off_c, 5, 67, 64
7, 134208, Note_on_c, 5, 62, 72
7, 134304, Note_off_c, 5, 62, 64
7, 134400, Note_on_c, 5, 59, 67
7, 134496, Note_off_c, 5, 59, 64
7, 134592, Note_on_c, 5, 57, 63
7, 134688, Note_off_c, 5, 57, 64
7, 134784, Note_on_c, 5, 55, 59
7, 134880, Note_off_c, 5, 55, 64
7, 134976, Note_on_c, 5, 50, 54
7, 135072, Note_off_c, 5, 50, 64
7, 135168, Control_c, 5, 7, 110
7, 135168, Program_c, 5, 46
7, 135168, Note_on_c, 5, 44, 50
7, 135264, Note_off_c, 5, 44, 64
7, 135360, Note_on_c, 5, 48, 55
7, 135456, Note_off_c, 5, 48, 64
7, 135552, Note_on_c, 5, 51, 59
7, 135648, Note_off_c, 5, 51, 64
7, 135744, Note_on_c, 5, 55, 64
7, 135840, Note_off_c, 5, 55, 64
7, 135936, Note_on_c, 5, 56, 68
7, 136032, Note_off_c, 5, 56, 64
7, 136128, Note_on_c, 5, 60, 73
7, 136224, Note_off_c, 5, 60, 64
7, 136320, Note_on_c, 5, 63, 77
7, 136416, Note_off_c, 5, 63, 64
7, 136512, Note_on_c, 5, 67, 82
7, 136608, Note_off_c, 5, 67, 64
7, 136704, Note_on_c, 5, 68, 86
7, 136800, Note_off_c, 5, 68, 64
7, 136896, Note_on_c, 5, 72, 91
7, 136992, Note_off_c, 5, 72, 64
7, 137088, Note_on_c, 5, 75, 95
7, 137184, Note_off_c, 5, 75, 64
7, 137280, Note_on_c, 5, 79, 100
7, 137376, Note_off_c, 5, 79, 64
7, 137472, Note_on_c, 5, 80, 105
7, 137568, Note_off_c, 5, 80, 64
7, 137664, Note_on_c, 5, 84, 109
7, 137760, Note_off_c, 5, 84, 64
7, 137856, Note_on_c, 5, 87, 114
7, 137952, Note_off_c, 5, 87, 64
7, 138048, Note_on_c, 5, 91, 118
7, 138144, Note_off_c, 5, 91, 64
7, 138240, Note_on_c, 5, 92, 120
7, 138336, Note_off_c, 5, 92, 64
7, 138432, Note_on_c, 5, 91, 115
7, 138528, Note_off_c, 5, 91, 64
7, 138624, Note_on_c, 5, 87, 111
7, 138720, Note_off_c, 5, 87, 64
7, 138816, Note_on_c, 5, 84, 106
7, 138912, Note_off_c, 5, 84, 64
7, 139008, Note_on_c, 5, 80, 102
7, 139104, Note_off_c, 5, 80, 64
7, 139200, Note_on_c, 5, 79, 97
7, 139296, Note_off_c, 5, 79, 64
7, 139392, Note_on_c, 5, 75, 93
7, 139488, Note_off_c, 5, 75, 64
7, 139584, Note_on_c, 5, 72, 88
7, 139680, Note_off_c, 5, 72, 64
7, 139776, Note_on_c, 5, 68, 84
7, 139872, Note_off_c, 5, 68, 64
7, 139968, Note_on_c, 5, 67, 79
7, 140064, Note_off_c, 5, 67, 64
7, 140160, Note_on_c, 5, 63, 74
7, 140256, Note_off_c, 5, 63, 64
7, 140352, Note_on_c, 5, 60, 70
7, 140448, Note_off_c, 5, 60, 64
7, 140544, Note_on_c, 5, 56, 65
7, 140640, Note_off_c, 5, 56, 64
7, 140736, Note_on_c, 5, 55, 61
7, 140832, Note_off_c, 5, 55, 64
7, 140928, Note_on_c, 5, 51, 56
7, 141024, Note_off_c, 5, 51, 64
7, 141120, Note_on_c, 5, 48, 52
7, 141216, Note_off_c, 5, 48, 64
7, 141312, Control_c, 5, 7, 110
7, 141312, Program_c, 5, 46
7, 141312, Note_on_c, 5, 46, 50
7, 141408, Note_off_c, 5, 46, 64
7, 141504, Note_on_c, 5, 50, 55
7, 141600, Note_off_c, 5, 50, 64
7, 141696, Note_on_c, 5, 53, 59
7, 141792, Note_off_c, 5, 53, 64
7, 141888, Note_on_c, 5, 57, 64
7, 141984, Note_off_c, 5, 57, 64
7, 142080, Note_on_c, 5, 58, 68
7, 142176, Note_off_c, 5, 58, 64
7, 142272, Note_on_c, 5, 62, 73
7, 142368, Note_off_c, 5, 62, 64
7, 142464, Note_on_c, 5, 65, 77
7, 142560, Note_off_c, 5, 65, 64
7, 142656, Note_on_c, 5, 69, 82
7, 142752, Note_off_c, 5, 69, 64
7, 142848, Note_on_c, 5, 70, 86
7, 142944, Note_off_c, 5, 70, 64
7, 143040, Note_on_c, 5, 74, 91
7, 143136, Note_off_c, 5, 74, 64
7, 143232, Note_on_c, 5, 77, 95
7, 143328, Note_off_c, 5, 77, 64
7, 143424, Note_on_c, 5, 81, 100
7, 143520, Note_off_c, 5, 81, 64
7, 143616, Note_on_c, 5, 82, 105
7, 143712, Note_off_c, 5, 82, 64
7, 143808, Note_on_c, 5, 86, 109
7, 143904, Note_off_c, 5, 86, 64
7, 144000, Note_on_c, 5, 89, 114
7, 144096, Note_off_c, 5, 89, 64
7, 144192, Note_on_c, 5, 93, 118
7, 144288, Note_off_c, 5, 93, 64
7, 144384, Note_on_c, 5, 94, 120
7, 144480, Note_off_c, 5, 94, 64
7, 144576, Note_on_c, 5, 93, 115
7, 144672, Note_off_c, 5, 93, 64
7, 144768, Note_on_c, 5, 89, 111
7, 144864, Note_off_c, 5, 89, 64
7, 144960, Note_on_c, 5, 86, 106
7, 145056, Note_off_c, 5, 86, 64
7, 145152, Note_on_c, 5, 82, 102
7, 145248, Note_off_c, 5, 82, 64
7, 145344, Note_on_c, 5, 81, 97
7, 145440, Note_off_c, 5, 81, 64
7, 145536, Note_on_c, 5, 77, 93
7, 145632, Note_off_c, 5, 77, 64
7, 145728, Note_on_c, 5, 74, 88
7, 145824, Note_off_c, 5, 74, 64
7, 145920, Note_on_c, 5, 70, 84
7, 146016, Note_off_c, 5, 70, 64
7, 146112, Note_on_c, 5, 69, 79
7, 146208, Note_off_c, 5, 69, 64
7, 146304, Note_on_c, 5, 65, 74
7, 146400, Note_off_c, 5, 65, 64
7, 146496, Note_on_c, 5, 62, 70
7, 146592, Note_off_c, 5, 62, 64
7, 146688, Note_on_c, 5, 58, 65
7, 146784, Note_off_c, 5, 58, 64
7, 146880, Note_on_c, 5, 57, 61
7, 146976, Note_off_c, 5, 57, 64
7, 147072, Note_on_c, 5, 53, 56
7, 147168, Note_off_c, 5, 53, 64
7, 147264, Note_on_c, 5, 50, 52
7, 147360, Note_off_c, 5, 50, 64
7, 184320, Control_c, 5, 7, 110
7, 184320, Program_c, 5, 46
7, 184320, Note_on_c, 5, 48, 51
7, 184416, Note_off_c, 5, 48, 64
7, 184512, Note_on_c, 5, 50, 55
7, 184608, Note_off_c, 5, 50, 64
7, 184704, Note_on_c, 5, 52, 60
7, 184800, Note_off_c, 5, 52, 64
7, 184896, Note_on_c, 5, 55, 64
7, 184992, Note_off_c, 5, 55, 64
7, 185088, Note_on_c, 5, 60, 68
7, 185184, Note_off_c, 5, 60, 64
7, 185280, Note_on_c, 5, 62, 73
7, 185376, Note_off_c, 5, 62, 64
7, 185472, Note_on_c, 5, 64, 77
7, 185568, Note_off_c, 5, 64, 64
7, 185664, Note_on_c, 5, 67, 81
7, 185760, Note_off_c, 5, 67, 64
7, 185856, Note_on_c, 5, 72, 86
7, 185952, Note_off_c, 5, 72, 64
7, 186048, Note_on_c, 5, 74, 90
7, 186144, Note_off_c, 5, 74, 64
7, 186240, Note_on_c, 5, 76, 94
7, 186336, Note_off_c, 5, 76, 64
7, 186432, Note_on_c, 5, 79, 99
7, 186528, Note_off_c, 5, 79, 64
7, 186624, Note_on_c, 5, 84, 103
7, 186720, Note_off_c, 5, 84, 64
7, 186816, Note_on_c, 5, 86, 108
7, 186912, Note_off_c, 5, 86, 64
7, 187008, Note_on_c, 5, 88, 112
7, 187104, Note_off_c, 5, 88, 64
7, 187200, Note_on_c, 5, 91, 116
7, 187296, Note_off_c, 5, 91, 64
7, 187392, Note_on_c, 5, 96, 121
7, 187488, Note_off_c, 5, 96, 64
7, 187584, Note_on_c, 5, 91, 116
7, 187680, Note_off_c, 5, 91, 64
7, 187776, Note_on_c, 5, 88, 111
7, 187872, Note_off_c, 5, 88, 64
7, 187968, Note_on_c, 5, 86, 107
7, 188064, Note_off_c, 5, 86, 64
7, 188160, Note_on_c, 5, 84, 102
7, 188256, Note_off_c, 5, 84, 64
7, 188352, Note_on_c, 5, 79, 97
7, 188448, Note_off_c, 5, 79, 64
7, 188544, Note_on_c, 5, 76, 93
7, 188640, Note_off_c, 5, 76, 64
7, 188736, Note_on_c, 5, 74, 88
7, 188832, Note_off_c, 5, 74, 64
7, 188928, Note_on_c, 5, 72, 83
7, 189024, Note_off_c, 5, 72, 64
7, 189120, Note_on_c, 5, 67, 79
7, 189216, Note_off_c, 5, 67, 64
7, 189312, Note_on_c, 5, 64, 74
7, 189408, Note_off_c, 5, 64, 64
7, 189504, Note_on_c, 5, 62, 70
7, 189600, Note_off_c, 5, 62, 64
7, 189696, Note_on_c, 5, 60, 65
7, 189792, Note_off_c, 5, 60, 64
7, 189888, Note_on_c, 5, 55, 60
7, 189984, Note_off_c, 5, 55, 64
7, 190080, Note_on_c, 5, 52, 56
7, 190176, Note_off_c, 5, 52, 64
7, 190272, Note_on_c, 5, 50, 51
7, 190368, Note_off_c, 5, 50, 64
7, 190464, Control_c, 5, 7, 110
7, 190464, Program_c, 5, 46
7, 190464, Note_on_c, 5, 45, 50
7, 190560, Note_off_c, 5, 45, 64
7, 190656, Note_on_c, 5, 47, 54
7, 190752, Note_off_c, 5, 47, 64
7, 190848, Note_on_c, 5, 48, 59
7, 190944, Note_off_c, 5, 48, 64
7, 191040, Note_on_c, 5, 52, 63
7, 191136, Note_off_c, 5, 52, 64
7, 191232, Note_on_c, 5, 57, 67
7, 191328, Note_off_c, 5, 57, 64
7, 191424, Note_on_c, 5, 59, 72
7, 191520, Note_off_c, 5, 59, 64
7, 191616, Note_on_c, 5, 60, 76
7, 191712, Note_off_c, 5, 60, 64
7, 191808, Note_on_c, 5, 64, 81
7, 191904, Note_off_c, 5, 64, 64
7, 192000, Note_on_c, 5, 69, 85
7, 192096, Note_off_c, 5, 69, 64
7, 192192, Note_on_c, 5, 71, 90
7, 192288, Note_off_c, 5, 71, 64
7, 192384, Note_on_c, 5, 72, 94
7, 192480, Note_off_c, 5, 72, 64
7, 192576, Note_on_c, 5, 76, 98
7, 192672, Note_off_c, 5, 76, 64
7, 192768, Note_on_c, 5, 81, 103
7, 192864, Note_off_c, 5, 81, 64
7, 192960, Note_on_c, 5, 83, 107
7, 193056, Note_off_c, 5, 83, 64
7, 193152, Note_on_c, 5, 84, 112
7, 193248, Note_off_c, 5, 84, 64
7, 193344, Note_on_c, 5, 88, 116
7, 193440, Note_off_c, 5, 88, 64
7, 193536, Note_on_c, 5, 93, 121
7, 193632, Note_off_c, 5, 93, 64
7, 193728, Note_on_c, 5, 88, 116
7, 193824, Note_off_c, 5, 88, 64
7, 193920, Note_on_c, 5, 84, 111
7, 194016, Note_off_c, 5, 84, 64
7, 194112, Note_on_c, 5, 83, 107
7, 194208, Note_off_c, 5, 83, 64
7, 194304, Note_on_c, 5, 81, 102
7, 194400, Note_off_c, 5, 81, 64
7, 194496, Note_on_c, 5, 76, 98
7, 194592, Note_off_c, 5, 76, 64
7, 194688, Note_on_c, 5, 72, 93
7, 194784, Note_off_c, 5, 72, 64
7, 194880, Note_on_c, 5, 71, 89
7, 194976, Note_off_c, 5, 71, 64
7, 195072, Note_on_c, 5, 69, 84
7, 195168, Note_off_c, 5, 69, 64
7, 195264, Note_on_c, 5, 64, 79
7, 195360, Note_off_c, 5, 64, 64
7, 195456, Note_on_c, 5, 60, 75
7, 195552, Note_off_c, 5, 60, 64
7, 195648, Note_on_c, 5, 59, 70
7, 195744, Note_off_c, 5, 59, 64
7, 195840, Note_on_c, 5, 57, 66
7, 195936, Note_off_c, 5, 57, 64
7, 196032, Note_on_c, 5, 52, 61
7, 196128, Note_off_c, 5, 52, 64
7, 196224, Note_on_c, 5, 48, 57
7, 196320, Note_off_c, 5, 48, 64
7, 196416, Note_on_c, 5, 47, 52
7, 196512, Note_off_c, 5, 47, 64
7, 196608, Control_c, 5, 7, 110
7, 196608, Program_c, 5, 46
7, 196608, Note_on_c, 5, 48, 51
7, 196704, Note_off_c, 5, 48, 64
7, 196800, Note_on_c, 5, 50, 55
7, 196896, Note_off_c, 5, 50, 64
7, 196992, Note_on_c, 5, 52, 60
7, 197088, Note_off_c, 5, 52, 64
7, 197184, Note_on_c, 5, 55, 64
7, 197280, Note_off_c, 5, 55, 64
7, 197376, Note_on_c, 5, 60, 68
7, 197472, Note_off_c, 5, 60, 64
7, 197568, Note_on_c, 5, 62, 73
7, 197664, Note_off_c, 5, 62, 64
7, 197760, Note_on_c, 5, 64, 77
7, 197856, Note_off_c, 5, 64, 64
7, 197952, Note_on_c, 5, 67, 81
7, 198048, Note_off_c, 5, 67, 64
7, 198144, Note_on_c, 5, 72, 86
7, 198240, Note_off_c, 5, 72, 64
7, 198336, Note_on_c, 5, 74, 90
7, 198432, Note_off_c, 5, 74, 64
7, 198528, Note_on_c, 5, 76, 94
7, 198624, Note_off_c, 5, 76, 64
7, 198720, Note_on_c, 5, 79, 99
7, 198816, Note_off_c, 5, 79, 64
7, 198912, Note_on_c, 5, 84, 103
7, 199008, Note_off_c, 5, 84, 64
7, 199104, Note_on_c, 5, 86, 108
7, 199200, Note_off_c, 5, 86, 64
7, 199296, Note_on_c, 5, 88, 112
7, 199392, Note_off_c, 5, 88, 64
7, 199488, Note_on_c, 5, 91, 116
7, 199584, Note_off_c, 5, 91, 64
7, 199680, Note_on_c, 5, 96, 121
7, 199776, Note_off_c, 5, 96, 64
7, 199872, Note_on_c, 5, 91, 116
7, 199968, Note_off_c, 5, 91, 64
7, 200064, Note_on_c, 5, 88, 111
7, 200160, Note_off_c, 5, 88, 64
7, 200256, Note_on_c, 5, 86, 107
7, 200352, Note_off_c, 5, 86, 64
7, 200448, Note_on_c, 5, 84, 102
7, 200544, Note_off_c, 5, 84, 64
7, 200640, Note_on_c, 5, 79, 97
7, 200736, Note_off_c, 5, 79, 64
7, 200832, Note_on_c, 5, 76, 93
7, 200928, Note_off_c, 5, 76, 64
7, 201024, Note_on_c, 5, 74, 88
7, 201120, Note_off_c, 5, 74, 64
7, 201216, Note_on_c, 5, 72, 83
7, 201312, Note_off_c, 5, 72, 64
7, 201408, Note_on_c, 5, 67, 79
7, 201504, Note_off_c, 5, 67, 64
7, 201600, Note_on_c, 5, 64, 74
7, 201696, Note_off_c, 5, 64, 64
7, 201792, Note_on_c, 5, 62, 70
7, 201888, Note_off_c, 5, 62, 64
7, 201984, Note_on_c, 5, 60, 65
7, 202080, Note_off_c, 5, 60, 64
7, 202176, Note_on_c, 5, 55, 60
7, 202272, Note_off_c, 5, 55, 64
7, 202368, Note_on_c, 5, 52, 56
7, 202464, Note_off_c, 5, 52, 64
7, 202560, Note_on_c, 5, 50, 51
7, 202656, Note_off_c, 5, 50, 64
7, 202752, Control_c, 5, 7, 110
7, 202752, Program_c, 5, 46
7, 202752, Note_on_c, 5, 45, 50
7, 202848, Note_off_c, 5, 45, 64
7, 202944, Note_on_c, 5, 47, 54
7, 203040, Note_off_c, 5, 47, 64
7, 203136, Note_on_c, 5, 48, 59
7, 203232, Note_off_c, 5, 48, 64
7, 203328, Note_on_c, 5, 52, 63
7, 203424, Note_off_c, 5, 52, 64
7, 203520, Note_on_c, 5, 57, 67
7, 203616, Note_off_c, 5, 57, 64
7, 203712, Note_on_c, 5, 59, 72
7, 203808, Note_off_c, 5, 59, 64
7, 203904, Note_on_c, 5, 60, 76
7, 204000, Note_off_c, 5, 60, 64
7, 204096, Note_on_c, 5, 64, 81
7, 204192, Note_off_c, 5, 64, 64
7, 204288, Note_on_c, 5, 69, 85
7, 204384, Note_off_c, 5, 69, 64
7, 204480, Note_on_c, 5, 71, 90
7, 204576, Note_off_c, 5, 71, 64
7, 204672, Note_on_c, 5, 72, 94
7, 204768, Note_off_c, 5, 72, 64
7, 204864, Note_on_c, 5, 76, 98
7, 204960, Note_off_c, 5, 76, 64
7, 205056, Note_on_c, 5, 81, 103
7, 205152, Note_off_c, 5, 81, 64
7, 205248, Note_on_c, 5, 83, 107
7, 205344, Note_off_c, 5, 83, 64
7, 205440, Note_on_c, 5, 84, 112
7, 205536, Note_off_c, 5, 84, 64
7, 205632, Note_on_c, 5, 88, 116
7, 205728, Note_off_c, 5, 88, 64
7, 205824, Note_on_c, 5, 93, 121
7, 205920, Note_off_c, 5, 93, 64
7, 206016, Note_on_c, 5, 88, 116
7, 206112, Note_off_c, 5, 88, 64
7, 206208, Note_on_c, 5, 84, 111
7, 206304, Note_off_c, 5, 84, 64
7, 206400, Note_on_c, 5, 83, 107
7, 206496, Note_off_c, 5, 83, 64
7, 206592, Note_on_c, 5, 81, 102
7, 206688, Note_off_c, 5, 81, 64
7, 206784, Note_on_c, 5, 76, 98
7, 206880, Note_off_c, 5, 76, 64
7, 206976, Note_on_c, 5, 72, 93
7, 207072, Note_off_c, 5, 72, 64
7, 207168, Note_on_c, 5, 71, 89
7, 207264, Note_off_c, 5, 71, 64
7, 207360, Note_on_c, 5, 69, 84
7, 207456, Note_off_c, 5, 69, 64
7, 207552, Note_on_c, 5, 64, 79
7, 207648, Note_off_c, 5, 64, 64
7, 207744, Note_on_c, 5, 60, 75
7, 207840, Note_off_c, 5, 60, 64
7, 207936, Note_on_c, 5, 59, 70
7, 208032, Note_off_c, 5, 59, 64
7, 208128, Note_on_c, 5, 57, 66
7, 208224, Note_off_c, 5, 57, 64
7, 208320, Note_on_c, 5, 52, 61
7, 208416, Note_off_c, 5, 52, 64
7, 208512, Note_on_c, 5, 48, 57
7, 208608, Note_off_c, 5, 48, 64
7, 208704, Note_on_c, 5, 47, 52
7, 208800, Note_off_c, 5, 47, 64
7, 208896, Control_c, 5, 7, 110
7, 208896, Program_c, 5, 46
7, 208896, Note_on_c, 5, 45, 50
7, 208992, Note_off_c, 5, 45, 64
7, 209088, Note_on_c, 5, 48, 54
7, 209184, Note_off_c, 5, 48, 64
7, 209280, Note_on_c, 5, 53, 59
7, 209376, Note_off_c, 5, 53, 64
7, 209472, Note_on_c, 5, 55, 63
7, 209568, Note_off_c, 5, 55, 64
7, 209664, Note_on_c, 5, 57, 67
7, 209760, Note_off_c, 5, 57, 64
7, 209856, Note_on_c, 5, 60, 72
7, 209952, Note_off_c, 5, 60, 64
7, 210048, Note_on_c, 5, 65, 76
7, 210144, Note_off_c, 5, 65, 64
7, 210240, Note_on_c, 5, 67, 81
7, 210336, Note_off_c, 5, 67, 64
7, 210432, Note_on_c, 5, 69, 85
7, 210528, Note_off_c, 5, 69, 64
7, 210624, Note_on_c, 5, 72, 90
7, 210720, Note_off_c, 5, 72, 64
7, 210816, Note_on_c, 5, 77, 94
7, 210912, Note_off_c, 5, 77, 64
7, 211008, Note_on_c, 5, 79, 98
7, 211104, Note_off_c, 5, 79, 64
7, 211200, Note_on_c, 5, 81, 103
7, 211296, Note_off_c, 5, 81, 64
7, 211392, Note_on_c, 5, 84, 107
7, 211488, Note_off_c, 5, 84, 64
7, 211584, Note_on_c, 5, 89, 112
7, 211680, Note_off_c, 5, 89, 64
7, 211776, Note_on_c, 5, 91, 116
7, 211872, Note_off_c, 5, 91, 64
7, 211968, Note_on_c, 5, 93, 121
7, 212064, Note_off_c, 5, 93, 64
7, 212160, Note_on_c, 5, 91, 116
7, 212256, Note_off_c, 5, 91, 64
7, 212352, Note_on_c, 5, 89, 112
7, 212448, Note_off_c, 5, 89, 64
7, 212544, Note_on_c, 5, 84, 107
7, 212640, Note_off_c, 5, 84, 64
7, 212736, Note_on_c, 5, 81, 103
7, 212832, Note_off_c, 5, 81, 64
7, 212928, Note_on_c, 5, 79, 98
7, 213024, Note_off_c, 5, 79, 64
7, 213120, Note_on_c, 5, 77, 94
7, 213216, Note_off_c, 5, 77, 64
7, 213312, Note_on_c, 5, 72, 90
7, 213408, Note_off_c, 5, 72, 64
7, 213504, Note_on_c, 5, 69, 85
7, 213600, Note_off_c, 5, 69, 64
7, 213696, Note_on_c, 5, 67, 81
7, 213792, Note_off_c, 5, 67, 64
7, 213888, Note_on_c, 5, 65, 76
7, 213984, Note_off_c, 5, 65, 64
7, 214080, Note_on_c, 5, 60, 72
7, 214176, Note_off_c, 5, 60, 64
7, 214272, Note_on_c, 5, 57, 67
7, 214368, Note_off_c, 5, 57, 64
7, 214464, Note_on_c, 5, 55, 63
7, 214560, Note_off_c, 5, 55, 64
7, 214656, Note_on_c, 5, 53, 59
7, 214752, Note_off_c, 5, 53, 64
7, 214848, Note_on_c, 5, 48, 54
7, 214944, Note_off_c, 5, 48, 64
7, 215040, Control_c, 5, 7, 110
7, 215040, Program_c, 5, 46
7, 215040, Note_on_c, 5, 47, 50
7, 215136, Note_off_c, 5, 47, 64
7, 215232, Note_on_c, 5, 50, 54
7, 215328, Note_off_c, 5, 50, 64
7, 215424, Note_on_c, 5, 55, 59
7, 215520, Note_off_c, 5, 55, 64
7, 215616, Note_on_c, 5, 57, 63
7, 215712, Note_off_c, 5, 57, 64
7, 215808, Note_on_c, 5, 59, 67
7, 215904, Note_off_c, 5, 59, 64
7, 216000, Note_on_c, 5, 62, 72
7, 216096, Note_off_c, 5, 62, 64
7, 216192, Note_on_c, 5, 67, 76
7, 216288, Note_off_c, 5, 67, 64
7, 216384, Note_on_c, 5, 69, 81
7, 216480, Note_off_c, 5, 69, 64
7, 216576, Note_on_c, 5, 71, 85
7, 216672, Note_off_c, 5, 71, 64
7, 216768, Note_on_c, 5, 74, 90
7, 216864, Note_off_c, 5, 74, 64
7, 216960, Note_on_c, 5, 79, 94
7, 217056, Note_off_c, 5, 79, 64
7, 217152, Note_on_c, 5, 81, 98
7, 217248, Note_off_c, 5, 81, 64
7, 217344, Note_on_c, 5, 83, 103
7, 217440, Note_off_c, 5, 83, 64
7, 217536, Note_on_c, 5, 86, 107
7, 217632, Note_off_c, 5, 86, 64
7, 217728, Note_on_c, 5, 91, 112
7, 217824, Note_off_c, 5, 91, 64
7, 217920, Note_on_c, 5, 93, 116
7, 218016, Note_off_c, 5, 93, 64
7, 218112, Note_on_c, 5, 95, 121
7, 218208, Note_off_c, 5, 95, 64
7, 218304, Note_on_c, 5, 93, 116
7, 218400, Note_off_c, 5, 93, 64
7, 218496, Note_on_c, 5, 91, 112
7, 218592, Note_off_c, 5, 91, 64
7, 218688, Note_on_c, 5, 86, 107
7, 218784, Note_off_c, 5, 86, 64
7, 218880, Note_on_c, 5, 83, 103
7, 218976, Note_off_c, 5, 83, 64
7, 219072, Note_on_c, 5, 81, 98
7, 219168, Note_off_c, 5, 81, 64
7, 219264, Note_on_c, 5, 79, 94
7, 219360, Note_off_c, 5, 79, 64
7, 219456, Note_on_c, 5, 74, 90
7, 219552, Note_off_c, 5, 74, 64
7, 219648, Note_on_c, 5, 71, 85
7, 219744, Note_off_c, 5, 71, 64
7, 219840, Note_on_c, 5, 69, 81
7, 219936, Note_off_c, 5, 69, 64
7, 220032, Note_on_c, 5, 67, 76
7, 220128, Note_off_c, 5, 67, 64
7, 220224, Note_on_c, 5, 62, 72
7, 220320, Note_off_c, 5, 62, 64
7, 220416, Note_on_c, 5, 59, 67
7, 220512, Note_off_c, 5, 59, 64
7, 220608, Note_on_c, 5, 57, 63
7, 220704, Note_off_c, 5, 57, 64
7, 220800, Note_on_c, 5, 55, 59
7, 220896, Note_off_c, 5, 55, 64
7, 220992, Note_on_c, 5, 50, 54
7, 221088, Note_off_c, 5, 50, 64
7, 221184, Control_c, 5, 7, 110
7, 221184, Program_c, 5, 46
7, 221184, Note_on_c, 5, 48, 51
7, 221280, Note_off_c, 5, 48, 64
7, 221376, Note_on_c, 5, 50, 55
7, 221472, Note_off_c, 5, 50, 64
7, 221568, Note_on_c, 5, 52, 60
7, 221664, Note_off_c, 5, 52, 64
7, 221760, Note_on_c, 5, 55, 64
7, 221856, Note_off_c, 5, 55, 64
7, 221952, Note_on_c, 5, 60, 68
7, 222048, Note_off_c, 5, 60, 64
7, 222144, Note_on_c, 5, 62, 73
7, 222240, Note_off_c, 5, 62, 64
7, 222336, Note_on_c, 5, 64, 77
7, 222432, Note_off_c, 5, 64, 64
7, 222528, Note_on_c, 5, 67, 81
7, 222624, Note_off_c, 5, 67, 64
7, 222720, Note_on_c, 5, 72, 86
7, 222816, Note_off_c, 5, 72, 64
7, 222912, Note_on_c, 5, 74, 90
7, 223008, Note_off_c, 5, 74, 64
7, 223104, Note_on_c, 5, 76, 94
7, 223200, Note_off_c, 5, 76, 64
7, 223296, Note_on_c, 5, 79, 99
7, 223392, Note_off_c, 5, 79, 64
7, 223488, Note_on_c, 5, 84, 103
7, 223584, Note_off_c, 5, 84, 64
7, 223680, Note_on_c, 5, 86, 108
7, 223776, Note_off_c, 5, 86, 64
7, 223872, Note_on_c, 5, 88, 112
7, 223968, Note_off_c, 5, 88, 64
7, 224064, Note_on_c, 5, 91, 116
7, 224160, Note_off_c, 5, 91, 64
7, 224256, Note_on_c, 5, 96, 121
7, 224352, Note_off_c, 5, 96, 64
7, 224448, Note_on_c, 5, 91, 116
7, 224544, Note_off_c, 5, 91, 64
7, 224640, Note_on_c, 5, 88, 111
7, 224736, Note_off_c, 5, 88, 64
7, 224832, Note_on_c, 5, 86, 107
7, 224928, Note_off_c, 5, 86, 64
7, 225024, Note_on_c, 5, 84, 102
7, 225120, Note_off_c, 5, 84, 64
7, 225216, Note_on_c, 5, 79, 97
7, 225312, Note_off_c, 5, 79, 64
7, 225408, Note_on_c, 5, 76, 93
7, 225504, Note_off_c, 5, 76, 64
7, 225600, Note_on_c, 5, 74, 88
7, 225696, Note_off_c, 5, 74, 64
7, 225792, Note_on_c, 5, 72, 83
7, 225888, Note_off_c, 5, 72, 64
7, 225984, Note_on_c, 5, 67, 79
7, 226080, Note_off_c, 5, 67, 64
7, 226176, Note_on_c, 5, 64, 74
7, 226272, Note_off_c, 5, 64, 64
7, 226368, Note_on_c, 5, 62, 70
7, 226464, Note_off_c, 5, 62, 64
7, 226560, Note_on_c, 5, 60, 65
7, 226656, Note_off_c, 5, 60, 64
7, 226752, Note_on_c, 5, 55, 60
7, 226848, Note_off_c, 5, 55, 64
7, 226944, Note_on_c, 5, 52, 56
7, 227040, Note_off_c, 5, 52, 64
7, 227136, Note_on_c, 5, 50, 51
7, 227232, Note_off_c, 5, 50, 64
7, 227328, Control_c, 5, 7, 110
7, 227328, Program_c, 5, 46
7, 227328, Note_on_c, 5, 45, 50
7, 227424, Note_off_c, 5, 45, 64
7, 227520, Note_on_c, 5, 47, 54
7, 227616, Note_off_c, 5, 47, 64
7, 227712, Note_on_c, 5, 48, 59
7, 227808, Note_off_c, 5, 48, 64
7, 227904, Note_on_c, 5, 52, 63
7, 228000, Note_off_c, 5, 52, 64
7, 228096, Note_on_c, 5, 57, 67
7, 228192, Note_off_c, 5, 57, 64
7, 228288, Note_on_c, 5, 59, 72
7, 228384, Note_off_c, 5, 59, 64
7, 228480, Note_on_c, 5, 60, 76
7, 228576, Note_off_c, 5, 60, 64
7, 228672, Note_on_c, 5, 64, 81
7, 228768, Note_off_c, 5, 64, 64
7, 228864, Note_on_c, 5, 69, 85
7, 228960, Note_off_c, 5, 69, 64
7, 229056, Note_on_c, 5, 71, 90
7, 229152, Note_off_c, 5, 71, 64
7, 229248, Note_on_c, 5, 72, 94
7, 229344, Note_off_c, 5, 72, 64
7, 229440, Note_on_c, 5, 76, 98
7, 229536, Note_off_c, 5, 76, 64
7, 229632, Note_on_c, 5, 81, 103
7, 229728, Note_off_c, 5, 81, 64
7, 229824, Note_on_c, 5, 83, 107
7, 229920, Note_off_c, 5, 83, 64
7, 230016, Note_on_c, 5, 84, 112
7, 230112, Note_off_c, 5, 84, 64
7, 230208, Note_on_c, 5, 88, 116
7, 230304, Note_off_c, 5, 88, 64
7, 230400, Note_on_c, 5, 93, 121
7, 230496, Note_off_c, 5, 93, 64
7, 230592, Note_on_c, 5, 88, 116
7, 230688, Note_off_c, 5, 88, 64
7, 230784, Note_on_c, 5, 84, 111
7, 230880, Note_off_c, 5, 84, 64
7, 230976, Note_on_c, 5, 83, 107
7, 231072, Note_off_c, 5, 83, 64
7, 231168, Note_on_c, 5, 81, 102
7, 231264, Note_off_c, 5, 81, 64
7, 231360, Note_on_c, 5, 76, 98
7, 231456, Note_off_c, 5, 76, 64
7, 231552, Note_on_c, 5, 72, 93
7, 231648, Note_off_c, 5, 72, 64
7, 231744, Note_on_c, 5, 71, 89
7, 231840, Note_off_c, 5, 71, 64
7, 231936, Note_on_c, 5, 69, 84
7, 232032, Note_off_c, 5, 69, 64
7, 232128, Note_on_c, 5, 64, 79
7, 232224, Note_off_c, 5, 64, 64
7, 232320, Note_on_c, 5, 60, 75
7, 232416, Note_off_c, 5, 60, 64
7, 232512, Note_on_c, 5, 59, 70
7, 232608, Note_off_c, 5, 59, 64
7, 232704, Note_on_c, 5, 57, 66
7, 232800, Note_off_c, 5, 57, 64
7, 232896, Note_on_c, 5, 52, 61
7, 232992, Note_off_c, 5, 52, 64
7, 233088, Note_on_c, 5, 48, 57
7, 233184, Note_off_c, 5, 48, 64
7, 233280, Note_on_c, 5, 47, 52
7, 233376, Note_off_c, 5, 47, 64
7, 233472, Control_c, 5, 7, 110
7, 233472, Program_c, 5, 46
7, 233472, Note_on_c, 5, 48, 51
7, 233568, Note_off_c, 5, 48, 64
7, 233664, Note_on_c, 5, 50, 55
7, 233760, Note_off_c, 5, 50, 64
7, 233856, Note_on_c, 5, 52, 60
7, 233952, Note_off_c, 5, 52, 64
7, 234048, Note_on_c, 5, 55, 64
7, 234144, Note_off_c, 5, 55, 64
7, 234240, Note_on_c, 5, 60, 68
7, 234336, Note_off_c, 5, 60, 64
7, 234432, Note_on_c, 5, 62, 73
7, 234528, Note_off_c, 5, 62, 64
7, 234624, Note_on_c, 5, 64, 77
7, 234720, Note_off_c, 5, 64, 64
7, 234816, Note_on_c, 5, 67, 81
7, 234912, Note_off_c, 5, 67, 64
7, 235008, Note_on_c, 5, 72, 86
7, 235104, Note_off_c, 5, 72, 64
7, 235200, Note_on_c, 5, 74, 90
7, 235296, Note_off_c, 5, 74, 64
7, 235392, Note_on_c, 5, 76, 94
7, 235488, Note_off_c, 5, 76, 64
7, 235584, Note_on_c, 5, 79, 99
7, 235680, Note_off_c, 5, 79, 64
7, 235776, Note_on_c, 5, 84, 103
7, 235872, Note_off_c, 5, 84, 64
7, 235968, Note_on_c, 5, 86, 108
7, 236064, Note_off_c, 5, 86, 64
7, 236160, Note_on_c, 5, 88, 112
7, 236256, Note_off_c, 5, 88, 64
7, 236352, Note_on_c, 5, 91, 116
7, 236448, Note_off_c, 5, 91, 64
7, 236544, Note_on_c, 5, 96, 121
7, 236640, Note_off_c, 5, 96, 64
7, 236736, Note_on_c, 5, 91, 116
7, 236832, Note_off_c, 5, 91, 64
7, 236928, Note_on_c, 5, 88, 111
7, 237024, Note_off_c, 5, 88, 64
7, 237120, Note_on_c, 5, 86, 107
7, 237216, Note_off_c, 5, 86, 64
7, 237312, Note_on_c, 5, 84, 102
7, 237408, Note_off_c, 5, 84, 64
7, 237504, Note_on_c, 5, 79, 97
7, 237600, Note_off_c, 5, 79, 64
7, 237696, Note_on_c, 5, 76, 93
7, 237792, Note_off_c, 5, 76, 64
7, 237888, Note_on_c, 5, 74, 88
7, 237984, Note_off_c, 5, 74, 64
7, 238080, Note_on_c, 5, 72, 83
7, 238176, Note_off_c, 5, 72, 64
7, 238272, Note_on_c, 5, 67, 79
7, 238368, Note_off_c, 5, 67, 64
7, 238464, Note_on_c, 5, 64, 74
7, 238560, Note_off_c, 5, 64, 64
7, 238656, Note_on_c, 5, 62, 70
7, 238752, Note_off_c, 5, 62, 64
7, 238848, Note_on_c, 5, 60, 65
7, 238944, Note_off_c, 5, 60, 64
7, 239040, Note_on_c, 5, 55, 60
7, 239136, Note_off_c, 5, 55, 64
7, 239232, Note_on_c, 5, 52, 56
7, 239328, Note_off_c, 5, 52, 64
7, 239424, Note_on_c, 5, 50, 51
7, 239520, Note_off_c, 5, 50, 64
7, 239616, Control_c, 5, 7, 110
7, 239616, Program_c, 5, 46
7, 239616, Note_on_c, 5, 45, 50
7, 239712, Note_off_c, 5, 45, 64
7, 239808, Note_on_c, 5, 47, 54
7, 239904, Note_off_c, 5, 47, 64
7, 240000, Note_on_c, 5, 48, 59
7, 240096, Note_off_c, 5, 48, 64
7, 240192, Note_on_c, 5, 52, 63
7, 240288, Note_off_c, 5, 52, 64
7, 240384, Note_on_c, 5, 57, 67
7, 240480, Note_off_c, 5, 57, 64
7, 240576, Note_on_c, 5, 59, 72
7, 240672, Note_off_c, 5, 59, 64
7, 240768, Note_on_c, 5, 60, 76
7, 240864, Note_off_c, 5, 60, 64
7, 240960, Note_on_c, 5, 64, 81
7, 241056, Note_off_c, 5, 64, 64
7, 241152, Note_on_c, 5, 69, 85
7, 241248, Note_off_c, 5, 69, 64
7, 241344, Note_on_c, 5, 71, 90
7, 241440, Note_off_c, 5, 71, 64
7, 241536, Note_on_c, 5, 72, 94
7, 241632, Note_off_c, 5, 72, 64
7, 241728, Note_on_c, 5, 76, 98
7, 241824, Note_off_c, 5, 76, 64
7, 241920, Note_on_c, 5, 81, 103
7, 242016, Note_off_c, 5, 81, 64
7, 242112, Note_on_c, 5, 83, 107
7, 242208, Note_off_c, 5, 83, 64
7, 242304, Note_on_c, 5, 84, 112
7, 242400, Note_off_c, 5, 84, 64
7, 242496, Note_on_c, 5, 88, 116
7, 242592, Note_off_c, 5, 88, 64
7, 242688, Note_on_c, 5, 93, 121
7, 242784, Note_off_c, 5, 93, 64
7, 242880, Note_on_c, 5, 88, 116
7, 242976, Note_off_c, 5, 88, 64
7, 243072, Note_on_c, 5, 84, 111
7, 243168, Note_off_c, 5, 84, 64
7, 243264, Note_on_c, 5, 83, 107
7, 243360, Note_off_c, 5, 83, 64
7, 243456, Note_on_c, 5, 81, 102
7, 243552, Note_off_c, 5, 81, 64
7, 243648, Note_on_c, 5, 76, 98
7, 243744, Note_off_c, 5, 76, 64
7, 243840, Note_on_c, 5, 72, 93
7, 243936, Note_off_c, 5, 72, 64
7, 244032, Note_on_c, 5, 71, 89
7, 244128, Note_off_c, 5, 71, 64
7, 244224, Note_on_c, 5, 69, 84
7, 244320, Note_off_c, 5, 69, 64
7, 244416, Note_on_c, 5, 64, 79
7, 244512, Note_off_c, 5, 64, 64
7, 244608, Note_on_c, 5, 60, 75
7, 244704, Note_off_c, 5, 60, 64
7, 244800, Note_on_c, 5, 59, 70
7, 244896, Note_off_c, 5, 59, 64
7, 244992, Note_on_c, 5, 57, 66
7, 245088, Note_off_c, 5, 57, 64
7, 245184, Note_on_c, 5, 52, 61
7, 245280, Note_off_c, 5, 52, 64
7, 245376, Note_on_c, 5, 48, 57
7, 245472, Note_off_c, 5, 48, 64
7, 245568, Note_on_c, 5, 47, 52
7, 245664, Note_off_c, 5, 47, 64
7, 245760, Control_c, 5, 7, 110
7, 245760, Program_c, 5, 46
7, 245760, Note_on_c, 5, 45, 50
7, 245856, Note_off_c, 5, 45, 64
7, 245952, Note_on_c, 5, 48, 54
7, 246048, Note_off_c, 5, 48, 64
7, 246144, Note_on_c, 5, 53, 59
7, 246240, Note_off_c, 5, 53, 64
7, 246336, Note_on_c, 5, 55, 63
7, 246432, Note_off_c, 5, 55, 64
7, 246528, Note_on_c, 5, 57, 67
7, 246624, Note_off_c, 5, 57, 64
7, 246720, Note_on_c, 5, 60, 72
7, 246816, Note_off_c, 5, 60, 64
7, 246912, Note_on_c, 5, 65, 76
7, 247008, Note_off_c, 5, 65, 64
7, 247104, Note_on_c, 5, 67, 81
7, 247200, Note_off_c, 5, 67, 64
7, 247296, Note_on_c, 5, 69, 85
7, 247392, Note_off_c, 5, 69, 64
7, 247488, Note_on_c, 5, 72, 90
7, 247584, Note_off_c, 5, 72, 64
7, 247680, Note_on_c, 5, 77, 94
7, 247776, Note_off_c, 5, 77, 64
7, 247872, Note_on_c, 5, 79, 98
7, 247968, Note_off_c, 5, 79, 64
7, 248064, Note_on_c, 5, 81, 103
7, 248160, Note_off_c, 5, 81, 64
7, 248256, Note_on_c, 5, 84, 107
7, 248352, Note_off_c, 5, 84, 64
7, 248448, Note_on_c, 5, 89, 112
7, 248544, Note_off_c, 5, 89, 64
7, 248640, Note_on_c, 5, 91, 116
7, 248736, Note_off_c, 5, 91, 64
7, 248832, Note_on_c, 5, 93, 121
7, 248928, Note_off_c, 5, 93, 64
7, 249024, Note_on_c, 5, 91, 116
7, 249120, Note_off_c, 5, 91, 64
7, 249216, Note_on_c, 5, 89, 112
7, 249312, Note_off_c, 5, 89, 64
7, 249408, Note_on_c, 5, 84, 107
7, 249504, Note_off_c, 5, 84, 64
7, 249600, Note_on_c, 5, 81, 103
7, 249696, Note_off_c, 5, 81, 64
7, 249792, Note_on_c, 5, 79, 98
7, 249888, Note_off_c, 5, 79, 64
7, 249984, Note_on_c, 5, 77, 94
7, 250080, Note_off_c, 5, 77, 64
7, 250176, Note_on_c, 5, 72, 90
7, 250272, Note_off_c, 5, 72, 64
7, 250368, Note_on_c, 5, 69, 85
7, 250464, Note_off_c, 5, 69, 64
7, 250560, Note_on_c, 5, 67, 81
7, 250656, Note_off_c, 5, 67, 64
7, 250752, Note_on_c, 5, 65, 76
7, 250848, Note_off_c, 5, 65, 64
7, 250944, Note_on_c, 5, 60, 72
7, 251040, Note_off_c, 5, 60, 64
7, 251136, Note_on_c, 5, 57, 67
7, 251232, Note_off_c, 5, 57, 64
7, 251328, Note_on_c, 5, 55, 63
7, 251424, Note_off_c, 5, 55, 64
7, 251520, Note_on_c, 5, 53, 59
7, 251616, Note_off_c, 5, 53, 64
7, 251712, Note_on_c, 5, 48, 54
7, 251808, Note_off_c, 5, 48, 64
7, 251904, Control_c, 5, 7, 110
7, 251904, Program_c, 5, 46
7, 251904, Note_on_c, 5, 47, 50
7, 252000, Note_off_c, 5, 47, 64
7, 252096, Note_on_c, 5, 50, 54
7, 252192, Note_off_c, 5, 50, 64
7, 252288, Note_on_c, 5, 55, 59
7, 252384, Note_off_c, 5, 55, 64
7, 252480, Note_on_c, 5, 57, 63
7, 252576, Note_off_c, 5, 57, 64
7, 252672, Note_on_c, 5, 59, 67
7, 252768, Note_off_c, 5, 59, 64
7, 252864, Note_on_c, 5, 62, 72
7, 252960, Note_off_c, 5, 62, 64
7, 253056, Note_on_c, 5, 67, 76
7, 253152, Note_off_c, 5, 67, 64
7, 253248, Note_on_c, 5, 69, 81
7, 253344, Note_off_c, 5, 69, 64
7, 253440, Note_on_c, 5, 71, 85
7, 253536, Note_off_c, 5, 71, 64
7, 253632, Note_on_c, 5, 74, 90
7, 253728, Note_off_c, 5, 74, 64
7, 253824, Note_on_c, 5, 79, 94
7, 253920, Note_off_c, 5, 79, 64
7, 254016, Note_on_c, 5, 81, 98
7, 254112, Note_off_c, 5, 81, 64
7, 254208, Note_on_c, 5, 83, 103
7, 254304, Note_off_c, 5, 83, 64
7, 254400, Note_on_c, 5, 86, 107
7, 254496, Note_off_c, 5, 86, 64
7, 254592, Note_on_c, 5, 91, 112
7, 254688, Note_off_c, 5, 91, 64
7, 254784, Note_on_c, 5, 93, 116
7, 254880, Note_off_c, 5, 93, 64
7, 254976, Note_on_c, 5, 95, 121
7, 255072, Note_off_c, 5, 95, 64
7, 255168, Note_on_c, 5, 93, 116
7, 255264, Note_off_c, 5, 93, 64
7, 255360, Note_on_c, 5, 91, 112
7, 255456, Note_off_c, 5, 91, 64
7, 255552, Note_on_c, 5, 86, 107
7, 255648, Note_off_c, 5, 86, 64
7, 255744, Note_on_c, 5, 83, 103
7, 255840, Note_off_c, 5, 83, 64
7, 255936, Note_on_c, 5, 81, 98
7, 256032, Note_off_c, 5, 81, 64
7, 256128, Note_on_c, 5, 79, 94
7, 256224, Note_off_c, 5, 79, 64
7, 256320, Note_on_c, 5, 74, 90
7, 256416, Note_off_c, 5, 74, 64
7, 256512, Note_on_c, 5, 71, 85
7, 256608, Note_off_c, 5, 71, 64
7, 256704, Note_on_c, 5, 69, 81
7, 256800, Note_off_c, 5, 69, 64
7, 256896, Note_on_c, 5, 67, 76
7, 256992, Note_off_c, 5, 67, 64
7, 257088, Note_on_c, 5, 62, 72
7, 257184, Note_off_c, 5, 62, 64
7, 257280, Note_on_c, 5, 59, 67
7, 257376, Note_off_c, 5, 59, 64
7, 257472, Note_on_c, 5, 57, 63
7, 257568, Note_off_c, 5, 57, 64
7, 257664, Note_on_c, 5, 55, 59
7, 257760, Note_off_c, 5, 55, 64
7, 257856, Note_on_c, 5, 50, 54
7, 257952, Note_off_c, 5, 50, 64
7, 258048, Control_c, 5, 7, 110
7, 258048, Program_c, 5, 46
7, 258048, Note_on_c, 5, 44, 50
7, 258144, Note_off_c, 5, 44, 64
7, 258240, Note_on_c, 5, 48, 55
7, 258336, Note_off_c, 5, 48, 64
7, 258432, Note_on_c, 5, 51, 59
7, 258528, Note_off_c, 5, 51, 64
7, 258624, Note_on_c, 5, 55, 64
7, 258720, Note_off_c, 5, 55, 64
7, 258816, Note_on_c, 5, 56, 68
7, 258912, Note_off_c, 5, 56, 64
7, 259008, Note_on_c, 5, 60, 73
7, 259104, Note_off_c, 5, 60, 64
7, 259200, Note_on_c, 5, 63, 77
7, 259296, Note_off_c, 5, 63, 64
7, 259392, Note_on_c, 5, 67, 82
7, 259488, Note_off_c, 5, 67, 64
7, 259584, Note_on_c, 5, 68, 86
7, 259680, Note_off_c, 5, 68, 64
7, 259776, Note_on_c, 5, 72, 91
7, 259872, Note_off_c, 5, 72, 64
7, 259968, Note_on_c, 5, 75, 95
7, 260064, Note_off_c, 5, 75, 64
7, 260160, Note_on_c, 5, 79, 100
7, 260256, Note_off_c, 5, 79, 64
7, 260352, Note_on_c, 5, 80, 105
7, 260448, Note_off_c, 5, 80, 64
7, 260544, Note_on_c, 5, 84, 109
7, 260640, Note_off_c, 5, 84, 64
7, 260736, Note_on_c, 5, 87, 114
7, 260832, Note_off_c, 5, 87, 64
7, 260928, Note_on_c, 5, 91, 118
7, 261024, Note_off_c, 5, 91, 64
7, 261120, Note_on_c, 5, 92, 120
7, 261216, Note_off_c, 5, 92, 64
7, 261312, Note_on_c, 5, 91, 115
7, 261408, Note_off_c, 5, 91, 64
7, 261504, Note_on_c, 5, 87, 111
7, 261600, Note_off_c, 5, 87, 64
7, 261696, Note_on_c, 5, 84, 106
7, 261792, Note_off_c, 5, 84, 64
7, 261888, Note_on_c, 5, 80, 102
7, 261984, Note_off_c, 5, 80, 64
7, 262080, Note_on_c, 5, 79, 97
7, 262176, Note_off_c, 5, 79, 64
7, 262272, Note_on_c, 5, 75, 93
7, 262368, Note_off_c, 5, 75, 64
7, 262464, Note_on_c, 5, 72, 88
7, 262560, Note_off_c, 5, 72, 64
7, 262656, Note_on_c, 5, 68, 84
7, 262752, Note_off_c, 5, 68, 64
7, 262848, Note_on_c, 5, 67, 79
7, 262944, Note_off_c, 5, 67, 64
7, 263040, Note_on_c, 5, 63, 74
7, 263136, Note_off_c, 5, 63, 64
7, 263232, Note_on_c, 5, 60, 70
7, 263328, Note_off_c, 5, 60, 64
7, 263424, Note_on_c, 5, 56, 65
7, 263520, Note_off_c, 5, 56, 64
7, 263616, Note_on_c, 5, 55, 61
7, 263712, Note_off_c, 5, 55, 64
7, 263808, Note_on_c, 5, 51, 56
7, 263904, Note_off_c, 5, 51, 64
7, 264000, Note_on_c, 5, 48, 52
7, 264096, Note_off_c, 5, 48, 64
7, 264192, Control_c, 5, 7, 110
7, 264192, Program_c, 5, 46
7, 264192, Note_on_c, 5, 46, 50
7, 264288, Note_off_c, 5, 46, 64
7, 264384, Note_on_c, 5, 50, 55
7, 264480, Note_off_c, 5, 50, 64
7, 264576, Note_on_c, 5, 53, 59
7, 264672, Note_off_c, 5, 53, 64
7, 264768, Note_on_c, 5, 57, 64
7, 264864, Note_off_c, 5, 57, 64
7, 264960, Note_on_c, 5, 58, 68
7, 265056, Note_off_c, 5, 58, 64
7, 265152, Note_on_c, 5, 62, 73
7, 265248, Note_off_c, 5, 62, 64
7, 265344, Note_on_c, 5, 65, 77
7, 265440, Note_off_c, 5, 65, 64
7, 265536, Note_on_c, 5, 69, 82
7, 265632, Note_off_c, 5, 69, 64
7, 265728, Note_on_c, 5, 70, 86
7, 265824, Note_off_c, 5, 70, 64
7, 265920, Note_on_c, 5, 74, 91
7, 266016, Note_off_c, 5, 74, 64
7, 266112, Note_on_c, 5, 77, 95
7, 266208, Note_off_c, 5, 77, 64
7, 266304, Note_on_c, 5, 81, 100
7, 266400, Note_off_c, 5, 81, 64
7, 266496, Note_on_c, 5, 82, 105
7, 266592, Note_off_c, 5, 82, 64
7, 266688, Note_on_c, 5, 86, 109
7, 266784, Note_off_c, 5, 86, 64
7, 266880, Note_on_c, 5, 89, 114
7, 266976, Note_off_c, 5, 89, 64
7, 267072, Note_on_c, 5, 93, 118
7, 267168, Note_off_c, 5, 93, 64
7, 267264, Note_on_c, 5, 94, 120
7, 267360, Note_off_c, 5, 94, 64
7, 267456, Note_on_c, 5, 93, 115
7, 267552, Note_off_c, 5, 93, 64
7, 267648, Note_on_c, 5, 89, 111
7, 267744, Note_off_c, 5, 89, 64
7, 267840, Note_on_c, 5, 86, 106
7, 267936, Note_off_c, 5, 86, 64
7, 268032, Note_on_c, 5, 82, 102
7, 268128, Note_off_c, 5, 82, 64
7, 268224, Note_on_c, 5, 81, 97
7, 268320, Note_off_c, 5, 81, 64
7, 268416, Note_on_c, 5, 77, 93
7, 268512, Note_off_c, 5, 77, 64
7, 268608, Note_on_c, 5, 74, 88
7, 268704, Note_off_c, 5, 74, 64
7, 268800, Note_on_c, 5, 70, 84
7, 268896, Note_off_c, 5, 70, 64
7, 268992, Note_on_c, 5, 69, 79
7, 269088, Note_off_c, 5, 69, 64
7, 269184, Note_on_c, 5, 65, 74
7, 269280, Note_off_c, 5, 65, 64
7, 269376, Note_on_c, 5, 62, 70
7, 269472, Note_off_c, 5, 62, 64
7, 269568, Note_on_c, 5, 58, 65
7, 269664, Note_off_c, 5, 58, 64
7, 269760, Note_on_c, 5, 57, 61
7, 269856, Note_off_c, 5, 57, 64
7, 269952, Note_on_c, 5, 53, 56
7, 270048, Note_off_c, 5, 53, 64
7, 270144, Note_on_c, 5, 50, 52
7, 270240, Note_off_c, 5, 50, 64
7, 270336, End_track
8, 0, Start_track
8, 0, Title_t, "Marino"
8, 0, Program_c, 6, 46
8, 0, Control_c, 6, 10, 18
8, 0, Control_c, 6, 91, 105
8, 61440, Control_c, 6, 7, 80
8, 61440, Program_c, 6, 46
8, 61728, Note_on_c, 6, 48, 51
8, 61824, Note_off_c, 6, 48, 64
8, 61920, Note_on_c, 6, 50, 55
8, 62016, Note_off_c, 6, 50, 64
8, 62112, Note_on_c, 6, 52, 60
8, 62208, Note_off_c, 6, 52, 64
8, 62304, Note_on_c, 6, 55, 64
8, 62400, Note_off_c, 6, 55, 64
8, 62496, Note_on_c, 6, 60, 68
8, 62592, Note_off_c, 6, 60, 64
8, 62688, Note_on_c, 6, 62, 73
8, 62784, Note_off_c, 6, 62, 64
8, 62880, Note_on_c, 6, 64, 77
8, 62976, Note_off_c, 6, 64, 64
8, 63072, Note_on_c, 6, 67, 81
8, 63168, Note_off_c, 6, 67, 64
8, 63264, Note_on_c, 6, 72, 86
8, 63360, Note_off_c, 6, 72, 64
8, 63456, Note_on_c, 6, 74, 90
8, 63552, Note_off_c, 6, 74, 64
8, 63648, Note_on_c, 6, 76, 94
8, 63744, Note_off_c, 6, 76, 64
8, 63840, Note_on_c, 6, 79, 99
8, 63936, Note_off_c, 6, 79, 64
8, 64032, Note_on_c, 6, 84, 103
8, 64128, Note_off_c, 6, 84, 64
8, 64224, Note_on_c, 6, 86, 108
8, 64320, Note_off_c, 6, 86, 64
8, 64416, Note_on_c, 6, 88, 112
8, 64512, Note_off_c, 6, 88, 64
8, 64608, Note_on_c, 6, 91, 116
8, 64704, Note_off_c, 6, 91, 64
8, 64800, Note_on_c, 6, 96, 121
8, 64896, Note_off_c, 6, 96, 64
8, 64992, Note_on_c, 6, 91, 116
8, 65088, Note_off_c, 6, 91, 64
8, 65184, Note_on_c, 6, 88, 111
8, 65280, Note_off_c, 6, 88, 64
8, 65376, Note_on_c, 6, 86, 107
8, 65472, Note_off_c, 6, 86, 64
8, 65568, Note_on_c, 6, 84, 102
8, 65664, Note_off_c, 6, 84, 64
8, 65760, Note_on_c, 6, 79, 97
8, 65856, Note_off_c, 6, 79, 64
8, 65952, Note_on_c, 6, 76, 93
8, 66048, Note_off_c, 6, 76, 64
8, 66144, Note_on_c, 6, 74, 88
8, 66240, Note_off_c, 6, 74, 64
8, 66336, Note_on_c, 6, 72, 83
8, 66432, Note_off_c, 6, 72, 64
8, 66528, Note_on_c, 6, 67, 79
8, 66624, Note_off_c, 6, 67, 64
8, 66720, Note_on_c, 6, 64, 74
8, 66816, Note_off_c, 6, 64, 64
8, 66912, Note_on_c, 6, 62, 70
8, 67008, Note_off_c, 6, 62, 64
8, 67104, Note_on_c, 6, 60, 65
8, 67200, Note_off_c, 6, 60, 64
8, 67296, Note_on_c, 6, 55, 60
8, 67392, Note_off_c, 6, 55, 64
8, 67488, Note_on_c, 6, 52, 56
8, 67584, Note_off_c, 6, 52, 64
8, 67680, Note_on_c, 6, 50, 51
8, 67776, Note_off_c, 6, 50, 64
8, 67872, Note_on_c, 6, 45, 50
8, 67968, Note_off_c, 6, 45, 64
8, 68064, Note_on_c, 6, 47, 54
8, 68160, Note_off_c, 6, 47, 64
8, 68256, Note_on_c, 6, 48, 59
8, 68352, Note_off_c, 6, 48, 64
8, 68448, Note_on_c, 6, 52, 63
8, 68544, Note_off_c, 6, 52, 64
8, 68640, Note_on_c, 6, 57, 67
8, 68736, Note_off_c, 6, 57, 64
8, 68832, Note_on_c, 6, 59, 72
8, 68928, Note_off_c, 6, 59, 64
8, 69024, Note_on_c, 6, 60, 76
8, 69120, Note_off_c, 6, 60, 64
8, 69216, Note_on_c, 6, 64, 81
8, 69312, Note_off_c, 6, 64, 64
8, 69408, Note_on_c, 6, 69, 85
8, 69504, Note_off_c, 6, 69, 64
8, 69600, Note_on_c, 6, 71, 90
8, 69696, Note_off_c, 6, 71, 64
8, 69792, Note_on_c, 6, 72, 94
8, 69888, Note_off_c, 6, 72, 64
8, 69984, Note_on_c, 6, 76, 98
8, 70080, Note_off_c, 6, 76, 64
8, 70176, Note_on_c, 6, 81, 103
8, 70272, Note_off_c, 6, 81, 64
8, 70368, Note_on_c, 6, 83, 107
8, 70464, Note_off_c, 6, 83, 64
8, 70560, Note_on_c, 6, 84, 112
8, 70656, Note_off_c, 6, 84, 64
8, 70752, Note_on_c, 6, 88, 116
8, 70848, Note_off_c, 6, 88, 64
8, 70944, Note_on_c, 6, 93, 121
8, 71040, Note_off_c, 6, 93, 64
8, 71136, Note_on_c, 6, 88, 116
8, 71232, Note_off_c, 6, 88, 64
8, 71328, Note_on_c, 6, 84, 111
8, 71424, Note_off_c, 6, 84, 64
8, 71520, Note_on_c, 6, 83, 107
8, 71616, Note_off_c, 6, 83, 64
8, 71712, Note_on_c, 6, 81, 102
8, 71808, Note_off_c, 6, 81, 64
8, 71904, Note_on_c, 6, 76, 98
8, 72000, Note_off_c, 6, 76, 64
8, 72096, Note_on_c, 6, 72, 93
8, 72192, Note_off_c, 6, 72, 64
8, 72288, Note_on_c, 6, 71, 89
8, 72384, Note_off_c, 6, 71, 64
8, 72480, Note_on_c, 6, 69, 84
8, 72576, Note_off_c, 6, 69, 64
8, 72672, Note_on_c, 6, 64, 79
8, 72768, Note_off_c, 6, 64, 64
8, 72864, Note_on_c, 6, 60, 75
8, 72960, Note_off_c, 6, 60, 64
8, 73056, Note_on_c, 6, 59, 70
8, 73152, Note_off_c, 6, 59, 64
8, 73248, Note_on_c, 6, 57, 66
8, 73344, Note_off_c, 6, 57, 64
8, 73440, Note_on_c, 6, 52, 61
8, 73536, Note_off_c, 6, 52, 64
8, 73632, Note_on_c, 6, 48, 57
8, 73728, Note_off_c, 6, 48, 64
8, 73728, Control_c, 6, 7, 80
8, 73728, Program_c, 6, 46
8, 73824, Note_on_c, 6, 47, 52
8, 73920, Note_off_c, 6, 47, 64
8, 74016, Note_on_c, 6, 48, 51
8, 74112, Note_off_c, 6, 48, 64
8, 74208, Note_on_c, 6, 50, 55
8, 74304, Note_off_c, 6, 50, 64
8, 74400, Note_on_c, 6, 52, 60
8, 74496, Note_off_c, 6, 52, 64
8, 74592, Note_on_c, 6, 55, 64
8, 74688, Note_off_c, 6, 55, 64
8, 74784, Note_on_c, 6, 60, 68
8, 74880, Note_off_c, 6, 60, 64
8, 74976, Note_on_c, 6, 62, 73
8, 75072, Note_off_c, 6, 62, 64
8, 75168, Note_on_c, 6, 64, 77
8, 75264, Note_off_c, 6, 64, 64
8, 75360, Note_on_c, 6, 67, 81
8, 75456, Note_off_c, 6, 67, 64
8, 75552, Note_on_c, 6, 72, 86
8, 75648, Note_off_c, 6, 72, 64
8, 75744, Note_on_c, 6, 74, 90
8, 75840, Note_off_c, 6, 74, 64
8, 75936, Note_on_c, 6, 76, 94
8, 76032, Note_off_c, 6, 76, 64
8, 76128, Note_on_c, 6, 79, 99
8, 76224, Note_off_c, 6, 79, 64
8, 76320, Note_on_c, 6, 84, 103
8, 76416, Note_off_c, 6, 84, 64
8, 76512, Note_on_c, 6, 86, 108
8, 76608, Note_off_c, 6, 86, 64
8, 76704, Note_on_c, 6, 88, 112
8, 76800, Note_off_c, 6, 88, 64
8, 76896, Note_on_c, 6, 91, 116
8, 76992, Note_off_c, 6, 91, 64
8, 77088, Note_on_c, 6, 96, 121
8, 77184, Note_off_c, 6, 96, 64
8, 77280, Note_on_c, 6, 91, 116
8, 77376, Note_off_c, 6, 91, 64
8, 77472, Note_on_c, 6, 88, 111
8, 77568, Note_off_c, 6, 88, 64
8, 77664, Note_on_c, 6, 86, 107
8, 77760, Note_off_c, 6, 86, 64
8, 77856, Note_on_c, 6, 84, 102
8, 77952, Note_off_c, 6, 84, 64
8, 78048, Note_on_c, 6, 79, 97
8, 78144, Note_off_c, 6, 79, 64
8, 78240, Note_on_c, 6, 76, 93
8, 78336, Note_off_c, 6, 76, 64
8, 78432, Note_on_c, 6, 74, 88
8, 78528, Note_off_c, 6, 74, 64
8, 78624, Note_on_c, 6, 72, 83
8, 78720, Note_off_c, 6, 72, 64
8, 78816, Note_on_c, 6, 67, 79
8, 78912, Note_off_c, 6, 67, 64
8, 79008, Note_on_c, 6, 64, 74
8, 79104, Note_off_c, 6, 64, 64
8, 79200, Note_on_c, 6, 62, 70
8, 79296, Note_off_c, 6, 62, 64
8, 79392, Note_on_c, 6, 60, 65
8, 79488, Note_off_c, 6, 60, 64
8, 79584, Note_on_c, 6, 55, 60
8, 79680, Note_off_c, 6, 55, 64
8, 79776, Note_on_c, 6, 52, 56
8, 79872, Note_off_c, 6, 52, 64
8, 79968, Note_on_c, 6, 50, 51
8, 80064, Note_off_c, 6, 50, 64
8, 80160, Note_on_c, 6, 45, 50
8, 80256, Note_off_c, 6, 45, 64
8, 80352, Note_on_c, 6, 47, 54
8, 80448, Note_off_c, 6, 47, 64
8, 80544, Note_on_c, 6, 48, 59
8, 80640, Note_off_c, 6, 48, 64
8, 80736, Note_on_c, 6, 52, 63
8, 80832, Note_off_c, 6, 52, 64
8, 80928, Note_on_c, 6, 57, 67
8, 81024, Note_off_c, 6, 57, 64
8, 81120, Note_on_c, 6, 59, 72
8, 81216, Note_off_c, 6, 59, 64
8, 81312, Note_on_c, 6, 60, 76
8, 81408, Note_off_c, 6, 60, 64
8, 81504, Note_on_c, 6, 64, 81
8, 81600, Note_off_c, 6, 64, 64
8, 81696, Note_on_c, 6, 69, 85
8, 81792, Note_off_c, 6, 69, 64
8, 81888, Note_on_c, 6, 71, 90
8, 81984, Note_off_c, 6, 71, 64
8, 82080, Note_on_c, 6, 72, 94
8, 82176, Note_off_c, 6, 72, 64
8, 82272, Note_on_c, 6, 76, 98
8, 82368, Note_off_c, 6, 76, 64
8, 82464, Note_on_c, 6, 81, 103
8, 82560, Note_off_c, 6, 81, 64
8, 82656, Note_on_c, 6, 83, 107
8, 82752, Note_off_c, 6, 83, 64
8, 82848, Note_on_c, 6, 84, 112
8, 82944, Note_off_c, 6, 84, 64
8, 83040, Note_on_c, 6, 88, 116
8, 83136, Note_off_c, 6, 88, 64
8, 83232, Note_on_c, 6, 93, 121
8, 83328, Note_off_c, 6, 93, 64
8, 83424, Note_on_c, 6, 88, 116
8, 83520, Note_off_c, 6, 88, 64
8, 83616, Note_on_c, 6, 84, 111
8, 83712, Note_off_c, 6, 84, 64
8, 83808, Note_on_c, 6, 83, 107
8, 83904, Note_off_c, 6, 83, 64
8, 84000, Note_on_c, 6, 81, 102
8, 84096, Note_off_c, 6, 81, 64
8, 84192, Note_on_c, 6, 76, 98
8, 84288, Note_off_c, 6, 76, 64
8, 84384, Note_on_c, 6, 72, 93
8, 84480, Note_off_c, 6, 72, 64
8, 84576, Note_on_c, 6, 71, 89
8, 84672, Note_off_c, 6, 71, 64
8, 84768, Note_on_c, 6, 69, 84
8, 84864, Note_off_c, 6, 69, 64
8, 84960, Note_on_c, 6, 64, 79
8, 85056, Note_off_c, 6, 64, 64
8, 85152, Note_on_c, 6, 60, 75
8, 85248, Note_off_c, 6, 60, 64
8, 85344, Note_on_c, 6, 59, 70
8, 85440, Note_off_c, 6, 59, 64
8, 85536, Note_on_c, 6, 57, 66
8, 85632, Note_off_c, 6, 57, 64
8, 85728, Note_on_c, 6, 52, 61
8, 85824, Note_off_c, 6, 52, 64
8, 85920, Note_on_c, 6, 48, 57
8, 86016, Note_off_c, 6, 48, 64
8, 86016, Program_c, 6, 46
8, 86112, Note_on_c, 6, 47, 52
8, 86208, Note_off_c, 6, 47, 64
8, 86304, Note_on_c, 6, 45, 50
8, 86400, Note_off_c, 6, 45, 64
8, 86496, Note_on_c, 6, 48, 54
8, 86592, Note_off_c, 6, 48, 64
8, 86688, Note_on_c, 6, 53, 59
8, 86784, Note_off_c, 6, 53, 64
8, 86880, Note_on_c, 6, 55, 63
8, 86976, Note_off_c, 6, 55, 64
8, 87072, Note_on_c, 6, 57, 67
8, 87168, Note_off_c, 6, 57, 64
8, 87264, Note_on_c, 6, 60, 72
8, 87360, Note_off_c, 6, 60, 64
8, 87456, Note_on_c, 6, 65, 76
8, 87552, Note_off_c, 6, 65, 64
8, 87648, Note_on_c, 6, 67, 81
8, 87744, Note_off_c, 6, 67, 64
8, 87840, Note_on_c, 6, 69, 85
8, 87936, Note_off_c, 6, 69, 64
8, 88032, Note_on_c, 6, 72, 90
8, 88128, Note_off_c, 6, 72, 64
8, 88224, Note_on_c, 6, 77, 94
8, 88320, Note_off_c, 6, 77, 64
8, 88416, Note_on_c, 6, 79, 98
8, 88512, Note_off_c, 6, 79, 64
8, 88608, Note_on_c, 6, 81, 103
8, 88704, Note_off_c, 6, 81, 64
8, 88800, Note_on_c, 6, 84, 107
8, 88896, Note_off_c, 6, 84, 64
8, 88992, Note_on_c, 6, 89, 112
8, 89088, Note_off_c, 6, 89, 64
8, 89184, Note_on_c, 6, 91, 116
8, 89280, Note_off_c, 6, 91, 64
8, 89376, Note_on_c, 6, 93, 121
8, 89472, Note_off_c, 6, 93, 64
8, 89568, Note_on_c, 6, 91, 116
8, 89664, Note_off_c, 6, 91, 64
8, 89760, Note_on_c, 6, 89, 112
8, 89856, Note_off_c, 6, 89, 64
8, 89952, Note_on_c, 6, 84, 107
8, 90048, Note_off_c, 6, 84, 64
8, 90144, Note_on_c, 6, 81, 103
8, 90240, Note_off_c, 6, 81, 64
8, 90336, Note_on_c, 6, 79, 98
8, 90432, Note_off_c, 6, 79, 64
8, 90528, Note_on_c, 6, 77, 94
8, 90624, Note_off_c, 6, 77, 64
8, 90720, Note_on_c, 6, 72, 90
8, 90816, Note_off_c, 6, 72, 64
8, 90912, Note_on_c, 6, 69, 85
8, 91008, Note_off_c, 6, 69, 64
8, 91104, Note_on_c, 6, 67, 81
8, 91200, Note_off_c, 6, 67, 64
8, 91296, Note_on_c, 6, 65, 76
8, 91392, Note_off_c, 6, 65, 64
8, 91488, Note_on_c, 6, 60, 72
8, 91584, Note_off_c, 6, 60, 64
8, 91680, Note_on_c, 6, 57, 67
8, 91776, Note_off_c, 6, 57, 64
8, 91872, Note_on_c, 6, 55, 63
8, 91968, Note_off_c, 6, 55, 64
8, 92064, Note_on_c, 6, 53, 59
8, 92160, Note_off_c, 6, 53, 64
8, 92256, Note_on_c, 6, 48, 54
8, 92352, Note_off_c, 6, 48, 64
8, 92448, Note_on_c, 6, 47, 50
8, 92544, Note_off_c, 6, 47, 64
8, 92640, Note_on_c, 6, 50, 54
8, 92736, Note_off_c, 6, 50, 64
8, 92832, Note_on_c, 6, 55, 59
8, 92928, Note_off_c, 6, 55, 64
8, 93024, Note_on_c, 6, 57, 63
8, 93120, Note_off_c, 6, 57, 64
8, 93216, Note_on_c, 6, 59, 67
8, 93312, Note_off_c, 6, 59, 64
8, 93408, Note_on_c, 6, 62, 72
8, 93504, Note_off_c, 6, 62, 64
8, 93600, Note_on_c, 6, 67, 76
8, 93696, Note_off_c, 6, 67, 64
8, 93792, Note_on_c, 6, 69, 81
8, 93888, Note_off_c, 6, 69, 64
8, 93984, Note_on_c, 6, 71, 85
8, 94080, Note_off_c, 6, 71, 64
8, 94176, Note_on_c, 6, 74, 90
8, 94272, Note_off_c, 6, 74, 64
8, 94368, Note_on_c, 6, 79, 94
8, 94464, Note_off_c, 6, 79, 64
8, 94560, Note_on_c, 6, 81, 98
8, 94656, Note_off_c, 6, 81, 64
8, 94752, Note_on_c, 6, 83, 103
8, 94848, Note_off_c, 6, 83, 64
8, 94944, Note_on_c, 6, 86, 107
8, 95040, Note_off_c, 6, 86, 64
8, 95136, Note_on_c, 6, 91, 112
8, 95232, Note_off_c, 6, 91, 64
8, 95328, Note_on_c, 6, 93, 116
8, 95424, Note_off_c, 6, 93, 64
8, 95520, Note_on_c, 6, 95, 121
8, 95616, Note_off_c, 6, 95, 64
8, 95712, Note_on_c, 6, 93, 116
8, 95808, Note_off_c, 6, 93, 64
8, 95904, Note_on_c, 6, 91, 112
8, 96000, Note_off_c, 6, 91, 64
8, 96096, Note_on_c, 6, 86, 107
8, 96192, Note_off_c, 6, 86, 64
8, 96288, Note_on_c, 6, 83, 103
8, 96384, Note_off_c, 6, 83, 64
8, 96480, Note_on_c, 6, 81, 98
8, 96576, Note_off_c, 6, 81, 64
8, 96672, Note_on_c, 6, 79, 94
8, 96768, Note_off_c, 6, 79, 64
8, 96864, Note_on_c, 6, 74, 90
8, 96960, Note_off_c, 6, 74, 64
8, 97056, Note_on_c, 6, 71, 85
8, 97152, Note_off_c, 6, 71, 64
8, 97248, Note_on_c, 6, 69, 81
8, 97344, Note_off_c, 6, 69, 64
8, 97440, Note_on_c, 6, 67, 76
8, 97536, Note_off_c, 6, 67, 64
8, 97632, Note_on_c, 6, 62, 72
8, 97728, Note_off_c, 6, 62, 64
8, 97824, Note_on_c, 6, 59, 67
8, 97920, Note_off_c, 6, 59, 64
8, 98016, Note_on_c, 6, 57, 63
8, 98112, Note_off_c, 6, 57, 64
8, 98208, Note_on_c, 6, 55, 59
8, 98304, Note_off_c, 6, 55, 64
8, 98304, Control_c, 6, 7, 80
8, 98304, Program_c, 6, 46
8, 98400, Note_on_c, 6, 50, 54
8, 98496, Note_off_c, 6, 50, 64
8, 98592, Note_on_c, 6, 48, 51
8, 98688, Note_off_c, 6, 48, 64
8, 98784, Note_on_c, 6, 50, 55
8, 98880, Note_off_c, 6, 50, 64
8, 98976, Note_on_c, 6, 52, 60
8, 99072, Note_off_c, 6, 52, 64
8, 99168, Note_on_c, 6, 55, 64
8, 99264, Note_off_c, 6, 55, 64
8, 99360, Note_on_c, 6, 60, 68
8, 99456, Note_off_c, 6, 60, 64
8, 99552, Note_on_c, 6, 62, 73
8, 99648, Note_off_c, 6, 62, 64
8, 99744, Note_on_c, 6, 64, 77
8, 99840, Note_off_c, 6, 64, 64
8, 99936, Note_on_c, 6, 67, 81
8, 100032, Note_off_c, 6, 67, 64
8, 100128, Note_on_c, 6, 72, 86
8, 100224, Note_off_c, 6, 72, 64
8, 100320, Note_on_c, 6, 74, 90
8, 100416, Note_off_c, 6, 74, 64
8, 100512, Note_on_c, 6, 76, 94
8, 100608, Note_off_c, 6, 76, 64
8, 100704, Note_on_c, 6, 79, 99
8, 100800, Note_off_c, 6, 79, 64
8, 100896, Note_on_c, 6, 84, 103
8, 100992, Note_off_c, 6, 84, 64
8, 101088, Note_on_c, 6, 86, 108
8, 101184, Note_off_c, 6, 86, 64
8, 101280, Note_on_c, 6, 88, 112
8, 101376, Note_off_c, 6, 88, 64
8, 101472, Note_on_c, 6, 91, 116
8, 101568, Note_off_c, 6, 91, 64
8, 101664, Note_on_c, 6, 96, 121
8, 101760, Note_off_c, 6, 96, 64
8, 101856, Note_on_c, 6, 91, 116
8, 101952, Note_off_c, 6, 91, 64
8, 102048, Note_on_c, 6, 88, 111
8, 102144, Note_off_c, 6, 88, 64
8, 102240, Note_on_c, 6, 86, 107
8, 102336, Note_off_c, 6, 86, 64
8, 102432, Note_on_c, 6, 84, 102
8, 102528, Note_off_c, 6, 84, 64
8, 102624, Note_on_c, 6, 79, 97
8, 102720, Note_off_c, 6, 79, 64
8, 102816, Note_on_c, 6, 76, 93
8, 102912, Note_off_c, 6, 76, 64
8, 103008, Note_on_c, 6, 74, 88
8, 103104, Note_off_c, 6, 74, 64
8, 103200, Note_on_c, 6, 72, 83
8, 103296, Note_off_c, 6, 72, 64
8, 103392, Note_on_c, 6, 67, 79
8, 103488, Note_off_c, 6, 67, 64
8, 103584, Note_on_c, 6, 64, 74
8, 103680, Note_off_c, 6, 64, 64
8, 103776, Note_on_c, 6, 62, 70
8, 103872, Note_off_c, 6, 62, 64
8, 103968, Note_on_c, 6, 60, 65
8, 104064, Note_off_c, 6, 60, 64
8, 104160, Note_on_c, 6, 55, 60
8, 104256, Note_off_c, 6, 55, 64
8, 104352, Note_on_c, 6, 52, 56
8, 104448, Note_off_c, 6, 52, 64
8, 104544, Note_on_c, 6, 50, 51
8, 104640, Note_off_c, 6, 50, 64
8, 104736, Note_on_c, 6, 45, 50
8, 104832, Note_off_c, 6, 45, 64
8, 104928, Note_on_c, 6, 47, 54
8, 105024, Note_off_c, 6, 47, 64
8, 105120, Note_on_c, 6, 48, 59
8, 105216, Note_off_c, 6, 48, 64
8, 105312, Note_on_c, 6, 52, 63
8, 105408, Note_off_c, 6, 52, 64
8, 105504, Note_on_c, 6, 57, 67
8, 105600, Note_off_c, 6, 57, 64
8, 105696, Note_on_c, 6, 59, 72
8, 105792, Note_off_c, 6, 59, 64
8, 105888, Note_on_c, 6, 60, 76
8, 105984, Note_off_c, 6, 60, 64
8, 106080, Note_on_c, 6, 64, 81
8, 106176, Note_off_c, 6, 64, 64
8, 106272, Note_on_c, 6, 69, 85
8, 106368, Note_off_c, 6, 69, 64
8, 106464, Note_on_c, 6, 71, 90
8, 106560, Note_off_c, 6, 71, 64
8, 106656, Note_on_c, 6, 72, 94
8, 106752, Note_off_c, 6, 72, 64
8, 106848, Note_on_c, 6, 76, 98
8, 106944, Note_off_c, 6, 76, 64
8, 107040, Note_on_c, 6, 81, 103
8, 107136, Note_off_c, 6, 81, 64
8, 107232, Note_on_c, 6, 83, 107
8, 107328, Note_off_c, 6, 83, 64
8, 107424, Note_on_c, 6, 84, 112
8, 107520, Note_off_c, 6, 84, 64
8, 107616, Note_on_c, 6, 88, 116
8, 107712, Note_off_c, 6, 88, 64
8, 107808, Note_on_c, 6, 93, 121
8, 107904, Note_off_c, 6, 93, 64
8, 108000, Note_on_c, 6, 88, 116
8, 108096, Note_off_c, 6, 88, 64
8, 108192, Note_on_c, 6, 84, 111
8, 108288, Note_off_c, 6, 84, 64
8, 108384, Note_on_c, 6, 83, 107
8, 108480, Note_off_c, 6, 83, 64
8, 108576, Note_on_c, 6, 81, 102
8, 108672, Note_off_c, 6, 81, 64
8, 108768, Note_on_c, 6, 76, 98
8, 108864, Note_off_c, 6, 76, 64
8, 108960, Note_on_c, 6, 72, 93
8, 109056, Note_off_c, 6, 72, 64
8, 109152, Note_on_c, 6, 71, 89
8, 109248, Note_off_c, 6, 71, 64
8, 109344, Note_on_c, 6, 69, 84
8, 109440, Note_off_c, 6, 69, 64
8, 109536, Note_on_c, 6, 64, 79
8, 109632, Note_off_c, 6, 64, 64
8, 109728, Note_on_c, 6, 60, 75
8, 109824, Note_off_c, 6, 60, 64
8, 109920, Note_on_c, 6, 59, 70
8, 110016, Note_off_c, 6, 59, 64
8, 110112, Note_on_c, 6, 57, 66
8, 110208, Note_off_c, 6, 57, 64
8, 110304, Note_on_c, 6, 52, 61
8, 110400, Note_off_c, 6, 52, 64
8, 110496, Note_on_c, 6, 48, 57
8, 110592, Note_off_c, 6, 48, 64
8, 110592, Control_c, 6, 7, 80
8, 110592, Program_c, 6, 46
8, 110688, Note_on_c, 6, 47, 52
8, 110784, Note_off_c, 6, 47, 64
8, 110880, Note_on_c, 6, 48, 51
8, 110976, Note_off_c, 6, 48, 64
8, 111072, Note_on_c, 6, 50, 55
8, 111168, Note_off_c, 6, 50, 64
8, 111264, Note_on_c, 6, 52, 60
8, 111360, Note_off_c, 6, 52, 64
8, 111456, Note_on_c, 6, 55, 64
8, 111552, Note_off_c, 6, 55, 64
8, 111648, Note_on_c, 6, 60, 68
8, 111744, Note_off_c, 6, 60, 64
8, 111840, Note_on_c, 6, 62, 73
8, 111936, Note_off_c, 6, 62, 64
8, 112032, Note_on_c, 6, 64, 77
8, 112128, Note_off_c, 6, 64, 64
8, 112224, Note_on_c, 6, 67, 81
8, 112320, Note_off_c, 6, 67, 64
8, 112416, Note_on_c, 6, 72, 86
8, 112512, Note_off_c, 6, 72, 64
8, 112608, Note_on_c, 6, 74, 90
8, 112704, Note_off_c, 6, 74, 64
8, 112800, Note_on_c, 6, 76, 94
8, 112896, Note_off_c, 6, 76, 64
8, 112992, Note_on_c, 6, 79, 99
8, 113088, Note_off_c, 6, 79, 64
8, 113184, Note_on_c, 6, 84, 103
8, 113280, Note_off_c, 6, 84, 64
8, 113376, Note_on_c, 6, 86, 108
8, 113472, Note_off_c, 6, 86, 64
8, 113568, Note_on_c, 6, 88, 112
8, 113664, Note_off_c, 6, 88, 64
8, 113760, Note_on_c, 6, 91, 116
8, 113856, Note_off_c, 6, 91, 64
8, 113952, Note_on_c, 6, 96, 121
8, 114048, Note_off_c, 6, 96, 64
8, 114144, Note_on_c, 6, 91, 116
8, 114240, Note_off_c, 6, 91, 64
8, 114336, Note_on_c, 6, 88, 111
8, 114432, Note_off_c, 6, 88, 64
8, 114528, Note_on_c, 6, 86, 107
8, 114624, Note_off_c, 6, 86, 64
8, 114720, Note_on_c, 6, 84, 102
8, 114816, Note_off_c, 6, 84, 64
8, 114912, Note_on_c, 6, 79, 97
8, 115008, Note_off_c, 6, 79, 64
8, 115104, Note_on_c, 6, 76, 93
8, 115200, Note_off_c, 6, 76, 64
8, 115296, Note_on_c, 6, 74, 88
8, 115392, Note_off_c, 6, 74, 64
8, 115488, Note_on_c, 6, 72, 83
8, 115584, Note_off_c, 6, 72, 64
8, 115680, Note_on_c, 6, 67, 79
8, 115776, Note_off_c, 6, 67, 64
8, 115872, Note_on_c, 6, 64, 74
8, 115968, Note_off_c, 6, 64, 64
8, 116064, Note_on_c, 6, 62, 70
8, 116160, Note_off_c, 6, 62, 64
8, 116256, Note_on_c, 6, 60, 65
8, 116352, Note_off_c, 6, 60, 64
8, 116448, Note_on_c, 6, 55, 60
8, 116544, Note_off_c, 6, 55, 64
8, 116640, Note_on_c, 6, 52, 56
8, 116736, Note_off_c, 6, 52, 64
8, 116832, Note_on_c, 6, 50, 51
8, 116928, Note_off_c, 6, 50, 64
8, 117024, Note_on_c, 6, 45, 50
8, 117120, Note_off_c, 6, 45, 64
8, 117216, Note_on_c, 6, 47, 54
8, 117312, Note_off_c, 6, 47, 64
8, 117408, Note_on_c, 6, 48, 59
8, 117504, Note_off_c, 6, 48, 64
8, 117600, Note_on_c, 6, 52, 63
8, 117696, Note_off_c, 6, 52, 64
8, 117792, Note_on_c, 6, 57, 67
8, 117888, Note_off_c, 6, 57, 64
8, 117984, Note_on_c, 6, 59, 72
8, 118080, Note_off_c, 6, 59, 64
8, 118176, Note_on_c, 6, 60, 76
8, 118272, Note_off_c, 6, 60, 64
8, 118368, Note_on_c, 6, 64, 81
8, 118464, Note_off_c, 6, 64, 64
8, 118560, Note_on_c, 6, 69, 85
8, 118656, Note_off_c, 6, 69, 64
8, 118752, Note_on_c, 6, 71, 90
8, 118848, Note_off_c, 6, 71, 64
8, 118944, Note_on_c, 6, 72, 94
8, 119040, Note_off_c, 6, 72, 64
8, 119136, Note_on_c, 6, 76, 98
8, 119232, Note_off_c, 6, 76, 64
8, 119328, Note_on_c, 6, 81, 103
8, 119424, Note_off_c, 6, 81, 64
8, 119520, Note_on_c, 6, 83, 107
8, 119616, Note_off_c, 6, 83, 64
8, 119712, Note_on_c, 6, 84, 112
8, 119808, Note_off_c, 6, 84, 64
8, 119904, Note_on_c, 6, 88, 116
8, 120000, Note_off_c, 6, 88, 64
8, 120096, Note_on_c, 6, 93, 121
8, 120192, Note_off_c, 6, 93, 64
8, 120288, Note_on_c, 6, 88, 116
8, 120384, Note_off_c, 6, 88, 64
8, 120480, Note_on_c, 6, 84, 111
8, 120576, Note_off_c, 6, 84, 64
8, 120672, Note_on_c, 6, 83, 107
8, 120768, Note_off_c, 6, 83, 64
8, 120864, Note_on_c, 6, 81, 102
8, 120960, Note_off_c, 6, 81, 64
8, 121056, Note_on_c, 6, 76, 98
8, 121152, Note_off_c, 6, 76, 64
8, 121248, Note_on_c, 6, 72, 93
8, 121344, Note_off_c, 6, 72, 64
8, 121440, Note_on_c, 6, 71, 89
8, 121536, Note_off_c, 6, 71, 64
8, 121632, Note_on_c, 6, 69, 84
8, 121728, Note_off_c, 6, 69, 64
8, 121824, Note_on_c, 6, 64, 79
8, 121920, Note_off_c, 6, 64, 64
8, 122016, Note_on_c, 6, 60, 75
8, 122112, Note_off_c, 6, 60, 64
8, 122208, Note_on_c, 6, 59, 70
8, 122304, Note_off_c, 6, 59, 64
8, 122400, Note_on_c, 6, 57, 66
8, 122496, Note_off_c, 6, 57, 64
8, 122592, Note_on_c, 6, 52, 61
8, 122688, Note_off_c, 6, 52, 64
8, 122784, Note_on_c, 6, 48, 57
8, 122880, Note_off_c, 6, 48, 64
8, 122880, Program_c, 6, 46
8, 122976, Note_on_c, 6, 47, 52
8, 123072, Note_off_c, 6, 47, 64
8, 123168, Note_on_c, 6, 45, 50
8, 123264, Note_off_c, 6, 45, 64
8, 123360, Note_on_c, 6, 48, 54
8, 123456, Note_off_c, 6, 48, 64
8, 123552, Note_on_c, 6, 53, 59
8, 123648, Note_off_c, 6, 53, 64
8, 123744, Note_on_c, 6, 55, 63
8, 123840, Note_off_c, 6, 55, 64
8, 123936, Note_on_c, 6, 57, 67
8, 124032, Note_off_c, 6, 57, 64
8, 124128, Note_on_c, 6, 60, 72
8, 124224, Note_off_c, 6, 60, 64
8, 124320, Note_on_c, 6, 65, 76
8, 124416, Note_off_c, 6, 65, 64
8, 124512, Note_on_c, 6, 67, 81
8, 124608, Note_off_c, 6, 67, 64
8, 124704, Note_on_c, 6, 69, 85
8, 124800, Note_off_c, 6, 69, 64
8, 124896, Note_on_c, 6, 72, 90
8, 124992, Note_off_c, 6, 72, 64
8, 125088, Note_on_c, 6, 77, 94
8, 125184, Note_off_c, 6, 77, 64
8, 125280, Note_on_c, 6, 79, 98
8, 125376, Note_off_c, 6, 79, 64
8, 125472, Note_on_c, 6, 81, 103
8, 125568, Note_off_c, 6, 81, 64
8, 125664, Note_on_c, 6, 84, 107
8, 125760, Note_off_c, 6, 84, 64
8, 125856, Note_on_c, 6, 89, 112
8, 125952, Note_off_c, 6, 89, 64
8, 126048, Note_on_c, 6, 91, 116
8, 126144, Note_off_c, 6, 91, 64
8, 126240, Note_on_c, 6, 93, 121
8, 126336, Note_off_c, 6, 93, 64
8, 126432, Note_on_c, 6, 91, 116
8, 126528, Note_off_c, 6, 91, 64
8, 126624, Note_on_c, 6, 89, 112
8, 126720, Note_off_c, 6, 89, 64
8, 126816, Note_on_c, 6, 84, 107
8, 126912, Note_off_c, 6, 84, 64
8, 127008, Note_on_c, 6, 81, 103
8, 127104, Note_off_c, 6, 81, 64
8, 127200, Note_on_c, 6, 79, 98
8, 127296, Note_off_c, 6, 79, 64
8, 127392, Note_on_c, 6, 77, 94
8, 127488, Note_off_c, 6, 77, 64
8, 127584, Note_on_c, 6, 72, 90
8, 127680, Note_off_c, 6, 72, 64
8, 127776, Note_on_c, 6, 69, 85
8, 127872, Note_off_c, 6, 69, 64
8, 127968, Note_on_c, 6, 67, 81
8, 128064, Note_off_c, 6, 67, 64
8, 128160, Note_on_c, 6, 65, 76
8, 128256, Note_off_c, 6, 65, 64
8, 128352, Note_on_c, 6, 60, 72
8, 128448, Note_off_c, 6, 60, 64
8, 128544, Note_on_c, 6, 57, 67
8, 128640, Note_off_c, 6, 57, 64
8, 128736, Note_on_c, 6, 55, 63
8, 128832, Note_off_c, 6, 55, 64
8, 128928, Note_on_c, 6, 53, 59
8, 129024, Note_off_c, 6, 53, 64
8, 129120, Note_on_c, 6, 48, 54
8, 129216, Note_off_c, 6, 48, 64
8, 129312, Note_on_c, 6, 47, 50
8, 129408, Note_off_c, 6, 47, 64
8, 129504, Note_on_c, 6, 50, 54
8, 129600, Note_off_c, 6, 50, 64
8, 129696, Note_on_c, 6, 55, 59
8, 129792, Note_off_c, 6, 55, 64
8, 129888, Note_on_c, 6, 57, 63
8, 129984, Note_off_c, 6, 57, 64
8, 130080, Note_on_c, 6, 59, 67
8, 130176, Note_off_c, 6, 59, 64
8, 130272, Note_on_c, 6, 62, 72
8, 130368, Note_off_c, 6, 62, 64
8, 130464, Note_on_c, 6, 67, 76
8, 130560, Note_off_c, 6, 67, 64
8, 130656, Note_on_c, 6, 69, 81
8, 130752, Note_off_c, 6, 69, 64
8, 130848, Note_on_c, 6, 71, 85
8, 130944, Note_off_c, 6, 71, 64
8, 131040, Note_on_c, 6, 74, 90
8, 131136, Note_off_c, 6, 74, 64
8, 131232, Note_on_c, 6, 79, 94
8, 131328, Note_off_c, 6, 79, 64
8, 131424, Note_on_c, 6, 81, 98
8, 131520, Note_off_c, 6, 81, 64
8, 131616, Note_on_c, 6, 83, 103
8, 131712, Note_off_c, 6, 83, 64
8, 131808, Note_on_c, 6, 86, 107
8, 131904, Note_off_c, 6, 86, 64
8, 132000, Note_on_c, 6, 91, 112
8, 132096, Note_off_c, 6, 91, 64
8, 132192, Note_on_c, 6, 93, 116
8, 132288, Note_off_c, 6, 93, 64
8, 132384, Note_on_c, 6, 95, 121
8, 132480, Note_off_c, 6, 95, 64
8, 132576, Note_on_c, 6, 93, 116
8, 132672, Note_off_c, 6, 93, 64
8, 132768, Note_on_c, 6, 91, 112
8, 132864, Note_off_c, 6, 91, 64
8, 132960, Note_on_c, 6, 86, 107
8, 133056, Note_off_c, 6, 86, 64
8, 133152, Note_on_c, 6, 83, 103
8, 133248, Note_off_c, 6, 83, 64
8, 133344, Note_on_c, 6, 81, 98
8, 133440, Note_off_c, 6, 81, 64
8, 133536, Note_on_c, 6, 79, 94
8, 133632, Note_off_c, 6, 79, 64
8, 133728, Note_on_c, 6, 74, 90
8, 133824, Note_off_c, 6, 74, 64
8, 133920, Note_on_c, 6, 71, 85
8, 134016, Note_off_c, 6, 71, 64
8, 134112, Note_on_c, 6, 69, 81
8, 134208, Note_off_c, 6, 69, 64
8, 134304, Note_on_c, 6, 67, 76
8, 134400, Note_off_c, 6, 67, 64
8, 134496, Note_on_c, 6, 62, 72
8, 134592, Note_off_c, 6, 62, 64
8, 134688, Note_on_c, 6, 59, 67
8, 134784, Note_off_c, 6, 59, 64
8, 134880, Note_on_c, 6, 57, 63
8, 134976, Note_off_c, 6, 57, 64
8, 135072, Note_on_c, 6, 55, 59
8, 135168, Note_off_c, 6, 55, 64
8, 135168, Program_c, 6, 46
8, 135264, Note_on_c, 6, 50, 54
8, 135360, Note_off_c, 6, 50, 64
8, 135456, Note_on_c, 6, 44, 50
8, 135552, Note_off_c, 6, 44, 64
8, 135648, Note_on_c, 6, 48, 55
8, 135744, Note_off_c, 6, 48, 64
8, 135840, Note_on_c, 6, 51, 59
8, 135936, Note_off_c, 6, 51, 64
8, 136032, Note_on_c, 6, 55, 64
8, 136128, Note_off_c, 6, 55, 64
8, 136224, Note_on_c, 6, 56, 68
8, 136320, Note_off_c, 6, 56, 64
8, 136416, Note_on_c, 6, 60, 73
8, 136512, Note_off_c, 6, 60, 64
8, 136608, Note_on_c, 6, 63, 77
8, 136704, Note_off_c, 6, 63, 64
8, 136800, Note_on_c, 6, 67, 82
8, 136896, Note_off_c, 6, 67, 64
8, 136992, Note_on_c, 6, 68, 86
8, 137088, Note_off_c, 6, 68, 64
8, 137184, Note_on_c, 6, 72, 91
8, 137280, Note_off_c, 6, 72, 64
8, 137376, Note_on_c, 6, 75, 95
8, 137472, Note_off_c, 6, 75, 64
8, 137568, Note_on_c, 6, 79, 100
8, 137664, Note_off_c, 6, 79, 64
8, 137760, Note_on_c, 6, 80, 105
8, 137856, Note_off_c, 6, 80, 64
8, 137952, Note_on_c, 6, 84, 109
8, 138048, Note_off_c, 6, 84, 64
8, 138144, Note_on_c, 6, 87, 114
8, 138240, Note_off_c, 6, 87, 64
8, 138336, Note_on_c, 6, 91, 118
8, 138432, Note_off_c, 6, 91, 64
8, 138528, Note_on_c, 6, 92, 120
8, 138624, Note_off_c, 6, 92, 64
8, 138720, Note_on_c, 6, 91, 115
8, 138816, Note_off_c, 6, 91, 64
8, 138912, Note_on_c, 6, 87, 111
8, 139008, Note_off_c, 6, 87, 64
8, 139104, Note_on_c, 6, 84, 106
8, 139200, Note_off_c, 6, 84, 64
8, 139296, Note_on_c, 6, 80, 102
8, 139392, Note_off_c, 6, 80, 64
8, 139488, Note_on_c, 6, 79, 97
8, 139584, Note_off_c, 6, 79, 64
8, 139680, Note_on_c, 6, 75, 93
8, 139776, Note_off_c, 6, 75, 64
8, 139872, Note_on_c, 6, 72, 88
8, 139968, Note_off_c, 6, 72, 64
8, 140064, Note_on_c, 6, 68, 84
8, 140160, Note_off_c, 6, 68, 64
8, 140256, Note_on_c, 6, 67, 79
8, 140352, Note_off_c, 6, 67, 64
8, 140448, Note_on_c, 6, 63, 74
8, 140544, Note_off_c, 6, 63, 64
8, 140640, Note_on_c, 6, 60, 70
8, 140736, Note_off_c, 6, 60, 64
8, 140832, Note_on_c, 6, 56, 65
8, 140928, Note_off_c, 6, 56, 64
8, 141024, Note_on_c, 6, 55, 61
8, 141120, Note_off_c, 6, 55, 64
8, 141216, Note_on_c, 6, 51, 56
8, 141312, Note_off_c, 6, 51, 64
8, 141408, Note_on_c, 6, 48, 52
8, 141504, Note_off_c, 6, 48, 64
8, 141600, Note_on_c, 6, 46, 50
8, 141696, Note_off_c, 6, 46, 64
8, 141792, Note_on_c, 6, 50, 55
8, 141888, Note_off_c, 6, 50, 64
8, 141984, Note_on_c, 6, 53, 59
8, 142080, Note_off_c, 6, 53, 64
8, 142176, Note_on_c, 6, 57, 64
8, 142272, Note_off_c, 6, 57, 64
8, 142368, Note_on_c, 6, 58, 68
8, 142464, Note_off_c, 6, 58, 64
8, 142560, Note_on_c, 6, 62, 73
8, 142656, Note_off_c, 6, 62, 64
8, 142752, Note_on_c, 6, 65, 77
8, 142848, Note_off_c, 6, 65, 64
8, 142944, Note_on_c, 6, 69, 82
8, 143040, Note_off_c, 6, 69, 64
8, 143136, Note_on_c, 6, 70, 86
8, 143232, Note_off_c, 6, 70, 64
8, 143328, Note_on_c, 6, 74, 91
8, 143424, Note_off_c, 6, 74, 64
8, 143520, Note_on_c, 6, 77, 95
8, 143616, Note_off_c, 6, 77, 64
8, 143712, Note_on_c, 6, 81, 100
8, 143808, Note_off_c, 6, 81, 64
8, 143904, Note_on_c, 6, 82, 105
8, 144000, Note_off_c, 6, 82, 64
8, 144096, Note_on_c, 6, 86, 109
8, 144192, Note_off_c, 6, 86, 64
8, 144288, Note_on_c, 6, 89, 114
8, 144384, Note_off_c, 6, 89, 64
8, 144480, Note_on_c, 6, 93, 118
8, 144576, Note_off_c, 6, 93, 64
8, 144672, Note_on_c, 6, 94, 120
8, 144768, Note_off_c, 6, 94, 64
8, 144864, Note_on_c, 6, 93, 115
8, 144960, Note_off_c, 6, 93, 64
8, 145056, Note_on_c, 6, 89, 111
8, 145152, Note_off_c, 6, 89, 64
8, 145248, Note_on_c, 6, 86, 106
8, 145344, Note_off_c, 6, 86, 64
8, 145440, Note_on_c, 6, 82, 102
8, 145536, Note_off_c, 6, 82, 64
8, 145632, Note_on_c, 6, 81, 97
8, 145728, Note_off_c, 6, 81, 64
8, 145824, Note_on_c, 6, 77, 93
8, 145920, Note_off_c, 6, 77, 64
8, 146016, Note_on_c, 6, 74, 88
8, 146112, Note_off_c, 6, 74, 64
8, 146208, Note_on_c, 6, 70, 84
8, 146304, Note_off_c, 6, 70, 64
8, 146400, Note_on_c, 6, 69, 79
8, 146496, Note_off_c, 6, 69, 64
8, 146592, Note_on_c, 6, 65, 74
8, 146688, Note_off_c, 6, 65, 64
8, 146784, Note_on_c, 6, 62, 70
8, 146880, Note_off_c, 6, 62, 64
8, 146976, Note_on_c, 6, 58, 65
8, 147072, Note_off_c, 6, 58, 64
8, 147168, Note_on_c, 6, 57, 61
8, 147264, Note_off_c, 6, 57, 64
8, 147360, Note_on_c, 6, 53, 56
8, 147456, Note_off_c, 6, 53, 64
8, 147552, Note_on_c, 6, 50, 52
8, 147648, Note_off_c, 6, 50, 64
8, 184320, Control_c, 6, 7, 80
8, 184320, Program_c, 6, 46
8, 184608, Note_on_c, 6, 48, 51
8, 184704, Note_off_c, 6, 48, 64
8, 184800, Note_on_c, 6, 50, 55
8, 184896, Note_off_c, 6, 50, 64
8, 184992, Note_on_c, 6, 52, 60
8, 185088, Note_off_c, 6, 52, 64
8, 185184, Note_on_c, 6, 55, 64
8, 185280, Note_off_c, 6, 55, 64
8, 185376, Note_on_c, 6, 60, 68
8, 185472, Note_off_c, 6, 60, 64
8, 185568, Note_on_c, 6, 62, 73
8, 185664, Note_off_c, 6, 62, 64
8, 185760, Note_on_c, 6, 64, 77
8, 185856, Note_off_c, 6, 64, 64
8, 185952, Note_on_c, 6, 67, 81
8, 186048, Note_off_c, 6, 67, 64
8, 186144, Note_on_c, 6, 72, 86
8, 186240, Note_off_c, 6, 72, 64
8, 186336, Note_on_c, 6, 74, 90
8, 186432, Note_off_c, 6, 74, 64
8, 186528, Note_on_c, 6, 76, 94
8, 186624, Note_off_c, 6, 76, 64
8, 186720, Note_on_c, 6, 79, 99
8, 186816, Note_off_c, 6, 79, 64
8, 186912, Note_on_c, 6, 84, 103
8, 187008, Note_off_c, 6, 84, 64
8, 187104, Note_on_c, 6, 86, 108
8, 187200, Note_off_c, 6, 86, 64
8, 187296, Note_on_c, 6, 88, 112
8, 187392, Note_off_c, 6, 88, 64
8, 187488, Note_on_c, 6, 91, 116
8, 187584, Note_off_c, 6, 91, 64
8, 187680, Note_on_c, 6, 96, 121
8, 187776, Note_off_c, 6, 96, 64
8, 187872, Note_on_c, 6, 91, 116
8, 187968, Note_off_c, 6, 91, 64
8, 188064, Note_on_c, 6, 88, 111
8, 188160, Note_off_c, 6, 88, 64
8, 188256, Note_on_c, 6, 86, 107
8, 188352, Note_off_c, 6, 86, 64
8, 188448, Note_on_c, 6, 84, 102
8, 188544, Note_off_c, 6, 84, 64
8, 188640, Note_on_c, 6, 79, 97
8, 188736, Note_off_c, 6, 79, 64
8, 188832, Note_on_c, 6, 76, 93
8, 188928, Note_off_c, 6, 76, 64
8, 189024, Note_on_c, 6, 74, 88
8, 189120, Note_off_c, 6, 74, 64
8, 189216, Note_on_c, 6, 72, 83
8, 189312, Note_off_c, 6, 72, 64
8, 189408, Note_on_c, 6, 67, 79
8, 189504, Note_off_c, 6, 67, 64
8, 189600, Note_on_c, 6, 64, 74
8, 189696, Note_off_c, 6, 64, 64
8, 189792, Note_on_c, 6, 62, 70
8, 189888, Note_off_c, 6, 62, 64
8, 189984, Note_on_c, 6, 60, 65
8, 190080, Note_off_c, 6, 60, 64
8, 190176, Note_on_c, 6, 55, 60
8, 190272, Note_off_c, 6, 55, 64
8, 190368, Note_on_c, 6, 52, 56
8, 190464, Note_off_c, 6, 52, 64
8, 190560, Note_on_c, 6, 50, 51
8, 190656, Note_off_c, 6, 50, 64
8, 190752, Note_on_c, 6, 45, 50
8, 190848, Note_off_c, 6, 45, 64
8, 190944, Note_on_c, 6, 47, 54
8, 191040, Note_off_c, 6, 47, 64
8, 191136, Note_on_c, 6, 48, 59
8, 191232, Note_off_c, 6, 48, 64
8, 191328, Note_on_c, 6, 52, 63
8, 191424, Note_off_c, 6, 52, 64
8, 191520, Note_on_c, 6, 57, 67
8, 191616, Note_off_c, 6, 57, 64
8, 191712, Note_on_c, 6, 59, 72
8, 191808, Note_off_c, 6, 59, 64
8, 191904, Note_on_c, 6, 60, 76
8, 192000, Note_off_c, 6, 60, 64
8, 192096, Note_on_c, 6, 64, 81
8, 192192, Note_off_c, 6, 64, 64
8, 192288, Note_on_c, 6, 69, 85
8, 192384, Note_off_c, 6, 69, 64
8, 192480, Note_on_c, 6, 71, 90
8, 192576, Note_off_c, 6, 71, 64
8, 192672, Note_on_c, 6, 72, 94
8, 192768, Note_off_c, 6, 72, 64
8, 192864, Note_on_c, 6, 76, 98
8, 192960, Note_off_c, 6, 76, 64
8, 193056, Note_on_c, 6, 81, 103
8, 193152, Note_off_c, 6, 81, 64
8, 193248, Note_on_c, 6, 83, 107
8, 193344, Note_off_c, 6, 83, 64
8, 193440, Note_on_c, 6, 84, 112
8, 193536, Note_off_c, 6, 84, 64
8, 193632, Note_on_c, 6, 88, 116
8, 193728, Note_off_c, 6, 88, 64
8, 193824, Note_on_c, 6, 93, 121
8, 193920, Note_off_c, 6, 93, 64
8, 194016, Note_on_c, 6, 88, 116
8, 194112, Note_off_c, 6, 88, 64
8, 194208, Note_on_c, 6, 84, 111
8, 194304, Note_off_c, 6, 84, 64
8, 194400, Note_on_c, 6, 83, 107
8, 194496, Note_off_c, 6, 83, 64
8, 194592, Note_on_c, 6, 81, 102
8, 194688, Note_off_c, 6, 81, 64
8, 194784, Note_on_c, 6, 76, 98
8, 194880, Note_off_c, 6, 76, 64
8, 194976, Note_on_c, 6, 72, 93
8, 195072, Note_off_c, 6, 72, 64
8, 195168, Note_on_c, 6, 71, 89
8, 195264, Note_off_c, 6, 71, 64
8, 195360, Note_on_c, 6, 69, 84
8, 195456, Note_off_c, 6, 69, 64
8, 195552, Note_on_c, 6, 64, 79
8, 195648, Note_off_c, 6, 64, 64
8, 195744, Note_on_c, 6, 60, 75
8, 195840, Note_off_c, 6, 60, 64
8, 195936, Note_on_c, 6, 59, 70
8, 196032, Note_off_c, 6, 59, 64
8, 196128, Note_on_c, 6, 57, 66
8, 196224, Note_off_c, 6, 57, 64
8, 196320, Note_on_c, 6, 52, 61
8, 196416, Note_off_c, 6, 52, 64
8, 196512, Note_on_c, 6, 48, 57
8, 196608, Note_off_c, 6, 48, 64
8, 196608, Control_c, 6, 7, 80
8, 196608, Program_c, 6, 46
8, 196704, Note_on_c, 6, 47, 52
8, 196800, Note_off_c, 6, 47, 64
8, 196896, Note_on_c, 6, 48, 51
8, 196992, Note_off_c, 6, 48, 64
8, 197088, Note_on_c, 6, 50, 55
8, 197184, Note_off_c, 6, 50, 64
8, 197280, Note_on_c, 6, 52, 60
8, 197376, Note_off_c, 6, 52, 64
8, 197472, Note_on_c, 6, 55, 64
8, 197568, Note_off_c, 6, 55, 64
8, 197664, Note_on_c, 6, 60, 68
8, 197760, Note_off_c, 6, 60, 64
8, 197856, Note_on_c, 6, 62, 73
8, 197952, Note_off_c, 6, 62, 64
8, 198048, Note_on_c, 6, 64, 77
8, 198144, Note_off_c, 6, 64, 64
8, 198240, Note_on_c, 6, 67, 81
8, 198336, Note_off_c, 6, 67, 64
8, 198432, Note_on_c, 6, 72, 86
8, 198528, Note_off_c, 6, 72, 64
8, 198624, Note_on_c, 6, 74, 90
8, 198720, Note_off_c, 6, 74, 64
8, 198816, Note_on_c, 6, 76, 94
8, 198912, Note_off_c, 6, 76, 64
8, 199008, Note_on_c, 6, 79, 99
8, 199104, Note_off_c, 6, 79, 64
8, 199200, Note_on_c, 6, 84, 103
8, 199296, Note_off_c, 6, 84, 64
8, 199392, Note_on_c, 6, 86, 108
8, 199488, Note_off_c, 6, 86, 64
8, 199584, Note_on_c, 6, 88, 112
8, 199680, Note_off_c, 6, 88, 64
8, 199776, Note_on_c, 6, 91, 116
8, 199872, Note_off_c, 6, 91, 64
8, 199968, Note_on_c, 6, 96, 121
8, 200064, Note_off_c, 6, 96, 64
8, 200160, Note_on_c, 6, 91, 116
8, 200256, Note_off_c, 6, 91, 64
8, 200352, Note_on_c, 6, 88, 111
8, 200448, Note_off_c, 6, 88, 64
8, 200544, Note_on_c, 6, 86, 107
8, 200640, Note_off_c, 6, 86, 64
8, 200736, Note_on_c, 6, 84, 102
8, 200832, Note_off_c, 6, 84, 64
8, 200928, Note_on_c, 6, 79, 97
8, 201024, Note_off_c, 6, 79, 64
8, 201120, Note_on_c, 6, 76, 93
8, 201216, Note_off_c, 6, 76, 64
8, 201312, Note_on_c, 6, 74, 88
8, 201408, Note_off_c, 6, 74, 64
8, 201504, Note_on_c, 6, 72, 83
8, 201600, Note_off_c, 6, 72, 64
8, 201696, Note_on_c, 6, 67, 79
8, 201792, Note_off_c, 6, 67, 64
8, 201888, Note_on_c, 6, 64, 74
8, 201984, Note_off_c, 6, 64, 64
8, 202080, Note_on_c, 6, 62, 70
8, 202176, Note_off_c, 6, 62, 64
8, 202272, Note_on_c, 6, 60, 65
8, 202368, Note_off_c, 6, 60, 64
8, 202464, Note_on_c, 6, 55, 60
8, 202560, Note_off_c, 6, 55, 64
8, 202656, Note_on_c, 6, 52, 56
8, 202752, Note_off_c, 6, 52, 64
8, 202848, Note_on_c, 6, 50, 51
8, 202944, Note_off_c, 6, 50, 64
8, 203040, Note_on_c, 6, 45, 50
8, 203136, Note_off_c, 6, 45, 64
8, 203232, Note_on_c, 6, 47, 54
8, 203328, Note_off_c, 6, 47, 64
8, 203424, Note_on_c, 6, 48, 59
8, 203520, Note_off_c, 6, 48, 64
8, 203616, Note_on_c, 6, 52, 63
8, 203712, Note_off_c, 6, 52, 64
8, 203808, Note_on_c, 6, 57, 67
8, 203904, Note_off_c, 6, 57, 64
8, 204000, Note_on_c, 6, 59, 72
8, 204096, Note_off_c, 6, 59, 64
8, 204192, Note_on_c, 6, 60, 76
8, 204288, Note_off_c, 6, 60, 64
8, 204384, Note_on_c, 6, 64, 81
8, 204480, Note_off_c, 6, 64, 64
8, 204576, Note_on_c, 6, 69, 85
8, 204672, Note_off_c, 6, 69, 64
8, 204768, Note_on_c, 6, 71, 90
8, 204864, Note_off_c, 6, 71, 64
8, 204960, Note_on_c, 6, 72, 94
8, 205056, Note_off_c, 6, 72, 64
8, 205152, Note_on_c, 6, 76, 98
8, 205248, Note_off_c, 6, 76, 64
8, 205344, Note_on_c, 6, 81, 103
8, 205440, Note_off_c, 6, 81, 64
8, 205536, Note_on_c, 6, 83, 107
8, 205632, Note_off_c, 6, 83, 64
8, 205728, Note_on_c, 6, 84, 112
8, 205824, Note_off_c, 6, 84, 64
8, 205920, Note_on_c, 6, 88, 116
8, 206016, Note_off_c, 6, 88, 64
8, 206112, Note_on_c, 6, 93, 121
8, 206208, Note_off_c, 6, 93, 64
8, 206304, Note_on_c, 6, 88, 116
8, 206400, Note_off_c, 6, 88, 64
8, 206496, Note_on_c, 6, 84, 111
8, 206592, Note_off_c, 6, 84, 64
8, 206688, Note_on_c, 6, 83, 107
8, 206784, Note_off_c, 6, 83, 64
8, 206880, Note_on_c, 6, 81, 102
8, 206976, Note_off_c, 6, 81, 64
8, 207072, Note_on_c, 6, 76, 98
8, 207168, Note_off_c, 6, 76, 64
8, 207264, Note_on_c, 6, 72, 93
8, 207360, Note_off_c, 6, 72, 64
8, 207456, Note_on_c, 6, 71, 89
8, 207552, Note_off_c, 6, 71, 64
8, 207648, Note_on_c, 6, 69, 84
8, 207744, Note_off_c, 6, 69, 64
8, 207840, Note_on_c, 6, 64, 79
8, 207936, Note_off_c, 6, 64, 64
8, 208032, Note_on_c, 6, 60, 75
8, 208128, Note_off_c, 6, 60, 64
8, 208224, Note_on_c, 6, 59, 70
8, 208320, Note_off_c, 6, 59, 64
8, 208416, Note_on_c, 6, 57, 66
8, 208512, Note_off_c, 6, 57, 64
8, 208608, Note_on_c, 6, 52, 61
8, 208704, Note_off_c, 6, 52, 64
8, 208800, Note_on_c, 6, 48, 57
8, 208896, Note_off_c, 6, 48, 64
8, 208896, Program_c, 6, 46
8, 208992, Note_on_c, 6, 47, 52
8, 209088, Note_off_c, 6, 47, 64
8, 209184, Note_on_c, 6, 45, 50
8, 209280, Note_off_c, 6, 45, 64
8, 209376, Note_on_c, 6, 48, 54
8, 209472, Note_off_c, 6, 48, 64
8, 209568, Note_on_c, 6, 53, 59
8, 209664, Note_off_c, 6, 53, 64
8, 209760, Note_on_c, 6, 55, 63
8, 209856, Note_off_c, 6, 55, 64
8, 209952, Note_on_c, 6, 57, 67
8, 210048, Note_off_c, 6, 57, 64
8, 210144, Note_on_c, 6, 60, 72
8, 210240, Note_off_c, 6, 60, 64
8, 210336, Note_on_c, 6, 65, 76
8, 210432, Note_off_c, 6, 65, 64
8, 210528, Note_on_c, 6, 67, 81
8, 210624, Note_off_c, 6, 67, 64
8, 210720, Note_on_c, 6, 69, 85
8, 210816, Note_off_c, 6, 69, 64
8, 210912, Note_on_c, 6, 72, 90
8, 211008, Note_off_c, 6, 72, 64
8, 211104, Note_on_c, 6, 77, 94
8, 211200, Note_off_c, 6, 77, 64
8, 211296, Note_on_c, 6, 79, 98
8, 211392, Note_off_c, 6, 79, 64
8, 211488, Note_on_c, 6, 81, 103
8, 211584, Note_off_c, 6, 81, 64
8, 211680, Note_on_c, 6, 84, 107
8, 211776, Note_off_c, 6, 84, 64
8, 211872, Note_on_c, 6, 89, 112
8, 211968, Note_off_c, 6, 89, 64
8, 212064, Note_on_c, 6, 91, 116
8, 212160, Note_off_c, 6, 91, 64
8, 212256, Note_on_c, 6, 93, 121
8, 212352, Note_off_c, 6, 93, 64
8, 212448, Note_on_c, 6, 91, 116
8, 212544, Note_off_c, 6, 91, 64
8, 212640, Note_on_c, 6, 89, 112
8, 212736, Note_off_c, 6, 89, 64
8, 212832, Note_on_c, 6, 84, 107
8, 212928, Note_off_c, 6, 84, 64
8, 213024, Note_on_c, 6, 81, 103
8, 213120, Note_off_c, 6, 81, 64
8, 213216, Note_on_c, 6, 79, 98
8, 213312, Note_off_c, 6, 79, 64
8, 213408, Note_on_c, 6, 77, 94
8, 213504, Note_off_c, 6, 77, 64
8, 213600, Note_on_c, 6, 72, 90
8, 213696, Note_off_c, 6, 72, 64
8, 213792, Note_on_c, 6, 69, 85
8, 213888, Note_off_c, 6, 69, 64
8, 213984, Note_on_c, 6, 67, 81
8, 214080, Note_off_c, 6, 67, 64
8, 214176, Note_on_c, 6, 65, 76
8, 214272, Note_off_c, 6, 65, 64
8, 214368, Note_on_c, 6, 60, 72
8, 214464, Note_off_c, 6, 60, 64
8, 214560, Note_on_c, 6, 57, 67
8, 214656, Note_off_c, 6, 57, 64
8, 214752, Note_on_c, 6, 55, 63
8, 214848, Note_off_c, 6, 55, 64
8, 214944, Note_on_c, 6, 53, 59
8, 215040, Note_off_c, 6, 53, 64
8, 215136, Note_on_c, 6, 48, 54
8, 215232, Note_off_c, 6, 48, 64
8, 215328, Note_on_c, 6, 47, 50
8, 215424, Note_off_c, 6, 47, 64
8, 215520, Note_on_c, 6, 50, 54
8, 215616, Note_off_c, 6, 50, 64
8, 215712, Note_on_c, 6, 55, 59
8, 215808, Note_off_c, 6, 55, 64
8, 215904, Note_on_c, 6, 57, 63
8, 216000, Note_off_c, 6, 57, 64
8, 216096, Note_on_c, 6, 59, 67
8, 216192, Note_off_c, 6, 59, 64
8, 216288, Note_on_c, 6, 62, 72
8, 216384, Note_off_c, 6, 62, 64
8, 216480, Note_on_c, 6, 67, 76
8, 216576, Note_off_c, 6, 67, 64
8, 216672, Note_on_c, 6, 69, 81
8, 216768, Note_off_c, 6, 69, 64
8, 216864, Note_on_c, 6, 71, 85
8, 216960, Note_off_c, 6, 71, 64
8, 217056, Note_on_c, 6, 74, 90
8, 217152, Note_off_c, 6, 74, 64
8, 217248, Note_on_c, 6, 79, 94
8, 217344, Note_off_c, 6, 79, 64
8, 217440, Note_on_c, 6, 81, 98
8, 217536, Note_off_c, 6, 81, 64
8, 217632, Note_on_c, 6, 83, 103
8, 217728, Note_off_c, 6, 83, 64
8, 217824, Note_on_c, 6, 86, 107
8, 217920, Note_off_c, 6, 86, 64
8, 218016, Note_on_c, 6, 91, 112
8, 218112, Note_off_c, 6, 91, 64
8, 218208, Note_on_c, 6, 93, 116
8, 218304, Note_off_c, 6, 93, 64
8, 218400, Note_on_c, 6, 95, 121
8, 218496, Note_off_c, 6, 95, 64
8, 218592, Note_on_c, 6, 93, 116
8, 218688, Note_off_c, 6, 93, 64
8, 218784, Note_on_c, 6, 91, 112
8, 218880, Note_off_c, 6, 91, 64
8, 218976, Note_on_c, 6, 86, 107
8, 219072, Note_off_c, 6, 86, 64
8, 219168, Note_on_c, 6, 83, 103
8, 219264, Note_off_c, 6, 83, 64
8, 219360, Note_on_c, 6, 81, 98
8, 219456, Note_off_c, 6, 81, 64
8, 219552, Note_on_c, 6, 79, 94
8, 219648, Note_off_c, 6, 79, 64
8, 219744, Note_on_c, 6, 74, 90
8, 219840, Note_off_c, 6, 74, 64
8, 219936, Note_on_c, 6, 71, 85
8, 220032, Note_off_c, 6, 71, 64
8, 220128, Note_on_c, 6, 69, 81
8, 220224, Note_off_c, 6, 69, 64
8, 220320, Note_on_c, 6, 67, 76
8, 220416, Note_off_c, 6, 67, 64
8, 220512, Note_on_c, 6, 62, 72
8, 220608, Note_off_c, 6, 62, 64
8, 220704, Note_on_c, 6, 59, 67
8, 220800, Note_off_c, 6, 59, 64
8, 220896, Note_on_c, 6, 57, 63
8, 220992, Note_off_c, 6, 57, 64
8, 221088, Note_on_c, 6, 55, 59
8, 221184, Note_off_c, 6, 55, 64
8, 221184, Control_c, 6, 7, 80
8, 221184, Program_c, 6, 46
8, 221280, Note_on_c, 6, 50, 54
8, 221376, Note_off_c, 6, 50, 64
8, 221472, Note_on_c, 6, 48, 51
8, 221568, Note_off_c, 6, 48, 64
8, 221664, Note_on_c, 6, 50, 55
8, 221760, Note_off_c, 6, 50, 64
8, 221856, Note_on_c, 6, 52, 60
8, 221952, Note_off_c, 6, 52, 64
8, 222048, Note_on_c, 6, 55, 64
8, 222144, Note_off_c, 6, 55, 64
8, 222240, Note_on_c, 6, 60, 68
8, 222336, Note_off_c, 6, 60, 64
8, 222432, Note_on_c, 6, 62, 73
8, 222528, Note_off_c, 6, 62, 64
8, 222624, Note_on_c, 6, 64, 77
8, 222720, Note_off_c, 6, 64, 64
8, 222816, Note_on_c, 6, 67, 81
8, 222912, Note_off_c, 6, 67, 64
8, 223008, Note_on_c, 6, 72, 86
8, 223104, Note_off_c, 6, 72, 64
8, 223200, Note_on_c, 6, 74, 90
8, 223296, Note_off_c, 6, 74, 64
8, 223392, Note_on_c, 6, 76, 94
8, 223488, Note_off_c, 6, 76, 64
8, 223584, Note_on_c, 6, 79, 99
8, 223680, Note_off_c, 6, 79, 64
8, 223776, Note_on_c, 6, 84, 103
8, 223872, Note_off_c, 6, 84, 64
8, 223968, Note_on_c, 6, 86, 108
8, 224064, Note_off_c, 6, 86, 64
8, 224160, Note_on_c, 6, 88, 112
8, 224256, Note_off_c, 6, 88, 64
8, 224352, Note_on_c, 6, 91, 116
8, 224448, Note_off_c, 6, 91, 64
8, 224544, Note_on_c, 6, 96, 121
8, 224640, Note_off_c, 6, 96, 64
8, 224736, Note_on_c, 6, 91, 116
8, 224832, Note_off_c, 6, 91, 64
8, 224928, Note_on_c, 6, 88, 111
8, 225024, Note_off_c, 6, 88, 64
8, 225120, Note_on_c, 6, 86, 107
8, 225216, Note_off_c, 6, 86, 64
8, 225312, Note_on_c, 6, 84, 102
8, 225408, Note_off_c, 6, 84, 64
8, 225504, Note_on_c, 6, 79, 97
8, 225600, Note_off_c, 6, 79, 64
8, 225696, Note_on_c, 6, 76, 93
8, 225792, Note_off_c, 6, 76, 64
8, 225888, Note_on_c, 6, 74, 88
8, 225984, Note_off_c, 6, 74, 64
8, 226080, Note_on_c, 6, 72, 83
8, 226176, Note_off_c, 6, 72, 64
8, 226272, Note_on_c, 6, 67, 79
8, 226368, Note_off_c, 6, 67, 64
8, 226464, Note_on_c, 6, 64, 74
8, 226560, Note_off_c, 6, 64, 64
8, 226656, Note_on_c, 6, 62, 70
8, 226752, Note_off_c, 6, 62, 64
8, 226848, Note_on_c, 6, 60, 65
8, 226944, Note_off_c, 6, 60, 64
8, 227040, Note_on_c, 6, 55, 60
8, 227136, Note_off_c, 6, 55, 64
8, 227232, Note_on_c, 6, 52, 56
8, 227328, Note_off_c, 6, 52, 64
8, 227424, Note_on_c, 6, 50, 51
8, 227520, Note_off_c, 6, 50, 64
8, 227616, Note_on_c, 6, 45, 50
8, 227712, Note_off_c, 6, 45, 64
8, 227808, Note_on_c, 6, 47, 54
8, 227904, Note_off_c, 6, 47, 64
8, 228000, Note_on_c, 6, 48, 59
8, 228096, Note_off_c, 6, 48, 64
8, 228192, Note_on_c, 6, 52, 63
8, 228288, Note_off_c, 6, 52, 64
8, 228384, Note_on_c, 6, 57, 67
8, 228480, Note_off_c, 6, 57, 64
8, 228576, Note_on_c, 6, 59, 72
8, 228672, Note_off_c, 6, 59, 64
8, 228768, Note_on_c, 6, 60, 76
8, 228864, Note_off_c, 6, 60, 64
8, 228960, Note_on_c, 6, 64, 81
8, 229056, Note_off_c, 6, 64, 64
8, 229152, Note_on_c, 6, 69, 85
8, 229248, Note_off_c, 6, 69, 64
8, 229344, Note_on_c, 6, 71, 90
8, 229440, Note_off_c, 6, 71, 64
8, 229536, Note_on_c, 6, 72, 94
8, 229632, Note_off_c, 6, 72, 64
8, 229728, Note_on_c, 6, 76, 98
8, 229824, Note_off_c, 6, 76, 64
8, 229920, Note_on_c, 6, 81, 103
8, 230016, Note_off_c, 6, 81, 64
8, 230112, Note_on_c, 6, 83, 107
8, 230208, Note_off_c, 6, 83, 64
8, 230304, Note_on_c, 6, 84, 112
8, 230400, Note_off_c, 6, 84, 64
8, 230496, Note_on_c, 6, 88, 116
8, 230592, Note_off_c, 6, 88, 64
8, 230688, Note_on_c, 6, 93, 121
8, 230784, Note_off_c, 6, 93, 64
8, 230880, Note_on_c, 6, 88, 116
8, 230976, Note_off_c, 6, 88, 64
8, 231072, Note_on_c, 6, 84, 111
8, 231168, Note_off_c, 6, 84, 64
8, 231264, Note_on_c, 6, 83, 107
8, 231360, Note_off_c, 6, 83, 64
8, 231456, Note_on_c, 6, 81, 102
8, 231552, Note_off_c, 6, 81, 64
8, 231648, Note_on_c, 6, 76, 98
8, 231744, Note_off_c, 6, 76, 64
8, 231840, Note_on_c, 6, 72, 93
8, 231936, Note_off_c, 6, 72, 64
8, 232032, Note_on_c, 6, 71, 89
8, 232128, Note_off_c, 6, 71, 64
8, 232224, Note_on_c, 6, 69, 84
8, 232320, Note_off_c, 6, 69, 64
8, 232416, Note_on_c, 6, 64, 79
8, 232512, Note_off_c, 6, 64, 64
8, 232608, Note_on_c, 6, 60, 75
8, 232704, Note_off_c, 6, 60, 64
8, 232800, Note_on_c, 6, 59, 70
8, 232896, Note_off_c, 6, 59, 64
8, 232992, Note_on_c, 6, 57, 66
8, 233088, Note_off_c, 6, 57, 64
8, 233184, Note_on_c, 6, 52, 61
8, 233280, Note_off_c, 6, 52, 64
8, 233376, Note_on_c, 6, 48, 57
8, 233472, Note_off_c, 6, 48, 64
8, 233472, Control_c, 6, 7, 80
8, 233472, Program_c, 6, 46
8, 233568, Note_on_c, 6, 47, 52
8, 233664, Note_off_c, 6, 47, 64
8, 233760, Note_on_c, 6, 48, 51
8, 233856, Note_off_c, 6, 48, 64
8, 233952, Note_on_c, 6, 50, 55
8, 234048, Note_off_c, 6, 50, 64
8, 234144, Note_on_c, 6, 52, 60
8, 234240, Note_off_c, 6, 52, 64
8, 234336, Note_on_c, 6, 55, 64
8, 234432, Note_off_c, 6, 55, 64
8, 234528, Note_on_c, 6, 60, 68
8, 234624, Note_off_c, 6, 60, 64
8, 234720, Note_on_c, 6, 62, 73
8, 234816, Note_off_c, 6, 62, 64
8, 234912, Note_on_c, 6, 64, 77
8, 235008, Note_off_c, 6, 64, 64
8, 235104, Note_on_c, 6, 67, 81
8, 235200, Note_off_c, 6, 67, 64
8, 235296, Note_on_c, 6, 72, 86
8, 235392, Note_off_c, 6, 72, 64
8, 235488, Note_on_c, 6, 74, 90
8, 235584, Note_off_c, 6, 74, 64
8, 235680, Note_on_c, 6, 76, 94
8, 235776, Note_off_c, 6, 76, 64
8, 235872, Note_on_c, 6, 79, 99
8, 235968, Note_off_c, 6, 79, 64
8, 236064, Note_on_c, 6, 84, 103
8, 236160, Note_off_c, 6, 84, 64
8, 236256, Note_on_c, 6, 86, 108
8, 236352, Note_off_c, 6, 86, 64
8, 236448, Note_on_c, 6, 88, 112
8, 236544, Note_off_c, 6, 88, 64
8, 236640, Note_on_c, 6, 91, 116
8, 236736, Note_off_c, 6, 91, 64
8, 236832, Note_on_c, 6, 96, 121
8, 236928, Note_off_c, 6, 96, 64
8, 237024, Note_on_c, 6, 91, 116
8, 237120, Note_off_c, 6, 91, 64
8, 237216, Note_on_c, 6, 88, 111
8, 237312, Note_off_c, 6, 88, 64
8, 237408, Note_on_c, 6, 86, 107
8, 237504, Note_off_c, 6, 86, 64
8, 237600, Note_on_c, 6, 84, 102
8, 237696, Note_off_c, 6, 84, 64
8, 237792, Note_on_c, 6, 79, 97
8, 237888, Note_off_c, 6, 79, 64
8, 237984, Note_on_c, 6, 76, 93
8, 238080, Note_off_c, 6, 76, 64
8, 238176, Note_on_c, 6, 74, 88
8, 238272, Note_off_c, 6, 74, 64
8, 238368, Note_on_c, 6, 72, 83
8, 238464, Note_off_c, 6, 72, 64
8, 238560, Note_on_c, 6, 67, 79
8, 238656, Note_off_c, 6, 67, 64
8, 238752, Note_on_c, 6, 64, 74
8, 238848, Note_off_c, 6, 64, 64
8, 238944, Note_on_c, 6, 62, 70
8, 239040, Note_off_c, 6, 62, 64
8, 239136, Note_on_c, 6, 60, 65
8, 239232, Note_off_c, 6, 60, 64
8, 239328, Note_on_c, 6, 55, 60
8, 239424, Note_off_c, 6, 55, 64
8, 239520, Note_on_c, 6, 52, 56
8, 239616, Note_off_c, 6, 52, 64
8, 239712, Note_on_c, 6, 50, 51
8, 239808, Note_off_c, 6, 50, 64
8, 239904, Note_on_c, 6, 45, 50
8, 240000, Note_off_c, 6, 45, 64
8, 240096, Note_on_c, 6, 47, 54
8, 240192, Note_off_c, 6, 47, 64
8, 240288, Note_on_c, 6, 48, 59
8, 240384, Note_off_c, 6, 48, 64
8, 240480, Note_on_c, 6, 52, 63
8, 240576, Note_off_c, 6, 52, 64
8, 240672, Note_on_c, 6, 57, 67
8, 240768, Note_off_c, 6, 57, 64
8, 240864, Note_on_c, 6, 59, 72
8, 240960, Note_off_c, 6, 59, 64
8, 241056, Note_on_c, 6, 60, 76
8, 241152, Note_off_c, 6, 60, 64
8, 241248, Note_on_c, 6, 64, 81
8, 241344, Note_off_c, 6, 64, 64
8, 241440, Note_on_c, 6, 69, 85
8, 241536, Note_off_c, 6, 69, 64
8, 241632, Note_on_c, 6, 71, 90
8, 241728, Note_off_c, 6, 71, 64
8, 241824, Note_on_c, 6, 72, 94
8, 241920, Note_off_c, 6, 72, 64
8, 242016, Note_on_c, 6, 76, 98
8, 242112, Note_off_c, 6, 76, 64
8, 242208, Note_on_c, 6, 81, 103
8, 242304, Note_off_c, 6, 81, 64
8, 242400, Note_on_c, 6, 83, 107
8, 242496, Note_off_c, 6, 83, 64
8, 242592, Note_on_c, 6, 84, 112
8, 242688, Note_off_c, 6, 84, 64
8, 242784, Note_on_c, 6, 88, 116
8, 242880, Note_off_c, 6, 88, 64
8, 242976, Note_on_c, 6, 93, 121
8, 243072, Note_off_c, 6, 93, 64
8, 243168, Note_on_c, 6, 88, 116
8, 243264, Note_off_c, 6, 88, 64
8, 243360, Note_on_c, 6, 84, 111
8, 243456, Note_off_c, 6, 84, 64
8, 243552, Note_on_c, 6, 83, 107
8, 243648, Note_off_c, 6, 83, 64
8, 243744, Note_on_c, 6, 81, 102
8, 243840, Note_off_c, 6, 81, 64
8, 243936, Note_on_c, 6, 76, 98
8, 244032, Note_off_c, 6, 76, 64
8, 244128, Note_on_c, 6, 72, 93
8, 244224, Note_off_c, 6, 72, 64
8, 244320, Note_on_c, 6, 71, 89
8, 244416, Note_off_c, 6, 71, 64
8, 244512, Note_on_c, 6, 69, 84
8, 244608, Note_off_c, 6, 69, 64
8, 244704, Note_on_c, 6, 64, 79
8, 244800, Note_off_c, 6, 64, 64
8, 244896, Note_on_c, 6, 60, 75
8, 244992, Note_off_c, 6, 60, 64
8, 245088, Note_on_c, 6, 59, 70
8, 245184, Note_off_c, 6, 59, 64
8, 245280, Note_on_c, 6, 57, 66
8, 245376, Note_off_c, 6, 57, 64
8, 245472, Note_on_c, 6, 52, 61
8, 245568, Note_off_c, 6, 52, 64
8, 245664, Note_on_c, 6, 48, 57
8, 245760, Note_off_c, 6, 48, 64
8, 245760, Program_c, 6, 46
8, 245856, Note_on_c, 6, 47, 52
8, 245952, Note_off_c, 6, 47, 64
8, 246048, Note_on_c, 6, 45, 50
8, 246144, Note_off_c, 6, 45, 64
8, 246240, Note_on_c, 6, 48, 54
8, 246336, Note_off_c, 6, 48, 64
8, 246432, Note_on_c, 6, 53, 59
8, 246528, Note_off_c, 6, 53, 64
8, 246624, Note_on_c, 6, 55, 63
8, 246720, Note_off_c, 6, 55, 64
8, 246816, Note_on_c, 6, 57, 67
8, 246912, Note_off_c, 6, 57, 64
8, 247008, Note_on_c, 6, 60, 72
8, 247104, Note_off_c, 6, 60, 64
8, 247200, Note_on_c, 6, 65, 76
8, 247296, Note_off_c, 6, 65, 64
8, 247392, Note_on_c, 6, 67, 81
8, 247488, Note_off_c, 6, 67, 64
8, 247584, Note_on_c, 6, 69, 85
8, 247680, Note_off_c, 6, 69, 64
8, 247776, Note_on_c, 6, 72, 90
8, 247872, Note_off_c, 6, 72, 64
8, 247968, Note_on_c, 6, 77, 94
8, 248064, Note_off_c, 6, 77, 64
8, 248160, Note_on_c, 6, 79, 98
8, 248256, Note_off_c, 6, 79, 64
8, 248352, Note_on_c, 6, 81, 103
8, 248448, Note_off_c, 6, 81, 64
8, 248544, Note_on_c, 6, 84, 107
8, 248640, Note_off_c, 6, 84, 64
8, 248736, Note_on_c, 6, 89, 112
8, 248832, Note_off_c, 6, 89, 64
8, 248928, Note_on_c, 6, 91, 116
8, 249024, Note_off_c, 6, 91, 64
8, 249120, Note_on_c, 6, 93, 121
8, 249216, Note_off_c, 6, 93, 64
8, 249312, Note_on_c, 6, 91, 116
8, 249408, Note_off_c, 6, 91, 64
8, 249504, Note_on_c, 6, 89, 112
8, 249600, Note_off_c, 6, 89, 64
8, 249696, Note_on_c, 6, 84, 107
8, 249792, Note_off_c, 6, 84, 64
8, 249888, Note_on_c, 6, 81, 103
8, 249984, Note_off_c, 6, 81, 64
8, 250080, Note_on_c, 6, 79, 98
8, 250176, Note_off_c, 6, 79, 64
8, 250272, Note_on_c, 6, 77, 94
8, 250368, Note_off_c, 6, 77, 64
8, 250464, Note_on_c, 6, 72, 90
8, 250560, Note_off_c, 6, 72, 64
8, 250656, Note_on_c, 6, 69, 85
8, 250752, Note_off_c, 6, 69, 64
8, 250848, Note_on_c, 6, 67, 81
8, 250944, Note_off_c, 6, 67, 64
8, 251040, Note_on_c, 6, 65, 76
8, 251136, Note_off_c, 6, 65, 64
8, 251232, Note_on_c, 6, 60, 72
8, 251328, Note_off_c, 6, 60, 64
8, 251424, Note_on_c, 6, 57, 67
8, 251520, Note_off_c, 6, 57, 64
8, 251616, Note_on_c, 6, 55, 63
8, 251712, Note_off_c, 6, 55, 64
8, 251808, Note_on_c, 6, 53, 59
8, 251904, Note_off_c, 6, 53, 64
8, 252000, Note_on_c, 6, 48, 54
8, 252096, Note_off_c, 6, 48, 64
8, 252192, Note_on_c, 6, 47, 50
8, 252288, Note_off_c, 6, 47, 64
8, 252384, Note_on_c, 6, 50, 54
8, 252480, Note_off_c, 6, 50, 64
8, 252576, Note_on_c, 6, 55, 59
8, 252672, Note_off_c, 6, 55, 64
8, 252768, Note_on_c, 6, 57, 63
8, 252864, Note_off_c, 6, 57, 64
8, 252960, Note_on_c, 6, 59, 67
8, 253056, Note_off_c, 6, 59, 64
8, 253152, Note_on_c, 6, 62, 72
8, 253248, Note_off_c, 6, 62, 64
8, 253344, Note_on_c, 6, 67, 76
8, 253440, Note_off_c, 6, 67, 64
8, 253536, Note_on_c, 6, 69, 81
8, 253632, Note_off_c, 6, 69, 64
8, 253728, Note_on_c, 6, 71, 85
8, 253824, Note_off_c, 6, 71, 64
8, 253920, Note_on_c, 6, 74, 90
8, 254016, Note_off_c, 6, 74, 64
8, 254112, Note_on_c, 6, 79, 94
8, 254208, Note_off_c, 6, 79, 64
8, 254304, Note_on_c, 6, 81, 98
8, 254400, Note_off_c, 6, 81, 64
8, 254496, Note_on_c, 6, 83, 103
8, 254592, Note_off_c, 6, 83, 64
8, 254688, Note_on_c, 6, 86, 107
8, 254784, Note_off_c, 6, 86, 64
8, 254880, Note_on_c, 6, 91, 112
8, 254976, Note_off_c, 6, 91, 64
8, 255072, Note_on_c, 6, 93, 116
8, 255168, Note_off_c, 6, 93, 64
8, 255264, Note_on_c, 6, 95, 121
8, 255360, Note_off_c, 6, 95, 64
8, 255456, Note_on_c, 6, 93, 116
8, 255552, Note_off_c, 6, 93, 64
8, 255648, Note_on_c, 6, 91, 112
8, 255744, Note_off_c, 6, 91, 64
8, 255840, Note_on_c, 6, 86, 107
8, 255936, Note_off_c, 6, 86, 64
8, 256032, Note_on_c, 6, 83, 103
8, 256128, Note_off_c, 6, 83, 64
8, 256224, Note_on_c, 6, 81, 98
8, 256320, Note_off_c, 6, 81, 64
8, 256416, Note_on_c, 6, 79, 94
8, 256512, Note_off_c, 6, 79, 64
8, 256608, Note_on_c, 6, 74, 90
8, 256704, Note_off_c, 6, 74, 64
8, 256800, Note_on_c, 6, 71, 85
8, 256896, Note_off_c, 6, 71, 64
8, 256992, Note_on_c, 6, 69, 81
8, 257088, Note_off_c, 6, 69, 64
8, 257184, Note_on_c, 6, 67, 76
8, 257280, Note_off_c, 6, 67, 64
8, 257376, Note_on_c, 6, 62, 72
8, 257472, Note_off_c, 6, 62, 64
8, 257568, Note_on_c, 6, 59, 67
8, 257664, Note_off_c, 6, 59, 64
8, 257760, Note_on_c, 6, 57, 63
8, 257856, Note_off_c, 6, 57, 64
8, 257952, Note_on_c, 6, 55, 59
8, 258048, Note_off_c, 6, 55, 64
8, 258048, Program_c, 6, 46
8, 258144, Note_on_c, 6, 50, 54
8, 258240, Note_off_c, 6, 50, 64
8, 258336, Note_on_c, 6, 44, 50
8, 258432, Note_off_c, 6, 44, 64
8, 258528, Note_on_c, 6, 48, 55
8, 258624, Note_off_c, 6, 48, 64
8, 258720, Note_on_c, 6, 51, 59
8, 258816, Note_off_c, 6, 51, 64
8, 258912, Note_on_c, 6, 55, 64
8, 259008, Note_off_c, 6, 55, 64
8, 259104, Note_on_c, 6, 56, 68
8, 259200, Note_off_c, 6, 56, 64
8, 259296, Note_on_c, 6, 60, 73
8, 259392, Note_off_c, 6, 60, 64
8, 259488, Note_on_c, 6, 63, 77
8, 259584, Note_off_c, 6, 63, 64
8, 259680, Note_on_c, 6, 67, 82
8, 259776, Note_off_c, 6, 67, 64
8, 259872, Note_on_c, 6, 68, 86
8, 259968, Note_off_c, 6, 68, 64
8, 260064, Note_on_c, 6, 72, 91
8, 260160, Note_off_c, 6, 72, 64
8, 260256, Note_on_c, 6, 75, 95
8, 260352, Note_off_c, 6, 75, 64
8, 260448, Note_on_c, 6, 79, 100
8, 260544, Note_off_c, 6, 79, 64
8, 260640, Note_on_c, 6, 80, 105
8, 260736, Note_off_c, 6, 80, 64
8, 260832, Note_on_c, 6, 84, 109
8, 260928, Note_off_c, 6, 84, 64
8, 261024, Note_on_c, 6, 87, 114
8, 261120, Note_off_c, 6, 87, 64
8, 261216, Note_on_c, 6, 91, 118
8, 261312, Note_off_c, 6, 91, 64
8, 261408, Note_on_c, 6, 92, 120
8, 261504, Note_off_c, 6, 92, 64
8, 261600, Note_on_c, 6, 91, 115
8, 261696, Note_off_c, 6, 91, 64
8, 261792, Note_on_c, 6, 87, 111
8, 261888, Note_off_c, 6, 87, 64
8, 261984, Note_on_c, 6, 84, 106
8, 262080, Note_off_c, 6, 84, 64
8, 262176, Note_on_c, 6, 80, 102
8, 262272, Note_off_c, 6, 80, 64
8, 262368, Note_on_c, 6, 79, 97
8, 262464, Note_off_c, 6, 79, 64
8, 262560, Note_on_c, 6, 75, 93
8, 262656, Note_off_c, 6, 75, 64
8, 262752, Note_on_c, 6, 72, 88
8, 262848, Note_off_c, 6, 72, 64
8, 262944, Note_on_c, 6, 68, 84
8, 263040, Note_off_c, 6, 68, 64
8, 263136, Note_on_c, 6, 67, 79
8, 263232, Note_off_c, 6, 67, 64
8, 263328, Note_on_c, 6, 63, 74
8, 263424, Note_off_c, 6, 63, 64
8, 263520, Note_on_c, 6, 60, 70
8, 263616, Note_off_c, 6, 60, 64
8, 263712, Note_on_c, 6, 56, 65
8, 263808, Note_off_c, 6, 56, 64
8, 263904, Note_on_c, 6, 55, 61
8, 264000, Note_off_c, 6, 55, 64
8, 264096, Note_on_c, 6, 51, 56
8, 264192, Note_off_c, 6, 51, 64
8, 264288, Note_on_c, 6, 48, 52
8, 264384, Note_off_c, 6, 48, 64
8, 264480, Note_on_c, 6, 46, 50
8, 264576, Note_off_c, 6, 46, 64
8, 264672, Note_on_c, 6, 50, 55
8, 264768, Note_off_c, 6, 50, 64
8, 264864, Note_on_c, 6, 53, 59
8, 264960, Note_off_c, 6, 53, 64
8, 265056, Note_on_c, 6, 57, 64
8, 265152, Note_off_c, 6, 57, 64
8, 265248, Note_on_c, 6, 58, 68
8, 265344, Note_off_c, 6, 58, 64
8, 265440, Note_on_c, 6, 62, 73
8, 265536, Note_off_c, 6, 62, 64
8, 265632, Note_on_c, 6, 65, 77
8, 265728, Note_off_c, 6, 65, 64
8, 265824, Note_on_c, 6, 69, 82
8, 265920, Note_off_c, 6, 69, 64
8, 266016, Note_on_c, 6, 70, 86
8, 266112, Note_off_c, 6, 70, 64
8, 266208, Note_on_c, 6, 74, 91
8, 266304, Note_off_c, 6, 74, 64
8, 266400, Note_on_c, 6, 77, 95
8, 266496, Note_off_c, 6, 77, 64
8, 266592, Note_on_c, 6, 81, 100
8, 266688, Note_off_c, 6, 81, 64
8, 266784, Note_on_c, 6, 82, 105
8, 266880, Note_off_c, 6, 82, 64
8, 266976, Note_on_c, 6, 86, 109
8, 267072, Note_off_c, 6, 86, 64
8, 267168, Note_on_c, 6, 89, 114
8, 267264, Note_off_c, 6, 89, 64
8, 267360, Note_on_c, 6, 93, 118
8, 267456, Note_off_c, 6, 93, 64
8, 267552, Note_on_c, 6, 94, 120
8, 267648, Note_off_c, 6, 94, 64
8, 267744, Note_on_c, 6, 93, 115
8, 267840, Note_off_c, 6, 93, 64
8, 267936, Note_on_c, 6, 89, 111
8, 268032, Note_off_c, 6, 89, 64
8, 268128, Note_on_c, 6, 86, 106
8, 268224, Note_off_c, 6, 86, 64
8, 268320, Note_on_c, 6, 82, 102
8, 268416, Note_off_c, 6, 82, 64
8, 268512, Note_on_c, 6, 81, 97
8, 268608, Note_off_c, 6, 81, 64
8, 268704, Note_on_c, 6, 77, 93
8, 268800, Note_off_c, 6, 77, 64
8, 268896, Note_on_c, 6, 74, 88
8, 268992, Note_off_c, 6, 74, 64
8, 269088, Note_on_c, 6, 70, 84
8, 269184, Note_off_c, 6, 70, 64
8, 269280, Note_on_c, 6, 69, 79
8, 269376, Note_off_c, 6, 69, 64
8, 269472, Note_on_c, 6, 65, 74
8, 269568, Note_off_c, 6, 65, 64
8, 269664, Note_on_c, 6, 62, 70
8, 269760, Note_off_c, 6, 62, 64
8, 269856, Note_on_c, 6, 58, 65
8, 269952, Note_off_c, 6, 58, 64
8, 270048, Note_on_c, 6, 57, 61
8, 270144, Note_off_c, 6, 57, 64
8, 270240, Note_on_c, 6, 53, 56
8, 270336, Note_off_c, 6, 53, 64
8, 270432, Note_on_c, 6, 50, 52
8, 270528, Note_off_c, 6, 50, 64
8, 270561, End_track
9, 0, Start_track
9, 0, Title_t, "www."
9, 0, Program_c, 7, 80
9, 0, Control_c, 7, 10, 89
9, 0, Control_c, 7, 91, 11
9, 147456, Control_c, 7, 7, 95
9, 147456, Program_c, 7, 80
9, 147456, Note_on_c, 7, 64, 95
9, 147552, Note_off_c, 7, 64, 64
9, 147840, Note_on_c, 7, 64, 95
9, 147936, Note_off_c, 7, 64, 64
9, 148224, Note_on_c, 7, 64, 96
9, 148320, Note_off_c, 7, 64, 64
9, 148608, Note_on_c, 7, 64, 96
9, 148704, Note_off_c, 7, 64, 64
9, 148992, Note_on_c, 7, 64, 96
9, 149088, Note_off_c, 7, 64, 64
9, 149376, Note_on_c, 7, 64, 96
9, 149472, Note_off_c, 7, 64, 64
9, 149760, Note_on_c, 7, 64, 96
9, 149856, Note_off_c, 7, 64, 64
9, 150144, Note_on_c, 7, 64, 97
9, 150240, Note_off_c, 7, 64, 64
9, 150528, Note_on_c, 7, 64, 97
9, 150624, Note_off_c, 7, 64, 64
9, 150912, Note_on_c, 7, 64, 97
9, 151008, Note_off_c, 7, 64, 64
9, 151296, Note_on_c, 7, 64, 97
9, 151392, Note_off_c, 7, 64, 64
9, 151680, Note_on_c, 7, 64, 97
9, 151776, Note_off_c, 7, 64, 64
9, 152064, Note_on_c, 7, 64, 97
9, 152160, Note_off_c, 7, 64, 64
9, 152448, Note_on_c, 7, 64, 97
9, 152544, Note_off_c, 7, 64, 64
9, 152832, Note_on_c, 7, 64, 97
9, 152928, Note_off_c, 7, 64, 64
9, 153216, Note_on_c, 7, 64, 97
9, 153312, Note_off_c, 7, 64, 64
9, 153600, Control_c, 7, 7, 95
9, 153600, Program_c, 7, 80
9, 153600, Note_on_c, 7, 64, 95
9, 153696, Note_off_c, 7, 64, 64
9, 153984, Note_on_c, 7, 64, 95
9, 154080, Note_off_c, 7, 64, 64
9, 154368, Note_on_c, 7, 64, 96
9, 154464, Note_off_c, 7, 64, 64
9, 154752, Note_on_c, 7, 64, 96
9, 154848, Note_off_c, 7, 64, 64
9, 155136, Note_on_c, 7, 64, 96
9, 155232, Note_off_c, 7, 64, 64
9, 155520, Note_on_c, 7, 64, 96
9, 155616, Note_off_c, 7, 64, 64
9, 155904, Note_on_c, 7, 64, 96
9, 156000, Note_off_c, 7, 64, 64
9, 156288, Note_on_c, 7, 64, 97
9, 156384, Note_off_c, 7, 64, 64
9, 156672, Note_on_c, 7, 64, 97
9, 156768, Note_off_c, 7, 64, 64
9, 157056, Note_on_c, 7, 64, 97
9, 157152, Note_off_c, 7, 64, 64
9, 157440, Note_on_c, 7, 64, 97
9, 157536, Note_off_c, 7, 64, 64
9, 157824, Note_on_c, 7, 64, 97
9, 157920, Note_off_c, 7, 64, 64
9, 158208, Note_on_c, 7, 64, 97
9, 158304, Note_off_c, 7, 64, 64
9, 158592, Note_on_c, 7, 64, 97
9, 158688, Note_off_c, 7, 64, 64
9, 158976, Note_on_c, 7, 64, 97
9, 159072, Note_off_c, 7, 64, 64
9, 159360, Note_on_c, 7, 64, 97
9, 159456, Note_off_c, 7, 64, 64
9, 159744, Control_c, 7, 7, 95
9, 159744, Program_c, 7, 80
9, 159744, Note_on_c, 7, 64, 95
9, 159840, Note_off_c, 7, 64, 64
9, 160128, Note_on_c, 7, 64, 95
9, 160224, Note_off_c, 7, 64, 64
9, 160512, Note_on_c, 7, 64, 96
9, 160608, Note_off_c, 7, 64, 64
9, 160896, Note_on_c, 7, 64, 96
9, 160992, Note_off_c, 7, 64, 64
9, 161280, Note_on_c, 7, 64, 96
9, 161376, Note_off_c, 7, 64, 64
9, 161664, Note_on_c, 7, 64, 96
9, 161760, Note_off_c, 7, 64, 64
9, 162048, Note_on_c, 7, 64, 96
9, 162144, Note_off_c, 7, 64, 64
9, 162432, Note_on_c, 7, 64, 97
9, 162528, Note_off_c, 7, 64, 64
9, 162816, Note_on_c, 7, 64, 97
9, 162912, Note_off_c, 7, 64, 64
9, 163200, Note_on_c, 7, 64, 97
9, 163296, Note_off_c, 7, 64, 64
9, 163584, Note_on_c, 7, 64, 97
9, 163680, Note_off_c, 7, 64, 64
9, 163968, Note_on_c, 7, 64, 97
9, 164064, Note_off_c, 7, 64, 64
9, 164352, Note_on_c, 7, 64, 97
9, 164448, Note_off_c, 7, 64, 64
9, 164736, Note_on_c, 7, 64, 97
9, 164832, Note_off_c, 7, 64, 64
9, 165120, Note_on_c, 7, 64, 97
9, 165216, Note_off_c, 7, 64, 64
9, 165504, Note_on_c, 7, 64, 97
9, 165600, Note_off_c, 7, 64, 64
9, 165888, Control_c, 7, 7, 95
9, 165888, Program_c, 7, 80
9, 165888, Note_on_c, 7, 64, 95
9, 165984, Note_off_c, 7, 64, 64
9, 166272, Note_on_c, 7, 64, 95
9, 166368, Note_off_c, 7, 64, 64
9, 166656, Note_on_c, 7, 64, 96
9, 166752, Note_off_c, 7, 64, 64
9, 167040, Note_on_c, 7, 64, 96
9, 167136, Note_off_c, 7, 64, 64
9, 167424, Note_on_c, 7, 64, 96
9, 167520, Note_off_c, 7, 64, 64
9, 167808, Note_on_c, 7, 64, 96
9, 167904, Note_off_c, 7, 64, 64
9, 168192, Note_on_c, 7, 64, 96
9, 168288, Note_off_c, 7, 64, 64
9, 168576, Note_on_c, 7, 64, 97
9, 168672, Note_off_c, 7, 64, 64
9, 168960, Note_on_c, 7, 64, 97
9, 169056, Note_off_c, 7, 64, 64
9, 169344, Note_on_c, 7, 64, 97
9, 169440, Note_off_c, 7, 64, 64
9, 169728, Note_on_c, 7, 64, 97
9, 169824, Note_off_c, 7, 64, 64
9, 170112, Note_on_c, 7, 64, 97
9, 170208, Note_off_c, 7, 64, 64
9, 170496, Note_on_c, 7, 64, 97
9, 170592, Note_off_c, 7, 64, 64
9, 170880, Note_on_c, 7, 64, 97
9, 170976, Note_off_c, 7, 64, 64
9, 171264, Note_on_c, 7, 64, 97
9, 171360, Note_off_c, 7, 64, 64
9, 171648, Note_on_c, 7, 64, 97
9, 171744, Note_off_c, 7, 64, 64
9, 172032, Control_c, 7, 7, 95
9, 172032, Program_c, 7, 80
9, 172032, Note_on_c, 7, 65, 95
9, 172128, Note_off_c, 7, 65, 64
9, 172416, Note_on_c, 7, 65, 95
9, 172512, Note_off_c, 7, 65, 64
9, 172800, Note_on_c, 7, 65, 96
9, 172896, Note_off_c, 7, 65, 64
9, 173184, Note_on_c, 7, 65, 96
9, 173280, Note_off_c, 7, 65, 64
9, 173568, Note_on_c, 7, 65, 96
9, 173664, Note_off_c, 7, 65, 64
9, 173952, Note_on_c, 7, 65, 96
9, 174048, Note_off_c, 7, 65, 64
9, 174336, Note_on_c, 7, 65, 96
9, 174432, Note_off_c, 7, 65, 64
9, 174720, Note_on_c, 7, 65, 97
9, 174816, Note_off_c, 7, 65, 64
9, 175104, Note_on_c, 7, 65, 97
9, 175200, Note_off_c, 7, 65, 64
9, 175488, Note_on_c, 7, 65, 97
9, 175584, Note_off_c, 7, 65, 64
9, 175872, Note_on_c, 7, 65, 97
9, 175968, Note_off_c, 7, 65, 64
9, 176256, Note_on_c, 7, 65, 97
9, 176352, Note_off_c, 7, 65, 64
9, 176640, Note_on_c, 7, 65, 97
9, 176736, Note_off_c, 7, 65, 64
9, 177024, Note_on_c, 7, 65, 97
9, 177120, Note_off_c, 7, 65, 64
9, 177408, Note_on_c, 7, 65, 97
9, 177504, Note_off_c, 7, 65, 64
9, 177792, Note_on_c, 7, 65, 97
9, 177888, Note_off_c, 7, 65, 64
9, 178176, Control_c, 7, 7, 95
9, 178176, Program_c, 7, 80
9, 178176, Note_on_c, 7, 67, 95
9, 178272, Note_off_c, 7, 67, 64
9, 178560, Note_on_c, 7, 67, 95
9, 178656, Note_off_c, 7, 67, 64
9, 178944, Note_on_c, 7, 67, 96
9, 179040, Note_off_c, 7, 67, 64
9, 179328, Note_on_c, 7, 67, 96
9, 179424, Note_off_c, 7, 67, 64
9, 179712, Note_on_c, 7, 67, 96
9, 179808, Note_off_c, 7, 67, 64
9, 180096, Note_on_c, 7, 67, 96
9, 180192, Note_off_c, 7, 67, 64
9, 180480, Note_on_c, 7, 67, 96
9, 180576, Note_off_c, 7, 67, 64
9, 180864, Note_on_c, 7, 67, 97
9, 180960, Note_off_c, 7, 67, 64
9, 181248, Note_on_c, 7, 67, 97
9, 181344, Note_off_c, 7, 67, 64
9, 181632, Note_on_c, 7, 67, 97
9, 181728, Note_off_c, 7, 67, 64
9, 182016, Note_on_c, 7, 67, 97
9, 182112, Note_off_c, 7, 67, 64
9, 182400, Note_on_c, 7, 67, 97
9, 182496, Note_off_c, 7, 67, 64
9, 182784, Note_on_c, 7, 67, 97
9, 182880, Note_off_c, 7, 67, 64
9, 183168, Note_on_c, 7, 67, 97
9, 183264, Note_off_c, 7, 67, 64
9, 183552, Note_on_c, 7, 67, 97
9, 183648, Note_off_c, 7, 67, 64
9, 183936, Note_on_c, 7, 67, 97
9, 184032, Note_off_c, 7, 67, 64
9, 184320, Control_c, 7, 7, 95
9, 184320, Program_c, 7, 80
9, 184320, Note_on_c, 7, 67, 95
9, 184416, Note_off_c, 7, 67, 64
9, 184704, Note_on_c, 7, 67, 95
9, 184800, Note_off_c, 7, 67, 64
9, 185088, Note_on_c, 7, 67, 96
9, 185184, Note_off_c, 7, 67, 64
9, 185472, Note_on_c, 7, 67, 96
9, 185568, Note_off_c, 7, 67, 64
9, 185856, Note_on_c, 7, 67, 96
9, 185952, Note_off_c, 7, 67, 64
9, 186240, Note_on_c, 7, 67, 96
9, 186336, Note_off_c, 7, 67, 64
9, 186624, Note_on_c, 7, 67, 96
9, 186720, Note_off_c, 7, 67, 64
9, 187008, Note_on_c, 7, 67, 97
9, 187104, Note_off_c, 7, 67, 64
9, 187392, Note_on_c, 7, 67, 97
9, 187488, Note_off_c, 7, 67, 64
9, 187776, Note_on_c, 7, 67, 97
9, 187872, Note_off_c, 7, 67, 64
9, 188160, Note_on_c, 7, 67, 97
9, 188256, Note_off_c, 7, 67, 64
9, 188544, Note_on_c, 7, 67, 97
9, 188640, Note_off_c, 7, 67, 64
9, 188928, Note_on_c, 7, 67, 97
9, 189024, Note_off_c, 7, 67, 64
9, 189312, Note_on_c, 7, 67, 97
9, 189408, Note_off_c, 7, 67, 64
9, 189696, Note_on_c, 7, 67, 97
9, 189792, Note_off_c, 7, 67, 64
9, 190080, Note_on_c, 7, 67, 97
9, 190176, Note_off_c, 7, 67, 64
9, 190464, Control_c, 7, 7, 95
9, 190464, Program_c, 7, 80
9, 190464, Note_on_c, 7, 64, 95
9, 190560, Note_off_c, 7, 64, 64
9, 190848, Note_on_c, 7, 64, 95
9, 190944, Note_off_c, 7, 64, 64
9, 191232, Note_on_c, 7, 64, 96
9, 191328, Note_off_c, 7, 64, 64
9, 191616, Note_on_c, 7, 64, 96
9, 191712, Note_off_c, 7, 64, 64
9, 192000, Note_on_c, 7, 64, 96
9, 192096, Note_off_c, 7, 64, 64
9, 192384, Note_on_c, 7, 64, 96
9, 192480, Note_off_c, 7, 64, 64
9, 192768, Note_on_c, 7, 64, 96
9, 192864, Note_off_c, 7, 64, 64
9, 193152, Note_on_c, 7, 64, 97
9, 193248, Note_off_c, 7, 64, 64
9, 193536, Note_on_c, 7, 64, 97
9, 193632, Note_off_c, 7, 64, 64
9, 193920, Note_on_c, 7, 64, 97
9, 194016, Note_off_c, 7, 64, 64
9, 194304, Note_on_c, 7, 64, 97
9, 194400, Note_off_c, 7, 64, 64
9, 194688, Note_on_c, 7, 64, 97
9, 194784, Note_off_c, 7, 64, 64
9, 195072, Note_on_c, 7, 64, 97
9, 195168, Note_off_c, 7, 64, 64
9, 195456, Note_on_c, 7, 64, 97
9, 195552, Note_off_c, 7, 64, 64
9, 195840, Note_on_c, 7, 64, 97
9, 195936, Note_off_c, 7, 64, 64
9, 196224, Note_on_c, 7, 64, 97
9, 196320, Note_off_c, 7, 64, 64
9, 196608, Control_c, 7, 7, 95
9, 196608, Program_c, 7, 80
9, 196608, Note_on_c, 7, 67, 95
9, 196704, Note_off_c, 7, 67, 64
9, 196992, Note_on_c, 7, 67, 95
9, 197088, Note_off_c, 7, 67, 64
9, 197376, Note_on_c, 7, 67, 96
9, 197472, Note_off_c, 7, 67, 64
9, 197760, Note_on_c, 7, 67, 96
9, 197856, Note_off_c, 7, 67, 64
9, 198144, Note_on_c, 7, 67, 96
9, 198240, Note_off_c, 7, 67, 64
9, 198528, Note_on_c, 7, 67, 96
9, 198624, Note_off_c, 7, 67, 64
9, 198912, Note_on_c, 7, 67, 96
9, 199008, Note_off_c, 7, 67, 64
9, 199296, Note_on_c, 7, 67, 97
9, 199392, Note_off_c, 7, 67, 64
9, 199680, Note_on_c, 7, 67, 97
9, 199776, Note_off_c, 7, 67, 64
9, 200064, Note_on_c, 7, 67, 97
9, 200160, Note_off_c, 7, 67, 64
9, 200448, Note_on_c, 7, 67, 97
9, 200544, Note_off_c, 7, 67, 64
9, 200832, Note_on_c, 7, 67, 97
9, 200928, Note_off_c, 7, 67, 64
9, 201216, Note_on_c, 7, 67, 97
9, 201312, Note_off_c, 7, 67, 64
9, 201600, Note_on_c, 7, 67, 97
9, 201696, Note_off_c, 7, 67, 64
9, 201984, Note_on_c, 7, 67, 97
9, 202080, Note_off_c, 7, 67, 64
9, 202368, Note_on_c, 7, 67, 97
9, 202464, Note_off_c, 7, 67, 64
9, 202752, Control_c, 7, 7, 95
9, 202752, Program_c, 7, 80
9, 202752, Note_on_c, 7, 64, 95
9, 202848, Note_off_c, 7, 64, 64
9, 203136, Note_on_c, 7, 64, 95
9, 203232, Note_off_c, 7, 64, 64
9, 203520, Note_on_c, 7, 64, 96
9, 203616, Note_off_c, 7, 64, 64
9, 203904, Note_on_c, 7, 64, 96
9, 204000, Note_off_c, 7, 64, 64
9, 204288, Note_on_c, 7, 64, 96
9, 204384, Note_off_c, 7, 64, 64
9, 204672, Note_on_c, 7, 64, 96
9, 204768, Note_off_c, 7, 64, 64
9, 205056, Note_on_c, 7, 64, 96
9, 205152, Note_off_c, 7, 64, 64
9, 205440, Note_on_c, 7, 64, 97
9, 205536, Note_off_c, 7, 64, 64
9, 205824, Note_on_c, 7, 64, 97
9, 205920, Note_off_c, 7, 64, 64
9, 206208, Note_on_c, 7, 64, 97
9, 206304, Note_off_c, 7, 64, 64
9, 206592, Note_on_c, 7, 64, 97
9, 206688, Note_off_c, 7, 64, 64
9, 206976, Note_on_c, 7, 64, 97
9, 207072, Note_off_c, 7, 64, 64
9, 207360, Note_on_c, 7, 64, 97
9, 207456, Note_off_c, 7, 64, 64
9, 207744, Note_on_c, 7, 64, 97
9, 207840, Note_off_c, 7, 64, 64
9, 208128, Note_on_c, 7, 64, 97
9, 208224, Note_off_c, 7, 64, 64
9, 208512, Note_on_c, 7, 64, 97
9, 208608, Note_off_c, 7, 64, 64
9, 208896, Control_c, 7, 7, 95
9, 208896, Program_c, 7, 80
9, 208896, Note_on_c, 7, 65, 95
9, 208992, Note_off_c, 7, 65, 64
9, 209280, Note_on_c, 7, 65, 95
9, 209376, Note_off_c, 7, 65, 64
9, 209664, Note_on_c, 7, 65, 96
9, 209760, Note_off_c, 7, 65, 64
9, 210048, Note_on_c, 7, 65, 96
9, 210144, Note_off_c, 7, 65, 64
9, 210432, Note_on_c, 7, 65, 96
9, 210528, Note_off_c, 7, 65, 64
9, 210816, Note_on_c, 7, 65, 96
9, 210912, Note_off_c, 7, 65, 64
9, 211200, Note_on_c, 7, 65, 96
9, 211296, Note_off_c, 7, 65, 64
9, 211584, Note_on_c, 7, 65, 97
9, 211680, Note_off_c, 7, 65, 64
9, 211968, Note_on_c, 7, 65, 97
9, 212064, Note_off_c, 7, 65, 64
9, 212352, Note_on_c, 7, 65, 97
9, 212448, Note_off_c, 7, 65, 64
9, 212736, Note_on_c, 7, 65, 97
9, 212832, Note_off_c, 7, 65, 64
9, 213120, Note_on_c, 7, 65, 97
9, 213216, Note_off_c, 7, 65, 64
9, 213504, Note_on_c, 7, 65, 97
9, 213600, Note_off_c, 7, 65, 64
9, 213888, Note_on_c, 7, 65, 97
9, 213984, Note_off_c, 7, 65, 64
9, 214272, Note_on_c, 7, 65, 97
9, 214368, Note_off_c, 7, 65, 64
9, 214656, Note_on_c, 7, 65, 97
9, 214752, Note_off_c, 7, 65, 64
9, 215040, Control_c, 7, 7, 95
9, 215040, Program_c, 7, 80
9, 215040, Note_on_c, 7, 67, 95
9, 215136, Note_off_c, 7, 67, 64
9, 215424, Note_on_c, 7, 67, 95
9, 215520, Note_off_c, 7, 67, 64
9, 215808, Note_on_c, 7, 67, 96
9, 215904, Note_off_c, 7, 67, 64
9, 216192, Note_on_c, 7, 67, 96
9, 216288, Note_off_c, 7, 67, 64
9, 216576, Note_on_c, 7, 67, 96
9, 216672, Note_off_c, 7, 67, 64
9, 216960, Note_on_c, 7, 67, 96
9, 217056, Note_off_c, 7, 67, 64
9, 217344, Note_on_c, 7, 67, 96
9, 217440, Note_off_c, 7, 67, 64
9, 217728, Note_on_c, 7, 67, 97
9, 217824, Note_off_c, 7, 67, 64
9, 218112, Note_on_c, 7, 67, 97
9, 218208, Note_off_c, 7, 67, 64
9, 218496, Note_on_c, 7, 67, 97
9, 218592, Note_off_c, 7, 67, 64
9, 218880, Note_on_c, 7, 67, 97
9, 218976, Note_off_c, 7, 67, 64
9, 219264, Note_on_c, 7, 67, 97
9, 219360, Note_off_c, 7, 67, 64
9, 219648, Note_on_c, 7, 67, 97
9, 219744, Note_off_c, 7, 67, 64
9, 220032, Note_on_c, 7, 67, 97
9, 220128, Note_off_c, 7, 67, 64
9, 220416, Note_on_c, 7, 67, 97
9, 220512, Note_off_c, 7, 67, 64
9, 220800, Note_on_c, 7, 67, 97
9, 220896, Note_off_c, 7, 67, 64
9, 221184, Control_c, 7, 7, 95
9, 221184, Program_c, 7, 80
9, 221184, Note_on_c, 7, 67, 95
9, 221280, Note_off_c, 7, 67, 64
9, 221568, Note_on_c, 7, 67, 95
9, 221664, Note_off_c, 7, 67, 64
9, 221952, Note_on_c, 7, 67, 96
9, 222048, Note_off_c, 7, 67, 64
9, 222336, Note_on_c, 7, 67, 96
9, 222432, Note_off_c, 7, 67, 64
9, 222720, Note_on_c, 7, 67, 96
9, 222816, Note_off_c, 7, 67, 64
9, 223104, Note_on_c, 7, 67, 96
9, 223200, Note_off_c, 7, 67, 64
9, 223488, Note_on_c, 7, 67, 96
9, 223584, Note_off_c, 7, 67, 64
9, 223872, Note_on_c, 7, 67, 97
9, 223968, Note_off_c, 7, 67, 64
9, 224256, Note_on_c, 7, 67, 97
9, 224352, Note_off_c, 7, 67, 64
9, 224640, Note_on_c, 7, 67, 97
9, 224736, Note_off_c, 7, 67, 64
9, 225024, Note_on_c, 7, 67, 97
9, 225120, Note_off_c, 7, 67, 64
9, 225408, Note_on_c, 7, 67, 97
9, 225504, Note_off_c, 7, 67, 64
9, 225792, Note_on_c, 7, 67, 97
9, 225888, Note_off_c, 7, 67, 64
9, 226176, Note_on_c, 7, 67, 97
9, 226272, Note_off_c, 7, 67, 64
9, 226560, Note_on_c, 7, 67, 97
9, 226656, Note_off_c, 7, 67, 64
9, 226944, Note_on_c, 7, 67, 97
9, 227040, Note_off_c, 7, 67, 64
9, 227328, Control_c, 7, 7, 95
9, 227328, Program_c, 7, 80
9, 227328, Note_on_c, 7, 64, 95
9, 227424, Note_off_c, 7, 64, 64
9, 227712, Note_on_c, 7, 64, 95
9, 227808, Note_off_c, 7, 64, 64
9, 228096, Note_on_c, 7, 64, 96
9, 228192, Note_off_c, 7, 64, 64
9, 228480, Note_on_c, 7, 64, 96
9, 228576, Note_off_c, 7, 64, 64
9, 228864, Note_on_c, 7, 64, 96
9, 228960, Note_off_c, 7, 64, 64
9, 229248, Note_on_c, 7, 64, 96
9, 229344, Note_off_c, 7, 64, 64
9, 229632, Note_on_c, 7, 64, 96
9, 229728, Note_off_c, 7, 64, 64
9, 230016, Note_on_c, 7, 64, 97
9, 230112, Note_off_c, 7, 64, 64
9, 230400, Note_on_c, 7, 64, 97
9, 230496, Note_off_c, 7, 64, 64
9, 230784, Note_on_c, 7, 64, 97
9, 230880, Note_off_c, 7, 64, 64
9, 231168, Note_on_c, 7, 64, 97
9, 231264, Note_off_c, 7, 64, 64
9, 231552, Note_on_c, 7, 64, 97
9, 231648, Note_off_c, 7, 64, 64
9, 231936, Note_on_c, 7, 64, 97
9, 232032, Note_off_c, 7, 64, 64
9, 232320, Note_on_c, 7, 64, 97
9, 232416, Note_off_c, 7, 64, 64
9, 232704, Note_on_c, 7, 64, 97
9, 232800, Note_off_c, 7, 64, 64
9, 233088, Note_on_c, 7, 64, 97
9, 233184, Note_off_c, 7, 64, 64
9, 233472, Control_c, 7, 7, 95
9, 233472, Program_c, 7, 80
9, 233472, Note_on_c, 7, 67, 95
9, 233568, Note_off_c, 7, 67, 64
9, 233856, Note_on_c, 7, 67, 95
9, 233952, Note_off_c, 7, 67, 64
9, 234240, Note_on_c, 7, 67, 96
9, 234336, Note_off_c, 7, 67, 64
9, 234624, Note_on_c, 7, 67, 96
9, 234720, Note_off_c, 7, 67, 64
9, 235008, Note_on_c, 7, 67, 96
9, 235104, Note_off_c, 7, 67, 64
9, 235392, Note_on_c, 7, 67, 96
9, 235488, Note_off_c, 7, 67, 64
9, 235776, Note_on_c, 7, 67, 96
9, 235872, Note_off_c, 7, 67, 64
9, 236160, Note_on_c, 7, 67, 97
9, 236256, Note_off_c, 7, 67, 64
9, 236544, Note_on_c, 7, 67, 97
9, 236640, Note_off_c, 7, 67, 64
9, 236928, Note_on_c, 7, 67, 97
9, 237024, Note_off_c, 7, 67, 64
9, 237312, Note_on_c, 7, 67, 97
9, 237408, Note_off_c, 7, 67, 64
9, 237696, Note_on_c, 7, 67, 97
9, 237792, Note_off_c, 7, 67, 64
9, 238080, Note_on_c, 7, 67, 97
9, 238176, Note_off_c, 7, 67, 64
9, 238464, Note_on_c, 7, 67, 97
9, 238560, Note_off_c, 7, 67, 64
9, 238848, Note_on_c, 7, 67, 97
9, 238944, Note_off_c, 7, 67, 64
9, 239232, Note_on_c, 7, 67, 97
9, 239328, Note_off_c, 7, 67, 64
9, 239616, Control_c, 7, 7, 95
9, 239616, Program_c, 7, 80
9, 239616, Note_on_c, 7, 64, 95
9, 239712, Note_off_c, 7, 64, 64
9, 240000, Note_on_c, 7, 64, 95
9, 240096, Note_off_c, 7, 64, 64
9, 240384, Note_on_c, 7, 64, 96
9, 240480, Note_off_c, 7, 64, 64
9, 240768, Note_on_c, 7, 64, 96
9, 240864, Note_off_c, 7, 64, 64
9, 241152, Note_on_c, 7, 64, 96
9, 241248, Note_off_c, 7, 64, 64
9, 241536, Note_on_c, 7, 64, 96
9, 241632, Note_off_c, 7, 64, 64
9, 241920, Note_on_c, 7, 64, 96
9, 242016, Note_off_c, 7, 64, 64
9, 242304, Note_on_c, 7, 64, 97
9, 242400, Note_off_c, 7, 64, 64
9, 242688, Note_on_c, 7, 64, 97
9, 242784, Note_off_c, 7, 64, 64
9, 243072, Note_on_c, 7, 64, 97
9, 243168, Note_off_c, 7, 64, 64
9, 243456, Note_on_c, 7, 64, 97
9, 243552, Note_off_c, 7, 64, 64
9, 243840, Note_on_c, 7, 64, 97
9, 243936, Note_off_c, 7, 64, 64
9, 244224, Note_on_c, 7, 64, 97
9, 244320, Note_off_c, 7, 64, 64
9, 244608, Note_on_c, 7, 64, 97
9, 244704, Note_off_c, 7, 64, 64
9, 244992, Note_on_c, 7, 64, 97
9, 245088, Note_off_c, 7, 64, 64
9, 245376, Note_on_c, 7, 64, 97
9, 245472, Note_off_c, 7, 64, 64
9, 245760, Control_c, 7, 7, 95
9, 245760, Program_c, 7, 80
9, 245760, Note_on_c, 7, 65, 95
9, 245856, Note_off_c, 7, 65, 64
9, 246144, Note_on_c, 7, 65, 95
9, 246240, Note_off_c, 7, 65, 64
9, 246528, Note_on_c, 7, 65, 96
9, 246624, Note_off_c, 7, 65, 64
9, 246912, Note_on_c, 7, 65, 96
9, 247008, Note_off_c, 7, 65, 64
9, 247296, Note_on_c, 7, 65, 96
9, 247392, Note_off_c, 7, 65, 64
9, 247680, Note_on_c, 7, 65, 96
9, 247776, Note_off_c, 7, 65, 64
9, 248064, Note_on_c, 7, 65, 96
9, 248160, Note_off_c, 7, 65, 64
9, 248448, Note_on_c, 7, 65, 97
9, 248544, Note_off_c, 7, 65, 64
9, 248832, Note_on_c, 7, 65, 97
9, 248928, Note_off_c, 7, 65, 64
9, 249216, Note_on_c, 7, 65, 97
9, 249312, Note_off_c, 7, 65, 64
9, 249600, Note_on_c, 7, 65, 97
9, 249696, Note_off_c, 7, 65, 64
9, 249984, Note_on_c, 7, 65, 97
9, 250080, Note_off_c, 7, 65, 64
9, 250368, Note_on_c, 7, 65, 97
9, 250464, Note_off_c, 7, 65, 64
9, 250752, Note_on_c, 7, 65, 97
9, 250848, Note_off_c, 7, 65, 64
9, 251136, Note_on_c, 7, 65, 97
9, 251232, Note_off_c, 7, 65, 64
9, 251520, Note_on_c, 7, 65, 97
9, 251616, Note_off_c, 7, 65, 64
9, 251904, Control_c, 7, 7, 95
9, 251904, Program_c, 7, 80
9, 251904, Note_on_c, 7, 67, 95
9, 252000, Note_off_c, 7, 67, 64
9, 252288, Note_on_c, 7, 67, 95
9, 252384, Note_off_c, 7, 67, 64
9, 252672, Note_on_c, 7, 67, 96
9, 252768, Note_off_c, 7, 67, 64
9, 253056, Note_on_c, 7, 67, 96
9, 253152, Note_off_c, 7, 67, 64
9, 253440, Note_on_c, 7, 67, 96
9, 253536, Note_off_c, 7, 67, 64
9, 253824, Note_on_c, 7, 67, 96
9, 253920, Note_off_c, 7, 67, 64
9, 254208, Note_on_c, 7, 67, 96
9, 254304, Note_off_c, 7, 67, 64
9, 254592, Note_on_c, 7, 67, 97
9, 254688, Note_off_c, 7, 67, 64
9, 254976, Note_on_c, 7, 67, 97
9, 255072, Note_off_c, 7, 67, 64
9, 255360, Note_on_c, 7, 67, 97
9, 255456, Note_off_c, 7, 67, 64
9, 255744, Note_on_c, 7, 67, 97
9, 255840, Note_off_c, 7, 67, 64
9, 256128, Note_on_c, 7, 67, 97
9, 256224, Note_off_c, 7, 67, 64
9, 256512, Note_on_c, 7, 67, 97
9, 256608, Note_off_c, 7, 67, 64
9, 256896, Note_on_c, 7, 67, 97
9, 256992, Note_off_c, 7, 67, 64
9, 257280, Note_on_c, 7, 67, 97
9, 257376, Note_off_c, 7, 67, 64
9, 257664, Note_on_c, 7, 67, 97
9, 257760, Note_off_c, 7, 67, 64
9, 258048, Control_c, 7, 7, 95
9, 258048, Program_c, 7, 80
9, 258048, Note_on_c, 7, 68, 95
9, 258144, Note_off_c, 7, 68, 64
9, 258432, Note_on_c, 7, 68, 95
9, 258528, Note_off_c, 7, 68, 64
9, 258816, Note_on_c, 7, 68, 96
9, 258912, Note_off_c, 7, 68, 64
9, 259200, Note_on_c, 7, 68, 96
9, 259296, Note_off_c, 7, 68, 64
9, 259584, Note_on_c, 7, 68, 96
9, 259680, Note_off_c, 7, 68, 64
9, 259968, Note_on_c, 7, 68, 96
9, 260064, Note_off_c, 7, 68, 64
9, 260352, Note_on_c, 7, 68, 96
9, 260448, Note_off_c, 7, 68, 64
9, 260736, Note_on_c, 7, 68, 97
9, 260832, Note_off_c, 7, 68, 64
9, 261120, Note_on_c, 7, 68, 97
9, 261216, Note_off_c, 7, 68, 64
9, 261504, Note_on_c, 7, 68, 97
9, 261600, Note_off_c, 7, 68, 64
9, 261888, Note_on_c, 7, 68, 97
9, 261984, Note_off_c, 7, 68, 64
9, 262272, Note_on_c, 7, 68, 97
9, 262368, Note_off_c, 7, 68, 64
9, 262656, Note_on_c, 7, 68, 97
9, 262752, Note_off_c, 7, 68, 64
9, 263040, Note_on_c, 7, 68, 97
9, 263136, Note_off_c, 7, 68, 64
9, 263424, Note_on_c, 7, 68, 97
9, 263520, Note_off_c, 7, 68, 64
9, 263808, Note_on_c, 7, 68, 97
9, 263904, Note_off_c, 7, 68, 64
9, 264192, Control_c, 7, 7, 95
9, 264192, Program_c, 7, 80
9, 264192, Note_on_c, 7, 70, 95
9, 264288, Note_off_c, 7, 70, 64
9, 264576, Note_on_c, 7, 70, 95
9, 264672, Note_off_c, 7, 70, 64
9, 264960, Note_on_c, 7, 70, 96
9, 265056, Note_off_c, 7, 70, 64
9, 265344, Note_on_c, 7, 70, 96
9, 265440, Note_off_c, 7, 70, 64
9, 265728, Note_on_c, 7, 70, 96
9, 265824, Note_off_c, 7, 70, 64
9, 266112, Note_on_c, 7, 70, 96
9, 266208, Note_off_c, 7, 70, 64
9, 266496, Note_on_c, 7, 70, 96
9, 266592, Note_off_c, 7, 70, 64
9, 266880, Note_on_c, 7, 70, 97
9, 266976, Note_off_c, 7, 70, 64
9, 267264, Note_on_c, 7, 70, 97
9, 267360, Note_off_c, 7, 70, 64
9, 267648, Note_on_c, 7, 70, 97
9, 267744, Note_off_c, 7, 70, 64
9, 268032, Note_on_c, 7, 70, 97
9, 268128, Note_off_c, 7, 70, 64
9, 268416, Note_on_c, 7, 70, 97
9, 268512, Note_off_c, 7, 70, 64
9, 268800, Note_on_c, 7, 70, 97
9, 268896, Note_off_c, 7, 70, 64
9, 269184, Note_on_c, 7, 70, 97
9, 269280, Note_off_c, 7, 70, 64
9, 269568, Note_on_c, 7, 70, 97
9, 269664, Note_off_c, 7, 70, 64
9, 269952, Note_on_c, 7, 70, 97
9, 270048, Note_off_c, 7, 70, 64
9, 270336, End_track
10, 0, Start_track
10, 0, Title_t, "draggor"
10, 0, Control_c, 8, 7, 100
10, 0, Control_c, 8, 10, 47
10, 0, Control_c, 8, 91, 101
10, 294912, Control_c, 8, 7, 100
10, 294912, Program_c, 8, 108
10, 296832, Note_on_c, 8, 75, 110
10, 296928, Note_off_c, 8, 75, 64
10, 297216, Note_on_c, 8, 75, 110
10, 297312, Note_off_c, 8, 75, 64
10, 297600, Note_on_c, 8, 75, 110
10, 297696, Note_off_c, 8, 75, 64
10, 298368, Note_on_c, 8, 74, 110
10, 298464, Note_off_c, 8, 74, 64
10, 298752, Note_on_c, 8, 74, 110
10, 298848, Note_off_c, 8, 74, 64
10, 299136, Note_on_c, 8, 74, 110
10, 299232, Note_off_c, 8, 74, 64
10, 301056, End_track
11, 0, Start_track
11, 0, Title_t, ".com"
11, 0, Program_c, 9, 9
11, 0, Control_c, 9, 91, 11
11, 1536, Control_c, 9, 10, 64
11, 6144, Control_c, 9, 7, 100
11, 6144, Program_c, 9, 9
11, 6144, Note_on_c, 9, 44, 110
11, 6240, Note_off_c, 9, 44, 64
11, 6528, Note_on_c, 9, 44, 110
11, 6624, Note_off_c, 9, 44, 64
11, 6912, Note_on_c, 9, 44, 110
11, 7008, Note_off_c, 9, 44, 64
11, 7296, Note_on_c, 9, 44, 110
11, 7392, Note_off_c, 9, 44, 64
11, 7680, Note_on_c, 9, 44, 110
11, 7776, Note_off_c, 9, 44, 64
11, 8064, Note_on_c, 9, 44, 110
11, 8160, Note_off_c, 9, 44, 64
11, 8448, Note_on_c, 9, 44, 110
11, 8544, Note_off_c, 9, 44, 64
11, 8832, Note_on_c, 9, 46, 110
11, 9216, Note_off_c, 9, 46, 64
11, 9216, Note_on_c, 9, 44, 110
11, 9312, Note_off_c, 9, 44, 64
11, 9600, Note_on_c, 9, 44, 110
11, 9696, Note_off_c, 9, 44, 64
11, 9984, Note_on_c, 9, 44, 110
11, 10080, Note_off_c, 9, 44, 64
11, 10368, Note_on_c, 9, 44, 110
11, 10464, Note_off_c, 9, 44, 64
11, 10752, Note_on_c, 9, 44, 110
11, 10848, Note_off_c, 9, 44, 64
11, 11136, Note_on_c, 9, 44, 110
11, 11232, Note_off_c, 9, 44, 64
11, 11520, Note_on_c, 9, 44, 110
11, 11616, Note_off_c, 9, 44, 64
11, 11904, Note_on_c, 9, 46, 110
11, 12288, Note_off_c, 9, 46, 64
11, 12288, Control_c, 9, 7, 100
11, 12288, Program_c, 9, 9
11, 12288, Note_on_c, 9, 44, 110
11, 12384, Note_off_c, 9, 44, 64
11, 12672, Note_on_c, 9, 44, 110
11, 12768, Note_off_c, 9, 44, 64
11, 13056, Note_on_c, 9, 44, 110
11, 13152, Note_off_c, 9, 44, 64
11, 13440, Note_on_c, 9, 44, 110
11, 13536, Note_off_c, 9, 44, 64
11, 13824, Note_on_c, 9, 44, 110
11, 13920, Note_off_c, 9, 44, 64
11, 14208, Note_on_c, 9, 44, 110
11, 14304, Note_off_c, 9, 44, 64
11, 14592, Note_on_c, 9, 44, 110
11, 14688, Note_off_c, 9, 44, 64
11, 14976, Note_on_c, 9, 46, 110
11, 15360, Note_off_c, 9, 46, 64
11, 15360, Control_c, 9, 7, 100
11, 15360, Program_c, 9, 9
11, 15360, Note_on_c, 9, 31, 96
11, 15360, Note_on_c, 9, 36, 110
11, 15360, Note_on_c, 9, 35, 110
11, 15360, Note_on_c, 9, 44, 110
11, 15456, Note_off_c, 9, 44, 64
11, 15456, Note_off_c, 9, 31, 64
11, 15552, Note_off_c, 9, 35, 64
11, 15552, Note_off_c, 9, 36, 64
11, 15648, Note_on_c, 9, 31, 64
11, 15744, Note_off_c, 9, 31, 64
11, 15744, Note_on_c, 9, 31, 96
11, 15744, Note_on_c, 9, 44, 110
11, 15840, Note_off_c, 9, 44, 64
11, 15840, Note_off_c, 9, 31, 64
11, 16032, Note_on_c, 9, 31, 64
11, 16128, Note_off_c, 9, 31, 64
11, 16128, Note_on_c, 9, 31, 96
11, 16128, Note_on_c, 9, 38, 110
11, 16128, Note_on_c, 9, 36, 110
11, 16128, Note_on_c, 9, 35, 110
11, 16128, Note_on_c, 9, 40, 110
11, 16128, Note_on_c, 9, 44, 110
11, 16224, Note_off_c, 9, 44, 64
11, 16224, Note_off_c, 9, 31, 64
11, 16320, Note_off_c, 9, 40, 64
11, 16320, Note_off_c, 9, 35, 64
11, 16320, Note_off_c, 9, 36, 64
11, 16320, Note_off_c, 9, 38, 64
11, 16416, Note_on_c, 9, 31, 64
11, 16512, Note_off_c, 9, 31, 64
11, 16512, Note_on_c, 9, 31, 96
11, 16512, Note_on_c, 9, 44, 110
11, 16608, Note_off_c, 9, 44, 64
11, 16608, Note_off_c, 9, 31, 64
11, 16800, Note_on_c, 9, 31, 64
11, 16896, Note_off_c, 9, 31, 64
11, 16896, Note_on_c, 9, 31, 96
11, 16896, Note_on_c, 9, 36, 110
11, 16896, Note_on_c, 9, 35, 110
11, 16896, Note_on_c, 9, 44, 110
11, 16992, Note_off_c, 9, 44, 64
11, 16992, Note_off_c, 9, 31, 64
11, 17088, Note_off_c, 9, 35, 64
11, 17088, Note_off_c, 9, 36, 64
11, 17184, Note_on_c, 9, 31, 64
11, 17280, Note_off_c, 9, 31, 64
11, 17280, Note_on_c, 9, 31, 96
11, 17280, Note_on_c, 9, 44, 110
11, 17376, Note_off_c, 9, 44, 64
11, 17376, Note_off_c, 9, 31, 64
11, 17568, Note_on_c, 9, 31, 64
11, 17664, Note_off_c, 9, 31, 64
11, 17664, Note_on_c, 9, 31, 96
11, 17664, Note_on_c, 9, 38, 110
11, 17664, Note_on_c, 9, 36, 110
11, 17664, Note_on_c, 9, 35, 110
11, 17664, Note_on_c, 9, 40, 110
11, 17664, Note_on_c, 9, 44, 110
11, 17760, Note_off_c, 9, 44, 64
11, 17760, Note_off_c, 9, 31, 64
11, 17856, Note_off_c, 9, 40, 64
11, 17856, Note_off_c, 9, 35, 64
11, 17856, Note_off_c, 9, 36, 64
11, 17856, Note_off_c, 9, 38, 64
11, 17952, Note_on_c, 9, 31, 64
11, 18048, Note_off_c, 9, 31, 64
11, 18048, Note_on_c, 9, 31, 96
11, 18048, Note_on_c, 9, 46, 110
11, 18144, Note_off_c, 9, 31, 64
11, 18336, Note_on_c, 9, 31, 64
11, 18432, Note_off_c, 9, 31, 64
11, 18432, Note_off_c, 9, 46, 64
11, 18432, Control_c, 9, 7, 100
11, 18432, Program_c, 9, 9
11, 18432, Note_on_c, 9, 31, 96
11, 18432, Note_on_c, 9, 36, 110
11, 18432, Note_on_c, 9, 35, 110
11, 18432, Note_on_c, 9, 44, 110
11, 18528, Note_off_c, 9, 44, 64
11, 18528, Note_off_c, 9, 31, 64
11, 18624, Note_off_c, 9, 35, 64
11, 18624, Note_off_c, 9, 36, 64
11, 18720, Note_on_c, 9, 31, 64
11, 18816, Note_off_c, 9, 31, 64
11, 18816, Note_on_c, 9, 31, 96
11, 18816, Note_on_c, 9, 44, 110
11, 18912, Note_off_c, 9, 44, 64
11, 18912, Note_off_c, 9, 31, 64
11, 19104, Note_on_c, 9, 31, 64
11, 19200, Note_off_c, 9, 31, 64
11, 19200, Note_on_c, 9, 31, 96
11, 19200, Note_on_c, 9, 38, 110
11, 19200, Note_on_c, 9, 36, 110
11, 19200, Note_on_c, 9, 35, 110
11, 19200, Note_on_c, 9, 40, 110
11, 19200, Note_on_c, 9, 44, 110
11, 19296, Note_off_c, 9, 44, 64
11, 19296, Note_off_c, 9, 31, 64
11, 19392, Note_off_c, 9, 40, 64
11, 19392, Note_off_c, 9, 35, 64
11, 19392, Note_off_c, 9, 36, 64
11, 19392, Note_off_c, 9, 38, 64
11, 19488, Note_on_c, 9, 31, 64
11, 19584, Note_off_c, 9, 31, 64
11, 19584, Note_on_c, 9, 31, 96
11, 19584, Note_on_c, 9, 44, 110
11, 19680, Note_off_c, 9, 44, 64
11, 19680, Note_off_c, 9, 31, 64
11, 19872, Note_on_c, 9, 31, 64
11, 19968, Note_off_c, 9, 31, 64
11, 19968, Note_on_c, 9, 31, 96
11, 19968, Note_on_c, 9, 36, 110
11, 19968, Note_on_c, 9, 35, 110
11, 19968, Note_on_c, 9, 44, 110
11, 20064, Note_off_c, 9, 44, 64
11, 20064, Note_off_c, 9, 31, 64
11, 20160, Note_off_c, 9, 35, 64
11, 20160, Note_off_c, 9, 36, 64
11, 20256, Note_on_c, 9, 31, 64
11, 20352, Note_off_c, 9, 31, 64
11, 20352, Note_on_c, 9, 31, 96
11, 20352, Note_on_c, 9, 44, 110
11, 20448, Note_off_c, 9, 44, 64
11, 20448, Note_off_c, 9, 31, 64
11, 20640, Note_on_c, 9, 31, 64
11, 20736, Note_off_c, 9, 31, 64
11, 20736, Note_on_c, 9, 31, 96
11, 20736, Note_on_c, 9, 38, 110
11, 20736, Note_on_c, 9, 36, 110
11, 20736, Note_on_c, 9, 35, 110
11, 20736, Note_on_c, 9, 40, 110
11, 20736, Note_on_c, 9, 44, 110
11, 20832, Note_off_c, 9, 44, 64
11, 20832, Note_off_c, 9, 31, 64
11, 20928, Note_off_c, 9, 40, 64
11, 20928, Note_off_c, 9, 35, 64
11, 20928, Note_off_c, 9, 36, 64
11, 20928, Note_off_c, 9, 38, 64
11, 21024, Note_on_c, 9, 31, 64
11, 21120, Note_off_c, 9, 31, 64
11, 21120, Note_on_c, 9, 31, 96
11, 21120, Note_on_c, 9, 46, 110
11, 21216, Note_off_c, 9, 31, 64
11, 21408, Note_on_c, 9, 31, 64
11, 21504, Note_off_c, 9, 31, 64
11, 21504, Note_off_c, 9, 46, 64
11, 21504, Control_c, 9, 7, 100
11, 21504, Program_c, 9, 9
11, 21504, Note_on_c, 9, 31, 96
11, 21504, Note_on_c, 9, 36, 110
11, 21504, Note_on_c, 9, 35, 110
11, 21504, Note_on_c, 9, 44, 110
11, 21600, Note_off_c, 9, 44, 64
11, 21600, Note_off_c, 9, 31, 64
11, 21696, Note_off_c, 9, 35, 64
11, 21696, Note_off_c, 9, 36, 64
11, 21792, Note_on_c, 9, 31, 64
11, 21888, Note_off_c, 9, 31, 64
11, 21888, Note_on_c, 9, 31, 96
11, 21888, Note_on_c, 9, 44, 110
11, 21984, Note_off_c, 9, 44, 64
11, 21984, Note_off_c, 9, 31, 64
11, 22176, Note_on_c, 9, 31, 64
11, 22272, Note_off_c, 9, 31, 64
11, 22272, Note_on_c, 9, 31, 96
11, 22272, Note_on_c, 9, 38, 110
11, 22272, Note_on_c, 9, 36, 110
11, 22272, Note_on_c, 9, 35, 110
11, 22272, Note_on_c, 9, 40, 110
11, 22272, Note_on_c, 9, 44, 110
11, 22368, Note_off_c, 9, 44, 64
11, 22368, Note_off_c, 9, 31, 64
11, 22464, Note_off_c, 9, 40, 64
11, 22464, Note_off_c, 9, 35, 64
11, 22464, Note_off_c, 9, 36, 64
11, 22464, Note_off_c, 9, 38, 64
11, 22560, Note_on_c, 9, 31, 64
11, 22656, Note_off_c, 9, 31, 64
11, 22656, Note_on_c, 9, 31, 96
11, 22656, Note_on_c, 9, 44, 110
11, 22752, Note_off_c, 9, 44, 64
11, 22752, Note_off_c, 9, 31, 64
11, 22944, Note_on_c, 9, 31, 64
11, 23040, Note_off_c, 9, 31, 64
11, 23040, Note_on_c, 9, 31, 96
11, 23040, Note_on_c, 9, 36, 110
11, 23040, Note_on_c, 9, 35, 110
11, 23040, Note_on_c, 9, 44, 110
11, 23136, Note_off_c, 9, 44, 64
11, 23136, Note_off_c, 9, 31, 64
11, 23232, Note_off_c, 9, 35, 64
11, 23232, Note_off_c, 9, 36, 64
11, 23328, Note_on_c, 9, 31, 64
11, 23424, Note_off_c, 9, 31, 64
11, 23424, Note_on_c, 9, 31, 96
11, 23424, Note_on_c, 9, 44, 110
11, 23520, Note_off_c, 9, 44, 64
11, 23520, Note_off_c, 9, 31, 64
11, 23712, Note_on_c, 9, 31, 64
11, 23808, Note_off_c, 9, 31, 64
11, 23808, Note_on_c, 9, 31, 96
11, 23808, Note_on_c, 9, 38, 110
11, 23808, Note_on_c, 9, 36, 110
11, 23808, Note_on_c, 9, 35, 110
11, 23808, Note_on_c, 9, 40, 110
11, 23808, Note_on_c, 9, 44, 110
11, 23904, Note_off_c, 9, 44, 64
11, 23904, Note_off_c, 9, 31, 64
11, 24000, Note_off_c, 9, 40, 64
11, 24000, Note_off_c, 9, 35, 64
11, 24000, Note_off_c, 9, 36, 64
11, 24000, Note_off_c, 9, 38, 64
11, 24096, Note_on_c, 9, 31, 64
11, 24192, Note_off_c, 9, 31, 64
11, 24192, Note_on_c, 9, 31, 96
11, 24192, Note_on_c, 9, 46, 110
11, 24288, Note_off_c, 9, 31, 64
11, 24480, Note_on_c, 9, 31, 64
11, 24576, Note_off_c, 9, 31, 64
11, 24576, Note_off_c, 9, 46, 64
11, 24576, Control_c, 9, 7, 100
11, 24576, Program_c, 9, 9
11, 24576, Note_on_c, 9, 31, 96
11, 24576, Note_on_c, 9, 36, 110
11, 24576, Note_on_c, 9, 35, 110
11, 24576, Note_on_c, 9, 44, 110
11, 24672, Note_off_c, 9, 44, 64
11, 24672, Note_off_c, 9, 31, 64
11, 24768, Note_off_c, 9, 35, 64
11, 24768, Note_off_c, 9, 36, 64
11, 24864, Note_on_c, 9, 31, 64
11, 24960, Note_off_c, 9, 31, 64
11, 24960, Note_on_c, 9, 31, 96
11, 24960, Note_on_c, 9, 44, 110
11, 25056, Note_off_c, 9, 44, 64
11, 25056, Note_off_c, 9, 31, 64
11, 25248, Note_on_c, 9, 31, 64
11, 25344, Note_off_c, 9, 31, 64
11, 25344, Note_on_c, 9, 31, 96
11, 25344, Note_on_c, 9, 38, 110
11, 25344, Note_on_c, 9, 36, 110
11, 25344, Note_on_c, 9, 35, 110
11, 25344, Note_on_c, 9, 40, 110
11, 25344, Note_on_c, 9, 44, 110
11, 25440, Note_off_c, 9, 44, 64
11, 25440, Note_off_c, 9, 31, 64
11, 25536, Note_off_c, 9, 40, 64
11, 25536, Note_off_c, 9, 35, 64
11, 25536, Note_off_c, 9, 36, 64
11, 25536, Note_off_c, 9, 38, 64
11, 25632, Note_on_c, 9, 31, 64
11, 25728, Note_off_c, 9, 31, 64
11, 25728, Note_on_c, 9, 31, 96
11, 25728, Note_on_c, 9, 44, 110
11, 25824, Note_off_c, 9, 44, 64
11, 25824, Note_off_c, 9, 31, 64
11, 26016, Note_on_c, 9, 31, 64
11, 26112, Note_off_c, 9, 31, 64
11, 26112, Note_on_c, 9, 31, 96
11, 26112, Note_on_c, 9, 36, 110
11, 26112, Note_on_c, 9, 35, 110
11, 26112, Note_on_c, 9, 44, 110
11, 26208, Note_off_c, 9, 44, 64
11, 26208, Note_off_c, 9, 31, 64
11, 26304, Note_off_c, 9, 35, 64
11, 26304, Note_off_c, 9, 36, 64
11, 26400, Note_on_c, 9, 31, 64
11, 26496, Note_off_c, 9, 31, 64
11, 26496, Note_on_c, 9, 31, 96
11, 26496, Note_on_c, 9, 44, 110
11, 26592, Note_off_c, 9, 44, 64
11, 26592, Note_off_c, 9, 31, 64
11, 26784, Note_on_c, 9, 31, 64
11, 26880, Note_off_c, 9, 31, 64
11, 26880, Note_on_c, 9, 31, 96
11, 26880, Note_on_c, 9, 38, 110
11, 26880, Note_on_c, 9, 36, 110
11, 26880, Note_on_c, 9, 35, 110
11, 26880, Note_on_c, 9, 40, 110
11, 26880, Note_on_c, 9, 44, 110
11, 26976, Note_off_c, 9, 44, 64
11, 26976, Note_off_c, 9, 31, 64
11, 27072, Note_off_c, 9, 40, 64
11, 27072, Note_off_c, 9, 35, 64
11, 27072, Note_off_c, 9, 36, 64
11, 27072, Note_off_c, 9, 38, 64
11, 27168, Note_on_c, 9, 31, 64
11, 27264, Note_off_c, 9, 31, 64
11, 27264, Note_on_c, 9, 31, 96
11, 27264, Note_on_c, 9, 46, 110
11, 27360, Note_off_c, 9, 31, 64
11, 27552, Note_on_c, 9, 31, 64
11, 27648, Note_off_c, 9, 31, 64
11, 27648, Note_off_c, 9, 46, 64
11, 27648, Note_on_c, 9, 31, 96
11, 27648, Note_on_c, 9, 36, 110
11, 27648, Note_on_c, 9, 35, 110
11, 27648, Note_on_c, 9, 44, 110
11, 27744, Note_off_c, 9, 44, 64
11, 27744, Note_off_c, 9, 31, 64
11, 27840, Note_off_c, 9, 35, 64
11, 27840, Note_off_c, 9, 36, 64
11, 27936, Note_on_c, 9, 31, 64
11, 28032, Note_off_c, 9, 31, 64
11, 28032, Note_on_c, 9, 31, 96
11, 28032, Note_on_c, 9, 44, 110
11, 28128, Note_off_c, 9, 44, 64
11, 28128, Note_off_c, 9, 31, 64
11, 28320, Note_on_c, 9, 31, 64
11, 28416, Note_off_c, 9, 31, 64
11, 28416, Note_on_c, 9, 31, 96
11, 28416, Note_on_c, 9, 38, 110
11, 28416, Note_on_c, 9, 36, 110
11, 28416, Note_on_c, 9, 35, 110
11, 28416, Note_on_c, 9, 40, 110
11, 28416, Note_on_c, 9, 44, 110
11, 28512, Note_off_c, 9, 44, 64
11, 28512, Note_off_c, 9, 31, 64
11, 28608, Note_off_c, 9, 40, 64
11, 28608, Note_off_c, 9, 35, 64
11, 28608, Note_off_c, 9, 36, 64
11, 28608, Note_off_c, 9, 38, 64
11, 28704, Note_on_c, 9, 31, 64
11, 28800, Note_off_c, 9, 31, 64
11, 28800, Note_on_c, 9, 31, 96
11, 28800, Note_on_c, 9, 44, 110
11, 28896, Note_off_c, 9, 44, 64
11, 28896, Note_off_c, 9, 31, 64
11, 29088, Note_on_c, 9, 31, 64
11, 29184, Note_off_c, 9, 31, 64
11, 29184, Note_on_c, 9, 31, 96
11, 29184, Note_on_c, 9, 36, 110
11, 29184, Note_on_c, 9, 35, 110
11, 29184, Note_on_c, 9, 44, 110
11, 29280, Note_off_c, 9, 44, 64
11, 29280, Note_off_c, 9, 31, 64
11, 29376, Note_off_c, 9, 35, 64
11, 29376, Note_off_c, 9, 36, 64
11, 29472, Note_on_c, 9, 31, 64
11, 29568, Note_off_c, 9, 31, 64
11, 29568, Note_on_c, 9, 31, 96
11, 29568, Note_on_c, 9, 44, 110
11, 29664, Note_off_c, 9, 44, 64
11, 29664, Note_off_c, 9, 31, 64
11, 29856, Note_on_c, 9, 31, 64
11, 29952, Note_off_c, 9, 31, 64
11, 29952, Note_on_c, 9, 31, 96
11, 29952, Note_on_c, 9, 38, 110
11, 29952, Note_on_c, 9, 36, 110
11, 29952, Note_on_c, 9, 35, 110
11, 29952, Note_on_c, 9, 40, 110
11, 29952, Note_on_c, 9, 44, 110
11, 30048, Note_off_c, 9, 44, 64
11, 30048, Note_off_c, 9, 31, 64
11, 30144, Note_off_c, 9, 40, 64
11, 30144, Note_off_c, 9, 35, 64
11, 30144, Note_off_c, 9, 36, 64
11, 30144, Note_off_c, 9, 38, 64
11, 30240, Note_on_c, 9, 31, 64
11, 30336, Note_off_c, 9, 31, 64
11, 30336, Note_on_c, 9, 31, 96
11, 30336, Note_on_c, 9, 46, 110
11, 30432, Note_off_c, 9, 31, 64
11, 30624, Note_on_c, 9, 31, 64
11, 30720, Note_off_c, 9, 31, 64
11, 30720, Note_off_c, 9, 46, 64
11, 30720, Control_c, 9, 7, 100
11, 30720, Program_c, 9, 9
11, 30720, Note_on_c, 9, 31, 96
11, 30720, Note_on_c, 9, 36, 110
11, 30720, Note_on_c, 9, 35, 110
11, 30720, Note_on_c, 9, 44, 110
11, 30816, Note_off_c, 9, 44, 64
11, 30816, Note_off_c, 9, 31, 64
11, 30912, Note_off_c, 9, 35, 64
11, 30912, Note_off_c, 9, 36, 64
11, 31008, Note_on_c, 9, 31, 64
11, 31104, Note_off_c, 9, 31, 64
11, 31104, Note_on_c, 9, 31, 96
11, 31104, Note_on_c, 9, 44, 110
11, 31200, Note_off_c, 9, 44, 64
11, 31200, Note_off_c, 9, 31, 64
11, 31392, Note_on_c, 9, 31, 64
11, 31488, Note_off_c, 9, 31, 64
11, 31488, Note_on_c, 9, 31, 96
11, 31488, Note_on_c, 9, 38, 110
11, 31488, Note_on_c, 9, 36, 110
11, 31488, Note_on_c, 9, 35, 110
11, 31488, Note_on_c, 9, 40, 110
11, 31488, Note_on_c, 9, 44, 110
11, 31584, Note_off_c, 9, 44, 64
11, 31584, Note_off_c, 9, 31, 64
11, 31680, Note_off_c, 9, 40, 64
11, 31680, Note_off_c, 9, 35, 64
11, 31680, Note_off_c, 9, 36, 64
11, 31680, Note_off_c, 9, 38, 64
11, 31776, Note_on_c, 9, 31, 64
11, 31872, Note_off_c, 9, 31, 64
11, 31872, Note_on_c, 9, 31, 96
11, 31872, Note_on_c, 9, 44, 110
11, 31968, Note_off_c, 9, 44, 64
11, 31968, Note_off_c, 9, 31, 64
11, 32160, Note_on_c, 9, 31, 64
11, 32256, Note_off_c, 9, 31, 64
11, 32256, Note_on_c, 9, 31, 96
11, 32256, Note_on_c, 9, 36, 110
11, 32256, Note_on_c, 9, 35, 110
11, 32256, Note_on_c, 9, 44, 110
11, 32352, Note_off_c, 9, 44, 64
11, 32352, Note_off_c, 9, 31, 64
11, 32448, Note_off_c, 9, 35, 64
11, 32448, Note_off_c, 9, 36, 64
11, 32544, Note_on_c, 9, 31, 64
11, 32640, Note_off_c, 9, 31, 64
11, 32640, Note_on_c, 9, 31, 96
11, 32640, Note_on_c, 9, 44, 110
11, 32736, Note_off_c, 9, 44, 64
11, 32736, Note_off_c, 9, 31, 64
11, 32928, Note_on_c, 9, 31, 64
11, 33024, Note_off_c, 9, 31, 64
11, 33024, Note_on_c, 9, 31, 96
11, 33024, Note_on_c, 9, 38, 110
11, 33024, Note_on_c, 9, 36, 110
11, 33024, Note_on_c, 9, 35, 110
11, 33024, Note_on_c, 9, 40, 110
11, 33024, Note_on_c, 9, 44, 110
11, 33120, Note_off_c, 9, 44, 64
11, 33120, Note_off_c, 9, 31, 64
11, 33216, Note_off_c, 9, 40, 64
11, 33216, Note_off_c, 9, 35, 64
11, 33216, Note_off_c, 9, 36, 64
11, 33216, Note_off_c, 9, 38, 64
11, 33312, Note_on_c, 9, 31, 64
11, 33408, Note_off_c, 9, 31, 64
11, 33408, Note_on_c, 9, 31, 96
11, 33408, Note_on_c, 9, 46, 110
11, 33504, Note_off_c, 9, 31, 64
11, 33696, Note_on_c, 9, 31, 64
11, 33792, Note_off_c, 9, 31, 64
11, 33792, Note_off_c, 9, 46, 64
11, 33792, Note_on_c, 9, 31, 96
11, 33792, Note_on_c, 9, 36, 110
11, 33792, Note_on_c, 9, 35, 110
11, 33792, Note_on_c, 9, 44, 110
11, 33888, Note_off_c, 9, 44, 64
11, 33888, Note_off_c, 9, 31, 64
11, 33984, Note_off_c, 9, 35, 64
11, 33984, Note_off_c, 9, 36, 64
11, 34080, Note_on_c, 9, 31, 64
11, 34176, Note_off_c, 9, 31, 64
11, 34176, Note_on_c, 9, 31, 96
11, 34176, Note_on_c, 9, 44, 110
11, 34272, Note_off_c, 9, 44, 64
11, 34272, Note_off_c, 9, 31, 64
11, 34464, Note_on_c, 9, 31, 64
11, 34560, Note_off_c, 9, 31, 64
11, 34560, Note_on_c, 9, 31, 96
11, 34560, Note_on_c, 9, 38, 110
11, 34560, Note_on_c, 9, 36, 110
11, 34560, Note_on_c, 9, 35, 110
11, 34560, Note_on_c, 9, 40, 110
11, 34560, Note_on_c, 9, 44, 110
11, 34656, Note_off_c, 9, 44, 64
11, 34656, Note_off_c, 9, 31, 64
11, 34752, Note_off_c, 9, 40, 64
11, 34752, Note_off_c, 9, 35, 64
11, 34752, Note_off_c, 9, 36, 64
11, 34752, Note_off_c, 9, 38, 64
11, 34848, Note_on_c, 9, 31, 64
11, 34944, Note_off_c, 9, 31, 64
11, 34944, Note_on_c, 9, 31, 96
11, 34944, Note_on_c, 9, 44, 110
11, 35040, Note_off_c, 9, 44, 64
11, 35040, Note_off_c, 9, 31, 64
11, 35232, Note_on_c, 9, 31, 64
11, 35328, Note_off_c, 9, 31, 64
11, 35328, Note_on_c, 9, 31, 96
11, 35328, Note_on_c, 9, 36, 110
11, 35328, Note_on_c, 9, 35, 110
11, 35328, Note_on_c, 9, 44, 110
11, 35424, Note_off_c, 9, 44, 64
11, 35424, Note_off_c, 9, 31, 64
11, 35520, Note_off_c, 9, 35, 64
11, 35520, Note_off_c, 9, 36, 64
11, 35616, Note_on_c, 9, 31, 64
11, 35712, Note_off_c, 9, 31, 64
11, 35712, Note_on_c, 9, 31, 96
11, 35712, Note_on_c, 9, 44, 110
11, 35808, Note_off_c, 9, 44, 64
11, 35808, Note_off_c, 9, 31, 64
11, 36000, Note_on_c, 9, 31, 64
11, 36096, Note_off_c, 9, 31, 64
11, 36096, Note_on_c, 9, 31, 96
11, 36096, Note_on_c, 9, 38, 110
11, 36096, Note_on_c, 9, 36, 110
11, 36096, Note_on_c, 9, 35, 110
11, 36096, Note_on_c, 9, 40, 110
11, 36096, Note_on_c, 9, 44, 110
11, 36192, Note_off_c, 9, 44, 64
11, 36192, Note_off_c, 9, 31, 64
11, 36288, Note_off_c, 9, 40, 64
11, 36288, Note_off_c, 9, 35, 64
11, 36288, Note_off_c, 9, 36, 64
11, 36288, Note_off_c, 9, 38, 64
11, 36384, Note_on_c, 9, 31, 64
11, 36480, Note_off_c, 9, 31, 64
11, 36480, Note_on_c, 9, 31, 96
11, 36480, Note_on_c, 9, 46, 110
11, 36576, Note_off_c, 9, 31, 64
11, 36768, Note_on_c, 9, 31, 64
11, 36864, Note_off_c, 9, 31, 64
11, 36864, Note_off_c, 9, 46, 64
11, 36864, Control_c, 9, 7, 100
11, 36864, Program_c, 9, 9
11, 36864, Note_on_c, 9, 31, 96
11, 36864, Note_on_c, 9, 36, 110
11, 36864, Note_on_c, 9, 35, 110
11, 36864, Note_on_c, 9, 44, 110
11, 36960, Note_off_c, 9, 44, 64
11, 36960, Note_off_c, 9, 31, 64
11, 37056, Note_off_c, 9, 35, 64
11, 37056, Note_off_c, 9, 36, 64
11, 37152, Note_on_c, 9, 31, 64
11, 37248, Note_off_c, 9, 31, 64
11, 37248, Note_on_c, 9, 31, 96
11, 37248, Note_on_c, 9, 44, 110
11, 37344, Note_off_c, 9, 44, 64
11, 37344, Note_off_c, 9, 31, 64
11, 37536, Note_on_c, 9, 31, 64
11, 37632, Note_off_c, 9, 31, 64
11, 37632, Note_on_c, 9, 31, 96
11, 37632, Note_on_c, 9, 38, 110
11, 37632, Note_on_c, 9, 36, 110
11, 37632, Note_on_c, 9, 35, 110
11, 37632, Note_on_c, 9, 40, 110
11, 37632, Note_on_c, 9, 44, 110
11, 37728, Note_off_c, 9, 44, 64
11, 37728, Note_off_c, 9, 31, 64
11, 37824, Note_off_c, 9, 40, 64
11, 37824, Note_off_c, 9, 35, 64
11, 37824, Note_off_c, 9, 36, 64
11, 37824, Note_off_c, 9, 38, 64
11, 37920, Note_on_c, 9, 31, 64
11, 38016, Note_off_c, 9, 31, 64
11, 38016, Note_on_c, 9, 31, 96
11, 38016, Note_on_c, 9, 44, 110
11, 38112, Note_off_c, 9, 44, 64
11, 38112, Note_off_c, 9, 31, 64
11, 38304, Note_on_c, 9, 31, 64
11, 38400, Note_off_c, 9, 31, 64
11, 38400, Note_on_c, 9, 31, 96
11, 38400, Note_on_c, 9, 36, 110
11, 38400, Note_on_c, 9, 35, 110
11, 38400, Note_on_c, 9, 44, 110
11, 38496, Note_off_c, 9, 44, 64
11, 38496, Note_off_c, 9, 31, 64
11, 38592, Note_off_c, 9, 35, 64
11, 38592, Note_off_c, 9, 36, 64
11, 38688, Note_on_c, 9, 31, 64
11, 38784, Note_off_c, 9, 31, 64
11, 38784, Note_on_c, 9, 31, 96
11, 38784, Note_on_c, 9, 44, 110
11, 38880, Note_off_c, 9, 44, 64
11, 38880, Note_off_c, 9, 31, 64
11, 39072, Note_on_c, 9, 31, 64
11, 39168, Note_off_c, 9, 31, 64
11, 39168, Note_on_c, 9, 31, 96
11, 39168, Note_on_c, 9, 38, 110
11, 39168, Note_on_c, 9, 36, 110
11, 39168, Note_on_c, 9, 35, 110
11, 39168, Note_on_c, 9, 40, 110
11, 39168, Note_on_c, 9, 44, 110
11, 39264, Note_off_c, 9, 44, 64
11, 39264, Note_off_c, 9, 31, 64
11, 39360, Note_off_c, 9, 40, 64
11, 39360, Note_off_c, 9, 35, 64
11, 39360, Note_off_c, 9, 36, 64
11, 39360, Note_off_c, 9, 38, 64
11, 39456, Note_on_c, 9, 31, 64
11, 39552, Note_off_c, 9, 31, 64
11, 39552, Note_on_c, 9, 31, 96
11, 39552, Note_on_c, 9, 46, 110
11, 39648, Note_off_c, 9, 31, 64
11, 39840, Note_on_c, 9, 31, 64
11, 39936, Note_off_c, 9, 31, 64
11, 39936, Note_off_c, 9, 46, 64
11, 39936, Note_on_c, 9, 31, 96
11, 39936, Note_on_c, 9, 36, 110
11, 39936, Note_on_c, 9, 35, 110
11, 39936, Note_on_c, 9, 44, 110
11, 40032, Note_off_c, 9, 44, 64
11, 40032, Note_off_c, 9, 31, 64
11, 40128, Note_off_c, 9, 35, 64
11, 40128, Note_off_c, 9, 36, 64
11, 40224, Note_on_c, 9, 31, 64
11, 40320, Note_off_c, 9, 31, 64
11, 40320, Note_on_c, 9, 31, 96
11, 40320, Note_on_c, 9, 44, 110
11, 40416, Note_off_c, 9, 44, 64
11, 40416, Note_off_c, 9, 31, 64
11, 40608, Note_on_c, 9, 31, 64
11, 40704, Note_off_c, 9, 31, 64
11, 40704, Note_on_c, 9, 31, 96
11, 40704, Note_on_c, 9, 38, 110
11, 40704, Note_on_c, 9, 36, 110
11, 40704, Note_on_c, 9, 35, 110
11, 40704, Note_on_c, 9, 40, 110
11, 40704, Note_on_c, 9, 44, 110
11, 40800, Note_off_c, 9, 44, 64
11, 40800, Note_off_c, 9, 31, 64
11, 40896, Note_off_c, 9, 40, 64
11, 40896, Note_off_c, 9, 35, 64
11, 40896, Note_off_c, 9, 36, 64
11, 40896, Note_off_c, 9, 38, 64
11, 40992, Note_on_c, 9, 31, 64
11, 41088, Note_off_c, 9, 31, 64
11, 41088, Note_on_c, 9, 31, 96
11, 41088, Note_on_c, 9, 44, 110
11, 41184, Note_off_c, 9, 44, 64
11, 41184, Note_off_c, 9, 31, 64
11, 41376, Note_on_c, 9, 31, 64
11, 41472, Note_off_c, 9, 31, 64
11, 41472, Note_on_c, 9, 31, 96
11, 41472, Note_on_c, 9, 36, 110
11, 41472, Note_on_c, 9, 35, 110
11, 41472, Note_on_c, 9, 44, 110
11, 41568, Note_off_c, 9, 44, 64
11, 41568, Note_off_c, 9, 31, 64
11, 41664, Note_off_c, 9, 35, 64
11, 41664, Note_off_c, 9, 36, 64
11, 41760, Note_on_c, 9, 31, 64
11, 41856, Note_off_c, 9, 31, 64
11, 41856, Note_on_c, 9, 31, 96
11, 41856, Note_on_c, 9, 44, 110
11, 41952, Note_off_c, 9, 44, 64
11, 41952, Note_off_c, 9, 31, 64
11, 42144, Note_on_c, 9, 31, 64
11, 42240, Note_off_c, 9, 31, 64
11, 42240, Note_on_c, 9, 31, 96
11, 42240, Note_on_c, 9, 38, 110
11, 42240, Note_on_c, 9, 36, 110
11, 42240, Note_on_c, 9, 35, 110
11, 42240, Note_on_c, 9, 40, 110
11, 42240, Note_on_c, 9, 44, 110
11, 42336, Note_off_c, 9, 44, 64
11, 42336, Note_off_c, 9, 31, 64
11, 42432, Note_off_c, 9, 40, 64
11, 42432, Note_off_c, 9, 35, 64
11, 42432, Note_off_c, 9, 36, 64
11, 42432, Note_off_c, 9, 38, 64
11, 42528, Note_on_c, 9, 31, 64
11, 42624, Note_off_c, 9, 31, 64
11, 42624, Note_on_c, 9, 31, 96
11, 42624, Note_on_c, 9, 46, 110
11, 42720, Note_off_c, 9, 31, 64
11, 42912, Note_on_c, 9, 31, 64
11, 43008, Note_off_c, 9, 31, 64
11, 43008, Note_off_c, 9, 46, 64
11, 43008, Control_c, 9, 7, 100
11, 43008, Program_c, 9, 9
11, 43008, Note_on_c, 9, 31, 96
11, 43008, Note_on_c, 9, 36, 110
11, 43008, Note_on_c, 9, 35, 110
11, 43008, Note_on_c, 9, 44, 110
11, 43104, Note_off_c, 9, 44, 64
11, 43104, Note_off_c, 9, 31, 64
11, 43200, Note_off_c, 9, 35, 64
11, 43200, Note_off_c, 9, 36, 64
11, 43296, Note_on_c, 9, 31, 64
11, 43392, Note_off_c, 9, 31, 64
11, 43392, Note_on_c, 9, 31, 96
11, 43392, Note_on_c, 9, 44, 110
11, 43488, Note_off_c, 9, 44, 64
11, 43488, Note_off_c, 9, 31, 64
11, 43680, Note_on_c, 9, 31, 64
11, 43776, Note_off_c, 9, 31, 64
11, 43776, Note_on_c, 9, 31, 96
11, 43776, Note_on_c, 9, 38, 110
11, 43776, Note_on_c, 9, 36, 110
11, 43776, Note_on_c, 9, 35, 110
11, 43776, Note_on_c, 9, 40, 110
11, 43776, Note_on_c, 9, 44, 110
11, 43872, Note_off_c, 9, 44, 64
11, 43872, Note_off_c, 9, 31, 64
11, 43968, Note_off_c, 9, 40, 64
11, 43968, Note_off_c, 9, 35, 64
11, 43968, Note_off_c, 9, 36, 64
11, 43968, Note_off_c, 9, 38, 64
11, 44064, Note_on_c, 9, 31, 64
11, 44160, Note_off_c, 9, 31, 64
11, 44160, Note_on_c, 9, 31, 96
11, 44160, Note_on_c, 9, 44, 110
11, 44256, Note_off_c, 9, 44, 64
11, 44256, Note_off_c, 9, 31, 64
11, 44448, Note_on_c, 9, 31, 64
11, 44544, Note_off_c, 9, 31, 64
11, 44544, Note_on_c, 9, 31, 96
11, 44544, Note_on_c, 9, 36, 110
11, 44544, Note_on_c, 9, 35, 110
11, 44544, Note_on_c, 9, 44, 110
11, 44640, Note_off_c, 9, 44, 64
11, 44640, Note_off_c, 9, 31, 64
11, 44736, Note_off_c, 9, 35, 64
11, 44736, Note_off_c, 9, 36, 64
11, 44832, Note_on_c, 9, 31, 64
11, 44928, Note_off_c, 9, 31, 64
11, 44928, Note_on_c, 9, 31, 96
11, 44928, Note_on_c, 9, 44, 110
11, 45024, Note_off_c, 9, 44, 64
11, 45024, Note_off_c, 9, 31, 64
11, 45216, Note_on_c, 9, 31, 64
11, 45312, Note_off_c, 9, 31, 64
11, 45312, Note_on_c, 9, 31, 96
11, 45312, Note_on_c, 9, 38, 110
11, 45312, Note_on_c, 9, 36, 110
11, 45312, Note_on_c, 9, 35, 110
11, 45312, Note_on_c, 9, 40, 110
11, 45312, Note_on_c, 9, 44, 110
11, 45408, Note_off_c, 9, 44, 64
11, 45408, Note_off_c, 9, 31, 64
11, 45504, Note_off_c, 9, 40, 64
11, 45504, Note_off_c, 9, 35, 64
11, 45504, Note_off_c, 9, 36, 64
11, 45504, Note_off_c, 9, 38, 64
11, 45600, Note_on_c, 9, 31, 64
11, 45696, Note_off_c, 9, 31, 64
11, 45696, Note_on_c, 9, 31, 96
11, 45696, Note_on_c, 9, 46, 110
11, 45792, Note_off_c, 9, 31, 64
11, 45984, Note_on_c, 9, 31, 64
11, 46080, Note_off_c, 9, 31, 64
11, 46080, Note_off_c, 9, 46, 64
11, 46080, Note_on_c, 9, 31, 96
11, 46080, Note_on_c, 9, 36, 110
11, 46080, Note_on_c, 9, 35, 110
11, 46080, Note_on_c, 9, 44, 110
11, 46176, Note_off_c, 9, 44, 64
11, 46176, Note_off_c, 9, 31, 64
11, 46272, Note_off_c, 9, 35, 64
11, 46272, Note_off_c, 9, 36, 64
11, 46368, Note_on_c, 9, 31, 64
11, 46464, Note_off_c, 9, 31, 64
11, 46464, Note_on_c, 9, 31, 96
11, 46464, Note_on_c, 9, 44, 110
11, 46560, Note_off_c, 9, 44, 64
11, 46560, Note_off_c, 9, 31, 64
11, 46752, Note_on_c, 9, 31, 64
11, 46848, Note_off_c, 9, 31, 64
11, 46848, Note_on_c, 9, 31, 96
11, 46848, Note_on_c, 9, 38, 110
11, 46848, Note_on_c, 9, 36, 110
11, 46848, Note_on_c, 9, 35, 110
11, 46848, Note_on_c, 9, 40, 110
11, 46848, Note_on_c, 9, 44, 110
11, 46944, Note_off_c, 9, 44, 64
11, 46944, Note_off_c, 9, 31, 64
11, 47040, Note_off_c, 9, 40, 64
11, 47040, Note_off_c, 9, 35, 64
11, 47040, Note_off_c, 9, 36, 64
11, 47040, Note_off_c, 9, 38, 64
11, 47136, Note_on_c, 9, 31, 64
11, 47232, Note_off_c, 9, 31, 64
11, 47232, Note_on_c, 9, 31, 96
11, 47232, Note_on_c, 9, 44, 110
11, 47328, Note_off_c, 9, 44, 64
11, 47328, Note_off_c, 9, 31, 64
11, 47520, Note_on_c, 9, 31, 64
11, 47616, Note_off_c, 9, 31, 64
11, 47616, Note_on_c, 9, 31, 96
11, 47616, Note_on_c, 9, 36, 110
11, 47616, Note_on_c, 9, 35, 110
11, 47616, Note_on_c, 9, 44, 110
11, 47712, Note_off_c, 9, 44, 64
11, 47712, Note_off_c, 9, 31, 64
11, 47808, Note_off_c, 9, 35, 64
11, 47808, Note_off_c, 9, 36, 64
11, 47904, Note_on_c, 9, 31, 64
11, 48000, Note_off_c, 9, 31, 64
11, 48000, Note_on_c, 9, 31, 96
11, 48000, Note_on_c, 9, 44, 110
11, 48096, Note_off_c, 9, 44, 64
11, 48096, Note_off_c, 9, 31, 64
11, 48288, Note_on_c, 9, 31, 64
11, 48384, Note_off_c, 9, 31, 64
11, 48384, Note_on_c, 9, 31, 96
11, 48384, Note_on_c, 9, 38, 110
11, 48384, Note_on_c, 9, 36, 110
11, 48384, Note_on_c, 9, 35, 110
11, 48384, Note_on_c, 9, 40, 110
11, 48384, Note_on_c, 9, 44, 110
11, 48480, Note_off_c, 9, 44, 64
11, 48480, Note_off_c, 9, 31, 64
11, 48576, Note_off_c, 9, 40, 64
11, 48576, Note_off_c, 9, 35, 64
11, 48576, Note_off_c, 9, 36, 64
11, 48576, Note_off_c, 9, 38, 64
11, 48672, Note_on_c, 9, 31, 64
11, 48768, Note_off_c, 9, 31, 64
11, 48768, Note_on_c, 9, 31, 96
11, 48768, Note_on_c, 9, 46, 110
11, 48864, Note_off_c, 9, 31, 64
11, 49056, Note_on_c, 9, 31, 64
11, 49152, Note_off_c, 9, 31, 64
11, 49152, Note_off_c, 9, 46, 64
11, 49152, Control_c, 9, 7, 100
11, 49152, Program_c, 9, 9
11, 49152, Note_on_c, 9, 31, 96
11, 49152, Note_on_c, 9, 36, 110
11, 49152, Note_on_c, 9, 35, 110
11, 49152, Note_on_c, 9, 44, 110
11, 49248, Note_off_c, 9, 44, 64
11, 49248, Note_off_c, 9, 31, 64
11, 49344, Note_off_c, 9, 35, 64
11, 49344, Note_off_c, 9, 36, 64
11, 49440, Note_on_c, 9, 31, 64
11, 49536, Note_off_c, 9, 31, 64
11, 49536, Note_on_c, 9, 31, 96
11, 49536, Note_on_c, 9, 44, 110
11, 49632, Note_off_c, 9, 44, 64
11, 49632, Note_off_c, 9, 31, 64
11, 49824, Note_on_c, 9, 31, 64
11, 49920, Note_off_c, 9, 31, 64
11, 49920, Note_on_c, 9, 31, 96
11, 49920, Note_on_c, 9, 38, 110
11, 49920, Note_on_c, 9, 36, 110
11, 49920, Note_on_c, 9, 35, 110
11, 49920, Note_on_c, 9, 40, 110
11, 49920, Note_on_c, 9, 44, 110
11, 50016, Note_off_c, 9, 44, 64
11, 50016, Note_off_c, 9, 31, 64
11, 50112, Note_off_c, 9, 40, 64
11, 50112, Note_off_c, 9, 35, 64
11, 50112, Note_off_c, 9, 36, 64
11, 50112, Note_off_c, 9, 38, 64
11, 50208, Note_on_c, 9, 31, 64
11, 50304, Note_off_c, 9, 31, 64
11, 50304, Note_on_c, 9, 31, 96
11, 50304, Note_on_c, 9, 44, 110
11, 50400, Note_off_c, 9, 44, 64
11, 50400, Note_off_c, 9, 31, 64
11, 50592, Note_on_c, 9, 31, 64
11, 50688, Note_off_c, 9, 31, 64
11, 50688, Note_on_c, 9, 31, 96
11, 50688, Note_on_c, 9, 36, 110
11, 50688, Note_on_c, 9, 35, 110
11, 50688, Note_on_c, 9, 44, 110
11, 50784, Note_off_c, 9, 44, 64
11, 50784, Note_off_c, 9, 31, 64
11, 50880, Note_off_c, 9, 35, 64
11, 50880, Note_off_c, 9, 36, 64
11, 50976, Note_on_c, 9, 31, 64
11, 51072, Note_off_c, 9, 31, 64
11, 51072, Note_on_c, 9, 31, 96
11, 51072, Note_on_c, 9, 44, 110
11, 51168, Note_off_c, 9, 44, 64
11, 51168, Note_off_c, 9, 31, 64
11, 51360, Note_on_c, 9, 31, 64
11, 51456, Note_off_c, 9, 31, 64
11, 51456, Note_on_c, 9, 31, 96
11, 51456, Note_on_c, 9, 38, 110
11, 51456, Note_on_c, 9, 36, 110
11, 51456, Note_on_c, 9, 35, 110
11, 51456, Note_on_c, 9, 40, 110
11, 51456, Note_on_c, 9, 44, 110
11, 51552, Note_off_c, 9, 44, 64
11, 51552, Note_off_c, 9, 31, 64
11, 51648, Note_off_c, 9, 40, 64
11, 51648, Note_off_c, 9, 35, 64
11, 51648, Note_off_c, 9, 36, 64
11, 51648, Note_off_c, 9, 38, 64
11, 51744, Note_on_c, 9, 31, 64
11, 51840, Note_off_c, 9, 31, 64
11, 51840, Note_on_c, 9, 31, 96
11, 51840, Note_on_c, 9, 46, 110
11, 51936, Note_off_c, 9, 31, 64
11, 52128, Note_on_c, 9, 31, 64
11, 52224, Note_off_c, 9, 31, 64
11, 52224, Note_off_c, 9, 46, 64
11, 52224, Note_on_c, 9, 31, 96
11, 52224, Note_on_c, 9, 36, 110
11, 52224, Note_on_c, 9, 35, 110
11, 52224, Note_on_c, 9, 44, 110
11, 52320, Note_off_c, 9, 44, 64
11, 52320, Note_off_c, 9, 31, 64
11, 52416, Note_off_c, 9, 35, 64
11, 52416, Note_off_c, 9, 36, 64
11, 52512, Note_on_c, 9, 31, 64
11, 52608, Note_off_c, 9, 31, 64
11, 52608, Note_on_c, 9, 31, 96
11, 52608, Note_on_c, 9, 44, 110
11, 52704, Note_off_c, 9, 44, 64
11, 52704, Note_off_c, 9, 31, 64
11, 52896, Note_on_c, 9, 31, 64
11, 52992, Note_off_c, 9, 31, 64
11, 52992, Note_on_c, 9, 31, 96
11, 52992, Note_on_c, 9, 38, 110
11, 52992, Note_on_c, 9, 36, 110
11, 52992, Note_on_c, 9, 35, 110
11, 52992, Note_on_c, 9, 40, 110
11, 52992, Note_on_c, 9, 44, 110
11, 53088, Note_off_c, 9, 44, 64
11, 53088, Note_off_c, 9, 31, 64
11, 53184, Note_off_c, 9, 40, 64
11, 53184, Note_off_c, 9, 35, 64
11, 53184, Note_off_c, 9, 36, 64
11, 53184, Note_off_c, 9, 38, 64
11, 53280, Note_on_c, 9, 31, 64
11, 53376, Note_off_c, 9, 31, 64
11, 53376, Note_on_c, 9, 31, 96
11, 53376, Note_on_c, 9, 44, 110
11, 53472, Note_off_c, 9, 44, 64
11, 53472, Note_off_c, 9, 31, 64
11, 53664, Note_on_c, 9, 31, 64
11, 53760, Note_off_c, 9, 31, 64
11, 53760, Note_on_c, 9, 31, 96
11, 53760, Note_on_c, 9, 36, 110
11, 53760, Note_on_c, 9, 35, 110
11, 53760, Note_on_c, 9, 44, 110
11, 53856, Note_off_c, 9, 44, 64
11, 53856, Note_off_c, 9, 31, 64
11, 53952, Note_off_c, 9, 35, 64
11, 53952, Note_off_c, 9, 36, 64
11, 54048, Note_on_c, 9, 31, 64
11, 54144, Note_off_c, 9, 31, 64
11, 54144, Note_on_c, 9, 31, 96
11, 54144, Note_on_c, 9, 44, 110
11, 54240, Note_off_c, 9, 44, 64
11, 54240, Note_off_c, 9, 31, 64
11, 54432, Note_on_c, 9, 31, 64
11, 54528, Note_off_c, 9, 31, 64
11, 54528, Note_on_c, 9, 31, 96
11, 54528, Note_on_c, 9, 38, 110
11, 54528, Note_on_c, 9, 36, 110
11, 54528, Note_on_c, 9, 35, 110
11, 54528, Note_on_c, 9, 40, 110
11, 54528, Note_on_c, 9, 44, 110
11, 54624, Note_off_c, 9, 44, 64
11, 54624, Note_off_c, 9, 31, 64
11, 54720, Note_off_c, 9, 40, 64
11, 54720, Note_off_c, 9, 35, 64
11, 54720, Note_off_c, 9, 36, 64
11, 54720, Note_off_c, 9, 38, 64
11, 54816, Note_on_c, 9, 31, 64
11, 54912, Note_off_c, 9, 31, 64
11, 54912, Note_on_c, 9, 31, 96
11, 54912, Note_on_c, 9, 46, 110
11, 55008, Note_off_c, 9, 31, 64
11, 55200, Note_on_c, 9, 31, 64
11, 55296, Note_off_c, 9, 31, 64
11, 55296, Note_off_c, 9, 46, 64
11, 55296, Control_c, 9, 7, 100
11, 55296, Program_c, 9, 9
11, 55296, Note_on_c, 9, 31, 96
11, 55296, Note_on_c, 9, 36, 110
11, 55296, Note_on_c, 9, 35, 110
11, 55296, Note_on_c, 9, 44, 110
11, 55392, Note_off_c, 9, 44, 64
11, 55392, Note_off_c, 9, 31, 64
11, 55488, Note_off_c, 9, 35, 64
11, 55488, Note_off_c, 9, 36, 64
11, 55584, Note_on_c, 9, 31, 64
11, 55680, Note_off_c, 9, 31, 64
11, 55680, Note_on_c, 9, 31, 96
11, 55680, Note_on_c, 9, 44, 110
11, 55776, Note_off_c, 9, 44, 64
11, 55776, Note_off_c, 9, 31, 64
11, 55968, Note_on_c, 9, 31, 64
11, 56064, Note_off_c, 9, 31, 64
11, 56064, Note_on_c, 9, 31, 96
11, 56064, Note_on_c, 9, 38, 110
11, 56064, Note_on_c, 9, 36, 110
11, 56064, Note_on_c, 9, 35, 110
11, 56064, Note_on_c, 9, 40, 110
11, 56064, Note_on_c, 9, 44, 110
11, 56160, Note_off_c, 9, 44, 64
11, 56160, Note_off_c, 9, 31, 64
11, 56256, Note_off_c, 9, 40, 64
11, 56256, Note_off_c, 9, 35, 64
11, 56256, Note_off_c, 9, 36, 64
11, 56256, Note_off_c, 9, 38, 64
11, 56352, Note_on_c, 9, 31, 64
11, 56448, Note_off_c, 9, 31, 64
11, 56448, Note_on_c, 9, 31, 96
11, 56448, Note_on_c, 9, 44, 110
11, 56544, Note_off_c, 9, 44, 64
11, 56544, Note_off_c, 9, 31, 64
11, 56736, Note_on_c, 9, 31, 64
11, 56832, Note_off_c, 9, 31, 64
11, 56832, Note_on_c, 9, 31, 96
11, 56832, Note_on_c, 9, 36, 110
11, 56832, Note_on_c, 9, 35, 110
11, 56832, Note_on_c, 9, 44, 110
11, 56928, Note_off_c, 9, 44, 64
11, 56928, Note_off_c, 9, 31, 64
11, 57024, Note_off_c, 9, 35, 64
11, 57024, Note_off_c, 9, 36, 64
11, 57120, Note_on_c, 9, 31, 64
11, 57216, Note_off_c, 9, 31, 64
11, 57216, Note_on_c, 9, 31, 96
11, 57216, Note_on_c, 9, 44, 110
11, 57312, Note_off_c, 9, 44, 64
11, 57312, Note_off_c, 9, 31, 64
11, 57504, Note_on_c, 9, 31, 64
11, 57600, Note_off_c, 9, 31, 64
11, 57600, Note_on_c, 9, 31, 96
11, 57600, Note_on_c, 9, 38, 110
11, 57600, Note_on_c, 9, 36, 110
11, 57600, Note_on_c, 9, 35, 110
11, 57600, Note_on_c, 9, 40, 110
11, 57600, Note_on_c, 9, 44, 110
11, 57696, Note_off_c, 9, 44, 64
11, 57696, Note_off_c, 9, 31, 64
11, 57792, Note_off_c, 9, 40, 64
11, 57792, Note_off_c, 9, 35, 64
11, 57792, Note_off_c, 9, 36, 64
11, 57792, Note_off_c, 9, 38, 64
11, 57888, Note_on_c, 9, 31, 64
11, 57984, Note_off_c, 9, 31, 64
11, 57984, Note_on_c, 9, 31, 96
11, 57984, Note_on_c, 9, 46, 110
11, 58080, Note_off_c, 9, 31, 64
11, 58272, Note_on_c, 9, 31, 64
11, 58368, Note_off_c, 9, 31, 64
11, 58368, Note_off_c, 9, 46, 64
11, 58368, Note_on_c, 9, 31, 96
11, 58368, Note_on_c, 9, 36, 110
11, 58368, Note_on_c, 9, 35, 110
11, 58368, Note_on_c, 9, 44, 110
11, 58464, Note_off_c, 9, 44, 64
11, 58464, Note_off_c, 9, 31, 64
11, 58560, Note_off_c, 9, 35, 64
11, 58560, Note_off_c, 9, 36, 64
11, 58656, Note_on_c, 9, 31, 64
11, 58752, Note_off_c, 9, 31, 64
11, 58752, Note_on_c, 9, 31, 96
11, 58752, Note_on_c, 9, 44, 110
11, 58848, Note_off_c, 9, 44, 64
11, 58848, Note_off_c, 9, 31, 64
11, 59040, Note_on_c, 9, 31, 64
11, 59136, Note_off_c, 9, 31, 64
11, 59136, Note_on_c, 9, 31, 96
11, 59136, Note_on_c, 9, 38, 110
11, 59136, Note_on_c, 9, 36, 110
11, 59136, Note_on_c, 9, 35, 110
11, 59136, Note_on_c, 9, 40, 110
11, 59136, Note_on_c, 9, 44, 110
11, 59232, Note_off_c, 9, 44, 64
11, 59232, Note_off_c, 9, 31, 64
11, 59328, Note_off_c, 9, 40, 64
11, 59328, Note_off_c, 9, 35, 64
11, 59328, Note_off_c, 9, 36, 64
11, 59328, Note_off_c, 9, 38, 64
11, 59424, Note_on_c, 9, 31, 64
11, 59520, Note_off_c, 9, 31, 64
11, 59520, Note_on_c, 9, 31, 96
11, 59520, Note_on_c, 9, 44, 110
11, 59616, Note_off_c, 9, 44, 64
11, 59616, Note_off_c, 9, 31, 64
11, 59808, Note_on_c, 9, 31, 64
11, 59904, Note_off_c, 9, 31, 64
11, 59904, Note_on_c, 9, 38, 64
11, 59904, Note_on_c, 9, 40, 64
11, 59904, Note_on_c, 9, 31, 96
11, 59904, Note_on_c, 9, 36, 110
11, 59904, Note_on_c, 9, 35, 110
11, 59904, Note_on_c, 9, 44, 110
11, 60000, Note_off_c, 9, 44, 64
11, 60000, Note_off_c, 9, 31, 64
11, 60096, Note_off_c, 9, 35, 64
11, 60096, Note_off_c, 9, 36, 64
11, 60096, Note_off_c, 9, 40, 64
11, 60096, Note_off_c, 9, 38, 64
11, 60192, Note_on_c, 9, 38, 64
11, 60192, Note_on_c, 9, 40, 64
11, 60192, Note_on_c, 9, 31, 64
11, 60288, Note_off_c, 9, 31, 64
11, 60288, Note_on_c, 9, 31, 96
11, 60288, Note_on_c, 9, 44, 110
11, 60384, Note_off_c, 9, 44, 64
11, 60384, Note_off_c, 9, 31, 64
11, 60384, Note_off_c, 9, 40, 64
11, 60384, Note_off_c, 9, 38, 64
11, 60576, Note_on_c, 9, 38, 64
11, 60576, Note_on_c, 9, 40, 64
11, 60576, Note_on_c, 9, 31, 64
11, 60672, Note_off_c, 9, 31, 64
11, 60672, Note_off_c, 9, 40, 64
11, 60672, Note_off_c, 9, 38, 64
11, 60672, Note_on_c, 9, 38, 110
11, 60672, Note_on_c, 9, 40, 110
11, 60672, Note_on_c, 9, 31, 96
11, 60672, Note_on_c, 9, 36, 110
11, 60672, Note_on_c, 9, 35, 110
11, 60672, Note_on_c, 9, 44, 110
11, 60768, Note_off_c, 9, 44, 64
11, 60768, Note_off_c, 9, 31, 64
11, 60864, Note_off_c, 9, 35, 64
11, 60864, Note_off_c, 9, 36, 64
11, 60864, Note_off_c, 9, 40, 64
11, 60864, Note_off_c, 9, 38, 64
11, 60960, Note_on_c, 9, 38, 64
11, 60960, Note_on_c, 9, 40, 64
11, 60960, Note_on_c, 9, 31, 64
11, 61056, Note_off_c, 9, 31, 64
11, 61056, Note_off_c, 9, 40, 64
11, 61056, Note_off_c, 9, 38, 64
11, 61056, Note_on_c, 9, 38, 64
11, 61056, Note_on_c, 9, 40, 64
11, 61056, Note_on_c, 9, 31, 96
11, 61056, Note_on_c, 9, 46, 110
11, 61152, Note_off_c, 9, 31, 64
11, 61248, Note_off_c, 9, 40, 64
11, 61248, Note_off_c, 9, 38, 64
11, 61344, Note_on_c, 9, 31, 64
11, 61440, Note_off_c, 9, 31, 64
11, 61440, Note_off_c, 9, 46, 64
11, 61440, Control_c, 9, 7, 100
11, 61440, Program_c, 9, 9
11, 61440, Note_on_c, 9, 31, 96
11, 61440, Note_on_c, 9, 36, 110
11, 61440, Note_on_c, 9, 35, 110
11, 61440, Note_on_c, 9, 44, 110
11, 61536, Note_off_c, 9, 44, 64
11, 61536, Note_off_c, 9, 31, 64
11, 61632, Note_off_c, 9, 35, 64
11, 61632, Note_off_c, 9, 36, 64
11, 61728, Note_on_c, 9, 31, 64
11, 61824, Note_off_c, 9, 31, 64
11, 61824, Note_on_c, 9, 31, 96
11, 61824, Note_on_c, 9, 44, 110
11, 61920, Note_off_c, 9, 44, 64
11, 61920, Note_off_c, 9, 31, 64
11, 62112, Note_on_c, 9, 31, 64
11, 62208, Note_off_c, 9, 31, 64
11, 62208, Note_on_c, 9, 31, 96
11, 62208, Note_on_c, 9, 38, 110
11, 62208, Note_on_c, 9, 36, 110
11, 62208, Note_on_c, 9, 35, 110
11, 62208, Note_on_c, 9, 40, 110
11, 62208, Note_on_c, 9, 44, 110
11, 62304, Note_off_c, 9, 44, 64
11, 62304, Note_off_c, 9, 31, 64
11, 62400, Note_off_c, 9, 40, 64
11, 62400, Note_off_c, 9, 35, 64
11, 62400, Note_off_c, 9, 36, 64
11, 62400, Note_off_c, 9, 38, 64
11, 62496, Note_on_c, 9, 31, 64
11, 62592, Note_off_c, 9, 31, 64
11, 62592, Note_on_c, 9, 31, 96
11, 62592, Note_on_c, 9, 44, 110
11, 62688, Note_off_c, 9, 44, 64
11, 62688, Note_off_c, 9, 31, 64
11, 62880, Note_on_c, 9, 31, 64
11, 62976, Note_off_c, 9, 31, 64
11, 62976, Note_on_c, 9, 31, 96
11, 62976, Note_on_c, 9, 36, 110
11, 62976, Note_on_c, 9, 35, 110
11, 62976, Note_on_c, 9, 44, 110
11, 63072, Note_off_c, 9, 44, 64
11, 63072, Note_off_c, 9, 31, 64
11, 63168, Note_off_c, 9, 35, 64
11, 63168, Note_off_c, 9, 36, 64
11, 63264, Note_on_c, 9, 31, 64
11, 63360, Note_off_c, 9, 31, 64
11, 63360, Note_on_c, 9, 31, 96
11, 63360, Note_on_c, 9, 44, 110
11, 63456, Note_off_c, 9, 44, 64
11, 63456, Note_off_c, 9, 31, 64
11, 63648, Note_on_c, 9, 31, 64
11, 63744, Note_off_c, 9, 31, 64
11, 63744, Note_on_c, 9, 31, 96
11, 63744, Note_on_c, 9, 38, 110
11, 63744, Note_on_c, 9, 36, 110
11, 63744, Note_on_c, 9, 35, 110
11, 63744, Note_on_c, 9, 40, 110
11, 63744, Note_on_c, 9, 44, 110
11, 63840, Note_off_c, 9, 44, 64
11, 63840, Note_off_c, 9, 31, 64
11, 63936, Note_off_c, 9, 40, 64
11, 63936, Note_off_c, 9, 35, 64
11, 63936, Note_off_c, 9, 36, 64
11, 63936, Note_off_c, 9, 38, 64
11, 64032, Note_on_c, 9, 31, 64
11, 64128, Note_off_c, 9, 31, 64
11, 64128, Note_on_c, 9, 31, 96
11, 64128, Note_on_c, 9, 46, 110
11, 64224, Note_off_c, 9, 31, 64
11, 64416, Note_on_c, 9, 31, 64
11, 64512, Note_off_c, 9, 31, 64
11, 64512, Note_off_c, 9, 46, 64
11, 64512, Note_on_c, 9, 31, 96
11, 64512, Note_on_c, 9, 36, 110
11, 64512, Note_on_c, 9, 35, 110
11, 64512, Note_on_c, 9, 44, 110
11, 64608, Note_off_c, 9, 44, 64
11, 64608, Note_off_c, 9, 31, 64
11, 64704, Note_off_c, 9, 35, 64
11, 64704, Note_off_c, 9, 36, 64
11, 64800, Note_on_c, 9, 31, 64
11, 64896, Note_off_c, 9, 31, 64
11, 64896, Note_on_c, 9, 31, 96
11, 64896, Note_on_c, 9, 44, 110
11, 64992, Note_off_c, 9, 44, 64
11, 64992, Note_off_c, 9, 31, 64
11, 65184, Note_on_c, 9, 31, 64
11, 65280, Note_off_c, 9, 31, 64
11, 65280, Note_on_c, 9, 31, 96
11, 65280, Note_on_c, 9, 38, 110
11, 65280, Note_on_c, 9, 36, 110
11, 65280, Note_on_c, 9, 35, 110
11, 65280, Note_on_c, 9, 40, 110
11, 65280, Note_on_c, 9, 44, 110
11, 65376, Note_off_c, 9, 44, 64
11, 65376, Note_off_c, 9, 31, 64
11, 65472, Note_off_c, 9, 40, 64
11, 65472, Note_off_c, 9, 35, 64
11, 65472, Note_off_c, 9, 36, 64
11, 65472, Note_off_c, 9, 38, 64
11, 65568, Note_on_c, 9, 31, 64
11, 65664, Note_off_c, 9, 31, 64
11, 65664, Note_on_c, 9, 31, 96
11, 65664, Note_on_c, 9, 44, 110
11, 65760, Note_off_c, 9, 44, 64
11, 65760, Note_off_c, 9, 31, 64
11, 65952, Note_on_c, 9, 31, 64
11, 66048, Note_off_c, 9, 31, 64
11, 66048, Note_on_c, 9, 31, 96
11, 66048, Note_on_c, 9, 36, 110
11, 66048, Note_on_c, 9, 35, 110
11, 66048, Note_on_c, 9, 44, 110
11, 66144, Note_off_c, 9, 44, 64
11, 66144, Note_off_c, 9, 31, 64
11, 66240, Note_off_c, 9, 35, 64
11, 66240, Note_off_c, 9, 36, 64
11, 66336, Note_on_c, 9, 31, 64
11, 66432, Note_off_c, 9, 31, 64
11, 66432, Note_on_c, 9, 31, 96
11, 66432, Note_on_c, 9, 44, 110
11, 66528, Note_off_c, 9, 44, 64
11, 66528, Note_off_c, 9, 31, 64
11, 66720, Note_on_c, 9, 31, 64
11, 66816, Note_off_c, 9, 31, 64
11, 66816, Note_on_c, 9, 31, 96
11, 66816, Note_on_c, 9, 38, 110
11, 66816, Note_on_c, 9, 36, 110
11, 66816, Note_on_c, 9, 35, 110
11, 66816, Note_on_c, 9, 40, 110
11, 66816, Note_on_c, 9, 44, 110
11, 66912, Note_off_c, 9, 44, 64
11, 66912, Note_off_c, 9, 31, 64
11, 67008, Note_off_c, 9, 40, 64
11, 67008, Note_off_c, 9, 35, 64
11, 67008, Note_off_c, 9, 36, 64
11, 67008, Note_off_c, 9, 38, 64
11, 67104, Note_on_c, 9, 31, 64
11, 67200, Note_off_c, 9, 31, 64
11, 67200, Note_on_c, 9, 31, 96
11, 67200, Note_on_c, 9, 46, 110
11, 67296, Note_off_c, 9, 31, 64
11, 67488, Note_on_c, 9, 31, 64
11, 67584, Note_off_c, 9, 31, 64
11, 67584, Note_off_c, 9, 46, 64
11, 67584, Control_c, 9, 7, 100
11, 67584, Program_c, 9, 9
11, 67584, Note_on_c, 9, 31, 96
11, 67584, Note_on_c, 9, 36, 110
11, 67584, Note_on_c, 9, 35, 110
11, 67584, Note_on_c, 9, 44, 110
11, 67680, Note_off_c, 9, 44, 64
11, 67680, Note_off_c, 9, 31, 64
11, 67776, Note_off_c, 9, 35, 64
11, 67776, Note_off_c, 9, 36, 64
11, 67872, Note_on_c, 9, 31, 64
11, 67968, Note_off_c, 9, 31, 64
11, 67968, Note_on_c, 9, 31, 96
11, 67968, Note_on_c, 9, 44, 110
11, 68064, Note_off_c, 9, 44, 64
11, 68064, Note_off_c, 9, 31, 64
11, 68256, Note_on_c, 9, 31, 64
11, 68352, Note_off_c, 9, 31, 64
11, 68352, Note_on_c, 9, 31, 96
11, 68352, Note_on_c, 9, 38, 110
11, 68352, Note_on_c, 9, 36, 110
11, 68352, Note_on_c, 9, 35, 110
11, 68352, Note_on_c, 9, 40, 110
11, 68352, Note_on_c, 9, 44, 110
11, 68448, Note_off_c, 9, 44, 64
11, 68448, Note_off_c, 9, 31, 64
11, 68544, Note_off_c, 9, 40, 64
11, 68544, Note_off_c, 9, 35, 64
11, 68544, Note_off_c, 9, 36, 64
11, 68544, Note_off_c, 9, 38, 64
11, 68640, Note_on_c, 9, 31, 64
11, 68736, Note_off_c, 9, 31, 64
11, 68736, Note_on_c, 9, 31, 96
11, 68736, Note_on_c, 9, 44, 110
11, 68832, Note_off_c, 9, 44, 64
11, 68832, Note_off_c, 9, 31, 64
11, 69024, Note_on_c, 9, 31, 64
11, 69120, Note_off_c, 9, 31, 64
11, 69120, Note_on_c, 9, 31, 96
11, 69120, Note_on_c, 9, 36, 110
11, 69120, Note_on_c, 9, 35, 110
11, 69120, Note_on_c, 9, 44, 110
11, 69216, Note_off_c, 9, 44, 64
11, 69216, Note_off_c, 9, 31, 64
11, 69312, Note_off_c, 9, 35, 64
11, 69312, Note_off_c, 9, 36, 64
11, 69408, Note_on_c, 9, 31, 64
11, 69504, Note_off_c, 9, 31, 64
11, 69504, Note_on_c, 9, 31, 96
11, 69504, Note_on_c, 9, 44, 110
11, 69600, Note_off_c, 9, 44, 64
11, 69600, Note_off_c, 9, 31, 64
11, 69792, Note_on_c, 9, 31, 64
11, 69888, Note_off_c, 9, 31, 64
11, 69888, Note_on_c, 9, 31, 96
11, 69888, Note_on_c, 9, 38, 110
11, 69888, Note_on_c, 9, 36, 110
11, 69888, Note_on_c, 9, 35, 110
11, 69888, Note_on_c, 9, 40, 110
11, 69888, Note_on_c, 9, 44, 110
11, 69984, Note_off_c, 9, 44, 64
11, 69984, Note_off_c, 9, 31, 64
11, 70080, Note_off_c, 9, 40, 64
11, 70080, Note_off_c, 9, 35, 64
11, 70080, Note_off_c, 9, 36, 64
11, 70080, Note_off_c, 9, 38, 64
11, 70176, Note_on_c, 9, 31, 64
11, 70272, Note_off_c, 9, 31, 64
11, 70272, Note_on_c, 9, 31, 96
11, 70272, Note_on_c, 9, 46, 110
11, 70368, Note_off_c, 9, 31, 64
11, 70560, Note_on_c, 9, 31, 64
11, 70656, Note_off_c, 9, 31, 64
11, 70656, Note_off_c, 9, 46, 64
11, 70656, Note_on_c, 9, 31, 96
11, 70656, Note_on_c, 9, 36, 110
11, 70656, Note_on_c, 9, 35, 110
11, 70656, Note_on_c, 9, 44, 110
11, 70752, Note_off_c, 9, 44, 64
11, 70752, Note_off_c, 9, 31, 64
11, 70848, Note_off_c, 9, 35, 64
11, 70848, Note_off_c, 9, 36, 64
11, 70944, Note_on_c, 9, 31, 64
11, 71040, Note_off_c, 9, 31, 64
11, 71040, Note_on_c, 9, 31, 96
11, 71040, Note_on_c, 9, 44, 110
11, 71136, Note_off_c, 9, 44, 64
11, 71136, Note_off_c, 9, 31, 64
11, 71328, Note_on_c, 9, 31, 64
11, 71424, Note_off_c, 9, 31, 64
11, 71424, Note_on_c, 9, 31, 96
11, 71424, Note_on_c, 9, 38, 110
11, 71424, Note_on_c, 9, 36, 110
11, 71424, Note_on_c, 9, 35, 110
11, 71424, Note_on_c, 9, 40, 110
11, 71424, Note_on_c, 9, 44, 110
11, 71520, Note_off_c, 9, 44, 64
11, 71520, Note_off_c, 9, 31, 64
11, 71616, Note_off_c, 9, 40, 64
11, 71616, Note_off_c, 9, 35, 64
11, 71616, Note_off_c, 9, 36, 64
11, 71616, Note_off_c, 9, 38, 64
11, 71712, Note_on_c, 9, 31, 64
11, 71808, Note_off_c, 9, 31, 64
11, 71808, Note_on_c, 9, 31, 96
11, 71808, Note_on_c, 9, 44, 110
11, 71904, Note_off_c, 9, 44, 64
11, 71904, Note_off_c, 9, 31, 64
11, 72096, Note_on_c, 9, 31, 64
11, 72192, Note_off_c, 9, 31, 64
11, 72192, Note_on_c, 9, 31, 96
11, 72192, Note_on_c, 9, 36, 110
11, 72192, Note_on_c, 9, 35, 110
11, 72192, Note_on_c, 9, 44, 110
11, 72288, Note_off_c, 9, 44, 64
11, 72288, Note_off_c, 9, 31, 64
11, 72384, Note_off_c, 9, 35, 64
11, 72384, Note_off_c, 9, 36, 64
11, 72480, Note_on_c, 9, 31, 64
11, 72576, Note_off_c, 9, 31, 64
11, 72576, Note_on_c, 9, 31, 96
11, 72576, Note_on_c, 9, 44, 110
11, 72672, Note_off_c, 9, 44, 64
11, 72672, Note_off_c, 9, 31, 64
11, 72864, Note_on_c, 9, 31, 64
11, 72960, Note_off_c, 9, 31, 64
11, 72960, Note_on_c, 9, 31, 96
11, 72960, Note_on_c, 9, 38, 110
11, 72960, Note_on_c, 9, 36, 110
11, 72960, Note_on_c, 9, 35, 110
11, 72960, Note_on_c, 9, 40, 110
11, 72960, Note_on_c, 9, 44, 110
11, 73056, Note_off_c, 9, 44, 64
11, 73056, Note_off_c, 9, 31, 64
11, 73152, Note_off_c, 9, 40, 64
11, 73152, Note_off_c, 9, 35, 64
11, 73152, Note_off_c, 9, 36, 64
11, 73152, Note_off_c, 9, 38, 64
11, 73248, Note_on_c, 9, 31, 64
11, 73344, Note_off_c, 9, 31, 64
11, 73344, Note_on_c, 9, 31, 96
11, 73344, Note_on_c, 9, 46, 110
11, 73440, Note_off_c, 9, 31, 64
11, 73632, Note_on_c, 9, 31, 64
11, 73728, Note_off_c, 9, 31, 64
11, 73728, Note_off_c, 9, 46, 64
11, 73728, Control_c, 9, 7, 100
11, 73728, Program_c, 9, 9
11, 73728, Note_on_c, 9, 31, 96
11, 73728, Note_on_c, 9, 36, 110
11, 73728, Note_on_c, 9, 35, 110
11, 73728, Note_on_c, 9, 44, 110
11, 73824, Note_off_c, 9, 44, 64
11, 73824, Note_off_c, 9, 31, 64
11, 73920, Note_off_c, 9, 35, 64
11, 73920, Note_off_c, 9, 36, 64
11, 74016, Note_on_c, 9, 31, 64
11, 74112, Note_off_c, 9, 31, 64
11, 74112, Note_on_c, 9, 31, 96
11, 74112, Note_on_c, 9, 44, 110
11, 74208, Note_off_c, 9, 44, 64
11, 74208, Note_off_c, 9, 31, 64
11, 74400, Note_on_c, 9, 31, 64
11, 74496, Note_off_c, 9, 31, 64
11, 74496, Note_on_c, 9, 31, 96
11, 74496, Note_on_c, 9, 38, 110
11, 74496, Note_on_c, 9, 36, 110
11, 74496, Note_on_c, 9, 35, 110
11, 74496, Note_on_c, 9, 40, 110
11, 74496, Note_on_c, 9, 44, 110
11, 74592, Note_off_c, 9, 44, 64
11, 74592, Note_off_c, 9, 31, 64
11, 74688, Note_off_c, 9, 40, 64
11, 74688, Note_off_c, 9, 35, 64
11, 74688, Note_off_c, 9, 36, 64
11, 74688, Note_off_c, 9, 38, 64
11, 74784, Note_on_c, 9, 31, 64
11, 74880, Note_off_c, 9, 31, 64
11, 74880, Note_on_c, 9, 31, 96
11, 74880, Note_on_c, 9, 44, 110
11, 74976, Note_off_c, 9, 44, 64
11, 74976, Note_off_c, 9, 31, 64
11, 75168, Note_on_c, 9, 31, 64
11, 75264, Note_off_c, 9, 31, 64
11, 75264, Note_on_c, 9, 31, 96
11, 75264, Note_on_c, 9, 36, 110
11, 75264, Note_on_c, 9, 35, 110
11, 75264, Note_on_c, 9, 44, 110
11, 75360, Note_off_c, 9, 44, 64
11, 75360, Note_off_c, 9, 31, 64
11, 75456, Note_off_c, 9, 35, 64
11, 75456, Note_off_c, 9, 36, 64
11, 75552, Note_on_c, 9, 31, 64
11, 75648, Note_off_c, 9, 31, 64
11, 75648, Note_on_c, 9, 31, 96
11, 75648, Note_on_c, 9, 44, 110
11, 75744, Note_off_c, 9, 44, 64
11, 75744, Note_off_c, 9, 31, 64
11, 75936, Note_on_c, 9, 31, 64
11, 76032, Note_off_c, 9, 31, 64
11, 76032, Note_on_c, 9, 31, 96
11, 76032, Note_on_c, 9, 38, 110
11, 76032, Note_on_c, 9, 36, 110
11, 76032, Note_on_c, 9, 35, 110
11, 76032, Note_on_c, 9, 40, 110
11, 76032, Note_on_c, 9, 44, 110
11, 76128, Note_off_c, 9, 44, 64
11, 76128, Note_off_c, 9, 31, 64
11, 76224, Note_off_c, 9, 40, 64
11, 76224, Note_off_c, 9, 35, 64
11, 76224, Note_off_c, 9, 36, 64
11, 76224, Note_off_c, 9, 38, 64
11, 76320, Note_on_c, 9, 31, 64
11, 76416, Note_off_c, 9, 31, 64
11, 76416, Note_on_c, 9, 31, 96
11, 76416, Note_on_c, 9, 46, 110
11, 76512, Note_off_c, 9, 31, 64
11, 76704, Note_on_c, 9, 31, 64
11, 76800, Note_off_c, 9, 31, 64
11, 76800, Note_off_c, 9, 46, 64
11, 76800, Note_on_c, 9, 31, 96
11, 76800, Note_on_c, 9, 36, 110
11, 76800, Note_on_c, 9, 35, 110
11, 76800, Note_on_c, 9, 44, 110
11, 76896, Note_off_c, 9, 44, 64
11, 76896, Note_off_c, 9, 31, 64
11, 76992, Note_off_c, 9, 35, 64
11, 76992, Note_off_c, 9, 36, 64
11, 77088, Note_on_c, 9, 31, 64
11, 77184, Note_off_c, 9, 31, 64
11, 77184, Note_on_c, 9, 31, 96
11, 77184, Note_on_c, 9, 44, 110
11, 77280, Note_off_c, 9, 44, 64
11, 77280, Note_off_c, 9, 31, 64
11, 77472, Note_on_c, 9, 31, 64
11, 77568, Note_off_c, 9, 31, 64
11, 77568, Note_on_c, 9, 31, 96
11, 77568, Note_on_c, 9, 38, 110
11, 77568, Note_on_c, 9, 36, 110
11, 77568, Note_on_c, 9, 35, 110
11, 77568, Note_on_c, 9, 40, 110
11, 77568, Note_on_c, 9, 44, 110
11, 77664, Note_off_c, 9, 44, 64
11, 77664, Note_off_c, 9, 31, 64
11, 77760, Note_off_c, 9, 40, 64
11, 77760, Note_off_c, 9, 35, 64
11, 77760, Note_off_c, 9, 36, 64
11, 77760, Note_off_c, 9, 38, 64
11, 77856, Note_on_c, 9, 31, 64
11, 77952, Note_off_c, 9, 31, 64
11, 77952, Note_on_c, 9, 31, 96
11, 77952, Note_on_c, 9, 44, 110
11, 78048, Note_off_c, 9, 44, 64
11, 78048, Note_off_c, 9, 31, 64
11, 78240, Note_on_c, 9, 31, 64
11, 78336, Note_off_c, 9, 31, 64
11, 78336, Note_on_c, 9, 31, 96
11, 78336, Note_on_c, 9, 36, 110
11, 78336, Note_on_c, 9, 35, 110
11, 78336, Note_on_c, 9, 44, 110
11, 78432, Note_off_c, 9, 44, 64
11, 78432, Note_off_c, 9, 31, 64
11, 78528, Note_off_c, 9, 35, 64
11, 78528, Note_off_c, 9, 36, 64
11, 78624, Note_on_c, 9, 31, 64
11, 78720, Note_off_c, 9, 31, 64
11, 78720, Note_on_c, 9, 31, 96
11, 78720, Note_on_c, 9, 44, 110
11, 78816, Note_off_c, 9, 44, 64
11, 78816, Note_off_c, 9, 31, 64
11, 79008, Note_on_c, 9, 31, 64
11, 79104, Note_off_c, 9, 31, 64
11, 79104, Note_on_c, 9, 31, 96
11, 79104, Note_on_c, 9, 38, 110
11, 79104, Note_on_c, 9, 36, 110
11, 79104, Note_on_c, 9, 35, 110
11, 79104, Note_on_c, 9, 40, 110
11, 79104, Note_on_c, 9, 44, 110
11, 79200, Note_off_c, 9, 44, 64
11, 79200, Note_off_c, 9, 31, 64
11, 79296, Note_off_c, 9, 40, 64
11, 79296, Note_off_c, 9, 35, 64
11, 79296, Note_off_c, 9, 36, 64
11, 79296, Note_off_c, 9, 38, 64
11, 79392, Note_on_c, 9, 31, 64
11, 79488, Note_off_c, 9, 31, 64
11, 79488, Note_on_c, 9, 31, 96
11, 79488, Note_on_c, 9, 46, 110
11, 79584, Note_off_c, 9, 31, 64
11, 79776, Note_on_c, 9, 31, 64
11, 79872, Note_off_c, 9, 31, 64
11, 79872, Note_off_c, 9, 46, 64
11, 79872, Control_c, 9, 7, 100
11, 79872, Program_c, 9, 9
11, 79872, Note_on_c, 9, 31, 96
11, 79872, Note_on_c, 9, 36, 110
11, 79872, Note_on_c, 9, 35, 110
11, 79872, Note_on_c, 9, 44, 110
11, 79968, Note_off_c, 9, 44, 64
11, 79968, Note_off_c, 9, 31, 64
11, 80064, Note_off_c, 9, 35, 64
11, 80064, Note_off_c, 9, 36, 64
11, 80160, Note_on_c, 9, 31, 64
11, 80256, Note_off_c, 9, 31, 64
11, 80256, Note_on_c, 9, 31, 96
11, 80256, Note_on_c, 9, 44, 110
11, 80352, Note_off_c, 9, 44, 64
11, 80352, Note_off_c, 9, 31, 64
11, 80544, Note_on_c, 9, 31, 64
11, 80640, Note_off_c, 9, 31, 64
11, 80640, Note_on_c, 9, 31, 96
11, 80640, Note_on_c, 9, 38, 110
11, 80640, Note_on_c, 9, 36, 110
11, 80640, Note_on_c, 9, 35, 110
11, 80640, Note_on_c, 9, 40, 110
11, 80640, Note_on_c, 9, 44, 110
11, 80736, Note_off_c, 9, 44, 64
11, 80736, Note_off_c, 9, 31, 64
11, 80832, Note_off_c, 9, 40, 64
11, 80832, Note_off_c, 9, 35, 64
11, 80832, Note_off_c, 9, 36, 64
11, 80832, Note_off_c, 9, 38, 64
11, 80928, Note_on_c, 9, 31, 64
11, 81024, Note_off_c, 9, 31, 64
11, 81024, Note_on_c, 9, 31, 96
11, 81024, Note_on_c, 9, 44, 110
11, 81120, Note_off_c, 9, 44, 64
11, 81120, Note_off_c, 9, 31, 64
11, 81312, Note_on_c, 9, 31, 64
11, 81408, Note_off_c, 9, 31, 64
11, 81408, Note_on_c, 9, 31, 96
11, 81408, Note_on_c, 9, 36, 110
11, 81408, Note_on_c, 9, 35, 110
11, 81408, Note_on_c, 9, 44, 110
11, 81504, Note_off_c, 9, 44, 64
11, 81504, Note_off_c, 9, 31, 64
11, 81600, Note_off_c, 9, 35, 64
11, 81600, Note_off_c, 9, 36, 64
11, 81696, Note_on_c, 9, 31, 64
11, 81792, Note_off_c, 9, 31, 64
11, 81792, Note_on_c, 9, 31, 96
11, 81792, Note_on_c, 9, 44, 110
11, 81888, Note_off_c, 9, 44, 64
11, 81888, Note_off_c, 9, 31, 64
11, 82080, Note_on_c, 9, 31, 64
11, 82176, Note_off_c, 9, 31, 64
11, 82176, Note_on_c, 9, 31, 96
11, 82176, Note_on_c, 9, 38, 110
11, 82176, Note_on_c, 9, 36, 110
11, 82176, Note_on_c, 9, 35, 110
11, 82176, Note_on_c, 9, 40, 110
11, 82176, Note_on_c, 9, 44, 110
11, 82272, Note_off_c, 9, 44, 64
11, 82272, Note_off_c, 9, 31, 64
11, 82368, Note_off_c, 9, 40, 64
11, 82368, Note_off_c, 9, 35, 64
11, 82368, Note_off_c, 9, 36, 64
11, 82368, Note_off_c, 9, 38, 64
11, 82464, Note_on_c, 9, 31, 64
11, 82560, Note_off_c, 9, 31, 64
11, 82560, Note_on_c, 9, 31, 96
11, 82560, Note_on_c, 9, 46, 110
11, 82656, Note_off_c, 9, 31, 64
11, 82848, Note_on_c, 9, 31, 64
11, 82944, Note_off_c, 9, 31, 64
11, 82944, Note_off_c, 9, 46, 64
11, 82944, Note_on_c, 9, 31, 96
11, 82944, Note_on_c, 9, 36, 110
11, 82944, Note_on_c, 9, 35, 110
11, 82944, Note_on_c, 9, 44, 110
11, 83040, Note_off_c, 9, 44, 64
11, 83040, Note_off_c, 9, 31, 64
11, 83136, Note_off_c, 9, 35, 64
11, 83136, Note_off_c, 9, 36, 64
11, 83232, Note_on_c, 9, 31, 64
11, 83328, Note_off_c, 9, 31, 64
11, 83328, Note_on_c, 9, 31, 96
11, 83328, Note_on_c, 9, 44, 110
11, 83424, Note_off_c, 9, 44, 64
11, 83424, Note_off_c, 9, 31, 64
11, 83616, Note_on_c, 9, 31, 64
11, 83712, Note_off_c, 9, 31, 64
11, 83712, Note_on_c, 9, 31, 96
11, 83712, Note_on_c, 9, 38, 110
11, 83712, Note_on_c, 9, 36, 110
11, 83712, Note_on_c, 9, 35, 110
11, 83712, Note_on_c, 9, 40, 110
11, 83712, Note_on_c, 9, 44, 110
11, 83808, Note_off_c, 9, 44, 64
11, 83808, Note_off_c, 9, 31, 64
11, 83904, Note_off_c, 9, 40, 64
11, 83904, Note_off_c, 9, 35, 64
11, 83904, Note_off_c, 9, 36, 64
11, 83904, Note_off_c, 9, 38, 64
11, 84000, Note_on_c, 9, 31, 64
11, 84096, Note_off_c, 9, 31, 64
11, 84096, Note_on_c, 9, 31, 96
11, 84096, Note_on_c, 9, 44, 110
11, 84192, Note_off_c, 9, 44, 64
11, 84192, Note_off_c, 9, 31, 64
11, 84384, Note_on_c, 9, 31, 64
11, 84480, Note_off_c, 9, 31, 64
11, 84480, Note_on_c, 9, 31, 96
11, 84480, Note_on_c, 9, 36, 110
11, 84480, Note_on_c, 9, 35, 110
11, 84480, Note_on_c, 9, 44, 110
11, 84576, Note_off_c, 9, 44, 64
11, 84576, Note_off_c, 9, 31, 64
11, 84672, Note_off_c, 9, 35, 64
11, 84672, Note_off_c, 9, 36, 64
11, 84768, Note_on_c, 9, 31, 64
11, 84864, Note_off_c, 9, 31, 64
11, 84864, Note_on_c, 9, 31, 96
11, 84864, Note_on_c, 9, 44, 110
11, 84960, Note_off_c, 9, 44, 64
11, 84960, Note_off_c, 9, 31, 64
11, 85152, Note_on_c, 9, 31, 64
11, 85248, Note_off_c, 9, 31, 64
11, 85248, Note_on_c, 9, 31, 96
11, 85248, Note_on_c, 9, 38, 110
11, 85248, Note_on_c, 9, 36, 110
11, 85248, Note_on_c, 9, 35, 110
11, 85248, Note_on_c, 9, 40, 110
11, 85248, Note_on_c, 9, 44, 110
11, 85344, Note_off_c, 9, 44, 64
11, 85344, Note_off_c, 9, 31, 64
11, 85440, Note_off_c, 9, 40, 64
11, 85440, Note_off_c, 9, 35, 64
11, 85440, Note_off_c, 9, 36, 64
11, 85440, Note_off_c, 9, 38, 64
11, 85536, Note_on_c, 9, 31, 64
11, 85632, Note_off_c, 9, 31, 64
11, 85632, Note_on_c, 9, 31, 96
11, 85632, Note_on_c, 9, 46, 110
11, 85728, Note_off_c, 9, 31, 64
11, 85920, Note_on_c, 9, 31, 64
11, 86016, Note_off_c, 9, 31, 64
11, 86016, Note_off_c, 9, 46, 64
11, 86016, Control_c, 9, 7, 100
11, 86016, Program_c, 9, 9
11, 86016, Note_on_c, 9, 31, 96
11, 86016, Note_on_c, 9, 36, 110
11, 86016, Note_on_c, 9, 35, 110
11, 86016, Note_on_c, 9, 44, 110
11, 86112, Note_off_c, 9, 44, 64
11, 86112, Note_off_c, 9, 31, 64
11, 86208, Note_off_c, 9, 35, 64
11, 86208, Note_off_c, 9, 36, 64
11, 86304, Note_on_c, 9, 31, 64
11, 86400, Note_off_c, 9, 31, 64
11, 86400, Note_on_c, 9, 31, 96
11, 86400, Note_on_c, 9, 44, 110
11, 86496, Note_off_c, 9, 44, 64
11, 86496, Note_off_c, 9, 31, 64
11, 86688, Note_on_c, 9, 31, 64
11, 86784, Note_off_c, 9, 31, 64
11, 86784, Note_on_c, 9, 31, 96
11, 86784, Note_on_c, 9, 38, 110
11, 86784, Note_on_c, 9, 36, 110
11, 86784, Note_on_c, 9, 35, 110
11, 86784, Note_on_c, 9, 40, 110
11, 86784, Note_on_c, 9, 44, 110
11, 86880, Note_off_c, 9, 44, 64
11, 86880, Note_off_c, 9, 31, 64
11, 86976, Note_off_c, 9, 40, 64
11, 86976, Note_off_c, 9, 35, 64
11, 86976, Note_off_c, 9, 36, 64
11, 86976, Note_off_c, 9, 38, 64
11, 87072, Note_on_c, 9, 31, 64
11, 87168, Note_off_c, 9, 31, 64
11, 87168, Note_on_c, 9, 31, 96
11, 87168, Note_on_c, 9, 44, 110
11, 87264, Note_off_c, 9, 44, 64
11, 87264, Note_off_c, 9, 31, 64
11, 87456, Note_on_c, 9, 31, 64
11, 87552, Note_off_c, 9, 31, 64
11, 87552, Note_on_c, 9, 31, 96
11, 87552, Note_on_c, 9, 36, 110
11, 87552, Note_on_c, 9, 35, 110
11, 87552, Note_on_c, 9, 44, 110
11, 87648, Note_off_c, 9, 44, 64
11, 87648, Note_off_c, 9, 31, 64
11, 87744, Note_off_c, 9, 35, 64
11, 87744, Note_off_c, 9, 36, 64
11, 87840, Note_on_c, 9, 31, 64
11, 87936, Note_off_c, 9, 31, 64
11, 87936, Note_on_c, 9, 31, 96
11, 87936, Note_on_c, 9, 44, 110
11, 88032, Note_off_c, 9, 44, 64
11, 88032, Note_off_c, 9, 31, 64
11, 88224, Note_on_c, 9, 31, 64
11, 88320, Note_off_c, 9, 31, 64
11, 88320, Note_on_c, 9, 31, 96
11, 88320, Note_on_c, 9, 38, 110
11, 88320, Note_on_c, 9, 36, 110
11, 88320, Note_on_c, 9, 35, 110
11, 88320, Note_on_c, 9, 40, 110
11, 88320, Note_on_c, 9, 44, 110
11, 88416, Note_off_c, 9, 44, 64
11, 88416, Note_off_c, 9, 31, 64
11, 88512, Note_off_c, 9, 40, 64
11, 88512, Note_off_c, 9, 35, 64
11, 88512, Note_off_c, 9, 36, 64
11, 88512, Note_off_c, 9, 38, 64
11, 88608, Note_on_c, 9, 31, 64
11, 88704, Note_off_c, 9, 31, 64
11, 88704, Note_on_c, 9, 31, 96
11, 88704, Note_on_c, 9, 46, 110
11, 88800, Note_off_c, 9, 31, 64
11, 88992, Note_on_c, 9, 31, 64
11, 89088, Note_off_c, 9, 31, 64
11, 89088, Note_off_c, 9, 46, 64
11, 89088, Note_on_c, 9, 31, 96
11, 89088, Note_on_c, 9, 36, 110
11, 89088, Note_on_c, 9, 35, 110
11, 89088, Note_on_c, 9, 44, 110
11, 89184, Note_off_c, 9, 44, 64
11, 89184, Note_off_c, 9, 31, 64
11, 89280, Note_off_c, 9, 35, 64
11, 89280, Note_off_c, 9, 36, 64
11, 89376, Note_on_c, 9, 31, 64
11, 89472, Note_off_c, 9, 31, 64
11, 89472, Note_on_c, 9, 31, 96
11, 89472, Note_on_c, 9, 44, 110
11, 89568, Note_off_c, 9, 44, 64
11, 89568, Note_off_c, 9, 31, 64
11, 89760, Note_on_c, 9, 31, 64
11, 89856, Note_off_c, 9, 31, 64
11, 89856, Note_on_c, 9, 31, 96
11, 89856, Note_on_c, 9, 38, 110
11, 89856, Note_on_c, 9, 36, 110
11, 89856, Note_on_c, 9, 35, 110
11, 89856, Note_on_c, 9, 40, 110
11, 89856, Note_on_c, 9, 44, 110
11, 89952, Note_off_c, 9, 44, 64
11, 89952, Note_off_c, 9, 31, 64
11, 90048, Note_off_c, 9, 40, 64
11, 90048, Note_off_c, 9, 35, 64
11, 90048, Note_off_c, 9, 36, 64
11, 90048, Note_off_c, 9, 38, 64
11, 90144, Note_on_c, 9, 31, 64
11, 90240, Note_off_c, 9, 31, 64
11, 90240, Note_on_c, 9, 31, 96
11, 90240, Note_on_c, 9, 44, 110
11, 90336, Note_off_c, 9, 44, 64
11, 90336, Note_off_c, 9, 31, 64
11, 90528, Note_on_c, 9, 31, 64
11, 90624, Note_off_c, 9, 31, 64
11, 90624, Note_on_c, 9, 31, 96
11, 90624, Note_on_c, 9, 36, 110
11, 90624, Note_on_c, 9, 35, 110
11, 90624, Note_on_c, 9, 44, 110
11, 90720, Note_off_c, 9, 44, 64
11, 90720, Note_off_c, 9, 31, 64
11, 90816, Note_off_c, 9, 35, 64
11, 90816, Note_off_c, 9, 36, 64
11, 90912, Note_on_c, 9, 31, 64
11, 91008, Note_off_c, 9, 31, 64
11, 91008, Note_on_c, 9, 31, 96
11, 91008, Note_on_c, 9, 44, 110
11, 91104, Note_off_c, 9, 44, 64
11, 91104, Note_off_c, 9, 31, 64
11, 91296, Note_on_c, 9, 31, 64
11, 91392, Note_off_c, 9, 31, 64
11, 91392, Note_on_c, 9, 31, 96
11, 91392, Note_on_c, 9, 38, 110
11, 91392, Note_on_c, 9, 36, 110
11, 91392, Note_on_c, 9, 35, 110
11, 91392, Note_on_c, 9, 40, 110
11, 91392, Note_on_c, 9, 44, 110
11, 91488, Note_off_c, 9, 44, 64
11, 91488, Note_off_c, 9, 31, 64
11, 91584, Note_off_c, 9, 40, 64
11, 91584, Note_off_c, 9, 35, 64
11, 91584, Note_off_c, 9, 36, 64
11, 91584, Note_off_c, 9, 38, 64
11, 91680, Note_on_c, 9, 31, 64
11, 91776, Note_off_c, 9, 31, 64
11, 91776, Note_on_c, 9, 31, 96
11, 91776, Note_on_c, 9, 46, 110
11, 91872, Note_off_c, 9, 31, 64
11, 92064, Note_on_c, 9, 31, 64
11, 92160, Note_off_c, 9, 31, 64
11, 92160, Note_off_c, 9, 46, 64
11, 92160, Control_c, 9, 7, 100
11, 92160, Program_c, 9, 9
11, 92160, Note_on_c, 9, 31, 96
11, 92160, Note_on_c, 9, 36, 110
11, 92160, Note_on_c, 9, 35, 110
11, 92160, Note_on_c, 9, 44, 110
11, 92256, Note_off_c, 9, 44, 64
11, 92256, Note_off_c, 9, 31, 64
11, 92352, Note_off_c, 9, 35, 64
11, 92352, Note_off_c, 9, 36, 64
11, 92448, Note_on_c, 9, 31, 64
11, 92544, Note_off_c, 9, 31, 64
11, 92544, Note_on_c, 9, 31, 96
11, 92544, Note_on_c, 9, 44, 110
11, 92640, Note_off_c, 9, 44, 64
11, 92640, Note_off_c, 9, 31, 64
11, 92832, Note_on_c, 9, 31, 64
11, 92928, Note_off_c, 9, 31, 64
11, 92928, Note_on_c, 9, 31, 96
11, 92928, Note_on_c, 9, 38, 110
11, 92928, Note_on_c, 9, 36, 110
11, 92928, Note_on_c, 9, 35, 110
11, 92928, Note_on_c, 9, 40, 110
11, 92928, Note_on_c, 9, 44, 110
11, 93024, Note_off_c, 9, 44, 64
11, 93024, Note_off_c, 9, 31, 64
11, 93120, Note_off_c, 9, 40, 64
11, 93120, Note_off_c, 9, 35, 64
11, 93120, Note_off_c, 9, 36, 64
11, 93120, Note_off_c, 9, 38, 64
11, 93216, Note_on_c, 9, 31, 64
11, 93312, Note_off_c, 9, 31, 64
11, 93312, Note_on_c, 9, 31, 96
11, 93312, Note_on_c, 9, 44, 110
11, 93408, Note_off_c, 9, 44, 64
11, 93408, Note_off_c, 9, 31, 64
11, 93600, Note_on_c, 9, 31, 64
11, 93696, Note_off_c, 9, 31, 64
11, 93696, Note_on_c, 9, 31, 96
11, 93696, Note_on_c, 9, 36, 110
11, 93696, Note_on_c, 9, 35, 110
11, 93696, Note_on_c, 9, 44, 110
11, 93792, Note_off_c, 9, 44, 64
11, 93792, Note_off_c, 9, 31, 64
11, 93888, Note_off_c, 9, 35, 64
11, 93888, Note_off_c, 9, 36, 64
11, 93984, Note_on_c, 9, 31, 64
11, 94080, Note_off_c, 9, 31, 64
11, 94080, Note_on_c, 9, 31, 96
11, 94080, Note_on_c, 9, 44, 110
11, 94176, Note_off_c, 9, 44, 64
11, 94176, Note_off_c, 9, 31, 64
11, 94368, Note_on_c, 9, 31, 64
11, 94464, Note_off_c, 9, 31, 64
11, 94464, Note_on_c, 9, 31, 96
11, 94464, Note_on_c, 9, 38, 110
11, 94464, Note_on_c, 9, 36, 110
11, 94464, Note_on_c, 9, 35, 110
11, 94464, Note_on_c, 9, 40, 110
11, 94464, Note_on_c, 9, 44, 110
11, 94560, Note_off_c, 9, 44, 64
11, 94560, Note_off_c, 9, 31, 64
11, 94656, Note_off_c, 9, 40, 64
11, 94656, Note_off_c, 9, 35, 64
11, 94656, Note_off_c, 9, 36, 64
11, 94656, Note_off_c, 9, 38, 64
11, 94752, Note_on_c, 9, 31, 64
11, 94848, Note_off_c, 9, 31, 64
11, 94848, Note_on_c, 9, 31, 96
11, 94848, Note_on_c, 9, 46, 110
11, 94944, Note_off_c, 9, 31, 64
11, 95136, Note_on_c, 9, 31, 64
11, 95232, Note_off_c, 9, 31, 64
11, 95232, Note_off_c, 9, 46, 64
11, 95232, Note_on_c, 9, 31, 96
11, 95232, Note_on_c, 9, 36, 110
11, 95232, Note_on_c, 9, 35, 110
11, 95232, Note_on_c, 9, 44, 110
11, 95328, Note_off_c, 9, 44, 64
11, 95328, Note_off_c, 9, 31, 64
11, 95424, Note_off_c, 9, 35, 64
11, 95424, Note_off_c, 9, 36, 64
11, 95520, Note_on_c, 9, 31, 64
11, 95616, Note_off_c, 9, 31, 64
11, 95616, Note_on_c, 9, 31, 96
11, 95616, Note_on_c, 9, 44, 110
11, 95712, Note_off_c, 9, 44, 64
11, 95712, Note_off_c, 9, 31, 64
11, 95904, Note_on_c, 9, 31, 64
11, 96000, Note_off_c, 9, 31, 64
11, 96000, Note_on_c, 9, 31, 96
11, 96000, Note_on_c, 9, 38, 110
11, 96000, Note_on_c, 9, 36, 110
11, 96000, Note_on_c, 9, 35, 110
11, 96000, Note_on_c, 9, 40, 110
11, 96000, Note_on_c, 9, 44, 110
11, 96096, Note_off_c, 9, 44, 64
11, 96096, Note_off_c, 9, 31, 64
11, 96192, Note_off_c, 9, 40, 64
11, 96192, Note_off_c, 9, 35, 64
11, 96192, Note_off_c, 9, 36, 64
11, 96192, Note_off_c, 9, 38, 64
11, 96288, Note_on_c, 9, 31, 64
11, 96384, Note_off_c, 9, 31, 64
11, 96384, Note_on_c, 9, 31, 96
11, 96384, Note_on_c, 9, 44, 110
11, 96480, Note_off_c, 9, 44, 64
11, 96480, Note_off_c, 9, 31, 64
11, 96672, Note_on_c, 9, 31, 64
11, 96768, Note_off_c, 9, 31, 64
11, 96768, Note_on_c, 9, 31, 96
11, 96768, Note_on_c, 9, 36, 110
11, 96768, Note_on_c, 9, 35, 110
11, 96768, Note_on_c, 9, 44, 110
11, 96864, Note_off_c, 9, 44, 64
11, 96864, Note_off_c, 9, 31, 64
11, 96960, Note_off_c, 9, 35, 64
11, 96960, Note_off_c, 9, 36, 64
11, 97056, Note_on_c, 9, 31, 64
11, 97152, Note_off_c, 9, 31, 64
11, 97152, Note_on_c, 9, 31, 96
11, 97152, Note_on_c, 9, 44, 110
11, 97248, Note_off_c, 9, 44, 64
11, 97248, Note_off_c, 9, 31, 64
11, 97440, Note_on_c, 9, 31, 64
11, 97536, Note_off_c, 9, 31, 64
11, 97536, Note_on_c, 9, 31, 96
11, 97536, Note_on_c, 9, 38, 110
11, 97536, Note_on_c, 9, 36, 110
11, 97536, Note_on_c, 9, 35, 110
11, 97536, Note_on_c, 9, 40, 110
11, 97536, Note_on_c, 9, 44, 110
11, 97632, Note_off_c, 9, 44, 64
11, 97632, Note_off_c, 9, 31, 64
11, 97728, Note_off_c, 9, 40, 64
11, 97728, Note_off_c, 9, 35, 64
11, 97728, Note_off_c, 9, 36, 64
11, 97728, Note_off_c, 9, 38, 64
11, 97824, Note_on_c, 9, 31, 64
11, 97920, Note_off_c, 9, 31, 64
11, 97920, Note_on_c, 9, 31, 96
11, 97920, Note_on_c, 9, 46, 110
11, 98016, Note_off_c, 9, 31, 64
11, 98208, Note_on_c, 9, 31, 64
11, 98304, Note_off_c, 9, 31, 64
11, 98304, Note_off_c, 9, 46, 64
11, 98304, Control_c, 9, 7, 100
11, 98304, Program_c, 9, 9
11, 98304, Note_on_c, 9, 31, 96
11, 98304, Note_on_c, 9, 36, 110
11, 98304, Note_on_c, 9, 35, 110
11, 98304, Note_on_c, 9, 44, 110
11, 98400, Note_off_c, 9, 44, 64
11, 98400, Note_off_c, 9, 31, 64
11, 98496, Note_off_c, 9, 35, 64
11, 98496, Note_off_c, 9, 36, 64
11, 98592, Note_on_c, 9, 31, 64
11, 98688, Note_off_c, 9, 31, 64
11, 98688, Note_on_c, 9, 31, 96
11, 98688, Note_on_c, 9, 44, 110
11, 98784, Note_off_c, 9, 44, 64
11, 98784, Note_off_c, 9, 31, 64
11, 98976, Note_on_c, 9, 31, 64
11, 99072, Note_off_c, 9, 31, 64
11, 99072, Note_on_c, 9, 31, 96
11, 99072, Note_on_c, 9, 38, 110
11, 99072, Note_on_c, 9, 36, 110
11, 99072, Note_on_c, 9, 35, 110
11, 99072, Note_on_c, 9, 40, 110
11, 99072, Note_on_c, 9, 44, 110
11, 99168, Note_off_c, 9, 44, 64
11, 99168, Note_off_c, 9, 31, 64
11, 99264, Note_off_c, 9, 40, 64
11, 99264, Note_off_c, 9, 35, 64
11, 99264, Note_off_c, 9, 36, 64
11, 99264, Note_off_c, 9, 38, 64
11, 99360, Note_on_c, 9, 31, 64
11, 99456, Note_off_c, 9, 31, 64
11, 99456, Note_on_c, 9, 31, 96
11, 99456, Note_on_c, 9, 44, 110
11, 99552, Note_off_c, 9, 44, 64
11, 99552, Note_off_c, 9, 31, 64
11, 99744, Note_on_c, 9, 31, 64
11, 99840, Note_off_c, 9, 31, 64
11, 99840, Note_on_c, 9, 31, 96
11, 99840, Note_on_c, 9, 36, 110
11, 99840, Note_on_c, 9, 35, 110
11, 99840, Note_on_c, 9, 44, 110
11, 99936, Note_off_c, 9, 44, 64
11, 99936, Note_off_c, 9, 31, 64
11, 100032, Note_off_c, 9, 35, 64
11, 100032, Note_off_c, 9, 36, 64
11, 100128, Note_on_c, 9, 31, 64
11, 100224, Note_off_c, 9, 31, 64
11, 100224, Note_on_c, 9, 31, 96
11, 100224, Note_on_c, 9, 44, 110
11, 100320, Note_off_c, 9, 44, 64
11, 100320, Note_off_c, 9, 31, 64
11, 100512, Note_on_c, 9, 31, 64
11, 100608, Note_off_c, 9, 31, 64
11, 100608, Note_on_c, 9, 31, 96
11, 100608, Note_on_c, 9, 38, 110
11, 100608, Note_on_c, 9, 36, 110
11, 100608, Note_on_c, 9, 35, 110
11, 100608, Note_on_c, 9, 40, 110
11, 100608, Note_on_c, 9, 44, 110
11, 100704, Note_off_c, 9, 44, 64
11, 100704, Note_off_c, 9, 31, 64
11, 100800, Note_off_c, 9, 40, 64
11, 100800, Note_off_c, 9, 35, 64
11, 100800, Note_off_c, 9, 36, 64
11, 100800, Note_off_c, 9, 38, 64
11, 100896, Note_on_c, 9, 31, 64
11, 100992, Note_off_c, 9, 31, 64
11, 100992, Note_on_c, 9, 31, 96
11, 100992, Note_on_c, 9, 46, 110
11, 101088, Note_off_c, 9, 31, 64
11, 101280, Note_on_c, 9, 31, 64
11, 101376, Note_off_c, 9, 31, 64
11, 101376, Note_off_c, 9, 46, 64
11, 101376, Note_on_c, 9, 31, 96
11, 101376, Note_on_c, 9, 36, 110
11, 101376, Note_on_c, 9, 35, 110
11, 101376, Note_on_c, 9, 44, 110
11, 101472, Note_off_c, 9, 44, 64
11, 101472, Note_off_c, 9, 31, 64
11, 101568, Note_off_c, 9, 35, 64
11, 101568, Note_off_c, 9, 36, 64
11, 101664, Note_on_c, 9, 31, 64
11, 101760, Note_off_c, 9, 31, 64
11, 101760, Note_on_c, 9, 31, 96
11, 101760, Note_on_c, 9, 44, 110
11, 101856, Note_off_c, 9, 44, 64
11, 101856, Note_off_c, 9, 31, 64
11, 102048, Note_on_c, 9, 31, 64
11, 102144, Note_off_c, 9, 31, 64
11, 102144, Note_on_c, 9, 31, 96
11, 102144, Note_on_c, 9, 38, 110
11, 102144, Note_on_c, 9, 36, 110
11, 102144, Note_on_c, 9, 35, 110
11, 102144, Note_on_c, 9, 40, 110
11, 102144, Note_on_c, 9, 44, 110
11, 102240, Note_off_c, 9, 44, 64
11, 102240, Note_off_c, 9, 31, 64
11, 102336, Note_off_c, 9, 40, 64
11, 102336, Note_off_c, 9, 35, 64
11, 102336, Note_off_c, 9, 36, 64
11, 102336, Note_off_c, 9, 38, 64
11, 102432, Note_on_c, 9, 31, 64
11, 102528, Note_off_c, 9, 31, 64
11, 102528, Note_on_c, 9, 31, 96
11, 102528, Note_on_c, 9, 44, 110
11, 102624, Note_off_c, 9, 44, 64
11, 102624, Note_off_c, 9, 31, 64
11, 102816, Note_on_c, 9, 31, 64
11, 102912, Note_off_c, 9, 31, 64
11, 102912, Note_on_c, 9, 31, 96
11, 102912, Note_on_c, 9, 36, 110
11, 102912, Note_on_c, 9, 35, 110
11, 102912, Note_on_c, 9, 44, 110
11, 103008, Note_off_c, 9, 44, 64
11, 103008, Note_off_c, 9, 31, 64
11, 103104, Note_off_c, 9, 35, 64
11, 103104, Note_off_c, 9, 36, 64
11, 103200, Note_on_c, 9, 31, 64
11, 103296, Note_off_c, 9, 31, 64
11, 103296, Note_on_c, 9, 31, 96
11, 103296, Note_on_c, 9, 44, 110
11, 103392, Note_off_c, 9, 44, 64
11, 103392, Note_off_c, 9, 31, 64
11, 103584, Note_on_c, 9, 31, 64
11, 103680, Note_off_c, 9, 31, 64
11, 103680, Note_on_c, 9, 31, 96
11, 103680, Note_on_c, 9, 38, 110
11, 103680, Note_on_c, 9, 36, 110
11, 103680, Note_on_c, 9, 35, 110
11, 103680, Note_on_c, 9, 40, 110
11, 103680, Note_on_c, 9, 44, 110
11, 103776, Note_off_c, 9, 44, 64
11, 103776, Note_off_c, 9, 31, 64
11, 103872, Note_off_c, 9, 40, 64
11, 103872, Note_off_c, 9, 35, 64
11, 103872, Note_off_c, 9, 36, 64
11, 103872, Note_off_c, 9, 38, 64
11, 103968, Note_on_c, 9, 31, 64
11, 104064, Note_off_c, 9, 31, 64
11, 104064, Note_on_c, 9, 31, 96
11, 104064, Note_on_c, 9, 46, 110
11, 104160, Note_off_c, 9, 31, 64
11, 104352, Note_on_c, 9, 31, 64
11, 104448, Note_off_c, 9, 31, 64
11, 104448, Note_off_c, 9, 46, 64
11, 104448, Control_c, 9, 7, 100
11, 104448, Program_c, 9, 9
11, 104448, Note_on_c, 9, 31, 96
11, 104448, Note_on_c, 9, 36, 110
11, 104448, Note_on_c, 9, 35, 110
11, 104448, Note_on_c, 9, 44, 110
11, 104544, Note_off_c, 9, 44, 64
11, 104544, Note_off_c, 9, 31, 64
11, 104640, Note_off_c, 9, 35, 64
11, 104640, Note_off_c, 9, 36, 64
11, 104736, Note_on_c, 9, 31, 64
11, 104832, Note_off_c, 9, 31, 64
11, 104832, Note_on_c, 9, 31, 96
11, 104832, Note_on_c, 9, 44, 110
11, 104928, Note_off_c, 9, 44, 64
11, 104928, Note_off_c, 9, 31, 64
11, 105120, Note_on_c, 9, 31, 64
11, 105216, Note_off_c, 9, 31, 64
11, 105216, Note_on_c, 9, 31, 96
11, 105216, Note_on_c, 9, 38, 110
11, 105216, Note_on_c, 9, 36, 110
11, 105216, Note_on_c, 9, 35, 110
11, 105216, Note_on_c, 9, 40, 110
11, 105216, Note_on_c, 9, 44, 110
11, 105312, Note_off_c, 9, 44, 64
11, 105312, Note_off_c, 9, 31, 64
11, 105408, Note_off_c, 9, 40, 64
11, 105408, Note_off_c, 9, 35, 64
11, 105408, Note_off_c, 9, 36, 64
11, 105408, Note_off_c, 9, 38, 64
11, 105504, Note_on_c, 9, 31, 64
11, 105600, Note_off_c, 9, 31, 64
11, 105600, Note_on_c, 9, 31, 96
11, 105600, Note_on_c, 9, 44, 110
11, 105696, Note_off_c, 9, 44, 64
11, 105696, Note_off_c, 9, 31, 64
11, 105888, Note_on_c, 9, 31, 64
11, 105984, Note_off_c, 9, 31, 64
11, 105984, Note_on_c, 9, 31, 96
11, 105984, Note_on_c, 9, 36, 110
11, 105984, Note_on_c, 9, 35, 110
11, 105984, Note_on_c, 9, 44, 110
11, 106080, Note_off_c, 9, 44, 64
11, 106080, Note_off_c, 9, 31, 64
11, 106176, Note_off_c, 9, 35, 64
11, 106176, Note_off_c, 9, 36, 64
11, 106272, Note_on_c, 9, 31, 64
11, 106368, Note_off_c, 9, 31, 64
11, 106368, Note_on_c, 9, 31, 96
11, 106368, Note_on_c, 9, 44, 110
11, 106464, Note_off_c, 9, 44, 64
11, 106464, Note_off_c, 9, 31, 64
11, 106656, Note_on_c, 9, 31, 64
11, 106752, Note_off_c, 9, 31, 64
11, 106752, Note_on_c, 9, 31, 96
11, 106752, Note_on_c, 9, 38, 110
11, 106752, Note_on_c, 9, 36, 110
11, 106752, Note_on_c, 9, 35, 110
11, 106752, Note_on_c, 9, 40, 110
11, 106752, Note_on_c, 9, 44, 110
11, 106848, Note_off_c, 9, 44, 64
11, 106848, Note_off_c, 9, 31, 64
11, 106944, Note_off_c, 9, 40, 64
11, 106944, Note_off_c, 9, 35, 64
11, 106944, Note_off_c, 9, 36, 64
11, 106944, Note_off_c, 9, 38, 64
11, 107040, Note_on_c, 9, 31, 64
11, 107136, Note_off_c, 9, 31, 64
11, 107136, Note_on_c, 9, 31, 96
11, 107136, Note_on_c, 9, 46, 110
11, 107232, Note_off_c, 9, 31, 64
11, 107424, Note_on_c, 9, 31, 64
11, 107520, Note_off_c, 9, 31, 64
11, 107520, Note_off_c, 9, 46, 64
11, 107520, Note_on_c, 9, 31, 96
11, 107520, Note_on_c, 9, 36, 110
11, 107520, Note_on_c, 9, 35, 110
11, 107520, Note_on_c, 9, 44, 110
11, 107616, Note_off_c, 9, 44, 64
11, 107616, Note_off_c, 9, 31, 64
11, 107712, Note_off_c, 9, 35, 64
11, 107712, Note_off_c, 9, 36, 64
11, 107808, Note_on_c, 9, 31, 64
11, 107904, Note_off_c, 9, 31, 64
11, 107904, Note_on_c, 9, 31, 96
11, 107904, Note_on_c, 9, 44, 110
11, 108000, Note_off_c, 9, 44, 64
11, 108000, Note_off_c, 9, 31, 64
11, 108192, Note_on_c, 9, 31, 64
11, 108288, Note_off_c, 9, 31, 64
11, 108288, Note_on_c, 9, 31, 96
11, 108288, Note_on_c, 9, 38, 110
11, 108288, Note_on_c, 9, 36, 110
11, 108288, Note_on_c, 9, 35, 110
11, 108288, Note_on_c, 9, 40, 110
11, 108288, Note_on_c, 9, 44, 110
11, 108384, Note_off_c, 9, 44, 64
11, 108384, Note_off_c, 9, 31, 64
11, 108480, Note_off_c, 9, 40, 64
11, 108480, Note_off_c, 9, 35, 64
11, 108480, Note_off_c, 9, 36, 64
11, 108480, Note_off_c, 9, 38, 64
11, 108576, Note_on_c, 9, 31, 64
11, 108672, Note_off_c, 9, 31, 64
11, 108672, Note_on_c, 9, 31, 96
11, 108672, Note_on_c, 9, 44, 110
11, 108768, Note_off_c, 9, 44, 64
11, 108768, Note_off_c, 9, 31, 64
11, 108960, Note_on_c, 9, 31, 64
11, 109056, Note_off_c, 9, 31, 64
11, 109056, Note_on_c, 9, 31, 96
11, 109056, Note_on_c, 9, 36, 110
11, 109056, Note_on_c, 9, 35, 110
11, 109056, Note_on_c, 9, 44, 110
11, 109152, Note_off_c, 9, 44, 64
11, 109152, Note_off_c, 9, 31, 64
11, 109248, Note_off_c, 9, 35, 64
11, 109248, Note_off_c, 9, 36, 64
11, 109344, Note_on_c, 9, 31, 64
11, 109440, Note_off_c, 9, 31, 64
11, 109440, Note_on_c, 9, 31, 96
11, 109440, Note_on_c, 9, 44, 110
11, 109536, Note_off_c, 9, 44, 64
11, 109536, Note_off_c, 9, 31, 64
11, 109728, Note_on_c, 9, 31, 64
11, 109824, Note_off_c, 9, 31, 64
11, 109824, Note_on_c, 9, 31, 96
11, 109824, Note_on_c, 9, 38, 110
11, 109824, Note_on_c, 9, 36, 110
11, 109824, Note_on_c, 9, 35, 110
11, 109824, Note_on_c, 9, 40, 110
11, 109824, Note_on_c, 9, 44, 110
11, 109920, Note_off_c, 9, 44, 64
11, 109920, Note_off_c, 9, 31, 64
11, 110016, Note_off_c, 9, 40, 64
11, 110016, Note_off_c, 9, 35, 64
11, 110016, Note_off_c, 9, 36, 64
11, 110016, Note_off_c, 9, 38, 64
11, 110112, Note_on_c, 9, 31, 64
11, 110208, Note_off_c, 9, 31, 64
11, 110208, Note_on_c, 9, 31, 96
11, 110208, Note_on_c, 9, 46, 110
11, 110304, Note_off_c, 9, 31, 64
11, 110496, Note_on_c, 9, 31, 64
11, 110592, Note_off_c, 9, 31, 64
11, 110592, Note_off_c, 9, 46, 64
11, 110592, Control_c, 9, 7, 100
11, 110592, Program_c, 9, 9
11, 110592, Note_on_c, 9, 31, 96
11, 110592, Note_on_c, 9, 36, 110
11, 110592, Note_on_c, 9, 35, 110
11, 110592, Note_on_c, 9, 44, 110
11, 110688, Note_off_c, 9, 44, 64
11, 110688, Note_off_c, 9, 31, 64
11, 110784, Note_off_c, 9, 35, 64
11, 110784, Note_off_c, 9, 36, 64
11, 110880, Note_on_c, 9, 31, 64
11, 110976, Note_off_c, 9, 31, 64
11, 110976, Note_on_c, 9, 31, 96
11, 110976, Note_on_c, 9, 44, 110
11, 111072, Note_off_c, 9, 44, 64
11, 111072, Note_off_c, 9, 31, 64
11, 111264, Note_on_c, 9, 31, 64
11, 111360, Note_off_c, 9, 31, 64
11, 111360, Note_on_c, 9, 31, 96
11, 111360, Note_on_c, 9, 38, 110
11, 111360, Note_on_c, 9, 36, 110
11, 111360, Note_on_c, 9, 35, 110
11, 111360, Note_on_c, 9, 40, 110
11, 111360, Note_on_c, 9, 44, 110
11, 111456, Note_off_c, 9, 44, 64
11, 111456, Note_off_c, 9, 31, 64
11, 111552, Note_off_c, 9, 40, 64
11, 111552, Note_off_c, 9, 35, 64
11, 111552, Note_off_c, 9, 36, 64
11, 111552, Note_off_c, 9, 38, 64
11, 111648, Note_on_c, 9, 31, 64
11, 111744, Note_off_c, 9, 31, 64
11, 111744, Note_on_c, 9, 31, 96
11, 111744, Note_on_c, 9, 44, 110
11, 111840, Note_off_c, 9, 44, 64
11, 111840, Note_off_c, 9, 31, 64
11, 112032, Note_on_c, 9, 31, 64
11, 112128, Note_off_c, 9, 31, 64
11, 112128, Note_on_c, 9, 31, 96
11, 112128, Note_on_c, 9, 36, 110
11, 112128, Note_on_c, 9, 35, 110
11, 112128, Note_on_c, 9, 44, 110
11, 112224, Note_off_c, 9, 44, 64
11, 112224, Note_off_c, 9, 31, 64
11, 112320, Note_off_c, 9, 35, 64
11, 112320, Note_off_c, 9, 36, 64
11, 112416, Note_on_c, 9, 31, 64
11, 112512, Note_off_c, 9, 31, 64
11, 112512, Note_on_c, 9, 31, 96
11, 112512, Note_on_c, 9, 44, 110
11, 112608, Note_off_c, 9, 44, 64
11, 112608, Note_off_c, 9, 31, 64
11, 112800, Note_on_c, 9, 31, 64
11, 112896, Note_off_c, 9, 31, 64
11, 112896, Note_on_c, 9, 31, 96
11, 112896, Note_on_c, 9, 38, 110
11, 112896, Note_on_c, 9, 36, 110
11, 112896, Note_on_c, 9, 35, 110
11, 112896, Note_on_c, 9, 40, 110
11, 112896, Note_on_c, 9, 44, 110
11, 112992, Note_off_c, 9, 44, 64
11, 112992, Note_off_c, 9, 31, 64
11, 113088, Note_off_c, 9, 40, 64
11, 113088, Note_off_c, 9, 35, 64
11, 113088, Note_off_c, 9, 36, 64
11, 113088, Note_off_c, 9, 38, 64
11, 113184, Note_on_c, 9, 31, 64
11, 113280, Note_off_c, 9, 31, 64
11, 113280, Note_on_c, 9, 31, 96
11, 113280, Note_on_c, 9, 46, 110
11, 113376, Note_off_c, 9, 31, 64
11, 113568, Note_on_c, 9, 31, 64
11, 113664, Note_off_c, 9, 31, 64
11, 113664, Note_off_c, 9, 46, 64
11, 113664, Note_on_c, 9, 31, 96
11, 113664, Note_on_c, 9, 36, 110
11, 113664, Note_on_c, 9, 35, 110
11, 113664, Note_on_c, 9, 44, 110
11, 113760, Note_off_c, 9, 44, 64
11, 113760, Note_off_c, 9, 31, 64
11, 113856, Note_off_c, 9, 35, 64
11, 113856, Note_off_c, 9, 36, 64
11, 113952, Note_on_c, 9, 31, 64
11, 114048, Note_off_c, 9, 31, 64
11, 114048, Note_on_c, 9, 31, 96
11, 114048, Note_on_c, 9, 44, 110
11, 114144, Note_off_c, 9, 44, 64
11, 114144, Note_off_c, 9, 31, 64
11, 114336, Note_on_c, 9, 31, 64
11, 114432, Note_off_c, 9, 31, 64
11, 114432, Note_on_c, 9, 31, 96
11, 114432, Note_on_c, 9, 38, 110
11, 114432, Note_on_c, 9, 36, 110
11, 114432, Note_on_c, 9, 35, 110
11, 114432, Note_on_c, 9, 40, 110
11, 114432, Note_on_c, 9, 44, 110
11, 114528, Note_off_c, 9, 44, 64
11, 114528, Note_off_c, 9, 31, 64
11, 114624, Note_off_c, 9, 40, 64
11, 114624, Note_off_c, 9, 35, 64
11, 114624, Note_off_c, 9, 36, 64
11, 114624, Note_off_c, 9, 38, 64
11, 114720, Note_on_c, 9, 31, 64
11, 114816, Note_off_c, 9, 31, 64
11, 114816, Note_on_c, 9, 31, 96
11, 114816, Note_on_c, 9, 44, 110
11, 114912, Note_off_c, 9, 44, 64
11, 114912, Note_off_c, 9, 31, 64
11, 115104, Note_on_c, 9, 31, 64
11, 115200, Note_off_c, 9, 31, 64
11, 115200, Note_on_c, 9, 31, 96
11, 115200, Note_on_c, 9, 36, 110
11, 115200, Note_on_c, 9, 35, 110
11, 115200, Note_on_c, 9, 44, 110
11, 115296, Note_off_c, 9, 44, 64
11, 115296, Note_off_c, 9, 31, 64
11, 115392, Note_off_c, 9, 35, 64
11, 115392, Note_off_c, 9, 36, 64
11, 115488, Note_on_c, 9, 31, 64
11, 115584, Note_off_c, 9, 31, 64
11, 115584, Note_on_c, 9, 31, 96
11, 115584, Note_on_c, 9, 44, 110
11, 115680, Note_off_c, 9, 44, 64
11, 115680, Note_off_c, 9, 31, 64
11, 115872, Note_on_c, 9, 31, 64
11, 115968, Note_off_c, 9, 31, 64
11, 115968, Note_on_c, 9, 31, 96
11, 115968, Note_on_c, 9, 38, 110
11, 115968, Note_on_c, 9, 36, 110
11, 115968, Note_on_c, 9, 35, 110
11, 115968, Note_on_c, 9, 40, 110
11, 115968, Note_on_c, 9, 44, 110
11, 116064, Note_off_c, 9, 44, 64
11, 116064, Note_off_c, 9, 31, 64
11, 116160, Note_off_c, 9, 40, 64
11, 116160, Note_off_c, 9, 35, 64
11, 116160, Note_off_c, 9, 36, 64
11, 116160, Note_off_c, 9, 38, 64
11, 116256, Note_on_c, 9, 31, 64
11, 116352, Note_off_c, 9, 31, 64
11, 116352, Note_on_c, 9, 31, 96
11, 116352, Note_on_c, 9, 46, 110
11, 116448, Note_off_c, 9, 31, 64
11, 116640, Note_on_c, 9, 31, 64
11, 116736, Note_off_c, 9, 31, 64
11, 116736, Note_off_c, 9, 46, 64
11, 116736, Control_c, 9, 7, 100
11, 116736, Program_c, 9, 9
11, 116736, Note_on_c, 9, 31, 96
11, 116736, Note_on_c, 9, 36, 110
11, 116736, Note_on_c, 9, 35, 110
11, 116736, Note_on_c, 9, 44, 110
11, 116832, Note_off_c, 9, 44, 64
11, 116832, Note_off_c, 9, 31, 64
11, 116928, Note_off_c, 9, 35, 64
11, 116928, Note_off_c, 9, 36, 64
11, 117024, Note_on_c, 9, 31, 64
11, 117120, Note_off_c, 9, 31, 64
11, 117120, Note_on_c, 9, 31, 96
11, 117120, Note_on_c, 9, 44, 110
11, 117216, Note_off_c, 9, 44, 64
11, 117216, Note_off_c, 9, 31, 64
11, 117408, Note_on_c, 9, 31, 64
11, 117504, Note_off_c, 9, 31, 64
11, 117504, Note_on_c, 9, 31, 96
11, 117504, Note_on_c, 9, 38, 110
11, 117504, Note_on_c, 9, 36, 110
11, 117504, Note_on_c, 9, 35, 110
11, 117504, Note_on_c, 9, 40, 110
11, 117504, Note_on_c, 9, 44, 110
11, 117600, Note_off_c, 9, 44, 64
11, 117600, Note_off_c, 9, 31, 64
11, 117696, Note_off_c, 9, 40, 64
11, 117696, Note_off_c, 9, 35, 64
11, 117696, Note_off_c, 9, 36, 64
11, 117696, Note_off_c, 9, 38, 64
11, 117792, Note_on_c, 9, 31, 64
11, 117888, Note_off_c, 9, 31, 64
11, 117888, Note_on_c, 9, 31, 96
11, 117888, Note_on_c, 9, 44, 110
11, 117984, Note_off_c, 9, 44, 64
11, 117984, Note_off_c, 9, 31, 64
11, 118176, Note_on_c, 9, 31, 64
11, 118272, Note_off_c, 9, 31, 64
11, 118272, Note_on_c, 9, 31, 96
11, 118272, Note_on_c, 9, 36, 110
11, 118272, Note_on_c, 9, 35, 110
11, 118272, Note_on_c, 9, 44, 110
11, 118368, Note_off_c, 9, 44, 64
11, 118368, Note_off_c, 9, 31, 64
11, 118464, Note_off_c, 9, 35, 64
11, 118464, Note_off_c, 9, 36, 64
11, 118560, Note_on_c, 9, 31, 64
11, 118656, Note_off_c, 9, 31, 64
11, 118656, Note_on_c, 9, 31, 96
11, 118656, Note_on_c, 9, 44, 110
11, 118752, Note_off_c, 9, 44, 64
11, 118752, Note_off_c, 9, 31, 64
11, 118944, Note_on_c, 9, 31, 64
11, 119040, Note_off_c, 9, 31, 64
11, 119040, Note_on_c, 9, 31, 96
11, 119040, Note_on_c, 9, 38, 110
11, 119040, Note_on_c, 9, 36, 110
11, 119040, Note_on_c, 9, 35, 110
11, 119040, Note_on_c, 9, 40, 110
11, 119040, Note_on_c, 9, 44, 110
11, 119136, Note_off_c, 9, 44, 64
11, 119136, Note_off_c, 9, 31, 64
11, 119232, Note_off_c, 9, 40, 64
11, 119232, Note_off_c, 9, 35, 64
11, 119232, Note_off_c, 9, 36, 64
11, 119232, Note_off_c, 9, 38, 64
11, 119328, Note_on_c, 9, 31, 64
11, 119424, Note_off_c, 9, 31, 64
11, 119424, Note_on_c, 9, 31, 96
11, 119424, Note_on_c, 9, 46, 110
11, 119520, Note_off_c, 9, 31, 64
11, 119712, Note_on_c, 9, 31, 64
11, 119808, Note_off_c, 9, 31, 64
11, 119808, Note_off_c, 9, 46, 64
11, 119808, Note_on_c, 9, 31, 96
11, 119808, Note_on_c, 9, 36, 110
11, 119808, Note_on_c, 9, 35, 110
11, 119808, Note_on_c, 9, 44, 110
11, 119904, Note_off_c, 9, 44, 64
11, 119904, Note_off_c, 9, 31, 64
11, 120000, Note_off_c, 9, 35, 64
11, 120000, Note_off_c, 9, 36, 64
11, 120096, Note_on_c, 9, 31, 64
11, 120192, Note_off_c, 9, 31, 64
11, 120192, Note_on_c, 9, 31, 96
11, 120192, Note_on_c, 9, 44, 110
11, 120288, Note_off_c, 9, 44, 64
11, 120288, Note_off_c, 9, 31, 64
11, 120480, Note_on_c, 9, 31, 64
11, 120576, Note_off_c, 9, 31, 64
11, 120576, Note_on_c, 9, 31, 96
11, 120576, Note_on_c, 9, 38, 110
11, 120576, Note_on_c, 9, 36, 110
11, 120576, Note_on_c, 9, 35, 110
11, 120576, Note_on_c, 9, 40, 110
11, 120576, Note_on_c, 9, 44, 110
11, 120672, Note_off_c, 9, 44, 64
11, 120672, Note_off_c, 9, 31, 64
11, 120768, Note_off_c, 9, 40, 64
11, 120768, Note_off_c, 9, 35, 64
11, 120768, Note_off_c, 9, 36, 64
11, 120768, Note_off_c, 9, 38, 64
11, 120864, Note_on_c, 9, 31, 64
11, 120960, Note_off_c, 9, 31, 64
11, 120960, Note_on_c, 9, 31, 96
11, 120960, Note_on_c, 9, 44, 110
11, 121056, Note_off_c, 9, 44, 64
11, 121056, Note_off_c, 9, 31, 64
11, 121248, Note_on_c, 9, 31, 64
11, 121344, Note_off_c, 9, 31, 64
11, 121344, Note_on_c, 9, 31, 96
11, 121344, Note_on_c, 9, 36, 110
11, 121344, Note_on_c, 9, 35, 110
11, 121344, Note_on_c, 9, 44, 110
11, 121440, Note_off_c, 9, 44, 64
11, 121440, Note_off_c, 9, 31, 64
11, 121536, Note_off_c, 9, 35, 64
11, 121536, Note_off_c, 9, 36, 64
11, 121632, Note_on_c, 9, 31, 64
11, 121728, Note_off_c, 9, 31, 64
11, 121728, Note_on_c, 9, 31, 96
11, 121728, Note_on_c, 9, 44, 110
11, 121824, Note_off_c, 9, 44, 64
11, 121824, Note_off_c, 9, 31, 64
11, 122016, Note_on_c, 9, 31, 64
11, 122112, Note_off_c, 9, 31, 64
11, 122112, Note_on_c, 9, 31, 96
11, 122112, Note_on_c, 9, 38, 110
11, 122112, Note_on_c, 9, 36, 110
11, 122112, Note_on_c, 9, 35, 110
11, 122112, Note_on_c, 9, 40, 110
11, 122112, Note_on_c, 9, 44, 110
11, 122208, Note_off_c, 9, 44, 64
11, 122208, Note_off_c, 9, 31, 64
11, 122304, Note_off_c, 9, 40, 64
11, 122304, Note_off_c, 9, 35, 64
11, 122304, Note_off_c, 9, 36, 64
11, 122304, Note_off_c, 9, 38, 64
11, 122400, Note_on_c, 9, 31, 64
11, 122496, Note_off_c, 9, 31, 64
11, 122496, Note_on_c, 9, 31, 96
11, 122496, Note_on_c, 9, 46, 110
11, 122592, Note_off_c, 9, 31, 64
11, 122784, Note_on_c, 9, 31, 64
11, 122880, Note_off_c, 9, 31, 64
11, 122880, Note_off_c, 9, 46, 64
11, 122880, Control_c, 9, 7, 100
11, 122880, Program_c, 9, 9
11, 122880, Note_on_c, 9, 31, 96
11, 122880, Note_on_c, 9, 36, 110
11, 122880, Note_on_c, 9, 35, 110
11, 122880, Note_on_c, 9, 44, 110
11, 122976, Note_off_c, 9, 44, 64
11, 122976, Note_off_c, 9, 31, 64
11, 123072, Note_off_c, 9, 35, 64
11, 123072, Note_off_c, 9, 36, 64
11, 123168, Note_on_c, 9, 31, 64
11, 123264, Note_off_c, 9, 31, 64
11, 123264, Note_on_c, 9, 31, 96
11, 123264, Note_on_c, 9, 44, 110
11, 123360, Note_off_c, 9, 44, 64
11, 123360, Note_off_c, 9, 31, 64
11, 123552, Note_on_c, 9, 31, 64
11, 123648, Note_off_c, 9, 31, 64
11, 123648, Note_on_c, 9, 31, 96
11, 123648, Note_on_c, 9, 38, 110
11, 123648, Note_on_c, 9, 36, 110
11, 123648, Note_on_c, 9, 35, 110
11, 123648, Note_on_c, 9, 40, 110
11, 123648, Note_on_c, 9, 44, 110
11, 123744, Note_off_c, 9, 44, 64
11, 123744, Note_off_c, 9, 31, 64
11, 123840, Note_off_c, 9, 40, 64
11, 123840, Note_off_c, 9, 35, 64
11, 123840, Note_off_c, 9, 36, 64
11, 123840, Note_off_c, 9, 38, 64
11, 123936, Note_on_c, 9, 31, 64
11, 124032, Note_off_c, 9, 31, 64
11, 124032, Note_on_c, 9, 31, 96
11, 124032, Note_on_c, 9, 44, 110
11, 124128, Note_off_c, 9, 44, 64
11, 124128, Note_off_c, 9, 31, 64
11, 124320, Note_on_c, 9, 31, 64
11, 124416, Note_off_c, 9, 31, 64
11, 124416, Note_on_c, 9, 31, 96
11, 124416, Note_on_c, 9, 36, 110
11, 124416, Note_on_c, 9, 35, 110
11, 124416, Note_on_c, 9, 44, 110
11, 124512, Note_off_c, 9, 44, 64
11, 124512, Note_off_c, 9, 31, 64
11, 124608, Note_off_c, 9, 35, 64
11, 124608, Note_off_c, 9, 36, 64
11, 124704, Note_on_c, 9, 31, 64
11, 124800, Note_off_c, 9, 31, 64
11, 124800, Note_on_c, 9, 31, 96
11, 124800, Note_on_c, 9, 44, 110
11, 124896, Note_off_c, 9, 44, 64
11, 124896, Note_off_c, 9, 31, 64
11, 125088, Note_on_c, 9, 31, 64
11, 125184, Note_off_c, 9, 31, 64
11, 125184, Note_on_c, 9, 31, 96
11, 125184, Note_on_c, 9, 38, 110
11, 125184, Note_on_c, 9, 36, 110
11, 125184, Note_on_c, 9, 35, 110
11, 125184, Note_on_c, 9, 40, 110
11, 125184, Note_on_c, 9, 44, 110
11, 125280, Note_off_c, 9, 44, 64
11, 125280, Note_off_c, 9, 31, 64
11, 125376, Note_off_c, 9, 40, 64
11, 125376, Note_off_c, 9, 35, 64
11, 125376, Note_off_c, 9, 36, 64
11, 125376, Note_off_c, 9, 38, 64
11, 125472, Note_on_c, 9, 31, 64
11, 125568, Note_off_c, 9, 31, 64
11, 125568, Note_on_c, 9, 31, 96
11, 125568, Note_on_c, 9, 46, 110
11, 125664, Note_off_c, 9, 31, 64
11, 125856, Note_on_c, 9, 31, 64
11, 125952, Note_off_c, 9, 31, 64
11, 125952, Note_off_c, 9, 46, 64
11, 125952, Note_on_c, 9, 31, 96
11, 125952, Note_on_c, 9, 36, 110
11, 125952, Note_on_c, 9, 35, 110
11, 125952, Note_on_c, 9, 44, 110
11, 126048, Note_off_c, 9, 44, 64
11, 126048, Note_off_c, 9, 31, 64
11, 126144, Note_off_c, 9, 35, 64
11, 126144, Note_off_c, 9, 36, 64
11, 126240, Note_on_c, 9, 31, 64
11, 126336, Note_off_c, 9, 31, 64
11, 126336, Note_on_c, 9, 31, 96
11, 126336, Note_on_c, 9, 44, 110
11, 126432, Note_off_c, 9, 44, 64
11, 126432, Note_off_c, 9, 31, 64
11, 126624, Note_on_c, 9, 31, 64
11, 126720, Note_off_c, 9, 31, 64
11, 126720, Note_on_c, 9, 31, 96
11, 126720, Note_on_c, 9, 38, 110
11, 126720, Note_on_c, 9, 36, 110
11, 126720, Note_on_c, 9, 35, 110
11, 126720, Note_on_c, 9, 40, 110
11, 126720, Note_on_c, 9, 44, 110
11, 126816, Note_off_c, 9, 44, 64
11, 126816, Note_off_c, 9, 31, 64
11, 126912, Note_off_c, 9, 40, 64
11, 126912, Note_off_c, 9, 35, 64
11, 126912, Note_off_c, 9, 36, 64
11, 126912, Note_off_c, 9, 38, 64
11, 127008, Note_on_c, 9, 31, 64
11, 127104, Note_off_c, 9, 31, 64
11, 127104, Note_on_c, 9, 31, 96
11, 127104, Note_on_c, 9, 44, 110
11, 127200, Note_off_c, 9, 44, 64
11, 127200, Note_off_c, 9, 31, 64
11, 127392, Note_on_c, 9, 31, 64
11, 127488, Note_off_c, 9, 31, 64
11, 127488, Note_on_c, 9, 31, 96
11, 127488, Note_on_c, 9, 36, 110
11, 127488, Note_on_c, 9, 35, 110
11, 127488, Note_on_c, 9, 44, 110
11, 127584, Note_off_c, 9, 44, 64
11, 127584, Note_off_c, 9, 31, 64
11, 127680, Note_off_c, 9, 35, 64
11, 127680, Note_off_c, 9, 36, 64
11, 127776, Note_on_c, 9, 31, 64
11, 127872, Note_off_c, 9, 31, 64
11, 127872, Note_on_c, 9, 31, 96
11, 127872, Note_on_c, 9, 44, 110
11, 127968, Note_off_c, 9, 44, 64
11, 127968, Note_off_c, 9, 31, 64
11, 128160, Note_on_c, 9, 31, 64
11, 128256, Note_off_c, 9, 31, 64
11, 128256, Note_on_c, 9, 31, 96
11, 128256, Note_on_c, 9, 38, 110
11, 128256, Note_on_c, 9, 36, 110
11, 128256, Note_on_c, 9, 35, 110
11, 128256, Note_on_c, 9, 40, 110
11, 128256, Note_on_c, 9, 44, 110
11, 128352, Note_off_c, 9, 44, 64
11, 128352, Note_off_c, 9, 31, 64
11, 128448, Note_off_c, 9, 40, 64
11, 128448, Note_off_c, 9, 35, 64
11, 128448, Note_off_c, 9, 36, 64
11, 128448, Note_off_c, 9, 38, 64
11, 128544, Note_on_c, 9, 31, 64
11, 128640, Note_off_c, 9, 31, 64
11, 128640, Note_on_c, 9, 31, 96
11, 128640, Note_on_c, 9, 46, 110
11, 128736, Note_off_c, 9, 31, 64
11, 128928, Note_on_c, 9, 31, 64
11, 129024, Note_off_c, 9, 31, 64
11, 129024, Note_off_c, 9, 46, 64
11, 129024, Control_c, 9, 7, 100
11, 129024, Program_c, 9, 9
11, 129024, Note_on_c, 9, 31, 96
11, 129024, Note_on_c, 9, 36, 110
11, 129024, Note_on_c, 9, 35, 110
11, 129024, Note_on_c, 9, 44, 110
11, 129120, Note_off_c, 9, 44, 64
11, 129120, Note_off_c, 9, 31, 64
11, 129216, Note_off_c, 9, 35, 64
11, 129216, Note_off_c, 9, 36, 64
11, 129312, Note_on_c, 9, 31, 64
11, 129408, Note_off_c, 9, 31, 64
11, 129408, Note_on_c, 9, 31, 96
11, 129408, Note_on_c, 9, 44, 110
11, 129504, Note_off_c, 9, 44, 64
11, 129504, Note_off_c, 9, 31, 64
11, 129696, Note_on_c, 9, 31, 64
11, 129792, Note_off_c, 9, 31, 64
11, 129792, Note_on_c, 9, 31, 96
11, 129792, Note_on_c, 9, 38, 110
11, 129792, Note_on_c, 9, 36, 110
11, 129792, Note_on_c, 9, 35, 110
11, 129792, Note_on_c, 9, 40, 110
11, 129792, Note_on_c, 9, 44, 110
11, 129888, Note_off_c, 9, 44, 64
11, 129888, Note_off_c, 9, 31, 64
11, 129984, Note_off_c, 9, 40, 64
11, 129984, Note_off_c, 9, 35, 64
11, 129984, Note_off_c, 9, 36, 64
11, 129984, Note_off_c, 9, 38, 64
11, 130080, Note_on_c, 9, 31, 64
11, 130176, Note_off_c, 9, 31, 64
11, 130176, Note_on_c, 9, 31, 96
11, 130176, Note_on_c, 9, 44, 110
11, 130272, Note_off_c, 9, 44, 64
11, 130272, Note_off_c, 9, 31, 64
11, 130464, Note_on_c, 9, 31, 64
11, 130560, Note_off_c, 9, 31, 64
11, 130560, Note_on_c, 9, 31, 96
11, 130560, Note_on_c, 9, 36, 110
11, 130560, Note_on_c, 9, 35, 110
11, 130560, Note_on_c, 9, 44, 110
11, 130656, Note_off_c, 9, 44, 64
11, 130656, Note_off_c, 9, 31, 64
11, 130752, Note_off_c, 9, 35, 64
11, 130752, Note_off_c, 9, 36, 64
11, 130848, Note_on_c, 9, 31, 64
11, 130944, Note_off_c, 9, 31, 64
11, 130944, Note_on_c, 9, 31, 96
11, 130944, Note_on_c, 9, 44, 110
11, 131040, Note_off_c, 9, 44, 64
11, 131040, Note_off_c, 9, 31, 64
11, 131232, Note_on_c, 9, 31, 64
11, 131328, Note_off_c, 9, 31, 64
11, 131328, Note_on_c, 9, 31, 96
11, 131328, Note_on_c, 9, 38, 110
11, 131328, Note_on_c, 9, 36, 110
11, 131328, Note_on_c, 9, 35, 110
11, 131328, Note_on_c, 9, 40, 110
11, 131328, Note_on_c, 9, 44, 110
11, 131424, Note_off_c, 9, 44, 64
11, 131424, Note_off_c, 9, 31, 64
11, 131520, Note_off_c, 9, 40, 64
11, 131520, Note_off_c, 9, 35, 64
11, 131520, Note_off_c, 9, 36, 64
11, 131520, Note_off_c, 9, 38, 64
11, 131616, Note_on_c, 9, 31, 64
11, 131712, Note_off_c, 9, 31, 64
11, 131712, Note_on_c, 9, 31, 96
11, 131712, Note_on_c, 9, 46, 110
11, 131808, Note_off_c, 9, 31, 64
11, 132000, Note_on_c, 9, 31, 64
11, 132096, Note_off_c, 9, 31, 64
11, 132096, Note_off_c, 9, 46, 64
11, 132096, Note_on_c, 9, 31, 96
11, 132096, Note_on_c, 9, 36, 110
11, 132096, Note_on_c, 9, 35, 110
11, 132096, Note_on_c, 9, 44, 110
11, 132192, Note_off_c, 9, 44, 64
11, 132192, Note_off_c, 9, 31, 64
11, 132288, Note_off_c, 9, 35, 64
11, 132288, Note_off_c, 9, 36, 64
11, 132384, Note_on_c, 9, 31, 64
11, 132480, Note_off_c, 9, 31, 64
11, 132480, Note_on_c, 9, 31, 96
11, 132480, Note_on_c, 9, 44, 110
11, 132576, Note_off_c, 9, 44, 64
11, 132576, Note_off_c, 9, 31, 64
11, 132768, Note_on_c, 9, 31, 64
11, 132864, Note_off_c, 9, 31, 64
11, 132864, Note_on_c, 9, 31, 96
11, 132864, Note_on_c, 9, 38, 110
11, 132864, Note_on_c, 9, 36, 110
11, 132864, Note_on_c, 9, 35, 110
11, 132864, Note_on_c, 9, 40, 110
11, 132864, Note_on_c, 9, 44, 110
11, 132960, Note_off_c, 9, 44, 64
11, 132960, Note_off_c, 9, 31, 64
11, 133056, Note_off_c, 9, 40, 64
11, 133056, Note_off_c, 9, 35, 64
11, 133056, Note_off_c, 9, 36, 64
11, 133056, Note_off_c, 9, 38, 64
11, 133152, Note_on_c, 9, 31, 64
11, 133248, Note_off_c, 9, 31, 64
11, 133248, Note_on_c, 9, 31, 96
11, 133248, Note_on_c, 9, 44, 110
11, 133344, Note_off_c, 9, 44, 64
11, 133344, Note_off_c, 9, 31, 64
11, 133536, Note_on_c, 9, 31, 64
11, 133632, Note_off_c, 9, 31, 64
11, 133632, Note_on_c, 9, 31, 96
11, 133632, Note_on_c, 9, 36, 110
11, 133632, Note_on_c, 9, 35, 110
11, 133632, Note_on_c, 9, 44, 110
11, 133728, Note_off_c, 9, 44, 64
11, 133728, Note_off_c, 9, 31, 64
11, 133824, Note_off_c, 9, 35, 64
11, 133824, Note_off_c, 9, 36, 64
11, 133920, Note_on_c, 9, 31, 64
11, 134016, Note_off_c, 9, 31, 64
11, 134016, Note_on_c, 9, 31, 96
11, 134016, Note_on_c, 9, 44, 110
11, 134112, Note_off_c, 9, 44, 64
11, 134112, Note_off_c, 9, 31, 64
11, 134304, Note_on_c, 9, 31, 64
11, 134400, Note_off_c, 9, 31, 64
11, 134400, Note_on_c, 9, 31, 96
11, 134400, Note_on_c, 9, 38, 110
11, 134400, Note_on_c, 9, 36, 110
11, 134400, Note_on_c, 9, 35, 110
11, 134400, Note_on_c, 9, 40, 110
11, 134400, Note_on_c, 9, 44, 110
11, 134496, Note_off_c, 9, 44, 64
11, 134496, Note_off_c, 9, 31, 64
11, 134592, Note_off_c, 9, 40, 64
11, 134592, Note_off_c, 9, 35, 64
11, 134592, Note_off_c, 9, 36, 64
11, 134592, Note_off_c, 9, 38, 64
11, 134688, Note_on_c, 9, 31, 64
11, 134784, Note_off_c, 9, 31, 64
11, 134784, Note_on_c, 9, 31, 96
11, 134784, Note_on_c, 9, 46, 110
11, 134880, Note_off_c, 9, 31, 64
11, 135072, Note_on_c, 9, 31, 64
11, 135168, Note_off_c, 9, 31, 64
11, 135168, Note_off_c, 9, 46, 64
11, 135168, Control_c, 9, 7, 100
11, 135168, Program_c, 9, 9
11, 135168, Note_on_c, 9, 31, 96
11, 135168, Note_on_c, 9, 36, 110
11, 135168, Note_on_c, 9, 35, 110
11, 135168, Note_on_c, 9, 44, 110
11, 135264, Note_off_c, 9, 44, 64
11, 135264, Note_off_c, 9, 31, 64
11, 135360, Note_off_c, 9, 35, 64
11, 135360, Note_off_c, 9, 36, 64
11, 135456, Note_on_c, 9, 31, 64
11, 135552, Note_off_c, 9, 31, 64
11, 135552, Note_on_c, 9, 31, 96
11, 135552, Note_on_c, 9, 44, 110
11, 135648, Note_off_c, 9, 44, 64
11, 135648, Note_off_c, 9, 31, 64
11, 135840, Note_on_c, 9, 31, 64
11, 135936, Note_off_c, 9, 31, 64
11, 135936, Note_on_c, 9, 31, 96
11, 135936, Note_on_c, 9, 38, 110
11, 135936, Note_on_c, 9, 36, 110
11, 135936, Note_on_c, 9, 35, 110
11, 135936, Note_on_c, 9, 40, 110
11, 135936, Note_on_c, 9, 44, 110
11, 136032, Note_off_c, 9, 44, 64
11, 136032, Note_off_c, 9, 31, 64
11, 136128, Note_off_c, 9, 40, 64
11, 136128, Note_off_c, 9, 35, 64
11, 136128, Note_off_c, 9, 36, 64
11, 136128, Note_off_c, 9, 38, 64
11, 136224, Note_on_c, 9, 31, 64
11, 136320, Note_off_c, 9, 31, 64
11, 136320, Note_on_c, 9, 31, 96
11, 136320, Note_on_c, 9, 44, 110
11, 136416, Note_off_c, 9, 44, 64
11, 136416, Note_off_c, 9, 31, 64
11, 136608, Note_on_c, 9, 31, 64
11, 136704, Note_off_c, 9, 31, 64
11, 136704, Note_on_c, 9, 31, 96
11, 136704, Note_on_c, 9, 36, 110
11, 136704, Note_on_c, 9, 35, 110
11, 136704, Note_on_c, 9, 44, 110
11, 136800, Note_off_c, 9, 44, 64
11, 136800, Note_off_c, 9, 31, 64
11, 136896, Note_off_c, 9, 35, 64
11, 136896, Note_off_c, 9, 36, 64
11, 136992, Note_on_c, 9, 31, 64
11, 137088, Note_off_c, 9, 31, 64
11, 137088, Note_on_c, 9, 31, 96
11, 137088, Note_on_c, 9, 44, 110
11, 137184, Note_off_c, 9, 44, 64
11, 137184, Note_off_c, 9, 31, 64
11, 137376, Note_on_c, 9, 31, 64
11, 137472, Note_off_c, 9, 31, 64
11, 137472, Note_on_c, 9, 31, 96
11, 137472, Note_on_c, 9, 38, 110
11, 137472, Note_on_c, 9, 36, 110
11, 137472, Note_on_c, 9, 35, 110
11, 137472, Note_on_c, 9, 40, 110
11, 137472, Note_on_c, 9, 44, 110
11, 137568, Note_off_c, 9, 44, 64
11, 137568, Note_off_c, 9, 31, 64
11, 137664, Note_off_c, 9, 40, 64
11, 137664, Note_off_c, 9, 35, 64
11, 137664, Note_off_c, 9, 36, 64
11, 137664, Note_off_c, 9, 38, 64
11, 137760, Note_on_c, 9, 31, 64
11, 137856, Note_off_c, 9, 31, 64
11, 137856, Note_on_c, 9, 31, 96
11, 137856, Note_on_c, 9, 46, 110
11, 137952, Note_off_c, 9, 31, 64
11, 138144, Note_on_c, 9, 31, 64
11, 138240, Note_off_c, 9, 31, 64
11, 138240, Note_off_c, 9, 46, 64
11, 138240, Note_on_c, 9, 31, 96
11, 138240, Note_on_c, 9, 36, 110
11, 138240, Note_on_c, 9, 35, 110
11, 138240, Note_on_c, 9, 44, 110
11, 138336, Note_off_c, 9, 44, 64
11, 138336, Note_off_c, 9, 31, 64
11, 138432, Note_off_c, 9, 35, 64
11, 138432, Note_off_c, 9, 36, 64
11, 138528, Note_on_c, 9, 31, 64
11, 138624, Note_off_c, 9, 31, 64
11, 138624, Note_on_c, 9, 31, 96
11, 138624, Note_on_c, 9, 44, 110
11, 138720, Note_off_c, 9, 44, 64
11, 138720, Note_off_c, 9, 31, 64
11, 138912, Note_on_c, 9, 31, 64
11, 139008, Note_off_c, 9, 31, 64
11, 139008, Note_on_c, 9, 31, 96
11, 139008, Note_on_c, 9, 38, 110
11, 139008, Note_on_c, 9, 36, 110
11, 139008, Note_on_c, 9, 35, 110
11, 139008, Note_on_c, 9, 40, 110
11, 139008, Note_on_c, 9, 44, 110
11, 139104, Note_off_c, 9, 44, 64
11, 139104, Note_off_c, 9, 31, 64
11, 139200, Note_off_c, 9, 40, 64
11, 139200, Note_off_c, 9, 35, 64
11, 139200, Note_off_c, 9, 36, 64
11, 139200, Note_off_c, 9, 38, 64
11, 139296, Note_on_c, 9, 31, 64
11, 139392, Note_off_c, 9, 31, 64
11, 139392, Note_on_c, 9, 31, 96
11, 139392, Note_on_c, 9, 44, 110
11, 139488, Note_off_c, 9, 44, 64
11, 139488, Note_off_c, 9, 31, 64
11, 139680, Note_on_c, 9, 31, 64
11, 139776, Note_off_c, 9, 31, 64
11, 139776, Note_on_c, 9, 31, 96
11, 139776, Note_on_c, 9, 36, 110
11, 139776, Note_on_c, 9, 35, 110
11, 139776, Note_on_c, 9, 44, 110
11, 139872, Note_off_c, 9, 44, 64
11, 139872, Note_off_c, 9, 31, 64
11, 139968, Note_off_c, 9, 35, 64
11, 139968, Note_off_c, 9, 36, 64
11, 140064, Note_on_c, 9, 31, 64
11, 140160, Note_off_c, 9, 31, 64
11, 140160, Note_on_c, 9, 31, 96
11, 140160, Note_on_c, 9, 44, 110
11, 140256, Note_off_c, 9, 44, 64
11, 140256, Note_off_c, 9, 31, 64
11, 140448, Note_on_c, 9, 31, 64
11, 140544, Note_off_c, 9, 31, 64
11, 140544, Note_on_c, 9, 31, 96
11, 140544, Note_on_c, 9, 38, 110
11, 140544, Note_on_c, 9, 36, 110
11, 140544, Note_on_c, 9, 35, 110
11, 140544, Note_on_c, 9, 40, 110
11, 140544, Note_on_c, 9, 44, 110
11, 140640, Note_off_c, 9, 44, 64
11, 140640, Note_off_c, 9, 31, 64
11, 140736, Note_off_c, 9, 40, 64
11, 140736, Note_off_c, 9, 35, 64
11, 140736, Note_off_c, 9, 36, 64
11, 140736, Note_off_c, 9, 38, 64
11, 140832, Note_on_c, 9, 31, 64
11, 140928, Note_off_c, 9, 31, 64
11, 140928, Note_on_c, 9, 31, 96
11, 140928, Note_on_c, 9, 46, 110
11, 141024, Note_off_c, 9, 31, 64
11, 141216, Note_on_c, 9, 31, 64
11, 141312, Note_off_c, 9, 31, 64
11, 141312, Note_off_c, 9, 46, 64
11, 141312, Control_c, 9, 7, 100
11, 141312, Program_c, 9, 9
11, 141312, Note_on_c, 9, 31, 96
11, 141312, Note_on_c, 9, 36, 110
11, 141312, Note_on_c, 9, 35, 110
11, 141312, Note_on_c, 9, 44, 110
11, 141408, Note_off_c, 9, 44, 64
11, 141408, Note_off_c, 9, 31, 64
11, 141504, Note_off_c, 9, 35, 64
11, 141504, Note_off_c, 9, 36, 64
11, 141600, Note_on_c, 9, 31, 64
11, 141696, Note_off_c, 9, 31, 64
11, 141696, Note_on_c, 9, 31, 96
11, 141696, Note_on_c, 9, 44, 110
11, 141792, Note_off_c, 9, 44, 64
11, 141792, Note_off_c, 9, 31, 64
11, 141984, Note_on_c, 9, 31, 64
11, 142080, Note_off_c, 9, 31, 64
11, 142080, Note_on_c, 9, 31, 96
11, 142080, Note_on_c, 9, 38, 110
11, 142080, Note_on_c, 9, 36, 110
11, 142080, Note_on_c, 9, 35, 110
11, 142080, Note_on_c, 9, 40, 110
11, 142080, Note_on_c, 9, 44, 110
11, 142176, Note_off_c, 9, 44, 64
11, 142176, Note_off_c, 9, 31, 64
11, 142272, Note_off_c, 9, 40, 64
11, 142272, Note_off_c, 9, 35, 64
11, 142272, Note_off_c, 9, 36, 64
11, 142272, Note_off_c, 9, 38, 64
11, 142368, Note_on_c, 9, 31, 64
11, 142464, Note_off_c, 9, 31, 64
11, 142464, Note_on_c, 9, 31, 96
11, 142464, Note_on_c, 9, 44, 110
11, 142560, Note_off_c, 9, 44, 64
11, 142560, Note_off_c, 9, 31, 64
11, 142752, Note_on_c, 9, 31, 64
11, 142848, Note_off_c, 9, 31, 64
11, 142848, Note_on_c, 9, 31, 96
11, 142848, Note_on_c, 9, 36, 110
11, 142848, Note_on_c, 9, 35, 110
11, 142848, Note_on_c, 9, 44, 110
11, 142944, Note_off_c, 9, 44, 64
11, 142944, Note_off_c, 9, 31, 64
11, 143040, Note_off_c, 9, 35, 64
11, 143040, Note_off_c, 9, 36, 64
11, 143136, Note_on_c, 9, 31, 64
11, 143232, Note_off_c, 9, 31, 64
11, 143232, Note_on_c, 9, 31, 96
11, 143232, Note_on_c, 9, 44, 110
11, 143328, Note_off_c, 9, 44, 64
11, 143328, Note_off_c, 9, 31, 64
11, 143520, Note_on_c, 9, 31, 64
11, 143616, Note_off_c, 9, 31, 64
11, 143616, Note_on_c, 9, 31, 96
11, 143616, Note_on_c, 9, 38, 110
11, 143616, Note_on_c, 9, 36, 110
11, 143616, Note_on_c, 9, 35, 110
11, 143616, Note_on_c, 9, 40, 110
11, 143616, Note_on_c, 9, 44, 110
11, 143712, Note_off_c, 9, 44, 64
11, 143712, Note_off_c, 9, 31, 64
11, 143808, Note_off_c, 9, 40, 64
11, 143808, Note_off_c, 9, 35, 64
11, 143808, Note_off_c, 9, 36, 64
11, 143808, Note_off_c, 9, 38, 64
11, 143904, Note_on_c, 9, 31, 64
11, 144000, Note_off_c, 9, 31, 64
11, 144000, Note_on_c, 9, 31, 96
11, 144000, Note_on_c, 9, 46, 110
11, 144096, Note_off_c, 9, 31, 64
11, 144288, Note_on_c, 9, 31, 64
11, 144384, Note_off_c, 9, 31, 64
11, 144384, Note_off_c, 9, 46, 64
11, 144384, Note_on_c, 9, 31, 96
11, 144384, Note_on_c, 9, 36, 110
11, 144384, Note_on_c, 9, 35, 110
11, 144384, Note_on_c, 9, 44, 110
11, 144480, Note_off_c, 9, 44, 64
11, 144480, Note_off_c, 9, 31, 64
11, 144576, Note_off_c, 9, 35, 64
11, 144576, Note_off_c, 9, 36, 64
11, 144672, Note_on_c, 9, 31, 64
11, 144768, Note_off_c, 9, 31, 64
11, 144768, Note_on_c, 9, 31, 96
11, 144768, Note_on_c, 9, 44, 110
11, 144864, Note_off_c, 9, 44, 64
11, 144864, Note_off_c, 9, 31, 64
11, 145056, Note_on_c, 9, 31, 64
11, 145152, Note_off_c, 9, 31, 64
11, 145152, Note_on_c, 9, 31, 96
11, 145152, Note_on_c, 9, 38, 110
11, 145152, Note_on_c, 9, 36, 110
11, 145152, Note_on_c, 9, 35, 110
11, 145152, Note_on_c, 9, 40, 110
11, 145152, Note_on_c, 9, 44, 110
11, 145248, Note_off_c, 9, 44, 64
11, 145248, Note_off_c, 9, 31, 64
11, 145344, Note_off_c, 9, 40, 64
11, 145344, Note_off_c, 9, 35, 64
11, 145344, Note_off_c, 9, 36, 64
11, 145344, Note_off_c, 9, 38, 64
11, 145440, Note_on_c, 9, 31, 64
11, 145536, Note_off_c, 9, 31, 64
11, 145536, Note_on_c, 9, 31, 96
11, 145536, Note_on_c, 9, 44, 110
11, 145632, Note_off_c, 9, 44, 64
11, 145632, Note_off_c, 9, 31, 64
11, 145824, Note_on_c, 9, 31, 64
11, 145920, Note_off_c, 9, 31, 64
11, 145920, Note_on_c, 9, 38, 64
11, 145920, Note_on_c, 9, 40, 64
11, 145920, Note_on_c, 9, 31, 96
11, 145920, Note_on_c, 9, 36, 110
11, 145920, Note_on_c, 9, 35, 110
11, 145920, Note_on_c, 9, 44, 110
11, 146016, Note_off_c, 9, 44, 64
11, 146016, Note_off_c, 9, 31, 64
11, 146112, Note_off_c, 9, 35, 64
11, 146112, Note_off_c, 9, 36, 64
11, 146112, Note_off_c, 9, 40, 64
11, 146112, Note_off_c, 9, 38, 64
11, 146208, Note_on_c, 9, 38, 64
11, 146208, Note_on_c, 9, 40, 64
11, 146208, Note_on_c, 9, 31, 64
11, 146304, Note_off_c, 9, 31, 64
11, 146304, Note_on_c, 9, 31, 96
11, 146304, Note_on_c, 9, 44, 110
11, 146400, Note_off_c, 9, 44, 64
11, 146400, Note_off_c, 9, 31, 64
11, 146400, Note_off_c, 9, 40, 64
11, 146400, Note_off_c, 9, 38, 64
11, 146592, Note_on_c, 9, 38, 64
11, 146592, Note_on_c, 9, 40, 64
11, 146592, Note_on_c, 9, 31, 64
11, 146688, Note_off_c, 9, 31, 64
11, 146688, Note_off_c, 9, 40, 64
11, 146688, Note_off_c, 9, 38, 64
11, 146688, Note_on_c, 9, 38, 110
11, 146688, Note_on_c, 9, 40, 110
11, 146688, Note_on_c, 9, 31, 96
11, 146688, Note_on_c, 9, 36, 110
11, 146688, Note_on_c, 9, 35, 110
11, 146688, Note_on_c, 9, 44, 110
11, 146784, Note_off_c, 9, 44, 64
11, 146784, Note_off_c, 9, 31, 64
11, 146880, Note_off_c, 9, 35, 64
11, 146880, Note_off_c, 9, 36, 64
11, 146880, Note_off_c, 9, 40, 64
11, 146880, Note_off_c, 9, 38, 64
11, 146976, Note_on_c, 9, 38, 64
11, 146976, Note_on_c, 9, 40, 64
11, 146976, Note_on_c, 9, 31, 64
11, 147072, Note_off_c, 9, 31, 64
11, 147072, Note_off_c, 9, 40, 64
11, 147072, Note_off_c, 9, 38, 64
11, 147072, Note_on_c, 9, 38, 64
11, 147072, Note_on_c, 9, 40, 64
11, 147072, Note_on_c, 9, 31, 96
11, 147072, Note_on_c, 9, 46, 110
11, 147168, Note_off_c, 9, 31, 64
11, 147264, Note_off_c, 9, 40, 64
11, 147264, Note_off_c, 9, 38, 64
11, 147360, Note_on_c, 9, 31, 64
11, 147456, Note_off_c, 9, 31, 64
11, 147456, Note_off_c, 9, 46, 64
11, 147456, Control_c, 9, 7, 100
11, 147456, Program_c, 9, 9
11, 147456, Note_on_c, 9, 31, 96
11, 147456, Note_on_c, 9, 36, 110
11, 147456, Note_on_c, 9, 35, 110
11, 147456, Note_on_c, 9, 44, 110
11, 147552, Note_off_c, 9, 44, 64
11, 147552, Note_off_c, 9, 31, 64
11, 147648, Note_off_c, 9, 35, 64
11, 147648, Note_off_c, 9, 36, 64
11, 147744, Note_on_c, 9, 31, 64
11, 147840, Note_off_c, 9, 31, 64
11, 147840, Note_on_c, 9, 31, 96
11, 147840, Note_on_c, 9, 44, 110
11, 147936, Note_off_c, 9, 44, 64
11, 147936, Note_off_c, 9, 31, 64
11, 148128, Note_on_c, 9, 31, 64
11, 148224, Note_off_c, 9, 31, 64
11, 148224, Note_on_c, 9, 31, 96
11, 148224, Note_on_c, 9, 38, 110
11, 148224, Note_on_c, 9, 36, 110
11, 148224, Note_on_c, 9, 35, 110
11, 148224, Note_on_c, 9, 40, 110
11, 148224, Note_on_c, 9, 44, 110
11, 148320, Note_off_c, 9, 44, 64
11, 148320, Note_off_c, 9, 31, 64
11, 148416, Note_off_c, 9, 40, 64
11, 148416, Note_off_c, 9, 35, 64
11, 148416, Note_off_c, 9, 36, 64
11, 148416, Note_off_c, 9, 38, 64
11, 148512, Note_on_c, 9, 31, 64
11, 148608, Note_off_c, 9, 31, 64
11, 148608, Note_on_c, 9, 31, 96
11, 148608, Note_on_c, 9, 44, 110
11, 148704, Note_off_c, 9, 44, 64
11, 148704, Note_off_c, 9, 31, 64
11, 148896, Note_on_c, 9, 31, 64
11, 148992, Note_off_c, 9, 31, 64
11, 148992, Note_on_c, 9, 31, 96
11, 148992, Note_on_c, 9, 36, 110
11, 148992, Note_on_c, 9, 35, 110
11, 148992, Note_on_c, 9, 44, 110
11, 149088, Note_off_c, 9, 44, 64
11, 149088, Note_off_c, 9, 31, 64
11, 149184, Note_off_c, 9, 35, 64
11, 149184, Note_off_c, 9, 36, 64
11, 149280, Note_on_c, 9, 31, 64
11, 149376, Note_off_c, 9, 31, 64
11, 149376, Note_on_c, 9, 31, 96
11, 149376, Note_on_c, 9, 44, 110
11, 149472, Note_off_c, 9, 44, 64
11, 149472, Note_off_c, 9, 31, 64
11, 149664, Note_on_c, 9, 31, 64
11, 149760, Note_off_c, 9, 31, 64
11, 149760, Note_on_c, 9, 31, 96
11, 149760, Note_on_c, 9, 38, 110
11, 149760, Note_on_c, 9, 36, 110
11, 149760, Note_on_c, 9, 35, 110
11, 149760, Note_on_c, 9, 40, 110
11, 149760, Note_on_c, 9, 44, 110
11, 149856, Note_off_c, 9, 44, 64
11, 149856, Note_off_c, 9, 31, 64
11, 149952, Note_off_c, 9, 40, 64
11, 149952, Note_off_c, 9, 35, 64
11, 149952, Note_off_c, 9, 36, 64
11, 149952, Note_off_c, 9, 38, 64
11, 150048, Note_on_c, 9, 31, 64
11, 150144, Note_off_c, 9, 31, 64
11, 150144, Note_on_c, 9, 31, 96
11, 150144, Note_on_c, 9, 46, 110
11, 150240, Note_off_c, 9, 31, 64
11, 150432, Note_on_c, 9, 31, 64
11, 150528, Note_off_c, 9, 31, 64
11, 150528, Note_off_c, 9, 46, 64
11, 150528, Note_on_c, 9, 31, 96
11, 150528, Note_on_c, 9, 36, 110
11, 150528, Note_on_c, 9, 35, 110
11, 150528, Note_on_c, 9, 44, 110
11, 150624, Note_off_c, 9, 44, 64
11, 150624, Note_off_c, 9, 31, 64
11, 150720, Note_off_c, 9, 35, 64
11, 150720, Note_off_c, 9, 36, 64
11, 150816, Note_on_c, 9, 31, 64
11, 150912, Note_off_c, 9, 31, 64
11, 150912, Note_on_c, 9, 31, 96
11, 150912, Note_on_c, 9, 44, 110
11, 151008, Note_off_c, 9, 44, 64
11, 151008, Note_off_c, 9, 31, 64
11, 151200, Note_on_c, 9, 31, 64
11, 151296, Note_off_c, 9, 31, 64
11, 151296, Note_on_c, 9, 31, 96
11, 151296, Note_on_c, 9, 38, 110
11, 151296, Note_on_c, 9, 36, 110
11, 151296, Note_on_c, 9, 35, 110
11, 151296, Note_on_c, 9, 40, 110
11, 151296, Note_on_c, 9, 44, 110
11, 151392, Note_off_c, 9, 44, 64
11, 151392, Note_off_c, 9, 31, 64
11, 151488, Note_off_c, 9, 40, 64
11, 151488, Note_off_c, 9, 35, 64
11, 151488, Note_off_c, 9, 36, 64
11, 151488, Note_off_c, 9, 38, 64
11, 151584, Note_on_c, 9, 31, 64
11, 151680, Note_off_c, 9, 31, 64
11, 151680, Note_on_c, 9, 31, 96
11, 151680, Note_on_c, 9, 44, 110
11, 151776, Note_off_c, 9, 44, 64
11, 151776, Note_off_c, 9, 31, 64
11, 151968, Note_on_c, 9, 31, 64
11, 152064, Note_off_c, 9, 31, 64
11, 152064, Note_on_c, 9, 31, 96
11, 152064, Note_on_c, 9, 36, 110
11, 152064, Note_on_c, 9, 35, 110
11, 152064, Note_on_c, 9, 44, 110
11, 152160, Note_off_c, 9, 44, 64
11, 152160, Note_off_c, 9, 31, 64
11, 152256, Note_off_c, 9, 35, 64
11, 152256, Note_off_c, 9, 36, 64
11, 152352, Note_on_c, 9, 31, 64
11, 152448, Note_off_c, 9, 31, 64
11, 152448, Note_on_c, 9, 31, 96
11, 152448, Note_on_c, 9, 44, 110
11, 152544, Note_off_c, 9, 44, 64
11, 152544, Note_off_c, 9, 31, 64
11, 152736, Note_on_c, 9, 31, 64
11, 152832, Note_off_c, 9, 31, 64
11, 152832, Note_on_c, 9, 31, 96
11, 152832, Note_on_c, 9, 38, 110
11, 152832, Note_on_c, 9, 36, 110
11, 152832, Note_on_c, 9, 35, 110
11, 152832, Note_on_c, 9, 40, 110
11, 152832, Note_on_c, 9, 44, 110
11, 152928, Note_off_c, 9, 44, 64
11, 152928, Note_off_c, 9, 31, 64
11, 153024, Note_off_c, 9, 40, 64
11, 153024, Note_off_c, 9, 35, 64
11, 153024, Note_off_c, 9, 36, 64
11, 153024, Note_off_c, 9, 38, 64
11, 153120, Note_on_c, 9, 31, 64
11, 153216, Note_off_c, 9, 31, 64
11, 153216, Note_on_c, 9, 31, 96
11, 153216, Note_on_c, 9, 46, 110
11, 153312, Note_off_c, 9, 31, 64
11, 153504, Note_on_c, 9, 31, 64
11, 153600, Note_off_c, 9, 31, 64
11, 153600, Note_off_c, 9, 46, 64
11, 153600, Control_c, 9, 7, 100
11, 153600, Program_c, 9, 9
11, 153600, Note_on_c, 9, 31, 96
11, 153600, Note_on_c, 9, 36, 110
11, 153600, Note_on_c, 9, 35, 110
11, 153600, Note_on_c, 9, 44, 110
11, 153696, Note_off_c, 9, 44, 64
11, 153696, Note_off_c, 9, 31, 64
11, 153792, Note_off_c, 9, 35, 64
11, 153792, Note_off_c, 9, 36, 64
11, 153888, Note_on_c, 9, 31, 64
11, 153984, Note_off_c, 9, 31, 64
11, 153984, Note_on_c, 9, 31, 96
11, 153984, Note_on_c, 9, 44, 110
11, 154080, Note_off_c, 9, 44, 64
11, 154080, Note_off_c, 9, 31, 64
11, 154272, Note_on_c, 9, 31, 64
11, 154368, Note_off_c, 9, 31, 64
11, 154368, Note_on_c, 9, 31, 96
11, 154368, Note_on_c, 9, 38, 110
11, 154368, Note_on_c, 9, 36, 110
11, 154368, Note_on_c, 9, 35, 110
11, 154368, Note_on_c, 9, 40, 110
11, 154368, Note_on_c, 9, 44, 110
11, 154464, Note_off_c, 9, 44, 64
11, 154464, Note_off_c, 9, 31, 64
11, 154560, Note_off_c, 9, 40, 64
11, 154560, Note_off_c, 9, 35, 64
11, 154560, Note_off_c, 9, 36, 64
11, 154560, Note_off_c, 9, 38, 64
11, 154656, Note_on_c, 9, 31, 64
11, 154752, Note_off_c, 9, 31, 64
11, 154752, Note_on_c, 9, 31, 96
11, 154752, Note_on_c, 9, 44, 110
11, 154848, Note_off_c, 9, 44, 64
11, 154848, Note_off_c, 9, 31, 64
11, 155040, Note_on_c, 9, 31, 64
11, 155136, Note_off_c, 9, 31, 64
11, 155136, Note_on_c, 9, 31, 96
11, 155136, Note_on_c, 9, 36, 110
11, 155136, Note_on_c, 9, 35, 110
11, 155136, Note_on_c, 9, 44, 110
11, 155232, Note_off_c, 9, 44, 64
11, 155232, Note_off_c, 9, 31, 64
11, 155328, Note_off_c, 9, 35, 64
11, 155328, Note_off_c, 9, 36, 64
11, 155424, Note_on_c, 9, 31, 64
11, 155520, Note_off_c, 9, 31, 64
11, 155520, Note_on_c, 9, 31, 96
11, 155520, Note_on_c, 9, 44, 110
11, 155616, Note_off_c, 9, 44, 64
11, 155616, Note_off_c, 9, 31, 64
11, 155808, Note_on_c, 9, 31, 64
11, 155904, Note_off_c, 9, 31, 64
11, 155904, Note_on_c, 9, 31, 96
11, 155904, Note_on_c, 9, 38, 110
11, 155904, Note_on_c, 9, 36, 110
11, 155904, Note_on_c, 9, 35, 110
11, 155904, Note_on_c, 9, 40, 110
11, 155904, Note_on_c, 9, 44, 110
11, 156000, Note_off_c, 9, 44, 64
11, 156000, Note_off_c, 9, 31, 64
11, 156096, Note_off_c, 9, 40, 64
11, 156096, Note_off_c, 9, 35, 64
11, 156096, Note_off_c, 9, 36, 64
11, 156096, Note_off_c, 9, 38, 64
11, 156192, Note_on_c, 9, 31, 64
11, 156288, Note_off_c, 9, 31, 64
11, 156288, Note_on_c, 9, 31, 96
11, 156288, Note_on_c, 9, 46, 110
11, 156384, Note_off_c, 9, 31, 64
11, 156576, Note_on_c, 9, 31, 64
11, 156672, Note_off_c, 9, 31, 64
11, 156672, Note_off_c, 9, 46, 64
11, 156672, Note_on_c, 9, 31, 96
11, 156672, Note_on_c, 9, 36, 110
11, 156672, Note_on_c, 9, 35, 110
11, 156672, Note_on_c, 9, 44, 110
11, 156768, Note_off_c, 9, 44, 64
11, 156768, Note_off_c, 9, 31, 64
11, 156864, Note_off_c, 9, 35, 64
11, 156864, Note_off_c, 9, 36, 64
11, 156960, Note_on_c, 9, 31, 64
11, 157056, Note_off_c, 9, 31, 64
11, 157056, Note_on_c, 9, 31, 96
11, 157056, Note_on_c, 9, 44, 110
11, 157152, Note_off_c, 9, 44, 64
11, 157152, Note_off_c, 9, 31, 64
11, 157344, Note_on_c, 9, 31, 64
11, 157440, Note_off_c, 9, 31, 64
11, 157440, Note_on_c, 9, 31, 96
11, 157440, Note_on_c, 9, 38, 110
11, 157440, Note_on_c, 9, 36, 110
11, 157440, Note_on_c, 9, 35, 110
11, 157440, Note_on_c, 9, 40, 110
11, 157440, Note_on_c, 9, 44, 110
11, 157536, Note_off_c, 9, 44, 64
11, 157536, Note_off_c, 9, 31, 64
11, 157632, Note_off_c, 9, 40, 64
11, 157632, Note_off_c, 9, 35, 64
11, 157632, Note_off_c, 9, 36, 64
11, 157632, Note_off_c, 9, 38, 64
11, 157728, Note_on_c, 9, 31, 64
11, 157824, Note_off_c, 9, 31, 64
11, 157824, Note_on_c, 9, 31, 96
11, 157824, Note_on_c, 9, 44, 110
11, 157920, Note_off_c, 9, 44, 64
11, 157920, Note_off_c, 9, 31, 64
11, 158112, Note_on_c, 9, 31, 64
11, 158208, Note_off_c, 9, 31, 64
11, 158208, Note_on_c, 9, 31, 96
11, 158208, Note_on_c, 9, 36, 110
11, 158208, Note_on_c, 9, 35, 110
11, 158208, Note_on_c, 9, 44, 110
11, 158304, Note_off_c, 9, 44, 64
11, 158304, Note_off_c, 9, 31, 64
11, 158400, Note_off_c, 9, 35, 64
11, 158400, Note_off_c, 9, 36, 64
11, 158496, Note_on_c, 9, 31, 64
11, 158592, Note_off_c, 9, 31, 64
11, 158592, Note_on_c, 9, 31, 96
11, 158592, Note_on_c, 9, 44, 110
11, 158688, Note_off_c, 9, 44, 64
11, 158688, Note_off_c, 9, 31, 64
11, 158880, Note_on_c, 9, 31, 64
11, 158976, Note_off_c, 9, 31, 64
11, 158976, Note_on_c, 9, 31, 96
11, 158976, Note_on_c, 9, 38, 110
11, 158976, Note_on_c, 9, 36, 110
11, 158976, Note_on_c, 9, 35, 110
11, 158976, Note_on_c, 9, 40, 110
11, 158976, Note_on_c, 9, 44, 110
11, 159072, Note_off_c, 9, 44, 64
11, 159072, Note_off_c, 9, 31, 64
11, 159168, Note_off_c, 9, 40, 64
11, 159168, Note_off_c, 9, 35, 64
11, 159168, Note_off_c, 9, 36, 64
11, 159168, Note_off_c, 9, 38, 64
11, 159264, Note_on_c, 9, 31, 64
11, 159360, Note_off_c, 9, 31, 64
11, 159360, Note_on_c, 9, 31, 96
11, 159360, Note_on_c, 9, 46, 110
11, 159456, Note_off_c, 9, 31, 64
11, 159648, Note_on_c, 9, 31, 64
11, 159744, Note_off_c, 9, 31, 64
11, 159744, Note_off_c, 9, 46, 64
11, 159744, Control_c, 9, 7, 100
11, 159744, Program_c, 9, 9
11, 159744, Note_on_c, 9, 31, 96
11, 159744, Note_on_c, 9, 36, 110
11, 159744, Note_on_c, 9, 35, 110
11, 159744, Note_on_c, 9, 44, 110
11, 159840, Note_off_c, 9, 44, 64
11, 159840, Note_off_c, 9, 31, 64
11, 159936, Note_off_c, 9, 35, 64
11, 159936, Note_off_c, 9, 36, 64
11, 160032, Note_on_c, 9, 31, 64
11, 160128, Note_off_c, 9, 31, 64
11, 160128, Note_on_c, 9, 31, 96
11, 160128, Note_on_c, 9, 44, 110
11, 160224, Note_off_c, 9, 44, 64
11, 160224, Note_off_c, 9, 31, 64
11, 160416, Note_on_c, 9, 31, 64
11, 160512, Note_off_c, 9, 31, 64
11, 160512, Note_on_c, 9, 31, 96
11, 160512, Note_on_c, 9, 38, 110
11, 160512, Note_on_c, 9, 36, 110
11, 160512, Note_on_c, 9, 35, 110
11, 160512, Note_on_c, 9, 40, 110
11, 160512, Note_on_c, 9, 44, 110
11, 160608, Note_off_c, 9, 44, 64
11, 160608, Note_off_c, 9, 31, 64
11, 160704, Note_off_c, 9, 40, 64
11, 160704, Note_off_c, 9, 35, 64
11, 160704, Note_off_c, 9, 36, 64
11, 160704, Note_off_c, 9, 38, 64
11, 160800, Note_on_c, 9, 31, 64
11, 160896, Note_off_c, 9, 31, 64
11, 160896, Note_on_c, 9, 31, 96
11, 160896, Note_on_c, 9, 44, 110
11, 160992, Note_off_c, 9, 44, 64
11, 160992, Note_off_c, 9, 31, 64
11, 161184, Note_on_c, 9, 31, 64
11, 161280, Note_off_c, 9, 31, 64
11, 161280, Note_on_c, 9, 31, 96
11, 161280, Note_on_c, 9, 36, 110
11, 161280, Note_on_c, 9, 35, 110
11, 161280, Note_on_c, 9, 44, 110
11, 161376, Note_off_c, 9, 44, 64
11, 161376, Note_off_c, 9, 31, 64
11, 161472, Note_off_c, 9, 35, 64
11, 161472, Note_off_c, 9, 36, 64
11, 161568, Note_on_c, 9, 31, 64
11, 161664, Note_off_c, 9, 31, 64
11, 161664, Note_on_c, 9, 31, 96
11, 161664, Note_on_c, 9, 44, 110
11, 161760, Note_off_c, 9, 44, 64
11, 161760, Note_off_c, 9, 31, 64
11, 161952, Note_on_c, 9, 31, 64
11, 162048, Note_off_c, 9, 31, 64
11, 162048, Note_on_c, 9, 31, 96
11, 162048, Note_on_c, 9, 38, 110
11, 162048, Note_on_c, 9, 36, 110
11, 162048, Note_on_c, 9, 35, 110
11, 162048, Note_on_c, 9, 40, 110
11, 162048, Note_on_c, 9, 44, 110
11, 162144, Note_off_c, 9, 44, 64
11, 162144, Note_off_c, 9, 31, 64
11, 162240, Note_off_c, 9, 40, 64
11, 162240, Note_off_c, 9, 35, 64
11, 162240, Note_off_c, 9, 36, 64
11, 162240, Note_off_c, 9, 38, 64
11, 162336, Note_on_c, 9, 31, 64
11, 162432, Note_off_c, 9, 31, 64
11, 162432, Note_on_c, 9, 31, 96
11, 162432, Note_on_c, 9, 46, 110
11, 162528, Note_off_c, 9, 31, 64
11, 162720, Note_on_c, 9, 31, 64
11, 162816, Note_off_c, 9, 31, 64
11, 162816, Note_off_c, 9, 46, 64
11, 162816, Note_on_c, 9, 31, 96
11, 162816, Note_on_c, 9, 36, 110
11, 162816, Note_on_c, 9, 35, 110
11, 162816, Note_on_c, 9, 44, 110
11, 162912, Note_off_c, 9, 44, 64
11, 162912, Note_off_c, 9, 31, 64
11, 163008, Note_off_c, 9, 35, 64
11, 163008, Note_off_c, 9, 36, 64
11, 163104, Note_on_c, 9, 31, 64
11, 163200, Note_off_c, 9, 31, 64
11, 163200, Note_on_c, 9, 31, 96
11, 163200, Note_on_c, 9, 44, 110
11, 163296, Note_off_c, 9, 44, 64
11, 163296, Note_off_c, 9, 31, 64
11, 163488, Note_on_c, 9, 31, 64
11, 163584, Note_off_c, 9, 31, 64
11, 163584, Note_on_c, 9, 31, 96
11, 163584, Note_on_c, 9, 38, 110
11, 163584, Note_on_c, 9, 36, 110
11, 163584, Note_on_c, 9, 35, 110
11, 163584, Note_on_c, 9, 40, 110
11, 163584, Note_on_c, 9, 44, 110
11, 163680, Note_off_c, 9, 44, 64
11, 163680, Note_off_c, 9, 31, 64
11, 163776, Note_off_c, 9, 40, 64
11, 163776, Note_off_c, 9, 35, 64
11, 163776, Note_off_c, 9, 36, 64
11, 163776, Note_off_c, 9, 38, 64
11, 163872, Note_on_c, 9, 31, 64
11, 163968, Note_off_c, 9, 31, 64
11, 163968, Note_on_c, 9, 31, 96
11, 163968, Note_on_c, 9, 44, 110
11, 164064, Note_off_c, 9, 44, 64
11, 164064, Note_off_c, 9, 31, 64
11, 164256, Note_on_c, 9, 31, 64
11, 164352, Note_off_c, 9, 31, 64
11, 164352, Note_on_c, 9, 31, 96
11, 164352, Note_on_c, 9, 36, 110
11, 164352, Note_on_c, 9, 35, 110
11, 164352, Note_on_c, 9, 44, 110
11, 164448, Note_off_c, 9, 44, 64
11, 164448, Note_off_c, 9, 31, 64
11, 164544, Note_off_c, 9, 35, 64
11, 164544, Note_off_c, 9, 36, 64
11, 164640, Note_on_c, 9, 31, 64
11, 164736, Note_off_c, 9, 31, 64
11, 164736, Note_on_c, 9, 31, 96
11, 164736, Note_on_c, 9, 44, 110
11, 164832, Note_off_c, 9, 44, 64
11, 164832, Note_off_c, 9, 31, 64
11, 165024, Note_on_c, 9, 31, 64
11, 165120, Note_off_c, 9, 31, 64
11, 165120, Note_on_c, 9, 31, 96
11, 165120, Note_on_c, 9, 38, 110
11, 165120, Note_on_c, 9, 36, 110
11, 165120, Note_on_c, 9, 35, 110
11, 165120, Note_on_c, 9, 40, 110
11, 165120, Note_on_c, 9, 44, 110
11, 165216, Note_off_c, 9, 44, 64
11, 165216, Note_off_c, 9, 31, 64
11, 165312, Note_off_c, 9, 40, 64
11, 165312, Note_off_c, 9, 35, 64
11, 165312, Note_off_c, 9, 36, 64
11, 165312, Note_off_c, 9, 38, 64
11, 165408, Note_on_c, 9, 31, 64
11, 165504, Note_off_c, 9, 31, 64
11, 165504, Note_on_c, 9, 31, 96
11, 165504, Note_on_c, 9, 46, 110
11, 165600, Note_off_c, 9, 31, 64
11, 165792, Note_on_c, 9, 31, 64
11, 165888, Note_off_c, 9, 31, 64
11, 165888, Note_off_c, 9, 46, 64
11, 165888, Control_c, 9, 7, 100
11, 165888, Program_c, 9, 9
11, 165888, Note_on_c, 9, 31, 96
11, 165888, Note_on_c, 9, 36, 110
11, 165888, Note_on_c, 9, 35, 110
11, 165888, Note_on_c, 9, 44, 110
11, 165984, Note_off_c, 9, 44, 64
11, 165984, Note_off_c, 9, 31, 64
11, 166080, Note_off_c, 9, 35, 64
11, 166080, Note_off_c, 9, 36, 64
11, 166176, Note_on_c, 9, 31, 64
11, 166272, Note_off_c, 9, 31, 64
11, 166272, Note_on_c, 9, 31, 96
11, 166272, Note_on_c, 9, 44, 110
11, 166368, Note_off_c, 9, 44, 64
11, 166368, Note_off_c, 9, 31, 64
11, 166560, Note_on_c, 9, 31, 64
11, 166656, Note_off_c, 9, 31, 64
11, 166656, Note_on_c, 9, 31, 96
11, 166656, Note_on_c, 9, 38, 110
11, 166656, Note_on_c, 9, 36, 110
11, 166656, Note_on_c, 9, 35, 110
11, 166656, Note_on_c, 9, 40, 110
11, 166656, Note_on_c, 9, 44, 110
11, 166752, Note_off_c, 9, 44, 64
11, 166752, Note_off_c, 9, 31, 64
11, 166848, Note_off_c, 9, 40, 64
11, 166848, Note_off_c, 9, 35, 64
11, 166848, Note_off_c, 9, 36, 64
11, 166848, Note_off_c, 9, 38, 64
11, 166944, Note_on_c, 9, 31, 64
11, 167040, Note_off_c, 9, 31, 64
11, 167040, Note_on_c, 9, 31, 96
11, 167040, Note_on_c, 9, 44, 110
11, 167136, Note_off_c, 9, 44, 64
11, 167136, Note_off_c, 9, 31, 64
11, 167328, Note_on_c, 9, 31, 64
11, 167424, Note_off_c, 9, 31, 64
11, 167424, Note_on_c, 9, 31, 96
11, 167424, Note_on_c, 9, 36, 110
11, 167424, Note_on_c, 9, 35, 110
11, 167424, Note_on_c, 9, 44, 110
11, 167520, Note_off_c, 9, 44, 64
11, 167520, Note_off_c, 9, 31, 64
11, 167616, Note_off_c, 9, 35, 64
11, 167616, Note_off_c, 9, 36, 64
11, 167712, Note_on_c, 9, 31, 64
11, 167808, Note_off_c, 9, 31, 64
11, 167808, Note_on_c, 9, 31, 96
11, 167808, Note_on_c, 9, 44, 110
11, 167904, Note_off_c, 9, 44, 64
11, 167904, Note_off_c, 9, 31, 64
11, 168096, Note_on_c, 9, 31, 64
11, 168192, Note_off_c, 9, 31, 64
11, 168192, Note_on_c, 9, 31, 96
11, 168192, Note_on_c, 9, 38, 110
11, 168192, Note_on_c, 9, 36, 110
11, 168192, Note_on_c, 9, 35, 110
11, 168192, Note_on_c, 9, 40, 110
11, 168192, Note_on_c, 9, 44, 110
11, 168288, Note_off_c, 9, 44, 64
11, 168288, Note_off_c, 9, 31, 64
11, 168384, Note_off_c, 9, 40, 64
11, 168384, Note_off_c, 9, 35, 64
11, 168384, Note_off_c, 9, 36, 64
11, 168384, Note_off_c, 9, 38, 64
11, 168480, Note_on_c, 9, 31, 64
11, 168576, Note_off_c, 9, 31, 64
11, 168576, Note_on_c, 9, 31, 96
11, 168576, Note_on_c, 9, 46, 110
11, 168672, Note_off_c, 9, 31, 64
11, 168864, Note_on_c, 9, 31, 64
11, 168960, Note_off_c, 9, 31, 64
11, 168960, Note_off_c, 9, 46, 64
11, 168960, Note_on_c, 9, 31, 96
11, 168960, Note_on_c, 9, 36, 110
11, 168960, Note_on_c, 9, 35, 110
11, 168960, Note_on_c, 9, 44, 110
11, 169056, Note_off_c, 9, 44, 64
11, 169056, Note_off_c, 9, 31, 64
11, 169152, Note_off_c, 9, 35, 64
11, 169152, Note_off_c, 9, 36, 64
11, 169248, Note_on_c, 9, 31, 64
11, 169344, Note_off_c, 9, 31, 64
11, 169344, Note_on_c, 9, 31, 96
11, 169344, Note_on_c, 9, 44, 110
11, 169440, Note_off_c, 9, 44, 64
11, 169440, Note_off_c, 9, 31, 64
11, 169632, Note_on_c, 9, 31, 64
11, 169728, Note_off_c, 9, 31, 64
11, 169728, Note_on_c, 9, 31, 96
11, 169728, Note_on_c, 9, 38, 110
11, 169728, Note_on_c, 9, 36, 110
11, 169728, Note_on_c, 9, 35, 110
11, 169728, Note_on_c, 9, 40, 110
11, 169728, Note_on_c, 9, 44, 110
11, 169824, Note_off_c, 9, 44, 64
11, 169824, Note_off_c, 9, 31, 64
11, 169920, Note_off_c, 9, 40, 64
11, 169920, Note_off_c, 9, 35, 64
11, 169920, Note_off_c, 9, 36, 64
11, 169920, Note_off_c, 9, 38, 64
11, 170016, Note_on_c, 9, 31, 64
11, 170112, Note_off_c, 9, 31, 64
11, 170112, Note_on_c, 9, 31, 96
11, 170112, Note_on_c, 9, 44, 110
11, 170208, Note_off_c, 9, 44, 64
11, 170208, Note_off_c, 9, 31, 64
11, 170400, Note_on_c, 9, 31, 64
11, 170496, Note_off_c, 9, 31, 64
11, 170496, Note_on_c, 9, 31, 96
11, 170496, Note_on_c, 9, 36, 110
11, 170496, Note_on_c, 9, 35, 110
11, 170496, Note_on_c, 9, 44, 110
11, 170592, Note_off_c, 9, 44, 64
11, 170592, Note_off_c, 9, 31, 64
11, 170688, Note_off_c, 9, 35, 64
11, 170688, Note_off_c, 9, 36, 64
11, 170784, Note_on_c, 9, 31, 64
11, 170880, Note_off_c, 9, 31, 64
11, 170880, Note_on_c, 9, 31, 96
11, 170880, Note_on_c, 9, 44, 110
11, 170976, Note_off_c, 9, 44, 64
11, 170976, Note_off_c, 9, 31, 64
11, 171168, Note_on_c, 9, 31, 64
11, 171264, Note_off_c, 9, 31, 64
11, 171264, Note_on_c, 9, 31, 96
11, 171264, Note_on_c, 9, 38, 110
11, 171264, Note_on_c, 9, 36, 110
11, 171264, Note_on_c, 9, 35, 110
11, 171264, Note_on_c, 9, 40, 110
11, 171264, Note_on_c, 9, 44, 110
11, 171360, Note_off_c, 9, 44, 64
11, 171360, Note_off_c, 9, 31, 64
11, 171456, Note_off_c, 9, 40, 64
11, 171456, Note_off_c, 9, 35, 64
11, 171456, Note_off_c, 9, 36, 64
11, 171456, Note_off_c, 9, 38, 64
11, 171552, Note_on_c, 9, 31, 64
11, 171648, Note_off_c, 9, 31, 64
11, 171648, Note_on_c, 9, 31, 96
11, 171648, Note_on_c, 9, 46, 110
11, 171744, Note_off_c, 9, 31, 64
11, 171936, Note_on_c, 9, 31, 64
11, 172032, Note_off_c, 9, 31, 64
11, 172032, Note_off_c, 9, 46, 64
11, 172032, Control_c, 9, 7, 100
11, 172032, Program_c, 9, 9
11, 172032, Note_on_c, 9, 31, 96
11, 172032, Note_on_c, 9, 36, 110
11, 172032, Note_on_c, 9, 35, 110
11, 172032, Note_on_c, 9, 44, 110
11, 172128, Note_off_c, 9, 44, 64
11, 172128, Note_off_c, 9, 31, 64
11, 172224, Note_off_c, 9, 35, 64
11, 172224, Note_off_c, 9, 36, 64
11, 172320, Note_on_c, 9, 31, 64
11, 172416, Note_off_c, 9, 31, 64
11, 172416, Note_on_c, 9, 31, 96
11, 172416, Note_on_c, 9, 44, 110
11, 172512, Note_off_c, 9, 44, 64
11, 172512, Note_off_c, 9, 31, 64
11, 172704, Note_on_c, 9, 31, 64
11, 172800, Note_off_c, 9, 31, 64
11, 172800, Note_on_c, 9, 31, 96
11, 172800, Note_on_c, 9, 38, 110
11, 172800, Note_on_c, 9, 36, 110
11, 172800, Note_on_c, 9, 35, 110
11, 172800, Note_on_c, 9, 40, 110
11, 172800, Note_on_c, 9, 44, 110
11, 172896, Note_off_c, 9, 44, 64
11, 172896, Note_off_c, 9, 31, 64
11, 172992, Note_off_c, 9, 40, 64
11, 172992, Note_off_c, 9, 35, 64
11, 172992, Note_off_c, 9, 36, 64
11, 172992, Note_off_c, 9, 38, 64
11, 173088, Note_on_c, 9, 31, 64
11, 173184, Note_off_c, 9, 31, 64
11, 173184, Note_on_c, 9, 31, 96
11, 173184, Note_on_c, 9, 44, 110
11, 173280, Note_off_c, 9, 44, 64
11, 173280, Note_off_c, 9, 31, 64
11, 173472, Note_on_c, 9, 31, 64
11, 173568, Note_off_c, 9, 31, 64
11, 173568, Note_on_c, 9, 31, 96
11, 173568, Note_on_c, 9, 36, 110
11, 173568, Note_on_c, 9, 35, 110
11, 173568, Note_on_c, 9, 44, 110
11, 173664, Note_off_c, 9, 44, 64
11, 173664, Note_off_c, 9, 31, 64
11, 173760, Note_off_c, 9, 35, 64
11, 173760, Note_off_c, 9, 36, 64
11, 173856, Note_on_c, 9, 31, 64
11, 173952, Note_off_c, 9, 31, 64
11, 173952, Note_on_c, 9, 31, 96
11, 173952, Note_on_c, 9, 44, 110
11, 174048, Note_off_c, 9, 44, 64
11, 174048, Note_off_c, 9, 31, 64
11, 174240, Note_on_c, 9, 31, 64
11, 174336, Note_off_c, 9, 31, 64
11, 174336, Note_on_c, 9, 31, 96
11, 174336, Note_on_c, 9, 38, 110
11, 174336, Note_on_c, 9, 36, 110
11, 174336, Note_on_c, 9, 35, 110
11, 174336, Note_on_c, 9, 40, 110
11, 174336, Note_on_c, 9, 44, 110
11, 174432, Note_off_c, 9, 44, 64
11, 174432, Note_off_c, 9, 31, 64
11, 174528, Note_off_c, 9, 40, 64
11, 174528, Note_off_c, 9, 35, 64
11, 174528, Note_off_c, 9, 36, 64
11, 174528, Note_off_c, 9, 38, 64
11, 174624, Note_on_c, 9, 31, 64
11, 174720, Note_off_c, 9, 31, 64
11, 174720, Note_on_c, 9, 31, 96
11, 174720, Note_on_c, 9, 46, 110
11, 174816, Note_off_c, 9, 31, 64
11, 175008, Note_on_c, 9, 31, 64
11, 175104, Note_off_c, 9, 31, 64
11, 175104, Note_off_c, 9, 46, 64
11, 175104, Note_on_c, 9, 31, 96
11, 175104, Note_on_c, 9, 36, 110
11, 175104, Note_on_c, 9, 35, 110
11, 175104, Note_on_c, 9, 44, 110
11, 175200, Note_off_c, 9, 44, 64
11, 175200, Note_off_c, 9, 31, 64
11, 175296, Note_off_c, 9, 35, 64
11, 175296, Note_off_c, 9, 36, 64
11, 175392, Note_on_c, 9, 31, 64
11, 175488, Note_off_c, 9, 31, 64
11, 175488, Note_on_c, 9, 31, 96
11, 175488, Note_on_c, 9, 44, 110
11, 175584, Note_off_c, 9, 44, 64
11, 175584, Note_off_c, 9, 31, 64
11, 175776, Note_on_c, 9, 31, 64
11, 175872, Note_off_c, 9, 31, 64
11, 175872, Note_on_c, 9, 31, 96
11, 175872, Note_on_c, 9, 38, 110
11, 175872, Note_on_c, 9, 36, 110
11, 175872, Note_on_c, 9, 35, 110
11, 175872, Note_on_c, 9, 40, 110
11, 175872, Note_on_c, 9, 44, 110
11, 175968, Note_off_c, 9, 44, 64
11, 175968, Note_off_c, 9, 31, 64
11, 176064, Note_off_c, 9, 40, 64
11, 176064, Note_off_c, 9, 35, 64
11, 176064, Note_off_c, 9, 36, 64
11, 176064, Note_off_c, 9, 38, 64
11, 176160, Note_on_c, 9, 31, 64
11, 176256, Note_off_c, 9, 31, 64
11, 176256, Note_on_c, 9, 31, 96
11, 176256, Note_on_c, 9, 44, 110
11, 176352, Note_off_c, 9, 44, 64
11, 176352, Note_off_c, 9, 31, 64
11, 176544, Note_on_c, 9, 31, 64
11, 176640, Note_off_c, 9, 31, 64
11, 176640, Note_on_c, 9, 31, 96
11, 176640, Note_on_c, 9, 36, 110
11, 176640, Note_on_c, 9, 35, 110
11, 176640, Note_on_c, 9, 44, 110
11, 176736, Note_off_c, 9, 44, 64
11, 176736, Note_off_c, 9, 31, 64
11, 176832, Note_off_c, 9, 35, 64
11, 176832, Note_off_c, 9, 36, 64
11, 176928, Note_on_c, 9, 31, 64
11, 177024, Note_off_c, 9, 31, 64
11, 177024, Note_on_c, 9, 31, 96
11, 177024, Note_on_c, 9, 44, 110
11, 177120, Note_off_c, 9, 44, 64
11, 177120, Note_off_c, 9, 31, 64
11, 177312, Note_on_c, 9, 31, 64
11, 177408, Note_off_c, 9, 31, 64
11, 177408, Note_on_c, 9, 31, 96
11, 177408, Note_on_c, 9, 38, 110
11, 177408, Note_on_c, 9, 36, 110
11, 177408, Note_on_c, 9, 35, 110
11, 177408, Note_on_c, 9, 40, 110
11, 177408, Note_on_c, 9, 44, 110
11, 177504, Note_off_c, 9, 44, 64
11, 177504, Note_off_c, 9, 31, 64
11, 177600, Note_off_c, 9, 40, 64
11, 177600, Note_off_c, 9, 35, 64
11, 177600, Note_off_c, 9, 36, 64
11, 177600, Note_off_c, 9, 38, 64
11, 177696, Note_on_c, 9, 31, 64
11, 177792, Note_off_c, 9, 31, 64
11, 177792, Note_on_c, 9, 31, 96
11, 177792, Note_on_c, 9, 46, 110
11, 177888, Note_off_c, 9, 31, 64
11, 178080, Note_on_c, 9, 31, 64
11, 178176, Note_off_c, 9, 31, 64
11, 178176, Note_off_c, 9, 46, 64
11, 178176, Control_c, 9, 7, 100
11, 178176, Program_c, 9, 9
11, 178176, Note_on_c, 9, 31, 96
11, 178176, Note_on_c, 9, 36, 110
11, 178176, Note_on_c, 9, 35, 110
11, 178176, Note_on_c, 9, 44, 110
11, 178272, Note_off_c, 9, 44, 64
11, 178272, Note_off_c, 9, 31, 64
11, 178368, Note_off_c, 9, 35, 64
11, 178368, Note_off_c, 9, 36, 64
11, 178464, Note_on_c, 9, 31, 64
11, 178560, Note_off_c, 9, 31, 64
11, 178560, Note_on_c, 9, 31, 96
11, 178560, Note_on_c, 9, 44, 110
11, 178656, Note_off_c, 9, 44, 64
11, 178656, Note_off_c, 9, 31, 64
11, 178848, Note_on_c, 9, 31, 64
11, 178944, Note_off_c, 9, 31, 64
11, 178944, Note_on_c, 9, 31, 96
11, 178944, Note_on_c, 9, 38, 110
11, 178944, Note_on_c, 9, 36, 110
11, 178944, Note_on_c, 9, 35, 110
11, 178944, Note_on_c, 9, 40, 110
11, 178944, Note_on_c, 9, 44, 110
11, 179040, Note_off_c, 9, 44, 64
11, 179040, Note_off_c, 9, 31, 64
11, 179136, Note_off_c, 9, 40, 64
11, 179136, Note_off_c, 9, 35, 64
11, 179136, Note_off_c, 9, 36, 64
11, 179136, Note_off_c, 9, 38, 64
11, 179232, Note_on_c, 9, 31, 64
11, 179328, Note_off_c, 9, 31, 64
11, 179328, Note_on_c, 9, 31, 96
11, 179328, Note_on_c, 9, 44, 110
11, 179424, Note_off_c, 9, 44, 64
11, 179424, Note_off_c, 9, 31, 64
11, 179616, Note_on_c, 9, 31, 64
11, 179712, Note_off_c, 9, 31, 64
11, 179712, Note_on_c, 9, 31, 96
11, 179712, Note_on_c, 9, 36, 110
11, 179712, Note_on_c, 9, 35, 110
11, 179712, Note_on_c, 9, 44, 110
11, 179808, Note_off_c, 9, 44, 64
11, 179808, Note_off_c, 9, 31, 64
11, 179904, Note_off_c, 9, 35, 64
11, 179904, Note_off_c, 9, 36, 64
11, 180000, Note_on_c, 9, 31, 64
11, 180096, Note_off_c, 9, 31, 64
11, 180096, Note_on_c, 9, 31, 96
11, 180096, Note_on_c, 9, 44, 110
11, 180192, Note_off_c, 9, 44, 64
11, 180192, Note_off_c, 9, 31, 64
11, 180384, Note_on_c, 9, 31, 64
11, 180480, Note_off_c, 9, 31, 64
11, 180480, Note_on_c, 9, 31, 96
11, 180480, Note_on_c, 9, 38, 110
11, 180480, Note_on_c, 9, 36, 110
11, 180480, Note_on_c, 9, 35, 110
11, 180480, Note_on_c, 9, 40, 110
11, 180480, Note_on_c, 9, 44, 110
11, 180576, Note_off_c, 9, 44, 64
11, 180576, Note_off_c, 9, 31, 64
11, 180672, Note_off_c, 9, 40, 64
11, 180672, Note_off_c, 9, 35, 64
11, 180672, Note_off_c, 9, 36, 64
11, 180672, Note_off_c, 9, 38, 64
11, 180768, Note_on_c, 9, 31, 64
11, 180864, Note_off_c, 9, 31, 64
11, 180864, Note_on_c, 9, 31, 96
11, 180864, Note_on_c, 9, 46, 110
11, 180960, Note_off_c, 9, 31, 64
11, 181152, Note_on_c, 9, 31, 64
11, 181248, Note_off_c, 9, 31, 64
11, 181248, Note_off_c, 9, 46, 64
11, 181248, Note_on_c, 9, 31, 96
11, 181248, Note_on_c, 9, 36, 110
11, 181248, Note_on_c, 9, 35, 110
11, 181248, Note_on_c, 9, 44, 110
11, 181344, Note_off_c, 9, 44, 64
11, 181344, Note_off_c, 9, 31, 64
11, 181440, Note_off_c, 9, 35, 64
11, 181440, Note_off_c, 9, 36, 64
11, 181536, Note_on_c, 9, 31, 64
11, 181632, Note_off_c, 9, 31, 64
11, 181632, Note_on_c, 9, 31, 96
11, 181632, Note_on_c, 9, 44, 110
11, 181728, Note_off_c, 9, 44, 64
11, 181728, Note_off_c, 9, 31, 64
11, 181920, Note_on_c, 9, 31, 64
11, 182016, Note_off_c, 9, 31, 64
11, 182016, Note_on_c, 9, 31, 96
11, 182016, Note_on_c, 9, 38, 110
11, 182016, Note_on_c, 9, 36, 110
11, 182016, Note_on_c, 9, 35, 110
11, 182016, Note_on_c, 9, 40, 110
11, 182016, Note_on_c, 9, 44, 110
11, 182112, Note_off_c, 9, 44, 64
11, 182112, Note_off_c, 9, 31, 64
11, 182208, Note_off_c, 9, 40, 64
11, 182208, Note_off_c, 9, 35, 64
11, 182208, Note_off_c, 9, 36, 64
11, 182208, Note_off_c, 9, 38, 64
11, 182304, Note_on_c, 9, 31, 64
11, 182400, Note_off_c, 9, 31, 64
11, 182400, Note_on_c, 9, 31, 96
11, 182400, Note_on_c, 9, 44, 110
11, 182496, Note_off_c, 9, 44, 64
11, 182496, Note_off_c, 9, 31, 64
11, 182688, Note_on_c, 9, 31, 64
11, 182784, Note_off_c, 9, 31, 64
11, 182784, Note_on_c, 9, 38, 64
11, 182784, Note_on_c, 9, 40, 64
11, 182784, Note_on_c, 9, 31, 96
11, 182784, Note_on_c, 9, 36, 110
11, 182784, Note_on_c, 9, 35, 110
11, 182784, Note_on_c, 9, 44, 110
11, 182880, Note_off_c, 9, 44, 64
11, 182880, Note_off_c, 9, 31, 64
11, 182976, Note_off_c, 9, 35, 64
11, 182976, Note_off_c, 9, 36, 64
11, 182976, Note_off_c, 9, 40, 64
11, 182976, Note_off_c, 9, 38, 64
11, 183072, Note_on_c, 9, 38, 64
11, 183072, Note_on_c, 9, 40, 64
11, 183072, Note_on_c, 9, 31, 64
11, 183168, Note_off_c, 9, 31, 64
11, 183168, Note_on_c, 9, 31, 96
11, 183168, Note_on_c, 9, 44, 110
11, 183264, Note_off_c, 9, 44, 64
11, 183264, Note_off_c, 9, 31, 64
11, 183264, Note_off_c, 9, 40, 64
11, 183264, Note_off_c, 9, 38, 64
11, 183456, Note_on_c, 9, 38, 64
11, 183456, Note_on_c, 9, 40, 64
11, 183456, Note_on_c, 9, 31, 64
11, 183552, Note_off_c, 9, 31, 64
11, 183552, Note_off_c, 9, 40, 64
11, 183552, Note_off_c, 9, 38, 64
11, 183552, Note_on_c, 9, 38, 110
11, 183552, Note_on_c, 9, 40, 110
11, 183552, Note_on_c, 9, 31, 96
11, 183552, Note_on_c, 9, 36, 110
11, 183552, Note_on_c, 9, 35, 110
11, 183552, Note_on_c, 9, 44, 110
11, 183648, Note_off_c, 9, 44, 64
11, 183648, Note_off_c, 9, 31, 64
11, 183744, Note_off_c, 9, 35, 64
11, 183744, Note_off_c, 9, 36, 64
11, 183744, Note_off_c, 9, 40, 64
11, 183744, Note_off_c, 9, 38, 64
11, 183840, Note_on_c, 9, 38, 64
11, 183840, Note_on_c, 9, 40, 64
11, 183840, Note_on_c, 9, 31, 64
11, 183936, Note_off_c, 9, 31, 64
11, 183936, Note_off_c, 9, 40, 64
11, 183936, Note_off_c, 9, 38, 64
11, 183936, Note_on_c, 9, 38, 64
11, 183936, Note_on_c, 9, 40, 64
11, 183936, Note_on_c, 9, 31, 96
11, 183936, Note_on_c, 9, 46, 110
11, 184032, Note_off_c, 9, 31, 64
11, 184128, Note_off_c, 9, 40, 64
11, 184128, Note_off_c, 9, 38, 64
11, 184224, Note_on_c, 9, 31, 64
11, 184320, Note_off_c, 9, 31, 64
11, 184320, Note_off_c, 9, 46, 64
11, 184320, Control_c, 9, 7, 100
11, 184320, Program_c, 9, 9
11, 184320, Note_on_c, 9, 31, 96
11, 184320, Note_on_c, 9, 36, 110
11, 184320, Note_on_c, 9, 35, 110
11, 184320, Note_on_c, 9, 44, 110
11, 184416, Note_off_c, 9, 44, 64
11, 184416, Note_off_c, 9, 31, 64
11, 184512, Note_off_c, 9, 35, 64
11, 184512, Note_off_c, 9, 36, 64
11, 184608, Note_on_c, 9, 31, 64
11, 184704, Note_off_c, 9, 31, 64
11, 184704, Note_on_c, 9, 31, 96
11, 184704, Note_on_c, 9, 44, 110
11, 184800, Note_off_c, 9, 44, 64
11, 184800, Note_off_c, 9, 31, 64
11, 184992, Note_on_c, 9, 31, 64
11, 185088, Note_off_c, 9, 31, 64
11, 185088, Note_on_c, 9, 31, 96
11, 185088, Note_on_c, 9, 38, 110
11, 185088, Note_on_c, 9, 36, 110
11, 185088, Note_on_c, 9, 35, 110
11, 185088, Note_on_c, 9, 40, 110
11, 185088, Note_on_c, 9, 44, 110
11, 185184, Note_off_c, 9, 44, 64
11, 185184, Note_off_c, 9, 31, 64
11, 185280, Note_off_c, 9, 40, 64
11, 185280, Note_off_c, 9, 35, 64
11, 185280, Note_off_c, 9, 36, 64
11, 185280, Note_off_c, 9, 38, 64
11, 185376, Note_on_c, 9, 31, 64
11, 185472, Note_off_c, 9, 31, 64
11, 185472, Note_on_c, 9, 31, 96
11, 185472, Note_on_c, 9, 44, 110
11, 185568, Note_off_c, 9, 44, 64
11, 185568, Note_off_c, 9, 31, 64
11, 185760, Note_on_c, 9, 31, 64
11, 185856, Note_off_c, 9, 31, 64
11, 185856, Note_on_c, 9, 31, 96
11, 185856, Note_on_c, 9, 36, 110
11, 185856, Note_on_c, 9, 35, 110
11, 185856, Note_on_c, 9, 44, 110
11, 185952, Note_off_c, 9, 44, 64
11, 185952, Note_off_c, 9, 31, 64
11, 186048, Note_off_c, 9, 35, 64
11, 186048, Note_off_c, 9, 36, 64
11, 186144, Note_on_c, 9, 31, 64
11, 186240, Note_off_c, 9, 31, 64
11, 186240, Note_on_c, 9, 31, 96
11, 186240, Note_on_c, 9, 44, 110
11, 186336, Note_off_c, 9, 44, 64
11, 186336, Note_off_c, 9, 31, 64
11, 186528, Note_on_c, 9, 31, 64
11, 186624, Note_off_c, 9, 31, 64
11, 186624, Note_on_c, 9, 31, 96
11, 186624, Note_on_c, 9, 38, 110
11, 186624, Note_on_c, 9, 36, 110
11, 186624, Note_on_c, 9, 35, 110
11, 186624, Note_on_c, 9, 40, 110
11, 186624, Note_on_c, 9, 44, 110
11, 186720, Note_off_c, 9, 44, 64
11, 186720, Note_off_c, 9, 31, 64
11, 186816, Note_off_c, 9, 40, 64
11, 186816, Note_off_c, 9, 35, 64
11, 186816, Note_off_c, 9, 36, 64
11, 186816, Note_off_c, 9, 38, 64
11, 186912, Note_on_c, 9, 31, 64
11, 187008, Note_off_c, 9, 31, 64
11, 187008, Note_on_c, 9, 31, 96
11, 187008, Note_on_c, 9, 46, 110
11, 187104, Note_off_c, 9, 31, 64
11, 187296, Note_on_c, 9, 31, 64
11, 187392, Note_off_c, 9, 31, 64
11, 187392, Note_off_c, 9, 46, 64
11, 187392, Note_on_c, 9, 31, 96
11, 187392, Note_on_c, 9, 36, 110
11, 187392, Note_on_c, 9, 35, 110
11, 187392, Note_on_c, 9, 44, 110
11, 187488, Note_off_c, 9, 44, 64
11, 187488, Note_off_c, 9, 31, 64
11, 187584, Note_off_c, 9, 35, 64
11, 187584, Note_off_c, 9, 36, 64
11, 187680, Note_on_c, 9, 31, 64
11, 187776, Note_off_c, 9, 31, 64
11, 187776, Note_on_c, 9, 31, 96
11, 187776, Note_on_c, 9, 44, 110
11, 187872, Note_off_c, 9, 44, 64
11, 187872, Note_off_c, 9, 31, 64
11, 188064, Note_on_c, 9, 31, 64
11, 188160, Note_off_c, 9, 31, 64
11, 188160, Note_on_c, 9, 31, 96
11, 188160, Note_on_c, 9, 38, 110
11, 188160, Note_on_c, 9, 36, 110
11, 188160, Note_on_c, 9, 35, 110
11, 188160, Note_on_c, 9, 40, 110
11, 188160, Note_on_c, 9, 44, 110
11, 188256, Note_off_c, 9, 44, 64
11, 188256, Note_off_c, 9, 31, 64
11, 188352, Note_off_c, 9, 40, 64
11, 188352, Note_off_c, 9, 35, 64
11, 188352, Note_off_c, 9, 36, 64
11, 188352, Note_off_c, 9, 38, 64
11, 188448, Note_on_c, 9, 31, 64
11, 188544, Note_off_c, 9, 31, 64
11, 188544, Note_on_c, 9, 31, 96
11, 188544, Note_on_c, 9, 44, 110
11, 188640, Note_off_c, 9, 44, 64
11, 188640, Note_off_c, 9, 31, 64
11, 188832, Note_on_c, 9, 31, 64
11, 188928, Note_off_c, 9, 31, 64
11, 188928, Note_on_c, 9, 31, 96
11, 188928, Note_on_c, 9, 36, 110
11, 188928, Note_on_c, 9, 35, 110
11, 188928, Note_on_c, 9, 44, 110
11, 189024, Note_off_c, 9, 44, 64
11, 189024, Note_off_c, 9, 31, 64
11, 189120, Note_off_c, 9, 35, 64
11, 189120, Note_off_c, 9, 36, 64
11, 189216, Note_on_c, 9, 31, 64
11, 189312, Note_off_c, 9, 31, 64
11, 189312, Note_on_c, 9, 31, 96
11, 189312, Note_on_c, 9, 44, 110
11, 189408, Note_off_c, 9, 44, 64
11, 189408, Note_off_c, 9, 31, 64
11, 189600, Note_on_c, 9, 31, 64
11, 189696, Note_off_c, 9, 31, 64
11, 189696, Note_on_c, 9, 31, 96
11, 189696, Note_on_c, 9, 38, 110
11, 189696, Note_on_c, 9, 36, 110
11, 189696, Note_on_c, 9, 35, 110
11, 189696, Note_on_c, 9, 40, 110
11, 189696, Note_on_c, 9, 44, 110
11, 189792, Note_off_c, 9, 44, 64
11, 189792, Note_off_c, 9, 31, 64
11, 189888, Note_off_c, 9, 40, 64
11, 189888, Note_off_c, 9, 35, 64
11, 189888, Note_off_c, 9, 36, 64
11, 189888, Note_off_c, 9, 38, 64
11, 189984, Note_on_c, 9, 31, 64
11, 190080, Note_off_c, 9, 31, 64
11, 190080, Note_on_c, 9, 31, 96
11, 190080, Note_on_c, 9, 46, 110
11, 190176, Note_off_c, 9, 31, 64
11, 190368, Note_on_c, 9, 31, 64
11, 190464, Note_off_c, 9, 31, 64
11, 190464, Note_off_c, 9, 46, 64
11, 190464, Control_c, 9, 7, 100
11, 190464, Program_c, 9, 9
11, 190464, Note_on_c, 9, 31, 96
11, 190464, Note_on_c, 9, 36, 110
11, 190464, Note_on_c, 9, 35, 110
11, 190464, Note_on_c, 9, 44, 110
11, 190560, Note_off_c, 9, 44, 64
11, 190560, Note_off_c, 9, 31, 64
11, 190656, Note_off_c, 9, 35, 64
11, 190656, Note_off_c, 9, 36, 64
11, 190752, Note_on_c, 9, 31, 64
11, 190848, Note_off_c, 9, 31, 64
11, 190848, Note_on_c, 9, 31, 96
11, 190848, Note_on_c, 9, 44, 110
11, 190944, Note_off_c, 9, 44, 64
11, 190944, Note_off_c, 9, 31, 64
11, 191136, Note_on_c, 9, 31, 64
11, 191232, Note_off_c, 9, 31, 64
11, 191232, Note_on_c, 9, 31, 96
11, 191232, Note_on_c, 9, 38, 110
11, 191232, Note_on_c, 9, 36, 110
11, 191232, Note_on_c, 9, 35, 110
11, 191232, Note_on_c, 9, 40, 110
11, 191232, Note_on_c, 9, 44, 110
11, 191328, Note_off_c, 9, 44, 64
11, 191328, Note_off_c, 9, 31, 64
11, 191424, Note_off_c, 9, 40, 64
11, 191424, Note_off_c, 9, 35, 64
11, 191424, Note_off_c, 9, 36, 64
11, 191424, Note_off_c, 9, 38, 64
11, 191520, Note_on_c, 9, 31, 64
11, 191616, Note_off_c, 9, 31, 64
11, 191616, Note_on_c, 9, 31, 96
11, 191616, Note_on_c, 9, 44, 110
11, 191712, Note_off_c, 9, 44, 64
11, 191712, Note_off_c, 9, 31, 64
11, 191904, Note_on_c, 9, 31, 64
11, 192000, Note_off_c, 9, 31, 64
11, 192000, Note_on_c, 9, 31, 96
11, 192000, Note_on_c, 9, 36, 110
11, 192000, Note_on_c, 9, 35, 110
11, 192000, Note_on_c, 9, 44, 110
11, 192096, Note_off_c, 9, 44, 64
11, 192096, Note_off_c, 9, 31, 64
11, 192192, Note_off_c, 9, 35, 64
11, 192192, Note_off_c, 9, 36, 64
11, 192288, Note_on_c, 9, 31, 64
11, 192384, Note_off_c, 9, 31, 64
11, 192384, Note_on_c, 9, 31, 96
11, 192384, Note_on_c, 9, 44, 110
11, 192480, Note_off_c, 9, 44, 64
11, 192480, Note_off_c, 9, 31, 64
11, 192672, Note_on_c, 9, 31, 64
11, 192768, Note_off_c, 9, 31, 64
11, 192768, Note_on_c, 9, 31, 96
11, 192768, Note_on_c, 9, 38, 110
11, 192768, Note_on_c, 9, 36, 110
11, 192768, Note_on_c, 9, 35, 110
11, 192768, Note_on_c, 9, 40, 110
11, 192768, Note_on_c, 9, 44, 110
11, 192864, Note_off_c, 9, 44, 64
11, 192864, Note_off_c, 9, 31, 64
11, 192960, Note_off_c, 9, 40, 64
11, 192960, Note_off_c, 9, 35, 64
11, 192960, Note_off_c, 9, 36, 64
11, 192960, Note_off_c, 9, 38, 64
11, 193056, Note_on_c, 9, 31, 64
11, 193152, Note_off_c, 9, 31, 64
11, 193152, Note_on_c, 9, 31, 96
11, 193152, Note_on_c, 9, 46, 110
11, 193248, Note_off_c, 9, 31, 64
11, 193440, Note_on_c, 9, 31, 64
11, 193536, Note_off_c, 9, 31, 64
11, 193536, Note_off_c, 9, 46, 64
11, 193536, Note_on_c, 9, 31, 96
11, 193536, Note_on_c, 9, 36, 110
11, 193536, Note_on_c, 9, 35, 110
11, 193536, Note_on_c, 9, 44, 110
11, 193632, Note_off_c, 9, 44, 64
11, 193632, Note_off_c, 9, 31, 64
11, 193728, Note_off_c, 9, 35, 64
11, 193728, Note_off_c, 9, 36, 64
11, 193824, Note_on_c, 9, 31, 64
11, 193920, Note_off_c, 9, 31, 64
11, 193920, Note_on_c, 9, 31, 96
11, 193920, Note_on_c, 9, 44, 110
11, 194016, Note_off_c, 9, 44, 64
11, 194016, Note_off_c, 9, 31, 64
11, 194208, Note_on_c, 9, 31, 64
11, 194304, Note_off_c, 9, 31, 64
11, 194304, Note_on_c, 9, 31, 96
11, 194304, Note_on_c, 9, 38, 110
11, 194304, Note_on_c, 9, 36, 110
11, 194304, Note_on_c, 9, 35, 110
11, 194304, Note_on_c, 9, 40, 110
11, 194304, Note_on_c, 9, 44, 110
11, 194400, Note_off_c, 9, 44, 64
11, 194400, Note_off_c, 9, 31, 64
11, 194496, Note_off_c, 9, 40, 64
11, 194496, Note_off_c, 9, 35, 64
11, 194496, Note_off_c, 9, 36, 64
11, 194496, Note_off_c, 9, 38, 64
11, 194592, Note_on_c, 9, 31, 64
11, 194688, Note_off_c, 9, 31, 64
11, 194688, Note_on_c, 9, 31, 96
11, 194688, Note_on_c, 9, 44, 110
11, 194784, Note_off_c, 9, 44, 64
11, 194784, Note_off_c, 9, 31, 64
11, 194976, Note_on_c, 9, 31, 64
11, 195072, Note_off_c, 9, 31, 64
11, 195072, Note_on_c, 9, 31, 96
11, 195072, Note_on_c, 9, 36, 110
11, 195072, Note_on_c, 9, 35, 110
11, 195072, Note_on_c, 9, 44, 110
11, 195168, Note_off_c, 9, 44, 64
11, 195168, Note_off_c, 9, 31, 64
11, 195264, Note_off_c, 9, 35, 64
11, 195264, Note_off_c, 9, 36, 64
11, 195360, Note_on_c, 9, 31, 64
11, 195456, Note_off_c, 9, 31, 64
11, 195456, Note_on_c, 9, 31, 96
11, 195456, Note_on_c, 9, 44, 110
11, 195552, Note_off_c, 9, 44, 64
11, 195552, Note_off_c, 9, 31, 64
11, 195744, Note_on_c, 9, 31, 64
11, 195840, Note_off_c, 9, 31, 64
11, 195840, Note_on_c, 9, 31, 96
11, 195840, Note_on_c, 9, 38, 110
11, 195840, Note_on_c, 9, 36, 110
11, 195840, Note_on_c, 9, 35, 110
11, 195840, Note_on_c, 9, 40, 110
11, 195840, Note_on_c, 9, 44, 110
11, 195936, Note_off_c, 9, 44, 64
11, 195936, Note_off_c, 9, 31, 64
11, 196032, Note_off_c, 9, 40, 64
11, 196032, Note_off_c, 9, 35, 64
11, 196032, Note_off_c, 9, 36, 64
11, 196032, Note_off_c, 9, 38, 64
11, 196128, Note_on_c, 9, 31, 64
11, 196224, Note_off_c, 9, 31, 64
11, 196224, Note_on_c, 9, 31, 96
11, 196224, Note_on_c, 9, 46, 110
11, 196320, Note_off_c, 9, 31, 64
11, 196512, Note_on_c, 9, 31, 64
11, 196608, Note_off_c, 9, 31, 64
11, 196608, Note_off_c, 9, 46, 64
11, 196608, Control_c, 9, 7, 100
11, 196608, Program_c, 9, 9
11, 196608, Note_on_c, 9, 31, 96
11, 196608, Note_on_c, 9, 36, 110
11, 196608, Note_on_c, 9, 35, 110
11, 196608, Note_on_c, 9, 44, 110
11, 196704, Note_off_c, 9, 44, 64
11, 196704, Note_off_c, 9, 31, 64
11, 196800, Note_off_c, 9, 35, 64
11, 196800, Note_off_c, 9, 36, 64
11, 196896, Note_on_c, 9, 31, 64
11, 196992, Note_off_c, 9, 31, 64
11, 196992, Note_on_c, 9, 31, 96
11, 196992, Note_on_c, 9, 44, 110
11, 197088, Note_off_c, 9, 44, 64
11, 197088, Note_off_c, 9, 31, 64
11, 197280, Note_on_c, 9, 31, 64
11, 197376, Note_off_c, 9, 31, 64
11, 197376, Note_on_c, 9, 31, 96
11, 197376, Note_on_c, 9, 38, 110
11, 197376, Note_on_c, 9, 36, 110
11, 197376, Note_on_c, 9, 35, 110
11, 197376, Note_on_c, 9, 40, 110
11, 197376, Note_on_c, 9, 44, 110
11, 197472, Note_off_c, 9, 44, 64
11, 197472, Note_off_c, 9, 31, 64
11, 197568, Note_off_c, 9, 40, 64
11, 197568, Note_off_c, 9, 35, 64
11, 197568, Note_off_c, 9, 36, 64
11, 197568, Note_off_c, 9, 38, 64
11, 197664, Note_on_c, 9, 31, 64
11, 197760, Note_off_c, 9, 31, 64
11, 197760, Note_on_c, 9, 31, 96
11, 197760, Note_on_c, 9, 44, 110
11, 197856, Note_off_c, 9, 44, 64
11, 197856, Note_off_c, 9, 31, 64
11, 198048, Note_on_c, 9, 31, 64
11, 198144, Note_off_c, 9, 31, 64
11, 198144, Note_on_c, 9, 31, 96
11, 198144, Note_on_c, 9, 36, 110
11, 198144, Note_on_c, 9, 35, 110
11, 198144, Note_on_c, 9, 44, 110
11, 198240, Note_off_c, 9, 44, 64
11, 198240, Note_off_c, 9, 31, 64
11, 198336, Note_off_c, 9, 35, 64
11, 198336, Note_off_c, 9, 36, 64
11, 198432, Note_on_c, 9, 31, 64
11, 198528, Note_off_c, 9, 31, 64
11, 198528, Note_on_c, 9, 31, 96
11, 198528, Note_on_c, 9, 44, 110
11, 198624, Note_off_c, 9, 44, 64
11, 198624, Note_off_c, 9, 31, 64
11, 198816, Note_on_c, 9, 31, 64
11, 198912, Note_off_c, 9, 31, 64
11, 198912, Note_on_c, 9, 31, 96
11, 198912, Note_on_c, 9, 38, 110
11, 198912, Note_on_c, 9, 36, 110
11, 198912, Note_on_c, 9, 35, 110
11, 198912, Note_on_c, 9, 40, 110
11, 198912, Note_on_c, 9, 44, 110
11, 199008, Note_off_c, 9, 44, 64
11, 199008, Note_off_c, 9, 31, 64
11, 199104, Note_off_c, 9, 40, 64
11, 199104, Note_off_c, 9, 35, 64
11, 199104, Note_off_c, 9, 36, 64
11, 199104, Note_off_c, 9, 38, 64
11, 199200, Note_on_c, 9, 31, 64
11, 199296, Note_off_c, 9, 31, 64
11, 199296, Note_on_c, 9, 31, 96
11, 199296, Note_on_c, 9, 46, 110
11, 199392, Note_off_c, 9, 31, 64
11, 199584, Note_on_c, 9, 31, 64
11, 199680, Note_off_c, 9, 31, 64
11, 199680, Note_off_c, 9, 46, 64
11, 199680, Note_on_c, 9, 31, 96
11, 199680, Note_on_c, 9, 36, 110
11, 199680, Note_on_c, 9, 35, 110
11, 199680, Note_on_c, 9, 44, 110
11, 199776, Note_off_c, 9, 44, 64
11, 199776, Note_off_c, 9, 31, 64
11, 199872, Note_off_c, 9, 35, 64
11, 199872, Note_off_c, 9, 36, 64
11, 199968, Note_on_c, 9, 31, 64
11, 200064, Note_off_c, 9, 31, 64
11, 200064, Note_on_c, 9, 31, 96
11, 200064, Note_on_c, 9, 44, 110
11, 200160, Note_off_c, 9, 44, 64
11, 200160, Note_off_c, 9, 31, 64
11, 200352, Note_on_c, 9, 31, 64
11, 200448, Note_off_c, 9, 31, 64
11, 200448, Note_on_c, 9, 31, 96
11, 200448, Note_on_c, 9, 38, 110
11, 200448, Note_on_c, 9, 36, 110
11, 200448, Note_on_c, 9, 35, 110
11, 200448, Note_on_c, 9, 40, 110
11, 200448, Note_on_c, 9, 44, 110
11, 200544, Note_off_c, 9, 44, 64
11, 200544, Note_off_c, 9, 31, 64
11, 200640, Note_off_c, 9, 40, 64
11, 200640, Note_off_c, 9, 35, 64
11, 200640, Note_off_c, 9, 36, 64
11, 200640, Note_off_c, 9, 38, 64
11, 200736, Note_on_c, 9, 31, 64
11, 200832, Note_off_c, 9, 31, 64
11, 200832, Note_on_c, 9, 31, 96
11, 200832, Note_on_c, 9, 44, 110
11, 200928, Note_off_c, 9, 44, 64
11, 200928, Note_off_c, 9, 31, 64
11, 201120, Note_on_c, 9, 31, 64
11, 201216, Note_off_c, 9, 31, 64
11, 201216, Note_on_c, 9, 31, 96
11, 201216, Note_on_c, 9, 36, 110
11, 201216, Note_on_c, 9, 35, 110
11, 201216, Note_on_c, 9, 44, 110
11, 201312, Note_off_c, 9, 44, 64
11, 201312, Note_off_c, 9, 31, 64
11, 201408, Note_off_c, 9, 35, 64
11, 201408, Note_off_c, 9, 36, 64
11, 201504, Note_on_c, 9, 31, 64
11, 201600, Note_off_c, 9, 31, 64
11, 201600, Note_on_c, 9, 31, 96
11, 201600, Note_on_c, 9, 44, 110
11, 201696, Note_off_c, 9, 44, 64
11, 201696, Note_off_c, 9, 31, 64
11, 201888, Note_on_c, 9, 31, 64
11, 201984, Note_off_c, 9, 31, 64
11, 201984, Note_on_c, 9, 31, 96
11, 201984, Note_on_c, 9, 38, 110
11, 201984, Note_on_c, 9, 36, 110
11, 201984, Note_on_c, 9, 35, 110
11, 201984, Note_on_c, 9, 40, 110
11, 201984, Note_on_c, 9, 44, 110
11, 202080, Note_off_c, 9, 44, 64
11, 202080, Note_off_c, 9, 31, 64
11, 202176, Note_off_c, 9, 40, 64
11, 202176, Note_off_c, 9, 35, 64
11, 202176, Note_off_c, 9, 36, 64
11, 202176, Note_off_c, 9, 38, 64
11, 202272, Note_on_c, 9, 31, 64
11, 202368, Note_off_c, 9, 31, 64
11, 202368, Note_on_c, 9, 31, 96
11, 202368, Note_on_c, 9, 46, 110
11, 202464, Note_off_c, 9, 31, 64
11, 202656, Note_on_c, 9, 31, 64
11, 202752, Note_off_c, 9, 31, 64
11, 202752, Note_off_c, 9, 46, 64
11, 202752, Control_c, 9, 7, 100
11, 202752, Program_c, 9, 9
11, 202752, Note_on_c, 9, 31, 96
11, 202752, Note_on_c, 9, 36, 110
11, 202752, Note_on_c, 9, 35, 110
11, 202752, Note_on_c, 9, 44, 110
11, 202848, Note_off_c, 9, 44, 64
11, 202848, Note_off_c, 9, 31, 64
11, 202944, Note_off_c, 9, 35, 64
11, 202944, Note_off_c, 9, 36, 64
11, 203040, Note_on_c, 9, 31, 64
11, 203136, Note_off_c, 9, 31, 64
11, 203136, Note_on_c, 9, 31, 96
11, 203136, Note_on_c, 9, 44, 110
11, 203232, Note_off_c, 9, 44, 64
11, 203232, Note_off_c, 9, 31, 64
11, 203424, Note_on_c, 9, 31, 64
11, 203520, Note_off_c, 9, 31, 64
11, 203520, Note_on_c, 9, 31, 96
11, 203520, Note_on_c, 9, 38, 110
11, 203520, Note_on_c, 9, 36, 110
11, 203520, Note_on_c, 9, 35, 110
11, 203520, Note_on_c, 9, 40, 110
11, 203520, Note_on_c, 9, 44, 110
11, 203616, Note_off_c, 9, 44, 64
11, 203616, Note_off_c, 9, 31, 64
11, 203712, Note_off_c, 9, 40, 64
11, 203712, Note_off_c, 9, 35, 64
11, 203712, Note_off_c, 9, 36, 64
11, 203712, Note_off_c, 9, 38, 64
11, 203808, Note_on_c, 9, 31, 64
11, 203904, Note_off_c, 9, 31, 64
11, 203904, Note_on_c, 9, 31, 96
11, 203904, Note_on_c, 9, 44, 110
11, 204000, Note_off_c, 9, 44, 64
11, 204000, Note_off_c, 9, 31, 64
11, 204192, Note_on_c, 9, 31, 64
11, 204288, Note_off_c, 9, 31, 64
11, 204288, Note_on_c, 9, 31, 96
11, 204288, Note_on_c, 9, 36, 110
11, 204288, Note_on_c, 9, 35, 110
11, 204288, Note_on_c, 9, 44, 110
11, 204384, Note_off_c, 9, 44, 64
11, 204384, Note_off_c, 9, 31, 64
11, 204480, Note_off_c, 9, 35, 64
11, 204480, Note_off_c, 9, 36, 64
11, 204576, Note_on_c, 9, 31, 64
11, 204672, Note_off_c, 9, 31, 64
11, 204672, Note_on_c, 9, 31, 96
11, 204672, Note_on_c, 9, 44, 110
11, 204768, Note_off_c, 9, 44, 64
11, 204768, Note_off_c, 9, 31, 64
11, 204960, Note_on_c, 9, 31, 64
11, 205056, Note_off_c, 9, 31, 64
11, 205056, Note_on_c, 9, 31, 96
11, 205056, Note_on_c, 9, 38, 110
11, 205056, Note_on_c, 9, 36, 110
11, 205056, Note_on_c, 9, 35, 110
11, 205056, Note_on_c, 9, 40, 110
11, 205056, Note_on_c, 9, 44, 110
11, 205152, Note_off_c, 9, 44, 64
11, 205152, Note_off_c, 9, 31, 64
11, 205248, Note_off_c, 9, 40, 64
11, 205248, Note_off_c, 9, 35, 64
11, 205248, Note_off_c, 9, 36, 64
11, 205248, Note_off_c, 9, 38, 64
11, 205344, Note_on_c, 9, 31, 64
11, 205440, Note_off_c, 9, 31, 64
11, 205440, Note_on_c, 9, 31, 96
11, 205440, Note_on_c, 9, 46, 110
11, 205536, Note_off_c, 9, 31, 64
11, 205728, Note_on_c, 9, 31, 64
11, 205824, Note_off_c, 9, 31, 64
11, 205824, Note_off_c, 9, 46, 64
11, 205824, Note_on_c, 9, 31, 96
11, 205824, Note_on_c, 9, 36, 110
11, 205824, Note_on_c, 9, 35, 110
11, 205824, Note_on_c, 9, 44, 110
11, 205920, Note_off_c, 9, 44, 64
11, 205920, Note_off_c, 9, 31, 64
11, 206016, Note_off_c, 9, 35, 64
11, 206016, Note_off_c, 9, 36, 64
11, 206112, Note_on_c, 9, 31, 64
11, 206208, Note_off_c, 9, 31, 64
11, 206208, Note_on_c, 9, 31, 96
11, 206208, Note_on_c, 9, 44, 110
11, 206304, Note_off_c, 9, 44, 64
11, 206304, Note_off_c, 9, 31, 64
11, 206496, Note_on_c, 9, 31, 64
11, 206592, Note_off_c, 9, 31, 64
11, 206592, Note_on_c, 9, 31, 96
11, 206592, Note_on_c, 9, 38, 110
11, 206592, Note_on_c, 9, 36, 110
11, 206592, Note_on_c, 9, 35, 110
11, 206592, Note_on_c, 9, 40, 110
11, 206592, Note_on_c, 9, 44, 110
11, 206688, Note_off_c, 9, 44, 64
11, 206688, Note_off_c, 9, 31, 64
11, 206784, Note_off_c, 9, 40, 64
11, 206784, Note_off_c, 9, 35, 64
11, 206784, Note_off_c, 9, 36, 64
11, 206784, Note_off_c, 9, 38, 64
11, 206880, Note_on_c, 9, 31, 64
11, 206976, Note_off_c, 9, 31, 64
11, 206976, Note_on_c, 9, 31, 96
11, 206976, Note_on_c, 9, 44, 110
11, 207072, Note_off_c, 9, 44, 64
11, 207072, Note_off_c, 9, 31, 64
11, 207264, Note_on_c, 9, 31, 64
11, 207360, Note_off_c, 9, 31, 64
11, 207360, Note_on_c, 9, 31, 96
11, 207360, Note_on_c, 9, 36, 110
11, 207360, Note_on_c, 9, 35, 110
11, 207360, Note_on_c, 9, 44, 110
11, 207456, Note_off_c, 9, 44, 64
11, 207456, Note_off_c, 9, 31, 64
11, 207552, Note_off_c, 9, 35, 64
11, 207552, Note_off_c, 9, 36, 64
11, 207648, Note_on_c, 9, 31, 64
11, 207744, Note_off_c, 9, 31, 64
11, 207744, Note_on_c, 9, 31, 96
11, 207744, Note_on_c, 9, 44, 110
11, 207840, Note_off_c, 9, 44, 64
11, 207840, Note_off_c, 9, 31, 64
11, 208032, Note_on_c, 9, 31, 64
11, 208128, Note_off_c, 9, 31, 64
11, 208128, Note_on_c, 9, 31, 96
11, 208128, Note_on_c, 9, 38, 110
11, 208128, Note_on_c, 9, 36, 110
11, 208128, Note_on_c, 9, 35, 110
11, 208128, Note_on_c, 9, 40, 110
11, 208128, Note_on_c, 9, 44, 110
11, 208224, Note_off_c, 9, 44, 64
11, 208224, Note_off_c, 9, 31, 64
11, 208320, Note_off_c, 9, 40, 64
11, 208320, Note_off_c, 9, 35, 64
11, 208320, Note_off_c, 9, 36, 64
11, 208320, Note_off_c, 9, 38, 64
11, 208416, Note_on_c, 9, 31, 64
11, 208512, Note_off_c, 9, 31, 64
11, 208512, Note_on_c, 9, 31, 96
11, 208512, Note_on_c, 9, 46, 110
11, 208608, Note_off_c, 9, 31, 64
11, 208800, Note_on_c, 9, 31, 64
11, 208896, Note_off_c, 9, 31, 64
11, 208896, Note_off_c, 9, 46, 64
11, 208896, Control_c, 9, 7, 100
11, 208896, Program_c, 9, 9
11, 208896, Note_on_c, 9, 31, 96
11, 208896, Note_on_c, 9, 36, 110
11, 208896, Note_on_c, 9, 35, 110
11, 208896, Note_on_c, 9, 44, 110
11, 208992, Note_off_c, 9, 44, 64
11, 208992, Note_off_c, 9, 31, 64
11, 209088, Note_off_c, 9, 35, 64
11, 209088, Note_off_c, 9, 36, 64
11, 209184, Note_on_c, 9, 31, 64
11, 209280, Note_off_c, 9, 31, 64
11, 209280, Note_on_c, 9, 31, 96
11, 209280, Note_on_c, 9, 44, 110
11, 209376, Note_off_c, 9, 44, 64
11, 209376, Note_off_c, 9, 31, 64
11, 209568, Note_on_c, 9, 31, 64
11, 209664, Note_off_c, 9, 31, 64
11, 209664, Note_on_c, 9, 31, 96
11, 209664, Note_on_c, 9, 38, 110
11, 209664, Note_on_c, 9, 36, 110
11, 209664, Note_on_c, 9, 35, 110
11, 209664, Note_on_c, 9, 40, 110
11, 209664, Note_on_c, 9, 44, 110
11, 209760, Note_off_c, 9, 44, 64
11, 209760, Note_off_c, 9, 31, 64
11, 209856, Note_off_c, 9, 40, 64
11, 209856, Note_off_c, 9, 35, 64
11, 209856, Note_off_c, 9, 36, 64
11, 209856, Note_off_c, 9, 38, 64
11, 209952, Note_on_c, 9, 31, 64
11, 210048, Note_off_c, 9, 31, 64
11, 210048, Note_on_c, 9, 31, 96
11, 210048, Note_on_c, 9, 44, 110
11, 210144, Note_off_c, 9, 44, 64
11, 210144, Note_off_c, 9, 31, 64
11, 210336, Note_on_c, 9, 31, 64
11, 210432, Note_off_c, 9, 31, 64
11, 210432, Note_on_c, 9, 31, 96
11, 210432, Note_on_c, 9, 36, 110
11, 210432, Note_on_c, 9, 35, 110
11, 210432, Note_on_c, 9, 44, 110
11, 210528, Note_off_c, 9, 44, 64
11, 210528, Note_off_c, 9, 31, 64
11, 210624, Note_off_c, 9, 35, 64
11, 210624, Note_off_c, 9, 36, 64
11, 210720, Note_on_c, 9, 31, 64
11, 210816, Note_off_c, 9, 31, 64
11, 210816, Note_on_c, 9, 31, 96
11, 210816, Note_on_c, 9, 44, 110
11, 210912, Note_off_c, 9, 44, 64
11, 210912, Note_off_c, 9, 31, 64
11, 211104, Note_on_c, 9, 31, 64
11, 211200, Note_off_c, 9, 31, 64
11, 211200, Note_on_c, 9, 31, 96
11, 211200, Note_on_c, 9, 38, 110
11, 211200, Note_on_c, 9, 36, 110
11, 211200, Note_on_c, 9, 35, 110
11, 211200, Note_on_c, 9, 40, 110
11, 211200, Note_on_c, 9, 44, 110
11, 211296, Note_off_c, 9, 44, 64
11, 211296, Note_off_c, 9, 31, 64
11, 211392, Note_off_c, 9, 40, 64
11, 211392, Note_off_c, 9, 35, 64
11, 211392, Note_off_c, 9, 36, 64
11, 211392, Note_off_c, 9, 38, 64
11, 211488, Note_on_c, 9, 31, 64
11, 211584, Note_off_c, 9, 31, 64
11, 211584, Note_on_c, 9, 31, 96
11, 211584, Note_on_c, 9, 46, 110
11, 211680, Note_off_c, 9, 31, 64
11, 211872, Note_on_c, 9, 31, 64
11, 211968, Note_off_c, 9, 31, 64
11, 211968, Note_off_c, 9, 46, 64
11, 211968, Note_on_c, 9, 31, 96
11, 211968, Note_on_c, 9, 36, 110
11, 211968, Note_on_c, 9, 35, 110
11, 211968, Note_on_c, 9, 44, 110
11, 212064, Note_off_c, 9, 44, 64
11, 212064, Note_off_c, 9, 31, 64
11, 212160, Note_off_c, 9, 35, 64
11, 212160, Note_off_c, 9, 36, 64
11, 212256, Note_on_c, 9, 31, 64
11, 212352, Note_off_c, 9, 31, 64
11, 212352, Note_on_c, 9, 31, 96
11, 212352, Note_on_c, 9, 44, 110
11, 212448, Note_off_c, 9, 44, 64
11, 212448, Note_off_c, 9, 31, 64
11, 212640, Note_on_c, 9, 31, 64
11, 212736, Note_off_c, 9, 31, 64
11, 212736, Note_on_c, 9, 31, 96
11, 212736, Note_on_c, 9, 38, 110
11, 212736, Note_on_c, 9, 36, 110
11, 212736, Note_on_c, 9, 35, 110
11, 212736, Note_on_c, 9, 40, 110
11, 212736, Note_on_c, 9, 44, 110
11, 212832, Note_off_c, 9, 44, 64
11, 212832, Note_off_c, 9, 31, 64
11, 212928, Note_off_c, 9, 40, 64
11, 212928, Note_off_c, 9, 35, 64
11, 212928, Note_off_c, 9, 36, 64
11, 212928, Note_off_c, 9, 38, 64
11, 213024, Note_on_c, 9, 31, 64
11, 213120, Note_off_c, 9, 31, 64
11, 213120, Note_on_c, 9, 31, 96
11, 213120, Note_on_c, 9, 44, 110
11, 213216, Note_off_c, 9, 44, 64
11, 213216, Note_off_c, 9, 31, 64
11, 213408, Note_on_c, 9, 31, 64
11, 213504, Note_off_c, 9, 31, 64
11, 213504, Note_on_c, 9, 31, 96
11, 213504, Note_on_c, 9, 36, 110
11, 213504, Note_on_c, 9, 35, 110
11, 213504, Note_on_c, 9, 44, 110
11, 213600, Note_off_c, 9, 44, 64
11, 213600, Note_off_c, 9, 31, 64
11, 213696, Note_off_c, 9, 35, 64
11, 213696, Note_off_c, 9, 36, 64
11, 213792, Note_on_c, 9, 31, 64
11, 213888, Note_off_c, 9, 31, 64
11, 213888, Note_on_c, 9, 31, 96
11, 213888, Note_on_c, 9, 44, 110
11, 213984, Note_off_c, 9, 44, 64
11, 213984, Note_off_c, 9, 31, 64
11, 214176, Note_on_c, 9, 31, 64
11, 214272, Note_off_c, 9, 31, 64
11, 214272, Note_on_c, 9, 31, 96
11, 214272, Note_on_c, 9, 38, 110
11, 214272, Note_on_c, 9, 36, 110
11, 214272, Note_on_c, 9, 35, 110
11, 214272, Note_on_c, 9, 40, 110
11, 214272, Note_on_c, 9, 44, 110
11, 214368, Note_off_c, 9, 44, 64
11, 214368, Note_off_c, 9, 31, 64
11, 214464, Note_off_c, 9, 40, 64
11, 214464, Note_off_c, 9, 35, 64
11, 214464, Note_off_c, 9, 36, 64
11, 214464, Note_off_c, 9, 38, 64
11, 214560, Note_on_c, 9, 31, 64
11, 214656, Note_off_c, 9, 31, 64
11, 214656, Note_on_c, 9, 31, 96
11, 214656, Note_on_c, 9, 46, 110
11, 214752, Note_off_c, 9, 31, 64
11, 214944, Note_on_c, 9, 31, 64
11, 215040, Note_off_c, 9, 31, 64
11, 215040, Note_off_c, 9, 46, 64
11, 215040, Control_c, 9, 7, 100
11, 215040, Program_c, 9, 9
11, 215040, Note_on_c, 9, 31, 96
11, 215040, Note_on_c, 9, 36, 110
11, 215040, Note_on_c, 9, 35, 110
11, 215040, Note_on_c, 9, 44, 110
11, 215136, Note_off_c, 9, 44, 64
11, 215136, Note_off_c, 9, 31, 64
11, 215232, Note_off_c, 9, 35, 64
11, 215232, Note_off_c, 9, 36, 64
11, 215328, Note_on_c, 9, 31, 64
11, 215424, Note_off_c, 9, 31, 64
11, 215424, Note_on_c, 9, 31, 96
11, 215424, Note_on_c, 9, 44, 110
11, 215520, Note_off_c, 9, 44, 64
11, 215520, Note_off_c, 9, 31, 64
11, 215712, Note_on_c, 9, 31, 64
11, 215808, Note_off_c, 9, 31, 64
11, 215808, Note_on_c, 9, 31, 96
11, 215808, Note_on_c, 9, 38, 110
11, 215808, Note_on_c, 9, 36, 110
11, 215808, Note_on_c, 9, 35, 110
11, 215808, Note_on_c, 9, 40, 110
11, 215808, Note_on_c, 9, 44, 110
11, 215904, Note_off_c, 9, 44, 64
11, 215904, Note_off_c, 9, 31, 64
11, 216000, Note_off_c, 9, 40, 64
11, 216000, Note_off_c, 9, 35, 64
11, 216000, Note_off_c, 9, 36, 64
11, 216000, Note_off_c, 9, 38, 64
11, 216096, Note_on_c, 9, 31, 64
11, 216192, Note_off_c, 9, 31, 64
11, 216192, Note_on_c, 9, 31, 96
11, 216192, Note_on_c, 9, 44, 110
11, 216288, Note_off_c, 9, 44, 64
11, 216288, Note_off_c, 9, 31, 64
11, 216480, Note_on_c, 9, 31, 64
11, 216576, Note_off_c, 9, 31, 64
11, 216576, Note_on_c, 9, 31, 96
11, 216576, Note_on_c, 9, 36, 110
11, 216576, Note_on_c, 9, 35, 110
11, 216576, Note_on_c, 9, 44, 110
11, 216672, Note_off_c, 9, 44, 64
11, 216672, Note_off_c, 9, 31, 64
11, 216768, Note_off_c, 9, 35, 64
11, 216768, Note_off_c, 9, 36, 64
11, 216864, Note_on_c, 9, 31, 64
11, 216960, Note_off_c, 9, 31, 64
11, 216960, Note_on_c, 9, 31, 96
11, 216960, Note_on_c, 9, 44, 110
11, 217056, Note_off_c, 9, 44, 64
11, 217056, Note_off_c, 9, 31, 64
11, 217248, Note_on_c, 9, 31, 64
11, 217344, Note_off_c, 9, 31, 64
11, 217344, Note_on_c, 9, 31, 96
11, 217344, Note_on_c, 9, 38, 110
11, 217344, Note_on_c, 9, 36, 110
11, 217344, Note_on_c, 9, 35, 110
11, 217344, Note_on_c, 9, 40, 110
11, 217344, Note_on_c, 9, 44, 110
11, 217440, Note_off_c, 9, 44, 64
11, 217440, Note_off_c, 9, 31, 64
11, 217536, Note_off_c, 9, 40, 64
11, 217536, Note_off_c, 9, 35, 64
11, 217536, Note_off_c, 9, 36, 64
11, 217536, Note_off_c, 9, 38, 64
11, 217632, Note_on_c, 9, 31, 64
11, 217728, Note_off_c, 9, 31, 64
11, 217728, Note_on_c, 9, 31, 96
11, 217728, Note_on_c, 9, 46, 110
11, 217824, Note_off_c, 9, 31, 64
11, 218016, Note_on_c, 9, 31, 64
11, 218112, Note_off_c, 9, 31, 64
11, 218112, Note_off_c, 9, 46, 64
11, 218112, Note_on_c, 9, 31, 96
11, 218112, Note_on_c, 9, 36, 110
11, 218112, Note_on_c, 9, 35, 110
11, 218112, Note_on_c, 9, 44, 110
11, 218208, Note_off_c, 9, 44, 64
11, 218208, Note_off_c, 9, 31, 64
11, 218304, Note_off_c, 9, 35, 64
11, 218304, Note_off_c, 9, 36, 64
11, 218400, Note_on_c, 9, 31, 64
11, 218496, Note_off_c, 9, 31, 64
11, 218496, Note_on_c, 9, 31, 96
11, 218496, Note_on_c, 9, 44, 110
11, 218592, Note_off_c, 9, 44, 64
11, 218592, Note_off_c, 9, 31, 64
11, 218784, Note_on_c, 9, 31, 64
11, 218880, Note_off_c, 9, 31, 64
11, 218880, Note_on_c, 9, 31, 96
11, 218880, Note_on_c, 9, 38, 110
11, 218880, Note_on_c, 9, 36, 110
11, 218880, Note_on_c, 9, 35, 110
11, 218880, Note_on_c, 9, 40, 110
11, 218880, Note_on_c, 9, 44, 110
11, 218976, Note_off_c, 9, 44, 64
11, 218976, Note_off_c, 9, 31, 64
11, 219072, Note_off_c, 9, 40, 64
11, 219072, Note_off_c, 9, 35, 64
11, 219072, Note_off_c, 9, 36, 64
11, 219072, Note_off_c, 9, 38, 64
11, 219168, Note_on_c, 9, 31, 64
11, 219264, Note_off_c, 9, 31, 64
11, 219264, Note_on_c, 9, 31, 96
11, 219264, Note_on_c, 9, 44, 110
11, 219360, Note_off_c, 9, 44, 64
11, 219360, Note_off_c, 9, 31, 64
11, 219552, Note_on_c, 9, 31, 64
11, 219648, Note_off_c, 9, 31, 64
11, 219648, Note_on_c, 9, 31, 96
11, 219648, Note_on_c, 9, 36, 110
11, 219648, Note_on_c, 9, 35, 110
11, 219648, Note_on_c, 9, 44, 110
11, 219744, Note_off_c, 9, 44, 64
11, 219744, Note_off_c, 9, 31, 64
11, 219840, Note_off_c, 9, 35, 64
11, 219840, Note_off_c, 9, 36, 64
11, 219936, Note_on_c, 9, 31, 64
11, 220032, Note_off_c, 9, 31, 64
11, 220032, Note_on_c, 9, 31, 96
11, 220032, Note_on_c, 9, 44, 110
11, 220128, Note_off_c, 9, 44, 64
11, 220128, Note_off_c, 9, 31, 64
11, 220320, Note_on_c, 9, 31, 64
11, 220416, Note_off_c, 9, 31, 64
11, 220416, Note_on_c, 9, 31, 96
11, 220416, Note_on_c, 9, 38, 110
11, 220416, Note_on_c, 9, 36, 110
11, 220416, Note_on_c, 9, 35, 110
11, 220416, Note_on_c, 9, 40, 110
11, 220416, Note_on_c, 9, 44, 110
11, 220512, Note_off_c, 9, 44, 64
11, 220512, Note_off_c, 9, 31, 64
11, 220608, Note_off_c, 9, 40, 64
11, 220608, Note_off_c, 9, 35, 64
11, 220608, Note_off_c, 9, 36, 64
11, 220608, Note_off_c, 9, 38, 64
11, 220704, Note_on_c, 9, 31, 64
11, 220800, Note_off_c, 9, 31, 64
11, 220800, Note_on_c, 9, 31, 96
11, 220800, Note_on_c, 9, 46, 110
11, 220896, Note_off_c, 9, 31, 64
11, 221088, Note_on_c, 9, 31, 64
11, 221184, Note_off_c, 9, 31, 64
11, 221184, Note_off_c, 9, 46, 64
11, 221184, Control_c, 9, 7, 100
11, 221184, Program_c, 9, 9
11, 221184, Note_on_c, 9, 31, 96
11, 221184, Note_on_c, 9, 36, 110
11, 221184, Note_on_c, 9, 35, 110
11, 221184, Note_on_c, 9, 44, 110
11, 221280, Note_off_c, 9, 44, 64
11, 221280, Note_off_c, 9, 31, 64
11, 221376, Note_off_c, 9, 35, 64
11, 221376, Note_off_c, 9, 36, 64
11, 221472, Note_on_c, 9, 31, 64
11, 221568, Note_off_c, 9, 31, 64
11, 221568, Note_on_c, 9, 31, 96
11, 221568, Note_on_c, 9, 44, 110
11, 221664, Note_off_c, 9, 44, 64
11, 221664, Note_off_c, 9, 31, 64
11, 221856, Note_on_c, 9, 31, 64
11, 221952, Note_off_c, 9, 31, 64
11, 221952, Note_on_c, 9, 31, 96
11, 221952, Note_on_c, 9, 38, 110
11, 221952, Note_on_c, 9, 36, 110
11, 221952, Note_on_c, 9, 35, 110
11, 221952, Note_on_c, 9, 40, 110
11, 221952, Note_on_c, 9, 44, 110
11, 222048, Note_off_c, 9, 44, 64
11, 222048, Note_off_c, 9, 31, 64
11, 222144, Note_off_c, 9, 40, 64
11, 222144, Note_off_c, 9, 35, 64
11, 222144, Note_off_c, 9, 36, 64
11, 222144, Note_off_c, 9, 38, 64
11, 222240, Note_on_c, 9, 31, 64
11, 222336, Note_off_c, 9, 31, 64
11, 222336, Note_on_c, 9, 31, 96
11, 222336, Note_on_c, 9, 44, 110
11, 222432, Note_off_c, 9, 44, 64
11, 222432, Note_off_c, 9, 31, 64
11, 222624, Note_on_c, 9, 31, 64
11, 222720, Note_off_c, 9, 31, 64
11, 222720, Note_on_c, 9, 31, 96
11, 222720, Note_on_c, 9, 36, 110
11, 222720, Note_on_c, 9, 35, 110
11, 222720, Note_on_c, 9, 44, 110
11, 222816, Note_off_c, 9, 44, 64
11, 222816, Note_off_c, 9, 31, 64
11, 222912, Note_off_c, 9, 35, 64
11, 222912, Note_off_c, 9, 36, 64
11, 223008, Note_on_c, 9, 31, 64
11, 223104, Note_off_c, 9, 31, 64
11, 223104, Note_on_c, 9, 31, 96
11, 223104, Note_on_c, 9, 44, 110
11, 223200, Note_off_c, 9, 44, 64
11, 223200, Note_off_c, 9, 31, 64
11, 223392, Note_on_c, 9, 31, 64
11, 223488, Note_off_c, 9, 31, 64
11, 223488, Note_on_c, 9, 31, 96
11, 223488, Note_on_c, 9, 38, 110
11, 223488, Note_on_c, 9, 36, 110
11, 223488, Note_on_c, 9, 35, 110
11, 223488, Note_on_c, 9, 40, 110
11, 223488, Note_on_c, 9, 44, 110
11, 223584, Note_off_c, 9, 44, 64
11, 223584, Note_off_c, 9, 31, 64
11, 223680, Note_off_c, 9, 40, 64
11, 223680, Note_off_c, 9, 35, 64
11, 223680, Note_off_c, 9, 36, 64
11, 223680, Note_off_c, 9, 38, 64
11, 223776, Note_on_c, 9, 31, 64
11, 223872, Note_off_c, 9, 31, 64
11, 223872, Note_on_c, 9, 31, 96
11, 223872, Note_on_c, 9, 46, 110
11, 223968, Note_off_c, 9, 31, 64
11, 224160, Note_on_c, 9, 31, 64
11, 224256, Note_off_c, 9, 31, 64
11, 224256, Note_off_c, 9, 46, 64
11, 224256, Note_on_c, 9, 31, 96
11, 224256, Note_on_c, 9, 36, 110
11, 224256, Note_on_c, 9, 35, 110
11, 224256, Note_on_c, 9, 44, 110
11, 224352, Note_off_c, 9, 44, 64
11, 224352, Note_off_c, 9, 31, 64
11, 224448, Note_off_c, 9, 35, 64
11, 224448, Note_off_c, 9, 36, 64
11, 224544, Note_on_c, 9, 31, 64
11, 224640, Note_off_c, 9, 31, 64
11, 224640, Note_on_c, 9, 31, 96
11, 224640, Note_on_c, 9, 44, 110
11, 224736, Note_off_c, 9, 44, 64
11, 224736, Note_off_c, 9, 31, 64
11, 224928, Note_on_c, 9, 31, 64
11, 225024, Note_off_c, 9, 31, 64
11, 225024, Note_on_c, 9, 31, 96
11, 225024, Note_on_c, 9, 38, 110
11, 225024, Note_on_c, 9, 36, 110
11, 225024, Note_on_c, 9, 35, 110
11, 225024, Note_on_c, 9, 40, 110
11, 225024, Note_on_c, 9, 44, 110
11, 225120, Note_off_c, 9, 44, 64
11, 225120, Note_off_c, 9, 31, 64
11, 225216, Note_off_c, 9, 40, 64
11, 225216, Note_off_c, 9, 35, 64
11, 225216, Note_off_c, 9, 36, 64
11, 225216, Note_off_c, 9, 38, 64
11, 225312, Note_on_c, 9, 31, 64
11, 225408, Note_off_c, 9, 31, 64
11, 225408, Note_on_c, 9, 31, 96
11, 225408, Note_on_c, 9, 44, 110
11, 225504, Note_off_c, 9, 44, 64
11, 225504, Note_off_c, 9, 31, 64
11, 225696, Note_on_c, 9, 31, 64
11, 225792, Note_off_c, 9, 31, 64
11, 225792, Note_on_c, 9, 31, 96
11, 225792, Note_on_c, 9, 36, 110
11, 225792, Note_on_c, 9, 35, 110
11, 225792, Note_on_c, 9, 44, 110
11, 225888, Note_off_c, 9, 44, 64
11, 225888, Note_off_c, 9, 31, 64
11, 225984, Note_off_c, 9, 35, 64
11, 225984, Note_off_c, 9, 36, 64
11, 226080, Note_on_c, 9, 31, 64
11, 226176, Note_off_c, 9, 31, 64
11, 226176, Note_on_c, 9, 31, 96
11, 226176, Note_on_c, 9, 44, 110
11, 226272, Note_off_c, 9, 44, 64
11, 226272, Note_off_c, 9, 31, 64
11, 226464, Note_on_c, 9, 31, 64
11, 226560, Note_off_c, 9, 31, 64
11, 226560, Note_on_c, 9, 31, 96
11, 226560, Note_on_c, 9, 38, 110
11, 226560, Note_on_c, 9, 36, 110
11, 226560, Note_on_c, 9, 35, 110
11, 226560, Note_on_c, 9, 40, 110
11, 226560, Note_on_c, 9, 44, 110
11, 226656, Note_off_c, 9, 44, 64
11, 226656, Note_off_c, 9, 31, 64
11, 226752, Note_off_c, 9, 40, 64
11, 226752, Note_off_c, 9, 35, 64
11, 226752, Note_off_c, 9, 36, 64
11, 226752, Note_off_c, 9, 38, 64
11, 226848, Note_on_c, 9, 31, 64
11, 226944, Note_off_c, 9, 31, 64
11, 226944, Note_on_c, 9, 31, 96
11, 226944, Note_on_c, 9, 46, 110
11, 227040, Note_off_c, 9, 31, 64
11, 227232, Note_on_c, 9, 31, 64
11, 227328, Note_off_c, 9, 31, 64
11, 227328, Note_off_c, 9, 46, 64
11, 227328, Control_c, 9, 7, 100
11, 227328, Program_c, 9, 9
11, 227328, Note_on_c, 9, 31, 96
11, 227328, Note_on_c, 9, 36, 110
11, 227328, Note_on_c, 9, 35, 110
11, 227328, Note_on_c, 9, 44, 110
11, 227424, Note_off_c, 9, 44, 64
11, 227424, Note_off_c, 9, 31, 64
11, 227520, Note_off_c, 9, 35, 64
11, 227520, Note_off_c, 9, 36, 64
11, 227616, Note_on_c, 9, 31, 64
11, 227712, Note_off_c, 9, 31, 64
11, 227712, Note_on_c, 9, 31, 96
11, 227712, Note_on_c, 9, 44, 110
11, 227808, Note_off_c, 9, 44, 64
11, 227808, Note_off_c, 9, 31, 64
11, 228000, Note_on_c, 9, 31, 64
11, 228096, Note_off_c, 9, 31, 64
11, 228096, Note_on_c, 9, 31, 96
11, 228096, Note_on_c, 9, 38, 110
11, 228096, Note_on_c, 9, 36, 110
11, 228096, Note_on_c, 9, 35, 110
11, 228096, Note_on_c, 9, 40, 110
11, 228096, Note_on_c, 9, 44, 110
11, 228192, Note_off_c, 9, 44, 64
11, 228192, Note_off_c, 9, 31, 64
11, 228288, Note_off_c, 9, 40, 64
11, 228288, Note_off_c, 9, 35, 64
11, 228288, Note_off_c, 9, 36, 64
11, 228288, Note_off_c, 9, 38, 64
11, 228384, Note_on_c, 9, 31, 64
11, 228480, Note_off_c, 9, 31, 64
11, 228480, Note_on_c, 9, 31, 96
11, 228480, Note_on_c, 9, 44, 110
11, 228576, Note_off_c, 9, 44, 64
11, 228576, Note_off_c, 9, 31, 64
11, 228768, Note_on_c, 9, 31, 64
11, 228864, Note_off_c, 9, 31, 64
11, 228864, Note_on_c, 9, 31, 96
11, 228864, Note_on_c, 9, 36, 110
11, 228864, Note_on_c, 9, 35, 110
11, 228864, Note_on_c, 9, 44, 110
11, 228960, Note_off_c, 9, 44, 64
11, 228960, Note_off_c, 9, 31, 64
11, 229056, Note_off_c, 9, 35, 64
11, 229056, Note_off_c, 9, 36, 64
11, 229152, Note_on_c, 9, 31, 64
11, 229248, Note_off_c, 9, 31, 64
11, 229248, Note_on_c, 9, 31, 96
11, 229248, Note_on_c, 9, 44, 110
11, 229344, Note_off_c, 9, 44, 64
11, 229344, Note_off_c, 9, 31, 64
11, 229536, Note_on_c, 9, 31, 64
11, 229632, Note_off_c, 9, 31, 64
11, 229632, Note_on_c, 9, 31, 96
11, 229632, Note_on_c, 9, 38, 110
11, 229632, Note_on_c, 9, 36, 110
11, 229632, Note_on_c, 9, 35, 110
11, 229632, Note_on_c, 9, 40, 110
11, 229632, Note_on_c, 9, 44, 110
11, 229728, Note_off_c, 9, 44, 64
11, 229728, Note_off_c, 9, 31, 64
11, 229824, Note_off_c, 9, 40, 64
11, 229824, Note_off_c, 9, 35, 64
11, 229824, Note_off_c, 9, 36, 64
11, 229824, Note_off_c, 9, 38, 64
11, 229920, Note_on_c, 9, 31, 64
11, 230016, Note_off_c, 9, 31, 64
11, 230016, Note_on_c, 9, 31, 96
11, 230016, Note_on_c, 9, 46, 110
11, 230112, Note_off_c, 9, 31, 64
11, 230304, Note_on_c, 9, 31, 64
11, 230400, Note_off_c, 9, 31, 64
11, 230400, Note_off_c, 9, 46, 64
11, 230400, Note_on_c, 9, 31, 96
11, 230400, Note_on_c, 9, 36, 110
11, 230400, Note_on_c, 9, 35, 110
11, 230400, Note_on_c, 9, 44, 110
11, 230496, Note_off_c, 9, 44, 64
11, 230496, Note_off_c, 9, 31, 64
11, 230592, Note_off_c, 9, 35, 64
11, 230592, Note_off_c, 9, 36, 64
11, 230688, Note_on_c, 9, 31, 64
11, 230784, Note_off_c, 9, 31, 64
11, 230784, Note_on_c, 9, 31, 96
11, 230784, Note_on_c, 9, 44, 110
11, 230880, Note_off_c, 9, 44, 64
11, 230880, Note_off_c, 9, 31, 64
11, 231072, Note_on_c, 9, 31, 64
11, 231168, Note_off_c, 9, 31, 64
11, 231168, Note_on_c, 9, 31, 96
11, 231168, Note_on_c, 9, 38, 110
11, 231168, Note_on_c, 9, 36, 110
11, 231168, Note_on_c, 9, 35, 110
11, 231168, Note_on_c, 9, 40, 110
11, 231168, Note_on_c, 9, 44, 110
11, 231264, Note_off_c, 9, 44, 64
11, 231264, Note_off_c, 9, 31, 64
11, 231360, Note_off_c, 9, 40, 64
11, 231360, Note_off_c, 9, 35, 64
11, 231360, Note_off_c, 9, 36, 64
11, 231360, Note_off_c, 9, 38, 64
11, 231456, Note_on_c, 9, 31, 64
11, 231552, Note_off_c, 9, 31, 64
11, 231552, Note_on_c, 9, 31, 96
11, 231552, Note_on_c, 9, 44, 110
11, 231648, Note_off_c, 9, 44, 64
11, 231648, Note_off_c, 9, 31, 64
11, 231840, Note_on_c, 9, 31, 64
11, 231936, Note_off_c, 9, 31, 64
11, 231936, Note_on_c, 9, 31, 96
11, 231936, Note_on_c, 9, 36, 110
11, 231936, Note_on_c, 9, 35, 110
11, 231936, Note_on_c, 9, 44, 110
11, 232032, Note_off_c, 9, 44, 64
11, 232032, Note_off_c, 9, 31, 64
11, 232128, Note_off_c, 9, 35, 64
11, 232128, Note_off_c, 9, 36, 64
11, 232224, Note_on_c, 9, 31, 64
11, 232320, Note_off_c, 9, 31, 64
11, 232320, Note_on_c, 9, 31, 96
11, 232320, Note_on_c, 9, 44, 110
11, 232416, Note_off_c, 9, 44, 64
11, 232416, Note_off_c, 9, 31, 64
11, 232608, Note_on_c, 9, 31, 64
11, 232704, Note_off_c, 9, 31, 64
11, 232704, Note_on_c, 9, 31, 96
11, 232704, Note_on_c, 9, 38, 110
11, 232704, Note_on_c, 9, 36, 110
11, 232704, Note_on_c, 9, 35, 110
11, 232704, Note_on_c, 9, 40, 110
11, 232704, Note_on_c, 9, 44, 110
11, 232800, Note_off_c, 9, 44, 64
11, 232800, Note_off_c, 9, 31, 64
11, 232896, Note_off_c, 9, 40, 64
11, 232896, Note_off_c, 9, 35, 64
11, 232896, Note_off_c, 9, 36, 64
11, 232896, Note_off_c, 9, 38, 64
11, 232992, Note_on_c, 9, 31, 64
11, 233088, Note_off_c, 9, 31, 64
11, 233088, Note_on_c, 9, 31, 96
11, 233088, Note_on_c, 9, 46, 110
11, 233184, Note_off_c, 9, 31, 64
11, 233376, Note_on_c, 9, 31, 64
11, 233472, Note_off_c, 9, 31, 64
11, 233472, Note_off_c, 9, 46, 64
11, 233472, Control_c, 9, 7, 100
11, 233472, Program_c, 9, 9
11, 233472, Note_on_c, 9, 31, 96
11, 233472, Note_on_c, 9, 36, 110
11, 233472, Note_on_c, 9, 35, 110
11, 233472, Note_on_c, 9, 44, 110
11, 233568, Note_off_c, 9, 44, 64
11, 233568, Note_off_c, 9, 31, 64
11, 233664, Note_off_c, 9, 35, 64
11, 233664, Note_off_c, 9, 36, 64
11, 233760, Note_on_c, 9, 31, 64
11, 233856, Note_off_c, 9, 31, 64
11, 233856, Note_on_c, 9, 31, 96
11, 233856, Note_on_c, 9, 44, 110
11, 233952, Note_off_c, 9, 44, 64
11, 233952, Note_off_c, 9, 31, 64
11, 234144, Note_on_c, 9, 31, 64
11, 234240, Note_off_c, 9, 31, 64
11, 234240, Note_on_c, 9, 31, 96
11, 234240, Note_on_c, 9, 38, 110
11, 234240, Note_on_c, 9, 36, 110
11, 234240, Note_on_c, 9, 35, 110
11, 234240, Note_on_c, 9, 40, 110
11, 234240, Note_on_c, 9, 44, 110
11, 234336, Note_off_c, 9, 44, 64
11, 234336, Note_off_c, 9, 31, 64
11, 234432, Note_off_c, 9, 40, 64
11, 234432, Note_off_c, 9, 35, 64
11, 234432, Note_off_c, 9, 36, 64
11, 234432, Note_off_c, 9, 38, 64
11, 234528, Note_on_c, 9, 31, 64
11, 234624, Note_off_c, 9, 31, 64
11, 234624, Note_on_c, 9, 31, 96
11, 234624, Note_on_c, 9, 44, 110
11, 234720, Note_off_c, 9, 44, 64
11, 234720, Note_off_c, 9, 31, 64
11, 234912, Note_on_c, 9, 31, 64
11, 235008, Note_off_c, 9, 31, 64
11, 235008, Note_on_c, 9, 31, 96
11, 235008, Note_on_c, 9, 36, 110
11, 235008, Note_on_c, 9, 35, 110
11, 235008, Note_on_c, 9, 44, 110
11, 235104, Note_off_c, 9, 44, 64
11, 235104, Note_off_c, 9, 31, 64
11, 235200, Note_off_c, 9, 35, 64
11, 235200, Note_off_c, 9, 36, 64
11, 235296, Note_on_c, 9, 31, 64
11, 235392, Note_off_c, 9, 31, 64
11, 235392, Note_on_c, 9, 31, 96
11, 235392, Note_on_c, 9, 44, 110
11, 235488, Note_off_c, 9, 44, 64
11, 235488, Note_off_c, 9, 31, 64
11, 235680, Note_on_c, 9, 31, 64
11, 235776, Note_off_c, 9, 31, 64
11, 235776, Note_on_c, 9, 31, 96
11, 235776, Note_on_c, 9, 38, 110
11, 235776, Note_on_c, 9, 36, 110
11, 235776, Note_on_c, 9, 35, 110
11, 235776, Note_on_c, 9, 40, 110
11, 235776, Note_on_c, 9, 44, 110
11, 235872, Note_off_c, 9, 44, 64
11, 235872, Note_off_c, 9, 31, 64
11, 235968, Note_off_c, 9, 40, 64
11, 235968, Note_off_c, 9, 35, 64
11, 235968, Note_off_c, 9, 36, 64
11, 235968, Note_off_c, 9, 38, 64
11, 236064, Note_on_c, 9, 31, 64
11, 236160, Note_off_c, 9, 31, 64
11, 236160, Note_on_c, 9, 31, 96
11, 236160, Note_on_c, 9, 46, 110
11, 236256, Note_off_c, 9, 31, 64
11, 236448, Note_on_c, 9, 31, 64
11, 236544, Note_off_c, 9, 31, 64
11, 236544, Note_off_c, 9, 46, 64
11, 236544, Note_on_c, 9, 31, 96
11, 236544, Note_on_c, 9, 36, 110
11, 236544, Note_on_c, 9, 35, 110
11, 236544, Note_on_c, 9, 44, 110
11, 236640, Note_off_c, 9, 44, 64
11, 236640, Note_off_c, 9, 31, 64
11, 236736, Note_off_c, 9, 35, 64
11, 236736, Note_off_c, 9, 36, 64
11, 236832, Note_on_c, 9, 31, 64
11, 236928, Note_off_c, 9, 31, 64
11, 236928, Note_on_c, 9, 31, 96
11, 236928, Note_on_c, 9, 44, 110
11, 237024, Note_off_c, 9, 44, 64
11, 237024, Note_off_c, 9, 31, 64
11, 237216, Note_on_c, 9, 31, 64
11, 237312, Note_off_c, 9, 31, 64
11, 237312, Note_on_c, 9, 31, 96
11, 237312, Note_on_c, 9, 38, 110
11, 237312, Note_on_c, 9, 36, 110
11, 237312, Note_on_c, 9, 35, 110
11, 237312, Note_on_c, 9, 40, 110
11, 237312, Note_on_c, 9, 44, 110
11, 237408, Note_off_c, 9, 44, 64
11, 237408, Note_off_c, 9, 31, 64
11, 237504, Note_off_c, 9, 40, 64
11, 237504, Note_off_c, 9, 35, 64
11, 237504, Note_off_c, 9, 36, 64
11, 237504, Note_off_c, 9, 38, 64
11, 237600, Note_on_c, 9, 31, 64
11, 237696, Note_off_c, 9, 31, 64
11, 237696, Note_on_c, 9, 31, 96
11, 237696, Note_on_c, 9, 44, 110
11, 237792, Note_off_c, 9, 44, 64
11, 237792, Note_off_c, 9, 31, 64
11, 237984, Note_on_c, 9, 31, 64
11, 238080, Note_off_c, 9, 31, 64
11, 238080, Note_on_c, 9, 31, 96
11, 238080, Note_on_c, 9, 36, 110
11, 238080, Note_on_c, 9, 35, 110
11, 238080, Note_on_c, 9, 44, 110
11, 238176, Note_off_c, 9, 44, 64
11, 238176, Note_off_c, 9, 31, 64
11, 238272, Note_off_c, 9, 35, 64
11, 238272, Note_off_c, 9, 36, 64
11, 238368, Note_on_c, 9, 31, 64
11, 238464, Note_off_c, 9, 31, 64
11, 238464, Note_on_c, 9, 31, 96
11, 238464, Note_on_c, 9, 44, 110
11, 238560, Note_off_c, 9, 44, 64
11, 238560, Note_off_c, 9, 31, 64
11, 238752, Note_on_c, 9, 31, 64
11, 238848, Note_off_c, 9, 31, 64
11, 238848, Note_on_c, 9, 31, 96
11, 238848, Note_on_c, 9, 38, 110
11, 238848, Note_on_c, 9, 36, 110
11, 238848, Note_on_c, 9, 35, 110
11, 238848, Note_on_c, 9, 40, 110
11, 238848, Note_on_c, 9, 44, 110
11, 238944, Note_off_c, 9, 44, 64
11, 238944, Note_off_c, 9, 31, 64
11, 239040, Note_off_c, 9, 40, 64
11, 239040, Note_off_c, 9, 35, 64
11, 239040, Note_off_c, 9, 36, 64
11, 239040, Note_off_c, 9, 38, 64
11, 239136, Note_on_c, 9, 31, 64
11, 239232, Note_off_c, 9, 31, 64
11, 239232, Note_on_c, 9, 31, 96
11, 239232, Note_on_c, 9, 46, 110
11, 239328, Note_off_c, 9, 31, 64
11, 239520, Note_on_c, 9, 31, 64
11, 239616, Note_off_c, 9, 31, 64
11, 239616, Note_off_c, 9, 46, 64
11, 239616, Control_c, 9, 7, 100
11, 239616, Program_c, 9, 9
11, 239616, Note_on_c, 9, 31, 96
11, 239616, Note_on_c, 9, 36, 110
11, 239616, Note_on_c, 9, 35, 110
11, 239616, Note_on_c, 9, 44, 110
11, 239712, Note_off_c, 9, 44, 64
11, 239712, Note_off_c, 9, 31, 64
11, 239808, Note_off_c, 9, 35, 64
11, 239808, Note_off_c, 9, 36, 64
11, 239904, Note_on_c, 9, 31, 64
11, 240000, Note_off_c, 9, 31, 64
11, 240000, Note_on_c, 9, 31, 96
11, 240000, Note_on_c, 9, 44, 110
11, 240096, Note_off_c, 9, 44, 64
11, 240096, Note_off_c, 9, 31, 64
11, 240288, Note_on_c, 9, 31, 64
11, 240384, Note_off_c, 9, 31, 64
11, 240384, Note_on_c, 9, 31, 96
11, 240384, Note_on_c, 9, 38, 110
11, 240384, Note_on_c, 9, 36, 110
11, 240384, Note_on_c, 9, 35, 110
11, 240384, Note_on_c, 9, 40, 110
11, 240384, Note_on_c, 9, 44, 110
11, 240480, Note_off_c, 9, 44, 64
11, 240480, Note_off_c, 9, 31, 64
11, 240576, Note_off_c, 9, 40, 64
11, 240576, Note_off_c, 9, 35, 64
11, 240576, Note_off_c, 9, 36, 64
11, 240576, Note_off_c, 9, 38, 64
11, 240672, Note_on_c, 9, 31, 64
11, 240768, Note_off_c, 9, 31, 64
11, 240768, Note_on_c, 9, 31, 96
11, 240768, Note_on_c, 9, 44, 110
11, 240864, Note_off_c, 9, 44, 64
11, 240864, Note_off_c, 9, 31, 64
11, 241056, Note_on_c, 9, 31, 64
11, 241152, Note_off_c, 9, 31, 64
11, 241152, Note_on_c, 9, 31, 96
11, 241152, Note_on_c, 9, 36, 110
11, 241152, Note_on_c, 9, 35, 110
11, 241152, Note_on_c, 9, 44, 110
11, 241248, Note_off_c, 9, 44, 64
11, 241248, Note_off_c, 9, 31, 64
11, 241344, Note_off_c, 9, 35, 64
11, 241344, Note_off_c, 9, 36, 64
11, 241440, Note_on_c, 9, 31, 64
11, 241536, Note_off_c, 9, 31, 64
11, 241536, Note_on_c, 9, 31, 96
11, 241536, Note_on_c, 9, 44, 110
11, 241632, Note_off_c, 9, 44, 64
11, 241632, Note_off_c, 9, 31, 64
11, 241824, Note_on_c, 9, 31, 64
11, 241920, Note_off_c, 9, 31, 64
11, 241920, Note_on_c, 9, 31, 96
11, 241920, Note_on_c, 9, 38, 110
11, 241920, Note_on_c, 9, 36, 110
11, 241920, Note_on_c, 9, 35, 110
11, 241920, Note_on_c, 9, 40, 110
11, 241920, Note_on_c, 9, 44, 110
11, 242016, Note_off_c, 9, 44, 64
11, 242016, Note_off_c, 9, 31, 64
11, 242112, Note_off_c, 9, 40, 64
11, 242112, Note_off_c, 9, 35, 64
11, 242112, Note_off_c, 9, 36, 64
11, 242112, Note_off_c, 9, 38, 64
11, 242208, Note_on_c, 9, 31, 64
11, 242304, Note_off_c, 9, 31, 64
11, 242304, Note_on_c, 9, 31, 96
11, 242304, Note_on_c, 9, 46, 110
11, 242400, Note_off_c, 9, 31, 64
11, 242592, Note_on_c, 9, 31, 64
11, 242688, Note_off_c, 9, 31, 64
11, 242688, Note_off_c, 9, 46, 64
11, 242688, Note_on_c, 9, 31, 96
11, 242688, Note_on_c, 9, 36, 110
11, 242688, Note_on_c, 9, 35, 110
11, 242688, Note_on_c, 9, 44, 110
11, 242784, Note_off_c, 9, 44, 64
11, 242784, Note_off_c, 9, 31, 64
11, 242880, Note_off_c, 9, 35, 64
11, 242880, Note_off_c, 9, 36, 64
11, 242976, Note_on_c, 9, 31, 64
11, 243072, Note_off_c, 9, 31, 64
11, 243072, Note_on_c, 9, 31, 96
11, 243072, Note_on_c, 9, 44, 110
11, 243168, Note_off_c, 9, 44, 64
11, 243168, Note_off_c, 9, 31, 64
11, 243360, Note_on_c, 9, 31, 64
11, 243456, Note_off_c, 9, 31, 64
11, 243456, Note_on_c, 9, 31, 96
11, 243456, Note_on_c, 9, 38, 110
11, 243456, Note_on_c, 9, 36, 110
11, 243456, Note_on_c, 9, 35, 110
11, 243456, Note_on_c, 9, 40, 110
11, 243456, Note_on_c, 9, 44, 110
11, 243552, Note_off_c, 9, 44, 64
11, 243552, Note_off_c, 9, 31, 64
11, 243648, Note_off_c, 9, 40, 64
11, 243648, Note_off_c, 9, 35, 64
11, 243648, Note_off_c, 9, 36, 64
11, 243648, Note_off_c, 9, 38, 64
11, 243744, Note_on_c, 9, 31, 64
11, 243840, Note_off_c, 9, 31, 64
11, 243840, Note_on_c, 9, 31, 96
11, 243840, Note_on_c, 9, 44, 110
11, 243936, Note_off_c, 9, 44, 64
11, 243936, Note_off_c, 9, 31, 64
11, 244128, Note_on_c, 9, 31, 64
11, 244224, Note_off_c, 9, 31, 64
11, 244224, Note_on_c, 9, 31, 96
11, 244224, Note_on_c, 9, 36, 110
11, 244224, Note_on_c, 9, 35, 110
11, 244224, Note_on_c, 9, 44, 110
11, 244320, Note_off_c, 9, 44, 64
11, 244320, Note_off_c, 9, 31, 64
11, 244416, Note_off_c, 9, 35, 64
11, 244416, Note_off_c, 9, 36, 64
11, 244512, Note_on_c, 9, 31, 64
11, 244608, Note_off_c, 9, 31, 64
11, 244608, Note_on_c, 9, 31, 96
11, 244608, Note_on_c, 9, 44, 110
11, 244704, Note_off_c, 9, 44, 64
11, 244704, Note_off_c, 9, 31, 64
11, 244896, Note_on_c, 9, 31, 64
11, 244992, Note_off_c, 9, 31, 64
11, 244992, Note_on_c, 9, 31, 96
11, 244992, Note_on_c, 9, 38, 110
11, 244992, Note_on_c, 9, 36, 110
11, 244992, Note_on_c, 9, 35, 110
11, 244992, Note_on_c, 9, 40, 110
11, 244992, Note_on_c, 9, 44, 110
11, 245088, Note_off_c, 9, 44, 64
11, 245088, Note_off_c, 9, 31, 64
11, 245184, Note_off_c, 9, 40, 64
11, 245184, Note_off_c, 9, 35, 64
11, 245184, Note_off_c, 9, 36, 64
11, 245184, Note_off_c, 9, 38, 64
11, 245280, Note_on_c, 9, 31, 64
11, 245376, Note_off_c, 9, 31, 64
11, 245376, Note_on_c, 9, 31, 96
11, 245376, Note_on_c, 9, 46, 110
11, 245472, Note_off_c, 9, 31, 64
11, 245664, Note_on_c, 9, 31, 64
11, 245760, Note_off_c, 9, 31, 64
11, 245760, Note_off_c, 9, 46, 64
11, 245760, Control_c, 9, 7, 100
11, 245760, Program_c, 9, 9
11, 245760, Note_on_c, 9, 31, 96
11, 245760, Note_on_c, 9, 36, 110
11, 245760, Note_on_c, 9, 35, 110
11, 245760, Note_on_c, 9, 44, 110
11, 245856, Note_off_c, 9, 44, 64
11, 245856, Note_off_c, 9, 31, 64
11, 245952, Note_off_c, 9, 35, 64
11, 245952, Note_off_c, 9, 36, 64
11, 246048, Note_on_c, 9, 31, 64
11, 246144, Note_off_c, 9, 31, 64
11, 246144, Note_on_c, 9, 31, 96
11, 246144, Note_on_c, 9, 44, 110
11, 246240, Note_off_c, 9, 44, 64
11, 246240, Note_off_c, 9, 31, 64
11, 246432, Note_on_c, 9, 31, 64
11, 246528, Note_off_c, 9, 31, 64
11, 246528, Note_on_c, 9, 31, 96
11, 246528, Note_on_c, 9, 38, 110
11, 246528, Note_on_c, 9, 36, 110
11, 246528, Note_on_c, 9, 35, 110
11, 246528, Note_on_c, 9, 40, 110
11, 246528, Note_on_c, 9, 44, 110
11, 246624, Note_off_c, 9, 44, 64
11, 246624, Note_off_c, 9, 31, 64
11, 246720, Note_off_c, 9, 40, 64
11, 246720, Note_off_c, 9, 35, 64
11, 246720, Note_off_c, 9, 36, 64
11, 246720, Note_off_c, 9, 38, 64
11, 246816, Note_on_c, 9, 31, 64
11, 246912, Note_off_c, 9, 31, 64
11, 246912, Note_on_c, 9, 31, 96
11, 246912, Note_on_c, 9, 44, 110
11, 247008, Note_off_c, 9, 44, 64
11, 247008, Note_off_c, 9, 31, 64
11, 247200, Note_on_c, 9, 31, 64
11, 247296, Note_off_c, 9, 31, 64
11, 247296, Note_on_c, 9, 31, 96
11, 247296, Note_on_c, 9, 36, 110
11, 247296, Note_on_c, 9, 35, 110
11, 247296, Note_on_c, 9, 44, 110
11, 247392, Note_off_c, 9, 44, 64
11, 247392, Note_off_c, 9, 31, 64
11, 247488, Note_off_c, 9, 35, 64
11, 247488, Note_off_c, 9, 36, 64
11, 247584, Note_on_c, 9, 31, 64
11, 247680, Note_off_c, 9, 31, 64
11, 247680, Note_on_c, 9, 31, 96
11, 247680, Note_on_c, 9, 44, 110
11, 247776, Note_off_c, 9, 44, 64
11, 247776, Note_off_c, 9, 31, 64
11, 247968, Note_on_c, 9, 31, 64
11, 248064, Note_off_c, 9, 31, 64
11, 248064, Note_on_c, 9, 31, 96
11, 248064, Note_on_c, 9, 38, 110
11, 248064, Note_on_c, 9, 36, 110
11, 248064, Note_on_c, 9, 35, 110
11, 248064, Note_on_c, 9, 40, 110
11, 248064, Note_on_c, 9, 44, 110
11, 248160, Note_off_c, 9, 44, 64
11, 248160, Note_off_c, 9, 31, 64
11, 248256, Note_off_c, 9, 40, 64
11, 248256, Note_off_c, 9, 35, 64
11, 248256, Note_off_c, 9, 36, 64
11, 248256, Note_off_c, 9, 38, 64
11, 248352, Note_on_c, 9, 31, 64
11, 248448, Note_off_c, 9, 31, 64
11, 248448, Note_on_c, 9, 31, 96
11, 248448, Note_on_c, 9, 46, 110
11, 248544, Note_off_c, 9, 31, 64
11, 248736, Note_on_c, 9, 31, 64
11, 248832, Note_off_c, 9, 31, 64
11, 248832, Note_off_c, 9, 46, 64
11, 248832, Note_on_c, 9, 31, 96
11, 248832, Note_on_c, 9, 36, 110
11, 248832, Note_on_c, 9, 35, 110
11, 248832, Note_on_c, 9, 44, 110
11, 248928, Note_off_c, 9, 44, 64
11, 248928, Note_off_c, 9, 31, 64
11, 249024, Note_off_c, 9, 35, 64
11, 249024, Note_off_c, 9, 36, 64
11, 249120, Note_on_c, 9, 31, 64
11, 249216, Note_off_c, 9, 31, 64
11, 249216, Note_on_c, 9, 31, 96
11, 249216, Note_on_c, 9, 44, 110
11, 249312, Note_off_c, 9, 44, 64
11, 249312, Note_off_c, 9, 31, 64
11, 249504, Note_on_c, 9, 31, 64
11, 249600, Note_off_c, 9, 31, 64
11, 249600, Note_on_c, 9, 31, 96
11, 249600, Note_on_c, 9, 38, 110
11, 249600, Note_on_c, 9, 36, 110
11, 249600, Note_on_c, 9, 35, 110
11, 249600, Note_on_c, 9, 40, 110
11, 249600, Note_on_c, 9, 44, 110
11, 249696, Note_off_c, 9, 44, 64
11, 249696, Note_off_c, 9, 31, 64
11, 249792, Note_off_c, 9, 40, 64
11, 249792, Note_off_c, 9, 35, 64
11, 249792, Note_off_c, 9, 36, 64
11, 249792, Note_off_c, 9, 38, 64
11, 249888, Note_on_c, 9, 31, 64
11, 249984, Note_off_c, 9, 31, 64
11, 249984, Note_on_c, 9, 31, 96
11, 249984, Note_on_c, 9, 44, 110
11, 250080, Note_off_c, 9, 44, 64
11, 250080, Note_off_c, 9, 31, 64
11, 250272, Note_on_c, 9, 31, 64
11, 250368, Note_off_c, 9, 31, 64
11, 250368, Note_on_c, 9, 31, 96
11, 250368, Note_on_c, 9, 36, 110
11, 250368, Note_on_c, 9, 35, 110
11, 250368, Note_on_c, 9, 44, 110
11, 250464, Note_off_c, 9, 44, 64
11, 250464, Note_off_c, 9, 31, 64
11, 250560, Note_off_c, 9, 35, 64
11, 250560, Note_off_c, 9, 36, 64
11, 250656, Note_on_c, 9, 31, 64
11, 250752, Note_off_c, 9, 31, 64
11, 250752, Note_on_c, 9, 31, 96
11, 250752, Note_on_c, 9, 44, 110
11, 250848, Note_off_c, 9, 44, 64
11, 250848, Note_off_c, 9, 31, 64
11, 251040, Note_on_c, 9, 31, 64
11, 251136, Note_off_c, 9, 31, 64
11, 251136, Note_on_c, 9, 31, 96
11, 251136, Note_on_c, 9, 38, 110
11, 251136, Note_on_c, 9, 36, 110
11, 251136, Note_on_c, 9, 35, 110
11, 251136, Note_on_c, 9, 40, 110
11, 251136, Note_on_c, 9, 44, 110
11, 251232, Note_off_c, 9, 44, 64
11, 251232, Note_off_c, 9, 31, 64
11, 251328, Note_off_c, 9, 40, 64
11, 251328, Note_off_c, 9, 35, 64
11, 251328, Note_off_c, 9, 36, 64
11, 251328, Note_off_c, 9, 38, 64
11, 251424, Note_on_c, 9, 31, 64
11, 251520, Note_off_c, 9, 31, 64
11, 251520, Note_on_c, 9, 31, 96
11, 251520, Note_on_c, 9, 46, 110
11, 251616, Note_off_c, 9, 31, 64
11, 251808, Note_on_c, 9, 31, 64
11, 251904, Note_off_c, 9, 31, 64
11, 251904, Note_off_c, 9, 46, 64
11, 251904, Control_c, 9, 7, 100
11, 251904, Program_c, 9, 9
11, 251904, Note_on_c, 9, 31, 96
11, 251904, Note_on_c, 9, 36, 110
11, 251904, Note_on_c, 9, 35, 110
11, 251904, Note_on_c, 9, 44, 110
11, 252000, Note_off_c, 9, 44, 64
11, 252000, Note_off_c, 9, 31, 64
11, 252096, Note_off_c, 9, 35, 64
11, 252096, Note_off_c, 9, 36, 64
11, 252192, Note_on_c, 9, 31, 64
11, 252288, Note_off_c, 9, 31, 64
11, 252288, Note_on_c, 9, 31, 96
11, 252288, Note_on_c, 9, 44, 110
11, 252384, Note_off_c, 9, 44, 64
11, 252384, Note_off_c, 9, 31, 64
11, 252576, Note_on_c, 9, 31, 64
11, 252672, Note_off_c, 9, 31, 64
11, 252672, Note_on_c, 9, 31, 96
11, 252672, Note_on_c, 9, 38, 110
11, 252672, Note_on_c, 9, 36, 110
11, 252672, Note_on_c, 9, 35, 110
11, 252672, Note_on_c, 9, 40, 110
11, 252672, Note_on_c, 9, 44, 110
11, 252768, Note_off_c, 9, 44, 64
11, 252768, Note_off_c, 9, 31, 64
11, 252864, Note_off_c, 9, 40, 64
11, 252864, Note_off_c, 9, 35, 64
11, 252864, Note_off_c, 9, 36, 64
11, 252864, Note_off_c, 9, 38, 64
11, 252960, Note_on_c, 9, 31, 64
11, 253056, Note_off_c, 9, 31, 64
11, 253056, Note_on_c, 9, 31, 96
11, 253056, Note_on_c, 9, 44, 110
11, 253152, Note_off_c, 9, 44, 64
11, 253152, Note_off_c, 9, 31, 64
11, 253344, Note_on_c, 9, 31, 64
11, 253440, Note_off_c, 9, 31, 64
11, 253440, Note_on_c, 9, 31, 96
11, 253440, Note_on_c, 9, 36, 110
11, 253440, Note_on_c, 9, 35, 110
11, 253440, Note_on_c, 9, 44, 110
11, 253536, Note_off_c, 9, 44, 64
11, 253536, Note_off_c, 9, 31, 64
11, 253632, Note_off_c, 9, 35, 64
11, 253632, Note_off_c, 9, 36, 64
11, 253728, Note_on_c, 9, 31, 64
11, 253824, Note_off_c, 9, 31, 64
11, 253824, Note_on_c, 9, 31, 96
11, 253824, Note_on_c, 9, 44, 110
11, 253920, Note_off_c, 9, 44, 64
11, 253920, Note_off_c, 9, 31, 64
11, 254112, Note_on_c, 9, 31, 64
11, 254208, Note_off_c, 9, 31, 64
11, 254208, Note_on_c, 9, 31, 96
11, 254208, Note_on_c, 9, 38, 110
11, 254208, Note_on_c, 9, 36, 110
11, 254208, Note_on_c, 9, 35, 110
11, 254208, Note_on_c, 9, 40, 110
11, 254208, Note_on_c, 9, 44, 110
11, 254304, Note_off_c, 9, 44, 64
11, 254304, Note_off_c, 9, 31, 64
11, 254400, Note_off_c, 9, 40, 64
11, 254400, Note_off_c, 9, 35, 64
11, 254400, Note_off_c, 9, 36, 64
11, 254400, Note_off_c, 9, 38, 64
11, 254496, Note_on_c, 9, 31, 64
11, 254592, Note_off_c, 9, 31, 64
11, 254592, Note_on_c, 9, 31, 96
11, 254592, Note_on_c, 9, 46, 110
11, 254688, Note_off_c, 9, 31, 64
11, 254880, Note_on_c, 9, 31, 64
11, 254976, Note_off_c, 9, 31, 64
11, 254976, Note_off_c, 9, 46, 64
11, 254976, Note_on_c, 9, 31, 96
11, 254976, Note_on_c, 9, 36, 110
11, 254976, Note_on_c, 9, 35, 110
11, 254976, Note_on_c, 9, 44, 110
11, 255072, Note_off_c, 9, 44, 64
11, 255072, Note_off_c, 9, 31, 64
11, 255168, Note_off_c, 9, 35, 64
11, 255168, Note_off_c, 9, 36, 64
11, 255264, Note_on_c, 9, 31, 64
11, 255360, Note_off_c, 9, 31, 64
11, 255360, Note_on_c, 9, 31, 96
11, 255360, Note_on_c, 9, 44, 110
11, 255456, Note_off_c, 9, 44, 64
11, 255456, Note_off_c, 9, 31, 64
11, 255648, Note_on_c, 9, 31, 64
11, 255744, Note_off_c, 9, 31, 64
11, 255744, Note_on_c, 9, 31, 96
11, 255744, Note_on_c, 9, 38, 110
11, 255744, Note_on_c, 9, 36, 110
11, 255744, Note_on_c, 9, 35, 110
11, 255744, Note_on_c, 9, 40, 110
11, 255744, Note_on_c, 9, 44, 110
11, 255840, Note_off_c, 9, 44, 64
11, 255840, Note_off_c, 9, 31, 64
11, 255936, Note_off_c, 9, 40, 64
11, 255936, Note_off_c, 9, 35, 64
11, 255936, Note_off_c, 9, 36, 64
11, 255936, Note_off_c, 9, 38, 64
11, 256032, Note_on_c, 9, 31, 64
11, 256128, Note_off_c, 9, 31, 64
11, 256128, Note_on_c, 9, 31, 96
11, 256128, Note_on_c, 9, 44, 110
11, 256224, Note_off_c, 9, 44, 64
11, 256224, Note_off_c, 9, 31, 64
11, 256416, Note_on_c, 9, 31, 64
11, 256512, Note_off_c, 9, 31, 64
11, 256512, Note_on_c, 9, 31, 96
11, 256512, Note_on_c, 9, 36, 110
11, 256512, Note_on_c, 9, 35, 110
11, 256512, Note_on_c, 9, 44, 110
11, 256608, Note_off_c, 9, 44, 64
11, 256608, Note_off_c, 9, 31, 64
11, 256704, Note_off_c, 9, 35, 64
11, 256704, Note_off_c, 9, 36, 64
11, 256800, Note_on_c, 9, 31, 64
11, 256896, Note_off_c, 9, 31, 64
11, 256896, Note_on_c, 9, 31, 96
11, 256896, Note_on_c, 9, 44, 110
11, 256992, Note_off_c, 9, 44, 64
11, 256992, Note_off_c, 9, 31, 64
11, 257184, Note_on_c, 9, 31, 64
11, 257280, Note_off_c, 9, 31, 64
11, 257280, Note_on_c, 9, 31, 96
11, 257280, Note_on_c, 9, 38, 110
11, 257280, Note_on_c, 9, 36, 110
11, 257280, Note_on_c, 9, 35, 110
11, 257280, Note_on_c, 9, 40, 110
11, 257280, Note_on_c, 9, 44, 110
11, 257376, Note_off_c, 9, 44, 64
11, 257376, Note_off_c, 9, 31, 64
11, 257472, Note_off_c, 9, 40, 64
11, 257472, Note_off_c, 9, 35, 64
11, 257472, Note_off_c, 9, 36, 64
11, 257472, Note_off_c, 9, 38, 64
11, 257568, Note_on_c, 9, 31, 64
11, 257664, Note_off_c, 9, 31, 64
11, 257664, Note_on_c, 9, 31, 96
11, 257664, Note_on_c, 9, 46, 110
11, 257760, Note_off_c, 9, 31, 64
11, 257952, Note_on_c, 9, 31, 64
11, 258048, Note_off_c, 9, 31, 64
11, 258048, Note_off_c, 9, 46, 64
11, 258048, Control_c, 9, 7, 100
11, 258048, Program_c, 9, 9
11, 258048, Note_on_c, 9, 31, 96
11, 258048, Note_on_c, 9, 36, 110
11, 258048, Note_on_c, 9, 35, 110
11, 258048, Note_on_c, 9, 44, 110
11, 258144, Note_off_c, 9, 44, 64
11, 258144, Note_off_c, 9, 31, 64
11, 258240, Note_off_c, 9, 35, 64
11, 258240, Note_off_c, 9, 36, 64
11, 258336, Note_on_c, 9, 31, 64
11, 258432, Note_off_c, 9, 31, 64
11, 258432, Note_on_c, 9, 31, 96
11, 258432, Note_on_c, 9, 44, 110
11, 258528, Note_off_c, 9, 44, 64
11, 258528, Note_off_c, 9, 31, 64
11, 258720, Note_on_c, 9, 31, 64
11, 258816, Note_off_c, 9, 31, 64
11, 258816, Note_on_c, 9, 31, 96
11, 258816, Note_on_c, 9, 38, 110
11, 258816, Note_on_c, 9, 36, 110
11, 258816, Note_on_c, 9, 35, 110
11, 258816, Note_on_c, 9, 40, 110
11, 258816, Note_on_c, 9, 44, 110
11, 258912, Note_off_c, 9, 44, 64
11, 258912, Note_off_c, 9, 31, 64
11, 259008, Note_off_c, 9, 40, 64
11, 259008, Note_off_c, 9, 35, 64
11, 259008, Note_off_c, 9, 36, 64
11, 259008, Note_off_c, 9, 38, 64
11, 259104, Note_on_c, 9, 31, 64
11, 259200, Note_off_c, 9, 31, 64
11, 259200, Note_on_c, 9, 31, 96
11, 259200, Note_on_c, 9, 44, 110
11, 259296, Note_off_c, 9, 44, 64
11, 259296, Note_off_c, 9, 31, 64
11, 259488, Note_on_c, 9, 31, 64
11, 259584, Note_off_c, 9, 31, 64
11, 259584, Note_on_c, 9, 31, 96
11, 259584, Note_on_c, 9, 36, 110
11, 259584, Note_on_c, 9, 35, 110
11, 259584, Note_on_c, 9, 44, 110
11, 259680, Note_off_c, 9, 44, 64
11, 259680, Note_off_c, 9, 31, 64
11, 259776, Note_off_c, 9, 35, 64
11, 259776, Note_off_c, 9, 36, 64
11, 259872, Note_on_c, 9, 31, 64
11, 259968, Note_off_c, 9, 31, 64
11, 259968, Note_on_c, 9, 31, 96
11, 259968, Note_on_c, 9, 44, 110
11, 260064, Note_off_c, 9, 44, 64
11, 260064, Note_off_c, 9, 31, 64
11, 260256, Note_on_c, 9, 31, 64
11, 260352, Note_off_c, 9, 31, 64
11, 260352, Note_on_c, 9, 31, 96
11, 260352, Note_on_c, 9, 38, 110
11, 260352, Note_on_c, 9, 36, 110
11, 260352, Note_on_c, 9, 35, 110
11, 260352, Note_on_c, 9, 40, 110
11, 260352, Note_on_c, 9, 44, 110
11, 260448, Note_off_c, 9, 44, 64
11, 260448, Note_off_c, 9, 31, 64
11, 260544, Note_off_c, 9, 40, 64
11, 260544, Note_off_c, 9, 35, 64
11, 260544, Note_off_c, 9, 36, 64
11, 260544, Note_off_c, 9, 38, 64
11, 260640, Note_on_c, 9, 31, 64
11, 260736, Note_off_c, 9, 31, 64
11, 260736, Note_on_c, 9, 31, 96
11, 260736, Note_on_c, 9, 46, 110
11, 260832, Note_off_c, 9, 31, 64
11, 261024, Note_on_c, 9, 31, 64
11, 261120, Note_off_c, 9, 31, 64
11, 261120, Note_off_c, 9, 46, 64
11, 261120, Note_on_c, 9, 31, 96
11, 261120, Note_on_c, 9, 36, 110
11, 261120, Note_on_c, 9, 35, 110
11, 261120, Note_on_c, 9, 44, 110
11, 261216, Note_off_c, 9, 44, 64
11, 261216, Note_off_c, 9, 31, 64
11, 261312, Note_off_c, 9, 35, 64
11, 261312, Note_off_c, 9, 36, 64
11, 261408, Note_on_c, 9, 31, 64
11, 261504, Note_off_c, 9, 31, 64
11, 261504, Note_on_c, 9, 31, 96
11, 261504, Note_on_c, 9, 44, 110
11, 261600, Note_off_c, 9, 44, 64
11, 261600, Note_off_c, 9, 31, 64
11, 261792, Note_on_c, 9, 31, 64
11, 261888, Note_off_c, 9, 31, 64
11, 261888, Note_on_c, 9, 31, 96
11, 261888, Note_on_c, 9, 38, 110
11, 261888, Note_on_c, 9, 36, 110
11, 261888, Note_on_c, 9, 35, 110
11, 261888, Note_on_c, 9, 40, 110
11, 261888, Note_on_c, 9, 44, 110
11, 261984, Note_off_c, 9, 44, 64
11, 261984, Note_off_c, 9, 31, 64
11, 262080, Note_off_c, 9, 40, 64
11, 262080, Note_off_c, 9, 35, 64
11, 262080, Note_off_c, 9, 36, 64
11, 262080, Note_off_c, 9, 38, 64
11, 262176, Note_on_c, 9, 31, 64
11, 262272, Note_off_c, 9, 31, 64
11, 262272, Note_on_c, 9, 31, 96
11, 262272, Note_on_c, 9, 44, 110
11, 262368, Note_off_c, 9, 44, 64
11, 262368, Note_off_c, 9, 31, 64
11, 262560, Note_on_c, 9, 31, 64
11, 262656, Note_off_c, 9, 31, 64
11, 262656, Note_on_c, 9, 31, 96
11, 262656, Note_on_c, 9, 36, 110
11, 262656, Note_on_c, 9, 35, 110
11, 262656, Note_on_c, 9, 44, 110
11, 262752, Note_off_c, 9, 44, 64
11, 262752, Note_off_c, 9, 31, 64
11, 262848, Note_off_c, 9, 35, 64
11, 262848, Note_off_c, 9, 36, 64
11, 262944, Note_on_c, 9, 31, 64
11, 263040, Note_off_c, 9, 31, 64
11, 263040, Note_on_c, 9, 31, 96
11, 263040, Note_on_c, 9, 44, 110
11, 263136, Note_off_c, 9, 44, 64
11, 263136, Note_off_c, 9, 31, 64
11, 263328, Note_on_c, 9, 31, 64
11, 263424, Note_off_c, 9, 31, 64
11, 263424, Note_on_c, 9, 31, 96
11, 263424, Note_on_c, 9, 38, 110
11, 263424, Note_on_c, 9, 36, 110
11, 263424, Note_on_c, 9, 35, 110
11, 263424, Note_on_c, 9, 40, 110
11, 263424, Note_on_c, 9, 44, 110
11, 263520, Note_off_c, 9, 44, 64
11, 263520, Note_off_c, 9, 31, 64
11, 263616, Note_off_c, 9, 40, 64
11, 263616, Note_off_c, 9, 35, 64
11, 263616, Note_off_c, 9, 36, 64
11, 263616, Note_off_c, 9, 38, 64
11, 263712, Note_on_c, 9, 31, 64
11, 263808, Note_off_c, 9, 31, 64
11, 263808, Note_on_c, 9, 31, 96
11, 263808, Note_on_c, 9, 46, 110
11, 263904, Note_off_c, 9, 31, 64
11, 264096, Note_on_c, 9, 31, 64
11, 264192, Note_off_c, 9, 31, 64
11, 264192, Note_off_c, 9, 46, 64
11, 264192, Control_c, 9, 7, 100
11, 264192, Program_c, 9, 9
11, 264192, Note_on_c, 9, 31, 96
11, 264192, Note_on_c, 9, 36, 110
11, 264192, Note_on_c, 9, 35, 110
11, 264192, Note_on_c, 9, 44, 110
11, 264288, Note_off_c, 9, 44, 64
11, 264288, Note_off_c, 9, 31, 64
11, 264384, Note_off_c, 9, 35, 64
11, 264384, Note_off_c, 9, 36, 64
11, 264480, Note_on_c, 9, 31, 64
11, 264576, Note_off_c, 9, 31, 64
11, 264576, Note_on_c, 9, 31, 96
11, 264576, Note_on_c, 9, 44, 110
11, 264672, Note_off_c, 9, 44, 64
11, 264672, Note_off_c, 9, 31, 64
11, 264864, Note_on_c, 9, 31, 64
11, 264960, Note_off_c, 9, 31, 64
11, 264960, Note_on_c, 9, 31, 96
11, 264960, Note_on_c, 9, 38, 110
11, 264960, Note_on_c, 9, 36, 110
11, 264960, Note_on_c, 9, 35, 110
11, 264960, Note_on_c, 9, 40, 110
11, 264960, Note_on_c, 9, 44, 110
11, 265056, Note_off_c, 9, 44, 64
11, 265056, Note_off_c, 9, 31, 64
11, 265152, Note_off_c, 9, 40, 64
11, 265152, Note_off_c, 9, 35, 64
11, 265152, Note_off_c, 9, 36, 64
11, 265152, Note_off_c, 9, 38, 64
11, 265248, Note_on_c, 9, 31, 64
11, 265344, Note_off_c, 9, 31, 64
11, 265344, Note_on_c, 9, 31, 96
11, 265344, Note_on_c, 9, 44, 110
11, 265440, Note_off_c, 9, 44, 64
11, 265440, Note_off_c, 9, 31, 64
11, 265632, Note_on_c, 9, 31, 64
11, 265728, Note_off_c, 9, 31, 64
11, 265728, Note_on_c, 9, 31, 96
11, 265728, Note_on_c, 9, 36, 110
11, 265728, Note_on_c, 9, 35, 110
11, 265728, Note_on_c, 9, 44, 110
11, 265824, Note_off_c, 9, 44, 64
11, 265824, Note_off_c, 9, 31, 64
11, 265920, Note_off_c, 9, 35, 64
11, 265920, Note_off_c, 9, 36, 64
11, 266016, Note_on_c, 9, 31, 64
11, 266112, Note_off_c, 9, 31, 64
11, 266112, Note_on_c, 9, 31, 96
11, 266112, Note_on_c, 9, 44, 110
11, 266208, Note_off_c, 9, 44, 64
11, 266208, Note_off_c, 9, 31, 64
11, 266400, Note_on_c, 9, 31, 64
11, 266496, Note_off_c, 9, 31, 64
11, 266496, Note_on_c, 9, 31, 96
11, 266496, Note_on_c, 9, 38, 110
11, 266496, Note_on_c, 9, 36, 110
11, 266496, Note_on_c, 9, 35, 110
11, 266496, Note_on_c, 9, 40, 110
11, 266496, Note_on_c, 9, 44, 110
11, 266592, Note_off_c, 9, 44, 64
11, 266592, Note_off_c, 9, 31, 64
11, 266688, Note_off_c, 9, 40, 64
11, 266688, Note_off_c, 9, 35, 64
11, 266688, Note_off_c, 9, 36, 64
11, 266688, Note_off_c, 9, 38, 64
11, 266784, Note_on_c, 9, 31, 64
11, 266880, Note_off_c, 9, 31, 64
11, 266880, Note_on_c, 9, 31, 96
11, 266880, Note_on_c, 9, 46, 110
11, 266976, Note_off_c, 9, 31, 64
11, 267168, Note_on_c, 9, 31, 64
11, 267264, Note_off_c, 9, 31, 64
11, 267264, Note_off_c, 9, 46, 64
11, 267264, Note_on_c, 9, 31, 96
11, 267264, Note_on_c, 9, 36, 110
11, 267264, Note_on_c, 9, 35, 110
11, 267264, Note_on_c, 9, 44, 110
11, 267360, Note_off_c, 9, 44, 64
11, 267360, Note_off_c, 9, 31, 64
11, 267456, Note_off_c, 9, 35, 64
11, 267456, Note_off_c, 9, 36, 64
11, 267552, Note_on_c, 9, 31, 64
11, 267648, Note_off_c, 9, 31, 64
11, 267648, Note_on_c, 9, 31, 96
11, 267648, Note_on_c, 9, 44, 110
11, 267744, Note_off_c, 9, 44, 64
11, 267744, Note_off_c, 9, 31, 64
11, 267936, Note_on_c, 9, 31, 64
11, 268032, Note_off_c, 9, 31, 64
11, 268032, Note_on_c, 9, 31, 96
11, 268032, Note_on_c, 9, 38, 110
11, 268032, Note_on_c, 9, 36, 110
11, 268032, Note_on_c, 9, 35, 110
11, 268032, Note_on_c, 9, 40, 110
11, 268032, Note_on_c, 9, 44, 110
11, 268128, Note_off_c, 9, 44, 64
11, 268128, Note_off_c, 9, 31, 64
11, 268224, Note_off_c, 9, 40, 64
11, 268224, Note_off_c, 9, 35, 64
11, 268224, Note_off_c, 9, 36, 64
11, 268224, Note_off_c, 9, 38, 64
11, 268320, Note_on_c, 9, 31, 64
11, 268416, Note_off_c, 9, 31, 64
11, 268416, Note_on_c, 9, 31, 96
11, 268416, Note_on_c, 9, 44, 110
11, 268512, Note_off_c, 9, 44, 64
11, 268512, Note_off_c, 9, 31, 64
11, 268704, Note_on_c, 9, 31, 64
11, 268800, Note_off_c, 9, 31, 64
11, 268800, Note_on_c, 9, 38, 64
11, 268800, Note_on_c, 9, 40, 64
11, 268800, Note_on_c, 9, 31, 96
11, 268800, Note_on_c, 9, 36, 110
11, 268800, Note_on_c, 9, 35, 110
11, 268800, Note_on_c, 9, 44, 110
11, 268896, Note_off_c, 9, 44, 64
11, 268896, Note_off_c, 9, 31, 64
11, 268992, Note_off_c, 9, 35, 64
11, 268992, Note_off_c, 9, 36, 64
11, 268992, Note_off_c, 9, 40, 64
11, 268992, Note_off_c, 9, 38, 64
11, 269088, Note_on_c, 9, 38, 64
11, 269088, Note_on_c, 9, 40, 64
11, 269088, Note_on_c, 9, 31, 64
11, 269184, Note_off_c, 9, 31, 64
11, 269184, Note_on_c, 9, 31, 96
11, 269184, Note_on_c, 9, 44, 110
11, 269280, Note_off_c, 9, 44, 64
11, 269280, Note_off_c, 9, 31, 64
11, 269280, Note_off_c, 9, 40, 64
11, 269280, Note_off_c, 9, 38, 64
11, 269472, Note_on_c, 9, 38, 64
11, 269472, Note_on_c, 9, 40, 64
11, 269472, Note_on_c, 9, 31, 64
11, 269568, Note_off_c, 9, 31, 64
11, 269568, Note_off_c, 9, 40, 64
11, 269568, Note_off_c, 9, 38, 64
11, 269568, Note_on_c, 9, 38, 110
11, 269568, Note_on_c, 9, 40, 110
11, 269568, Note_on_c, 9, 31, 96
11, 269568, Note_on_c, 9, 36, 110
11, 269568, Note_on_c, 9, 35, 110
11, 269568, Note_on_c, 9, 44, 110
11, 269664, Note_off_c, 9, 44, 64
11, 269664, Note_off_c, 9, 31, 64
11, 269760, Note_off_c, 9, 35, 64
11, 269760, Note_off_c, 9, 36, 64
11, 269760, Note_off_c, 9, 40, 64
11, 269760, Note_off_c, 9, 38, 64
11, 269856, Note_on_c, 9, 38, 64
11, 269856, Note_on_c, 9, 40, 64
11, 269856, Note_on_c, 9, 31, 64
11, 269952, Note_off_c, 9, 31, 64
11, 269952, Note_off_c, 9, 40, 64
11, 269952, Note_off_c, 9, 38, 64
11, 269952, Note_on_c, 9, 38, 64
11, 269952, Note_on_c, 9, 40, 64
11, 269952, Note_on_c, 9, 31, 96
11, 269952, Note_on_c, 9, 46, 110
11, 270048, Note_off_c, 9, 31, 64
11, 270144, Note_off_c, 9, 40, 64
11, 270144, Note_off_c, 9, 38, 64
11, 270240, Note_on_c, 9, 31, 64
11, 270336, Note_off_c, 9, 31, 64
11, 270336, Note_off_c, 9, 46, 64
11, 270336, Control_c, 9, 7, 100
11, 270336, Program_c, 9, 9
11, 270336, Note_on_c, 9, 31, 96
11, 270336, Note_on_c, 9, 36, 110
11, 270336, Note_on_c, 9, 35, 110
11, 270336, Note_on_c, 9, 44, 110
11, 270432, Note_off_c, 9, 44, 64
11, 270432, Note_off_c, 9, 31, 64
11, 270528, Note_off_c, 9, 35, 64
11, 270528, Note_off_c, 9, 36, 64
11, 270624, Note_on_c, 9, 31, 64
11, 270720, Note_off_c, 9, 31, 64
11, 270720, Note_on_c, 9, 31, 96
11, 270720, Note_on_c, 9, 44, 110
11, 270816, Note_off_c, 9, 44, 64
11, 270816, Note_off_c, 9, 31, 64
11, 271008, Note_on_c, 9, 31, 64
11, 271104, Note_off_c, 9, 31, 64
11, 271104, Note_on_c, 9, 31, 96
11, 271104, Note_on_c, 9, 38, 110
11, 271104, Note_on_c, 9, 36, 110
11, 271104, Note_on_c, 9, 35, 110
11, 271104, Note_on_c, 9, 40, 110
11, 271104, Note_on_c, 9, 44, 110
11, 271200, Note_off_c, 9, 44, 64
11, 271200, Note_off_c, 9, 31, 64
11, 271296, Note_off_c, 9, 40, 64
11, 271296, Note_off_c, 9, 35, 64
11, 271296, Note_off_c, 9, 36, 64
11, 271296, Note_off_c, 9, 38, 64
11, 271392, Note_on_c, 9, 31, 64
11, 271488, Note_off_c, 9, 31, 64
11, 271488, Note_on_c, 9, 31, 96
11, 271488, Note_on_c, 9, 44, 110
11, 271584, Note_off_c, 9, 44, 64
11, 271584, Note_off_c, 9, 31, 64
11, 271776, Note_on_c, 9, 31, 64
11, 271872, Note_off_c, 9, 31, 64
11, 271872, Note_on_c, 9, 31, 96
11, 271872, Note_on_c, 9, 36, 110
11, 271872, Note_on_c, 9, 35, 110
11, 271872, Note_on_c, 9, 44, 110
11, 271968, Note_off_c, 9, 44, 64
11, 271968, Note_off_c, 9, 31, 64
11, 272064, Note_off_c, 9, 35, 64
11, 272064, Note_off_c, 9, 36, 64
11, 272160, Note_on_c, 9, 31, 64
11, 272256, Note_off_c, 9, 31, 64
11, 272256, Note_on_c, 9, 31, 96
11, 272256, Note_on_c, 9, 44, 110
11, 272352, Note_off_c, 9, 44, 64
11, 272352, Note_off_c, 9, 31, 64
11, 272544, Note_on_c, 9, 31, 64
11, 272640, Note_off_c, 9, 31, 64
11, 272640, Note_on_c, 9, 31, 96
11, 272640, Note_on_c, 9, 38, 110
11, 272640, Note_on_c, 9, 36, 110
11, 272640, Note_on_c, 9, 35, 110
11, 272640, Note_on_c, 9, 40, 110
11, 272640, Note_on_c, 9, 44, 110
11, 272736, Note_off_c, 9, 44, 64
11, 272736, Note_off_c, 9, 31, 64
11, 272832, Note_off_c, 9, 40, 64
11, 272832, Note_off_c, 9, 35, 64
11, 272832, Note_off_c, 9, 36, 64
11, 272832, Note_off_c, 9, 38, 64
11, 272928, Note_on_c, 9, 31, 64
11, 273024, Note_off_c, 9, 31, 64
11, 273024, Note_on_c, 9, 31, 96
11, 273024, Note_on_c, 9, 46, 110
11, 273120, Note_off_c, 9, 31, 64
11, 273312, Note_on_c, 9, 31, 64
11, 273408, Note_off_c, 9, 31, 64
11, 273408, Note_off_c, 9, 46, 64
11, 273408, Control_c, 9, 7, 100
11, 273408, Program_c, 9, 9
11, 273408, Note_on_c, 9, 31, 96
11, 273408, Note_on_c, 9, 36, 110
11, 273408, Note_on_c, 9, 35, 110
11, 273408, Note_on_c, 9, 44, 110
11, 273504, Note_off_c, 9, 44, 64
11, 273504, Note_off_c, 9, 31, 64
11, 273600, Note_off_c, 9, 35, 64
11, 273600, Note_off_c, 9, 36, 64
11, 273696, Note_on_c, 9, 31, 64
11, 273792, Note_off_c, 9, 31, 64
11, 273792, Note_on_c, 9, 31, 96
11, 273792, Note_on_c, 9, 44, 110
11, 273888, Note_off_c, 9, 44, 64
11, 273888, Note_off_c, 9, 31, 64
11, 274080, Note_on_c, 9, 31, 64
11, 274176, Note_off_c, 9, 31, 64
11, 274176, Note_on_c, 9, 31, 96
11, 274176, Note_on_c, 9, 38, 110
11, 274176, Note_on_c, 9, 36, 110
11, 274176, Note_on_c, 9, 35, 110
11, 274176, Note_on_c, 9, 40, 110
11, 274176, Note_on_c, 9, 44, 110
11, 274272, Note_off_c, 9, 44, 64
11, 274272, Note_off_c, 9, 31, 64
11, 274368, Note_off_c, 9, 40, 64
11, 274368, Note_off_c, 9, 35, 64
11, 274368, Note_off_c, 9, 36, 64
11, 274368, Note_off_c, 9, 38, 64
11, 274464, Note_on_c, 9, 31, 64
11, 274560, Note_off_c, 9, 31, 64
11, 274560, Note_on_c, 9, 31, 96
11, 274560, Note_on_c, 9, 44, 110
11, 274656, Note_off_c, 9, 44, 64
11, 274656, Note_off_c, 9, 31, 64
11, 274848, Note_on_c, 9, 31, 64
11, 274944, Note_off_c, 9, 31, 64
11, 274944, Note_on_c, 9, 38, 64
11, 274944, Note_on_c, 9, 40, 64
11, 274944, Note_on_c, 9, 31, 96
11, 274944, Note_on_c, 9, 36, 110
11, 274944, Note_on_c, 9, 35, 110
11, 274944, Note_on_c, 9, 44, 110
11, 275040, Note_off_c, 9, 44, 64
11, 275040, Note_off_c, 9, 31, 64
11, 275136, Note_off_c, 9, 35, 64
11, 275136, Note_off_c, 9, 36, 64
11, 275136, Note_off_c, 9, 40, 64
11, 275136, Note_off_c, 9, 38, 64
11, 275232, Note_on_c, 9, 38, 64
11, 275232, Note_on_c, 9, 40, 64
11, 275232, Note_on_c, 9, 31, 64
11, 275328, Note_off_c, 9, 31, 64
11, 275328, Note_on_c, 9, 31, 96
11, 275328, Note_on_c, 9, 44, 110
11, 275424, Note_off_c, 9, 44, 64
11, 275424, Note_off_c, 9, 31, 64
11, 275424, Note_off_c, 9, 40, 64
11, 275424, Note_off_c, 9, 38, 64
11, 275616, Note_on_c, 9, 38, 64
11, 275616, Note_on_c, 9, 40, 64
11, 275616, Note_on_c, 9, 31, 64
11, 275712, Note_off_c, 9, 31, 64
11, 275712, Note_off_c, 9, 40, 64
11, 275712, Note_off_c, 9, 38, 64
11, 275712, Note_on_c, 9, 38, 110
11, 275712, Note_on_c, 9, 40, 110
11, 275712, Note_on_c, 9, 31, 96
11, 275712, Note_on_c, 9, 36, 110
11, 275712, Note_on_c, 9, 35, 110
11, 275712, Note_on_c, 9, 44, 110
11, 275808, Note_off_c, 9, 44, 64
11, 275808, Note_off_c, 9, 31, 64
11, 275904, Note_off_c, 9, 35, 64
11, 275904, Note_off_c, 9, 36, 64
11, 275904, Note_off_c, 9, 40, 64
11, 275904, Note_off_c, 9, 38, 64
11, 276000, Note_on_c, 9, 38, 64
11, 276000, Note_on_c, 9, 40, 64
11, 276000, Note_on_c, 9, 31, 64
11, 276096, Note_off_c, 9, 31, 64
11, 276096, Note_off_c, 9, 40, 64
11, 276096, Note_off_c, 9, 38, 64
11, 276096, Note_on_c, 9, 38, 64
11, 276096, Note_on_c, 9, 40, 64
11, 276096, Note_on_c, 9, 31, 96
11, 276096, Note_on_c, 9, 46, 110
11, 276192, Note_off_c, 9, 31, 64
11, 276288, Note_off_c, 9, 40, 64
11, 276288, Note_off_c, 9, 38, 64
11, 276384, Note_on_c, 9, 31, 64
11, 276480, Note_off_c, 9, 31, 64
11, 276480, Note_off_c, 9, 46, 64
11, 276480, Control_c, 9, 7, 100
11, 276480, Program_c, 9, 9
11, 276480, Note_on_c, 9, 31, 96
11, 276480, Note_on_c, 9, 36, 110
11, 276480, Note_on_c, 9, 35, 110
11, 276480, Note_on_c, 9, 44, 110
11, 276576, Note_off_c, 9, 44, 64
11, 276576, Note_off_c, 9, 31, 64
11, 276672, Note_off_c, 9, 35, 64
11, 276672, Note_off_c, 9, 36, 64
11, 276768, Note_on_c, 9, 31, 64
11, 276864, Note_off_c, 9, 31, 64
11, 276864, Note_on_c, 9, 31, 96
11, 276864, Note_on_c, 9, 44, 110
11, 276960, Note_off_c, 9, 44, 64
11, 276960, Note_off_c, 9, 31, 64
11, 277152, Note_on_c, 9, 31, 64
11, 277248, Note_off_c, 9, 31, 64
11, 277248, Note_on_c, 9, 31, 96
11, 277248, Note_on_c, 9, 38, 110
11, 277248, Note_on_c, 9, 36, 110
11, 277248, Note_on_c, 9, 35, 110
11, 277248, Note_on_c, 9, 40, 110
11, 277248, Note_on_c, 9, 44, 110
11, 277344, Note_off_c, 9, 44, 64
11, 277344, Note_off_c, 9, 31, 64
11, 277440, Note_off_c, 9, 40, 64
11, 277440, Note_off_c, 9, 35, 64
11, 277440, Note_off_c, 9, 36, 64
11, 277440, Note_off_c, 9, 38, 64
11, 277536, Note_on_c, 9, 31, 64
11, 277632, Note_off_c, 9, 31, 64
11, 277632, Note_on_c, 9, 31, 96
11, 277632, Note_on_c, 9, 44, 110
11, 277728, Note_off_c, 9, 44, 64
11, 277728, Note_off_c, 9, 31, 64
11, 277920, Note_on_c, 9, 31, 64
11, 278016, Note_off_c, 9, 31, 64
11, 278016, Note_on_c, 9, 31, 96
11, 278016, Note_on_c, 9, 36, 110
11, 278016, Note_on_c, 9, 35, 110
11, 278016, Note_on_c, 9, 44, 110
11, 278112, Note_off_c, 9, 44, 64
11, 278112, Note_off_c, 9, 31, 64
11, 278208, Note_off_c, 9, 35, 64
11, 278208, Note_off_c, 9, 36, 64
11, 278304, Note_on_c, 9, 31, 64
11, 278400, Note_off_c, 9, 31, 64
11, 278400, Note_on_c, 9, 31, 96
11, 278400, Note_on_c, 9, 44, 110
11, 278496, Note_off_c, 9, 44, 64
11, 278496, Note_off_c, 9, 31, 64
11, 278688, Note_on_c, 9, 31, 64
11, 278784, Note_off_c, 9, 31, 64
11, 278784, Note_on_c, 9, 31, 96
11, 278784, Note_on_c, 9, 38, 110
11, 278784, Note_on_c, 9, 36, 110
11, 278784, Note_on_c, 9, 35, 110
11, 278784, Note_on_c, 9, 40, 110
11, 278784, Note_on_c, 9, 44, 110
11, 278880, Note_off_c, 9, 44, 64
11, 278880, Note_off_c, 9, 31, 64
11, 278976, Note_off_c, 9, 40, 64
11, 278976, Note_off_c, 9, 35, 64
11, 278976, Note_off_c, 9, 36, 64
11, 278976, Note_off_c, 9, 38, 64
11, 279072, Note_on_c, 9, 31, 64
11, 279168, Note_off_c, 9, 31, 64
11, 279168, Note_on_c, 9, 31, 96
11, 279168, Note_on_c, 9, 46, 110
11, 279264, Note_off_c, 9, 31, 64
11, 279456, Note_on_c, 9, 31, 64
11, 279552, Note_off_c, 9, 31, 64
11, 279552, Note_off_c, 9, 46, 64
11, 279552, Note_on_c, 9, 31, 96
11, 279552, Note_on_c, 9, 36, 110
11, 279552, Note_on_c, 9, 35, 110
11, 279552, Note_on_c, 9, 44, 110
11, 279648, Note_off_c, 9, 44, 64
11, 279648, Note_off_c, 9, 31, 64
11, 279744, Note_off_c, 9, 35, 64
11, 279744, Note_off_c, 9, 36, 64
11, 279840, Note_on_c, 9, 31, 64
11, 279936, Note_off_c, 9, 31, 64
11, 279936, Note_on_c, 9, 31, 96
11, 279936, Note_on_c, 9, 44, 110
11, 280032, Note_off_c, 9, 44, 64
11, 280032, Note_off_c, 9, 31, 64
11, 280224, Note_on_c, 9, 31, 64
11, 280320, Note_off_c, 9, 31, 64
11, 280320, Note_on_c, 9, 31, 96
11, 280320, Note_on_c, 9, 38, 110
11, 280320, Note_on_c, 9, 36, 110
11, 280320, Note_on_c, 9, 35, 110
11, 280320, Note_on_c, 9, 40, 110
11, 280320, Note_on_c, 9, 44, 110
11, 280416, Note_off_c, 9, 44, 64
11, 280416, Note_off_c, 9, 31, 64
11, 280512, Note_off_c, 9, 40, 64
11, 280512, Note_off_c, 9, 35, 64
11, 280512, Note_off_c, 9, 36, 64
11, 280512, Note_off_c, 9, 38, 64
11, 280608, Note_on_c, 9, 31, 64
11, 280704, Note_off_c, 9, 31, 64
11, 280704, Note_on_c, 9, 31, 96
11, 280704, Note_on_c, 9, 44, 110
11, 280800, Note_off_c, 9, 44, 64
11, 280800, Note_off_c, 9, 31, 64
11, 280992, Note_on_c, 9, 31, 64
11, 281088, Note_off_c, 9, 31, 64
11, 281088, Note_on_c, 9, 31, 96
11, 281088, Note_on_c, 9, 36, 110
11, 281088, Note_on_c, 9, 35, 110
11, 281088, Note_on_c, 9, 44, 110
11, 281184, Note_off_c, 9, 44, 64
11, 281184, Note_off_c, 9, 31, 64
11, 281280, Note_off_c, 9, 35, 64
11, 281280, Note_off_c, 9, 36, 64
11, 281376, Note_on_c, 9, 31, 64
11, 281472, Note_off_c, 9, 31, 64
11, 281472, Note_on_c, 9, 31, 96
11, 281472, Note_on_c, 9, 44, 110
11, 281568, Note_off_c, 9, 44, 64
11, 281568, Note_off_c, 9, 31, 64
11, 281760, Note_on_c, 9, 31, 64
11, 281856, Note_off_c, 9, 31, 64
11, 281856, Note_on_c, 9, 31, 96
11, 281856, Note_on_c, 9, 38, 110
11, 281856, Note_on_c, 9, 36, 110
11, 281856, Note_on_c, 9, 35, 110
11, 281856, Note_on_c, 9, 40, 110
11, 281856, Note_on_c, 9, 44, 110
11, 281952, Note_off_c, 9, 44, 64
11, 281952, Note_off_c, 9, 31, 64
11, 282048, Note_off_c, 9, 40, 64
11, 282048, Note_off_c, 9, 35, 64
11, 282048, Note_off_c, 9, 36, 64
11, 282048, Note_off_c, 9, 38, 64
11, 282144, Note_on_c, 9, 31, 64
11, 282240, Note_off_c, 9, 31, 64
11, 282240, Note_on_c, 9, 31, 96
11, 282240, Note_on_c, 9, 46, 110
11, 282336, Note_off_c, 9, 31, 64
11, 282528, Note_on_c, 9, 31, 64
11, 282624, Note_off_c, 9, 31, 64
11, 282624, Note_off_c, 9, 46, 64
11, 282624, Control_c, 9, 7, 100
11, 282624, Program_c, 9, 9
11, 282624, Note_on_c, 9, 31, 96
11, 282624, Note_on_c, 9, 36, 110
11, 282624, Note_on_c, 9, 35, 110
11, 282624, Note_on_c, 9, 44, 110
11, 282720, Note_off_c, 9, 44, 64
11, 282720, Note_off_c, 9, 31, 64
11, 282816, Note_off_c, 9, 35, 64
11, 282816, Note_off_c, 9, 36, 64
11, 282912, Note_on_c, 9, 31, 64
11, 283008, Note_off_c, 9, 31, 64
11, 283008, Note_on_c, 9, 31, 96
11, 283008, Note_on_c, 9, 44, 110
11, 283104, Note_off_c, 9, 44, 64
11, 283104, Note_off_c, 9, 31, 64
11, 283296, Note_on_c, 9, 31, 64
11, 283392, Note_off_c, 9, 31, 64
11, 283392, Note_on_c, 9, 31, 96
11, 283392, Note_on_c, 9, 38, 110
11, 283392, Note_on_c, 9, 36, 110
11, 283392, Note_on_c, 9, 35, 110
11, 283392, Note_on_c, 9, 40, 110
11, 283392, Note_on_c, 9, 44, 110
11, 283488, Note_off_c, 9, 44, 64
11, 283488, Note_off_c, 9, 31, 64
11, 283584, Note_off_c, 9, 40, 64
11, 283584, Note_off_c, 9, 35, 64
11, 283584, Note_off_c, 9, 36, 64
11, 283584, Note_off_c, 9, 38, 64
11, 283680, Note_on_c, 9, 31, 64
11, 283776, Note_off_c, 9, 31, 64
11, 283776, Note_on_c, 9, 31, 96
11, 283776, Note_on_c, 9, 44, 110
11, 283872, Note_off_c, 9, 44, 64
11, 283872, Note_off_c, 9, 31, 64
11, 284064, Note_on_c, 9, 31, 64
11, 284160, Note_off_c, 9, 31, 64
11, 284160, Note_on_c, 9, 38, 64
11, 284160, Note_on_c, 9, 40, 64
11, 284160, Note_on_c, 9, 31, 96
11, 284160, Note_on_c, 9, 36, 110
11, 284160, Note_on_c, 9, 35, 110
11, 284160, Note_on_c, 9, 44, 110
11, 284256, Note_off_c, 9, 44, 64
11, 284256, Note_off_c, 9, 31, 64
11, 284352, Note_off_c, 9, 35, 64
11, 284352, Note_off_c, 9, 36, 64
11, 284352, Note_off_c, 9, 40, 64
11, 284352, Note_off_c, 9, 38, 64
11, 284448, Note_on_c, 9, 38, 64
11, 284448, Note_on_c, 9, 40, 64
11, 284448, Note_on_c, 9, 31, 64
11, 284544, Note_off_c, 9, 31, 64
11, 284544, Note_on_c, 9, 31, 96
11, 284544, Note_on_c, 9, 44, 110
11, 284640, Note_off_c, 9, 44, 64
11, 284640, Note_off_c, 9, 31, 64
11, 284640, Note_off_c, 9, 40, 64
11, 284640, Note_off_c, 9, 38, 64
11, 284832, Note_on_c, 9, 38, 64
11, 284832, Note_on_c, 9, 40, 64
11, 284832, Note_on_c, 9, 31, 64
11, 284928, Note_off_c, 9, 31, 64
11, 284928, Note_off_c, 9, 40, 64
11, 284928, Note_off_c, 9, 38, 64
11, 284928, Note_on_c, 9, 38, 110
11, 284928, Note_on_c, 9, 40, 110
11, 284928, Note_on_c, 9, 31, 96
11, 284928, Note_on_c, 9, 36, 110
11, 284928, Note_on_c, 9, 35, 110
11, 284928, Note_on_c, 9, 44, 110
11, 285024, Note_off_c, 9, 44, 64
11, 285024, Note_off_c, 9, 31, 64
11, 285120, Note_off_c, 9, 35, 64
11, 285120, Note_off_c, 9, 36, 64
11, 285120, Note_off_c, 9, 40, 64
11, 285120, Note_off_c, 9, 38, 64
11, 285216, Note_on_c, 9, 38, 64
11, 285216, Note_on_c, 9, 40, 64
11, 285216, Note_on_c, 9, 31, 64
11, 285312, Note_off_c, 9, 31, 64
11, 285312, Note_off_c, 9, 40, 64
11, 285312, Note_off_c, 9, 38, 64
11, 285312, Note_on_c, 9, 38, 64
11, 285312, Note_on_c, 9, 40, 64
11, 285312, Note_on_c, 9, 31, 96
11, 285312, Note_on_c, 9, 46, 110
11, 285408, Note_off_c, 9, 31, 64
11, 285504, Note_off_c, 9, 40, 64
11, 285504, Note_off_c, 9, 38, 64
11, 285600, Note_on_c, 9, 31, 64
11, 285696, Note_off_c, 9, 31, 64
11, 285696, Note_off_c, 9, 46, 64
11, 285696, Control_c, 9, 7, 100
11, 285696, Program_c, 9, 9
11, 285696, Note_on_c, 9, 31, 96
11, 285696, Note_on_c, 9, 36, 110
11, 285696, Note_on_c, 9, 35, 110
11, 285696, Note_on_c, 9, 44, 110
11, 285792, Note_off_c, 9, 44, 64
11, 285792, Note_off_c, 9, 31, 64
11, 285888, Note_off_c, 9, 35, 64
11, 285888, Note_off_c, 9, 36, 64
11, 285984, Note_on_c, 9, 31, 64
11, 286080, Note_off_c, 9, 31, 64
11, 286080, Note_on_c, 9, 31, 96
11, 286080, Note_on_c, 9, 44, 110
11, 286176, Note_off_c, 9, 44, 64
11, 286176, Note_off_c, 9, 31, 64
11, 286368, Note_on_c, 9, 31, 64
11, 286464, Note_off_c, 9, 31, 64
11, 286464, Note_on_c, 9, 31, 96
11, 286464, Note_on_c, 9, 38, 110
11, 286464, Note_on_c, 9, 36, 110
11, 286464, Note_on_c, 9, 35, 110
11, 286464, Note_on_c, 9, 40, 110
11, 286464, Note_on_c, 9, 44, 110
11, 286560, Note_off_c, 9, 44, 64
11, 286560, Note_off_c, 9, 31, 64
11, 286656, Note_off_c, 9, 40, 64
11, 286656, Note_off_c, 9, 35, 64
11, 286656, Note_off_c, 9, 36, 64
11, 286656, Note_off_c, 9, 38, 64
11, 286752, Note_on_c, 9, 31, 64
11, 286848, Note_off_c, 9, 31, 64
11, 286848, Note_on_c, 9, 31, 96
11, 286848, Note_on_c, 9, 44, 110
11, 286944, Note_off_c, 9, 44, 64
11, 286944, Note_off_c, 9, 31, 64
11, 287136, Note_on_c, 9, 31, 64
11, 287232, Note_off_c, 9, 31, 64
11, 287232, Note_on_c, 9, 31, 96
11, 287232, Note_on_c, 9, 36, 110
11, 287232, Note_on_c, 9, 35, 110
11, 287232, Note_on_c, 9, 44, 110
11, 287328, Note_off_c, 9, 44, 64
11, 287328, Note_off_c, 9, 31, 64
11, 287424, Note_off_c, 9, 35, 64
11, 287424, Note_off_c, 9, 36, 64
11, 287520, Note_on_c, 9, 31, 64
11, 287616, Note_off_c, 9, 31, 64
11, 287616, Note_on_c, 9, 31, 96
11, 287616, Note_on_c, 9, 44, 110
11, 287712, Note_off_c, 9, 44, 64
11, 287712, Note_off_c, 9, 31, 64
11, 287904, Note_on_c, 9, 31, 64
11, 288000, Note_off_c, 9, 31, 64
11, 288000, Note_on_c, 9, 31, 96
11, 288000, Note_on_c, 9, 38, 110
11, 288000, Note_on_c, 9, 36, 110
11, 288000, Note_on_c, 9, 35, 110
11, 288000, Note_on_c, 9, 40, 110
11, 288000, Note_on_c, 9, 44, 110
11, 288096, Note_off_c, 9, 44, 64
11, 288096, Note_off_c, 9, 31, 64
11, 288192, Note_off_c, 9, 40, 64
11, 288192, Note_off_c, 9, 35, 64
11, 288192, Note_off_c, 9, 36, 64
11, 288192, Note_off_c, 9, 38, 64
11, 288288, Note_on_c, 9, 31, 64
11, 288384, Note_off_c, 9, 31, 64
11, 288384, Note_on_c, 9, 31, 96
11, 288384, Note_on_c, 9, 46, 110
11, 288480, Note_off_c, 9, 31, 64
11, 288672, Note_on_c, 9, 31, 64
11, 288768, Note_off_c, 9, 31, 64
11, 288768, Note_off_c, 9, 46, 64
11, 288768, Control_c, 9, 7, 100
11, 288768, Program_c, 9, 9
11, 288768, Note_on_c, 9, 31, 96
11, 288768, Note_on_c, 9, 36, 110
11, 288768, Note_on_c, 9, 35, 110
11, 288768, Note_on_c, 9, 44, 110
11, 288864, Note_off_c, 9, 44, 64
11, 288864, Note_off_c, 9, 31, 64
11, 288960, Note_off_c, 9, 35, 64
11, 288960, Note_off_c, 9, 36, 64
11, 289056, Note_on_c, 9, 31, 64
11, 289152, Note_off_c, 9, 31, 64
11, 289152, Note_on_c, 9, 31, 96
11, 289152, Note_on_c, 9, 44, 110
11, 289248, Note_off_c, 9, 44, 64
11, 289248, Note_off_c, 9, 31, 64
11, 289440, Note_on_c, 9, 31, 64
11, 289536, Note_off_c, 9, 31, 64
11, 289536, Note_on_c, 9, 31, 96
11, 289536, Note_on_c, 9, 38, 110
11, 289536, Note_on_c, 9, 36, 110
11, 289536, Note_on_c, 9, 35, 110
11, 289536, Note_on_c, 9, 40, 110
11, 289536, Note_on_c, 9, 44, 110
11, 289632, Note_off_c, 9, 44, 64
11, 289632, Note_off_c, 9, 31, 64
11, 289728, Note_off_c, 9, 40, 64
11, 289728, Note_off_c, 9, 35, 64
11, 289728, Note_off_c, 9, 36, 64
11, 289728, Note_off_c, 9, 38, 64
11, 289824, Note_on_c, 9, 31, 64
11, 289920, Note_off_c, 9, 31, 64
11, 289920, Note_on_c, 9, 31, 96
11, 289920, Note_on_c, 9, 44, 110
11, 290016, Note_off_c, 9, 44, 64
11, 290016, Note_off_c, 9, 31, 64
11, 290208, Note_on_c, 9, 31, 64
11, 290304, Note_off_c, 9, 31, 64
11, 290304, Note_on_c, 9, 31, 96
11, 290304, Note_on_c, 9, 36, 110
11, 290304, Note_on_c, 9, 35, 110
11, 290304, Note_on_c, 9, 44, 110
11, 290400, Note_off_c, 9, 44, 64
11, 290400, Note_off_c, 9, 31, 64
11, 290496, Note_off_c, 9, 35, 64
11, 290496, Note_off_c, 9, 36, 64
11, 290592, Note_on_c, 9, 31, 64
11, 290688, Note_off_c, 9, 31, 64
11, 290688, Note_on_c, 9, 31, 96
11, 290688, Note_on_c, 9, 44, 110
11, 290784, Note_off_c, 9, 44, 64
11, 290784, Note_off_c, 9, 31, 64
11, 290976, Note_on_c, 9, 31, 64
11, 291072, Note_off_c, 9, 31, 64
11, 291072, Note_on_c, 9, 31, 96
11, 291072, Note_on_c, 9, 38, 110
11, 291072, Note_on_c, 9, 36, 110
11, 291072, Note_on_c, 9, 35, 110
11, 291072, Note_on_c, 9, 40, 110
11, 291072, Note_on_c, 9, 44, 110
11, 291168, Note_off_c, 9, 44, 64
11, 291168, Note_off_c, 9, 31, 64
11, 291264, Note_off_c, 9, 40, 64
11, 291264, Note_off_c, 9, 35, 64
11, 291264, Note_off_c, 9, 36, 64
11, 291264, Note_off_c, 9, 38, 64
11, 291360, Note_on_c, 9, 31, 64
11, 291456, Note_off_c, 9, 31, 64
11, 291456, Note_on_c, 9, 31, 96
11, 291456, Note_on_c, 9, 46, 110
11, 291552, Note_off_c, 9, 31, 64
11, 291744, Note_on_c, 9, 31, 64
11, 291840, Note_off_c, 9, 31, 64
11, 291840, Note_off_c, 9, 46, 64
11, 291840, Control_c, 9, 7, 100
11, 291840, Program_c, 9, 9
11, 291840, Note_on_c, 9, 31, 96
11, 291840, Note_on_c, 9, 36, 110
11, 291840, Note_on_c, 9, 35, 110
11, 291840, Note_on_c, 9, 44, 110
11, 291936, Note_off_c, 9, 44, 64
11, 291936, Note_off_c, 9, 31, 64
11, 292032, Note_off_c, 9, 35, 64
11, 292032, Note_off_c, 9, 36, 64
11, 292128, Note_on_c, 9, 31, 64
11, 292224, Note_off_c, 9, 31, 64
11, 292224, Note_on_c, 9, 31, 96
11, 292224, Note_on_c, 9, 44, 110
11, 292320, Note_off_c, 9, 44, 64
11, 292320, Note_off_c, 9, 31, 64
11, 292512, Note_on_c, 9, 31, 64
11, 292608, Note_off_c, 9, 31, 64
11, 292608, Note_on_c, 9, 31, 96
11, 292608, Note_on_c, 9, 38, 110
11, 292608, Note_on_c, 9, 36, 110
11, 292608, Note_on_c, 9, 35, 110
11, 292608, Note_on_c, 9, 40, 110
11, 292608, Note_on_c, 9, 44, 110
11, 292704, Note_off_c, 9, 44, 64
11, 292704, Note_off_c, 9, 31, 64
11, 292800, Note_off_c, 9, 40, 64
11, 292800, Note_off_c, 9, 35, 64
11, 292800, Note_off_c, 9, 36, 64
11, 292800, Note_off_c, 9, 38, 64
11, 292896, Note_on_c, 9, 31, 64
11, 292992, Note_off_c, 9, 31, 64
11, 292992, Note_on_c, 9, 31, 96
11, 292992, Note_on_c, 9, 44, 110
11, 293088, Note_off_c, 9, 44, 64
11, 293088, Note_off_c, 9, 31, 64
11, 293280, Note_on_c, 9, 31, 64
11, 293376, Note_off_c, 9, 31, 64
11, 293376, Note_on_c, 9, 38, 64
11, 293376, Note_on_c, 9, 40, 64
11, 293376, Note_on_c, 9, 31, 96
11, 293376, Note_on_c, 9, 36, 110
11, 293376, Note_on_c, 9, 35, 110
11, 293376, Note_on_c, 9, 44, 110
11, 293472, Note_off_c, 9, 44, 64
11, 293472, Note_off_c, 9, 31, 64
11, 293568, Note_off_c, 9, 35, 64
11, 293568, Note_off_c, 9, 36, 64
11, 293568, Note_off_c, 9, 40, 64
11, 293568, Note_off_c, 9, 38, 64
11, 293664, Note_on_c, 9, 38, 64
11, 293664, Note_on_c, 9, 40, 64
11, 293664, Note_on_c, 9, 31, 64
11, 293760, Note_off_c, 9, 31, 64
11, 293760, Note_on_c, 9, 31, 96
11, 293760, Note_on_c, 9, 44, 110
11, 293856, Note_off_c, 9, 44, 64
11, 293856, Note_off_c, 9, 31, 64
11, 293856, Note_off_c, 9, 40, 64
11, 293856, Note_off_c, 9, 38, 64
11, 294048, Note_on_c, 9, 38, 64
11, 294048, Note_on_c, 9, 40, 64
11, 294048, Note_on_c, 9, 31, 64
11, 294144, Note_off_c, 9, 31, 64
11, 294144, Note_off_c, 9, 40, 64
11, 294144, Note_off_c, 9, 38, 64
11, 294144, Note_on_c, 9, 38, 110
11, 294144, Note_on_c, 9, 40, 110
11, 294144, Note_on_c, 9, 31, 96
11, 294144, Note_on_c, 9, 36, 110
11, 294144, Note_on_c, 9, 35, 110
11, 294144, Note_on_c, 9, 44, 110
11, 294240, Note_off_c, 9, 44, 64
11, 294240, Note_off_c, 9, 31, 64
11, 294336, Note_off_c, 9, 35, 64
11, 294336, Note_off_c, 9, 36, 64
11, 294336, Note_off_c, 9, 40, 64
11, 294336, Note_off_c, 9, 38, 64
11, 294432, Note_on_c, 9, 38, 64
11, 294432, Note_on_c, 9, 40, 64
11, 294432, Note_on_c, 9, 31, 64
11, 294528, Note_off_c, 9, 31, 64
11, 294528, Note_off_c, 9, 40, 64
11, 294528, Note_off_c, 9, 38, 64
11, 294528, Note_on_c, 9, 38, 64
11, 294528, Note_on_c, 9, 40, 64
11, 294528, Note_on_c, 9, 31, 96
11, 294528, Note_on_c, 9, 46, 110
11, 294624, Note_off_c, 9, 31, 64
11, 294720, Note_off_c, 9, 40, 64
11, 294720, Note_off_c, 9, 38, 64
11, 294816, Note_on_c, 9, 31, 64
11, 294912, Note_off_c, 9, 31, 64
11, 294912, Note_off_c, 9, 46, 64
11, 294912, Control_c, 9, 7, 100
11, 294912, Program_c, 9, 9
11, 294912, Note_on_c, 9, 31, 96
11, 294912, Note_on_c, 9, 36, 110
11, 294912, Note_on_c, 9, 35, 110
11, 294912, Note_on_c, 9, 44, 110
11, 295008, Note_off_c, 9, 44, 64
11, 295008, Note_off_c, 9, 31, 64
11, 295104, Note_off_c, 9, 35, 64
11, 295104, Note_off_c, 9, 36, 64
11, 295200, Note_on_c, 9, 31, 64
11, 295296, Note_off_c, 9, 31, 64
11, 295296, Note_on_c, 9, 31, 96
11, 295296, Note_on_c, 9, 44, 110
11, 295392, Note_off_c, 9, 44, 64
11, 295392, Note_off_c, 9, 31, 64
11, 295584, Note_on_c, 9, 31, 64
11, 295680, Note_off_c, 9, 31, 64
11, 295680, Note_on_c, 9, 31, 96
11, 295680, Note_on_c, 9, 38, 110
11, 295680, Note_on_c, 9, 36, 110
11, 295680, Note_on_c, 9, 35, 110
11, 295680, Note_on_c, 9, 40, 110
11, 295680, Note_on_c, 9, 44, 110
11, 295776, Note_off_c, 9, 44, 64
11, 295776, Note_off_c, 9, 31, 64
11, 295872, Note_off_c, 9, 40, 64
11, 295872, Note_off_c, 9, 35, 64
11, 295872, Note_off_c, 9, 36, 64
11, 295872, Note_off_c, 9, 38, 64
11, 295968, Note_on_c, 9, 31, 64
11, 296064, Note_off_c, 9, 31, 64
11, 296064, Note_on_c, 9, 31, 96
11, 296064, Note_on_c, 9, 44, 110
11, 296160, Note_off_c, 9, 44, 64
11, 296160, Note_off_c, 9, 31, 64
11, 296352, Note_on_c, 9, 31, 64
11, 296448, Note_off_c, 9, 31, 64
11, 296448, Note_on_c, 9, 31, 96
11, 296448, Note_on_c, 9, 36, 110
11, 296448, Note_on_c, 9, 35, 110
11, 296448, Note_on_c, 9, 44, 110
11, 296544, Note_off_c, 9, 44, 64
11, 296544, Note_off_c, 9, 31, 64
11, 296640, Note_off_c, 9, 35, 64
11, 296640, Note_off_c, 9, 36, 64
11, 296736, Note_on_c, 9, 31, 64
11, 296832, Note_off_c, 9, 31, 64
11, 296832, Note_on_c, 9, 31, 96
11, 296832, Note_on_c, 9, 44, 110
11, 296928, Note_off_c, 9, 44, 64
11, 296928, Note_off_c, 9, 31, 64
11, 297120, Note_on_c, 9, 31, 64
11, 297216, Note_off_c, 9, 31, 64
11, 297216, Note_on_c, 9, 31, 96
11, 297216, Note_on_c, 9, 38, 110
11, 297216, Note_on_c, 9, 36, 110
11, 297216, Note_on_c, 9, 35, 110
11, 297216, Note_on_c, 9, 40, 110
11, 297216, Note_on_c, 9, 44, 110
11, 297312, Note_off_c, 9, 44, 64
11, 297312, Note_off_c, 9, 31, 64
11, 297408, Note_off_c, 9, 40, 64
11, 297408, Note_off_c, 9, 35, 64
11, 297408, Note_off_c, 9, 36, 64
11, 297408, Note_off_c, 9, 38, 64
11, 297504, Note_on_c, 9, 31, 64
11, 297600, Note_off_c, 9, 31, 64
11, 297600, Note_on_c, 9, 31, 96
11, 297600, Note_on_c, 9, 46, 110
11, 297696, Note_off_c, 9, 31, 64
11, 297888, Note_on_c, 9, 31, 64
11, 297984, Note_off_c, 9, 31, 64
11, 297984, Note_off_c, 9, 46, 64
11, 297984, Note_on_c, 9, 31, 96
11, 297984, Note_on_c, 9, 36, 110
11, 297984, Note_on_c, 9, 35, 110
11, 297984, Note_on_c, 9, 44, 110
11, 298080, Note_off_c, 9, 44, 64
11, 298080, Note_off_c, 9, 31, 64
11, 298176, Note_off_c, 9, 35, 64
11, 298176, Note_off_c, 9, 36, 64
11, 298272, Note_on_c, 9, 31, 64
11, 298368, Note_off_c, 9, 31, 64
11, 298368, Note_on_c, 9, 31, 96
11, 298368, Note_on_c, 9, 44, 110
11, 298464, Note_off_c, 9, 44, 64
11, 298464, Note_off_c, 9, 31, 64
11, 298656, Note_on_c, 9, 31, 64
11, 298752, Note_off_c, 9, 31, 64
11, 298752, Note_on_c, 9, 31, 96
11, 298752, Note_on_c, 9, 38, 110
11, 298752, Note_on_c, 9, 36, 110
11, 298752, Note_on_c, 9, 35, 110
11, 298752, Note_on_c, 9, 40, 110
11, 298752, Note_on_c, 9, 44, 110
11, 298848, Note_off_c, 9, 44, 64
11, 298848, Note_off_c, 9, 31, 64
11, 298944, Note_off_c, 9, 40, 64
11, 298944, Note_off_c, 9, 35, 64
11, 298944, Note_off_c, 9, 36, 64
11, 298944, Note_off_c, 9, 38, 64
11, 299040, Note_on_c, 9, 31, 64
11, 299136, Note_off_c, 9, 31, 64
11, 299136, Note_on_c, 9, 31, 96
11, 299136, Note_on_c, 9, 44, 110
11, 299232, Note_off_c, 9, 44, 64
11, 299232, Note_off_c, 9, 31, 64
11, 299424, Note_on_c, 9, 31, 64
11, 299520, Note_off_c, 9, 31, 64
11, 299520, Note_on_c, 9, 31, 96
11, 299520, Note_on_c, 9, 36, 110
11, 299520, Note_on_c, 9, 35, 110
11, 299520, Note_on_c, 9, 44, 110
11, 299616, Note_off_c, 9, 44, 64
11, 299616, Note_off_c, 9, 31, 64
11, 299712, Note_off_c, 9, 35, 64
11, 299712, Note_off_c, 9, 36, 64
11, 299808, Note_on_c, 9, 31, 64
11, 299904, Note_off_c, 9, 31, 64
11, 299904, Note_on_c, 9, 31, 96
11, 299904, Note_on_c, 9, 44, 110
11, 300000, Note_off_c, 9, 44, 64
11, 300000, Note_off_c, 9, 31, 64
11, 300192, Note_on_c, 9, 31, 64
11, 300288, Note_off_c, 9, 31, 64
11, 300288, Note_on_c, 9, 31, 96
11, 300288, Note_on_c, 9, 38, 110
11, 300288, Note_on_c, 9, 36, 110
11, 300288, Note_on_c, 9, 35, 110
11, 300288, Note_on_c, 9, 40, 110
11, 300288, Note_on_c, 9, 44, 110
11, 300384, Note_off_c, 9, 44, 64
11, 300384, Note_off_c, 9, 31, 64
11, 300480, Note_off_c, 9, 40, 64
11, 300480, Note_off_c, 9, 35, 64
11, 300480, Note_off_c, 9, 36, 64
11, 300480, Note_off_c, 9, 38, 64
11, 300576, Note_on_c, 9, 31, 64
11, 300672, Note_off_c, 9, 31, 64
11, 300672, Note_on_c, 9, 31, 96
11, 300672, Note_on_c, 9, 46, 110
11, 300768, Note_off_c, 9, 31, 64
11, 300960, Note_on_c, 9, 31, 64
11, 301056, Note_off_c, 9, 31, 64
11, 301056, Note_off_c, 9, 46, 64
11, 301056, Control_c, 9, 7, 100
11, 301056, Program_c, 9, 9
11, 301056, Note_on_c, 9, 31, 96
11, 301056, Note_on_c, 9, 36, 110
11, 301056, Note_on_c, 9, 35, 110
11, 301056, Note_on_c, 9, 44, 110
11, 301152, Note_off_c, 9, 44, 64
11, 301152, Note_off_c, 9, 31, 64
11, 301248, Note_off_c, 9, 35, 64
11, 301248, Note_off_c, 9, 36, 64
11, 301344, Note_on_c, 9, 31, 64
11, 301440, Note_off_c, 9, 31, 64
11, 301440, Note_on_c, 9, 31, 96
11, 301440, Note_on_c, 9, 44, 110
11, 301536, Note_off_c, 9, 44, 64
11, 301536, Note_off_c, 9, 31, 64
11, 301728, Note_on_c, 9, 31, 64
11, 301824, Note_off_c, 9, 31, 64
11, 301824, Note_on_c, 9, 31, 96
11, 301824, Note_on_c, 9, 38, 110
11, 301824, Note_on_c, 9, 36, 110
11, 301824, Note_on_c, 9, 35, 110
11, 301824, Note_on_c, 9, 40, 110
11, 301824, Note_on_c, 9, 44, 110
11, 301920, Note_off_c, 9, 44, 64
11, 301920, Note_off_c, 9, 31, 64
11, 302016, Note_off_c, 9, 40, 64
11, 302016, Note_off_c, 9, 35, 64
11, 302016, Note_off_c, 9, 36, 64
11, 302016, Note_off_c, 9, 38, 64
11, 302112, Note_on_c, 9, 31, 64
11, 302208, Note_off_c, 9, 31, 64
11, 302208, Note_on_c, 9, 31, 96
11, 302208, Note_on_c, 9, 44, 110
11, 302304, Note_off_c, 9, 44, 64
11, 302304, Note_off_c, 9, 31, 64
11, 302496, Note_on_c, 9, 31, 64
11, 302592, Note_off_c, 9, 31, 64
11, 302592, Note_on_c, 9, 31, 96
11, 302592, Note_on_c, 9, 36, 110
11, 302592, Note_on_c, 9, 35, 110
11, 302592, Note_on_c, 9, 44, 110
11, 302688, Note_off_c, 9, 44, 64
11, 302688, Note_off_c, 9, 31, 64
11, 302784, Note_off_c, 9, 35, 64
11, 302784, Note_off_c, 9, 36, 64
11, 302880, Note_on_c, 9, 31, 64
11, 302976, Note_off_c, 9, 31, 64
11, 302976, Note_on_c, 9, 31, 96
11, 302976, Note_on_c, 9, 44, 110
11, 303072, Note_off_c, 9, 44, 64
11, 303072, Note_off_c, 9, 31, 64
11, 303264, Note_on_c, 9, 31, 64
11, 303360, Note_off_c, 9, 31, 64
11, 303360, Note_on_c, 9, 31, 96
11, 303360, Note_on_c, 9, 38, 110
11, 303360, Note_on_c, 9, 36, 110
11, 303360, Note_on_c, 9, 35, 110
11, 303360, Note_on_c, 9, 40, 110
11, 303360, Note_on_c, 9, 44, 110
11, 303456, Note_off_c, 9, 44, 64
11, 303456, Note_off_c, 9, 31, 64
11, 303552, Note_off_c, 9, 40, 64
11, 303552, Note_off_c, 9, 35, 64
11, 303552, Note_off_c, 9, 36, 64
11, 303552, Note_off_c, 9, 38, 64
11, 303648, Note_on_c, 9, 31, 64
11, 303744, Note_off_c, 9, 31, 64
11, 303744, Note_on_c, 9, 31, 96
11, 303744, Note_on_c, 9, 46, 110
11, 303840, Note_off_c, 9, 31, 64
11, 304032, Note_on_c, 9, 31, 64
11, 304128, Note_off_c, 9, 31, 64
11, 304128, Note_off_c, 9, 46, 64
11, 304128, Note_on_c, 9, 31, 96
11, 304128, Note_on_c, 9, 36, 110
11, 304128, Note_on_c, 9, 35, 110
11, 304128, Note_on_c, 9, 44, 110
11, 304224, Note_off_c, 9, 44, 64
11, 304224, Note_off_c, 9, 31, 64
11, 304320, Note_off_c, 9, 35, 64
11, 304320, Note_off_c, 9, 36, 64
11, 304416, Note_on_c, 9, 31, 64
11, 304512, Note_off_c, 9, 31, 64
11, 304512, Note_on_c, 9, 31, 96
11, 304512, Note_on_c, 9, 44, 110
11, 304608, Note_off_c, 9, 44, 64
11, 304608, Note_off_c, 9, 31, 64
11, 304800, Note_on_c, 9, 31, 64
11, 304896, Note_off_c, 9, 31, 64
11, 304896, Note_on_c, 9, 31, 96
11, 304896, Note_on_c, 9, 38, 110
11, 304896, Note_on_c, 9, 36, 110
11, 304896, Note_on_c, 9, 35, 110
11, 304896, Note_on_c, 9, 40, 110
11, 304896, Note_on_c, 9, 44, 110
11, 304992, Note_off_c, 9, 44, 64
11, 304992, Note_off_c, 9, 31, 64
11, 305088, Note_off_c, 9, 40, 64
11, 305088, Note_off_c, 9, 35, 64
11, 305088, Note_off_c, 9, 36, 64
11, 305088, Note_off_c, 9, 38, 64
11, 305184, Note_on_c, 9, 31, 64
11, 305280, Note_off_c, 9, 31, 64
11, 305280, Note_on_c, 9, 31, 96
11, 305280, Note_on_c, 9, 44, 110
11, 305376, Note_off_c, 9, 44, 64
11, 305376, Note_off_c, 9, 31, 64
11, 305568, Note_on_c, 9, 31, 64
11, 305664, Note_off_c, 9, 31, 64
11, 305664, Note_on_c, 9, 31, 96
11, 305664, Note_on_c, 9, 36, 110
11, 305664, Note_on_c, 9, 35, 110
11, 305664, Note_on_c, 9, 44, 110
11, 305760, Note_off_c, 9, 44, 64
11, 305760, Note_off_c, 9, 31, 64
11, 305856, Note_off_c, 9, 35, 64
11, 305856, Note_off_c, 9, 36, 64
11, 305952, Note_on_c, 9, 31, 64
11, 306048, Note_off_c, 9, 31, 64
11, 306048, Note_on_c, 9, 31, 96
11, 306048, Note_on_c, 9, 44, 110
11, 306144, Note_off_c, 9, 44, 64
11, 306144, Note_off_c, 9, 31, 64
11, 306336, Note_on_c, 9, 31, 64
11, 306432, Note_off_c, 9, 31, 64
11, 306432, Note_on_c, 9, 31, 96
11, 306432, Note_on_c, 9, 38, 110
11, 306432, Note_on_c, 9, 36, 110
11, 306432, Note_on_c, 9, 35, 110
11, 306432, Note_on_c, 9, 40, 110
11, 306432, Note_on_c, 9, 44, 110
11, 306528, Note_off_c, 9, 44, 64
11, 306528, Note_off_c, 9, 31, 64
11, 306624, Note_off_c, 9, 40, 64
11, 306624, Note_off_c, 9, 35, 64
11, 306624, Note_off_c, 9, 36, 64
11, 306624, Note_off_c, 9, 38, 64
11, 306720, Note_on_c, 9, 31, 64
11, 306816, Note_off_c, 9, 31, 64
11, 306816, Note_on_c, 9, 31, 96
11, 306816, Note_on_c, 9, 46, 110
11, 306912, Note_off_c, 9, 31, 64
11, 307104, Note_on_c, 9, 31, 64
11, 307200, Note_off_c, 9, 31, 64
11, 307200, Note_off_c, 9, 46, 64
11, 307200, Control_c, 9, 7, 100
11, 307200, Program_c, 9, 9
11, 307200, Note_on_c, 9, 31, 96
11, 307200, Note_on_c, 9, 44, 110
11, 307296, Note_off_c, 9, 44, 64
11, 307296, Note_off_c, 9, 31, 64
11, 307488, Note_on_c, 9, 31, 64
11, 307584, Note_off_c, 9, 31, 64
11, 307584, Note_on_c, 9, 31, 96
11, 307584, Note_on_c, 9, 44, 110
11, 307680, Note_off_c, 9, 44, 64
11, 307680, Note_off_c, 9, 31, 64
11, 307872, Note_on_c, 9, 31, 64
11, 307968, Note_off_c, 9, 31, 64
11, 307968, Note_on_c, 9, 31, 96
11, 307968, Note_on_c, 9, 40, 110
11, 307968, Note_on_c, 9, 44, 110
11, 308064, Note_off_c, 9, 44, 64
11, 308064, Note_off_c, 9, 31, 64
11, 308160, Note_off_c, 9, 40, 64
11, 308256, Note_on_c, 9, 31, 64
11, 308352, Note_off_c, 9, 31, 64
11, 308352, Note_on_c, 9, 31, 96
11, 308352, Note_on_c, 9, 44, 110
11, 308448, Note_off_c, 9, 44, 64
11, 308448, Note_off_c, 9, 31, 64
11, 308640, Note_on_c, 9, 31, 64
11, 308736, Note_off_c, 9, 31, 64
11, 308736, Note_on_c, 9, 31, 96
11, 308736, Note_on_c, 9, 44, 110
11, 308832, Note_off_c, 9, 44, 64
11, 308832, Note_off_c, 9, 31, 64
11, 309024, Note_on_c, 9, 31, 64
11, 309120, Note_off_c, 9, 31, 64
11, 309120, Note_on_c, 9, 31, 96
11, 309120, Note_on_c, 9, 44, 110
11, 309216, Note_off_c, 9, 44, 64
11, 309216, Note_off_c, 9, 31, 64
11, 309408, Note_on_c, 9, 31, 64
11, 309504, Note_off_c, 9, 31, 64
11, 309504, Note_on_c, 9, 31, 96
11, 309504, Note_on_c, 9, 40, 110
11, 309504, Note_on_c, 9, 44, 110
11, 309600, Note_off_c, 9, 44, 64
11, 309600, Note_off_c, 9, 31, 64
11, 309696, Note_off_c, 9, 40, 64
11, 309792, Note_on_c, 9, 31, 64
11, 309888, Note_off_c, 9, 31, 64
11, 309888, Note_on_c, 9, 31, 96
11, 309888, Note_on_c, 9, 46, 110
11, 309984, Note_off_c, 9, 31, 64
11, 310176, Note_on_c, 9, 31, 64
11, 310272, Note_off_c, 9, 31, 64
11, 310272, Note_off_c, 9, 46, 64
11, 310272, Note_on_c, 9, 31, 96
11, 310272, Note_on_c, 9, 44, 110
11, 310368, Note_off_c, 9, 44, 64
11, 310368, Note_off_c, 9, 31, 64
11, 310560, Note_on_c, 9, 31, 64
11, 310656, Note_off_c, 9, 31, 64
11, 310656, Note_on_c, 9, 31, 96
11, 310656, Note_on_c, 9, 44, 110
11, 310752, Note_off_c, 9, 44, 64
11, 310752, Note_off_c, 9, 31, 64
11, 310944, Note_on_c, 9, 31, 64
11, 311040, Note_off_c, 9, 31, 64
11, 311040, Note_on_c, 9, 31, 96
11, 311040, Note_on_c, 9, 40, 110
11, 311040, Note_on_c, 9, 44, 110
11, 311136, Note_off_c, 9, 44, 64
11, 311136, Note_off_c, 9, 31, 64
11, 311232, Note_off_c, 9, 40, 64
11, 311328, Note_on_c, 9, 31, 64
11, 311424, Note_off_c, 9, 31, 64
11, 311424, Note_on_c, 9, 31, 96
11, 311424, Note_on_c, 9, 44, 110
11, 311520, Note_off_c, 9, 44, 64
11, 311520, Note_off_c, 9, 31, 64
11, 311712, Note_on_c, 9, 31, 64
11, 311808, Note_off_c, 9, 31, 64
11, 311808, Note_on_c, 9, 31, 96
11, 311808, Note_on_c, 9, 44, 110
11, 311904, Note_off_c, 9, 44, 64
11, 311904, Note_off_c, 9, 31, 64
11, 312096, Note_on_c, 9, 31, 64
11, 312192, Note_off_c, 9, 31, 64
11, 312192, Note_on_c, 9, 31, 96
11, 312192, Note_on_c, 9, 44, 110
11, 312288, Note_off_c, 9, 44, 64
11, 312288, Note_off_c, 9, 31, 64
11, 312480, Note_on_c, 9, 31, 64
11, 312576, Note_off_c, 9, 31, 64
11, 312576, Note_on_c, 9, 31, 96
11, 312576, Note_on_c, 9, 40, 110
11, 312576, Note_on_c, 9, 44, 110
11, 312672, Note_off_c, 9, 44, 64
11, 312672, Note_off_c, 9, 31, 64
11, 312768, Note_off_c, 9, 40, 64
11, 312864, Note_on_c, 9, 31, 64
11, 312960, Note_off_c, 9, 31, 64
11, 312960, Note_on_c, 9, 31, 96
11, 312960, Note_on_c, 9, 46, 110
11, 313056, Note_off_c, 9, 31, 64
11, 313248, Note_on_c, 9, 31, 64
11, 313344, Note_off_c, 9, 31, 64
11, 313344, Note_off_c, 9, 46, 64
11, 313344, Control_c, 9, 7, 100
11, 313344, Program_c, 9, 9
11, 313344, Note_on_c, 9, 31, 96
11, 313344, Note_on_c, 9, 44, 110
11, 313440, Note_off_c, 9, 44, 64
11, 313440, Note_off_c, 9, 31, 64
11, 313632, Note_on_c, 9, 31, 64
11, 313728, Note_off_c, 9, 31, 64
11, 313728, Note_on_c, 9, 31, 96
11, 313728, Note_on_c, 9, 44, 110
11, 313824, Note_off_c, 9, 44, 64
11, 313824, Note_off_c, 9, 31, 64
11, 314016, Note_on_c, 9, 31, 64
11, 314112, Note_off_c, 9, 31, 64
11, 314112, Note_on_c, 9, 31, 96
11, 314112, Note_on_c, 9, 40, 110
11, 314112, Note_on_c, 9, 44, 110
11, 314208, Note_off_c, 9, 44, 64
11, 314208, Note_off_c, 9, 31, 64
11, 314304, Note_off_c, 9, 40, 64
11, 314400, Note_on_c, 9, 31, 64
11, 314496, Note_off_c, 9, 31, 64
11, 314496, Note_on_c, 9, 31, 96
11, 314496, Note_on_c, 9, 44, 110
11, 314592, Note_off_c, 9, 44, 64
11, 314592, Note_off_c, 9, 31, 64
11, 314784, Note_on_c, 9, 31, 64
11, 314880, Note_off_c, 9, 31, 64
11, 314880, Note_on_c, 9, 31, 96
11, 314880, Note_on_c, 9, 44, 110
11, 314976, Note_off_c, 9, 44, 64
11, 314976, Note_off_c, 9, 31, 64
11, 315168, Note_on_c, 9, 31, 64
11, 315264, Note_off_c, 9, 31, 64
11, 315264, Note_on_c, 9, 31, 96
11, 315264, Note_on_c, 9, 44, 110
11, 315360, Note_off_c, 9, 44, 64
11, 315360, Note_off_c, 9, 31, 64
11, 315552, Note_on_c, 9, 31, 64
11, 315648, Note_off_c, 9, 31, 64
11, 315648, Note_on_c, 9, 31, 96
11, 315648, Note_on_c, 9, 40, 110
11, 315648, Note_on_c, 9, 44, 110
11, 315744, Note_off_c, 9, 44, 64
11, 315744, Note_off_c, 9, 31, 64
11, 315840, Note_off_c, 9, 40, 64
11, 315936, Note_on_c, 9, 31, 64
11, 316032, Note_off_c, 9, 31, 64
11, 316032, Note_on_c, 9, 31, 96
11, 316032, Note_on_c, 9, 46, 110
11, 316128, Note_off_c, 9, 31, 64
11, 316320, Note_on_c, 9, 31, 64
11, 316416, Note_off_c, 9, 31, 64
11, 316416, Note_off_c, 9, 46, 64
11, 316416, Note_on_c, 9, 31, 96
11, 316416, Note_on_c, 9, 44, 110
11, 316512, Note_off_c, 9, 44, 64
11, 316512, Note_off_c, 9, 31, 64
11, 316704, Note_on_c, 9, 31, 64
11, 316800, Note_off_c, 9, 31, 64
11, 316800, Note_on_c, 9, 31, 96
11, 316800, Note_on_c, 9, 44, 110
11, 316896, Note_off_c, 9, 44, 64
11, 316896, Note_off_c, 9, 31, 64
11, 317088, Note_on_c, 9, 31, 64
11, 317184, Note_off_c, 9, 31, 64
11, 317184, Note_on_c, 9, 31, 96
11, 317184, Note_on_c, 9, 40, 110
11, 317184, Note_on_c, 9, 44, 110
11, 317280, Note_off_c, 9, 44, 64
11, 317280, Note_off_c, 9, 31, 64
11, 317376, Note_off_c, 9, 40, 64
11, 317472, Note_on_c, 9, 31, 64
11, 317568, Note_off_c, 9, 31, 64
11, 317568, Note_on_c, 9, 31, 96
11, 317568, Note_on_c, 9, 44, 110
11, 317664, Note_off_c, 9, 44, 64
11, 317664, Note_off_c, 9, 31, 64
11, 317856, Note_on_c, 9, 31, 64
11, 317952, Note_off_c, 9, 31, 64
11, 317952, Note_on_c, 9, 31, 96
11, 317952, Note_on_c, 9, 44, 110
11, 318048, Note_off_c, 9, 44, 64
11, 318048, Note_off_c, 9, 31, 64
11, 318240, Note_on_c, 9, 31, 64
11, 318336, Note_off_c, 9, 31, 64
11, 318336, Note_on_c, 9, 31, 96
11, 318336, Note_on_c, 9, 44, 110
11, 318432, Note_off_c, 9, 44, 64
11, 318432, Note_off_c, 9, 31, 64
11, 318624, Note_on_c, 9, 31, 64
11, 318720, Note_off_c, 9, 31, 64
11, 318720, Note_on_c, 9, 31, 96
11, 318720, Note_on_c, 9, 40, 110
11, 318720, Note_on_c, 9, 44, 110
11, 318816, Note_off_c, 9, 44, 64
11, 318816, Note_off_c, 9, 31, 64
11, 318912, Note_off_c, 9, 40, 64
11, 319008, Note_on_c, 9, 31, 64
11, 319104, Note_off_c, 9, 31, 64
11, 319104, Note_on_c, 9, 31, 96
11, 319104, Note_on_c, 9, 46, 110
11, 319200, Note_off_c, 9, 31, 64
11, 319392, Note_on_c, 9, 31, 64
11, 319488, Note_off_c, 9, 31, 64
11, 319488, Note_off_c, 9, 46, 64
11, 319488, End_track
0, 0, End_of_file
