0, 0, Header, 0, 1, 480
1, 0, Start_track
1, 0, System_exclusive, 5, 126, 127, 9, 1, 247
1, 0, Copyright_t, "\222\230\215ì\214\240\226¼"
1, 0, Title_t, "\213È\226¼"
1, 0, Control_c, 0, 7, 100
1, 0, Control_c, 1, 7, 40
1, 0, Control_c, 2, 7, 120
1, 0, Control_c, 3, 7, 100
1, 0, Control_c, 4, 7, 80
1, 0, Control_c, 5, 7, 80
1, 0, Control_c, 10, 7, 40
1, 0, Program_c, 0, 1
1, 0, Program_c, 1, 103
1, 0, Program_c, 2, 73
1, 0, Program_c, 3, 11
1, 0, Program_c, 4, 41
1, 0, Program_c, 5, 34
1, 0, Program_c, 10, 4
1, 0, Tempo, 571428
1, 120, Note_on_c, 5, 53, 120
1, 120, Note_on_c, 10, 53, 120
1, 120, Note_on_c, 1, 53, 120
1, 360, Note_off_c, 10, 53, 0
1, 360, Note_off_c, 5, 53, 0
1, 360, Note_off_c, 1, 53, 0
1, 360, Note_on_c, 10, 57, 120
1, 360, Note_on_c, 1, 57, 120
1, 360, Note_on_c, 5, 57, 120
1, 600, Note_off_c, 5, 57, 0
1, 600, Note_off_c, 1, 57, 0
1, 600, Note_off_c, 10, 57, 0
1, 600, Note_on_c, 5, 60, 120
1, 600, Note_on_c, 10, 60, 120
1, 600, Note_on_c, 1, 60, 120
1, 840, Note_off_c, 5, 60, 0
1, 840, Note_off_c, 10, 60, 0
1, 840, Note_off_c, 1, 60, 0
1, 840, Note_on_c, 10, 53, 120
1, 840, Note_on_c, 5, 53, 120
1, 840, Note_on_c, 1, 53, 120
1, 1320, Note_off_c, 1, 53, 0
1, 1320, Note_off_c, 10, 53, 0
1, 1320, Note_off_c, 5, 53, 0
1, 1320, Note_on_c, 5, 58, 120
1, 1320, Note_on_c, 10, 58, 120
1, 1320, Note_on_c, 1, 58, 120
1, 1560, Note_off_c, 10, 58, 0
1, 1560, Note_off_c, 5, 58, 0
1, 1560, Note_off_c, 1, 58, 0
1, 1560, Note_on_c, 1, 62, 120
1, 1560, Note_on_c, 10, 62, 120
1, 1560, Note_on_c, 5, 62, 120
1, 1800, Note_off_c, 10, 62, 0
1, 1800, Note_off_c, 5, 62, 0
1, 1800, Note_off_c, 1, 62, 0
1, 1800, Note_on_c, 1, 65, 120
1, 1800, Note_on_c, 10, 65, 120
1, 1800, Note_on_c, 5, 65, 120
1, 2040, Note_off_c, 1, 65, 0
1, 2040, Note_off_c, 10, 65, 0
1, 2040, Note_off_c, 5, 65, 0
1, 2040, Note_on_c, 5, 52, 120
1, 2040, Note_on_c, 1, 52, 120
1, 2040, Note_on_c, 10, 52, 120
1, 2280, Note_off_c, 10, 52, 0
1, 2280, Note_off_c, 5, 52, 0
1, 2280, Note_off_c, 1, 52, 0
1, 2280, Note_on_c, 10, 55, 120
1, 2280, Note_on_c, 5, 55, 120
1, 2280, Note_on_c, 1, 55, 120
1, 2520, Note_off_c, 5, 55, 0
1, 2520, Note_off_c, 10, 55, 0
1, 2520, Note_off_c, 1, 55, 0
1, 2520, Note_on_c, 5, 60, 120
1, 2520, Note_on_c, 1, 60, 120
1, 2520, Note_on_c, 10, 60, 120
1, 2520, Note_on_c, 0, 76, 120
1, 2760, Note_off_c, 5, 60, 0
1, 2760, Note_off_c, 0, 76, 0
1, 2760, Note_off_c, 10, 60, 0
1, 2760, Note_off_c, 1, 60, 0
1, 2760, Note_on_c, 10, 53, 120
1, 2760, Note_on_c, 10, 60, 120
1, 2760, Note_on_c, 1, 53, 120
1, 2760, Note_on_c, 0, 69, 120
1, 2760, Note_on_c, 5, 60, 120
1, 2760, Note_on_c, 5, 53, 120
1, 2760, Note_on_c, 1, 60, 120
1, 3960, Note_off_c, 5, 53, 0
1, 3960, Note_off_c, 10, 60, 0
1, 3960, Note_off_c, 5, 60, 0
1, 3960, Note_off_c, 0, 69, 0
1, 3960, Note_off_c, 1, 60, 0
1, 3960, Note_off_c, 1, 53, 0
1, 3960, Note_off_c, 10, 53, 0
1, 3960, Note_on_c, 5, 53, 120
1, 3960, Note_on_c, 10, 53, 120
1, 3960, Note_on_c, 1, 53, 120
1, 4200, Note_off_c, 1, 53, 0
1, 4200, Note_off_c, 10, 53, 0
1, 4200, Note_off_c, 5, 53, 0
1, 4200, Note_on_c, 10, 57, 120
1, 4200, Note_on_c, 1, 57, 120
1, 4200, Note_on_c, 5, 57, 120
1, 4440, Note_off_c, 10, 57, 0
1, 4440, Note_off_c, 5, 57, 0
1, 4440, Note_off_c, 1, 57, 0
1, 4440, Note_on_c, 10, 60, 120
1, 4440, Note_on_c, 5, 60, 120
1, 4440, Note_on_c, 1, 60, 120
1, 4680, Note_off_c, 5, 60, 0
1, 4680, Note_off_c, 10, 60, 0
1, 4680, Note_off_c, 1, 60, 0
1, 4680, Note_on_c, 10, 53, 120
1, 4680, Note_on_c, 1, 53, 120
1, 4680, Note_on_c, 5, 53, 120
1, 4920, Note_off_c, 5, 53, 0
1, 4920, Note_off_c, 1, 53, 0
1, 4920, Note_off_c, 10, 53, 0
1, 4920, Note_on_c, 10, 58, 120
1, 4920, Note_on_c, 5, 58, 120
1, 4920, Note_on_c, 1, 58, 120
1, 5160, Note_off_c, 1, 58, 0
1, 5160, Note_off_c, 5, 58, 0
1, 5160, Note_off_c, 10, 58, 0
1, 5160, Note_on_c, 5, 65, 120
1, 5160, Note_on_c, 1, 65, 120
1, 5160, Note_on_c, 10, 65, 120
1, 5400, Note_off_c, 10, 65, 0
1, 5400, Note_off_c, 1, 65, 0
1, 5400, Note_off_c, 5, 65, 0
1, 5400, Note_on_c, 10, 62, 120
1, 5400, Note_on_c, 1, 62, 120
1, 5400, Note_on_c, 5, 62, 120
1, 5640, Note_off_c, 1, 62, 0
1, 5640, Note_off_c, 5, 62, 0
1, 5640, Note_off_c, 10, 62, 0
1, 5640, Note_on_c, 10, 58, 120
1, 5640, Note_on_c, 1, 58, 120
1, 5640, Note_on_c, 5, 58, 120
1, 5880, Note_off_c, 1, 58, 0
1, 5880, Note_off_c, 5, 58, 0
1, 5880, Note_off_c, 10, 58, 0
1, 5880, Note_on_c, 5, 52, 120
1, 5880, Note_on_c, 10, 52, 120
1, 5880, Note_on_c, 1, 52, 120
1, 6120, Note_off_c, 10, 52, 0
1, 6120, Note_off_c, 1, 52, 0
1, 6120, Note_off_c, 5, 52, 0
1, 6120, Note_on_c, 1, 58, 120
1, 6120, Note_on_c, 5, 58, 120
1, 6120, Note_on_c, 10, 58, 120
1, 6360, Note_off_c, 5, 58, 0
1, 6360, Note_off_c, 10, 58, 0
1, 6360, Note_off_c, 1, 58, 0
1, 6360, Note_on_c, 5, 60, 120
1, 6360, Note_on_c, 10, 60, 120
1, 6360, Note_on_c, 1, 60, 120
1, 6360, Note_on_c, 0, 76, 120
1, 6600, Note_off_c, 5, 60, 0
1, 6600, Note_off_c, 1, 60, 0
1, 6600, Note_off_c, 10, 60, 0
1, 6600, Note_off_c, 0, 76, 0
1, 6600, Note_on_c, 1, 53, 120
1, 6600, Note_on_c, 0, 77, 120
1, 6600, Note_on_c, 10, 53, 120
1, 6600, Note_on_c, 5, 53, 120
1, 6840, Note_off_c, 0, 77, 0
1, 6840, Note_on_c, 0, 72, 120
1, 7080, Note_off_c, 0, 72, 0
1, 7080, Note_on_c, 0, 69, 120
1, 7320, Note_off_c, 0, 69, 0
1, 7320, Note_on_c, 0, 72, 120
1, 7560, Note_off_c, 0, 72, 0
1, 7560, Note_on_c, 0, 77, 120
1, 7800, Note_off_c, 1, 53, 0
1, 7800, Note_off_c, 0, 77, 0
1, 7800, Note_off_c, 10, 53, 0
1, 7800, Note_off_c, 5, 53, 0
1, 7800, Note_on_c, 1, 60, 120
1, 7800, Note_on_c, 0, 69, 120
1, 7800, Note_on_c, 1, 53, 120
1, 7800, Note_on_c, 5, 57, 120
1, 7800, Note_on_c, 0, 77, 120
1, 7800, Note_on_c, 10, 57, 120
1, 7800, Note_on_c, 5, 60, 120
1, 7800, Note_on_c, 10, 53, 120
1, 7800, Note_on_c, 10, 60, 120
1, 7800, Note_on_c, 5, 53, 120
1, 7800, Note_on_c, 1, 57, 120
1, 8040, Note_off_c, 0, 69, 0
1, 8040, Note_on_c, 0, 70, 120
1, 8280, Note_off_c, 0, 70, 0
1, 8280, Note_on_c, 0, 72, 120
1, 8520, Note_off_c, 0, 72, 0
1, 8520, Note_off_c, 10, 60, 0
1, 8520, Note_off_c, 1, 60, 0
1, 8520, Note_off_c, 5, 60, 0
1, 8520, Note_off_c, 1, 57, 0
1, 8520, Note_off_c, 10, 57, 0
1, 8520, Note_off_c, 5, 53, 0
1, 8520, Note_off_c, 0, 77, 0
1, 8520, Note_off_c, 1, 53, 0
1, 8520, Note_off_c, 5, 57, 0
1, 8520, Note_off_c, 10, 53, 0
1, 8520, Note_on_c, 5, 62, 120
1, 8520, Note_on_c, 0, 76, 120
1, 8520, Note_on_c, 0, 77, 120
1, 8520, Note_on_c, 5, 58, 120
1, 8520, Note_on_c, 10, 58, 120
1, 8520, Note_on_c, 1, 62, 120
1, 8520, Note_on_c, 10, 62, 120
1, 8520, Note_on_c, 10, 53, 120
1, 8520, Note_on_c, 1, 53, 120
1, 8520, Note_on_c, 5, 53, 120
1, 8520, Note_on_c, 1, 58, 120
1, 9000, Note_off_c, 0, 76, 0
1, 9000, Note_on_c, 0, 74, 120
1, 9480, Note_off_c, 0, 74, 0
1, 9480, Note_on_c, 0, 70, 120
1, 9720, Note_off_c, 5, 62, 0
1, 9720, Note_off_c, 5, 53, 0
1, 9720, Note_off_c, 1, 62, 0
1, 9720, Note_off_c, 10, 62, 0
1, 9720, Note_off_c, 5, 58, 0
1, 9720, Note_off_c, 10, 58, 0
1, 9720, Note_off_c, 0, 70, 0
1, 9720, Note_off_c, 0, 77, 0
1, 9720, Note_off_c, 10, 53, 0
1, 9720, Note_off_c, 1, 58, 0
1, 9720, Note_off_c, 1, 53, 0
1, 9720, Note_on_c, 5, 58, 120
1, 9720, Note_on_c, 5, 53, 120
1, 9720, Note_on_c, 5, 62, 120
1, 9720, Note_on_c, 10, 53, 120
1, 9720, Note_on_c, 1, 53, 120
1, 9720, Note_on_c, 0, 74, 120
1, 9720, Note_on_c, 0, 77, 120
1, 9720, Note_on_c, 10, 58, 120
1, 9720, Note_on_c, 1, 58, 120
1, 9720, Note_on_c, 10, 62, 120
1, 9720, Note_on_c, 1, 62, 120
1, 9960, Note_off_c, 0, 74, 0
1, 9960, Note_on_c, 0, 72, 120
1, 10200, Note_off_c, 1, 58, 0
1, 10200, Note_off_c, 0, 72, 0
1, 10200, Note_off_c, 5, 58, 0
1, 10200, Note_off_c, 5, 62, 0
1, 10200, Note_off_c, 1, 53, 0
1, 10200, Note_off_c, 10, 58, 0
1, 10200, Note_off_c, 10, 62, 0
1, 10200, Note_off_c, 1, 62, 0
1, 10200, Note_off_c, 5, 53, 0
1, 10200, Note_off_c, 10, 53, 0
1, 10200, Note_off_c, 0, 77, 0
1, 10200, Note_on_c, 10, 57, 120
1, 10200, Note_on_c, 10, 53, 120
1, 10200, Note_on_c, 0, 77, 120
1, 10200, Note_on_c, 5, 53, 120
1, 10200, Note_on_c, 1, 60, 120
1, 10200, Note_on_c, 10, 60, 120
1, 10200, Note_on_c, 5, 57, 120
1, 10200, Note_on_c, 1, 53, 120
1, 10200, Note_on_c, 5, 60, 120
1, 10200, Note_on_c, 0, 72, 120
1, 10200, Note_on_c, 1, 57, 120
1, 10680, Note_off_c, 0, 77, 0
1, 10680, Note_off_c, 1, 57, 0
1, 10680, Note_off_c, 5, 57, 0
1, 10680, Note_off_c, 10, 57, 0
1, 10680, Note_off_c, 5, 53, 0
1, 10680, Note_off_c, 1, 53, 0
1, 10680, Note_off_c, 1, 60, 0
1, 10680, Note_off_c, 10, 60, 0
1, 10680, Note_off_c, 0, 72, 0
1, 10680, Note_off_c, 10, 53, 0
1, 10680, Note_off_c, 5, 60, 0
1, 10680, Note_on_c, 5, 53, 120
1, 10680, Note_on_c, 10, 53, 120
1, 10680, Note_on_c, 1, 53, 120
1, 10920, Note_on_c, 0, 65, 120
1, 10920, Note_on_c, 10, 57, 120
1, 10920, Note_on_c, 1, 57, 120
1, 10920, Note_on_c, 5, 57, 120
1, 11160, Note_off_c, 1, 53, 0
1, 11160, Note_off_c, 5, 53, 0
1, 11160, Note_off_c, 10, 53, 0
1, 11160, Note_off_c, 10, 57, 0
1, 11160, Note_off_c, 5, 57, 0
1, 11160, Note_off_c, 0, 65, 0
1, 11160, Note_off_c, 1, 57, 0
1, 11160, Note_on_c, 5, 52, 120
1, 11160, Note_on_c, 1, 52, 120
1, 11160, Note_on_c, 10, 52, 120
1, 11400, Note_on_c, 0, 64, 120
1, 11400, Note_on_c, 5, 55, 120
1, 11400, Note_on_c, 10, 55, 120
1, 11400, Note_on_c, 1, 55, 120
1, 11640, Note_off_c, 5, 52, 0
1, 11640, Note_off_c, 10, 55, 0
1, 11640, Note_off_c, 10, 52, 0
1, 11640, Note_off_c, 1, 55, 0
1, 11640, Note_off_c, 0, 64, 0
1, 11640, Note_off_c, 1, 52, 0
1, 11640, Note_off_c, 5, 55, 0
1, 11640, Note_on_c, 5, 53, 120
1, 11640, Note_on_c, 10, 53, 120
1, 11640, Note_on_c, 5, 57, 120
1, 11640, Note_on_c, 10, 57, 120
1, 11640, Note_on_c, 0, 65, 120
1, 11640, Note_on_c, 0, 74, 120
1, 11640, Note_on_c, 1, 57, 120
1, 11640, Note_on_c, 10, 50, 120
1, 11640, Note_on_c, 5, 50, 120
1, 11640, Note_on_c, 1, 53, 120
1, 11640, Note_on_c, 1, 50, 120
1, 11880, Note_off_c, 0, 65, 0
1, 11880, Note_on_c, 0, 67, 120
1, 12120, Note_off_c, 0, 67, 0
1, 12120, Note_on_c, 0, 69, 120
1, 12360, Note_off_c, 10, 57, 0
1, 12360, Note_off_c, 5, 57, 0
1, 12360, Note_off_c, 1, 57, 0
1, 12360, Note_off_c, 1, 50, 0
1, 12360, Note_off_c, 1, 53, 0
1, 12360, Note_off_c, 10, 50, 0
1, 12360, Note_off_c, 0, 74, 0
1, 12360, Note_off_c, 5, 50, 0
1, 12360, Note_off_c, 5, 53, 0
1, 12360, Note_off_c, 10, 53, 0
1, 12360, Note_off_c, 0, 69, 0
1, 12360, Note_on_c, 10, 50, 120
1, 12360, Note_on_c, 0, 74, 120
1, 12360, Note_on_c, 0, 72, 120
1, 12360, Note_on_c, 5, 55, 120
1, 12360, Note_on_c, 10, 55, 120
1, 12360, Note_on_c, 5, 58, 120
1, 12360, Note_on_c, 10, 58, 120
1, 12360, Note_on_c, 1, 58, 120
1, 12360, Note_on_c, 5, 50, 120
1, 12360, Note_on_c, 1, 55, 120
1, 12360, Note_on_c, 1, 50, 120
1, 12840, Note_off_c, 0, 72, 0
1, 12840, Note_on_c, 0, 70, 120
1, 13320, Note_off_c, 0, 70, 0
1, 13320, Note_on_c, 0, 67, 120
1, 13560, Note_off_c, 1, 50, 0
1, 13560, Note_off_c, 10, 55, 0
1, 13560, Note_off_c, 5, 58, 0
1, 13560, Note_off_c, 10, 58, 0
1, 13560, Note_off_c, 5, 55, 0
1, 13560, Note_off_c, 10, 50, 0
1, 13560, Note_off_c, 1, 55, 0
1, 13560, Note_off_c, 1, 58, 0
1, 13560, Note_off_c, 0, 67, 0
1, 13560, Note_off_c, 5, 50, 0
1, 13560, Note_off_c, 0, 74, 0
1, 13560, Note_on_c, 5, 50, 120
1, 13560, Note_on_c, 1, 55, 120
1, 13560, Note_on_c, 5, 55, 120
1, 13560, Note_on_c, 1, 58, 120
1, 13560, Note_on_c, 0, 70, 120
1, 13560, Note_on_c, 0, 74, 120
1, 13560, Note_on_c, 1, 50, 120
1, 13560, Note_on_c, 5, 58, 120
1, 13560, Note_on_c, 10, 55, 120
1, 13560, Note_on_c, 10, 50, 120
1, 13560, Note_on_c, 10, 58, 120
1, 13800, Note_off_c, 0, 70, 0
1, 13800, Note_on_c, 0, 69, 120
1, 14040, Note_off_c, 1, 50, 0
1, 14040, Note_off_c, 1, 55, 0
1, 14040, Note_off_c, 5, 55, 0
1, 14040, Note_off_c, 1, 58, 0
1, 14040, Note_off_c, 0, 69, 0
1, 14040, Note_off_c, 5, 50, 0
1, 14040, Note_off_c, 5, 58, 0
1, 14040, Note_off_c, 10, 58, 0
1, 14040, Note_off_c, 10, 50, 0
1, 14040, Note_off_c, 10, 55, 0
1, 14040, Note_off_c, 0, 74, 0
1, 14040, Note_on_c, 0, 69, 120
1, 14040, Note_on_c, 10, 57, 120
1, 14040, Note_on_c, 5, 57, 120
1, 14040, Note_on_c, 0, 74, 120
1, 14040, Note_on_c, 10, 50, 120
1, 14040, Note_on_c, 1, 50, 120
1, 14040, Note_on_c, 1, 57, 120
1, 14040, Note_on_c, 10, 53, 120
1, 14040, Note_on_c, 5, 50, 120
1, 14040, Note_on_c, 5, 53, 120
1, 14040, Note_on_c, 1, 53, 120
1, 14520, Note_off_c, 5, 50, 0
1, 14520, Note_off_c, 5, 53, 0
1, 14520, Note_off_c, 10, 53, 0
1, 14520, Note_off_c, 1, 53, 0
1, 14520, Note_off_c, 10, 50, 0
1, 14520, Note_off_c, 1, 50, 0
1, 14520, Note_off_c, 1, 57, 0
1, 14520, Note_off_c, 10, 57, 0
1, 14520, Note_off_c, 0, 74, 0
1, 14520, Note_off_c, 0, 69, 0
1, 14520, Note_off_c, 5, 57, 0
1, 14520, Note_on_c, 1, 50, 120
1, 14520, Note_on_c, 10, 50, 120
1, 14520, Note_on_c, 5, 50, 120
1, 14760, Note_on_c, 0, 65, 120
1, 14760, Note_on_c, 1, 57, 120
1, 14760, Note_on_c, 5, 57, 120
1, 14760, Note_on_c, 10, 57, 120
1, 15000, Note_off_c, 10, 50, 0
1, 15000, Note_off_c, 1, 50, 0
1, 15000, Note_off_c, 1, 57, 0
1, 15000, Note_off_c, 5, 57, 0
1, 15000, Note_off_c, 0, 65, 0
1, 15000, Note_off_c, 10, 57, 0
1, 15000, Note_off_c, 5, 50, 0
1, 15000, Note_on_c, 5, 48, 120
1, 15000, Note_on_c, 10, 48, 120
1, 15000, Note_on_c, 1, 48, 120
1, 15240, Note_on_c, 0, 64, 120
1, 15240, Note_on_c, 10, 55, 120
1, 15240, Note_on_c, 1, 55, 120
1, 15240, Note_on_c, 5, 55, 120
1, 15480, Note_off_c, 5, 48, 0
1, 15480, Note_off_c, 1, 48, 0
1, 15480, Note_off_c, 5, 55, 0
1, 15480, Note_off_c, 10, 55, 0
1, 15480, Note_off_c, 0, 64, 0
1, 15480, Note_off_c, 10, 48, 0
1, 15480, Note_off_c, 1, 55, 0
1, 15480, Note_on_c, 5, 46, 120
1, 15480, Note_on_c, 10, 46, 120
1, 15480, Note_on_c, 1, 46, 120
1, 15720, Note_on_c, 0, 62, 120
1, 15720, Note_on_c, 0, 70, 120
1, 15960, Note_off_c, 10, 46, 0
1, 15960, Note_off_c, 5, 46, 0
1, 15960, Note_off_c, 1, 46, 0
1, 15960, Note_off_c, 0, 62, 0
1, 15960, Note_on_c, 5, 58, 120
1, 15960, Note_on_c, 1, 53, 120
1, 15960, Note_on_c, 1, 58, 120
1, 15960, Note_on_c, 0, 64, 120
1, 15960, Note_on_c, 5, 53, 120
1, 15960, Note_on_c, 10, 58, 120
1, 15960, Note_on_c, 10, 53, 120
1, 16200, Note_off_c, 0, 64, 0
1, 16200, Note_on_c, 0, 65, 120
1, 16440, Note_off_c, 0, 65, 0
1, 16440, Note_off_c, 10, 58, 0
1, 16440, Note_off_c, 5, 53, 0
1, 16440, Note_off_c, 5, 58, 0
1, 16440, Note_off_c, 1, 58, 0
1, 16440, Note_off_c, 10, 53, 0
1, 16440, Note_off_c, 1, 53, 0
1, 16440, Note_off_c, 0, 70, 0
1, 16440, Note_on_c, 0, 70, 120
1, 16440, Note_on_c, 5, 48, 120
1, 16440, Note_on_c, 0, 64, 120
1, 16440, Note_on_c, 0, 67, 120
1, 16440, Note_on_c, 1, 48, 120
1, 16440, Note_on_c, 10, 48, 120
1, 16680, Note_off_c, 5, 48, 0
1, 16680, Note_off_c, 1, 48, 0
1, 16680, Note_off_c, 10, 48, 0
1, 16680, Note_on_c, 1, 58, 120
1, 16680, Note_on_c, 10, 58, 120
1, 16680, Note_on_c, 1, 60, 120
1, 16680, Note_on_c, 10, 60, 120
1, 16680, Note_on_c, 5, 60, 120
1, 16680, Note_on_c, 5, 58, 120
1, 16800, Note_off_c, 0, 67, 0
1, 16800, Note_off_c, 0, 64, 0
1, 16800, Note_on_c, 0, 65, 120
1, 17160, Note_off_c, 1, 58, 0
1, 17160, Note_off_c, 10, 58, 0
1, 17160, Note_off_c, 5, 58, 0
1, 17160, Note_off_c, 1, 60, 0
1, 17160, Note_off_c, 5, 60, 0
1, 17160, Note_off_c, 10, 60, 0
1, 17160, Note_on_c, 5, 58, 120
1, 17160, Note_on_c, 1, 60, 120
1, 17160, Note_on_c, 10, 58, 120
1, 17160, Note_on_c, 5, 60, 120
1, 17160, Note_on_c, 0, 67, 120
1, 17160, Note_on_c, 1, 58, 120
1, 17160, Note_on_c, 10, 60, 120
1, 17400, Note_off_c, 10, 60, 0
1, 17400, Note_off_c, 10, 58, 0
1, 17400, Note_off_c, 5, 60, 0
1, 17400, Note_off_c, 5, 58, 0
1, 17400, Note_off_c, 1, 60, 0
1, 17400, Note_off_c, 1, 58, 0
1, 17400, Note_on_c, 5, 45, 120
1, 17400, Note_on_c, 10, 45, 120
1, 17400, Note_on_c, 1, 45, 120
1, 17520, Note_off_c, 0, 65, 0
1, 17640, Note_off_c, 0, 70, 0
1, 17640, Note_on_c, 0, 69, 120
1, 17640, Note_on_c, 0, 64, 120
1, 17880, Note_off_c, 1, 45, 0
1, 17880, Note_off_c, 5, 45, 0
1, 17880, Note_off_c, 10, 45, 0
1, 17880, Note_off_c, 0, 69, 0
1, 17880, Note_off_c, 0, 67, 0
1, 17880, Note_off_c, 0, 64, 0
1, 17880, Note_on_c, 0, 64, 120
1, 17880, Note_on_c, 0, 69, 120
1, 17880, Note_on_c, 10, 55, 120
1, 17880, Note_on_c, 5, 60, 120
1, 17880, Note_on_c, 1, 60, 120
1, 17880, Note_on_c, 1, 55, 120
1, 17880, Note_on_c, 10, 60, 120
1, 17880, Note_on_c, 5, 55, 120
1, 18120, Note_off_c, 5, 55, 0
1, 18120, Note_off_c, 1, 55, 0
1, 18120, Note_off_c, 5, 60, 0
1, 18120, Note_off_c, 10, 55, 0
1, 18120, Note_off_c, 10, 60, 0
1, 18120, Note_off_c, 1, 60, 0
1, 18120, Note_on_c, 10, 45, 120
1, 18120, Note_on_c, 5, 45, 120
1, 18120, Note_on_c, 1, 45, 120
1, 18360, Note_off_c, 0, 64, 0
1, 18360, Note_off_c, 5, 45, 0
1, 18360, Note_off_c, 10, 45, 0
1, 18360, Note_off_c, 0, 69, 0
1, 18360, Note_off_c, 1, 45, 0
1, 18360, Note_on_c, 1, 50, 120
1, 18360, Note_on_c, 10, 50, 120
1, 18360, Note_on_c, 5, 50, 120
1, 18600, Note_off_c, 1, 50, 0
1, 18600, Note_off_c, 5, 50, 0
1, 18600, Note_off_c, 10, 50, 0
1, 18600, Note_on_c, 5, 57, 120
1, 18600, Note_on_c, 5, 53, 120
1, 18600, Note_on_c, 10, 57, 120
1, 18600, Note_on_c, 10, 53, 120
1, 18600, Note_on_c, 1, 57, 120
1, 18600, Note_on_c, 1, 53, 120
1, 19080, Note_off_c, 10, 53, 0
1, 19080, Note_off_c, 5, 53, 0
1, 19080, Note_off_c, 10, 57, 0
1, 19080, Note_off_c, 1, 53, 0
1, 19080, Note_off_c, 5, 57, 0
1, 19080, Note_off_c, 1, 57, 0
1, 19080, Note_on_c, 10, 57, 120
1, 19080, Note_on_c, 1, 53, 120
1, 19080, Note_on_c, 5, 57, 120
1, 19080, Note_on_c, 5, 53, 120
1, 19080, Note_on_c, 1, 57, 120
1, 19080, Note_on_c, 10, 53, 120
1, 19320, Note_off_c, 10, 53, 0
1, 19320, Note_off_c, 1, 53, 0
1, 19320, Note_off_c, 5, 53, 0
1, 19320, Note_off_c, 10, 57, 0
1, 19320, Note_off_c, 1, 57, 0
1, 19320, Note_off_c, 5, 57, 0
1, 19320, Note_on_c, 1, 43, 120
1, 19320, Note_on_c, 10, 43, 120
1, 19320, Note_on_c, 5, 43, 120
1, 19560, Note_on_c, 0, 65, 120
1, 19560, Note_on_c, 0, 73, 120
1, 19800, Note_off_c, 1, 43, 0
1, 19800, Note_off_c, 10, 43, 0
1, 19800, Note_off_c, 5, 43, 0
1, 19800, Note_off_c, 0, 65, 0
1, 19800, Note_on_c, 10, 58, 120
1, 19800, Note_on_c, 1, 58, 120
1, 19800, Note_on_c, 5, 61, 120
1, 19800, Note_on_c, 5, 58, 120
1, 19800, Note_on_c, 0, 67, 120
1, 19800, Note_on_c, 10, 61, 120
1, 19800, Note_on_c, 1, 61, 120
1, 20040, Note_off_c, 0, 67, 0
1, 20040, Note_on_c, 0, 69, 120
1, 20280, Note_off_c, 0, 73, 0
1, 20280, Note_off_c, 1, 61, 0
1, 20280, Note_off_c, 5, 58, 0
1, 20280, Note_off_c, 10, 61, 0
1, 20280, Note_off_c, 5, 61, 0
1, 20280, Note_off_c, 10, 58, 0
1, 20280, Note_off_c, 1, 58, 0
1, 20280, Note_off_c, 0, 69, 0
1, 20280, Note_on_c, 1, 48, 120
1, 20280, Note_on_c, 0, 70, 120
1, 20280, Note_on_c, 5, 48, 120
1, 20280, Note_on_c, 10, 48, 120
1, 20280, Note_on_c, 0, 74, 120
1, 20520, Note_off_c, 5, 48, 0
1, 20520, Note_off_c, 10, 48, 0
1, 20520, Note_off_c, 1, 48, 0
1, 20520, Note_on_c, 10, 58, 120
1, 20520, Note_on_c, 5, 61, 120
1, 20520, Note_on_c, 1, 61, 120
1, 20520, Note_on_c, 10, 61, 120
1, 20520, Note_on_c, 1, 58, 120
1, 20520, Note_on_c, 5, 58, 120
1, 20640, Note_off_c, 0, 70, 0
1, 20640, Note_on_c, 0, 69, 120
1, 21000, Note_off_c, 5, 58, 0
1, 21000, Note_off_c, 1, 58, 0
1, 21000, Note_off_c, 0, 74, 0
1, 21000, Note_off_c, 10, 61, 0
1, 21000, Note_off_c, 5, 61, 0
1, 21000, Note_off_c, 10, 58, 0
1, 21000, Note_off_c, 0, 69, 0
1, 21000, Note_off_c, 1, 61, 0
1, 21000, Note_on_c, 0, 74, 120
1, 21000, Note_on_c, 0, 70, 120
1, 21000, Note_on_c, 10, 58, 120
1, 21000, Note_on_c, 1, 58, 120
1, 21000, Note_on_c, 5, 61, 120
1, 21000, Note_on_c, 1, 61, 120
1, 21000, Note_on_c, 10, 61, 120
1, 21000, Note_on_c, 5, 58, 120
1, 21240, Note_off_c, 5, 58, 0
1, 21240, Note_off_c, 1, 58, 0
1, 21240, Note_off_c, 5, 61, 0
1, 21240, Note_off_c, 10, 58, 0
1, 21240, Note_off_c, 1, 61, 0
1, 21240, Note_off_c, 10, 61, 0
1, 21240, Note_on_c, 5, 45, 120
1, 21240, Note_on_c, 10, 45, 120
1, 21240, Note_on_c, 1, 45, 120
1, 21480, Note_off_c, 10, 45, 0
1, 21480, Note_off_c, 0, 74, 0
1, 21480, Note_off_c, 1, 45, 0
1, 21480, Note_off_c, 5, 45, 0
1, 21480, Note_on_c, 0, 69, 120
1, 21480, Note_on_c, 5, 55, 120
1, 21480, Note_on_c, 1, 55, 120
1, 21480, Note_on_c, 0, 72, 120
1, 21480, Note_on_c, 5, 60, 120
1, 21480, Note_on_c, 10, 55, 120
1, 21480, Note_on_c, 10, 60, 120
1, 21480, Note_on_c, 1, 60, 120
1, 21720, Note_off_c, 0, 72, 0
1, 21720, Note_off_c, 0, 69, 0
1, 21720, Note_off_c, 0, 70, 0
1, 21720, Note_on_c, 0, 72, 120
1, 21720, Note_on_c, 0, 69, 120
1, 21960, Note_off_c, 1, 55, 0
1, 21960, Note_off_c, 1, 60, 0
1, 21960, Note_off_c, 5, 60, 0
1, 21960, Note_off_c, 10, 60, 0
1, 21960, Note_off_c, 10, 55, 0
1, 21960, Note_off_c, 5, 55, 0
1, 21960, Note_on_c, 1, 55, 120
1, 21960, Note_on_c, 5, 60, 120
1, 21960, Note_on_c, 10, 55, 120
1, 21960, Note_on_c, 5, 55, 120
1, 21960, Note_on_c, 1, 60, 120
1, 21960, Note_on_c, 10, 60, 120
1, 22200, Note_off_c, 0, 72, 0
1, 22200, Note_off_c, 5, 55, 0
1, 22200, Note_off_c, 5, 60, 0
1, 22200, Note_off_c, 10, 55, 0
1, 22200, Note_off_c, 0, 69, 0
1, 22200, Note_off_c, 1, 55, 0
1, 22200, Note_off_c, 1, 60, 0
1, 22200, Note_off_c, 10, 60, 0
1, 22200, Note_on_c, 5, 50, 120
1, 22200, Note_on_c, 1, 50, 120
1, 22200, Note_on_c, 10, 50, 120
1, 22440, Note_off_c, 5, 50, 0
1, 22440, Note_off_c, 1, 50, 0
1, 22440, Note_off_c, 10, 50, 0
1, 22440, Note_on_c, 1, 57, 120
1, 22440, Note_on_c, 5, 57, 120
1, 22440, Note_on_c, 10, 66, 120
1, 22440, Note_on_c, 1, 66, 120
1, 22440, Note_on_c, 10, 57, 120
1, 22440, Note_on_c, 5, 66, 120
1, 22680, Note_on_c, 0, 70, 120
1, 22920, Note_off_c, 10, 57, 0
1, 22920, Note_off_c, 5, 66, 0
1, 22920, Note_off_c, 1, 66, 0
1, 22920, Note_off_c, 0, 70, 0
1, 22920, Note_off_c, 1, 57, 0
1, 22920, Note_off_c, 10, 66, 0
1, 22920, Note_off_c, 5, 57, 0
1, 22920, Note_on_c, 5, 57, 120
1, 22920, Note_on_c, 0, 69, 120
1, 22920, Note_on_c, 5, 66, 120
1, 22920, Note_on_c, 1, 66, 120
1, 22920, Note_on_c, 10, 57, 120
1, 22920, Note_on_c, 1, 57, 120
1, 22920, Note_on_c, 10, 66, 120
1, 23160, Note_off_c, 5, 57, 0
1, 23160, Note_off_c, 5, 66, 0
1, 23160, Note_off_c, 1, 66, 0
1, 23160, Note_off_c, 10, 66, 0
1, 23160, Note_off_c, 10, 57, 0
1, 23160, Note_off_c, 1, 57, 0
1, 23160, Note_off_c, 0, 69, 0
1, 23160, Note_on_c, 5, 43, 120
1, 23160, Note_on_c, 10, 43, 120
1, 23160, Note_on_c, 1, 43, 120
1, 23160, Note_on_c, 0, 65, 120
1, 23640, Note_off_c, 5, 43, 0
1, 23640, Note_off_c, 1, 43, 0
1, 23640, Note_off_c, 10, 43, 0
1, 23640, Note_on_c, 1, 53, 120
1, 23640, Note_on_c, 5, 58, 120
1, 23640, Note_on_c, 10, 53, 120
1, 23640, Note_on_c, 1, 58, 120
1, 23640, Note_on_c, 5, 53, 120
1, 23640, Note_on_c, 10, 58, 120
1, 23880, Note_off_c, 5, 53, 0
1, 23880, Note_off_c, 10, 53, 0
1, 23880, Note_off_c, 10, 58, 0
1, 23880, Note_off_c, 5, 58, 0
1, 23880, Note_off_c, 1, 53, 0
1, 23880, Note_off_c, 1, 58, 0
1, 23880, Note_on_c, 5, 43, 120
1, 23880, Note_on_c, 10, 43, 120
1, 23880, Note_on_c, 1, 43, 120
1, 24120, Note_off_c, 0, 65, 0
1, 24120, Note_off_c, 10, 43, 0
1, 24120, Note_off_c, 1, 43, 0
1, 24120, Note_off_c, 5, 43, 0
1, 24120, Note_on_c, 5, 43, 120
1, 24120, Note_on_c, 1, 43, 120
1, 24120, Note_on_c, 10, 43, 120
1, 24360, Note_off_c, 10, 43, 0
1, 24360, Note_off_c, 5, 43, 0
1, 24360, Note_off_c, 1, 43, 0
1, 24360, Note_on_c, 5, 53, 120
1, 24360, Note_on_c, 5, 58, 120
1, 24360, Note_on_c, 1, 58, 120
1, 24360, Note_on_c, 1, 53, 120
1, 24360, Note_on_c, 0, 62, 120
1, 24360, Note_on_c, 10, 53, 120
1, 24360, Note_on_c, 10, 58, 120
1, 24600, Note_off_c, 0, 62, 0
1, 24600, Note_on_c, 0, 65, 120
1, 24840, Note_off_c, 0, 65, 0
1, 24840, Note_off_c, 10, 58, 0
1, 24840, Note_off_c, 1, 58, 0
1, 24840, Note_off_c, 5, 58, 0
1, 24840, Note_off_c, 10, 53, 0
1, 24840, Note_off_c, 1, 53, 0
1, 24840, Note_off_c, 5, 53, 0
1, 24840, Note_on_c, 5, 53, 120
1, 24840, Note_on_c, 10, 58, 120
1, 24840, Note_on_c, 10, 53, 120
1, 24840, Note_on_c, 1, 58, 120
1, 24840, Note_on_c, 0, 67, 120
1, 24840, Note_on_c, 1, 53, 120
1, 24840, Note_on_c, 5, 58, 120
1, 25080, Note_off_c, 1, 53, 0
1, 25080, Note_off_c, 5, 58, 0
1, 25080, Note_off_c, 10, 53, 0
1, 25080, Note_off_c, 1, 58, 0
1, 25080, Note_off_c, 5, 53, 0
1, 25080, Note_off_c, 10, 58, 0
1, 25080, Note_off_c, 0, 67, 0
1, 25080, Note_on_c, 10, 48, 120
1, 25080, Note_on_c, 1, 48, 120
1, 25080, Note_on_c, 0, 69, 120
1, 25080, Note_on_c, 5, 48, 120
1, 25560, Note_off_c, 10, 48, 0
1, 25560, Note_off_c, 5, 48, 0
1, 25560, Note_off_c, 1, 48, 0
1, 25560, Note_off_c, 0, 69, 0
1, 25560, Note_on_c, 5, 58, 120
1, 25560, Note_on_c, 0, 65, 120
1, 25560, Note_on_c, 5, 53, 120
1, 25560, Note_on_c, 10, 58, 120
1, 25560, Note_on_c, 10, 53, 120
1, 25560, Note_on_c, 1, 58, 120
1, 25560, Note_on_c, 1, 53, 120
1, 25800, Note_off_c, 10, 53, 0
1, 25800, Note_off_c, 5, 53, 0
1, 25800, Note_off_c, 1, 58, 0
1, 25800, Note_off_c, 5, 58, 0
1, 25800, Note_off_c, 1, 53, 0
1, 25800, Note_off_c, 10, 58, 0
1, 25800, Note_off_c, 0, 65, 0
1, 25800, Note_on_c, 10, 48, 120
1, 25800, Note_on_c, 0, 65, 120
1, 25800, Note_on_c, 5, 48, 120
1, 25800, Note_on_c, 1, 48, 120
1, 26040, Note_off_c, 10, 48, 0
1, 26040, Note_off_c, 1, 48, 0
1, 26040, Note_off_c, 5, 48, 0
1, 26040, Note_on_c, 5, 48, 120
1, 26040, Note_on_c, 10, 48, 120
1, 26040, Note_on_c, 1, 48, 120
1, 26280, Note_off_c, 0, 65, 0
1, 26280, Note_off_c, 5, 48, 0
1, 26280, Note_off_c, 1, 48, 0
1, 26280, Note_off_c, 10, 48, 0
1, 26280, Note_on_c, 10, 53, 120
1, 26280, Note_on_c, 5, 58, 120
1, 26280, Note_on_c, 1, 53, 120
1, 26280, Note_on_c, 0, 62, 120
1, 26280, Note_on_c, 1, 58, 120
1, 26280, Note_on_c, 10, 58, 120
1, 26280, Note_on_c, 5, 53, 120
1, 26760, Note_off_c, 5, 53, 0
1, 26760, Note_off_c, 10, 53, 0
1, 26760, Note_off_c, 1, 58, 0
1, 26760, Note_off_c, 10, 58, 0
1, 26760, Note_off_c, 0, 62, 0
1, 26760, Note_off_c, 1, 53, 0
1, 26760, Note_off_c, 5, 58, 0
1, 26760, Note_on_c, 1, 58, 120
1, 26760, Note_on_c, 1, 53, 120
1, 26760, Note_on_c, 5, 58, 120
1, 26760, Note_on_c, 10, 58, 120
1, 26760, Note_on_c, 10, 53, 120
1, 26760, Note_on_c, 0, 65, 120
1, 26760, Note_on_c, 5, 53, 120
1, 27000, Note_off_c, 0, 65, 0
1, 27000, Note_off_c, 10, 53, 0
1, 27000, Note_off_c, 1, 58, 0
1, 27000, Note_off_c, 5, 58, 0
1, 27000, Note_off_c, 5, 53, 0
1, 27000, Note_off_c, 1, 53, 0
1, 27000, Note_off_c, 10, 58, 0
1, 27000, Note_on_c, 10, 50, 120
1, 27000, Note_on_c, 10, 60, 120
1, 27000, Note_on_c, 1, 60, 120
1, 27000, Note_on_c, 1, 57, 120
1, 27000, Note_on_c, 10, 57, 120
1, 27000, Note_on_c, 0, 64, 120
1, 27000, Note_on_c, 5, 50, 120
1, 27000, Note_on_c, 5, 60, 120
1, 27000, Note_on_c, 5, 57, 120
1, 27000, Note_on_c, 1, 50, 120
1, 27480, Note_off_c, 5, 50, 0
1, 27480, Note_off_c, 10, 57, 0
1, 27480, Note_off_c, 5, 57, 0
1, 27480, Note_off_c, 1, 57, 0
1, 27480, Note_off_c, 5, 60, 0
1, 27480, Note_off_c, 10, 50, 0
1, 27480, Note_off_c, 10, 60, 0
1, 27480, Note_off_c, 1, 50, 0
1, 27480, Note_off_c, 0, 64, 0
1, 27480, Note_off_c, 1, 60, 0
1, 27480, Note_on_c, 5, 50, 120
1, 27480, Note_on_c, 10, 57, 120
1, 27480, Note_on_c, 1, 57, 120
1, 27480, Note_on_c, 10, 50, 120
1, 27480, Note_on_c, 1, 50, 120
1, 27480, Note_on_c, 10, 60, 120
1, 27480, Note_on_c, 0, 65, 120
1, 27480, Note_on_c, 5, 57, 120
1, 27480, Note_on_c, 5, 60, 120
1, 27480, Note_on_c, 1, 60, 120
1, 27720, Note_off_c, 0, 65, 0
1, 27720, Note_on_c, 0, 64, 120
1, 27960, Note_off_c, 5, 50, 0
1, 27960, Note_off_c, 1, 57, 0
1, 27960, Note_off_c, 5, 57, 0
1, 27960, Note_off_c, 10, 57, 0
1, 27960, Note_off_c, 5, 60, 0
1, 27960, Note_off_c, 1, 50, 0
1, 27960, Note_off_c, 10, 50, 0
1, 27960, Note_off_c, 1, 60, 0
1, 27960, Note_off_c, 10, 60, 0
1, 27960, Note_on_c, 1, 50, 120
1, 27960, Note_on_c, 10, 50, 120
1, 27960, Note_on_c, 5, 50, 120
1, 28200, Note_off_c, 0, 64, 0
1, 28200, Note_off_c, 10, 50, 0
1, 28200, Note_off_c, 5, 50, 0
1, 28200, Note_off_c, 1, 50, 0
1, 28200, Note_on_c, 1, 60, 120
1, 28200, Note_on_c, 5, 57, 120
1, 28200, Note_on_c, 10, 57, 120
1, 28200, Note_on_c, 5, 60, 120
1, 28200, Note_on_c, 1, 57, 120
1, 28200, Note_on_c, 10, 60, 120
1, 28200, Note_on_c, 0, 62, 120
1, 28440, Note_off_c, 0, 62, 0
1, 28440, Note_on_c, 0, 62, 120
1, 28680, Note_off_c, 5, 57, 0
1, 28680, Note_off_c, 1, 60, 0
1, 28680, Note_off_c, 1, 57, 0
1, 28680, Note_off_c, 10, 60, 0
1, 28680, Note_off_c, 5, 60, 0
1, 28680, Note_off_c, 10, 57, 0
1, 28680, Note_on_c, 5, 60, 120
1, 28680, Note_on_c, 10, 50, 120
1, 28680, Note_on_c, 5, 50, 120
1, 28680, Note_on_c, 1, 60, 120
1, 28680, Note_on_c, 1, 57, 120
1, 28680, Note_on_c, 10, 57, 120
1, 28680, Note_on_c, 1, 50, 120
1, 28680, Note_on_c, 5, 57, 120
1, 28680, Note_on_c, 10, 60, 120
1, 28920, Note_off_c, 0, 62, 0
1, 28920, Note_off_c, 5, 57, 0
1, 28920, Note_off_c, 1, 57, 0
1, 28920, Note_off_c, 5, 50, 0
1, 28920, Note_off_c, 10, 50, 0
1, 28920, Note_off_c, 10, 57, 0
1, 28920, Note_off_c, 10, 60, 0
1, 28920, Note_off_c, 1, 50, 0
1, 28920, Note_off_c, 5, 60, 0
1, 28920, Note_off_c, 1, 60, 0
1, 28920, Note_on_c, 5, 43, 120
1, 28920, Note_on_c, 10, 43, 120
1, 28920, Note_on_c, 1, 43, 120
1, 29160, Note_on_c, 0, 59, 120
1, 29160, Note_on_c, 0, 67, 120
1, 29160, Note_on_c, 0, 57, 120
1, 29400, Note_off_c, 0, 57, 0
1, 29400, Note_off_c, 0, 59, 0
1, 29400, Note_off_c, 0, 67, 0
1, 29640, Note_on_c, 0, 65, 120
1, 29640, Note_on_c, 0, 57, 120
1, 29640, Note_on_c, 0, 59, 120
1, 29880, Note_off_c, 0, 59, 0
1, 29880, Note_off_c, 0, 57, 0
1, 29880, Note_off_c, 0, 65, 0
1, 30120, Note_on_c, 0, 57, 120
1, 30120, Note_on_c, 0, 59, 120
1, 30120, Note_on_c, 0, 64, 120
1, 30360, Note_off_c, 0, 64, 0
1, 30360, Note_off_c, 0, 57, 0
1, 30360, Note_off_c, 0, 59, 0
1, 30600, Note_on_c, 0, 59, 120
1, 30600, Note_on_c, 0, 57, 120
1, 30600, Note_on_c, 0, 64, 120
1, 30840, Note_off_c, 10, 43, 0
1, 30840, Note_off_c, 1, 43, 0
1, 30840, Note_off_c, 0, 57, 0
1, 30840, Note_off_c, 5, 43, 0
1, 30840, Note_off_c, 0, 64, 0
1, 30840, Note_off_c, 0, 59, 0
1, 30840, Note_on_c, 0, 76, 120
1, 30840, Note_on_c, 10, 60, 120
1, 30840, Note_on_c, 0, 72, 120
1, 30840, Note_on_c, 1, 50, 120
1, 30840, Note_on_c, 1, 60, 120
1, 30840, Note_on_c, 0, 69, 120
1, 30840, Note_on_c, 5, 50, 120
1, 30840, Note_on_c, 10, 50, 120
1, 30840, Note_on_c, 5, 60, 120
1, 31320, Note_off_c, 1, 50, 0
1, 31320, Note_off_c, 5, 60, 0
1, 31320, Note_off_c, 0, 76, 0
1, 31320, Note_off_c, 10, 50, 0
1, 31320, Note_off_c, 1, 60, 0
1, 31320, Note_off_c, 0, 69, 0
1, 31320, Note_off_c, 5, 50, 0
1, 31320, Note_off_c, 10, 60, 0
1, 31320, Note_off_c, 0, 72, 0
1, 31320, Note_on_c, 10, 50, 120
1, 31320, Note_on_c, 5, 60, 120
1, 31320, Note_on_c, 5, 50, 120
1, 31320, Note_on_c, 10, 60, 120
1, 31320, Note_on_c, 0, 76, 120
1, 31320, Note_on_c, 1, 50, 120
1, 31320, Note_on_c, 1, 60, 120
1, 31320, Note_on_c, 0, 69, 120
1, 31320, Note_on_c, 0, 72, 120
1, 31800, Note_off_c, 1, 50, 0
1, 31800, Note_off_c, 1, 60, 0
1, 31800, Note_off_c, 0, 76, 0
1, 31800, Note_off_c, 5, 50, 0
1, 31800, Note_off_c, 5, 60, 0
1, 31800, Note_off_c, 0, 69, 0
1, 31800, Note_off_c, 10, 50, 0
1, 31800, Note_off_c, 10, 60, 0
1, 31800, Note_off_c, 0, 72, 0
1, 32040, Note_on_c, 10, 50, 120
1, 32040, Note_on_c, 0, 69, 120
1, 32040, Note_on_c, 1, 60, 120
1, 32040, Note_on_c, 5, 60, 120
1, 32040, Note_on_c, 5, 50, 120
1, 32040, Note_on_c, 1, 50, 120
1, 32040, Note_on_c, 10, 60, 120
1, 32040, Note_on_c, 0, 76, 120
1, 32040, Note_on_c, 0, 72, 120
1, 32280, Note_off_c, 5, 50, 0
1, 32280, Note_off_c, 1, 60, 0
1, 32280, Note_off_c, 0, 76, 0
1, 32280, Note_off_c, 10, 50, 0
1, 32280, Note_off_c, 5, 60, 0
1, 32280, Note_off_c, 0, 69, 0
1, 32280, Note_off_c, 1, 50, 0
1, 32280, Note_off_c, 10, 60, 0
1, 32280, Note_off_c, 0, 72, 0
1, 32520, Note_on_c, 10, 50, 120
1, 32520, Note_on_c, 1, 60, 120
1, 32520, Note_on_c, 5, 60, 120
1, 32520, Note_on_c, 0, 69, 120
1, 32520, Note_on_c, 10, 60, 120
1, 32520, Note_on_c, 1, 50, 120
1, 32520, Note_on_c, 0, 72, 120
1, 32520, Note_on_c, 0, 76, 120
1, 32520, Note_on_c, 5, 50, 120
1, 32760, Note_off_c, 10, 50, 0
1, 32760, Note_off_c, 1, 60, 0
1, 32760, Note_off_c, 5, 60, 0
1, 32760, Note_off_c, 0, 69, 0
1, 32760, Note_off_c, 5, 50, 0
1, 32760, Note_off_c, 1, 50, 0
1, 32760, Note_off_c, 10, 60, 0
1, 32760, Note_off_c, 0, 76, 0
1, 32760, Note_off_c, 0, 72, 0
1, 32760, Note_on_c, 1, 43, 120
1, 32760, Note_on_c, 10, 43, 120
1, 32760, Note_on_c, 5, 43, 120
1, 33000, Note_on_c, 0, 71, 120
1, 33000, Note_on_c, 0, 69, 120
1, 33000, Note_on_c, 0, 79, 120
1, 33240, Note_off_c, 0, 69, 0
1, 33240, Note_off_c, 0, 71, 0
1, 33240, Note_off_c, 0, 79, 0
1, 33480, Note_on_c, 0, 77, 120
1, 33480, Note_on_c, 0, 71, 120
1, 33480, Note_on_c, 0, 69, 120
1, 33720, Note_off_c, 0, 71, 0
1, 33720, Note_off_c, 0, 69, 0
1, 33720, Note_off_c, 0, 77, 0
1, 33960, Note_on_c, 0, 76, 120
1, 33960, Note_on_c, 0, 69, 120
1, 33960, Note_on_c, 0, 71, 120
1, 34200, Note_off_c, 0, 76, 0
1, 34200, Note_off_c, 0, 69, 0
1, 34200, Note_off_c, 0, 71, 0
1, 34440, Note_on_c, 0, 69, 120
1, 34440, Note_on_c, 0, 76, 120
1, 34440, Note_on_c, 0, 71, 120
1, 34680, Note_off_c, 1, 43, 0
1, 34680, Note_off_c, 10, 43, 0
1, 34680, Note_off_c, 0, 69, 0
1, 34680, Note_off_c, 5, 43, 0
1, 34680, Note_off_c, 0, 76, 0
1, 34680, Note_off_c, 0, 71, 0
1, 34680, Note_on_c, 10, 60, 120
1, 34680, Note_on_c, 3, 69, 120
1, 34680, Note_on_c, 10, 53, 120
1, 34680, Note_on_c, 1, 53, 120
1, 34680, Note_on_c, 1, 60, 120
1, 34680, Note_on_c, 0, 69, 120
1, 34680, Note_on_c, 2, 69, 120
1, 34680, Note_on_c, 5, 53, 120
1, 34680, Note_on_c, 5, 60, 120
1, 34920, Note_off_c, 0, 69, 0
1, 34920, Note_off_c, 3, 69, 0
1, 34920, Note_off_c, 2, 69, 0
1, 34920, Note_on_c, 3, 70, 120
1, 34920, Note_on_c, 0, 70, 120
1, 34920, Note_on_c, 2, 70, 120
1, 35160, Note_off_c, 3, 70, 0
1, 35160, Note_off_c, 0, 70, 0
1, 35160, Note_off_c, 2, 70, 0
1, 35160, Note_on_c, 3, 72, 120
1, 35160, Note_on_c, 0, 72, 120
1, 35160, Note_on_c, 2, 72, 120
1, 35400, Note_off_c, 5, 60, 0
1, 35400, Note_off_c, 10, 60, 0
1, 35400, Note_off_c, 5, 53, 0
1, 35400, Note_off_c, 10, 53, 0
1, 35400, Note_off_c, 1, 60, 0
1, 35400, Note_off_c, 0, 72, 0
1, 35400, Note_off_c, 1, 53, 0
1, 35400, Note_off_c, 2, 72, 0
1, 35400, Note_off_c, 3, 72, 0
1, 35400, Note_on_c, 5, 58, 120
1, 35400, Note_on_c, 10, 58, 120
1, 35400, Note_on_c, 10, 62, 120
1, 35400, Note_on_c, 3, 76, 120
1, 35400, Note_on_c, 2, 76, 120
1, 35400, Note_on_c, 1, 58, 120
1, 35400, Note_on_c, 1, 62, 120
1, 35400, Note_on_c, 0, 76, 120
1, 35400, Note_on_c, 5, 62, 120
1, 35880, Note_off_c, 2, 76, 0
1, 35880, Note_off_c, 3, 76, 0
1, 35880, Note_off_c, 0, 76, 0
1, 35880, Note_on_c, 0, 74, 120
1, 35880, Note_on_c, 2, 74, 120
1, 35880, Note_on_c, 3, 74, 120
1, 36360, Note_off_c, 2, 74, 0
1, 36360, Note_off_c, 0, 74, 0
1, 36360, Note_off_c, 3, 74, 0
1, 36360, Note_on_c, 0, 70, 120
1, 36360, Note_on_c, 3, 70, 120
1, 36360, Note_on_c, 2, 70, 120
1, 36600, Note_off_c, 1, 62, 0
1, 36600, Note_off_c, 5, 58, 0
1, 36600, Note_off_c, 3, 70, 0
1, 36600, Note_off_c, 10, 62, 0
1, 36600, Note_off_c, 1, 58, 0
1, 36600, Note_off_c, 2, 70, 0
1, 36600, Note_off_c, 5, 62, 0
1, 36600, Note_off_c, 10, 58, 0
1, 36600, Note_off_c, 0, 70, 0
1, 36600, Note_on_c, 0, 74, 120
1, 36600, Note_on_c, 3, 74, 120
1, 36600, Note_on_c, 10, 62, 120
1, 36600, Note_on_c, 5, 58, 120
1, 36600, Note_on_c, 5, 62, 120
1, 36600, Note_on_c, 1, 62, 120
1, 36600, Note_on_c, 10, 58, 120
1, 36600, Note_on_c, 1, 58, 120
1, 36600, Note_on_c, 2, 74, 120
1, 36840, Note_off_c, 2, 74, 0
1, 36840, Note_off_c, 3, 74, 0
1, 36840, Note_off_c, 0, 74, 0
1, 36840, Note_on_c, 3, 72, 120
1, 36840, Note_on_c, 2, 72, 120
1, 36840, Note_on_c, 0, 72, 120
1, 37080, Note_off_c, 5, 58, 0
1, 37080, Note_off_c, 1, 62, 0
1, 37080, Note_off_c, 5, 62, 0
1, 37080, Note_off_c, 0, 72, 0
1, 37080, Note_off_c, 10, 62, 0
1, 37080, Note_off_c, 2, 72, 0
1, 37080, Note_off_c, 1, 58, 0
1, 37080, Note_off_c, 10, 58, 0
1, 37080, Note_off_c, 3, 72, 0
1, 37080, Note_on_c, 5, 53, 120
1, 37080, Note_on_c, 3, 72, 120
1, 37080, Note_on_c, 2, 72, 120
1, 37080, Note_on_c, 10, 60, 120
1, 37080, Note_on_c, 1, 60, 120
1, 37080, Note_on_c, 5, 60, 120
1, 37080, Note_on_c, 10, 53, 120
1, 37080, Note_on_c, 0, 72, 120
1, 37080, Note_on_c, 1, 53, 120
1, 37560, Note_off_c, 1, 53, 0
1, 37560, Note_off_c, 5, 53, 0
1, 37560, Note_off_c, 10, 60, 0
1, 37560, Note_off_c, 3, 72, 0
1, 37560, Note_off_c, 1, 60, 0
1, 37560, Note_off_c, 5, 60, 0
1, 37560, Note_off_c, 10, 53, 0
1, 37560, Note_off_c, 2, 72, 0
1, 37560, Note_off_c, 0, 72, 0
1, 37560, Note_on_c, 1, 53, 120
1, 37560, Note_on_c, 5, 53, 120
1, 37560, Note_on_c, 10, 53, 120
1, 37800, Note_on_c, 0, 53, 120
1, 37800, Note_on_c, 3, 53, 120
1, 37800, Note_on_c, 10, 57, 120
1, 37800, Note_on_c, 5, 57, 120
1, 37800, Note_on_c, 2, 53, 120
1, 37800, Note_on_c, 1, 57, 120
1, 38040, Note_off_c, 1, 57, 0
1, 38040, Note_off_c, 5, 53, 0
1, 38040, Note_off_c, 10, 57, 0
1, 38040, Note_off_c, 10, 53, 0
1, 38040, Note_off_c, 5, 57, 0
1, 38040, Note_off_c, 1, 53, 0
1, 38040, Note_on_c, 10, 52, 120
1, 38040, Note_on_c, 1, 52, 120
1, 38040, Note_on_c, 5, 52, 120
1, 38280, Note_off_c, 0, 53, 0
1, 38280, Note_off_c, 2, 53, 0
1, 38280, Note_off_c, 3, 53, 0
1, 38280, Note_on_c, 1, 55, 120
1, 38280, Note_on_c, 2, 52, 120
1, 38280, Note_on_c, 0, 52, 120
1, 38280, Note_on_c, 10, 55, 120
1, 38280, Note_on_c, 5, 55, 120
1, 38280, Note_on_c, 3, 52, 120
1, 38520, Note_off_c, 5, 52, 0
1, 38520, Note_off_c, 3, 52, 0
1, 38520, Note_off_c, 1, 55, 0
1, 38520, Note_off_c, 10, 52, 0
1, 38520, Note_off_c, 2, 52, 0
1, 38520, Note_off_c, 10, 55, 0
1, 38520, Note_off_c, 1, 52, 0
1, 38520, Note_off_c, 0, 52, 0
1, 38520, Note_off_c, 5, 55, 0
1, 38520, Note_on_c, 3, 65, 120
1, 38520, Note_on_c, 10, 57, 120
1, 38520, Note_on_c, 0, 65, 120
1, 38520, Note_on_c, 5, 57, 120
1, 38520, Note_on_c, 1, 57, 120
1, 38520, Note_on_c, 2, 65, 120
1, 38520, Note_on_c, 10, 50, 120
1, 38520, Note_on_c, 5, 50, 120
1, 38520, Note_on_c, 1, 50, 120
1, 38760, Note_off_c, 3, 65, 0
1, 38760, Note_off_c, 2, 65, 0
1, 38760, Note_off_c, 0, 65, 0
1, 38760, Note_on_c, 3, 67, 120
1, 38760, Note_on_c, 2, 67, 120
1, 38760, Note_on_c, 0, 67, 120
1, 39000, Note_off_c, 2, 67, 0
1, 39000, Note_off_c, 0, 67, 0
1, 39000, Note_off_c, 3, 67, 0
1, 39000, Note_on_c, 3, 69, 120
1, 39000, Note_on_c, 0, 69, 120
1, 39000, Note_on_c, 2, 69, 120
1, 39240, Note_off_c, 1, 50, 0
1, 39240, Note_off_c, 10, 50, 0
1, 39240, Note_off_c, 1, 57, 0
1, 39240, Note_off_c, 0, 69, 0
1, 39240, Note_off_c, 10, 57, 0
1, 39240, Note_off_c, 5, 57, 0
1, 39240, Note_off_c, 2, 69, 0
1, 39240, Note_off_c, 5, 50, 0
1, 39240, Note_off_c, 3, 69, 0
1, 39240, Note_on_c, 3, 72, 120
1, 39240, Note_on_c, 1, 58, 120
1, 39240, Note_on_c, 5, 55, 120
1, 39240, Note_on_c, 10, 58, 120
1, 39240, Note_on_c, 5, 58, 120
1, 39240, Note_on_c, 0, 72, 120
1, 39240, Note_on_c, 2, 72, 120
1, 39240, Note_on_c, 1, 55, 120
1, 39240, Note_on_c, 10, 55, 120
1, 39720, Note_off_c, 0, 72, 0
1, 39720, Note_off_c, 2, 72, 0
1, 39720, Note_off_c, 3, 72, 0
1, 39720, Note_on_c, 2, 70, 120
1, 39720, Note_on_c, 0, 70, 120
1, 39720, Note_on_c, 3, 70, 120
1, 40200, Note_off_c, 3, 70, 0
1, 40200, Note_off_c, 2, 70, 0
1, 40200, Note_off_c, 0, 70, 0
1, 40200, Note_on_c, 3, 67, 120
1, 40200, Note_on_c, 0, 67, 120
1, 40200, Note_on_c, 2, 67, 120
1, 40440, Note_off_c, 1, 55, 0
1, 40440, Note_off_c, 1, 58, 0
1, 40440, Note_off_c, 5, 55, 0
1, 40440, Note_off_c, 10, 55, 0
1, 40440, Note_off_c, 10, 58, 0
1, 40440, Note_off_c, 0, 67, 0
1, 40440, Note_off_c, 3, 67, 0
1, 40440, Note_off_c, 5, 58, 0
1, 40440, Note_off_c, 2, 67, 0
1, 40440, Note_on_c, 10, 58, 120
1, 40440, Note_on_c, 5, 58, 120
1, 40440, Note_on_c, 10, 55, 120
1, 40440, Note_on_c, 5, 55, 120
1, 40440, Note_on_c, 0, 70, 120
1, 40440, Note_on_c, 3, 70, 120
1, 40440, Note_on_c, 2, 70, 120
1, 40440, Note_on_c, 1, 58, 120
1, 40440, Note_on_c, 1, 55, 120
1, 40680, Note_off_c, 0, 70, 0
1, 40680, Note_off_c, 2, 70, 0
1, 40680, Note_off_c, 3, 70, 0
1, 40680, Note_on_c, 3, 69, 120
1, 40680, Note_on_c, 0, 69, 120
1, 40680, Note_on_c, 2, 69, 120
1, 40920, Note_off_c, 5, 55, 0
1, 40920, Note_off_c, 2, 69, 0
1, 40920, Note_off_c, 1, 55, 0
1, 40920, Note_off_c, 5, 58, 0
1, 40920, Note_off_c, 0, 69, 0
1, 40920, Note_off_c, 10, 55, 0
1, 40920, Note_off_c, 1, 58, 0
1, 40920, Note_off_c, 10, 58, 0
1, 40920, Note_off_c, 3, 69, 0
1, 40920, Note_on_c, 5, 57, 120
1, 40920, Note_on_c, 10, 50, 120
1, 40920, Note_on_c, 3, 69, 120
1, 40920, Note_on_c, 0, 69, 120
1, 40920, Note_on_c, 10, 57, 120
1, 40920, Note_on_c, 1, 50, 120
1, 40920, Note_on_c, 2, 69, 120
1, 40920, Note_on_c, 5, 50, 120
1, 40920, Note_on_c, 1, 57, 120
1, 41400, Note_off_c, 2, 69, 0
1, 41400, Note_off_c, 1, 50, 0
1, 41400, Note_off_c, 0, 69, 0
1, 41400, Note_off_c, 3, 69, 0
1, 41400, Note_off_c, 1, 57, 0
1, 41400, Note_off_c, 10, 57, 0
1, 41400, Note_off_c, 10, 50, 0
1, 41400, Note_off_c, 5, 50, 0
1, 41400, Note_off_c, 5, 57, 0
1, 41400, Note_on_c, 1, 50, 120
1, 41400, Note_on_c, 5, 50, 120
1, 41400, Note_on_c, 10, 50, 120
1, 41640, Note_on_c, 10, 57, 120
1, 41640, Note_on_c, 2, 53, 120
1, 41640, Note_on_c, 5, 57, 120
1, 41640, Note_on_c, 0, 53, 120
1, 41640, Note_on_c, 3, 53, 120
1, 41640, Note_on_c, 1, 57, 120
1, 41880, Note_off_c, 5, 57, 0
1, 41880, Note_off_c, 3, 53, 0
1, 41880, Note_off_c, 1, 57, 0
1, 41880, Note_off_c, 5, 50, 0
1, 41880, Note_off_c, 2, 53, 0
1, 41880, Note_off_c, 0, 53, 0
1, 41880, Note_off_c, 10, 50, 0
1, 41880, Note_off_c, 1, 50, 0
1, 41880, Note_off_c, 10, 57, 0
1, 41880, Note_on_c, 5, 48, 120
1, 41880, Note_on_c, 1, 48, 120
1, 41880, Note_on_c, 10, 48, 120
1, 42120, Note_on_c, 1, 55, 120
1, 42120, Note_on_c, 10, 55, 120
1, 42120, Note_on_c, 5, 55, 120
1, 42120, Note_on_c, 2, 52, 120
1, 42120, Note_on_c, 0, 52, 120
1, 42120, Note_on_c, 3, 52, 120
1, 42360, Note_off_c, 10, 55, 0
1, 42360, Note_off_c, 5, 48, 0
1, 42360, Note_off_c, 0, 52, 0
1, 42360, Note_off_c, 1, 48, 0
1, 42360, Note_off_c, 2, 52, 0
1, 42360, Note_off_c, 3, 52, 0
1, 42360, Note_off_c, 1, 55, 0
1, 42360, Note_off_c, 10, 48, 0
1, 42360, Note_off_c, 5, 55, 0
1, 42360, Note_on_c, 10, 46, 120
1, 42360, Note_on_c, 5, 46, 120
1, 42360, Note_on_c, 1, 46, 120
1, 42600, Note_on_c, 2, 62, 120
1, 42600, Note_on_c, 3, 62, 120
1, 42600, Note_on_c, 0, 62, 120
1, 42840, Note_off_c, 5, 46, 0
1, 42840, Note_off_c, 0, 62, 0
1, 42840, Note_off_c, 3, 62, 0
1, 42840, Note_off_c, 1, 46, 0
1, 42840, Note_off_c, 10, 46, 0
1, 42840, Note_off_c, 2, 62, 0
1, 42840, Note_on_c, 0, 64, 120
1, 42840, Note_on_c, 1, 58, 120
1, 42840, Note_on_c, 10, 58, 120
1, 42840, Note_on_c, 10, 53, 120
1, 42840, Note_on_c, 5, 53, 120
1, 42840, Note_on_c, 1, 53, 120
1, 42840, Note_on_c, 5, 58, 120
1, 42840, Note_on_c, 3, 64, 120
1, 42840, Note_on_c, 2, 64, 120
1, 43080, Note_off_c, 0, 64, 0
1, 43080, Note_off_c, 2, 64, 0
1, 43080, Note_off_c, 3, 64, 0
1, 43080, Note_on_c, 0, 65, 120
1, 43080, Note_on_c, 3, 65, 120
1, 43080, Note_on_c, 2, 65, 120
1, 43320, Note_off_c, 5, 53, 0
1, 43320, Note_off_c, 1, 58, 0
1, 43320, Note_off_c, 5, 58, 0
1, 43320, Note_off_c, 0, 65, 0
1, 43320, Note_off_c, 10, 58, 0
1, 43320, Note_off_c, 10, 53, 0
1, 43320, Note_off_c, 1, 53, 0
1, 43320, Note_off_c, 2, 65, 0
1, 43320, Note_off_c, 3, 65, 0
1, 43320, Note_on_c, 1, 48, 120
1, 43320, Note_on_c, 10, 48, 120
1, 43320, Note_on_c, 2, 67, 120
1, 43320, Note_on_c, 3, 67, 120
1, 43320, Note_on_c, 0, 67, 120
1, 43320, Note_on_c, 5, 48, 120
1, 43560, Note_off_c, 5, 48, 0
1, 43560, Note_off_c, 1, 48, 0
1, 43560, Note_off_c, 10, 48, 0
1, 43560, Note_on_c, 1, 58, 120
1, 43560, Note_on_c, 5, 58, 120
1, 43560, Note_on_c, 10, 60, 120
1, 43560, Note_on_c, 10, 58, 120
1, 43560, Note_on_c, 1, 60, 120
1, 43560, Note_on_c, 5, 60, 120
1, 43680, Note_off_c, 0, 67, 0
1, 43680, Note_off_c, 2, 67, 0
1, 43680, Note_off_c, 3, 67, 0
1, 43680, Note_on_c, 0, 69, 120
1, 43680, Note_on_c, 3, 69, 120
1, 43680, Note_on_c, 2, 69, 120
1, 44040, Note_off_c, 1, 58, 0
1, 44040, Note_off_c, 5, 58, 0
1, 44040, Note_off_c, 1, 60, 0
1, 44040, Note_off_c, 10, 60, 0
1, 44040, Note_off_c, 5, 60, 0
1, 44040, Note_off_c, 3, 69, 0
1, 44040, Note_off_c, 2, 69, 0
1, 44040, Note_off_c, 10, 58, 0
1, 44040, Note_off_c, 0, 69, 0
1, 44040, Note_on_c, 0, 67, 120
1, 44040, Note_on_c, 10, 60, 120
1, 44040, Note_on_c, 3, 67, 120
1, 44040, Note_on_c, 2, 67, 120
1, 44040, Note_on_c, 1, 60, 120
1, 44040, Note_on_c, 1, 58, 120
1, 44040, Note_on_c, 5, 60, 120
1, 44040, Note_on_c, 10, 58, 120
1, 44040, Note_on_c, 5, 58, 120
1, 44280, Note_off_c, 10, 58, 0
1, 44280, Note_off_c, 1, 58, 0
1, 44280, Note_off_c, 1, 60, 0
1, 44280, Note_off_c, 5, 60, 0
1, 44280, Note_off_c, 10, 60, 0
1, 44280, Note_off_c, 5, 58, 0
1, 44280, Note_on_c, 5, 45, 120
1, 44280, Note_on_c, 1, 45, 120
1, 44280, Note_on_c, 10, 45, 120
1, 44520, Note_off_c, 0, 67, 0
1, 44520, Note_off_c, 2, 67, 0
1, 44520, Note_off_c, 3, 67, 0
1, 44520, Note_on_c, 3, 69, 120
1, 44520, Note_on_c, 0, 69, 120
1, 44520, Note_on_c, 2, 69, 120
1, 44760, Note_off_c, 1, 45, 0
1, 44760, Note_off_c, 10, 45, 0
1, 44760, Note_off_c, 5, 45, 0
1, 44760, Note_off_c, 0, 69, 0
1, 44760, Note_off_c, 2, 69, 0
1, 44760, Note_off_c, 3, 69, 0
1, 44760, Note_on_c, 3, 69, 120
1, 44760, Note_on_c, 5, 55, 120
1, 44760, Note_on_c, 5, 60, 120
1, 44760, Note_on_c, 10, 60, 120
1, 44760, Note_on_c, 10, 55, 120
1, 44760, Note_on_c, 1, 55, 120
1, 44760, Note_on_c, 1, 60, 120
1, 44760, Note_on_c, 0, 69, 120
1, 44760, Note_on_c, 2, 69, 120
1, 45000, Note_off_c, 10, 60, 0
1, 45000, Note_off_c, 1, 55, 0
1, 45000, Note_off_c, 1, 60, 0
1, 45000, Note_off_c, 5, 55, 0
1, 45000, Note_off_c, 5, 60, 0
1, 45000, Note_off_c, 10, 55, 0
1, 45000, Note_on_c, 5, 45, 120
1, 45000, Note_on_c, 1, 45, 120
1, 45000, Note_on_c, 10, 45, 120
1, 45240, Note_off_c, 5, 45, 0
1, 45240, Note_off_c, 1, 45, 0
1, 45240, Note_off_c, 10, 45, 0
1, 45240, Note_on_c, 1, 50, 120
1, 45240, Note_on_c, 10, 50, 120
1, 45240, Note_on_c, 5, 50, 120
1, 45480, Note_off_c, 1, 50, 0
1, 45480, Note_off_c, 5, 50, 0
1, 45480, Note_off_c, 10, 50, 0
1, 45480, Note_on_c, 5, 57, 120
1, 45480, Note_on_c, 10, 53, 120
1, 45480, Note_on_c, 5, 53, 120
1, 45480, Note_on_c, 10, 57, 120
1, 45480, Note_on_c, 1, 57, 120
1, 45480, Note_on_c, 1, 53, 120
1, 45960, Note_off_c, 5, 57, 0
1, 45960, Note_off_c, 10, 53, 0
1, 45960, Note_off_c, 5, 53, 0
1, 45960, Note_off_c, 10, 57, 0
1, 45960, Note_off_c, 1, 57, 0
1, 45960, Note_off_c, 1, 53, 0
1, 45960, Note_on_c, 1, 57, 120
1, 45960, Note_on_c, 5, 53, 120
1, 45960, Note_on_c, 10, 57, 120
1, 45960, Note_on_c, 1, 53, 120
1, 45960, Note_on_c, 5, 57, 120
1, 45960, Note_on_c, 10, 53, 120
1, 46200, Note_off_c, 3, 69, 0
1, 46200, Note_off_c, 10, 53, 0
1, 46200, Note_off_c, 5, 53, 0
1, 46200, Note_off_c, 1, 53, 0
1, 46200, Note_off_c, 0, 69, 0
1, 46200, Note_off_c, 2, 69, 0
1, 46200, Note_off_c, 10, 57, 0
1, 46200, Note_off_c, 1, 57, 0
1, 46200, Note_off_c, 5, 57, 0
1, 46200, Note_on_c, 10, 43, 120
1, 46200, Note_on_c, 1, 43, 120
1, 46200, Note_on_c, 5, 43, 120
1, 46440, Note_on_c, 3, 65, 120
1, 46440, Note_on_c, 0, 65, 120
1, 46440, Note_on_c, 2, 65, 120
1, 46680, Note_off_c, 5, 43, 0
1, 46680, Note_off_c, 10, 43, 0
1, 46680, Note_off_c, 0, 65, 0
1, 46680, Note_off_c, 3, 65, 0
1, 46680, Note_off_c, 1, 43, 0
1, 46680, Note_off_c, 2, 65, 0
1, 46680, Note_on_c, 10, 58, 120
1, 46680, Note_on_c, 10, 61, 120
1, 46680, Note_on_c, 5, 58, 120
1, 46680, Note_on_c, 5, 61, 120
1, 46680, Note_on_c, 2, 67, 120
1, 46680, Note_on_c, 1, 58, 120
1, 46680, Note_on_c, 1, 61, 120
1, 46680, Note_on_c, 3, 67, 120
1, 46680, Note_on_c, 0, 67, 120
1, 46920, Note_off_c, 2, 67, 0
1, 46920, Note_off_c, 0, 67, 0
1, 46920, Note_off_c, 3, 67, 0
1, 46920, Note_on_c, 0, 69, 120
1, 46920, Note_on_c, 2, 69, 120
1, 46920, Note_on_c, 3, 69, 120
1, 47160, Note_off_c, 1, 58, 0
1, 47160, Note_off_c, 1, 61, 0
1, 47160, Note_off_c, 0, 69, 0
1, 47160, Note_off_c, 10, 58, 0
1, 47160, Note_off_c, 10, 61, 0
1, 47160, Note_off_c, 2, 69, 0
1, 47160, Note_off_c, 5, 58, 0
1, 47160, Note_off_c, 5, 61, 0
1, 47160, Note_off_c, 3, 69, 0
1, 47160, Note_on_c, 2, 70, 120
1, 47160, Note_on_c, 3, 70, 120
1, 47160, Note_on_c, 5, 48, 120
1, 47160, Note_on_c, 0, 70, 120
1, 47160, Note_on_c, 1, 48, 120
1, 47160, Note_on_c, 10, 48, 120
1, 47400, Note_off_c, 1, 48, 0
1, 47400, Note_off_c, 10, 48, 0
1, 47400, Note_off_c, 5, 48, 0
1, 47400, Note_on_c, 5, 61, 120
1, 47400, Note_on_c, 1, 58, 120
1, 47400, Note_on_c, 10, 58, 120
1, 47400, Note_on_c, 1, 61, 120
1, 47400, Note_on_c, 10, 61, 120
1, 47400, Note_on_c, 5, 58, 120
1, 47520, Note_off_c, 3, 70, 0
1, 47520, Note_off_c, 2, 70, 0
1, 47520, Note_off_c, 0, 70, 0
1, 47520, Note_on_c, 2, 69, 120
1, 47520, Note_on_c, 3, 69, 120
1, 47520, Note_on_c, 0, 69, 120
1, 47880, Note_off_c, 5, 58, 0
1, 47880, Note_off_c, 5, 61, 0
1, 47880, Note_off_c, 0, 69, 0
1, 47880, Note_off_c, 10, 58, 0
1, 47880, Note_off_c, 10, 61, 0
1, 47880, Note_off_c, 3, 69, 0
1, 47880, Note_off_c, 1, 58, 0
1, 47880, Note_off_c, 1, 61, 0
1, 47880, Note_off_c, 2, 69, 0
1, 47880, Note_on_c, 1, 61, 120
1, 47880, Note_on_c, 5, 58, 120
1, 47880, Note_on_c, 10, 61, 120
1, 47880, Note_on_c, 5, 61, 120
1, 47880, Note_on_c, 10, 58, 120
1, 47880, Note_on_c, 0, 70, 120
1, 47880, Note_on_c, 1, 58, 120
1, 47880, Note_on_c, 2, 70, 120
1, 47880, Note_on_c, 3, 70, 120
1, 48120, Note_off_c, 5, 58, 0
1, 48120, Note_off_c, 10, 58, 0
1, 48120, Note_off_c, 1, 61, 0
1, 48120, Note_off_c, 10, 61, 0
1, 48120, Note_off_c, 5, 61, 0
1, 48120, Note_off_c, 1, 58, 0
1, 48120, Note_on_c, 10, 45, 120
1, 48120, Note_on_c, 1, 45, 120
1, 48120, Note_on_c, 5, 45, 120
1, 48360, Note_off_c, 2, 70, 0
1, 48360, Note_off_c, 0, 70, 0
1, 48360, Note_off_c, 5, 45, 0
1, 48360, Note_off_c, 1, 45, 0
1, 48360, Note_off_c, 3, 70, 0
1, 48360, Note_off_c, 10, 45, 0
1, 48360, Note_on_c, 1, 60, 120
1, 48360, Note_on_c, 1, 55, 120
1, 48360, Note_on_c, 10, 55, 120
1, 48360, Note_on_c, 5, 60, 120
1, 48360, Note_on_c, 5, 55, 120
1, 48360, Note_on_c, 10, 60, 120
1, 48360, Note_on_c, 2, 72, 120
1, 48360, Note_on_c, 0, 72, 120
1, 48360, Note_on_c, 3, 72, 120
1, 48600, Note_off_c, 3, 72, 0
1, 48600, Note_off_c, 0, 72, 0
1, 48600, Note_off_c, 2, 72, 0
1, 48600, Note_on_c, 0, 72, 120
1, 48600, Note_on_c, 3, 72, 120
1, 48600, Note_on_c, 2, 72, 120
1, 48840, Note_off_c, 1, 60, 0
1, 48840, Note_off_c, 5, 60, 0
1, 48840, Note_off_c, 10, 60, 0
1, 48840, Note_off_c, 10, 55, 0
1, 48840, Note_off_c, 1, 55, 0
1, 48840, Note_off_c, 5, 55, 0
1, 48840, Note_on_c, 1, 60, 120
1, 48840, Note_on_c, 10, 60, 120
1, 48840, Note_on_c, 5, 55, 120
1, 48840, Note_on_c, 5, 60, 120
1, 48840, Note_on_c, 10, 55, 120
1, 48840, Note_on_c, 1, 55, 120
1, 49080, Note_off_c, 1, 60, 0
1, 49080, Note_off_c, 5, 55, 0
1, 49080, Note_off_c, 3, 72, 0
1, 49080, Note_off_c, 0, 72, 0
1, 49080, Note_off_c, 1, 55, 0
1, 49080, Note_off_c, 10, 60, 0
1, 49080, Note_off_c, 2, 72, 0
1, 49080, Note_off_c, 10, 55, 0
1, 49080, Note_off_c, 5, 60, 0
1, 49080, Note_on_c, 1, 50, 120
1, 49080, Note_on_c, 5, 50, 120
1, 49080, Note_on_c, 10, 50, 120
1, 49320, Note_off_c, 10, 50, 0
1, 49320, Note_off_c, 1, 50, 0
1, 49320, Note_off_c, 5, 50, 0
1, 49320, Note_on_c, 5, 57, 120
1, 49320, Note_on_c, 1, 57, 120
1, 49320, Note_on_c, 1, 66, 120
1, 49320, Note_on_c, 10, 66, 120
1, 49320, Note_on_c, 5, 66, 120
1, 49320, Note_on_c, 10, 57, 120
1, 49560, Note_on_c, 0, 70, 120
1, 49560, Note_on_c, 3, 70, 120
1, 49560, Note_on_c, 2, 70, 120
1, 49800, Note_off_c, 1, 57, 0
1, 49800, Note_off_c, 10, 66, 0
1, 49800, Note_off_c, 10, 57, 0
1, 49800, Note_off_c, 5, 57, 0
1, 49800, Note_off_c, 1, 66, 0
1, 49800, Note_off_c, 3, 70, 0
1, 49800, Note_off_c, 2, 70, 0
1, 49800, Note_off_c, 5, 66, 0
1, 49800, Note_off_c, 0, 70, 0
1, 49800, Note_on_c, 2, 69, 120
1, 49800, Note_on_c, 0, 69, 120
1, 49800, Note_on_c, 1, 66, 120
1, 49800, Note_on_c, 5, 66, 120
1, 49800, Note_on_c, 10, 57, 120
1, 49800, Note_on_c, 5, 57, 120
1, 49800, Note_on_c, 10, 66, 120
1, 49800, Note_on_c, 3, 69, 120
1, 49800, Note_on_c, 1, 57, 120
1, 50040, Note_off_c, 5, 57, 0
1, 50040, Note_off_c, 5, 66, 0
1, 50040, Note_off_c, 2, 69, 0
1, 50040, Note_off_c, 1, 57, 0
1, 50040, Note_off_c, 10, 66, 0
1, 50040, Note_off_c, 0, 69, 0
1, 50040, Note_off_c, 10, 57, 0
1, 50040, Note_off_c, 1, 66, 0
1, 50040, Note_off_c, 3, 69, 0
1, 50040, Note_on_c, 3, 65, 120
1, 50040, Note_on_c, 1, 43, 120
1, 50040, Note_on_c, 5, 43, 120
1, 50040, Note_on_c, 10, 43, 120
1, 50040, Note_on_c, 0, 65, 120
1, 50040, Note_on_c, 2, 65, 120
1, 50520, Note_off_c, 1, 43, 0
1, 50520, Note_off_c, 5, 43, 0
1, 50520, Note_off_c, 10, 43, 0
1, 50520, Note_on_c, 1, 53, 120
1, 50520, Note_on_c, 10, 53, 120
1, 50520, Note_on_c, 5, 53, 120
1, 50520, Note_on_c, 5, 58, 120
1, 50520, Note_on_c, 1, 58, 120
1, 50520, Note_on_c, 10, 58, 120
1, 50760, Note_off_c, 10, 53, 0
1, 50760, Note_off_c, 1, 53, 0
1, 50760, Note_off_c, 1, 58, 0
1, 50760, Note_off_c, 5, 53, 0
1, 50760, Note_off_c, 5, 58, 0
1, 50760, Note_off_c, 10, 58, 0
1, 50760, Note_on_c, 10, 43, 120
1, 50760, Note_on_c, 1, 43, 120
1, 50760, Note_on_c, 5, 43, 120
1, 51000, Note_off_c, 2, 65, 0
1, 51000, Note_off_c, 0, 65, 0
1, 51000, Note_off_c, 1, 43, 0
1, 51000, Note_off_c, 3, 65, 0
1, 51000, Note_off_c, 10, 43, 0
1, 51000, Note_off_c, 5, 43, 0
1, 51000, Note_on_c, 10, 43, 120
1, 51000, Note_on_c, 5, 43, 120
1, 51000, Note_on_c, 1, 43, 120
1, 51240, Note_off_c, 10, 43, 0
1, 51240, Note_off_c, 1, 43, 0
1, 51240, Note_off_c, 5, 43, 0
1, 51240, Note_on_c, 10, 58, 120
1, 51240, Note_on_c, 3, 62, 120
1, 51240, Note_on_c, 0, 62, 120
1, 51240, Note_on_c, 2, 62, 120
1, 51240, Note_on_c, 5, 53, 120
1, 51240, Note_on_c, 5, 58, 120
1, 51240, Note_on_c, 10, 53, 120
1, 51240, Note_on_c, 1, 58, 120
1, 51240, Note_on_c, 1, 53, 120
1, 51480, Note_off_c, 2, 62, 0
1, 51480, Note_off_c, 1, 58, 0
1, 51480, Note_off_c, 3, 62, 0
1, 51480, Note_off_c, 1, 53, 0
1, 51480, Note_off_c, 10, 58, 0
1, 51480, Note_off_c, 5, 58, 0
1, 51480, Note_off_c, 5, 53, 0
1, 51480, Note_off_c, 10, 53, 0
1, 51480, Note_off_c, 0, 62, 0
1, 51480, Note_on_c, 2, 65, 120
1, 51480, Note_on_c, 3, 65, 120
1, 51480, Note_on_c, 0, 65, 120
1, 51720, Note_off_c, 0, 65, 0
1, 51720, Note_off_c, 2, 65, 0
1, 51720, Note_off_c, 3, 65, 0
1, 51720, Note_on_c, 5, 53, 120
1, 51720, Note_on_c, 1, 58, 120
1, 51720, Note_on_c, 3, 67, 120
1, 51720, Note_on_c, 5, 58, 120
1, 51720, Note_on_c, 0, 67, 120
1, 51720, Note_on_c, 1, 53, 120
1, 51720, Note_on_c, 10, 58, 120
1, 51720, Note_on_c, 2, 67, 120
1, 51720, Note_on_c, 10, 53, 120
1, 51960, Note_off_c, 1, 53, 0
1, 51960, Note_off_c, 5, 58, 0
1, 51960, Note_off_c, 10, 58, 0
1, 51960, Note_off_c, 1, 58, 0
1, 51960, Note_off_c, 5, 53, 0
1, 51960, Note_off_c, 3, 67, 0
1, 51960, Note_off_c, 10, 53, 0
1, 51960, Note_off_c, 0, 67, 0
1, 51960, Note_off_c, 2, 67, 0
1, 51960, Note_on_c, 10, 48, 120
1, 51960, Note_on_c, 1, 48, 120
1, 51960, Note_on_c, 2, 69, 120
1, 51960, Note_on_c, 3, 69, 120
1, 51960, Note_on_c, 0, 69, 120
1, 51960, Note_on_c, 5, 48, 120
1, 52440, Note_off_c, 2, 69, 0
1, 52440, Note_off_c, 10, 48, 0
1, 52440, Note_off_c, 3, 69, 0
1, 52440, Note_off_c, 1, 48, 0
1, 52440, Note_off_c, 5, 48, 0
1, 52440, Note_off_c, 0, 69, 0
1, 52440, Note_on_c, 1, 58, 120
1, 52440, Note_on_c, 1, 53, 120
1, 52440, Note_on_c, 5, 53, 120
1, 52440, Note_on_c, 2, 65, 120
1, 52440, Note_on_c, 3, 65, 120
1, 52440, Note_on_c, 10, 53, 120
1, 52440, Note_on_c, 0, 65, 120
1, 52440, Note_on_c, 10, 58, 120
1, 52440, Note_on_c, 5, 58, 120
1, 52680, Note_off_c, 1, 53, 0
1, 52680, Note_off_c, 5, 58, 0
1, 52680, Note_off_c, 0, 65, 0
1, 52680, Note_off_c, 10, 53, 0
1, 52680, Note_off_c, 1, 58, 0
1, 52680, Note_off_c, 3, 65, 0
1, 52680, Note_off_c, 5, 53, 0
1, 52680, Note_off_c, 10, 58, 0
1, 52680, Note_off_c, 2, 65, 0
1, 52680, Note_on_c, 3, 65, 120
1, 52680, Note_on_c, 0, 65, 120
1, 52680, Note_on_c, 2, 65, 120
1, 52680, Note_on_c, 5, 48, 120
1, 52680, Note_on_c, 1, 48, 120
1, 52680, Note_on_c, 10, 48, 120
1, 52920, Note_off_c, 5, 48, 0
1, 52920, Note_off_c, 10, 48, 0
1, 52920, Note_off_c, 1, 48, 0
1, 52920, Note_on_c, 1, 48, 120
1, 52920, Note_on_c, 5, 48, 120
1, 52920, Note_on_c, 10, 48, 120
1, 53160, Note_off_c, 3, 65, 0
1, 53160, Note_off_c, 0, 65, 0
1, 53160, Note_off_c, 1, 48, 0
1, 53160, Note_off_c, 10, 48, 0
1, 53160, Note_off_c, 2, 65, 0
1, 53160, Note_off_c, 5, 48, 0
1, 53160, Note_on_c, 1, 58, 120
1, 53160, Note_on_c, 2, 62, 120
1, 53160, Note_on_c, 3, 62, 120
1, 53160, Note_on_c, 5, 53, 120
1, 53160, Note_on_c, 1, 53, 120
1, 53160, Note_on_c, 10, 53, 120
1, 53160, Note_on_c, 5, 58, 120
1, 53160, Note_on_c, 10, 58, 120
1, 53160, Note_on_c, 0, 62, 120
1, 53400, Note_off_c, 1, 53, 0
1, 53400, Note_off_c, 1, 58, 0
1, 53400, Note_off_c, 5, 53, 0
1, 53400, Note_off_c, 5, 58, 0
1, 53400, Note_off_c, 10, 53, 0
1, 53400, Note_off_c, 10, 58, 0
1, 53640, Note_off_c, 2, 62, 0
1, 53640, Note_off_c, 0, 62, 0
1, 53640, Note_off_c, 3, 62, 0
1, 53640, Note_on_c, 5, 58, 120
1, 53640, Note_on_c, 1, 58, 120
1, 53640, Note_on_c, 5, 53, 120
1, 53640, Note_on_c, 1, 53, 120
1, 53640, Note_on_c, 3, 65, 120
1, 53640, Note_on_c, 2, 65, 120
1, 53640, Note_on_c, 10, 53, 120
1, 53640, Note_on_c, 10, 58, 120
1, 53640, Note_on_c, 0, 65, 120
1, 53880, Note_off_c, 5, 53, 0
1, 53880, Note_off_c, 1, 58, 0
1, 53880, Note_off_c, 2, 65, 0
1, 53880, Note_off_c, 1, 53, 0
1, 53880, Note_off_c, 10, 58, 0
1, 53880, Note_off_c, 0, 65, 0
1, 53880, Note_off_c, 10, 53, 0
1, 53880, Note_off_c, 5, 58, 0
1, 53880, Note_off_c, 3, 65, 0
1, 53880, Note_on_c, 3, 64, 120
1, 53880, Note_on_c, 2, 64, 120
1, 53880, Note_on_c, 10, 60, 120
1, 53880, Note_on_c, 0, 64, 120
1, 53880, Note_on_c, 5, 57, 120
1, 53880, Note_on_c, 5, 60, 120
1, 53880, Note_on_c, 1, 50, 120
1, 53880, Note_on_c, 1, 57, 120
1, 53880, Note_on_c, 10, 57, 120
1, 53880, Note_on_c, 5, 50, 120
1, 53880, Note_on_c, 10, 50, 120
1, 53880, Note_on_c, 1, 60, 120
1, 54360, Note_off_c, 1, 50, 0
1, 54360, Note_off_c, 1, 57, 0
1, 54360, Note_off_c, 3, 64, 0
1, 54360, Note_off_c, 10, 57, 0
1, 54360, Note_off_c, 1, 60, 0
1, 54360, Note_off_c, 10, 50, 0
1, 54360, Note_off_c, 5, 57, 0
1, 54360, Note_off_c, 5, 60, 0
1, 54360, Note_off_c, 10, 60, 0
1, 54360, Note_off_c, 2, 64, 0
1, 54360, Note_off_c, 5, 50, 0
1, 54360, Note_off_c, 0, 64, 0
1, 54360, Note_on_c, 5, 57, 120
1, 54360, Note_on_c, 1, 57, 120
1, 54360, Note_on_c, 2, 65, 120
1, 54360, Note_on_c, 10, 57, 120
1, 54360, Note_on_c, 5, 50, 120
1, 54360, Note_on_c, 10, 60, 120
1, 54360, Note_on_c, 0, 65, 120
1, 54360, Note_on_c, 1, 50, 120
1, 54360, Note_on_c, 10, 50, 120
1, 54360, Note_on_c, 1, 60, 120
1, 54360, Note_on_c, 5, 60, 120
1, 54360, Note_on_c, 3, 65, 120
1, 54600, Note_off_c, 2, 65, 0
1, 54600, Note_off_c, 0, 65, 0
1, 54600, Note_off_c, 3, 65, 0
1, 54600, Note_on_c, 0, 64, 120
1, 54600, Note_on_c, 3, 64, 120
1, 54600, Note_on_c, 2, 64, 120
1, 54840, Note_off_c, 10, 57, 0
1, 54840, Note_off_c, 1, 60, 0
1, 54840, Note_off_c, 5, 60, 0
1, 54840, Note_off_c, 10, 60, 0
1, 54840, Note_off_c, 1, 50, 0
1, 54840, Note_off_c, 5, 57, 0
1, 54840, Note_off_c, 10, 50, 0
1, 54840, Note_off_c, 5, 50, 0
1, 54840, Note_off_c, 1, 57, 0
1, 54840, Note_on_c, 5, 57, 120
1, 54840, Note_on_c, 10, 57, 120
1, 54840, Note_on_c, 1, 60, 120
1, 54840, Note_on_c, 10, 50, 120
1, 54840, Note_on_c, 1, 57, 120
1, 54840, Note_on_c, 10, 60, 120
1, 54840, Note_on_c, 1, 50, 120
1, 54840, Note_on_c, 5, 50, 120
1, 54840, Note_on_c, 5, 60, 120
1, 55080, Note_off_c, 0, 64, 0
1, 55080, Note_off_c, 5, 50, 0
1, 55080, Note_off_c, 1, 50, 0
1, 55080, Note_off_c, 5, 57, 0
1, 55080, Note_off_c, 1, 57, 0
1, 55080, Note_off_c, 3, 64, 0
1, 55080, Note_off_c, 10, 50, 0
1, 55080, Note_off_c, 10, 57, 0
1, 55080, Note_off_c, 10, 60, 0
1, 55080, Note_off_c, 1, 60, 0
1, 55080, Note_off_c, 2, 64, 0
1, 55080, Note_off_c, 5, 60, 0
1, 55080, Note_on_c, 5, 45, 120
1, 55080, Note_on_c, 10, 45, 120
1, 55080, Note_on_c, 1, 45, 120
1, 55080, Note_on_c, 0, 62, 120
1, 55080, Note_on_c, 3, 62, 120
1, 55080, Note_on_c, 2, 62, 120
1, 55320, Note_off_c, 5, 45, 0
1, 55320, Note_off_c, 1, 45, 0
1, 55320, Note_off_c, 3, 62, 0
1, 55320, Note_off_c, 10, 45, 0
1, 55320, Note_off_c, 2, 62, 0
1, 55320, Note_off_c, 0, 62, 0
1, 55320, Note_on_c, 2, 62, 120
1, 55320, Note_on_c, 5, 46, 120
1, 55320, Note_on_c, 1, 46, 120
1, 55320, Note_on_c, 0, 62, 120
1, 55320, Note_on_c, 10, 46, 120
1, 55320, Note_on_c, 3, 62, 120
1, 55560, Note_off_c, 1, 46, 0
1, 55560, Note_off_c, 5, 46, 0
1, 55560, Note_off_c, 10, 46, 0
1, 55560, Note_on_c, 1, 47, 120
1, 55560, Note_on_c, 10, 47, 120
1, 55560, Note_on_c, 5, 47, 120
1, 55800, Note_off_c, 2, 62, 0
1, 55800, Note_off_c, 0, 62, 0
1, 55800, Note_off_c, 3, 62, 0
1, 56040, Note_on_c, 0, 67, 120
1, 56040, Note_on_c, 0, 57, 120
1, 56040, Note_on_c, 0, 59, 120
1, 56280, Note_off_c, 1, 47, 0
1, 56280, Note_off_c, 10, 47, 0
1, 56280, Note_off_c, 0, 57, 0
1, 56280, Note_off_c, 0, 67, 0
1, 56280, Note_off_c, 5, 47, 0
1, 56280, Note_off_c, 0, 59, 0
1, 56520, Note_on_c, 0, 65, 120
1, 56520, Note_on_c, 0, 57, 120
1, 56520, Note_on_c, 10, 43, 120
1, 56520, Note_on_c, 0, 59, 120
1, 56520, Note_on_c, 5, 43, 120
1, 56520, Note_on_c, 1, 43, 120
1, 56760, Note_off_c, 0, 65, 0
1, 56760, Note_off_c, 0, 59, 0
1, 56760, Note_off_c, 0, 57, 0
1, 57000, Note_off_c, 5, 43, 0
1, 57000, Note_off_c, 1, 43, 0
1, 57000, Note_off_c, 10, 43, 0
1, 57000, Note_on_c, 1, 45, 120
1, 57000, Note_on_c, 5, 45, 120
1, 57000, Note_on_c, 10, 45, 120
1, 57000, Note_on_c, 0, 59, 120
1, 57000, Note_on_c, 0, 57, 120
1, 57000, Note_on_c, 0, 64, 120
1, 57240, Note_off_c, 0, 64, 0
1, 57240, Note_off_c, 10, 45, 0
1, 57240, Note_off_c, 1, 45, 0
1, 57240, Note_off_c, 5, 45, 0
1, 57240, Note_off_c, 0, 59, 0
1, 57240, Note_off_c, 0, 57, 0
1, 57240, Note_on_c, 10, 47, 120
1, 57240, Note_on_c, 1, 47, 120
1, 57240, Note_on_c, 5, 47, 120
1, 57480, Note_off_c, 1, 47, 0
1, 57480, Note_off_c, 5, 47, 0
1, 57480, Note_off_c, 10, 47, 0
1, 57480, Note_on_c, 0, 64, 120
1, 57480, Note_on_c, 1, 45, 120
1, 57480, Note_on_c, 0, 57, 120
1, 57480, Note_on_c, 10, 45, 120
1, 57480, Note_on_c, 5, 45, 120
1, 57480, Note_on_c, 0, 59, 120
1, 57720, Note_off_c, 0, 64, 0
1, 57720, Note_off_c, 1, 45, 0
1, 57720, Note_off_c, 0, 57, 0
1, 57720, Note_off_c, 10, 45, 0
1, 57720, Note_off_c, 5, 45, 0
1, 57720, Note_off_c, 0, 59, 0
1, 57720, Note_on_c, 0, 53, 120
1, 57720, Note_on_c, 10, 46, 120
1, 57720, Note_on_c, 5, 46, 120
1, 57720, Note_on_c, 1, 46, 120
1, 57720, Note_on_c, 0, 62, 120
1, 57720, Note_on_c, 0, 57, 120
1, 58200, Note_off_c, 0, 62, 0
1, 58200, Note_off_c, 0, 57, 0
1, 58200, Note_off_c, 0, 53, 0
1, 58200, Note_on_c, 0, 62, 120
1, 58200, Note_on_c, 0, 57, 120
1, 58200, Note_on_c, 0, 53, 120
1, 58680, Note_off_c, 5, 46, 0
1, 58680, Note_off_c, 0, 62, 0
1, 58680, Note_off_c, 0, 53, 0
1, 58680, Note_off_c, 1, 46, 0
1, 58680, Note_off_c, 10, 46, 0
1, 58680, Note_off_c, 0, 57, 0
1, 58920, Note_on_c, 0, 62, 120
1, 58920, Note_on_c, 5, 46, 120
1, 58920, Note_on_c, 0, 53, 120
1, 58920, Note_on_c, 10, 46, 120
1, 58920, Note_on_c, 0, 57, 120
1, 58920, Note_on_c, 1, 46, 120
1, 59160, Note_off_c, 10, 46, 0
1, 59160, Note_off_c, 5, 46, 0
1, 59160, Note_off_c, 0, 53, 0
1, 59160, Note_off_c, 1, 46, 0
1, 59160, Note_off_c, 0, 62, 0
1, 59160, Note_off_c, 0, 57, 0
1, 59160, Note_on_c, 10, 50, 120
1, 59160, Note_on_c, 5, 50, 120
1, 59160, Note_on_c, 1, 50, 120
1, 59400, Note_off_c, 10, 50, 0
1, 59400, Note_off_c, 1, 50, 0
1, 59400, Note_off_c, 5, 50, 0
1, 59400, Note_on_c, 0, 62, 120
1, 59400, Note_on_c, 10, 41, 120
1, 59400, Note_on_c, 0, 53, 120
1, 59400, Note_on_c, 5, 41, 120
1, 59400, Note_on_c, 1, 41, 120
1, 59400, Note_on_c, 0, 57, 120
1, 59640, Note_off_c, 0, 62, 0
1, 59640, Note_off_c, 10, 41, 0
1, 59640, Note_off_c, 0, 53, 0
1, 59640, Note_off_c, 5, 41, 0
1, 59640, Note_off_c, 1, 41, 0
1, 59640, Note_off_c, 0, 57, 0
1, 59640, Note_on_c, 1, 43, 120
1, 59640, Note_on_c, 5, 43, 120
1, 59640, Note_on_c, 10, 43, 120
1, 59880, Note_off_c, 1, 43, 0
1, 59880, Note_off_c, 10, 43, 0
1, 59880, Note_off_c, 5, 43, 0
1, 59880, Note_on_c, 0, 65, 120
1, 59880, Note_on_c, 1, 47, 120
1, 59880, Note_on_c, 0, 55, 120
1, 59880, Note_on_c, 0, 62, 120
1, 59880, Note_on_c, 10, 47, 120
1, 59880, Note_on_c, 5, 47, 120
1, 60120, Note_off_c, 0, 62, 0
1, 60120, Note_off_c, 0, 55, 0
1, 60120, Note_off_c, 0, 65, 0
1, 60360, Note_off_c, 10, 47, 0
1, 60360, Note_off_c, 5, 47, 0
1, 60360, Note_off_c, 1, 47, 0
1, 60360, Note_on_c, 0, 65, 120
1, 60360, Note_on_c, 10, 50, 120
1, 60360, Note_on_c, 0, 55, 120
1, 60360, Note_on_c, 1, 50, 120
1, 60360, Note_on_c, 0, 62, 120
1, 60360, Note_on_c, 5, 50, 120
1, 60600, Note_off_c, 1, 50, 0
1, 60600, Note_off_c, 10, 50, 0
1, 60600, Note_off_c, 0, 55, 0
1, 60600, Note_off_c, 5, 50, 0
1, 60600, Note_off_c, 0, 65, 0
1, 60600, Note_off_c, 0, 62, 0
1, 60600, Note_on_c, 1, 48, 120
1, 60600, Note_on_c, 10, 48, 120
1, 60600, Note_on_c, 5, 48, 120
1, 60840, Note_off_c, 1, 48, 0
1, 60840, Note_off_c, 5, 48, 0
1, 60840, Note_off_c, 10, 48, 0
1, 60840, Note_on_c, 0, 55, 120
1, 60840, Note_on_c, 1, 40, 120
1, 60840, Note_on_c, 5, 40, 120
1, 60840, Note_on_c, 10, 40, 120
1, 60840, Note_on_c, 0, 64, 120
1, 60840, Note_on_c, 0, 59, 120
1, 61080, Note_off_c, 0, 64, 0
1, 61080, Note_off_c, 0, 59, 0
1, 61080, Note_off_c, 0, 55, 0
1, 61320, Note_on_c, 0, 64, 120
1, 61320, Note_on_c, 0, 59, 120
1, 61320, Note_on_c, 0, 55, 120
1, 61560, Note_off_c, 5, 40, 0
1, 61560, Note_off_c, 0, 64, 0
1, 61560, Note_off_c, 0, 55, 0
1, 61560, Note_off_c, 10, 40, 0
1, 61560, Note_off_c, 1, 40, 0
1, 61560, Note_off_c, 0, 59, 0
1, 61560, Note_on_c, 5, 60, 120
1, 61560, Note_on_c, 10, 57, 120
1, 61560, Note_on_c, 1, 57, 120
1, 61560, Note_on_c, 1, 60, 120
1, 61560, Note_on_c, 4, 81, 120
1, 61560, Note_on_c, 1, 53, 120
1, 61560, Note_on_c, 0, 81, 120
1, 61560, Note_on_c, 5, 53, 120
1, 61560, Note_on_c, 10, 53, 120
1, 61560, Note_on_c, 10, 60, 120
1, 61560, Note_on_c, 5, 57, 120
1, 61800, Note_off_c, 4, 81, 0
1, 61800, Note_off_c, 0, 81, 0
1, 61800, Note_on_c, 0, 79, 120
1, 61800, Note_on_c, 4, 79, 120
1, 62040, Note_off_c, 4, 79, 0
1, 62040, Note_off_c, 0, 79, 0
1, 62040, Note_on_c, 4, 81, 120
1, 62040, Note_on_c, 0, 81, 120
1, 62280, Note_off_c, 5, 60, 0
1, 62280, Note_off_c, 5, 53, 0
1, 62280, Note_off_c, 4, 81, 0
1, 62280, Note_off_c, 5, 57, 0
1, 62280, Note_off_c, 1, 60, 0
1, 62280, Note_off_c, 10, 60, 0
1, 62280, Note_off_c, 10, 53, 0
1, 62280, Note_off_c, 1, 53, 0
1, 62280, Note_off_c, 10, 57, 0
1, 62280, Note_off_c, 1, 57, 0
1, 62280, Note_off_c, 0, 81, 0
1, 62280, Note_on_c, 4, 77, 120
1, 62280, Note_on_c, 1, 53, 120
1, 62280, Note_on_c, 1, 62, 120
1, 62280, Note_on_c, 5, 58, 120
1, 62280, Note_on_c, 0, 77, 120
1, 62280, Note_on_c, 10, 53, 120
1, 62280, Note_on_c, 10, 62, 120
1, 62280, Note_on_c, 1, 58, 120
1, 62280, Note_on_c, 5, 53, 120
1, 62280, Note_on_c, 10, 58, 120
1, 62280, Note_on_c, 5, 62, 120
1, 62760, Note_off_c, 10, 53, 0
1, 62760, Note_off_c, 5, 58, 0
1, 62760, Note_off_c, 1, 58, 0
1, 62760, Note_off_c, 5, 62, 0
1, 62760, Note_off_c, 1, 53, 0
1, 62760, Note_off_c, 10, 58, 0
1, 62760, Note_off_c, 10, 62, 0
1, 62760, Note_off_c, 1, 62, 0
1, 62760, Note_off_c, 4, 77, 0
1, 62760, Note_off_c, 5, 53, 0
1, 62760, Note_off_c, 0, 77, 0
1, 62760, Note_on_c, 4, 82, 120
1, 62760, Note_on_c, 10, 53, 120
1, 62760, Note_on_c, 0, 82, 120
1, 62760, Note_on_c, 5, 53, 120
1, 62760, Note_on_c, 1, 53, 120
1, 63000, Note_off_c, 10, 53, 0
1, 63000, Note_off_c, 5, 53, 0
1, 63000, Note_off_c, 1, 53, 0
1, 63000, Note_on_c, 5, 58, 120
1, 63000, Note_on_c, 1, 58, 120
1, 63000, Note_on_c, 10, 58, 120
1, 63240, Note_off_c, 4, 82, 0
1, 63240, Note_off_c, 1, 58, 0
1, 63240, Note_off_c, 5, 58, 0
1, 63240, Note_off_c, 0, 82, 0
1, 63240, Note_off_c, 10, 58, 0
1, 63240, Note_on_c, 0, 81, 120
1, 63240, Note_on_c, 5, 62, 120
1, 63240, Note_on_c, 10, 62, 120
1, 63240, Note_on_c, 1, 62, 120
1, 63240, Note_on_c, 4, 81, 120
1, 63480, Note_off_c, 10, 62, 0
1, 63480, Note_off_c, 1, 62, 0
1, 63480, Note_off_c, 0, 81, 0
1, 63480, Note_off_c, 5, 62, 0
1, 63480, Note_off_c, 4, 81, 0
1, 63480, Note_on_c, 10, 60, 120
1, 63480, Note_on_c, 1, 60, 120
1, 63480, Note_on_c, 5, 60, 120
1, 63480, Note_on_c, 0, 79, 120
1, 63480, Note_on_c, 5, 52, 120
1, 63480, Note_on_c, 1, 52, 120
1, 63480, Note_on_c, 4, 79, 120
1, 63480, Note_on_c, 1, 55, 120
1, 63480, Note_on_c, 5, 55, 120
1, 63480, Note_on_c, 10, 52, 120
1, 63480, Note_on_c, 10, 55, 120
1, 63720, Note_off_c, 4, 79, 0
1, 63720, Note_off_c, 0, 79, 0
1, 63720, Note_on_c, 0, 77, 120
1, 63720, Note_on_c, 4, 77, 120
1, 63960, Note_off_c, 0, 77, 0
1, 63960, Note_off_c, 4, 77, 0
1, 63960, Note_on_c, 0, 79, 120
1, 63960, Note_on_c, 4, 79, 120
1, 64200, Note_off_c, 1, 60, 0
1, 64200, Note_off_c, 1, 52, 0
1, 64200, Note_off_c, 5, 55, 0
1, 64200, Note_off_c, 0, 79, 0
1, 64200, Note_off_c, 10, 60, 0
1, 64200, Note_off_c, 5, 60, 0
1, 64200, Note_off_c, 10, 52, 0
1, 64200, Note_off_c, 5, 52, 0
1, 64200, Note_off_c, 1, 55, 0
1, 64200, Note_off_c, 10, 55, 0
1, 64200, Note_off_c, 4, 79, 0
1, 64200, Note_on_c, 0, 81, 120
1, 64200, Note_on_c, 10, 53, 120
1, 64200, Note_on_c, 5, 57, 120
1, 64200, Note_on_c, 1, 57, 120
1, 64200, Note_on_c, 1, 53, 120
1, 64200, Note_on_c, 5, 53, 120
1, 64200, Note_on_c, 1, 60, 120
1, 64200, Note_on_c, 4, 81, 120
1, 64200, Note_on_c, 10, 57, 120
1, 64200, Note_on_c, 10, 60, 120
1, 64200, Note_on_c, 5, 60, 120
1, 64680, Note_off_c, 1, 53, 0
1, 64680, Note_off_c, 5, 57, 0
1, 64680, Note_off_c, 1, 60, 0
1, 64680, Note_off_c, 5, 53, 0
1, 64680, Note_off_c, 10, 57, 0
1, 64680, Note_off_c, 10, 60, 0
1, 64680, Note_off_c, 10, 53, 0
1, 64680, Note_off_c, 1, 57, 0
1, 64680, Note_off_c, 5, 60, 0
1, 64680, Note_on_c, 10, 60, 120
1, 64680, Note_on_c, 1, 60, 120
1, 64680, Note_on_c, 1, 57, 120
1, 64680, Note_on_c, 5, 60, 120
1, 64680, Note_on_c, 5, 57, 120
1, 64680, Note_on_c, 10, 57, 120
1, 64920, Note_off_c, 1, 57, 0
1, 64920, Note_off_c, 5, 57, 0
1, 64920, Note_off_c, 5, 60, 0
1, 64920, Note_off_c, 10, 57, 0
1, 64920, Note_off_c, 1, 60, 0
1, 64920, Note_off_c, 10, 60, 0
1, 64920, Note_on_c, 1, 60, 120
1, 64920, Note_on_c, 5, 60, 120
1, 64920, Note_on_c, 10, 57, 120
1, 64920, Note_on_c, 10, 60, 120
1, 64920, Note_on_c, 1, 57, 120
1, 64920, Note_on_c, 5, 57, 120
1, 65160, Note_off_c, 10, 57, 0
1, 65160, Note_off_c, 1, 57, 0
1, 65160, Note_off_c, 10, 60, 0
1, 65160, Note_off_c, 5, 57, 0
1, 65160, Note_off_c, 5, 60, 0
1, 65160, Note_off_c, 1, 60, 0
1, 65160, Note_on_c, 1, 55, 120
1, 65160, Note_on_c, 5, 55, 120
1, 65160, Note_on_c, 10, 55, 120
1, 65400, Note_off_c, 1, 55, 0
1, 65400, Note_off_c, 5, 55, 0
1, 65400, Note_off_c, 0, 81, 0
1, 65400, Note_off_c, 4, 81, 0
1, 65400, Note_off_c, 10, 55, 0
1, 65400, Note_on_c, 4, 81, 120
1, 65400, Note_on_c, 10, 53, 120
1, 65400, Note_on_c, 0, 81, 120
1, 65400, Note_on_c, 5, 53, 120
1, 65400, Note_on_c, 1, 53, 120
1, 65640, Note_off_c, 10, 53, 0
1, 65640, Note_off_c, 1, 53, 0
1, 65640, Note_off_c, 4, 81, 0
1, 65640, Note_off_c, 5, 53, 0
1, 65640, Note_off_c, 0, 81, 0
1, 65640, Note_on_c, 0, 82, 120
1, 65640, Note_on_c, 1, 55, 120
1, 65640, Note_on_c, 4, 82, 120
1, 65640, Note_on_c, 10, 55, 120
1, 65640, Note_on_c, 5, 55, 120
1, 65880, Note_off_c, 1, 55, 0
1, 65880, Note_off_c, 5, 55, 0
1, 65880, Note_off_c, 0, 82, 0
1, 65880, Note_off_c, 10, 55, 0
1, 65880, Note_off_c, 4, 82, 0
1, 65880, Note_on_c, 4, 84, 120
1, 65880, Note_on_c, 10, 57, 120
1, 65880, Note_on_c, 0, 84, 120
1, 65880, Note_on_c, 1, 57, 120
1, 65880, Note_on_c, 5, 57, 120
1, 66120, Note_off_c, 10, 57, 0
1, 66120, Note_off_c, 5, 57, 0
1, 66120, Note_off_c, 4, 84, 0
1, 66120, Note_off_c, 1, 57, 0
1, 66120, Note_off_c, 0, 84, 0
1, 66120, Note_on_c, 5, 58, 120
1, 66120, Note_on_c, 1, 58, 120
1, 66120, Note_on_c, 0, 88, 120
1, 66120, Note_on_c, 10, 58, 120
1, 66120, Note_on_c, 1, 53, 120
1, 66120, Note_on_c, 10, 53, 120
1, 66120, Note_on_c, 5, 53, 120
1, 66120, Note_on_c, 4, 88, 120
1, 66600, Note_off_c, 0, 88, 0
1, 66600, Note_off_c, 10, 58, 0
1, 66600, Note_off_c, 5, 58, 0
1, 66600, Note_off_c, 4, 88, 0
1, 66600, Note_off_c, 1, 58, 0
1, 66600, Note_on_c, 1, 60, 120
1, 66600, Note_on_c, 4, 86, 120
1, 66600, Note_on_c, 0, 86, 120
1, 66600, Note_on_c, 10, 60, 120
1, 66600, Note_on_c, 5, 60, 120
1, 66840, Note_off_c, 0, 86, 0
1, 66840, Note_off_c, 4, 86, 0
1, 66840, Note_on_c, 4, 82, 120
1, 66840, Note_on_c, 0, 82, 120
1, 67080, Note_off_c, 10, 60, 0
1, 67080, Note_off_c, 1, 60, 0
1, 67080, Note_off_c, 0, 82, 0
1, 67080, Note_off_c, 4, 82, 0
1, 67080, Note_off_c, 5, 60, 0
1, 67080, Note_on_c, 4, 77, 120
1, 67080, Note_on_c, 0, 77, 120
1, 67080, Note_on_c, 1, 62, 120
1, 67080, Note_on_c, 5, 62, 120
1, 67080, Note_on_c, 10, 62, 120
1, 67320, Note_off_c, 1, 53, 0
1, 67320, Note_off_c, 1, 62, 0
1, 67320, Note_off_c, 5, 53, 0
1, 67320, Note_off_c, 10, 62, 0
1, 67320, Note_off_c, 5, 62, 0
1, 67320, Note_off_c, 10, 53, 0
1, 67320, Note_off_c, 4, 77, 0
1, 67320, Note_off_c, 0, 77, 0
1, 67320, Note_on_c, 10, 60, 120
1, 67320, Note_on_c, 5, 52, 120
1, 67320, Note_on_c, 10, 52, 120
1, 67320, Note_on_c, 1, 60, 120
1, 67320, Note_on_c, 0, 76, 120
1, 67320, Note_on_c, 4, 76, 120
1, 67320, Note_on_c, 5, 60, 120
1, 67320, Note_on_c, 1, 52, 120
1, 67560, Note_off_c, 1, 60, 0
1, 67560, Note_off_c, 5, 60, 0
1, 67560, Note_off_c, 10, 60, 0
1, 67560, Note_off_c, 0, 76, 0
1, 67560, Note_off_c, 4, 76, 0
1, 67560, Note_on_c, 0, 74, 120
1, 67560, Note_on_c, 10, 55, 120
1, 67560, Note_on_c, 5, 55, 120
1, 67560, Note_on_c, 1, 55, 120
1, 67560, Note_on_c, 4, 74, 120
1, 67800, Note_off_c, 10, 55, 0
1, 67800, Note_off_c, 5, 55, 0
1, 67800, Note_off_c, 1, 55, 0
1, 67800, Note_off_c, 0, 74, 0
1, 67800, Note_off_c, 4, 74, 0
1, 67800, Note_on_c, 0, 76, 120
1, 67800, Note_on_c, 5, 58, 120
1, 67800, Note_on_c, 4, 76, 120
1, 67800, Note_on_c, 10, 58, 120
1, 67800, Note_on_c, 1, 58, 120
1, 68040, Note_off_c, 0, 76, 0
1, 68040, Note_off_c, 1, 58, 0
1, 68040, Note_off_c, 10, 52, 0
1, 68040, Note_off_c, 5, 58, 0
1, 68040, Note_off_c, 10, 58, 0
1, 68040, Note_off_c, 1, 52, 0
1, 68040, Note_off_c, 5, 52, 0
1, 68040, Note_off_c, 4, 76, 0
1, 68040, Note_on_c, 0, 77, 120
1, 68040, Note_on_c, 10, 53, 120
1, 68040, Note_on_c, 10, 57, 120
1, 68040, Note_on_c, 5, 57, 120
1, 68040, Note_on_c, 4, 77, 120
1, 68040, Note_on_c, 1, 57, 120
1, 68040, Note_on_c, 5, 53, 120
1, 68040, Note_on_c, 1, 53, 120
1, 68280, Note_off_c, 10, 57, 0
1, 68280, Note_off_c, 5, 57, 0
1, 68280, Note_off_c, 1, 57, 0
1, 68520, Note_on_c, 10, 65, 120
1, 68520, Note_on_c, 5, 65, 120
1, 68520, Note_on_c, 1, 65, 120
1, 68760, Note_off_c, 5, 65, 0
1, 68760, Note_off_c, 1, 65, 0
1, 68760, Note_off_c, 10, 65, 0
1, 68760, Note_on_c, 1, 60, 120
1, 68760, Note_on_c, 10, 60, 120
1, 68760, Note_on_c, 5, 60, 120
1, 69000, Note_off_c, 5, 60, 0
1, 69000, Note_off_c, 10, 60, 0
1, 69000, Note_off_c, 1, 60, 0
1, 69000, Note_on_c, 10, 57, 120
1, 69000, Note_on_c, 5, 57, 120
1, 69000, Note_on_c, 1, 57, 120
1, 69240, Note_off_c, 10, 53, 0
1, 69240, Note_off_c, 10, 57, 0
1, 69240, Note_off_c, 1, 53, 0
1, 69240, Note_off_c, 5, 53, 0
1, 69240, Note_off_c, 5, 57, 0
1, 69240, Note_off_c, 4, 77, 0
1, 69240, Note_off_c, 0, 77, 0
1, 69240, Note_off_c, 1, 57, 0
1, 69240, Note_on_c, 1, 60, 120
1, 69240, Note_on_c, 1, 53, 120
1, 69240, Note_on_c, 5, 53, 120
1, 69240, Note_on_c, 5, 57, 120
1, 69240, Note_on_c, 0, 81, 120
1, 69240, Note_on_c, 4, 81, 120
1, 69240, Note_on_c, 10, 57, 120
1, 69240, Note_on_c, 1, 57, 120
1, 69240, Note_on_c, 10, 53, 120
1, 69240, Note_on_c, 5, 60, 120
1, 69240, Note_on_c, 10, 60, 120
1, 69480, Note_off_c, 0, 81, 0
1, 69480, Note_off_c, 4, 81, 0
1, 69480, Note_on_c, 4, 79, 120
1, 69480, Note_on_c, 0, 79, 120
1, 69720, Note_off_c, 0, 79, 0
1, 69720, Note_off_c, 4, 79, 0
1, 69720, Note_on_c, 4, 81, 120
1, 69720, Note_on_c, 0, 81, 120
1, 69960, Note_off_c, 1, 60, 0
1, 69960, Note_off_c, 5, 53, 0
1, 69960, Note_off_c, 4, 81, 0
1, 69960, Note_off_c, 5, 57, 0
1, 69960, Note_off_c, 10, 60, 0
1, 69960, Note_off_c, 5, 60, 0
1, 69960, Note_off_c, 10, 53, 0
1, 69960, Note_off_c, 1, 53, 0
1, 69960, Note_off_c, 10, 57, 0
1, 69960, Note_off_c, 1, 57, 0
1, 69960, Note_off_c, 0, 81, 0
1, 69960, Note_on_c, 0, 77, 120
1, 69960, Note_on_c, 5, 58, 120
1, 69960, Note_on_c, 1, 53, 120
1, 69960, Note_on_c, 1, 62, 120
1, 69960, Note_on_c, 10, 53, 120
1, 69960, Note_on_c, 5, 53, 120
1, 69960, Note_on_c, 4, 77, 120
1, 69960, Note_on_c, 5, 62, 120
1, 69960, Note_on_c, 10, 58, 120
1, 69960, Note_on_c, 1, 58, 120
1, 69960, Note_on_c, 10, 62, 120
1, 70440, Note_off_c, 1, 53, 0
1, 70440, Note_off_c, 5, 58, 0
1, 70440, Note_off_c, 1, 58, 0
1, 70440, Note_off_c, 1, 62, 0
1, 70440, Note_off_c, 5, 53, 0
1, 70440, Note_off_c, 10, 58, 0
1, 70440, Note_off_c, 5, 62, 0
1, 70440, Note_off_c, 10, 62, 0
1, 70440, Note_off_c, 0, 77, 0
1, 70440, Note_off_c, 10, 53, 0
1, 70440, Note_off_c, 4, 77, 0
1, 70440, Note_on_c, 0, 82, 120
1, 70440, Note_on_c, 1, 53, 120
1, 70440, Note_on_c, 5, 53, 120
1, 70440, Note_on_c, 10, 53, 120
1, 70440, Note_on_c, 4, 82, 120
1, 70680, Note_off_c, 1, 53, 0
1, 70680, Note_off_c, 5, 53, 0
1, 70680, Note_off_c, 10, 53, 0
1, 70680, Note_on_c, 1, 58, 120
1, 70680, Note_on_c, 10, 58, 120
1, 70680, Note_on_c, 5, 58, 120
1, 70920, Note_off_c, 0, 82, 0
1, 70920, Note_off_c, 10, 58, 0
1, 70920, Note_off_c, 1, 58, 0
1, 70920, Note_off_c, 4, 82, 0
1, 70920, Note_off_c, 5, 58, 0
1, 70920, Note_on_c, 0, 81, 120
1, 70920, Note_on_c, 4, 81, 120
1, 70920, Note_on_c, 5, 62, 120
1, 70920, Note_on_c, 10, 62, 120
1, 70920, Note_on_c, 1, 62, 120
1, 71160, Note_off_c, 1, 62, 0
1, 71160, Note_off_c, 10, 62, 0
1, 71160, Note_off_c, 0, 81, 0
1, 71160, Note_off_c, 5, 62, 0
1, 71160, Note_off_c, 4, 81, 0
1, 71160, Note_on_c, 1, 60, 120
1, 71160, Note_on_c, 5, 55, 120
1, 71160, Note_on_c, 1, 55, 120
1, 71160, Note_on_c, 10, 55, 120
1, 71160, Note_on_c, 4, 79, 120
1, 71160, Note_on_c, 1, 52, 120
1, 71160, Note_on_c, 0, 79, 120
1, 71160, Note_on_c, 5, 52, 120
1, 71160, Note_on_c, 10, 60, 120
1, 71160, Note_on_c, 5, 60, 120
1, 71160, Note_on_c, 10, 52, 120
1, 71400, Note_off_c, 4, 79, 0
1, 71400, Note_off_c, 0, 79, 0
1, 71400, Note_on_c, 4, 77, 120
1, 71400, Note_on_c, 0, 77, 120
1, 71640, Note_off_c, 0, 77, 0
1, 71640, Note_off_c, 4, 77, 0
1, 71640, Note_on_c, 0, 79, 120
1, 71640, Note_on_c, 4, 79, 120
1, 71880, Note_off_c, 5, 60, 0
1, 71880, Note_off_c, 10, 52, 0
1, 71880, Note_off_c, 5, 55, 0
1, 71880, Note_off_c, 0, 79, 0
1, 71880, Note_off_c, 10, 60, 0
1, 71880, Note_off_c, 1, 60, 0
1, 71880, Note_off_c, 5, 52, 0
1, 71880, Note_off_c, 1, 52, 0
1, 71880, Note_off_c, 1, 55, 0
1, 71880, Note_off_c, 10, 55, 0
1, 71880, Note_off_c, 4, 79, 0
1, 71880, Note_on_c, 10, 53, 120
1, 71880, Note_on_c, 1, 57, 120
1, 71880, Note_on_c, 1, 53, 120
1, 71880, Note_on_c, 5, 57, 120
1, 71880, Note_on_c, 5, 53, 120
1, 71880, Note_on_c, 10, 60, 120
1, 71880, Note_on_c, 4, 81, 120
1, 71880, Note_on_c, 5, 60, 120
1, 71880, Note_on_c, 10, 57, 120
1, 71880, Note_on_c, 1, 60, 120
1, 71880, Note_on_c, 0, 81, 120
1, 72360, Note_off_c, 10, 60, 0
1, 72360, Note_off_c, 10, 53, 0
1, 72360, Note_off_c, 5, 53, 0
1, 72360, Note_off_c, 1, 53, 0
1, 72360, Note_off_c, 5, 57, 0
1, 72360, Note_off_c, 1, 57, 0
1, 72360, Note_off_c, 10, 57, 0
1, 72360, Note_off_c, 5, 60, 0
1, 72360, Note_off_c, 1, 60, 0
1, 72360, Note_on_c, 10, 57, 120
1, 72360, Note_on_c, 1, 57, 120
1, 72360, Note_on_c, 5, 57, 120
1, 72360, Note_on_c, 5, 60, 120
1, 72360, Note_on_c, 1, 60, 120
1, 72360, Note_on_c, 10, 60, 120
1, 72600, Note_off_c, 5, 60, 0
1, 72600, Note_off_c, 5, 57, 0
1, 72600, Note_off_c, 10, 57, 0
1, 72600, Note_off_c, 1, 57, 0
1, 72600, Note_off_c, 1, 60, 0
1, 72600, Note_off_c, 10, 60, 0
1, 72600, Note_on_c, 5, 60, 120
1, 72600, Note_on_c, 1, 57, 120
1, 72600, Note_on_c, 1, 60, 120
1, 72600, Note_on_c, 10, 60, 120
1, 72600, Note_on_c, 10, 57, 120
1, 72600, Note_on_c, 5, 57, 120
1, 72840, Note_off_c, 1, 60, 0
1, 72840, Note_off_c, 5, 57, 0
1, 72840, Note_off_c, 10, 57, 0
1, 72840, Note_off_c, 1, 57, 0
1, 72840, Note_off_c, 5, 60, 0
1, 72840, Note_off_c, 10, 60, 0
1, 72840, Note_on_c, 5, 55, 120
1, 72840, Note_on_c, 10, 55, 120
1, 72840, Note_on_c, 1, 55, 120
1, 73080, Note_off_c, 5, 55, 0
1, 73080, Note_off_c, 10, 55, 0
1, 73080, Note_off_c, 0, 81, 0
1, 73080, Note_off_c, 4, 81, 0
1, 73080, Note_off_c, 1, 55, 0
1, 73080, Note_on_c, 1, 60, 120
1, 73080, Note_on_c, 10, 57, 120
1, 73080, Note_on_c, 5, 57, 120
1, 73080, Note_on_c, 10, 60, 120
1, 73080, Note_on_c, 4, 81, 120
1, 73080, Note_on_c, 1, 57, 120
1, 73080, Note_on_c, 5, 60, 120
1, 73080, Note_on_c, 0, 81, 120
1, 73320, Note_off_c, 0, 81, 0
1, 73320, Note_off_c, 4, 81, 0
1, 73320, Note_on_c, 0, 82, 120
1, 73320, Note_on_c, 4, 82, 120
1, 73560, Note_off_c, 0, 82, 0
1, 73560, Note_off_c, 4, 82, 0
1, 73560, Note_on_c, 4, 84, 120
1, 73560, Note_on_c, 0, 84, 120
1, 73800, Note_off_c, 4, 84, 0
1, 73800, Note_off_c, 5, 60, 0
1, 73800, Note_off_c, 1, 60, 0
1, 73800, Note_off_c, 10, 57, 0
1, 73800, Note_off_c, 5, 57, 0
1, 73800, Note_off_c, 10, 60, 0
1, 73800, Note_off_c, 1, 57, 0
1, 73800, Note_off_c, 0, 84, 0
1, 73800, Note_on_c, 4, 88, 120
1, 73800, Note_on_c, 1, 60, 120
1, 73800, Note_on_c, 5, 60, 120
1, 73800, Note_on_c, 10, 54, 120
1, 73800, Note_on_c, 10, 60, 120
1, 73800, Note_on_c, 5, 50, 120
1, 73800, Note_on_c, 1, 50, 120
1, 73800, Note_on_c, 1, 54, 120
1, 73800, Note_on_c, 0, 88, 120
1, 73800, Note_on_c, 5, 54, 120
1, 73800, Note_on_c, 10, 50, 120
1, 74280, Note_off_c, 0, 88, 0
1, 74280, Note_off_c, 4, 88, 0
1, 74280, Note_on_c, 0, 86, 120
1, 74280, Note_on_c, 4, 86, 120
1, 74520, Note_off_c, 4, 86, 0
1, 74520, Note_off_c, 0, 86, 0
1, 74520, Note_on_c, 0, 84, 120
1, 74520, Note_on_c, 4, 84, 120
1, 74760, Note_off_c, 4, 84, 0
1, 74760, Note_off_c, 0, 84, 0
1, 74760, Note_on_c, 4, 81, 120
1, 74760, Note_on_c, 0, 81, 120
1, 75000, Note_off_c, 4, 81, 0
1, 75000, Note_off_c, 5, 54, 0
1, 75000, Note_off_c, 5, 50, 0
1, 75000, Note_off_c, 10, 50, 0
1, 75000, Note_off_c, 5, 60, 0
1, 75000, Note_off_c, 10, 54, 0
1, 75000, Note_off_c, 1, 50, 0
1, 75000, Note_off_c, 1, 54, 0
1, 75000, Note_off_c, 10, 60, 0
1, 75000, Note_off_c, 1, 60, 0
1, 75000, Note_off_c, 0, 81, 0
1, 75000, Note_on_c, 4, 79, 120
1, 75000, Note_on_c, 1, 55, 120
1, 75000, Note_on_c, 5, 55, 120
1, 75000, Note_on_c, 5, 60, 120
1, 75000, Note_on_c, 10, 60, 120
1, 75000, Note_on_c, 10, 55, 120
1, 75000, Note_on_c, 0, 79, 120
1, 75000, Note_on_c, 1, 60, 120
1, 75720, Note_off_c, 10, 55, 0
1, 75720, Note_off_c, 5, 55, 0
1, 75720, Note_off_c, 1, 60, 0
1, 75720, Note_off_c, 1, 55, 0
1, 75720, Note_off_c, 10, 60, 0
1, 75720, Note_off_c, 5, 60, 0
1, 75720, Note_on_c, 5, 55, 120
1, 75720, Note_on_c, 10, 60, 120
1, 75720, Note_on_c, 10, 55, 120
1, 75720, Note_on_c, 1, 55, 120
1, 75720, Note_on_c, 5, 60, 120
1, 75720, Note_on_c, 1, 60, 120
1, 76200, Note_off_c, 5, 55, 0
1, 76200, Note_off_c, 10, 55, 0
1, 76200, Note_off_c, 1, 55, 0
1, 76200, Note_off_c, 1, 60, 0
1, 76200, Note_off_c, 5, 60, 0
1, 76200, Note_off_c, 10, 60, 0
1, 76200, Note_on_c, 1, 60, 120
1, 76200, Note_on_c, 5, 60, 120
1, 76200, Note_on_c, 10, 60, 120
1, 76440, Note_off_c, 10, 60, 0
1, 76440, Note_off_c, 1, 60, 0
1, 76440, Note_off_c, 5, 60, 0
1, 76440, Note_on_c, 1, 55, 120
1, 76440, Note_on_c, 5, 55, 120
1, 76440, Note_on_c, 10, 55, 120
1, 76680, Note_off_c, 1, 55, 0
1, 76680, Note_off_c, 10, 55, 0
1, 76680, Note_off_c, 5, 55, 0
1, 76680, Note_on_c, 5, 60, 120
1, 76680, Note_on_c, 10, 60, 120
1, 76680, Note_on_c, 1, 60, 120
1, 76920, Note_off_c, 0, 79, 0
1, 76920, Note_off_c, 5, 60, 0
1, 76920, Note_off_c, 1, 60, 0
1, 76920, Note_off_c, 10, 60, 0
1, 76920, Note_on_c, 1, 55, 120
1, 76920, Note_on_c, 5, 55, 120
1, 76920, Note_on_c, 10, 55, 120
1, 77160, Note_on_c, 0, 81, 120
1, 77160, Note_on_c, 0, 86, 120
1, 77400, Note_off_c, 10, 55, 0
1, 77400, Note_off_c, 0, 81, 0
1, 77400, Note_off_c, 1, 55, 0
1, 77400, Note_off_c, 5, 55, 0
1, 77400, Note_off_c, 0, 86, 0
1, 77400, Note_on_c, 0, 83, 120
1, 77400, Note_on_c, 5, 59, 120
1, 77400, Note_on_c, 10, 59, 120
1, 77400, Note_on_c, 1, 59, 120
1, 77640, Note_off_c, 0, 83, 0
1, 77640, Note_off_c, 1, 59, 0
1, 77640, Note_off_c, 5, 59, 0
1, 77640, Note_off_c, 10, 59, 0
1, 77640, Note_on_c, 0, 77, 120
1, 77640, Note_on_c, 5, 65, 120
1, 77640, Note_on_c, 1, 65, 120
1, 77640, Note_on_c, 10, 65, 120
1, 77880, Note_off_c, 0, 77, 0
1, 78120, Note_off_c, 10, 65, 0
1, 78120, Note_off_c, 5, 65, 0
1, 78120, Note_off_c, 1, 65, 0
1, 78120, Note_on_c, 1, 59, 120
1, 78120, Note_on_c, 10, 59, 120
1, 78120, Note_on_c, 5, 59, 120
1, 78120, Note_on_c, 0, 77, 120
1, 78360, Note_off_c, 10, 59, 0
1, 78360, Note_off_c, 1, 59, 0
1, 78360, Note_off_c, 5, 59, 0
1, 78360, Note_off_c, 0, 77, 0
1, 78360, Note_on_c, 5, 55, 120
1, 78360, Note_on_c, 1, 55, 120
1, 78360, Note_on_c, 0, 74, 120
1, 78360, Note_on_c, 10, 55, 120
1, 78600, Note_off_c, 1, 55, 0
1, 78600, Note_off_c, 5, 55, 0
1, 78600, Note_off_c, 10, 55, 0
1, 78600, Note_off_c, 0, 74, 0
1, 78600, Note_on_c, 0, 77, 120
1, 78600, Note_on_c, 1, 59, 120
1, 78600, Note_on_c, 10, 59, 120
1, 78600, Note_on_c, 5, 59, 120
1, 78840, Note_off_c, 10, 59, 0
1, 78840, Note_off_c, 1, 59, 0
1, 78840, Note_off_c, 4, 79, 0
1, 78840, Note_off_c, 5, 59, 0
1, 78840, Note_off_c, 0, 77, 0
1, 78840, Note_on_c, 10, 48, 120
1, 78840, Note_on_c, 4, 81, 120
1, 78840, Note_on_c, 1, 48, 120
1, 78840, Note_on_c, 5, 48, 120
1, 78840, Note_on_c, 0, 81, 120
1, 79080, Note_off_c, 5, 48, 0
1, 79080, Note_off_c, 1, 48, 0
1, 79080, Note_off_c, 10, 48, 0
1, 79080, Note_on_c, 5, 58, 120
1, 79080, Note_on_c, 10, 58, 120
1, 79080, Note_on_c, 1, 58, 120
1, 79320, Note_off_c, 1, 58, 0
1, 79320, Note_off_c, 10, 58, 0
1, 79320, Note_off_c, 5, 58, 0
1, 79320, Note_on_c, 10, 60, 120
1, 79320, Note_on_c, 5, 60, 120
1, 79320, Note_on_c, 1, 60, 120
1, 79560, Note_off_c, 10, 60, 0
1, 79560, Note_off_c, 5, 60, 0
1, 79560, Note_off_c, 1, 60, 0
1, 79560, Note_on_c, 10, 65, 120
1, 79560, Note_on_c, 1, 65, 120
1, 79560, Note_on_c, 5, 65, 120
1, 80040, Note_off_c, 5, 65, 0
1, 80040, Note_off_c, 10, 65, 0
1, 80040, Note_off_c, 1, 65, 0
1, 80040, Note_on_c, 5, 60, 120
1, 80040, Note_on_c, 10, 60, 120
1, 80040, Note_on_c, 1, 60, 120
1, 80280, Note_off_c, 0, 81, 0
1, 80280, Note_off_c, 5, 60, 0
1, 80280, Note_off_c, 10, 60, 0
1, 80280, Note_off_c, 4, 81, 0
1, 80280, Note_off_c, 1, 60, 0
1, 80280, Note_on_c, 1, 58, 120
1, 80280, Note_on_c, 4, 82, 120
1, 80280, Note_on_c, 0, 82, 120
1, 80280, Note_on_c, 5, 58, 120
1, 80280, Note_on_c, 10, 58, 120
1, 80520, Note_off_c, 10, 58, 0
1, 80520, Note_off_c, 5, 58, 0
1, 80520, Note_off_c, 1, 58, 0
1, 80520, Note_on_c, 1, 60, 120
1, 80520, Note_on_c, 10, 60, 120
1, 80520, Note_on_c, 5, 60, 120
1, 80760, Note_off_c, 0, 82, 0
1, 80760, Note_off_c, 1, 60, 0
1, 80760, Note_off_c, 5, 60, 0
1, 80760, Note_off_c, 4, 82, 0
1, 80760, Note_off_c, 10, 60, 0
1, 80760, Note_on_c, 5, 48, 120
1, 80760, Note_on_c, 0, 81, 120
1, 80760, Note_on_c, 4, 81, 120
1, 80760, Note_on_c, 10, 48, 120
1, 80760, Note_on_c, 1, 48, 120
1, 81000, Note_off_c, 1, 48, 0
1, 81000, Note_off_c, 10, 48, 0
1, 81000, Note_off_c, 5, 48, 0
1, 81000, Note_on_c, 1, 58, 120
1, 81000, Note_on_c, 5, 58, 120
1, 81000, Note_on_c, 10, 58, 120
1, 81240, Note_off_c, 10, 58, 0
1, 81240, Note_off_c, 5, 58, 0
1, 81240, Note_off_c, 1, 58, 0
1, 81240, Note_on_c, 5, 60, 120
1, 81240, Note_on_c, 1, 60, 120
1, 81240, Note_on_c, 10, 60, 120
1, 81480, Note_off_c, 5, 60, 0
1, 81480, Note_off_c, 1, 60, 0
1, 81480, Note_off_c, 10, 60, 0
1, 81480, Note_on_c, 1, 64, 120
1, 81480, Note_on_c, 10, 64, 120
1, 81480, Note_on_c, 5, 64, 120
1, 81720, Note_off_c, 4, 81, 0
1, 81720, Note_off_c, 0, 81, 0
1, 81720, Note_on_c, 0, 79, 120
1, 81720, Note_on_c, 4, 79, 120
1, 81960, Note_off_c, 1, 64, 0
1, 81960, Note_off_c, 10, 64, 0
1, 81960, Note_off_c, 5, 64, 0
1, 81960, Note_on_c, 10, 60, 120
1, 81960, Note_on_c, 5, 60, 120
1, 81960, Note_on_c, 1, 60, 120
1, 82200, Note_off_c, 1, 60, 0
1, 82200, Note_off_c, 5, 60, 0
1, 82200, Note_off_c, 10, 60, 0
1, 82200, Note_on_c, 5, 58, 120
1, 82200, Note_on_c, 1, 58, 120
1, 82200, Note_on_c, 10, 58, 120
1, 82440, Note_off_c, 5, 58, 0
1, 82440, Note_off_c, 1, 58, 0
1, 82440, Note_off_c, 10, 58, 0
1, 82440, Note_on_c, 10, 60, 120
1, 82440, Note_on_c, 5, 60, 120
1, 82440, Note_on_c, 1, 60, 120
1, 82680, Note_off_c, 0, 79, 0
1, 82680, Note_off_c, 1, 60, 0
1, 82680, Note_off_c, 4, 79, 0
1, 82680, Note_off_c, 5, 60, 0
1, 82680, Note_off_c, 10, 60, 0
1, 82680, Note_on_c, 4, 77, 90
1, 82680, Note_on_c, 0, 77, 120
1, 82680, Note_on_c, 1, 53, 120
1, 82680, Note_on_c, 5, 53, 120
1, 82680, Note_on_c, 10, 53, 120
1, 82920, Note_off_c, 5, 53, 0
1, 82920, Note_off_c, 10, 53, 0
1, 82920, Note_off_c, 1, 53, 0
1, 82920, Note_on_c, 1, 58, 120
1, 82920, Note_on_c, 10, 58, 120
1, 82920, Note_on_c, 5, 58, 120
1, 83160, Note_off_c, 10, 58, 0
1, 83160, Note_off_c, 5, 58, 0
1, 83160, Note_off_c, 1, 58, 0
1, 83160, Note_on_c, 1, 60, 120
1, 83160, Note_on_c, 10, 60, 120
1, 83160, Note_on_c, 5, 60, 120
1, 83400, Note_off_c, 10, 60, 0
1, 83400, Note_off_c, 5, 60, 0
1, 83400, Note_off_c, 1, 60, 0
1, 83400, Note_on_c, 5, 53, 120
1, 83400, Note_on_c, 10, 53, 120
1, 83400, Note_on_c, 1, 53, 120
1, 83880, Note_off_c, 10, 53, 0
1, 83880, Note_off_c, 1, 53, 0
1, 83880, Note_off_c, 5, 53, 0
1, 83880, Note_on_c, 10, 58, 120
1, 83880, Note_on_c, 1, 58, 120
1, 83880, Note_on_c, 5, 58, 120
1, 84120, Note_off_c, 1, 58, 0
1, 84120, Note_off_c, 5, 58, 0
1, 84120, Note_off_c, 10, 58, 0
1, 84120, Note_on_c, 10, 62, 120
1, 84120, Note_on_c, 1, 62, 120
1, 84120, Note_on_c, 5, 62, 120
1, 84360, Note_off_c, 1, 62, 0
1, 84360, Note_off_c, 5, 62, 0
1, 84360, Note_off_c, 10, 62, 0
1, 84360, Note_on_c, 1, 65, 120
1, 84360, Note_on_c, 5, 65, 120
1, 84360, Note_on_c, 10, 65, 120
1, 84600, Note_off_c, 4, 77, 0
1, 84600, Note_off_c, 5, 65, 0
1, 84600, Note_off_c, 1, 65, 0
1, 84600, Note_off_c, 0, 77, 0
1, 84600, Note_off_c, 10, 65, 0
1, 84600, Note_on_c, 1, 52, 120
1, 84600, Note_on_c, 10, 52, 120
1, 84600, Note_on_c, 5, 52, 120
1, 84840, Note_off_c, 1, 52, 0
1, 84840, Note_off_c, 5, 52, 0
1, 84840, Note_off_c, 10, 52, 0
1, 84840, Note_on_c, 1, 55, 120
1, 84840, Note_on_c, 10, 55, 120
1, 84840, Note_on_c, 5, 55, 120
1, 85080, Note_off_c, 1, 55, 0
1, 85080, Note_off_c, 5, 55, 0
1, 85080, Note_off_c, 10, 55, 0
1, 85080, Note_on_c, 0, 76, 120
1, 85080, Note_on_c, 1, 60, 120
1, 85080, Note_on_c, 5, 60, 120
1, 85080, Note_on_c, 10, 60, 120
1, 85320, Note_off_c, 10, 60, 0
1, 85320, Note_off_c, 1, 60, 0
1, 85320, Note_off_c, 0, 76, 0
1, 85320, Note_off_c, 5, 60, 0
1, 85320, Note_on_c, 0, 69, 120
1, 85320, Note_on_c, 5, 60, 120
1, 85320, Note_on_c, 10, 53, 120
1, 85320, Note_on_c, 1, 53, 120
1, 85320, Note_on_c, 1, 60, 120
1, 85320, Note_on_c, 10, 60, 120
1, 85320, Note_on_c, 5, 53, 120
1, 86520, Note_off_c, 1, 53, 0
1, 86520, Note_off_c, 10, 53, 0
1, 86520, Note_off_c, 1, 60, 0
1, 86520, Note_off_c, 10, 60, 0
1, 86520, Note_off_c, 0, 69, 0
1, 86520, Note_off_c, 5, 53, 0
1, 86520, Note_off_c, 5, 60, 0
1, 86520, Note_on_c, 10, 53, 120
1, 86520, Note_on_c, 1, 53, 120
1, 86520, Note_on_c, 5, 53, 120
1, 86760, Note_off_c, 5, 53, 0
1, 86760, Note_off_c, 10, 53, 0
1, 86760, Note_off_c, 1, 53, 0
1, 86760, Note_on_c, 1, 57, 120
1, 86760, Note_on_c, 5, 57, 120
1, 86760, Note_on_c, 10, 57, 120
1, 87000, Note_off_c, 10, 57, 0
1, 87000, Note_off_c, 1, 57, 0
1, 87000, Note_off_c, 5, 57, 0
1, 87000, Note_on_c, 10, 60, 120
1, 87000, Note_on_c, 5, 60, 120
1, 87000, Note_on_c, 1, 60, 120
1, 87240, Note_off_c, 1, 60, 0
1, 87240, Note_off_c, 10, 60, 0
1, 87240, Note_off_c, 5, 60, 0
1, 87240, Note_on_c, 5, 53, 120
1, 87240, Note_on_c, 10, 53, 120
1, 87240, Note_on_c, 1, 53, 120
1, 87480, Note_off_c, 1, 53, 0
1, 87480, Note_off_c, 5, 53, 0
1, 87480, Note_off_c, 10, 53, 0
1, 87480, Note_on_c, 5, 58, 120
1, 87480, Note_on_c, 1, 58, 120
1, 87480, Note_on_c, 10, 58, 120
1, 87720, Note_off_c, 10, 58, 0
1, 87720, Note_off_c, 5, 58, 0
1, 87720, Note_off_c, 1, 58, 0
1, 87720, Note_on_c, 5, 65, 120
1, 87720, Note_on_c, 10, 65, 120
1, 87720, Note_on_c, 1, 65, 120
1, 87960, Note_off_c, 1, 65, 0
1, 87960, Note_off_c, 5, 65, 0
1, 87960, Note_off_c, 10, 65, 0
1, 87960, Note_on_c, 5, 62, 120
1, 87960, Note_on_c, 1, 62, 120
1, 87960, Note_on_c, 10, 62, 120
1, 88200, Note_off_c, 10, 62, 0
1, 88200, Note_off_c, 5, 62, 0
1, 88200, Note_off_c, 1, 62, 0
1, 88200, Note_on_c, 1, 58, 120
1, 88200, Note_on_c, 10, 58, 120
1, 88200, Note_on_c, 5, 58, 120
1, 88440, Note_off_c, 5, 58, 0
1, 88440, Note_off_c, 1, 58, 0
1, 88440, Note_off_c, 10, 58, 0
1, 88440, Note_on_c, 5, 52, 120
1, 88440, Note_on_c, 10, 52, 120
1, 88440, Note_on_c, 1, 52, 120
1, 88680, Note_off_c, 1, 52, 0
1, 88680, Note_off_c, 5, 52, 0
1, 88680, Note_off_c, 10, 52, 0
1, 88680, Note_on_c, 5, 58, 120
1, 88680, Note_on_c, 10, 58, 120
1, 88680, Note_on_c, 1, 58, 120
1, 88920, Note_off_c, 1, 58, 0
1, 88920, Note_off_c, 5, 58, 0
1, 88920, Note_off_c, 10, 58, 0
1, 88920, Note_on_c, 0, 76, 120
1, 88920, Note_on_c, 1, 60, 120
1, 88920, Note_on_c, 10, 60, 120
1, 88920, Note_on_c, 5, 60, 120
1, 89160, Note_off_c, 0, 76, 0
1, 89160, Note_off_c, 5, 60, 0
1, 89160, Note_off_c, 10, 60, 0
1, 89160, Note_off_c, 1, 60, 0
1, 89160, Note_on_c, 10, 53, 120
1, 89160, Note_on_c, 1, 53, 120
1, 89160, Note_on_c, 5, 53, 120
1, 89160, Note_on_c, 0, 77, 120
1, 89400, Note_off_c, 0, 77, 0
1, 89400, Note_on_c, 0, 72, 120
1, 89640, Note_off_c, 0, 72, 0
1, 89640, Note_on_c, 0, 69, 120
1, 89880, Note_off_c, 0, 69, 0
1, 89880, Note_on_c, 0, 72, 120
1, 90120, Note_off_c, 0, 72, 0
1, 90120, Note_on_c, 0, 77, 120
1, 90360, Note_off_c, 5, 53, 0
1, 90360, Note_off_c, 0, 77, 0
1, 90360, Note_off_c, 1, 53, 0
1, 90360, Note_off_c, 10, 53, 0
1, 90360, Note_on_c, 5, 60, 120
1, 90360, Note_on_c, 1, 57, 120
1, 90360, Note_on_c, 10, 57, 120
1, 90360, Note_on_c, 0, 77, 120
1, 90360, Note_on_c, 10, 53, 120
1, 90360, Note_on_c, 1, 53, 120
1, 90360, Note_on_c, 5, 57, 120
1, 90360, Note_on_c, 0, 69, 120
1, 90360, Note_on_c, 1, 60, 120
1, 90360, Note_on_c, 10, 60, 120
1, 90360, Note_on_c, 5, 53, 120
1, 90600, Note_off_c, 0, 69, 0
1, 90600, Note_on_c, 0, 70, 120
1, 90840, Note_off_c, 0, 70, 0
1, 90840, Note_on_c, 0, 72, 120
1, 91080, Note_off_c, 5, 60, 0
1, 91080, Note_off_c, 10, 53, 0
1, 91080, Note_off_c, 1, 60, 0
1, 91080, Note_off_c, 10, 60, 0
1, 91080, Note_off_c, 10, 57, 0
1, 91080, Note_off_c, 1, 57, 0
1, 91080, Note_off_c, 0, 72, 0
1, 91080, Note_off_c, 0, 77, 0
1, 91080, Note_off_c, 5, 53, 0
1, 91080, Note_off_c, 5, 57, 0
1, 91080, Note_off_c, 1, 53, 0
1, 91080, Note_on_c, 1, 62, 120
1, 91080, Note_on_c, 10, 58, 120
1, 91080, Note_on_c, 10, 53, 120
1, 91080, Note_on_c, 5, 62, 120
1, 91080, Note_on_c, 5, 53, 120
1, 91080, Note_on_c, 1, 58, 120
1, 91080, Note_on_c, 10, 62, 120
1, 91080, Note_on_c, 0, 76, 120
1, 91080, Note_on_c, 1, 53, 120
1, 91080, Note_on_c, 5, 58, 120
1, 91080, Note_on_c, 0, 77, 120
1, 91560, Note_off_c, 0, 76, 0
1, 91560, Note_on_c, 0, 74, 120
1, 92040, Note_off_c, 0, 74, 0
1, 92040, Note_on_c, 0, 70, 120
1, 92280, Note_off_c, 1, 62, 0
1, 92280, Note_off_c, 1, 53, 0
1, 92280, Note_off_c, 5, 62, 0
1, 92280, Note_off_c, 10, 62, 0
1, 92280, Note_off_c, 5, 58, 0
1, 92280, Note_off_c, 10, 58, 0
1, 92280, Note_off_c, 0, 70, 0
1, 92280, Note_off_c, 0, 77, 0
1, 92280, Note_off_c, 5, 53, 0
1, 92280, Note_off_c, 1, 58, 0
1, 92280, Note_off_c, 10, 53, 0
1, 92280, Note_on_c, 1, 58, 120
1, 92280, Note_on_c, 10, 58, 120
1, 92280, Note_on_c, 0, 77, 120
1, 92280, Note_on_c, 10, 53, 120
1, 92280, Note_on_c, 1, 53, 120
1, 92280, Note_on_c, 5, 62, 120
1, 92280, Note_on_c, 5, 58, 120
1, 92280, Note_on_c, 0, 74, 120
1, 92280, Note_on_c, 1, 62, 120
1, 92280, Note_on_c, 10, 62, 120
1, 92280, Note_on_c, 5, 53, 120
1, 92520, Note_off_c, 0, 74, 0
1, 92520, Note_on_c, 0, 72, 120
1, 92760, Note_off_c, 1, 58, 0
1, 92760, Note_off_c, 10, 53, 0
1, 92760, Note_off_c, 5, 62, 0
1, 92760, Note_off_c, 1, 62, 0
1, 92760, Note_off_c, 5, 58, 0
1, 92760, Note_off_c, 10, 58, 0
1, 92760, Note_off_c, 10, 62, 0
1, 92760, Note_off_c, 0, 72, 0
1, 92760, Note_off_c, 1, 53, 0
1, 92760, Note_off_c, 5, 53, 0
1, 92760, Note_off_c, 0, 77, 0
1, 92760, Note_on_c, 0, 77, 120
1, 92760, Note_on_c, 10, 60, 120
1, 92760, Note_on_c, 1, 53, 120
1, 92760, Note_on_c, 5, 53, 120
1, 92760, Note_on_c, 1, 60, 120
1, 92760, Note_on_c, 5, 60, 120
1, 92760, Note_on_c, 5, 57, 120
1, 92760, Note_on_c, 10, 57, 120
1, 92760, Note_on_c, 0, 72, 120
1, 92760, Note_on_c, 10, 53, 120
1, 92760, Note_on_c, 1, 57, 120
1, 93240, Note_off_c, 0, 77, 0
1, 93240, Note_off_c, 10, 57, 0
1, 93240, Note_off_c, 1, 57, 0
1, 93240, Note_off_c, 5, 57, 0
1, 93240, Note_off_c, 10, 53, 0
1, 93240, Note_off_c, 5, 53, 0
1, 93240, Note_off_c, 10, 60, 0
1, 93240, Note_off_c, 1, 60, 0
1, 93240, Note_off_c, 0, 72, 0
1, 93240, Note_off_c, 1, 53, 0
1, 93240, Note_off_c, 5, 60, 0
1, 93240, Note_on_c, 10, 53, 120
1, 93240, Note_on_c, 5, 53, 120
1, 93240, Note_on_c, 1, 53, 120
1, 93480, Note_on_c, 0, 65, 120
1, 93480, Note_on_c, 1, 57, 120
1, 93480, Note_on_c, 10, 57, 120
1, 93480, Note_on_c, 5, 57, 120
1, 93720, Note_off_c, 5, 53, 0
1, 93720, Note_off_c, 10, 53, 0
1, 93720, Note_off_c, 1, 53, 0
1, 93720, Note_off_c, 10, 57, 0
1, 93720, Note_off_c, 0, 65, 0
1, 93720, Note_off_c, 5, 57, 0
1, 93720, Note_off_c, 1, 57, 0
1, 93720, Note_on_c, 5, 52, 120
1, 93720, Note_on_c, 1, 52, 120
1, 93720, Note_on_c, 10, 52, 120
1, 93960, Note_on_c, 0, 64, 120
1, 93960, Note_on_c, 5, 55, 120
1, 93960, Note_on_c, 1, 55, 120
1, 93960, Note_on_c, 10, 55, 120
1, 94200, Note_off_c, 5, 52, 0
1, 94200, Note_off_c, 1, 52, 0
1, 94200, Note_off_c, 5, 55, 0
1, 94200, Note_off_c, 1, 55, 0
1, 94200, Note_off_c, 0, 64, 0
1, 94200, Note_off_c, 10, 52, 0
1, 94200, Note_off_c, 10, 55, 0
1, 94200, Note_on_c, 1, 57, 120
1, 94200, Note_on_c, 10, 57, 120
1, 94200, Note_on_c, 0, 65, 120
1, 94200, Note_on_c, 5, 53, 120
1, 94200, Note_on_c, 10, 53, 120
1, 94200, Note_on_c, 0, 74, 120
1, 94200, Note_on_c, 1, 53, 120
1, 94200, Note_on_c, 5, 57, 120
1, 94200, Note_on_c, 1, 50, 120
1, 94200, Note_on_c, 10, 50, 120
1, 94200, Note_on_c, 5, 50, 120
1, 94440, Note_off_c, 0, 65, 0
1, 94440, Note_on_c, 0, 67, 120
1, 94680, Note_off_c, 0, 67, 0
1, 94680, Note_on_c, 0, 69, 120
1, 94920, Note_off_c, 1, 57, 0
1, 94920, Note_off_c, 5, 50, 0
1, 94920, Note_off_c, 5, 57, 0
1, 94920, Note_off_c, 10, 57, 0
1, 94920, Note_off_c, 10, 53, 0
1, 94920, Note_off_c, 1, 53, 0
1, 94920, Note_off_c, 0, 69, 0
1, 94920, Note_off_c, 0, 74, 0
1, 94920, Note_off_c, 10, 50, 0
1, 94920, Note_off_c, 5, 53, 0
1, 94920, Note_off_c, 1, 50, 0
1, 94920, Note_on_c, 10, 58, 120
1, 94920, Note_on_c, 0, 72, 120
1, 94920, Note_on_c, 0, 74, 120
1, 94920, Note_on_c, 1, 55, 120
1, 94920, Note_on_c, 5, 55, 120
1, 94920, Note_on_c, 1, 58, 120
1, 94920, Note_on_c, 5, 58, 120
1, 94920, Note_on_c, 10, 50, 120
1, 94920, Note_on_c, 1, 50, 120
1, 94920, Note_on_c, 5, 50, 120
1, 94920, Note_on_c, 10, 55, 120
1, 95400, Note_off_c, 0, 72, 0
1, 95400, Note_on_c, 0, 70, 120
1, 95880, Note_off_c, 0, 70, 0
1, 95880, Note_on_c, 0, 67, 120
1, 96120, Note_off_c, 10, 58, 0
1, 96120, Note_off_c, 5, 50, 0
1, 96120, Note_off_c, 1, 58, 0
1, 96120, Note_off_c, 5, 58, 0
1, 96120, Note_off_c, 1, 55, 0
1, 96120, Note_off_c, 5, 55, 0
1, 96120, Note_off_c, 0, 67, 0
1, 96120, Note_off_c, 0, 74, 0
1, 96120, Note_off_c, 10, 50, 0
1, 96120, Note_off_c, 10, 55, 0
1, 96120, Note_off_c, 1, 50, 0
1, 96120, Note_on_c, 5, 55, 120
1, 96120, Note_on_c, 10, 50, 120
1, 96120, Note_on_c, 1, 58, 120
1, 96120, Note_on_c, 5, 50, 120
1, 96120, Note_on_c, 10, 55, 120
1, 96120, Note_on_c, 0, 74, 120
1, 96120, Note_on_c, 1, 50, 120
1, 96120, Note_on_c, 1, 55, 120
1, 96120, Note_on_c, 0, 70, 120
1, 96120, Note_on_c, 5, 58, 120
1, 96120, Note_on_c, 10, 58, 120
1, 96360, Note_off_c, 0, 70, 0
1, 96360, Note_on_c, 0, 69, 120
1, 96600, Note_off_c, 5, 55, 0
1, 96600, Note_off_c, 1, 50, 0
1, 96600, Note_off_c, 10, 58, 0
1, 96600, Note_off_c, 1, 58, 0
1, 96600, Note_off_c, 10, 55, 0
1, 96600, Note_off_c, 1, 55, 0
1, 96600, Note_off_c, 5, 58, 0
1, 96600, Note_off_c, 0, 69, 0
1, 96600, Note_off_c, 10, 50, 0
1, 96600, Note_off_c, 5, 50, 0
1, 96600, Note_off_c, 0, 74, 0
1, 96600, Note_on_c, 0, 74, 120
1, 96600, Note_on_c, 5, 50, 120
1, 96600, Note_on_c, 1, 53, 120
1, 96600, Note_on_c, 10, 53, 120
1, 96600, Note_on_c, 5, 57, 120
1, 96600, Note_on_c, 1, 50, 120
1, 96600, Note_on_c, 10, 57, 120
1, 96600, Note_on_c, 0, 69, 120
1, 96600, Note_on_c, 5, 53, 120
1, 96600, Note_on_c, 1, 57, 120
1, 96600, Note_on_c, 10, 50, 120
1, 97080, Note_off_c, 10, 50, 0
1, 97080, Note_off_c, 1, 53, 0
1, 97080, Note_off_c, 5, 53, 0
1, 97080, Note_off_c, 10, 53, 0
1, 97080, Note_off_c, 1, 50, 0
1, 97080, Note_off_c, 5, 50, 0
1, 97080, Note_off_c, 5, 57, 0
1, 97080, Note_off_c, 1, 57, 0
1, 97080, Note_off_c, 0, 74, 0
1, 97080, Note_off_c, 0, 69, 0
1, 97080, Note_off_c, 10, 57, 0
1, 97080, Note_on_c, 10, 50, 120
1, 97080, Note_on_c, 1, 50, 120
1, 97080, Note_on_c, 5, 50, 120
1, 97320, Note_on_c, 0, 65, 120
1, 97320, Note_on_c, 10, 57, 120
1, 97320, Note_on_c, 1, 57, 120
1, 97320, Note_on_c, 5, 57, 120
1, 97560, Note_off_c, 0, 65, 0
1, 97560, Note_off_c, 5, 50, 0
1, 97560, Note_off_c, 1, 50, 0
1, 97560, Note_off_c, 5, 57, 0
1, 97560, Note_off_c, 1, 57, 0
1, 97560, Note_off_c, 10, 50, 0
1, 97560, Note_off_c, 10, 57, 0
1, 97560, Note_on_c, 10, 48, 120
1, 97560, Note_on_c, 1, 48, 120
1, 97560, Note_on_c, 5, 48, 120
1, 97800, Note_on_c, 0, 64, 120
1, 97800, Note_on_c, 1, 55, 120
1, 97800, Note_on_c, 10, 55, 120
1, 97800, Note_on_c, 5, 55, 120
1, 98040, Note_off_c, 1, 48, 0
1, 98040, Note_off_c, 10, 48, 0
1, 98040, Note_off_c, 5, 48, 0
1, 98040, Note_off_c, 10, 55, 0
1, 98040, Note_off_c, 0, 64, 0
1, 98040, Note_off_c, 5, 55, 0
1, 98040, Note_off_c, 1, 55, 0
1, 98040, Note_on_c, 5, 46, 120
1, 98040, Note_on_c, 10, 46, 120
1, 98040, Note_on_c, 1, 46, 120
1, 98280, Note_on_c, 0, 70, 120
1, 98280, Note_on_c, 0, 62, 120
1, 98520, Note_off_c, 5, 46, 0
1, 98520, Note_off_c, 1, 46, 0
1, 98520, Note_off_c, 10, 46, 0
1, 98520, Note_off_c, 0, 62, 0
1, 98520, Note_on_c, 10, 58, 120
1, 98520, Note_on_c, 0, 64, 120
1, 98520, Note_on_c, 10, 53, 120
1, 98520, Note_on_c, 5, 58, 120
1, 98520, Note_on_c, 1, 58, 120
1, 98520, Note_on_c, 1, 53, 120
1, 98520, Note_on_c, 5, 53, 120
1, 98760, Note_off_c, 0, 64, 0
1, 98760, Note_on_c, 0, 65, 120
1, 99000, Note_off_c, 10, 58, 0
1, 99000, Note_off_c, 0, 70, 0
1, 99000, Note_off_c, 10, 53, 0
1, 99000, Note_off_c, 5, 58, 0
1, 99000, Note_off_c, 1, 58, 0
1, 99000, Note_off_c, 1, 53, 0
1, 99000, Note_off_c, 5, 53, 0
1, 99000, Note_off_c, 0, 65, 0
1, 99000, Note_on_c, 0, 64, 120
1, 99000, Note_on_c, 5, 48, 120
1, 99000, Note_on_c, 10, 48, 120
1, 99000, Note_on_c, 1, 48, 120
1, 99000, Note_on_c, 0, 70, 120
1, 99000, Note_on_c, 0, 67, 120
1, 99240, Note_off_c, 5, 48, 0
1, 99240, Note_off_c, 1, 48, 0
1, 99240, Note_off_c, 10, 48, 0
1, 99240, Note_on_c, 1, 60, 120
1, 99240, Note_on_c, 5, 58, 120
1, 99240, Note_on_c, 10, 60, 120
1, 99240, Note_on_c, 5, 60, 120
1, 99240, Note_on_c, 1, 58, 120
1, 99240, Note_on_c, 10, 58, 120
1, 99360, Note_off_c, 0, 64, 0
1, 99360, Note_off_c, 0, 67, 0
1, 99360, Note_on_c, 0, 65, 120
1, 99720, Note_off_c, 1, 58, 0
1, 99720, Note_off_c, 10, 58, 0
1, 99720, Note_off_c, 10, 60, 0
1, 99720, Note_off_c, 1, 60, 0
1, 99720, Note_off_c, 5, 58, 0
1, 99720, Note_off_c, 5, 60, 0
1, 99720, Note_on_c, 1, 60, 120
1, 99720, Note_on_c, 0, 67, 120
1, 99720, Note_on_c, 5, 60, 120
1, 99720, Note_on_c, 1, 58, 120
1, 99720, Note_on_c, 10, 58, 120
1, 99720, Note_on_c, 5, 58, 120
1, 99720, Note_on_c, 10, 60, 120
1, 99960, Note_off_c, 5, 60, 0
1, 99960, Note_off_c, 10, 58, 0
1, 99960, Note_off_c, 1, 60, 0
1, 99960, Note_off_c, 5, 58, 0
1, 99960, Note_off_c, 10, 60, 0
1, 99960, Note_off_c, 1, 58, 0
1, 99960, Note_on_c, 5, 45, 120
1, 99960, Note_on_c, 10, 45, 120
1, 99960, Note_on_c, 1, 45, 120
1, 100080, Note_off_c, 0, 65, 0
1, 100200, Note_off_c, 0, 70, 0
1, 100200, Note_on_c, 0, 69, 120
1, 100200, Note_on_c, 0, 64, 120
1, 100440, Note_off_c, 5, 45, 0
1, 100440, Note_off_c, 1, 45, 0
1, 100440, Note_off_c, 10, 45, 0
1, 100440, Note_off_c, 0, 69, 0
1, 100440, Note_off_c, 0, 67, 0
1, 100440, Note_off_c, 0, 64, 0
1, 100440, Note_on_c, 0, 64, 120
1, 100440, Note_on_c, 1, 60, 120
1, 100440, Note_on_c, 5, 55, 120
1, 100440, Note_on_c, 10, 60, 120
1, 100440, Note_on_c, 5, 60, 120
1, 100440, Note_on_c, 10, 55, 120
1, 100440, Note_on_c, 1, 55, 120
1, 100440, Note_on_c, 0, 69, 120
1, 100680, Note_off_c, 1, 60, 0
1, 100680, Note_off_c, 5, 55, 0
1, 100680, Note_off_c, 10, 60, 0
1, 100680, Note_off_c, 1, 55, 0
1, 100680, Note_off_c, 10, 55, 0
1, 100680, Note_off_c, 5, 60, 0
1, 100680, Note_on_c, 1, 45, 120
1, 100680, Note_on_c, 10, 45, 120
1, 100680, Note_on_c, 5, 45, 120
1, 100920, Note_off_c, 0, 64, 0
1, 100920, Note_off_c, 10, 45, 0
1, 100920, Note_off_c, 1, 45, 0
1, 100920, Note_off_c, 0, 69, 0
1, 100920, Note_off_c, 5, 45, 0
1, 100920, Note_on_c, 1, 50, 120
1, 100920, Note_on_c, 5, 50, 120
1, 100920, Note_on_c, 10, 50, 120
1, 101160, Note_off_c, 1, 50, 0
1, 101160, Note_off_c, 10, 50, 0
1, 101160, Note_off_c, 5, 50, 0
1, 101160, Note_on_c, 1, 57, 120
1, 101160, Note_on_c, 10, 53, 120
1, 101160, Note_on_c, 5, 57, 120
1, 101160, Note_on_c, 5, 53, 120
1, 101160, Note_on_c, 10, 57, 120
1, 101160, Note_on_c, 1, 53, 120
1, 101640, Note_off_c, 5, 53, 0
1, 101640, Note_off_c, 10, 53, 0
1, 101640, Note_off_c, 5, 57, 0
1, 101640, Note_off_c, 1, 53, 0
1, 101640, Note_off_c, 1, 57, 0
1, 101640, Note_off_c, 10, 57, 0
1, 101640, Note_on_c, 10, 57, 120
1, 101640, Note_on_c, 1, 57, 120
1, 101640, Note_on_c, 5, 57, 120
1, 101640, Note_on_c, 5, 53, 120
1, 101640, Note_on_c, 10, 53, 120
1, 101640, Note_on_c, 1, 53, 120
1, 101880, Note_off_c, 10, 57, 0
1, 101880, Note_off_c, 1, 53, 0
1, 101880, Note_off_c, 5, 53, 0
1, 101880, Note_off_c, 10, 53, 0
1, 101880, Note_off_c, 5, 57, 0
1, 101880, Note_off_c, 1, 57, 0
1, 101880, Note_on_c, 5, 43, 120
1, 101880, Note_on_c, 10, 43, 120
1, 101880, Note_on_c, 1, 43, 120
1, 102120, Note_on_c, 0, 73, 120
1, 102120, Note_on_c, 0, 65, 120
1, 102360, Note_off_c, 5, 43, 0
1, 102360, Note_off_c, 1, 43, 0
1, 102360, Note_off_c, 10, 43, 0
1, 102360, Note_off_c, 0, 65, 0
1, 102360, Note_on_c, 1, 61, 120
1, 102360, Note_on_c, 5, 58, 120
1, 102360, Note_on_c, 1, 58, 120
1, 102360, Note_on_c, 5, 61, 120
1, 102360, Note_on_c, 0, 67, 120
1, 102360, Note_on_c, 10, 58, 120
1, 102360, Note_on_c, 10, 61, 120
1, 102600, Note_off_c, 0, 67, 0
1, 102600, Note_on_c, 0, 69, 120
1, 102840, Note_off_c, 1, 61, 0
1, 102840, Note_off_c, 0, 73, 0
1, 102840, Note_off_c, 5, 58, 0
1, 102840, Note_off_c, 10, 61, 0
1, 102840, Note_off_c, 5, 61, 0
1, 102840, Note_off_c, 1, 58, 0
1, 102840, Note_off_c, 10, 58, 0
1, 102840, Note_off_c, 0, 69, 0
1, 102840, Note_on_c, 0, 70, 120
1, 102840, Note_on_c, 0, 74, 120
1, 102840, Note_on_c, 10, 48, 120
1, 102840, Note_on_c, 1, 48, 120
1, 102840, Note_on_c, 5, 48, 120
1, 103080, Note_off_c, 1, 48, 0
1, 103080, Note_off_c, 5, 48, 0
1, 103080, Note_off_c, 10, 48, 0
1, 103080, Note_on_c, 5, 58, 120
1, 103080, Note_on_c, 10, 61, 120
1, 103080, Note_on_c, 1, 58, 120
1, 103080, Note_on_c, 5, 61, 120
1, 103080, Note_on_c, 10, 58, 120
1, 103080, Note_on_c, 1, 61, 120
1, 103200, Note_off_c, 0, 70, 0
1, 103200, Note_on_c, 0, 69, 120
1, 103560, Note_off_c, 5, 58, 0
1, 103560, Note_off_c, 0, 69, 0
1, 103560, Note_off_c, 0, 74, 0
1, 103560, Note_off_c, 5, 61, 0
1, 103560, Note_off_c, 10, 61, 0
1, 103560, Note_off_c, 10, 58, 0
1, 103560, Note_off_c, 1, 58, 0
1, 103560, Note_off_c, 1, 61, 0
1, 103560, Note_on_c, 0, 70, 120
1, 103560, Note_on_c, 5, 58, 120
1, 103560, Note_on_c, 1, 58, 120
1, 103560, Note_on_c, 1, 61, 120
1, 103560, Note_on_c, 10, 61, 120
1, 103560, Note_on_c, 0, 74, 120
1, 103560, Note_on_c, 5, 61, 120
1, 103560, Note_on_c, 10, 58, 120
1, 103800, Note_off_c, 5, 58, 0
1, 103800, Note_off_c, 10, 58, 0
1, 103800, Note_off_c, 1, 61, 0
1, 103800, Note_off_c, 1, 58, 0
1, 103800, Note_off_c, 5, 61, 0
1, 103800, Note_off_c, 10, 61, 0
1, 103800, Note_on_c, 5, 45, 120
1, 103800, Note_on_c, 1, 45, 120
1, 103800, Note_on_c, 10, 45, 120
1, 104040, Note_off_c, 0, 74, 0
1, 104040, Note_off_c, 10, 45, 0
1, 104040, Note_off_c, 5, 45, 0
1, 104040, Note_off_c, 1, 45, 0
1, 104040, Note_on_c, 10, 60, 120
1, 104040, Note_on_c, 0, 69, 120
1, 104040, Note_on_c, 5, 60, 120
1, 104040, Note_on_c, 1, 55, 120
1, 104040, Note_on_c, 1, 60, 120
1, 104040, Note_on_c, 0, 72, 120
1, 104040, Note_on_c, 10, 55, 120
1, 104040, Note_on_c, 5, 55, 120
1, 104280, Note_off_c, 0, 70, 0
1, 104280, Note_off_c, 0, 69, 0
1, 104280, Note_off_c, 0, 72, 0
1, 104280, Note_on_c, 0, 69, 120
1, 104280, Note_on_c, 0, 72, 120
1, 104520, Note_off_c, 5, 60, 0
1, 104520, Note_off_c, 10, 60, 0
1, 104520, Note_off_c, 1, 60, 0
1, 104520, Note_off_c, 10, 55, 0
1, 104520, Note_off_c, 5, 55, 0
1, 104520, Note_off_c, 1, 55, 0
1, 104520, Note_on_c, 10, 60, 120
1, 104520, Note_on_c, 1, 55, 120
1, 104520, Note_on_c, 10, 55, 120
1, 104520, Note_on_c, 5, 55, 120
1, 104520, Note_on_c, 5, 60, 120
1, 104520, Note_on_c, 1, 60, 120
1, 104760, Note_off_c, 0, 69, 0
1, 104760, Note_off_c, 1, 55, 0
1, 104760, Note_off_c, 10, 60, 0
1, 104760, Note_off_c, 10, 55, 0
1, 104760, Note_off_c, 1, 60, 0
1, 104760, Note_off_c, 0, 72, 0
1, 104760, Note_off_c, 5, 55, 0
1, 104760, Note_off_c, 5, 60, 0
1, 104760, Note_on_c, 10, 50, 120
1, 104760, Note_on_c, 1, 50, 120
1, 104760, Note_on_c, 5, 50, 120
1, 105000, Note_off_c, 10, 50, 0
1, 105000, Note_off_c, 1, 50, 0
1, 105000, Note_off_c, 5, 50, 0
1, 105000, Note_on_c, 5, 57, 120
1, 105000, Note_on_c, 5, 66, 120
1, 105000, Note_on_c, 1, 57, 120
1, 105000, Note_on_c, 10, 66, 120
1, 105000, Note_on_c, 1, 66, 120
1, 105000, Note_on_c, 10, 57, 120
1, 105240, Note_on_c, 0, 70, 120
1, 105480, Note_off_c, 5, 57, 0
1, 105480, Note_off_c, 0, 70, 0
1, 105480, Note_off_c, 1, 66, 0
1, 105480, Note_off_c, 10, 66, 0
1, 105480, Note_off_c, 10, 57, 0
1, 105480, Note_off_c, 1, 57, 0
1, 105480, Note_off_c, 5, 66, 0
1, 105480, Note_on_c, 0, 69, 120
1, 105480, Note_on_c, 10, 66, 120
1, 105480, Note_on_c, 5, 57, 120
1, 105480, Note_on_c, 1, 57, 120
1, 105480, Note_on_c, 5, 66, 120
1, 105480, Note_on_c, 1, 66, 120
1, 105480, Note_on_c, 10, 57, 120
1, 105720, Note_off_c, 1, 57, 0
1, 105720, Note_off_c, 5, 57, 0
1, 105720, Note_off_c, 5, 66, 0
1, 105720, Note_off_c, 1, 66, 0
1, 105720, Note_off_c, 0, 69, 0
1, 105720, Note_off_c, 10, 57, 0
1, 105720, Note_off_c, 10, 66, 0
1, 105720, Note_on_c, 0, 65, 120
1, 105720, Note_on_c, 1, 43, 120
1, 105720, Note_on_c, 5, 43, 120
1, 105720, Note_on_c, 10, 43, 120
1, 106200, Note_off_c, 5, 43, 0
1, 106200, Note_off_c, 1, 43, 0
1, 106200, Note_off_c, 10, 43, 0
1, 106200, Note_on_c, 5, 58, 120
1, 106200, Note_on_c, 5, 53, 120
1, 106200, Note_on_c, 1, 53, 120
1, 106200, Note_on_c, 10, 53, 120
1, 106200, Note_on_c, 1, 58, 120
1, 106200, Note_on_c, 10, 58, 120
1, 106440, Note_off_c, 1, 53, 0
1, 106440, Note_off_c, 5, 53, 0
1, 106440, Note_off_c, 5, 58, 0
1, 106440, Note_off_c, 1, 58, 0
1, 106440, Note_off_c, 10, 58, 0
1, 106440, Note_off_c, 10, 53, 0
1, 106440, Note_on_c, 10, 43, 120
1, 106440, Note_on_c, 1, 43, 120
1, 106440, Note_on_c, 5, 43, 120
1, 106680, Note_off_c, 1, 43, 0
1, 106680, Note_off_c, 10, 43, 0
1, 106680, Note_off_c, 0, 65, 0
1, 106680, Note_off_c, 5, 43, 0
1, 106680, Note_on_c, 5, 43, 120
1, 106680, Note_on_c, 1, 43, 120
1, 106680, Note_on_c, 10, 43, 120
1, 106920, Note_off_c, 1, 43, 0
1, 106920, Note_off_c, 5, 43, 0
1, 106920, Note_off_c, 10, 43, 0
1, 106920, Note_on_c, 10, 58, 120
1, 106920, Note_on_c, 1, 58, 120
1, 106920, Note_on_c, 1, 53, 120
1, 106920, Note_on_c, 5, 58, 120
1, 106920, Note_on_c, 0, 62, 120
1, 106920, Note_on_c, 10, 53, 120
1, 106920, Note_on_c, 5, 53, 120
1, 107160, Note_off_c, 0, 62, 0
1, 107160, Note_on_c, 0, 65, 120
1, 107400, Note_off_c, 10, 58, 0
1, 107400, Note_off_c, 5, 53, 0
1, 107400, Note_off_c, 1, 58, 0
1, 107400, Note_off_c, 5, 58, 0
1, 107400, Note_off_c, 1, 53, 0
1, 107400, Note_off_c, 10, 53, 0
1, 107400, Note_off_c, 0, 65, 0
1, 107400, Note_on_c, 0, 67, 120
1, 107400, Note_on_c, 5, 53, 120
1, 107400, Note_on_c, 1, 58, 120
1, 107400, Note_on_c, 5, 58, 120
1, 107400, Note_on_c, 10, 53, 120
1, 107400, Note_on_c, 1, 53, 120
1, 107400, Note_on_c, 10, 58, 120
1, 107640, Note_off_c, 10, 53, 0
1, 107640, Note_off_c, 1, 53, 0
1, 107640, Note_off_c, 5, 58, 0
1, 107640, Note_off_c, 10, 58, 0
1, 107640, Note_off_c, 0, 67, 0
1, 107640, Note_off_c, 5, 53, 0
1, 107640, Note_off_c, 1, 58, 0
1, 107640, Note_on_c, 0, 69, 120
1, 107640, Note_on_c, 5, 48, 120
1, 107640, Note_on_c, 1, 48, 120
1, 107640, Note_on_c, 10, 48, 120
1, 108120, Note_off_c, 5, 48, 0
1, 108120, Note_off_c, 1, 48, 0
1, 108120, Note_off_c, 0, 69, 0
1, 108120, Note_off_c, 10, 48, 0
1, 108120, Note_on_c, 0, 65, 120
1, 108120, Note_on_c, 5, 58, 120
1, 108120, Note_on_c, 10, 53, 120
1, 108120, Note_on_c, 1, 53, 120
1, 108120, Note_on_c, 1, 58, 120
1, 108120, Note_on_c, 10, 58, 120
1, 108120, Note_on_c, 5, 53, 120
1, 108360, Note_off_c, 1, 53, 0
1, 108360, Note_off_c, 10, 53, 0
1, 108360, Note_off_c, 1, 58, 0
1, 108360, Note_off_c, 10, 58, 0
1, 108360, Note_off_c, 0, 65, 0
1, 108360, Note_off_c, 5, 53, 0
1, 108360, Note_off_c, 5, 58, 0
1, 108360, Note_on_c, 0, 65, 120
1, 108360, Note_on_c, 1, 48, 120
1, 108360, Note_on_c, 10, 48, 120
1, 108360, Note_on_c, 5, 48, 120
1, 108600, Note_off_c, 5, 48, 0
1, 108600, Note_off_c, 1, 48, 0
1, 108600, Note_off_c, 10, 48, 0
1, 108600, Note_on_c, 1, 48, 120
1, 108600, Note_on_c, 10, 48, 120
1, 108600, Note_on_c, 5, 48, 120
1, 108840, Note_off_c, 1, 48, 0
1, 108840, Note_off_c, 10, 48, 0
1, 108840, Note_off_c, 0, 65, 0
1, 108840, Note_off_c, 5, 48, 0
1, 108840, Note_on_c, 0, 62, 120
1, 108840, Note_on_c, 10, 58, 120
1, 108840, Note_on_c, 10, 53, 120
1, 108840, Note_on_c, 1, 53, 120
1, 108840, Note_on_c, 5, 58, 120
1, 108840, Note_on_c, 1, 58, 120
1, 108840, Note_on_c, 5, 53, 120
1, 109320, Note_off_c, 1, 53, 0
1, 109320, Note_off_c, 10, 53, 0
1, 109320, Note_off_c, 5, 58, 0
1, 109320, Note_off_c, 1, 58, 0
1, 109320, Note_off_c, 0, 62, 0
1, 109320, Note_off_c, 5, 53, 0
1, 109320, Note_off_c, 10, 58, 0
1, 109320, Note_on_c, 0, 65, 120
1, 109320, Note_on_c, 1, 58, 120
1, 109320, Note_on_c, 5, 53, 120
1, 109320, Note_on_c, 10, 53, 120
1, 109320, Note_on_c, 10, 58, 120
1, 109320, Note_on_c, 5, 58, 120
1, 109320, Note_on_c, 1, 53, 120
1, 109560, Note_off_c, 10, 53, 0
1, 109560, Note_off_c, 5, 53, 0
1, 109560, Note_off_c, 10, 58, 0
1, 109560, Note_off_c, 5, 58, 0
1, 109560, Note_off_c, 0, 65, 0
1, 109560, Note_off_c, 1, 53, 0
1, 109560, Note_off_c, 1, 58, 0
1, 109560, Note_on_c, 0, 64, 120
1, 109560, Note_on_c, 10, 60, 120
1, 109560, Note_on_c, 10, 57, 120
1, 109560, Note_on_c, 5, 60, 120
1, 109560, Note_on_c, 1, 50, 120
1, 109560, Note_on_c, 1, 57, 120
1, 109560, Note_on_c, 5, 57, 120
1, 109560, Note_on_c, 10, 50, 120
1, 109560, Note_on_c, 5, 50, 120
1, 109560, Note_on_c, 1, 60, 120
1, 110040, Note_off_c, 5, 60, 0
1, 110040, Note_off_c, 10, 57, 0
1, 110040, Note_off_c, 1, 57, 0
1, 110040, Note_off_c, 1, 50, 0
1, 110040, Note_off_c, 10, 50, 0
1, 110040, Note_off_c, 5, 57, 0
1, 110040, Note_off_c, 1, 60, 0
1, 110040, Note_off_c, 5, 50, 0
1, 110040, Note_off_c, 0, 64, 0
1, 110040, Note_off_c, 10, 60, 0
1, 110040, Note_on_c, 1, 57, 120
1, 110040, Note_on_c, 0, 65, 120
1, 110040, Note_on_c, 5, 57, 120
1, 110040, Note_on_c, 1, 60, 120
1, 110040, Note_on_c, 10, 60, 120
1, 110040, Note_on_c, 1, 50, 120
1, 110040, Note_on_c, 5, 50, 120
1, 110040, Note_on_c, 5, 60, 120
1, 110040, Note_on_c, 10, 50, 120
1, 110040, Note_on_c, 10, 57, 120
1, 110280, Note_off_c, 0, 65, 0
1, 110280, Note_on_c, 0, 64, 120
1, 110520, Note_off_c, 1, 57, 0
1, 110520, Note_off_c, 10, 50, 0
1, 110520, Note_off_c, 5, 57, 0
1, 110520, Note_off_c, 1, 60, 0
1, 110520, Note_off_c, 10, 57, 0
1, 110520, Note_off_c, 1, 50, 0
1, 110520, Note_off_c, 10, 60, 0
1, 110520, Note_off_c, 5, 60, 0
1, 110520, Note_off_c, 5, 50, 0
1, 110520, Note_on_c, 5, 50, 120
1, 110520, Note_on_c, 10, 50, 120
1, 110520, Note_on_c, 1, 50, 120
1, 110760, Note_off_c, 0, 64, 0
1, 110760, Note_off_c, 1, 50, 0
1, 110760, Note_off_c, 5, 50, 0
1, 110760, Note_off_c, 10, 50, 0
1, 110760, Note_on_c, 0, 62, 120
1, 110760, Note_on_c, 5, 60, 120
1, 110760, Note_on_c, 10, 60, 120
1, 110760, Note_on_c, 10, 57, 120
1, 110760, Note_on_c, 1, 57, 120
1, 110760, Note_on_c, 5, 57, 120
1, 110760, Note_on_c, 1, 60, 120
1, 111000, Note_off_c, 0, 62, 0
1, 111000, Note_on_c, 0, 62, 120
1, 111240, Note_off_c, 5, 57, 0
1, 111240, Note_off_c, 1, 60, 0
1, 111240, Note_off_c, 1, 57, 0
1, 111240, Note_off_c, 5, 60, 0
1, 111240, Note_off_c, 10, 60, 0
1, 111240, Note_off_c, 10, 57, 0
1, 111240, Note_on_c, 5, 60, 120
1, 111240, Note_on_c, 10, 57, 120
1, 111240, Note_on_c, 1, 57, 120
1, 111240, Note_on_c, 10, 50, 120
1, 111240, Note_on_c, 5, 50, 120
1, 111240, Note_on_c, 5, 57, 120
1, 111240, Note_on_c, 10, 60, 120
1, 111240, Note_on_c, 1, 50, 120
1, 111240, Note_on_c, 1, 60, 120
1, 111480, Note_off_c, 0, 62, 0
1, 111480, Note_off_c, 5, 50, 0
1, 111480, Note_off_c, 5, 57, 0
1, 111480, Note_off_c, 10, 60, 0
1, 111480, Note_off_c, 1, 50, 0
1, 111480, Note_off_c, 10, 57, 0
1, 111480, Note_off_c, 1, 57, 0
1, 111480, Note_off_c, 10, 50, 0
1, 111480, Note_off_c, 5, 60, 0
1, 111480, Note_off_c, 1, 60, 0
1, 111480, Note_on_c, 10, 43, 120
1, 111480, Note_on_c, 5, 43, 120
1, 111480, Note_on_c, 1, 43, 120
1, 111720, Note_on_c, 0, 57, 120
1, 111720, Note_on_c, 0, 59, 120
1, 111720, Note_on_c, 0, 67, 120
1, 111960, Note_off_c, 0, 57, 0
1, 111960, Note_off_c, 0, 59, 0
1, 111960, Note_off_c, 0, 67, 0
1, 112200, Note_on_c, 0, 59, 120
1, 112200, Note_on_c, 0, 65, 120
1, 112200, Note_on_c, 0, 57, 120
1, 112440, Note_off_c, 0, 65, 0
1, 112440, Note_off_c, 0, 59, 0
1, 112440, Note_off_c, 0, 57, 0
1, 112680, Note_on_c, 0, 57, 120
1, 112680, Note_on_c, 0, 59, 120
1, 112680, Note_on_c, 0, 64, 120
1, 112920, Note_off_c, 0, 57, 0
1, 112920, Note_off_c, 0, 59, 0
1, 112920, Note_off_c, 0, 64, 0
1, 113160, Note_on_c, 0, 64, 120
1, 113160, Note_on_c, 0, 57, 120
1, 113160, Note_on_c, 0, 59, 120
1, 113400, Note_off_c, 5, 43, 0
1, 113400, Note_off_c, 1, 43, 0
1, 113400, Note_off_c, 0, 57, 0
1, 113400, Note_off_c, 10, 43, 0
1, 113400, Note_off_c, 0, 64, 0
1, 113400, Note_off_c, 0, 59, 0
1, 113400, Note_on_c, 0, 76, 120
1, 113400, Note_on_c, 1, 50, 120
1, 113400, Note_on_c, 0, 69, 120
1, 113400, Note_on_c, 0, 72, 120
1, 113400, Note_on_c, 1, 60, 120
1, 113400, Note_on_c, 10, 60, 120
1, 113400, Note_on_c, 5, 50, 120
1, 113400, Note_on_c, 10, 50, 120
1, 113400, Note_on_c, 5, 60, 120
1, 113880, Note_off_c, 5, 50, 0
1, 113880, Note_off_c, 1, 60, 0
1, 113880, Note_off_c, 0, 76, 0
1, 113880, Note_off_c, 1, 50, 0
1, 113880, Note_off_c, 10, 60, 0
1, 113880, Note_off_c, 0, 69, 0
1, 113880, Note_off_c, 10, 50, 0
1, 113880, Note_off_c, 5, 60, 0
1, 113880, Note_off_c, 0, 72, 0
1, 113880, Note_on_c, 0, 76, 120
1, 113880, Note_on_c, 1, 50, 120
1, 113880, Note_on_c, 0, 69, 120
1, 113880, Note_on_c, 0, 72, 120
1, 113880, Note_on_c, 5, 60, 120
1, 113880, Note_on_c, 10, 60, 120
1, 113880, Note_on_c, 10, 50, 120
1, 113880, Note_on_c, 5, 50, 120
1, 113880, Note_on_c, 1, 60, 120
1, 114360, Note_off_c, 10, 50, 0
1, 114360, Note_off_c, 5, 60, 0
1, 114360, Note_off_c, 0, 76, 0
1, 114360, Note_off_c, 1, 50, 0
1, 114360, Note_off_c, 10, 60, 0
1, 114360, Note_off_c, 0, 69, 0
1, 114360, Note_off_c, 5, 50, 0
1, 114360, Note_off_c, 1, 60, 0
1, 114360, Note_off_c, 0, 72, 0
1, 114600, Note_on_c, 0, 76, 120
1, 114600, Note_on_c, 1, 50, 120
1, 114600, Note_on_c, 0, 69, 120
1, 114600, Note_on_c, 0, 72, 120
1, 114600, Note_on_c, 5, 60, 120
1, 114600, Note_on_c, 1, 60, 120
1, 114600, Note_on_c, 5, 50, 120
1, 114600, Note_on_c, 10, 50, 120
1, 114600, Note_on_c, 10, 60, 120
1, 114840, Note_off_c, 5, 50, 0
1, 114840, Note_off_c, 5, 60, 0
1, 114840, Note_off_c, 0, 76, 0
1, 114840, Note_off_c, 1, 50, 0
1, 114840, Note_off_c, 1, 60, 0
1, 114840, Note_off_c, 0, 69, 0
1, 114840, Note_off_c, 10, 50, 0
1, 114840, Note_off_c, 10, 60, 0
1, 114840, Note_off_c, 0, 72, 0
1, 115080, Note_on_c, 0, 76, 120
1, 115080, Note_on_c, 0, 69, 120
1, 115080, Note_on_c, 0, 72, 120
1, 115080, Note_on_c, 1, 60, 120
1, 115080, Note_on_c, 1, 50, 120
1, 115080, Note_on_c, 5, 50, 120
1, 115080, Note_on_c, 10, 60, 120
1, 115080, Note_on_c, 5, 60, 120
1, 115080, Note_on_c, 10, 50, 120
1, 115320, Note_off_c, 0, 76, 0
1, 115320, Note_off_c, 1, 60, 0
1, 115320, Note_off_c, 0, 72, 0
1, 115320, Note_off_c, 1, 50, 0
1, 115320, Note_off_c, 10, 60, 0
1, 115320, Note_off_c, 5, 60, 0
1, 115320, Note_off_c, 5, 50, 0
1, 115320, Note_off_c, 10, 50, 0
1, 115320, Note_off_c, 0, 69, 0
1, 115320, Note_on_c, 10, 43, 120
1, 115320, Note_on_c, 1, 43, 120
1, 115320, Note_on_c, 5, 43, 120
1, 115560, Note_on_c, 0, 71, 120
1, 115560, Note_on_c, 0, 79, 120
1, 115560, Note_on_c, 0, 69, 120
1, 115800, Note_off_c, 0, 79, 0
1, 115800, Note_off_c, 0, 71, 0
1, 115800, Note_off_c, 0, 69, 0
1, 116040, Note_on_c, 0, 69, 120
1, 116040, Note_on_c, 0, 71, 120
1, 116040, Note_on_c, 0, 77, 120
1, 116280, Note_off_c, 0, 69, 0
1, 116280, Note_off_c, 0, 71, 0
1, 116280, Note_off_c, 0, 77, 0
1, 116520, Note_on_c, 0, 71, 120
1, 116520, Note_on_c, 0, 76, 120
1, 116520, Note_on_c, 0, 69, 120
1, 116760, Note_off_c, 0, 76, 0
1, 116760, Note_off_c, 0, 71, 0
1, 116760, Note_off_c, 0, 69, 0
1, 117000, Note_on_c, 0, 76, 120
1, 117000, Note_on_c, 0, 69, 120
1, 117000, Note_on_c, 0, 71, 120
1, 117240, Note_off_c, 10, 43, 0
1, 117240, Note_off_c, 1, 43, 0
1, 117240, Note_off_c, 0, 69, 0
1, 117240, Note_off_c, 5, 43, 0
1, 117240, Note_off_c, 0, 76, 0
1, 117240, Note_off_c, 0, 71, 0
1, 117240, Note_on_c, 3, 69, 120
1, 117240, Note_on_c, 1, 60, 120
1, 117240, Note_on_c, 10, 60, 120
1, 117240, Note_on_c, 5, 60, 120
1, 117240, Note_on_c, 2, 69, 120
1, 117240, Note_on_c, 5, 53, 120
1, 117240, Note_on_c, 1, 53, 120
1, 117240, Note_on_c, 0, 69, 120
1, 117240, Note_on_c, 10, 53, 120
1, 117480, Note_off_c, 2, 69, 0
1, 117480, Note_off_c, 3, 69, 0
1, 117480, Note_off_c, 0, 69, 0
1, 117480, Note_on_c, 3, 70, 120
1, 117480, Note_on_c, 2, 70, 120
1, 117480, Note_on_c, 0, 70, 120
1, 117720, Note_off_c, 2, 70, 0
1, 117720, Note_off_c, 3, 70, 0
1, 117720, Note_off_c, 0, 70, 0
1, 117720, Note_on_c, 3, 72, 120
1, 117720, Note_on_c, 0, 72, 120
1, 117720, Note_on_c, 2, 72, 120
1, 117960, Note_off_c, 5, 60, 0
1, 117960, Note_off_c, 1, 53, 0
1, 117960, Note_off_c, 3, 72, 0
1, 117960, Note_off_c, 10, 60, 0
1, 117960, Note_off_c, 10, 53, 0
1, 117960, Note_off_c, 2, 72, 0
1, 117960, Note_off_c, 1, 60, 0
1, 117960, Note_off_c, 5, 53, 0
1, 117960, Note_off_c, 0, 72, 0
1, 117960, Note_on_c, 2, 76, 120
1, 117960, Note_on_c, 0, 76, 120
1, 117960, Note_on_c, 3, 76, 120
1, 117960, Note_on_c, 5, 62, 120
1, 117960, Note_on_c, 10, 58, 120
1, 117960, Note_on_c, 1, 58, 120
1, 117960, Note_on_c, 1, 62, 120
1, 117960, Note_on_c, 5, 58, 120
1, 117960, Note_on_c, 10, 62, 120
1, 118440, Note_off_c, 2, 76, 0
1, 118440, Note_off_c, 0, 76, 0
1, 118440, Note_off_c, 3, 76, 0
1, 118440, Note_on_c, 3, 74, 120
1, 118440, Note_on_c, 0, 74, 120
1, 118440, Note_on_c, 2, 74, 120
1, 118920, Note_off_c, 0, 74, 0
1, 118920, Note_off_c, 2, 74, 0
1, 118920, Note_off_c, 3, 74, 0
1, 118920, Note_on_c, 3, 70, 120
1, 118920, Note_on_c, 0, 70, 120
1, 118920, Note_on_c, 2, 70, 120
1, 119160, Note_off_c, 10, 62, 0
1, 119160, Note_off_c, 5, 58, 0
1, 119160, Note_off_c, 3, 70, 0
1, 119160, Note_off_c, 1, 62, 0
1, 119160, Note_off_c, 1, 58, 0
1, 119160, Note_off_c, 2, 70, 0
1, 119160, Note_off_c, 5, 62, 0
1, 119160, Note_off_c, 10, 58, 0
1, 119160, Note_off_c, 0, 70, 0
1, 119160, Note_on_c, 1, 62, 120
1, 119160, Note_on_c, 0, 74, 120
1, 119160, Note_on_c, 5, 58, 120
1, 119160, Note_on_c, 3, 74, 120
1, 119160, Note_on_c, 1, 58, 120
1, 119160, Note_on_c, 10, 62, 120
1, 119160, Note_on_c, 5, 62, 120
1, 119160, Note_on_c, 2, 74, 120
1, 119160, Note_on_c, 10, 58, 120
1, 119400, Note_off_c, 3, 74, 0
1, 119400, Note_off_c, 2, 74, 0
1, 119400, Note_off_c, 0, 74, 0
1, 119400, Note_on_c, 0, 72, 120
1, 119400, Note_on_c, 3, 72, 120
1, 119400, Note_on_c, 2, 72, 120
1, 119640, Note_off_c, 1, 62, 0
1, 119640, Note_off_c, 10, 58, 0
1, 119640, Note_off_c, 10, 62, 0
1, 119640, Note_off_c, 5, 62, 0
1, 119640, Note_off_c, 5, 58, 0
1, 119640, Note_off_c, 3, 72, 0
1, 119640, Note_off_c, 1, 58, 0
1, 119640, Note_off_c, 0, 72, 0
1, 119640, Note_off_c, 2, 72, 0
1, 119640, Note_on_c, 0, 72, 120
1, 119640, Note_on_c, 10, 53, 120
1, 119640, Note_on_c, 5, 60, 120
1, 119640, Note_on_c, 10, 60, 120
1, 119640, Note_on_c, 3, 72, 120
1, 119640, Note_on_c, 5, 53, 120
1, 119640, Note_on_c, 1, 53, 120
1, 119640, Note_on_c, 1, 60, 120
1, 119640, Note_on_c, 2, 72, 120
1, 120120, Note_off_c, 5, 53, 0
1, 120120, Note_off_c, 5, 60, 0
1, 120120, Note_off_c, 0, 72, 0
1, 120120, Note_off_c, 2, 72, 0
1, 120120, Note_off_c, 1, 60, 0
1, 120120, Note_off_c, 10, 60, 0
1, 120120, Note_off_c, 1, 53, 0
1, 120120, Note_off_c, 10, 53, 0
1, 120120, Note_off_c, 3, 72, 0
1, 120120, Note_on_c, 1, 53, 120
1, 120120, Note_on_c, 10, 53, 120
1, 120120, Note_on_c, 5, 53, 120
1, 120360, Note_on_c, 1, 57, 120
1, 120360, Note_on_c, 2, 53, 120
1, 120360, Note_on_c, 3, 53, 120
1, 120360, Note_on_c, 5, 57, 120
1, 120360, Note_on_c, 10, 57, 120
1, 120360, Note_on_c, 0, 53, 120
1, 120600, Note_off_c, 1, 53, 0
1, 120600, Note_off_c, 5, 53, 0
1, 120600, Note_off_c, 10, 57, 0
1, 120600, Note_off_c, 10, 53, 0
1, 120600, Note_off_c, 1, 57, 0
1, 120600, Note_off_c, 5, 57, 0
1, 120600, Note_on_c, 10, 52, 120
1, 120600, Note_on_c, 1, 52, 120
1, 120600, Note_on_c, 5, 52, 120
1, 120840, Note_off_c, 3, 53, 0
1, 120840, Note_off_c, 0, 53, 0
1, 120840, Note_off_c, 2, 53, 0
1, 120840, Note_on_c, 1, 55, 120
1, 120840, Note_on_c, 10, 55, 120
1, 120840, Note_on_c, 0, 52, 120
1, 120840, Note_on_c, 3, 52, 120
1, 120840, Note_on_c, 2, 52, 120
1, 120840, Note_on_c, 5, 55, 120
1, 121080, Note_off_c, 5, 52, 0
1, 121080, Note_off_c, 2, 52, 0
1, 121080, Note_off_c, 1, 55, 0
1, 121080, Note_off_c, 10, 52, 0
1, 121080, Note_off_c, 0, 52, 0
1, 121080, Note_off_c, 5, 55, 0
1, 121080, Note_off_c, 1, 52, 0
1, 121080, Note_off_c, 3, 52, 0
1, 121080, Note_off_c, 10, 55, 0
1, 121080, Note_on_c, 3, 65, 120
1, 121080, Note_on_c, 5, 50, 120
1, 121080, Note_on_c, 10, 50, 120
1, 121080, Note_on_c, 2, 65, 120
1, 121080, Note_on_c, 0, 65, 120
1, 121080, Note_on_c, 5, 57, 120
1, 121080, Note_on_c, 10, 57, 120
1, 121080, Note_on_c, 1, 57, 120
1, 121080, Note_on_c, 1, 50, 120
1, 121320, Note_off_c, 2, 65, 0
1, 121320, Note_off_c, 3, 65, 0
1, 121320, Note_off_c, 0, 65, 0
1, 121320, Note_on_c, 2, 67, 120
1, 121320, Note_on_c, 3, 67, 120
1, 121320, Note_on_c, 0, 67, 120
1, 121560, Note_off_c, 0, 67, 0
1, 121560, Note_off_c, 3, 67, 0
1, 121560, Note_off_c, 2, 67, 0
1, 121560, Note_on_c, 0, 69, 120
1, 121560, Note_on_c, 2, 69, 120
1, 121560, Note_on_c, 3, 69, 120
1, 121800, Note_off_c, 5, 57, 0
1, 121800, Note_off_c, 5, 50, 0
1, 121800, Note_off_c, 0, 69, 0
1, 121800, Note_off_c, 1, 57, 0
1, 121800, Note_off_c, 10, 50, 0
1, 121800, Note_off_c, 3, 69, 0
1, 121800, Note_off_c, 10, 57, 0
1, 121800, Note_off_c, 1, 50, 0
1, 121800, Note_off_c, 2, 69, 0
1, 121800, Note_on_c, 3, 72, 120
1, 121800, Note_on_c, 1, 58, 120
1, 121800, Note_on_c, 5, 58, 120
1, 121800, Note_on_c, 10, 58, 120
1, 121800, Note_on_c, 0, 72, 120
1, 121800, Note_on_c, 10, 55, 120
1, 121800, Note_on_c, 5, 55, 120
1, 121800, Note_on_c, 2, 72, 120
1, 121800, Note_on_c, 1, 55, 120
1, 122280, Note_off_c, 0, 72, 0
1, 122280, Note_off_c, 3, 72, 0
1, 122280, Note_off_c, 2, 72, 0
1, 122280, Note_on_c, 2, 70, 120
1, 122280, Note_on_c, 3, 70, 120
1, 122280, Note_on_c, 0, 70, 120
1, 122760, Note_off_c, 3, 70, 0
1, 122760, Note_off_c, 2, 70, 0
1, 122760, Note_off_c, 0, 70, 0
1, 122760, Note_on_c, 3, 67, 120
1, 122760, Note_on_c, 0, 67, 120
1, 122760, Note_on_c, 2, 67, 120
1, 123000, Note_off_c, 10, 58, 0
1, 123000, Note_off_c, 5, 55, 0
1, 123000, Note_off_c, 3, 67, 0
1, 123000, Note_off_c, 5, 58, 0
1, 123000, Note_off_c, 1, 55, 0
1, 123000, Note_off_c, 2, 67, 0
1, 123000, Note_off_c, 1, 58, 0
1, 123000, Note_off_c, 10, 55, 0
1, 123000, Note_off_c, 0, 67, 0
1, 123000, Note_on_c, 5, 58, 120
1, 123000, Note_on_c, 1, 58, 120
1, 123000, Note_on_c, 2, 70, 120
1, 123000, Note_on_c, 5, 55, 120
1, 123000, Note_on_c, 0, 70, 120
1, 123000, Note_on_c, 10, 55, 120
1, 123000, Note_on_c, 1, 55, 120
1, 123000, Note_on_c, 3, 70, 120
1, 123000, Note_on_c, 10, 58, 120
1, 123240, Note_off_c, 2, 70, 0
1, 123240, Note_off_c, 3, 70, 0
1, 123240, Note_off_c, 0, 70, 0
1, 123240, Note_on_c, 0, 69, 120
1, 123240, Note_on_c, 2, 69, 120
1, 123240, Note_on_c, 3, 69, 120
1, 123480, Note_off_c, 5, 58, 0
1, 123480, Note_off_c, 1, 55, 0
1, 123480, Note_off_c, 10, 58, 0
1, 123480, Note_off_c, 1, 58, 0
1, 123480, Note_off_c, 10, 55, 0
1, 123480, Note_off_c, 2, 69, 0
1, 123480, Note_off_c, 5, 55, 0
1, 123480, Note_off_c, 0, 69, 0
1, 123480, Note_off_c, 3, 69, 0
1, 123480, Note_on_c, 3, 69, 120
1, 123480, Note_on_c, 5, 50, 120
1, 123480, Note_on_c, 1, 50, 120
1, 123480, Note_on_c, 1, 57, 120
1, 123480, Note_on_c, 5, 57, 120
1, 123480, Note_on_c, 10, 50, 120
1, 123480, Note_on_c, 10, 57, 120
1, 123480, Note_on_c, 2, 69, 120
1, 123480, Note_on_c, 0, 69, 120
1, 123960, Note_off_c, 10, 50, 0
1, 123960, Note_off_c, 10, 57, 0
1, 123960, Note_off_c, 0, 69, 0
1, 123960, Note_off_c, 3, 69, 0
1, 123960, Note_off_c, 1, 57, 0
1, 123960, Note_off_c, 5, 57, 0
1, 123960, Note_off_c, 5, 50, 0
1, 123960, Note_off_c, 1, 50, 0
1, 123960, Note_off_c, 2, 69, 0
1, 123960, Note_on_c, 5, 50, 120
1, 123960, Note_on_c, 10, 50, 120
1, 123960, Note_on_c, 1, 50, 120
1, 124200, Note_on_c, 1, 57, 120
1, 124200, Note_on_c, 2, 53, 120
1, 124200, Note_on_c, 10, 57, 120
1, 124200, Note_on_c, 3, 53, 120
1, 124200, Note_on_c, 0, 53, 120
1, 124200, Note_on_c, 5, 57, 120
1, 124440, Note_off_c, 10, 50, 0
1, 124440, Note_off_c, 3, 53, 0
1, 124440, Note_off_c, 1, 57, 0
1, 124440, Note_off_c, 10, 57, 0
1, 124440, Note_off_c, 2, 53, 0
1, 124440, Note_off_c, 0, 53, 0
1, 124440, Note_off_c, 5, 50, 0
1, 124440, Note_off_c, 1, 50, 0
1, 124440, Note_off_c, 5, 57, 0
1, 124440, Note_on_c, 1, 48, 120
1, 124440, Note_on_c, 10, 48, 120
1, 124440, Note_on_c, 5, 48, 120
1, 124680, Note_on_c, 1, 55, 120
1, 124680, Note_on_c, 5, 55, 120
1, 124680, Note_on_c, 2, 52, 120
1, 124680, Note_on_c, 3, 52, 120
1, 124680, Note_on_c, 0, 52, 120
1, 124680, Note_on_c, 10, 55, 120
1, 124920, Note_off_c, 1, 48, 0
1, 124920, Note_off_c, 2, 52, 0
1, 124920, Note_off_c, 1, 55, 0
1, 124920, Note_off_c, 10, 55, 0
1, 124920, Note_off_c, 3, 52, 0
1, 124920, Note_off_c, 0, 52, 0
1, 124920, Note_off_c, 5, 48, 0
1, 124920, Note_off_c, 10, 48, 0
1, 124920, Note_off_c, 5, 55, 0
1, 124920, Note_on_c, 10, 46, 120
1, 124920, Note_on_c, 5, 46, 120
1, 124920, Note_on_c, 1, 46, 120
1, 125160, Note_on_c, 0, 62, 120
1, 125160, Note_on_c, 3, 62, 120
1, 125160, Note_on_c, 2, 62, 120
1, 125400, Note_off_c, 10, 46, 0
1, 125400, Note_off_c, 1, 46, 0
1, 125400, Note_off_c, 2, 62, 0
1, 125400, Note_off_c, 0, 62, 0
1, 125400, Note_off_c, 5, 46, 0
1, 125400, Note_off_c, 3, 62, 0
1, 125400, Note_on_c, 5, 58, 120
1, 125400, Note_on_c, 1, 58, 120
1, 125400, Note_on_c, 3, 64, 120
1, 125400, Note_on_c, 5, 53, 120
1, 125400, Note_on_c, 2, 64, 120
1, 125400, Note_on_c, 1, 53, 120
1, 125400, Note_on_c, 10, 53, 120
1, 125400, Note_on_c, 0, 64, 120
1, 125400, Note_on_c, 10, 58, 120
1, 125640, Note_off_c, 3, 64, 0
1, 125640, Note_off_c, 0, 64, 0
1, 125640, Note_off_c, 2, 64, 0
1, 125640, Note_on_c, 3, 65, 120
1, 125640, Note_on_c, 0, 65, 120
1, 125640, Note_on_c, 2, 65, 120
1, 125880, Note_off_c, 5, 58, 0
1, 125880, Note_off_c, 10, 53, 0
1, 125880, Note_off_c, 10, 58, 0
1, 125880, Note_off_c, 1, 58, 0
1, 125880, Note_off_c, 1, 53, 0
1, 125880, Note_off_c, 0, 65, 0
1, 125880, Note_off_c, 5, 53, 0
1, 125880, Note_off_c, 3, 65, 0
1, 125880, Note_off_c, 2, 65, 0
1, 125880, Note_on_c, 0, 67, 120
1, 125880, Note_on_c, 2, 67, 120
1, 125880, Note_on_c, 10, 48, 120
1, 125880, Note_on_c, 5, 48, 120
1, 125880, Note_on_c, 3, 67, 120
1, 125880, Note_on_c, 1, 48, 120
1, 126120, Note_off_c, 10, 48, 0
1, 126120, Note_off_c, 5, 48, 0
1, 126120, Note_off_c, 1, 48, 0
1, 126120, Note_on_c, 5, 58, 120
1, 126120, Note_on_c, 1, 60, 120
1, 126120, Note_on_c, 10, 60, 120
1, 126120, Note_on_c, 1, 58, 120
1, 126120, Note_on_c, 5, 60, 120
1, 126120, Note_on_c, 10, 58, 120
1, 126240, Note_off_c, 0, 67, 0
1, 126240, Note_off_c, 2, 67, 0
1, 126240, Note_off_c, 3, 67, 0
1, 126240, Note_on_c, 0, 69, 120
1, 126240, Note_on_c, 2, 69, 120
1, 126240, Note_on_c, 3, 69, 120
1, 126600, Note_off_c, 5, 58, 0
1, 126600, Note_off_c, 5, 60, 0
1, 126600, Note_off_c, 1, 58, 0
1, 126600, Note_off_c, 10, 58, 0
1, 126600, Note_off_c, 10, 60, 0
1, 126600, Note_off_c, 2, 69, 0
1, 126600, Note_off_c, 0, 69, 0
1, 126600, Note_off_c, 1, 60, 0
1, 126600, Note_off_c, 3, 69, 0
1, 126600, Note_on_c, 0, 67, 120
1, 126600, Note_on_c, 1, 58, 120
1, 126600, Note_on_c, 10, 60, 120
1, 126600, Note_on_c, 1, 60, 120
1, 126600, Note_on_c, 10, 58, 120
1, 126600, Note_on_c, 2, 67, 120
1, 126600, Note_on_c, 5, 60, 120
1, 126600, Note_on_c, 3, 67, 120
1, 126600, Note_on_c, 5, 58, 120
1, 126840, Note_off_c, 5, 60, 0
1, 126840, Note_off_c, 1, 58, 0
1, 126840, Note_off_c, 5, 58, 0
1, 126840, Note_off_c, 10, 60, 0
1, 126840, Note_off_c, 1, 60, 0
1, 126840, Note_off_c, 10, 58, 0
1, 126840, Note_on_c, 5, 45, 120
1, 126840, Note_on_c, 1, 45, 120
1, 126840, Note_on_c, 10, 45, 120
1, 127080, Note_off_c, 3, 67, 0
1, 127080, Note_off_c, 2, 67, 0
1, 127080, Note_off_c, 0, 67, 0
1, 127080, Note_on_c, 2, 69, 120
1, 127080, Note_on_c, 3, 69, 120
1, 127080, Note_on_c, 0, 69, 120
1, 127320, Note_off_c, 5, 45, 0
1, 127320, Note_off_c, 1, 45, 0
1, 127320, Note_off_c, 0, 69, 0
1, 127320, Note_off_c, 2, 69, 0
1, 127320, Note_off_c, 10, 45, 0
1, 127320, Note_off_c, 3, 69, 0
1, 127320, Note_on_c, 3, 69, 120
1, 127320, Note_on_c, 1, 60, 120
1, 127320, Note_on_c, 10, 60, 120
1, 127320, Note_on_c, 2, 69, 120
1, 127320, Note_on_c, 5, 60, 120
1, 127320, Note_on_c, 1, 55, 120
1, 127320, Note_on_c, 10, 55, 120
1, 127320, Note_on_c, 0, 69, 120
1, 127320, Note_on_c, 5, 55, 120
1, 127560, Note_off_c, 5, 55, 0
1, 127560, Note_off_c, 10, 55, 0
1, 127560, Note_off_c, 10, 60, 0
1, 127560, Note_off_c, 1, 60, 0
1, 127560, Note_off_c, 5, 60, 0
1, 127560, Note_off_c, 1, 55, 0
1, 127560, Note_on_c, 1, 45, 120
1, 127560, Note_on_c, 10, 45, 120
1, 127560, Note_on_c, 5, 45, 120
1, 127800, Note_off_c, 1, 45, 0
1, 127800, Note_off_c, 10, 45, 0
1, 127800, Note_off_c, 5, 45, 0
1, 127800, Note_on_c, 10, 50, 120
1, 127800, Note_on_c, 1, 50, 120
1, 127800, Note_on_c, 5, 50, 120
1, 128040, Note_off_c, 1, 50, 0
1, 128040, Note_off_c, 10, 50, 0
1, 128040, Note_off_c, 5, 50, 0
1, 128040, Note_on_c, 1, 57, 120
1, 128040, Note_on_c, 1, 53, 120
1, 128040, Note_on_c, 5, 57, 120
1, 128040, Note_on_c, 10, 53, 120
1, 128040, Note_on_c, 5, 53, 120
1, 128040, Note_on_c, 10, 57, 120
1, 128520, Note_off_c, 10, 53, 0
1, 128520, Note_off_c, 5, 53, 0
1, 128520, Note_off_c, 5, 57, 0
1, 128520, Note_off_c, 10, 57, 0
1, 128520, Note_off_c, 1, 57, 0
1, 128520, Note_off_c, 1, 53, 0
1, 128520, Note_on_c, 10, 57, 120
1, 128520, Note_on_c, 1, 53, 120
1, 128520, Note_on_c, 5, 57, 120
1, 128520, Note_on_c, 5, 53, 120
1, 128520, Note_on_c, 1, 57, 120
1, 128520, Note_on_c, 10, 53, 120
1, 128760, Note_off_c, 3, 69, 0
1, 128760, Note_off_c, 10, 53, 0
1, 128760, Note_off_c, 10, 57, 0
1, 128760, Note_off_c, 0, 69, 0
1, 128760, Note_off_c, 1, 53, 0
1, 128760, Note_off_c, 5, 53, 0
1, 128760, Note_off_c, 2, 69, 0
1, 128760, Note_off_c, 5, 57, 0
1, 128760, Note_off_c, 1, 57, 0
1, 128760, Note_on_c, 10, 43, 120
1, 128760, Note_on_c, 5, 43, 120
1, 128760, Note_on_c, 1, 43, 120
1, 129000, Note_on_c, 0, 65, 120
1, 129000, Note_on_c, 2, 65, 120
1, 129000, Note_on_c, 3, 65, 120
1, 129240, Note_off_c, 1, 43, 0
1, 129240, Note_off_c, 5, 43, 0
1, 129240, Note_off_c, 3, 65, 0
1, 129240, Note_off_c, 0, 65, 0
1, 129240, Note_off_c, 10, 43, 0
1, 129240, Note_off_c, 2, 65, 0
1, 129240, Note_on_c, 10, 61, 120
1, 129240, Note_on_c, 3, 67, 120
1, 129240, Note_on_c, 10, 58, 120
1, 129240, Note_on_c, 0, 67, 120
1, 129240, Note_on_c, 1, 58, 120
1, 129240, Note_on_c, 5, 61, 120
1, 129240, Note_on_c, 1, 61, 120
1, 129240, Note_on_c, 2, 67, 120
1, 129240, Note_on_c, 5, 58, 120
1, 129480, Note_off_c, 0, 67, 0
1, 129480, Note_off_c, 2, 67, 0
1, 129480, Note_off_c, 3, 67, 0
1, 129480, Note_on_c, 2, 69, 120
1, 129480, Note_on_c, 3, 69, 120
1, 129480, Note_on_c, 0, 69, 120
1, 129720, Note_off_c, 10, 61, 0
1, 129720, Note_off_c, 5, 58, 0
1, 129720, Note_off_c, 5, 61, 0
1, 129720, Note_off_c, 1, 61, 0
1, 129720, Note_off_c, 10, 58, 0
1, 129720, Note_off_c, 3, 69, 0
1, 129720, Note_off_c, 1, 58, 0
1, 129720, Note_off_c, 2, 69, 0
1, 129720, Note_off_c, 0, 69, 0
1, 129720, Note_on_c, 2, 70, 120
1, 129720, Note_on_c, 5, 48, 120
1, 129720, Note_on_c, 3, 70, 120
1, 129720, Note_on_c, 0, 70, 120
1, 129720, Note_on_c, 10, 48, 120
1, 129720, Note_on_c, 1, 48, 120
1, 129960, Note_off_c, 5, 48, 0
1, 129960, Note_off_c, 10, 48, 0
1, 129960, Note_off_c, 1, 48, 0
1, 129960, Note_on_c, 1, 58, 120
1, 129960, Note_on_c, 10, 58, 120
1, 129960, Note_on_c, 5, 61, 120
1, 129960, Note_on_c, 1, 61, 120
1, 129960, Note_on_c, 10, 61, 120
1, 129960, Note_on_c, 5, 58, 120
1, 130080, Note_off_c, 0, 70, 0
1, 130080, Note_off_c, 3, 70, 0
1, 130080, Note_off_c, 2, 70, 0
1, 130080, Note_on_c, 2, 69, 120
1, 130080, Note_on_c, 3, 69, 120
1, 130080, Note_on_c, 0, 69, 120
1, 130440, Note_off_c, 1, 58, 0
1, 130440, Note_off_c, 5, 61, 0
1, 130440, Note_off_c, 10, 58, 0
1, 130440, Note_off_c, 5, 58, 0
1, 130440, Note_off_c, 1, 61, 0
1, 130440, Note_off_c, 3, 69, 0
1, 130440, Note_off_c, 2, 69, 0
1, 130440, Note_off_c, 10, 61, 0
1, 130440, Note_off_c, 0, 69, 0
1, 130440, Note_on_c, 0, 70, 120
1, 130440, Note_on_c, 10, 58, 120
1, 130440, Note_on_c, 5, 58, 120
1, 130440, Note_on_c, 5, 61, 120
1, 130440, Note_on_c, 1, 58, 120
1, 130440, Note_on_c, 3, 70, 120
1, 130440, Note_on_c, 10, 61, 120
1, 130440, Note_on_c, 1, 61, 120
1, 130440, Note_on_c, 2, 70, 120
1, 130680, Note_off_c, 10, 58, 0
1, 130680, Note_off_c, 5, 58, 0
1, 130680, Note_off_c, 1, 61, 0
1, 130680, Note_off_c, 5, 61, 0
1, 130680, Note_off_c, 10, 61, 0
1, 130680, Note_off_c, 1, 58, 0
1, 130680, Note_on_c, 5, 45, 120
1, 130680, Note_on_c, 10, 45, 120
1, 130680, Note_on_c, 1, 45, 120
1, 130920, Note_off_c, 0, 70, 0
1, 130920, Note_off_c, 3, 70, 0
1, 130920, Note_off_c, 1, 45, 0
1, 130920, Note_off_c, 5, 45, 0
1, 130920, Note_off_c, 2, 70, 0
1, 130920, Note_off_c, 10, 45, 0
1, 130920, Note_on_c, 5, 60, 120
1, 130920, Note_on_c, 1, 60, 120
1, 130920, Note_on_c, 10, 60, 120
1, 130920, Note_on_c, 10, 55, 120
1, 130920, Note_on_c, 5, 55, 120
1, 130920, Note_on_c, 2, 72, 120
1, 130920, Note_on_c, 3, 72, 120
1, 130920, Note_on_c, 0, 72, 120
1, 130920, Note_on_c, 1, 55, 120
1, 131160, Note_off_c, 0, 72, 0
1, 131160, Note_off_c, 2, 72, 0
1, 131160, Note_off_c, 3, 72, 0
1, 131160, Note_on_c, 2, 72, 120
1, 131160, Note_on_c, 3, 72, 120
1, 131160, Note_on_c, 0, 72, 120
1, 131400, Note_off_c, 1, 60, 0
1, 131400, Note_off_c, 5, 60, 0
1, 131400, Note_off_c, 10, 55, 0
1, 131400, Note_off_c, 1, 55, 0
1, 131400, Note_off_c, 5, 55, 0
1, 131400, Note_off_c, 10, 60, 0
1, 131400, Note_on_c, 5, 60, 120
1, 131400, Note_on_c, 10, 55, 120
1, 131400, Note_on_c, 10, 60, 120
1, 131400, Note_on_c, 5, 55, 120
1, 131400, Note_on_c, 1, 60, 120
1, 131400, Note_on_c, 1, 55, 120
1, 131640, Note_off_c, 2, 72, 0
1, 131640, Note_off_c, 10, 55, 0
1, 131640, Note_off_c, 5, 60, 0
1, 131640, Note_off_c, 3, 72, 0
1, 131640, Note_off_c, 5, 55, 0
1, 131640, Note_off_c, 1, 60, 0
1, 131640, Note_off_c, 0, 72, 0
1, 131640, Note_off_c, 1, 55, 0
1, 131640, Note_off_c, 10, 60, 0
1, 131640, Note_on_c, 1, 50, 120
1, 131640, Note_on_c, 5, 50, 120
1, 131640, Note_on_c, 10, 50, 120
1, 131880, Note_off_c, 5, 50, 0
1, 131880, Note_off_c, 1, 50, 0
1, 131880, Note_off_c, 10, 50, 0
1, 131880, Note_on_c, 5, 57, 120
1, 131880, Note_on_c, 10, 66, 120
1, 131880, Note_on_c, 1, 66, 120
1, 131880, Note_on_c, 1, 57, 120
1, 131880, Note_on_c, 10, 57, 120
1, 131880, Note_on_c, 5, 66, 120
1, 132120, Note_on_c, 0, 70, 120
1, 132120, Note_on_c, 2, 70, 120
1, 132120, Note_on_c, 3, 70, 120
1, 132360, Note_off_c, 5, 57, 0
1, 132360, Note_off_c, 1, 66, 0
1, 132360, Note_off_c, 1, 57, 0
1, 132360, Note_off_c, 10, 57, 0
1, 132360, Note_off_c, 5, 66, 0
1, 132360, Note_off_c, 2, 70, 0
1, 132360, Note_off_c, 0, 70, 0
1, 132360, Note_off_c, 10, 66, 0
1, 132360, Note_off_c, 3, 70, 0
1, 132360, Note_on_c, 0, 69, 120
1, 132360, Note_on_c, 3, 69, 120
1, 132360, Note_on_c, 10, 66, 120
1, 132360, Note_on_c, 1, 66, 120
1, 132360, Note_on_c, 1, 57, 120
1, 132360, Note_on_c, 10, 57, 120
1, 132360, Note_on_c, 5, 66, 120
1, 132360, Note_on_c, 2, 69, 120
1, 132360, Note_on_c, 5, 57, 120
1, 132600, Note_off_c, 5, 57, 0
1, 132600, Note_off_c, 1, 66, 0
1, 132600, Note_off_c, 0, 69, 0
1, 132600, Note_off_c, 1, 57, 0
1, 132600, Note_off_c, 5, 66, 0
1, 132600, Note_off_c, 2, 69, 0
1, 132600, Note_off_c, 10, 57, 0
1, 132600, Note_off_c, 10, 66, 0
1, 132600, Note_off_c, 3, 69, 0
1, 132600, Note_on_c, 3, 65, 120
1, 132600, Note_on_c, 5, 43, 120
1, 132600, Note_on_c, 0, 65, 120
1, 132600, Note_on_c, 2, 65, 120
1, 132600, Note_on_c, 1, 43, 120
1, 132600, Note_on_c, 10, 43, 120
1, 133080, Note_off_c, 5, 43, 0
1, 133080, Note_off_c, 1, 43, 0
1, 133080, Note_off_c, 10, 43, 0
1, 133080, Note_on_c, 10, 58, 120
1, 133080, Note_on_c, 5, 53, 120
1, 133080, Note_on_c, 1, 58, 120
1, 133080, Note_on_c, 1, 53, 120
1, 133080, Note_on_c, 10, 53, 120
1, 133080, Note_on_c, 5, 58, 120
1, 133320, Note_off_c, 1, 53, 0
1, 133320, Note_off_c, 10, 53, 0
1, 133320, Note_off_c, 1, 58, 0
1, 133320, Note_off_c, 5, 58, 0
1, 133320, Note_off_c, 10, 58, 0
1, 133320, Note_off_c, 5, 53, 0
1, 133320, Note_on_c, 1, 43, 120
1, 133320, Note_on_c, 10, 43, 120
1, 133320, Note_on_c, 5, 43, 120
1, 133560, Note_off_c, 3, 65, 0
1, 133560, Note_off_c, 2, 65, 0
1, 133560, Note_off_c, 5, 43, 0
1, 133560, Note_off_c, 1, 43, 0
1, 133560, Note_off_c, 0, 65, 0
1, 133560, Note_off_c, 10, 43, 0
1, 133560, Note_on_c, 5, 43, 120
1, 133560, Note_on_c, 1, 43, 120
1, 133560, Note_on_c, 10, 43, 120
1, 133800, Note_off_c, 10, 43, 0
1, 133800, Note_off_c, 5, 43, 0
1, 133800, Note_off_c, 1, 43, 0
1, 133800, Note_on_c, 3, 62, 120
1, 133800, Note_on_c, 0, 62, 120
1, 133800, Note_on_c, 1, 58, 120
1, 133800, Note_on_c, 10, 58, 120
1, 133800, Note_on_c, 5, 53, 120
1, 133800, Note_on_c, 10, 53, 120
1, 133800, Note_on_c, 5, 58, 120
1, 133800, Note_on_c, 2, 62, 120
1, 133800, Note_on_c, 1, 53, 120
1, 134040, Note_off_c, 1, 53, 0
1, 134040, Note_off_c, 10, 58, 0
1, 134040, Note_off_c, 3, 62, 0
1, 134040, Note_off_c, 5, 53, 0
1, 134040, Note_off_c, 5, 58, 0
1, 134040, Note_off_c, 2, 62, 0
1, 134040, Note_off_c, 10, 53, 0
1, 134040, Note_off_c, 1, 58, 0
1, 134040, Note_off_c, 0, 62, 0
1, 134040, Note_on_c, 3, 65, 120
1, 134040, Note_on_c, 2, 65, 120
1, 134040, Note_on_c, 0, 65, 120
1, 134280, Note_off_c, 0, 65, 0
1, 134280, Note_off_c, 3, 65, 0
1, 134280, Note_off_c, 2, 65, 0
1, 134280, Note_on_c, 3, 67, 120
1, 134280, Note_on_c, 5, 53, 120
1, 134280, Note_on_c, 2, 67, 120
1, 134280, Note_on_c, 0, 67, 120
1, 134280, Note_on_c, 5, 58, 120
1, 134280, Note_on_c, 1, 58, 120
1, 134280, Note_on_c, 1, 53, 120
1, 134280, Note_on_c, 10, 53, 120
1, 134280, Note_on_c, 10, 58, 120
1, 134520, Note_off_c, 1, 53, 0
1, 134520, Note_off_c, 5, 58, 0
1, 134520, Note_off_c, 3, 67, 0
1, 134520, Note_off_c, 5, 53, 0
1, 134520, Note_off_c, 1, 58, 0
1, 134520, Note_off_c, 2, 67, 0
1, 134520, Note_off_c, 10, 53, 0
1, 134520, Note_off_c, 10, 58, 0
1, 134520, Note_off_c, 0, 67, 0
1, 134520, Note_on_c, 0, 69, 120
1, 134520, Note_on_c, 10, 48, 120
1, 134520, Note_on_c, 1, 48, 120
1, 134520, Note_on_c, 5, 48, 120
1, 134520, Note_on_c, 2, 69, 120
1, 134520, Note_on_c, 3, 69, 120
1, 135000, Note_off_c, 5, 48, 0
1, 135000, Note_off_c, 1, 48, 0
1, 135000, Note_off_c, 3, 69, 0
1, 135000, Note_off_c, 10, 48, 0
1, 135000, Note_off_c, 0, 69, 0
1, 135000, Note_off_c, 2, 69, 0
1, 135000, Note_on_c, 0, 65, 120
1, 135000, Note_on_c, 2, 65, 120
1, 135000, Note_on_c, 5, 58, 120
1, 135000, Note_on_c, 10, 58, 120
1, 135000, Note_on_c, 10, 53, 120
1, 135000, Note_on_c, 1, 53, 120
1, 135000, Note_on_c, 1, 58, 120
1, 135000, Note_on_c, 3, 65, 120
1, 135000, Note_on_c, 5, 53, 120
1, 135240, Note_off_c, 5, 53, 0
1, 135240, Note_off_c, 10, 58, 0
1, 135240, Note_off_c, 0, 65, 0
1, 135240, Note_off_c, 10, 53, 0
1, 135240, Note_off_c, 1, 58, 0
1, 135240, Note_off_c, 3, 65, 0
1, 135240, Note_off_c, 1, 53, 0
1, 135240, Note_off_c, 5, 58, 0
1, 135240, Note_off_c, 2, 65, 0
1, 135240, Note_on_c, 3, 65, 120
1, 135240, Note_on_c, 1, 48, 120
1, 135240, Note_on_c, 2, 65, 120
1, 135240, Note_on_c, 0, 65, 120
1, 135240, Note_on_c, 10, 48, 120
1, 135240, Note_on_c, 5, 48, 120
1, 135480, Note_off_c, 1, 48, 0
1, 135480, Note_off_c, 10, 48, 0
1, 135480, Note_off_c, 5, 48, 0
1, 135480, Note_on_c, 10, 48, 120
1, 135480, Note_on_c, 5, 48, 120
1, 135480, Note_on_c, 1, 48, 120
1, 135720, Note_off_c, 3, 65, 0
1, 135720, Note_off_c, 0, 65, 0
1, 135720, Note_off_c, 1, 48, 0
1, 135720, Note_off_c, 10, 48, 0
1, 135720, Note_off_c, 2, 65, 0
1, 135720, Note_off_c, 5, 48, 0
1, 135720, Note_on_c, 3, 62, 120
1, 135720, Note_on_c, 0, 62, 120
1, 135720, Note_on_c, 10, 58, 120
1, 135720, Note_on_c, 1, 58, 120
1, 135720, Note_on_c, 5, 53, 120
1, 135720, Note_on_c, 10, 53, 120
1, 135720, Note_on_c, 5, 58, 120
1, 135720, Note_on_c, 2, 62, 120
1, 135720, Note_on_c, 1, 53, 120
1, 135960, Note_off_c, 1, 53, 0
1, 135960, Note_off_c, 1, 58, 0
1, 135960, Note_off_c, 10, 53, 0
1, 135960, Note_off_c, 10, 58, 0
1, 135960, Note_off_c, 5, 53, 0
1, 135960, Note_off_c, 5, 58, 0
1, 136200, Note_off_c, 3, 62, 0
1, 136200, Note_off_c, 2, 62, 0
1, 136200, Note_off_c, 0, 62, 0
1, 136200, Note_on_c, 2, 65, 120
1, 136200, Note_on_c, 0, 65, 120
1, 136200, Note_on_c, 1, 58, 120
1, 136200, Note_on_c, 5, 58, 120
1, 136200, Note_on_c, 5, 53, 120
1, 136200, Note_on_c, 10, 53, 120
1, 136200, Note_on_c, 10, 58, 120
1, 136200, Note_on_c, 3, 65, 120
1, 136200, Note_on_c, 1, 53, 120
1, 136440, Note_off_c, 1, 53, 0
1, 136440, Note_off_c, 5, 58, 0
1, 136440, Note_off_c, 2, 65, 0
1, 136440, Note_off_c, 5, 53, 0
1, 136440, Note_off_c, 10, 58, 0
1, 136440, Note_off_c, 3, 65, 0
1, 136440, Note_off_c, 10, 53, 0
1, 136440, Note_off_c, 1, 58, 0
1, 136440, Note_off_c, 0, 65, 0
1, 136440, Note_on_c, 0, 64, 120
1, 136440, Note_on_c, 1, 50, 120
1, 136440, Note_on_c, 5, 50, 120
1, 136440, Note_on_c, 5, 60, 120
1, 136440, Note_on_c, 3, 64, 120
1, 136440, Note_on_c, 1, 57, 120
1, 136440, Note_on_c, 10, 60, 120
1, 136440, Note_on_c, 2, 64, 120
1, 136440, Note_on_c, 10, 50, 120
1, 136440, Note_on_c, 1, 60, 120
1, 136440, Note_on_c, 5, 57, 120
1, 136440, Note_on_c, 10, 57, 120
1, 136920, Note_off_c, 10, 50, 0
1, 136920, Note_off_c, 1, 57, 0
1, 136920, Note_off_c, 0, 64, 0
1, 136920, Note_off_c, 10, 60, 0
1, 136920, Note_off_c, 1, 60, 0
1, 136920, Note_off_c, 10, 57, 0
1, 136920, Note_off_c, 5, 57, 0
1, 136920, Note_off_c, 5, 60, 0
1, 136920, Note_off_c, 3, 64, 0
1, 136920, Note_off_c, 1, 50, 0
1, 136920, Note_off_c, 5, 50, 0
1, 136920, Note_off_c, 2, 64, 0
1, 136920, Note_on_c, 1, 60, 120
1, 136920, Note_on_c, 3, 65, 120
1, 136920, Note_on_c, 5, 57, 120
1, 136920, Note_on_c, 1, 57, 120
1, 136920, Note_on_c, 10, 50, 120
1, 136920, Note_on_c, 2, 65, 120
1, 136920, Note_on_c, 0, 65, 120
1, 136920, Note_on_c, 5, 50, 120
1, 136920, Note_on_c, 1, 50, 120
1, 136920, Note_on_c, 10, 60, 120
1, 136920, Note_on_c, 5, 60, 120
1, 136920, Note_on_c, 10, 57, 120
1, 137160, Note_off_c, 3, 65, 0
1, 137160, Note_off_c, 2, 65, 0
1, 137160, Note_off_c, 0, 65, 0
1, 137160, Note_on_c, 0, 64, 120
1, 137160, Note_on_c, 3, 64, 120
1, 137160, Note_on_c, 2, 64, 120
1, 137400, Note_off_c, 1, 57, 0
1, 137400, Note_off_c, 10, 60, 0
1, 137400, Note_off_c, 1, 60, 0
1, 137400, Note_off_c, 5, 60, 0
1, 137400, Note_off_c, 10, 50, 0
1, 137400, Note_off_c, 10, 57, 0
1, 137400, Note_off_c, 5, 50, 0
1, 137400, Note_off_c, 1, 50, 0
1, 137400, Note_off_c, 5, 57, 0
1, 137400, Note_on_c, 10, 60, 120
1, 137400, Note_on_c, 5, 50, 120
1, 137400, Note_on_c, 5, 57, 120
1, 137400, Note_on_c, 1, 60, 120
1, 137400, Note_on_c, 10, 50, 120
1, 137400, Note_on_c, 1, 57, 120
1, 137400, Note_on_c, 5, 60, 120
1, 137400, Note_on_c, 1, 50, 120
1, 137400, Note_on_c, 10, 57, 120
1, 137640, Note_off_c, 0, 64, 0
1, 137640, Note_off_c, 10, 50, 0
1, 137640, Note_off_c, 2, 64, 0
1, 137640, Note_off_c, 1, 57, 0
1, 137640, Note_off_c, 10, 57, 0
1, 137640, Note_off_c, 1, 50, 0
1, 137640, Note_off_c, 5, 50, 0
1, 137640, Note_off_c, 5, 57, 0
1, 137640, Note_off_c, 1, 60, 0
1, 137640, Note_off_c, 10, 60, 0
1, 137640, Note_off_c, 3, 64, 0
1, 137640, Note_off_c, 5, 60, 0
1, 137640, Note_on_c, 2, 62, 120
1, 137640, Note_on_c, 10, 45, 120
1, 137640, Note_on_c, 1, 45, 120
1, 137640, Note_on_c, 5, 45, 120
1, 137640, Note_on_c, 0, 62, 120
1, 137640, Note_on_c, 3, 62, 120
1, 137880, Note_off_c, 5, 45, 0
1, 137880, Note_off_c, 1, 45, 0
1, 137880, Note_off_c, 3, 62, 0
1, 137880, Note_off_c, 10, 45, 0
1, 137880, Note_off_c, 2, 62, 0
1, 137880, Note_off_c, 0, 62, 0
1, 137880, Note_on_c, 0, 62, 120
1, 137880, Note_on_c, 3, 62, 120
1, 137880, Note_on_c, 5, 46, 120
1, 137880, Note_on_c, 10, 46, 120
1, 137880, Note_on_c, 2, 62, 120
1, 137880, Note_on_c, 1, 46, 120
1, 138120, Note_off_c, 5, 46, 0
1, 138120, Note_off_c, 10, 46, 0
1, 138120, Note_off_c, 1, 46, 0
1, 138120, Note_on_c, 1, 47, 120
1, 138120, Note_on_c, 10, 47, 120
1, 138120, Note_on_c, 5, 47, 120
1, 138360, Note_off_c, 3, 62, 0
1, 138360, Note_off_c, 2, 62, 0
1, 138360, Note_off_c, 0, 62, 0
1, 138600, Note_on_c, 0, 67, 120
1, 138600, Note_on_c, 0, 59, 120
1, 138600, Note_on_c, 0, 57, 120
1, 138840, Note_off_c, 1, 47, 0
1, 138840, Note_off_c, 10, 47, 0
1, 138840, Note_off_c, 0, 57, 0
1, 138840, Note_off_c, 0, 67, 0
1, 138840, Note_off_c, 5, 47, 0
1, 138840, Note_off_c, 0, 59, 0
1, 139080, Note_on_c, 0, 65, 120
1, 139080, Note_on_c, 1, 43, 120
1, 139080, Note_on_c, 5, 43, 120
1, 139080, Note_on_c, 0, 57, 120
1, 139080, Note_on_c, 0, 59, 120
1, 139080, Note_on_c, 10, 43, 120
1, 139320, Note_off_c, 0, 59, 0
1, 139320, Note_off_c, 0, 57, 0
1, 139320, Note_off_c, 0, 65, 0
1, 139560, Note_off_c, 10, 43, 0
1, 139560, Note_off_c, 1, 43, 0
1, 139560, Note_off_c, 5, 43, 0
1, 139560, Note_on_c, 0, 64, 120
1, 139560, Note_on_c, 1, 45, 120
1, 139560, Note_on_c, 5, 45, 120
1, 139560, Note_on_c, 10, 45, 120
1, 139560, Note_on_c, 0, 59, 120
1, 139560, Note_on_c, 0, 57, 120
1, 139800, Note_off_c, 10, 45, 0
1, 139800, Note_off_c, 5, 45, 0
1, 139800, Note_off_c, 0, 57, 0
1, 139800, Note_off_c, 1, 45, 0
1, 139800, Note_off_c, 0, 64, 0
1, 139800, Note_off_c, 0, 59, 0
1, 139800, Note_on_c, 5, 47, 120
1, 139800, Note_on_c, 10, 47, 120
1, 139800, Note_on_c, 1, 47, 120
1, 140040, Note_off_c, 1, 47, 0
1, 140040, Note_off_c, 5, 47, 0
1, 140040, Note_off_c, 10, 47, 0
1, 140040, Note_on_c, 0, 64, 120
1, 140040, Note_on_c, 0, 59, 120
1, 140040, Note_on_c, 1, 45, 120
1, 140040, Note_on_c, 10, 45, 120
1, 140040, Note_on_c, 5, 45, 120
1, 140040, Note_on_c, 0, 57, 120
1, 140280, Note_off_c, 0, 64, 0
1, 140280, Note_off_c, 1, 45, 0
1, 140280, Note_off_c, 0, 57, 0
1, 140280, Note_off_c, 5, 45, 0
1, 140280, Note_off_c, 10, 45, 0
1, 140280, Note_off_c, 0, 59, 0
1, 140280, Note_on_c, 0, 57, 120
1, 140280, Note_on_c, 10, 46, 120
1, 140280, Note_on_c, 0, 53, 120
1, 140280, Note_on_c, 0, 62, 120
1, 140280, Note_on_c, 5, 46, 120
1, 140280, Note_on_c, 1, 46, 120
1, 140760, Note_off_c, 0, 62, 0
1, 140760, Note_off_c, 0, 57, 0
1, 140760, Note_off_c, 0, 53, 0
1, 140760, Note_on_c, 0, 62, 120
1, 140760, Note_on_c, 0, 53, 120
1, 140760, Note_on_c, 0, 57, 120
1, 141240, Note_off_c, 1, 46, 0
1, 141240, Note_off_c, 10, 46, 0
1, 141240, Note_off_c, 0, 53, 0
1, 141240, Note_off_c, 5, 46, 0
1, 141240, Note_off_c, 0, 62, 0
1, 141240, Note_off_c, 0, 57, 0
1, 141480, Note_on_c, 0, 62, 120
1, 141480, Note_on_c, 5, 46, 120
1, 141480, Note_on_c, 1, 46, 120
1, 141480, Note_on_c, 10, 46, 120
1, 141480, Note_on_c, 0, 57, 120
1, 141480, Note_on_c, 0, 53, 120
1, 141720, Note_off_c, 10, 46, 0
1, 141720, Note_off_c, 1, 46, 0
1, 141720, Note_off_c, 0, 53, 0
1, 141720, Note_off_c, 5, 46, 0
1, 141720, Note_off_c, 0, 62, 0
1, 141720, Note_off_c, 0, 57, 0
1, 141720, Note_on_c, 1, 50, 120
1, 141720, Note_on_c, 10, 50, 120
1, 141720, Note_on_c, 5, 50, 120
1, 141960, Note_off_c, 5, 50, 0
1, 141960, Note_off_c, 1, 50, 0
1, 141960, Note_off_c, 10, 50, 0
1, 141960, Note_on_c, 0, 62, 120
1, 141960, Note_on_c, 0, 57, 120
1, 141960, Note_on_c, 10, 41, 120
1, 141960, Note_on_c, 5, 41, 120
1, 141960, Note_on_c, 1, 41, 120
1, 141960, Note_on_c, 0, 53, 120
1, 142200, Note_off_c, 0, 62, 0
1, 142200, Note_off_c, 10, 41, 0
1, 142200, Note_off_c, 0, 53, 0
1, 142200, Note_off_c, 1, 41, 0
1, 142200, Note_off_c, 5, 41, 0
1, 142200, Note_off_c, 0, 57, 0
1, 142200, Note_on_c, 5, 43, 120
1, 142200, Note_on_c, 10, 43, 120
1, 142200, Note_on_c, 1, 43, 120
1, 142440, Note_off_c, 1, 43, 0
1, 142440, Note_off_c, 5, 43, 0
1, 142440, Note_off_c, 10, 43, 0
1, 142440, Note_on_c, 0, 65, 120
1, 142440, Note_on_c, 1, 47, 120
1, 142440, Note_on_c, 10, 47, 120
1, 142440, Note_on_c, 0, 55, 120
1, 142440, Note_on_c, 0, 62, 120
1, 142440, Note_on_c, 5, 47, 120
1, 142680, Note_off_c, 0, 62, 0
1, 142680, Note_off_c, 0, 55, 0
1, 142680, Note_off_c, 0, 65, 0
1, 142920, Note_off_c, 5, 47, 0
1, 142920, Note_off_c, 1, 47, 0
1, 142920, Note_off_c, 10, 47, 0
1, 142920, Note_on_c, 0, 65, 120
1, 142920, Note_on_c, 5, 50, 120
1, 142920, Note_on_c, 1, 50, 120
1, 142920, Note_on_c, 10, 50, 120
1, 142920, Note_on_c, 0, 62, 120
1, 142920, Note_on_c, 0, 55, 120
1, 143160, Note_off_c, 10, 50, 0
1, 143160, Note_off_c, 1, 50, 0
1, 143160, Note_off_c, 0, 55, 0
1, 143160, Note_off_c, 5, 50, 0
1, 143160, Note_off_c, 0, 65, 0
1, 143160, Note_off_c, 0, 62, 0
1, 143160, Note_on_c, 1, 48, 120
1, 143160, Note_on_c, 5, 48, 120
1, 143160, Note_on_c, 10, 48, 120
1, 143400, Note_off_c, 10, 48, 0
1, 143400, Note_off_c, 1, 48, 0
1, 143400, Note_off_c, 5, 48, 0
1, 143400, Note_on_c, 0, 59, 120
1, 143400, Note_on_c, 5, 40, 120
1, 143400, Note_on_c, 0, 55, 120
1, 143400, Note_on_c, 0, 64, 120
1, 143400, Note_on_c, 1, 40, 120
1, 143400, Note_on_c, 10, 40, 120
1, 143640, Note_off_c, 0, 64, 0
1, 143640, Note_off_c, 0, 59, 0
1, 143640, Note_off_c, 0, 55, 0
1, 143880, Note_on_c, 0, 64, 120
1, 143880, Note_on_c, 0, 55, 120
1, 143880, Note_on_c, 0, 59, 120
1, 144120, Note_off_c, 10, 40, 0
1, 144120, Note_off_c, 5, 40, 0
1, 144120, Note_off_c, 0, 55, 0
1, 144120, Note_off_c, 1, 40, 0
1, 144120, Note_off_c, 0, 64, 0
1, 144120, Note_off_c, 0, 59, 0
1, 144120, Note_on_c, 1, 60, 120
1, 144120, Note_on_c, 0, 81, 120
1, 144120, Note_on_c, 4, 81, 120
1, 144120, Note_on_c, 10, 57, 120
1, 144120, Note_on_c, 1, 53, 120
1, 144120, Note_on_c, 1, 57, 120
1, 144120, Note_on_c, 5, 60, 120
1, 144120, Note_on_c, 10, 60, 120
1, 144120, Note_on_c, 5, 57, 120
1, 144120, Note_on_c, 5, 53, 120
1, 144120, Note_on_c, 10, 53, 120
1, 144360, Note_off_c, 4, 81, 0
1, 144360, Note_off_c, 0, 81, 0
1, 144360, Note_on_c, 4, 79, 120
1, 144360, Note_on_c, 0, 79, 120
1, 144600, Note_off_c, 4, 79, 0
1, 144600, Note_off_c, 0, 79, 0
1, 144600, Note_on_c, 4, 81, 120
1, 144600, Note_on_c, 0, 81, 120
1, 144840, Note_off_c, 10, 60, 0
1, 144840, Note_off_c, 1, 53, 0
1, 144840, Note_off_c, 10, 57, 0
1, 144840, Note_off_c, 4, 81, 0
1, 144840, Note_off_c, 5, 60, 0
1, 144840, Note_off_c, 1, 60, 0
1, 144840, Note_off_c, 5, 53, 0
1, 144840, Note_off_c, 10, 53, 0
1, 144840, Note_off_c, 5, 57, 0
1, 144840, Note_off_c, 1, 57, 0
1, 144840, Note_off_c, 0, 81, 0
1, 144840, Note_on_c, 4, 77, 120
1, 144840, Note_on_c, 1, 62, 120
1, 144840, Note_on_c, 10, 58, 120
1, 144840, Note_on_c, 0, 77, 120
1, 144840, Note_on_c, 5, 58, 120
1, 144840, Note_on_c, 1, 58, 120
1, 144840, Note_on_c, 10, 53, 120
1, 144840, Note_on_c, 5, 53, 120
1, 144840, Note_on_c, 10, 62, 120
1, 144840, Note_on_c, 5, 62, 120
1, 144840, Note_on_c, 1, 53, 120
1, 145320, Note_off_c, 5, 53, 0
1, 145320, Note_off_c, 5, 58, 0
1, 145320, Note_off_c, 1, 58, 0
1, 145320, Note_off_c, 10, 62, 0
1, 145320, Note_off_c, 10, 53, 0
1, 145320, Note_off_c, 10, 58, 0
1, 145320, Note_off_c, 1, 62, 0
1, 145320, Note_off_c, 5, 62, 0
1, 145320, Note_off_c, 4, 77, 0
1, 145320, Note_off_c, 1, 53, 0
1, 145320, Note_off_c, 0, 77, 0
1, 145320, Note_on_c, 0, 82, 120
1, 145320, Note_on_c, 1, 53, 120
1, 145320, Note_on_c, 10, 53, 120
1, 145320, Note_on_c, 5, 53, 120
1, 145320, Note_on_c, 4, 82, 120
1, 145560, Note_off_c, 1, 53, 0
1, 145560, Note_off_c, 10, 53, 0
1, 145560, Note_off_c, 5, 53, 0
1, 145560, Note_on_c, 10, 58, 120
1, 145560, Note_on_c, 5, 58, 120
1, 145560, Note_on_c, 1, 58, 120
1, 145800, Note_off_c, 0, 82, 0
1, 145800, Note_off_c, 5, 58, 0
1, 145800, Note_off_c, 10, 58, 0
1, 145800, Note_off_c, 4, 82, 0
1, 145800, Note_off_c, 1, 58, 0
1, 145800, Note_on_c, 0, 81, 120
1, 145800, Note_on_c, 1, 62, 120
1, 145800, Note_on_c, 10, 62, 120
1, 145800, Note_on_c, 4, 81, 120
1, 145800, Note_on_c, 5, 62, 120
1, 146040, Note_off_c, 0, 81, 0
1, 146040, Note_off_c, 10, 62, 0
1, 146040, Note_off_c, 5, 62, 0
1, 146040, Note_off_c, 1, 62, 0
1, 146040, Note_off_c, 4, 81, 0
1, 146040, Note_on_c, 5, 60, 120
1, 146040, Note_on_c, 0, 79, 120
1, 146040, Note_on_c, 4, 79, 120
1, 146040, Note_on_c, 1, 55, 120
1, 146040, Note_on_c, 10, 52, 120
1, 146040, Note_on_c, 10, 55, 120
1, 146040, Note_on_c, 1, 60, 120
1, 146040, Note_on_c, 10, 60, 120
1, 146040, Note_on_c, 5, 55, 120
1, 146040, Note_on_c, 1, 52, 120
1, 146040, Note_on_c, 5, 52, 120
1, 146280, Note_off_c, 4, 79, 0
1, 146280, Note_off_c, 0, 79, 0
1, 146280, Note_on_c, 0, 77, 120
1, 146280, Note_on_c, 4, 77, 120
1, 146520, Note_off_c, 0, 77, 0
1, 146520, Note_off_c, 4, 77, 0
1, 146520, Note_on_c, 4, 79, 120
1, 146520, Note_on_c, 0, 79, 120
1, 146760, Note_off_c, 5, 60, 0
1, 146760, Note_off_c, 10, 52, 0
1, 146760, Note_off_c, 4, 79, 0
1, 146760, Note_off_c, 1, 55, 0
1, 146760, Note_off_c, 1, 60, 0
1, 146760, Note_off_c, 10, 60, 0
1, 146760, Note_off_c, 1, 52, 0
1, 146760, Note_off_c, 5, 52, 0
1, 146760, Note_off_c, 5, 55, 0
1, 146760, Note_off_c, 10, 55, 0
1, 146760, Note_off_c, 0, 79, 0
1, 146760, Note_on_c, 0, 81, 120
1, 146760, Note_on_c, 10, 53, 120
1, 146760, Note_on_c, 5, 57, 120
1, 146760, Note_on_c, 5, 53, 120
1, 146760, Note_on_c, 4, 81, 120
1, 146760, Note_on_c, 1, 53, 120
1, 146760, Note_on_c, 5, 60, 120
1, 146760, Note_on_c, 1, 60, 120
1, 146760, Note_on_c, 1, 57, 120
1, 146760, Note_on_c, 10, 57, 120
1, 146760, Note_on_c, 10, 60, 120
1, 147240, Note_off_c, 1, 53, 0
1, 147240, Note_off_c, 1, 57, 0
1, 147240, Note_off_c, 1, 60, 0
1, 147240, Note_off_c, 10, 53, 0
1, 147240, Note_off_c, 10, 57, 0
1, 147240, Note_off_c, 10, 60, 0
1, 147240, Note_off_c, 5, 53, 0
1, 147240, Note_off_c, 5, 57, 0
1, 147240, Note_off_c, 5, 60, 0
1, 147240, Note_on_c, 5, 60, 120
1, 147240, Note_on_c, 10, 57, 120
1, 147240, Note_on_c, 5, 57, 120
1, 147240, Note_on_c, 1, 57, 120
1, 147240, Note_on_c, 1, 60, 120
1, 147240, Note_on_c, 10, 60, 120
1, 147480, Note_off_c, 1, 60, 0
1, 147480, Note_off_c, 5, 57, 0
1, 147480, Note_off_c, 10, 60, 0
1, 147480, Note_off_c, 10, 57, 0
1, 147480, Note_off_c, 1, 57, 0
1, 147480, Note_off_c, 5, 60, 0
1, 147480, Note_on_c, 5, 60, 120
1, 147480, Note_on_c, 1, 57, 120
1, 147480, Note_on_c, 10, 57, 120
1, 147480, Note_on_c, 5, 57, 120
1, 147480, Note_on_c, 10, 60, 120
1, 147480, Note_on_c, 1, 60, 120
1, 147720, Note_off_c, 10, 60, 0
1, 147720, Note_off_c, 10, 57, 0
1, 147720, Note_off_c, 1, 60, 0
1, 147720, Note_off_c, 1, 57, 0
1, 147720, Note_off_c, 5, 57, 0
1, 147720, Note_off_c, 5, 60, 0
1, 147720, Note_on_c, 5, 55, 120
1, 147720, Note_on_c, 10, 55, 120
1, 147720, Note_on_c, 1, 55, 120
1, 147960, Note_off_c, 5, 55, 0
1, 147960, Note_off_c, 1, 55, 0
1, 147960, Note_off_c, 0, 81, 0
1, 147960, Note_off_c, 4, 81, 0
1, 147960, Note_off_c, 10, 55, 0
1, 147960, Note_on_c, 4, 81, 120
1, 147960, Note_on_c, 1, 53, 120
1, 147960, Note_on_c, 0, 81, 120
1, 147960, Note_on_c, 5, 53, 120
1, 147960, Note_on_c, 10, 53, 120
1, 148200, Note_off_c, 1, 53, 0
1, 148200, Note_off_c, 10, 53, 0
1, 148200, Note_off_c, 4, 81, 0
1, 148200, Note_off_c, 5, 53, 0
1, 148200, Note_off_c, 0, 81, 0
1, 148200, Note_on_c, 4, 82, 120
1, 148200, Note_on_c, 1, 55, 120
1, 148200, Note_on_c, 0, 82, 120
1, 148200, Note_on_c, 5, 55, 120
1, 148200, Note_on_c, 10, 55, 120
1, 148440, Note_off_c, 1, 55, 0
1, 148440, Note_off_c, 10, 55, 0
1, 148440, Note_off_c, 4, 82, 0
1, 148440, Note_off_c, 5, 55, 0
1, 148440, Note_off_c, 0, 82, 0
1, 148440, Note_on_c, 0, 84, 120
1, 148440, Note_on_c, 5, 57, 120
1, 148440, Note_on_c, 4, 84, 120
1, 148440, Note_on_c, 10, 57, 120
1, 148440, Note_on_c, 1, 57, 120
1, 148680, Note_off_c, 5, 57, 0
1, 148680, Note_off_c, 1, 57, 0
1, 148680, Note_off_c, 0, 84, 0
1, 148680, Note_off_c, 10, 57, 0
1, 148680, Note_off_c, 4, 84, 0
1, 148680, Note_on_c, 4, 88, 120
1, 148680, Note_on_c, 10, 58, 120
1, 148680, Note_on_c, 1, 58, 120
1, 148680, Note_on_c, 5, 58, 120
1, 148680, Note_on_c, 0, 88, 120
1, 148680, Note_on_c, 10, 53, 120
1, 148680, Note_on_c, 5, 53, 120
1, 148680, Note_on_c, 1, 53, 120
1, 149160, Note_off_c, 0, 88, 0
1, 149160, Note_off_c, 10, 58, 0
1, 149160, Note_off_c, 1, 58, 0
1, 149160, Note_off_c, 4, 88, 0
1, 149160, Note_off_c, 5, 58, 0
1, 149160, Note_on_c, 0, 86, 120
1, 149160, Note_on_c, 1, 60, 120
1, 149160, Note_on_c, 4, 86, 120
1, 149160, Note_on_c, 10, 60, 120
1, 149160, Note_on_c, 5, 60, 120
1, 149400, Note_off_c, 4, 86, 0
1, 149400, Note_off_c, 0, 86, 0
1, 149400, Note_on_c, 0, 82, 120
1, 149400, Note_on_c, 4, 82, 120
1, 149640, Note_off_c, 10, 60, 0
1, 149640, Note_off_c, 4, 82, 0
1, 149640, Note_off_c, 5, 60, 0
1, 149640, Note_off_c, 0, 82, 0
1, 149640, Note_off_c, 1, 60, 0
1, 149640, Note_on_c, 0, 77, 120
1, 149640, Note_on_c, 4, 77, 120
1, 149640, Note_on_c, 10, 62, 120
1, 149640, Note_on_c, 5, 62, 120
1, 149640, Note_on_c, 1, 62, 120
1, 149880, Note_off_c, 1, 53, 0
1, 149880, Note_off_c, 10, 62, 0
1, 149880, Note_off_c, 10, 53, 0
1, 149880, Note_off_c, 1, 62, 0
1, 149880, Note_off_c, 5, 62, 0
1, 149880, Note_off_c, 5, 53, 0
1, 149880, Note_off_c, 0, 77, 0
1, 149880, Note_off_c, 4, 77, 0
1, 149880, Note_on_c, 4, 76, 120
1, 149880, Note_on_c, 1, 52, 120
1, 149880, Note_on_c, 10, 52, 120
1, 149880, Note_on_c, 5, 52, 120
1, 149880, Note_on_c, 10, 60, 120
1, 149880, Note_on_c, 1, 60, 120
1, 149880, Note_on_c, 0, 76, 120
1, 149880, Note_on_c, 5, 60, 120
1, 150120, Note_off_c, 0, 76, 0
1, 150120, Note_off_c, 5, 60, 0
1, 150120, Note_off_c, 10, 60, 0
1, 150120, Note_off_c, 4, 76, 0
1, 150120, Note_off_c, 1, 60, 0
1, 150120, Note_on_c, 10, 55, 120
1, 150120, Note_on_c, 5, 55, 120
1, 150120, Note_on_c, 1, 55, 120
1, 150120, Note_on_c, 4, 74, 120
1, 150120, Note_on_c, 0, 74, 120
1, 150360, Note_off_c, 5, 55, 0
1, 150360, Note_off_c, 1, 55, 0
1, 150360, Note_off_c, 10, 55, 0
1, 150360, Note_off_c, 4, 74, 0
1, 150360, Note_off_c, 0, 74, 0
1, 150360, Note_on_c, 0, 76, 120
1, 150360, Note_on_c, 5, 58, 120
1, 150360, Note_on_c, 4, 76, 120
1, 150360, Note_on_c, 10, 58, 120
1, 150360, Note_on_c, 1, 58, 120
1, 150600, Note_off_c, 0, 76, 0
1, 150600, Note_off_c, 1, 58, 0
1, 150600, Note_off_c, 5, 52, 0
1, 150600, Note_off_c, 5, 58, 0
1, 150600, Note_off_c, 10, 58, 0
1, 150600, Note_off_c, 1, 52, 0
1, 150600, Note_off_c, 10, 52, 0
1, 150600, Note_off_c, 4, 76, 0
1, 150600, Note_on_c, 1, 57, 120
1, 150600, Note_on_c, 10, 53, 120
1, 150600, Note_on_c, 5, 57, 120
1, 150600, Note_on_c, 0, 77, 120
1, 150600, Note_on_c, 10, 57, 120
1, 150600, Note_on_c, 4, 77, 120
1, 150600, Note_on_c, 1, 53, 120
1, 150600, Note_on_c, 5, 53, 120
1, 150840, Note_off_c, 5, 57, 0
1, 150840, Note_off_c, 1, 57, 0
1, 150840, Note_off_c, 10, 57, 0
1, 151080, Note_on_c, 1, 65, 120
1, 151080, Note_on_c, 5, 65, 120
1, 151080, Note_on_c, 10, 65, 120
1, 151320, Note_off_c, 1, 65, 0
1, 151320, Note_off_c, 10, 65, 0
1, 151320, Note_off_c, 5, 65, 0
1, 151320, Note_on_c, 1, 60, 120
1, 151320, Note_on_c, 10, 60, 120
1, 151320, Note_on_c, 5, 60, 120
1, 151560, Note_off_c, 1, 60, 0
1, 151560, Note_off_c, 5, 60, 0
1, 151560, Note_off_c, 10, 60, 0
1, 151560, Note_on_c, 1, 57, 120
1, 151560, Note_on_c, 5, 57, 120
1, 151560, Note_on_c, 10, 57, 120
1, 151800, Note_off_c, 10, 53, 0
1, 151800, Note_off_c, 5, 53, 0
1, 151800, Note_off_c, 1, 53, 0
1, 151800, Note_off_c, 1, 57, 0
1, 151800, Note_off_c, 10, 57, 0
1, 151800, Note_off_c, 0, 77, 0
1, 151800, Note_off_c, 4, 77, 0
1, 151800, Note_off_c, 5, 57, 0
1, 151800, Note_on_c, 10, 60, 120
1, 151800, Note_on_c, 1, 57, 120
1, 151800, Note_on_c, 5, 57, 120
1, 151800, Note_on_c, 10, 57, 120
1, 151800, Note_on_c, 4, 81, 120
1, 151800, Note_on_c, 5, 53, 120
1, 151800, Note_on_c, 1, 60, 120
1, 151800, Note_on_c, 10, 53, 120
1, 151800, Note_on_c, 0, 81, 120
1, 151800, Note_on_c, 5, 60, 120
1, 151800, Note_on_c, 1, 53, 120
1, 152040, Note_off_c, 0, 81, 0
1, 152040, Note_off_c, 4, 81, 0
1, 152040, Note_on_c, 4, 79, 120
1, 152040, Note_on_c, 0, 79, 120
1, 152280, Note_off_c, 4, 79, 0
1, 152280, Note_off_c, 0, 79, 0
1, 152280, Note_on_c, 0, 81, 120
1, 152280, Note_on_c, 4, 81, 120
1, 152520, Note_off_c, 1, 60, 0
1, 152520, Note_off_c, 1, 53, 0
1, 152520, Note_off_c, 1, 57, 0
1, 152520, Note_off_c, 0, 81, 0
1, 152520, Note_off_c, 5, 60, 0
1, 152520, Note_off_c, 10, 60, 0
1, 152520, Note_off_c, 5, 53, 0
1, 152520, Note_off_c, 10, 53, 0
1, 152520, Note_off_c, 5, 57, 0
1, 152520, Note_off_c, 10, 57, 0
1, 152520, Note_off_c, 4, 81, 0
1, 152520, Note_on_c, 0, 77, 120
1, 152520, Note_on_c, 10, 58, 120
1, 152520, Note_on_c, 4, 77, 120
1, 152520, Note_on_c, 1, 58, 120
1, 152520, Note_on_c, 10, 53, 120
1, 152520, Note_on_c, 5, 53, 120
1, 152520, Note_on_c, 1, 62, 120
1, 152520, Note_on_c, 10, 62, 120
1, 152520, Note_on_c, 1, 53, 120
1, 152520, Note_on_c, 5, 58, 120
1, 152520, Note_on_c, 5, 62, 120
1, 153000, Note_off_c, 10, 53, 0
1, 153000, Note_off_c, 5, 58, 0
1, 153000, Note_off_c, 1, 58, 0
1, 153000, Note_off_c, 10, 62, 0
1, 153000, Note_off_c, 1, 53, 0
1, 153000, Note_off_c, 10, 58, 0
1, 153000, Note_off_c, 5, 62, 0
1, 153000, Note_off_c, 1, 62, 0
1, 153000, Note_off_c, 0, 77, 0
1, 153000, Note_off_c, 5, 53, 0
1, 153000, Note_off_c, 4, 77, 0
1, 153000, Note_on_c, 0, 82, 120
1, 153000, Note_on_c, 10, 53, 120
1, 153000, Note_on_c, 1, 53, 120
1, 153000, Note_on_c, 5, 53, 120
1, 153000, Note_on_c, 4, 82, 120
1, 153240, Note_off_c, 10, 53, 0
1, 153240, Note_off_c, 1, 53, 0
1, 153240, Note_off_c, 5, 53, 0
1, 153240, Note_on_c, 1, 58, 120
1, 153240, Note_on_c, 5, 58, 120
1, 153240, Note_on_c, 10, 58, 120
1, 153480, Note_off_c, 0, 82, 0
1, 153480, Note_off_c, 5, 58, 0
1, 153480, Note_off_c, 1, 58, 0
1, 153480, Note_off_c, 4, 82, 0
1, 153480, Note_off_c, 10, 58, 0
1, 153480, Note_on_c, 4, 81, 120
1, 153480, Note_on_c, 10, 62, 120
1, 153480, Note_on_c, 5, 62, 120
1, 153480, Note_on_c, 0, 81, 120
1, 153480, Note_on_c, 1, 62, 120
1, 153720, Note_off_c, 4, 81, 0
1, 153720, Note_off_c, 5, 62, 0
1, 153720, Note_off_c, 1, 62, 0
1, 153720, Note_off_c, 10, 62, 0
1, 153720, Note_off_c, 0, 81, 0
1, 153720, Note_on_c, 10, 60, 120
1, 153720, Note_on_c, 5, 55, 120
1, 153720, Note_on_c, 1, 55, 120
1, 153720, Note_on_c, 10, 55, 120
1, 153720, Note_on_c, 0, 79, 120
1, 153720, Note_on_c, 10, 52, 120
1, 153720, Note_on_c, 1, 60, 120
1, 153720, Note_on_c, 1, 52, 120
1, 153720, Note_on_c, 4, 79, 120
1, 153720, Note_on_c, 5, 60, 120
1, 153720, Note_on_c, 5, 52, 120
1, 153960, Note_off_c, 4, 79, 0
1, 153960, Note_off_c, 0, 79, 0
1, 153960, Note_on_c, 0, 77, 120
1, 153960, Note_on_c, 4, 77, 120
1, 154200, Note_off_c, 4, 77, 0
1, 154200, Note_off_c, 0, 77, 0
1, 154200, Note_on_c, 4, 79, 120
1, 154200, Note_on_c, 0, 79, 120
1, 154440, Note_off_c, 10, 60, 0
1, 154440, Note_off_c, 5, 52, 0
1, 154440, Note_off_c, 4, 79, 0
1, 154440, Note_off_c, 5, 55, 0
1, 154440, Note_off_c, 5, 60, 0
1, 154440, Note_off_c, 1, 60, 0
1, 154440, Note_off_c, 10, 52, 0
1, 154440, Note_off_c, 1, 52, 0
1, 154440, Note_off_c, 1, 55, 0
1, 154440, Note_off_c, 10, 55, 0
1, 154440, Note_off_c, 0, 79, 0
1, 154440, Note_on_c, 4, 81, 120
1, 154440, Note_on_c, 5, 60, 120
1, 154440, Note_on_c, 0, 81, 120
1, 154440, Note_on_c, 5, 57, 120
1, 154440, Note_on_c, 10, 57, 120
1, 154440, Note_on_c, 1, 60, 120
1, 154440, Note_on_c, 1, 57, 120
1, 154440, Note_on_c, 5, 53, 120
1, 154440, Note_on_c, 10, 60, 120
1, 154440, Note_on_c, 1, 53, 120
1, 154440, Note_on_c, 10, 53, 120
1, 154920, Note_off_c, 5, 60, 0
1, 154920, Note_off_c, 5, 57, 0
1, 154920, Note_off_c, 1, 53, 0
1, 154920, Note_off_c, 5, 53, 0
1, 154920, Note_off_c, 10, 57, 0
1, 154920, Note_off_c, 1, 60, 0
1, 154920, Note_off_c, 10, 53, 0
1, 154920, Note_off_c, 1, 57, 0
1, 154920, Note_off_c, 10, 60, 0
1, 154920, Note_on_c, 1, 60, 120
1, 154920, Note_on_c, 5, 57, 120
1, 154920, Note_on_c, 1, 57, 120
1, 154920, Note_on_c, 10, 57, 120
1, 154920, Note_on_c, 5, 60, 120
1, 154920, Note_on_c, 10, 60, 120
1, 155160, Note_off_c, 5, 60, 0
1, 155160, Note_off_c, 1, 57, 0
1, 155160, Note_off_c, 10, 60, 0
1, 155160, Note_off_c, 5, 57, 0
1, 155160, Note_off_c, 10, 57, 0
1, 155160, Note_off_c, 1, 60, 0
1, 155160, Note_on_c, 1, 60, 120
1, 155160, Note_on_c, 10, 57, 120
1, 155160, Note_on_c, 1, 57, 120
1, 155160, Note_on_c, 5, 57, 120
1, 155160, Note_on_c, 5, 60, 120
1, 155160, Note_on_c, 10, 60, 120
1, 155400, Note_off_c, 5, 60, 0
1, 155400, Note_off_c, 1, 57, 0
1, 155400, Note_off_c, 10, 60, 0
1, 155400, Note_off_c, 10, 57, 0
1, 155400, Note_off_c, 5, 57, 0
1, 155400, Note_off_c, 1, 60, 0
1, 155400, Note_on_c, 5, 55, 120
1, 155400, Note_on_c, 1, 55, 120
1, 155400, Note_on_c, 10, 55, 120
1, 155640, Note_off_c, 5, 55, 0
1, 155640, Note_off_c, 10, 55, 0
1, 155640, Note_off_c, 4, 81, 0
1, 155640, Note_off_c, 0, 81, 0
1, 155640, Note_off_c, 1, 55, 0
1, 155640, Note_on_c, 4, 81, 120
1, 155640, Note_on_c, 1, 57, 120
1, 155640, Note_on_c, 10, 60, 120
1, 155640, Note_on_c, 0, 81, 120
1, 155640, Note_on_c, 5, 57, 120
1, 155640, Note_on_c, 5, 60, 120
1, 155640, Note_on_c, 1, 60, 120
1, 155640, Note_on_c, 10, 57, 120
1, 155880, Note_off_c, 0, 81, 0
1, 155880, Note_off_c, 4, 81, 0
1, 155880, Note_on_c, 0, 82, 120
1, 155880, Note_on_c, 4, 82, 120
1, 156120, Note_off_c, 4, 82, 0
1, 156120, Note_off_c, 0, 82, 0
1, 156120, Note_on_c, 0, 84, 120
1, 156120, Note_on_c, 4, 84, 120
1, 156360, Note_off_c, 0, 84, 0
1, 156360, Note_off_c, 10, 60, 0
1, 156360, Note_off_c, 5, 60, 0
1, 156360, Note_off_c, 10, 57, 0
1, 156360, Note_off_c, 5, 57, 0
1, 156360, Note_off_c, 1, 60, 0
1, 156360, Note_off_c, 1, 57, 0
1, 156360, Note_off_c, 4, 84, 0
1, 156360, Note_on_c, 0, 88, 120
1, 156360, Note_on_c, 1, 60, 120
1, 156360, Note_on_c, 10, 60, 120
1, 156360, Note_on_c, 5, 54, 120
1, 156360, Note_on_c, 5, 60, 120
1, 156360, Note_on_c, 5, 50, 120
1, 156360, Note_on_c, 10, 50, 120
1, 156360, Note_on_c, 10, 54, 120
1, 156360, Note_on_c, 4, 88, 120
1, 156360, Note_on_c, 1, 54, 120
1, 156360, Note_on_c, 1, 50, 120
1, 156840, Note_off_c, 4, 88, 0
1, 156840, Note_off_c, 0, 88, 0
1, 156840, Note_on_c, 0, 86, 120
1, 156840, Note_on_c, 4, 86, 120
1, 157080, Note_off_c, 4, 86, 0
1, 157080, Note_off_c, 0, 86, 0
1, 157080, Note_on_c, 4, 84, 120
1, 157080, Note_on_c, 0, 84, 120
1, 157320, Note_off_c, 0, 84, 0
1, 157320, Note_off_c, 4, 84, 0
1, 157320, Note_on_c, 4, 81, 120
1, 157320, Note_on_c, 0, 81, 120
1, 157560, Note_off_c, 1, 60, 0
1, 157560, Note_off_c, 10, 60, 0
1, 157560, Note_off_c, 5, 60, 0
1, 157560, Note_off_c, 10, 54, 0
1, 157560, Note_off_c, 1, 54, 0
1, 157560, Note_off_c, 1, 50, 0
1, 157560, Note_off_c, 10, 50, 0
1, 157560, Note_off_c, 5, 54, 0
1, 157560, Note_off_c, 4, 81, 0
1, 157560, Note_off_c, 5, 50, 0
1, 157560, Note_off_c, 0, 81, 0
1, 157560, Note_on_c, 5, 60, 120
1, 157560, Note_on_c, 0, 79, 120
1, 157560, Note_on_c, 1, 60, 120
1, 157560, Note_on_c, 10, 60, 120
1, 157560, Note_on_c, 5, 55, 120
1, 157560, Note_on_c, 1, 55, 120
1, 157560, Note_on_c, 4, 79, 120
1, 157560, Note_on_c, 10, 55, 120
1, 158280, Note_off_c, 1, 55, 0
1, 158280, Note_off_c, 10, 55, 0
1, 158280, Note_off_c, 10, 60, 0
1, 158280, Note_off_c, 5, 55, 0
1, 158280, Note_off_c, 5, 60, 0
1, 158280, Note_off_c, 1, 60, 0
1, 158280, Note_on_c, 10, 55, 120
1, 158280, Note_on_c, 1, 55, 120
1, 158280, Note_on_c, 1, 60, 120
1, 158280, Note_on_c, 10, 60, 120
1, 158280, Note_on_c, 5, 60, 120
1, 158280, Note_on_c, 5, 55, 120
1, 158760, Note_off_c, 1, 60, 0
1, 158760, Note_off_c, 1, 55, 0
1, 158760, Note_off_c, 10, 60, 0
1, 158760, Note_off_c, 10, 55, 0
1, 158760, Note_off_c, 5, 55, 0
1, 158760, Note_off_c, 5, 60, 0
1, 158760, Note_on_c, 1, 60, 120
1, 158760, Note_on_c, 5, 60, 120
1, 158760, Note_on_c, 10, 60, 120
1, 159000, Note_off_c, 10, 60, 0
1, 159000, Note_off_c, 1, 60, 0
1, 159000, Note_off_c, 5, 60, 0
1, 159000, Note_on_c, 1, 55, 120
1, 159000, Note_on_c, 5, 55, 120
1, 159000, Note_on_c, 10, 55, 120
1, 159240, Note_off_c, 5, 55, 0
1, 159240, Note_off_c, 1, 55, 0
1, 159240, Note_off_c, 10, 55, 0
1, 159240, Note_on_c, 10, 60, 120
1, 159240, Note_on_c, 5, 60, 120
1, 159240, Note_on_c, 1, 60, 120
1, 159480, Note_off_c, 0, 79, 0
1, 159480, Note_off_c, 5, 60, 0
1, 159480, Note_off_c, 1, 60, 0
1, 159480, Note_off_c, 10, 60, 0
1, 159480, Note_on_c, 10, 55, 120
1, 159480, Note_on_c, 5, 55, 120
1, 159480, Note_on_c, 1, 55, 120
1, 159720, Note_on_c, 0, 86, 120
1, 159720, Note_on_c, 0, 81, 120
1, 159960, Note_off_c, 5, 55, 0
1, 159960, Note_off_c, 1, 55, 0
1, 159960, Note_off_c, 10, 55, 0
1, 159960, Note_off_c, 0, 81, 0
1, 159960, Note_off_c, 0, 86, 0
1, 159960, Note_on_c, 10, 59, 120
1, 159960, Note_on_c, 0, 83, 120
1, 159960, Note_on_c, 1, 59, 120
1, 159960, Note_on_c, 5, 59, 120
1, 160200, Note_off_c, 10, 59, 0
1, 160200, Note_off_c, 1, 59, 0
1, 160200, Note_off_c, 5, 59, 0
1, 160200, Note_off_c, 0, 83, 0
1, 160200, Note_on_c, 10, 65, 120
1, 160200, Note_on_c, 5, 65, 120
1, 160200, Note_on_c, 0, 77, 120
1, 160200, Note_on_c, 1, 65, 120
1, 160440, Note_off_c, 0, 77, 0
1, 160680, Note_off_c, 10, 65, 0
1, 160680, Note_off_c, 1, 65, 0
1, 160680, Note_off_c, 5, 65, 0
1, 160680, Note_on_c, 0, 77, 120
1, 160680, Note_on_c, 5, 59, 120
1, 160680, Note_on_c, 1, 59, 120
1, 160680, Note_on_c, 10, 59, 120
1, 160920, Note_off_c, 1, 59, 0
1, 160920, Note_off_c, 5, 59, 0
1, 160920, Note_off_c, 10, 59, 0
1, 160920, Note_off_c, 0, 77, 0
1, 160920, Note_on_c, 0, 74, 120
1, 160920, Note_on_c, 1, 55, 120
1, 160920, Note_on_c, 10, 55, 120
1, 160920, Note_on_c, 5, 55, 120
1, 161160, Note_off_c, 1, 55, 0
1, 161160, Note_off_c, 5, 55, 0
1, 161160, Note_off_c, 10, 55, 0
1, 161160, Note_off_c, 0, 74, 0
1, 161160, Note_on_c, 1, 59, 120
1, 161160, Note_on_c, 0, 77, 120
1, 161160, Note_on_c, 10, 59, 120
1, 161160, Note_on_c, 5, 59, 120
1, 161400, Note_off_c, 0, 77, 0
1, 161400, Note_off_c, 10, 59, 0
1, 161400, Note_off_c, 4, 79, 0
1, 161400, Note_off_c, 5, 59, 0
1, 161400, Note_off_c, 1, 59, 0
1, 161400, Note_on_c, 4, 81, 120
1, 161400, Note_on_c, 1, 48, 120
1, 161400, Note_on_c, 10, 48, 120
1, 161400, Note_on_c, 5, 48, 120
1, 161400, Note_on_c, 0, 81, 120
1, 161640, Note_off_c, 1, 48, 0
1, 161640, Note_off_c, 5, 48, 0
1, 161640, Note_off_c, 10, 48, 0
1, 161640, Note_on_c, 1, 58, 120
1, 161640, Note_on_c, 5, 58, 120
1, 161640, Note_on_c, 10, 58, 120
1, 161880, Note_off_c, 10, 58, 0
1, 161880, Note_off_c, 1, 58, 0
1, 161880, Note_off_c, 5, 58, 0
1, 161880, Note_on_c, 5, 60, 120
1, 161880, Note_on_c, 10, 60, 120
1, 161880, Note_on_c, 1, 60, 120
1, 162120, Note_off_c, 10, 60, 0
1, 162120, Note_off_c, 5, 60, 0
1, 162120, Note_off_c, 1, 60, 0
1, 162120, Note_on_c, 10, 65, 120
1, 162120, Note_on_c, 1, 65, 120
1, 162120, Note_on_c, 5, 65, 120
1, 162600, Note_off_c, 10, 65, 0
1, 162600, Note_off_c, 1, 65, 0
1, 162600, Note_off_c, 5, 65, 0
1, 162600, Note_on_c, 1, 60, 120
1, 162600, Note_on_c, 5, 60, 120
1, 162600, Note_on_c, 10, 60, 120
1, 162840, Note_off_c, 10, 60, 0
1, 162840, Note_off_c, 5, 60, 0
1, 162840, Note_off_c, 0, 81, 0
1, 162840, Note_off_c, 4, 81, 0
1, 162840, Note_off_c, 1, 60, 0
1, 162840, Note_on_c, 4, 82, 120
1, 162840, Note_on_c, 1, 58, 120
1, 162840, Note_on_c, 10, 58, 120
1, 162840, Note_on_c, 5, 58, 120
1, 162840, Note_on_c, 0, 82, 120
1, 163080, Note_off_c, 5, 58, 0
1, 163080, Note_off_c, 1, 58, 0
1, 163080, Note_off_c, 10, 58, 0
1, 163080, Note_on_c, 5, 60, 120
1, 163080, Note_on_c, 1, 60, 120
1, 163080, Note_on_c, 10, 60, 120
1, 163320, Note_off_c, 5, 60, 0
1, 163320, Note_off_c, 1, 60, 0
1, 163320, Note_off_c, 0, 82, 0
1, 163320, Note_off_c, 4, 82, 0
1, 163320, Note_off_c, 10, 60, 0
1, 163320, Note_on_c, 10, 48, 120
1, 163320, Note_on_c, 5, 48, 120
1, 163320, Note_on_c, 0, 81, 120
1, 163320, Note_on_c, 4, 81, 120
1, 163320, Note_on_c, 1, 48, 120
1, 163560, Note_off_c, 5, 48, 0
1, 163560, Note_off_c, 10, 48, 0
1, 163560, Note_off_c, 1, 48, 0
1, 163560, Note_on_c, 5, 58, 120
1, 163560, Note_on_c, 1, 58, 120
1, 163560, Note_on_c, 10, 58, 120
1, 163800, Note_off_c, 5, 58, 0
1, 163800, Note_off_c, 10, 58, 0
1, 163800, Note_off_c, 1, 58, 0
1, 163800, Note_on_c, 1, 60, 120
1, 163800, Note_on_c, 10, 60, 120
1, 163800, Note_on_c, 5, 60, 120
1, 164040, Note_off_c, 5, 60, 0
1, 164040, Note_off_c, 1, 60, 0
1, 164040, Note_off_c, 10, 60, 0
1, 164040, Note_on_c, 1, 64, 120
1, 164040, Note_on_c, 5, 64, 120
1, 164040, Note_on_c, 10, 64, 120
1, 164280, Note_off_c, 4, 81, 0
1, 164280, Note_off_c, 0, 81, 0
1, 164280, Note_on_c, 0, 79, 120
1, 164280, Note_on_c, 4, 79, 120
1, 164520, Note_off_c, 5, 64, 0
1, 164520, Note_off_c, 10, 64, 0
1, 164520, Note_off_c, 1, 64, 0
1, 164520, Note_on_c, 5, 60, 120
1, 164520, Note_on_c, 1, 60, 120
1, 164520, Note_on_c, 10, 60, 120
1, 164760, Note_off_c, 10, 60, 0
1, 164760, Note_off_c, 1, 60, 0
1, 164760, Note_off_c, 5, 60, 0
1, 164760, Note_on_c, 5, 58, 120
1, 164760, Note_on_c, 10, 58, 120
1, 164760, Note_on_c, 1, 58, 120
1, 165000, Note_off_c, 10, 58, 0
1, 165000, Note_off_c, 5, 58, 0
1, 165000, Note_off_c, 1, 58, 0
1, 165000, Note_on_c, 1, 60, 120
1, 165000, Note_on_c, 10, 60, 120
1, 165000, Note_on_c, 5, 60, 120
1, 165240, Note_off_c, 1, 60, 0
1, 165240, Note_off_c, 5, 60, 0
1, 165240, Note_off_c, 4, 79, 0
1, 165240, Note_off_c, 0, 79, 0
1, 165240, Note_off_c, 10, 60, 0
1, 165240, Note_on_c, 5, 53, 120
1, 165240, Note_on_c, 10, 53, 120
1, 165240, Note_on_c, 1, 53, 120
1, 165240, Note_on_c, 4, 77, 90
1, 165240, Note_on_c, 0, 77, 120
1, 165480, Note_off_c, 5, 53, 0
1, 165480, Note_off_c, 10, 53, 0
1, 165480, Note_off_c, 1, 53, 0
1, 165480, Note_on_c, 5, 58, 120
1, 165480, Note_on_c, 1, 58, 120
1, 165480, Note_on_c, 10, 58, 120
1, 165720, Note_off_c, 1, 58, 0
1, 165720, Note_off_c, 5, 58, 0
1, 165720, Note_off_c, 10, 58, 0
1, 165720, Note_on_c, 5, 60, 120
1, 165720, Note_on_c, 1, 60, 120
1, 165720, Note_on_c, 10, 60, 120
1, 165960, Note_off_c, 1, 60, 0
1, 165960, Note_off_c, 10, 60, 0
1, 165960, Note_off_c, 5, 60, 0
1, 165960, Note_on_c, 5, 53, 120
1, 165960, Note_on_c, 10, 53, 120
1, 165960, Note_on_c, 1, 53, 120
1, 166440, Note_off_c, 5, 53, 0
1, 166440, Note_off_c, 1, 53, 0
1, 166440, Note_off_c, 10, 53, 0
1, 166440, Note_on_c, 5, 58, 120
1, 166440, Note_on_c, 10, 58, 120
1, 166440, Note_on_c, 1, 58, 120
1, 166680, Note_off_c, 1, 58, 0
1, 166680, Note_off_c, 10, 58, 0
1, 166680, Note_off_c, 5, 58, 0
1, 166680, Note_on_c, 1, 62, 120
1, 166680, Note_on_c, 10, 62, 120
1, 166680, Note_on_c, 5, 62, 120
1, 166920, Note_off_c, 1, 62, 0
1, 166920, Note_off_c, 10, 62, 0
1, 166920, Note_off_c, 5, 62, 0
1, 166920, Note_on_c, 1, 65, 120
1, 166920, Note_on_c, 10, 65, 120
1, 166920, Note_on_c, 5, 65, 120
1, 167160, Note_off_c, 0, 77, 0
1, 167160, Note_off_c, 5, 65, 0
1, 167160, Note_off_c, 4, 77, 0
1, 167160, Note_off_c, 10, 65, 0
1, 167160, Note_off_c, 1, 65, 0
1, 167160, Note_on_c, 1, 52, 120
1, 167160, Note_on_c, 5, 52, 120
1, 167160, Note_on_c, 10, 52, 120
1, 167400, Note_off_c, 10, 52, 0
1, 167400, Note_off_c, 5, 52, 0
1, 167400, Note_off_c, 1, 52, 0
1, 167400, Note_on_c, 1, 55, 120
1, 167400, Note_on_c, 5, 55, 120
1, 167400, Note_on_c, 10, 55, 120
1, 167640, Note_off_c, 10, 55, 0
1, 167640, Note_off_c, 5, 55, 0
1, 167640, Note_off_c, 1, 55, 0
1, 167640, Note_on_c, 10, 60, 120
1, 167640, Note_on_c, 0, 76, 120
1, 167640, Note_on_c, 1, 60, 120
1, 167640, Note_on_c, 5, 60, 120
1, 167880, Note_off_c, 0, 76, 0
1, 167880, Note_off_c, 10, 60, 0
1, 167880, Note_off_c, 5, 60, 0
1, 167880, Note_off_c, 1, 60, 0
1, 167880, Note_on_c, 5, 53, 120
1, 167880, Note_on_c, 1, 60, 120
1, 167880, Note_on_c, 10, 53, 120
1, 167880, Note_on_c, 5, 60, 120
1, 167880, Note_on_c, 1, 53, 120
1, 167880, Note_on_c, 0, 69, 120
1, 167880, Note_on_c, 10, 60, 120
1, 169080, Note_off_c, 10, 53, 0
1, 169080, Note_off_c, 1, 53, 0
1, 169080, Note_off_c, 1, 60, 0
1, 169080, Note_off_c, 5, 60, 0
1, 169080, Note_off_c, 0, 69, 0
1, 169080, Note_off_c, 5, 53, 0
1, 169080, Note_off_c, 10, 60, 0
1, 169080, Note_on_c, 10, 53, 120
1, 169080, Note_on_c, 1, 53, 120
1, 169080, Note_on_c, 5, 53, 120
1, 169320, Note_off_c, 1, 53, 0
1, 169320, Note_off_c, 10, 53, 0
1, 169320, Note_off_c, 5, 53, 0
1, 169320, Note_on_c, 5, 57, 120
1, 169320, Note_on_c, 1, 57, 120
1, 169320, Note_on_c, 10, 57, 120
1, 169560, Note_off_c, 10, 57, 0
1, 169560, Note_off_c, 5, 57, 0
1, 169560, Note_off_c, 1, 57, 0
1, 169560, Note_on_c, 10, 60, 120
1, 169560, Note_on_c, 5, 60, 120
1, 169560, Note_on_c, 1, 60, 120
1, 169800, Note_off_c, 1, 60, 0
1, 169800, Note_off_c, 10, 60, 0
1, 169800, Note_off_c, 5, 60, 0
1, 169800, Note_on_c, 1, 53, 120
1, 169800, Note_on_c, 5, 53, 120
1, 169800, Note_on_c, 10, 53, 120
1, 170040, Note_off_c, 10, 53, 0
1, 170040, Note_off_c, 1, 53, 0
1, 170040, Note_off_c, 5, 53, 0
1, 170040, Note_on_c, 1, 58, 120
1, 170040, Note_on_c, 5, 58, 120
1, 170040, Note_on_c, 10, 58, 120
1, 170280, Note_off_c, 10, 58, 0
1, 170280, Note_off_c, 1, 58, 0
1, 170280, Note_off_c, 5, 58, 0
1, 170280, Note_on_c, 10, 65, 120
1, 170280, Note_on_c, 5, 65, 120
1, 170280, Note_on_c, 1, 65, 120
1, 170520, Note_off_c, 10, 65, 0
1, 170520, Note_off_c, 1, 65, 0
1, 170520, Note_off_c, 5, 65, 0
1, 170520, Note_on_c, 5, 62, 120
1, 170520, Note_on_c, 10, 62, 120
1, 170520, Note_on_c, 1, 62, 120
1, 170760, Note_off_c, 1, 62, 0
1, 170760, Note_off_c, 10, 62, 0
1, 170760, Note_off_c, 5, 62, 0
1, 170760, Note_on_c, 5, 58, 120
1, 170760, Note_on_c, 1, 58, 120
1, 170760, Note_on_c, 10, 58, 120
1, 171000, Note_off_c, 10, 58, 0
1, 171000, Note_off_c, 1, 58, 0
1, 171000, Note_off_c, 5, 58, 0
1, 171000, Note_on_c, 1, 52, 120
1, 171000, Note_on_c, 5, 52, 120
1, 171000, Note_on_c, 10, 52, 120
1, 171240, Note_off_c, 5, 52, 0
1, 171240, Note_off_c, 10, 52, 0
1, 171240, Note_off_c, 1, 52, 0
1, 171240, Note_on_c, 5, 58, 120
1, 171240, Note_on_c, 1, 58, 120
1, 171240, Note_on_c, 10, 58, 120
1, 171480, Note_off_c, 5, 58, 0
1, 171480, Note_off_c, 10, 58, 0
1, 171480, Note_off_c, 1, 58, 0
1, 171480, Note_on_c, 5, 60, 120
1, 171480, Note_on_c, 1, 60, 120
1, 171480, Note_on_c, 0, 76, 120
1, 171480, Note_on_c, 10, 60, 120
1, 171720, Note_off_c, 5, 60, 0
1, 171720, Note_off_c, 10, 60, 0
1, 171720, Note_off_c, 1, 60, 0
1, 171720, Note_off_c, 0, 76, 0
1, 171720, Note_on_c, 5, 53, 120
1, 171720, Note_on_c, 0, 77, 120
1, 171720, Note_on_c, 10, 53, 120
1, 171720, Note_on_c, 1, 53, 120
1, 171960, Note_off_c, 0, 77, 0
1, 171960, Note_on_c, 0, 72, 120
1, 172200, Note_off_c, 0, 72, 0
1, 172200, Note_on_c, 0, 69, 120
1, 172440, Note_off_c, 0, 69, 0
1, 172440, Note_on_c, 0, 72, 120
1, 172680, Note_off_c, 0, 72, 0
1, 172680, Note_on_c, 0, 77, 120
1, 172920, Note_off_c, 1, 53, 0
1, 172920, Note_off_c, 0, 77, 0
1, 172920, Note_off_c, 10, 53, 0
1, 172920, Note_off_c, 5, 53, 0
1, 172920, End_track
0, 0, End_of_file
