0, 0, Header, 1, 16, 192
1, 0, Start_track
1, 0, Text_t, "By NoteWorthy Composer"
1, 0, Copyright_t, "Copyright © 2002 NoteWorthy Software, Inc."
1, 0, Copyright_t, "All Rights Reserved"
1, 0, Text_t, "Generated by NoteWorthy Composer"
1, 0, Tempo, 500000
1, 0, Tempo, 500000
1, 0, Time_signature, 4, 2, 24, 8
1, 0, End_track
2, 0, Start_track
2, 0, MIDI_port, 0
2, 0, Title_t, "Staff"
2, 0, Control_c, 0, 7, 127
2, 0, Control_c, 0, 10, 107
2, 0, Control_c, 0, 7, 127
2, 0, Control_c, 0, 10, 107
2, 0, Program_c, 0, 81
2, 0, Note_on_c, 0, 67, 75
2, 62, Note_on_c, 0, 67, 0
2, 64, Note_on_c, 0, 63, 75
2, 126, Note_on_c, 0, 63, 0
2, 128, Note_on_c, 0, 60, 75
2, 190, Note_on_c, 0, 60, 0
2, 192, Note_on_c, 0, 67, 75
2, 254, Note_on_c, 0, 67, 0
2, 256, Note_on_c, 0, 64, 75
2, 318, Note_on_c, 0, 64, 0
2, 320, Note_on_c, 0, 59, 75
2, 382, Note_on_c, 0, 59, 0
2, 384, Note_on_c, 0, 67, 75
2, 446, Note_on_c, 0, 67, 0
2, 448, Note_on_c, 0, 63, 75
2, 510, Note_on_c, 0, 63, 0
2, 512, Note_on_c, 0, 60, 75
2, 574, Note_on_c, 0, 60, 0
2, 576, Note_on_c, 0, 67, 75
2, 638, Note_on_c, 0, 67, 0
2, 640, Note_on_c, 0, 64, 75
2, 702, Note_on_c, 0, 64, 0
2, 704, Note_on_c, 0, 59, 75
2, 766, Note_on_c, 0, 59, 0
2, 768, Note_on_c, 0, 67, 75
2, 830, Note_on_c, 0, 67, 0
2, 832, Note_on_c, 0, 63, 75
2, 894, Note_on_c, 0, 63, 0
2, 896, Note_on_c, 0, 60, 75
2, 958, Note_on_c, 0, 60, 0
2, 960, Note_on_c, 0, 67, 75
2, 1022, Note_on_c, 0, 67, 0
2, 1024, Note_on_c, 0, 64, 75
2, 1086, Note_on_c, 0, 64, 0
2, 1088, Note_on_c, 0, 59, 75
2, 1150, Note_on_c, 0, 59, 0
2, 1152, Note_on_c, 0, 67, 75
2, 1214, Note_on_c, 0, 67, 0
2, 1216, Note_on_c, 0, 63, 75
2, 1278, Note_on_c, 0, 63, 0
2, 1280, Note_on_c, 0, 60, 75
2, 1342, Note_on_c, 0, 60, 0
2, 1344, Note_on_c, 0, 67, 75
2, 1406, Note_on_c, 0, 67, 0
2, 1408, Note_on_c, 0, 64, 75
2, 1470, Note_on_c, 0, 64, 0
2, 1472, Note_on_c, 0, 59, 75
2, 1534, Note_on_c, 0, 59, 0
2, 1536, Note_on_c, 0, 67, 75
2, 1598, Note_on_c, 0, 67, 0
2, 1600, Note_on_c, 0, 63, 75
2, 1662, Note_on_c, 0, 63, 0
2, 1664, Note_on_c, 0, 60, 75
2, 1726, Note_on_c, 0, 60, 0
2, 1728, Note_on_c, 0, 67, 75
2, 1790, Note_on_c, 0, 67, 0
2, 1792, Note_on_c, 0, 64, 75
2, 1854, Note_on_c, 0, 64, 0
2, 1856, Note_on_c, 0, 59, 75
2, 1918, Note_on_c, 0, 59, 0
2, 1920, Note_on_c, 0, 67, 75
2, 1982, Note_on_c, 0, 67, 0
2, 1984, Note_on_c, 0, 63, 75
2, 2046, Note_on_c, 0, 63, 0
2, 2048, Note_on_c, 0, 60, 75
2, 2110, Note_on_c, 0, 60, 0
2, 2112, Note_on_c, 0, 67, 75
2, 2174, Note_on_c, 0, 67, 0
2, 2176, Note_on_c, 0, 64, 75
2, 2238, Note_on_c, 0, 64, 0
2, 2240, Note_on_c, 0, 59, 75
2, 2302, Note_on_c, 0, 59, 0
2, 2304, Note_on_c, 0, 67, 75
2, 2366, Note_on_c, 0, 67, 0
2, 2368, Note_on_c, 0, 63, 75
2, 2430, Note_on_c, 0, 63, 0
2, 2432, Note_on_c, 0, 60, 75
2, 2494, Note_on_c, 0, 60, 0
2, 2496, Note_on_c, 0, 67, 75
2, 2558, Note_on_c, 0, 67, 0
2, 2560, Note_on_c, 0, 64, 75
2, 2622, Note_on_c, 0, 64, 0
2, 2624, Note_on_c, 0, 59, 75
2, 2686, Note_on_c, 0, 59, 0
2, 2688, Note_on_c, 0, 67, 75
2, 2750, Note_on_c, 0, 67, 0
2, 2752, Note_on_c, 0, 63, 75
2, 2814, Note_on_c, 0, 63, 0
2, 2816, Note_on_c, 0, 60, 75
2, 2878, Note_on_c, 0, 60, 0
2, 2880, Note_on_c, 0, 67, 75
2, 2942, Note_on_c, 0, 67, 0
2, 2944, Note_on_c, 0, 64, 75
2, 3006, Note_on_c, 0, 64, 0
2, 3008, Note_on_c, 0, 59, 75
2, 3070, Note_on_c, 0, 59, 0
2, 3072, Note_on_c, 0, 66, 75
2, 3134, Note_on_c, 0, 66, 0
2, 3136, Note_on_c, 0, 62, 75
2, 3198, Note_on_c, 0, 62, 0
2, 3200, Note_on_c, 0, 59, 75
2, 3262, Note_on_c, 0, 59, 0
2, 3264, Note_on_c, 0, 67, 75
2, 3326, Note_on_c, 0, 67, 0
2, 3328, Note_on_c, 0, 61, 75
2, 3390, Note_on_c, 0, 61, 0
2, 3392, Note_on_c, 0, 59, 75
2, 3454, Note_on_c, 0, 59, 0
2, 3456, Note_on_c, 0, 66, 75
2, 3518, Note_on_c, 0, 66, 0
2, 3520, Note_on_c, 0, 62, 75
2, 3582, Note_on_c, 0, 62, 0
2, 3584, Note_on_c, 0, 59, 75
2, 3646, Note_on_c, 0, 59, 0
2, 3648, Note_on_c, 0, 65, 75
2, 3710, Note_on_c, 0, 65, 0
2, 3712, Note_on_c, 0, 61, 75
2, 3774, Note_on_c, 0, 61, 0
2, 3776, Note_on_c, 0, 59, 75
2, 3838, Note_on_c, 0, 59, 0
2, 3840, Note_on_c, 0, 66, 75
2, 3902, Note_on_c, 0, 66, 0
2, 3904, Note_on_c, 0, 62, 75
2, 3966, Note_on_c, 0, 62, 0
2, 3968, Note_on_c, 0, 59, 75
2, 4030, Note_on_c, 0, 59, 0
2, 4032, Note_on_c, 0, 67, 75
2, 4094, Note_on_c, 0, 67, 0
2, 4096, Note_on_c, 0, 61, 75
2, 4158, Note_on_c, 0, 61, 0
2, 4160, Note_on_c, 0, 59, 75
2, 4222, Note_on_c, 0, 59, 0
2, 4224, Note_on_c, 0, 66, 75
2, 4286, Note_on_c, 0, 66, 0
2, 4288, Note_on_c, 0, 62, 75
2, 4350, Note_on_c, 0, 62, 0
2, 4352, Note_on_c, 0, 59, 75
2, 4414, Note_on_c, 0, 59, 0
2, 4416, Note_on_c, 0, 65, 75
2, 4478, Note_on_c, 0, 65, 0
2, 4480, Note_on_c, 0, 61, 75
2, 4542, Note_on_c, 0, 61, 0
2, 4544, Note_on_c, 0, 59, 75
2, 4606, Note_on_c, 0, 59, 0
2, 4608, Note_on_c, 0, 66, 75
2, 4670, Note_on_c, 0, 66, 0
2, 4672, Note_on_c, 0, 62, 75
2, 4734, Note_on_c, 0, 62, 0
2, 4736, Note_on_c, 0, 59, 75
2, 4798, Note_on_c, 0, 59, 0
2, 4800, Note_on_c, 0, 67, 75
2, 4862, Note_on_c, 0, 67, 0
2, 4864, Note_on_c, 0, 61, 75
2, 4926, Note_on_c, 0, 61, 0
2, 4928, Note_on_c, 0, 59, 75
2, 4990, Note_on_c, 0, 59, 0
2, 4992, Note_on_c, 0, 66, 75
2, 5054, Note_on_c, 0, 66, 0
2, 5056, Note_on_c, 0, 62, 75
2, 5118, Note_on_c, 0, 62, 0
2, 5120, Note_on_c, 0, 59, 75
2, 5182, Note_on_c, 0, 59, 0
2, 5184, Note_on_c, 0, 65, 75
2, 5246, Note_on_c, 0, 65, 0
2, 5248, Note_on_c, 0, 61, 75
2, 5310, Note_on_c, 0, 61, 0
2, 5312, Note_on_c, 0, 59, 75
2, 5374, Note_on_c, 0, 59, 0
2, 5376, Note_on_c, 0, 66, 75
2, 5438, Note_on_c, 0, 66, 0
2, 5440, Note_on_c, 0, 62, 75
2, 5502, Note_on_c, 0, 62, 0
2, 5504, Note_on_c, 0, 59, 75
2, 5566, Note_on_c, 0, 59, 0
2, 5568, Note_on_c, 0, 67, 75
2, 5630, Note_on_c, 0, 67, 0
2, 5632, Note_on_c, 0, 61, 75
2, 5694, Note_on_c, 0, 61, 0
2, 5696, Note_on_c, 0, 59, 75
2, 5758, Note_on_c, 0, 59, 0
2, 5760, Note_on_c, 0, 66, 75
2, 5822, Note_on_c, 0, 66, 0
2, 5824, Note_on_c, 0, 62, 75
2, 5886, Note_on_c, 0, 62, 0
2, 5888, Note_on_c, 0, 59, 75
2, 5950, Note_on_c, 0, 59, 0
2, 5952, Note_on_c, 0, 65, 75
2, 6014, Note_on_c, 0, 65, 0
2, 6016, Note_on_c, 0, 61, 75
2, 6078, Note_on_c, 0, 61, 0
2, 6080, Note_on_c, 0, 59, 75
2, 6142, Note_on_c, 0, 59, 0
2, 6144, Note_on_c, 0, 67, 75
2, 6206, Note_on_c, 0, 67, 0
2, 6208, Note_on_c, 0, 63, 75
2, 6270, Note_on_c, 0, 63, 0
2, 6272, Note_on_c, 0, 60, 75
2, 6334, Note_on_c, 0, 60, 0
2, 6336, Note_on_c, 0, 67, 75
2, 6398, Note_on_c, 0, 67, 0
2, 6400, Note_on_c, 0, 64, 75
2, 6462, Note_on_c, 0, 64, 0
2, 6464, Note_on_c, 0, 59, 75
2, 6526, Note_on_c, 0, 59, 0
2, 6528, Note_on_c, 0, 67, 75
2, 6590, Note_on_c, 0, 67, 0
2, 6592, Note_on_c, 0, 63, 75
2, 6654, Note_on_c, 0, 63, 0
2, 6656, Note_on_c, 0, 60, 75
2, 6718, Note_on_c, 0, 60, 0
2, 6720, Note_on_c, 0, 67, 75
2, 6782, Note_on_c, 0, 67, 0
2, 6784, Note_on_c, 0, 64, 75
2, 6846, Note_on_c, 0, 64, 0
2, 6848, Note_on_c, 0, 59, 75
2, 6910, Note_on_c, 0, 59, 0
2, 6912, Note_on_c, 0, 67, 75
2, 6974, Note_on_c, 0, 67, 0
2, 6976, Note_on_c, 0, 63, 75
2, 7038, Note_on_c, 0, 63, 0
2, 7040, Note_on_c, 0, 60, 75
2, 7102, Note_on_c, 0, 60, 0
2, 7104, Note_on_c, 0, 67, 75
2, 7166, Note_on_c, 0, 67, 0
2, 7168, Note_on_c, 0, 64, 75
2, 7230, Note_on_c, 0, 64, 0
2, 7232, Note_on_c, 0, 59, 75
2, 7294, Note_on_c, 0, 59, 0
2, 7296, Note_on_c, 0, 67, 75
2, 7358, Note_on_c, 0, 67, 0
2, 7360, Note_on_c, 0, 63, 75
2, 7422, Note_on_c, 0, 63, 0
2, 7424, Note_on_c, 0, 60, 75
2, 7486, Note_on_c, 0, 60, 0
2, 7488, Note_on_c, 0, 67, 75
2, 7550, Note_on_c, 0, 67, 0
2, 7552, Note_on_c, 0, 64, 75
2, 7614, Note_on_c, 0, 64, 0
2, 7616, Note_on_c, 0, 59, 75
2, 7678, Note_on_c, 0, 59, 0
2, 7680, Note_on_c, 0, 67, 75
2, 7742, Note_on_c, 0, 67, 0
2, 7744, Note_on_c, 0, 63, 75
2, 7806, Note_on_c, 0, 63, 0
2, 7808, Note_on_c, 0, 60, 75
2, 7870, Note_on_c, 0, 60, 0
2, 7872, Note_on_c, 0, 67, 75
2, 7934, Note_on_c, 0, 67, 0
2, 7936, Note_on_c, 0, 64, 75
2, 7998, Note_on_c, 0, 64, 0
2, 8000, Note_on_c, 0, 59, 75
2, 8062, Note_on_c, 0, 59, 0
2, 8064, Note_on_c, 0, 67, 75
2, 8126, Note_on_c, 0, 67, 0
2, 8128, Note_on_c, 0, 63, 75
2, 8190, Note_on_c, 0, 63, 0
2, 8192, Note_on_c, 0, 60, 75
2, 8254, Note_on_c, 0, 60, 0
2, 8256, Note_on_c, 0, 67, 75
2, 8318, Note_on_c, 0, 67, 0
2, 8320, Note_on_c, 0, 64, 75
2, 8382, Note_on_c, 0, 64, 0
2, 8384, Note_on_c, 0, 59, 75
2, 8446, Note_on_c, 0, 59, 0
2, 8448, Note_on_c, 0, 67, 75
2, 8510, Note_on_c, 0, 67, 0
2, 8512, Note_on_c, 0, 63, 75
2, 8574, Note_on_c, 0, 63, 0
2, 8576, Note_on_c, 0, 60, 75
2, 8638, Note_on_c, 0, 60, 0
2, 8640, Note_on_c, 0, 67, 75
2, 8702, Note_on_c, 0, 67, 0
2, 8704, Note_on_c, 0, 64, 75
2, 8766, Note_on_c, 0, 64, 0
2, 8768, Note_on_c, 0, 59, 75
2, 8830, Note_on_c, 0, 59, 0
2, 8832, Note_on_c, 0, 67, 75
2, 8894, Note_on_c, 0, 67, 0
2, 8896, Note_on_c, 0, 63, 75
2, 8958, Note_on_c, 0, 63, 0
2, 8960, Note_on_c, 0, 60, 75
2, 9022, Note_on_c, 0, 60, 0
2, 9024, Note_on_c, 0, 67, 75
2, 9086, Note_on_c, 0, 67, 0
2, 9088, Note_on_c, 0, 64, 75
2, 9150, Note_on_c, 0, 64, 0
2, 9152, Note_on_c, 0, 59, 75
2, 9214, Note_on_c, 0, 59, 0
2, 9216, Note_on_c, 0, 66, 75
2, 9278, Note_on_c, 0, 66, 0
2, 9280, Note_on_c, 0, 62, 75
2, 9342, Note_on_c, 0, 62, 0
2, 9344, Note_on_c, 0, 59, 75
2, 9406, Note_on_c, 0, 59, 0
2, 9408, Note_on_c, 0, 67, 75
2, 9470, Note_on_c, 0, 67, 0
2, 9472, Note_on_c, 0, 61, 75
2, 9534, Note_on_c, 0, 61, 0
2, 9536, Note_on_c, 0, 59, 75
2, 9598, Note_on_c, 0, 59, 0
2, 9600, Note_on_c, 0, 66, 75
2, 9662, Note_on_c, 0, 66, 0
2, 9664, Note_on_c, 0, 62, 75
2, 9726, Note_on_c, 0, 62, 0
2, 9728, Note_on_c, 0, 59, 75
2, 9790, Note_on_c, 0, 59, 0
2, 9792, Note_on_c, 0, 65, 75
2, 9854, Note_on_c, 0, 65, 0
2, 9856, Note_on_c, 0, 61, 75
2, 9918, Note_on_c, 0, 61, 0
2, 9920, Note_on_c, 0, 59, 75
2, 9982, Note_on_c, 0, 59, 0
2, 9984, Note_on_c, 0, 66, 75
2, 10046, Note_on_c, 0, 66, 0
2, 10048, Note_on_c, 0, 62, 75
2, 10110, Note_on_c, 0, 62, 0
2, 10112, Note_on_c, 0, 59, 75
2, 10174, Note_on_c, 0, 59, 0
2, 10176, Note_on_c, 0, 67, 75
2, 10238, Note_on_c, 0, 67, 0
2, 10240, Note_on_c, 0, 61, 75
2, 10302, Note_on_c, 0, 61, 0
2, 10304, Note_on_c, 0, 59, 75
2, 10366, Note_on_c, 0, 59, 0
2, 10368, Note_on_c, 0, 66, 75
2, 10430, Note_on_c, 0, 66, 0
2, 10432, Note_on_c, 0, 62, 75
2, 10494, Note_on_c, 0, 62, 0
2, 10496, Note_on_c, 0, 59, 75
2, 10558, Note_on_c, 0, 59, 0
2, 10560, Note_on_c, 0, 65, 75
2, 10622, Note_on_c, 0, 65, 0
2, 10624, Note_on_c, 0, 61, 75
2, 10686, Note_on_c, 0, 61, 0
2, 10688, Note_on_c, 0, 59, 75
2, 10750, Note_on_c, 0, 59, 0
2, 10752, Note_on_c, 0, 66, 75
2, 10814, Note_on_c, 0, 66, 0
2, 10816, Note_on_c, 0, 62, 75
2, 10878, Note_on_c, 0, 62, 0
2, 10880, Note_on_c, 0, 59, 75
2, 10942, Note_on_c, 0, 59, 0
2, 10944, Note_on_c, 0, 67, 75
2, 11006, Note_on_c, 0, 67, 0
2, 11008, Note_on_c, 0, 61, 75
2, 11070, Note_on_c, 0, 61, 0
2, 11072, Note_on_c, 0, 59, 75
2, 11134, Note_on_c, 0, 59, 0
2, 11136, Note_on_c, 0, 66, 75
2, 11198, Note_on_c, 0, 66, 0
2, 11200, Note_on_c, 0, 62, 75
2, 11262, Note_on_c, 0, 62, 0
2, 11264, Note_on_c, 0, 59, 75
2, 11326, Note_on_c, 0, 59, 0
2, 11328, Note_on_c, 0, 65, 75
2, 11390, Note_on_c, 0, 65, 0
2, 11392, Note_on_c, 0, 61, 75
2, 11454, Note_on_c, 0, 61, 0
2, 11456, Note_on_c, 0, 59, 75
2, 11518, Note_on_c, 0, 59, 0
2, 11520, Note_on_c, 0, 66, 75
2, 11582, Note_on_c, 0, 66, 0
2, 11584, Note_on_c, 0, 62, 75
2, 11646, Note_on_c, 0, 62, 0
2, 11648, Note_on_c, 0, 59, 75
2, 11710, Note_on_c, 0, 59, 0
2, 11712, Note_on_c, 0, 67, 75
2, 11774, Note_on_c, 0, 67, 0
2, 11776, Note_on_c, 0, 61, 75
2, 11838, Note_on_c, 0, 61, 0
2, 11840, Note_on_c, 0, 59, 75
2, 11902, Note_on_c, 0, 59, 0
2, 11904, Note_on_c, 0, 66, 75
2, 11966, Note_on_c, 0, 66, 0
2, 11968, Note_on_c, 0, 62, 75
2, 12030, Note_on_c, 0, 62, 0
2, 12032, Note_on_c, 0, 59, 75
2, 12094, Note_on_c, 0, 59, 0
2, 12096, Note_on_c, 0, 65, 75
2, 12158, Note_on_c, 0, 65, 0
2, 12160, Note_on_c, 0, 61, 75
2, 12222, Note_on_c, 0, 61, 0
2, 12224, Note_on_c, 0, 59, 75
2, 12286, Note_on_c, 0, 59, 0
2, 12288, Note_on_c, 0, 67, 75
2, 12350, Note_on_c, 0, 67, 0
2, 12352, Note_on_c, 0, 63, 75
2, 12414, Note_on_c, 0, 63, 0
2, 12416, Note_on_c, 0, 60, 75
2, 12478, Note_on_c, 0, 60, 0
2, 12480, Note_on_c, 0, 67, 75
2, 12542, Note_on_c, 0, 67, 0
2, 12544, Note_on_c, 0, 64, 75
2, 12606, Note_on_c, 0, 64, 0
2, 12608, Note_on_c, 0, 59, 75
2, 12670, Note_on_c, 0, 59, 0
2, 12672, Note_on_c, 0, 67, 75
2, 12734, Note_on_c, 0, 67, 0
2, 12736, Note_on_c, 0, 63, 75
2, 12798, Note_on_c, 0, 63, 0
2, 12800, Note_on_c, 0, 60, 75
2, 12862, Note_on_c, 0, 60, 0
2, 12864, Note_on_c, 0, 67, 75
2, 12926, Note_on_c, 0, 67, 0
2, 12928, Note_on_c, 0, 64, 75
2, 12990, Note_on_c, 0, 64, 0
2, 12992, Note_on_c, 0, 59, 75
2, 13054, Note_on_c, 0, 59, 0
2, 13056, Note_on_c, 0, 67, 75
2, 13118, Note_on_c, 0, 67, 0
2, 13120, Note_on_c, 0, 63, 75
2, 13182, Note_on_c, 0, 63, 0
2, 13184, Note_on_c, 0, 60, 75
2, 13246, Note_on_c, 0, 60, 0
2, 13248, Note_on_c, 0, 67, 75
2, 13310, Note_on_c, 0, 67, 0
2, 13312, Note_on_c, 0, 64, 75
2, 13374, Note_on_c, 0, 64, 0
2, 13376, Note_on_c, 0, 59, 75
2, 13438, Note_on_c, 0, 59, 0
2, 13440, Note_on_c, 0, 67, 75
2, 13502, Note_on_c, 0, 67, 0
2, 13504, Note_on_c, 0, 63, 75
2, 13566, Note_on_c, 0, 63, 0
2, 13568, Note_on_c, 0, 60, 75
2, 13630, Note_on_c, 0, 60, 0
2, 13632, Note_on_c, 0, 67, 75
2, 13694, Note_on_c, 0, 67, 0
2, 13696, Note_on_c, 0, 64, 75
2, 13758, Note_on_c, 0, 64, 0
2, 13760, Note_on_c, 0, 59, 75
2, 13822, Note_on_c, 0, 59, 0
2, 13824, Note_on_c, 0, 67, 75
2, 13886, Note_on_c, 0, 67, 0
2, 13888, Note_on_c, 0, 63, 75
2, 13950, Note_on_c, 0, 63, 0
2, 13952, Note_on_c, 0, 60, 75
2, 14014, Note_on_c, 0, 60, 0
2, 14016, Note_on_c, 0, 67, 75
2, 14078, Note_on_c, 0, 67, 0
2, 14080, Note_on_c, 0, 64, 75
2, 14142, Note_on_c, 0, 64, 0
2, 14144, Note_on_c, 0, 59, 75
2, 14206, Note_on_c, 0, 59, 0
2, 14208, Note_on_c, 0, 67, 75
2, 14270, Note_on_c, 0, 67, 0
2, 14272, Note_on_c, 0, 63, 75
2, 14334, Note_on_c, 0, 63, 0
2, 14336, Note_on_c, 0, 60, 75
2, 14398, Note_on_c, 0, 60, 0
2, 14400, Note_on_c, 0, 67, 75
2, 14462, Note_on_c, 0, 67, 0
2, 14464, Note_on_c, 0, 64, 75
2, 14526, Note_on_c, 0, 64, 0
2, 14528, Note_on_c, 0, 59, 75
2, 14590, Note_on_c, 0, 59, 0
2, 14592, Note_on_c, 0, 67, 75
2, 14654, Note_on_c, 0, 67, 0
2, 14656, Note_on_c, 0, 63, 75
2, 14718, Note_on_c, 0, 63, 0
2, 14720, Note_on_c, 0, 60, 75
2, 14782, Note_on_c, 0, 60, 0
2, 14784, Note_on_c, 0, 67, 75
2, 14846, Note_on_c, 0, 67, 0
2, 14848, Note_on_c, 0, 64, 75
2, 14910, Note_on_c, 0, 64, 0
2, 14912, Note_on_c, 0, 59, 75
2, 14974, Note_on_c, 0, 59, 0
2, 14976, Note_on_c, 0, 67, 75
2, 15038, Note_on_c, 0, 67, 0
2, 15040, Note_on_c, 0, 63, 75
2, 15102, Note_on_c, 0, 63, 0
2, 15104, Note_on_c, 0, 60, 75
2, 15166, Note_on_c, 0, 60, 0
2, 15168, Note_on_c, 0, 67, 75
2, 15230, Note_on_c, 0, 67, 0
2, 15232, Note_on_c, 0, 64, 75
2, 15294, Note_on_c, 0, 64, 0
2, 15296, Note_on_c, 0, 59, 75
2, 15358, Note_on_c, 0, 59, 0
2, 15360, Note_on_c, 0, 66, 75
2, 15422, Note_on_c, 0, 66, 0
2, 15424, Note_on_c, 0, 62, 75
2, 15486, Note_on_c, 0, 62, 0
2, 15488, Note_on_c, 0, 59, 75
2, 15550, Note_on_c, 0, 59, 0
2, 15552, Note_on_c, 0, 67, 75
2, 15614, Note_on_c, 0, 67, 0
2, 15616, Note_on_c, 0, 61, 75
2, 15678, Note_on_c, 0, 61, 0
2, 15680, Note_on_c, 0, 59, 75
2, 15742, Note_on_c, 0, 59, 0
2, 15744, Note_on_c, 0, 66, 75
2, 15806, Note_on_c, 0, 66, 0
2, 15808, Note_on_c, 0, 62, 75
2, 15870, Note_on_c, 0, 62, 0
2, 15872, Note_on_c, 0, 59, 75
2, 15934, Note_on_c, 0, 59, 0
2, 15936, Note_on_c, 0, 65, 75
2, 15998, Note_on_c, 0, 65, 0
2, 16000, Note_on_c, 0, 61, 75
2, 16062, Note_on_c, 0, 61, 0
2, 16064, Note_on_c, 0, 59, 75
2, 16126, Note_on_c, 0, 59, 0
2, 16128, Note_on_c, 0, 66, 75
2, 16190, Note_on_c, 0, 66, 0
2, 16192, Note_on_c, 0, 62, 75
2, 16254, Note_on_c, 0, 62, 0
2, 16256, Note_on_c, 0, 59, 75
2, 16318, Note_on_c, 0, 59, 0
2, 16320, Note_on_c, 0, 67, 75
2, 16382, Note_on_c, 0, 67, 0
2, 16384, Note_on_c, 0, 61, 75
2, 16446, Note_on_c, 0, 61, 0
2, 16448, Note_on_c, 0, 59, 75
2, 16510, Note_on_c, 0, 59, 0
2, 16512, Note_on_c, 0, 66, 75
2, 16574, Note_on_c, 0, 66, 0
2, 16576, Note_on_c, 0, 62, 75
2, 16638, Note_on_c, 0, 62, 0
2, 16640, Note_on_c, 0, 59, 75
2, 16702, Note_on_c, 0, 59, 0
2, 16704, Note_on_c, 0, 65, 75
2, 16766, Note_on_c, 0, 65, 0
2, 16768, Note_on_c, 0, 61, 75
2, 16830, Note_on_c, 0, 61, 0
2, 16832, Note_on_c, 0, 59, 75
2, 16894, Note_on_c, 0, 59, 0
2, 16896, Note_on_c, 0, 66, 75
2, 16958, Note_on_c, 0, 66, 0
2, 16960, Note_on_c, 0, 62, 75
2, 17022, Note_on_c, 0, 62, 0
2, 17024, Note_on_c, 0, 59, 75
2, 17086, Note_on_c, 0, 59, 0
2, 17088, Note_on_c, 0, 67, 75
2, 17150, Note_on_c, 0, 67, 0
2, 17152, Note_on_c, 0, 61, 75
2, 17214, Note_on_c, 0, 61, 0
2, 17216, Note_on_c, 0, 59, 75
2, 17278, Note_on_c, 0, 59, 0
2, 17280, Note_on_c, 0, 66, 75
2, 17342, Note_on_c, 0, 66, 0
2, 17344, Note_on_c, 0, 62, 75
2, 17406, Note_on_c, 0, 62, 0
2, 17408, Note_on_c, 0, 59, 75
2, 17470, Note_on_c, 0, 59, 0
2, 17472, Note_on_c, 0, 65, 75
2, 17534, Note_on_c, 0, 65, 0
2, 17536, Note_on_c, 0, 61, 75
2, 17598, Note_on_c, 0, 61, 0
2, 17600, Note_on_c, 0, 59, 75
2, 17662, Note_on_c, 0, 59, 0
2, 17664, Note_on_c, 0, 66, 75
2, 17726, Note_on_c, 0, 66, 0
2, 17728, Note_on_c, 0, 62, 75
2, 17790, Note_on_c, 0, 62, 0
2, 17792, Note_on_c, 0, 59, 75
2, 17854, Note_on_c, 0, 59, 0
2, 17856, Note_on_c, 0, 67, 75
2, 17918, Note_on_c, 0, 67, 0
2, 17920, Note_on_c, 0, 61, 75
2, 17982, Note_on_c, 0, 61, 0
2, 17984, Note_on_c, 0, 59, 75
2, 18046, Note_on_c, 0, 59, 0
2, 18048, Note_on_c, 0, 66, 75
2, 18110, Note_on_c, 0, 66, 0
2, 18112, Note_on_c, 0, 62, 75
2, 18174, Note_on_c, 0, 62, 0
2, 18176, Note_on_c, 0, 59, 75
2, 18238, Note_on_c, 0, 59, 0
2, 18240, Note_on_c, 0, 65, 75
2, 18302, Note_on_c, 0, 65, 0
2, 18304, Note_on_c, 0, 61, 75
2, 18366, Note_on_c, 0, 61, 0
2, 18368, Note_on_c, 0, 59, 75
2, 18430, Note_on_c, 0, 59, 0
2, 18432, Note_on_c, 0, 67, 75
2, 18494, Note_on_c, 0, 67, 0
2, 18496, Note_on_c, 0, 63, 75
2, 18558, Note_on_c, 0, 63, 0
2, 18560, Note_on_c, 0, 60, 75
2, 18622, Note_on_c, 0, 60, 0
2, 18624, Note_on_c, 0, 67, 75
2, 18686, Note_on_c, 0, 67, 0
2, 18688, Note_on_c, 0, 64, 75
2, 18750, Note_on_c, 0, 64, 0
2, 18752, Note_on_c, 0, 59, 75
2, 18814, Note_on_c, 0, 59, 0
2, 18816, Note_on_c, 0, 67, 75
2, 18878, Note_on_c, 0, 67, 0
2, 18880, Note_on_c, 0, 63, 75
2, 18942, Note_on_c, 0, 63, 0
2, 18944, Note_on_c, 0, 60, 75
2, 19006, Note_on_c, 0, 60, 0
2, 19008, Note_on_c, 0, 67, 75
2, 19070, Note_on_c, 0, 67, 0
2, 19072, Note_on_c, 0, 64, 75
2, 19134, Note_on_c, 0, 64, 0
2, 19136, Note_on_c, 0, 59, 75
2, 19198, Note_on_c, 0, 59, 0
2, 19200, Note_on_c, 0, 67, 75
2, 19262, Note_on_c, 0, 67, 0
2, 19264, Note_on_c, 0, 63, 75
2, 19326, Note_on_c, 0, 63, 0
2, 19328, Note_on_c, 0, 60, 75
2, 19390, Note_on_c, 0, 60, 0
2, 19392, Note_on_c, 0, 67, 75
2, 19454, Note_on_c, 0, 67, 0
2, 19456, Note_on_c, 0, 64, 75
2, 19518, Note_on_c, 0, 64, 0
2, 19520, Note_on_c, 0, 59, 75
2, 19582, Note_on_c, 0, 59, 0
2, 19584, Note_on_c, 0, 67, 75
2, 19646, Note_on_c, 0, 67, 0
2, 19648, Note_on_c, 0, 63, 75
2, 19710, Note_on_c, 0, 63, 0
2, 19712, Note_on_c, 0, 60, 75
2, 19774, Note_on_c, 0, 60, 0
2, 19776, Note_on_c, 0, 67, 75
2, 19838, Note_on_c, 0, 67, 0
2, 19840, Note_on_c, 0, 64, 75
2, 19902, Note_on_c, 0, 64, 0
2, 19904, Note_on_c, 0, 59, 75
2, 19966, Note_on_c, 0, 59, 0
2, 19968, Note_on_c, 0, 67, 75
2, 20030, Note_on_c, 0, 67, 0
2, 20032, Note_on_c, 0, 63, 75
2, 20094, Note_on_c, 0, 63, 0
2, 20096, Note_on_c, 0, 60, 75
2, 20158, Note_on_c, 0, 60, 0
2, 20160, Note_on_c, 0, 67, 75
2, 20222, Note_on_c, 0, 67, 0
2, 20224, Note_on_c, 0, 64, 75
2, 20286, Note_on_c, 0, 64, 0
2, 20288, Note_on_c, 0, 59, 75
2, 20350, Note_on_c, 0, 59, 0
2, 20352, Note_on_c, 0, 67, 75
2, 20414, Note_on_c, 0, 67, 0
2, 20416, Note_on_c, 0, 63, 75
2, 20478, Note_on_c, 0, 63, 0
2, 20480, Note_on_c, 0, 60, 75
2, 20542, Note_on_c, 0, 60, 0
2, 20544, Note_on_c, 0, 67, 75
2, 20606, Note_on_c, 0, 67, 0
2, 20608, Note_on_c, 0, 64, 75
2, 20670, Note_on_c, 0, 64, 0
2, 20672, Note_on_c, 0, 59, 75
2, 20734, Note_on_c, 0, 59, 0
2, 20736, Note_on_c, 0, 67, 75
2, 20798, Note_on_c, 0, 67, 0
2, 20800, Note_on_c, 0, 63, 75
2, 20862, Note_on_c, 0, 63, 0
2, 20864, Note_on_c, 0, 60, 75
2, 20926, Note_on_c, 0, 60, 0
2, 20928, Note_on_c, 0, 67, 75
2, 20990, Note_on_c, 0, 67, 0
2, 20992, Note_on_c, 0, 64, 75
2, 21054, Note_on_c, 0, 64, 0
2, 21056, Note_on_c, 0, 59, 75
2, 21118, Note_on_c, 0, 59, 0
2, 21120, Note_on_c, 0, 67, 75
2, 21182, Note_on_c, 0, 67, 0
2, 21184, Note_on_c, 0, 63, 75
2, 21246, Note_on_c, 0, 63, 0
2, 21248, Note_on_c, 0, 60, 75
2, 21310, Note_on_c, 0, 60, 0
2, 21312, Note_on_c, 0, 67, 75
2, 21374, Note_on_c, 0, 67, 0
2, 21376, Note_on_c, 0, 64, 75
2, 21438, Note_on_c, 0, 64, 0
2, 21440, Note_on_c, 0, 59, 75
2, 21502, Note_on_c, 0, 59, 0
2, 21504, Note_on_c, 0, 66, 75
2, 21566, Note_on_c, 0, 66, 0
2, 21568, Note_on_c, 0, 62, 75
2, 21630, Note_on_c, 0, 62, 0
2, 21632, Note_on_c, 0, 59, 75
2, 21694, Note_on_c, 0, 59, 0
2, 21696, Note_on_c, 0, 67, 75
2, 21758, Note_on_c, 0, 67, 0
2, 21760, Note_on_c, 0, 61, 75
2, 21822, Note_on_c, 0, 61, 0
2, 21824, Note_on_c, 0, 59, 75
2, 21886, Note_on_c, 0, 59, 0
2, 21888, Note_on_c, 0, 66, 75
2, 21950, Note_on_c, 0, 66, 0
2, 21952, Note_on_c, 0, 62, 75
2, 22014, Note_on_c, 0, 62, 0
2, 22016, Note_on_c, 0, 59, 75
2, 22078, Note_on_c, 0, 59, 0
2, 22080, Note_on_c, 0, 65, 75
2, 22142, Note_on_c, 0, 65, 0
2, 22144, Note_on_c, 0, 61, 75
2, 22206, Note_on_c, 0, 61, 0
2, 22208, Note_on_c, 0, 59, 75
2, 22270, Note_on_c, 0, 59, 0
2, 22272, Note_on_c, 0, 66, 75
2, 22334, Note_on_c, 0, 66, 0
2, 22336, Note_on_c, 0, 62, 75
2, 22398, Note_on_c, 0, 62, 0
2, 22400, Note_on_c, 0, 59, 75
2, 22462, Note_on_c, 0, 59, 0
2, 22464, Note_on_c, 0, 67, 75
2, 22526, Note_on_c, 0, 67, 0
2, 22528, Note_on_c, 0, 61, 75
2, 22590, Note_on_c, 0, 61, 0
2, 22592, Note_on_c, 0, 59, 75
2, 22654, Note_on_c, 0, 59, 0
2, 22656, Note_on_c, 0, 66, 75
2, 22718, Note_on_c, 0, 66, 0
2, 22720, Note_on_c, 0, 62, 75
2, 22782, Note_on_c, 0, 62, 0
2, 22784, Note_on_c, 0, 59, 75
2, 22846, Note_on_c, 0, 59, 0
2, 22848, Note_on_c, 0, 65, 75
2, 22910, Note_on_c, 0, 65, 0
2, 22912, Note_on_c, 0, 61, 75
2, 22974, Note_on_c, 0, 61, 0
2, 22976, Note_on_c, 0, 59, 75
2, 23038, Note_on_c, 0, 59, 0
2, 23040, Note_on_c, 0, 66, 75
2, 23102, Note_on_c, 0, 66, 0
2, 23104, Note_on_c, 0, 62, 75
2, 23166, Note_on_c, 0, 62, 0
2, 23168, Note_on_c, 0, 59, 75
2, 23230, Note_on_c, 0, 59, 0
2, 23232, Note_on_c, 0, 67, 75
2, 23294, Note_on_c, 0, 67, 0
2, 23296, Note_on_c, 0, 61, 75
2, 23358, Note_on_c, 0, 61, 0
2, 23360, Note_on_c, 0, 59, 75
2, 23422, Note_on_c, 0, 59, 0
2, 23424, Note_on_c, 0, 66, 75
2, 23486, Note_on_c, 0, 66, 0
2, 23488, Note_on_c, 0, 62, 75
2, 23550, Note_on_c, 0, 62, 0
2, 23552, Note_on_c, 0, 59, 75
2, 23614, Note_on_c, 0, 59, 0
2, 23616, Note_on_c, 0, 65, 75
2, 23678, Note_on_c, 0, 65, 0
2, 23680, Note_on_c, 0, 61, 75
2, 23742, Note_on_c, 0, 61, 0
2, 23744, Note_on_c, 0, 59, 75
2, 23806, Note_on_c, 0, 59, 0
2, 23808, Note_on_c, 0, 66, 75
2, 23870, Note_on_c, 0, 66, 0
2, 23872, Note_on_c, 0, 62, 75
2, 23934, Note_on_c, 0, 62, 0
2, 23936, Note_on_c, 0, 59, 75
2, 23998, Note_on_c, 0, 59, 0
2, 24000, Note_on_c, 0, 67, 75
2, 24062, Note_on_c, 0, 67, 0
2, 24064, Note_on_c, 0, 61, 75
2, 24126, Note_on_c, 0, 61, 0
2, 24128, Note_on_c, 0, 59, 75
2, 24190, Note_on_c, 0, 59, 0
2, 24192, Note_on_c, 0, 66, 75
2, 24254, Note_on_c, 0, 66, 0
2, 24256, Note_on_c, 0, 62, 75
2, 24318, Note_on_c, 0, 62, 0
2, 24320, Note_on_c, 0, 59, 75
2, 24382, Note_on_c, 0, 59, 0
2, 24384, Note_on_c, 0, 65, 75
2, 24446, Note_on_c, 0, 65, 0
2, 24448, Note_on_c, 0, 61, 75
2, 24510, Note_on_c, 0, 61, 0
2, 24512, Note_on_c, 0, 59, 75
2, 24574, Note_on_c, 0, 59, 0
2, 24576, Note_on_c, 0, 67, 75
2, 24638, Note_on_c, 0, 67, 0
2, 24640, Note_on_c, 0, 63, 75
2, 24702, Note_on_c, 0, 63, 0
2, 24704, Note_on_c, 0, 60, 75
2, 24766, Note_on_c, 0, 60, 0
2, 24768, Note_on_c, 0, 67, 75
2, 24830, Note_on_c, 0, 67, 0
2, 24832, Note_on_c, 0, 64, 75
2, 24894, Note_on_c, 0, 64, 0
2, 24896, Note_on_c, 0, 59, 75
2, 24958, Note_on_c, 0, 59, 0
2, 24960, Note_on_c, 0, 67, 75
2, 25022, Note_on_c, 0, 67, 0
2, 25024, Note_on_c, 0, 63, 75
2, 25086, Note_on_c, 0, 63, 0
2, 25088, Note_on_c, 0, 60, 75
2, 25150, Note_on_c, 0, 60, 0
2, 25152, Note_on_c, 0, 67, 75
2, 25214, Note_on_c, 0, 67, 0
2, 25216, Note_on_c, 0, 64, 75
2, 25278, Note_on_c, 0, 64, 0
2, 25280, Note_on_c, 0, 59, 75
2, 25342, Note_on_c, 0, 59, 0
2, 25344, Note_on_c, 0, 67, 75
2, 25406, Note_on_c, 0, 67, 0
2, 25408, Note_on_c, 0, 63, 75
2, 25470, Note_on_c, 0, 63, 0
2, 25472, Note_on_c, 0, 60, 75
2, 25534, Note_on_c, 0, 60, 0
2, 25536, Note_on_c, 0, 67, 75
2, 25598, Note_on_c, 0, 67, 0
2, 25600, Note_on_c, 0, 64, 75
2, 25662, Note_on_c, 0, 64, 0
2, 25664, Note_on_c, 0, 59, 75
2, 25726, Note_on_c, 0, 59, 0
2, 25728, Note_on_c, 0, 67, 75
2, 25790, Note_on_c, 0, 67, 0
2, 25792, Note_on_c, 0, 63, 75
2, 25854, Note_on_c, 0, 63, 0
2, 25856, Note_on_c, 0, 60, 75
2, 25918, Note_on_c, 0, 60, 0
2, 25920, Note_on_c, 0, 67, 75
2, 25982, Note_on_c, 0, 67, 0
2, 25984, Note_on_c, 0, 64, 75
2, 26046, Note_on_c, 0, 64, 0
2, 26048, Note_on_c, 0, 59, 75
2, 26110, Note_on_c, 0, 59, 0
2, 26112, Note_on_c, 0, 67, 75
2, 26174, Note_on_c, 0, 67, 0
2, 26176, Note_on_c, 0, 63, 75
2, 26238, Note_on_c, 0, 63, 0
2, 26240, Note_on_c, 0, 60, 75
2, 26302, Note_on_c, 0, 60, 0
2, 26304, Note_on_c, 0, 67, 75
2, 26366, Note_on_c, 0, 67, 0
2, 26368, Note_on_c, 0, 64, 75
2, 26430, Note_on_c, 0, 64, 0
2, 26432, Note_on_c, 0, 59, 75
2, 26494, Note_on_c, 0, 59, 0
2, 26496, Note_on_c, 0, 67, 75
2, 26558, Note_on_c, 0, 67, 0
2, 26560, Note_on_c, 0, 63, 75
2, 26622, Note_on_c, 0, 63, 0
2, 26624, Note_on_c, 0, 60, 75
2, 26686, Note_on_c, 0, 60, 0
2, 26688, Note_on_c, 0, 67, 75
2, 26750, Note_on_c, 0, 67, 0
2, 26752, Note_on_c, 0, 64, 75
2, 26814, Note_on_c, 0, 64, 0
2, 26816, Note_on_c, 0, 59, 75
2, 26878, Note_on_c, 0, 59, 0
2, 26880, Note_on_c, 0, 67, 75
2, 26942, Note_on_c, 0, 67, 0
2, 26944, Note_on_c, 0, 63, 75
2, 27006, Note_on_c, 0, 63, 0
2, 27008, Note_on_c, 0, 60, 75
2, 27070, Note_on_c, 0, 60, 0
2, 27072, Note_on_c, 0, 67, 75
2, 27134, Note_on_c, 0, 67, 0
2, 27136, Note_on_c, 0, 64, 75
2, 27198, Note_on_c, 0, 64, 0
2, 27200, Note_on_c, 0, 59, 75
2, 27262, Note_on_c, 0, 59, 0
2, 27264, Note_on_c, 0, 67, 75
2, 27326, Note_on_c, 0, 67, 0
2, 27328, Note_on_c, 0, 63, 75
2, 27390, Note_on_c, 0, 63, 0
2, 27392, Note_on_c, 0, 60, 75
2, 27454, Note_on_c, 0, 60, 0
2, 27456, Note_on_c, 0, 67, 75
2, 27518, Note_on_c, 0, 67, 0
2, 27520, Note_on_c, 0, 64, 75
2, 27582, Note_on_c, 0, 64, 0
2, 27584, Note_on_c, 0, 59, 75
2, 27646, Note_on_c, 0, 59, 0
2, 27648, Note_on_c, 0, 66, 75
2, 27710, Note_on_c, 0, 66, 0
2, 27712, Note_on_c, 0, 62, 75
2, 27774, Note_on_c, 0, 62, 0
2, 27776, Note_on_c, 0, 59, 75
2, 27838, Note_on_c, 0, 59, 0
2, 27840, Note_on_c, 0, 67, 75
2, 27902, Note_on_c, 0, 67, 0
2, 27904, Note_on_c, 0, 61, 75
2, 27966, Note_on_c, 0, 61, 0
2, 27968, Note_on_c, 0, 59, 75
2, 28030, Note_on_c, 0, 59, 0
2, 28032, Note_on_c, 0, 66, 75
2, 28094, Note_on_c, 0, 66, 0
2, 28096, Note_on_c, 0, 62, 75
2, 28158, Note_on_c, 0, 62, 0
2, 28160, Note_on_c, 0, 59, 75
2, 28222, Note_on_c, 0, 59, 0
2, 28224, Note_on_c, 0, 65, 75
2, 28286, Note_on_c, 0, 65, 0
2, 28288, Note_on_c, 0, 61, 75
2, 28350, Note_on_c, 0, 61, 0
2, 28352, Note_on_c, 0, 59, 75
2, 28414, Note_on_c, 0, 59, 0
2, 28416, Note_on_c, 0, 66, 75
2, 28478, Note_on_c, 0, 66, 0
2, 28480, Note_on_c, 0, 62, 75
2, 28542, Note_on_c, 0, 62, 0
2, 28544, Note_on_c, 0, 59, 75
2, 28606, Note_on_c, 0, 59, 0
2, 28608, Note_on_c, 0, 67, 75
2, 28670, Note_on_c, 0, 67, 0
2, 28672, Note_on_c, 0, 61, 75
2, 28734, Note_on_c, 0, 61, 0
2, 28736, Note_on_c, 0, 59, 75
2, 28798, Note_on_c, 0, 59, 0
2, 28800, Note_on_c, 0, 66, 75
2, 28862, Note_on_c, 0, 66, 0
2, 28864, Note_on_c, 0, 62, 75
2, 28926, Note_on_c, 0, 62, 0
2, 28928, Note_on_c, 0, 59, 75
2, 28990, Note_on_c, 0, 59, 0
2, 28992, Note_on_c, 0, 65, 75
2, 29054, Note_on_c, 0, 65, 0
2, 29056, Note_on_c, 0, 61, 75
2, 29118, Note_on_c, 0, 61, 0
2, 29120, Note_on_c, 0, 59, 75
2, 29182, Note_on_c, 0, 59, 0
2, 29184, Note_on_c, 0, 66, 75
2, 29246, Note_on_c, 0, 66, 0
2, 29248, Note_on_c, 0, 62, 75
2, 29310, Note_on_c, 0, 62, 0
2, 29312, Note_on_c, 0, 59, 75
2, 29374, Note_on_c, 0, 59, 0
2, 29376, Note_on_c, 0, 67, 75
2, 29438, Note_on_c, 0, 67, 0
2, 29440, Note_on_c, 0, 61, 75
2, 29502, Note_on_c, 0, 61, 0
2, 29504, Note_on_c, 0, 59, 75
2, 29566, Note_on_c, 0, 59, 0
2, 29568, Note_on_c, 0, 66, 75
2, 29630, Note_on_c, 0, 66, 0
2, 29632, Note_on_c, 0, 62, 75
2, 29694, Note_on_c, 0, 62, 0
2, 29696, Note_on_c, 0, 59, 75
2, 29758, Note_on_c, 0, 59, 0
2, 29760, Note_on_c, 0, 65, 75
2, 29822, Note_on_c, 0, 65, 0
2, 29824, Note_on_c, 0, 61, 75
2, 29886, Note_on_c, 0, 61, 0
2, 29888, Note_on_c, 0, 59, 75
2, 29950, Note_on_c, 0, 59, 0
2, 29952, Note_on_c, 0, 66, 75
2, 30014, Note_on_c, 0, 66, 0
2, 30016, Note_on_c, 0, 62, 75
2, 30078, Note_on_c, 0, 62, 0
2, 30080, Note_on_c, 0, 59, 75
2, 30142, Note_on_c, 0, 59, 0
2, 30144, Note_on_c, 0, 67, 75
2, 30206, Note_on_c, 0, 67, 0
2, 30208, Note_on_c, 0, 61, 75
2, 30270, Note_on_c, 0, 61, 0
2, 30272, Note_on_c, 0, 59, 75
2, 30334, Note_on_c, 0, 59, 0
2, 30336, Note_on_c, 0, 66, 75
2, 30398, Note_on_c, 0, 66, 0
2, 30400, Note_on_c, 0, 62, 75
2, 30462, Note_on_c, 0, 62, 0
2, 30464, Note_on_c, 0, 59, 75
2, 30526, Note_on_c, 0, 59, 0
2, 30528, Note_on_c, 0, 65, 75
2, 30590, Note_on_c, 0, 65, 0
2, 30592, Note_on_c, 0, 61, 75
2, 30654, Note_on_c, 0, 61, 0
2, 30656, Note_on_c, 0, 59, 75
2, 30718, Note_on_c, 0, 59, 0
2, 30720, Note_on_c, 0, 64, 75
2, 30782, Note_on_c, 0, 64, 0
2, 30784, Note_on_c, 0, 60, 75
2, 30846, Note_on_c, 0, 60, 0
2, 30848, Note_on_c, 0, 57, 75
2, 30910, Note_on_c, 0, 57, 0
2, 30912, Note_on_c, 0, 64, 75
2, 30974, Note_on_c, 0, 64, 0
2, 30976, Note_on_c, 0, 61, 75
2, 31038, Note_on_c, 0, 61, 0
2, 31040, Note_on_c, 0, 56, 75
2, 31102, Note_on_c, 0, 56, 0
2, 31104, Note_on_c, 0, 64, 75
2, 31166, Note_on_c, 0, 64, 0
2, 31168, Note_on_c, 0, 60, 75
2, 31230, Note_on_c, 0, 60, 0
2, 31232, Note_on_c, 0, 57, 75
2, 31294, Note_on_c, 0, 57, 0
2, 31296, Note_on_c, 0, 64, 75
2, 31358, Note_on_c, 0, 64, 0
2, 31360, Note_on_c, 0, 61, 75
2, 31422, Note_on_c, 0, 61, 0
2, 31424, Note_on_c, 0, 56, 75
2, 31486, Note_on_c, 0, 56, 0
2, 31488, Note_on_c, 0, 64, 75
2, 31550, Note_on_c, 0, 64, 0
2, 31552, Note_on_c, 0, 60, 75
2, 31614, Note_on_c, 0, 60, 0
2, 31616, Note_on_c, 0, 57, 75
2, 31678, Note_on_c, 0, 57, 0
2, 31680, Note_on_c, 0, 64, 75
2, 31742, Note_on_c, 0, 64, 0
2, 31744, Note_on_c, 0, 61, 75
2, 31806, Note_on_c, 0, 61, 0
2, 31808, Note_on_c, 0, 56, 75
2, 31870, Note_on_c, 0, 56, 0
2, 31872, Note_on_c, 0, 64, 75
2, 31934, Note_on_c, 0, 64, 0
2, 31936, Note_on_c, 0, 60, 75
2, 31998, Note_on_c, 0, 60, 0
2, 32000, Note_on_c, 0, 57, 75
2, 32062, Note_on_c, 0, 57, 0
2, 32064, Note_on_c, 0, 64, 75
2, 32126, Note_on_c, 0, 64, 0
2, 32128, Note_on_c, 0, 61, 75
2, 32190, Note_on_c, 0, 61, 0
2, 32192, Note_on_c, 0, 56, 75
2, 32254, Note_on_c, 0, 56, 0
2, 32256, Note_on_c, 0, 64, 75
2, 32318, Note_on_c, 0, 64, 0
2, 32320, Note_on_c, 0, 60, 75
2, 32382, Note_on_c, 0, 60, 0
2, 32384, Note_on_c, 0, 57, 75
2, 32446, Note_on_c, 0, 57, 0
2, 32448, Note_on_c, 0, 64, 75
2, 32510, Note_on_c, 0, 64, 0
2, 32512, Note_on_c, 0, 61, 75
2, 32574, Note_on_c, 0, 61, 0
2, 32576, Note_on_c, 0, 56, 75
2, 32638, Note_on_c, 0, 56, 0
2, 32640, Note_on_c, 0, 64, 75
2, 32702, Note_on_c, 0, 64, 0
2, 32704, Note_on_c, 0, 60, 75
2, 32766, Note_on_c, 0, 60, 0
2, 32768, Note_on_c, 0, 57, 75
2, 32830, Note_on_c, 0, 57, 0
2, 32832, Note_on_c, 0, 64, 75
2, 32894, Note_on_c, 0, 64, 0
2, 32896, Note_on_c, 0, 61, 75
2, 32958, Note_on_c, 0, 61, 0
2, 32960, Note_on_c, 0, 56, 75
2, 33022, Note_on_c, 0, 56, 0
2, 33024, Note_on_c, 0, 64, 75
2, 33086, Note_on_c, 0, 64, 0
2, 33088, Note_on_c, 0, 60, 75
2, 33150, Note_on_c, 0, 60, 0
2, 33152, Note_on_c, 0, 57, 75
2, 33214, Note_on_c, 0, 57, 0
2, 33216, Note_on_c, 0, 64, 75
2, 33278, Note_on_c, 0, 64, 0
2, 33280, Note_on_c, 0, 61, 75
2, 33342, Note_on_c, 0, 61, 0
2, 33344, Note_on_c, 0, 56, 75
2, 33406, Note_on_c, 0, 56, 0
2, 33408, Note_on_c, 0, 64, 75
2, 33470, Note_on_c, 0, 64, 0
2, 33472, Note_on_c, 0, 60, 75
2, 33534, Note_on_c, 0, 60, 0
2, 33536, Note_on_c, 0, 57, 75
2, 33598, Note_on_c, 0, 57, 0
2, 33600, Note_on_c, 0, 64, 75
2, 33662, Note_on_c, 0, 64, 0
2, 33664, Note_on_c, 0, 61, 75
2, 33726, Note_on_c, 0, 61, 0
2, 33728, Note_on_c, 0, 56, 75
2, 33790, Note_on_c, 0, 56, 0
2, 33792, Note_on_c, 0, 63, 75
2, 33854, Note_on_c, 0, 63, 0
2, 33856, Note_on_c, 0, 59, 75
2, 33918, Note_on_c, 0, 59, 0
2, 33920, Note_on_c, 0, 56, 75
2, 33982, Note_on_c, 0, 56, 0
2, 33984, Note_on_c, 0, 64, 75
2, 34046, Note_on_c, 0, 64, 0
2, 34048, Note_on_c, 0, 58, 75
2, 34110, Note_on_c, 0, 58, 0
2, 34112, Note_on_c, 0, 56, 75
2, 34174, Note_on_c, 0, 56, 0
2, 34176, Note_on_c, 0, 63, 75
2, 34238, Note_on_c, 0, 63, 0
2, 34240, Note_on_c, 0, 59, 75
2, 34302, Note_on_c, 0, 59, 0
2, 34304, Note_on_c, 0, 56, 75
2, 34366, Note_on_c, 0, 56, 0
2, 34368, Note_on_c, 0, 62, 75
2, 34430, Note_on_c, 0, 62, 0
2, 34432, Note_on_c, 0, 58, 75
2, 34494, Note_on_c, 0, 58, 0
2, 34496, Note_on_c, 0, 56, 75
2, 34558, Note_on_c, 0, 56, 0
2, 34560, Note_on_c, 0, 63, 75
2, 34622, Note_on_c, 0, 63, 0
2, 34624, Note_on_c, 0, 59, 75
2, 34686, Note_on_c, 0, 59, 0
2, 34688, Note_on_c, 0, 56, 75
2, 34750, Note_on_c, 0, 56, 0
2, 34752, Note_on_c, 0, 64, 75
2, 34814, Note_on_c, 0, 64, 0
2, 34816, Note_on_c, 0, 58, 75
2, 34878, Note_on_c, 0, 58, 0
2, 34880, Note_on_c, 0, 56, 75
2, 34942, Note_on_c, 0, 56, 0
2, 34944, Note_on_c, 0, 63, 75
2, 35006, Note_on_c, 0, 63, 0
2, 35008, Note_on_c, 0, 59, 75
2, 35070, Note_on_c, 0, 59, 0
2, 35072, Note_on_c, 0, 56, 75
2, 35134, Note_on_c, 0, 56, 0
2, 35136, Note_on_c, 0, 62, 75
2, 35198, Note_on_c, 0, 62, 0
2, 35200, Note_on_c, 0, 58, 75
2, 35262, Note_on_c, 0, 58, 0
2, 35264, Note_on_c, 0, 56, 75
2, 35326, Note_on_c, 0, 56, 0
2, 35328, Note_on_c, 0, 63, 75
2, 35390, Note_on_c, 0, 63, 0
2, 35392, Note_on_c, 0, 59, 75
2, 35454, Note_on_c, 0, 59, 0
2, 35456, Note_on_c, 0, 56, 75
2, 35518, Note_on_c, 0, 56, 0
2, 35520, Note_on_c, 0, 64, 75
2, 35582, Note_on_c, 0, 64, 0
2, 35584, Note_on_c, 0, 58, 75
2, 35646, Note_on_c, 0, 58, 0
2, 35648, Note_on_c, 0, 56, 75
2, 35710, Note_on_c, 0, 56, 0
2, 35712, Note_on_c, 0, 63, 75
2, 35774, Note_on_c, 0, 63, 0
2, 35776, Note_on_c, 0, 59, 75
2, 35838, Note_on_c, 0, 59, 0
2, 35840, Note_on_c, 0, 56, 75
2, 35902, Note_on_c, 0, 56, 0
2, 35904, Note_on_c, 0, 62, 75
2, 35966, Note_on_c, 0, 62, 0
2, 35968, Note_on_c, 0, 58, 75
2, 36030, Note_on_c, 0, 58, 0
2, 36032, Note_on_c, 0, 56, 75
2, 36094, Note_on_c, 0, 56, 0
2, 36096, Note_on_c, 0, 63, 75
2, 36158, Note_on_c, 0, 63, 0
2, 36160, Note_on_c, 0, 59, 75
2, 36222, Note_on_c, 0, 59, 0
2, 36224, Note_on_c, 0, 56, 75
2, 36286, Note_on_c, 0, 56, 0
2, 36288, Note_on_c, 0, 64, 75
2, 36350, Note_on_c, 0, 64, 0
2, 36352, Note_on_c, 0, 58, 75
2, 36414, Note_on_c, 0, 58, 0
2, 36416, Note_on_c, 0, 56, 75
2, 36478, Note_on_c, 0, 56, 0
2, 36480, Note_on_c, 0, 63, 75
2, 36542, Note_on_c, 0, 63, 0
2, 36544, Note_on_c, 0, 59, 75
2, 36606, Note_on_c, 0, 59, 0
2, 36608, Note_on_c, 0, 56, 75
2, 36670, Note_on_c, 0, 56, 0
2, 36672, Note_on_c, 0, 62, 75
2, 36734, Note_on_c, 0, 62, 0
2, 36736, Note_on_c, 0, 58, 75
2, 36798, Note_on_c, 0, 58, 0
2, 36800, Note_on_c, 0, 56, 75
2, 36862, Note_on_c, 0, 56, 0
2, 36864, Note_on_c, 0, 62, 75
2, 36926, Note_on_c, 0, 62, 0
2, 36928, Note_on_c, 0, 58, 75
2, 36990, Note_on_c, 0, 58, 0
2, 36992, Note_on_c, 0, 55, 75
2, 37054, Note_on_c, 0, 55, 0
2, 37056, Note_on_c, 0, 62, 75
2, 37118, Note_on_c, 0, 62, 0
2, 37120, Note_on_c, 0, 59, 75
2, 37182, Note_on_c, 0, 59, 0
2, 37184, Note_on_c, 0, 54, 75
2, 37246, Note_on_c, 0, 54, 0
2, 37248, Note_on_c, 0, 62, 75
2, 37310, Note_on_c, 0, 62, 0
2, 37312, Note_on_c, 0, 58, 75
2, 37374, Note_on_c, 0, 58, 0
2, 37376, Note_on_c, 0, 55, 75
2, 37438, Note_on_c, 0, 55, 0
2, 37440, Note_on_c, 0, 62, 75
2, 37502, Note_on_c, 0, 62, 0
2, 37504, Note_on_c, 0, 59, 75
2, 37566, Note_on_c, 0, 59, 0
2, 37568, Note_on_c, 0, 54, 75
2, 37630, Note_on_c, 0, 54, 0
2, 37632, Note_on_c, 0, 62, 75
2, 37694, Note_on_c, 0, 62, 0
2, 37696, Note_on_c, 0, 58, 75
2, 37758, Note_on_c, 0, 58, 0
2, 37760, Note_on_c, 0, 55, 75
2, 37822, Note_on_c, 0, 55, 0
2, 37824, Note_on_c, 0, 62, 75
2, 37886, Note_on_c, 0, 62, 0
2, 37888, Note_on_c, 0, 59, 75
2, 37950, Note_on_c, 0, 59, 0
2, 37952, Note_on_c, 0, 54, 75
2, 38014, Note_on_c, 0, 54, 0
2, 38016, Note_on_c, 0, 62, 75
2, 38078, Note_on_c, 0, 62, 0
2, 38080, Note_on_c, 0, 58, 75
2, 38142, Note_on_c, 0, 58, 0
2, 38144, Note_on_c, 0, 55, 75
2, 38206, Note_on_c, 0, 55, 0
2, 38208, Note_on_c, 0, 62, 75
2, 38270, Note_on_c, 0, 62, 0
2, 38272, Note_on_c, 0, 59, 75
2, 38334, Note_on_c, 0, 59, 0
2, 38336, Note_on_c, 0, 54, 75
2, 38398, Note_on_c, 0, 54, 0
2, 38400, Note_on_c, 0, 62, 75
2, 38462, Note_on_c, 0, 62, 0
2, 38464, Note_on_c, 0, 58, 75
2, 38526, Note_on_c, 0, 58, 0
2, 38528, Note_on_c, 0, 55, 75
2, 38590, Note_on_c, 0, 55, 0
2, 38592, Note_on_c, 0, 62, 75
2, 38654, Note_on_c, 0, 62, 0
2, 38656, Note_on_c, 0, 59, 75
2, 38718, Note_on_c, 0, 59, 0
2, 38720, Note_on_c, 0, 54, 75
2, 38782, Note_on_c, 0, 54, 0
2, 38784, Note_on_c, 0, 62, 75
2, 38846, Note_on_c, 0, 62, 0
2, 38848, Note_on_c, 0, 58, 75
2, 38910, Note_on_c, 0, 58, 0
2, 38912, Note_on_c, 0, 55, 75
2, 38974, Note_on_c, 0, 55, 0
2, 38976, Note_on_c, 0, 62, 75
2, 39038, Note_on_c, 0, 62, 0
2, 39040, Note_on_c, 0, 59, 75
2, 39102, Note_on_c, 0, 59, 0
2, 39104, Note_on_c, 0, 54, 75
2, 39166, Note_on_c, 0, 54, 0
2, 39168, Note_on_c, 0, 62, 75
2, 39230, Note_on_c, 0, 62, 0
2, 39232, Note_on_c, 0, 58, 75
2, 39294, Note_on_c, 0, 58, 0
2, 39296, Note_on_c, 0, 55, 75
2, 39358, Note_on_c, 0, 55, 0
2, 39360, Note_on_c, 0, 62, 75
2, 39422, Note_on_c, 0, 62, 0
2, 39424, Note_on_c, 0, 59, 75
2, 39486, Note_on_c, 0, 59, 0
2, 39488, Note_on_c, 0, 54, 75
2, 39550, Note_on_c, 0, 54, 0
2, 39552, Note_on_c, 0, 62, 75
2, 39614, Note_on_c, 0, 62, 0
2, 39616, Note_on_c, 0, 58, 75
2, 39678, Note_on_c, 0, 58, 0
2, 39680, Note_on_c, 0, 55, 75
2, 39742, Note_on_c, 0, 55, 0
2, 39744, Note_on_c, 0, 62, 75
2, 39806, Note_on_c, 0, 62, 0
2, 39808, Note_on_c, 0, 59, 75
2, 39870, Note_on_c, 0, 59, 0
2, 39872, Note_on_c, 0, 54, 75
2, 39934, Note_on_c, 0, 54, 0
2, 39936, Note_on_c, 0, 61, 75
2, 39998, Note_on_c, 0, 61, 0
2, 40000, Note_on_c, 0, 57, 75
2, 40062, Note_on_c, 0, 57, 0
2, 40064, Note_on_c, 0, 54, 75
2, 40126, Note_on_c, 0, 54, 0
2, 40128, Note_on_c, 0, 62, 75
2, 40190, Note_on_c, 0, 62, 0
2, 40192, Note_on_c, 0, 56, 75
2, 40254, Note_on_c, 0, 56, 0
2, 40256, Note_on_c, 0, 54, 75
2, 40318, Note_on_c, 0, 54, 0
2, 40320, Note_on_c, 0, 61, 75
2, 40382, Note_on_c, 0, 61, 0
2, 40384, Note_on_c, 0, 57, 75
2, 40446, Note_on_c, 0, 57, 0
2, 40448, Note_on_c, 0, 54, 75
2, 40510, Note_on_c, 0, 54, 0
2, 40512, Note_on_c, 0, 60, 75
2, 40574, Note_on_c, 0, 60, 0
2, 40576, Note_on_c, 0, 56, 75
2, 40638, Note_on_c, 0, 56, 0
2, 40640, Note_on_c, 0, 54, 75
2, 40702, Note_on_c, 0, 54, 0
2, 40704, Note_on_c, 0, 61, 75
2, 40766, Note_on_c, 0, 61, 0
2, 40768, Note_on_c, 0, 57, 75
2, 40830, Note_on_c, 0, 57, 0
2, 40832, Note_on_c, 0, 54, 75
2, 40894, Note_on_c, 0, 54, 0
2, 40896, Note_on_c, 0, 62, 75
2, 40958, Note_on_c, 0, 62, 0
2, 40960, Note_on_c, 0, 56, 75
2, 41022, Note_on_c, 0, 56, 0
2, 41024, Note_on_c, 0, 54, 75
2, 41086, Note_on_c, 0, 54, 0
2, 41088, Note_on_c, 0, 61, 75
2, 41150, Note_on_c, 0, 61, 0
2, 41152, Note_on_c, 0, 57, 75
2, 41214, Note_on_c, 0, 57, 0
2, 41216, Note_on_c, 0, 54, 75
2, 41278, Note_on_c, 0, 54, 0
2, 41280, Note_on_c, 0, 60, 75
2, 41342, Note_on_c, 0, 60, 0
2, 41344, Note_on_c, 0, 56, 75
2, 41406, Note_on_c, 0, 56, 0
2, 41408, Note_on_c, 0, 54, 75
2, 41470, Note_on_c, 0, 54, 0
2, 41472, Note_on_c, 0, 61, 75
2, 41534, Note_on_c, 0, 61, 0
2, 41536, Note_on_c, 0, 57, 75
2, 41598, Note_on_c, 0, 57, 0
2, 41600, Note_on_c, 0, 54, 75
2, 41662, Note_on_c, 0, 54, 0
2, 41664, Note_on_c, 0, 62, 75
2, 41726, Note_on_c, 0, 62, 0
2, 41728, Note_on_c, 0, 56, 75
2, 41790, Note_on_c, 0, 56, 0
2, 41792, Note_on_c, 0, 54, 75
2, 41854, Note_on_c, 0, 54, 0
2, 41856, Note_on_c, 0, 61, 75
2, 41918, Note_on_c, 0, 61, 0
2, 41920, Note_on_c, 0, 57, 75
2, 41982, Note_on_c, 0, 57, 0
2, 41984, Note_on_c, 0, 54, 75
2, 42046, Note_on_c, 0, 54, 0
2, 42048, Note_on_c, 0, 60, 75
2, 42110, Note_on_c, 0, 60, 0
2, 42112, Note_on_c, 0, 56, 75
2, 42174, Note_on_c, 0, 56, 0
2, 42176, Note_on_c, 0, 54, 75
2, 42238, Note_on_c, 0, 54, 0
2, 42240, Note_on_c, 0, 61, 75
2, 42302, Note_on_c, 0, 61, 0
2, 42304, Note_on_c, 0, 57, 75
2, 42366, Note_on_c, 0, 57, 0
2, 42368, Note_on_c, 0, 54, 75
2, 42430, Note_on_c, 0, 54, 0
2, 42432, Note_on_c, 0, 62, 75
2, 42494, Note_on_c, 0, 62, 0
2, 42496, Note_on_c, 0, 56, 75
2, 42558, Note_on_c, 0, 56, 0
2, 42560, Note_on_c, 0, 54, 75
2, 42622, Note_on_c, 0, 54, 0
2, 42624, Note_on_c, 0, 61, 75
2, 42686, Note_on_c, 0, 61, 0
2, 42688, Note_on_c, 0, 57, 75
2, 42750, Note_on_c, 0, 57, 0
2, 42752, Note_on_c, 0, 54, 75
2, 42814, Note_on_c, 0, 54, 0
2, 42816, Note_on_c, 0, 60, 75
2, 42878, Note_on_c, 0, 60, 0
2, 42880, Note_on_c, 0, 56, 75
2, 42942, Note_on_c, 0, 56, 0
2, 42944, Note_on_c, 0, 54, 75
2, 43006, Note_on_c, 0, 54, 0
2, 43008, Note_on_c, 0, 67, 75
2, 43070, Note_on_c, 0, 67, 0
2, 43072, Note_on_c, 0, 63, 75
2, 43134, Note_on_c, 0, 63, 0
2, 43136, Note_on_c, 0, 60, 75
2, 43198, Note_on_c, 0, 60, 0
2, 43200, Note_on_c, 0, 67, 75
2, 43262, Note_on_c, 0, 67, 0
2, 43264, Note_on_c, 0, 64, 75
2, 43326, Note_on_c, 0, 64, 0
2, 43328, Note_on_c, 0, 59, 75
2, 43390, Note_on_c, 0, 59, 0
2, 43392, Note_on_c, 0, 67, 75
2, 43454, Note_on_c, 0, 67, 0
2, 43456, Note_on_c, 0, 63, 75
2, 43518, Note_on_c, 0, 63, 0
2, 43520, Note_on_c, 0, 60, 75
2, 43582, Note_on_c, 0, 60, 0
2, 43584, Note_on_c, 0, 67, 75
2, 43646, Note_on_c, 0, 67, 0
2, 43648, Note_on_c, 0, 64, 75
2, 43710, Note_on_c, 0, 64, 0
2, 43712, Note_on_c, 0, 59, 75
2, 43774, Note_on_c, 0, 59, 0
2, 43776, Note_on_c, 0, 67, 75
2, 43838, Note_on_c, 0, 67, 0
2, 43840, Note_on_c, 0, 63, 75
2, 43902, Note_on_c, 0, 63, 0
2, 43904, Note_on_c, 0, 60, 75
2, 43966, Note_on_c, 0, 60, 0
2, 43968, Note_on_c, 0, 67, 75
2, 44030, Note_on_c, 0, 67, 0
2, 44032, Note_on_c, 0, 64, 75
2, 44094, Note_on_c, 0, 64, 0
2, 44096, Note_on_c, 0, 59, 75
2, 44158, Note_on_c, 0, 59, 0
2, 44160, Note_on_c, 0, 67, 75
2, 44222, Note_on_c, 0, 67, 0
2, 44224, Note_on_c, 0, 63, 75
2, 44286, Note_on_c, 0, 63, 0
2, 44288, Note_on_c, 0, 60, 75
2, 44350, Note_on_c, 0, 60, 0
2, 44352, Note_on_c, 0, 67, 75
2, 44414, Note_on_c, 0, 67, 0
2, 44416, Note_on_c, 0, 64, 75
2, 44478, Note_on_c, 0, 64, 0
2, 44480, Note_on_c, 0, 59, 75
2, 44542, Note_on_c, 0, 59, 0
2, 44544, Note_on_c, 0, 67, 75
2, 44606, Note_on_c, 0, 67, 0
2, 44608, Note_on_c, 0, 63, 75
2, 44670, Note_on_c, 0, 63, 0
2, 44672, Note_on_c, 0, 60, 75
2, 44734, Note_on_c, 0, 60, 0
2, 44736, Note_on_c, 0, 67, 75
2, 44798, Note_on_c, 0, 67, 0
2, 44800, Note_on_c, 0, 64, 75
2, 44862, Note_on_c, 0, 64, 0
2, 44864, Note_on_c, 0, 59, 75
2, 44926, Note_on_c, 0, 59, 0
2, 44928, Note_on_c, 0, 67, 75
2, 44990, Note_on_c, 0, 67, 0
2, 44992, Note_on_c, 0, 63, 75
2, 45054, Note_on_c, 0, 63, 0
2, 45056, Note_on_c, 0, 60, 75
2, 45118, Note_on_c, 0, 60, 0
2, 45120, Note_on_c, 0, 67, 75
2, 45182, Note_on_c, 0, 67, 0
2, 45184, Note_on_c, 0, 64, 75
2, 45246, Note_on_c, 0, 64, 0
2, 45248, Note_on_c, 0, 59, 75
2, 45310, Note_on_c, 0, 59, 0
2, 45312, Note_on_c, 0, 67, 75
2, 45374, Note_on_c, 0, 67, 0
2, 45376, Note_on_c, 0, 63, 75
2, 45438, Note_on_c, 0, 63, 0
2, 45440, Note_on_c, 0, 60, 75
2, 45502, Note_on_c, 0, 60, 0
2, 45504, Note_on_c, 0, 67, 75
2, 45566, Note_on_c, 0, 67, 0
2, 45568, Note_on_c, 0, 64, 75
2, 45630, Note_on_c, 0, 64, 0
2, 45632, Note_on_c, 0, 59, 75
2, 45694, Note_on_c, 0, 59, 0
2, 45696, Note_on_c, 0, 67, 75
2, 45758, Note_on_c, 0, 67, 0
2, 45760, Note_on_c, 0, 63, 75
2, 45822, Note_on_c, 0, 63, 0
2, 45824, Note_on_c, 0, 60, 75
2, 45886, Note_on_c, 0, 60, 0
2, 45888, Note_on_c, 0, 67, 75
2, 45950, Note_on_c, 0, 67, 0
2, 45952, Note_on_c, 0, 64, 75
2, 46014, Note_on_c, 0, 64, 0
2, 46016, Note_on_c, 0, 59, 75
2, 46078, Note_on_c, 0, 59, 0
2, 46080, Note_on_c, 0, 66, 75
2, 46142, Note_on_c, 0, 66, 0
2, 46144, Note_on_c, 0, 62, 75
2, 46206, Note_on_c, 0, 62, 0
2, 46208, Note_on_c, 0, 59, 75
2, 46270, Note_on_c, 0, 59, 0
2, 46272, Note_on_c, 0, 67, 75
2, 46334, Note_on_c, 0, 67, 0
2, 46336, Note_on_c, 0, 61, 75
2, 46398, Note_on_c, 0, 61, 0
2, 46400, Note_on_c, 0, 59, 75
2, 46462, Note_on_c, 0, 59, 0
2, 46464, Note_on_c, 0, 66, 75
2, 46526, Note_on_c, 0, 66, 0
2, 46528, Note_on_c, 0, 62, 75
2, 46590, Note_on_c, 0, 62, 0
2, 46592, Note_on_c, 0, 59, 75
2, 46654, Note_on_c, 0, 59, 0
2, 46656, Note_on_c, 0, 65, 75
2, 46718, Note_on_c, 0, 65, 0
2, 46720, Note_on_c, 0, 61, 75
2, 46782, Note_on_c, 0, 61, 0
2, 46784, Note_on_c, 0, 59, 75
2, 46846, Note_on_c, 0, 59, 0
2, 46848, Note_on_c, 0, 66, 75
2, 46910, Note_on_c, 0, 66, 0
2, 46912, Note_on_c, 0, 62, 75
2, 46974, Note_on_c, 0, 62, 0
2, 46976, Note_on_c, 0, 59, 75
2, 47038, Note_on_c, 0, 59, 0
2, 47040, Note_on_c, 0, 67, 75
2, 47102, Note_on_c, 0, 67, 0
2, 47104, Note_on_c, 0, 61, 75
2, 47166, Note_on_c, 0, 61, 0
2, 47168, Note_on_c, 0, 59, 75
2, 47230, Note_on_c, 0, 59, 0
2, 47232, Note_on_c, 0, 66, 75
2, 47294, Note_on_c, 0, 66, 0
2, 47296, Note_on_c, 0, 62, 75
2, 47358, Note_on_c, 0, 62, 0
2, 47360, Note_on_c, 0, 59, 75
2, 47422, Note_on_c, 0, 59, 0
2, 47424, Note_on_c, 0, 65, 75
2, 47486, Note_on_c, 0, 65, 0
2, 47488, Note_on_c, 0, 61, 75
2, 47550, Note_on_c, 0, 61, 0
2, 47552, Note_on_c, 0, 59, 75
2, 47614, Note_on_c, 0, 59, 0
2, 47616, Note_on_c, 0, 66, 75
2, 47678, Note_on_c, 0, 66, 0
2, 47680, Note_on_c, 0, 62, 75
2, 47742, Note_on_c, 0, 62, 0
2, 47744, Note_on_c, 0, 59, 75
2, 47806, Note_on_c, 0, 59, 0
2, 47808, Note_on_c, 0, 67, 75
2, 47870, Note_on_c, 0, 67, 0
2, 47872, Note_on_c, 0, 61, 75
2, 47934, Note_on_c, 0, 61, 0
2, 47936, Note_on_c, 0, 59, 75
2, 47998, Note_on_c, 0, 59, 0
2, 48000, Note_on_c, 0, 66, 75
2, 48062, Note_on_c, 0, 66, 0
2, 48064, Note_on_c, 0, 62, 75
2, 48126, Note_on_c, 0, 62, 0
2, 48128, Note_on_c, 0, 59, 75
2, 48190, Note_on_c, 0, 59, 0
2, 48192, Note_on_c, 0, 65, 75
2, 48254, Note_on_c, 0, 65, 0
2, 48256, Note_on_c, 0, 61, 75
2, 48318, Note_on_c, 0, 61, 0
2, 48320, Note_on_c, 0, 59, 75
2, 48382, Note_on_c, 0, 59, 0
2, 48384, Note_on_c, 0, 66, 75
2, 48446, Note_on_c, 0, 66, 0
2, 48448, Note_on_c, 0, 62, 75
2, 48510, Note_on_c, 0, 62, 0
2, 48512, Note_on_c, 0, 59, 75
2, 48574, Note_on_c, 0, 59, 0
2, 48576, Note_on_c, 0, 67, 75
2, 48638, Note_on_c, 0, 67, 0
2, 48640, Note_on_c, 0, 61, 75
2, 48702, Note_on_c, 0, 61, 0
2, 48704, Note_on_c, 0, 59, 75
2, 48766, Note_on_c, 0, 59, 0
2, 48768, Note_on_c, 0, 66, 75
2, 48830, Note_on_c, 0, 66, 0
2, 48832, Note_on_c, 0, 62, 75
2, 48894, Note_on_c, 0, 62, 0
2, 48896, Note_on_c, 0, 59, 75
2, 48958, Note_on_c, 0, 59, 0
2, 48960, Note_on_c, 0, 65, 75
2, 49022, Note_on_c, 0, 65, 0
2, 49024, Note_on_c, 0, 61, 75
2, 49086, Note_on_c, 0, 61, 0
2, 49088, Note_on_c, 0, 59, 75
2, 49150, Note_on_c, 0, 59, 0
2, 49152, Note_on_c, 0, 67, 75
2, 49214, Note_on_c, 0, 67, 0
2, 49216, Note_on_c, 0, 63, 75
2, 49278, Note_on_c, 0, 63, 0
2, 49280, Note_on_c, 0, 60, 75
2, 49342, Note_on_c, 0, 60, 0
2, 49344, Note_on_c, 0, 67, 75
2, 49406, Note_on_c, 0, 67, 0
2, 49408, Note_on_c, 0, 64, 75
2, 49470, Note_on_c, 0, 64, 0
2, 49472, Note_on_c, 0, 59, 75
2, 49534, Note_on_c, 0, 59, 0
2, 49536, Note_on_c, 0, 67, 75
2, 49598, Note_on_c, 0, 67, 0
2, 49600, Note_on_c, 0, 63, 75
2, 49662, Note_on_c, 0, 63, 0
2, 49664, Note_on_c, 0, 60, 75
2, 49726, Note_on_c, 0, 60, 0
2, 49728, Note_on_c, 0, 67, 75
2, 49790, Note_on_c, 0, 67, 0
2, 49792, Note_on_c, 0, 64, 75
2, 49854, Note_on_c, 0, 64, 0
2, 49856, Note_on_c, 0, 59, 75
2, 49918, Note_on_c, 0, 59, 0
2, 49920, Note_on_c, 0, 67, 75
2, 49982, Note_on_c, 0, 67, 0
2, 49984, Note_on_c, 0, 63, 75
2, 50046, Note_on_c, 0, 63, 0
2, 50048, Note_on_c, 0, 60, 75
2, 50110, Note_on_c, 0, 60, 0
2, 50112, Note_on_c, 0, 67, 75
2, 50174, Note_on_c, 0, 67, 0
2, 50176, Note_on_c, 0, 64, 75
2, 50238, Note_on_c, 0, 64, 0
2, 50240, Note_on_c, 0, 59, 75
2, 50302, Note_on_c, 0, 59, 0
2, 50304, Note_on_c, 0, 67, 75
2, 50366, Note_on_c, 0, 67, 0
2, 50368, Note_on_c, 0, 63, 75
2, 50430, Note_on_c, 0, 63, 0
2, 50432, Note_on_c, 0, 60, 75
2, 50494, Note_on_c, 0, 60, 0
2, 50496, Note_on_c, 0, 67, 75
2, 50558, Note_on_c, 0, 67, 0
2, 50560, Note_on_c, 0, 64, 75
2, 50622, Note_on_c, 0, 64, 0
2, 50624, Note_on_c, 0, 59, 75
2, 50686, Note_on_c, 0, 59, 0
2, 50688, Note_on_c, 0, 67, 75
2, 50750, Note_on_c, 0, 67, 0
2, 50752, Note_on_c, 0, 63, 75
2, 50814, Note_on_c, 0, 63, 0
2, 50816, Note_on_c, 0, 60, 75
2, 50878, Note_on_c, 0, 60, 0
2, 50880, Note_on_c, 0, 67, 75
2, 50942, Note_on_c, 0, 67, 0
2, 50944, Note_on_c, 0, 64, 75
2, 51006, Note_on_c, 0, 64, 0
2, 51008, Note_on_c, 0, 59, 75
2, 51070, Note_on_c, 0, 59, 0
2, 51072, Note_on_c, 0, 67, 75
2, 51134, Note_on_c, 0, 67, 0
2, 51136, Note_on_c, 0, 63, 75
2, 51198, Note_on_c, 0, 63, 0
2, 51200, Note_on_c, 0, 60, 75
2, 51262, Note_on_c, 0, 60, 0
2, 51264, Note_on_c, 0, 67, 75
2, 51326, Note_on_c, 0, 67, 0
2, 51328, Note_on_c, 0, 64, 75
2, 51390, Note_on_c, 0, 64, 0
2, 51392, Note_on_c, 0, 59, 75
2, 51454, Note_on_c, 0, 59, 0
2, 51456, Note_on_c, 0, 67, 75
2, 51518, Note_on_c, 0, 67, 0
2, 51520, Note_on_c, 0, 63, 75
2, 51582, Note_on_c, 0, 63, 0
2, 51584, Note_on_c, 0, 60, 75
2, 51646, Note_on_c, 0, 60, 0
2, 51648, Note_on_c, 0, 67, 75
2, 51710, Note_on_c, 0, 67, 0
2, 51712, Note_on_c, 0, 64, 75
2, 51774, Note_on_c, 0, 64, 0
2, 51776, Note_on_c, 0, 59, 75
2, 51838, Note_on_c, 0, 59, 0
2, 51840, Note_on_c, 0, 67, 75
2, 51902, Note_on_c, 0, 67, 0
2, 51904, Note_on_c, 0, 63, 75
2, 51966, Note_on_c, 0, 63, 0
2, 51968, Note_on_c, 0, 60, 75
2, 52030, Note_on_c, 0, 60, 0
2, 52032, Note_on_c, 0, 67, 75
2, 52094, Note_on_c, 0, 67, 0
2, 52096, Note_on_c, 0, 64, 75
2, 52158, Note_on_c, 0, 64, 0
2, 52160, Note_on_c, 0, 59, 75
2, 52222, Note_on_c, 0, 59, 0
2, 52224, Note_on_c, 0, 66, 75
2, 52286, Note_on_c, 0, 66, 0
2, 52288, Note_on_c, 0, 62, 75
2, 52350, Note_on_c, 0, 62, 0
2, 52352, Note_on_c, 0, 59, 75
2, 52414, Note_on_c, 0, 59, 0
2, 52416, Note_on_c, 0, 67, 75
2, 52478, Note_on_c, 0, 67, 0
2, 52480, Note_on_c, 0, 61, 75
2, 52542, Note_on_c, 0, 61, 0
2, 52544, Note_on_c, 0, 59, 75
2, 52606, Note_on_c, 0, 59, 0
2, 52608, Note_on_c, 0, 66, 75
2, 52670, Note_on_c, 0, 66, 0
2, 52672, Note_on_c, 0, 62, 75
2, 52734, Note_on_c, 0, 62, 0
2, 52736, Note_on_c, 0, 59, 75
2, 52798, Note_on_c, 0, 59, 0
2, 52800, Note_on_c, 0, 65, 75
2, 52862, Note_on_c, 0, 65, 0
2, 52864, Note_on_c, 0, 61, 75
2, 52926, Note_on_c, 0, 61, 0
2, 52928, Note_on_c, 0, 59, 75
2, 52990, Note_on_c, 0, 59, 0
2, 52992, Note_on_c, 0, 66, 75
2, 53054, Note_on_c, 0, 66, 0
2, 53056, Note_on_c, 0, 62, 75
2, 53118, Note_on_c, 0, 62, 0
2, 53120, Note_on_c, 0, 59, 75
2, 53182, Note_on_c, 0, 59, 0
2, 53184, Note_on_c, 0, 67, 75
2, 53246, Note_on_c, 0, 67, 0
2, 53248, Note_on_c, 0, 61, 75
2, 53310, Note_on_c, 0, 61, 0
2, 53312, Note_on_c, 0, 59, 75
2, 53374, Note_on_c, 0, 59, 0
2, 53376, Note_on_c, 0, 66, 75
2, 53438, Note_on_c, 0, 66, 0
2, 53440, Note_on_c, 0, 62, 75
2, 53502, Note_on_c, 0, 62, 0
2, 53504, Note_on_c, 0, 59, 75
2, 53566, Note_on_c, 0, 59, 0
2, 53568, Note_on_c, 0, 65, 75
2, 53630, Note_on_c, 0, 65, 0
2, 53632, Note_on_c, 0, 61, 75
2, 53694, Note_on_c, 0, 61, 0
2, 53696, Note_on_c, 0, 59, 75
2, 53758, Note_on_c, 0, 59, 0
2, 53760, Note_on_c, 0, 66, 75
2, 53822, Note_on_c, 0, 66, 0
2, 53824, Note_on_c, 0, 62, 75
2, 53886, Note_on_c, 0, 62, 0
2, 53888, Note_on_c, 0, 59, 75
2, 53950, Note_on_c, 0, 59, 0
2, 53952, Note_on_c, 0, 67, 75
2, 54014, Note_on_c, 0, 67, 0
2, 54016, Note_on_c, 0, 61, 75
2, 54078, Note_on_c, 0, 61, 0
2, 54080, Note_on_c, 0, 59, 75
2, 54142, Note_on_c, 0, 59, 0
2, 54144, Note_on_c, 0, 66, 75
2, 54206, Note_on_c, 0, 66, 0
2, 54208, Note_on_c, 0, 62, 75
2, 54270, Note_on_c, 0, 62, 0
2, 54272, Note_on_c, 0, 59, 75
2, 54334, Note_on_c, 0, 59, 0
2, 54336, Note_on_c, 0, 65, 75
2, 54398, Note_on_c, 0, 65, 0
2, 54400, Note_on_c, 0, 61, 75
2, 54462, Note_on_c, 0, 61, 0
2, 54464, Note_on_c, 0, 59, 75
2, 54526, Note_on_c, 0, 59, 0
2, 54528, Note_on_c, 0, 66, 75
2, 54590, Note_on_c, 0, 66, 0
2, 54592, Note_on_c, 0, 62, 75
2, 54654, Note_on_c, 0, 62, 0
2, 54656, Note_on_c, 0, 59, 75
2, 54718, Note_on_c, 0, 59, 0
2, 54720, Note_on_c, 0, 67, 75
2, 54782, Note_on_c, 0, 67, 0
2, 54784, Note_on_c, 0, 61, 75
2, 54846, Note_on_c, 0, 61, 0
2, 54848, Note_on_c, 0, 59, 75
2, 54910, Note_on_c, 0, 59, 0
2, 54912, Note_on_c, 0, 66, 75
2, 54974, Note_on_c, 0, 66, 0
2, 54976, Note_on_c, 0, 62, 75
2, 55038, Note_on_c, 0, 62, 0
2, 55040, Note_on_c, 0, 59, 75
2, 55102, Note_on_c, 0, 59, 0
2, 55104, Note_on_c, 0, 65, 75
2, 55166, Note_on_c, 0, 65, 0
2, 55168, Note_on_c, 0, 61, 75
2, 55230, Note_on_c, 0, 61, 0
2, 55232, Note_on_c, 0, 59, 75
2, 55294, Note_on_c, 0, 59, 0
2, 55296, Note_on_c, 0, 67, 75
2, 55358, Note_on_c, 0, 67, 0
2, 55360, Note_on_c, 0, 63, 75
2, 55422, Note_on_c, 0, 63, 0
2, 55424, Note_on_c, 0, 60, 75
2, 55486, Note_on_c, 0, 60, 0
2, 55488, Note_on_c, 0, 67, 75
2, 55550, Note_on_c, 0, 67, 0
2, 55552, Note_on_c, 0, 64, 75
2, 55614, Note_on_c, 0, 64, 0
2, 55616, Note_on_c, 0, 59, 75
2, 55678, Note_on_c, 0, 59, 0
2, 55680, Note_on_c, 0, 67, 75
2, 55742, Note_on_c, 0, 67, 0
2, 55744, Note_on_c, 0, 63, 75
2, 55806, Note_on_c, 0, 63, 0
2, 55808, Note_on_c, 0, 60, 75
2, 55870, Note_on_c, 0, 60, 0
2, 55872, Note_on_c, 0, 67, 75
2, 55934, Note_on_c, 0, 67, 0
2, 55936, Note_on_c, 0, 64, 75
2, 55998, Note_on_c, 0, 64, 0
2, 56000, Note_on_c, 0, 59, 75
2, 56062, Note_on_c, 0, 59, 0
2, 56064, Note_on_c, 0, 67, 75
2, 56126, Note_on_c, 0, 67, 0
2, 56128, Note_on_c, 0, 63, 75
2, 56190, Note_on_c, 0, 63, 0
2, 56192, Note_on_c, 0, 60, 75
2, 56254, Note_on_c, 0, 60, 0
2, 56256, Note_on_c, 0, 67, 75
2, 56318, Note_on_c, 0, 67, 0
2, 56320, Note_on_c, 0, 64, 75
2, 56382, Note_on_c, 0, 64, 0
2, 56384, Note_on_c, 0, 59, 75
2, 56446, Note_on_c, 0, 59, 0
2, 56448, Note_on_c, 0, 67, 75
2, 56510, Note_on_c, 0, 67, 0
2, 56512, Note_on_c, 0, 63, 75
2, 56574, Note_on_c, 0, 63, 0
2, 56576, Note_on_c, 0, 60, 75
2, 56638, Note_on_c, 0, 60, 0
2, 56640, Note_on_c, 0, 67, 75
2, 56702, Note_on_c, 0, 67, 0
2, 56704, Note_on_c, 0, 64, 75
2, 56766, Note_on_c, 0, 64, 0
2, 56768, Note_on_c, 0, 59, 75
2, 56830, Note_on_c, 0, 59, 0
2, 56832, Note_on_c, 0, 67, 75
2, 56894, Note_on_c, 0, 67, 0
2, 56896, Note_on_c, 0, 63, 75
2, 56958, Note_on_c, 0, 63, 0
2, 56960, Note_on_c, 0, 60, 75
2, 57022, Note_on_c, 0, 60, 0
2, 57024, Note_on_c, 0, 67, 75
2, 57086, Note_on_c, 0, 67, 0
2, 57088, Note_on_c, 0, 64, 75
2, 57150, Note_on_c, 0, 64, 0
2, 57152, Note_on_c, 0, 59, 75
2, 57214, Note_on_c, 0, 59, 0
2, 57216, Note_on_c, 0, 67, 75
2, 57278, Note_on_c, 0, 67, 0
2, 57280, Note_on_c, 0, 63, 75
2, 57342, Note_on_c, 0, 63, 0
2, 57344, Note_on_c, 0, 60, 75
2, 57406, Note_on_c, 0, 60, 0
2, 57408, Note_on_c, 0, 67, 75
2, 57470, Note_on_c, 0, 67, 0
2, 57472, Note_on_c, 0, 64, 75
2, 57534, Note_on_c, 0, 64, 0
2, 57536, Note_on_c, 0, 59, 75
2, 57598, Note_on_c, 0, 59, 0
2, 57600, Note_on_c, 0, 67, 75
2, 57662, Note_on_c, 0, 67, 0
2, 57664, Note_on_c, 0, 63, 75
2, 57726, Note_on_c, 0, 63, 0
2, 57728, Note_on_c, 0, 60, 75
2, 57790, Note_on_c, 0, 60, 0
2, 57792, Note_on_c, 0, 67, 75
2, 57854, Note_on_c, 0, 67, 0
2, 57856, Note_on_c, 0, 64, 75
2, 57918, Note_on_c, 0, 64, 0
2, 57920, Note_on_c, 0, 59, 75
2, 57982, Note_on_c, 0, 59, 0
2, 57984, Note_on_c, 0, 67, 75
2, 58046, Note_on_c, 0, 67, 0
2, 58048, Note_on_c, 0, 63, 75
2, 58110, Note_on_c, 0, 63, 0
2, 58112, Note_on_c, 0, 60, 75
2, 58174, Note_on_c, 0, 60, 0
2, 58176, Note_on_c, 0, 67, 75
2, 58238, Note_on_c, 0, 67, 0
2, 58240, Note_on_c, 0, 64, 75
2, 58302, Note_on_c, 0, 64, 0
2, 58304, Note_on_c, 0, 59, 75
2, 58366, Note_on_c, 0, 59, 0
2, 58368, Note_on_c, 0, 66, 75
2, 58430, Note_on_c, 0, 66, 0
2, 58432, Note_on_c, 0, 62, 75
2, 58494, Note_on_c, 0, 62, 0
2, 58496, Note_on_c, 0, 59, 75
2, 58558, Note_on_c, 0, 59, 0
2, 58560, Note_on_c, 0, 67, 75
2, 58622, Note_on_c, 0, 67, 0
2, 58624, Note_on_c, 0, 61, 75
2, 58686, Note_on_c, 0, 61, 0
2, 58688, Note_on_c, 0, 59, 75
2, 58750, Note_on_c, 0, 59, 0
2, 58752, Note_on_c, 0, 66, 75
2, 58814, Note_on_c, 0, 66, 0
2, 58816, Note_on_c, 0, 62, 75
2, 58878, Note_on_c, 0, 62, 0
2, 58880, Note_on_c, 0, 59, 75
2, 58942, Note_on_c, 0, 59, 0
2, 58944, Note_on_c, 0, 65, 75
2, 59006, Note_on_c, 0, 65, 0
2, 59008, Note_on_c, 0, 61, 75
2, 59070, Note_on_c, 0, 61, 0
2, 59072, Note_on_c, 0, 59, 75
2, 59134, Note_on_c, 0, 59, 0
2, 59136, Note_on_c, 0, 66, 75
2, 59198, Note_on_c, 0, 66, 0
2, 59200, Note_on_c, 0, 62, 75
2, 59262, Note_on_c, 0, 62, 0
2, 59264, Note_on_c, 0, 59, 75
2, 59326, Note_on_c, 0, 59, 0
2, 59328, Note_on_c, 0, 67, 75
2, 59390, Note_on_c, 0, 67, 0
2, 59392, Note_on_c, 0, 61, 75
2, 59454, Note_on_c, 0, 61, 0
2, 59456, Note_on_c, 0, 59, 75
2, 59518, Note_on_c, 0, 59, 0
2, 59520, Note_on_c, 0, 66, 75
2, 59582, Note_on_c, 0, 66, 0
2, 59584, Note_on_c, 0, 62, 75
2, 59646, Note_on_c, 0, 62, 0
2, 59648, Note_on_c, 0, 59, 75
2, 59710, Note_on_c, 0, 59, 0
2, 59712, Note_on_c, 0, 65, 75
2, 59774, Note_on_c, 0, 65, 0
2, 59776, Note_on_c, 0, 61, 75
2, 59838, Note_on_c, 0, 61, 0
2, 59840, Note_on_c, 0, 59, 75
2, 59902, Note_on_c, 0, 59, 0
2, 59904, Note_on_c, 0, 66, 75
2, 59966, Note_on_c, 0, 66, 0
2, 59968, Note_on_c, 0, 62, 75
2, 60030, Note_on_c, 0, 62, 0
2, 60032, Note_on_c, 0, 59, 75
2, 60094, Note_on_c, 0, 59, 0
2, 60096, Note_on_c, 0, 67, 75
2, 60158, Note_on_c, 0, 67, 0
2, 60160, Note_on_c, 0, 61, 75
2, 60222, Note_on_c, 0, 61, 0
2, 60224, Note_on_c, 0, 59, 75
2, 60286, Note_on_c, 0, 59, 0
2, 60288, Note_on_c, 0, 66, 75
2, 60350, Note_on_c, 0, 66, 0
2, 60352, Note_on_c, 0, 62, 75
2, 60414, Note_on_c, 0, 62, 0
2, 60416, Note_on_c, 0, 59, 75
2, 60478, Note_on_c, 0, 59, 0
2, 60480, Note_on_c, 0, 65, 75
2, 60542, Note_on_c, 0, 65, 0
2, 60544, Note_on_c, 0, 61, 75
2, 60606, Note_on_c, 0, 61, 0
2, 60608, Note_on_c, 0, 59, 75
2, 60670, Note_on_c, 0, 59, 0
2, 60672, Note_on_c, 0, 66, 75
2, 60734, Note_on_c, 0, 66, 0
2, 60736, Note_on_c, 0, 62, 75
2, 60798, Note_on_c, 0, 62, 0
2, 60800, Note_on_c, 0, 59, 75
2, 60862, Note_on_c, 0, 59, 0
2, 60864, Note_on_c, 0, 67, 75
2, 60926, Note_on_c, 0, 67, 0
2, 60928, Note_on_c, 0, 61, 75
2, 60990, Note_on_c, 0, 61, 0
2, 60992, Note_on_c, 0, 59, 75
2, 61054, Note_on_c, 0, 59, 0
2, 61056, Note_on_c, 0, 66, 75
2, 61118, Note_on_c, 0, 66, 0
2, 61120, Note_on_c, 0, 62, 75
2, 61182, Note_on_c, 0, 62, 0
2, 61184, Note_on_c, 0, 59, 75
2, 61246, Note_on_c, 0, 59, 0
2, 61248, Note_on_c, 0, 65, 75
2, 61310, Note_on_c, 0, 65, 0
2, 61312, Note_on_c, 0, 61, 75
2, 61374, Note_on_c, 0, 61, 0
2, 61376, Note_on_c, 0, 59, 75
2, 61438, Note_on_c, 0, 59, 0
2, 61440, Note_on_c, 0, 67, 75
2, 61502, Note_on_c, 0, 67, 0
2, 61504, Note_on_c, 0, 63, 75
2, 61566, Note_on_c, 0, 63, 0
2, 61568, Note_on_c, 0, 60, 75
2, 61630, Note_on_c, 0, 60, 0
2, 61632, Note_on_c, 0, 67, 75
2, 61694, Note_on_c, 0, 67, 0
2, 61696, Note_on_c, 0, 64, 75
2, 61758, Note_on_c, 0, 64, 0
2, 61760, Note_on_c, 0, 59, 75
2, 61822, Note_on_c, 0, 59, 0
2, 61824, Note_on_c, 0, 67, 75
2, 61886, Note_on_c, 0, 67, 0
2, 61888, Note_on_c, 0, 63, 75
2, 61950, Note_on_c, 0, 63, 0
2, 61952, Note_on_c, 0, 60, 75
2, 62014, Note_on_c, 0, 60, 0
2, 62016, Note_on_c, 0, 67, 75
2, 62078, Note_on_c, 0, 67, 0
2, 62080, Note_on_c, 0, 64, 75
2, 62142, Note_on_c, 0, 64, 0
2, 62144, Note_on_c, 0, 59, 75
2, 62206, Note_on_c, 0, 59, 0
2, 62208, Note_on_c, 0, 67, 75
2, 62270, Note_on_c, 0, 67, 0
2, 62272, Note_on_c, 0, 63, 75
2, 62334, Note_on_c, 0, 63, 0
2, 62336, Note_on_c, 0, 60, 75
2, 62398, Note_on_c, 0, 60, 0
2, 62400, Note_on_c, 0, 67, 75
2, 62462, Note_on_c, 0, 67, 0
2, 62464, Note_on_c, 0, 64, 75
2, 62526, Note_on_c, 0, 64, 0
2, 62528, Note_on_c, 0, 59, 75
2, 62590, Note_on_c, 0, 59, 0
2, 62592, Note_on_c, 0, 67, 75
2, 62654, Note_on_c, 0, 67, 0
2, 62656, Note_on_c, 0, 63, 75
2, 62718, Note_on_c, 0, 63, 0
2, 62720, Note_on_c, 0, 60, 75
2, 62782, Note_on_c, 0, 60, 0
2, 62784, Note_on_c, 0, 67, 75
2, 62846, Note_on_c, 0, 67, 0
2, 62848, Note_on_c, 0, 64, 75
2, 62910, Note_on_c, 0, 64, 0
2, 62912, Note_on_c, 0, 59, 75
2, 62974, Note_on_c, 0, 59, 0
2, 62976, Note_on_c, 0, 67, 75
2, 63038, Note_on_c, 0, 67, 0
2, 63040, Note_on_c, 0, 63, 75
2, 63102, Note_on_c, 0, 63, 0
2, 63104, Note_on_c, 0, 60, 75
2, 63166, Note_on_c, 0, 60, 0
2, 63168, Note_on_c, 0, 67, 75
2, 63230, Note_on_c, 0, 67, 0
2, 63232, Note_on_c, 0, 64, 75
2, 63294, Note_on_c, 0, 64, 0
2, 63296, Note_on_c, 0, 59, 75
2, 63358, Note_on_c, 0, 59, 0
2, 63360, Note_on_c, 0, 67, 75
2, 63422, Note_on_c, 0, 67, 0
2, 63424, Note_on_c, 0, 63, 75
2, 63486, Note_on_c, 0, 63, 0
2, 63488, Note_on_c, 0, 60, 75
2, 63550, Note_on_c, 0, 60, 0
2, 63552, Note_on_c, 0, 67, 75
2, 63614, Note_on_c, 0, 67, 0
2, 63616, Note_on_c, 0, 64, 75
2, 63678, Note_on_c, 0, 64, 0
2, 63680, Note_on_c, 0, 59, 75
2, 63742, Note_on_c, 0, 59, 0
2, 63744, Note_on_c, 0, 67, 75
2, 63806, Note_on_c, 0, 67, 0
2, 63808, Note_on_c, 0, 63, 75
2, 63870, Note_on_c, 0, 63, 0
2, 63872, Note_on_c, 0, 60, 75
2, 63934, Note_on_c, 0, 60, 0
2, 63936, Note_on_c, 0, 67, 75
2, 63998, Note_on_c, 0, 67, 0
2, 64000, Note_on_c, 0, 64, 75
2, 64062, Note_on_c, 0, 64, 0
2, 64064, Note_on_c, 0, 59, 75
2, 64126, Note_on_c, 0, 59, 0
2, 64128, Note_on_c, 0, 67, 75
2, 64190, Note_on_c, 0, 67, 0
2, 64192, Note_on_c, 0, 63, 75
2, 64254, Note_on_c, 0, 63, 0
2, 64256, Note_on_c, 0, 60, 75
2, 64318, Note_on_c, 0, 60, 0
2, 64320, Note_on_c, 0, 67, 75
2, 64382, Note_on_c, 0, 67, 0
2, 64384, Note_on_c, 0, 64, 75
2, 64446, Note_on_c, 0, 64, 0
2, 64448, Note_on_c, 0, 59, 75
2, 64510, Note_on_c, 0, 59, 0
2, 64512, Note_on_c, 0, 66, 75
2, 64574, Note_on_c, 0, 66, 0
2, 64576, Note_on_c, 0, 62, 75
2, 64638, Note_on_c, 0, 62, 0
2, 64640, Note_on_c, 0, 59, 75
2, 64702, Note_on_c, 0, 59, 0
2, 64704, Note_on_c, 0, 67, 75
2, 64766, Note_on_c, 0, 67, 0
2, 64768, Note_on_c, 0, 61, 75
2, 64830, Note_on_c, 0, 61, 0
2, 64832, Note_on_c, 0, 59, 75
2, 64894, Note_on_c, 0, 59, 0
2, 64896, Note_on_c, 0, 66, 75
2, 64958, Note_on_c, 0, 66, 0
2, 64960, Note_on_c, 0, 62, 75
2, 65022, Note_on_c, 0, 62, 0
2, 65024, Note_on_c, 0, 59, 75
2, 65086, Note_on_c, 0, 59, 0
2, 65088, Note_on_c, 0, 65, 75
2, 65150, Note_on_c, 0, 65, 0
2, 65152, Note_on_c, 0, 61, 75
2, 65214, Note_on_c, 0, 61, 0
2, 65216, Note_on_c, 0, 59, 75
2, 65278, Note_on_c, 0, 59, 0
2, 65280, Note_on_c, 0, 66, 75
2, 65342, Note_on_c, 0, 66, 0
2, 65344, Note_on_c, 0, 62, 75
2, 65406, Note_on_c, 0, 62, 0
2, 65408, Note_on_c, 0, 59, 75
2, 65470, Note_on_c, 0, 59, 0
2, 65472, Note_on_c, 0, 67, 75
2, 65534, Note_on_c, 0, 67, 0
2, 65536, Note_on_c, 0, 61, 75
2, 65598, Note_on_c, 0, 61, 0
2, 65600, Note_on_c, 0, 59, 75
2, 65662, Note_on_c, 0, 59, 0
2, 65664, Note_on_c, 0, 66, 75
2, 65726, Note_on_c, 0, 66, 0
2, 65728, Note_on_c, 0, 62, 75
2, 65790, Note_on_c, 0, 62, 0
2, 65792, Note_on_c, 0, 59, 75
2, 65854, Note_on_c, 0, 59, 0
2, 65856, Note_on_c, 0, 65, 75
2, 65918, Note_on_c, 0, 65, 0
2, 65920, Note_on_c, 0, 61, 75
2, 65982, Note_on_c, 0, 61, 0
2, 65984, Note_on_c, 0, 59, 75
2, 66046, Note_on_c, 0, 59, 0
2, 66048, Note_on_c, 0, 66, 75
2, 66110, Note_on_c, 0, 66, 0
2, 66112, Note_on_c, 0, 62, 75
2, 66174, Note_on_c, 0, 62, 0
2, 66176, Note_on_c, 0, 59, 75
2, 66238, Note_on_c, 0, 59, 0
2, 66240, Note_on_c, 0, 67, 75
2, 66302, Note_on_c, 0, 67, 0
2, 66304, Note_on_c, 0, 61, 75
2, 66366, Note_on_c, 0, 61, 0
2, 66368, Note_on_c, 0, 59, 75
2, 66430, Note_on_c, 0, 59, 0
2, 66432, Note_on_c, 0, 66, 75
2, 66494, Note_on_c, 0, 66, 0
2, 66496, Note_on_c, 0, 62, 75
2, 66558, Note_on_c, 0, 62, 0
2, 66560, Note_on_c, 0, 59, 75
2, 66622, Note_on_c, 0, 59, 0
2, 66624, Note_on_c, 0, 65, 75
2, 66686, Note_on_c, 0, 65, 0
2, 66688, Note_on_c, 0, 61, 75
2, 66750, Note_on_c, 0, 61, 0
2, 66752, Note_on_c, 0, 59, 75
2, 66814, Note_on_c, 0, 59, 0
2, 66816, Note_on_c, 0, 66, 75
2, 66878, Note_on_c, 0, 66, 0
2, 66880, Note_on_c, 0, 62, 75
2, 66942, Note_on_c, 0, 62, 0
2, 66944, Note_on_c, 0, 59, 75
2, 67006, Note_on_c, 0, 59, 0
2, 67008, Note_on_c, 0, 67, 75
2, 67070, Note_on_c, 0, 67, 0
2, 67072, Note_on_c, 0, 61, 75
2, 67134, Note_on_c, 0, 61, 0
2, 67136, Note_on_c, 0, 59, 75
2, 67198, Note_on_c, 0, 59, 0
2, 67200, Note_on_c, 0, 66, 75
2, 67262, Note_on_c, 0, 66, 0
2, 67264, Note_on_c, 0, 62, 75
2, 67326, Note_on_c, 0, 62, 0
2, 67328, Note_on_c, 0, 59, 75
2, 67390, Note_on_c, 0, 59, 0
2, 67392, Note_on_c, 0, 65, 75
2, 67454, Note_on_c, 0, 65, 0
2, 67456, Note_on_c, 0, 61, 75
2, 67518, Note_on_c, 0, 61, 0
2, 67520, Note_on_c, 0, 59, 75
2, 67582, Note_on_c, 0, 59, 0
2, 67584, Note_on_c, 0, 64, 75
2, 67646, Note_on_c, 0, 64, 0
2, 67648, Note_on_c, 0, 60, 75
2, 67710, Note_on_c, 0, 60, 0
2, 67712, Note_on_c, 0, 57, 75
2, 67774, Note_on_c, 0, 57, 0
2, 67776, Note_on_c, 0, 64, 75
2, 67838, Note_on_c, 0, 64, 0
2, 67840, Note_on_c, 0, 61, 75
2, 67902, Note_on_c, 0, 61, 0
2, 67904, Note_on_c, 0, 56, 75
2, 67966, Note_on_c, 0, 56, 0
2, 67968, Note_on_c, 0, 64, 75
2, 68030, Note_on_c, 0, 64, 0
2, 68032, Note_on_c, 0, 60, 75
2, 68094, Note_on_c, 0, 60, 0
2, 68096, Note_on_c, 0, 57, 75
2, 68158, Note_on_c, 0, 57, 0
2, 68160, Note_on_c, 0, 64, 75
2, 68222, Note_on_c, 0, 64, 0
2, 68224, Note_on_c, 0, 61, 75
2, 68286, Note_on_c, 0, 61, 0
2, 68288, Note_on_c, 0, 56, 75
2, 68350, Note_on_c, 0, 56, 0
2, 68352, Note_on_c, 0, 64, 75
2, 68414, Note_on_c, 0, 64, 0
2, 68416, Note_on_c, 0, 60, 75
2, 68478, Note_on_c, 0, 60, 0
2, 68480, Note_on_c, 0, 57, 75
2, 68542, Note_on_c, 0, 57, 0
2, 68544, Note_on_c, 0, 64, 75
2, 68606, Note_on_c, 0, 64, 0
2, 68608, Note_on_c, 0, 61, 75
2, 68670, Note_on_c, 0, 61, 0
2, 68672, Note_on_c, 0, 56, 75
2, 68734, Note_on_c, 0, 56, 0
2, 68736, Note_on_c, 0, 64, 75
2, 68798, Note_on_c, 0, 64, 0
2, 68800, Note_on_c, 0, 60, 75
2, 68862, Note_on_c, 0, 60, 0
2, 68864, Note_on_c, 0, 57, 75
2, 68926, Note_on_c, 0, 57, 0
2, 68928, Note_on_c, 0, 64, 75
2, 68990, Note_on_c, 0, 64, 0
2, 68992, Note_on_c, 0, 61, 75
2, 69054, Note_on_c, 0, 61, 0
2, 69056, Note_on_c, 0, 56, 75
2, 69118, Note_on_c, 0, 56, 0
2, 69120, Note_on_c, 0, 64, 75
2, 69182, Note_on_c, 0, 64, 0
2, 69184, Note_on_c, 0, 60, 75
2, 69246, Note_on_c, 0, 60, 0
2, 69248, Note_on_c, 0, 57, 75
2, 69310, Note_on_c, 0, 57, 0
2, 69312, Note_on_c, 0, 64, 75
2, 69374, Note_on_c, 0, 64, 0
2, 69376, Note_on_c, 0, 61, 75
2, 69438, Note_on_c, 0, 61, 0
2, 69440, Note_on_c, 0, 56, 75
2, 69502, Note_on_c, 0, 56, 0
2, 69504, Note_on_c, 0, 64, 75
2, 69566, Note_on_c, 0, 64, 0
2, 69568, Note_on_c, 0, 60, 75
2, 69630, Note_on_c, 0, 60, 0
2, 69632, Note_on_c, 0, 57, 75
2, 69694, Note_on_c, 0, 57, 0
2, 69696, Note_on_c, 0, 64, 75
2, 69758, Note_on_c, 0, 64, 0
2, 69760, Note_on_c, 0, 61, 75
2, 69822, Note_on_c, 0, 61, 0
2, 69824, Note_on_c, 0, 56, 75
2, 69886, Note_on_c, 0, 56, 0
2, 69888, Note_on_c, 0, 64, 75
2, 69950, Note_on_c, 0, 64, 0
2, 69952, Note_on_c, 0, 60, 75
2, 70014, Note_on_c, 0, 60, 0
2, 70016, Note_on_c, 0, 57, 75
2, 70078, Note_on_c, 0, 57, 0
2, 70080, Note_on_c, 0, 64, 75
2, 70142, Note_on_c, 0, 64, 0
2, 70144, Note_on_c, 0, 61, 75
2, 70206, Note_on_c, 0, 61, 0
2, 70208, Note_on_c, 0, 56, 75
2, 70270, Note_on_c, 0, 56, 0
2, 70272, Note_on_c, 0, 64, 75
2, 70334, Note_on_c, 0, 64, 0
2, 70336, Note_on_c, 0, 60, 75
2, 70398, Note_on_c, 0, 60, 0
2, 70400, Note_on_c, 0, 57, 75
2, 70462, Note_on_c, 0, 57, 0
2, 70464, Note_on_c, 0, 64, 75
2, 70526, Note_on_c, 0, 64, 0
2, 70528, Note_on_c, 0, 61, 75
2, 70590, Note_on_c, 0, 61, 0
2, 70592, Note_on_c, 0, 56, 75
2, 70654, Note_on_c, 0, 56, 0
2, 70656, Note_on_c, 0, 63, 75
2, 70718, Note_on_c, 0, 63, 0
2, 70720, Note_on_c, 0, 59, 75
2, 70782, Note_on_c, 0, 59, 0
2, 70784, Note_on_c, 0, 56, 75
2, 70846, Note_on_c, 0, 56, 0
2, 70848, Note_on_c, 0, 64, 75
2, 70910, Note_on_c, 0, 64, 0
2, 70912, Note_on_c, 0, 58, 75
2, 70974, Note_on_c, 0, 58, 0
2, 70976, Note_on_c, 0, 56, 75
2, 71038, Note_on_c, 0, 56, 0
2, 71040, Note_on_c, 0, 63, 75
2, 71102, Note_on_c, 0, 63, 0
2, 71104, Note_on_c, 0, 59, 75
2, 71166, Note_on_c, 0, 59, 0
2, 71168, Note_on_c, 0, 56, 75
2, 71230, Note_on_c, 0, 56, 0
2, 71232, Note_on_c, 0, 62, 75
2, 71294, Note_on_c, 0, 62, 0
2, 71296, Note_on_c, 0, 58, 75
2, 71358, Note_on_c, 0, 58, 0
2, 71360, Note_on_c, 0, 56, 75
2, 71422, Note_on_c, 0, 56, 0
2, 71424, Note_on_c, 0, 63, 75
2, 71486, Note_on_c, 0, 63, 0
2, 71488, Note_on_c, 0, 59, 75
2, 71550, Note_on_c, 0, 59, 0
2, 71552, Note_on_c, 0, 56, 75
2, 71614, Note_on_c, 0, 56, 0
2, 71616, Note_on_c, 0, 64, 75
2, 71678, Note_on_c, 0, 64, 0
2, 71680, Note_on_c, 0, 58, 75
2, 71742, Note_on_c, 0, 58, 0
2, 71744, Note_on_c, 0, 56, 75
2, 71806, Note_on_c, 0, 56, 0
2, 71808, Note_on_c, 0, 63, 75
2, 71870, Note_on_c, 0, 63, 0
2, 71872, Note_on_c, 0, 59, 75
2, 71934, Note_on_c, 0, 59, 0
2, 71936, Note_on_c, 0, 56, 75
2, 71998, Note_on_c, 0, 56, 0
2, 72000, Note_on_c, 0, 62, 75
2, 72062, Note_on_c, 0, 62, 0
2, 72064, Note_on_c, 0, 58, 75
2, 72126, Note_on_c, 0, 58, 0
2, 72128, Note_on_c, 0, 56, 75
2, 72190, Note_on_c, 0, 56, 0
2, 72192, Note_on_c, 0, 63, 75
2, 72254, Note_on_c, 0, 63, 0
2, 72256, Note_on_c, 0, 59, 75
2, 72318, Note_on_c, 0, 59, 0
2, 72320, Note_on_c, 0, 56, 75
2, 72382, Note_on_c, 0, 56, 0
2, 72384, Note_on_c, 0, 64, 75
2, 72446, Note_on_c, 0, 64, 0
2, 72448, Note_on_c, 0, 58, 75
2, 72510, Note_on_c, 0, 58, 0
2, 72512, Note_on_c, 0, 56, 75
2, 72574, Note_on_c, 0, 56, 0
2, 72576, Note_on_c, 0, 63, 75
2, 72638, Note_on_c, 0, 63, 0
2, 72640, Note_on_c, 0, 59, 75
2, 72702, Note_on_c, 0, 59, 0
2, 72704, Note_on_c, 0, 56, 75
2, 72766, Note_on_c, 0, 56, 0
2, 72768, Note_on_c, 0, 62, 75
2, 72830, Note_on_c, 0, 62, 0
2, 72832, Note_on_c, 0, 58, 75
2, 72894, Note_on_c, 0, 58, 0
2, 72896, Note_on_c, 0, 56, 75
2, 72958, Note_on_c, 0, 56, 0
2, 72960, Note_on_c, 0, 63, 75
2, 73022, Note_on_c, 0, 63, 0
2, 73024, Note_on_c, 0, 59, 75
2, 73086, Note_on_c, 0, 59, 0
2, 73088, Note_on_c, 0, 56, 75
2, 73150, Note_on_c, 0, 56, 0
2, 73152, Note_on_c, 0, 64, 75
2, 73214, Note_on_c, 0, 64, 0
2, 73216, Note_on_c, 0, 58, 75
2, 73278, Note_on_c, 0, 58, 0
2, 73280, Note_on_c, 0, 56, 75
2, 73342, Note_on_c, 0, 56, 0
2, 73344, Note_on_c, 0, 63, 75
2, 73406, Note_on_c, 0, 63, 0
2, 73408, Note_on_c, 0, 59, 75
2, 73470, Note_on_c, 0, 59, 0
2, 73472, Note_on_c, 0, 56, 75
2, 73534, Note_on_c, 0, 56, 0
2, 73536, Note_on_c, 0, 62, 75
2, 73598, Note_on_c, 0, 62, 0
2, 73600, Note_on_c, 0, 58, 75
2, 73662, Note_on_c, 0, 58, 0
2, 73664, Note_on_c, 0, 56, 75
2, 73726, Note_on_c, 0, 56, 0
2, 73728, Note_on_c, 0, 62, 75
2, 73790, Note_on_c, 0, 62, 0
2, 73792, Note_on_c, 0, 58, 75
2, 73854, Note_on_c, 0, 58, 0
2, 73856, Note_on_c, 0, 55, 75
2, 73918, Note_on_c, 0, 55, 0
2, 73920, Note_on_c, 0, 62, 75
2, 73982, Note_on_c, 0, 62, 0
2, 73984, Note_on_c, 0, 59, 75
2, 74046, Note_on_c, 0, 59, 0
2, 74048, Note_on_c, 0, 54, 75
2, 74110, Note_on_c, 0, 54, 0
2, 74112, Note_on_c, 0, 62, 75
2, 74174, Note_on_c, 0, 62, 0
2, 74176, Note_on_c, 0, 58, 75
2, 74238, Note_on_c, 0, 58, 0
2, 74240, Note_on_c, 0, 55, 75
2, 74302, Note_on_c, 0, 55, 0
2, 74304, Note_on_c, 0, 62, 75
2, 74366, Note_on_c, 0, 62, 0
2, 74368, Note_on_c, 0, 59, 75
2, 74430, Note_on_c, 0, 59, 0
2, 74432, Note_on_c, 0, 54, 75
2, 74494, Note_on_c, 0, 54, 0
2, 74496, Note_on_c, 0, 62, 75
2, 74558, Note_on_c, 0, 62, 0
2, 74560, Note_on_c, 0, 58, 75
2, 74622, Note_on_c, 0, 58, 0
2, 74624, Note_on_c, 0, 55, 75
2, 74686, Note_on_c, 0, 55, 0
2, 74688, Note_on_c, 0, 62, 75
2, 74750, Note_on_c, 0, 62, 0
2, 74752, Note_on_c, 0, 59, 75
2, 74814, Note_on_c, 0, 59, 0
2, 74816, Note_on_c, 0, 54, 75
2, 74878, Note_on_c, 0, 54, 0
2, 74880, Note_on_c, 0, 62, 75
2, 74942, Note_on_c, 0, 62, 0
2, 74944, Note_on_c, 0, 58, 75
2, 75006, Note_on_c, 0, 58, 0
2, 75008, Note_on_c, 0, 55, 75
2, 75070, Note_on_c, 0, 55, 0
2, 75072, Note_on_c, 0, 62, 75
2, 75134, Note_on_c, 0, 62, 0
2, 75136, Note_on_c, 0, 59, 75
2, 75198, Note_on_c, 0, 59, 0
2, 75200, Note_on_c, 0, 54, 75
2, 75262, Note_on_c, 0, 54, 0
2, 75264, Note_on_c, 0, 62, 75
2, 75326, Note_on_c, 0, 62, 0
2, 75328, Note_on_c, 0, 58, 75
2, 75390, Note_on_c, 0, 58, 0
2, 75392, Note_on_c, 0, 55, 75
2, 75454, Note_on_c, 0, 55, 0
2, 75456, Note_on_c, 0, 62, 75
2, 75518, Note_on_c, 0, 62, 0
2, 75520, Note_on_c, 0, 59, 75
2, 75582, Note_on_c, 0, 59, 0
2, 75584, Note_on_c, 0, 54, 75
2, 75646, Note_on_c, 0, 54, 0
2, 75648, Note_on_c, 0, 62, 75
2, 75710, Note_on_c, 0, 62, 0
2, 75712, Note_on_c, 0, 58, 75
2, 75774, Note_on_c, 0, 58, 0
2, 75776, Note_on_c, 0, 55, 75
2, 75838, Note_on_c, 0, 55, 0
2, 75840, Note_on_c, 0, 62, 75
2, 75902, Note_on_c, 0, 62, 0
2, 75904, Note_on_c, 0, 59, 75
2, 75966, Note_on_c, 0, 59, 0
2, 75968, Note_on_c, 0, 54, 75
2, 76030, Note_on_c, 0, 54, 0
2, 76032, Note_on_c, 0, 62, 75
2, 76094, Note_on_c, 0, 62, 0
2, 76096, Note_on_c, 0, 58, 75
2, 76158, Note_on_c, 0, 58, 0
2, 76160, Note_on_c, 0, 55, 75
2, 76222, Note_on_c, 0, 55, 0
2, 76224, Note_on_c, 0, 62, 75
2, 76286, Note_on_c, 0, 62, 0
2, 76288, Note_on_c, 0, 59, 75
2, 76350, Note_on_c, 0, 59, 0
2, 76352, Note_on_c, 0, 54, 75
2, 76414, Note_on_c, 0, 54, 0
2, 76416, Note_on_c, 0, 62, 75
2, 76478, Note_on_c, 0, 62, 0
2, 76480, Note_on_c, 0, 58, 75
2, 76542, Note_on_c, 0, 58, 0
2, 76544, Note_on_c, 0, 55, 75
2, 76606, Note_on_c, 0, 55, 0
2, 76608, Note_on_c, 0, 62, 75
2, 76670, Note_on_c, 0, 62, 0
2, 76672, Note_on_c, 0, 59, 75
2, 76734, Note_on_c, 0, 59, 0
2, 76736, Note_on_c, 0, 54, 75
2, 76798, Note_on_c, 0, 54, 0
2, 76800, Note_on_c, 0, 61, 75
2, 76862, Note_on_c, 0, 61, 0
2, 76864, Note_on_c, 0, 57, 75
2, 76926, Note_on_c, 0, 57, 0
2, 76928, Note_on_c, 0, 54, 75
2, 76990, Note_on_c, 0, 54, 0
2, 76992, Note_on_c, 0, 62, 75
2, 77054, Note_on_c, 0, 62, 0
2, 77056, Note_on_c, 0, 56, 75
2, 77118, Note_on_c, 0, 56, 0
2, 77120, Note_on_c, 0, 54, 75
2, 77182, Note_on_c, 0, 54, 0
2, 77184, Note_on_c, 0, 61, 75
2, 77246, Note_on_c, 0, 61, 0
2, 77248, Note_on_c, 0, 57, 75
2, 77310, Note_on_c, 0, 57, 0
2, 77312, Note_on_c, 0, 54, 75
2, 77374, Note_on_c, 0, 54, 0
2, 77376, Note_on_c, 0, 60, 75
2, 77438, Note_on_c, 0, 60, 0
2, 77440, Note_on_c, 0, 56, 75
2, 77502, Note_on_c, 0, 56, 0
2, 77504, Note_on_c, 0, 54, 75
2, 77566, Note_on_c, 0, 54, 0
2, 77568, Note_on_c, 0, 61, 75
2, 77630, Note_on_c, 0, 61, 0
2, 77632, Note_on_c, 0, 57, 75
2, 77694, Note_on_c, 0, 57, 0
2, 77696, Note_on_c, 0, 54, 75
2, 77758, Note_on_c, 0, 54, 0
2, 77760, Note_on_c, 0, 62, 75
2, 77822, Note_on_c, 0, 62, 0
2, 77824, Note_on_c, 0, 56, 75
2, 77886, Note_on_c, 0, 56, 0
2, 77888, Note_on_c, 0, 54, 75
2, 77950, Note_on_c, 0, 54, 0
2, 77952, Note_on_c, 0, 61, 75
2, 78014, Note_on_c, 0, 61, 0
2, 78016, Note_on_c, 0, 57, 75
2, 78078, Note_on_c, 0, 57, 0
2, 78080, Note_on_c, 0, 54, 75
2, 78142, Note_on_c, 0, 54, 0
2, 78144, Note_on_c, 0, 60, 75
2, 78206, Note_on_c, 0, 60, 0
2, 78208, Note_on_c, 0, 56, 75
2, 78270, Note_on_c, 0, 56, 0
2, 78272, Note_on_c, 0, 54, 75
2, 78334, Note_on_c, 0, 54, 0
2, 78336, Note_on_c, 0, 61, 75
2, 78398, Note_on_c, 0, 61, 0
2, 78400, Note_on_c, 0, 57, 75
2, 78462, Note_on_c, 0, 57, 0
2, 78464, Note_on_c, 0, 54, 75
2, 78526, Note_on_c, 0, 54, 0
2, 78528, Note_on_c, 0, 62, 75
2, 78590, Note_on_c, 0, 62, 0
2, 78592, Note_on_c, 0, 56, 75
2, 78654, Note_on_c, 0, 56, 0
2, 78656, Note_on_c, 0, 54, 75
2, 78718, Note_on_c, 0, 54, 0
2, 78720, Note_on_c, 0, 61, 75
2, 78782, Note_on_c, 0, 61, 0
2, 78784, Note_on_c, 0, 57, 75
2, 78846, Note_on_c, 0, 57, 0
2, 78848, Note_on_c, 0, 54, 75
2, 78910, Note_on_c, 0, 54, 0
2, 78912, Note_on_c, 0, 60, 75
2, 78974, Note_on_c, 0, 60, 0
2, 78976, Note_on_c, 0, 56, 75
2, 79038, Note_on_c, 0, 56, 0
2, 79040, Note_on_c, 0, 54, 75
2, 79102, Note_on_c, 0, 54, 0
2, 79104, Note_on_c, 0, 61, 75
2, 79166, Note_on_c, 0, 61, 0
2, 79168, Note_on_c, 0, 57, 75
2, 79230, Note_on_c, 0, 57, 0
2, 79232, Note_on_c, 0, 54, 75
2, 79294, Note_on_c, 0, 54, 0
2, 79296, Note_on_c, 0, 62, 75
2, 79358, Note_on_c, 0, 62, 0
2, 79360, Note_on_c, 0, 56, 75
2, 79422, Note_on_c, 0, 56, 0
2, 79424, Note_on_c, 0, 54, 75
2, 79486, Note_on_c, 0, 54, 0
2, 79488, Note_on_c, 0, 61, 75
2, 79550, Note_on_c, 0, 61, 0
2, 79552, Note_on_c, 0, 57, 75
2, 79614, Note_on_c, 0, 57, 0
2, 79616, Note_on_c, 0, 54, 75
2, 79678, Note_on_c, 0, 54, 0
2, 79680, Note_on_c, 0, 60, 75
2, 79742, Note_on_c, 0, 60, 0
2, 79744, Note_on_c, 0, 56, 75
2, 79806, Note_on_c, 0, 56, 0
2, 79808, Note_on_c, 0, 54, 75
2, 79870, Note_on_c, 0, 54, 0
2, 79870, End_track
3, 0, Start_track
3, 0, MIDI_port, 0
3, 0, Title_t, "Staff-1"
3, 0, Control_c, 1, 7, 127
3, 0, Control_c, 1, 10, 34
3, 0, Control_c, 1, 7, 127
3, 0, Control_c, 1, 10, 34
3, 0, Program_c, 1, 81
3, 24, Note_on_c, 1, 67, 45
3, 86, Note_on_c, 1, 67, 0
3, 88, Note_on_c, 1, 63, 45
3, 150, Note_on_c, 1, 63, 0
3, 152, Note_on_c, 1, 60, 45
3, 214, Note_on_c, 1, 60, 0
3, 216, Note_on_c, 1, 67, 45
3, 278, Note_on_c, 1, 67, 0
3, 280, Note_on_c, 1, 64, 45
3, 342, Note_on_c, 1, 64, 0
3, 344, Note_on_c, 1, 59, 45
3, 406, Note_on_c, 1, 59, 0
3, 408, Note_on_c, 1, 67, 45
3, 470, Note_on_c, 1, 67, 0
3, 472, Note_on_c, 1, 63, 45
3, 534, Note_on_c, 1, 63, 0
3, 536, Note_on_c, 1, 60, 45
3, 598, Note_on_c, 1, 60, 0
3, 600, Note_on_c, 1, 67, 45
3, 662, Note_on_c, 1, 67, 0
3, 664, Note_on_c, 1, 64, 45
3, 726, Note_on_c, 1, 64, 0
3, 728, Note_on_c, 1, 59, 45
3, 790, Note_on_c, 1, 59, 0
3, 792, Note_on_c, 1, 67, 45
3, 854, Note_on_c, 1, 67, 0
3, 856, Note_on_c, 1, 63, 45
3, 918, Note_on_c, 1, 63, 0
3, 920, Note_on_c, 1, 60, 45
3, 982, Note_on_c, 1, 60, 0
3, 984, Note_on_c, 1, 67, 45
3, 1046, Note_on_c, 1, 67, 0
3, 1048, Note_on_c, 1, 64, 45
3, 1110, Note_on_c, 1, 64, 0
3, 1112, Note_on_c, 1, 59, 45
3, 1174, Note_on_c, 1, 59, 0
3, 1176, Note_on_c, 1, 67, 45
3, 1238, Note_on_c, 1, 67, 0
3, 1240, Note_on_c, 1, 63, 45
3, 1302, Note_on_c, 1, 63, 0
3, 1304, Note_on_c, 1, 60, 45
3, 1366, Note_on_c, 1, 60, 0
3, 1368, Note_on_c, 1, 67, 45
3, 1430, Note_on_c, 1, 67, 0
3, 1432, Note_on_c, 1, 64, 45
3, 1494, Note_on_c, 1, 64, 0
3, 1496, Note_on_c, 1, 59, 45
3, 1558, Note_on_c, 1, 59, 0
3, 1560, Note_on_c, 1, 67, 45
3, 1622, Note_on_c, 1, 67, 0
3, 1624, Note_on_c, 1, 63, 45
3, 1686, Note_on_c, 1, 63, 0
3, 1688, Note_on_c, 1, 60, 45
3, 1750, Note_on_c, 1, 60, 0
3, 1752, Note_on_c, 1, 67, 45
3, 1814, Note_on_c, 1, 67, 0
3, 1816, Note_on_c, 1, 64, 45
3, 1878, Note_on_c, 1, 64, 0
3, 1880, Note_on_c, 1, 59, 45
3, 1942, Note_on_c, 1, 59, 0
3, 1944, Note_on_c, 1, 67, 45
3, 2006, Note_on_c, 1, 67, 0
3, 2008, Note_on_c, 1, 63, 45
3, 2070, Note_on_c, 1, 63, 0
3, 2072, Note_on_c, 1, 60, 45
3, 2134, Note_on_c, 1, 60, 0
3, 2136, Note_on_c, 1, 67, 45
3, 2198, Note_on_c, 1, 67, 0
3, 2200, Note_on_c, 1, 64, 45
3, 2262, Note_on_c, 1, 64, 0
3, 2264, Note_on_c, 1, 59, 45
3, 2326, Note_on_c, 1, 59, 0
3, 2328, Note_on_c, 1, 67, 45
3, 2390, Note_on_c, 1, 67, 0
3, 2392, Note_on_c, 1, 63, 45
3, 2454, Note_on_c, 1, 63, 0
3, 2456, Note_on_c, 1, 60, 45
3, 2518, Note_on_c, 1, 60, 0
3, 2520, Note_on_c, 1, 67, 45
3, 2582, Note_on_c, 1, 67, 0
3, 2584, Note_on_c, 1, 64, 45
3, 2646, Note_on_c, 1, 64, 0
3, 2648, Note_on_c, 1, 59, 45
3, 2710, Note_on_c, 1, 59, 0
3, 2712, Note_on_c, 1, 67, 45
3, 2774, Note_on_c, 1, 67, 0
3, 2776, Note_on_c, 1, 63, 45
3, 2838, Note_on_c, 1, 63, 0
3, 2840, Note_on_c, 1, 60, 45
3, 2902, Note_on_c, 1, 60, 0
3, 2904, Note_on_c, 1, 67, 45
3, 2966, Note_on_c, 1, 67, 0
3, 2968, Note_on_c, 1, 64, 45
3, 3030, Note_on_c, 1, 64, 0
3, 3032, Note_on_c, 1, 59, 45
3, 3094, Note_on_c, 1, 59, 0
3, 3096, Note_on_c, 1, 66, 45
3, 3158, Note_on_c, 1, 66, 0
3, 3160, Note_on_c, 1, 62, 45
3, 3222, Note_on_c, 1, 62, 0
3, 3224, Note_on_c, 1, 59, 45
3, 3286, Note_on_c, 1, 59, 0
3, 3288, Note_on_c, 1, 67, 45
3, 3350, Note_on_c, 1, 67, 0
3, 3352, Note_on_c, 1, 61, 45
3, 3414, Note_on_c, 1, 61, 0
3, 3416, Note_on_c, 1, 59, 45
3, 3478, Note_on_c, 1, 59, 0
3, 3480, Note_on_c, 1, 66, 45
3, 3542, Note_on_c, 1, 66, 0
3, 3544, Note_on_c, 1, 62, 45
3, 3606, Note_on_c, 1, 62, 0
3, 3608, Note_on_c, 1, 59, 45
3, 3670, Note_on_c, 1, 59, 0
3, 3672, Note_on_c, 1, 65, 45
3, 3734, Note_on_c, 1, 65, 0
3, 3736, Note_on_c, 1, 61, 45
3, 3798, Note_on_c, 1, 61, 0
3, 3800, Note_on_c, 1, 59, 45
3, 3862, Note_on_c, 1, 59, 0
3, 3864, Note_on_c, 1, 66, 45
3, 3926, Note_on_c, 1, 66, 0
3, 3928, Note_on_c, 1, 62, 45
3, 3990, Note_on_c, 1, 62, 0
3, 3992, Note_on_c, 1, 59, 45
3, 4054, Note_on_c, 1, 59, 0
3, 4056, Note_on_c, 1, 67, 45
3, 4118, Note_on_c, 1, 67, 0
3, 4120, Note_on_c, 1, 61, 45
3, 4182, Note_on_c, 1, 61, 0
3, 4184, Note_on_c, 1, 59, 45
3, 4246, Note_on_c, 1, 59, 0
3, 4248, Note_on_c, 1, 66, 45
3, 4310, Note_on_c, 1, 66, 0
3, 4312, Note_on_c, 1, 62, 45
3, 4374, Note_on_c, 1, 62, 0
3, 4376, Note_on_c, 1, 59, 45
3, 4438, Note_on_c, 1, 59, 0
3, 4440, Note_on_c, 1, 65, 45
3, 4502, Note_on_c, 1, 65, 0
3, 4504, Note_on_c, 1, 61, 45
3, 4566, Note_on_c, 1, 61, 0
3, 4568, Note_on_c, 1, 59, 45
3, 4630, Note_on_c, 1, 59, 0
3, 4632, Note_on_c, 1, 66, 45
3, 4694, Note_on_c, 1, 66, 0
3, 4696, Note_on_c, 1, 62, 45
3, 4758, Note_on_c, 1, 62, 0
3, 4760, Note_on_c, 1, 59, 45
3, 4822, Note_on_c, 1, 59, 0
3, 4824, Note_on_c, 1, 67, 45
3, 4886, Note_on_c, 1, 67, 0
3, 4888, Note_on_c, 1, 61, 45
3, 4950, Note_on_c, 1, 61, 0
3, 4952, Note_on_c, 1, 59, 45
3, 5014, Note_on_c, 1, 59, 0
3, 5016, Note_on_c, 1, 66, 45
3, 5078, Note_on_c, 1, 66, 0
3, 5080, Note_on_c, 1, 62, 45
3, 5142, Note_on_c, 1, 62, 0
3, 5144, Note_on_c, 1, 59, 45
3, 5206, Note_on_c, 1, 59, 0
3, 5208, Note_on_c, 1, 65, 45
3, 5270, Note_on_c, 1, 65, 0
3, 5272, Note_on_c, 1, 61, 45
3, 5334, Note_on_c, 1, 61, 0
3, 5336, Note_on_c, 1, 59, 45
3, 5398, Note_on_c, 1, 59, 0
3, 5400, Note_on_c, 1, 66, 45
3, 5462, Note_on_c, 1, 66, 0
3, 5464, Note_on_c, 1, 62, 45
3, 5526, Note_on_c, 1, 62, 0
3, 5528, Note_on_c, 1, 59, 45
3, 5590, Note_on_c, 1, 59, 0
3, 5592, Note_on_c, 1, 67, 45
3, 5654, Note_on_c, 1, 67, 0
3, 5656, Note_on_c, 1, 61, 45
3, 5718, Note_on_c, 1, 61, 0
3, 5720, Note_on_c, 1, 59, 45
3, 5782, Note_on_c, 1, 59, 0
3, 5784, Note_on_c, 1, 66, 45
3, 5846, Note_on_c, 1, 66, 0
3, 5848, Note_on_c, 1, 62, 45
3, 5910, Note_on_c, 1, 62, 0
3, 5912, Note_on_c, 1, 59, 45
3, 5974, Note_on_c, 1, 59, 0
3, 5976, Note_on_c, 1, 65, 45
3, 6038, Note_on_c, 1, 65, 0
3, 6040, Note_on_c, 1, 61, 45
3, 6102, Note_on_c, 1, 61, 0
3, 6104, Note_on_c, 1, 59, 45
3, 6166, Note_on_c, 1, 59, 0
3, 6168, Note_on_c, 1, 67, 45
3, 6230, Note_on_c, 1, 67, 0
3, 6232, Note_on_c, 1, 63, 45
3, 6294, Note_on_c, 1, 63, 0
3, 6296, Note_on_c, 1, 60, 45
3, 6358, Note_on_c, 1, 60, 0
3, 6360, Note_on_c, 1, 67, 45
3, 6422, Note_on_c, 1, 67, 0
3, 6424, Note_on_c, 1, 64, 45
3, 6486, Note_on_c, 1, 64, 0
3, 6488, Note_on_c, 1, 59, 45
3, 6550, Note_on_c, 1, 59, 0
3, 6552, Note_on_c, 1, 67, 45
3, 6614, Note_on_c, 1, 67, 0
3, 6616, Note_on_c, 1, 63, 45
3, 6678, Note_on_c, 1, 63, 0
3, 6680, Note_on_c, 1, 60, 45
3, 6742, Note_on_c, 1, 60, 0
3, 6744, Note_on_c, 1, 67, 45
3, 6806, Note_on_c, 1, 67, 0
3, 6808, Note_on_c, 1, 64, 45
3, 6870, Note_on_c, 1, 64, 0
3, 6872, Note_on_c, 1, 59, 45
3, 6934, Note_on_c, 1, 59, 0
3, 6936, Note_on_c, 1, 67, 45
3, 6998, Note_on_c, 1, 67, 0
3, 7000, Note_on_c, 1, 63, 45
3, 7062, Note_on_c, 1, 63, 0
3, 7064, Note_on_c, 1, 60, 45
3, 7126, Note_on_c, 1, 60, 0
3, 7128, Note_on_c, 1, 67, 45
3, 7190, Note_on_c, 1, 67, 0
3, 7192, Note_on_c, 1, 64, 45
3, 7254, Note_on_c, 1, 64, 0
3, 7256, Note_on_c, 1, 59, 45
3, 7318, Note_on_c, 1, 59, 0
3, 7320, Note_on_c, 1, 67, 45
3, 7382, Note_on_c, 1, 67, 0
3, 7384, Note_on_c, 1, 63, 45
3, 7446, Note_on_c, 1, 63, 0
3, 7448, Note_on_c, 1, 60, 45
3, 7510, Note_on_c, 1, 60, 0
3, 7512, Note_on_c, 1, 67, 45
3, 7574, Note_on_c, 1, 67, 0
3, 7576, Note_on_c, 1, 64, 45
3, 7638, Note_on_c, 1, 64, 0
3, 7640, Note_on_c, 1, 59, 45
3, 7702, Note_on_c, 1, 59, 0
3, 7704, Note_on_c, 1, 67, 45
3, 7766, Note_on_c, 1, 67, 0
3, 7768, Note_on_c, 1, 63, 45
3, 7830, Note_on_c, 1, 63, 0
3, 7832, Note_on_c, 1, 60, 45
3, 7894, Note_on_c, 1, 60, 0
3, 7896, Note_on_c, 1, 67, 45
3, 7958, Note_on_c, 1, 67, 0
3, 7960, Note_on_c, 1, 64, 45
3, 8022, Note_on_c, 1, 64, 0
3, 8024, Note_on_c, 1, 59, 45
3, 8086, Note_on_c, 1, 59, 0
3, 8088, Note_on_c, 1, 67, 45
3, 8150, Note_on_c, 1, 67, 0
3, 8152, Note_on_c, 1, 63, 45
3, 8214, Note_on_c, 1, 63, 0
3, 8216, Note_on_c, 1, 60, 45
3, 8278, Note_on_c, 1, 60, 0
3, 8280, Note_on_c, 1, 67, 45
3, 8342, Note_on_c, 1, 67, 0
3, 8344, Note_on_c, 1, 64, 45
3, 8406, Note_on_c, 1, 64, 0
3, 8408, Note_on_c, 1, 59, 45
3, 8470, Note_on_c, 1, 59, 0
3, 8472, Note_on_c, 1, 67, 45
3, 8534, Note_on_c, 1, 67, 0
3, 8536, Note_on_c, 1, 63, 45
3, 8598, Note_on_c, 1, 63, 0
3, 8600, Note_on_c, 1, 60, 45
3, 8662, Note_on_c, 1, 60, 0
3, 8664, Note_on_c, 1, 67, 45
3, 8726, Note_on_c, 1, 67, 0
3, 8728, Note_on_c, 1, 64, 45
3, 8790, Note_on_c, 1, 64, 0
3, 8792, Note_on_c, 1, 59, 45
3, 8854, Note_on_c, 1, 59, 0
3, 8856, Note_on_c, 1, 67, 45
3, 8918, Note_on_c, 1, 67, 0
3, 8920, Note_on_c, 1, 63, 45
3, 8982, Note_on_c, 1, 63, 0
3, 8984, Note_on_c, 1, 60, 45
3, 9046, Note_on_c, 1, 60, 0
3, 9048, Note_on_c, 1, 67, 45
3, 9110, Note_on_c, 1, 67, 0
3, 9112, Note_on_c, 1, 64, 45
3, 9174, Note_on_c, 1, 64, 0
3, 9176, Note_on_c, 1, 59, 45
3, 9238, Note_on_c, 1, 59, 0
3, 9240, Note_on_c, 1, 66, 45
3, 9302, Note_on_c, 1, 66, 0
3, 9304, Note_on_c, 1, 62, 45
3, 9366, Note_on_c, 1, 62, 0
3, 9368, Note_on_c, 1, 59, 45
3, 9430, Note_on_c, 1, 59, 0
3, 9432, Note_on_c, 1, 67, 45
3, 9494, Note_on_c, 1, 67, 0
3, 9496, Note_on_c, 1, 61, 45
3, 9558, Note_on_c, 1, 61, 0
3, 9560, Note_on_c, 1, 59, 45
3, 9622, Note_on_c, 1, 59, 0
3, 9624, Note_on_c, 1, 66, 45
3, 9686, Note_on_c, 1, 66, 0
3, 9688, Note_on_c, 1, 62, 45
3, 9750, Note_on_c, 1, 62, 0
3, 9752, Note_on_c, 1, 59, 45
3, 9814, Note_on_c, 1, 59, 0
3, 9816, Note_on_c, 1, 65, 45
3, 9878, Note_on_c, 1, 65, 0
3, 9880, Note_on_c, 1, 61, 45
3, 9942, Note_on_c, 1, 61, 0
3, 9944, Note_on_c, 1, 59, 45
3, 10006, Note_on_c, 1, 59, 0
3, 10008, Note_on_c, 1, 66, 45
3, 10070, Note_on_c, 1, 66, 0
3, 10072, Note_on_c, 1, 62, 45
3, 10134, Note_on_c, 1, 62, 0
3, 10136, Note_on_c, 1, 59, 45
3, 10198, Note_on_c, 1, 59, 0
3, 10200, Note_on_c, 1, 67, 45
3, 10262, Note_on_c, 1, 67, 0
3, 10264, Note_on_c, 1, 61, 45
3, 10326, Note_on_c, 1, 61, 0
3, 10328, Note_on_c, 1, 59, 45
3, 10390, Note_on_c, 1, 59, 0
3, 10392, Note_on_c, 1, 66, 45
3, 10454, Note_on_c, 1, 66, 0
3, 10456, Note_on_c, 1, 62, 45
3, 10518, Note_on_c, 1, 62, 0
3, 10520, Note_on_c, 1, 59, 45
3, 10582, Note_on_c, 1, 59, 0
3, 10584, Note_on_c, 1, 65, 45
3, 10646, Note_on_c, 1, 65, 0
3, 10648, Note_on_c, 1, 61, 45
3, 10710, Note_on_c, 1, 61, 0
3, 10712, Note_on_c, 1, 59, 45
3, 10774, Note_on_c, 1, 59, 0
3, 10776, Note_on_c, 1, 66, 45
3, 10838, Note_on_c, 1, 66, 0
3, 10840, Note_on_c, 1, 62, 45
3, 10902, Note_on_c, 1, 62, 0
3, 10904, Note_on_c, 1, 59, 45
3, 10966, Note_on_c, 1, 59, 0
3, 10968, Note_on_c, 1, 67, 45
3, 11030, Note_on_c, 1, 67, 0
3, 11032, Note_on_c, 1, 61, 45
3, 11094, Note_on_c, 1, 61, 0
3, 11096, Note_on_c, 1, 59, 45
3, 11158, Note_on_c, 1, 59, 0
3, 11160, Note_on_c, 1, 66, 45
3, 11222, Note_on_c, 1, 66, 0
3, 11224, Note_on_c, 1, 62, 45
3, 11286, Note_on_c, 1, 62, 0
3, 11288, Note_on_c, 1, 59, 45
3, 11350, Note_on_c, 1, 59, 0
3, 11352, Note_on_c, 1, 65, 45
3, 11414, Note_on_c, 1, 65, 0
3, 11416, Note_on_c, 1, 61, 45
3, 11478, Note_on_c, 1, 61, 0
3, 11480, Note_on_c, 1, 59, 45
3, 11542, Note_on_c, 1, 59, 0
3, 11544, Note_on_c, 1, 66, 45
3, 11606, Note_on_c, 1, 66, 0
3, 11608, Note_on_c, 1, 62, 45
3, 11670, Note_on_c, 1, 62, 0
3, 11672, Note_on_c, 1, 59, 45
3, 11734, Note_on_c, 1, 59, 0
3, 11736, Note_on_c, 1, 67, 45
3, 11798, Note_on_c, 1, 67, 0
3, 11800, Note_on_c, 1, 61, 45
3, 11862, Note_on_c, 1, 61, 0
3, 11864, Note_on_c, 1, 59, 45
3, 11926, Note_on_c, 1, 59, 0
3, 11928, Note_on_c, 1, 66, 45
3, 11990, Note_on_c, 1, 66, 0
3, 11992, Note_on_c, 1, 62, 45
3, 12054, Note_on_c, 1, 62, 0
3, 12056, Note_on_c, 1, 59, 45
3, 12118, Note_on_c, 1, 59, 0
3, 12120, Note_on_c, 1, 65, 45
3, 12182, Note_on_c, 1, 65, 0
3, 12184, Note_on_c, 1, 61, 45
3, 12246, Note_on_c, 1, 61, 0
3, 12248, Note_on_c, 1, 59, 45
3, 12310, Note_on_c, 1, 59, 0
3, 12312, Note_on_c, 1, 67, 45
3, 12374, Note_on_c, 1, 67, 0
3, 12376, Note_on_c, 1, 63, 45
3, 12438, Note_on_c, 1, 63, 0
3, 12440, Note_on_c, 1, 60, 45
3, 12502, Note_on_c, 1, 60, 0
3, 12504, Note_on_c, 1, 67, 45
3, 12566, Note_on_c, 1, 67, 0
3, 12568, Note_on_c, 1, 64, 45
3, 12630, Note_on_c, 1, 64, 0
3, 12632, Note_on_c, 1, 59, 45
3, 12694, Note_on_c, 1, 59, 0
3, 12696, Note_on_c, 1, 67, 45
3, 12758, Note_on_c, 1, 67, 0
3, 12760, Note_on_c, 1, 63, 45
3, 12822, Note_on_c, 1, 63, 0
3, 12824, Note_on_c, 1, 60, 45
3, 12886, Note_on_c, 1, 60, 0
3, 12888, Note_on_c, 1, 67, 45
3, 12950, Note_on_c, 1, 67, 0
3, 12952, Note_on_c, 1, 64, 45
3, 13014, Note_on_c, 1, 64, 0
3, 13016, Note_on_c, 1, 59, 45
3, 13078, Note_on_c, 1, 59, 0
3, 13080, Note_on_c, 1, 67, 45
3, 13142, Note_on_c, 1, 67, 0
3, 13144, Note_on_c, 1, 63, 45
3, 13206, Note_on_c, 1, 63, 0
3, 13208, Note_on_c, 1, 60, 45
3, 13270, Note_on_c, 1, 60, 0
3, 13272, Note_on_c, 1, 67, 45
3, 13334, Note_on_c, 1, 67, 0
3, 13336, Note_on_c, 1, 64, 45
3, 13398, Note_on_c, 1, 64, 0
3, 13400, Note_on_c, 1, 59, 45
3, 13462, Note_on_c, 1, 59, 0
3, 13464, Note_on_c, 1, 67, 45
3, 13526, Note_on_c, 1, 67, 0
3, 13528, Note_on_c, 1, 63, 45
3, 13590, Note_on_c, 1, 63, 0
3, 13592, Note_on_c, 1, 60, 45
3, 13654, Note_on_c, 1, 60, 0
3, 13656, Note_on_c, 1, 67, 45
3, 13718, Note_on_c, 1, 67, 0
3, 13720, Note_on_c, 1, 64, 45
3, 13782, Note_on_c, 1, 64, 0
3, 13784, Note_on_c, 1, 59, 45
3, 13846, Note_on_c, 1, 59, 0
3, 13848, Note_on_c, 1, 67, 45
3, 13910, Note_on_c, 1, 67, 0
3, 13912, Note_on_c, 1, 63, 45
3, 13974, Note_on_c, 1, 63, 0
3, 13976, Note_on_c, 1, 60, 45
3, 14038, Note_on_c, 1, 60, 0
3, 14040, Note_on_c, 1, 67, 45
3, 14102, Note_on_c, 1, 67, 0
3, 14104, Note_on_c, 1, 64, 45
3, 14166, Note_on_c, 1, 64, 0
3, 14168, Note_on_c, 1, 59, 45
3, 14230, Note_on_c, 1, 59, 0
3, 14232, Note_on_c, 1, 67, 45
3, 14294, Note_on_c, 1, 67, 0
3, 14296, Note_on_c, 1, 63, 45
3, 14358, Note_on_c, 1, 63, 0
3, 14360, Note_on_c, 1, 60, 45
3, 14422, Note_on_c, 1, 60, 0
3, 14424, Note_on_c, 1, 67, 45
3, 14486, Note_on_c, 1, 67, 0
3, 14488, Note_on_c, 1, 64, 45
3, 14550, Note_on_c, 1, 64, 0
3, 14552, Note_on_c, 1, 59, 45
3, 14614, Note_on_c, 1, 59, 0
3, 14616, Note_on_c, 1, 67, 45
3, 14678, Note_on_c, 1, 67, 0
3, 14680, Note_on_c, 1, 63, 45
3, 14742, Note_on_c, 1, 63, 0
3, 14744, Note_on_c, 1, 60, 45
3, 14806, Note_on_c, 1, 60, 0
3, 14808, Note_on_c, 1, 67, 45
3, 14870, Note_on_c, 1, 67, 0
3, 14872, Note_on_c, 1, 64, 45
3, 14934, Note_on_c, 1, 64, 0
3, 14936, Note_on_c, 1, 59, 45
3, 14998, Note_on_c, 1, 59, 0
3, 15000, Note_on_c, 1, 67, 45
3, 15062, Note_on_c, 1, 67, 0
3, 15064, Note_on_c, 1, 63, 45
3, 15126, Note_on_c, 1, 63, 0
3, 15128, Note_on_c, 1, 60, 45
3, 15190, Note_on_c, 1, 60, 0
3, 15192, Note_on_c, 1, 67, 45
3, 15254, Note_on_c, 1, 67, 0
3, 15256, Note_on_c, 1, 64, 45
3, 15318, Note_on_c, 1, 64, 0
3, 15320, Note_on_c, 1, 59, 45
3, 15382, Note_on_c, 1, 59, 0
3, 15384, Note_on_c, 1, 66, 45
3, 15446, Note_on_c, 1, 66, 0
3, 15448, Note_on_c, 1, 62, 45
3, 15510, Note_on_c, 1, 62, 0
3, 15512, Note_on_c, 1, 59, 45
3, 15574, Note_on_c, 1, 59, 0
3, 15576, Note_on_c, 1, 67, 45
3, 15638, Note_on_c, 1, 67, 0
3, 15640, Note_on_c, 1, 61, 45
3, 15702, Note_on_c, 1, 61, 0
3, 15704, Note_on_c, 1, 59, 45
3, 15766, Note_on_c, 1, 59, 0
3, 15768, Note_on_c, 1, 66, 45
3, 15830, Note_on_c, 1, 66, 0
3, 15832, Note_on_c, 1, 62, 45
3, 15894, Note_on_c, 1, 62, 0
3, 15896, Note_on_c, 1, 59, 45
3, 15958, Note_on_c, 1, 59, 0
3, 15960, Note_on_c, 1, 65, 45
3, 16022, Note_on_c, 1, 65, 0
3, 16024, Note_on_c, 1, 61, 45
3, 16086, Note_on_c, 1, 61, 0
3, 16088, Note_on_c, 1, 59, 45
3, 16150, Note_on_c, 1, 59, 0
3, 16152, Note_on_c, 1, 66, 45
3, 16214, Note_on_c, 1, 66, 0
3, 16216, Note_on_c, 1, 62, 45
3, 16278, Note_on_c, 1, 62, 0
3, 16280, Note_on_c, 1, 59, 45
3, 16342, Note_on_c, 1, 59, 0
3, 16344, Note_on_c, 1, 67, 45
3, 16406, Note_on_c, 1, 67, 0
3, 16408, Note_on_c, 1, 61, 45
3, 16470, Note_on_c, 1, 61, 0
3, 16472, Note_on_c, 1, 59, 45
3, 16534, Note_on_c, 1, 59, 0
3, 16536, Note_on_c, 1, 66, 45
3, 16598, Note_on_c, 1, 66, 0
3, 16600, Note_on_c, 1, 62, 45
3, 16662, Note_on_c, 1, 62, 0
3, 16664, Note_on_c, 1, 59, 45
3, 16726, Note_on_c, 1, 59, 0
3, 16728, Note_on_c, 1, 65, 45
3, 16790, Note_on_c, 1, 65, 0
3, 16792, Note_on_c, 1, 61, 45
3, 16854, Note_on_c, 1, 61, 0
3, 16856, Note_on_c, 1, 59, 45
3, 16918, Note_on_c, 1, 59, 0
3, 16920, Note_on_c, 1, 66, 45
3, 16982, Note_on_c, 1, 66, 0
3, 16984, Note_on_c, 1, 62, 45
3, 17046, Note_on_c, 1, 62, 0
3, 17048, Note_on_c, 1, 59, 45
3, 17110, Note_on_c, 1, 59, 0
3, 17112, Note_on_c, 1, 67, 45
3, 17174, Note_on_c, 1, 67, 0
3, 17176, Note_on_c, 1, 61, 45
3, 17238, Note_on_c, 1, 61, 0
3, 17240, Note_on_c, 1, 59, 45
3, 17302, Note_on_c, 1, 59, 0
3, 17304, Note_on_c, 1, 66, 45
3, 17366, Note_on_c, 1, 66, 0
3, 17368, Note_on_c, 1, 62, 45
3, 17430, Note_on_c, 1, 62, 0
3, 17432, Note_on_c, 1, 59, 45
3, 17494, Note_on_c, 1, 59, 0
3, 17496, Note_on_c, 1, 65, 45
3, 17558, Note_on_c, 1, 65, 0
3, 17560, Note_on_c, 1, 61, 45
3, 17622, Note_on_c, 1, 61, 0
3, 17624, Note_on_c, 1, 59, 45
3, 17686, Note_on_c, 1, 59, 0
3, 17688, Note_on_c, 1, 66, 45
3, 17750, Note_on_c, 1, 66, 0
3, 17752, Note_on_c, 1, 62, 45
3, 17814, Note_on_c, 1, 62, 0
3, 17816, Note_on_c, 1, 59, 45
3, 17878, Note_on_c, 1, 59, 0
3, 17880, Note_on_c, 1, 67, 45
3, 17942, Note_on_c, 1, 67, 0
3, 17944, Note_on_c, 1, 61, 45
3, 18006, Note_on_c, 1, 61, 0
3, 18008, Note_on_c, 1, 59, 45
3, 18070, Note_on_c, 1, 59, 0
3, 18072, Note_on_c, 1, 66, 45
3, 18134, Note_on_c, 1, 66, 0
3, 18136, Note_on_c, 1, 62, 45
3, 18198, Note_on_c, 1, 62, 0
3, 18200, Note_on_c, 1, 59, 45
3, 18262, Note_on_c, 1, 59, 0
3, 18264, Note_on_c, 1, 65, 45
3, 18326, Note_on_c, 1, 65, 0
3, 18328, Note_on_c, 1, 61, 45
3, 18390, Note_on_c, 1, 61, 0
3, 18392, Note_on_c, 1, 59, 45
3, 18454, Note_on_c, 1, 59, 0
3, 18456, Note_on_c, 1, 67, 45
3, 18518, Note_on_c, 1, 67, 0
3, 18520, Note_on_c, 1, 63, 45
3, 18582, Note_on_c, 1, 63, 0
3, 18584, Note_on_c, 1, 60, 45
3, 18646, Note_on_c, 1, 60, 0
3, 18648, Note_on_c, 1, 67, 45
3, 18710, Note_on_c, 1, 67, 0
3, 18712, Note_on_c, 1, 64, 45
3, 18774, Note_on_c, 1, 64, 0
3, 18776, Note_on_c, 1, 59, 45
3, 18838, Note_on_c, 1, 59, 0
3, 18840, Note_on_c, 1, 67, 45
3, 18902, Note_on_c, 1, 67, 0
3, 18904, Note_on_c, 1, 63, 45
3, 18966, Note_on_c, 1, 63, 0
3, 18968, Note_on_c, 1, 60, 45
3, 19030, Note_on_c, 1, 60, 0
3, 19032, Note_on_c, 1, 67, 45
3, 19094, Note_on_c, 1, 67, 0
3, 19096, Note_on_c, 1, 64, 45
3, 19158, Note_on_c, 1, 64, 0
3, 19160, Note_on_c, 1, 59, 45
3, 19222, Note_on_c, 1, 59, 0
3, 19224, Note_on_c, 1, 67, 45
3, 19286, Note_on_c, 1, 67, 0
3, 19288, Note_on_c, 1, 63, 45
3, 19350, Note_on_c, 1, 63, 0
3, 19352, Note_on_c, 1, 60, 45
3, 19414, Note_on_c, 1, 60, 0
3, 19416, Note_on_c, 1, 67, 45
3, 19478, Note_on_c, 1, 67, 0
3, 19480, Note_on_c, 1, 64, 45
3, 19542, Note_on_c, 1, 64, 0
3, 19544, Note_on_c, 1, 59, 45
3, 19606, Note_on_c, 1, 59, 0
3, 19608, Note_on_c, 1, 67, 45
3, 19670, Note_on_c, 1, 67, 0
3, 19672, Note_on_c, 1, 63, 45
3, 19734, Note_on_c, 1, 63, 0
3, 19736, Note_on_c, 1, 60, 45
3, 19798, Note_on_c, 1, 60, 0
3, 19800, Note_on_c, 1, 67, 45
3, 19862, Note_on_c, 1, 67, 0
3, 19864, Note_on_c, 1, 64, 45
3, 19926, Note_on_c, 1, 64, 0
3, 19928, Note_on_c, 1, 59, 45
3, 19990, Note_on_c, 1, 59, 0
3, 19992, Note_on_c, 1, 67, 45
3, 20054, Note_on_c, 1, 67, 0
3, 20056, Note_on_c, 1, 63, 45
3, 20118, Note_on_c, 1, 63, 0
3, 20120, Note_on_c, 1, 60, 45
3, 20182, Note_on_c, 1, 60, 0
3, 20184, Note_on_c, 1, 67, 45
3, 20246, Note_on_c, 1, 67, 0
3, 20248, Note_on_c, 1, 64, 45
3, 20310, Note_on_c, 1, 64, 0
3, 20312, Note_on_c, 1, 59, 45
3, 20374, Note_on_c, 1, 59, 0
3, 20376, Note_on_c, 1, 67, 45
3, 20438, Note_on_c, 1, 67, 0
3, 20440, Note_on_c, 1, 63, 45
3, 20502, Note_on_c, 1, 63, 0
3, 20504, Note_on_c, 1, 60, 45
3, 20566, Note_on_c, 1, 60, 0
3, 20568, Note_on_c, 1, 67, 45
3, 20630, Note_on_c, 1, 67, 0
3, 20632, Note_on_c, 1, 64, 45
3, 20694, Note_on_c, 1, 64, 0
3, 20696, Note_on_c, 1, 59, 45
3, 20758, Note_on_c, 1, 59, 0
3, 20760, Note_on_c, 1, 67, 45
3, 20822, Note_on_c, 1, 67, 0
3, 20824, Note_on_c, 1, 63, 45
3, 20886, Note_on_c, 1, 63, 0
3, 20888, Note_on_c, 1, 60, 45
3, 20950, Note_on_c, 1, 60, 0
3, 20952, Note_on_c, 1, 67, 45
3, 21014, Note_on_c, 1, 67, 0
3, 21016, Note_on_c, 1, 64, 45
3, 21078, Note_on_c, 1, 64, 0
3, 21080, Note_on_c, 1, 59, 45
3, 21142, Note_on_c, 1, 59, 0
3, 21144, Note_on_c, 1, 67, 45
3, 21206, Note_on_c, 1, 67, 0
3, 21208, Note_on_c, 1, 63, 45
3, 21270, Note_on_c, 1, 63, 0
3, 21272, Note_on_c, 1, 60, 45
3, 21334, Note_on_c, 1, 60, 0
3, 21336, Note_on_c, 1, 67, 45
3, 21398, Note_on_c, 1, 67, 0
3, 21400, Note_on_c, 1, 64, 45
3, 21462, Note_on_c, 1, 64, 0
3, 21464, Note_on_c, 1, 59, 45
3, 21526, Note_on_c, 1, 59, 0
3, 21528, Note_on_c, 1, 66, 45
3, 21590, Note_on_c, 1, 66, 0
3, 21592, Note_on_c, 1, 62, 45
3, 21654, Note_on_c, 1, 62, 0
3, 21656, Note_on_c, 1, 59, 45
3, 21718, Note_on_c, 1, 59, 0
3, 21720, Note_on_c, 1, 67, 45
3, 21782, Note_on_c, 1, 67, 0
3, 21784, Note_on_c, 1, 61, 45
3, 21846, Note_on_c, 1, 61, 0
3, 21848, Note_on_c, 1, 59, 45
3, 21910, Note_on_c, 1, 59, 0
3, 21912, Note_on_c, 1, 66, 45
3, 21974, Note_on_c, 1, 66, 0
3, 21976, Note_on_c, 1, 62, 45
3, 22038, Note_on_c, 1, 62, 0
3, 22040, Note_on_c, 1, 59, 45
3, 22102, Note_on_c, 1, 59, 0
3, 22104, Note_on_c, 1, 65, 45
3, 22166, Note_on_c, 1, 65, 0
3, 22168, Note_on_c, 1, 61, 45
3, 22230, Note_on_c, 1, 61, 0
3, 22232, Note_on_c, 1, 59, 45
3, 22294, Note_on_c, 1, 59, 0
3, 22296, Note_on_c, 1, 66, 45
3, 22358, Note_on_c, 1, 66, 0
3, 22360, Note_on_c, 1, 62, 45
3, 22422, Note_on_c, 1, 62, 0
3, 22424, Note_on_c, 1, 59, 45
3, 22486, Note_on_c, 1, 59, 0
3, 22488, Note_on_c, 1, 67, 45
3, 22550, Note_on_c, 1, 67, 0
3, 22552, Note_on_c, 1, 61, 45
3, 22614, Note_on_c, 1, 61, 0
3, 22616, Note_on_c, 1, 59, 45
3, 22678, Note_on_c, 1, 59, 0
3, 22680, Note_on_c, 1, 66, 45
3, 22742, Note_on_c, 1, 66, 0
3, 22744, Note_on_c, 1, 62, 45
3, 22806, Note_on_c, 1, 62, 0
3, 22808, Note_on_c, 1, 59, 45
3, 22870, Note_on_c, 1, 59, 0
3, 22872, Note_on_c, 1, 65, 45
3, 22934, Note_on_c, 1, 65, 0
3, 22936, Note_on_c, 1, 61, 45
3, 22998, Note_on_c, 1, 61, 0
3, 23000, Note_on_c, 1, 59, 45
3, 23062, Note_on_c, 1, 59, 0
3, 23064, Note_on_c, 1, 66, 45
3, 23126, Note_on_c, 1, 66, 0
3, 23128, Note_on_c, 1, 62, 45
3, 23190, Note_on_c, 1, 62, 0
3, 23192, Note_on_c, 1, 59, 45
3, 23254, Note_on_c, 1, 59, 0
3, 23256, Note_on_c, 1, 67, 45
3, 23318, Note_on_c, 1, 67, 0
3, 23320, Note_on_c, 1, 61, 45
3, 23382, Note_on_c, 1, 61, 0
3, 23384, Note_on_c, 1, 59, 45
3, 23446, Note_on_c, 1, 59, 0
3, 23448, Note_on_c, 1, 66, 45
3, 23510, Note_on_c, 1, 66, 0
3, 23512, Note_on_c, 1, 62, 45
3, 23574, Note_on_c, 1, 62, 0
3, 23576, Note_on_c, 1, 59, 45
3, 23638, Note_on_c, 1, 59, 0
3, 23640, Note_on_c, 1, 65, 45
3, 23702, Note_on_c, 1, 65, 0
3, 23704, Note_on_c, 1, 61, 45
3, 23766, Note_on_c, 1, 61, 0
3, 23768, Note_on_c, 1, 59, 45
3, 23830, Note_on_c, 1, 59, 0
3, 23832, Note_on_c, 1, 66, 45
3, 23894, Note_on_c, 1, 66, 0
3, 23896, Note_on_c, 1, 62, 45
3, 23958, Note_on_c, 1, 62, 0
3, 23960, Note_on_c, 1, 59, 45
3, 24022, Note_on_c, 1, 59, 0
3, 24024, Note_on_c, 1, 67, 45
3, 24086, Note_on_c, 1, 67, 0
3, 24088, Note_on_c, 1, 61, 45
3, 24150, Note_on_c, 1, 61, 0
3, 24152, Note_on_c, 1, 59, 45
3, 24214, Note_on_c, 1, 59, 0
3, 24216, Note_on_c, 1, 66, 45
3, 24278, Note_on_c, 1, 66, 0
3, 24280, Note_on_c, 1, 62, 45
3, 24342, Note_on_c, 1, 62, 0
3, 24344, Note_on_c, 1, 59, 45
3, 24406, Note_on_c, 1, 59, 0
3, 24408, Note_on_c, 1, 65, 45
3, 24470, Note_on_c, 1, 65, 0
3, 24472, Note_on_c, 1, 61, 45
3, 24534, Note_on_c, 1, 61, 0
3, 24536, Note_on_c, 1, 59, 45
3, 24598, Note_on_c, 1, 59, 0
3, 24600, Note_on_c, 1, 67, 45
3, 24662, Note_on_c, 1, 67, 0
3, 24664, Note_on_c, 1, 63, 45
3, 24726, Note_on_c, 1, 63, 0
3, 24728, Note_on_c, 1, 60, 45
3, 24790, Note_on_c, 1, 60, 0
3, 24792, Note_on_c, 1, 67, 45
3, 24854, Note_on_c, 1, 67, 0
3, 24856, Note_on_c, 1, 64, 45
3, 24918, Note_on_c, 1, 64, 0
3, 24920, Note_on_c, 1, 59, 45
3, 24982, Note_on_c, 1, 59, 0
3, 24984, Note_on_c, 1, 67, 45
3, 25046, Note_on_c, 1, 67, 0
3, 25048, Note_on_c, 1, 63, 45
3, 25110, Note_on_c, 1, 63, 0
3, 25112, Note_on_c, 1, 60, 45
3, 25174, Note_on_c, 1, 60, 0
3, 25176, Note_on_c, 1, 67, 45
3, 25238, Note_on_c, 1, 67, 0
3, 25240, Note_on_c, 1, 64, 45
3, 25302, Note_on_c, 1, 64, 0
3, 25304, Note_on_c, 1, 59, 45
3, 25366, Note_on_c, 1, 59, 0
3, 25368, Note_on_c, 1, 67, 45
3, 25430, Note_on_c, 1, 67, 0
3, 25432, Note_on_c, 1, 63, 45
3, 25494, Note_on_c, 1, 63, 0
3, 25496, Note_on_c, 1, 60, 45
3, 25558, Note_on_c, 1, 60, 0
3, 25560, Note_on_c, 1, 67, 45
3, 25622, Note_on_c, 1, 67, 0
3, 25624, Note_on_c, 1, 64, 45
3, 25686, Note_on_c, 1, 64, 0
3, 25688, Note_on_c, 1, 59, 45
3, 25750, Note_on_c, 1, 59, 0
3, 25752, Note_on_c, 1, 67, 45
3, 25814, Note_on_c, 1, 67, 0
3, 25816, Note_on_c, 1, 63, 45
3, 25878, Note_on_c, 1, 63, 0
3, 25880, Note_on_c, 1, 60, 45
3, 25942, Note_on_c, 1, 60, 0
3, 25944, Note_on_c, 1, 67, 45
3, 26006, Note_on_c, 1, 67, 0
3, 26008, Note_on_c, 1, 64, 45
3, 26070, Note_on_c, 1, 64, 0
3, 26072, Note_on_c, 1, 59, 45
3, 26134, Note_on_c, 1, 59, 0
3, 26136, Note_on_c, 1, 67, 45
3, 26198, Note_on_c, 1, 67, 0
3, 26200, Note_on_c, 1, 63, 45
3, 26262, Note_on_c, 1, 63, 0
3, 26264, Note_on_c, 1, 60, 45
3, 26326, Note_on_c, 1, 60, 0
3, 26328, Note_on_c, 1, 67, 45
3, 26390, Note_on_c, 1, 67, 0
3, 26392, Note_on_c, 1, 64, 45
3, 26454, Note_on_c, 1, 64, 0
3, 26456, Note_on_c, 1, 59, 45
3, 26518, Note_on_c, 1, 59, 0
3, 26520, Note_on_c, 1, 67, 45
3, 26582, Note_on_c, 1, 67, 0
3, 26584, Note_on_c, 1, 63, 45
3, 26646, Note_on_c, 1, 63, 0
3, 26648, Note_on_c, 1, 60, 45
3, 26710, Note_on_c, 1, 60, 0
3, 26712, Note_on_c, 1, 67, 45
3, 26774, Note_on_c, 1, 67, 0
3, 26776, Note_on_c, 1, 64, 45
3, 26838, Note_on_c, 1, 64, 0
3, 26840, Note_on_c, 1, 59, 45
3, 26902, Note_on_c, 1, 59, 0
3, 26904, Note_on_c, 1, 67, 45
3, 26966, Note_on_c, 1, 67, 0
3, 26968, Note_on_c, 1, 63, 45
3, 27030, Note_on_c, 1, 63, 0
3, 27032, Note_on_c, 1, 60, 45
3, 27094, Note_on_c, 1, 60, 0
3, 27096, Note_on_c, 1, 67, 45
3, 27158, Note_on_c, 1, 67, 0
3, 27160, Note_on_c, 1, 64, 45
3, 27222, Note_on_c, 1, 64, 0
3, 27224, Note_on_c, 1, 59, 45
3, 27286, Note_on_c, 1, 59, 0
3, 27288, Note_on_c, 1, 67, 45
3, 27350, Note_on_c, 1, 67, 0
3, 27352, Note_on_c, 1, 63, 45
3, 27414, Note_on_c, 1, 63, 0
3, 27416, Note_on_c, 1, 60, 45
3, 27478, Note_on_c, 1, 60, 0
3, 27480, Note_on_c, 1, 67, 45
3, 27542, Note_on_c, 1, 67, 0
3, 27544, Note_on_c, 1, 64, 45
3, 27606, Note_on_c, 1, 64, 0
3, 27608, Note_on_c, 1, 59, 45
3, 27670, Note_on_c, 1, 59, 0
3, 27672, Note_on_c, 1, 66, 45
3, 27734, Note_on_c, 1, 66, 0
3, 27736, Note_on_c, 1, 62, 45
3, 27798, Note_on_c, 1, 62, 0
3, 27800, Note_on_c, 1, 59, 45
3, 27862, Note_on_c, 1, 59, 0
3, 27864, Note_on_c, 1, 67, 45
3, 27926, Note_on_c, 1, 67, 0
3, 27928, Note_on_c, 1, 61, 45
3, 27990, Note_on_c, 1, 61, 0
3, 27992, Note_on_c, 1, 59, 45
3, 28054, Note_on_c, 1, 59, 0
3, 28056, Note_on_c, 1, 66, 45
3, 28118, Note_on_c, 1, 66, 0
3, 28120, Note_on_c, 1, 62, 45
3, 28182, Note_on_c, 1, 62, 0
3, 28184, Note_on_c, 1, 59, 45
3, 28246, Note_on_c, 1, 59, 0
3, 28248, Note_on_c, 1, 65, 45
3, 28310, Note_on_c, 1, 65, 0
3, 28312, Note_on_c, 1, 61, 45
3, 28374, Note_on_c, 1, 61, 0
3, 28376, Note_on_c, 1, 59, 45
3, 28438, Note_on_c, 1, 59, 0
3, 28440, Note_on_c, 1, 66, 45
3, 28502, Note_on_c, 1, 66, 0
3, 28504, Note_on_c, 1, 62, 45
3, 28566, Note_on_c, 1, 62, 0
3, 28568, Note_on_c, 1, 59, 45
3, 28630, Note_on_c, 1, 59, 0
3, 28632, Note_on_c, 1, 67, 45
3, 28694, Note_on_c, 1, 67, 0
3, 28696, Note_on_c, 1, 61, 45
3, 28758, Note_on_c, 1, 61, 0
3, 28760, Note_on_c, 1, 59, 45
3, 28822, Note_on_c, 1, 59, 0
3, 28824, Note_on_c, 1, 66, 45
3, 28886, Note_on_c, 1, 66, 0
3, 28888, Note_on_c, 1, 62, 45
3, 28950, Note_on_c, 1, 62, 0
3, 28952, Note_on_c, 1, 59, 45
3, 29014, Note_on_c, 1, 59, 0
3, 29016, Note_on_c, 1, 65, 45
3, 29078, Note_on_c, 1, 65, 0
3, 29080, Note_on_c, 1, 61, 45
3, 29142, Note_on_c, 1, 61, 0
3, 29144, Note_on_c, 1, 59, 45
3, 29206, Note_on_c, 1, 59, 0
3, 29208, Note_on_c, 1, 66, 45
3, 29270, Note_on_c, 1, 66, 0
3, 29272, Note_on_c, 1, 62, 45
3, 29334, Note_on_c, 1, 62, 0
3, 29336, Note_on_c, 1, 59, 45
3, 29398, Note_on_c, 1, 59, 0
3, 29400, Note_on_c, 1, 67, 45
3, 29462, Note_on_c, 1, 67, 0
3, 29464, Note_on_c, 1, 61, 45
3, 29526, Note_on_c, 1, 61, 0
3, 29528, Note_on_c, 1, 59, 45
3, 29590, Note_on_c, 1, 59, 0
3, 29592, Note_on_c, 1, 66, 45
3, 29654, Note_on_c, 1, 66, 0
3, 29656, Note_on_c, 1, 62, 45
3, 29718, Note_on_c, 1, 62, 0
3, 29720, Note_on_c, 1, 59, 45
3, 29782, Note_on_c, 1, 59, 0
3, 29784, Note_on_c, 1, 65, 45
3, 29846, Note_on_c, 1, 65, 0
3, 29848, Note_on_c, 1, 61, 45
3, 29910, Note_on_c, 1, 61, 0
3, 29912, Note_on_c, 1, 59, 45
3, 29974, Note_on_c, 1, 59, 0
3, 29976, Note_on_c, 1, 66, 45
3, 30038, Note_on_c, 1, 66, 0
3, 30040, Note_on_c, 1, 62, 45
3, 30102, Note_on_c, 1, 62, 0
3, 30104, Note_on_c, 1, 59, 45
3, 30166, Note_on_c, 1, 59, 0
3, 30168, Note_on_c, 1, 67, 45
3, 30230, Note_on_c, 1, 67, 0
3, 30232, Note_on_c, 1, 61, 45
3, 30294, Note_on_c, 1, 61, 0
3, 30296, Note_on_c, 1, 59, 45
3, 30358, Note_on_c, 1, 59, 0
3, 30360, Note_on_c, 1, 66, 45
3, 30422, Note_on_c, 1, 66, 0
3, 30424, Note_on_c, 1, 62, 45
3, 30486, Note_on_c, 1, 62, 0
3, 30488, Note_on_c, 1, 59, 45
3, 30550, Note_on_c, 1, 59, 0
3, 30552, Note_on_c, 1, 65, 45
3, 30614, Note_on_c, 1, 65, 0
3, 30616, Note_on_c, 1, 61, 45
3, 30678, Note_on_c, 1, 61, 0
3, 30680, Note_on_c, 1, 59, 45
3, 30742, Note_on_c, 1, 59, 0
3, 30744, Note_on_c, 1, 64, 45
3, 30806, Note_on_c, 1, 64, 0
3, 30808, Note_on_c, 1, 60, 45
3, 30870, Note_on_c, 1, 60, 0
3, 30872, Note_on_c, 1, 57, 45
3, 30934, Note_on_c, 1, 57, 0
3, 30936, Note_on_c, 1, 64, 45
3, 30998, Note_on_c, 1, 64, 0
3, 31000, Note_on_c, 1, 61, 45
3, 31062, Note_on_c, 1, 61, 0
3, 31064, Note_on_c, 1, 56, 45
3, 31126, Note_on_c, 1, 56, 0
3, 31128, Note_on_c, 1, 64, 45
3, 31190, Note_on_c, 1, 64, 0
3, 31192, Note_on_c, 1, 60, 45
3, 31254, Note_on_c, 1, 60, 0
3, 31256, Note_on_c, 1, 57, 45
3, 31318, Note_on_c, 1, 57, 0
3, 31320, Note_on_c, 1, 64, 45
3, 31382, Note_on_c, 1, 64, 0
3, 31384, Note_on_c, 1, 61, 45
3, 31446, Note_on_c, 1, 61, 0
3, 31448, Note_on_c, 1, 56, 45
3, 31510, Note_on_c, 1, 56, 0
3, 31512, Note_on_c, 1, 64, 45
3, 31574, Note_on_c, 1, 64, 0
3, 31576, Note_on_c, 1, 60, 45
3, 31638, Note_on_c, 1, 60, 0
3, 31640, Note_on_c, 1, 57, 45
3, 31702, Note_on_c, 1, 57, 0
3, 31704, Note_on_c, 1, 64, 45
3, 31766, Note_on_c, 1, 64, 0
3, 31768, Note_on_c, 1, 61, 45
3, 31830, Note_on_c, 1, 61, 0
3, 31832, Note_on_c, 1, 56, 45
3, 31894, Note_on_c, 1, 56, 0
3, 31896, Note_on_c, 1, 64, 45
3, 31958, Note_on_c, 1, 64, 0
3, 31960, Note_on_c, 1, 60, 45
3, 32022, Note_on_c, 1, 60, 0
3, 32024, Note_on_c, 1, 57, 45
3, 32086, Note_on_c, 1, 57, 0
3, 32088, Note_on_c, 1, 64, 45
3, 32150, Note_on_c, 1, 64, 0
3, 32152, Note_on_c, 1, 61, 45
3, 32214, Note_on_c, 1, 61, 0
3, 32216, Note_on_c, 1, 56, 45
3, 32278, Note_on_c, 1, 56, 0
3, 32280, Note_on_c, 1, 64, 45
3, 32342, Note_on_c, 1, 64, 0
3, 32344, Note_on_c, 1, 60, 45
3, 32406, Note_on_c, 1, 60, 0
3, 32408, Note_on_c, 1, 57, 45
3, 32470, Note_on_c, 1, 57, 0
3, 32472, Note_on_c, 1, 64, 45
3, 32534, Note_on_c, 1, 64, 0
3, 32536, Note_on_c, 1, 61, 45
3, 32598, Note_on_c, 1, 61, 0
3, 32600, Note_on_c, 1, 56, 45
3, 32662, Note_on_c, 1, 56, 0
3, 32664, Note_on_c, 1, 64, 45
3, 32726, Note_on_c, 1, 64, 0
3, 32728, Note_on_c, 1, 60, 45
3, 32790, Note_on_c, 1, 60, 0
3, 32792, Note_on_c, 1, 57, 45
3, 32854, Note_on_c, 1, 57, 0
3, 32856, Note_on_c, 1, 64, 45
3, 32918, Note_on_c, 1, 64, 0
3, 32920, Note_on_c, 1, 61, 45
3, 32982, Note_on_c, 1, 61, 0
3, 32984, Note_on_c, 1, 56, 45
3, 33046, Note_on_c, 1, 56, 0
3, 33048, Note_on_c, 1, 64, 45
3, 33110, Note_on_c, 1, 64, 0
3, 33112, Note_on_c, 1, 60, 45
3, 33174, Note_on_c, 1, 60, 0
3, 33176, Note_on_c, 1, 57, 45
3, 33238, Note_on_c, 1, 57, 0
3, 33240, Note_on_c, 1, 64, 45
3, 33302, Note_on_c, 1, 64, 0
3, 33304, Note_on_c, 1, 61, 45
3, 33366, Note_on_c, 1, 61, 0
3, 33368, Note_on_c, 1, 56, 45
3, 33430, Note_on_c, 1, 56, 0
3, 33432, Note_on_c, 1, 64, 45
3, 33494, Note_on_c, 1, 64, 0
3, 33496, Note_on_c, 1, 60, 45
3, 33558, Note_on_c, 1, 60, 0
3, 33560, Note_on_c, 1, 57, 45
3, 33622, Note_on_c, 1, 57, 0
3, 33624, Note_on_c, 1, 64, 45
3, 33686, Note_on_c, 1, 64, 0
3, 33688, Note_on_c, 1, 61, 45
3, 33750, Note_on_c, 1, 61, 0
3, 33752, Note_on_c, 1, 56, 45
3, 33814, Note_on_c, 1, 56, 0
3, 33816, Note_on_c, 1, 63, 45
3, 33878, Note_on_c, 1, 63, 0
3, 33880, Note_on_c, 1, 59, 45
3, 33942, Note_on_c, 1, 59, 0
3, 33944, Note_on_c, 1, 56, 45
3, 34006, Note_on_c, 1, 56, 0
3, 34008, Note_on_c, 1, 64, 45
3, 34070, Note_on_c, 1, 64, 0
3, 34072, Note_on_c, 1, 58, 45
3, 34134, Note_on_c, 1, 58, 0
3, 34136, Note_on_c, 1, 56, 45
3, 34198, Note_on_c, 1, 56, 0
3, 34200, Note_on_c, 1, 63, 45
3, 34262, Note_on_c, 1, 63, 0
3, 34264, Note_on_c, 1, 59, 45
3, 34326, Note_on_c, 1, 59, 0
3, 34328, Note_on_c, 1, 56, 45
3, 34390, Note_on_c, 1, 56, 0
3, 34392, Note_on_c, 1, 62, 45
3, 34454, Note_on_c, 1, 62, 0
3, 34456, Note_on_c, 1, 58, 45
3, 34518, Note_on_c, 1, 58, 0
3, 34520, Note_on_c, 1, 56, 45
3, 34582, Note_on_c, 1, 56, 0
3, 34584, Note_on_c, 1, 63, 45
3, 34646, Note_on_c, 1, 63, 0
3, 34648, Note_on_c, 1, 59, 45
3, 34710, Note_on_c, 1, 59, 0
3, 34712, Note_on_c, 1, 56, 45
3, 34774, Note_on_c, 1, 56, 0
3, 34776, Note_on_c, 1, 64, 45
3, 34838, Note_on_c, 1, 64, 0
3, 34840, Note_on_c, 1, 58, 45
3, 34902, Note_on_c, 1, 58, 0
3, 34904, Note_on_c, 1, 56, 45
3, 34966, Note_on_c, 1, 56, 0
3, 34968, Note_on_c, 1, 63, 45
3, 35030, Note_on_c, 1, 63, 0
3, 35032, Note_on_c, 1, 59, 45
3, 35094, Note_on_c, 1, 59, 0
3, 35096, Note_on_c, 1, 56, 45
3, 35158, Note_on_c, 1, 56, 0
3, 35160, Note_on_c, 1, 62, 45
3, 35222, Note_on_c, 1, 62, 0
3, 35224, Note_on_c, 1, 58, 45
3, 35286, Note_on_c, 1, 58, 0
3, 35288, Note_on_c, 1, 56, 45
3, 35350, Note_on_c, 1, 56, 0
3, 35352, Note_on_c, 1, 63, 45
3, 35414, Note_on_c, 1, 63, 0
3, 35416, Note_on_c, 1, 59, 45
3, 35478, Note_on_c, 1, 59, 0
3, 35480, Note_on_c, 1, 56, 45
3, 35542, Note_on_c, 1, 56, 0
3, 35544, Note_on_c, 1, 64, 45
3, 35606, Note_on_c, 1, 64, 0
3, 35608, Note_on_c, 1, 58, 45
3, 35670, Note_on_c, 1, 58, 0
3, 35672, Note_on_c, 1, 56, 45
3, 35734, Note_on_c, 1, 56, 0
3, 35736, Note_on_c, 1, 63, 45
3, 35798, Note_on_c, 1, 63, 0
3, 35800, Note_on_c, 1, 59, 45
3, 35862, Note_on_c, 1, 59, 0
3, 35864, Note_on_c, 1, 56, 45
3, 35926, Note_on_c, 1, 56, 0
3, 35928, Note_on_c, 1, 62, 45
3, 35990, Note_on_c, 1, 62, 0
3, 35992, Note_on_c, 1, 58, 45
3, 36054, Note_on_c, 1, 58, 0
3, 36056, Note_on_c, 1, 56, 45
3, 36118, Note_on_c, 1, 56, 0
3, 36120, Note_on_c, 1, 63, 45
3, 36182, Note_on_c, 1, 63, 0
3, 36184, Note_on_c, 1, 59, 45
3, 36246, Note_on_c, 1, 59, 0
3, 36248, Note_on_c, 1, 56, 45
3, 36310, Note_on_c, 1, 56, 0
3, 36312, Note_on_c, 1, 64, 45
3, 36374, Note_on_c, 1, 64, 0
3, 36376, Note_on_c, 1, 58, 45
3, 36438, Note_on_c, 1, 58, 0
3, 36440, Note_on_c, 1, 56, 45
3, 36502, Note_on_c, 1, 56, 0
3, 36504, Note_on_c, 1, 63, 45
3, 36566, Note_on_c, 1, 63, 0
3, 36568, Note_on_c, 1, 59, 45
3, 36630, Note_on_c, 1, 59, 0
3, 36632, Note_on_c, 1, 56, 45
3, 36694, Note_on_c, 1, 56, 0
3, 36696, Note_on_c, 1, 62, 45
3, 36758, Note_on_c, 1, 62, 0
3, 36760, Note_on_c, 1, 58, 45
3, 36822, Note_on_c, 1, 58, 0
3, 36824, Note_on_c, 1, 56, 45
3, 36886, Note_on_c, 1, 56, 0
3, 36888, Note_on_c, 1, 62, 45
3, 36950, Note_on_c, 1, 62, 0
3, 36952, Note_on_c, 1, 58, 45
3, 37014, Note_on_c, 1, 58, 0
3, 37016, Note_on_c, 1, 55, 45
3, 37078, Note_on_c, 1, 55, 0
3, 37080, Note_on_c, 1, 62, 45
3, 37142, Note_on_c, 1, 62, 0
3, 37144, Note_on_c, 1, 59, 45
3, 37206, Note_on_c, 1, 59, 0
3, 37208, Note_on_c, 1, 54, 45
3, 37270, Note_on_c, 1, 54, 0
3, 37272, Note_on_c, 1, 62, 45
3, 37334, Note_on_c, 1, 62, 0
3, 37336, Note_on_c, 1, 58, 45
3, 37398, Note_on_c, 1, 58, 0
3, 37400, Note_on_c, 1, 55, 45
3, 37462, Note_on_c, 1, 55, 0
3, 37464, Note_on_c, 1, 62, 45
3, 37526, Note_on_c, 1, 62, 0
3, 37528, Note_on_c, 1, 59, 45
3, 37590, Note_on_c, 1, 59, 0
3, 37592, Note_on_c, 1, 54, 45
3, 37654, Note_on_c, 1, 54, 0
3, 37656, Note_on_c, 1, 62, 45
3, 37718, Note_on_c, 1, 62, 0
3, 37720, Note_on_c, 1, 58, 45
3, 37782, Note_on_c, 1, 58, 0
3, 37784, Note_on_c, 1, 55, 45
3, 37846, Note_on_c, 1, 55, 0
3, 37848, Note_on_c, 1, 62, 45
3, 37910, Note_on_c, 1, 62, 0
3, 37912, Note_on_c, 1, 59, 45
3, 37974, Note_on_c, 1, 59, 0
3, 37976, Note_on_c, 1, 54, 45
3, 38038, Note_on_c, 1, 54, 0
3, 38040, Note_on_c, 1, 62, 45
3, 38102, Note_on_c, 1, 62, 0
3, 38104, Note_on_c, 1, 58, 45
3, 38166, Note_on_c, 1, 58, 0
3, 38168, Note_on_c, 1, 55, 45
3, 38230, Note_on_c, 1, 55, 0
3, 38232, Note_on_c, 1, 62, 45
3, 38294, Note_on_c, 1, 62, 0
3, 38296, Note_on_c, 1, 59, 45
3, 38358, Note_on_c, 1, 59, 0
3, 38360, Note_on_c, 1, 54, 45
3, 38422, Note_on_c, 1, 54, 0
3, 38424, Note_on_c, 1, 62, 45
3, 38486, Note_on_c, 1, 62, 0
3, 38488, Note_on_c, 1, 58, 45
3, 38550, Note_on_c, 1, 58, 0
3, 38552, Note_on_c, 1, 55, 45
3, 38614, Note_on_c, 1, 55, 0
3, 38616, Note_on_c, 1, 62, 45
3, 38678, Note_on_c, 1, 62, 0
3, 38680, Note_on_c, 1, 59, 45
3, 38742, Note_on_c, 1, 59, 0
3, 38744, Note_on_c, 1, 54, 45
3, 38806, Note_on_c, 1, 54, 0
3, 38808, Note_on_c, 1, 62, 45
3, 38870, Note_on_c, 1, 62, 0
3, 38872, Note_on_c, 1, 58, 45
3, 38934, Note_on_c, 1, 58, 0
3, 38936, Note_on_c, 1, 55, 45
3, 38998, Note_on_c, 1, 55, 0
3, 39000, Note_on_c, 1, 62, 45
3, 39062, Note_on_c, 1, 62, 0
3, 39064, Note_on_c, 1, 59, 45
3, 39126, Note_on_c, 1, 59, 0
3, 39128, Note_on_c, 1, 54, 45
3, 39190, Note_on_c, 1, 54, 0
3, 39192, Note_on_c, 1, 62, 45
3, 39254, Note_on_c, 1, 62, 0
3, 39256, Note_on_c, 1, 58, 45
3, 39318, Note_on_c, 1, 58, 0
3, 39320, Note_on_c, 1, 55, 45
3, 39382, Note_on_c, 1, 55, 0
3, 39384, Note_on_c, 1, 62, 45
3, 39446, Note_on_c, 1, 62, 0
3, 39448, Note_on_c, 1, 59, 45
3, 39510, Note_on_c, 1, 59, 0
3, 39512, Note_on_c, 1, 54, 45
3, 39574, Note_on_c, 1, 54, 0
3, 39576, Note_on_c, 1, 62, 45
3, 39638, Note_on_c, 1, 62, 0
3, 39640, Note_on_c, 1, 58, 45
3, 39702, Note_on_c, 1, 58, 0
3, 39704, Note_on_c, 1, 55, 45
3, 39766, Note_on_c, 1, 55, 0
3, 39768, Note_on_c, 1, 62, 45
3, 39830, Note_on_c, 1, 62, 0
3, 39832, Note_on_c, 1, 59, 45
3, 39894, Note_on_c, 1, 59, 0
3, 39896, Note_on_c, 1, 54, 45
3, 39958, Note_on_c, 1, 54, 0
3, 39960, Note_on_c, 1, 61, 45
3, 40022, Note_on_c, 1, 61, 0
3, 40024, Note_on_c, 1, 57, 45
3, 40086, Note_on_c, 1, 57, 0
3, 40088, Note_on_c, 1, 54, 45
3, 40150, Note_on_c, 1, 54, 0
3, 40152, Note_on_c, 1, 62, 45
3, 40214, Note_on_c, 1, 62, 0
3, 40216, Note_on_c, 1, 56, 45
3, 40278, Note_on_c, 1, 56, 0
3, 40280, Note_on_c, 1, 54, 45
3, 40342, Note_on_c, 1, 54, 0
3, 40344, Note_on_c, 1, 61, 45
3, 40406, Note_on_c, 1, 61, 0
3, 40408, Note_on_c, 1, 57, 45
3, 40470, Note_on_c, 1, 57, 0
3, 40472, Note_on_c, 1, 54, 45
3, 40534, Note_on_c, 1, 54, 0
3, 40536, Note_on_c, 1, 60, 45
3, 40598, Note_on_c, 1, 60, 0
3, 40600, Note_on_c, 1, 56, 45
3, 40662, Note_on_c, 1, 56, 0
3, 40664, Note_on_c, 1, 54, 45
3, 40726, Note_on_c, 1, 54, 0
3, 40728, Note_on_c, 1, 61, 45
3, 40790, Note_on_c, 1, 61, 0
3, 40792, Note_on_c, 1, 57, 45
3, 40854, Note_on_c, 1, 57, 0
3, 40856, Note_on_c, 1, 54, 45
3, 40918, Note_on_c, 1, 54, 0
3, 40920, Note_on_c, 1, 62, 45
3, 40982, Note_on_c, 1, 62, 0
3, 40984, Note_on_c, 1, 56, 45
3, 41046, Note_on_c, 1, 56, 0
3, 41048, Note_on_c, 1, 54, 45
3, 41110, Note_on_c, 1, 54, 0
3, 41112, Note_on_c, 1, 61, 45
3, 41174, Note_on_c, 1, 61, 0
3, 41176, Note_on_c, 1, 57, 45
3, 41238, Note_on_c, 1, 57, 0
3, 41240, Note_on_c, 1, 54, 45
3, 41302, Note_on_c, 1, 54, 0
3, 41304, Note_on_c, 1, 60, 45
3, 41366, Note_on_c, 1, 60, 0
3, 41368, Note_on_c, 1, 56, 45
3, 41430, Note_on_c, 1, 56, 0
3, 41432, Note_on_c, 1, 54, 45
3, 41494, Note_on_c, 1, 54, 0
3, 41496, Note_on_c, 1, 61, 45
3, 41558, Note_on_c, 1, 61, 0
3, 41560, Note_on_c, 1, 57, 45
3, 41622, Note_on_c, 1, 57, 0
3, 41624, Note_on_c, 1, 54, 45
3, 41686, Note_on_c, 1, 54, 0
3, 41688, Note_on_c, 1, 62, 45
3, 41750, Note_on_c, 1, 62, 0
3, 41752, Note_on_c, 1, 56, 45
3, 41814, Note_on_c, 1, 56, 0
3, 41816, Note_on_c, 1, 54, 45
3, 41878, Note_on_c, 1, 54, 0
3, 41880, Note_on_c, 1, 61, 45
3, 41942, Note_on_c, 1, 61, 0
3, 41944, Note_on_c, 1, 57, 45
3, 42006, Note_on_c, 1, 57, 0
3, 42008, Note_on_c, 1, 54, 45
3, 42070, Note_on_c, 1, 54, 0
3, 42072, Note_on_c, 1, 60, 45
3, 42134, Note_on_c, 1, 60, 0
3, 42136, Note_on_c, 1, 56, 45
3, 42198, Note_on_c, 1, 56, 0
3, 42200, Note_on_c, 1, 54, 45
3, 42262, Note_on_c, 1, 54, 0
3, 42264, Note_on_c, 1, 61, 45
3, 42326, Note_on_c, 1, 61, 0
3, 42328, Note_on_c, 1, 57, 45
3, 42390, Note_on_c, 1, 57, 0
3, 42392, Note_on_c, 1, 54, 45
3, 42454, Note_on_c, 1, 54, 0
3, 42456, Note_on_c, 1, 62, 45
3, 42518, Note_on_c, 1, 62, 0
3, 42520, Note_on_c, 1, 56, 45
3, 42582, Note_on_c, 1, 56, 0
3, 42584, Note_on_c, 1, 54, 45
3, 42646, Note_on_c, 1, 54, 0
3, 42648, Note_on_c, 1, 61, 45
3, 42710, Note_on_c, 1, 61, 0
3, 42712, Note_on_c, 1, 57, 45
3, 42774, Note_on_c, 1, 57, 0
3, 42776, Note_on_c, 1, 54, 45
3, 42838, Note_on_c, 1, 54, 0
3, 42840, Note_on_c, 1, 60, 45
3, 42902, Note_on_c, 1, 60, 0
3, 42904, Note_on_c, 1, 56, 45
3, 42966, Note_on_c, 1, 56, 0
3, 42968, Note_on_c, 1, 54, 45
3, 43030, Note_on_c, 1, 54, 0
3, 43032, Note_on_c, 1, 67, 45
3, 43094, Note_on_c, 1, 67, 0
3, 43096, Note_on_c, 1, 63, 45
3, 43158, Note_on_c, 1, 63, 0
3, 43160, Note_on_c, 1, 60, 45
3, 43222, Note_on_c, 1, 60, 0
3, 43224, Note_on_c, 1, 67, 45
3, 43286, Note_on_c, 1, 67, 0
3, 43288, Note_on_c, 1, 64, 45
3, 43350, Note_on_c, 1, 64, 0
3, 43352, Note_on_c, 1, 59, 45
3, 43414, Note_on_c, 1, 59, 0
3, 43416, Note_on_c, 1, 67, 45
3, 43478, Note_on_c, 1, 67, 0
3, 43480, Note_on_c, 1, 63, 45
3, 43542, Note_on_c, 1, 63, 0
3, 43544, Note_on_c, 1, 60, 45
3, 43606, Note_on_c, 1, 60, 0
3, 43608, Note_on_c, 1, 67, 45
3, 43670, Note_on_c, 1, 67, 0
3, 43672, Note_on_c, 1, 64, 45
3, 43734, Note_on_c, 1, 64, 0
3, 43736, Note_on_c, 1, 59, 45
3, 43798, Note_on_c, 1, 59, 0
3, 43800, Note_on_c, 1, 67, 45
3, 43862, Note_on_c, 1, 67, 0
3, 43864, Note_on_c, 1, 63, 45
3, 43926, Note_on_c, 1, 63, 0
3, 43928, Note_on_c, 1, 60, 45
3, 43990, Note_on_c, 1, 60, 0
3, 43992, Note_on_c, 1, 67, 45
3, 44054, Note_on_c, 1, 67, 0
3, 44056, Note_on_c, 1, 64, 45
3, 44118, Note_on_c, 1, 64, 0
3, 44120, Note_on_c, 1, 59, 45
3, 44182, Note_on_c, 1, 59, 0
3, 44184, Note_on_c, 1, 67, 45
3, 44246, Note_on_c, 1, 67, 0
3, 44248, Note_on_c, 1, 63, 45
3, 44310, Note_on_c, 1, 63, 0
3, 44312, Note_on_c, 1, 60, 45
3, 44374, Note_on_c, 1, 60, 0
3, 44376, Note_on_c, 1, 67, 45
3, 44438, Note_on_c, 1, 67, 0
3, 44440, Note_on_c, 1, 64, 45
3, 44502, Note_on_c, 1, 64, 0
3, 44504, Note_on_c, 1, 59, 45
3, 44566, Note_on_c, 1, 59, 0
3, 44568, Note_on_c, 1, 67, 45
3, 44630, Note_on_c, 1, 67, 0
3, 44632, Note_on_c, 1, 63, 45
3, 44694, Note_on_c, 1, 63, 0
3, 44696, Note_on_c, 1, 60, 45
3, 44758, Note_on_c, 1, 60, 0
3, 44760, Note_on_c, 1, 67, 45
3, 44822, Note_on_c, 1, 67, 0
3, 44824, Note_on_c, 1, 64, 45
3, 44886, Note_on_c, 1, 64, 0
3, 44888, Note_on_c, 1, 59, 45
3, 44950, Note_on_c, 1, 59, 0
3, 44952, Note_on_c, 1, 67, 45
3, 45014, Note_on_c, 1, 67, 0
3, 45016, Note_on_c, 1, 63, 45
3, 45078, Note_on_c, 1, 63, 0
3, 45080, Note_on_c, 1, 60, 45
3, 45142, Note_on_c, 1, 60, 0
3, 45144, Note_on_c, 1, 67, 45
3, 45206, Note_on_c, 1, 67, 0
3, 45208, Note_on_c, 1, 64, 45
3, 45270, Note_on_c, 1, 64, 0
3, 45272, Note_on_c, 1, 59, 45
3, 45334, Note_on_c, 1, 59, 0
3, 45336, Note_on_c, 1, 67, 45
3, 45398, Note_on_c, 1, 67, 0
3, 45400, Note_on_c, 1, 63, 45
3, 45462, Note_on_c, 1, 63, 0
3, 45464, Note_on_c, 1, 60, 45
3, 45526, Note_on_c, 1, 60, 0
3, 45528, Note_on_c, 1, 67, 45
3, 45590, Note_on_c, 1, 67, 0
3, 45592, Note_on_c, 1, 64, 45
3, 45654, Note_on_c, 1, 64, 0
3, 45656, Note_on_c, 1, 59, 45
3, 45718, Note_on_c, 1, 59, 0
3, 45720, Note_on_c, 1, 67, 45
3, 45782, Note_on_c, 1, 67, 0
3, 45784, Note_on_c, 1, 63, 45
3, 45846, Note_on_c, 1, 63, 0
3, 45848, Note_on_c, 1, 60, 45
3, 45910, Note_on_c, 1, 60, 0
3, 45912, Note_on_c, 1, 67, 45
3, 45974, Note_on_c, 1, 67, 0
3, 45976, Note_on_c, 1, 64, 45
3, 46038, Note_on_c, 1, 64, 0
3, 46040, Note_on_c, 1, 59, 45
3, 46102, Note_on_c, 1, 59, 0
3, 46104, Note_on_c, 1, 66, 45
3, 46166, Note_on_c, 1, 66, 0
3, 46168, Note_on_c, 1, 62, 45
3, 46230, Note_on_c, 1, 62, 0
3, 46232, Note_on_c, 1, 59, 45
3, 46294, Note_on_c, 1, 59, 0
3, 46296, Note_on_c, 1, 67, 45
3, 46358, Note_on_c, 1, 67, 0
3, 46360, Note_on_c, 1, 61, 45
3, 46422, Note_on_c, 1, 61, 0
3, 46424, Note_on_c, 1, 59, 45
3, 46486, Note_on_c, 1, 59, 0
3, 46488, Note_on_c, 1, 66, 45
3, 46550, Note_on_c, 1, 66, 0
3, 46552, Note_on_c, 1, 62, 45
3, 46614, Note_on_c, 1, 62, 0
3, 46616, Note_on_c, 1, 59, 45
3, 46678, Note_on_c, 1, 59, 0
3, 46680, Note_on_c, 1, 65, 45
3, 46742, Note_on_c, 1, 65, 0
3, 46744, Note_on_c, 1, 61, 45
3, 46806, Note_on_c, 1, 61, 0
3, 46808, Note_on_c, 1, 59, 45
3, 46870, Note_on_c, 1, 59, 0
3, 46872, Note_on_c, 1, 66, 45
3, 46934, Note_on_c, 1, 66, 0
3, 46936, Note_on_c, 1, 62, 45
3, 46998, Note_on_c, 1, 62, 0
3, 47000, Note_on_c, 1, 59, 45
3, 47062, Note_on_c, 1, 59, 0
3, 47064, Note_on_c, 1, 67, 45
3, 47126, Note_on_c, 1, 67, 0
3, 47128, Note_on_c, 1, 61, 45
3, 47190, Note_on_c, 1, 61, 0
3, 47192, Note_on_c, 1, 59, 45
3, 47254, Note_on_c, 1, 59, 0
3, 47256, Note_on_c, 1, 66, 45
3, 47318, Note_on_c, 1, 66, 0
3, 47320, Note_on_c, 1, 62, 45
3, 47382, Note_on_c, 1, 62, 0
3, 47384, Note_on_c, 1, 59, 45
3, 47446, Note_on_c, 1, 59, 0
3, 47448, Note_on_c, 1, 65, 45
3, 47510, Note_on_c, 1, 65, 0
3, 47512, Note_on_c, 1, 61, 45
3, 47574, Note_on_c, 1, 61, 0
3, 47576, Note_on_c, 1, 59, 45
3, 47638, Note_on_c, 1, 59, 0
3, 47640, Note_on_c, 1, 66, 45
3, 47702, Note_on_c, 1, 66, 0
3, 47704, Note_on_c, 1, 62, 45
3, 47766, Note_on_c, 1, 62, 0
3, 47768, Note_on_c, 1, 59, 45
3, 47830, Note_on_c, 1, 59, 0
3, 47832, Note_on_c, 1, 67, 45
3, 47894, Note_on_c, 1, 67, 0
3, 47896, Note_on_c, 1, 61, 45
3, 47958, Note_on_c, 1, 61, 0
3, 47960, Note_on_c, 1, 59, 45
3, 48022, Note_on_c, 1, 59, 0
3, 48024, Note_on_c, 1, 66, 45
3, 48086, Note_on_c, 1, 66, 0
3, 48088, Note_on_c, 1, 62, 45
3, 48150, Note_on_c, 1, 62, 0
3, 48152, Note_on_c, 1, 59, 45
3, 48214, Note_on_c, 1, 59, 0
3, 48216, Note_on_c, 1, 65, 45
3, 48278, Note_on_c, 1, 65, 0
3, 48280, Note_on_c, 1, 61, 45
3, 48342, Note_on_c, 1, 61, 0
3, 48344, Note_on_c, 1, 59, 45
3, 48406, Note_on_c, 1, 59, 0
3, 48408, Note_on_c, 1, 66, 45
3, 48470, Note_on_c, 1, 66, 0
3, 48472, Note_on_c, 1, 62, 45
3, 48534, Note_on_c, 1, 62, 0
3, 48536, Note_on_c, 1, 59, 45
3, 48598, Note_on_c, 1, 59, 0
3, 48600, Note_on_c, 1, 67, 45
3, 48662, Note_on_c, 1, 67, 0
3, 48664, Note_on_c, 1, 61, 45
3, 48726, Note_on_c, 1, 61, 0
3, 48728, Note_on_c, 1, 59, 45
3, 48790, Note_on_c, 1, 59, 0
3, 48792, Note_on_c, 1, 66, 45
3, 48854, Note_on_c, 1, 66, 0
3, 48856, Note_on_c, 1, 62, 45
3, 48918, Note_on_c, 1, 62, 0
3, 48920, Note_on_c, 1, 59, 45
3, 48982, Note_on_c, 1, 59, 0
3, 48984, Note_on_c, 1, 65, 45
3, 49046, Note_on_c, 1, 65, 0
3, 49048, Note_on_c, 1, 61, 45
3, 49110, Note_on_c, 1, 61, 0
3, 49112, Note_on_c, 1, 59, 45
3, 49174, Note_on_c, 1, 59, 0
3, 49176, Note_on_c, 1, 67, 45
3, 49238, Note_on_c, 1, 67, 0
3, 49240, Note_on_c, 1, 63, 45
3, 49302, Note_on_c, 1, 63, 0
3, 49304, Note_on_c, 1, 60, 45
3, 49366, Note_on_c, 1, 60, 0
3, 49368, Note_on_c, 1, 67, 45
3, 49430, Note_on_c, 1, 67, 0
3, 49432, Note_on_c, 1, 64, 45
3, 49494, Note_on_c, 1, 64, 0
3, 49496, Note_on_c, 1, 59, 45
3, 49558, Note_on_c, 1, 59, 0
3, 49560, Note_on_c, 1, 67, 45
3, 49622, Note_on_c, 1, 67, 0
3, 49624, Note_on_c, 1, 63, 45
3, 49686, Note_on_c, 1, 63, 0
3, 49688, Note_on_c, 1, 60, 45
3, 49750, Note_on_c, 1, 60, 0
3, 49752, Note_on_c, 1, 67, 45
3, 49814, Note_on_c, 1, 67, 0
3, 49816, Note_on_c, 1, 64, 45
3, 49878, Note_on_c, 1, 64, 0
3, 49880, Note_on_c, 1, 59, 45
3, 49942, Note_on_c, 1, 59, 0
3, 49944, Note_on_c, 1, 67, 45
3, 50006, Note_on_c, 1, 67, 0
3, 50008, Note_on_c, 1, 63, 45
3, 50070, Note_on_c, 1, 63, 0
3, 50072, Note_on_c, 1, 60, 45
3, 50134, Note_on_c, 1, 60, 0
3, 50136, Note_on_c, 1, 67, 45
3, 50198, Note_on_c, 1, 67, 0
3, 50200, Note_on_c, 1, 64, 45
3, 50262, Note_on_c, 1, 64, 0
3, 50264, Note_on_c, 1, 59, 45
3, 50326, Note_on_c, 1, 59, 0
3, 50328, Note_on_c, 1, 67, 45
3, 50390, Note_on_c, 1, 67, 0
3, 50392, Note_on_c, 1, 63, 45
3, 50454, Note_on_c, 1, 63, 0
3, 50456, Note_on_c, 1, 60, 45
3, 50518, Note_on_c, 1, 60, 0
3, 50520, Note_on_c, 1, 67, 45
3, 50582, Note_on_c, 1, 67, 0
3, 50584, Note_on_c, 1, 64, 45
3, 50646, Note_on_c, 1, 64, 0
3, 50648, Note_on_c, 1, 59, 45
3, 50710, Note_on_c, 1, 59, 0
3, 50712, Note_on_c, 1, 67, 45
3, 50774, Note_on_c, 1, 67, 0
3, 50776, Note_on_c, 1, 63, 45
3, 50838, Note_on_c, 1, 63, 0
3, 50840, Note_on_c, 1, 60, 45
3, 50902, Note_on_c, 1, 60, 0
3, 50904, Note_on_c, 1, 67, 45
3, 50966, Note_on_c, 1, 67, 0
3, 50968, Note_on_c, 1, 64, 45
3, 51030, Note_on_c, 1, 64, 0
3, 51032, Note_on_c, 1, 59, 45
3, 51094, Note_on_c, 1, 59, 0
3, 51096, Note_on_c, 1, 67, 45
3, 51158, Note_on_c, 1, 67, 0
3, 51160, Note_on_c, 1, 63, 45
3, 51222, Note_on_c, 1, 63, 0
3, 51224, Note_on_c, 1, 60, 45
3, 51286, Note_on_c, 1, 60, 0
3, 51288, Note_on_c, 1, 67, 45
3, 51350, Note_on_c, 1, 67, 0
3, 51352, Note_on_c, 1, 64, 45
3, 51414, Note_on_c, 1, 64, 0
3, 51416, Note_on_c, 1, 59, 45
3, 51478, Note_on_c, 1, 59, 0
3, 51480, Note_on_c, 1, 67, 45
3, 51542, Note_on_c, 1, 67, 0
3, 51544, Note_on_c, 1, 63, 45
3, 51606, Note_on_c, 1, 63, 0
3, 51608, Note_on_c, 1, 60, 45
3, 51670, Note_on_c, 1, 60, 0
3, 51672, Note_on_c, 1, 67, 45
3, 51734, Note_on_c, 1, 67, 0
3, 51736, Note_on_c, 1, 64, 45
3, 51798, Note_on_c, 1, 64, 0
3, 51800, Note_on_c, 1, 59, 45
3, 51862, Note_on_c, 1, 59, 0
3, 51864, Note_on_c, 1, 67, 45
3, 51926, Note_on_c, 1, 67, 0
3, 51928, Note_on_c, 1, 63, 45
3, 51990, Note_on_c, 1, 63, 0
3, 51992, Note_on_c, 1, 60, 45
3, 52054, Note_on_c, 1, 60, 0
3, 52056, Note_on_c, 1, 67, 45
3, 52118, Note_on_c, 1, 67, 0
3, 52120, Note_on_c, 1, 64, 45
3, 52182, Note_on_c, 1, 64, 0
3, 52184, Note_on_c, 1, 59, 45
3, 52246, Note_on_c, 1, 59, 0
3, 52248, Note_on_c, 1, 66, 45
3, 52310, Note_on_c, 1, 66, 0
3, 52312, Note_on_c, 1, 62, 45
3, 52374, Note_on_c, 1, 62, 0
3, 52376, Note_on_c, 1, 59, 45
3, 52438, Note_on_c, 1, 59, 0
3, 52440, Note_on_c, 1, 67, 45
3, 52502, Note_on_c, 1, 67, 0
3, 52504, Note_on_c, 1, 61, 45
3, 52566, Note_on_c, 1, 61, 0
3, 52568, Note_on_c, 1, 59, 45
3, 52630, Note_on_c, 1, 59, 0
3, 52632, Note_on_c, 1, 66, 45
3, 52694, Note_on_c, 1, 66, 0
3, 52696, Note_on_c, 1, 62, 45
3, 52758, Note_on_c, 1, 62, 0
3, 52760, Note_on_c, 1, 59, 45
3, 52822, Note_on_c, 1, 59, 0
3, 52824, Note_on_c, 1, 65, 45
3, 52886, Note_on_c, 1, 65, 0
3, 52888, Note_on_c, 1, 61, 45
3, 52950, Note_on_c, 1, 61, 0
3, 52952, Note_on_c, 1, 59, 45
3, 53014, Note_on_c, 1, 59, 0
3, 53016, Note_on_c, 1, 66, 45
3, 53078, Note_on_c, 1, 66, 0
3, 53080, Note_on_c, 1, 62, 45
3, 53142, Note_on_c, 1, 62, 0
3, 53144, Note_on_c, 1, 59, 45
3, 53206, Note_on_c, 1, 59, 0
3, 53208, Note_on_c, 1, 67, 45
3, 53270, Note_on_c, 1, 67, 0
3, 53272, Note_on_c, 1, 61, 45
3, 53334, Note_on_c, 1, 61, 0
3, 53336, Note_on_c, 1, 59, 45
3, 53398, Note_on_c, 1, 59, 0
3, 53400, Note_on_c, 1, 66, 45
3, 53462, Note_on_c, 1, 66, 0
3, 53464, Note_on_c, 1, 62, 45
3, 53526, Note_on_c, 1, 62, 0
3, 53528, Note_on_c, 1, 59, 45
3, 53590, Note_on_c, 1, 59, 0
3, 53592, Note_on_c, 1, 65, 45
3, 53654, Note_on_c, 1, 65, 0
3, 53656, Note_on_c, 1, 61, 45
3, 53718, Note_on_c, 1, 61, 0
3, 53720, Note_on_c, 1, 59, 45
3, 53782, Note_on_c, 1, 59, 0
3, 53784, Note_on_c, 1, 66, 45
3, 53846, Note_on_c, 1, 66, 0
3, 53848, Note_on_c, 1, 62, 45
3, 53910, Note_on_c, 1, 62, 0
3, 53912, Note_on_c, 1, 59, 45
3, 53974, Note_on_c, 1, 59, 0
3, 53976, Note_on_c, 1, 67, 45
3, 54038, Note_on_c, 1, 67, 0
3, 54040, Note_on_c, 1, 61, 45
3, 54102, Note_on_c, 1, 61, 0
3, 54104, Note_on_c, 1, 59, 45
3, 54166, Note_on_c, 1, 59, 0
3, 54168, Note_on_c, 1, 66, 45
3, 54230, Note_on_c, 1, 66, 0
3, 54232, Note_on_c, 1, 62, 45
3, 54294, Note_on_c, 1, 62, 0
3, 54296, Note_on_c, 1, 59, 45
3, 54358, Note_on_c, 1, 59, 0
3, 54360, Note_on_c, 1, 65, 45
3, 54422, Note_on_c, 1, 65, 0
3, 54424, Note_on_c, 1, 61, 45
3, 54486, Note_on_c, 1, 61, 0
3, 54488, Note_on_c, 1, 59, 45
3, 54550, Note_on_c, 1, 59, 0
3, 54552, Note_on_c, 1, 66, 45
3, 54614, Note_on_c, 1, 66, 0
3, 54616, Note_on_c, 1, 62, 45
3, 54678, Note_on_c, 1, 62, 0
3, 54680, Note_on_c, 1, 59, 45
3, 54742, Note_on_c, 1, 59, 0
3, 54744, Note_on_c, 1, 67, 45
3, 54806, Note_on_c, 1, 67, 0
3, 54808, Note_on_c, 1, 61, 45
3, 54870, Note_on_c, 1, 61, 0
3, 54872, Note_on_c, 1, 59, 45
3, 54934, Note_on_c, 1, 59, 0
3, 54936, Note_on_c, 1, 66, 45
3, 54998, Note_on_c, 1, 66, 0
3, 55000, Note_on_c, 1, 62, 45
3, 55062, Note_on_c, 1, 62, 0
3, 55064, Note_on_c, 1, 59, 45
3, 55126, Note_on_c, 1, 59, 0
3, 55128, Note_on_c, 1, 65, 45
3, 55190, Note_on_c, 1, 65, 0
3, 55192, Note_on_c, 1, 61, 45
3, 55254, Note_on_c, 1, 61, 0
3, 55256, Note_on_c, 1, 59, 45
3, 55318, Note_on_c, 1, 59, 0
3, 55320, Note_on_c, 1, 67, 45
3, 55382, Note_on_c, 1, 67, 0
3, 55384, Note_on_c, 1, 63, 45
3, 55446, Note_on_c, 1, 63, 0
3, 55448, Note_on_c, 1, 60, 45
3, 55510, Note_on_c, 1, 60, 0
3, 55512, Note_on_c, 1, 67, 45
3, 55574, Note_on_c, 1, 67, 0
3, 55576, Note_on_c, 1, 64, 45
3, 55638, Note_on_c, 1, 64, 0
3, 55640, Note_on_c, 1, 59, 45
3, 55702, Note_on_c, 1, 59, 0
3, 55704, Note_on_c, 1, 67, 45
3, 55766, Note_on_c, 1, 67, 0
3, 55768, Note_on_c, 1, 63, 45
3, 55830, Note_on_c, 1, 63, 0
3, 55832, Note_on_c, 1, 60, 45
3, 55894, Note_on_c, 1, 60, 0
3, 55896, Note_on_c, 1, 67, 45
3, 55958, Note_on_c, 1, 67, 0
3, 55960, Note_on_c, 1, 64, 45
3, 56022, Note_on_c, 1, 64, 0
3, 56024, Note_on_c, 1, 59, 45
3, 56086, Note_on_c, 1, 59, 0
3, 56088, Note_on_c, 1, 67, 45
3, 56150, Note_on_c, 1, 67, 0
3, 56152, Note_on_c, 1, 63, 45
3, 56214, Note_on_c, 1, 63, 0
3, 56216, Note_on_c, 1, 60, 45
3, 56278, Note_on_c, 1, 60, 0
3, 56280, Note_on_c, 1, 67, 45
3, 56342, Note_on_c, 1, 67, 0
3, 56344, Note_on_c, 1, 64, 45
3, 56406, Note_on_c, 1, 64, 0
3, 56408, Note_on_c, 1, 59, 45
3, 56470, Note_on_c, 1, 59, 0
3, 56472, Note_on_c, 1, 67, 45
3, 56534, Note_on_c, 1, 67, 0
3, 56536, Note_on_c, 1, 63, 45
3, 56598, Note_on_c, 1, 63, 0
3, 56600, Note_on_c, 1, 60, 45
3, 56662, Note_on_c, 1, 60, 0
3, 56664, Note_on_c, 1, 67, 45
3, 56726, Note_on_c, 1, 67, 0
3, 56728, Note_on_c, 1, 64, 45
3, 56790, Note_on_c, 1, 64, 0
3, 56792, Note_on_c, 1, 59, 45
3, 56854, Note_on_c, 1, 59, 0
3, 56856, Note_on_c, 1, 67, 45
3, 56918, Note_on_c, 1, 67, 0
3, 56920, Note_on_c, 1, 63, 45
3, 56982, Note_on_c, 1, 63, 0
3, 56984, Note_on_c, 1, 60, 45
3, 57046, Note_on_c, 1, 60, 0
3, 57048, Note_on_c, 1, 67, 45
3, 57110, Note_on_c, 1, 67, 0
3, 57112, Note_on_c, 1, 64, 45
3, 57174, Note_on_c, 1, 64, 0
3, 57176, Note_on_c, 1, 59, 45
3, 57238, Note_on_c, 1, 59, 0
3, 57240, Note_on_c, 1, 67, 45
3, 57302, Note_on_c, 1, 67, 0
3, 57304, Note_on_c, 1, 63, 45
3, 57366, Note_on_c, 1, 63, 0
3, 57368, Note_on_c, 1, 60, 45
3, 57430, Note_on_c, 1, 60, 0
3, 57432, Note_on_c, 1, 67, 45
3, 57494, Note_on_c, 1, 67, 0
3, 57496, Note_on_c, 1, 64, 45
3, 57558, Note_on_c, 1, 64, 0
3, 57560, Note_on_c, 1, 59, 45
3, 57622, Note_on_c, 1, 59, 0
3, 57624, Note_on_c, 1, 67, 45
3, 57686, Note_on_c, 1, 67, 0
3, 57688, Note_on_c, 1, 63, 45
3, 57750, Note_on_c, 1, 63, 0
3, 57752, Note_on_c, 1, 60, 45
3, 57814, Note_on_c, 1, 60, 0
3, 57816, Note_on_c, 1, 67, 45
3, 57878, Note_on_c, 1, 67, 0
3, 57880, Note_on_c, 1, 64, 45
3, 57942, Note_on_c, 1, 64, 0
3, 57944, Note_on_c, 1, 59, 45
3, 58006, Note_on_c, 1, 59, 0
3, 58008, Note_on_c, 1, 67, 45
3, 58070, Note_on_c, 1, 67, 0
3, 58072, Note_on_c, 1, 63, 45
3, 58134, Note_on_c, 1, 63, 0
3, 58136, Note_on_c, 1, 60, 45
3, 58198, Note_on_c, 1, 60, 0
3, 58200, Note_on_c, 1, 67, 45
3, 58262, Note_on_c, 1, 67, 0
3, 58264, Note_on_c, 1, 64, 45
3, 58326, Note_on_c, 1, 64, 0
3, 58328, Note_on_c, 1, 59, 45
3, 58390, Note_on_c, 1, 59, 0
3, 58392, Note_on_c, 1, 66, 45
3, 58454, Note_on_c, 1, 66, 0
3, 58456, Note_on_c, 1, 62, 45
3, 58518, Note_on_c, 1, 62, 0
3, 58520, Note_on_c, 1, 59, 45
3, 58582, Note_on_c, 1, 59, 0
3, 58584, Note_on_c, 1, 67, 45
3, 58646, Note_on_c, 1, 67, 0
3, 58648, Note_on_c, 1, 61, 45
3, 58710, Note_on_c, 1, 61, 0
3, 58712, Note_on_c, 1, 59, 45
3, 58774, Note_on_c, 1, 59, 0
3, 58776, Note_on_c, 1, 66, 45
3, 58838, Note_on_c, 1, 66, 0
3, 58840, Note_on_c, 1, 62, 45
3, 58902, Note_on_c, 1, 62, 0
3, 58904, Note_on_c, 1, 59, 45
3, 58966, Note_on_c, 1, 59, 0
3, 58968, Note_on_c, 1, 65, 45
3, 59030, Note_on_c, 1, 65, 0
3, 59032, Note_on_c, 1, 61, 45
3, 59094, Note_on_c, 1, 61, 0
3, 59096, Note_on_c, 1, 59, 45
3, 59158, Note_on_c, 1, 59, 0
3, 59160, Note_on_c, 1, 66, 45
3, 59222, Note_on_c, 1, 66, 0
3, 59224, Note_on_c, 1, 62, 45
3, 59286, Note_on_c, 1, 62, 0
3, 59288, Note_on_c, 1, 59, 45
3, 59350, Note_on_c, 1, 59, 0
3, 59352, Note_on_c, 1, 67, 45
3, 59414, Note_on_c, 1, 67, 0
3, 59416, Note_on_c, 1, 61, 45
3, 59478, Note_on_c, 1, 61, 0
3, 59480, Note_on_c, 1, 59, 45
3, 59542, Note_on_c, 1, 59, 0
3, 59544, Note_on_c, 1, 66, 45
3, 59606, Note_on_c, 1, 66, 0
3, 59608, Note_on_c, 1, 62, 45
3, 59670, Note_on_c, 1, 62, 0
3, 59672, Note_on_c, 1, 59, 45
3, 59734, Note_on_c, 1, 59, 0
3, 59736, Note_on_c, 1, 65, 45
3, 59798, Note_on_c, 1, 65, 0
3, 59800, Note_on_c, 1, 61, 45
3, 59862, Note_on_c, 1, 61, 0
3, 59864, Note_on_c, 1, 59, 45
3, 59926, Note_on_c, 1, 59, 0
3, 59928, Note_on_c, 1, 66, 45
3, 59990, Note_on_c, 1, 66, 0
3, 59992, Note_on_c, 1, 62, 45
3, 60054, Note_on_c, 1, 62, 0
3, 60056, Note_on_c, 1, 59, 45
3, 60118, Note_on_c, 1, 59, 0
3, 60120, Note_on_c, 1, 67, 45
3, 60182, Note_on_c, 1, 67, 0
3, 60184, Note_on_c, 1, 61, 45
3, 60246, Note_on_c, 1, 61, 0
3, 60248, Note_on_c, 1, 59, 45
3, 60310, Note_on_c, 1, 59, 0
3, 60312, Note_on_c, 1, 66, 45
3, 60374, Note_on_c, 1, 66, 0
3, 60376, Note_on_c, 1, 62, 45
3, 60438, Note_on_c, 1, 62, 0
3, 60440, Note_on_c, 1, 59, 45
3, 60502, Note_on_c, 1, 59, 0
3, 60504, Note_on_c, 1, 65, 45
3, 60566, Note_on_c, 1, 65, 0
3, 60568, Note_on_c, 1, 61, 45
3, 60630, Note_on_c, 1, 61, 0
3, 60632, Note_on_c, 1, 59, 45
3, 60694, Note_on_c, 1, 59, 0
3, 60696, Note_on_c, 1, 66, 45
3, 60758, Note_on_c, 1, 66, 0
3, 60760, Note_on_c, 1, 62, 45
3, 60822, Note_on_c, 1, 62, 0
3, 60824, Note_on_c, 1, 59, 45
3, 60886, Note_on_c, 1, 59, 0
3, 60888, Note_on_c, 1, 67, 45
3, 60950, Note_on_c, 1, 67, 0
3, 60952, Note_on_c, 1, 61, 45
3, 61014, Note_on_c, 1, 61, 0
3, 61016, Note_on_c, 1, 59, 45
3, 61078, Note_on_c, 1, 59, 0
3, 61080, Note_on_c, 1, 66, 45
3, 61142, Note_on_c, 1, 66, 0
3, 61144, Note_on_c, 1, 62, 45
3, 61206, Note_on_c, 1, 62, 0
3, 61208, Note_on_c, 1, 59, 45
3, 61270, Note_on_c, 1, 59, 0
3, 61272, Note_on_c, 1, 65, 45
3, 61334, Note_on_c, 1, 65, 0
3, 61336, Note_on_c, 1, 61, 45
3, 61398, Note_on_c, 1, 61, 0
3, 61400, Note_on_c, 1, 59, 45
3, 61462, Note_on_c, 1, 59, 0
3, 61464, Note_on_c, 1, 67, 45
3, 61526, Note_on_c, 1, 67, 0
3, 61528, Note_on_c, 1, 63, 45
3, 61590, Note_on_c, 1, 63, 0
3, 61592, Note_on_c, 1, 60, 45
3, 61654, Note_on_c, 1, 60, 0
3, 61656, Note_on_c, 1, 67, 45
3, 61718, Note_on_c, 1, 67, 0
3, 61720, Note_on_c, 1, 64, 45
3, 61782, Note_on_c, 1, 64, 0
3, 61784, Note_on_c, 1, 59, 45
3, 61846, Note_on_c, 1, 59, 0
3, 61848, Note_on_c, 1, 67, 45
3, 61910, Note_on_c, 1, 67, 0
3, 61912, Note_on_c, 1, 63, 45
3, 61974, Note_on_c, 1, 63, 0
3, 61976, Note_on_c, 1, 60, 45
3, 62038, Note_on_c, 1, 60, 0
3, 62040, Note_on_c, 1, 67, 45
3, 62102, Note_on_c, 1, 67, 0
3, 62104, Note_on_c, 1, 64, 45
3, 62166, Note_on_c, 1, 64, 0
3, 62168, Note_on_c, 1, 59, 45
3, 62230, Note_on_c, 1, 59, 0
3, 62232, Note_on_c, 1, 67, 45
3, 62294, Note_on_c, 1, 67, 0
3, 62296, Note_on_c, 1, 63, 45
3, 62358, Note_on_c, 1, 63, 0
3, 62360, Note_on_c, 1, 60, 45
3, 62422, Note_on_c, 1, 60, 0
3, 62424, Note_on_c, 1, 67, 45
3, 62486, Note_on_c, 1, 67, 0
3, 62488, Note_on_c, 1, 64, 45
3, 62550, Note_on_c, 1, 64, 0
3, 62552, Note_on_c, 1, 59, 45
3, 62614, Note_on_c, 1, 59, 0
3, 62616, Note_on_c, 1, 67, 45
3, 62678, Note_on_c, 1, 67, 0
3, 62680, Note_on_c, 1, 63, 45
3, 62742, Note_on_c, 1, 63, 0
3, 62744, Note_on_c, 1, 60, 45
3, 62806, Note_on_c, 1, 60, 0
3, 62808, Note_on_c, 1, 67, 45
3, 62870, Note_on_c, 1, 67, 0
3, 62872, Note_on_c, 1, 64, 45
3, 62934, Note_on_c, 1, 64, 0
3, 62936, Note_on_c, 1, 59, 45
3, 62998, Note_on_c, 1, 59, 0
3, 63000, Note_on_c, 1, 67, 45
3, 63062, Note_on_c, 1, 67, 0
3, 63064, Note_on_c, 1, 63, 45
3, 63126, Note_on_c, 1, 63, 0
3, 63128, Note_on_c, 1, 60, 45
3, 63190, Note_on_c, 1, 60, 0
3, 63192, Note_on_c, 1, 67, 45
3, 63254, Note_on_c, 1, 67, 0
3, 63256, Note_on_c, 1, 64, 45
3, 63318, Note_on_c, 1, 64, 0
3, 63320, Note_on_c, 1, 59, 45
3, 63382, Note_on_c, 1, 59, 0
3, 63384, Note_on_c, 1, 67, 45
3, 63446, Note_on_c, 1, 67, 0
3, 63448, Note_on_c, 1, 63, 45
3, 63510, Note_on_c, 1, 63, 0
3, 63512, Note_on_c, 1, 60, 45
3, 63574, Note_on_c, 1, 60, 0
3, 63576, Note_on_c, 1, 67, 45
3, 63638, Note_on_c, 1, 67, 0
3, 63640, Note_on_c, 1, 64, 45
3, 63702, Note_on_c, 1, 64, 0
3, 63704, Note_on_c, 1, 59, 45
3, 63766, Note_on_c, 1, 59, 0
3, 63768, Note_on_c, 1, 67, 45
3, 63830, Note_on_c, 1, 67, 0
3, 63832, Note_on_c, 1, 63, 45
3, 63894, Note_on_c, 1, 63, 0
3, 63896, Note_on_c, 1, 60, 45
3, 63958, Note_on_c, 1, 60, 0
3, 63960, Note_on_c, 1, 67, 45
3, 64022, Note_on_c, 1, 67, 0
3, 64024, Note_on_c, 1, 64, 45
3, 64086, Note_on_c, 1, 64, 0
3, 64088, Note_on_c, 1, 59, 45
3, 64150, Note_on_c, 1, 59, 0
3, 64152, Note_on_c, 1, 67, 45
3, 64214, Note_on_c, 1, 67, 0
3, 64216, Note_on_c, 1, 63, 45
3, 64278, Note_on_c, 1, 63, 0
3, 64280, Note_on_c, 1, 60, 45
3, 64342, Note_on_c, 1, 60, 0
3, 64344, Note_on_c, 1, 67, 45
3, 64406, Note_on_c, 1, 67, 0
3, 64408, Note_on_c, 1, 64, 45
3, 64470, Note_on_c, 1, 64, 0
3, 64472, Note_on_c, 1, 59, 45
3, 64534, Note_on_c, 1, 59, 0
3, 64536, Note_on_c, 1, 66, 45
3, 64598, Note_on_c, 1, 66, 0
3, 64600, Note_on_c, 1, 62, 45
3, 64662, Note_on_c, 1, 62, 0
3, 64664, Note_on_c, 1, 59, 45
3, 64726, Note_on_c, 1, 59, 0
3, 64728, Note_on_c, 1, 67, 45
3, 64790, Note_on_c, 1, 67, 0
3, 64792, Note_on_c, 1, 61, 45
3, 64854, Note_on_c, 1, 61, 0
3, 64856, Note_on_c, 1, 59, 45
3, 64918, Note_on_c, 1, 59, 0
3, 64920, Note_on_c, 1, 66, 45
3, 64982, Note_on_c, 1, 66, 0
3, 64984, Note_on_c, 1, 62, 45
3, 65046, Note_on_c, 1, 62, 0
3, 65048, Note_on_c, 1, 59, 45
3, 65110, Note_on_c, 1, 59, 0
3, 65112, Note_on_c, 1, 65, 45
3, 65174, Note_on_c, 1, 65, 0
3, 65176, Note_on_c, 1, 61, 45
3, 65238, Note_on_c, 1, 61, 0
3, 65240, Note_on_c, 1, 59, 45
3, 65302, Note_on_c, 1, 59, 0
3, 65304, Note_on_c, 1, 66, 45
3, 65366, Note_on_c, 1, 66, 0
3, 65368, Note_on_c, 1, 62, 45
3, 65430, Note_on_c, 1, 62, 0
3, 65432, Note_on_c, 1, 59, 45
3, 65494, Note_on_c, 1, 59, 0
3, 65496, Note_on_c, 1, 67, 45
3, 65558, Note_on_c, 1, 67, 0
3, 65560, Note_on_c, 1, 61, 45
3, 65622, Note_on_c, 1, 61, 0
3, 65624, Note_on_c, 1, 59, 45
3, 65686, Note_on_c, 1, 59, 0
3, 65688, Note_on_c, 1, 66, 45
3, 65750, Note_on_c, 1, 66, 0
3, 65752, Note_on_c, 1, 62, 45
3, 65814, Note_on_c, 1, 62, 0
3, 65816, Note_on_c, 1, 59, 45
3, 65878, Note_on_c, 1, 59, 0
3, 65880, Note_on_c, 1, 65, 45
3, 65942, Note_on_c, 1, 65, 0
3, 65944, Note_on_c, 1, 61, 45
3, 66006, Note_on_c, 1, 61, 0
3, 66008, Note_on_c, 1, 59, 45
3, 66070, Note_on_c, 1, 59, 0
3, 66072, Note_on_c, 1, 66, 45
3, 66134, Note_on_c, 1, 66, 0
3, 66136, Note_on_c, 1, 62, 45
3, 66198, Note_on_c, 1, 62, 0
3, 66200, Note_on_c, 1, 59, 45
3, 66262, Note_on_c, 1, 59, 0
3, 66264, Note_on_c, 1, 67, 45
3, 66326, Note_on_c, 1, 67, 0
3, 66328, Note_on_c, 1, 61, 45
3, 66390, Note_on_c, 1, 61, 0
3, 66392, Note_on_c, 1, 59, 45
3, 66454, Note_on_c, 1, 59, 0
3, 66456, Note_on_c, 1, 66, 45
3, 66518, Note_on_c, 1, 66, 0
3, 66520, Note_on_c, 1, 62, 45
3, 66582, Note_on_c, 1, 62, 0
3, 66584, Note_on_c, 1, 59, 45
3, 66646, Note_on_c, 1, 59, 0
3, 66648, Note_on_c, 1, 65, 45
3, 66710, Note_on_c, 1, 65, 0
3, 66712, Note_on_c, 1, 61, 45
3, 66774, Note_on_c, 1, 61, 0
3, 66776, Note_on_c, 1, 59, 45
3, 66838, Note_on_c, 1, 59, 0
3, 66840, Note_on_c, 1, 66, 45
3, 66902, Note_on_c, 1, 66, 0
3, 66904, Note_on_c, 1, 62, 45
3, 66966, Note_on_c, 1, 62, 0
3, 66968, Note_on_c, 1, 59, 45
3, 67030, Note_on_c, 1, 59, 0
3, 67032, Note_on_c, 1, 67, 45
3, 67094, Note_on_c, 1, 67, 0
3, 67096, Note_on_c, 1, 61, 45
3, 67158, Note_on_c, 1, 61, 0
3, 67160, Note_on_c, 1, 59, 45
3, 67222, Note_on_c, 1, 59, 0
3, 67224, Note_on_c, 1, 66, 45
3, 67286, Note_on_c, 1, 66, 0
3, 67288, Note_on_c, 1, 62, 45
3, 67350, Note_on_c, 1, 62, 0
3, 67352, Note_on_c, 1, 59, 45
3, 67414, Note_on_c, 1, 59, 0
3, 67416, Note_on_c, 1, 65, 45
3, 67478, Note_on_c, 1, 65, 0
3, 67480, Note_on_c, 1, 61, 45
3, 67542, Note_on_c, 1, 61, 0
3, 67544, Note_on_c, 1, 59, 45
3, 67606, Note_on_c, 1, 59, 0
3, 67608, Note_on_c, 1, 64, 45
3, 67670, Note_on_c, 1, 64, 0
3, 67672, Note_on_c, 1, 60, 45
3, 67734, Note_on_c, 1, 60, 0
3, 67736, Note_on_c, 1, 57, 45
3, 67798, Note_on_c, 1, 57, 0
3, 67800, Note_on_c, 1, 64, 45
3, 67862, Note_on_c, 1, 64, 0
3, 67864, Note_on_c, 1, 61, 45
3, 67926, Note_on_c, 1, 61, 0
3, 67928, Note_on_c, 1, 56, 45
3, 67990, Note_on_c, 1, 56, 0
3, 67992, Note_on_c, 1, 64, 45
3, 68054, Note_on_c, 1, 64, 0
3, 68056, Note_on_c, 1, 60, 45
3, 68118, Note_on_c, 1, 60, 0
3, 68120, Note_on_c, 1, 57, 45
3, 68182, Note_on_c, 1, 57, 0
3, 68184, Note_on_c, 1, 64, 45
3, 68246, Note_on_c, 1, 64, 0
3, 68248, Note_on_c, 1, 61, 45
3, 68310, Note_on_c, 1, 61, 0
3, 68312, Note_on_c, 1, 56, 45
3, 68374, Note_on_c, 1, 56, 0
3, 68376, Note_on_c, 1, 64, 45
3, 68438, Note_on_c, 1, 64, 0
3, 68440, Note_on_c, 1, 60, 45
3, 68502, Note_on_c, 1, 60, 0
3, 68504, Note_on_c, 1, 57, 45
3, 68566, Note_on_c, 1, 57, 0
3, 68568, Note_on_c, 1, 64, 45
3, 68630, Note_on_c, 1, 64, 0
3, 68632, Note_on_c, 1, 61, 45
3, 68694, Note_on_c, 1, 61, 0
3, 68696, Note_on_c, 1, 56, 45
3, 68758, Note_on_c, 1, 56, 0
3, 68760, Note_on_c, 1, 64, 45
3, 68822, Note_on_c, 1, 64, 0
3, 68824, Note_on_c, 1, 60, 45
3, 68886, Note_on_c, 1, 60, 0
3, 68888, Note_on_c, 1, 57, 45
3, 68950, Note_on_c, 1, 57, 0
3, 68952, Note_on_c, 1, 64, 45
3, 69014, Note_on_c, 1, 64, 0
3, 69016, Note_on_c, 1, 61, 45
3, 69078, Note_on_c, 1, 61, 0
3, 69080, Note_on_c, 1, 56, 45
3, 69142, Note_on_c, 1, 56, 0
3, 69144, Note_on_c, 1, 64, 45
3, 69206, Note_on_c, 1, 64, 0
3, 69208, Note_on_c, 1, 60, 45
3, 69270, Note_on_c, 1, 60, 0
3, 69272, Note_on_c, 1, 57, 45
3, 69334, Note_on_c, 1, 57, 0
3, 69336, Note_on_c, 1, 64, 45
3, 69398, Note_on_c, 1, 64, 0
3, 69400, Note_on_c, 1, 61, 45
3, 69462, Note_on_c, 1, 61, 0
3, 69464, Note_on_c, 1, 56, 45
3, 69526, Note_on_c, 1, 56, 0
3, 69528, Note_on_c, 1, 64, 45
3, 69590, Note_on_c, 1, 64, 0
3, 69592, Note_on_c, 1, 60, 45
3, 69654, Note_on_c, 1, 60, 0
3, 69656, Note_on_c, 1, 57, 45
3, 69718, Note_on_c, 1, 57, 0
3, 69720, Note_on_c, 1, 64, 45
3, 69782, Note_on_c, 1, 64, 0
3, 69784, Note_on_c, 1, 61, 45
3, 69846, Note_on_c, 1, 61, 0
3, 69848, Note_on_c, 1, 56, 45
3, 69910, Note_on_c, 1, 56, 0
3, 69912, Note_on_c, 1, 64, 45
3, 69974, Note_on_c, 1, 64, 0
3, 69976, Note_on_c, 1, 60, 45
3, 70038, Note_on_c, 1, 60, 0
3, 70040, Note_on_c, 1, 57, 45
3, 70102, Note_on_c, 1, 57, 0
3, 70104, Note_on_c, 1, 64, 45
3, 70166, Note_on_c, 1, 64, 0
3, 70168, Note_on_c, 1, 61, 45
3, 70230, Note_on_c, 1, 61, 0
3, 70232, Note_on_c, 1, 56, 45
3, 70294, Note_on_c, 1, 56, 0
3, 70296, Note_on_c, 1, 64, 45
3, 70358, Note_on_c, 1, 64, 0
3, 70360, Note_on_c, 1, 60, 45
3, 70422, Note_on_c, 1, 60, 0
3, 70424, Note_on_c, 1, 57, 45
3, 70486, Note_on_c, 1, 57, 0
3, 70488, Note_on_c, 1, 64, 45
3, 70550, Note_on_c, 1, 64, 0
3, 70552, Note_on_c, 1, 61, 45
3, 70614, Note_on_c, 1, 61, 0
3, 70616, Note_on_c, 1, 56, 45
3, 70678, Note_on_c, 1, 56, 0
3, 70680, Note_on_c, 1, 63, 45
3, 70742, Note_on_c, 1, 63, 0
3, 70744, Note_on_c, 1, 59, 45
3, 70806, Note_on_c, 1, 59, 0
3, 70808, Note_on_c, 1, 56, 45
3, 70870, Note_on_c, 1, 56, 0
3, 70872, Note_on_c, 1, 64, 45
3, 70934, Note_on_c, 1, 64, 0
3, 70936, Note_on_c, 1, 58, 45
3, 70998, Note_on_c, 1, 58, 0
3, 71000, Note_on_c, 1, 56, 45
3, 71062, Note_on_c, 1, 56, 0
3, 71064, Note_on_c, 1, 63, 45
3, 71126, Note_on_c, 1, 63, 0
3, 71128, Note_on_c, 1, 59, 45
3, 71190, Note_on_c, 1, 59, 0
3, 71192, Note_on_c, 1, 56, 45
3, 71254, Note_on_c, 1, 56, 0
3, 71256, Note_on_c, 1, 62, 45
3, 71318, Note_on_c, 1, 62, 0
3, 71320, Note_on_c, 1, 58, 45
3, 71382, Note_on_c, 1, 58, 0
3, 71384, Note_on_c, 1, 56, 45
3, 71446, Note_on_c, 1, 56, 0
3, 71448, Note_on_c, 1, 63, 45
3, 71510, Note_on_c, 1, 63, 0
3, 71512, Note_on_c, 1, 59, 45
3, 71574, Note_on_c, 1, 59, 0
3, 71576, Note_on_c, 1, 56, 45
3, 71638, Note_on_c, 1, 56, 0
3, 71640, Note_on_c, 1, 64, 45
3, 71702, Note_on_c, 1, 64, 0
3, 71704, Note_on_c, 1, 58, 45
3, 71766, Note_on_c, 1, 58, 0
3, 71768, Note_on_c, 1, 56, 45
3, 71830, Note_on_c, 1, 56, 0
3, 71832, Note_on_c, 1, 63, 45
3, 71894, Note_on_c, 1, 63, 0
3, 71896, Note_on_c, 1, 59, 45
3, 71958, Note_on_c, 1, 59, 0
3, 71960, Note_on_c, 1, 56, 45
3, 72022, Note_on_c, 1, 56, 0
3, 72024, Note_on_c, 1, 62, 45
3, 72086, Note_on_c, 1, 62, 0
3, 72088, Note_on_c, 1, 58, 45
3, 72150, Note_on_c, 1, 58, 0
3, 72152, Note_on_c, 1, 56, 45
3, 72214, Note_on_c, 1, 56, 0
3, 72216, Note_on_c, 1, 63, 45
3, 72278, Note_on_c, 1, 63, 0
3, 72280, Note_on_c, 1, 59, 45
3, 72342, Note_on_c, 1, 59, 0
3, 72344, Note_on_c, 1, 56, 45
3, 72406, Note_on_c, 1, 56, 0
3, 72408, Note_on_c, 1, 64, 45
3, 72470, Note_on_c, 1, 64, 0
3, 72472, Note_on_c, 1, 58, 45
3, 72534, Note_on_c, 1, 58, 0
3, 72536, Note_on_c, 1, 56, 45
3, 72598, Note_on_c, 1, 56, 0
3, 72600, Note_on_c, 1, 63, 45
3, 72662, Note_on_c, 1, 63, 0
3, 72664, Note_on_c, 1, 59, 45
3, 72726, Note_on_c, 1, 59, 0
3, 72728, Note_on_c, 1, 56, 45
3, 72790, Note_on_c, 1, 56, 0
3, 72792, Note_on_c, 1, 62, 45
3, 72854, Note_on_c, 1, 62, 0
3, 72856, Note_on_c, 1, 58, 45
3, 72918, Note_on_c, 1, 58, 0
3, 72920, Note_on_c, 1, 56, 45
3, 72982, Note_on_c, 1, 56, 0
3, 72984, Note_on_c, 1, 63, 45
3, 73046, Note_on_c, 1, 63, 0
3, 73048, Note_on_c, 1, 59, 45
3, 73110, Note_on_c, 1, 59, 0
3, 73112, Note_on_c, 1, 56, 45
3, 73174, Note_on_c, 1, 56, 0
3, 73176, Note_on_c, 1, 64, 45
3, 73238, Note_on_c, 1, 64, 0
3, 73240, Note_on_c, 1, 58, 45
3, 73302, Note_on_c, 1, 58, 0
3, 73304, Note_on_c, 1, 56, 45
3, 73366, Note_on_c, 1, 56, 0
3, 73368, Note_on_c, 1, 63, 45
3, 73430, Note_on_c, 1, 63, 0
3, 73432, Note_on_c, 1, 59, 45
3, 73494, Note_on_c, 1, 59, 0
3, 73496, Note_on_c, 1, 56, 45
3, 73558, Note_on_c, 1, 56, 0
3, 73560, Note_on_c, 1, 62, 45
3, 73622, Note_on_c, 1, 62, 0
3, 73624, Note_on_c, 1, 58, 45
3, 73686, Note_on_c, 1, 58, 0
3, 73688, Note_on_c, 1, 56, 45
3, 73750, Note_on_c, 1, 56, 0
3, 73752, Note_on_c, 1, 62, 45
3, 73814, Note_on_c, 1, 62, 0
3, 73816, Note_on_c, 1, 58, 45
3, 73878, Note_on_c, 1, 58, 0
3, 73880, Note_on_c, 1, 55, 45
3, 73942, Note_on_c, 1, 55, 0
3, 73944, Note_on_c, 1, 62, 45
3, 74006, Note_on_c, 1, 62, 0
3, 74008, Note_on_c, 1, 59, 45
3, 74070, Note_on_c, 1, 59, 0
3, 74072, Note_on_c, 1, 54, 45
3, 74134, Note_on_c, 1, 54, 0
3, 74136, Note_on_c, 1, 62, 45
3, 74198, Note_on_c, 1, 62, 0
3, 74200, Note_on_c, 1, 58, 45
3, 74262, Note_on_c, 1, 58, 0
3, 74264, Note_on_c, 1, 55, 45
3, 74326, Note_on_c, 1, 55, 0
3, 74328, Note_on_c, 1, 62, 45
3, 74390, Note_on_c, 1, 62, 0
3, 74392, Note_on_c, 1, 59, 45
3, 74454, Note_on_c, 1, 59, 0
3, 74456, Note_on_c, 1, 54, 45
3, 74518, Note_on_c, 1, 54, 0
3, 74520, Note_on_c, 1, 62, 45
3, 74582, Note_on_c, 1, 62, 0
3, 74584, Note_on_c, 1, 58, 45
3, 74646, Note_on_c, 1, 58, 0
3, 74648, Note_on_c, 1, 55, 45
3, 74710, Note_on_c, 1, 55, 0
3, 74712, Note_on_c, 1, 62, 45
3, 74774, Note_on_c, 1, 62, 0
3, 74776, Note_on_c, 1, 59, 45
3, 74838, Note_on_c, 1, 59, 0
3, 74840, Note_on_c, 1, 54, 45
3, 74902, Note_on_c, 1, 54, 0
3, 74904, Note_on_c, 1, 62, 45
3, 74966, Note_on_c, 1, 62, 0
3, 74968, Note_on_c, 1, 58, 45
3, 75030, Note_on_c, 1, 58, 0
3, 75032, Note_on_c, 1, 55, 45
3, 75094, Note_on_c, 1, 55, 0
3, 75096, Note_on_c, 1, 62, 45
3, 75158, Note_on_c, 1, 62, 0
3, 75160, Note_on_c, 1, 59, 45
3, 75222, Note_on_c, 1, 59, 0
3, 75224, Note_on_c, 1, 54, 45
3, 75286, Note_on_c, 1, 54, 0
3, 75288, Note_on_c, 1, 62, 45
3, 75350, Note_on_c, 1, 62, 0
3, 75352, Note_on_c, 1, 58, 45
3, 75414, Note_on_c, 1, 58, 0
3, 75416, Note_on_c, 1, 55, 45
3, 75478, Note_on_c, 1, 55, 0
3, 75480, Note_on_c, 1, 62, 45
3, 75542, Note_on_c, 1, 62, 0
3, 75544, Note_on_c, 1, 59, 45
3, 75606, Note_on_c, 1, 59, 0
3, 75608, Note_on_c, 1, 54, 45
3, 75670, Note_on_c, 1, 54, 0
3, 75672, Note_on_c, 1, 62, 45
3, 75734, Note_on_c, 1, 62, 0
3, 75736, Note_on_c, 1, 58, 45
3, 75798, Note_on_c, 1, 58, 0
3, 75800, Note_on_c, 1, 55, 45
3, 75862, Note_on_c, 1, 55, 0
3, 75864, Note_on_c, 1, 62, 45
3, 75926, Note_on_c, 1, 62, 0
3, 75928, Note_on_c, 1, 59, 45
3, 75990, Note_on_c, 1, 59, 0
3, 75992, Note_on_c, 1, 54, 45
3, 76054, Note_on_c, 1, 54, 0
3, 76056, Note_on_c, 1, 62, 45
3, 76118, Note_on_c, 1, 62, 0
3, 76120, Note_on_c, 1, 58, 45
3, 76182, Note_on_c, 1, 58, 0
3, 76184, Note_on_c, 1, 55, 45
3, 76246, Note_on_c, 1, 55, 0
3, 76248, Note_on_c, 1, 62, 45
3, 76310, Note_on_c, 1, 62, 0
3, 76312, Note_on_c, 1, 59, 45
3, 76374, Note_on_c, 1, 59, 0
3, 76376, Note_on_c, 1, 54, 45
3, 76438, Note_on_c, 1, 54, 0
3, 76440, Note_on_c, 1, 62, 45
3, 76502, Note_on_c, 1, 62, 0
3, 76504, Note_on_c, 1, 58, 45
3, 76566, Note_on_c, 1, 58, 0
3, 76568, Note_on_c, 1, 55, 45
3, 76630, Note_on_c, 1, 55, 0
3, 76632, Note_on_c, 1, 62, 45
3, 76694, Note_on_c, 1, 62, 0
3, 76696, Note_on_c, 1, 59, 45
3, 76758, Note_on_c, 1, 59, 0
3, 76760, Note_on_c, 1, 54, 45
3, 76822, Note_on_c, 1, 54, 0
3, 76824, Note_on_c, 1, 61, 45
3, 76886, Note_on_c, 1, 61, 0
3, 76888, Note_on_c, 1, 57, 45
3, 76950, Note_on_c, 1, 57, 0
3, 76952, Note_on_c, 1, 54, 45
3, 77014, Note_on_c, 1, 54, 0
3, 77016, Note_on_c, 1, 62, 45
3, 77078, Note_on_c, 1, 62, 0
3, 77080, Note_on_c, 1, 56, 45
3, 77142, Note_on_c, 1, 56, 0
3, 77144, Note_on_c, 1, 54, 45
3, 77206, Note_on_c, 1, 54, 0
3, 77208, Note_on_c, 1, 61, 45
3, 77270, Note_on_c, 1, 61, 0
3, 77272, Note_on_c, 1, 57, 45
3, 77334, Note_on_c, 1, 57, 0
3, 77336, Note_on_c, 1, 54, 45
3, 77398, Note_on_c, 1, 54, 0
3, 77400, Note_on_c, 1, 60, 45
3, 77462, Note_on_c, 1, 60, 0
3, 77464, Note_on_c, 1, 56, 45
3, 77526, Note_on_c, 1, 56, 0
3, 77528, Note_on_c, 1, 54, 45
3, 77590, Note_on_c, 1, 54, 0
3, 77592, Note_on_c, 1, 61, 45
3, 77654, Note_on_c, 1, 61, 0
3, 77656, Note_on_c, 1, 57, 45
3, 77718, Note_on_c, 1, 57, 0
3, 77720, Note_on_c, 1, 54, 45
3, 77782, Note_on_c, 1, 54, 0
3, 77784, Note_on_c, 1, 62, 45
3, 77846, Note_on_c, 1, 62, 0
3, 77848, Note_on_c, 1, 56, 45
3, 77910, Note_on_c, 1, 56, 0
3, 77912, Note_on_c, 1, 54, 45
3, 77974, Note_on_c, 1, 54, 0
3, 77976, Note_on_c, 1, 61, 45
3, 78038, Note_on_c, 1, 61, 0
3, 78040, Note_on_c, 1, 57, 45
3, 78102, Note_on_c, 1, 57, 0
3, 78104, Note_on_c, 1, 54, 45
3, 78166, Note_on_c, 1, 54, 0
3, 78168, Note_on_c, 1, 60, 45
3, 78230, Note_on_c, 1, 60, 0
3, 78232, Note_on_c, 1, 56, 45
3, 78294, Note_on_c, 1, 56, 0
3, 78296, Note_on_c, 1, 54, 45
3, 78358, Note_on_c, 1, 54, 0
3, 78360, Note_on_c, 1, 61, 45
3, 78422, Note_on_c, 1, 61, 0
3, 78424, Note_on_c, 1, 57, 45
3, 78486, Note_on_c, 1, 57, 0
3, 78488, Note_on_c, 1, 54, 45
3, 78550, Note_on_c, 1, 54, 0
3, 78552, Note_on_c, 1, 62, 45
3, 78614, Note_on_c, 1, 62, 0
3, 78616, Note_on_c, 1, 56, 45
3, 78678, Note_on_c, 1, 56, 0
3, 78680, Note_on_c, 1, 54, 45
3, 78742, Note_on_c, 1, 54, 0
3, 78744, Note_on_c, 1, 61, 45
3, 78806, Note_on_c, 1, 61, 0
3, 78808, Note_on_c, 1, 57, 45
3, 78870, Note_on_c, 1, 57, 0
3, 78872, Note_on_c, 1, 54, 45
3, 78934, Note_on_c, 1, 54, 0
3, 78936, Note_on_c, 1, 60, 45
3, 78998, Note_on_c, 1, 60, 0
3, 79000, Note_on_c, 1, 56, 45
3, 79062, Note_on_c, 1, 56, 0
3, 79064, Note_on_c, 1, 54, 45
3, 79126, Note_on_c, 1, 54, 0
3, 79128, Note_on_c, 1, 61, 45
3, 79190, Note_on_c, 1, 61, 0
3, 79192, Note_on_c, 1, 57, 45
3, 79254, Note_on_c, 1, 57, 0
3, 79256, Note_on_c, 1, 54, 45
3, 79318, Note_on_c, 1, 54, 0
3, 79320, Note_on_c, 1, 62, 45
3, 79382, Note_on_c, 1, 62, 0
3, 79384, Note_on_c, 1, 56, 45
3, 79446, Note_on_c, 1, 56, 0
3, 79448, Note_on_c, 1, 54, 45
3, 79510, Note_on_c, 1, 54, 0
3, 79512, Note_on_c, 1, 61, 45
3, 79574, Note_on_c, 1, 61, 0
3, 79576, Note_on_c, 1, 57, 45
3, 79638, Note_on_c, 1, 57, 0
3, 79640, Note_on_c, 1, 54, 45
3, 79702, Note_on_c, 1, 54, 0
3, 79704, Note_on_c, 1, 60, 45
3, 79766, Note_on_c, 1, 60, 0
3, 79768, Note_on_c, 1, 56, 45
3, 79830, Note_on_c, 1, 56, 0
3, 79832, Note_on_c, 1, 54, 45
3, 79894, Note_on_c, 1, 54, 0
3, 79894, End_track
4, 0, Start_track
4, 0, MIDI_port, 0
4, 0, Title_t, "Staff-2"
4, 0, Control_c, 2, 7, 127
4, 0, Control_c, 2, 10, 30
4, 0, Control_c, 2, 7, 127
4, 0, Control_c, 2, 10, 30
4, 0, Program_c, 2, 81
4, 48, Note_on_c, 2, 67, 30
4, 110, Note_on_c, 2, 67, 0
4, 112, Note_on_c, 2, 63, 30
4, 174, Note_on_c, 2, 63, 0
4, 176, Note_on_c, 2, 60, 30
4, 238, Note_on_c, 2, 60, 0
4, 240, Note_on_c, 2, 67, 30
4, 302, Note_on_c, 2, 67, 0
4, 304, Note_on_c, 2, 64, 30
4, 366, Note_on_c, 2, 64, 0
4, 368, Note_on_c, 2, 59, 30
4, 430, Note_on_c, 2, 59, 0
4, 432, Note_on_c, 2, 67, 30
4, 494, Note_on_c, 2, 67, 0
4, 496, Note_on_c, 2, 63, 30
4, 558, Note_on_c, 2, 63, 0
4, 560, Note_on_c, 2, 60, 30
4, 622, Note_on_c, 2, 60, 0
4, 624, Note_on_c, 2, 67, 30
4, 686, Note_on_c, 2, 67, 0
4, 688, Note_on_c, 2, 64, 30
4, 750, Note_on_c, 2, 64, 0
4, 752, Note_on_c, 2, 59, 30
4, 814, Note_on_c, 2, 59, 0
4, 816, Note_on_c, 2, 67, 30
4, 878, Note_on_c, 2, 67, 0
4, 880, Note_on_c, 2, 63, 30
4, 942, Note_on_c, 2, 63, 0
4, 944, Note_on_c, 2, 60, 30
4, 1006, Note_on_c, 2, 60, 0
4, 1008, Note_on_c, 2, 67, 30
4, 1070, Note_on_c, 2, 67, 0
4, 1072, Note_on_c, 2, 64, 30
4, 1134, Note_on_c, 2, 64, 0
4, 1136, Note_on_c, 2, 59, 30
4, 1198, Note_on_c, 2, 59, 0
4, 1200, Note_on_c, 2, 67, 30
4, 1262, Note_on_c, 2, 67, 0
4, 1264, Note_on_c, 2, 63, 30
4, 1326, Note_on_c, 2, 63, 0
4, 1328, Note_on_c, 2, 60, 30
4, 1390, Note_on_c, 2, 60, 0
4, 1392, Note_on_c, 2, 67, 30
4, 1454, Note_on_c, 2, 67, 0
4, 1456, Note_on_c, 2, 64, 30
4, 1518, Note_on_c, 2, 64, 0
4, 1520, Note_on_c, 2, 59, 30
4, 1582, Note_on_c, 2, 59, 0
4, 1584, Note_on_c, 2, 67, 30
4, 1646, Note_on_c, 2, 67, 0
4, 1648, Note_on_c, 2, 63, 30
4, 1710, Note_on_c, 2, 63, 0
4, 1712, Note_on_c, 2, 60, 30
4, 1774, Note_on_c, 2, 60, 0
4, 1776, Note_on_c, 2, 67, 30
4, 1838, Note_on_c, 2, 67, 0
4, 1840, Note_on_c, 2, 64, 30
4, 1902, Note_on_c, 2, 64, 0
4, 1904, Note_on_c, 2, 59, 30
4, 1966, Note_on_c, 2, 59, 0
4, 1968, Note_on_c, 2, 67, 30
4, 2030, Note_on_c, 2, 67, 0
4, 2032, Note_on_c, 2, 63, 30
4, 2094, Note_on_c, 2, 63, 0
4, 2096, Note_on_c, 2, 60, 30
4, 2158, Note_on_c, 2, 60, 0
4, 2160, Note_on_c, 2, 67, 30
4, 2222, Note_on_c, 2, 67, 0
4, 2224, Note_on_c, 2, 64, 30
4, 2286, Note_on_c, 2, 64, 0
4, 2288, Note_on_c, 2, 59, 30
4, 2350, Note_on_c, 2, 59, 0
4, 2352, Note_on_c, 2, 67, 30
4, 2414, Note_on_c, 2, 67, 0
4, 2416, Note_on_c, 2, 63, 30
4, 2478, Note_on_c, 2, 63, 0
4, 2480, Note_on_c, 2, 60, 30
4, 2542, Note_on_c, 2, 60, 0
4, 2544, Note_on_c, 2, 67, 30
4, 2606, Note_on_c, 2, 67, 0
4, 2608, Note_on_c, 2, 64, 30
4, 2670, Note_on_c, 2, 64, 0
4, 2672, Note_on_c, 2, 59, 30
4, 2734, Note_on_c, 2, 59, 0
4, 2736, Note_on_c, 2, 67, 30
4, 2798, Note_on_c, 2, 67, 0
4, 2800, Note_on_c, 2, 63, 30
4, 2862, Note_on_c, 2, 63, 0
4, 2864, Note_on_c, 2, 60, 30
4, 2926, Note_on_c, 2, 60, 0
4, 2928, Note_on_c, 2, 67, 30
4, 2990, Note_on_c, 2, 67, 0
4, 2992, Note_on_c, 2, 64, 30
4, 3054, Note_on_c, 2, 64, 0
4, 3056, Note_on_c, 2, 59, 30
4, 3118, Note_on_c, 2, 59, 0
4, 3120, Note_on_c, 2, 66, 30
4, 3182, Note_on_c, 2, 66, 0
4, 3184, Note_on_c, 2, 62, 30
4, 3246, Note_on_c, 2, 62, 0
4, 3248, Note_on_c, 2, 59, 30
4, 3310, Note_on_c, 2, 59, 0
4, 3312, Note_on_c, 2, 67, 30
4, 3374, Note_on_c, 2, 67, 0
4, 3376, Note_on_c, 2, 61, 30
4, 3438, Note_on_c, 2, 61, 0
4, 3440, Note_on_c, 2, 59, 30
4, 3502, Note_on_c, 2, 59, 0
4, 3504, Note_on_c, 2, 66, 30
4, 3566, Note_on_c, 2, 66, 0
4, 3568, Note_on_c, 2, 62, 30
4, 3630, Note_on_c, 2, 62, 0
4, 3632, Note_on_c, 2, 59, 30
4, 3694, Note_on_c, 2, 59, 0
4, 3696, Note_on_c, 2, 65, 30
4, 3758, Note_on_c, 2, 65, 0
4, 3760, Note_on_c, 2, 61, 30
4, 3822, Note_on_c, 2, 61, 0
4, 3824, Note_on_c, 2, 59, 30
4, 3886, Note_on_c, 2, 59, 0
4, 3888, Note_on_c, 2, 66, 30
4, 3950, Note_on_c, 2, 66, 0
4, 3952, Note_on_c, 2, 62, 30
4, 4014, Note_on_c, 2, 62, 0
4, 4016, Note_on_c, 2, 59, 30
4, 4078, Note_on_c, 2, 59, 0
4, 4080, Note_on_c, 2, 67, 30
4, 4142, Note_on_c, 2, 67, 0
4, 4144, Note_on_c, 2, 61, 30
4, 4206, Note_on_c, 2, 61, 0
4, 4208, Note_on_c, 2, 59, 30
4, 4270, Note_on_c, 2, 59, 0
4, 4272, Note_on_c, 2, 66, 30
4, 4334, Note_on_c, 2, 66, 0
4, 4336, Note_on_c, 2, 62, 30
4, 4398, Note_on_c, 2, 62, 0
4, 4400, Note_on_c, 2, 59, 30
4, 4462, Note_on_c, 2, 59, 0
4, 4464, Note_on_c, 2, 65, 30
4, 4526, Note_on_c, 2, 65, 0
4, 4528, Note_on_c, 2, 61, 30
4, 4590, Note_on_c, 2, 61, 0
4, 4592, Note_on_c, 2, 59, 30
4, 4654, Note_on_c, 2, 59, 0
4, 4656, Note_on_c, 2, 66, 30
4, 4718, Note_on_c, 2, 66, 0
4, 4720, Note_on_c, 2, 62, 30
4, 4782, Note_on_c, 2, 62, 0
4, 4784, Note_on_c, 2, 59, 30
4, 4846, Note_on_c, 2, 59, 0
4, 4848, Note_on_c, 2, 67, 30
4, 4910, Note_on_c, 2, 67, 0
4, 4912, Note_on_c, 2, 61, 30
4, 4974, Note_on_c, 2, 61, 0
4, 4976, Note_on_c, 2, 59, 30
4, 5038, Note_on_c, 2, 59, 0
4, 5040, Note_on_c, 2, 66, 30
4, 5102, Note_on_c, 2, 66, 0
4, 5104, Note_on_c, 2, 62, 30
4, 5166, Note_on_c, 2, 62, 0
4, 5168, Note_on_c, 2, 59, 30
4, 5230, Note_on_c, 2, 59, 0
4, 5232, Note_on_c, 2, 65, 30
4, 5294, Note_on_c, 2, 65, 0
4, 5296, Note_on_c, 2, 61, 30
4, 5358, Note_on_c, 2, 61, 0
4, 5360, Note_on_c, 2, 59, 30
4, 5422, Note_on_c, 2, 59, 0
4, 5424, Note_on_c, 2, 66, 30
4, 5486, Note_on_c, 2, 66, 0
4, 5488, Note_on_c, 2, 62, 30
4, 5550, Note_on_c, 2, 62, 0
4, 5552, Note_on_c, 2, 59, 30
4, 5614, Note_on_c, 2, 59, 0
4, 5616, Note_on_c, 2, 67, 30
4, 5678, Note_on_c, 2, 67, 0
4, 5680, Note_on_c, 2, 61, 30
4, 5742, Note_on_c, 2, 61, 0
4, 5744, Note_on_c, 2, 59, 30
4, 5806, Note_on_c, 2, 59, 0
4, 5808, Note_on_c, 2, 66, 30
4, 5870, Note_on_c, 2, 66, 0
4, 5872, Note_on_c, 2, 62, 30
4, 5934, Note_on_c, 2, 62, 0
4, 5936, Note_on_c, 2, 59, 30
4, 5998, Note_on_c, 2, 59, 0
4, 6000, Note_on_c, 2, 65, 30
4, 6062, Note_on_c, 2, 65, 0
4, 6064, Note_on_c, 2, 61, 30
4, 6126, Note_on_c, 2, 61, 0
4, 6128, Note_on_c, 2, 59, 30
4, 6190, Note_on_c, 2, 59, 0
4, 6192, Note_on_c, 2, 67, 30
4, 6254, Note_on_c, 2, 67, 0
4, 6256, Note_on_c, 2, 63, 30
4, 6318, Note_on_c, 2, 63, 0
4, 6320, Note_on_c, 2, 60, 30
4, 6382, Note_on_c, 2, 60, 0
4, 6384, Note_on_c, 2, 67, 30
4, 6446, Note_on_c, 2, 67, 0
4, 6448, Note_on_c, 2, 64, 30
4, 6510, Note_on_c, 2, 64, 0
4, 6512, Note_on_c, 2, 59, 30
4, 6574, Note_on_c, 2, 59, 0
4, 6576, Note_on_c, 2, 67, 30
4, 6638, Note_on_c, 2, 67, 0
4, 6640, Note_on_c, 2, 63, 30
4, 6702, Note_on_c, 2, 63, 0
4, 6704, Note_on_c, 2, 60, 30
4, 6766, Note_on_c, 2, 60, 0
4, 6768, Note_on_c, 2, 67, 30
4, 6830, Note_on_c, 2, 67, 0
4, 6832, Note_on_c, 2, 64, 30
4, 6894, Note_on_c, 2, 64, 0
4, 6896, Note_on_c, 2, 59, 30
4, 6958, Note_on_c, 2, 59, 0
4, 6960, Note_on_c, 2, 67, 30
4, 7022, Note_on_c, 2, 67, 0
4, 7024, Note_on_c, 2, 63, 30
4, 7086, Note_on_c, 2, 63, 0
4, 7088, Note_on_c, 2, 60, 30
4, 7150, Note_on_c, 2, 60, 0
4, 7152, Note_on_c, 2, 67, 30
4, 7214, Note_on_c, 2, 67, 0
4, 7216, Note_on_c, 2, 64, 30
4, 7278, Note_on_c, 2, 64, 0
4, 7280, Note_on_c, 2, 59, 30
4, 7342, Note_on_c, 2, 59, 0
4, 7344, Note_on_c, 2, 67, 30
4, 7406, Note_on_c, 2, 67, 0
4, 7408, Note_on_c, 2, 63, 30
4, 7470, Note_on_c, 2, 63, 0
4, 7472, Note_on_c, 2, 60, 30
4, 7534, Note_on_c, 2, 60, 0
4, 7536, Note_on_c, 2, 67, 30
4, 7598, Note_on_c, 2, 67, 0
4, 7600, Note_on_c, 2, 64, 30
4, 7662, Note_on_c, 2, 64, 0
4, 7664, Note_on_c, 2, 59, 30
4, 7726, Note_on_c, 2, 59, 0
4, 7728, Note_on_c, 2, 67, 30
4, 7790, Note_on_c, 2, 67, 0
4, 7792, Note_on_c, 2, 63, 30
4, 7854, Note_on_c, 2, 63, 0
4, 7856, Note_on_c, 2, 60, 30
4, 7918, Note_on_c, 2, 60, 0
4, 7920, Note_on_c, 2, 67, 30
4, 7982, Note_on_c, 2, 67, 0
4, 7984, Note_on_c, 2, 64, 30
4, 8046, Note_on_c, 2, 64, 0
4, 8048, Note_on_c, 2, 59, 30
4, 8110, Note_on_c, 2, 59, 0
4, 8112, Note_on_c, 2, 67, 30
4, 8174, Note_on_c, 2, 67, 0
4, 8176, Note_on_c, 2, 63, 30
4, 8238, Note_on_c, 2, 63, 0
4, 8240, Note_on_c, 2, 60, 30
4, 8302, Note_on_c, 2, 60, 0
4, 8304, Note_on_c, 2, 67, 30
4, 8366, Note_on_c, 2, 67, 0
4, 8368, Note_on_c, 2, 64, 30
4, 8430, Note_on_c, 2, 64, 0
4, 8432, Note_on_c, 2, 59, 30
4, 8494, Note_on_c, 2, 59, 0
4, 8496, Note_on_c, 2, 67, 30
4, 8558, Note_on_c, 2, 67, 0
4, 8560, Note_on_c, 2, 63, 30
4, 8622, Note_on_c, 2, 63, 0
4, 8624, Note_on_c, 2, 60, 30
4, 8686, Note_on_c, 2, 60, 0
4, 8688, Note_on_c, 2, 67, 30
4, 8750, Note_on_c, 2, 67, 0
4, 8752, Note_on_c, 2, 64, 30
4, 8814, Note_on_c, 2, 64, 0
4, 8816, Note_on_c, 2, 59, 30
4, 8878, Note_on_c, 2, 59, 0
4, 8880, Note_on_c, 2, 67, 30
4, 8942, Note_on_c, 2, 67, 0
4, 8944, Note_on_c, 2, 63, 30
4, 9006, Note_on_c, 2, 63, 0
4, 9008, Note_on_c, 2, 60, 30
4, 9070, Note_on_c, 2, 60, 0
4, 9072, Note_on_c, 2, 67, 30
4, 9134, Note_on_c, 2, 67, 0
4, 9136, Note_on_c, 2, 64, 30
4, 9198, Note_on_c, 2, 64, 0
4, 9200, Note_on_c, 2, 59, 30
4, 9262, Note_on_c, 2, 59, 0
4, 9264, Note_on_c, 2, 66, 30
4, 9326, Note_on_c, 2, 66, 0
4, 9328, Note_on_c, 2, 62, 30
4, 9390, Note_on_c, 2, 62, 0
4, 9392, Note_on_c, 2, 59, 30
4, 9454, Note_on_c, 2, 59, 0
4, 9456, Note_on_c, 2, 67, 30
4, 9518, Note_on_c, 2, 67, 0
4, 9520, Note_on_c, 2, 61, 30
4, 9582, Note_on_c, 2, 61, 0
4, 9584, Note_on_c, 2, 59, 30
4, 9646, Note_on_c, 2, 59, 0
4, 9648, Note_on_c, 2, 66, 30
4, 9710, Note_on_c, 2, 66, 0
4, 9712, Note_on_c, 2, 62, 30
4, 9774, Note_on_c, 2, 62, 0
4, 9776, Note_on_c, 2, 59, 30
4, 9838, Note_on_c, 2, 59, 0
4, 9840, Note_on_c, 2, 65, 30
4, 9902, Note_on_c, 2, 65, 0
4, 9904, Note_on_c, 2, 61, 30
4, 9966, Note_on_c, 2, 61, 0
4, 9968, Note_on_c, 2, 59, 30
4, 10030, Note_on_c, 2, 59, 0
4, 10032, Note_on_c, 2, 66, 30
4, 10094, Note_on_c, 2, 66, 0
4, 10096, Note_on_c, 2, 62, 30
4, 10158, Note_on_c, 2, 62, 0
4, 10160, Note_on_c, 2, 59, 30
4, 10222, Note_on_c, 2, 59, 0
4, 10224, Note_on_c, 2, 67, 30
4, 10286, Note_on_c, 2, 67, 0
4, 10288, Note_on_c, 2, 61, 30
4, 10350, Note_on_c, 2, 61, 0
4, 10352, Note_on_c, 2, 59, 30
4, 10414, Note_on_c, 2, 59, 0
4, 10416, Note_on_c, 2, 66, 30
4, 10478, Note_on_c, 2, 66, 0
4, 10480, Note_on_c, 2, 62, 30
4, 10542, Note_on_c, 2, 62, 0
4, 10544, Note_on_c, 2, 59, 30
4, 10606, Note_on_c, 2, 59, 0
4, 10608, Note_on_c, 2, 65, 30
4, 10670, Note_on_c, 2, 65, 0
4, 10672, Note_on_c, 2, 61, 30
4, 10734, Note_on_c, 2, 61, 0
4, 10736, Note_on_c, 2, 59, 30
4, 10798, Note_on_c, 2, 59, 0
4, 10800, Note_on_c, 2, 66, 30
4, 10862, Note_on_c, 2, 66, 0
4, 10864, Note_on_c, 2, 62, 30
4, 10926, Note_on_c, 2, 62, 0
4, 10928, Note_on_c, 2, 59, 30
4, 10990, Note_on_c, 2, 59, 0
4, 10992, Note_on_c, 2, 67, 30
4, 11054, Note_on_c, 2, 67, 0
4, 11056, Note_on_c, 2, 61, 30
4, 11118, Note_on_c, 2, 61, 0
4, 11120, Note_on_c, 2, 59, 30
4, 11182, Note_on_c, 2, 59, 0
4, 11184, Note_on_c, 2, 66, 30
4, 11246, Note_on_c, 2, 66, 0
4, 11248, Note_on_c, 2, 62, 30
4, 11310, Note_on_c, 2, 62, 0
4, 11312, Note_on_c, 2, 59, 30
4, 11374, Note_on_c, 2, 59, 0
4, 11376, Note_on_c, 2, 65, 30
4, 11438, Note_on_c, 2, 65, 0
4, 11440, Note_on_c, 2, 61, 30
4, 11502, Note_on_c, 2, 61, 0
4, 11504, Note_on_c, 2, 59, 30
4, 11566, Note_on_c, 2, 59, 0
4, 11568, Note_on_c, 2, 66, 30
4, 11630, Note_on_c, 2, 66, 0
4, 11632, Note_on_c, 2, 62, 30
4, 11694, Note_on_c, 2, 62, 0
4, 11696, Note_on_c, 2, 59, 30
4, 11758, Note_on_c, 2, 59, 0
4, 11760, Note_on_c, 2, 67, 30
4, 11822, Note_on_c, 2, 67, 0
4, 11824, Note_on_c, 2, 61, 30
4, 11886, Note_on_c, 2, 61, 0
4, 11888, Note_on_c, 2, 59, 30
4, 11950, Note_on_c, 2, 59, 0
4, 11952, Note_on_c, 2, 66, 30
4, 12014, Note_on_c, 2, 66, 0
4, 12016, Note_on_c, 2, 62, 30
4, 12078, Note_on_c, 2, 62, 0
4, 12080, Note_on_c, 2, 59, 30
4, 12142, Note_on_c, 2, 59, 0
4, 12144, Note_on_c, 2, 65, 30
4, 12206, Note_on_c, 2, 65, 0
4, 12208, Note_on_c, 2, 61, 30
4, 12270, Note_on_c, 2, 61, 0
4, 12272, Note_on_c, 2, 59, 30
4, 12334, Note_on_c, 2, 59, 0
4, 12336, Note_on_c, 2, 67, 30
4, 12398, Note_on_c, 2, 67, 0
4, 12400, Note_on_c, 2, 63, 30
4, 12462, Note_on_c, 2, 63, 0
4, 12464, Note_on_c, 2, 60, 30
4, 12526, Note_on_c, 2, 60, 0
4, 12528, Note_on_c, 2, 67, 30
4, 12590, Note_on_c, 2, 67, 0
4, 12592, Note_on_c, 2, 64, 30
4, 12654, Note_on_c, 2, 64, 0
4, 12656, Note_on_c, 2, 59, 30
4, 12718, Note_on_c, 2, 59, 0
4, 12720, Note_on_c, 2, 67, 30
4, 12782, Note_on_c, 2, 67, 0
4, 12784, Note_on_c, 2, 63, 30
4, 12846, Note_on_c, 2, 63, 0
4, 12848, Note_on_c, 2, 60, 30
4, 12910, Note_on_c, 2, 60, 0
4, 12912, Note_on_c, 2, 67, 30
4, 12974, Note_on_c, 2, 67, 0
4, 12976, Note_on_c, 2, 64, 30
4, 13038, Note_on_c, 2, 64, 0
4, 13040, Note_on_c, 2, 59, 30
4, 13102, Note_on_c, 2, 59, 0
4, 13104, Note_on_c, 2, 67, 30
4, 13166, Note_on_c, 2, 67, 0
4, 13168, Note_on_c, 2, 63, 30
4, 13230, Note_on_c, 2, 63, 0
4, 13232, Note_on_c, 2, 60, 30
4, 13294, Note_on_c, 2, 60, 0
4, 13296, Note_on_c, 2, 67, 30
4, 13358, Note_on_c, 2, 67, 0
4, 13360, Note_on_c, 2, 64, 30
4, 13422, Note_on_c, 2, 64, 0
4, 13424, Note_on_c, 2, 59, 30
4, 13486, Note_on_c, 2, 59, 0
4, 13488, Note_on_c, 2, 67, 30
4, 13550, Note_on_c, 2, 67, 0
4, 13552, Note_on_c, 2, 63, 30
4, 13614, Note_on_c, 2, 63, 0
4, 13616, Note_on_c, 2, 60, 30
4, 13678, Note_on_c, 2, 60, 0
4, 13680, Note_on_c, 2, 67, 30
4, 13742, Note_on_c, 2, 67, 0
4, 13744, Note_on_c, 2, 64, 30
4, 13806, Note_on_c, 2, 64, 0
4, 13808, Note_on_c, 2, 59, 30
4, 13870, Note_on_c, 2, 59, 0
4, 13872, Note_on_c, 2, 67, 30
4, 13934, Note_on_c, 2, 67, 0
4, 13936, Note_on_c, 2, 63, 30
4, 13998, Note_on_c, 2, 63, 0
4, 14000, Note_on_c, 2, 60, 30
4, 14062, Note_on_c, 2, 60, 0
4, 14064, Note_on_c, 2, 67, 30
4, 14126, Note_on_c, 2, 67, 0
4, 14128, Note_on_c, 2, 64, 30
4, 14190, Note_on_c, 2, 64, 0
4, 14192, Note_on_c, 2, 59, 30
4, 14254, Note_on_c, 2, 59, 0
4, 14256, Note_on_c, 2, 67, 30
4, 14318, Note_on_c, 2, 67, 0
4, 14320, Note_on_c, 2, 63, 30
4, 14382, Note_on_c, 2, 63, 0
4, 14384, Note_on_c, 2, 60, 30
4, 14446, Note_on_c, 2, 60, 0
4, 14448, Note_on_c, 2, 67, 30
4, 14510, Note_on_c, 2, 67, 0
4, 14512, Note_on_c, 2, 64, 30
4, 14574, Note_on_c, 2, 64, 0
4, 14576, Note_on_c, 2, 59, 30
4, 14638, Note_on_c, 2, 59, 0
4, 14640, Note_on_c, 2, 67, 30
4, 14702, Note_on_c, 2, 67, 0
4, 14704, Note_on_c, 2, 63, 30
4, 14766, Note_on_c, 2, 63, 0
4, 14768, Note_on_c, 2, 60, 30
4, 14830, Note_on_c, 2, 60, 0
4, 14832, Note_on_c, 2, 67, 30
4, 14894, Note_on_c, 2, 67, 0
4, 14896, Note_on_c, 2, 64, 30
4, 14958, Note_on_c, 2, 64, 0
4, 14960, Note_on_c, 2, 59, 30
4, 15022, Note_on_c, 2, 59, 0
4, 15024, Note_on_c, 2, 67, 30
4, 15086, Note_on_c, 2, 67, 0
4, 15088, Note_on_c, 2, 63, 30
4, 15150, Note_on_c, 2, 63, 0
4, 15152, Note_on_c, 2, 60, 30
4, 15214, Note_on_c, 2, 60, 0
4, 15216, Note_on_c, 2, 67, 30
4, 15278, Note_on_c, 2, 67, 0
4, 15280, Note_on_c, 2, 64, 30
4, 15342, Note_on_c, 2, 64, 0
4, 15344, Note_on_c, 2, 59, 30
4, 15406, Note_on_c, 2, 59, 0
4, 15408, Note_on_c, 2, 66, 30
4, 15470, Note_on_c, 2, 66, 0
4, 15472, Note_on_c, 2, 62, 30
4, 15534, Note_on_c, 2, 62, 0
4, 15536, Note_on_c, 2, 59, 30
4, 15598, Note_on_c, 2, 59, 0
4, 15600, Note_on_c, 2, 67, 30
4, 15662, Note_on_c, 2, 67, 0
4, 15664, Note_on_c, 2, 61, 30
4, 15726, Note_on_c, 2, 61, 0
4, 15728, Note_on_c, 2, 59, 30
4, 15790, Note_on_c, 2, 59, 0
4, 15792, Note_on_c, 2, 66, 30
4, 15854, Note_on_c, 2, 66, 0
4, 15856, Note_on_c, 2, 62, 30
4, 15918, Note_on_c, 2, 62, 0
4, 15920, Note_on_c, 2, 59, 30
4, 15982, Note_on_c, 2, 59, 0
4, 15984, Note_on_c, 2, 65, 30
4, 16046, Note_on_c, 2, 65, 0
4, 16048, Note_on_c, 2, 61, 30
4, 16110, Note_on_c, 2, 61, 0
4, 16112, Note_on_c, 2, 59, 30
4, 16174, Note_on_c, 2, 59, 0
4, 16176, Note_on_c, 2, 66, 30
4, 16238, Note_on_c, 2, 66, 0
4, 16240, Note_on_c, 2, 62, 30
4, 16302, Note_on_c, 2, 62, 0
4, 16304, Note_on_c, 2, 59, 30
4, 16366, Note_on_c, 2, 59, 0
4, 16368, Note_on_c, 2, 67, 30
4, 16430, Note_on_c, 2, 67, 0
4, 16432, Note_on_c, 2, 61, 30
4, 16494, Note_on_c, 2, 61, 0
4, 16496, Note_on_c, 2, 59, 30
4, 16558, Note_on_c, 2, 59, 0
4, 16560, Note_on_c, 2, 66, 30
4, 16622, Note_on_c, 2, 66, 0
4, 16624, Note_on_c, 2, 62, 30
4, 16686, Note_on_c, 2, 62, 0
4, 16688, Note_on_c, 2, 59, 30
4, 16750, Note_on_c, 2, 59, 0
4, 16752, Note_on_c, 2, 65, 30
4, 16814, Note_on_c, 2, 65, 0
4, 16816, Note_on_c, 2, 61, 30
4, 16878, Note_on_c, 2, 61, 0
4, 16880, Note_on_c, 2, 59, 30
4, 16942, Note_on_c, 2, 59, 0
4, 16944, Note_on_c, 2, 66, 30
4, 17006, Note_on_c, 2, 66, 0
4, 17008, Note_on_c, 2, 62, 30
4, 17070, Note_on_c, 2, 62, 0
4, 17072, Note_on_c, 2, 59, 30
4, 17134, Note_on_c, 2, 59, 0
4, 17136, Note_on_c, 2, 67, 30
4, 17198, Note_on_c, 2, 67, 0
4, 17200, Note_on_c, 2, 61, 30
4, 17262, Note_on_c, 2, 61, 0
4, 17264, Note_on_c, 2, 59, 30
4, 17326, Note_on_c, 2, 59, 0
4, 17328, Note_on_c, 2, 66, 30
4, 17390, Note_on_c, 2, 66, 0
4, 17392, Note_on_c, 2, 62, 30
4, 17454, Note_on_c, 2, 62, 0
4, 17456, Note_on_c, 2, 59, 30
4, 17518, Note_on_c, 2, 59, 0
4, 17520, Note_on_c, 2, 65, 30
4, 17582, Note_on_c, 2, 65, 0
4, 17584, Note_on_c, 2, 61, 30
4, 17646, Note_on_c, 2, 61, 0
4, 17648, Note_on_c, 2, 59, 30
4, 17710, Note_on_c, 2, 59, 0
4, 17712, Note_on_c, 2, 66, 30
4, 17774, Note_on_c, 2, 66, 0
4, 17776, Note_on_c, 2, 62, 30
4, 17838, Note_on_c, 2, 62, 0
4, 17840, Note_on_c, 2, 59, 30
4, 17902, Note_on_c, 2, 59, 0
4, 17904, Note_on_c, 2, 67, 30
4, 17966, Note_on_c, 2, 67, 0
4, 17968, Note_on_c, 2, 61, 30
4, 18030, Note_on_c, 2, 61, 0
4, 18032, Note_on_c, 2, 59, 30
4, 18094, Note_on_c, 2, 59, 0
4, 18096, Note_on_c, 2, 66, 30
4, 18158, Note_on_c, 2, 66, 0
4, 18160, Note_on_c, 2, 62, 30
4, 18222, Note_on_c, 2, 62, 0
4, 18224, Note_on_c, 2, 59, 30
4, 18286, Note_on_c, 2, 59, 0
4, 18288, Note_on_c, 2, 65, 30
4, 18350, Note_on_c, 2, 65, 0
4, 18352, Note_on_c, 2, 61, 30
4, 18414, Note_on_c, 2, 61, 0
4, 18416, Note_on_c, 2, 59, 30
4, 18478, Note_on_c, 2, 59, 0
4, 18480, Note_on_c, 2, 67, 30
4, 18542, Note_on_c, 2, 67, 0
4, 18544, Note_on_c, 2, 63, 30
4, 18606, Note_on_c, 2, 63, 0
4, 18608, Note_on_c, 2, 60, 30
4, 18670, Note_on_c, 2, 60, 0
4, 18672, Note_on_c, 2, 67, 30
4, 18734, Note_on_c, 2, 67, 0
4, 18736, Note_on_c, 2, 64, 30
4, 18798, Note_on_c, 2, 64, 0
4, 18800, Note_on_c, 2, 59, 30
4, 18862, Note_on_c, 2, 59, 0
4, 18864, Note_on_c, 2, 67, 30
4, 18926, Note_on_c, 2, 67, 0
4, 18928, Note_on_c, 2, 63, 30
4, 18990, Note_on_c, 2, 63, 0
4, 18992, Note_on_c, 2, 60, 30
4, 19054, Note_on_c, 2, 60, 0
4, 19056, Note_on_c, 2, 67, 30
4, 19118, Note_on_c, 2, 67, 0
4, 19120, Note_on_c, 2, 64, 30
4, 19182, Note_on_c, 2, 64, 0
4, 19184, Note_on_c, 2, 59, 30
4, 19246, Note_on_c, 2, 59, 0
4, 19248, Note_on_c, 2, 67, 30
4, 19310, Note_on_c, 2, 67, 0
4, 19312, Note_on_c, 2, 63, 30
4, 19374, Note_on_c, 2, 63, 0
4, 19376, Note_on_c, 2, 60, 30
4, 19438, Note_on_c, 2, 60, 0
4, 19440, Note_on_c, 2, 67, 30
4, 19502, Note_on_c, 2, 67, 0
4, 19504, Note_on_c, 2, 64, 30
4, 19566, Note_on_c, 2, 64, 0
4, 19568, Note_on_c, 2, 59, 30
4, 19630, Note_on_c, 2, 59, 0
4, 19632, Note_on_c, 2, 67, 30
4, 19694, Note_on_c, 2, 67, 0
4, 19696, Note_on_c, 2, 63, 30
4, 19758, Note_on_c, 2, 63, 0
4, 19760, Note_on_c, 2, 60, 30
4, 19822, Note_on_c, 2, 60, 0
4, 19824, Note_on_c, 2, 67, 30
4, 19886, Note_on_c, 2, 67, 0
4, 19888, Note_on_c, 2, 64, 30
4, 19950, Note_on_c, 2, 64, 0
4, 19952, Note_on_c, 2, 59, 30
4, 20014, Note_on_c, 2, 59, 0
4, 20016, Note_on_c, 2, 67, 30
4, 20078, Note_on_c, 2, 67, 0
4, 20080, Note_on_c, 2, 63, 30
4, 20142, Note_on_c, 2, 63, 0
4, 20144, Note_on_c, 2, 60, 30
4, 20206, Note_on_c, 2, 60, 0
4, 20208, Note_on_c, 2, 67, 30
4, 20270, Note_on_c, 2, 67, 0
4, 20272, Note_on_c, 2, 64, 30
4, 20334, Note_on_c, 2, 64, 0
4, 20336, Note_on_c, 2, 59, 30
4, 20398, Note_on_c, 2, 59, 0
4, 20400, Note_on_c, 2, 67, 30
4, 20462, Note_on_c, 2, 67, 0
4, 20464, Note_on_c, 2, 63, 30
4, 20526, Note_on_c, 2, 63, 0
4, 20528, Note_on_c, 2, 60, 30
4, 20590, Note_on_c, 2, 60, 0
4, 20592, Note_on_c, 2, 67, 30
4, 20654, Note_on_c, 2, 67, 0
4, 20656, Note_on_c, 2, 64, 30
4, 20718, Note_on_c, 2, 64, 0
4, 20720, Note_on_c, 2, 59, 30
4, 20782, Note_on_c, 2, 59, 0
4, 20784, Note_on_c, 2, 67, 30
4, 20846, Note_on_c, 2, 67, 0
4, 20848, Note_on_c, 2, 63, 30
4, 20910, Note_on_c, 2, 63, 0
4, 20912, Note_on_c, 2, 60, 30
4, 20974, Note_on_c, 2, 60, 0
4, 20976, Note_on_c, 2, 67, 30
4, 21038, Note_on_c, 2, 67, 0
4, 21040, Note_on_c, 2, 64, 30
4, 21102, Note_on_c, 2, 64, 0
4, 21104, Note_on_c, 2, 59, 30
4, 21166, Note_on_c, 2, 59, 0
4, 21168, Note_on_c, 2, 67, 30
4, 21230, Note_on_c, 2, 67, 0
4, 21232, Note_on_c, 2, 63, 30
4, 21294, Note_on_c, 2, 63, 0
4, 21296, Note_on_c, 2, 60, 30
4, 21358, Note_on_c, 2, 60, 0
4, 21360, Note_on_c, 2, 67, 30
4, 21422, Note_on_c, 2, 67, 0
4, 21424, Note_on_c, 2, 64, 30
4, 21486, Note_on_c, 2, 64, 0
4, 21488, Note_on_c, 2, 59, 30
4, 21550, Note_on_c, 2, 59, 0
4, 21552, Note_on_c, 2, 66, 30
4, 21614, Note_on_c, 2, 66, 0
4, 21616, Note_on_c, 2, 62, 30
4, 21678, Note_on_c, 2, 62, 0
4, 21680, Note_on_c, 2, 59, 30
4, 21742, Note_on_c, 2, 59, 0
4, 21744, Note_on_c, 2, 67, 30
4, 21806, Note_on_c, 2, 67, 0
4, 21808, Note_on_c, 2, 61, 30
4, 21870, Note_on_c, 2, 61, 0
4, 21872, Note_on_c, 2, 59, 30
4, 21934, Note_on_c, 2, 59, 0
4, 21936, Note_on_c, 2, 66, 30
4, 21998, Note_on_c, 2, 66, 0
4, 22000, Note_on_c, 2, 62, 30
4, 22062, Note_on_c, 2, 62, 0
4, 22064, Note_on_c, 2, 59, 30
4, 22126, Note_on_c, 2, 59, 0
4, 22128, Note_on_c, 2, 65, 30
4, 22190, Note_on_c, 2, 65, 0
4, 22192, Note_on_c, 2, 61, 30
4, 22254, Note_on_c, 2, 61, 0
4, 22256, Note_on_c, 2, 59, 30
4, 22318, Note_on_c, 2, 59, 0
4, 22320, Note_on_c, 2, 66, 30
4, 22382, Note_on_c, 2, 66, 0
4, 22384, Note_on_c, 2, 62, 30
4, 22446, Note_on_c, 2, 62, 0
4, 22448, Note_on_c, 2, 59, 30
4, 22510, Note_on_c, 2, 59, 0
4, 22512, Note_on_c, 2, 67, 30
4, 22574, Note_on_c, 2, 67, 0
4, 22576, Note_on_c, 2, 61, 30
4, 22638, Note_on_c, 2, 61, 0
4, 22640, Note_on_c, 2, 59, 30
4, 22702, Note_on_c, 2, 59, 0
4, 22704, Note_on_c, 2, 66, 30
4, 22766, Note_on_c, 2, 66, 0
4, 22768, Note_on_c, 2, 62, 30
4, 22830, Note_on_c, 2, 62, 0
4, 22832, Note_on_c, 2, 59, 30
4, 22894, Note_on_c, 2, 59, 0
4, 22896, Note_on_c, 2, 65, 30
4, 22958, Note_on_c, 2, 65, 0
4, 22960, Note_on_c, 2, 61, 30
4, 23022, Note_on_c, 2, 61, 0
4, 23024, Note_on_c, 2, 59, 30
4, 23086, Note_on_c, 2, 59, 0
4, 23088, Note_on_c, 2, 66, 30
4, 23150, Note_on_c, 2, 66, 0
4, 23152, Note_on_c, 2, 62, 30
4, 23214, Note_on_c, 2, 62, 0
4, 23216, Note_on_c, 2, 59, 30
4, 23278, Note_on_c, 2, 59, 0
4, 23280, Note_on_c, 2, 67, 30
4, 23342, Note_on_c, 2, 67, 0
4, 23344, Note_on_c, 2, 61, 30
4, 23406, Note_on_c, 2, 61, 0
4, 23408, Note_on_c, 2, 59, 30
4, 23470, Note_on_c, 2, 59, 0
4, 23472, Note_on_c, 2, 66, 30
4, 23534, Note_on_c, 2, 66, 0
4, 23536, Note_on_c, 2, 62, 30
4, 23598, Note_on_c, 2, 62, 0
4, 23600, Note_on_c, 2, 59, 30
4, 23662, Note_on_c, 2, 59, 0
4, 23664, Note_on_c, 2, 65, 30
4, 23726, Note_on_c, 2, 65, 0
4, 23728, Note_on_c, 2, 61, 30
4, 23790, Note_on_c, 2, 61, 0
4, 23792, Note_on_c, 2, 59, 30
4, 23854, Note_on_c, 2, 59, 0
4, 23856, Note_on_c, 2, 66, 30
4, 23918, Note_on_c, 2, 66, 0
4, 23920, Note_on_c, 2, 62, 30
4, 23982, Note_on_c, 2, 62, 0
4, 23984, Note_on_c, 2, 59, 30
4, 24046, Note_on_c, 2, 59, 0
4, 24048, Note_on_c, 2, 67, 30
4, 24110, Note_on_c, 2, 67, 0
4, 24112, Note_on_c, 2, 61, 30
4, 24174, Note_on_c, 2, 61, 0
4, 24176, Note_on_c, 2, 59, 30
4, 24238, Note_on_c, 2, 59, 0
4, 24240, Note_on_c, 2, 66, 30
4, 24302, Note_on_c, 2, 66, 0
4, 24304, Note_on_c, 2, 62, 30
4, 24366, Note_on_c, 2, 62, 0
4, 24368, Note_on_c, 2, 59, 30
4, 24430, Note_on_c, 2, 59, 0
4, 24432, Note_on_c, 2, 65, 30
4, 24494, Note_on_c, 2, 65, 0
4, 24496, Note_on_c, 2, 61, 30
4, 24558, Note_on_c, 2, 61, 0
4, 24560, Note_on_c, 2, 59, 30
4, 24622, Note_on_c, 2, 59, 0
4, 24624, Note_on_c, 2, 67, 30
4, 24686, Note_on_c, 2, 67, 0
4, 24688, Note_on_c, 2, 63, 30
4, 24750, Note_on_c, 2, 63, 0
4, 24752, Note_on_c, 2, 60, 30
4, 24814, Note_on_c, 2, 60, 0
4, 24816, Note_on_c, 2, 67, 30
4, 24878, Note_on_c, 2, 67, 0
4, 24880, Note_on_c, 2, 64, 30
4, 24942, Note_on_c, 2, 64, 0
4, 24944, Note_on_c, 2, 59, 30
4, 25006, Note_on_c, 2, 59, 0
4, 25008, Note_on_c, 2, 67, 30
4, 25070, Note_on_c, 2, 67, 0
4, 25072, Note_on_c, 2, 63, 30
4, 25134, Note_on_c, 2, 63, 0
4, 25136, Note_on_c, 2, 60, 30
4, 25198, Note_on_c, 2, 60, 0
4, 25200, Note_on_c, 2, 67, 30
4, 25262, Note_on_c, 2, 67, 0
4, 25264, Note_on_c, 2, 64, 30
4, 25326, Note_on_c, 2, 64, 0
4, 25328, Note_on_c, 2, 59, 30
4, 25390, Note_on_c, 2, 59, 0
4, 25392, Note_on_c, 2, 67, 30
4, 25454, Note_on_c, 2, 67, 0
4, 25456, Note_on_c, 2, 63, 30
4, 25518, Note_on_c, 2, 63, 0
4, 25520, Note_on_c, 2, 60, 30
4, 25582, Note_on_c, 2, 60, 0
4, 25584, Note_on_c, 2, 67, 30
4, 25646, Note_on_c, 2, 67, 0
4, 25648, Note_on_c, 2, 64, 30
4, 25710, Note_on_c, 2, 64, 0
4, 25712, Note_on_c, 2, 59, 30
4, 25774, Note_on_c, 2, 59, 0
4, 25776, Note_on_c, 2, 67, 30
4, 25838, Note_on_c, 2, 67, 0
4, 25840, Note_on_c, 2, 63, 30
4, 25902, Note_on_c, 2, 63, 0
4, 25904, Note_on_c, 2, 60, 30
4, 25966, Note_on_c, 2, 60, 0
4, 25968, Note_on_c, 2, 67, 30
4, 26030, Note_on_c, 2, 67, 0
4, 26032, Note_on_c, 2, 64, 30
4, 26094, Note_on_c, 2, 64, 0
4, 26096, Note_on_c, 2, 59, 30
4, 26158, Note_on_c, 2, 59, 0
4, 26160, Note_on_c, 2, 67, 30
4, 26222, Note_on_c, 2, 67, 0
4, 26224, Note_on_c, 2, 63, 30
4, 26286, Note_on_c, 2, 63, 0
4, 26288, Note_on_c, 2, 60, 30
4, 26350, Note_on_c, 2, 60, 0
4, 26352, Note_on_c, 2, 67, 30
4, 26414, Note_on_c, 2, 67, 0
4, 26416, Note_on_c, 2, 64, 30
4, 26478, Note_on_c, 2, 64, 0
4, 26480, Note_on_c, 2, 59, 30
4, 26542, Note_on_c, 2, 59, 0
4, 26544, Note_on_c, 2, 67, 30
4, 26606, Note_on_c, 2, 67, 0
4, 26608, Note_on_c, 2, 63, 30
4, 26670, Note_on_c, 2, 63, 0
4, 26672, Note_on_c, 2, 60, 30
4, 26734, Note_on_c, 2, 60, 0
4, 26736, Note_on_c, 2, 67, 30
4, 26798, Note_on_c, 2, 67, 0
4, 26800, Note_on_c, 2, 64, 30
4, 26862, Note_on_c, 2, 64, 0
4, 26864, Note_on_c, 2, 59, 30
4, 26926, Note_on_c, 2, 59, 0
4, 26928, Note_on_c, 2, 67, 30
4, 26990, Note_on_c, 2, 67, 0
4, 26992, Note_on_c, 2, 63, 30
4, 27054, Note_on_c, 2, 63, 0
4, 27056, Note_on_c, 2, 60, 30
4, 27118, Note_on_c, 2, 60, 0
4, 27120, Note_on_c, 2, 67, 30
4, 27182, Note_on_c, 2, 67, 0
4, 27184, Note_on_c, 2, 64, 30
4, 27246, Note_on_c, 2, 64, 0
4, 27248, Note_on_c, 2, 59, 30
4, 27310, Note_on_c, 2, 59, 0
4, 27312, Note_on_c, 2, 67, 30
4, 27374, Note_on_c, 2, 67, 0
4, 27376, Note_on_c, 2, 63, 30
4, 27438, Note_on_c, 2, 63, 0
4, 27440, Note_on_c, 2, 60, 30
4, 27502, Note_on_c, 2, 60, 0
4, 27504, Note_on_c, 2, 67, 30
4, 27566, Note_on_c, 2, 67, 0
4, 27568, Note_on_c, 2, 64, 30
4, 27630, Note_on_c, 2, 64, 0
4, 27632, Note_on_c, 2, 59, 30
4, 27694, Note_on_c, 2, 59, 0
4, 27696, Note_on_c, 2, 66, 30
4, 27758, Note_on_c, 2, 66, 0
4, 27760, Note_on_c, 2, 62, 30
4, 27822, Note_on_c, 2, 62, 0
4, 27824, Note_on_c, 2, 59, 30
4, 27886, Note_on_c, 2, 59, 0
4, 27888, Note_on_c, 2, 67, 30
4, 27950, Note_on_c, 2, 67, 0
4, 27952, Note_on_c, 2, 61, 30
4, 28014, Note_on_c, 2, 61, 0
4, 28016, Note_on_c, 2, 59, 30
4, 28078, Note_on_c, 2, 59, 0
4, 28080, Note_on_c, 2, 66, 30
4, 28142, Note_on_c, 2, 66, 0
4, 28144, Note_on_c, 2, 62, 30
4, 28206, Note_on_c, 2, 62, 0
4, 28208, Note_on_c, 2, 59, 30
4, 28270, Note_on_c, 2, 59, 0
4, 28272, Note_on_c, 2, 65, 30
4, 28334, Note_on_c, 2, 65, 0
4, 28336, Note_on_c, 2, 61, 30
4, 28398, Note_on_c, 2, 61, 0
4, 28400, Note_on_c, 2, 59, 30
4, 28462, Note_on_c, 2, 59, 0
4, 28464, Note_on_c, 2, 66, 30
4, 28526, Note_on_c, 2, 66, 0
4, 28528, Note_on_c, 2, 62, 30
4, 28590, Note_on_c, 2, 62, 0
4, 28592, Note_on_c, 2, 59, 30
4, 28654, Note_on_c, 2, 59, 0
4, 28656, Note_on_c, 2, 67, 30
4, 28718, Note_on_c, 2, 67, 0
4, 28720, Note_on_c, 2, 61, 30
4, 28782, Note_on_c, 2, 61, 0
4, 28784, Note_on_c, 2, 59, 30
4, 28846, Note_on_c, 2, 59, 0
4, 28848, Note_on_c, 2, 66, 30
4, 28910, Note_on_c, 2, 66, 0
4, 28912, Note_on_c, 2, 62, 30
4, 28974, Note_on_c, 2, 62, 0
4, 28976, Note_on_c, 2, 59, 30
4, 29038, Note_on_c, 2, 59, 0
4, 29040, Note_on_c, 2, 65, 30
4, 29102, Note_on_c, 2, 65, 0
4, 29104, Note_on_c, 2, 61, 30
4, 29166, Note_on_c, 2, 61, 0
4, 29168, Note_on_c, 2, 59, 30
4, 29230, Note_on_c, 2, 59, 0
4, 29232, Note_on_c, 2, 66, 30
4, 29294, Note_on_c, 2, 66, 0
4, 29296, Note_on_c, 2, 62, 30
4, 29358, Note_on_c, 2, 62, 0
4, 29360, Note_on_c, 2, 59, 30
4, 29422, Note_on_c, 2, 59, 0
4, 29424, Note_on_c, 2, 67, 30
4, 29486, Note_on_c, 2, 67, 0
4, 29488, Note_on_c, 2, 61, 30
4, 29550, Note_on_c, 2, 61, 0
4, 29552, Note_on_c, 2, 59, 30
4, 29614, Note_on_c, 2, 59, 0
4, 29616, Note_on_c, 2, 66, 30
4, 29678, Note_on_c, 2, 66, 0
4, 29680, Note_on_c, 2, 62, 30
4, 29742, Note_on_c, 2, 62, 0
4, 29744, Note_on_c, 2, 59, 30
4, 29806, Note_on_c, 2, 59, 0
4, 29808, Note_on_c, 2, 65, 30
4, 29870, Note_on_c, 2, 65, 0
4, 29872, Note_on_c, 2, 61, 30
4, 29934, Note_on_c, 2, 61, 0
4, 29936, Note_on_c, 2, 59, 30
4, 29998, Note_on_c, 2, 59, 0
4, 30000, Note_on_c, 2, 66, 30
4, 30062, Note_on_c, 2, 66, 0
4, 30064, Note_on_c, 2, 62, 30
4, 30126, Note_on_c, 2, 62, 0
4, 30128, Note_on_c, 2, 59, 30
4, 30190, Note_on_c, 2, 59, 0
4, 30192, Note_on_c, 2, 67, 30
4, 30254, Note_on_c, 2, 67, 0
4, 30256, Note_on_c, 2, 61, 30
4, 30318, Note_on_c, 2, 61, 0
4, 30320, Note_on_c, 2, 59, 30
4, 30382, Note_on_c, 2, 59, 0
4, 30384, Note_on_c, 2, 66, 30
4, 30446, Note_on_c, 2, 66, 0
4, 30448, Note_on_c, 2, 62, 30
4, 30510, Note_on_c, 2, 62, 0
4, 30512, Note_on_c, 2, 59, 30
4, 30574, Note_on_c, 2, 59, 0
4, 30576, Note_on_c, 2, 65, 30
4, 30638, Note_on_c, 2, 65, 0
4, 30640, Note_on_c, 2, 61, 30
4, 30702, Note_on_c, 2, 61, 0
4, 30704, Note_on_c, 2, 59, 30
4, 30766, Note_on_c, 2, 59, 0
4, 30768, Note_on_c, 2, 64, 30
4, 30830, Note_on_c, 2, 64, 0
4, 30832, Note_on_c, 2, 60, 30
4, 30894, Note_on_c, 2, 60, 0
4, 30896, Note_on_c, 2, 57, 30
4, 30958, Note_on_c, 2, 57, 0
4, 30960, Note_on_c, 2, 64, 30
4, 31022, Note_on_c, 2, 64, 0
4, 31024, Note_on_c, 2, 61, 30
4, 31086, Note_on_c, 2, 61, 0
4, 31088, Note_on_c, 2, 56, 30
4, 31150, Note_on_c, 2, 56, 0
4, 31152, Note_on_c, 2, 64, 30
4, 31214, Note_on_c, 2, 64, 0
4, 31216, Note_on_c, 2, 60, 30
4, 31278, Note_on_c, 2, 60, 0
4, 31280, Note_on_c, 2, 57, 30
4, 31342, Note_on_c, 2, 57, 0
4, 31344, Note_on_c, 2, 64, 30
4, 31406, Note_on_c, 2, 64, 0
4, 31408, Note_on_c, 2, 61, 30
4, 31470, Note_on_c, 2, 61, 0
4, 31472, Note_on_c, 2, 56, 30
4, 31534, Note_on_c, 2, 56, 0
4, 31536, Note_on_c, 2, 64, 30
4, 31598, Note_on_c, 2, 64, 0
4, 31600, Note_on_c, 2, 60, 30
4, 31662, Note_on_c, 2, 60, 0
4, 31664, Note_on_c, 2, 57, 30
4, 31726, Note_on_c, 2, 57, 0
4, 31728, Note_on_c, 2, 64, 30
4, 31790, Note_on_c, 2, 64, 0
4, 31792, Note_on_c, 2, 61, 30
4, 31854, Note_on_c, 2, 61, 0
4, 31856, Note_on_c, 2, 56, 30
4, 31918, Note_on_c, 2, 56, 0
4, 31920, Note_on_c, 2, 64, 30
4, 31982, Note_on_c, 2, 64, 0
4, 31984, Note_on_c, 2, 60, 30
4, 32046, Note_on_c, 2, 60, 0
4, 32048, Note_on_c, 2, 57, 30
4, 32110, Note_on_c, 2, 57, 0
4, 32112, Note_on_c, 2, 64, 30
4, 32174, Note_on_c, 2, 64, 0
4, 32176, Note_on_c, 2, 61, 30
4, 32238, Note_on_c, 2, 61, 0
4, 32240, Note_on_c, 2, 56, 30
4, 32302, Note_on_c, 2, 56, 0
4, 32304, Note_on_c, 2, 64, 30
4, 32366, Note_on_c, 2, 64, 0
4, 32368, Note_on_c, 2, 60, 30
4, 32430, Note_on_c, 2, 60, 0
4, 32432, Note_on_c, 2, 57, 30
4, 32494, Note_on_c, 2, 57, 0
4, 32496, Note_on_c, 2, 64, 30
4, 32558, Note_on_c, 2, 64, 0
4, 32560, Note_on_c, 2, 61, 30
4, 32622, Note_on_c, 2, 61, 0
4, 32624, Note_on_c, 2, 56, 30
4, 32686, Note_on_c, 2, 56, 0
4, 32688, Note_on_c, 2, 64, 30
4, 32750, Note_on_c, 2, 64, 0
4, 32752, Note_on_c, 2, 60, 30
4, 32814, Note_on_c, 2, 60, 0
4, 32816, Note_on_c, 2, 57, 30
4, 32878, Note_on_c, 2, 57, 0
4, 32880, Note_on_c, 2, 64, 30
4, 32942, Note_on_c, 2, 64, 0
4, 32944, Note_on_c, 2, 61, 30
4, 33006, Note_on_c, 2, 61, 0
4, 33008, Note_on_c, 2, 56, 30
4, 33070, Note_on_c, 2, 56, 0
4, 33072, Note_on_c, 2, 64, 30
4, 33134, Note_on_c, 2, 64, 0
4, 33136, Note_on_c, 2, 60, 30
4, 33198, Note_on_c, 2, 60, 0
4, 33200, Note_on_c, 2, 57, 30
4, 33262, Note_on_c, 2, 57, 0
4, 33264, Note_on_c, 2, 64, 30
4, 33326, Note_on_c, 2, 64, 0
4, 33328, Note_on_c, 2, 61, 30
4, 33390, Note_on_c, 2, 61, 0
4, 33392, Note_on_c, 2, 56, 30
4, 33454, Note_on_c, 2, 56, 0
4, 33456, Note_on_c, 2, 64, 30
4, 33518, Note_on_c, 2, 64, 0
4, 33520, Note_on_c, 2, 60, 30
4, 33582, Note_on_c, 2, 60, 0
4, 33584, Note_on_c, 2, 57, 30
4, 33646, Note_on_c, 2, 57, 0
4, 33648, Note_on_c, 2, 64, 30
4, 33710, Note_on_c, 2, 64, 0
4, 33712, Note_on_c, 2, 61, 30
4, 33774, Note_on_c, 2, 61, 0
4, 33776, Note_on_c, 2, 56, 30
4, 33838, Note_on_c, 2, 56, 0
4, 33840, Note_on_c, 2, 63, 30
4, 33902, Note_on_c, 2, 63, 0
4, 33904, Note_on_c, 2, 59, 30
4, 33966, Note_on_c, 2, 59, 0
4, 33968, Note_on_c, 2, 56, 30
4, 34030, Note_on_c, 2, 56, 0
4, 34032, Note_on_c, 2, 64, 30
4, 34094, Note_on_c, 2, 64, 0
4, 34096, Note_on_c, 2, 58, 30
4, 34158, Note_on_c, 2, 58, 0
4, 34160, Note_on_c, 2, 56, 30
4, 34222, Note_on_c, 2, 56, 0
4, 34224, Note_on_c, 2, 63, 30
4, 34286, Note_on_c, 2, 63, 0
4, 34288, Note_on_c, 2, 59, 30
4, 34350, Note_on_c, 2, 59, 0
4, 34352, Note_on_c, 2, 56, 30
4, 34414, Note_on_c, 2, 56, 0
4, 34416, Note_on_c, 2, 62, 30
4, 34478, Note_on_c, 2, 62, 0
4, 34480, Note_on_c, 2, 58, 30
4, 34542, Note_on_c, 2, 58, 0
4, 34544, Note_on_c, 2, 56, 30
4, 34606, Note_on_c, 2, 56, 0
4, 34608, Note_on_c, 2, 63, 30
4, 34670, Note_on_c, 2, 63, 0
4, 34672, Note_on_c, 2, 59, 30
4, 34734, Note_on_c, 2, 59, 0
4, 34736, Note_on_c, 2, 56, 30
4, 34798, Note_on_c, 2, 56, 0
4, 34800, Note_on_c, 2, 64, 30
4, 34862, Note_on_c, 2, 64, 0
4, 34864, Note_on_c, 2, 58, 30
4, 34926, Note_on_c, 2, 58, 0
4, 34928, Note_on_c, 2, 56, 30
4, 34990, Note_on_c, 2, 56, 0
4, 34992, Note_on_c, 2, 63, 30
4, 35054, Note_on_c, 2, 63, 0
4, 35056, Note_on_c, 2, 59, 30
4, 35118, Note_on_c, 2, 59, 0
4, 35120, Note_on_c, 2, 56, 30
4, 35182, Note_on_c, 2, 56, 0
4, 35184, Note_on_c, 2, 62, 30
4, 35246, Note_on_c, 2, 62, 0
4, 35248, Note_on_c, 2, 58, 30
4, 35310, Note_on_c, 2, 58, 0
4, 35312, Note_on_c, 2, 56, 30
4, 35374, Note_on_c, 2, 56, 0
4, 35376, Note_on_c, 2, 63, 30
4, 35438, Note_on_c, 2, 63, 0
4, 35440, Note_on_c, 2, 59, 30
4, 35502, Note_on_c, 2, 59, 0
4, 35504, Note_on_c, 2, 56, 30
4, 35566, Note_on_c, 2, 56, 0
4, 35568, Note_on_c, 2, 64, 30
4, 35630, Note_on_c, 2, 64, 0
4, 35632, Note_on_c, 2, 58, 30
4, 35694, Note_on_c, 2, 58, 0
4, 35696, Note_on_c, 2, 56, 30
4, 35758, Note_on_c, 2, 56, 0
4, 35760, Note_on_c, 2, 63, 30
4, 35822, Note_on_c, 2, 63, 0
4, 35824, Note_on_c, 2, 59, 30
4, 35886, Note_on_c, 2, 59, 0
4, 35888, Note_on_c, 2, 56, 30
4, 35950, Note_on_c, 2, 56, 0
4, 35952, Note_on_c, 2, 62, 30
4, 36014, Note_on_c, 2, 62, 0
4, 36016, Note_on_c, 2, 58, 30
4, 36078, Note_on_c, 2, 58, 0
4, 36080, Note_on_c, 2, 56, 30
4, 36142, Note_on_c, 2, 56, 0
4, 36144, Note_on_c, 2, 63, 30
4, 36206, Note_on_c, 2, 63, 0
4, 36208, Note_on_c, 2, 59, 30
4, 36270, Note_on_c, 2, 59, 0
4, 36272, Note_on_c, 2, 56, 30
4, 36334, Note_on_c, 2, 56, 0
4, 36336, Note_on_c, 2, 64, 30
4, 36398, Note_on_c, 2, 64, 0
4, 36400, Note_on_c, 2, 58, 30
4, 36462, Note_on_c, 2, 58, 0
4, 36464, Note_on_c, 2, 56, 30
4, 36526, Note_on_c, 2, 56, 0
4, 36528, Note_on_c, 2, 63, 30
4, 36590, Note_on_c, 2, 63, 0
4, 36592, Note_on_c, 2, 59, 30
4, 36654, Note_on_c, 2, 59, 0
4, 36656, Note_on_c, 2, 56, 30
4, 36718, Note_on_c, 2, 56, 0
4, 36720, Note_on_c, 2, 62, 30
4, 36782, Note_on_c, 2, 62, 0
4, 36784, Note_on_c, 2, 58, 30
4, 36846, Note_on_c, 2, 58, 0
4, 36848, Note_on_c, 2, 56, 30
4, 36910, Note_on_c, 2, 56, 0
4, 36912, Note_on_c, 2, 62, 30
4, 36974, Note_on_c, 2, 62, 0
4, 36976, Note_on_c, 2, 58, 30
4, 37038, Note_on_c, 2, 58, 0
4, 37040, Note_on_c, 2, 55, 30
4, 37102, Note_on_c, 2, 55, 0
4, 37104, Note_on_c, 2, 62, 30
4, 37166, Note_on_c, 2, 62, 0
4, 37168, Note_on_c, 2, 59, 30
4, 37230, Note_on_c, 2, 59, 0
4, 37232, Note_on_c, 2, 54, 30
4, 37294, Note_on_c, 2, 54, 0
4, 37296, Note_on_c, 2, 62, 30
4, 37358, Note_on_c, 2, 62, 0
4, 37360, Note_on_c, 2, 58, 30
4, 37422, Note_on_c, 2, 58, 0
4, 37424, Note_on_c, 2, 55, 30
4, 37486, Note_on_c, 2, 55, 0
4, 37488, Note_on_c, 2, 62, 30
4, 37550, Note_on_c, 2, 62, 0
4, 37552, Note_on_c, 2, 59, 30
4, 37614, Note_on_c, 2, 59, 0
4, 37616, Note_on_c, 2, 54, 30
4, 37678, Note_on_c, 2, 54, 0
4, 37680, Note_on_c, 2, 62, 30
4, 37742, Note_on_c, 2, 62, 0
4, 37744, Note_on_c, 2, 58, 30
4, 37806, Note_on_c, 2, 58, 0
4, 37808, Note_on_c, 2, 55, 30
4, 37870, Note_on_c, 2, 55, 0
4, 37872, Note_on_c, 2, 62, 30
4, 37934, Note_on_c, 2, 62, 0
4, 37936, Note_on_c, 2, 59, 30
4, 37998, Note_on_c, 2, 59, 0
4, 38000, Note_on_c, 2, 54, 30
4, 38062, Note_on_c, 2, 54, 0
4, 38064, Note_on_c, 2, 62, 30
4, 38126, Note_on_c, 2, 62, 0
4, 38128, Note_on_c, 2, 58, 30
4, 38190, Note_on_c, 2, 58, 0
4, 38192, Note_on_c, 2, 55, 30
4, 38254, Note_on_c, 2, 55, 0
4, 38256, Note_on_c, 2, 62, 30
4, 38318, Note_on_c, 2, 62, 0
4, 38320, Note_on_c, 2, 59, 30
4, 38382, Note_on_c, 2, 59, 0
4, 38384, Note_on_c, 2, 54, 30
4, 38446, Note_on_c, 2, 54, 0
4, 38448, Note_on_c, 2, 62, 30
4, 38510, Note_on_c, 2, 62, 0
4, 38512, Note_on_c, 2, 58, 30
4, 38574, Note_on_c, 2, 58, 0
4, 38576, Note_on_c, 2, 55, 30
4, 38638, Note_on_c, 2, 55, 0
4, 38640, Note_on_c, 2, 62, 30
4, 38702, Note_on_c, 2, 62, 0
4, 38704, Note_on_c, 2, 59, 30
4, 38766, Note_on_c, 2, 59, 0
4, 38768, Note_on_c, 2, 54, 30
4, 38830, Note_on_c, 2, 54, 0
4, 38832, Note_on_c, 2, 62, 30
4, 38894, Note_on_c, 2, 62, 0
4, 38896, Note_on_c, 2, 58, 30
4, 38958, Note_on_c, 2, 58, 0
4, 38960, Note_on_c, 2, 55, 30
4, 39022, Note_on_c, 2, 55, 0
4, 39024, Note_on_c, 2, 62, 30
4, 39086, Note_on_c, 2, 62, 0
4, 39088, Note_on_c, 2, 59, 30
4, 39150, Note_on_c, 2, 59, 0
4, 39152, Note_on_c, 2, 54, 30
4, 39214, Note_on_c, 2, 54, 0
4, 39216, Note_on_c, 2, 62, 30
4, 39278, Note_on_c, 2, 62, 0
4, 39280, Note_on_c, 2, 58, 30
4, 39342, Note_on_c, 2, 58, 0
4, 39344, Note_on_c, 2, 55, 30
4, 39406, Note_on_c, 2, 55, 0
4, 39408, Note_on_c, 2, 62, 30
4, 39470, Note_on_c, 2, 62, 0
4, 39472, Note_on_c, 2, 59, 30
4, 39534, Note_on_c, 2, 59, 0
4, 39536, Note_on_c, 2, 54, 30
4, 39598, Note_on_c, 2, 54, 0
4, 39600, Note_on_c, 2, 62, 30
4, 39662, Note_on_c, 2, 62, 0
4, 39664, Note_on_c, 2, 58, 30
4, 39726, Note_on_c, 2, 58, 0
4, 39728, Note_on_c, 2, 55, 30
4, 39790, Note_on_c, 2, 55, 0
4, 39792, Note_on_c, 2, 62, 30
4, 39854, Note_on_c, 2, 62, 0
4, 39856, Note_on_c, 2, 59, 30
4, 39918, Note_on_c, 2, 59, 0
4, 39920, Note_on_c, 2, 54, 30
4, 39982, Note_on_c, 2, 54, 0
4, 39984, Note_on_c, 2, 61, 30
4, 40046, Note_on_c, 2, 61, 0
4, 40048, Note_on_c, 2, 57, 30
4, 40110, Note_on_c, 2, 57, 0
4, 40112, Note_on_c, 2, 54, 30
4, 40174, Note_on_c, 2, 54, 0
4, 40176, Note_on_c, 2, 62, 30
4, 40238, Note_on_c, 2, 62, 0
4, 40240, Note_on_c, 2, 56, 30
4, 40302, Note_on_c, 2, 56, 0
4, 40304, Note_on_c, 2, 54, 30
4, 40366, Note_on_c, 2, 54, 0
4, 40368, Note_on_c, 2, 61, 30
4, 40430, Note_on_c, 2, 61, 0
4, 40432, Note_on_c, 2, 57, 30
4, 40494, Note_on_c, 2, 57, 0
4, 40496, Note_on_c, 2, 54, 30
4, 40558, Note_on_c, 2, 54, 0
4, 40560, Note_on_c, 2, 60, 30
4, 40622, Note_on_c, 2, 60, 0
4, 40624, Note_on_c, 2, 56, 30
4, 40686, Note_on_c, 2, 56, 0
4, 40688, Note_on_c, 2, 54, 30
4, 40750, Note_on_c, 2, 54, 0
4, 40752, Note_on_c, 2, 61, 30
4, 40814, Note_on_c, 2, 61, 0
4, 40816, Note_on_c, 2, 57, 30
4, 40878, Note_on_c, 2, 57, 0
4, 40880, Note_on_c, 2, 54, 30
4, 40942, Note_on_c, 2, 54, 0
4, 40944, Note_on_c, 2, 62, 30
4, 41006, Note_on_c, 2, 62, 0
4, 41008, Note_on_c, 2, 56, 30
4, 41070, Note_on_c, 2, 56, 0
4, 41072, Note_on_c, 2, 54, 30
4, 41134, Note_on_c, 2, 54, 0
4, 41136, Note_on_c, 2, 61, 30
4, 41198, Note_on_c, 2, 61, 0
4, 41200, Note_on_c, 2, 57, 30
4, 41262, Note_on_c, 2, 57, 0
4, 41264, Note_on_c, 2, 54, 30
4, 41326, Note_on_c, 2, 54, 0
4, 41328, Note_on_c, 2, 60, 30
4, 41390, Note_on_c, 2, 60, 0
4, 41392, Note_on_c, 2, 56, 30
4, 41454, Note_on_c, 2, 56, 0
4, 41456, Note_on_c, 2, 54, 30
4, 41518, Note_on_c, 2, 54, 0
4, 41520, Note_on_c, 2, 61, 30
4, 41582, Note_on_c, 2, 61, 0
4, 41584, Note_on_c, 2, 57, 30
4, 41646, Note_on_c, 2, 57, 0
4, 41648, Note_on_c, 2, 54, 30
4, 41710, Note_on_c, 2, 54, 0
4, 41712, Note_on_c, 2, 62, 30
4, 41774, Note_on_c, 2, 62, 0
4, 41776, Note_on_c, 2, 56, 30
4, 41838, Note_on_c, 2, 56, 0
4, 41840, Note_on_c, 2, 54, 30
4, 41902, Note_on_c, 2, 54, 0
4, 41904, Note_on_c, 2, 61, 30
4, 41966, Note_on_c, 2, 61, 0
4, 41968, Note_on_c, 2, 57, 30
4, 42030, Note_on_c, 2, 57, 0
4, 42032, Note_on_c, 2, 54, 30
4, 42094, Note_on_c, 2, 54, 0
4, 42096, Note_on_c, 2, 60, 30
4, 42158, Note_on_c, 2, 60, 0
4, 42160, Note_on_c, 2, 56, 30
4, 42222, Note_on_c, 2, 56, 0
4, 42224, Note_on_c, 2, 54, 30
4, 42286, Note_on_c, 2, 54, 0
4, 42288, Note_on_c, 2, 61, 30
4, 42350, Note_on_c, 2, 61, 0
4, 42352, Note_on_c, 2, 57, 30
4, 42414, Note_on_c, 2, 57, 0
4, 42416, Note_on_c, 2, 54, 30
4, 42478, Note_on_c, 2, 54, 0
4, 42480, Note_on_c, 2, 62, 30
4, 42542, Note_on_c, 2, 62, 0
4, 42544, Note_on_c, 2, 56, 30
4, 42606, Note_on_c, 2, 56, 0
4, 42608, Note_on_c, 2, 54, 30
4, 42670, Note_on_c, 2, 54, 0
4, 42672, Note_on_c, 2, 61, 30
4, 42734, Note_on_c, 2, 61, 0
4, 42736, Note_on_c, 2, 57, 30
4, 42798, Note_on_c, 2, 57, 0
4, 42800, Note_on_c, 2, 54, 30
4, 42862, Note_on_c, 2, 54, 0
4, 42864, Note_on_c, 2, 60, 30
4, 42926, Note_on_c, 2, 60, 0
4, 42928, Note_on_c, 2, 56, 30
4, 42990, Note_on_c, 2, 56, 0
4, 42992, Note_on_c, 2, 54, 30
4, 43054, Note_on_c, 2, 54, 0
4, 43056, Note_on_c, 2, 67, 30
4, 43118, Note_on_c, 2, 67, 0
4, 43120, Note_on_c, 2, 63, 30
4, 43182, Note_on_c, 2, 63, 0
4, 43184, Note_on_c, 2, 60, 30
4, 43246, Note_on_c, 2, 60, 0
4, 43248, Note_on_c, 2, 67, 30
4, 43310, Note_on_c, 2, 67, 0
4, 43312, Note_on_c, 2, 64, 30
4, 43374, Note_on_c, 2, 64, 0
4, 43376, Note_on_c, 2, 59, 30
4, 43438, Note_on_c, 2, 59, 0
4, 43440, Note_on_c, 2, 67, 30
4, 43502, Note_on_c, 2, 67, 0
4, 43504, Note_on_c, 2, 63, 30
4, 43566, Note_on_c, 2, 63, 0
4, 43568, Note_on_c, 2, 60, 30
4, 43630, Note_on_c, 2, 60, 0
4, 43632, Note_on_c, 2, 67, 30
4, 43694, Note_on_c, 2, 67, 0
4, 43696, Note_on_c, 2, 64, 30
4, 43758, Note_on_c, 2, 64, 0
4, 43760, Note_on_c, 2, 59, 30
4, 43822, Note_on_c, 2, 59, 0
4, 43824, Note_on_c, 2, 67, 30
4, 43886, Note_on_c, 2, 67, 0
4, 43888, Note_on_c, 2, 63, 30
4, 43950, Note_on_c, 2, 63, 0
4, 43952, Note_on_c, 2, 60, 30
4, 44014, Note_on_c, 2, 60, 0
4, 44016, Note_on_c, 2, 67, 30
4, 44078, Note_on_c, 2, 67, 0
4, 44080, Note_on_c, 2, 64, 30
4, 44142, Note_on_c, 2, 64, 0
4, 44144, Note_on_c, 2, 59, 30
4, 44206, Note_on_c, 2, 59, 0
4, 44208, Note_on_c, 2, 67, 30
4, 44270, Note_on_c, 2, 67, 0
4, 44272, Note_on_c, 2, 63, 30
4, 44334, Note_on_c, 2, 63, 0
4, 44336, Note_on_c, 2, 60, 30
4, 44398, Note_on_c, 2, 60, 0
4, 44400, Note_on_c, 2, 67, 30
4, 44462, Note_on_c, 2, 67, 0
4, 44464, Note_on_c, 2, 64, 30
4, 44526, Note_on_c, 2, 64, 0
4, 44528, Note_on_c, 2, 59, 30
4, 44590, Note_on_c, 2, 59, 0
4, 44592, Note_on_c, 2, 67, 30
4, 44654, Note_on_c, 2, 67, 0
4, 44656, Note_on_c, 2, 63, 30
4, 44718, Note_on_c, 2, 63, 0
4, 44720, Note_on_c, 2, 60, 30
4, 44782, Note_on_c, 2, 60, 0
4, 44784, Note_on_c, 2, 67, 30
4, 44846, Note_on_c, 2, 67, 0
4, 44848, Note_on_c, 2, 64, 30
4, 44910, Note_on_c, 2, 64, 0
4, 44912, Note_on_c, 2, 59, 30
4, 44974, Note_on_c, 2, 59, 0
4, 44976, Note_on_c, 2, 67, 30
4, 45038, Note_on_c, 2, 67, 0
4, 45040, Note_on_c, 2, 63, 30
4, 45102, Note_on_c, 2, 63, 0
4, 45104, Note_on_c, 2, 60, 30
4, 45166, Note_on_c, 2, 60, 0
4, 45168, Note_on_c, 2, 67, 30
4, 45230, Note_on_c, 2, 67, 0
4, 45232, Note_on_c, 2, 64, 30
4, 45294, Note_on_c, 2, 64, 0
4, 45296, Note_on_c, 2, 59, 30
4, 45358, Note_on_c, 2, 59, 0
4, 45360, Note_on_c, 2, 67, 30
4, 45422, Note_on_c, 2, 67, 0
4, 45424, Note_on_c, 2, 63, 30
4, 45486, Note_on_c, 2, 63, 0
4, 45488, Note_on_c, 2, 60, 30
4, 45550, Note_on_c, 2, 60, 0
4, 45552, Note_on_c, 2, 67, 30
4, 45614, Note_on_c, 2, 67, 0
4, 45616, Note_on_c, 2, 64, 30
4, 45678, Note_on_c, 2, 64, 0
4, 45680, Note_on_c, 2, 59, 30
4, 45742, Note_on_c, 2, 59, 0
4, 45744, Note_on_c, 2, 67, 30
4, 45806, Note_on_c, 2, 67, 0
4, 45808, Note_on_c, 2, 63, 30
4, 45870, Note_on_c, 2, 63, 0
4, 45872, Note_on_c, 2, 60, 30
4, 45934, Note_on_c, 2, 60, 0
4, 45936, Note_on_c, 2, 67, 30
4, 45998, Note_on_c, 2, 67, 0
4, 46000, Note_on_c, 2, 64, 30
4, 46062, Note_on_c, 2, 64, 0
4, 46064, Note_on_c, 2, 59, 30
4, 46126, Note_on_c, 2, 59, 0
4, 46128, Note_on_c, 2, 66, 30
4, 46190, Note_on_c, 2, 66, 0
4, 46192, Note_on_c, 2, 62, 30
4, 46254, Note_on_c, 2, 62, 0
4, 46256, Note_on_c, 2, 59, 30
4, 46318, Note_on_c, 2, 59, 0
4, 46320, Note_on_c, 2, 67, 30
4, 46382, Note_on_c, 2, 67, 0
4, 46384, Note_on_c, 2, 61, 30
4, 46446, Note_on_c, 2, 61, 0
4, 46448, Note_on_c, 2, 59, 30
4, 46510, Note_on_c, 2, 59, 0
4, 46512, Note_on_c, 2, 66, 30
4, 46574, Note_on_c, 2, 66, 0
4, 46576, Note_on_c, 2, 62, 30
4, 46638, Note_on_c, 2, 62, 0
4, 46640, Note_on_c, 2, 59, 30
4, 46702, Note_on_c, 2, 59, 0
4, 46704, Note_on_c, 2, 65, 30
4, 46766, Note_on_c, 2, 65, 0
4, 46768, Note_on_c, 2, 61, 30
4, 46830, Note_on_c, 2, 61, 0
4, 46832, Note_on_c, 2, 59, 30
4, 46894, Note_on_c, 2, 59, 0
4, 46896, Note_on_c, 2, 66, 30
4, 46958, Note_on_c, 2, 66, 0
4, 46960, Note_on_c, 2, 62, 30
4, 47022, Note_on_c, 2, 62, 0
4, 47024, Note_on_c, 2, 59, 30
4, 47086, Note_on_c, 2, 59, 0
4, 47088, Note_on_c, 2, 67, 30
4, 47150, Note_on_c, 2, 67, 0
4, 47152, Note_on_c, 2, 61, 30
4, 47214, Note_on_c, 2, 61, 0
4, 47216, Note_on_c, 2, 59, 30
4, 47278, Note_on_c, 2, 59, 0
4, 47280, Note_on_c, 2, 66, 30
4, 47342, Note_on_c, 2, 66, 0
4, 47344, Note_on_c, 2, 62, 30
4, 47406, Note_on_c, 2, 62, 0
4, 47408, Note_on_c, 2, 59, 30
4, 47470, Note_on_c, 2, 59, 0
4, 47472, Note_on_c, 2, 65, 30
4, 47534, Note_on_c, 2, 65, 0
4, 47536, Note_on_c, 2, 61, 30
4, 47598, Note_on_c, 2, 61, 0
4, 47600, Note_on_c, 2, 59, 30
4, 47662, Note_on_c, 2, 59, 0
4, 47664, Note_on_c, 2, 66, 30
4, 47726, Note_on_c, 2, 66, 0
4, 47728, Note_on_c, 2, 62, 30
4, 47790, Note_on_c, 2, 62, 0
4, 47792, Note_on_c, 2, 59, 30
4, 47854, Note_on_c, 2, 59, 0
4, 47856, Note_on_c, 2, 67, 30
4, 47918, Note_on_c, 2, 67, 0
4, 47920, Note_on_c, 2, 61, 30
4, 47982, Note_on_c, 2, 61, 0
4, 47984, Note_on_c, 2, 59, 30
4, 48046, Note_on_c, 2, 59, 0
4, 48048, Note_on_c, 2, 66, 30
4, 48110, Note_on_c, 2, 66, 0
4, 48112, Note_on_c, 2, 62, 30
4, 48174, Note_on_c, 2, 62, 0
4, 48176, Note_on_c, 2, 59, 30
4, 48238, Note_on_c, 2, 59, 0
4, 48240, Note_on_c, 2, 65, 30
4, 48302, Note_on_c, 2, 65, 0
4, 48304, Note_on_c, 2, 61, 30
4, 48366, Note_on_c, 2, 61, 0
4, 48368, Note_on_c, 2, 59, 30
4, 48430, Note_on_c, 2, 59, 0
4, 48432, Note_on_c, 2, 66, 30
4, 48494, Note_on_c, 2, 66, 0
4, 48496, Note_on_c, 2, 62, 30
4, 48558, Note_on_c, 2, 62, 0
4, 48560, Note_on_c, 2, 59, 30
4, 48622, Note_on_c, 2, 59, 0
4, 48624, Note_on_c, 2, 67, 30
4, 48686, Note_on_c, 2, 67, 0
4, 48688, Note_on_c, 2, 61, 30
4, 48750, Note_on_c, 2, 61, 0
4, 48752, Note_on_c, 2, 59, 30
4, 48814, Note_on_c, 2, 59, 0
4, 48816, Note_on_c, 2, 66, 30
4, 48878, Note_on_c, 2, 66, 0
4, 48880, Note_on_c, 2, 62, 30
4, 48942, Note_on_c, 2, 62, 0
4, 48944, Note_on_c, 2, 59, 30
4, 49006, Note_on_c, 2, 59, 0
4, 49008, Note_on_c, 2, 65, 30
4, 49070, Note_on_c, 2, 65, 0
4, 49072, Note_on_c, 2, 61, 30
4, 49134, Note_on_c, 2, 61, 0
4, 49136, Note_on_c, 2, 59, 30
4, 49198, Note_on_c, 2, 59, 0
4, 49200, Note_on_c, 2, 67, 30
4, 49262, Note_on_c, 2, 67, 0
4, 49264, Note_on_c, 2, 63, 30
4, 49326, Note_on_c, 2, 63, 0
4, 49328, Note_on_c, 2, 60, 30
4, 49390, Note_on_c, 2, 60, 0
4, 49392, Note_on_c, 2, 67, 30
4, 49454, Note_on_c, 2, 67, 0
4, 49456, Note_on_c, 2, 64, 30
4, 49518, Note_on_c, 2, 64, 0
4, 49520, Note_on_c, 2, 59, 30
4, 49582, Note_on_c, 2, 59, 0
4, 49584, Note_on_c, 2, 67, 30
4, 49646, Note_on_c, 2, 67, 0
4, 49648, Note_on_c, 2, 63, 30
4, 49710, Note_on_c, 2, 63, 0
4, 49712, Note_on_c, 2, 60, 30
4, 49774, Note_on_c, 2, 60, 0
4, 49776, Note_on_c, 2, 67, 30
4, 49838, Note_on_c, 2, 67, 0
4, 49840, Note_on_c, 2, 64, 30
4, 49902, Note_on_c, 2, 64, 0
4, 49904, Note_on_c, 2, 59, 30
4, 49966, Note_on_c, 2, 59, 0
4, 49968, Note_on_c, 2, 67, 30
4, 50030, Note_on_c, 2, 67, 0
4, 50032, Note_on_c, 2, 63, 30
4, 50094, Note_on_c, 2, 63, 0
4, 50096, Note_on_c, 2, 60, 30
4, 50158, Note_on_c, 2, 60, 0
4, 50160, Note_on_c, 2, 67, 30
4, 50222, Note_on_c, 2, 67, 0
4, 50224, Note_on_c, 2, 64, 30
4, 50286, Note_on_c, 2, 64, 0
4, 50288, Note_on_c, 2, 59, 30
4, 50350, Note_on_c, 2, 59, 0
4, 50352, Note_on_c, 2, 67, 30
4, 50414, Note_on_c, 2, 67, 0
4, 50416, Note_on_c, 2, 63, 30
4, 50478, Note_on_c, 2, 63, 0
4, 50480, Note_on_c, 2, 60, 30
4, 50542, Note_on_c, 2, 60, 0
4, 50544, Note_on_c, 2, 67, 30
4, 50606, Note_on_c, 2, 67, 0
4, 50608, Note_on_c, 2, 64, 30
4, 50670, Note_on_c, 2, 64, 0
4, 50672, Note_on_c, 2, 59, 30
4, 50734, Note_on_c, 2, 59, 0
4, 50736, Note_on_c, 2, 67, 30
4, 50798, Note_on_c, 2, 67, 0
4, 50800, Note_on_c, 2, 63, 30
4, 50862, Note_on_c, 2, 63, 0
4, 50864, Note_on_c, 2, 60, 30
4, 50926, Note_on_c, 2, 60, 0
4, 50928, Note_on_c, 2, 67, 30
4, 50990, Note_on_c, 2, 67, 0
4, 50992, Note_on_c, 2, 64, 30
4, 51054, Note_on_c, 2, 64, 0
4, 51056, Note_on_c, 2, 59, 30
4, 51118, Note_on_c, 2, 59, 0
4, 51120, Note_on_c, 2, 67, 30
4, 51182, Note_on_c, 2, 67, 0
4, 51184, Note_on_c, 2, 63, 30
4, 51246, Note_on_c, 2, 63, 0
4, 51248, Note_on_c, 2, 60, 30
4, 51310, Note_on_c, 2, 60, 0
4, 51312, Note_on_c, 2, 67, 30
4, 51374, Note_on_c, 2, 67, 0
4, 51376, Note_on_c, 2, 64, 30
4, 51438, Note_on_c, 2, 64, 0
4, 51440, Note_on_c, 2, 59, 30
4, 51502, Note_on_c, 2, 59, 0
4, 51504, Note_on_c, 2, 67, 30
4, 51566, Note_on_c, 2, 67, 0
4, 51568, Note_on_c, 2, 63, 30
4, 51630, Note_on_c, 2, 63, 0
4, 51632, Note_on_c, 2, 60, 30
4, 51694, Note_on_c, 2, 60, 0
4, 51696, Note_on_c, 2, 67, 30
4, 51758, Note_on_c, 2, 67, 0
4, 51760, Note_on_c, 2, 64, 30
4, 51822, Note_on_c, 2, 64, 0
4, 51824, Note_on_c, 2, 59, 30
4, 51886, Note_on_c, 2, 59, 0
4, 51888, Note_on_c, 2, 67, 30
4, 51950, Note_on_c, 2, 67, 0
4, 51952, Note_on_c, 2, 63, 30
4, 52014, Note_on_c, 2, 63, 0
4, 52016, Note_on_c, 2, 60, 30
4, 52078, Note_on_c, 2, 60, 0
4, 52080, Note_on_c, 2, 67, 30
4, 52142, Note_on_c, 2, 67, 0
4, 52144, Note_on_c, 2, 64, 30
4, 52206, Note_on_c, 2, 64, 0
4, 52208, Note_on_c, 2, 59, 30
4, 52270, Note_on_c, 2, 59, 0
4, 52272, Note_on_c, 2, 66, 30
4, 52334, Note_on_c, 2, 66, 0
4, 52336, Note_on_c, 2, 62, 30
4, 52398, Note_on_c, 2, 62, 0
4, 52400, Note_on_c, 2, 59, 30
4, 52462, Note_on_c, 2, 59, 0
4, 52464, Note_on_c, 2, 67, 30
4, 52526, Note_on_c, 2, 67, 0
4, 52528, Note_on_c, 2, 61, 30
4, 52590, Note_on_c, 2, 61, 0
4, 52592, Note_on_c, 2, 59, 30
4, 52654, Note_on_c, 2, 59, 0
4, 52656, Note_on_c, 2, 66, 30
4, 52718, Note_on_c, 2, 66, 0
4, 52720, Note_on_c, 2, 62, 30
4, 52782, Note_on_c, 2, 62, 0
4, 52784, Note_on_c, 2, 59, 30
4, 52846, Note_on_c, 2, 59, 0
4, 52848, Note_on_c, 2, 65, 30
4, 52910, Note_on_c, 2, 65, 0
4, 52912, Note_on_c, 2, 61, 30
4, 52974, Note_on_c, 2, 61, 0
4, 52976, Note_on_c, 2, 59, 30
4, 53038, Note_on_c, 2, 59, 0
4, 53040, Note_on_c, 2, 66, 30
4, 53102, Note_on_c, 2, 66, 0
4, 53104, Note_on_c, 2, 62, 30
4, 53166, Note_on_c, 2, 62, 0
4, 53168, Note_on_c, 2, 59, 30
4, 53230, Note_on_c, 2, 59, 0
4, 53232, Note_on_c, 2, 67, 30
4, 53294, Note_on_c, 2, 67, 0
4, 53296, Note_on_c, 2, 61, 30
4, 53358, Note_on_c, 2, 61, 0
4, 53360, Note_on_c, 2, 59, 30
4, 53422, Note_on_c, 2, 59, 0
4, 53424, Note_on_c, 2, 66, 30
4, 53486, Note_on_c, 2, 66, 0
4, 53488, Note_on_c, 2, 62, 30
4, 53550, Note_on_c, 2, 62, 0
4, 53552, Note_on_c, 2, 59, 30
4, 53614, Note_on_c, 2, 59, 0
4, 53616, Note_on_c, 2, 65, 30
4, 53678, Note_on_c, 2, 65, 0
4, 53680, Note_on_c, 2, 61, 30
4, 53742, Note_on_c, 2, 61, 0
4, 53744, Note_on_c, 2, 59, 30
4, 53806, Note_on_c, 2, 59, 0
4, 53808, Note_on_c, 2, 66, 30
4, 53870, Note_on_c, 2, 66, 0
4, 53872, Note_on_c, 2, 62, 30
4, 53934, Note_on_c, 2, 62, 0
4, 53936, Note_on_c, 2, 59, 30
4, 53998, Note_on_c, 2, 59, 0
4, 54000, Note_on_c, 2, 67, 30
4, 54062, Note_on_c, 2, 67, 0
4, 54064, Note_on_c, 2, 61, 30
4, 54126, Note_on_c, 2, 61, 0
4, 54128, Note_on_c, 2, 59, 30
4, 54190, Note_on_c, 2, 59, 0
4, 54192, Note_on_c, 2, 66, 30
4, 54254, Note_on_c, 2, 66, 0
4, 54256, Note_on_c, 2, 62, 30
4, 54318, Note_on_c, 2, 62, 0
4, 54320, Note_on_c, 2, 59, 30
4, 54382, Note_on_c, 2, 59, 0
4, 54384, Note_on_c, 2, 65, 30
4, 54446, Note_on_c, 2, 65, 0
4, 54448, Note_on_c, 2, 61, 30
4, 54510, Note_on_c, 2, 61, 0
4, 54512, Note_on_c, 2, 59, 30
4, 54574, Note_on_c, 2, 59, 0
4, 54576, Note_on_c, 2, 66, 30
4, 54638, Note_on_c, 2, 66, 0
4, 54640, Note_on_c, 2, 62, 30
4, 54702, Note_on_c, 2, 62, 0
4, 54704, Note_on_c, 2, 59, 30
4, 54766, Note_on_c, 2, 59, 0
4, 54768, Note_on_c, 2, 67, 30
4, 54830, Note_on_c, 2, 67, 0
4, 54832, Note_on_c, 2, 61, 30
4, 54894, Note_on_c, 2, 61, 0
4, 54896, Note_on_c, 2, 59, 30
4, 54958, Note_on_c, 2, 59, 0
4, 54960, Note_on_c, 2, 66, 30
4, 55022, Note_on_c, 2, 66, 0
4, 55024, Note_on_c, 2, 62, 30
4, 55086, Note_on_c, 2, 62, 0
4, 55088, Note_on_c, 2, 59, 30
4, 55150, Note_on_c, 2, 59, 0
4, 55152, Note_on_c, 2, 65, 30
4, 55214, Note_on_c, 2, 65, 0
4, 55216, Note_on_c, 2, 61, 30
4, 55278, Note_on_c, 2, 61, 0
4, 55280, Note_on_c, 2, 59, 30
4, 55342, Note_on_c, 2, 59, 0
4, 55344, Note_on_c, 2, 67, 30
4, 55406, Note_on_c, 2, 67, 0
4, 55408, Note_on_c, 2, 63, 30
4, 55470, Note_on_c, 2, 63, 0
4, 55472, Note_on_c, 2, 60, 30
4, 55534, Note_on_c, 2, 60, 0
4, 55536, Note_on_c, 2, 67, 30
4, 55598, Note_on_c, 2, 67, 0
4, 55600, Note_on_c, 2, 64, 30
4, 55662, Note_on_c, 2, 64, 0
4, 55664, Note_on_c, 2, 59, 30
4, 55726, Note_on_c, 2, 59, 0
4, 55728, Note_on_c, 2, 67, 30
4, 55790, Note_on_c, 2, 67, 0
4, 55792, Note_on_c, 2, 63, 30
4, 55854, Note_on_c, 2, 63, 0
4, 55856, Note_on_c, 2, 60, 30
4, 55918, Note_on_c, 2, 60, 0
4, 55920, Note_on_c, 2, 67, 30
4, 55982, Note_on_c, 2, 67, 0
4, 55984, Note_on_c, 2, 64, 30
4, 56046, Note_on_c, 2, 64, 0
4, 56048, Note_on_c, 2, 59, 30
4, 56110, Note_on_c, 2, 59, 0
4, 56112, Note_on_c, 2, 67, 30
4, 56174, Note_on_c, 2, 67, 0
4, 56176, Note_on_c, 2, 63, 30
4, 56238, Note_on_c, 2, 63, 0
4, 56240, Note_on_c, 2, 60, 30
4, 56302, Note_on_c, 2, 60, 0
4, 56304, Note_on_c, 2, 67, 30
4, 56366, Note_on_c, 2, 67, 0
4, 56368, Note_on_c, 2, 64, 30
4, 56430, Note_on_c, 2, 64, 0
4, 56432, Note_on_c, 2, 59, 30
4, 56494, Note_on_c, 2, 59, 0
4, 56496, Note_on_c, 2, 67, 30
4, 56558, Note_on_c, 2, 67, 0
4, 56560, Note_on_c, 2, 63, 30
4, 56622, Note_on_c, 2, 63, 0
4, 56624, Note_on_c, 2, 60, 30
4, 56686, Note_on_c, 2, 60, 0
4, 56688, Note_on_c, 2, 67, 30
4, 56750, Note_on_c, 2, 67, 0
4, 56752, Note_on_c, 2, 64, 30
4, 56814, Note_on_c, 2, 64, 0
4, 56816, Note_on_c, 2, 59, 30
4, 56878, Note_on_c, 2, 59, 0
4, 56880, Note_on_c, 2, 67, 30
4, 56942, Note_on_c, 2, 67, 0
4, 56944, Note_on_c, 2, 63, 30
4, 57006, Note_on_c, 2, 63, 0
4, 57008, Note_on_c, 2, 60, 30
4, 57070, Note_on_c, 2, 60, 0
4, 57072, Note_on_c, 2, 67, 30
4, 57134, Note_on_c, 2, 67, 0
4, 57136, Note_on_c, 2, 64, 30
4, 57198, Note_on_c, 2, 64, 0
4, 57200, Note_on_c, 2, 59, 30
4, 57262, Note_on_c, 2, 59, 0
4, 57264, Note_on_c, 2, 67, 30
4, 57326, Note_on_c, 2, 67, 0
4, 57328, Note_on_c, 2, 63, 30
4, 57390, Note_on_c, 2, 63, 0
4, 57392, Note_on_c, 2, 60, 30
4, 57454, Note_on_c, 2, 60, 0
4, 57456, Note_on_c, 2, 67, 30
4, 57518, Note_on_c, 2, 67, 0
4, 57520, Note_on_c, 2, 64, 30
4, 57582, Note_on_c, 2, 64, 0
4, 57584, Note_on_c, 2, 59, 30
4, 57646, Note_on_c, 2, 59, 0
4, 57648, Note_on_c, 2, 67, 30
4, 57710, Note_on_c, 2, 67, 0
4, 57712, Note_on_c, 2, 63, 30
4, 57774, Note_on_c, 2, 63, 0
4, 57776, Note_on_c, 2, 60, 30
4, 57838, Note_on_c, 2, 60, 0
4, 57840, Note_on_c, 2, 67, 30
4, 57902, Note_on_c, 2, 67, 0
4, 57904, Note_on_c, 2, 64, 30
4, 57966, Note_on_c, 2, 64, 0
4, 57968, Note_on_c, 2, 59, 30
4, 58030, Note_on_c, 2, 59, 0
4, 58032, Note_on_c, 2, 67, 30
4, 58094, Note_on_c, 2, 67, 0
4, 58096, Note_on_c, 2, 63, 30
4, 58158, Note_on_c, 2, 63, 0
4, 58160, Note_on_c, 2, 60, 30
4, 58222, Note_on_c, 2, 60, 0
4, 58224, Note_on_c, 2, 67, 30
4, 58286, Note_on_c, 2, 67, 0
4, 58288, Note_on_c, 2, 64, 30
4, 58350, Note_on_c, 2, 64, 0
4, 58352, Note_on_c, 2, 59, 30
4, 58414, Note_on_c, 2, 59, 0
4, 58416, Note_on_c, 2, 66, 30
4, 58478, Note_on_c, 2, 66, 0
4, 58480, Note_on_c, 2, 62, 30
4, 58542, Note_on_c, 2, 62, 0
4, 58544, Note_on_c, 2, 59, 30
4, 58606, Note_on_c, 2, 59, 0
4, 58608, Note_on_c, 2, 67, 30
4, 58670, Note_on_c, 2, 67, 0
4, 58672, Note_on_c, 2, 61, 30
4, 58734, Note_on_c, 2, 61, 0
4, 58736, Note_on_c, 2, 59, 30
4, 58798, Note_on_c, 2, 59, 0
4, 58800, Note_on_c, 2, 66, 30
4, 58862, Note_on_c, 2, 66, 0
4, 58864, Note_on_c, 2, 62, 30
4, 58926, Note_on_c, 2, 62, 0
4, 58928, Note_on_c, 2, 59, 30
4, 58990, Note_on_c, 2, 59, 0
4, 58992, Note_on_c, 2, 65, 30
4, 59054, Note_on_c, 2, 65, 0
4, 59056, Note_on_c, 2, 61, 30
4, 59118, Note_on_c, 2, 61, 0
4, 59120, Note_on_c, 2, 59, 30
4, 59182, Note_on_c, 2, 59, 0
4, 59184, Note_on_c, 2, 66, 30
4, 59246, Note_on_c, 2, 66, 0
4, 59248, Note_on_c, 2, 62, 30
4, 59310, Note_on_c, 2, 62, 0
4, 59312, Note_on_c, 2, 59, 30
4, 59374, Note_on_c, 2, 59, 0
4, 59376, Note_on_c, 2, 67, 30
4, 59438, Note_on_c, 2, 67, 0
4, 59440, Note_on_c, 2, 61, 30
4, 59502, Note_on_c, 2, 61, 0
4, 59504, Note_on_c, 2, 59, 30
4, 59566, Note_on_c, 2, 59, 0
4, 59568, Note_on_c, 2, 66, 30
4, 59630, Note_on_c, 2, 66, 0
4, 59632, Note_on_c, 2, 62, 30
4, 59694, Note_on_c, 2, 62, 0
4, 59696, Note_on_c, 2, 59, 30
4, 59758, Note_on_c, 2, 59, 0
4, 59760, Note_on_c, 2, 65, 30
4, 59822, Note_on_c, 2, 65, 0
4, 59824, Note_on_c, 2, 61, 30
4, 59886, Note_on_c, 2, 61, 0
4, 59888, Note_on_c, 2, 59, 30
4, 59950, Note_on_c, 2, 59, 0
4, 59952, Note_on_c, 2, 66, 30
4, 60014, Note_on_c, 2, 66, 0
4, 60016, Note_on_c, 2, 62, 30
4, 60078, Note_on_c, 2, 62, 0
4, 60080, Note_on_c, 2, 59, 30
4, 60142, Note_on_c, 2, 59, 0
4, 60144, Note_on_c, 2, 67, 30
4, 60206, Note_on_c, 2, 67, 0
4, 60208, Note_on_c, 2, 61, 30
4, 60270, Note_on_c, 2, 61, 0
4, 60272, Note_on_c, 2, 59, 30
4, 60334, Note_on_c, 2, 59, 0
4, 60336, Note_on_c, 2, 66, 30
4, 60398, Note_on_c, 2, 66, 0
4, 60400, Note_on_c, 2, 62, 30
4, 60462, Note_on_c, 2, 62, 0
4, 60464, Note_on_c, 2, 59, 30
4, 60526, Note_on_c, 2, 59, 0
4, 60528, Note_on_c, 2, 65, 30
4, 60590, Note_on_c, 2, 65, 0
4, 60592, Note_on_c, 2, 61, 30
4, 60654, Note_on_c, 2, 61, 0
4, 60656, Note_on_c, 2, 59, 30
4, 60718, Note_on_c, 2, 59, 0
4, 60720, Note_on_c, 2, 66, 30
4, 60782, Note_on_c, 2, 66, 0
4, 60784, Note_on_c, 2, 62, 30
4, 60846, Note_on_c, 2, 62, 0
4, 60848, Note_on_c, 2, 59, 30
4, 60910, Note_on_c, 2, 59, 0
4, 60912, Note_on_c, 2, 67, 30
4, 60974, Note_on_c, 2, 67, 0
4, 60976, Note_on_c, 2, 61, 30
4, 61038, Note_on_c, 2, 61, 0
4, 61040, Note_on_c, 2, 59, 30
4, 61102, Note_on_c, 2, 59, 0
4, 61104, Note_on_c, 2, 66, 30
4, 61166, Note_on_c, 2, 66, 0
4, 61168, Note_on_c, 2, 62, 30
4, 61230, Note_on_c, 2, 62, 0
4, 61232, Note_on_c, 2, 59, 30
4, 61294, Note_on_c, 2, 59, 0
4, 61296, Note_on_c, 2, 65, 30
4, 61358, Note_on_c, 2, 65, 0
4, 61360, Note_on_c, 2, 61, 30
4, 61422, Note_on_c, 2, 61, 0
4, 61424, Note_on_c, 2, 59, 30
4, 61486, Note_on_c, 2, 59, 0
4, 61488, Note_on_c, 2, 67, 30
4, 61550, Note_on_c, 2, 67, 0
4, 61552, Note_on_c, 2, 63, 30
4, 61614, Note_on_c, 2, 63, 0
4, 61616, Note_on_c, 2, 60, 30
4, 61678, Note_on_c, 2, 60, 0
4, 61680, Note_on_c, 2, 67, 30
4, 61742, Note_on_c, 2, 67, 0
4, 61744, Note_on_c, 2, 64, 30
4, 61806, Note_on_c, 2, 64, 0
4, 61808, Note_on_c, 2, 59, 30
4, 61870, Note_on_c, 2, 59, 0
4, 61872, Note_on_c, 2, 67, 30
4, 61934, Note_on_c, 2, 67, 0
4, 61936, Note_on_c, 2, 63, 30
4, 61998, Note_on_c, 2, 63, 0
4, 62000, Note_on_c, 2, 60, 30
4, 62062, Note_on_c, 2, 60, 0
4, 62064, Note_on_c, 2, 67, 30
4, 62126, Note_on_c, 2, 67, 0
4, 62128, Note_on_c, 2, 64, 30
4, 62190, Note_on_c, 2, 64, 0
4, 62192, Note_on_c, 2, 59, 30
4, 62254, Note_on_c, 2, 59, 0
4, 62256, Note_on_c, 2, 67, 30
4, 62318, Note_on_c, 2, 67, 0
4, 62320, Note_on_c, 2, 63, 30
4, 62382, Note_on_c, 2, 63, 0
4, 62384, Note_on_c, 2, 60, 30
4, 62446, Note_on_c, 2, 60, 0
4, 62448, Note_on_c, 2, 67, 30
4, 62510, Note_on_c, 2, 67, 0
4, 62512, Note_on_c, 2, 64, 30
4, 62574, Note_on_c, 2, 64, 0
4, 62576, Note_on_c, 2, 59, 30
4, 62638, Note_on_c, 2, 59, 0
4, 62640, Note_on_c, 2, 67, 30
4, 62702, Note_on_c, 2, 67, 0
4, 62704, Note_on_c, 2, 63, 30
4, 62766, Note_on_c, 2, 63, 0
4, 62768, Note_on_c, 2, 60, 30
4, 62830, Note_on_c, 2, 60, 0
4, 62832, Note_on_c, 2, 67, 30
4, 62894, Note_on_c, 2, 67, 0
4, 62896, Note_on_c, 2, 64, 30
4, 62958, Note_on_c, 2, 64, 0
4, 62960, Note_on_c, 2, 59, 30
4, 63022, Note_on_c, 2, 59, 0
4, 63024, Note_on_c, 2, 67, 30
4, 63086, Note_on_c, 2, 67, 0
4, 63088, Note_on_c, 2, 63, 30
4, 63150, Note_on_c, 2, 63, 0
4, 63152, Note_on_c, 2, 60, 30
4, 63214, Note_on_c, 2, 60, 0
4, 63216, Note_on_c, 2, 67, 30
4, 63278, Note_on_c, 2, 67, 0
4, 63280, Note_on_c, 2, 64, 30
4, 63342, Note_on_c, 2, 64, 0
4, 63344, Note_on_c, 2, 59, 30
4, 63406, Note_on_c, 2, 59, 0
4, 63408, Note_on_c, 2, 67, 30
4, 63470, Note_on_c, 2, 67, 0
4, 63472, Note_on_c, 2, 63, 30
4, 63534, Note_on_c, 2, 63, 0
4, 63536, Note_on_c, 2, 60, 30
4, 63598, Note_on_c, 2, 60, 0
4, 63600, Note_on_c, 2, 67, 30
4, 63662, Note_on_c, 2, 67, 0
4, 63664, Note_on_c, 2, 64, 30
4, 63726, Note_on_c, 2, 64, 0
4, 63728, Note_on_c, 2, 59, 30
4, 63790, Note_on_c, 2, 59, 0
4, 63792, Note_on_c, 2, 67, 30
4, 63854, Note_on_c, 2, 67, 0
4, 63856, Note_on_c, 2, 63, 30
4, 63918, Note_on_c, 2, 63, 0
4, 63920, Note_on_c, 2, 60, 30
4, 63982, Note_on_c, 2, 60, 0
4, 63984, Note_on_c, 2, 67, 30
4, 64046, Note_on_c, 2, 67, 0
4, 64048, Note_on_c, 2, 64, 30
4, 64110, Note_on_c, 2, 64, 0
4, 64112, Note_on_c, 2, 59, 30
4, 64174, Note_on_c, 2, 59, 0
4, 64176, Note_on_c, 2, 67, 30
4, 64238, Note_on_c, 2, 67, 0
4, 64240, Note_on_c, 2, 63, 30
4, 64302, Note_on_c, 2, 63, 0
4, 64304, Note_on_c, 2, 60, 30
4, 64366, Note_on_c, 2, 60, 0
4, 64368, Note_on_c, 2, 67, 30
4, 64430, Note_on_c, 2, 67, 0
4, 64432, Note_on_c, 2, 64, 30
4, 64494, Note_on_c, 2, 64, 0
4, 64496, Note_on_c, 2, 59, 30
4, 64558, Note_on_c, 2, 59, 0
4, 64560, Note_on_c, 2, 66, 30
4, 64622, Note_on_c, 2, 66, 0
4, 64624, Note_on_c, 2, 62, 30
4, 64686, Note_on_c, 2, 62, 0
4, 64688, Note_on_c, 2, 59, 30
4, 64750, Note_on_c, 2, 59, 0
4, 64752, Note_on_c, 2, 67, 30
4, 64814, Note_on_c, 2, 67, 0
4, 64816, Note_on_c, 2, 61, 30
4, 64878, Note_on_c, 2, 61, 0
4, 64880, Note_on_c, 2, 59, 30
4, 64942, Note_on_c, 2, 59, 0
4, 64944, Note_on_c, 2, 66, 30
4, 65006, Note_on_c, 2, 66, 0
4, 65008, Note_on_c, 2, 62, 30
4, 65070, Note_on_c, 2, 62, 0
4, 65072, Note_on_c, 2, 59, 30
4, 65134, Note_on_c, 2, 59, 0
4, 65136, Note_on_c, 2, 65, 30
4, 65198, Note_on_c, 2, 65, 0
4, 65200, Note_on_c, 2, 61, 30
4, 65262, Note_on_c, 2, 61, 0
4, 65264, Note_on_c, 2, 59, 30
4, 65326, Note_on_c, 2, 59, 0
4, 65328, Note_on_c, 2, 66, 30
4, 65390, Note_on_c, 2, 66, 0
4, 65392, Note_on_c, 2, 62, 30
4, 65454, Note_on_c, 2, 62, 0
4, 65456, Note_on_c, 2, 59, 30
4, 65518, Note_on_c, 2, 59, 0
4, 65520, Note_on_c, 2, 67, 30
4, 65582, Note_on_c, 2, 67, 0
4, 65584, Note_on_c, 2, 61, 30
4, 65646, Note_on_c, 2, 61, 0
4, 65648, Note_on_c, 2, 59, 30
4, 65710, Note_on_c, 2, 59, 0
4, 65712, Note_on_c, 2, 66, 30
4, 65774, Note_on_c, 2, 66, 0
4, 65776, Note_on_c, 2, 62, 30
4, 65838, Note_on_c, 2, 62, 0
4, 65840, Note_on_c, 2, 59, 30
4, 65902, Note_on_c, 2, 59, 0
4, 65904, Note_on_c, 2, 65, 30
4, 65966, Note_on_c, 2, 65, 0
4, 65968, Note_on_c, 2, 61, 30
4, 66030, Note_on_c, 2, 61, 0
4, 66032, Note_on_c, 2, 59, 30
4, 66094, Note_on_c, 2, 59, 0
4, 66096, Note_on_c, 2, 66, 30
4, 66158, Note_on_c, 2, 66, 0
4, 66160, Note_on_c, 2, 62, 30
4, 66222, Note_on_c, 2, 62, 0
4, 66224, Note_on_c, 2, 59, 30
4, 66286, Note_on_c, 2, 59, 0
4, 66288, Note_on_c, 2, 67, 30
4, 66350, Note_on_c, 2, 67, 0
4, 66352, Note_on_c, 2, 61, 30
4, 66414, Note_on_c, 2, 61, 0
4, 66416, Note_on_c, 2, 59, 30
4, 66478, Note_on_c, 2, 59, 0
4, 66480, Note_on_c, 2, 66, 30
4, 66542, Note_on_c, 2, 66, 0
4, 66544, Note_on_c, 2, 62, 30
4, 66606, Note_on_c, 2, 62, 0
4, 66608, Note_on_c, 2, 59, 30
4, 66670, Note_on_c, 2, 59, 0
4, 66672, Note_on_c, 2, 65, 30
4, 66734, Note_on_c, 2, 65, 0
4, 66736, Note_on_c, 2, 61, 30
4, 66798, Note_on_c, 2, 61, 0
4, 66800, Note_on_c, 2, 59, 30
4, 66862, Note_on_c, 2, 59, 0
4, 66864, Note_on_c, 2, 66, 30
4, 66926, Note_on_c, 2, 66, 0
4, 66928, Note_on_c, 2, 62, 30
4, 66990, Note_on_c, 2, 62, 0
4, 66992, Note_on_c, 2, 59, 30
4, 67054, Note_on_c, 2, 59, 0
4, 67056, Note_on_c, 2, 67, 30
4, 67118, Note_on_c, 2, 67, 0
4, 67120, Note_on_c, 2, 61, 30
4, 67182, Note_on_c, 2, 61, 0
4, 67184, Note_on_c, 2, 59, 30
4, 67246, Note_on_c, 2, 59, 0
4, 67248, Note_on_c, 2, 66, 30
4, 67310, Note_on_c, 2, 66, 0
4, 67312, Note_on_c, 2, 62, 30
4, 67374, Note_on_c, 2, 62, 0
4, 67376, Note_on_c, 2, 59, 30
4, 67438, Note_on_c, 2, 59, 0
4, 67440, Note_on_c, 2, 65, 30
4, 67502, Note_on_c, 2, 65, 0
4, 67504, Note_on_c, 2, 61, 30
4, 67566, Note_on_c, 2, 61, 0
4, 67568, Note_on_c, 2, 59, 30
4, 67630, Note_on_c, 2, 59, 0
4, 67632, Note_on_c, 2, 64, 30
4, 67694, Note_on_c, 2, 64, 0
4, 67696, Note_on_c, 2, 60, 30
4, 67758, Note_on_c, 2, 60, 0
4, 67760, Note_on_c, 2, 57, 30
4, 67822, Note_on_c, 2, 57, 0
4, 67824, Note_on_c, 2, 64, 30
4, 67886, Note_on_c, 2, 64, 0
4, 67888, Note_on_c, 2, 61, 30
4, 67950, Note_on_c, 2, 61, 0
4, 67952, Note_on_c, 2, 56, 30
4, 68014, Note_on_c, 2, 56, 0
4, 68016, Note_on_c, 2, 64, 30
4, 68078, Note_on_c, 2, 64, 0
4, 68080, Note_on_c, 2, 60, 30
4, 68142, Note_on_c, 2, 60, 0
4, 68144, Note_on_c, 2, 57, 30
4, 68206, Note_on_c, 2, 57, 0
4, 68208, Note_on_c, 2, 64, 30
4, 68270, Note_on_c, 2, 64, 0
4, 68272, Note_on_c, 2, 61, 30
4, 68334, Note_on_c, 2, 61, 0
4, 68336, Note_on_c, 2, 56, 30
4, 68398, Note_on_c, 2, 56, 0
4, 68400, Note_on_c, 2, 64, 30
4, 68462, Note_on_c, 2, 64, 0
4, 68464, Note_on_c, 2, 60, 30
4, 68526, Note_on_c, 2, 60, 0
4, 68528, Note_on_c, 2, 57, 30
4, 68590, Note_on_c, 2, 57, 0
4, 68592, Note_on_c, 2, 64, 30
4, 68654, Note_on_c, 2, 64, 0
4, 68656, Note_on_c, 2, 61, 30
4, 68718, Note_on_c, 2, 61, 0
4, 68720, Note_on_c, 2, 56, 30
4, 68782, Note_on_c, 2, 56, 0
4, 68784, Note_on_c, 2, 64, 30
4, 68846, Note_on_c, 2, 64, 0
4, 68848, Note_on_c, 2, 60, 30
4, 68910, Note_on_c, 2, 60, 0
4, 68912, Note_on_c, 2, 57, 30
4, 68974, Note_on_c, 2, 57, 0
4, 68976, Note_on_c, 2, 64, 30
4, 69038, Note_on_c, 2, 64, 0
4, 69040, Note_on_c, 2, 61, 30
4, 69102, Note_on_c, 2, 61, 0
4, 69104, Note_on_c, 2, 56, 30
4, 69166, Note_on_c, 2, 56, 0
4, 69168, Note_on_c, 2, 64, 30
4, 69230, Note_on_c, 2, 64, 0
4, 69232, Note_on_c, 2, 60, 30
4, 69294, Note_on_c, 2, 60, 0
4, 69296, Note_on_c, 2, 57, 30
4, 69358, Note_on_c, 2, 57, 0
4, 69360, Note_on_c, 2, 64, 30
4, 69422, Note_on_c, 2, 64, 0
4, 69424, Note_on_c, 2, 61, 30
4, 69486, Note_on_c, 2, 61, 0
4, 69488, Note_on_c, 2, 56, 30
4, 69550, Note_on_c, 2, 56, 0
4, 69552, Note_on_c, 2, 64, 30
4, 69614, Note_on_c, 2, 64, 0
4, 69616, Note_on_c, 2, 60, 30
4, 69678, Note_on_c, 2, 60, 0
4, 69680, Note_on_c, 2, 57, 30
4, 69742, Note_on_c, 2, 57, 0
4, 69744, Note_on_c, 2, 64, 30
4, 69806, Note_on_c, 2, 64, 0
4, 69808, Note_on_c, 2, 61, 30
4, 69870, Note_on_c, 2, 61, 0
4, 69872, Note_on_c, 2, 56, 30
4, 69934, Note_on_c, 2, 56, 0
4, 69936, Note_on_c, 2, 64, 30
4, 69998, Note_on_c, 2, 64, 0
4, 70000, Note_on_c, 2, 60, 30
4, 70062, Note_on_c, 2, 60, 0
4, 70064, Note_on_c, 2, 57, 30
4, 70126, Note_on_c, 2, 57, 0
4, 70128, Note_on_c, 2, 64, 30
4, 70190, Note_on_c, 2, 64, 0
4, 70192, Note_on_c, 2, 61, 30
4, 70254, Note_on_c, 2, 61, 0
4, 70256, Note_on_c, 2, 56, 30
4, 70318, Note_on_c, 2, 56, 0
4, 70320, Note_on_c, 2, 64, 30
4, 70382, Note_on_c, 2, 64, 0
4, 70384, Note_on_c, 2, 60, 30
4, 70446, Note_on_c, 2, 60, 0
4, 70448, Note_on_c, 2, 57, 30
4, 70510, Note_on_c, 2, 57, 0
4, 70512, Note_on_c, 2, 64, 30
4, 70574, Note_on_c, 2, 64, 0
4, 70576, Note_on_c, 2, 61, 30
4, 70638, Note_on_c, 2, 61, 0
4, 70640, Note_on_c, 2, 56, 30
4, 70702, Note_on_c, 2, 56, 0
4, 70704, Note_on_c, 2, 63, 30
4, 70766, Note_on_c, 2, 63, 0
4, 70768, Note_on_c, 2, 59, 30
4, 70830, Note_on_c, 2, 59, 0
4, 70832, Note_on_c, 2, 56, 30
4, 70894, Note_on_c, 2, 56, 0
4, 70896, Note_on_c, 2, 64, 30
4, 70958, Note_on_c, 2, 64, 0
4, 70960, Note_on_c, 2, 58, 30
4, 71022, Note_on_c, 2, 58, 0
4, 71024, Note_on_c, 2, 56, 30
4, 71086, Note_on_c, 2, 56, 0
4, 71088, Note_on_c, 2, 63, 30
4, 71150, Note_on_c, 2, 63, 0
4, 71152, Note_on_c, 2, 59, 30
4, 71214, Note_on_c, 2, 59, 0
4, 71216, Note_on_c, 2, 56, 30
4, 71278, Note_on_c, 2, 56, 0
4, 71280, Note_on_c, 2, 62, 30
4, 71342, Note_on_c, 2, 62, 0
4, 71344, Note_on_c, 2, 58, 30
4, 71406, Note_on_c, 2, 58, 0
4, 71408, Note_on_c, 2, 56, 30
4, 71470, Note_on_c, 2, 56, 0
4, 71472, Note_on_c, 2, 63, 30
4, 71534, Note_on_c, 2, 63, 0
4, 71536, Note_on_c, 2, 59, 30
4, 71598, Note_on_c, 2, 59, 0
4, 71600, Note_on_c, 2, 56, 30
4, 71662, Note_on_c, 2, 56, 0
4, 71664, Note_on_c, 2, 64, 30
4, 71726, Note_on_c, 2, 64, 0
4, 71728, Note_on_c, 2, 58, 30
4, 71790, Note_on_c, 2, 58, 0
4, 71792, Note_on_c, 2, 56, 30
4, 71854, Note_on_c, 2, 56, 0
4, 71856, Note_on_c, 2, 63, 30
4, 71918, Note_on_c, 2, 63, 0
4, 71920, Note_on_c, 2, 59, 30
4, 71982, Note_on_c, 2, 59, 0
4, 71984, Note_on_c, 2, 56, 30
4, 72046, Note_on_c, 2, 56, 0
4, 72048, Note_on_c, 2, 62, 30
4, 72110, Note_on_c, 2, 62, 0
4, 72112, Note_on_c, 2, 58, 30
4, 72174, Note_on_c, 2, 58, 0
4, 72176, Note_on_c, 2, 56, 30
4, 72238, Note_on_c, 2, 56, 0
4, 72240, Note_on_c, 2, 63, 30
4, 72302, Note_on_c, 2, 63, 0
4, 72304, Note_on_c, 2, 59, 30
4, 72366, Note_on_c, 2, 59, 0
4, 72368, Note_on_c, 2, 56, 30
4, 72430, Note_on_c, 2, 56, 0
4, 72432, Note_on_c, 2, 64, 30
4, 72494, Note_on_c, 2, 64, 0
4, 72496, Note_on_c, 2, 58, 30
4, 72558, Note_on_c, 2, 58, 0
4, 72560, Note_on_c, 2, 56, 30
4, 72622, Note_on_c, 2, 56, 0
4, 72624, Note_on_c, 2, 63, 30
4, 72686, Note_on_c, 2, 63, 0
4, 72688, Note_on_c, 2, 59, 30
4, 72750, Note_on_c, 2, 59, 0
4, 72752, Note_on_c, 2, 56, 30
4, 72814, Note_on_c, 2, 56, 0
4, 72816, Note_on_c, 2, 62, 30
4, 72878, Note_on_c, 2, 62, 0
4, 72880, Note_on_c, 2, 58, 30
4, 72942, Note_on_c, 2, 58, 0
4, 72944, Note_on_c, 2, 56, 30
4, 73006, Note_on_c, 2, 56, 0
4, 73008, Note_on_c, 2, 63, 30
4, 73070, Note_on_c, 2, 63, 0
4, 73072, Note_on_c, 2, 59, 30
4, 73134, Note_on_c, 2, 59, 0
4, 73136, Note_on_c, 2, 56, 30
4, 73198, Note_on_c, 2, 56, 0
4, 73200, Note_on_c, 2, 64, 30
4, 73262, Note_on_c, 2, 64, 0
4, 73264, Note_on_c, 2, 58, 30
4, 73326, Note_on_c, 2, 58, 0
4, 73328, Note_on_c, 2, 56, 30
4, 73390, Note_on_c, 2, 56, 0
4, 73392, Note_on_c, 2, 63, 30
4, 73454, Note_on_c, 2, 63, 0
4, 73456, Note_on_c, 2, 59, 30
4, 73518, Note_on_c, 2, 59, 0
4, 73520, Note_on_c, 2, 56, 30
4, 73582, Note_on_c, 2, 56, 0
4, 73584, Note_on_c, 2, 62, 30
4, 73646, Note_on_c, 2, 62, 0
4, 73648, Note_on_c, 2, 58, 30
4, 73710, Note_on_c, 2, 58, 0
4, 73712, Note_on_c, 2, 56, 30
4, 73774, Note_on_c, 2, 56, 0
4, 73776, Note_on_c, 2, 62, 30
4, 73838, Note_on_c, 2, 62, 0
4, 73840, Note_on_c, 2, 58, 30
4, 73902, Note_on_c, 2, 58, 0
4, 73904, Note_on_c, 2, 55, 30
4, 73966, Note_on_c, 2, 55, 0
4, 73968, Note_on_c, 2, 62, 30
4, 74030, Note_on_c, 2, 62, 0
4, 74032, Note_on_c, 2, 59, 30
4, 74094, Note_on_c, 2, 59, 0
4, 74096, Note_on_c, 2, 54, 30
4, 74158, Note_on_c, 2, 54, 0
4, 74160, Note_on_c, 2, 62, 30
4, 74222, Note_on_c, 2, 62, 0
4, 74224, Note_on_c, 2, 58, 30
4, 74286, Note_on_c, 2, 58, 0
4, 74288, Note_on_c, 2, 55, 30
4, 74350, Note_on_c, 2, 55, 0
4, 74352, Note_on_c, 2, 62, 30
4, 74414, Note_on_c, 2, 62, 0
4, 74416, Note_on_c, 2, 59, 30
4, 74478, Note_on_c, 2, 59, 0
4, 74480, Note_on_c, 2, 54, 30
4, 74542, Note_on_c, 2, 54, 0
4, 74544, Note_on_c, 2, 62, 30
4, 74606, Note_on_c, 2, 62, 0
4, 74608, Note_on_c, 2, 58, 30
4, 74670, Note_on_c, 2, 58, 0
4, 74672, Note_on_c, 2, 55, 30
4, 74734, Note_on_c, 2, 55, 0
4, 74736, Note_on_c, 2, 62, 30
4, 74798, Note_on_c, 2, 62, 0
4, 74800, Note_on_c, 2, 59, 30
4, 74862, Note_on_c, 2, 59, 0
4, 74864, Note_on_c, 2, 54, 30
4, 74926, Note_on_c, 2, 54, 0
4, 74928, Note_on_c, 2, 62, 30
4, 74990, Note_on_c, 2, 62, 0
4, 74992, Note_on_c, 2, 58, 30
4, 75054, Note_on_c, 2, 58, 0
4, 75056, Note_on_c, 2, 55, 30
4, 75118, Note_on_c, 2, 55, 0
4, 75120, Note_on_c, 2, 62, 30
4, 75182, Note_on_c, 2, 62, 0
4, 75184, Note_on_c, 2, 59, 30
4, 75246, Note_on_c, 2, 59, 0
4, 75248, Note_on_c, 2, 54, 30
4, 75310, Note_on_c, 2, 54, 0
4, 75312, Note_on_c, 2, 62, 30
4, 75374, Note_on_c, 2, 62, 0
4, 75376, Note_on_c, 2, 58, 30
4, 75438, Note_on_c, 2, 58, 0
4, 75440, Note_on_c, 2, 55, 30
4, 75502, Note_on_c, 2, 55, 0
4, 75504, Note_on_c, 2, 62, 30
4, 75566, Note_on_c, 2, 62, 0
4, 75568, Note_on_c, 2, 59, 30
4, 75630, Note_on_c, 2, 59, 0
4, 75632, Note_on_c, 2, 54, 30
4, 75694, Note_on_c, 2, 54, 0
4, 75696, Note_on_c, 2, 62, 30
4, 75758, Note_on_c, 2, 62, 0
4, 75760, Note_on_c, 2, 58, 30
4, 75822, Note_on_c, 2, 58, 0
4, 75824, Note_on_c, 2, 55, 30
4, 75886, Note_on_c, 2, 55, 0
4, 75888, Note_on_c, 2, 62, 30
4, 75950, Note_on_c, 2, 62, 0
4, 75952, Note_on_c, 2, 59, 30
4, 76014, Note_on_c, 2, 59, 0
4, 76016, Note_on_c, 2, 54, 30
4, 76078, Note_on_c, 2, 54, 0
4, 76080, Note_on_c, 2, 62, 30
4, 76142, Note_on_c, 2, 62, 0
4, 76144, Note_on_c, 2, 58, 30
4, 76206, Note_on_c, 2, 58, 0
4, 76208, Note_on_c, 2, 55, 30
4, 76270, Note_on_c, 2, 55, 0
4, 76272, Note_on_c, 2, 62, 30
4, 76334, Note_on_c, 2, 62, 0
4, 76336, Note_on_c, 2, 59, 30
4, 76398, Note_on_c, 2, 59, 0
4, 76400, Note_on_c, 2, 54, 30
4, 76462, Note_on_c, 2, 54, 0
4, 76464, Note_on_c, 2, 62, 30
4, 76526, Note_on_c, 2, 62, 0
4, 76528, Note_on_c, 2, 58, 30
4, 76590, Note_on_c, 2, 58, 0
4, 76592, Note_on_c, 2, 55, 30
4, 76654, Note_on_c, 2, 55, 0
4, 76656, Note_on_c, 2, 62, 30
4, 76718, Note_on_c, 2, 62, 0
4, 76720, Note_on_c, 2, 59, 30
4, 76782, Note_on_c, 2, 59, 0
4, 76784, Note_on_c, 2, 54, 30
4, 76846, Note_on_c, 2, 54, 0
4, 76848, Note_on_c, 2, 61, 30
4, 76910, Note_on_c, 2, 61, 0
4, 76912, Note_on_c, 2, 57, 30
4, 76974, Note_on_c, 2, 57, 0
4, 76976, Note_on_c, 2, 54, 30
4, 77038, Note_on_c, 2, 54, 0
4, 77040, Note_on_c, 2, 62, 30
4, 77102, Note_on_c, 2, 62, 0
4, 77104, Note_on_c, 2, 56, 30
4, 77166, Note_on_c, 2, 56, 0
4, 77168, Note_on_c, 2, 54, 30
4, 77230, Note_on_c, 2, 54, 0
4, 77232, Note_on_c, 2, 61, 30
4, 77294, Note_on_c, 2, 61, 0
4, 77296, Note_on_c, 2, 57, 30
4, 77358, Note_on_c, 2, 57, 0
4, 77360, Note_on_c, 2, 54, 30
4, 77422, Note_on_c, 2, 54, 0
4, 77424, Note_on_c, 2, 60, 30
4, 77486, Note_on_c, 2, 60, 0
4, 77488, Note_on_c, 2, 56, 30
4, 77550, Note_on_c, 2, 56, 0
4, 77552, Note_on_c, 2, 54, 30
4, 77614, Note_on_c, 2, 54, 0
4, 77616, Note_on_c, 2, 61, 30
4, 77678, Note_on_c, 2, 61, 0
4, 77680, Note_on_c, 2, 57, 30
4, 77742, Note_on_c, 2, 57, 0
4, 77744, Note_on_c, 2, 54, 30
4, 77806, Note_on_c, 2, 54, 0
4, 77808, Note_on_c, 2, 62, 30
4, 77870, Note_on_c, 2, 62, 0
4, 77872, Note_on_c, 2, 56, 30
4, 77934, Note_on_c, 2, 56, 0
4, 77936, Note_on_c, 2, 54, 30
4, 77998, Note_on_c, 2, 54, 0
4, 78000, Note_on_c, 2, 61, 30
4, 78062, Note_on_c, 2, 61, 0
4, 78064, Note_on_c, 2, 57, 30
4, 78126, Note_on_c, 2, 57, 0
4, 78128, Note_on_c, 2, 54, 30
4, 78190, Note_on_c, 2, 54, 0
4, 78192, Note_on_c, 2, 60, 30
4, 78254, Note_on_c, 2, 60, 0
4, 78256, Note_on_c, 2, 56, 30
4, 78318, Note_on_c, 2, 56, 0
4, 78320, Note_on_c, 2, 54, 30
4, 78382, Note_on_c, 2, 54, 0
4, 78384, Note_on_c, 2, 61, 30
4, 78446, Note_on_c, 2, 61, 0
4, 78448, Note_on_c, 2, 57, 30
4, 78510, Note_on_c, 2, 57, 0
4, 78512, Note_on_c, 2, 54, 30
4, 78574, Note_on_c, 2, 54, 0
4, 78576, Note_on_c, 2, 62, 30
4, 78638, Note_on_c, 2, 62, 0
4, 78640, Note_on_c, 2, 56, 30
4, 78702, Note_on_c, 2, 56, 0
4, 78704, Note_on_c, 2, 54, 30
4, 78766, Note_on_c, 2, 54, 0
4, 78768, Note_on_c, 2, 61, 30
4, 78830, Note_on_c, 2, 61, 0
4, 78832, Note_on_c, 2, 57, 30
4, 78894, Note_on_c, 2, 57, 0
4, 78896, Note_on_c, 2, 54, 30
4, 78958, Note_on_c, 2, 54, 0
4, 78960, Note_on_c, 2, 60, 30
4, 79022, Note_on_c, 2, 60, 0
4, 79024, Note_on_c, 2, 56, 30
4, 79086, Note_on_c, 2, 56, 0
4, 79088, Note_on_c, 2, 54, 30
4, 79150, Note_on_c, 2, 54, 0
4, 79152, Note_on_c, 2, 61, 30
4, 79214, Note_on_c, 2, 61, 0
4, 79216, Note_on_c, 2, 57, 30
4, 79278, Note_on_c, 2, 57, 0
4, 79280, Note_on_c, 2, 54, 30
4, 79342, Note_on_c, 2, 54, 0
4, 79344, Note_on_c, 2, 62, 30
4, 79406, Note_on_c, 2, 62, 0
4, 79408, Note_on_c, 2, 56, 30
4, 79470, Note_on_c, 2, 56, 0
4, 79472, Note_on_c, 2, 54, 30
4, 79534, Note_on_c, 2, 54, 0
4, 79536, Note_on_c, 2, 61, 30
4, 79598, Note_on_c, 2, 61, 0
4, 79600, Note_on_c, 2, 57, 30
4, 79662, Note_on_c, 2, 57, 0
4, 79664, Note_on_c, 2, 54, 30
4, 79726, Note_on_c, 2, 54, 0
4, 79728, Note_on_c, 2, 60, 30
4, 79790, Note_on_c, 2, 60, 0
4, 79792, Note_on_c, 2, 56, 30
4, 79854, Note_on_c, 2, 56, 0
4, 79856, Note_on_c, 2, 54, 30
4, 79918, Note_on_c, 2, 54, 0
4, 79918, End_track
5, 0, Start_track
5, 0, MIDI_port, 0
5, 0, Title_t, "Staff-3"
5, 0, Control_c, 3, 7, 127
5, 0, Control_c, 3, 10, 26
5, 0, Control_c, 3, 7, 127
5, 0, Control_c, 3, 10, 26
5, 0, Program_c, 3, 81
5, 96, Note_on_c, 3, 67, 10
5, 158, Note_on_c, 3, 67, 0
5, 160, Note_on_c, 3, 63, 10
5, 222, Note_on_c, 3, 63, 0
5, 224, Note_on_c, 3, 60, 10
5, 286, Note_on_c, 3, 60, 0
5, 288, Note_on_c, 3, 67, 10
5, 350, Note_on_c, 3, 67, 0
5, 352, Note_on_c, 3, 64, 10
5, 414, Note_on_c, 3, 64, 0
5, 416, Note_on_c, 3, 59, 10
5, 478, Note_on_c, 3, 59, 0
5, 480, Note_on_c, 3, 67, 10
5, 542, Note_on_c, 3, 67, 0
5, 544, Note_on_c, 3, 63, 10
5, 606, Note_on_c, 3, 63, 0
5, 608, Note_on_c, 3, 60, 10
5, 670, Note_on_c, 3, 60, 0
5, 672, Note_on_c, 3, 67, 10
5, 734, Note_on_c, 3, 67, 0
5, 736, Note_on_c, 3, 64, 10
5, 798, Note_on_c, 3, 64, 0
5, 800, Note_on_c, 3, 59, 10
5, 862, Note_on_c, 3, 59, 0
5, 864, Note_on_c, 3, 67, 10
5, 926, Note_on_c, 3, 67, 0
5, 928, Note_on_c, 3, 63, 10
5, 990, Note_on_c, 3, 63, 0
5, 992, Note_on_c, 3, 60, 10
5, 1054, Note_on_c, 3, 60, 0
5, 1056, Note_on_c, 3, 67, 10
5, 1118, Note_on_c, 3, 67, 0
5, 1120, Note_on_c, 3, 64, 10
5, 1182, Note_on_c, 3, 64, 0
5, 1184, Note_on_c, 3, 59, 10
5, 1246, Note_on_c, 3, 59, 0
5, 1248, Note_on_c, 3, 67, 10
5, 1310, Note_on_c, 3, 67, 0
5, 1312, Note_on_c, 3, 63, 10
5, 1374, Note_on_c, 3, 63, 0
5, 1376, Note_on_c, 3, 60, 10
5, 1438, Note_on_c, 3, 60, 0
5, 1440, Note_on_c, 3, 67, 10
5, 1502, Note_on_c, 3, 67, 0
5, 1504, Note_on_c, 3, 64, 10
5, 1566, Note_on_c, 3, 64, 0
5, 1568, Note_on_c, 3, 59, 10
5, 1630, Note_on_c, 3, 59, 0
5, 1632, Note_on_c, 3, 67, 10
5, 1694, Note_on_c, 3, 67, 0
5, 1696, Note_on_c, 3, 63, 10
5, 1758, Note_on_c, 3, 63, 0
5, 1760, Note_on_c, 3, 60, 10
5, 1822, Note_on_c, 3, 60, 0
5, 1824, Note_on_c, 3, 67, 10
5, 1886, Note_on_c, 3, 67, 0
5, 1888, Note_on_c, 3, 64, 10
5, 1950, Note_on_c, 3, 64, 0
5, 1952, Note_on_c, 3, 59, 10
5, 2014, Note_on_c, 3, 59, 0
5, 2016, Note_on_c, 3, 67, 10
5, 2078, Note_on_c, 3, 67, 0
5, 2080, Note_on_c, 3, 63, 10
5, 2142, Note_on_c, 3, 63, 0
5, 2144, Note_on_c, 3, 60, 10
5, 2206, Note_on_c, 3, 60, 0
5, 2208, Note_on_c, 3, 67, 10
5, 2270, Note_on_c, 3, 67, 0
5, 2272, Note_on_c, 3, 64, 10
5, 2334, Note_on_c, 3, 64, 0
5, 2336, Note_on_c, 3, 59, 10
5, 2398, Note_on_c, 3, 59, 0
5, 2400, Note_on_c, 3, 67, 10
5, 2462, Note_on_c, 3, 67, 0
5, 2464, Note_on_c, 3, 63, 10
5, 2526, Note_on_c, 3, 63, 0
5, 2528, Note_on_c, 3, 60, 10
5, 2590, Note_on_c, 3, 60, 0
5, 2592, Note_on_c, 3, 67, 10
5, 2654, Note_on_c, 3, 67, 0
5, 2656, Note_on_c, 3, 64, 10
5, 2718, Note_on_c, 3, 64, 0
5, 2720, Note_on_c, 3, 59, 10
5, 2782, Note_on_c, 3, 59, 0
5, 2784, Note_on_c, 3, 67, 10
5, 2846, Note_on_c, 3, 67, 0
5, 2848, Note_on_c, 3, 63, 10
5, 2910, Note_on_c, 3, 63, 0
5, 2912, Note_on_c, 3, 60, 10
5, 2974, Note_on_c, 3, 60, 0
5, 2976, Note_on_c, 3, 67, 10
5, 3038, Note_on_c, 3, 67, 0
5, 3040, Note_on_c, 3, 64, 10
5, 3102, Note_on_c, 3, 64, 0
5, 3104, Note_on_c, 3, 59, 10
5, 3166, Note_on_c, 3, 59, 0
5, 3168, Note_on_c, 3, 66, 10
5, 3230, Note_on_c, 3, 66, 0
5, 3232, Note_on_c, 3, 62, 10
5, 3294, Note_on_c, 3, 62, 0
5, 3296, Note_on_c, 3, 59, 10
5, 3358, Note_on_c, 3, 59, 0
5, 3360, Note_on_c, 3, 67, 10
5, 3422, Note_on_c, 3, 67, 0
5, 3424, Note_on_c, 3, 61, 10
5, 3486, Note_on_c, 3, 61, 0
5, 3488, Note_on_c, 3, 59, 10
5, 3550, Note_on_c, 3, 59, 0
5, 3552, Note_on_c, 3, 66, 10
5, 3614, Note_on_c, 3, 66, 0
5, 3616, Note_on_c, 3, 62, 10
5, 3678, Note_on_c, 3, 62, 0
5, 3680, Note_on_c, 3, 59, 10
5, 3742, Note_on_c, 3, 59, 0
5, 3744, Note_on_c, 3, 65, 10
5, 3806, Note_on_c, 3, 65, 0
5, 3808, Note_on_c, 3, 61, 10
5, 3870, Note_on_c, 3, 61, 0
5, 3872, Note_on_c, 3, 59, 10
5, 3934, Note_on_c, 3, 59, 0
5, 3936, Note_on_c, 3, 66, 10
5, 3998, Note_on_c, 3, 66, 0
5, 4000, Note_on_c, 3, 62, 10
5, 4062, Note_on_c, 3, 62, 0
5, 4064, Note_on_c, 3, 59, 10
5, 4126, Note_on_c, 3, 59, 0
5, 4128, Note_on_c, 3, 67, 10
5, 4190, Note_on_c, 3, 67, 0
5, 4192, Note_on_c, 3, 61, 10
5, 4254, Note_on_c, 3, 61, 0
5, 4256, Note_on_c, 3, 59, 10
5, 4318, Note_on_c, 3, 59, 0
5, 4320, Note_on_c, 3, 66, 10
5, 4382, Note_on_c, 3, 66, 0
5, 4384, Note_on_c, 3, 62, 10
5, 4446, Note_on_c, 3, 62, 0
5, 4448, Note_on_c, 3, 59, 10
5, 4510, Note_on_c, 3, 59, 0
5, 4512, Note_on_c, 3, 65, 10
5, 4574, Note_on_c, 3, 65, 0
5, 4576, Note_on_c, 3, 61, 10
5, 4638, Note_on_c, 3, 61, 0
5, 4640, Note_on_c, 3, 59, 10
5, 4702, Note_on_c, 3, 59, 0
5, 4704, Note_on_c, 3, 66, 10
5, 4766, Note_on_c, 3, 66, 0
5, 4768, Note_on_c, 3, 62, 10
5, 4830, Note_on_c, 3, 62, 0
5, 4832, Note_on_c, 3, 59, 10
5, 4894, Note_on_c, 3, 59, 0
5, 4896, Note_on_c, 3, 67, 10
5, 4958, Note_on_c, 3, 67, 0
5, 4960, Note_on_c, 3, 61, 10
5, 5022, Note_on_c, 3, 61, 0
5, 5024, Note_on_c, 3, 59, 10
5, 5086, Note_on_c, 3, 59, 0
5, 5088, Note_on_c, 3, 66, 10
5, 5150, Note_on_c, 3, 66, 0
5, 5152, Note_on_c, 3, 62, 10
5, 5214, Note_on_c, 3, 62, 0
5, 5216, Note_on_c, 3, 59, 10
5, 5278, Note_on_c, 3, 59, 0
5, 5280, Note_on_c, 3, 65, 10
5, 5342, Note_on_c, 3, 65, 0
5, 5344, Note_on_c, 3, 61, 10
5, 5406, Note_on_c, 3, 61, 0
5, 5408, Note_on_c, 3, 59, 10
5, 5470, Note_on_c, 3, 59, 0
5, 5472, Note_on_c, 3, 66, 10
5, 5534, Note_on_c, 3, 66, 0
5, 5536, Note_on_c, 3, 62, 10
5, 5598, Note_on_c, 3, 62, 0
5, 5600, Note_on_c, 3, 59, 10
5, 5662, Note_on_c, 3, 59, 0
5, 5664, Note_on_c, 3, 67, 10
5, 5726, Note_on_c, 3, 67, 0
5, 5728, Note_on_c, 3, 61, 10
5, 5790, Note_on_c, 3, 61, 0
5, 5792, Note_on_c, 3, 59, 10
5, 5854, Note_on_c, 3, 59, 0
5, 5856, Note_on_c, 3, 66, 10
5, 5918, Note_on_c, 3, 66, 0
5, 5920, Note_on_c, 3, 62, 10
5, 5982, Note_on_c, 3, 62, 0
5, 5984, Note_on_c, 3, 59, 10
5, 6046, Note_on_c, 3, 59, 0
5, 6048, Note_on_c, 3, 65, 10
5, 6110, Note_on_c, 3, 65, 0
5, 6112, Note_on_c, 3, 61, 10
5, 6174, Note_on_c, 3, 61, 0
5, 6176, Note_on_c, 3, 59, 10
5, 6238, Note_on_c, 3, 59, 0
5, 6240, Note_on_c, 3, 67, 10
5, 6302, Note_on_c, 3, 67, 0
5, 6304, Note_on_c, 3, 63, 10
5, 6366, Note_on_c, 3, 63, 0
5, 6368, Note_on_c, 3, 60, 10
5, 6430, Note_on_c, 3, 60, 0
5, 6432, Note_on_c, 3, 67, 10
5, 6494, Note_on_c, 3, 67, 0
5, 6496, Note_on_c, 3, 64, 10
5, 6558, Note_on_c, 3, 64, 0
5, 6560, Note_on_c, 3, 59, 10
5, 6622, Note_on_c, 3, 59, 0
5, 6624, Note_on_c, 3, 67, 10
5, 6686, Note_on_c, 3, 67, 0
5, 6688, Note_on_c, 3, 63, 10
5, 6750, Note_on_c, 3, 63, 0
5, 6752, Note_on_c, 3, 60, 10
5, 6814, Note_on_c, 3, 60, 0
5, 6816, Note_on_c, 3, 67, 10
5, 6878, Note_on_c, 3, 67, 0
5, 6880, Note_on_c, 3, 64, 10
5, 6942, Note_on_c, 3, 64, 0
5, 6944, Note_on_c, 3, 59, 10
5, 7006, Note_on_c, 3, 59, 0
5, 7008, Note_on_c, 3, 67, 10
5, 7070, Note_on_c, 3, 67, 0
5, 7072, Note_on_c, 3, 63, 10
5, 7134, Note_on_c, 3, 63, 0
5, 7136, Note_on_c, 3, 60, 10
5, 7198, Note_on_c, 3, 60, 0
5, 7200, Note_on_c, 3, 67, 10
5, 7262, Note_on_c, 3, 67, 0
5, 7264, Note_on_c, 3, 64, 10
5, 7326, Note_on_c, 3, 64, 0
5, 7328, Note_on_c, 3, 59, 10
5, 7390, Note_on_c, 3, 59, 0
5, 7392, Note_on_c, 3, 67, 10
5, 7454, Note_on_c, 3, 67, 0
5, 7456, Note_on_c, 3, 63, 10
5, 7518, Note_on_c, 3, 63, 0
5, 7520, Note_on_c, 3, 60, 10
5, 7582, Note_on_c, 3, 60, 0
5, 7584, Note_on_c, 3, 67, 10
5, 7646, Note_on_c, 3, 67, 0
5, 7648, Note_on_c, 3, 64, 10
5, 7710, Note_on_c, 3, 64, 0
5, 7712, Note_on_c, 3, 59, 10
5, 7774, Note_on_c, 3, 59, 0
5, 7776, Note_on_c, 3, 67, 10
5, 7838, Note_on_c, 3, 67, 0
5, 7840, Note_on_c, 3, 63, 10
5, 7902, Note_on_c, 3, 63, 0
5, 7904, Note_on_c, 3, 60, 10
5, 7966, Note_on_c, 3, 60, 0
5, 7968, Note_on_c, 3, 67, 10
5, 8030, Note_on_c, 3, 67, 0
5, 8032, Note_on_c, 3, 64, 10
5, 8094, Note_on_c, 3, 64, 0
5, 8096, Note_on_c, 3, 59, 10
5, 8158, Note_on_c, 3, 59, 0
5, 8160, Note_on_c, 3, 67, 10
5, 8222, Note_on_c, 3, 67, 0
5, 8224, Note_on_c, 3, 63, 10
5, 8286, Note_on_c, 3, 63, 0
5, 8288, Note_on_c, 3, 60, 10
5, 8350, Note_on_c, 3, 60, 0
5, 8352, Note_on_c, 3, 67, 10
5, 8414, Note_on_c, 3, 67, 0
5, 8416, Note_on_c, 3, 64, 10
5, 8478, Note_on_c, 3, 64, 0
5, 8480, Note_on_c, 3, 59, 10
5, 8542, Note_on_c, 3, 59, 0
5, 8544, Note_on_c, 3, 67, 10
5, 8606, Note_on_c, 3, 67, 0
5, 8608, Note_on_c, 3, 63, 10
5, 8670, Note_on_c, 3, 63, 0
5, 8672, Note_on_c, 3, 60, 10
5, 8734, Note_on_c, 3, 60, 0
5, 8736, Note_on_c, 3, 67, 10
5, 8798, Note_on_c, 3, 67, 0
5, 8800, Note_on_c, 3, 64, 10
5, 8862, Note_on_c, 3, 64, 0
5, 8864, Note_on_c, 3, 59, 10
5, 8926, Note_on_c, 3, 59, 0
5, 8928, Note_on_c, 3, 67, 10
5, 8990, Note_on_c, 3, 67, 0
5, 8992, Note_on_c, 3, 63, 10
5, 9054, Note_on_c, 3, 63, 0
5, 9056, Note_on_c, 3, 60, 10
5, 9118, Note_on_c, 3, 60, 0
5, 9120, Note_on_c, 3, 67, 10
5, 9182, Note_on_c, 3, 67, 0
5, 9184, Note_on_c, 3, 64, 10
5, 9246, Note_on_c, 3, 64, 0
5, 9248, Note_on_c, 3, 59, 10
5, 9310, Note_on_c, 3, 59, 0
5, 9312, Note_on_c, 3, 66, 10
5, 9374, Note_on_c, 3, 66, 0
5, 9376, Note_on_c, 3, 62, 10
5, 9438, Note_on_c, 3, 62, 0
5, 9440, Note_on_c, 3, 59, 10
5, 9502, Note_on_c, 3, 59, 0
5, 9504, Note_on_c, 3, 67, 10
5, 9566, Note_on_c, 3, 67, 0
5, 9568, Note_on_c, 3, 61, 10
5, 9630, Note_on_c, 3, 61, 0
5, 9632, Note_on_c, 3, 59, 10
5, 9694, Note_on_c, 3, 59, 0
5, 9696, Note_on_c, 3, 66, 10
5, 9758, Note_on_c, 3, 66, 0
5, 9760, Note_on_c, 3, 62, 10
5, 9822, Note_on_c, 3, 62, 0
5, 9824, Note_on_c, 3, 59, 10
5, 9886, Note_on_c, 3, 59, 0
5, 9888, Note_on_c, 3, 65, 10
5, 9950, Note_on_c, 3, 65, 0
5, 9952, Note_on_c, 3, 61, 10
5, 10014, Note_on_c, 3, 61, 0
5, 10016, Note_on_c, 3, 59, 10
5, 10078, Note_on_c, 3, 59, 0
5, 10080, Note_on_c, 3, 66, 10
5, 10142, Note_on_c, 3, 66, 0
5, 10144, Note_on_c, 3, 62, 10
5, 10206, Note_on_c, 3, 62, 0
5, 10208, Note_on_c, 3, 59, 10
5, 10270, Note_on_c, 3, 59, 0
5, 10272, Note_on_c, 3, 67, 10
5, 10334, Note_on_c, 3, 67, 0
5, 10336, Note_on_c, 3, 61, 10
5, 10398, Note_on_c, 3, 61, 0
5, 10400, Note_on_c, 3, 59, 10
5, 10462, Note_on_c, 3, 59, 0
5, 10464, Note_on_c, 3, 66, 10
5, 10526, Note_on_c, 3, 66, 0
5, 10528, Note_on_c, 3, 62, 10
5, 10590, Note_on_c, 3, 62, 0
5, 10592, Note_on_c, 3, 59, 10
5, 10654, Note_on_c, 3, 59, 0
5, 10656, Note_on_c, 3, 65, 10
5, 10718, Note_on_c, 3, 65, 0
5, 10720, Note_on_c, 3, 61, 10
5, 10782, Note_on_c, 3, 61, 0
5, 10784, Note_on_c, 3, 59, 10
5, 10846, Note_on_c, 3, 59, 0
5, 10848, Note_on_c, 3, 66, 10
5, 10910, Note_on_c, 3, 66, 0
5, 10912, Note_on_c, 3, 62, 10
5, 10974, Note_on_c, 3, 62, 0
5, 10976, Note_on_c, 3, 59, 10
5, 11038, Note_on_c, 3, 59, 0
5, 11040, Note_on_c, 3, 67, 10
5, 11102, Note_on_c, 3, 67, 0
5, 11104, Note_on_c, 3, 61, 10
5, 11166, Note_on_c, 3, 61, 0
5, 11168, Note_on_c, 3, 59, 10
5, 11230, Note_on_c, 3, 59, 0
5, 11232, Note_on_c, 3, 66, 10
5, 11294, Note_on_c, 3, 66, 0
5, 11296, Note_on_c, 3, 62, 10
5, 11358, Note_on_c, 3, 62, 0
5, 11360, Note_on_c, 3, 59, 10
5, 11422, Note_on_c, 3, 59, 0
5, 11424, Note_on_c, 3, 65, 10
5, 11486, Note_on_c, 3, 65, 0
5, 11488, Note_on_c, 3, 61, 10
5, 11550, Note_on_c, 3, 61, 0
5, 11552, Note_on_c, 3, 59, 10
5, 11614, Note_on_c, 3, 59, 0
5, 11616, Note_on_c, 3, 66, 10
5, 11678, Note_on_c, 3, 66, 0
5, 11680, Note_on_c, 3, 62, 10
5, 11742, Note_on_c, 3, 62, 0
5, 11744, Note_on_c, 3, 59, 10
5, 11806, Note_on_c, 3, 59, 0
5, 11808, Note_on_c, 3, 67, 10
5, 11870, Note_on_c, 3, 67, 0
5, 11872, Note_on_c, 3, 61, 10
5, 11934, Note_on_c, 3, 61, 0
5, 11936, Note_on_c, 3, 59, 10
5, 11998, Note_on_c, 3, 59, 0
5, 12000, Note_on_c, 3, 66, 10
5, 12062, Note_on_c, 3, 66, 0
5, 12064, Note_on_c, 3, 62, 10
5, 12126, Note_on_c, 3, 62, 0
5, 12128, Note_on_c, 3, 59, 10
5, 12190, Note_on_c, 3, 59, 0
5, 12192, Note_on_c, 3, 65, 10
5, 12254, Note_on_c, 3, 65, 0
5, 12256, Note_on_c, 3, 61, 10
5, 12318, Note_on_c, 3, 61, 0
5, 12320, Note_on_c, 3, 59, 10
5, 12382, Note_on_c, 3, 59, 0
5, 12384, Note_on_c, 3, 67, 10
5, 12446, Note_on_c, 3, 67, 0
5, 12448, Note_on_c, 3, 63, 10
5, 12510, Note_on_c, 3, 63, 0
5, 12512, Note_on_c, 3, 60, 10
5, 12574, Note_on_c, 3, 60, 0
5, 12576, Note_on_c, 3, 67, 10
5, 12638, Note_on_c, 3, 67, 0
5, 12640, Note_on_c, 3, 64, 10
5, 12702, Note_on_c, 3, 64, 0
5, 12704, Note_on_c, 3, 59, 10
5, 12766, Note_on_c, 3, 59, 0
5, 12768, Note_on_c, 3, 67, 10
5, 12830, Note_on_c, 3, 67, 0
5, 12832, Note_on_c, 3, 63, 10
5, 12894, Note_on_c, 3, 63, 0
5, 12896, Note_on_c, 3, 60, 10
5, 12958, Note_on_c, 3, 60, 0
5, 12960, Note_on_c, 3, 67, 10
5, 13022, Note_on_c, 3, 67, 0
5, 13024, Note_on_c, 3, 64, 10
5, 13086, Note_on_c, 3, 64, 0
5, 13088, Note_on_c, 3, 59, 10
5, 13150, Note_on_c, 3, 59, 0
5, 13152, Note_on_c, 3, 67, 10
5, 13214, Note_on_c, 3, 67, 0
5, 13216, Note_on_c, 3, 63, 10
5, 13278, Note_on_c, 3, 63, 0
5, 13280, Note_on_c, 3, 60, 10
5, 13342, Note_on_c, 3, 60, 0
5, 13344, Note_on_c, 3, 67, 10
5, 13406, Note_on_c, 3, 67, 0
5, 13408, Note_on_c, 3, 64, 10
5, 13470, Note_on_c, 3, 64, 0
5, 13472, Note_on_c, 3, 59, 10
5, 13534, Note_on_c, 3, 59, 0
5, 13536, Note_on_c, 3, 67, 10
5, 13598, Note_on_c, 3, 67, 0
5, 13600, Note_on_c, 3, 63, 10
5, 13662, Note_on_c, 3, 63, 0
5, 13664, Note_on_c, 3, 60, 10
5, 13726, Note_on_c, 3, 60, 0
5, 13728, Note_on_c, 3, 67, 10
5, 13790, Note_on_c, 3, 67, 0
5, 13792, Note_on_c, 3, 64, 10
5, 13854, Note_on_c, 3, 64, 0
5, 13856, Note_on_c, 3, 59, 10
5, 13918, Note_on_c, 3, 59, 0
5, 13920, Note_on_c, 3, 67, 10
5, 13982, Note_on_c, 3, 67, 0
5, 13984, Note_on_c, 3, 63, 10
5, 14046, Note_on_c, 3, 63, 0
5, 14048, Note_on_c, 3, 60, 10
5, 14110, Note_on_c, 3, 60, 0
5, 14112, Note_on_c, 3, 67, 10
5, 14174, Note_on_c, 3, 67, 0
5, 14176, Note_on_c, 3, 64, 10
5, 14238, Note_on_c, 3, 64, 0
5, 14240, Note_on_c, 3, 59, 10
5, 14302, Note_on_c, 3, 59, 0
5, 14304, Note_on_c, 3, 67, 10
5, 14366, Note_on_c, 3, 67, 0
5, 14368, Note_on_c, 3, 63, 10
5, 14430, Note_on_c, 3, 63, 0
5, 14432, Note_on_c, 3, 60, 10
5, 14494, Note_on_c, 3, 60, 0
5, 14496, Note_on_c, 3, 67, 10
5, 14558, Note_on_c, 3, 67, 0
5, 14560, Note_on_c, 3, 64, 10
5, 14622, Note_on_c, 3, 64, 0
5, 14624, Note_on_c, 3, 59, 10
5, 14686, Note_on_c, 3, 59, 0
5, 14688, Note_on_c, 3, 67, 10
5, 14750, Note_on_c, 3, 67, 0
5, 14752, Note_on_c, 3, 63, 10
5, 14814, Note_on_c, 3, 63, 0
5, 14816, Note_on_c, 3, 60, 10
5, 14878, Note_on_c, 3, 60, 0
5, 14880, Note_on_c, 3, 67, 10
5, 14942, Note_on_c, 3, 67, 0
5, 14944, Note_on_c, 3, 64, 10
5, 15006, Note_on_c, 3, 64, 0
5, 15008, Note_on_c, 3, 59, 10
5, 15070, Note_on_c, 3, 59, 0
5, 15072, Note_on_c, 3, 67, 10
5, 15134, Note_on_c, 3, 67, 0
5, 15136, Note_on_c, 3, 63, 10
5, 15198, Note_on_c, 3, 63, 0
5, 15200, Note_on_c, 3, 60, 10
5, 15262, Note_on_c, 3, 60, 0
5, 15264, Note_on_c, 3, 67, 10
5, 15326, Note_on_c, 3, 67, 0
5, 15328, Note_on_c, 3, 64, 10
5, 15390, Note_on_c, 3, 64, 0
5, 15392, Note_on_c, 3, 59, 10
5, 15454, Note_on_c, 3, 59, 0
5, 15456, Note_on_c, 3, 66, 10
5, 15518, Note_on_c, 3, 66, 0
5, 15520, Note_on_c, 3, 62, 10
5, 15582, Note_on_c, 3, 62, 0
5, 15584, Note_on_c, 3, 59, 10
5, 15646, Note_on_c, 3, 59, 0
5, 15648, Note_on_c, 3, 67, 10
5, 15710, Note_on_c, 3, 67, 0
5, 15712, Note_on_c, 3, 61, 10
5, 15774, Note_on_c, 3, 61, 0
5, 15776, Note_on_c, 3, 59, 10
5, 15838, Note_on_c, 3, 59, 0
5, 15840, Note_on_c, 3, 66, 10
5, 15902, Note_on_c, 3, 66, 0
5, 15904, Note_on_c, 3, 62, 10
5, 15966, Note_on_c, 3, 62, 0
5, 15968, Note_on_c, 3, 59, 10
5, 16030, Note_on_c, 3, 59, 0
5, 16032, Note_on_c, 3, 65, 10
5, 16094, Note_on_c, 3, 65, 0
5, 16096, Note_on_c, 3, 61, 10
5, 16158, Note_on_c, 3, 61, 0
5, 16160, Note_on_c, 3, 59, 10
5, 16222, Note_on_c, 3, 59, 0
5, 16224, Note_on_c, 3, 66, 10
5, 16286, Note_on_c, 3, 66, 0
5, 16288, Note_on_c, 3, 62, 10
5, 16350, Note_on_c, 3, 62, 0
5, 16352, Note_on_c, 3, 59, 10
5, 16414, Note_on_c, 3, 59, 0
5, 16416, Note_on_c, 3, 67, 10
5, 16478, Note_on_c, 3, 67, 0
5, 16480, Note_on_c, 3, 61, 10
5, 16542, Note_on_c, 3, 61, 0
5, 16544, Note_on_c, 3, 59, 10
5, 16606, Note_on_c, 3, 59, 0
5, 16608, Note_on_c, 3, 66, 10
5, 16670, Note_on_c, 3, 66, 0
5, 16672, Note_on_c, 3, 62, 10
5, 16734, Note_on_c, 3, 62, 0
5, 16736, Note_on_c, 3, 59, 10
5, 16798, Note_on_c, 3, 59, 0
5, 16800, Note_on_c, 3, 65, 10
5, 16862, Note_on_c, 3, 65, 0
5, 16864, Note_on_c, 3, 61, 10
5, 16926, Note_on_c, 3, 61, 0
5, 16928, Note_on_c, 3, 59, 10
5, 16990, Note_on_c, 3, 59, 0
5, 16992, Note_on_c, 3, 66, 10
5, 17054, Note_on_c, 3, 66, 0
5, 17056, Note_on_c, 3, 62, 10
5, 17118, Note_on_c, 3, 62, 0
5, 17120, Note_on_c, 3, 59, 10
5, 17182, Note_on_c, 3, 59, 0
5, 17184, Note_on_c, 3, 67, 10
5, 17246, Note_on_c, 3, 67, 0
5, 17248, Note_on_c, 3, 61, 10
5, 17310, Note_on_c, 3, 61, 0
5, 17312, Note_on_c, 3, 59, 10
5, 17374, Note_on_c, 3, 59, 0
5, 17376, Note_on_c, 3, 66, 10
5, 17438, Note_on_c, 3, 66, 0
5, 17440, Note_on_c, 3, 62, 10
5, 17502, Note_on_c, 3, 62, 0
5, 17504, Note_on_c, 3, 59, 10
5, 17566, Note_on_c, 3, 59, 0
5, 17568, Note_on_c, 3, 65, 10
5, 17630, Note_on_c, 3, 65, 0
5, 17632, Note_on_c, 3, 61, 10
5, 17694, Note_on_c, 3, 61, 0
5, 17696, Note_on_c, 3, 59, 10
5, 17758, Note_on_c, 3, 59, 0
5, 17760, Note_on_c, 3, 66, 10
5, 17822, Note_on_c, 3, 66, 0
5, 17824, Note_on_c, 3, 62, 10
5, 17886, Note_on_c, 3, 62, 0
5, 17888, Note_on_c, 3, 59, 10
5, 17950, Note_on_c, 3, 59, 0
5, 17952, Note_on_c, 3, 67, 10
5, 18014, Note_on_c, 3, 67, 0
5, 18016, Note_on_c, 3, 61, 10
5, 18078, Note_on_c, 3, 61, 0
5, 18080, Note_on_c, 3, 59, 10
5, 18142, Note_on_c, 3, 59, 0
5, 18144, Note_on_c, 3, 66, 10
5, 18206, Note_on_c, 3, 66, 0
5, 18208, Note_on_c, 3, 62, 10
5, 18270, Note_on_c, 3, 62, 0
5, 18272, Note_on_c, 3, 59, 10
5, 18334, Note_on_c, 3, 59, 0
5, 18336, Note_on_c, 3, 65, 10
5, 18398, Note_on_c, 3, 65, 0
5, 18400, Note_on_c, 3, 61, 10
5, 18462, Note_on_c, 3, 61, 0
5, 18464, Note_on_c, 3, 59, 10
5, 18526, Note_on_c, 3, 59, 0
5, 18528, Note_on_c, 3, 67, 10
5, 18590, Note_on_c, 3, 67, 0
5, 18592, Note_on_c, 3, 63, 10
5, 18654, Note_on_c, 3, 63, 0
5, 18656, Note_on_c, 3, 60, 10
5, 18718, Note_on_c, 3, 60, 0
5, 18720, Note_on_c, 3, 67, 10
5, 18782, Note_on_c, 3, 67, 0
5, 18784, Note_on_c, 3, 64, 10
5, 18846, Note_on_c, 3, 64, 0
5, 18848, Note_on_c, 3, 59, 10
5, 18910, Note_on_c, 3, 59, 0
5, 18912, Note_on_c, 3, 67, 10
5, 18974, Note_on_c, 3, 67, 0
5, 18976, Note_on_c, 3, 63, 10
5, 19038, Note_on_c, 3, 63, 0
5, 19040, Note_on_c, 3, 60, 10
5, 19102, Note_on_c, 3, 60, 0
5, 19104, Note_on_c, 3, 67, 10
5, 19166, Note_on_c, 3, 67, 0
5, 19168, Note_on_c, 3, 64, 10
5, 19230, Note_on_c, 3, 64, 0
5, 19232, Note_on_c, 3, 59, 10
5, 19294, Note_on_c, 3, 59, 0
5, 19296, Note_on_c, 3, 67, 10
5, 19358, Note_on_c, 3, 67, 0
5, 19360, Note_on_c, 3, 63, 10
5, 19422, Note_on_c, 3, 63, 0
5, 19424, Note_on_c, 3, 60, 10
5, 19486, Note_on_c, 3, 60, 0
5, 19488, Note_on_c, 3, 67, 10
5, 19550, Note_on_c, 3, 67, 0
5, 19552, Note_on_c, 3, 64, 10
5, 19614, Note_on_c, 3, 64, 0
5, 19616, Note_on_c, 3, 59, 10
5, 19678, Note_on_c, 3, 59, 0
5, 19680, Note_on_c, 3, 67, 10
5, 19742, Note_on_c, 3, 67, 0
5, 19744, Note_on_c, 3, 63, 10
5, 19806, Note_on_c, 3, 63, 0
5, 19808, Note_on_c, 3, 60, 10
5, 19870, Note_on_c, 3, 60, 0
5, 19872, Note_on_c, 3, 67, 10
5, 19934, Note_on_c, 3, 67, 0
5, 19936, Note_on_c, 3, 64, 10
5, 19998, Note_on_c, 3, 64, 0
5, 20000, Note_on_c, 3, 59, 10
5, 20062, Note_on_c, 3, 59, 0
5, 20064, Note_on_c, 3, 67, 10
5, 20126, Note_on_c, 3, 67, 0
5, 20128, Note_on_c, 3, 63, 10
5, 20190, Note_on_c, 3, 63, 0
5, 20192, Note_on_c, 3, 60, 10
5, 20254, Note_on_c, 3, 60, 0
5, 20256, Note_on_c, 3, 67, 10
5, 20318, Note_on_c, 3, 67, 0
5, 20320, Note_on_c, 3, 64, 10
5, 20382, Note_on_c, 3, 64, 0
5, 20384, Note_on_c, 3, 59, 10
5, 20446, Note_on_c, 3, 59, 0
5, 20448, Note_on_c, 3, 67, 10
5, 20510, Note_on_c, 3, 67, 0
5, 20512, Note_on_c, 3, 63, 10
5, 20574, Note_on_c, 3, 63, 0
5, 20576, Note_on_c, 3, 60, 10
5, 20638, Note_on_c, 3, 60, 0
5, 20640, Note_on_c, 3, 67, 10
5, 20702, Note_on_c, 3, 67, 0
5, 20704, Note_on_c, 3, 64, 10
5, 20766, Note_on_c, 3, 64, 0
5, 20768, Note_on_c, 3, 59, 10
5, 20830, Note_on_c, 3, 59, 0
5, 20832, Note_on_c, 3, 67, 10
5, 20894, Note_on_c, 3, 67, 0
5, 20896, Note_on_c, 3, 63, 10
5, 20958, Note_on_c, 3, 63, 0
5, 20960, Note_on_c, 3, 60, 10
5, 21022, Note_on_c, 3, 60, 0
5, 21024, Note_on_c, 3, 67, 10
5, 21086, Note_on_c, 3, 67, 0
5, 21088, Note_on_c, 3, 64, 10
5, 21150, Note_on_c, 3, 64, 0
5, 21152, Note_on_c, 3, 59, 10
5, 21214, Note_on_c, 3, 59, 0
5, 21216, Note_on_c, 3, 67, 10
5, 21278, Note_on_c, 3, 67, 0
5, 21280, Note_on_c, 3, 63, 10
5, 21342, Note_on_c, 3, 63, 0
5, 21344, Note_on_c, 3, 60, 10
5, 21406, Note_on_c, 3, 60, 0
5, 21408, Note_on_c, 3, 67, 10
5, 21470, Note_on_c, 3, 67, 0
5, 21472, Note_on_c, 3, 64, 10
5, 21534, Note_on_c, 3, 64, 0
5, 21536, Note_on_c, 3, 59, 10
5, 21598, Note_on_c, 3, 59, 0
5, 21600, Note_on_c, 3, 66, 10
5, 21662, Note_on_c, 3, 66, 0
5, 21664, Note_on_c, 3, 62, 10
5, 21726, Note_on_c, 3, 62, 0
5, 21728, Note_on_c, 3, 59, 10
5, 21790, Note_on_c, 3, 59, 0
5, 21792, Note_on_c, 3, 67, 10
5, 21854, Note_on_c, 3, 67, 0
5, 21856, Note_on_c, 3, 61, 10
5, 21918, Note_on_c, 3, 61, 0
5, 21920, Note_on_c, 3, 59, 10
5, 21982, Note_on_c, 3, 59, 0
5, 21984, Note_on_c, 3, 66, 10
5, 22046, Note_on_c, 3, 66, 0
5, 22048, Note_on_c, 3, 62, 10
5, 22110, Note_on_c, 3, 62, 0
5, 22112, Note_on_c, 3, 59, 10
5, 22174, Note_on_c, 3, 59, 0
5, 22176, Note_on_c, 3, 65, 10
5, 22238, Note_on_c, 3, 65, 0
5, 22240, Note_on_c, 3, 61, 10
5, 22302, Note_on_c, 3, 61, 0
5, 22304, Note_on_c, 3, 59, 10
5, 22366, Note_on_c, 3, 59, 0
5, 22368, Note_on_c, 3, 66, 10
5, 22430, Note_on_c, 3, 66, 0
5, 22432, Note_on_c, 3, 62, 10
5, 22494, Note_on_c, 3, 62, 0
5, 22496, Note_on_c, 3, 59, 10
5, 22558, Note_on_c, 3, 59, 0
5, 22560, Note_on_c, 3, 67, 10
5, 22622, Note_on_c, 3, 67, 0
5, 22624, Note_on_c, 3, 61, 10
5, 22686, Note_on_c, 3, 61, 0
5, 22688, Note_on_c, 3, 59, 10
5, 22750, Note_on_c, 3, 59, 0
5, 22752, Note_on_c, 3, 66, 10
5, 22814, Note_on_c, 3, 66, 0
5, 22816, Note_on_c, 3, 62, 10
5, 22878, Note_on_c, 3, 62, 0
5, 22880, Note_on_c, 3, 59, 10
5, 22942, Note_on_c, 3, 59, 0
5, 22944, Note_on_c, 3, 65, 10
5, 23006, Note_on_c, 3, 65, 0
5, 23008, Note_on_c, 3, 61, 10
5, 23070, Note_on_c, 3, 61, 0
5, 23072, Note_on_c, 3, 59, 10
5, 23134, Note_on_c, 3, 59, 0
5, 23136, Note_on_c, 3, 66, 10
5, 23198, Note_on_c, 3, 66, 0
5, 23200, Note_on_c, 3, 62, 10
5, 23262, Note_on_c, 3, 62, 0
5, 23264, Note_on_c, 3, 59, 10
5, 23326, Note_on_c, 3, 59, 0
5, 23328, Note_on_c, 3, 67, 10
5, 23390, Note_on_c, 3, 67, 0
5, 23392, Note_on_c, 3, 61, 10
5, 23454, Note_on_c, 3, 61, 0
5, 23456, Note_on_c, 3, 59, 10
5, 23518, Note_on_c, 3, 59, 0
5, 23520, Note_on_c, 3, 66, 10
5, 23582, Note_on_c, 3, 66, 0
5, 23584, Note_on_c, 3, 62, 10
5, 23646, Note_on_c, 3, 62, 0
5, 23648, Note_on_c, 3, 59, 10
5, 23710, Note_on_c, 3, 59, 0
5, 23712, Note_on_c, 3, 65, 10
5, 23774, Note_on_c, 3, 65, 0
5, 23776, Note_on_c, 3, 61, 10
5, 23838, Note_on_c, 3, 61, 0
5, 23840, Note_on_c, 3, 59, 10
5, 23902, Note_on_c, 3, 59, 0
5, 23904, Note_on_c, 3, 66, 10
5, 23966, Note_on_c, 3, 66, 0
5, 23968, Note_on_c, 3, 62, 10
5, 24030, Note_on_c, 3, 62, 0
5, 24032, Note_on_c, 3, 59, 10
5, 24094, Note_on_c, 3, 59, 0
5, 24096, Note_on_c, 3, 67, 10
5, 24158, Note_on_c, 3, 67, 0
5, 24160, Note_on_c, 3, 61, 10
5, 24222, Note_on_c, 3, 61, 0
5, 24224, Note_on_c, 3, 59, 10
5, 24286, Note_on_c, 3, 59, 0
5, 24288, Note_on_c, 3, 66, 10
5, 24350, Note_on_c, 3, 66, 0
5, 24352, Note_on_c, 3, 62, 10
5, 24414, Note_on_c, 3, 62, 0
5, 24416, Note_on_c, 3, 59, 10
5, 24478, Note_on_c, 3, 59, 0
5, 24480, Note_on_c, 3, 65, 10
5, 24542, Note_on_c, 3, 65, 0
5, 24544, Note_on_c, 3, 61, 10
5, 24606, Note_on_c, 3, 61, 0
5, 24608, Note_on_c, 3, 59, 10
5, 24670, Note_on_c, 3, 59, 0
5, 24672, Note_on_c, 3, 67, 10
5, 24734, Note_on_c, 3, 67, 0
5, 24736, Note_on_c, 3, 63, 10
5, 24798, Note_on_c, 3, 63, 0
5, 24800, Note_on_c, 3, 60, 10
5, 24862, Note_on_c, 3, 60, 0
5, 24864, Note_on_c, 3, 67, 10
5, 24926, Note_on_c, 3, 67, 0
5, 24928, Note_on_c, 3, 64, 10
5, 24990, Note_on_c, 3, 64, 0
5, 24992, Note_on_c, 3, 59, 10
5, 25054, Note_on_c, 3, 59, 0
5, 25056, Note_on_c, 3, 67, 10
5, 25118, Note_on_c, 3, 67, 0
5, 25120, Note_on_c, 3, 63, 10
5, 25182, Note_on_c, 3, 63, 0
5, 25184, Note_on_c, 3, 60, 10
5, 25246, Note_on_c, 3, 60, 0
5, 25248, Note_on_c, 3, 67, 10
5, 25310, Note_on_c, 3, 67, 0
5, 25312, Note_on_c, 3, 64, 10
5, 25374, Note_on_c, 3, 64, 0
5, 25376, Note_on_c, 3, 59, 10
5, 25438, Note_on_c, 3, 59, 0
5, 25440, Note_on_c, 3, 67, 10
5, 25502, Note_on_c, 3, 67, 0
5, 25504, Note_on_c, 3, 63, 10
5, 25566, Note_on_c, 3, 63, 0
5, 25568, Note_on_c, 3, 60, 10
5, 25630, Note_on_c, 3, 60, 0
5, 25632, Note_on_c, 3, 67, 10
5, 25694, Note_on_c, 3, 67, 0
5, 25696, Note_on_c, 3, 64, 10
5, 25758, Note_on_c, 3, 64, 0
5, 25760, Note_on_c, 3, 59, 10
5, 25822, Note_on_c, 3, 59, 0
5, 25824, Note_on_c, 3, 67, 10
5, 25886, Note_on_c, 3, 67, 0
5, 25888, Note_on_c, 3, 63, 10
5, 25950, Note_on_c, 3, 63, 0
5, 25952, Note_on_c, 3, 60, 10
5, 26014, Note_on_c, 3, 60, 0
5, 26016, Note_on_c, 3, 67, 10
5, 26078, Note_on_c, 3, 67, 0
5, 26080, Note_on_c, 3, 64, 10
5, 26142, Note_on_c, 3, 64, 0
5, 26144, Note_on_c, 3, 59, 10
5, 26206, Note_on_c, 3, 59, 0
5, 26208, Note_on_c, 3, 67, 10
5, 26270, Note_on_c, 3, 67, 0
5, 26272, Note_on_c, 3, 63, 10
5, 26334, Note_on_c, 3, 63, 0
5, 26336, Note_on_c, 3, 60, 10
5, 26398, Note_on_c, 3, 60, 0
5, 26400, Note_on_c, 3, 67, 10
5, 26462, Note_on_c, 3, 67, 0
5, 26464, Note_on_c, 3, 64, 10
5, 26526, Note_on_c, 3, 64, 0
5, 26528, Note_on_c, 3, 59, 10
5, 26590, Note_on_c, 3, 59, 0
5, 26592, Note_on_c, 3, 67, 10
5, 26654, Note_on_c, 3, 67, 0
5, 26656, Note_on_c, 3, 63, 10
5, 26718, Note_on_c, 3, 63, 0
5, 26720, Note_on_c, 3, 60, 10
5, 26782, Note_on_c, 3, 60, 0
5, 26784, Note_on_c, 3, 67, 10
5, 26846, Note_on_c, 3, 67, 0
5, 26848, Note_on_c, 3, 64, 10
5, 26910, Note_on_c, 3, 64, 0
5, 26912, Note_on_c, 3, 59, 10
5, 26974, Note_on_c, 3, 59, 0
5, 26976, Note_on_c, 3, 67, 10
5, 27038, Note_on_c, 3, 67, 0
5, 27040, Note_on_c, 3, 63, 10
5, 27102, Note_on_c, 3, 63, 0
5, 27104, Note_on_c, 3, 60, 10
5, 27166, Note_on_c, 3, 60, 0
5, 27168, Note_on_c, 3, 67, 10
5, 27230, Note_on_c, 3, 67, 0
5, 27232, Note_on_c, 3, 64, 10
5, 27294, Note_on_c, 3, 64, 0
5, 27296, Note_on_c, 3, 59, 10
5, 27358, Note_on_c, 3, 59, 0
5, 27360, Note_on_c, 3, 67, 10
5, 27422, Note_on_c, 3, 67, 0
5, 27424, Note_on_c, 3, 63, 10
5, 27486, Note_on_c, 3, 63, 0
5, 27488, Note_on_c, 3, 60, 10
5, 27550, Note_on_c, 3, 60, 0
5, 27552, Note_on_c, 3, 67, 10
5, 27614, Note_on_c, 3, 67, 0
5, 27616, Note_on_c, 3, 64, 10
5, 27678, Note_on_c, 3, 64, 0
5, 27680, Note_on_c, 3, 59, 10
5, 27742, Note_on_c, 3, 59, 0
5, 27744, Note_on_c, 3, 66, 10
5, 27806, Note_on_c, 3, 66, 0
5, 27808, Note_on_c, 3, 62, 10
5, 27870, Note_on_c, 3, 62, 0
5, 27872, Note_on_c, 3, 59, 10
5, 27934, Note_on_c, 3, 59, 0
5, 27936, Note_on_c, 3, 67, 10
5, 27998, Note_on_c, 3, 67, 0
5, 28000, Note_on_c, 3, 61, 10
5, 28062, Note_on_c, 3, 61, 0
5, 28064, Note_on_c, 3, 59, 10
5, 28126, Note_on_c, 3, 59, 0
5, 28128, Note_on_c, 3, 66, 10
5, 28190, Note_on_c, 3, 66, 0
5, 28192, Note_on_c, 3, 62, 10
5, 28254, Note_on_c, 3, 62, 0
5, 28256, Note_on_c, 3, 59, 10
5, 28318, Note_on_c, 3, 59, 0
5, 28320, Note_on_c, 3, 65, 10
5, 28382, Note_on_c, 3, 65, 0
5, 28384, Note_on_c, 3, 61, 10
5, 28446, Note_on_c, 3, 61, 0
5, 28448, Note_on_c, 3, 59, 10
5, 28510, Note_on_c, 3, 59, 0
5, 28512, Note_on_c, 3, 66, 10
5, 28574, Note_on_c, 3, 66, 0
5, 28576, Note_on_c, 3, 62, 10
5, 28638, Note_on_c, 3, 62, 0
5, 28640, Note_on_c, 3, 59, 10
5, 28702, Note_on_c, 3, 59, 0
5, 28704, Note_on_c, 3, 67, 10
5, 28766, Note_on_c, 3, 67, 0
5, 28768, Note_on_c, 3, 61, 10
5, 28830, Note_on_c, 3, 61, 0
5, 28832, Note_on_c, 3, 59, 10
5, 28894, Note_on_c, 3, 59, 0
5, 28896, Note_on_c, 3, 66, 10
5, 28958, Note_on_c, 3, 66, 0
5, 28960, Note_on_c, 3, 62, 10
5, 29022, Note_on_c, 3, 62, 0
5, 29024, Note_on_c, 3, 59, 10
5, 29086, Note_on_c, 3, 59, 0
5, 29088, Note_on_c, 3, 65, 10
5, 29150, Note_on_c, 3, 65, 0
5, 29152, Note_on_c, 3, 61, 10
5, 29214, Note_on_c, 3, 61, 0
5, 29216, Note_on_c, 3, 59, 10
5, 29278, Note_on_c, 3, 59, 0
5, 29280, Note_on_c, 3, 66, 10
5, 29342, Note_on_c, 3, 66, 0
5, 29344, Note_on_c, 3, 62, 10
5, 29406, Note_on_c, 3, 62, 0
5, 29408, Note_on_c, 3, 59, 10
5, 29470, Note_on_c, 3, 59, 0
5, 29472, Note_on_c, 3, 67, 10
5, 29534, Note_on_c, 3, 67, 0
5, 29536, Note_on_c, 3, 61, 10
5, 29598, Note_on_c, 3, 61, 0
5, 29600, Note_on_c, 3, 59, 10
5, 29662, Note_on_c, 3, 59, 0
5, 29664, Note_on_c, 3, 66, 10
5, 29726, Note_on_c, 3, 66, 0
5, 29728, Note_on_c, 3, 62, 10
5, 29790, Note_on_c, 3, 62, 0
5, 29792, Note_on_c, 3, 59, 10
5, 29854, Note_on_c, 3, 59, 0
5, 29856, Note_on_c, 3, 65, 10
5, 29918, Note_on_c, 3, 65, 0
5, 29920, Note_on_c, 3, 61, 10
5, 29982, Note_on_c, 3, 61, 0
5, 29984, Note_on_c, 3, 59, 10
5, 30046, Note_on_c, 3, 59, 0
5, 30048, Note_on_c, 3, 66, 10
5, 30110, Note_on_c, 3, 66, 0
5, 30112, Note_on_c, 3, 62, 10
5, 30174, Note_on_c, 3, 62, 0
5, 30176, Note_on_c, 3, 59, 10
5, 30238, Note_on_c, 3, 59, 0
5, 30240, Note_on_c, 3, 67, 10
5, 30302, Note_on_c, 3, 67, 0
5, 30304, Note_on_c, 3, 61, 10
5, 30366, Note_on_c, 3, 61, 0
5, 30368, Note_on_c, 3, 59, 10
5, 30430, Note_on_c, 3, 59, 0
5, 30432, Note_on_c, 3, 66, 10
5, 30494, Note_on_c, 3, 66, 0
5, 30496, Note_on_c, 3, 62, 10
5, 30558, Note_on_c, 3, 62, 0
5, 30560, Note_on_c, 3, 59, 10
5, 30622, Note_on_c, 3, 59, 0
5, 30624, Note_on_c, 3, 65, 10
5, 30686, Note_on_c, 3, 65, 0
5, 30688, Note_on_c, 3, 61, 10
5, 30750, Note_on_c, 3, 61, 0
5, 30752, Note_on_c, 3, 59, 10
5, 30814, Note_on_c, 3, 59, 0
5, 30816, Note_on_c, 3, 64, 10
5, 30878, Note_on_c, 3, 64, 0
5, 30880, Note_on_c, 3, 60, 10
5, 30942, Note_on_c, 3, 60, 0
5, 30944, Note_on_c, 3, 57, 10
5, 31006, Note_on_c, 3, 57, 0
5, 31008, Note_on_c, 3, 64, 10
5, 31070, Note_on_c, 3, 64, 0
5, 31072, Note_on_c, 3, 61, 10
5, 31134, Note_on_c, 3, 61, 0
5, 31136, Note_on_c, 3, 56, 10
5, 31198, Note_on_c, 3, 56, 0
5, 31200, Note_on_c, 3, 64, 10
5, 31262, Note_on_c, 3, 64, 0
5, 31264, Note_on_c, 3, 60, 10
5, 31326, Note_on_c, 3, 60, 0
5, 31328, Note_on_c, 3, 57, 10
5, 31390, Note_on_c, 3, 57, 0
5, 31392, Note_on_c, 3, 64, 10
5, 31454, Note_on_c, 3, 64, 0
5, 31456, Note_on_c, 3, 61, 10
5, 31518, Note_on_c, 3, 61, 0
5, 31520, Note_on_c, 3, 56, 10
5, 31582, Note_on_c, 3, 56, 0
5, 31584, Note_on_c, 3, 64, 10
5, 31646, Note_on_c, 3, 64, 0
5, 31648, Note_on_c, 3, 60, 10
5, 31710, Note_on_c, 3, 60, 0
5, 31712, Note_on_c, 3, 57, 10
5, 31774, Note_on_c, 3, 57, 0
5, 31776, Note_on_c, 3, 64, 10
5, 31838, Note_on_c, 3, 64, 0
5, 31840, Note_on_c, 3, 61, 10
5, 31902, Note_on_c, 3, 61, 0
5, 31904, Note_on_c, 3, 56, 10
5, 31966, Note_on_c, 3, 56, 0
5, 31968, Note_on_c, 3, 64, 10
5, 32030, Note_on_c, 3, 64, 0
5, 32032, Note_on_c, 3, 60, 10
5, 32094, Note_on_c, 3, 60, 0
5, 32096, Note_on_c, 3, 57, 10
5, 32158, Note_on_c, 3, 57, 0
5, 32160, Note_on_c, 3, 64, 10
5, 32222, Note_on_c, 3, 64, 0
5, 32224, Note_on_c, 3, 61, 10
5, 32286, Note_on_c, 3, 61, 0
5, 32288, Note_on_c, 3, 56, 10
5, 32350, Note_on_c, 3, 56, 0
5, 32352, Note_on_c, 3, 64, 10
5, 32414, Note_on_c, 3, 64, 0
5, 32416, Note_on_c, 3, 60, 10
5, 32478, Note_on_c, 3, 60, 0
5, 32480, Note_on_c, 3, 57, 10
5, 32542, Note_on_c, 3, 57, 0
5, 32544, Note_on_c, 3, 64, 10
5, 32606, Note_on_c, 3, 64, 0
5, 32608, Note_on_c, 3, 61, 10
5, 32670, Note_on_c, 3, 61, 0
5, 32672, Note_on_c, 3, 56, 10
5, 32734, Note_on_c, 3, 56, 0
5, 32736, Note_on_c, 3, 64, 10
5, 32798, Note_on_c, 3, 64, 0
5, 32800, Note_on_c, 3, 60, 10
5, 32862, Note_on_c, 3, 60, 0
5, 32864, Note_on_c, 3, 57, 10
5, 32926, Note_on_c, 3, 57, 0
5, 32928, Note_on_c, 3, 64, 10
5, 32990, Note_on_c, 3, 64, 0
5, 32992, Note_on_c, 3, 61, 10
5, 33054, Note_on_c, 3, 61, 0
5, 33056, Note_on_c, 3, 56, 10
5, 33118, Note_on_c, 3, 56, 0
5, 33120, Note_on_c, 3, 64, 10
5, 33182, Note_on_c, 3, 64, 0
5, 33184, Note_on_c, 3, 60, 10
5, 33246, Note_on_c, 3, 60, 0
5, 33248, Note_on_c, 3, 57, 10
5, 33310, Note_on_c, 3, 57, 0
5, 33312, Note_on_c, 3, 64, 10
5, 33374, Note_on_c, 3, 64, 0
5, 33376, Note_on_c, 3, 61, 10
5, 33438, Note_on_c, 3, 61, 0
5, 33440, Note_on_c, 3, 56, 10
5, 33502, Note_on_c, 3, 56, 0
5, 33504, Note_on_c, 3, 64, 10
5, 33566, Note_on_c, 3, 64, 0
5, 33568, Note_on_c, 3, 60, 10
5, 33630, Note_on_c, 3, 60, 0
5, 33632, Note_on_c, 3, 57, 10
5, 33694, Note_on_c, 3, 57, 0
5, 33696, Note_on_c, 3, 64, 10
5, 33758, Note_on_c, 3, 64, 0
5, 33760, Note_on_c, 3, 61, 10
5, 33822, Note_on_c, 3, 61, 0
5, 33824, Note_on_c, 3, 56, 10
5, 33886, Note_on_c, 3, 56, 0
5, 33888, Note_on_c, 3, 63, 10
5, 33950, Note_on_c, 3, 63, 0
5, 33952, Note_on_c, 3, 59, 10
5, 34014, Note_on_c, 3, 59, 0
5, 34016, Note_on_c, 3, 56, 10
5, 34078, Note_on_c, 3, 56, 0
5, 34080, Note_on_c, 3, 64, 10
5, 34142, Note_on_c, 3, 64, 0
5, 34144, Note_on_c, 3, 58, 10
5, 34206, Note_on_c, 3, 58, 0
5, 34208, Note_on_c, 3, 56, 10
5, 34270, Note_on_c, 3, 56, 0
5, 34272, Note_on_c, 3, 63, 10
5, 34334, Note_on_c, 3, 63, 0
5, 34336, Note_on_c, 3, 59, 10
5, 34398, Note_on_c, 3, 59, 0
5, 34400, Note_on_c, 3, 56, 10
5, 34462, Note_on_c, 3, 56, 0
5, 34464, Note_on_c, 3, 62, 10
5, 34526, Note_on_c, 3, 62, 0
5, 34528, Note_on_c, 3, 58, 10
5, 34590, Note_on_c, 3, 58, 0
5, 34592, Note_on_c, 3, 56, 10
5, 34654, Note_on_c, 3, 56, 0
5, 34656, Note_on_c, 3, 63, 10
5, 34718, Note_on_c, 3, 63, 0
5, 34720, Note_on_c, 3, 59, 10
5, 34782, Note_on_c, 3, 59, 0
5, 34784, Note_on_c, 3, 56, 10
5, 34846, Note_on_c, 3, 56, 0
5, 34848, Note_on_c, 3, 64, 10
5, 34910, Note_on_c, 3, 64, 0
5, 34912, Note_on_c, 3, 58, 10
5, 34974, Note_on_c, 3, 58, 0
5, 34976, Note_on_c, 3, 56, 10
5, 35038, Note_on_c, 3, 56, 0
5, 35040, Note_on_c, 3, 63, 10
5, 35102, Note_on_c, 3, 63, 0
5, 35104, Note_on_c, 3, 59, 10
5, 35166, Note_on_c, 3, 59, 0
5, 35168, Note_on_c, 3, 56, 10
5, 35230, Note_on_c, 3, 56, 0
5, 35232, Note_on_c, 3, 62, 10
5, 35294, Note_on_c, 3, 62, 0
5, 35296, Note_on_c, 3, 58, 10
5, 35358, Note_on_c, 3, 58, 0
5, 35360, Note_on_c, 3, 56, 10
5, 35422, Note_on_c, 3, 56, 0
5, 35424, Note_on_c, 3, 63, 10
5, 35486, Note_on_c, 3, 63, 0
5, 35488, Note_on_c, 3, 59, 10
5, 35550, Note_on_c, 3, 59, 0
5, 35552, Note_on_c, 3, 56, 10
5, 35614, Note_on_c, 3, 56, 0
5, 35616, Note_on_c, 3, 64, 10
5, 35678, Note_on_c, 3, 64, 0
5, 35680, Note_on_c, 3, 58, 10
5, 35742, Note_on_c, 3, 58, 0
5, 35744, Note_on_c, 3, 56, 10
5, 35806, Note_on_c, 3, 56, 0
5, 35808, Note_on_c, 3, 63, 10
5, 35870, Note_on_c, 3, 63, 0
5, 35872, Note_on_c, 3, 59, 10
5, 35934, Note_on_c, 3, 59, 0
5, 35936, Note_on_c, 3, 56, 10
5, 35998, Note_on_c, 3, 56, 0
5, 36000, Note_on_c, 3, 62, 10
5, 36062, Note_on_c, 3, 62, 0
5, 36064, Note_on_c, 3, 58, 10
5, 36126, Note_on_c, 3, 58, 0
5, 36128, Note_on_c, 3, 56, 10
5, 36190, Note_on_c, 3, 56, 0
5, 36192, Note_on_c, 3, 63, 10
5, 36254, Note_on_c, 3, 63, 0
5, 36256, Note_on_c, 3, 59, 10
5, 36318, Note_on_c, 3, 59, 0
5, 36320, Note_on_c, 3, 56, 10
5, 36382, Note_on_c, 3, 56, 0
5, 36384, Note_on_c, 3, 64, 10
5, 36446, Note_on_c, 3, 64, 0
5, 36448, Note_on_c, 3, 58, 10
5, 36510, Note_on_c, 3, 58, 0
5, 36512, Note_on_c, 3, 56, 10
5, 36574, Note_on_c, 3, 56, 0
5, 36576, Note_on_c, 3, 63, 10
5, 36638, Note_on_c, 3, 63, 0
5, 36640, Note_on_c, 3, 59, 10
5, 36702, Note_on_c, 3, 59, 0
5, 36704, Note_on_c, 3, 56, 10
5, 36766, Note_on_c, 3, 56, 0
5, 36768, Note_on_c, 3, 62, 10
5, 36830, Note_on_c, 3, 62, 0
5, 36832, Note_on_c, 3, 58, 10
5, 36894, Note_on_c, 3, 58, 0
5, 36896, Note_on_c, 3, 56, 10
5, 36958, Note_on_c, 3, 56, 0
5, 36960, Note_on_c, 3, 62, 10
5, 37022, Note_on_c, 3, 62, 0
5, 37024, Note_on_c, 3, 58, 10
5, 37086, Note_on_c, 3, 58, 0
5, 37088, Note_on_c, 3, 55, 10
5, 37150, Note_on_c, 3, 55, 0
5, 37152, Note_on_c, 3, 62, 10
5, 37214, Note_on_c, 3, 62, 0
5, 37216, Note_on_c, 3, 59, 10
5, 37278, Note_on_c, 3, 59, 0
5, 37280, Note_on_c, 3, 54, 10
5, 37342, Note_on_c, 3, 54, 0
5, 37344, Note_on_c, 3, 62, 10
5, 37406, Note_on_c, 3, 62, 0
5, 37408, Note_on_c, 3, 58, 10
5, 37470, Note_on_c, 3, 58, 0
5, 37472, Note_on_c, 3, 55, 10
5, 37534, Note_on_c, 3, 55, 0
5, 37536, Note_on_c, 3, 62, 10
5, 37598, Note_on_c, 3, 62, 0
5, 37600, Note_on_c, 3, 59, 10
5, 37662, Note_on_c, 3, 59, 0
5, 37664, Note_on_c, 3, 54, 10
5, 37726, Note_on_c, 3, 54, 0
5, 37728, Note_on_c, 3, 62, 10
5, 37790, Note_on_c, 3, 62, 0
5, 37792, Note_on_c, 3, 58, 10
5, 37854, Note_on_c, 3, 58, 0
5, 37856, Note_on_c, 3, 55, 10
5, 37918, Note_on_c, 3, 55, 0
5, 37920, Note_on_c, 3, 62, 10
5, 37982, Note_on_c, 3, 62, 0
5, 37984, Note_on_c, 3, 59, 10
5, 38046, Note_on_c, 3, 59, 0
5, 38048, Note_on_c, 3, 54, 10
5, 38110, Note_on_c, 3, 54, 0
5, 38112, Note_on_c, 3, 62, 10
5, 38174, Note_on_c, 3, 62, 0
5, 38176, Note_on_c, 3, 58, 10
5, 38238, Note_on_c, 3, 58, 0
5, 38240, Note_on_c, 3, 55, 10
5, 38302, Note_on_c, 3, 55, 0
5, 38304, Note_on_c, 3, 62, 10
5, 38366, Note_on_c, 3, 62, 0
5, 38368, Note_on_c, 3, 59, 10
5, 38430, Note_on_c, 3, 59, 0
5, 38432, Note_on_c, 3, 54, 10
5, 38494, Note_on_c, 3, 54, 0
5, 38496, Note_on_c, 3, 62, 10
5, 38558, Note_on_c, 3, 62, 0
5, 38560, Note_on_c, 3, 58, 10
5, 38622, Note_on_c, 3, 58, 0
5, 38624, Note_on_c, 3, 55, 10
5, 38686, Note_on_c, 3, 55, 0
5, 38688, Note_on_c, 3, 62, 10
5, 38750, Note_on_c, 3, 62, 0
5, 38752, Note_on_c, 3, 59, 10
5, 38814, Note_on_c, 3, 59, 0
5, 38816, Note_on_c, 3, 54, 10
5, 38878, Note_on_c, 3, 54, 0
5, 38880, Note_on_c, 3, 62, 10
5, 38942, Note_on_c, 3, 62, 0
5, 38944, Note_on_c, 3, 58, 10
5, 39006, Note_on_c, 3, 58, 0
5, 39008, Note_on_c, 3, 55, 10
5, 39070, Note_on_c, 3, 55, 0
5, 39072, Note_on_c, 3, 62, 10
5, 39134, Note_on_c, 3, 62, 0
5, 39136, Note_on_c, 3, 59, 10
5, 39198, Note_on_c, 3, 59, 0
5, 39200, Note_on_c, 3, 54, 10
5, 39262, Note_on_c, 3, 54, 0
5, 39264, Note_on_c, 3, 62, 10
5, 39326, Note_on_c, 3, 62, 0
5, 39328, Note_on_c, 3, 58, 10
5, 39390, Note_on_c, 3, 58, 0
5, 39392, Note_on_c, 3, 55, 10
5, 39454, Note_on_c, 3, 55, 0
5, 39456, Note_on_c, 3, 62, 10
5, 39518, Note_on_c, 3, 62, 0
5, 39520, Note_on_c, 3, 59, 10
5, 39582, Note_on_c, 3, 59, 0
5, 39584, Note_on_c, 3, 54, 10
5, 39646, Note_on_c, 3, 54, 0
5, 39648, Note_on_c, 3, 62, 10
5, 39710, Note_on_c, 3, 62, 0
5, 39712, Note_on_c, 3, 58, 10
5, 39774, Note_on_c, 3, 58, 0
5, 39776, Note_on_c, 3, 55, 10
5, 39838, Note_on_c, 3, 55, 0
5, 39840, Note_on_c, 3, 62, 10
5, 39902, Note_on_c, 3, 62, 0
5, 39904, Note_on_c, 3, 59, 10
5, 39966, Note_on_c, 3, 59, 0
5, 39968, Note_on_c, 3, 54, 10
5, 40030, Note_on_c, 3, 54, 0
5, 40032, Note_on_c, 3, 61, 10
5, 40094, Note_on_c, 3, 61, 0
5, 40096, Note_on_c, 3, 57, 10
5, 40158, Note_on_c, 3, 57, 0
5, 40160, Note_on_c, 3, 54, 10
5, 40222, Note_on_c, 3, 54, 0
5, 40224, Note_on_c, 3, 62, 10
5, 40286, Note_on_c, 3, 62, 0
5, 40288, Note_on_c, 3, 56, 10
5, 40350, Note_on_c, 3, 56, 0
5, 40352, Note_on_c, 3, 54, 10
5, 40414, Note_on_c, 3, 54, 0
5, 40416, Note_on_c, 3, 61, 10
5, 40478, Note_on_c, 3, 61, 0
5, 40480, Note_on_c, 3, 57, 10
5, 40542, Note_on_c, 3, 57, 0
5, 40544, Note_on_c, 3, 54, 10
5, 40606, Note_on_c, 3, 54, 0
5, 40608, Note_on_c, 3, 60, 10
5, 40670, Note_on_c, 3, 60, 0
5, 40672, Note_on_c, 3, 56, 10
5, 40734, Note_on_c, 3, 56, 0
5, 40736, Note_on_c, 3, 54, 10
5, 40798, Note_on_c, 3, 54, 0
5, 40800, Note_on_c, 3, 61, 10
5, 40862, Note_on_c, 3, 61, 0
5, 40864, Note_on_c, 3, 57, 10
5, 40926, Note_on_c, 3, 57, 0
5, 40928, Note_on_c, 3, 54, 10
5, 40990, Note_on_c, 3, 54, 0
5, 40992, Note_on_c, 3, 62, 10
5, 41054, Note_on_c, 3, 62, 0
5, 41056, Note_on_c, 3, 56, 10
5, 41118, Note_on_c, 3, 56, 0
5, 41120, Note_on_c, 3, 54, 10
5, 41182, Note_on_c, 3, 54, 0
5, 41184, Note_on_c, 3, 61, 10
5, 41246, Note_on_c, 3, 61, 0
5, 41248, Note_on_c, 3, 57, 10
5, 41310, Note_on_c, 3, 57, 0
5, 41312, Note_on_c, 3, 54, 10
5, 41374, Note_on_c, 3, 54, 0
5, 41376, Note_on_c, 3, 60, 10
5, 41438, Note_on_c, 3, 60, 0
5, 41440, Note_on_c, 3, 56, 10
5, 41502, Note_on_c, 3, 56, 0
5, 41504, Note_on_c, 3, 54, 10
5, 41566, Note_on_c, 3, 54, 0
5, 41568, Note_on_c, 3, 61, 10
5, 41630, Note_on_c, 3, 61, 0
5, 41632, Note_on_c, 3, 57, 10
5, 41694, Note_on_c, 3, 57, 0
5, 41696, Note_on_c, 3, 54, 10
5, 41758, Note_on_c, 3, 54, 0
5, 41760, Note_on_c, 3, 62, 10
5, 41822, Note_on_c, 3, 62, 0
5, 41824, Note_on_c, 3, 56, 10
5, 41886, Note_on_c, 3, 56, 0
5, 41888, Note_on_c, 3, 54, 10
5, 41950, Note_on_c, 3, 54, 0
5, 41952, Note_on_c, 3, 61, 10
5, 42014, Note_on_c, 3, 61, 0
5, 42016, Note_on_c, 3, 57, 10
5, 42078, Note_on_c, 3, 57, 0
5, 42080, Note_on_c, 3, 54, 10
5, 42142, Note_on_c, 3, 54, 0
5, 42144, Note_on_c, 3, 60, 10
5, 42206, Note_on_c, 3, 60, 0
5, 42208, Note_on_c, 3, 56, 10
5, 42270, Note_on_c, 3, 56, 0
5, 42272, Note_on_c, 3, 54, 10
5, 42334, Note_on_c, 3, 54, 0
5, 42336, Note_on_c, 3, 61, 10
5, 42398, Note_on_c, 3, 61, 0
5, 42400, Note_on_c, 3, 57, 10
5, 42462, Note_on_c, 3, 57, 0
5, 42464, Note_on_c, 3, 54, 10
5, 42526, Note_on_c, 3, 54, 0
5, 42528, Note_on_c, 3, 62, 10
5, 42590, Note_on_c, 3, 62, 0
5, 42592, Note_on_c, 3, 56, 10
5, 42654, Note_on_c, 3, 56, 0
5, 42656, Note_on_c, 3, 54, 10
5, 42718, Note_on_c, 3, 54, 0
5, 42720, Note_on_c, 3, 61, 10
5, 42782, Note_on_c, 3, 61, 0
5, 42784, Note_on_c, 3, 57, 10
5, 42846, Note_on_c, 3, 57, 0
5, 42848, Note_on_c, 3, 54, 10
5, 42910, Note_on_c, 3, 54, 0
5, 42912, Note_on_c, 3, 60, 10
5, 42974, Note_on_c, 3, 60, 0
5, 42976, Note_on_c, 3, 56, 10
5, 43038, Note_on_c, 3, 56, 0
5, 43040, Note_on_c, 3, 54, 10
5, 43102, Note_on_c, 3, 54, 0
5, 43104, Note_on_c, 3, 67, 10
5, 43166, Note_on_c, 3, 67, 0
5, 43168, Note_on_c, 3, 63, 10
5, 43230, Note_on_c, 3, 63, 0
5, 43232, Note_on_c, 3, 60, 10
5, 43294, Note_on_c, 3, 60, 0
5, 43296, Note_on_c, 3, 67, 10
5, 43358, Note_on_c, 3, 67, 0
5, 43360, Note_on_c, 3, 64, 10
5, 43422, Note_on_c, 3, 64, 0
5, 43424, Note_on_c, 3, 59, 10
5, 43486, Note_on_c, 3, 59, 0
5, 43488, Note_on_c, 3, 67, 10
5, 43550, Note_on_c, 3, 67, 0
5, 43552, Note_on_c, 3, 63, 10
5, 43614, Note_on_c, 3, 63, 0
5, 43616, Note_on_c, 3, 60, 10
5, 43678, Note_on_c, 3, 60, 0
5, 43680, Note_on_c, 3, 67, 10
5, 43742, Note_on_c, 3, 67, 0
5, 43744, Note_on_c, 3, 64, 10
5, 43806, Note_on_c, 3, 64, 0
5, 43808, Note_on_c, 3, 59, 10
5, 43870, Note_on_c, 3, 59, 0
5, 43872, Note_on_c, 3, 67, 10
5, 43934, Note_on_c, 3, 67, 0
5, 43936, Note_on_c, 3, 63, 10
5, 43998, Note_on_c, 3, 63, 0
5, 44000, Note_on_c, 3, 60, 10
5, 44062, Note_on_c, 3, 60, 0
5, 44064, Note_on_c, 3, 67, 10
5, 44126, Note_on_c, 3, 67, 0
5, 44128, Note_on_c, 3, 64, 10
5, 44190, Note_on_c, 3, 64, 0
5, 44192, Note_on_c, 3, 59, 10
5, 44254, Note_on_c, 3, 59, 0
5, 44256, Note_on_c, 3, 67, 10
5, 44318, Note_on_c, 3, 67, 0
5, 44320, Note_on_c, 3, 63, 10
5, 44382, Note_on_c, 3, 63, 0
5, 44384, Note_on_c, 3, 60, 10
5, 44446, Note_on_c, 3, 60, 0
5, 44448, Note_on_c, 3, 67, 10
5, 44510, Note_on_c, 3, 67, 0
5, 44512, Note_on_c, 3, 64, 10
5, 44574, Note_on_c, 3, 64, 0
5, 44576, Note_on_c, 3, 59, 10
5, 44638, Note_on_c, 3, 59, 0
5, 44640, Note_on_c, 3, 67, 10
5, 44702, Note_on_c, 3, 67, 0
5, 44704, Note_on_c, 3, 63, 10
5, 44766, Note_on_c, 3, 63, 0
5, 44768, Note_on_c, 3, 60, 10
5, 44830, Note_on_c, 3, 60, 0
5, 44832, Note_on_c, 3, 67, 10
5, 44894, Note_on_c, 3, 67, 0
5, 44896, Note_on_c, 3, 64, 10
5, 44958, Note_on_c, 3, 64, 0
5, 44960, Note_on_c, 3, 59, 10
5, 45022, Note_on_c, 3, 59, 0
5, 45024, Note_on_c, 3, 67, 10
5, 45086, Note_on_c, 3, 67, 0
5, 45088, Note_on_c, 3, 63, 10
5, 45150, Note_on_c, 3, 63, 0
5, 45152, Note_on_c, 3, 60, 10
5, 45214, Note_on_c, 3, 60, 0
5, 45216, Note_on_c, 3, 67, 10
5, 45278, Note_on_c, 3, 67, 0
5, 45280, Note_on_c, 3, 64, 10
5, 45342, Note_on_c, 3, 64, 0
5, 45344, Note_on_c, 3, 59, 10
5, 45406, Note_on_c, 3, 59, 0
5, 45408, Note_on_c, 3, 67, 10
5, 45470, Note_on_c, 3, 67, 0
5, 45472, Note_on_c, 3, 63, 10
5, 45534, Note_on_c, 3, 63, 0
5, 45536, Note_on_c, 3, 60, 10
5, 45598, Note_on_c, 3, 60, 0
5, 45600, Note_on_c, 3, 67, 10
5, 45662, Note_on_c, 3, 67, 0
5, 45664, Note_on_c, 3, 64, 10
5, 45726, Note_on_c, 3, 64, 0
5, 45728, Note_on_c, 3, 59, 10
5, 45790, Note_on_c, 3, 59, 0
5, 45792, Note_on_c, 3, 67, 10
5, 45854, Note_on_c, 3, 67, 0
5, 45856, Note_on_c, 3, 63, 10
5, 45918, Note_on_c, 3, 63, 0
5, 45920, Note_on_c, 3, 60, 10
5, 45982, Note_on_c, 3, 60, 0
5, 45984, Note_on_c, 3, 67, 10
5, 46046, Note_on_c, 3, 67, 0
5, 46048, Note_on_c, 3, 64, 10
5, 46110, Note_on_c, 3, 64, 0
5, 46112, Note_on_c, 3, 59, 10
5, 46174, Note_on_c, 3, 59, 0
5, 46176, Note_on_c, 3, 66, 10
5, 46238, Note_on_c, 3, 66, 0
5, 46240, Note_on_c, 3, 62, 10
5, 46302, Note_on_c, 3, 62, 0
5, 46304, Note_on_c, 3, 59, 10
5, 46366, Note_on_c, 3, 59, 0
5, 46368, Note_on_c, 3, 67, 10
5, 46430, Note_on_c, 3, 67, 0
5, 46432, Note_on_c, 3, 61, 10
5, 46494, Note_on_c, 3, 61, 0
5, 46496, Note_on_c, 3, 59, 10
5, 46558, Note_on_c, 3, 59, 0
5, 46560, Note_on_c, 3, 66, 10
5, 46622, Note_on_c, 3, 66, 0
5, 46624, Note_on_c, 3, 62, 10
5, 46686, Note_on_c, 3, 62, 0
5, 46688, Note_on_c, 3, 59, 10
5, 46750, Note_on_c, 3, 59, 0
5, 46752, Note_on_c, 3, 65, 10
5, 46814, Note_on_c, 3, 65, 0
5, 46816, Note_on_c, 3, 61, 10
5, 46878, Note_on_c, 3, 61, 0
5, 46880, Note_on_c, 3, 59, 10
5, 46942, Note_on_c, 3, 59, 0
5, 46944, Note_on_c, 3, 66, 10
5, 47006, Note_on_c, 3, 66, 0
5, 47008, Note_on_c, 3, 62, 10
5, 47070, Note_on_c, 3, 62, 0
5, 47072, Note_on_c, 3, 59, 10
5, 47134, Note_on_c, 3, 59, 0
5, 47136, Note_on_c, 3, 67, 10
5, 47198, Note_on_c, 3, 67, 0
5, 47200, Note_on_c, 3, 61, 10
5, 47262, Note_on_c, 3, 61, 0
5, 47264, Note_on_c, 3, 59, 10
5, 47326, Note_on_c, 3, 59, 0
5, 47328, Note_on_c, 3, 66, 10
5, 47390, Note_on_c, 3, 66, 0
5, 47392, Note_on_c, 3, 62, 10
5, 47454, Note_on_c, 3, 62, 0
5, 47456, Note_on_c, 3, 59, 10
5, 47518, Note_on_c, 3, 59, 0
5, 47520, Note_on_c, 3, 65, 10
5, 47582, Note_on_c, 3, 65, 0
5, 47584, Note_on_c, 3, 61, 10
5, 47646, Note_on_c, 3, 61, 0
5, 47648, Note_on_c, 3, 59, 10
5, 47710, Note_on_c, 3, 59, 0
5, 47712, Note_on_c, 3, 66, 10
5, 47774, Note_on_c, 3, 66, 0
5, 47776, Note_on_c, 3, 62, 10
5, 47838, Note_on_c, 3, 62, 0
5, 47840, Note_on_c, 3, 59, 10
5, 47902, Note_on_c, 3, 59, 0
5, 47904, Note_on_c, 3, 67, 10
5, 47966, Note_on_c, 3, 67, 0
5, 47968, Note_on_c, 3, 61, 10
5, 48030, Note_on_c, 3, 61, 0
5, 48032, Note_on_c, 3, 59, 10
5, 48094, Note_on_c, 3, 59, 0
5, 48096, Note_on_c, 3, 66, 10
5, 48158, Note_on_c, 3, 66, 0
5, 48160, Note_on_c, 3, 62, 10
5, 48222, Note_on_c, 3, 62, 0
5, 48224, Note_on_c, 3, 59, 10
5, 48286, Note_on_c, 3, 59, 0
5, 48288, Note_on_c, 3, 65, 10
5, 48350, Note_on_c, 3, 65, 0
5, 48352, Note_on_c, 3, 61, 10
5, 48414, Note_on_c, 3, 61, 0
5, 48416, Note_on_c, 3, 59, 10
5, 48478, Note_on_c, 3, 59, 0
5, 48480, Note_on_c, 3, 66, 10
5, 48542, Note_on_c, 3, 66, 0
5, 48544, Note_on_c, 3, 62, 10
5, 48606, Note_on_c, 3, 62, 0
5, 48608, Note_on_c, 3, 59, 10
5, 48670, Note_on_c, 3, 59, 0
5, 48672, Note_on_c, 3, 67, 10
5, 48734, Note_on_c, 3, 67, 0
5, 48736, Note_on_c, 3, 61, 10
5, 48798, Note_on_c, 3, 61, 0
5, 48800, Note_on_c, 3, 59, 10
5, 48862, Note_on_c, 3, 59, 0
5, 48864, Note_on_c, 3, 66, 10
5, 48926, Note_on_c, 3, 66, 0
5, 48928, Note_on_c, 3, 62, 10
5, 48990, Note_on_c, 3, 62, 0
5, 48992, Note_on_c, 3, 59, 10
5, 49054, Note_on_c, 3, 59, 0
5, 49056, Note_on_c, 3, 65, 10
5, 49118, Note_on_c, 3, 65, 0
5, 49120, Note_on_c, 3, 61, 10
5, 49182, Note_on_c, 3, 61, 0
5, 49184, Note_on_c, 3, 59, 10
5, 49246, Note_on_c, 3, 59, 0
5, 49248, Note_on_c, 3, 67, 10
5, 49310, Note_on_c, 3, 67, 0
5, 49312, Note_on_c, 3, 63, 10
5, 49374, Note_on_c, 3, 63, 0
5, 49376, Note_on_c, 3, 60, 10
5, 49438, Note_on_c, 3, 60, 0
5, 49440, Note_on_c, 3, 67, 10
5, 49502, Note_on_c, 3, 67, 0
5, 49504, Note_on_c, 3, 64, 10
5, 49566, Note_on_c, 3, 64, 0
5, 49568, Note_on_c, 3, 59, 10
5, 49630, Note_on_c, 3, 59, 0
5, 49632, Note_on_c, 3, 67, 10
5, 49694, Note_on_c, 3, 67, 0
5, 49696, Note_on_c, 3, 63, 10
5, 49758, Note_on_c, 3, 63, 0
5, 49760, Note_on_c, 3, 60, 10
5, 49822, Note_on_c, 3, 60, 0
5, 49824, Note_on_c, 3, 67, 10
5, 49886, Note_on_c, 3, 67, 0
5, 49888, Note_on_c, 3, 64, 10
5, 49950, Note_on_c, 3, 64, 0
5, 49952, Note_on_c, 3, 59, 10
5, 50014, Note_on_c, 3, 59, 0
5, 50016, Note_on_c, 3, 67, 10
5, 50078, Note_on_c, 3, 67, 0
5, 50080, Note_on_c, 3, 63, 10
5, 50142, Note_on_c, 3, 63, 0
5, 50144, Note_on_c, 3, 60, 10
5, 50206, Note_on_c, 3, 60, 0
5, 50208, Note_on_c, 3, 67, 10
5, 50270, Note_on_c, 3, 67, 0
5, 50272, Note_on_c, 3, 64, 10
5, 50334, Note_on_c, 3, 64, 0
5, 50336, Note_on_c, 3, 59, 10
5, 50398, Note_on_c, 3, 59, 0
5, 50400, Note_on_c, 3, 67, 10
5, 50462, Note_on_c, 3, 67, 0
5, 50464, Note_on_c, 3, 63, 10
5, 50526, Note_on_c, 3, 63, 0
5, 50528, Note_on_c, 3, 60, 10
5, 50590, Note_on_c, 3, 60, 0
5, 50592, Note_on_c, 3, 67, 10
5, 50654, Note_on_c, 3, 67, 0
5, 50656, Note_on_c, 3, 64, 10
5, 50718, Note_on_c, 3, 64, 0
5, 50720, Note_on_c, 3, 59, 10
5, 50782, Note_on_c, 3, 59, 0
5, 50784, Note_on_c, 3, 67, 10
5, 50846, Note_on_c, 3, 67, 0
5, 50848, Note_on_c, 3, 63, 10
5, 50910, Note_on_c, 3, 63, 0
5, 50912, Note_on_c, 3, 60, 10
5, 50974, Note_on_c, 3, 60, 0
5, 50976, Note_on_c, 3, 67, 10
5, 51038, Note_on_c, 3, 67, 0
5, 51040, Note_on_c, 3, 64, 10
5, 51102, Note_on_c, 3, 64, 0
5, 51104, Note_on_c, 3, 59, 10
5, 51166, Note_on_c, 3, 59, 0
5, 51168, Note_on_c, 3, 67, 10
5, 51230, Note_on_c, 3, 67, 0
5, 51232, Note_on_c, 3, 63, 10
5, 51294, Note_on_c, 3, 63, 0
5, 51296, Note_on_c, 3, 60, 10
5, 51358, Note_on_c, 3, 60, 0
5, 51360, Note_on_c, 3, 67, 10
5, 51422, Note_on_c, 3, 67, 0
5, 51424, Note_on_c, 3, 64, 10
5, 51486, Note_on_c, 3, 64, 0
5, 51488, Note_on_c, 3, 59, 10
5, 51550, Note_on_c, 3, 59, 0
5, 51552, Note_on_c, 3, 67, 10
5, 51614, Note_on_c, 3, 67, 0
5, 51616, Note_on_c, 3, 63, 10
5, 51678, Note_on_c, 3, 63, 0
5, 51680, Note_on_c, 3, 60, 10
5, 51742, Note_on_c, 3, 60, 0
5, 51744, Note_on_c, 3, 67, 10
5, 51806, Note_on_c, 3, 67, 0
5, 51808, Note_on_c, 3, 64, 10
5, 51870, Note_on_c, 3, 64, 0
5, 51872, Note_on_c, 3, 59, 10
5, 51934, Note_on_c, 3, 59, 0
5, 51936, Note_on_c, 3, 67, 10
5, 51998, Note_on_c, 3, 67, 0
5, 52000, Note_on_c, 3, 63, 10
5, 52062, Note_on_c, 3, 63, 0
5, 52064, Note_on_c, 3, 60, 10
5, 52126, Note_on_c, 3, 60, 0
5, 52128, Note_on_c, 3, 67, 10
5, 52190, Note_on_c, 3, 67, 0
5, 52192, Note_on_c, 3, 64, 10
5, 52254, Note_on_c, 3, 64, 0
5, 52256, Note_on_c, 3, 59, 10
5, 52318, Note_on_c, 3, 59, 0
5, 52320, Note_on_c, 3, 66, 10
5, 52382, Note_on_c, 3, 66, 0
5, 52384, Note_on_c, 3, 62, 10
5, 52446, Note_on_c, 3, 62, 0
5, 52448, Note_on_c, 3, 59, 10
5, 52510, Note_on_c, 3, 59, 0
5, 52512, Note_on_c, 3, 67, 10
5, 52574, Note_on_c, 3, 67, 0
5, 52576, Note_on_c, 3, 61, 10
5, 52638, Note_on_c, 3, 61, 0
5, 52640, Note_on_c, 3, 59, 10
5, 52702, Note_on_c, 3, 59, 0
5, 52704, Note_on_c, 3, 66, 10
5, 52766, Note_on_c, 3, 66, 0
5, 52768, Note_on_c, 3, 62, 10
5, 52830, Note_on_c, 3, 62, 0
5, 52832, Note_on_c, 3, 59, 10
5, 52894, Note_on_c, 3, 59, 0
5, 52896, Note_on_c, 3, 65, 10
5, 52958, Note_on_c, 3, 65, 0
5, 52960, Note_on_c, 3, 61, 10
5, 53022, Note_on_c, 3, 61, 0
5, 53024, Note_on_c, 3, 59, 10
5, 53086, Note_on_c, 3, 59, 0
5, 53088, Note_on_c, 3, 66, 10
5, 53150, Note_on_c, 3, 66, 0
5, 53152, Note_on_c, 3, 62, 10
5, 53214, Note_on_c, 3, 62, 0
5, 53216, Note_on_c, 3, 59, 10
5, 53278, Note_on_c, 3, 59, 0
5, 53280, Note_on_c, 3, 67, 10
5, 53342, Note_on_c, 3, 67, 0
5, 53344, Note_on_c, 3, 61, 10
5, 53406, Note_on_c, 3, 61, 0
5, 53408, Note_on_c, 3, 59, 10
5, 53470, Note_on_c, 3, 59, 0
5, 53472, Note_on_c, 3, 66, 10
5, 53534, Note_on_c, 3, 66, 0
5, 53536, Note_on_c, 3, 62, 10
5, 53598, Note_on_c, 3, 62, 0
5, 53600, Note_on_c, 3, 59, 10
5, 53662, Note_on_c, 3, 59, 0
5, 53664, Note_on_c, 3, 65, 10
5, 53726, Note_on_c, 3, 65, 0
5, 53728, Note_on_c, 3, 61, 10
5, 53790, Note_on_c, 3, 61, 0
5, 53792, Note_on_c, 3, 59, 10
5, 53854, Note_on_c, 3, 59, 0
5, 53856, Note_on_c, 3, 66, 10
5, 53918, Note_on_c, 3, 66, 0
5, 53920, Note_on_c, 3, 62, 10
5, 53982, Note_on_c, 3, 62, 0
5, 53984, Note_on_c, 3, 59, 10
5, 54046, Note_on_c, 3, 59, 0
5, 54048, Note_on_c, 3, 67, 10
5, 54110, Note_on_c, 3, 67, 0
5, 54112, Note_on_c, 3, 61, 10
5, 54174, Note_on_c, 3, 61, 0
5, 54176, Note_on_c, 3, 59, 10
5, 54238, Note_on_c, 3, 59, 0
5, 54240, Note_on_c, 3, 66, 10
5, 54302, Note_on_c, 3, 66, 0
5, 54304, Note_on_c, 3, 62, 10
5, 54366, Note_on_c, 3, 62, 0
5, 54368, Note_on_c, 3, 59, 10
5, 54430, Note_on_c, 3, 59, 0
5, 54432, Note_on_c, 3, 65, 10
5, 54494, Note_on_c, 3, 65, 0
5, 54496, Note_on_c, 3, 61, 10
5, 54558, Note_on_c, 3, 61, 0
5, 54560, Note_on_c, 3, 59, 10
5, 54622, Note_on_c, 3, 59, 0
5, 54624, Note_on_c, 3, 66, 10
5, 54686, Note_on_c, 3, 66, 0
5, 54688, Note_on_c, 3, 62, 10
5, 54750, Note_on_c, 3, 62, 0
5, 54752, Note_on_c, 3, 59, 10
5, 54814, Note_on_c, 3, 59, 0
5, 54816, Note_on_c, 3, 67, 10
5, 54878, Note_on_c, 3, 67, 0
5, 54880, Note_on_c, 3, 61, 10
5, 54942, Note_on_c, 3, 61, 0
5, 54944, Note_on_c, 3, 59, 10
5, 55006, Note_on_c, 3, 59, 0
5, 55008, Note_on_c, 3, 66, 10
5, 55070, Note_on_c, 3, 66, 0
5, 55072, Note_on_c, 3, 62, 10
5, 55134, Note_on_c, 3, 62, 0
5, 55136, Note_on_c, 3, 59, 10
5, 55198, Note_on_c, 3, 59, 0
5, 55200, Note_on_c, 3, 65, 10
5, 55262, Note_on_c, 3, 65, 0
5, 55264, Note_on_c, 3, 61, 10
5, 55326, Note_on_c, 3, 61, 0
5, 55328, Note_on_c, 3, 59, 10
5, 55390, Note_on_c, 3, 59, 0
5, 55392, Note_on_c, 3, 67, 10
5, 55454, Note_on_c, 3, 67, 0
5, 55456, Note_on_c, 3, 63, 10
5, 55518, Note_on_c, 3, 63, 0
5, 55520, Note_on_c, 3, 60, 10
5, 55582, Note_on_c, 3, 60, 0
5, 55584, Note_on_c, 3, 67, 10
5, 55646, Note_on_c, 3, 67, 0
5, 55648, Note_on_c, 3, 64, 10
5, 55710, Note_on_c, 3, 64, 0
5, 55712, Note_on_c, 3, 59, 10
5, 55774, Note_on_c, 3, 59, 0
5, 55776, Note_on_c, 3, 67, 10
5, 55838, Note_on_c, 3, 67, 0
5, 55840, Note_on_c, 3, 63, 10
5, 55902, Note_on_c, 3, 63, 0
5, 55904, Note_on_c, 3, 60, 10
5, 55966, Note_on_c, 3, 60, 0
5, 55968, Note_on_c, 3, 67, 10
5, 56030, Note_on_c, 3, 67, 0
5, 56032, Note_on_c, 3, 64, 10
5, 56094, Note_on_c, 3, 64, 0
5, 56096, Note_on_c, 3, 59, 10
5, 56158, Note_on_c, 3, 59, 0
5, 56160, Note_on_c, 3, 67, 10
5, 56222, Note_on_c, 3, 67, 0
5, 56224, Note_on_c, 3, 63, 10
5, 56286, Note_on_c, 3, 63, 0
5, 56288, Note_on_c, 3, 60, 10
5, 56350, Note_on_c, 3, 60, 0
5, 56352, Note_on_c, 3, 67, 10
5, 56414, Note_on_c, 3, 67, 0
5, 56416, Note_on_c, 3, 64, 10
5, 56478, Note_on_c, 3, 64, 0
5, 56480, Note_on_c, 3, 59, 10
5, 56542, Note_on_c, 3, 59, 0
5, 56544, Note_on_c, 3, 67, 10
5, 56606, Note_on_c, 3, 67, 0
5, 56608, Note_on_c, 3, 63, 10
5, 56670, Note_on_c, 3, 63, 0
5, 56672, Note_on_c, 3, 60, 10
5, 56734, Note_on_c, 3, 60, 0
5, 56736, Note_on_c, 3, 67, 10
5, 56798, Note_on_c, 3, 67, 0
5, 56800, Note_on_c, 3, 64, 10
5, 56862, Note_on_c, 3, 64, 0
5, 56864, Note_on_c, 3, 59, 10
5, 56926, Note_on_c, 3, 59, 0
5, 56928, Note_on_c, 3, 67, 10
5, 56990, Note_on_c, 3, 67, 0
5, 56992, Note_on_c, 3, 63, 10
5, 57054, Note_on_c, 3, 63, 0
5, 57056, Note_on_c, 3, 60, 10
5, 57118, Note_on_c, 3, 60, 0
5, 57120, Note_on_c, 3, 67, 10
5, 57182, Note_on_c, 3, 67, 0
5, 57184, Note_on_c, 3, 64, 10
5, 57246, Note_on_c, 3, 64, 0
5, 57248, Note_on_c, 3, 59, 10
5, 57310, Note_on_c, 3, 59, 0
5, 57312, Note_on_c, 3, 67, 10
5, 57374, Note_on_c, 3, 67, 0
5, 57376, Note_on_c, 3, 63, 10
5, 57438, Note_on_c, 3, 63, 0
5, 57440, Note_on_c, 3, 60, 10
5, 57502, Note_on_c, 3, 60, 0
5, 57504, Note_on_c, 3, 67, 10
5, 57566, Note_on_c, 3, 67, 0
5, 57568, Note_on_c, 3, 64, 10
5, 57630, Note_on_c, 3, 64, 0
5, 57632, Note_on_c, 3, 59, 10
5, 57694, Note_on_c, 3, 59, 0
5, 57696, Note_on_c, 3, 67, 10
5, 57758, Note_on_c, 3, 67, 0
5, 57760, Note_on_c, 3, 63, 10
5, 57822, Note_on_c, 3, 63, 0
5, 57824, Note_on_c, 3, 60, 10
5, 57886, Note_on_c, 3, 60, 0
5, 57888, Note_on_c, 3, 67, 10
5, 57950, Note_on_c, 3, 67, 0
5, 57952, Note_on_c, 3, 64, 10
5, 58014, Note_on_c, 3, 64, 0
5, 58016, Note_on_c, 3, 59, 10
5, 58078, Note_on_c, 3, 59, 0
5, 58080, Note_on_c, 3, 67, 10
5, 58142, Note_on_c, 3, 67, 0
5, 58144, Note_on_c, 3, 63, 10
5, 58206, Note_on_c, 3, 63, 0
5, 58208, Note_on_c, 3, 60, 10
5, 58270, Note_on_c, 3, 60, 0
5, 58272, Note_on_c, 3, 67, 10
5, 58334, Note_on_c, 3, 67, 0
5, 58336, Note_on_c, 3, 64, 10
5, 58398, Note_on_c, 3, 64, 0
5, 58400, Note_on_c, 3, 59, 10
5, 58462, Note_on_c, 3, 59, 0
5, 58464, Note_on_c, 3, 66, 10
5, 58526, Note_on_c, 3, 66, 0
5, 58528, Note_on_c, 3, 62, 10
5, 58590, Note_on_c, 3, 62, 0
5, 58592, Note_on_c, 3, 59, 10
5, 58654, Note_on_c, 3, 59, 0
5, 58656, Note_on_c, 3, 67, 10
5, 58718, Note_on_c, 3, 67, 0
5, 58720, Note_on_c, 3, 61, 10
5, 58782, Note_on_c, 3, 61, 0
5, 58784, Note_on_c, 3, 59, 10
5, 58846, Note_on_c, 3, 59, 0
5, 58848, Note_on_c, 3, 66, 10
5, 58910, Note_on_c, 3, 66, 0
5, 58912, Note_on_c, 3, 62, 10
5, 58974, Note_on_c, 3, 62, 0
5, 58976, Note_on_c, 3, 59, 10
5, 59038, Note_on_c, 3, 59, 0
5, 59040, Note_on_c, 3, 65, 10
5, 59102, Note_on_c, 3, 65, 0
5, 59104, Note_on_c, 3, 61, 10
5, 59166, Note_on_c, 3, 61, 0
5, 59168, Note_on_c, 3, 59, 10
5, 59230, Note_on_c, 3, 59, 0
5, 59232, Note_on_c, 3, 66, 10
5, 59294, Note_on_c, 3, 66, 0
5, 59296, Note_on_c, 3, 62, 10
5, 59358, Note_on_c, 3, 62, 0
5, 59360, Note_on_c, 3, 59, 10
5, 59422, Note_on_c, 3, 59, 0
5, 59424, Note_on_c, 3, 67, 10
5, 59486, Note_on_c, 3, 67, 0
5, 59488, Note_on_c, 3, 61, 10
5, 59550, Note_on_c, 3, 61, 0
5, 59552, Note_on_c, 3, 59, 10
5, 59614, Note_on_c, 3, 59, 0
5, 59616, Note_on_c, 3, 66, 10
5, 59678, Note_on_c, 3, 66, 0
5, 59680, Note_on_c, 3, 62, 10
5, 59742, Note_on_c, 3, 62, 0
5, 59744, Note_on_c, 3, 59, 10
5, 59806, Note_on_c, 3, 59, 0
5, 59808, Note_on_c, 3, 65, 10
5, 59870, Note_on_c, 3, 65, 0
5, 59872, Note_on_c, 3, 61, 10
5, 59934, Note_on_c, 3, 61, 0
5, 59936, Note_on_c, 3, 59, 10
5, 59998, Note_on_c, 3, 59, 0
5, 60000, Note_on_c, 3, 66, 10
5, 60062, Note_on_c, 3, 66, 0
5, 60064, Note_on_c, 3, 62, 10
5, 60126, Note_on_c, 3, 62, 0
5, 60128, Note_on_c, 3, 59, 10
5, 60190, Note_on_c, 3, 59, 0
5, 60192, Note_on_c, 3, 67, 10
5, 60254, Note_on_c, 3, 67, 0
5, 60256, Note_on_c, 3, 61, 10
5, 60318, Note_on_c, 3, 61, 0
5, 60320, Note_on_c, 3, 59, 10
5, 60382, Note_on_c, 3, 59, 0
5, 60384, Note_on_c, 3, 66, 10
5, 60446, Note_on_c, 3, 66, 0
5, 60448, Note_on_c, 3, 62, 10
5, 60510, Note_on_c, 3, 62, 0
5, 60512, Note_on_c, 3, 59, 10
5, 60574, Note_on_c, 3, 59, 0
5, 60576, Note_on_c, 3, 65, 10
5, 60638, Note_on_c, 3, 65, 0
5, 60640, Note_on_c, 3, 61, 10
5, 60702, Note_on_c, 3, 61, 0
5, 60704, Note_on_c, 3, 59, 10
5, 60766, Note_on_c, 3, 59, 0
5, 60768, Note_on_c, 3, 66, 10
5, 60830, Note_on_c, 3, 66, 0
5, 60832, Note_on_c, 3, 62, 10
5, 60894, Note_on_c, 3, 62, 0
5, 60896, Note_on_c, 3, 59, 10
5, 60958, Note_on_c, 3, 59, 0
5, 60960, Note_on_c, 3, 67, 10
5, 61022, Note_on_c, 3, 67, 0
5, 61024, Note_on_c, 3, 61, 10
5, 61086, Note_on_c, 3, 61, 0
5, 61088, Note_on_c, 3, 59, 10
5, 61150, Note_on_c, 3, 59, 0
5, 61152, Note_on_c, 3, 66, 10
5, 61214, Note_on_c, 3, 66, 0
5, 61216, Note_on_c, 3, 62, 10
5, 61278, Note_on_c, 3, 62, 0
5, 61280, Note_on_c, 3, 59, 10
5, 61342, Note_on_c, 3, 59, 0
5, 61344, Note_on_c, 3, 65, 10
5, 61406, Note_on_c, 3, 65, 0
5, 61408, Note_on_c, 3, 61, 10
5, 61470, Note_on_c, 3, 61, 0
5, 61472, Note_on_c, 3, 59, 10
5, 61534, Note_on_c, 3, 59, 0
5, 61536, Note_on_c, 3, 67, 10
5, 61598, Note_on_c, 3, 67, 0
5, 61600, Note_on_c, 3, 63, 10
5, 61662, Note_on_c, 3, 63, 0
5, 61664, Note_on_c, 3, 60, 10
5, 61726, Note_on_c, 3, 60, 0
5, 61728, Note_on_c, 3, 67, 10
5, 61790, Note_on_c, 3, 67, 0
5, 61792, Note_on_c, 3, 64, 10
5, 61854, Note_on_c, 3, 64, 0
5, 61856, Note_on_c, 3, 59, 10
5, 61918, Note_on_c, 3, 59, 0
5, 61920, Note_on_c, 3, 67, 10
5, 61982, Note_on_c, 3, 67, 0
5, 61984, Note_on_c, 3, 63, 10
5, 62046, Note_on_c, 3, 63, 0
5, 62048, Note_on_c, 3, 60, 10
5, 62110, Note_on_c, 3, 60, 0
5, 62112, Note_on_c, 3, 67, 10
5, 62174, Note_on_c, 3, 67, 0
5, 62176, Note_on_c, 3, 64, 10
5, 62238, Note_on_c, 3, 64, 0
5, 62240, Note_on_c, 3, 59, 10
5, 62302, Note_on_c, 3, 59, 0
5, 62304, Note_on_c, 3, 67, 10
5, 62366, Note_on_c, 3, 67, 0
5, 62368, Note_on_c, 3, 63, 10
5, 62430, Note_on_c, 3, 63, 0
5, 62432, Note_on_c, 3, 60, 10
5, 62494, Note_on_c, 3, 60, 0
5, 62496, Note_on_c, 3, 67, 10
5, 62558, Note_on_c, 3, 67, 0
5, 62560, Note_on_c, 3, 64, 10
5, 62622, Note_on_c, 3, 64, 0
5, 62624, Note_on_c, 3, 59, 10
5, 62686, Note_on_c, 3, 59, 0
5, 62688, Note_on_c, 3, 67, 10
5, 62750, Note_on_c, 3, 67, 0
5, 62752, Note_on_c, 3, 63, 10
5, 62814, Note_on_c, 3, 63, 0
5, 62816, Note_on_c, 3, 60, 10
5, 62878, Note_on_c, 3, 60, 0
5, 62880, Note_on_c, 3, 67, 10
5, 62942, Note_on_c, 3, 67, 0
5, 62944, Note_on_c, 3, 64, 10
5, 63006, Note_on_c, 3, 64, 0
5, 63008, Note_on_c, 3, 59, 10
5, 63070, Note_on_c, 3, 59, 0
5, 63072, Note_on_c, 3, 67, 10
5, 63134, Note_on_c, 3, 67, 0
5, 63136, Note_on_c, 3, 63, 10
5, 63198, Note_on_c, 3, 63, 0
5, 63200, Note_on_c, 3, 60, 10
5, 63262, Note_on_c, 3, 60, 0
5, 63264, Note_on_c, 3, 67, 10
5, 63326, Note_on_c, 3, 67, 0
5, 63328, Note_on_c, 3, 64, 10
5, 63390, Note_on_c, 3, 64, 0
5, 63392, Note_on_c, 3, 59, 10
5, 63454, Note_on_c, 3, 59, 0
5, 63456, Note_on_c, 3, 67, 10
5, 63518, Note_on_c, 3, 67, 0
5, 63520, Note_on_c, 3, 63, 10
5, 63582, Note_on_c, 3, 63, 0
5, 63584, Note_on_c, 3, 60, 10
5, 63646, Note_on_c, 3, 60, 0
5, 63648, Note_on_c, 3, 67, 10
5, 63710, Note_on_c, 3, 67, 0
5, 63712, Note_on_c, 3, 64, 10
5, 63774, Note_on_c, 3, 64, 0
5, 63776, Note_on_c, 3, 59, 10
5, 63838, Note_on_c, 3, 59, 0
5, 63840, Note_on_c, 3, 67, 10
5, 63902, Note_on_c, 3, 67, 0
5, 63904, Note_on_c, 3, 63, 10
5, 63966, Note_on_c, 3, 63, 0
5, 63968, Note_on_c, 3, 60, 10
5, 64030, Note_on_c, 3, 60, 0
5, 64032, Note_on_c, 3, 67, 10
5, 64094, Note_on_c, 3, 67, 0
5, 64096, Note_on_c, 3, 64, 10
5, 64158, Note_on_c, 3, 64, 0
5, 64160, Note_on_c, 3, 59, 10
5, 64222, Note_on_c, 3, 59, 0
5, 64224, Note_on_c, 3, 67, 10
5, 64286, Note_on_c, 3, 67, 0
5, 64288, Note_on_c, 3, 63, 10
5, 64350, Note_on_c, 3, 63, 0
5, 64352, Note_on_c, 3, 60, 10
5, 64414, Note_on_c, 3, 60, 0
5, 64416, Note_on_c, 3, 67, 10
5, 64478, Note_on_c, 3, 67, 0
5, 64480, Note_on_c, 3, 64, 10
5, 64542, Note_on_c, 3, 64, 0
5, 64544, Note_on_c, 3, 59, 10
5, 64606, Note_on_c, 3, 59, 0
5, 64608, Note_on_c, 3, 66, 10
5, 64670, Note_on_c, 3, 66, 0
5, 64672, Note_on_c, 3, 62, 10
5, 64734, Note_on_c, 3, 62, 0
5, 64736, Note_on_c, 3, 59, 10
5, 64798, Note_on_c, 3, 59, 0
5, 64800, Note_on_c, 3, 67, 10
5, 64862, Note_on_c, 3, 67, 0
5, 64864, Note_on_c, 3, 61, 10
5, 64926, Note_on_c, 3, 61, 0
5, 64928, Note_on_c, 3, 59, 10
5, 64990, Note_on_c, 3, 59, 0
5, 64992, Note_on_c, 3, 66, 10
5, 65054, Note_on_c, 3, 66, 0
5, 65056, Note_on_c, 3, 62, 10
5, 65118, Note_on_c, 3, 62, 0
5, 65120, Note_on_c, 3, 59, 10
5, 65182, Note_on_c, 3, 59, 0
5, 65184, Note_on_c, 3, 65, 10
5, 65246, Note_on_c, 3, 65, 0
5, 65248, Note_on_c, 3, 61, 10
5, 65310, Note_on_c, 3, 61, 0
5, 65312, Note_on_c, 3, 59, 10
5, 65374, Note_on_c, 3, 59, 0
5, 65376, Note_on_c, 3, 66, 10
5, 65438, Note_on_c, 3, 66, 0
5, 65440, Note_on_c, 3, 62, 10
5, 65502, Note_on_c, 3, 62, 0
5, 65504, Note_on_c, 3, 59, 10
5, 65566, Note_on_c, 3, 59, 0
5, 65568, Note_on_c, 3, 67, 10
5, 65630, Note_on_c, 3, 67, 0
5, 65632, Note_on_c, 3, 61, 10
5, 65694, Note_on_c, 3, 61, 0
5, 65696, Note_on_c, 3, 59, 10
5, 65758, Note_on_c, 3, 59, 0
5, 65760, Note_on_c, 3, 66, 10
5, 65822, Note_on_c, 3, 66, 0
5, 65824, Note_on_c, 3, 62, 10
5, 65886, Note_on_c, 3, 62, 0
5, 65888, Note_on_c, 3, 59, 10
5, 65950, Note_on_c, 3, 59, 0
5, 65952, Note_on_c, 3, 65, 10
5, 66014, Note_on_c, 3, 65, 0
5, 66016, Note_on_c, 3, 61, 10
5, 66078, Note_on_c, 3, 61, 0
5, 66080, Note_on_c, 3, 59, 10
5, 66142, Note_on_c, 3, 59, 0
5, 66144, Note_on_c, 3, 66, 10
5, 66206, Note_on_c, 3, 66, 0
5, 66208, Note_on_c, 3, 62, 10
5, 66270, Note_on_c, 3, 62, 0
5, 66272, Note_on_c, 3, 59, 10
5, 66334, Note_on_c, 3, 59, 0
5, 66336, Note_on_c, 3, 67, 10
5, 66398, Note_on_c, 3, 67, 0
5, 66400, Note_on_c, 3, 61, 10
5, 66462, Note_on_c, 3, 61, 0
5, 66464, Note_on_c, 3, 59, 10
5, 66526, Note_on_c, 3, 59, 0
5, 66528, Note_on_c, 3, 66, 10
5, 66590, Note_on_c, 3, 66, 0
5, 66592, Note_on_c, 3, 62, 10
5, 66654, Note_on_c, 3, 62, 0
5, 66656, Note_on_c, 3, 59, 10
5, 66718, Note_on_c, 3, 59, 0
5, 66720, Note_on_c, 3, 65, 10
5, 66782, Note_on_c, 3, 65, 0
5, 66784, Note_on_c, 3, 61, 10
5, 66846, Note_on_c, 3, 61, 0
5, 66848, Note_on_c, 3, 59, 10
5, 66910, Note_on_c, 3, 59, 0
5, 66912, Note_on_c, 3, 66, 10
5, 66974, Note_on_c, 3, 66, 0
5, 66976, Note_on_c, 3, 62, 10
5, 67038, Note_on_c, 3, 62, 0
5, 67040, Note_on_c, 3, 59, 10
5, 67102, Note_on_c, 3, 59, 0
5, 67104, Note_on_c, 3, 67, 10
5, 67166, Note_on_c, 3, 67, 0
5, 67168, Note_on_c, 3, 61, 10
5, 67230, Note_on_c, 3, 61, 0
5, 67232, Note_on_c, 3, 59, 10
5, 67294, Note_on_c, 3, 59, 0
5, 67296, Note_on_c, 3, 66, 10
5, 67358, Note_on_c, 3, 66, 0
5, 67360, Note_on_c, 3, 62, 10
5, 67422, Note_on_c, 3, 62, 0
5, 67424, Note_on_c, 3, 59, 10
5, 67486, Note_on_c, 3, 59, 0
5, 67488, Note_on_c, 3, 65, 10
5, 67550, Note_on_c, 3, 65, 0
5, 67552, Note_on_c, 3, 61, 10
5, 67614, Note_on_c, 3, 61, 0
5, 67616, Note_on_c, 3, 59, 10
5, 67678, Note_on_c, 3, 59, 0
5, 67680, Note_on_c, 3, 64, 10
5, 67742, Note_on_c, 3, 64, 0
5, 67744, Note_on_c, 3, 60, 10
5, 67806, Note_on_c, 3, 60, 0
5, 67808, Note_on_c, 3, 57, 10
5, 67870, Note_on_c, 3, 57, 0
5, 67872, Note_on_c, 3, 64, 10
5, 67934, Note_on_c, 3, 64, 0
5, 67936, Note_on_c, 3, 61, 10
5, 67998, Note_on_c, 3, 61, 0
5, 68000, Note_on_c, 3, 56, 10
5, 68062, Note_on_c, 3, 56, 0
5, 68064, Note_on_c, 3, 64, 10
5, 68126, Note_on_c, 3, 64, 0
5, 68128, Note_on_c, 3, 60, 10
5, 68190, Note_on_c, 3, 60, 0
5, 68192, Note_on_c, 3, 57, 10
5, 68254, Note_on_c, 3, 57, 0
5, 68256, Note_on_c, 3, 64, 10
5, 68318, Note_on_c, 3, 64, 0
5, 68320, Note_on_c, 3, 61, 10
5, 68382, Note_on_c, 3, 61, 0
5, 68384, Note_on_c, 3, 56, 10
5, 68446, Note_on_c, 3, 56, 0
5, 68448, Note_on_c, 3, 64, 10
5, 68510, Note_on_c, 3, 64, 0
5, 68512, Note_on_c, 3, 60, 10
5, 68574, Note_on_c, 3, 60, 0
5, 68576, Note_on_c, 3, 57, 10
5, 68638, Note_on_c, 3, 57, 0
5, 68640, Note_on_c, 3, 64, 10
5, 68702, Note_on_c, 3, 64, 0
5, 68704, Note_on_c, 3, 61, 10
5, 68766, Note_on_c, 3, 61, 0
5, 68768, Note_on_c, 3, 56, 10
5, 68830, Note_on_c, 3, 56, 0
5, 68832, Note_on_c, 3, 64, 10
5, 68894, Note_on_c, 3, 64, 0
5, 68896, Note_on_c, 3, 60, 10
5, 68958, Note_on_c, 3, 60, 0
5, 68960, Note_on_c, 3, 57, 10
5, 69022, Note_on_c, 3, 57, 0
5, 69024, Note_on_c, 3, 64, 10
5, 69086, Note_on_c, 3, 64, 0
5, 69088, Note_on_c, 3, 61, 10
5, 69150, Note_on_c, 3, 61, 0
5, 69152, Note_on_c, 3, 56, 10
5, 69214, Note_on_c, 3, 56, 0
5, 69216, Note_on_c, 3, 64, 10
5, 69278, Note_on_c, 3, 64, 0
5, 69280, Note_on_c, 3, 60, 10
5, 69342, Note_on_c, 3, 60, 0
5, 69344, Note_on_c, 3, 57, 10
5, 69406, Note_on_c, 3, 57, 0
5, 69408, Note_on_c, 3, 64, 10
5, 69470, Note_on_c, 3, 64, 0
5, 69472, Note_on_c, 3, 61, 10
5, 69534, Note_on_c, 3, 61, 0
5, 69536, Note_on_c, 3, 56, 10
5, 69598, Note_on_c, 3, 56, 0
5, 69600, Note_on_c, 3, 64, 10
5, 69662, Note_on_c, 3, 64, 0
5, 69664, Note_on_c, 3, 60, 10
5, 69726, Note_on_c, 3, 60, 0
5, 69728, Note_on_c, 3, 57, 10
5, 69790, Note_on_c, 3, 57, 0
5, 69792, Note_on_c, 3, 64, 10
5, 69854, Note_on_c, 3, 64, 0
5, 69856, Note_on_c, 3, 61, 10
5, 69918, Note_on_c, 3, 61, 0
5, 69920, Note_on_c, 3, 56, 10
5, 69982, Note_on_c, 3, 56, 0
5, 69984, Note_on_c, 3, 64, 10
5, 70046, Note_on_c, 3, 64, 0
5, 70048, Note_on_c, 3, 60, 10
5, 70110, Note_on_c, 3, 60, 0
5, 70112, Note_on_c, 3, 57, 10
5, 70174, Note_on_c, 3, 57, 0
5, 70176, Note_on_c, 3, 64, 10
5, 70238, Note_on_c, 3, 64, 0
5, 70240, Note_on_c, 3, 61, 10
5, 70302, Note_on_c, 3, 61, 0
5, 70304, Note_on_c, 3, 56, 10
5, 70366, Note_on_c, 3, 56, 0
5, 70368, Note_on_c, 3, 64, 10
5, 70430, Note_on_c, 3, 64, 0
5, 70432, Note_on_c, 3, 60, 10
5, 70494, Note_on_c, 3, 60, 0
5, 70496, Note_on_c, 3, 57, 10
5, 70558, Note_on_c, 3, 57, 0
5, 70560, Note_on_c, 3, 64, 10
5, 70622, Note_on_c, 3, 64, 0
5, 70624, Note_on_c, 3, 61, 10
5, 70686, Note_on_c, 3, 61, 0
5, 70688, Note_on_c, 3, 56, 10
5, 70750, Note_on_c, 3, 56, 0
5, 70752, Note_on_c, 3, 63, 10
5, 70814, Note_on_c, 3, 63, 0
5, 70816, Note_on_c, 3, 59, 10
5, 70878, Note_on_c, 3, 59, 0
5, 70880, Note_on_c, 3, 56, 10
5, 70942, Note_on_c, 3, 56, 0
5, 70944, Note_on_c, 3, 64, 10
5, 71006, Note_on_c, 3, 64, 0
5, 71008, Note_on_c, 3, 58, 10
5, 71070, Note_on_c, 3, 58, 0
5, 71072, Note_on_c, 3, 56, 10
5, 71134, Note_on_c, 3, 56, 0
5, 71136, Note_on_c, 3, 63, 10
5, 71198, Note_on_c, 3, 63, 0
5, 71200, Note_on_c, 3, 59, 10
5, 71262, Note_on_c, 3, 59, 0
5, 71264, Note_on_c, 3, 56, 10
5, 71326, Note_on_c, 3, 56, 0
5, 71328, Note_on_c, 3, 62, 10
5, 71390, Note_on_c, 3, 62, 0
5, 71392, Note_on_c, 3, 58, 10
5, 71454, Note_on_c, 3, 58, 0
5, 71456, Note_on_c, 3, 56, 10
5, 71518, Note_on_c, 3, 56, 0
5, 71520, Note_on_c, 3, 63, 10
5, 71582, Note_on_c, 3, 63, 0
5, 71584, Note_on_c, 3, 59, 10
5, 71646, Note_on_c, 3, 59, 0
5, 71648, Note_on_c, 3, 56, 10
5, 71710, Note_on_c, 3, 56, 0
5, 71712, Note_on_c, 3, 64, 10
5, 71774, Note_on_c, 3, 64, 0
5, 71776, Note_on_c, 3, 58, 10
5, 71838, Note_on_c, 3, 58, 0
5, 71840, Note_on_c, 3, 56, 10
5, 71902, Note_on_c, 3, 56, 0
5, 71904, Note_on_c, 3, 63, 10
5, 71966, Note_on_c, 3, 63, 0
5, 71968, Note_on_c, 3, 59, 10
5, 72030, Note_on_c, 3, 59, 0
5, 72032, Note_on_c, 3, 56, 10
5, 72094, Note_on_c, 3, 56, 0
5, 72096, Note_on_c, 3, 62, 10
5, 72158, Note_on_c, 3, 62, 0
5, 72160, Note_on_c, 3, 58, 10
5, 72222, Note_on_c, 3, 58, 0
5, 72224, Note_on_c, 3, 56, 10
5, 72286, Note_on_c, 3, 56, 0
5, 72288, Note_on_c, 3, 63, 10
5, 72350, Note_on_c, 3, 63, 0
5, 72352, Note_on_c, 3, 59, 10
5, 72414, Note_on_c, 3, 59, 0
5, 72416, Note_on_c, 3, 56, 10
5, 72478, Note_on_c, 3, 56, 0
5, 72480, Note_on_c, 3, 64, 10
5, 72542, Note_on_c, 3, 64, 0
5, 72544, Note_on_c, 3, 58, 10
5, 72606, Note_on_c, 3, 58, 0
5, 72608, Note_on_c, 3, 56, 10
5, 72670, Note_on_c, 3, 56, 0
5, 72672, Note_on_c, 3, 63, 10
5, 72734, Note_on_c, 3, 63, 0
5, 72736, Note_on_c, 3, 59, 10
5, 72798, Note_on_c, 3, 59, 0
5, 72800, Note_on_c, 3, 56, 10
5, 72862, Note_on_c, 3, 56, 0
5, 72864, Note_on_c, 3, 62, 10
5, 72926, Note_on_c, 3, 62, 0
5, 72928, Note_on_c, 3, 58, 10
5, 72990, Note_on_c, 3, 58, 0
5, 72992, Note_on_c, 3, 56, 10
5, 73054, Note_on_c, 3, 56, 0
5, 73056, Note_on_c, 3, 63, 10
5, 73118, Note_on_c, 3, 63, 0
5, 73120, Note_on_c, 3, 59, 10
5, 73182, Note_on_c, 3, 59, 0
5, 73184, Note_on_c, 3, 56, 10
5, 73246, Note_on_c, 3, 56, 0
5, 73248, Note_on_c, 3, 64, 10
5, 73310, Note_on_c, 3, 64, 0
5, 73312, Note_on_c, 3, 58, 10
5, 73374, Note_on_c, 3, 58, 0
5, 73376, Note_on_c, 3, 56, 10
5, 73438, Note_on_c, 3, 56, 0
5, 73440, Note_on_c, 3, 63, 10
5, 73502, Note_on_c, 3, 63, 0
5, 73504, Note_on_c, 3, 59, 10
5, 73566, Note_on_c, 3, 59, 0
5, 73568, Note_on_c, 3, 56, 10
5, 73630, Note_on_c, 3, 56, 0
5, 73632, Note_on_c, 3, 62, 10
5, 73694, Note_on_c, 3, 62, 0
5, 73696, Note_on_c, 3, 58, 10
5, 73758, Note_on_c, 3, 58, 0
5, 73760, Note_on_c, 3, 56, 10
5, 73822, Note_on_c, 3, 56, 0
5, 73824, Note_on_c, 3, 62, 10
5, 73886, Note_on_c, 3, 62, 0
5, 73888, Note_on_c, 3, 58, 10
5, 73950, Note_on_c, 3, 58, 0
5, 73952, Note_on_c, 3, 55, 10
5, 74014, Note_on_c, 3, 55, 0
5, 74016, Note_on_c, 3, 62, 10
5, 74078, Note_on_c, 3, 62, 0
5, 74080, Note_on_c, 3, 59, 10
5, 74142, Note_on_c, 3, 59, 0
5, 74144, Note_on_c, 3, 54, 10
5, 74206, Note_on_c, 3, 54, 0
5, 74208, Note_on_c, 3, 62, 10
5, 74270, Note_on_c, 3, 62, 0
5, 74272, Note_on_c, 3, 58, 10
5, 74334, Note_on_c, 3, 58, 0
5, 74336, Note_on_c, 3, 55, 10
5, 74398, Note_on_c, 3, 55, 0
5, 74400, Note_on_c, 3, 62, 10
5, 74462, Note_on_c, 3, 62, 0
5, 74464, Note_on_c, 3, 59, 10
5, 74526, Note_on_c, 3, 59, 0
5, 74528, Note_on_c, 3, 54, 10
5, 74590, Note_on_c, 3, 54, 0
5, 74592, Note_on_c, 3, 62, 10
5, 74654, Note_on_c, 3, 62, 0
5, 74656, Note_on_c, 3, 58, 10
5, 74718, Note_on_c, 3, 58, 0
5, 74720, Note_on_c, 3, 55, 10
5, 74782, Note_on_c, 3, 55, 0
5, 74784, Note_on_c, 3, 62, 10
5, 74846, Note_on_c, 3, 62, 0
5, 74848, Note_on_c, 3, 59, 10
5, 74910, Note_on_c, 3, 59, 0
5, 74912, Note_on_c, 3, 54, 10
5, 74974, Note_on_c, 3, 54, 0
5, 74976, Note_on_c, 3, 62, 10
5, 75038, Note_on_c, 3, 62, 0
5, 75040, Note_on_c, 3, 58, 10
5, 75102, Note_on_c, 3, 58, 0
5, 75104, Note_on_c, 3, 55, 10
5, 75166, Note_on_c, 3, 55, 0
5, 75168, Note_on_c, 3, 62, 10
5, 75230, Note_on_c, 3, 62, 0
5, 75232, Note_on_c, 3, 59, 10
5, 75294, Note_on_c, 3, 59, 0
5, 75296, Note_on_c, 3, 54, 10
5, 75358, Note_on_c, 3, 54, 0
5, 75360, Note_on_c, 3, 62, 10
5, 75422, Note_on_c, 3, 62, 0
5, 75424, Note_on_c, 3, 58, 10
5, 75486, Note_on_c, 3, 58, 0
5, 75488, Note_on_c, 3, 55, 10
5, 75550, Note_on_c, 3, 55, 0
5, 75552, Note_on_c, 3, 62, 10
5, 75614, Note_on_c, 3, 62, 0
5, 75616, Note_on_c, 3, 59, 10
5, 75678, Note_on_c, 3, 59, 0
5, 75680, Note_on_c, 3, 54, 10
5, 75742, Note_on_c, 3, 54, 0
5, 75744, Note_on_c, 3, 62, 10
5, 75806, Note_on_c, 3, 62, 0
5, 75808, Note_on_c, 3, 58, 10
5, 75870, Note_on_c, 3, 58, 0
5, 75872, Note_on_c, 3, 55, 10
5, 75934, Note_on_c, 3, 55, 0
5, 75936, Note_on_c, 3, 62, 10
5, 75998, Note_on_c, 3, 62, 0
5, 76000, Note_on_c, 3, 59, 10
5, 76062, Note_on_c, 3, 59, 0
5, 76064, Note_on_c, 3, 54, 10
5, 76126, Note_on_c, 3, 54, 0
5, 76128, Note_on_c, 3, 62, 10
5, 76190, Note_on_c, 3, 62, 0
5, 76192, Note_on_c, 3, 58, 10
5, 76254, Note_on_c, 3, 58, 0
5, 76256, Note_on_c, 3, 55, 10
5, 76318, Note_on_c, 3, 55, 0
5, 76320, Note_on_c, 3, 62, 10
5, 76382, Note_on_c, 3, 62, 0
5, 76384, Note_on_c, 3, 59, 10
5, 76446, Note_on_c, 3, 59, 0
5, 76448, Note_on_c, 3, 54, 10
5, 76510, Note_on_c, 3, 54, 0
5, 76512, Note_on_c, 3, 62, 10
5, 76574, Note_on_c, 3, 62, 0
5, 76576, Note_on_c, 3, 58, 10
5, 76638, Note_on_c, 3, 58, 0
5, 76640, Note_on_c, 3, 55, 10
5, 76702, Note_on_c, 3, 55, 0
5, 76704, Note_on_c, 3, 62, 10
5, 76766, Note_on_c, 3, 62, 0
5, 76768, Note_on_c, 3, 59, 10
5, 76830, Note_on_c, 3, 59, 0
5, 76832, Note_on_c, 3, 54, 10
5, 76894, Note_on_c, 3, 54, 0
5, 76896, Note_on_c, 3, 61, 10
5, 76958, Note_on_c, 3, 61, 0
5, 76960, Note_on_c, 3, 57, 10
5, 77022, Note_on_c, 3, 57, 0
5, 77024, Note_on_c, 3, 54, 10
5, 77086, Note_on_c, 3, 54, 0
5, 77088, Note_on_c, 3, 62, 10
5, 77150, Note_on_c, 3, 62, 0
5, 77152, Note_on_c, 3, 56, 10
5, 77214, Note_on_c, 3, 56, 0
5, 77216, Note_on_c, 3, 54, 10
5, 77278, Note_on_c, 3, 54, 0
5, 77280, Note_on_c, 3, 61, 10
5, 77342, Note_on_c, 3, 61, 0
5, 77344, Note_on_c, 3, 57, 10
5, 77406, Note_on_c, 3, 57, 0
5, 77408, Note_on_c, 3, 54, 10
5, 77470, Note_on_c, 3, 54, 0
5, 77472, Note_on_c, 3, 60, 10
5, 77534, Note_on_c, 3, 60, 0
5, 77536, Note_on_c, 3, 56, 10
5, 77598, Note_on_c, 3, 56, 0
5, 77600, Note_on_c, 3, 54, 10
5, 77662, Note_on_c, 3, 54, 0
5, 77664, Note_on_c, 3, 61, 10
5, 77726, Note_on_c, 3, 61, 0
5, 77728, Note_on_c, 3, 57, 10
5, 77790, Note_on_c, 3, 57, 0
5, 77792, Note_on_c, 3, 54, 10
5, 77854, Note_on_c, 3, 54, 0
5, 77856, Note_on_c, 3, 62, 10
5, 77918, Note_on_c, 3, 62, 0
5, 77920, Note_on_c, 3, 56, 10
5, 77982, Note_on_c, 3, 56, 0
5, 77984, Note_on_c, 3, 54, 10
5, 78046, Note_on_c, 3, 54, 0
5, 78048, Note_on_c, 3, 61, 10
5, 78110, Note_on_c, 3, 61, 0
5, 78112, Note_on_c, 3, 57, 10
5, 78174, Note_on_c, 3, 57, 0
5, 78176, Note_on_c, 3, 54, 10
5, 78238, Note_on_c, 3, 54, 0
5, 78240, Note_on_c, 3, 60, 10
5, 78302, Note_on_c, 3, 60, 0
5, 78304, Note_on_c, 3, 56, 10
5, 78366, Note_on_c, 3, 56, 0
5, 78368, Note_on_c, 3, 54, 10
5, 78430, Note_on_c, 3, 54, 0
5, 78432, Note_on_c, 3, 61, 10
5, 78494, Note_on_c, 3, 61, 0
5, 78496, Note_on_c, 3, 57, 10
5, 78558, Note_on_c, 3, 57, 0
5, 78560, Note_on_c, 3, 54, 10
5, 78622, Note_on_c, 3, 54, 0
5, 78624, Note_on_c, 3, 62, 10
5, 78686, Note_on_c, 3, 62, 0
5, 78688, Note_on_c, 3, 56, 10
5, 78750, Note_on_c, 3, 56, 0
5, 78752, Note_on_c, 3, 54, 10
5, 78814, Note_on_c, 3, 54, 0
5, 78816, Note_on_c, 3, 61, 10
5, 78878, Note_on_c, 3, 61, 0
5, 78880, Note_on_c, 3, 57, 10
5, 78942, Note_on_c, 3, 57, 0
5, 78944, Note_on_c, 3, 54, 10
5, 79006, Note_on_c, 3, 54, 0
5, 79008, Note_on_c, 3, 60, 10
5, 79070, Note_on_c, 3, 60, 0
5, 79072, Note_on_c, 3, 56, 10
5, 79134, Note_on_c, 3, 56, 0
5, 79136, Note_on_c, 3, 54, 10
5, 79198, Note_on_c, 3, 54, 0
5, 79200, Note_on_c, 3, 61, 10
5, 79262, Note_on_c, 3, 61, 0
5, 79264, Note_on_c, 3, 57, 10
5, 79326, Note_on_c, 3, 57, 0
5, 79328, Note_on_c, 3, 54, 10
5, 79390, Note_on_c, 3, 54, 0
5, 79392, Note_on_c, 3, 62, 10
5, 79454, Note_on_c, 3, 62, 0
5, 79456, Note_on_c, 3, 56, 10
5, 79518, Note_on_c, 3, 56, 0
5, 79520, Note_on_c, 3, 54, 10
5, 79582, Note_on_c, 3, 54, 0
5, 79584, Note_on_c, 3, 61, 10
5, 79646, Note_on_c, 3, 61, 0
5, 79648, Note_on_c, 3, 57, 10
5, 79710, Note_on_c, 3, 57, 0
5, 79712, Note_on_c, 3, 54, 10
5, 79774, Note_on_c, 3, 54, 0
5, 79776, Note_on_c, 3, 60, 10
5, 79838, Note_on_c, 3, 60, 0
5, 79840, Note_on_c, 3, 56, 10
5, 79902, Note_on_c, 3, 56, 0
5, 79904, Note_on_c, 3, 54, 10
5, 79966, Note_on_c, 3, 54, 0
5, 79966, End_track
6, 0, Start_track
6, 0, MIDI_port, 0
6, 0, Title_t, "Staff-4"
6, 0, Control_c, 4, 7, 127
6, 0, Control_c, 4, 10, 64
6, 0, Control_c, 4, 7, 127
6, 0, Control_c, 4, 10, 64
6, 0, End_track
7, 0, Start_track
7, 0, MIDI_port, 0
7, 0, Title_t, "Staff-5"
7, 0, Control_c, 4, 7, 127
7, 0, Control_c, 4, 10, 64
7, 0, Control_c, 4, 7, 127
7, 0, Control_c, 4, 10, 64
7, 0, Program_c, 4, 0
7, 0, Control_c, 4, 64, 127
7, 0, Note_on_c, 4, 48, 92
7, 62, Note_on_c, 4, 48, 0
7, 64, Note_on_c, 4, 55, 92
7, 126, Note_on_c, 4, 55, 0
7, 128, Note_on_c, 4, 60, 92
7, 190, Note_on_c, 4, 60, 0
7, 192, Note_on_c, 4, 64, 92
7, 254, Note_on_c, 4, 64, 0
7, 256, Note_on_c, 4, 67, 92
7, 318, Note_on_c, 4, 67, 0
7, 320, Note_on_c, 4, 71, 92
7, 382, Note_on_c, 4, 71, 0
7, 384, Note_on_c, 4, 72, 92
7, 446, Note_on_c, 4, 72, 0
7, 448, Note_on_c, 4, 75, 92
7, 510, Note_on_c, 4, 75, 0
7, 512, Note_on_c, 4, 79, 92
7, 574, Note_on_c, 4, 79, 0
7, 576, Note_on_c, 4, 83, 92
7, 638, Note_on_c, 4, 83, 0
7, 640, Note_on_c, 4, 88, 92
7, 702, Note_on_c, 4, 88, 0
7, 704, Note_on_c, 4, 91, 92
7, 766, Note_on_c, 4, 91, 0
7, 768, Note_on_c, 4, 95, 92
7, 862, Note_on_c, 4, 95, 0
7, 3072, Control_c, 4, 64, 0
7, 3072, Control_c, 4, 64, 127
7, 3072, Note_on_c, 4, 47, 92
7, 3134, Note_on_c, 4, 47, 0
7, 3136, Note_on_c, 4, 54, 92
7, 3198, Note_on_c, 4, 54, 0
7, 3200, Note_on_c, 4, 59, 92
7, 3262, Note_on_c, 4, 59, 0
7, 3264, Note_on_c, 4, 61, 92
7, 3326, Note_on_c, 4, 61, 0
7, 3328, Note_on_c, 4, 64, 92
7, 3390, Note_on_c, 4, 64, 0
7, 3392, Note_on_c, 4, 67, 92
7, 3454, Note_on_c, 4, 67, 0
7, 3456, Note_on_c, 4, 71, 92
7, 3518, Note_on_c, 4, 71, 0
7, 3520, Note_on_c, 4, 74, 92
7, 3582, Note_on_c, 4, 74, 0
7, 3584, Note_on_c, 4, 78, 92
7, 3646, Note_on_c, 4, 78, 0
7, 3648, Note_on_c, 4, 80, 92
7, 3710, Note_on_c, 4, 80, 0
7, 3712, Note_on_c, 4, 83, 92
7, 3774, Note_on_c, 4, 83, 0
7, 3776, Note_on_c, 4, 85, 92
7, 3838, Note_on_c, 4, 85, 0
7, 3840, Note_on_c, 4, 86, 92
7, 3934, Note_on_c, 4, 86, 0
7, 6144, Control_c, 4, 64, 0
7, 6144, Control_c, 4, 64, 127
7, 6144, Note_on_c, 4, 48, 92
7, 6206, Note_on_c, 4, 48, 0
7, 6208, Note_on_c, 4, 55, 92
7, 6270, Note_on_c, 4, 55, 0
7, 6272, Note_on_c, 4, 60, 92
7, 6334, Note_on_c, 4, 60, 0
7, 6336, Note_on_c, 4, 64, 92
7, 6398, Note_on_c, 4, 64, 0
7, 6400, Note_on_c, 4, 67, 92
7, 6462, Note_on_c, 4, 67, 0
7, 6464, Note_on_c, 4, 71, 92
7, 6526, Note_on_c, 4, 71, 0
7, 6528, Note_on_c, 4, 72, 92
7, 6590, Note_on_c, 4, 72, 0
7, 6592, Note_on_c, 4, 75, 92
7, 6654, Note_on_c, 4, 75, 0
7, 6656, Note_on_c, 4, 79, 92
7, 6718, Note_on_c, 4, 79, 0
7, 6720, Note_on_c, 4, 83, 92
7, 6782, Note_on_c, 4, 83, 0
7, 6784, Note_on_c, 4, 88, 92
7, 6846, Note_on_c, 4, 88, 0
7, 6848, Note_on_c, 4, 91, 92
7, 6910, Note_on_c, 4, 91, 0
7, 6912, Note_on_c, 4, 95, 92
7, 7006, Note_on_c, 4, 95, 0
7, 9216, Control_c, 4, 64, 0
7, 9216, Control_c, 4, 64, 127
7, 9216, Note_on_c, 4, 47, 92
7, 9278, Note_on_c, 4, 47, 0
7, 9280, Note_on_c, 4, 54, 92
7, 9342, Note_on_c, 4, 54, 0
7, 9344, Note_on_c, 4, 59, 92
7, 9406, Note_on_c, 4, 59, 0
7, 9408, Note_on_c, 4, 61, 92
7, 9470, Note_on_c, 4, 61, 0
7, 9472, Note_on_c, 4, 64, 92
7, 9534, Note_on_c, 4, 64, 0
7, 9536, Note_on_c, 4, 67, 92
7, 9598, Note_on_c, 4, 67, 0
7, 9600, Note_on_c, 4, 71, 92
7, 9662, Note_on_c, 4, 71, 0
7, 9664, Note_on_c, 4, 74, 92
7, 9726, Note_on_c, 4, 74, 0
7, 9728, Note_on_c, 4, 78, 92
7, 9790, Note_on_c, 4, 78, 0
7, 9792, Note_on_c, 4, 80, 92
7, 9854, Note_on_c, 4, 80, 0
7, 9856, Note_on_c, 4, 83, 92
7, 9918, Note_on_c, 4, 83, 0
7, 9920, Note_on_c, 4, 85, 92
7, 9982, Note_on_c, 4, 85, 0
7, 9984, Note_on_c, 4, 86, 92
7, 10078, Note_on_c, 4, 86, 0
7, 12288, Control_c, 4, 64, 0
7, 12288, Control_c, 4, 64, 127
7, 12288, Note_on_c, 4, 48, 92
7, 12350, Note_on_c, 4, 48, 0
7, 12352, Note_on_c, 4, 55, 92
7, 12414, Note_on_c, 4, 55, 0
7, 12416, Note_on_c, 4, 60, 92
7, 12478, Note_on_c, 4, 60, 0
7, 12480, Note_on_c, 4, 64, 92
7, 12542, Note_on_c, 4, 64, 0
7, 12544, Note_on_c, 4, 67, 92
7, 12606, Note_on_c, 4, 67, 0
7, 12608, Note_on_c, 4, 71, 92
7, 12670, Note_on_c, 4, 71, 0
7, 12672, Note_on_c, 4, 72, 92
7, 12734, Note_on_c, 4, 72, 0
7, 12736, Note_on_c, 4, 75, 92
7, 12798, Note_on_c, 4, 75, 0
7, 12800, Note_on_c, 4, 79, 92
7, 12862, Note_on_c, 4, 79, 0
7, 12864, Note_on_c, 4, 83, 92
7, 12926, Note_on_c, 4, 83, 0
7, 12928, Note_on_c, 4, 88, 92
7, 12990, Note_on_c, 4, 88, 0
7, 12992, Note_on_c, 4, 91, 92
7, 13054, Note_on_c, 4, 91, 0
7, 13056, Note_on_c, 4, 95, 92
7, 13150, Note_on_c, 4, 95, 0
7, 15360, Control_c, 4, 64, 0
7, 15360, Control_c, 4, 64, 127
7, 15360, Note_on_c, 4, 47, 92
7, 15422, Note_on_c, 4, 47, 0
7, 15424, Note_on_c, 4, 54, 92
7, 15486, Note_on_c, 4, 54, 0
7, 15488, Note_on_c, 4, 59, 92
7, 15550, Note_on_c, 4, 59, 0
7, 15552, Note_on_c, 4, 61, 92
7, 15614, Note_on_c, 4, 61, 0
7, 15616, Note_on_c, 4, 65, 92
7, 15678, Note_on_c, 4, 65, 0
7, 15680, Note_on_c, 4, 67, 92
7, 15742, Note_on_c, 4, 67, 0
7, 15744, Note_on_c, 4, 71, 92
7, 15806, Note_on_c, 4, 71, 0
7, 15808, Note_on_c, 4, 74, 92
7, 15870, Note_on_c, 4, 74, 0
7, 15872, Note_on_c, 4, 77, 92
7, 15934, Note_on_c, 4, 77, 0
7, 15936, Note_on_c, 4, 80, 92
7, 15998, Note_on_c, 4, 80, 0
7, 16000, Note_on_c, 4, 83, 92
7, 16062, Note_on_c, 4, 83, 0
7, 16064, Note_on_c, 4, 85, 92
7, 16126, Note_on_c, 4, 85, 0
7, 16128, Note_on_c, 4, 86, 92
7, 16222, Note_on_c, 4, 86, 0
7, 18432, Control_c, 4, 64, 0
7, 18432, Control_c, 4, 64, 127
7, 18432, Note_on_c, 4, 48, 92
7, 18494, Note_on_c, 4, 48, 0
7, 18496, Note_on_c, 4, 55, 92
7, 18558, Note_on_c, 4, 55, 0
7, 18560, Note_on_c, 4, 60, 92
7, 18622, Note_on_c, 4, 60, 0
7, 18624, Note_on_c, 4, 64, 92
7, 18686, Note_on_c, 4, 64, 0
7, 18688, Note_on_c, 4, 67, 92
7, 18750, Note_on_c, 4, 67, 0
7, 18752, Note_on_c, 4, 71, 92
7, 18814, Note_on_c, 4, 71, 0
7, 18816, Note_on_c, 4, 72, 92
7, 18878, Note_on_c, 4, 72, 0
7, 18880, Note_on_c, 4, 75, 92
7, 18942, Note_on_c, 4, 75, 0
7, 18944, Note_on_c, 4, 79, 92
7, 19006, Note_on_c, 4, 79, 0
7, 19008, Note_on_c, 4, 83, 92
7, 19070, Note_on_c, 4, 83, 0
7, 19072, Note_on_c, 4, 88, 92
7, 19134, Note_on_c, 4, 88, 0
7, 19136, Note_on_c, 4, 91, 92
7, 19198, Note_on_c, 4, 91, 0
7, 19200, Note_on_c, 4, 95, 92
7, 19294, Note_on_c, 4, 95, 0
7, 21504, Control_c, 4, 64, 0
7, 21504, Control_c, 4, 64, 127
7, 21504, Note_on_c, 4, 47, 92
7, 21566, Note_on_c, 4, 47, 0
7, 21568, Note_on_c, 4, 54, 92
7, 21630, Note_on_c, 4, 54, 0
7, 21632, Note_on_c, 4, 59, 92
7, 21694, Note_on_c, 4, 59, 0
7, 21696, Note_on_c, 4, 61, 92
7, 21758, Note_on_c, 4, 61, 0
7, 21760, Note_on_c, 4, 64, 92
7, 21822, Note_on_c, 4, 64, 0
7, 21824, Note_on_c, 4, 67, 92
7, 21886, Note_on_c, 4, 67, 0
7, 21888, Note_on_c, 4, 71, 92
7, 21950, Note_on_c, 4, 71, 0
7, 21952, Note_on_c, 4, 74, 92
7, 22014, Note_on_c, 4, 74, 0
7, 22016, Note_on_c, 4, 78, 92
7, 22078, Note_on_c, 4, 78, 0
7, 22080, Note_on_c, 4, 80, 92
7, 22142, Note_on_c, 4, 80, 0
7, 22144, Note_on_c, 4, 83, 92
7, 22206, Note_on_c, 4, 83, 0
7, 22208, Note_on_c, 4, 85, 92
7, 22270, Note_on_c, 4, 85, 0
7, 22272, Note_on_c, 4, 86, 92
7, 22366, Note_on_c, 4, 86, 0
7, 24576, Control_c, 4, 64, 0
7, 24576, Control_c, 4, 64, 127
7, 24576, Note_on_c, 4, 48, 92
7, 24638, Note_on_c, 4, 48, 0
7, 24640, Note_on_c, 4, 55, 92
7, 24702, Note_on_c, 4, 55, 0
7, 24704, Note_on_c, 4, 60, 92
7, 24766, Note_on_c, 4, 60, 0
7, 24768, Note_on_c, 4, 64, 92
7, 24830, Note_on_c, 4, 64, 0
7, 24832, Note_on_c, 4, 67, 92
7, 24894, Note_on_c, 4, 67, 0
7, 24896, Note_on_c, 4, 71, 92
7, 24958, Note_on_c, 4, 71, 0
7, 24960, Note_on_c, 4, 72, 92
7, 25022, Note_on_c, 4, 72, 0
7, 25024, Note_on_c, 4, 75, 92
7, 25086, Note_on_c, 4, 75, 0
7, 25088, Note_on_c, 4, 79, 92
7, 25150, Note_on_c, 4, 79, 0
7, 25152, Note_on_c, 4, 83, 92
7, 25214, Note_on_c, 4, 83, 0
7, 25216, Note_on_c, 4, 88, 92
7, 25278, Note_on_c, 4, 88, 0
7, 25280, Note_on_c, 4, 91, 92
7, 25342, Note_on_c, 4, 91, 0
7, 25344, Note_on_c, 4, 95, 92
7, 25438, Note_on_c, 4, 95, 0
7, 27648, Control_c, 4, 64, 0
7, 27648, Control_c, 4, 64, 127
7, 27648, Note_on_c, 4, 47, 92
7, 27710, Note_on_c, 4, 47, 0
7, 27712, Note_on_c, 4, 54, 92
7, 27774, Note_on_c, 4, 54, 0
7, 27776, Note_on_c, 4, 59, 92
7, 27838, Note_on_c, 4, 59, 0
7, 27840, Note_on_c, 4, 61, 92
7, 27902, Note_on_c, 4, 61, 0
7, 27904, Note_on_c, 4, 65, 92
7, 27966, Note_on_c, 4, 65, 0
7, 27968, Note_on_c, 4, 67, 92
7, 28030, Note_on_c, 4, 67, 0
7, 28032, Note_on_c, 4, 71, 92
7, 28094, Note_on_c, 4, 71, 0
7, 28096, Note_on_c, 4, 74, 92
7, 28158, Note_on_c, 4, 74, 0
7, 28160, Note_on_c, 4, 77, 92
7, 28222, Note_on_c, 4, 77, 0
7, 28224, Note_on_c, 4, 80, 92
7, 28286, Note_on_c, 4, 80, 0
7, 28288, Note_on_c, 4, 83, 92
7, 28350, Note_on_c, 4, 83, 0
7, 28352, Note_on_c, 4, 85, 92
7, 28414, Note_on_c, 4, 85, 0
7, 28416, Note_on_c, 4, 86, 92
7, 28510, Note_on_c, 4, 86, 0
7, 30720, Control_c, 4, 64, 0
7, 30720, Control_c, 4, 64, 127
7, 30720, Note_on_c, 4, 45, 92
7, 30782, Note_on_c, 4, 45, 0
7, 30784, Note_on_c, 4, 52, 92
7, 30846, Note_on_c, 4, 52, 0
7, 30848, Note_on_c, 4, 57, 92
7, 30910, Note_on_c, 4, 57, 0
7, 30912, Note_on_c, 4, 61, 92
7, 30974, Note_on_c, 4, 61, 0
7, 30976, Note_on_c, 4, 64, 92
7, 31038, Note_on_c, 4, 64, 0
7, 31040, Note_on_c, 4, 68, 92
7, 31102, Note_on_c, 4, 68, 0
7, 31104, Note_on_c, 4, 69, 92
7, 31166, Note_on_c, 4, 69, 0
7, 31168, Note_on_c, 4, 72, 92
7, 31230, Note_on_c, 4, 72, 0
7, 31232, Note_on_c, 4, 76, 92
7, 31294, Note_on_c, 4, 76, 0
7, 31296, Note_on_c, 4, 80, 92
7, 31358, Note_on_c, 4, 80, 0
7, 31360, Note_on_c, 4, 85, 92
7, 31422, Note_on_c, 4, 85, 0
7, 31424, Note_on_c, 4, 88, 92
7, 31486, Note_on_c, 4, 88, 0
7, 31488, Note_on_c, 4, 92, 92
7, 31582, Note_on_c, 4, 92, 0
7, 33792, Control_c, 4, 64, 0
7, 33792, Control_c, 4, 64, 127
7, 33792, Note_on_c, 4, 44, 92
7, 33854, Note_on_c, 4, 44, 0
7, 33856, Note_on_c, 4, 51, 92
7, 33918, Note_on_c, 4, 51, 0
7, 33920, Note_on_c, 4, 56, 92
7, 33982, Note_on_c, 4, 56, 0
7, 33984, Note_on_c, 4, 58, 92
7, 34046, Note_on_c, 4, 58, 0
7, 34048, Note_on_c, 4, 61, 92
7, 34110, Note_on_c, 4, 61, 0
7, 34112, Note_on_c, 4, 64, 92
7, 34174, Note_on_c, 4, 64, 0
7, 34176, Note_on_c, 4, 68, 92
7, 34238, Note_on_c, 4, 68, 0
7, 34240, Note_on_c, 4, 71, 92
7, 34302, Note_on_c, 4, 71, 0
7, 34304, Note_on_c, 4, 75, 92
7, 34366, Note_on_c, 4, 75, 0
7, 34368, Note_on_c, 4, 77, 92
7, 34430, Note_on_c, 4, 77, 0
7, 34432, Note_on_c, 4, 80, 92
7, 34494, Note_on_c, 4, 80, 0
7, 34496, Note_on_c, 4, 82, 92
7, 34558, Note_on_c, 4, 82, 0
7, 34560, Note_on_c, 4, 83, 92
7, 34654, Note_on_c, 4, 83, 0
7, 36864, Control_c, 4, 64, 0
7, 36864, Control_c, 4, 64, 127
7, 36864, Note_on_c, 4, 43, 92
7, 36926, Note_on_c, 4, 43, 0
7, 36928, Note_on_c, 4, 50, 92
7, 36990, Note_on_c, 4, 50, 0
7, 36992, Note_on_c, 4, 55, 92
7, 37054, Note_on_c, 4, 55, 0
7, 37056, Note_on_c, 4, 59, 92
7, 37118, Note_on_c, 4, 59, 0
7, 37120, Note_on_c, 4, 62, 92
7, 37182, Note_on_c, 4, 62, 0
7, 37184, Note_on_c, 4, 66, 92
7, 37246, Note_on_c, 4, 66, 0
7, 37248, Note_on_c, 4, 67, 92
7, 37310, Note_on_c, 4, 67, 0
7, 37312, Note_on_c, 4, 70, 92
7, 37374, Note_on_c, 4, 70, 0
7, 37376, Note_on_c, 4, 74, 92
7, 37438, Note_on_c, 4, 74, 0
7, 37440, Note_on_c, 4, 78, 92
7, 37502, Note_on_c, 4, 78, 0
7, 37504, Note_on_c, 4, 83, 92
7, 37566, Note_on_c, 4, 83, 0
7, 37568, Note_on_c, 4, 86, 92
7, 37630, Note_on_c, 4, 86, 0
7, 37632, Note_on_c, 4, 90, 92
7, 37726, Note_on_c, 4, 90, 0
7, 39936, Control_c, 4, 64, 0
7, 39936, Control_c, 4, 64, 127
7, 39936, Note_on_c, 4, 42, 92
7, 39998, Note_on_c, 4, 42, 0
7, 40000, Note_on_c, 4, 49, 92
7, 40062, Note_on_c, 4, 49, 0
7, 40064, Note_on_c, 4, 54, 92
7, 40126, Note_on_c, 4, 54, 0
7, 40128, Note_on_c, 4, 56, 92
7, 40190, Note_on_c, 4, 56, 0
7, 40192, Note_on_c, 4, 59, 92
7, 40254, Note_on_c, 4, 59, 0
7, 40256, Note_on_c, 4, 62, 92
7, 40318, Note_on_c, 4, 62, 0
7, 40320, Note_on_c, 4, 66, 92
7, 40382, Note_on_c, 4, 66, 0
7, 40384, Note_on_c, 4, 69, 92
7, 40446, Note_on_c, 4, 69, 0
7, 40448, Note_on_c, 4, 73, 92
7, 40510, Note_on_c, 4, 73, 0
7, 40512, Note_on_c, 4, 75, 92
7, 40574, Note_on_c, 4, 75, 0
7, 40576, Note_on_c, 4, 78, 92
7, 40638, Note_on_c, 4, 78, 0
7, 40640, Note_on_c, 4, 80, 92
7, 40702, Note_on_c, 4, 80, 0
7, 40704, Note_on_c, 4, 81, 92
7, 40798, Note_on_c, 4, 81, 0
7, 43008, Control_c, 4, 64, 0
7, 43008, Control_c, 4, 64, 127
7, 43008, Note_on_c, 4, 48, 92
7, 43070, Note_on_c, 4, 48, 0
7, 43072, Note_on_c, 4, 55, 92
7, 43134, Note_on_c, 4, 55, 0
7, 43136, Note_on_c, 4, 60, 92
7, 43198, Note_on_c, 4, 60, 0
7, 43200, Note_on_c, 4, 64, 92
7, 43262, Note_on_c, 4, 64, 0
7, 43264, Note_on_c, 4, 67, 92
7, 43326, Note_on_c, 4, 67, 0
7, 43328, Note_on_c, 4, 71, 92
7, 43390, Note_on_c, 4, 71, 0
7, 43392, Note_on_c, 4, 72, 92
7, 43454, Note_on_c, 4, 72, 0
7, 43456, Note_on_c, 4, 75, 92
7, 43518, Note_on_c, 4, 75, 0
7, 43520, Note_on_c, 4, 79, 92
7, 43582, Note_on_c, 4, 79, 0
7, 43584, Note_on_c, 4, 83, 92
7, 43646, Note_on_c, 4, 83, 0
7, 43648, Note_on_c, 4, 88, 92
7, 43710, Note_on_c, 4, 88, 0
7, 43712, Note_on_c, 4, 91, 92
7, 43774, Note_on_c, 4, 91, 0
7, 43776, Note_on_c, 4, 95, 92
7, 43870, Note_on_c, 4, 95, 0
7, 46080, Control_c, 4, 64, 0
7, 46080, Control_c, 4, 64, 127
7, 46080, Note_on_c, 4, 47, 92
7, 46142, Note_on_c, 4, 47, 0
7, 46144, Note_on_c, 4, 54, 92
7, 46206, Note_on_c, 4, 54, 0
7, 46208, Note_on_c, 4, 59, 92
7, 46270, Note_on_c, 4, 59, 0
7, 46272, Note_on_c, 4, 61, 92
7, 46334, Note_on_c, 4, 61, 0
7, 46336, Note_on_c, 4, 64, 92
7, 46398, Note_on_c, 4, 64, 0
7, 46400, Note_on_c, 4, 67, 92
7, 46462, Note_on_c, 4, 67, 0
7, 46464, Note_on_c, 4, 71, 92
7, 46526, Note_on_c, 4, 71, 0
7, 46528, Note_on_c, 4, 74, 92
7, 46590, Note_on_c, 4, 74, 0
7, 46592, Note_on_c, 4, 78, 92
7, 46654, Note_on_c, 4, 78, 0
7, 46656, Note_on_c, 4, 80, 92
7, 46718, Note_on_c, 4, 80, 0
7, 46720, Note_on_c, 4, 83, 92
7, 46782, Note_on_c, 4, 83, 0
7, 46784, Note_on_c, 4, 85, 92
7, 46846, Note_on_c, 4, 85, 0
7, 46848, Note_on_c, 4, 86, 92
7, 46942, Note_on_c, 4, 86, 0
7, 49152, Control_c, 4, 64, 0
7, 49152, Control_c, 4, 64, 127
7, 49152, Note_on_c, 4, 48, 92
7, 49214, Note_on_c, 4, 48, 0
7, 49216, Note_on_c, 4, 55, 92
7, 49278, Note_on_c, 4, 55, 0
7, 49280, Note_on_c, 4, 60, 92
7, 49342, Note_on_c, 4, 60, 0
7, 49344, Note_on_c, 4, 64, 92
7, 49406, Note_on_c, 4, 64, 0
7, 49408, Note_on_c, 4, 67, 92
7, 49470, Note_on_c, 4, 67, 0
7, 49472, Note_on_c, 4, 71, 92
7, 49534, Note_on_c, 4, 71, 0
7, 49536, Note_on_c, 4, 72, 92
7, 49598, Note_on_c, 4, 72, 0
7, 49600, Note_on_c, 4, 75, 92
7, 49662, Note_on_c, 4, 75, 0
7, 49664, Note_on_c, 4, 79, 92
7, 49726, Note_on_c, 4, 79, 0
7, 49728, Note_on_c, 4, 83, 92
7, 49790, Note_on_c, 4, 83, 0
7, 49792, Note_on_c, 4, 88, 92
7, 49854, Note_on_c, 4, 88, 0
7, 49856, Note_on_c, 4, 91, 92
7, 49918, Note_on_c, 4, 91, 0
7, 49920, Note_on_c, 4, 95, 92
7, 50014, Note_on_c, 4, 95, 0
7, 52224, Control_c, 4, 64, 0
7, 52224, Control_c, 4, 64, 127
7, 52224, Note_on_c, 4, 47, 92
7, 52286, Note_on_c, 4, 47, 0
7, 52288, Note_on_c, 4, 54, 92
7, 52350, Note_on_c, 4, 54, 0
7, 52352, Note_on_c, 4, 59, 92
7, 52414, Note_on_c, 4, 59, 0
7, 52416, Note_on_c, 4, 61, 92
7, 52478, Note_on_c, 4, 61, 0
7, 52480, Note_on_c, 4, 65, 92
7, 52542, Note_on_c, 4, 65, 0
7, 52544, Note_on_c, 4, 67, 92
7, 52606, Note_on_c, 4, 67, 0
7, 52608, Note_on_c, 4, 71, 92
7, 52670, Note_on_c, 4, 71, 0
7, 52672, Note_on_c, 4, 74, 92
7, 52734, Note_on_c, 4, 74, 0
7, 52736, Note_on_c, 4, 77, 92
7, 52798, Note_on_c, 4, 77, 0
7, 52800, Note_on_c, 4, 80, 92
7, 52862, Note_on_c, 4, 80, 0
7, 52864, Note_on_c, 4, 83, 92
7, 52926, Note_on_c, 4, 83, 0
7, 52928, Note_on_c, 4, 85, 92
7, 52990, Note_on_c, 4, 85, 0
7, 52992, Note_on_c, 4, 86, 92
7, 53086, Note_on_c, 4, 86, 0
7, 55296, Control_c, 4, 64, 0
7, 55296, Control_c, 4, 64, 127
7, 55296, Note_on_c, 4, 48, 92
7, 55358, Note_on_c, 4, 48, 0
7, 55360, Note_on_c, 4, 55, 92
7, 55422, Note_on_c, 4, 55, 0
7, 55424, Note_on_c, 4, 60, 92
7, 55486, Note_on_c, 4, 60, 0
7, 55488, Note_on_c, 4, 64, 92
7, 55550, Note_on_c, 4, 64, 0
7, 55552, Note_on_c, 4, 67, 92
7, 55614, Note_on_c, 4, 67, 0
7, 55616, Note_on_c, 4, 71, 92
7, 55678, Note_on_c, 4, 71, 0
7, 55680, Note_on_c, 4, 72, 92
7, 55742, Note_on_c, 4, 72, 0
7, 55744, Note_on_c, 4, 75, 92
7, 55806, Note_on_c, 4, 75, 0
7, 55808, Note_on_c, 4, 79, 92
7, 55870, Note_on_c, 4, 79, 0
7, 55872, Note_on_c, 4, 83, 92
7, 55934, Note_on_c, 4, 83, 0
7, 55936, Note_on_c, 4, 88, 92
7, 55998, Note_on_c, 4, 88, 0
7, 56000, Note_on_c, 4, 91, 92
7, 56062, Note_on_c, 4, 91, 0
7, 56064, Note_on_c, 4, 95, 92
7, 56158, Note_on_c, 4, 95, 0
7, 58368, Control_c, 4, 64, 0
7, 58368, Control_c, 4, 64, 127
7, 58368, Note_on_c, 4, 47, 92
7, 58430, Note_on_c, 4, 47, 0
7, 58432, Note_on_c, 4, 54, 92
7, 58494, Note_on_c, 4, 54, 0
7, 58496, Note_on_c, 4, 59, 92
7, 58558, Note_on_c, 4, 59, 0
7, 58560, Note_on_c, 4, 61, 92
7, 58622, Note_on_c, 4, 61, 0
7, 58624, Note_on_c, 4, 64, 92
7, 58686, Note_on_c, 4, 64, 0
7, 58688, Note_on_c, 4, 67, 92
7, 58750, Note_on_c, 4, 67, 0
7, 58752, Note_on_c, 4, 71, 92
7, 58814, Note_on_c, 4, 71, 0
7, 58816, Note_on_c, 4, 74, 92
7, 58878, Note_on_c, 4, 74, 0
7, 58880, Note_on_c, 4, 78, 92
7, 58942, Note_on_c, 4, 78, 0
7, 58944, Note_on_c, 4, 80, 92
7, 59006, Note_on_c, 4, 80, 0
7, 59008, Note_on_c, 4, 83, 92
7, 59070, Note_on_c, 4, 83, 0
7, 59072, Note_on_c, 4, 85, 92
7, 59134, Note_on_c, 4, 85, 0
7, 59136, Note_on_c, 4, 86, 92
7, 59230, Note_on_c, 4, 86, 0
7, 61440, Control_c, 4, 64, 0
7, 61440, Control_c, 4, 64, 127
7, 61440, Note_on_c, 4, 48, 92
7, 61502, Note_on_c, 4, 48, 0
7, 61504, Note_on_c, 4, 55, 92
7, 61566, Note_on_c, 4, 55, 0
7, 61568, Note_on_c, 4, 60, 92
7, 61630, Note_on_c, 4, 60, 0
7, 61632, Note_on_c, 4, 64, 92
7, 61694, Note_on_c, 4, 64, 0
7, 61696, Note_on_c, 4, 67, 92
7, 61758, Note_on_c, 4, 67, 0
7, 61760, Note_on_c, 4, 71, 92
7, 61822, Note_on_c, 4, 71, 0
7, 61824, Note_on_c, 4, 72, 92
7, 61886, Note_on_c, 4, 72, 0
7, 61888, Note_on_c, 4, 75, 92
7, 61950, Note_on_c, 4, 75, 0
7, 61952, Note_on_c, 4, 79, 92
7, 62014, Note_on_c, 4, 79, 0
7, 62016, Note_on_c, 4, 83, 92
7, 62078, Note_on_c, 4, 83, 0
7, 62080, Note_on_c, 4, 88, 92
7, 62142, Note_on_c, 4, 88, 0
7, 62144, Note_on_c, 4, 91, 92
7, 62206, Note_on_c, 4, 91, 0
7, 62208, Note_on_c, 4, 95, 92
7, 62302, Note_on_c, 4, 95, 0
7, 64512, Control_c, 4, 64, 0
7, 64512, Control_c, 4, 64, 127
7, 64512, Note_on_c, 4, 47, 92
7, 64574, Note_on_c, 4, 47, 0
7, 64576, Note_on_c, 4, 54, 92
7, 64638, Note_on_c, 4, 54, 0
7, 64640, Note_on_c, 4, 59, 92
7, 64702, Note_on_c, 4, 59, 0
7, 64704, Note_on_c, 4, 61, 92
7, 64766, Note_on_c, 4, 61, 0
7, 64768, Note_on_c, 4, 65, 92
7, 64830, Note_on_c, 4, 65, 0
7, 64832, Note_on_c, 4, 67, 92
7, 64894, Note_on_c, 4, 67, 0
7, 64896, Note_on_c, 4, 71, 92
7, 64958, Note_on_c, 4, 71, 0
7, 64960, Note_on_c, 4, 74, 92
7, 65022, Note_on_c, 4, 74, 0
7, 65024, Note_on_c, 4, 77, 92
7, 65086, Note_on_c, 4, 77, 0
7, 65088, Note_on_c, 4, 80, 92
7, 65150, Note_on_c, 4, 80, 0
7, 65152, Note_on_c, 4, 83, 92
7, 65214, Note_on_c, 4, 83, 0
7, 65216, Note_on_c, 4, 85, 92
7, 65278, Note_on_c, 4, 85, 0
7, 65280, Note_on_c, 4, 86, 92
7, 65374, Note_on_c, 4, 86, 0
7, 67584, Control_c, 4, 64, 0
7, 67584, Control_c, 4, 64, 127
7, 67584, Note_on_c, 4, 45, 92
7, 67646, Note_on_c, 4, 45, 0
7, 67648, Note_on_c, 4, 52, 92
7, 67710, Note_on_c, 4, 52, 0
7, 67712, Note_on_c, 4, 57, 92
7, 67774, Note_on_c, 4, 57, 0
7, 67776, Note_on_c, 4, 61, 92
7, 67838, Note_on_c, 4, 61, 0
7, 67840, Note_on_c, 4, 64, 92
7, 67902, Note_on_c, 4, 64, 0
7, 67904, Note_on_c, 4, 68, 92
7, 67966, Note_on_c, 4, 68, 0
7, 67968, Note_on_c, 4, 69, 92
7, 68030, Note_on_c, 4, 69, 0
7, 68032, Note_on_c, 4, 72, 92
7, 68094, Note_on_c, 4, 72, 0
7, 68096, Note_on_c, 4, 76, 92
7, 68158, Note_on_c, 4, 76, 0
7, 68160, Note_on_c, 4, 80, 92
7, 68222, Note_on_c, 4, 80, 0
7, 68224, Note_on_c, 4, 85, 92
7, 68286, Note_on_c, 4, 85, 0
7, 68288, Note_on_c, 4, 88, 92
7, 68350, Note_on_c, 4, 88, 0
7, 68352, Note_on_c, 4, 92, 92
7, 68446, Note_on_c, 4, 92, 0
7, 70656, Control_c, 4, 64, 0
7, 70656, Control_c, 4, 64, 127
7, 70656, Note_on_c, 4, 44, 92
7, 70718, Note_on_c, 4, 44, 0
7, 70720, Note_on_c, 4, 51, 92
7, 70782, Note_on_c, 4, 51, 0
7, 70784, Note_on_c, 4, 56, 92
7, 70846, Note_on_c, 4, 56, 0
7, 70848, Note_on_c, 4, 58, 92
7, 70910, Note_on_c, 4, 58, 0
7, 70912, Note_on_c, 4, 61, 92
7, 70974, Note_on_c, 4, 61, 0
7, 70976, Note_on_c, 4, 64, 92
7, 71038, Note_on_c, 4, 64, 0
7, 71040, Note_on_c, 4, 68, 92
7, 71102, Note_on_c, 4, 68, 0
7, 71104, Note_on_c, 4, 71, 92
7, 71166, Note_on_c, 4, 71, 0
7, 71168, Note_on_c, 4, 75, 92
7, 71230, Note_on_c, 4, 75, 0
7, 71232, Note_on_c, 4, 77, 92
7, 71294, Note_on_c, 4, 77, 0
7, 71296, Note_on_c, 4, 80, 92
7, 71358, Note_on_c, 4, 80, 0
7, 71360, Note_on_c, 4, 82, 92
7, 71422, Note_on_c, 4, 82, 0
7, 71424, Note_on_c, 4, 83, 92
7, 71518, Note_on_c, 4, 83, 0
7, 73728, Control_c, 4, 64, 0
7, 73728, Control_c, 4, 64, 127
7, 73728, Note_on_c, 4, 43, 92
7, 73790, Note_on_c, 4, 43, 0
7, 73792, Note_on_c, 4, 50, 92
7, 73854, Note_on_c, 4, 50, 0
7, 73856, Note_on_c, 4, 55, 92
7, 73918, Note_on_c, 4, 55, 0
7, 73920, Note_on_c, 4, 59, 92
7, 73982, Note_on_c, 4, 59, 0
7, 73984, Note_on_c, 4, 62, 92
7, 74046, Note_on_c, 4, 62, 0
7, 74048, Note_on_c, 4, 66, 92
7, 74110, Note_on_c, 4, 66, 0
7, 74112, Note_on_c, 4, 67, 92
7, 74174, Note_on_c, 4, 67, 0
7, 74176, Note_on_c, 4, 70, 92
7, 74238, Note_on_c, 4, 70, 0
7, 74240, Note_on_c, 4, 74, 92
7, 74302, Note_on_c, 4, 74, 0
7, 74304, Note_on_c, 4, 78, 92
7, 74366, Note_on_c, 4, 78, 0
7, 74368, Note_on_c, 4, 83, 92
7, 74430, Note_on_c, 4, 83, 0
7, 74432, Note_on_c, 4, 86, 92
7, 74494, Note_on_c, 4, 86, 0
7, 74496, Note_on_c, 4, 90, 92
7, 74590, Note_on_c, 4, 90, 0
7, 76800, Control_c, 4, 64, 0
7, 76800, Control_c, 4, 64, 127
7, 76800, Note_on_c, 4, 42, 92
7, 76862, Note_on_c, 4, 42, 0
7, 76864, Note_on_c, 4, 49, 92
7, 76926, Note_on_c, 4, 49, 0
7, 76928, Note_on_c, 4, 54, 92
7, 76990, Note_on_c, 4, 54, 0
7, 76992, Note_on_c, 4, 56, 92
7, 77054, Note_on_c, 4, 56, 0
7, 77056, Note_on_c, 4, 59, 92
7, 77118, Note_on_c, 4, 59, 0
7, 77120, Note_on_c, 4, 62, 92
7, 77182, Note_on_c, 4, 62, 0
7, 77184, Note_on_c, 4, 66, 92
7, 77246, Note_on_c, 4, 66, 0
7, 77248, Note_on_c, 4, 69, 92
7, 77310, Note_on_c, 4, 69, 0
7, 77312, Note_on_c, 4, 73, 92
7, 77374, Note_on_c, 4, 73, 0
7, 77376, Note_on_c, 4, 75, 92
7, 77438, Note_on_c, 4, 75, 0
7, 77440, Note_on_c, 4, 78, 92
7, 77502, Note_on_c, 4, 78, 0
7, 77504, Note_on_c, 4, 80, 92
7, 77566, Note_on_c, 4, 80, 0
7, 77568, Note_on_c, 4, 81, 92
7, 77662, Note_on_c, 4, 81, 0
7, 79872, Control_c, 4, 64, 0
7, 79872, End_track
8, 0, Start_track
8, 0, MIDI_port, 0
8, 0, Title_t, "Staff-6"
8, 0, Control_c, 4, 7, 127
8, 0, Control_c, 4, 10, 64
8, 0, Control_c, 4, 7, 127
8, 0, Control_c, 4, 10, 64
8, 0, End_track
9, 0, Start_track
9, 0, MIDI_port, 0
9, 0, Title_t, "Staff-7"
9, 0, Control_c, 5, 7, 127
9, 0, Control_c, 5, 10, 64
9, 0, Control_c, 5, 7, 127
9, 0, Control_c, 5, 10, 64
9, 0, Program_c, 5, 48
9, 6144, Note_on_c, 5, 79, 60
9, 6336, Note_on_c, 5, 79, 0
9, 6336, Note_on_c, 5, 71, 60
9, 6528, Note_on_c, 5, 71, 0
9, 6528, Note_on_c, 5, 83, 60
9, 9216, Note_on_c, 5, 83, 0
9, 9216, Note_on_c, 5, 78, 60
9, 9408, Note_on_c, 5, 78, 0
9, 9408, Note_on_c, 5, 70, 60
9, 9600, Note_on_c, 5, 70, 0
9, 9600, Note_on_c, 5, 82, 60
9, 12288, Note_on_c, 5, 82, 0
9, 12288, Note_on_c, 5, 75, 60
9, 12480, Note_on_c, 5, 75, 0
9, 12480, Note_on_c, 5, 67, 60
9, 12672, Note_on_c, 5, 67, 0
9, 12672, Note_on_c, 5, 79, 60
9, 15360, Note_on_c, 5, 79, 0
9, 15360, Note_on_c, 5, 74, 60
9, 15552, Note_on_c, 5, 74, 0
9, 15552, Note_on_c, 5, 65, 60
9, 15744, Note_on_c, 5, 65, 0
9, 15744, Note_on_c, 5, 77, 60
9, 18432, Note_on_c, 5, 77, 0
9, 18432, Note_on_c, 5, 79, 60
9, 18624, Note_on_c, 5, 79, 0
9, 18624, Note_on_c, 5, 71, 60
9, 18816, Note_on_c, 5, 71, 0
9, 18816, Note_on_c, 5, 83, 60
9, 21504, Note_on_c, 5, 83, 0
9, 21504, Note_on_c, 5, 78, 60
9, 21696, Note_on_c, 5, 78, 0
9, 21696, Note_on_c, 5, 70, 60
9, 21888, Note_on_c, 5, 70, 0
9, 21888, Note_on_c, 5, 82, 60
9, 24576, Note_on_c, 5, 82, 0
9, 24576, Note_on_c, 5, 75, 60
9, 24768, Note_on_c, 5, 75, 0
9, 24768, Note_on_c, 5, 67, 60
9, 24960, Note_on_c, 5, 67, 0
9, 24960, Note_on_c, 5, 79, 60
9, 27648, Note_on_c, 5, 79, 0
9, 27648, Note_on_c, 5, 74, 60
9, 27840, Note_on_c, 5, 74, 0
9, 27840, Note_on_c, 5, 65, 60
9, 28032, Note_on_c, 5, 65, 0
9, 28032, Note_on_c, 5, 77, 60
9, 30720, Note_on_c, 5, 77, 0
9, 43008, Note_on_c, 5, 79, 60
9, 43200, Note_on_c, 5, 79, 0
9, 43200, Note_on_c, 5, 71, 60
9, 43392, Note_on_c, 5, 71, 0
9, 43392, Note_on_c, 5, 83, 60
9, 46080, Note_on_c, 5, 83, 0
9, 46080, Note_on_c, 5, 78, 60
9, 46272, Note_on_c, 5, 78, 0
9, 46272, Note_on_c, 5, 70, 60
9, 46464, Note_on_c, 5, 70, 0
9, 46464, Note_on_c, 5, 82, 60
9, 49152, Note_on_c, 5, 82, 0
9, 49152, Note_on_c, 5, 75, 60
9, 49344, Note_on_c, 5, 75, 0
9, 49344, Note_on_c, 5, 67, 60
9, 49536, Note_on_c, 5, 67, 0
9, 49536, Note_on_c, 5, 79, 60
9, 52224, Note_on_c, 5, 79, 0
9, 52224, Note_on_c, 5, 74, 60
9, 52416, Note_on_c, 5, 74, 0
9, 52416, Note_on_c, 5, 65, 60
9, 52608, Note_on_c, 5, 65, 0
9, 52608, Note_on_c, 5, 77, 60
9, 55296, Note_on_c, 5, 77, 0
9, 55296, Note_on_c, 5, 79, 60
9, 55488, Note_on_c, 5, 79, 0
9, 55488, Note_on_c, 5, 71, 60
9, 55680, Note_on_c, 5, 71, 0
9, 55680, Note_on_c, 5, 83, 60
9, 58368, Note_on_c, 5, 83, 0
9, 58368, Note_on_c, 5, 78, 60
9, 58560, Note_on_c, 5, 78, 0
9, 58560, Note_on_c, 5, 70, 60
9, 58752, Note_on_c, 5, 70, 0
9, 58752, Note_on_c, 5, 82, 60
9, 61440, Note_on_c, 5, 82, 0
9, 61440, Note_on_c, 5, 75, 60
9, 61632, Note_on_c, 5, 75, 0
9, 61632, Note_on_c, 5, 67, 60
9, 61824, Note_on_c, 5, 67, 0
9, 61824, Note_on_c, 5, 79, 60
9, 64512, Note_on_c, 5, 79, 0
9, 64512, Note_on_c, 5, 74, 60
9, 64704, Note_on_c, 5, 74, 0
9, 64704, Note_on_c, 5, 65, 60
9, 64896, Note_on_c, 5, 65, 0
9, 64896, Note_on_c, 5, 77, 60
9, 67584, Note_on_c, 5, 77, 0
9, 67584, End_track
10, 0, Start_track
10, 0, MIDI_port, 0
10, 0, Title_t, "Staff-8"
10, 0, Control_c, 6, 7, 127
10, 0, Control_c, 6, 10, 64
10, 0, Control_c, 6, 7, 127
10, 0, Control_c, 6, 10, 64
10, 0, Program_c, 6, 30
10, 6144, Note_on_c, 6, 79, 92
10, 6336, Note_on_c, 6, 79, 0
10, 6336, Note_on_c, 6, 71, 92
10, 6528, Note_on_c, 6, 71, 0
10, 6528, Note_on_c, 6, 83, 92
10, 9216, Note_on_c, 6, 83, 0
10, 9216, Note_on_c, 6, 78, 92
10, 9408, Note_on_c, 6, 78, 0
10, 9408, Note_on_c, 6, 70, 92
10, 9600, Note_on_c, 6, 70, 0
10, 9600, Note_on_c, 6, 82, 92
10, 12288, Note_on_c, 6, 82, 0
10, 12288, Note_on_c, 6, 75, 92
10, 12480, Note_on_c, 6, 75, 0
10, 12480, Note_on_c, 6, 67, 92
10, 12672, Note_on_c, 6, 67, 0
10, 12672, Note_on_c, 6, 79, 92
10, 15360, Note_on_c, 6, 79, 0
10, 15360, Note_on_c, 6, 74, 92
10, 15552, Note_on_c, 6, 74, 0
10, 15552, Note_on_c, 6, 65, 92
10, 15744, Note_on_c, 6, 65, 0
10, 15744, Note_on_c, 6, 77, 92
10, 18432, Note_on_c, 6, 77, 0
10, 18432, Note_on_c, 6, 79, 92
10, 18624, Note_on_c, 6, 79, 0
10, 18624, Note_on_c, 6, 71, 92
10, 18816, Note_on_c, 6, 71, 0
10, 18816, Note_on_c, 6, 83, 92
10, 21504, Note_on_c, 6, 83, 0
10, 21504, Note_on_c, 6, 78, 92
10, 21696, Note_on_c, 6, 78, 0
10, 21696, Note_on_c, 6, 70, 92
10, 21888, Note_on_c, 6, 70, 0
10, 21888, Note_on_c, 6, 82, 92
10, 24576, Note_on_c, 6, 82, 0
10, 24576, Note_on_c, 6, 75, 92
10, 24768, Note_on_c, 6, 75, 0
10, 24768, Note_on_c, 6, 67, 92
10, 24960, Note_on_c, 6, 67, 0
10, 24960, Note_on_c, 6, 79, 92
10, 27648, Note_on_c, 6, 79, 0
10, 27648, Note_on_c, 6, 74, 92
10, 27840, Note_on_c, 6, 74, 0
10, 27840, Note_on_c, 6, 65, 92
10, 28032, Note_on_c, 6, 65, 0
10, 28032, Note_on_c, 6, 77, 92
10, 30720, Note_on_c, 6, 77, 0
10, 43008, Note_on_c, 6, 79, 92
10, 43200, Note_on_c, 6, 79, 0
10, 43200, Note_on_c, 6, 71, 92
10, 43392, Note_on_c, 6, 71, 0
10, 43392, Note_on_c, 6, 83, 92
10, 46080, Note_on_c, 6, 83, 0
10, 46080, Note_on_c, 6, 78, 92
10, 46272, Note_on_c, 6, 78, 0
10, 46272, Note_on_c, 6, 70, 92
10, 46464, Note_on_c, 6, 70, 0
10, 46464, Note_on_c, 6, 82, 92
10, 49152, Note_on_c, 6, 82, 0
10, 49152, Note_on_c, 6, 75, 92
10, 49344, Note_on_c, 6, 75, 0
10, 49344, Note_on_c, 6, 67, 92
10, 49536, Note_on_c, 6, 67, 0
10, 49536, Note_on_c, 6, 79, 92
10, 52224, Note_on_c, 6, 79, 0
10, 52224, Note_on_c, 6, 74, 92
10, 52416, Note_on_c, 6, 74, 0
10, 52416, Note_on_c, 6, 65, 92
10, 52608, Note_on_c, 6, 65, 0
10, 52608, Note_on_c, 6, 77, 92
10, 55296, Note_on_c, 6, 77, 0
10, 55296, Note_on_c, 6, 79, 92
10, 55488, Note_on_c, 6, 79, 0
10, 55488, Note_on_c, 6, 71, 92
10, 55680, Note_on_c, 6, 71, 0
10, 55680, Note_on_c, 6, 83, 92
10, 58368, Note_on_c, 6, 83, 0
10, 58368, Note_on_c, 6, 78, 92
10, 58560, Note_on_c, 6, 78, 0
10, 58560, Note_on_c, 6, 70, 92
10, 58752, Note_on_c, 6, 70, 0
10, 58752, Note_on_c, 6, 82, 92
10, 61440, Note_on_c, 6, 82, 0
10, 61440, Note_on_c, 6, 75, 92
10, 61632, Note_on_c, 6, 75, 0
10, 61632, Note_on_c, 6, 67, 92
10, 61824, Note_on_c, 6, 67, 0
10, 61824, Note_on_c, 6, 79, 92
10, 64512, Note_on_c, 6, 79, 0
10, 64512, Note_on_c, 6, 74, 92
10, 64704, Note_on_c, 6, 74, 0
10, 64704, Note_on_c, 6, 65, 92
10, 64896, Note_on_c, 6, 65, 0
10, 64896, Note_on_c, 6, 77, 92
10, 67584, Note_on_c, 6, 77, 0
10, 67584, End_track
11, 0, Start_track
11, 0, MIDI_port, 0
11, 0, Title_t, "Staff-9"
11, 0, Control_c, 7, 7, 127
11, 0, Control_c, 7, 10, 64
11, 0, Control_c, 7, 7, 127
11, 0, Control_c, 7, 10, 64
11, 0, Program_c, 7, 50
11, 10752, Control_c, 7, 7, 37
11, 10752, Note_on_c, 7, 69, 60
11, 10752, Note_on_c, 7, 70, 60
11, 10752, Note_on_c, 7, 74, 60
11, 10752, Note_on_c, 7, 75, 60
11, 10752, Note_on_c, 7, 78, 60
11, 10752, Note_on_c, 7, 79, 60
11, 10760, Control_c, 7, 7, 38
11, 10769, Control_c, 7, 7, 39
11, 10777, Control_c, 7, 7, 40
11, 10786, Control_c, 7, 7, 41
11, 10794, Control_c, 7, 7, 42
11, 10803, Control_c, 7, 7, 43
11, 10811, Control_c, 7, 7, 44
11, 10820, Control_c, 7, 7, 45
11, 10828, Control_c, 7, 7, 46
11, 10837, Control_c, 7, 7, 47
11, 10845, Control_c, 7, 7, 48
11, 10854, Control_c, 7, 7, 49
11, 10862, Control_c, 7, 7, 50
11, 10871, Control_c, 7, 7, 51
11, 10880, Control_c, 7, 7, 52
11, 10888, Control_c, 7, 7, 53
11, 10897, Control_c, 7, 7, 54
11, 10905, Control_c, 7, 7, 55
11, 10914, Control_c, 7, 7, 56
11, 10922, Control_c, 7, 7, 57
11, 10931, Control_c, 7, 7, 58
11, 10939, Control_c, 7, 7, 59
11, 10948, Control_c, 7, 7, 60
11, 10956, Control_c, 7, 7, 61
11, 10965, Control_c, 7, 7, 62
11, 10973, Control_c, 7, 7, 63
11, 10982, Control_c, 7, 7, 64
11, 10990, Control_c, 7, 7, 65
11, 10999, Control_c, 7, 7, 66
11, 11008, Control_c, 7, 7, 67
11, 11016, Control_c, 7, 7, 68
11, 11025, Control_c, 7, 7, 69
11, 11033, Control_c, 7, 7, 70
11, 11042, Control_c, 7, 7, 71
11, 11050, Control_c, 7, 7, 72
11, 11059, Control_c, 7, 7, 73
11, 11067, Control_c, 7, 7, 74
11, 11076, Control_c, 7, 7, 75
11, 11084, Control_c, 7, 7, 76
11, 11093, Control_c, 7, 7, 77
11, 11101, Control_c, 7, 7, 78
11, 11110, Control_c, 7, 7, 79
11, 11118, Control_c, 7, 7, 80
11, 11127, Control_c, 7, 7, 81
11, 11136, Control_c, 7, 7, 82
11, 11144, Control_c, 7, 7, 83
11, 11153, Control_c, 7, 7, 84
11, 11161, Control_c, 7, 7, 85
11, 11170, Control_c, 7, 7, 86
11, 11178, Control_c, 7, 7, 87
11, 11187, Control_c, 7, 7, 88
11, 11195, Control_c, 7, 7, 89
11, 11204, Control_c, 7, 7, 90
11, 11212, Control_c, 7, 7, 91
11, 11221, Control_c, 7, 7, 92
11, 11229, Control_c, 7, 7, 93
11, 11238, Control_c, 7, 7, 94
11, 11246, Control_c, 7, 7, 95
11, 11255, Control_c, 7, 7, 96
11, 11264, Control_c, 7, 7, 97
11, 11272, Control_c, 7, 7, 98
11, 11281, Control_c, 7, 7, 99
11, 11289, Control_c, 7, 7, 100
11, 11298, Control_c, 7, 7, 101
11, 11306, Control_c, 7, 7, 102
11, 11315, Control_c, 7, 7, 103
11, 11323, Control_c, 7, 7, 104
11, 11332, Control_c, 7, 7, 105
11, 11340, Control_c, 7, 7, 106
11, 11349, Control_c, 7, 7, 107
11, 11357, Control_c, 7, 7, 108
11, 11366, Control_c, 7, 7, 109
11, 11374, Control_c, 7, 7, 110
11, 11383, Control_c, 7, 7, 111
11, 11392, Control_c, 7, 7, 112
11, 11400, Control_c, 7, 7, 113
11, 11409, Control_c, 7, 7, 114
11, 11417, Control_c, 7, 7, 115
11, 11426, Control_c, 7, 7, 116
11, 11434, Control_c, 7, 7, 117
11, 11443, Control_c, 7, 7, 118
11, 11451, Control_c, 7, 7, 119
11, 11460, Control_c, 7, 7, 120
11, 11468, Control_c, 7, 7, 121
11, 11477, Control_c, 7, 7, 122
11, 11485, Control_c, 7, 7, 123
11, 11494, Control_c, 7, 7, 124
11, 11502, Control_c, 7, 7, 125
11, 11511, Control_c, 7, 7, 126
11, 11520, Control_c, 7, 7, 127
11, 12288, Note_on_c, 7, 69, 0
11, 12288, Note_on_c, 7, 70, 0
11, 12288, Note_on_c, 7, 74, 0
11, 12288, Note_on_c, 7, 75, 0
11, 12288, Note_on_c, 7, 78, 0
11, 12288, Note_on_c, 7, 79, 0
11, 16896, Control_c, 7, 7, 37
11, 16896, Note_on_c, 7, 69, 60
11, 16896, Note_on_c, 7, 70, 60
11, 16896, Note_on_c, 7, 74, 60
11, 16896, Note_on_c, 7, 75, 60
11, 16896, Note_on_c, 7, 78, 60
11, 16896, Note_on_c, 7, 79, 60
11, 16904, Control_c, 7, 7, 38
11, 16913, Control_c, 7, 7, 39
11, 16921, Control_c, 7, 7, 40
11, 16930, Control_c, 7, 7, 41
11, 16938, Control_c, 7, 7, 42
11, 16947, Control_c, 7, 7, 43
11, 16955, Control_c, 7, 7, 44
11, 16964, Control_c, 7, 7, 45
11, 16972, Control_c, 7, 7, 46
11, 16981, Control_c, 7, 7, 47
11, 16989, Control_c, 7, 7, 48
11, 16998, Control_c, 7, 7, 49
11, 17006, Control_c, 7, 7, 50
11, 17015, Control_c, 7, 7, 51
11, 17024, Control_c, 7, 7, 52
11, 17032, Control_c, 7, 7, 53
11, 17041, Control_c, 7, 7, 54
11, 17049, Control_c, 7, 7, 55
11, 17058, Control_c, 7, 7, 56
11, 17066, Control_c, 7, 7, 57
11, 17075, Control_c, 7, 7, 58
11, 17083, Control_c, 7, 7, 59
11, 17092, Control_c, 7, 7, 60
11, 17100, Control_c, 7, 7, 61
11, 17109, Control_c, 7, 7, 62
11, 17117, Control_c, 7, 7, 63
11, 17126, Control_c, 7, 7, 64
11, 17134, Control_c, 7, 7, 65
11, 17143, Control_c, 7, 7, 66
11, 17152, Control_c, 7, 7, 67
11, 17160, Control_c, 7, 7, 68
11, 17169, Control_c, 7, 7, 69
11, 17177, Control_c, 7, 7, 70
11, 17186, Control_c, 7, 7, 71
11, 17194, Control_c, 7, 7, 72
11, 17203, Control_c, 7, 7, 73
11, 17211, Control_c, 7, 7, 74
11, 17220, Control_c, 7, 7, 75
11, 17228, Control_c, 7, 7, 76
11, 17237, Control_c, 7, 7, 77
11, 17245, Control_c, 7, 7, 78
11, 17254, Control_c, 7, 7, 79
11, 17262, Control_c, 7, 7, 80
11, 17271, Control_c, 7, 7, 81
11, 17280, Control_c, 7, 7, 82
11, 17288, Control_c, 7, 7, 83
11, 17297, Control_c, 7, 7, 84
11, 17305, Control_c, 7, 7, 85
11, 17314, Control_c, 7, 7, 86
11, 17322, Control_c, 7, 7, 87
11, 17331, Control_c, 7, 7, 88
11, 17339, Control_c, 7, 7, 89
11, 17348, Control_c, 7, 7, 90
11, 17356, Control_c, 7, 7, 91
11, 17365, Control_c, 7, 7, 92
11, 17373, Control_c, 7, 7, 93
11, 17382, Control_c, 7, 7, 94
11, 17390, Control_c, 7, 7, 95
11, 17399, Control_c, 7, 7, 96
11, 17408, Control_c, 7, 7, 97
11, 17416, Control_c, 7, 7, 98
11, 17425, Control_c, 7, 7, 99
11, 17433, Control_c, 7, 7, 100
11, 17442, Control_c, 7, 7, 101
11, 17450, Control_c, 7, 7, 102
11, 17459, Control_c, 7, 7, 103
11, 17467, Control_c, 7, 7, 104
11, 17476, Control_c, 7, 7, 105
11, 17484, Control_c, 7, 7, 106
11, 17493, Control_c, 7, 7, 107
11, 17501, Control_c, 7, 7, 108
11, 17510, Control_c, 7, 7, 109
11, 17518, Control_c, 7, 7, 110
11, 17527, Control_c, 7, 7, 111
11, 17536, Control_c, 7, 7, 112
11, 17544, Control_c, 7, 7, 113
11, 17553, Control_c, 7, 7, 114
11, 17561, Control_c, 7, 7, 115
11, 17570, Control_c, 7, 7, 116
11, 17578, Control_c, 7, 7, 117
11, 17587, Control_c, 7, 7, 118
11, 17595, Control_c, 7, 7, 119
11, 17604, Control_c, 7, 7, 120
11, 17612, Control_c, 7, 7, 121
11, 17621, Control_c, 7, 7, 122
11, 17629, Control_c, 7, 7, 123
11, 17638, Control_c, 7, 7, 124
11, 17646, Control_c, 7, 7, 125
11, 17655, Control_c, 7, 7, 126
11, 17664, Control_c, 7, 7, 127
11, 18432, Note_on_c, 7, 69, 0
11, 18432, Note_on_c, 7, 70, 0
11, 18432, Note_on_c, 7, 74, 0
11, 18432, Note_on_c, 7, 75, 0
11, 18432, Note_on_c, 7, 78, 0
11, 18432, Note_on_c, 7, 79, 0
11, 23040, Control_c, 7, 7, 37
11, 23040, Note_on_c, 7, 69, 60
11, 23040, Note_on_c, 7, 70, 60
11, 23040, Note_on_c, 7, 74, 60
11, 23040, Note_on_c, 7, 75, 60
11, 23040, Note_on_c, 7, 78, 60
11, 23040, Note_on_c, 7, 79, 60
11, 23048, Control_c, 7, 7, 38
11, 23057, Control_c, 7, 7, 39
11, 23065, Control_c, 7, 7, 40
11, 23074, Control_c, 7, 7, 41
11, 23082, Control_c, 7, 7, 42
11, 23091, Control_c, 7, 7, 43
11, 23099, Control_c, 7, 7, 44
11, 23108, Control_c, 7, 7, 45
11, 23116, Control_c, 7, 7, 46
11, 23125, Control_c, 7, 7, 47
11, 23133, Control_c, 7, 7, 48
11, 23142, Control_c, 7, 7, 49
11, 23150, Control_c, 7, 7, 50
11, 23159, Control_c, 7, 7, 51
11, 23168, Control_c, 7, 7, 52
11, 23176, Control_c, 7, 7, 53
11, 23185, Control_c, 7, 7, 54
11, 23193, Control_c, 7, 7, 55
11, 23202, Control_c, 7, 7, 56
11, 23210, Control_c, 7, 7, 57
11, 23219, Control_c, 7, 7, 58
11, 23227, Control_c, 7, 7, 59
11, 23236, Control_c, 7, 7, 60
11, 23244, Control_c, 7, 7, 61
11, 23253, Control_c, 7, 7, 62
11, 23261, Control_c, 7, 7, 63
11, 23270, Control_c, 7, 7, 64
11, 23278, Control_c, 7, 7, 65
11, 23287, Control_c, 7, 7, 66
11, 23296, Control_c, 7, 7, 67
11, 23304, Control_c, 7, 7, 68
11, 23313, Control_c, 7, 7, 69
11, 23321, Control_c, 7, 7, 70
11, 23330, Control_c, 7, 7, 71
11, 23338, Control_c, 7, 7, 72
11, 23347, Control_c, 7, 7, 73
11, 23355, Control_c, 7, 7, 74
11, 23364, Control_c, 7, 7, 75
11, 23372, Control_c, 7, 7, 76
11, 23381, Control_c, 7, 7, 77
11, 23389, Control_c, 7, 7, 78
11, 23398, Control_c, 7, 7, 79
11, 23406, Control_c, 7, 7, 80
11, 23415, Control_c, 7, 7, 81
11, 23424, Control_c, 7, 7, 82
11, 23432, Control_c, 7, 7, 83
11, 23441, Control_c, 7, 7, 84
11, 23449, Control_c, 7, 7, 85
11, 23458, Control_c, 7, 7, 86
11, 23466, Control_c, 7, 7, 87
11, 23475, Control_c, 7, 7, 88
11, 23483, Control_c, 7, 7, 89
11, 23492, Control_c, 7, 7, 90
11, 23500, Control_c, 7, 7, 91
11, 23509, Control_c, 7, 7, 92
11, 23517, Control_c, 7, 7, 93
11, 23526, Control_c, 7, 7, 94
11, 23534, Control_c, 7, 7, 95
11, 23543, Control_c, 7, 7, 96
11, 23552, Control_c, 7, 7, 97
11, 23560, Control_c, 7, 7, 98
11, 23569, Control_c, 7, 7, 99
11, 23577, Control_c, 7, 7, 100
11, 23586, Control_c, 7, 7, 101
11, 23594, Control_c, 7, 7, 102
11, 23603, Control_c, 7, 7, 103
11, 23611, Control_c, 7, 7, 104
11, 23620, Control_c, 7, 7, 105
11, 23628, Control_c, 7, 7, 106
11, 23637, Control_c, 7, 7, 107
11, 23645, Control_c, 7, 7, 108
11, 23654, Control_c, 7, 7, 109
11, 23662, Control_c, 7, 7, 110
11, 23671, Control_c, 7, 7, 111
11, 23680, Control_c, 7, 7, 112
11, 23688, Control_c, 7, 7, 113
11, 23697, Control_c, 7, 7, 114
11, 23705, Control_c, 7, 7, 115
11, 23714, Control_c, 7, 7, 116
11, 23722, Control_c, 7, 7, 117
11, 23731, Control_c, 7, 7, 118
11, 23739, Control_c, 7, 7, 119
11, 23748, Control_c, 7, 7, 120
11, 23756, Control_c, 7, 7, 121
11, 23765, Control_c, 7, 7, 122
11, 23773, Control_c, 7, 7, 123
11, 23782, Control_c, 7, 7, 124
11, 23790, Control_c, 7, 7, 125
11, 23799, Control_c, 7, 7, 126
11, 23808, Control_c, 7, 7, 127
11, 24576, Note_on_c, 7, 69, 0
11, 24576, Note_on_c, 7, 70, 0
11, 24576, Note_on_c, 7, 74, 0
11, 24576, Note_on_c, 7, 75, 0
11, 24576, Note_on_c, 7, 78, 0
11, 24576, Note_on_c, 7, 79, 0
11, 29184, Control_c, 7, 7, 37
11, 29184, Note_on_c, 7, 69, 60
11, 29184, Note_on_c, 7, 70, 60
11, 29184, Note_on_c, 7, 74, 60
11, 29184, Note_on_c, 7, 75, 60
11, 29184, Note_on_c, 7, 78, 60
11, 29184, Note_on_c, 7, 79, 60
11, 29192, Control_c, 7, 7, 38
11, 29201, Control_c, 7, 7, 39
11, 29209, Control_c, 7, 7, 40
11, 29218, Control_c, 7, 7, 41
11, 29226, Control_c, 7, 7, 42
11, 29235, Control_c, 7, 7, 43
11, 29243, Control_c, 7, 7, 44
11, 29252, Control_c, 7, 7, 45
11, 29260, Control_c, 7, 7, 46
11, 29269, Control_c, 7, 7, 47
11, 29277, Control_c, 7, 7, 48
11, 29286, Control_c, 7, 7, 49
11, 29294, Control_c, 7, 7, 50
11, 29303, Control_c, 7, 7, 51
11, 29312, Control_c, 7, 7, 52
11, 29320, Control_c, 7, 7, 53
11, 29329, Control_c, 7, 7, 54
11, 29337, Control_c, 7, 7, 55
11, 29346, Control_c, 7, 7, 56
11, 29354, Control_c, 7, 7, 57
11, 29363, Control_c, 7, 7, 58
11, 29371, Control_c, 7, 7, 59
11, 29380, Control_c, 7, 7, 60
11, 29388, Control_c, 7, 7, 61
11, 29397, Control_c, 7, 7, 62
11, 29405, Control_c, 7, 7, 63
11, 29414, Control_c, 7, 7, 64
11, 29422, Control_c, 7, 7, 65
11, 29431, Control_c, 7, 7, 66
11, 29440, Control_c, 7, 7, 67
11, 29448, Control_c, 7, 7, 68
11, 29457, Control_c, 7, 7, 69
11, 29465, Control_c, 7, 7, 70
11, 29474, Control_c, 7, 7, 71
11, 29482, Control_c, 7, 7, 72
11, 29491, Control_c, 7, 7, 73
11, 29499, Control_c, 7, 7, 74
11, 29508, Control_c, 7, 7, 75
11, 29516, Control_c, 7, 7, 76
11, 29525, Control_c, 7, 7, 77
11, 29533, Control_c, 7, 7, 78
11, 29542, Control_c, 7, 7, 79
11, 29550, Control_c, 7, 7, 80
11, 29559, Control_c, 7, 7, 81
11, 29568, Control_c, 7, 7, 82
11, 29576, Control_c, 7, 7, 83
11, 29585, Control_c, 7, 7, 84
11, 29593, Control_c, 7, 7, 85
11, 29602, Control_c, 7, 7, 86
11, 29610, Control_c, 7, 7, 87
11, 29619, Control_c, 7, 7, 88
11, 29627, Control_c, 7, 7, 89
11, 29636, Control_c, 7, 7, 90
11, 29644, Control_c, 7, 7, 91
11, 29653, Control_c, 7, 7, 92
11, 29661, Control_c, 7, 7, 93
11, 29670, Control_c, 7, 7, 94
11, 29678, Control_c, 7, 7, 95
11, 29687, Control_c, 7, 7, 96
11, 29696, Control_c, 7, 7, 97
11, 29704, Control_c, 7, 7, 98
11, 29713, Control_c, 7, 7, 99
11, 29721, Control_c, 7, 7, 100
11, 29730, Control_c, 7, 7, 101
11, 29738, Control_c, 7, 7, 102
11, 29747, Control_c, 7, 7, 103
11, 29755, Control_c, 7, 7, 104
11, 29764, Control_c, 7, 7, 105
11, 29772, Control_c, 7, 7, 106
11, 29781, Control_c, 7, 7, 107
11, 29789, Control_c, 7, 7, 108
11, 29798, Control_c, 7, 7, 109
11, 29806, Control_c, 7, 7, 110
11, 29815, Control_c, 7, 7, 111
11, 29824, Control_c, 7, 7, 112
11, 29832, Control_c, 7, 7, 113
11, 29841, Control_c, 7, 7, 114
11, 29849, Control_c, 7, 7, 115
11, 29858, Control_c, 7, 7, 116
11, 29866, Control_c, 7, 7, 117
11, 29875, Control_c, 7, 7, 118
11, 29883, Control_c, 7, 7, 119
11, 29892, Control_c, 7, 7, 120
11, 29900, Control_c, 7, 7, 121
11, 29909, Control_c, 7, 7, 122
11, 29917, Control_c, 7, 7, 123
11, 29926, Control_c, 7, 7, 124
11, 29934, Control_c, 7, 7, 125
11, 29943, Control_c, 7, 7, 126
11, 29952, Control_c, 7, 7, 127
11, 30720, Note_on_c, 7, 69, 0
11, 30720, Note_on_c, 7, 70, 0
11, 30720, Note_on_c, 7, 74, 0
11, 30720, Note_on_c, 7, 75, 0
11, 30720, Note_on_c, 7, 78, 0
11, 30720, Note_on_c, 7, 79, 0
11, 47616, Control_c, 7, 7, 37
11, 47616, Note_on_c, 7, 69, 60
11, 47616, Note_on_c, 7, 70, 60
11, 47616, Note_on_c, 7, 74, 60
11, 47616, Note_on_c, 7, 75, 60
11, 47616, Note_on_c, 7, 78, 60
11, 47616, Note_on_c, 7, 79, 60
11, 47624, Control_c, 7, 7, 38
11, 47633, Control_c, 7, 7, 39
11, 47641, Control_c, 7, 7, 40
11, 47650, Control_c, 7, 7, 41
11, 47658, Control_c, 7, 7, 42
11, 47667, Control_c, 7, 7, 43
11, 47675, Control_c, 7, 7, 44
11, 47684, Control_c, 7, 7, 45
11, 47692, Control_c, 7, 7, 46
11, 47701, Control_c, 7, 7, 47
11, 47709, Control_c, 7, 7, 48
11, 47718, Control_c, 7, 7, 49
11, 47726, Control_c, 7, 7, 50
11, 47735, Control_c, 7, 7, 51
11, 47744, Control_c, 7, 7, 52
11, 47752, Control_c, 7, 7, 53
11, 47761, Control_c, 7, 7, 54
11, 47769, Control_c, 7, 7, 55
11, 47778, Control_c, 7, 7, 56
11, 47786, Control_c, 7, 7, 57
11, 47795, Control_c, 7, 7, 58
11, 47803, Control_c, 7, 7, 59
11, 47812, Control_c, 7, 7, 60
11, 47820, Control_c, 7, 7, 61
11, 47829, Control_c, 7, 7, 62
11, 47837, Control_c, 7, 7, 63
11, 47846, Control_c, 7, 7, 64
11, 47854, Control_c, 7, 7, 65
11, 47863, Control_c, 7, 7, 66
11, 47872, Control_c, 7, 7, 67
11, 47880, Control_c, 7, 7, 68
11, 47889, Control_c, 7, 7, 69
11, 47897, Control_c, 7, 7, 70
11, 47906, Control_c, 7, 7, 71
11, 47914, Control_c, 7, 7, 72
11, 47923, Control_c, 7, 7, 73
11, 47931, Control_c, 7, 7, 74
11, 47940, Control_c, 7, 7, 75
11, 47948, Control_c, 7, 7, 76
11, 47957, Control_c, 7, 7, 77
11, 47965, Control_c, 7, 7, 78
11, 47974, Control_c, 7, 7, 79
11, 47982, Control_c, 7, 7, 80
11, 47991, Control_c, 7, 7, 81
11, 48000, Control_c, 7, 7, 82
11, 48008, Control_c, 7, 7, 83
11, 48017, Control_c, 7, 7, 84
11, 48025, Control_c, 7, 7, 85
11, 48034, Control_c, 7, 7, 86
11, 48042, Control_c, 7, 7, 87
11, 48051, Control_c, 7, 7, 88
11, 48059, Control_c, 7, 7, 89
11, 48068, Control_c, 7, 7, 90
11, 48076, Control_c, 7, 7, 91
11, 48085, Control_c, 7, 7, 92
11, 48093, Control_c, 7, 7, 93
11, 48102, Control_c, 7, 7, 94
11, 48110, Control_c, 7, 7, 95
11, 48119, Control_c, 7, 7, 96
11, 48128, Control_c, 7, 7, 97
11, 48136, Control_c, 7, 7, 98
11, 48145, Control_c, 7, 7, 99
11, 48153, Control_c, 7, 7, 100
11, 48162, Control_c, 7, 7, 101
11, 48170, Control_c, 7, 7, 102
11, 48179, Control_c, 7, 7, 103
11, 48187, Control_c, 7, 7, 104
11, 48196, Control_c, 7, 7, 105
11, 48204, Control_c, 7, 7, 106
11, 48213, Control_c, 7, 7, 107
11, 48221, Control_c, 7, 7, 108
11, 48230, Control_c, 7, 7, 109
11, 48238, Control_c, 7, 7, 110
11, 48247, Control_c, 7, 7, 111
11, 48256, Control_c, 7, 7, 112
11, 48264, Control_c, 7, 7, 113
11, 48273, Control_c, 7, 7, 114
11, 48281, Control_c, 7, 7, 115
11, 48290, Control_c, 7, 7, 116
11, 48298, Control_c, 7, 7, 117
11, 48307, Control_c, 7, 7, 118
11, 48315, Control_c, 7, 7, 119
11, 48324, Control_c, 7, 7, 120
11, 48332, Control_c, 7, 7, 121
11, 48341, Control_c, 7, 7, 122
11, 48349, Control_c, 7, 7, 123
11, 48358, Control_c, 7, 7, 124
11, 48366, Control_c, 7, 7, 125
11, 48375, Control_c, 7, 7, 126
11, 48384, Control_c, 7, 7, 127
11, 49152, Note_on_c, 7, 69, 0
11, 49152, Note_on_c, 7, 70, 0
11, 49152, Note_on_c, 7, 74, 0
11, 49152, Note_on_c, 7, 75, 0
11, 49152, Note_on_c, 7, 78, 0
11, 49152, Note_on_c, 7, 79, 0
11, 53760, Control_c, 7, 7, 37
11, 53760, Note_on_c, 7, 69, 60
11, 53760, Note_on_c, 7, 70, 60
11, 53760, Note_on_c, 7, 74, 60
11, 53760, Note_on_c, 7, 75, 60
11, 53760, Note_on_c, 7, 78, 60
11, 53760, Note_on_c, 7, 79, 60
11, 53768, Control_c, 7, 7, 38
11, 53777, Control_c, 7, 7, 39
11, 53785, Control_c, 7, 7, 40
11, 53794, Control_c, 7, 7, 41
11, 53802, Control_c, 7, 7, 42
11, 53811, Control_c, 7, 7, 43
11, 53819, Control_c, 7, 7, 44
11, 53828, Control_c, 7, 7, 45
11, 53836, Control_c, 7, 7, 46
11, 53845, Control_c, 7, 7, 47
11, 53853, Control_c, 7, 7, 48
11, 53862, Control_c, 7, 7, 49
11, 53870, Control_c, 7, 7, 50
11, 53879, Control_c, 7, 7, 51
11, 53888, Control_c, 7, 7, 52
11, 53896, Control_c, 7, 7, 53
11, 53905, Control_c, 7, 7, 54
11, 53913, Control_c, 7, 7, 55
11, 53922, Control_c, 7, 7, 56
11, 53930, Control_c, 7, 7, 57
11, 53939, Control_c, 7, 7, 58
11, 53947, Control_c, 7, 7, 59
11, 53956, Control_c, 7, 7, 60
11, 53964, Control_c, 7, 7, 61
11, 53973, Control_c, 7, 7, 62
11, 53981, Control_c, 7, 7, 63
11, 53990, Control_c, 7, 7, 64
11, 53998, Control_c, 7, 7, 65
11, 54007, Control_c, 7, 7, 66
11, 54016, Control_c, 7, 7, 67
11, 54024, Control_c, 7, 7, 68
11, 54033, Control_c, 7, 7, 69
11, 54041, Control_c, 7, 7, 70
11, 54050, Control_c, 7, 7, 71
11, 54058, Control_c, 7, 7, 72
11, 54067, Control_c, 7, 7, 73
11, 54075, Control_c, 7, 7, 74
11, 54084, Control_c, 7, 7, 75
11, 54092, Control_c, 7, 7, 76
11, 54101, Control_c, 7, 7, 77
11, 54109, Control_c, 7, 7, 78
11, 54118, Control_c, 7, 7, 79
11, 54126, Control_c, 7, 7, 80
11, 54135, Control_c, 7, 7, 81
11, 54144, Control_c, 7, 7, 82
11, 54152, Control_c, 7, 7, 83
11, 54161, Control_c, 7, 7, 84
11, 54169, Control_c, 7, 7, 85
11, 54178, Control_c, 7, 7, 86
11, 54186, Control_c, 7, 7, 87
11, 54195, Control_c, 7, 7, 88
11, 54203, Control_c, 7, 7, 89
11, 54212, Control_c, 7, 7, 90
11, 54220, Control_c, 7, 7, 91
11, 54229, Control_c, 7, 7, 92
11, 54237, Control_c, 7, 7, 93
11, 54246, Control_c, 7, 7, 94
11, 54254, Control_c, 7, 7, 95
11, 54263, Control_c, 7, 7, 96
11, 54272, Control_c, 7, 7, 97
11, 54280, Control_c, 7, 7, 98
11, 54289, Control_c, 7, 7, 99
11, 54297, Control_c, 7, 7, 100
11, 54306, Control_c, 7, 7, 101
11, 54314, Control_c, 7, 7, 102
11, 54323, Control_c, 7, 7, 103
11, 54331, Control_c, 7, 7, 104
11, 54340, Control_c, 7, 7, 105
11, 54348, Control_c, 7, 7, 106
11, 54357, Control_c, 7, 7, 107
11, 54365, Control_c, 7, 7, 108
11, 54374, Control_c, 7, 7, 109
11, 54382, Control_c, 7, 7, 110
11, 54391, Control_c, 7, 7, 111
11, 54400, Control_c, 7, 7, 112
11, 54408, Control_c, 7, 7, 113
11, 54417, Control_c, 7, 7, 114
11, 54425, Control_c, 7, 7, 115
11, 54434, Control_c, 7, 7, 116
11, 54442, Control_c, 7, 7, 117
11, 54451, Control_c, 7, 7, 118
11, 54459, Control_c, 7, 7, 119
11, 54468, Control_c, 7, 7, 120
11, 54476, Control_c, 7, 7, 121
11, 54485, Control_c, 7, 7, 122
11, 54493, Control_c, 7, 7, 123
11, 54502, Control_c, 7, 7, 124
11, 54510, Control_c, 7, 7, 125
11, 54519, Control_c, 7, 7, 126
11, 54528, Control_c, 7, 7, 127
11, 55296, Note_on_c, 7, 69, 0
11, 55296, Note_on_c, 7, 70, 0
11, 55296, Note_on_c, 7, 74, 0
11, 55296, Note_on_c, 7, 75, 0
11, 55296, Note_on_c, 7, 78, 0
11, 55296, Note_on_c, 7, 79, 0
11, 59904, Control_c, 7, 7, 37
11, 59904, Note_on_c, 7, 69, 60
11, 59904, Note_on_c, 7, 70, 60
11, 59904, Note_on_c, 7, 74, 60
11, 59904, Note_on_c, 7, 75, 60
11, 59904, Note_on_c, 7, 78, 60
11, 59904, Note_on_c, 7, 79, 60
11, 59912, Control_c, 7, 7, 38
11, 59921, Control_c, 7, 7, 39
11, 59929, Control_c, 7, 7, 40
11, 59938, Control_c, 7, 7, 41
11, 59946, Control_c, 7, 7, 42
11, 59955, Control_c, 7, 7, 43
11, 59963, Control_c, 7, 7, 44
11, 59972, Control_c, 7, 7, 45
11, 59980, Control_c, 7, 7, 46
11, 59989, Control_c, 7, 7, 47
11, 59997, Control_c, 7, 7, 48
11, 60006, Control_c, 7, 7, 49
11, 60014, Control_c, 7, 7, 50
11, 60023, Control_c, 7, 7, 51
11, 60032, Control_c, 7, 7, 52
11, 60040, Control_c, 7, 7, 53
11, 60049, Control_c, 7, 7, 54
11, 60057, Control_c, 7, 7, 55
11, 60066, Control_c, 7, 7, 56
11, 60074, Control_c, 7, 7, 57
11, 60083, Control_c, 7, 7, 58
11, 60091, Control_c, 7, 7, 59
11, 60100, Control_c, 7, 7, 60
11, 60108, Control_c, 7, 7, 61
11, 60117, Control_c, 7, 7, 62
11, 60125, Control_c, 7, 7, 63
11, 60134, Control_c, 7, 7, 64
11, 60142, Control_c, 7, 7, 65
11, 60151, Control_c, 7, 7, 66
11, 60160, Control_c, 7, 7, 67
11, 60168, Control_c, 7, 7, 68
11, 60177, Control_c, 7, 7, 69
11, 60185, Control_c, 7, 7, 70
11, 60194, Control_c, 7, 7, 71
11, 60202, Control_c, 7, 7, 72
11, 60211, Control_c, 7, 7, 73
11, 60219, Control_c, 7, 7, 74
11, 60228, Control_c, 7, 7, 75
11, 60236, Control_c, 7, 7, 76
11, 60245, Control_c, 7, 7, 77
11, 60253, Control_c, 7, 7, 78
11, 60262, Control_c, 7, 7, 79
11, 60270, Control_c, 7, 7, 80
11, 60279, Control_c, 7, 7, 81
11, 60288, Control_c, 7, 7, 82
11, 60296, Control_c, 7, 7, 83
11, 60305, Control_c, 7, 7, 84
11, 60313, Control_c, 7, 7, 85
11, 60322, Control_c, 7, 7, 86
11, 60330, Control_c, 7, 7, 87
11, 60339, Control_c, 7, 7, 88
11, 60347, Control_c, 7, 7, 89
11, 60356, Control_c, 7, 7, 90
11, 60364, Control_c, 7, 7, 91
11, 60373, Control_c, 7, 7, 92
11, 60381, Control_c, 7, 7, 93
11, 60390, Control_c, 7, 7, 94
11, 60398, Control_c, 7, 7, 95
11, 60407, Control_c, 7, 7, 96
11, 60416, Control_c, 7, 7, 97
11, 60424, Control_c, 7, 7, 98
11, 60433, Control_c, 7, 7, 99
11, 60441, Control_c, 7, 7, 100
11, 60450, Control_c, 7, 7, 101
11, 60458, Control_c, 7, 7, 102
11, 60467, Control_c, 7, 7, 103
11, 60475, Control_c, 7, 7, 104
11, 60484, Control_c, 7, 7, 105
11, 60492, Control_c, 7, 7, 106
11, 60501, Control_c, 7, 7, 107
11, 60509, Control_c, 7, 7, 108
11, 60518, Control_c, 7, 7, 109
11, 60526, Control_c, 7, 7, 110
11, 60535, Control_c, 7, 7, 111
11, 60544, Control_c, 7, 7, 112
11, 60552, Control_c, 7, 7, 113
11, 60561, Control_c, 7, 7, 114
11, 60569, Control_c, 7, 7, 115
11, 60578, Control_c, 7, 7, 116
11, 60586, Control_c, 7, 7, 117
11, 60595, Control_c, 7, 7, 118
11, 60603, Control_c, 7, 7, 119
11, 60612, Control_c, 7, 7, 120
11, 60620, Control_c, 7, 7, 121
11, 60629, Control_c, 7, 7, 122
11, 60637, Control_c, 7, 7, 123
11, 60646, Control_c, 7, 7, 124
11, 60654, Control_c, 7, 7, 125
11, 60663, Control_c, 7, 7, 126
11, 60672, Control_c, 7, 7, 127
11, 61440, Note_on_c, 7, 69, 0
11, 61440, Note_on_c, 7, 70, 0
11, 61440, Note_on_c, 7, 74, 0
11, 61440, Note_on_c, 7, 75, 0
11, 61440, Note_on_c, 7, 78, 0
11, 61440, Note_on_c, 7, 79, 0
11, 66048, Control_c, 7, 7, 37
11, 66048, Note_on_c, 7, 69, 60
11, 66048, Note_on_c, 7, 70, 60
11, 66048, Note_on_c, 7, 74, 60
11, 66048, Note_on_c, 7, 75, 60
11, 66048, Note_on_c, 7, 78, 60
11, 66048, Note_on_c, 7, 79, 60
11, 66056, Control_c, 7, 7, 38
11, 66065, Control_c, 7, 7, 39
11, 66073, Control_c, 7, 7, 40
11, 66082, Control_c, 7, 7, 41
11, 66090, Control_c, 7, 7, 42
11, 66099, Control_c, 7, 7, 43
11, 66107, Control_c, 7, 7, 44
11, 66116, Control_c, 7, 7, 45
11, 66124, Control_c, 7, 7, 46
11, 66133, Control_c, 7, 7, 47
11, 66141, Control_c, 7, 7, 48
11, 66150, Control_c, 7, 7, 49
11, 66158, Control_c, 7, 7, 50
11, 66167, Control_c, 7, 7, 51
11, 66176, Control_c, 7, 7, 52
11, 66184, Control_c, 7, 7, 53
11, 66193, Control_c, 7, 7, 54
11, 66201, Control_c, 7, 7, 55
11, 66210, Control_c, 7, 7, 56
11, 66218, Control_c, 7, 7, 57
11, 66227, Control_c, 7, 7, 58
11, 66235, Control_c, 7, 7, 59
11, 66244, Control_c, 7, 7, 60
11, 66252, Control_c, 7, 7, 61
11, 66261, Control_c, 7, 7, 62
11, 66269, Control_c, 7, 7, 63
11, 66278, Control_c, 7, 7, 64
11, 66286, Control_c, 7, 7, 65
11, 66295, Control_c, 7, 7, 66
11, 66304, Control_c, 7, 7, 67
11, 66312, Control_c, 7, 7, 68
11, 66321, Control_c, 7, 7, 69
11, 66329, Control_c, 7, 7, 70
11, 66338, Control_c, 7, 7, 71
11, 66346, Control_c, 7, 7, 72
11, 66355, Control_c, 7, 7, 73
11, 66363, Control_c, 7, 7, 74
11, 66372, Control_c, 7, 7, 75
11, 66380, Control_c, 7, 7, 76
11, 66389, Control_c, 7, 7, 77
11, 66397, Control_c, 7, 7, 78
11, 66406, Control_c, 7, 7, 79
11, 66414, Control_c, 7, 7, 80
11, 66423, Control_c, 7, 7, 81
11, 66432, Control_c, 7, 7, 82
11, 66440, Control_c, 7, 7, 83
11, 66449, Control_c, 7, 7, 84
11, 66457, Control_c, 7, 7, 85
11, 66466, Control_c, 7, 7, 86
11, 66474, Control_c, 7, 7, 87
11, 66483, Control_c, 7, 7, 88
11, 66491, Control_c, 7, 7, 89
11, 66500, Control_c, 7, 7, 90
11, 66508, Control_c, 7, 7, 91
11, 66517, Control_c, 7, 7, 92
11, 66525, Control_c, 7, 7, 93
11, 66534, Control_c, 7, 7, 94
11, 66542, Control_c, 7, 7, 95
11, 66551, Control_c, 7, 7, 96
11, 66560, Control_c, 7, 7, 97
11, 66568, Control_c, 7, 7, 98
11, 66577, Control_c, 7, 7, 99
11, 66585, Control_c, 7, 7, 100
11, 66594, Control_c, 7, 7, 101
11, 66602, Control_c, 7, 7, 102
11, 66611, Control_c, 7, 7, 103
11, 66619, Control_c, 7, 7, 104
11, 66628, Control_c, 7, 7, 105
11, 66636, Control_c, 7, 7, 106
11, 66645, Control_c, 7, 7, 107
11, 66653, Control_c, 7, 7, 108
11, 66662, Control_c, 7, 7, 109
11, 66670, Control_c, 7, 7, 110
11, 66679, Control_c, 7, 7, 111
11, 66688, Control_c, 7, 7, 112
11, 66696, Control_c, 7, 7, 113
11, 66705, Control_c, 7, 7, 114
11, 66713, Control_c, 7, 7, 115
11, 66722, Control_c, 7, 7, 116
11, 66730, Control_c, 7, 7, 117
11, 66739, Control_c, 7, 7, 118
11, 66747, Control_c, 7, 7, 119
11, 66756, Control_c, 7, 7, 120
11, 66764, Control_c, 7, 7, 121
11, 66773, Control_c, 7, 7, 122
11, 66781, Control_c, 7, 7, 123
11, 66790, Control_c, 7, 7, 124
11, 66798, Control_c, 7, 7, 125
11, 66807, Control_c, 7, 7, 126
11, 66816, Control_c, 7, 7, 127
11, 67584, Note_on_c, 7, 69, 0
11, 67584, Note_on_c, 7, 70, 0
11, 67584, Note_on_c, 7, 74, 0
11, 67584, Note_on_c, 7, 75, 0
11, 67584, Note_on_c, 7, 78, 0
11, 67584, Note_on_c, 7, 79, 0
11, 67584, End_track
12, 0, Start_track
12, 0, MIDI_port, 0
12, 0, Title_t, "Staff-10"
12, 0, Control_c, 8, 7, 127
12, 0, Control_c, 8, 10, 64
12, 0, Control_c, 8, 7, 127
12, 0, Control_c, 8, 10, 64
12, 0, Program_c, 8, 52
12, 4608, Control_c, 8, 7, 67
12, 4608, Note_on_c, 8, 65, 60
12, 4608, Note_on_c, 8, 77, 60
12, 4620, Control_c, 8, 7, 68
12, 4633, Control_c, 8, 7, 69
12, 4646, Control_c, 8, 7, 70
12, 4659, Control_c, 8, 7, 71
12, 4672, Control_c, 8, 7, 72
12, 4684, Control_c, 8, 7, 73
12, 4697, Control_c, 8, 7, 74
12, 4710, Control_c, 8, 7, 75
12, 4723, Control_c, 8, 7, 76
12, 4736, Control_c, 8, 7, 77
12, 4748, Control_c, 8, 7, 78
12, 4761, Control_c, 8, 7, 79
12, 4774, Control_c, 8, 7, 80
12, 4787, Control_c, 8, 7, 81
12, 4800, Control_c, 8, 7, 82
12, 4812, Control_c, 8, 7, 83
12, 4825, Control_c, 8, 7, 84
12, 4838, Control_c, 8, 7, 85
12, 4851, Control_c, 8, 7, 86
12, 4864, Control_c, 8, 7, 87
12, 4876, Control_c, 8, 7, 88
12, 4889, Control_c, 8, 7, 89
12, 4902, Control_c, 8, 7, 90
12, 4915, Control_c, 8, 7, 91
12, 4928, Control_c, 8, 7, 92
12, 4940, Control_c, 8, 7, 93
12, 4953, Control_c, 8, 7, 94
12, 4966, Control_c, 8, 7, 95
12, 4979, Control_c, 8, 7, 96
12, 4992, Control_c, 8, 7, 97
12, 5004, Control_c, 8, 7, 98
12, 5017, Control_c, 8, 7, 99
12, 5030, Control_c, 8, 7, 100
12, 5043, Control_c, 8, 7, 101
12, 5056, Control_c, 8, 7, 102
12, 5068, Control_c, 8, 7, 103
12, 5081, Control_c, 8, 7, 104
12, 5094, Control_c, 8, 7, 105
12, 5107, Control_c, 8, 7, 106
12, 5120, Control_c, 8, 7, 107
12, 5132, Control_c, 8, 7, 108
12, 5145, Control_c, 8, 7, 109
12, 5158, Control_c, 8, 7, 110
12, 5171, Control_c, 8, 7, 111
12, 5184, Control_c, 8, 7, 112
12, 5196, Control_c, 8, 7, 113
12, 5209, Control_c, 8, 7, 114
12, 5222, Control_c, 8, 7, 115
12, 5235, Control_c, 8, 7, 116
12, 5248, Control_c, 8, 7, 117
12, 5260, Control_c, 8, 7, 118
12, 5273, Control_c, 8, 7, 119
12, 5286, Control_c, 8, 7, 120
12, 5299, Control_c, 8, 7, 121
12, 5312, Control_c, 8, 7, 122
12, 5324, Control_c, 8, 7, 123
12, 5337, Control_c, 8, 7, 124
12, 5350, Control_c, 8, 7, 125
12, 5363, Control_c, 8, 7, 126
12, 5376, Control_c, 8, 7, 127
12, 6144, Note_on_c, 8, 65, 0
12, 6144, Note_on_c, 8, 77, 0
12, 32256, Control_c, 8, 7, 67
12, 32256, Note_on_c, 8, 64, 60
12, 32256, Note_on_c, 8, 76, 60
12, 32268, Control_c, 8, 7, 68
12, 32281, Control_c, 8, 7, 69
12, 32294, Control_c, 8, 7, 70
12, 32307, Control_c, 8, 7, 71
12, 32320, Control_c, 8, 7, 72
12, 32332, Control_c, 8, 7, 73
12, 32345, Control_c, 8, 7, 74
12, 32358, Control_c, 8, 7, 75
12, 32371, Control_c, 8, 7, 76
12, 32384, Control_c, 8, 7, 77
12, 32396, Control_c, 8, 7, 78
12, 32409, Control_c, 8, 7, 79
12, 32422, Control_c, 8, 7, 80
12, 32435, Control_c, 8, 7, 81
12, 32448, Control_c, 8, 7, 82
12, 32460, Control_c, 8, 7, 83
12, 32473, Control_c, 8, 7, 84
12, 32486, Control_c, 8, 7, 85
12, 32499, Control_c, 8, 7, 86
12, 32512, Control_c, 8, 7, 87
12, 32524, Control_c, 8, 7, 88
12, 32537, Control_c, 8, 7, 89
12, 32550, Control_c, 8, 7, 90
12, 32563, Control_c, 8, 7, 91
12, 32576, Control_c, 8, 7, 92
12, 32588, Control_c, 8, 7, 93
12, 32601, Control_c, 8, 7, 94
12, 32614, Control_c, 8, 7, 95
12, 32627, Control_c, 8, 7, 96
12, 32640, Control_c, 8, 7, 97
12, 32652, Control_c, 8, 7, 98
12, 32665, Control_c, 8, 7, 99
12, 32678, Control_c, 8, 7, 100
12, 32691, Control_c, 8, 7, 101
12, 32704, Control_c, 8, 7, 102
12, 32716, Control_c, 8, 7, 103
12, 32729, Control_c, 8, 7, 104
12, 32742, Control_c, 8, 7, 105
12, 32755, Control_c, 8, 7, 106
12, 32768, Control_c, 8, 7, 107
12, 32780, Control_c, 8, 7, 108
12, 32793, Control_c, 8, 7, 109
12, 32806, Control_c, 8, 7, 110
12, 32819, Control_c, 8, 7, 111
12, 32832, Control_c, 8, 7, 112
12, 32844, Control_c, 8, 7, 113
12, 32857, Control_c, 8, 7, 114
12, 32870, Control_c, 8, 7, 115
12, 32883, Control_c, 8, 7, 116
12, 32896, Control_c, 8, 7, 117
12, 32908, Control_c, 8, 7, 118
12, 32921, Control_c, 8, 7, 119
12, 32934, Control_c, 8, 7, 120
12, 32947, Control_c, 8, 7, 121
12, 32960, Control_c, 8, 7, 122
12, 32972, Control_c, 8, 7, 123
12, 32985, Control_c, 8, 7, 124
12, 32998, Control_c, 8, 7, 125
12, 33011, Control_c, 8, 7, 126
12, 33024, Control_c, 8, 7, 127
12, 33792, Note_on_c, 8, 64, 0
12, 33792, Note_on_c, 8, 76, 0
12, 35328, Control_c, 8, 7, 67
12, 35328, Note_on_c, 8, 63, 60
12, 35328, Note_on_c, 8, 75, 60
12, 35340, Control_c, 8, 7, 68
12, 35353, Control_c, 8, 7, 69
12, 35366, Control_c, 8, 7, 70
12, 35379, Control_c, 8, 7, 71
12, 35392, Control_c, 8, 7, 72
12, 35404, Control_c, 8, 7, 73
12, 35417, Control_c, 8, 7, 74
12, 35430, Control_c, 8, 7, 75
12, 35443, Control_c, 8, 7, 76
12, 35456, Control_c, 8, 7, 77
12, 35468, Control_c, 8, 7, 78
12, 35481, Control_c, 8, 7, 79
12, 35494, Control_c, 8, 7, 80
12, 35507, Control_c, 8, 7, 81
12, 35520, Control_c, 8, 7, 82
12, 35532, Control_c, 8, 7, 83
12, 35545, Control_c, 8, 7, 84
12, 35558, Control_c, 8, 7, 85
12, 35571, Control_c, 8, 7, 86
12, 35584, Control_c, 8, 7, 87
12, 35596, Control_c, 8, 7, 88
12, 35609, Control_c, 8, 7, 89
12, 35622, Control_c, 8, 7, 90
12, 35635, Control_c, 8, 7, 91
12, 35648, Control_c, 8, 7, 92
12, 35660, Control_c, 8, 7, 93
12, 35673, Control_c, 8, 7, 94
12, 35686, Control_c, 8, 7, 95
12, 35699, Control_c, 8, 7, 96
12, 35712, Control_c, 8, 7, 97
12, 35724, Control_c, 8, 7, 98
12, 35737, Control_c, 8, 7, 99
12, 35750, Control_c, 8, 7, 100
12, 35763, Control_c, 8, 7, 101
12, 35776, Control_c, 8, 7, 102
12, 35788, Control_c, 8, 7, 103
12, 35801, Control_c, 8, 7, 104
12, 35814, Control_c, 8, 7, 105
12, 35827, Control_c, 8, 7, 106
12, 35840, Control_c, 8, 7, 107
12, 35852, Control_c, 8, 7, 108
12, 35865, Control_c, 8, 7, 109
12, 35878, Control_c, 8, 7, 110
12, 35891, Control_c, 8, 7, 111
12, 35904, Control_c, 8, 7, 112
12, 35916, Control_c, 8, 7, 113
12, 35929, Control_c, 8, 7, 114
12, 35942, Control_c, 8, 7, 115
12, 35955, Control_c, 8, 7, 116
12, 35968, Control_c, 8, 7, 117
12, 35980, Control_c, 8, 7, 118
12, 35993, Control_c, 8, 7, 119
12, 36006, Control_c, 8, 7, 120
12, 36019, Control_c, 8, 7, 121
12, 36032, Control_c, 8, 7, 122
12, 36044, Control_c, 8, 7, 123
12, 36057, Control_c, 8, 7, 124
12, 36070, Control_c, 8, 7, 125
12, 36083, Control_c, 8, 7, 126
12, 36096, Control_c, 8, 7, 127
12, 36864, Note_on_c, 8, 63, 0
12, 36864, Note_on_c, 8, 75, 0
12, 38400, Control_c, 8, 7, 67
12, 38400, Note_on_c, 8, 62, 60
12, 38400, Note_on_c, 8, 74, 60
12, 38412, Control_c, 8, 7, 68
12, 38425, Control_c, 8, 7, 69
12, 38438, Control_c, 8, 7, 70
12, 38451, Control_c, 8, 7, 71
12, 38464, Control_c, 8, 7, 72
12, 38476, Control_c, 8, 7, 73
12, 38489, Control_c, 8, 7, 74
12, 38502, Control_c, 8, 7, 75
12, 38515, Control_c, 8, 7, 76
12, 38528, Control_c, 8, 7, 77
12, 38540, Control_c, 8, 7, 78
12, 38553, Control_c, 8, 7, 79
12, 38566, Control_c, 8, 7, 80
12, 38579, Control_c, 8, 7, 81
12, 38592, Control_c, 8, 7, 82
12, 38604, Control_c, 8, 7, 83
12, 38617, Control_c, 8, 7, 84
12, 38630, Control_c, 8, 7, 85
12, 38643, Control_c, 8, 7, 86
12, 38656, Control_c, 8, 7, 87
12, 38668, Control_c, 8, 7, 88
12, 38681, Control_c, 8, 7, 89
12, 38694, Control_c, 8, 7, 90
12, 38707, Control_c, 8, 7, 91
12, 38720, Control_c, 8, 7, 92
12, 38732, Control_c, 8, 7, 93
12, 38745, Control_c, 8, 7, 94
12, 38758, Control_c, 8, 7, 95
12, 38771, Control_c, 8, 7, 96
12, 38784, Control_c, 8, 7, 97
12, 38796, Control_c, 8, 7, 98
12, 38809, Control_c, 8, 7, 99
12, 38822, Control_c, 8, 7, 100
12, 38835, Control_c, 8, 7, 101
12, 38848, Control_c, 8, 7, 102
12, 38860, Control_c, 8, 7, 103
12, 38873, Control_c, 8, 7, 104
12, 38886, Control_c, 8, 7, 105
12, 38899, Control_c, 8, 7, 106
12, 38912, Control_c, 8, 7, 107
12, 38924, Control_c, 8, 7, 108
12, 38937, Control_c, 8, 7, 109
12, 38950, Control_c, 8, 7, 110
12, 38963, Control_c, 8, 7, 111
12, 38976, Control_c, 8, 7, 112
12, 38988, Control_c, 8, 7, 113
12, 39001, Control_c, 8, 7, 114
12, 39014, Control_c, 8, 7, 115
12, 39027, Control_c, 8, 7, 116
12, 39040, Control_c, 8, 7, 117
12, 39052, Control_c, 8, 7, 118
12, 39065, Control_c, 8, 7, 119
12, 39078, Control_c, 8, 7, 120
12, 39091, Control_c, 8, 7, 121
12, 39104, Control_c, 8, 7, 122
12, 39116, Control_c, 8, 7, 123
12, 39129, Control_c, 8, 7, 124
12, 39142, Control_c, 8, 7, 125
12, 39155, Control_c, 8, 7, 126
12, 39168, Control_c, 8, 7, 127
12, 39936, Note_on_c, 8, 62, 0
12, 39936, Note_on_c, 8, 74, 0
12, 41472, Control_c, 8, 7, 67
12, 41472, Note_on_c, 8, 61, 60
12, 41472, Note_on_c, 8, 73, 60
12, 41484, Control_c, 8, 7, 68
12, 41497, Control_c, 8, 7, 69
12, 41510, Control_c, 8, 7, 70
12, 41523, Control_c, 8, 7, 71
12, 41536, Control_c, 8, 7, 72
12, 41548, Control_c, 8, 7, 73
12, 41561, Control_c, 8, 7, 74
12, 41574, Control_c, 8, 7, 75
12, 41587, Control_c, 8, 7, 76
12, 41600, Control_c, 8, 7, 77
12, 41612, Control_c, 8, 7, 78
12, 41625, Control_c, 8, 7, 79
12, 41638, Control_c, 8, 7, 80
12, 41651, Control_c, 8, 7, 81
12, 41664, Control_c, 8, 7, 82
12, 41676, Control_c, 8, 7, 83
12, 41689, Control_c, 8, 7, 84
12, 41702, Control_c, 8, 7, 85
12, 41715, Control_c, 8, 7, 86
12, 41728, Control_c, 8, 7, 87
12, 41740, Control_c, 8, 7, 88
12, 41753, Control_c, 8, 7, 89
12, 41766, Control_c, 8, 7, 90
12, 41779, Control_c, 8, 7, 91
12, 41792, Control_c, 8, 7, 92
12, 41804, Control_c, 8, 7, 93
12, 41817, Control_c, 8, 7, 94
12, 41830, Control_c, 8, 7, 95
12, 41843, Control_c, 8, 7, 96
12, 41856, Control_c, 8, 7, 97
12, 41868, Control_c, 8, 7, 98
12, 41881, Control_c, 8, 7, 99
12, 41894, Control_c, 8, 7, 100
12, 41907, Control_c, 8, 7, 101
12, 41920, Control_c, 8, 7, 102
12, 41932, Control_c, 8, 7, 103
12, 41945, Control_c, 8, 7, 104
12, 41958, Control_c, 8, 7, 105
12, 41971, Control_c, 8, 7, 106
12, 41984, Control_c, 8, 7, 107
12, 41996, Control_c, 8, 7, 108
12, 42009, Control_c, 8, 7, 109
12, 42022, Control_c, 8, 7, 110
12, 42035, Control_c, 8, 7, 111
12, 42048, Control_c, 8, 7, 112
12, 42060, Control_c, 8, 7, 113
12, 42073, Control_c, 8, 7, 114
12, 42086, Control_c, 8, 7, 115
12, 42099, Control_c, 8, 7, 116
12, 42112, Control_c, 8, 7, 117
12, 42124, Control_c, 8, 7, 118
12, 42137, Control_c, 8, 7, 119
12, 42150, Control_c, 8, 7, 120
12, 42163, Control_c, 8, 7, 121
12, 42176, Control_c, 8, 7, 122
12, 42188, Control_c, 8, 7, 123
12, 42201, Control_c, 8, 7, 124
12, 42214, Control_c, 8, 7, 125
12, 42227, Control_c, 8, 7, 126
12, 42240, Control_c, 8, 7, 127
12, 43008, Note_on_c, 8, 61, 0
12, 43008, Note_on_c, 8, 73, 0
12, 69120, Control_c, 8, 7, 67
12, 69120, Note_on_c, 8, 64, 60
12, 69120, Note_on_c, 8, 76, 60
12, 69132, Control_c, 8, 7, 68
12, 69145, Control_c, 8, 7, 69
12, 69158, Control_c, 8, 7, 70
12, 69171, Control_c, 8, 7, 71
12, 69184, Control_c, 8, 7, 72
12, 69196, Control_c, 8, 7, 73
12, 69209, Control_c, 8, 7, 74
12, 69222, Control_c, 8, 7, 75
12, 69235, Control_c, 8, 7, 76
12, 69248, Control_c, 8, 7, 77
12, 69260, Control_c, 8, 7, 78
12, 69273, Control_c, 8, 7, 79
12, 69286, Control_c, 8, 7, 80
12, 69299, Control_c, 8, 7, 81
12, 69312, Control_c, 8, 7, 82
12, 69324, Control_c, 8, 7, 83
12, 69337, Control_c, 8, 7, 84
12, 69350, Control_c, 8, 7, 85
12, 69363, Control_c, 8, 7, 86
12, 69376, Control_c, 8, 7, 87
12, 69388, Control_c, 8, 7, 88
12, 69401, Control_c, 8, 7, 89
12, 69414, Control_c, 8, 7, 90
12, 69427, Control_c, 8, 7, 91
12, 69440, Control_c, 8, 7, 92
12, 69452, Control_c, 8, 7, 93
12, 69465, Control_c, 8, 7, 94
12, 69478, Control_c, 8, 7, 95
12, 69491, Control_c, 8, 7, 96
12, 69504, Control_c, 8, 7, 97
12, 69516, Control_c, 8, 7, 98
12, 69529, Control_c, 8, 7, 99
12, 69542, Control_c, 8, 7, 100
12, 69555, Control_c, 8, 7, 101
12, 69568, Control_c, 8, 7, 102
12, 69580, Control_c, 8, 7, 103
12, 69593, Control_c, 8, 7, 104
12, 69606, Control_c, 8, 7, 105
12, 69619, Control_c, 8, 7, 106
12, 69632, Control_c, 8, 7, 107
12, 69644, Control_c, 8, 7, 108
12, 69657, Control_c, 8, 7, 109
12, 69670, Control_c, 8, 7, 110
12, 69683, Control_c, 8, 7, 111
12, 69696, Control_c, 8, 7, 112
12, 69708, Control_c, 8, 7, 113
12, 69721, Control_c, 8, 7, 114
12, 69734, Control_c, 8, 7, 115
12, 69747, Control_c, 8, 7, 116
12, 69760, Control_c, 8, 7, 117
12, 69772, Control_c, 8, 7, 118
12, 69785, Control_c, 8, 7, 119
12, 69798, Control_c, 8, 7, 120
12, 69811, Control_c, 8, 7, 121
12, 69824, Control_c, 8, 7, 122
12, 69836, Control_c, 8, 7, 123
12, 69849, Control_c, 8, 7, 124
12, 69862, Control_c, 8, 7, 125
12, 69875, Control_c, 8, 7, 126
12, 69888, Control_c, 8, 7, 127
12, 70656, Note_on_c, 8, 64, 0
12, 70656, Note_on_c, 8, 76, 0
12, 72192, Control_c, 8, 7, 67
12, 72192, Note_on_c, 8, 63, 60
12, 72192, Note_on_c, 8, 75, 60
12, 72204, Control_c, 8, 7, 68
12, 72217, Control_c, 8, 7, 69
12, 72230, Control_c, 8, 7, 70
12, 72243, Control_c, 8, 7, 71
12, 72256, Control_c, 8, 7, 72
12, 72268, Control_c, 8, 7, 73
12, 72281, Control_c, 8, 7, 74
12, 72294, Control_c, 8, 7, 75
12, 72307, Control_c, 8, 7, 76
12, 72320, Control_c, 8, 7, 77
12, 72332, Control_c, 8, 7, 78
12, 72345, Control_c, 8, 7, 79
12, 72358, Control_c, 8, 7, 80
12, 72371, Control_c, 8, 7, 81
12, 72384, Control_c, 8, 7, 82
12, 72396, Control_c, 8, 7, 83
12, 72409, Control_c, 8, 7, 84
12, 72422, Control_c, 8, 7, 85
12, 72435, Control_c, 8, 7, 86
12, 72448, Control_c, 8, 7, 87
12, 72460, Control_c, 8, 7, 88
12, 72473, Control_c, 8, 7, 89
12, 72486, Control_c, 8, 7, 90
12, 72499, Control_c, 8, 7, 91
12, 72512, Control_c, 8, 7, 92
12, 72524, Control_c, 8, 7, 93
12, 72537, Control_c, 8, 7, 94
12, 72550, Control_c, 8, 7, 95
12, 72563, Control_c, 8, 7, 96
12, 72576, Control_c, 8, 7, 97
12, 72588, Control_c, 8, 7, 98
12, 72601, Control_c, 8, 7, 99
12, 72614, Control_c, 8, 7, 100
12, 72627, Control_c, 8, 7, 101
12, 72640, Control_c, 8, 7, 102
12, 72652, Control_c, 8, 7, 103
12, 72665, Control_c, 8, 7, 104
12, 72678, Control_c, 8, 7, 105
12, 72691, Control_c, 8, 7, 106
12, 72704, Control_c, 8, 7, 107
12, 72716, Control_c, 8, 7, 108
12, 72729, Control_c, 8, 7, 109
12, 72742, Control_c, 8, 7, 110
12, 72755, Control_c, 8, 7, 111
12, 72768, Control_c, 8, 7, 112
12, 72780, Control_c, 8, 7, 113
12, 72793, Control_c, 8, 7, 114
12, 72806, Control_c, 8, 7, 115
12, 72819, Control_c, 8, 7, 116
12, 72832, Control_c, 8, 7, 117
12, 72844, Control_c, 8, 7, 118
12, 72857, Control_c, 8, 7, 119
12, 72870, Control_c, 8, 7, 120
12, 72883, Control_c, 8, 7, 121
12, 72896, Control_c, 8, 7, 122
12, 72908, Control_c, 8, 7, 123
12, 72921, Control_c, 8, 7, 124
12, 72934, Control_c, 8, 7, 125
12, 72947, Control_c, 8, 7, 126
12, 72960, Control_c, 8, 7, 127
12, 73728, Note_on_c, 8, 63, 0
12, 73728, Note_on_c, 8, 75, 0
12, 75264, Control_c, 8, 7, 67
12, 75264, Note_on_c, 8, 62, 60
12, 75264, Note_on_c, 8, 74, 60
12, 75276, Control_c, 8, 7, 68
12, 75289, Control_c, 8, 7, 69
12, 75302, Control_c, 8, 7, 70
12, 75315, Control_c, 8, 7, 71
12, 75328, Control_c, 8, 7, 72
12, 75340, Control_c, 8, 7, 73
12, 75353, Control_c, 8, 7, 74
12, 75366, Control_c, 8, 7, 75
12, 75379, Control_c, 8, 7, 76
12, 75392, Control_c, 8, 7, 77
12, 75404, Control_c, 8, 7, 78
12, 75417, Control_c, 8, 7, 79
12, 75430, Control_c, 8, 7, 80
12, 75443, Control_c, 8, 7, 81
12, 75456, Control_c, 8, 7, 82
12, 75468, Control_c, 8, 7, 83
12, 75481, Control_c, 8, 7, 84
12, 75494, Control_c, 8, 7, 85
12, 75507, Control_c, 8, 7, 86
12, 75520, Control_c, 8, 7, 87
12, 75532, Control_c, 8, 7, 88
12, 75545, Control_c, 8, 7, 89
12, 75558, Control_c, 8, 7, 90
12, 75571, Control_c, 8, 7, 91
12, 75584, Control_c, 8, 7, 92
12, 75596, Control_c, 8, 7, 93
12, 75609, Control_c, 8, 7, 94
12, 75622, Control_c, 8, 7, 95
12, 75635, Control_c, 8, 7, 96
12, 75648, Control_c, 8, 7, 97
12, 75660, Control_c, 8, 7, 98
12, 75673, Control_c, 8, 7, 99
12, 75686, Control_c, 8, 7, 100
12, 75699, Control_c, 8, 7, 101
12, 75712, Control_c, 8, 7, 102
12, 75724, Control_c, 8, 7, 103
12, 75737, Control_c, 8, 7, 104
12, 75750, Control_c, 8, 7, 105
12, 75763, Control_c, 8, 7, 106
12, 75776, Control_c, 8, 7, 107
12, 75788, Control_c, 8, 7, 108
12, 75801, Control_c, 8, 7, 109
12, 75814, Control_c, 8, 7, 110
12, 75827, Control_c, 8, 7, 111
12, 75840, Control_c, 8, 7, 112
12, 75852, Control_c, 8, 7, 113
12, 75865, Control_c, 8, 7, 114
12, 75878, Control_c, 8, 7, 115
12, 75891, Control_c, 8, 7, 116
12, 75904, Control_c, 8, 7, 117
12, 75916, Control_c, 8, 7, 118
12, 75929, Control_c, 8, 7, 119
12, 75942, Control_c, 8, 7, 120
12, 75955, Control_c, 8, 7, 121
12, 75968, Control_c, 8, 7, 122
12, 75980, Control_c, 8, 7, 123
12, 75993, Control_c, 8, 7, 124
12, 76006, Control_c, 8, 7, 125
12, 76019, Control_c, 8, 7, 126
12, 76032, Control_c, 8, 7, 127
12, 76800, Note_on_c, 8, 62, 0
12, 76800, Note_on_c, 8, 74, 0
12, 78336, Control_c, 8, 7, 67
12, 78336, Note_on_c, 8, 61, 60
12, 78336, Note_on_c, 8, 73, 60
12, 78348, Control_c, 8, 7, 68
12, 78361, Control_c, 8, 7, 69
12, 78374, Control_c, 8, 7, 70
12, 78387, Control_c, 8, 7, 71
12, 78400, Control_c, 8, 7, 72
12, 78412, Control_c, 8, 7, 73
12, 78425, Control_c, 8, 7, 74
12, 78438, Control_c, 8, 7, 75
12, 78451, Control_c, 8, 7, 76
12, 78464, Control_c, 8, 7, 77
12, 78476, Control_c, 8, 7, 78
12, 78489, Control_c, 8, 7, 79
12, 78502, Control_c, 8, 7, 80
12, 78515, Control_c, 8, 7, 81
12, 78528, Control_c, 8, 7, 82
12, 78540, Control_c, 8, 7, 83
12, 78553, Control_c, 8, 7, 84
12, 78566, Control_c, 8, 7, 85
12, 78579, Control_c, 8, 7, 86
12, 78592, Control_c, 8, 7, 87
12, 78604, Control_c, 8, 7, 88
12, 78617, Control_c, 8, 7, 89
12, 78630, Control_c, 8, 7, 90
12, 78643, Control_c, 8, 7, 91
12, 78656, Control_c, 8, 7, 92
12, 78668, Control_c, 8, 7, 93
12, 78681, Control_c, 8, 7, 94
12, 78694, Control_c, 8, 7, 95
12, 78707, Control_c, 8, 7, 96
12, 78720, Control_c, 8, 7, 97
12, 78732, Control_c, 8, 7, 98
12, 78745, Control_c, 8, 7, 99
12, 78758, Control_c, 8, 7, 100
12, 78771, Control_c, 8, 7, 101
12, 78784, Control_c, 8, 7, 102
12, 78796, Control_c, 8, 7, 103
12, 78809, Control_c, 8, 7, 104
12, 78822, Control_c, 8, 7, 105
12, 78835, Control_c, 8, 7, 106
12, 78848, Control_c, 8, 7, 107
12, 78860, Control_c, 8, 7, 108
12, 78873, Control_c, 8, 7, 109
12, 78886, Control_c, 8, 7, 110
12, 78899, Control_c, 8, 7, 111
12, 78912, Control_c, 8, 7, 112
12, 78924, Control_c, 8, 7, 113
12, 78937, Control_c, 8, 7, 114
12, 78950, Control_c, 8, 7, 115
12, 78963, Control_c, 8, 7, 116
12, 78976, Control_c, 8, 7, 117
12, 78988, Control_c, 8, 7, 118
12, 79001, Control_c, 8, 7, 119
12, 79014, Control_c, 8, 7, 120
12, 79027, Control_c, 8, 7, 121
12, 79040, Control_c, 8, 7, 122
12, 79052, Control_c, 8, 7, 123
12, 79065, Control_c, 8, 7, 124
12, 79078, Control_c, 8, 7, 125
12, 79091, Control_c, 8, 7, 126
12, 79104, Control_c, 8, 7, 127
12, 79872, Note_on_c, 8, 61, 0
12, 79872, Note_on_c, 8, 73, 0
12, 79872, End_track
13, 0, Start_track
13, 0, MIDI_port, 0
13, 0, Title_t, "Staff-11"
13, 0, Control_c, 9, 7, 127
13, 0, Control_c, 9, 10, 64
13, 0, Control_c, 9, 7, 127
13, 0, Control_c, 9, 10, 64
13, 6144, Note_on_c, 9, 42, 127
13, 6336, Note_on_c, 9, 42, 0
13, 6336, Note_on_c, 9, 42, 127
13, 6528, Note_on_c, 9, 42, 0
13, 6528, Note_on_c, 9, 42, 127
13, 6720, Note_on_c, 9, 42, 0
13, 6720, Note_on_c, 9, 42, 127
13, 6912, Note_on_c, 9, 42, 0
13, 6912, Note_on_c, 9, 42, 127
13, 7104, Note_on_c, 9, 42, 0
13, 7104, Note_on_c, 9, 42, 127
13, 7296, Note_on_c, 9, 42, 0
13, 7296, Note_on_c, 9, 42, 127
13, 7488, Note_on_c, 9, 42, 0
13, 7488, Note_on_c, 9, 42, 127
13, 7680, Note_on_c, 9, 42, 0
13, 7680, Note_on_c, 9, 46, 127
13, 7872, Note_on_c, 9, 46, 0
13, 7872, Note_on_c, 9, 42, 127
13, 8064, Note_on_c, 9, 42, 0
13, 8064, Note_on_c, 9, 42, 127
13, 8256, Note_on_c, 9, 42, 0
13, 8256, Note_on_c, 9, 42, 127
13, 8448, Note_on_c, 9, 42, 0
13, 8448, Note_on_c, 9, 42, 127
13, 8640, Note_on_c, 9, 42, 0
13, 8640, Note_on_c, 9, 42, 127
13, 8832, Note_on_c, 9, 42, 0
13, 8832, Note_on_c, 9, 42, 127
13, 9024, Note_on_c, 9, 42, 0
13, 9024, Note_on_c, 9, 46, 127
13, 9216, Note_on_c, 9, 46, 0
13, 9216, Note_on_c, 9, 42, 127
13, 9408, Note_on_c, 9, 42, 0
13, 9408, Note_on_c, 9, 42, 127
13, 9600, Note_on_c, 9, 42, 0
13, 9600, Note_on_c, 9, 42, 127
13, 9792, Note_on_c, 9, 42, 0
13, 9792, Note_on_c, 9, 42, 127
13, 9984, Note_on_c, 9, 42, 0
13, 9984, Note_on_c, 9, 42, 127
13, 10176, Note_on_c, 9, 42, 0
13, 10176, Note_on_c, 9, 42, 127
13, 10368, Note_on_c, 9, 42, 0
13, 10368, Note_on_c, 9, 42, 127
13, 10560, Note_on_c, 9, 42, 0
13, 10560, Note_on_c, 9, 42, 127
13, 10752, Note_on_c, 9, 42, 0
13, 10752, Note_on_c, 9, 46, 127
13, 10944, Note_on_c, 9, 46, 0
13, 10944, Note_on_c, 9, 42, 127
13, 11136, Note_on_c, 9, 42, 0
13, 11136, Note_on_c, 9, 42, 127
13, 11328, Note_on_c, 9, 42, 0
13, 11328, Note_on_c, 9, 42, 127
13, 11520, Note_on_c, 9, 42, 0
13, 11520, Note_on_c, 9, 42, 127
13, 11712, Note_on_c, 9, 42, 0
13, 11712, Note_on_c, 9, 42, 127
13, 11904, Note_on_c, 9, 42, 0
13, 11904, Note_on_c, 9, 42, 127
13, 12096, Note_on_c, 9, 42, 0
13, 12096, Note_on_c, 9, 46, 127
13, 12288, Note_on_c, 9, 46, 0
13, 12288, Note_on_c, 9, 42, 127
13, 12480, Note_on_c, 9, 42, 0
13, 12480, Note_on_c, 9, 42, 127
13, 12672, Note_on_c, 9, 42, 0
13, 12672, Note_on_c, 9, 42, 127
13, 12864, Note_on_c, 9, 42, 0
13, 12864, Note_on_c, 9, 42, 127
13, 13056, Note_on_c, 9, 42, 0
13, 13056, Note_on_c, 9, 42, 127
13, 13248, Note_on_c, 9, 42, 0
13, 13248, Note_on_c, 9, 42, 127
13, 13440, Note_on_c, 9, 42, 0
13, 13440, Note_on_c, 9, 42, 127
13, 13632, Note_on_c, 9, 42, 0
13, 13632, Note_on_c, 9, 42, 127
13, 13824, Note_on_c, 9, 42, 0
13, 13824, Note_on_c, 9, 46, 127
13, 14016, Note_on_c, 9, 46, 0
13, 14016, Note_on_c, 9, 42, 127
13, 14208, Note_on_c, 9, 42, 0
13, 14208, Note_on_c, 9, 42, 127
13, 14400, Note_on_c, 9, 42, 0
13, 14400, Note_on_c, 9, 42, 127
13, 14592, Note_on_c, 9, 42, 0
13, 14592, Note_on_c, 9, 42, 127
13, 14784, Note_on_c, 9, 42, 0
13, 14784, Note_on_c, 9, 42, 127
13, 14976, Note_on_c, 9, 42, 0
13, 14976, Note_on_c, 9, 42, 127
13, 15168, Note_on_c, 9, 42, 0
13, 15168, Note_on_c, 9, 46, 127
13, 15360, Note_on_c, 9, 46, 0
13, 15360, Note_on_c, 9, 42, 127
13, 15552, Note_on_c, 9, 42, 0
13, 15552, Note_on_c, 9, 42, 127
13, 15744, Note_on_c, 9, 42, 0
13, 15744, Note_on_c, 9, 42, 127
13, 15936, Note_on_c, 9, 42, 0
13, 15936, Note_on_c, 9, 42, 127
13, 16128, Note_on_c, 9, 42, 0
13, 16128, Note_on_c, 9, 42, 127
13, 16320, Note_on_c, 9, 42, 0
13, 16320, Note_on_c, 9, 42, 127
13, 16512, Note_on_c, 9, 42, 0
13, 16512, Note_on_c, 9, 42, 127
13, 16704, Note_on_c, 9, 42, 0
13, 16704, Note_on_c, 9, 42, 127
13, 16896, Note_on_c, 9, 42, 0
13, 16896, Note_on_c, 9, 46, 127
13, 17088, Note_on_c, 9, 46, 0
13, 17088, Note_on_c, 9, 42, 127
13, 17280, Note_on_c, 9, 42, 0
13, 17280, Note_on_c, 9, 42, 127
13, 17472, Note_on_c, 9, 42, 0
13, 17472, Note_on_c, 9, 42, 127
13, 17664, Note_on_c, 9, 42, 0
13, 17664, Note_on_c, 9, 42, 127
13, 17856, Note_on_c, 9, 42, 0
13, 17856, Note_on_c, 9, 42, 127
13, 18048, Note_on_c, 9, 42, 0
13, 18048, Note_on_c, 9, 42, 127
13, 18240, Note_on_c, 9, 42, 0
13, 18240, Note_on_c, 9, 46, 127
13, 18432, Note_on_c, 9, 46, 0
13, 18432, Note_on_c, 9, 42, 127
13, 18624, Note_on_c, 9, 42, 0
13, 18624, Note_on_c, 9, 42, 127
13, 18816, Note_on_c, 9, 42, 0
13, 18816, Note_on_c, 9, 42, 127
13, 19008, Note_on_c, 9, 42, 0
13, 19008, Note_on_c, 9, 42, 127
13, 19200, Note_on_c, 9, 42, 0
13, 19200, Note_on_c, 9, 42, 127
13, 19392, Note_on_c, 9, 42, 0
13, 19392, Note_on_c, 9, 42, 127
13, 19584, Note_on_c, 9, 42, 0
13, 19584, Note_on_c, 9, 42, 127
13, 19776, Note_on_c, 9, 42, 0
13, 19776, Note_on_c, 9, 42, 127
13, 19968, Note_on_c, 9, 42, 0
13, 19968, Note_on_c, 9, 46, 127
13, 20160, Note_on_c, 9, 46, 0
13, 20160, Note_on_c, 9, 42, 127
13, 20352, Note_on_c, 9, 42, 0
13, 20352, Note_on_c, 9, 42, 127
13, 20544, Note_on_c, 9, 42, 0
13, 20544, Note_on_c, 9, 42, 127
13, 20736, Note_on_c, 9, 42, 0
13, 20736, Note_on_c, 9, 42, 127
13, 20928, Note_on_c, 9, 42, 0
13, 20928, Note_on_c, 9, 42, 127
13, 21120, Note_on_c, 9, 42, 0
13, 21120, Note_on_c, 9, 42, 127
13, 21312, Note_on_c, 9, 42, 0
13, 21312, Note_on_c, 9, 46, 127
13, 21504, Note_on_c, 9, 46, 0
13, 21504, Note_on_c, 9, 42, 127
13, 21696, Note_on_c, 9, 42, 0
13, 21696, Note_on_c, 9, 42, 127
13, 21888, Note_on_c, 9, 42, 0
13, 21888, Note_on_c, 9, 42, 127
13, 22080, Note_on_c, 9, 42, 0
13, 22080, Note_on_c, 9, 42, 127
13, 22272, Note_on_c, 9, 42, 0
13, 22272, Note_on_c, 9, 42, 127
13, 22464, Note_on_c, 9, 42, 0
13, 22464, Note_on_c, 9, 42, 127
13, 22656, Note_on_c, 9, 42, 0
13, 22656, Note_on_c, 9, 42, 127
13, 22848, Note_on_c, 9, 42, 0
13, 22848, Note_on_c, 9, 42, 127
13, 23040, Note_on_c, 9, 42, 0
13, 23040, Note_on_c, 9, 46, 127
13, 23232, Note_on_c, 9, 46, 0
13, 23232, Note_on_c, 9, 42, 127
13, 23424, Note_on_c, 9, 42, 0
13, 23424, Note_on_c, 9, 42, 127
13, 23616, Note_on_c, 9, 42, 0
13, 23616, Note_on_c, 9, 42, 127
13, 23808, Note_on_c, 9, 42, 0
13, 23808, Note_on_c, 9, 42, 127
13, 24000, Note_on_c, 9, 42, 0
13, 24000, Note_on_c, 9, 42, 127
13, 24192, Note_on_c, 9, 42, 0
13, 24192, Note_on_c, 9, 42, 127
13, 24384, Note_on_c, 9, 42, 0
13, 24384, Note_on_c, 9, 46, 127
13, 24576, Note_on_c, 9, 46, 0
13, 24576, Note_on_c, 9, 42, 127
13, 24768, Note_on_c, 9, 42, 0
13, 24768, Note_on_c, 9, 42, 127
13, 24960, Note_on_c, 9, 42, 0
13, 24960, Note_on_c, 9, 42, 127
13, 25152, Note_on_c, 9, 42, 0
13, 25152, Note_on_c, 9, 42, 127
13, 25344, Note_on_c, 9, 42, 0
13, 25344, Note_on_c, 9, 42, 127
13, 25536, Note_on_c, 9, 42, 0
13, 25536, Note_on_c, 9, 42, 127
13, 25728, Note_on_c, 9, 42, 0
13, 25728, Note_on_c, 9, 42, 127
13, 25920, Note_on_c, 9, 42, 0
13, 25920, Note_on_c, 9, 42, 127
13, 26112, Note_on_c, 9, 42, 0
13, 26112, Note_on_c, 9, 46, 127
13, 26304, Note_on_c, 9, 46, 0
13, 26304, Note_on_c, 9, 42, 127
13, 26496, Note_on_c, 9, 42, 0
13, 26496, Note_on_c, 9, 42, 127
13, 26688, Note_on_c, 9, 42, 0
13, 26688, Note_on_c, 9, 42, 127
13, 26880, Note_on_c, 9, 42, 0
13, 26880, Note_on_c, 9, 42, 127
13, 27072, Note_on_c, 9, 42, 0
13, 27072, Note_on_c, 9, 42, 127
13, 27264, Note_on_c, 9, 42, 0
13, 27264, Note_on_c, 9, 42, 127
13, 27456, Note_on_c, 9, 42, 0
13, 27456, Note_on_c, 9, 46, 127
13, 27648, Note_on_c, 9, 46, 0
13, 27648, Note_on_c, 9, 42, 127
13, 27840, Note_on_c, 9, 42, 0
13, 27840, Note_on_c, 9, 42, 127
13, 28032, Note_on_c, 9, 42, 0
13, 28032, Note_on_c, 9, 42, 127
13, 28224, Note_on_c, 9, 42, 0
13, 28224, Note_on_c, 9, 42, 127
13, 28416, Note_on_c, 9, 42, 0
13, 28416, Note_on_c, 9, 42, 127
13, 28608, Note_on_c, 9, 42, 0
13, 28608, Note_on_c, 9, 42, 127
13, 28800, Note_on_c, 9, 42, 0
13, 28800, Note_on_c, 9, 42, 127
13, 28992, Note_on_c, 9, 42, 0
13, 28992, Note_on_c, 9, 42, 127
13, 29184, Note_on_c, 9, 42, 0
13, 29184, Note_on_c, 9, 46, 127
13, 29376, Note_on_c, 9, 46, 0
13, 29376, Note_on_c, 9, 42, 127
13, 29568, Note_on_c, 9, 42, 0
13, 29568, Note_on_c, 9, 42, 127
13, 29760, Note_on_c, 9, 42, 0
13, 29760, Note_on_c, 9, 42, 127
13, 29952, Note_on_c, 9, 42, 0
13, 29952, Note_on_c, 9, 42, 127
13, 30144, Note_on_c, 9, 42, 0
13, 30144, Note_on_c, 9, 42, 127
13, 30336, Note_on_c, 9, 42, 0
13, 30336, Note_on_c, 9, 42, 127
13, 30528, Note_on_c, 9, 42, 0
13, 30528, Note_on_c, 9, 46, 127
13, 30720, Note_on_c, 9, 46, 0
13, 30720, Note_on_c, 9, 42, 127
13, 30912, Note_on_c, 9, 42, 0
13, 30912, Note_on_c, 9, 42, 127
13, 31104, Note_on_c, 9, 42, 0
13, 31104, Note_on_c, 9, 42, 127
13, 31296, Note_on_c, 9, 42, 0
13, 31296, Note_on_c, 9, 42, 127
13, 31488, Note_on_c, 9, 42, 0
13, 31488, Note_on_c, 9, 42, 127
13, 31680, Note_on_c, 9, 42, 0
13, 31680, Note_on_c, 9, 42, 127
13, 31872, Note_on_c, 9, 42, 0
13, 31872, Note_on_c, 9, 42, 127
13, 32064, Note_on_c, 9, 42, 0
13, 32064, Note_on_c, 9, 42, 127
13, 32256, Note_on_c, 9, 42, 0
13, 32256, Note_on_c, 9, 46, 127
13, 32448, Note_on_c, 9, 46, 0
13, 32448, Note_on_c, 9, 42, 127
13, 32640, Note_on_c, 9, 42, 0
13, 32640, Note_on_c, 9, 42, 127
13, 32832, Note_on_c, 9, 42, 0
13, 32832, Note_on_c, 9, 42, 127
13, 33024, Note_on_c, 9, 42, 0
13, 33024, Note_on_c, 9, 42, 127
13, 33216, Note_on_c, 9, 42, 0
13, 33216, Note_on_c, 9, 42, 127
13, 33408, Note_on_c, 9, 42, 0
13, 33408, Note_on_c, 9, 42, 127
13, 33600, Note_on_c, 9, 42, 0
13, 33600, Note_on_c, 9, 46, 127
13, 33792, Note_on_c, 9, 46, 0
13, 33792, Note_on_c, 9, 42, 127
13, 33984, Note_on_c, 9, 42, 0
13, 33984, Note_on_c, 9, 42, 127
13, 34176, Note_on_c, 9, 42, 0
13, 34176, Note_on_c, 9, 42, 127
13, 34368, Note_on_c, 9, 42, 0
13, 34368, Note_on_c, 9, 42, 127
13, 34560, Note_on_c, 9, 42, 0
13, 34560, Note_on_c, 9, 42, 127
13, 34752, Note_on_c, 9, 42, 0
13, 34752, Note_on_c, 9, 42, 127
13, 34944, Note_on_c, 9, 42, 0
13, 34944, Note_on_c, 9, 42, 127
13, 35136, Note_on_c, 9, 42, 0
13, 35136, Note_on_c, 9, 42, 127
13, 35328, Note_on_c, 9, 42, 0
13, 35328, Note_on_c, 9, 46, 127
13, 35520, Note_on_c, 9, 46, 0
13, 35520, Note_on_c, 9, 42, 127
13, 35712, Note_on_c, 9, 42, 0
13, 35712, Note_on_c, 9, 42, 127
13, 35904, Note_on_c, 9, 42, 0
13, 35904, Note_on_c, 9, 42, 127
13, 36096, Note_on_c, 9, 42, 0
13, 36096, Note_on_c, 9, 42, 127
13, 36288, Note_on_c, 9, 42, 0
13, 36288, Note_on_c, 9, 42, 127
13, 36480, Note_on_c, 9, 42, 0
13, 36480, Note_on_c, 9, 42, 127
13, 36672, Note_on_c, 9, 42, 0
13, 36672, Note_on_c, 9, 46, 127
13, 36864, Note_on_c, 9, 46, 0
13, 36864, Note_on_c, 9, 42, 127
13, 37056, Note_on_c, 9, 42, 0
13, 37056, Note_on_c, 9, 42, 127
13, 37248, Note_on_c, 9, 42, 0
13, 37248, Note_on_c, 9, 42, 127
13, 37440, Note_on_c, 9, 42, 0
13, 37440, Note_on_c, 9, 42, 127
13, 37632, Note_on_c, 9, 42, 0
13, 37632, Note_on_c, 9, 42, 127
13, 37824, Note_on_c, 9, 42, 0
13, 37824, Note_on_c, 9, 42, 127
13, 38016, Note_on_c, 9, 42, 0
13, 38016, Note_on_c, 9, 42, 127
13, 38208, Note_on_c, 9, 42, 0
13, 38208, Note_on_c, 9, 42, 127
13, 38400, Note_on_c, 9, 42, 0
13, 38400, Note_on_c, 9, 46, 127
13, 38592, Note_on_c, 9, 46, 0
13, 38592, Note_on_c, 9, 42, 127
13, 38784, Note_on_c, 9, 42, 0
13, 38784, Note_on_c, 9, 42, 127
13, 38976, Note_on_c, 9, 42, 0
13, 38976, Note_on_c, 9, 42, 127
13, 39168, Note_on_c, 9, 42, 0
13, 39168, Note_on_c, 9, 42, 127
13, 39360, Note_on_c, 9, 42, 0
13, 39360, Note_on_c, 9, 42, 127
13, 39552, Note_on_c, 9, 42, 0
13, 39552, Note_on_c, 9, 42, 127
13, 39744, Note_on_c, 9, 42, 0
13, 39744, Note_on_c, 9, 46, 127
13, 39936, Note_on_c, 9, 46, 0
13, 39936, Note_on_c, 9, 42, 127
13, 40128, Note_on_c, 9, 42, 0
13, 40128, Note_on_c, 9, 42, 127
13, 40320, Note_on_c, 9, 42, 0
13, 40320, Note_on_c, 9, 42, 127
13, 40512, Note_on_c, 9, 42, 0
13, 40512, Note_on_c, 9, 42, 127
13, 40704, Note_on_c, 9, 42, 0
13, 40704, Note_on_c, 9, 42, 127
13, 40896, Note_on_c, 9, 42, 0
13, 40896, Note_on_c, 9, 42, 127
13, 41088, Note_on_c, 9, 42, 0
13, 41088, Note_on_c, 9, 42, 127
13, 41280, Note_on_c, 9, 42, 0
13, 41280, Note_on_c, 9, 42, 127
13, 41472, Note_on_c, 9, 42, 0
13, 41472, Note_on_c, 9, 46, 127
13, 41664, Note_on_c, 9, 46, 0
13, 41664, Note_on_c, 9, 42, 127
13, 41856, Note_on_c, 9, 42, 0
13, 41856, Note_on_c, 9, 42, 127
13, 42048, Note_on_c, 9, 42, 0
13, 42048, Note_on_c, 9, 42, 127
13, 42240, Note_on_c, 9, 42, 0
13, 42240, Note_on_c, 9, 42, 127
13, 42432, Note_on_c, 9, 42, 0
13, 42432, Note_on_c, 9, 42, 127
13, 42624, Note_on_c, 9, 42, 0
13, 42624, Note_on_c, 9, 42, 127
13, 42816, Note_on_c, 9, 42, 0
13, 42816, Note_on_c, 9, 46, 127
13, 43008, Note_on_c, 9, 46, 0
13, 43008, Note_on_c, 9, 42, 127
13, 43200, Note_on_c, 9, 42, 0
13, 43200, Note_on_c, 9, 42, 127
13, 43392, Note_on_c, 9, 42, 0
13, 43392, Note_on_c, 9, 42, 127
13, 43584, Note_on_c, 9, 42, 0
13, 43584, Note_on_c, 9, 42, 127
13, 43776, Note_on_c, 9, 42, 0
13, 43776, Note_on_c, 9, 42, 127
13, 43968, Note_on_c, 9, 42, 0
13, 43968, Note_on_c, 9, 42, 127
13, 44160, Note_on_c, 9, 42, 0
13, 44160, Note_on_c, 9, 42, 127
13, 44352, Note_on_c, 9, 42, 0
13, 44352, Note_on_c, 9, 42, 127
13, 44544, Note_on_c, 9, 42, 0
13, 44544, Note_on_c, 9, 46, 127
13, 44736, Note_on_c, 9, 46, 0
13, 44736, Note_on_c, 9, 42, 127
13, 44928, Note_on_c, 9, 42, 0
13, 44928, Note_on_c, 9, 42, 127
13, 45120, Note_on_c, 9, 42, 0
13, 45120, Note_on_c, 9, 42, 127
13, 45312, Note_on_c, 9, 42, 0
13, 45312, Note_on_c, 9, 42, 127
13, 45504, Note_on_c, 9, 42, 0
13, 45504, Note_on_c, 9, 42, 127
13, 45696, Note_on_c, 9, 42, 0
13, 45696, Note_on_c, 9, 42, 127
13, 45888, Note_on_c, 9, 42, 0
13, 45888, Note_on_c, 9, 46, 127
13, 46080, Note_on_c, 9, 46, 0
13, 46080, Note_on_c, 9, 42, 127
13, 46272, Note_on_c, 9, 42, 0
13, 46272, Note_on_c, 9, 42, 127
13, 46464, Note_on_c, 9, 42, 0
13, 46464, Note_on_c, 9, 42, 127
13, 46656, Note_on_c, 9, 42, 0
13, 46656, Note_on_c, 9, 42, 127
13, 46848, Note_on_c, 9, 42, 0
13, 46848, Note_on_c, 9, 42, 127
13, 47040, Note_on_c, 9, 42, 0
13, 47040, Note_on_c, 9, 42, 127
13, 47232, Note_on_c, 9, 42, 0
13, 47232, Note_on_c, 9, 42, 127
13, 47424, Note_on_c, 9, 42, 0
13, 47424, Note_on_c, 9, 42, 127
13, 47616, Note_on_c, 9, 42, 0
13, 47616, Note_on_c, 9, 46, 127
13, 47808, Note_on_c, 9, 46, 0
13, 47808, Note_on_c, 9, 42, 127
13, 48000, Note_on_c, 9, 42, 0
13, 48000, Note_on_c, 9, 42, 127
13, 48192, Note_on_c, 9, 42, 0
13, 48192, Note_on_c, 9, 42, 127
13, 48384, Note_on_c, 9, 42, 0
13, 48384, Note_on_c, 9, 42, 127
13, 48576, Note_on_c, 9, 42, 0
13, 48576, Note_on_c, 9, 42, 127
13, 48768, Note_on_c, 9, 42, 0
13, 48768, Note_on_c, 9, 42, 127
13, 48960, Note_on_c, 9, 42, 0
13, 48960, Note_on_c, 9, 46, 127
13, 49152, Note_on_c, 9, 46, 0
13, 49152, Note_on_c, 9, 42, 127
13, 49344, Note_on_c, 9, 42, 0
13, 49344, Note_on_c, 9, 42, 127
13, 49536, Note_on_c, 9, 42, 0
13, 49536, Note_on_c, 9, 42, 127
13, 49728, Note_on_c, 9, 42, 0
13, 49728, Note_on_c, 9, 42, 127
13, 49920, Note_on_c, 9, 42, 0
13, 49920, Note_on_c, 9, 42, 127
13, 50112, Note_on_c, 9, 42, 0
13, 50112, Note_on_c, 9, 42, 127
13, 50304, Note_on_c, 9, 42, 0
13, 50304, Note_on_c, 9, 42, 127
13, 50496, Note_on_c, 9, 42, 0
13, 50496, Note_on_c, 9, 42, 127
13, 50688, Note_on_c, 9, 42, 0
13, 50688, Note_on_c, 9, 46, 127
13, 50880, Note_on_c, 9, 46, 0
13, 50880, Note_on_c, 9, 42, 127
13, 51072, Note_on_c, 9, 42, 0
13, 51072, Note_on_c, 9, 42, 127
13, 51264, Note_on_c, 9, 42, 0
13, 51264, Note_on_c, 9, 42, 127
13, 51456, Note_on_c, 9, 42, 0
13, 51456, Note_on_c, 9, 42, 127
13, 51648, Note_on_c, 9, 42, 0
13, 51648, Note_on_c, 9, 42, 127
13, 51840, Note_on_c, 9, 42, 0
13, 51840, Note_on_c, 9, 42, 127
13, 52032, Note_on_c, 9, 42, 0
13, 52032, Note_on_c, 9, 46, 127
13, 52224, Note_on_c, 9, 46, 0
13, 52224, Note_on_c, 9, 42, 127
13, 52416, Note_on_c, 9, 42, 0
13, 52416, Note_on_c, 9, 42, 127
13, 52608, Note_on_c, 9, 42, 0
13, 52608, Note_on_c, 9, 42, 127
13, 52800, Note_on_c, 9, 42, 0
13, 52800, Note_on_c, 9, 42, 127
13, 52992, Note_on_c, 9, 42, 0
13, 52992, Note_on_c, 9, 42, 127
13, 53184, Note_on_c, 9, 42, 0
13, 53184, Note_on_c, 9, 42, 127
13, 53376, Note_on_c, 9, 42, 0
13, 53376, Note_on_c, 9, 42, 127
13, 53568, Note_on_c, 9, 42, 0
13, 53568, Note_on_c, 9, 42, 127
13, 53760, Note_on_c, 9, 42, 0
13, 53760, Note_on_c, 9, 46, 127
13, 53952, Note_on_c, 9, 46, 0
13, 53952, Note_on_c, 9, 42, 127
13, 54144, Note_on_c, 9, 42, 0
13, 54144, Note_on_c, 9, 42, 127
13, 54336, Note_on_c, 9, 42, 0
13, 54336, Note_on_c, 9, 42, 127
13, 54528, Note_on_c, 9, 42, 0
13, 54528, Note_on_c, 9, 42, 127
13, 54720, Note_on_c, 9, 42, 0
13, 54720, Note_on_c, 9, 42, 127
13, 54912, Note_on_c, 9, 42, 0
13, 54912, Note_on_c, 9, 42, 127
13, 55104, Note_on_c, 9, 42, 0
13, 55104, Note_on_c, 9, 46, 127
13, 55296, Note_on_c, 9, 46, 0
13, 55296, Note_on_c, 9, 42, 127
13, 55488, Note_on_c, 9, 42, 0
13, 55488, Note_on_c, 9, 42, 127
13, 55680, Note_on_c, 9, 42, 0
13, 55680, Note_on_c, 9, 42, 127
13, 55872, Note_on_c, 9, 42, 0
13, 55872, Note_on_c, 9, 42, 127
13, 56064, Note_on_c, 9, 42, 0
13, 56064, Note_on_c, 9, 42, 127
13, 56256, Note_on_c, 9, 42, 0
13, 56256, Note_on_c, 9, 42, 127
13, 56448, Note_on_c, 9, 42, 0
13, 56448, Note_on_c, 9, 42, 127
13, 56640, Note_on_c, 9, 42, 0
13, 56640, Note_on_c, 9, 42, 127
13, 56832, Note_on_c, 9, 42, 0
13, 56832, Note_on_c, 9, 46, 127
13, 57024, Note_on_c, 9, 46, 0
13, 57024, Note_on_c, 9, 42, 127
13, 57216, Note_on_c, 9, 42, 0
13, 57216, Note_on_c, 9, 42, 127
13, 57408, Note_on_c, 9, 42, 0
13, 57408, Note_on_c, 9, 42, 127
13, 57600, Note_on_c, 9, 42, 0
13, 57600, Note_on_c, 9, 42, 127
13, 57792, Note_on_c, 9, 42, 0
13, 57792, Note_on_c, 9, 42, 127
13, 57984, Note_on_c, 9, 42, 0
13, 57984, Note_on_c, 9, 42, 127
13, 58176, Note_on_c, 9, 42, 0
13, 58176, Note_on_c, 9, 46, 127
13, 58368, Note_on_c, 9, 46, 0
13, 58368, Note_on_c, 9, 42, 127
13, 58560, Note_on_c, 9, 42, 0
13, 58560, Note_on_c, 9, 42, 127
13, 58752, Note_on_c, 9, 42, 0
13, 58752, Note_on_c, 9, 42, 127
13, 58944, Note_on_c, 9, 42, 0
13, 58944, Note_on_c, 9, 42, 127
13, 59136, Note_on_c, 9, 42, 0
13, 59136, Note_on_c, 9, 42, 127
13, 59328, Note_on_c, 9, 42, 0
13, 59328, Note_on_c, 9, 42, 127
13, 59520, Note_on_c, 9, 42, 0
13, 59520, Note_on_c, 9, 42, 127
13, 59712, Note_on_c, 9, 42, 0
13, 59712, Note_on_c, 9, 42, 127
13, 59904, Note_on_c, 9, 42, 0
13, 59904, Note_on_c, 9, 46, 127
13, 60096, Note_on_c, 9, 46, 0
13, 60096, Note_on_c, 9, 42, 127
13, 60288, Note_on_c, 9, 42, 0
13, 60288, Note_on_c, 9, 42, 127
13, 60480, Note_on_c, 9, 42, 0
13, 60480, Note_on_c, 9, 42, 127
13, 60672, Note_on_c, 9, 42, 0
13, 60672, Note_on_c, 9, 42, 127
13, 60864, Note_on_c, 9, 42, 0
13, 60864, Note_on_c, 9, 42, 127
13, 61056, Note_on_c, 9, 42, 0
13, 61056, Note_on_c, 9, 42, 127
13, 61248, Note_on_c, 9, 42, 0
13, 61248, Note_on_c, 9, 46, 127
13, 61440, Note_on_c, 9, 46, 0
13, 61440, Note_on_c, 9, 42, 127
13, 61632, Note_on_c, 9, 42, 0
13, 61632, Note_on_c, 9, 42, 127
13, 61824, Note_on_c, 9, 42, 0
13, 61824, Note_on_c, 9, 42, 127
13, 62016, Note_on_c, 9, 42, 0
13, 62016, Note_on_c, 9, 42, 127
13, 62208, Note_on_c, 9, 42, 0
13, 62208, Note_on_c, 9, 42, 127
13, 62400, Note_on_c, 9, 42, 0
13, 62400, Note_on_c, 9, 42, 127
13, 62592, Note_on_c, 9, 42, 0
13, 62592, Note_on_c, 9, 42, 127
13, 62784, Note_on_c, 9, 42, 0
13, 62784, Note_on_c, 9, 42, 127
13, 62976, Note_on_c, 9, 42, 0
13, 62976, Note_on_c, 9, 46, 127
13, 63168, Note_on_c, 9, 46, 0
13, 63168, Note_on_c, 9, 42, 127
13, 63360, Note_on_c, 9, 42, 0
13, 63360, Note_on_c, 9, 42, 127
13, 63552, Note_on_c, 9, 42, 0
13, 63552, Note_on_c, 9, 42, 127
13, 63744, Note_on_c, 9, 42, 0
13, 63744, Note_on_c, 9, 42, 127
13, 63936, Note_on_c, 9, 42, 0
13, 63936, Note_on_c, 9, 42, 127
13, 64128, Note_on_c, 9, 42, 0
13, 64128, Note_on_c, 9, 42, 127
13, 64320, Note_on_c, 9, 42, 0
13, 64320, Note_on_c, 9, 46, 127
13, 64512, Note_on_c, 9, 46, 0
13, 64512, Note_on_c, 9, 42, 127
13, 64704, Note_on_c, 9, 42, 0
13, 64704, Note_on_c, 9, 42, 127
13, 64896, Note_on_c, 9, 42, 0
13, 64896, Note_on_c, 9, 42, 127
13, 65088, Note_on_c, 9, 42, 0
13, 65088, Note_on_c, 9, 42, 127
13, 65280, Note_on_c, 9, 42, 0
13, 65280, Note_on_c, 9, 42, 127
13, 65472, Note_on_c, 9, 42, 0
13, 65472, Note_on_c, 9, 42, 127
13, 65664, Note_on_c, 9, 42, 0
13, 65664, Note_on_c, 9, 42, 127
13, 65856, Note_on_c, 9, 42, 0
13, 65856, Note_on_c, 9, 42, 127
13, 66048, Note_on_c, 9, 42, 0
13, 66048, Note_on_c, 9, 46, 127
13, 66240, Note_on_c, 9, 46, 0
13, 66240, Note_on_c, 9, 42, 127
13, 66432, Note_on_c, 9, 42, 0
13, 66432, Note_on_c, 9, 42, 127
13, 66624, Note_on_c, 9, 42, 0
13, 66624, Note_on_c, 9, 42, 127
13, 66816, Note_on_c, 9, 42, 0
13, 66816, Note_on_c, 9, 42, 127
13, 67008, Note_on_c, 9, 42, 0
13, 67008, Note_on_c, 9, 42, 127
13, 67200, Note_on_c, 9, 42, 0
13, 67200, Note_on_c, 9, 42, 127
13, 67392, Note_on_c, 9, 42, 0
13, 67392, Note_on_c, 9, 46, 127
13, 67584, Note_on_c, 9, 46, 0
13, 67584, Note_on_c, 9, 42, 127
13, 67776, Note_on_c, 9, 42, 0
13, 67776, Note_on_c, 9, 42, 127
13, 67968, Note_on_c, 9, 42, 0
13, 67968, Note_on_c, 9, 42, 127
13, 68160, Note_on_c, 9, 42, 0
13, 68160, Note_on_c, 9, 42, 127
13, 68352, Note_on_c, 9, 42, 0
13, 68352, Note_on_c, 9, 42, 127
13, 68544, Note_on_c, 9, 42, 0
13, 68544, Note_on_c, 9, 42, 127
13, 68736, Note_on_c, 9, 42, 0
13, 68736, Note_on_c, 9, 42, 127
13, 68928, Note_on_c, 9, 42, 0
13, 68928, Note_on_c, 9, 42, 127
13, 69120, Note_on_c, 9, 42, 0
13, 69120, Note_on_c, 9, 46, 127
13, 69312, Note_on_c, 9, 46, 0
13, 69312, Note_on_c, 9, 42, 127
13, 69504, Note_on_c, 9, 42, 0
13, 69504, Note_on_c, 9, 42, 127
13, 69696, Note_on_c, 9, 42, 0
13, 69696, Note_on_c, 9, 42, 127
13, 69888, Note_on_c, 9, 42, 0
13, 69888, Note_on_c, 9, 42, 127
13, 70080, Note_on_c, 9, 42, 0
13, 70080, Note_on_c, 9, 42, 127
13, 70272, Note_on_c, 9, 42, 0
13, 70272, Note_on_c, 9, 42, 127
13, 70464, Note_on_c, 9, 42, 0
13, 70464, Note_on_c, 9, 46, 127
13, 70656, Note_on_c, 9, 46, 0
13, 70656, Note_on_c, 9, 42, 127
13, 70848, Note_on_c, 9, 42, 0
13, 70848, Note_on_c, 9, 42, 127
13, 71040, Note_on_c, 9, 42, 0
13, 71040, Note_on_c, 9, 42, 127
13, 71232, Note_on_c, 9, 42, 0
13, 71232, Note_on_c, 9, 42, 127
13, 71424, Note_on_c, 9, 42, 0
13, 71424, Note_on_c, 9, 42, 127
13, 71616, Note_on_c, 9, 42, 0
13, 71616, Note_on_c, 9, 42, 127
13, 71808, Note_on_c, 9, 42, 0
13, 71808, Note_on_c, 9, 42, 127
13, 72000, Note_on_c, 9, 42, 0
13, 72000, Note_on_c, 9, 42, 127
13, 72192, Note_on_c, 9, 42, 0
13, 72192, Note_on_c, 9, 46, 127
13, 72384, Note_on_c, 9, 46, 0
13, 72384, Note_on_c, 9, 42, 127
13, 72576, Note_on_c, 9, 42, 0
13, 72576, Note_on_c, 9, 42, 127
13, 72768, Note_on_c, 9, 42, 0
13, 72768, Note_on_c, 9, 42, 127
13, 72960, Note_on_c, 9, 42, 0
13, 72960, Note_on_c, 9, 42, 127
13, 73152, Note_on_c, 9, 42, 0
13, 73152, Note_on_c, 9, 42, 127
13, 73344, Note_on_c, 9, 42, 0
13, 73344, Note_on_c, 9, 42, 127
13, 73536, Note_on_c, 9, 42, 0
13, 73536, Note_on_c, 9, 46, 127
13, 73728, Note_on_c, 9, 46, 0
13, 73728, Note_on_c, 9, 42, 127
13, 73920, Note_on_c, 9, 42, 0
13, 73920, Note_on_c, 9, 42, 127
13, 74112, Note_on_c, 9, 42, 0
13, 74112, Note_on_c, 9, 42, 127
13, 74304, Note_on_c, 9, 42, 0
13, 74304, Note_on_c, 9, 42, 127
13, 74496, Note_on_c, 9, 42, 0
13, 74496, Note_on_c, 9, 42, 127
13, 74688, Note_on_c, 9, 42, 0
13, 74688, Note_on_c, 9, 42, 127
13, 74880, Note_on_c, 9, 42, 0
13, 74880, Note_on_c, 9, 42, 127
13, 75072, Note_on_c, 9, 42, 0
13, 75072, Note_on_c, 9, 42, 127
13, 75264, Note_on_c, 9, 42, 0
13, 75264, Note_on_c, 9, 46, 127
13, 75456, Note_on_c, 9, 46, 0
13, 75456, Note_on_c, 9, 42, 127
13, 75648, Note_on_c, 9, 42, 0
13, 75648, Note_on_c, 9, 42, 127
13, 75840, Note_on_c, 9, 42, 0
13, 75840, Note_on_c, 9, 42, 127
13, 76032, Note_on_c, 9, 42, 0
13, 76032, Note_on_c, 9, 42, 127
13, 76224, Note_on_c, 9, 42, 0
13, 76224, Note_on_c, 9, 42, 127
13, 76416, Note_on_c, 9, 42, 0
13, 76416, Note_on_c, 9, 42, 127
13, 76608, Note_on_c, 9, 42, 0
13, 76608, Note_on_c, 9, 46, 127
13, 76800, Note_on_c, 9, 46, 0
13, 76800, Note_on_c, 9, 42, 127
13, 76992, Note_on_c, 9, 42, 0
13, 76992, Note_on_c, 9, 42, 127
13, 77184, Note_on_c, 9, 42, 0
13, 77184, Note_on_c, 9, 42, 127
13, 77376, Note_on_c, 9, 42, 0
13, 77376, Note_on_c, 9, 42, 127
13, 77568, Note_on_c, 9, 42, 0
13, 77568, Note_on_c, 9, 42, 127
13, 77760, Note_on_c, 9, 42, 0
13, 77760, Note_on_c, 9, 42, 127
13, 77952, Note_on_c, 9, 42, 0
13, 77952, Note_on_c, 9, 42, 127
13, 78144, Note_on_c, 9, 42, 0
13, 78144, Note_on_c, 9, 42, 127
13, 78336, Note_on_c, 9, 42, 0
13, 78336, Note_on_c, 9, 46, 127
13, 78528, Note_on_c, 9, 46, 0
13, 78528, Note_on_c, 9, 42, 127
13, 78720, Note_on_c, 9, 42, 0
13, 78720, Note_on_c, 9, 42, 127
13, 78912, Note_on_c, 9, 42, 0
13, 78912, Note_on_c, 9, 42, 127
13, 79104, Note_on_c, 9, 42, 0
13, 79104, Note_on_c, 9, 42, 127
13, 79296, Note_on_c, 9, 42, 0
13, 79296, Note_on_c, 9, 42, 127
13, 79488, Note_on_c, 9, 42, 0
13, 79488, Note_on_c, 9, 42, 127
13, 79680, Note_on_c, 9, 42, 0
13, 79680, Note_on_c, 9, 46, 127
13, 79872, Note_on_c, 9, 46, 0
13, 79872, End_track
14, 0, Start_track
14, 0, MIDI_port, 0
14, 0, Title_t, "Staff-12"
14, 0, Control_c, 9, 7, 127
14, 0, Control_c, 9, 10, 64
14, 0, Control_c, 9, 7, 127
14, 0, Control_c, 9, 10, 64
14, 6144, Note_on_c, 9, 35, 110
14, 6480, Note_on_c, 9, 35, 0
14, 6528, Note_on_c, 9, 40, 110
14, 6864, Note_on_c, 9, 40, 0
14, 7104, Note_on_c, 9, 35, 110
14, 7264, Note_on_c, 9, 35, 0
14, 7296, Note_on_c, 9, 40, 110
14, 7456, Note_on_c, 9, 40, 0
14, 7584, Note_on_c, 9, 35, 110
14, 7678, Note_on_c, 9, 35, 0
14, 7680, Note_on_c, 9, 35, 110
14, 7840, Note_on_c, 9, 35, 0
14, 7872, Note_on_c, 9, 35, 110
14, 8032, Note_on_c, 9, 35, 0
14, 8064, Note_on_c, 9, 40, 110
14, 8400, Note_on_c, 9, 40, 0
14, 8640, Note_on_c, 9, 35, 110
14, 8734, Note_on_c, 9, 35, 0
14, 8736, Note_on_c, 9, 35, 110
14, 8830, Note_on_c, 9, 35, 0
14, 8832, Note_on_c, 9, 40, 110
14, 9168, Note_on_c, 9, 40, 0
14, 9216, Note_on_c, 9, 35, 110
14, 9552, Note_on_c, 9, 35, 0
14, 9600, Note_on_c, 9, 40, 110
14, 9936, Note_on_c, 9, 40, 0
14, 10176, Note_on_c, 9, 35, 110
14, 10336, Note_on_c, 9, 35, 0
14, 10368, Note_on_c, 9, 40, 110
14, 10528, Note_on_c, 9, 40, 0
14, 10656, Note_on_c, 9, 35, 110
14, 10750, Note_on_c, 9, 35, 0
14, 10752, Note_on_c, 9, 35, 110
14, 10912, Note_on_c, 9, 35, 0
14, 10944, Note_on_c, 9, 35, 110
14, 11104, Note_on_c, 9, 35, 0
14, 11136, Note_on_c, 9, 40, 110
14, 11472, Note_on_c, 9, 40, 0
14, 11712, Note_on_c, 9, 35, 110
14, 11806, Note_on_c, 9, 35, 0
14, 11808, Note_on_c, 9, 35, 110
14, 11902, Note_on_c, 9, 35, 0
14, 11904, Note_on_c, 9, 40, 110
14, 12240, Note_on_c, 9, 40, 0
14, 12288, Note_on_c, 9, 35, 110
14, 12624, Note_on_c, 9, 35, 0
14, 12672, Note_on_c, 9, 40, 110
14, 13008, Note_on_c, 9, 40, 0
14, 13248, Note_on_c, 9, 35, 110
14, 13408, Note_on_c, 9, 35, 0
14, 13440, Note_on_c, 9, 40, 110
14, 13600, Note_on_c, 9, 40, 0
14, 13728, Note_on_c, 9, 35, 110
14, 13822, Note_on_c, 9, 35, 0
14, 13824, Note_on_c, 9, 35, 110
14, 13984, Note_on_c, 9, 35, 0
14, 14016, Note_on_c, 9, 35, 110
14, 14176, Note_on_c, 9, 35, 0
14, 14208, Note_on_c, 9, 40, 110
14, 14544, Note_on_c, 9, 40, 0
14, 14784, Note_on_c, 9, 35, 110
14, 14878, Note_on_c, 9, 35, 0
14, 14880, Note_on_c, 9, 35, 110
14, 14974, Note_on_c, 9, 35, 0
14, 14976, Note_on_c, 9, 40, 110
14, 15312, Note_on_c, 9, 40, 0
14, 15360, Note_on_c, 9, 35, 110
14, 15696, Note_on_c, 9, 35, 0
14, 15744, Note_on_c, 9, 40, 110
14, 16080, Note_on_c, 9, 40, 0
14, 16320, Note_on_c, 9, 35, 110
14, 16480, Note_on_c, 9, 35, 0
14, 16512, Note_on_c, 9, 40, 110
14, 16672, Note_on_c, 9, 40, 0
14, 16800, Note_on_c, 9, 35, 110
14, 16894, Note_on_c, 9, 35, 0
14, 16896, Note_on_c, 9, 35, 110
14, 17056, Note_on_c, 9, 35, 0
14, 17088, Note_on_c, 9, 35, 110
14, 17248, Note_on_c, 9, 35, 0
14, 17280, Note_on_c, 9, 40, 110
14, 17616, Note_on_c, 9, 40, 0
14, 17856, Note_on_c, 9, 35, 110
14, 17950, Note_on_c, 9, 35, 0
14, 17952, Note_on_c, 9, 35, 110
14, 18046, Note_on_c, 9, 35, 0
14, 18048, Note_on_c, 9, 40, 110
14, 18384, Note_on_c, 9, 40, 0
14, 18432, Note_on_c, 9, 35, 110
14, 18768, Note_on_c, 9, 35, 0
14, 18816, Note_on_c, 9, 40, 110
14, 19152, Note_on_c, 9, 40, 0
14, 19392, Note_on_c, 9, 35, 110
14, 19552, Note_on_c, 9, 35, 0
14, 19584, Note_on_c, 9, 40, 110
14, 19744, Note_on_c, 9, 40, 0
14, 19872, Note_on_c, 9, 35, 110
14, 19966, Note_on_c, 9, 35, 0
14, 19968, Note_on_c, 9, 35, 110
14, 20128, Note_on_c, 9, 35, 0
14, 20160, Note_on_c, 9, 35, 110
14, 20320, Note_on_c, 9, 35, 0
14, 20352, Note_on_c, 9, 40, 110
14, 20688, Note_on_c, 9, 40, 0
14, 20928, Note_on_c, 9, 35, 110
14, 21022, Note_on_c, 9, 35, 0
14, 21024, Note_on_c, 9, 35, 110
14, 21118, Note_on_c, 9, 35, 0
14, 21120, Note_on_c, 9, 40, 110
14, 21456, Note_on_c, 9, 40, 0
14, 21504, Note_on_c, 9, 35, 110
14, 21840, Note_on_c, 9, 35, 0
14, 21888, Note_on_c, 9, 40, 110
14, 22224, Note_on_c, 9, 40, 0
14, 22464, Note_on_c, 9, 35, 110
14, 22624, Note_on_c, 9, 35, 0
14, 22656, Note_on_c, 9, 40, 110
14, 22816, Note_on_c, 9, 40, 0
14, 22944, Note_on_c, 9, 35, 110
14, 23038, Note_on_c, 9, 35, 0
14, 23040, Note_on_c, 9, 35, 110
14, 23200, Note_on_c, 9, 35, 0
14, 23232, Note_on_c, 9, 35, 110
14, 23392, Note_on_c, 9, 35, 0
14, 23424, Note_on_c, 9, 40, 110
14, 23760, Note_on_c, 9, 40, 0
14, 24000, Note_on_c, 9, 35, 110
14, 24094, Note_on_c, 9, 35, 0
14, 24096, Note_on_c, 9, 35, 110
14, 24190, Note_on_c, 9, 35, 0
14, 24192, Note_on_c, 9, 40, 110
14, 24528, Note_on_c, 9, 40, 0
14, 24576, Note_on_c, 9, 35, 110
14, 24912, Note_on_c, 9, 35, 0
14, 24960, Note_on_c, 9, 40, 110
14, 25296, Note_on_c, 9, 40, 0
14, 25536, Note_on_c, 9, 35, 110
14, 25696, Note_on_c, 9, 35, 0
14, 25728, Note_on_c, 9, 40, 110
14, 25888, Note_on_c, 9, 40, 0
14, 26016, Note_on_c, 9, 35, 110
14, 26110, Note_on_c, 9, 35, 0
14, 26112, Note_on_c, 9, 35, 110
14, 26272, Note_on_c, 9, 35, 0
14, 26304, Note_on_c, 9, 35, 110
14, 26464, Note_on_c, 9, 35, 0
14, 26496, Note_on_c, 9, 40, 110
14, 26832, Note_on_c, 9, 40, 0
14, 27072, Note_on_c, 9, 35, 110
14, 27166, Note_on_c, 9, 35, 0
14, 27168, Note_on_c, 9, 35, 110
14, 27262, Note_on_c, 9, 35, 0
14, 27264, Note_on_c, 9, 40, 110
14, 27600, Note_on_c, 9, 40, 0
14, 27648, Note_on_c, 9, 35, 110
14, 27984, Note_on_c, 9, 35, 0
14, 28032, Note_on_c, 9, 40, 110
14, 28368, Note_on_c, 9, 40, 0
14, 28608, Note_on_c, 9, 35, 110
14, 28768, Note_on_c, 9, 35, 0
14, 28800, Note_on_c, 9, 40, 110
14, 28960, Note_on_c, 9, 40, 0
14, 29088, Note_on_c, 9, 35, 110
14, 29182, Note_on_c, 9, 35, 0
14, 29184, Note_on_c, 9, 35, 110
14, 29344, Note_on_c, 9, 35, 0
14, 29376, Note_on_c, 9, 35, 110
14, 29536, Note_on_c, 9, 35, 0
14, 29568, Note_on_c, 9, 40, 110
14, 29904, Note_on_c, 9, 40, 0
14, 30144, Note_on_c, 9, 35, 110
14, 30238, Note_on_c, 9, 35, 0
14, 30240, Note_on_c, 9, 35, 110
14, 30334, Note_on_c, 9, 35, 0
14, 30336, Note_on_c, 9, 40, 110
14, 30672, Note_on_c, 9, 40, 0
14, 43008, Note_on_c, 9, 35, 110
14, 43344, Note_on_c, 9, 35, 0
14, 43392, Note_on_c, 9, 40, 110
14, 43728, Note_on_c, 9, 40, 0
14, 43968, Note_on_c, 9, 35, 110
14, 44128, Note_on_c, 9, 35, 0
14, 44160, Note_on_c, 9, 40, 110
14, 44320, Note_on_c, 9, 40, 0
14, 44448, Note_on_c, 9, 35, 110
14, 44542, Note_on_c, 9, 35, 0
14, 44544, Note_on_c, 9, 35, 110
14, 44704, Note_on_c, 9, 35, 0
14, 44736, Note_on_c, 9, 35, 110
14, 44896, Note_on_c, 9, 35, 0
14, 44928, Note_on_c, 9, 40, 110
14, 45264, Note_on_c, 9, 40, 0
14, 45504, Note_on_c, 9, 35, 110
14, 45598, Note_on_c, 9, 35, 0
14, 45600, Note_on_c, 9, 35, 110
14, 45694, Note_on_c, 9, 35, 0
14, 45696, Note_on_c, 9, 40, 110
14, 46032, Note_on_c, 9, 40, 0
14, 46080, Note_on_c, 9, 35, 110
14, 46416, Note_on_c, 9, 35, 0
14, 46464, Note_on_c, 9, 40, 110
14, 46800, Note_on_c, 9, 40, 0
14, 47040, Note_on_c, 9, 35, 110
14, 47200, Note_on_c, 9, 35, 0
14, 47232, Note_on_c, 9, 40, 110
14, 47392, Note_on_c, 9, 40, 0
14, 47520, Note_on_c, 9, 35, 110
14, 47614, Note_on_c, 9, 35, 0
14, 47616, Note_on_c, 9, 35, 110
14, 47776, Note_on_c, 9, 35, 0
14, 47808, Note_on_c, 9, 35, 110
14, 47968, Note_on_c, 9, 35, 0
14, 48000, Note_on_c, 9, 40, 110
14, 48336, Note_on_c, 9, 40, 0
14, 48576, Note_on_c, 9, 35, 110
14, 48670, Note_on_c, 9, 35, 0
14, 48672, Note_on_c, 9, 35, 110
14, 48766, Note_on_c, 9, 35, 0
14, 48768, Note_on_c, 9, 40, 110
14, 49104, Note_on_c, 9, 40, 0
14, 49152, Note_on_c, 9, 35, 110
14, 49488, Note_on_c, 9, 35, 0
14, 49536, Note_on_c, 9, 40, 110
14, 49872, Note_on_c, 9, 40, 0
14, 50112, Note_on_c, 9, 35, 110
14, 50272, Note_on_c, 9, 35, 0
14, 50304, Note_on_c, 9, 40, 110
14, 50464, Note_on_c, 9, 40, 0
14, 50592, Note_on_c, 9, 35, 110
14, 50686, Note_on_c, 9, 35, 0
14, 50688, Note_on_c, 9, 35, 110
14, 50848, Note_on_c, 9, 35, 0
14, 50880, Note_on_c, 9, 35, 110
14, 51040, Note_on_c, 9, 35, 0
14, 51072, Note_on_c, 9, 40, 110
14, 51408, Note_on_c, 9, 40, 0
14, 51648, Note_on_c, 9, 35, 110
14, 51742, Note_on_c, 9, 35, 0
14, 51744, Note_on_c, 9, 35, 110
14, 51838, Note_on_c, 9, 35, 0
14, 51840, Note_on_c, 9, 40, 110
14, 52176, Note_on_c, 9, 40, 0
14, 52224, Note_on_c, 9, 35, 110
14, 52560, Note_on_c, 9, 35, 0
14, 52608, Note_on_c, 9, 40, 110
14, 52944, Note_on_c, 9, 40, 0
14, 53184, Note_on_c, 9, 35, 110
14, 53344, Note_on_c, 9, 35, 0
14, 53376, Note_on_c, 9, 40, 110
14, 53536, Note_on_c, 9, 40, 0
14, 53664, Note_on_c, 9, 35, 110
14, 53758, Note_on_c, 9, 35, 0
14, 53760, Note_on_c, 9, 35, 110
14, 53920, Note_on_c, 9, 35, 0
14, 53952, Note_on_c, 9, 35, 110
14, 54112, Note_on_c, 9, 35, 0
14, 54144, Note_on_c, 9, 40, 110
14, 54480, Note_on_c, 9, 40, 0
14, 54720, Note_on_c, 9, 35, 110
14, 54814, Note_on_c, 9, 35, 0
14, 54816, Note_on_c, 9, 35, 110
14, 54910, Note_on_c, 9, 35, 0
14, 54912, Note_on_c, 9, 40, 110
14, 55248, Note_on_c, 9, 40, 0
14, 55296, Note_on_c, 9, 35, 110
14, 55632, Note_on_c, 9, 35, 0
14, 55680, Note_on_c, 9, 40, 110
14, 56016, Note_on_c, 9, 40, 0
14, 56256, Note_on_c, 9, 35, 110
14, 56416, Note_on_c, 9, 35, 0
14, 56448, Note_on_c, 9, 40, 110
14, 56608, Note_on_c, 9, 40, 0
14, 56736, Note_on_c, 9, 35, 110
14, 56830, Note_on_c, 9, 35, 0
14, 56832, Note_on_c, 9, 35, 110
14, 56992, Note_on_c, 9, 35, 0
14, 57024, Note_on_c, 9, 35, 110
14, 57184, Note_on_c, 9, 35, 0
14, 57216, Note_on_c, 9, 40, 110
14, 57552, Note_on_c, 9, 40, 0
14, 57792, Note_on_c, 9, 35, 110
14, 57886, Note_on_c, 9, 35, 0
14, 57888, Note_on_c, 9, 35, 110
14, 57982, Note_on_c, 9, 35, 0
14, 57984, Note_on_c, 9, 40, 110
14, 58320, Note_on_c, 9, 40, 0
14, 58368, Note_on_c, 9, 35, 110
14, 58704, Note_on_c, 9, 35, 0
14, 58752, Note_on_c, 9, 40, 110
14, 59088, Note_on_c, 9, 40, 0
14, 59328, Note_on_c, 9, 35, 110
14, 59488, Note_on_c, 9, 35, 0
14, 59520, Note_on_c, 9, 40, 110
14, 59680, Note_on_c, 9, 40, 0
14, 59808, Note_on_c, 9, 35, 110
14, 59902, Note_on_c, 9, 35, 0
14, 59904, Note_on_c, 9, 35, 110
14, 60064, Note_on_c, 9, 35, 0
14, 60096, Note_on_c, 9, 35, 110
14, 60256, Note_on_c, 9, 35, 0
14, 60288, Note_on_c, 9, 40, 110
14, 60624, Note_on_c, 9, 40, 0
14, 60864, Note_on_c, 9, 35, 110
14, 60958, Note_on_c, 9, 35, 0
14, 60960, Note_on_c, 9, 35, 110
14, 61054, Note_on_c, 9, 35, 0
14, 61056, Note_on_c, 9, 40, 110
14, 61392, Note_on_c, 9, 40, 0
14, 61440, Note_on_c, 9, 35, 110
14, 61776, Note_on_c, 9, 35, 0
14, 61824, Note_on_c, 9, 40, 110
14, 62160, Note_on_c, 9, 40, 0
14, 62400, Note_on_c, 9, 35, 110
14, 62560, Note_on_c, 9, 35, 0
14, 62592, Note_on_c, 9, 40, 110
14, 62752, Note_on_c, 9, 40, 0
14, 62880, Note_on_c, 9, 35, 110
14, 62974, Note_on_c, 9, 35, 0
14, 62976, Note_on_c, 9, 35, 110
14, 63136, Note_on_c, 9, 35, 0
14, 63168, Note_on_c, 9, 35, 110
14, 63328, Note_on_c, 9, 35, 0
14, 63360, Note_on_c, 9, 40, 110
14, 63696, Note_on_c, 9, 40, 0
14, 63936, Note_on_c, 9, 35, 110
14, 64030, Note_on_c, 9, 35, 0
14, 64032, Note_on_c, 9, 35, 110
14, 64126, Note_on_c, 9, 35, 0
14, 64128, Note_on_c, 9, 40, 110
14, 64464, Note_on_c, 9, 40, 0
14, 64512, Note_on_c, 9, 35, 110
14, 64848, Note_on_c, 9, 35, 0
14, 64896, Note_on_c, 9, 40, 110
14, 65232, Note_on_c, 9, 40, 0
14, 65472, Note_on_c, 9, 35, 110
14, 65632, Note_on_c, 9, 35, 0
14, 65664, Note_on_c, 9, 40, 110
14, 65824, Note_on_c, 9, 40, 0
14, 65952, Note_on_c, 9, 35, 110
14, 66046, Note_on_c, 9, 35, 0
14, 66048, Note_on_c, 9, 35, 110
14, 66208, Note_on_c, 9, 35, 0
14, 66240, Note_on_c, 9, 35, 110
14, 66400, Note_on_c, 9, 35, 0
14, 66432, Note_on_c, 9, 40, 110
14, 66768, Note_on_c, 9, 40, 0
14, 67008, Note_on_c, 9, 35, 110
14, 67102, Note_on_c, 9, 35, 0
14, 67104, Note_on_c, 9, 35, 110
14, 67198, Note_on_c, 9, 35, 0
14, 67200, Note_on_c, 9, 40, 110
14, 67536, Note_on_c, 9, 40, 0
14, 67536, End_track
15, 0, Start_track
15, 0, MIDI_port, 0
15, 0, Title_t, "Staff-14"
15, 0, Control_c, 9, 7, 127
15, 0, Control_c, 9, 10, 64
15, 0, Control_c, 9, 7, 127
15, 0, Control_c, 9, 10, 64
15, 6336, Note_on_c, 9, 49, 30
15, 6344, Note_on_c, 9, 49, 0
15, 6348, Note_on_c, 9, 49, 36
15, 6356, Note_on_c, 9, 49, 0
15, 6360, Note_on_c, 9, 49, 42
15, 6368, Note_on_c, 9, 49, 0
15, 6372, Note_on_c, 9, 49, 48
15, 6380, Note_on_c, 9, 49, 0
15, 6384, Note_on_c, 9, 49, 54
15, 6392, Note_on_c, 9, 49, 0
15, 6396, Note_on_c, 9, 49, 60
15, 6404, Note_on_c, 9, 49, 0
15, 6408, Note_on_c, 9, 49, 66
15, 6416, Note_on_c, 9, 49, 0
15, 6420, Note_on_c, 9, 49, 72
15, 6428, Note_on_c, 9, 49, 0
15, 6432, Note_on_c, 9, 49, 78
15, 6440, Note_on_c, 9, 49, 0
15, 6444, Note_on_c, 9, 49, 84
15, 6452, Note_on_c, 9, 49, 0
15, 6456, Note_on_c, 9, 49, 90
15, 6464, Note_on_c, 9, 49, 0
15, 6468, Note_on_c, 9, 49, 96
15, 6476, Note_on_c, 9, 49, 0
15, 6480, Note_on_c, 9, 49, 102
15, 6488, Note_on_c, 9, 49, 0
15, 6492, Note_on_c, 9, 49, 108
15, 6500, Note_on_c, 9, 49, 0
15, 6504, Note_on_c, 9, 49, 114
15, 6512, Note_on_c, 9, 49, 0
15, 6516, Note_on_c, 9, 49, 127
15, 6528, Note_on_c, 9, 49, 0
15, 6528, Note_on_c, 9, 49, 10
15, 6536, Note_on_c, 9, 49, 0
15, 9408, Note_on_c, 9, 49, 30
15, 9416, Note_on_c, 9, 49, 0
15, 9420, Note_on_c, 9, 49, 36
15, 9428, Note_on_c, 9, 49, 0
15, 9432, Note_on_c, 9, 49, 42
15, 9440, Note_on_c, 9, 49, 0
15, 9444, Note_on_c, 9, 49, 48
15, 9452, Note_on_c, 9, 49, 0
15, 9456, Note_on_c, 9, 49, 54
15, 9464, Note_on_c, 9, 49, 0
15, 9468, Note_on_c, 9, 49, 60
15, 9476, Note_on_c, 9, 49, 0
15, 9480, Note_on_c, 9, 49, 66
15, 9488, Note_on_c, 9, 49, 0
15, 9492, Note_on_c, 9, 49, 72
15, 9500, Note_on_c, 9, 49, 0
15, 9504, Note_on_c, 9, 49, 78
15, 9512, Note_on_c, 9, 49, 0
15, 9516, Note_on_c, 9, 49, 84
15, 9524, Note_on_c, 9, 49, 0
15, 9528, Note_on_c, 9, 49, 90
15, 9536, Note_on_c, 9, 49, 0
15, 9540, Note_on_c, 9, 49, 96
15, 9548, Note_on_c, 9, 49, 0
15, 9552, Note_on_c, 9, 49, 102
15, 9560, Note_on_c, 9, 49, 0
15, 9564, Note_on_c, 9, 49, 108
15, 9572, Note_on_c, 9, 49, 0
15, 9576, Note_on_c, 9, 49, 114
15, 9584, Note_on_c, 9, 49, 0
15, 9588, Note_on_c, 9, 49, 127
15, 9600, Note_on_c, 9, 49, 0
15, 9600, Note_on_c, 9, 49, 10
15, 9608, Note_on_c, 9, 49, 0
15, 12480, Note_on_c, 9, 49, 30
15, 12488, Note_on_c, 9, 49, 0
15, 12492, Note_on_c, 9, 49, 36
15, 12500, Note_on_c, 9, 49, 0
15, 12504, Note_on_c, 9, 49, 42
15, 12512, Note_on_c, 9, 49, 0
15, 12516, Note_on_c, 9, 49, 48
15, 12524, Note_on_c, 9, 49, 0
15, 12528, Note_on_c, 9, 49, 54
15, 12536, Note_on_c, 9, 49, 0
15, 12540, Note_on_c, 9, 49, 60
15, 12548, Note_on_c, 9, 49, 0
15, 12552, Note_on_c, 9, 49, 66
15, 12560, Note_on_c, 9, 49, 0
15, 12564, Note_on_c, 9, 49, 72
15, 12572, Note_on_c, 9, 49, 0
15, 12576, Note_on_c, 9, 49, 78
15, 12584, Note_on_c, 9, 49, 0
15, 12588, Note_on_c, 9, 49, 84
15, 12596, Note_on_c, 9, 49, 0
15, 12600, Note_on_c, 9, 49, 90
15, 12608, Note_on_c, 9, 49, 0
15, 12612, Note_on_c, 9, 49, 96
15, 12620, Note_on_c, 9, 49, 0
15, 12624, Note_on_c, 9, 49, 102
15, 12632, Note_on_c, 9, 49, 0
15, 12636, Note_on_c, 9, 49, 108
15, 12644, Note_on_c, 9, 49, 0
15, 12648, Note_on_c, 9, 49, 114
15, 12656, Note_on_c, 9, 49, 0
15, 12660, Note_on_c, 9, 49, 127
15, 12672, Note_on_c, 9, 49, 0
15, 12672, Note_on_c, 9, 49, 10
15, 12680, Note_on_c, 9, 49, 0
15, 15552, Note_on_c, 9, 49, 30
15, 15560, Note_on_c, 9, 49, 0
15, 15564, Note_on_c, 9, 49, 36
15, 15572, Note_on_c, 9, 49, 0
15, 15576, Note_on_c, 9, 49, 42
15, 15584, Note_on_c, 9, 49, 0
15, 15588, Note_on_c, 9, 49, 48
15, 15596, Note_on_c, 9, 49, 0
15, 15600, Note_on_c, 9, 49, 54
15, 15608, Note_on_c, 9, 49, 0
15, 15612, Note_on_c, 9, 49, 60
15, 15620, Note_on_c, 9, 49, 0
15, 15624, Note_on_c, 9, 49, 66
15, 15632, Note_on_c, 9, 49, 0
15, 15636, Note_on_c, 9, 49, 72
15, 15644, Note_on_c, 9, 49, 0
15, 15648, Note_on_c, 9, 49, 78
15, 15656, Note_on_c, 9, 49, 0
15, 15660, Note_on_c, 9, 49, 84
15, 15668, Note_on_c, 9, 49, 0
15, 15672, Note_on_c, 9, 49, 90
15, 15680, Note_on_c, 9, 49, 0
15, 15684, Note_on_c, 9, 49, 96
15, 15692, Note_on_c, 9, 49, 0
15, 15696, Note_on_c, 9, 49, 102
15, 15704, Note_on_c, 9, 49, 0
15, 15708, Note_on_c, 9, 49, 108
15, 15716, Note_on_c, 9, 49, 0
15, 15720, Note_on_c, 9, 49, 114
15, 15728, Note_on_c, 9, 49, 0
15, 15732, Note_on_c, 9, 49, 127
15, 15744, Note_on_c, 9, 49, 0
15, 15744, Note_on_c, 9, 49, 10
15, 15752, Note_on_c, 9, 49, 0
15, 18624, Note_on_c, 9, 49, 30
15, 18632, Note_on_c, 9, 49, 0
15, 18636, Note_on_c, 9, 49, 36
15, 18644, Note_on_c, 9, 49, 0
15, 18648, Note_on_c, 9, 49, 42
15, 18656, Note_on_c, 9, 49, 0
15, 18660, Note_on_c, 9, 49, 48
15, 18668, Note_on_c, 9, 49, 0
15, 18672, Note_on_c, 9, 49, 54
15, 18680, Note_on_c, 9, 49, 0
15, 18684, Note_on_c, 9, 49, 60
15, 18692, Note_on_c, 9, 49, 0
15, 18696, Note_on_c, 9, 49, 66
15, 18704, Note_on_c, 9, 49, 0
15, 18708, Note_on_c, 9, 49, 72
15, 18716, Note_on_c, 9, 49, 0
15, 18720, Note_on_c, 9, 49, 78
15, 18728, Note_on_c, 9, 49, 0
15, 18732, Note_on_c, 9, 49, 84
15, 18740, Note_on_c, 9, 49, 0
15, 18744, Note_on_c, 9, 49, 90
15, 18752, Note_on_c, 9, 49, 0
15, 18756, Note_on_c, 9, 49, 96
15, 18764, Note_on_c, 9, 49, 0
15, 18768, Note_on_c, 9, 49, 102
15, 18776, Note_on_c, 9, 49, 0
15, 18780, Note_on_c, 9, 49, 108
15, 18788, Note_on_c, 9, 49, 0
15, 18792, Note_on_c, 9, 49, 114
15, 18800, Note_on_c, 9, 49, 0
15, 18804, Note_on_c, 9, 49, 127
15, 18816, Note_on_c, 9, 49, 0
15, 18816, Note_on_c, 9, 49, 10
15, 18824, Note_on_c, 9, 49, 0
15, 21696, Note_on_c, 9, 49, 30
15, 21704, Note_on_c, 9, 49, 0
15, 21708, Note_on_c, 9, 49, 36
15, 21716, Note_on_c, 9, 49, 0
15, 21720, Note_on_c, 9, 49, 42
15, 21728, Note_on_c, 9, 49, 0
15, 21732, Note_on_c, 9, 49, 48
15, 21740, Note_on_c, 9, 49, 0
15, 21744, Note_on_c, 9, 49, 54
15, 21752, Note_on_c, 9, 49, 0
15, 21756, Note_on_c, 9, 49, 60
15, 21764, Note_on_c, 9, 49, 0
15, 21768, Note_on_c, 9, 49, 66
15, 21776, Note_on_c, 9, 49, 0
15, 21780, Note_on_c, 9, 49, 72
15, 21788, Note_on_c, 9, 49, 0
15, 21792, Note_on_c, 9, 49, 78
15, 21800, Note_on_c, 9, 49, 0
15, 21804, Note_on_c, 9, 49, 84
15, 21812, Note_on_c, 9, 49, 0
15, 21816, Note_on_c, 9, 49, 90
15, 21824, Note_on_c, 9, 49, 0
15, 21828, Note_on_c, 9, 49, 96
15, 21836, Note_on_c, 9, 49, 0
15, 21840, Note_on_c, 9, 49, 102
15, 21848, Note_on_c, 9, 49, 0
15, 21852, Note_on_c, 9, 49, 108
15, 21860, Note_on_c, 9, 49, 0
15, 21864, Note_on_c, 9, 49, 114
15, 21872, Note_on_c, 9, 49, 0
15, 21876, Note_on_c, 9, 49, 127
15, 21888, Note_on_c, 9, 49, 0
15, 21888, Note_on_c, 9, 49, 10
15, 21896, Note_on_c, 9, 49, 0
15, 24768, Note_on_c, 9, 49, 30
15, 24776, Note_on_c, 9, 49, 0
15, 24780, Note_on_c, 9, 49, 36
15, 24788, Note_on_c, 9, 49, 0
15, 24792, Note_on_c, 9, 49, 42
15, 24800, Note_on_c, 9, 49, 0
15, 24804, Note_on_c, 9, 49, 48
15, 24812, Note_on_c, 9, 49, 0
15, 24816, Note_on_c, 9, 49, 54
15, 24824, Note_on_c, 9, 49, 0
15, 24828, Note_on_c, 9, 49, 60
15, 24836, Note_on_c, 9, 49, 0
15, 24840, Note_on_c, 9, 49, 66
15, 24848, Note_on_c, 9, 49, 0
15, 24852, Note_on_c, 9, 49, 72
15, 24860, Note_on_c, 9, 49, 0
15, 24864, Note_on_c, 9, 49, 78
15, 24872, Note_on_c, 9, 49, 0
15, 24876, Note_on_c, 9, 49, 84
15, 24884, Note_on_c, 9, 49, 0
15, 24888, Note_on_c, 9, 49, 90
15, 24896, Note_on_c, 9, 49, 0
15, 24900, Note_on_c, 9, 49, 96
15, 24908, Note_on_c, 9, 49, 0
15, 24912, Note_on_c, 9, 49, 102
15, 24920, Note_on_c, 9, 49, 0
15, 24924, Note_on_c, 9, 49, 108
15, 24932, Note_on_c, 9, 49, 0
15, 24936, Note_on_c, 9, 49, 114
15, 24944, Note_on_c, 9, 49, 0
15, 24948, Note_on_c, 9, 49, 127
15, 24960, Note_on_c, 9, 49, 0
15, 24960, Note_on_c, 9, 49, 10
15, 24968, Note_on_c, 9, 49, 0
15, 27840, Note_on_c, 9, 49, 30
15, 27848, Note_on_c, 9, 49, 0
15, 27852, Note_on_c, 9, 49, 36
15, 27860, Note_on_c, 9, 49, 0
15, 27864, Note_on_c, 9, 49, 42
15, 27872, Note_on_c, 9, 49, 0
15, 27876, Note_on_c, 9, 49, 48
15, 27884, Note_on_c, 9, 49, 0
15, 27888, Note_on_c, 9, 49, 54
15, 27896, Note_on_c, 9, 49, 0
15, 27900, Note_on_c, 9, 49, 60
15, 27908, Note_on_c, 9, 49, 0
15, 27912, Note_on_c, 9, 49, 66
15, 27920, Note_on_c, 9, 49, 0
15, 27924, Note_on_c, 9, 49, 72
15, 27932, Note_on_c, 9, 49, 0
15, 27936, Note_on_c, 9, 49, 78
15, 27944, Note_on_c, 9, 49, 0
15, 27948, Note_on_c, 9, 49, 84
15, 27956, Note_on_c, 9, 49, 0
15, 27960, Note_on_c, 9, 49, 90
15, 27968, Note_on_c, 9, 49, 0
15, 27972, Note_on_c, 9, 49, 96
15, 27980, Note_on_c, 9, 49, 0
15, 27984, Note_on_c, 9, 49, 102
15, 27992, Note_on_c, 9, 49, 0
15, 27996, Note_on_c, 9, 49, 108
15, 28004, Note_on_c, 9, 49, 0
15, 28008, Note_on_c, 9, 49, 114
15, 28016, Note_on_c, 9, 49, 0
15, 28020, Note_on_c, 9, 49, 127
15, 28032, Note_on_c, 9, 49, 0
15, 28032, Note_on_c, 9, 49, 10
15, 28040, Note_on_c, 9, 49, 0
15, 43200, Note_on_c, 9, 49, 30
15, 43208, Note_on_c, 9, 49, 0
15, 43212, Note_on_c, 9, 49, 36
15, 43220, Note_on_c, 9, 49, 0
15, 43224, Note_on_c, 9, 49, 42
15, 43232, Note_on_c, 9, 49, 0
15, 43236, Note_on_c, 9, 49, 48
15, 43244, Note_on_c, 9, 49, 0
15, 43248, Note_on_c, 9, 49, 54
15, 43256, Note_on_c, 9, 49, 0
15, 43260, Note_on_c, 9, 49, 60
15, 43268, Note_on_c, 9, 49, 0
15, 43272, Note_on_c, 9, 49, 66
15, 43280, Note_on_c, 9, 49, 0
15, 43284, Note_on_c, 9, 49, 72
15, 43292, Note_on_c, 9, 49, 0
15, 43296, Note_on_c, 9, 49, 78
15, 43304, Note_on_c, 9, 49, 0
15, 43308, Note_on_c, 9, 49, 84
15, 43316, Note_on_c, 9, 49, 0
15, 43320, Note_on_c, 9, 49, 90
15, 43328, Note_on_c, 9, 49, 0
15, 43332, Note_on_c, 9, 49, 96
15, 43340, Note_on_c, 9, 49, 0
15, 43344, Note_on_c, 9, 49, 102
15, 43352, Note_on_c, 9, 49, 0
15, 43356, Note_on_c, 9, 49, 108
15, 43364, Note_on_c, 9, 49, 0
15, 43368, Note_on_c, 9, 49, 114
15, 43376, Note_on_c, 9, 49, 0
15, 43380, Note_on_c, 9, 49, 127
15, 43392, Note_on_c, 9, 49, 0
15, 43392, Note_on_c, 9, 49, 10
15, 43400, Note_on_c, 9, 49, 0
15, 46272, Note_on_c, 9, 49, 30
15, 46280, Note_on_c, 9, 49, 0
15, 46284, Note_on_c, 9, 49, 36
15, 46292, Note_on_c, 9, 49, 0
15, 46296, Note_on_c, 9, 49, 42
15, 46304, Note_on_c, 9, 49, 0
15, 46308, Note_on_c, 9, 49, 48
15, 46316, Note_on_c, 9, 49, 0
15, 46320, Note_on_c, 9, 49, 54
15, 46328, Note_on_c, 9, 49, 0
15, 46332, Note_on_c, 9, 49, 60
15, 46340, Note_on_c, 9, 49, 0
15, 46344, Note_on_c, 9, 49, 66
15, 46352, Note_on_c, 9, 49, 0
15, 46356, Note_on_c, 9, 49, 72
15, 46364, Note_on_c, 9, 49, 0
15, 46368, Note_on_c, 9, 49, 78
15, 46376, Note_on_c, 9, 49, 0
15, 46380, Note_on_c, 9, 49, 84
15, 46388, Note_on_c, 9, 49, 0
15, 46392, Note_on_c, 9, 49, 90
15, 46400, Note_on_c, 9, 49, 0
15, 46404, Note_on_c, 9, 49, 96
15, 46412, Note_on_c, 9, 49, 0
15, 46416, Note_on_c, 9, 49, 102
15, 46424, Note_on_c, 9, 49, 0
15, 46428, Note_on_c, 9, 49, 108
15, 46436, Note_on_c, 9, 49, 0
15, 46440, Note_on_c, 9, 49, 114
15, 46448, Note_on_c, 9, 49, 0
15, 46452, Note_on_c, 9, 49, 127
15, 46464, Note_on_c, 9, 49, 0
15, 46464, Note_on_c, 9, 49, 10
15, 46472, Note_on_c, 9, 49, 0
15, 49344, Note_on_c, 9, 49, 30
15, 49352, Note_on_c, 9, 49, 0
15, 49356, Note_on_c, 9, 49, 36
15, 49364, Note_on_c, 9, 49, 0
15, 49368, Note_on_c, 9, 49, 42
15, 49376, Note_on_c, 9, 49, 0
15, 49380, Note_on_c, 9, 49, 48
15, 49388, Note_on_c, 9, 49, 0
15, 49392, Note_on_c, 9, 49, 54
15, 49400, Note_on_c, 9, 49, 0
15, 49404, Note_on_c, 9, 49, 60
15, 49412, Note_on_c, 9, 49, 0
15, 49416, Note_on_c, 9, 49, 66
15, 49424, Note_on_c, 9, 49, 0
15, 49428, Note_on_c, 9, 49, 72
15, 49436, Note_on_c, 9, 49, 0
15, 49440, Note_on_c, 9, 49, 78
15, 49448, Note_on_c, 9, 49, 0
15, 49452, Note_on_c, 9, 49, 84
15, 49460, Note_on_c, 9, 49, 0
15, 49464, Note_on_c, 9, 49, 90
15, 49472, Note_on_c, 9, 49, 0
15, 49476, Note_on_c, 9, 49, 96
15, 49484, Note_on_c, 9, 49, 0
15, 49488, Note_on_c, 9, 49, 102
15, 49496, Note_on_c, 9, 49, 0
15, 49500, Note_on_c, 9, 49, 108
15, 49508, Note_on_c, 9, 49, 0
15, 49512, Note_on_c, 9, 49, 114
15, 49520, Note_on_c, 9, 49, 0
15, 49524, Note_on_c, 9, 49, 127
15, 49536, Note_on_c, 9, 49, 0
15, 49536, Note_on_c, 9, 49, 10
15, 49544, Note_on_c, 9, 49, 0
15, 52416, Note_on_c, 9, 49, 30
15, 52424, Note_on_c, 9, 49, 0
15, 52428, Note_on_c, 9, 49, 36
15, 52436, Note_on_c, 9, 49, 0
15, 52440, Note_on_c, 9, 49, 42
15, 52448, Note_on_c, 9, 49, 0
15, 52452, Note_on_c, 9, 49, 48
15, 52460, Note_on_c, 9, 49, 0
15, 52464, Note_on_c, 9, 49, 54
15, 52472, Note_on_c, 9, 49, 0
15, 52476, Note_on_c, 9, 49, 60
15, 52484, Note_on_c, 9, 49, 0
15, 52488, Note_on_c, 9, 49, 66
15, 52496, Note_on_c, 9, 49, 0
15, 52500, Note_on_c, 9, 49, 72
15, 52508, Note_on_c, 9, 49, 0
15, 52512, Note_on_c, 9, 49, 78
15, 52520, Note_on_c, 9, 49, 0
15, 52524, Note_on_c, 9, 49, 84
15, 52532, Note_on_c, 9, 49, 0
15, 52536, Note_on_c, 9, 49, 90
15, 52544, Note_on_c, 9, 49, 0
15, 52548, Note_on_c, 9, 49, 96
15, 52556, Note_on_c, 9, 49, 0
15, 52560, Note_on_c, 9, 49, 102
15, 52568, Note_on_c, 9, 49, 0
15, 52572, Note_on_c, 9, 49, 108
15, 52580, Note_on_c, 9, 49, 0
15, 52584, Note_on_c, 9, 49, 114
15, 52592, Note_on_c, 9, 49, 0
15, 52596, Note_on_c, 9, 49, 127
15, 52608, Note_on_c, 9, 49, 0
15, 52608, Note_on_c, 9, 49, 10
15, 52616, Note_on_c, 9, 49, 0
15, 55488, Note_on_c, 9, 49, 30
15, 55496, Note_on_c, 9, 49, 0
15, 55500, Note_on_c, 9, 49, 36
15, 55508, Note_on_c, 9, 49, 0
15, 55512, Note_on_c, 9, 49, 42
15, 55520, Note_on_c, 9, 49, 0
15, 55524, Note_on_c, 9, 49, 48
15, 55532, Note_on_c, 9, 49, 0
15, 55536, Note_on_c, 9, 49, 54
15, 55544, Note_on_c, 9, 49, 0
15, 55548, Note_on_c, 9, 49, 60
15, 55556, Note_on_c, 9, 49, 0
15, 55560, Note_on_c, 9, 49, 66
15, 55568, Note_on_c, 9, 49, 0
15, 55572, Note_on_c, 9, 49, 72
15, 55580, Note_on_c, 9, 49, 0
15, 55584, Note_on_c, 9, 49, 78
15, 55592, Note_on_c, 9, 49, 0
15, 55596, Note_on_c, 9, 49, 84
15, 55604, Note_on_c, 9, 49, 0
15, 55608, Note_on_c, 9, 49, 90
15, 55616, Note_on_c, 9, 49, 0
15, 55620, Note_on_c, 9, 49, 96
15, 55628, Note_on_c, 9, 49, 0
15, 55632, Note_on_c, 9, 49, 102
15, 55640, Note_on_c, 9, 49, 0
15, 55644, Note_on_c, 9, 49, 108
15, 55652, Note_on_c, 9, 49, 0
15, 55656, Note_on_c, 9, 49, 114
15, 55664, Note_on_c, 9, 49, 0
15, 55668, Note_on_c, 9, 49, 127
15, 55680, Note_on_c, 9, 49, 0
15, 55680, Note_on_c, 9, 49, 10
15, 55688, Note_on_c, 9, 49, 0
15, 58560, Note_on_c, 9, 49, 30
15, 58568, Note_on_c, 9, 49, 0
15, 58572, Note_on_c, 9, 49, 36
15, 58580, Note_on_c, 9, 49, 0
15, 58584, Note_on_c, 9, 49, 42
15, 58592, Note_on_c, 9, 49, 0
15, 58596, Note_on_c, 9, 49, 48
15, 58604, Note_on_c, 9, 49, 0
15, 58608, Note_on_c, 9, 49, 54
15, 58616, Note_on_c, 9, 49, 0
15, 58620, Note_on_c, 9, 49, 60
15, 58628, Note_on_c, 9, 49, 0
15, 58632, Note_on_c, 9, 49, 66
15, 58640, Note_on_c, 9, 49, 0
15, 58644, Note_on_c, 9, 49, 72
15, 58652, Note_on_c, 9, 49, 0
15, 58656, Note_on_c, 9, 49, 78
15, 58664, Note_on_c, 9, 49, 0
15, 58668, Note_on_c, 9, 49, 84
15, 58676, Note_on_c, 9, 49, 0
15, 58680, Note_on_c, 9, 49, 90
15, 58688, Note_on_c, 9, 49, 0
15, 58692, Note_on_c, 9, 49, 96
15, 58700, Note_on_c, 9, 49, 0
15, 58704, Note_on_c, 9, 49, 102
15, 58712, Note_on_c, 9, 49, 0
15, 58716, Note_on_c, 9, 49, 108
15, 58724, Note_on_c, 9, 49, 0
15, 58728, Note_on_c, 9, 49, 114
15, 58736, Note_on_c, 9, 49, 0
15, 58740, Note_on_c, 9, 49, 127
15, 58752, Note_on_c, 9, 49, 0
15, 58752, Note_on_c, 9, 49, 10
15, 58760, Note_on_c, 9, 49, 0
15, 61632, Note_on_c, 9, 49, 30
15, 61640, Note_on_c, 9, 49, 0
15, 61644, Note_on_c, 9, 49, 36
15, 61652, Note_on_c, 9, 49, 0
15, 61656, Note_on_c, 9, 49, 42
15, 61664, Note_on_c, 9, 49, 0
15, 61668, Note_on_c, 9, 49, 48
15, 61676, Note_on_c, 9, 49, 0
15, 61680, Note_on_c, 9, 49, 54
15, 61688, Note_on_c, 9, 49, 0
15, 61692, Note_on_c, 9, 49, 60
15, 61700, Note_on_c, 9, 49, 0
15, 61704, Note_on_c, 9, 49, 66
15, 61712, Note_on_c, 9, 49, 0
15, 61716, Note_on_c, 9, 49, 72
15, 61724, Note_on_c, 9, 49, 0
15, 61728, Note_on_c, 9, 49, 78
15, 61736, Note_on_c, 9, 49, 0
15, 61740, Note_on_c, 9, 49, 84
15, 61748, Note_on_c, 9, 49, 0
15, 61752, Note_on_c, 9, 49, 90
15, 61760, Note_on_c, 9, 49, 0
15, 61764, Note_on_c, 9, 49, 96
15, 61772, Note_on_c, 9, 49, 0
15, 61776, Note_on_c, 9, 49, 102
15, 61784, Note_on_c, 9, 49, 0
15, 61788, Note_on_c, 9, 49, 108
15, 61796, Note_on_c, 9, 49, 0
15, 61800, Note_on_c, 9, 49, 114
15, 61808, Note_on_c, 9, 49, 0
15, 61812, Note_on_c, 9, 49, 127
15, 61824, Note_on_c, 9, 49, 0
15, 61824, Note_on_c, 9, 49, 10
15, 61832, Note_on_c, 9, 49, 0
15, 64704, Note_on_c, 9, 49, 30
15, 64712, Note_on_c, 9, 49, 0
15, 64716, Note_on_c, 9, 49, 36
15, 64724, Note_on_c, 9, 49, 0
15, 64728, Note_on_c, 9, 49, 42
15, 64736, Note_on_c, 9, 49, 0
15, 64740, Note_on_c, 9, 49, 48
15, 64748, Note_on_c, 9, 49, 0
15, 64752, Note_on_c, 9, 49, 54
15, 64760, Note_on_c, 9, 49, 0
15, 64764, Note_on_c, 9, 49, 60
15, 64772, Note_on_c, 9, 49, 0
15, 64776, Note_on_c, 9, 49, 66
15, 64784, Note_on_c, 9, 49, 0
15, 64788, Note_on_c, 9, 49, 72
15, 64796, Note_on_c, 9, 49, 0
15, 64800, Note_on_c, 9, 49, 78
15, 64808, Note_on_c, 9, 49, 0
15, 64812, Note_on_c, 9, 49, 84
15, 64820, Note_on_c, 9, 49, 0
15, 64824, Note_on_c, 9, 49, 90
15, 64832, Note_on_c, 9, 49, 0
15, 64836, Note_on_c, 9, 49, 96
15, 64844, Note_on_c, 9, 49, 0
15, 64848, Note_on_c, 9, 49, 102
15, 64856, Note_on_c, 9, 49, 0
15, 64860, Note_on_c, 9, 49, 108
15, 64868, Note_on_c, 9, 49, 0
15, 64872, Note_on_c, 9, 49, 114
15, 64880, Note_on_c, 9, 49, 0
15, 64884, Note_on_c, 9, 49, 127
15, 64896, Note_on_c, 9, 49, 0
15, 64896, Note_on_c, 9, 49, 10
15, 64904, Note_on_c, 9, 49, 0
15, 64904, End_track
16, 0, Start_track
16, 0, MIDI_port, 0
16, 0, Title_t, "Staff-13"
16, 0, Control_c, 10, 7, 127
16, 0, Control_c, 10, 10, 64
16, 0, Control_c, 10, 7, 127
16, 0, Control_c, 10, 10, 64
16, 0, Program_c, 10, 35
16, 6144, Note_on_c, 10, 36, 92
16, 7584, Note_on_c, 10, 36, 0
16, 7584, Note_on_c, 10, 31, 92
16, 7680, Note_on_c, 10, 31, 0
16, 7680, Note_on_c, 10, 36, 92
16, 9168, Note_on_c, 10, 36, 0
16, 9216, Note_on_c, 10, 35, 92
16, 10656, Note_on_c, 10, 35, 0
16, 10656, Note_on_c, 10, 30, 92
16, 10752, Note_on_c, 10, 30, 0
16, 10752, Note_on_c, 10, 35, 92
16, 12240, Note_on_c, 10, 35, 0
16, 12288, Note_on_c, 10, 36, 92
16, 13728, Note_on_c, 10, 36, 0
16, 13728, Note_on_c, 10, 31, 92
16, 13824, Note_on_c, 10, 31, 0
16, 13824, Note_on_c, 10, 36, 92
16, 15312, Note_on_c, 10, 36, 0
16, 15360, Note_on_c, 10, 35, 92
16, 16800, Note_on_c, 10, 35, 0
16, 16800, Note_on_c, 10, 30, 92
16, 16896, Note_on_c, 10, 30, 0
16, 16896, Note_on_c, 10, 35, 92
16, 18384, Note_on_c, 10, 35, 0
16, 18432, Note_on_c, 10, 36, 92
16, 19872, Note_on_c, 10, 36, 0
16, 19872, Note_on_c, 10, 31, 92
16, 19968, Note_on_c, 10, 31, 0
16, 19968, Note_on_c, 10, 36, 92
16, 21456, Note_on_c, 10, 36, 0
16, 21504, Note_on_c, 10, 35, 92
16, 22944, Note_on_c, 10, 35, 0
16, 22944, Note_on_c, 10, 30, 92
16, 23040, Note_on_c, 10, 30, 0
16, 23040, Note_on_c, 10, 35, 92
16, 24528, Note_on_c, 10, 35, 0
16, 24576, Note_on_c, 10, 36, 92
16, 26016, Note_on_c, 10, 36, 0
16, 26016, Note_on_c, 10, 31, 92
16, 26112, Note_on_c, 10, 31, 0
16, 26112, Note_on_c, 10, 36, 92
16, 27600, Note_on_c, 10, 36, 0
16, 27648, Note_on_c, 10, 35, 92
16, 29088, Note_on_c, 10, 35, 0
16, 29088, Note_on_c, 10, 30, 92
16, 29184, Note_on_c, 10, 30, 0
16, 29184, Note_on_c, 10, 35, 92
16, 30672, Note_on_c, 10, 35, 0
16, 43008, Note_on_c, 10, 36, 92
16, 44448, Note_on_c, 10, 36, 0
16, 44448, Note_on_c, 10, 31, 92
16, 44544, Note_on_c, 10, 31, 0
16, 44544, Note_on_c, 10, 36, 92
16, 46032, Note_on_c, 10, 36, 0
16, 46080, Note_on_c, 10, 35, 92
16, 47520, Note_on_c, 10, 35, 0
16, 47520, Note_on_c, 10, 30, 92
16, 47616, Note_on_c, 10, 30, 0
16, 47616, Note_on_c, 10, 35, 92
16, 49104, Note_on_c, 10, 35, 0
16, 49152, Note_on_c, 10, 36, 92
16, 50592, Note_on_c, 10, 36, 0
16, 50592, Note_on_c, 10, 31, 92
16, 50688, Note_on_c, 10, 31, 0
16, 50688, Note_on_c, 10, 36, 92
16, 52176, Note_on_c, 10, 36, 0
16, 52224, Note_on_c, 10, 35, 92
16, 53664, Note_on_c, 10, 35, 0
16, 53664, Note_on_c, 10, 30, 92
16, 53760, Note_on_c, 10, 30, 0
16, 53760, Note_on_c, 10, 35, 92
16, 55248, Note_on_c, 10, 35, 0
16, 55296, Note_on_c, 10, 36, 92
16, 56736, Note_on_c, 10, 36, 0
16, 56736, Note_on_c, 10, 31, 92
16, 56832, Note_on_c, 10, 31, 0
16, 56832, Note_on_c, 10, 36, 92
16, 58320, Note_on_c, 10, 36, 0
16, 58368, Note_on_c, 10, 35, 92
16, 59808, Note_on_c, 10, 35, 0
16, 59808, Note_on_c, 10, 30, 92
16, 59904, Note_on_c, 10, 30, 0
16, 59904, Note_on_c, 10, 35, 92
16, 61392, Note_on_c, 10, 35, 0
16, 61440, Note_on_c, 10, 36, 92
16, 62880, Note_on_c, 10, 36, 0
16, 62880, Note_on_c, 10, 31, 92
16, 62976, Note_on_c, 10, 31, 0
16, 62976, Note_on_c, 10, 36, 92
16, 64464, Note_on_c, 10, 36, 0
16, 64512, Note_on_c, 10, 35, 92
16, 65952, Note_on_c, 10, 35, 0
16, 65952, Note_on_c, 10, 30, 92
16, 66048, Note_on_c, 10, 30, 0
16, 66048, Note_on_c, 10, 35, 92
16, 67536, Note_on_c, 10, 35, 0
16, 67536, End_track
0, 0, End_of_file
