0, 0, Header, 1, 14, 192
1, 0, Start_track
1, 0, Title_t, "Seymour's Theme"
1, 0, Text_t, "By Unregistered User"
1, 0, Copyright_t, "Copyright © 2001 by NoteWorthy Software, Inc."
1, 0, Copyright_t, "All Rights Reserved"
1, 0, Text_t, "Generated by NoteWorthy Composer"
1, 0, Time_signature, 4, 2, 24, 8
1, 0, End_track
2, 0, Start_track
2, 0, MIDI_port, 0
2, 0, Title_t, "Staff"
2, 0, Control_c, 0, 7, 127
2, 0, Control_c, 0, 10, 64
2, 0, Program_c, 0, 49
2, 0, Note_on_c, 0, 79, 110
2, 576, Note_on_c, 0, 79, 0
2, 576, Note_on_c, 0, 71, 110
2, 960, Note_on_c, 0, 71, 0
2, 960, Note_on_c, 0, 83, 110
2, 3550, Note_on_c, 0, 83, 0
2, 3744, Note_on_c, 0, 78, 110
2, 4320, Note_on_c, 0, 78, 0
2, 4320, Note_on_c, 0, 70, 110
2, 4704, Note_on_c, 0, 70, 0
2, 4704, Note_on_c, 0, 82, 110
2, 7264, Note_on_c, 0, 82, 0
2, 7488, Note_on_c, 0, 75, 110
2, 8064, Note_on_c, 0, 75, 0
2, 8064, Note_on_c, 0, 67, 110
2, 8448, Note_on_c, 0, 67, 0
2, 8448, Note_on_c, 0, 79, 110
2, 11038, Note_on_c, 0, 79, 0
2, 11232, Note_on_c, 0, 74, 110
2, 11808, Note_on_c, 0, 74, 0
2, 11808, Note_on_c, 0, 65, 110
2, 12192, Note_on_c, 0, 65, 0
2, 12192, Note_on_c, 0, 77, 110
2, 14736, Note_on_c, 0, 77, 0
2, 14736, End_track
3, 0, Start_track
3, 0, MIDI_port, 0
3, 0, Title_t, "Staff-1"
3, 0, Control_c, 1, 7, 127
3, 0, Control_c, 1, 10, 64
3, 0, Program_c, 1, 49
3, 0, Note_on_c, 1, 55, 110
3, 576, Note_on_c, 1, 55, 0
3, 576, Note_on_c, 1, 47, 110
3, 960, Note_on_c, 1, 47, 0
3, 960, Note_on_c, 1, 59, 110
3, 3550, Note_on_c, 1, 59, 0
3, 3744, Note_on_c, 1, 54, 110
3, 4318, Note_on_c, 1, 54, 0
3, 4320, Note_on_c, 1, 46, 110
3, 4704, Note_on_c, 1, 46, 0
3, 4704, Note_on_c, 1, 58, 110
3, 7264, Note_on_c, 1, 58, 0
3, 7488, Note_on_c, 1, 51, 110
3, 8032, Note_on_c, 1, 51, 0
3, 8064, Note_on_c, 1, 43, 110
3, 8400, Note_on_c, 1, 43, 0
3, 8448, Note_on_c, 1, 55, 110
3, 11038, Note_on_c, 1, 55, 0
3, 11232, Note_on_c, 1, 50, 110
3, 11806, Note_on_c, 1, 50, 0
3, 11808, Note_on_c, 1, 41, 110
3, 12192, Note_on_c, 1, 41, 0
3, 12192, Note_on_c, 1, 53, 110
3, 14736, Note_on_c, 1, 53, 0
3, 14736, End_track
4, 0, Start_track
4, 0, MIDI_port, 0
4, 0, Title_t, "Staff-2"
4, 0, Control_c, 2, 7, 127
4, 0, Control_c, 2, 10, 64
4, 0, Program_c, 2, 49
4, 0, Note_on_c, 2, 62, 110
4, 576, Note_on_c, 2, 62, 0
4, 576, Note_on_c, 2, 54, 110
4, 960, Note_on_c, 2, 54, 0
4, 960, Note_on_c, 2, 65, 110
4, 3520, Note_on_c, 2, 65, 0
4, 3744, Note_on_c, 2, 61, 110
4, 4320, Note_on_c, 2, 61, 0
4, 4320, Note_on_c, 2, 53, 110
4, 4704, Note_on_c, 2, 53, 0
4, 4704, Note_on_c, 2, 64, 110
4, 7264, Note_on_c, 2, 64, 0
4, 7488, Note_on_c, 2, 58, 110
4, 8064, Note_on_c, 2, 58, 0
4, 8064, Note_on_c, 2, 50, 110
4, 8448, Note_on_c, 2, 50, 0
4, 8448, Note_on_c, 2, 61, 110
4, 11038, Note_on_c, 2, 61, 0
4, 11232, Note_on_c, 2, 57, 110
4, 11808, Note_on_c, 2, 57, 0
4, 11808, Note_on_c, 2, 48, 110
4, 12192, Note_on_c, 2, 48, 0
4, 12192, Note_on_c, 2, 59, 110
4, 14736, Note_on_c, 2, 59, 0
4, 14736, End_track
5, 0, Start_track
5, 0, MIDI_port, 0
5, 0, Title_t, "Staff-3"
5, 0, Control_c, 3, 7, 127
5, 0, Control_c, 3, 10, 114
5, 0, Program_c, 3, 49
5, 20928, Note_on_c, 3, 67, 110
5, 20928, Note_on_c, 3, 79, 110
5, 21120, Note_on_c, 3, 67, 0
5, 21120, Note_on_c, 3, 79, 0
5, 21120, Note_on_c, 3, 59, 110
5, 21120, Note_on_c, 3, 71, 110
5, 21312, Note_on_c, 3, 59, 0
5, 21312, Note_on_c, 3, 71, 0
5, 21312, Note_on_c, 3, 71, 110
5, 21312, Note_on_c, 3, 83, 110
5, 23952, Note_on_c, 3, 71, 0
5, 23952, Note_on_c, 3, 83, 0
5, 24000, Note_on_c, 3, 66, 110
5, 24000, Note_on_c, 3, 78, 110
5, 24192, Note_on_c, 3, 66, 0
5, 24192, Note_on_c, 3, 78, 0
5, 24192, Note_on_c, 3, 58, 110
5, 24192, Note_on_c, 3, 70, 110
5, 24384, Note_on_c, 3, 58, 0
5, 24384, Note_on_c, 3, 70, 0
5, 24384, Note_on_c, 3, 70, 110
5, 24384, Note_on_c, 3, 82, 110
5, 27024, Note_on_c, 3, 70, 0
5, 27024, Note_on_c, 3, 82, 0
5, 27072, Note_on_c, 3, 63, 110
5, 27072, Note_on_c, 3, 75, 110
5, 27264, Note_on_c, 3, 63, 0
5, 27264, Note_on_c, 3, 75, 0
5, 27264, Note_on_c, 3, 55, 110
5, 27264, Note_on_c, 3, 67, 110
5, 27456, Note_on_c, 3, 55, 0
5, 27456, Note_on_c, 3, 67, 0
5, 27456, Note_on_c, 3, 67, 110
5, 27456, Note_on_c, 3, 79, 110
5, 30096, Note_on_c, 3, 67, 0
5, 30096, Note_on_c, 3, 79, 0
5, 30144, Note_on_c, 3, 62, 110
5, 30144, Note_on_c, 3, 74, 110
5, 30304, Note_on_c, 3, 62, 0
5, 30304, Note_on_c, 3, 74, 0
5, 30336, Note_on_c, 3, 53, 110
5, 30336, Note_on_c, 3, 65, 110
5, 30496, Note_on_c, 3, 53, 0
5, 30496, Note_on_c, 3, 65, 0
5, 30528, Note_on_c, 3, 65, 110
5, 30528, Note_on_c, 3, 77, 110
5, 33168, Note_on_c, 3, 65, 0
5, 33168, Note_on_c, 3, 77, 0
5, 33216, Note_on_c, 3, 79, 110
5, 33216, Note_on_c, 3, 91, 110
5, 33408, Note_on_c, 3, 79, 0
5, 33408, Note_on_c, 3, 91, 0
5, 33408, Note_on_c, 3, 71, 110
5, 33408, Note_on_c, 3, 83, 110
5, 33600, Note_on_c, 3, 71, 0
5, 33600, Note_on_c, 3, 83, 0
5, 33600, Note_on_c, 3, 83, 110
5, 33600, Note_on_c, 3, 95, 110
5, 36240, Note_on_c, 3, 83, 0
5, 36240, Note_on_c, 3, 95, 0
5, 36288, Note_on_c, 3, 78, 110
5, 36288, Note_on_c, 3, 90, 110
5, 36480, Note_on_c, 3, 78, 0
5, 36480, Note_on_c, 3, 90, 0
5, 36480, Note_on_c, 3, 70, 110
5, 36480, Note_on_c, 3, 82, 110
5, 36672, Note_on_c, 3, 70, 0
5, 36672, Note_on_c, 3, 82, 0
5, 36672, Note_on_c, 3, 82, 110
5, 36672, Note_on_c, 3, 94, 110
5, 39312, Note_on_c, 3, 82, 0
5, 39312, Note_on_c, 3, 94, 0
5, 39360, Note_on_c, 3, 75, 110
5, 39360, Note_on_c, 3, 87, 110
5, 39552, Note_on_c, 3, 75, 0
5, 39552, Note_on_c, 3, 87, 0
5, 39552, Note_on_c, 3, 67, 110
5, 39552, Note_on_c, 3, 79, 110
5, 39744, Note_on_c, 3, 67, 0
5, 39744, Note_on_c, 3, 79, 0
5, 39744, Note_on_c, 3, 79, 110
5, 39744, Note_on_c, 3, 91, 110
5, 42384, Note_on_c, 3, 79, 0
5, 42384, Note_on_c, 3, 91, 0
5, 42432, Note_on_c, 3, 74, 110
5, 42432, Note_on_c, 3, 86, 110
5, 42624, Note_on_c, 3, 74, 0
5, 42624, Note_on_c, 3, 86, 0
5, 42624, Note_on_c, 3, 65, 110
5, 42624, Note_on_c, 3, 77, 110
5, 42816, Note_on_c, 3, 65, 0
5, 42816, Note_on_c, 3, 77, 0
5, 42816, Note_on_c, 3, 77, 110
5, 42816, Note_on_c, 3, 89, 110
5, 45456, Note_on_c, 3, 77, 0
5, 45456, Note_on_c, 3, 89, 0
5, 45456, End_track
6, 0, Start_track
6, 0, MIDI_port, 0
6, 0, Title_t, "Staff-4"
6, 0, Control_c, 5, 7, 127
6, 0, Control_c, 5, 10, 64
6, 0, Program_c, 5, 49
6, 0, Note_on_c, 5, 69, 110
6, 0, Note_on_c, 5, 70, 110
6, 576, Note_on_c, 5, 69, 0
6, 576, Note_on_c, 5, 70, 0
6, 576, Note_on_c, 5, 61, 110
6, 576, Note_on_c, 5, 62, 110
6, 960, Note_on_c, 5, 61, 0
6, 960, Note_on_c, 5, 62, 0
6, 960, Note_on_c, 5, 73, 110
6, 960, Note_on_c, 5, 74, 110
6, 3552, Note_on_c, 5, 73, 0
6, 3552, Note_on_c, 5, 74, 0
6, 3744, Note_on_c, 5, 68, 110
6, 3744, Note_on_c, 5, 69, 110
6, 4320, Note_on_c, 5, 68, 0
6, 4320, Note_on_c, 5, 69, 0
6, 4320, Note_on_c, 5, 60, 110
6, 4320, Note_on_c, 5, 61, 110
6, 4704, Note_on_c, 5, 60, 0
6, 4704, Note_on_c, 5, 61, 0
6, 4704, Note_on_c, 5, 72, 110
6, 4704, Note_on_c, 5, 73, 110
6, 7296, Note_on_c, 5, 72, 0
6, 7296, Note_on_c, 5, 73, 0
6, 7488, Note_on_c, 5, 65, 110
6, 7488, Note_on_c, 5, 66, 110
6, 8064, Note_on_c, 5, 65, 0
6, 8064, Note_on_c, 5, 66, 0
6, 8064, Note_on_c, 5, 57, 110
6, 8064, Note_on_c, 5, 58, 110
6, 8448, Note_on_c, 5, 57, 0
6, 8448, Note_on_c, 5, 58, 0
6, 8448, Note_on_c, 5, 69, 110
6, 8448, Note_on_c, 5, 70, 110
6, 11040, Note_on_c, 5, 69, 0
6, 11040, Note_on_c, 5, 70, 0
6, 11232, Note_on_c, 5, 64, 110
6, 11232, Note_on_c, 5, 65, 110
6, 11808, Note_on_c, 5, 64, 0
6, 11808, Note_on_c, 5, 65, 0
6, 11808, Note_on_c, 5, 56, 110
6, 11808, Note_on_c, 5, 57, 110
6, 12192, Note_on_c, 5, 56, 0
6, 12192, Note_on_c, 5, 57, 0
6, 12192, Note_on_c, 5, 67, 110
6, 12192, Note_on_c, 5, 68, 110
6, 14784, Note_on_c, 5, 67, 0
6, 14784, Note_on_c, 5, 68, 0
6, 14784, End_track
7, 0, Start_track
7, 0, MIDI_port, 0
7, 0, Title_t, "Staff-5"
7, 0, Control_c, 6, 7, 127
7, 0, Control_c, 6, 10, 29
7, 0, Program_c, 6, 46
7, 14784, Control_c, 6, 7, 127
7, 14784, Note_on_c, 6, 42, 127
7, 14848, Note_on_c, 6, 42, 0
7, 14848, Note_on_c, 6, 49, 127
7, 14912, Note_on_c, 6, 49, 0
7, 14912, Note_on_c, 6, 54, 127
7, 14976, Note_on_c, 6, 54, 0
7, 14976, Note_on_c, 6, 56, 127
7, 15040, Note_on_c, 6, 56, 0
7, 15040, Note_on_c, 6, 59, 126
7, 15052, Control_c, 6, 7, 126
7, 15104, Note_on_c, 6, 59, 0
7, 15104, Note_on_c, 6, 62, 125
7, 15128, Control_c, 6, 7, 125
7, 15168, Note_on_c, 6, 62, 0
7, 15168, Note_on_c, 6, 66, 124
7, 15204, Control_c, 6, 7, 124
7, 15232, Note_on_c, 6, 66, 0
7, 15232, Note_on_c, 6, 69, 123
7, 15280, Control_c, 6, 7, 123
7, 15296, Note_on_c, 6, 69, 0
7, 15296, Note_on_c, 6, 73, 122
7, 15356, Control_c, 6, 7, 122
7, 15360, Note_on_c, 6, 73, 0
7, 15360, Note_on_c, 6, 75, 121
7, 15424, Note_on_c, 6, 75, 0
7, 15424, Note_on_c, 6, 78, 120
7, 15432, Control_c, 6, 7, 121
7, 15488, Note_on_c, 6, 78, 0
7, 15488, Note_on_c, 6, 80, 119
7, 15508, Control_c, 6, 7, 120
7, 15552, Note_on_c, 6, 80, 0
7, 15552, Note_on_c, 6, 42, 118
7, 15552, Note_on_c, 6, 81, 118
7, 15584, Control_c, 6, 7, 119
7, 15616, Note_on_c, 6, 42, 0
7, 15616, Note_on_c, 6, 81, 0
7, 15616, Note_on_c, 6, 49, 117
7, 15660, Control_c, 6, 7, 118
7, 15680, Note_on_c, 6, 49, 0
7, 15680, Note_on_c, 6, 54, 116
7, 15737, Control_c, 6, 7, 117
7, 15744, Note_on_c, 6, 54, 0
7, 15744, Note_on_c, 6, 56, 115
7, 15808, Note_on_c, 6, 56, 0
7, 15808, Note_on_c, 6, 59, 114
7, 15813, Control_c, 6, 7, 116
7, 15872, Note_on_c, 6, 59, 0
7, 15872, Note_on_c, 6, 62, 113
7, 15889, Control_c, 6, 7, 115
7, 15936, Note_on_c, 6, 62, 0
7, 15936, Note_on_c, 6, 66, 112
7, 15965, Control_c, 6, 7, 114
7, 16000, Note_on_c, 6, 66, 0
7, 16000, Note_on_c, 6, 69, 111
7, 16041, Control_c, 6, 7, 113
7, 16064, Note_on_c, 6, 69, 0
7, 16064, Note_on_c, 6, 73, 110
7, 16117, Control_c, 6, 7, 112
7, 16128, Note_on_c, 6, 73, 0
7, 16128, Note_on_c, 6, 75, 109
7, 16192, Note_on_c, 6, 75, 0
7, 16192, Note_on_c, 6, 78, 108
7, 16193, Control_c, 6, 7, 111
7, 16256, Note_on_c, 6, 78, 0
7, 16256, Note_on_c, 6, 80, 107
7, 16269, Control_c, 6, 7, 110
7, 16320, Note_on_c, 6, 80, 0
7, 16320, Note_on_c, 6, 42, 106
7, 16320, Note_on_c, 6, 81, 106
7, 16345, Control_c, 6, 7, 109
7, 16384, Note_on_c, 6, 42, 0
7, 16384, Note_on_c, 6, 81, 0
7, 16384, Note_on_c, 6, 49, 105
7, 16422, Control_c, 6, 7, 108
7, 16448, Note_on_c, 6, 49, 0
7, 16448, Note_on_c, 6, 54, 104
7, 16498, Control_c, 6, 7, 107
7, 16512, Note_on_c, 6, 54, 0
7, 16512, Note_on_c, 6, 56, 103
7, 16574, Control_c, 6, 7, 106
7, 16576, Note_on_c, 6, 56, 0
7, 16576, Note_on_c, 6, 59, 102
7, 16640, Note_on_c, 6, 59, 0
7, 16640, Note_on_c, 6, 62, 101
7, 16650, Control_c, 6, 7, 105
7, 16704, Note_on_c, 6, 62, 0
7, 16704, Note_on_c, 6, 66, 100
7, 16726, Control_c, 6, 7, 104
7, 16768, Note_on_c, 6, 66, 0
7, 16768, Note_on_c, 6, 69, 99
7, 16802, Control_c, 6, 7, 103
7, 16832, Note_on_c, 6, 69, 0
7, 16832, Note_on_c, 6, 73, 98
7, 16878, Control_c, 6, 7, 102
7, 16896, Note_on_c, 6, 73, 0
7, 16896, Note_on_c, 6, 75, 97
7, 16954, Control_c, 6, 7, 101
7, 16960, Note_on_c, 6, 75, 0
7, 16960, Note_on_c, 6, 78, 96
7, 17024, Note_on_c, 6, 78, 0
7, 17024, Note_on_c, 6, 80, 95
7, 17030, Control_c, 6, 7, 100
7, 17088, Note_on_c, 6, 80, 0
7, 17088, Note_on_c, 6, 42, 94
7, 17088, Note_on_c, 6, 81, 94
7, 17107, Control_c, 6, 7, 99
7, 17152, Note_on_c, 6, 42, 0
7, 17152, Note_on_c, 6, 81, 0
7, 17152, Note_on_c, 6, 49, 93
7, 17183, Control_c, 6, 7, 98
7, 17216, Note_on_c, 6, 49, 0
7, 17216, Note_on_c, 6, 54, 92
7, 17259, Control_c, 6, 7, 97
7, 17280, Note_on_c, 6, 54, 0
7, 17280, Note_on_c, 6, 56, 91
7, 17335, Control_c, 6, 7, 96
7, 17344, Note_on_c, 6, 56, 0
7, 17344, Note_on_c, 6, 59, 89
7, 17408, Note_on_c, 6, 59, 0
7, 17408, Note_on_c, 6, 62, 87
7, 17411, Control_c, 6, 7, 95
7, 17472, Note_on_c, 6, 62, 0
7, 17472, Note_on_c, 6, 66, 85
7, 17487, Control_c, 6, 7, 94
7, 17536, Note_on_c, 6, 66, 0
7, 17536, Note_on_c, 6, 69, 83
7, 17563, Control_c, 6, 7, 93
7, 17600, Note_on_c, 6, 69, 0
7, 17600, Note_on_c, 6, 73, 81
7, 17639, Control_c, 6, 7, 92
7, 17664, Note_on_c, 6, 73, 0
7, 17664, Note_on_c, 6, 75, 79
7, 17715, Control_c, 6, 7, 91
7, 17728, Note_on_c, 6, 75, 0
7, 17728, Note_on_c, 6, 78, 77
7, 17792, Note_on_c, 6, 78, 0
7, 17792, Control_c, 6, 7, 90
7, 17792, Note_on_c, 6, 80, 75
7, 17854, Note_on_c, 6, 80, 0
7, 17856, Note_on_c, 6, 42, 75
7, 17856, Note_on_c, 6, 81, 75
7, 17920, Note_on_c, 6, 42, 0
7, 17920, Note_on_c, 6, 81, 0
7, 17920, Control_c, 6, 7, 127
7, 17920, Note_on_c, 6, 49, 127
7, 17984, Note_on_c, 6, 49, 0
7, 17984, Note_on_c, 6, 54, 127
7, 18048, Note_on_c, 6, 54, 0
7, 18048, Note_on_c, 6, 56, 127
7, 18112, Note_on_c, 6, 56, 0
7, 18112, Note_on_c, 6, 59, 126
7, 18124, Control_c, 6, 7, 126
7, 18176, Note_on_c, 6, 59, 0
7, 18176, Note_on_c, 6, 62, 125
7, 18200, Control_c, 6, 7, 125
7, 18240, Note_on_c, 6, 62, 0
7, 18240, Note_on_c, 6, 66, 124
7, 18276, Control_c, 6, 7, 124
7, 18304, Note_on_c, 6, 66, 0
7, 18304, Note_on_c, 6, 69, 123
7, 18352, Control_c, 6, 7, 123
7, 18368, Note_on_c, 6, 69, 0
7, 18368, Note_on_c, 6, 73, 122
7, 18428, Control_c, 6, 7, 122
7, 18432, Note_on_c, 6, 73, 0
7, 18432, Note_on_c, 6, 75, 121
7, 18496, Note_on_c, 6, 75, 0
7, 18496, Note_on_c, 6, 78, 120
7, 18504, Control_c, 6, 7, 121
7, 18560, Note_on_c, 6, 78, 0
7, 18560, Note_on_c, 6, 80, 119
7, 18580, Control_c, 6, 7, 120
7, 18624, Note_on_c, 6, 80, 0
7, 18624, Note_on_c, 6, 42, 118
7, 18624, Note_on_c, 6, 81, 118
7, 18656, Control_c, 6, 7, 119
7, 18688, Note_on_c, 6, 42, 0
7, 18688, Note_on_c, 6, 81, 0
7, 18688, Note_on_c, 6, 49, 117
7, 18732, Control_c, 6, 7, 118
7, 18752, Note_on_c, 6, 49, 0
7, 18752, Note_on_c, 6, 54, 116
7, 18809, Control_c, 6, 7, 117
7, 18816, Note_on_c, 6, 54, 0
7, 18816, Note_on_c, 6, 56, 115
7, 18880, Note_on_c, 6, 56, 0
7, 18880, Note_on_c, 6, 59, 114
7, 18885, Control_c, 6, 7, 116
7, 18944, Note_on_c, 6, 59, 0
7, 18944, Note_on_c, 6, 62, 113
7, 18961, Control_c, 6, 7, 115
7, 19008, Note_on_c, 6, 62, 0
7, 19008, Note_on_c, 6, 66, 112
7, 19037, Control_c, 6, 7, 114
7, 19072, Note_on_c, 6, 66, 0
7, 19072, Note_on_c, 6, 69, 111
7, 19113, Control_c, 6, 7, 113
7, 19136, Note_on_c, 6, 69, 0
7, 19136, Note_on_c, 6, 73, 110
7, 19189, Control_c, 6, 7, 112
7, 19200, Note_on_c, 6, 73, 0
7, 19200, Note_on_c, 6, 75, 109
7, 19264, Note_on_c, 6, 75, 0
7, 19264, Note_on_c, 6, 78, 108
7, 19265, Control_c, 6, 7, 111
7, 19328, Note_on_c, 6, 78, 0
7, 19328, Note_on_c, 6, 80, 107
7, 19341, Control_c, 6, 7, 110
7, 19392, Note_on_c, 6, 80, 0
7, 19392, Note_on_c, 6, 42, 106
7, 19392, Note_on_c, 6, 81, 106
7, 19417, Control_c, 6, 7, 109
7, 19456, Note_on_c, 6, 42, 0
7, 19456, Note_on_c, 6, 81, 0
7, 19456, Note_on_c, 6, 49, 105
7, 19494, Control_c, 6, 7, 108
7, 19520, Note_on_c, 6, 49, 0
7, 19520, Note_on_c, 6, 54, 104
7, 19570, Control_c, 6, 7, 107
7, 19584, Note_on_c, 6, 54, 0
7, 19584, Note_on_c, 6, 56, 103
7, 19646, Control_c, 6, 7, 106
7, 19648, Note_on_c, 6, 56, 0
7, 19648, Note_on_c, 6, 59, 102
7, 19712, Note_on_c, 6, 59, 0
7, 19712, Note_on_c, 6, 62, 101
7, 19722, Control_c, 6, 7, 105
7, 19776, Note_on_c, 6, 62, 0
7, 19776, Note_on_c, 6, 66, 100
7, 19798, Control_c, 6, 7, 104
7, 19840, Note_on_c, 6, 66, 0
7, 19840, Note_on_c, 6, 69, 99
7, 19874, Control_c, 6, 7, 103
7, 19904, Note_on_c, 6, 69, 0
7, 19904, Note_on_c, 6, 73, 98
7, 19950, Control_c, 6, 7, 102
7, 19968, Note_on_c, 6, 73, 0
7, 19968, Note_on_c, 6, 75, 97
7, 20026, Control_c, 6, 7, 101
7, 20032, Note_on_c, 6, 75, 0
7, 20032, Note_on_c, 6, 78, 96
7, 20096, Note_on_c, 6, 78, 0
7, 20096, Note_on_c, 6, 80, 95
7, 20102, Control_c, 6, 7, 100
7, 20160, Note_on_c, 6, 80, 0
7, 20160, Note_on_c, 6, 42, 94
7, 20160, Note_on_c, 6, 81, 94
7, 20179, Control_c, 6, 7, 99
7, 20224, Note_on_c, 6, 42, 0
7, 20224, Note_on_c, 6, 81, 0
7, 20224, Note_on_c, 6, 49, 93
7, 20255, Control_c, 6, 7, 98
7, 20288, Note_on_c, 6, 49, 0
7, 20288, Note_on_c, 6, 54, 92
7, 20331, Control_c, 6, 7, 97
7, 20352, Note_on_c, 6, 54, 0
7, 20352, Note_on_c, 6, 56, 91
7, 20407, Control_c, 6, 7, 96
7, 20416, Note_on_c, 6, 56, 0
7, 20416, Note_on_c, 6, 59, 89
7, 20480, Note_on_c, 6, 59, 0
7, 20480, Note_on_c, 6, 62, 87
7, 20483, Control_c, 6, 7, 95
7, 20544, Note_on_c, 6, 62, 0
7, 20544, Note_on_c, 6, 66, 85
7, 20559, Control_c, 6, 7, 94
7, 20608, Note_on_c, 6, 66, 0
7, 20608, Note_on_c, 6, 69, 83
7, 20635, Control_c, 6, 7, 93
7, 20672, Note_on_c, 6, 69, 0
7, 20672, Note_on_c, 6, 73, 81
7, 20711, Control_c, 6, 7, 92
7, 20736, Note_on_c, 6, 73, 0
7, 20736, Note_on_c, 6, 75, 79
7, 20787, Control_c, 6, 7, 91
7, 20800, Note_on_c, 6, 75, 0
7, 20800, Note_on_c, 6, 78, 77
7, 20864, Note_on_c, 6, 78, 0
7, 20864, Control_c, 6, 7, 90
7, 20864, Note_on_c, 6, 80, 75
7, 20926, Note_on_c, 6, 80, 0
7, 20928, Note_on_c, 6, 48, 75
7, 20928, Note_on_c, 6, 81, 75
7, 20992, Note_on_c, 6, 48, 0
7, 20992, Note_on_c, 6, 81, 0
7, 20992, Control_c, 6, 7, 127
7, 20992, Note_on_c, 6, 55, 127
7, 21056, Note_on_c, 6, 55, 0
7, 21056, Note_on_c, 6, 60, 127
7, 21120, Note_on_c, 6, 60, 0
7, 21120, Note_on_c, 6, 64, 127
7, 21184, Note_on_c, 6, 64, 0
7, 21184, Note_on_c, 6, 67, 126
7, 21196, Control_c, 6, 7, 126
7, 21248, Note_on_c, 6, 67, 0
7, 21248, Note_on_c, 6, 71, 125
7, 21272, Control_c, 6, 7, 125
7, 21312, Note_on_c, 6, 71, 0
7, 21312, Note_on_c, 6, 72, 124
7, 21348, Control_c, 6, 7, 124
7, 21376, Note_on_c, 6, 72, 0
7, 21376, Note_on_c, 6, 75, 123
7, 21424, Control_c, 6, 7, 123
7, 21440, Note_on_c, 6, 75, 0
7, 21440, Note_on_c, 6, 79, 122
7, 21500, Control_c, 6, 7, 122
7, 21504, Note_on_c, 6, 79, 0
7, 21504, Note_on_c, 6, 83, 121
7, 21568, Note_on_c, 6, 83, 0
7, 21568, Note_on_c, 6, 88, 120
7, 21576, Control_c, 6, 7, 121
7, 21632, Note_on_c, 6, 88, 0
7, 21632, Note_on_c, 6, 91, 119
7, 21652, Control_c, 6, 7, 120
7, 21696, Note_on_c, 6, 91, 0
7, 21696, Note_on_c, 6, 48, 118
7, 21696, Note_on_c, 6, 95, 118
7, 21728, Control_c, 6, 7, 119
7, 21760, Note_on_c, 6, 48, 0
7, 21760, Note_on_c, 6, 95, 0
7, 21760, Note_on_c, 6, 55, 117
7, 21804, Control_c, 6, 7, 118
7, 21824, Note_on_c, 6, 55, 0
7, 21824, Note_on_c, 6, 60, 116
7, 21881, Control_c, 6, 7, 117
7, 21888, Note_on_c, 6, 60, 0
7, 21888, Note_on_c, 6, 64, 115
7, 21952, Note_on_c, 6, 64, 0
7, 21952, Note_on_c, 6, 67, 114
7, 21957, Control_c, 6, 7, 116
7, 22016, Note_on_c, 6, 67, 0
7, 22016, Note_on_c, 6, 71, 113
7, 22033, Control_c, 6, 7, 115
7, 22080, Note_on_c, 6, 71, 0
7, 22080, Note_on_c, 6, 72, 112
7, 22109, Control_c, 6, 7, 114
7, 22144, Note_on_c, 6, 72, 0
7, 22144, Note_on_c, 6, 75, 111
7, 22185, Control_c, 6, 7, 113
7, 22208, Note_on_c, 6, 75, 0
7, 22208, Note_on_c, 6, 79, 110
7, 22261, Control_c, 6, 7, 112
7, 22272, Note_on_c, 6, 79, 0
7, 22272, Note_on_c, 6, 83, 109
7, 22336, Note_on_c, 6, 83, 0
7, 22336, Note_on_c, 6, 88, 108
7, 22337, Control_c, 6, 7, 111
7, 22400, Note_on_c, 6, 88, 0
7, 22400, Note_on_c, 6, 91, 107
7, 22413, Control_c, 6, 7, 110
7, 22464, Note_on_c, 6, 91, 0
7, 22464, Note_on_c, 6, 48, 106
7, 22464, Note_on_c, 6, 95, 106
7, 22489, Control_c, 6, 7, 109
7, 22528, Note_on_c, 6, 48, 0
7, 22528, Note_on_c, 6, 95, 0
7, 22528, Note_on_c, 6, 55, 105
7, 22566, Control_c, 6, 7, 108
7, 22592, Note_on_c, 6, 55, 0
7, 22592, Note_on_c, 6, 60, 104
7, 22642, Control_c, 6, 7, 107
7, 22656, Note_on_c, 6, 60, 0
7, 22656, Note_on_c, 6, 64, 103
7, 22718, Control_c, 6, 7, 106
7, 22720, Note_on_c, 6, 64, 0
7, 22720, Note_on_c, 6, 67, 102
7, 22784, Note_on_c, 6, 67, 0
7, 22784, Note_on_c, 6, 71, 101
7, 22794, Control_c, 6, 7, 105
7, 22848, Note_on_c, 6, 71, 0
7, 22848, Note_on_c, 6, 72, 100
7, 22870, Control_c, 6, 7, 104
7, 22912, Note_on_c, 6, 72, 0
7, 22912, Note_on_c, 6, 75, 99
7, 22946, Control_c, 6, 7, 103
7, 22976, Note_on_c, 6, 75, 0
7, 22976, Note_on_c, 6, 79, 98
7, 23022, Control_c, 6, 7, 102
7, 23040, Note_on_c, 6, 79, 0
7, 23040, Note_on_c, 6, 83, 97
7, 23098, Control_c, 6, 7, 101
7, 23104, Note_on_c, 6, 83, 0
7, 23104, Note_on_c, 6, 88, 96
7, 23168, Note_on_c, 6, 88, 0
7, 23168, Note_on_c, 6, 91, 95
7, 23174, Control_c, 6, 7, 100
7, 23232, Note_on_c, 6, 91, 0
7, 23232, Note_on_c, 6, 48, 94
7, 23232, Note_on_c, 6, 95, 94
7, 23251, Control_c, 6, 7, 99
7, 23296, Note_on_c, 6, 48, 0
7, 23296, Note_on_c, 6, 95, 0
7, 23296, Note_on_c, 6, 55, 93
7, 23327, Control_c, 6, 7, 98
7, 23360, Note_on_c, 6, 55, 0
7, 23360, Note_on_c, 6, 60, 92
7, 23403, Control_c, 6, 7, 97
7, 23424, Note_on_c, 6, 60, 0
7, 23424, Note_on_c, 6, 64, 91
7, 23479, Control_c, 6, 7, 96
7, 23488, Note_on_c, 6, 64, 0
7, 23488, Note_on_c, 6, 67, 89
7, 23552, Note_on_c, 6, 67, 0
7, 23552, Note_on_c, 6, 71, 87
7, 23555, Control_c, 6, 7, 95
7, 23616, Note_on_c, 6, 71, 0
7, 23616, Note_on_c, 6, 72, 85
7, 23631, Control_c, 6, 7, 94
7, 23680, Note_on_c, 6, 72, 0
7, 23680, Note_on_c, 6, 75, 83
7, 23707, Control_c, 6, 7, 93
7, 23744, Note_on_c, 6, 75, 0
7, 23744, Note_on_c, 6, 79, 81
7, 23783, Control_c, 6, 7, 92
7, 23808, Note_on_c, 6, 79, 0
7, 23808, Note_on_c, 6, 83, 79
7, 23859, Control_c, 6, 7, 91
7, 23872, Note_on_c, 6, 83, 0
7, 23872, Note_on_c, 6, 88, 77
7, 23936, Note_on_c, 6, 88, 0
7, 23936, Control_c, 6, 7, 90
7, 23936, Note_on_c, 6, 91, 75
7, 23998, Note_on_c, 6, 91, 0
7, 24000, Note_on_c, 6, 47, 75
7, 24000, Note_on_c, 6, 95, 75
7, 24064, Note_on_c, 6, 47, 0
7, 24064, Note_on_c, 6, 95, 0
7, 24064, Control_c, 6, 7, 127
7, 24064, Note_on_c, 6, 54, 127
7, 24128, Note_on_c, 6, 54, 0
7, 24128, Note_on_c, 6, 59, 127
7, 24192, Note_on_c, 6, 59, 0
7, 24192, Note_on_c, 6, 61, 127
7, 24256, Note_on_c, 6, 61, 0
7, 24256, Note_on_c, 6, 64, 126
7, 24268, Control_c, 6, 7, 126
7, 24320, Note_on_c, 6, 64, 0
7, 24320, Note_on_c, 6, 67, 125
7, 24344, Control_c, 6, 7, 125
7, 24384, Note_on_c, 6, 67, 0
7, 24384, Note_on_c, 6, 71, 124
7, 24420, Control_c, 6, 7, 124
7, 24448, Note_on_c, 6, 71, 0
7, 24448, Note_on_c, 6, 74, 123
7, 24496, Control_c, 6, 7, 123
7, 24512, Note_on_c, 6, 74, 0
7, 24512, Note_on_c, 6, 78, 122
7, 24572, Control_c, 6, 7, 122
7, 24576, Note_on_c, 6, 78, 0
7, 24576, Note_on_c, 6, 80, 121
7, 24640, Note_on_c, 6, 80, 0
7, 24640, Note_on_c, 6, 83, 120
7, 24648, Control_c, 6, 7, 121
7, 24704, Note_on_c, 6, 83, 0
7, 24704, Note_on_c, 6, 85, 119
7, 24724, Control_c, 6, 7, 120
7, 24768, Note_on_c, 6, 85, 0
7, 24768, Note_on_c, 6, 47, 118
7, 24768, Note_on_c, 6, 86, 118
7, 24800, Control_c, 6, 7, 119
7, 24832, Note_on_c, 6, 47, 0
7, 24832, Note_on_c, 6, 86, 0
7, 24832, Note_on_c, 6, 54, 117
7, 24876, Control_c, 6, 7, 118
7, 24896, Note_on_c, 6, 54, 0
7, 24896, Note_on_c, 6, 59, 116
7, 24953, Control_c, 6, 7, 117
7, 24960, Note_on_c, 6, 59, 0
7, 24960, Note_on_c, 6, 61, 115
7, 25024, Note_on_c, 6, 61, 0
7, 25024, Note_on_c, 6, 64, 114
7, 25029, Control_c, 6, 7, 116
7, 25088, Note_on_c, 6, 64, 0
7, 25088, Note_on_c, 6, 67, 113
7, 25105, Control_c, 6, 7, 115
7, 25152, Note_on_c, 6, 67, 0
7, 25152, Note_on_c, 6, 71, 112
7, 25181, Control_c, 6, 7, 114
7, 25216, Note_on_c, 6, 71, 0
7, 25216, Note_on_c, 6, 74, 111
7, 25257, Control_c, 6, 7, 113
7, 25280, Note_on_c, 6, 74, 0
7, 25280, Note_on_c, 6, 78, 110
7, 25333, Control_c, 6, 7, 112
7, 25344, Note_on_c, 6, 78, 0
7, 25344, Note_on_c, 6, 80, 109
7, 25408, Note_on_c, 6, 80, 0
7, 25408, Note_on_c, 6, 83, 108
7, 25409, Control_c, 6, 7, 111
7, 25472, Note_on_c, 6, 83, 0
7, 25472, Note_on_c, 6, 85, 107
7, 25485, Control_c, 6, 7, 110
7, 25536, Note_on_c, 6, 85, 0
7, 25536, Note_on_c, 6, 47, 106
7, 25536, Note_on_c, 6, 86, 106
7, 25561, Control_c, 6, 7, 109
7, 25600, Note_on_c, 6, 47, 0
7, 25600, Note_on_c, 6, 86, 0
7, 25600, Note_on_c, 6, 54, 105
7, 25638, Control_c, 6, 7, 108
7, 25664, Note_on_c, 6, 54, 0
7, 25664, Note_on_c, 6, 59, 104
7, 25714, Control_c, 6, 7, 107
7, 25728, Note_on_c, 6, 59, 0
7, 25728, Note_on_c, 6, 61, 103
7, 25790, Control_c, 6, 7, 106
7, 25792, Note_on_c, 6, 61, 0
7, 25792, Note_on_c, 6, 64, 102
7, 25856, Note_on_c, 6, 64, 0
7, 25856, Note_on_c, 6, 67, 101
7, 25866, Control_c, 6, 7, 105
7, 25920, Note_on_c, 6, 67, 0
7, 25920, Note_on_c, 6, 71, 100
7, 25942, Control_c, 6, 7, 104
7, 25984, Note_on_c, 6, 71, 0
7, 25984, Note_on_c, 6, 74, 99
7, 26018, Control_c, 6, 7, 103
7, 26048, Note_on_c, 6, 74, 0
7, 26048, Note_on_c, 6, 78, 98
7, 26094, Control_c, 6, 7, 102
7, 26112, Note_on_c, 6, 78, 0
7, 26112, Note_on_c, 6, 80, 97
7, 26170, Control_c, 6, 7, 101
7, 26176, Note_on_c, 6, 80, 0
7, 26176, Note_on_c, 6, 83, 96
7, 26240, Note_on_c, 6, 83, 0
7, 26240, Note_on_c, 6, 85, 95
7, 26246, Control_c, 6, 7, 100
7, 26304, Note_on_c, 6, 85, 0
7, 26304, Note_on_c, 6, 47, 94
7, 26304, Note_on_c, 6, 86, 94
7, 26323, Control_c, 6, 7, 99
7, 26368, Note_on_c, 6, 47, 0
7, 26368, Note_on_c, 6, 86, 0
7, 26368, Note_on_c, 6, 54, 93
7, 26399, Control_c, 6, 7, 98
7, 26432, Note_on_c, 6, 54, 0
7, 26432, Note_on_c, 6, 59, 92
7, 26475, Control_c, 6, 7, 97
7, 26496, Note_on_c, 6, 59, 0
7, 26496, Note_on_c, 6, 61, 91
7, 26551, Control_c, 6, 7, 96
7, 26560, Note_on_c, 6, 61, 0
7, 26560, Note_on_c, 6, 64, 89
7, 26624, Note_on_c, 6, 64, 0
7, 26624, Note_on_c, 6, 67, 87
7, 26627, Control_c, 6, 7, 95
7, 26688, Note_on_c, 6, 67, 0
7, 26688, Note_on_c, 6, 71, 85
7, 26703, Control_c, 6, 7, 94
7, 26752, Note_on_c, 6, 71, 0
7, 26752, Note_on_c, 6, 74, 83
7, 26779, Control_c, 6, 7, 93
7, 26816, Note_on_c, 6, 74, 0
7, 26816, Note_on_c, 6, 78, 81
7, 26855, Control_c, 6, 7, 92
7, 26880, Note_on_c, 6, 78, 0
7, 26880, Note_on_c, 6, 80, 79
7, 26931, Control_c, 6, 7, 91
7, 26944, Note_on_c, 6, 80, 0
7, 26944, Note_on_c, 6, 83, 77
7, 27008, Note_on_c, 6, 83, 0
7, 27008, Control_c, 6, 7, 90
7, 27008, Note_on_c, 6, 85, 75
7, 27070, Note_on_c, 6, 85, 0
7, 27072, Note_on_c, 6, 48, 75
7, 27072, Note_on_c, 6, 86, 75
7, 27136, Note_on_c, 6, 48, 0
7, 27136, Note_on_c, 6, 86, 0
7, 27136, Control_c, 6, 7, 127
7, 27136, Note_on_c, 6, 55, 127
7, 27200, Note_on_c, 6, 55, 0
7, 27200, Note_on_c, 6, 60, 127
7, 27264, Note_on_c, 6, 60, 0
7, 27264, Note_on_c, 6, 64, 127
7, 27328, Note_on_c, 6, 64, 0
7, 27328, Note_on_c, 6, 67, 126
7, 27340, Control_c, 6, 7, 126
7, 27392, Note_on_c, 6, 67, 0
7, 27392, Note_on_c, 6, 71, 125
7, 27416, Control_c, 6, 7, 125
7, 27456, Note_on_c, 6, 71, 0
7, 27456, Note_on_c, 6, 72, 124
7, 27492, Control_c, 6, 7, 124
7, 27520, Note_on_c, 6, 72, 0
7, 27520, Note_on_c, 6, 75, 123
7, 27568, Control_c, 6, 7, 123
7, 27584, Note_on_c, 6, 75, 0
7, 27584, Note_on_c, 6, 79, 122
7, 27644, Control_c, 6, 7, 122
7, 27648, Note_on_c, 6, 79, 0
7, 27648, Note_on_c, 6, 83, 121
7, 27712, Note_on_c, 6, 83, 0
7, 27712, Note_on_c, 6, 88, 120
7, 27720, Control_c, 6, 7, 121
7, 27776, Note_on_c, 6, 88, 0
7, 27776, Note_on_c, 6, 91, 119
7, 27796, Control_c, 6, 7, 120
7, 27840, Note_on_c, 6, 91, 0
7, 27840, Note_on_c, 6, 48, 118
7, 27840, Note_on_c, 6, 95, 118
7, 27872, Control_c, 6, 7, 119
7, 27904, Note_on_c, 6, 48, 0
7, 27904, Note_on_c, 6, 95, 0
7, 27904, Note_on_c, 6, 55, 117
7, 27948, Control_c, 6, 7, 118
7, 27968, Note_on_c, 6, 55, 0
7, 27968, Note_on_c, 6, 60, 116
7, 28025, Control_c, 6, 7, 117
7, 28032, Note_on_c, 6, 60, 0
7, 28032, Note_on_c, 6, 64, 115
7, 28096, Note_on_c, 6, 64, 0
7, 28096, Note_on_c, 6, 67, 114
7, 28101, Control_c, 6, 7, 116
7, 28160, Note_on_c, 6, 67, 0
7, 28160, Note_on_c, 6, 71, 113
7, 28177, Control_c, 6, 7, 115
7, 28224, Note_on_c, 6, 71, 0
7, 28224, Note_on_c, 6, 72, 112
7, 28253, Control_c, 6, 7, 114
7, 28288, Note_on_c, 6, 72, 0
7, 28288, Note_on_c, 6, 75, 111
7, 28329, Control_c, 6, 7, 113
7, 28352, Note_on_c, 6, 75, 0
7, 28352, Note_on_c, 6, 79, 110
7, 28405, Control_c, 6, 7, 112
7, 28416, Note_on_c, 6, 79, 0
7, 28416, Note_on_c, 6, 83, 109
7, 28480, Note_on_c, 6, 83, 0
7, 28480, Note_on_c, 6, 88, 108
7, 28481, Control_c, 6, 7, 111
7, 28544, Note_on_c, 6, 88, 0
7, 28544, Note_on_c, 6, 91, 107
7, 28557, Control_c, 6, 7, 110
7, 28608, Note_on_c, 6, 91, 0
7, 28608, Note_on_c, 6, 48, 106
7, 28608, Note_on_c, 6, 95, 106
7, 28633, Control_c, 6, 7, 109
7, 28672, Note_on_c, 6, 48, 0
7, 28672, Note_on_c, 6, 95, 0
7, 28672, Note_on_c, 6, 55, 105
7, 28710, Control_c, 6, 7, 108
7, 28736, Note_on_c, 6, 55, 0
7, 28736, Note_on_c, 6, 60, 104
7, 28786, Control_c, 6, 7, 107
7, 28800, Note_on_c, 6, 60, 0
7, 28800, Note_on_c, 6, 64, 103
7, 28862, Control_c, 6, 7, 106
7, 28864, Note_on_c, 6, 64, 0
7, 28864, Note_on_c, 6, 67, 102
7, 28928, Note_on_c, 6, 67, 0
7, 28928, Note_on_c, 6, 71, 101
7, 28938, Control_c, 6, 7, 105
7, 28992, Note_on_c, 6, 71, 0
7, 28992, Note_on_c, 6, 72, 100
7, 29014, Control_c, 6, 7, 104
7, 29056, Note_on_c, 6, 72, 0
7, 29056, Note_on_c, 6, 75, 99
7, 29090, Control_c, 6, 7, 103
7, 29120, Note_on_c, 6, 75, 0
7, 29120, Note_on_c, 6, 79, 98
7, 29166, Control_c, 6, 7, 102
7, 29184, Note_on_c, 6, 79, 0
7, 29184, Note_on_c, 6, 83, 97
7, 29242, Control_c, 6, 7, 101
7, 29248, Note_on_c, 6, 83, 0
7, 29248, Note_on_c, 6, 88, 96
7, 29312, Note_on_c, 6, 88, 0
7, 29312, Note_on_c, 6, 91, 95
7, 29318, Control_c, 6, 7, 100
7, 29376, Note_on_c, 6, 91, 0
7, 29376, Note_on_c, 6, 48, 94
7, 29376, Note_on_c, 6, 95, 94
7, 29395, Control_c, 6, 7, 99
7, 29440, Note_on_c, 6, 48, 0
7, 29440, Note_on_c, 6, 95, 0
7, 29440, Note_on_c, 6, 55, 93
7, 29471, Control_c, 6, 7, 98
7, 29504, Note_on_c, 6, 55, 0
7, 29504, Note_on_c, 6, 60, 92
7, 29547, Control_c, 6, 7, 97
7, 29568, Note_on_c, 6, 60, 0
7, 29568, Note_on_c, 6, 64, 91
7, 29623, Control_c, 6, 7, 96
7, 29632, Note_on_c, 6, 64, 0
7, 29632, Note_on_c, 6, 67, 89
7, 29696, Note_on_c, 6, 67, 0
7, 29696, Note_on_c, 6, 71, 87
7, 29699, Control_c, 6, 7, 95
7, 29760, Note_on_c, 6, 71, 0
7, 29760, Note_on_c, 6, 72, 85
7, 29775, Control_c, 6, 7, 94
7, 29824, Note_on_c, 6, 72, 0
7, 29824, Note_on_c, 6, 75, 83
7, 29851, Control_c, 6, 7, 93
7, 29888, Note_on_c, 6, 75, 0
7, 29888, Note_on_c, 6, 79, 81
7, 29927, Control_c, 6, 7, 92
7, 29952, Note_on_c, 6, 79, 0
7, 29952, Note_on_c, 6, 83, 79
7, 30003, Control_c, 6, 7, 91
7, 30016, Note_on_c, 6, 83, 0
7, 30016, Note_on_c, 6, 88, 77
7, 30080, Note_on_c, 6, 88, 0
7, 30080, Control_c, 6, 7, 90
7, 30080, Note_on_c, 6, 91, 75
7, 30142, Note_on_c, 6, 91, 0
7, 30144, Note_on_c, 6, 47, 75
7, 30144, Note_on_c, 6, 95, 75
7, 30208, Note_on_c, 6, 47, 0
7, 30208, Note_on_c, 6, 95, 0
7, 30208, Control_c, 6, 7, 127
7, 30208, Note_on_c, 6, 54, 127
7, 30272, Note_on_c, 6, 54, 0
7, 30272, Note_on_c, 6, 59, 127
7, 30336, Note_on_c, 6, 59, 0
7, 30336, Note_on_c, 6, 61, 127
7, 30400, Note_on_c, 6, 61, 0
7, 30400, Note_on_c, 6, 64, 126
7, 30412, Control_c, 6, 7, 126
7, 30464, Note_on_c, 6, 64, 0
7, 30464, Note_on_c, 6, 67, 125
7, 30488, Control_c, 6, 7, 125
7, 30528, Note_on_c, 6, 67, 0
7, 30528, Note_on_c, 6, 71, 124
7, 30564, Control_c, 6, 7, 124
7, 30592, Note_on_c, 6, 71, 0
7, 30592, Note_on_c, 6, 74, 123
7, 30640, Control_c, 6, 7, 123
7, 30656, Note_on_c, 6, 74, 0
7, 30656, Note_on_c, 6, 78, 122
7, 30716, Control_c, 6, 7, 122
7, 30720, Note_on_c, 6, 78, 0
7, 30720, Note_on_c, 6, 80, 121
7, 30784, Note_on_c, 6, 80, 0
7, 30784, Note_on_c, 6, 83, 120
7, 30792, Control_c, 6, 7, 121
7, 30848, Note_on_c, 6, 83, 0
7, 30848, Note_on_c, 6, 85, 119
7, 30868, Control_c, 6, 7, 120
7, 30912, Note_on_c, 6, 85, 0
7, 30912, Note_on_c, 6, 47, 118
7, 30912, Note_on_c, 6, 86, 118
7, 30944, Control_c, 6, 7, 119
7, 30976, Note_on_c, 6, 47, 0
7, 30976, Note_on_c, 6, 86, 0
7, 30976, Note_on_c, 6, 54, 117
7, 31020, Control_c, 6, 7, 118
7, 31040, Note_on_c, 6, 54, 0
7, 31040, Note_on_c, 6, 59, 116
7, 31097, Control_c, 6, 7, 117
7, 31104, Note_on_c, 6, 59, 0
7, 31104, Note_on_c, 6, 61, 115
7, 31168, Note_on_c, 6, 61, 0
7, 31168, Note_on_c, 6, 64, 114
7, 31173, Control_c, 6, 7, 116
7, 31232, Note_on_c, 6, 64, 0
7, 31232, Note_on_c, 6, 67, 113
7, 31249, Control_c, 6, 7, 115
7, 31296, Note_on_c, 6, 67, 0
7, 31296, Note_on_c, 6, 71, 112
7, 31325, Control_c, 6, 7, 114
7, 31360, Note_on_c, 6, 71, 0
7, 31360, Note_on_c, 6, 74, 111
7, 31401, Control_c, 6, 7, 113
7, 31424, Note_on_c, 6, 74, 0
7, 31424, Note_on_c, 6, 78, 110
7, 31477, Control_c, 6, 7, 112
7, 31488, Note_on_c, 6, 78, 0
7, 31488, Note_on_c, 6, 80, 109
7, 31552, Note_on_c, 6, 80, 0
7, 31552, Note_on_c, 6, 83, 108
7, 31553, Control_c, 6, 7, 111
7, 31616, Note_on_c, 6, 83, 0
7, 31616, Note_on_c, 6, 85, 107
7, 31629, Control_c, 6, 7, 110
7, 31680, Note_on_c, 6, 85, 0
7, 31680, Note_on_c, 6, 47, 106
7, 31680, Note_on_c, 6, 86, 106
7, 31705, Control_c, 6, 7, 109
7, 31744, Note_on_c, 6, 47, 0
7, 31744, Note_on_c, 6, 86, 0
7, 31744, Note_on_c, 6, 54, 105
7, 31782, Control_c, 6, 7, 108
7, 31808, Note_on_c, 6, 54, 0
7, 31808, Note_on_c, 6, 59, 104
7, 31858, Control_c, 6, 7, 107
7, 31872, Note_on_c, 6, 59, 0
7, 31872, Note_on_c, 6, 61, 103
7, 31934, Control_c, 6, 7, 106
7, 31936, Note_on_c, 6, 61, 0
7, 31936, Note_on_c, 6, 64, 102
7, 32000, Note_on_c, 6, 64, 0
7, 32000, Note_on_c, 6, 67, 101
7, 32010, Control_c, 6, 7, 105
7, 32064, Note_on_c, 6, 67, 0
7, 32064, Note_on_c, 6, 71, 100
7, 32086, Control_c, 6, 7, 104
7, 32128, Note_on_c, 6, 71, 0
7, 32128, Note_on_c, 6, 74, 99
7, 32162, Control_c, 6, 7, 103
7, 32192, Note_on_c, 6, 74, 0
7, 32192, Note_on_c, 6, 78, 98
7, 32238, Control_c, 6, 7, 102
7, 32256, Note_on_c, 6, 78, 0
7, 32256, Note_on_c, 6, 80, 97
7, 32314, Control_c, 6, 7, 101
7, 32320, Note_on_c, 6, 80, 0
7, 32320, Note_on_c, 6, 83, 96
7, 32384, Note_on_c, 6, 83, 0
7, 32384, Note_on_c, 6, 85, 95
7, 32390, Control_c, 6, 7, 100
7, 32448, Note_on_c, 6, 85, 0
7, 32448, Note_on_c, 6, 47, 94
7, 32448, Note_on_c, 6, 86, 94
7, 32467, Control_c, 6, 7, 99
7, 32512, Note_on_c, 6, 47, 0
7, 32512, Note_on_c, 6, 86, 0
7, 32512, Note_on_c, 6, 54, 93
7, 32543, Control_c, 6, 7, 98
7, 32576, Note_on_c, 6, 54, 0
7, 32576, Note_on_c, 6, 59, 92
7, 32619, Control_c, 6, 7, 97
7, 32640, Note_on_c, 6, 59, 0
7, 32640, Note_on_c, 6, 61, 91
7, 32695, Control_c, 6, 7, 96
7, 32704, Note_on_c, 6, 61, 0
7, 32704, Note_on_c, 6, 64, 89
7, 32768, Note_on_c, 6, 64, 0
7, 32768, Note_on_c, 6, 67, 87
7, 32771, Control_c, 6, 7, 95
7, 32832, Note_on_c, 6, 67, 0
7, 32832, Note_on_c, 6, 71, 85
7, 32847, Control_c, 6, 7, 94
7, 32896, Note_on_c, 6, 71, 0
7, 32896, Note_on_c, 6, 74, 83
7, 32923, Control_c, 6, 7, 93
7, 32960, Note_on_c, 6, 74, 0
7, 32960, Note_on_c, 6, 78, 81
7, 32999, Control_c, 6, 7, 92
7, 33024, Note_on_c, 6, 78, 0
7, 33024, Note_on_c, 6, 80, 79
7, 33075, Control_c, 6, 7, 91
7, 33088, Note_on_c, 6, 80, 0
7, 33088, Note_on_c, 6, 83, 77
7, 33152, Note_on_c, 6, 83, 0
7, 33152, Control_c, 6, 7, 90
7, 33152, Note_on_c, 6, 85, 75
7, 33214, Note_on_c, 6, 85, 0
7, 33216, Note_on_c, 6, 48, 75
7, 33216, Note_on_c, 6, 86, 75
7, 33280, Note_on_c, 6, 48, 0
7, 33280, Note_on_c, 6, 86, 0
7, 33280, Control_c, 6, 7, 127
7, 33280, Note_on_c, 6, 55, 127
7, 33344, Note_on_c, 6, 55, 0
7, 33344, Note_on_c, 6, 60, 127
7, 33408, Note_on_c, 6, 60, 0
7, 33408, Note_on_c, 6, 64, 127
7, 33472, Note_on_c, 6, 64, 0
7, 33472, Note_on_c, 6, 67, 126
7, 33484, Control_c, 6, 7, 126
7, 33536, Note_on_c, 6, 67, 0
7, 33536, Note_on_c, 6, 71, 125
7, 33560, Control_c, 6, 7, 125
7, 33600, Note_on_c, 6, 71, 0
7, 33600, Note_on_c, 6, 72, 124
7, 33636, Control_c, 6, 7, 124
7, 33664, Note_on_c, 6, 72, 0
7, 33664, Note_on_c, 6, 75, 123
7, 33712, Control_c, 6, 7, 123
7, 33728, Note_on_c, 6, 75, 0
7, 33728, Note_on_c, 6, 79, 122
7, 33788, Control_c, 6, 7, 122
7, 33792, Note_on_c, 6, 79, 0
7, 33792, Note_on_c, 6, 83, 121
7, 33856, Note_on_c, 6, 83, 0
7, 33856, Note_on_c, 6, 88, 120
7, 33864, Control_c, 6, 7, 121
7, 33920, Note_on_c, 6, 88, 0
7, 33920, Note_on_c, 6, 91, 119
7, 33940, Control_c, 6, 7, 120
7, 33984, Note_on_c, 6, 91, 0
7, 33984, Note_on_c, 6, 48, 118
7, 33984, Note_on_c, 6, 95, 118
7, 34016, Control_c, 6, 7, 119
7, 34048, Note_on_c, 6, 48, 0
7, 34048, Note_on_c, 6, 95, 0
7, 34048, Note_on_c, 6, 55, 117
7, 34092, Control_c, 6, 7, 118
7, 34112, Note_on_c, 6, 55, 0
7, 34112, Note_on_c, 6, 60, 116
7, 34169, Control_c, 6, 7, 117
7, 34176, Note_on_c, 6, 60, 0
7, 34176, Note_on_c, 6, 64, 115
7, 34240, Note_on_c, 6, 64, 0
7, 34240, Note_on_c, 6, 67, 114
7, 34245, Control_c, 6, 7, 116
7, 34304, Note_on_c, 6, 67, 0
7, 34304, Note_on_c, 6, 71, 113
7, 34321, Control_c, 6, 7, 115
7, 34368, Note_on_c, 6, 71, 0
7, 34368, Note_on_c, 6, 72, 112
7, 34397, Control_c, 6, 7, 114
7, 34432, Note_on_c, 6, 72, 0
7, 34432, Note_on_c, 6, 75, 111
7, 34473, Control_c, 6, 7, 113
7, 34496, Note_on_c, 6, 75, 0
7, 34496, Note_on_c, 6, 79, 110
7, 34549, Control_c, 6, 7, 112
7, 34560, Note_on_c, 6, 79, 0
7, 34560, Note_on_c, 6, 83, 109
7, 34624, Note_on_c, 6, 83, 0
7, 34624, Note_on_c, 6, 88, 108
7, 34625, Control_c, 6, 7, 111
7, 34688, Note_on_c, 6, 88, 0
7, 34688, Note_on_c, 6, 91, 107
7, 34701, Control_c, 6, 7, 110
7, 34752, Note_on_c, 6, 91, 0
7, 34752, Note_on_c, 6, 48, 106
7, 34752, Note_on_c, 6, 95, 106
7, 34777, Control_c, 6, 7, 109
7, 34816, Note_on_c, 6, 48, 0
7, 34816, Note_on_c, 6, 95, 0
7, 34816, Note_on_c, 6, 55, 105
7, 34854, Control_c, 6, 7, 108
7, 34880, Note_on_c, 6, 55, 0
7, 34880, Note_on_c, 6, 60, 104
7, 34930, Control_c, 6, 7, 107
7, 34944, Note_on_c, 6, 60, 0
7, 34944, Note_on_c, 6, 64, 103
7, 35006, Control_c, 6, 7, 106
7, 35008, Note_on_c, 6, 64, 0
7, 35008, Note_on_c, 6, 67, 102
7, 35072, Note_on_c, 6, 67, 0
7, 35072, Note_on_c, 6, 71, 101
7, 35082, Control_c, 6, 7, 105
7, 35136, Note_on_c, 6, 71, 0
7, 35136, Note_on_c, 6, 72, 100
7, 35158, Control_c, 6, 7, 104
7, 35200, Note_on_c, 6, 72, 0
7, 35200, Note_on_c, 6, 75, 99
7, 35234, Control_c, 6, 7, 103
7, 35264, Note_on_c, 6, 75, 0
7, 35264, Note_on_c, 6, 79, 98
7, 35310, Control_c, 6, 7, 102
7, 35328, Note_on_c, 6, 79, 0
7, 35328, Note_on_c, 6, 83, 97
7, 35386, Control_c, 6, 7, 101
7, 35392, Note_on_c, 6, 83, 0
7, 35392, Note_on_c, 6, 88, 96
7, 35456, Note_on_c, 6, 88, 0
7, 35456, Note_on_c, 6, 91, 95
7, 35462, Control_c, 6, 7, 100
7, 35520, Note_on_c, 6, 91, 0
7, 35520, Note_on_c, 6, 48, 94
7, 35520, Note_on_c, 6, 95, 94
7, 35539, Control_c, 6, 7, 99
7, 35584, Note_on_c, 6, 48, 0
7, 35584, Note_on_c, 6, 95, 0
7, 35584, Note_on_c, 6, 55, 93
7, 35615, Control_c, 6, 7, 98
7, 35648, Note_on_c, 6, 55, 0
7, 35648, Note_on_c, 6, 60, 92
7, 35691, Control_c, 6, 7, 97
7, 35712, Note_on_c, 6, 60, 0
7, 35712, Note_on_c, 6, 64, 91
7, 35767, Control_c, 6, 7, 96
7, 35776, Note_on_c, 6, 64, 0
7, 35776, Note_on_c, 6, 67, 89
7, 35840, Note_on_c, 6, 67, 0
7, 35840, Note_on_c, 6, 71, 87
7, 35843, Control_c, 6, 7, 95
7, 35904, Note_on_c, 6, 71, 0
7, 35904, Note_on_c, 6, 72, 85
7, 35919, Control_c, 6, 7, 94
7, 35968, Note_on_c, 6, 72, 0
7, 35968, Note_on_c, 6, 75, 83
7, 35995, Control_c, 6, 7, 93
7, 36032, Note_on_c, 6, 75, 0
7, 36032, Note_on_c, 6, 79, 81
7, 36071, Control_c, 6, 7, 92
7, 36096, Note_on_c, 6, 79, 0
7, 36096, Note_on_c, 6, 83, 79
7, 36147, Control_c, 6, 7, 91
7, 36160, Note_on_c, 6, 83, 0
7, 36160, Note_on_c, 6, 88, 77
7, 36224, Note_on_c, 6, 88, 0
7, 36224, Control_c, 6, 7, 90
7, 36224, Note_on_c, 6, 91, 75
7, 36286, Note_on_c, 6, 91, 0
7, 36288, Note_on_c, 6, 47, 75
7, 36288, Note_on_c, 6, 95, 75
7, 36352, Note_on_c, 6, 47, 0
7, 36352, Note_on_c, 6, 95, 0
7, 36352, Control_c, 6, 7, 127
7, 36352, Note_on_c, 6, 54, 127
7, 36416, Note_on_c, 6, 54, 0
7, 36416, Note_on_c, 6, 59, 127
7, 36480, Note_on_c, 6, 59, 0
7, 36480, Note_on_c, 6, 61, 127
7, 36544, Note_on_c, 6, 61, 0
7, 36544, Note_on_c, 6, 64, 126
7, 36556, Control_c, 6, 7, 126
7, 36608, Note_on_c, 6, 64, 0
7, 36608, Note_on_c, 6, 67, 125
7, 36632, Control_c, 6, 7, 125
7, 36672, Note_on_c, 6, 67, 0
7, 36672, Note_on_c, 6, 71, 124
7, 36708, Control_c, 6, 7, 124
7, 36736, Note_on_c, 6, 71, 0
7, 36736, Note_on_c, 6, 74, 123
7, 36784, Control_c, 6, 7, 123
7, 36800, Note_on_c, 6, 74, 0
7, 36800, Note_on_c, 6, 78, 122
7, 36860, Control_c, 6, 7, 122
7, 36864, Note_on_c, 6, 78, 0
7, 36864, Note_on_c, 6, 80, 121
7, 36928, Note_on_c, 6, 80, 0
7, 36928, Note_on_c, 6, 83, 120
7, 36936, Control_c, 6, 7, 121
7, 36992, Note_on_c, 6, 83, 0
7, 36992, Note_on_c, 6, 85, 119
7, 37012, Control_c, 6, 7, 120
7, 37056, Note_on_c, 6, 85, 0
7, 37056, Note_on_c, 6, 47, 118
7, 37056, Note_on_c, 6, 86, 118
7, 37088, Control_c, 6, 7, 119
7, 37120, Note_on_c, 6, 47, 0
7, 37120, Note_on_c, 6, 86, 0
7, 37120, Note_on_c, 6, 54, 117
7, 37164, Control_c, 6, 7, 118
7, 37184, Note_on_c, 6, 54, 0
7, 37184, Note_on_c, 6, 59, 116
7, 37241, Control_c, 6, 7, 117
7, 37248, Note_on_c, 6, 59, 0
7, 37248, Note_on_c, 6, 61, 115
7, 37312, Note_on_c, 6, 61, 0
7, 37312, Note_on_c, 6, 64, 114
7, 37317, Control_c, 6, 7, 116
7, 37376, Note_on_c, 6, 64, 0
7, 37376, Note_on_c, 6, 67, 113
7, 37393, Control_c, 6, 7, 115
7, 37440, Note_on_c, 6, 67, 0
7, 37440, Note_on_c, 6, 71, 112
7, 37469, Control_c, 6, 7, 114
7, 37504, Note_on_c, 6, 71, 0
7, 37504, Note_on_c, 6, 74, 111
7, 37545, Control_c, 6, 7, 113
7, 37568, Note_on_c, 6, 74, 0
7, 37568, Note_on_c, 6, 78, 110
7, 37621, Control_c, 6, 7, 112
7, 37632, Note_on_c, 6, 78, 0
7, 37632, Note_on_c, 6, 80, 109
7, 37696, Note_on_c, 6, 80, 0
7, 37696, Note_on_c, 6, 83, 108
7, 37697, Control_c, 6, 7, 111
7, 37760, Note_on_c, 6, 83, 0
7, 37760, Note_on_c, 6, 85, 107
7, 37773, Control_c, 6, 7, 110
7, 37824, Note_on_c, 6, 85, 0
7, 37824, Note_on_c, 6, 47, 106
7, 37824, Note_on_c, 6, 86, 106
7, 37849, Control_c, 6, 7, 109
7, 37888, Note_on_c, 6, 47, 0
7, 37888, Note_on_c, 6, 86, 0
7, 37888, Note_on_c, 6, 54, 105
7, 37926, Control_c, 6, 7, 108
7, 37952, Note_on_c, 6, 54, 0
7, 37952, Note_on_c, 6, 59, 104
7, 38002, Control_c, 6, 7, 107
7, 38016, Note_on_c, 6, 59, 0
7, 38016, Note_on_c, 6, 61, 103
7, 38078, Control_c, 6, 7, 106
7, 38080, Note_on_c, 6, 61, 0
7, 38080, Note_on_c, 6, 64, 102
7, 38144, Note_on_c, 6, 64, 0
7, 38144, Note_on_c, 6, 67, 101
7, 38154, Control_c, 6, 7, 105
7, 38208, Note_on_c, 6, 67, 0
7, 38208, Note_on_c, 6, 71, 100
7, 38230, Control_c, 6, 7, 104
7, 38272, Note_on_c, 6, 71, 0
7, 38272, Note_on_c, 6, 74, 99
7, 38306, Control_c, 6, 7, 103
7, 38336, Note_on_c, 6, 74, 0
7, 38336, Note_on_c, 6, 78, 98
7, 38382, Control_c, 6, 7, 102
7, 38400, Note_on_c, 6, 78, 0
7, 38400, Note_on_c, 6, 80, 97
7, 38458, Control_c, 6, 7, 101
7, 38464, Note_on_c, 6, 80, 0
7, 38464, Note_on_c, 6, 83, 96
7, 38528, Note_on_c, 6, 83, 0
7, 38528, Note_on_c, 6, 85, 95
7, 38534, Control_c, 6, 7, 100
7, 38592, Note_on_c, 6, 85, 0
7, 38592, Note_on_c, 6, 47, 94
7, 38592, Note_on_c, 6, 86, 94
7, 38611, Control_c, 6, 7, 99
7, 38656, Note_on_c, 6, 47, 0
7, 38656, Note_on_c, 6, 86, 0
7, 38656, Note_on_c, 6, 54, 93
7, 38687, Control_c, 6, 7, 98
7, 38720, Note_on_c, 6, 54, 0
7, 38720, Note_on_c, 6, 59, 92
7, 38763, Control_c, 6, 7, 97
7, 38784, Note_on_c, 6, 59, 0
7, 38784, Note_on_c, 6, 61, 91
7, 38839, Control_c, 6, 7, 96
7, 38848, Note_on_c, 6, 61, 0
7, 38848, Note_on_c, 6, 64, 89
7, 38912, Note_on_c, 6, 64, 0
7, 38912, Note_on_c, 6, 67, 87
7, 38915, Control_c, 6, 7, 95
7, 38976, Note_on_c, 6, 67, 0
7, 38976, Note_on_c, 6, 71, 85
7, 38991, Control_c, 6, 7, 94
7, 39040, Note_on_c, 6, 71, 0
7, 39040, Note_on_c, 6, 74, 83
7, 39067, Control_c, 6, 7, 93
7, 39104, Note_on_c, 6, 74, 0
7, 39104, Note_on_c, 6, 78, 81
7, 39143, Control_c, 6, 7, 92
7, 39168, Note_on_c, 6, 78, 0
7, 39168, Note_on_c, 6, 80, 79
7, 39219, Control_c, 6, 7, 91
7, 39232, Note_on_c, 6, 80, 0
7, 39232, Note_on_c, 6, 83, 77
7, 39296, Note_on_c, 6, 83, 0
7, 39296, Control_c, 6, 7, 90
7, 39296, Note_on_c, 6, 85, 75
7, 39358, Note_on_c, 6, 85, 0
7, 39360, Note_on_c, 6, 48, 75
7, 39360, Note_on_c, 6, 86, 75
7, 39424, Note_on_c, 6, 48, 0
7, 39424, Note_on_c, 6, 86, 0
7, 39424, Control_c, 6, 7, 127
7, 39424, Note_on_c, 6, 55, 127
7, 39488, Note_on_c, 6, 55, 0
7, 39488, Note_on_c, 6, 60, 127
7, 39552, Note_on_c, 6, 60, 0
7, 39552, Note_on_c, 6, 64, 127
7, 39616, Note_on_c, 6, 64, 0
7, 39616, Note_on_c, 6, 67, 126
7, 39628, Control_c, 6, 7, 126
7, 39680, Note_on_c, 6, 67, 0
7, 39680, Note_on_c, 6, 71, 125
7, 39704, Control_c, 6, 7, 125
7, 39744, Note_on_c, 6, 71, 0
7, 39744, Note_on_c, 6, 72, 124
7, 39780, Control_c, 6, 7, 124
7, 39808, Note_on_c, 6, 72, 0
7, 39808, Note_on_c, 6, 75, 123
7, 39856, Control_c, 6, 7, 123
7, 39872, Note_on_c, 6, 75, 0
7, 39872, Note_on_c, 6, 79, 122
7, 39932, Control_c, 6, 7, 122
7, 39936, Note_on_c, 6, 79, 0
7, 39936, Note_on_c, 6, 83, 121
7, 40000, Note_on_c, 6, 83, 0
7, 40000, Note_on_c, 6, 88, 120
7, 40008, Control_c, 6, 7, 121
7, 40064, Note_on_c, 6, 88, 0
7, 40064, Note_on_c, 6, 91, 119
7, 40084, Control_c, 6, 7, 120
7, 40128, Note_on_c, 6, 91, 0
7, 40128, Note_on_c, 6, 48, 118
7, 40128, Note_on_c, 6, 95, 118
7, 40160, Control_c, 6, 7, 119
7, 40192, Note_on_c, 6, 48, 0
7, 40192, Note_on_c, 6, 95, 0
7, 40192, Note_on_c, 6, 55, 117
7, 40236, Control_c, 6, 7, 118
7, 40256, Note_on_c, 6, 55, 0
7, 40256, Note_on_c, 6, 60, 116
7, 40313, Control_c, 6, 7, 117
7, 40320, Note_on_c, 6, 60, 0
7, 40320, Note_on_c, 6, 64, 115
7, 40384, Note_on_c, 6, 64, 0
7, 40384, Note_on_c, 6, 67, 114
7, 40389, Control_c, 6, 7, 116
7, 40448, Note_on_c, 6, 67, 0
7, 40448, Note_on_c, 6, 71, 113
7, 40465, Control_c, 6, 7, 115
7, 40512, Note_on_c, 6, 71, 0
7, 40512, Note_on_c, 6, 72, 112
7, 40541, Control_c, 6, 7, 114
7, 40576, Note_on_c, 6, 72, 0
7, 40576, Note_on_c, 6, 75, 111
7, 40617, Control_c, 6, 7, 113
7, 40640, Note_on_c, 6, 75, 0
7, 40640, Note_on_c, 6, 79, 110
7, 40693, Control_c, 6, 7, 112
7, 40704, Note_on_c, 6, 79, 0
7, 40704, Note_on_c, 6, 83, 109
7, 40768, Note_on_c, 6, 83, 0
7, 40768, Note_on_c, 6, 88, 108
7, 40769, Control_c, 6, 7, 111
7, 40832, Note_on_c, 6, 88, 0
7, 40832, Note_on_c, 6, 91, 107
7, 40845, Control_c, 6, 7, 110
7, 40896, Note_on_c, 6, 91, 0
7, 40896, Note_on_c, 6, 48, 106
7, 40896, Note_on_c, 6, 95, 106
7, 40921, Control_c, 6, 7, 109
7, 40960, Note_on_c, 6, 48, 0
7, 40960, Note_on_c, 6, 95, 0
7, 40960, Note_on_c, 6, 55, 105
7, 40998, Control_c, 6, 7, 108
7, 41024, Note_on_c, 6, 55, 0
7, 41024, Note_on_c, 6, 60, 104
7, 41074, Control_c, 6, 7, 107
7, 41088, Note_on_c, 6, 60, 0
7, 41088, Note_on_c, 6, 64, 103
7, 41150, Control_c, 6, 7, 106
7, 41152, Note_on_c, 6, 64, 0
7, 41152, Note_on_c, 6, 67, 102
7, 41216, Note_on_c, 6, 67, 0
7, 41216, Note_on_c, 6, 71, 101
7, 41226, Control_c, 6, 7, 105
7, 41280, Note_on_c, 6, 71, 0
7, 41280, Note_on_c, 6, 72, 100
7, 41302, Control_c, 6, 7, 104
7, 41344, Note_on_c, 6, 72, 0
7, 41344, Note_on_c, 6, 75, 99
7, 41378, Control_c, 6, 7, 103
7, 41408, Note_on_c, 6, 75, 0
7, 41408, Note_on_c, 6, 79, 98
7, 41454, Control_c, 6, 7, 102
7, 41472, Note_on_c, 6, 79, 0
7, 41472, Note_on_c, 6, 83, 97
7, 41530, Control_c, 6, 7, 101
7, 41536, Note_on_c, 6, 83, 0
7, 41536, Note_on_c, 6, 88, 96
7, 41600, Note_on_c, 6, 88, 0
7, 41600, Note_on_c, 6, 91, 95
7, 41606, Control_c, 6, 7, 100
7, 41664, Note_on_c, 6, 91, 0
7, 41664, Note_on_c, 6, 48, 94
7, 41664, Note_on_c, 6, 95, 94
7, 41683, Control_c, 6, 7, 99
7, 41728, Note_on_c, 6, 48, 0
7, 41728, Note_on_c, 6, 95, 0
7, 41728, Note_on_c, 6, 55, 93
7, 41759, Control_c, 6, 7, 98
7, 41792, Note_on_c, 6, 55, 0
7, 41792, Note_on_c, 6, 60, 92
7, 41835, Control_c, 6, 7, 97
7, 41856, Note_on_c, 6, 60, 0
7, 41856, Note_on_c, 6, 64, 91
7, 41911, Control_c, 6, 7, 96
7, 41920, Note_on_c, 6, 64, 0
7, 41920, Note_on_c, 6, 67, 89
7, 41984, Note_on_c, 6, 67, 0
7, 41984, Note_on_c, 6, 71, 87
7, 41987, Control_c, 6, 7, 95
7, 42048, Note_on_c, 6, 71, 0
7, 42048, Note_on_c, 6, 72, 85
7, 42063, Control_c, 6, 7, 94
7, 42112, Note_on_c, 6, 72, 0
7, 42112, Note_on_c, 6, 75, 83
7, 42139, Control_c, 6, 7, 93
7, 42176, Note_on_c, 6, 75, 0
7, 42176, Note_on_c, 6, 79, 81
7, 42215, Control_c, 6, 7, 92
7, 42240, Note_on_c, 6, 79, 0
7, 42240, Note_on_c, 6, 83, 79
7, 42291, Control_c, 6, 7, 91
7, 42304, Note_on_c, 6, 83, 0
7, 42304, Note_on_c, 6, 88, 77
7, 42368, Note_on_c, 6, 88, 0
7, 42368, Control_c, 6, 7, 90
7, 42368, Note_on_c, 6, 91, 75
7, 42430, Note_on_c, 6, 91, 0
7, 42432, Note_on_c, 6, 47, 75
7, 42432, Note_on_c, 6, 95, 75
7, 42496, Note_on_c, 6, 47, 0
7, 42496, Note_on_c, 6, 95, 0
7, 42496, Control_c, 6, 7, 127
7, 42496, Note_on_c, 6, 54, 127
7, 42560, Note_on_c, 6, 54, 0
7, 42560, Note_on_c, 6, 59, 127
7, 42624, Note_on_c, 6, 59, 0
7, 42624, Note_on_c, 6, 61, 127
7, 42688, Note_on_c, 6, 61, 0
7, 42688, Note_on_c, 6, 64, 126
7, 42700, Control_c, 6, 7, 126
7, 42752, Note_on_c, 6, 64, 0
7, 42752, Note_on_c, 6, 67, 125
7, 42776, Control_c, 6, 7, 125
7, 42816, Note_on_c, 6, 67, 0
7, 42816, Note_on_c, 6, 71, 124
7, 42852, Control_c, 6, 7, 124
7, 42880, Note_on_c, 6, 71, 0
7, 42880, Note_on_c, 6, 74, 123
7, 42928, Control_c, 6, 7, 123
7, 42944, Note_on_c, 6, 74, 0
7, 42944, Note_on_c, 6, 78, 122
7, 43004, Control_c, 6, 7, 122
7, 43008, Note_on_c, 6, 78, 0
7, 43008, Note_on_c, 6, 80, 121
7, 43072, Note_on_c, 6, 80, 0
7, 43072, Note_on_c, 6, 83, 120
7, 43080, Control_c, 6, 7, 121
7, 43136, Note_on_c, 6, 83, 0
7, 43136, Note_on_c, 6, 85, 119
7, 43156, Control_c, 6, 7, 120
7, 43200, Note_on_c, 6, 85, 0
7, 43200, Note_on_c, 6, 47, 118
7, 43200, Note_on_c, 6, 86, 118
7, 43232, Control_c, 6, 7, 119
7, 43264, Note_on_c, 6, 47, 0
7, 43264, Note_on_c, 6, 86, 0
7, 43264, Note_on_c, 6, 54, 117
7, 43308, Control_c, 6, 7, 118
7, 43328, Note_on_c, 6, 54, 0
7, 43328, Note_on_c, 6, 59, 116
7, 43385, Control_c, 6, 7, 117
7, 43392, Note_on_c, 6, 59, 0
7, 43392, Note_on_c, 6, 61, 115
7, 43456, Note_on_c, 6, 61, 0
7, 43456, Note_on_c, 6, 64, 114
7, 43461, Control_c, 6, 7, 116
7, 43520, Note_on_c, 6, 64, 0
7, 43520, Note_on_c, 6, 67, 113
7, 43537, Control_c, 6, 7, 115
7, 43584, Note_on_c, 6, 67, 0
7, 43584, Note_on_c, 6, 71, 112
7, 43613, Control_c, 6, 7, 114
7, 43648, Note_on_c, 6, 71, 0
7, 43648, Note_on_c, 6, 74, 111
7, 43689, Control_c, 6, 7, 113
7, 43712, Note_on_c, 6, 74, 0
7, 43712, Note_on_c, 6, 78, 110
7, 43765, Control_c, 6, 7, 112
7, 43776, Note_on_c, 6, 78, 0
7, 43776, Note_on_c, 6, 80, 109
7, 43840, Note_on_c, 6, 80, 0
7, 43840, Note_on_c, 6, 83, 108
7, 43841, Control_c, 6, 7, 111
7, 43904, Note_on_c, 6, 83, 0
7, 43904, Note_on_c, 6, 85, 107
7, 43917, Control_c, 6, 7, 110
7, 43968, Note_on_c, 6, 85, 0
7, 43968, Note_on_c, 6, 47, 106
7, 43968, Note_on_c, 6, 86, 106
7, 43993, Control_c, 6, 7, 109
7, 44032, Note_on_c, 6, 47, 0
7, 44032, Note_on_c, 6, 86, 0
7, 44032, Note_on_c, 6, 54, 105
7, 44070, Control_c, 6, 7, 108
7, 44096, Note_on_c, 6, 54, 0
7, 44096, Note_on_c, 6, 59, 104
7, 44146, Control_c, 6, 7, 107
7, 44160, Note_on_c, 6, 59, 0
7, 44160, Note_on_c, 6, 61, 103
7, 44222, Control_c, 6, 7, 106
7, 44224, Note_on_c, 6, 61, 0
7, 44224, Note_on_c, 6, 64, 102
7, 44288, Note_on_c, 6, 64, 0
7, 44288, Note_on_c, 6, 67, 101
7, 44298, Control_c, 6, 7, 105
7, 44352, Note_on_c, 6, 67, 0
7, 44352, Note_on_c, 6, 71, 100
7, 44374, Control_c, 6, 7, 104
7, 44416, Note_on_c, 6, 71, 0
7, 44416, Note_on_c, 6, 74, 99
7, 44450, Control_c, 6, 7, 103
7, 44480, Note_on_c, 6, 74, 0
7, 44480, Note_on_c, 6, 78, 98
7, 44526, Control_c, 6, 7, 102
7, 44544, Note_on_c, 6, 78, 0
7, 44544, Note_on_c, 6, 80, 97
7, 44602, Control_c, 6, 7, 101
7, 44608, Note_on_c, 6, 80, 0
7, 44608, Note_on_c, 6, 83, 96
7, 44672, Note_on_c, 6, 83, 0
7, 44672, Note_on_c, 6, 85, 95
7, 44678, Control_c, 6, 7, 100
7, 44736, Note_on_c, 6, 85, 0
7, 44736, Note_on_c, 6, 47, 94
7, 44736, Note_on_c, 6, 86, 94
7, 44755, Control_c, 6, 7, 99
7, 44800, Note_on_c, 6, 47, 0
7, 44800, Note_on_c, 6, 86, 0
7, 44800, Note_on_c, 6, 54, 93
7, 44831, Control_c, 6, 7, 98
7, 44864, Note_on_c, 6, 54, 0
7, 44864, Note_on_c, 6, 59, 92
7, 44907, Control_c, 6, 7, 97
7, 44928, Note_on_c, 6, 59, 0
7, 44928, Note_on_c, 6, 61, 91
7, 44983, Control_c, 6, 7, 96
7, 44992, Note_on_c, 6, 61, 0
7, 44992, Note_on_c, 6, 64, 89
7, 45056, Note_on_c, 6, 64, 0
7, 45056, Note_on_c, 6, 67, 87
7, 45059, Control_c, 6, 7, 95
7, 45120, Note_on_c, 6, 67, 0
7, 45120, Note_on_c, 6, 71, 85
7, 45135, Control_c, 6, 7, 94
7, 45184, Note_on_c, 6, 71, 0
7, 45184, Note_on_c, 6, 74, 83
7, 45211, Control_c, 6, 7, 93
7, 45248, Note_on_c, 6, 74, 0
7, 45248, Note_on_c, 6, 78, 81
7, 45287, Control_c, 6, 7, 92
7, 45312, Note_on_c, 6, 78, 0
7, 45312, Note_on_c, 6, 80, 79
7, 45363, Control_c, 6, 7, 91
7, 45376, Note_on_c, 6, 80, 0
7, 45376, Note_on_c, 6, 83, 77
7, 45440, Note_on_c, 6, 83, 0
7, 45440, Control_c, 6, 7, 90
7, 45440, Note_on_c, 6, 85, 75
7, 45502, Note_on_c, 6, 85, 0
7, 45504, Note_on_c, 6, 45, 75
7, 45568, Note_on_c, 6, 45, 0
7, 45568, Control_c, 6, 7, 127
7, 45568, Note_on_c, 6, 52, 127
7, 45632, Note_on_c, 6, 52, 0
7, 45632, Note_on_c, 6, 57, 127
7, 45696, Note_on_c, 6, 57, 0
7, 45696, Note_on_c, 6, 61, 127
7, 45760, Note_on_c, 6, 61, 0
7, 45760, Note_on_c, 6, 64, 126
7, 45772, Control_c, 6, 7, 126
7, 45824, Note_on_c, 6, 64, 0
7, 45824, Note_on_c, 6, 68, 125
7, 45848, Control_c, 6, 7, 125
7, 45888, Note_on_c, 6, 68, 0
7, 45888, Note_on_c, 6, 69, 124
7, 45924, Control_c, 6, 7, 124
7, 45952, Note_on_c, 6, 69, 0
7, 45952, Note_on_c, 6, 72, 123
7, 46000, Control_c, 6, 7, 123
7, 46016, Note_on_c, 6, 72, 0
7, 46016, Note_on_c, 6, 76, 122
7, 46076, Control_c, 6, 7, 122
7, 46080, Note_on_c, 6, 76, 0
7, 46080, Note_on_c, 6, 80, 121
7, 46144, Note_on_c, 6, 80, 0
7, 46144, Note_on_c, 6, 85, 120
7, 46152, Control_c, 6, 7, 121
7, 46208, Note_on_c, 6, 85, 0
7, 46208, Note_on_c, 6, 88, 119
7, 46228, Control_c, 6, 7, 120
7, 46272, Note_on_c, 6, 88, 0
7, 46272, Note_on_c, 6, 45, 118
7, 46272, Note_on_c, 6, 92, 118
7, 46304, Control_c, 6, 7, 119
7, 46336, Note_on_c, 6, 45, 0
7, 46336, Note_on_c, 6, 92, 0
7, 46336, Note_on_c, 6, 52, 117
7, 46380, Control_c, 6, 7, 118
7, 46400, Note_on_c, 6, 52, 0
7, 46400, Note_on_c, 6, 57, 116
7, 46457, Control_c, 6, 7, 117
7, 46464, Note_on_c, 6, 57, 0
7, 46464, Note_on_c, 6, 61, 115
7, 46528, Note_on_c, 6, 61, 0
7, 46528, Note_on_c, 6, 64, 114
7, 46533, Control_c, 6, 7, 116
7, 46592, Note_on_c, 6, 64, 0
7, 46592, Note_on_c, 6, 68, 113
7, 46609, Control_c, 6, 7, 115
7, 46656, Note_on_c, 6, 68, 0
7, 46656, Note_on_c, 6, 69, 112
7, 46685, Control_c, 6, 7, 114
7, 46720, Note_on_c, 6, 69, 0
7, 46720, Note_on_c, 6, 72, 111
7, 46761, Control_c, 6, 7, 113
7, 46784, Note_on_c, 6, 72, 0
7, 46784, Note_on_c, 6, 76, 110
7, 46837, Control_c, 6, 7, 112
7, 46848, Note_on_c, 6, 76, 0
7, 46848, Note_on_c, 6, 80, 109
7, 46912, Note_on_c, 6, 80, 0
7, 46912, Note_on_c, 6, 85, 108
7, 46913, Control_c, 6, 7, 111
7, 46976, Note_on_c, 6, 85, 0
7, 46976, Note_on_c, 6, 88, 107
7, 46989, Control_c, 6, 7, 110
7, 47040, Note_on_c, 6, 88, 0
7, 47040, Note_on_c, 6, 45, 106
7, 47040, Note_on_c, 6, 92, 106
7, 47065, Control_c, 6, 7, 109
7, 47104, Note_on_c, 6, 45, 0
7, 47104, Note_on_c, 6, 92, 0
7, 47104, Note_on_c, 6, 52, 105
7, 47142, Control_c, 6, 7, 108
7, 47168, Note_on_c, 6, 52, 0
7, 47168, Note_on_c, 6, 57, 104
7, 47218, Control_c, 6, 7, 107
7, 47232, Note_on_c, 6, 57, 0
7, 47232, Note_on_c, 6, 61, 103
7, 47294, Control_c, 6, 7, 106
7, 47296, Note_on_c, 6, 61, 0
7, 47296, Note_on_c, 6, 64, 102
7, 47360, Note_on_c, 6, 64, 0
7, 47360, Note_on_c, 6, 68, 101
7, 47370, Control_c, 6, 7, 105
7, 47424, Note_on_c, 6, 68, 0
7, 47424, Note_on_c, 6, 69, 100
7, 47446, Control_c, 6, 7, 104
7, 47488, Note_on_c, 6, 69, 0
7, 47488, Note_on_c, 6, 72, 99
7, 47522, Control_c, 6, 7, 103
7, 47552, Note_on_c, 6, 72, 0
7, 47552, Note_on_c, 6, 76, 98
7, 47598, Control_c, 6, 7, 102
7, 47616, Note_on_c, 6, 76, 0
7, 47616, Note_on_c, 6, 80, 97
7, 47674, Control_c, 6, 7, 101
7, 47680, Note_on_c, 6, 80, 0
7, 47680, Note_on_c, 6, 85, 96
7, 47744, Note_on_c, 6, 85, 0
7, 47744, Note_on_c, 6, 88, 95
7, 47750, Control_c, 6, 7, 100
7, 47808, Note_on_c, 6, 88, 0
7, 47808, Note_on_c, 6, 45, 94
7, 47808, Note_on_c, 6, 92, 94
7, 47827, Control_c, 6, 7, 99
7, 47872, Note_on_c, 6, 45, 0
7, 47872, Note_on_c, 6, 92, 0
7, 47872, Note_on_c, 6, 52, 93
7, 47903, Control_c, 6, 7, 98
7, 47936, Note_on_c, 6, 52, 0
7, 47936, Note_on_c, 6, 57, 92
7, 47979, Control_c, 6, 7, 97
7, 48000, Note_on_c, 6, 57, 0
7, 48000, Note_on_c, 6, 61, 91
7, 48055, Control_c, 6, 7, 96
7, 48064, Note_on_c, 6, 61, 0
7, 48064, Note_on_c, 6, 64, 89
7, 48128, Note_on_c, 6, 64, 0
7, 48128, Note_on_c, 6, 68, 87
7, 48131, Control_c, 6, 7, 95
7, 48192, Note_on_c, 6, 68, 0
7, 48192, Note_on_c, 6, 69, 85
7, 48207, Control_c, 6, 7, 94
7, 48256, Note_on_c, 6, 69, 0
7, 48256, Note_on_c, 6, 72, 83
7, 48283, Control_c, 6, 7, 93
7, 48320, Note_on_c, 6, 72, 0
7, 48320, Note_on_c, 6, 76, 81
7, 48359, Control_c, 6, 7, 92
7, 48384, Note_on_c, 6, 76, 0
7, 48384, Note_on_c, 6, 80, 79
7, 48435, Control_c, 6, 7, 91
7, 48448, Note_on_c, 6, 80, 0
7, 48448, Note_on_c, 6, 85, 77
7, 48512, Note_on_c, 6, 85, 0
7, 48512, Control_c, 6, 7, 90
7, 48512, Note_on_c, 6, 88, 75
7, 48574, Note_on_c, 6, 88, 0
7, 48576, Note_on_c, 6, 44, 75
7, 48576, Note_on_c, 6, 92, 75
7, 48640, Note_on_c, 6, 44, 0
7, 48640, Note_on_c, 6, 92, 0
7, 48640, Control_c, 6, 7, 127
7, 48640, Note_on_c, 6, 51, 127
7, 48704, Note_on_c, 6, 51, 0
7, 48704, Note_on_c, 6, 56, 127
7, 48768, Note_on_c, 6, 56, 0
7, 48768, Note_on_c, 6, 58, 127
7, 48832, Note_on_c, 6, 58, 0
7, 48832, Note_on_c, 6, 61, 126
7, 48844, Control_c, 6, 7, 126
7, 48896, Note_on_c, 6, 61, 0
7, 48896, Note_on_c, 6, 64, 125
7, 48920, Control_c, 6, 7, 125
7, 48960, Note_on_c, 6, 64, 0
7, 48960, Note_on_c, 6, 68, 124
7, 48996, Control_c, 6, 7, 124
7, 49024, Note_on_c, 6, 68, 0
7, 49024, Note_on_c, 6, 71, 123
7, 49072, Control_c, 6, 7, 123
7, 49088, Note_on_c, 6, 71, 0
7, 49088, Note_on_c, 6, 75, 122
7, 49148, Control_c, 6, 7, 122
7, 49152, Note_on_c, 6, 75, 0
7, 49152, Note_on_c, 6, 77, 121
7, 49216, Note_on_c, 6, 77, 0
7, 49216, Note_on_c, 6, 80, 120
7, 49224, Control_c, 6, 7, 121
7, 49280, Note_on_c, 6, 80, 0
7, 49280, Note_on_c, 6, 82, 119
7, 49300, Control_c, 6, 7, 120
7, 49344, Note_on_c, 6, 82, 0
7, 49344, Note_on_c, 6, 44, 118
7, 49344, Note_on_c, 6, 83, 118
7, 49376, Control_c, 6, 7, 119
7, 49408, Note_on_c, 6, 44, 0
7, 49408, Note_on_c, 6, 83, 0
7, 49408, Note_on_c, 6, 51, 117
7, 49452, Control_c, 6, 7, 118
7, 49472, Note_on_c, 6, 51, 0
7, 49472, Note_on_c, 6, 56, 116
7, 49529, Control_c, 6, 7, 117
7, 49536, Note_on_c, 6, 56, 0
7, 49536, Note_on_c, 6, 58, 115
7, 49600, Note_on_c, 6, 58, 0
7, 49600, Note_on_c, 6, 61, 114
7, 49605, Control_c, 6, 7, 116
7, 49664, Note_on_c, 6, 61, 0
7, 49664, Note_on_c, 6, 64, 113
7, 49681, Control_c, 6, 7, 115
7, 49728, Note_on_c, 6, 64, 0
7, 49728, Note_on_c, 6, 68, 112
7, 49757, Control_c, 6, 7, 114
7, 49792, Note_on_c, 6, 68, 0
7, 49792, Note_on_c, 6, 71, 111
7, 49833, Control_c, 6, 7, 113
7, 49856, Note_on_c, 6, 71, 0
7, 49856, Note_on_c, 6, 75, 110
7, 49909, Control_c, 6, 7, 112
7, 49920, Note_on_c, 6, 75, 0
7, 49920, Note_on_c, 6, 77, 109
7, 49984, Note_on_c, 6, 77, 0
7, 49984, Note_on_c, 6, 80, 108
7, 49985, Control_c, 6, 7, 111
7, 50048, Note_on_c, 6, 80, 0
7, 50048, Note_on_c, 6, 82, 107
7, 50061, Control_c, 6, 7, 110
7, 50112, Note_on_c, 6, 82, 0
7, 50112, Note_on_c, 6, 44, 106
7, 50112, Note_on_c, 6, 83, 106
7, 50137, Control_c, 6, 7, 109
7, 50176, Note_on_c, 6, 44, 0
7, 50176, Note_on_c, 6, 83, 0
7, 50176, Note_on_c, 6, 51, 105
7, 50214, Control_c, 6, 7, 108
7, 50240, Note_on_c, 6, 51, 0
7, 50240, Note_on_c, 6, 56, 104
7, 50290, Control_c, 6, 7, 107
7, 50304, Note_on_c, 6, 56, 0
7, 50304, Note_on_c, 6, 58, 103
7, 50366, Control_c, 6, 7, 106
7, 50368, Note_on_c, 6, 58, 0
7, 50368, Note_on_c, 6, 61, 102
7, 50432, Note_on_c, 6, 61, 0
7, 50432, Note_on_c, 6, 64, 101
7, 50442, Control_c, 6, 7, 105
7, 50496, Note_on_c, 6, 64, 0
7, 50496, Note_on_c, 6, 68, 100
7, 50518, Control_c, 6, 7, 104
7, 50560, Note_on_c, 6, 68, 0
7, 50560, Note_on_c, 6, 71, 99
7, 50594, Control_c, 6, 7, 103
7, 50624, Note_on_c, 6, 71, 0
7, 50624, Note_on_c, 6, 75, 98
7, 50670, Control_c, 6, 7, 102
7, 50688, Note_on_c, 6, 75, 0
7, 50688, Note_on_c, 6, 77, 97
7, 50746, Control_c, 6, 7, 101
7, 50752, Note_on_c, 6, 77, 0
7, 50752, Note_on_c, 6, 80, 96
7, 50816, Note_on_c, 6, 80, 0
7, 50816, Note_on_c, 6, 82, 95
7, 50822, Control_c, 6, 7, 100
7, 50880, Note_on_c, 6, 82, 0
7, 50880, Note_on_c, 6, 44, 94
7, 50880, Note_on_c, 6, 83, 94
7, 50899, Control_c, 6, 7, 99
7, 50944, Note_on_c, 6, 44, 0
7, 50944, Note_on_c, 6, 83, 0
7, 50944, Note_on_c, 6, 51, 93
7, 50975, Control_c, 6, 7, 98
7, 51008, Note_on_c, 6, 51, 0
7, 51008, Note_on_c, 6, 56, 92
7, 51051, Control_c, 6, 7, 97
7, 51072, Note_on_c, 6, 56, 0
7, 51072, Note_on_c, 6, 58, 91
7, 51127, Control_c, 6, 7, 96
7, 51136, Note_on_c, 6, 58, 0
7, 51136, Note_on_c, 6, 61, 89
7, 51200, Note_on_c, 6, 61, 0
7, 51200, Note_on_c, 6, 64, 87
7, 51203, Control_c, 6, 7, 95
7, 51264, Note_on_c, 6, 64, 0
7, 51264, Note_on_c, 6, 68, 85
7, 51279, Control_c, 6, 7, 94
7, 51328, Note_on_c, 6, 68, 0
7, 51328, Note_on_c, 6, 71, 83
7, 51355, Control_c, 6, 7, 93
7, 51392, Note_on_c, 6, 71, 0
7, 51392, Note_on_c, 6, 75, 81
7, 51431, Control_c, 6, 7, 92
7, 51456, Note_on_c, 6, 75, 0
7, 51456, Note_on_c, 6, 77, 79
7, 51507, Control_c, 6, 7, 91
7, 51520, Note_on_c, 6, 77, 0
7, 51520, Note_on_c, 6, 80, 77
7, 51584, Note_on_c, 6, 80, 0
7, 51584, Control_c, 6, 7, 90
7, 51584, Note_on_c, 6, 82, 75
7, 51646, Note_on_c, 6, 82, 0
7, 51648, Note_on_c, 6, 43, 75
7, 51648, Note_on_c, 6, 83, 75
7, 51712, Note_on_c, 6, 43, 0
7, 51712, Note_on_c, 6, 83, 0
7, 51712, Control_c, 6, 7, 127
7, 51712, Note_on_c, 6, 50, 127
7, 51776, Note_on_c, 6, 50, 0
7, 51776, Note_on_c, 6, 55, 127
7, 51840, Note_on_c, 6, 55, 0
7, 51840, Note_on_c, 6, 59, 127
7, 51904, Note_on_c, 6, 59, 0
7, 51904, Note_on_c, 6, 62, 126
7, 51916, Control_c, 6, 7, 126
7, 51968, Note_on_c, 6, 62, 0
7, 51968, Note_on_c, 6, 66, 125
7, 51992, Control_c, 6, 7, 125
7, 52032, Note_on_c, 6, 66, 0
7, 52032, Note_on_c, 6, 67, 124
7, 52068, Control_c, 6, 7, 124
7, 52096, Note_on_c, 6, 67, 0
7, 52096, Note_on_c, 6, 70, 123
7, 52144, Control_c, 6, 7, 123
7, 52160, Note_on_c, 6, 70, 0
7, 52160, Note_on_c, 6, 74, 122
7, 52220, Control_c, 6, 7, 122
7, 52224, Note_on_c, 6, 74, 0
7, 52224, Note_on_c, 6, 78, 121
7, 52288, Note_on_c, 6, 78, 0
7, 52288, Note_on_c, 6, 83, 120
7, 52296, Control_c, 6, 7, 121
7, 52352, Note_on_c, 6, 83, 0
7, 52352, Note_on_c, 6, 86, 119
7, 52372, Control_c, 6, 7, 120
7, 52416, Note_on_c, 6, 86, 0
7, 52416, Note_on_c, 6, 43, 118
7, 52416, Note_on_c, 6, 90, 118
7, 52448, Control_c, 6, 7, 119
7, 52480, Note_on_c, 6, 43, 0
7, 52480, Note_on_c, 6, 90, 0
7, 52480, Note_on_c, 6, 50, 117
7, 52524, Control_c, 6, 7, 118
7, 52544, Note_on_c, 6, 50, 0
7, 52544, Note_on_c, 6, 55, 116
7, 52601, Control_c, 6, 7, 117
7, 52608, Note_on_c, 6, 55, 0
7, 52608, Note_on_c, 6, 59, 115
7, 52672, Note_on_c, 6, 59, 0
7, 52672, Note_on_c, 6, 62, 114
7, 52677, Control_c, 6, 7, 116
7, 52736, Note_on_c, 6, 62, 0
7, 52736, Note_on_c, 6, 66, 113
7, 52753, Control_c, 6, 7, 115
7, 52800, Note_on_c, 6, 66, 0
7, 52800, Note_on_c, 6, 67, 112
7, 52829, Control_c, 6, 7, 114
7, 52864, Note_on_c, 6, 67, 0
7, 52864, Note_on_c, 6, 70, 111
7, 52905, Control_c, 6, 7, 113
7, 52928, Note_on_c, 6, 70, 0
7, 52928, Note_on_c, 6, 74, 110
7, 52981, Control_c, 6, 7, 112
7, 52992, Note_on_c, 6, 74, 0
7, 52992, Note_on_c, 6, 78, 109
7, 53056, Note_on_c, 6, 78, 0
7, 53056, Note_on_c, 6, 83, 108
7, 53057, Control_c, 6, 7, 111
7, 53120, Note_on_c, 6, 83, 0
7, 53120, Note_on_c, 6, 86, 107
7, 53133, Control_c, 6, 7, 110
7, 53184, Note_on_c, 6, 86, 0
7, 53184, Note_on_c, 6, 43, 106
7, 53184, Note_on_c, 6, 90, 106
7, 53209, Control_c, 6, 7, 109
7, 53248, Note_on_c, 6, 43, 0
7, 53248, Note_on_c, 6, 90, 0
7, 53248, Note_on_c, 6, 50, 105
7, 53286, Control_c, 6, 7, 108
7, 53312, Note_on_c, 6, 50, 0
7, 53312, Note_on_c, 6, 55, 104
7, 53362, Control_c, 6, 7, 107
7, 53376, Note_on_c, 6, 55, 0
7, 53376, Note_on_c, 6, 59, 103
7, 53438, Control_c, 6, 7, 106
7, 53440, Note_on_c, 6, 59, 0
7, 53440, Note_on_c, 6, 62, 102
7, 53504, Note_on_c, 6, 62, 0
7, 53504, Note_on_c, 6, 66, 101
7, 53514, Control_c, 6, 7, 105
7, 53568, Note_on_c, 6, 66, 0
7, 53568, Note_on_c, 6, 67, 100
7, 53590, Control_c, 6, 7, 104
7, 53632, Note_on_c, 6, 67, 0
7, 53632, Note_on_c, 6, 70, 99
7, 53666, Control_c, 6, 7, 103
7, 53696, Note_on_c, 6, 70, 0
7, 53696, Note_on_c, 6, 74, 98
7, 53742, Control_c, 6, 7, 102
7, 53760, Note_on_c, 6, 74, 0
7, 53760, Note_on_c, 6, 78, 97
7, 53818, Control_c, 6, 7, 101
7, 53824, Note_on_c, 6, 78, 0
7, 53824, Note_on_c, 6, 83, 96
7, 53888, Note_on_c, 6, 83, 0
7, 53888, Note_on_c, 6, 86, 95
7, 53894, Control_c, 6, 7, 100
7, 53952, Note_on_c, 6, 86, 0
7, 53952, Note_on_c, 6, 43, 94
7, 53952, Note_on_c, 6, 90, 94
7, 53971, Control_c, 6, 7, 99
7, 54016, Note_on_c, 6, 43, 0
7, 54016, Note_on_c, 6, 90, 0
7, 54016, Note_on_c, 6, 50, 93
7, 54047, Control_c, 6, 7, 98
7, 54080, Note_on_c, 6, 50, 0
7, 54080, Note_on_c, 6, 55, 92
7, 54123, Control_c, 6, 7, 97
7, 54144, Note_on_c, 6, 55, 0
7, 54144, Note_on_c, 6, 59, 91
7, 54199, Control_c, 6, 7, 96
7, 54208, Note_on_c, 6, 59, 0
7, 54208, Note_on_c, 6, 62, 89
7, 54272, Note_on_c, 6, 62, 0
7, 54272, Note_on_c, 6, 66, 87
7, 54275, Control_c, 6, 7, 95
7, 54336, Note_on_c, 6, 66, 0
7, 54336, Note_on_c, 6, 67, 85
7, 54351, Control_c, 6, 7, 94
7, 54400, Note_on_c, 6, 67, 0
7, 54400, Note_on_c, 6, 70, 83
7, 54427, Control_c, 6, 7, 93
7, 54464, Note_on_c, 6, 70, 0
7, 54464, Note_on_c, 6, 74, 81
7, 54503, Control_c, 6, 7, 92
7, 54528, Note_on_c, 6, 74, 0
7, 54528, Note_on_c, 6, 78, 79
7, 54579, Control_c, 6, 7, 91
7, 54592, Note_on_c, 6, 78, 0
7, 54592, Note_on_c, 6, 83, 77
7, 54656, Note_on_c, 6, 83, 0
7, 54656, Control_c, 6, 7, 90
7, 54656, Note_on_c, 6, 86, 75
7, 54718, Note_on_c, 6, 86, 0
7, 54720, Note_on_c, 6, 42, 75
7, 54720, Note_on_c, 6, 90, 75
7, 54784, Note_on_c, 6, 42, 0
7, 54784, Note_on_c, 6, 90, 0
7, 54784, Control_c, 6, 7, 127
7, 54784, Note_on_c, 6, 49, 127
7, 54848, Note_on_c, 6, 49, 0
7, 54848, Note_on_c, 6, 54, 127
7, 54912, Note_on_c, 6, 54, 0
7, 54912, Note_on_c, 6, 56, 127
7, 54976, Note_on_c, 6, 56, 0
7, 54976, Note_on_c, 6, 59, 126
7, 54988, Control_c, 6, 7, 126
7, 55040, Note_on_c, 6, 59, 0
7, 55040, Note_on_c, 6, 62, 125
7, 55064, Control_c, 6, 7, 125
7, 55104, Note_on_c, 6, 62, 0
7, 55104, Note_on_c, 6, 66, 124
7, 55140, Control_c, 6, 7, 124
7, 55168, Note_on_c, 6, 66, 0
7, 55168, Note_on_c, 6, 69, 123
7, 55216, Control_c, 6, 7, 123
7, 55232, Note_on_c, 6, 69, 0
7, 55232, Note_on_c, 6, 73, 122
7, 55292, Control_c, 6, 7, 122
7, 55296, Note_on_c, 6, 73, 0
7, 55296, Note_on_c, 6, 75, 121
7, 55360, Note_on_c, 6, 75, 0
7, 55360, Note_on_c, 6, 78, 120
7, 55368, Control_c, 6, 7, 121
7, 55424, Note_on_c, 6, 78, 0
7, 55424, Note_on_c, 6, 80, 119
7, 55444, Control_c, 6, 7, 120
7, 55488, Note_on_c, 6, 80, 0
7, 55488, Note_on_c, 6, 42, 118
7, 55488, Note_on_c, 6, 81, 118
7, 55520, Control_c, 6, 7, 119
7, 55552, Note_on_c, 6, 42, 0
7, 55552, Note_on_c, 6, 81, 0
7, 55552, Note_on_c, 6, 49, 117
7, 55596, Control_c, 6, 7, 118
7, 55616, Note_on_c, 6, 49, 0
7, 55616, Note_on_c, 6, 54, 116
7, 55673, Control_c, 6, 7, 117
7, 55680, Note_on_c, 6, 54, 0
7, 55680, Note_on_c, 6, 56, 115
7, 55744, Note_on_c, 6, 56, 0
7, 55744, Note_on_c, 6, 59, 114
7, 55749, Control_c, 6, 7, 116
7, 55808, Note_on_c, 6, 59, 0
7, 55808, Note_on_c, 6, 62, 113
7, 55825, Control_c, 6, 7, 115
7, 55872, Note_on_c, 6, 62, 0
7, 55872, Note_on_c, 6, 66, 112
7, 55901, Control_c, 6, 7, 114
7, 55936, Note_on_c, 6, 66, 0
7, 55936, Note_on_c, 6, 69, 111
7, 55977, Control_c, 6, 7, 113
7, 56000, Note_on_c, 6, 69, 0
7, 56000, Note_on_c, 6, 73, 110
7, 56053, Control_c, 6, 7, 112
7, 56064, Note_on_c, 6, 73, 0
7, 56064, Note_on_c, 6, 75, 109
7, 56128, Note_on_c, 6, 75, 0
7, 56128, Note_on_c, 6, 78, 108
7, 56129, Control_c, 6, 7, 111
7, 56192, Note_on_c, 6, 78, 0
7, 56192, Note_on_c, 6, 80, 107
7, 56205, Control_c, 6, 7, 110
7, 56256, Note_on_c, 6, 80, 0
7, 56256, Note_on_c, 6, 42, 106
7, 56256, Note_on_c, 6, 81, 106
7, 56281, Control_c, 6, 7, 109
7, 56320, Note_on_c, 6, 42, 0
7, 56320, Note_on_c, 6, 81, 0
7, 56320, Note_on_c, 6, 49, 105
7, 56358, Control_c, 6, 7, 108
7, 56384, Note_on_c, 6, 49, 0
7, 56384, Note_on_c, 6, 54, 104
7, 56434, Control_c, 6, 7, 107
7, 56448, Note_on_c, 6, 54, 0
7, 56448, Note_on_c, 6, 56, 103
7, 56510, Control_c, 6, 7, 106
7, 56512, Note_on_c, 6, 56, 0
7, 56512, Note_on_c, 6, 59, 102
7, 56576, Note_on_c, 6, 59, 0
7, 56576, Note_on_c, 6, 62, 101
7, 56586, Control_c, 6, 7, 105
7, 56640, Note_on_c, 6, 62, 0
7, 56640, Note_on_c, 6, 66, 100
7, 56662, Control_c, 6, 7, 104
7, 56704, Note_on_c, 6, 66, 0
7, 56704, Note_on_c, 6, 69, 99
7, 56738, Control_c, 6, 7, 103
7, 56768, Note_on_c, 6, 69, 0
7, 56768, Note_on_c, 6, 73, 98
7, 56814, Control_c, 6, 7, 102
7, 56832, Note_on_c, 6, 73, 0
7, 56832, Note_on_c, 6, 75, 97
7, 56890, Control_c, 6, 7, 101
7, 56896, Note_on_c, 6, 75, 0
7, 56896, Note_on_c, 6, 78, 96
7, 56960, Note_on_c, 6, 78, 0
7, 56960, Note_on_c, 6, 80, 95
7, 56966, Control_c, 6, 7, 100
7, 57024, Note_on_c, 6, 80, 0
7, 57024, Note_on_c, 6, 42, 94
7, 57024, Note_on_c, 6, 81, 94
7, 57043, Control_c, 6, 7, 99
7, 57088, Note_on_c, 6, 42, 0
7, 57088, Note_on_c, 6, 81, 0
7, 57088, Note_on_c, 6, 49, 93
7, 57119, Control_c, 6, 7, 98
7, 57152, Note_on_c, 6, 49, 0
7, 57152, Note_on_c, 6, 54, 92
7, 57195, Control_c, 6, 7, 97
7, 57216, Note_on_c, 6, 54, 0
7, 57216, Note_on_c, 6, 56, 91
7, 57271, Control_c, 6, 7, 96
7, 57280, Note_on_c, 6, 56, 0
7, 57280, Note_on_c, 6, 59, 89
7, 57344, Note_on_c, 6, 59, 0
7, 57344, Note_on_c, 6, 62, 87
7, 57347, Control_c, 6, 7, 95
7, 57408, Note_on_c, 6, 62, 0
7, 57408, Note_on_c, 6, 66, 85
7, 57423, Control_c, 6, 7, 94
7, 57472, Note_on_c, 6, 66, 0
7, 57472, Note_on_c, 6, 69, 83
7, 57499, Control_c, 6, 7, 93
7, 57536, Note_on_c, 6, 69, 0
7, 57536, Note_on_c, 6, 73, 81
7, 57575, Control_c, 6, 7, 92
7, 57600, Note_on_c, 6, 73, 0
7, 57600, Note_on_c, 6, 75, 79
7, 57651, Control_c, 6, 7, 91
7, 57664, Note_on_c, 6, 75, 0
7, 57664, Note_on_c, 6, 78, 77
7, 57728, Note_on_c, 6, 78, 0
7, 57728, Control_c, 6, 7, 90
7, 57728, Note_on_c, 6, 80, 75
7, 57790, Note_on_c, 6, 80, 0
7, 57790, End_track
8, 0, Start_track
8, 0, MIDI_port, 0
8, 0, Title_t, "Staff-6"
8, 0, Control_c, 7, 7, 127
8, 0, Control_c, 7, 10, 64
8, 0, End_track
9, 0, Start_track
9, 0, MIDI_port, 0
9, 0, Title_t, "Staff-7"
9, 0, Control_c, 8, 7, 127
9, 0, Control_c, 8, 10, 99
9, 0, Program_c, 8, 26
9, 45504, Note_on_c, 8, 64, 110
9, 45568, Note_on_c, 8, 64, 0
9, 45568, Note_on_c, 8, 60, 110
9, 45632, Note_on_c, 8, 60, 0
9, 45632, Note_on_c, 8, 57, 110
9, 45696, Note_on_c, 8, 57, 0
9, 45696, Note_on_c, 8, 64, 110
9, 45760, Note_on_c, 8, 64, 0
9, 45760, Note_on_c, 8, 61, 110
9, 45824, Note_on_c, 8, 61, 0
9, 45824, Note_on_c, 8, 56, 110
9, 45888, Note_on_c, 8, 56, 0
9, 45888, Note_on_c, 8, 64, 110
9, 45952, Note_on_c, 8, 64, 0
9, 45952, Note_on_c, 8, 60, 110
9, 46016, Note_on_c, 8, 60, 0
9, 46016, Note_on_c, 8, 57, 110
9, 46080, Note_on_c, 8, 57, 0
9, 46080, Note_on_c, 8, 64, 110
9, 46144, Note_on_c, 8, 64, 0
9, 46144, Note_on_c, 8, 61, 110
9, 46208, Note_on_c, 8, 61, 0
9, 46208, Note_on_c, 8, 56, 110
9, 46272, Note_on_c, 8, 56, 0
9, 46272, Note_on_c, 8, 64, 110
9, 46336, Note_on_c, 8, 64, 0
9, 46336, Note_on_c, 8, 60, 110
9, 46400, Note_on_c, 8, 60, 0
9, 46400, Note_on_c, 8, 57, 110
9, 46464, Note_on_c, 8, 57, 0
9, 46464, Note_on_c, 8, 64, 110
9, 46528, Note_on_c, 8, 64, 0
9, 46528, Note_on_c, 8, 61, 110
9, 46592, Note_on_c, 8, 61, 0
9, 46592, Note_on_c, 8, 56, 110
9, 46656, Note_on_c, 8, 56, 0
9, 46656, Note_on_c, 8, 64, 110
9, 46720, Note_on_c, 8, 64, 0
9, 46720, Note_on_c, 8, 60, 110
9, 46784, Note_on_c, 8, 60, 0
9, 46784, Note_on_c, 8, 57, 110
9, 46848, Note_on_c, 8, 57, 0
9, 46848, Note_on_c, 8, 64, 110
9, 46912, Note_on_c, 8, 64, 0
9, 46912, Note_on_c, 8, 61, 110
9, 46976, Note_on_c, 8, 61, 0
9, 46976, Note_on_c, 8, 56, 110
9, 47040, Note_on_c, 8, 56, 0
9, 47040, Note_on_c, 8, 64, 110
9, 47104, Note_on_c, 8, 64, 0
9, 47104, Note_on_c, 8, 60, 110
9, 47168, Note_on_c, 8, 60, 0
9, 47168, Note_on_c, 8, 57, 110
9, 47232, Note_on_c, 8, 57, 0
9, 47232, Note_on_c, 8, 64, 110
9, 47296, Note_on_c, 8, 64, 0
9, 47296, Note_on_c, 8, 61, 110
9, 47360, Note_on_c, 8, 61, 0
9, 47360, Note_on_c, 8, 56, 110
9, 47424, Note_on_c, 8, 56, 0
9, 47424, Note_on_c, 8, 64, 110
9, 47488, Note_on_c, 8, 64, 0
9, 47488, Note_on_c, 8, 60, 110
9, 47552, Note_on_c, 8, 60, 0
9, 47552, Note_on_c, 8, 57, 110
9, 47616, Note_on_c, 8, 57, 0
9, 47616, Note_on_c, 8, 64, 110
9, 47680, Note_on_c, 8, 64, 0
9, 47680, Note_on_c, 8, 61, 110
9, 47744, Note_on_c, 8, 61, 0
9, 47744, Note_on_c, 8, 56, 110
9, 47808, Note_on_c, 8, 56, 0
9, 47808, Control_c, 8, 7, 127
9, 47808, Note_on_c, 8, 64, 127
9, 47872, Note_on_c, 8, 64, 0
9, 47872, Note_on_c, 8, 60, 127
9, 47889, Control_c, 8, 7, 126
9, 47906, Control_c, 8, 7, 125
9, 47923, Control_c, 8, 7, 124
9, 47936, Note_on_c, 8, 60, 0
9, 47936, Note_on_c, 8, 57, 122
9, 47941, Control_c, 8, 7, 123
9, 47958, Control_c, 8, 7, 122
9, 47975, Control_c, 8, 7, 121
9, 47993, Control_c, 8, 7, 120
9, 48000, Note_on_c, 8, 57, 0
9, 48000, Note_on_c, 8, 64, 117
9, 48010, Control_c, 8, 7, 119
9, 48027, Control_c, 8, 7, 118
9, 48044, Control_c, 8, 7, 117
9, 48062, Control_c, 8, 7, 116
9, 48064, Note_on_c, 8, 64, 0
9, 48064, Note_on_c, 8, 61, 112
9, 48079, Control_c, 8, 7, 115
9, 48096, Control_c, 8, 7, 114
9, 48114, Control_c, 8, 7, 113
9, 48128, Note_on_c, 8, 61, 0
9, 48128, Note_on_c, 8, 56, 107
9, 48131, Control_c, 8, 7, 112
9, 48148, Control_c, 8, 7, 111
9, 48166, Control_c, 8, 7, 110
9, 48183, Control_c, 8, 7, 109
9, 48192, Note_on_c, 8, 56, 0
9, 48192, Note_on_c, 8, 64, 102
9, 48200, Control_c, 8, 7, 108
9, 48217, Control_c, 8, 7, 107
9, 48235, Control_c, 8, 7, 106
9, 48252, Control_c, 8, 7, 105
9, 48256, Note_on_c, 8, 64, 0
9, 48256, Note_on_c, 8, 60, 97
9, 48269, Control_c, 8, 7, 104
9, 48287, Control_c, 8, 7, 103
9, 48304, Control_c, 8, 7, 102
9, 48320, Note_on_c, 8, 60, 0
9, 48320, Note_on_c, 8, 57, 92
9, 48321, Control_c, 8, 7, 101
9, 48339, Control_c, 8, 7, 100
9, 48356, Control_c, 8, 7, 99
9, 48373, Control_c, 8, 7, 98
9, 48384, Note_on_c, 8, 57, 0
9, 48384, Note_on_c, 8, 64, 87
9, 48390, Control_c, 8, 7, 97
9, 48408, Control_c, 8, 7, 96
9, 48425, Control_c, 8, 7, 95
9, 48442, Control_c, 8, 7, 94
9, 48448, Note_on_c, 8, 64, 0
9, 48448, Note_on_c, 8, 61, 81
9, 48460, Control_c, 8, 7, 93
9, 48477, Control_c, 8, 7, 92
9, 48494, Control_c, 8, 7, 91
9, 48511, Control_c, 8, 7, 90
9, 48512, Note_on_c, 8, 61, 0
9, 48512, Control_c, 8, 7, 90
9, 48512, Note_on_c, 8, 56, 75
9, 48576, Note_on_c, 8, 56, 0
9, 48576, Control_c, 8, 7, 127
9, 48576, Note_on_c, 8, 63, 127
9, 48640, Note_on_c, 8, 63, 0
9, 48640, Note_on_c, 8, 59, 127
9, 48704, Note_on_c, 8, 59, 0
9, 48704, Note_on_c, 8, 56, 127
9, 48768, Note_on_c, 8, 56, 0
9, 48768, Note_on_c, 8, 64, 127
9, 48832, Note_on_c, 8, 64, 0
9, 48832, Note_on_c, 8, 58, 127
9, 48896, Note_on_c, 8, 58, 0
9, 48896, Note_on_c, 8, 56, 127
9, 48960, Note_on_c, 8, 56, 0
9, 48960, Note_on_c, 8, 63, 127
9, 49024, Note_on_c, 8, 63, 0
9, 49024, Note_on_c, 8, 59, 127
9, 49088, Note_on_c, 8, 59, 0
9, 49088, Note_on_c, 8, 56, 127
9, 49152, Note_on_c, 8, 56, 0
9, 49152, Note_on_c, 8, 62, 127
9, 49216, Note_on_c, 8, 62, 0
9, 49216, Note_on_c, 8, 58, 127
9, 49280, Note_on_c, 8, 58, 0
9, 49280, Note_on_c, 8, 56, 127
9, 49344, Note_on_c, 8, 56, 0
9, 49344, Note_on_c, 8, 63, 127
9, 49408, Note_on_c, 8, 63, 0
9, 49408, Note_on_c, 8, 59, 127
9, 49472, Note_on_c, 8, 59, 0
9, 49472, Note_on_c, 8, 56, 127
9, 49536, Note_on_c, 8, 56, 0
9, 49536, Note_on_c, 8, 64, 127
9, 49600, Note_on_c, 8, 64, 0
9, 49600, Note_on_c, 8, 58, 127
9, 49664, Note_on_c, 8, 58, 0
9, 49664, Note_on_c, 8, 56, 127
9, 49728, Note_on_c, 8, 56, 0
9, 49728, Note_on_c, 8, 63, 127
9, 49792, Note_on_c, 8, 63, 0
9, 49792, Note_on_c, 8, 59, 127
9, 49856, Note_on_c, 8, 59, 0
9, 49856, Note_on_c, 8, 56, 127
9, 49920, Note_on_c, 8, 56, 0
9, 49920, Note_on_c, 8, 62, 127
9, 49984, Note_on_c, 8, 62, 0
9, 49984, Note_on_c, 8, 58, 127
9, 50048, Note_on_c, 8, 58, 0
9, 50048, Note_on_c, 8, 56, 127
9, 50112, Note_on_c, 8, 56, 0
9, 50112, Note_on_c, 8, 63, 127
9, 50176, Note_on_c, 8, 63, 0
9, 50176, Note_on_c, 8, 59, 127
9, 50240, Note_on_c, 8, 59, 0
9, 50240, Note_on_c, 8, 56, 127
9, 50304, Note_on_c, 8, 56, 0
9, 50304, Note_on_c, 8, 64, 127
9, 50368, Note_on_c, 8, 64, 0
9, 50368, Note_on_c, 8, 58, 127
9, 50432, Note_on_c, 8, 58, 0
9, 50432, Note_on_c, 8, 56, 127
9, 50496, Note_on_c, 8, 56, 0
9, 50496, Note_on_c, 8, 63, 127
9, 50560, Note_on_c, 8, 63, 0
9, 50560, Note_on_c, 8, 59, 127
9, 50624, Note_on_c, 8, 59, 0
9, 50624, Note_on_c, 8, 56, 127
9, 50688, Note_on_c, 8, 56, 0
9, 50688, Note_on_c, 8, 62, 127
9, 50752, Note_on_c, 8, 62, 0
9, 50752, Note_on_c, 8, 58, 127
9, 50816, Note_on_c, 8, 58, 0
9, 50816, Note_on_c, 8, 56, 127
9, 50880, Note_on_c, 8, 56, 0
9, 50880, Note_on_c, 8, 63, 127
9, 50899, Control_c, 8, 7, 126
9, 50918, Control_c, 8, 7, 125
9, 50937, Control_c, 8, 7, 124
9, 50944, Note_on_c, 8, 63, 0
9, 50944, Note_on_c, 8, 59, 123
9, 50956, Control_c, 8, 7, 123
9, 50975, Control_c, 8, 7, 122
9, 50994, Control_c, 8, 7, 121
9, 51008, Note_on_c, 8, 59, 0
9, 51008, Note_on_c, 8, 56, 119
9, 51013, Control_c, 8, 7, 120
9, 51032, Control_c, 8, 7, 119
9, 51051, Control_c, 8, 7, 118
9, 51070, Control_c, 8, 7, 117
9, 51072, Note_on_c, 8, 56, 0
9, 51072, Note_on_c, 8, 64, 115
9, 51089, Control_c, 8, 7, 116
9, 51108, Control_c, 8, 7, 115
9, 51127, Control_c, 8, 7, 114
9, 51136, Note_on_c, 8, 64, 0
9, 51136, Note_on_c, 8, 58, 110
9, 51146, Control_c, 8, 7, 113
9, 51165, Control_c, 8, 7, 112
9, 51184, Control_c, 8, 7, 111
9, 51200, Note_on_c, 8, 58, 0
9, 51200, Note_on_c, 8, 56, 105
9, 51203, Control_c, 8, 7, 110
9, 51222, Control_c, 8, 7, 109
9, 51241, Control_c, 8, 7, 108
9, 51260, Control_c, 8, 7, 107
9, 51264, Note_on_c, 8, 56, 0
9, 51264, Note_on_c, 8, 63, 100
9, 51279, Control_c, 8, 7, 106
9, 51298, Control_c, 8, 7, 105
9, 51317, Control_c, 8, 7, 104
9, 51328, Note_on_c, 8, 63, 0
9, 51328, Note_on_c, 8, 59, 95
9, 51336, Control_c, 8, 7, 103
9, 51355, Control_c, 8, 7, 102
9, 51374, Control_c, 8, 7, 101
9, 51392, Note_on_c, 8, 59, 0
9, 51392, Note_on_c, 8, 56, 90
9, 51393, Control_c, 8, 7, 100
9, 51412, Control_c, 8, 7, 99
9, 51431, Control_c, 8, 7, 98
9, 51450, Control_c, 8, 7, 97
9, 51456, Note_on_c, 8, 56, 0
9, 51456, Note_on_c, 8, 62, 85
9, 51469, Control_c, 8, 7, 96
9, 51488, Control_c, 8, 7, 95
9, 51507, Control_c, 8, 7, 94
9, 51520, Note_on_c, 8, 62, 0
9, 51520, Note_on_c, 8, 58, 80
9, 51526, Control_c, 8, 7, 93
9, 51545, Control_c, 8, 7, 92
9, 51564, Control_c, 8, 7, 91
9, 51584, Note_on_c, 8, 58, 0
9, 51584, Control_c, 8, 7, 90
9, 51584, Note_on_c, 8, 56, 75
9, 51648, Note_on_c, 8, 56, 0
9, 51648, Control_c, 8, 7, 127
9, 51648, Note_on_c, 8, 62, 127
9, 51712, Note_on_c, 8, 62, 0
9, 51712, Note_on_c, 8, 58, 127
9, 51776, Note_on_c, 8, 58, 0
9, 51776, Note_on_c, 8, 55, 127
9, 51840, Note_on_c, 8, 55, 0
9, 51840, Note_on_c, 8, 62, 127
9, 51904, Note_on_c, 8, 62, 0
9, 51904, Note_on_c, 8, 59, 127
9, 51968, Note_on_c, 8, 59, 0
9, 51968, Note_on_c, 8, 54, 127
9, 52032, Note_on_c, 8, 54, 0
9, 52032, Note_on_c, 8, 62, 127
9, 52096, Note_on_c, 8, 62, 0
9, 52096, Note_on_c, 8, 58, 127
9, 52160, Note_on_c, 8, 58, 0
9, 52160, Note_on_c, 8, 55, 127
9, 52224, Note_on_c, 8, 55, 0
9, 52224, Note_on_c, 8, 62, 127
9, 52288, Note_on_c, 8, 62, 0
9, 52288, Note_on_c, 8, 59, 127
9, 52352, Note_on_c, 8, 59, 0
9, 52352, Note_on_c, 8, 54, 127
9, 52416, Note_on_c, 8, 54, 0
9, 52416, Note_on_c, 8, 62, 127
9, 52480, Note_on_c, 8, 62, 0
9, 52480, Note_on_c, 8, 58, 127
9, 52544, Note_on_c, 8, 58, 0
9, 52544, Note_on_c, 8, 55, 127
9, 52608, Note_on_c, 8, 55, 0
9, 52608, Note_on_c, 8, 62, 127
9, 52672, Note_on_c, 8, 62, 0
9, 52672, Note_on_c, 8, 59, 127
9, 52736, Note_on_c, 8, 59, 0
9, 52736, Note_on_c, 8, 54, 127
9, 52800, Note_on_c, 8, 54, 0
9, 52800, Note_on_c, 8, 62, 127
9, 52864, Note_on_c, 8, 62, 0
9, 52864, Note_on_c, 8, 58, 127
9, 52928, Note_on_c, 8, 58, 0
9, 52928, Note_on_c, 8, 55, 127
9, 52992, Note_on_c, 8, 55, 0
9, 52992, Note_on_c, 8, 62, 127
9, 53056, Note_on_c, 8, 62, 0
9, 53056, Note_on_c, 8, 59, 127
9, 53120, Note_on_c, 8, 59, 0
9, 53120, Note_on_c, 8, 54, 127
9, 53184, Note_on_c, 8, 54, 0
9, 53184, Note_on_c, 8, 62, 127
9, 53248, Note_on_c, 8, 62, 0
9, 53248, Note_on_c, 8, 58, 127
9, 53312, Note_on_c, 8, 58, 0
9, 53312, Note_on_c, 8, 55, 127
9, 53376, Note_on_c, 8, 55, 0
9, 53376, Note_on_c, 8, 62, 127
9, 53440, Note_on_c, 8, 62, 0
9, 53440, Note_on_c, 8, 59, 127
9, 53504, Note_on_c, 8, 59, 0
9, 53504, Note_on_c, 8, 54, 127
9, 53568, Note_on_c, 8, 54, 0
9, 53568, Note_on_c, 8, 62, 127
9, 53632, Note_on_c, 8, 62, 0
9, 53632, Note_on_c, 8, 58, 127
9, 53696, Note_on_c, 8, 58, 0
9, 53696, Note_on_c, 8, 55, 127
9, 53760, Note_on_c, 8, 55, 0
9, 53760, Note_on_c, 8, 62, 127
9, 53824, Note_on_c, 8, 62, 0
9, 53824, Note_on_c, 8, 59, 127
9, 53888, Note_on_c, 8, 59, 0
9, 53888, Note_on_c, 8, 54, 127
9, 53952, Note_on_c, 8, 54, 0
9, 53952, Note_on_c, 8, 62, 127
9, 53971, Control_c, 8, 7, 126
9, 53990, Control_c, 8, 7, 125
9, 54009, Control_c, 8, 7, 124
9, 54016, Note_on_c, 8, 62, 0
9, 54016, Note_on_c, 8, 58, 123
9, 54028, Control_c, 8, 7, 123
9, 54047, Control_c, 8, 7, 122
9, 54066, Control_c, 8, 7, 121
9, 54080, Note_on_c, 8, 58, 0
9, 54080, Note_on_c, 8, 55, 119
9, 54085, Control_c, 8, 7, 120
9, 54104, Control_c, 8, 7, 119
9, 54123, Control_c, 8, 7, 118
9, 54142, Control_c, 8, 7, 117
9, 54144, Note_on_c, 8, 55, 0
9, 54144, Note_on_c, 8, 62, 115
9, 54161, Control_c, 8, 7, 116
9, 54180, Control_c, 8, 7, 115
9, 54199, Control_c, 8, 7, 114
9, 54208, Note_on_c, 8, 62, 0
9, 54208, Note_on_c, 8, 59, 110
9, 54218, Control_c, 8, 7, 113
9, 54237, Control_c, 8, 7, 112
9, 54256, Control_c, 8, 7, 111
9, 54272, Note_on_c, 8, 59, 0
9, 54272, Note_on_c, 8, 54, 105
9, 54275, Control_c, 8, 7, 110
9, 54294, Control_c, 8, 7, 109
9, 54313, Control_c, 8, 7, 108
9, 54332, Control_c, 8, 7, 107
9, 54336, Note_on_c, 8, 54, 0
9, 54336, Note_on_c, 8, 62, 100
9, 54351, Control_c, 8, 7, 106
9, 54370, Control_c, 8, 7, 105
9, 54389, Control_c, 8, 7, 104
9, 54400, Note_on_c, 8, 62, 0
9, 54400, Note_on_c, 8, 58, 95
9, 54408, Control_c, 8, 7, 103
9, 54427, Control_c, 8, 7, 102
9, 54446, Control_c, 8, 7, 101
9, 54464, Note_on_c, 8, 58, 0
9, 54464, Note_on_c, 8, 55, 90
9, 54465, Control_c, 8, 7, 100
9, 54484, Control_c, 8, 7, 99
9, 54503, Control_c, 8, 7, 98
9, 54522, Control_c, 8, 7, 97
9, 54528, Note_on_c, 8, 55, 0
9, 54528, Note_on_c, 8, 62, 85
9, 54541, Control_c, 8, 7, 96
9, 54560, Control_c, 8, 7, 95
9, 54579, Control_c, 8, 7, 94
9, 54592, Note_on_c, 8, 62, 0
9, 54592, Note_on_c, 8, 59, 80
9, 54598, Control_c, 8, 7, 93
9, 54617, Control_c, 8, 7, 92
9, 54636, Control_c, 8, 7, 91
9, 54656, Note_on_c, 8, 59, 0
9, 54656, Control_c, 8, 7, 90
9, 54656, Note_on_c, 8, 54, 75
9, 54720, Note_on_c, 8, 54, 0
9, 54720, Control_c, 8, 7, 127
9, 54720, Note_on_c, 8, 61, 127
9, 54784, Note_on_c, 8, 61, 0
9, 54784, Note_on_c, 8, 57, 127
9, 54848, Note_on_c, 8, 57, 0
9, 54848, Note_on_c, 8, 54, 127
9, 54912, Note_on_c, 8, 54, 0
9, 54912, Note_on_c, 8, 62, 127
9, 54976, Note_on_c, 8, 62, 0
9, 54976, Note_on_c, 8, 56, 127
9, 55040, Note_on_c, 8, 56, 0
9, 55040, Note_on_c, 8, 54, 127
9, 55104, Note_on_c, 8, 54, 0
9, 55104, Note_on_c, 8, 61, 127
9, 55168, Note_on_c, 8, 61, 0
9, 55168, Note_on_c, 8, 57, 127
9, 55232, Note_on_c, 8, 57, 0
9, 55232, Note_on_c, 8, 54, 127
9, 55296, Note_on_c, 8, 54, 0
9, 55296, Note_on_c, 8, 60, 127
9, 55360, Note_on_c, 8, 60, 0
9, 55360, Note_on_c, 8, 56, 127
9, 55424, Note_on_c, 8, 56, 0
9, 55424, Note_on_c, 8, 54, 127
9, 55488, Note_on_c, 8, 54, 0
9, 55488, Note_on_c, 8, 61, 127
9, 55552, Note_on_c, 8, 61, 0
9, 55552, Note_on_c, 8, 57, 127
9, 55616, Note_on_c, 8, 57, 0
9, 55616, Note_on_c, 8, 54, 127
9, 55680, Note_on_c, 8, 54, 0
9, 55680, Note_on_c, 8, 62, 127
9, 55744, Note_on_c, 8, 62, 0
9, 55744, Note_on_c, 8, 56, 127
9, 55808, Note_on_c, 8, 56, 0
9, 55808, Note_on_c, 8, 54, 127
9, 55872, Note_on_c, 8, 54, 0
9, 55872, Note_on_c, 8, 61, 127
9, 55936, Note_on_c, 8, 61, 0
9, 55936, Note_on_c, 8, 57, 127
9, 56000, Note_on_c, 8, 57, 0
9, 56000, Note_on_c, 8, 54, 127
9, 56064, Note_on_c, 8, 54, 0
9, 56064, Note_on_c, 8, 60, 127
9, 56128, Note_on_c, 8, 60, 0
9, 56128, Note_on_c, 8, 56, 127
9, 56192, Note_on_c, 8, 56, 0
9, 56192, Note_on_c, 8, 54, 127
9, 56256, Note_on_c, 8, 54, 0
9, 56256, Note_on_c, 8, 61, 127
9, 56320, Note_on_c, 8, 61, 0
9, 56320, Note_on_c, 8, 57, 127
9, 56384, Note_on_c, 8, 57, 0
9, 56384, Note_on_c, 8, 54, 127
9, 56448, Note_on_c, 8, 54, 0
9, 56448, Note_on_c, 8, 62, 127
9, 56512, Note_on_c, 8, 62, 0
9, 56512, Note_on_c, 8, 56, 127
9, 56576, Note_on_c, 8, 56, 0
9, 56576, Note_on_c, 8, 54, 127
9, 56640, Note_on_c, 8, 54, 0
9, 56640, Note_on_c, 8, 61, 127
9, 56704, Note_on_c, 8, 61, 0
9, 56704, Note_on_c, 8, 57, 127
9, 56768, Note_on_c, 8, 57, 0
9, 56768, Note_on_c, 8, 54, 127
9, 56832, Note_on_c, 8, 54, 0
9, 56832, Note_on_c, 8, 60, 127
9, 56896, Note_on_c, 8, 60, 0
9, 56896, Note_on_c, 8, 56, 127
9, 56960, Note_on_c, 8, 56, 0
9, 56960, Note_on_c, 8, 54, 127
9, 57024, Note_on_c, 8, 54, 0
9, 57024, Note_on_c, 8, 61, 127
9, 57043, Control_c, 8, 7, 126
9, 57062, Control_c, 8, 7, 125
9, 57081, Control_c, 8, 7, 124
9, 57088, Note_on_c, 8, 61, 0
9, 57088, Note_on_c, 8, 57, 123
9, 57100, Control_c, 8, 7, 123
9, 57119, Control_c, 8, 7, 122
9, 57138, Control_c, 8, 7, 121
9, 57152, Note_on_c, 8, 57, 0
9, 57152, Note_on_c, 8, 54, 119
9, 57157, Control_c, 8, 7, 120
9, 57176, Control_c, 8, 7, 119
9, 57195, Control_c, 8, 7, 118
9, 57214, Control_c, 8, 7, 117
9, 57216, Note_on_c, 8, 54, 0
9, 57216, Note_on_c, 8, 62, 115
9, 57233, Control_c, 8, 7, 116
9, 57252, Control_c, 8, 7, 115
9, 57271, Control_c, 8, 7, 114
9, 57280, Note_on_c, 8, 62, 0
9, 57280, Note_on_c, 8, 56, 110
9, 57290, Control_c, 8, 7, 113
9, 57309, Control_c, 8, 7, 112
9, 57328, Control_c, 8, 7, 111
9, 57344, Note_on_c, 8, 56, 0
9, 57344, Note_on_c, 8, 54, 105
9, 57347, Control_c, 8, 7, 110
9, 57366, Control_c, 8, 7, 109
9, 57385, Control_c, 8, 7, 108
9, 57404, Control_c, 8, 7, 107
9, 57408, Note_on_c, 8, 54, 0
9, 57408, Note_on_c, 8, 61, 100
9, 57423, Control_c, 8, 7, 106
9, 57442, Control_c, 8, 7, 105
9, 57461, Control_c, 8, 7, 104
9, 57472, Note_on_c, 8, 61, 0
9, 57472, Note_on_c, 8, 57, 95
9, 57480, Control_c, 8, 7, 103
9, 57499, Control_c, 8, 7, 102
9, 57518, Control_c, 8, 7, 101
9, 57536, Note_on_c, 8, 57, 0
9, 57536, Note_on_c, 8, 54, 90
9, 57537, Control_c, 8, 7, 100
9, 57556, Control_c, 8, 7, 99
9, 57575, Control_c, 8, 7, 98
9, 57594, Control_c, 8, 7, 97
9, 57600, Note_on_c, 8, 54, 0
9, 57600, Note_on_c, 8, 60, 85
9, 57613, Control_c, 8, 7, 96
9, 57632, Control_c, 8, 7, 95
9, 57651, Control_c, 8, 7, 94
9, 57664, Note_on_c, 8, 60, 0
9, 57664, Note_on_c, 8, 56, 80
9, 57670, Control_c, 8, 7, 93
9, 57689, Control_c, 8, 7, 92
9, 57708, Control_c, 8, 7, 91
9, 57728, Note_on_c, 8, 56, 0
9, 57728, Control_c, 8, 7, 90
9, 57728, Note_on_c, 8, 54, 75
9, 57792, Note_on_c, 8, 54, 0
9, 57792, End_track
10, 0, Start_track
10, 0, MIDI_port, 0
10, 0, Title_t, "Staff-8"
10, 0, Control_c, 9, 7, 127
10, 0, Control_c, 9, 10, 64
10, 33216, Note_on_c, 9, 54, 110
10, 33376, Note_on_c, 9, 54, 0
10, 34560, Note_on_c, 9, 54, 110
10, 34720, Note_on_c, 9, 54, 0
10, 34752, Note_on_c, 9, 54, 110
10, 34912, Note_on_c, 9, 54, 0
10, 36096, Note_on_c, 9, 54, 110
10, 36256, Note_on_c, 9, 54, 0
10, 36288, Note_on_c, 9, 54, 110
10, 36448, Note_on_c, 9, 54, 0
10, 37632, Note_on_c, 9, 54, 110
10, 37792, Note_on_c, 9, 54, 0
10, 37824, Note_on_c, 9, 54, 110
10, 37984, Note_on_c, 9, 54, 0
10, 39168, Note_on_c, 9, 54, 110
10, 39328, Note_on_c, 9, 54, 0
10, 39360, Note_on_c, 9, 54, 110
10, 39520, Note_on_c, 9, 54, 0
10, 40704, Note_on_c, 9, 54, 110
10, 40864, Note_on_c, 9, 54, 0
10, 40896, Note_on_c, 9, 54, 110
10, 41056, Note_on_c, 9, 54, 0
10, 42240, Note_on_c, 9, 54, 110
10, 42400, Note_on_c, 9, 54, 0
10, 42432, Note_on_c, 9, 54, 110
10, 42592, Note_on_c, 9, 54, 0
10, 43776, Note_on_c, 9, 54, 110
10, 43936, Note_on_c, 9, 54, 0
10, 43968, Note_on_c, 9, 54, 110
10, 44128, Note_on_c, 9, 54, 0
10, 44128, End_track
11, 0, Start_track
11, 0, MIDI_port, 0
11, 0, Title_t, "Staff-9"
11, 0, Control_c, 10, 7, 127
11, 0, Control_c, 10, 10, 114
11, 0, Program_c, 10, 60
11, 21696, Note_on_c, 10, 67, 110
11, 22080, Note_on_c, 10, 67, 0
11, 22080, Note_on_c, 10, 59, 110
11, 22464, Note_on_c, 10, 59, 0
11, 22464, Note_on_c, 10, 71, 110
11, 23952, Note_on_c, 10, 71, 0
11, 24768, Note_on_c, 10, 66, 110
11, 25152, Note_on_c, 10, 66, 0
11, 25152, Note_on_c, 10, 58, 110
11, 25536, Note_on_c, 10, 58, 0
11, 25536, Note_on_c, 10, 70, 110
11, 27024, Note_on_c, 10, 70, 0
11, 27840, Note_on_c, 10, 63, 110
11, 28224, Note_on_c, 10, 63, 0
11, 28224, Note_on_c, 10, 55, 110
11, 28608, Note_on_c, 10, 55, 0
11, 28608, Note_on_c, 10, 67, 110
11, 30096, Note_on_c, 10, 67, 0
11, 30912, Note_on_c, 10, 62, 110
11, 31296, Note_on_c, 10, 62, 0
11, 31296, Note_on_c, 10, 53, 110
11, 31680, Note_on_c, 10, 53, 0
11, 31680, Note_on_c, 10, 65, 110
11, 33168, Note_on_c, 10, 65, 0
11, 33984, Note_on_c, 10, 67, 110
11, 34368, Note_on_c, 10, 67, 0
11, 34368, Note_on_c, 10, 59, 110
11, 34752, Note_on_c, 10, 59, 0
11, 34752, Note_on_c, 10, 71, 110
11, 36240, Note_on_c, 10, 71, 0
11, 37056, Note_on_c, 10, 66, 110
11, 37440, Note_on_c, 10, 66, 0
11, 37440, Note_on_c, 10, 58, 110
11, 37824, Note_on_c, 10, 58, 0
11, 37824, Note_on_c, 10, 70, 110
11, 39312, Note_on_c, 10, 70, 0
11, 40128, Note_on_c, 10, 63, 110
11, 40512, Note_on_c, 10, 63, 0
11, 40512, Note_on_c, 10, 55, 110
11, 40896, Note_on_c, 10, 55, 0
11, 40896, Note_on_c, 10, 67, 110
11, 42384, Note_on_c, 10, 67, 0
11, 43200, Note_on_c, 10, 62, 110
11, 43584, Note_on_c, 10, 62, 0
11, 43584, Note_on_c, 10, 53, 110
11, 43968, Note_on_c, 10, 53, 0
11, 43968, Note_on_c, 10, 65, 110
11, 45456, Note_on_c, 10, 65, 0
11, 45456, End_track
12, 0, Start_track
12, 0, MIDI_port, 0
12, 0, Title_t, "Staff-10"
12, 0, Control_c, 11, 7, 127
12, 0, Control_c, 11, 10, 94
12, 0, Program_c, 11, 14
12, 22464, Note_on_c, 11, 79, 110
12, 22624, Note_on_c, 11, 79, 0
12, 22656, Note_on_c, 11, 71, 110
12, 22816, Note_on_c, 11, 71, 0
12, 22848, Note_on_c, 11, 83, 110
12, 23184, Note_on_c, 11, 83, 0
12, 25536, Note_on_c, 11, 78, 110
12, 25696, Note_on_c, 11, 78, 0
12, 25728, Note_on_c, 11, 70, 110
12, 25888, Note_on_c, 11, 70, 0
12, 25920, Note_on_c, 11, 82, 110
12, 26256, Note_on_c, 11, 82, 0
12, 28608, Note_on_c, 11, 75, 110
12, 28768, Note_on_c, 11, 75, 0
12, 28800, Note_on_c, 11, 67, 110
12, 28960, Note_on_c, 11, 67, 0
12, 28992, Note_on_c, 11, 79, 110
12, 29328, Note_on_c, 11, 79, 0
12, 31680, Note_on_c, 11, 74, 110
12, 31840, Note_on_c, 11, 74, 0
12, 31872, Note_on_c, 11, 65, 110
12, 32032, Note_on_c, 11, 65, 0
12, 32064, Note_on_c, 11, 77, 110
12, 32400, Note_on_c, 11, 77, 0
12, 34752, Note_on_c, 11, 79, 110
12, 34912, Note_on_c, 11, 79, 0
12, 34944, Note_on_c, 11, 71, 110
12, 35104, Note_on_c, 11, 71, 0
12, 35136, Note_on_c, 11, 83, 110
12, 35472, Note_on_c, 11, 83, 0
12, 37824, Note_on_c, 11, 78, 110
12, 37984, Note_on_c, 11, 78, 0
12, 38016, Note_on_c, 11, 70, 110
12, 38176, Note_on_c, 11, 70, 0
12, 38208, Note_on_c, 11, 82, 110
12, 38544, Note_on_c, 11, 82, 0
12, 40896, Note_on_c, 11, 75, 110
12, 41056, Note_on_c, 11, 75, 0
12, 41088, Note_on_c, 11, 67, 110
12, 41248, Note_on_c, 11, 67, 0
12, 41280, Note_on_c, 11, 79, 110
12, 41616, Note_on_c, 11, 79, 0
12, 43968, Note_on_c, 11, 74, 110
12, 44128, Note_on_c, 11, 74, 0
12, 44160, Note_on_c, 11, 65, 110
12, 44320, Note_on_c, 11, 65, 0
12, 44352, Note_on_c, 11, 77, 110
12, 44688, Note_on_c, 11, 77, 0
12, 44688, End_track
13, 0, Start_track
13, 0, MIDI_port, 0
13, 0, Title_t, "Staff-11"
13, 0, Control_c, 12, 7, 127
13, 0, Control_c, 12, 10, 84
13, 0, Program_c, 12, 47
13, 32832, Control_c, 12, 7, 40
13, 32832, Note_on_c, 12, 47, 45
13, 32880, Note_on_c, 12, 47, 0
13, 32880, Note_on_c, 12, 47, 45
13, 32883, Control_c, 12, 7, 41
13, 32887, Control_c, 12, 7, 42
13, 32891, Control_c, 12, 7, 43
13, 32895, Control_c, 12, 7, 44
13, 32899, Control_c, 12, 7, 45
13, 32903, Control_c, 12, 7, 46
13, 32907, Control_c, 12, 7, 47
13, 32910, Control_c, 12, 7, 48
13, 32914, Control_c, 12, 7, 49
13, 32918, Control_c, 12, 7, 50
13, 32922, Control_c, 12, 7, 51
13, 32926, Control_c, 12, 7, 52
13, 32928, Note_on_c, 12, 47, 0
13, 32928, Note_on_c, 12, 47, 56
13, 32930, Control_c, 12, 7, 53
13, 32934, Control_c, 12, 7, 54
13, 32937, Control_c, 12, 7, 55
13, 32941, Control_c, 12, 7, 56
13, 32945, Control_c, 12, 7, 57
13, 32949, Control_c, 12, 7, 58
13, 32953, Control_c, 12, 7, 59
13, 32957, Control_c, 12, 7, 60
13, 32961, Control_c, 12, 7, 61
13, 32964, Control_c, 12, 7, 62
13, 32968, Control_c, 12, 7, 63
13, 32972, Control_c, 12, 7, 64
13, 32976, Note_on_c, 12, 47, 0
13, 32976, Control_c, 12, 7, 65
13, 32976, Note_on_c, 12, 47, 67
13, 32980, Control_c, 12, 7, 66
13, 32984, Control_c, 12, 7, 67
13, 32988, Control_c, 12, 7, 68
13, 32991, Control_c, 12, 7, 69
13, 32995, Control_c, 12, 7, 70
13, 32999, Control_c, 12, 7, 71
13, 33003, Control_c, 12, 7, 72
13, 33007, Control_c, 12, 7, 73
13, 33011, Control_c, 12, 7, 74
13, 33015, Control_c, 12, 7, 75
13, 33019, Control_c, 12, 7, 76
13, 33022, Control_c, 12, 7, 77
13, 33024, Note_on_c, 12, 47, 0
13, 33024, Note_on_c, 12, 47, 79
13, 33026, Control_c, 12, 7, 78
13, 33030, Control_c, 12, 7, 79
13, 33034, Control_c, 12, 7, 80
13, 33038, Control_c, 12, 7, 81
13, 33042, Control_c, 12, 7, 82
13, 33046, Control_c, 12, 7, 83
13, 33049, Control_c, 12, 7, 84
13, 33053, Control_c, 12, 7, 85
13, 33057, Control_c, 12, 7, 86
13, 33061, Control_c, 12, 7, 87
13, 33065, Control_c, 12, 7, 88
13, 33069, Control_c, 12, 7, 89
13, 33072, Note_on_c, 12, 47, 0
13, 33072, Note_on_c, 12, 47, 91
13, 33073, Control_c, 12, 7, 90
13, 33076, Control_c, 12, 7, 91
13, 33080, Control_c, 12, 7, 92
13, 33084, Control_c, 12, 7, 93
13, 33088, Control_c, 12, 7, 94
13, 33092, Control_c, 12, 7, 95
13, 33096, Control_c, 12, 7, 96
13, 33100, Control_c, 12, 7, 97
13, 33103, Control_c, 12, 7, 98
13, 33107, Control_c, 12, 7, 99
13, 33111, Control_c, 12, 7, 100
13, 33115, Control_c, 12, 7, 101
13, 33119, Control_c, 12, 7, 102
13, 33120, Note_on_c, 12, 47, 0
13, 33120, Note_on_c, 12, 47, 103
13, 33123, Control_c, 12, 7, 103
13, 33127, Control_c, 12, 7, 104
13, 33131, Control_c, 12, 7, 105
13, 33134, Control_c, 12, 7, 106
13, 33138, Control_c, 12, 7, 107
13, 33142, Control_c, 12, 7, 108
13, 33146, Control_c, 12, 7, 109
13, 33150, Control_c, 12, 7, 110
13, 33154, Control_c, 12, 7, 111
13, 33158, Control_c, 12, 7, 112
13, 33161, Control_c, 12, 7, 113
13, 33165, Control_c, 12, 7, 114
13, 33168, Note_on_c, 12, 47, 0
13, 33168, Note_on_c, 12, 47, 115
13, 33169, Control_c, 12, 7, 115
13, 33173, Control_c, 12, 7, 116
13, 33177, Control_c, 12, 7, 117
13, 33181, Control_c, 12, 7, 118
13, 33185, Control_c, 12, 7, 119
13, 33188, Control_c, 12, 7, 120
13, 33192, Control_c, 12, 7, 121
13, 33196, Control_c, 12, 7, 122
13, 33200, Control_c, 12, 7, 123
13, 33204, Control_c, 12, 7, 124
13, 33208, Control_c, 12, 7, 125
13, 33212, Control_c, 12, 7, 126
13, 33215, Control_c, 12, 7, 127
13, 33216, Note_on_c, 12, 47, 0
13, 33216, Control_c, 12, 7, 127
13, 33216, Note_on_c, 12, 48, 127
13, 33376, Note_on_c, 12, 48, 0
13, 33408, Note_on_c, 12, 43, 127
13, 33568, Note_on_c, 12, 43, 0
13, 33984, Note_on_c, 12, 48, 127
13, 34144, Note_on_c, 12, 48, 0
13, 34176, Note_on_c, 12, 43, 127
13, 34336, Note_on_c, 12, 43, 0
13, 34752, Note_on_c, 12, 48, 127
13, 34912, Note_on_c, 12, 48, 0
13, 34944, Note_on_c, 12, 43, 127
13, 35104, Note_on_c, 12, 43, 0
13, 35520, Note_on_c, 12, 48, 127
13, 35680, Note_on_c, 12, 48, 0
13, 35712, Note_on_c, 12, 43, 127
13, 35872, Note_on_c, 12, 43, 0
13, 35904, Control_c, 12, 7, 40
13, 35904, Note_on_c, 12, 48, 45
13, 35952, Note_on_c, 12, 48, 0
13, 35952, Note_on_c, 12, 48, 45
13, 35955, Control_c, 12, 7, 41
13, 35959, Control_c, 12, 7, 42
13, 35963, Control_c, 12, 7, 43
13, 35967, Control_c, 12, 7, 44
13, 35971, Control_c, 12, 7, 45
13, 35975, Control_c, 12, 7, 46
13, 35979, Control_c, 12, 7, 47
13, 35982, Control_c, 12, 7, 48
13, 35986, Control_c, 12, 7, 49
13, 35990, Control_c, 12, 7, 50
13, 35994, Control_c, 12, 7, 51
13, 35998, Control_c, 12, 7, 52
13, 36000, Note_on_c, 12, 48, 0
13, 36000, Note_on_c, 12, 48, 56
13, 36002, Control_c, 12, 7, 53
13, 36006, Control_c, 12, 7, 54
13, 36009, Control_c, 12, 7, 55
13, 36013, Control_c, 12, 7, 56
13, 36017, Control_c, 12, 7, 57
13, 36021, Control_c, 12, 7, 58
13, 36025, Control_c, 12, 7, 59
13, 36029, Control_c, 12, 7, 60
13, 36033, Control_c, 12, 7, 61
13, 36036, Control_c, 12, 7, 62
13, 36040, Control_c, 12, 7, 63
13, 36044, Control_c, 12, 7, 64
13, 36048, Note_on_c, 12, 48, 0
13, 36048, Control_c, 12, 7, 65
13, 36048, Note_on_c, 12, 48, 67
13, 36052, Control_c, 12, 7, 66
13, 36056, Control_c, 12, 7, 67
13, 36060, Control_c, 12, 7, 68
13, 36063, Control_c, 12, 7, 69
13, 36067, Control_c, 12, 7, 70
13, 36071, Control_c, 12, 7, 71
13, 36075, Control_c, 12, 7, 72
13, 36079, Control_c, 12, 7, 73
13, 36083, Control_c, 12, 7, 74
13, 36087, Control_c, 12, 7, 75
13, 36091, Control_c, 12, 7, 76
13, 36094, Control_c, 12, 7, 77
13, 36096, Note_on_c, 12, 48, 0
13, 36096, Note_on_c, 12, 48, 79
13, 36098, Control_c, 12, 7, 78
13, 36102, Control_c, 12, 7, 79
13, 36106, Control_c, 12, 7, 80
13, 36110, Control_c, 12, 7, 81
13, 36114, Control_c, 12, 7, 82
13, 36118, Control_c, 12, 7, 83
13, 36121, Control_c, 12, 7, 84
13, 36125, Control_c, 12, 7, 85
13, 36129, Control_c, 12, 7, 86
13, 36133, Control_c, 12, 7, 87
13, 36137, Control_c, 12, 7, 88
13, 36141, Control_c, 12, 7, 89
13, 36144, Note_on_c, 12, 48, 0
13, 36144, Note_on_c, 12, 48, 91
13, 36145, Control_c, 12, 7, 90
13, 36148, Control_c, 12, 7, 91
13, 36152, Control_c, 12, 7, 92
13, 36156, Control_c, 12, 7, 93
13, 36160, Control_c, 12, 7, 94
13, 36164, Control_c, 12, 7, 95
13, 36168, Control_c, 12, 7, 96
13, 36172, Control_c, 12, 7, 97
13, 36175, Control_c, 12, 7, 98
13, 36179, Control_c, 12, 7, 99
13, 36183, Control_c, 12, 7, 100
13, 36187, Control_c, 12, 7, 101
13, 36191, Control_c, 12, 7, 102
13, 36192, Note_on_c, 12, 48, 0
13, 36192, Note_on_c, 12, 48, 103
13, 36195, Control_c, 12, 7, 103
13, 36199, Control_c, 12, 7, 104
13, 36203, Control_c, 12, 7, 105
13, 36206, Control_c, 12, 7, 106
13, 36210, Control_c, 12, 7, 107
13, 36214, Control_c, 12, 7, 108
13, 36218, Control_c, 12, 7, 109
13, 36222, Control_c, 12, 7, 110
13, 36226, Control_c, 12, 7, 111
13, 36230, Control_c, 12, 7, 112
13, 36233, Control_c, 12, 7, 113
13, 36237, Control_c, 12, 7, 114
13, 36240, Note_on_c, 12, 48, 0
13, 36240, Note_on_c, 12, 48, 115
13, 36241, Control_c, 12, 7, 115
13, 36245, Control_c, 12, 7, 116
13, 36249, Control_c, 12, 7, 117
13, 36253, Control_c, 12, 7, 118
13, 36257, Control_c, 12, 7, 119
13, 36260, Control_c, 12, 7, 120
13, 36264, Control_c, 12, 7, 121
13, 36268, Control_c, 12, 7, 122
13, 36272, Control_c, 12, 7, 123
13, 36276, Control_c, 12, 7, 124
13, 36280, Control_c, 12, 7, 125
13, 36284, Control_c, 12, 7, 126
13, 36287, Control_c, 12, 7, 127
13, 36288, Note_on_c, 12, 48, 0
13, 36288, Control_c, 12, 7, 127
13, 36288, Note_on_c, 12, 47, 127
13, 36448, Note_on_c, 12, 47, 0
13, 36480, Note_on_c, 12, 42, 127
13, 36640, Note_on_c, 12, 42, 0
13, 37056, Note_on_c, 12, 47, 127
13, 37216, Note_on_c, 12, 47, 0
13, 37248, Note_on_c, 12, 42, 127
13, 37408, Note_on_c, 12, 42, 0
13, 37824, Note_on_c, 12, 47, 127
13, 37984, Note_on_c, 12, 47, 0
13, 38016, Note_on_c, 12, 42, 127
13, 38176, Note_on_c, 12, 42, 0
13, 38592, Note_on_c, 12, 47, 127
13, 38752, Note_on_c, 12, 47, 0
13, 38784, Note_on_c, 12, 42, 127
13, 38944, Note_on_c, 12, 42, 0
13, 38976, Control_c, 12, 7, 40
13, 38976, Note_on_c, 12, 47, 45
13, 39024, Note_on_c, 12, 47, 0
13, 39024, Note_on_c, 12, 47, 45
13, 39027, Control_c, 12, 7, 41
13, 39031, Control_c, 12, 7, 42
13, 39035, Control_c, 12, 7, 43
13, 39039, Control_c, 12, 7, 44
13, 39043, Control_c, 12, 7, 45
13, 39047, Control_c, 12, 7, 46
13, 39051, Control_c, 12, 7, 47
13, 39054, Control_c, 12, 7, 48
13, 39058, Control_c, 12, 7, 49
13, 39062, Control_c, 12, 7, 50
13, 39066, Control_c, 12, 7, 51
13, 39070, Control_c, 12, 7, 52
13, 39072, Note_on_c, 12, 47, 0
13, 39072, Note_on_c, 12, 47, 56
13, 39074, Control_c, 12, 7, 53
13, 39078, Control_c, 12, 7, 54
13, 39081, Control_c, 12, 7, 55
13, 39085, Control_c, 12, 7, 56
13, 39089, Control_c, 12, 7, 57
13, 39093, Control_c, 12, 7, 58
13, 39097, Control_c, 12, 7, 59
13, 39101, Control_c, 12, 7, 60
13, 39105, Control_c, 12, 7, 61
13, 39108, Control_c, 12, 7, 62
13, 39112, Control_c, 12, 7, 63
13, 39116, Control_c, 12, 7, 64
13, 39120, Note_on_c, 12, 47, 0
13, 39120, Control_c, 12, 7, 65
13, 39120, Note_on_c, 12, 47, 67
13, 39124, Control_c, 12, 7, 66
13, 39128, Control_c, 12, 7, 67
13, 39132, Control_c, 12, 7, 68
13, 39135, Control_c, 12, 7, 69
13, 39139, Control_c, 12, 7, 70
13, 39143, Control_c, 12, 7, 71
13, 39147, Control_c, 12, 7, 72
13, 39151, Control_c, 12, 7, 73
13, 39155, Control_c, 12, 7, 74
13, 39159, Control_c, 12, 7, 75
13, 39163, Control_c, 12, 7, 76
13, 39166, Control_c, 12, 7, 77
13, 39168, Note_on_c, 12, 47, 0
13, 39168, Note_on_c, 12, 47, 79
13, 39170, Control_c, 12, 7, 78
13, 39174, Control_c, 12, 7, 79
13, 39178, Control_c, 12, 7, 80
13, 39182, Control_c, 12, 7, 81
13, 39186, Control_c, 12, 7, 82
13, 39190, Control_c, 12, 7, 83
13, 39193, Control_c, 12, 7, 84
13, 39197, Control_c, 12, 7, 85
13, 39201, Control_c, 12, 7, 86
13, 39205, Control_c, 12, 7, 87
13, 39209, Control_c, 12, 7, 88
13, 39213, Control_c, 12, 7, 89
13, 39216, Note_on_c, 12, 47, 0
13, 39216, Note_on_c, 12, 47, 91
13, 39217, Control_c, 12, 7, 90
13, 39220, Control_c, 12, 7, 91
13, 39224, Control_c, 12, 7, 92
13, 39228, Control_c, 12, 7, 93
13, 39232, Control_c, 12, 7, 94
13, 39236, Control_c, 12, 7, 95
13, 39240, Control_c, 12, 7, 96
13, 39244, Control_c, 12, 7, 97
13, 39247, Control_c, 12, 7, 98
13, 39251, Control_c, 12, 7, 99
13, 39255, Control_c, 12, 7, 100
13, 39259, Control_c, 12, 7, 101
13, 39263, Control_c, 12, 7, 102
13, 39264, Note_on_c, 12, 47, 0
13, 39264, Note_on_c, 12, 47, 103
13, 39267, Control_c, 12, 7, 103
13, 39271, Control_c, 12, 7, 104
13, 39275, Control_c, 12, 7, 105
13, 39278, Control_c, 12, 7, 106
13, 39282, Control_c, 12, 7, 107
13, 39286, Control_c, 12, 7, 108
13, 39290, Control_c, 12, 7, 109
13, 39294, Control_c, 12, 7, 110
13, 39298, Control_c, 12, 7, 111
13, 39302, Control_c, 12, 7, 112
13, 39305, Control_c, 12, 7, 113
13, 39309, Control_c, 12, 7, 114
13, 39312, Note_on_c, 12, 47, 0
13, 39312, Note_on_c, 12, 47, 115
13, 39313, Control_c, 12, 7, 115
13, 39317, Control_c, 12, 7, 116
13, 39321, Control_c, 12, 7, 117
13, 39325, Control_c, 12, 7, 118
13, 39329, Control_c, 12, 7, 119
13, 39332, Control_c, 12, 7, 120
13, 39336, Control_c, 12, 7, 121
13, 39340, Control_c, 12, 7, 122
13, 39344, Control_c, 12, 7, 123
13, 39348, Control_c, 12, 7, 124
13, 39352, Control_c, 12, 7, 125
13, 39356, Control_c, 12, 7, 126
13, 39359, Control_c, 12, 7, 127
13, 39360, Note_on_c, 12, 47, 0
13, 39360, Control_c, 12, 7, 127
13, 39360, Note_on_c, 12, 48, 127
13, 39520, Note_on_c, 12, 48, 0
13, 39552, Note_on_c, 12, 43, 127
13, 39712, Note_on_c, 12, 43, 0
13, 40128, Note_on_c, 12, 48, 127
13, 40288, Note_on_c, 12, 48, 0
13, 40320, Note_on_c, 12, 43, 127
13, 40480, Note_on_c, 12, 43, 0
13, 40896, Note_on_c, 12, 48, 127
13, 41056, Note_on_c, 12, 48, 0
13, 41088, Note_on_c, 12, 43, 127
13, 41248, Note_on_c, 12, 43, 0
13, 41664, Note_on_c, 12, 48, 127
13, 41824, Note_on_c, 12, 48, 0
13, 41856, Note_on_c, 12, 43, 127
13, 42016, Note_on_c, 12, 43, 0
13, 42048, Control_c, 12, 7, 40
13, 42048, Note_on_c, 12, 48, 45
13, 42096, Note_on_c, 12, 48, 0
13, 42096, Note_on_c, 12, 48, 45
13, 42099, Control_c, 12, 7, 41
13, 42103, Control_c, 12, 7, 42
13, 42107, Control_c, 12, 7, 43
13, 42111, Control_c, 12, 7, 44
13, 42115, Control_c, 12, 7, 45
13, 42119, Control_c, 12, 7, 46
13, 42123, Control_c, 12, 7, 47
13, 42126, Control_c, 12, 7, 48
13, 42130, Control_c, 12, 7, 49
13, 42134, Control_c, 12, 7, 50
13, 42138, Control_c, 12, 7, 51
13, 42142, Control_c, 12, 7, 52
13, 42144, Note_on_c, 12, 48, 0
13, 42144, Note_on_c, 12, 48, 56
13, 42146, Control_c, 12, 7, 53
13, 42150, Control_c, 12, 7, 54
13, 42153, Control_c, 12, 7, 55
13, 42157, Control_c, 12, 7, 56
13, 42161, Control_c, 12, 7, 57
13, 42165, Control_c, 12, 7, 58
13, 42169, Control_c, 12, 7, 59
13, 42173, Control_c, 12, 7, 60
13, 42177, Control_c, 12, 7, 61
13, 42180, Control_c, 12, 7, 62
13, 42184, Control_c, 12, 7, 63
13, 42188, Control_c, 12, 7, 64
13, 42192, Note_on_c, 12, 48, 0
13, 42192, Control_c, 12, 7, 65
13, 42192, Note_on_c, 12, 48, 67
13, 42196, Control_c, 12, 7, 66
13, 42200, Control_c, 12, 7, 67
13, 42204, Control_c, 12, 7, 68
13, 42207, Control_c, 12, 7, 69
13, 42211, Control_c, 12, 7, 70
13, 42215, Control_c, 12, 7, 71
13, 42219, Control_c, 12, 7, 72
13, 42223, Control_c, 12, 7, 73
13, 42227, Control_c, 12, 7, 74
13, 42231, Control_c, 12, 7, 75
13, 42235, Control_c, 12, 7, 76
13, 42238, Control_c, 12, 7, 77
13, 42240, Note_on_c, 12, 48, 0
13, 42240, Note_on_c, 12, 48, 79
13, 42242, Control_c, 12, 7, 78
13, 42246, Control_c, 12, 7, 79
13, 42250, Control_c, 12, 7, 80
13, 42254, Control_c, 12, 7, 81
13, 42258, Control_c, 12, 7, 82
13, 42262, Control_c, 12, 7, 83
13, 42265, Control_c, 12, 7, 84
13, 42269, Control_c, 12, 7, 85
13, 42273, Control_c, 12, 7, 86
13, 42277, Control_c, 12, 7, 87
13, 42281, Control_c, 12, 7, 88
13, 42285, Control_c, 12, 7, 89
13, 42288, Note_on_c, 12, 48, 0
13, 42288, Note_on_c, 12, 48, 91
13, 42289, Control_c, 12, 7, 90
13, 42292, Control_c, 12, 7, 91
13, 42296, Control_c, 12, 7, 92
13, 42300, Control_c, 12, 7, 93
13, 42304, Control_c, 12, 7, 94
13, 42308, Control_c, 12, 7, 95
13, 42312, Control_c, 12, 7, 96
13, 42316, Control_c, 12, 7, 97
13, 42319, Control_c, 12, 7, 98
13, 42323, Control_c, 12, 7, 99
13, 42327, Control_c, 12, 7, 100
13, 42331, Control_c, 12, 7, 101
13, 42335, Control_c, 12, 7, 102
13, 42336, Note_on_c, 12, 48, 0
13, 42336, Note_on_c, 12, 48, 103
13, 42339, Control_c, 12, 7, 103
13, 42343, Control_c, 12, 7, 104
13, 42347, Control_c, 12, 7, 105
13, 42350, Control_c, 12, 7, 106
13, 42354, Control_c, 12, 7, 107
13, 42358, Control_c, 12, 7, 108
13, 42362, Control_c, 12, 7, 109
13, 42366, Control_c, 12, 7, 110
13, 42370, Control_c, 12, 7, 111
13, 42374, Control_c, 12, 7, 112
13, 42377, Control_c, 12, 7, 113
13, 42381, Control_c, 12, 7, 114
13, 42384, Note_on_c, 12, 48, 0
13, 42384, Note_on_c, 12, 48, 115
13, 42385, Control_c, 12, 7, 115
13, 42389, Control_c, 12, 7, 116
13, 42393, Control_c, 12, 7, 117
13, 42397, Control_c, 12, 7, 118
13, 42401, Control_c, 12, 7, 119
13, 42404, Control_c, 12, 7, 120
13, 42408, Control_c, 12, 7, 121
13, 42412, Control_c, 12, 7, 122
13, 42416, Control_c, 12, 7, 123
13, 42420, Control_c, 12, 7, 124
13, 42424, Control_c, 12, 7, 125
13, 42428, Control_c, 12, 7, 126
13, 42431, Control_c, 12, 7, 127
13, 42432, Note_on_c, 12, 48, 0
13, 42432, Control_c, 12, 7, 127
13, 42432, Note_on_c, 12, 47, 127
13, 42592, Note_on_c, 12, 47, 0
13, 42624, Note_on_c, 12, 42, 127
13, 42784, Note_on_c, 12, 42, 0
13, 43200, Note_on_c, 12, 47, 127
13, 43360, Note_on_c, 12, 47, 0
13, 43392, Note_on_c, 12, 42, 127
13, 43552, Note_on_c, 12, 42, 0
13, 43968, Note_on_c, 12, 47, 127
13, 44128, Note_on_c, 12, 47, 0
13, 44160, Note_on_c, 12, 42, 127
13, 44320, Note_on_c, 12, 42, 0
13, 44736, Note_on_c, 12, 47, 127
13, 44896, Note_on_c, 12, 47, 0
13, 44928, Note_on_c, 12, 42, 127
13, 45088, Note_on_c, 12, 42, 0
13, 45088, End_track
14, 0, Start_track
14, 0, MIDI_port, 0
14, 0, Title_t, "Staff-12"
14, 0, Control_c, 13, 7, 127
14, 0, Control_c, 13, 10, 64
14, 0, Program_c, 13, 52
14, 47040, Control_c, 13, 7, 80
14, 47040, Note_on_c, 13, 64, 75
14, 47040, Note_on_c, 13, 76, 75
14, 47072, Control_c, 13, 7, 81
14, 47105, Control_c, 13, 7, 82
14, 47138, Control_c, 13, 7, 83
14, 47170, Control_c, 13, 7, 84
14, 47203, Control_c, 13, 7, 85
14, 47236, Control_c, 13, 7, 86
14, 47268, Control_c, 13, 7, 87
14, 47301, Control_c, 13, 7, 88
14, 47334, Control_c, 13, 7, 89
14, 47366, Control_c, 13, 7, 90
14, 47399, Control_c, 13, 7, 91
14, 47432, Control_c, 13, 7, 92
14, 47464, Control_c, 13, 7, 93
14, 47497, Control_c, 13, 7, 94
14, 47530, Control_c, 13, 7, 95
14, 47562, Control_c, 13, 7, 96
14, 47595, Control_c, 13, 7, 97
14, 47628, Control_c, 13, 7, 98
14, 47660, Control_c, 13, 7, 99
14, 47693, Control_c, 13, 7, 100
14, 47726, Control_c, 13, 7, 101
14, 47758, Control_c, 13, 7, 102
14, 47791, Control_c, 13, 7, 103
14, 47824, Control_c, 13, 7, 104
14, 47857, Control_c, 13, 7, 105
14, 47889, Control_c, 13, 7, 106
14, 47922, Control_c, 13, 7, 107
14, 47955, Control_c, 13, 7, 108
14, 47987, Control_c, 13, 7, 109
14, 48020, Control_c, 13, 7, 110
14, 48053, Control_c, 13, 7, 111
14, 48085, Control_c, 13, 7, 112
14, 48118, Control_c, 13, 7, 113
14, 48151, Control_c, 13, 7, 114
14, 48183, Control_c, 13, 7, 115
14, 48216, Control_c, 13, 7, 116
14, 48249, Control_c, 13, 7, 117
14, 48281, Control_c, 13, 7, 118
14, 48314, Control_c, 13, 7, 119
14, 48347, Control_c, 13, 7, 120
14, 48379, Control_c, 13, 7, 121
14, 48412, Control_c, 13, 7, 122
14, 48445, Control_c, 13, 7, 123
14, 48477, Control_c, 13, 7, 124
14, 48510, Control_c, 13, 7, 125
14, 48528, Note_on_c, 13, 64, 0
14, 48528, Note_on_c, 13, 76, 0
14, 48543, Control_c, 13, 7, 126
14, 48575, Control_c, 13, 7, 127
14, 48576, Control_c, 13, 7, 127
14, 50112, Control_c, 13, 7, 80
14, 50112, Note_on_c, 13, 63, 75
14, 50112, Note_on_c, 13, 75, 75
14, 50144, Control_c, 13, 7, 81
14, 50177, Control_c, 13, 7, 82
14, 50210, Control_c, 13, 7, 83
14, 50242, Control_c, 13, 7, 84
14, 50275, Control_c, 13, 7, 85
14, 50308, Control_c, 13, 7, 86
14, 50340, Control_c, 13, 7, 87
14, 50373, Control_c, 13, 7, 88
14, 50406, Control_c, 13, 7, 89
14, 50438, Control_c, 13, 7, 90
14, 50471, Control_c, 13, 7, 91
14, 50504, Control_c, 13, 7, 92
14, 50536, Control_c, 13, 7, 93
14, 50569, Control_c, 13, 7, 94
14, 50602, Control_c, 13, 7, 95
14, 50634, Control_c, 13, 7, 96
14, 50667, Control_c, 13, 7, 97
14, 50700, Control_c, 13, 7, 98
14, 50732, Control_c, 13, 7, 99
14, 50765, Control_c, 13, 7, 100
14, 50798, Control_c, 13, 7, 101
14, 50830, Control_c, 13, 7, 102
14, 50863, Control_c, 13, 7, 103
14, 50896, Control_c, 13, 7, 104
14, 50929, Control_c, 13, 7, 105
14, 50961, Control_c, 13, 7, 106
14, 50994, Control_c, 13, 7, 107
14, 51027, Control_c, 13, 7, 108
14, 51059, Control_c, 13, 7, 109
14, 51092, Control_c, 13, 7, 110
14, 51125, Control_c, 13, 7, 111
14, 51157, Control_c, 13, 7, 112
14, 51190, Control_c, 13, 7, 113
14, 51223, Control_c, 13, 7, 114
14, 51255, Control_c, 13, 7, 115
14, 51288, Control_c, 13, 7, 116
14, 51321, Control_c, 13, 7, 117
14, 51353, Control_c, 13, 7, 118
14, 51386, Control_c, 13, 7, 119
14, 51419, Control_c, 13, 7, 120
14, 51451, Control_c, 13, 7, 121
14, 51484, Control_c, 13, 7, 122
14, 51517, Control_c, 13, 7, 123
14, 51549, Control_c, 13, 7, 124
14, 51582, Control_c, 13, 7, 125
14, 51600, Note_on_c, 13, 63, 0
14, 51600, Note_on_c, 13, 75, 0
14, 51615, Control_c, 13, 7, 126
14, 51647, Control_c, 13, 7, 127
14, 51648, Control_c, 13, 7, 127
14, 53184, Control_c, 13, 7, 80
14, 53184, Note_on_c, 13, 62, 75
14, 53184, Note_on_c, 13, 74, 75
14, 53216, Control_c, 13, 7, 81
14, 53249, Control_c, 13, 7, 82
14, 53282, Control_c, 13, 7, 83
14, 53314, Control_c, 13, 7, 84
14, 53347, Control_c, 13, 7, 85
14, 53380, Control_c, 13, 7, 86
14, 53412, Control_c, 13, 7, 87
14, 53445, Control_c, 13, 7, 88
14, 53478, Control_c, 13, 7, 89
14, 53510, Control_c, 13, 7, 90
14, 53543, Control_c, 13, 7, 91
14, 53576, Control_c, 13, 7, 92
14, 53608, Control_c, 13, 7, 93
14, 53641, Control_c, 13, 7, 94
14, 53674, Control_c, 13, 7, 95
14, 53706, Control_c, 13, 7, 96
14, 53739, Control_c, 13, 7, 97
14, 53772, Control_c, 13, 7, 98
14, 53804, Control_c, 13, 7, 99
14, 53837, Control_c, 13, 7, 100
14, 53870, Control_c, 13, 7, 101
14, 53902, Control_c, 13, 7, 102
14, 53935, Control_c, 13, 7, 103
14, 53968, Control_c, 13, 7, 104
14, 54001, Control_c, 13, 7, 105
14, 54033, Control_c, 13, 7, 106
14, 54066, Control_c, 13, 7, 107
14, 54099, Control_c, 13, 7, 108
14, 54131, Control_c, 13, 7, 109
14, 54164, Control_c, 13, 7, 110
14, 54197, Control_c, 13, 7, 111
14, 54229, Control_c, 13, 7, 112
14, 54262, Control_c, 13, 7, 113
14, 54295, Control_c, 13, 7, 114
14, 54327, Control_c, 13, 7, 115
14, 54360, Control_c, 13, 7, 116
14, 54393, Control_c, 13, 7, 117
14, 54425, Control_c, 13, 7, 118
14, 54458, Control_c, 13, 7, 119
14, 54491, Control_c, 13, 7, 120
14, 54523, Control_c, 13, 7, 121
14, 54556, Control_c, 13, 7, 122
14, 54589, Control_c, 13, 7, 123
14, 54621, Control_c, 13, 7, 124
14, 54654, Control_c, 13, 7, 125
14, 54672, Note_on_c, 13, 62, 0
14, 54672, Note_on_c, 13, 74, 0
14, 54687, Control_c, 13, 7, 126
14, 54719, Control_c, 13, 7, 127
14, 54720, Control_c, 13, 7, 127
14, 56256, Control_c, 13, 7, 80
14, 56256, Note_on_c, 13, 61, 75
14, 56256, Note_on_c, 13, 73, 75
14, 56288, Control_c, 13, 7, 81
14, 56321, Control_c, 13, 7, 82
14, 56354, Control_c, 13, 7, 83
14, 56386, Control_c, 13, 7, 84
14, 56419, Control_c, 13, 7, 85
14, 56452, Control_c, 13, 7, 86
14, 56484, Control_c, 13, 7, 87
14, 56517, Control_c, 13, 7, 88
14, 56550, Control_c, 13, 7, 89
14, 56582, Control_c, 13, 7, 90
14, 56615, Control_c, 13, 7, 91
14, 56648, Control_c, 13, 7, 92
14, 56680, Control_c, 13, 7, 93
14, 56713, Control_c, 13, 7, 94
14, 56746, Control_c, 13, 7, 95
14, 56778, Control_c, 13, 7, 96
14, 56811, Control_c, 13, 7, 97
14, 56844, Control_c, 13, 7, 98
14, 56876, Control_c, 13, 7, 99
14, 56909, Control_c, 13, 7, 100
14, 56942, Control_c, 13, 7, 101
14, 56974, Control_c, 13, 7, 102
14, 57007, Control_c, 13, 7, 103
14, 57040, Control_c, 13, 7, 104
14, 57073, Control_c, 13, 7, 105
14, 57105, Control_c, 13, 7, 106
14, 57138, Control_c, 13, 7, 107
14, 57171, Control_c, 13, 7, 108
14, 57203, Control_c, 13, 7, 109
14, 57236, Control_c, 13, 7, 110
14, 57269, Control_c, 13, 7, 111
14, 57301, Control_c, 13, 7, 112
14, 57334, Control_c, 13, 7, 113
14, 57367, Control_c, 13, 7, 114
14, 57399, Control_c, 13, 7, 115
14, 57432, Control_c, 13, 7, 116
14, 57465, Control_c, 13, 7, 117
14, 57497, Control_c, 13, 7, 118
14, 57530, Control_c, 13, 7, 119
14, 57563, Control_c, 13, 7, 120
14, 57595, Control_c, 13, 7, 121
14, 57628, Control_c, 13, 7, 122
14, 57661, Control_c, 13, 7, 123
14, 57693, Control_c, 13, 7, 124
14, 57726, Control_c, 13, 7, 125
14, 57744, Note_on_c, 13, 61, 0
14, 57744, Note_on_c, 13, 73, 0
14, 57759, Control_c, 13, 7, 126
14, 57791, Control_c, 13, 7, 127
14, 57792, Control_c, 13, 7, 127
14, 57792, End_track
0, 0, End_of_file
