0, 0, Header, 1, 12, 256
1, 0, Start_track
1, 0, Time_signature, 4, 2, 24, 8
1, 0, Key_signature, 0, "major"
1, 0, Tempo, 434782
1, 81920, Time_signature, 7, 2, 24, 8
1, 99840, Time_signature, 4, 2, 24, 8
1, 163328, Time_signature, 7, 2, 24, 8
1, 181248, Time_signature, 4, 2, 24, 8
1, 181249, End_track
2, 0, Start_track
2, 0, Title_t, "Drums"
2, 0, Control_c, 9, 91, 72
2, 0, Control_c, 9, 10, 57
2, 12288, Control_c, 9, 0, 0
2, 12288, Control_c, 9, 32, 0
2, 12288, Program_c, 9, 1
2, 12288, Note_on_c, 9, 52, 73
2, 12288, Note_on_c, 9, 35, 70
2, 12404, Note_on_c, 9, 52, 0
2, 12404, Note_on_c, 9, 35, 0
2, 12416, Note_on_c, 9, 46, 55
2, 12532, Note_on_c, 9, 46, 0
2, 12544, Note_on_c, 9, 52, 98
2, 12544, Note_on_c, 9, 35, 97
2, 12660, Note_on_c, 9, 52, 0
2, 12660, Note_on_c, 9, 35, 0
2, 12672, Note_on_c, 9, 46, 57
2, 12788, Note_on_c, 9, 46, 0
2, 12800, Note_on_c, 9, 52, 97
2, 12800, Note_on_c, 9, 35, 97
2, 12916, Note_on_c, 9, 52, 0
2, 12916, Note_on_c, 9, 35, 0
2, 12928, Note_on_c, 9, 46, 59
2, 13044, Note_on_c, 9, 46, 0
2, 13056, Note_on_c, 9, 52, 96
2, 13056, Note_on_c, 9, 35, 95
2, 13114, Note_on_c, 9, 52, 0
2, 13114, Note_on_c, 9, 35, 0
2, 13120, Note_on_c, 9, 42, 97
2, 13178, Note_on_c, 9, 42, 0
2, 13184, Note_on_c, 9, 46, 58
2, 13300, Note_on_c, 9, 46, 0
2, 13312, Note_on_c, 9, 52, 95
2, 13312, Note_on_c, 9, 35, 96
2, 13428, Note_on_c, 9, 52, 0
2, 13428, Note_on_c, 9, 35, 0
2, 13440, Note_on_c, 9, 46, 57
2, 13556, Note_on_c, 9, 46, 0
2, 13568, Note_on_c, 9, 52, 96
2, 13568, Note_on_c, 9, 35, 97
2, 13684, Note_on_c, 9, 52, 0
2, 13684, Note_on_c, 9, 35, 0
2, 13696, Note_on_c, 9, 46, 57
2, 13812, Note_on_c, 9, 46, 0
2, 13824, Note_on_c, 9, 52, 98
2, 13824, Note_on_c, 9, 35, 98
2, 13940, Note_on_c, 9, 52, 0
2, 13940, Note_on_c, 9, 35, 0
2, 13952, Note_on_c, 9, 46, 59
2, 14068, Note_on_c, 9, 46, 0
2, 14080, Note_on_c, 9, 52, 97
2, 14080, Note_on_c, 9, 35, 96
2, 14138, Note_on_c, 9, 52, 0
2, 14138, Note_on_c, 9, 35, 0
2, 14144, Note_on_c, 9, 42, 100
2, 14202, Note_on_c, 9, 42, 0
2, 14208, Note_on_c, 9, 46, 57
2, 14324, Note_on_c, 9, 46, 0
2, 14336, Note_on_c, 9, 52, 97
2, 14336, Note_on_c, 9, 35, 94
2, 14452, Note_on_c, 9, 52, 0
2, 14452, Note_on_c, 9, 35, 0
2, 14464, Note_on_c, 9, 46, 58
2, 14580, Note_on_c, 9, 46, 0
2, 14592, Note_on_c, 9, 52, 94
2, 14592, Note_on_c, 9, 35, 95
2, 14708, Note_on_c, 9, 52, 0
2, 14708, Note_on_c, 9, 35, 0
2, 14720, Note_on_c, 9, 46, 56
2, 14836, Note_on_c, 9, 46, 0
2, 14848, Note_on_c, 9, 52, 95
2, 14848, Note_on_c, 9, 35, 96
2, 14964, Note_on_c, 9, 52, 0
2, 14964, Note_on_c, 9, 35, 0
2, 14976, Note_on_c, 9, 46, 56
2, 15092, Note_on_c, 9, 46, 0
2, 15104, Note_on_c, 9, 52, 95
2, 15104, Note_on_c, 9, 35, 95
2, 15162, Note_on_c, 9, 52, 0
2, 15162, Note_on_c, 9, 35, 0
2, 15168, Note_on_c, 9, 42, 98
2, 15226, Note_on_c, 9, 42, 0
2, 15232, Note_on_c, 9, 46, 59
2, 15348, Note_on_c, 9, 46, 0
2, 15360, Note_on_c, 9, 52, 94
2, 15360, Note_on_c, 9, 35, 98
2, 15476, Note_on_c, 9, 52, 0
2, 15476, Note_on_c, 9, 35, 0
2, 15488, Note_on_c, 9, 46, 57
2, 15604, Note_on_c, 9, 46, 0
2, 15616, Note_on_c, 9, 52, 98
2, 15616, Note_on_c, 9, 35, 94
2, 15732, Note_on_c, 9, 52, 0
2, 15732, Note_on_c, 9, 35, 0
2, 15744, Note_on_c, 9, 46, 56
2, 15860, Note_on_c, 9, 46, 0
2, 15872, Note_on_c, 9, 52, 97
2, 15872, Note_on_c, 9, 35, 95
2, 15988, Note_on_c, 9, 52, 0
2, 15988, Note_on_c, 9, 35, 0
2, 16000, Note_on_c, 9, 46, 57
2, 16116, Note_on_c, 9, 46, 0
2, 16128, Note_on_c, 9, 52, 97
2, 16128, Note_on_c, 9, 35, 97
2, 16186, Note_on_c, 9, 52, 0
2, 16186, Note_on_c, 9, 35, 0
2, 16192, Note_on_c, 9, 42, 98
2, 16250, Note_on_c, 9, 42, 0
2, 16256, Note_on_c, 9, 46, 58
2, 16372, Note_on_c, 9, 46, 0
2, 16384, Note_on_c, 9, 52, 95
2, 16384, Note_on_c, 9, 35, 96
2, 16500, Note_on_c, 9, 52, 0
2, 16500, Note_on_c, 9, 35, 0
2, 16512, Note_on_c, 9, 46, 58
2, 16628, Note_on_c, 9, 46, 0
2, 16640, Note_on_c, 9, 52, 96
2, 16640, Note_on_c, 9, 35, 95
2, 16756, Note_on_c, 9, 52, 0
2, 16756, Note_on_c, 9, 35, 0
2, 16768, Note_on_c, 9, 46, 60
2, 16884, Note_on_c, 9, 46, 0
2, 16896, Note_on_c, 9, 52, 98
2, 16896, Note_on_c, 9, 35, 94
2, 17012, Note_on_c, 9, 52, 0
2, 17012, Note_on_c, 9, 35, 0
2, 17024, Note_on_c, 9, 46, 59
2, 17140, Note_on_c, 9, 46, 0
2, 17152, Note_on_c, 9, 52, 94
2, 17152, Note_on_c, 9, 35, 97
2, 17210, Note_on_c, 9, 52, 0
2, 17210, Note_on_c, 9, 35, 0
2, 17216, Note_on_c, 9, 42, 101
2, 17274, Note_on_c, 9, 42, 0
2, 17280, Note_on_c, 9, 46, 60
2, 17396, Note_on_c, 9, 46, 0
2, 17408, Note_on_c, 9, 52, 98
2, 17408, Note_on_c, 9, 35, 94
2, 17524, Note_on_c, 9, 52, 0
2, 17524, Note_on_c, 9, 35, 0
2, 17536, Note_on_c, 9, 46, 58
2, 17652, Note_on_c, 9, 46, 0
2, 17664, Note_on_c, 9, 52, 97
2, 17664, Note_on_c, 9, 35, 97
2, 17780, Note_on_c, 9, 52, 0
2, 17780, Note_on_c, 9, 35, 0
2, 17792, Note_on_c, 9, 46, 58
2, 17908, Note_on_c, 9, 46, 0
2, 17920, Note_on_c, 9, 52, 95
2, 17920, Note_on_c, 9, 35, 96
2, 18036, Note_on_c, 9, 52, 0
2, 18036, Note_on_c, 9, 35, 0
2, 18048, Note_on_c, 9, 46, 58
2, 18164, Note_on_c, 9, 46, 0
2, 18176, Note_on_c, 9, 52, 97
2, 18176, Note_on_c, 9, 35, 95
2, 18234, Note_on_c, 9, 52, 0
2, 18234, Note_on_c, 9, 35, 0
2, 18240, Note_on_c, 9, 42, 97
2, 18298, Note_on_c, 9, 42, 0
2, 18304, Note_on_c, 9, 46, 60
2, 18420, Note_on_c, 9, 46, 0
2, 18432, Note_on_c, 9, 52, 97
2, 18432, Note_on_c, 9, 35, 95
2, 18548, Note_on_c, 9, 52, 0
2, 18548, Note_on_c, 9, 35, 0
2, 18560, Note_on_c, 9, 46, 59
2, 18676, Note_on_c, 9, 46, 0
2, 18688, Note_on_c, 9, 52, 98
2, 18688, Note_on_c, 9, 35, 96
2, 18804, Note_on_c, 9, 52, 0
2, 18804, Note_on_c, 9, 35, 0
2, 18816, Note_on_c, 9, 46, 59
2, 18932, Note_on_c, 9, 46, 0
2, 18944, Note_on_c, 9, 52, 94
2, 18944, Note_on_c, 9, 35, 94
2, 19060, Note_on_c, 9, 52, 0
2, 19060, Note_on_c, 9, 35, 0
2, 19072, Note_on_c, 9, 46, 57
2, 19188, Note_on_c, 9, 46, 0
2, 19200, Note_on_c, 9, 52, 94
2, 19200, Note_on_c, 9, 35, 98
2, 19258, Note_on_c, 9, 52, 0
2, 19258, Note_on_c, 9, 35, 0
2, 19264, Note_on_c, 9, 42, 100
2, 19322, Note_on_c, 9, 42, 0
2, 19328, Note_on_c, 9, 46, 59
2, 19444, Note_on_c, 9, 46, 0
2, 19456, Note_on_c, 9, 52, 96
2, 19456, Note_on_c, 9, 35, 96
2, 19572, Note_on_c, 9, 52, 0
2, 19572, Note_on_c, 9, 35, 0
2, 19584, Note_on_c, 9, 46, 58
2, 19700, Note_on_c, 9, 46, 0
2, 19712, Note_on_c, 9, 52, 95
2, 19712, Note_on_c, 9, 35, 95
2, 19828, Note_on_c, 9, 52, 0
2, 19828, Note_on_c, 9, 35, 0
2, 19840, Note_on_c, 9, 46, 57
2, 19956, Note_on_c, 9, 46, 0
2, 19968, Note_on_c, 9, 52, 98
2, 19968, Note_on_c, 9, 35, 98
2, 20084, Note_on_c, 9, 52, 0
2, 20084, Note_on_c, 9, 35, 0
2, 20096, Note_on_c, 9, 46, 58
2, 20212, Note_on_c, 9, 46, 0
2, 20224, Note_on_c, 9, 52, 98
2, 20224, Note_on_c, 9, 35, 97
2, 20282, Note_on_c, 9, 52, 0
2, 20282, Note_on_c, 9, 35, 0
2, 20288, Note_on_c, 9, 42, 101
2, 20346, Note_on_c, 9, 42, 0
2, 20352, Note_on_c, 9, 46, 58
2, 20468, Note_on_c, 9, 46, 0
2, 20480, Note_on_c, 9, 52, 96
2, 20480, Note_on_c, 9, 35, 95
2, 20596, Note_on_c, 9, 52, 0
2, 20596, Note_on_c, 9, 35, 0
2, 20608, Note_on_c, 9, 46, 58
2, 20724, Note_on_c, 9, 46, 0
2, 20736, Note_on_c, 9, 52, 95
2, 20736, Note_on_c, 9, 35, 94
2, 20852, Note_on_c, 9, 52, 0
2, 20852, Note_on_c, 9, 35, 0
2, 20864, Note_on_c, 9, 46, 58
2, 20980, Note_on_c, 9, 46, 0
2, 20992, Note_on_c, 9, 52, 97
2, 20992, Note_on_c, 9, 35, 96
2, 21108, Note_on_c, 9, 52, 0
2, 21108, Note_on_c, 9, 35, 0
2, 21120, Note_on_c, 9, 46, 57
2, 21236, Note_on_c, 9, 46, 0
2, 21248, Note_on_c, 9, 52, 98
2, 21248, Note_on_c, 9, 35, 94
2, 21364, Note_on_c, 9, 52, 0
2, 21364, Note_on_c, 9, 35, 0
2, 21376, Note_on_c, 9, 46, 57
2, 21492, Note_on_c, 9, 46, 0
2, 21504, Note_on_c, 9, 52, 94
2, 21504, Note_on_c, 9, 35, 97
2, 21620, Note_on_c, 9, 52, 0
2, 21620, Note_on_c, 9, 35, 0
2, 21632, Note_on_c, 9, 46, 59
2, 21748, Note_on_c, 9, 46, 0
2, 21760, Note_on_c, 9, 52, 98
2, 21760, Note_on_c, 9, 35, 96
2, 21876, Note_on_c, 9, 52, 0
2, 21876, Note_on_c, 9, 35, 0
2, 21888, Note_on_c, 9, 46, 60
2, 22004, Note_on_c, 9, 46, 0
2, 22016, Note_on_c, 9, 52, 97
2, 22016, Note_on_c, 9, 35, 95
2, 22132, Note_on_c, 9, 52, 0
2, 22132, Note_on_c, 9, 35, 0
2, 22144, Note_on_c, 9, 46, 60
2, 22260, Note_on_c, 9, 46, 0
2, 22272, Note_on_c, 9, 52, 94
2, 22272, Note_on_c, 9, 35, 94
2, 22330, Note_on_c, 9, 52, 0
2, 22330, Note_on_c, 9, 35, 0
2, 22336, Note_on_c, 9, 42, 99
2, 22394, Note_on_c, 9, 42, 0
2, 22400, Note_on_c, 9, 46, 57
2, 22516, Note_on_c, 9, 46, 0
2, 22528, Note_on_c, 9, 52, 95
2, 22528, Note_on_c, 9, 35, 96
2, 22644, Note_on_c, 9, 52, 0
2, 22644, Note_on_c, 9, 35, 0
2, 22656, Note_on_c, 9, 46, 57
2, 22772, Note_on_c, 9, 46, 0
2, 22784, Note_on_c, 9, 52, 94
2, 22784, Note_on_c, 9, 35, 95
2, 22900, Note_on_c, 9, 52, 0
2, 22900, Note_on_c, 9, 35, 0
2, 22912, Note_on_c, 9, 46, 59
2, 23028, Note_on_c, 9, 46, 0
2, 23040, Note_on_c, 9, 52, 95
2, 23040, Note_on_c, 9, 35, 97
2, 23156, Note_on_c, 9, 52, 0
2, 23156, Note_on_c, 9, 35, 0
2, 23168, Note_on_c, 9, 46, 60
2, 23284, Note_on_c, 9, 46, 0
2, 23296, Note_on_c, 9, 52, 95
2, 23296, Note_on_c, 9, 35, 95
2, 23412, Note_on_c, 9, 52, 0
2, 23412, Note_on_c, 9, 35, 0
2, 23424, Note_on_c, 9, 46, 56
2, 23540, Note_on_c, 9, 46, 0
2, 23552, Note_on_c, 9, 52, 95
2, 23552, Note_on_c, 9, 35, 96
2, 23668, Note_on_c, 9, 52, 0
2, 23668, Note_on_c, 9, 35, 0
2, 23680, Note_on_c, 9, 46, 59
2, 23796, Note_on_c, 9, 46, 0
2, 23808, Note_on_c, 9, 52, 96
2, 23808, Note_on_c, 9, 35, 97
2, 23924, Note_on_c, 9, 52, 0
2, 23924, Note_on_c, 9, 35, 0
2, 23936, Note_on_c, 9, 46, 59
2, 24052, Note_on_c, 9, 46, 0
2, 24064, Note_on_c, 9, 52, 95
2, 24064, Note_on_c, 9, 35, 96
2, 24180, Note_on_c, 9, 52, 0
2, 24180, Note_on_c, 9, 35, 0
2, 24192, Note_on_c, 9, 46, 58
2, 24308, Note_on_c, 9, 46, 0
2, 24320, Note_on_c, 9, 52, 94
2, 24320, Note_on_c, 9, 35, 94
2, 24378, Note_on_c, 9, 52, 0
2, 24378, Note_on_c, 9, 35, 0
2, 24384, Note_on_c, 9, 42, 101
2, 24442, Note_on_c, 9, 42, 0
2, 24448, Note_on_c, 9, 46, 58
2, 24564, Note_on_c, 9, 46, 0
2, 24576, Note_on_c, 9, 57, 96
2, 24576, Note_on_c, 9, 35, 97
2, 24692, Note_on_c, 9, 57, 0
2, 24692, Note_on_c, 9, 35, 0
2, 24704, Note_on_c, 9, 46, 60
2, 24820, Note_on_c, 9, 46, 0
2, 24832, Note_on_c, 9, 40, 98
2, 24832, Note_on_c, 9, 35, 98
2, 24948, Note_on_c, 9, 40, 0
2, 24948, Note_on_c, 9, 35, 0
2, 24960, Note_on_c, 9, 46, 56
2, 25076, Note_on_c, 9, 46, 0
2, 25088, Note_on_c, 9, 35, 95
2, 25204, Note_on_c, 9, 35, 0
2, 25216, Note_on_c, 9, 46, 60
2, 25332, Note_on_c, 9, 46, 0
2, 25344, Note_on_c, 9, 40, 97
2, 25344, Note_on_c, 9, 35, 96
2, 25460, Note_on_c, 9, 40, 0
2, 25460, Note_on_c, 9, 35, 0
2, 25472, Note_on_c, 9, 46, 60
2, 25588, Note_on_c, 9, 46, 0
2, 25600, Note_on_c, 9, 35, 96
2, 25716, Note_on_c, 9, 35, 0
2, 25728, Note_on_c, 9, 46, 56
2, 25844, Note_on_c, 9, 46, 0
2, 25856, Note_on_c, 9, 40, 98
2, 25856, Note_on_c, 9, 35, 97
2, 25972, Note_on_c, 9, 40, 0
2, 25972, Note_on_c, 9, 35, 0
2, 25984, Note_on_c, 9, 46, 57
2, 26100, Note_on_c, 9, 46, 0
2, 26112, Note_on_c, 9, 35, 98
2, 26228, Note_on_c, 9, 35, 0
2, 26240, Note_on_c, 9, 46, 57
2, 26356, Note_on_c, 9, 46, 0
2, 26368, Note_on_c, 9, 40, 95
2, 26368, Note_on_c, 9, 35, 96
2, 26484, Note_on_c, 9, 40, 0
2, 26484, Note_on_c, 9, 35, 0
2, 26496, Note_on_c, 9, 46, 59
2, 26612, Note_on_c, 9, 46, 0
2, 26624, Note_on_c, 9, 35, 94
2, 26740, Note_on_c, 9, 35, 0
2, 26752, Note_on_c, 9, 46, 58
2, 26868, Note_on_c, 9, 46, 0
2, 26880, Note_on_c, 9, 40, 97
2, 26880, Note_on_c, 9, 35, 97
2, 26996, Note_on_c, 9, 40, 0
2, 26996, Note_on_c, 9, 35, 0
2, 27008, Note_on_c, 9, 46, 57
2, 27124, Note_on_c, 9, 46, 0
2, 27136, Note_on_c, 9, 35, 94
2, 27252, Note_on_c, 9, 35, 0
2, 27264, Note_on_c, 9, 46, 57
2, 27380, Note_on_c, 9, 46, 0
2, 27392, Note_on_c, 9, 40, 95
2, 27392, Note_on_c, 9, 35, 97
2, 27508, Note_on_c, 9, 40, 0
2, 27508, Note_on_c, 9, 35, 0
2, 27520, Note_on_c, 9, 46, 58
2, 27636, Note_on_c, 9, 46, 0
2, 27648, Note_on_c, 9, 35, 97
2, 27764, Note_on_c, 9, 35, 0
2, 27776, Note_on_c, 9, 46, 58
2, 27892, Note_on_c, 9, 46, 0
2, 27904, Note_on_c, 9, 40, 96
2, 27904, Note_on_c, 9, 35, 96
2, 28020, Note_on_c, 9, 40, 0
2, 28020, Note_on_c, 9, 35, 0
2, 28032, Note_on_c, 9, 46, 56
2, 28148, Note_on_c, 9, 46, 0
2, 28160, Note_on_c, 9, 35, 98
2, 28276, Note_on_c, 9, 35, 0
2, 28288, Note_on_c, 9, 46, 58
2, 28404, Note_on_c, 9, 46, 0
2, 28416, Note_on_c, 9, 40, 95
2, 28416, Note_on_c, 9, 35, 95
2, 28532, Note_on_c, 9, 40, 0
2, 28532, Note_on_c, 9, 35, 0
2, 28544, Note_on_c, 9, 46, 59
2, 28660, Note_on_c, 9, 46, 0
2, 28672, Note_on_c, 9, 35, 97
2, 28788, Note_on_c, 9, 35, 0
2, 28800, Note_on_c, 9, 46, 59
2, 28916, Note_on_c, 9, 46, 0
2, 28928, Note_on_c, 9, 40, 94
2, 28928, Note_on_c, 9, 35, 96
2, 29044, Note_on_c, 9, 40, 0
2, 29044, Note_on_c, 9, 35, 0
2, 29056, Note_on_c, 9, 46, 58
2, 29172, Note_on_c, 9, 46, 0
2, 29184, Note_on_c, 9, 35, 98
2, 29300, Note_on_c, 9, 35, 0
2, 29312, Note_on_c, 9, 46, 57
2, 29428, Note_on_c, 9, 46, 0
2, 29440, Note_on_c, 9, 40, 97
2, 29440, Note_on_c, 9, 35, 94
2, 29556, Note_on_c, 9, 40, 0
2, 29556, Note_on_c, 9, 35, 0
2, 29568, Note_on_c, 9, 46, 58
2, 29684, Note_on_c, 9, 46, 0
2, 29696, Note_on_c, 9, 35, 97
2, 29812, Note_on_c, 9, 35, 0
2, 29824, Note_on_c, 9, 46, 59
2, 29940, Note_on_c, 9, 46, 0
2, 29952, Note_on_c, 9, 40, 96
2, 29952, Note_on_c, 9, 35, 95
2, 30068, Note_on_c, 9, 40, 0
2, 30068, Note_on_c, 9, 35, 0
2, 30080, Note_on_c, 9, 46, 58
2, 30196, Note_on_c, 9, 46, 0
2, 30208, Note_on_c, 9, 35, 95
2, 30324, Note_on_c, 9, 35, 0
2, 30336, Note_on_c, 9, 46, 59
2, 30452, Note_on_c, 9, 46, 0
2, 30464, Note_on_c, 9, 40, 94
2, 30464, Note_on_c, 9, 35, 94
2, 30580, Note_on_c, 9, 40, 0
2, 30580, Note_on_c, 9, 35, 0
2, 30592, Note_on_c, 9, 46, 58
2, 30708, Note_on_c, 9, 46, 0
2, 30720, Note_on_c, 9, 57, 96
2, 30720, Note_on_c, 9, 35, 97
2, 30836, Note_on_c, 9, 57, 0
2, 30836, Note_on_c, 9, 35, 0
2, 30848, Note_on_c, 9, 48, 58
2, 30886, Note_on_c, 9, 48, 0
2, 30890, Note_on_c, 9, 45, 65
2, 30929, Note_on_c, 9, 45, 0
2, 30933, Note_on_c, 9, 43, 70
2, 30972, Note_on_c, 9, 43, 0
2, 30976, Note_on_c, 9, 41, 73
2, 31092, Note_on_c, 9, 41, 0
2, 31104, Note_on_c, 9, 35, 96
2, 31104, Note_on_c, 9, 55, 94
2, 31220, Note_on_c, 9, 35, 0
2, 31220, Note_on_c, 9, 55, 0
2, 31232, Note_on_c, 9, 42, 96
2, 31348, Note_on_c, 9, 42, 0
2, 31360, Note_on_c, 9, 42, 79
2, 31476, Note_on_c, 9, 42, 0
2, 31488, Note_on_c, 9, 42, 80
2, 31604, Note_on_c, 9, 42, 0
2, 31616, Note_on_c, 9, 42, 77
2, 31732, Note_on_c, 9, 42, 0
2, 31744, Note_on_c, 9, 55, 76
2, 31744, Note_on_c, 9, 40, 75
2, 31802, Note_on_c, 9, 55, 0
2, 31802, Note_on_c, 9, 40, 0
2, 31808, Note_on_c, 9, 35, 77
2, 31866, Note_on_c, 9, 35, 0
2, 31872, Note_on_c, 9, 42, 96
2, 31930, Note_on_c, 9, 42, 0
2, 31936, Note_on_c, 9, 35, 60
2, 31994, Note_on_c, 9, 35, 0
2, 32000, Note_on_c, 9, 42, 97
2, 32058, Note_on_c, 9, 42, 0
2, 32064, Note_on_c, 9, 35, 59
2, 32122, Note_on_c, 9, 35, 0
2, 32128, Note_on_c, 9, 57, 73
2, 32128, Note_on_c, 9, 35, 71
2, 32186, Note_on_c, 9, 57, 0
2, 32186, Note_on_c, 9, 35, 0
2, 32192, Note_on_c, 9, 35, 77
2, 32250, Note_on_c, 9, 35, 0
2, 32256, Note_on_c, 9, 42, 100
2, 32314, Note_on_c, 9, 42, 0
2, 32320, Note_on_c, 9, 35, 57
2, 32378, Note_on_c, 9, 35, 0
2, 32384, Note_on_c, 9, 42, 91
2, 32442, Note_on_c, 9, 42, 0
2, 32448, Note_on_c, 9, 35, 58
2, 32506, Note_on_c, 9, 35, 0
2, 32512, Note_on_c, 9, 35, 74
2, 32570, Note_on_c, 9, 35, 0
2, 32576, Note_on_c, 9, 35, 77
2, 32634, Note_on_c, 9, 35, 0
2, 32640, Note_on_c, 9, 55, 109
2, 32640, Note_on_c, 9, 40, 110
2, 32756, Note_on_c, 9, 55, 0
2, 32756, Note_on_c, 9, 40, 0
2, 32768, Note_on_c, 9, 35, 90
2, 32884, Note_on_c, 9, 35, 0
2, 32896, Note_on_c, 9, 46, 58
2, 33012, Note_on_c, 9, 46, 0
2, 33024, Note_on_c, 9, 35, 102
2, 33140, Note_on_c, 9, 35, 0
2, 33152, Note_on_c, 9, 46, 60
2, 33268, Note_on_c, 9, 46, 0
2, 33280, Note_on_c, 9, 35, 100
2, 33396, Note_on_c, 9, 35, 0
2, 33408, Note_on_c, 9, 46, 61
2, 33524, Note_on_c, 9, 46, 0
2, 33536, Note_on_c, 9, 35, 102
2, 33652, Note_on_c, 9, 35, 0
2, 33664, Note_on_c, 9, 46, 60
2, 33780, Note_on_c, 9, 46, 0
2, 33792, Note_on_c, 9, 35, 100
2, 33908, Note_on_c, 9, 35, 0
2, 33920, Note_on_c, 9, 46, 60
2, 34036, Note_on_c, 9, 46, 0
2, 34048, Note_on_c, 9, 35, 102
2, 34164, Note_on_c, 9, 35, 0
2, 34176, Note_on_c, 9, 46, 60
2, 34292, Note_on_c, 9, 46, 0
2, 34304, Note_on_c, 9, 35, 102
2, 34420, Note_on_c, 9, 35, 0
2, 34432, Note_on_c, 9, 46, 60
2, 34548, Note_on_c, 9, 46, 0
2, 34560, Note_on_c, 9, 35, 99
2, 34676, Note_on_c, 9, 35, 0
2, 34688, Note_on_c, 9, 46, 61
2, 34804, Note_on_c, 9, 46, 0
2, 34816, Note_on_c, 9, 52, 99
2, 34816, Note_on_c, 9, 35, 102
2, 35047, Note_on_c, 9, 52, 0
2, 35047, Note_on_c, 9, 35, 0
2, 35072, Note_on_c, 9, 52, 82
2, 35072, Note_on_c, 9, 35, 84
2, 35303, Note_on_c, 9, 52, 0
2, 35303, Note_on_c, 9, 35, 0
2, 35328, Note_on_c, 9, 52, 82
2, 35328, Note_on_c, 9, 35, 79
2, 35559, Note_on_c, 9, 52, 0
2, 35559, Note_on_c, 9, 35, 0
2, 35584, Note_on_c, 9, 52, 82
2, 35584, Note_on_c, 9, 35, 78
2, 35815, Note_on_c, 9, 52, 0
2, 35815, Note_on_c, 9, 35, 0
2, 35840, Note_on_c, 9, 52, 83
2, 35840, Note_on_c, 9, 35, 83
2, 36071, Note_on_c, 9, 52, 0
2, 36071, Note_on_c, 9, 35, 0
2, 36096, Note_on_c, 9, 52, 81
2, 36096, Note_on_c, 9, 35, 81
2, 36327, Note_on_c, 9, 52, 0
2, 36327, Note_on_c, 9, 35, 0
2, 36352, Note_on_c, 9, 52, 81
2, 36352, Note_on_c, 9, 35, 80
2, 36583, Note_on_c, 9, 52, 0
2, 36583, Note_on_c, 9, 35, 0
2, 36608, Note_on_c, 9, 52, 78
2, 36608, Note_on_c, 9, 35, 78
2, 36839, Note_on_c, 9, 52, 0
2, 36839, Note_on_c, 9, 35, 0
2, 36864, Note_on_c, 9, 35, 84
2, 36980, Note_on_c, 9, 35, 0
2, 36992, Note_on_c, 9, 46, 57
2, 37108, Note_on_c, 9, 46, 0
2, 37120, Note_on_c, 9, 35, 100
2, 37236, Note_on_c, 9, 35, 0
2, 37248, Note_on_c, 9, 46, 61
2, 37364, Note_on_c, 9, 46, 0
2, 37376, Note_on_c, 9, 35, 100
2, 37492, Note_on_c, 9, 35, 0
2, 37504, Note_on_c, 9, 46, 59
2, 37620, Note_on_c, 9, 46, 0
2, 37632, Note_on_c, 9, 35, 103
2, 37748, Note_on_c, 9, 35, 0
2, 37760, Note_on_c, 9, 46, 61
2, 37876, Note_on_c, 9, 46, 0
2, 37888, Note_on_c, 9, 35, 101
2, 38004, Note_on_c, 9, 35, 0
2, 38016, Note_on_c, 9, 46, 62
2, 38132, Note_on_c, 9, 46, 0
2, 38144, Note_on_c, 9, 35, 102
2, 38260, Note_on_c, 9, 35, 0
2, 38272, Note_on_c, 9, 46, 60
2, 38388, Note_on_c, 9, 46, 0
2, 38400, Note_on_c, 9, 35, 100
2, 38516, Note_on_c, 9, 35, 0
2, 38528, Note_on_c, 9, 46, 61
2, 38644, Note_on_c, 9, 46, 0
2, 38656, Note_on_c, 9, 35, 100
2, 38772, Note_on_c, 9, 35, 0
2, 38784, Note_on_c, 9, 46, 62
2, 38900, Note_on_c, 9, 46, 0
2, 38912, Note_on_c, 9, 52, 100
2, 38912, Note_on_c, 9, 35, 101
2, 39143, Note_on_c, 9, 52, 0
2, 39143, Note_on_c, 9, 35, 0
2, 39168, Note_on_c, 9, 52, 82
2, 39168, Note_on_c, 9, 35, 83
2, 39399, Note_on_c, 9, 52, 0
2, 39399, Note_on_c, 9, 35, 0
2, 39424, Note_on_c, 9, 52, 82
2, 39424, Note_on_c, 9, 35, 79
2, 39655, Note_on_c, 9, 52, 0
2, 39655, Note_on_c, 9, 35, 0
2, 39680, Note_on_c, 9, 52, 81
2, 39680, Note_on_c, 9, 35, 80
2, 39911, Note_on_c, 9, 52, 0
2, 39911, Note_on_c, 9, 35, 0
2, 39936, Note_on_c, 9, 52, 81
2, 39936, Note_on_c, 9, 35, 83
2, 40167, Note_on_c, 9, 52, 0
2, 40167, Note_on_c, 9, 35, 0
2, 40192, Note_on_c, 9, 52, 80
2, 40192, Note_on_c, 9, 35, 80
2, 40423, Note_on_c, 9, 52, 0
2, 40423, Note_on_c, 9, 35, 0
2, 40448, Note_on_c, 9, 52, 79
2, 40448, Note_on_c, 9, 35, 81
2, 40679, Note_on_c, 9, 52, 0
2, 40679, Note_on_c, 9, 35, 0
2, 40704, Note_on_c, 9, 52, 78
2, 40704, Note_on_c, 9, 35, 78
2, 40935, Note_on_c, 9, 52, 0
2, 40935, Note_on_c, 9, 35, 0
2, 40960, Note_on_c, 9, 35, 84
2, 41076, Note_on_c, 9, 35, 0
2, 41088, Note_on_c, 9, 46, 57
2, 41204, Note_on_c, 9, 46, 0
2, 41216, Note_on_c, 9, 35, 100
2, 41332, Note_on_c, 9, 35, 0
2, 41344, Note_on_c, 9, 46, 62
2, 41460, Note_on_c, 9, 46, 0
2, 41472, Note_on_c, 9, 35, 100
2, 41588, Note_on_c, 9, 35, 0
2, 41600, Note_on_c, 9, 46, 60
2, 41716, Note_on_c, 9, 46, 0
2, 41728, Note_on_c, 9, 35, 102
2, 41844, Note_on_c, 9, 35, 0
2, 41856, Note_on_c, 9, 46, 60
2, 41972, Note_on_c, 9, 46, 0
2, 41984, Note_on_c, 9, 35, 102
2, 42100, Note_on_c, 9, 35, 0
2, 42112, Note_on_c, 9, 46, 60
2, 42228, Note_on_c, 9, 46, 0
2, 42240, Note_on_c, 9, 35, 101
2, 42356, Note_on_c, 9, 35, 0
2, 42368, Note_on_c, 9, 46, 60
2, 42484, Note_on_c, 9, 46, 0
2, 42496, Note_on_c, 9, 35, 103
2, 42612, Note_on_c, 9, 35, 0
2, 42624, Note_on_c, 9, 46, 62
2, 42740, Note_on_c, 9, 46, 0
2, 42752, Note_on_c, 9, 35, 101
2, 42868, Note_on_c, 9, 35, 0
2, 42880, Note_on_c, 9, 46, 62
2, 42996, Note_on_c, 9, 46, 0
2, 43008, Note_on_c, 9, 35, 100
2, 43008, Note_on_c, 9, 55, 102
2, 43124, Note_on_c, 9, 35, 0
2, 43124, Note_on_c, 9, 55, 0
2, 43136, Note_on_c, 9, 46, 60
2, 43252, Note_on_c, 9, 46, 0
2, 43264, Note_on_c, 9, 40, 101
2, 43264, Note_on_c, 9, 35, 101
2, 43380, Note_on_c, 9, 40, 0
2, 43380, Note_on_c, 9, 35, 0
2, 43392, Note_on_c, 9, 46, 59
2, 43508, Note_on_c, 9, 46, 0
2, 43520, Note_on_c, 9, 35, 102
2, 43520, Note_on_c, 9, 42, 103
2, 43636, Note_on_c, 9, 35, 0
2, 43636, Note_on_c, 9, 42, 0
2, 43648, Note_on_c, 9, 46, 61
2, 43764, Note_on_c, 9, 46, 0
2, 43776, Note_on_c, 9, 40, 103
2, 43776, Note_on_c, 9, 35, 100
2, 43892, Note_on_c, 9, 40, 0
2, 43892, Note_on_c, 9, 35, 0
2, 43904, Note_on_c, 9, 46, 63
2, 44020, Note_on_c, 9, 46, 0
2, 44032, Note_on_c, 9, 35, 101
2, 44032, Note_on_c, 9, 42, 99
2, 44148, Note_on_c, 9, 35, 0
2, 44148, Note_on_c, 9, 42, 0
2, 44160, Note_on_c, 9, 46, 60
2, 44276, Note_on_c, 9, 46, 0
2, 44288, Note_on_c, 9, 40, 100
2, 44288, Note_on_c, 9, 35, 102
2, 44404, Note_on_c, 9, 40, 0
2, 44404, Note_on_c, 9, 35, 0
2, 44416, Note_on_c, 9, 46, 62
2, 44532, Note_on_c, 9, 46, 0
2, 44544, Note_on_c, 9, 35, 101
2, 44544, Note_on_c, 9, 42, 102
2, 44660, Note_on_c, 9, 35, 0
2, 44660, Note_on_c, 9, 42, 0
2, 44672, Note_on_c, 9, 46, 61
2, 44788, Note_on_c, 9, 46, 0
2, 44800, Note_on_c, 9, 40, 103
2, 44800, Note_on_c, 9, 35, 103
2, 44858, Note_on_c, 9, 40, 0
2, 44858, Note_on_c, 9, 35, 0
2, 44864, Note_on_c, 9, 42, 106
2, 44922, Note_on_c, 9, 42, 0
2, 44928, Note_on_c, 9, 46, 62
2, 45044, Note_on_c, 9, 46, 0
2, 45056, Note_on_c, 9, 35, 103
2, 45056, Note_on_c, 9, 42, 102
2, 45172, Note_on_c, 9, 35, 0
2, 45172, Note_on_c, 9, 42, 0
2, 45184, Note_on_c, 9, 46, 60
2, 45300, Note_on_c, 9, 46, 0
2, 45312, Note_on_c, 9, 40, 100
2, 45312, Note_on_c, 9, 35, 101
2, 45428, Note_on_c, 9, 40, 0
2, 45428, Note_on_c, 9, 35, 0
2, 45440, Note_on_c, 9, 46, 60
2, 45556, Note_on_c, 9, 46, 0
2, 45568, Note_on_c, 9, 35, 101
2, 45568, Note_on_c, 9, 42, 101
2, 45684, Note_on_c, 9, 35, 0
2, 45684, Note_on_c, 9, 42, 0
2, 45696, Note_on_c, 9, 46, 60
2, 45812, Note_on_c, 9, 46, 0
2, 45824, Note_on_c, 9, 40, 100
2, 45824, Note_on_c, 9, 35, 99
2, 45940, Note_on_c, 9, 40, 0
2, 45940, Note_on_c, 9, 35, 0
2, 45952, Note_on_c, 9, 46, 62
2, 46068, Note_on_c, 9, 46, 0
2, 46080, Note_on_c, 9, 35, 102
2, 46080, Note_on_c, 9, 42, 101
2, 46196, Note_on_c, 9, 35, 0
2, 46196, Note_on_c, 9, 42, 0
2, 46208, Note_on_c, 9, 46, 61
2, 46324, Note_on_c, 9, 46, 0
2, 46336, Note_on_c, 9, 40, 101
2, 46336, Note_on_c, 9, 35, 99
2, 46452, Note_on_c, 9, 40, 0
2, 46452, Note_on_c, 9, 35, 0
2, 46464, Note_on_c, 9, 46, 60
2, 46580, Note_on_c, 9, 46, 0
2, 46592, Note_on_c, 9, 35, 99
2, 46592, Note_on_c, 9, 42, 103
2, 46708, Note_on_c, 9, 35, 0
2, 46708, Note_on_c, 9, 42, 0
2, 46720, Note_on_c, 9, 46, 62
2, 46836, Note_on_c, 9, 46, 0
2, 46848, Note_on_c, 9, 40, 102
2, 46848, Note_on_c, 9, 35, 103
2, 46906, Note_on_c, 9, 40, 0
2, 46906, Note_on_c, 9, 35, 0
2, 46912, Note_on_c, 9, 42, 106
2, 46970, Note_on_c, 9, 42, 0
2, 46976, Note_on_c, 9, 46, 62
2, 47092, Note_on_c, 9, 46, 0
2, 47104, Note_on_c, 9, 35, 100
2, 47104, Note_on_c, 9, 42, 103
2, 47220, Note_on_c, 9, 35, 0
2, 47220, Note_on_c, 9, 42, 0
2, 47232, Note_on_c, 9, 46, 59
2, 47348, Note_on_c, 9, 46, 0
2, 47360, Note_on_c, 9, 40, 100
2, 47360, Note_on_c, 9, 35, 101
2, 47476, Note_on_c, 9, 40, 0
2, 47476, Note_on_c, 9, 35, 0
2, 47488, Note_on_c, 9, 46, 62
2, 47604, Note_on_c, 9, 46, 0
2, 47616, Note_on_c, 9, 35, 100
2, 47616, Note_on_c, 9, 42, 102
2, 47732, Note_on_c, 9, 35, 0
2, 47732, Note_on_c, 9, 42, 0
2, 47744, Note_on_c, 9, 46, 62
2, 47860, Note_on_c, 9, 46, 0
2, 47872, Note_on_c, 9, 40, 102
2, 47872, Note_on_c, 9, 35, 102
2, 47988, Note_on_c, 9, 40, 0
2, 47988, Note_on_c, 9, 35, 0
2, 48000, Note_on_c, 9, 46, 59
2, 48116, Note_on_c, 9, 46, 0
2, 48128, Note_on_c, 9, 35, 101
2, 48128, Note_on_c, 9, 42, 100
2, 48244, Note_on_c, 9, 35, 0
2, 48244, Note_on_c, 9, 42, 0
2, 48256, Note_on_c, 9, 46, 61
2, 48372, Note_on_c, 9, 46, 0
2, 48384, Note_on_c, 9, 40, 99
2, 48384, Note_on_c, 9, 35, 103
2, 48500, Note_on_c, 9, 40, 0
2, 48500, Note_on_c, 9, 35, 0
2, 48512, Note_on_c, 9, 46, 59
2, 48628, Note_on_c, 9, 46, 0
2, 48640, Note_on_c, 9, 35, 102
2, 48640, Note_on_c, 9, 42, 102
2, 48756, Note_on_c, 9, 35, 0
2, 48756, Note_on_c, 9, 42, 0
2, 48768, Note_on_c, 9, 46, 60
2, 48884, Note_on_c, 9, 46, 0
2, 48896, Note_on_c, 9, 40, 99
2, 48896, Note_on_c, 9, 35, 101
2, 48954, Note_on_c, 9, 40, 0
2, 48954, Note_on_c, 9, 35, 0
2, 48960, Note_on_c, 9, 42, 106
2, 49018, Note_on_c, 9, 42, 0
2, 49024, Note_on_c, 9, 46, 61
2, 49140, Note_on_c, 9, 46, 0
2, 49152, Note_on_c, 9, 35, 103
2, 49152, Note_on_c, 9, 42, 100
2, 49268, Note_on_c, 9, 35, 0
2, 49268, Note_on_c, 9, 42, 0
2, 49280, Note_on_c, 9, 46, 61
2, 49396, Note_on_c, 9, 46, 0
2, 49408, Note_on_c, 9, 40, 101
2, 49408, Note_on_c, 9, 35, 102
2, 49524, Note_on_c, 9, 40, 0
2, 49524, Note_on_c, 9, 35, 0
2, 49536, Note_on_c, 9, 46, 62
2, 49652, Note_on_c, 9, 46, 0
2, 49664, Note_on_c, 9, 35, 102
2, 49664, Note_on_c, 9, 42, 100
2, 49780, Note_on_c, 9, 35, 0
2, 49780, Note_on_c, 9, 42, 0
2, 49792, Note_on_c, 9, 46, 59
2, 49908, Note_on_c, 9, 46, 0
2, 49920, Note_on_c, 9, 40, 102
2, 49920, Note_on_c, 9, 35, 103
2, 50036, Note_on_c, 9, 40, 0
2, 50036, Note_on_c, 9, 35, 0
2, 50048, Note_on_c, 9, 46, 62
2, 50164, Note_on_c, 9, 46, 0
2, 50176, Note_on_c, 9, 35, 100
2, 50176, Note_on_c, 9, 42, 101
2, 50292, Note_on_c, 9, 35, 0
2, 50292, Note_on_c, 9, 42, 0
2, 50304, Note_on_c, 9, 46, 62
2, 50420, Note_on_c, 9, 46, 0
2, 50432, Note_on_c, 9, 40, 100
2, 50432, Note_on_c, 9, 35, 100
2, 50548, Note_on_c, 9, 40, 0
2, 50548, Note_on_c, 9, 35, 0
2, 50560, Note_on_c, 9, 46, 63
2, 50676, Note_on_c, 9, 46, 0
2, 50688, Note_on_c, 9, 35, 101
2, 50688, Note_on_c, 9, 42, 102
2, 50804, Note_on_c, 9, 35, 0
2, 50804, Note_on_c, 9, 42, 0
2, 50816, Note_on_c, 9, 46, 61
2, 50932, Note_on_c, 9, 46, 0
2, 50944, Note_on_c, 9, 40, 102
2, 50944, Note_on_c, 9, 35, 100
2, 51002, Note_on_c, 9, 40, 0
2, 51002, Note_on_c, 9, 35, 0
2, 51008, Note_on_c, 9, 42, 105
2, 51066, Note_on_c, 9, 42, 0
2, 51072, Note_on_c, 9, 46, 62
2, 51188, Note_on_c, 9, 46, 0
2, 51200, Note_on_c, 9, 35, 100
2, 51200, Note_on_c, 9, 42, 101
2, 51316, Note_on_c, 9, 35, 0
2, 51316, Note_on_c, 9, 42, 0
2, 51328, Note_on_c, 9, 46, 59
2, 51444, Note_on_c, 9, 46, 0
2, 51456, Note_on_c, 9, 40, 102
2, 51456, Note_on_c, 9, 35, 100
2, 51572, Note_on_c, 9, 40, 0
2, 51572, Note_on_c, 9, 35, 0
2, 51584, Note_on_c, 9, 46, 60
2, 51700, Note_on_c, 9, 46, 0
2, 51712, Note_on_c, 9, 35, 101
2, 51712, Note_on_c, 9, 42, 101
2, 51828, Note_on_c, 9, 35, 0
2, 51828, Note_on_c, 9, 42, 0
2, 51840, Note_on_c, 9, 46, 60
2, 51956, Note_on_c, 9, 46, 0
2, 51968, Note_on_c, 9, 40, 102
2, 51968, Note_on_c, 9, 35, 101
2, 52084, Note_on_c, 9, 40, 0
2, 52084, Note_on_c, 9, 35, 0
2, 52096, Note_on_c, 9, 46, 59
2, 52212, Note_on_c, 9, 46, 0
2, 52224, Note_on_c, 9, 35, 102
2, 52224, Note_on_c, 9, 42, 100
2, 52340, Note_on_c, 9, 35, 0
2, 52340, Note_on_c, 9, 42, 0
2, 52352, Note_on_c, 9, 46, 61
2, 52468, Note_on_c, 9, 46, 0
2, 52480, Note_on_c, 9, 40, 99
2, 52480, Note_on_c, 9, 35, 101
2, 52596, Note_on_c, 9, 40, 0
2, 52596, Note_on_c, 9, 35, 0
2, 52608, Note_on_c, 9, 46, 59
2, 52724, Note_on_c, 9, 46, 0
2, 52736, Note_on_c, 9, 35, 101
2, 52736, Note_on_c, 9, 42, 100
2, 52852, Note_on_c, 9, 35, 0
2, 52852, Note_on_c, 9, 42, 0
2, 52864, Note_on_c, 9, 46, 63
2, 52980, Note_on_c, 9, 46, 0
2, 52992, Note_on_c, 9, 40, 102
2, 52992, Note_on_c, 9, 35, 100
2, 53050, Note_on_c, 9, 40, 0
2, 53050, Note_on_c, 9, 35, 0
2, 53056, Note_on_c, 9, 42, 103
2, 53114, Note_on_c, 9, 42, 0
2, 53120, Note_on_c, 9, 46, 62
2, 53236, Note_on_c, 9, 46, 0
2, 53248, Note_on_c, 9, 35, 101
2, 53248, Note_on_c, 9, 42, 102
2, 53364, Note_on_c, 9, 35, 0
2, 53364, Note_on_c, 9, 42, 0
2, 53376, Note_on_c, 9, 46, 63
2, 53492, Note_on_c, 9, 46, 0
2, 53504, Note_on_c, 9, 40, 102
2, 53504, Note_on_c, 9, 35, 103
2, 53620, Note_on_c, 9, 40, 0
2, 53620, Note_on_c, 9, 35, 0
2, 53632, Note_on_c, 9, 46, 62
2, 53748, Note_on_c, 9, 46, 0
2, 53760, Note_on_c, 9, 35, 100
2, 53760, Note_on_c, 9, 42, 101
2, 53876, Note_on_c, 9, 35, 0
2, 53876, Note_on_c, 9, 42, 0
2, 53888, Note_on_c, 9, 46, 60
2, 54004, Note_on_c, 9, 46, 0
2, 54016, Note_on_c, 9, 40, 102
2, 54016, Note_on_c, 9, 35, 101
2, 54132, Note_on_c, 9, 40, 0
2, 54132, Note_on_c, 9, 35, 0
2, 54144, Note_on_c, 9, 46, 62
2, 54260, Note_on_c, 9, 46, 0
2, 54272, Note_on_c, 9, 35, 100
2, 54272, Note_on_c, 9, 42, 102
2, 54388, Note_on_c, 9, 35, 0
2, 54388, Note_on_c, 9, 42, 0
2, 54400, Note_on_c, 9, 46, 62
2, 54516, Note_on_c, 9, 46, 0
2, 54528, Note_on_c, 9, 40, 100
2, 54528, Note_on_c, 9, 35, 99
2, 54644, Note_on_c, 9, 40, 0
2, 54644, Note_on_c, 9, 35, 0
2, 54656, Note_on_c, 9, 46, 62
2, 54772, Note_on_c, 9, 46, 0
2, 54784, Note_on_c, 9, 35, 102
2, 54784, Note_on_c, 9, 42, 103
2, 54900, Note_on_c, 9, 35, 0
2, 54900, Note_on_c, 9, 42, 0
2, 54912, Note_on_c, 9, 46, 60
2, 55028, Note_on_c, 9, 46, 0
2, 55040, Note_on_c, 9, 40, 100
2, 55040, Note_on_c, 9, 35, 103
2, 55098, Note_on_c, 9, 40, 0
2, 55098, Note_on_c, 9, 35, 0
2, 55104, Note_on_c, 9, 42, 104
2, 55162, Note_on_c, 9, 42, 0
2, 55168, Note_on_c, 9, 46, 63
2, 55284, Note_on_c, 9, 46, 0
2, 55296, Note_on_c, 9, 35, 101
2, 55296, Note_on_c, 9, 42, 99
2, 55412, Note_on_c, 9, 35, 0
2, 55412, Note_on_c, 9, 42, 0
2, 55424, Note_on_c, 9, 46, 62
2, 55540, Note_on_c, 9, 46, 0
2, 55552, Note_on_c, 9, 40, 103
2, 55552, Note_on_c, 9, 35, 99
2, 55668, Note_on_c, 9, 40, 0
2, 55668, Note_on_c, 9, 35, 0
2, 55680, Note_on_c, 9, 46, 59
2, 55796, Note_on_c, 9, 46, 0
2, 55808, Note_on_c, 9, 35, 100
2, 55808, Note_on_c, 9, 42, 101
2, 55924, Note_on_c, 9, 35, 0
2, 55924, Note_on_c, 9, 42, 0
2, 55936, Note_on_c, 9, 46, 61
2, 56052, Note_on_c, 9, 46, 0
2, 56064, Note_on_c, 9, 40, 103
2, 56064, Note_on_c, 9, 35, 100
2, 56180, Note_on_c, 9, 40, 0
2, 56180, Note_on_c, 9, 35, 0
2, 56192, Note_on_c, 9, 46, 63
2, 56308, Note_on_c, 9, 46, 0
2, 56320, Note_on_c, 9, 35, 99
2, 56320, Note_on_c, 9, 42, 102
2, 56436, Note_on_c, 9, 35, 0
2, 56436, Note_on_c, 9, 42, 0
2, 56448, Note_on_c, 9, 46, 60
2, 56564, Note_on_c, 9, 46, 0
2, 56576, Note_on_c, 9, 40, 100
2, 56576, Note_on_c, 9, 35, 101
2, 56692, Note_on_c, 9, 40, 0
2, 56692, Note_on_c, 9, 35, 0
2, 56704, Note_on_c, 9, 46, 61
2, 56820, Note_on_c, 9, 46, 0
2, 56832, Note_on_c, 9, 35, 99
2, 56832, Note_on_c, 9, 42, 102
2, 56948, Note_on_c, 9, 35, 0
2, 56948, Note_on_c, 9, 42, 0
2, 56960, Note_on_c, 9, 46, 60
2, 57076, Note_on_c, 9, 46, 0
2, 57088, Note_on_c, 9, 40, 102
2, 57088, Note_on_c, 9, 35, 100
2, 57146, Note_on_c, 9, 40, 0
2, 57146, Note_on_c, 9, 35, 0
2, 57152, Note_on_c, 9, 42, 106
2, 57210, Note_on_c, 9, 42, 0
2, 57216, Note_on_c, 9, 46, 60
2, 57332, Note_on_c, 9, 46, 0
2, 57344, Note_on_c, 9, 35, 101
2, 57344, Note_on_c, 9, 42, 99
2, 57460, Note_on_c, 9, 35, 0
2, 57460, Note_on_c, 9, 42, 0
2, 57472, Note_on_c, 9, 46, 61
2, 57588, Note_on_c, 9, 46, 0
2, 57600, Note_on_c, 9, 40, 100
2, 57600, Note_on_c, 9, 35, 103
2, 57716, Note_on_c, 9, 40, 0
2, 57716, Note_on_c, 9, 35, 0
2, 57728, Note_on_c, 9, 46, 61
2, 57844, Note_on_c, 9, 46, 0
2, 57856, Note_on_c, 9, 35, 99
2, 57856, Note_on_c, 9, 42, 100
2, 57972, Note_on_c, 9, 35, 0
2, 57972, Note_on_c, 9, 42, 0
2, 57984, Note_on_c, 9, 46, 60
2, 58100, Note_on_c, 9, 46, 0
2, 58112, Note_on_c, 9, 40, 102
2, 58112, Note_on_c, 9, 35, 100
2, 58228, Note_on_c, 9, 40, 0
2, 58228, Note_on_c, 9, 35, 0
2, 58240, Note_on_c, 9, 46, 60
2, 58356, Note_on_c, 9, 46, 0
2, 58368, Note_on_c, 9, 35, 100
2, 58368, Note_on_c, 9, 42, 101
2, 58484, Note_on_c, 9, 35, 0
2, 58484, Note_on_c, 9, 42, 0
2, 58496, Note_on_c, 9, 46, 60
2, 58612, Note_on_c, 9, 46, 0
2, 58624, Note_on_c, 9, 40, 102
2, 58624, Note_on_c, 9, 35, 103
2, 58740, Note_on_c, 9, 40, 0
2, 58740, Note_on_c, 9, 35, 0
2, 58752, Note_on_c, 9, 46, 61
2, 58868, Note_on_c, 9, 46, 0
2, 58880, Note_on_c, 9, 35, 101
2, 58880, Note_on_c, 9, 42, 100
2, 58996, Note_on_c, 9, 35, 0
2, 58996, Note_on_c, 9, 42, 0
2, 59008, Note_on_c, 9, 46, 61
2, 59124, Note_on_c, 9, 46, 0
2, 59136, Note_on_c, 9, 57, 103
2, 59136, Note_on_c, 9, 40, 99
2, 59367, Note_on_c, 9, 57, 0
2, 59367, Note_on_c, 9, 40, 0
2, 59392, Note_on_c, 9, 35, 107
2, 59392, Note_on_c, 9, 42, 107
2, 59508, Note_on_c, 9, 35, 0
2, 59508, Note_on_c, 9, 42, 0
2, 59520, Note_on_c, 9, 46, 61
2, 59636, Note_on_c, 9, 46, 0
2, 59648, Note_on_c, 9, 40, 99
2, 59648, Note_on_c, 9, 35, 102
2, 59764, Note_on_c, 9, 40, 0
2, 59764, Note_on_c, 9, 35, 0
2, 59776, Note_on_c, 9, 46, 60
2, 59892, Note_on_c, 9, 46, 0
2, 59904, Note_on_c, 9, 35, 100
2, 59904, Note_on_c, 9, 42, 101
2, 60020, Note_on_c, 9, 35, 0
2, 60020, Note_on_c, 9, 42, 0
2, 60032, Note_on_c, 9, 46, 62
2, 60148, Note_on_c, 9, 46, 0
2, 60160, Note_on_c, 9, 40, 102
2, 60160, Note_on_c, 9, 35, 100
2, 60276, Note_on_c, 9, 40, 0
2, 60276, Note_on_c, 9, 35, 0
2, 60288, Note_on_c, 9, 46, 61
2, 60404, Note_on_c, 9, 46, 0
2, 60416, Note_on_c, 9, 35, 102
2, 60416, Note_on_c, 9, 42, 102
2, 60532, Note_on_c, 9, 35, 0
2, 60532, Note_on_c, 9, 42, 0
2, 60544, Note_on_c, 9, 46, 62
2, 60660, Note_on_c, 9, 46, 0
2, 60672, Note_on_c, 9, 40, 102
2, 60672, Note_on_c, 9, 35, 100
2, 60788, Note_on_c, 9, 40, 0
2, 60788, Note_on_c, 9, 35, 0
2, 60800, Note_on_c, 9, 46, 59
2, 60916, Note_on_c, 9, 46, 0
2, 60928, Note_on_c, 9, 35, 100
2, 60928, Note_on_c, 9, 42, 102
2, 61044, Note_on_c, 9, 35, 0
2, 61044, Note_on_c, 9, 42, 0
2, 61056, Note_on_c, 9, 46, 60
2, 61172, Note_on_c, 9, 46, 0
2, 61184, Note_on_c, 9, 40, 101
2, 61184, Note_on_c, 9, 35, 100
2, 61300, Note_on_c, 9, 40, 0
2, 61300, Note_on_c, 9, 35, 0
2, 61312, Note_on_c, 9, 46, 61
2, 61428, Note_on_c, 9, 46, 0
2, 61440, Note_on_c, 9, 35, 103
2, 61440, Note_on_c, 9, 42, 102
2, 61556, Note_on_c, 9, 35, 0
2, 61556, Note_on_c, 9, 42, 0
2, 61568, Note_on_c, 9, 46, 63
2, 61684, Note_on_c, 9, 46, 0
2, 61696, Note_on_c, 9, 40, 100
2, 61696, Note_on_c, 9, 35, 100
2, 61812, Note_on_c, 9, 40, 0
2, 61812, Note_on_c, 9, 35, 0
2, 61824, Note_on_c, 9, 46, 61
2, 61940, Note_on_c, 9, 46, 0
2, 61952, Note_on_c, 9, 35, 100
2, 61952, Note_on_c, 9, 42, 103
2, 62068, Note_on_c, 9, 35, 0
2, 62068, Note_on_c, 9, 42, 0
2, 62080, Note_on_c, 9, 46, 59
2, 62196, Note_on_c, 9, 46, 0
2, 62208, Note_on_c, 9, 40, 100
2, 62208, Note_on_c, 9, 35, 99
2, 62324, Note_on_c, 9, 40, 0
2, 62324, Note_on_c, 9, 35, 0
2, 62336, Note_on_c, 9, 46, 59
2, 62452, Note_on_c, 9, 46, 0
2, 62464, Note_on_c, 9, 35, 100
2, 62464, Note_on_c, 9, 42, 102
2, 62580, Note_on_c, 9, 35, 0
2, 62580, Note_on_c, 9, 42, 0
2, 62592, Note_on_c, 9, 46, 59
2, 62708, Note_on_c, 9, 46, 0
2, 62720, Note_on_c, 9, 40, 102
2, 62720, Note_on_c, 9, 35, 101
2, 62836, Note_on_c, 9, 40, 0
2, 62836, Note_on_c, 9, 35, 0
2, 62848, Note_on_c, 9, 46, 60
2, 62964, Note_on_c, 9, 46, 0
2, 62976, Note_on_c, 9, 35, 101
2, 62976, Note_on_c, 9, 42, 100
2, 63092, Note_on_c, 9, 35, 0
2, 63092, Note_on_c, 9, 42, 0
2, 63104, Note_on_c, 9, 46, 61
2, 63220, Note_on_c, 9, 46, 0
2, 63232, Note_on_c, 9, 40, 101
2, 63232, Note_on_c, 9, 35, 100
2, 63348, Note_on_c, 9, 40, 0
2, 63348, Note_on_c, 9, 35, 0
2, 63360, Note_on_c, 9, 46, 59
2, 63476, Note_on_c, 9, 46, 0
2, 63488, Note_on_c, 9, 35, 102
2, 63488, Note_on_c, 9, 42, 101
2, 63604, Note_on_c, 9, 35, 0
2, 63604, Note_on_c, 9, 42, 0
2, 63616, Note_on_c, 9, 46, 63
2, 63732, Note_on_c, 9, 46, 0
2, 63744, Note_on_c, 9, 40, 101
2, 63744, Note_on_c, 9, 35, 102
2, 63860, Note_on_c, 9, 40, 0
2, 63860, Note_on_c, 9, 35, 0
2, 63872, Note_on_c, 9, 46, 60
2, 63988, Note_on_c, 9, 46, 0
2, 64000, Note_on_c, 9, 35, 101
2, 64000, Note_on_c, 9, 42, 102
2, 64116, Note_on_c, 9, 35, 0
2, 64116, Note_on_c, 9, 42, 0
2, 64128, Note_on_c, 9, 46, 62
2, 64244, Note_on_c, 9, 46, 0
2, 64256, Note_on_c, 9, 40, 100
2, 64256, Note_on_c, 9, 35, 99
2, 64372, Note_on_c, 9, 40, 0
2, 64372, Note_on_c, 9, 35, 0
2, 64384, Note_on_c, 9, 46, 60
2, 64500, Note_on_c, 9, 46, 0
2, 64512, Note_on_c, 9, 35, 103
2, 64512, Note_on_c, 9, 42, 100
2, 64628, Note_on_c, 9, 35, 0
2, 64628, Note_on_c, 9, 42, 0
2, 64640, Note_on_c, 9, 46, 59
2, 64756, Note_on_c, 9, 46, 0
2, 64768, Note_on_c, 9, 40, 102
2, 64768, Note_on_c, 9, 35, 102
2, 64884, Note_on_c, 9, 40, 0
2, 64884, Note_on_c, 9, 35, 0
2, 64896, Note_on_c, 9, 46, 60
2, 65012, Note_on_c, 9, 46, 0
2, 65024, Note_on_c, 9, 35, 102
2, 65024, Note_on_c, 9, 42, 101
2, 65140, Note_on_c, 9, 35, 0
2, 65140, Note_on_c, 9, 42, 0
2, 65152, Note_on_c, 9, 46, 63
2, 65268, Note_on_c, 9, 46, 0
2, 65280, Note_on_c, 9, 40, 102
2, 65280, Note_on_c, 9, 35, 102
2, 65396, Note_on_c, 9, 40, 0
2, 65396, Note_on_c, 9, 35, 0
2, 65408, Note_on_c, 9, 46, 60
2, 65524, Note_on_c, 9, 46, 0
2, 65536, Note_on_c, 9, 35, 101
2, 65536, Note_on_c, 9, 42, 99
2, 65652, Note_on_c, 9, 35, 0
2, 65652, Note_on_c, 9, 42, 0
2, 65664, Note_on_c, 9, 46, 62
2, 65780, Note_on_c, 9, 46, 0
2, 65792, Note_on_c, 9, 40, 103
2, 65792, Note_on_c, 9, 35, 101
2, 65908, Note_on_c, 9, 40, 0
2, 65908, Note_on_c, 9, 35, 0
2, 65920, Note_on_c, 9, 46, 60
2, 66036, Note_on_c, 9, 46, 0
2, 66048, Note_on_c, 9, 35, 102
2, 66048, Note_on_c, 9, 42, 102
2, 66164, Note_on_c, 9, 35, 0
2, 66164, Note_on_c, 9, 42, 0
2, 66176, Note_on_c, 9, 46, 62
2, 66292, Note_on_c, 9, 46, 0
2, 66304, Note_on_c, 9, 40, 101
2, 66304, Note_on_c, 9, 35, 102
2, 66420, Note_on_c, 9, 40, 0
2, 66420, Note_on_c, 9, 35, 0
2, 66432, Note_on_c, 9, 46, 59
2, 66548, Note_on_c, 9, 46, 0
2, 66560, Note_on_c, 9, 35, 102
2, 66560, Note_on_c, 9, 42, 103
2, 66676, Note_on_c, 9, 35, 0
2, 66676, Note_on_c, 9, 42, 0
2, 66688, Note_on_c, 9, 46, 63
2, 66804, Note_on_c, 9, 46, 0
2, 66816, Note_on_c, 9, 40, 101
2, 66816, Note_on_c, 9, 35, 100
2, 66932, Note_on_c, 9, 40, 0
2, 66932, Note_on_c, 9, 35, 0
2, 66944, Note_on_c, 9, 46, 61
2, 67060, Note_on_c, 9, 46, 0
2, 67072, Note_on_c, 9, 35, 102
2, 67072, Note_on_c, 9, 42, 103
2, 67188, Note_on_c, 9, 35, 0
2, 67188, Note_on_c, 9, 42, 0
2, 67200, Note_on_c, 9, 46, 61
2, 67316, Note_on_c, 9, 46, 0
2, 67328, Note_on_c, 9, 40, 100
2, 67328, Note_on_c, 9, 35, 101
2, 67444, Note_on_c, 9, 40, 0
2, 67444, Note_on_c, 9, 35, 0
2, 67456, Note_on_c, 9, 46, 62
2, 67572, Note_on_c, 9, 46, 0
2, 67584, Note_on_c, 9, 35, 100
2, 67584, Note_on_c, 9, 42, 101
2, 67700, Note_on_c, 9, 35, 0
2, 67700, Note_on_c, 9, 42, 0
2, 67712, Note_on_c, 9, 46, 60
2, 67828, Note_on_c, 9, 46, 0
2, 67840, Note_on_c, 9, 40, 102
2, 67840, Note_on_c, 9, 35, 102
2, 67956, Note_on_c, 9, 40, 0
2, 67956, Note_on_c, 9, 35, 0
2, 67968, Note_on_c, 9, 46, 61
2, 68084, Note_on_c, 9, 46, 0
2, 68096, Note_on_c, 9, 35, 100
2, 68096, Note_on_c, 9, 42, 102
2, 68212, Note_on_c, 9, 35, 0
2, 68212, Note_on_c, 9, 42, 0
2, 68224, Note_on_c, 9, 46, 63
2, 68340, Note_on_c, 9, 46, 0
2, 68352, Note_on_c, 9, 40, 100
2, 68352, Note_on_c, 9, 35, 100
2, 68468, Note_on_c, 9, 40, 0
2, 68468, Note_on_c, 9, 35, 0
2, 68480, Note_on_c, 9, 46, 61
2, 68596, Note_on_c, 9, 46, 0
2, 68608, Note_on_c, 9, 35, 99
2, 68608, Note_on_c, 9, 42, 103
2, 68724, Note_on_c, 9, 35, 0
2, 68724, Note_on_c, 9, 42, 0
2, 68736, Note_on_c, 9, 46, 61
2, 68852, Note_on_c, 9, 46, 0
2, 68864, Note_on_c, 9, 40, 99
2, 68864, Note_on_c, 9, 35, 100
2, 68980, Note_on_c, 9, 40, 0
2, 68980, Note_on_c, 9, 35, 0
2, 68992, Note_on_c, 9, 46, 63
2, 69108, Note_on_c, 9, 46, 0
2, 69120, Note_on_c, 9, 35, 99
2, 69120, Note_on_c, 9, 42, 103
2, 69236, Note_on_c, 9, 35, 0
2, 69236, Note_on_c, 9, 42, 0
2, 69248, Note_on_c, 9, 46, 61
2, 69364, Note_on_c, 9, 46, 0
2, 69376, Note_on_c, 9, 40, 103
2, 69376, Note_on_c, 9, 35, 103
2, 69492, Note_on_c, 9, 40, 0
2, 69492, Note_on_c, 9, 35, 0
2, 69504, Note_on_c, 9, 46, 60
2, 69620, Note_on_c, 9, 46, 0
2, 69632, Note_on_c, 9, 35, 101
2, 69632, Note_on_c, 9, 42, 102
2, 69748, Note_on_c, 9, 35, 0
2, 69748, Note_on_c, 9, 42, 0
2, 69760, Note_on_c, 9, 46, 63
2, 69876, Note_on_c, 9, 46, 0
2, 69888, Note_on_c, 9, 40, 102
2, 69888, Note_on_c, 9, 35, 100
2, 70004, Note_on_c, 9, 40, 0
2, 70004, Note_on_c, 9, 35, 0
2, 70016, Note_on_c, 9, 46, 62
2, 70132, Note_on_c, 9, 46, 0
2, 70144, Note_on_c, 9, 35, 102
2, 70144, Note_on_c, 9, 42, 101
2, 70260, Note_on_c, 9, 35, 0
2, 70260, Note_on_c, 9, 42, 0
2, 70272, Note_on_c, 9, 46, 63
2, 70388, Note_on_c, 9, 46, 0
2, 70400, Note_on_c, 9, 40, 101
2, 70400, Note_on_c, 9, 35, 101
2, 70516, Note_on_c, 9, 40, 0
2, 70516, Note_on_c, 9, 35, 0
2, 70528, Note_on_c, 9, 46, 61
2, 70644, Note_on_c, 9, 46, 0
2, 70656, Note_on_c, 9, 35, 101
2, 70656, Note_on_c, 9, 42, 102
2, 70772, Note_on_c, 9, 35, 0
2, 70772, Note_on_c, 9, 42, 0
2, 70784, Note_on_c, 9, 46, 63
2, 70900, Note_on_c, 9, 46, 0
2, 70912, Note_on_c, 9, 40, 102
2, 70912, Note_on_c, 9, 35, 101
2, 71028, Note_on_c, 9, 40, 0
2, 71028, Note_on_c, 9, 35, 0
2, 71040, Note_on_c, 9, 46, 62
2, 71156, Note_on_c, 9, 46, 0
2, 71168, Note_on_c, 9, 35, 101
2, 71168, Note_on_c, 9, 42, 99
2, 71284, Note_on_c, 9, 35, 0
2, 71284, Note_on_c, 9, 42, 0
2, 71296, Note_on_c, 9, 46, 63
2, 71412, Note_on_c, 9, 46, 0
2, 71424, Note_on_c, 9, 40, 101
2, 71424, Note_on_c, 9, 35, 101
2, 71540, Note_on_c, 9, 40, 0
2, 71540, Note_on_c, 9, 35, 0
2, 71552, Note_on_c, 9, 46, 62
2, 71668, Note_on_c, 9, 46, 0
2, 71680, Note_on_c, 9, 35, 100
2, 71680, Note_on_c, 9, 42, 99
2, 71796, Note_on_c, 9, 35, 0
2, 71796, Note_on_c, 9, 42, 0
2, 71808, Note_on_c, 9, 46, 61
2, 71924, Note_on_c, 9, 46, 0
2, 71936, Note_on_c, 9, 40, 103
2, 71936, Note_on_c, 9, 35, 102
2, 72052, Note_on_c, 9, 40, 0
2, 72052, Note_on_c, 9, 35, 0
2, 72064, Note_on_c, 9, 46, 59
2, 72180, Note_on_c, 9, 46, 0
2, 72192, Note_on_c, 9, 35, 100
2, 72192, Note_on_c, 9, 42, 102
2, 72308, Note_on_c, 9, 35, 0
2, 72308, Note_on_c, 9, 42, 0
2, 72320, Note_on_c, 9, 46, 61
2, 72436, Note_on_c, 9, 46, 0
2, 72448, Note_on_c, 9, 40, 102
2, 72448, Note_on_c, 9, 35, 102
2, 72564, Note_on_c, 9, 40, 0
2, 72564, Note_on_c, 9, 35, 0
2, 72576, Note_on_c, 9, 46, 60
2, 72692, Note_on_c, 9, 46, 0
2, 72704, Note_on_c, 9, 35, 101
2, 72704, Note_on_c, 9, 42, 102
2, 72820, Note_on_c, 9, 35, 0
2, 72820, Note_on_c, 9, 42, 0
2, 72832, Note_on_c, 9, 46, 62
2, 72948, Note_on_c, 9, 46, 0
2, 72960, Note_on_c, 9, 40, 101
2, 72960, Note_on_c, 9, 35, 101
2, 73076, Note_on_c, 9, 40, 0
2, 73076, Note_on_c, 9, 35, 0
2, 73088, Note_on_c, 9, 46, 63
2, 73204, Note_on_c, 9, 46, 0
2, 73216, Note_on_c, 9, 35, 101
2, 73216, Note_on_c, 9, 42, 103
2, 73332, Note_on_c, 9, 35, 0
2, 73332, Note_on_c, 9, 42, 0
2, 73344, Note_on_c, 9, 46, 61
2, 73460, Note_on_c, 9, 46, 0
2, 73472, Note_on_c, 9, 40, 103
2, 73472, Note_on_c, 9, 35, 100
2, 73588, Note_on_c, 9, 40, 0
2, 73588, Note_on_c, 9, 35, 0
2, 73600, Note_on_c, 9, 46, 63
2, 73716, Note_on_c, 9, 46, 0
2, 73728, Note_on_c, 9, 57, 100
2, 73728, Note_on_c, 9, 35, 101
2, 73959, Note_on_c, 9, 57, 0
2, 73959, Note_on_c, 9, 35, 0
2, 74752, Note_on_c, 9, 35, 104
2, 74925, Note_on_c, 9, 35, 0
2, 74944, Note_on_c, 9, 35, 109
2, 75117, Note_on_c, 9, 35, 0
2, 75136, Note_on_c, 9, 35, 109
2, 75309, Note_on_c, 9, 35, 0
2, 75328, Note_on_c, 9, 35, 110
2, 75501, Note_on_c, 9, 35, 0
2, 75520, Note_on_c, 9, 35, 114
2, 75636, Note_on_c, 9, 35, 0
2, 75648, Note_on_c, 9, 40, 100
2, 75764, Note_on_c, 9, 40, 0
2, 75776, Note_on_c, 9, 57, 122
2, 75776, Note_on_c, 9, 35, 122
2, 76007, Note_on_c, 9, 57, 0
2, 76007, Note_on_c, 9, 35, 0
2, 76800, Note_on_c, 9, 41, 102
2, 76858, Note_on_c, 9, 41, 0
2, 76864, Note_on_c, 9, 41, 108
2, 76922, Note_on_c, 9, 41, 0
2, 76928, Note_on_c, 9, 41, 112
2, 76986, Note_on_c, 9, 41, 0
2, 76992, Note_on_c, 9, 41, 110
2, 77050, Note_on_c, 9, 41, 0
2, 77056, Note_on_c, 9, 41, 112
2, 77114, Note_on_c, 9, 41, 0
2, 77120, Note_on_c, 9, 41, 113
2, 77178, Note_on_c, 9, 41, 0
2, 77184, Note_on_c, 9, 41, 110
2, 77242, Note_on_c, 9, 41, 0
2, 77248, Note_on_c, 9, 41, 112
2, 77306, Note_on_c, 9, 41, 0
2, 77312, Note_on_c, 9, 41, 112
2, 77370, Note_on_c, 9, 41, 0
2, 77376, Note_on_c, 9, 41, 112
2, 77434, Note_on_c, 9, 41, 0
2, 77440, Note_on_c, 9, 41, 112
2, 77498, Note_on_c, 9, 41, 0
2, 77504, Note_on_c, 9, 41, 110
2, 77562, Note_on_c, 9, 41, 0
2, 77568, Note_on_c, 9, 41, 113
2, 77606, Note_on_c, 9, 41, 0
2, 77610, Note_on_c, 9, 41, 111
2, 77649, Note_on_c, 9, 41, 0
2, 77653, Note_on_c, 9, 41, 110
2, 77692, Note_on_c, 9, 41, 0
2, 77696, Note_on_c, 9, 41, 110
2, 77734, Note_on_c, 9, 41, 0
2, 77738, Note_on_c, 9, 41, 110
2, 77777, Note_on_c, 9, 41, 0
2, 77781, Note_on_c, 9, 41, 109
2, 77820, Note_on_c, 9, 41, 0
2, 77824, Note_on_c, 9, 57, 127
2, 77824, Note_on_c, 9, 35, 127
2, 78055, Note_on_c, 9, 57, 0
2, 78055, Note_on_c, 9, 35, 0
2, 78848, Note_on_c, 9, 55, 103
2, 78848, Note_on_c, 9, 35, 101
2, 78964, Note_on_c, 9, 55, 0
2, 78964, Note_on_c, 9, 35, 0
2, 78976, Note_on_c, 9, 35, 108
2, 79034, Note_on_c, 9, 35, 0
2, 79040, Note_on_c, 9, 57, 102
2, 79040, Note_on_c, 9, 40, 100
2, 79156, Note_on_c, 9, 57, 0
2, 79156, Note_on_c, 9, 40, 0
2, 79168, Note_on_c, 9, 35, 119
2, 79226, Note_on_c, 9, 35, 0
2, 79232, Note_on_c, 9, 55, 111
2, 79232, Note_on_c, 9, 35, 112
2, 79348, Note_on_c, 9, 55, 0
2, 79348, Note_on_c, 9, 35, 0
2, 79360, Note_on_c, 9, 35, 115
2, 79418, Note_on_c, 9, 35, 0
2, 79424, Note_on_c, 9, 57, 103
2, 79424, Note_on_c, 9, 40, 102
2, 79540, Note_on_c, 9, 57, 0
2, 79540, Note_on_c, 9, 40, 0
2, 79552, Note_on_c, 9, 35, 120
2, 79610, Note_on_c, 9, 35, 0
2, 79616, Note_on_c, 9, 55, 114
2, 79616, Note_on_c, 9, 35, 114
2, 79732, Note_on_c, 9, 55, 0
2, 79732, Note_on_c, 9, 35, 0
2, 79744, Note_on_c, 9, 57, 100
2, 79744, Note_on_c, 9, 40, 103
2, 79860, Note_on_c, 9, 57, 0
2, 79860, Note_on_c, 9, 40, 0
2, 79872, Note_on_c, 9, 55, 120
2, 79872, Note_on_c, 9, 35, 122
2, 80103, Note_on_c, 9, 55, 0
2, 80103, Note_on_c, 9, 35, 0
2, 80896, Note_on_c, 9, 45, 103
2, 80896, Note_on_c, 9, 48, 101
2, 80954, Note_on_c, 9, 45, 0
2, 80954, Note_on_c, 9, 48, 0
2, 80960, Note_on_c, 9, 43, 105
2, 80960, Note_on_c, 9, 47, 106
2, 81018, Note_on_c, 9, 43, 0
2, 81018, Note_on_c, 9, 47, 0
2, 81024, Note_on_c, 9, 41, 104
2, 81024, Note_on_c, 9, 45, 101
2, 81082, Note_on_c, 9, 41, 0
2, 81082, Note_on_c, 9, 45, 0
2, 81088, Note_on_c, 9, 43, 117
2, 81088, Note_on_c, 9, 47, 116
2, 81146, Note_on_c, 9, 43, 0
2, 81146, Note_on_c, 9, 47, 0
2, 81152, Note_on_c, 9, 40, 95
2, 81210, Note_on_c, 9, 40, 0
2, 81216, Note_on_c, 9, 47, 127
2, 81216, Note_on_c, 9, 50, 127
2, 81274, Note_on_c, 9, 47, 0
2, 81274, Note_on_c, 9, 50, 0
2, 81280, Note_on_c, 9, 35, 127
2, 81338, Note_on_c, 9, 35, 0
2, 81344, Note_on_c, 9, 48, 87
2, 81402, Note_on_c, 9, 48, 0
2, 81408, Note_on_c, 9, 47, 103
2, 81466, Note_on_c, 9, 47, 0
2, 81472, Note_on_c, 9, 45, 112
2, 81472, Note_on_c, 9, 48, 112
2, 81530, Note_on_c, 9, 45, 0
2, 81530, Note_on_c, 9, 48, 0
2, 81536, Note_on_c, 9, 43, 95
2, 81594, Note_on_c, 9, 43, 0
2, 81600, Note_on_c, 9, 41, 114
2, 81600, Note_on_c, 9, 45, 116
2, 81658, Note_on_c, 9, 41, 0
2, 81658, Note_on_c, 9, 45, 0
2, 81664, Note_on_c, 9, 41, 103
2, 81722, Note_on_c, 9, 41, 0
2, 81728, Note_on_c, 9, 35, 127
2, 81786, Note_on_c, 9, 35, 0
2, 81792, Note_on_c, 9, 55, 105
2, 81792, Note_on_c, 9, 40, 105
2, 81908, Note_on_c, 9, 55, 0
2, 81908, Note_on_c, 9, 40, 0
2, 81920, Note_on_c, 9, 35, 122
2, 82151, Note_on_c, 9, 35, 0
2, 82176, Note_on_c, 9, 35, 111
2, 82407, Note_on_c, 9, 35, 0
2, 82432, Note_on_c, 9, 35, 112
2, 82663, Note_on_c, 9, 35, 0
2, 82688, Note_on_c, 9, 35, 112
2, 82919, Note_on_c, 9, 35, 0
2, 82944, Note_on_c, 9, 35, 112
2, 83175, Note_on_c, 9, 35, 0
2, 83200, Note_on_c, 9, 35, 110
2, 83431, Note_on_c, 9, 35, 0
2, 83456, Note_on_c, 9, 35, 112
2, 83687, Note_on_c, 9, 35, 0
2, 83712, Note_on_c, 9, 35, 116
2, 83943, Note_on_c, 9, 35, 0
2, 83968, Note_on_c, 9, 35, 111
2, 84199, Note_on_c, 9, 35, 0
2, 84224, Note_on_c, 9, 35, 113
2, 84455, Note_on_c, 9, 35, 0
2, 84480, Note_on_c, 9, 35, 112
2, 84711, Note_on_c, 9, 35, 0
2, 84736, Note_on_c, 9, 35, 110
2, 84967, Note_on_c, 9, 35, 0
2, 84992, Note_on_c, 9, 35, 111
2, 85223, Note_on_c, 9, 35, 0
2, 85248, Note_on_c, 9, 35, 112
2, 85479, Note_on_c, 9, 35, 0
2, 85504, Note_on_c, 9, 35, 127
2, 85504, Note_on_c, 9, 42, 127
2, 85620, Note_on_c, 9, 35, 0
2, 85620, Note_on_c, 9, 42, 0
2, 85632, Note_on_c, 9, 42, 115
2, 85748, Note_on_c, 9, 42, 0
2, 85760, Note_on_c, 9, 40, 113
2, 85760, Note_on_c, 9, 42, 112
2, 85876, Note_on_c, 9, 40, 0
2, 85876, Note_on_c, 9, 42, 0
2, 85888, Note_on_c, 9, 42, 110
2, 86004, Note_on_c, 9, 42, 0
2, 86016, Note_on_c, 9, 35, 112
2, 86016, Note_on_c, 9, 42, 112
2, 86132, Note_on_c, 9, 35, 0
2, 86132, Note_on_c, 9, 42, 0
2, 86144, Note_on_c, 9, 35, 80
2, 86202, Note_on_c, 9, 35, 0
2, 86208, Note_on_c, 9, 40, 95
2, 86266, Note_on_c, 9, 40, 0
2, 86272, Note_on_c, 9, 42, 127
2, 86388, Note_on_c, 9, 42, 0
2, 86400, Note_on_c, 9, 35, 117
2, 86400, Note_on_c, 9, 42, 118
2, 86516, Note_on_c, 9, 35, 0
2, 86516, Note_on_c, 9, 42, 0
2, 86528, Note_on_c, 9, 42, 113
2, 86586, Note_on_c, 9, 42, 0
2, 86592, Note_on_c, 9, 35, 82
2, 86650, Note_on_c, 9, 35, 0
2, 86656, Note_on_c, 9, 40, 97
2, 86772, Note_on_c, 9, 40, 0
2, 86784, Note_on_c, 9, 35, 120
2, 86900, Note_on_c, 9, 35, 0
2, 86912, Note_on_c, 9, 35, 127
2, 86912, Note_on_c, 9, 42, 125
2, 87028, Note_on_c, 9, 35, 0
2, 87028, Note_on_c, 9, 42, 0
2, 87040, Note_on_c, 9, 40, 117
2, 87040, Note_on_c, 9, 42, 118
2, 87156, Note_on_c, 9, 40, 0
2, 87156, Note_on_c, 9, 42, 0
2, 87168, Note_on_c, 9, 46, 81
2, 87284, Note_on_c, 9, 46, 0
2, 87296, Note_on_c, 9, 35, 127
2, 87296, Note_on_c, 9, 42, 127
2, 87412, Note_on_c, 9, 35, 0
2, 87412, Note_on_c, 9, 42, 0
2, 87424, Note_on_c, 9, 42, 115
2, 87540, Note_on_c, 9, 42, 0
2, 87552, Note_on_c, 9, 40, 116
2, 87552, Note_on_c, 9, 42, 112
2, 87668, Note_on_c, 9, 40, 0
2, 87668, Note_on_c, 9, 42, 0
2, 87680, Note_on_c, 9, 42, 113
2, 87796, Note_on_c, 9, 42, 0
2, 87808, Note_on_c, 9, 35, 112
2, 87808, Note_on_c, 9, 42, 112
2, 87924, Note_on_c, 9, 35, 0
2, 87924, Note_on_c, 9, 42, 0
2, 87936, Note_on_c, 9, 35, 79
2, 87994, Note_on_c, 9, 35, 0
2, 88000, Note_on_c, 9, 40, 96
2, 88058, Note_on_c, 9, 40, 0
2, 88064, Note_on_c, 9, 42, 127
2, 88180, Note_on_c, 9, 42, 0
2, 88192, Note_on_c, 9, 35, 118
2, 88192, Note_on_c, 9, 42, 115
2, 88308, Note_on_c, 9, 35, 0
2, 88308, Note_on_c, 9, 42, 0
2, 88320, Note_on_c, 9, 42, 115
2, 88378, Note_on_c, 9, 42, 0
2, 88384, Note_on_c, 9, 35, 80
2, 88442, Note_on_c, 9, 35, 0
2, 88448, Note_on_c, 9, 40, 96
2, 88564, Note_on_c, 9, 40, 0
2, 88576, Note_on_c, 9, 35, 118
2, 88692, Note_on_c, 9, 35, 0
2, 88704, Note_on_c, 9, 35, 127
2, 88704, Note_on_c, 9, 42, 127
2, 88820, Note_on_c, 9, 35, 0
2, 88820, Note_on_c, 9, 42, 0
2, 88832, Note_on_c, 9, 40, 118
2, 88832, Note_on_c, 9, 42, 118
2, 88948, Note_on_c, 9, 40, 0
2, 88948, Note_on_c, 9, 42, 0
2, 88960, Note_on_c, 9, 46, 81
2, 89076, Note_on_c, 9, 46, 0
2, 89088, Note_on_c, 9, 57, 127
2, 89088, Note_on_c, 9, 35, 127
2, 89204, Note_on_c, 9, 57, 0
2, 89204, Note_on_c, 9, 35, 0
2, 89216, Note_on_c, 9, 42, 127
2, 89332, Note_on_c, 9, 42, 0
2, 89344, Note_on_c, 9, 40, 119
2, 89344, Note_on_c, 9, 42, 122
2, 89460, Note_on_c, 9, 40, 0
2, 89460, Note_on_c, 9, 42, 0
2, 89472, Note_on_c, 9, 42, 111
2, 89588, Note_on_c, 9, 42, 0
2, 89600, Note_on_c, 9, 35, 113
2, 89600, Note_on_c, 9, 42, 114
2, 89716, Note_on_c, 9, 35, 0
2, 89716, Note_on_c, 9, 42, 0
2, 89728, Note_on_c, 9, 35, 78
2, 89786, Note_on_c, 9, 35, 0
2, 89792, Note_on_c, 9, 40, 96
2, 89850, Note_on_c, 9, 40, 0
2, 89856, Note_on_c, 9, 42, 127
2, 89972, Note_on_c, 9, 42, 0
2, 89984, Note_on_c, 9, 35, 116
2, 89984, Note_on_c, 9, 42, 117
2, 90100, Note_on_c, 9, 35, 0
2, 90100, Note_on_c, 9, 42, 0
2, 90112, Note_on_c, 9, 42, 114
2, 90170, Note_on_c, 9, 42, 0
2, 90176, Note_on_c, 9, 35, 79
2, 90234, Note_on_c, 9, 35, 0
2, 90240, Note_on_c, 9, 40, 96
2, 90356, Note_on_c, 9, 40, 0
2, 90368, Note_on_c, 9, 35, 119
2, 90484, Note_on_c, 9, 35, 0
2, 90496, Note_on_c, 9, 35, 127
2, 90496, Note_on_c, 9, 42, 127
2, 90612, Note_on_c, 9, 35, 0
2, 90612, Note_on_c, 9, 42, 0
2, 90624, Note_on_c, 9, 40, 117
2, 90624, Note_on_c, 9, 42, 118
2, 90740, Note_on_c, 9, 40, 0
2, 90740, Note_on_c, 9, 42, 0
2, 90752, Note_on_c, 9, 46, 79
2, 90868, Note_on_c, 9, 46, 0
2, 90880, Note_on_c, 9, 35, 127
2, 90880, Note_on_c, 9, 42, 127
2, 90996, Note_on_c, 9, 35, 0
2, 90996, Note_on_c, 9, 42, 0
2, 91008, Note_on_c, 9, 42, 114
2, 91124, Note_on_c, 9, 42, 0
2, 91136, Note_on_c, 9, 40, 114
2, 91136, Note_on_c, 9, 42, 115
2, 91252, Note_on_c, 9, 40, 0
2, 91252, Note_on_c, 9, 42, 0
2, 91264, Note_on_c, 9, 42, 113
2, 91380, Note_on_c, 9, 42, 0
2, 91392, Note_on_c, 9, 35, 112
2, 91392, Note_on_c, 9, 42, 113
2, 91508, Note_on_c, 9, 35, 0
2, 91508, Note_on_c, 9, 42, 0
2, 91520, Note_on_c, 9, 35, 81
2, 91578, Note_on_c, 9, 35, 0
2, 91584, Note_on_c, 9, 40, 95
2, 91642, Note_on_c, 9, 40, 0
2, 91648, Note_on_c, 9, 42, 127
2, 91764, Note_on_c, 9, 42, 0
2, 91776, Note_on_c, 9, 35, 116
2, 91776, Note_on_c, 9, 42, 117
2, 91892, Note_on_c, 9, 35, 0
2, 91892, Note_on_c, 9, 42, 0
2, 91904, Note_on_c, 9, 42, 113
2, 91962, Note_on_c, 9, 42, 0
2, 91968, Note_on_c, 9, 35, 79
2, 92026, Note_on_c, 9, 35, 0
2, 92032, Note_on_c, 9, 40, 96
2, 92148, Note_on_c, 9, 40, 0
2, 92160, Note_on_c, 9, 35, 119
2, 92276, Note_on_c, 9, 35, 0
2, 92288, Note_on_c, 9, 35, 126
2, 92288, Note_on_c, 9, 42, 127
2, 92404, Note_on_c, 9, 35, 0
2, 92404, Note_on_c, 9, 42, 0
2, 92416, Note_on_c, 9, 40, 120
2, 92416, Note_on_c, 9, 42, 120
2, 92532, Note_on_c, 9, 40, 0
2, 92532, Note_on_c, 9, 42, 0
2, 92544, Note_on_c, 9, 46, 80
2, 92660, Note_on_c, 9, 46, 0
2, 92672, Note_on_c, 9, 35, 127
2, 92672, Note_on_c, 9, 42, 127
2, 92788, Note_on_c, 9, 35, 0
2, 92788, Note_on_c, 9, 42, 0
2, 92800, Note_on_c, 9, 42, 114
2, 92916, Note_on_c, 9, 42, 0
2, 92928, Note_on_c, 9, 40, 116
2, 92928, Note_on_c, 9, 42, 113
2, 93044, Note_on_c, 9, 40, 0
2, 93044, Note_on_c, 9, 42, 0
2, 93056, Note_on_c, 9, 42, 111
2, 93172, Note_on_c, 9, 42, 0
2, 93184, Note_on_c, 9, 35, 112
2, 93184, Note_on_c, 9, 42, 114
2, 93300, Note_on_c, 9, 35, 0
2, 93300, Note_on_c, 9, 42, 0
2, 93312, Note_on_c, 9, 35, 78
2, 93370, Note_on_c, 9, 35, 0
2, 93376, Note_on_c, 9, 40, 98
2, 93434, Note_on_c, 9, 40, 0
2, 93440, Note_on_c, 9, 42, 127
2, 93556, Note_on_c, 9, 42, 0
2, 93568, Note_on_c, 9, 35, 117
2, 93568, Note_on_c, 9, 42, 118
2, 93684, Note_on_c, 9, 35, 0
2, 93684, Note_on_c, 9, 42, 0
2, 93696, Note_on_c, 9, 42, 113
2, 93754, Note_on_c, 9, 42, 0
2, 93760, Note_on_c, 9, 35, 82
2, 93818, Note_on_c, 9, 35, 0
2, 93824, Note_on_c, 9, 40, 96
2, 93940, Note_on_c, 9, 40, 0
2, 93952, Note_on_c, 9, 35, 119
2, 94068, Note_on_c, 9, 35, 0
2, 94080, Note_on_c, 9, 35, 126
2, 94080, Note_on_c, 9, 42, 127
2, 94196, Note_on_c, 9, 35, 0
2, 94196, Note_on_c, 9, 42, 0
2, 94208, Note_on_c, 9, 40, 119
2, 94208, Note_on_c, 9, 42, 118
2, 94324, Note_on_c, 9, 40, 0
2, 94324, Note_on_c, 9, 42, 0
2, 94336, Note_on_c, 9, 46, 79
2, 94452, Note_on_c, 9, 46, 0
2, 94464, Note_on_c, 9, 35, 127
2, 94464, Note_on_c, 9, 42, 127
2, 94580, Note_on_c, 9, 35, 0
2, 94580, Note_on_c, 9, 42, 0
2, 94592, Note_on_c, 9, 42, 115
2, 94708, Note_on_c, 9, 42, 0
2, 94720, Note_on_c, 9, 40, 114
2, 94720, Note_on_c, 9, 42, 114
2, 94836, Note_on_c, 9, 40, 0
2, 94836, Note_on_c, 9, 42, 0
2, 94848, Note_on_c, 9, 42, 111
2, 94964, Note_on_c, 9, 42, 0
2, 94976, Note_on_c, 9, 35, 115
2, 94976, Note_on_c, 9, 42, 113
2, 95092, Note_on_c, 9, 35, 0
2, 95092, Note_on_c, 9, 42, 0
2, 95104, Note_on_c, 9, 35, 81
2, 95162, Note_on_c, 9, 35, 0
2, 95168, Note_on_c, 9, 40, 97
2, 95226, Note_on_c, 9, 40, 0
2, 95232, Note_on_c, 9, 42, 127
2, 95348, Note_on_c, 9, 42, 0
2, 95360, Note_on_c, 9, 35, 116
2, 95360, Note_on_c, 9, 42, 118
2, 95476, Note_on_c, 9, 35, 0
2, 95476, Note_on_c, 9, 42, 0
2, 95488, Note_on_c, 9, 42, 112
2, 95546, Note_on_c, 9, 42, 0
2, 95552, Note_on_c, 9, 35, 82
2, 95610, Note_on_c, 9, 35, 0
2, 95616, Note_on_c, 9, 40, 94
2, 95732, Note_on_c, 9, 40, 0
2, 95744, Note_on_c, 9, 35, 118
2, 95860, Note_on_c, 9, 35, 0
2, 95872, Note_on_c, 9, 35, 127
2, 95872, Note_on_c, 9, 42, 125
2, 95988, Note_on_c, 9, 35, 0
2, 95988, Note_on_c, 9, 42, 0
2, 96000, Note_on_c, 9, 40, 119
2, 96000, Note_on_c, 9, 42, 117
2, 96116, Note_on_c, 9, 40, 0
2, 96116, Note_on_c, 9, 42, 0
2, 96128, Note_on_c, 9, 46, 79
2, 96244, Note_on_c, 9, 46, 0
2, 96256, Note_on_c, 9, 57, 127
2, 96256, Note_on_c, 9, 35, 127
2, 96372, Note_on_c, 9, 57, 0
2, 96372, Note_on_c, 9, 35, 0
2, 96384, Note_on_c, 9, 42, 127
2, 96500, Note_on_c, 9, 42, 0
2, 96512, Note_on_c, 9, 40, 119
2, 96512, Note_on_c, 9, 42, 119
2, 96628, Note_on_c, 9, 40, 0
2, 96628, Note_on_c, 9, 42, 0
2, 96640, Note_on_c, 9, 42, 110
2, 96756, Note_on_c, 9, 42, 0
2, 96768, Note_on_c, 9, 35, 114
2, 96768, Note_on_c, 9, 42, 115
2, 96884, Note_on_c, 9, 35, 0
2, 96884, Note_on_c, 9, 42, 0
2, 96896, Note_on_c, 9, 35, 79
2, 96954, Note_on_c, 9, 35, 0
2, 96960, Note_on_c, 9, 40, 97
2, 97018, Note_on_c, 9, 40, 0
2, 97024, Note_on_c, 9, 42, 127
2, 97140, Note_on_c, 9, 42, 0
2, 97152, Note_on_c, 9, 35, 114
2, 97152, Note_on_c, 9, 42, 116
2, 97268, Note_on_c, 9, 35, 0
2, 97268, Note_on_c, 9, 42, 0
2, 97280, Note_on_c, 9, 42, 115
2, 97338, Note_on_c, 9, 42, 0
2, 97344, Note_on_c, 9, 35, 79
2, 97402, Note_on_c, 9, 35, 0
2, 97408, Note_on_c, 9, 40, 96
2, 97524, Note_on_c, 9, 40, 0
2, 97536, Note_on_c, 9, 35, 119
2, 97652, Note_on_c, 9, 35, 0
2, 97664, Note_on_c, 9, 35, 126
2, 97664, Note_on_c, 9, 42, 127
2, 97780, Note_on_c, 9, 35, 0
2, 97780, Note_on_c, 9, 42, 0
2, 97792, Note_on_c, 9, 40, 121
2, 97792, Note_on_c, 9, 42, 118
2, 97908, Note_on_c, 9, 40, 0
2, 97908, Note_on_c, 9, 42, 0
2, 97920, Note_on_c, 9, 46, 80
2, 98036, Note_on_c, 9, 46, 0
2, 98048, Note_on_c, 9, 35, 127
2, 98048, Note_on_c, 9, 42, 127
2, 98164, Note_on_c, 9, 35, 0
2, 98164, Note_on_c, 9, 42, 0
2, 98176, Note_on_c, 9, 42, 115
2, 98292, Note_on_c, 9, 42, 0
2, 98304, Note_on_c, 9, 40, 113
2, 98304, Note_on_c, 9, 42, 114
2, 98420, Note_on_c, 9, 40, 0
2, 98420, Note_on_c, 9, 42, 0
2, 98432, Note_on_c, 9, 42, 109
2, 98548, Note_on_c, 9, 42, 0
2, 98560, Note_on_c, 9, 35, 115
2, 98560, Note_on_c, 9, 42, 115
2, 98676, Note_on_c, 9, 35, 0
2, 98676, Note_on_c, 9, 42, 0
2, 98688, Note_on_c, 9, 35, 78
2, 98746, Note_on_c, 9, 35, 0
2, 98752, Note_on_c, 9, 40, 96
2, 98810, Note_on_c, 9, 40, 0
2, 98816, Note_on_c, 9, 42, 127
2, 98932, Note_on_c, 9, 42, 0
2, 98944, Note_on_c, 9, 35, 115
2, 98944, Note_on_c, 9, 42, 115
2, 99060, Note_on_c, 9, 35, 0
2, 99060, Note_on_c, 9, 42, 0
2, 99072, Note_on_c, 9, 42, 112
2, 99130, Note_on_c, 9, 42, 0
2, 99136, Note_on_c, 9, 35, 82
2, 99194, Note_on_c, 9, 35, 0
2, 99200, Note_on_c, 9, 40, 98
2, 99316, Note_on_c, 9, 40, 0
2, 99328, Note_on_c, 9, 35, 121
2, 99444, Note_on_c, 9, 35, 0
2, 99456, Note_on_c, 9, 35, 126
2, 99456, Note_on_c, 9, 42, 127
2, 99572, Note_on_c, 9, 35, 0
2, 99572, Note_on_c, 9, 42, 0
2, 99584, Note_on_c, 9, 40, 119
2, 99584, Note_on_c, 9, 42, 118
2, 99700, Note_on_c, 9, 40, 0
2, 99700, Note_on_c, 9, 42, 0
2, 99712, Note_on_c, 9, 46, 79
2, 99828, Note_on_c, 9, 46, 0
2, 99840, Note_on_c, 9, 52, 127
2, 99840, Note_on_c, 9, 35, 127
2, 99956, Note_on_c, 9, 52, 0
2, 99956, Note_on_c, 9, 35, 0
2, 99968, Note_on_c, 9, 46, 85
2, 100084, Note_on_c, 9, 46, 0
2, 100096, Note_on_c, 9, 52, 127
2, 100096, Note_on_c, 9, 35, 127
2, 100212, Note_on_c, 9, 52, 0
2, 100212, Note_on_c, 9, 35, 0
2, 100224, Note_on_c, 9, 46, 83
2, 100340, Note_on_c, 9, 46, 0
2, 100352, Note_on_c, 9, 52, 127
2, 100352, Note_on_c, 9, 35, 127
2, 100468, Note_on_c, 9, 52, 0
2, 100468, Note_on_c, 9, 35, 0
2, 100480, Note_on_c, 9, 46, 82
2, 100596, Note_on_c, 9, 46, 0
2, 100608, Note_on_c, 9, 52, 127
2, 100608, Note_on_c, 9, 35, 127
2, 100724, Note_on_c, 9, 52, 0
2, 100724, Note_on_c, 9, 35, 0
2, 100736, Note_on_c, 9, 46, 84
2, 100852, Note_on_c, 9, 46, 0
2, 100864, Note_on_c, 9, 52, 127
2, 100864, Note_on_c, 9, 35, 127
2, 100980, Note_on_c, 9, 52, 0
2, 100980, Note_on_c, 9, 35, 0
2, 100992, Note_on_c, 9, 46, 83
2, 101108, Note_on_c, 9, 46, 0
2, 101120, Note_on_c, 9, 52, 127
2, 101120, Note_on_c, 9, 35, 127
2, 101236, Note_on_c, 9, 52, 0
2, 101236, Note_on_c, 9, 35, 0
2, 101248, Note_on_c, 9, 46, 84
2, 101364, Note_on_c, 9, 46, 0
2, 101376, Note_on_c, 9, 52, 127
2, 101376, Note_on_c, 9, 35, 127
2, 101492, Note_on_c, 9, 52, 0
2, 101492, Note_on_c, 9, 35, 0
2, 101504, Note_on_c, 9, 46, 83
2, 101620, Note_on_c, 9, 46, 0
2, 101632, Note_on_c, 9, 52, 127
2, 101632, Note_on_c, 9, 35, 127
2, 101748, Note_on_c, 9, 52, 0
2, 101748, Note_on_c, 9, 35, 0
2, 101760, Note_on_c, 9, 46, 86
2, 101876, Note_on_c, 9, 46, 0
2, 101888, Note_on_c, 9, 52, 127
2, 101888, Note_on_c, 9, 35, 127
2, 102004, Note_on_c, 9, 52, 0
2, 102004, Note_on_c, 9, 35, 0
2, 102016, Note_on_c, 9, 46, 83
2, 102132, Note_on_c, 9, 46, 0
2, 102144, Note_on_c, 9, 52, 127
2, 102144, Note_on_c, 9, 35, 127
2, 102260, Note_on_c, 9, 52, 0
2, 102260, Note_on_c, 9, 35, 0
2, 102272, Note_on_c, 9, 46, 83
2, 102388, Note_on_c, 9, 46, 0
2, 102400, Note_on_c, 9, 52, 127
2, 102400, Note_on_c, 9, 35, 127
2, 102516, Note_on_c, 9, 52, 0
2, 102516, Note_on_c, 9, 35, 0
2, 102528, Note_on_c, 9, 46, 85
2, 102644, Note_on_c, 9, 46, 0
2, 102656, Note_on_c, 9, 52, 127
2, 102656, Note_on_c, 9, 35, 127
2, 102772, Note_on_c, 9, 52, 0
2, 102772, Note_on_c, 9, 35, 0
2, 102784, Note_on_c, 9, 46, 84
2, 102900, Note_on_c, 9, 46, 0
2, 102912, Note_on_c, 9, 52, 127
2, 102912, Note_on_c, 9, 35, 127
2, 103028, Note_on_c, 9, 52, 0
2, 103028, Note_on_c, 9, 35, 0
2, 103040, Note_on_c, 9, 46, 83
2, 103156, Note_on_c, 9, 46, 0
2, 103168, Note_on_c, 9, 52, 127
2, 103168, Note_on_c, 9, 35, 127
2, 103284, Note_on_c, 9, 52, 0
2, 103284, Note_on_c, 9, 35, 0
2, 103296, Note_on_c, 9, 46, 85
2, 103412, Note_on_c, 9, 46, 0
2, 103424, Note_on_c, 9, 52, 127
2, 103424, Note_on_c, 9, 35, 127
2, 103540, Note_on_c, 9, 52, 0
2, 103540, Note_on_c, 9, 35, 0
2, 103552, Note_on_c, 9, 46, 83
2, 103668, Note_on_c, 9, 46, 0
2, 103680, Note_on_c, 9, 52, 127
2, 103680, Note_on_c, 9, 35, 127
2, 103796, Note_on_c, 9, 52, 0
2, 103796, Note_on_c, 9, 35, 0
2, 103808, Note_on_c, 9, 46, 86
2, 103924, Note_on_c, 9, 46, 0
2, 103936, Note_on_c, 9, 52, 127
2, 103936, Note_on_c, 9, 35, 127
2, 104052, Note_on_c, 9, 52, 0
2, 104052, Note_on_c, 9, 35, 0
2, 104064, Note_on_c, 9, 46, 86
2, 104180, Note_on_c, 9, 46, 0
2, 104192, Note_on_c, 9, 52, 127
2, 104192, Note_on_c, 9, 35, 127
2, 104308, Note_on_c, 9, 52, 0
2, 104308, Note_on_c, 9, 35, 0
2, 104320, Note_on_c, 9, 46, 83
2, 104436, Note_on_c, 9, 46, 0
2, 104448, Note_on_c, 9, 52, 127
2, 104448, Note_on_c, 9, 35, 127
2, 104564, Note_on_c, 9, 52, 0
2, 104564, Note_on_c, 9, 35, 0
2, 104576, Note_on_c, 9, 46, 84
2, 104692, Note_on_c, 9, 46, 0
2, 104704, Note_on_c, 9, 52, 127
2, 104704, Note_on_c, 9, 35, 127
2, 104820, Note_on_c, 9, 52, 0
2, 104820, Note_on_c, 9, 35, 0
2, 104832, Note_on_c, 9, 46, 83
2, 104948, Note_on_c, 9, 46, 0
2, 104960, Note_on_c, 9, 52, 127
2, 104960, Note_on_c, 9, 35, 127
2, 105076, Note_on_c, 9, 52, 0
2, 105076, Note_on_c, 9, 35, 0
2, 105088, Note_on_c, 9, 46, 86
2, 105204, Note_on_c, 9, 46, 0
2, 105216, Note_on_c, 9, 52, 127
2, 105216, Note_on_c, 9, 35, 127
2, 105332, Note_on_c, 9, 52, 0
2, 105332, Note_on_c, 9, 35, 0
2, 105344, Note_on_c, 9, 46, 84
2, 105460, Note_on_c, 9, 46, 0
2, 105472, Note_on_c, 9, 52, 127
2, 105472, Note_on_c, 9, 35, 127
2, 105588, Note_on_c, 9, 52, 0
2, 105588, Note_on_c, 9, 35, 0
2, 105600, Note_on_c, 9, 46, 85
2, 105716, Note_on_c, 9, 46, 0
2, 105728, Note_on_c, 9, 52, 127
2, 105728, Note_on_c, 9, 35, 127
2, 105844, Note_on_c, 9, 52, 0
2, 105844, Note_on_c, 9, 35, 0
2, 105856, Note_on_c, 9, 46, 86
2, 105972, Note_on_c, 9, 46, 0
2, 105984, Note_on_c, 9, 57, 127
2, 105984, Note_on_c, 9, 35, 127
2, 106100, Note_on_c, 9, 57, 0
2, 106100, Note_on_c, 9, 35, 0
2, 106112, Note_on_c, 9, 46, 84
2, 106228, Note_on_c, 9, 46, 0
2, 106240, Note_on_c, 9, 40, 127
2, 106240, Note_on_c, 9, 35, 127
2, 106356, Note_on_c, 9, 40, 0
2, 106356, Note_on_c, 9, 35, 0
2, 106368, Note_on_c, 9, 46, 84
2, 106484, Note_on_c, 9, 46, 0
2, 106496, Note_on_c, 9, 35, 127
2, 106612, Note_on_c, 9, 35, 0
2, 106624, Note_on_c, 9, 46, 85
2, 106740, Note_on_c, 9, 46, 0
2, 106752, Note_on_c, 9, 40, 127
2, 106752, Note_on_c, 9, 35, 127
2, 106868, Note_on_c, 9, 40, 0
2, 106868, Note_on_c, 9, 35, 0
2, 106880, Note_on_c, 9, 46, 86
2, 106996, Note_on_c, 9, 46, 0
2, 107008, Note_on_c, 9, 35, 127
2, 107124, Note_on_c, 9, 35, 0
2, 107136, Note_on_c, 9, 46, 83
2, 107252, Note_on_c, 9, 46, 0
2, 107264, Note_on_c, 9, 40, 127
2, 107264, Note_on_c, 9, 35, 127
2, 107380, Note_on_c, 9, 40, 0
2, 107380, Note_on_c, 9, 35, 0
2, 107392, Note_on_c, 9, 46, 82
2, 107508, Note_on_c, 9, 46, 0
2, 107520, Note_on_c, 9, 35, 127
2, 107636, Note_on_c, 9, 35, 0
2, 107648, Note_on_c, 9, 46, 85
2, 107764, Note_on_c, 9, 46, 0
2, 107776, Note_on_c, 9, 40, 127
2, 107776, Note_on_c, 9, 35, 127
2, 107892, Note_on_c, 9, 40, 0
2, 107892, Note_on_c, 9, 35, 0
2, 107904, Note_on_c, 9, 46, 84
2, 108020, Note_on_c, 9, 46, 0
2, 108032, Note_on_c, 9, 35, 127
2, 108148, Note_on_c, 9, 35, 0
2, 108160, Note_on_c, 9, 46, 86
2, 108276, Note_on_c, 9, 46, 0
2, 108288, Note_on_c, 9, 40, 127
2, 108288, Note_on_c, 9, 35, 127
2, 108404, Note_on_c, 9, 40, 0
2, 108404, Note_on_c, 9, 35, 0
2, 108416, Note_on_c, 9, 46, 84
2, 108532, Note_on_c, 9, 46, 0
2, 108544, Note_on_c, 9, 35, 127
2, 108660, Note_on_c, 9, 35, 0
2, 108672, Note_on_c, 9, 46, 83
2, 108788, Note_on_c, 9, 46, 0
2, 108800, Note_on_c, 9, 40, 127
2, 108800, Note_on_c, 9, 35, 127
2, 108916, Note_on_c, 9, 40, 0
2, 108916, Note_on_c, 9, 35, 0
2, 108928, Note_on_c, 9, 46, 84
2, 109044, Note_on_c, 9, 46, 0
2, 109056, Note_on_c, 9, 35, 127
2, 109172, Note_on_c, 9, 35, 0
2, 109184, Note_on_c, 9, 46, 82
2, 109300, Note_on_c, 9, 46, 0
2, 109312, Note_on_c, 9, 40, 127
2, 109312, Note_on_c, 9, 35, 127
2, 109428, Note_on_c, 9, 40, 0
2, 109428, Note_on_c, 9, 35, 0
2, 109440, Note_on_c, 9, 46, 84
2, 109556, Note_on_c, 9, 46, 0
2, 109568, Note_on_c, 9, 35, 127
2, 109684, Note_on_c, 9, 35, 0
2, 109696, Note_on_c, 9, 46, 85
2, 109812, Note_on_c, 9, 46, 0
2, 109824, Note_on_c, 9, 40, 127
2, 109824, Note_on_c, 9, 35, 127
2, 109940, Note_on_c, 9, 40, 0
2, 109940, Note_on_c, 9, 35, 0
2, 109952, Note_on_c, 9, 46, 83
2, 110068, Note_on_c, 9, 46, 0
2, 110080, Note_on_c, 9, 35, 127
2, 110196, Note_on_c, 9, 35, 0
2, 110208, Note_on_c, 9, 46, 86
2, 110324, Note_on_c, 9, 46, 0
2, 110336, Note_on_c, 9, 40, 127
2, 110336, Note_on_c, 9, 35, 127
2, 110452, Note_on_c, 9, 40, 0
2, 110452, Note_on_c, 9, 35, 0
2, 110464, Note_on_c, 9, 46, 84
2, 110580, Note_on_c, 9, 46, 0
2, 110592, Note_on_c, 9, 35, 127
2, 110708, Note_on_c, 9, 35, 0
2, 110720, Note_on_c, 9, 46, 83
2, 110836, Note_on_c, 9, 46, 0
2, 110848, Note_on_c, 9, 40, 127
2, 110848, Note_on_c, 9, 35, 127
2, 110964, Note_on_c, 9, 40, 0
2, 110964, Note_on_c, 9, 35, 0
2, 110976, Note_on_c, 9, 46, 83
2, 111092, Note_on_c, 9, 46, 0
2, 111104, Note_on_c, 9, 35, 127
2, 111220, Note_on_c, 9, 35, 0
2, 111232, Note_on_c, 9, 46, 83
2, 111348, Note_on_c, 9, 46, 0
2, 111360, Note_on_c, 9, 40, 127
2, 111360, Note_on_c, 9, 35, 127
2, 111476, Note_on_c, 9, 40, 0
2, 111476, Note_on_c, 9, 35, 0
2, 111488, Note_on_c, 9, 46, 84
2, 111604, Note_on_c, 9, 46, 0
2, 111616, Note_on_c, 9, 35, 127
2, 111732, Note_on_c, 9, 35, 0
2, 111744, Note_on_c, 9, 46, 84
2, 111860, Note_on_c, 9, 46, 0
2, 111872, Note_on_c, 9, 40, 127
2, 111872, Note_on_c, 9, 35, 127
2, 111988, Note_on_c, 9, 40, 0
2, 111988, Note_on_c, 9, 35, 0
2, 112000, Note_on_c, 9, 46, 83
2, 112116, Note_on_c, 9, 46, 0
2, 112128, Note_on_c, 9, 57, 127
2, 112128, Note_on_c, 9, 35, 127
2, 112244, Note_on_c, 9, 57, 0
2, 112244, Note_on_c, 9, 35, 0
2, 112256, Note_on_c, 9, 48, 84
2, 112294, Note_on_c, 9, 48, 0
2, 112298, Note_on_c, 9, 45, 98
2, 112337, Note_on_c, 9, 45, 0
2, 112341, Note_on_c, 9, 43, 103
2, 112380, Note_on_c, 9, 43, 0
2, 112384, Note_on_c, 9, 41, 104
2, 112500, Note_on_c, 9, 41, 0
2, 112512, Note_on_c, 9, 35, 127
2, 112512, Note_on_c, 9, 55, 127
2, 112628, Note_on_c, 9, 35, 0
2, 112628, Note_on_c, 9, 55, 0
2, 112640, Note_on_c, 9, 42, 127
2, 112756, Note_on_c, 9, 42, 0
2, 112768, Note_on_c, 9, 42, 113
2, 112884, Note_on_c, 9, 42, 0
2, 112896, Note_on_c, 9, 42, 115
2, 113012, Note_on_c, 9, 42, 0
2, 113024, Note_on_c, 9, 42, 109
2, 113140, Note_on_c, 9, 42, 0
2, 113152, Note_on_c, 9, 55, 95
2, 113152, Note_on_c, 9, 40, 96
2, 113210, Note_on_c, 9, 55, 0
2, 113210, Note_on_c, 9, 40, 0
2, 113216, Note_on_c, 9, 35, 114
2, 113274, Note_on_c, 9, 35, 0
2, 113280, Note_on_c, 9, 42, 127
2, 113338, Note_on_c, 9, 42, 0
2, 113344, Note_on_c, 9, 35, 86
2, 113402, Note_on_c, 9, 35, 0
2, 113408, Note_on_c, 9, 42, 127
2, 113466, Note_on_c, 9, 42, 0
2, 113472, Note_on_c, 9, 35, 84
2, 113530, Note_on_c, 9, 35, 0
2, 113536, Note_on_c, 9, 57, 107
2, 113536, Note_on_c, 9, 35, 106
2, 113594, Note_on_c, 9, 57, 0
2, 113594, Note_on_c, 9, 35, 0
2, 113600, Note_on_c, 9, 35, 112
2, 113658, Note_on_c, 9, 35, 0
2, 113664, Note_on_c, 9, 42, 127
2, 113722, Note_on_c, 9, 42, 0
2, 113728, Note_on_c, 9, 35, 84
2, 113786, Note_on_c, 9, 35, 0
2, 113792, Note_on_c, 9, 42, 127
2, 113850, Note_on_c, 9, 42, 0
2, 113856, Note_on_c, 9, 35, 85
2, 113914, Note_on_c, 9, 35, 0
2, 113920, Note_on_c, 9, 35, 108
2, 113978, Note_on_c, 9, 35, 0
2, 113984, Note_on_c, 9, 35, 111
2, 114042, Note_on_c, 9, 35, 0
2, 114048, Note_on_c, 9, 55, 111
2, 114048, Note_on_c, 9, 40, 108
2, 114164, Note_on_c, 9, 55, 0
2, 114164, Note_on_c, 9, 40, 0
2, 114176, Note_on_c, 9, 35, 87
2, 114292, Note_on_c, 9, 35, 0
2, 114304, Note_on_c, 9, 46, 57
2, 114420, Note_on_c, 9, 46, 0
2, 114432, Note_on_c, 9, 35, 100
2, 114548, Note_on_c, 9, 35, 0
2, 114560, Note_on_c, 9, 46, 63
2, 114676, Note_on_c, 9, 46, 0
2, 114688, Note_on_c, 9, 35, 100
2, 114804, Note_on_c, 9, 35, 0
2, 114816, Note_on_c, 9, 46, 61
2, 114932, Note_on_c, 9, 46, 0
2, 114944, Note_on_c, 9, 35, 99
2, 115060, Note_on_c, 9, 35, 0
2, 115072, Note_on_c, 9, 46, 60
2, 115188, Note_on_c, 9, 46, 0
2, 115200, Note_on_c, 9, 35, 99
2, 115316, Note_on_c, 9, 35, 0
2, 115328, Note_on_c, 9, 46, 60
2, 115444, Note_on_c, 9, 46, 0
2, 115456, Note_on_c, 9, 35, 102
2, 115572, Note_on_c, 9, 35, 0
2, 115584, Note_on_c, 9, 46, 62
2, 115700, Note_on_c, 9, 46, 0
2, 115712, Note_on_c, 9, 35, 103
2, 115828, Note_on_c, 9, 35, 0
2, 115840, Note_on_c, 9, 46, 60
2, 115956, Note_on_c, 9, 46, 0
2, 115968, Note_on_c, 9, 35, 102
2, 116084, Note_on_c, 9, 35, 0
2, 116096, Note_on_c, 9, 46, 63
2, 116212, Note_on_c, 9, 46, 0
2, 116224, Note_on_c, 9, 52, 101
2, 116224, Note_on_c, 9, 35, 102
2, 116455, Note_on_c, 9, 52, 0
2, 116455, Note_on_c, 9, 35, 0
2, 116480, Note_on_c, 9, 52, 85
2, 116480, Note_on_c, 9, 35, 84
2, 116711, Note_on_c, 9, 52, 0
2, 116711, Note_on_c, 9, 35, 0
2, 116736, Note_on_c, 9, 52, 82
2, 116736, Note_on_c, 9, 35, 81
2, 116967, Note_on_c, 9, 52, 0
2, 116967, Note_on_c, 9, 35, 0
2, 116992, Note_on_c, 9, 52, 81
2, 116992, Note_on_c, 9, 35, 80
2, 117223, Note_on_c, 9, 52, 0
2, 117223, Note_on_c, 9, 35, 0
2, 117248, Note_on_c, 9, 52, 83
2, 117248, Note_on_c, 9, 35, 83
2, 117479, Note_on_c, 9, 52, 0
2, 117479, Note_on_c, 9, 35, 0
2, 117504, Note_on_c, 9, 52, 80
2, 117504, Note_on_c, 9, 35, 80
2, 117735, Note_on_c, 9, 52, 0
2, 117735, Note_on_c, 9, 35, 0
2, 117760, Note_on_c, 9, 52, 79
2, 117760, Note_on_c, 9, 35, 80
2, 117991, Note_on_c, 9, 52, 0
2, 117991, Note_on_c, 9, 35, 0
2, 118016, Note_on_c, 9, 52, 78
2, 118016, Note_on_c, 9, 35, 80
2, 118247, Note_on_c, 9, 52, 0
2, 118247, Note_on_c, 9, 35, 0
2, 118272, Note_on_c, 9, 35, 82
2, 118388, Note_on_c, 9, 35, 0
2, 118400, Note_on_c, 9, 46, 60
2, 118516, Note_on_c, 9, 46, 0
2, 118528, Note_on_c, 9, 35, 99
2, 118644, Note_on_c, 9, 35, 0
2, 118656, Note_on_c, 9, 46, 63
2, 118772, Note_on_c, 9, 46, 0
2, 118784, Note_on_c, 9, 35, 101
2, 118900, Note_on_c, 9, 35, 0
2, 118912, Note_on_c, 9, 46, 62
2, 119028, Note_on_c, 9, 46, 0
2, 119040, Note_on_c, 9, 35, 102
2, 119156, Note_on_c, 9, 35, 0
2, 119168, Note_on_c, 9, 46, 60
2, 119284, Note_on_c, 9, 46, 0
2, 119296, Note_on_c, 9, 35, 103
2, 119412, Note_on_c, 9, 35, 0
2, 119424, Note_on_c, 9, 46, 61
2, 119540, Note_on_c, 9, 46, 0
2, 119552, Note_on_c, 9, 35, 102
2, 119668, Note_on_c, 9, 35, 0
2, 119680, Note_on_c, 9, 46, 62
2, 119796, Note_on_c, 9, 46, 0
2, 119808, Note_on_c, 9, 35, 99
2, 119924, Note_on_c, 9, 35, 0
2, 119936, Note_on_c, 9, 46, 62
2, 120052, Note_on_c, 9, 46, 0
2, 120064, Note_on_c, 9, 35, 102
2, 120180, Note_on_c, 9, 35, 0
2, 120192, Note_on_c, 9, 46, 59
2, 120308, Note_on_c, 9, 46, 0
2, 120320, Note_on_c, 9, 52, 102
2, 120320, Note_on_c, 9, 35, 100
2, 120551, Note_on_c, 9, 52, 0
2, 120551, Note_on_c, 9, 35, 0
2, 120576, Note_on_c, 9, 52, 84
2, 120576, Note_on_c, 9, 35, 83
2, 120807, Note_on_c, 9, 52, 0
2, 120807, Note_on_c, 9, 35, 0
2, 120832, Note_on_c, 9, 52, 80
2, 120832, Note_on_c, 9, 35, 79
2, 121063, Note_on_c, 9, 52, 0
2, 121063, Note_on_c, 9, 35, 0
2, 121088, Note_on_c, 9, 52, 82
2, 121088, Note_on_c, 9, 35, 81
2, 121319, Note_on_c, 9, 52, 0
2, 121319, Note_on_c, 9, 35, 0
2, 121344, Note_on_c, 9, 52, 84
2, 121344, Note_on_c, 9, 35, 81
2, 121575, Note_on_c, 9, 52, 0
2, 121575, Note_on_c, 9, 35, 0
2, 121600, Note_on_c, 9, 52, 80
2, 121600, Note_on_c, 9, 35, 79
2, 121831, Note_on_c, 9, 52, 0
2, 121831, Note_on_c, 9, 35, 0
2, 121856, Note_on_c, 9, 52, 81
2, 121856, Note_on_c, 9, 35, 79
2, 122087, Note_on_c, 9, 52, 0
2, 122087, Note_on_c, 9, 35, 0
2, 122112, Note_on_c, 9, 52, 81
2, 122112, Note_on_c, 9, 35, 79
2, 122343, Note_on_c, 9, 52, 0
2, 122343, Note_on_c, 9, 35, 0
2, 122368, Note_on_c, 9, 35, 85
2, 122484, Note_on_c, 9, 35, 0
2, 122496, Note_on_c, 9, 46, 57
2, 122612, Note_on_c, 9, 46, 0
2, 122624, Note_on_c, 9, 35, 100
2, 122740, Note_on_c, 9, 35, 0
2, 122752, Note_on_c, 9, 46, 59
2, 122868, Note_on_c, 9, 46, 0
2, 122880, Note_on_c, 9, 35, 101
2, 122996, Note_on_c, 9, 35, 0
2, 123008, Note_on_c, 9, 46, 63
2, 123124, Note_on_c, 9, 46, 0
2, 123136, Note_on_c, 9, 35, 102
2, 123252, Note_on_c, 9, 35, 0
2, 123264, Note_on_c, 9, 46, 62
2, 123380, Note_on_c, 9, 46, 0
2, 123392, Note_on_c, 9, 35, 101
2, 123508, Note_on_c, 9, 35, 0
2, 123520, Note_on_c, 9, 46, 62
2, 123636, Note_on_c, 9, 46, 0
2, 123648, Note_on_c, 9, 35, 99
2, 123764, Note_on_c, 9, 35, 0
2, 123776, Note_on_c, 9, 46, 60
2, 123892, Note_on_c, 9, 46, 0
2, 123904, Note_on_c, 9, 35, 99
2, 124020, Note_on_c, 9, 35, 0
2, 124032, Note_on_c, 9, 46, 63
2, 124148, Note_on_c, 9, 46, 0
2, 124160, Note_on_c, 9, 35, 100
2, 124276, Note_on_c, 9, 35, 0
2, 124288, Note_on_c, 9, 46, 59
2, 124404, Note_on_c, 9, 46, 0
2, 124416, Note_on_c, 9, 35, 99
2, 124416, Note_on_c, 9, 55, 101
2, 124532, Note_on_c, 9, 35, 0
2, 124532, Note_on_c, 9, 55, 0
2, 124544, Note_on_c, 9, 46, 61
2, 124660, Note_on_c, 9, 46, 0
2, 124672, Note_on_c, 9, 40, 100
2, 124672, Note_on_c, 9, 35, 99
2, 124788, Note_on_c, 9, 40, 0
2, 124788, Note_on_c, 9, 35, 0
2, 124800, Note_on_c, 9, 46, 61
2, 124916, Note_on_c, 9, 46, 0
2, 124928, Note_on_c, 9, 35, 99
2, 124928, Note_on_c, 9, 42, 103
2, 125044, Note_on_c, 9, 35, 0
2, 125044, Note_on_c, 9, 42, 0
2, 125056, Note_on_c, 9, 46, 59
2, 125172, Note_on_c, 9, 46, 0
2, 125184, Note_on_c, 9, 40, 99
2, 125184, Note_on_c, 9, 35, 101
2, 125300, Note_on_c, 9, 40, 0
2, 125300, Note_on_c, 9, 35, 0
2, 125312, Note_on_c, 9, 46, 62
2, 125428, Note_on_c, 9, 46, 0
2, 125440, Note_on_c, 9, 35, 101
2, 125440, Note_on_c, 9, 42, 103
2, 125556, Note_on_c, 9, 35, 0
2, 125556, Note_on_c, 9, 42, 0
2, 125568, Note_on_c, 9, 46, 61
2, 125684, Note_on_c, 9, 46, 0
2, 125696, Note_on_c, 9, 40, 102
2, 125696, Note_on_c, 9, 35, 99
2, 125812, Note_on_c, 9, 40, 0
2, 125812, Note_on_c, 9, 35, 0
2, 125824, Note_on_c, 9, 46, 63
2, 125940, Note_on_c, 9, 46, 0
2, 125952, Note_on_c, 9, 35, 102
2, 125952, Note_on_c, 9, 42, 100
2, 126068, Note_on_c, 9, 35, 0
2, 126068, Note_on_c, 9, 42, 0
2, 126080, Note_on_c, 9, 46, 59
2, 126196, Note_on_c, 9, 46, 0
2, 126208, Note_on_c, 9, 40, 101
2, 126208, Note_on_c, 9, 35, 99
2, 126266, Note_on_c, 9, 40, 0
2, 126266, Note_on_c, 9, 35, 0
2, 126272, Note_on_c, 9, 42, 103
2, 126330, Note_on_c, 9, 42, 0
2, 126336, Note_on_c, 9, 46, 64
2, 126452, Note_on_c, 9, 46, 0
2, 126464, Note_on_c, 9, 35, 102
2, 126464, Note_on_c, 9, 42, 103
2, 126580, Note_on_c, 9, 35, 0
2, 126580, Note_on_c, 9, 42, 0
2, 126592, Note_on_c, 9, 46, 59
2, 126708, Note_on_c, 9, 46, 0
2, 126720, Note_on_c, 9, 40, 103
2, 126720, Note_on_c, 9, 35, 101
2, 126836, Note_on_c, 9, 40, 0
2, 126836, Note_on_c, 9, 35, 0
2, 126848, Note_on_c, 9, 46, 60
2, 126964, Note_on_c, 9, 46, 0
2, 126976, Note_on_c, 9, 35, 99
2, 126976, Note_on_c, 9, 42, 100
2, 127092, Note_on_c, 9, 35, 0
2, 127092, Note_on_c, 9, 42, 0
2, 127104, Note_on_c, 9, 46, 59
2, 127220, Note_on_c, 9, 46, 0
2, 127232, Note_on_c, 9, 40, 103
2, 127232, Note_on_c, 9, 35, 100
2, 127348, Note_on_c, 9, 40, 0
2, 127348, Note_on_c, 9, 35, 0
2, 127360, Note_on_c, 9, 46, 62
2, 127476, Note_on_c, 9, 46, 0
2, 127488, Note_on_c, 9, 35, 100
2, 127488, Note_on_c, 9, 42, 99
2, 127604, Note_on_c, 9, 35, 0
2, 127604, Note_on_c, 9, 42, 0
2, 127616, Note_on_c, 9, 46, 61
2, 127732, Note_on_c, 9, 46, 0
2, 127744, Note_on_c, 9, 40, 102
2, 127744, Note_on_c, 9, 35, 100
2, 127860, Note_on_c, 9, 40, 0
2, 127860, Note_on_c, 9, 35, 0
2, 127872, Note_on_c, 9, 46, 61
2, 127988, Note_on_c, 9, 46, 0
2, 128000, Note_on_c, 9, 35, 99
2, 128000, Note_on_c, 9, 42, 101
2, 128116, Note_on_c, 9, 35, 0
2, 128116, Note_on_c, 9, 42, 0
2, 128128, Note_on_c, 9, 46, 61
2, 128244, Note_on_c, 9, 46, 0
2, 128256, Note_on_c, 9, 40, 100
2, 128256, Note_on_c, 9, 35, 102
2, 128314, Note_on_c, 9, 40, 0
2, 128314, Note_on_c, 9, 35, 0
2, 128320, Note_on_c, 9, 42, 105
2, 128378, Note_on_c, 9, 42, 0
2, 128384, Note_on_c, 9, 46, 61
2, 128500, Note_on_c, 9, 46, 0
2, 128512, Note_on_c, 9, 35, 100
2, 128512, Note_on_c, 9, 42, 102
2, 128628, Note_on_c, 9, 35, 0
2, 128628, Note_on_c, 9, 42, 0
2, 128640, Note_on_c, 9, 46, 60
2, 128756, Note_on_c, 9, 46, 0
2, 128768, Note_on_c, 9, 40, 99
2, 128768, Note_on_c, 9, 35, 103
2, 128884, Note_on_c, 9, 40, 0
2, 128884, Note_on_c, 9, 35, 0
2, 128896, Note_on_c, 9, 46, 59
2, 129012, Note_on_c, 9, 46, 0
2, 129024, Note_on_c, 9, 35, 99
2, 129024, Note_on_c, 9, 42, 101
2, 129140, Note_on_c, 9, 35, 0
2, 129140, Note_on_c, 9, 42, 0
2, 129152, Note_on_c, 9, 46, 61
2, 129268, Note_on_c, 9, 46, 0
2, 129280, Note_on_c, 9, 40, 100
2, 129280, Note_on_c, 9, 35, 102
2, 129396, Note_on_c, 9, 40, 0
2, 129396, Note_on_c, 9, 35, 0
2, 129408, Note_on_c, 9, 46, 61
2, 129524, Note_on_c, 9, 46, 0
2, 129536, Note_on_c, 9, 35, 100
2, 129536, Note_on_c, 9, 42, 99
2, 129652, Note_on_c, 9, 35, 0
2, 129652, Note_on_c, 9, 42, 0
2, 129664, Note_on_c, 9, 46, 61
2, 129780, Note_on_c, 9, 46, 0
2, 129792, Note_on_c, 9, 40, 101
2, 129792, Note_on_c, 9, 35, 100
2, 129908, Note_on_c, 9, 40, 0
2, 129908, Note_on_c, 9, 35, 0
2, 129920, Note_on_c, 9, 46, 60
2, 130036, Note_on_c, 9, 46, 0
2, 130048, Note_on_c, 9, 35, 101
2, 130048, Note_on_c, 9, 42, 99
2, 130164, Note_on_c, 9, 35, 0
2, 130164, Note_on_c, 9, 42, 0
2, 130176, Note_on_c, 9, 46, 63
2, 130292, Note_on_c, 9, 46, 0
2, 130304, Note_on_c, 9, 40, 100
2, 130304, Note_on_c, 9, 35, 101
2, 130362, Note_on_c, 9, 40, 0
2, 130362, Note_on_c, 9, 35, 0
2, 130368, Note_on_c, 9, 42, 106
2, 130426, Note_on_c, 9, 42, 0
2, 130432, Note_on_c, 9, 46, 63
2, 130548, Note_on_c, 9, 46, 0
2, 130560, Note_on_c, 9, 35, 100
2, 130560, Note_on_c, 9, 42, 99
2, 130676, Note_on_c, 9, 35, 0
2, 130676, Note_on_c, 9, 42, 0
2, 130688, Note_on_c, 9, 46, 59
2, 130804, Note_on_c, 9, 46, 0
2, 130816, Note_on_c, 9, 40, 100
2, 130816, Note_on_c, 9, 35, 99
2, 130932, Note_on_c, 9, 40, 0
2, 130932, Note_on_c, 9, 35, 0
2, 130944, Note_on_c, 9, 46, 62
2, 131060, Note_on_c, 9, 46, 0
2, 131072, Note_on_c, 9, 35, 100
2, 131072, Note_on_c, 9, 42, 100
2, 131188, Note_on_c, 9, 35, 0
2, 131188, Note_on_c, 9, 42, 0
2, 131200, Note_on_c, 9, 46, 60
2, 131316, Note_on_c, 9, 46, 0
2, 131328, Note_on_c, 9, 40, 103
2, 131328, Note_on_c, 9, 35, 103
2, 131444, Note_on_c, 9, 40, 0
2, 131444, Note_on_c, 9, 35, 0
2, 131456, Note_on_c, 9, 46, 60
2, 131572, Note_on_c, 9, 46, 0
2, 131584, Note_on_c, 9, 35, 103
2, 131584, Note_on_c, 9, 42, 103
2, 131700, Note_on_c, 9, 35, 0
2, 131700, Note_on_c, 9, 42, 0
2, 131712, Note_on_c, 9, 46, 59
2, 131828, Note_on_c, 9, 46, 0
2, 131840, Note_on_c, 9, 40, 101
2, 131840, Note_on_c, 9, 35, 103
2, 131956, Note_on_c, 9, 40, 0
2, 131956, Note_on_c, 9, 35, 0
2, 131968, Note_on_c, 9, 46, 60
2, 132084, Note_on_c, 9, 46, 0
2, 132096, Note_on_c, 9, 35, 103
2, 132096, Note_on_c, 9, 42, 102
2, 132212, Note_on_c, 9, 35, 0
2, 132212, Note_on_c, 9, 42, 0
2, 132224, Note_on_c, 9, 46, 60
2, 132340, Note_on_c, 9, 46, 0
2, 132352, Note_on_c, 9, 40, 101
2, 132352, Note_on_c, 9, 35, 100
2, 132410, Note_on_c, 9, 40, 0
2, 132410, Note_on_c, 9, 35, 0
2, 132416, Note_on_c, 9, 42, 104
2, 132474, Note_on_c, 9, 42, 0
2, 132480, Note_on_c, 9, 46, 63
2, 132596, Note_on_c, 9, 46, 0
2, 132608, Note_on_c, 9, 35, 101
2, 132608, Note_on_c, 9, 42, 100
2, 132724, Note_on_c, 9, 35, 0
2, 132724, Note_on_c, 9, 42, 0
2, 132736, Note_on_c, 9, 46, 62
2, 132852, Note_on_c, 9, 46, 0
2, 132864, Note_on_c, 9, 40, 101
2, 132864, Note_on_c, 9, 35, 101
2, 132980, Note_on_c, 9, 40, 0
2, 132980, Note_on_c, 9, 35, 0
2, 132992, Note_on_c, 9, 46, 62
2, 133108, Note_on_c, 9, 46, 0
2, 133120, Note_on_c, 9, 35, 102
2, 133120, Note_on_c, 9, 42, 101
2, 133236, Note_on_c, 9, 35, 0
2, 133236, Note_on_c, 9, 42, 0
2, 133248, Note_on_c, 9, 46, 63
2, 133364, Note_on_c, 9, 46, 0
2, 133376, Note_on_c, 9, 40, 102
2, 133376, Note_on_c, 9, 35, 101
2, 133492, Note_on_c, 9, 40, 0
2, 133492, Note_on_c, 9, 35, 0
2, 133504, Note_on_c, 9, 46, 59
2, 133620, Note_on_c, 9, 46, 0
2, 133632, Note_on_c, 9, 35, 100
2, 133632, Note_on_c, 9, 42, 102
2, 133748, Note_on_c, 9, 35, 0
2, 133748, Note_on_c, 9, 42, 0
2, 133760, Note_on_c, 9, 46, 62
2, 133876, Note_on_c, 9, 46, 0
2, 133888, Note_on_c, 9, 40, 103
2, 133888, Note_on_c, 9, 35, 100
2, 134004, Note_on_c, 9, 40, 0
2, 134004, Note_on_c, 9, 35, 0
2, 134016, Note_on_c, 9, 46, 63
2, 134132, Note_on_c, 9, 46, 0
2, 134144, Note_on_c, 9, 35, 102
2, 134144, Note_on_c, 9, 42, 101
2, 134260, Note_on_c, 9, 35, 0
2, 134260, Note_on_c, 9, 42, 0
2, 134272, Note_on_c, 9, 46, 61
2, 134388, Note_on_c, 9, 46, 0
2, 134400, Note_on_c, 9, 40, 101
2, 134400, Note_on_c, 9, 35, 103
2, 134458, Note_on_c, 9, 40, 0
2, 134458, Note_on_c, 9, 35, 0
2, 134464, Note_on_c, 9, 42, 106
2, 134522, Note_on_c, 9, 42, 0
2, 134528, Note_on_c, 9, 46, 62
2, 134644, Note_on_c, 9, 46, 0
2, 134656, Note_on_c, 9, 35, 102
2, 134656, Note_on_c, 9, 42, 103
2, 134772, Note_on_c, 9, 35, 0
2, 134772, Note_on_c, 9, 42, 0
2, 134784, Note_on_c, 9, 46, 60
2, 134900, Note_on_c, 9, 46, 0
2, 134912, Note_on_c, 9, 40, 102
2, 134912, Note_on_c, 9, 35, 102
2, 135028, Note_on_c, 9, 40, 0
2, 135028, Note_on_c, 9, 35, 0
2, 135040, Note_on_c, 9, 46, 63
2, 135156, Note_on_c, 9, 46, 0
2, 135168, Note_on_c, 9, 35, 102
2, 135168, Note_on_c, 9, 42, 101
2, 135284, Note_on_c, 9, 35, 0
2, 135284, Note_on_c, 9, 42, 0
2, 135296, Note_on_c, 9, 46, 60
2, 135412, Note_on_c, 9, 46, 0
2, 135424, Note_on_c, 9, 40, 101
2, 135424, Note_on_c, 9, 35, 102
2, 135540, Note_on_c, 9, 40, 0
2, 135540, Note_on_c, 9, 35, 0
2, 135552, Note_on_c, 9, 46, 62
2, 135668, Note_on_c, 9, 46, 0
2, 135680, Note_on_c, 9, 35, 103
2, 135680, Note_on_c, 9, 42, 103
2, 135796, Note_on_c, 9, 35, 0
2, 135796, Note_on_c, 9, 42, 0
2, 135808, Note_on_c, 9, 46, 61
2, 135924, Note_on_c, 9, 46, 0
2, 135936, Note_on_c, 9, 40, 100
2, 135936, Note_on_c, 9, 35, 99
2, 136052, Note_on_c, 9, 40, 0
2, 136052, Note_on_c, 9, 35, 0
2, 136064, Note_on_c, 9, 46, 63
2, 136180, Note_on_c, 9, 46, 0
2, 136192, Note_on_c, 9, 35, 101
2, 136192, Note_on_c, 9, 42, 100
2, 136308, Note_on_c, 9, 35, 0
2, 136308, Note_on_c, 9, 42, 0
2, 136320, Note_on_c, 9, 46, 62
2, 136436, Note_on_c, 9, 46, 0
2, 136448, Note_on_c, 9, 40, 100
2, 136448, Note_on_c, 9, 35, 102
2, 136506, Note_on_c, 9, 40, 0
2, 136506, Note_on_c, 9, 35, 0
2, 136512, Note_on_c, 9, 42, 104
2, 136570, Note_on_c, 9, 42, 0
2, 136576, Note_on_c, 9, 46, 61
2, 136692, Note_on_c, 9, 46, 0
2, 136704, Note_on_c, 9, 35, 103
2, 136704, Note_on_c, 9, 42, 103
2, 136820, Note_on_c, 9, 35, 0
2, 136820, Note_on_c, 9, 42, 0
2, 136832, Note_on_c, 9, 46, 62
2, 136948, Note_on_c, 9, 46, 0
2, 136960, Note_on_c, 9, 40, 102
2, 136960, Note_on_c, 9, 35, 103
2, 137076, Note_on_c, 9, 40, 0
2, 137076, Note_on_c, 9, 35, 0
2, 137088, Note_on_c, 9, 46, 60
2, 137204, Note_on_c, 9, 46, 0
2, 137216, Note_on_c, 9, 35, 102
2, 137216, Note_on_c, 9, 42, 100
2, 137332, Note_on_c, 9, 35, 0
2, 137332, Note_on_c, 9, 42, 0
2, 137344, Note_on_c, 9, 46, 62
2, 137460, Note_on_c, 9, 46, 0
2, 137472, Note_on_c, 9, 40, 100
2, 137472, Note_on_c, 9, 35, 102
2, 137588, Note_on_c, 9, 40, 0
2, 137588, Note_on_c, 9, 35, 0
2, 137600, Note_on_c, 9, 46, 61
2, 137716, Note_on_c, 9, 46, 0
2, 137728, Note_on_c, 9, 35, 101
2, 137728, Note_on_c, 9, 42, 101
2, 137844, Note_on_c, 9, 35, 0
2, 137844, Note_on_c, 9, 42, 0
2, 137856, Note_on_c, 9, 46, 61
2, 137972, Note_on_c, 9, 46, 0
2, 137984, Note_on_c, 9, 40, 99
2, 137984, Note_on_c, 9, 35, 100
2, 138100, Note_on_c, 9, 40, 0
2, 138100, Note_on_c, 9, 35, 0
2, 138112, Note_on_c, 9, 46, 61
2, 138228, Note_on_c, 9, 46, 0
2, 138240, Note_on_c, 9, 35, 100
2, 138240, Note_on_c, 9, 42, 101
2, 138356, Note_on_c, 9, 35, 0
2, 138356, Note_on_c, 9, 42, 0
2, 138368, Note_on_c, 9, 46, 60
2, 138484, Note_on_c, 9, 46, 0
2, 138496, Note_on_c, 9, 40, 101
2, 138496, Note_on_c, 9, 35, 102
2, 138554, Note_on_c, 9, 40, 0
2, 138554, Note_on_c, 9, 35, 0
2, 138560, Note_on_c, 9, 42, 105
2, 138618, Note_on_c, 9, 42, 0
2, 138624, Note_on_c, 9, 46, 62
2, 138740, Note_on_c, 9, 46, 0
2, 138752, Note_on_c, 9, 35, 101
2, 138752, Note_on_c, 9, 42, 102
2, 138868, Note_on_c, 9, 35, 0
2, 138868, Note_on_c, 9, 42, 0
2, 138880, Note_on_c, 9, 46, 61
2, 138996, Note_on_c, 9, 46, 0
2, 139008, Note_on_c, 9, 40, 100
2, 139008, Note_on_c, 9, 35, 102
2, 139124, Note_on_c, 9, 40, 0
2, 139124, Note_on_c, 9, 35, 0
2, 139136, Note_on_c, 9, 46, 62
2, 139252, Note_on_c, 9, 46, 0
2, 139264, Note_on_c, 9, 35, 102
2, 139264, Note_on_c, 9, 42, 100
2, 139380, Note_on_c, 9, 35, 0
2, 139380, Note_on_c, 9, 42, 0
2, 139392, Note_on_c, 9, 46, 63
2, 139508, Note_on_c, 9, 46, 0
2, 139520, Note_on_c, 9, 40, 102
2, 139520, Note_on_c, 9, 35, 102
2, 139636, Note_on_c, 9, 40, 0
2, 139636, Note_on_c, 9, 35, 0
2, 139648, Note_on_c, 9, 46, 61
2, 139764, Note_on_c, 9, 46, 0
2, 139776, Note_on_c, 9, 35, 103
2, 139776, Note_on_c, 9, 42, 103
2, 139892, Note_on_c, 9, 35, 0
2, 139892, Note_on_c, 9, 42, 0
2, 139904, Note_on_c, 9, 46, 63
2, 140020, Note_on_c, 9, 46, 0
2, 140032, Note_on_c, 9, 40, 100
2, 140032, Note_on_c, 9, 35, 100
2, 140148, Note_on_c, 9, 40, 0
2, 140148, Note_on_c, 9, 35, 0
2, 140160, Note_on_c, 9, 46, 63
2, 140276, Note_on_c, 9, 46, 0
2, 140288, Note_on_c, 9, 35, 100
2, 140288, Note_on_c, 9, 42, 99
2, 140404, Note_on_c, 9, 35, 0
2, 140404, Note_on_c, 9, 42, 0
2, 140416, Note_on_c, 9, 46, 62
2, 140532, Note_on_c, 9, 46, 0
2, 140544, Note_on_c, 9, 57, 102
2, 140544, Note_on_c, 9, 40, 101
2, 140775, Note_on_c, 9, 57, 0
2, 140775, Note_on_c, 9, 40, 0
2, 140800, Note_on_c, 9, 35, 109
2, 140800, Note_on_c, 9, 42, 107
2, 140916, Note_on_c, 9, 35, 0
2, 140916, Note_on_c, 9, 42, 0
2, 140928, Note_on_c, 9, 46, 60
2, 141044, Note_on_c, 9, 46, 0
2, 141056, Note_on_c, 9, 40, 100
2, 141056, Note_on_c, 9, 35, 101
2, 141172, Note_on_c, 9, 40, 0
2, 141172, Note_on_c, 9, 35, 0
2, 141184, Note_on_c, 9, 46, 60
2, 141300, Note_on_c, 9, 46, 0
2, 141312, Note_on_c, 9, 35, 101
2, 141312, Note_on_c, 9, 42, 103
2, 141428, Note_on_c, 9, 35, 0
2, 141428, Note_on_c, 9, 42, 0
2, 141440, Note_on_c, 9, 46, 60
2, 141556, Note_on_c, 9, 46, 0
2, 141568, Note_on_c, 9, 40, 102
2, 141568, Note_on_c, 9, 35, 101
2, 141684, Note_on_c, 9, 40, 0
2, 141684, Note_on_c, 9, 35, 0
2, 141696, Note_on_c, 9, 46, 62
2, 141812, Note_on_c, 9, 46, 0
2, 141824, Note_on_c, 9, 35, 100
2, 141824, Note_on_c, 9, 42, 102
2, 141940, Note_on_c, 9, 35, 0
2, 141940, Note_on_c, 9, 42, 0
2, 141952, Note_on_c, 9, 46, 63
2, 142068, Note_on_c, 9, 46, 0
2, 142080, Note_on_c, 9, 40, 100
2, 142080, Note_on_c, 9, 35, 100
2, 142196, Note_on_c, 9, 40, 0
2, 142196, Note_on_c, 9, 35, 0
2, 142208, Note_on_c, 9, 46, 62
2, 142324, Note_on_c, 9, 46, 0
2, 142336, Note_on_c, 9, 35, 101
2, 142336, Note_on_c, 9, 42, 102
2, 142452, Note_on_c, 9, 35, 0
2, 142452, Note_on_c, 9, 42, 0
2, 142464, Note_on_c, 9, 46, 62
2, 142580, Note_on_c, 9, 46, 0
2, 142592, Note_on_c, 9, 40, 99
2, 142592, Note_on_c, 9, 35, 102
2, 142708, Note_on_c, 9, 40, 0
2, 142708, Note_on_c, 9, 35, 0
2, 142720, Note_on_c, 9, 46, 60
2, 142836, Note_on_c, 9, 46, 0
2, 142848, Note_on_c, 9, 35, 100
2, 142848, Note_on_c, 9, 42, 101
2, 142964, Note_on_c, 9, 35, 0
2, 142964, Note_on_c, 9, 42, 0
2, 142976, Note_on_c, 9, 46, 63
2, 143092, Note_on_c, 9, 46, 0
2, 143104, Note_on_c, 9, 40, 100
2, 143104, Note_on_c, 9, 35, 100
2, 143220, Note_on_c, 9, 40, 0
2, 143220, Note_on_c, 9, 35, 0
2, 143232, Note_on_c, 9, 46, 62
2, 143348, Note_on_c, 9, 46, 0
2, 143360, Note_on_c, 9, 35, 99
2, 143360, Note_on_c, 9, 42, 101
2, 143476, Note_on_c, 9, 35, 0
2, 143476, Note_on_c, 9, 42, 0
2, 143488, Note_on_c, 9, 46, 60
2, 143604, Note_on_c, 9, 46, 0
2, 143616, Note_on_c, 9, 40, 100
2, 143616, Note_on_c, 9, 35, 99
2, 143732, Note_on_c, 9, 40, 0
2, 143732, Note_on_c, 9, 35, 0
2, 143744, Note_on_c, 9, 46, 61
2, 143860, Note_on_c, 9, 46, 0
2, 143872, Note_on_c, 9, 35, 102
2, 143872, Note_on_c, 9, 42, 103
2, 143988, Note_on_c, 9, 35, 0
2, 143988, Note_on_c, 9, 42, 0
2, 144000, Note_on_c, 9, 46, 62
2, 144116, Note_on_c, 9, 46, 0
2, 144128, Note_on_c, 9, 40, 100
2, 144128, Note_on_c, 9, 35, 99
2, 144244, Note_on_c, 9, 40, 0
2, 144244, Note_on_c, 9, 35, 0
2, 144256, Note_on_c, 9, 46, 62
2, 144372, Note_on_c, 9, 46, 0
2, 144384, Note_on_c, 9, 35, 99
2, 144384, Note_on_c, 9, 42, 101
2, 144500, Note_on_c, 9, 35, 0
2, 144500, Note_on_c, 9, 42, 0
2, 144512, Note_on_c, 9, 46, 62
2, 144628, Note_on_c, 9, 46, 0
2, 144640, Note_on_c, 9, 40, 103
2, 144640, Note_on_c, 9, 35, 102
2, 144756, Note_on_c, 9, 40, 0
2, 144756, Note_on_c, 9, 35, 0
2, 144768, Note_on_c, 9, 46, 59
2, 144884, Note_on_c, 9, 46, 0
2, 144896, Note_on_c, 9, 35, 101
2, 144896, Note_on_c, 9, 42, 101
2, 145012, Note_on_c, 9, 35, 0
2, 145012, Note_on_c, 9, 42, 0
2, 145024, Note_on_c, 9, 46, 63
2, 145140, Note_on_c, 9, 46, 0
2, 145152, Note_on_c, 9, 40, 101
2, 145152, Note_on_c, 9, 35, 101
2, 145268, Note_on_c, 9, 40, 0
2, 145268, Note_on_c, 9, 35, 0
2, 145280, Note_on_c, 9, 46, 61
2, 145396, Note_on_c, 9, 46, 0
2, 145408, Note_on_c, 9, 35, 102
2, 145408, Note_on_c, 9, 42, 102
2, 145524, Note_on_c, 9, 35, 0
2, 145524, Note_on_c, 9, 42, 0
2, 145536, Note_on_c, 9, 46, 60
2, 145652, Note_on_c, 9, 46, 0
2, 145664, Note_on_c, 9, 40, 101
2, 145664, Note_on_c, 9, 35, 103
2, 145780, Note_on_c, 9, 40, 0
2, 145780, Note_on_c, 9, 35, 0
2, 145792, Note_on_c, 9, 46, 60
2, 145908, Note_on_c, 9, 46, 0
2, 145920, Note_on_c, 9, 35, 100
2, 145920, Note_on_c, 9, 42, 101
2, 146036, Note_on_c, 9, 35, 0
2, 146036, Note_on_c, 9, 42, 0
2, 146048, Note_on_c, 9, 46, 61
2, 146164, Note_on_c, 9, 46, 0
2, 146176, Note_on_c, 9, 40, 101
2, 146176, Note_on_c, 9, 35, 101
2, 146292, Note_on_c, 9, 40, 0
2, 146292, Note_on_c, 9, 35, 0
2, 146304, Note_on_c, 9, 46, 62
2, 146420, Note_on_c, 9, 46, 0
2, 146432, Note_on_c, 9, 35, 100
2, 146432, Note_on_c, 9, 42, 99
2, 146548, Note_on_c, 9, 35, 0
2, 146548, Note_on_c, 9, 42, 0
2, 146560, Note_on_c, 9, 46, 59
2, 146676, Note_on_c, 9, 46, 0
2, 146688, Note_on_c, 9, 40, 101
2, 146688, Note_on_c, 9, 35, 101
2, 146804, Note_on_c, 9, 40, 0
2, 146804, Note_on_c, 9, 35, 0
2, 146816, Note_on_c, 9, 46, 61
2, 146932, Note_on_c, 9, 46, 0
2, 146944, Note_on_c, 9, 35, 99
2, 146944, Note_on_c, 9, 42, 100
2, 147060, Note_on_c, 9, 35, 0
2, 147060, Note_on_c, 9, 42, 0
2, 147072, Note_on_c, 9, 46, 63
2, 147188, Note_on_c, 9, 46, 0
2, 147200, Note_on_c, 9, 40, 102
2, 147200, Note_on_c, 9, 35, 101
2, 147316, Note_on_c, 9, 40, 0
2, 147316, Note_on_c, 9, 35, 0
2, 147328, Note_on_c, 9, 46, 60
2, 147444, Note_on_c, 9, 46, 0
2, 147456, Note_on_c, 9, 35, 103
2, 147456, Note_on_c, 9, 42, 100
2, 147572, Note_on_c, 9, 35, 0
2, 147572, Note_on_c, 9, 42, 0
2, 147584, Note_on_c, 9, 46, 60
2, 147700, Note_on_c, 9, 46, 0
2, 147712, Note_on_c, 9, 40, 102
2, 147712, Note_on_c, 9, 35, 99
2, 147828, Note_on_c, 9, 40, 0
2, 147828, Note_on_c, 9, 35, 0
2, 147840, Note_on_c, 9, 46, 63
2, 147956, Note_on_c, 9, 46, 0
2, 147968, Note_on_c, 9, 35, 102
2, 147968, Note_on_c, 9, 42, 101
2, 148084, Note_on_c, 9, 35, 0
2, 148084, Note_on_c, 9, 42, 0
2, 148096, Note_on_c, 9, 46, 60
2, 148212, Note_on_c, 9, 46, 0
2, 148224, Note_on_c, 9, 40, 103
2, 148224, Note_on_c, 9, 35, 102
2, 148340, Note_on_c, 9, 40, 0
2, 148340, Note_on_c, 9, 35, 0
2, 148352, Note_on_c, 9, 46, 62
2, 148468, Note_on_c, 9, 46, 0
2, 148480, Note_on_c, 9, 35, 103
2, 148480, Note_on_c, 9, 42, 100
2, 148596, Note_on_c, 9, 35, 0
2, 148596, Note_on_c, 9, 42, 0
2, 148608, Note_on_c, 9, 46, 63
2, 148724, Note_on_c, 9, 46, 0
2, 148736, Note_on_c, 9, 40, 102
2, 148736, Note_on_c, 9, 35, 99
2, 148852, Note_on_c, 9, 40, 0
2, 148852, Note_on_c, 9, 35, 0
2, 148864, Note_on_c, 9, 46, 63
2, 148980, Note_on_c, 9, 46, 0
2, 148992, Note_on_c, 9, 35, 103
2, 148992, Note_on_c, 9, 42, 101
2, 149108, Note_on_c, 9, 35, 0
2, 149108, Note_on_c, 9, 42, 0
2, 149120, Note_on_c, 9, 46, 61
2, 149236, Note_on_c, 9, 46, 0
2, 149248, Note_on_c, 9, 40, 102
2, 149248, Note_on_c, 9, 35, 101
2, 149364, Note_on_c, 9, 40, 0
2, 149364, Note_on_c, 9, 35, 0
2, 149376, Note_on_c, 9, 46, 63
2, 149492, Note_on_c, 9, 46, 0
2, 149504, Note_on_c, 9, 35, 101
2, 149504, Note_on_c, 9, 42, 102
2, 149620, Note_on_c, 9, 35, 0
2, 149620, Note_on_c, 9, 42, 0
2, 149632, Note_on_c, 9, 46, 60
2, 149748, Note_on_c, 9, 46, 0
2, 149760, Note_on_c, 9, 40, 100
2, 149760, Note_on_c, 9, 35, 100
2, 149876, Note_on_c, 9, 40, 0
2, 149876, Note_on_c, 9, 35, 0
2, 149888, Note_on_c, 9, 46, 62
2, 150004, Note_on_c, 9, 46, 0
2, 150016, Note_on_c, 9, 35, 101
2, 150016, Note_on_c, 9, 42, 102
2, 150132, Note_on_c, 9, 35, 0
2, 150132, Note_on_c, 9, 42, 0
2, 150144, Note_on_c, 9, 46, 63
2, 150260, Note_on_c, 9, 46, 0
2, 150272, Note_on_c, 9, 40, 100
2, 150272, Note_on_c, 9, 35, 101
2, 150388, Note_on_c, 9, 40, 0
2, 150388, Note_on_c, 9, 35, 0
2, 150400, Note_on_c, 9, 46, 63
2, 150516, Note_on_c, 9, 46, 0
2, 150528, Note_on_c, 9, 35, 103
2, 150528, Note_on_c, 9, 42, 100
2, 150644, Note_on_c, 9, 35, 0
2, 150644, Note_on_c, 9, 42, 0
2, 150656, Note_on_c, 9, 46, 61
2, 150772, Note_on_c, 9, 46, 0
2, 150784, Note_on_c, 9, 40, 102
2, 150784, Note_on_c, 9, 35, 102
2, 150900, Note_on_c, 9, 40, 0
2, 150900, Note_on_c, 9, 35, 0
2, 150912, Note_on_c, 9, 46, 61
2, 151028, Note_on_c, 9, 46, 0
2, 151040, Note_on_c, 9, 35, 102
2, 151040, Note_on_c, 9, 42, 102
2, 151156, Note_on_c, 9, 35, 0
2, 151156, Note_on_c, 9, 42, 0
2, 151168, Note_on_c, 9, 46, 63
2, 151284, Note_on_c, 9, 46, 0
2, 151296, Note_on_c, 9, 40, 100
2, 151296, Note_on_c, 9, 35, 101
2, 151412, Note_on_c, 9, 40, 0
2, 151412, Note_on_c, 9, 35, 0
2, 151424, Note_on_c, 9, 46, 62
2, 151540, Note_on_c, 9, 46, 0
2, 151552, Note_on_c, 9, 35, 102
2, 151552, Note_on_c, 9, 42, 99
2, 151668, Note_on_c, 9, 35, 0
2, 151668, Note_on_c, 9, 42, 0
2, 151680, Note_on_c, 9, 46, 59
2, 151796, Note_on_c, 9, 46, 0
2, 151808, Note_on_c, 9, 40, 100
2, 151808, Note_on_c, 9, 35, 100
2, 151924, Note_on_c, 9, 40, 0
2, 151924, Note_on_c, 9, 35, 0
2, 151936, Note_on_c, 9, 46, 63
2, 152052, Note_on_c, 9, 46, 0
2, 152064, Note_on_c, 9, 35, 102
2, 152064, Note_on_c, 9, 42, 100
2, 152180, Note_on_c, 9, 35, 0
2, 152180, Note_on_c, 9, 42, 0
2, 152192, Note_on_c, 9, 46, 62
2, 152308, Note_on_c, 9, 46, 0
2, 152320, Note_on_c, 9, 40, 102
2, 152320, Note_on_c, 9, 35, 101
2, 152436, Note_on_c, 9, 40, 0
2, 152436, Note_on_c, 9, 35, 0
2, 152448, Note_on_c, 9, 46, 62
2, 152564, Note_on_c, 9, 46, 0
2, 152576, Note_on_c, 9, 35, 100
2, 152576, Note_on_c, 9, 42, 100
2, 152692, Note_on_c, 9, 35, 0
2, 152692, Note_on_c, 9, 42, 0
2, 152704, Note_on_c, 9, 46, 63
2, 152820, Note_on_c, 9, 46, 0
2, 152832, Note_on_c, 9, 40, 100
2, 152832, Note_on_c, 9, 35, 101
2, 152948, Note_on_c, 9, 40, 0
2, 152948, Note_on_c, 9, 35, 0
2, 152960, Note_on_c, 9, 46, 62
2, 153076, Note_on_c, 9, 46, 0
2, 153088, Note_on_c, 9, 35, 99
2, 153088, Note_on_c, 9, 42, 102
2, 153204, Note_on_c, 9, 35, 0
2, 153204, Note_on_c, 9, 42, 0
2, 153216, Note_on_c, 9, 46, 61
2, 153332, Note_on_c, 9, 46, 0
2, 153344, Note_on_c, 9, 40, 101
2, 153344, Note_on_c, 9, 35, 102
2, 153460, Note_on_c, 9, 40, 0
2, 153460, Note_on_c, 9, 35, 0
2, 153472, Note_on_c, 9, 46, 61
2, 153588, Note_on_c, 9, 46, 0
2, 153600, Note_on_c, 9, 35, 100
2, 153600, Note_on_c, 9, 42, 101
2, 153716, Note_on_c, 9, 35, 0
2, 153716, Note_on_c, 9, 42, 0
2, 153728, Note_on_c, 9, 46, 62
2, 153844, Note_on_c, 9, 46, 0
2, 153856, Note_on_c, 9, 40, 102
2, 153856, Note_on_c, 9, 35, 103
2, 153972, Note_on_c, 9, 40, 0
2, 153972, Note_on_c, 9, 35, 0
2, 153984, Note_on_c, 9, 46, 61
2, 154100, Note_on_c, 9, 46, 0
2, 154112, Note_on_c, 9, 35, 102
2, 154112, Note_on_c, 9, 42, 100
2, 154228, Note_on_c, 9, 35, 0
2, 154228, Note_on_c, 9, 42, 0
2, 154240, Note_on_c, 9, 46, 61
2, 154356, Note_on_c, 9, 46, 0
2, 154368, Note_on_c, 9, 40, 103
2, 154368, Note_on_c, 9, 35, 100
2, 154484, Note_on_c, 9, 40, 0
2, 154484, Note_on_c, 9, 35, 0
2, 154496, Note_on_c, 9, 46, 61
2, 154612, Note_on_c, 9, 46, 0
2, 154624, Note_on_c, 9, 35, 99
2, 154624, Note_on_c, 9, 42, 101
2, 154740, Note_on_c, 9, 35, 0
2, 154740, Note_on_c, 9, 42, 0
2, 154752, Note_on_c, 9, 46, 60
2, 154868, Note_on_c, 9, 46, 0
2, 154880, Note_on_c, 9, 40, 101
2, 154880, Note_on_c, 9, 35, 100
2, 154996, Note_on_c, 9, 40, 0
2, 154996, Note_on_c, 9, 35, 0
2, 155008, Note_on_c, 9, 46, 63
2, 155124, Note_on_c, 9, 46, 0
2, 155136, Note_on_c, 9, 57, 99
2, 155136, Note_on_c, 9, 35, 102
2, 155367, Note_on_c, 9, 57, 0
2, 155367, Note_on_c, 9, 35, 0
2, 156160, Note_on_c, 9, 35, 102
2, 156333, Note_on_c, 9, 35, 0
2, 156352, Note_on_c, 9, 35, 108
2, 156525, Note_on_c, 9, 35, 0
2, 156544, Note_on_c, 9, 35, 111
2, 156717, Note_on_c, 9, 35, 0
2, 156736, Note_on_c, 9, 35, 113
2, 156909, Note_on_c, 9, 35, 0
2, 156928, Note_on_c, 9, 35, 114
2, 157044, Note_on_c, 9, 35, 0
2, 157056, Note_on_c, 9, 40, 101
2, 157172, Note_on_c, 9, 40, 0
2, 157184, Note_on_c, 9, 57, 123
2, 157184, Note_on_c, 9, 35, 121
2, 157415, Note_on_c, 9, 57, 0
2, 157415, Note_on_c, 9, 35, 0
2, 158208, Note_on_c, 9, 41, 104
2, 158266, Note_on_c, 9, 41, 0
2, 158272, Note_on_c, 9, 41, 109
2, 158330, Note_on_c, 9, 41, 0
2, 158336, Note_on_c, 9, 41, 111
2, 158394, Note_on_c, 9, 41, 0
2, 158400, Note_on_c, 9, 41, 111
2, 158458, Note_on_c, 9, 41, 0
2, 158464, Note_on_c, 9, 41, 113
2, 158522, Note_on_c, 9, 41, 0
2, 158528, Note_on_c, 9, 41, 113
2, 158586, Note_on_c, 9, 41, 0
2, 158592, Note_on_c, 9, 41, 109
2, 158650, Note_on_c, 9, 41, 0
2, 158656, Note_on_c, 9, 41, 113
2, 158714, Note_on_c, 9, 41, 0
2, 158720, Note_on_c, 9, 41, 116
2, 158778, Note_on_c, 9, 41, 0
2, 158784, Note_on_c, 9, 41, 112
2, 158842, Note_on_c, 9, 41, 0
2, 158848, Note_on_c, 9, 41, 113
2, 158906, Note_on_c, 9, 41, 0
2, 158912, Note_on_c, 9, 41, 110
2, 158970, Note_on_c, 9, 41, 0
2, 158976, Note_on_c, 9, 41, 113
2, 159014, Note_on_c, 9, 41, 0
2, 159018, Note_on_c, 9, 41, 111
2, 159057, Note_on_c, 9, 41, 0
2, 159061, Note_on_c, 9, 41, 110
2, 159100, Note_on_c, 9, 41, 0
2, 159104, Note_on_c, 9, 41, 112
2, 159142, Note_on_c, 9, 41, 0
2, 159146, Note_on_c, 9, 41, 110
2, 159185, Note_on_c, 9, 41, 0
2, 159189, Note_on_c, 9, 41, 110
2, 159228, Note_on_c, 9, 41, 0
2, 159232, Note_on_c, 9, 57, 127
2, 159232, Note_on_c, 9, 35, 127
2, 159463, Note_on_c, 9, 57, 0
2, 159463, Note_on_c, 9, 35, 0
2, 160256, Note_on_c, 9, 55, 101
2, 160256, Note_on_c, 9, 35, 104
2, 160372, Note_on_c, 9, 55, 0
2, 160372, Note_on_c, 9, 35, 0
2, 160384, Note_on_c, 9, 35, 110
2, 160442, Note_on_c, 9, 35, 0
2, 160448, Note_on_c, 9, 57, 100
2, 160448, Note_on_c, 9, 40, 100
2, 160564, Note_on_c, 9, 57, 0
2, 160564, Note_on_c, 9, 40, 0
2, 160576, Note_on_c, 9, 35, 120
2, 160634, Note_on_c, 9, 35, 0
2, 160640, Note_on_c, 9, 55, 111
2, 160640, Note_on_c, 9, 35, 112
2, 160756, Note_on_c, 9, 55, 0
2, 160756, Note_on_c, 9, 35, 0
2, 160768, Note_on_c, 9, 35, 113
2, 160826, Note_on_c, 9, 35, 0
2, 160832, Note_on_c, 9, 57, 100
2, 160832, Note_on_c, 9, 40, 100
2, 160948, Note_on_c, 9, 57, 0
2, 160948, Note_on_c, 9, 40, 0
2, 160960, Note_on_c, 9, 35, 120
2, 161018, Note_on_c, 9, 35, 0
2, 161024, Note_on_c, 9, 55, 112
2, 161024, Note_on_c, 9, 35, 113
2, 161140, Note_on_c, 9, 55, 0
2, 161140, Note_on_c, 9, 35, 0
2, 161152, Note_on_c, 9, 57, 103
2, 161152, Note_on_c, 9, 40, 102
2, 161268, Note_on_c, 9, 57, 0
2, 161268, Note_on_c, 9, 40, 0
2, 161280, Note_on_c, 9, 55, 121
2, 161280, Note_on_c, 9, 35, 122
2, 161511, Note_on_c, 9, 55, 0
2, 161511, Note_on_c, 9, 35, 0
2, 162304, Note_on_c, 9, 45, 101
2, 162304, Note_on_c, 9, 48, 100
2, 162362, Note_on_c, 9, 45, 0
2, 162362, Note_on_c, 9, 48, 0
2, 162368, Note_on_c, 9, 43, 105
2, 162368, Note_on_c, 9, 47, 106
2, 162426, Note_on_c, 9, 43, 0
2, 162426, Note_on_c, 9, 47, 0
2, 162432, Note_on_c, 9, 41, 105
2, 162432, Note_on_c, 9, 45, 101
2, 162490, Note_on_c, 9, 41, 0
2, 162490, Note_on_c, 9, 45, 0
2, 162496, Note_on_c, 9, 43, 116
2, 162496, Note_on_c, 9, 47, 118
2, 162554, Note_on_c, 9, 43, 0
2, 162554, Note_on_c, 9, 47, 0
2, 162560, Note_on_c, 9, 40, 93
2, 162618, Note_on_c, 9, 40, 0
2, 162624, Note_on_c, 9, 47, 127
2, 162624, Note_on_c, 9, 50, 127
2, 162682, Note_on_c, 9, 47, 0
2, 162682, Note_on_c, 9, 50, 0
2, 162688, Note_on_c, 9, 35, 126
2, 162746, Note_on_c, 9, 35, 0
2, 162752, Note_on_c, 9, 48, 85
2, 162810, Note_on_c, 9, 48, 0
2, 162816, Note_on_c, 9, 47, 105
2, 162874, Note_on_c, 9, 47, 0
2, 162880, Note_on_c, 9, 45, 115
2, 162880, Note_on_c, 9, 48, 116
2, 162938, Note_on_c, 9, 45, 0
2, 162938, Note_on_c, 9, 48, 0
2, 162944, Note_on_c, 9, 43, 97
2, 163002, Note_on_c, 9, 43, 0
2, 163008, Note_on_c, 9, 41, 114
2, 163008, Note_on_c, 9, 45, 115
2, 163066, Note_on_c, 9, 41, 0
2, 163066, Note_on_c, 9, 45, 0
2, 163072, Note_on_c, 9, 41, 100
2, 163130, Note_on_c, 9, 41, 0
2, 163136, Note_on_c, 9, 35, 127
2, 163194, Note_on_c, 9, 35, 0
2, 163200, Note_on_c, 9, 55, 107
2, 163200, Note_on_c, 9, 40, 107
2, 163316, Note_on_c, 9, 55, 0
2, 163316, Note_on_c, 9, 40, 0
2, 163328, Note_on_c, 9, 35, 122
2, 163559, Note_on_c, 9, 35, 0
2, 163584, Note_on_c, 9, 35, 111
2, 163815, Note_on_c, 9, 35, 0
2, 163840, Note_on_c, 9, 35, 109
2, 164071, Note_on_c, 9, 35, 0
2, 164096, Note_on_c, 9, 35, 112
2, 164327, Note_on_c, 9, 35, 0
2, 164352, Note_on_c, 9, 35, 113
2, 164583, Note_on_c, 9, 35, 0
2, 164608, Note_on_c, 9, 35, 112
2, 164839, Note_on_c, 9, 35, 0
2, 164864, Note_on_c, 9, 35, 112
2, 165095, Note_on_c, 9, 35, 0
2, 165120, Note_on_c, 9, 35, 113
2, 165351, Note_on_c, 9, 35, 0
2, 165376, Note_on_c, 9, 35, 110
2, 165607, Note_on_c, 9, 35, 0
2, 165632, Note_on_c, 9, 35, 109
2, 165863, Note_on_c, 9, 35, 0
2, 165888, Note_on_c, 9, 35, 110
2, 166119, Note_on_c, 9, 35, 0
2, 166144, Note_on_c, 9, 35, 112
2, 166375, Note_on_c, 9, 35, 0
2, 166400, Note_on_c, 9, 35, 110
2, 166631, Note_on_c, 9, 35, 0
2, 166656, Note_on_c, 9, 35, 111
2, 166887, Note_on_c, 9, 35, 0
2, 166912, Note_on_c, 9, 35, 127
2, 166912, Note_on_c, 9, 42, 127
2, 167028, Note_on_c, 9, 35, 0
2, 167028, Note_on_c, 9, 42, 0
2, 167040, Note_on_c, 9, 42, 117
2, 167156, Note_on_c, 9, 42, 0
2, 167168, Note_on_c, 9, 40, 113
2, 167168, Note_on_c, 9, 42, 114
2, 167284, Note_on_c, 9, 40, 0
2, 167284, Note_on_c, 9, 42, 0
2, 167296, Note_on_c, 9, 42, 109
2, 167412, Note_on_c, 9, 42, 0
2, 167424, Note_on_c, 9, 35, 115
2, 167424, Note_on_c, 9, 42, 115
2, 167540, Note_on_c, 9, 35, 0
2, 167540, Note_on_c, 9, 42, 0
2, 167552, Note_on_c, 9, 35, 80
2, 167610, Note_on_c, 9, 35, 0
2, 167616, Note_on_c, 9, 40, 96
2, 167674, Note_on_c, 9, 40, 0
2, 167680, Note_on_c, 9, 42, 127
2, 167796, Note_on_c, 9, 42, 0
2, 167808, Note_on_c, 9, 35, 117
2, 167808, Note_on_c, 9, 42, 117
2, 167924, Note_on_c, 9, 35, 0
2, 167924, Note_on_c, 9, 42, 0
2, 167936, Note_on_c, 9, 42, 113
2, 167994, Note_on_c, 9, 42, 0
2, 168000, Note_on_c, 9, 35, 82
2, 168058, Note_on_c, 9, 35, 0
2, 168064, Note_on_c, 9, 40, 94
2, 168180, Note_on_c, 9, 40, 0
2, 168192, Note_on_c, 9, 35, 122
2, 168308, Note_on_c, 9, 35, 0
2, 168320, Note_on_c, 9, 35, 127
2, 168320, Note_on_c, 9, 42, 127
2, 168436, Note_on_c, 9, 35, 0
2, 168436, Note_on_c, 9, 42, 0
2, 168448, Note_on_c, 9, 40, 118
2, 168448, Note_on_c, 9, 42, 117
2, 168564, Note_on_c, 9, 40, 0
2, 168564, Note_on_c, 9, 42, 0
2, 168576, Note_on_c, 9, 46, 81
2, 168692, Note_on_c, 9, 46, 0
2, 168704, Note_on_c, 9, 35, 127
2, 168704, Note_on_c, 9, 42, 127
2, 168820, Note_on_c, 9, 35, 0
2, 168820, Note_on_c, 9, 42, 0
2, 168832, Note_on_c, 9, 42, 116
2, 168948, Note_on_c, 9, 42, 0
2, 168960, Note_on_c, 9, 40, 112
2, 168960, Note_on_c, 9, 42, 116
2, 169076, Note_on_c, 9, 40, 0
2, 169076, Note_on_c, 9, 42, 0
2, 169088, Note_on_c, 9, 42, 111
2, 169204, Note_on_c, 9, 42, 0
2, 169216, Note_on_c, 9, 35, 114
2, 169216, Note_on_c, 9, 42, 114
2, 169332, Note_on_c, 9, 35, 0
2, 169332, Note_on_c, 9, 42, 0
2, 169344, Note_on_c, 9, 35, 81
2, 169402, Note_on_c, 9, 35, 0
2, 169408, Note_on_c, 9, 40, 94
2, 169466, Note_on_c, 9, 40, 0
2, 169472, Note_on_c, 9, 42, 127
2, 169588, Note_on_c, 9, 42, 0
2, 169600, Note_on_c, 9, 35, 115
2, 169600, Note_on_c, 9, 42, 116
2, 169716, Note_on_c, 9, 35, 0
2, 169716, Note_on_c, 9, 42, 0
2, 169728, Note_on_c, 9, 42, 116
2, 169786, Note_on_c, 9, 42, 0
2, 169792, Note_on_c, 9, 35, 80
2, 169850, Note_on_c, 9, 35, 0
2, 169856, Note_on_c, 9, 40, 97
2, 169972, Note_on_c, 9, 40, 0
2, 169984, Note_on_c, 9, 35, 120
2, 170100, Note_on_c, 9, 35, 0
2, 170112, Note_on_c, 9, 35, 127
2, 170112, Note_on_c, 9, 42, 126
2, 170228, Note_on_c, 9, 35, 0
2, 170228, Note_on_c, 9, 42, 0
2, 170240, Note_on_c, 9, 40, 119
2, 170240, Note_on_c, 9, 42, 120
2, 170356, Note_on_c, 9, 40, 0
2, 170356, Note_on_c, 9, 42, 0
2, 170368, Note_on_c, 9, 46, 82
2, 170484, Note_on_c, 9, 46, 0
2, 170496, Note_on_c, 9, 57, 127
2, 170496, Note_on_c, 9, 35, 127
2, 170612, Note_on_c, 9, 57, 0
2, 170612, Note_on_c, 9, 35, 0
2, 170624, Note_on_c, 9, 42, 126
2, 170740, Note_on_c, 9, 42, 0
2, 170752, Note_on_c, 9, 40, 121
2, 170752, Note_on_c, 9, 42, 119
2, 170868, Note_on_c, 9, 40, 0
2, 170868, Note_on_c, 9, 42, 0
2, 170880, Note_on_c, 9, 42, 110
2, 170996, Note_on_c, 9, 42, 0
2, 171008, Note_on_c, 9, 35, 115
2, 171008, Note_on_c, 9, 42, 112
2, 171124, Note_on_c, 9, 35, 0
2, 171124, Note_on_c, 9, 42, 0
2, 171136, Note_on_c, 9, 35, 81
2, 171194, Note_on_c, 9, 35, 0
2, 171200, Note_on_c, 9, 40, 97
2, 171258, Note_on_c, 9, 40, 0
2, 171264, Note_on_c, 9, 42, 127
2, 171380, Note_on_c, 9, 42, 0
2, 171392, Note_on_c, 9, 35, 115
2, 171392, Note_on_c, 9, 42, 116
2, 171508, Note_on_c, 9, 35, 0
2, 171508, Note_on_c, 9, 42, 0
2, 171520, Note_on_c, 9, 42, 115
2, 171578, Note_on_c, 9, 42, 0
2, 171584, Note_on_c, 9, 35, 79
2, 171642, Note_on_c, 9, 35, 0
2, 171648, Note_on_c, 9, 40, 97
2, 171764, Note_on_c, 9, 40, 0
2, 171776, Note_on_c, 9, 35, 120
2, 171892, Note_on_c, 9, 35, 0
2, 171904, Note_on_c, 9, 35, 127
2, 171904, Note_on_c, 9, 42, 126
2, 172020, Note_on_c, 9, 35, 0
2, 172020, Note_on_c, 9, 42, 0
2, 172032, Note_on_c, 9, 40, 119
2, 172032, Note_on_c, 9, 42, 118
2, 172148, Note_on_c, 9, 40, 0
2, 172148, Note_on_c, 9, 42, 0
2, 172160, Note_on_c, 9, 46, 81
2, 172276, Note_on_c, 9, 46, 0
2, 172288, Note_on_c, 9, 35, 127
2, 172288, Note_on_c, 9, 42, 127
2, 172404, Note_on_c, 9, 35, 0
2, 172404, Note_on_c, 9, 42, 0
2, 172416, Note_on_c, 9, 42, 113
2, 172532, Note_on_c, 9, 42, 0
2, 172544, Note_on_c, 9, 40, 115
2, 172544, Note_on_c, 9, 42, 114
2, 172660, Note_on_c, 9, 40, 0
2, 172660, Note_on_c, 9, 42, 0
2, 172672, Note_on_c, 9, 42, 109
2, 172788, Note_on_c, 9, 42, 0
2, 172800, Note_on_c, 9, 35, 116
2, 172800, Note_on_c, 9, 42, 116
2, 172916, Note_on_c, 9, 35, 0
2, 172916, Note_on_c, 9, 42, 0
2, 172928, Note_on_c, 9, 35, 80
2, 172986, Note_on_c, 9, 35, 0
2, 172992, Note_on_c, 9, 40, 95
2, 173050, Note_on_c, 9, 40, 0
2, 173056, Note_on_c, 9, 42, 127
2, 173172, Note_on_c, 9, 42, 0
2, 173184, Note_on_c, 9, 35, 115
2, 173184, Note_on_c, 9, 42, 115
2, 173300, Note_on_c, 9, 35, 0
2, 173300, Note_on_c, 9, 42, 0
2, 173312, Note_on_c, 9, 42, 116
2, 173370, Note_on_c, 9, 42, 0
2, 173376, Note_on_c, 9, 35, 80
2, 173434, Note_on_c, 9, 35, 0
2, 173440, Note_on_c, 9, 40, 96
2, 173556, Note_on_c, 9, 40, 0
2, 173568, Note_on_c, 9, 35, 120
2, 173684, Note_on_c, 9, 35, 0
2, 173696, Note_on_c, 9, 35, 125
2, 173696, Note_on_c, 9, 42, 126
2, 173812, Note_on_c, 9, 35, 0
2, 173812, Note_on_c, 9, 42, 0
2, 173824, Note_on_c, 9, 40, 120
2, 173824, Note_on_c, 9, 42, 120
2, 173940, Note_on_c, 9, 40, 0
2, 173940, Note_on_c, 9, 42, 0
2, 173952, Note_on_c, 9, 46, 82
2, 174068, Note_on_c, 9, 46, 0
2, 174080, Note_on_c, 9, 35, 127
2, 174080, Note_on_c, 9, 42, 127
2, 174196, Note_on_c, 9, 35, 0
2, 174196, Note_on_c, 9, 42, 0
2, 174208, Note_on_c, 9, 42, 116
2, 174324, Note_on_c, 9, 42, 0
2, 174336, Note_on_c, 9, 40, 114
2, 174336, Note_on_c, 9, 42, 115
2, 174452, Note_on_c, 9, 40, 0
2, 174452, Note_on_c, 9, 42, 0
2, 174464, Note_on_c, 9, 42, 110
2, 174580, Note_on_c, 9, 42, 0
2, 174592, Note_on_c, 9, 35, 115
2, 174592, Note_on_c, 9, 42, 114
2, 174708, Note_on_c, 9, 35, 0
2, 174708, Note_on_c, 9, 42, 0
2, 174720, Note_on_c, 9, 35, 81
2, 174778, Note_on_c, 9, 35, 0
2, 174784, Note_on_c, 9, 40, 98
2, 174842, Note_on_c, 9, 40, 0
2, 174848, Note_on_c, 9, 42, 127
2, 174964, Note_on_c, 9, 42, 0
2, 174976, Note_on_c, 9, 35, 115
2, 174976, Note_on_c, 9, 42, 117
2, 175092, Note_on_c, 9, 35, 0
2, 175092, Note_on_c, 9, 42, 0
2, 175104, Note_on_c, 9, 42, 112
2, 175162, Note_on_c, 9, 42, 0
2, 175168, Note_on_c, 9, 35, 82
2, 175226, Note_on_c, 9, 35, 0
2, 175232, Note_on_c, 9, 40, 97
2, 175348, Note_on_c, 9, 40, 0
2, 175360, Note_on_c, 9, 35, 120
2, 175476, Note_on_c, 9, 35, 0
2, 175488, Note_on_c, 9, 35, 127
2, 175488, Note_on_c, 9, 42, 127
2, 175604, Note_on_c, 9, 35, 0
2, 175604, Note_on_c, 9, 42, 0
2, 175616, Note_on_c, 9, 40, 120
2, 175616, Note_on_c, 9, 42, 118
2, 175732, Note_on_c, 9, 40, 0
2, 175732, Note_on_c, 9, 42, 0
2, 175744, Note_on_c, 9, 46, 81
2, 175860, Note_on_c, 9, 46, 0
2, 175872, Note_on_c, 9, 35, 127
2, 175872, Note_on_c, 9, 42, 127
2, 175988, Note_on_c, 9, 35, 0
2, 175988, Note_on_c, 9, 42, 0
2, 176000, Note_on_c, 9, 42, 113
2, 176116, Note_on_c, 9, 42, 0
2, 176128, Note_on_c, 9, 40, 113
2, 176128, Note_on_c, 9, 42, 113
2, 176244, Note_on_c, 9, 40, 0
2, 176244, Note_on_c, 9, 42, 0
2, 176256, Note_on_c, 9, 42, 111
2, 176372, Note_on_c, 9, 42, 0
2, 176384, Note_on_c, 9, 35, 113
2, 176384, Note_on_c, 9, 42, 113
2, 176500, Note_on_c, 9, 35, 0
2, 176500, Note_on_c, 9, 42, 0
2, 176512, Note_on_c, 9, 35, 81
2, 176570, Note_on_c, 9, 35, 0
2, 176576, Note_on_c, 9, 40, 98
2, 176634, Note_on_c, 9, 40, 0
2, 176640, Note_on_c, 9, 42, 127
2, 176756, Note_on_c, 9, 42, 0
2, 176768, Note_on_c, 9, 35, 116
2, 176768, Note_on_c, 9, 42, 118
2, 176884, Note_on_c, 9, 35, 0
2, 176884, Note_on_c, 9, 42, 0
2, 176896, Note_on_c, 9, 42, 116
2, 176954, Note_on_c, 9, 42, 0
2, 176960, Note_on_c, 9, 35, 82
2, 177018, Note_on_c, 9, 35, 0
2, 177024, Note_on_c, 9, 40, 94
2, 177140, Note_on_c, 9, 40, 0
2, 177152, Note_on_c, 9, 35, 120
2, 177268, Note_on_c, 9, 35, 0
2, 177280, Note_on_c, 9, 35, 126
2, 177280, Note_on_c, 9, 42, 127
2, 177396, Note_on_c, 9, 35, 0
2, 177396, Note_on_c, 9, 42, 0
2, 177408, Note_on_c, 9, 40, 118
2, 177408, Note_on_c, 9, 42, 120
2, 177524, Note_on_c, 9, 40, 0
2, 177524, Note_on_c, 9, 42, 0
2, 177536, Note_on_c, 9, 46, 82
2, 177652, Note_on_c, 9, 46, 0
2, 177664, Note_on_c, 9, 57, 127
2, 177664, Note_on_c, 9, 35, 127
2, 177780, Note_on_c, 9, 57, 0
2, 177780, Note_on_c, 9, 35, 0
2, 177792, Note_on_c, 9, 42, 127
2, 177908, Note_on_c, 9, 42, 0
2, 177920, Note_on_c, 9, 40, 120
2, 177920, Note_on_c, 9, 42, 121
2, 178036, Note_on_c, 9, 40, 0
2, 178036, Note_on_c, 9, 42, 0
2, 178048, Note_on_c, 9, 42, 112
2, 178164, Note_on_c, 9, 42, 0
2, 178176, Note_on_c, 9, 35, 112
2, 178176, Note_on_c, 9, 42, 113
2, 178292, Note_on_c, 9, 35, 0
2, 178292, Note_on_c, 9, 42, 0
2, 178304, Note_on_c, 9, 35, 82
2, 178362, Note_on_c, 9, 35, 0
2, 178368, Note_on_c, 9, 40, 95
2, 178426, Note_on_c, 9, 40, 0
2, 178432, Note_on_c, 9, 42, 127
2, 178548, Note_on_c, 9, 42, 0
2, 178560, Note_on_c, 9, 35, 118
2, 178560, Note_on_c, 9, 42, 117
2, 178676, Note_on_c, 9, 35, 0
2, 178676, Note_on_c, 9, 42, 0
2, 178688, Note_on_c, 9, 42, 114
2, 178746, Note_on_c, 9, 42, 0
2, 178752, Note_on_c, 9, 35, 79
2, 178810, Note_on_c, 9, 35, 0
2, 178816, Note_on_c, 9, 40, 95
2, 178932, Note_on_c, 9, 40, 0
2, 178944, Note_on_c, 9, 35, 119
2, 179060, Note_on_c, 9, 35, 0
2, 179072, Note_on_c, 9, 35, 127
2, 179072, Note_on_c, 9, 42, 126
2, 179188, Note_on_c, 9, 35, 0
2, 179188, Note_on_c, 9, 42, 0
2, 179200, Note_on_c, 9, 40, 119
2, 179200, Note_on_c, 9, 42, 119
2, 179316, Note_on_c, 9, 40, 0
2, 179316, Note_on_c, 9, 42, 0
2, 179328, Note_on_c, 9, 46, 82
2, 179444, Note_on_c, 9, 46, 0
2, 179456, Note_on_c, 9, 35, 127
2, 179456, Note_on_c, 9, 42, 127
2, 179572, Note_on_c, 9, 35, 0
2, 179572, Note_on_c, 9, 42, 0
2, 179584, Note_on_c, 9, 42, 113
2, 179700, Note_on_c, 9, 42, 0
2, 179712, Note_on_c, 9, 40, 115
2, 179712, Note_on_c, 9, 42, 113
2, 179828, Note_on_c, 9, 40, 0
2, 179828, Note_on_c, 9, 42, 0
2, 179840, Note_on_c, 9, 42, 113
2, 179956, Note_on_c, 9, 42, 0
2, 179968, Note_on_c, 9, 35, 113
2, 179968, Note_on_c, 9, 42, 115
2, 180084, Note_on_c, 9, 35, 0
2, 180084, Note_on_c, 9, 42, 0
2, 180096, Note_on_c, 9, 35, 79
2, 180154, Note_on_c, 9, 35, 0
2, 180160, Note_on_c, 9, 40, 95
2, 180218, Note_on_c, 9, 40, 0
2, 180224, Note_on_c, 9, 42, 127
2, 180340, Note_on_c, 9, 42, 0
2, 180352, Note_on_c, 9, 35, 115
2, 180352, Note_on_c, 9, 42, 116
2, 180468, Note_on_c, 9, 35, 0
2, 180468, Note_on_c, 9, 42, 0
2, 180480, Note_on_c, 9, 42, 113
2, 180538, Note_on_c, 9, 42, 0
2, 180544, Note_on_c, 9, 35, 78
2, 180602, Note_on_c, 9, 35, 0
2, 180608, Note_on_c, 9, 40, 95
2, 180724, Note_on_c, 9, 40, 0
2, 180736, Note_on_c, 9, 35, 121
2, 180852, Note_on_c, 9, 35, 0
2, 180864, Note_on_c, 9, 35, 126
2, 180864, Note_on_c, 9, 42, 127
2, 180980, Note_on_c, 9, 35, 0
2, 180980, Note_on_c, 9, 42, 0
2, 180992, Note_on_c, 9, 40, 118
2, 180992, Note_on_c, 9, 42, 119
2, 181108, Note_on_c, 9, 40, 0
2, 181108, Note_on_c, 9, 42, 0
2, 181120, Note_on_c, 9, 46, 82
2, 181236, Note_on_c, 9, 46, 0
2, 181248, Note_on_c, 9, 52, 127
2, 181248, Note_on_c, 9, 35, 127
2, 181364, Note_on_c, 9, 52, 0
2, 181364, Note_on_c, 9, 35, 0
2, 181376, Note_on_c, 9, 46, 83
2, 181492, Note_on_c, 9, 46, 0
2, 181504, Note_on_c, 9, 52, 127
2, 181504, Note_on_c, 9, 35, 127
2, 181620, Note_on_c, 9, 52, 0
2, 181620, Note_on_c, 9, 35, 0
2, 181632, Note_on_c, 9, 46, 86
2, 181748, Note_on_c, 9, 46, 0
2, 181760, Note_on_c, 9, 52, 127
2, 181760, Note_on_c, 9, 35, 127
2, 181876, Note_on_c, 9, 52, 0
2, 181876, Note_on_c, 9, 35, 0
2, 181888, Note_on_c, 9, 46, 84
2, 182004, Note_on_c, 9, 46, 0
2, 182016, Note_on_c, 9, 52, 127
2, 182016, Note_on_c, 9, 35, 127
2, 182132, Note_on_c, 9, 52, 0
2, 182132, Note_on_c, 9, 35, 0
2, 182144, Note_on_c, 9, 46, 85
2, 182260, Note_on_c, 9, 46, 0
2, 182272, Note_on_c, 9, 52, 127
2, 182272, Note_on_c, 9, 35, 127
2, 182388, Note_on_c, 9, 52, 0
2, 182388, Note_on_c, 9, 35, 0
2, 182400, Note_on_c, 9, 46, 86
2, 182516, Note_on_c, 9, 46, 0
2, 182528, Note_on_c, 9, 52, 127
2, 182528, Note_on_c, 9, 35, 127
2, 182644, Note_on_c, 9, 52, 0
2, 182644, Note_on_c, 9, 35, 0
2, 182656, Note_on_c, 9, 46, 84
2, 182772, Note_on_c, 9, 46, 0
2, 182784, Note_on_c, 9, 52, 127
2, 182784, Note_on_c, 9, 35, 127
2, 182900, Note_on_c, 9, 52, 0
2, 182900, Note_on_c, 9, 35, 0
2, 182912, Note_on_c, 9, 46, 83
2, 183028, Note_on_c, 9, 46, 0
2, 183040, Note_on_c, 9, 52, 127
2, 183040, Note_on_c, 9, 35, 127
2, 183156, Note_on_c, 9, 52, 0
2, 183156, Note_on_c, 9, 35, 0
2, 183168, Note_on_c, 9, 46, 82
2, 183284, Note_on_c, 9, 46, 0
2, 183296, Note_on_c, 9, 52, 127
2, 183296, Note_on_c, 9, 35, 127
2, 183412, Note_on_c, 9, 52, 0
2, 183412, Note_on_c, 9, 35, 0
2, 183424, Note_on_c, 9, 46, 83
2, 183540, Note_on_c, 9, 46, 0
2, 183552, Note_on_c, 9, 52, 127
2, 183552, Note_on_c, 9, 35, 127
2, 183668, Note_on_c, 9, 52, 0
2, 183668, Note_on_c, 9, 35, 0
2, 183680, Note_on_c, 9, 46, 86
2, 183796, Note_on_c, 9, 46, 0
2, 183808, Note_on_c, 9, 52, 127
2, 183808, Note_on_c, 9, 35, 127
2, 183924, Note_on_c, 9, 52, 0
2, 183924, Note_on_c, 9, 35, 0
2, 183936, Note_on_c, 9, 46, 84
2, 184052, Note_on_c, 9, 46, 0
2, 184064, Note_on_c, 9, 52, 127
2, 184064, Note_on_c, 9, 35, 127
2, 184180, Note_on_c, 9, 52, 0
2, 184180, Note_on_c, 9, 35, 0
2, 184192, Note_on_c, 9, 46, 83
2, 184308, Note_on_c, 9, 46, 0
2, 184320, Note_on_c, 9, 52, 127
2, 184320, Note_on_c, 9, 35, 127
2, 184436, Note_on_c, 9, 52, 0
2, 184436, Note_on_c, 9, 35, 0
2, 184448, Note_on_c, 9, 46, 83
2, 184564, Note_on_c, 9, 46, 0
2, 184576, Note_on_c, 9, 52, 127
2, 184576, Note_on_c, 9, 35, 127
2, 184692, Note_on_c, 9, 52, 0
2, 184692, Note_on_c, 9, 35, 0
2, 184704, Note_on_c, 9, 46, 84
2, 184820, Note_on_c, 9, 46, 0
2, 184832, Note_on_c, 9, 52, 127
2, 184832, Note_on_c, 9, 35, 127
2, 184948, Note_on_c, 9, 52, 0
2, 184948, Note_on_c, 9, 35, 0
2, 184960, Note_on_c, 9, 46, 84
2, 185076, Note_on_c, 9, 46, 0
2, 185088, Note_on_c, 9, 52, 127
2, 185088, Note_on_c, 9, 35, 127
2, 185204, Note_on_c, 9, 52, 0
2, 185204, Note_on_c, 9, 35, 0
2, 185216, Note_on_c, 9, 46, 85
2, 185332, Note_on_c, 9, 46, 0
2, 185344, Note_on_c, 9, 52, 127
2, 185344, Note_on_c, 9, 35, 127
2, 185460, Note_on_c, 9, 52, 0
2, 185460, Note_on_c, 9, 35, 0
2, 185472, Note_on_c, 9, 46, 83
2, 185588, Note_on_c, 9, 46, 0
2, 185600, Note_on_c, 9, 52, 127
2, 185600, Note_on_c, 9, 35, 127
2, 185716, Note_on_c, 9, 52, 0
2, 185716, Note_on_c, 9, 35, 0
2, 185728, Note_on_c, 9, 46, 83
2, 185844, Note_on_c, 9, 46, 0
2, 185856, Note_on_c, 9, 52, 127
2, 185856, Note_on_c, 9, 35, 127
2, 185972, Note_on_c, 9, 52, 0
2, 185972, Note_on_c, 9, 35, 0
2, 185984, Note_on_c, 9, 46, 83
2, 186100, Note_on_c, 9, 46, 0
2, 186112, Note_on_c, 9, 52, 127
2, 186112, Note_on_c, 9, 35, 127
2, 186228, Note_on_c, 9, 52, 0
2, 186228, Note_on_c, 9, 35, 0
2, 186240, Note_on_c, 9, 46, 83
2, 186356, Note_on_c, 9, 46, 0
2, 186368, Note_on_c, 9, 52, 127
2, 186368, Note_on_c, 9, 35, 127
2, 186484, Note_on_c, 9, 52, 0
2, 186484, Note_on_c, 9, 35, 0
2, 186496, Note_on_c, 9, 46, 83
2, 186612, Note_on_c, 9, 46, 0
2, 186624, Note_on_c, 9, 52, 127
2, 186624, Note_on_c, 9, 35, 127
2, 186740, Note_on_c, 9, 52, 0
2, 186740, Note_on_c, 9, 35, 0
2, 186752, Note_on_c, 9, 46, 83
2, 186868, Note_on_c, 9, 46, 0
2, 186880, Note_on_c, 9, 52, 127
2, 186880, Note_on_c, 9, 35, 127
2, 186996, Note_on_c, 9, 52, 0
2, 186996, Note_on_c, 9, 35, 0
2, 187008, Note_on_c, 9, 46, 85
2, 187124, Note_on_c, 9, 46, 0
2, 187136, Note_on_c, 9, 52, 127
2, 187136, Note_on_c, 9, 35, 127
2, 187252, Note_on_c, 9, 52, 0
2, 187252, Note_on_c, 9, 35, 0
2, 187264, Note_on_c, 9, 46, 85
2, 187380, Note_on_c, 9, 46, 0
2, 187381, End_track
3, 0, Start_track
3, 0, Title_t, "Percussion"
3, 0, Control_c, 9, 91, 55
3, 0, Control_c, 9, 10, 71
3, 1, End_track
4, 0, Start_track
4, 0, Title_t, "Bass guitar"
4, 0, Control_c, 8, 91, 48
4, 0, Control_c, 8, 10, 53
4, 12288, Control_c, 8, 0, 0
4, 12288, Control_c, 8, 32, 0
4, 12288, Program_c, 8, 37
4, 12288, Note_on_c, 8, 40, 72
4, 12404, Note_on_c, 8, 40, 0
4, 12416, Note_on_c, 8, 35, 63
4, 12532, Note_on_c, 8, 35, 0
4, 12544, Note_on_c, 8, 38, 84
4, 12602, Note_on_c, 8, 38, 0
4, 12608, Note_on_c, 8, 35, 70
4, 12666, Note_on_c, 8, 35, 0
4, 12736, Note_on_c, 8, 35, 69
4, 12794, Note_on_c, 8, 35, 0
4, 12800, Note_on_c, 8, 40, 85
4, 12916, Note_on_c, 8, 40, 0
4, 12928, Note_on_c, 8, 35, 68
4, 13044, Note_on_c, 8, 35, 0
4, 13056, Note_on_c, 8, 38, 85
4, 13172, Note_on_c, 8, 38, 0
4, 13184, Note_on_c, 8, 35, 71
4, 13300, Note_on_c, 8, 35, 0
4, 13312, Note_on_c, 8, 40, 86
4, 13428, Note_on_c, 8, 40, 0
4, 13440, Note_on_c, 8, 35, 68
4, 13556, Note_on_c, 8, 35, 0
4, 13568, Note_on_c, 8, 38, 82
4, 13626, Note_on_c, 8, 38, 0
4, 13632, Note_on_c, 8, 35, 68
4, 13690, Note_on_c, 8, 35, 0
4, 13760, Note_on_c, 8, 35, 69
4, 13818, Note_on_c, 8, 35, 0
4, 13824, Note_on_c, 8, 40, 87
4, 13940, Note_on_c, 8, 40, 0
4, 13952, Note_on_c, 8, 35, 68
4, 14068, Note_on_c, 8, 35, 0
4, 14080, Note_on_c, 8, 38, 83
4, 14196, Note_on_c, 8, 38, 0
4, 14208, Note_on_c, 8, 35, 71
4, 14324, Note_on_c, 8, 35, 0
4, 14336, Note_on_c, 8, 40, 88
4, 14452, Note_on_c, 8, 40, 0
4, 14464, Note_on_c, 8, 35, 68
4, 14580, Note_on_c, 8, 35, 0
4, 14592, Note_on_c, 8, 38, 83
4, 14650, Note_on_c, 8, 38, 0
4, 14656, Note_on_c, 8, 35, 70
4, 14714, Note_on_c, 8, 35, 0
4, 14784, Note_on_c, 8, 35, 69
4, 14842, Note_on_c, 8, 35, 0
4, 14848, Note_on_c, 8, 40, 86
4, 14964, Note_on_c, 8, 40, 0
4, 14976, Note_on_c, 8, 35, 68
4, 15092, Note_on_c, 8, 35, 0
4, 15104, Note_on_c, 8, 38, 86
4, 15220, Note_on_c, 8, 38, 0
4, 15232, Note_on_c, 8, 35, 68
4, 15348, Note_on_c, 8, 35, 0
4, 15360, Note_on_c, 8, 40, 90
4, 15476, Note_on_c, 8, 40, 0
4, 15488, Note_on_c, 8, 35, 68
4, 15604, Note_on_c, 8, 35, 0
4, 15616, Note_on_c, 8, 38, 85
4, 15674, Note_on_c, 8, 38, 0
4, 15680, Note_on_c, 8, 35, 70
4, 15738, Note_on_c, 8, 35, 0
4, 15808, Note_on_c, 8, 35, 68
4, 15866, Note_on_c, 8, 35, 0
4, 15872, Note_on_c, 8, 40, 85
4, 15988, Note_on_c, 8, 40, 0
4, 16000, Note_on_c, 8, 35, 68
4, 16116, Note_on_c, 8, 35, 0
4, 16128, Note_on_c, 8, 38, 83
4, 16244, Note_on_c, 8, 38, 0
4, 16256, Note_on_c, 8, 35, 69
4, 16372, Note_on_c, 8, 35, 0
4, 16384, Note_on_c, 8, 40, 89
4, 16500, Note_on_c, 8, 40, 0
4, 16512, Note_on_c, 8, 35, 68
4, 16628, Note_on_c, 8, 35, 0
4, 16640, Note_on_c, 8, 38, 85
4, 16698, Note_on_c, 8, 38, 0
4, 16704, Note_on_c, 8, 35, 70
4, 16762, Note_on_c, 8, 35, 0
4, 16832, Note_on_c, 8, 35, 70
4, 16890, Note_on_c, 8, 35, 0
4, 16896, Note_on_c, 8, 40, 85
4, 17012, Note_on_c, 8, 40, 0
4, 17024, Note_on_c, 8, 35, 69
4, 17140, Note_on_c, 8, 35, 0
4, 17152, Note_on_c, 8, 38, 83
4, 17268, Note_on_c, 8, 38, 0
4, 17280, Note_on_c, 8, 35, 69
4, 17396, Note_on_c, 8, 35, 0
4, 17408, Note_on_c, 8, 40, 87
4, 17524, Note_on_c, 8, 40, 0
4, 17536, Note_on_c, 8, 35, 68
4, 17652, Note_on_c, 8, 35, 0
4, 17664, Note_on_c, 8, 38, 85
4, 17722, Note_on_c, 8, 38, 0
4, 17728, Note_on_c, 8, 35, 68
4, 17786, Note_on_c, 8, 35, 0
4, 17856, Note_on_c, 8, 35, 69
4, 17914, Note_on_c, 8, 35, 0
4, 17920, Note_on_c, 8, 40, 88
4, 18036, Note_on_c, 8, 40, 0
4, 18048, Note_on_c, 8, 35, 66
4, 18164, Note_on_c, 8, 35, 0
4, 18176, Note_on_c, 8, 38, 83
4, 18292, Note_on_c, 8, 38, 0
4, 18304, Note_on_c, 8, 35, 71
4, 18420, Note_on_c, 8, 35, 0
4, 18432, Note_on_c, 8, 40, 88
4, 18548, Note_on_c, 8, 40, 0
4, 18560, Note_on_c, 8, 35, 67
4, 18676, Note_on_c, 8, 35, 0
4, 18688, Note_on_c, 8, 38, 86
4, 18746, Note_on_c, 8, 38, 0
4, 18752, Note_on_c, 8, 35, 69
4, 18810, Note_on_c, 8, 35, 0
4, 18880, Note_on_c, 8, 35, 70
4, 18938, Note_on_c, 8, 35, 0
4, 18944, Note_on_c, 8, 40, 89
4, 19060, Note_on_c, 8, 40, 0
4, 19072, Note_on_c, 8, 35, 67
4, 19188, Note_on_c, 8, 35, 0
4, 19200, Note_on_c, 8, 38, 86
4, 19316, Note_on_c, 8, 38, 0
4, 19328, Note_on_c, 8, 35, 69
4, 19444, Note_on_c, 8, 35, 0
4, 19456, Note_on_c, 8, 40, 89
4, 19572, Note_on_c, 8, 40, 0
4, 19584, Note_on_c, 8, 35, 68
4, 19700, Note_on_c, 8, 35, 0
4, 19712, Note_on_c, 8, 38, 83
4, 19770, Note_on_c, 8, 38, 0
4, 19776, Note_on_c, 8, 35, 72
4, 19834, Note_on_c, 8, 35, 0
4, 19904, Note_on_c, 8, 35, 69
4, 19962, Note_on_c, 8, 35, 0
4, 19968, Note_on_c, 8, 40, 85
4, 20084, Note_on_c, 8, 40, 0
4, 20096, Note_on_c, 8, 35, 67
4, 20212, Note_on_c, 8, 35, 0
4, 20224, Note_on_c, 8, 38, 85
4, 20340, Note_on_c, 8, 38, 0
4, 20352, Note_on_c, 8, 35, 68
4, 20468, Note_on_c, 8, 35, 0
4, 20480, Note_on_c, 8, 40, 89
4, 20596, Note_on_c, 8, 40, 0
4, 20608, Note_on_c, 8, 35, 65
4, 20724, Note_on_c, 8, 35, 0
4, 20736, Note_on_c, 8, 38, 85
4, 20794, Note_on_c, 8, 38, 0
4, 20800, Note_on_c, 8, 35, 69
4, 20858, Note_on_c, 8, 35, 0
4, 20928, Note_on_c, 8, 35, 69
4, 20986, Note_on_c, 8, 35, 0
4, 20992, Note_on_c, 8, 40, 85
4, 21108, Note_on_c, 8, 40, 0
4, 21120, Note_on_c, 8, 35, 67
4, 21236, Note_on_c, 8, 35, 0
4, 21248, Note_on_c, 8, 38, 85
4, 21364, Note_on_c, 8, 38, 0
4, 21376, Note_on_c, 8, 35, 71
4, 21492, Note_on_c, 8, 35, 0
4, 21504, Note_on_c, 8, 40, 89
4, 21620, Note_on_c, 8, 40, 0
4, 21632, Note_on_c, 8, 35, 66
4, 21748, Note_on_c, 8, 35, 0
4, 21760, Note_on_c, 8, 38, 85
4, 21818, Note_on_c, 8, 38, 0
4, 21824, Note_on_c, 8, 35, 71
4, 21882, Note_on_c, 8, 35, 0
4, 21952, Note_on_c, 8, 35, 67
4, 22010, Note_on_c, 8, 35, 0
4, 22016, Note_on_c, 8, 40, 85
4, 22132, Note_on_c, 8, 40, 0
4, 22144, Note_on_c, 8, 35, 68
4, 22260, Note_on_c, 8, 35, 0
4, 22272, Note_on_c, 8, 38, 84
4, 22388, Note_on_c, 8, 38, 0
4, 22400, Note_on_c, 8, 35, 69
4, 22516, Note_on_c, 8, 35, 0
4, 22528, Note_on_c, 8, 40, 87
4, 22644, Note_on_c, 8, 40, 0
4, 22656, Note_on_c, 8, 35, 66
4, 22772, Note_on_c, 8, 35, 0
4, 22784, Note_on_c, 8, 38, 86
4, 22842, Note_on_c, 8, 38, 0
4, 22848, Note_on_c, 8, 35, 71
4, 22906, Note_on_c, 8, 35, 0
4, 22976, Note_on_c, 8, 35, 70
4, 23034, Note_on_c, 8, 35, 0
4, 23040, Note_on_c, 8, 40, 87
4, 23156, Note_on_c, 8, 40, 0
4, 23168, Note_on_c, 8, 35, 68
4, 23284, Note_on_c, 8, 35, 0
4, 23296, Note_on_c, 8, 38, 84
4, 23412, Note_on_c, 8, 38, 0
4, 23424, Note_on_c, 8, 35, 69
4, 23540, Note_on_c, 8, 35, 0
4, 23552, Note_on_c, 8, 40, 89
4, 23668, Note_on_c, 8, 40, 0
4, 23680, Note_on_c, 8, 35, 66
4, 23796, Note_on_c, 8, 35, 0
4, 23808, Note_on_c, 8, 38, 82
4, 23866, Note_on_c, 8, 38, 0
4, 23872, Note_on_c, 8, 35, 72
4, 23930, Note_on_c, 8, 35, 0
4, 24000, Note_on_c, 8, 35, 68
4, 24058, Note_on_c, 8, 35, 0
4, 24064, Note_on_c, 8, 40, 85
4, 24180, Note_on_c, 8, 40, 0
4, 24192, Note_on_c, 8, 35, 66
4, 24308, Note_on_c, 8, 35, 0
4, 24320, Note_on_c, 8, 38, 84
4, 24436, Note_on_c, 8, 38, 0
4, 24448, Note_on_c, 8, 35, 69
4, 24564, Note_on_c, 8, 35, 0
4, 24576, Note_on_c, 8, 43, 127
4, 24692, Note_on_c, 8, 43, 0
4, 24704, Note_on_c, 8, 38, 97
4, 24820, Note_on_c, 8, 38, 0
4, 24832, Note_on_c, 8, 41, 121
4, 24948, Note_on_c, 8, 41, 0
4, 24960, Note_on_c, 8, 38, 103
4, 25018, Note_on_c, 8, 38, 0
4, 25024, Note_on_c, 8, 43, 123
4, 25087, Note_on_c, 8, 43, 0
4, 25152, Note_on_c, 8, 43, 113
4, 25210, Note_on_c, 8, 43, 0
4, 25216, Note_on_c, 8, 38, 96
4, 25332, Note_on_c, 8, 38, 0
4, 25344, Note_on_c, 8, 41, 121
4, 25460, Note_on_c, 8, 41, 0
4, 25472, Note_on_c, 8, 38, 104
4, 25588, Note_on_c, 8, 38, 0
4, 25600, Note_on_c, 8, 43, 126
4, 25716, Note_on_c, 8, 43, 0
4, 25728, Note_on_c, 8, 38, 97
4, 25844, Note_on_c, 8, 38, 0
4, 25856, Note_on_c, 8, 41, 121
4, 25972, Note_on_c, 8, 41, 0
4, 25984, Note_on_c, 8, 38, 100
4, 26042, Note_on_c, 8, 38, 0
4, 26048, Note_on_c, 8, 43, 126
4, 26111, Note_on_c, 8, 43, 0
4, 26176, Note_on_c, 8, 43, 113
4, 26234, Note_on_c, 8, 43, 0
4, 26240, Note_on_c, 8, 38, 94
4, 26356, Note_on_c, 8, 38, 0
4, 26368, Note_on_c, 8, 41, 119
4, 26484, Note_on_c, 8, 41, 0
4, 26496, Note_on_c, 8, 38, 101
4, 26612, Note_on_c, 8, 38, 0
4, 26624, Note_on_c, 8, 43, 127
4, 26740, Note_on_c, 8, 43, 0
4, 26752, Note_on_c, 8, 38, 100
4, 26868, Note_on_c, 8, 38, 0
4, 26880, Note_on_c, 8, 41, 119
4, 26996, Note_on_c, 8, 41, 0
4, 27008, Note_on_c, 8, 38, 103
4, 27066, Note_on_c, 8, 38, 0
4, 27072, Note_on_c, 8, 43, 126
4, 27135, Note_on_c, 8, 43, 0
4, 27200, Note_on_c, 8, 43, 113
4, 27258, Note_on_c, 8, 43, 0
4, 27264, Note_on_c, 8, 38, 96
4, 27380, Note_on_c, 8, 38, 0
4, 27392, Note_on_c, 8, 41, 121
4, 27508, Note_on_c, 8, 41, 0
4, 27520, Note_on_c, 8, 38, 101
4, 27636, Note_on_c, 8, 38, 0
4, 27648, Note_on_c, 8, 43, 127
4, 27764, Note_on_c, 8, 43, 0
4, 27776, Note_on_c, 8, 38, 96
4, 27892, Note_on_c, 8, 38, 0
4, 27904, Note_on_c, 8, 41, 121
4, 28020, Note_on_c, 8, 41, 0
4, 28032, Note_on_c, 8, 38, 103
4, 28090, Note_on_c, 8, 38, 0
4, 28096, Note_on_c, 8, 43, 122
4, 28159, Note_on_c, 8, 43, 0
4, 28224, Note_on_c, 8, 43, 113
4, 28282, Note_on_c, 8, 43, 0
4, 28288, Note_on_c, 8, 38, 95
4, 28404, Note_on_c, 8, 38, 0
4, 28416, Note_on_c, 8, 41, 121
4, 28532, Note_on_c, 8, 41, 0
4, 28544, Note_on_c, 8, 38, 103
4, 28660, Note_on_c, 8, 38, 0
4, 28672, Note_on_c, 8, 43, 127
4, 28788, Note_on_c, 8, 43, 0
4, 28800, Note_on_c, 8, 38, 97
4, 28916, Note_on_c, 8, 38, 0
4, 28928, Note_on_c, 8, 41, 122
4, 29044, Note_on_c, 8, 41, 0
4, 29056, Note_on_c, 8, 38, 103
4, 29114, Note_on_c, 8, 38, 0
4, 29120, Note_on_c, 8, 43, 124
4, 29183, Note_on_c, 8, 43, 0
4, 29248, Note_on_c, 8, 43, 114
4, 29306, Note_on_c, 8, 43, 0
4, 29312, Note_on_c, 8, 38, 97
4, 29428, Note_on_c, 8, 38, 0
4, 29440, Note_on_c, 8, 41, 120
4, 29556, Note_on_c, 8, 41, 0
4, 29568, Note_on_c, 8, 38, 103
4, 29684, Note_on_c, 8, 38, 0
4, 29696, Note_on_c, 8, 43, 125
4, 29812, Note_on_c, 8, 43, 0
4, 29824, Note_on_c, 8, 38, 96
4, 29940, Note_on_c, 8, 38, 0
4, 29952, Note_on_c, 8, 41, 120
4, 30068, Note_on_c, 8, 41, 0
4, 30080, Note_on_c, 8, 38, 101
4, 30138, Note_on_c, 8, 38, 0
4, 30144, Note_on_c, 8, 43, 124
4, 30207, Note_on_c, 8, 43, 0
4, 30272, Note_on_c, 8, 43, 114
4, 30330, Note_on_c, 8, 43, 0
4, 30336, Note_on_c, 8, 38, 98
4, 30452, Note_on_c, 8, 38, 0
4, 30464, Note_on_c, 8, 41, 122
4, 30580, Note_on_c, 8, 41, 0
4, 30592, Note_on_c, 8, 38, 103
4, 30708, Note_on_c, 8, 38, 0
4, 30720, Note_on_c, 8, 43, 125
4, 30836, Note_on_c, 8, 43, 0
4, 30848, Note_on_c, 8, 38, 96
4, 30964, Note_on_c, 8, 38, 0
4, 30976, Note_on_c, 8, 41, 122
4, 31092, Note_on_c, 8, 41, 0
4, 31104, Note_on_c, 8, 38, 101
4, 31162, Note_on_c, 8, 38, 0
4, 31168, Note_on_c, 8, 43, 124
4, 31231, Note_on_c, 8, 43, 0
4, 31296, Note_on_c, 8, 43, 114
4, 31354, Note_on_c, 8, 43, 0
4, 31360, Note_on_c, 8, 38, 97
4, 31476, Note_on_c, 8, 38, 0
4, 31488, Note_on_c, 8, 41, 121
4, 31604, Note_on_c, 8, 41, 0
4, 31616, Note_on_c, 8, 38, 103
4, 31732, Note_on_c, 8, 38, 0
4, 31744, Note_on_c, 8, 43, 127
4, 31860, Note_on_c, 8, 43, 0
4, 31872, Note_on_c, 8, 38, 99
4, 31988, Note_on_c, 8, 38, 0
4, 32000, Note_on_c, 8, 41, 122
4, 32116, Note_on_c, 8, 41, 0
4, 32128, Note_on_c, 8, 38, 101
4, 32186, Note_on_c, 8, 38, 0
4, 32192, Note_on_c, 8, 43, 125
4, 32255, Note_on_c, 8, 43, 0
4, 32320, Note_on_c, 8, 43, 111
4, 32378, Note_on_c, 8, 43, 0
4, 32384, Note_on_c, 8, 38, 97
4, 32500, Note_on_c, 8, 38, 0
4, 32512, Note_on_c, 8, 41, 118
4, 32628, Note_on_c, 8, 41, 0
4, 32640, Note_on_c, 8, 38, 103
4, 32756, Note_on_c, 8, 38, 0
4, 32768, Note_on_c, 8, 40, 121
4, 32884, Note_on_c, 8, 40, 0
4, 32896, Note_on_c, 8, 35, 97
4, 33012, Note_on_c, 8, 35, 0
4, 33024, Note_on_c, 8, 38, 122
4, 33140, Note_on_c, 8, 38, 0
4, 33152, Note_on_c, 8, 35, 103
4, 33210, Note_on_c, 8, 35, 0
4, 33216, Note_on_c, 8, 40, 124
4, 33332, Note_on_c, 8, 40, 0
4, 33344, Note_on_c, 8, 40, 114
4, 33402, Note_on_c, 8, 40, 0
4, 33408, Note_on_c, 8, 35, 97
4, 33524, Note_on_c, 8, 35, 0
4, 33536, Note_on_c, 8, 38, 121
4, 33652, Note_on_c, 8, 38, 0
4, 33664, Note_on_c, 8, 35, 100
4, 33780, Note_on_c, 8, 35, 0
4, 33792, Note_on_c, 8, 40, 127
4, 33908, Note_on_c, 8, 40, 0
4, 33920, Note_on_c, 8, 35, 99
4, 34036, Note_on_c, 8, 35, 0
4, 34048, Note_on_c, 8, 38, 120
4, 34164, Note_on_c, 8, 38, 0
4, 34176, Note_on_c, 8, 35, 100
4, 34234, Note_on_c, 8, 35, 0
4, 34240, Note_on_c, 8, 40, 124
4, 34356, Note_on_c, 8, 40, 0
4, 34368, Note_on_c, 8, 40, 113
4, 34426, Note_on_c, 8, 40, 0
4, 34432, Note_on_c, 8, 35, 94
4, 34548, Note_on_c, 8, 35, 0
4, 34560, Note_on_c, 8, 38, 118
4, 34676, Note_on_c, 8, 38, 0
4, 34688, Note_on_c, 8, 35, 103
4, 34804, Note_on_c, 8, 35, 0
4, 36864, Note_on_c, 8, 40, 103
4, 36980, Note_on_c, 8, 40, 0
4, 36992, Note_on_c, 8, 35, 94
4, 37108, Note_on_c, 8, 35, 0
4, 37120, Note_on_c, 8, 38, 122
4, 37236, Note_on_c, 8, 38, 0
4, 37248, Note_on_c, 8, 35, 101
4, 37306, Note_on_c, 8, 35, 0
4, 37312, Note_on_c, 8, 40, 124
4, 37428, Note_on_c, 8, 40, 0
4, 37440, Note_on_c, 8, 40, 113
4, 37498, Note_on_c, 8, 40, 0
4, 37504, Note_on_c, 8, 35, 95
4, 37620, Note_on_c, 8, 35, 0
4, 37632, Note_on_c, 8, 38, 120
4, 37748, Note_on_c, 8, 38, 0
4, 37760, Note_on_c, 8, 35, 101
4, 37876, Note_on_c, 8, 35, 0
4, 37888, Note_on_c, 8, 40, 127
4, 38004, Note_on_c, 8, 40, 0
4, 38016, Note_on_c, 8, 35, 97
4, 38132, Note_on_c, 8, 35, 0
4, 38144, Note_on_c, 8, 38, 120
4, 38260, Note_on_c, 8, 38, 0
4, 38272, Note_on_c, 8, 35, 101
4, 38330, Note_on_c, 8, 35, 0
4, 38336, Note_on_c, 8, 40, 122
4, 38452, Note_on_c, 8, 40, 0
4, 38464, Note_on_c, 8, 40, 112
4, 38522, Note_on_c, 8, 40, 0
4, 38528, Note_on_c, 8, 35, 94
4, 38644, Note_on_c, 8, 35, 0
4, 38656, Note_on_c, 8, 38, 121
4, 38772, Note_on_c, 8, 38, 0
4, 38784, Note_on_c, 8, 35, 101
4, 38900, Note_on_c, 8, 35, 0
4, 40960, Note_on_c, 8, 40, 102
4, 41076, Note_on_c, 8, 40, 0
4, 41088, Note_on_c, 8, 35, 93
4, 41204, Note_on_c, 8, 35, 0
4, 41216, Note_on_c, 8, 38, 121
4, 41332, Note_on_c, 8, 38, 0
4, 41344, Note_on_c, 8, 35, 103
4, 41402, Note_on_c, 8, 35, 0
4, 41408, Note_on_c, 8, 40, 124
4, 41524, Note_on_c, 8, 40, 0
4, 41536, Note_on_c, 8, 40, 112
4, 41594, Note_on_c, 8, 40, 0
4, 41600, Note_on_c, 8, 35, 97
4, 41716, Note_on_c, 8, 35, 0
4, 41728, Note_on_c, 8, 38, 119
4, 41844, Note_on_c, 8, 38, 0
4, 41856, Note_on_c, 8, 35, 102
4, 41972, Note_on_c, 8, 35, 0
4, 41984, Note_on_c, 8, 40, 126
4, 42100, Note_on_c, 8, 40, 0
4, 42112, Note_on_c, 8, 35, 98
4, 42228, Note_on_c, 8, 35, 0
4, 42240, Note_on_c, 8, 38, 123
4, 42356, Note_on_c, 8, 38, 0
4, 42368, Note_on_c, 8, 35, 101
4, 42426, Note_on_c, 8, 35, 0
4, 42432, Note_on_c, 8, 40, 124
4, 42548, Note_on_c, 8, 40, 0
4, 42560, Note_on_c, 8, 40, 112
4, 42618, Note_on_c, 8, 40, 0
4, 42624, Note_on_c, 8, 35, 98
4, 42740, Note_on_c, 8, 35, 0
4, 42752, Note_on_c, 8, 38, 122
4, 42868, Note_on_c, 8, 38, 0
4, 42880, Note_on_c, 8, 35, 103
4, 42996, Note_on_c, 8, 35, 0
4, 43008, Note_on_c, 8, 40, 127
4, 43124, Note_on_c, 8, 40, 0
4, 43136, Note_on_c, 8, 35, 96
4, 43252, Note_on_c, 8, 35, 0
4, 43264, Note_on_c, 8, 38, 120
4, 43380, Note_on_c, 8, 38, 0
4, 43392, Note_on_c, 8, 35, 102
4, 43450, Note_on_c, 8, 35, 0
4, 43456, Note_on_c, 8, 40, 124
4, 43572, Note_on_c, 8, 40, 0
4, 43584, Note_on_c, 8, 40, 115
4, 43642, Note_on_c, 8, 40, 0
4, 43648, Note_on_c, 8, 35, 96
4, 43764, Note_on_c, 8, 35, 0
4, 43776, Note_on_c, 8, 38, 119
4, 43892, Note_on_c, 8, 38, 0
4, 43904, Note_on_c, 8, 35, 101
4, 44020, Note_on_c, 8, 35, 0
4, 44032, Note_on_c, 8, 40, 127
4, 44148, Note_on_c, 8, 40, 0
4, 44160, Note_on_c, 8, 35, 98
4, 44276, Note_on_c, 8, 35, 0
4, 44288, Note_on_c, 8, 38, 123
4, 44404, Note_on_c, 8, 38, 0
4, 44416, Note_on_c, 8, 35, 100
4, 44474, Note_on_c, 8, 35, 0
4, 44480, Note_on_c, 8, 40, 126
4, 44596, Note_on_c, 8, 40, 0
4, 44608, Note_on_c, 8, 40, 114
4, 44666, Note_on_c, 8, 40, 0
4, 44672, Note_on_c, 8, 35, 95
4, 44788, Note_on_c, 8, 35, 0
4, 44800, Note_on_c, 8, 38, 121
4, 44916, Note_on_c, 8, 38, 0
4, 44928, Note_on_c, 8, 35, 101
4, 45044, Note_on_c, 8, 35, 0
4, 45056, Note_on_c, 8, 40, 127
4, 45172, Note_on_c, 8, 40, 0
4, 45184, Note_on_c, 8, 35, 99
4, 45300, Note_on_c, 8, 35, 0
4, 45312, Note_on_c, 8, 38, 121
4, 45428, Note_on_c, 8, 38, 0
4, 45440, Note_on_c, 8, 35, 104
4, 45498, Note_on_c, 8, 35, 0
4, 45504, Note_on_c, 8, 40, 124
4, 45620, Note_on_c, 8, 40, 0
4, 45632, Note_on_c, 8, 40, 114
4, 45690, Note_on_c, 8, 40, 0
4, 45696, Note_on_c, 8, 35, 94
4, 45812, Note_on_c, 8, 35, 0
4, 45824, Note_on_c, 8, 38, 119
4, 45940, Note_on_c, 8, 38, 0
4, 45952, Note_on_c, 8, 35, 102
4, 46068, Note_on_c, 8, 35, 0
4, 46080, Note_on_c, 8, 40, 127
4, 46196, Note_on_c, 8, 40, 0
4, 46208, Note_on_c, 8, 35, 99
4, 46324, Note_on_c, 8, 35, 0
4, 46336, Note_on_c, 8, 38, 120
4, 46452, Note_on_c, 8, 38, 0
4, 46464, Note_on_c, 8, 35, 102
4, 46522, Note_on_c, 8, 35, 0
4, 46528, Note_on_c, 8, 40, 124
4, 46644, Note_on_c, 8, 40, 0
4, 46656, Note_on_c, 8, 40, 111
4, 46714, Note_on_c, 8, 40, 0
4, 46720, Note_on_c, 8, 35, 96
4, 46836, Note_on_c, 8, 35, 0
4, 46848, Note_on_c, 8, 38, 119
4, 46964, Note_on_c, 8, 38, 0
4, 46976, Note_on_c, 8, 35, 103
4, 47092, Note_on_c, 8, 35, 0
4, 47104, Note_on_c, 8, 40, 127
4, 47220, Note_on_c, 8, 40, 0
4, 47232, Note_on_c, 8, 35, 97
4, 47348, Note_on_c, 8, 35, 0
4, 47360, Note_on_c, 8, 38, 121
4, 47476, Note_on_c, 8, 38, 0
4, 47488, Note_on_c, 8, 35, 102
4, 47546, Note_on_c, 8, 35, 0
4, 47552, Note_on_c, 8, 40, 124
4, 47668, Note_on_c, 8, 40, 0
4, 47680, Note_on_c, 8, 40, 112
4, 47738, Note_on_c, 8, 40, 0
4, 47744, Note_on_c, 8, 35, 94
4, 47860, Note_on_c, 8, 35, 0
4, 47872, Note_on_c, 8, 38, 119
4, 47988, Note_on_c, 8, 38, 0
4, 48000, Note_on_c, 8, 35, 104
4, 48116, Note_on_c, 8, 35, 0
4, 48128, Note_on_c, 8, 40, 125
4, 48244, Note_on_c, 8, 40, 0
4, 48256, Note_on_c, 8, 35, 100
4, 48372, Note_on_c, 8, 35, 0
4, 48384, Note_on_c, 8, 38, 122
4, 48500, Note_on_c, 8, 38, 0
4, 48512, Note_on_c, 8, 35, 101
4, 48570, Note_on_c, 8, 35, 0
4, 48576, Note_on_c, 8, 40, 122
4, 48692, Note_on_c, 8, 40, 0
4, 48704, Note_on_c, 8, 40, 115
4, 48762, Note_on_c, 8, 40, 0
4, 48768, Note_on_c, 8, 35, 97
4, 48884, Note_on_c, 8, 35, 0
4, 48896, Note_on_c, 8, 38, 119
4, 49012, Note_on_c, 8, 38, 0
4, 49024, Note_on_c, 8, 35, 104
4, 49140, Note_on_c, 8, 35, 0
4, 49152, Note_on_c, 8, 40, 127
4, 49268, Note_on_c, 8, 40, 0
4, 49280, Note_on_c, 8, 35, 96
4, 49396, Note_on_c, 8, 35, 0
4, 49408, Note_on_c, 8, 38, 123
4, 49524, Note_on_c, 8, 38, 0
4, 49536, Note_on_c, 8, 35, 102
4, 49594, Note_on_c, 8, 35, 0
4, 49600, Note_on_c, 8, 40, 125
4, 49716, Note_on_c, 8, 40, 0
4, 49728, Note_on_c, 8, 40, 113
4, 49786, Note_on_c, 8, 40, 0
4, 49792, Note_on_c, 8, 35, 95
4, 49908, Note_on_c, 8, 35, 0
4, 49920, Note_on_c, 8, 38, 120
4, 50036, Note_on_c, 8, 38, 0
4, 50048, Note_on_c, 8, 35, 103
4, 50164, Note_on_c, 8, 35, 0
4, 50176, Note_on_c, 8, 40, 126
4, 50292, Note_on_c, 8, 40, 0
4, 50304, Note_on_c, 8, 35, 99
4, 50420, Note_on_c, 8, 35, 0
4, 50432, Note_on_c, 8, 38, 123
4, 50548, Note_on_c, 8, 38, 0
4, 50560, Note_on_c, 8, 35, 102
4, 50618, Note_on_c, 8, 35, 0
4, 50624, Note_on_c, 8, 40, 122
4, 50740, Note_on_c, 8, 40, 0
4, 50752, Note_on_c, 8, 40, 114
4, 50810, Note_on_c, 8, 40, 0
4, 50816, Note_on_c, 8, 35, 96
4, 50932, Note_on_c, 8, 35, 0
4, 50944, Note_on_c, 8, 38, 119
4, 51060, Note_on_c, 8, 38, 0
4, 51072, Note_on_c, 8, 35, 101
4, 51188, Note_on_c, 8, 35, 0
4, 51200, Note_on_c, 8, 40, 127
4, 51316, Note_on_c, 8, 40, 0
4, 51328, Note_on_c, 8, 35, 96
4, 51444, Note_on_c, 8, 35, 0
4, 51456, Note_on_c, 8, 38, 120
4, 51572, Note_on_c, 8, 38, 0
4, 51584, Note_on_c, 8, 35, 101
4, 51642, Note_on_c, 8, 35, 0
4, 51648, Note_on_c, 8, 40, 124
4, 51764, Note_on_c, 8, 40, 0
4, 51776, Note_on_c, 8, 40, 113
4, 51834, Note_on_c, 8, 40, 0
4, 51840, Note_on_c, 8, 35, 95
4, 51956, Note_on_c, 8, 35, 0
4, 51968, Note_on_c, 8, 38, 122
4, 52084, Note_on_c, 8, 38, 0
4, 52096, Note_on_c, 8, 35, 103
4, 52212, Note_on_c, 8, 35, 0
4, 52224, Note_on_c, 8, 40, 126
4, 52340, Note_on_c, 8, 40, 0
4, 52352, Note_on_c, 8, 35, 99
4, 52468, Note_on_c, 8, 35, 0
4, 52480, Note_on_c, 8, 38, 122
4, 52596, Note_on_c, 8, 38, 0
4, 52608, Note_on_c, 8, 35, 102
4, 52666, Note_on_c, 8, 35, 0
4, 52672, Note_on_c, 8, 40, 124
4, 52788, Note_on_c, 8, 40, 0
4, 52800, Note_on_c, 8, 40, 113
4, 52858, Note_on_c, 8, 40, 0
4, 52864, Note_on_c, 8, 35, 95
4, 52980, Note_on_c, 8, 35, 0
4, 52992, Note_on_c, 8, 38, 119
4, 53108, Note_on_c, 8, 38, 0
4, 53120, Note_on_c, 8, 35, 101
4, 53236, Note_on_c, 8, 35, 0
4, 53248, Note_on_c, 8, 36, 116
4, 53364, Note_on_c, 8, 36, 0
4, 53376, Note_on_c, 8, 31, 98
4, 53492, Note_on_c, 8, 31, 0
4, 53504, Note_on_c, 8, 35, 125
4, 53620, Note_on_c, 8, 35, 0
4, 53632, Note_on_c, 8, 31, 99
4, 53690, Note_on_c, 8, 31, 0
4, 53696, Note_on_c, 8, 36, 124
4, 53812, Note_on_c, 8, 36, 0
4, 53824, Note_on_c, 8, 36, 110
4, 53882, Note_on_c, 8, 36, 0
4, 53888, Note_on_c, 8, 31, 95
4, 54004, Note_on_c, 8, 31, 0
4, 54016, Note_on_c, 8, 35, 122
4, 54132, Note_on_c, 8, 35, 0
4, 54144, Note_on_c, 8, 31, 98
4, 54260, Note_on_c, 8, 31, 0
4, 54272, Note_on_c, 8, 36, 127
4, 54388, Note_on_c, 8, 36, 0
4, 54400, Note_on_c, 8, 31, 99
4, 54516, Note_on_c, 8, 31, 0
4, 54528, Note_on_c, 8, 35, 125
4, 54644, Note_on_c, 8, 35, 0
4, 54656, Note_on_c, 8, 31, 98
4, 54714, Note_on_c, 8, 31, 0
4, 54720, Note_on_c, 8, 36, 123
4, 54836, Note_on_c, 8, 36, 0
4, 54848, Note_on_c, 8, 36, 111
4, 54906, Note_on_c, 8, 36, 0
4, 54912, Note_on_c, 8, 31, 98
4, 55028, Note_on_c, 8, 31, 0
4, 55040, Note_on_c, 8, 35, 125
4, 55156, Note_on_c, 8, 35, 0
4, 55168, Note_on_c, 8, 31, 100
4, 55284, Note_on_c, 8, 31, 0
4, 55296, Note_on_c, 8, 33, 119
4, 55412, Note_on_c, 8, 33, 0
4, 55424, Note_on_c, 8, 28, 96
4, 55540, Note_on_c, 8, 28, 0
4, 55552, Note_on_c, 8, 31, 121
4, 55668, Note_on_c, 8, 31, 0
4, 55680, Note_on_c, 8, 28, 103
4, 55738, Note_on_c, 8, 28, 0
4, 55744, Note_on_c, 8, 33, 124
4, 55860, Note_on_c, 8, 33, 0
4, 55872, Note_on_c, 8, 33, 111
4, 55930, Note_on_c, 8, 33, 0
4, 55936, Note_on_c, 8, 28, 95
4, 56052, Note_on_c, 8, 28, 0
4, 56064, Note_on_c, 8, 31, 119
4, 56180, Note_on_c, 8, 31, 0
4, 56192, Note_on_c, 8, 28, 103
4, 56308, Note_on_c, 8, 28, 0
4, 56320, Note_on_c, 8, 33, 127
4, 56436, Note_on_c, 8, 33, 0
4, 56448, Note_on_c, 8, 28, 98
4, 56564, Note_on_c, 8, 28, 0
4, 56576, Note_on_c, 8, 31, 121
4, 56692, Note_on_c, 8, 31, 0
4, 56704, Note_on_c, 8, 28, 100
4, 56762, Note_on_c, 8, 28, 0
4, 56768, Note_on_c, 8, 33, 124
4, 56884, Note_on_c, 8, 33, 0
4, 56896, Note_on_c, 8, 33, 112
4, 56954, Note_on_c, 8, 33, 0
4, 56960, Note_on_c, 8, 28, 95
4, 57076, Note_on_c, 8, 28, 0
4, 57088, Note_on_c, 8, 31, 121
4, 57204, Note_on_c, 8, 31, 0
4, 57216, Note_on_c, 8, 28, 100
4, 57332, Note_on_c, 8, 28, 0
4, 57344, Note_on_c, 8, 36, 127
4, 57460, Note_on_c, 8, 36, 0
4, 57472, Note_on_c, 8, 31, 97
4, 57588, Note_on_c, 8, 31, 0
4, 57600, Note_on_c, 8, 36, 127
4, 57716, Note_on_c, 8, 36, 0
4, 57728, Note_on_c, 8, 31, 97
4, 57786, Note_on_c, 8, 31, 0
4, 57792, Note_on_c, 8, 36, 126
4, 57855, Note_on_c, 8, 36, 0
4, 57920, Note_on_c, 8, 36, 112
4, 57978, Note_on_c, 8, 36, 0
4, 57984, Note_on_c, 8, 31, 96
4, 58100, Note_on_c, 8, 31, 0
4, 58112, Note_on_c, 8, 36, 127
4, 58228, Note_on_c, 8, 36, 0
4, 58240, Note_on_c, 8, 31, 98
4, 58356, Note_on_c, 8, 31, 0
4, 58368, Note_on_c, 8, 38, 127
4, 58484, Note_on_c, 8, 38, 0
4, 58496, Note_on_c, 8, 33, 97
4, 58612, Note_on_c, 8, 33, 0
4, 58624, Note_on_c, 8, 36, 120
4, 58740, Note_on_c, 8, 36, 0
4, 58752, Note_on_c, 8, 33, 100
4, 58810, Note_on_c, 8, 33, 0
4, 58816, Note_on_c, 8, 38, 123
4, 58879, Note_on_c, 8, 38, 0
4, 58944, Note_on_c, 8, 38, 111
4, 59002, Note_on_c, 8, 38, 0
4, 59008, Note_on_c, 8, 33, 95
4, 59124, Note_on_c, 8, 33, 0
4, 59136, Note_on_c, 8, 36, 120
4, 59252, Note_on_c, 8, 36, 0
4, 59264, Note_on_c, 8, 38, 116
4, 59380, Note_on_c, 8, 38, 0
4, 59392, Note_on_c, 8, 41, 123
4, 59508, Note_on_c, 8, 41, 0
4, 59520, Note_on_c, 8, 36, 95
4, 59636, Note_on_c, 8, 36, 0
4, 59648, Note_on_c, 8, 39, 121
4, 59764, Note_on_c, 8, 39, 0
4, 59776, Note_on_c, 8, 36, 103
4, 59834, Note_on_c, 8, 36, 0
4, 59840, Note_on_c, 8, 41, 125
4, 59903, Note_on_c, 8, 41, 0
4, 59968, Note_on_c, 8, 41, 113
4, 60026, Note_on_c, 8, 41, 0
4, 60032, Note_on_c, 8, 36, 94
4, 60148, Note_on_c, 8, 36, 0
4, 60160, Note_on_c, 8, 39, 119
4, 60276, Note_on_c, 8, 39, 0
4, 60288, Note_on_c, 8, 36, 101
4, 60404, Note_on_c, 8, 36, 0
4, 60416, Note_on_c, 8, 41, 127
4, 60532, Note_on_c, 8, 41, 0
4, 60544, Note_on_c, 8, 36, 99
4, 60660, Note_on_c, 8, 36, 0
4, 60672, Note_on_c, 8, 39, 122
4, 60788, Note_on_c, 8, 39, 0
4, 60800, Note_on_c, 8, 36, 102
4, 60858, Note_on_c, 8, 36, 0
4, 60864, Note_on_c, 8, 41, 124
4, 60927, Note_on_c, 8, 41, 0
4, 60992, Note_on_c, 8, 41, 115
4, 61050, Note_on_c, 8, 41, 0
4, 61056, Note_on_c, 8, 36, 94
4, 61172, Note_on_c, 8, 36, 0
4, 61184, Note_on_c, 8, 39, 120
4, 61300, Note_on_c, 8, 39, 0
4, 61312, Note_on_c, 8, 36, 103
4, 61428, Note_on_c, 8, 36, 0
4, 61440, Note_on_c, 8, 41, 127
4, 61556, Note_on_c, 8, 41, 0
4, 61568, Note_on_c, 8, 36, 99
4, 61684, Note_on_c, 8, 36, 0
4, 61696, Note_on_c, 8, 39, 120
4, 61812, Note_on_c, 8, 39, 0
4, 61824, Note_on_c, 8, 36, 101
4, 61882, Note_on_c, 8, 36, 0
4, 61888, Note_on_c, 8, 41, 123
4, 61951, Note_on_c, 8, 41, 0
4, 62016, Note_on_c, 8, 41, 113
4, 62074, Note_on_c, 8, 41, 0
4, 62080, Note_on_c, 8, 36, 94
4, 62196, Note_on_c, 8, 36, 0
4, 62208, Note_on_c, 8, 39, 120
4, 62324, Note_on_c, 8, 39, 0
4, 62336, Note_on_c, 8, 36, 103
4, 62452, Note_on_c, 8, 36, 0
4, 62464, Note_on_c, 8, 41, 127
4, 62580, Note_on_c, 8, 41, 0
4, 62592, Note_on_c, 8, 36, 97
4, 62708, Note_on_c, 8, 36, 0
4, 62720, Note_on_c, 8, 39, 121
4, 62836, Note_on_c, 8, 39, 0
4, 62848, Note_on_c, 8, 36, 101
4, 62906, Note_on_c, 8, 36, 0
4, 62912, Note_on_c, 8, 41, 122
4, 62975, Note_on_c, 8, 41, 0
4, 63040, Note_on_c, 8, 41, 113
4, 63098, Note_on_c, 8, 41, 0
4, 63104, Note_on_c, 8, 36, 96
4, 63220, Note_on_c, 8, 36, 0
4, 63232, Note_on_c, 8, 39, 121
4, 63348, Note_on_c, 8, 39, 0
4, 63360, Note_on_c, 8, 36, 103
4, 63476, Note_on_c, 8, 36, 0
4, 63488, Note_on_c, 8, 41, 127
4, 63604, Note_on_c, 8, 41, 0
4, 63616, Note_on_c, 8, 36, 99
4, 63732, Note_on_c, 8, 36, 0
4, 63744, Note_on_c, 8, 39, 123
4, 63860, Note_on_c, 8, 39, 0
4, 63872, Note_on_c, 8, 36, 101
4, 63930, Note_on_c, 8, 36, 0
4, 63936, Note_on_c, 8, 41, 122
4, 63999, Note_on_c, 8, 41, 0
4, 64064, Note_on_c, 8, 41, 113
4, 64122, Note_on_c, 8, 41, 0
4, 64128, Note_on_c, 8, 36, 98
4, 64244, Note_on_c, 8, 36, 0
4, 64256, Note_on_c, 8, 39, 119
4, 64372, Note_on_c, 8, 39, 0
4, 64384, Note_on_c, 8, 36, 101
4, 64500, Note_on_c, 8, 36, 0
4, 64512, Note_on_c, 8, 41, 127
4, 64628, Note_on_c, 8, 41, 0
4, 64640, Note_on_c, 8, 36, 99
4, 64756, Note_on_c, 8, 36, 0
4, 64768, Note_on_c, 8, 39, 120
4, 64884, Note_on_c, 8, 39, 0
4, 64896, Note_on_c, 8, 36, 104
4, 64954, Note_on_c, 8, 36, 0
4, 64960, Note_on_c, 8, 41, 125
4, 65023, Note_on_c, 8, 41, 0
4, 65088, Note_on_c, 8, 41, 112
4, 65146, Note_on_c, 8, 41, 0
4, 65152, Note_on_c, 8, 36, 98
4, 65268, Note_on_c, 8, 36, 0
4, 65280, Note_on_c, 8, 39, 120
4, 65396, Note_on_c, 8, 39, 0
4, 65408, Note_on_c, 8, 36, 103
4, 65524, Note_on_c, 8, 36, 0
4, 65536, Note_on_c, 8, 41, 127
4, 65652, Note_on_c, 8, 41, 0
4, 65664, Note_on_c, 8, 36, 98
4, 65780, Note_on_c, 8, 36, 0
4, 65792, Note_on_c, 8, 39, 122
4, 65908, Note_on_c, 8, 39, 0
4, 65920, Note_on_c, 8, 36, 104
4, 65978, Note_on_c, 8, 36, 0
4, 65984, Note_on_c, 8, 41, 126
4, 66047, Note_on_c, 8, 41, 0
4, 66112, Note_on_c, 8, 41, 113
4, 66170, Note_on_c, 8, 41, 0
4, 66176, Note_on_c, 8, 36, 94
4, 66292, Note_on_c, 8, 36, 0
4, 66304, Note_on_c, 8, 39, 122
4, 66420, Note_on_c, 8, 39, 0
4, 66432, Note_on_c, 8, 36, 101
4, 66548, Note_on_c, 8, 36, 0
4, 66560, Note_on_c, 8, 41, 127
4, 66676, Note_on_c, 8, 41, 0
4, 66688, Note_on_c, 8, 36, 99
4, 66804, Note_on_c, 8, 36, 0
4, 66816, Note_on_c, 8, 39, 121
4, 66932, Note_on_c, 8, 39, 0
4, 66944, Note_on_c, 8, 36, 102
4, 67002, Note_on_c, 8, 36, 0
4, 67008, Note_on_c, 8, 41, 124
4, 67071, Note_on_c, 8, 41, 0
4, 67136, Note_on_c, 8, 41, 112
4, 67194, Note_on_c, 8, 41, 0
4, 67200, Note_on_c, 8, 36, 96
4, 67316, Note_on_c, 8, 36, 0
4, 67328, Note_on_c, 8, 39, 118
4, 67444, Note_on_c, 8, 39, 0
4, 67456, Note_on_c, 8, 36, 103
4, 67572, Note_on_c, 8, 36, 0
4, 67584, Note_on_c, 8, 41, 126
4, 67700, Note_on_c, 8, 41, 0
4, 67712, Note_on_c, 8, 36, 99
4, 67828, Note_on_c, 8, 36, 0
4, 67840, Note_on_c, 8, 39, 120
4, 67956, Note_on_c, 8, 39, 0
4, 67968, Note_on_c, 8, 36, 102
4, 68026, Note_on_c, 8, 36, 0
4, 68032, Note_on_c, 8, 41, 123
4, 68095, Note_on_c, 8, 41, 0
4, 68160, Note_on_c, 8, 41, 115
4, 68218, Note_on_c, 8, 41, 0
4, 68224, Note_on_c, 8, 36, 94
4, 68340, Note_on_c, 8, 36, 0
4, 68352, Note_on_c, 8, 39, 120
4, 68468, Note_on_c, 8, 39, 0
4, 68480, Note_on_c, 8, 36, 101
4, 68596, Note_on_c, 8, 36, 0
4, 68608, Note_on_c, 8, 41, 127
4, 68724, Note_on_c, 8, 41, 0
4, 68736, Note_on_c, 8, 36, 100
4, 68852, Note_on_c, 8, 36, 0
4, 68864, Note_on_c, 8, 39, 121
4, 68980, Note_on_c, 8, 39, 0
4, 68992, Note_on_c, 8, 36, 104
4, 69050, Note_on_c, 8, 36, 0
4, 69056, Note_on_c, 8, 41, 123
4, 69119, Note_on_c, 8, 41, 0
4, 69184, Note_on_c, 8, 41, 115
4, 69242, Note_on_c, 8, 41, 0
4, 69248, Note_on_c, 8, 36, 98
4, 69364, Note_on_c, 8, 36, 0
4, 69376, Note_on_c, 8, 39, 120
4, 69492, Note_on_c, 8, 39, 0
4, 69504, Note_on_c, 8, 36, 102
4, 69620, Note_on_c, 8, 36, 0
4, 69632, Note_on_c, 8, 43, 127
4, 69748, Note_on_c, 8, 43, 0
4, 69760, Note_on_c, 8, 38, 100
4, 69876, Note_on_c, 8, 38, 0
4, 69888, Note_on_c, 8, 41, 120
4, 70004, Note_on_c, 8, 41, 0
4, 70016, Note_on_c, 8, 38, 103
4, 70074, Note_on_c, 8, 38, 0
4, 70080, Note_on_c, 8, 43, 123
4, 70143, Note_on_c, 8, 43, 0
4, 70208, Note_on_c, 8, 43, 114
4, 70266, Note_on_c, 8, 43, 0
4, 70272, Note_on_c, 8, 38, 95
4, 70388, Note_on_c, 8, 38, 0
4, 70400, Note_on_c, 8, 41, 121
4, 70516, Note_on_c, 8, 41, 0
4, 70528, Note_on_c, 8, 38, 100
4, 70644, Note_on_c, 8, 38, 0
4, 70656, Note_on_c, 8, 38, 111
4, 70772, Note_on_c, 8, 38, 0
4, 70784, Note_on_c, 8, 33, 97
4, 70900, Note_on_c, 8, 33, 0
4, 70912, Note_on_c, 8, 36, 121
4, 71028, Note_on_c, 8, 36, 0
4, 71040, Note_on_c, 8, 33, 103
4, 71098, Note_on_c, 8, 33, 0
4, 71104, Note_on_c, 8, 38, 123
4, 71167, Note_on_c, 8, 38, 0
4, 71232, Note_on_c, 8, 38, 114
4, 71290, Note_on_c, 8, 38, 0
4, 71296, Note_on_c, 8, 33, 98
4, 71412, Note_on_c, 8, 33, 0
4, 71424, Note_on_c, 8, 36, 120
4, 71540, Note_on_c, 8, 36, 0
4, 71552, Note_on_c, 8, 33, 104
4, 71668, Note_on_c, 8, 33, 0
4, 71680, Note_on_c, 8, 42, 127
4, 71796, Note_on_c, 8, 42, 0
4, 71808, Note_on_c, 8, 37, 101
4, 71924, Note_on_c, 8, 37, 0
4, 71936, Note_on_c, 8, 40, 119
4, 72052, Note_on_c, 8, 40, 0
4, 72064, Note_on_c, 8, 37, 103
4, 72122, Note_on_c, 8, 37, 0
4, 72128, Note_on_c, 8, 42, 123
4, 72191, Note_on_c, 8, 42, 0
4, 72256, Note_on_c, 8, 42, 114
4, 72314, Note_on_c, 8, 42, 0
4, 72320, Note_on_c, 8, 37, 97
4, 72436, Note_on_c, 8, 37, 0
4, 72448, Note_on_c, 8, 40, 119
4, 72564, Note_on_c, 8, 40, 0
4, 72576, Note_on_c, 8, 37, 103
4, 72692, Note_on_c, 8, 37, 0
4, 72704, Note_on_c, 8, 44, 127
4, 72820, Note_on_c, 8, 44, 0
4, 72832, Note_on_c, 8, 39, 97
4, 72948, Note_on_c, 8, 39, 0
4, 72960, Note_on_c, 8, 42, 122
4, 73076, Note_on_c, 8, 42, 0
4, 73088, Note_on_c, 8, 39, 101
4, 73146, Note_on_c, 8, 39, 0
4, 73152, Note_on_c, 8, 44, 123
4, 73215, Note_on_c, 8, 44, 0
4, 73280, Note_on_c, 8, 44, 114
4, 73338, Note_on_c, 8, 44, 0
4, 73344, Note_on_c, 8, 39, 96
4, 73460, Note_on_c, 8, 39, 0
4, 73472, Note_on_c, 8, 42, 119
4, 73588, Note_on_c, 8, 42, 0
4, 73600, Note_on_c, 8, 39, 104
4, 73716, Note_on_c, 8, 39, 0
4, 73728, Note_on_c, 8, 32, 92
4, 75214, Note_on_c, 8, 32, 0
4, 75776, Note_on_c, 8, 42, 103
4, 77262, Note_on_c, 8, 42, 0
4, 77824, Note_on_c, 8, 32, 104
4, 79310, Note_on_c, 8, 32, 0
4, 79872, Note_on_c, 8, 30, 102
4, 81358, Note_on_c, 8, 30, 0
4, 89088, Note_on_c, 8, 30, 102
4, 89151, Note_on_c, 8, 30, 0
4, 89216, Note_on_c, 8, 30, 108
4, 89279, Note_on_c, 8, 30, 0
4, 89408, Note_on_c, 8, 30, 98
4, 89471, Note_on_c, 8, 30, 0
4, 89600, Note_on_c, 8, 30, 103
4, 89663, Note_on_c, 8, 30, 0
4, 89728, Note_on_c, 8, 28, 103
4, 89786, Note_on_c, 8, 28, 0
4, 89792, Note_on_c, 8, 30, 118
4, 89850, Note_on_c, 8, 30, 0
4, 89984, Note_on_c, 8, 30, 100
4, 90047, Note_on_c, 8, 30, 0
4, 90112, Note_on_c, 8, 28, 106
4, 90170, Note_on_c, 8, 28, 0
4, 90176, Note_on_c, 8, 30, 119
4, 90234, Note_on_c, 8, 30, 0
4, 90368, Note_on_c, 8, 30, 101
4, 90431, Note_on_c, 8, 30, 0
4, 90496, Note_on_c, 8, 30, 108
4, 90559, Note_on_c, 8, 30, 0
4, 90624, Note_on_c, 8, 28, 107
4, 90682, Note_on_c, 8, 28, 0
4, 90688, Note_on_c, 8, 30, 118
4, 90746, Note_on_c, 8, 30, 0
4, 90880, Note_on_c, 8, 30, 101
4, 90943, Note_on_c, 8, 30, 0
4, 91008, Note_on_c, 8, 30, 111
4, 91071, Note_on_c, 8, 30, 0
4, 91200, Note_on_c, 8, 30, 99
4, 91263, Note_on_c, 8, 30, 0
4, 91392, Note_on_c, 8, 30, 103
4, 91455, Note_on_c, 8, 30, 0
4, 91520, Note_on_c, 8, 28, 101
4, 91578, Note_on_c, 8, 28, 0
4, 91584, Note_on_c, 8, 30, 118
4, 91642, Note_on_c, 8, 30, 0
4, 91776, Note_on_c, 8, 30, 97
4, 91839, Note_on_c, 8, 30, 0
4, 91904, Note_on_c, 8, 28, 104
4, 91962, Note_on_c, 8, 28, 0
4, 91968, Note_on_c, 8, 30, 119
4, 92026, Note_on_c, 8, 30, 0
4, 92160, Note_on_c, 8, 30, 104
4, 92223, Note_on_c, 8, 30, 0
4, 92288, Note_on_c, 8, 30, 108
4, 92351, Note_on_c, 8, 30, 0
4, 92416, Note_on_c, 8, 28, 107
4, 92474, Note_on_c, 8, 28, 0
4, 92480, Note_on_c, 8, 30, 117
4, 92538, Note_on_c, 8, 30, 0
4, 92672, Note_on_c, 8, 27, 103
4, 92735, Note_on_c, 8, 27, 0
4, 92800, Note_on_c, 8, 27, 108
4, 92863, Note_on_c, 8, 27, 0
4, 92992, Note_on_c, 8, 27, 100
4, 93055, Note_on_c, 8, 27, 0
4, 93184, Note_on_c, 8, 27, 100
4, 93247, Note_on_c, 8, 27, 0
4, 93312, Note_on_c, 8, 25, 103
4, 93370, Note_on_c, 8, 25, 0
4, 93376, Note_on_c, 8, 27, 118
4, 93434, Note_on_c, 8, 27, 0
4, 93568, Note_on_c, 8, 27, 99
4, 93631, Note_on_c, 8, 27, 0
4, 93696, Note_on_c, 8, 25, 104
4, 93754, Note_on_c, 8, 25, 0
4, 93760, Note_on_c, 8, 27, 116
4, 93818, Note_on_c, 8, 27, 0
4, 93952, Note_on_c, 8, 27, 100
4, 94015, Note_on_c, 8, 27, 0
4, 94080, Note_on_c, 8, 27, 107
4, 94143, Note_on_c, 8, 27, 0
4, 94208, Note_on_c, 8, 25, 108
4, 94266, Note_on_c, 8, 25, 0
4, 94272, Note_on_c, 8, 27, 116
4, 94330, Note_on_c, 8, 27, 0
4, 94464, Note_on_c, 8, 27, 100
4, 94527, Note_on_c, 8, 27, 0
4, 94592, Note_on_c, 8, 27, 108
4, 94655, Note_on_c, 8, 27, 0
4, 94784, Note_on_c, 8, 27, 99
4, 94847, Note_on_c, 8, 27, 0
4, 94976, Note_on_c, 8, 27, 101
4, 95039, Note_on_c, 8, 27, 0
4, 95104, Note_on_c, 8, 25, 103
4, 95162, Note_on_c, 8, 25, 0
4, 95168, Note_on_c, 8, 27, 119
4, 95226, Note_on_c, 8, 27, 0
4, 95360, Note_on_c, 8, 27, 101
4, 95423, Note_on_c, 8, 27, 0
4, 95488, Note_on_c, 8, 25, 104
4, 95546, Note_on_c, 8, 25, 0
4, 95552, Note_on_c, 8, 27, 116
4, 95610, Note_on_c, 8, 27, 0
4, 95744, Note_on_c, 8, 27, 101
4, 95807, Note_on_c, 8, 27, 0
4, 95872, Note_on_c, 8, 27, 109
4, 95935, Note_on_c, 8, 27, 0
4, 96000, Note_on_c, 8, 25, 106
4, 96058, Note_on_c, 8, 25, 0
4, 96064, Note_on_c, 8, 27, 118
4, 96122, Note_on_c, 8, 27, 0
4, 96256, Note_on_c, 8, 30, 100
4, 96319, Note_on_c, 8, 30, 0
4, 96384, Note_on_c, 8, 30, 109
4, 96447, Note_on_c, 8, 30, 0
4, 96576, Note_on_c, 8, 30, 99
4, 96639, Note_on_c, 8, 30, 0
4, 96768, Note_on_c, 8, 30, 101
4, 96831, Note_on_c, 8, 30, 0
4, 96896, Note_on_c, 8, 28, 103
4, 96954, Note_on_c, 8, 28, 0
4, 96960, Note_on_c, 8, 30, 116
4, 97018, Note_on_c, 8, 30, 0
4, 97152, Note_on_c, 8, 30, 100
4, 97215, Note_on_c, 8, 30, 0
4, 97280, Note_on_c, 8, 28, 103
4, 97338, Note_on_c, 8, 28, 0
4, 97344, Note_on_c, 8, 30, 115
4, 97402, Note_on_c, 8, 30, 0
4, 97536, Note_on_c, 8, 30, 100
4, 97599, Note_on_c, 8, 30, 0
4, 97664, Note_on_c, 8, 30, 111
4, 97727, Note_on_c, 8, 30, 0
4, 97792, Note_on_c, 8, 28, 106
4, 97850, Note_on_c, 8, 28, 0
4, 97856, Note_on_c, 8, 30, 117
4, 97914, Note_on_c, 8, 30, 0
4, 98048, Note_on_c, 8, 30, 104
4, 98111, Note_on_c, 8, 30, 0
4, 98176, Note_on_c, 8, 30, 108
4, 98239, Note_on_c, 8, 30, 0
4, 98368, Note_on_c, 8, 30, 97
4, 98431, Note_on_c, 8, 30, 0
4, 98560, Note_on_c, 8, 30, 103
4, 98623, Note_on_c, 8, 30, 0
4, 98688, Note_on_c, 8, 28, 104
4, 98746, Note_on_c, 8, 28, 0
4, 98752, Note_on_c, 8, 30, 116
4, 98810, Note_on_c, 8, 30, 0
4, 98944, Note_on_c, 8, 30, 98
4, 99007, Note_on_c, 8, 30, 0
4, 99072, Note_on_c, 8, 28, 105
4, 99130, Note_on_c, 8, 28, 0
4, 99136, Note_on_c, 8, 30, 118
4, 99194, Note_on_c, 8, 30, 0
4, 99328, Note_on_c, 8, 30, 102
4, 99391, Note_on_c, 8, 30, 0
4, 99456, Note_on_c, 8, 30, 107
4, 99519, Note_on_c, 8, 30, 0
4, 99584, Note_on_c, 8, 28, 108
4, 99642, Note_on_c, 8, 28, 0
4, 99648, Note_on_c, 8, 30, 117
4, 99706, Note_on_c, 8, 30, 0
4, 99840, Note_on_c, 8, 44, 101
4, 99956, Note_on_c, 8, 44, 0
4, 99968, Note_on_c, 8, 39, 96
4, 100084, Note_on_c, 8, 39, 0
4, 100096, Note_on_c, 8, 42, 121
4, 100212, Note_on_c, 8, 42, 0
4, 100224, Note_on_c, 8, 39, 104
4, 100282, Note_on_c, 8, 39, 0
4, 100288, Note_on_c, 8, 44, 126
4, 100404, Note_on_c, 8, 44, 0
4, 100416, Note_on_c, 8, 44, 112
4, 100474, Note_on_c, 8, 44, 0
4, 100480, Note_on_c, 8, 39, 98
4, 100596, Note_on_c, 8, 39, 0
4, 100608, Note_on_c, 8, 42, 119
4, 100724, Note_on_c, 8, 42, 0
4, 100736, Note_on_c, 8, 39, 104
4, 100852, Note_on_c, 8, 39, 0
4, 100864, Note_on_c, 8, 44, 127
4, 100980, Note_on_c, 8, 44, 0
4, 100992, Note_on_c, 8, 39, 98
4, 101108, Note_on_c, 8, 39, 0
4, 101120, Note_on_c, 8, 42, 121
4, 101236, Note_on_c, 8, 42, 0
4, 101248, Note_on_c, 8, 39, 101
4, 101306, Note_on_c, 8, 39, 0
4, 101312, Note_on_c, 8, 44, 122
4, 101428, Note_on_c, 8, 44, 0
4, 101440, Note_on_c, 8, 44, 114
4, 101498, Note_on_c, 8, 44, 0
4, 101504, Note_on_c, 8, 39, 97
4, 101620, Note_on_c, 8, 39, 0
4, 101632, Note_on_c, 8, 42, 119
4, 101748, Note_on_c, 8, 42, 0
4, 101760, Note_on_c, 8, 39, 101
4, 101876, Note_on_c, 8, 39, 0
4, 101888, Note_on_c, 8, 44, 125
4, 102004, Note_on_c, 8, 44, 0
4, 102016, Note_on_c, 8, 39, 98
4, 102132, Note_on_c, 8, 39, 0
4, 102144, Note_on_c, 8, 42, 119
4, 102260, Note_on_c, 8, 42, 0
4, 102272, Note_on_c, 8, 39, 102
4, 102330, Note_on_c, 8, 39, 0
4, 102336, Note_on_c, 8, 44, 126
4, 102452, Note_on_c, 8, 44, 0
4, 102464, Note_on_c, 8, 44, 114
4, 102522, Note_on_c, 8, 44, 0
4, 102528, Note_on_c, 8, 39, 96
4, 102644, Note_on_c, 8, 39, 0
4, 102656, Note_on_c, 8, 42, 122
4, 102772, Note_on_c, 8, 42, 0
4, 102784, Note_on_c, 8, 39, 104
4, 102900, Note_on_c, 8, 39, 0
4, 102912, Note_on_c, 8, 44, 125
4, 103028, Note_on_c, 8, 44, 0
4, 103040, Note_on_c, 8, 39, 99
4, 103156, Note_on_c, 8, 39, 0
4, 103168, Note_on_c, 8, 42, 119
4, 103284, Note_on_c, 8, 42, 0
4, 103296, Note_on_c, 8, 39, 101
4, 103354, Note_on_c, 8, 39, 0
4, 103360, Note_on_c, 8, 44, 123
4, 103476, Note_on_c, 8, 44, 0
4, 103488, Note_on_c, 8, 44, 111
4, 103546, Note_on_c, 8, 44, 0
4, 103552, Note_on_c, 8, 39, 96
4, 103668, Note_on_c, 8, 39, 0
4, 103680, Note_on_c, 8, 42, 121
4, 103796, Note_on_c, 8, 42, 0
4, 103808, Note_on_c, 8, 39, 102
4, 103924, Note_on_c, 8, 39, 0
4, 103936, Note_on_c, 8, 44, 125
4, 104052, Note_on_c, 8, 44, 0
4, 104064, Note_on_c, 8, 39, 99
4, 104180, Note_on_c, 8, 39, 0
4, 104192, Note_on_c, 8, 42, 121
4, 104308, Note_on_c, 8, 42, 0
4, 104320, Note_on_c, 8, 39, 102
4, 104378, Note_on_c, 8, 39, 0
4, 104384, Note_on_c, 8, 44, 124
4, 104500, Note_on_c, 8, 44, 0
4, 104512, Note_on_c, 8, 44, 111
4, 104570, Note_on_c, 8, 44, 0
4, 104576, Note_on_c, 8, 39, 97
4, 104692, Note_on_c, 8, 39, 0
4, 104704, Note_on_c, 8, 42, 118
4, 104820, Note_on_c, 8, 42, 0
4, 104832, Note_on_c, 8, 39, 102
4, 104948, Note_on_c, 8, 39, 0
4, 104960, Note_on_c, 8, 44, 126
4, 105076, Note_on_c, 8, 44, 0
4, 105088, Note_on_c, 8, 39, 97
4, 105204, Note_on_c, 8, 39, 0
4, 105216, Note_on_c, 8, 42, 122
4, 105332, Note_on_c, 8, 42, 0
4, 105344, Note_on_c, 8, 39, 103
4, 105402, Note_on_c, 8, 39, 0
4, 105408, Note_on_c, 8, 44, 125
4, 105524, Note_on_c, 8, 44, 0
4, 105536, Note_on_c, 8, 44, 113
4, 105594, Note_on_c, 8, 44, 0
4, 105600, Note_on_c, 8, 39, 96
4, 105716, Note_on_c, 8, 39, 0
4, 105728, Note_on_c, 8, 42, 120
4, 105844, Note_on_c, 8, 42, 0
4, 105856, Note_on_c, 8, 39, 102
4, 105972, Note_on_c, 8, 39, 0
4, 105984, Note_on_c, 8, 43, 125
4, 106100, Note_on_c, 8, 43, 0
4, 106112, Note_on_c, 8, 38, 97
4, 106228, Note_on_c, 8, 38, 0
4, 106240, Note_on_c, 8, 41, 120
4, 106356, Note_on_c, 8, 41, 0
4, 106368, Note_on_c, 8, 38, 101
4, 106426, Note_on_c, 8, 38, 0
4, 106432, Note_on_c, 8, 43, 123
4, 106495, Note_on_c, 8, 43, 0
4, 106560, Note_on_c, 8, 43, 112
4, 106618, Note_on_c, 8, 43, 0
4, 106624, Note_on_c, 8, 38, 95
4, 106740, Note_on_c, 8, 38, 0
4, 106752, Note_on_c, 8, 41, 122
4, 106868, Note_on_c, 8, 41, 0
4, 106880, Note_on_c, 8, 38, 102
4, 106996, Note_on_c, 8, 38, 0
4, 107008, Note_on_c, 8, 43, 126
4, 107124, Note_on_c, 8, 43, 0
4, 107136, Note_on_c, 8, 38, 98
4, 107252, Note_on_c, 8, 38, 0
4, 107264, Note_on_c, 8, 41, 123
4, 107380, Note_on_c, 8, 41, 0
4, 107392, Note_on_c, 8, 38, 103
4, 107450, Note_on_c, 8, 38, 0
4, 107456, Note_on_c, 8, 43, 124
4, 107519, Note_on_c, 8, 43, 0
4, 107584, Note_on_c, 8, 43, 113
4, 107642, Note_on_c, 8, 43, 0
4, 107648, Note_on_c, 8, 38, 96
4, 107764, Note_on_c, 8, 38, 0
4, 107776, Note_on_c, 8, 41, 119
4, 107892, Note_on_c, 8, 41, 0
4, 107904, Note_on_c, 8, 38, 100
4, 108020, Note_on_c, 8, 38, 0
4, 108032, Note_on_c, 8, 43, 127
4, 108148, Note_on_c, 8, 43, 0
4, 108160, Note_on_c, 8, 38, 99
4, 108276, Note_on_c, 8, 38, 0
4, 108288, Note_on_c, 8, 41, 121
4, 108404, Note_on_c, 8, 41, 0
4, 108416, Note_on_c, 8, 38, 101
4, 108474, Note_on_c, 8, 38, 0
4, 108480, Note_on_c, 8, 43, 123
4, 108543, Note_on_c, 8, 43, 0
4, 108608, Note_on_c, 8, 43, 115
4, 108666, Note_on_c, 8, 43, 0
4, 108672, Note_on_c, 8, 38, 95
4, 108788, Note_on_c, 8, 38, 0
4, 108800, Note_on_c, 8, 41, 121
4, 108916, Note_on_c, 8, 41, 0
4, 108928, Note_on_c, 8, 38, 101
4, 109044, Note_on_c, 8, 38, 0
4, 109056, Note_on_c, 8, 43, 127
4, 109172, Note_on_c, 8, 43, 0
4, 109184, Note_on_c, 8, 38, 98
4, 109300, Note_on_c, 8, 38, 0
4, 109312, Note_on_c, 8, 41, 121
4, 109428, Note_on_c, 8, 41, 0
4, 109440, Note_on_c, 8, 38, 100
4, 109498, Note_on_c, 8, 38, 0
4, 109504, Note_on_c, 8, 43, 122
4, 109567, Note_on_c, 8, 43, 0
4, 109632, Note_on_c, 8, 43, 113
4, 109690, Note_on_c, 8, 43, 0
4, 109696, Note_on_c, 8, 38, 95
4, 109812, Note_on_c, 8, 38, 0
4, 109824, Note_on_c, 8, 41, 120
4, 109940, Note_on_c, 8, 41, 0
4, 109952, Note_on_c, 8, 38, 102
4, 110068, Note_on_c, 8, 38, 0
4, 110080, Note_on_c, 8, 43, 127
4, 110196, Note_on_c, 8, 43, 0
4, 110208, Note_on_c, 8, 38, 98
4, 110324, Note_on_c, 8, 38, 0
4, 110336, Note_on_c, 8, 41, 121
4, 110452, Note_on_c, 8, 41, 0
4, 110464, Note_on_c, 8, 38, 102
4, 110522, Note_on_c, 8, 38, 0
4, 110528, Note_on_c, 8, 43, 123
4, 110591, Note_on_c, 8, 43, 0
4, 110656, Note_on_c, 8, 43, 112
4, 110714, Note_on_c, 8, 43, 0
4, 110720, Note_on_c, 8, 38, 97
4, 110836, Note_on_c, 8, 38, 0
4, 110848, Note_on_c, 8, 41, 119
4, 110964, Note_on_c, 8, 41, 0
4, 110976, Note_on_c, 8, 38, 101
4, 111092, Note_on_c, 8, 38, 0
4, 111104, Note_on_c, 8, 43, 127
4, 111220, Note_on_c, 8, 43, 0
4, 111232, Note_on_c, 8, 38, 96
4, 111348, Note_on_c, 8, 38, 0
4, 111360, Note_on_c, 8, 41, 120
4, 111476, Note_on_c, 8, 41, 0
4, 111488, Note_on_c, 8, 38, 103
4, 111546, Note_on_c, 8, 38, 0
4, 111552, Note_on_c, 8, 43, 126
4, 111615, Note_on_c, 8, 43, 0
4, 111680, Note_on_c, 8, 43, 112
4, 111738, Note_on_c, 8, 43, 0
4, 111744, Note_on_c, 8, 38, 96
4, 111860, Note_on_c, 8, 38, 0
4, 111872, Note_on_c, 8, 41, 121
4, 111988, Note_on_c, 8, 41, 0
4, 112000, Note_on_c, 8, 38, 103
4, 112116, Note_on_c, 8, 38, 0
4, 112128, Note_on_c, 8, 43, 127
4, 112244, Note_on_c, 8, 43, 0
4, 112256, Note_on_c, 8, 38, 99
4, 112372, Note_on_c, 8, 38, 0
4, 112384, Note_on_c, 8, 41, 120
4, 112500, Note_on_c, 8, 41, 0
4, 112512, Note_on_c, 8, 38, 100
4, 112570, Note_on_c, 8, 38, 0
4, 112576, Note_on_c, 8, 43, 123
4, 112639, Note_on_c, 8, 43, 0
4, 112704, Note_on_c, 8, 43, 114
4, 112762, Note_on_c, 8, 43, 0
4, 112768, Note_on_c, 8, 38, 96
4, 112884, Note_on_c, 8, 38, 0
4, 112896, Note_on_c, 8, 41, 118
4, 113012, Note_on_c, 8, 41, 0
4, 113024, Note_on_c, 8, 38, 101
4, 113140, Note_on_c, 8, 38, 0
4, 113152, Note_on_c, 8, 43, 126
4, 113268, Note_on_c, 8, 43, 0
4, 113280, Note_on_c, 8, 38, 99
4, 113396, Note_on_c, 8, 38, 0
4, 113408, Note_on_c, 8, 41, 121
4, 113524, Note_on_c, 8, 41, 0
4, 113536, Note_on_c, 8, 38, 101
4, 113594, Note_on_c, 8, 38, 0
4, 113600, Note_on_c, 8, 43, 122
4, 113663, Note_on_c, 8, 43, 0
4, 113728, Note_on_c, 8, 43, 111
4, 113786, Note_on_c, 8, 43, 0
4, 113792, Note_on_c, 8, 38, 97
4, 113908, Note_on_c, 8, 38, 0
4, 113920, Note_on_c, 8, 41, 118
4, 114036, Note_on_c, 8, 41, 0
4, 114048, Note_on_c, 8, 38, 103
4, 114164, Note_on_c, 8, 38, 0
4, 114176, Note_on_c, 8, 40, 121
4, 114292, Note_on_c, 8, 40, 0
4, 114304, Note_on_c, 8, 35, 96
4, 114420, Note_on_c, 8, 35, 0
4, 114432, Note_on_c, 8, 38, 120
4, 114548, Note_on_c, 8, 38, 0
4, 114560, Note_on_c, 8, 35, 102
4, 114618, Note_on_c, 8, 35, 0
4, 114624, Note_on_c, 8, 40, 126
4, 114740, Note_on_c, 8, 40, 0
4, 114752, Note_on_c, 8, 40, 115
4, 114810, Note_on_c, 8, 40, 0
4, 114816, Note_on_c, 8, 35, 95
4, 114932, Note_on_c, 8, 35, 0
4, 114944, Note_on_c, 8, 38, 122
4, 115060, Note_on_c, 8, 38, 0
4, 115072, Note_on_c, 8, 35, 100
4, 115188, Note_on_c, 8, 35, 0
4, 115200, Note_on_c, 8, 40, 126
4, 115316, Note_on_c, 8, 40, 0
4, 115328, Note_on_c, 8, 35, 98
4, 115444, Note_on_c, 8, 35, 0
4, 115456, Note_on_c, 8, 38, 121
4, 115572, Note_on_c, 8, 38, 0
4, 115584, Note_on_c, 8, 35, 102
4, 115642, Note_on_c, 8, 35, 0
4, 115648, Note_on_c, 8, 40, 125
4, 115764, Note_on_c, 8, 40, 0
4, 115776, Note_on_c, 8, 40, 113
4, 115834, Note_on_c, 8, 40, 0
4, 115840, Note_on_c, 8, 35, 98
4, 115956, Note_on_c, 8, 35, 0
4, 115968, Note_on_c, 8, 38, 119
4, 116084, Note_on_c, 8, 38, 0
4, 116096, Note_on_c, 8, 35, 100
4, 116212, Note_on_c, 8, 35, 0
4, 118272, Note_on_c, 8, 40, 101
4, 118388, Note_on_c, 8, 40, 0
4, 118400, Note_on_c, 8, 35, 93
4, 118516, Note_on_c, 8, 35, 0
4, 118528, Note_on_c, 8, 38, 119
4, 118644, Note_on_c, 8, 38, 0
4, 118656, Note_on_c, 8, 35, 101
4, 118714, Note_on_c, 8, 35, 0
4, 118720, Note_on_c, 8, 40, 123
4, 118836, Note_on_c, 8, 40, 0
4, 118848, Note_on_c, 8, 40, 114
4, 118906, Note_on_c, 8, 40, 0
4, 118912, Note_on_c, 8, 35, 95
4, 119028, Note_on_c, 8, 35, 0
4, 119040, Note_on_c, 8, 38, 122
4, 119156, Note_on_c, 8, 38, 0
4, 119168, Note_on_c, 8, 35, 102
4, 119284, Note_on_c, 8, 35, 0
4, 119296, Note_on_c, 8, 40, 127
4, 119412, Note_on_c, 8, 40, 0
4, 119424, Note_on_c, 8, 35, 98
4, 119540, Note_on_c, 8, 35, 0
4, 119552, Note_on_c, 8, 38, 123
4, 119668, Note_on_c, 8, 38, 0
4, 119680, Note_on_c, 8, 35, 102
4, 119738, Note_on_c, 8, 35, 0
4, 119744, Note_on_c, 8, 40, 122
4, 119860, Note_on_c, 8, 40, 0
4, 119872, Note_on_c, 8, 40, 114
4, 119930, Note_on_c, 8, 40, 0
4, 119936, Note_on_c, 8, 35, 96
4, 120052, Note_on_c, 8, 35, 0
4, 120064, Note_on_c, 8, 38, 118
4, 120180, Note_on_c, 8, 38, 0
4, 120192, Note_on_c, 8, 35, 103
4, 120308, Note_on_c, 8, 35, 0
4, 122368, Note_on_c, 8, 40, 103
4, 122484, Note_on_c, 8, 40, 0
4, 122496, Note_on_c, 8, 35, 94
4, 122612, Note_on_c, 8, 35, 0
4, 122624, Note_on_c, 8, 38, 120
4, 122740, Note_on_c, 8, 38, 0
4, 122752, Note_on_c, 8, 35, 103
4, 122810, Note_on_c, 8, 35, 0
4, 122816, Note_on_c, 8, 40, 123
4, 122932, Note_on_c, 8, 40, 0
4, 122944, Note_on_c, 8, 40, 114
4, 123002, Note_on_c, 8, 40, 0
4, 123008, Note_on_c, 8, 35, 97
4, 123124, Note_on_c, 8, 35, 0
4, 123136, Note_on_c, 8, 38, 120
4, 123252, Note_on_c, 8, 38, 0
4, 123264, Note_on_c, 8, 35, 103
4, 123380, Note_on_c, 8, 35, 0
4, 123392, Note_on_c, 8, 40, 126
4, 123508, Note_on_c, 8, 40, 0
4, 123520, Note_on_c, 8, 35, 100
4, 123636, Note_on_c, 8, 35, 0
4, 123648, Note_on_c, 8, 38, 120
4, 123764, Note_on_c, 8, 38, 0
4, 123776, Note_on_c, 8, 35, 102
4, 123834, Note_on_c, 8, 35, 0
4, 123840, Note_on_c, 8, 40, 125
4, 123956, Note_on_c, 8, 40, 0
4, 123968, Note_on_c, 8, 40, 113
4, 124026, Note_on_c, 8, 40, 0
4, 124032, Note_on_c, 8, 35, 95
4, 124148, Note_on_c, 8, 35, 0
4, 124160, Note_on_c, 8, 38, 120
4, 124276, Note_on_c, 8, 38, 0
4, 124288, Note_on_c, 8, 35, 102
4, 124404, Note_on_c, 8, 35, 0
4, 124416, Note_on_c, 8, 40, 126
4, 124532, Note_on_c, 8, 40, 0
4, 124544, Note_on_c, 8, 35, 100
4, 124660, Note_on_c, 8, 35, 0
4, 124672, Note_on_c, 8, 38, 121
4, 124788, Note_on_c, 8, 38, 0
4, 124800, Note_on_c, 8, 35, 100
4, 124858, Note_on_c, 8, 35, 0
4, 124864, Note_on_c, 8, 40, 126
4, 124980, Note_on_c, 8, 40, 0
4, 124992, Note_on_c, 8, 40, 113
4, 125050, Note_on_c, 8, 40, 0
4, 125056, Note_on_c, 8, 35, 97
4, 125172, Note_on_c, 8, 35, 0
4, 125184, Note_on_c, 8, 38, 118
4, 125300, Note_on_c, 8, 38, 0
4, 125312, Note_on_c, 8, 35, 101
4, 125428, Note_on_c, 8, 35, 0
4, 125440, Note_on_c, 8, 40, 127
4, 125556, Note_on_c, 8, 40, 0
4, 125568, Note_on_c, 8, 35, 97
4, 125684, Note_on_c, 8, 35, 0
4, 125696, Note_on_c, 8, 38, 122
4, 125812, Note_on_c, 8, 38, 0
4, 125824, Note_on_c, 8, 35, 101
4, 125882, Note_on_c, 8, 35, 0
4, 125888, Note_on_c, 8, 40, 126
4, 126004, Note_on_c, 8, 40, 0
4, 126016, Note_on_c, 8, 40, 111
4, 126074, Note_on_c, 8, 40, 0
4, 126080, Note_on_c, 8, 35, 95
4, 126196, Note_on_c, 8, 35, 0
4, 126208, Note_on_c, 8, 38, 119
4, 126324, Note_on_c, 8, 38, 0
4, 126336, Note_on_c, 8, 35, 102
4, 126452, Note_on_c, 8, 35, 0
4, 126464, Note_on_c, 8, 40, 127
4, 126580, Note_on_c, 8, 40, 0
4, 126592, Note_on_c, 8, 35, 99
4, 126708, Note_on_c, 8, 35, 0
4, 126720, Note_on_c, 8, 38, 122
4, 126836, Note_on_c, 8, 38, 0
4, 126848, Note_on_c, 8, 35, 103
4, 126906, Note_on_c, 8, 35, 0
4, 126912, Note_on_c, 8, 40, 124
4, 127028, Note_on_c, 8, 40, 0
4, 127040, Note_on_c, 8, 40, 112
4, 127098, Note_on_c, 8, 40, 0
4, 127104, Note_on_c, 8, 35, 98
4, 127220, Note_on_c, 8, 35, 0
4, 127232, Note_on_c, 8, 38, 118
4, 127348, Note_on_c, 8, 38, 0
4, 127360, Note_on_c, 8, 35, 104
4, 127476, Note_on_c, 8, 35, 0
4, 127488, Note_on_c, 8, 40, 127
4, 127604, Note_on_c, 8, 40, 0
4, 127616, Note_on_c, 8, 35, 100
4, 127732, Note_on_c, 8, 35, 0
4, 127744, Note_on_c, 8, 38, 122
4, 127860, Note_on_c, 8, 38, 0
4, 127872, Note_on_c, 8, 35, 103
4, 127930, Note_on_c, 8, 35, 0
4, 127936, Note_on_c, 8, 40, 123
4, 128052, Note_on_c, 8, 40, 0
4, 128064, Note_on_c, 8, 40, 115
4, 128122, Note_on_c, 8, 40, 0
4, 128128, Note_on_c, 8, 35, 97
4, 128244, Note_on_c, 8, 35, 0
4, 128256, Note_on_c, 8, 38, 121
4, 128372, Note_on_c, 8, 38, 0
4, 128384, Note_on_c, 8, 35, 100
4, 128500, Note_on_c, 8, 35, 0
4, 128512, Note_on_c, 8, 40, 125
4, 128628, Note_on_c, 8, 40, 0
4, 128640, Note_on_c, 8, 35, 97
4, 128756, Note_on_c, 8, 35, 0
4, 128768, Note_on_c, 8, 38, 120
4, 128884, Note_on_c, 8, 38, 0
4, 128896, Note_on_c, 8, 35, 101
4, 128954, Note_on_c, 8, 35, 0
4, 128960, Note_on_c, 8, 40, 125
4, 129076, Note_on_c, 8, 40, 0
4, 129088, Note_on_c, 8, 40, 114
4, 129146, Note_on_c, 8, 40, 0
4, 129152, Note_on_c, 8, 35, 97
4, 129268, Note_on_c, 8, 35, 0
4, 129280, Note_on_c, 8, 38, 118
4, 129396, Note_on_c, 8, 38, 0
4, 129408, Note_on_c, 8, 35, 101
4, 129524, Note_on_c, 8, 35, 0
4, 129536, Note_on_c, 8, 40, 127
4, 129652, Note_on_c, 8, 40, 0
4, 129664, Note_on_c, 8, 35, 98
4, 129780, Note_on_c, 8, 35, 0
4, 129792, Note_on_c, 8, 38, 120
4, 129908, Note_on_c, 8, 38, 0
4, 129920, Note_on_c, 8, 35, 101
4, 129978, Note_on_c, 8, 35, 0
4, 129984, Note_on_c, 8, 40, 124
4, 130100, Note_on_c, 8, 40, 0
4, 130112, Note_on_c, 8, 40, 113
4, 130170, Note_on_c, 8, 40, 0
4, 130176, Note_on_c, 8, 35, 94
4, 130292, Note_on_c, 8, 35, 0
4, 130304, Note_on_c, 8, 38, 122
4, 130420, Note_on_c, 8, 38, 0
4, 130432, Note_on_c, 8, 35, 101
4, 130548, Note_on_c, 8, 35, 0
4, 130560, Note_on_c, 8, 40, 127
4, 130676, Note_on_c, 8, 40, 0
4, 130688, Note_on_c, 8, 35, 99
4, 130804, Note_on_c, 8, 35, 0
4, 130816, Note_on_c, 8, 38, 121
4, 130932, Note_on_c, 8, 38, 0
4, 130944, Note_on_c, 8, 35, 100
4, 131002, Note_on_c, 8, 35, 0
4, 131008, Note_on_c, 8, 40, 124
4, 131124, Note_on_c, 8, 40, 0
4, 131136, Note_on_c, 8, 40, 114
4, 131194, Note_on_c, 8, 40, 0
4, 131200, Note_on_c, 8, 35, 96
4, 131316, Note_on_c, 8, 35, 0
4, 131328, Note_on_c, 8, 38, 121
4, 131444, Note_on_c, 8, 38, 0
4, 131456, Note_on_c, 8, 35, 103
4, 131572, Note_on_c, 8, 35, 0
4, 131584, Note_on_c, 8, 40, 127
4, 131700, Note_on_c, 8, 40, 0
4, 131712, Note_on_c, 8, 35, 98
4, 131828, Note_on_c, 8, 35, 0
4, 131840, Note_on_c, 8, 38, 123
4, 131956, Note_on_c, 8, 38, 0
4, 131968, Note_on_c, 8, 35, 103
4, 132026, Note_on_c, 8, 35, 0
4, 132032, Note_on_c, 8, 40, 126
4, 132148, Note_on_c, 8, 40, 0
4, 132160, Note_on_c, 8, 40, 113
4, 132218, Note_on_c, 8, 40, 0
4, 132224, Note_on_c, 8, 35, 97
4, 132340, Note_on_c, 8, 35, 0
4, 132352, Note_on_c, 8, 38, 120
4, 132468, Note_on_c, 8, 38, 0
4, 132480, Note_on_c, 8, 35, 101
4, 132596, Note_on_c, 8, 35, 0
4, 132608, Note_on_c, 8, 40, 127
4, 132724, Note_on_c, 8, 40, 0
4, 132736, Note_on_c, 8, 35, 97
4, 132852, Note_on_c, 8, 35, 0
4, 132864, Note_on_c, 8, 38, 121
4, 132980, Note_on_c, 8, 38, 0
4, 132992, Note_on_c, 8, 35, 102
4, 133050, Note_on_c, 8, 35, 0
4, 133056, Note_on_c, 8, 40, 125
4, 133172, Note_on_c, 8, 40, 0
4, 133184, Note_on_c, 8, 40, 115
4, 133242, Note_on_c, 8, 40, 0
4, 133248, Note_on_c, 8, 35, 95
4, 133364, Note_on_c, 8, 35, 0
4, 133376, Note_on_c, 8, 38, 120
4, 133492, Note_on_c, 8, 38, 0
4, 133504, Note_on_c, 8, 35, 102
4, 133620, Note_on_c, 8, 35, 0
4, 133632, Note_on_c, 8, 40, 126
4, 133748, Note_on_c, 8, 40, 0
4, 133760, Note_on_c, 8, 35, 97
4, 133876, Note_on_c, 8, 35, 0
4, 133888, Note_on_c, 8, 38, 122
4, 134004, Note_on_c, 8, 38, 0
4, 134016, Note_on_c, 8, 35, 100
4, 134074, Note_on_c, 8, 35, 0
4, 134080, Note_on_c, 8, 40, 125
4, 134196, Note_on_c, 8, 40, 0
4, 134208, Note_on_c, 8, 40, 113
4, 134266, Note_on_c, 8, 40, 0
4, 134272, Note_on_c, 8, 35, 97
4, 134388, Note_on_c, 8, 35, 0
4, 134400, Note_on_c, 8, 38, 121
4, 134516, Note_on_c, 8, 38, 0
4, 134528, Note_on_c, 8, 35, 102
4, 134644, Note_on_c, 8, 35, 0
4, 134656, Note_on_c, 8, 36, 116
4, 134772, Note_on_c, 8, 36, 0
4, 134784, Note_on_c, 8, 31, 94
4, 134900, Note_on_c, 8, 31, 0
4, 134912, Note_on_c, 8, 35, 123
4, 135028, Note_on_c, 8, 35, 0
4, 135040, Note_on_c, 8, 31, 102
4, 135098, Note_on_c, 8, 31, 0
4, 135104, Note_on_c, 8, 36, 124
4, 135220, Note_on_c, 8, 36, 0
4, 135232, Note_on_c, 8, 36, 114
4, 135290, Note_on_c, 8, 36, 0
4, 135296, Note_on_c, 8, 31, 97
4, 135412, Note_on_c, 8, 31, 0
4, 135424, Note_on_c, 8, 35, 124
4, 135540, Note_on_c, 8, 35, 0
4, 135552, Note_on_c, 8, 31, 101
4, 135668, Note_on_c, 8, 31, 0
4, 135680, Note_on_c, 8, 36, 127
4, 135796, Note_on_c, 8, 36, 0
4, 135808, Note_on_c, 8, 31, 97
4, 135924, Note_on_c, 8, 31, 0
4, 135936, Note_on_c, 8, 35, 125
4, 136052, Note_on_c, 8, 35, 0
4, 136064, Note_on_c, 8, 31, 98
4, 136122, Note_on_c, 8, 31, 0
4, 136128, Note_on_c, 8, 36, 124
4, 136244, Note_on_c, 8, 36, 0
4, 136256, Note_on_c, 8, 36, 112
4, 136314, Note_on_c, 8, 36, 0
4, 136320, Note_on_c, 8, 31, 96
4, 136436, Note_on_c, 8, 31, 0
4, 136448, Note_on_c, 8, 35, 122
4, 136564, Note_on_c, 8, 35, 0
4, 136576, Note_on_c, 8, 31, 99
4, 136692, Note_on_c, 8, 31, 0
4, 136704, Note_on_c, 8, 33, 117
4, 136820, Note_on_c, 8, 33, 0
4, 136832, Note_on_c, 8, 28, 98
4, 136948, Note_on_c, 8, 28, 0
4, 136960, Note_on_c, 8, 31, 118
4, 137076, Note_on_c, 8, 31, 0
4, 137088, Note_on_c, 8, 28, 100
4, 137146, Note_on_c, 8, 28, 0
4, 137152, Note_on_c, 8, 33, 122
4, 137268, Note_on_c, 8, 33, 0
4, 137280, Note_on_c, 8, 33, 112
4, 137338, Note_on_c, 8, 33, 0
4, 137344, Note_on_c, 8, 28, 94
4, 137460, Note_on_c, 8, 28, 0
4, 137472, Note_on_c, 8, 31, 121
4, 137588, Note_on_c, 8, 31, 0
4, 137600, Note_on_c, 8, 28, 100
4, 137716, Note_on_c, 8, 28, 0
4, 137728, Note_on_c, 8, 33, 127
4, 137844, Note_on_c, 8, 33, 0
4, 137856, Note_on_c, 8, 28, 99
4, 137972, Note_on_c, 8, 28, 0
4, 137984, Note_on_c, 8, 31, 120
4, 138100, Note_on_c, 8, 31, 0
4, 138112, Note_on_c, 8, 28, 102
4, 138170, Note_on_c, 8, 28, 0
4, 138176, Note_on_c, 8, 33, 122
4, 138292, Note_on_c, 8, 33, 0
4, 138304, Note_on_c, 8, 33, 114
4, 138362, Note_on_c, 8, 33, 0
4, 138368, Note_on_c, 8, 28, 94
4, 138484, Note_on_c, 8, 28, 0
4, 138496, Note_on_c, 8, 31, 120
4, 138612, Note_on_c, 8, 31, 0
4, 138624, Note_on_c, 8, 28, 103
4, 138740, Note_on_c, 8, 28, 0
4, 138752, Note_on_c, 8, 36, 127
4, 138868, Note_on_c, 8, 36, 0
4, 138880, Note_on_c, 8, 31, 101
4, 138996, Note_on_c, 8, 31, 0
4, 139008, Note_on_c, 8, 36, 127
4, 139124, Note_on_c, 8, 36, 0
4, 139136, Note_on_c, 8, 31, 95
4, 139194, Note_on_c, 8, 31, 0
4, 139200, Note_on_c, 8, 36, 124
4, 139263, Note_on_c, 8, 36, 0
4, 139328, Note_on_c, 8, 36, 111
4, 139386, Note_on_c, 8, 36, 0
4, 139392, Note_on_c, 8, 31, 97
4, 139508, Note_on_c, 8, 31, 0
4, 139520, Note_on_c, 8, 36, 126
4, 139636, Note_on_c, 8, 36, 0
4, 139648, Note_on_c, 8, 31, 97
4, 139764, Note_on_c, 8, 31, 0
4, 139776, Note_on_c, 8, 38, 127
4, 139892, Note_on_c, 8, 38, 0
4, 139904, Note_on_c, 8, 33, 97
4, 140020, Note_on_c, 8, 33, 0
4, 140032, Note_on_c, 8, 36, 122
4, 140148, Note_on_c, 8, 36, 0
4, 140160, Note_on_c, 8, 33, 102
4, 140218, Note_on_c, 8, 33, 0
4, 140224, Note_on_c, 8, 38, 125
4, 140287, Note_on_c, 8, 38, 0
4, 140352, Note_on_c, 8, 38, 111
4, 140410, Note_on_c, 8, 38, 0
4, 140416, Note_on_c, 8, 33, 96
4, 140532, Note_on_c, 8, 33, 0
4, 140544, Note_on_c, 8, 36, 119
4, 140660, Note_on_c, 8, 36, 0
4, 140672, Note_on_c, 8, 38, 119
4, 140788, Note_on_c, 8, 38, 0
4, 140800, Note_on_c, 8, 41, 122
4, 140916, Note_on_c, 8, 41, 0
4, 140928, Note_on_c, 8, 36, 96
4, 141044, Note_on_c, 8, 36, 0
4, 141056, Note_on_c, 8, 39, 122
4, 141172, Note_on_c, 8, 39, 0
4, 141184, Note_on_c, 8, 36, 100
4, 141242, Note_on_c, 8, 36, 0
4, 141248, Note_on_c, 8, 41, 122
4, 141311, Note_on_c, 8, 41, 0
4, 141376, Note_on_c, 8, 41, 113
4, 141434, Note_on_c, 8, 41, 0
4, 141440, Note_on_c, 8, 36, 96
4, 141556, Note_on_c, 8, 36, 0
4, 141568, Note_on_c, 8, 39, 119
4, 141684, Note_on_c, 8, 39, 0
4, 141696, Note_on_c, 8, 36, 103
4, 141812, Note_on_c, 8, 36, 0
4, 141824, Note_on_c, 8, 41, 127
4, 141940, Note_on_c, 8, 41, 0
4, 141952, Note_on_c, 8, 36, 99
4, 142068, Note_on_c, 8, 36, 0
4, 142080, Note_on_c, 8, 39, 122
4, 142196, Note_on_c, 8, 39, 0
4, 142208, Note_on_c, 8, 36, 103
4, 142266, Note_on_c, 8, 36, 0
4, 142272, Note_on_c, 8, 41, 125
4, 142335, Note_on_c, 8, 41, 0
4, 142400, Note_on_c, 8, 41, 111
4, 142458, Note_on_c, 8, 41, 0
4, 142464, Note_on_c, 8, 36, 96
4, 142580, Note_on_c, 8, 36, 0
4, 142592, Note_on_c, 8, 39, 122
4, 142708, Note_on_c, 8, 39, 0
4, 142720, Note_on_c, 8, 36, 104
4, 142836, Note_on_c, 8, 36, 0
4, 142848, Note_on_c, 8, 41, 127
4, 142964, Note_on_c, 8, 41, 0
4, 142976, Note_on_c, 8, 36, 99
4, 143092, Note_on_c, 8, 36, 0
4, 143104, Note_on_c, 8, 39, 121
4, 143220, Note_on_c, 8, 39, 0
4, 143232, Note_on_c, 8, 36, 103
4, 143290, Note_on_c, 8, 36, 0
4, 143296, Note_on_c, 8, 41, 125
4, 143359, Note_on_c, 8, 41, 0
4, 143424, Note_on_c, 8, 41, 113
4, 143482, Note_on_c, 8, 41, 0
4, 143488, Note_on_c, 8, 36, 95
4, 143604, Note_on_c, 8, 36, 0
4, 143616, Note_on_c, 8, 39, 121
4, 143732, Note_on_c, 8, 39, 0
4, 143744, Note_on_c, 8, 36, 101
4, 143860, Note_on_c, 8, 36, 0
4, 143872, Note_on_c, 8, 41, 127
4, 143988, Note_on_c, 8, 41, 0
4, 144000, Note_on_c, 8, 36, 99
4, 144116, Note_on_c, 8, 36, 0
4, 144128, Note_on_c, 8, 39, 120
4, 144244, Note_on_c, 8, 39, 0
4, 144256, Note_on_c, 8, 36, 103
4, 144314, Note_on_c, 8, 36, 0
4, 144320, Note_on_c, 8, 41, 125
4, 144383, Note_on_c, 8, 41, 0
4, 144448, Note_on_c, 8, 41, 112
4, 144506, Note_on_c, 8, 41, 0
4, 144512, Note_on_c, 8, 36, 95
4, 144628, Note_on_c, 8, 36, 0
4, 144640, Note_on_c, 8, 39, 119
4, 144756, Note_on_c, 8, 39, 0
4, 144768, Note_on_c, 8, 36, 103
4, 144884, Note_on_c, 8, 36, 0
4, 144896, Note_on_c, 8, 41, 127
4, 145012, Note_on_c, 8, 41, 0
4, 145024, Note_on_c, 8, 36, 98
4, 145140, Note_on_c, 8, 36, 0
4, 145152, Note_on_c, 8, 39, 123
4, 145268, Note_on_c, 8, 39, 0
4, 145280, Note_on_c, 8, 36, 102
4, 145338, Note_on_c, 8, 36, 0
4, 145344, Note_on_c, 8, 41, 125
4, 145407, Note_on_c, 8, 41, 0
4, 145472, Note_on_c, 8, 41, 111
4, 145530, Note_on_c, 8, 41, 0
4, 145536, Note_on_c, 8, 36, 97
4, 145652, Note_on_c, 8, 36, 0
4, 145664, Note_on_c, 8, 39, 122
4, 145780, Note_on_c, 8, 39, 0
4, 145792, Note_on_c, 8, 36, 100
4, 145908, Note_on_c, 8, 36, 0
4, 145920, Note_on_c, 8, 41, 126
4, 146036, Note_on_c, 8, 41, 0
4, 146048, Note_on_c, 8, 36, 100
4, 146164, Note_on_c, 8, 36, 0
4, 146176, Note_on_c, 8, 39, 119
4, 146292, Note_on_c, 8, 39, 0
4, 146304, Note_on_c, 8, 36, 103
4, 146362, Note_on_c, 8, 36, 0
4, 146368, Note_on_c, 8, 41, 123
4, 146431, Note_on_c, 8, 41, 0
4, 146496, Note_on_c, 8, 41, 114
4, 146554, Note_on_c, 8, 41, 0
4, 146560, Note_on_c, 8, 36, 98
4, 146676, Note_on_c, 8, 36, 0
4, 146688, Note_on_c, 8, 39, 121
4, 146804, Note_on_c, 8, 39, 0
4, 146816, Note_on_c, 8, 36, 103
4, 146932, Note_on_c, 8, 36, 0
4, 146944, Note_on_c, 8, 41, 126
4, 147060, Note_on_c, 8, 41, 0
4, 147072, Note_on_c, 8, 36, 98
4, 147188, Note_on_c, 8, 36, 0
4, 147200, Note_on_c, 8, 39, 120
4, 147316, Note_on_c, 8, 39, 0
4, 147328, Note_on_c, 8, 36, 101
4, 147386, Note_on_c, 8, 36, 0
4, 147392, Note_on_c, 8, 41, 125
4, 147455, Note_on_c, 8, 41, 0
4, 147520, Note_on_c, 8, 41, 113
4, 147578, Note_on_c, 8, 41, 0
4, 147584, Note_on_c, 8, 36, 95
4, 147700, Note_on_c, 8, 36, 0
4, 147712, Note_on_c, 8, 39, 122
4, 147828, Note_on_c, 8, 39, 0
4, 147840, Note_on_c, 8, 36, 102
4, 147956, Note_on_c, 8, 36, 0
4, 147968, Note_on_c, 8, 41, 127
4, 148084, Note_on_c, 8, 41, 0
4, 148096, Note_on_c, 8, 36, 99
4, 148212, Note_on_c, 8, 36, 0
4, 148224, Note_on_c, 8, 39, 120
4, 148340, Note_on_c, 8, 39, 0
4, 148352, Note_on_c, 8, 36, 102
4, 148410, Note_on_c, 8, 36, 0
4, 148416, Note_on_c, 8, 41, 126
4, 148479, Note_on_c, 8, 41, 0
4, 148544, Note_on_c, 8, 41, 114
4, 148602, Note_on_c, 8, 41, 0
4, 148608, Note_on_c, 8, 36, 97
4, 148724, Note_on_c, 8, 36, 0
4, 148736, Note_on_c, 8, 39, 121
4, 148852, Note_on_c, 8, 39, 0
4, 148864, Note_on_c, 8, 36, 102
4, 148980, Note_on_c, 8, 36, 0
4, 148992, Note_on_c, 8, 41, 125
4, 149108, Note_on_c, 8, 41, 0
4, 149120, Note_on_c, 8, 36, 98
4, 149236, Note_on_c, 8, 36, 0
4, 149248, Note_on_c, 8, 39, 123
4, 149364, Note_on_c, 8, 39, 0
4, 149376, Note_on_c, 8, 36, 103
4, 149434, Note_on_c, 8, 36, 0
4, 149440, Note_on_c, 8, 41, 125
4, 149503, Note_on_c, 8, 41, 0
4, 149568, Note_on_c, 8, 41, 112
4, 149626, Note_on_c, 8, 41, 0
4, 149632, Note_on_c, 8, 36, 97
4, 149748, Note_on_c, 8, 36, 0
4, 149760, Note_on_c, 8, 39, 119
4, 149876, Note_on_c, 8, 39, 0
4, 149888, Note_on_c, 8, 36, 101
4, 150004, Note_on_c, 8, 36, 0
4, 150016, Note_on_c, 8, 41, 126
4, 150132, Note_on_c, 8, 41, 0
4, 150144, Note_on_c, 8, 36, 98
4, 150260, Note_on_c, 8, 36, 0
4, 150272, Note_on_c, 8, 39, 119
4, 150388, Note_on_c, 8, 39, 0
4, 150400, Note_on_c, 8, 36, 102
4, 150458, Note_on_c, 8, 36, 0
4, 150464, Note_on_c, 8, 41, 124
4, 150527, Note_on_c, 8, 41, 0
4, 150592, Note_on_c, 8, 41, 114
4, 150650, Note_on_c, 8, 41, 0
4, 150656, Note_on_c, 8, 36, 96
4, 150772, Note_on_c, 8, 36, 0
4, 150784, Note_on_c, 8, 39, 120
4, 150900, Note_on_c, 8, 39, 0
4, 150912, Note_on_c, 8, 36, 103
4, 151028, Note_on_c, 8, 36, 0
4, 151040, Note_on_c, 8, 43, 127
4, 151156, Note_on_c, 8, 43, 0
4, 151168, Note_on_c, 8, 38, 99
4, 151284, Note_on_c, 8, 38, 0
4, 151296, Note_on_c, 8, 41, 120
4, 151412, Note_on_c, 8, 41, 0
4, 151424, Note_on_c, 8, 38, 102
4, 151482, Note_on_c, 8, 38, 0
4, 151488, Note_on_c, 8, 43, 124
4, 151551, Note_on_c, 8, 43, 0
4, 151616, Note_on_c, 8, 43, 112
4, 151674, Note_on_c, 8, 43, 0
4, 151680, Note_on_c, 8, 38, 97
4, 151796, Note_on_c, 8, 38, 0
4, 151808, Note_on_c, 8, 41, 119
4, 151924, Note_on_c, 8, 41, 0
4, 151936, Note_on_c, 8, 38, 104
4, 152052, Note_on_c, 8, 38, 0
4, 152064, Note_on_c, 8, 38, 112
4, 152180, Note_on_c, 8, 38, 0
4, 152192, Note_on_c, 8, 33, 96
4, 152308, Note_on_c, 8, 33, 0
4, 152320, Note_on_c, 8, 36, 119
4, 152436, Note_on_c, 8, 36, 0
4, 152448, Note_on_c, 8, 33, 100
4, 152506, Note_on_c, 8, 33, 0
4, 152512, Note_on_c, 8, 38, 125
4, 152575, Note_on_c, 8, 38, 0
4, 152640, Note_on_c, 8, 38, 111
4, 152698, Note_on_c, 8, 38, 0
4, 152704, Note_on_c, 8, 33, 95
4, 152820, Note_on_c, 8, 33, 0
4, 152832, Note_on_c, 8, 36, 119
4, 152948, Note_on_c, 8, 36, 0
4, 152960, Note_on_c, 8, 33, 100
4, 153076, Note_on_c, 8, 33, 0
4, 153088, Note_on_c, 8, 42, 127
4, 153204, Note_on_c, 8, 42, 0
4, 153216, Note_on_c, 8, 37, 101
4, 153332, Note_on_c, 8, 37, 0
4, 153344, Note_on_c, 8, 40, 120
4, 153460, Note_on_c, 8, 40, 0
4, 153472, Note_on_c, 8, 37, 100
4, 153530, Note_on_c, 8, 37, 0
4, 153536, Note_on_c, 8, 42, 125
4, 153599, Note_on_c, 8, 42, 0
4, 153664, Note_on_c, 8, 42, 114
4, 153722, Note_on_c, 8, 42, 0
4, 153728, Note_on_c, 8, 37, 96
4, 153844, Note_on_c, 8, 37, 0
4, 153856, Note_on_c, 8, 40, 122
4, 153972, Note_on_c, 8, 40, 0
4, 153984, Note_on_c, 8, 37, 103
4, 154100, Note_on_c, 8, 37, 0
4, 154112, Note_on_c, 8, 44, 127
4, 154228, Note_on_c, 8, 44, 0
4, 154240, Note_on_c, 8, 39, 98
4, 154356, Note_on_c, 8, 39, 0
4, 154368, Note_on_c, 8, 42, 121
4, 154484, Note_on_c, 8, 42, 0
4, 154496, Note_on_c, 8, 39, 103
4, 154554, Note_on_c, 8, 39, 0
4, 154560, Note_on_c, 8, 44, 122
4, 154623, Note_on_c, 8, 44, 0
4, 154688, Note_on_c, 8, 44, 113
4, 154746, Note_on_c, 8, 44, 0
4, 154752, Note_on_c, 8, 39, 96
4, 154868, Note_on_c, 8, 39, 0
4, 154880, Note_on_c, 8, 42, 118
4, 154996, Note_on_c, 8, 42, 0
4, 155008, Note_on_c, 8, 39, 104
4, 155124, Note_on_c, 8, 39, 0
4, 155136, Note_on_c, 8, 32, 94
4, 156622, Note_on_c, 8, 32, 0
4, 157184, Note_on_c, 8, 42, 103
4, 158670, Note_on_c, 8, 42, 0
4, 159232, Note_on_c, 8, 32, 100
4, 160718, Note_on_c, 8, 32, 0
4, 161280, Note_on_c, 8, 30, 102
4, 162766, Note_on_c, 8, 30, 0
4, 170496, Note_on_c, 8, 30, 100
4, 170559, Note_on_c, 8, 30, 0
4, 170624, Note_on_c, 8, 30, 107
4, 170687, Note_on_c, 8, 30, 0
4, 170816, Note_on_c, 8, 30, 98
4, 170879, Note_on_c, 8, 30, 0
4, 171008, Note_on_c, 8, 30, 103
4, 171071, Note_on_c, 8, 30, 0
4, 171136, Note_on_c, 8, 28, 103
4, 171194, Note_on_c, 8, 28, 0
4, 171200, Note_on_c, 8, 30, 117
4, 171258, Note_on_c, 8, 30, 0
4, 171392, Note_on_c, 8, 30, 100
4, 171455, Note_on_c, 8, 30, 0
4, 171520, Note_on_c, 8, 28, 104
4, 171578, Note_on_c, 8, 28, 0
4, 171584, Note_on_c, 8, 30, 117
4, 171642, Note_on_c, 8, 30, 0
4, 171776, Note_on_c, 8, 30, 101
4, 171839, Note_on_c, 8, 30, 0
4, 171904, Note_on_c, 8, 30, 109
4, 171967, Note_on_c, 8, 30, 0
4, 172032, Note_on_c, 8, 28, 107
4, 172090, Note_on_c, 8, 28, 0
4, 172096, Note_on_c, 8, 30, 117
4, 172154, Note_on_c, 8, 30, 0
4, 172288, Note_on_c, 8, 30, 103
4, 172351, Note_on_c, 8, 30, 0
4, 172416, Note_on_c, 8, 30, 107
4, 172479, Note_on_c, 8, 30, 0
4, 172608, Note_on_c, 8, 30, 100
4, 172671, Note_on_c, 8, 30, 0
4, 172800, Note_on_c, 8, 30, 100
4, 172863, Note_on_c, 8, 30, 0
4, 172928, Note_on_c, 8, 28, 103
4, 172986, Note_on_c, 8, 28, 0
4, 172992, Note_on_c, 8, 30, 116
4, 173050, Note_on_c, 8, 30, 0
4, 173184, Note_on_c, 8, 30, 101
4, 173247, Note_on_c, 8, 30, 0
4, 173312, Note_on_c, 8, 28, 106
4, 173370, Note_on_c, 8, 28, 0
4, 173376, Note_on_c, 8, 30, 117
4, 173434, Note_on_c, 8, 30, 0
4, 173568, Note_on_c, 8, 30, 104
4, 173631, Note_on_c, 8, 30, 0
4, 173696, Note_on_c, 8, 30, 108
4, 173759, Note_on_c, 8, 30, 0
4, 173824, Note_on_c, 8, 28, 109
4, 173882, Note_on_c, 8, 28, 0
4, 173888, Note_on_c, 8, 30, 118
4, 173946, Note_on_c, 8, 30, 0
4, 174080, Note_on_c, 8, 27, 102
4, 174143, Note_on_c, 8, 27, 0
4, 174208, Note_on_c, 8, 27, 108
4, 174271, Note_on_c, 8, 27, 0
4, 174400, Note_on_c, 8, 27, 98
4, 174463, Note_on_c, 8, 27, 0
4, 174592, Note_on_c, 8, 27, 103
4, 174655, Note_on_c, 8, 27, 0
4, 174720, Note_on_c, 8, 25, 102
4, 174778, Note_on_c, 8, 25, 0
4, 174784, Note_on_c, 8, 27, 118
4, 174842, Note_on_c, 8, 27, 0
4, 174976, Note_on_c, 8, 27, 98
4, 175039, Note_on_c, 8, 27, 0
4, 175104, Note_on_c, 8, 25, 104
4, 175162, Note_on_c, 8, 25, 0
4, 175168, Note_on_c, 8, 27, 115
4, 175226, Note_on_c, 8, 27, 0
4, 175360, Note_on_c, 8, 27, 102
4, 175423, Note_on_c, 8, 27, 0
4, 175488, Note_on_c, 8, 27, 108
4, 175551, Note_on_c, 8, 27, 0
4, 175616, Note_on_c, 8, 25, 109
4, 175674, Note_on_c, 8, 25, 0
4, 175680, Note_on_c, 8, 27, 118
4, 175738, Note_on_c, 8, 27, 0
4, 175872, Note_on_c, 8, 27, 103
4, 175935, Note_on_c, 8, 27, 0
4, 176000, Note_on_c, 8, 27, 108
4, 176063, Note_on_c, 8, 27, 0
4, 176192, Note_on_c, 8, 27, 100
4, 176255, Note_on_c, 8, 27, 0
4, 176384, Note_on_c, 8, 27, 103
4, 176447, Note_on_c, 8, 27, 0
4, 176512, Note_on_c, 8, 25, 102
4, 176570, Note_on_c, 8, 25, 0
4, 176576, Note_on_c, 8, 27, 117
4, 176634, Note_on_c, 8, 27, 0
4, 176768, Note_on_c, 8, 27, 101
4, 176831, Note_on_c, 8, 27, 0
4, 176896, Note_on_c, 8, 25, 104
4, 176954, Note_on_c, 8, 25, 0
4, 176960, Note_on_c, 8, 27, 116
4, 177018, Note_on_c, 8, 27, 0
4, 177152, Note_on_c, 8, 27, 104
4, 177215, Note_on_c, 8, 27, 0
4, 177280, Note_on_c, 8, 27, 109
4, 177343, Note_on_c, 8, 27, 0
4, 177408, Note_on_c, 8, 25, 106
4, 177466, Note_on_c, 8, 25, 0
4, 177472, Note_on_c, 8, 27, 118
4, 177530, Note_on_c, 8, 27, 0
4, 177664, Note_on_c, 8, 30, 100
4, 177727, Note_on_c, 8, 30, 0
4, 177792, Note_on_c, 8, 30, 108
4, 177855, Note_on_c, 8, 30, 0
4, 177984, Note_on_c, 8, 30, 98
4, 178047, Note_on_c, 8, 30, 0
4, 178176, Note_on_c, 8, 30, 100
4, 178239, Note_on_c, 8, 30, 0
4, 178304, Note_on_c, 8, 28, 104
4, 178362, Note_on_c, 8, 28, 0
4, 178368, Note_on_c, 8, 30, 115
4, 178426, Note_on_c, 8, 30, 0
4, 178560, Note_on_c, 8, 30, 100
4, 178623, Note_on_c, 8, 30, 0
4, 178688, Note_on_c, 8, 28, 105
4, 178746, Note_on_c, 8, 28, 0
4, 178752, Note_on_c, 8, 30, 119
4, 178810, Note_on_c, 8, 30, 0
4, 178944, Note_on_c, 8, 30, 103
4, 179007, Note_on_c, 8, 30, 0
4, 179072, Note_on_c, 8, 30, 109
4, 179135, Note_on_c, 8, 30, 0
4, 179200, Note_on_c, 8, 28, 108
4, 179258, Note_on_c, 8, 28, 0
4, 179264, Note_on_c, 8, 30, 115
4, 179322, Note_on_c, 8, 30, 0
4, 179456, Note_on_c, 8, 30, 103
4, 179519, Note_on_c, 8, 30, 0
4, 179584, Note_on_c, 8, 30, 110
4, 179647, Note_on_c, 8, 30, 0
4, 179776, Note_on_c, 8, 30, 99
4, 179839, Note_on_c, 8, 30, 0
4, 179968, Note_on_c, 8, 30, 100
4, 180031, Note_on_c, 8, 30, 0
4, 180096, Note_on_c, 8, 28, 103
4, 180154, Note_on_c, 8, 28, 0
4, 180160, Note_on_c, 8, 30, 117
4, 180218, Note_on_c, 8, 30, 0
4, 180352, Note_on_c, 8, 30, 98
4, 180415, Note_on_c, 8, 30, 0
4, 180480, Note_on_c, 8, 28, 107
4, 180538, Note_on_c, 8, 28, 0
4, 180544, Note_on_c, 8, 30, 119
4, 180602, Note_on_c, 8, 30, 0
4, 180736, Note_on_c, 8, 30, 101
4, 180799, Note_on_c, 8, 30, 0
4, 180864, Note_on_c, 8, 30, 108
4, 180927, Note_on_c, 8, 30, 0
4, 180992, Note_on_c, 8, 28, 106
4, 181050, Note_on_c, 8, 28, 0
4, 181056, Note_on_c, 8, 30, 115
4, 181114, Note_on_c, 8, 30, 0
4, 181248, Note_on_c, 8, 44, 100
4, 181364, Note_on_c, 8, 44, 0
4, 181376, Note_on_c, 8, 39, 94
4, 181492, Note_on_c, 8, 39, 0
4, 181504, Note_on_c, 8, 42, 119
4, 181620, Note_on_c, 8, 42, 0
4, 181632, Note_on_c, 8, 39, 100
4, 181690, Note_on_c, 8, 39, 0
4, 181696, Note_on_c, 8, 44, 125
4, 181812, Note_on_c, 8, 44, 0
4, 181824, Note_on_c, 8, 44, 111
4, 181882, Note_on_c, 8, 44, 0
4, 181888, Note_on_c, 8, 39, 96
4, 182004, Note_on_c, 8, 39, 0
4, 182016, Note_on_c, 8, 42, 119
4, 182132, Note_on_c, 8, 42, 0
4, 182144, Note_on_c, 8, 39, 102
4, 182260, Note_on_c, 8, 39, 0
4, 182272, Note_on_c, 8, 44, 127
4, 182388, Note_on_c, 8, 44, 0
4, 182400, Note_on_c, 8, 39, 98
4, 182516, Note_on_c, 8, 39, 0
4, 182528, Note_on_c, 8, 42, 121
4, 182644, Note_on_c, 8, 42, 0
4, 182656, Note_on_c, 8, 39, 103
4, 182714, Note_on_c, 8, 39, 0
4, 182720, Note_on_c, 8, 44, 125
4, 182836, Note_on_c, 8, 44, 0
4, 182848, Note_on_c, 8, 44, 115
4, 182906, Note_on_c, 8, 44, 0
4, 182912, Note_on_c, 8, 39, 94
4, 183028, Note_on_c, 8, 39, 0
4, 183040, Note_on_c, 8, 42, 120
4, 183156, Note_on_c, 8, 42, 0
4, 183168, Note_on_c, 8, 39, 100
4, 183284, Note_on_c, 8, 39, 0
4, 183296, Note_on_c, 8, 44, 127
4, 183412, Note_on_c, 8, 44, 0
4, 183424, Note_on_c, 8, 39, 98
4, 183540, Note_on_c, 8, 39, 0
4, 183552, Note_on_c, 8, 42, 120
4, 183668, Note_on_c, 8, 42, 0
4, 183680, Note_on_c, 8, 39, 102
4, 183738, Note_on_c, 8, 39, 0
4, 183744, Note_on_c, 8, 44, 124
4, 183860, Note_on_c, 8, 44, 0
4, 183872, Note_on_c, 8, 44, 115
4, 183930, Note_on_c, 8, 44, 0
4, 183936, Note_on_c, 8, 39, 98
4, 184052, Note_on_c, 8, 39, 0
4, 184064, Note_on_c, 8, 42, 119
4, 184180, Note_on_c, 8, 42, 0
4, 184192, Note_on_c, 8, 39, 103
4, 184308, Note_on_c, 8, 39, 0
4, 184320, Note_on_c, 8, 44, 127
4, 184436, Note_on_c, 8, 44, 0
4, 184448, Note_on_c, 8, 39, 99
4, 184564, Note_on_c, 8, 39, 0
4, 184576, Note_on_c, 8, 42, 120
4, 184692, Note_on_c, 8, 42, 0
4, 184704, Note_on_c, 8, 39, 103
4, 184762, Note_on_c, 8, 39, 0
4, 184768, Note_on_c, 8, 44, 125
4, 184884, Note_on_c, 8, 44, 0
4, 184896, Note_on_c, 8, 44, 114
4, 184954, Note_on_c, 8, 44, 0
4, 184960, Note_on_c, 8, 39, 94
4, 185076, Note_on_c, 8, 39, 0
4, 185088, Note_on_c, 8, 42, 121
4, 185204, Note_on_c, 8, 42, 0
4, 185216, Note_on_c, 8, 39, 102
4, 185332, Note_on_c, 8, 39, 0
4, 185344, Note_on_c, 8, 44, 127
4, 185460, Note_on_c, 8, 44, 0
4, 185472, Note_on_c, 8, 39, 96
4, 185588, Note_on_c, 8, 39, 0
4, 185600, Note_on_c, 8, 42, 119
4, 185716, Note_on_c, 8, 42, 0
4, 185728, Note_on_c, 8, 39, 100
4, 185786, Note_on_c, 8, 39, 0
4, 185792, Note_on_c, 8, 44, 122
4, 185908, Note_on_c, 8, 44, 0
4, 185920, Note_on_c, 8, 44, 111
4, 185978, Note_on_c, 8, 44, 0
4, 185984, Note_on_c, 8, 39, 97
4, 186100, Note_on_c, 8, 39, 0
4, 186112, Note_on_c, 8, 42, 122
4, 186228, Note_on_c, 8, 42, 0
4, 186240, Note_on_c, 8, 39, 101
4, 186356, Note_on_c, 8, 39, 0
4, 186368, Note_on_c, 8, 44, 127
4, 186484, Note_on_c, 8, 44, 0
4, 186496, Note_on_c, 8, 39, 97
4, 186612, Note_on_c, 8, 39, 0
4, 186624, Note_on_c, 8, 42, 121
4, 186740, Note_on_c, 8, 42, 0
4, 186752, Note_on_c, 8, 39, 100
4, 186810, Note_on_c, 8, 39, 0
4, 186816, Note_on_c, 8, 44, 123
4, 186932, Note_on_c, 8, 44, 0
4, 186944, Note_on_c, 8, 44, 114
4, 187002, Note_on_c, 8, 44, 0
4, 187008, Note_on_c, 8, 39, 97
4, 187124, Note_on_c, 8, 39, 0
4, 187136, Note_on_c, 8, 42, 121
4, 187252, Note_on_c, 8, 42, 0
4, 187264, Note_on_c, 8, 39, 103
4, 187380, Note_on_c, 8, 39, 0
4, 187381, End_track
5, 0, Start_track
5, 0, Title_t, "Soprano"
5, 0, Control_c, 5, 91, 85
5, 0, Control_c, 5, 10, 95
5, 4096, Control_c, 5, 0, 0
5, 4096, Control_c, 5, 32, 0
5, 4096, Program_c, 5, 52
5, 4096, Note_on_c, 5, 67, 70
5, 4096, Note_on_c, 5, 71, 72
5, 4096, Note_on_c, 5, 83, 72
5, 5070, Note_on_c, 5, 67, 0
5, 5070, Note_on_c, 5, 71, 0
5, 5070, Note_on_c, 5, 83, 0
5, 5120, Note_on_c, 5, 69, 73
5, 5120, Note_on_c, 5, 71, 74
5, 5120, Note_on_c, 5, 81, 72
5, 6094, Note_on_c, 5, 69, 0
5, 6094, Note_on_c, 5, 71, 0
5, 6094, Note_on_c, 5, 81, 0
5, 6144, Note_on_c, 5, 74, 88
5, 6144, Note_on_c, 5, 86, 89
5, 7118, Note_on_c, 5, 74, 0
5, 7118, Note_on_c, 5, 86, 0
5, 7168, Note_on_c, 5, 67, 69
5, 7168, Note_on_c, 5, 79, 66
5, 8142, Note_on_c, 5, 67, 0
5, 8142, Note_on_c, 5, 79, 0
5, 8192, Note_on_c, 5, 67, 76
5, 8192, Note_on_c, 5, 79, 76
5, 9166, Note_on_c, 5, 67, 0
5, 9166, Note_on_c, 5, 79, 0
5, 9216, Note_on_c, 5, 66, 60
5, 9216, Note_on_c, 5, 78, 71
5, 9678, Note_on_c, 5, 78, 0
5, 9728, Note_on_c, 5, 83, 82
5, 10190, Note_on_c, 5, 66, 0
5, 10190, Note_on_c, 5, 83, 0
5, 10240, Note_on_c, 5, 64, 94
5, 10240, Note_on_c, 5, 76, 93
5, 11214, Note_on_c, 5, 64, 0
5, 11214, Note_on_c, 5, 76, 0
5, 11264, Note_on_c, 5, 66, 88
5, 11264, Note_on_c, 5, 78, 86
5, 12238, Note_on_c, 5, 66, 0
5, 12238, Note_on_c, 5, 78, 0
5, 30720, Note_on_c, 5, 67, 70
5, 30951, Note_on_c, 5, 67, 0
5, 30976, Note_on_c, 5, 70, 82
5, 31207, Note_on_c, 5, 70, 0
5, 31232, Note_on_c, 5, 69, 73
5, 31463, Note_on_c, 5, 69, 0
5, 31488, Note_on_c, 5, 72, 82
5, 31719, Note_on_c, 5, 72, 0
5, 31744, Note_on_c, 5, 70, 76
5, 31975, Note_on_c, 5, 70, 0
5, 32000, Note_on_c, 5, 75, 86
5, 32231, Note_on_c, 5, 75, 0
5, 32256, Note_on_c, 5, 74, 73
5, 32487, Note_on_c, 5, 74, 0
5, 32512, Note_on_c, 5, 81, 91
5, 32743, Note_on_c, 5, 81, 0
5, 32768, Note_on_c, 5, 79, 77
5, 33486, Note_on_c, 5, 79, 0
5, 33536, Note_on_c, 5, 78, 74
5, 33652, Note_on_c, 5, 78, 0
5, 33664, Note_on_c, 5, 79, 77
5, 33722, Note_on_c, 5, 79, 0
5, 33728, Note_on_c, 5, 78, 71
5, 33786, Note_on_c, 5, 78, 0
5, 33792, Note_on_c, 5, 76, 72
5, 34766, Note_on_c, 5, 76, 0
5, 112128, Note_on_c, 5, 67, 71
5, 112359, Note_on_c, 5, 67, 0
5, 112384, Note_on_c, 5, 70, 82
5, 112615, Note_on_c, 5, 70, 0
5, 112640, Note_on_c, 5, 69, 72
5, 112871, Note_on_c, 5, 69, 0
5, 112896, Note_on_c, 5, 72, 84
5, 113127, Note_on_c, 5, 72, 0
5, 113152, Note_on_c, 5, 70, 76
5, 113383, Note_on_c, 5, 70, 0
5, 113408, Note_on_c, 5, 75, 84
5, 113639, Note_on_c, 5, 75, 0
5, 113664, Note_on_c, 5, 74, 74
5, 113895, Note_on_c, 5, 74, 0
5, 113920, Note_on_c, 5, 81, 89
5, 114151, Note_on_c, 5, 81, 0
5, 114176, Note_on_c, 5, 79, 78
5, 114894, Note_on_c, 5, 79, 0
5, 114944, Note_on_c, 5, 78, 75
5, 115060, Note_on_c, 5, 78, 0
5, 115072, Note_on_c, 5, 79, 79
5, 115130, Note_on_c, 5, 79, 0
5, 115136, Note_on_c, 5, 78, 74
5, 115194, Note_on_c, 5, 78, 0
5, 115200, Note_on_c, 5, 76, 72
5, 116174, Note_on_c, 5, 76, 0
5, 116175, End_track
6, 0, Start_track
6, 0, Title_t, "Tenor"
6, 0, Control_c, 6, 91, 85
6, 0, Control_c, 6, 10, 57
6, 4096, Control_c, 6, 0, 0
6, 4096, Control_c, 6, 32, 0
6, 4096, Program_c, 6, 52
6, 4096, Note_on_c, 6, 55, 72
6, 4096, Note_on_c, 6, 59, 73
6, 5070, Note_on_c, 6, 55, 0
6, 5070, Note_on_c, 6, 59, 0
6, 5120, Note_on_c, 6, 54, 75
6, 5120, Note_on_c, 6, 59, 75
6, 6094, Note_on_c, 6, 54, 0
6, 6094, Note_on_c, 6, 59, 0
6, 6144, Note_on_c, 6, 55, 86
6, 6144, Note_on_c, 6, 62, 84
6, 7118, Note_on_c, 6, 55, 0
6, 7118, Note_on_c, 6, 62, 0
6, 7168, Note_on_c, 6, 52, 72
6, 7168, Note_on_c, 6, 59, 72
6, 8142, Note_on_c, 6, 52, 0
6, 8142, Note_on_c, 6, 59, 0
6, 8192, Note_on_c, 6, 52, 77
6, 8192, Note_on_c, 6, 59, 78
6, 9166, Note_on_c, 6, 52, 0
6, 9166, Note_on_c, 6, 59, 0
6, 9216, Note_on_c, 6, 54, 80
6, 9216, Note_on_c, 6, 59, 79
6, 9216, Note_on_c, 6, 66, 70
6, 9678, Note_on_c, 6, 66, 0
6, 9728, Note_on_c, 6, 71, 82
6, 10190, Note_on_c, 6, 54, 0
6, 10190, Note_on_c, 6, 59, 0
6, 10190, Note_on_c, 6, 71, 0
6, 10240, Note_on_c, 6, 48, 63
6, 10240, Note_on_c, 6, 52, 66
6, 11214, Note_on_c, 6, 48, 0
6, 11214, Note_on_c, 6, 52, 0
6, 11264, Note_on_c, 6, 54, 100
6, 11264, Note_on_c, 6, 62, 103
6, 11264, Note_on_c, 6, 69, 103
6, 12238, Note_on_c, 6, 54, 0
6, 12238, Note_on_c, 6, 62, 0
6, 12238, Note_on_c, 6, 69, 0
6, 40960, Note_on_c, 6, 52, 74
6, 41076, Note_on_c, 6, 52, 0
6, 41088, Note_on_c, 6, 55, 85
6, 41204, Note_on_c, 6, 55, 0
6, 41216, Note_on_c, 6, 54, 78
6, 41332, Note_on_c, 6, 54, 0
6, 41344, Note_on_c, 6, 57, 87
6, 41402, Note_on_c, 6, 57, 0
6, 41408, Note_on_c, 6, 55, 74
6, 41471, Note_on_c, 6, 55, 0
6, 41536, Note_on_c, 6, 55, 80
6, 41594, Note_on_c, 6, 55, 0
6, 41600, Note_on_c, 6, 60, 91
6, 41716, Note_on_c, 6, 60, 0
6, 41728, Note_on_c, 6, 59, 82
6, 41844, Note_on_c, 6, 59, 0
6, 41856, Note_on_c, 6, 57, 76
6, 41972, Note_on_c, 6, 57, 0
6, 41984, Note_on_c, 6, 59, 87
6, 42100, Note_on_c, 6, 59, 0
6, 42112, Note_on_c, 6, 64, 92
6, 42228, Note_on_c, 6, 64, 0
6, 42240, Note_on_c, 6, 63, 80
6, 42356, Note_on_c, 6, 63, 0
6, 42368, Note_on_c, 6, 66, 84
6, 42426, Note_on_c, 6, 66, 0
6, 42432, Note_on_c, 6, 64, 77
6, 42495, Note_on_c, 6, 64, 0
6, 42560, Note_on_c, 6, 64, 78
6, 42618, Note_on_c, 6, 64, 0
6, 42624, Note_on_c, 6, 69, 88
6, 42740, Note_on_c, 6, 69, 0
6, 42752, Note_on_c, 6, 67, 79
6, 42868, Note_on_c, 6, 67, 0
6, 42880, Note_on_c, 6, 66, 76
6, 42996, Note_on_c, 6, 66, 0
6, 89088, Note_on_c, 6, 57, 75
6, 89088, Note_on_c, 6, 61, 72
6, 90855, Note_on_c, 6, 57, 0
6, 90855, Note_on_c, 6, 61, 0
6, 90880, Note_on_c, 6, 57, 83
6, 90880, Note_on_c, 6, 61, 81
6, 92647, Note_on_c, 6, 57, 0
6, 92647, Note_on_c, 6, 61, 0
6, 92672, Note_on_c, 6, 54, 74
6, 92672, Note_on_c, 6, 58, 76
6, 94439, Note_on_c, 6, 54, 0
6, 94439, Note_on_c, 6, 58, 0
6, 94464, Note_on_c, 6, 54, 83
6, 94464, Note_on_c, 6, 58, 83
6, 96231, Note_on_c, 6, 54, 0
6, 96231, Note_on_c, 6, 58, 0
6, 96256, Note_on_c, 6, 57, 89
6, 96256, Note_on_c, 6, 61, 89
6, 98023, Note_on_c, 6, 57, 0
6, 98023, Note_on_c, 6, 61, 0
6, 98048, Note_on_c, 6, 57, 81
6, 98048, Note_on_c, 6, 61, 82
6, 99815, Note_on_c, 6, 57, 0
6, 99815, Note_on_c, 6, 61, 0
6, 122368, Note_on_c, 6, 52, 72
6, 122484, Note_on_c, 6, 52, 0
6, 122496, Note_on_c, 6, 55, 85
6, 122612, Note_on_c, 6, 55, 0
6, 122624, Note_on_c, 6, 54, 80
6, 122740, Note_on_c, 6, 54, 0
6, 122752, Note_on_c, 6, 57, 87
6, 122810, Note_on_c, 6, 57, 0
6, 122816, Note_on_c, 6, 55, 77
6, 122879, Note_on_c, 6, 55, 0
6, 122944, Note_on_c, 6, 55, 80
6, 123002, Note_on_c, 6, 55, 0
6, 123008, Note_on_c, 6, 60, 89
6, 123124, Note_on_c, 6, 60, 0
6, 123136, Note_on_c, 6, 59, 79
6, 123252, Note_on_c, 6, 59, 0
6, 123264, Note_on_c, 6, 57, 73
6, 123380, Note_on_c, 6, 57, 0
6, 123392, Note_on_c, 6, 59, 87
6, 123508, Note_on_c, 6, 59, 0
6, 123520, Note_on_c, 6, 64, 90
6, 123636, Note_on_c, 6, 64, 0
6, 123648, Note_on_c, 6, 63, 80
6, 123764, Note_on_c, 6, 63, 0
6, 123776, Note_on_c, 6, 66, 87
6, 123834, Note_on_c, 6, 66, 0
6, 123840, Note_on_c, 6, 64, 78
6, 123903, Note_on_c, 6, 64, 0
6, 123968, Note_on_c, 6, 64, 78
6, 124026, Note_on_c, 6, 64, 0
6, 124032, Note_on_c, 6, 69, 90
6, 124148, Note_on_c, 6, 69, 0
6, 124160, Note_on_c, 6, 67, 81
6, 124276, Note_on_c, 6, 67, 0
6, 124288, Note_on_c, 6, 66, 77
6, 124404, Note_on_c, 6, 66, 0
6, 170496, Note_on_c, 6, 57, 72
6, 170496, Note_on_c, 6, 61, 73
6, 172263, Note_on_c, 6, 57, 0
6, 172263, Note_on_c, 6, 61, 0
6, 172288, Note_on_c, 6, 57, 83
6, 172288, Note_on_c, 6, 61, 84
6, 174055, Note_on_c, 6, 57, 0
6, 174055, Note_on_c, 6, 61, 0
6, 174080, Note_on_c, 6, 54, 75
6, 174080, Note_on_c, 6, 58, 78
6, 175847, Note_on_c, 6, 54, 0
6, 175847, Note_on_c, 6, 58, 0
6, 175872, Note_on_c, 6, 54, 83
6, 175872, Note_on_c, 6, 58, 82
6, 177639, Note_on_c, 6, 54, 0
6, 177639, Note_on_c, 6, 58, 0
6, 177664, Note_on_c, 6, 57, 90
6, 177664, Note_on_c, 6, 61, 90
6, 179431, Note_on_c, 6, 57, 0
6, 179431, Note_on_c, 6, 61, 0
6, 179456, Note_on_c, 6, 57, 82
6, 179456, Note_on_c, 6, 61, 85
6, 181223, Note_on_c, 6, 57, 0
6, 181223, Note_on_c, 6, 61, 0
6, 181224, End_track
7, 0, Start_track
7, 0, Title_t, "Bass"
7, 0, Control_c, 7, 91, 85
7, 0, Control_c, 7, 10, 38
7, 4096, Control_c, 7, 0, 0
7, 4096, Control_c, 7, 32, 0
7, 4096, Program_c, 7, 52
7, 4096, Note_on_c, 7, 55, 70
7, 5070, Note_on_c, 7, 55, 0
7, 5120, Note_on_c, 7, 54, 76
7, 6094, Note_on_c, 7, 54, 0
7, 6144, Note_on_c, 7, 59, 87
7, 7118, Note_on_c, 7, 59, 0
7, 7168, Note_on_c, 7, 52, 66
7, 8142, Note_on_c, 7, 52, 0
7, 8192, Note_on_c, 7, 57, 88
7, 9166, Note_on_c, 7, 57, 0
7, 9216, Note_on_c, 7, 55, 74
7, 10190, Note_on_c, 7, 55, 0
7, 10240, Note_on_c, 7, 48, 66
7, 11214, Note_on_c, 7, 48, 0
7, 11264, Note_on_c, 7, 50, 79
7, 12238, Note_on_c, 7, 50, 0
7, 89088, Note_on_c, 7, 42, 72
7, 89088, Note_on_c, 7, 54, 73
7, 90855, Note_on_c, 7, 42, 0
7, 90855, Note_on_c, 7, 54, 0
7, 90880, Note_on_c, 7, 42, 80
7, 90880, Note_on_c, 7, 54, 79
7, 92647, Note_on_c, 7, 42, 0
7, 92647, Note_on_c, 7, 54, 0
7, 92672, Note_on_c, 7, 39, 72
7, 92672, Note_on_c, 7, 51, 72
7, 94439, Note_on_c, 7, 39, 0
7, 94439, Note_on_c, 7, 51, 0
7, 94464, Note_on_c, 7, 39, 80
7, 94464, Note_on_c, 7, 51, 78
7, 96231, Note_on_c, 7, 39, 0
7, 96231, Note_on_c, 7, 51, 0
7, 96256, Note_on_c, 7, 42, 86
7, 96256, Note_on_c, 7, 54, 83
7, 98023, Note_on_c, 7, 42, 0
7, 98023, Note_on_c, 7, 54, 0
7, 98048, Note_on_c, 7, 42, 77
7, 98048, Note_on_c, 7, 54, 78
7, 99815, Note_on_c, 7, 42, 0
7, 99815, Note_on_c, 7, 54, 0
7, 170496, Note_on_c, 7, 42, 71
7, 170496, Note_on_c, 7, 54, 69
7, 172263, Note_on_c, 7, 42, 0
7, 172263, Note_on_c, 7, 54, 0
7, 172288, Note_on_c, 7, 42, 79
7, 172288, Note_on_c, 7, 54, 77
7, 174055, Note_on_c, 7, 42, 0
7, 174055, Note_on_c, 7, 54, 0
7, 174080, Note_on_c, 7, 39, 73
7, 174080, Note_on_c, 7, 51, 74
7, 175847, Note_on_c, 7, 39, 0
7, 175847, Note_on_c, 7, 51, 0
7, 175872, Note_on_c, 7, 39, 79
7, 175872, Note_on_c, 7, 51, 77
7, 177639, Note_on_c, 7, 39, 0
7, 177639, Note_on_c, 7, 51, 0
7, 177664, Note_on_c, 7, 42, 84
7, 177664, Note_on_c, 7, 54, 85
7, 179431, Note_on_c, 7, 42, 0
7, 179431, Note_on_c, 7, 54, 0
7, 179456, Note_on_c, 7, 42, 79
7, 179456, Note_on_c, 7, 54, 78
7, 181223, Note_on_c, 7, 42, 0
7, 181223, Note_on_c, 7, 54, 0
7, 181224, End_track
8, 0, Start_track
8, 0, Title_t, "Piano"
8, 0, Control_c, 0, 91, 55
8, 0, Control_c, 0, 10, 52
8, 0, Control_c, 0, 0, 0
8, 0, Control_c, 0, 32, 0
8, 0, Program_c, 0, 10
8, 0, Note_on_c, 0, 88, 71
8, 58, Note_on_c, 0, 88, 0
8, 64, Note_on_c, 0, 83, 66
8, 122, Note_on_c, 0, 83, 0
8, 128, Note_on_c, 0, 86, 80
8, 186, Note_on_c, 0, 86, 0
8, 192, Note_on_c, 0, 79, 62
8, 250, Note_on_c, 0, 79, 0
8, 256, Note_on_c, 0, 86, 89
8, 314, Note_on_c, 0, 86, 0
8, 320, Note_on_c, 0, 79, 64
8, 378, Note_on_c, 0, 79, 0
8, 384, Note_on_c, 0, 86, 88
8, 442, Note_on_c, 0, 86, 0
8, 448, Note_on_c, 0, 79, 65
8, 506, Note_on_c, 0, 79, 0
8, 512, Note_on_c, 0, 86, 90
8, 570, Note_on_c, 0, 86, 0
8, 576, Note_on_c, 0, 83, 70
8, 634, Note_on_c, 0, 83, 0
8, 640, Note_on_c, 0, 88, 85
8, 698, Note_on_c, 0, 88, 0
8, 704, Note_on_c, 0, 83, 65
8, 762, Note_on_c, 0, 83, 0
8, 768, Note_on_c, 0, 86, 85
8, 826, Note_on_c, 0, 86, 0
8, 832, Note_on_c, 0, 83, 71
8, 890, Note_on_c, 0, 83, 0
8, 896, Note_on_c, 0, 86, 80
8, 954, Note_on_c, 0, 86, 0
8, 960, Note_on_c, 0, 83, 69
8, 1018, Note_on_c, 0, 83, 0
8, 1024, Note_on_c, 0, 88, 89
8, 1082, Note_on_c, 0, 88, 0
8, 1088, Note_on_c, 0, 83, 67
8, 1146, Note_on_c, 0, 83, 0
8, 1152, Note_on_c, 0, 86, 82
8, 1210, Note_on_c, 0, 86, 0
8, 1216, Note_on_c, 0, 79, 61
8, 1274, Note_on_c, 0, 79, 0
8, 1280, Note_on_c, 0, 86, 88
8, 1338, Note_on_c, 0, 86, 0
8, 1344, Note_on_c, 0, 79, 65
8, 1402, Note_on_c, 0, 79, 0
8, 1408, Note_on_c, 0, 86, 86
8, 1466, Note_on_c, 0, 86, 0
8, 1472, Note_on_c, 0, 79, 63
8, 1530, Note_on_c, 0, 79, 0
8, 1536, Note_on_c, 0, 86, 91
8, 1594, Note_on_c, 0, 86, 0
8, 1600, Note_on_c, 0, 83, 69
8, 1658, Note_on_c, 0, 83, 0
8, 1664, Note_on_c, 0, 88, 84
8, 1722, Note_on_c, 0, 88, 0
8, 1728, Note_on_c, 0, 83, 67
8, 1786, Note_on_c, 0, 83, 0
8, 1792, Note_on_c, 0, 86, 83
8, 1850, Note_on_c, 0, 86, 0
8, 1856, Note_on_c, 0, 83, 70
8, 1914, Note_on_c, 0, 83, 0
8, 1920, Note_on_c, 0, 86, 83
8, 1978, Note_on_c, 0, 86, 0
8, 1984, Note_on_c, 0, 83, 72
8, 2042, Note_on_c, 0, 83, 0
8, 2048, Note_on_c, 0, 88, 88
8, 2106, Note_on_c, 0, 88, 0
8, 2112, Note_on_c, 0, 83, 66
8, 2170, Note_on_c, 0, 83, 0
8, 2176, Note_on_c, 0, 86, 82
8, 2234, Note_on_c, 0, 86, 0
8, 2240, Note_on_c, 0, 79, 62
8, 2298, Note_on_c, 0, 79, 0
8, 2304, Note_on_c, 0, 86, 88
8, 2362, Note_on_c, 0, 86, 0
8, 2368, Note_on_c, 0, 79, 62
8, 2426, Note_on_c, 0, 79, 0
8, 2432, Note_on_c, 0, 86, 89
8, 2490, Note_on_c, 0, 86, 0
8, 2496, Note_on_c, 0, 79, 65
8, 2554, Note_on_c, 0, 79, 0
8, 2560, Note_on_c, 0, 86, 89
8, 2618, Note_on_c, 0, 86, 0
8, 2624, Note_on_c, 0, 83, 71
8, 2682, Note_on_c, 0, 83, 0
8, 2688, Note_on_c, 0, 88, 85
8, 2746, Note_on_c, 0, 88, 0
8, 2752, Note_on_c, 0, 83, 69
8, 2810, Note_on_c, 0, 83, 0
8, 2816, Note_on_c, 0, 86, 84
8, 2874, Note_on_c, 0, 86, 0
8, 2880, Note_on_c, 0, 83, 70
8, 2938, Note_on_c, 0, 83, 0
8, 2944, Note_on_c, 0, 86, 82
8, 3002, Note_on_c, 0, 86, 0
8, 3008, Note_on_c, 0, 83, 70
8, 3066, Note_on_c, 0, 83, 0
8, 3072, Note_on_c, 0, 88, 86
8, 3130, Note_on_c, 0, 88, 0
8, 3136, Note_on_c, 0, 83, 69
8, 3194, Note_on_c, 0, 83, 0
8, 3200, Note_on_c, 0, 86, 82
8, 3258, Note_on_c, 0, 86, 0
8, 3264, Note_on_c, 0, 79, 63
8, 3322, Note_on_c, 0, 79, 0
8, 3328, Note_on_c, 0, 86, 91
8, 3386, Note_on_c, 0, 86, 0
8, 3392, Note_on_c, 0, 79, 64
8, 3450, Note_on_c, 0, 79, 0
8, 3456, Note_on_c, 0, 86, 86
8, 3514, Note_on_c, 0, 86, 0
8, 3520, Note_on_c, 0, 79, 63
8, 3578, Note_on_c, 0, 79, 0
8, 3584, Note_on_c, 0, 86, 90
8, 3642, Note_on_c, 0, 86, 0
8, 3648, Note_on_c, 0, 83, 70
8, 3706, Note_on_c, 0, 83, 0
8, 3712, Note_on_c, 0, 88, 86
8, 3770, Note_on_c, 0, 88, 0
8, 3776, Note_on_c, 0, 83, 65
8, 3834, Note_on_c, 0, 83, 0
8, 3840, Note_on_c, 0, 86, 83
8, 3898, Note_on_c, 0, 86, 0
8, 3904, Note_on_c, 0, 83, 70
8, 3962, Note_on_c, 0, 83, 0
8, 3968, Note_on_c, 0, 86, 82
8, 4026, Note_on_c, 0, 86, 0
8, 4032, Note_on_c, 0, 83, 70
8, 4090, Note_on_c, 0, 83, 0
8, 4096, Note_on_c, 0, 88, 87
8, 4154, Note_on_c, 0, 88, 0
8, 4160, Note_on_c, 0, 83, 68
8, 4218, Note_on_c, 0, 83, 0
8, 4224, Note_on_c, 0, 86, 83
8, 4282, Note_on_c, 0, 86, 0
8, 4288, Note_on_c, 0, 79, 64
8, 4346, Note_on_c, 0, 79, 0
8, 4352, Note_on_c, 0, 86, 90
8, 4410, Note_on_c, 0, 86, 0
8, 4416, Note_on_c, 0, 79, 62
8, 4474, Note_on_c, 0, 79, 0
8, 4480, Note_on_c, 0, 83, 83
8, 4538, Note_on_c, 0, 83, 0
8, 4544, Note_on_c, 0, 79, 70
8, 4602, Note_on_c, 0, 79, 0
8, 4608, Note_on_c, 0, 86, 90
8, 4666, Note_on_c, 0, 86, 0
8, 4672, Note_on_c, 0, 83, 69
8, 4730, Note_on_c, 0, 83, 0
8, 4736, Note_on_c, 0, 88, 85
8, 4794, Note_on_c, 0, 88, 0
8, 4800, Note_on_c, 0, 84, 68
8, 4858, Note_on_c, 0, 84, 0
8, 4864, Note_on_c, 0, 86, 80
8, 4922, Note_on_c, 0, 86, 0
8, 4928, Note_on_c, 0, 83, 69
8, 4986, Note_on_c, 0, 83, 0
8, 4992, Note_on_c, 0, 86, 79
8, 5050, Note_on_c, 0, 86, 0
8, 5056, Note_on_c, 0, 83, 70
8, 5114, Note_on_c, 0, 83, 0
8, 5120, Note_on_c, 0, 88, 89
8, 5178, Note_on_c, 0, 88, 0
8, 5184, Note_on_c, 0, 83, 65
8, 5242, Note_on_c, 0, 83, 0
8, 5248, Note_on_c, 0, 86, 80
8, 5306, Note_on_c, 0, 86, 0
8, 5312, Note_on_c, 0, 79, 61
8, 5370, Note_on_c, 0, 79, 0
8, 5376, Note_on_c, 0, 86, 89
8, 5434, Note_on_c, 0, 86, 0
8, 5440, Note_on_c, 0, 79, 63
8, 5498, Note_on_c, 0, 79, 0
8, 5504, Note_on_c, 0, 83, 81
8, 5562, Note_on_c, 0, 83, 0
8, 5568, Note_on_c, 0, 79, 70
8, 5626, Note_on_c, 0, 79, 0
8, 5632, Note_on_c, 0, 86, 92
8, 5690, Note_on_c, 0, 86, 0
8, 5696, Note_on_c, 0, 83, 71
8, 5754, Note_on_c, 0, 83, 0
8, 5760, Note_on_c, 0, 88, 86
8, 5818, Note_on_c, 0, 88, 0
8, 5824, Note_on_c, 0, 84, 69
8, 5882, Note_on_c, 0, 84, 0
8, 5888, Note_on_c, 0, 86, 82
8, 5946, Note_on_c, 0, 86, 0
8, 5952, Note_on_c, 0, 83, 71
8, 6010, Note_on_c, 0, 83, 0
8, 6016, Note_on_c, 0, 86, 82
8, 6074, Note_on_c, 0, 86, 0
8, 6080, Note_on_c, 0, 83, 68
8, 6138, Note_on_c, 0, 83, 0
8, 6144, Note_on_c, 0, 88, 86
8, 6202, Note_on_c, 0, 88, 0
8, 6208, Note_on_c, 0, 83, 68
8, 6266, Note_on_c, 0, 83, 0
8, 6272, Note_on_c, 0, 86, 79
8, 6330, Note_on_c, 0, 86, 0
8, 6336, Note_on_c, 0, 79, 62
8, 6394, Note_on_c, 0, 79, 0
8, 6400, Note_on_c, 0, 86, 90
8, 6458, Note_on_c, 0, 86, 0
8, 6464, Note_on_c, 0, 79, 65
8, 6522, Note_on_c, 0, 79, 0
8, 6528, Note_on_c, 0, 83, 81
8, 6586, Note_on_c, 0, 83, 0
8, 6592, Note_on_c, 0, 79, 68
8, 6650, Note_on_c, 0, 79, 0
8, 6656, Note_on_c, 0, 86, 90
8, 6714, Note_on_c, 0, 86, 0
8, 6720, Note_on_c, 0, 83, 70
8, 6778, Note_on_c, 0, 83, 0
8, 6784, Note_on_c, 0, 88, 87
8, 6842, Note_on_c, 0, 88, 0
8, 6848, Note_on_c, 0, 84, 71
8, 6906, Note_on_c, 0, 84, 0
8, 6912, Note_on_c, 0, 86, 82
8, 6970, Note_on_c, 0, 86, 0
8, 6976, Note_on_c, 0, 83, 70
8, 7034, Note_on_c, 0, 83, 0
8, 7040, Note_on_c, 0, 86, 80
8, 7098, Note_on_c, 0, 86, 0
8, 7104, Note_on_c, 0, 83, 68
8, 7162, Note_on_c, 0, 83, 0
8, 7168, Note_on_c, 0, 88, 90
8, 7226, Note_on_c, 0, 88, 0
8, 7232, Note_on_c, 0, 83, 65
8, 7290, Note_on_c, 0, 83, 0
8, 7296, Note_on_c, 0, 86, 79
8, 7354, Note_on_c, 0, 86, 0
8, 7360, Note_on_c, 0, 79, 61
8, 7418, Note_on_c, 0, 79, 0
8, 7424, Note_on_c, 0, 86, 91
8, 7482, Note_on_c, 0, 86, 0
8, 7488, Note_on_c, 0, 79, 65
8, 7546, Note_on_c, 0, 79, 0
8, 7552, Note_on_c, 0, 83, 81
8, 7610, Note_on_c, 0, 83, 0
8, 7616, Note_on_c, 0, 79, 68
8, 7674, Note_on_c, 0, 79, 0
8, 7680, Note_on_c, 0, 86, 92
8, 7738, Note_on_c, 0, 86, 0
8, 7744, Note_on_c, 0, 83, 69
8, 7802, Note_on_c, 0, 83, 0
8, 7808, Note_on_c, 0, 88, 86
8, 7866, Note_on_c, 0, 88, 0
8, 7872, Note_on_c, 0, 84, 70
8, 7930, Note_on_c, 0, 84, 0
8, 7936, Note_on_c, 0, 86, 81
8, 7994, Note_on_c, 0, 86, 0
8, 8000, Note_on_c, 0, 83, 70
8, 8058, Note_on_c, 0, 83, 0
8, 8064, Note_on_c, 0, 86, 79
8, 8122, Note_on_c, 0, 86, 0
8, 8128, Note_on_c, 0, 83, 71
8, 8186, Note_on_c, 0, 83, 0
8, 8192, Note_on_c, 0, 88, 89
8, 8250, Note_on_c, 0, 88, 0
8, 8256, Note_on_c, 0, 83, 66
8, 8314, Note_on_c, 0, 83, 0
8, 8320, Note_on_c, 0, 86, 79
8, 8378, Note_on_c, 0, 86, 0
8, 8384, Note_on_c, 0, 79, 61
8, 8442, Note_on_c, 0, 79, 0
8, 8448, Note_on_c, 0, 86, 91
8, 8506, Note_on_c, 0, 86, 0
8, 8512, Note_on_c, 0, 79, 65
8, 8570, Note_on_c, 0, 79, 0
8, 8576, Note_on_c, 0, 83, 81
8, 8634, Note_on_c, 0, 83, 0
8, 8640, Note_on_c, 0, 79, 67
8, 8698, Note_on_c, 0, 79, 0
8, 8704, Note_on_c, 0, 86, 90
8, 8762, Note_on_c, 0, 86, 0
8, 8768, Note_on_c, 0, 83, 69
8, 8826, Note_on_c, 0, 83, 0
8, 8832, Note_on_c, 0, 88, 85
8, 8890, Note_on_c, 0, 88, 0
8, 8896, Note_on_c, 0, 84, 68
8, 8954, Note_on_c, 0, 84, 0
8, 8960, Note_on_c, 0, 86, 82
8, 9018, Note_on_c, 0, 86, 0
8, 9024, Note_on_c, 0, 83, 70
8, 9082, Note_on_c, 0, 83, 0
8, 9088, Note_on_c, 0, 86, 79
8, 9146, Note_on_c, 0, 86, 0
8, 9152, Note_on_c, 0, 83, 68
8, 9210, Note_on_c, 0, 83, 0
8, 9216, Note_on_c, 0, 88, 87
8, 9274, Note_on_c, 0, 88, 0
8, 9280, Note_on_c, 0, 83, 65
8, 9338, Note_on_c, 0, 83, 0
8, 9344, Note_on_c, 0, 86, 81
8, 9402, Note_on_c, 0, 86, 0
8, 9408, Note_on_c, 0, 79, 63
8, 9466, Note_on_c, 0, 79, 0
8, 9472, Note_on_c, 0, 86, 89
8, 9530, Note_on_c, 0, 86, 0
8, 9536, Note_on_c, 0, 79, 64
8, 9594, Note_on_c, 0, 79, 0
8, 9600, Note_on_c, 0, 83, 82
8, 9658, Note_on_c, 0, 83, 0
8, 9664, Note_on_c, 0, 79, 69
8, 9722, Note_on_c, 0, 79, 0
8, 9728, Note_on_c, 0, 86, 91
8, 9786, Note_on_c, 0, 86, 0
8, 9792, Note_on_c, 0, 83, 71
8, 9850, Note_on_c, 0, 83, 0
8, 9856, Note_on_c, 0, 88, 84
8, 9914, Note_on_c, 0, 88, 0
8, 9920, Note_on_c, 0, 84, 67
8, 9978, Note_on_c, 0, 84, 0
8, 9984, Note_on_c, 0, 86, 80
8, 10042, Note_on_c, 0, 86, 0
8, 10048, Note_on_c, 0, 83, 69
8, 10106, Note_on_c, 0, 83, 0
8, 10112, Note_on_c, 0, 86, 82
8, 10170, Note_on_c, 0, 86, 0
8, 10176, Note_on_c, 0, 83, 69
8, 10234, Note_on_c, 0, 83, 0
8, 10240, Note_on_c, 0, 88, 87
8, 10298, Note_on_c, 0, 88, 0
8, 10304, Note_on_c, 0, 83, 68
8, 10362, Note_on_c, 0, 83, 0
8, 10368, Note_on_c, 0, 86, 79
8, 10426, Note_on_c, 0, 86, 0
8, 10432, Note_on_c, 0, 79, 60
8, 10490, Note_on_c, 0, 79, 0
8, 10496, Note_on_c, 0, 86, 91
8, 10554, Note_on_c, 0, 86, 0
8, 10560, Note_on_c, 0, 79, 63
8, 10618, Note_on_c, 0, 79, 0
8, 10624, Note_on_c, 0, 83, 83
8, 10682, Note_on_c, 0, 83, 0
8, 10688, Note_on_c, 0, 79, 67
8, 10746, Note_on_c, 0, 79, 0
8, 10752, Note_on_c, 0, 86, 91
8, 10810, Note_on_c, 0, 86, 0
8, 10816, Note_on_c, 0, 83, 71
8, 10874, Note_on_c, 0, 83, 0
8, 10880, Note_on_c, 0, 88, 84
8, 10938, Note_on_c, 0, 88, 0
8, 10944, Note_on_c, 0, 84, 70
8, 11002, Note_on_c, 0, 84, 0
8, 11008, Note_on_c, 0, 86, 81
8, 11066, Note_on_c, 0, 86, 0
8, 11072, Note_on_c, 0, 83, 69
8, 11130, Note_on_c, 0, 83, 0
8, 11136, Note_on_c, 0, 86, 82
8, 11194, Note_on_c, 0, 86, 0
8, 11200, Note_on_c, 0, 83, 71
8, 11258, Note_on_c, 0, 83, 0
8, 11264, Note_on_c, 0, 88, 87
8, 11322, Note_on_c, 0, 88, 0
8, 11328, Note_on_c, 0, 83, 68
8, 11386, Note_on_c, 0, 83, 0
8, 11392, Note_on_c, 0, 86, 80
8, 11450, Note_on_c, 0, 86, 0
8, 11456, Note_on_c, 0, 79, 61
8, 11514, Note_on_c, 0, 79, 0
8, 11520, Note_on_c, 0, 86, 92
8, 11578, Note_on_c, 0, 86, 0
8, 11584, Note_on_c, 0, 79, 62
8, 11642, Note_on_c, 0, 79, 0
8, 11648, Note_on_c, 0, 83, 83
8, 11706, Note_on_c, 0, 83, 0
8, 11712, Note_on_c, 0, 79, 70
8, 11770, Note_on_c, 0, 79, 0
8, 11776, Note_on_c, 0, 86, 91
8, 11834, Note_on_c, 0, 86, 0
8, 11840, Note_on_c, 0, 83, 70
8, 11898, Note_on_c, 0, 83, 0
8, 11904, Note_on_c, 0, 88, 85
8, 11962, Note_on_c, 0, 88, 0
8, 11968, Note_on_c, 0, 84, 68
8, 12026, Note_on_c, 0, 84, 0
8, 12032, Note_on_c, 0, 86, 80
8, 12090, Note_on_c, 0, 86, 0
8, 12096, Note_on_c, 0, 83, 69
8, 12154, Note_on_c, 0, 83, 0
8, 12160, Note_on_c, 0, 86, 82
8, 12218, Note_on_c, 0, 86, 0
8, 12224, Note_on_c, 0, 83, 68
8, 12282, Note_on_c, 0, 83, 0
8, 34880, Program_c, 0, 1
8, 34880, Note_on_c, 0, 83, 69
8, 34938, Note_on_c, 0, 83, 0
8, 34944, Note_on_c, 0, 83, 76
8, 35002, Note_on_c, 0, 83, 0
8, 35008, Note_on_c, 0, 85, 82
8, 35066, Note_on_c, 0, 85, 0
8, 35072, Note_on_c, 0, 86, 82
8, 35130, Note_on_c, 0, 86, 0
8, 35136, Note_on_c, 0, 79, 61
8, 35194, Note_on_c, 0, 79, 0
8, 35200, Note_on_c, 0, 79, 72
8, 35258, Note_on_c, 0, 79, 0
8, 35264, Note_on_c, 0, 79, 78
8, 35322, Note_on_c, 0, 79, 0
8, 35392, Note_on_c, 0, 83, 69
8, 35450, Note_on_c, 0, 83, 0
8, 35456, Note_on_c, 0, 83, 72
8, 35514, Note_on_c, 0, 83, 0
8, 35520, Note_on_c, 0, 85, 80
8, 35578, Note_on_c, 0, 85, 0
8, 35584, Note_on_c, 0, 86, 82
8, 35642, Note_on_c, 0, 86, 0
8, 35648, Note_on_c, 0, 79, 63
8, 35706, Note_on_c, 0, 79, 0
8, 35712, Note_on_c, 0, 79, 75
8, 35770, Note_on_c, 0, 79, 0
8, 35776, Note_on_c, 0, 79, 77
8, 35834, Note_on_c, 0, 79, 0
8, 35904, Note_on_c, 0, 83, 68
8, 35962, Note_on_c, 0, 83, 0
8, 35968, Note_on_c, 0, 83, 75
8, 36026, Note_on_c, 0, 83, 0
8, 36032, Note_on_c, 0, 85, 80
8, 36090, Note_on_c, 0, 85, 0
8, 36096, Note_on_c, 0, 86, 82
8, 36154, Note_on_c, 0, 86, 0
8, 36160, Note_on_c, 0, 79, 62
8, 36218, Note_on_c, 0, 79, 0
8, 36224, Note_on_c, 0, 79, 72
8, 36282, Note_on_c, 0, 79, 0
8, 36288, Note_on_c, 0, 79, 76
8, 36346, Note_on_c, 0, 79, 0
8, 36416, Note_on_c, 0, 83, 69
8, 36474, Note_on_c, 0, 83, 0
8, 36480, Note_on_c, 0, 83, 72
8, 36538, Note_on_c, 0, 83, 0
8, 36544, Note_on_c, 0, 85, 81
8, 36602, Note_on_c, 0, 85, 0
8, 36608, Note_on_c, 0, 86, 83
8, 36666, Note_on_c, 0, 86, 0
8, 36672, Note_on_c, 0, 79, 63
8, 36730, Note_on_c, 0, 79, 0
8, 36736, Note_on_c, 0, 79, 72
8, 36794, Note_on_c, 0, 79, 0
8, 36800, Note_on_c, 0, 79, 75
8, 36858, Note_on_c, 0, 79, 0
8, 36864, Program_c, 0, 11
8, 36864, Note_on_c, 0, 88, 95
8, 36922, Note_on_c, 0, 88, 0
8, 36928, Note_on_c, 0, 83, 68
8, 36986, Note_on_c, 0, 83, 0
8, 36992, Note_on_c, 0, 86, 80
8, 37050, Note_on_c, 0, 86, 0
8, 37056, Note_on_c, 0, 79, 63
8, 37114, Note_on_c, 0, 79, 0
8, 37120, Note_on_c, 0, 86, 88
8, 37178, Note_on_c, 0, 86, 0
8, 37184, Note_on_c, 0, 79, 63
8, 37242, Note_on_c, 0, 79, 0
8, 37248, Note_on_c, 0, 86, 88
8, 37306, Note_on_c, 0, 86, 0
8, 37312, Note_on_c, 0, 79, 63
8, 37370, Note_on_c, 0, 79, 0
8, 37376, Note_on_c, 0, 86, 89
8, 37434, Note_on_c, 0, 86, 0
8, 37440, Note_on_c, 0, 83, 71
8, 37498, Note_on_c, 0, 83, 0
8, 37504, Note_on_c, 0, 88, 86
8, 37562, Note_on_c, 0, 88, 0
8, 37568, Note_on_c, 0, 83, 66
8, 37626, Note_on_c, 0, 83, 0
8, 37632, Note_on_c, 0, 86, 84
8, 37690, Note_on_c, 0, 86, 0
8, 37696, Note_on_c, 0, 83, 69
8, 37754, Note_on_c, 0, 83, 0
8, 37760, Note_on_c, 0, 86, 80
8, 37818, Note_on_c, 0, 86, 0
8, 37824, Note_on_c, 0, 83, 68
8, 37882, Note_on_c, 0, 83, 0
8, 37888, Note_on_c, 0, 88, 87
8, 37946, Note_on_c, 0, 88, 0
8, 37952, Note_on_c, 0, 83, 65
8, 38010, Note_on_c, 0, 83, 0
8, 38016, Note_on_c, 0, 86, 82
8, 38074, Note_on_c, 0, 86, 0
8, 38080, Note_on_c, 0, 79, 62
8, 38138, Note_on_c, 0, 79, 0
8, 38144, Note_on_c, 0, 86, 88
8, 38202, Note_on_c, 0, 86, 0
8, 38208, Note_on_c, 0, 79, 65
8, 38266, Note_on_c, 0, 79, 0
8, 38272, Note_on_c, 0, 86, 86
8, 38330, Note_on_c, 0, 86, 0
8, 38336, Note_on_c, 0, 79, 65
8, 38394, Note_on_c, 0, 79, 0
8, 38400, Note_on_c, 0, 86, 88
8, 38458, Note_on_c, 0, 86, 0
8, 38464, Note_on_c, 0, 83, 70
8, 38522, Note_on_c, 0, 83, 0
8, 38528, Note_on_c, 0, 88, 85
8, 38586, Note_on_c, 0, 88, 0
8, 38592, Note_on_c, 0, 83, 67
8, 38650, Note_on_c, 0, 83, 0
8, 38656, Note_on_c, 0, 86, 86
8, 38714, Note_on_c, 0, 86, 0
8, 38720, Note_on_c, 0, 83, 71
8, 38778, Note_on_c, 0, 83, 0
8, 38784, Note_on_c, 0, 86, 83
8, 38842, Note_on_c, 0, 86, 0
8, 38848, Note_on_c, 0, 83, 69
8, 38906, Note_on_c, 0, 83, 0
8, 38976, Note_on_c, 0, 83, 66
8, 39034, Note_on_c, 0, 83, 0
8, 39040, Note_on_c, 0, 84, 80
8, 39098, Note_on_c, 0, 84, 0
8, 39104, Note_on_c, 0, 85, 81
8, 39162, Note_on_c, 0, 85, 0
8, 39168, Note_on_c, 0, 86, 83
8, 39226, Note_on_c, 0, 86, 0
8, 39232, Note_on_c, 0, 79, 61
8, 39290, Note_on_c, 0, 79, 0
8, 39296, Note_on_c, 0, 79, 71
8, 39354, Note_on_c, 0, 79, 0
8, 39360, Note_on_c, 0, 79, 77
8, 39418, Note_on_c, 0, 79, 0
8, 39488, Note_on_c, 0, 83, 69
8, 39546, Note_on_c, 0, 83, 0
8, 39552, Note_on_c, 0, 84, 79
8, 39610, Note_on_c, 0, 84, 0
8, 39616, Note_on_c, 0, 85, 79
8, 39674, Note_on_c, 0, 85, 0
8, 39680, Note_on_c, 0, 86, 85
8, 39738, Note_on_c, 0, 86, 0
8, 39744, Note_on_c, 0, 79, 61
8, 39802, Note_on_c, 0, 79, 0
8, 39808, Note_on_c, 0, 79, 72
8, 39866, Note_on_c, 0, 79, 0
8, 39872, Note_on_c, 0, 79, 76
8, 39930, Note_on_c, 0, 79, 0
8, 40000, Note_on_c, 0, 83, 69
8, 40058, Note_on_c, 0, 83, 0
8, 40064, Note_on_c, 0, 84, 80
8, 40122, Note_on_c, 0, 84, 0
8, 40128, Note_on_c, 0, 85, 79
8, 40186, Note_on_c, 0, 85, 0
8, 40192, Note_on_c, 0, 86, 81
8, 40250, Note_on_c, 0, 86, 0
8, 40256, Note_on_c, 0, 79, 60
8, 40314, Note_on_c, 0, 79, 0
8, 40320, Note_on_c, 0, 79, 73
8, 40378, Note_on_c, 0, 79, 0
8, 40384, Note_on_c, 0, 79, 74
8, 40442, Note_on_c, 0, 79, 0
8, 40512, Note_on_c, 0, 83, 66
8, 40570, Note_on_c, 0, 83, 0
8, 40576, Note_on_c, 0, 84, 78
8, 40634, Note_on_c, 0, 84, 0
8, 40640, Note_on_c, 0, 85, 78
8, 40698, Note_on_c, 0, 85, 0
8, 40704, Note_on_c, 0, 86, 84
8, 40762, Note_on_c, 0, 86, 0
8, 40768, Note_on_c, 0, 79, 63
8, 40826, Note_on_c, 0, 79, 0
8, 40832, Note_on_c, 0, 79, 75
8, 40890, Note_on_c, 0, 79, 0
8, 40896, Note_on_c, 0, 79, 78
8, 40954, Note_on_c, 0, 79, 0
8, 116288, Program_c, 0, 1
8, 116288, Note_on_c, 0, 83, 66
8, 116346, Note_on_c, 0, 83, 0
8, 116352, Note_on_c, 0, 83, 74
8, 116410, Note_on_c, 0, 83, 0
8, 116416, Note_on_c, 0, 85, 79
8, 116474, Note_on_c, 0, 85, 0
8, 116480, Note_on_c, 0, 86, 82
8, 116538, Note_on_c, 0, 86, 0
8, 116544, Note_on_c, 0, 79, 64
8, 116602, Note_on_c, 0, 79, 0
8, 116608, Note_on_c, 0, 79, 73
8, 116666, Note_on_c, 0, 79, 0
8, 116672, Note_on_c, 0, 79, 78
8, 116730, Note_on_c, 0, 79, 0
8, 116800, Note_on_c, 0, 83, 68
8, 116858, Note_on_c, 0, 83, 0
8, 116864, Note_on_c, 0, 83, 73
8, 116922, Note_on_c, 0, 83, 0
8, 116928, Note_on_c, 0, 85, 79
8, 116986, Note_on_c, 0, 85, 0
8, 116992, Note_on_c, 0, 86, 83
8, 117050, Note_on_c, 0, 86, 0
8, 117056, Note_on_c, 0, 79, 61
8, 117114, Note_on_c, 0, 79, 0
8, 117120, Note_on_c, 0, 79, 73
8, 117178, Note_on_c, 0, 79, 0
8, 117184, Note_on_c, 0, 79, 78
8, 117242, Note_on_c, 0, 79, 0
8, 117312, Note_on_c, 0, 83, 69
8, 117370, Note_on_c, 0, 83, 0
8, 117376, Note_on_c, 0, 83, 74
8, 117434, Note_on_c, 0, 83, 0
8, 117440, Note_on_c, 0, 85, 78
8, 117498, Note_on_c, 0, 85, 0
8, 117504, Note_on_c, 0, 86, 82
8, 117562, Note_on_c, 0, 86, 0
8, 117568, Note_on_c, 0, 79, 61
8, 117626, Note_on_c, 0, 79, 0
8, 117632, Note_on_c, 0, 79, 72
8, 117690, Note_on_c, 0, 79, 0
8, 117696, Note_on_c, 0, 79, 75
8, 117754, Note_on_c, 0, 79, 0
8, 117824, Note_on_c, 0, 83, 69
8, 117882, Note_on_c, 0, 83, 0
8, 117888, Note_on_c, 0, 83, 72
8, 117946, Note_on_c, 0, 83, 0
8, 117952, Note_on_c, 0, 85, 79
8, 118010, Note_on_c, 0, 85, 0
8, 118016, Note_on_c, 0, 86, 83
8, 118074, Note_on_c, 0, 86, 0
8, 118080, Note_on_c, 0, 79, 61
8, 118138, Note_on_c, 0, 79, 0
8, 118144, Note_on_c, 0, 79, 71
8, 118202, Note_on_c, 0, 79, 0
8, 118208, Note_on_c, 0, 79, 75
8, 118266, Note_on_c, 0, 79, 0
8, 118272, Program_c, 0, 11
8, 118272, Note_on_c, 0, 88, 94
8, 118330, Note_on_c, 0, 88, 0
8, 118336, Note_on_c, 0, 83, 67
8, 118394, Note_on_c, 0, 83, 0
8, 118400, Note_on_c, 0, 86, 81
8, 118458, Note_on_c, 0, 86, 0
8, 118464, Note_on_c, 0, 79, 61
8, 118522, Note_on_c, 0, 79, 0
8, 118528, Note_on_c, 0, 86, 92
8, 118586, Note_on_c, 0, 86, 0
8, 118592, Note_on_c, 0, 79, 65
8, 118650, Note_on_c, 0, 79, 0
8, 118656, Note_on_c, 0, 86, 86
8, 118714, Note_on_c, 0, 86, 0
8, 118720, Note_on_c, 0, 79, 66
8, 118778, Note_on_c, 0, 79, 0
8, 118784, Note_on_c, 0, 86, 88
8, 118842, Note_on_c, 0, 86, 0
8, 118848, Note_on_c, 0, 83, 71
8, 118906, Note_on_c, 0, 83, 0
8, 118912, Note_on_c, 0, 88, 84
8, 118970, Note_on_c, 0, 88, 0
8, 118976, Note_on_c, 0, 83, 66
8, 119034, Note_on_c, 0, 83, 0
8, 119040, Note_on_c, 0, 86, 83
8, 119098, Note_on_c, 0, 86, 0
8, 119104, Note_on_c, 0, 83, 70
8, 119162, Note_on_c, 0, 83, 0
8, 119168, Note_on_c, 0, 86, 79
8, 119226, Note_on_c, 0, 86, 0
8, 119232, Note_on_c, 0, 83, 72
8, 119290, Note_on_c, 0, 83, 0
8, 119296, Note_on_c, 0, 88, 86
8, 119354, Note_on_c, 0, 88, 0
8, 119360, Note_on_c, 0, 83, 68
8, 119418, Note_on_c, 0, 83, 0
8, 119424, Note_on_c, 0, 86, 80
8, 119482, Note_on_c, 0, 86, 0
8, 119488, Note_on_c, 0, 79, 60
8, 119546, Note_on_c, 0, 79, 0
8, 119552, Note_on_c, 0, 86, 88
8, 119610, Note_on_c, 0, 86, 0
8, 119616, Note_on_c, 0, 79, 65
8, 119674, Note_on_c, 0, 79, 0
8, 119680, Note_on_c, 0, 86, 89
8, 119738, Note_on_c, 0, 86, 0
8, 119744, Note_on_c, 0, 79, 65
8, 119802, Note_on_c, 0, 79, 0
8, 119808, Note_on_c, 0, 86, 92
8, 119866, Note_on_c, 0, 86, 0
8, 119872, Note_on_c, 0, 83, 69
8, 119930, Note_on_c, 0, 83, 0
8, 119936, Note_on_c, 0, 88, 87
8, 119994, Note_on_c, 0, 88, 0
8, 120000, Note_on_c, 0, 83, 67
8, 120058, Note_on_c, 0, 83, 0
8, 120064, Note_on_c, 0, 86, 83
8, 120122, Note_on_c, 0, 86, 0
8, 120128, Note_on_c, 0, 83, 69
8, 120186, Note_on_c, 0, 83, 0
8, 120192, Note_on_c, 0, 86, 80
8, 120250, Note_on_c, 0, 86, 0
8, 120256, Note_on_c, 0, 83, 71
8, 120314, Note_on_c, 0, 83, 0
8, 120384, Note_on_c, 0, 83, 69
8, 120442, Note_on_c, 0, 83, 0
8, 120448, Note_on_c, 0, 84, 79
8, 120506, Note_on_c, 0, 84, 0
8, 120512, Note_on_c, 0, 85, 81
8, 120570, Note_on_c, 0, 85, 0
8, 120576, Note_on_c, 0, 86, 82
8, 120634, Note_on_c, 0, 86, 0
8, 120640, Note_on_c, 0, 79, 61
8, 120698, Note_on_c, 0, 79, 0
8, 120704, Note_on_c, 0, 79, 74
8, 120762, Note_on_c, 0, 79, 0
8, 120768, Note_on_c, 0, 79, 78
8, 120826, Note_on_c, 0, 79, 0
8, 120896, Note_on_c, 0, 83, 69
8, 120954, Note_on_c, 0, 83, 0
8, 120960, Note_on_c, 0, 84, 78
8, 121018, Note_on_c, 0, 84, 0
8, 121024, Note_on_c, 0, 85, 80
8, 121082, Note_on_c, 0, 85, 0
8, 121088, Note_on_c, 0, 86, 84
8, 121146, Note_on_c, 0, 86, 0
8, 121152, Note_on_c, 0, 79, 61
8, 121210, Note_on_c, 0, 79, 0
8, 121216, Note_on_c, 0, 79, 71
8, 121274, Note_on_c, 0, 79, 0
8, 121280, Note_on_c, 0, 79, 76
8, 121338, Note_on_c, 0, 79, 0
8, 121408, Note_on_c, 0, 83, 69
8, 121466, Note_on_c, 0, 83, 0
8, 121472, Note_on_c, 0, 84, 79
8, 121530, Note_on_c, 0, 84, 0
8, 121536, Note_on_c, 0, 85, 77
8, 121594, Note_on_c, 0, 85, 0
8, 121600, Note_on_c, 0, 86, 82
8, 121658, Note_on_c, 0, 86, 0
8, 121664, Note_on_c, 0, 79, 61
8, 121722, Note_on_c, 0, 79, 0
8, 121728, Note_on_c, 0, 79, 75
8, 121786, Note_on_c, 0, 79, 0
8, 121792, Note_on_c, 0, 79, 75
8, 121850, Note_on_c, 0, 79, 0
8, 121920, Note_on_c, 0, 83, 69
8, 121978, Note_on_c, 0, 83, 0
8, 121984, Note_on_c, 0, 84, 79
8, 122042, Note_on_c, 0, 84, 0
8, 122048, Note_on_c, 0, 85, 80
8, 122106, Note_on_c, 0, 85, 0
8, 122112, Note_on_c, 0, 86, 82
8, 122170, Note_on_c, 0, 86, 0
8, 122176, Note_on_c, 0, 79, 61
8, 122234, Note_on_c, 0, 79, 0
8, 122240, Note_on_c, 0, 79, 73
8, 122298, Note_on_c, 0, 79, 0
8, 122304, Note_on_c, 0, 79, 76
8, 122362, Note_on_c, 0, 79, 0
8, 122363, End_track
9, 0, Start_track
9, 0, Title_t, "Piano"
9, 0, Control_c, 1, 91, 55
9, 0, Control_c, 1, 10, 52
9, 384, Control_c, 1, 0, 0
9, 384, Control_c, 1, 32, 0
9, 384, Program_c, 1, 10
9, 384, Note_on_c, 1, 78, 56
9, 442, Note_on_c, 1, 78, 0
9, 448, Note_on_c, 1, 81, 65
9, 506, Note_on_c, 1, 81, 0
9, 512, Note_on_c, 1, 83, 71
9, 570, Note_on_c, 1, 83, 0
9, 576, Note_on_c, 1, 79, 54
9, 634, Note_on_c, 1, 79, 0
9, 640, Note_on_c, 1, 83, 68
9, 698, Note_on_c, 1, 83, 0
9, 704, Note_on_c, 1, 86, 68
9, 762, Note_on_c, 1, 86, 0
9, 768, Note_on_c, 1, 79, 56
9, 826, Note_on_c, 1, 79, 0
9, 832, Note_on_c, 1, 78, 56
9, 890, Note_on_c, 1, 78, 0
9, 896, Note_on_c, 1, 79, 64
9, 954, Note_on_c, 1, 79, 0
9, 960, Note_on_c, 1, 78, 62
9, 1018, Note_on_c, 1, 78, 0
9, 1024, Note_on_c, 1, 81, 69
9, 1082, Note_on_c, 1, 81, 0
9, 1088, Note_on_c, 1, 79, 58
9, 1146, Note_on_c, 1, 79, 0
9, 1152, Note_on_c, 1, 83, 67
9, 1210, Note_on_c, 1, 83, 0
9, 1216, Note_on_c, 1, 81, 58
9, 1274, Note_on_c, 1, 81, 0
9, 1280, Note_on_c, 1, 84, 71
9, 1338, Note_on_c, 1, 84, 0
9, 1344, Note_on_c, 1, 79, 54
9, 1402, Note_on_c, 1, 79, 0
9, 1408, Note_on_c, 1, 83, 69
9, 1466, Note_on_c, 1, 83, 0
9, 1472, Note_on_c, 1, 86, 69
9, 1530, Note_on_c, 1, 86, 0
9, 1536, Note_on_c, 1, 81, 57
9, 1594, Note_on_c, 1, 81, 0
9, 1600, Note_on_c, 1, 83, 66
9, 1658, Note_on_c, 1, 83, 0
9, 1664, Note_on_c, 1, 81, 59
9, 1722, Note_on_c, 1, 81, 0
9, 1728, Note_on_c, 1, 78, 59
9, 1786, Note_on_c, 1, 78, 0
9, 1792, Note_on_c, 1, 79, 68
9, 1850, Note_on_c, 1, 79, 0
9, 1856, Note_on_c, 1, 79, 61
9, 1914, Note_on_c, 1, 79, 0
9, 1920, Note_on_c, 1, 78, 59
9, 1978, Note_on_c, 1, 78, 0
9, 1984, Note_on_c, 1, 76, 58
9, 2042, Note_on_c, 1, 76, 0
9, 2048, Note_on_c, 1, 81, 75
9, 2106, Note_on_c, 1, 81, 0
9, 2112, Note_on_c, 1, 79, 59
9, 2170, Note_on_c, 1, 79, 0
9, 2176, Note_on_c, 1, 83, 69
9, 2234, Note_on_c, 1, 83, 0
9, 2240, Note_on_c, 1, 81, 58
9, 2298, Note_on_c, 1, 81, 0
9, 2304, Note_on_c, 1, 84, 68
9, 2362, Note_on_c, 1, 84, 0
9, 2368, Note_on_c, 1, 79, 56
9, 2426, Note_on_c, 1, 79, 0
9, 2432, Note_on_c, 1, 83, 70
9, 2490, Note_on_c, 1, 83, 0
9, 2496, Note_on_c, 1, 86, 70
9, 2554, Note_on_c, 1, 86, 0
9, 2560, Note_on_c, 1, 81, 58
9, 2618, Note_on_c, 1, 81, 0
9, 2624, Note_on_c, 1, 83, 63
9, 2682, Note_on_c, 1, 83, 0
9, 2688, Note_on_c, 1, 81, 57
9, 2746, Note_on_c, 1, 81, 0
9, 2752, Note_on_c, 1, 78, 58
9, 2810, Note_on_c, 1, 78, 0
9, 2816, Note_on_c, 1, 81, 70
9, 2874, Note_on_c, 1, 81, 0
9, 2880, Note_on_c, 1, 79, 60
9, 2938, Note_on_c, 1, 79, 0
9, 2944, Note_on_c, 1, 83, 71
9, 3002, Note_on_c, 1, 83, 0
9, 3008, Note_on_c, 1, 81, 59
9, 3066, Note_on_c, 1, 81, 0
9, 3072, Note_on_c, 1, 81, 65
9, 3130, Note_on_c, 1, 81, 0
9, 3136, Note_on_c, 1, 79, 61
9, 3194, Note_on_c, 1, 79, 0
9, 3200, Note_on_c, 1, 83, 67
9, 3258, Note_on_c, 1, 83, 0
9, 3264, Note_on_c, 1, 81, 60
9, 3322, Note_on_c, 1, 81, 0
9, 3328, Note_on_c, 1, 84, 68
9, 3386, Note_on_c, 1, 84, 0
9, 3392, Note_on_c, 1, 79, 54
9, 3450, Note_on_c, 1, 79, 0
9, 3456, Note_on_c, 1, 83, 68
9, 3514, Note_on_c, 1, 83, 0
9, 3520, Note_on_c, 1, 86, 67
9, 3578, Note_on_c, 1, 86, 0
9, 3584, Note_on_c, 1, 81, 60
9, 3642, Note_on_c, 1, 81, 0
9, 3648, Note_on_c, 1, 83, 63
9, 3706, Note_on_c, 1, 83, 0
9, 3712, Note_on_c, 1, 81, 59
9, 3770, Note_on_c, 1, 81, 0
9, 3776, Note_on_c, 1, 78, 56
9, 3834, Note_on_c, 1, 78, 0
9, 3840, Note_on_c, 1, 79, 69
9, 3898, Note_on_c, 1, 79, 0
9, 3904, Note_on_c, 1, 79, 63
9, 3962, Note_on_c, 1, 79, 0
9, 3968, Note_on_c, 1, 78, 61
9, 4026, Note_on_c, 1, 78, 0
9, 4032, Note_on_c, 1, 76, 59
9, 4090, Note_on_c, 1, 76, 0
9, 4096, Note_on_c, 1, 81, 72
9, 4154, Note_on_c, 1, 81, 0
9, 4160, Note_on_c, 1, 79, 59
9, 4218, Note_on_c, 1, 79, 0
9, 4224, Note_on_c, 1, 83, 69
9, 4282, Note_on_c, 1, 83, 0
9, 4288, Note_on_c, 1, 81, 61
9, 4346, Note_on_c, 1, 81, 0
9, 4352, Note_on_c, 1, 84, 70
9, 4410, Note_on_c, 1, 84, 0
9, 4416, Note_on_c, 1, 79, 55
9, 4474, Note_on_c, 1, 79, 0
9, 4480, Note_on_c, 1, 83, 69
9, 4538, Note_on_c, 1, 83, 0
9, 4544, Note_on_c, 1, 86, 68
9, 4602, Note_on_c, 1, 86, 0
9, 4608, Note_on_c, 1, 81, 60
9, 4666, Note_on_c, 1, 81, 0
9, 4672, Note_on_c, 1, 83, 66
9, 4730, Note_on_c, 1, 83, 0
9, 4736, Note_on_c, 1, 81, 60
9, 4794, Note_on_c, 1, 81, 0
9, 4800, Note_on_c, 1, 78, 55
9, 4858, Note_on_c, 1, 78, 0
9, 4864, Note_on_c, 1, 79, 66
9, 4922, Note_on_c, 1, 79, 0
9, 4928, Note_on_c, 1, 79, 62
9, 4986, Note_on_c, 1, 79, 0
9, 4992, Note_on_c, 1, 78, 59
9, 5050, Note_on_c, 1, 78, 0
9, 5056, Note_on_c, 1, 76, 59
9, 5114, Note_on_c, 1, 76, 0
9, 5120, Note_on_c, 1, 81, 72
9, 5178, Note_on_c, 1, 81, 0
9, 5184, Note_on_c, 1, 79, 59
9, 5242, Note_on_c, 1, 79, 0
9, 5248, Note_on_c, 1, 83, 68
9, 5306, Note_on_c, 1, 83, 0
9, 5312, Note_on_c, 1, 81, 60
9, 5370, Note_on_c, 1, 81, 0
9, 5376, Note_on_c, 1, 84, 71
9, 5434, Note_on_c, 1, 84, 0
9, 5440, Note_on_c, 1, 79, 54
9, 5498, Note_on_c, 1, 79, 0
9, 5504, Note_on_c, 1, 83, 70
9, 5562, Note_on_c, 1, 83, 0
9, 5568, Note_on_c, 1, 86, 71
9, 5626, Note_on_c, 1, 86, 0
9, 5632, Note_on_c, 1, 81, 58
9, 5690, Note_on_c, 1, 81, 0
9, 5696, Note_on_c, 1, 83, 64
9, 5754, Note_on_c, 1, 83, 0
9, 5760, Note_on_c, 1, 81, 57
9, 5818, Note_on_c, 1, 81, 0
9, 5824, Note_on_c, 1, 78, 55
9, 5882, Note_on_c, 1, 78, 0
9, 5888, Note_on_c, 1, 81, 71
9, 5946, Note_on_c, 1, 81, 0
9, 5952, Note_on_c, 1, 79, 57
9, 6010, Note_on_c, 1, 79, 0
9, 6016, Note_on_c, 1, 83, 68
9, 6074, Note_on_c, 1, 83, 0
9, 6080, Note_on_c, 1, 81, 60
9, 6138, Note_on_c, 1, 81, 0
9, 6144, Note_on_c, 1, 81, 66
9, 6202, Note_on_c, 1, 81, 0
9, 6208, Note_on_c, 1, 79, 59
9, 6266, Note_on_c, 1, 79, 0
9, 6272, Note_on_c, 1, 83, 67
9, 6330, Note_on_c, 1, 83, 0
9, 6336, Note_on_c, 1, 81, 62
9, 6394, Note_on_c, 1, 81, 0
9, 6400, Note_on_c, 1, 84, 70
9, 6458, Note_on_c, 1, 84, 0
9, 6464, Note_on_c, 1, 79, 53
9, 6522, Note_on_c, 1, 79, 0
9, 6528, Note_on_c, 1, 83, 67
9, 6586, Note_on_c, 1, 83, 0
9, 6592, Note_on_c, 1, 86, 70
9, 6650, Note_on_c, 1, 86, 0
9, 6656, Note_on_c, 1, 81, 59
9, 6714, Note_on_c, 1, 81, 0
9, 6720, Note_on_c, 1, 83, 63
9, 6778, Note_on_c, 1, 83, 0
9, 6784, Note_on_c, 1, 81, 58
9, 6842, Note_on_c, 1, 81, 0
9, 6848, Note_on_c, 1, 78, 57
9, 6906, Note_on_c, 1, 78, 0
9, 6912, Note_on_c, 1, 79, 65
9, 6970, Note_on_c, 1, 79, 0
9, 6976, Note_on_c, 1, 79, 63
9, 7034, Note_on_c, 1, 79, 0
9, 7040, Note_on_c, 1, 78, 59
9, 7098, Note_on_c, 1, 78, 0
9, 7104, Note_on_c, 1, 76, 57
9, 7162, Note_on_c, 1, 76, 0
9, 7168, Note_on_c, 1, 81, 74
9, 7226, Note_on_c, 1, 81, 0
9, 7232, Note_on_c, 1, 79, 61
9, 7290, Note_on_c, 1, 79, 0
9, 7296, Note_on_c, 1, 83, 69
9, 7354, Note_on_c, 1, 83, 0
9, 7360, Note_on_c, 1, 81, 60
9, 7418, Note_on_c, 1, 81, 0
9, 7424, Note_on_c, 1, 84, 70
9, 7482, Note_on_c, 1, 84, 0
9, 7488, Note_on_c, 1, 79, 54
9, 7546, Note_on_c, 1, 79, 0
9, 7552, Note_on_c, 1, 83, 67
9, 7610, Note_on_c, 1, 83, 0
9, 7616, Note_on_c, 1, 86, 67
9, 7674, Note_on_c, 1, 86, 0
9, 7680, Note_on_c, 1, 81, 59
9, 7738, Note_on_c, 1, 81, 0
9, 7744, Note_on_c, 1, 83, 67
9, 7802, Note_on_c, 1, 83, 0
9, 7808, Note_on_c, 1, 81, 57
9, 7866, Note_on_c, 1, 81, 0
9, 7872, Note_on_c, 1, 78, 56
9, 7930, Note_on_c, 1, 78, 0
9, 7936, Note_on_c, 1, 81, 72
9, 7994, Note_on_c, 1, 81, 0
9, 8000, Note_on_c, 1, 79, 57
9, 8058, Note_on_c, 1, 79, 0
9, 8064, Note_on_c, 1, 83, 70
9, 8122, Note_on_c, 1, 83, 0
9, 8128, Note_on_c, 1, 81, 62
9, 8186, Note_on_c, 1, 81, 0
9, 8192, Note_on_c, 1, 81, 65
9, 8250, Note_on_c, 1, 81, 0
9, 8256, Note_on_c, 1, 79, 58
9, 8314, Note_on_c, 1, 79, 0
9, 8320, Note_on_c, 1, 83, 69
9, 8378, Note_on_c, 1, 83, 0
9, 8384, Note_on_c, 1, 81, 58
9, 8442, Note_on_c, 1, 81, 0
9, 8448, Note_on_c, 1, 84, 70
9, 8506, Note_on_c, 1, 84, 0
9, 8512, Note_on_c, 1, 79, 57
9, 8570, Note_on_c, 1, 79, 0
9, 8576, Note_on_c, 1, 83, 69
9, 8634, Note_on_c, 1, 83, 0
9, 8640, Note_on_c, 1, 86, 67
9, 8698, Note_on_c, 1, 86, 0
9, 8704, Note_on_c, 1, 81, 56
9, 8762, Note_on_c, 1, 81, 0
9, 8768, Note_on_c, 1, 83, 63
9, 8826, Note_on_c, 1, 83, 0
9, 8832, Note_on_c, 1, 81, 61
9, 8890, Note_on_c, 1, 81, 0
9, 8896, Note_on_c, 1, 78, 58
9, 8954, Note_on_c, 1, 78, 0
9, 8960, Note_on_c, 1, 79, 69
9, 9018, Note_on_c, 1, 79, 0
9, 9024, Note_on_c, 1, 79, 63
9, 9082, Note_on_c, 1, 79, 0
9, 9088, Note_on_c, 1, 78, 61
9, 9146, Note_on_c, 1, 78, 0
9, 9152, Note_on_c, 1, 76, 60
9, 9210, Note_on_c, 1, 76, 0
9, 9216, Note_on_c, 1, 81, 74
9, 9274, Note_on_c, 1, 81, 0
9, 9280, Note_on_c, 1, 79, 58
9, 9338, Note_on_c, 1, 79, 0
9, 9344, Note_on_c, 1, 83, 68
9, 9402, Note_on_c, 1, 83, 0
9, 9408, Note_on_c, 1, 81, 61
9, 9466, Note_on_c, 1, 81, 0
9, 9472, Note_on_c, 1, 84, 71
9, 9530, Note_on_c, 1, 84, 0
9, 9536, Note_on_c, 1, 79, 54
9, 9594, Note_on_c, 1, 79, 0
9, 9600, Note_on_c, 1, 83, 68
9, 9658, Note_on_c, 1, 83, 0
9, 9664, Note_on_c, 1, 86, 70
9, 9722, Note_on_c, 1, 86, 0
9, 9728, Note_on_c, 1, 81, 57
9, 9786, Note_on_c, 1, 81, 0
9, 9792, Note_on_c, 1, 83, 65
9, 9850, Note_on_c, 1, 83, 0
9, 9856, Note_on_c, 1, 81, 59
9, 9914, Note_on_c, 1, 81, 0
9, 9920, Note_on_c, 1, 78, 55
9, 9978, Note_on_c, 1, 78, 0
9, 9984, Note_on_c, 1, 81, 71
9, 10042, Note_on_c, 1, 81, 0
9, 10048, Note_on_c, 1, 79, 58
9, 10106, Note_on_c, 1, 79, 0
9, 10112, Note_on_c, 1, 83, 69
9, 10170, Note_on_c, 1, 83, 0
9, 10176, Note_on_c, 1, 81, 58
9, 10234, Note_on_c, 1, 81, 0
9, 10240, Note_on_c, 1, 81, 64
9, 10298, Note_on_c, 1, 81, 0
9, 10304, Note_on_c, 1, 79, 58
9, 10362, Note_on_c, 1, 79, 0
9, 10368, Note_on_c, 1, 83, 70
9, 10426, Note_on_c, 1, 83, 0
9, 10432, Note_on_c, 1, 81, 61
9, 10490, Note_on_c, 1, 81, 0
9, 10496, Note_on_c, 1, 84, 69
9, 10554, Note_on_c, 1, 84, 0
9, 10560, Note_on_c, 1, 79, 55
9, 10618, Note_on_c, 1, 79, 0
9, 10624, Note_on_c, 1, 83, 70
9, 10682, Note_on_c, 1, 83, 0
9, 10688, Note_on_c, 1, 86, 68
9, 10746, Note_on_c, 1, 86, 0
9, 10752, Note_on_c, 1, 81, 59
9, 10810, Note_on_c, 1, 81, 0
9, 10816, Note_on_c, 1, 83, 66
9, 10874, Note_on_c, 1, 83, 0
9, 10880, Note_on_c, 1, 81, 60
9, 10938, Note_on_c, 1, 81, 0
9, 10944, Note_on_c, 1, 78, 56
9, 11002, Note_on_c, 1, 78, 0
9, 11008, Note_on_c, 1, 79, 69
9, 11066, Note_on_c, 1, 79, 0
9, 11072, Note_on_c, 1, 79, 62
9, 11130, Note_on_c, 1, 79, 0
9, 11136, Note_on_c, 1, 78, 62
9, 11194, Note_on_c, 1, 78, 0
9, 11200, Note_on_c, 1, 76, 58
9, 11258, Note_on_c, 1, 76, 0
9, 11264, Note_on_c, 1, 81, 74
9, 11322, Note_on_c, 1, 81, 0
9, 11328, Note_on_c, 1, 79, 59
9, 11386, Note_on_c, 1, 79, 0
9, 11392, Note_on_c, 1, 83, 68
9, 11450, Note_on_c, 1, 83, 0
9, 11456, Note_on_c, 1, 81, 59
9, 11514, Note_on_c, 1, 81, 0
9, 11520, Note_on_c, 1, 84, 69
9, 11578, Note_on_c, 1, 84, 0
9, 11584, Note_on_c, 1, 79, 55
9, 11642, Note_on_c, 1, 79, 0
9, 11648, Note_on_c, 1, 83, 69
9, 11706, Note_on_c, 1, 83, 0
9, 11712, Note_on_c, 1, 86, 69
9, 11770, Note_on_c, 1, 86, 0
9, 11776, Note_on_c, 1, 81, 58
9, 11834, Note_on_c, 1, 81, 0
9, 11840, Note_on_c, 1, 83, 65
9, 11898, Note_on_c, 1, 83, 0
9, 11904, Note_on_c, 1, 81, 60
9, 11962, Note_on_c, 1, 81, 0
9, 11968, Note_on_c, 1, 78, 56
9, 12026, Note_on_c, 1, 78, 0
9, 12032, Note_on_c, 1, 79, 66
9, 12090, Note_on_c, 1, 79, 0
9, 12096, Note_on_c, 1, 79, 65
9, 12154, Note_on_c, 1, 79, 0
9, 12160, Note_on_c, 1, 78, 60
9, 12218, Note_on_c, 1, 78, 0
9, 12224, Note_on_c, 1, 76, 59
9, 12282, Note_on_c, 1, 76, 0
9, 37248, Note_on_c, 1, 78, 56
9, 37306, Note_on_c, 1, 78, 0
9, 37312, Note_on_c, 1, 81, 69
9, 37370, Note_on_c, 1, 81, 0
9, 37376, Note_on_c, 1, 83, 70
9, 37434, Note_on_c, 1, 83, 0
9, 37440, Note_on_c, 1, 79, 55
9, 37498, Note_on_c, 1, 79, 0
9, 37504, Note_on_c, 1, 83, 69
9, 37562, Note_on_c, 1, 83, 0
9, 37568, Note_on_c, 1, 86, 69
9, 37626, Note_on_c, 1, 86, 0
9, 37632, Note_on_c, 1, 79, 54
9, 37690, Note_on_c, 1, 79, 0
9, 37696, Note_on_c, 1, 78, 56
9, 37754, Note_on_c, 1, 78, 0
9, 37760, Note_on_c, 1, 79, 67
9, 37818, Note_on_c, 1, 79, 0
9, 37824, Note_on_c, 1, 78, 62
9, 37882, Note_on_c, 1, 78, 0
9, 37888, Note_on_c, 1, 81, 69
9, 37946, Note_on_c, 1, 81, 0
9, 37952, Note_on_c, 1, 79, 59
9, 38010, Note_on_c, 1, 79, 0
9, 38016, Note_on_c, 1, 83, 67
9, 38074, Note_on_c, 1, 83, 0
9, 38080, Note_on_c, 1, 81, 61
9, 38138, Note_on_c, 1, 81, 0
9, 38144, Note_on_c, 1, 84, 71
9, 38202, Note_on_c, 1, 84, 0
9, 38208, Note_on_c, 1, 79, 55
9, 38266, Note_on_c, 1, 79, 0
9, 38272, Note_on_c, 1, 83, 67
9, 38330, Note_on_c, 1, 83, 0
9, 38336, Note_on_c, 1, 86, 69
9, 38394, Note_on_c, 1, 86, 0
9, 38400, Note_on_c, 1, 81, 58
9, 38458, Note_on_c, 1, 81, 0
9, 38464, Note_on_c, 1, 83, 67
9, 38522, Note_on_c, 1, 83, 0
9, 38528, Note_on_c, 1, 81, 58
9, 38586, Note_on_c, 1, 81, 0
9, 38592, Note_on_c, 1, 78, 58
9, 38650, Note_on_c, 1, 78, 0
9, 38656, Note_on_c, 1, 79, 68
9, 38714, Note_on_c, 1, 79, 0
9, 38720, Note_on_c, 1, 79, 64
9, 38778, Note_on_c, 1, 79, 0
9, 38784, Note_on_c, 1, 78, 61
9, 38842, Note_on_c, 1, 78, 0
9, 38848, Note_on_c, 1, 76, 58
9, 38906, Note_on_c, 1, 76, 0
9, 43008, Note_on_c, 1, 64, 58
9, 43124, Note_on_c, 1, 64, 0
9, 43136, Note_on_c, 1, 76, 81
9, 43252, Note_on_c, 1, 76, 0
9, 43264, Note_on_c, 1, 76, 67
9, 43380, Note_on_c, 1, 76, 0
9, 43392, Note_on_c, 1, 64, 47
9, 43508, Note_on_c, 1, 64, 0
9, 43520, Note_on_c, 1, 76, 80
9, 43636, Note_on_c, 1, 76, 0
9, 43648, Note_on_c, 1, 64, 50
9, 43706, Note_on_c, 1, 64, 0
9, 43712, Note_on_c, 1, 76, 78
9, 43828, Note_on_c, 1, 76, 0
9, 43840, Note_on_c, 1, 64, 49
9, 43898, Note_on_c, 1, 64, 0
9, 43904, Note_on_c, 1, 76, 76
9, 43962, Note_on_c, 1, 76, 0
9, 43968, Note_on_c, 1, 64, 48
9, 44026, Note_on_c, 1, 64, 0
9, 44032, Note_on_c, 1, 76, 79
9, 44148, Note_on_c, 1, 76, 0
9, 44160, Note_on_c, 1, 64, 46
9, 44276, Note_on_c, 1, 64, 0
9, 44288, Note_on_c, 1, 76, 79
9, 44404, Note_on_c, 1, 76, 0
9, 44416, Note_on_c, 1, 64, 50
9, 44532, Note_on_c, 1, 64, 0
9, 44544, Note_on_c, 1, 76, 80
9, 44660, Note_on_c, 1, 76, 0
9, 44672, Note_on_c, 1, 64, 50
9, 44730, Note_on_c, 1, 64, 0
9, 44736, Note_on_c, 1, 76, 79
9, 44852, Note_on_c, 1, 76, 0
9, 44864, Note_on_c, 1, 76, 66
9, 44922, Note_on_c, 1, 76, 0
9, 44928, Note_on_c, 1, 64, 44
9, 44986, Note_on_c, 1, 64, 0
9, 44992, Note_on_c, 1, 76, 76
9, 45050, Note_on_c, 1, 76, 0
9, 45056, Note_on_c, 1, 64, 50
9, 45172, Note_on_c, 1, 64, 0
9, 45184, Note_on_c, 1, 76, 77
9, 45300, Note_on_c, 1, 76, 0
9, 45312, Note_on_c, 1, 76, 68
9, 45428, Note_on_c, 1, 76, 0
9, 45440, Note_on_c, 1, 64, 45
9, 45556, Note_on_c, 1, 64, 0
9, 45568, Note_on_c, 1, 76, 82
9, 45684, Note_on_c, 1, 76, 0
9, 45696, Note_on_c, 1, 64, 50
9, 45754, Note_on_c, 1, 64, 0
9, 45760, Note_on_c, 1, 76, 77
9, 45876, Note_on_c, 1, 76, 0
9, 45888, Note_on_c, 1, 64, 50
9, 45946, Note_on_c, 1, 64, 0
9, 45952, Note_on_c, 1, 76, 77
9, 46010, Note_on_c, 1, 76, 0
9, 46016, Note_on_c, 1, 64, 48
9, 46074, Note_on_c, 1, 64, 0
9, 46080, Note_on_c, 1, 76, 78
9, 46196, Note_on_c, 1, 76, 0
9, 46208, Note_on_c, 1, 64, 48
9, 46324, Note_on_c, 1, 64, 0
9, 46336, Note_on_c, 1, 76, 79
9, 46452, Note_on_c, 1, 76, 0
9, 46464, Note_on_c, 1, 64, 47
9, 46580, Note_on_c, 1, 64, 0
9, 46592, Note_on_c, 1, 76, 81
9, 46708, Note_on_c, 1, 76, 0
9, 46720, Note_on_c, 1, 64, 50
9, 46778, Note_on_c, 1, 64, 0
9, 46784, Note_on_c, 1, 76, 78
9, 46900, Note_on_c, 1, 76, 0
9, 46912, Note_on_c, 1, 76, 66
9, 46970, Note_on_c, 1, 76, 0
9, 46976, Note_on_c, 1, 64, 44
9, 47034, Note_on_c, 1, 64, 0
9, 47040, Note_on_c, 1, 76, 76
9, 47098, Note_on_c, 1, 76, 0
9, 47104, Note_on_c, 1, 64, 52
9, 47220, Note_on_c, 1, 64, 0
9, 47232, Note_on_c, 1, 76, 77
9, 47348, Note_on_c, 1, 76, 0
9, 47360, Note_on_c, 1, 76, 68
9, 47476, Note_on_c, 1, 76, 0
9, 47488, Note_on_c, 1, 64, 44
9, 47604, Note_on_c, 1, 64, 0
9, 47616, Note_on_c, 1, 76, 80
9, 47732, Note_on_c, 1, 76, 0
9, 47744, Note_on_c, 1, 64, 48
9, 47802, Note_on_c, 1, 64, 0
9, 47808, Note_on_c, 1, 76, 78
9, 47924, Note_on_c, 1, 76, 0
9, 47936, Note_on_c, 1, 64, 48
9, 47994, Note_on_c, 1, 64, 0
9, 48000, Note_on_c, 1, 76, 78
9, 48058, Note_on_c, 1, 76, 0
9, 48064, Note_on_c, 1, 64, 46
9, 48122, Note_on_c, 1, 64, 0
9, 48128, Note_on_c, 1, 76, 80
9, 48244, Note_on_c, 1, 76, 0
9, 48256, Note_on_c, 1, 64, 47
9, 48372, Note_on_c, 1, 64, 0
9, 48384, Note_on_c, 1, 76, 79
9, 48500, Note_on_c, 1, 76, 0
9, 48512, Note_on_c, 1, 64, 48
9, 48628, Note_on_c, 1, 64, 0
9, 48640, Note_on_c, 1, 76, 80
9, 48756, Note_on_c, 1, 76, 0
9, 48768, Note_on_c, 1, 64, 47
9, 48826, Note_on_c, 1, 64, 0
9, 48832, Note_on_c, 1, 76, 77
9, 48948, Note_on_c, 1, 76, 0
9, 48960, Note_on_c, 1, 76, 63
9, 49018, Note_on_c, 1, 76, 0
9, 49024, Note_on_c, 1, 64, 47
9, 49082, Note_on_c, 1, 64, 0
9, 49088, Note_on_c, 1, 76, 76
9, 49146, Note_on_c, 1, 76, 0
9, 49152, Note_on_c, 1, 64, 50
9, 49268, Note_on_c, 1, 64, 0
9, 49280, Note_on_c, 1, 76, 77
9, 49396, Note_on_c, 1, 76, 0
9, 49408, Note_on_c, 1, 76, 67
9, 49524, Note_on_c, 1, 76, 0
9, 49536, Note_on_c, 1, 64, 47
9, 49652, Note_on_c, 1, 64, 0
9, 49664, Note_on_c, 1, 76, 81
9, 49780, Note_on_c, 1, 76, 0
9, 49792, Note_on_c, 1, 64, 49
9, 49850, Note_on_c, 1, 64, 0
9, 49856, Note_on_c, 1, 76, 79
9, 49972, Note_on_c, 1, 76, 0
9, 49984, Note_on_c, 1, 64, 47
9, 50042, Note_on_c, 1, 64, 0
9, 50048, Note_on_c, 1, 76, 79
9, 50106, Note_on_c, 1, 76, 0
9, 50112, Note_on_c, 1, 64, 47
9, 50170, Note_on_c, 1, 64, 0
9, 50176, Note_on_c, 1, 76, 82
9, 50292, Note_on_c, 1, 76, 0
9, 50304, Note_on_c, 1, 64, 50
9, 50420, Note_on_c, 1, 64, 0
9, 50432, Note_on_c, 1, 76, 82
9, 50548, Note_on_c, 1, 76, 0
9, 50560, Note_on_c, 1, 64, 46
9, 50676, Note_on_c, 1, 64, 0
9, 50688, Note_on_c, 1, 76, 80
9, 50804, Note_on_c, 1, 76, 0
9, 50816, Note_on_c, 1, 64, 49
9, 50874, Note_on_c, 1, 64, 0
9, 50880, Note_on_c, 1, 76, 75
9, 50996, Note_on_c, 1, 76, 0
9, 51008, Note_on_c, 1, 76, 63
9, 51066, Note_on_c, 1, 76, 0
9, 51072, Note_on_c, 1, 64, 44
9, 51130, Note_on_c, 1, 64, 0
9, 51136, Note_on_c, 1, 76, 78
9, 51194, Note_on_c, 1, 76, 0
9, 51200, Note_on_c, 1, 64, 50
9, 51316, Note_on_c, 1, 64, 0
9, 51328, Note_on_c, 1, 76, 76
9, 51444, Note_on_c, 1, 76, 0
9, 51456, Note_on_c, 1, 76, 69
9, 51572, Note_on_c, 1, 76, 0
9, 51584, Note_on_c, 1, 64, 44
9, 51700, Note_on_c, 1, 64, 0
9, 51712, Note_on_c, 1, 76, 78
9, 51828, Note_on_c, 1, 76, 0
9, 51840, Note_on_c, 1, 64, 48
9, 51898, Note_on_c, 1, 64, 0
9, 51904, Note_on_c, 1, 76, 75
9, 52020, Note_on_c, 1, 76, 0
9, 52032, Note_on_c, 1, 64, 47
9, 52090, Note_on_c, 1, 64, 0
9, 52096, Note_on_c, 1, 76, 77
9, 52154, Note_on_c, 1, 76, 0
9, 52160, Note_on_c, 1, 64, 48
9, 52218, Note_on_c, 1, 64, 0
9, 52224, Note_on_c, 1, 76, 81
9, 52340, Note_on_c, 1, 76, 0
9, 52352, Note_on_c, 1, 64, 48
9, 52468, Note_on_c, 1, 64, 0
9, 52480, Note_on_c, 1, 76, 78
9, 52596, Note_on_c, 1, 76, 0
9, 52608, Note_on_c, 1, 64, 49
9, 52724, Note_on_c, 1, 64, 0
9, 52736, Note_on_c, 1, 76, 79
9, 52852, Note_on_c, 1, 76, 0
9, 52864, Note_on_c, 1, 64, 48
9, 52922, Note_on_c, 1, 64, 0
9, 52928, Note_on_c, 1, 76, 78
9, 53044, Note_on_c, 1, 76, 0
9, 53056, Note_on_c, 1, 76, 67
9, 53114, Note_on_c, 1, 76, 0
9, 53120, Note_on_c, 1, 64, 45
9, 53178, Note_on_c, 1, 64, 0
9, 53184, Note_on_c, 1, 76, 75
9, 53242, Note_on_c, 1, 76, 0
9, 53248, Note_on_c, 1, 64, 50
9, 53364, Note_on_c, 1, 64, 0
9, 53376, Note_on_c, 1, 76, 76
9, 53492, Note_on_c, 1, 76, 0
9, 53504, Note_on_c, 1, 76, 69
9, 53620, Note_on_c, 1, 76, 0
9, 53632, Note_on_c, 1, 64, 44
9, 53748, Note_on_c, 1, 64, 0
9, 53760, Note_on_c, 1, 76, 82
9, 53876, Note_on_c, 1, 76, 0
9, 53888, Note_on_c, 1, 64, 48
9, 53946, Note_on_c, 1, 64, 0
9, 53952, Note_on_c, 1, 76, 77
9, 54068, Note_on_c, 1, 76, 0
9, 54080, Note_on_c, 1, 64, 46
9, 54138, Note_on_c, 1, 64, 0
9, 54144, Note_on_c, 1, 76, 79
9, 54202, Note_on_c, 1, 76, 0
9, 54208, Note_on_c, 1, 64, 48
9, 54266, Note_on_c, 1, 64, 0
9, 54272, Note_on_c, 1, 76, 78
9, 54388, Note_on_c, 1, 76, 0
9, 54400, Note_on_c, 1, 64, 49
9, 54516, Note_on_c, 1, 64, 0
9, 54528, Note_on_c, 1, 76, 78
9, 54644, Note_on_c, 1, 76, 0
9, 54656, Note_on_c, 1, 64, 48
9, 54772, Note_on_c, 1, 64, 0
9, 54784, Note_on_c, 1, 76, 78
9, 54900, Note_on_c, 1, 76, 0
9, 54912, Note_on_c, 1, 64, 50
9, 54970, Note_on_c, 1, 64, 0
9, 54976, Note_on_c, 1, 76, 77
9, 55092, Note_on_c, 1, 76, 0
9, 55104, Note_on_c, 1, 76, 66
9, 55162, Note_on_c, 1, 76, 0
9, 55168, Note_on_c, 1, 64, 45
9, 55226, Note_on_c, 1, 64, 0
9, 55232, Note_on_c, 1, 76, 75
9, 55290, Note_on_c, 1, 76, 0
9, 55296, Note_on_c, 1, 64, 52
9, 55412, Note_on_c, 1, 64, 0
9, 55424, Note_on_c, 1, 76, 76
9, 55540, Note_on_c, 1, 76, 0
9, 55552, Note_on_c, 1, 76, 70
9, 55668, Note_on_c, 1, 76, 0
9, 55680, Note_on_c, 1, 64, 46
9, 55796, Note_on_c, 1, 64, 0
9, 55808, Note_on_c, 1, 76, 80
9, 55924, Note_on_c, 1, 76, 0
9, 55936, Note_on_c, 1, 64, 48
9, 55994, Note_on_c, 1, 64, 0
9, 56000, Note_on_c, 1, 76, 76
9, 56116, Note_on_c, 1, 76, 0
9, 56128, Note_on_c, 1, 64, 46
9, 56186, Note_on_c, 1, 64, 0
9, 56192, Note_on_c, 1, 76, 77
9, 56250, Note_on_c, 1, 76, 0
9, 56256, Note_on_c, 1, 64, 48
9, 56314, Note_on_c, 1, 64, 0
9, 56320, Note_on_c, 1, 76, 81
9, 56436, Note_on_c, 1, 76, 0
9, 56448, Note_on_c, 1, 64, 46
9, 56564, Note_on_c, 1, 64, 0
9, 56576, Note_on_c, 1, 76, 82
9, 56692, Note_on_c, 1, 76, 0
9, 56704, Note_on_c, 1, 64, 46
9, 56820, Note_on_c, 1, 64, 0
9, 56832, Note_on_c, 1, 76, 81
9, 56948, Note_on_c, 1, 76, 0
9, 56960, Note_on_c, 1, 64, 49
9, 57018, Note_on_c, 1, 64, 0
9, 57024, Note_on_c, 1, 76, 78
9, 57140, Note_on_c, 1, 76, 0
9, 57152, Note_on_c, 1, 76, 65
9, 57210, Note_on_c, 1, 76, 0
9, 57216, Note_on_c, 1, 64, 43
9, 57274, Note_on_c, 1, 64, 0
9, 57280, Note_on_c, 1, 76, 78
9, 57338, Note_on_c, 1, 76, 0
9, 57344, Note_on_c, 1, 76, 67
9, 57460, Note_on_c, 1, 76, 0
9, 57472, Note_on_c, 1, 64, 46
9, 57588, Note_on_c, 1, 64, 0
9, 57600, Note_on_c, 1, 76, 80
9, 57716, Note_on_c, 1, 76, 0
9, 57728, Note_on_c, 1, 64, 48
9, 57844, Note_on_c, 1, 64, 0
9, 57856, Note_on_c, 1, 76, 81
9, 57972, Note_on_c, 1, 76, 0
9, 57984, Note_on_c, 1, 64, 49
9, 58042, Note_on_c, 1, 64, 0
9, 58048, Note_on_c, 1, 76, 77
9, 58164, Note_on_c, 1, 76, 0
9, 58176, Note_on_c, 1, 76, 65
9, 58234, Note_on_c, 1, 76, 0
9, 58240, Note_on_c, 1, 64, 45
9, 58298, Note_on_c, 1, 64, 0
9, 58304, Note_on_c, 1, 76, 76
9, 58362, Note_on_c, 1, 76, 0
9, 58368, Note_on_c, 1, 76, 68
9, 58484, Note_on_c, 1, 76, 0
9, 58496, Note_on_c, 1, 64, 46
9, 58612, Note_on_c, 1, 64, 0
9, 58624, Note_on_c, 1, 76, 79
9, 58740, Note_on_c, 1, 76, 0
9, 58752, Note_on_c, 1, 64, 46
9, 58868, Note_on_c, 1, 64, 0
9, 58880, Note_on_c, 1, 76, 80
9, 58996, Note_on_c, 1, 76, 0
9, 59008, Note_on_c, 1, 64, 47
9, 59066, Note_on_c, 1, 64, 0
9, 59072, Note_on_c, 1, 76, 79
9, 59188, Note_on_c, 1, 76, 0
9, 59200, Note_on_c, 1, 76, 65
9, 59258, Note_on_c, 1, 76, 0
9, 59264, Note_on_c, 1, 64, 44
9, 59322, Note_on_c, 1, 64, 0
9, 59328, Note_on_c, 1, 76, 79
9, 59386, Note_on_c, 1, 76, 0
9, 118656, Note_on_c, 1, 78, 56
9, 118714, Note_on_c, 1, 78, 0
9, 118720, Note_on_c, 1, 81, 67
9, 118778, Note_on_c, 1, 81, 0
9, 118784, Note_on_c, 1, 83, 71
9, 118842, Note_on_c, 1, 83, 0
9, 118848, Note_on_c, 1, 79, 55
9, 118906, Note_on_c, 1, 79, 0
9, 118912, Note_on_c, 1, 83, 68
9, 118970, Note_on_c, 1, 83, 0
9, 118976, Note_on_c, 1, 86, 68
9, 119034, Note_on_c, 1, 86, 0
9, 119040, Note_on_c, 1, 79, 53
9, 119098, Note_on_c, 1, 79, 0
9, 119104, Note_on_c, 1, 78, 59
9, 119162, Note_on_c, 1, 78, 0
9, 119168, Note_on_c, 1, 79, 64
9, 119226, Note_on_c, 1, 79, 0
9, 119232, Note_on_c, 1, 78, 60
9, 119290, Note_on_c, 1, 78, 0
9, 119296, Note_on_c, 1, 81, 70
9, 119354, Note_on_c, 1, 81, 0
9, 119360, Note_on_c, 1, 79, 57
9, 119418, Note_on_c, 1, 79, 0
9, 119424, Note_on_c, 1, 83, 67
9, 119482, Note_on_c, 1, 83, 0
9, 119488, Note_on_c, 1, 81, 61
9, 119546, Note_on_c, 1, 81, 0
9, 119552, Note_on_c, 1, 84, 69
9, 119610, Note_on_c, 1, 84, 0
9, 119616, Note_on_c, 1, 79, 56
9, 119674, Note_on_c, 1, 79, 0
9, 119680, Note_on_c, 1, 83, 68
9, 119738, Note_on_c, 1, 83, 0
9, 119744, Note_on_c, 1, 86, 67
9, 119802, Note_on_c, 1, 86, 0
9, 119808, Note_on_c, 1, 81, 56
9, 119866, Note_on_c, 1, 81, 0
9, 119872, Note_on_c, 1, 83, 66
9, 119930, Note_on_c, 1, 83, 0
9, 119936, Note_on_c, 1, 81, 57
9, 119994, Note_on_c, 1, 81, 0
9, 120000, Note_on_c, 1, 78, 57
9, 120058, Note_on_c, 1, 78, 0
9, 120064, Note_on_c, 1, 79, 66
9, 120122, Note_on_c, 1, 79, 0
9, 120128, Note_on_c, 1, 79, 62
9, 120186, Note_on_c, 1, 79, 0
9, 120192, Note_on_c, 1, 78, 58
9, 120250, Note_on_c, 1, 78, 0
9, 120256, Note_on_c, 1, 76, 56
9, 120314, Note_on_c, 1, 76, 0
9, 124416, Note_on_c, 1, 64, 58
9, 124532, Note_on_c, 1, 64, 0
9, 124544, Note_on_c, 1, 76, 79
9, 124660, Note_on_c, 1, 76, 0
9, 124672, Note_on_c, 1, 76, 67
9, 124788, Note_on_c, 1, 76, 0
9, 124800, Note_on_c, 1, 64, 47
9, 124916, Note_on_c, 1, 64, 0
9, 124928, Note_on_c, 1, 76, 79
9, 125044, Note_on_c, 1, 76, 0
9, 125056, Note_on_c, 1, 64, 50
9, 125114, Note_on_c, 1, 64, 0
9, 125120, Note_on_c, 1, 76, 75
9, 125236, Note_on_c, 1, 76, 0
9, 125248, Note_on_c, 1, 64, 47
9, 125306, Note_on_c, 1, 64, 0
9, 125312, Note_on_c, 1, 76, 75
9, 125370, Note_on_c, 1, 76, 0
9, 125376, Note_on_c, 1, 64, 50
9, 125434, Note_on_c, 1, 64, 0
9, 125440, Note_on_c, 1, 76, 80
9, 125556, Note_on_c, 1, 76, 0
9, 125568, Note_on_c, 1, 64, 47
9, 125684, Note_on_c, 1, 64, 0
9, 125696, Note_on_c, 1, 76, 80
9, 125812, Note_on_c, 1, 76, 0
9, 125824, Note_on_c, 1, 64, 47
9, 125940, Note_on_c, 1, 64, 0
9, 125952, Note_on_c, 1, 76, 80
9, 126068, Note_on_c, 1, 76, 0
9, 126080, Note_on_c, 1, 64, 46
9, 126138, Note_on_c, 1, 64, 0
9, 126144, Note_on_c, 1, 76, 79
9, 126260, Note_on_c, 1, 76, 0
9, 126272, Note_on_c, 1, 76, 66
9, 126330, Note_on_c, 1, 76, 0
9, 126336, Note_on_c, 1, 64, 44
9, 126394, Note_on_c, 1, 64, 0
9, 126400, Note_on_c, 1, 76, 78
9, 126458, Note_on_c, 1, 76, 0
9, 126464, Note_on_c, 1, 64, 52
9, 126580, Note_on_c, 1, 64, 0
9, 126592, Note_on_c, 1, 76, 78
9, 126708, Note_on_c, 1, 76, 0
9, 126720, Note_on_c, 1, 76, 67
9, 126836, Note_on_c, 1, 76, 0
9, 126848, Note_on_c, 1, 64, 44
9, 126964, Note_on_c, 1, 64, 0
9, 126976, Note_on_c, 1, 76, 80
9, 127092, Note_on_c, 1, 76, 0
9, 127104, Note_on_c, 1, 64, 50
9, 127162, Note_on_c, 1, 64, 0
9, 127168, Note_on_c, 1, 76, 76
9, 127284, Note_on_c, 1, 76, 0
9, 127296, Note_on_c, 1, 64, 47
9, 127354, Note_on_c, 1, 64, 0
9, 127360, Note_on_c, 1, 76, 78
9, 127418, Note_on_c, 1, 76, 0
9, 127424, Note_on_c, 1, 64, 49
9, 127482, Note_on_c, 1, 64, 0
9, 127488, Note_on_c, 1, 76, 78
9, 127604, Note_on_c, 1, 76, 0
9, 127616, Note_on_c, 1, 64, 48
9, 127732, Note_on_c, 1, 64, 0
9, 127744, Note_on_c, 1, 76, 79
9, 127860, Note_on_c, 1, 76, 0
9, 127872, Note_on_c, 1, 64, 46
9, 127988, Note_on_c, 1, 64, 0
9, 128000, Note_on_c, 1, 76, 80
9, 128116, Note_on_c, 1, 76, 0
9, 128128, Note_on_c, 1, 64, 48
9, 128186, Note_on_c, 1, 64, 0
9, 128192, Note_on_c, 1, 76, 76
9, 128308, Note_on_c, 1, 76, 0
9, 128320, Note_on_c, 1, 76, 63
9, 128378, Note_on_c, 1, 76, 0
9, 128384, Note_on_c, 1, 64, 44
9, 128442, Note_on_c, 1, 64, 0
9, 128448, Note_on_c, 1, 76, 76
9, 128506, Note_on_c, 1, 76, 0
9, 128512, Note_on_c, 1, 64, 49
9, 128628, Note_on_c, 1, 64, 0
9, 128640, Note_on_c, 1, 76, 78
9, 128756, Note_on_c, 1, 76, 0
9, 128768, Note_on_c, 1, 76, 67
9, 128884, Note_on_c, 1, 76, 0
9, 128896, Note_on_c, 1, 64, 45
9, 129012, Note_on_c, 1, 64, 0
9, 129024, Note_on_c, 1, 76, 79
9, 129140, Note_on_c, 1, 76, 0
9, 129152, Note_on_c, 1, 64, 46
9, 129210, Note_on_c, 1, 64, 0
9, 129216, Note_on_c, 1, 76, 77
9, 129332, Note_on_c, 1, 76, 0
9, 129344, Note_on_c, 1, 64, 47
9, 129402, Note_on_c, 1, 64, 0
9, 129408, Note_on_c, 1, 76, 75
9, 129466, Note_on_c, 1, 76, 0
9, 129472, Note_on_c, 1, 64, 47
9, 129530, Note_on_c, 1, 64, 0
9, 129536, Note_on_c, 1, 76, 81
9, 129652, Note_on_c, 1, 76, 0
9, 129664, Note_on_c, 1, 64, 48
9, 129780, Note_on_c, 1, 64, 0
9, 129792, Note_on_c, 1, 76, 80
9, 129908, Note_on_c, 1, 76, 0
9, 129920, Note_on_c, 1, 64, 47
9, 130036, Note_on_c, 1, 64, 0
9, 130048, Note_on_c, 1, 76, 81
9, 130164, Note_on_c, 1, 76, 0
9, 130176, Note_on_c, 1, 64, 47
9, 130234, Note_on_c, 1, 64, 0
9, 130240, Note_on_c, 1, 76, 76
9, 130356, Note_on_c, 1, 76, 0
9, 130368, Note_on_c, 1, 76, 66
9, 130426, Note_on_c, 1, 76, 0
9, 130432, Note_on_c, 1, 64, 44
9, 130490, Note_on_c, 1, 64, 0
9, 130496, Note_on_c, 1, 76, 78
9, 130554, Note_on_c, 1, 76, 0
9, 130560, Note_on_c, 1, 64, 52
9, 130676, Note_on_c, 1, 64, 0
9, 130688, Note_on_c, 1, 76, 76
9, 130804, Note_on_c, 1, 76, 0
9, 130816, Note_on_c, 1, 76, 67
9, 130932, Note_on_c, 1, 76, 0
9, 130944, Note_on_c, 1, 64, 47
9, 131060, Note_on_c, 1, 64, 0
9, 131072, Note_on_c, 1, 76, 81
9, 131188, Note_on_c, 1, 76, 0
9, 131200, Note_on_c, 1, 64, 48
9, 131258, Note_on_c, 1, 64, 0
9, 131264, Note_on_c, 1, 76, 77
9, 131380, Note_on_c, 1, 76, 0
9, 131392, Note_on_c, 1, 64, 49
9, 131450, Note_on_c, 1, 64, 0
9, 131456, Note_on_c, 1, 76, 79
9, 131514, Note_on_c, 1, 76, 0
9, 131520, Note_on_c, 1, 64, 48
9, 131578, Note_on_c, 1, 64, 0
9, 131584, Note_on_c, 1, 76, 81
9, 131700, Note_on_c, 1, 76, 0
9, 131712, Note_on_c, 1, 64, 49
9, 131828, Note_on_c, 1, 64, 0
9, 131840, Note_on_c, 1, 76, 81
9, 131956, Note_on_c, 1, 76, 0
9, 131968, Note_on_c, 1, 64, 50
9, 132084, Note_on_c, 1, 64, 0
9, 132096, Note_on_c, 1, 76, 80
9, 132212, Note_on_c, 1, 76, 0
9, 132224, Note_on_c, 1, 64, 49
9, 132282, Note_on_c, 1, 64, 0
9, 132288, Note_on_c, 1, 76, 75
9, 132404, Note_on_c, 1, 76, 0
9, 132416, Note_on_c, 1, 76, 65
9, 132474, Note_on_c, 1, 76, 0
9, 132480, Note_on_c, 1, 64, 44
9, 132538, Note_on_c, 1, 64, 0
9, 132544, Note_on_c, 1, 76, 77
9, 132602, Note_on_c, 1, 76, 0
9, 132608, Note_on_c, 1, 64, 49
9, 132724, Note_on_c, 1, 64, 0
9, 132736, Note_on_c, 1, 76, 75
9, 132852, Note_on_c, 1, 76, 0
9, 132864, Note_on_c, 1, 76, 69
9, 132980, Note_on_c, 1, 76, 0
9, 132992, Note_on_c, 1, 64, 43
9, 133108, Note_on_c, 1, 64, 0
9, 133120, Note_on_c, 1, 76, 80
9, 133236, Note_on_c, 1, 76, 0
9, 133248, Note_on_c, 1, 64, 48
9, 133306, Note_on_c, 1, 64, 0
9, 133312, Note_on_c, 1, 76, 77
9, 133428, Note_on_c, 1, 76, 0
9, 133440, Note_on_c, 1, 64, 48
9, 133498, Note_on_c, 1, 64, 0
9, 133504, Note_on_c, 1, 76, 79
9, 133562, Note_on_c, 1, 76, 0
9, 133568, Note_on_c, 1, 64, 48
9, 133626, Note_on_c, 1, 64, 0
9, 133632, Note_on_c, 1, 76, 81
9, 133748, Note_on_c, 1, 76, 0
9, 133760, Note_on_c, 1, 64, 48
9, 133876, Note_on_c, 1, 64, 0
9, 133888, Note_on_c, 1, 76, 80
9, 134004, Note_on_c, 1, 76, 0
9, 134016, Note_on_c, 1, 64, 48
9, 134132, Note_on_c, 1, 64, 0
9, 134144, Note_on_c, 1, 76, 81
9, 134260, Note_on_c, 1, 76, 0
9, 134272, Note_on_c, 1, 64, 49
9, 134330, Note_on_c, 1, 64, 0
9, 134336, Note_on_c, 1, 76, 77
9, 134452, Note_on_c, 1, 76, 0
9, 134464, Note_on_c, 1, 76, 63
9, 134522, Note_on_c, 1, 76, 0
9, 134528, Note_on_c, 1, 64, 45
9, 134586, Note_on_c, 1, 64, 0
9, 134592, Note_on_c, 1, 76, 75
9, 134650, Note_on_c, 1, 76, 0
9, 134656, Note_on_c, 1, 64, 52
9, 134772, Note_on_c, 1, 64, 0
9, 134784, Note_on_c, 1, 76, 78
9, 134900, Note_on_c, 1, 76, 0
9, 134912, Note_on_c, 1, 76, 70
9, 135028, Note_on_c, 1, 76, 0
9, 135040, Note_on_c, 1, 64, 46
9, 135156, Note_on_c, 1, 64, 0
9, 135168, Note_on_c, 1, 76, 81
9, 135284, Note_on_c, 1, 76, 0
9, 135296, Note_on_c, 1, 64, 48
9, 135354, Note_on_c, 1, 64, 0
9, 135360, Note_on_c, 1, 76, 77
9, 135476, Note_on_c, 1, 76, 0
9, 135488, Note_on_c, 1, 64, 47
9, 135546, Note_on_c, 1, 64, 0
9, 135552, Note_on_c, 1, 76, 75
9, 135610, Note_on_c, 1, 76, 0
9, 135616, Note_on_c, 1, 64, 46
9, 135674, Note_on_c, 1, 64, 0
9, 135680, Note_on_c, 1, 76, 81
9, 135796, Note_on_c, 1, 76, 0
9, 135808, Note_on_c, 1, 64, 47
9, 135924, Note_on_c, 1, 64, 0
9, 135936, Note_on_c, 1, 76, 81
9, 136052, Note_on_c, 1, 76, 0
9, 136064, Note_on_c, 1, 64, 48
9, 136180, Note_on_c, 1, 64, 0
9, 136192, Note_on_c, 1, 76, 82
9, 136308, Note_on_c, 1, 76, 0
9, 136320, Note_on_c, 1, 64, 48
9, 136378, Note_on_c, 1, 64, 0
9, 136384, Note_on_c, 1, 76, 76
9, 136500, Note_on_c, 1, 76, 0
9, 136512, Note_on_c, 1, 76, 65
9, 136570, Note_on_c, 1, 76, 0
9, 136576, Note_on_c, 1, 64, 44
9, 136634, Note_on_c, 1, 64, 0
9, 136640, Note_on_c, 1, 76, 77
9, 136698, Note_on_c, 1, 76, 0
9, 136704, Note_on_c, 1, 64, 52
9, 136820, Note_on_c, 1, 64, 0
9, 136832, Note_on_c, 1, 76, 79
9, 136948, Note_on_c, 1, 76, 0
9, 136960, Note_on_c, 1, 76, 69
9, 137076, Note_on_c, 1, 76, 0
9, 137088, Note_on_c, 1, 64, 44
9, 137204, Note_on_c, 1, 64, 0
9, 137216, Note_on_c, 1, 76, 78
9, 137332, Note_on_c, 1, 76, 0
9, 137344, Note_on_c, 1, 64, 50
9, 137402, Note_on_c, 1, 64, 0
9, 137408, Note_on_c, 1, 76, 77
9, 137524, Note_on_c, 1, 76, 0
9, 137536, Note_on_c, 1, 64, 49
9, 137594, Note_on_c, 1, 64, 0
9, 137600, Note_on_c, 1, 76, 78
9, 137658, Note_on_c, 1, 76, 0
9, 137664, Note_on_c, 1, 64, 49
9, 137722, Note_on_c, 1, 64, 0
9, 137728, Note_on_c, 1, 76, 80
9, 137844, Note_on_c, 1, 76, 0
9, 137856, Note_on_c, 1, 64, 49
9, 137972, Note_on_c, 1, 64, 0
9, 137984, Note_on_c, 1, 76, 80
9, 138100, Note_on_c, 1, 76, 0
9, 138112, Note_on_c, 1, 64, 48
9, 138228, Note_on_c, 1, 64, 0
9, 138240, Note_on_c, 1, 76, 80
9, 138356, Note_on_c, 1, 76, 0
9, 138368, Note_on_c, 1, 64, 46
9, 138426, Note_on_c, 1, 64, 0
9, 138432, Note_on_c, 1, 76, 77
9, 138548, Note_on_c, 1, 76, 0
9, 138560, Note_on_c, 1, 76, 64
9, 138618, Note_on_c, 1, 76, 0
9, 138624, Note_on_c, 1, 64, 47
9, 138682, Note_on_c, 1, 64, 0
9, 138688, Note_on_c, 1, 76, 78
9, 138746, Note_on_c, 1, 76, 0
9, 138752, Note_on_c, 1, 76, 67
9, 138868, Note_on_c, 1, 76, 0
9, 138880, Note_on_c, 1, 64, 44
9, 138996, Note_on_c, 1, 64, 0
9, 139008, Note_on_c, 1, 76, 82
9, 139124, Note_on_c, 1, 76, 0
9, 139136, Note_on_c, 1, 64, 48
9, 139252, Note_on_c, 1, 64, 0
9, 139264, Note_on_c, 1, 76, 80
9, 139380, Note_on_c, 1, 76, 0
9, 139392, Note_on_c, 1, 64, 48
9, 139450, Note_on_c, 1, 64, 0
9, 139456, Note_on_c, 1, 76, 77
9, 139572, Note_on_c, 1, 76, 0
9, 139584, Note_on_c, 1, 76, 67
9, 139642, Note_on_c, 1, 76, 0
9, 139648, Note_on_c, 1, 64, 44
9, 139706, Note_on_c, 1, 64, 0
9, 139712, Note_on_c, 1, 76, 75
9, 139770, Note_on_c, 1, 76, 0
9, 139776, Note_on_c, 1, 76, 66
9, 139892, Note_on_c, 1, 76, 0
9, 139904, Note_on_c, 1, 64, 45
9, 140020, Note_on_c, 1, 64, 0
9, 140032, Note_on_c, 1, 76, 80
9, 140148, Note_on_c, 1, 76, 0
9, 140160, Note_on_c, 1, 64, 47
9, 140276, Note_on_c, 1, 64, 0
9, 140288, Note_on_c, 1, 76, 81
9, 140404, Note_on_c, 1, 76, 0
9, 140416, Note_on_c, 1, 64, 47
9, 140474, Note_on_c, 1, 64, 0
9, 140480, Note_on_c, 1, 76, 76
9, 140596, Note_on_c, 1, 76, 0
9, 140608, Note_on_c, 1, 76, 63
9, 140666, Note_on_c, 1, 76, 0
9, 140672, Note_on_c, 1, 64, 45
9, 140730, Note_on_c, 1, 64, 0
9, 140736, Note_on_c, 1, 76, 79
9, 140794, Note_on_c, 1, 76, 0
9, 140795, End_track
10, 0, Start_track
10, 0, Title_t, "Organ"
10, 0, Control_c, 4, 91, 76
10, 0, Control_c, 4, 10, 74
10, 0, Control_c, 4, 91, 76
10, 0, Control_c, 4, 10, 74
10, 12032, Control_c, 4, 0, 0
10, 12032, Control_c, 4, 32, 0
10, 12032, Program_c, 4, 18
10, 12032, Note_on_c, 4, 52, 87
10, 12061, Note_on_c, 4, 52, 0
10, 12064, Note_on_c, 4, 55, 101
10, 12093, Note_on_c, 4, 55, 0
10, 12096, Note_on_c, 4, 59, 105
10, 12125, Note_on_c, 4, 59, 0
10, 12128, Note_on_c, 4, 62, 107
10, 12157, Note_on_c, 4, 62, 0
10, 12160, Note_on_c, 4, 64, 102
10, 12189, Note_on_c, 4, 64, 0
10, 12192, Note_on_c, 4, 67, 104
10, 12221, Note_on_c, 4, 67, 0
10, 12224, Note_on_c, 4, 71, 109
10, 12253, Note_on_c, 4, 71, 0
10, 12256, Note_on_c, 4, 74, 104
10, 12285, Note_on_c, 4, 74, 0
10, 12288, Note_on_c, 4, 76, 107
10, 12288, Note_on_c, 4, 71, 71
10, 12346, Note_on_c, 4, 76, 0
10, 12346, Note_on_c, 4, 71, 0
10, 12352, Note_on_c, 4, 76, 95
10, 12352, Note_on_c, 4, 71, 72
10, 12410, Note_on_c, 4, 76, 0
10, 12410, Note_on_c, 4, 71, 0
10, 12416, Note_on_c, 4, 76, 96
10, 12416, Note_on_c, 4, 71, 77
10, 12532, Note_on_c, 4, 76, 0
10, 12532, Note_on_c, 4, 71, 0
10, 12544, Note_on_c, 4, 76, 99
10, 12544, Note_on_c, 4, 71, 78
10, 12660, Note_on_c, 4, 76, 0
10, 12660, Note_on_c, 4, 71, 0
10, 12672, Note_on_c, 4, 76, 97
10, 12672, Note_on_c, 4, 71, 77
10, 12730, Note_on_c, 4, 76, 0
10, 12730, Note_on_c, 4, 71, 0
10, 12736, Note_on_c, 4, 76, 97
10, 12736, Note_on_c, 4, 71, 77
10, 12852, Note_on_c, 4, 76, 0
10, 12852, Note_on_c, 4, 71, 0
10, 12864, Note_on_c, 4, 76, 94
10, 12864, Note_on_c, 4, 71, 76
10, 12980, Note_on_c, 4, 76, 0
10, 12980, Note_on_c, 4, 71, 0
10, 12992, Note_on_c, 4, 76, 97
10, 12992, Note_on_c, 4, 71, 75
10, 13050, Note_on_c, 4, 76, 0
10, 13050, Note_on_c, 4, 71, 0
10, 13056, Note_on_c, 4, 79, 109
10, 13056, Note_on_c, 4, 76, 87
10, 13172, Note_on_c, 4, 79, 0
10, 13172, Note_on_c, 4, 76, 0
10, 13184, Note_on_c, 4, 78, 91
10, 13184, Note_on_c, 4, 74, 72
10, 13300, Note_on_c, 4, 78, 0
10, 13300, Note_on_c, 4, 74, 0
10, 13312, Note_on_c, 4, 76, 92
10, 13312, Note_on_c, 4, 71, 71
10, 13370, Note_on_c, 4, 76, 0
10, 13370, Note_on_c, 4, 71, 0
10, 13376, Note_on_c, 4, 76, 94
10, 13376, Note_on_c, 4, 71, 73
10, 13434, Note_on_c, 4, 76, 0
10, 13434, Note_on_c, 4, 71, 0
10, 13440, Note_on_c, 4, 76, 97
10, 13440, Note_on_c, 4, 71, 76
10, 13556, Note_on_c, 4, 76, 0
10, 13556, Note_on_c, 4, 71, 0
10, 13568, Note_on_c, 4, 76, 99
10, 13568, Note_on_c, 4, 71, 79
10, 13684, Note_on_c, 4, 76, 0
10, 13684, Note_on_c, 4, 71, 0
10, 13696, Note_on_c, 4, 76, 97
10, 13696, Note_on_c, 4, 71, 76
10, 13754, Note_on_c, 4, 76, 0
10, 13754, Note_on_c, 4, 71, 0
10, 13760, Note_on_c, 4, 76, 98
10, 13760, Note_on_c, 4, 71, 74
10, 13876, Note_on_c, 4, 76, 0
10, 13876, Note_on_c, 4, 71, 0
10, 13888, Note_on_c, 4, 76, 97
10, 13888, Note_on_c, 4, 71, 78
10, 14004, Note_on_c, 4, 76, 0
10, 14004, Note_on_c, 4, 71, 0
10, 14016, Note_on_c, 4, 76, 96
10, 14016, Note_on_c, 4, 71, 76
10, 14074, Note_on_c, 4, 76, 0
10, 14074, Note_on_c, 4, 71, 0
10, 14080, Note_on_c, 4, 74, 94
10, 14080, Note_on_c, 4, 69, 74
10, 14311, Note_on_c, 4, 74, 0
10, 14311, Note_on_c, 4, 69, 0
10, 14336, Note_on_c, 4, 76, 105
10, 14336, Note_on_c, 4, 71, 83
10, 14394, Note_on_c, 4, 76, 0
10, 14394, Note_on_c, 4, 71, 0
10, 14400, Note_on_c, 4, 76, 97
10, 14400, Note_on_c, 4, 71, 74
10, 14458, Note_on_c, 4, 76, 0
10, 14458, Note_on_c, 4, 71, 0
10, 14464, Note_on_c, 4, 76, 95
10, 14464, Note_on_c, 4, 71, 74
10, 14580, Note_on_c, 4, 76, 0
10, 14580, Note_on_c, 4, 71, 0
10, 14592, Note_on_c, 4, 76, 97
10, 14592, Note_on_c, 4, 71, 79
10, 14708, Note_on_c, 4, 76, 0
10, 14708, Note_on_c, 4, 71, 0
10, 14720, Note_on_c, 4, 76, 94
10, 14720, Note_on_c, 4, 71, 77
10, 14778, Note_on_c, 4, 76, 0
10, 14778, Note_on_c, 4, 71, 0
10, 14784, Note_on_c, 4, 76, 95
10, 14784, Note_on_c, 4, 71, 75
10, 14900, Note_on_c, 4, 76, 0
10, 14900, Note_on_c, 4, 71, 0
10, 14912, Note_on_c, 4, 76, 97
10, 14912, Note_on_c, 4, 71, 76
10, 15028, Note_on_c, 4, 76, 0
10, 15028, Note_on_c, 4, 71, 0
10, 15040, Note_on_c, 4, 76, 95
10, 15040, Note_on_c, 4, 71, 74
10, 15098, Note_on_c, 4, 76, 0
10, 15098, Note_on_c, 4, 71, 0
10, 15104, Note_on_c, 4, 79, 107
10, 15104, Note_on_c, 4, 76, 90
10, 15220, Note_on_c, 4, 79, 0
10, 15220, Note_on_c, 4, 76, 0
10, 15232, Note_on_c, 4, 78, 94
10, 15232, Note_on_c, 4, 74, 73
10, 15348, Note_on_c, 4, 78, 0
10, 15348, Note_on_c, 4, 74, 0
10, 15360, Note_on_c, 4, 76, 92
10, 15360, Note_on_c, 4, 71, 70
10, 15418, Note_on_c, 4, 76, 0
10, 15418, Note_on_c, 4, 71, 0
10, 15424, Note_on_c, 4, 76, 94
10, 15424, Note_on_c, 4, 71, 73
10, 15482, Note_on_c, 4, 76, 0
10, 15482, Note_on_c, 4, 71, 0
10, 15488, Note_on_c, 4, 76, 95
10, 15488, Note_on_c, 4, 71, 78
10, 15604, Note_on_c, 4, 76, 0
10, 15604, Note_on_c, 4, 71, 0
10, 15616, Note_on_c, 4, 76, 99
10, 15616, Note_on_c, 4, 71, 78
10, 15732, Note_on_c, 4, 76, 0
10, 15732, Note_on_c, 4, 71, 0
10, 15744, Note_on_c, 4, 76, 96
10, 15744, Note_on_c, 4, 71, 76
10, 15802, Note_on_c, 4, 76, 0
10, 15802, Note_on_c, 4, 71, 0
10, 15808, Note_on_c, 4, 76, 95
10, 15808, Note_on_c, 4, 71, 75
10, 15924, Note_on_c, 4, 76, 0
10, 15924, Note_on_c, 4, 71, 0
10, 15936, Note_on_c, 4, 76, 98
10, 15936, Note_on_c, 4, 71, 77
10, 16052, Note_on_c, 4, 76, 0
10, 16052, Note_on_c, 4, 71, 0
10, 16064, Note_on_c, 4, 76, 94
10, 16064, Note_on_c, 4, 71, 77
10, 16122, Note_on_c, 4, 76, 0
10, 16122, Note_on_c, 4, 71, 0
10, 16128, Note_on_c, 4, 74, 94
10, 16128, Note_on_c, 4, 69, 72
10, 16359, Note_on_c, 4, 74, 0
10, 16359, Note_on_c, 4, 69, 0
10, 16384, Note_on_c, 4, 76, 103
10, 16384, Note_on_c, 4, 71, 91
10, 16384, Note_on_c, 4, 76, 90
10, 16442, Note_on_c, 4, 76, 0
10, 16442, Note_on_c, 4, 71, 0
10, 16442, Note_on_c, 4, 76, 0
10, 16448, Note_on_c, 4, 83, 116
10, 16448, Note_on_c, 4, 71, 77
10, 16448, Note_on_c, 4, 76, 80
10, 16506, Note_on_c, 4, 83, 0
10, 16506, Note_on_c, 4, 71, 0
10, 16506, Note_on_c, 4, 76, 0
10, 16512, Note_on_c, 4, 71, 75
10, 16512, Note_on_c, 4, 76, 75
10, 16576, Note_on_c, 4, 83, 86
10, 16628, Note_on_c, 4, 71, 0
10, 16628, Note_on_c, 4, 76, 0
10, 16640, Note_on_c, 4, 71, 79
10, 16640, Note_on_c, 4, 76, 79
10, 16692, Note_on_c, 4, 83, 0
10, 16704, Note_on_c, 4, 83, 95
10, 16756, Note_on_c, 4, 71, 0
10, 16756, Note_on_c, 4, 76, 0
10, 16768, Note_on_c, 4, 71, 77
10, 16768, Note_on_c, 4, 76, 77
10, 16820, Note_on_c, 4, 83, 0
10, 16826, Note_on_c, 4, 71, 0
10, 16826, Note_on_c, 4, 76, 0
10, 16832, Note_on_c, 4, 83, 96
10, 16832, Note_on_c, 4, 71, 74
10, 16832, Note_on_c, 4, 76, 77
10, 16948, Note_on_c, 4, 83, 0
10, 16948, Note_on_c, 4, 71, 0
10, 16948, Note_on_c, 4, 76, 0
10, 16960, Note_on_c, 4, 83, 97
10, 16960, Note_on_c, 4, 71, 78
10, 16960, Note_on_c, 4, 76, 74
10, 17018, Note_on_c, 4, 83, 0
10, 17024, Note_on_c, 4, 81, 91
10, 17076, Note_on_c, 4, 71, 0
10, 17076, Note_on_c, 4, 76, 0
10, 17088, Note_on_c, 4, 71, 77
10, 17088, Note_on_c, 4, 76, 77
10, 17140, Note_on_c, 4, 81, 0
10, 17146, Note_on_c, 4, 71, 0
10, 17146, Note_on_c, 4, 76, 0
10, 17152, Note_on_c, 4, 86, 109
10, 17152, Note_on_c, 4, 76, 84
10, 17152, Note_on_c, 4, 79, 86
10, 17268, Note_on_c, 4, 76, 0
10, 17268, Note_on_c, 4, 79, 0
10, 17280, Note_on_c, 4, 74, 74
10, 17280, Note_on_c, 4, 78, 74
10, 17383, Note_on_c, 4, 86, 0
10, 17396, Note_on_c, 4, 74, 0
10, 17396, Note_on_c, 4, 78, 0
10, 17408, Note_on_c, 4, 76, 77
10, 17408, Note_on_c, 4, 71, 75
10, 17408, Note_on_c, 4, 76, 73
10, 17466, Note_on_c, 4, 76, 0
10, 17466, Note_on_c, 4, 71, 0
10, 17466, Note_on_c, 4, 76, 0
10, 17472, Note_on_c, 4, 83, 110
10, 17472, Note_on_c, 4, 71, 73
10, 17472, Note_on_c, 4, 76, 74
10, 17530, Note_on_c, 4, 83, 0
10, 17530, Note_on_c, 4, 71, 0
10, 17530, Note_on_c, 4, 76, 0
10, 17536, Note_on_c, 4, 71, 75
10, 17536, Note_on_c, 4, 76, 78
10, 17600, Note_on_c, 4, 83, 84
10, 17652, Note_on_c, 4, 71, 0
10, 17652, Note_on_c, 4, 76, 0
10, 17664, Note_on_c, 4, 71, 78
10, 17664, Note_on_c, 4, 76, 77
10, 17716, Note_on_c, 4, 83, 0
10, 17728, Note_on_c, 4, 83, 95
10, 17780, Note_on_c, 4, 71, 0
10, 17780, Note_on_c, 4, 76, 0
10, 17792, Note_on_c, 4, 71, 77
10, 17792, Note_on_c, 4, 76, 74
10, 17844, Note_on_c, 4, 83, 0
10, 17850, Note_on_c, 4, 71, 0
10, 17850, Note_on_c, 4, 76, 0
10, 17856, Note_on_c, 4, 83, 98
10, 17856, Note_on_c, 4, 71, 77
10, 17856, Note_on_c, 4, 76, 74
10, 17972, Note_on_c, 4, 83, 0
10, 17972, Note_on_c, 4, 71, 0
10, 17972, Note_on_c, 4, 76, 0
10, 17984, Note_on_c, 4, 83, 95
10, 17984, Note_on_c, 4, 71, 75
10, 17984, Note_on_c, 4, 76, 75
10, 18042, Note_on_c, 4, 83, 0
10, 18048, Note_on_c, 4, 81, 89
10, 18100, Note_on_c, 4, 71, 0
10, 18100, Note_on_c, 4, 76, 0
10, 18112, Note_on_c, 4, 71, 75
10, 18112, Note_on_c, 4, 76, 76
10, 18164, Note_on_c, 4, 81, 0
10, 18170, Note_on_c, 4, 71, 0
10, 18170, Note_on_c, 4, 76, 0
10, 18176, Note_on_c, 4, 74, 79
10, 18176, Note_on_c, 4, 69, 74
10, 18176, Note_on_c, 4, 74, 73
10, 18407, Note_on_c, 4, 74, 0
10, 18407, Note_on_c, 4, 69, 0
10, 18407, Note_on_c, 4, 74, 0
10, 18432, Note_on_c, 4, 76, 103
10, 18432, Note_on_c, 4, 71, 83
10, 18432, Note_on_c, 4, 76, 82
10, 18490, Note_on_c, 4, 76, 0
10, 18490, Note_on_c, 4, 71, 0
10, 18490, Note_on_c, 4, 76, 0
10, 18496, Note_on_c, 4, 83, 111
10, 18496, Note_on_c, 4, 71, 75
10, 18496, Note_on_c, 4, 76, 74
10, 18554, Note_on_c, 4, 83, 0
10, 18554, Note_on_c, 4, 71, 0
10, 18554, Note_on_c, 4, 76, 0
10, 18560, Note_on_c, 4, 71, 78
10, 18560, Note_on_c, 4, 76, 76
10, 18624, Note_on_c, 4, 83, 86
10, 18676, Note_on_c, 4, 71, 0
10, 18676, Note_on_c, 4, 76, 0
10, 18688, Note_on_c, 4, 71, 81
10, 18688, Note_on_c, 4, 76, 78
10, 18740, Note_on_c, 4, 83, 0
10, 18752, Note_on_c, 4, 83, 95
10, 18804, Note_on_c, 4, 71, 0
10, 18804, Note_on_c, 4, 76, 0
10, 18816, Note_on_c, 4, 71, 74
10, 18816, Note_on_c, 4, 76, 76
10, 18868, Note_on_c, 4, 83, 0
10, 18874, Note_on_c, 4, 71, 0
10, 18874, Note_on_c, 4, 76, 0
10, 18880, Note_on_c, 4, 83, 97
10, 18880, Note_on_c, 4, 71, 77
10, 18880, Note_on_c, 4, 76, 77
10, 18996, Note_on_c, 4, 83, 0
10, 18996, Note_on_c, 4, 71, 0
10, 18996, Note_on_c, 4, 76, 0
10, 19008, Note_on_c, 4, 83, 98
10, 19008, Note_on_c, 4, 71, 76
10, 19008, Note_on_c, 4, 76, 76
10, 19066, Note_on_c, 4, 83, 0
10, 19072, Note_on_c, 4, 81, 91
10, 19124, Note_on_c, 4, 71, 0
10, 19124, Note_on_c, 4, 76, 0
10, 19136, Note_on_c, 4, 71, 77
10, 19136, Note_on_c, 4, 76, 78
10, 19188, Note_on_c, 4, 81, 0
10, 19194, Note_on_c, 4, 71, 0
10, 19194, Note_on_c, 4, 76, 0
10, 19200, Note_on_c, 4, 86, 108
10, 19200, Note_on_c, 4, 76, 87
10, 19200, Note_on_c, 4, 79, 87
10, 19316, Note_on_c, 4, 76, 0
10, 19316, Note_on_c, 4, 79, 0
10, 19328, Note_on_c, 4, 74, 74
10, 19328, Note_on_c, 4, 78, 74
10, 19431, Note_on_c, 4, 86, 0
10, 19444, Note_on_c, 4, 74, 0
10, 19444, Note_on_c, 4, 78, 0
10, 19456, Note_on_c, 4, 71, 72
10, 19456, Note_on_c, 4, 76, 75
10, 19514, Note_on_c, 4, 71, 0
10, 19514, Note_on_c, 4, 76, 0
10, 19520, Note_on_c, 4, 88, 88
10, 19520, Note_on_c, 4, 71, 76
10, 19520, Note_on_c, 4, 76, 75
10, 19578, Note_on_c, 4, 88, 0
10, 19578, Note_on_c, 4, 71, 0
10, 19578, Note_on_c, 4, 76, 0
10, 19584, Note_on_c, 4, 91, 103
10, 19584, Note_on_c, 4, 71, 75
10, 19584, Note_on_c, 4, 76, 75
10, 19642, Note_on_c, 4, 91, 0
10, 19648, Note_on_c, 4, 90, 92
10, 19700, Note_on_c, 4, 71, 0
10, 19700, Note_on_c, 4, 76, 0
10, 19712, Note_on_c, 4, 71, 80
10, 19712, Note_on_c, 4, 76, 78
10, 19764, Note_on_c, 4, 90, 0
10, 19776, Note_on_c, 4, 83, 79
10, 19828, Note_on_c, 4, 71, 0
10, 19828, Note_on_c, 4, 76, 0
10, 19834, Note_on_c, 4, 83, 0
10, 19840, Note_on_c, 4, 86, 102
10, 19840, Note_on_c, 4, 71, 75
10, 19840, Note_on_c, 4, 76, 75
10, 19898, Note_on_c, 4, 86, 0
10, 19898, Note_on_c, 4, 71, 0
10, 19898, Note_on_c, 4, 76, 0
10, 19904, Note_on_c, 4, 81, 86
10, 19904, Note_on_c, 4, 71, 75
10, 19904, Note_on_c, 4, 76, 74
10, 19962, Note_on_c, 4, 81, 0
10, 19968, Note_on_c, 4, 83, 103
10, 20020, Note_on_c, 4, 71, 0
10, 20020, Note_on_c, 4, 76, 0
10, 20026, Note_on_c, 4, 83, 0
10, 20032, Note_on_c, 4, 78, 83
10, 20032, Note_on_c, 4, 71, 75
10, 20032, Note_on_c, 4, 76, 77
10, 20090, Note_on_c, 4, 78, 0
10, 20096, Note_on_c, 4, 79, 98
10, 20148, Note_on_c, 4, 71, 0
10, 20148, Note_on_c, 4, 76, 0
10, 20154, Note_on_c, 4, 79, 0
10, 20160, Note_on_c, 4, 78, 92
10, 20160, Note_on_c, 4, 71, 74
10, 20160, Note_on_c, 4, 76, 75
10, 20218, Note_on_c, 4, 78, 0
10, 20218, Note_on_c, 4, 71, 0
10, 20218, Note_on_c, 4, 76, 0
10, 20224, Note_on_c, 4, 76, 92
10, 20224, Note_on_c, 4, 69, 76
10, 20224, Note_on_c, 4, 74, 75
10, 20282, Note_on_c, 4, 76, 0
10, 20288, Note_on_c, 4, 78, 102
10, 20346, Note_on_c, 4, 78, 0
10, 20352, Note_on_c, 4, 76, 90
10, 20410, Note_on_c, 4, 76, 0
10, 20416, Note_on_c, 4, 74, 90
10, 20455, Note_on_c, 4, 69, 0
10, 20455, Note_on_c, 4, 74, 0
10, 20474, Note_on_c, 4, 74, 0
10, 20480, Note_on_c, 4, 76, 122
10, 20480, Note_on_c, 4, 88, 125
10, 20480, Note_on_c, 4, 71, 83
10, 20480, Note_on_c, 4, 76, 83
10, 20538, Note_on_c, 4, 76, 0
10, 20538, Note_on_c, 4, 88, 0
10, 20538, Note_on_c, 4, 71, 0
10, 20538, Note_on_c, 4, 76, 0
10, 20544, Note_on_c, 4, 83, 116
10, 20544, Note_on_c, 4, 95, 117
10, 20544, Note_on_c, 4, 71, 76
10, 20544, Note_on_c, 4, 76, 74
10, 20602, Note_on_c, 4, 83, 0
10, 20602, Note_on_c, 4, 95, 0
10, 20602, Note_on_c, 4, 71, 0
10, 20602, Note_on_c, 4, 76, 0
10, 20608, Note_on_c, 4, 71, 77
10, 20608, Note_on_c, 4, 76, 77
10, 20672, Note_on_c, 4, 83, 84
10, 20672, Note_on_c, 4, 95, 86
10, 20724, Note_on_c, 4, 71, 0
10, 20724, Note_on_c, 4, 76, 0
10, 20736, Note_on_c, 4, 71, 78
10, 20736, Note_on_c, 4, 76, 81
10, 20788, Note_on_c, 4, 83, 0
10, 20788, Note_on_c, 4, 95, 0
10, 20800, Note_on_c, 4, 83, 94
10, 20800, Note_on_c, 4, 95, 94
10, 20852, Note_on_c, 4, 71, 0
10, 20852, Note_on_c, 4, 76, 0
10, 20864, Note_on_c, 4, 71, 74
10, 20864, Note_on_c, 4, 76, 77
10, 20916, Note_on_c, 4, 83, 0
10, 20916, Note_on_c, 4, 95, 0
10, 20922, Note_on_c, 4, 71, 0
10, 20922, Note_on_c, 4, 76, 0
10, 20928, Note_on_c, 4, 83, 95
10, 20928, Note_on_c, 4, 95, 95
10, 20928, Note_on_c, 4, 71, 77
10, 20928, Note_on_c, 4, 76, 77
10, 21044, Note_on_c, 4, 83, 0
10, 21044, Note_on_c, 4, 95, 0
10, 21044, Note_on_c, 4, 71, 0
10, 21044, Note_on_c, 4, 76, 0
10, 21056, Note_on_c, 4, 83, 97
10, 21056, Note_on_c, 4, 95, 95
10, 21056, Note_on_c, 4, 71, 78
10, 21056, Note_on_c, 4, 76, 77
10, 21114, Note_on_c, 4, 83, 0
10, 21114, Note_on_c, 4, 95, 0
10, 21120, Note_on_c, 4, 81, 92
10, 21120, Note_on_c, 4, 93, 88
10, 21172, Note_on_c, 4, 71, 0
10, 21172, Note_on_c, 4, 76, 0
10, 21184, Note_on_c, 4, 71, 75
10, 21184, Note_on_c, 4, 76, 76
10, 21236, Note_on_c, 4, 81, 0
10, 21236, Note_on_c, 4, 93, 0
10, 21242, Note_on_c, 4, 71, 0
10, 21242, Note_on_c, 4, 76, 0
10, 21248, Note_on_c, 4, 86, 107
10, 21248, Note_on_c, 4, 98, 110
10, 21248, Note_on_c, 4, 76, 86
10, 21248, Note_on_c, 4, 79, 87
10, 21364, Note_on_c, 4, 76, 0
10, 21364, Note_on_c, 4, 79, 0
10, 21376, Note_on_c, 4, 74, 73
10, 21376, Note_on_c, 4, 78, 73
10, 21479, Note_on_c, 4, 86, 0
10, 21479, Note_on_c, 4, 98, 0
10, 21492, Note_on_c, 4, 74, 0
10, 21492, Note_on_c, 4, 78, 0
10, 21504, Note_on_c, 4, 76, 78
10, 21504, Note_on_c, 4, 88, 78
10, 21504, Note_on_c, 4, 71, 75
10, 21504, Note_on_c, 4, 76, 74
10, 21562, Note_on_c, 4, 76, 0
10, 21562, Note_on_c, 4, 88, 0
10, 21562, Note_on_c, 4, 71, 0
10, 21562, Note_on_c, 4, 76, 0
10, 21568, Note_on_c, 4, 83, 108
10, 21568, Note_on_c, 4, 95, 110
10, 21568, Note_on_c, 4, 71, 73
10, 21568, Note_on_c, 4, 76, 75
10, 21626, Note_on_c, 4, 83, 0
10, 21626, Note_on_c, 4, 95, 0
10, 21626, Note_on_c, 4, 71, 0
10, 21626, Note_on_c, 4, 76, 0
10, 21632, Note_on_c, 4, 71, 74
10, 21632, Note_on_c, 4, 76, 77
10, 21696, Note_on_c, 4, 83, 86
10, 21696, Note_on_c, 4, 95, 87
10, 21748, Note_on_c, 4, 71, 0
10, 21748, Note_on_c, 4, 76, 0
10, 21760, Note_on_c, 4, 71, 80
10, 21760, Note_on_c, 4, 76, 79
10, 21812, Note_on_c, 4, 83, 0
10, 21812, Note_on_c, 4, 95, 0
10, 21824, Note_on_c, 4, 83, 96
10, 21824, Note_on_c, 4, 95, 95
10, 21876, Note_on_c, 4, 71, 0
10, 21876, Note_on_c, 4, 76, 0
10, 21888, Note_on_c, 4, 71, 77
10, 21888, Note_on_c, 4, 76, 77
10, 21940, Note_on_c, 4, 83, 0
10, 21940, Note_on_c, 4, 95, 0
10, 21946, Note_on_c, 4, 71, 0
10, 21946, Note_on_c, 4, 76, 0
10, 21952, Note_on_c, 4, 83, 97
10, 21952, Note_on_c, 4, 95, 95
10, 21952, Note_on_c, 4, 71, 76
10, 21952, Note_on_c, 4, 76, 77
10, 22068, Note_on_c, 4, 83, 0
10, 22068, Note_on_c, 4, 95, 0
10, 22068, Note_on_c, 4, 71, 0
10, 22068, Note_on_c, 4, 76, 0
10, 22080, Note_on_c, 4, 83, 97
10, 22080, Note_on_c, 4, 95, 97
10, 22080, Note_on_c, 4, 71, 78
10, 22080, Note_on_c, 4, 76, 77
10, 22138, Note_on_c, 4, 83, 0
10, 22138, Note_on_c, 4, 95, 0
10, 22144, Note_on_c, 4, 81, 89
10, 22144, Note_on_c, 4, 93, 89
10, 22196, Note_on_c, 4, 71, 0
10, 22196, Note_on_c, 4, 76, 0
10, 22208, Note_on_c, 4, 71, 75
10, 22208, Note_on_c, 4, 76, 77
10, 22260, Note_on_c, 4, 81, 0
10, 22260, Note_on_c, 4, 93, 0
10, 22266, Note_on_c, 4, 71, 0
10, 22266, Note_on_c, 4, 76, 0
10, 22272, Note_on_c, 4, 74, 80
10, 22272, Note_on_c, 4, 86, 79
10, 22272, Note_on_c, 4, 69, 72
10, 22272, Note_on_c, 4, 74, 73
10, 22503, Note_on_c, 4, 74, 0
10, 22503, Note_on_c, 4, 86, 0
10, 22503, Note_on_c, 4, 69, 0
10, 22503, Note_on_c, 4, 74, 0
10, 22528, Note_on_c, 4, 76, 101
10, 22528, Note_on_c, 4, 88, 103
10, 22528, Note_on_c, 4, 71, 83
10, 22528, Note_on_c, 4, 76, 84
10, 22586, Note_on_c, 4, 76, 0
10, 22586, Note_on_c, 4, 88, 0
10, 22586, Note_on_c, 4, 71, 0
10, 22586, Note_on_c, 4, 76, 0
10, 22592, Note_on_c, 4, 83, 113
10, 22592, Note_on_c, 4, 95, 114
10, 22592, Note_on_c, 4, 71, 76
10, 22592, Note_on_c, 4, 76, 74
10, 22650, Note_on_c, 4, 83, 0
10, 22650, Note_on_c, 4, 95, 0
10, 22650, Note_on_c, 4, 71, 0
10, 22650, Note_on_c, 4, 76, 0
10, 22656, Note_on_c, 4, 71, 74
10, 22656, Note_on_c, 4, 76, 76
10, 22720, Note_on_c, 4, 83, 88
10, 22720, Note_on_c, 4, 95, 86
10, 22772, Note_on_c, 4, 71, 0
10, 22772, Note_on_c, 4, 76, 0
10, 22784, Note_on_c, 4, 71, 78
10, 22784, Note_on_c, 4, 76, 81
10, 22836, Note_on_c, 4, 83, 0
10, 22836, Note_on_c, 4, 95, 0
10, 22848, Note_on_c, 4, 83, 95
10, 22848, Note_on_c, 4, 95, 93
10, 22900, Note_on_c, 4, 71, 0
10, 22900, Note_on_c, 4, 76, 0
10, 22912, Note_on_c, 4, 71, 77
10, 22912, Note_on_c, 4, 76, 74
10, 22964, Note_on_c, 4, 83, 0
10, 22964, Note_on_c, 4, 95, 0
10, 22970, Note_on_c, 4, 71, 0
10, 22970, Note_on_c, 4, 76, 0
10, 22976, Note_on_c, 4, 83, 98
10, 22976, Note_on_c, 4, 95, 96
10, 22976, Note_on_c, 4, 71, 77
10, 22976, Note_on_c, 4, 76, 78
10, 23092, Note_on_c, 4, 83, 0
10, 23092, Note_on_c, 4, 95, 0
10, 23092, Note_on_c, 4, 71, 0
10, 23092, Note_on_c, 4, 76, 0
10, 23104, Note_on_c, 4, 83, 95
10, 23104, Note_on_c, 4, 95, 95
10, 23104, Note_on_c, 4, 71, 77
10, 23104, Note_on_c, 4, 76, 76
10, 23162, Note_on_c, 4, 83, 0
10, 23162, Note_on_c, 4, 95, 0
10, 23168, Note_on_c, 4, 81, 90
10, 23168, Note_on_c, 4, 93, 88
10, 23220, Note_on_c, 4, 71, 0
10, 23220, Note_on_c, 4, 76, 0
10, 23232, Note_on_c, 4, 71, 77
10, 23232, Note_on_c, 4, 76, 76
10, 23284, Note_on_c, 4, 81, 0
10, 23284, Note_on_c, 4, 93, 0
10, 23290, Note_on_c, 4, 71, 0
10, 23290, Note_on_c, 4, 76, 0
10, 23296, Note_on_c, 4, 86, 107
10, 23296, Note_on_c, 4, 98, 108
10, 23296, Note_on_c, 4, 76, 85
10, 23296, Note_on_c, 4, 79, 87
10, 23412, Note_on_c, 4, 76, 0
10, 23412, Note_on_c, 4, 79, 0
10, 23424, Note_on_c, 4, 74, 73
10, 23424, Note_on_c, 4, 78, 73
10, 23527, Note_on_c, 4, 86, 0
10, 23527, Note_on_c, 4, 98, 0
10, 23540, Note_on_c, 4, 74, 0
10, 23540, Note_on_c, 4, 78, 0
10, 23552, Note_on_c, 4, 76, 76
10, 23552, Note_on_c, 4, 71, 66
10, 23610, Note_on_c, 4, 76, 0
10, 23610, Note_on_c, 4, 71, 0
10, 23616, Note_on_c, 4, 74, 86
10, 23616, Note_on_c, 4, 71, 73
10, 23674, Note_on_c, 4, 74, 0
10, 23674, Note_on_c, 4, 71, 0
10, 23680, Note_on_c, 4, 76, 99
10, 23680, Note_on_c, 4, 72, 81
10, 23738, Note_on_c, 4, 76, 0
10, 23738, Note_on_c, 4, 72, 0
10, 23744, Note_on_c, 4, 78, 100
10, 23744, Note_on_c, 4, 75, 83
10, 23802, Note_on_c, 4, 78, 0
10, 23802, Note_on_c, 4, 75, 0
10, 23808, Note_on_c, 4, 79, 104
10, 23808, Note_on_c, 4, 76, 84
10, 23866, Note_on_c, 4, 79, 0
10, 23866, Note_on_c, 4, 76, 0
10, 23872, Note_on_c, 4, 78, 93
10, 23872, Note_on_c, 4, 75, 73
10, 23930, Note_on_c, 4, 78, 0
10, 23930, Note_on_c, 4, 75, 0
10, 23936, Note_on_c, 4, 79, 102
10, 23936, Note_on_c, 4, 76, 80
10, 23994, Note_on_c, 4, 79, 0
10, 23994, Note_on_c, 4, 76, 0
10, 24000, Note_on_c, 4, 81, 100
10, 24000, Note_on_c, 4, 76, 76
10, 24058, Note_on_c, 4, 81, 0
10, 24058, Note_on_c, 4, 76, 0
10, 24064, Note_on_c, 4, 83, 107
10, 24064, Note_on_c, 4, 79, 86
10, 24122, Note_on_c, 4, 83, 0
10, 24122, Note_on_c, 4, 79, 0
10, 24128, Note_on_c, 4, 81, 89
10, 24128, Note_on_c, 4, 78, 72
10, 24186, Note_on_c, 4, 81, 0
10, 24186, Note_on_c, 4, 78, 0
10, 24192, Note_on_c, 4, 83, 100
10, 24192, Note_on_c, 4, 79, 79
10, 24250, Note_on_c, 4, 83, 0
10, 24250, Note_on_c, 4, 79, 0
10, 24256, Note_on_c, 4, 84, 101
10, 24256, Note_on_c, 4, 81, 80
10, 24314, Note_on_c, 4, 84, 0
10, 24314, Note_on_c, 4, 81, 0
10, 24320, Note_on_c, 4, 86, 106
10, 24320, Note_on_c, 4, 83, 85
10, 24378, Note_on_c, 4, 86, 0
10, 24378, Note_on_c, 4, 83, 0
10, 24384, Note_on_c, 4, 83, 86
10, 24384, Note_on_c, 4, 79, 68
10, 24442, Note_on_c, 4, 83, 0
10, 24442, Note_on_c, 4, 79, 0
10, 24448, Note_on_c, 4, 86, 101
10, 24448, Note_on_c, 4, 83, 81
10, 24506, Note_on_c, 4, 86, 0
10, 24506, Note_on_c, 4, 83, 0
10, 24512, Note_on_c, 4, 88, 102
10, 24512, Note_on_c, 4, 86, 85
10, 24570, Note_on_c, 4, 88, 0
10, 24570, Note_on_c, 4, 86, 0
10, 24576, Note_on_c, 4, 86, 93
10, 24634, Note_on_c, 4, 86, 0
10, 24640, Note_on_c, 4, 79, 79
10, 24698, Note_on_c, 4, 79, 0
10, 24704, Note_on_c, 4, 74, 78
10, 24762, Note_on_c, 4, 74, 0
10, 24768, Note_on_c, 4, 82, 113
10, 24884, Note_on_c, 4, 82, 0
10, 24896, Note_on_c, 4, 81, 94
10, 24954, Note_on_c, 4, 81, 0
10, 24960, Note_on_c, 4, 77, 85
10, 25018, Note_on_c, 4, 77, 0
10, 25024, Note_on_c, 4, 75, 89
10, 25082, Note_on_c, 4, 75, 0
10, 25088, Note_on_c, 4, 70, 86
10, 25146, Note_on_c, 4, 70, 0
10, 25152, Note_on_c, 4, 67, 85
10, 25210, Note_on_c, 4, 67, 0
10, 25216, Note_on_c, 4, 79, 118
10, 25274, Note_on_c, 4, 79, 0
10, 25280, Note_on_c, 4, 77, 92
10, 25338, Note_on_c, 4, 77, 0
10, 25344, Note_on_c, 4, 82, 111
10, 25402, Note_on_c, 4, 82, 0
10, 25408, Note_on_c, 4, 81, 93
10, 25466, Note_on_c, 4, 81, 0
10, 25472, Note_on_c, 4, 79, 89
10, 25530, Note_on_c, 4, 79, 0
10, 25536, Note_on_c, 4, 81, 103
10, 25594, Note_on_c, 4, 81, 0
10, 25600, Note_on_c, 4, 74, 81
10, 25658, Note_on_c, 4, 74, 0
10, 25664, Note_on_c, 4, 72, 87
10, 25722, Note_on_c, 4, 72, 0
10, 25728, Note_on_c, 4, 70, 88
10, 25786, Note_on_c, 4, 70, 0
10, 25792, Note_on_c, 4, 69, 89
10, 25850, Note_on_c, 4, 69, 0
10, 25856, Note_on_c, 4, 67, 92
10, 25914, Note_on_c, 4, 67, 0
10, 25920, Note_on_c, 4, 67, 96
10, 25978, Note_on_c, 4, 67, 0
10, 25984, Note_on_c, 4, 74, 111
10, 26042, Note_on_c, 4, 74, 0
10, 26048, Note_on_c, 4, 72, 93
10, 26106, Note_on_c, 4, 72, 0
10, 26112, Note_on_c, 4, 86, 126
10, 26170, Note_on_c, 4, 86, 0
10, 26176, Note_on_c, 4, 67, 73
10, 26234, Note_on_c, 4, 67, 0
10, 26240, Note_on_c, 4, 84, 118
10, 26298, Note_on_c, 4, 84, 0
10, 26304, Note_on_c, 4, 65, 73
10, 26362, Note_on_c, 4, 65, 0
10, 26368, Note_on_c, 4, 70, 109
10, 26426, Note_on_c, 4, 70, 0
10, 26432, Note_on_c, 4, 81, 122
10, 26490, Note_on_c, 4, 81, 0
10, 26496, Note_on_c, 4, 79, 94
10, 26554, Note_on_c, 4, 79, 0
10, 26560, Note_on_c, 4, 77, 90
10, 26618, Note_on_c, 4, 77, 0
10, 26624, Note_on_c, 4, 74, 102
10, 26624, Note_on_c, 4, 79, 105
10, 26682, Note_on_c, 4, 74, 0
10, 26682, Note_on_c, 4, 79, 0
10, 26688, Note_on_c, 4, 74, 95
10, 26688, Note_on_c, 4, 79, 95
10, 26746, Note_on_c, 4, 74, 0
10, 26746, Note_on_c, 4, 79, 0
10, 26752, Note_on_c, 4, 74, 95
10, 26752, Note_on_c, 4, 79, 97
10, 26868, Note_on_c, 4, 74, 0
10, 26868, Note_on_c, 4, 79, 0
10, 26880, Note_on_c, 4, 74, 98
10, 26880, Note_on_c, 4, 79, 100
10, 26996, Note_on_c, 4, 74, 0
10, 26996, Note_on_c, 4, 79, 0
10, 27008, Note_on_c, 4, 74, 96
10, 27008, Note_on_c, 4, 79, 95
10, 27066, Note_on_c, 4, 74, 0
10, 27066, Note_on_c, 4, 79, 0
10, 27072, Note_on_c, 4, 74, 97
10, 27072, Note_on_c, 4, 79, 96
10, 27135, Note_on_c, 4, 74, 0
10, 27135, Note_on_c, 4, 79, 0
10, 27200, Note_on_c, 4, 74, 97
10, 27200, Note_on_c, 4, 79, 94
10, 27316, Note_on_c, 4, 74, 0
10, 27316, Note_on_c, 4, 79, 0
10, 27328, Note_on_c, 4, 74, 96
10, 27328, Note_on_c, 4, 79, 94
10, 27386, Note_on_c, 4, 74, 0
10, 27386, Note_on_c, 4, 79, 0
10, 27392, Note_on_c, 4, 79, 106
10, 27392, Note_on_c, 4, 82, 108
10, 27508, Note_on_c, 4, 79, 0
10, 27508, Note_on_c, 4, 82, 0
10, 27520, Note_on_c, 4, 77, 94
10, 27520, Note_on_c, 4, 81, 94
10, 27636, Note_on_c, 4, 77, 0
10, 27636, Note_on_c, 4, 81, 0
10, 27648, Note_on_c, 4, 74, 95
10, 27648, Note_on_c, 4, 79, 95
10, 27706, Note_on_c, 4, 74, 0
10, 27706, Note_on_c, 4, 79, 0
10, 27712, Note_on_c, 4, 74, 96
10, 27712, Note_on_c, 4, 79, 96
10, 27770, Note_on_c, 4, 74, 0
10, 27770, Note_on_c, 4, 79, 0
10, 27776, Note_on_c, 4, 74, 96
10, 27776, Note_on_c, 4, 79, 95
10, 27892, Note_on_c, 4, 74, 0
10, 27892, Note_on_c, 4, 79, 0
10, 27904, Note_on_c, 4, 74, 97
10, 27904, Note_on_c, 4, 79, 99
10, 28020, Note_on_c, 4, 74, 0
10, 28020, Note_on_c, 4, 79, 0
10, 28032, Note_on_c, 4, 74, 98
10, 28032, Note_on_c, 4, 79, 95
10, 28090, Note_on_c, 4, 74, 0
10, 28090, Note_on_c, 4, 79, 0
10, 28096, Note_on_c, 4, 74, 94
10, 28096, Note_on_c, 4, 79, 96
10, 28159, Note_on_c, 4, 74, 0
10, 28159, Note_on_c, 4, 79, 0
10, 28224, Note_on_c, 4, 74, 94
10, 28224, Note_on_c, 4, 79, 94
10, 28340, Note_on_c, 4, 74, 0
10, 28340, Note_on_c, 4, 79, 0
10, 28352, Note_on_c, 4, 74, 95
10, 28352, Note_on_c, 4, 79, 98
10, 28410, Note_on_c, 4, 74, 0
10, 28410, Note_on_c, 4, 79, 0
10, 28416, Note_on_c, 4, 72, 94
10, 28416, Note_on_c, 4, 77, 94
10, 28647, Note_on_c, 4, 72, 0
10, 28647, Note_on_c, 4, 77, 0
10, 28736, Note_on_c, 4, 91, 86
10, 28794, Note_on_c, 4, 91, 0
10, 28800, Note_on_c, 4, 86, 81
10, 28858, Note_on_c, 4, 86, 0
10, 28864, Note_on_c, 4, 82, 82
10, 28980, Note_on_c, 4, 82, 0
10, 28992, Note_on_c, 4, 81, 87
10, 29050, Note_on_c, 4, 81, 0
10, 29056, Note_on_c, 4, 77, 83
10, 29114, Note_on_c, 4, 77, 0
10, 29120, Note_on_c, 4, 75, 88
10, 29178, Note_on_c, 4, 75, 0
10, 29184, Note_on_c, 4, 74, 95
10, 29242, Note_on_c, 4, 74, 0
10, 29312, Note_on_c, 4, 79, 85
10, 29370, Note_on_c, 4, 79, 0
10, 29376, Note_on_c, 4, 82, 102
10, 29434, Note_on_c, 4, 82, 0
10, 29440, Note_on_c, 4, 81, 95
10, 29498, Note_on_c, 4, 81, 0
10, 29504, Note_on_c, 4, 79, 90
10, 29562, Note_on_c, 4, 79, 0
10, 29568, Note_on_c, 4, 77, 89
10, 29626, Note_on_c, 4, 77, 0
10, 29632, Note_on_c, 4, 74, 88
10, 29690, Note_on_c, 4, 74, 0
10, 29696, Note_on_c, 4, 79, 112
10, 29754, Note_on_c, 4, 79, 0
10, 29760, Note_on_c, 4, 79, 98
10, 29823, Note_on_c, 4, 79, 0
10, 29888, Note_on_c, 4, 77, 103
10, 29888, Note_on_c, 4, 81, 103
10, 30061, Note_on_c, 4, 77, 0
10, 30061, Note_on_c, 4, 81, 0
10, 30080, Note_on_c, 4, 79, 90
10, 30138, Note_on_c, 4, 79, 0
10, 30144, Note_on_c, 4, 81, 101
10, 30202, Note_on_c, 4, 81, 0
10, 30208, Note_on_c, 4, 82, 102
10, 30266, Note_on_c, 4, 82, 0
10, 30272, Note_on_c, 4, 82, 97
10, 30388, Note_on_c, 4, 82, 0
10, 30400, Note_on_c, 4, 81, 103
10, 30400, Note_on_c, 4, 84, 103
10, 30516, Note_on_c, 4, 81, 0
10, 30516, Note_on_c, 4, 84, 0
10, 30528, Note_on_c, 4, 82, 89
10, 30586, Note_on_c, 4, 82, 0
10, 30592, Note_on_c, 4, 81, 92
10, 30650, Note_on_c, 4, 81, 0
10, 30656, Note_on_c, 4, 74, 84
10, 30656, Note_on_c, 4, 77, 85
10, 30714, Note_on_c, 4, 74, 0
10, 30714, Note_on_c, 4, 77, 0
10, 30720, Note_on_c, 4, 79, 102
10, 30951, Note_on_c, 4, 79, 0
10, 30976, Note_on_c, 4, 82, 106
10, 31207, Note_on_c, 4, 82, 0
10, 31232, Note_on_c, 4, 81, 91
10, 31463, Note_on_c, 4, 81, 0
10, 31488, Note_on_c, 4, 84, 106
10, 31719, Note_on_c, 4, 84, 0
10, 31744, Note_on_c, 4, 82, 96
10, 31975, Note_on_c, 4, 82, 0
10, 32000, Note_on_c, 4, 87, 107
10, 32231, Note_on_c, 4, 87, 0
10, 32256, Note_on_c, 4, 86, 92
10, 32487, Note_on_c, 4, 86, 0
10, 32512, Note_on_c, 4, 93, 111
10, 32743, Note_on_c, 4, 93, 0
10, 32768, Note_on_c, 4, 91, 97
10, 33486, Note_on_c, 4, 91, 0
10, 33536, Note_on_c, 4, 90, 95
10, 33652, Note_on_c, 4, 90, 0
10, 33664, Note_on_c, 4, 91, 97
10, 33722, Note_on_c, 4, 91, 0
10, 33728, Note_on_c, 4, 90, 90
10, 33786, Note_on_c, 4, 90, 0
10, 33792, Note_on_c, 4, 88, 91
10, 34766, Note_on_c, 4, 88, 0
10, 34816, Program_c, 4, 94
10, 34816, Note_on_c, 4, 64, 71
10, 34874, Note_on_c, 4, 64, 0
10, 34880, Note_on_c, 4, 62, 68
10, 34938, Note_on_c, 4, 62, 0
10, 34944, Note_on_c, 4, 60, 71
10, 35002, Note_on_c, 4, 60, 0
10, 35008, Note_on_c, 4, 59, 70
10, 35066, Note_on_c, 4, 59, 0
10, 35072, Note_on_c, 4, 55, 72
10, 35130, Note_on_c, 4, 55, 0
10, 35136, Note_on_c, 4, 53, 72
10, 35194, Note_on_c, 4, 53, 0
10, 35200, Note_on_c, 4, 52, 72
10, 35258, Note_on_c, 4, 52, 0
10, 35264, Note_on_c, 4, 50, 71
10, 35322, Note_on_c, 4, 50, 0
10, 35328, Note_on_c, 4, 48, 75
10, 35386, Note_on_c, 4, 48, 0
10, 35392, Note_on_c, 4, 47, 72
10, 35450, Note_on_c, 4, 47, 0
10, 35456, Note_on_c, 4, 45, 69
10, 35514, Note_on_c, 4, 45, 0
10, 35520, Note_on_c, 4, 43, 69
10, 35578, Note_on_c, 4, 43, 0
10, 35584, Note_on_c, 4, 41, 75
10, 35642, Note_on_c, 4, 41, 0
10, 35648, Note_on_c, 4, 40, 69
10, 35706, Note_on_c, 4, 40, 0
10, 35712, Note_on_c, 4, 38, 72
10, 35770, Note_on_c, 4, 38, 0
10, 35776, Note_on_c, 4, 35, 67
10, 35834, Note_on_c, 4, 35, 0
10, 35840, Note_on_c, 4, 64, 97
10, 35898, Note_on_c, 4, 64, 0
10, 35904, Note_on_c, 4, 62, 72
10, 35962, Note_on_c, 4, 62, 0
10, 35968, Note_on_c, 4, 60, 69
10, 36026, Note_on_c, 4, 60, 0
10, 36032, Note_on_c, 4, 59, 70
10, 36090, Note_on_c, 4, 59, 0
10, 36096, Note_on_c, 4, 55, 71
10, 36154, Note_on_c, 4, 55, 0
10, 36160, Note_on_c, 4, 53, 70
10, 36218, Note_on_c, 4, 53, 0
10, 36224, Note_on_c, 4, 52, 69
10, 36282, Note_on_c, 4, 52, 0
10, 36288, Note_on_c, 4, 50, 71
10, 36346, Note_on_c, 4, 50, 0
10, 36352, Note_on_c, 4, 48, 74
10, 36410, Note_on_c, 4, 48, 0
10, 36416, Note_on_c, 4, 47, 70
10, 36474, Note_on_c, 4, 47, 0
10, 36480, Note_on_c, 4, 45, 71
10, 36538, Note_on_c, 4, 45, 0
10, 36544, Note_on_c, 4, 43, 71
10, 36602, Note_on_c, 4, 43, 0
10, 36608, Note_on_c, 4, 41, 74
10, 36666, Note_on_c, 4, 41, 0
10, 36672, Note_on_c, 4, 40, 71
10, 36730, Note_on_c, 4, 40, 0
10, 36736, Note_on_c, 4, 38, 71
10, 36794, Note_on_c, 4, 38, 0
10, 36800, Note_on_c, 4, 35, 70
10, 36858, Note_on_c, 4, 35, 0
10, 38912, Note_on_c, 4, 64, 71
10, 38970, Note_on_c, 4, 64, 0
10, 38976, Note_on_c, 4, 62, 72
10, 39034, Note_on_c, 4, 62, 0
10, 39040, Note_on_c, 4, 60, 70
10, 39098, Note_on_c, 4, 60, 0
10, 39104, Note_on_c, 4, 59, 71
10, 39162, Note_on_c, 4, 59, 0
10, 39168, Note_on_c, 4, 55, 68
10, 39226, Note_on_c, 4, 55, 0
10, 39232, Note_on_c, 4, 53, 72
10, 39290, Note_on_c, 4, 53, 0
10, 39296, Note_on_c, 4, 52, 70
10, 39354, Note_on_c, 4, 52, 0
10, 39360, Note_on_c, 4, 50, 70
10, 39418, Note_on_c, 4, 50, 0
10, 39424, Note_on_c, 4, 48, 72
10, 39482, Note_on_c, 4, 48, 0
10, 39488, Note_on_c, 4, 47, 71
10, 39546, Note_on_c, 4, 47, 0
10, 39552, Note_on_c, 4, 45, 69
10, 39610, Note_on_c, 4, 45, 0
10, 39616, Note_on_c, 4, 43, 68
10, 39674, Note_on_c, 4, 43, 0
10, 39680, Note_on_c, 4, 41, 72
10, 39738, Note_on_c, 4, 41, 0
10, 39744, Note_on_c, 4, 40, 71
10, 39802, Note_on_c, 4, 40, 0
10, 39808, Note_on_c, 4, 38, 71
10, 39866, Note_on_c, 4, 38, 0
10, 39872, Note_on_c, 4, 35, 69
10, 39930, Note_on_c, 4, 35, 0
10, 39936, Note_on_c, 4, 64, 96
10, 39994, Note_on_c, 4, 64, 0
10, 40000, Note_on_c, 4, 62, 74
10, 40058, Note_on_c, 4, 62, 0
10, 40064, Note_on_c, 4, 60, 70
10, 40122, Note_on_c, 4, 60, 0
10, 40128, Note_on_c, 4, 59, 73
10, 40186, Note_on_c, 4, 59, 0
10, 40192, Note_on_c, 4, 55, 69
10, 40250, Note_on_c, 4, 55, 0
10, 40256, Note_on_c, 4, 53, 69
10, 40314, Note_on_c, 4, 53, 0
10, 40320, Note_on_c, 4, 52, 69
10, 40378, Note_on_c, 4, 52, 0
10, 40384, Note_on_c, 4, 50, 72
10, 40442, Note_on_c, 4, 50, 0
10, 40448, Note_on_c, 4, 50, 76
10, 40506, Note_on_c, 4, 50, 0
10, 40512, Note_on_c, 4, 52, 78
10, 40570, Note_on_c, 4, 52, 0
10, 40576, Note_on_c, 4, 53, 80
10, 40634, Note_on_c, 4, 53, 0
10, 40640, Note_on_c, 4, 55, 82
10, 40698, Note_on_c, 4, 55, 0
10, 40704, Note_on_c, 4, 57, 85
10, 40762, Note_on_c, 4, 57, 0
10, 40768, Note_on_c, 4, 59, 80
10, 40826, Note_on_c, 4, 59, 0
10, 40832, Note_on_c, 4, 60, 79
10, 40890, Note_on_c, 4, 60, 0
10, 40896, Note_on_c, 4, 62, 80
10, 40954, Note_on_c, 4, 62, 0
10, 43008, Program_c, 4, 81
10, 43008, Note_on_c, 4, 67, 33
10, 43982, Note_on_c, 4, 67, 0
10, 44032, Note_on_c, 4, 66, 34
10, 44494, Note_on_c, 4, 66, 0
10, 44544, Note_on_c, 4, 71, 38
10, 45006, Note_on_c, 4, 71, 0
10, 45056, Note_on_c, 4, 66, 36
10, 46030, Note_on_c, 4, 66, 0
10, 46080, Note_on_c, 4, 64, 34
10, 46798, Note_on_c, 4, 64, 0
10, 46848, Note_on_c, 4, 67, 41
10, 46964, Note_on_c, 4, 67, 0
10, 46976, Note_on_c, 4, 69, 39
10, 47092, Note_on_c, 4, 69, 0
10, 47104, Note_on_c, 4, 71, 40
10, 48078, Note_on_c, 4, 71, 0
10, 48128, Note_on_c, 4, 69, 37
10, 48590, Note_on_c, 4, 69, 0
10, 48640, Note_on_c, 4, 74, 40
10, 49102, Note_on_c, 4, 74, 0
10, 49152, Note_on_c, 4, 72, 37
10, 50126, Note_on_c, 4, 72, 0
10, 50176, Note_on_c, 4, 71, 36
10, 51150, Note_on_c, 4, 71, 0
10, 51200, Note_on_c, 4, 67, 35
10, 51200, Program_c, 4, 94
10, 51200, Note_on_c, 4, 64, 70
10, 51200, Note_on_c, 4, 67, 70
10, 51200, Note_on_c, 4, 71, 70
10, 52174, Note_on_c, 4, 67, 0
10, 52174, Note_on_c, 4, 64, 0
10, 52174, Note_on_c, 4, 67, 0
10, 52174, Note_on_c, 4, 71, 0
10, 52224, Program_c, 4, 81
10, 52224, Note_on_c, 4, 66, 34
10, 52224, Program_c, 4, 94
10, 52224, Note_on_c, 4, 62, 75
10, 52224, Note_on_c, 4, 66, 73
10, 52224, Note_on_c, 4, 69, 73
10, 52686, Note_on_c, 4, 66, 0
10, 52736, Program_c, 4, 81
10, 52736, Note_on_c, 4, 71, 39
10, 53198, Note_on_c, 4, 71, 0
10, 53198, Note_on_c, 4, 62, 0
10, 53198, Note_on_c, 4, 66, 0
10, 53198, Note_on_c, 4, 69, 0
10, 53248, Note_on_c, 4, 66, 33
10, 53248, Program_c, 4, 94
10, 53248, Note_on_c, 4, 62, 79
10, 53248, Note_on_c, 4, 66, 78
10, 53248, Note_on_c, 4, 69, 80
10, 54222, Note_on_c, 4, 66, 0
10, 54222, Note_on_c, 4, 62, 0
10, 54222, Note_on_c, 4, 66, 0
10, 54222, Note_on_c, 4, 69, 0
10, 54272, Program_c, 4, 81
10, 54272, Note_on_c, 4, 64, 37
10, 54272, Program_c, 4, 94
10, 54272, Note_on_c, 4, 60, 73
10, 54272, Note_on_c, 4, 64, 75
10, 54272, Note_on_c, 4, 67, 72
10, 54990, Note_on_c, 4, 64, 0
10, 55040, Program_c, 4, 81
10, 55040, Note_on_c, 4, 64, 36
10, 55156, Note_on_c, 4, 64, 0
10, 55168, Note_on_c, 4, 66, 38
10, 55246, Note_on_c, 4, 60, 0
10, 55246, Note_on_c, 4, 64, 0
10, 55246, Note_on_c, 4, 67, 0
10, 55284, Note_on_c, 4, 66, 0
10, 55296, Note_on_c, 4, 67, 38
10, 55296, Program_c, 4, 94
10, 55296, Note_on_c, 4, 60, 80
10, 55296, Note_on_c, 4, 64, 78
10, 55296, Note_on_c, 4, 67, 77
10, 56270, Note_on_c, 4, 67, 0
10, 56270, Note_on_c, 4, 60, 0
10, 56270, Note_on_c, 4, 64, 0
10, 56270, Note_on_c, 4, 67, 0
10, 56320, Program_c, 4, 81
10, 56320, Note_on_c, 4, 66, 37
10, 56320, Program_c, 4, 94
10, 56320, Note_on_c, 4, 57, 75
10, 56320, Note_on_c, 4, 64, 77
10, 56320, Note_on_c, 4, 66, 73
10, 56782, Note_on_c, 4, 66, 0
10, 56832, Program_c, 4, 81
10, 56832, Note_on_c, 4, 71, 40
10, 57294, Note_on_c, 4, 71, 0
10, 57294, Note_on_c, 4, 57, 0
10, 57294, Note_on_c, 4, 64, 0
10, 57294, Note_on_c, 4, 66, 0
10, 57344, Note_on_c, 4, 64, 95
10, 57344, Program_c, 4, 94
10, 57344, Note_on_c, 4, 52, 57
10, 57402, Note_on_c, 4, 64, 0
10, 57402, Note_on_c, 4, 52, 0
10, 57408, Program_c, 4, 81
10, 57408, Note_on_c, 4, 60, 96
10, 57408, Program_c, 4, 94
10, 57408, Note_on_c, 4, 48, 66
10, 57466, Note_on_c, 4, 60, 0
10, 57466, Note_on_c, 4, 48, 0
10, 57472, Program_c, 4, 81
10, 57472, Note_on_c, 4, 64, 121
10, 57472, Program_c, 4, 94
10, 57472, Note_on_c, 4, 52, 83
10, 57530, Note_on_c, 4, 64, 0
10, 57530, Note_on_c, 4, 52, 0
10, 57536, Program_c, 4, 81
10, 57536, Note_on_c, 4, 67, 122
10, 57536, Program_c, 4, 94
10, 57536, Note_on_c, 4, 55, 85
10, 57594, Note_on_c, 4, 67, 0
10, 57594, Note_on_c, 4, 55, 0
10, 57600, Program_c, 4, 81
10, 57600, Note_on_c, 4, 72, 127
10, 57600, Program_c, 4, 94
10, 57600, Note_on_c, 4, 60, 91
10, 57658, Note_on_c, 4, 72, 0
10, 57658, Note_on_c, 4, 60, 0
10, 57664, Program_c, 4, 81
10, 57664, Note_on_c, 4, 64, 93
10, 57664, Program_c, 4, 94
10, 57664, Note_on_c, 4, 52, 89
10, 57722, Note_on_c, 4, 64, 0
10, 57722, Note_on_c, 4, 52, 0
10, 57728, Program_c, 4, 81
10, 57728, Note_on_c, 4, 67, 117
10, 57728, Program_c, 4, 94
10, 57728, Note_on_c, 4, 55, 118
10, 57786, Note_on_c, 4, 67, 0
10, 57786, Note_on_c, 4, 55, 0
10, 57792, Program_c, 4, 81
10, 57792, Note_on_c, 4, 72, 124
10, 57792, Program_c, 4, 94
10, 57792, Note_on_c, 4, 60, 124
10, 57850, Note_on_c, 4, 72, 0
10, 57850, Note_on_c, 4, 60, 0
10, 57856, Program_c, 4, 81
10, 57856, Note_on_c, 4, 76, 127
10, 57856, Program_c, 4, 94
10, 57856, Note_on_c, 4, 64, 127
10, 57914, Note_on_c, 4, 76, 0
10, 57914, Note_on_c, 4, 64, 0
10, 57920, Program_c, 4, 81
10, 57920, Note_on_c, 4, 72, 101
10, 57920, Program_c, 4, 94
10, 57920, Note_on_c, 4, 60, 100
10, 57978, Note_on_c, 4, 72, 0
10, 57978, Note_on_c, 4, 60, 0
10, 57984, Program_c, 4, 81
10, 57984, Note_on_c, 4, 76, 121
10, 57984, Program_c, 4, 94
10, 57984, Note_on_c, 4, 64, 122
10, 58042, Note_on_c, 4, 76, 0
10, 58042, Note_on_c, 4, 64, 0
10, 58048, Program_c, 4, 81
10, 58048, Note_on_c, 4, 79, 123
10, 58048, Program_c, 4, 94
10, 58048, Note_on_c, 4, 67, 120
10, 58106, Note_on_c, 4, 79, 0
10, 58106, Note_on_c, 4, 67, 0
10, 58112, Program_c, 4, 81
10, 58112, Note_on_c, 4, 84, 127
10, 58112, Program_c, 4, 94
10, 58112, Note_on_c, 4, 72, 127
10, 58170, Note_on_c, 4, 84, 0
10, 58170, Note_on_c, 4, 72, 0
10, 58176, Program_c, 4, 81
10, 58176, Note_on_c, 4, 79, 100
10, 58176, Program_c, 4, 94
10, 58176, Note_on_c, 4, 67, 97
10, 58234, Note_on_c, 4, 79, 0
10, 58234, Note_on_c, 4, 67, 0
10, 58240, Program_c, 4, 81
10, 58240, Note_on_c, 4, 84, 124
10, 58240, Program_c, 4, 94
10, 58240, Note_on_c, 4, 72, 124
10, 58298, Note_on_c, 4, 84, 0
10, 58298, Note_on_c, 4, 72, 0
10, 58304, Program_c, 4, 81
10, 58304, Note_on_c, 4, 86, 120
10, 58304, Program_c, 4, 94
10, 58304, Note_on_c, 4, 74, 120
10, 58362, Note_on_c, 4, 86, 0
10, 58362, Note_on_c, 4, 74, 0
10, 58368, Program_c, 4, 81
10, 58368, Note_on_c, 4, 66, 86
10, 58368, Program_c, 4, 94
10, 58368, Note_on_c, 4, 54, 85
10, 58426, Note_on_c, 4, 66, 0
10, 58426, Note_on_c, 4, 54, 0
10, 58432, Program_c, 4, 81
10, 58432, Note_on_c, 4, 62, 94
10, 58432, Program_c, 4, 94
10, 58432, Note_on_c, 4, 50, 94
10, 58490, Note_on_c, 4, 62, 0
10, 58490, Note_on_c, 4, 50, 0
10, 58496, Program_c, 4, 81
10, 58496, Note_on_c, 4, 66, 119
10, 58496, Program_c, 4, 94
10, 58496, Note_on_c, 4, 54, 120
10, 58554, Note_on_c, 4, 66, 0
10, 58554, Note_on_c, 4, 54, 0
10, 58560, Program_c, 4, 81
10, 58560, Note_on_c, 4, 69, 124
10, 58560, Program_c, 4, 94
10, 58560, Note_on_c, 4, 57, 120
10, 58618, Note_on_c, 4, 69, 0
10, 58618, Note_on_c, 4, 57, 0
10, 58624, Program_c, 4, 81
10, 58624, Note_on_c, 4, 74, 127
10, 58624, Program_c, 4, 94
10, 58624, Note_on_c, 4, 62, 127
10, 58682, Note_on_c, 4, 74, 0
10, 58682, Note_on_c, 4, 62, 0
10, 58688, Program_c, 4, 81
10, 58688, Note_on_c, 4, 69, 99
10, 58688, Program_c, 4, 94
10, 58688, Note_on_c, 4, 57, 99
10, 58746, Note_on_c, 4, 69, 0
10, 58746, Note_on_c, 4, 57, 0
10, 58752, Program_c, 4, 81
10, 58752, Note_on_c, 4, 66, 98
10, 58752, Program_c, 4, 94
10, 58752, Note_on_c, 4, 62, 125
10, 58810, Note_on_c, 4, 66, 0
10, 58810, Note_on_c, 4, 62, 0
10, 58816, Program_c, 4, 81
10, 58816, Note_on_c, 4, 62, 99
10, 58816, Program_c, 4, 94
10, 58816, Note_on_c, 4, 64, 119
10, 58874, Note_on_c, 4, 62, 0
10, 58874, Note_on_c, 4, 64, 0
10, 58880, Program_c, 4, 81
10, 58880, Note_on_c, 4, 74, 127
10, 58880, Program_c, 4, 94
10, 58880, Note_on_c, 4, 66, 119
10, 58938, Note_on_c, 4, 74, 0
10, 58938, Note_on_c, 4, 66, 0
10, 58944, Program_c, 4, 81
10, 58944, Note_on_c, 4, 71, 105
10, 58944, Program_c, 4, 94
10, 58944, Note_on_c, 4, 62, 98
10, 59002, Note_on_c, 4, 71, 0
10, 59002, Note_on_c, 4, 62, 0
10, 59008, Program_c, 4, 81
10, 59008, Note_on_c, 4, 74, 121
10, 59008, Program_c, 4, 94
10, 59008, Note_on_c, 4, 66, 120
10, 59066, Note_on_c, 4, 74, 0
10, 59066, Note_on_c, 4, 66, 0
10, 59072, Program_c, 4, 81
10, 59072, Note_on_c, 4, 81, 125
10, 59072, Program_c, 4, 94
10, 59072, Note_on_c, 4, 69, 122
10, 59130, Note_on_c, 4, 81, 0
10, 59130, Note_on_c, 4, 69, 0
10, 59136, Program_c, 4, 81
10, 59136, Note_on_c, 4, 86, 127
10, 59136, Program_c, 4, 94
10, 59136, Note_on_c, 4, 74, 127
10, 59194, Note_on_c, 4, 86, 0
10, 59194, Note_on_c, 4, 74, 0
10, 59200, Program_c, 4, 81
10, 59200, Note_on_c, 4, 81, 99
10, 59200, Program_c, 4, 94
10, 59200, Note_on_c, 4, 69, 99
10, 59258, Note_on_c, 4, 81, 0
10, 59258, Note_on_c, 4, 69, 0
10, 59264, Program_c, 4, 81
10, 59264, Note_on_c, 4, 86, 122
10, 59264, Program_c, 4, 94
10, 59264, Note_on_c, 4, 74, 123
10, 59322, Note_on_c, 4, 86, 0
10, 59322, Note_on_c, 4, 74, 0
10, 59328, Program_c, 4, 81
10, 59328, Note_on_c, 4, 90, 123
10, 59328, Program_c, 4, 94
10, 59328, Note_on_c, 4, 78, 124
10, 59386, Note_on_c, 4, 90, 0
10, 59386, Note_on_c, 4, 78, 0
10, 73728, Program_c, 4, 81
10, 73728, Note_on_c, 4, 87, 104
10, 73728, Program_c, 4, 80
10, 73728, Note_on_c, 4, 71, 60
10, 73786, Note_on_c, 4, 87, 0
10, 73786, Note_on_c, 4, 71, 0
10, 73792, Program_c, 4, 81
10, 73792, Note_on_c, 4, 83, 97
10, 73792, Program_c, 4, 80
10, 73792, Note_on_c, 4, 68, 57
10, 73850, Note_on_c, 4, 83, 0
10, 73850, Note_on_c, 4, 68, 0
10, 73856, Program_c, 4, 81
10, 73856, Note_on_c, 4, 80, 97
10, 73856, Program_c, 4, 80
10, 73856, Note_on_c, 4, 63, 51
10, 73914, Note_on_c, 4, 80, 0
10, 73914, Note_on_c, 4, 63, 0
10, 73920, Program_c, 4, 81
10, 73920, Note_on_c, 4, 88, 125
10, 73920, Program_c, 4, 80
10, 73920, Note_on_c, 4, 73, 75
10, 73978, Note_on_c, 4, 88, 0
10, 73978, Note_on_c, 4, 73, 0
10, 73984, Program_c, 4, 81
10, 73984, Note_on_c, 4, 83, 103
10, 73984, Program_c, 4, 80
10, 73984, Note_on_c, 4, 68, 58
10, 74042, Note_on_c, 4, 83, 0
10, 74042, Note_on_c, 4, 68, 0
10, 74048, Program_c, 4, 81
10, 74048, Note_on_c, 4, 80, 100
10, 74048, Program_c, 4, 80
10, 74048, Note_on_c, 4, 63, 52
10, 74106, Note_on_c, 4, 80, 0
10, 74106, Note_on_c, 4, 63, 0
10, 74112, Program_c, 4, 81
10, 74112, Note_on_c, 4, 87, 127
10, 74112, Program_c, 4, 80
10, 74112, Note_on_c, 4, 71, 74
10, 74170, Note_on_c, 4, 87, 0
10, 74170, Note_on_c, 4, 71, 0
10, 74176, Program_c, 4, 81
10, 74176, Note_on_c, 4, 83, 100
10, 74176, Program_c, 4, 80
10, 74176, Note_on_c, 4, 68, 59
10, 74234, Note_on_c, 4, 83, 0
10, 74234, Note_on_c, 4, 68, 0
10, 74240, Program_c, 4, 81
10, 74240, Note_on_c, 4, 80, 100
10, 74240, Program_c, 4, 80
10, 74240, Note_on_c, 4, 63, 57
10, 74298, Note_on_c, 4, 80, 0
10, 74298, Note_on_c, 4, 63, 0
10, 74304, Program_c, 4, 81
10, 74304, Note_on_c, 4, 87, 127
10, 74304, Program_c, 4, 80
10, 74304, Note_on_c, 4, 71, 72
10, 74362, Note_on_c, 4, 87, 0
10, 74362, Note_on_c, 4, 71, 0
10, 74368, Program_c, 4, 81
10, 74368, Note_on_c, 4, 83, 102
10, 74368, Program_c, 4, 80
10, 74368, Note_on_c, 4, 68, 61
10, 74426, Note_on_c, 4, 83, 0
10, 74426, Note_on_c, 4, 68, 0
10, 74432, Program_c, 4, 81
10, 74432, Note_on_c, 4, 80, 97
10, 74432, Program_c, 4, 80
10, 74432, Note_on_c, 4, 63, 53
10, 74490, Note_on_c, 4, 80, 0
10, 74490, Note_on_c, 4, 63, 0
10, 74496, Program_c, 4, 81
10, 74496, Note_on_c, 4, 87, 127
10, 74496, Program_c, 4, 80
10, 74496, Note_on_c, 4, 71, 77
10, 74554, Note_on_c, 4, 87, 0
10, 74554, Note_on_c, 4, 71, 0
10, 74560, Program_c, 4, 81
10, 74560, Note_on_c, 4, 80, 92
10, 74560, Program_c, 4, 80
10, 74560, Note_on_c, 4, 68, 57
10, 74618, Note_on_c, 4, 80, 0
10, 74618, Note_on_c, 4, 68, 0
10, 74624, Program_c, 4, 81
10, 74624, Note_on_c, 4, 85, 122
10, 74624, Program_c, 4, 80
10, 74624, Note_on_c, 4, 70, 66
10, 74682, Note_on_c, 4, 85, 0
10, 74682, Note_on_c, 4, 70, 0
10, 74688, Program_c, 4, 81
10, 74688, Note_on_c, 4, 80, 96
10, 74688, Program_c, 4, 80
10, 74688, Note_on_c, 4, 66, 58
10, 74746, Note_on_c, 4, 80, 0
10, 74746, Note_on_c, 4, 66, 0
10, 74752, Program_c, 4, 81
10, 74752, Note_on_c, 4, 87, 127
10, 74752, Program_c, 4, 80
10, 74752, Note_on_c, 4, 71, 72
10, 74810, Note_on_c, 4, 87, 0
10, 74810, Note_on_c, 4, 71, 0
10, 74816, Program_c, 4, 81
10, 74816, Note_on_c, 4, 83, 102
10, 74816, Program_c, 4, 80
10, 74816, Note_on_c, 4, 68, 58
10, 74874, Note_on_c, 4, 83, 0
10, 74874, Note_on_c, 4, 68, 0
10, 74880, Program_c, 4, 81
10, 74880, Note_on_c, 4, 80, 100
10, 74880, Program_c, 4, 80
10, 74880, Note_on_c, 4, 63, 55
10, 74938, Note_on_c, 4, 80, 0
10, 74938, Note_on_c, 4, 63, 0
10, 74944, Program_c, 4, 81
10, 74944, Note_on_c, 4, 88, 127
10, 74944, Program_c, 4, 80
10, 74944, Note_on_c, 4, 73, 77
10, 75002, Note_on_c, 4, 88, 0
10, 75002, Note_on_c, 4, 73, 0
10, 75008, Program_c, 4, 81
10, 75008, Note_on_c, 4, 83, 102
10, 75008, Program_c, 4, 80
10, 75008, Note_on_c, 4, 68, 62
10, 75066, Note_on_c, 4, 83, 0
10, 75066, Note_on_c, 4, 68, 0
10, 75072, Program_c, 4, 81
10, 75072, Note_on_c, 4, 80, 101
10, 75072, Program_c, 4, 80
10, 75072, Note_on_c, 4, 63, 52
10, 75130, Note_on_c, 4, 80, 0
10, 75130, Note_on_c, 4, 63, 0
10, 75136, Program_c, 4, 81
10, 75136, Note_on_c, 4, 87, 126
10, 75136, Program_c, 4, 80
10, 75136, Note_on_c, 4, 71, 74
10, 75194, Note_on_c, 4, 87, 0
10, 75194, Note_on_c, 4, 71, 0
10, 75200, Program_c, 4, 81
10, 75200, Note_on_c, 4, 83, 101
10, 75200, Program_c, 4, 80
10, 75200, Note_on_c, 4, 68, 59
10, 75258, Note_on_c, 4, 83, 0
10, 75258, Note_on_c, 4, 68, 0
10, 75264, Program_c, 4, 81
10, 75264, Note_on_c, 4, 80, 103
10, 75264, Program_c, 4, 80
10, 75264, Note_on_c, 4, 63, 59
10, 75322, Note_on_c, 4, 80, 0
10, 75322, Note_on_c, 4, 63, 0
10, 75328, Program_c, 4, 81
10, 75328, Note_on_c, 4, 87, 127
10, 75328, Program_c, 4, 80
10, 75328, Note_on_c, 4, 71, 74
10, 75386, Note_on_c, 4, 87, 0
10, 75386, Note_on_c, 4, 71, 0
10, 75392, Program_c, 4, 81
10, 75392, Note_on_c, 4, 83, 101
10, 75392, Program_c, 4, 80
10, 75392, Note_on_c, 4, 68, 61
10, 75450, Note_on_c, 4, 83, 0
10, 75450, Note_on_c, 4, 68, 0
10, 75456, Program_c, 4, 81
10, 75456, Note_on_c, 4, 80, 101
10, 75456, Program_c, 4, 80
10, 75456, Note_on_c, 4, 63, 54
10, 75514, Note_on_c, 4, 80, 0
10, 75514, Note_on_c, 4, 63, 0
10, 75520, Program_c, 4, 81
10, 75520, Note_on_c, 4, 87, 127
10, 75520, Program_c, 4, 80
10, 75520, Note_on_c, 4, 71, 75
10, 75578, Note_on_c, 4, 87, 0
10, 75578, Note_on_c, 4, 71, 0
10, 75584, Program_c, 4, 81
10, 75584, Note_on_c, 4, 80, 94
10, 75584, Program_c, 4, 80
10, 75584, Note_on_c, 4, 68, 58
10, 75642, Note_on_c, 4, 80, 0
10, 75642, Note_on_c, 4, 68, 0
10, 75648, Program_c, 4, 81
10, 75648, Note_on_c, 4, 85, 123
10, 75648, Program_c, 4, 80
10, 75648, Note_on_c, 4, 70, 68
10, 75706, Note_on_c, 4, 85, 0
10, 75706, Note_on_c, 4, 70, 0
10, 75712, Program_c, 4, 81
10, 75712, Note_on_c, 4, 80, 97
10, 75712, Program_c, 4, 80
10, 75712, Note_on_c, 4, 66, 56
10, 75770, Note_on_c, 4, 80, 0
10, 75770, Note_on_c, 4, 66, 0
10, 75776, Program_c, 4, 81
10, 75776, Note_on_c, 4, 85, 126
10, 75834, Note_on_c, 4, 85, 0
10, 75840, Note_on_c, 4, 81, 100
10, 75840, Program_c, 4, 80
10, 75840, Note_on_c, 4, 73, 56
10, 75898, Note_on_c, 4, 81, 0
10, 75898, Note_on_c, 4, 73, 0
10, 75904, Program_c, 4, 81
10, 75904, Note_on_c, 4, 78, 100
10, 75904, Program_c, 4, 80
10, 75904, Note_on_c, 4, 69, 55
10, 75962, Note_on_c, 4, 78, 0
10, 75962, Note_on_c, 4, 69, 0
10, 75968, Program_c, 4, 81
10, 75968, Note_on_c, 4, 86, 127
10, 75968, Program_c, 4, 80
10, 75968, Note_on_c, 4, 66, 55
10, 76026, Note_on_c, 4, 86, 0
10, 76026, Note_on_c, 4, 66, 0
10, 76032, Program_c, 4, 81
10, 76032, Note_on_c, 4, 81, 102
10, 76032, Program_c, 4, 80
10, 76032, Note_on_c, 4, 74, 75
10, 76090, Note_on_c, 4, 81, 0
10, 76090, Note_on_c, 4, 74, 0
10, 76096, Program_c, 4, 81
10, 76096, Note_on_c, 4, 78, 98
10, 76096, Program_c, 4, 80
10, 76096, Note_on_c, 4, 69, 56
10, 76154, Note_on_c, 4, 78, 0
10, 76154, Note_on_c, 4, 69, 0
10, 76160, Program_c, 4, 81
10, 76160, Note_on_c, 4, 85, 127
10, 76160, Program_c, 4, 80
10, 76160, Note_on_c, 4, 66, 54
10, 76218, Note_on_c, 4, 85, 0
10, 76218, Note_on_c, 4, 66, 0
10, 76224, Program_c, 4, 81
10, 76224, Note_on_c, 4, 81, 99
10, 76224, Program_c, 4, 80
10, 76224, Note_on_c, 4, 73, 75
10, 76282, Note_on_c, 4, 81, 0
10, 76282, Note_on_c, 4, 73, 0
10, 76288, Program_c, 4, 81
10, 76288, Note_on_c, 4, 78, 100
10, 76288, Program_c, 4, 80
10, 76288, Note_on_c, 4, 69, 62
10, 76346, Note_on_c, 4, 78, 0
10, 76346, Note_on_c, 4, 69, 0
10, 76352, Program_c, 4, 81
10, 76352, Note_on_c, 4, 85, 127
10, 76352, Program_c, 4, 80
10, 76352, Note_on_c, 4, 66, 55
10, 76410, Note_on_c, 4, 85, 0
10, 76410, Note_on_c, 4, 66, 0
10, 76416, Program_c, 4, 81
10, 76416, Note_on_c, 4, 81, 99
10, 76416, Program_c, 4, 80
10, 76416, Note_on_c, 4, 73, 73
10, 76474, Note_on_c, 4, 81, 0
10, 76474, Note_on_c, 4, 73, 0
10, 76480, Program_c, 4, 81
10, 76480, Note_on_c, 4, 78, 99
10, 76480, Program_c, 4, 80
10, 76480, Note_on_c, 4, 69, 55
10, 76538, Note_on_c, 4, 78, 0
10, 76538, Note_on_c, 4, 69, 0
10, 76544, Program_c, 4, 81
10, 76544, Note_on_c, 4, 85, 127
10, 76544, Program_c, 4, 80
10, 76544, Note_on_c, 4, 66, 60
10, 76602, Note_on_c, 4, 85, 0
10, 76602, Note_on_c, 4, 66, 0
10, 76608, Program_c, 4, 81
10, 76608, Note_on_c, 4, 78, 95
10, 76608, Program_c, 4, 80
10, 76608, Note_on_c, 4, 73, 73
10, 76666, Note_on_c, 4, 78, 0
10, 76666, Note_on_c, 4, 73, 0
10, 76672, Program_c, 4, 81
10, 76672, Note_on_c, 4, 83, 124
10, 76672, Program_c, 4, 80
10, 76672, Note_on_c, 4, 66, 53
10, 76730, Note_on_c, 4, 83, 0
10, 76730, Note_on_c, 4, 66, 0
10, 76736, Program_c, 4, 81
10, 76736, Note_on_c, 4, 78, 97
10, 76736, Program_c, 4, 80
10, 76736, Note_on_c, 4, 71, 70
10, 76794, Note_on_c, 4, 78, 0
10, 76794, Note_on_c, 4, 71, 0
10, 76800, Program_c, 4, 81
10, 76800, Note_on_c, 4, 85, 127
10, 76858, Note_on_c, 4, 85, 0
10, 76864, Note_on_c, 4, 81, 102
10, 76864, Program_c, 4, 80
10, 76864, Note_on_c, 4, 73, 57
10, 76922, Note_on_c, 4, 81, 0
10, 76922, Note_on_c, 4, 73, 0
10, 76928, Program_c, 4, 81
10, 76928, Note_on_c, 4, 78, 101
10, 76928, Program_c, 4, 80
10, 76928, Note_on_c, 4, 69, 54
10, 76986, Note_on_c, 4, 78, 0
10, 76986, Note_on_c, 4, 69, 0
10, 76992, Program_c, 4, 81
10, 76992, Note_on_c, 4, 86, 126
10, 76992, Program_c, 4, 80
10, 76992, Note_on_c, 4, 66, 56
10, 77050, Note_on_c, 4, 86, 0
10, 77050, Note_on_c, 4, 66, 0
10, 77056, Program_c, 4, 81
10, 77056, Note_on_c, 4, 81, 103
10, 77056, Program_c, 4, 80
10, 77056, Note_on_c, 4, 74, 78
10, 77114, Note_on_c, 4, 81, 0
10, 77114, Note_on_c, 4, 74, 0
10, 77120, Program_c, 4, 81
10, 77120, Note_on_c, 4, 78, 101
10, 77120, Program_c, 4, 80
10, 77120, Note_on_c, 4, 69, 56
10, 77178, Note_on_c, 4, 78, 0
10, 77178, Note_on_c, 4, 69, 0
10, 77184, Program_c, 4, 81
10, 77184, Note_on_c, 4, 85, 127
10, 77184, Program_c, 4, 80
10, 77184, Note_on_c, 4, 66, 58
10, 77242, Note_on_c, 4, 85, 0
10, 77242, Note_on_c, 4, 66, 0
10, 77248, Program_c, 4, 81
10, 77248, Note_on_c, 4, 81, 103
10, 77248, Program_c, 4, 80
10, 77248, Note_on_c, 4, 73, 73
10, 77306, Note_on_c, 4, 81, 0
10, 77306, Note_on_c, 4, 73, 0
10, 77312, Program_c, 4, 81
10, 77312, Note_on_c, 4, 78, 103
10, 77312, Program_c, 4, 80
10, 77312, Note_on_c, 4, 69, 59
10, 77370, Note_on_c, 4, 78, 0
10, 77370, Note_on_c, 4, 69, 0
10, 77376, Program_c, 4, 81
10, 77376, Note_on_c, 4, 85, 127
10, 77376, Program_c, 4, 80
10, 77376, Note_on_c, 4, 66, 54
10, 77434, Note_on_c, 4, 85, 0
10, 77434, Note_on_c, 4, 66, 0
10, 77440, Program_c, 4, 81
10, 77440, Note_on_c, 4, 81, 101
10, 77440, Program_c, 4, 80
10, 77440, Note_on_c, 4, 73, 73
10, 77498, Note_on_c, 4, 81, 0
10, 77498, Note_on_c, 4, 73, 0
10, 77504, Program_c, 4, 81
10, 77504, Note_on_c, 4, 78, 98
10, 77504, Program_c, 4, 80
10, 77504, Note_on_c, 4, 69, 57
10, 77562, Note_on_c, 4, 78, 0
10, 77562, Note_on_c, 4, 69, 0
10, 77568, Program_c, 4, 81
10, 77568, Note_on_c, 4, 85, 127
10, 77568, Program_c, 4, 80
10, 77568, Note_on_c, 4, 66, 59
10, 77626, Note_on_c, 4, 85, 0
10, 77626, Note_on_c, 4, 66, 0
10, 77632, Program_c, 4, 81
10, 77632, Note_on_c, 4, 78, 93
10, 77632, Program_c, 4, 80
10, 77632, Note_on_c, 4, 73, 74
10, 77690, Note_on_c, 4, 78, 0
10, 77690, Note_on_c, 4, 73, 0
10, 77696, Program_c, 4, 81
10, 77696, Note_on_c, 4, 83, 123
10, 77696, Program_c, 4, 80
10, 77696, Note_on_c, 4, 66, 51
10, 77754, Note_on_c, 4, 83, 0
10, 77754, Note_on_c, 4, 66, 0
10, 77760, Program_c, 4, 81
10, 77760, Note_on_c, 4, 78, 97
10, 77760, Program_c, 4, 80
10, 77760, Note_on_c, 4, 71, 69
10, 77818, Note_on_c, 4, 78, 0
10, 77818, Note_on_c, 4, 71, 0
10, 77824, Program_c, 4, 81
10, 77824, Note_on_c, 4, 87, 127
10, 77882, Note_on_c, 4, 87, 0
10, 77888, Note_on_c, 4, 83, 102
10, 77888, Program_c, 4, 80
10, 77888, Note_on_c, 4, 75, 55
10, 77946, Note_on_c, 4, 83, 0
10, 77946, Note_on_c, 4, 75, 0
10, 77952, Program_c, 4, 81
10, 77952, Note_on_c, 4, 80, 99
10, 77952, Program_c, 4, 80
10, 77952, Note_on_c, 4, 71, 55
10, 78010, Note_on_c, 4, 80, 0
10, 78010, Note_on_c, 4, 71, 0
10, 78016, Program_c, 4, 81
10, 78016, Note_on_c, 4, 88, 127
10, 78016, Program_c, 4, 80
10, 78016, Note_on_c, 4, 68, 57
10, 78074, Note_on_c, 4, 88, 0
10, 78074, Note_on_c, 4, 68, 0
10, 78080, Program_c, 4, 81
10, 78080, Note_on_c, 4, 83, 100
10, 78080, Program_c, 4, 80
10, 78080, Note_on_c, 4, 76, 76
10, 78138, Note_on_c, 4, 83, 0
10, 78138, Note_on_c, 4, 76, 0
10, 78144, Program_c, 4, 81
10, 78144, Note_on_c, 4, 80, 97
10, 78144, Program_c, 4, 80
10, 78144, Note_on_c, 4, 71, 55
10, 78202, Note_on_c, 4, 80, 0
10, 78202, Note_on_c, 4, 71, 0
10, 78208, Program_c, 4, 81
10, 78208, Note_on_c, 4, 87, 127
10, 78208, Program_c, 4, 80
10, 78208, Note_on_c, 4, 68, 54
10, 78266, Note_on_c, 4, 87, 0
10, 78266, Note_on_c, 4, 68, 0
10, 78272, Program_c, 4, 81
10, 78272, Note_on_c, 4, 83, 99
10, 78272, Program_c, 4, 80
10, 78272, Note_on_c, 4, 75, 71
10, 78330, Note_on_c, 4, 83, 0
10, 78330, Note_on_c, 4, 75, 0
10, 78336, Program_c, 4, 81
10, 78336, Note_on_c, 4, 80, 103
10, 78336, Program_c, 4, 80
10, 78336, Note_on_c, 4, 71, 59
10, 78394, Note_on_c, 4, 80, 0
10, 78394, Note_on_c, 4, 71, 0
10, 78400, Program_c, 4, 81
10, 78400, Note_on_c, 4, 87, 127
10, 78400, Program_c, 4, 80
10, 78400, Note_on_c, 4, 68, 56
10, 78458, Note_on_c, 4, 87, 0
10, 78458, Note_on_c, 4, 68, 0
10, 78464, Program_c, 4, 81
10, 78464, Note_on_c, 4, 83, 102
10, 78464, Program_c, 4, 80
10, 78464, Note_on_c, 4, 75, 71
10, 78522, Note_on_c, 4, 83, 0
10, 78522, Note_on_c, 4, 75, 0
10, 78528, Program_c, 4, 81
10, 78528, Note_on_c, 4, 80, 101
10, 78528, Program_c, 4, 80
10, 78528, Note_on_c, 4, 71, 57
10, 78586, Note_on_c, 4, 80, 0
10, 78586, Note_on_c, 4, 71, 0
10, 78592, Program_c, 4, 81
10, 78592, Note_on_c, 4, 87, 127
10, 78592, Program_c, 4, 80
10, 78592, Note_on_c, 4, 68, 60
10, 78650, Note_on_c, 4, 87, 0
10, 78650, Note_on_c, 4, 68, 0
10, 78656, Program_c, 4, 81
10, 78656, Note_on_c, 4, 80, 92
10, 78656, Program_c, 4, 80
10, 78656, Note_on_c, 4, 75, 72
10, 78714, Note_on_c, 4, 80, 0
10, 78714, Note_on_c, 4, 75, 0
10, 78720, Program_c, 4, 81
10, 78720, Note_on_c, 4, 85, 123
10, 78720, Program_c, 4, 80
10, 78720, Note_on_c, 4, 68, 54
10, 78778, Note_on_c, 4, 85, 0
10, 78778, Note_on_c, 4, 68, 0
10, 78784, Program_c, 4, 81
10, 78784, Note_on_c, 4, 80, 96
10, 78784, Program_c, 4, 80
10, 78784, Note_on_c, 4, 73, 70
10, 78842, Note_on_c, 4, 80, 0
10, 78842, Note_on_c, 4, 73, 0
10, 78848, Program_c, 4, 81
10, 78848, Note_on_c, 4, 87, 127
10, 78906, Note_on_c, 4, 87, 0
10, 78912, Note_on_c, 4, 83, 101
10, 78912, Program_c, 4, 80
10, 78912, Note_on_c, 4, 75, 56
10, 78970, Note_on_c, 4, 83, 0
10, 78970, Note_on_c, 4, 75, 0
10, 78976, Program_c, 4, 81
10, 78976, Note_on_c, 4, 80, 100
10, 78976, Program_c, 4, 80
10, 78976, Note_on_c, 4, 71, 57
10, 79034, Note_on_c, 4, 80, 0
10, 79034, Note_on_c, 4, 71, 0
10, 79040, Program_c, 4, 81
10, 79040, Note_on_c, 4, 88, 125
10, 79040, Program_c, 4, 80
10, 79040, Note_on_c, 4, 68, 57
10, 79098, Note_on_c, 4, 88, 0
10, 79098, Note_on_c, 4, 68, 0
10, 79104, Program_c, 4, 81
10, 79104, Note_on_c, 4, 83, 100
10, 79104, Program_c, 4, 80
10, 79104, Note_on_c, 4, 76, 75
10, 79162, Note_on_c, 4, 83, 0
10, 79162, Note_on_c, 4, 76, 0
10, 79168, Program_c, 4, 81
10, 79168, Note_on_c, 4, 80, 99
10, 79168, Program_c, 4, 80
10, 79168, Note_on_c, 4, 71, 55
10, 79226, Note_on_c, 4, 80, 0
10, 79226, Note_on_c, 4, 71, 0
10, 79232, Program_c, 4, 81
10, 79232, Note_on_c, 4, 87, 125
10, 79232, Program_c, 4, 80
10, 79232, Note_on_c, 4, 68, 57
10, 79290, Note_on_c, 4, 87, 0
10, 79290, Note_on_c, 4, 68, 0
10, 79296, Program_c, 4, 81
10, 79296, Note_on_c, 4, 83, 101
10, 79296, Program_c, 4, 80
10, 79296, Note_on_c, 4, 75, 74
10, 79354, Note_on_c, 4, 83, 0
10, 79354, Note_on_c, 4, 75, 0
10, 79360, Program_c, 4, 81
10, 79360, Note_on_c, 4, 80, 103
10, 79360, Program_c, 4, 80
10, 79360, Note_on_c, 4, 71, 58
10, 79418, Note_on_c, 4, 80, 0
10, 79418, Note_on_c, 4, 71, 0
10, 79424, Program_c, 4, 81
10, 79424, Note_on_c, 4, 87, 125
10, 79424, Program_c, 4, 80
10, 79424, Note_on_c, 4, 68, 58
10, 79482, Note_on_c, 4, 87, 0
10, 79482, Note_on_c, 4, 68, 0
10, 79488, Program_c, 4, 81
10, 79488, Note_on_c, 4, 83, 102
10, 79488, Program_c, 4, 80
10, 79488, Note_on_c, 4, 75, 71
10, 79546, Note_on_c, 4, 83, 0
10, 79546, Note_on_c, 4, 75, 0
10, 79552, Program_c, 4, 81
10, 79552, Note_on_c, 4, 80, 97
10, 79552, Program_c, 4, 80
10, 79552, Note_on_c, 4, 71, 57
10, 79610, Note_on_c, 4, 80, 0
10, 79610, Note_on_c, 4, 71, 0
10, 79616, Program_c, 4, 81
10, 79616, Note_on_c, 4, 87, 127
10, 79616, Program_c, 4, 80
10, 79616, Note_on_c, 4, 68, 59
10, 79674, Note_on_c, 4, 87, 0
10, 79674, Note_on_c, 4, 68, 0
10, 79680, Program_c, 4, 81
10, 79680, Note_on_c, 4, 80, 94
10, 79680, Program_c, 4, 80
10, 79680, Note_on_c, 4, 75, 72
10, 79738, Note_on_c, 4, 80, 0
10, 79738, Note_on_c, 4, 75, 0
10, 79744, Program_c, 4, 81
10, 79744, Note_on_c, 4, 85, 123
10, 79744, Program_c, 4, 80
10, 79744, Note_on_c, 4, 68, 51
10, 79802, Note_on_c, 4, 85, 0
10, 79802, Note_on_c, 4, 68, 0
10, 79808, Program_c, 4, 81
10, 79808, Note_on_c, 4, 80, 99
10, 79808, Program_c, 4, 80
10, 79808, Note_on_c, 4, 73, 68
10, 79866, Note_on_c, 4, 80, 0
10, 79866, Note_on_c, 4, 73, 0
10, 79872, Program_c, 4, 81
10, 79872, Note_on_c, 4, 85, 126
10, 79930, Note_on_c, 4, 85, 0
10, 79936, Note_on_c, 4, 81, 99
10, 79936, Program_c, 4, 80
10, 79936, Note_on_c, 4, 73, 57
10, 79994, Note_on_c, 4, 81, 0
10, 79994, Note_on_c, 4, 73, 0
10, 80000, Program_c, 4, 81
10, 80000, Note_on_c, 4, 78, 99
10, 80000, Program_c, 4, 80
10, 80000, Note_on_c, 4, 69, 53
10, 80058, Note_on_c, 4, 78, 0
10, 80058, Note_on_c, 4, 69, 0
10, 80064, Program_c, 4, 81
10, 80064, Note_on_c, 4, 86, 125
10, 80064, Program_c, 4, 80
10, 80064, Note_on_c, 4, 66, 56
10, 80122, Note_on_c, 4, 86, 0
10, 80122, Note_on_c, 4, 66, 0
10, 80128, Program_c, 4, 81
10, 80128, Note_on_c, 4, 81, 104
10, 80128, Program_c, 4, 80
10, 80128, Note_on_c, 4, 74, 76
10, 80186, Note_on_c, 4, 81, 0
10, 80186, Note_on_c, 4, 74, 0
10, 80192, Program_c, 4, 81
10, 80192, Note_on_c, 4, 78, 100
10, 80192, Program_c, 4, 80
10, 80192, Note_on_c, 4, 69, 58
10, 80250, Note_on_c, 4, 78, 0
10, 80250, Note_on_c, 4, 69, 0
10, 80256, Program_c, 4, 81
10, 80256, Note_on_c, 4, 85, 126
10, 80256, Program_c, 4, 80
10, 80256, Note_on_c, 4, 66, 55
10, 80314, Note_on_c, 4, 85, 0
10, 80314, Note_on_c, 4, 66, 0
10, 80320, Program_c, 4, 81
10, 80320, Note_on_c, 4, 81, 101
10, 80320, Program_c, 4, 80
10, 80320, Note_on_c, 4, 73, 72
10, 80378, Note_on_c, 4, 81, 0
10, 80378, Note_on_c, 4, 73, 0
10, 80384, Program_c, 4, 81
10, 80384, Note_on_c, 4, 78, 103
10, 80384, Program_c, 4, 80
10, 80384, Note_on_c, 4, 69, 60
10, 80442, Note_on_c, 4, 78, 0
10, 80442, Note_on_c, 4, 69, 0
10, 80448, Program_c, 4, 81
10, 80448, Note_on_c, 4, 85, 127
10, 80448, Program_c, 4, 80
10, 80448, Note_on_c, 4, 66, 58
10, 80506, Note_on_c, 4, 85, 0
10, 80506, Note_on_c, 4, 66, 0
10, 80512, Program_c, 4, 81
10, 80512, Note_on_c, 4, 81, 103
10, 80512, Program_c, 4, 80
10, 80512, Note_on_c, 4, 73, 72
10, 80570, Note_on_c, 4, 81, 0
10, 80570, Note_on_c, 4, 73, 0
10, 80576, Program_c, 4, 81
10, 80576, Note_on_c, 4, 78, 97
10, 80576, Program_c, 4, 80
10, 80576, Note_on_c, 4, 69, 58
10, 80634, Note_on_c, 4, 78, 0
10, 80634, Note_on_c, 4, 69, 0
10, 80640, Program_c, 4, 81
10, 80640, Note_on_c, 4, 85, 127
10, 80640, Program_c, 4, 80
10, 80640, Note_on_c, 4, 66, 61
10, 80698, Note_on_c, 4, 85, 0
10, 80698, Note_on_c, 4, 66, 0
10, 80704, Program_c, 4, 81
10, 80704, Note_on_c, 4, 78, 92
10, 80704, Program_c, 4, 80
10, 80704, Note_on_c, 4, 73, 73
10, 80762, Note_on_c, 4, 78, 0
10, 80762, Note_on_c, 4, 73, 0
10, 80768, Program_c, 4, 81
10, 80768, Note_on_c, 4, 83, 122
10, 80768, Program_c, 4, 80
10, 80768, Note_on_c, 4, 66, 54
10, 80826, Note_on_c, 4, 83, 0
10, 80826, Note_on_c, 4, 66, 0
10, 80832, Program_c, 4, 81
10, 80832, Note_on_c, 4, 78, 97
10, 80832, Program_c, 4, 80
10, 80832, Note_on_c, 4, 71, 68
10, 80890, Note_on_c, 4, 78, 0
10, 80890, Note_on_c, 4, 71, 0
10, 80896, Program_c, 4, 81
10, 80896, Note_on_c, 4, 85, 127
10, 80954, Note_on_c, 4, 85, 0
10, 80960, Note_on_c, 4, 81, 103
10, 80960, Program_c, 4, 80
10, 80960, Note_on_c, 4, 73, 42
10, 81018, Note_on_c, 4, 81, 0
10, 81018, Note_on_c, 4, 73, 0
10, 81024, Program_c, 4, 81
10, 81024, Note_on_c, 4, 73, 88
10, 81024, Program_c, 4, 80
10, 81024, Note_on_c, 4, 69, 41
10, 81082, Note_on_c, 4, 73, 0
10, 81082, Note_on_c, 4, 69, 0
10, 81088, Program_c, 4, 81
10, 81088, Note_on_c, 4, 78, 122
10, 81088, Program_c, 4, 80
10, 81088, Note_on_c, 4, 61, 37
10, 81146, Note_on_c, 4, 78, 0
10, 81146, Note_on_c, 4, 61, 0
10, 81152, Program_c, 4, 81
10, 81152, Note_on_c, 4, 83, 127
10, 81152, Program_c, 4, 80
10, 81152, Note_on_c, 4, 66, 53
10, 81210, Note_on_c, 4, 83, 0
10, 81210, Note_on_c, 4, 66, 0
10, 81216, Program_c, 4, 81
10, 81216, Note_on_c, 4, 78, 96
10, 81216, Program_c, 4, 80
10, 81216, Note_on_c, 4, 71, 56
10, 81274, Note_on_c, 4, 78, 0
10, 81274, Note_on_c, 4, 71, 0
10, 81280, Program_c, 4, 81
10, 81280, Note_on_c, 4, 73, 93
10, 81280, Program_c, 4, 80
10, 81280, Note_on_c, 4, 66, 42
10, 81338, Note_on_c, 4, 73, 0
10, 81338, Note_on_c, 4, 66, 0
10, 81344, Program_c, 4, 81
10, 81344, Note_on_c, 4, 81, 127
10, 81344, Program_c, 4, 80
10, 81344, Note_on_c, 4, 61, 40
10, 81402, Note_on_c, 4, 61, 0
10, 81408, Note_on_c, 4, 69, 58
10, 81460, Note_on_c, 4, 81, 0
10, 81472, Program_c, 4, 81
10, 81472, Note_on_c, 4, 78, 105
10, 81524, Note_on_c, 4, 69, 0
10, 81530, Note_on_c, 4, 78, 0
10, 81536, Note_on_c, 4, 73, 94
10, 81536, Program_c, 4, 80
10, 81536, Note_on_c, 4, 66, 46
10, 81594, Note_on_c, 4, 73, 0
10, 81594, Note_on_c, 4, 66, 0
10, 81600, Program_c, 4, 81
10, 81600, Note_on_c, 4, 78, 123
10, 81600, Program_c, 4, 80
10, 81600, Note_on_c, 4, 61, 40
10, 81658, Note_on_c, 4, 78, 0
10, 81658, Note_on_c, 4, 61, 0
10, 81664, Program_c, 4, 81
10, 81664, Note_on_c, 4, 80, 122
10, 81664, Program_c, 4, 80
10, 81664, Note_on_c, 4, 66, 56
10, 81722, Note_on_c, 4, 80, 0
10, 81722, Note_on_c, 4, 66, 0
10, 81728, Program_c, 4, 81
10, 81728, Note_on_c, 4, 78, 104
10, 81728, Program_c, 4, 80
10, 81728, Note_on_c, 4, 68, 49
10, 81786, Note_on_c, 4, 78, 0
10, 81786, Note_on_c, 4, 68, 0
10, 81792, Program_c, 4, 81
10, 81792, Note_on_c, 4, 77, 103
10, 81792, Program_c, 4, 80
10, 81792, Note_on_c, 4, 66, 44
10, 81850, Note_on_c, 4, 77, 0
10, 81850, Note_on_c, 4, 66, 0
10, 81856, Program_c, 4, 81
10, 81856, Note_on_c, 4, 73, 99
10, 81856, Program_c, 4, 80
10, 81856, Note_on_c, 4, 65, 47
10, 81914, Note_on_c, 4, 73, 0
10, 81914, Note_on_c, 4, 65, 0
10, 81920, Program_c, 4, 18
10, 81920, Note_on_c, 4, 78, 126
10, 81983, Note_on_c, 4, 78, 0
10, 82048, Note_on_c, 4, 78, 113
10, 82111, Note_on_c, 4, 78, 0
10, 82240, Note_on_c, 4, 78, 99
10, 82303, Note_on_c, 4, 78, 0
10, 82432, Note_on_c, 4, 78, 104
10, 82495, Note_on_c, 4, 78, 0
10, 82560, Note_on_c, 4, 76, 102
10, 82618, Note_on_c, 4, 76, 0
10, 82624, Note_on_c, 4, 78, 117
10, 82682, Note_on_c, 4, 78, 0
10, 82816, Note_on_c, 4, 78, 99
10, 82879, Note_on_c, 4, 78, 0
10, 82944, Note_on_c, 4, 76, 105
10, 83002, Note_on_c, 4, 76, 0
10, 83008, Note_on_c, 4, 78, 116
10, 83066, Note_on_c, 4, 78, 0
10, 83200, Note_on_c, 4, 78, 100
10, 83263, Note_on_c, 4, 78, 0
10, 83328, Note_on_c, 4, 78, 109
10, 83391, Note_on_c, 4, 78, 0
10, 83456, Note_on_c, 4, 76, 106
10, 83514, Note_on_c, 4, 76, 0
10, 83520, Note_on_c, 4, 78, 116
10, 83578, Note_on_c, 4, 78, 0
10, 83712, Note_on_c, 4, 78, 102
10, 83712, Note_on_c, 4, 81, 44
10, 83775, Note_on_c, 4, 78, 0
10, 83775, Note_on_c, 4, 81, 0
10, 83840, Note_on_c, 4, 78, 109
10, 83840, Note_on_c, 4, 81, 49
10, 83903, Note_on_c, 4, 78, 0
10, 83903, Note_on_c, 4, 81, 0
10, 84032, Note_on_c, 4, 78, 98
10, 84032, Note_on_c, 4, 81, 44
10, 84095, Note_on_c, 4, 78, 0
10, 84095, Note_on_c, 4, 81, 0
10, 84224, Note_on_c, 4, 78, 104
10, 84224, Note_on_c, 4, 81, 46
10, 84287, Note_on_c, 4, 78, 0
10, 84287, Note_on_c, 4, 81, 0
10, 84352, Note_on_c, 4, 76, 102
10, 84352, Note_on_c, 4, 80, 44
10, 84410, Note_on_c, 4, 76, 0
10, 84410, Note_on_c, 4, 80, 0
10, 84416, Note_on_c, 4, 78, 115
10, 84416, Note_on_c, 4, 81, 49
10, 84474, Note_on_c, 4, 78, 0
10, 84474, Note_on_c, 4, 81, 0
10, 84608, Note_on_c, 4, 78, 100
10, 84608, Note_on_c, 4, 81, 42
10, 84671, Note_on_c, 4, 78, 0
10, 84671, Note_on_c, 4, 81, 0
10, 84736, Note_on_c, 4, 76, 105
10, 84736, Note_on_c, 4, 80, 46
10, 84794, Note_on_c, 4, 76, 0
10, 84794, Note_on_c, 4, 80, 0
10, 84800, Note_on_c, 4, 78, 117
10, 84800, Note_on_c, 4, 81, 47
10, 84858, Note_on_c, 4, 78, 0
10, 84858, Note_on_c, 4, 81, 0
10, 84992, Note_on_c, 4, 78, 104
10, 84992, Note_on_c, 4, 81, 45
10, 85055, Note_on_c, 4, 78, 0
10, 85055, Note_on_c, 4, 81, 0
10, 85120, Note_on_c, 4, 78, 111
10, 85120, Note_on_c, 4, 81, 46
10, 85183, Note_on_c, 4, 78, 0
10, 85183, Note_on_c, 4, 81, 0
10, 85248, Note_on_c, 4, 76, 108
10, 85248, Note_on_c, 4, 80, 50
10, 85306, Note_on_c, 4, 76, 0
10, 85306, Note_on_c, 4, 80, 0
10, 85312, Note_on_c, 4, 78, 116
10, 85312, Note_on_c, 4, 81, 49
10, 85370, Note_on_c, 4, 78, 0
10, 85370, Note_on_c, 4, 81, 0
10, 85504, Note_on_c, 4, 78, 102
10, 85504, Note_on_c, 4, 81, 44
10, 85567, Note_on_c, 4, 78, 0
10, 85567, Note_on_c, 4, 81, 0
10, 85632, Note_on_c, 4, 78, 110
10, 85632, Note_on_c, 4, 81, 46
10, 85695, Note_on_c, 4, 78, 0
10, 85695, Note_on_c, 4, 81, 0
10, 85824, Note_on_c, 4, 78, 98
10, 85824, Note_on_c, 4, 81, 45
10, 85887, Note_on_c, 4, 78, 0
10, 85887, Note_on_c, 4, 81, 0
10, 86016, Note_on_c, 4, 78, 103
10, 86016, Note_on_c, 4, 81, 48
10, 86079, Note_on_c, 4, 78, 0
10, 86079, Note_on_c, 4, 81, 0
10, 86144, Note_on_c, 4, 76, 102
10, 86144, Note_on_c, 4, 80, 45
10, 86202, Note_on_c, 4, 76, 0
10, 86202, Note_on_c, 4, 80, 0
10, 86208, Note_on_c, 4, 78, 116
10, 86208, Note_on_c, 4, 81, 48
10, 86266, Note_on_c, 4, 78, 0
10, 86266, Note_on_c, 4, 81, 0
10, 86400, Note_on_c, 4, 78, 100
10, 86400, Note_on_c, 4, 81, 43
10, 86463, Note_on_c, 4, 78, 0
10, 86463, Note_on_c, 4, 81, 0
10, 86528, Note_on_c, 4, 76, 104
10, 86528, Note_on_c, 4, 80, 49
10, 86586, Note_on_c, 4, 76, 0
10, 86586, Note_on_c, 4, 80, 0
10, 86592, Note_on_c, 4, 78, 116
10, 86592, Note_on_c, 4, 81, 51
10, 86650, Note_on_c, 4, 78, 0
10, 86650, Note_on_c, 4, 81, 0
10, 86784, Note_on_c, 4, 78, 100
10, 86784, Note_on_c, 4, 81, 47
10, 86847, Note_on_c, 4, 78, 0
10, 86847, Note_on_c, 4, 81, 0
10, 86912, Note_on_c, 4, 78, 110
10, 86912, Note_on_c, 4, 81, 45
10, 86975, Note_on_c, 4, 78, 0
10, 86975, Note_on_c, 4, 81, 0
10, 87040, Note_on_c, 4, 76, 108
10, 87040, Note_on_c, 4, 80, 50
10, 87098, Note_on_c, 4, 76, 0
10, 87098, Note_on_c, 4, 80, 0
10, 87104, Note_on_c, 4, 78, 116
10, 87104, Note_on_c, 4, 81, 50
10, 87162, Note_on_c, 4, 78, 0
10, 87162, Note_on_c, 4, 81, 0
10, 87296, Note_on_c, 4, 78, 102
10, 87296, Note_on_c, 4, 81, 46
10, 87359, Note_on_c, 4, 78, 0
10, 87359, Note_on_c, 4, 81, 0
10, 87424, Note_on_c, 4, 78, 111
10, 87424, Note_on_c, 4, 81, 46
10, 87487, Note_on_c, 4, 78, 0
10, 87487, Note_on_c, 4, 81, 0
10, 87616, Note_on_c, 4, 78, 101
10, 87616, Note_on_c, 4, 81, 43
10, 87679, Note_on_c, 4, 78, 0
10, 87679, Note_on_c, 4, 81, 0
10, 87808, Note_on_c, 4, 78, 104
10, 87808, Note_on_c, 4, 81, 47
10, 87871, Note_on_c, 4, 78, 0
10, 87871, Note_on_c, 4, 81, 0
10, 87936, Note_on_c, 4, 76, 101
10, 87936, Note_on_c, 4, 80, 47
10, 87994, Note_on_c, 4, 76, 0
10, 87994, Note_on_c, 4, 80, 0
10, 88000, Note_on_c, 4, 78, 118
10, 88000, Note_on_c, 4, 81, 48
10, 88058, Note_on_c, 4, 78, 0
10, 88058, Note_on_c, 4, 81, 0
10, 88192, Note_on_c, 4, 78, 100
10, 88192, Note_on_c, 4, 81, 42
10, 88255, Note_on_c, 4, 78, 0
10, 88255, Note_on_c, 4, 81, 0
10, 88320, Note_on_c, 4, 76, 104
10, 88320, Note_on_c, 4, 80, 48
10, 88378, Note_on_c, 4, 76, 0
10, 88378, Note_on_c, 4, 80, 0
10, 88384, Note_on_c, 4, 78, 116
10, 88384, Note_on_c, 4, 81, 50
10, 88442, Note_on_c, 4, 78, 0
10, 88442, Note_on_c, 4, 81, 0
10, 88576, Note_on_c, 4, 78, 102
10, 88576, Note_on_c, 4, 81, 46
10, 88639, Note_on_c, 4, 78, 0
10, 88639, Note_on_c, 4, 81, 0
10, 88704, Note_on_c, 4, 78, 108
10, 88704, Note_on_c, 4, 81, 45
10, 88767, Note_on_c, 4, 78, 0
10, 88767, Note_on_c, 4, 81, 0
10, 88832, Note_on_c, 4, 76, 108
10, 88832, Note_on_c, 4, 80, 47
10, 88890, Note_on_c, 4, 76, 0
10, 88890, Note_on_c, 4, 80, 0
10, 88896, Note_on_c, 4, 78, 115
10, 88896, Note_on_c, 4, 81, 50
10, 88954, Note_on_c, 4, 78, 0
10, 88954, Note_on_c, 4, 81, 0
10, 89088, Note_on_c, 4, 78, 103
10, 89088, Note_on_c, 4, 81, 48
10, 89151, Note_on_c, 4, 78, 0
10, 89151, Note_on_c, 4, 81, 0
10, 89216, Note_on_c, 4, 78, 110
10, 89216, Note_on_c, 4, 81, 47
10, 89279, Note_on_c, 4, 78, 0
10, 89279, Note_on_c, 4, 81, 0
10, 89408, Note_on_c, 4, 78, 99
10, 89408, Note_on_c, 4, 81, 44
10, 89471, Note_on_c, 4, 78, 0
10, 89471, Note_on_c, 4, 81, 0
10, 89600, Note_on_c, 4, 78, 100
10, 89600, Note_on_c, 4, 81, 47
10, 89663, Note_on_c, 4, 78, 0
10, 89663, Note_on_c, 4, 81, 0
10, 89728, Note_on_c, 4, 76, 100
10, 89728, Note_on_c, 4, 80, 45
10, 89786, Note_on_c, 4, 76, 0
10, 89786, Note_on_c, 4, 80, 0
10, 89792, Note_on_c, 4, 78, 117
10, 89792, Note_on_c, 4, 81, 49
10, 89850, Note_on_c, 4, 78, 0
10, 89850, Note_on_c, 4, 81, 0
10, 89984, Note_on_c, 4, 78, 99
10, 89984, Note_on_c, 4, 81, 43
10, 90047, Note_on_c, 4, 78, 0
10, 90047, Note_on_c, 4, 81, 0
10, 90112, Note_on_c, 4, 76, 107
10, 90112, Note_on_c, 4, 80, 48
10, 90170, Note_on_c, 4, 76, 0
10, 90170, Note_on_c, 4, 80, 0
10, 90176, Note_on_c, 4, 78, 119
10, 90176, Note_on_c, 4, 81, 49
10, 90234, Note_on_c, 4, 78, 0
10, 90234, Note_on_c, 4, 81, 0
10, 90368, Note_on_c, 4, 78, 103
10, 90368, Note_on_c, 4, 81, 46
10, 90431, Note_on_c, 4, 78, 0
10, 90431, Note_on_c, 4, 81, 0
10, 90496, Note_on_c, 4, 78, 109
10, 90496, Note_on_c, 4, 81, 49
10, 90559, Note_on_c, 4, 78, 0
10, 90559, Note_on_c, 4, 81, 0
10, 90624, Note_on_c, 4, 76, 107
10, 90624, Note_on_c, 4, 80, 48
10, 90682, Note_on_c, 4, 76, 0
10, 90682, Note_on_c, 4, 80, 0
10, 90688, Note_on_c, 4, 78, 118
10, 90688, Note_on_c, 4, 81, 50
10, 90746, Note_on_c, 4, 78, 0
10, 90746, Note_on_c, 4, 81, 0
10, 90880, Note_on_c, 4, 78, 104
10, 90880, Note_on_c, 4, 81, 45
10, 90943, Note_on_c, 4, 78, 0
10, 90943, Note_on_c, 4, 81, 0
10, 91008, Note_on_c, 4, 78, 109
10, 91008, Note_on_c, 4, 81, 46
10, 91071, Note_on_c, 4, 78, 0
10, 91071, Note_on_c, 4, 81, 0
10, 91200, Note_on_c, 4, 78, 98
10, 91200, Note_on_c, 4, 81, 43
10, 91263, Note_on_c, 4, 78, 0
10, 91263, Note_on_c, 4, 81, 0
10, 91392, Note_on_c, 4, 78, 101
10, 91392, Note_on_c, 4, 81, 46
10, 91455, Note_on_c, 4, 78, 0
10, 91455, Note_on_c, 4, 81, 0
10, 91520, Note_on_c, 4, 76, 101
10, 91520, Note_on_c, 4, 80, 45
10, 91578, Note_on_c, 4, 76, 0
10, 91578, Note_on_c, 4, 80, 0
10, 91584, Note_on_c, 4, 78, 116
10, 91584, Note_on_c, 4, 81, 50
10, 91642, Note_on_c, 4, 78, 0
10, 91642, Note_on_c, 4, 81, 0
10, 91776, Note_on_c, 4, 78, 100
10, 91776, Note_on_c, 4, 81, 45
10, 91839, Note_on_c, 4, 78, 0
10, 91839, Note_on_c, 4, 81, 0
10, 91904, Note_on_c, 4, 76, 105
10, 91904, Note_on_c, 4, 80, 48
10, 91962, Note_on_c, 4, 76, 0
10, 91962, Note_on_c, 4, 80, 0
10, 91968, Note_on_c, 4, 78, 119
10, 91968, Note_on_c, 4, 81, 48
10, 92026, Note_on_c, 4, 78, 0
10, 92026, Note_on_c, 4, 81, 0
10, 92160, Note_on_c, 4, 78, 101
10, 92160, Note_on_c, 4, 81, 47
10, 92223, Note_on_c, 4, 78, 0
10, 92223, Note_on_c, 4, 81, 0
10, 92288, Note_on_c, 4, 78, 110
10, 92288, Note_on_c, 4, 81, 47
10, 92351, Note_on_c, 4, 78, 0
10, 92351, Note_on_c, 4, 81, 0
10, 92416, Note_on_c, 4, 76, 109
10, 92416, Note_on_c, 4, 80, 47
10, 92474, Note_on_c, 4, 76, 0
10, 92474, Note_on_c, 4, 80, 0
10, 92480, Note_on_c, 4, 78, 117
10, 92480, Note_on_c, 4, 81, 47
10, 92538, Note_on_c, 4, 78, 0
10, 92538, Note_on_c, 4, 81, 0
10, 92672, Note_on_c, 4, 75, 100
10, 92672, Note_on_c, 4, 78, 72
10, 92735, Note_on_c, 4, 75, 0
10, 92735, Note_on_c, 4, 78, 0
10, 92800, Note_on_c, 4, 75, 110
10, 92800, Note_on_c, 4, 78, 80
10, 92863, Note_on_c, 4, 75, 0
10, 92863, Note_on_c, 4, 78, 0
10, 92992, Note_on_c, 4, 75, 101
10, 92992, Note_on_c, 4, 78, 70
10, 93055, Note_on_c, 4, 75, 0
10, 93055, Note_on_c, 4, 78, 0
10, 93184, Note_on_c, 4, 75, 103
10, 93184, Note_on_c, 4, 78, 73
10, 93247, Note_on_c, 4, 75, 0
10, 93247, Note_on_c, 4, 78, 0
10, 93312, Note_on_c, 4, 73, 101
10, 93312, Note_on_c, 4, 77, 74
10, 93370, Note_on_c, 4, 73, 0
10, 93370, Note_on_c, 4, 77, 0
10, 93376, Note_on_c, 4, 75, 115
10, 93376, Note_on_c, 4, 78, 84
10, 93434, Note_on_c, 4, 75, 0
10, 93434, Note_on_c, 4, 78, 0
10, 93568, Note_on_c, 4, 75, 100
10, 93568, Note_on_c, 4, 78, 72
10, 93631, Note_on_c, 4, 75, 0
10, 93631, Note_on_c, 4, 78, 0
10, 93696, Note_on_c, 4, 73, 104
10, 93696, Note_on_c, 4, 77, 80
10, 93754, Note_on_c, 4, 73, 0
10, 93754, Note_on_c, 4, 77, 0
10, 93760, Note_on_c, 4, 75, 117
10, 93760, Note_on_c, 4, 78, 83
10, 93818, Note_on_c, 4, 75, 0
10, 93818, Note_on_c, 4, 78, 0
10, 93952, Note_on_c, 4, 75, 100
10, 93952, Note_on_c, 4, 78, 74
10, 94015, Note_on_c, 4, 75, 0
10, 94015, Note_on_c, 4, 78, 0
10, 94080, Note_on_c, 4, 75, 108
10, 94080, Note_on_c, 4, 78, 79
10, 94143, Note_on_c, 4, 75, 0
10, 94143, Note_on_c, 4, 78, 0
10, 94208, Note_on_c, 4, 73, 107
10, 94208, Note_on_c, 4, 77, 79
10, 94266, Note_on_c, 4, 73, 0
10, 94266, Note_on_c, 4, 77, 0
10, 94272, Note_on_c, 4, 75, 119
10, 94272, Note_on_c, 4, 78, 85
10, 94330, Note_on_c, 4, 75, 0
10, 94330, Note_on_c, 4, 78, 0
10, 94464, Note_on_c, 4, 75, 103
10, 94464, Note_on_c, 4, 78, 74
10, 94527, Note_on_c, 4, 75, 0
10, 94527, Note_on_c, 4, 78, 0
10, 94592, Note_on_c, 4, 75, 109
10, 94592, Note_on_c, 4, 78, 77
10, 94655, Note_on_c, 4, 75, 0
10, 94655, Note_on_c, 4, 78, 0
10, 94784, Note_on_c, 4, 75, 98
10, 94784, Note_on_c, 4, 78, 71
10, 94847, Note_on_c, 4, 75, 0
10, 94847, Note_on_c, 4, 78, 0
10, 94976, Note_on_c, 4, 75, 103
10, 94976, Note_on_c, 4, 78, 73
10, 95039, Note_on_c, 4, 75, 0
10, 95039, Note_on_c, 4, 78, 0
10, 95104, Note_on_c, 4, 73, 104
10, 95104, Note_on_c, 4, 77, 76
10, 95162, Note_on_c, 4, 73, 0
10, 95162, Note_on_c, 4, 77, 0
10, 95168, Note_on_c, 4, 75, 116
10, 95168, Note_on_c, 4, 78, 81
10, 95226, Note_on_c, 4, 75, 0
10, 95226, Note_on_c, 4, 78, 0
10, 95360, Note_on_c, 4, 75, 100
10, 95360, Note_on_c, 4, 78, 71
10, 95423, Note_on_c, 4, 75, 0
10, 95423, Note_on_c, 4, 78, 0
10, 95488, Note_on_c, 4, 73, 105
10, 95488, Note_on_c, 4, 77, 78
10, 95546, Note_on_c, 4, 73, 0
10, 95546, Note_on_c, 4, 77, 0
10, 95552, Note_on_c, 4, 75, 116
10, 95552, Note_on_c, 4, 78, 84
10, 95610, Note_on_c, 4, 75, 0
10, 95610, Note_on_c, 4, 78, 0
10, 95744, Note_on_c, 4, 75, 101
10, 95744, Note_on_c, 4, 78, 74
10, 95807, Note_on_c, 4, 75, 0
10, 95807, Note_on_c, 4, 78, 0
10, 95872, Note_on_c, 4, 75, 111
10, 95872, Note_on_c, 4, 78, 79
10, 95935, Note_on_c, 4, 75, 0
10, 95935, Note_on_c, 4, 78, 0
10, 96000, Note_on_c, 4, 73, 108
10, 96000, Note_on_c, 4, 77, 78
10, 96058, Note_on_c, 4, 73, 0
10, 96058, Note_on_c, 4, 77, 0
10, 96064, Note_on_c, 4, 75, 115
10, 96064, Note_on_c, 4, 78, 82
10, 96122, Note_on_c, 4, 75, 0
10, 96122, Note_on_c, 4, 78, 0
10, 96256, Note_on_c, 4, 78, 104
10, 96256, Note_on_c, 4, 81, 75
10, 96319, Note_on_c, 4, 78, 0
10, 96319, Note_on_c, 4, 81, 0
10, 96384, Note_on_c, 4, 78, 108
10, 96384, Note_on_c, 4, 81, 77
10, 96447, Note_on_c, 4, 78, 0
10, 96447, Note_on_c, 4, 81, 0
10, 96576, Note_on_c, 4, 78, 98
10, 96576, Note_on_c, 4, 81, 70
10, 96639, Note_on_c, 4, 78, 0
10, 96639, Note_on_c, 4, 81, 0
10, 96768, Note_on_c, 4, 78, 102
10, 96768, Note_on_c, 4, 81, 74
10, 96831, Note_on_c, 4, 78, 0
10, 96831, Note_on_c, 4, 81, 0
10, 96896, Note_on_c, 4, 76, 102
10, 96896, Note_on_c, 4, 80, 74
10, 96954, Note_on_c, 4, 76, 0
10, 96954, Note_on_c, 4, 80, 0
10, 96960, Note_on_c, 4, 78, 116
10, 96960, Note_on_c, 4, 81, 84
10, 97018, Note_on_c, 4, 78, 0
10, 97018, Note_on_c, 4, 81, 0
10, 97152, Note_on_c, 4, 78, 100
10, 97152, Note_on_c, 4, 81, 72
10, 97215, Note_on_c, 4, 78, 0
10, 97215, Note_on_c, 4, 81, 0
10, 97280, Note_on_c, 4, 76, 104
10, 97280, Note_on_c, 4, 80, 78
10, 97338, Note_on_c, 4, 76, 0
10, 97338, Note_on_c, 4, 80, 0
10, 97344, Note_on_c, 4, 78, 116
10, 97344, Note_on_c, 4, 81, 84
10, 97402, Note_on_c, 4, 78, 0
10, 97402, Note_on_c, 4, 81, 0
10, 97536, Note_on_c, 4, 78, 101
10, 97536, Note_on_c, 4, 81, 73
10, 97599, Note_on_c, 4, 78, 0
10, 97599, Note_on_c, 4, 81, 0
10, 97664, Note_on_c, 4, 78, 110
10, 97664, Note_on_c, 4, 81, 76
10, 97727, Note_on_c, 4, 78, 0
10, 97727, Note_on_c, 4, 81, 0
10, 97792, Note_on_c, 4, 76, 109
10, 97792, Note_on_c, 4, 80, 78
10, 97850, Note_on_c, 4, 76, 0
10, 97850, Note_on_c, 4, 80, 0
10, 97856, Note_on_c, 4, 78, 118
10, 97856, Note_on_c, 4, 81, 83
10, 97914, Note_on_c, 4, 78, 0
10, 97914, Note_on_c, 4, 81, 0
10, 98048, Note_on_c, 4, 78, 104
10, 98048, Note_on_c, 4, 81, 73
10, 98111, Note_on_c, 4, 78, 0
10, 98111, Note_on_c, 4, 81, 0
10, 98176, Note_on_c, 4, 78, 107
10, 98176, Note_on_c, 4, 81, 80
10, 98239, Note_on_c, 4, 78, 0
10, 98239, Note_on_c, 4, 81, 0
10, 98368, Note_on_c, 4, 78, 98
10, 98368, Note_on_c, 4, 81, 70
10, 98431, Note_on_c, 4, 78, 0
10, 98431, Note_on_c, 4, 81, 0
10, 98560, Note_on_c, 4, 78, 104
10, 98560, Note_on_c, 4, 81, 75
10, 98623, Note_on_c, 4, 78, 0
10, 98623, Note_on_c, 4, 81, 0
10, 98688, Note_on_c, 4, 76, 100
10, 98688, Note_on_c, 4, 80, 74
10, 98746, Note_on_c, 4, 76, 0
10, 98746, Note_on_c, 4, 80, 0
10, 98752, Note_on_c, 4, 78, 116
10, 98752, Note_on_c, 4, 81, 84
10, 98810, Note_on_c, 4, 78, 0
10, 98810, Note_on_c, 4, 81, 0
10, 98944, Note_on_c, 4, 78, 98
10, 98944, Note_on_c, 4, 81, 70
10, 99007, Note_on_c, 4, 78, 0
10, 99007, Note_on_c, 4, 81, 0
10, 99072, Note_on_c, 4, 76, 104
10, 99072, Note_on_c, 4, 80, 76
10, 99130, Note_on_c, 4, 76, 0
10, 99130, Note_on_c, 4, 80, 0
10, 99136, Note_on_c, 4, 78, 115
10, 99136, Note_on_c, 4, 81, 82
10, 99194, Note_on_c, 4, 78, 0
10, 99194, Note_on_c, 4, 81, 0
10, 99328, Note_on_c, 4, 78, 103
10, 99328, Note_on_c, 4, 81, 75
10, 99391, Note_on_c, 4, 78, 0
10, 99391, Note_on_c, 4, 81, 0
10, 99456, Note_on_c, 4, 78, 108
10, 99456, Note_on_c, 4, 81, 80
10, 99519, Note_on_c, 4, 78, 0
10, 99519, Note_on_c, 4, 81, 0
10, 99584, Note_on_c, 4, 76, 107
10, 99584, Note_on_c, 4, 80, 80
10, 99642, Note_on_c, 4, 76, 0
10, 99642, Note_on_c, 4, 80, 0
10, 99648, Note_on_c, 4, 78, 115
10, 99648, Note_on_c, 4, 81, 85
10, 99706, Note_on_c, 4, 78, 0
10, 99706, Note_on_c, 4, 81, 0
10, 99840, Note_on_c, 4, 80, 101
10, 99840, Note_on_c, 4, 75, 72
10, 99898, Note_on_c, 4, 80, 0
10, 99898, Note_on_c, 4, 75, 0
10, 99904, Note_on_c, 4, 80, 109
10, 99904, Note_on_c, 4, 75, 78
10, 99962, Note_on_c, 4, 80, 0
10, 99962, Note_on_c, 4, 75, 0
10, 99968, Note_on_c, 4, 80, 110
10, 99968, Note_on_c, 4, 75, 81
10, 100084, Note_on_c, 4, 80, 0
10, 100084, Note_on_c, 4, 75, 0
10, 100096, Note_on_c, 4, 80, 113
10, 100096, Note_on_c, 4, 75, 82
10, 100212, Note_on_c, 4, 80, 0
10, 100212, Note_on_c, 4, 75, 0
10, 100224, Note_on_c, 4, 80, 112
10, 100224, Note_on_c, 4, 75, 81
10, 100282, Note_on_c, 4, 80, 0
10, 100282, Note_on_c, 4, 75, 0
10, 100288, Note_on_c, 4, 80, 110
10, 100288, Note_on_c, 4, 75, 78
10, 100404, Note_on_c, 4, 80, 0
10, 100404, Note_on_c, 4, 75, 0
10, 100416, Note_on_c, 4, 80, 112
10, 100416, Note_on_c, 4, 75, 78
10, 100532, Note_on_c, 4, 80, 0
10, 100532, Note_on_c, 4, 75, 0
10, 100544, Note_on_c, 4, 80, 111
10, 100544, Note_on_c, 4, 75, 78
10, 100602, Note_on_c, 4, 80, 0
10, 100602, Note_on_c, 4, 75, 0
10, 100608, Note_on_c, 4, 83, 124
10, 100608, Note_on_c, 4, 80, 95
10, 100724, Note_on_c, 4, 83, 0
10, 100724, Note_on_c, 4, 80, 0
10, 100736, Note_on_c, 4, 82, 105
10, 100736, Note_on_c, 4, 78, 78
10, 100852, Note_on_c, 4, 82, 0
10, 100852, Note_on_c, 4, 78, 0
10, 100864, Note_on_c, 4, 80, 106
10, 100864, Note_on_c, 4, 75, 75
10, 100922, Note_on_c, 4, 80, 0
10, 100922, Note_on_c, 4, 75, 0
10, 100928, Note_on_c, 4, 80, 109
10, 100928, Note_on_c, 4, 75, 77
10, 100986, Note_on_c, 4, 80, 0
10, 100986, Note_on_c, 4, 75, 0
10, 100992, Note_on_c, 4, 80, 113
10, 100992, Note_on_c, 4, 75, 82
10, 101108, Note_on_c, 4, 80, 0
10, 101108, Note_on_c, 4, 75, 0
10, 101120, Note_on_c, 4, 80, 113
10, 101120, Note_on_c, 4, 75, 82
10, 101236, Note_on_c, 4, 80, 0
10, 101236, Note_on_c, 4, 75, 0
10, 101248, Note_on_c, 4, 80, 109
10, 101248, Note_on_c, 4, 75, 79
10, 101306, Note_on_c, 4, 80, 0
10, 101306, Note_on_c, 4, 75, 0
10, 101312, Note_on_c, 4, 80, 110
10, 101312, Note_on_c, 4, 75, 79
10, 101428, Note_on_c, 4, 80, 0
10, 101428, Note_on_c, 4, 75, 0
10, 101440, Note_on_c, 4, 80, 112
10, 101440, Note_on_c, 4, 75, 80
10, 101556, Note_on_c, 4, 80, 0
10, 101556, Note_on_c, 4, 75, 0
10, 101568, Note_on_c, 4, 80, 113
10, 101568, Note_on_c, 4, 75, 78
10, 101626, Note_on_c, 4, 80, 0
10, 101626, Note_on_c, 4, 75, 0
10, 101632, Note_on_c, 4, 78, 109
10, 101632, Note_on_c, 4, 73, 76
10, 101863, Note_on_c, 4, 78, 0
10, 101863, Note_on_c, 4, 73, 0
10, 101888, Note_on_c, 4, 80, 120
10, 101888, Note_on_c, 4, 75, 88
10, 101946, Note_on_c, 4, 80, 0
10, 101946, Note_on_c, 4, 75, 0
10, 101952, Note_on_c, 4, 80, 110
10, 101952, Note_on_c, 4, 75, 81
10, 102010, Note_on_c, 4, 80, 0
10, 102010, Note_on_c, 4, 75, 0
10, 102016, Note_on_c, 4, 80, 109
10, 102016, Note_on_c, 4, 75, 80
10, 102132, Note_on_c, 4, 80, 0
10, 102132, Note_on_c, 4, 75, 0
10, 102144, Note_on_c, 4, 80, 113
10, 102144, Note_on_c, 4, 75, 81
10, 102260, Note_on_c, 4, 80, 0
10, 102260, Note_on_c, 4, 75, 0
10, 102272, Note_on_c, 4, 80, 111
10, 102272, Note_on_c, 4, 75, 82
10, 102330, Note_on_c, 4, 80, 0
10, 102330, Note_on_c, 4, 75, 0
10, 102336, Note_on_c, 4, 80, 112
10, 102336, Note_on_c, 4, 75, 81
10, 102452, Note_on_c, 4, 80, 0
10, 102452, Note_on_c, 4, 75, 0
10, 102464, Note_on_c, 4, 80, 112
10, 102464, Note_on_c, 4, 75, 79
10, 102580, Note_on_c, 4, 80, 0
10, 102580, Note_on_c, 4, 75, 0
10, 102592, Note_on_c, 4, 80, 110
10, 102592, Note_on_c, 4, 75, 81
10, 102650, Note_on_c, 4, 80, 0
10, 102650, Note_on_c, 4, 75, 0
10, 102656, Note_on_c, 4, 83, 122
10, 102656, Note_on_c, 4, 80, 93
10, 102772, Note_on_c, 4, 83, 0
10, 102772, Note_on_c, 4, 80, 0
10, 102784, Note_on_c, 4, 82, 108
10, 102784, Note_on_c, 4, 78, 77
10, 102900, Note_on_c, 4, 82, 0
10, 102900, Note_on_c, 4, 78, 0
10, 102912, Note_on_c, 4, 80, 109
10, 102912, Note_on_c, 4, 75, 77
10, 102970, Note_on_c, 4, 80, 0
10, 102970, Note_on_c, 4, 75, 0
10, 102976, Note_on_c, 4, 80, 109
10, 102976, Note_on_c, 4, 75, 78
10, 103034, Note_on_c, 4, 80, 0
10, 103034, Note_on_c, 4, 75, 0
10, 103040, Note_on_c, 4, 80, 113
10, 103040, Note_on_c, 4, 75, 80
10, 103156, Note_on_c, 4, 80, 0
10, 103156, Note_on_c, 4, 75, 0
10, 103168, Note_on_c, 4, 80, 113
10, 103168, Note_on_c, 4, 75, 84
10, 103284, Note_on_c, 4, 80, 0
10, 103284, Note_on_c, 4, 75, 0
10, 103296, Note_on_c, 4, 80, 109
10, 103296, Note_on_c, 4, 75, 81
10, 103354, Note_on_c, 4, 80, 0
10, 103354, Note_on_c, 4, 75, 0
10, 103360, Note_on_c, 4, 80, 112
10, 103360, Note_on_c, 4, 75, 82
10, 103476, Note_on_c, 4, 80, 0
10, 103476, Note_on_c, 4, 75, 0
10, 103488, Note_on_c, 4, 80, 112
10, 103488, Note_on_c, 4, 75, 79
10, 103604, Note_on_c, 4, 80, 0
10, 103604, Note_on_c, 4, 75, 0
10, 103616, Note_on_c, 4, 80, 110
10, 103616, Note_on_c, 4, 75, 82
10, 103674, Note_on_c, 4, 80, 0
10, 103674, Note_on_c, 4, 75, 0
10, 103680, Note_on_c, 4, 78, 106
10, 103680, Note_on_c, 4, 73, 78
10, 103911, Note_on_c, 4, 78, 0
10, 103911, Note_on_c, 4, 73, 0
10, 103936, Note_on_c, 4, 80, 118
10, 103936, Note_on_c, 4, 75, 87
10, 103994, Note_on_c, 4, 80, 0
10, 103994, Note_on_c, 4, 75, 0
10, 104000, Note_on_c, 4, 80, 110
10, 104000, Note_on_c, 4, 75, 81
10, 104058, Note_on_c, 4, 80, 0
10, 104058, Note_on_c, 4, 75, 0
10, 104064, Note_on_c, 4, 80, 111
10, 104064, Note_on_c, 4, 75, 79
10, 104180, Note_on_c, 4, 80, 0
10, 104180, Note_on_c, 4, 75, 0
10, 104192, Note_on_c, 4, 80, 116
10, 104192, Note_on_c, 4, 75, 83
10, 104308, Note_on_c, 4, 80, 0
10, 104308, Note_on_c, 4, 75, 0
10, 104320, Note_on_c, 4, 80, 110
10, 104320, Note_on_c, 4, 75, 78
10, 104378, Note_on_c, 4, 80, 0
10, 104378, Note_on_c, 4, 75, 0
10, 104384, Note_on_c, 4, 80, 112
10, 104384, Note_on_c, 4, 75, 79
10, 104500, Note_on_c, 4, 80, 0
10, 104500, Note_on_c, 4, 75, 0
10, 104512, Note_on_c, 4, 80, 110
10, 104512, Note_on_c, 4, 75, 81
10, 104628, Note_on_c, 4, 80, 0
10, 104628, Note_on_c, 4, 75, 0
10, 104640, Note_on_c, 4, 80, 111
10, 104640, Note_on_c, 4, 75, 81
10, 104698, Note_on_c, 4, 80, 0
10, 104698, Note_on_c, 4, 75, 0
10, 104704, Note_on_c, 4, 83, 122
10, 104704, Note_on_c, 4, 80, 92
10, 104820, Note_on_c, 4, 83, 0
10, 104820, Note_on_c, 4, 80, 0
10, 104832, Note_on_c, 4, 82, 107
10, 104832, Note_on_c, 4, 78, 76
10, 104948, Note_on_c, 4, 82, 0
10, 104948, Note_on_c, 4, 78, 0
10, 104960, Note_on_c, 4, 80, 108
10, 104960, Note_on_c, 4, 75, 74
10, 105018, Note_on_c, 4, 80, 0
10, 105018, Note_on_c, 4, 75, 0
10, 105024, Note_on_c, 4, 80, 109
10, 105024, Note_on_c, 4, 75, 79
10, 105082, Note_on_c, 4, 80, 0
10, 105082, Note_on_c, 4, 75, 0
10, 105088, Note_on_c, 4, 80, 110
10, 105088, Note_on_c, 4, 75, 79
10, 105204, Note_on_c, 4, 80, 0
10, 105204, Note_on_c, 4, 75, 0
10, 105216, Note_on_c, 4, 80, 116
10, 105216, Note_on_c, 4, 75, 83
10, 105332, Note_on_c, 4, 80, 0
10, 105332, Note_on_c, 4, 75, 0
10, 105344, Note_on_c, 4, 80, 109
10, 105344, Note_on_c, 4, 75, 80
10, 105402, Note_on_c, 4, 80, 0
10, 105402, Note_on_c, 4, 75, 0
10, 105408, Note_on_c, 4, 80, 112
10, 105408, Note_on_c, 4, 75, 82
10, 105524, Note_on_c, 4, 80, 0
10, 105524, Note_on_c, 4, 75, 0
10, 105536, Note_on_c, 4, 80, 111
10, 105536, Note_on_c, 4, 75, 80
10, 105652, Note_on_c, 4, 80, 0
10, 105652, Note_on_c, 4, 75, 0
10, 105664, Note_on_c, 4, 80, 112
10, 105664, Note_on_c, 4, 75, 82
10, 105722, Note_on_c, 4, 80, 0
10, 105722, Note_on_c, 4, 75, 0
10, 105728, Note_on_c, 4, 78, 107
10, 105728, Note_on_c, 4, 73, 79
10, 105959, Note_on_c, 4, 78, 0
10, 105959, Note_on_c, 4, 73, 0
10, 105984, Note_on_c, 4, 86, 127
10, 106042, Note_on_c, 4, 86, 0
10, 106048, Note_on_c, 4, 79, 95
10, 106106, Note_on_c, 4, 79, 0
10, 106112, Note_on_c, 4, 74, 92
10, 106170, Note_on_c, 4, 74, 0
10, 106176, Note_on_c, 4, 82, 127
10, 106292, Note_on_c, 4, 82, 0
10, 106304, Note_on_c, 4, 81, 107
10, 106362, Note_on_c, 4, 81, 0
10, 106368, Note_on_c, 4, 77, 98
10, 106426, Note_on_c, 4, 77, 0
10, 106432, Note_on_c, 4, 75, 104
10, 106490, Note_on_c, 4, 75, 0
10, 106496, Note_on_c, 4, 70, 99
10, 106554, Note_on_c, 4, 70, 0
10, 106560, Note_on_c, 4, 67, 99
10, 106618, Note_on_c, 4, 67, 0
10, 106624, Note_on_c, 4, 79, 126
10, 106682, Note_on_c, 4, 79, 0
10, 106688, Note_on_c, 4, 77, 108
10, 106746, Note_on_c, 4, 77, 0
10, 106752, Note_on_c, 4, 82, 127
10, 106810, Note_on_c, 4, 82, 0
10, 106816, Note_on_c, 4, 81, 110
10, 106874, Note_on_c, 4, 81, 0
10, 106880, Note_on_c, 4, 79, 102
10, 106938, Note_on_c, 4, 79, 0
10, 106944, Note_on_c, 4, 81, 116
10, 107002, Note_on_c, 4, 81, 0
10, 107008, Note_on_c, 4, 74, 95
10, 107066, Note_on_c, 4, 74, 0
10, 107072, Note_on_c, 4, 72, 99
10, 107130, Note_on_c, 4, 72, 0
10, 107136, Note_on_c, 4, 70, 100
10, 107194, Note_on_c, 4, 70, 0
10, 107200, Note_on_c, 4, 69, 104
10, 107258, Note_on_c, 4, 69, 0
10, 107264, Note_on_c, 4, 67, 107
10, 107322, Note_on_c, 4, 67, 0
10, 107328, Note_on_c, 4, 67, 112
10, 107386, Note_on_c, 4, 67, 0
10, 107392, Note_on_c, 4, 74, 127
10, 107450, Note_on_c, 4, 74, 0
10, 107456, Note_on_c, 4, 72, 109
10, 107514, Note_on_c, 4, 72, 0
10, 107520, Note_on_c, 4, 86, 127
10, 107578, Note_on_c, 4, 86, 0
10, 107584, Note_on_c, 4, 67, 86
10, 107642, Note_on_c, 4, 67, 0
10, 107648, Note_on_c, 4, 84, 126
10, 107706, Note_on_c, 4, 84, 0
10, 107712, Note_on_c, 4, 65, 84
10, 107770, Note_on_c, 4, 65, 0
10, 107776, Note_on_c, 4, 70, 124
10, 107834, Note_on_c, 4, 70, 0
10, 107840, Note_on_c, 4, 81, 125
10, 107898, Note_on_c, 4, 81, 0
10, 107904, Note_on_c, 4, 79, 108
10, 107962, Note_on_c, 4, 79, 0
10, 107968, Note_on_c, 4, 77, 104
10, 108026, Note_on_c, 4, 77, 0
10, 108032, Note_on_c, 4, 74, 122
10, 108032, Note_on_c, 4, 79, 121
10, 108090, Note_on_c, 4, 74, 0
10, 108090, Note_on_c, 4, 79, 0
10, 108096, Note_on_c, 4, 74, 110
10, 108096, Note_on_c, 4, 79, 112
10, 108154, Note_on_c, 4, 74, 0
10, 108154, Note_on_c, 4, 79, 0
10, 108160, Note_on_c, 4, 74, 112
10, 108160, Note_on_c, 4, 79, 112
10, 108276, Note_on_c, 4, 74, 0
10, 108276, Note_on_c, 4, 79, 0
10, 108288, Note_on_c, 4, 74, 116
10, 108288, Note_on_c, 4, 79, 112
10, 108404, Note_on_c, 4, 74, 0
10, 108404, Note_on_c, 4, 79, 0
10, 108416, Note_on_c, 4, 74, 111
10, 108416, Note_on_c, 4, 79, 111
10, 108474, Note_on_c, 4, 74, 0
10, 108474, Note_on_c, 4, 79, 0
10, 108480, Note_on_c, 4, 74, 112
10, 108480, Note_on_c, 4, 79, 112
10, 108543, Note_on_c, 4, 74, 0
10, 108543, Note_on_c, 4, 79, 0
10, 108608, Note_on_c, 4, 74, 110
10, 108608, Note_on_c, 4, 79, 113
10, 108724, Note_on_c, 4, 74, 0
10, 108724, Note_on_c, 4, 79, 0
10, 108736, Note_on_c, 4, 74, 111
10, 108736, Note_on_c, 4, 79, 110
10, 108794, Note_on_c, 4, 74, 0
10, 108794, Note_on_c, 4, 79, 0
10, 108800, Note_on_c, 4, 79, 124
10, 108800, Note_on_c, 4, 82, 123
10, 108916, Note_on_c, 4, 79, 0
10, 108916, Note_on_c, 4, 82, 0
10, 108928, Note_on_c, 4, 77, 106
10, 108928, Note_on_c, 4, 81, 106
10, 109044, Note_on_c, 4, 77, 0
10, 109044, Note_on_c, 4, 81, 0
10, 109056, Note_on_c, 4, 74, 107
10, 109056, Note_on_c, 4, 79, 105
10, 109114, Note_on_c, 4, 74, 0
10, 109114, Note_on_c, 4, 79, 0
10, 109120, Note_on_c, 4, 74, 110
10, 109120, Note_on_c, 4, 79, 112
10, 109178, Note_on_c, 4, 74, 0
10, 109178, Note_on_c, 4, 79, 0
10, 109184, Note_on_c, 4, 74, 112
10, 109184, Note_on_c, 4, 79, 110
10, 109300, Note_on_c, 4, 74, 0
10, 109300, Note_on_c, 4, 79, 0
10, 109312, Note_on_c, 4, 74, 114
10, 109312, Note_on_c, 4, 79, 115
10, 109428, Note_on_c, 4, 74, 0
10, 109428, Note_on_c, 4, 79, 0
10, 109440, Note_on_c, 4, 74, 112
10, 109440, Note_on_c, 4, 79, 109
10, 109498, Note_on_c, 4, 74, 0
10, 109498, Note_on_c, 4, 79, 0
10, 109504, Note_on_c, 4, 74, 111
10, 109504, Note_on_c, 4, 79, 113
10, 109567, Note_on_c, 4, 74, 0
10, 109567, Note_on_c, 4, 79, 0
10, 109632, Note_on_c, 4, 74, 110
10, 109632, Note_on_c, 4, 79, 109
10, 109748, Note_on_c, 4, 74, 0
10, 109748, Note_on_c, 4, 79, 0
10, 109760, Note_on_c, 4, 74, 110
10, 109760, Note_on_c, 4, 79, 112
10, 109818, Note_on_c, 4, 74, 0
10, 109818, Note_on_c, 4, 79, 0
10, 109824, Note_on_c, 4, 72, 106
10, 109824, Note_on_c, 4, 77, 107
10, 110055, Note_on_c, 4, 72, 0
10, 110055, Note_on_c, 4, 77, 0
10, 110144, Note_on_c, 4, 91, 100
10, 110202, Note_on_c, 4, 91, 0
10, 110208, Note_on_c, 4, 86, 93
10, 110266, Note_on_c, 4, 86, 0
10, 110272, Note_on_c, 4, 82, 96
10, 110388, Note_on_c, 4, 82, 0
10, 110400, Note_on_c, 4, 81, 104
10, 110458, Note_on_c, 4, 81, 0
10, 110464, Note_on_c, 4, 77, 99
10, 110522, Note_on_c, 4, 77, 0
10, 110528, Note_on_c, 4, 75, 104
10, 110586, Note_on_c, 4, 75, 0
10, 110592, Note_on_c, 4, 74, 106
10, 110650, Note_on_c, 4, 74, 0
10, 110720, Note_on_c, 4, 79, 98
10, 110778, Note_on_c, 4, 79, 0
10, 110784, Note_on_c, 4, 82, 119
10, 110842, Note_on_c, 4, 82, 0
10, 110848, Note_on_c, 4, 81, 109
10, 110906, Note_on_c, 4, 81, 0
10, 110912, Note_on_c, 4, 79, 105
10, 110970, Note_on_c, 4, 79, 0
10, 110976, Note_on_c, 4, 77, 103
10, 111034, Note_on_c, 4, 77, 0
10, 111040, Note_on_c, 4, 74, 99
10, 111098, Note_on_c, 4, 74, 0
10, 111104, Note_on_c, 4, 79, 125
10, 111162, Note_on_c, 4, 79, 0
10, 111168, Note_on_c, 4, 79, 111
10, 111231, Note_on_c, 4, 79, 0
10, 111296, Note_on_c, 4, 77, 118
10, 111296, Note_on_c, 4, 81, 118
10, 111469, Note_on_c, 4, 77, 0
10, 111469, Note_on_c, 4, 81, 0
10, 111488, Note_on_c, 4, 79, 105
10, 111546, Note_on_c, 4, 79, 0
10, 111552, Note_on_c, 4, 81, 116
10, 111610, Note_on_c, 4, 81, 0
10, 111616, Note_on_c, 4, 82, 121
10, 111674, Note_on_c, 4, 82, 0
10, 111680, Note_on_c, 4, 82, 109
10, 111796, Note_on_c, 4, 82, 0
10, 111808, Note_on_c, 4, 81, 116
10, 111808, Note_on_c, 4, 84, 119
10, 111924, Note_on_c, 4, 81, 0
10, 111924, Note_on_c, 4, 84, 0
10, 111936, Note_on_c, 4, 82, 102
10, 111994, Note_on_c, 4, 82, 0
10, 112000, Note_on_c, 4, 81, 102
10, 112058, Note_on_c, 4, 81, 0
10, 112064, Note_on_c, 4, 74, 97
10, 112064, Note_on_c, 4, 77, 99
10, 112122, Note_on_c, 4, 74, 0
10, 112122, Note_on_c, 4, 77, 0
10, 112128, Note_on_c, 4, 79, 117
10, 112359, Note_on_c, 4, 79, 0
10, 112384, Note_on_c, 4, 82, 122
10, 112615, Note_on_c, 4, 82, 0
10, 112640, Note_on_c, 4, 81, 107
10, 112871, Note_on_c, 4, 81, 0
10, 112896, Note_on_c, 4, 84, 119
10, 113127, Note_on_c, 4, 84, 0
10, 113152, Note_on_c, 4, 82, 108
10, 113383, Note_on_c, 4, 82, 0
10, 113408, Note_on_c, 4, 87, 124
10, 113639, Note_on_c, 4, 87, 0
10, 113664, Note_on_c, 4, 86, 109
10, 113895, Note_on_c, 4, 86, 0
10, 113920, Note_on_c, 4, 93, 125
10, 114151, Note_on_c, 4, 93, 0
10, 114176, Note_on_c, 4, 91, 112
10, 114894, Note_on_c, 4, 91, 0
10, 114944, Note_on_c, 4, 90, 110
10, 115060, Note_on_c, 4, 90, 0
10, 115072, Note_on_c, 4, 91, 113
10, 115130, Note_on_c, 4, 91, 0
10, 115136, Note_on_c, 4, 90, 107
10, 115194, Note_on_c, 4, 90, 0
10, 115200, Note_on_c, 4, 88, 108
10, 116174, Note_on_c, 4, 88, 0
10, 116224, Program_c, 4, 94
10, 116224, Note_on_c, 4, 64, 75
10, 116282, Note_on_c, 4, 64, 0
10, 116288, Note_on_c, 4, 62, 72
10, 116346, Note_on_c, 4, 62, 0
10, 116352, Note_on_c, 4, 60, 73
10, 116410, Note_on_c, 4, 60, 0
10, 116416, Note_on_c, 4, 59, 75
10, 116474, Note_on_c, 4, 59, 0
10, 116480, Note_on_c, 4, 55, 73
10, 116538, Note_on_c, 4, 55, 0
10, 116544, Note_on_c, 4, 53, 74
10, 116602, Note_on_c, 4, 53, 0
10, 116608, Note_on_c, 4, 52, 75
10, 116666, Note_on_c, 4, 52, 0
10, 116672, Note_on_c, 4, 50, 73
10, 116730, Note_on_c, 4, 50, 0
10, 116736, Note_on_c, 4, 48, 79
10, 116794, Note_on_c, 4, 48, 0
10, 116800, Note_on_c, 4, 47, 73
10, 116858, Note_on_c, 4, 47, 0
10, 116864, Note_on_c, 4, 45, 76
10, 116922, Note_on_c, 4, 45, 0
10, 116928, Note_on_c, 4, 43, 75
10, 116986, Note_on_c, 4, 43, 0
10, 116992, Note_on_c, 4, 41, 78
10, 117050, Note_on_c, 4, 41, 0
10, 117056, Note_on_c, 4, 40, 73
10, 117114, Note_on_c, 4, 40, 0
10, 117120, Note_on_c, 4, 38, 73
10, 117178, Note_on_c, 4, 38, 0
10, 117184, Note_on_c, 4, 35, 73
10, 117242, Note_on_c, 4, 35, 0
10, 117248, Note_on_c, 4, 64, 105
10, 117306, Note_on_c, 4, 64, 0
10, 117312, Note_on_c, 4, 62, 79
10, 117370, Note_on_c, 4, 62, 0
10, 117376, Note_on_c, 4, 60, 75
10, 117434, Note_on_c, 4, 60, 0
10, 117440, Note_on_c, 4, 59, 75
10, 117498, Note_on_c, 4, 59, 0
10, 117504, Note_on_c, 4, 55, 73
10, 117562, Note_on_c, 4, 55, 0
10, 117568, Note_on_c, 4, 53, 74
10, 117626, Note_on_c, 4, 53, 0
10, 117632, Note_on_c, 4, 52, 75
10, 117690, Note_on_c, 4, 52, 0
10, 117696, Note_on_c, 4, 50, 74
10, 117754, Note_on_c, 4, 50, 0
10, 117760, Note_on_c, 4, 48, 77
10, 117818, Note_on_c, 4, 48, 0
10, 117824, Note_on_c, 4, 47, 74
10, 117882, Note_on_c, 4, 47, 0
10, 117888, Note_on_c, 4, 45, 76
10, 117946, Note_on_c, 4, 45, 0
10, 117952, Note_on_c, 4, 43, 75
10, 118010, Note_on_c, 4, 43, 0
10, 118016, Note_on_c, 4, 41, 78
10, 118074, Note_on_c, 4, 41, 0
10, 118080, Note_on_c, 4, 40, 77
10, 118138, Note_on_c, 4, 40, 0
10, 118144, Note_on_c, 4, 38, 72
10, 118202, Note_on_c, 4, 38, 0
10, 118208, Note_on_c, 4, 35, 70
10, 118266, Note_on_c, 4, 35, 0
10, 120320, Note_on_c, 4, 64, 75
10, 120378, Note_on_c, 4, 64, 0
10, 120384, Note_on_c, 4, 62, 73
10, 120442, Note_on_c, 4, 62, 0
10, 120448, Note_on_c, 4, 60, 73
10, 120506, Note_on_c, 4, 60, 0
10, 120512, Note_on_c, 4, 59, 75
10, 120570, Note_on_c, 4, 59, 0
10, 120576, Note_on_c, 4, 55, 73
10, 120634, Note_on_c, 4, 55, 0
10, 120640, Note_on_c, 4, 53, 74
10, 120698, Note_on_c, 4, 53, 0
10, 120704, Note_on_c, 4, 52, 76
10, 120762, Note_on_c, 4, 52, 0
10, 120768, Note_on_c, 4, 50, 73
10, 120826, Note_on_c, 4, 50, 0
10, 120832, Note_on_c, 4, 48, 76
10, 120890, Note_on_c, 4, 48, 0
10, 120896, Note_on_c, 4, 47, 74
10, 120954, Note_on_c, 4, 47, 0
10, 120960, Note_on_c, 4, 45, 74
10, 121018, Note_on_c, 4, 45, 0
10, 121024, Note_on_c, 4, 43, 75
10, 121082, Note_on_c, 4, 43, 0
10, 121088, Note_on_c, 4, 41, 78
10, 121146, Note_on_c, 4, 41, 0
10, 121152, Note_on_c, 4, 40, 74
10, 121210, Note_on_c, 4, 40, 0
10, 121216, Note_on_c, 4, 38, 74
10, 121274, Note_on_c, 4, 38, 0
10, 121280, Note_on_c, 4, 35, 72
10, 121338, Note_on_c, 4, 35, 0
10, 121344, Note_on_c, 4, 64, 102
10, 121402, Note_on_c, 4, 64, 0
10, 121408, Note_on_c, 4, 62, 76
10, 121466, Note_on_c, 4, 62, 0
10, 121472, Note_on_c, 4, 60, 75
10, 121530, Note_on_c, 4, 60, 0
10, 121536, Note_on_c, 4, 59, 75
10, 121594, Note_on_c, 4, 59, 0
10, 121600, Note_on_c, 4, 55, 71
10, 121658, Note_on_c, 4, 55, 0
10, 121664, Note_on_c, 4, 53, 73
10, 121722, Note_on_c, 4, 53, 0
10, 121728, Note_on_c, 4, 52, 76
10, 121786, Note_on_c, 4, 52, 0
10, 121792, Note_on_c, 4, 50, 75
10, 121850, Note_on_c, 4, 50, 0
10, 121856, Note_on_c, 4, 50, 81
10, 121914, Note_on_c, 4, 50, 0
10, 121920, Note_on_c, 4, 52, 84
10, 121978, Note_on_c, 4, 52, 0
10, 121984, Note_on_c, 4, 53, 83
10, 122042, Note_on_c, 4, 53, 0
10, 122048, Note_on_c, 4, 55, 85
10, 122106, Note_on_c, 4, 55, 0
10, 122112, Note_on_c, 4, 57, 87
10, 122170, Note_on_c, 4, 57, 0
10, 122176, Note_on_c, 4, 59, 86
10, 122234, Note_on_c, 4, 59, 0
10, 122240, Note_on_c, 4, 60, 85
10, 122298, Note_on_c, 4, 60, 0
10, 122304, Note_on_c, 4, 62, 85
10, 122362, Note_on_c, 4, 62, 0
10, 124416, Program_c, 4, 81
10, 124416, Note_on_c, 4, 67, 34
10, 125390, Note_on_c, 4, 67, 0
10, 125440, Note_on_c, 4, 66, 34
10, 125902, Note_on_c, 4, 66, 0
10, 125952, Note_on_c, 4, 71, 38
10, 126414, Note_on_c, 4, 71, 0
10, 126464, Note_on_c, 4, 66, 35
10, 127438, Note_on_c, 4, 66, 0
10, 127488, Note_on_c, 4, 64, 35
10, 128206, Note_on_c, 4, 64, 0
10, 128256, Note_on_c, 4, 67, 41
10, 128372, Note_on_c, 4, 67, 0
10, 128384, Note_on_c, 4, 69, 38
10, 128500, Note_on_c, 4, 69, 0
10, 128512, Note_on_c, 4, 71, 41
10, 129486, Note_on_c, 4, 71, 0
10, 129536, Note_on_c, 4, 69, 37
10, 129998, Note_on_c, 4, 69, 0
10, 130048, Note_on_c, 4, 74, 37
10, 130510, Note_on_c, 4, 74, 0
10, 130560, Note_on_c, 4, 72, 37
10, 131534, Note_on_c, 4, 72, 0
10, 131584, Note_on_c, 4, 71, 35
10, 132558, Note_on_c, 4, 71, 0
10, 132608, Note_on_c, 4, 67, 35
10, 132608, Program_c, 4, 94
10, 132608, Note_on_c, 4, 64, 75
10, 132608, Note_on_c, 4, 67, 75
10, 132608, Note_on_c, 4, 71, 72
10, 133582, Note_on_c, 4, 67, 0
10, 133582, Note_on_c, 4, 64, 0
10, 133582, Note_on_c, 4, 67, 0
10, 133582, Note_on_c, 4, 71, 0
10, 133632, Program_c, 4, 81
10, 133632, Note_on_c, 4, 66, 36
10, 133632, Program_c, 4, 94
10, 133632, Note_on_c, 4, 62, 76
10, 133632, Note_on_c, 4, 66, 78
10, 133632, Note_on_c, 4, 69, 78
10, 134094, Note_on_c, 4, 66, 0
10, 134144, Program_c, 4, 81
10, 134144, Note_on_c, 4, 71, 38
10, 134606, Note_on_c, 4, 71, 0
10, 134606, Note_on_c, 4, 62, 0
10, 134606, Note_on_c, 4, 66, 0
10, 134606, Note_on_c, 4, 69, 0
10, 134656, Note_on_c, 4, 66, 35
10, 134656, Program_c, 4, 94
10, 134656, Note_on_c, 4, 62, 82
10, 134656, Note_on_c, 4, 66, 80
10, 134656, Note_on_c, 4, 69, 82
10, 135630, Note_on_c, 4, 66, 0
10, 135630, Note_on_c, 4, 62, 0
10, 135630, Note_on_c, 4, 66, 0
10, 135630, Note_on_c, 4, 69, 0
10, 135680, Program_c, 4, 81
10, 135680, Note_on_c, 4, 64, 34
10, 135680, Program_c, 4, 94
10, 135680, Note_on_c, 4, 60, 77
10, 135680, Note_on_c, 4, 64, 77
10, 135680, Note_on_c, 4, 67, 80
10, 136398, Note_on_c, 4, 64, 0
10, 136448, Program_c, 4, 81
10, 136448, Note_on_c, 4, 64, 35
10, 136564, Note_on_c, 4, 64, 0
10, 136576, Note_on_c, 4, 66, 38
10, 136654, Note_on_c, 4, 60, 0
10, 136654, Note_on_c, 4, 64, 0
10, 136654, Note_on_c, 4, 67, 0
10, 136692, Note_on_c, 4, 66, 0
10, 136704, Note_on_c, 4, 67, 39
10, 136704, Program_c, 4, 94
10, 136704, Note_on_c, 4, 60, 81
10, 136704, Note_on_c, 4, 64, 81
10, 136704, Note_on_c, 4, 67, 82
10, 137678, Note_on_c, 4, 67, 0
10, 137678, Note_on_c, 4, 60, 0
10, 137678, Note_on_c, 4, 64, 0
10, 137678, Note_on_c, 4, 67, 0
10, 137728, Program_c, 4, 81
10, 137728, Note_on_c, 4, 66, 37
10, 137728, Program_c, 4, 94
10, 137728, Note_on_c, 4, 57, 80
10, 137728, Note_on_c, 4, 64, 79
10, 137728, Note_on_c, 4, 66, 77
10, 138190, Note_on_c, 4, 66, 0
10, 138240, Program_c, 4, 81
10, 138240, Note_on_c, 4, 71, 39
10, 138702, Note_on_c, 4, 71, 0
10, 138702, Note_on_c, 4, 57, 0
10, 138702, Note_on_c, 4, 64, 0
10, 138702, Note_on_c, 4, 66, 0
10, 138752, Note_on_c, 4, 64, 95
10, 138752, Program_c, 4, 94
10, 138752, Note_on_c, 4, 52, 60
10, 138810, Note_on_c, 4, 64, 0
10, 138810, Note_on_c, 4, 52, 0
10, 138816, Program_c, 4, 81
10, 138816, Note_on_c, 4, 60, 96
10, 138816, Program_c, 4, 94
10, 138816, Note_on_c, 4, 48, 67
10, 138874, Note_on_c, 4, 60, 0
10, 138874, Note_on_c, 4, 48, 0
10, 138880, Program_c, 4, 81
10, 138880, Note_on_c, 4, 64, 118
10, 138880, Program_c, 4, 94
10, 138880, Note_on_c, 4, 52, 85
10, 138938, Note_on_c, 4, 64, 0
10, 138938, Note_on_c, 4, 52, 0
10, 138944, Program_c, 4, 81
10, 138944, Note_on_c, 4, 67, 123
10, 138944, Program_c, 4, 94
10, 138944, Note_on_c, 4, 55, 90
10, 139002, Note_on_c, 4, 67, 0
10, 139002, Note_on_c, 4, 55, 0
10, 139008, Program_c, 4, 81
10, 139008, Note_on_c, 4, 72, 127
10, 139008, Program_c, 4, 94
10, 139008, Note_on_c, 4, 60, 93
10, 139066, Note_on_c, 4, 72, 0
10, 139066, Note_on_c, 4, 60, 0
10, 139072, Program_c, 4, 81
10, 139072, Note_on_c, 4, 64, 91
10, 139072, Program_c, 4, 94
10, 139072, Note_on_c, 4, 52, 91
10, 139130, Note_on_c, 4, 64, 0
10, 139130, Note_on_c, 4, 52, 0
10, 139136, Program_c, 4, 81
10, 139136, Note_on_c, 4, 67, 116
10, 139136, Program_c, 4, 94
10, 139136, Note_on_c, 4, 55, 118
10, 139194, Note_on_c, 4, 67, 0
10, 139194, Note_on_c, 4, 55, 0
10, 139200, Program_c, 4, 81
10, 139200, Note_on_c, 4, 72, 126
10, 139200, Program_c, 4, 94
10, 139200, Note_on_c, 4, 60, 127
10, 139258, Note_on_c, 4, 72, 0
10, 139258, Note_on_c, 4, 60, 0
10, 139264, Program_c, 4, 81
10, 139264, Note_on_c, 4, 76, 127
10, 139264, Program_c, 4, 94
10, 139264, Note_on_c, 4, 64, 127
10, 139322, Note_on_c, 4, 76, 0
10, 139322, Note_on_c, 4, 64, 0
10, 139328, Program_c, 4, 81
10, 139328, Note_on_c, 4, 72, 101
10, 139328, Program_c, 4, 94
10, 139328, Note_on_c, 4, 60, 102
10, 139386, Note_on_c, 4, 72, 0
10, 139386, Note_on_c, 4, 60, 0
10, 139392, Program_c, 4, 81
10, 139392, Note_on_c, 4, 76, 122
10, 139392, Program_c, 4, 94
10, 139392, Note_on_c, 4, 64, 122
10, 139450, Note_on_c, 4, 76, 0
10, 139450, Note_on_c, 4, 64, 0
10, 139456, Program_c, 4, 81
10, 139456, Note_on_c, 4, 79, 124
10, 139456, Program_c, 4, 94
10, 139456, Note_on_c, 4, 67, 124
10, 139514, Note_on_c, 4, 79, 0
10, 139514, Note_on_c, 4, 67, 0
10, 139520, Program_c, 4, 81
10, 139520, Note_on_c, 4, 84, 127
10, 139520, Program_c, 4, 94
10, 139520, Note_on_c, 4, 72, 127
10, 139578, Note_on_c, 4, 84, 0
10, 139578, Note_on_c, 4, 72, 0
10, 139584, Program_c, 4, 81
10, 139584, Note_on_c, 4, 79, 99
10, 139584, Program_c, 4, 94
10, 139584, Note_on_c, 4, 67, 99
10, 139642, Note_on_c, 4, 79, 0
10, 139642, Note_on_c, 4, 67, 0
10, 139648, Program_c, 4, 81
10, 139648, Note_on_c, 4, 84, 124
10, 139648, Program_c, 4, 94
10, 139648, Note_on_c, 4, 72, 122
10, 139706, Note_on_c, 4, 84, 0
10, 139706, Note_on_c, 4, 72, 0
10, 139712, Program_c, 4, 81
10, 139712, Note_on_c, 4, 86, 119
10, 139712, Program_c, 4, 94
10, 139712, Note_on_c, 4, 74, 121
10, 139770, Note_on_c, 4, 86, 0
10, 139770, Note_on_c, 4, 74, 0
10, 139776, Program_c, 4, 81
10, 139776, Note_on_c, 4, 66, 85
10, 139776, Program_c, 4, 94
10, 139776, Note_on_c, 4, 54, 82
10, 139834, Note_on_c, 4, 66, 0
10, 139834, Note_on_c, 4, 54, 0
10, 139840, Program_c, 4, 81
10, 139840, Note_on_c, 4, 62, 94
10, 139840, Program_c, 4, 94
10, 139840, Note_on_c, 4, 50, 95
10, 139898, Note_on_c, 4, 62, 0
10, 139898, Note_on_c, 4, 50, 0
10, 139904, Program_c, 4, 81
10, 139904, Note_on_c, 4, 66, 119
10, 139904, Program_c, 4, 94
10, 139904, Note_on_c, 4, 54, 121
10, 139962, Note_on_c, 4, 66, 0
10, 139962, Note_on_c, 4, 54, 0
10, 139968, Program_c, 4, 81
10, 139968, Note_on_c, 4, 69, 123
10, 139968, Program_c, 4, 94
10, 139968, Note_on_c, 4, 57, 123
10, 140026, Note_on_c, 4, 69, 0
10, 140026, Note_on_c, 4, 57, 0
10, 140032, Program_c, 4, 81
10, 140032, Note_on_c, 4, 74, 127
10, 140032, Program_c, 4, 94
10, 140032, Note_on_c, 4, 62, 127
10, 140090, Note_on_c, 4, 74, 0
10, 140090, Note_on_c, 4, 62, 0
10, 140096, Program_c, 4, 81
10, 140096, Note_on_c, 4, 69, 99
10, 140096, Program_c, 4, 94
10, 140096, Note_on_c, 4, 57, 99
10, 140154, Note_on_c, 4, 69, 0
10, 140154, Note_on_c, 4, 57, 0
10, 140160, Program_c, 4, 81
10, 140160, Note_on_c, 4, 66, 100
10, 140160, Program_c, 4, 94
10, 140160, Note_on_c, 4, 62, 122
10, 140218, Note_on_c, 4, 66, 0
10, 140218, Note_on_c, 4, 62, 0
10, 140224, Program_c, 4, 81
10, 140224, Note_on_c, 4, 62, 98
10, 140224, Program_c, 4, 94
10, 140224, Note_on_c, 4, 64, 119
10, 140282, Note_on_c, 4, 62, 0
10, 140282, Note_on_c, 4, 64, 0
10, 140288, Program_c, 4, 81
10, 140288, Note_on_c, 4, 74, 127
10, 140288, Program_c, 4, 94
10, 140288, Note_on_c, 4, 66, 119
10, 140346, Note_on_c, 4, 74, 0
10, 140346, Note_on_c, 4, 66, 0
10, 140352, Program_c, 4, 81
10, 140352, Note_on_c, 4, 71, 107
10, 140352, Program_c, 4, 94
10, 140352, Note_on_c, 4, 62, 100
10, 140410, Note_on_c, 4, 71, 0
10, 140410, Note_on_c, 4, 62, 0
10, 140416, Program_c, 4, 81
10, 140416, Note_on_c, 4, 74, 118
10, 140416, Program_c, 4, 94
10, 140416, Note_on_c, 4, 66, 121
10, 140474, Note_on_c, 4, 74, 0
10, 140474, Note_on_c, 4, 66, 0
10, 140480, Program_c, 4, 81
10, 140480, Note_on_c, 4, 81, 127
10, 140480, Program_c, 4, 94
10, 140480, Note_on_c, 4, 69, 120
10, 140538, Note_on_c, 4, 81, 0
10, 140538, Note_on_c, 4, 69, 0
10, 140544, Program_c, 4, 81
10, 140544, Note_on_c, 4, 86, 127
10, 140544, Program_c, 4, 94
10, 140544, Note_on_c, 4, 74, 127
10, 140602, Note_on_c, 4, 86, 0
10, 140602, Note_on_c, 4, 74, 0
10, 140608, Program_c, 4, 81
10, 140608, Note_on_c, 4, 81, 97
10, 140608, Program_c, 4, 94
10, 140608, Note_on_c, 4, 69, 100
10, 140666, Note_on_c, 4, 81, 0
10, 140666, Note_on_c, 4, 69, 0
10, 140672, Program_c, 4, 81
10, 140672, Note_on_c, 4, 86, 126
10, 140672, Program_c, 4, 94
10, 140672, Note_on_c, 4, 74, 124
10, 140730, Note_on_c, 4, 86, 0
10, 140730, Note_on_c, 4, 74, 0
10, 140736, Program_c, 4, 81
10, 140736, Note_on_c, 4, 90, 122
10, 140736, Program_c, 4, 94
10, 140736, Note_on_c, 4, 78, 124
10, 140794, Note_on_c, 4, 90, 0
10, 140794, Note_on_c, 4, 78, 0
10, 155136, Program_c, 4, 81
10, 155136, Note_on_c, 4, 87, 102
10, 155136, Program_c, 4, 80
10, 155136, Note_on_c, 4, 71, 58
10, 155194, Note_on_c, 4, 87, 0
10, 155194, Note_on_c, 4, 71, 0
10, 155200, Program_c, 4, 81
10, 155200, Note_on_c, 4, 83, 97
10, 155200, Program_c, 4, 80
10, 155200, Note_on_c, 4, 68, 56
10, 155258, Note_on_c, 4, 83, 0
10, 155258, Note_on_c, 4, 68, 0
10, 155264, Program_c, 4, 81
10, 155264, Note_on_c, 4, 80, 98
10, 155264, Program_c, 4, 80
10, 155264, Note_on_c, 4, 63, 54
10, 155322, Note_on_c, 4, 80, 0
10, 155322, Note_on_c, 4, 63, 0
10, 155328, Program_c, 4, 81
10, 155328, Note_on_c, 4, 88, 127
10, 155328, Program_c, 4, 80
10, 155328, Note_on_c, 4, 73, 76
10, 155386, Note_on_c, 4, 88, 0
10, 155386, Note_on_c, 4, 73, 0
10, 155392, Program_c, 4, 81
10, 155392, Note_on_c, 4, 83, 104
10, 155392, Program_c, 4, 80
10, 155392, Note_on_c, 4, 68, 59
10, 155450, Note_on_c, 4, 83, 0
10, 155450, Note_on_c, 4, 68, 0
10, 155456, Program_c, 4, 81
10, 155456, Note_on_c, 4, 80, 98
10, 155456, Program_c, 4, 80
10, 155456, Note_on_c, 4, 63, 54
10, 155514, Note_on_c, 4, 80, 0
10, 155514, Note_on_c, 4, 63, 0
10, 155520, Program_c, 4, 81
10, 155520, Note_on_c, 4, 87, 125
10, 155520, Program_c, 4, 80
10, 155520, Note_on_c, 4, 71, 75
10, 155578, Note_on_c, 4, 87, 0
10, 155578, Note_on_c, 4, 71, 0
10, 155584, Program_c, 4, 81
10, 155584, Note_on_c, 4, 83, 99
10, 155584, Program_c, 4, 80
10, 155584, Note_on_c, 4, 68, 59
10, 155642, Note_on_c, 4, 83, 0
10, 155642, Note_on_c, 4, 68, 0
10, 155648, Program_c, 4, 81
10, 155648, Note_on_c, 4, 80, 103
10, 155648, Program_c, 4, 80
10, 155648, Note_on_c, 4, 63, 56
10, 155706, Note_on_c, 4, 80, 0
10, 155706, Note_on_c, 4, 63, 0
10, 155712, Program_c, 4, 81
10, 155712, Note_on_c, 4, 87, 127
10, 155712, Program_c, 4, 80
10, 155712, Note_on_c, 4, 71, 72
10, 155770, Note_on_c, 4, 87, 0
10, 155770, Note_on_c, 4, 71, 0
10, 155776, Program_c, 4, 81
10, 155776, Note_on_c, 4, 83, 101
10, 155776, Program_c, 4, 80
10, 155776, Note_on_c, 4, 68, 57
10, 155834, Note_on_c, 4, 83, 0
10, 155834, Note_on_c, 4, 68, 0
10, 155840, Program_c, 4, 81
10, 155840, Note_on_c, 4, 80, 99
10, 155840, Program_c, 4, 80
10, 155840, Note_on_c, 4, 63, 53
10, 155898, Note_on_c, 4, 80, 0
10, 155898, Note_on_c, 4, 63, 0
10, 155904, Program_c, 4, 81
10, 155904, Note_on_c, 4, 87, 127
10, 155904, Program_c, 4, 80
10, 155904, Note_on_c, 4, 71, 76
10, 155962, Note_on_c, 4, 87, 0
10, 155962, Note_on_c, 4, 71, 0
10, 155968, Program_c, 4, 81
10, 155968, Note_on_c, 4, 80, 92
10, 155968, Program_c, 4, 80
10, 155968, Note_on_c, 4, 68, 57
10, 156026, Note_on_c, 4, 80, 0
10, 156026, Note_on_c, 4, 68, 0
10, 156032, Program_c, 4, 81
10, 156032, Note_on_c, 4, 85, 123
10, 156032, Program_c, 4, 80
10, 156032, Note_on_c, 4, 70, 66
10, 156090, Note_on_c, 4, 85, 0
10, 156090, Note_on_c, 4, 70, 0
10, 156096, Program_c, 4, 81
10, 156096, Note_on_c, 4, 80, 98
10, 156096, Program_c, 4, 80
10, 156096, Note_on_c, 4, 66, 56
10, 156154, Note_on_c, 4, 80, 0
10, 156154, Note_on_c, 4, 66, 0
10, 156160, Program_c, 4, 81
10, 156160, Note_on_c, 4, 87, 127
10, 156160, Program_c, 4, 80
10, 156160, Note_on_c, 4, 71, 71
10, 156218, Note_on_c, 4, 87, 0
10, 156218, Note_on_c, 4, 71, 0
10, 156224, Program_c, 4, 81
10, 156224, Note_on_c, 4, 83, 100
10, 156224, Program_c, 4, 80
10, 156224, Note_on_c, 4, 68, 57
10, 156282, Note_on_c, 4, 83, 0
10, 156282, Note_on_c, 4, 68, 0
10, 156288, Program_c, 4, 81
10, 156288, Note_on_c, 4, 80, 99
10, 156288, Program_c, 4, 80
10, 156288, Note_on_c, 4, 63, 52
10, 156346, Note_on_c, 4, 80, 0
10, 156346, Note_on_c, 4, 63, 0
10, 156352, Program_c, 4, 81
10, 156352, Note_on_c, 4, 88, 126
10, 156352, Program_c, 4, 80
10, 156352, Note_on_c, 4, 73, 77
10, 156410, Note_on_c, 4, 88, 0
10, 156410, Note_on_c, 4, 73, 0
10, 156416, Program_c, 4, 81
10, 156416, Note_on_c, 4, 83, 104
10, 156416, Program_c, 4, 80
10, 156416, Note_on_c, 4, 68, 59
10, 156474, Note_on_c, 4, 83, 0
10, 156474, Note_on_c, 4, 68, 0
10, 156480, Program_c, 4, 81
10, 156480, Note_on_c, 4, 80, 101
10, 156480, Program_c, 4, 80
10, 156480, Note_on_c, 4, 63, 53
10, 156538, Note_on_c, 4, 80, 0
10, 156538, Note_on_c, 4, 63, 0
10, 156544, Program_c, 4, 81
10, 156544, Note_on_c, 4, 87, 127
10, 156544, Program_c, 4, 80
10, 156544, Note_on_c, 4, 71, 72
10, 156602, Note_on_c, 4, 87, 0
10, 156602, Note_on_c, 4, 71, 0
10, 156608, Program_c, 4, 81
10, 156608, Note_on_c, 4, 83, 100
10, 156608, Program_c, 4, 80
10, 156608, Note_on_c, 4, 68, 61
10, 156666, Note_on_c, 4, 83, 0
10, 156666, Note_on_c, 4, 68, 0
10, 156672, Program_c, 4, 81
10, 156672, Note_on_c, 4, 80, 103
10, 156672, Program_c, 4, 80
10, 156672, Note_on_c, 4, 63, 56
10, 156730, Note_on_c, 4, 80, 0
10, 156730, Note_on_c, 4, 63, 0
10, 156736, Program_c, 4, 81
10, 156736, Note_on_c, 4, 87, 127
10, 156736, Program_c, 4, 80
10, 156736, Note_on_c, 4, 71, 72
10, 156794, Note_on_c, 4, 87, 0
10, 156794, Note_on_c, 4, 71, 0
10, 156800, Program_c, 4, 81
10, 156800, Note_on_c, 4, 83, 100
10, 156800, Program_c, 4, 80
10, 156800, Note_on_c, 4, 68, 58
10, 156858, Note_on_c, 4, 83, 0
10, 156858, Note_on_c, 4, 68, 0
10, 156864, Program_c, 4, 81
10, 156864, Note_on_c, 4, 80, 101
10, 156864, Program_c, 4, 80
10, 156864, Note_on_c, 4, 63, 53
10, 156922, Note_on_c, 4, 80, 0
10, 156922, Note_on_c, 4, 63, 0
10, 156928, Program_c, 4, 81
10, 156928, Note_on_c, 4, 87, 127
10, 156928, Program_c, 4, 80
10, 156928, Note_on_c, 4, 71, 75
10, 156986, Note_on_c, 4, 87, 0
10, 156986, Note_on_c, 4, 71, 0
10, 156992, Program_c, 4, 81
10, 156992, Note_on_c, 4, 80, 95
10, 156992, Program_c, 4, 80
10, 156992, Note_on_c, 4, 68, 59
10, 157050, Note_on_c, 4, 80, 0
10, 157050, Note_on_c, 4, 68, 0
10, 157056, Program_c, 4, 81
10, 157056, Note_on_c, 4, 85, 123
10, 157056, Program_c, 4, 80
10, 157056, Note_on_c, 4, 70, 66
10, 157114, Note_on_c, 4, 85, 0
10, 157114, Note_on_c, 4, 70, 0
10, 157120, Program_c, 4, 81
10, 157120, Note_on_c, 4, 80, 97
10, 157120, Program_c, 4, 80
10, 157120, Note_on_c, 4, 66, 56
10, 157178, Note_on_c, 4, 80, 0
10, 157178, Note_on_c, 4, 66, 0
10, 157184, Program_c, 4, 81
10, 157184, Note_on_c, 4, 85, 126
10, 157242, Note_on_c, 4, 85, 0
10, 157248, Note_on_c, 4, 81, 100
10, 157248, Program_c, 4, 80
10, 157248, Note_on_c, 4, 73, 55
10, 157306, Note_on_c, 4, 81, 0
10, 157306, Note_on_c, 4, 73, 0
10, 157312, Program_c, 4, 81
10, 157312, Note_on_c, 4, 78, 99
10, 157312, Program_c, 4, 80
10, 157312, Note_on_c, 4, 69, 54
10, 157370, Note_on_c, 4, 78, 0
10, 157370, Note_on_c, 4, 69, 0
10, 157376, Program_c, 4, 81
10, 157376, Note_on_c, 4, 86, 127
10, 157376, Program_c, 4, 80
10, 157376, Note_on_c, 4, 66, 57
10, 157434, Note_on_c, 4, 86, 0
10, 157434, Note_on_c, 4, 66, 0
10, 157440, Program_c, 4, 81
10, 157440, Note_on_c, 4, 81, 101
10, 157440, Program_c, 4, 80
10, 157440, Note_on_c, 4, 74, 75
10, 157498, Note_on_c, 4, 81, 0
10, 157498, Note_on_c, 4, 74, 0
10, 157504, Program_c, 4, 81
10, 157504, Note_on_c, 4, 78, 97
10, 157504, Program_c, 4, 80
10, 157504, Note_on_c, 4, 69, 54
10, 157562, Note_on_c, 4, 78, 0
10, 157562, Note_on_c, 4, 69, 0
10, 157568, Program_c, 4, 81
10, 157568, Note_on_c, 4, 85, 125
10, 157568, Program_c, 4, 80
10, 157568, Note_on_c, 4, 66, 55
10, 157626, Note_on_c, 4, 85, 0
10, 157626, Note_on_c, 4, 66, 0
10, 157632, Program_c, 4, 81
10, 157632, Note_on_c, 4, 81, 100
10, 157632, Program_c, 4, 80
10, 157632, Note_on_c, 4, 73, 72
10, 157690, Note_on_c, 4, 81, 0
10, 157690, Note_on_c, 4, 73, 0
10, 157696, Program_c, 4, 81
10, 157696, Note_on_c, 4, 78, 100
10, 157696, Program_c, 4, 80
10, 157696, Note_on_c, 4, 69, 61
10, 157754, Note_on_c, 4, 78, 0
10, 157754, Note_on_c, 4, 69, 0
10, 157760, Program_c, 4, 81
10, 157760, Note_on_c, 4, 85, 127
10, 157760, Program_c, 4, 80
10, 157760, Note_on_c, 4, 66, 55
10, 157818, Note_on_c, 4, 85, 0
10, 157818, Note_on_c, 4, 66, 0
10, 157824, Program_c, 4, 81
10, 157824, Note_on_c, 4, 81, 99
10, 157824, Program_c, 4, 80
10, 157824, Note_on_c, 4, 73, 73
10, 157882, Note_on_c, 4, 81, 0
10, 157882, Note_on_c, 4, 73, 0
10, 157888, Program_c, 4, 81
10, 157888, Note_on_c, 4, 78, 101
10, 157888, Program_c, 4, 80
10, 157888, Note_on_c, 4, 69, 55
10, 157946, Note_on_c, 4, 78, 0
10, 157946, Note_on_c, 4, 69, 0
10, 157952, Program_c, 4, 81
10, 157952, Note_on_c, 4, 85, 127
10, 157952, Program_c, 4, 80
10, 157952, Note_on_c, 4, 66, 59
10, 158010, Note_on_c, 4, 85, 0
10, 158010, Note_on_c, 4, 66, 0
10, 158016, Program_c, 4, 81
10, 158016, Note_on_c, 4, 78, 92
10, 158016, Program_c, 4, 80
10, 158016, Note_on_c, 4, 73, 72
10, 158074, Note_on_c, 4, 78, 0
10, 158074, Note_on_c, 4, 73, 0
10, 158080, Program_c, 4, 81
10, 158080, Note_on_c, 4, 83, 124
10, 158080, Program_c, 4, 80
10, 158080, Note_on_c, 4, 66, 54
10, 158138, Note_on_c, 4, 83, 0
10, 158138, Note_on_c, 4, 66, 0
10, 158144, Program_c, 4, 81
10, 158144, Note_on_c, 4, 78, 97
10, 158144, Program_c, 4, 80
10, 158144, Note_on_c, 4, 71, 68
10, 158202, Note_on_c, 4, 78, 0
10, 158202, Note_on_c, 4, 71, 0
10, 158208, Program_c, 4, 81
10, 158208, Note_on_c, 4, 85, 127
10, 158266, Note_on_c, 4, 85, 0
10, 158272, Note_on_c, 4, 81, 100
10, 158272, Program_c, 4, 80
10, 158272, Note_on_c, 4, 73, 57
10, 158330, Note_on_c, 4, 81, 0
10, 158330, Note_on_c, 4, 73, 0
10, 158336, Program_c, 4, 81
10, 158336, Note_on_c, 4, 78, 99
10, 158336, Program_c, 4, 80
10, 158336, Note_on_c, 4, 69, 54
10, 158394, Note_on_c, 4, 78, 0
10, 158394, Note_on_c, 4, 69, 0
10, 158400, Program_c, 4, 81
10, 158400, Note_on_c, 4, 86, 126
10, 158400, Program_c, 4, 80
10, 158400, Note_on_c, 4, 66, 56
10, 158458, Note_on_c, 4, 86, 0
10, 158458, Note_on_c, 4, 66, 0
10, 158464, Program_c, 4, 81
10, 158464, Note_on_c, 4, 81, 103
10, 158464, Program_c, 4, 80
10, 158464, Note_on_c, 4, 74, 75
10, 158522, Note_on_c, 4, 81, 0
10, 158522, Note_on_c, 4, 74, 0
10, 158528, Program_c, 4, 81
10, 158528, Note_on_c, 4, 78, 100
10, 158528, Program_c, 4, 80
10, 158528, Note_on_c, 4, 69, 58
10, 158586, Note_on_c, 4, 78, 0
10, 158586, Note_on_c, 4, 69, 0
10, 158592, Program_c, 4, 81
10, 158592, Note_on_c, 4, 85, 127
10, 158592, Program_c, 4, 80
10, 158592, Note_on_c, 4, 66, 57
10, 158650, Note_on_c, 4, 85, 0
10, 158650, Note_on_c, 4, 66, 0
10, 158656, Program_c, 4, 81
10, 158656, Note_on_c, 4, 81, 102
10, 158656, Program_c, 4, 80
10, 158656, Note_on_c, 4, 73, 73
10, 158714, Note_on_c, 4, 81, 0
10, 158714, Note_on_c, 4, 73, 0
10, 158720, Program_c, 4, 81
10, 158720, Note_on_c, 4, 78, 100
10, 158720, Program_c, 4, 80
10, 158720, Note_on_c, 4, 69, 61
10, 158778, Note_on_c, 4, 78, 0
10, 158778, Note_on_c, 4, 69, 0
10, 158784, Program_c, 4, 81
10, 158784, Note_on_c, 4, 85, 127
10, 158784, Program_c, 4, 80
10, 158784, Note_on_c, 4, 66, 57
10, 158842, Note_on_c, 4, 85, 0
10, 158842, Note_on_c, 4, 66, 0
10, 158848, Program_c, 4, 81
10, 158848, Note_on_c, 4, 81, 102
10, 158848, Program_c, 4, 80
10, 158848, Note_on_c, 4, 73, 75
10, 158906, Note_on_c, 4, 81, 0
10, 158906, Note_on_c, 4, 73, 0
10, 158912, Program_c, 4, 81
10, 158912, Note_on_c, 4, 78, 97
10, 158912, Program_c, 4, 80
10, 158912, Note_on_c, 4, 69, 56
10, 158970, Note_on_c, 4, 78, 0
10, 158970, Note_on_c, 4, 69, 0
10, 158976, Program_c, 4, 81
10, 158976, Note_on_c, 4, 85, 127
10, 158976, Program_c, 4, 80
10, 158976, Note_on_c, 4, 66, 59
10, 159034, Note_on_c, 4, 85, 0
10, 159034, Note_on_c, 4, 66, 0
10, 159040, Program_c, 4, 81
10, 159040, Note_on_c, 4, 78, 92
10, 159040, Program_c, 4, 80
10, 159040, Note_on_c, 4, 73, 73
10, 159098, Note_on_c, 4, 78, 0
10, 159098, Note_on_c, 4, 73, 0
10, 159104, Program_c, 4, 81
10, 159104, Note_on_c, 4, 83, 125
10, 159104, Program_c, 4, 80
10, 159104, Note_on_c, 4, 66, 51
10, 159162, Note_on_c, 4, 83, 0
10, 159162, Note_on_c, 4, 66, 0
10, 159168, Program_c, 4, 81
10, 159168, Note_on_c, 4, 78, 96
10, 159168, Program_c, 4, 80
10, 159168, Note_on_c, 4, 71, 68
10, 159226, Note_on_c, 4, 78, 0
10, 159226, Note_on_c, 4, 71, 0
10, 159232, Program_c, 4, 81
10, 159232, Note_on_c, 4, 87, 127
10, 159290, Note_on_c, 4, 87, 0
10, 159296, Note_on_c, 4, 83, 104
10, 159296, Program_c, 4, 80
10, 159296, Note_on_c, 4, 75, 58
10, 159354, Note_on_c, 4, 83, 0
10, 159354, Note_on_c, 4, 75, 0
10, 159360, Program_c, 4, 81
10, 159360, Note_on_c, 4, 80, 100
10, 159360, Program_c, 4, 80
10, 159360, Note_on_c, 4, 71, 57
10, 159418, Note_on_c, 4, 80, 0
10, 159418, Note_on_c, 4, 71, 0
10, 159424, Program_c, 4, 81
10, 159424, Note_on_c, 4, 88, 125
10, 159424, Program_c, 4, 80
10, 159424, Note_on_c, 4, 68, 57
10, 159482, Note_on_c, 4, 88, 0
10, 159482, Note_on_c, 4, 68, 0
10, 159488, Program_c, 4, 81
10, 159488, Note_on_c, 4, 83, 101
10, 159488, Program_c, 4, 80
10, 159488, Note_on_c, 4, 76, 79
10, 159546, Note_on_c, 4, 83, 0
10, 159546, Note_on_c, 4, 76, 0
10, 159552, Program_c, 4, 81
10, 159552, Note_on_c, 4, 80, 101
10, 159552, Program_c, 4, 80
10, 159552, Note_on_c, 4, 71, 57
10, 159610, Note_on_c, 4, 80, 0
10, 159610, Note_on_c, 4, 71, 0
10, 159616, Program_c, 4, 81
10, 159616, Note_on_c, 4, 87, 127
10, 159616, Program_c, 4, 80
10, 159616, Note_on_c, 4, 68, 56
10, 159674, Note_on_c, 4, 87, 0
10, 159674, Note_on_c, 4, 68, 0
10, 159680, Program_c, 4, 81
10, 159680, Note_on_c, 4, 83, 100
10, 159680, Program_c, 4, 80
10, 159680, Note_on_c, 4, 75, 75
10, 159738, Note_on_c, 4, 83, 0
10, 159738, Note_on_c, 4, 75, 0
10, 159744, Program_c, 4, 81
10, 159744, Note_on_c, 4, 80, 101
10, 159744, Program_c, 4, 80
10, 159744, Note_on_c, 4, 71, 61
10, 159802, Note_on_c, 4, 80, 0
10, 159802, Note_on_c, 4, 71, 0
10, 159808, Program_c, 4, 81
10, 159808, Note_on_c, 4, 87, 127
10, 159808, Program_c, 4, 80
10, 159808, Note_on_c, 4, 68, 57
10, 159866, Note_on_c, 4, 87, 0
10, 159866, Note_on_c, 4, 68, 0
10, 159872, Program_c, 4, 81
10, 159872, Note_on_c, 4, 83, 102
10, 159872, Program_c, 4, 80
10, 159872, Note_on_c, 4, 75, 73
10, 159930, Note_on_c, 4, 83, 0
10, 159930, Note_on_c, 4, 75, 0
10, 159936, Program_c, 4, 81
10, 159936, Note_on_c, 4, 80, 100
10, 159936, Program_c, 4, 80
10, 159936, Note_on_c, 4, 71, 57
10, 159994, Note_on_c, 4, 80, 0
10, 159994, Note_on_c, 4, 71, 0
10, 160000, Program_c, 4, 81
10, 160000, Note_on_c, 4, 87, 127
10, 160000, Program_c, 4, 80
10, 160000, Note_on_c, 4, 68, 59
10, 160058, Note_on_c, 4, 87, 0
10, 160058, Note_on_c, 4, 68, 0
10, 160064, Program_c, 4, 81
10, 160064, Note_on_c, 4, 80, 93
10, 160064, Program_c, 4, 80
10, 160064, Note_on_c, 4, 75, 74
10, 160122, Note_on_c, 4, 80, 0
10, 160122, Note_on_c, 4, 75, 0
10, 160128, Program_c, 4, 81
10, 160128, Note_on_c, 4, 85, 123
10, 160128, Program_c, 4, 80
10, 160128, Note_on_c, 4, 68, 54
10, 160186, Note_on_c, 4, 85, 0
10, 160186, Note_on_c, 4, 68, 0
10, 160192, Program_c, 4, 81
10, 160192, Note_on_c, 4, 80, 96
10, 160192, Program_c, 4, 80
10, 160192, Note_on_c, 4, 73, 71
10, 160250, Note_on_c, 4, 80, 0
10, 160250, Note_on_c, 4, 73, 0
10, 160256, Program_c, 4, 81
10, 160256, Note_on_c, 4, 87, 127
10, 160314, Note_on_c, 4, 87, 0
10, 160320, Note_on_c, 4, 83, 103
10, 160320, Program_c, 4, 80
10, 160320, Note_on_c, 4, 75, 55
10, 160378, Note_on_c, 4, 83, 0
10, 160378, Note_on_c, 4, 75, 0
10, 160384, Program_c, 4, 81
10, 160384, Note_on_c, 4, 80, 99
10, 160384, Program_c, 4, 80
10, 160384, Note_on_c, 4, 71, 57
10, 160442, Note_on_c, 4, 80, 0
10, 160442, Note_on_c, 4, 71, 0
10, 160448, Program_c, 4, 81
10, 160448, Note_on_c, 4, 88, 127
10, 160448, Program_c, 4, 80
10, 160448, Note_on_c, 4, 68, 55
10, 160506, Note_on_c, 4, 88, 0
10, 160506, Note_on_c, 4, 68, 0
10, 160512, Program_c, 4, 81
10, 160512, Note_on_c, 4, 83, 102
10, 160512, Program_c, 4, 80
10, 160512, Note_on_c, 4, 76, 75
10, 160570, Note_on_c, 4, 83, 0
10, 160570, Note_on_c, 4, 76, 0
10, 160576, Program_c, 4, 81
10, 160576, Note_on_c, 4, 80, 100
10, 160576, Program_c, 4, 80
10, 160576, Note_on_c, 4, 71, 56
10, 160634, Note_on_c, 4, 80, 0
10, 160634, Note_on_c, 4, 71, 0
10, 160640, Program_c, 4, 81
10, 160640, Note_on_c, 4, 87, 127
10, 160640, Program_c, 4, 80
10, 160640, Note_on_c, 4, 68, 57
10, 160698, Note_on_c, 4, 87, 0
10, 160698, Note_on_c, 4, 68, 0
10, 160704, Program_c, 4, 81
10, 160704, Note_on_c, 4, 83, 101
10, 160704, Program_c, 4, 80
10, 160704, Note_on_c, 4, 75, 71
10, 160762, Note_on_c, 4, 83, 0
10, 160762, Note_on_c, 4, 75, 0
10, 160768, Program_c, 4, 81
10, 160768, Note_on_c, 4, 80, 101
10, 160768, Program_c, 4, 80
10, 160768, Note_on_c, 4, 71, 62
10, 160826, Note_on_c, 4, 80, 0
10, 160826, Note_on_c, 4, 71, 0
10, 160832, Program_c, 4, 81
10, 160832, Note_on_c, 4, 87, 127
10, 160832, Program_c, 4, 80
10, 160832, Note_on_c, 4, 68, 58
10, 160890, Note_on_c, 4, 87, 0
10, 160890, Note_on_c, 4, 68, 0
10, 160896, Program_c, 4, 81
10, 160896, Note_on_c, 4, 83, 101
10, 160896, Program_c, 4, 80
10, 160896, Note_on_c, 4, 75, 72
10, 160954, Note_on_c, 4, 83, 0
10, 160954, Note_on_c, 4, 75, 0
10, 160960, Program_c, 4, 81
10, 160960, Note_on_c, 4, 80, 98
10, 160960, Program_c, 4, 80
10, 160960, Note_on_c, 4, 71, 57
10, 161018, Note_on_c, 4, 80, 0
10, 161018, Note_on_c, 4, 71, 0
10, 161024, Program_c, 4, 81
10, 161024, Note_on_c, 4, 87, 127
10, 161024, Program_c, 4, 80
10, 161024, Note_on_c, 4, 68, 57
10, 161082, Note_on_c, 4, 87, 0
10, 161082, Note_on_c, 4, 68, 0
10, 161088, Program_c, 4, 81
10, 161088, Note_on_c, 4, 80, 94
10, 161088, Program_c, 4, 80
10, 161088, Note_on_c, 4, 75, 72
10, 161146, Note_on_c, 4, 80, 0
10, 161146, Note_on_c, 4, 75, 0
10, 161152, Program_c, 4, 81
10, 161152, Note_on_c, 4, 85, 125
10, 161152, Program_c, 4, 80
10, 161152, Note_on_c, 4, 68, 53
10, 161210, Note_on_c, 4, 85, 0
10, 161210, Note_on_c, 4, 68, 0
10, 161216, Program_c, 4, 81
10, 161216, Note_on_c, 4, 80, 96
10, 161216, Program_c, 4, 80
10, 161216, Note_on_c, 4, 73, 71
10, 161274, Note_on_c, 4, 80, 0
10, 161274, Note_on_c, 4, 73, 0
10, 161280, Program_c, 4, 81
10, 161280, Note_on_c, 4, 85, 127
10, 161338, Note_on_c, 4, 85, 0
10, 161344, Note_on_c, 4, 81, 99
10, 161344, Program_c, 4, 80
10, 161344, Note_on_c, 4, 73, 56
10, 161402, Note_on_c, 4, 81, 0
10, 161402, Note_on_c, 4, 73, 0
10, 161408, Program_c, 4, 81
10, 161408, Note_on_c, 4, 78, 97
10, 161408, Program_c, 4, 80
10, 161408, Note_on_c, 4, 69, 56
10, 161466, Note_on_c, 4, 78, 0
10, 161466, Note_on_c, 4, 69, 0
10, 161472, Program_c, 4, 81
10, 161472, Note_on_c, 4, 86, 127
10, 161472, Program_c, 4, 80
10, 161472, Note_on_c, 4, 66, 55
10, 161530, Note_on_c, 4, 86, 0
10, 161530, Note_on_c, 4, 66, 0
10, 161536, Program_c, 4, 81
10, 161536, Note_on_c, 4, 81, 100
10, 161536, Program_c, 4, 80
10, 161536, Note_on_c, 4, 74, 79
10, 161594, Note_on_c, 4, 81, 0
10, 161594, Note_on_c, 4, 74, 0
10, 161600, Program_c, 4, 81
10, 161600, Note_on_c, 4, 78, 99
10, 161600, Program_c, 4, 80
10, 161600, Note_on_c, 4, 69, 57
10, 161658, Note_on_c, 4, 78, 0
10, 161658, Note_on_c, 4, 69, 0
10, 161664, Program_c, 4, 81
10, 161664, Note_on_c, 4, 85, 127
10, 161664, Program_c, 4, 80
10, 161664, Note_on_c, 4, 66, 55
10, 161722, Note_on_c, 4, 85, 0
10, 161722, Note_on_c, 4, 66, 0
10, 161728, Program_c, 4, 81
10, 161728, Note_on_c, 4, 81, 100
10, 161728, Program_c, 4, 80
10, 161728, Note_on_c, 4, 73, 72
10, 161786, Note_on_c, 4, 81, 0
10, 161786, Note_on_c, 4, 73, 0
10, 161792, Program_c, 4, 81
10, 161792, Note_on_c, 4, 78, 103
10, 161792, Program_c, 4, 80
10, 161792, Note_on_c, 4, 69, 59
10, 161850, Note_on_c, 4, 78, 0
10, 161850, Note_on_c, 4, 69, 0
10, 161856, Program_c, 4, 81
10, 161856, Note_on_c, 4, 85, 127
10, 161856, Program_c, 4, 80
10, 161856, Note_on_c, 4, 66, 56
10, 161914, Note_on_c, 4, 85, 0
10, 161914, Note_on_c, 4, 66, 0
10, 161920, Program_c, 4, 81
10, 161920, Note_on_c, 4, 81, 101
10, 161920, Program_c, 4, 80
10, 161920, Note_on_c, 4, 73, 74
10, 161978, Note_on_c, 4, 81, 0
10, 161978, Note_on_c, 4, 73, 0
10, 161984, Program_c, 4, 81
10, 161984, Note_on_c, 4, 78, 101
10, 161984, Program_c, 4, 80
10, 161984, Note_on_c, 4, 69, 56
10, 162042, Note_on_c, 4, 78, 0
10, 162042, Note_on_c, 4, 69, 0
10, 162048, Program_c, 4, 81
10, 162048, Note_on_c, 4, 85, 127
10, 162048, Program_c, 4, 80
10, 162048, Note_on_c, 4, 66, 60
10, 162106, Note_on_c, 4, 85, 0
10, 162106, Note_on_c, 4, 66, 0
10, 162112, Program_c, 4, 81
10, 162112, Note_on_c, 4, 78, 92
10, 162112, Program_c, 4, 80
10, 162112, Note_on_c, 4, 73, 72
10, 162170, Note_on_c, 4, 78, 0
10, 162170, Note_on_c, 4, 73, 0
10, 162176, Program_c, 4, 81
10, 162176, Note_on_c, 4, 83, 122
10, 162176, Program_c, 4, 80
10, 162176, Note_on_c, 4, 66, 52
10, 162234, Note_on_c, 4, 83, 0
10, 162234, Note_on_c, 4, 66, 0
10, 162240, Program_c, 4, 81
10, 162240, Note_on_c, 4, 78, 95
10, 162240, Program_c, 4, 80
10, 162240, Note_on_c, 4, 71, 71
10, 162298, Note_on_c, 4, 78, 0
10, 162298, Note_on_c, 4, 71, 0
10, 162304, Program_c, 4, 81
10, 162304, Note_on_c, 4, 85, 127
10, 162362, Note_on_c, 4, 85, 0
10, 162368, Note_on_c, 4, 81, 101
10, 162368, Program_c, 4, 80
10, 162368, Note_on_c, 4, 73, 44
10, 162426, Note_on_c, 4, 81, 0
10, 162426, Note_on_c, 4, 73, 0
10, 162432, Program_c, 4, 81
10, 162432, Note_on_c, 4, 73, 89
10, 162432, Program_c, 4, 80
10, 162432, Note_on_c, 4, 69, 42
10, 162490, Note_on_c, 4, 73, 0
10, 162490, Note_on_c, 4, 69, 0
10, 162496, Program_c, 4, 81
10, 162496, Note_on_c, 4, 78, 123
10, 162496, Program_c, 4, 80
10, 162496, Note_on_c, 4, 61, 36
10, 162554, Note_on_c, 4, 78, 0
10, 162554, Note_on_c, 4, 61, 0
10, 162560, Program_c, 4, 81
10, 162560, Note_on_c, 4, 83, 127
10, 162560, Program_c, 4, 80
10, 162560, Note_on_c, 4, 66, 56
10, 162618, Note_on_c, 4, 83, 0
10, 162618, Note_on_c, 4, 66, 0
10, 162624, Program_c, 4, 81
10, 162624, Note_on_c, 4, 78, 98
10, 162624, Program_c, 4, 80
10, 162624, Note_on_c, 4, 71, 57
10, 162682, Note_on_c, 4, 78, 0
10, 162682, Note_on_c, 4, 71, 0
10, 162688, Program_c, 4, 81
10, 162688, Note_on_c, 4, 73, 93
10, 162688, Program_c, 4, 80
10, 162688, Note_on_c, 4, 66, 42
10, 162746, Note_on_c, 4, 73, 0
10, 162746, Note_on_c, 4, 66, 0
10, 162752, Program_c, 4, 81
10, 162752, Note_on_c, 4, 81, 125
10, 162752, Program_c, 4, 80
10, 162752, Note_on_c, 4, 61, 39
10, 162810, Note_on_c, 4, 61, 0
10, 162816, Note_on_c, 4, 69, 58
10, 162868, Note_on_c, 4, 81, 0
10, 162880, Program_c, 4, 81
10, 162880, Note_on_c, 4, 78, 102
10, 162932, Note_on_c, 4, 69, 0
10, 162938, Note_on_c, 4, 78, 0
10, 162944, Note_on_c, 4, 73, 94
10, 162944, Program_c, 4, 80
10, 162944, Note_on_c, 4, 66, 43
10, 163002, Note_on_c, 4, 73, 0
10, 163002, Note_on_c, 4, 66, 0
10, 163008, Program_c, 4, 81
10, 163008, Note_on_c, 4, 78, 122
10, 163008, Program_c, 4, 80
10, 163008, Note_on_c, 4, 61, 40
10, 163066, Note_on_c, 4, 78, 0
10, 163066, Note_on_c, 4, 61, 0
10, 163072, Program_c, 4, 81
10, 163072, Note_on_c, 4, 80, 121
10, 163072, Program_c, 4, 80
10, 163072, Note_on_c, 4, 66, 54
10, 163130, Note_on_c, 4, 80, 0
10, 163130, Note_on_c, 4, 66, 0
10, 163136, Program_c, 4, 81
10, 163136, Note_on_c, 4, 78, 103
10, 163136, Program_c, 4, 80
10, 163136, Note_on_c, 4, 68, 51
10, 163194, Note_on_c, 4, 78, 0
10, 163194, Note_on_c, 4, 68, 0
10, 163200, Program_c, 4, 81
10, 163200, Note_on_c, 4, 77, 103
10, 163200, Program_c, 4, 80
10, 163200, Note_on_c, 4, 66, 46
10, 163258, Note_on_c, 4, 77, 0
10, 163258, Note_on_c, 4, 66, 0
10, 163264, Program_c, 4, 81
10, 163264, Note_on_c, 4, 73, 99
10, 163264, Program_c, 4, 80
10, 163264, Note_on_c, 4, 65, 45
10, 163322, Note_on_c, 4, 73, 0
10, 163322, Note_on_c, 4, 65, 0
10, 163328, Program_c, 4, 18
10, 163328, Note_on_c, 4, 78, 127
10, 163391, Note_on_c, 4, 78, 0
10, 163456, Note_on_c, 4, 78, 113
10, 163519, Note_on_c, 4, 78, 0
10, 163648, Note_on_c, 4, 78, 97
10, 163711, Note_on_c, 4, 78, 0
10, 163840, Note_on_c, 4, 78, 101
10, 163903, Note_on_c, 4, 78, 0
10, 163968, Note_on_c, 4, 76, 101
10, 164026, Note_on_c, 4, 76, 0
10, 164032, Note_on_c, 4, 78, 118
10, 164090, Note_on_c, 4, 78, 0
10, 164224, Note_on_c, 4, 78, 99
10, 164287, Note_on_c, 4, 78, 0
10, 164352, Note_on_c, 4, 76, 105
10, 164410, Note_on_c, 4, 76, 0
10, 164416, Note_on_c, 4, 78, 119
10, 164474, Note_on_c, 4, 78, 0
10, 164608, Note_on_c, 4, 78, 103
10, 164671, Note_on_c, 4, 78, 0
10, 164736, Note_on_c, 4, 78, 109
10, 164799, Note_on_c, 4, 78, 0
10, 164864, Note_on_c, 4, 76, 106
10, 164922, Note_on_c, 4, 76, 0
10, 164928, Note_on_c, 4, 78, 119
10, 164986, Note_on_c, 4, 78, 0
10, 165120, Note_on_c, 4, 78, 101
10, 165120, Note_on_c, 4, 81, 45
10, 165183, Note_on_c, 4, 78, 0
10, 165183, Note_on_c, 4, 81, 0
10, 165248, Note_on_c, 4, 78, 107
10, 165248, Note_on_c, 4, 81, 49
10, 165311, Note_on_c, 4, 78, 0
10, 165311, Note_on_c, 4, 81, 0
10, 165440, Note_on_c, 4, 78, 99
10, 165440, Note_on_c, 4, 81, 42
10, 165503, Note_on_c, 4, 78, 0
10, 165503, Note_on_c, 4, 81, 0
10, 165632, Note_on_c, 4, 78, 103
10, 165632, Note_on_c, 4, 81, 45
10, 165695, Note_on_c, 4, 78, 0
10, 165695, Note_on_c, 4, 81, 0
10, 165760, Note_on_c, 4, 76, 102
10, 165760, Note_on_c, 4, 80, 43
10, 165818, Note_on_c, 4, 76, 0
10, 165818, Note_on_c, 4, 80, 0
10, 165824, Note_on_c, 4, 78, 118
10, 165824, Note_on_c, 4, 81, 49
10, 165882, Note_on_c, 4, 78, 0
10, 165882, Note_on_c, 4, 81, 0
10, 166016, Note_on_c, 4, 78, 100
10, 166016, Note_on_c, 4, 81, 43
10, 166079, Note_on_c, 4, 78, 0
10, 166079, Note_on_c, 4, 81, 0
10, 166144, Note_on_c, 4, 76, 104
10, 166144, Note_on_c, 4, 80, 49
10, 166202, Note_on_c, 4, 76, 0
10, 166202, Note_on_c, 4, 80, 0
10, 166208, Note_on_c, 4, 78, 116
10, 166208, Note_on_c, 4, 81, 50
10, 166266, Note_on_c, 4, 78, 0
10, 166266, Note_on_c, 4, 81, 0
10, 166400, Note_on_c, 4, 78, 104
10, 166400, Note_on_c, 4, 81, 46
10, 166463, Note_on_c, 4, 78, 0
10, 166463, Note_on_c, 4, 81, 0
10, 166528, Note_on_c, 4, 78, 108
10, 166528, Note_on_c, 4, 81, 46
10, 166591, Note_on_c, 4, 78, 0
10, 166591, Note_on_c, 4, 81, 0
10, 166656, Note_on_c, 4, 76, 105
10, 166656, Note_on_c, 4, 80, 48
10, 166714, Note_on_c, 4, 76, 0
10, 166714, Note_on_c, 4, 80, 0
10, 166720, Note_on_c, 4, 78, 117
10, 166720, Note_on_c, 4, 81, 47
10, 166778, Note_on_c, 4, 78, 0
10, 166778, Note_on_c, 4, 81, 0
10, 166912, Note_on_c, 4, 78, 103
10, 166912, Note_on_c, 4, 81, 48
10, 166975, Note_on_c, 4, 78, 0
10, 166975, Note_on_c, 4, 81, 0
10, 167040, Note_on_c, 4, 78, 109
10, 167040, Note_on_c, 4, 81, 47
10, 167103, Note_on_c, 4, 78, 0
10, 167103, Note_on_c, 4, 81, 0
10, 167232, Note_on_c, 4, 78, 101
10, 167232, Note_on_c, 4, 81, 41
10, 167295, Note_on_c, 4, 78, 0
10, 167295, Note_on_c, 4, 81, 0
10, 167424, Note_on_c, 4, 78, 103
10, 167424, Note_on_c, 4, 81, 45
10, 167487, Note_on_c, 4, 78, 0
10, 167487, Note_on_c, 4, 81, 0
10, 167552, Note_on_c, 4, 76, 103
10, 167552, Note_on_c, 4, 80, 46
10, 167610, Note_on_c, 4, 76, 0
10, 167610, Note_on_c, 4, 80, 0
10, 167616, Note_on_c, 4, 78, 119
10, 167616, Note_on_c, 4, 81, 50
10, 167674, Note_on_c, 4, 78, 0
10, 167674, Note_on_c, 4, 81, 0
10, 167808, Note_on_c, 4, 78, 100
10, 167808, Note_on_c, 4, 81, 41
10, 167871, Note_on_c, 4, 78, 0
10, 167871, Note_on_c, 4, 81, 0
10, 167936, Note_on_c, 4, 76, 106
10, 167936, Note_on_c, 4, 80, 48
10, 167994, Note_on_c, 4, 76, 0
10, 167994, Note_on_c, 4, 80, 0
10, 168000, Note_on_c, 4, 78, 118
10, 168000, Note_on_c, 4, 81, 47
10, 168058, Note_on_c, 4, 78, 0
10, 168058, Note_on_c, 4, 81, 0
10, 168192, Note_on_c, 4, 78, 102
10, 168192, Note_on_c, 4, 81, 46
10, 168255, Note_on_c, 4, 78, 0
10, 168255, Note_on_c, 4, 81, 0
10, 168320, Note_on_c, 4, 78, 108
10, 168320, Note_on_c, 4, 81, 48
10, 168383, Note_on_c, 4, 78, 0
10, 168383, Note_on_c, 4, 81, 0
10, 168448, Note_on_c, 4, 76, 108
10, 168448, Note_on_c, 4, 80, 46
10, 168506, Note_on_c, 4, 76, 0
10, 168506, Note_on_c, 4, 80, 0
10, 168512, Note_on_c, 4, 78, 116
10, 168512, Note_on_c, 4, 81, 49
10, 168570, Note_on_c, 4, 78, 0
10, 168570, Note_on_c, 4, 81, 0
10, 168704, Note_on_c, 4, 78, 101
10, 168704, Note_on_c, 4, 81, 47
10, 168767, Note_on_c, 4, 78, 0
10, 168767, Note_on_c, 4, 81, 0
10, 168832, Note_on_c, 4, 78, 108
10, 168832, Note_on_c, 4, 81, 48
10, 168895, Note_on_c, 4, 78, 0
10, 168895, Note_on_c, 4, 81, 0
10, 169024, Note_on_c, 4, 78, 99
10, 169024, Note_on_c, 4, 81, 43
10, 169087, Note_on_c, 4, 78, 0
10, 169087, Note_on_c, 4, 81, 0
10, 169216, Note_on_c, 4, 78, 103
10, 169216, Note_on_c, 4, 81, 47
10, 169279, Note_on_c, 4, 78, 0
10, 169279, Note_on_c, 4, 81, 0
10, 169344, Note_on_c, 4, 76, 101
10, 169344, Note_on_c, 4, 80, 46
10, 169402, Note_on_c, 4, 76, 0
10, 169402, Note_on_c, 4, 80, 0
10, 169408, Note_on_c, 4, 78, 116
10, 169408, Note_on_c, 4, 81, 48
10, 169466, Note_on_c, 4, 78, 0
10, 169466, Note_on_c, 4, 81, 0
10, 169600, Note_on_c, 4, 78, 99
10, 169600, Note_on_c, 4, 81, 41
10, 169663, Note_on_c, 4, 78, 0
10, 169663, Note_on_c, 4, 81, 0
10, 169728, Note_on_c, 4, 76, 104
10, 169728, Note_on_c, 4, 80, 47
10, 169786, Note_on_c, 4, 76, 0
10, 169786, Note_on_c, 4, 80, 0
10, 169792, Note_on_c, 4, 78, 118
10, 169792, Note_on_c, 4, 81, 49
10, 169850, Note_on_c, 4, 78, 0
10, 169850, Note_on_c, 4, 81, 0
10, 169984, Note_on_c, 4, 78, 100
10, 169984, Note_on_c, 4, 81, 45
10, 170047, Note_on_c, 4, 78, 0
10, 170047, Note_on_c, 4, 81, 0
10, 170112, Note_on_c, 4, 78, 109
10, 170112, Note_on_c, 4, 81, 48
10, 170175, Note_on_c, 4, 78, 0
10, 170175, Note_on_c, 4, 81, 0
10, 170240, Note_on_c, 4, 76, 105
10, 170240, Note_on_c, 4, 80, 47
10, 170298, Note_on_c, 4, 76, 0
10, 170298, Note_on_c, 4, 80, 0
10, 170304, Note_on_c, 4, 78, 116
10, 170304, Note_on_c, 4, 81, 48
10, 170362, Note_on_c, 4, 78, 0
10, 170362, Note_on_c, 4, 81, 0
10, 170496, Note_on_c, 4, 78, 103
10, 170496, Note_on_c, 4, 81, 45
10, 170559, Note_on_c, 4, 78, 0
10, 170559, Note_on_c, 4, 81, 0
10, 170624, Note_on_c, 4, 78, 110
10, 170624, Note_on_c, 4, 81, 46
10, 170687, Note_on_c, 4, 78, 0
10, 170687, Note_on_c, 4, 81, 0
10, 170816, Note_on_c, 4, 78, 100
10, 170816, Note_on_c, 4, 81, 42
10, 170879, Note_on_c, 4, 78, 0
10, 170879, Note_on_c, 4, 81, 0
10, 171008, Note_on_c, 4, 78, 104
10, 171008, Note_on_c, 4, 81, 46
10, 171071, Note_on_c, 4, 78, 0
10, 171071, Note_on_c, 4, 81, 0
10, 171136, Note_on_c, 4, 76, 103
10, 171136, Note_on_c, 4, 80, 45
10, 171194, Note_on_c, 4, 76, 0
10, 171194, Note_on_c, 4, 80, 0
10, 171200, Note_on_c, 4, 78, 116
10, 171200, Note_on_c, 4, 81, 48
10, 171258, Note_on_c, 4, 78, 0
10, 171258, Note_on_c, 4, 81, 0
10, 171392, Note_on_c, 4, 78, 98
10, 171392, Note_on_c, 4, 81, 43
10, 171455, Note_on_c, 4, 78, 0
10, 171455, Note_on_c, 4, 81, 0
10, 171520, Note_on_c, 4, 76, 105
10, 171520, Note_on_c, 4, 80, 49
10, 171578, Note_on_c, 4, 76, 0
10, 171578, Note_on_c, 4, 80, 0
10, 171584, Note_on_c, 4, 78, 118
10, 171584, Note_on_c, 4, 81, 48
10, 171642, Note_on_c, 4, 78, 0
10, 171642, Note_on_c, 4, 81, 0
10, 171776, Note_on_c, 4, 78, 102
10, 171776, Note_on_c, 4, 81, 45
10, 171839, Note_on_c, 4, 78, 0
10, 171839, Note_on_c, 4, 81, 0
10, 171904, Note_on_c, 4, 78, 108
10, 171904, Note_on_c, 4, 81, 46
10, 171967, Note_on_c, 4, 78, 0
10, 171967, Note_on_c, 4, 81, 0
10, 172032, Note_on_c, 4, 76, 106
10, 172032, Note_on_c, 4, 80, 49
10, 172090, Note_on_c, 4, 76, 0
10, 172090, Note_on_c, 4, 80, 0
10, 172096, Note_on_c, 4, 78, 115
10, 172096, Note_on_c, 4, 81, 49
10, 172154, Note_on_c, 4, 78, 0
10, 172154, Note_on_c, 4, 81, 0
10, 172288, Note_on_c, 4, 78, 103
10, 172288, Note_on_c, 4, 81, 45
10, 172351, Note_on_c, 4, 78, 0
10, 172351, Note_on_c, 4, 81, 0
10, 172416, Note_on_c, 4, 78, 109
10, 172416, Note_on_c, 4, 81, 45
10, 172479, Note_on_c, 4, 78, 0
10, 172479, Note_on_c, 4, 81, 0
10, 172608, Note_on_c, 4, 78, 99
10, 172608, Note_on_c, 4, 81, 42
10, 172671, Note_on_c, 4, 78, 0
10, 172671, Note_on_c, 4, 81, 0
10, 172800, Note_on_c, 4, 78, 102
10, 172800, Note_on_c, 4, 81, 45
10, 172863, Note_on_c, 4, 78, 0
10, 172863, Note_on_c, 4, 81, 0
10, 172928, Note_on_c, 4, 76, 101
10, 172928, Note_on_c, 4, 80, 43
10, 172986, Note_on_c, 4, 76, 0
10, 172986, Note_on_c, 4, 80, 0
10, 172992, Note_on_c, 4, 78, 118
10, 172992, Note_on_c, 4, 81, 48
10, 173050, Note_on_c, 4, 78, 0
10, 173050, Note_on_c, 4, 81, 0
10, 173184, Note_on_c, 4, 78, 99
10, 173184, Note_on_c, 4, 81, 42
10, 173247, Note_on_c, 4, 78, 0
10, 173247, Note_on_c, 4, 81, 0
10, 173312, Note_on_c, 4, 76, 103
10, 173312, Note_on_c, 4, 80, 48
10, 173370, Note_on_c, 4, 76, 0
10, 173370, Note_on_c, 4, 80, 0
10, 173376, Note_on_c, 4, 78, 118
10, 173376, Note_on_c, 4, 81, 49
10, 173434, Note_on_c, 4, 78, 0
10, 173434, Note_on_c, 4, 81, 0
10, 173568, Note_on_c, 4, 78, 103
10, 173568, Note_on_c, 4, 81, 47
10, 173631, Note_on_c, 4, 78, 0
10, 173631, Note_on_c, 4, 81, 0
10, 173696, Note_on_c, 4, 78, 107
10, 173696, Note_on_c, 4, 81, 49
10, 173759, Note_on_c, 4, 78, 0
10, 173759, Note_on_c, 4, 81, 0
10, 173824, Note_on_c, 4, 76, 108
10, 173824, Note_on_c, 4, 80, 48
10, 173882, Note_on_c, 4, 76, 0
10, 173882, Note_on_c, 4, 80, 0
10, 173888, Note_on_c, 4, 78, 117
10, 173888, Note_on_c, 4, 81, 49
10, 173946, Note_on_c, 4, 78, 0
10, 173946, Note_on_c, 4, 81, 0
10, 174080, Note_on_c, 4, 75, 102
10, 174080, Note_on_c, 4, 78, 73
10, 174143, Note_on_c, 4, 75, 0
10, 174143, Note_on_c, 4, 78, 0
10, 174208, Note_on_c, 4, 75, 107
10, 174208, Note_on_c, 4, 78, 78
10, 174271, Note_on_c, 4, 75, 0
10, 174271, Note_on_c, 4, 78, 0
10, 174400, Note_on_c, 4, 75, 100
10, 174400, Note_on_c, 4, 78, 69
10, 174463, Note_on_c, 4, 75, 0
10, 174463, Note_on_c, 4, 78, 0
10, 174592, Note_on_c, 4, 75, 103
10, 174592, Note_on_c, 4, 78, 75
10, 174655, Note_on_c, 4, 75, 0
10, 174655, Note_on_c, 4, 78, 0
10, 174720, Note_on_c, 4, 73, 104
10, 174720, Note_on_c, 4, 77, 74
10, 174778, Note_on_c, 4, 73, 0
10, 174778, Note_on_c, 4, 77, 0
10, 174784, Note_on_c, 4, 75, 118
10, 174784, Note_on_c, 4, 78, 82
10, 174842, Note_on_c, 4, 75, 0
10, 174842, Note_on_c, 4, 78, 0
10, 174976, Note_on_c, 4, 75, 99
10, 174976, Note_on_c, 4, 78, 71
10, 175039, Note_on_c, 4, 75, 0
10, 175039, Note_on_c, 4, 78, 0
10, 175104, Note_on_c, 4, 73, 105
10, 175104, Note_on_c, 4, 77, 77
10, 175162, Note_on_c, 4, 73, 0
10, 175162, Note_on_c, 4, 77, 0
10, 175168, Note_on_c, 4, 75, 118
10, 175168, Note_on_c, 4, 78, 85
10, 175226, Note_on_c, 4, 75, 0
10, 175226, Note_on_c, 4, 78, 0
10, 175360, Note_on_c, 4, 75, 104
10, 175360, Note_on_c, 4, 78, 73
10, 175423, Note_on_c, 4, 75, 0
10, 175423, Note_on_c, 4, 78, 0
10, 175488, Note_on_c, 4, 75, 107
10, 175488, Note_on_c, 4, 78, 79
10, 175551, Note_on_c, 4, 75, 0
10, 175551, Note_on_c, 4, 78, 0
10, 175616, Note_on_c, 4, 73, 107
10, 175616, Note_on_c, 4, 77, 81
10, 175674, Note_on_c, 4, 73, 0
10, 175674, Note_on_c, 4, 77, 0
10, 175680, Note_on_c, 4, 75, 116
10, 175680, Note_on_c, 4, 78, 82
10, 175738, Note_on_c, 4, 75, 0
10, 175738, Note_on_c, 4, 78, 0
10, 175872, Note_on_c, 4, 75, 102
10, 175872, Note_on_c, 4, 78, 75
10, 175935, Note_on_c, 4, 75, 0
10, 175935, Note_on_c, 4, 78, 0
10, 176000, Note_on_c, 4, 75, 109
10, 176000, Note_on_c, 4, 78, 77
10, 176063, Note_on_c, 4, 75, 0
10, 176063, Note_on_c, 4, 78, 0
10, 176192, Note_on_c, 4, 75, 98
10, 176192, Note_on_c, 4, 78, 73
10, 176255, Note_on_c, 4, 75, 0
10, 176255, Note_on_c, 4, 78, 0
10, 176384, Note_on_c, 4, 75, 103
10, 176384, Note_on_c, 4, 78, 73
10, 176447, Note_on_c, 4, 75, 0
10, 176447, Note_on_c, 4, 78, 0
10, 176512, Note_on_c, 4, 73, 101
10, 176512, Note_on_c, 4, 77, 77
10, 176570, Note_on_c, 4, 73, 0
10, 176570, Note_on_c, 4, 77, 0
10, 176576, Note_on_c, 4, 75, 117
10, 176576, Note_on_c, 4, 78, 84
10, 176634, Note_on_c, 4, 75, 0
10, 176634, Note_on_c, 4, 78, 0
10, 176768, Note_on_c, 4, 75, 98
10, 176768, Note_on_c, 4, 78, 73
10, 176831, Note_on_c, 4, 75, 0
10, 176831, Note_on_c, 4, 78, 0
10, 176896, Note_on_c, 4, 73, 104
10, 176896, Note_on_c, 4, 77, 77
10, 176954, Note_on_c, 4, 73, 0
10, 176954, Note_on_c, 4, 77, 0
10, 176960, Note_on_c, 4, 75, 115
10, 176960, Note_on_c, 4, 78, 85
10, 177018, Note_on_c, 4, 75, 0
10, 177018, Note_on_c, 4, 78, 0
10, 177152, Note_on_c, 4, 75, 101
10, 177152, Note_on_c, 4, 78, 75
10, 177215, Note_on_c, 4, 75, 0
10, 177215, Note_on_c, 4, 78, 0
10, 177280, Note_on_c, 4, 75, 109
10, 177280, Note_on_c, 4, 78, 78
10, 177343, Note_on_c, 4, 75, 0
10, 177343, Note_on_c, 4, 78, 0
10, 177408, Note_on_c, 4, 73, 106
10, 177408, Note_on_c, 4, 77, 79
10, 177466, Note_on_c, 4, 73, 0
10, 177466, Note_on_c, 4, 77, 0
10, 177472, Note_on_c, 4, 75, 115
10, 177472, Note_on_c, 4, 78, 84
10, 177530, Note_on_c, 4, 75, 0
10, 177530, Note_on_c, 4, 78, 0
10, 177664, Note_on_c, 4, 78, 102
10, 177664, Note_on_c, 4, 81, 75
10, 177727, Note_on_c, 4, 78, 0
10, 177727, Note_on_c, 4, 81, 0
10, 177792, Note_on_c, 4, 78, 109
10, 177792, Note_on_c, 4, 81, 78
10, 177855, Note_on_c, 4, 78, 0
10, 177855, Note_on_c, 4, 81, 0
10, 177984, Note_on_c, 4, 78, 99
10, 177984, Note_on_c, 4, 81, 69
10, 178047, Note_on_c, 4, 78, 0
10, 178047, Note_on_c, 4, 81, 0
10, 178176, Note_on_c, 4, 78, 100
10, 178176, Note_on_c, 4, 81, 75
10, 178239, Note_on_c, 4, 78, 0
10, 178239, Note_on_c, 4, 81, 0
10, 178304, Note_on_c, 4, 76, 101
10, 178304, Note_on_c, 4, 80, 74
10, 178362, Note_on_c, 4, 76, 0
10, 178362, Note_on_c, 4, 80, 0
10, 178368, Note_on_c, 4, 78, 116
10, 178368, Note_on_c, 4, 81, 81
10, 178426, Note_on_c, 4, 78, 0
10, 178426, Note_on_c, 4, 81, 0
10, 178560, Note_on_c, 4, 78, 97
10, 178560, Note_on_c, 4, 81, 71
10, 178623, Note_on_c, 4, 78, 0
10, 178623, Note_on_c, 4, 81, 0
10, 178688, Note_on_c, 4, 76, 104
10, 178688, Note_on_c, 4, 80, 79
10, 178746, Note_on_c, 4, 76, 0
10, 178746, Note_on_c, 4, 80, 0
10, 178752, Note_on_c, 4, 78, 119
10, 178752, Note_on_c, 4, 81, 83
10, 178810, Note_on_c, 4, 78, 0
10, 178810, Note_on_c, 4, 81, 0
10, 178944, Note_on_c, 4, 78, 103
10, 178944, Note_on_c, 4, 81, 74
10, 179007, Note_on_c, 4, 78, 0
10, 179007, Note_on_c, 4, 81, 0
10, 179072, Note_on_c, 4, 78, 108
10, 179072, Note_on_c, 4, 81, 79
10, 179135, Note_on_c, 4, 78, 0
10, 179135, Note_on_c, 4, 81, 0
10, 179200, Note_on_c, 4, 76, 107
10, 179200, Note_on_c, 4, 80, 78
10, 179258, Note_on_c, 4, 76, 0
10, 179258, Note_on_c, 4, 80, 0
10, 179264, Note_on_c, 4, 78, 118
10, 179264, Note_on_c, 4, 81, 83
10, 179322, Note_on_c, 4, 78, 0
10, 179322, Note_on_c, 4, 81, 0
10, 179456, Note_on_c, 4, 78, 103
10, 179456, Note_on_c, 4, 81, 73
10, 179519, Note_on_c, 4, 78, 0
10, 179519, Note_on_c, 4, 81, 0
10, 179584, Note_on_c, 4, 78, 108
10, 179584, Note_on_c, 4, 81, 80
10, 179647, Note_on_c, 4, 78, 0
10, 179647, Note_on_c, 4, 81, 0
10, 179776, Note_on_c, 4, 78, 98
10, 179776, Note_on_c, 4, 81, 69
10, 179839, Note_on_c, 4, 78, 0
10, 179839, Note_on_c, 4, 81, 0
10, 179968, Note_on_c, 4, 78, 102
10, 179968, Note_on_c, 4, 81, 74
10, 180031, Note_on_c, 4, 78, 0
10, 180031, Note_on_c, 4, 81, 0
10, 180096, Note_on_c, 4, 76, 101
10, 180096, Note_on_c, 4, 80, 75
10, 180154, Note_on_c, 4, 76, 0
10, 180154, Note_on_c, 4, 80, 0
10, 180160, Note_on_c, 4, 78, 117
10, 180160, Note_on_c, 4, 81, 82
10, 180218, Note_on_c, 4, 78, 0
10, 180218, Note_on_c, 4, 81, 0
10, 180352, Note_on_c, 4, 78, 100
10, 180352, Note_on_c, 4, 81, 72
10, 180415, Note_on_c, 4, 78, 0
10, 180415, Note_on_c, 4, 81, 0
10, 180480, Note_on_c, 4, 76, 104
10, 180480, Note_on_c, 4, 80, 79
10, 180538, Note_on_c, 4, 76, 0
10, 180538, Note_on_c, 4, 80, 0
10, 180544, Note_on_c, 4, 78, 118
10, 180544, Note_on_c, 4, 81, 81
10, 180602, Note_on_c, 4, 78, 0
10, 180602, Note_on_c, 4, 81, 0
10, 180736, Note_on_c, 4, 78, 101
10, 180736, Note_on_c, 4, 81, 73
10, 180799, Note_on_c, 4, 78, 0
10, 180799, Note_on_c, 4, 81, 0
10, 180864, Note_on_c, 4, 78, 108
10, 180864, Note_on_c, 4, 81, 79
10, 180927, Note_on_c, 4, 78, 0
10, 180927, Note_on_c, 4, 81, 0
10, 180992, Note_on_c, 4, 76, 107
10, 180992, Note_on_c, 4, 80, 80
10, 181050, Note_on_c, 4, 76, 0
10, 181050, Note_on_c, 4, 80, 0
10, 181056, Note_on_c, 4, 78, 117
10, 181056, Note_on_c, 4, 81, 83
10, 181114, Note_on_c, 4, 78, 0
10, 181114, Note_on_c, 4, 81, 0
10, 181248, Note_on_c, 4, 80, 102
10, 181248, Note_on_c, 4, 75, 73
10, 181306, Note_on_c, 4, 80, 0
10, 181306, Note_on_c, 4, 75, 0
10, 181312, Note_on_c, 4, 80, 110
10, 181312, Note_on_c, 4, 75, 80
10, 181370, Note_on_c, 4, 80, 0
10, 181370, Note_on_c, 4, 75, 0
10, 181376, Note_on_c, 4, 80, 110
10, 181376, Note_on_c, 4, 75, 82
10, 181492, Note_on_c, 4, 80, 0
10, 181492, Note_on_c, 4, 75, 0
10, 181504, Note_on_c, 4, 80, 116
10, 181504, Note_on_c, 4, 75, 84
10, 181620, Note_on_c, 4, 80, 0
10, 181620, Note_on_c, 4, 75, 0
10, 181632, Note_on_c, 4, 80, 110
10, 181632, Note_on_c, 4, 75, 82
10, 181690, Note_on_c, 4, 80, 0
10, 181690, Note_on_c, 4, 75, 0
10, 181696, Note_on_c, 4, 80, 112
10, 181696, Note_on_c, 4, 75, 79
10, 181812, Note_on_c, 4, 80, 0
10, 181812, Note_on_c, 4, 75, 0
10, 181824, Note_on_c, 4, 80, 113
10, 181824, Note_on_c, 4, 75, 82
10, 181940, Note_on_c, 4, 80, 0
10, 181940, Note_on_c, 4, 75, 0
10, 181952, Note_on_c, 4, 80, 110
10, 181952, Note_on_c, 4, 75, 82
10, 182010, Note_on_c, 4, 80, 0
10, 182010, Note_on_c, 4, 75, 0
10, 182016, Note_on_c, 4, 83, 125
10, 182016, Note_on_c, 4, 80, 93
10, 182132, Note_on_c, 4, 83, 0
10, 182132, Note_on_c, 4, 80, 0
10, 182144, Note_on_c, 4, 82, 107
10, 182144, Note_on_c, 4, 78, 78
10, 182260, Note_on_c, 4, 82, 0
10, 182260, Note_on_c, 4, 78, 0
10, 182272, Note_on_c, 4, 80, 106
10, 182272, Note_on_c, 4, 75, 77
10, 182330, Note_on_c, 4, 80, 0
10, 182330, Note_on_c, 4, 75, 0
10, 182336, Note_on_c, 4, 80, 110
10, 182336, Note_on_c, 4, 75, 80
10, 182394, Note_on_c, 4, 80, 0
10, 182394, Note_on_c, 4, 75, 0
10, 182400, Note_on_c, 4, 80, 113
10, 182400, Note_on_c, 4, 75, 81
10, 182516, Note_on_c, 4, 80, 0
10, 182516, Note_on_c, 4, 75, 0
10, 182528, Note_on_c, 4, 80, 114
10, 182528, Note_on_c, 4, 75, 82
10, 182644, Note_on_c, 4, 80, 0
10, 182644, Note_on_c, 4, 75, 0
10, 182656, Note_on_c, 4, 80, 112
10, 182656, Note_on_c, 4, 75, 80
10, 182714, Note_on_c, 4, 80, 0
10, 182714, Note_on_c, 4, 75, 0
10, 182720, Note_on_c, 4, 80, 109
10, 182720, Note_on_c, 4, 75, 82
10, 182836, Note_on_c, 4, 80, 0
10, 182836, Note_on_c, 4, 75, 0
10, 182848, Note_on_c, 4, 80, 113
10, 182848, Note_on_c, 4, 75, 80
10, 182964, Note_on_c, 4, 80, 0
10, 182964, Note_on_c, 4, 75, 0
10, 182976, Note_on_c, 4, 80, 110
10, 182976, Note_on_c, 4, 75, 82
10, 183034, Note_on_c, 4, 80, 0
10, 183034, Note_on_c, 4, 75, 0
10, 183040, Note_on_c, 4, 78, 106
10, 183040, Note_on_c, 4, 73, 79
10, 183271, Note_on_c, 4, 78, 0
10, 183271, Note_on_c, 4, 73, 0
10, 183296, Note_on_c, 4, 80, 118
10, 183296, Note_on_c, 4, 75, 86
10, 183354, Note_on_c, 4, 80, 0
10, 183354, Note_on_c, 4, 75, 0
10, 183360, Note_on_c, 4, 80, 112
10, 183360, Note_on_c, 4, 75, 80
10, 183418, Note_on_c, 4, 80, 0
10, 183418, Note_on_c, 4, 75, 0
10, 183424, Note_on_c, 4, 80, 109
10, 183424, Note_on_c, 4, 75, 79
10, 183540, Note_on_c, 4, 80, 0
10, 183540, Note_on_c, 4, 75, 0
10, 183552, Note_on_c, 4, 80, 113
10, 183552, Note_on_c, 4, 75, 84
10, 183668, Note_on_c, 4, 80, 0
10, 183668, Note_on_c, 4, 75, 0
10, 183680, Note_on_c, 4, 80, 113
10, 183680, Note_on_c, 4, 75, 81
10, 183738, Note_on_c, 4, 80, 0
10, 183738, Note_on_c, 4, 75, 0
10, 183744, Note_on_c, 4, 80, 109
10, 183744, Note_on_c, 4, 75, 79
10, 183860, Note_on_c, 4, 80, 0
10, 183860, Note_on_c, 4, 75, 0
10, 183872, Note_on_c, 4, 80, 110
10, 183872, Note_on_c, 4, 75, 82
10, 183988, Note_on_c, 4, 80, 0
10, 183988, Note_on_c, 4, 75, 0
10, 184000, Note_on_c, 4, 80, 110
10, 184000, Note_on_c, 4, 75, 81
10, 184058, Note_on_c, 4, 80, 0
10, 184058, Note_on_c, 4, 75, 0
10, 184064, Note_on_c, 4, 83, 122
10, 184064, Note_on_c, 4, 80, 95
10, 184180, Note_on_c, 4, 83, 0
10, 184180, Note_on_c, 4, 80, 0
10, 184192, Note_on_c, 4, 82, 109
10, 184192, Note_on_c, 4, 78, 77
10, 184308, Note_on_c, 4, 82, 0
10, 184308, Note_on_c, 4, 78, 0
10, 184320, Note_on_c, 4, 80, 105
10, 184320, Note_on_c, 4, 75, 76
10, 184378, Note_on_c, 4, 80, 0
10, 184378, Note_on_c, 4, 75, 0
10, 184384, Note_on_c, 4, 80, 110
10, 184384, Note_on_c, 4, 75, 78
10, 184442, Note_on_c, 4, 80, 0
10, 184442, Note_on_c, 4, 75, 0
10, 184448, Note_on_c, 4, 80, 113
10, 184448, Note_on_c, 4, 75, 80
10, 184564, Note_on_c, 4, 80, 0
10, 184564, Note_on_c, 4, 75, 0
10, 184576, Note_on_c, 4, 80, 112
10, 184576, Note_on_c, 4, 75, 81
10, 184692, Note_on_c, 4, 80, 0
10, 184692, Note_on_c, 4, 75, 0
10, 184704, Note_on_c, 4, 80, 112
10, 184704, Note_on_c, 4, 75, 81
10, 184762, Note_on_c, 4, 80, 0
10, 184762, Note_on_c, 4, 75, 0
10, 184768, Note_on_c, 4, 80, 110
10, 184768, Note_on_c, 4, 75, 81
10, 184884, Note_on_c, 4, 80, 0
10, 184884, Note_on_c, 4, 75, 0
10, 184896, Note_on_c, 4, 80, 110
10, 184896, Note_on_c, 4, 75, 78
10, 185012, Note_on_c, 4, 80, 0
10, 185012, Note_on_c, 4, 75, 0
10, 185024, Note_on_c, 4, 80, 112
10, 185024, Note_on_c, 4, 75, 82
10, 185082, Note_on_c, 4, 80, 0
10, 185082, Note_on_c, 4, 75, 0
10, 185088, Note_on_c, 4, 78, 108
10, 185088, Note_on_c, 4, 73, 79
10, 185319, Note_on_c, 4, 78, 0
10, 185319, Note_on_c, 4, 73, 0
10, 185344, Note_on_c, 4, 80, 120
10, 185344, Note_on_c, 4, 75, 85
10, 185402, Note_on_c, 4, 80, 0
10, 185402, Note_on_c, 4, 75, 0
10, 185408, Note_on_c, 4, 80, 113
10, 185408, Note_on_c, 4, 75, 81
10, 185466, Note_on_c, 4, 80, 0
10, 185466, Note_on_c, 4, 75, 0
10, 185472, Note_on_c, 4, 80, 112
10, 185472, Note_on_c, 4, 75, 82
10, 185588, Note_on_c, 4, 80, 0
10, 185588, Note_on_c, 4, 75, 0
10, 185600, Note_on_c, 4, 80, 114
10, 185600, Note_on_c, 4, 75, 84
10, 185716, Note_on_c, 4, 80, 0
10, 185716, Note_on_c, 4, 75, 0
10, 185728, Note_on_c, 4, 80, 110
10, 185728, Note_on_c, 4, 75, 79
10, 185786, Note_on_c, 4, 80, 0
10, 185786, Note_on_c, 4, 75, 0
10, 185792, Note_on_c, 4, 80, 113
10, 185792, Note_on_c, 4, 75, 78
10, 185908, Note_on_c, 4, 80, 0
10, 185908, Note_on_c, 4, 75, 0
10, 185920, Note_on_c, 4, 80, 111
10, 185920, Note_on_c, 4, 75, 78
10, 186036, Note_on_c, 4, 80, 0
10, 186036, Note_on_c, 4, 75, 0
10, 186048, Note_on_c, 4, 80, 110
10, 186048, Note_on_c, 4, 75, 82
10, 186106, Note_on_c, 4, 80, 0
10, 186106, Note_on_c, 4, 75, 0
10, 186112, Note_on_c, 4, 83, 123
10, 186112, Note_on_c, 4, 80, 91
10, 186228, Note_on_c, 4, 83, 0
10, 186228, Note_on_c, 4, 80, 0
10, 186240, Note_on_c, 4, 82, 106
10, 186240, Note_on_c, 4, 78, 74
10, 186356, Note_on_c, 4, 82, 0
10, 186356, Note_on_c, 4, 78, 0
10, 186368, Note_on_c, 4, 80, 107
10, 186368, Note_on_c, 4, 75, 76
10, 186426, Note_on_c, 4, 80, 0
10, 186426, Note_on_c, 4, 75, 0
10, 186432, Note_on_c, 4, 80, 111
10, 186432, Note_on_c, 4, 75, 78
10, 186490, Note_on_c, 4, 80, 0
10, 186490, Note_on_c, 4, 75, 0
10, 186496, Note_on_c, 4, 80, 113
10, 186496, Note_on_c, 4, 75, 79
10, 186612, Note_on_c, 4, 80, 0
10, 186612, Note_on_c, 4, 75, 0
10, 186624, Note_on_c, 4, 80, 116
10, 186624, Note_on_c, 4, 75, 84
10, 186740, Note_on_c, 4, 80, 0
10, 186740, Note_on_c, 4, 75, 0
10, 186752, Note_on_c, 4, 80, 112
10, 186752, Note_on_c, 4, 75, 80
10, 186810, Note_on_c, 4, 80, 0
10, 186810, Note_on_c, 4, 75, 0
10, 186816, Note_on_c, 4, 80, 113
10, 186816, Note_on_c, 4, 75, 79
10, 186932, Note_on_c, 4, 80, 0
10, 186932, Note_on_c, 4, 75, 0
10, 186944, Note_on_c, 4, 80, 112
10, 186944, Note_on_c, 4, 75, 81
10, 187060, Note_on_c, 4, 80, 0
10, 187060, Note_on_c, 4, 75, 0
10, 187072, Note_on_c, 4, 80, 110
10, 187072, Note_on_c, 4, 75, 81
10, 187130, Note_on_c, 4, 80, 0
10, 187130, Note_on_c, 4, 75, 0
10, 187136, Note_on_c, 4, 78, 107
10, 187136, Note_on_c, 4, 73, 78
10, 187367, Note_on_c, 4, 78, 0
10, 187367, Note_on_c, 4, 73, 0
10, 187368, End_track
11, 0, Start_track
11, 0, Title_t, "Synthesizer"
11, 0, Control_c, 10, 91, 63
11, 0, Control_c, 10, 10, 56
11, 0, Control_c, 10, 91, 63
11, 0, Control_c, 10, 10, 56
11, 43008, Control_c, 10, 0, 0
11, 43008, Control_c, 10, 32, 0
11, 43008, Program_c, 10, 103
11, 43008, Note_on_c, 10, 79, 90
11, 43008, Program_c, 10, 80
11, 43008, Note_on_c, 10, 64, 60
11, 43124, Note_on_c, 10, 64, 0
11, 43136, Note_on_c, 10, 76, 79
11, 43252, Note_on_c, 10, 76, 0
11, 43264, Note_on_c, 10, 76, 68
11, 43380, Note_on_c, 10, 76, 0
11, 43392, Note_on_c, 10, 64, 47
11, 43508, Note_on_c, 10, 64, 0
11, 43520, Note_on_c, 10, 76, 78
11, 43636, Note_on_c, 10, 76, 0
11, 43648, Note_on_c, 10, 64, 50
11, 43706, Note_on_c, 10, 64, 0
11, 43712, Note_on_c, 10, 76, 79
11, 43828, Note_on_c, 10, 76, 0
11, 43840, Note_on_c, 10, 64, 47
11, 43898, Note_on_c, 10, 64, 0
11, 43904, Note_on_c, 10, 76, 78
11, 43962, Note_on_c, 10, 76, 0
11, 43968, Note_on_c, 10, 64, 49
11, 43982, Note_on_c, 10, 79, 0
11, 44026, Note_on_c, 10, 64, 0
11, 44032, Program_c, 10, 103
11, 44032, Note_on_c, 10, 78, 92
11, 44032, Program_c, 10, 80
11, 44032, Note_on_c, 10, 76, 79
11, 44148, Note_on_c, 10, 76, 0
11, 44160, Note_on_c, 10, 64, 49
11, 44276, Note_on_c, 10, 64, 0
11, 44288, Note_on_c, 10, 76, 80
11, 44404, Note_on_c, 10, 76, 0
11, 44416, Note_on_c, 10, 64, 47
11, 44494, Note_on_c, 10, 78, 0
11, 44532, Note_on_c, 10, 64, 0
11, 44544, Program_c, 10, 103
11, 44544, Note_on_c, 10, 83, 110
11, 44544, Program_c, 10, 80
11, 44544, Note_on_c, 10, 76, 81
11, 44660, Note_on_c, 10, 76, 0
11, 44672, Note_on_c, 10, 64, 49
11, 44730, Note_on_c, 10, 64, 0
11, 44736, Note_on_c, 10, 76, 75
11, 44852, Note_on_c, 10, 76, 0
11, 44864, Note_on_c, 10, 76, 64
11, 44922, Note_on_c, 10, 76, 0
11, 44928, Note_on_c, 10, 64, 44
11, 44986, Note_on_c, 10, 64, 0
11, 44992, Note_on_c, 10, 76, 78
11, 45006, Note_on_c, 10, 83, 0
11, 45050, Note_on_c, 10, 76, 0
11, 45056, Program_c, 10, 103
11, 45056, Note_on_c, 10, 78, 90
11, 45056, Program_c, 10, 80
11, 45056, Note_on_c, 10, 64, 50
11, 45172, Note_on_c, 10, 64, 0
11, 45184, Note_on_c, 10, 76, 76
11, 45300, Note_on_c, 10, 76, 0
11, 45312, Note_on_c, 10, 76, 70
11, 45428, Note_on_c, 10, 76, 0
11, 45440, Note_on_c, 10, 64, 47
11, 45556, Note_on_c, 10, 64, 0
11, 45568, Note_on_c, 10, 76, 81
11, 45684, Note_on_c, 10, 76, 0
11, 45696, Note_on_c, 10, 64, 50
11, 45754, Note_on_c, 10, 64, 0
11, 45760, Note_on_c, 10, 76, 79
11, 45876, Note_on_c, 10, 76, 0
11, 45888, Note_on_c, 10, 64, 47
11, 45946, Note_on_c, 10, 64, 0
11, 45952, Note_on_c, 10, 76, 77
11, 46010, Note_on_c, 10, 76, 0
11, 46016, Note_on_c, 10, 64, 47
11, 46030, Note_on_c, 10, 78, 0
11, 46074, Note_on_c, 10, 64, 0
11, 46080, Program_c, 10, 103
11, 46080, Note_on_c, 10, 76, 93
11, 46080, Program_c, 10, 80
11, 46080, Note_on_c, 10, 76, 79
11, 46196, Note_on_c, 10, 76, 0
11, 46208, Note_on_c, 10, 64, 49
11, 46324, Note_on_c, 10, 64, 0
11, 46336, Note_on_c, 10, 76, 81
11, 46452, Note_on_c, 10, 76, 0
11, 46464, Note_on_c, 10, 64, 47
11, 46580, Note_on_c, 10, 64, 0
11, 46592, Note_on_c, 10, 76, 80
11, 46708, Note_on_c, 10, 76, 0
11, 46720, Note_on_c, 10, 64, 50
11, 46778, Note_on_c, 10, 64, 0
11, 46784, Note_on_c, 10, 76, 76
11, 46798, Note_on_c, 10, 76, 0
11, 46848, Program_c, 10, 103
11, 46848, Note_on_c, 10, 79, 107
11, 46900, Note_on_c, 10, 76, 0
11, 46912, Program_c, 10, 80
11, 46912, Note_on_c, 10, 76, 65
11, 46964, Note_on_c, 10, 79, 0
11, 46970, Note_on_c, 10, 76, 0
11, 46976, Program_c, 10, 103
11, 46976, Note_on_c, 10, 81, 102
11, 46976, Program_c, 10, 80
11, 46976, Note_on_c, 10, 64, 45
11, 47034, Note_on_c, 10, 64, 0
11, 47040, Note_on_c, 10, 76, 75
11, 47092, Note_on_c, 10, 81, 0
11, 47098, Note_on_c, 10, 76, 0
11, 47104, Program_c, 10, 103
11, 47104, Note_on_c, 10, 83, 105
11, 47104, Program_c, 10, 80
11, 47104, Note_on_c, 10, 64, 52
11, 47220, Note_on_c, 10, 64, 0
11, 47232, Note_on_c, 10, 76, 75
11, 47348, Note_on_c, 10, 76, 0
11, 47360, Note_on_c, 10, 76, 68
11, 47476, Note_on_c, 10, 76, 0
11, 47488, Note_on_c, 10, 64, 47
11, 47604, Note_on_c, 10, 64, 0
11, 47616, Note_on_c, 10, 76, 81
11, 47732, Note_on_c, 10, 76, 0
11, 47744, Note_on_c, 10, 64, 50
11, 47802, Note_on_c, 10, 64, 0
11, 47808, Note_on_c, 10, 76, 77
11, 47924, Note_on_c, 10, 76, 0
11, 47936, Note_on_c, 10, 64, 47
11, 47994, Note_on_c, 10, 64, 0
11, 48000, Note_on_c, 10, 76, 78
11, 48058, Note_on_c, 10, 76, 0
11, 48064, Note_on_c, 10, 64, 46
11, 48078, Note_on_c, 10, 83, 0
11, 48122, Note_on_c, 10, 64, 0
11, 48128, Program_c, 10, 103
11, 48128, Note_on_c, 10, 81, 92
11, 48128, Program_c, 10, 80
11, 48128, Note_on_c, 10, 76, 80
11, 48244, Note_on_c, 10, 76, 0
11, 48256, Note_on_c, 10, 64, 50
11, 48372, Note_on_c, 10, 64, 0
11, 48384, Note_on_c, 10, 76, 81
11, 48500, Note_on_c, 10, 76, 0
11, 48512, Note_on_c, 10, 64, 47
11, 48590, Note_on_c, 10, 81, 0
11, 48628, Note_on_c, 10, 64, 0
11, 48640, Program_c, 10, 103
11, 48640, Note_on_c, 10, 86, 108
11, 48640, Program_c, 10, 80
11, 48640, Note_on_c, 10, 76, 82
11, 48756, Note_on_c, 10, 76, 0
11, 48768, Note_on_c, 10, 64, 48
11, 48826, Note_on_c, 10, 64, 0
11, 48832, Note_on_c, 10, 76, 77
11, 48948, Note_on_c, 10, 76, 0
11, 48960, Note_on_c, 10, 76, 65
11, 49018, Note_on_c, 10, 76, 0
11, 49024, Note_on_c, 10, 64, 46
11, 49082, Note_on_c, 10, 64, 0
11, 49088, Note_on_c, 10, 76, 77
11, 49102, Note_on_c, 10, 86, 0
11, 49146, Note_on_c, 10, 76, 0
11, 49152, Program_c, 10, 103
11, 49152, Note_on_c, 10, 84, 95
11, 49152, Program_c, 10, 80
11, 49152, Note_on_c, 10, 64, 52
11, 49268, Note_on_c, 10, 64, 0
11, 49280, Note_on_c, 10, 76, 76
11, 49396, Note_on_c, 10, 76, 0
11, 49408, Note_on_c, 10, 76, 68
11, 49524, Note_on_c, 10, 76, 0
11, 49536, Note_on_c, 10, 64, 45
11, 49652, Note_on_c, 10, 64, 0
11, 49664, Note_on_c, 10, 76, 80
11, 49780, Note_on_c, 10, 76, 0
11, 49792, Note_on_c, 10, 64, 48
11, 49850, Note_on_c, 10, 64, 0
11, 49856, Note_on_c, 10, 76, 76
11, 49972, Note_on_c, 10, 76, 0
11, 49984, Note_on_c, 10, 64, 48
11, 50042, Note_on_c, 10, 64, 0
11, 50048, Note_on_c, 10, 76, 76
11, 50106, Note_on_c, 10, 76, 0
11, 50112, Note_on_c, 10, 64, 48
11, 50126, Note_on_c, 10, 84, 0
11, 50170, Note_on_c, 10, 64, 0
11, 50176, Program_c, 10, 103
11, 50176, Note_on_c, 10, 83, 95
11, 50176, Program_c, 10, 80
11, 50176, Note_on_c, 10, 76, 79
11, 50292, Note_on_c, 10, 76, 0
11, 50304, Note_on_c, 10, 64, 48
11, 50420, Note_on_c, 10, 64, 0
11, 50432, Note_on_c, 10, 76, 82
11, 50548, Note_on_c, 10, 76, 0
11, 50560, Note_on_c, 10, 64, 46
11, 50676, Note_on_c, 10, 64, 0
11, 50688, Note_on_c, 10, 76, 81
11, 50804, Note_on_c, 10, 76, 0
11, 50816, Note_on_c, 10, 64, 47
11, 50874, Note_on_c, 10, 64, 0
11, 50880, Note_on_c, 10, 76, 77
11, 50996, Note_on_c, 10, 76, 0
11, 51008, Note_on_c, 10, 76, 65
11, 51066, Note_on_c, 10, 76, 0
11, 51072, Note_on_c, 10, 64, 45
11, 51130, Note_on_c, 10, 64, 0
11, 51136, Note_on_c, 10, 76, 78
11, 51150, Note_on_c, 10, 83, 0
11, 51194, Note_on_c, 10, 76, 0
11, 51200, Program_c, 10, 103
11, 51200, Note_on_c, 10, 79, 85
11, 51200, Program_c, 10, 80
11, 51200, Note_on_c, 10, 64, 51
11, 51316, Note_on_c, 10, 64, 0
11, 51328, Note_on_c, 10, 76, 76
11, 51444, Note_on_c, 10, 76, 0
11, 51456, Note_on_c, 10, 76, 67
11, 51572, Note_on_c, 10, 76, 0
11, 51584, Note_on_c, 10, 64, 43
11, 51700, Note_on_c, 10, 64, 0
11, 51712, Note_on_c, 10, 76, 81
11, 51828, Note_on_c, 10, 76, 0
11, 51840, Note_on_c, 10, 64, 47
11, 51898, Note_on_c, 10, 64, 0
11, 51904, Note_on_c, 10, 76, 76
11, 52020, Note_on_c, 10, 76, 0
11, 52032, Note_on_c, 10, 64, 47
11, 52090, Note_on_c, 10, 64, 0
11, 52096, Note_on_c, 10, 76, 78
11, 52154, Note_on_c, 10, 76, 0
11, 52160, Note_on_c, 10, 64, 47
11, 52174, Note_on_c, 10, 79, 0
11, 52218, Note_on_c, 10, 64, 0
11, 52224, Program_c, 10, 103
11, 52224, Note_on_c, 10, 78, 91
11, 52224, Program_c, 10, 80
11, 52224, Note_on_c, 10, 76, 80
11, 52340, Note_on_c, 10, 76, 0
11, 52352, Note_on_c, 10, 64, 49
11, 52468, Note_on_c, 10, 64, 0
11, 52480, Note_on_c, 10, 76, 80
11, 52596, Note_on_c, 10, 76, 0
11, 52608, Note_on_c, 10, 64, 46
11, 52686, Note_on_c, 10, 78, 0
11, 52724, Note_on_c, 10, 64, 0
11, 52736, Program_c, 10, 103
11, 52736, Note_on_c, 10, 83, 106
11, 52736, Program_c, 10, 80
11, 52736, Note_on_c, 10, 76, 79
11, 52852, Note_on_c, 10, 76, 0
11, 52864, Note_on_c, 10, 64, 47
11, 52922, Note_on_c, 10, 64, 0
11, 52928, Note_on_c, 10, 76, 78
11, 53044, Note_on_c, 10, 76, 0
11, 53056, Note_on_c, 10, 76, 65
11, 53114, Note_on_c, 10, 76, 0
11, 53120, Note_on_c, 10, 64, 46
11, 53178, Note_on_c, 10, 64, 0
11, 53184, Note_on_c, 10, 76, 77
11, 53198, Note_on_c, 10, 83, 0
11, 53242, Note_on_c, 10, 76, 0
11, 53248, Program_c, 10, 103
11, 53248, Note_on_c, 10, 78, 90
11, 53248, Program_c, 10, 80
11, 53248, Note_on_c, 10, 64, 49
11, 53364, Note_on_c, 10, 64, 0
11, 53376, Note_on_c, 10, 76, 78
11, 53492, Note_on_c, 10, 76, 0
11, 53504, Note_on_c, 10, 76, 66
11, 53620, Note_on_c, 10, 76, 0
11, 53632, Note_on_c, 10, 64, 44
11, 53748, Note_on_c, 10, 64, 0
11, 53760, Note_on_c, 10, 76, 81
11, 53876, Note_on_c, 10, 76, 0
11, 53888, Note_on_c, 10, 64, 49
11, 53946, Note_on_c, 10, 64, 0
11, 53952, Note_on_c, 10, 76, 78
11, 54068, Note_on_c, 10, 76, 0
11, 54080, Note_on_c, 10, 64, 47
11, 54138, Note_on_c, 10, 64, 0
11, 54144, Note_on_c, 10, 76, 79
11, 54202, Note_on_c, 10, 76, 0
11, 54208, Note_on_c, 10, 64, 46
11, 54222, Note_on_c, 10, 78, 0
11, 54266, Note_on_c, 10, 64, 0
11, 54272, Program_c, 10, 103
11, 54272, Note_on_c, 10, 76, 90
11, 54272, Program_c, 10, 80
11, 54272, Note_on_c, 10, 76, 82
11, 54388, Note_on_c, 10, 76, 0
11, 54400, Note_on_c, 10, 64, 48
11, 54516, Note_on_c, 10, 64, 0
11, 54528, Note_on_c, 10, 76, 80
11, 54644, Note_on_c, 10, 76, 0
11, 54656, Note_on_c, 10, 64, 46
11, 54772, Note_on_c, 10, 64, 0
11, 54784, Note_on_c, 10, 76, 79
11, 54900, Note_on_c, 10, 76, 0
11, 54912, Note_on_c, 10, 64, 49
11, 54970, Note_on_c, 10, 64, 0
11, 54976, Note_on_c, 10, 76, 78
11, 54990, Note_on_c, 10, 76, 0
11, 55040, Program_c, 10, 103
11, 55040, Note_on_c, 10, 76, 97
11, 55092, Note_on_c, 10, 76, 0
11, 55104, Program_c, 10, 80
11, 55104, Note_on_c, 10, 76, 67
11, 55156, Note_on_c, 10, 76, 0
11, 55162, Note_on_c, 10, 76, 0
11, 55168, Program_c, 10, 103
11, 55168, Note_on_c, 10, 78, 100
11, 55168, Program_c, 10, 80
11, 55168, Note_on_c, 10, 64, 46
11, 55226, Note_on_c, 10, 64, 0
11, 55232, Note_on_c, 10, 76, 77
11, 55284, Note_on_c, 10, 78, 0
11, 55290, Note_on_c, 10, 76, 0
11, 55296, Program_c, 10, 103
11, 55296, Note_on_c, 10, 79, 105
11, 55296, Program_c, 10, 80
11, 55296, Note_on_c, 10, 64, 50
11, 55412, Note_on_c, 10, 64, 0
11, 55424, Note_on_c, 10, 76, 77
11, 55540, Note_on_c, 10, 76, 0
11, 55552, Note_on_c, 10, 76, 66
11, 55668, Note_on_c, 10, 76, 0
11, 55680, Note_on_c, 10, 64, 46
11, 55796, Note_on_c, 10, 64, 0
11, 55808, Note_on_c, 10, 76, 80
11, 55924, Note_on_c, 10, 76, 0
11, 55936, Note_on_c, 10, 64, 47
11, 55994, Note_on_c, 10, 64, 0
11, 56000, Note_on_c, 10, 76, 77
11, 56116, Note_on_c, 10, 76, 0
11, 56128, Note_on_c, 10, 64, 50
11, 56186, Note_on_c, 10, 64, 0
11, 56192, Note_on_c, 10, 76, 78
11, 56250, Note_on_c, 10, 76, 0
11, 56256, Note_on_c, 10, 64, 46
11, 56270, Note_on_c, 10, 79, 0
11, 56314, Note_on_c, 10, 64, 0
11, 56320, Program_c, 10, 103
11, 56320, Note_on_c, 10, 78, 97
11, 56320, Program_c, 10, 80
11, 56320, Note_on_c, 10, 76, 80
11, 56436, Note_on_c, 10, 76, 0
11, 56448, Note_on_c, 10, 64, 48
11, 56564, Note_on_c, 10, 64, 0
11, 56576, Note_on_c, 10, 76, 78
11, 56692, Note_on_c, 10, 76, 0
11, 56704, Note_on_c, 10, 64, 49
11, 56782, Note_on_c, 10, 78, 0
11, 56820, Note_on_c, 10, 64, 0
11, 56832, Program_c, 10, 103
11, 56832, Note_on_c, 10, 83, 106
11, 56832, Program_c, 10, 80
11, 56832, Note_on_c, 10, 76, 81
11, 56948, Note_on_c, 10, 76, 0
11, 56960, Note_on_c, 10, 64, 48
11, 57018, Note_on_c, 10, 64, 0
11, 57024, Note_on_c, 10, 76, 75
11, 57140, Note_on_c, 10, 76, 0
11, 57152, Note_on_c, 10, 76, 65
11, 57210, Note_on_c, 10, 76, 0
11, 57216, Note_on_c, 10, 64, 45
11, 57274, Note_on_c, 10, 64, 0
11, 57280, Note_on_c, 10, 76, 79
11, 57294, Note_on_c, 10, 83, 0
11, 57338, Note_on_c, 10, 76, 0
11, 57344, Program_c, 10, 103
11, 57344, Note_on_c, 10, 76, 85
11, 57344, Program_c, 10, 80
11, 57344, Note_on_c, 10, 60, 52
11, 57344, Note_on_c, 10, 64, 50
11, 58318, Note_on_c, 10, 60, 0
11, 58318, Note_on_c, 10, 64, 0
11, 58368, Note_on_c, 10, 62, 67
11, 58368, Note_on_c, 10, 66, 66
11, 59342, Note_on_c, 10, 76, 0
11, 59342, Note_on_c, 10, 62, 0
11, 59342, Note_on_c, 10, 66, 0
11, 59392, Program_c, 10, 103
11, 59392, Note_on_c, 10, 77, 111
11, 59392, Note_on_c, 10, 80, 110
11, 59392, Program_c, 10, 80
11, 59392, Note_on_c, 10, 77, 82
11, 59392, Note_on_c, 10, 80, 83
11, 60366, Note_on_c, 10, 77, 0
11, 60366, Note_on_c, 10, 80, 0
11, 60366, Note_on_c, 10, 77, 0
11, 60366, Note_on_c, 10, 80, 0
11, 60416, Program_c, 10, 103
11, 60416, Note_on_c, 10, 75, 96
11, 60416, Note_on_c, 10, 79, 98
11, 60416, Program_c, 10, 80
11, 60416, Note_on_c, 10, 75, 65
11, 60416, Note_on_c, 10, 79, 67
11, 60878, Note_on_c, 10, 75, 0
11, 60878, Note_on_c, 10, 79, 0
11, 60878, Note_on_c, 10, 75, 0
11, 60878, Note_on_c, 10, 79, 0
11, 60928, Program_c, 10, 103
11, 60928, Note_on_c, 10, 75, 106
11, 60928, Note_on_c, 10, 84, 110
11, 60928, Program_c, 10, 80
11, 60928, Note_on_c, 10, 75, 70
11, 60928, Note_on_c, 10, 84, 71
11, 61390, Note_on_c, 10, 75, 0
11, 61390, Note_on_c, 10, 84, 0
11, 61390, Note_on_c, 10, 75, 0
11, 61390, Note_on_c, 10, 84, 0
11, 61440, Program_c, 10, 103
11, 61440, Note_on_c, 10, 75, 89
11, 61440, Note_on_c, 10, 79, 88
11, 61440, Program_c, 10, 80
11, 61440, Note_on_c, 10, 75, 60
11, 61440, Note_on_c, 10, 79, 58
11, 62414, Note_on_c, 10, 75, 0
11, 62414, Note_on_c, 10, 79, 0
11, 62414, Note_on_c, 10, 75, 0
11, 62414, Note_on_c, 10, 79, 0
11, 62464, Program_c, 10, 103
11, 62464, Note_on_c, 10, 72, 92
11, 62464, Note_on_c, 10, 77, 91
11, 62464, Program_c, 10, 80
11, 62464, Note_on_c, 10, 72, 61
11, 62464, Note_on_c, 10, 77, 60
11, 63182, Note_on_c, 10, 72, 0
11, 63182, Note_on_c, 10, 77, 0
11, 63182, Note_on_c, 10, 72, 0
11, 63182, Note_on_c, 10, 77, 0
11, 63232, Program_c, 10, 103
11, 63232, Note_on_c, 10, 72, 104
11, 63232, Note_on_c, 10, 80, 103
11, 63232, Program_c, 10, 80
11, 63232, Note_on_c, 10, 72, 68
11, 63232, Note_on_c, 10, 80, 68
11, 63348, Note_on_c, 10, 72, 0
11, 63348, Note_on_c, 10, 80, 0
11, 63348, Note_on_c, 10, 72, 0
11, 63348, Note_on_c, 10, 80, 0
11, 63360, Program_c, 10, 103
11, 63360, Note_on_c, 10, 75, 100
11, 63360, Note_on_c, 10, 82, 103
11, 63360, Program_c, 10, 80
11, 63360, Note_on_c, 10, 75, 69
11, 63360, Note_on_c, 10, 82, 66
11, 63476, Note_on_c, 10, 75, 0
11, 63476, Note_on_c, 10, 82, 0
11, 63476, Note_on_c, 10, 75, 0
11, 63476, Note_on_c, 10, 82, 0
11, 63488, Program_c, 10, 103
11, 63488, Note_on_c, 10, 77, 104
11, 63488, Note_on_c, 10, 84, 106
11, 63488, Program_c, 10, 80
11, 63488, Note_on_c, 10, 77, 72
11, 63488, Note_on_c, 10, 84, 70
11, 64462, Note_on_c, 10, 77, 0
11, 64462, Note_on_c, 10, 84, 0
11, 64462, Note_on_c, 10, 77, 0
11, 64462, Note_on_c, 10, 84, 0
11, 64512, Program_c, 10, 103
11, 64512, Note_on_c, 10, 75, 92
11, 64512, Note_on_c, 10, 82, 93
11, 64512, Program_c, 10, 80
11, 64512, Note_on_c, 10, 75, 63
11, 64512, Note_on_c, 10, 82, 61
11, 64974, Note_on_c, 10, 75, 0
11, 64974, Note_on_c, 10, 82, 0
11, 64974, Note_on_c, 10, 75, 0
11, 64974, Note_on_c, 10, 82, 0
11, 65024, Program_c, 10, 103
11, 65024, Note_on_c, 10, 79, 110
11, 65024, Note_on_c, 10, 87, 107
11, 65024, Program_c, 10, 80
11, 65024, Note_on_c, 10, 79, 71
11, 65024, Note_on_c, 10, 87, 72
11, 65486, Note_on_c, 10, 79, 0
11, 65486, Note_on_c, 10, 87, 0
11, 65486, Note_on_c, 10, 79, 0
11, 65486, Note_on_c, 10, 87, 0
11, 65536, Program_c, 10, 103
11, 65536, Note_on_c, 10, 77, 95
11, 65536, Note_on_c, 10, 85, 94
11, 65536, Program_c, 10, 80
11, 65536, Note_on_c, 10, 77, 63
11, 65536, Note_on_c, 10, 85, 61
11, 66510, Note_on_c, 10, 77, 0
11, 66510, Note_on_c, 10, 85, 0
11, 66510, Note_on_c, 10, 77, 0
11, 66510, Note_on_c, 10, 85, 0
11, 66560, Program_c, 10, 103
11, 66560, Note_on_c, 10, 77, 93
11, 66560, Note_on_c, 10, 84, 92
11, 66560, Program_c, 10, 80
11, 66560, Note_on_c, 10, 77, 62
11, 66560, Note_on_c, 10, 84, 64
11, 67534, Note_on_c, 10, 77, 0
11, 67534, Note_on_c, 10, 84, 0
11, 67534, Note_on_c, 10, 77, 0
11, 67534, Note_on_c, 10, 84, 0
11, 67584, Program_c, 10, 103
11, 67584, Note_on_c, 10, 77, 86
11, 67584, Note_on_c, 10, 80, 85
11, 67584, Program_c, 10, 80
11, 67584, Note_on_c, 10, 77, 60
11, 67584, Note_on_c, 10, 80, 59
11, 68558, Note_on_c, 10, 77, 0
11, 68558, Note_on_c, 10, 80, 0
11, 68558, Note_on_c, 10, 77, 0
11, 68558, Note_on_c, 10, 80, 0
11, 68608, Program_c, 10, 103
11, 68608, Note_on_c, 10, 75, 93
11, 68608, Note_on_c, 10, 79, 94
11, 68608, Program_c, 10, 80
11, 68608, Note_on_c, 10, 75, 60
11, 68608, Note_on_c, 10, 79, 63
11, 69070, Note_on_c, 10, 75, 0
11, 69070, Note_on_c, 10, 79, 0
11, 69070, Note_on_c, 10, 75, 0
11, 69070, Note_on_c, 10, 79, 0
11, 69120, Program_c, 10, 103
11, 69120, Note_on_c, 10, 75, 107
11, 69120, Note_on_c, 10, 84, 107
11, 69120, Program_c, 10, 80
11, 69120, Note_on_c, 10, 75, 72
11, 69120, Note_on_c, 10, 84, 69
11, 69582, Note_on_c, 10, 75, 0
11, 69582, Note_on_c, 10, 84, 0
11, 69582, Note_on_c, 10, 75, 0
11, 69582, Note_on_c, 10, 84, 0
11, 69632, Program_c, 10, 103
11, 69632, Note_on_c, 10, 74, 86
11, 69632, Note_on_c, 10, 79, 88
11, 69632, Program_c, 10, 80
11, 69632, Note_on_c, 10, 74, 59
11, 69632, Note_on_c, 10, 79, 60
11, 70606, Note_on_c, 10, 74, 0
11, 70606, Note_on_c, 10, 79, 0
11, 70606, Note_on_c, 10, 74, 0
11, 70606, Note_on_c, 10, 79, 0
11, 70656, Program_c, 10, 103
11, 70656, Note_on_c, 10, 74, 90
11, 70656, Note_on_c, 10, 77, 89
11, 70656, Program_c, 10, 80
11, 70656, Note_on_c, 10, 74, 63
11, 70656, Note_on_c, 10, 77, 60
11, 71118, Note_on_c, 10, 74, 0
11, 71118, Note_on_c, 10, 77, 0
11, 71118, Note_on_c, 10, 74, 0
11, 71118, Note_on_c, 10, 77, 0
11, 71168, Program_c, 10, 103
11, 71168, Note_on_c, 10, 74, 96
11, 71168, Note_on_c, 10, 77, 95
11, 71168, Program_c, 10, 80
11, 71168, Note_on_c, 10, 74, 61
11, 71168, Note_on_c, 10, 77, 60
11, 71399, Note_on_c, 10, 74, 0
11, 71399, Note_on_c, 10, 77, 0
11, 71399, Note_on_c, 10, 74, 0
11, 71399, Note_on_c, 10, 77, 0
11, 71424, Program_c, 10, 103
11, 71424, Note_on_c, 10, 76, 102
11, 71424, Note_on_c, 10, 79, 101
11, 71424, Program_c, 10, 80
11, 71424, Note_on_c, 10, 76, 65
11, 71424, Note_on_c, 10, 79, 65
11, 71655, Note_on_c, 10, 76, 0
11, 71655, Note_on_c, 10, 79, 0
11, 71655, Note_on_c, 10, 76, 0
11, 71655, Note_on_c, 10, 79, 0
11, 71680, Program_c, 10, 103
11, 71680, Note_on_c, 10, 78, 105
11, 71680, Note_on_c, 10, 81, 104
11, 71680, Program_c, 10, 80
11, 71680, Note_on_c, 10, 78, 72
11, 71680, Note_on_c, 10, 81, 71
11, 72654, Note_on_c, 10, 78, 0
11, 72654, Note_on_c, 10, 81, 0
11, 72654, Note_on_c, 10, 78, 0
11, 72654, Note_on_c, 10, 81, 0
11, 72704, Program_c, 10, 103
11, 72704, Note_on_c, 10, 76, 95
11, 72704, Note_on_c, 10, 80, 93
11, 72704, Program_c, 10, 80
11, 72704, Note_on_c, 10, 76, 63
11, 72704, Note_on_c, 10, 80, 63
11, 72935, Note_on_c, 10, 76, 0
11, 72935, Note_on_c, 10, 80, 0
11, 72935, Note_on_c, 10, 76, 0
11, 72935, Note_on_c, 10, 80, 0
11, 72960, Program_c, 10, 103
11, 72960, Note_on_c, 10, 78, 103
11, 72960, Note_on_c, 10, 82, 100
11, 72960, Program_c, 10, 80
11, 72960, Note_on_c, 10, 78, 67
11, 72960, Note_on_c, 10, 82, 65
11, 73191, Note_on_c, 10, 78, 0
11, 73191, Note_on_c, 10, 82, 0
11, 73191, Note_on_c, 10, 78, 0
11, 73191, Note_on_c, 10, 82, 0
11, 73216, Program_c, 10, 103
11, 73216, Note_on_c, 10, 80, 103
11, 73216, Note_on_c, 10, 84, 103
11, 73216, Program_c, 10, 80
11, 73216, Note_on_c, 10, 80, 69
11, 73216, Note_on_c, 10, 84, 67
11, 73447, Note_on_c, 10, 80, 0
11, 73447, Note_on_c, 10, 84, 0
11, 73447, Note_on_c, 10, 80, 0
11, 73447, Note_on_c, 10, 84, 0
11, 73472, Program_c, 10, 103
11, 73472, Note_on_c, 10, 82, 103
11, 73472, Note_on_c, 10, 85, 103
11, 73472, Program_c, 10, 80
11, 73472, Note_on_c, 10, 82, 68
11, 73472, Note_on_c, 10, 85, 67
11, 73703, Note_on_c, 10, 82, 0
11, 73703, Note_on_c, 10, 85, 0
11, 73703, Note_on_c, 10, 82, 0
11, 73703, Note_on_c, 10, 85, 0
11, 73728, Program_c, 10, 103
11, 73728, Note_on_c, 10, 83, 104
11, 73728, Note_on_c, 10, 87, 106
11, 73728, Program_c, 10, 80
11, 73728, Note_on_c, 10, 83, 71
11, 73728, Note_on_c, 10, 87, 69
11, 74702, Note_on_c, 10, 83, 0
11, 74702, Note_on_c, 10, 87, 0
11, 74702, Note_on_c, 10, 83, 0
11, 74702, Note_on_c, 10, 87, 0
11, 85504, Program_c, 10, 18
11, 85504, Note_on_c, 10, 85, 89
11, 85567, Note_on_c, 10, 85, 0
11, 85632, Note_on_c, 10, 85, 95
11, 85695, Note_on_c, 10, 85, 0
11, 85824, Note_on_c, 10, 85, 86
11, 85887, Note_on_c, 10, 85, 0
11, 86016, Note_on_c, 10, 85, 89
11, 86079, Note_on_c, 10, 85, 0
11, 86144, Note_on_c, 10, 83, 89
11, 86202, Note_on_c, 10, 83, 0
11, 86208, Note_on_c, 10, 85, 103
11, 86266, Note_on_c, 10, 85, 0
11, 86400, Note_on_c, 10, 85, 86
11, 86463, Note_on_c, 10, 85, 0
11, 86528, Note_on_c, 10, 83, 91
11, 86586, Note_on_c, 10, 83, 0
11, 86592, Note_on_c, 10, 85, 101
11, 86650, Note_on_c, 10, 85, 0
11, 86784, Note_on_c, 10, 85, 89
11, 86847, Note_on_c, 10, 85, 0
11, 86912, Note_on_c, 10, 85, 94
11, 86975, Note_on_c, 10, 85, 0
11, 87040, Note_on_c, 10, 83, 91
11, 87098, Note_on_c, 10, 83, 0
11, 87104, Note_on_c, 10, 85, 102
11, 87162, Note_on_c, 10, 85, 0
11, 87296, Note_on_c, 10, 85, 89
11, 87359, Note_on_c, 10, 85, 0
11, 87424, Note_on_c, 10, 85, 92
11, 87487, Note_on_c, 10, 85, 0
11, 87616, Note_on_c, 10, 85, 86
11, 87679, Note_on_c, 10, 85, 0
11, 87808, Note_on_c, 10, 85, 87
11, 87871, Note_on_c, 10, 85, 0
11, 87936, Note_on_c, 10, 83, 89
11, 87994, Note_on_c, 10, 83, 0
11, 88000, Note_on_c, 10, 85, 101
11, 88058, Note_on_c, 10, 85, 0
11, 88192, Note_on_c, 10, 85, 85
11, 88255, Note_on_c, 10, 85, 0
11, 88320, Note_on_c, 10, 83, 89
11, 88378, Note_on_c, 10, 83, 0
11, 88384, Note_on_c, 10, 85, 102
11, 88442, Note_on_c, 10, 85, 0
11, 88576, Note_on_c, 10, 85, 89
11, 88639, Note_on_c, 10, 85, 0
11, 88704, Note_on_c, 10, 85, 95
11, 88767, Note_on_c, 10, 85, 0
11, 88832, Note_on_c, 10, 83, 92
11, 88890, Note_on_c, 10, 83, 0
11, 88896, Note_on_c, 10, 85, 103
11, 88954, Note_on_c, 10, 85, 0
11, 89088, Note_on_c, 10, 85, 89
11, 89151, Note_on_c, 10, 85, 0
11, 89216, Note_on_c, 10, 85, 95
11, 89279, Note_on_c, 10, 85, 0
11, 89408, Note_on_c, 10, 85, 87
11, 89471, Note_on_c, 10, 85, 0
11, 89600, Note_on_c, 10, 85, 88
11, 89663, Note_on_c, 10, 85, 0
11, 89728, Note_on_c, 10, 83, 89
11, 89786, Note_on_c, 10, 83, 0
11, 89792, Note_on_c, 10, 85, 101
11, 89850, Note_on_c, 10, 85, 0
11, 89984, Note_on_c, 10, 85, 85
11, 90047, Note_on_c, 10, 85, 0
11, 90112, Note_on_c, 10, 83, 92
11, 90170, Note_on_c, 10, 83, 0
11, 90176, Note_on_c, 10, 85, 99
11, 90234, Note_on_c, 10, 85, 0
11, 90368, Note_on_c, 10, 85, 91
11, 90431, Note_on_c, 10, 85, 0
11, 90496, Note_on_c, 10, 85, 95
11, 90559, Note_on_c, 10, 85, 0
11, 90624, Note_on_c, 10, 83, 95
11, 90682, Note_on_c, 10, 83, 0
11, 90688, Note_on_c, 10, 85, 103
11, 90746, Note_on_c, 10, 85, 0
11, 90880, Note_on_c, 10, 85, 88
11, 90943, Note_on_c, 10, 85, 0
11, 91008, Note_on_c, 10, 85, 93
11, 91071, Note_on_c, 10, 85, 0
11, 91200, Note_on_c, 10, 85, 86
11, 91263, Note_on_c, 10, 85, 0
11, 91392, Note_on_c, 10, 85, 88
11, 91455, Note_on_c, 10, 85, 0
11, 91520, Note_on_c, 10, 83, 89
11, 91578, Note_on_c, 10, 83, 0
11, 91584, Note_on_c, 10, 85, 102
11, 91642, Note_on_c, 10, 85, 0
11, 91776, Note_on_c, 10, 85, 86
11, 91839, Note_on_c, 10, 85, 0
11, 91904, Note_on_c, 10, 83, 89
11, 91962, Note_on_c, 10, 83, 0
11, 91968, Note_on_c, 10, 85, 102
11, 92026, Note_on_c, 10, 85, 0
11, 92160, Note_on_c, 10, 85, 88
11, 92223, Note_on_c, 10, 85, 0
11, 92288, Note_on_c, 10, 85, 92
11, 92351, Note_on_c, 10, 85, 0
11, 92416, Note_on_c, 10, 83, 94
11, 92474, Note_on_c, 10, 83, 0
11, 92480, Note_on_c, 10, 85, 99
11, 92538, Note_on_c, 10, 85, 0
11, 92672, Note_on_c, 10, 82, 90
11, 92672, Program_c, 10, 80
11, 92672, Note_on_c, 10, 75, 58
11, 92735, Note_on_c, 10, 82, 0
11, 92800, Program_c, 10, 18
11, 92800, Note_on_c, 10, 82, 96
11, 92863, Note_on_c, 10, 82, 0
11, 92903, Note_on_c, 10, 75, 0
11, 92928, Program_c, 10, 80
11, 92928, Note_on_c, 10, 78, 65
11, 92992, Program_c, 10, 18
11, 92992, Note_on_c, 10, 82, 84
11, 93055, Note_on_c, 10, 82, 0
11, 93159, Note_on_c, 10, 78, 0
11, 93184, Note_on_c, 10, 82, 88
11, 93184, Program_c, 10, 80
11, 93184, Note_on_c, 10, 77, 60
11, 93247, Note_on_c, 10, 82, 0
11, 93312, Program_c, 10, 18
11, 93312, Note_on_c, 10, 80, 89
11, 93370, Note_on_c, 10, 80, 0
11, 93376, Note_on_c, 10, 82, 102
11, 93415, Note_on_c, 10, 77, 0
11, 93434, Note_on_c, 10, 82, 0
11, 93440, Program_c, 10, 80
11, 93440, Note_on_c, 10, 80, 67
11, 93568, Program_c, 10, 18
11, 93568, Note_on_c, 10, 82, 84
11, 93631, Note_on_c, 10, 82, 0
11, 93671, Note_on_c, 10, 80, 0
11, 93696, Note_on_c, 10, 80, 91
11, 93696, Program_c, 10, 80
11, 93696, Note_on_c, 10, 78, 59
11, 93754, Note_on_c, 10, 80, 0
11, 93760, Program_c, 10, 18
11, 93760, Note_on_c, 10, 82, 102
11, 93818, Note_on_c, 10, 82, 0
11, 93927, Note_on_c, 10, 78, 0
11, 93952, Note_on_c, 10, 82, 90
11, 93952, Program_c, 10, 80
11, 93952, Note_on_c, 10, 83, 72
11, 94015, Note_on_c, 10, 82, 0
11, 94080, Program_c, 10, 18
11, 94080, Note_on_c, 10, 82, 92
11, 94143, Note_on_c, 10, 82, 0
11, 94183, Note_on_c, 10, 83, 0
11, 94208, Note_on_c, 10, 80, 91
11, 94208, Program_c, 10, 80
11, 94208, Note_on_c, 10, 82, 63
11, 94266, Note_on_c, 10, 80, 0
11, 94272, Program_c, 10, 18
11, 94272, Note_on_c, 10, 82, 101
11, 94330, Note_on_c, 10, 82, 0
11, 94439, Note_on_c, 10, 82, 0
11, 94464, Note_on_c, 10, 82, 90
11, 94464, Program_c, 10, 80
11, 94464, Note_on_c, 10, 89, 78
11, 94527, Note_on_c, 10, 82, 0
11, 94592, Program_c, 10, 18
11, 94592, Note_on_c, 10, 82, 93
11, 94655, Note_on_c, 10, 82, 0
11, 94695, Note_on_c, 10, 89, 0
11, 94720, Program_c, 10, 80
11, 94720, Note_on_c, 10, 87, 62
11, 94784, Program_c, 10, 18
11, 94784, Note_on_c, 10, 82, 87
11, 94847, Note_on_c, 10, 82, 0
11, 94976, Note_on_c, 10, 82, 87
11, 95039, Note_on_c, 10, 82, 0
11, 95104, Note_on_c, 10, 80, 89
11, 95162, Note_on_c, 10, 80, 0
11, 95168, Note_on_c, 10, 82, 102
11, 95226, Note_on_c, 10, 82, 0
11, 95360, Note_on_c, 10, 82, 87
11, 95423, Note_on_c, 10, 82, 0
11, 95488, Note_on_c, 10, 80, 89
11, 95546, Note_on_c, 10, 80, 0
11, 95552, Note_on_c, 10, 82, 102
11, 95610, Note_on_c, 10, 82, 0
11, 95744, Note_on_c, 10, 82, 88
11, 95807, Note_on_c, 10, 82, 0
11, 95872, Note_on_c, 10, 82, 95
11, 95935, Note_on_c, 10, 82, 0
11, 96000, Note_on_c, 10, 80, 93
11, 96058, Note_on_c, 10, 80, 0
11, 96064, Note_on_c, 10, 82, 101
11, 96122, Note_on_c, 10, 82, 0
11, 96206, Note_on_c, 10, 87, 0
11, 96256, Note_on_c, 10, 85, 88
11, 96319, Note_on_c, 10, 85, 0
11, 96384, Note_on_c, 10, 85, 93
11, 96447, Note_on_c, 10, 85, 0
11, 96576, Note_on_c, 10, 85, 87
11, 96639, Note_on_c, 10, 85, 0
11, 96768, Note_on_c, 10, 85, 90
11, 96831, Note_on_c, 10, 85, 0
11, 96896, Note_on_c, 10, 83, 87
11, 96954, Note_on_c, 10, 83, 0
11, 96960, Note_on_c, 10, 85, 102
11, 97018, Note_on_c, 10, 85, 0
11, 97152, Note_on_c, 10, 85, 85
11, 97215, Note_on_c, 10, 85, 0
11, 97280, Note_on_c, 10, 83, 91
11, 97338, Note_on_c, 10, 83, 0
11, 97344, Note_on_c, 10, 85, 100
11, 97402, Note_on_c, 10, 85, 0
11, 97536, Note_on_c, 10, 85, 87
11, 97599, Note_on_c, 10, 85, 0
11, 97664, Note_on_c, 10, 85, 94
11, 97727, Note_on_c, 10, 85, 0
11, 97792, Note_on_c, 10, 83, 93
11, 97850, Note_on_c, 10, 83, 0
11, 97856, Note_on_c, 10, 85, 100
11, 97914, Note_on_c, 10, 85, 0
11, 98048, Note_on_c, 10, 85, 89
11, 98111, Note_on_c, 10, 85, 0
11, 98176, Note_on_c, 10, 85, 95
11, 98239, Note_on_c, 10, 85, 0
11, 98368, Note_on_c, 10, 85, 85
11, 98431, Note_on_c, 10, 85, 0
11, 98560, Note_on_c, 10, 85, 88
11, 98623, Note_on_c, 10, 85, 0
11, 98688, Note_on_c, 10, 83, 89
11, 98746, Note_on_c, 10, 83, 0
11, 98752, Note_on_c, 10, 85, 102
11, 98810, Note_on_c, 10, 85, 0
11, 98944, Note_on_c, 10, 85, 87
11, 99007, Note_on_c, 10, 85, 0
11, 99072, Note_on_c, 10, 83, 91
11, 99130, Note_on_c, 10, 83, 0
11, 99136, Note_on_c, 10, 85, 101
11, 99194, Note_on_c, 10, 85, 0
11, 99328, Note_on_c, 10, 85, 90
11, 99391, Note_on_c, 10, 85, 0
11, 99456, Note_on_c, 10, 85, 93
11, 99519, Note_on_c, 10, 85, 0
11, 99584, Note_on_c, 10, 83, 93
11, 99642, Note_on_c, 10, 83, 0
11, 99648, Note_on_c, 10, 85, 102
11, 99706, Note_on_c, 10, 85, 0
11, 124416, Program_c, 10, 103
11, 124416, Note_on_c, 10, 79, 89
11, 124416, Program_c, 10, 80
11, 124416, Note_on_c, 10, 64, 59
11, 124532, Note_on_c, 10, 64, 0
11, 124544, Note_on_c, 10, 76, 80
11, 124660, Note_on_c, 10, 76, 0
11, 124672, Note_on_c, 10, 76, 67
11, 124788, Note_on_c, 10, 76, 0
11, 124800, Note_on_c, 10, 64, 44
11, 124916, Note_on_c, 10, 64, 0
11, 124928, Note_on_c, 10, 76, 78
11, 125044, Note_on_c, 10, 76, 0
11, 125056, Note_on_c, 10, 64, 47
11, 125114, Note_on_c, 10, 64, 0
11, 125120, Note_on_c, 10, 76, 76
11, 125236, Note_on_c, 10, 76, 0
11, 125248, Note_on_c, 10, 64, 47
11, 125306, Note_on_c, 10, 64, 0
11, 125312, Note_on_c, 10, 76, 76
11, 125370, Note_on_c, 10, 76, 0
11, 125376, Note_on_c, 10, 64, 49
11, 125390, Note_on_c, 10, 79, 0
11, 125434, Note_on_c, 10, 64, 0
11, 125440, Program_c, 10, 103
11, 125440, Note_on_c, 10, 78, 93
11, 125440, Program_c, 10, 80
11, 125440, Note_on_c, 10, 76, 79
11, 125556, Note_on_c, 10, 76, 0
11, 125568, Note_on_c, 10, 64, 46
11, 125684, Note_on_c, 10, 64, 0
11, 125696, Note_on_c, 10, 76, 79
11, 125812, Note_on_c, 10, 76, 0
11, 125824, Note_on_c, 10, 64, 47
11, 125902, Note_on_c, 10, 78, 0
11, 125940, Note_on_c, 10, 64, 0
11, 125952, Program_c, 10, 103
11, 125952, Note_on_c, 10, 83, 109
11, 125952, Program_c, 10, 80
11, 125952, Note_on_c, 10, 76, 82
11, 126068, Note_on_c, 10, 76, 0
11, 126080, Note_on_c, 10, 64, 50
11, 126138, Note_on_c, 10, 64, 0
11, 126144, Note_on_c, 10, 76, 76
11, 126260, Note_on_c, 10, 76, 0
11, 126272, Note_on_c, 10, 76, 65
11, 126330, Note_on_c, 10, 76, 0
11, 126336, Note_on_c, 10, 64, 44
11, 126394, Note_on_c, 10, 64, 0
11, 126400, Note_on_c, 10, 76, 77
11, 126414, Note_on_c, 10, 83, 0
11, 126458, Note_on_c, 10, 76, 0
11, 126464, Program_c, 10, 103
11, 126464, Note_on_c, 10, 78, 89
11, 126464, Program_c, 10, 80
11, 126464, Note_on_c, 10, 64, 50
11, 126580, Note_on_c, 10, 64, 0
11, 126592, Note_on_c, 10, 76, 76
11, 126708, Note_on_c, 10, 76, 0
11, 126720, Note_on_c, 10, 76, 68
11, 126836, Note_on_c, 10, 76, 0
11, 126848, Note_on_c, 10, 64, 43
11, 126964, Note_on_c, 10, 64, 0
11, 126976, Note_on_c, 10, 76, 82
11, 127092, Note_on_c, 10, 76, 0
11, 127104, Note_on_c, 10, 64, 47
11, 127162, Note_on_c, 10, 64, 0
11, 127168, Note_on_c, 10, 76, 78
11, 127284, Note_on_c, 10, 76, 0
11, 127296, Note_on_c, 10, 64, 46
11, 127354, Note_on_c, 10, 64, 0
11, 127360, Note_on_c, 10, 76, 75
11, 127418, Note_on_c, 10, 76, 0
11, 127424, Note_on_c, 10, 64, 46
11, 127438, Note_on_c, 10, 78, 0
11, 127482, Note_on_c, 10, 64, 0
11, 127488, Program_c, 10, 103
11, 127488, Note_on_c, 10, 76, 91
11, 127488, Program_c, 10, 80
11, 127488, Note_on_c, 10, 76, 80
11, 127604, Note_on_c, 10, 76, 0
11, 127616, Note_on_c, 10, 64, 49
11, 127732, Note_on_c, 10, 64, 0
11, 127744, Note_on_c, 10, 76, 79
11, 127860, Note_on_c, 10, 76, 0
11, 127872, Note_on_c, 10, 64, 49
11, 127988, Note_on_c, 10, 64, 0
11, 128000, Note_on_c, 10, 76, 78
11, 128116, Note_on_c, 10, 76, 0
11, 128128, Note_on_c, 10, 64, 47
11, 128186, Note_on_c, 10, 64, 0
11, 128192, Note_on_c, 10, 76, 76
11, 128206, Note_on_c, 10, 76, 0
11, 128256, Program_c, 10, 103
11, 128256, Note_on_c, 10, 79, 105
11, 128308, Note_on_c, 10, 76, 0
11, 128320, Program_c, 10, 80
11, 128320, Note_on_c, 10, 76, 63
11, 128372, Note_on_c, 10, 79, 0
11, 128378, Note_on_c, 10, 76, 0
11, 128384, Program_c, 10, 103
11, 128384, Note_on_c, 10, 81, 101
11, 128384, Program_c, 10, 80
11, 128384, Note_on_c, 10, 64, 47
11, 128442, Note_on_c, 10, 64, 0
11, 128448, Note_on_c, 10, 76, 76
11, 128500, Note_on_c, 10, 81, 0
11, 128506, Note_on_c, 10, 76, 0
11, 128512, Program_c, 10, 103
11, 128512, Note_on_c, 10, 83, 106
11, 128512, Program_c, 10, 80
11, 128512, Note_on_c, 10, 64, 51
11, 128628, Note_on_c, 10, 64, 0
11, 128640, Note_on_c, 10, 76, 78
11, 128756, Note_on_c, 10, 76, 0
11, 128768, Note_on_c, 10, 76, 70
11, 128884, Note_on_c, 10, 76, 0
11, 128896, Note_on_c, 10, 64, 46
11, 129012, Note_on_c, 10, 64, 0
11, 129024, Note_on_c, 10, 76, 79
11, 129140, Note_on_c, 10, 76, 0
11, 129152, Note_on_c, 10, 64, 47
11, 129210, Note_on_c, 10, 64, 0
11, 129216, Note_on_c, 10, 76, 77
11, 129332, Note_on_c, 10, 76, 0
11, 129344, Note_on_c, 10, 64, 47
11, 129402, Note_on_c, 10, 64, 0
11, 129408, Note_on_c, 10, 76, 77
11, 129466, Note_on_c, 10, 76, 0
11, 129472, Note_on_c, 10, 64, 48
11, 129486, Note_on_c, 10, 83, 0
11, 129530, Note_on_c, 10, 64, 0
11, 129536, Program_c, 10, 103
11, 129536, Note_on_c, 10, 81, 94
11, 129536, Program_c, 10, 80
11, 129536, Note_on_c, 10, 76, 80
11, 129652, Note_on_c, 10, 76, 0
11, 129664, Note_on_c, 10, 64, 46
11, 129780, Note_on_c, 10, 64, 0
11, 129792, Note_on_c, 10, 76, 79
11, 129908, Note_on_c, 10, 76, 0
11, 129920, Note_on_c, 10, 64, 47
11, 129998, Note_on_c, 10, 81, 0
11, 130036, Note_on_c, 10, 64, 0
11, 130048, Program_c, 10, 103
11, 130048, Note_on_c, 10, 86, 108
11, 130048, Program_c, 10, 80
11, 130048, Note_on_c, 10, 76, 80
11, 130164, Note_on_c, 10, 76, 0
11, 130176, Note_on_c, 10, 64, 48
11, 130234, Note_on_c, 10, 64, 0
11, 130240, Note_on_c, 10, 76, 79
11, 130356, Note_on_c, 10, 76, 0
11, 130368, Note_on_c, 10, 76, 65
11, 130426, Note_on_c, 10, 76, 0
11, 130432, Note_on_c, 10, 64, 43
11, 130490, Note_on_c, 10, 64, 0
11, 130496, Note_on_c, 10, 76, 78
11, 130510, Note_on_c, 10, 86, 0
11, 130554, Note_on_c, 10, 76, 0
11, 130560, Program_c, 10, 103
11, 130560, Note_on_c, 10, 84, 94
11, 130560, Program_c, 10, 80
11, 130560, Note_on_c, 10, 64, 52
11, 130676, Note_on_c, 10, 64, 0
11, 130688, Note_on_c, 10, 76, 78
11, 130804, Note_on_c, 10, 76, 0
11, 130816, Note_on_c, 10, 76, 69
11, 130932, Note_on_c, 10, 76, 0
11, 130944, Note_on_c, 10, 64, 45
11, 131060, Note_on_c, 10, 64, 0
11, 131072, Note_on_c, 10, 76, 80
11, 131188, Note_on_c, 10, 76, 0
11, 131200, Note_on_c, 10, 64, 47
11, 131258, Note_on_c, 10, 64, 0
11, 131264, Note_on_c, 10, 76, 78
11, 131380, Note_on_c, 10, 76, 0
11, 131392, Note_on_c, 10, 64, 46
11, 131450, Note_on_c, 10, 64, 0
11, 131456, Note_on_c, 10, 76, 78
11, 131514, Note_on_c, 10, 76, 0
11, 131520, Note_on_c, 10, 64, 48
11, 131534, Note_on_c, 10, 84, 0
11, 131578, Note_on_c, 10, 64, 0
11, 131584, Program_c, 10, 103
11, 131584, Note_on_c, 10, 83, 96
11, 131584, Program_c, 10, 80
11, 131584, Note_on_c, 10, 76, 78
11, 131700, Note_on_c, 10, 76, 0
11, 131712, Note_on_c, 10, 64, 49
11, 131828, Note_on_c, 10, 64, 0
11, 131840, Note_on_c, 10, 76, 79
11, 131956, Note_on_c, 10, 76, 0
11, 131968, Note_on_c, 10, 64, 50
11, 132084, Note_on_c, 10, 64, 0
11, 132096, Note_on_c, 10, 76, 78
11, 132212, Note_on_c, 10, 76, 0
11, 132224, Note_on_c, 10, 64, 48
11, 132282, Note_on_c, 10, 64, 0
11, 132288, Note_on_c, 10, 76, 77
11, 132404, Note_on_c, 10, 76, 0
11, 132416, Note_on_c, 10, 76, 63
11, 132474, Note_on_c, 10, 76, 0
11, 132480, Note_on_c, 10, 64, 45
11, 132538, Note_on_c, 10, 64, 0
11, 132544, Note_on_c, 10, 76, 78
11, 132558, Note_on_c, 10, 83, 0
11, 132602, Note_on_c, 10, 76, 0
11, 132608, Program_c, 10, 103
11, 132608, Note_on_c, 10, 79, 88
11, 132608, Program_c, 10, 80
11, 132608, Note_on_c, 10, 64, 51
11, 132724, Note_on_c, 10, 64, 0
11, 132736, Note_on_c, 10, 76, 77
11, 132852, Note_on_c, 10, 76, 0
11, 132864, Note_on_c, 10, 76, 68
11, 132980, Note_on_c, 10, 76, 0
11, 132992, Note_on_c, 10, 64, 43
11, 133108, Note_on_c, 10, 64, 0
11, 133120, Note_on_c, 10, 76, 80
11, 133236, Note_on_c, 10, 76, 0
11, 133248, Note_on_c, 10, 64, 50
11, 133306, Note_on_c, 10, 64, 0
11, 133312, Note_on_c, 10, 76, 77
11, 133428, Note_on_c, 10, 76, 0
11, 133440, Note_on_c, 10, 64, 48
11, 133498, Note_on_c, 10, 64, 0
11, 133504, Note_on_c, 10, 76, 75
11, 133562, Note_on_c, 10, 76, 0
11, 133568, Note_on_c, 10, 64, 47
11, 133582, Note_on_c, 10, 79, 0
11, 133626, Note_on_c, 10, 64, 0
11, 133632, Program_c, 10, 103
11, 133632, Note_on_c, 10, 78, 92
11, 133632, Program_c, 10, 80
11, 133632, Note_on_c, 10, 76, 80
11, 133748, Note_on_c, 10, 76, 0
11, 133760, Note_on_c, 10, 64, 49
11, 133876, Note_on_c, 10, 64, 0
11, 133888, Note_on_c, 10, 76, 79
11, 134004, Note_on_c, 10, 76, 0
11, 134016, Note_on_c, 10, 64, 48
11, 134094, Note_on_c, 10, 78, 0
11, 134132, Note_on_c, 10, 64, 0
11, 134144, Program_c, 10, 103
11, 134144, Note_on_c, 10, 83, 107
11, 134144, Program_c, 10, 80
11, 134144, Note_on_c, 10, 76, 82
11, 134260, Note_on_c, 10, 76, 0
11, 134272, Note_on_c, 10, 64, 47
11, 134330, Note_on_c, 10, 64, 0
11, 134336, Note_on_c, 10, 76, 76
11, 134452, Note_on_c, 10, 76, 0
11, 134464, Note_on_c, 10, 76, 67
11, 134522, Note_on_c, 10, 76, 0
11, 134528, Note_on_c, 10, 64, 45
11, 134586, Note_on_c, 10, 64, 0
11, 134592, Note_on_c, 10, 76, 76
11, 134606, Note_on_c, 10, 83, 0
11, 134650, Note_on_c, 10, 76, 0
11, 134656, Program_c, 10, 103
11, 134656, Note_on_c, 10, 78, 87
11, 134656, Program_c, 10, 80
11, 134656, Note_on_c, 10, 64, 51
11, 134772, Note_on_c, 10, 64, 0
11, 134784, Note_on_c, 10, 76, 75
11, 134900, Note_on_c, 10, 76, 0
11, 134912, Note_on_c, 10, 76, 68
11, 135028, Note_on_c, 10, 76, 0
11, 135040, Note_on_c, 10, 64, 46
11, 135156, Note_on_c, 10, 64, 0
11, 135168, Note_on_c, 10, 76, 80
11, 135284, Note_on_c, 10, 76, 0
11, 135296, Note_on_c, 10, 64, 47
11, 135354, Note_on_c, 10, 64, 0
11, 135360, Note_on_c, 10, 76, 77
11, 135476, Note_on_c, 10, 76, 0
11, 135488, Note_on_c, 10, 64, 50
11, 135546, Note_on_c, 10, 64, 0
11, 135552, Note_on_c, 10, 76, 76
11, 135610, Note_on_c, 10, 76, 0
11, 135616, Note_on_c, 10, 64, 48
11, 135630, Note_on_c, 10, 78, 0
11, 135674, Note_on_c, 10, 64, 0
11, 135680, Program_c, 10, 103
11, 135680, Note_on_c, 10, 76, 93
11, 135680, Program_c, 10, 80
11, 135680, Note_on_c, 10, 76, 80
11, 135796, Note_on_c, 10, 76, 0
11, 135808, Note_on_c, 10, 64, 49
11, 135924, Note_on_c, 10, 64, 0
11, 135936, Note_on_c, 10, 76, 81
11, 136052, Note_on_c, 10, 76, 0
11, 136064, Note_on_c, 10, 64, 49
11, 136180, Note_on_c, 10, 64, 0
11, 136192, Note_on_c, 10, 76, 79
11, 136308, Note_on_c, 10, 76, 0
11, 136320, Note_on_c, 10, 64, 48
11, 136378, Note_on_c, 10, 64, 0
11, 136384, Note_on_c, 10, 76, 75
11, 136398, Note_on_c, 10, 76, 0
11, 136448, Program_c, 10, 103
11, 136448, Note_on_c, 10, 76, 98
11, 136500, Note_on_c, 10, 76, 0
11, 136512, Program_c, 10, 80
11, 136512, Note_on_c, 10, 76, 66
11, 136564, Note_on_c, 10, 76, 0
11, 136570, Note_on_c, 10, 76, 0
11, 136576, Program_c, 10, 103
11, 136576, Note_on_c, 10, 78, 103
11, 136576, Program_c, 10, 80
11, 136576, Note_on_c, 10, 64, 44
11, 136634, Note_on_c, 10, 64, 0
11, 136640, Note_on_c, 10, 76, 79
11, 136692, Note_on_c, 10, 78, 0
11, 136698, Note_on_c, 10, 76, 0
11, 136704, Program_c, 10, 103
11, 136704, Note_on_c, 10, 79, 103
11, 136704, Program_c, 10, 80
11, 136704, Note_on_c, 10, 64, 52
11, 136820, Note_on_c, 10, 64, 0
11, 136832, Note_on_c, 10, 76, 76
11, 136948, Note_on_c, 10, 76, 0
11, 136960, Note_on_c, 10, 76, 66
11, 137076, Note_on_c, 10, 76, 0
11, 137088, Note_on_c, 10, 64, 44
11, 137204, Note_on_c, 10, 64, 0
11, 137216, Note_on_c, 10, 76, 82
11, 137332, Note_on_c, 10, 76, 0
11, 137344, Note_on_c, 10, 64, 47
11, 137402, Note_on_c, 10, 64, 0
11, 137408, Note_on_c, 10, 76, 78
11, 137524, Note_on_c, 10, 76, 0
11, 137536, Note_on_c, 10, 64, 48
11, 137594, Note_on_c, 10, 64, 0
11, 137600, Note_on_c, 10, 76, 75
11, 137658, Note_on_c, 10, 76, 0
11, 137664, Note_on_c, 10, 64, 48
11, 137678, Note_on_c, 10, 79, 0
11, 137722, Note_on_c, 10, 64, 0
11, 137728, Program_c, 10, 103
11, 137728, Note_on_c, 10, 78, 96
11, 137728, Program_c, 10, 80
11, 137728, Note_on_c, 10, 76, 79
11, 137844, Note_on_c, 10, 76, 0
11, 137856, Note_on_c, 10, 64, 50
11, 137972, Note_on_c, 10, 64, 0
11, 137984, Note_on_c, 10, 76, 81
11, 138100, Note_on_c, 10, 76, 0
11, 138112, Note_on_c, 10, 64, 50
11, 138190, Note_on_c, 10, 78, 0
11, 138228, Note_on_c, 10, 64, 0
11, 138240, Program_c, 10, 103
11, 138240, Note_on_c, 10, 83, 108
11, 138240, Program_c, 10, 80
11, 138240, Note_on_c, 10, 76, 79
11, 138356, Note_on_c, 10, 76, 0
11, 138368, Note_on_c, 10, 64, 47
11, 138426, Note_on_c, 10, 64, 0
11, 138432, Note_on_c, 10, 76, 76
11, 138548, Note_on_c, 10, 76, 0
11, 138560, Note_on_c, 10, 76, 66
11, 138618, Note_on_c, 10, 76, 0
11, 138624, Note_on_c, 10, 64, 44
11, 138682, Note_on_c, 10, 64, 0
11, 138688, Note_on_c, 10, 76, 76
11, 138702, Note_on_c, 10, 83, 0
11, 138746, Note_on_c, 10, 76, 0
11, 138752, Program_c, 10, 103
11, 138752, Note_on_c, 10, 76, 86
11, 138752, Program_c, 10, 80
11, 138752, Note_on_c, 10, 60, 50
11, 138752, Note_on_c, 10, 64, 52
11, 139726, Note_on_c, 10, 60, 0
11, 139726, Note_on_c, 10, 64, 0
11, 139776, Note_on_c, 10, 62, 66
11, 139776, Note_on_c, 10, 66, 68
11, 140750, Note_on_c, 10, 76, 0
11, 140750, Note_on_c, 10, 62, 0
11, 140750, Note_on_c, 10, 66, 0
11, 140800, Program_c, 10, 103
11, 140800, Note_on_c, 10, 77, 107
11, 140800, Note_on_c, 10, 80, 110
11, 140800, Program_c, 10, 80
11, 140800, Note_on_c, 10, 77, 82
11, 140800, Note_on_c, 10, 80, 85
11, 141774, Note_on_c, 10, 77, 0
11, 141774, Note_on_c, 10, 80, 0
11, 141774, Note_on_c, 10, 77, 0
11, 141774, Note_on_c, 10, 80, 0
11, 141824, Program_c, 10, 103
11, 141824, Note_on_c, 10, 75, 96
11, 141824, Note_on_c, 10, 79, 97
11, 141824, Program_c, 10, 80
11, 141824, Note_on_c, 10, 75, 67
11, 141824, Note_on_c, 10, 79, 66
11, 142286, Note_on_c, 10, 75, 0
11, 142286, Note_on_c, 10, 79, 0
11, 142286, Note_on_c, 10, 75, 0
11, 142286, Note_on_c, 10, 79, 0
11, 142336, Program_c, 10, 103
11, 142336, Note_on_c, 10, 75, 109
11, 142336, Note_on_c, 10, 84, 107
11, 142336, Program_c, 10, 80
11, 142336, Note_on_c, 10, 75, 70
11, 142336, Note_on_c, 10, 84, 70
11, 142798, Note_on_c, 10, 75, 0
11, 142798, Note_on_c, 10, 84, 0
11, 142798, Note_on_c, 10, 75, 0
11, 142798, Note_on_c, 10, 84, 0
11, 142848, Program_c, 10, 103
11, 142848, Note_on_c, 10, 75, 87
11, 142848, Note_on_c, 10, 79, 89
11, 142848, Program_c, 10, 80
11, 142848, Note_on_c, 10, 75, 58
11, 142848, Note_on_c, 10, 79, 59
11, 143822, Note_on_c, 10, 75, 0
11, 143822, Note_on_c, 10, 79, 0
11, 143822, Note_on_c, 10, 75, 0
11, 143822, Note_on_c, 10, 79, 0
11, 143872, Program_c, 10, 103
11, 143872, Note_on_c, 10, 72, 93
11, 143872, Note_on_c, 10, 77, 92
11, 143872, Program_c, 10, 80
11, 143872, Note_on_c, 10, 72, 61
11, 143872, Note_on_c, 10, 77, 62
11, 144590, Note_on_c, 10, 72, 0
11, 144590, Note_on_c, 10, 77, 0
11, 144590, Note_on_c, 10, 72, 0
11, 144590, Note_on_c, 10, 77, 0
11, 144640, Program_c, 10, 103
11, 144640, Note_on_c, 10, 72, 102
11, 144640, Note_on_c, 10, 80, 104
11, 144640, Program_c, 10, 80
11, 144640, Note_on_c, 10, 72, 68
11, 144640, Note_on_c, 10, 80, 65
11, 144756, Note_on_c, 10, 72, 0
11, 144756, Note_on_c, 10, 80, 0
11, 144756, Note_on_c, 10, 72, 0
11, 144756, Note_on_c, 10, 80, 0
11, 144768, Program_c, 10, 103
11, 144768, Note_on_c, 10, 75, 103
11, 144768, Note_on_c, 10, 82, 103
11, 144768, Program_c, 10, 80
11, 144768, Note_on_c, 10, 75, 68
11, 144768, Note_on_c, 10, 82, 69
11, 144884, Note_on_c, 10, 75, 0
11, 144884, Note_on_c, 10, 82, 0
11, 144884, Note_on_c, 10, 75, 0
11, 144884, Note_on_c, 10, 82, 0
11, 144896, Program_c, 10, 103
11, 144896, Note_on_c, 10, 77, 106
11, 144896, Note_on_c, 10, 84, 105
11, 144896, Program_c, 10, 80
11, 144896, Note_on_c, 10, 77, 69
11, 144896, Note_on_c, 10, 84, 70
11, 145870, Note_on_c, 10, 77, 0
11, 145870, Note_on_c, 10, 84, 0
11, 145870, Note_on_c, 10, 77, 0
11, 145870, Note_on_c, 10, 84, 0
11, 145920, Program_c, 10, 103
11, 145920, Note_on_c, 10, 75, 92
11, 145920, Note_on_c, 10, 82, 92
11, 145920, Program_c, 10, 80
11, 145920, Note_on_c, 10, 75, 61
11, 145920, Note_on_c, 10, 82, 64
11, 146382, Note_on_c, 10, 75, 0
11, 146382, Note_on_c, 10, 82, 0
11, 146382, Note_on_c, 10, 75, 0
11, 146382, Note_on_c, 10, 82, 0
11, 146432, Program_c, 10, 103
11, 146432, Note_on_c, 10, 79, 106
11, 146432, Note_on_c, 10, 87, 109
11, 146432, Program_c, 10, 80
11, 146432, Note_on_c, 10, 79, 69
11, 146432, Note_on_c, 10, 87, 69
11, 146894, Note_on_c, 10, 79, 0
11, 146894, Note_on_c, 10, 87, 0
11, 146894, Note_on_c, 10, 79, 0
11, 146894, Note_on_c, 10, 87, 0
11, 146944, Program_c, 10, 103
11, 146944, Note_on_c, 10, 77, 96
11, 146944, Note_on_c, 10, 85, 96
11, 146944, Program_c, 10, 80
11, 146944, Note_on_c, 10, 77, 63
11, 146944, Note_on_c, 10, 85, 64
11, 147918, Note_on_c, 10, 77, 0
11, 147918, Note_on_c, 10, 85, 0
11, 147918, Note_on_c, 10, 77, 0
11, 147918, Note_on_c, 10, 85, 0
11, 147968, Program_c, 10, 103
11, 147968, Note_on_c, 10, 77, 95
11, 147968, Note_on_c, 10, 84, 94
11, 147968, Program_c, 10, 80
11, 147968, Note_on_c, 10, 77, 64
11, 147968, Note_on_c, 10, 84, 62
11, 148942, Note_on_c, 10, 77, 0
11, 148942, Note_on_c, 10, 84, 0
11, 148942, Note_on_c, 10, 77, 0
11, 148942, Note_on_c, 10, 84, 0
11, 148992, Program_c, 10, 103
11, 148992, Note_on_c, 10, 77, 86
11, 148992, Note_on_c, 10, 80, 89
11, 148992, Program_c, 10, 80
11, 148992, Note_on_c, 10, 77, 56
11, 148992, Note_on_c, 10, 80, 60
11, 149966, Note_on_c, 10, 77, 0
11, 149966, Note_on_c, 10, 80, 0
11, 149966, Note_on_c, 10, 77, 0
11, 149966, Note_on_c, 10, 80, 0
11, 150016, Program_c, 10, 103
11, 150016, Note_on_c, 10, 75, 93
11, 150016, Note_on_c, 10, 79, 94
11, 150016, Program_c, 10, 80
11, 150016, Note_on_c, 10, 75, 64
11, 150016, Note_on_c, 10, 79, 64
11, 150478, Note_on_c, 10, 75, 0
11, 150478, Note_on_c, 10, 79, 0
11, 150478, Note_on_c, 10, 75, 0
11, 150478, Note_on_c, 10, 79, 0
11, 150528, Program_c, 10, 103
11, 150528, Note_on_c, 10, 75, 109
11, 150528, Note_on_c, 10, 84, 107
11, 150528, Program_c, 10, 80
11, 150528, Note_on_c, 10, 75, 69
11, 150528, Note_on_c, 10, 84, 70
11, 150990, Note_on_c, 10, 75, 0
11, 150990, Note_on_c, 10, 84, 0
11, 150990, Note_on_c, 10, 75, 0
11, 150990, Note_on_c, 10, 84, 0
11, 151040, Program_c, 10, 103
11, 151040, Note_on_c, 10, 74, 87
11, 151040, Note_on_c, 10, 79, 89
11, 151040, Program_c, 10, 80
11, 151040, Note_on_c, 10, 74, 57
11, 151040, Note_on_c, 10, 79, 59
11, 152014, Note_on_c, 10, 74, 0
11, 152014, Note_on_c, 10, 79, 0
11, 152014, Note_on_c, 10, 74, 0
11, 152014, Note_on_c, 10, 79, 0
11, 152064, Program_c, 10, 103
11, 152064, Note_on_c, 10, 74, 92
11, 152064, Note_on_c, 10, 77, 92
11, 152064, Program_c, 10, 80
11, 152064, Note_on_c, 10, 74, 59
11, 152064, Note_on_c, 10, 77, 61
11, 152526, Note_on_c, 10, 74, 0
11, 152526, Note_on_c, 10, 77, 0
11, 152526, Note_on_c, 10, 74, 0
11, 152526, Note_on_c, 10, 77, 0
11, 152576, Program_c, 10, 103
11, 152576, Note_on_c, 10, 74, 93
11, 152576, Note_on_c, 10, 77, 95
11, 152576, Program_c, 10, 80
11, 152576, Note_on_c, 10, 74, 61
11, 152576, Note_on_c, 10, 77, 62
11, 152807, Note_on_c, 10, 74, 0
11, 152807, Note_on_c, 10, 77, 0
11, 152807, Note_on_c, 10, 74, 0
11, 152807, Note_on_c, 10, 77, 0
11, 152832, Program_c, 10, 103
11, 152832, Note_on_c, 10, 76, 101
11, 152832, Note_on_c, 10, 79, 104
11, 152832, Program_c, 10, 80
11, 152832, Note_on_c, 10, 76, 64
11, 152832, Note_on_c, 10, 79, 66
11, 153063, Note_on_c, 10, 76, 0
11, 153063, Note_on_c, 10, 79, 0
11, 153063, Note_on_c, 10, 76, 0
11, 153063, Note_on_c, 10, 79, 0
11, 153088, Program_c, 10, 103
11, 153088, Note_on_c, 10, 78, 106
11, 153088, Note_on_c, 10, 81, 105
11, 153088, Program_c, 10, 80
11, 153088, Note_on_c, 10, 78, 69
11, 153088, Note_on_c, 10, 81, 71
11, 154062, Note_on_c, 10, 78, 0
11, 154062, Note_on_c, 10, 81, 0
11, 154062, Note_on_c, 10, 78, 0
11, 154062, Note_on_c, 10, 81, 0
11, 154112, Program_c, 10, 103
11, 154112, Note_on_c, 10, 76, 94
11, 154112, Note_on_c, 10, 80, 94
11, 154112, Program_c, 10, 80
11, 154112, Note_on_c, 10, 76, 65
11, 154112, Note_on_c, 10, 80, 64
11, 154343, Note_on_c, 10, 76, 0
11, 154343, Note_on_c, 10, 80, 0
11, 154343, Note_on_c, 10, 76, 0
11, 154343, Note_on_c, 10, 80, 0
11, 154368, Program_c, 10, 103
11, 154368, Note_on_c, 10, 78, 101
11, 154368, Note_on_c, 10, 82, 102
11, 154368, Program_c, 10, 80
11, 154368, Note_on_c, 10, 78, 65
11, 154368, Note_on_c, 10, 82, 67
11, 154599, Note_on_c, 10, 78, 0
11, 154599, Note_on_c, 10, 82, 0
11, 154599, Note_on_c, 10, 78, 0
11, 154599, Note_on_c, 10, 82, 0
11, 154624, Program_c, 10, 103
11, 154624, Note_on_c, 10, 80, 100
11, 154624, Note_on_c, 10, 84, 100
11, 154624, Program_c, 10, 80
11, 154624, Note_on_c, 10, 80, 69
11, 154624, Note_on_c, 10, 84, 68
11, 154855, Note_on_c, 10, 80, 0
11, 154855, Note_on_c, 10, 84, 0
11, 154855, Note_on_c, 10, 80, 0
11, 154855, Note_on_c, 10, 84, 0
11, 154880, Program_c, 10, 103
11, 154880, Note_on_c, 10, 82, 101
11, 154880, Note_on_c, 10, 85, 101
11, 154880, Program_c, 10, 80
11, 154880, Note_on_c, 10, 82, 67
11, 154880, Note_on_c, 10, 85, 67
11, 155111, Note_on_c, 10, 82, 0
11, 155111, Note_on_c, 10, 85, 0
11, 155111, Note_on_c, 10, 82, 0
11, 155111, Note_on_c, 10, 85, 0
11, 155136, Program_c, 10, 103
11, 155136, Note_on_c, 10, 83, 105
11, 155136, Note_on_c, 10, 87, 106
11, 155136, Program_c, 10, 80
11, 155136, Note_on_c, 10, 83, 68
11, 155136, Note_on_c, 10, 87, 69
11, 156110, Note_on_c, 10, 83, 0
11, 156110, Note_on_c, 10, 87, 0
11, 156110, Note_on_c, 10, 83, 0
11, 156110, Note_on_c, 10, 87, 0
11, 166912, Program_c, 10, 18
11, 166912, Note_on_c, 10, 85, 89
11, 166975, Note_on_c, 10, 85, 0
11, 167040, Note_on_c, 10, 85, 96
11, 167103, Note_on_c, 10, 85, 0
11, 167232, Note_on_c, 10, 85, 88
11, 167295, Note_on_c, 10, 85, 0
11, 167424, Note_on_c, 10, 85, 88
11, 167487, Note_on_c, 10, 85, 0
11, 167552, Note_on_c, 10, 83, 87
11, 167610, Note_on_c, 10, 83, 0
11, 167616, Note_on_c, 10, 85, 102
11, 167674, Note_on_c, 10, 85, 0
11, 167808, Note_on_c, 10, 85, 88
11, 167871, Note_on_c, 10, 85, 0
11, 167936, Note_on_c, 10, 83, 91
11, 167994, Note_on_c, 10, 83, 0
11, 168000, Note_on_c, 10, 85, 100
11, 168058, Note_on_c, 10, 85, 0
11, 168192, Note_on_c, 10, 85, 90
11, 168255, Note_on_c, 10, 85, 0
11, 168320, Note_on_c, 10, 85, 94
11, 168383, Note_on_c, 10, 85, 0
11, 168448, Note_on_c, 10, 83, 95
11, 168506, Note_on_c, 10, 83, 0
11, 168512, Note_on_c, 10, 85, 102
11, 168570, Note_on_c, 10, 85, 0
11, 168704, Note_on_c, 10, 85, 88
11, 168767, Note_on_c, 10, 85, 0
11, 168832, Note_on_c, 10, 85, 93
11, 168895, Note_on_c, 10, 85, 0
11, 169024, Note_on_c, 10, 85, 86
11, 169087, Note_on_c, 10, 85, 0
11, 169216, Note_on_c, 10, 85, 89
11, 169279, Note_on_c, 10, 85, 0
11, 169344, Note_on_c, 10, 83, 90
11, 169402, Note_on_c, 10, 83, 0
11, 169408, Note_on_c, 10, 85, 102
11, 169466, Note_on_c, 10, 85, 0
11, 169600, Note_on_c, 10, 85, 84
11, 169663, Note_on_c, 10, 85, 0
11, 169728, Note_on_c, 10, 83, 93
11, 169786, Note_on_c, 10, 83, 0
11, 169792, Note_on_c, 10, 85, 102
11, 169850, Note_on_c, 10, 85, 0
11, 169984, Note_on_c, 10, 85, 88
11, 170047, Note_on_c, 10, 85, 0
11, 170112, Note_on_c, 10, 85, 94
11, 170175, Note_on_c, 10, 85, 0
11, 170240, Note_on_c, 10, 83, 94
11, 170298, Note_on_c, 10, 83, 0
11, 170304, Note_on_c, 10, 85, 101
11, 170362, Note_on_c, 10, 85, 0
11, 170496, Note_on_c, 10, 85, 89
11, 170559, Note_on_c, 10, 85, 0
11, 170624, Note_on_c, 10, 85, 93
11, 170687, Note_on_c, 10, 85, 0
11, 170816, Note_on_c, 10, 85, 86
11, 170879, Note_on_c, 10, 85, 0
11, 171008, Note_on_c, 10, 85, 87
11, 171071, Note_on_c, 10, 85, 0
11, 171136, Note_on_c, 10, 83, 86
11, 171194, Note_on_c, 10, 83, 0
11, 171200, Note_on_c, 10, 85, 102
11, 171258, Note_on_c, 10, 85, 0
11, 171392, Note_on_c, 10, 85, 85
11, 171455, Note_on_c, 10, 85, 0
11, 171520, Note_on_c, 10, 83, 92
11, 171578, Note_on_c, 10, 83, 0
11, 171584, Note_on_c, 10, 85, 99
11, 171642, Note_on_c, 10, 85, 0
11, 171776, Note_on_c, 10, 85, 89
11, 171839, Note_on_c, 10, 85, 0
11, 171904, Note_on_c, 10, 85, 94
11, 171967, Note_on_c, 10, 85, 0
11, 172032, Note_on_c, 10, 83, 93
11, 172090, Note_on_c, 10, 83, 0
11, 172096, Note_on_c, 10, 85, 100
11, 172154, Note_on_c, 10, 85, 0
11, 172288, Note_on_c, 10, 85, 89
11, 172351, Note_on_c, 10, 85, 0
11, 172416, Note_on_c, 10, 85, 94
11, 172479, Note_on_c, 10, 85, 0
11, 172608, Note_on_c, 10, 85, 85
11, 172671, Note_on_c, 10, 85, 0
11, 172800, Note_on_c, 10, 85, 87
11, 172863, Note_on_c, 10, 85, 0
11, 172928, Note_on_c, 10, 83, 90
11, 172986, Note_on_c, 10, 83, 0
11, 172992, Note_on_c, 10, 85, 100
11, 173050, Note_on_c, 10, 85, 0
11, 173184, Note_on_c, 10, 85, 88
11, 173247, Note_on_c, 10, 85, 0
11, 173312, Note_on_c, 10, 83, 91
11, 173370, Note_on_c, 10, 83, 0
11, 173376, Note_on_c, 10, 85, 102
11, 173434, Note_on_c, 10, 85, 0
11, 173568, Note_on_c, 10, 85, 90
11, 173631, Note_on_c, 10, 85, 0
11, 173696, Note_on_c, 10, 85, 93
11, 173759, Note_on_c, 10, 85, 0
11, 173824, Note_on_c, 10, 83, 94
11, 173882, Note_on_c, 10, 83, 0
11, 173888, Note_on_c, 10, 85, 101
11, 173946, Note_on_c, 10, 85, 0
11, 174080, Note_on_c, 10, 82, 87
11, 174080, Program_c, 10, 80
11, 174080, Note_on_c, 10, 75, 60
11, 174143, Note_on_c, 10, 82, 0
11, 174208, Program_c, 10, 18
11, 174208, Note_on_c, 10, 82, 95
11, 174271, Note_on_c, 10, 82, 0
11, 174311, Note_on_c, 10, 75, 0
11, 174336, Program_c, 10, 80
11, 174336, Note_on_c, 10, 78, 66
11, 174400, Program_c, 10, 18
11, 174400, Note_on_c, 10, 82, 88
11, 174463, Note_on_c, 10, 82, 0
11, 174567, Note_on_c, 10, 78, 0
11, 174592, Note_on_c, 10, 82, 87
11, 174592, Program_c, 10, 80
11, 174592, Note_on_c, 10, 77, 59
11, 174655, Note_on_c, 10, 82, 0
11, 174720, Program_c, 10, 18
11, 174720, Note_on_c, 10, 80, 89
11, 174778, Note_on_c, 10, 80, 0
11, 174784, Note_on_c, 10, 82, 102
11, 174823, Note_on_c, 10, 77, 0
11, 174842, Note_on_c, 10, 82, 0
11, 174848, Program_c, 10, 80
11, 174848, Note_on_c, 10, 80, 68
11, 174976, Program_c, 10, 18
11, 174976, Note_on_c, 10, 82, 85
11, 175039, Note_on_c, 10, 82, 0
11, 175079, Note_on_c, 10, 80, 0
11, 175104, Note_on_c, 10, 80, 92
11, 175104, Program_c, 10, 80
11, 175104, Note_on_c, 10, 78, 58
11, 175162, Note_on_c, 10, 80, 0
11, 175168, Program_c, 10, 18
11, 175168, Note_on_c, 10, 82, 101
11, 175226, Note_on_c, 10, 82, 0
11, 175335, Note_on_c, 10, 78, 0
11, 175360, Note_on_c, 10, 82, 89
11, 175360, Program_c, 10, 80
11, 175360, Note_on_c, 10, 83, 70
11, 175423, Note_on_c, 10, 82, 0
11, 175488, Program_c, 10, 18
11, 175488, Note_on_c, 10, 82, 92
11, 175551, Note_on_c, 10, 82, 0
11, 175591, Note_on_c, 10, 83, 0
11, 175616, Note_on_c, 10, 80, 92
11, 175616, Program_c, 10, 80
11, 175616, Note_on_c, 10, 82, 62
11, 175674, Note_on_c, 10, 80, 0
11, 175680, Program_c, 10, 18
11, 175680, Note_on_c, 10, 82, 100
11, 175738, Note_on_c, 10, 82, 0
11, 175847, Note_on_c, 10, 82, 0
11, 175872, Note_on_c, 10, 82, 88
11, 175872, Program_c, 10, 80
11, 175872, Note_on_c, 10, 89, 79
11, 175935, Note_on_c, 10, 82, 0
11, 176000, Program_c, 10, 18
11, 176000, Note_on_c, 10, 82, 95
11, 176063, Note_on_c, 10, 82, 0
11, 176103, Note_on_c, 10, 89, 0
11, 176128, Program_c, 10, 80
11, 176128, Note_on_c, 10, 87, 61
11, 176192, Program_c, 10, 18
11, 176192, Note_on_c, 10, 82, 88
11, 176255, Note_on_c, 10, 82, 0
11, 176384, Note_on_c, 10, 82, 90
11, 176447, Note_on_c, 10, 82, 0
11, 176512, Note_on_c, 10, 80, 88
11, 176570, Note_on_c, 10, 80, 0
11, 176576, Note_on_c, 10, 82, 101
11, 176634, Note_on_c, 10, 82, 0
11, 176768, Note_on_c, 10, 82, 86
11, 176831, Note_on_c, 10, 82, 0
11, 176896, Note_on_c, 10, 80, 91
11, 176954, Note_on_c, 10, 80, 0
11, 176960, Note_on_c, 10, 82, 103
11, 177018, Note_on_c, 10, 82, 0
11, 177152, Note_on_c, 10, 82, 91
11, 177215, Note_on_c, 10, 82, 0
11, 177280, Note_on_c, 10, 82, 94
11, 177343, Note_on_c, 10, 82, 0
11, 177408, Note_on_c, 10, 80, 95
11, 177466, Note_on_c, 10, 80, 0
11, 177472, Note_on_c, 10, 82, 103
11, 177530, Note_on_c, 10, 82, 0
11, 177614, Note_on_c, 10, 87, 0
11, 177664, Note_on_c, 10, 85, 87
11, 177727, Note_on_c, 10, 85, 0
11, 177792, Note_on_c, 10, 85, 95
11, 177855, Note_on_c, 10, 85, 0
11, 177984, Note_on_c, 10, 85, 88
11, 178047, Note_on_c, 10, 85, 0
11, 178176, Note_on_c, 10, 85, 90
11, 178239, Note_on_c, 10, 85, 0
11, 178304, Note_on_c, 10, 83, 89
11, 178362, Note_on_c, 10, 83, 0
11, 178368, Note_on_c, 10, 85, 103
11, 178426, Note_on_c, 10, 85, 0
11, 178560, Note_on_c, 10, 85, 86
11, 178623, Note_on_c, 10, 85, 0
11, 178688, Note_on_c, 10, 83, 90
11, 178746, Note_on_c, 10, 83, 0
11, 178752, Note_on_c, 10, 85, 101
11, 178810, Note_on_c, 10, 85, 0
11, 178944, Note_on_c, 10, 85, 90
11, 179007, Note_on_c, 10, 85, 0
11, 179072, Note_on_c, 10, 85, 94
11, 179135, Note_on_c, 10, 85, 0
11, 179200, Note_on_c, 10, 83, 94
11, 179258, Note_on_c, 10, 83, 0
11, 179264, Note_on_c, 10, 85, 102
11, 179322, Note_on_c, 10, 85, 0
11, 179456, Note_on_c, 10, 85, 90
11, 179519, Note_on_c, 10, 85, 0
11, 179584, Note_on_c, 10, 85, 92
11, 179647, Note_on_c, 10, 85, 0
11, 179776, Note_on_c, 10, 85, 85
11, 179839, Note_on_c, 10, 85, 0
11, 179968, Note_on_c, 10, 85, 91
11, 180031, Note_on_c, 10, 85, 0
11, 180096, Note_on_c, 10, 83, 89
11, 180154, Note_on_c, 10, 83, 0
11, 180160, Note_on_c, 10, 85, 102
11, 180218, Note_on_c, 10, 85, 0
11, 180352, Note_on_c, 10, 85, 85
11, 180415, Note_on_c, 10, 85, 0
11, 180480, Note_on_c, 10, 83, 89
11, 180538, Note_on_c, 10, 83, 0
11, 180544, Note_on_c, 10, 85, 100
11, 180602, Note_on_c, 10, 85, 0
11, 180736, Note_on_c, 10, 85, 87
11, 180799, Note_on_c, 10, 85, 0
11, 180864, Note_on_c, 10, 85, 92
11, 180927, Note_on_c, 10, 85, 0
11, 180992, Note_on_c, 10, 83, 94
11, 181050, Note_on_c, 10, 83, 0
11, 181056, Note_on_c, 10, 85, 102
11, 181114, Note_on_c, 10, 85, 0
11, 181115, End_track
12, 0, Start_track
12, 0, Title_t, "Strings"
12, 0, Control_c, 3, 91, 54
12, 0, Control_c, 3, 10, 53
12, 4096, Control_c, 3, 0, 0
12, 4096, Control_c, 3, 32, 0
12, 4096, Program_c, 3, 48
12, 4096, Note_on_c, 3, 38, 69
12, 5070, Note_on_c, 3, 38, 0
12, 5120, Note_on_c, 3, 38, 79
12, 6094, Note_on_c, 3, 38, 0
12, 6144, Note_on_c, 3, 42, 86
12, 7118, Note_on_c, 3, 42, 0
12, 7168, Note_on_c, 3, 40, 77
12, 8142, Note_on_c, 3, 40, 0
12, 8192, Note_on_c, 3, 48, 91
12, 9166, Note_on_c, 3, 48, 0
12, 9216, Note_on_c, 3, 38, 64
12, 10190, Note_on_c, 3, 38, 0
12, 11264, Note_on_c, 3, 42, 72
12, 12238, Note_on_c, 3, 42, 0
12, 30720, Note_on_c, 3, 67, 72
12, 30951, Note_on_c, 3, 67, 0
12, 30976, Note_on_c, 3, 70, 82
12, 31207, Note_on_c, 3, 70, 0
12, 31232, Note_on_c, 3, 69, 71
12, 31463, Note_on_c, 3, 69, 0
12, 31488, Note_on_c, 3, 72, 80
12, 31719, Note_on_c, 3, 72, 0
12, 31744, Note_on_c, 3, 70, 75
12, 31975, Note_on_c, 3, 70, 0
12, 32000, Note_on_c, 3, 75, 86
12, 32231, Note_on_c, 3, 75, 0
12, 32256, Note_on_c, 3, 74, 73
12, 32487, Note_on_c, 3, 74, 0
12, 32512, Note_on_c, 3, 81, 90
12, 32743, Note_on_c, 3, 81, 0
12, 32768, Note_on_c, 3, 79, 76
12, 33486, Note_on_c, 3, 79, 0
12, 33536, Note_on_c, 3, 78, 74
12, 33652, Note_on_c, 3, 78, 0
12, 33664, Note_on_c, 3, 79, 77
12, 33722, Note_on_c, 3, 79, 0
12, 33728, Note_on_c, 3, 78, 72
12, 33786, Note_on_c, 3, 78, 0
12, 33792, Note_on_c, 3, 76, 73
12, 34766, Note_on_c, 3, 76, 0
12, 40960, Note_on_c, 3, 64, 72
12, 41076, Note_on_c, 3, 64, 0
12, 41088, Note_on_c, 3, 67, 81
12, 41204, Note_on_c, 3, 67, 0
12, 41216, Note_on_c, 3, 66, 76
12, 41332, Note_on_c, 3, 66, 0
12, 41344, Note_on_c, 3, 69, 83
12, 41402, Note_on_c, 3, 69, 0
12, 41408, Note_on_c, 3, 67, 73
12, 41471, Note_on_c, 3, 67, 0
12, 41536, Note_on_c, 3, 67, 73
12, 41594, Note_on_c, 3, 67, 0
12, 41600, Note_on_c, 3, 72, 85
12, 41716, Note_on_c, 3, 72, 0
12, 41728, Note_on_c, 3, 71, 79
12, 41844, Note_on_c, 3, 71, 0
12, 41856, Note_on_c, 3, 69, 70
12, 41972, Note_on_c, 3, 69, 0
12, 41984, Note_on_c, 3, 71, 81
12, 42100, Note_on_c, 3, 71, 0
12, 42112, Note_on_c, 3, 76, 84
12, 42228, Note_on_c, 3, 76, 0
12, 42240, Note_on_c, 3, 75, 78
12, 42356, Note_on_c, 3, 75, 0
12, 42368, Note_on_c, 3, 78, 83
12, 42426, Note_on_c, 3, 78, 0
12, 42432, Note_on_c, 3, 76, 74
12, 42495, Note_on_c, 3, 76, 0
12, 42560, Note_on_c, 3, 76, 76
12, 42618, Note_on_c, 3, 76, 0
12, 42624, Note_on_c, 3, 81, 88
12, 42740, Note_on_c, 3, 81, 0
12, 42752, Note_on_c, 3, 79, 75
12, 42868, Note_on_c, 3, 79, 0
12, 42880, Note_on_c, 3, 78, 73
12, 42996, Note_on_c, 3, 78, 0
12, 43008, Note_on_c, 3, 64, 63
12, 43008, Note_on_c, 3, 67, 66
12, 43008, Note_on_c, 3, 71, 63
12, 43982, Note_on_c, 3, 64, 0
12, 43982, Note_on_c, 3, 67, 0
12, 43982, Note_on_c, 3, 71, 0
12, 44032, Note_on_c, 3, 62, 71
12, 44032, Note_on_c, 3, 66, 71
12, 44032, Note_on_c, 3, 69, 71
12, 45006, Note_on_c, 3, 62, 0
12, 45006, Note_on_c, 3, 66, 0
12, 45006, Note_on_c, 3, 69, 0
12, 45056, Note_on_c, 3, 62, 76
12, 45056, Note_on_c, 3, 66, 77
12, 45056, Note_on_c, 3, 69, 78
12, 46030, Note_on_c, 3, 62, 0
12, 46030, Note_on_c, 3, 66, 0
12, 46030, Note_on_c, 3, 69, 0
12, 46080, Note_on_c, 3, 60, 74
12, 46080, Note_on_c, 3, 64, 76
12, 46080, Note_on_c, 3, 67, 76
12, 47054, Note_on_c, 3, 60, 0
12, 47054, Note_on_c, 3, 64, 0
12, 47054, Note_on_c, 3, 67, 0
12, 47104, Note_on_c, 3, 64, 87
12, 47104, Note_on_c, 3, 67, 88
12, 47104, Note_on_c, 3, 71, 87
12, 48078, Note_on_c, 3, 64, 0
12, 48078, Note_on_c, 3, 67, 0
12, 48078, Note_on_c, 3, 71, 0
12, 48128, Note_on_c, 3, 62, 76
12, 48128, Note_on_c, 3, 66, 77
12, 48128, Note_on_c, 3, 69, 75
12, 49102, Note_on_c, 3, 62, 0
12, 49102, Note_on_c, 3, 66, 0
12, 49102, Note_on_c, 3, 69, 0
12, 49152, Note_on_c, 3, 62, 79
12, 49152, Note_on_c, 3, 66, 77
12, 49152, Note_on_c, 3, 69, 77
12, 50126, Note_on_c, 3, 62, 0
12, 50126, Note_on_c, 3, 66, 0
12, 50126, Note_on_c, 3, 69, 0
12, 50176, Note_on_c, 3, 64, 82
12, 50176, Note_on_c, 3, 67, 82
12, 50176, Note_on_c, 3, 71, 83
12, 51150, Note_on_c, 3, 64, 0
12, 51150, Note_on_c, 3, 67, 0
12, 51150, Note_on_c, 3, 71, 0
12, 51200, Note_on_c, 3, 59, 56
12, 52174, Note_on_c, 3, 59, 0
12, 52224, Note_on_c, 3, 57, 69
12, 53198, Note_on_c, 3, 57, 0
12, 53248, Note_on_c, 3, 57, 78
12, 54222, Note_on_c, 3, 57, 0
12, 54272, Note_on_c, 3, 55, 74
12, 55246, Note_on_c, 3, 55, 0
12, 55296, Note_on_c, 3, 59, 85
12, 56270, Note_on_c, 3, 59, 0
12, 56320, Note_on_c, 3, 57, 76
12, 57294, Note_on_c, 3, 57, 0
12, 57344, Note_on_c, 3, 55, 74
12, 58318, Note_on_c, 3, 55, 0
12, 58368, Note_on_c, 3, 57, 83
12, 59342, Note_on_c, 3, 57, 0
12, 89088, Note_on_c, 3, 66, 70
12, 89319, Note_on_c, 3, 66, 0
12, 89344, Note_on_c, 3, 69, 80
12, 89575, Note_on_c, 3, 69, 0
12, 89600, Note_on_c, 3, 68, 72
12, 89831, Note_on_c, 3, 68, 0
12, 89856, Note_on_c, 3, 71, 83
12, 90087, Note_on_c, 3, 71, 0
12, 90112, Note_on_c, 3, 69, 71
12, 90343, Note_on_c, 3, 69, 0
12, 90368, Note_on_c, 3, 74, 85
12, 90599, Note_on_c, 3, 74, 0
12, 90624, Note_on_c, 3, 73, 73
12, 90855, Note_on_c, 3, 73, 0
12, 90880, Note_on_c, 3, 80, 93
12, 91111, Note_on_c, 3, 80, 0
12, 91136, Note_on_c, 3, 78, 74
12, 92622, Note_on_c, 3, 78, 0
12, 92672, Note_on_c, 3, 63, 56
12, 92903, Note_on_c, 3, 63, 0
12, 92928, Note_on_c, 3, 66, 78
12, 93159, Note_on_c, 3, 66, 0
12, 93184, Note_on_c, 3, 65, 74
12, 93415, Note_on_c, 3, 65, 0
12, 93440, Note_on_c, 3, 68, 82
12, 93671, Note_on_c, 3, 68, 0
12, 93696, Note_on_c, 3, 66, 72
12, 93927, Note_on_c, 3, 66, 0
12, 93952, Note_on_c, 3, 71, 85
12, 94183, Note_on_c, 3, 71, 0
12, 94208, Note_on_c, 3, 70, 73
12, 94439, Note_on_c, 3, 70, 0
12, 94464, Note_on_c, 3, 77, 93
12, 94695, Note_on_c, 3, 77, 0
12, 94720, Note_on_c, 3, 75, 73
12, 96206, Note_on_c, 3, 75, 0
12, 96256, Note_on_c, 3, 66, 61
12, 96487, Note_on_c, 3, 66, 0
12, 96512, Note_on_c, 3, 69, 81
12, 96743, Note_on_c, 3, 69, 0
12, 96768, Note_on_c, 3, 68, 71
12, 96999, Note_on_c, 3, 68, 0
12, 97024, Note_on_c, 3, 71, 81
12, 97255, Note_on_c, 3, 71, 0
12, 97280, Note_on_c, 3, 69, 71
12, 97511, Note_on_c, 3, 69, 0
12, 97536, Note_on_c, 3, 74, 86
12, 97767, Note_on_c, 3, 74, 0
12, 97792, Note_on_c, 3, 73, 73
12, 98023, Note_on_c, 3, 73, 0
12, 98048, Note_on_c, 3, 80, 94
12, 98279, Note_on_c, 3, 80, 0
12, 98304, Note_on_c, 3, 78, 72
12, 99790, Note_on_c, 3, 78, 0
12, 99840, Note_on_c, 3, 68, 89
12, 100071, Note_on_c, 3, 68, 0
12, 100096, Note_on_c, 3, 71, 117
12, 100327, Note_on_c, 3, 71, 0
12, 100352, Note_on_c, 3, 70, 107
12, 100583, Note_on_c, 3, 70, 0
12, 100608, Note_on_c, 3, 73, 118
12, 100839, Note_on_c, 3, 73, 0
12, 100864, Note_on_c, 3, 71, 107
12, 101095, Note_on_c, 3, 71, 0
12, 101120, Note_on_c, 3, 76, 126
12, 101351, Note_on_c, 3, 76, 0
12, 101376, Note_on_c, 3, 75, 108
12, 101607, Note_on_c, 3, 75, 0
12, 101632, Note_on_c, 3, 82, 126
12, 101863, Note_on_c, 3, 82, 0
12, 101888, Note_on_c, 3, 80, 112
12, 103886, Note_on_c, 3, 80, 0
12, 112128, Note_on_c, 3, 67, 101
12, 112359, Note_on_c, 3, 67, 0
12, 112384, Note_on_c, 3, 70, 119
12, 112615, Note_on_c, 3, 70, 0
12, 112640, Note_on_c, 3, 69, 105
12, 112871, Note_on_c, 3, 69, 0
12, 112896, Note_on_c, 3, 72, 122
12, 113127, Note_on_c, 3, 72, 0
12, 113152, Note_on_c, 3, 70, 108
12, 113383, Note_on_c, 3, 70, 0
12, 113408, Note_on_c, 3, 75, 126
12, 113639, Note_on_c, 3, 75, 0
12, 113664, Note_on_c, 3, 74, 106
12, 113895, Note_on_c, 3, 74, 0
12, 113920, Note_on_c, 3, 81, 127
12, 114151, Note_on_c, 3, 81, 0
12, 114176, Note_on_c, 3, 79, 108
12, 114894, Note_on_c, 3, 79, 0
12, 114944, Note_on_c, 3, 78, 110
12, 115060, Note_on_c, 3, 78, 0
12, 115072, Note_on_c, 3, 79, 116
12, 115130, Note_on_c, 3, 79, 0
12, 115136, Note_on_c, 3, 78, 104
12, 115194, Note_on_c, 3, 78, 0
12, 115200, Note_on_c, 3, 76, 106
12, 116174, Note_on_c, 3, 76, 0
12, 122368, Note_on_c, 3, 64, 59
12, 122484, Note_on_c, 3, 64, 0
12, 122496, Note_on_c, 3, 67, 68
12, 122612, Note_on_c, 3, 67, 0
12, 122624, Note_on_c, 3, 66, 65
12, 122740, Note_on_c, 3, 66, 0
12, 122752, Note_on_c, 3, 69, 68
12, 122810, Note_on_c, 3, 69, 0
12, 122816, Note_on_c, 3, 67, 58
12, 122879, Note_on_c, 3, 67, 0
12, 122944, Note_on_c, 3, 67, 64
12, 123002, Note_on_c, 3, 67, 0
12, 123008, Note_on_c, 3, 72, 70
12, 123124, Note_on_c, 3, 72, 0
12, 123136, Note_on_c, 3, 71, 66
12, 123252, Note_on_c, 3, 71, 0
12, 123264, Note_on_c, 3, 69, 58
12, 123380, Note_on_c, 3, 69, 0
12, 123392, Note_on_c, 3, 71, 67
12, 123508, Note_on_c, 3, 71, 0
12, 123520, Note_on_c, 3, 76, 69
12, 123636, Note_on_c, 3, 76, 0
12, 123648, Note_on_c, 3, 75, 63
12, 123764, Note_on_c, 3, 75, 0
12, 123776, Note_on_c, 3, 78, 68
12, 123834, Note_on_c, 3, 78, 0
12, 123840, Note_on_c, 3, 76, 60
12, 123903, Note_on_c, 3, 76, 0
12, 123968, Note_on_c, 3, 76, 63
12, 124026, Note_on_c, 3, 76, 0
12, 124032, Note_on_c, 3, 81, 70
12, 124148, Note_on_c, 3, 81, 0
12, 124160, Note_on_c, 3, 79, 61
12, 124276, Note_on_c, 3, 79, 0
12, 124288, Note_on_c, 3, 78, 61
12, 124404, Note_on_c, 3, 78, 0
12, 124416, Note_on_c, 3, 64, 52
12, 124416, Note_on_c, 3, 67, 54
12, 124416, Note_on_c, 3, 71, 53
12, 125390, Note_on_c, 3, 64, 0
12, 125390, Note_on_c, 3, 67, 0
12, 125390, Note_on_c, 3, 71, 0
12, 125440, Note_on_c, 3, 62, 61
12, 125440, Note_on_c, 3, 66, 59
12, 125440, Note_on_c, 3, 69, 59
12, 126414, Note_on_c, 3, 62, 0
12, 126414, Note_on_c, 3, 66, 0
12, 126414, Note_on_c, 3, 69, 0
12, 126464, Note_on_c, 3, 62, 63
12, 126464, Note_on_c, 3, 66, 66
12, 126464, Note_on_c, 3, 69, 64
12, 127438, Note_on_c, 3, 62, 0
12, 127438, Note_on_c, 3, 66, 0
12, 127438, Note_on_c, 3, 69, 0
12, 127488, Note_on_c, 3, 60, 64
12, 127488, Note_on_c, 3, 64, 63
12, 127488, Note_on_c, 3, 67, 63
12, 128462, Note_on_c, 3, 60, 0
12, 128462, Note_on_c, 3, 64, 0
12, 128462, Note_on_c, 3, 67, 0
12, 128512, Note_on_c, 3, 64, 72
12, 128512, Note_on_c, 3, 67, 72
12, 128512, Note_on_c, 3, 71, 73
12, 129486, Note_on_c, 3, 64, 0
12, 129486, Note_on_c, 3, 67, 0
12, 129486, Note_on_c, 3, 71, 0
12, 129536, Note_on_c, 3, 62, 64
12, 129536, Note_on_c, 3, 66, 62
12, 129536, Note_on_c, 3, 69, 65
12, 130510, Note_on_c, 3, 62, 0
12, 130510, Note_on_c, 3, 66, 0
12, 130510, Note_on_c, 3, 69, 0
12, 130560, Note_on_c, 3, 62, 65
12, 130560, Note_on_c, 3, 66, 65
12, 130560, Note_on_c, 3, 69, 65
12, 131534, Note_on_c, 3, 62, 0
12, 131534, Note_on_c, 3, 66, 0
12, 131534, Note_on_c, 3, 69, 0
12, 131584, Note_on_c, 3, 64, 71
12, 131584, Note_on_c, 3, 67, 69
12, 131584, Note_on_c, 3, 71, 69
12, 132558, Note_on_c, 3, 64, 0
12, 132558, Note_on_c, 3, 67, 0
12, 132558, Note_on_c, 3, 71, 0
12, 132608, Note_on_c, 3, 59, 50
12, 133582, Note_on_c, 3, 59, 0
12, 133632, Note_on_c, 3, 57, 60
12, 134606, Note_on_c, 3, 57, 0
12, 134656, Note_on_c, 3, 57, 65
12, 135630, Note_on_c, 3, 57, 0
12, 135680, Note_on_c, 3, 55, 60
12, 136654, Note_on_c, 3, 55, 0
12, 136704, Note_on_c, 3, 59, 73
12, 137678, Note_on_c, 3, 59, 0
12, 137728, Note_on_c, 3, 57, 61
12, 138702, Note_on_c, 3, 57, 0
12, 138752, Note_on_c, 3, 55, 62
12, 139726, Note_on_c, 3, 55, 0
12, 139776, Note_on_c, 3, 57, 67
12, 140750, Note_on_c, 3, 57, 0
12, 170496, Note_on_c, 3, 66, 57
12, 170727, Note_on_c, 3, 66, 0
12, 170752, Note_on_c, 3, 69, 65
12, 170983, Note_on_c, 3, 69, 0
12, 171008, Note_on_c, 3, 68, 58
12, 171239, Note_on_c, 3, 68, 0
12, 171264, Note_on_c, 3, 71, 69
12, 171495, Note_on_c, 3, 71, 0
12, 171520, Note_on_c, 3, 69, 60
12, 171751, Note_on_c, 3, 69, 0
12, 171776, Note_on_c, 3, 74, 71
12, 172007, Note_on_c, 3, 74, 0
12, 172032, Note_on_c, 3, 73, 61
12, 172263, Note_on_c, 3, 73, 0
12, 172288, Note_on_c, 3, 80, 75
12, 172519, Note_on_c, 3, 80, 0
12, 172544, Note_on_c, 3, 78, 61
12, 174030, Note_on_c, 3, 78, 0
12, 174080, Note_on_c, 3, 63, 47
12, 174311, Note_on_c, 3, 63, 0
12, 174336, Note_on_c, 3, 66, 67
12, 174567, Note_on_c, 3, 66, 0
12, 174592, Note_on_c, 3, 65, 59
12, 174823, Note_on_c, 3, 65, 0
12, 174848, Note_on_c, 3, 68, 69
12, 175079, Note_on_c, 3, 68, 0
12, 175104, Note_on_c, 3, 66, 59
12, 175335, Note_on_c, 3, 66, 0
12, 175360, Note_on_c, 3, 71, 71
12, 175591, Note_on_c, 3, 71, 0
12, 175616, Note_on_c, 3, 70, 62
12, 175847, Note_on_c, 3, 70, 0
12, 175872, Note_on_c, 3, 77, 76
12, 176103, Note_on_c, 3, 77, 0
12, 176128, Note_on_c, 3, 75, 63
12, 177614, Note_on_c, 3, 75, 0
12, 177664, Note_on_c, 3, 66, 53
12, 177895, Note_on_c, 3, 66, 0
12, 177920, Note_on_c, 3, 69, 67
12, 178151, Note_on_c, 3, 69, 0
12, 178176, Note_on_c, 3, 68, 59
12, 178407, Note_on_c, 3, 68, 0
12, 178432, Note_on_c, 3, 71, 67
12, 178663, Note_on_c, 3, 71, 0
12, 178688, Note_on_c, 3, 69, 60
12, 178919, Note_on_c, 3, 69, 0
12, 178944, Note_on_c, 3, 74, 69
12, 179175, Note_on_c, 3, 74, 0
12, 179200, Note_on_c, 3, 73, 59
12, 179431, Note_on_c, 3, 73, 0
12, 179456, Note_on_c, 3, 80, 76
12, 179687, Note_on_c, 3, 80, 0
12, 179712, Note_on_c, 3, 78, 60
12, 181198, Note_on_c, 3, 78, 0
12, 181248, Note_on_c, 3, 68, 88
12, 181479, Note_on_c, 3, 68, 0
12, 181504, Note_on_c, 3, 71, 118
12, 181735, Note_on_c, 3, 71, 0
12, 181760, Note_on_c, 3, 70, 106
12, 181991, Note_on_c, 3, 70, 0
12, 182016, Note_on_c, 3, 73, 120
12, 182247, Note_on_c, 3, 73, 0
12, 182272, Note_on_c, 3, 71, 106
12, 182503, Note_on_c, 3, 71, 0
12, 182528, Note_on_c, 3, 76, 126
12, 182759, Note_on_c, 3, 76, 0
12, 182784, Note_on_c, 3, 75, 110
12, 183015, Note_on_c, 3, 75, 0
12, 183040, Note_on_c, 3, 82, 125
12, 183271, Note_on_c, 3, 82, 0
12, 183296, Note_on_c, 3, 80, 111
12, 185294, Note_on_c, 3, 80, 0
12, 185295, End_track
0, 0, End_of_file
