0, 0, Header, 1, 17, 120
1, 0, Start_track
1, 0, Title_t, "FINAL FANYASY 10 \227\222\202Ì\221O\202Ì\220Ã\202¯\202³"
1, 0, Text_t, "\012"
1, 0, System_exclusive, 10, 65, 16, 66, 18, 0, 0, 127, 0, 1, 247
1, 0, System_exclusive, 10, 65, 16, 66, 18, 64, 1, 51, 95, 45, 247
1, 0, System_exclusive, 10, 65, 16, 66, 18, 64, 1, 52, 90, 49, 247
1, 0, System_exclusive, 10, 65, 16, 66, 18, 64, 1, 56, 4, 3, 247
1, 0, System_exclusive, 10, 65, 16, 66, 18, 64, 1, 58, 80, 53, 247
1, 0, System_exclusive, 10, 65, 16, 66, 18, 64, 2, 1, 66, 123, 247
1, 0, System_exclusive, 10, 65, 16, 66, 18, 64, 2, 3, 66, 121, 247
1, 0, Time_signature, 3, 2, 24, 8
1, 0, Key_signature, 0, "major"
1, 0, Tempo, 705882
1, 0, End_track
2, 0, Start_track
2, 0, Title_t, "A1-Steel-str.Gt"
2, 0, Control_c, 0, 0, 0
2, 0, Control_c, 0, 32, 3
2, 0, Program_c, 0, 25
2, 0, Control_c, 0, 7, 100
2, 0, Control_c, 0, 10, 32
2, 60, Text_t, "Start of Setup by GSAE"
2, 71, Control_c, 0, 91, 70
2, 72, Control_c, 0, 93, 0
2, 200, Text_t, "End of Setup by GSAE"
2, 1080, Note_on_c, 0, 70, 90
2, 1140, Note_on_c, 0, 65, 90
2, 1200, Note_on_c, 0, 61, 90
2, 1260, Note_on_c, 0, 65, 0
2, 1260, Note_on_c, 0, 65, 90
2, 1320, Note_on_c, 0, 70, 0
2, 1320, Note_on_c, 0, 70, 90
2, 1380, Note_on_c, 0, 65, 0
2, 1380, Note_on_c, 0, 65, 90
2, 1440, Note_on_c, 0, 70, 0
2, 1440, Note_on_c, 0, 70, 90
2, 1500, Note_on_c, 0, 65, 0
2, 1500, Note_on_c, 0, 65, 90
2, 1560, Note_on_c, 0, 61, 0
2, 1560, Note_on_c, 0, 61, 90
2, 1620, Note_on_c, 0, 65, 0
2, 1620, Note_on_c, 0, 65, 90
2, 1680, Note_on_c, 0, 70, 0
2, 1680, Note_on_c, 0, 70, 90
2, 1740, Note_on_c, 0, 65, 0
2, 1740, Note_on_c, 0, 65, 90
2, 1800, Note_on_c, 0, 70, 0
2, 1800, Note_on_c, 0, 70, 90
2, 1860, Note_on_c, 0, 65, 0
2, 1860, Note_on_c, 0, 65, 90
2, 1920, Note_on_c, 0, 61, 0
2, 1920, Note_on_c, 0, 63, 90
2, 1980, Note_on_c, 0, 65, 0
2, 1980, Note_on_c, 0, 65, 90
2, 2040, Note_on_c, 0, 70, 0
2, 2040, Note_on_c, 0, 70, 90
2, 2100, Note_on_c, 0, 65, 0
2, 2100, Note_on_c, 0, 65, 90
2, 2160, Note_on_c, 0, 70, 0
2, 2160, Note_on_c, 0, 70, 90
2, 2220, Note_on_c, 0, 65, 0
2, 2220, Note_on_c, 0, 65, 90
2, 2280, Note_on_c, 0, 63, 0
2, 2280, Note_on_c, 0, 63, 90
2, 2340, Note_on_c, 0, 65, 0
2, 2340, Note_on_c, 0, 65, 90
2, 2400, Note_on_c, 0, 70, 0
2, 2400, Note_on_c, 0, 70, 90
2, 2460, Note_on_c, 0, 65, 0
2, 2460, Note_on_c, 0, 65, 90
2, 2520, Note_on_c, 0, 70, 0
2, 2520, Note_on_c, 0, 70, 90
2, 2580, Note_on_c, 0, 65, 0
2, 2580, Note_on_c, 0, 65, 90
2, 2640, Note_on_c, 0, 63, 0
2, 2640, Note_on_c, 0, 61, 90
2, 2700, Note_on_c, 0, 65, 0
2, 2700, Note_on_c, 0, 65, 90
2, 2760, Note_on_c, 0, 70, 0
2, 2760, Note_on_c, 0, 70, 90
2, 2820, Note_on_c, 0, 65, 0
2, 2820, Note_on_c, 0, 65, 90
2, 2880, Note_on_c, 0, 70, 0
2, 2880, Note_on_c, 0, 70, 90
2, 2940, Note_on_c, 0, 65, 0
2, 2940, Note_on_c, 0, 65, 90
2, 3000, Note_on_c, 0, 61, 0
2, 3000, Note_on_c, 0, 61, 90
2, 3060, Note_on_c, 0, 65, 0
2, 3060, Note_on_c, 0, 65, 90
2, 3120, Note_on_c, 0, 70, 0
2, 3120, Note_on_c, 0, 70, 90
2, 3180, Note_on_c, 0, 65, 0
2, 3180, Note_on_c, 0, 65, 90
2, 3240, Note_on_c, 0, 70, 0
2, 3240, Note_on_c, 0, 70, 90
2, 3300, Note_on_c, 0, 65, 0
2, 3300, Note_on_c, 0, 65, 90
2, 3360, Note_on_c, 0, 61, 0
2, 3360, Note_on_c, 0, 63, 90
2, 3420, Note_on_c, 0, 65, 0
2, 3420, Note_on_c, 0, 65, 90
2, 3480, Note_on_c, 0, 70, 0
2, 3480, Note_on_c, 0, 70, 90
2, 3540, Note_on_c, 0, 65, 0
2, 3540, Note_on_c, 0, 65, 90
2, 3600, Note_on_c, 0, 70, 0
2, 3600, Note_on_c, 0, 70, 90
2, 3660, Note_on_c, 0, 65, 0
2, 3660, Note_on_c, 0, 65, 90
2, 3720, Note_on_c, 0, 63, 0
2, 3720, Note_on_c, 0, 63, 90
2, 3780, Note_on_c, 0, 65, 0
2, 3780, Note_on_c, 0, 65, 90
2, 3840, Note_on_c, 0, 70, 0
2, 3840, Note_on_c, 0, 70, 90
2, 3900, Note_on_c, 0, 65, 0
2, 3900, Note_on_c, 0, 65, 90
2, 3960, Note_on_c, 0, 70, 0
2, 3960, Note_on_c, 0, 70, 90
2, 4020, Note_on_c, 0, 65, 0
2, 4020, Note_on_c, 0, 65, 90
2, 4080, Note_on_c, 0, 63, 0
2, 4080, Note_on_c, 0, 61, 90
2, 4140, Note_on_c, 0, 65, 0
2, 4140, Note_on_c, 0, 65, 90
2, 4200, Note_on_c, 0, 70, 0
2, 4200, Note_on_c, 0, 70, 90
2, 4260, Note_on_c, 0, 65, 0
2, 4260, Note_on_c, 0, 65, 90
2, 4320, Note_on_c, 0, 70, 0
2, 4320, Note_on_c, 0, 70, 90
2, 4380, Note_on_c, 0, 65, 0
2, 4380, Note_on_c, 0, 65, 90
2, 4440, Note_on_c, 0, 61, 0
2, 4440, Note_on_c, 0, 61, 90
2, 4500, Note_on_c, 0, 65, 0
2, 4500, Note_on_c, 0, 65, 90
2, 4560, Note_on_c, 0, 70, 0
2, 4560, Note_on_c, 0, 70, 90
2, 4620, Note_on_c, 0, 65, 0
2, 4620, Note_on_c, 0, 65, 90
2, 4680, Note_on_c, 0, 70, 0
2, 4680, Note_on_c, 0, 70, 90
2, 4740, Note_on_c, 0, 65, 0
2, 4740, Note_on_c, 0, 65, 90
2, 4800, Note_on_c, 0, 61, 0
2, 4800, Note_on_c, 0, 63, 90
2, 4860, Note_on_c, 0, 65, 0
2, 4860, Note_on_c, 0, 65, 90
2, 4920, Note_on_c, 0, 70, 0
2, 4920, Note_on_c, 0, 70, 90
2, 4980, Note_on_c, 0, 65, 0
2, 4980, Note_on_c, 0, 65, 90
2, 5040, Note_on_c, 0, 70, 0
2, 5040, Note_on_c, 0, 70, 90
2, 5100, Note_on_c, 0, 65, 0
2, 5100, Note_on_c, 0, 65, 90
2, 5160, Note_on_c, 0, 63, 0
2, 5160, Note_on_c, 0, 63, 90
2, 5220, Note_on_c, 0, 65, 0
2, 5220, Note_on_c, 0, 65, 90
2, 5280, Note_on_c, 0, 70, 0
2, 5280, Note_on_c, 0, 70, 90
2, 5340, Note_on_c, 0, 65, 0
2, 5340, Note_on_c, 0, 65, 90
2, 5400, Note_on_c, 0, 70, 0
2, 5400, Note_on_c, 0, 70, 90
2, 5460, Note_on_c, 0, 65, 0
2, 5460, Note_on_c, 0, 65, 90
2, 5520, Note_on_c, 0, 63, 0
2, 5520, Note_on_c, 0, 61, 90
2, 5580, Note_on_c, 0, 65, 0
2, 5580, Note_on_c, 0, 65, 90
2, 5640, Note_on_c, 0, 70, 0
2, 5640, Note_on_c, 0, 70, 90
2, 5700, Note_on_c, 0, 65, 0
2, 5700, Note_on_c, 0, 65, 90
2, 5760, Note_on_c, 0, 70, 0
2, 5760, Note_on_c, 0, 70, 90
2, 5820, Note_on_c, 0, 65, 0
2, 5820, Note_on_c, 0, 65, 90
2, 5880, Note_on_c, 0, 61, 0
2, 5880, Note_on_c, 0, 61, 90
2, 5940, Note_on_c, 0, 65, 0
2, 5940, Note_on_c, 0, 65, 90
2, 6000, Note_on_c, 0, 70, 0
2, 6000, Note_on_c, 0, 70, 90
2, 6060, Note_on_c, 0, 65, 0
2, 6060, Note_on_c, 0, 65, 90
2, 6120, Note_on_c, 0, 70, 0
2, 6120, Note_on_c, 0, 70, 90
2, 6180, Note_on_c, 0, 65, 0
2, 6180, Note_on_c, 0, 65, 90
2, 6240, Note_on_c, 0, 61, 0
2, 6240, Note_on_c, 0, 63, 90
2, 6300, Note_on_c, 0, 65, 0
2, 6300, Note_on_c, 0, 65, 90
2, 6360, Note_on_c, 0, 70, 0
2, 6360, Note_on_c, 0, 70, 90
2, 6420, Note_on_c, 0, 65, 0
2, 6420, Note_on_c, 0, 65, 90
2, 6480, Note_on_c, 0, 70, 0
2, 6480, Note_on_c, 0, 70, 90
2, 6540, Note_on_c, 0, 65, 0
2, 6540, Note_on_c, 0, 65, 90
2, 6600, Note_on_c, 0, 63, 0
2, 6600, Note_on_c, 0, 63, 90
2, 6660, Note_on_c, 0, 65, 0
2, 6660, Note_on_c, 0, 65, 90
2, 6720, Note_on_c, 0, 70, 0
2, 6720, Note_on_c, 0, 70, 90
2, 6780, Note_on_c, 0, 65, 0
2, 6780, Note_on_c, 0, 65, 90
2, 6840, Note_on_c, 0, 70, 0
2, 6840, Note_on_c, 0, 67, 90
2, 6900, Note_on_c, 0, 65, 0
2, 6900, Note_on_c, 0, 63, 0
2, 6900, Note_on_c, 0, 63, 90
2, 6960, Note_on_c, 0, 60, 90
2, 7020, Note_on_c, 0, 63, 0
2, 7020, Note_on_c, 0, 63, 90
2, 7080, Note_on_c, 0, 60, 0
2, 7080, Note_on_c, 0, 67, 0
2, 7080, Note_on_c, 0, 67, 90
2, 7140, Note_on_c, 0, 63, 0
2, 7140, Note_on_c, 0, 63, 90
2, 7200, Note_on_c, 0, 67, 0
2, 7200, Note_on_c, 0, 67, 90
2, 7260, Note_on_c, 0, 63, 0
2, 7260, Note_on_c, 0, 63, 90
2, 7320, Note_on_c, 0, 60, 90
2, 7380, Note_on_c, 0, 63, 0
2, 7380, Note_on_c, 0, 63, 90
2, 7440, Note_on_c, 0, 60, 0
2, 7440, Note_on_c, 0, 67, 0
2, 7440, Note_on_c, 0, 67, 90
2, 7500, Note_on_c, 0, 63, 0
2, 7500, Note_on_c, 0, 63, 90
2, 7560, Note_on_c, 0, 67, 0
2, 7560, Note_on_c, 0, 68, 90
2, 7620, Note_on_c, 0, 63, 0
2, 7620, Note_on_c, 0, 65, 90
2, 7680, Note_on_c, 0, 61, 90
2, 7740, Note_on_c, 0, 65, 0
2, 7740, Note_on_c, 0, 65, 90
2, 7800, Note_on_c, 0, 61, 0
2, 7800, Note_on_c, 0, 68, 0
2, 7800, Note_on_c, 0, 68, 90
2, 7860, Note_on_c, 0, 65, 0
2, 7860, Note_on_c, 0, 65, 90
2, 7920, Note_on_c, 0, 68, 0
2, 7920, Note_on_c, 0, 68, 90
2, 7980, Note_on_c, 0, 65, 0
2, 7980, Note_on_c, 0, 65, 90
2, 8040, Note_on_c, 0, 61, 90
2, 8100, Note_on_c, 0, 65, 0
2, 8100, Note_on_c, 0, 65, 90
2, 8160, Note_on_c, 0, 61, 0
2, 8160, Note_on_c, 0, 68, 0
2, 8160, Note_on_c, 0, 68, 90
2, 8220, Note_on_c, 0, 65, 0
2, 8220, Note_on_c, 0, 65, 90
2, 8280, Note_on_c, 0, 68, 0
2, 8280, Note_on_c, 0, 69, 90
2, 8340, Note_on_c, 0, 65, 0
2, 8340, Note_on_c, 0, 64, 90
2, 8400, Note_on_c, 0, 60, 90
2, 8460, Note_on_c, 0, 64, 0
2, 8460, Note_on_c, 0, 64, 90
2, 8520, Note_on_c, 0, 60, 0
2, 8520, Note_on_c, 0, 69, 0
2, 8520, Note_on_c, 0, 69, 90
2, 8580, Note_on_c, 0, 64, 0
2, 8580, Note_on_c, 0, 64, 90
2, 8640, Note_on_c, 0, 69, 0
2, 8640, Note_on_c, 0, 69, 90
2, 8700, Note_on_c, 0, 64, 0
2, 8700, Note_on_c, 0, 64, 90
2, 8760, Note_on_c, 0, 60, 90
2, 8820, Note_on_c, 0, 64, 0
2, 8820, Note_on_c, 0, 64, 90
2, 8880, Note_on_c, 0, 60, 0
2, 8880, Note_on_c, 0, 69, 0
2, 8880, Note_on_c, 0, 69, 90
2, 8940, Note_on_c, 0, 64, 0
2, 8940, Note_on_c, 0, 64, 90
2, 9000, Note_on_c, 0, 69, 0
2, 9000, Note_on_c, 0, 67, 90
2, 9060, Note_on_c, 0, 64, 0
2, 9060, Note_on_c, 0, 62, 90
2, 9120, Note_on_c, 0, 58, 90
2, 9180, Note_on_c, 0, 62, 0
2, 9180, Note_on_c, 0, 62, 90
2, 9240, Note_on_c, 0, 58, 0
2, 9240, Note_on_c, 0, 67, 0
2, 9240, Note_on_c, 0, 67, 90
2, 9300, Note_on_c, 0, 62, 0
2, 9300, Note_on_c, 0, 62, 90
2, 9360, Note_on_c, 0, 67, 0
2, 9360, Note_on_c, 0, 67, 90
2, 9420, Note_on_c, 0, 62, 0
2, 9420, Note_on_c, 0, 62, 90
2, 9480, Note_on_c, 0, 58, 90
2, 9540, Note_on_c, 0, 62, 0
2, 9540, Note_on_c, 0, 62, 90
2, 9600, Note_on_c, 0, 58, 0
2, 9600, Note_on_c, 0, 67, 0
2, 9600, Note_on_c, 0, 67, 90
2, 9660, Note_on_c, 0, 62, 0
2, 9660, Note_on_c, 0, 62, 90
2, 9720, Note_on_c, 0, 67, 0
2, 9720, Note_on_c, 0, 70, 90
2, 9780, Note_on_c, 0, 62, 0
2, 9780, Note_on_c, 0, 65, 90
2, 9840, Note_on_c, 0, 61, 90
2, 9900, Note_on_c, 0, 65, 0
2, 9900, Note_on_c, 0, 65, 90
2, 9960, Note_on_c, 0, 70, 0
2, 9960, Note_on_c, 0, 70, 90
2, 10020, Note_on_c, 0, 65, 0
2, 10020, Note_on_c, 0, 65, 90
2, 10080, Note_on_c, 0, 70, 0
2, 10080, Note_on_c, 0, 70, 90
2, 10140, Note_on_c, 0, 65, 0
2, 10140, Note_on_c, 0, 65, 90
2, 10200, Note_on_c, 0, 61, 0
2, 10200, Note_on_c, 0, 61, 90
2, 10260, Note_on_c, 0, 65, 0
2, 10260, Note_on_c, 0, 65, 90
2, 10320, Note_on_c, 0, 70, 0
2, 10320, Note_on_c, 0, 70, 90
2, 10380, Note_on_c, 0, 65, 0
2, 10380, Note_on_c, 0, 65, 90
2, 10440, Note_on_c, 0, 70, 0
2, 10440, Note_on_c, 0, 70, 90
2, 10500, Note_on_c, 0, 65, 0
2, 10500, Note_on_c, 0, 65, 90
2, 10560, Note_on_c, 0, 61, 0
2, 10560, Note_on_c, 0, 63, 90
2, 10620, Note_on_c, 0, 65, 0
2, 10620, Note_on_c, 0, 65, 90
2, 10680, Note_on_c, 0, 70, 0
2, 10680, Note_on_c, 0, 70, 90
2, 10740, Note_on_c, 0, 65, 0
2, 10740, Note_on_c, 0, 65, 90
2, 10800, Note_on_c, 0, 70, 0
2, 10800, Note_on_c, 0, 70, 90
2, 10860, Note_on_c, 0, 65, 0
2, 10860, Note_on_c, 0, 65, 90
2, 10920, Note_on_c, 0, 63, 0
2, 10920, Note_on_c, 0, 63, 90
2, 10980, Note_on_c, 0, 65, 0
2, 10980, Note_on_c, 0, 65, 90
2, 11040, Note_on_c, 0, 70, 0
2, 11040, Note_on_c, 0, 70, 90
2, 11100, Note_on_c, 0, 65, 0
2, 11100, Note_on_c, 0, 65, 90
2, 11160, Note_on_c, 0, 70, 0
2, 11160, Note_on_c, 0, 70, 90
2, 11220, Note_on_c, 0, 65, 0
2, 11220, Note_on_c, 0, 65, 90
2, 11280, Note_on_c, 0, 63, 0
2, 11280, Note_on_c, 0, 61, 90
2, 11340, Note_on_c, 0, 65, 0
2, 11340, Note_on_c, 0, 65, 90
2, 11400, Note_on_c, 0, 70, 0
2, 11400, Note_on_c, 0, 70, 90
2, 11460, Note_on_c, 0, 65, 0
2, 11460, Note_on_c, 0, 65, 90
2, 11520, Note_on_c, 0, 70, 0
2, 11520, Note_on_c, 0, 70, 90
2, 11580, Note_on_c, 0, 65, 0
2, 11580, Note_on_c, 0, 65, 90
2, 11640, Note_on_c, 0, 61, 0
2, 11640, Note_on_c, 0, 61, 90
2, 11700, Note_on_c, 0, 65, 0
2, 11700, Note_on_c, 0, 65, 90
2, 11760, Note_on_c, 0, 70, 0
2, 11760, Note_on_c, 0, 70, 90
2, 11820, Note_on_c, 0, 65, 0
2, 11820, Note_on_c, 0, 65, 90
2, 11880, Note_on_c, 0, 70, 0
2, 11880, Note_on_c, 0, 70, 90
2, 11940, Note_on_c, 0, 65, 0
2, 11940, Note_on_c, 0, 65, 90
2, 12000, Note_on_c, 0, 61, 0
2, 12000, Note_on_c, 0, 63, 90
2, 12060, Note_on_c, 0, 65, 0
2, 12060, Note_on_c, 0, 65, 90
2, 12120, Note_on_c, 0, 70, 0
2, 12120, Note_on_c, 0, 70, 90
2, 12180, Note_on_c, 0, 65, 0
2, 12180, Note_on_c, 0, 65, 90
2, 12240, Note_on_c, 0, 70, 0
2, 12240, Note_on_c, 0, 70, 90
2, 12300, Note_on_c, 0, 65, 0
2, 12300, Note_on_c, 0, 65, 90
2, 12360, Note_on_c, 0, 63, 0
2, 12360, Note_on_c, 0, 63, 90
2, 12420, Note_on_c, 0, 65, 0
2, 12420, Note_on_c, 0, 65, 90
2, 12480, Note_on_c, 0, 70, 0
2, 12480, Note_on_c, 0, 70, 90
2, 12540, Note_on_c, 0, 65, 0
2, 12540, Note_on_c, 0, 65, 90
2, 12600, Note_on_c, 0, 70, 0
2, 12600, Note_on_c, 0, 70, 90
2, 12660, Note_on_c, 0, 65, 0
2, 12660, Note_on_c, 0, 65, 90
2, 12720, Note_on_c, 0, 63, 0
2, 12720, Note_on_c, 0, 61, 90
2, 12780, Note_on_c, 0, 65, 0
2, 12780, Note_on_c, 0, 65, 90
2, 12840, Note_on_c, 0, 70, 0
2, 12840, Note_on_c, 0, 70, 90
2, 12900, Note_on_c, 0, 65, 0
2, 12900, Note_on_c, 0, 65, 90
2, 12960, Note_on_c, 0, 70, 0
2, 12960, Note_on_c, 0, 70, 90
2, 13020, Note_on_c, 0, 65, 0
2, 13020, Note_on_c, 0, 65, 90
2, 13080, Note_on_c, 0, 61, 0
2, 13080, Note_on_c, 0, 61, 90
2, 13140, Note_on_c, 0, 65, 0
2, 13140, Note_on_c, 0, 65, 90
2, 13200, Note_on_c, 0, 70, 0
2, 13200, Note_on_c, 0, 70, 90
2, 13260, Note_on_c, 0, 65, 0
2, 13260, Note_on_c, 0, 65, 90
2, 13320, Note_on_c, 0, 70, 0
2, 13320, Note_on_c, 0, 70, 90
2, 13380, Note_on_c, 0, 65, 0
2, 13380, Note_on_c, 0, 65, 90
2, 13440, Note_on_c, 0, 61, 0
2, 13440, Note_on_c, 0, 63, 90
2, 13500, Note_on_c, 0, 65, 0
2, 13500, Note_on_c, 0, 65, 90
2, 13560, Note_on_c, 0, 70, 0
2, 13560, Note_on_c, 0, 70, 90
2, 13620, Note_on_c, 0, 65, 0
2, 13620, Note_on_c, 0, 65, 90
2, 13680, Note_on_c, 0, 70, 0
2, 13680, Note_on_c, 0, 70, 90
2, 13740, Note_on_c, 0, 65, 0
2, 13740, Note_on_c, 0, 65, 90
2, 13800, Note_on_c, 0, 63, 0
2, 13800, Note_on_c, 0, 63, 90
2, 13860, Note_on_c, 0, 65, 0
2, 13860, Note_on_c, 0, 65, 90
2, 13920, Note_on_c, 0, 70, 0
2, 13920, Note_on_c, 0, 70, 90
2, 13980, Note_on_c, 0, 65, 0
2, 13980, Note_on_c, 0, 65, 90
2, 14040, Note_on_c, 0, 70, 0
2, 14040, Note_on_c, 0, 70, 90
2, 14100, Note_on_c, 0, 65, 0
2, 14100, Note_on_c, 0, 66, 90
2, 14160, Note_on_c, 0, 63, 0
2, 14160, Note_on_c, 0, 61, 90
2, 14220, Note_on_c, 0, 66, 0
2, 14220, Note_on_c, 0, 66, 90
2, 14280, Note_on_c, 0, 70, 0
2, 14280, Note_on_c, 0, 70, 90
2, 14340, Note_on_c, 0, 66, 0
2, 14340, Note_on_c, 0, 66, 90
2, 14400, Note_on_c, 0, 70, 0
2, 14400, Note_on_c, 0, 68, 90
2, 14460, Note_on_c, 0, 66, 0
2, 14460, Note_on_c, 0, 65, 90
2, 14520, Note_on_c, 0, 61, 0
2, 14520, Note_on_c, 0, 60, 90
2, 14580, Note_on_c, 0, 65, 0
2, 14580, Note_on_c, 0, 65, 90
2, 14640, Note_on_c, 0, 68, 0
2, 14640, Note_on_c, 0, 68, 90
2, 14700, Note_on_c, 0, 65, 0
2, 14700, Note_on_c, 0, 65, 90
2, 14760, Note_on_c, 0, 68, 0
2, 14760, Note_on_c, 0, 70, 90
2, 14820, Note_on_c, 0, 65, 0
2, 14820, Note_on_c, 0, 65, 90
2, 14880, Note_on_c, 0, 60, 0
2, 14880, Note_on_c, 0, 62, 90
2, 14940, Note_on_c, 0, 65, 0
2, 14940, Note_on_c, 0, 65, 90
2, 15000, Note_on_c, 0, 70, 0
2, 15000, Note_on_c, 0, 70, 90
2, 15060, Note_on_c, 0, 65, 0
2, 15060, Note_on_c, 0, 65, 90
2, 15120, Note_on_c, 0, 70, 0
2, 15120, Note_on_c, 0, 70, 90
2, 15180, Note_on_c, 0, 65, 0
2, 15180, Note_on_c, 0, 65, 90
2, 15240, Note_on_c, 0, 62, 0
2, 15240, Note_on_c, 0, 62, 90
2, 15300, Note_on_c, 0, 65, 0
2, 15300, Note_on_c, 0, 65, 90
2, 15360, Note_on_c, 0, 70, 0
2, 15360, Note_on_c, 0, 70, 90
2, 15420, Note_on_c, 0, 65, 0
2, 15420, Note_on_c, 0, 65, 90
2, 15480, Note_on_c, 0, 70, 0
2, 15480, Note_on_c, 0, 70, 90
2, 15540, Note_on_c, 0, 65, 0
2, 15540, Note_on_c, 0, 65, 90
2, 15600, Note_on_c, 0, 62, 0
2, 15600, Note_on_c, 0, 62, 90
2, 15660, Note_on_c, 0, 65, 0
2, 15660, Note_on_c, 0, 65, 90
2, 15720, Note_on_c, 0, 70, 0
2, 15720, Note_on_c, 0, 70, 90
2, 15780, Note_on_c, 0, 65, 0
2, 15780, Note_on_c, 0, 65, 90
2, 15840, Note_on_c, 0, 70, 0
2, 15840, Note_on_c, 0, 70, 90
2, 15900, Note_on_c, 0, 65, 0
2, 15900, Note_on_c, 0, 65, 90
2, 15960, Note_on_c, 0, 62, 0
2, 15960, Note_on_c, 0, 62, 90
2, 16020, Note_on_c, 0, 65, 0
2, 16020, Note_on_c, 0, 65, 90
2, 16080, Note_on_c, 0, 70, 0
2, 16080, Note_on_c, 0, 70, 90
2, 16140, Note_on_c, 0, 65, 0
2, 16140, Note_on_c, 0, 65, 90
2, 16200, Note_on_c, 0, 70, 0
2, 16200, Note_on_c, 0, 70, 90
2, 16260, Note_on_c, 0, 65, 0
2, 16260, Note_on_c, 0, 65, 90
2, 16320, Note_on_c, 0, 62, 0
2, 16320, Note_on_c, 0, 62, 90
2, 16380, Note_on_c, 0, 65, 0
2, 16380, Note_on_c, 0, 65, 90
2, 16440, Note_on_c, 0, 70, 0
2, 16440, Note_on_c, 0, 70, 90
2, 16500, Note_on_c, 0, 65, 0
2, 16500, Note_on_c, 0, 65, 90
2, 16560, Note_on_c, 0, 70, 0
2, 16560, Note_on_c, 0, 70, 90
2, 16620, Note_on_c, 0, 65, 0
2, 16620, Note_on_c, 0, 65, 90
2, 16680, Note_on_c, 0, 62, 0
2, 16680, Note_on_c, 0, 62, 90
2, 16740, Note_on_c, 0, 65, 0
2, 16740, Note_on_c, 0, 65, 90
2, 16800, Note_on_c, 0, 70, 0
2, 16800, Note_on_c, 0, 70, 90
2, 16860, Note_on_c, 0, 65, 0
2, 16860, Note_on_c, 0, 65, 90
2, 16920, Note_on_c, 0, 70, 0
2, 16920, Note_on_c, 0, 68, 90
2, 16980, Note_on_c, 0, 65, 0
2, 16980, Note_on_c, 0, 65, 90
2, 17040, Note_on_c, 0, 62, 0
2, 17040, Note_on_c, 0, 60, 90
2, 17100, Note_on_c, 0, 65, 0
2, 17100, Note_on_c, 0, 65, 90
2, 17160, Note_on_c, 0, 68, 0
2, 17160, Note_on_c, 0, 68, 90
2, 17220, Note_on_c, 0, 65, 0
2, 17220, Note_on_c, 0, 65, 90
2, 17280, Note_on_c, 0, 68, 0
2, 17280, Note_on_c, 0, 68, 90
2, 17340, Note_on_c, 0, 65, 0
2, 17340, Note_on_c, 0, 65, 90
2, 17400, Note_on_c, 0, 60, 0
2, 17400, Note_on_c, 0, 60, 90
2, 17460, Note_on_c, 0, 65, 0
2, 17460, Note_on_c, 0, 65, 90
2, 17520, Note_on_c, 0, 68, 0
2, 17520, Note_on_c, 0, 68, 90
2, 17580, Note_on_c, 0, 65, 0
2, 17580, Note_on_c, 0, 65, 90
2, 17640, Note_on_c, 0, 68, 0
2, 17640, Note_on_c, 0, 70, 90
2, 17700, Note_on_c, 0, 65, 0
2, 17700, Note_on_c, 0, 65, 90
2, 17760, Note_on_c, 0, 60, 0
2, 17760, Note_on_c, 0, 62, 90
2, 17820, Note_on_c, 0, 65, 0
2, 17820, Note_on_c, 0, 65, 90
2, 17880, Note_on_c, 0, 70, 0
2, 17880, Note_on_c, 0, 70, 90
2, 17940, Note_on_c, 0, 65, 0
2, 17940, Note_on_c, 0, 65, 90
2, 18000, Note_on_c, 0, 70, 0
2, 18000, Note_on_c, 0, 70, 90
2, 18060, Note_on_c, 0, 65, 0
2, 18060, Note_on_c, 0, 65, 90
2, 18120, Note_on_c, 0, 62, 0
2, 18120, Note_on_c, 0, 62, 90
2, 18180, Note_on_c, 0, 65, 0
2, 18180, Note_on_c, 0, 65, 90
2, 18240, Note_on_c, 0, 70, 0
2, 18240, Note_on_c, 0, 70, 90
2, 18300, Note_on_c, 0, 65, 0
2, 18300, Note_on_c, 0, 65, 90
2, 18360, Note_on_c, 0, 70, 0
2, 18360, Note_on_c, 0, 68, 90
2, 18420, Note_on_c, 0, 65, 0
2, 18420, Note_on_c, 0, 65, 90
2, 18480, Note_on_c, 0, 62, 0
2, 18480, Note_on_c, 0, 60, 90
2, 18540, Note_on_c, 0, 65, 0
2, 18540, Note_on_c, 0, 65, 90
2, 18600, Note_on_c, 0, 68, 0
2, 18600, Note_on_c, 0, 68, 90
2, 18660, Note_on_c, 0, 65, 0
2, 18660, Note_on_c, 0, 65, 90
2, 18720, Note_on_c, 0, 68, 0
2, 18720, Note_on_c, 0, 68, 90
2, 18780, Note_on_c, 0, 65, 0
2, 18780, Note_on_c, 0, 65, 90
2, 18840, Note_on_c, 0, 60, 0
2, 18840, Note_on_c, 0, 60, 90
2, 18900, Note_on_c, 0, 65, 0
2, 18900, Note_on_c, 0, 65, 90
2, 18960, Note_on_c, 0, 68, 0
2, 18960, Note_on_c, 0, 68, 90
2, 19020, Note_on_c, 0, 65, 0
2, 19020, Note_on_c, 0, 65, 90
2, 19080, Note_on_c, 0, 68, 0
2, 19080, Note_on_c, 0, 70, 90
2, 19140, Note_on_c, 0, 65, 0
2, 19140, Note_on_c, 0, 65, 90
2, 19200, Note_on_c, 0, 60, 0
2, 19200, Note_on_c, 0, 62, 90
2, 19260, Note_on_c, 0, 65, 0
2, 19260, Note_on_c, 0, 65, 90
2, 19320, Note_on_c, 0, 70, 0
2, 19320, Note_on_c, 0, 70, 90
2, 19380, Note_on_c, 0, 65, 0
2, 19380, Note_on_c, 0, 65, 90
2, 19440, Note_on_c, 0, 70, 0
2, 19440, Note_on_c, 0, 70, 90
2, 19500, Note_on_c, 0, 65, 0
2, 19500, Note_on_c, 0, 65, 90
2, 19560, Note_on_c, 0, 62, 0
2, 19560, Note_on_c, 0, 62, 90
2, 19620, Note_on_c, 0, 65, 0
2, 19620, Note_on_c, 0, 65, 90
2, 19680, Note_on_c, 0, 70, 0
2, 19680, Note_on_c, 0, 70, 90
2, 19740, Note_on_c, 0, 65, 0
2, 19740, Note_on_c, 0, 65, 90
2, 19800, Note_on_c, 0, 70, 0
2, 19800, Note_on_c, 0, 68, 90
2, 19860, Note_on_c, 0, 65, 0
2, 19860, Note_on_c, 0, 65, 90
2, 19920, Note_on_c, 0, 62, 0
2, 19920, Note_on_c, 0, 60, 90
2, 19980, Note_on_c, 0, 65, 0
2, 19980, Note_on_c, 0, 65, 90
2, 20040, Note_on_c, 0, 68, 0
2, 20040, Note_on_c, 0, 68, 90
2, 20100, Note_on_c, 0, 65, 0
2, 20100, Note_on_c, 0, 65, 90
2, 20160, Note_on_c, 0, 68, 0
2, 20160, Note_on_c, 0, 68, 90
2, 20220, Note_on_c, 0, 65, 0
2, 20220, Note_on_c, 0, 65, 90
2, 20280, Note_on_c, 0, 60, 0
2, 20280, Note_on_c, 0, 60, 90
2, 20340, Note_on_c, 0, 65, 0
2, 20340, Note_on_c, 0, 65, 90
2, 20400, Note_on_c, 0, 68, 0
2, 20400, Note_on_c, 0, 68, 90
2, 20460, Note_on_c, 0, 65, 0
2, 20460, Note_on_c, 0, 65, 90
2, 20520, Note_on_c, 0, 68, 0
2, 20520, Note_on_c, 0, 68, 90
2, 20580, Note_on_c, 0, 65, 0
2, 20580, Note_on_c, 0, 65, 90
2, 20640, Note_on_c, 0, 60, 0
2, 20640, Note_on_c, 0, 61, 90
2, 20700, Note_on_c, 0, 65, 0
2, 20700, Note_on_c, 0, 65, 90
2, 20760, Note_on_c, 0, 68, 0
2, 20760, Note_on_c, 0, 68, 90
2, 20820, Note_on_c, 0, 65, 0
2, 20820, Note_on_c, 0, 65, 90
2, 20880, Note_on_c, 0, 68, 0
2, 20880, Note_on_c, 0, 68, 90
2, 20940, Note_on_c, 0, 65, 0
2, 20940, Note_on_c, 0, 65, 90
2, 21000, Note_on_c, 0, 61, 0
2, 21000, Note_on_c, 0, 61, 90
2, 21060, Note_on_c, 0, 65, 0
2, 21060, Note_on_c, 0, 65, 90
2, 21120, Note_on_c, 0, 68, 0
2, 21120, Note_on_c, 0, 68, 90
2, 21180, Note_on_c, 0, 65, 0
2, 21180, Note_on_c, 0, 65, 90
2, 21240, Note_on_c, 0, 68, 0
2, 21240, Note_on_c, 0, 70, 90
2, 21300, Note_on_c, 0, 65, 0
2, 21300, Note_on_c, 0, 66, 90
2, 21360, Note_on_c, 0, 61, 0
2, 21360, Note_on_c, 0, 61, 90
2, 21420, Note_on_c, 0, 66, 0
2, 21420, Note_on_c, 0, 66, 90
2, 21480, Note_on_c, 0, 70, 0
2, 21480, Note_on_c, 0, 70, 90
2, 21540, Note_on_c, 0, 66, 0
2, 21540, Note_on_c, 0, 66, 90
2, 21600, Note_on_c, 0, 70, 0
2, 21600, Note_on_c, 0, 70, 90
2, 21660, Note_on_c, 0, 66, 0
2, 21660, Note_on_c, 0, 66, 90
2, 21720, Note_on_c, 0, 61, 0
2, 21720, Note_on_c, 0, 61, 90
2, 21780, Note_on_c, 0, 66, 0
2, 21780, Note_on_c, 0, 66, 90
2, 21840, Note_on_c, 0, 70, 0
2, 21840, Note_on_c, 0, 70, 90
2, 21900, Note_on_c, 0, 66, 0
2, 21900, Note_on_c, 0, 66, 90
2, 21960, Note_on_c, 0, 70, 0
2, 21960, Note_on_c, 0, 69, 90
2, 22020, Note_on_c, 0, 66, 0
2, 22020, Note_on_c, 0, 65, 90
2, 22080, Note_on_c, 0, 61, 0
2, 22080, Note_on_c, 0, 60, 90
2, 22140, Note_on_c, 0, 65, 0
2, 22140, Note_on_c, 0, 65, 90
2, 22200, Note_on_c, 0, 69, 0
2, 22200, Note_on_c, 0, 69, 90
2, 22260, Note_on_c, 0, 65, 0
2, 22260, Note_on_c, 0, 65, 90
2, 22320, Note_on_c, 0, 69, 0
2, 22320, Note_on_c, 0, 69, 90
2, 22380, Note_on_c, 0, 65, 0
2, 22380, Note_on_c, 0, 65, 90
2, 22440, Note_on_c, 0, 60, 0
2, 22440, Note_on_c, 0, 60, 90
2, 22500, Note_on_c, 0, 65, 0
2, 22500, Note_on_c, 0, 65, 90
2, 22560, Note_on_c, 0, 69, 0
2, 22560, Note_on_c, 0, 69, 90
2, 22620, Note_on_c, 0, 65, 0
2, 22620, Note_on_c, 0, 65, 90
2, 22680, Note_on_c, 0, 69, 0
2, 22680, Note_on_c, 0, 69, 90
2, 22740, Note_on_c, 0, 65, 0
2, 22740, Note_on_c, 0, 65, 90
2, 22800, Note_on_c, 0, 60, 0
2, 22800, Note_on_c, 0, 60, 90
2, 22860, Note_on_c, 0, 65, 0
2, 22860, Note_on_c, 0, 65, 90
2, 22920, Note_on_c, 0, 69, 0
2, 22920, Note_on_c, 0, 69, 90
2, 22980, Note_on_c, 0, 65, 0
2, 22980, Note_on_c, 0, 65, 90
2, 23040, Note_on_c, 0, 69, 0
2, 23040, Note_on_c, 0, 69, 90
2, 23100, Note_on_c, 0, 65, 0
2, 23100, Note_on_c, 0, 65, 90
2, 23160, Note_on_c, 0, 60, 0
2, 23160, Note_on_c, 0, 60, 90
2, 23220, Note_on_c, 0, 65, 0
2, 23220, Note_on_c, 0, 65, 90
2, 23280, Note_on_c, 0, 69, 0
2, 23280, Note_on_c, 0, 69, 90
2, 23340, Note_on_c, 0, 65, 0
2, 23340, Note_on_c, 0, 65, 90
2, 23400, Note_on_c, 0, 69, 0
2, 23400, Note_on_c, 0, 70, 90
2, 23460, Note_on_c, 0, 65, 0
2, 23460, Note_on_c, 0, 65, 90
2, 23520, Note_on_c, 0, 60, 0
2, 23520, Note_on_c, 0, 61, 90
2, 23580, Note_on_c, 0, 65, 0
2, 23580, Note_on_c, 0, 65, 90
2, 23640, Note_on_c, 0, 70, 0
2, 23640, Note_on_c, 0, 70, 90
2, 23700, Note_on_c, 0, 65, 0
2, 23700, Note_on_c, 0, 65, 90
2, 23760, Note_on_c, 0, 70, 0
2, 23760, Note_on_c, 0, 70, 90
2, 23820, Note_on_c, 0, 65, 0
2, 23820, Note_on_c, 0, 65, 90
2, 23880, Note_on_c, 0, 61, 0
2, 23880, Note_on_c, 0, 61, 90
2, 23940, Note_on_c, 0, 65, 0
2, 23940, Note_on_c, 0, 65, 90
2, 24000, Note_on_c, 0, 70, 0
2, 24000, Note_on_c, 0, 70, 90
2, 24060, Note_on_c, 0, 65, 0
2, 24060, Note_on_c, 0, 65, 90
2, 24120, Note_on_c, 0, 70, 0
2, 24120, Note_on_c, 0, 70, 90
2, 24180, Note_on_c, 0, 65, 0
2, 24180, Note_on_c, 0, 65, 90
2, 24240, Note_on_c, 0, 61, 0
2, 24240, Note_on_c, 0, 63, 90
2, 24300, Note_on_c, 0, 65, 0
2, 24300, Note_on_c, 0, 65, 90
2, 24360, Note_on_c, 0, 70, 0
2, 24360, Note_on_c, 0, 70, 90
2, 24420, Note_on_c, 0, 65, 0
2, 24420, Note_on_c, 0, 65, 90
2, 24480, Note_on_c, 0, 70, 0
2, 24480, Note_on_c, 0, 70, 90
2, 24540, Note_on_c, 0, 65, 0
2, 24540, Note_on_c, 0, 65, 90
2, 24600, Note_on_c, 0, 63, 0
2, 24600, Note_on_c, 0, 63, 90
2, 24660, Note_on_c, 0, 65, 0
2, 24660, Note_on_c, 0, 65, 90
2, 24720, Note_on_c, 0, 70, 0
2, 24720, Note_on_c, 0, 70, 90
2, 24780, Note_on_c, 0, 65, 0
2, 24780, Note_on_c, 0, 65, 90
2, 24840, Note_on_c, 0, 70, 0
2, 24840, Note_on_c, 0, 70, 90
2, 24900, Note_on_c, 0, 65, 0
2, 24900, Note_on_c, 0, 65, 90
2, 24960, Note_on_c, 0, 63, 0
2, 24960, Note_on_c, 0, 61, 90
2, 25020, Note_on_c, 0, 65, 0
2, 25020, Note_on_c, 0, 65, 90
2, 25080, Note_on_c, 0, 70, 0
2, 25080, Note_on_c, 0, 70, 90
2, 25140, Note_on_c, 0, 65, 0
2, 25140, Note_on_c, 0, 65, 90
2, 25200, Note_on_c, 0, 70, 0
2, 25200, Note_on_c, 0, 70, 90
2, 25260, Note_on_c, 0, 65, 0
2, 25260, Note_on_c, 0, 65, 90
2, 25320, Note_on_c, 0, 61, 0
2, 25320, Note_on_c, 0, 61, 90
2, 25380, Note_on_c, 0, 65, 0
2, 25380, Note_on_c, 0, 65, 90
2, 25440, Note_on_c, 0, 70, 0
2, 25440, Note_on_c, 0, 70, 90
2, 25500, Note_on_c, 0, 65, 0
2, 25500, Note_on_c, 0, 65, 90
2, 25560, Note_on_c, 0, 70, 0
2, 25560, Note_on_c, 0, 70, 90
2, 25620, Note_on_c, 0, 65, 0
2, 25620, Note_on_c, 0, 65, 90
2, 25680, Note_on_c, 0, 61, 0
2, 25680, Note_on_c, 0, 63, 90
2, 25740, Note_on_c, 0, 65, 0
2, 25740, Note_on_c, 0, 65, 90
2, 25800, Note_on_c, 0, 70, 0
2, 25800, Note_on_c, 0, 70, 90
2, 25860, Note_on_c, 0, 65, 0
2, 25860, Note_on_c, 0, 65, 90
2, 25920, Note_on_c, 0, 70, 0
2, 25920, Note_on_c, 0, 70, 90
2, 25980, Note_on_c, 0, 65, 0
2, 25980, Note_on_c, 0, 65, 90
2, 26040, Note_on_c, 0, 63, 0
2, 26040, Note_on_c, 0, 63, 90
2, 26100, Note_on_c, 0, 65, 0
2, 26100, Note_on_c, 0, 65, 90
2, 26160, Note_on_c, 0, 70, 0
2, 26160, Note_on_c, 0, 70, 90
2, 26220, Note_on_c, 0, 65, 0
2, 26220, Note_on_c, 0, 65, 90
2, 26280, Note_on_c, 0, 70, 0
2, 26280, Note_on_c, 0, 70, 90
2, 26340, Note_on_c, 0, 65, 0
2, 26340, Note_on_c, 0, 65, 90
2, 26400, Note_on_c, 0, 63, 0
2, 26400, Note_on_c, 0, 61, 90
2, 26460, Note_on_c, 0, 65, 0
2, 26460, Note_on_c, 0, 65, 90
2, 26520, Note_on_c, 0, 70, 0
2, 26520, Note_on_c, 0, 70, 90
2, 26580, Note_on_c, 0, 65, 0
2, 26580, Note_on_c, 0, 65, 90
2, 26640, Note_on_c, 0, 70, 0
2, 26640, Note_on_c, 0, 70, 90
2, 26700, Note_on_c, 0, 65, 0
2, 26700, Note_on_c, 0, 65, 90
2, 26760, Note_on_c, 0, 61, 0
2, 26760, Note_on_c, 0, 61, 90
2, 26820, Note_on_c, 0, 65, 0
2, 26820, Note_on_c, 0, 65, 90
2, 26880, Note_on_c, 0, 70, 0
2, 26880, Note_on_c, 0, 70, 90
2, 26940, Note_on_c, 0, 65, 0
2, 26940, Note_on_c, 0, 65, 90
2, 27000, Note_on_c, 0, 70, 0
2, 27000, Note_on_c, 0, 70, 90
2, 27060, Note_on_c, 0, 65, 0
2, 27060, Note_on_c, 0, 65, 90
2, 27120, Note_on_c, 0, 61, 0
2, 27120, Note_on_c, 0, 63, 90
2, 27180, Note_on_c, 0, 65, 0
2, 27180, Note_on_c, 0, 65, 90
2, 27240, Note_on_c, 0, 70, 0
2, 27240, Note_on_c, 0, 70, 90
2, 27300, Note_on_c, 0, 65, 0
2, 27300, Note_on_c, 0, 65, 90
2, 27360, Note_on_c, 0, 70, 0
2, 27360, Note_on_c, 0, 70, 90
2, 27420, Note_on_c, 0, 65, 0
2, 27420, Note_on_c, 0, 65, 90
2, 27480, Note_on_c, 0, 63, 0
2, 27480, Note_on_c, 0, 63, 90
2, 27540, Note_on_c, 0, 65, 0
2, 27540, Note_on_c, 0, 65, 90
2, 27600, Note_on_c, 0, 70, 0
2, 27600, Note_on_c, 0, 70, 90
2, 27660, Note_on_c, 0, 65, 0
2, 27660, Note_on_c, 0, 65, 90
2, 27720, Note_on_c, 0, 70, 0
2, 27720, Note_on_c, 0, 70, 90
2, 27780, Note_on_c, 0, 65, 0
2, 27780, Note_on_c, 0, 66, 90
2, 27840, Note_on_c, 0, 63, 0
2, 27840, Note_on_c, 0, 61, 90
2, 27900, Note_on_c, 0, 66, 0
2, 27900, Note_on_c, 0, 66, 90
2, 27960, Note_on_c, 0, 70, 0
2, 27960, Note_on_c, 0, 70, 90
2, 28020, Note_on_c, 0, 66, 0
2, 28020, Note_on_c, 0, 66, 90
2, 28080, Note_on_c, 0, 70, 0
2, 28080, Note_on_c, 0, 68, 90
2, 28140, Note_on_c, 0, 66, 0
2, 28140, Note_on_c, 0, 65, 90
2, 28200, Note_on_c, 0, 61, 0
2, 28200, Note_on_c, 0, 60, 90
2, 28260, Note_on_c, 0, 65, 0
2, 28260, Note_on_c, 0, 65, 90
2, 28320, Note_on_c, 0, 68, 0
2, 28320, Note_on_c, 0, 68, 90
2, 28380, Note_on_c, 0, 65, 0
2, 28380, Note_on_c, 0, 65, 90
2, 28440, Note_on_c, 0, 68, 0
2, 28440, Note_on_c, 0, 70, 90
2, 28500, Note_on_c, 0, 65, 0
2, 28500, Note_on_c, 0, 65, 90
2, 28560, Note_on_c, 0, 60, 0
2, 28560, Note_on_c, 0, 62, 90
2, 28620, Note_on_c, 0, 65, 0
2, 28620, Note_on_c, 0, 65, 90
2, 28680, Note_on_c, 0, 70, 0
2, 28680, Note_on_c, 0, 70, 90
2, 28740, Note_on_c, 0, 65, 0
2, 28740, Note_on_c, 0, 65, 90
2, 28800, Note_on_c, 0, 70, 0
2, 28800, Note_on_c, 0, 70, 90
2, 28860, Note_on_c, 0, 65, 0
2, 28860, Note_on_c, 0, 65, 90
2, 28920, Note_on_c, 0, 62, 0
2, 28920, Note_on_c, 0, 62, 90
2, 28980, Note_on_c, 0, 65, 0
2, 28980, Note_on_c, 0, 65, 90
2, 29040, Note_on_c, 0, 70, 0
2, 29040, Note_on_c, 0, 70, 90
2, 29100, Note_on_c, 0, 65, 0
2, 29100, Note_on_c, 0, 65, 90
2, 29160, Note_on_c, 0, 70, 0
2, 29160, Note_on_c, 0, 70, 90
2, 29220, Note_on_c, 0, 65, 0
2, 29220, Note_on_c, 0, 65, 90
2, 29280, Note_on_c, 0, 62, 0
2, 29280, Note_on_c, 0, 62, 90
2, 29340, Note_on_c, 0, 65, 0
2, 29340, Note_on_c, 0, 65, 90
2, 29400, Note_on_c, 0, 70, 0
2, 29400, Note_on_c, 0, 70, 90
2, 29460, Note_on_c, 0, 65, 0
2, 29460, Note_on_c, 0, 65, 90
2, 29520, Note_on_c, 0, 70, 0
2, 29520, Note_on_c, 0, 70, 90
2, 29580, Note_on_c, 0, 65, 0
2, 29580, Note_on_c, 0, 65, 90
2, 29640, Note_on_c, 0, 62, 0
2, 29640, Note_on_c, 0, 62, 90
2, 29700, Note_on_c, 0, 65, 0
2, 29700, Note_on_c, 0, 65, 90
2, 29760, Note_on_c, 0, 70, 0
2, 29760, Note_on_c, 0, 70, 90
2, 29820, Note_on_c, 0, 65, 0
2, 29820, Note_on_c, 0, 65, 90
2, 29880, Note_on_c, 0, 70, 0
2, 29880, Note_on_c, 0, 70, 90
2, 29940, Note_on_c, 0, 65, 0
2, 29940, Note_on_c, 0, 65, 90
2, 30000, Note_on_c, 0, 62, 0
2, 30000, Note_on_c, 0, 61, 90
2, 30060, Note_on_c, 0, 65, 0
2, 30060, Note_on_c, 0, 65, 90
2, 30120, Note_on_c, 0, 70, 0
2, 30120, Note_on_c, 0, 70, 90
2, 30180, Note_on_c, 0, 65, 0
2, 30180, Note_on_c, 0, 65, 90
2, 30240, Note_on_c, 0, 70, 0
2, 30240, Note_on_c, 0, 70, 90
2, 30300, Note_on_c, 0, 65, 0
2, 30300, Note_on_c, 0, 65, 90
2, 30360, Note_on_c, 0, 61, 0
2, 30360, Note_on_c, 0, 61, 90
2, 30420, Note_on_c, 0, 65, 0
2, 30420, Note_on_c, 0, 65, 90
2, 30480, Note_on_c, 0, 70, 0
2, 30480, Note_on_c, 0, 70, 90
2, 30540, Note_on_c, 0, 65, 0
2, 30540, Note_on_c, 0, 65, 90
2, 30600, Note_on_c, 0, 70, 0
2, 30600, Note_on_c, 0, 70, 90
2, 30660, Note_on_c, 0, 65, 0
2, 30660, Note_on_c, 0, 65, 90
2, 30720, Note_on_c, 0, 61, 0
2, 30720, Note_on_c, 0, 63, 90
2, 30780, Note_on_c, 0, 65, 0
2, 30780, Note_on_c, 0, 65, 90
2, 30840, Note_on_c, 0, 70, 0
2, 30840, Note_on_c, 0, 70, 90
2, 30900, Note_on_c, 0, 65, 0
2, 30900, Note_on_c, 0, 65, 90
2, 30960, Note_on_c, 0, 70, 0
2, 30960, Note_on_c, 0, 70, 90
2, 31020, Note_on_c, 0, 65, 0
2, 31020, Note_on_c, 0, 65, 90
2, 31080, Note_on_c, 0, 63, 0
2, 31080, Note_on_c, 0, 63, 90
2, 31140, Note_on_c, 0, 65, 0
2, 31140, Note_on_c, 0, 65, 90
2, 31200, Note_on_c, 0, 70, 0
2, 31200, Note_on_c, 0, 70, 90
2, 31260, Note_on_c, 0, 65, 0
2, 31260, Note_on_c, 0, 65, 90
2, 31320, Note_on_c, 0, 70, 0
2, 31320, Note_on_c, 0, 70, 90
2, 31380, Note_on_c, 0, 65, 0
2, 31380, Note_on_c, 0, 65, 90
2, 31440, Note_on_c, 0, 63, 0
2, 31440, Note_on_c, 0, 61, 90
2, 31500, Note_on_c, 0, 65, 0
2, 31500, Note_on_c, 0, 65, 90
2, 31560, Note_on_c, 0, 70, 0
2, 31560, Note_on_c, 0, 70, 90
2, 31620, Note_on_c, 0, 65, 0
2, 31620, Note_on_c, 0, 65, 90
2, 31680, Note_on_c, 0, 70, 0
2, 31680, Note_on_c, 0, 70, 90
2, 31740, Note_on_c, 0, 65, 0
2, 31740, Note_on_c, 0, 65, 90
2, 31800, Note_on_c, 0, 61, 0
2, 31800, Note_on_c, 0, 61, 90
2, 31860, Note_on_c, 0, 65, 0
2, 31860, Note_on_c, 0, 65, 90
2, 31920, Note_on_c, 0, 70, 0
2, 31920, Note_on_c, 0, 70, 90
2, 31980, Note_on_c, 0, 65, 0
2, 31980, Note_on_c, 0, 65, 90
2, 32040, Note_on_c, 0, 70, 0
2, 32040, Note_on_c, 0, 70, 90
2, 32100, Note_on_c, 0, 65, 0
2, 32100, Note_on_c, 0, 65, 90
2, 32160, Note_on_c, 0, 61, 0
2, 32160, Note_on_c, 0, 63, 90
2, 32220, Note_on_c, 0, 65, 0
2, 32220, Note_on_c, 0, 65, 90
2, 32280, Note_on_c, 0, 70, 0
2, 32280, Note_on_c, 0, 70, 90
2, 32340, Note_on_c, 0, 65, 0
2, 32340, Note_on_c, 0, 65, 90
2, 32400, Note_on_c, 0, 70, 0
2, 32400, Note_on_c, 0, 70, 90
2, 32460, Note_on_c, 0, 65, 0
2, 32460, Note_on_c, 0, 65, 90
2, 32520, Note_on_c, 0, 63, 0
2, 32520, Note_on_c, 0, 63, 90
2, 32580, Note_on_c, 0, 65, 0
2, 32580, Note_on_c, 0, 65, 90
2, 32640, Note_on_c, 0, 70, 0
2, 32640, Note_on_c, 0, 70, 90
2, 32700, Note_on_c, 0, 65, 0
2, 32700, Note_on_c, 0, 65, 90
2, 32760, Note_on_c, 0, 70, 0
2, 32760, Control_c, 0, 11, 127
2, 32760, Note_on_c, 0, 70, 90
2, 32780, Control_c, 0, 11, 126
2, 32800, Control_c, 0, 11, 125
2, 32820, Note_on_c, 0, 65, 0
2, 32820, Control_c, 0, 11, 124
2, 32820, Note_on_c, 0, 65, 90
2, 32830, Control_c, 0, 11, 123
2, 32850, Control_c, 0, 11, 122
2, 32870, Control_c, 0, 11, 121
2, 32880, Note_on_c, 0, 63, 0
2, 32880, Note_on_c, 0, 61, 90
2, 32890, Control_c, 0, 11, 120
2, 32900, Control_c, 0, 11, 119
2, 32920, Control_c, 0, 11, 118
2, 32940, Note_on_c, 0, 65, 0
2, 32940, Control_c, 0, 11, 117
2, 32940, Note_on_c, 0, 65, 90
2, 32960, Control_c, 0, 11, 116
2, 32970, Control_c, 0, 11, 115
2, 32990, Control_c, 0, 11, 114
2, 33000, Note_on_c, 0, 70, 0
2, 33000, Note_on_c, 0, 70, 90
2, 33010, Control_c, 0, 11, 113
2, 33020, Control_c, 0, 11, 112
2, 33040, Control_c, 0, 11, 111
2, 33060, Note_on_c, 0, 65, 0
2, 33060, Control_c, 0, 11, 110
2, 33060, Note_on_c, 0, 65, 90
2, 33080, Control_c, 0, 11, 109
2, 33090, Control_c, 0, 11, 108
2, 33110, Control_c, 0, 11, 107
2, 33120, Note_on_c, 0, 70, 0
2, 33120, Note_on_c, 0, 70, 90
2, 33130, Control_c, 0, 11, 106
2, 33150, Control_c, 0, 11, 105
2, 33160, Control_c, 0, 11, 104
2, 33180, Note_on_c, 0, 65, 0
2, 33180, Control_c, 0, 11, 103
2, 33180, Note_on_c, 0, 65, 90
2, 33200, Control_c, 0, 11, 102
2, 33220, Control_c, 0, 11, 101
2, 33230, Control_c, 0, 11, 100
2, 33240, Note_on_c, 0, 61, 0
2, 33240, Note_on_c, 0, 61, 90
2, 33250, Control_c, 0, 11, 99
2, 33270, Control_c, 0, 11, 98
2, 33280, Control_c, 0, 11, 97
2, 33300, Note_on_c, 0, 65, 0
2, 33300, Control_c, 0, 11, 96
2, 33300, Note_on_c, 0, 65, 90
2, 33320, Control_c, 0, 11, 95
2, 33340, Control_c, 0, 11, 94
2, 33350, Control_c, 0, 11, 93
2, 33360, Note_on_c, 0, 70, 0
2, 33360, Note_on_c, 0, 70, 90
2, 33370, Control_c, 0, 11, 92
2, 33390, Control_c, 0, 11, 91
2, 33410, Control_c, 0, 11, 90
2, 33420, Note_on_c, 0, 65, 0
2, 33420, Control_c, 0, 11, 89
2, 33420, Note_on_c, 0, 65, 90
2, 33440, Control_c, 0, 11, 88
2, 33460, Control_c, 0, 11, 87
2, 33480, Note_on_c, 0, 70, 0
2, 33480, Control_c, 0, 11, 86
2, 33480, Note_on_c, 0, 70, 90
2, 33490, Control_c, 0, 11, 85
2, 33510, Control_c, 0, 11, 84
2, 33530, Control_c, 0, 11, 83
2, 33540, Note_on_c, 0, 65, 0
2, 33540, Control_c, 0, 11, 82
2, 33540, Note_on_c, 0, 65, 90
2, 33560, Control_c, 0, 11, 81
2, 33580, Control_c, 0, 11, 80
2, 33600, Note_on_c, 0, 61, 0
2, 33600, Control_c, 0, 11, 79
2, 33600, Note_on_c, 0, 63, 90
2, 33610, Control_c, 0, 11, 78
2, 33630, Control_c, 0, 11, 77
2, 33650, Control_c, 0, 11, 76
2, 33660, Note_on_c, 0, 65, 0
2, 33660, Note_on_c, 0, 65, 90
2, 33670, Control_c, 0, 11, 75
2, 33680, Control_c, 0, 11, 74
2, 33700, Control_c, 0, 11, 73
2, 33720, Note_on_c, 0, 70, 0
2, 33720, Control_c, 0, 11, 72
2, 33720, Note_on_c, 0, 70, 90
2, 33740, Control_c, 0, 11, 71
2, 33750, Control_c, 0, 11, 70
2, 33770, Control_c, 0, 11, 69
2, 33780, Note_on_c, 0, 65, 0
2, 33780, Note_on_c, 0, 65, 90
2, 33790, Control_c, 0, 11, 68
2, 33800, Control_c, 0, 11, 67
2, 33820, Control_c, 0, 11, 66
2, 33840, Note_on_c, 0, 70, 0
2, 33840, Control_c, 0, 11, 65
2, 33840, Note_on_c, 0, 70, 90
2, 33860, Control_c, 0, 11, 64
2, 33870, Control_c, 0, 11, 63
2, 33890, Control_c, 0, 11, 62
2, 33900, Note_on_c, 0, 65, 0
2, 33900, Note_on_c, 0, 65, 90
2, 33910, Control_c, 0, 11, 61
2, 33930, Control_c, 0, 11, 60
2, 33940, Control_c, 0, 11, 59
2, 33960, Note_on_c, 0, 63, 0
2, 33960, Control_c, 0, 11, 58
2, 33960, Note_on_c, 0, 63, 90
2, 33980, Control_c, 0, 11, 57
2, 33990, Control_c, 0, 11, 56
2, 34010, Control_c, 0, 11, 55
2, 34020, Note_on_c, 0, 65, 0
2, 34020, Note_on_c, 0, 65, 90
2, 34030, Control_c, 0, 11, 54
2, 34050, Control_c, 0, 11, 53
2, 34060, Control_c, 0, 11, 52
2, 34080, Note_on_c, 0, 70, 0
2, 34080, Control_c, 0, 11, 51
2, 34080, Note_on_c, 0, 70, 90
2, 34100, Control_c, 0, 11, 50
2, 34120, Control_c, 0, 11, 49
2, 34130, Control_c, 0, 11, 48
2, 34140, Note_on_c, 0, 65, 0
2, 34140, Note_on_c, 0, 65, 90
2, 34150, Control_c, 0, 11, 47
2, 34170, Control_c, 0, 11, 46
2, 34190, Control_c, 0, 11, 45
2, 34200, Note_on_c, 0, 70, 0
2, 34200, Control_c, 0, 11, 44
2, 34200, Note_on_c, 0, 70, 90
2, 34220, Control_c, 0, 11, 43
2, 34240, Control_c, 0, 11, 42
2, 34250, Control_c, 0, 11, 41
2, 34260, Note_on_c, 0, 65, 0
2, 34260, Note_on_c, 0, 65, 90
2, 34270, Control_c, 0, 11, 40
2, 34290, Control_c, 0, 11, 39
2, 34310, Control_c, 0, 11, 38
2, 34320, Note_on_c, 0, 63, 0
2, 34320, Control_c, 0, 11, 37
2, 34320, Note_on_c, 0, 61, 90
2, 34340, Control_c, 0, 11, 36
2, 34360, Control_c, 0, 11, 35
2, 34380, Note_on_c, 0, 65, 0
2, 34380, Control_c, 0, 11, 34
2, 34380, Note_on_c, 0, 65, 90
2, 34390, Control_c, 0, 11, 33
2, 34410, Control_c, 0, 11, 32
2, 34430, Control_c, 0, 11, 31
2, 34440, Note_on_c, 0, 70, 0
2, 34440, Note_on_c, 0, 70, 90
2, 34450, Control_c, 0, 11, 30
2, 34460, Control_c, 0, 11, 29
2, 34480, Control_c, 0, 11, 28
2, 34500, Note_on_c, 0, 65, 0
2, 34500, Control_c, 0, 11, 27
2, 34500, Note_on_c, 0, 65, 90
2, 34510, Control_c, 0, 11, 26
2, 34530, Control_c, 0, 11, 25
2, 34550, Control_c, 0, 11, 24
2, 34560, Note_on_c, 0, 70, 0
2, 34560, Note_on_c, 0, 70, 90
2, 34570, Control_c, 0, 11, 23
2, 34580, Control_c, 0, 11, 22
2, 34600, Control_c, 0, 11, 21
2, 34620, Note_on_c, 0, 65, 0
2, 34620, Control_c, 0, 11, 20
2, 34620, Note_on_c, 0, 65, 90
2, 34640, Control_c, 0, 11, 19
2, 34650, Control_c, 0, 11, 18
2, 34670, Control_c, 0, 11, 17
2, 34680, Note_on_c, 0, 61, 0
2, 34680, Note_on_c, 0, 61, 90
2, 34690, Control_c, 0, 11, 16
2, 34710, Control_c, 0, 11, 15
2, 34720, Control_c, 0, 11, 14
2, 34740, Note_on_c, 0, 65, 0
2, 34740, Control_c, 0, 11, 13
2, 34740, Note_on_c, 0, 65, 90
2, 34760, Control_c, 0, 11, 12
2, 34770, Control_c, 0, 11, 11
2, 34790, Control_c, 0, 11, 10
2, 34800, Note_on_c, 0, 70, 0
2, 34800, Note_on_c, 0, 70, 90
2, 34810, Control_c, 0, 11, 9
2, 34830, Control_c, 0, 11, 8
2, 34840, Control_c, 0, 11, 7
2, 34860, Note_on_c, 0, 65, 0
2, 34860, Control_c, 0, 11, 6
2, 34860, Note_on_c, 0, 65, 90
2, 34880, Control_c, 0, 11, 5
2, 34900, Control_c, 0, 11, 4
2, 34910, Control_c, 0, 11, 3
2, 34920, Note_on_c, 0, 70, 0
2, 34930, Control_c, 0, 11, 2
2, 34950, Control_c, 0, 11, 1
2, 34960, Control_c, 0, 11, 0
2, 34980, Note_on_c, 0, 65, 0
2, 35040, Note_on_c, 0, 61, 0
2, 35620, Control_c, 0, 11, 0
2, 35620, End_track
3, 0, Start_track
3, 0, Title_t, "A2-Steel-str.Gt"
3, 0, Control_c, 1, 0, 0
3, 0, Control_c, 1, 32, 3
3, 0, Program_c, 1, 25
3, 0, Control_c, 1, 7, 100
3, 0, Control_c, 1, 10, 96
3, 79, Control_c, 1, 91, 70
3, 80, Control_c, 1, 93, 0
3, 1080, Note_on_c, 1, 58, 100
3, 1080, Note_on_c, 1, 46, 100
3, 1140, Note_on_c, 1, 68, 90
3, 1140, Note_on_c, 1, 56, 90
3, 1200, Note_on_c, 1, 58, 0
3, 1200, Note_on_c, 1, 58, 90
3, 1200, Note_on_c, 1, 70, 90
3, 1260, Note_on_c, 1, 77, 90
3, 1260, Note_on_c, 1, 65, 90
3, 1320, Note_on_c, 1, 70, 0
3, 1320, Note_on_c, 1, 58, 0
3, 1320, Note_on_c, 1, 68, 0
3, 1320, Note_on_c, 1, 58, 90
3, 1320, Note_on_c, 1, 70, 90
3, 1380, Note_on_c, 1, 56, 0
3, 1380, Note_on_c, 1, 56, 90
3, 1380, Note_on_c, 1, 68, 90
3, 1440, Note_on_c, 1, 77, 0
3, 1440, Note_on_c, 1, 65, 0
3, 1440, Note_on_c, 1, 63, 90
3, 1440, Note_on_c, 1, 75, 90
3, 1500, Note_on_c, 1, 70, 0
3, 1500, Note_on_c, 1, 58, 0
3, 1500, Note_on_c, 1, 58, 90
3, 1500, Note_on_c, 1, 70, 90
3, 1560, Note_on_c, 1, 56, 0
3, 1560, Note_on_c, 1, 68, 0
3, 1560, Note_on_c, 1, 68, 90
3, 1560, Note_on_c, 1, 56, 90
3, 1620, Note_on_c, 1, 63, 0
3, 1620, Note_on_c, 1, 75, 0
3, 1620, Note_on_c, 1, 65, 90
3, 1620, Note_on_c, 1, 77, 90
3, 1680, Note_on_c, 1, 58, 0
3, 1680, Note_on_c, 1, 70, 0
3, 1680, Note_on_c, 1, 58, 90
3, 1680, Note_on_c, 1, 70, 90
3, 1740, Note_on_c, 1, 68, 0
3, 1740, Note_on_c, 1, 56, 0
3, 1740, Note_on_c, 1, 68, 90
3, 1740, Note_on_c, 1, 56, 90
3, 1800, Note_on_c, 1, 46, 0
3, 1800, Note_on_c, 1, 65, 0
3, 1800, Note_on_c, 1, 77, 0
3, 1800, Note_on_c, 1, 39, 100
3, 1800, Note_on_c, 1, 51, 100
3, 1860, Note_on_c, 1, 56, 0
3, 1860, Note_on_c, 1, 70, 0
3, 1860, Note_on_c, 1, 68, 0
3, 1860, Note_on_c, 1, 55, 86
3, 1860, Note_on_c, 1, 67, 86
3, 1920, Note_on_c, 1, 58, 0
3, 1920, Note_on_c, 1, 58, 86
3, 1920, Note_on_c, 1, 70, 86
3, 1980, Note_on_c, 1, 75, 86
3, 1980, Note_on_c, 1, 63, 86
3, 2040, Note_on_c, 1, 70, 0
3, 2040, Note_on_c, 1, 67, 0
3, 2040, Note_on_c, 1, 58, 0
3, 2040, Note_on_c, 1, 58, 86
3, 2040, Note_on_c, 1, 70, 86
3, 2100, Note_on_c, 1, 55, 0
3, 2100, Note_on_c, 1, 55, 86
3, 2100, Note_on_c, 1, 67, 86
3, 2160, Note_on_c, 1, 63, 0
3, 2160, Note_on_c, 1, 75, 0
3, 2160, Note_on_c, 1, 65, 86
3, 2160, Note_on_c, 1, 77, 86
3, 2220, Note_on_c, 1, 70, 0
3, 2220, Note_on_c, 1, 58, 0
3, 2220, Note_on_c, 1, 58, 86
3, 2220, Note_on_c, 1, 70, 86
3, 2280, Note_on_c, 1, 55, 0
3, 2280, Note_on_c, 1, 67, 0
3, 2280, Note_on_c, 1, 55, 86
3, 2280, Note_on_c, 1, 67, 86
3, 2340, Note_on_c, 1, 65, 0
3, 2340, Note_on_c, 1, 77, 0
3, 2340, Note_on_c, 1, 63, 86
3, 2340, Note_on_c, 1, 75, 86
3, 2400, Note_on_c, 1, 58, 0
3, 2400, Note_on_c, 1, 70, 0
3, 2400, Note_on_c, 1, 58, 86
3, 2400, Note_on_c, 1, 70, 86
3, 2460, Note_on_c, 1, 55, 0
3, 2460, Note_on_c, 1, 67, 0
3, 2460, Note_on_c, 1, 55, 86
3, 2460, Note_on_c, 1, 67, 86
3, 2520, Note_on_c, 1, 58, 0
3, 2520, Note_on_c, 1, 63, 0
3, 2520, Note_on_c, 1, 75, 0
3, 2520, Note_on_c, 1, 51, 0
3, 2520, Note_on_c, 1, 39, 0
3, 2520, Note_on_c, 1, 58, 100
3, 2520, Note_on_c, 1, 46, 100
3, 2580, Note_on_c, 1, 70, 0
3, 2580, Note_on_c, 1, 68, 90
3, 2580, Note_on_c, 1, 56, 90
3, 2640, Note_on_c, 1, 58, 0
3, 2640, Note_on_c, 1, 67, 0
3, 2640, Note_on_c, 1, 55, 0
3, 2640, Note_on_c, 1, 58, 90
3, 2640, Note_on_c, 1, 70, 90
3, 2700, Note_on_c, 1, 77, 90
3, 2700, Note_on_c, 1, 65, 90
3, 2760, Note_on_c, 1, 70, 0
3, 2760, Note_on_c, 1, 58, 0
3, 2760, Note_on_c, 1, 68, 0
3, 2760, Note_on_c, 1, 58, 90
3, 2760, Note_on_c, 1, 70, 90
3, 2820, Note_on_c, 1, 56, 0
3, 2820, Note_on_c, 1, 56, 90
3, 2820, Note_on_c, 1, 68, 90
3, 2880, Note_on_c, 1, 77, 0
3, 2880, Note_on_c, 1, 65, 0
3, 2880, Note_on_c, 1, 63, 90
3, 2880, Note_on_c, 1, 75, 90
3, 2940, Note_on_c, 1, 70, 0
3, 2940, Note_on_c, 1, 58, 0
3, 2940, Note_on_c, 1, 58, 90
3, 2940, Note_on_c, 1, 70, 90
3, 3000, Note_on_c, 1, 56, 0
3, 3000, Note_on_c, 1, 68, 0
3, 3000, Note_on_c, 1, 68, 90
3, 3000, Note_on_c, 1, 56, 90
3, 3060, Note_on_c, 1, 63, 0
3, 3060, Note_on_c, 1, 75, 0
3, 3060, Note_on_c, 1, 65, 90
3, 3060, Note_on_c, 1, 77, 90
3, 3120, Note_on_c, 1, 58, 0
3, 3120, Note_on_c, 1, 70, 0
3, 3120, Note_on_c, 1, 58, 90
3, 3120, Note_on_c, 1, 70, 90
3, 3180, Note_on_c, 1, 68, 0
3, 3180, Note_on_c, 1, 56, 0
3, 3180, Note_on_c, 1, 68, 90
3, 3180, Note_on_c, 1, 56, 90
3, 3240, Note_on_c, 1, 46, 0
3, 3240, Note_on_c, 1, 65, 0
3, 3240, Note_on_c, 1, 77, 0
3, 3240, Note_on_c, 1, 39, 101
3, 3240, Note_on_c, 1, 51, 101
3, 3300, Note_on_c, 1, 56, 0
3, 3300, Note_on_c, 1, 70, 0
3, 3300, Note_on_c, 1, 68, 0
3, 3300, Note_on_c, 1, 55, 86
3, 3300, Note_on_c, 1, 67, 86
3, 3360, Note_on_c, 1, 58, 0
3, 3360, Note_on_c, 1, 58, 86
3, 3360, Note_on_c, 1, 70, 86
3, 3420, Note_on_c, 1, 75, 86
3, 3420, Note_on_c, 1, 63, 86
3, 3480, Note_on_c, 1, 70, 0
3, 3480, Note_on_c, 1, 67, 0
3, 3480, Note_on_c, 1, 58, 0
3, 3480, Note_on_c, 1, 58, 86
3, 3480, Note_on_c, 1, 70, 86
3, 3540, Note_on_c, 1, 55, 0
3, 3540, Note_on_c, 1, 55, 86
3, 3540, Note_on_c, 1, 67, 86
3, 3600, Note_on_c, 1, 63, 0
3, 3600, Note_on_c, 1, 75, 0
3, 3600, Note_on_c, 1, 65, 86
3, 3600, Note_on_c, 1, 77, 86
3, 3660, Note_on_c, 1, 70, 0
3, 3660, Note_on_c, 1, 58, 0
3, 3660, Note_on_c, 1, 58, 86
3, 3660, Note_on_c, 1, 70, 86
3, 3720, Note_on_c, 1, 55, 0
3, 3720, Note_on_c, 1, 67, 0
3, 3720, Note_on_c, 1, 55, 86
3, 3720, Note_on_c, 1, 67, 86
3, 3780, Note_on_c, 1, 65, 0
3, 3780, Note_on_c, 1, 77, 0
3, 3780, Note_on_c, 1, 63, 86
3, 3780, Note_on_c, 1, 75, 86
3, 3840, Note_on_c, 1, 58, 0
3, 3840, Note_on_c, 1, 70, 0
3, 3840, Note_on_c, 1, 58, 86
3, 3840, Note_on_c, 1, 70, 86
3, 3900, Note_on_c, 1, 55, 0
3, 3900, Note_on_c, 1, 67, 0
3, 3900, Note_on_c, 1, 55, 86
3, 3900, Note_on_c, 1, 67, 86
3, 3960, Note_on_c, 1, 58, 0
3, 3960, Note_on_c, 1, 63, 0
3, 3960, Note_on_c, 1, 75, 0
3, 3960, Note_on_c, 1, 51, 0
3, 3960, Note_on_c, 1, 39, 0
3, 3960, Note_on_c, 1, 58, 101
3, 3960, Note_on_c, 1, 46, 101
3, 4020, Note_on_c, 1, 70, 0
3, 4020, Note_on_c, 1, 68, 90
3, 4020, Note_on_c, 1, 56, 90
3, 4080, Note_on_c, 1, 58, 0
3, 4080, Note_on_c, 1, 67, 0
3, 4080, Note_on_c, 1, 55, 0
3, 4080, Note_on_c, 1, 58, 90
3, 4080, Note_on_c, 1, 70, 90
3, 4140, Note_on_c, 1, 77, 90
3, 4140, Note_on_c, 1, 65, 90
3, 4200, Note_on_c, 1, 70, 0
3, 4200, Note_on_c, 1, 58, 0
3, 4200, Note_on_c, 1, 68, 0
3, 4200, Note_on_c, 1, 58, 90
3, 4200, Note_on_c, 1, 70, 90
3, 4260, Note_on_c, 1, 56, 0
3, 4260, Note_on_c, 1, 56, 90
3, 4260, Note_on_c, 1, 68, 90
3, 4320, Note_on_c, 1, 77, 0
3, 4320, Note_on_c, 1, 65, 0
3, 4320, Note_on_c, 1, 63, 90
3, 4320, Note_on_c, 1, 75, 90
3, 4380, Note_on_c, 1, 70, 0
3, 4380, Note_on_c, 1, 58, 0
3, 4380, Note_on_c, 1, 58, 90
3, 4380, Note_on_c, 1, 70, 90
3, 4440, Note_on_c, 1, 56, 0
3, 4440, Note_on_c, 1, 68, 0
3, 4440, Note_on_c, 1, 68, 90
3, 4440, Note_on_c, 1, 56, 90
3, 4500, Note_on_c, 1, 63, 0
3, 4500, Note_on_c, 1, 75, 0
3, 4500, Note_on_c, 1, 65, 90
3, 4500, Note_on_c, 1, 77, 90
3, 4560, Note_on_c, 1, 58, 0
3, 4560, Note_on_c, 1, 70, 0
3, 4560, Note_on_c, 1, 58, 90
3, 4560, Note_on_c, 1, 70, 90
3, 4620, Note_on_c, 1, 68, 0
3, 4620, Note_on_c, 1, 56, 0
3, 4620, Note_on_c, 1, 68, 90
3, 4620, Note_on_c, 1, 56, 90
3, 4680, Note_on_c, 1, 46, 0
3, 4680, Note_on_c, 1, 65, 0
3, 4680, Note_on_c, 1, 77, 0
3, 4680, Note_on_c, 1, 39, 100
3, 4680, Note_on_c, 1, 51, 100
3, 4740, Note_on_c, 1, 56, 0
3, 4740, Note_on_c, 1, 70, 0
3, 4740, Note_on_c, 1, 68, 0
3, 4740, Note_on_c, 1, 55, 86
3, 4740, Note_on_c, 1, 67, 86
3, 4800, Note_on_c, 1, 58, 0
3, 4800, Note_on_c, 1, 58, 86
3, 4800, Note_on_c, 1, 70, 86
3, 4860, Note_on_c, 1, 75, 86
3, 4860, Note_on_c, 1, 63, 86
3, 4920, Note_on_c, 1, 70, 0
3, 4920, Note_on_c, 1, 67, 0
3, 4920, Note_on_c, 1, 58, 0
3, 4920, Note_on_c, 1, 58, 86
3, 4920, Note_on_c, 1, 70, 86
3, 4980, Note_on_c, 1, 55, 0
3, 4980, Note_on_c, 1, 55, 86
3, 4980, Note_on_c, 1, 67, 86
3, 5040, Note_on_c, 1, 63, 0
3, 5040, Note_on_c, 1, 75, 0
3, 5040, Note_on_c, 1, 65, 86
3, 5040, Note_on_c, 1, 77, 86
3, 5100, Note_on_c, 1, 70, 0
3, 5100, Note_on_c, 1, 58, 0
3, 5100, Note_on_c, 1, 58, 86
3, 5100, Note_on_c, 1, 70, 86
3, 5160, Note_on_c, 1, 55, 0
3, 5160, Note_on_c, 1, 67, 0
3, 5160, Note_on_c, 1, 55, 86
3, 5160, Note_on_c, 1, 67, 86
3, 5220, Note_on_c, 1, 65, 0
3, 5220, Note_on_c, 1, 77, 0
3, 5220, Note_on_c, 1, 63, 86
3, 5220, Note_on_c, 1, 75, 86
3, 5280, Note_on_c, 1, 58, 0
3, 5280, Note_on_c, 1, 70, 0
3, 5280, Note_on_c, 1, 58, 86
3, 5280, Note_on_c, 1, 70, 86
3, 5340, Note_on_c, 1, 55, 0
3, 5340, Note_on_c, 1, 67, 0
3, 5340, Note_on_c, 1, 55, 86
3, 5340, Note_on_c, 1, 67, 86
3, 5400, Note_on_c, 1, 58, 0
3, 5400, Note_on_c, 1, 63, 0
3, 5400, Note_on_c, 1, 75, 0
3, 5400, Note_on_c, 1, 51, 0
3, 5400, Note_on_c, 1, 39, 0
3, 5400, Note_on_c, 1, 58, 102
3, 5400, Note_on_c, 1, 46, 102
3, 5460, Note_on_c, 1, 70, 0
3, 5460, Note_on_c, 1, 68, 90
3, 5460, Note_on_c, 1, 56, 90
3, 5520, Note_on_c, 1, 58, 0
3, 5520, Note_on_c, 1, 67, 0
3, 5520, Note_on_c, 1, 55, 0
3, 5520, Note_on_c, 1, 58, 90
3, 5520, Note_on_c, 1, 70, 90
3, 5580, Note_on_c, 1, 77, 90
3, 5580, Note_on_c, 1, 65, 90
3, 5640, Note_on_c, 1, 70, 0
3, 5640, Note_on_c, 1, 58, 0
3, 5640, Note_on_c, 1, 68, 0
3, 5640, Note_on_c, 1, 58, 90
3, 5640, Note_on_c, 1, 70, 90
3, 5700, Note_on_c, 1, 56, 0
3, 5700, Note_on_c, 1, 56, 90
3, 5700, Note_on_c, 1, 68, 90
3, 5760, Note_on_c, 1, 77, 0
3, 5760, Note_on_c, 1, 65, 0
3, 5760, Note_on_c, 1, 63, 90
3, 5760, Note_on_c, 1, 75, 90
3, 5820, Note_on_c, 1, 70, 0
3, 5820, Note_on_c, 1, 58, 0
3, 5820, Note_on_c, 1, 58, 90
3, 5820, Note_on_c, 1, 70, 90
3, 5880, Note_on_c, 1, 56, 0
3, 5880, Note_on_c, 1, 68, 0
3, 5880, Note_on_c, 1, 68, 90
3, 5880, Note_on_c, 1, 56, 90
3, 5940, Note_on_c, 1, 63, 0
3, 5940, Note_on_c, 1, 75, 0
3, 5940, Note_on_c, 1, 65, 90
3, 5940, Note_on_c, 1, 77, 90
3, 6000, Note_on_c, 1, 58, 0
3, 6000, Note_on_c, 1, 70, 0
3, 6000, Note_on_c, 1, 58, 90
3, 6000, Note_on_c, 1, 70, 90
3, 6060, Note_on_c, 1, 68, 0
3, 6060, Note_on_c, 1, 56, 0
3, 6060, Note_on_c, 1, 68, 90
3, 6060, Note_on_c, 1, 56, 90
3, 6120, Note_on_c, 1, 46, 0
3, 6120, Note_on_c, 1, 65, 0
3, 6120, Note_on_c, 1, 77, 0
3, 6120, Note_on_c, 1, 39, 101
3, 6120, Note_on_c, 1, 51, 101
3, 6180, Note_on_c, 1, 56, 0
3, 6180, Note_on_c, 1, 70, 0
3, 6180, Note_on_c, 1, 68, 0
3, 6180, Note_on_c, 1, 55, 86
3, 6180, Note_on_c, 1, 67, 86
3, 6240, Note_on_c, 1, 58, 0
3, 6240, Note_on_c, 1, 58, 86
3, 6240, Note_on_c, 1, 70, 86
3, 6300, Note_on_c, 1, 75, 86
3, 6300, Note_on_c, 1, 63, 86
3, 6360, Note_on_c, 1, 70, 0
3, 6360, Note_on_c, 1, 67, 0
3, 6360, Note_on_c, 1, 58, 0
3, 6360, Note_on_c, 1, 58, 86
3, 6360, Note_on_c, 1, 70, 86
3, 6420, Note_on_c, 1, 55, 0
3, 6420, Note_on_c, 1, 55, 86
3, 6420, Note_on_c, 1, 67, 86
3, 6480, Note_on_c, 1, 63, 0
3, 6480, Note_on_c, 1, 75, 0
3, 6480, Note_on_c, 1, 65, 86
3, 6480, Note_on_c, 1, 77, 86
3, 6540, Note_on_c, 1, 70, 0
3, 6540, Note_on_c, 1, 58, 0
3, 6540, Note_on_c, 1, 58, 86
3, 6540, Note_on_c, 1, 70, 86
3, 6600, Note_on_c, 1, 55, 0
3, 6600, Note_on_c, 1, 67, 0
3, 6600, Note_on_c, 1, 55, 86
3, 6600, Note_on_c, 1, 67, 86
3, 6660, Note_on_c, 1, 65, 0
3, 6660, Note_on_c, 1, 77, 0
3, 6660, Note_on_c, 1, 63, 86
3, 6660, Note_on_c, 1, 75, 86
3, 6720, Note_on_c, 1, 58, 0
3, 6720, Note_on_c, 1, 70, 0
3, 6720, Note_on_c, 1, 58, 86
3, 6720, Note_on_c, 1, 70, 86
3, 6780, Note_on_c, 1, 55, 0
3, 6780, Note_on_c, 1, 67, 0
3, 6780, Note_on_c, 1, 55, 86
3, 6780, Note_on_c, 1, 67, 86
3, 6840, Note_on_c, 1, 63, 0
3, 6840, Note_on_c, 1, 75, 0
3, 6840, Note_on_c, 1, 51, 0
3, 6840, Note_on_c, 1, 39, 0
3, 6840, Note_on_c, 1, 48, 102
3, 6870, Note_on_c, 1, 55, 0
3, 6900, Note_on_c, 1, 58, 0
3, 6900, Note_on_c, 1, 67, 0
3, 6900, Note_on_c, 1, 70, 0
3, 6900, Note_on_c, 1, 55, 86
3, 6900, Note_on_c, 1, 67, 86
3, 6960, Note_on_c, 1, 62, 86
3, 6960, Note_on_c, 1, 74, 86
3, 7020, Note_on_c, 1, 63, 86
3, 7020, Note_on_c, 1, 75, 86
3, 7080, Note_on_c, 1, 74, 0
3, 7080, Note_on_c, 1, 62, 0
3, 7080, Note_on_c, 1, 62, 86
3, 7080, Note_on_c, 1, 74, 86
3, 7140, Note_on_c, 1, 67, 0
3, 7140, Note_on_c, 1, 55, 0
3, 7140, Note_on_c, 1, 55, 86
3, 7140, Note_on_c, 1, 67, 86
3, 7200, Note_on_c, 1, 63, 0
3, 7200, Note_on_c, 1, 75, 0
3, 7200, Note_on_c, 1, 63, 86
3, 7200, Note_on_c, 1, 75, 86
3, 7260, Note_on_c, 1, 62, 0
3, 7260, Note_on_c, 1, 74, 0
3, 7260, Note_on_c, 1, 62, 86
3, 7260, Note_on_c, 1, 74, 86
3, 7320, Note_on_c, 1, 55, 0
3, 7320, Note_on_c, 1, 67, 0
3, 7320, Note_on_c, 1, 55, 86
3, 7320, Note_on_c, 1, 67, 86
3, 7380, Note_on_c, 1, 63, 0
3, 7380, Note_on_c, 1, 75, 0
3, 7380, Note_on_c, 1, 63, 86
3, 7380, Note_on_c, 1, 75, 86
3, 7440, Note_on_c, 1, 62, 0
3, 7440, Note_on_c, 1, 74, 0
3, 7440, Note_on_c, 1, 62, 86
3, 7440, Note_on_c, 1, 74, 86
3, 7500, Note_on_c, 1, 55, 0
3, 7500, Note_on_c, 1, 67, 0
3, 7500, Note_on_c, 1, 55, 86
3, 7500, Note_on_c, 1, 67, 86
3, 7560, Note_on_c, 1, 48, 0
3, 7560, Note_on_c, 1, 49, 101
3, 7620, Note_on_c, 1, 55, 0
3, 7620, Note_on_c, 1, 63, 0
3, 7620, Note_on_c, 1, 75, 0
3, 7620, Note_on_c, 1, 67, 0
3, 7620, Note_on_c, 1, 56, 86
3, 7620, Note_on_c, 1, 68, 86
3, 7680, Note_on_c, 1, 62, 0
3, 7680, Note_on_c, 1, 74, 0
3, 7680, Note_on_c, 1, 58, 86
3, 7680, Note_on_c, 1, 70, 86
3, 7740, Note_on_c, 1, 65, 86
3, 7740, Note_on_c, 1, 77, 86
3, 7800, Note_on_c, 1, 70, 0
3, 7800, Note_on_c, 1, 58, 0
3, 7800, Note_on_c, 1, 58, 86
3, 7800, Note_on_c, 1, 70, 86
3, 7860, Note_on_c, 1, 68, 0
3, 7860, Note_on_c, 1, 56, 0
3, 7860, Note_on_c, 1, 56, 86
3, 7860, Note_on_c, 1, 68, 86
3, 7920, Note_on_c, 1, 65, 0
3, 7920, Note_on_c, 1, 77, 0
3, 7920, Note_on_c, 1, 65, 86
3, 7920, Note_on_c, 1, 77, 86
3, 7980, Note_on_c, 1, 58, 0
3, 7980, Note_on_c, 1, 70, 0
3, 7980, Note_on_c, 1, 58, 86
3, 7980, Note_on_c, 1, 70, 86
3, 8040, Note_on_c, 1, 56, 0
3, 8040, Note_on_c, 1, 68, 0
3, 8040, Note_on_c, 1, 56, 86
3, 8040, Note_on_c, 1, 68, 86
3, 8100, Note_on_c, 1, 65, 0
3, 8100, Note_on_c, 1, 77, 0
3, 8100, Note_on_c, 1, 65, 86
3, 8100, Note_on_c, 1, 77, 86
3, 8160, Note_on_c, 1, 58, 0
3, 8160, Note_on_c, 1, 70, 0
3, 8160, Note_on_c, 1, 58, 86
3, 8160, Note_on_c, 1, 70, 86
3, 8220, Note_on_c, 1, 56, 0
3, 8220, Note_on_c, 1, 68, 0
3, 8220, Note_on_c, 1, 56, 86
3, 8220, Note_on_c, 1, 68, 86
3, 8280, Note_on_c, 1, 77, 0
3, 8280, Note_on_c, 1, 58, 0
3, 8280, Note_on_c, 1, 65, 0
3, 8280, Note_on_c, 1, 49, 0
3, 8280, Note_on_c, 1, 70, 0
3, 8280, Note_on_c, 1, 45, 100
3, 8280, Note_on_c, 1, 57, 100
3, 8340, Note_on_c, 1, 68, 0
3, 8340, Note_on_c, 1, 56, 0
3, 8340, Note_on_c, 1, 55, 86
3, 8340, Note_on_c, 1, 67, 86
3, 8400, Note_on_c, 1, 57, 0
3, 8400, Note_on_c, 1, 59, 86
3, 8400, Note_on_c, 1, 71, 86
3, 8460, Note_on_c, 1, 64, 86
3, 8460, Note_on_c, 1, 76, 86
3, 8520, Note_on_c, 1, 71, 0
3, 8520, Note_on_c, 1, 59, 0
3, 8520, Note_on_c, 1, 59, 86
3, 8520, Note_on_c, 1, 71, 86
3, 8580, Note_on_c, 1, 67, 0
3, 8580, Note_on_c, 1, 55, 0
3, 8580, Note_on_c, 1, 55, 86
3, 8580, Note_on_c, 1, 67, 86
3, 8640, Note_on_c, 1, 64, 0
3, 8640, Note_on_c, 1, 76, 0
3, 8640, Note_on_c, 1, 64, 86
3, 8640, Note_on_c, 1, 76, 86
3, 8700, Note_on_c, 1, 59, 0
3, 8700, Note_on_c, 1, 71, 0
3, 8700, Note_on_c, 1, 59, 86
3, 8700, Note_on_c, 1, 71, 86
3, 8760, Note_on_c, 1, 55, 0
3, 8760, Note_on_c, 1, 67, 0
3, 8760, Note_on_c, 1, 55, 86
3, 8760, Note_on_c, 1, 67, 86
3, 8820, Note_on_c, 1, 64, 0
3, 8820, Note_on_c, 1, 76, 0
3, 8820, Note_on_c, 1, 64, 86
3, 8820, Note_on_c, 1, 76, 86
3, 8880, Note_on_c, 1, 59, 0
3, 8880, Note_on_c, 1, 71, 0
3, 8880, Note_on_c, 1, 59, 86
3, 8880, Note_on_c, 1, 71, 86
3, 8940, Note_on_c, 1, 55, 0
3, 8940, Note_on_c, 1, 67, 0
3, 8940, Note_on_c, 1, 55, 86
3, 8940, Note_on_c, 1, 67, 86
3, 9000, Note_on_c, 1, 55, 0
3, 9000, Note_on_c, 1, 45, 0
3, 9000, Note_on_c, 1, 59, 0
3, 9000, Note_on_c, 1, 76, 0
3, 9000, Note_on_c, 1, 64, 0
3, 9000, Note_on_c, 1, 43, 100
3, 9000, Note_on_c, 1, 55, 100
3, 9060, Note_on_c, 1, 71, 0
3, 9060, Note_on_c, 1, 67, 0
3, 9060, Note_on_c, 1, 65, 86
3, 9060, Note_on_c, 1, 53, 86
3, 9120, Note_on_c, 1, 55, 0
3, 9120, Note_on_c, 1, 70, 86
3, 9120, Note_on_c, 1, 58, 86
3, 9180, Note_on_c, 1, 74, 86
3, 9180, Note_on_c, 1, 62, 86
3, 9240, Note_on_c, 1, 58, 0
3, 9240, Note_on_c, 1, 70, 0
3, 9240, Note_on_c, 1, 70, 86
3, 9240, Note_on_c, 1, 58, 86
3, 9300, Note_on_c, 1, 53, 0
3, 9300, Note_on_c, 1, 65, 0
3, 9300, Note_on_c, 1, 65, 86
3, 9300, Note_on_c, 1, 53, 86
3, 9360, Note_on_c, 1, 74, 0
3, 9360, Note_on_c, 1, 62, 0
3, 9360, Note_on_c, 1, 75, 86
3, 9360, Note_on_c, 1, 63, 86
3, 9420, Note_on_c, 1, 70, 0
3, 9420, Note_on_c, 1, 58, 0
3, 9420, Note_on_c, 1, 70, 86
3, 9420, Note_on_c, 1, 58, 86
3, 9480, Note_on_c, 1, 65, 0
3, 9480, Note_on_c, 1, 53, 0
3, 9480, Note_on_c, 1, 65, 86
3, 9480, Note_on_c, 1, 53, 86
3, 9540, Note_on_c, 1, 75, 0
3, 9540, Note_on_c, 1, 63, 0
3, 9540, Note_on_c, 1, 74, 86
3, 9540, Note_on_c, 1, 62, 86
3, 9600, Note_on_c, 1, 70, 0
3, 9600, Note_on_c, 1, 58, 0
3, 9600, Note_on_c, 1, 70, 86
3, 9600, Note_on_c, 1, 58, 86
3, 9660, Note_on_c, 1, 65, 0
3, 9660, Note_on_c, 1, 53, 0
3, 9660, Note_on_c, 1, 65, 86
3, 9660, Note_on_c, 1, 53, 86
3, 9720, Note_on_c, 1, 74, 0
3, 9720, Note_on_c, 1, 43, 0
3, 9720, Note_on_c, 1, 62, 0
3, 9720, Note_on_c, 1, 58, 0
3, 9720, Note_on_c, 1, 58, 101
3, 9720, Note_on_c, 1, 46, 101
3, 9780, Note_on_c, 1, 70, 0
3, 9780, Note_on_c, 1, 68, 90
3, 9780, Note_on_c, 1, 56, 90
3, 9840, Note_on_c, 1, 58, 0
3, 9840, Note_on_c, 1, 65, 0
3, 9840, Note_on_c, 1, 53, 0
3, 9840, Note_on_c, 1, 58, 90
3, 9840, Note_on_c, 1, 70, 90
3, 9900, Note_on_c, 1, 77, 90
3, 9900, Note_on_c, 1, 65, 90
3, 9960, Note_on_c, 1, 70, 0
3, 9960, Note_on_c, 1, 58, 0
3, 9960, Note_on_c, 1, 68, 0
3, 9960, Note_on_c, 1, 58, 90
3, 9960, Note_on_c, 1, 70, 90
3, 10020, Note_on_c, 1, 56, 0
3, 10020, Note_on_c, 1, 56, 90
3, 10020, Note_on_c, 1, 68, 90
3, 10080, Note_on_c, 1, 77, 0
3, 10080, Note_on_c, 1, 65, 0
3, 10080, Note_on_c, 1, 63, 90
3, 10080, Note_on_c, 1, 75, 90
3, 10140, Note_on_c, 1, 70, 0
3, 10140, Note_on_c, 1, 58, 0
3, 10140, Note_on_c, 1, 58, 90
3, 10140, Note_on_c, 1, 70, 90
3, 10200, Note_on_c, 1, 56, 0
3, 10200, Note_on_c, 1, 68, 0
3, 10200, Note_on_c, 1, 68, 90
3, 10200, Note_on_c, 1, 56, 90
3, 10260, Note_on_c, 1, 63, 0
3, 10260, Note_on_c, 1, 75, 0
3, 10260, Note_on_c, 1, 65, 90
3, 10260, Note_on_c, 1, 77, 90
3, 10320, Note_on_c, 1, 58, 0
3, 10320, Note_on_c, 1, 70, 0
3, 10320, Note_on_c, 1, 58, 90
3, 10320, Note_on_c, 1, 70, 90
3, 10380, Note_on_c, 1, 68, 0
3, 10380, Note_on_c, 1, 56, 0
3, 10380, Note_on_c, 1, 68, 90
3, 10380, Note_on_c, 1, 56, 90
3, 10440, Note_on_c, 1, 46, 0
3, 10440, Note_on_c, 1, 65, 0
3, 10440, Note_on_c, 1, 77, 0
3, 10440, Note_on_c, 1, 39, 101
3, 10440, Note_on_c, 1, 51, 101
3, 10500, Note_on_c, 1, 56, 0
3, 10500, Note_on_c, 1, 70, 0
3, 10500, Note_on_c, 1, 68, 0
3, 10500, Note_on_c, 1, 55, 86
3, 10500, Note_on_c, 1, 67, 86
3, 10560, Note_on_c, 1, 58, 0
3, 10560, Note_on_c, 1, 58, 86
3, 10560, Note_on_c, 1, 70, 86
3, 10620, Note_on_c, 1, 75, 86
3, 10620, Note_on_c, 1, 63, 86
3, 10680, Note_on_c, 1, 70, 0
3, 10680, Note_on_c, 1, 67, 0
3, 10680, Note_on_c, 1, 58, 0
3, 10680, Note_on_c, 1, 58, 86
3, 10680, Note_on_c, 1, 70, 86
3, 10740, Note_on_c, 1, 55, 0
3, 10740, Note_on_c, 1, 55, 86
3, 10740, Note_on_c, 1, 67, 86
3, 10800, Note_on_c, 1, 63, 0
3, 10800, Note_on_c, 1, 75, 0
3, 10800, Note_on_c, 1, 65, 86
3, 10800, Note_on_c, 1, 77, 86
3, 10860, Note_on_c, 1, 70, 0
3, 10860, Note_on_c, 1, 58, 0
3, 10860, Note_on_c, 1, 58, 86
3, 10860, Note_on_c, 1, 70, 86
3, 10920, Note_on_c, 1, 55, 0
3, 10920, Note_on_c, 1, 67, 0
3, 10920, Note_on_c, 1, 55, 86
3, 10920, Note_on_c, 1, 67, 86
3, 10980, Note_on_c, 1, 65, 0
3, 10980, Note_on_c, 1, 77, 0
3, 10980, Note_on_c, 1, 63, 86
3, 10980, Note_on_c, 1, 75, 86
3, 11040, Note_on_c, 1, 58, 0
3, 11040, Note_on_c, 1, 70, 0
3, 11040, Note_on_c, 1, 58, 86
3, 11040, Note_on_c, 1, 70, 86
3, 11100, Note_on_c, 1, 55, 0
3, 11100, Note_on_c, 1, 67, 0
3, 11100, Note_on_c, 1, 55, 86
3, 11100, Note_on_c, 1, 67, 86
3, 11160, Note_on_c, 1, 58, 0
3, 11160, Note_on_c, 1, 63, 0
3, 11160, Note_on_c, 1, 75, 0
3, 11160, Note_on_c, 1, 51, 0
3, 11160, Note_on_c, 1, 39, 0
3, 11160, Note_on_c, 1, 58, 101
3, 11160, Note_on_c, 1, 46, 101
3, 11220, Note_on_c, 1, 70, 0
3, 11220, Note_on_c, 1, 68, 90
3, 11220, Note_on_c, 1, 56, 90
3, 11280, Note_on_c, 1, 58, 0
3, 11280, Note_on_c, 1, 67, 0
3, 11280, Note_on_c, 1, 55, 0
3, 11280, Note_on_c, 1, 58, 90
3, 11280, Note_on_c, 1, 70, 90
3, 11340, Note_on_c, 1, 77, 90
3, 11340, Note_on_c, 1, 65, 90
3, 11400, Note_on_c, 1, 70, 0
3, 11400, Note_on_c, 1, 58, 0
3, 11400, Note_on_c, 1, 68, 0
3, 11400, Note_on_c, 1, 58, 90
3, 11400, Note_on_c, 1, 70, 90
3, 11460, Note_on_c, 1, 56, 0
3, 11460, Note_on_c, 1, 56, 90
3, 11460, Note_on_c, 1, 68, 90
3, 11520, Note_on_c, 1, 77, 0
3, 11520, Note_on_c, 1, 65, 0
3, 11520, Note_on_c, 1, 63, 90
3, 11520, Note_on_c, 1, 75, 90
3, 11580, Note_on_c, 1, 70, 0
3, 11580, Note_on_c, 1, 58, 0
3, 11580, Note_on_c, 1, 58, 90
3, 11580, Note_on_c, 1, 70, 90
3, 11640, Note_on_c, 1, 56, 0
3, 11640, Note_on_c, 1, 68, 0
3, 11640, Note_on_c, 1, 68, 90
3, 11640, Note_on_c, 1, 56, 90
3, 11700, Note_on_c, 1, 63, 0
3, 11700, Note_on_c, 1, 75, 0
3, 11700, Note_on_c, 1, 65, 90
3, 11700, Note_on_c, 1, 77, 90
3, 11760, Note_on_c, 1, 58, 0
3, 11760, Note_on_c, 1, 70, 0
3, 11760, Note_on_c, 1, 58, 90
3, 11760, Note_on_c, 1, 70, 90
3, 11820, Note_on_c, 1, 68, 0
3, 11820, Note_on_c, 1, 56, 0
3, 11820, Note_on_c, 1, 68, 90
3, 11820, Note_on_c, 1, 56, 90
3, 11880, Note_on_c, 1, 46, 0
3, 11880, Note_on_c, 1, 65, 0
3, 11880, Note_on_c, 1, 77, 0
3, 11880, Note_on_c, 1, 39, 100
3, 11880, Note_on_c, 1, 51, 100
3, 11940, Note_on_c, 1, 56, 0
3, 11940, Note_on_c, 1, 70, 0
3, 11940, Note_on_c, 1, 68, 0
3, 11940, Note_on_c, 1, 55, 86
3, 11940, Note_on_c, 1, 67, 86
3, 12000, Note_on_c, 1, 58, 0
3, 12000, Note_on_c, 1, 58, 86
3, 12000, Note_on_c, 1, 70, 86
3, 12060, Note_on_c, 1, 75, 86
3, 12060, Note_on_c, 1, 63, 86
3, 12120, Note_on_c, 1, 70, 0
3, 12120, Note_on_c, 1, 67, 0
3, 12120, Note_on_c, 1, 58, 0
3, 12120, Note_on_c, 1, 58, 86
3, 12120, Note_on_c, 1, 70, 86
3, 12180, Note_on_c, 1, 55, 0
3, 12180, Note_on_c, 1, 55, 86
3, 12180, Note_on_c, 1, 67, 86
3, 12240, Note_on_c, 1, 63, 0
3, 12240, Note_on_c, 1, 75, 0
3, 12240, Note_on_c, 1, 65, 86
3, 12240, Note_on_c, 1, 77, 86
3, 12300, Note_on_c, 1, 70, 0
3, 12300, Note_on_c, 1, 58, 0
3, 12300, Note_on_c, 1, 58, 86
3, 12300, Note_on_c, 1, 70, 86
3, 12360, Note_on_c, 1, 55, 0
3, 12360, Note_on_c, 1, 67, 0
3, 12360, Note_on_c, 1, 55, 86
3, 12360, Note_on_c, 1, 67, 86
3, 12420, Note_on_c, 1, 65, 0
3, 12420, Note_on_c, 1, 77, 0
3, 12420, Note_on_c, 1, 63, 86
3, 12420, Note_on_c, 1, 75, 86
3, 12480, Note_on_c, 1, 58, 0
3, 12480, Note_on_c, 1, 70, 0
3, 12480, Note_on_c, 1, 58, 86
3, 12480, Note_on_c, 1, 70, 86
3, 12540, Note_on_c, 1, 55, 0
3, 12540, Note_on_c, 1, 67, 0
3, 12540, Note_on_c, 1, 55, 86
3, 12540, Note_on_c, 1, 67, 86
3, 12600, Note_on_c, 1, 58, 0
3, 12600, Note_on_c, 1, 63, 0
3, 12600, Note_on_c, 1, 75, 0
3, 12600, Note_on_c, 1, 51, 0
3, 12600, Note_on_c, 1, 39, 0
3, 12600, Note_on_c, 1, 58, 101
3, 12600, Note_on_c, 1, 46, 101
3, 12660, Note_on_c, 1, 67, 0
3, 12660, Note_on_c, 1, 70, 0
3, 12660, Note_on_c, 1, 55, 0
3, 12660, Note_on_c, 1, 68, 90
3, 12660, Note_on_c, 1, 56, 90
3, 12720, Note_on_c, 1, 58, 0
3, 12720, Note_on_c, 1, 58, 90
3, 12720, Note_on_c, 1, 70, 90
3, 12780, Note_on_c, 1, 77, 90
3, 12780, Note_on_c, 1, 65, 90
3, 12840, Note_on_c, 1, 70, 0
3, 12840, Note_on_c, 1, 58, 0
3, 12840, Note_on_c, 1, 68, 0
3, 12840, Note_on_c, 1, 58, 90
3, 12840, Note_on_c, 1, 70, 90
3, 12900, Note_on_c, 1, 56, 0
3, 12900, Note_on_c, 1, 56, 90
3, 12900, Note_on_c, 1, 68, 90
3, 12960, Note_on_c, 1, 77, 0
3, 12960, Note_on_c, 1, 65, 0
3, 12960, Note_on_c, 1, 63, 90
3, 12960, Note_on_c, 1, 75, 90
3, 13020, Note_on_c, 1, 70, 0
3, 13020, Note_on_c, 1, 58, 0
3, 13020, Note_on_c, 1, 58, 90
3, 13020, Note_on_c, 1, 70, 90
3, 13080, Note_on_c, 1, 56, 0
3, 13080, Note_on_c, 1, 68, 0
3, 13080, Note_on_c, 1, 68, 90
3, 13080, Note_on_c, 1, 56, 90
3, 13140, Note_on_c, 1, 63, 0
3, 13140, Note_on_c, 1, 75, 0
3, 13140, Note_on_c, 1, 65, 90
3, 13140, Note_on_c, 1, 77, 90
3, 13200, Note_on_c, 1, 58, 0
3, 13200, Note_on_c, 1, 70, 0
3, 13200, Note_on_c, 1, 58, 90
3, 13200, Note_on_c, 1, 70, 90
3, 13260, Note_on_c, 1, 68, 0
3, 13260, Note_on_c, 1, 56, 0
3, 13260, Note_on_c, 1, 68, 90
3, 13260, Note_on_c, 1, 56, 90
3, 13320, Note_on_c, 1, 46, 0
3, 13320, Note_on_c, 1, 65, 0
3, 13320, Note_on_c, 1, 77, 0
3, 13320, Note_on_c, 1, 39, 100
3, 13320, Note_on_c, 1, 51, 100
3, 13380, Note_on_c, 1, 56, 0
3, 13380, Note_on_c, 1, 70, 0
3, 13380, Note_on_c, 1, 68, 0
3, 13380, Note_on_c, 1, 55, 86
3, 13380, Note_on_c, 1, 67, 86
3, 13440, Note_on_c, 1, 58, 0
3, 13440, Note_on_c, 1, 58, 86
3, 13440, Note_on_c, 1, 70, 86
3, 13500, Note_on_c, 1, 75, 86
3, 13500, Note_on_c, 1, 63, 86
3, 13560, Note_on_c, 1, 70, 0
3, 13560, Note_on_c, 1, 67, 0
3, 13560, Note_on_c, 1, 58, 0
3, 13560, Note_on_c, 1, 58, 86
3, 13560, Note_on_c, 1, 70, 86
3, 13620, Note_on_c, 1, 55, 0
3, 13620, Note_on_c, 1, 55, 86
3, 13620, Note_on_c, 1, 67, 86
3, 13680, Note_on_c, 1, 63, 0
3, 13680, Note_on_c, 1, 75, 0
3, 13680, Note_on_c, 1, 65, 86
3, 13680, Note_on_c, 1, 77, 86
3, 13740, Note_on_c, 1, 70, 0
3, 13740, Note_on_c, 1, 58, 0
3, 13740, Note_on_c, 1, 58, 86
3, 13740, Note_on_c, 1, 70, 86
3, 13800, Note_on_c, 1, 55, 0
3, 13800, Note_on_c, 1, 67, 0
3, 13800, Note_on_c, 1, 55, 86
3, 13800, Note_on_c, 1, 67, 86
3, 13860, Note_on_c, 1, 65, 0
3, 13860, Note_on_c, 1, 77, 0
3, 13860, Note_on_c, 1, 63, 86
3, 13860, Note_on_c, 1, 75, 86
3, 13920, Note_on_c, 1, 58, 0
3, 13920, Note_on_c, 1, 70, 0
3, 13920, Note_on_c, 1, 58, 86
3, 13920, Note_on_c, 1, 70, 86
3, 13980, Note_on_c, 1, 55, 0
3, 13980, Note_on_c, 1, 67, 0
3, 13980, Note_on_c, 1, 55, 86
3, 13980, Note_on_c, 1, 67, 86
3, 14040, Note_on_c, 1, 55, 0
3, 14040, Note_on_c, 1, 63, 0
3, 14040, Note_on_c, 1, 39, 0
3, 14040, Note_on_c, 1, 75, 0
3, 14040, Note_on_c, 1, 51, 0
3, 14040, Note_on_c, 1, 58, 0
3, 14040, Note_on_c, 1, 42, 100
3, 14040, Note_on_c, 1, 54, 100
3, 14100, Note_on_c, 1, 70, 0
3, 14100, Note_on_c, 1, 49, 86
3, 14100, Note_on_c, 1, 61, 86
3, 14160, Note_on_c, 1, 67, 0
3, 14160, Note_on_c, 1, 56, 86
3, 14160, Note_on_c, 1, 68, 86
3, 14220, Note_on_c, 1, 58, 86
3, 14220, Note_on_c, 1, 70, 86
3, 14280, Note_on_c, 1, 68, 0
3, 14280, Note_on_c, 1, 49, 0
3, 14280, Note_on_c, 1, 61, 0
3, 14280, Note_on_c, 1, 56, 0
3, 14280, Note_on_c, 1, 56, 86
3, 14280, Note_on_c, 1, 68, 86
3, 14340, Note_on_c, 1, 49, 86
3, 14340, Note_on_c, 1, 61, 86
3, 14400, Note_on_c, 1, 54, 0
3, 14400, Note_on_c, 1, 58, 0
3, 14400, Note_on_c, 1, 70, 0
3, 14400, Note_on_c, 1, 42, 0
3, 14400, Note_on_c, 1, 53, 102
3, 14400, Note_on_c, 1, 41, 102
3, 14460, Note_on_c, 1, 56, 0
3, 14460, Note_on_c, 1, 68, 0
3, 14460, Note_on_c, 1, 51, 86
3, 14460, Note_on_c, 1, 63, 86
3, 14520, Note_on_c, 1, 49, 0
3, 14520, Note_on_c, 1, 61, 0
3, 14520, Note_on_c, 1, 56, 86
3, 14520, Note_on_c, 1, 68, 86
3, 14580, Note_on_c, 1, 60, 86
3, 14580, Note_on_c, 1, 72, 86
3, 14640, Note_on_c, 1, 68, 0
3, 14640, Note_on_c, 1, 56, 0
3, 14640, Note_on_c, 1, 56, 86
3, 14640, Note_on_c, 1, 68, 86
3, 14700, Note_on_c, 1, 51, 0
3, 14700, Note_on_c, 1, 63, 0
3, 14700, Note_on_c, 1, 51, 86
3, 14700, Note_on_c, 1, 63, 86
3, 14760, Note_on_c, 1, 60, 0
3, 14760, Note_on_c, 1, 72, 0
3, 14760, Note_on_c, 1, 41, 0
3, 14760, Note_on_c, 1, 53, 0
3, 14760, Note_on_c, 1, 46, 100
3, 14760, Note_on_c, 1, 58, 100
3, 14790, Note_on_c, 1, 56, 0
3, 14790, Note_on_c, 1, 68, 0
3, 14820, Note_on_c, 1, 63, 0
3, 14820, Note_on_c, 1, 51, 0
3, 14820, Note_on_c, 1, 53, 86
3, 14820, Note_on_c, 1, 65, 86
3, 14880, Note_on_c, 1, 58, 0
3, 14880, Note_on_c, 1, 58, 86
3, 14880, Note_on_c, 1, 70, 86
3, 14940, Note_on_c, 1, 63, 86
3, 14940, Note_on_c, 1, 75, 86
3, 15000, Note_on_c, 1, 70, 0
3, 15000, Note_on_c, 1, 58, 0
3, 15000, Note_on_c, 1, 58, 86
3, 15000, Note_on_c, 1, 70, 86
3, 15060, Note_on_c, 1, 65, 0
3, 15060, Note_on_c, 1, 53, 0
3, 15060, Note_on_c, 1, 53, 86
3, 15060, Note_on_c, 1, 65, 86
3, 15120, Note_on_c, 1, 63, 0
3, 15120, Note_on_c, 1, 75, 0
3, 15120, Note_on_c, 1, 60, 86
3, 15120, Note_on_c, 1, 72, 86
3, 15180, Note_on_c, 1, 58, 0
3, 15180, Note_on_c, 1, 70, 0
3, 15180, Note_on_c, 1, 58, 86
3, 15180, Note_on_c, 1, 70, 86
3, 15240, Note_on_c, 1, 53, 0
3, 15240, Note_on_c, 1, 65, 0
3, 15240, Note_on_c, 1, 53, 86
3, 15240, Note_on_c, 1, 65, 86
3, 15300, Note_on_c, 1, 60, 0
3, 15300, Note_on_c, 1, 72, 0
3, 15300, Note_on_c, 1, 62, 86
3, 15300, Note_on_c, 1, 74, 86
3, 15360, Note_on_c, 1, 58, 0
3, 15360, Note_on_c, 1, 70, 0
3, 15360, Note_on_c, 1, 58, 86
3, 15360, Note_on_c, 1, 70, 86
3, 15420, Note_on_c, 1, 53, 0
3, 15420, Note_on_c, 1, 65, 0
3, 15420, Note_on_c, 1, 53, 86
3, 15420, Note_on_c, 1, 65, 86
3, 15480, Note_on_c, 1, 58, 0
3, 15480, Note_on_c, 1, 62, 0
3, 15480, Note_on_c, 1, 46, 0
3, 15480, Note_on_c, 1, 74, 0
3, 15480, Note_on_c, 1, 70, 0
3, 15480, Note_on_c, 1, 46, 101
3, 15480, Note_on_c, 1, 58, 101
3, 15540, Note_on_c, 1, 65, 0
3, 15540, Note_on_c, 1, 53, 0
3, 15540, Note_on_c, 1, 53, 86
3, 15540, Note_on_c, 1, 65, 86
3, 15600, Note_on_c, 1, 58, 0
3, 15600, Note_on_c, 1, 58, 86
3, 15600, Note_on_c, 1, 70, 86
3, 15660, Note_on_c, 1, 63, 86
3, 15660, Note_on_c, 1, 75, 86
3, 15720, Note_on_c, 1, 70, 0
3, 15720, Note_on_c, 1, 58, 0
3, 15720, Note_on_c, 1, 58, 86
3, 15720, Note_on_c, 1, 70, 86
3, 15780, Note_on_c, 1, 65, 0
3, 15780, Note_on_c, 1, 53, 0
3, 15780, Note_on_c, 1, 53, 86
3, 15780, Note_on_c, 1, 65, 86
3, 15840, Note_on_c, 1, 63, 0
3, 15840, Note_on_c, 1, 75, 0
3, 15840, Note_on_c, 1, 60, 86
3, 15840, Note_on_c, 1, 72, 86
3, 15900, Note_on_c, 1, 58, 0
3, 15900, Note_on_c, 1, 70, 0
3, 15900, Note_on_c, 1, 58, 86
3, 15900, Note_on_c, 1, 70, 86
3, 15960, Note_on_c, 1, 53, 0
3, 15960, Note_on_c, 1, 65, 0
3, 15960, Note_on_c, 1, 53, 86
3, 15960, Note_on_c, 1, 65, 86
3, 16020, Note_on_c, 1, 60, 0
3, 16020, Note_on_c, 1, 72, 0
3, 16020, Note_on_c, 1, 62, 86
3, 16020, Note_on_c, 1, 74, 86
3, 16080, Note_on_c, 1, 58, 0
3, 16080, Note_on_c, 1, 70, 0
3, 16080, Note_on_c, 1, 58, 86
3, 16080, Note_on_c, 1, 70, 86
3, 16140, Note_on_c, 1, 53, 0
3, 16140, Note_on_c, 1, 65, 0
3, 16140, Note_on_c, 1, 53, 86
3, 16140, Note_on_c, 1, 65, 86
3, 16200, Note_on_c, 1, 58, 0
3, 16200, Note_on_c, 1, 62, 0
3, 16200, Note_on_c, 1, 46, 0
3, 16200, Note_on_c, 1, 74, 0
3, 16200, Note_on_c, 1, 70, 0
3, 16200, Note_on_c, 1, 46, 99
3, 16260, Note_on_c, 1, 65, 0
3, 16260, Note_on_c, 1, 53, 0
3, 16260, Note_on_c, 1, 53, 86
3, 16260, Note_on_c, 1, 65, 86
3, 16320, Note_on_c, 1, 58, 86
3, 16320, Note_on_c, 1, 70, 86
3, 16380, Note_on_c, 1, 63, 86
3, 16380, Note_on_c, 1, 75, 86
3, 16440, Note_on_c, 1, 62, 86
3, 16440, Note_on_c, 1, 74, 86
3, 16500, Note_on_c, 1, 75, 0
3, 16500, Note_on_c, 1, 58, 0
3, 16500, Note_on_c, 1, 63, 0
3, 16500, Note_on_c, 1, 70, 0
3, 16500, Note_on_c, 1, 58, 86
3, 16500, Note_on_c, 1, 70, 86
3, 16560, Note_on_c, 1, 62, 0
3, 16560, Note_on_c, 1, 74, 0
3, 16560, Note_on_c, 1, 63, 86
3, 16560, Note_on_c, 1, 75, 86
3, 16620, Note_on_c, 1, 62, 86
3, 16620, Note_on_c, 1, 74, 86
3, 16680, Note_on_c, 1, 75, 0
3, 16680, Note_on_c, 1, 63, 0
3, 16680, Note_on_c, 1, 70, 0
3, 16680, Note_on_c, 1, 58, 0
3, 16680, Note_on_c, 1, 58, 86
3, 16680, Note_on_c, 1, 70, 86
3, 16740, Note_on_c, 1, 74, 0
3, 16740, Note_on_c, 1, 62, 0
3, 16740, Note_on_c, 1, 63, 86
3, 16740, Note_on_c, 1, 75, 86
3, 16800, Note_on_c, 1, 62, 86
3, 16800, Note_on_c, 1, 74, 86
3, 16860, Note_on_c, 1, 75, 0
3, 16860, Note_on_c, 1, 63, 0
3, 16860, Note_on_c, 1, 70, 0
3, 16860, Note_on_c, 1, 58, 0
3, 16860, Note_on_c, 1, 58, 86
3, 16920, Note_on_c, 1, 53, 0
3, 16920, Note_on_c, 1, 74, 0
3, 16920, Note_on_c, 1, 65, 0
3, 16920, Note_on_c, 1, 62, 0
3, 16920, Note_on_c, 1, 46, 0
3, 16920, Note_on_c, 1, 41, 102
3, 16920, Note_on_c, 1, 53, 102
3, 16980, Note_on_c, 1, 51, 86
3, 16980, Note_on_c, 1, 63, 86
3, 17040, Note_on_c, 1, 53, 0
3, 17040, Note_on_c, 1, 58, 0
3, 17040, Note_on_c, 1, 56, 86
3, 17040, Note_on_c, 1, 68, 86
3, 17100, Note_on_c, 1, 65, 86
3, 17100, Note_on_c, 1, 77, 86
3, 17160, Note_on_c, 1, 60, 86
3, 17160, Note_on_c, 1, 72, 86
3, 17220, Note_on_c, 1, 68, 0
3, 17220, Note_on_c, 1, 56, 0
3, 17220, Note_on_c, 1, 56, 86
3, 17220, Note_on_c, 1, 68, 86
3, 17280, Note_on_c, 1, 77, 0
3, 17280, Note_on_c, 1, 65, 0
3, 17280, Note_on_c, 1, 65, 86
3, 17280, Note_on_c, 1, 77, 86
3, 17340, Note_on_c, 1, 60, 0
3, 17340, Note_on_c, 1, 72, 0
3, 17340, Note_on_c, 1, 60, 86
3, 17340, Note_on_c, 1, 72, 86
3, 17400, Note_on_c, 1, 56, 0
3, 17400, Note_on_c, 1, 68, 0
3, 17400, Note_on_c, 1, 56, 86
3, 17400, Note_on_c, 1, 68, 86
3, 17460, Note_on_c, 1, 65, 0
3, 17460, Note_on_c, 1, 77, 0
3, 17460, Note_on_c, 1, 65, 86
3, 17460, Note_on_c, 1, 77, 86
3, 17520, Note_on_c, 1, 60, 0
3, 17520, Note_on_c, 1, 72, 0
3, 17520, Note_on_c, 1, 60, 86
3, 17520, Note_on_c, 1, 72, 86
3, 17580, Note_on_c, 1, 56, 0
3, 17580, Note_on_c, 1, 68, 0
3, 17580, Note_on_c, 1, 56, 86
3, 17580, Note_on_c, 1, 68, 86
3, 17640, Note_on_c, 1, 65, 0
3, 17640, Note_on_c, 1, 41, 0
3, 17640, Note_on_c, 1, 77, 0
3, 17640, Note_on_c, 1, 63, 0
3, 17640, Note_on_c, 1, 51, 0
3, 17640, Note_on_c, 1, 46, 99
3, 17700, Note_on_c, 1, 60, 0
3, 17700, Note_on_c, 1, 72, 0
3, 17700, Note_on_c, 1, 53, 86
3, 17700, Note_on_c, 1, 65, 86
3, 17760, Note_on_c, 1, 68, 0
3, 17760, Note_on_c, 1, 56, 0
3, 17760, Note_on_c, 1, 58, 86
3, 17760, Note_on_c, 1, 70, 86
3, 17820, Note_on_c, 1, 63, 86
3, 17820, Note_on_c, 1, 75, 86
3, 17880, Note_on_c, 1, 62, 86
3, 17880, Note_on_c, 1, 74, 86
3, 17940, Note_on_c, 1, 75, 0
3, 17940, Note_on_c, 1, 58, 0
3, 17940, Note_on_c, 1, 63, 0
3, 17940, Note_on_c, 1, 70, 0
3, 17940, Note_on_c, 1, 58, 86
3, 17940, Note_on_c, 1, 70, 86
3, 18000, Note_on_c, 1, 62, 0
3, 18000, Note_on_c, 1, 74, 0
3, 18000, Note_on_c, 1, 63, 86
3, 18000, Note_on_c, 1, 75, 86
3, 18060, Note_on_c, 1, 62, 86
3, 18060, Note_on_c, 1, 74, 86
3, 18120, Note_on_c, 1, 75, 0
3, 18120, Note_on_c, 1, 63, 0
3, 18120, Note_on_c, 1, 70, 0
3, 18120, Note_on_c, 1, 58, 0
3, 18120, Note_on_c, 1, 58, 86
3, 18120, Note_on_c, 1, 70, 86
3, 18180, Note_on_c, 1, 74, 0
3, 18180, Note_on_c, 1, 62, 0
3, 18180, Note_on_c, 1, 63, 86
3, 18180, Note_on_c, 1, 75, 86
3, 18240, Note_on_c, 1, 62, 86
3, 18240, Note_on_c, 1, 74, 86
3, 18300, Note_on_c, 1, 75, 0
3, 18300, Note_on_c, 1, 63, 0
3, 18300, Note_on_c, 1, 70, 0
3, 18300, Note_on_c, 1, 58, 0
3, 18300, Note_on_c, 1, 58, 86
3, 18360, Note_on_c, 1, 53, 0
3, 18360, Note_on_c, 1, 74, 0
3, 18360, Note_on_c, 1, 46, 0
3, 18360, Note_on_c, 1, 62, 0
3, 18360, Note_on_c, 1, 65, 0
3, 18360, Note_on_c, 1, 41, 102
3, 18360, Note_on_c, 1, 53, 102
3, 18420, Note_on_c, 1, 51, 86
3, 18420, Note_on_c, 1, 63, 86
3, 18480, Note_on_c, 1, 53, 0
3, 18480, Note_on_c, 1, 58, 0
3, 18480, Note_on_c, 1, 56, 86
3, 18480, Note_on_c, 1, 68, 86
3, 18540, Note_on_c, 1, 65, 86
3, 18540, Note_on_c, 1, 77, 86
3, 18600, Note_on_c, 1, 60, 86
3, 18600, Note_on_c, 1, 72, 86
3, 18660, Note_on_c, 1, 68, 0
3, 18660, Note_on_c, 1, 56, 0
3, 18660, Note_on_c, 1, 56, 86
3, 18660, Note_on_c, 1, 68, 86
3, 18720, Note_on_c, 1, 77, 0
3, 18720, Note_on_c, 1, 65, 0
3, 18720, Note_on_c, 1, 65, 86
3, 18720, Note_on_c, 1, 77, 86
3, 18780, Note_on_c, 1, 60, 0
3, 18780, Note_on_c, 1, 72, 0
3, 18780, Note_on_c, 1, 60, 86
3, 18780, Note_on_c, 1, 72, 86
3, 18840, Note_on_c, 1, 56, 0
3, 18840, Note_on_c, 1, 68, 0
3, 18840, Note_on_c, 1, 56, 86
3, 18840, Note_on_c, 1, 68, 86
3, 18900, Note_on_c, 1, 65, 0
3, 18900, Note_on_c, 1, 77, 0
3, 18900, Note_on_c, 1, 65, 86
3, 18900, Note_on_c, 1, 77, 86
3, 18960, Note_on_c, 1, 60, 0
3, 18960, Note_on_c, 1, 72, 0
3, 18960, Note_on_c, 1, 60, 86
3, 18960, Note_on_c, 1, 72, 86
3, 19020, Note_on_c, 1, 56, 0
3, 19020, Note_on_c, 1, 68, 0
3, 19020, Note_on_c, 1, 56, 86
3, 19020, Note_on_c, 1, 68, 86
3, 19080, Note_on_c, 1, 65, 0
3, 19080, Note_on_c, 1, 41, 0
3, 19080, Note_on_c, 1, 77, 0
3, 19080, Note_on_c, 1, 63, 0
3, 19080, Note_on_c, 1, 51, 0
3, 19080, Note_on_c, 1, 46, 99
3, 19140, Note_on_c, 1, 60, 0
3, 19140, Note_on_c, 1, 72, 0
3, 19140, Note_on_c, 1, 53, 86
3, 19140, Note_on_c, 1, 65, 86
3, 19200, Note_on_c, 1, 68, 0
3, 19200, Note_on_c, 1, 56, 0
3, 19200, Note_on_c, 1, 58, 86
3, 19200, Note_on_c, 1, 70, 86
3, 19260, Note_on_c, 1, 63, 86
3, 19260, Note_on_c, 1, 75, 86
3, 19320, Note_on_c, 1, 62, 86
3, 19320, Note_on_c, 1, 74, 86
3, 19380, Note_on_c, 1, 75, 0
3, 19380, Note_on_c, 1, 58, 0
3, 19380, Note_on_c, 1, 63, 0
3, 19380, Note_on_c, 1, 70, 0
3, 19380, Note_on_c, 1, 58, 86
3, 19380, Note_on_c, 1, 70, 86
3, 19440, Note_on_c, 1, 62, 0
3, 19440, Note_on_c, 1, 74, 0
3, 19440, Note_on_c, 1, 63, 86
3, 19440, Note_on_c, 1, 75, 86
3, 19500, Note_on_c, 1, 62, 86
3, 19500, Note_on_c, 1, 74, 86
3, 19560, Note_on_c, 1, 75, 0
3, 19560, Note_on_c, 1, 63, 0
3, 19560, Note_on_c, 1, 70, 0
3, 19560, Note_on_c, 1, 58, 0
3, 19560, Note_on_c, 1, 58, 86
3, 19560, Note_on_c, 1, 70, 86
3, 19620, Note_on_c, 1, 74, 0
3, 19620, Note_on_c, 1, 62, 0
3, 19620, Note_on_c, 1, 63, 86
3, 19620, Note_on_c, 1, 75, 86
3, 19680, Note_on_c, 1, 62, 86
3, 19680, Note_on_c, 1, 74, 86
3, 19740, Note_on_c, 1, 75, 0
3, 19740, Note_on_c, 1, 63, 0
3, 19740, Note_on_c, 1, 70, 0
3, 19740, Note_on_c, 1, 58, 0
3, 19740, Note_on_c, 1, 58, 86
3, 19800, Note_on_c, 1, 53, 0
3, 19800, Note_on_c, 1, 74, 0
3, 19800, Note_on_c, 1, 46, 0
3, 19800, Note_on_c, 1, 62, 0
3, 19800, Note_on_c, 1, 65, 0
3, 19800, Note_on_c, 1, 41, 102
3, 19800, Note_on_c, 1, 53, 102
3, 19860, Note_on_c, 1, 51, 86
3, 19860, Note_on_c, 1, 63, 86
3, 19920, Note_on_c, 1, 53, 0
3, 19920, Note_on_c, 1, 58, 0
3, 19920, Note_on_c, 1, 56, 86
3, 19920, Note_on_c, 1, 68, 86
3, 19980, Note_on_c, 1, 65, 86
3, 19980, Note_on_c, 1, 77, 86
3, 20040, Note_on_c, 1, 60, 86
3, 20040, Note_on_c, 1, 72, 86
3, 20100, Note_on_c, 1, 68, 0
3, 20100, Note_on_c, 1, 56, 0
3, 20100, Note_on_c, 1, 56, 86
3, 20100, Note_on_c, 1, 68, 86
3, 20160, Note_on_c, 1, 77, 0
3, 20160, Note_on_c, 1, 65, 0
3, 20160, Note_on_c, 1, 65, 86
3, 20160, Note_on_c, 1, 77, 86
3, 20220, Note_on_c, 1, 60, 0
3, 20220, Note_on_c, 1, 72, 0
3, 20220, Note_on_c, 1, 60, 86
3, 20220, Note_on_c, 1, 72, 86
3, 20280, Note_on_c, 1, 56, 0
3, 20280, Note_on_c, 1, 68, 0
3, 20280, Note_on_c, 1, 56, 86
3, 20280, Note_on_c, 1, 68, 86
3, 20340, Note_on_c, 1, 65, 0
3, 20340, Note_on_c, 1, 77, 0
3, 20340, Note_on_c, 1, 65, 86
3, 20340, Note_on_c, 1, 77, 86
3, 20400, Note_on_c, 1, 60, 0
3, 20400, Note_on_c, 1, 72, 0
3, 20400, Note_on_c, 1, 60, 86
3, 20400, Note_on_c, 1, 72, 86
3, 20460, Note_on_c, 1, 56, 0
3, 20460, Note_on_c, 1, 68, 0
3, 20460, Note_on_c, 1, 56, 86
3, 20460, Note_on_c, 1, 68, 86
3, 20520, Note_on_c, 1, 65, 0
3, 20520, Note_on_c, 1, 41, 0
3, 20520, Note_on_c, 1, 77, 0
3, 20520, Note_on_c, 1, 63, 0
3, 20520, Note_on_c, 1, 51, 0
3, 20520, Note_on_c, 1, 49, 99
3, 20580, Note_on_c, 1, 60, 0
3, 20580, Note_on_c, 1, 72, 0
3, 20580, Note_on_c, 1, 65, 86
3, 20580, Note_on_c, 1, 53, 86
3, 20640, Note_on_c, 1, 68, 0
3, 20640, Note_on_c, 1, 56, 0
3, 20640, Note_on_c, 1, 68, 86
3, 20640, Note_on_c, 1, 56, 86
3, 20700, Note_on_c, 1, 72, 86
3, 20700, Note_on_c, 1, 60, 86
3, 20760, Note_on_c, 1, 56, 0
3, 20760, Note_on_c, 1, 68, 0
3, 20760, Note_on_c, 1, 68, 86
3, 20760, Note_on_c, 1, 56, 86
3, 20820, Note_on_c, 1, 53, 0
3, 20820, Note_on_c, 1, 65, 0
3, 20820, Note_on_c, 1, 65, 86
3, 20820, Note_on_c, 1, 53, 86
3, 20880, Note_on_c, 1, 72, 0
3, 20880, Note_on_c, 1, 60, 0
3, 20880, Note_on_c, 1, 72, 86
3, 20880, Note_on_c, 1, 60, 86
3, 20940, Note_on_c, 1, 68, 0
3, 20940, Note_on_c, 1, 56, 0
3, 20940, Note_on_c, 1, 68, 86
3, 20940, Note_on_c, 1, 56, 86
3, 21000, Note_on_c, 1, 65, 0
3, 21000, Note_on_c, 1, 53, 0
3, 21000, Note_on_c, 1, 65, 86
3, 21000, Note_on_c, 1, 53, 86
3, 21060, Note_on_c, 1, 72, 0
3, 21060, Note_on_c, 1, 60, 0
3, 21060, Note_on_c, 1, 72, 86
3, 21060, Note_on_c, 1, 60, 86
3, 21120, Note_on_c, 1, 68, 0
3, 21120, Note_on_c, 1, 56, 0
3, 21120, Note_on_c, 1, 68, 86
3, 21120, Note_on_c, 1, 56, 86
3, 21180, Note_on_c, 1, 65, 0
3, 21180, Note_on_c, 1, 53, 0
3, 21180, Note_on_c, 1, 65, 86
3, 21180, Note_on_c, 1, 53, 86
3, 21240, Note_on_c, 1, 72, 0
3, 21240, Note_on_c, 1, 49, 0
3, 21240, Note_on_c, 1, 60, 0
3, 21240, Note_on_c, 1, 49, 99
3, 21300, Note_on_c, 1, 65, 0
3, 21300, Note_on_c, 1, 56, 0
3, 21300, Note_on_c, 1, 68, 0
3, 21300, Note_on_c, 1, 53, 0
3, 21300, Note_on_c, 1, 66, 86
3, 21300, Note_on_c, 1, 54, 86
3, 21360, Note_on_c, 1, 70, 86
3, 21360, Note_on_c, 1, 58, 86
3, 21420, Note_on_c, 1, 77, 86
3, 21420, Note_on_c, 1, 65, 86
3, 21480, Note_on_c, 1, 58, 0
3, 21480, Note_on_c, 1, 70, 0
3, 21480, Note_on_c, 1, 70, 86
3, 21480, Note_on_c, 1, 58, 86
3, 21540, Note_on_c, 1, 54, 0
3, 21540, Note_on_c, 1, 66, 0
3, 21540, Note_on_c, 1, 66, 86
3, 21540, Note_on_c, 1, 54, 86
3, 21600, Note_on_c, 1, 77, 0
3, 21600, Note_on_c, 1, 65, 0
3, 21600, Note_on_c, 1, 77, 86
3, 21600, Note_on_c, 1, 65, 86
3, 21660, Note_on_c, 1, 70, 0
3, 21660, Note_on_c, 1, 58, 0
3, 21660, Note_on_c, 1, 70, 86
3, 21660, Note_on_c, 1, 58, 86
3, 21720, Note_on_c, 1, 66, 0
3, 21720, Note_on_c, 1, 54, 0
3, 21720, Note_on_c, 1, 66, 86
3, 21720, Note_on_c, 1, 54, 86
3, 21780, Note_on_c, 1, 77, 0
3, 21780, Note_on_c, 1, 65, 0
3, 21780, Note_on_c, 1, 77, 86
3, 21780, Note_on_c, 1, 65, 86
3, 21840, Note_on_c, 1, 70, 0
3, 21840, Note_on_c, 1, 58, 0
3, 21840, Note_on_c, 1, 70, 86
3, 21840, Note_on_c, 1, 58, 86
3, 21900, Note_on_c, 1, 66, 0
3, 21900, Note_on_c, 1, 54, 0
3, 21900, Note_on_c, 1, 66, 86
3, 21900, Note_on_c, 1, 54, 86
3, 21960, Note_on_c, 1, 54, 0
3, 21960, Note_on_c, 1, 49, 0
3, 21960, Note_on_c, 1, 65, 0
3, 21960, Note_on_c, 1, 77, 0
3, 21960, Note_on_c, 1, 41, 99
3, 21960, Note_on_c, 1, 53, 99
3, 22020, Note_on_c, 1, 70, 0
3, 22020, Note_on_c, 1, 58, 0
3, 22020, Note_on_c, 1, 69, 86
3, 22020, Note_on_c, 1, 57, 86
3, 22080, Note_on_c, 1, 66, 0
3, 22080, Note_on_c, 1, 72, 86
3, 22080, Note_on_c, 1, 60, 86
3, 22140, Note_on_c, 1, 79, 86
3, 22140, Note_on_c, 1, 67, 86
3, 22200, Note_on_c, 1, 60, 0
3, 22200, Note_on_c, 1, 72, 0
3, 22200, Note_on_c, 1, 72, 86
3, 22200, Note_on_c, 1, 60, 86
3, 22260, Note_on_c, 1, 69, 0
3, 22260, Note_on_c, 1, 57, 0
3, 22260, Note_on_c, 1, 69, 86
3, 22260, Note_on_c, 1, 57, 86
3, 22320, Note_on_c, 1, 67, 0
3, 22320, Note_on_c, 1, 79, 0
3, 22320, Note_on_c, 1, 79, 86
3, 22320, Note_on_c, 1, 67, 86
3, 22380, Note_on_c, 1, 72, 0
3, 22380, Note_on_c, 1, 60, 0
3, 22380, Note_on_c, 1, 72, 86
3, 22380, Note_on_c, 1, 60, 86
3, 22440, Note_on_c, 1, 69, 0
3, 22440, Note_on_c, 1, 57, 0
3, 22440, Note_on_c, 1, 69, 86
3, 22440, Note_on_c, 1, 57, 86
3, 22500, Note_on_c, 1, 79, 0
3, 22500, Note_on_c, 1, 67, 0
3, 22500, Note_on_c, 1, 79, 86
3, 22500, Note_on_c, 1, 67, 86
3, 22560, Note_on_c, 1, 72, 0
3, 22560, Note_on_c, 1, 60, 0
3, 22560, Note_on_c, 1, 72, 86
3, 22560, Note_on_c, 1, 60, 86
3, 22620, Note_on_c, 1, 69, 0
3, 22620, Note_on_c, 1, 57, 0
3, 22620, Note_on_c, 1, 69, 86
3, 22620, Note_on_c, 1, 57, 86
3, 22680, Note_on_c, 1, 79, 0
3, 22680, Note_on_c, 1, 41, 0
3, 22680, Note_on_c, 1, 67, 0
3, 22680, Note_on_c, 1, 53, 0
3, 22680, Note_on_c, 1, 41, 99
3, 22680, Note_on_c, 1, 53, 99
3, 22740, Note_on_c, 1, 72, 0
3, 22740, Note_on_c, 1, 60, 0
3, 22740, Note_on_c, 1, 69, 86
3, 22740, Note_on_c, 1, 57, 86
3, 22800, Note_on_c, 1, 57, 0
3, 22800, Note_on_c, 1, 69, 0
3, 22800, Note_on_c, 1, 72, 86
3, 22800, Note_on_c, 1, 60, 86
3, 22860, Note_on_c, 1, 79, 86
3, 22860, Note_on_c, 1, 67, 86
3, 22920, Note_on_c, 1, 60, 0
3, 22920, Note_on_c, 1, 72, 0
3, 22920, Note_on_c, 1, 72, 86
3, 22920, Note_on_c, 1, 60, 86
3, 22980, Note_on_c, 1, 69, 0
3, 22980, Note_on_c, 1, 57, 0
3, 22980, Note_on_c, 1, 69, 86
3, 22980, Note_on_c, 1, 57, 86
3, 23040, Note_on_c, 1, 79, 0
3, 23040, Note_on_c, 1, 67, 0
3, 23040, Note_on_c, 1, 79, 86
3, 23040, Note_on_c, 1, 67, 86
3, 23100, Note_on_c, 1, 72, 0
3, 23100, Note_on_c, 1, 60, 0
3, 23100, Note_on_c, 1, 72, 86
3, 23100, Note_on_c, 1, 60, 86
3, 23160, Note_on_c, 1, 69, 0
3, 23160, Note_on_c, 1, 57, 0
3, 23160, Note_on_c, 1, 69, 86
3, 23160, Note_on_c, 1, 57, 86
3, 23220, Note_on_c, 1, 79, 0
3, 23220, Note_on_c, 1, 67, 0
3, 23220, Note_on_c, 1, 79, 86
3, 23220, Note_on_c, 1, 67, 86
3, 23280, Note_on_c, 1, 72, 0
3, 23280, Note_on_c, 1, 60, 0
3, 23280, Note_on_c, 1, 72, 86
3, 23280, Note_on_c, 1, 60, 86
3, 23340, Note_on_c, 1, 69, 0
3, 23340, Note_on_c, 1, 57, 0
3, 23340, Note_on_c, 1, 69, 86
3, 23340, Note_on_c, 1, 57, 86
3, 23400, Note_on_c, 1, 79, 0
3, 23400, Note_on_c, 1, 67, 0
3, 23400, Note_on_c, 1, 41, 0
3, 23400, Note_on_c, 1, 53, 0
3, 23400, Note_on_c, 1, 58, 101
3, 23400, Note_on_c, 1, 46, 101
3, 23460, Note_on_c, 1, 72, 0
3, 23460, Note_on_c, 1, 60, 0
3, 23460, Note_on_c, 1, 68, 90
3, 23460, Note_on_c, 1, 56, 90
3, 23520, Note_on_c, 1, 57, 0
3, 23520, Note_on_c, 1, 58, 0
3, 23520, Note_on_c, 1, 69, 0
3, 23520, Note_on_c, 1, 58, 90
3, 23520, Note_on_c, 1, 70, 90
3, 23580, Note_on_c, 1, 77, 90
3, 23580, Note_on_c, 1, 65, 90
3, 23640, Note_on_c, 1, 70, 0
3, 23640, Note_on_c, 1, 58, 0
3, 23640, Note_on_c, 1, 68, 0
3, 23640, Note_on_c, 1, 58, 90
3, 23640, Note_on_c, 1, 70, 90
3, 23700, Note_on_c, 1, 56, 0
3, 23700, Note_on_c, 1, 56, 90
3, 23700, Note_on_c, 1, 68, 90
3, 23760, Note_on_c, 1, 77, 0
3, 23760, Note_on_c, 1, 65, 0
3, 23760, Note_on_c, 1, 63, 90
3, 23760, Note_on_c, 1, 75, 90
3, 23820, Note_on_c, 1, 70, 0
3, 23820, Note_on_c, 1, 58, 0
3, 23820, Note_on_c, 1, 58, 90
3, 23820, Note_on_c, 1, 70, 90
3, 23880, Note_on_c, 1, 56, 0
3, 23880, Note_on_c, 1, 68, 0
3, 23880, Note_on_c, 1, 68, 90
3, 23880, Note_on_c, 1, 56, 90
3, 23940, Note_on_c, 1, 63, 0
3, 23940, Note_on_c, 1, 75, 0
3, 23940, Note_on_c, 1, 65, 90
3, 23940, Note_on_c, 1, 77, 90
3, 24000, Note_on_c, 1, 58, 0
3, 24000, Note_on_c, 1, 70, 0
3, 24000, Note_on_c, 1, 58, 90
3, 24000, Note_on_c, 1, 70, 90
3, 24060, Note_on_c, 1, 68, 0
3, 24060, Note_on_c, 1, 56, 0
3, 24060, Note_on_c, 1, 68, 90
3, 24060, Note_on_c, 1, 56, 90
3, 24120, Note_on_c, 1, 46, 0
3, 24120, Note_on_c, 1, 65, 0
3, 24120, Note_on_c, 1, 77, 0
3, 24120, Note_on_c, 1, 39, 101
3, 24120, Note_on_c, 1, 51, 101
3, 24180, Note_on_c, 1, 56, 0
3, 24180, Note_on_c, 1, 70, 0
3, 24180, Note_on_c, 1, 68, 0
3, 24180, Note_on_c, 1, 55, 86
3, 24180, Note_on_c, 1, 67, 86
3, 24240, Note_on_c, 1, 58, 0
3, 24240, Note_on_c, 1, 58, 86
3, 24240, Note_on_c, 1, 70, 86
3, 24300, Note_on_c, 1, 75, 86
3, 24300, Note_on_c, 1, 63, 86
3, 24360, Note_on_c, 1, 70, 0
3, 24360, Note_on_c, 1, 67, 0
3, 24360, Note_on_c, 1, 58, 0
3, 24360, Note_on_c, 1, 58, 86
3, 24360, Note_on_c, 1, 70, 86
3, 24420, Note_on_c, 1, 55, 0
3, 24420, Note_on_c, 1, 55, 86
3, 24420, Note_on_c, 1, 67, 86
3, 24480, Note_on_c, 1, 63, 0
3, 24480, Note_on_c, 1, 75, 0
3, 24480, Note_on_c, 1, 65, 86
3, 24480, Note_on_c, 1, 77, 86
3, 24540, Note_on_c, 1, 70, 0
3, 24540, Note_on_c, 1, 58, 0
3, 24540, Note_on_c, 1, 58, 86
3, 24540, Note_on_c, 1, 70, 86
3, 24600, Note_on_c, 1, 55, 0
3, 24600, Note_on_c, 1, 67, 0
3, 24600, Note_on_c, 1, 55, 86
3, 24600, Note_on_c, 1, 67, 86
3, 24660, Note_on_c, 1, 65, 0
3, 24660, Note_on_c, 1, 77, 0
3, 24660, Note_on_c, 1, 63, 86
3, 24660, Note_on_c, 1, 75, 86
3, 24720, Note_on_c, 1, 58, 0
3, 24720, Note_on_c, 1, 70, 0
3, 24720, Note_on_c, 1, 58, 86
3, 24720, Note_on_c, 1, 70, 86
3, 24780, Note_on_c, 1, 55, 0
3, 24780, Note_on_c, 1, 67, 0
3, 24780, Note_on_c, 1, 55, 86
3, 24780, Note_on_c, 1, 67, 86
3, 24840, Note_on_c, 1, 58, 0
3, 24840, Note_on_c, 1, 63, 0
3, 24840, Note_on_c, 1, 75, 0
3, 24840, Note_on_c, 1, 51, 0
3, 24840, Note_on_c, 1, 39, 0
3, 24840, Note_on_c, 1, 58, 101
3, 24840, Note_on_c, 1, 46, 101
3, 24900, Note_on_c, 1, 70, 0
3, 24900, Note_on_c, 1, 68, 90
3, 24900, Note_on_c, 1, 56, 90
3, 24960, Note_on_c, 1, 58, 0
3, 24960, Note_on_c, 1, 67, 0
3, 24960, Note_on_c, 1, 55, 0
3, 24960, Note_on_c, 1, 58, 90
3, 24960, Note_on_c, 1, 70, 90
3, 25020, Note_on_c, 1, 77, 90
3, 25020, Note_on_c, 1, 65, 90
3, 25080, Note_on_c, 1, 70, 0
3, 25080, Note_on_c, 1, 58, 0
3, 25080, Note_on_c, 1, 68, 0
3, 25080, Note_on_c, 1, 58, 90
3, 25080, Note_on_c, 1, 70, 90
3, 25140, Note_on_c, 1, 56, 0
3, 25140, Note_on_c, 1, 56, 90
3, 25140, Note_on_c, 1, 68, 90
3, 25200, Note_on_c, 1, 77, 0
3, 25200, Note_on_c, 1, 65, 0
3, 25200, Note_on_c, 1, 63, 90
3, 25200, Note_on_c, 1, 75, 90
3, 25260, Note_on_c, 1, 70, 0
3, 25260, Note_on_c, 1, 58, 0
3, 25260, Note_on_c, 1, 58, 90
3, 25260, Note_on_c, 1, 70, 90
3, 25320, Note_on_c, 1, 56, 0
3, 25320, Note_on_c, 1, 68, 0
3, 25320, Note_on_c, 1, 68, 90
3, 25320, Note_on_c, 1, 56, 90
3, 25380, Note_on_c, 1, 63, 0
3, 25380, Note_on_c, 1, 75, 0
3, 25380, Note_on_c, 1, 65, 90
3, 25380, Note_on_c, 1, 77, 90
3, 25440, Note_on_c, 1, 58, 0
3, 25440, Note_on_c, 1, 70, 0
3, 25440, Note_on_c, 1, 58, 90
3, 25440, Note_on_c, 1, 70, 90
3, 25500, Note_on_c, 1, 68, 0
3, 25500, Note_on_c, 1, 56, 0
3, 25500, Note_on_c, 1, 68, 90
3, 25500, Note_on_c, 1, 56, 90
3, 25560, Note_on_c, 1, 46, 0
3, 25560, Note_on_c, 1, 65, 0
3, 25560, Note_on_c, 1, 77, 0
3, 25560, Note_on_c, 1, 39, 100
3, 25560, Note_on_c, 1, 51, 100
3, 25620, Note_on_c, 1, 56, 0
3, 25620, Note_on_c, 1, 70, 0
3, 25620, Note_on_c, 1, 68, 0
3, 25620, Note_on_c, 1, 55, 86
3, 25620, Note_on_c, 1, 67, 86
3, 25680, Note_on_c, 1, 58, 0
3, 25680, Note_on_c, 1, 58, 86
3, 25680, Note_on_c, 1, 70, 86
3, 25740, Note_on_c, 1, 75, 86
3, 25740, Note_on_c, 1, 63, 86
3, 25800, Note_on_c, 1, 70, 0
3, 25800, Note_on_c, 1, 67, 0
3, 25800, Note_on_c, 1, 58, 0
3, 25800, Note_on_c, 1, 58, 86
3, 25800, Note_on_c, 1, 70, 86
3, 25860, Note_on_c, 1, 55, 0
3, 25860, Note_on_c, 1, 55, 86
3, 25860, Note_on_c, 1, 67, 86
3, 25920, Note_on_c, 1, 63, 0
3, 25920, Note_on_c, 1, 75, 0
3, 25920, Note_on_c, 1, 65, 86
3, 25920, Note_on_c, 1, 77, 86
3, 25980, Note_on_c, 1, 70, 0
3, 25980, Note_on_c, 1, 58, 0
3, 25980, Note_on_c, 1, 58, 86
3, 25980, Note_on_c, 1, 70, 86
3, 26040, Note_on_c, 1, 55, 0
3, 26040, Note_on_c, 1, 67, 0
3, 26040, Note_on_c, 1, 55, 86
3, 26040, Note_on_c, 1, 67, 86
3, 26100, Note_on_c, 1, 65, 0
3, 26100, Note_on_c, 1, 77, 0
3, 26100, Note_on_c, 1, 63, 86
3, 26100, Note_on_c, 1, 75, 86
3, 26160, Note_on_c, 1, 58, 0
3, 26160, Note_on_c, 1, 70, 0
3, 26160, Note_on_c, 1, 58, 86
3, 26160, Note_on_c, 1, 70, 86
3, 26220, Note_on_c, 1, 55, 0
3, 26220, Note_on_c, 1, 67, 0
3, 26220, Note_on_c, 1, 55, 86
3, 26220, Note_on_c, 1, 67, 86
3, 26280, Note_on_c, 1, 58, 0
3, 26280, Note_on_c, 1, 63, 0
3, 26280, Note_on_c, 1, 75, 0
3, 26280, Note_on_c, 1, 51, 0
3, 26280, Note_on_c, 1, 39, 0
3, 26280, Note_on_c, 1, 58, 101
3, 26280, Note_on_c, 1, 46, 101
3, 26340, Note_on_c, 1, 67, 0
3, 26340, Note_on_c, 1, 70, 0
3, 26340, Note_on_c, 1, 55, 0
3, 26340, Note_on_c, 1, 68, 90
3, 26340, Note_on_c, 1, 56, 90
3, 26400, Note_on_c, 1, 58, 0
3, 26400, Note_on_c, 1, 58, 90
3, 26400, Note_on_c, 1, 70, 90
3, 26460, Note_on_c, 1, 77, 90
3, 26460, Note_on_c, 1, 65, 90
3, 26520, Note_on_c, 1, 70, 0
3, 26520, Note_on_c, 1, 58, 0
3, 26520, Note_on_c, 1, 68, 0
3, 26520, Note_on_c, 1, 58, 90
3, 26520, Note_on_c, 1, 70, 90
3, 26580, Note_on_c, 1, 56, 0
3, 26580, Note_on_c, 1, 56, 90
3, 26580, Note_on_c, 1, 68, 90
3, 26640, Note_on_c, 1, 77, 0
3, 26640, Note_on_c, 1, 65, 0
3, 26640, Note_on_c, 1, 63, 90
3, 26640, Note_on_c, 1, 75, 90
3, 26700, Note_on_c, 1, 70, 0
3, 26700, Note_on_c, 1, 58, 0
3, 26700, Note_on_c, 1, 58, 90
3, 26700, Note_on_c, 1, 70, 90
3, 26760, Note_on_c, 1, 56, 0
3, 26760, Note_on_c, 1, 68, 0
3, 26760, Note_on_c, 1, 68, 90
3, 26760, Note_on_c, 1, 56, 90
3, 26820, Note_on_c, 1, 63, 0
3, 26820, Note_on_c, 1, 75, 0
3, 26820, Note_on_c, 1, 65, 90
3, 26820, Note_on_c, 1, 77, 90
3, 26880, Note_on_c, 1, 58, 0
3, 26880, Note_on_c, 1, 70, 0
3, 26880, Note_on_c, 1, 58, 90
3, 26880, Note_on_c, 1, 70, 90
3, 26940, Note_on_c, 1, 68, 0
3, 26940, Note_on_c, 1, 56, 0
3, 26940, Note_on_c, 1, 68, 90
3, 26940, Note_on_c, 1, 56, 90
3, 27000, Note_on_c, 1, 46, 0
3, 27000, Note_on_c, 1, 65, 0
3, 27000, Note_on_c, 1, 77, 0
3, 27000, Note_on_c, 1, 39, 100
3, 27000, Note_on_c, 1, 51, 100
3, 27060, Note_on_c, 1, 56, 0
3, 27060, Note_on_c, 1, 70, 0
3, 27060, Note_on_c, 1, 68, 0
3, 27060, Note_on_c, 1, 55, 86
3, 27060, Note_on_c, 1, 67, 86
3, 27120, Note_on_c, 1, 58, 0
3, 27120, Note_on_c, 1, 58, 86
3, 27120, Note_on_c, 1, 70, 86
3, 27180, Note_on_c, 1, 75, 86
3, 27180, Note_on_c, 1, 63, 86
3, 27240, Note_on_c, 1, 70, 0
3, 27240, Note_on_c, 1, 67, 0
3, 27240, Note_on_c, 1, 58, 0
3, 27240, Note_on_c, 1, 58, 86
3, 27240, Note_on_c, 1, 70, 86
3, 27300, Note_on_c, 1, 55, 0
3, 27300, Note_on_c, 1, 55, 86
3, 27300, Note_on_c, 1, 67, 86
3, 27360, Note_on_c, 1, 63, 0
3, 27360, Note_on_c, 1, 75, 0
3, 27360, Note_on_c, 1, 65, 86
3, 27360, Note_on_c, 1, 77, 86
3, 27420, Note_on_c, 1, 70, 0
3, 27420, Note_on_c, 1, 58, 0
3, 27420, Note_on_c, 1, 58, 86
3, 27420, Note_on_c, 1, 70, 86
3, 27480, Note_on_c, 1, 55, 0
3, 27480, Note_on_c, 1, 67, 0
3, 27480, Note_on_c, 1, 55, 86
3, 27480, Note_on_c, 1, 67, 86
3, 27540, Note_on_c, 1, 65, 0
3, 27540, Note_on_c, 1, 77, 0
3, 27540, Note_on_c, 1, 63, 86
3, 27540, Note_on_c, 1, 75, 86
3, 27600, Note_on_c, 1, 58, 0
3, 27600, Note_on_c, 1, 70, 0
3, 27600, Note_on_c, 1, 58, 86
3, 27600, Note_on_c, 1, 70, 86
3, 27660, Note_on_c, 1, 55, 0
3, 27660, Note_on_c, 1, 67, 0
3, 27660, Note_on_c, 1, 55, 86
3, 27660, Note_on_c, 1, 67, 86
3, 27720, Note_on_c, 1, 55, 0
3, 27720, Note_on_c, 1, 63, 0
3, 27720, Note_on_c, 1, 39, 0
3, 27720, Note_on_c, 1, 75, 0
3, 27720, Note_on_c, 1, 51, 0
3, 27720, Note_on_c, 1, 58, 0
3, 27720, Note_on_c, 1, 42, 100
3, 27720, Note_on_c, 1, 54, 100
3, 27780, Note_on_c, 1, 70, 0
3, 27780, Note_on_c, 1, 49, 86
3, 27780, Note_on_c, 1, 61, 86
3, 27840, Note_on_c, 1, 67, 0
3, 27840, Note_on_c, 1, 56, 86
3, 27840, Note_on_c, 1, 68, 86
3, 27900, Note_on_c, 1, 58, 86
3, 27900, Note_on_c, 1, 70, 86
3, 27960, Note_on_c, 1, 68, 0
3, 27960, Note_on_c, 1, 49, 0
3, 27960, Note_on_c, 1, 61, 0
3, 27960, Note_on_c, 1, 56, 0
3, 27960, Note_on_c, 1, 56, 86
3, 27960, Note_on_c, 1, 68, 86
3, 28020, Note_on_c, 1, 49, 86
3, 28020, Note_on_c, 1, 61, 86
3, 28080, Note_on_c, 1, 54, 0
3, 28080, Note_on_c, 1, 58, 0
3, 28080, Note_on_c, 1, 70, 0
3, 28080, Note_on_c, 1, 42, 0
3, 28080, Note_on_c, 1, 53, 102
3, 28080, Note_on_c, 1, 41, 102
3, 28140, Note_on_c, 1, 56, 0
3, 28140, Note_on_c, 1, 68, 0
3, 28140, Note_on_c, 1, 51, 86
3, 28140, Note_on_c, 1, 63, 86
3, 28200, Note_on_c, 1, 49, 0
3, 28200, Note_on_c, 1, 61, 0
3, 28200, Note_on_c, 1, 56, 86
3, 28200, Note_on_c, 1, 68, 86
3, 28260, Note_on_c, 1, 60, 86
3, 28260, Note_on_c, 1, 72, 86
3, 28320, Note_on_c, 1, 68, 0
3, 28320, Note_on_c, 1, 56, 0
3, 28320, Note_on_c, 1, 56, 86
3, 28320, Note_on_c, 1, 68, 86
3, 28380, Note_on_c, 1, 51, 0
3, 28380, Note_on_c, 1, 63, 0
3, 28380, Note_on_c, 1, 51, 86
3, 28380, Note_on_c, 1, 63, 86
3, 28440, Note_on_c, 1, 60, 0
3, 28440, Note_on_c, 1, 72, 0
3, 28440, Note_on_c, 1, 41, 0
3, 28440, Note_on_c, 1, 53, 0
3, 28440, Note_on_c, 1, 46, 100
3, 28440, Note_on_c, 1, 58, 100
3, 28470, Note_on_c, 1, 56, 0
3, 28470, Note_on_c, 1, 68, 0
3, 28500, Note_on_c, 1, 63, 0
3, 28500, Note_on_c, 1, 51, 0
3, 28500, Note_on_c, 1, 53, 86
3, 28500, Note_on_c, 1, 65, 86
3, 28560, Note_on_c, 1, 58, 0
3, 28560, Note_on_c, 1, 58, 86
3, 28560, Note_on_c, 1, 70, 86
3, 28620, Note_on_c, 1, 63, 86
3, 28620, Note_on_c, 1, 75, 86
3, 28680, Note_on_c, 1, 70, 0
3, 28680, Note_on_c, 1, 58, 0
3, 28680, Note_on_c, 1, 58, 86
3, 28680, Note_on_c, 1, 70, 86
3, 28740, Note_on_c, 1, 65, 0
3, 28740, Note_on_c, 1, 53, 0
3, 28740, Note_on_c, 1, 53, 86
3, 28740, Note_on_c, 1, 65, 86
3, 28800, Note_on_c, 1, 63, 0
3, 28800, Note_on_c, 1, 75, 0
3, 28800, Note_on_c, 1, 60, 86
3, 28800, Note_on_c, 1, 72, 86
3, 28860, Note_on_c, 1, 58, 0
3, 28860, Note_on_c, 1, 70, 0
3, 28860, Note_on_c, 1, 58, 86
3, 28860, Note_on_c, 1, 70, 86
3, 28920, Note_on_c, 1, 53, 0
3, 28920, Note_on_c, 1, 65, 0
3, 28920, Note_on_c, 1, 53, 86
3, 28920, Note_on_c, 1, 65, 86
3, 28980, Note_on_c, 1, 60, 0
3, 28980, Note_on_c, 1, 72, 0
3, 28980, Note_on_c, 1, 62, 86
3, 28980, Note_on_c, 1, 74, 86
3, 29040, Note_on_c, 1, 58, 0
3, 29040, Note_on_c, 1, 70, 0
3, 29040, Note_on_c, 1, 58, 86
3, 29040, Note_on_c, 1, 70, 86
3, 29100, Note_on_c, 1, 53, 0
3, 29100, Note_on_c, 1, 65, 0
3, 29100, Note_on_c, 1, 53, 86
3, 29100, Note_on_c, 1, 65, 86
3, 29160, Note_on_c, 1, 58, 0
3, 29160, Note_on_c, 1, 62, 0
3, 29160, Note_on_c, 1, 46, 0
3, 29160, Note_on_c, 1, 74, 0
3, 29160, Note_on_c, 1, 70, 0
3, 29160, Note_on_c, 1, 46, 101
3, 29160, Note_on_c, 1, 58, 101
3, 29220, Note_on_c, 1, 65, 0
3, 29220, Note_on_c, 1, 53, 0
3, 29220, Note_on_c, 1, 53, 86
3, 29220, Note_on_c, 1, 65, 86
3, 29280, Note_on_c, 1, 58, 0
3, 29280, Note_on_c, 1, 58, 86
3, 29280, Note_on_c, 1, 70, 86
3, 29340, Note_on_c, 1, 63, 86
3, 29340, Note_on_c, 1, 75, 86
3, 29400, Note_on_c, 1, 70, 0
3, 29400, Note_on_c, 1, 58, 0
3, 29400, Note_on_c, 1, 58, 86
3, 29400, Note_on_c, 1, 70, 86
3, 29460, Note_on_c, 1, 65, 0
3, 29460, Note_on_c, 1, 53, 0
3, 29460, Note_on_c, 1, 53, 86
3, 29460, Note_on_c, 1, 65, 86
3, 29520, Note_on_c, 1, 63, 0
3, 29520, Note_on_c, 1, 75, 0
3, 29520, Note_on_c, 1, 60, 86
3, 29520, Note_on_c, 1, 72, 86
3, 29580, Note_on_c, 1, 58, 0
3, 29580, Note_on_c, 1, 70, 0
3, 29580, Note_on_c, 1, 58, 86
3, 29580, Note_on_c, 1, 70, 86
3, 29640, Note_on_c, 1, 53, 0
3, 29640, Note_on_c, 1, 65, 0
3, 29640, Note_on_c, 1, 53, 86
3, 29640, Note_on_c, 1, 65, 86
3, 29700, Note_on_c, 1, 60, 0
3, 29700, Note_on_c, 1, 72, 0
3, 29700, Note_on_c, 1, 62, 86
3, 29700, Note_on_c, 1, 74, 86
3, 29760, Note_on_c, 1, 58, 0
3, 29760, Note_on_c, 1, 70, 0
3, 29760, Note_on_c, 1, 58, 86
3, 29760, Note_on_c, 1, 70, 86
3, 29820, Note_on_c, 1, 53, 0
3, 29820, Note_on_c, 1, 65, 0
3, 29820, Note_on_c, 1, 53, 86
3, 29820, Note_on_c, 1, 65, 86
3, 29880, Note_on_c, 1, 58, 0
3, 29880, Note_on_c, 1, 62, 0
3, 29880, Note_on_c, 1, 46, 0
3, 29880, Note_on_c, 1, 74, 0
3, 29880, Note_on_c, 1, 70, 0
3, 29880, Note_on_c, 1, 58, 100
3, 29880, Note_on_c, 1, 46, 100
3, 29940, Note_on_c, 1, 65, 0
3, 29940, Note_on_c, 1, 53, 0
3, 29940, Note_on_c, 1, 68, 90
3, 29940, Note_on_c, 1, 56, 90
3, 30000, Note_on_c, 1, 58, 0
3, 30000, Note_on_c, 1, 58, 90
3, 30000, Note_on_c, 1, 70, 90
3, 30060, Note_on_c, 1, 77, 90
3, 30060, Note_on_c, 1, 65, 90
3, 30120, Note_on_c, 1, 70, 0
3, 30120, Note_on_c, 1, 58, 0
3, 30120, Note_on_c, 1, 68, 0
3, 30120, Note_on_c, 1, 58, 90
3, 30120, Note_on_c, 1, 70, 90
3, 30180, Note_on_c, 1, 56, 0
3, 30180, Note_on_c, 1, 56, 90
3, 30180, Note_on_c, 1, 68, 90
3, 30240, Note_on_c, 1, 77, 0
3, 30240, Note_on_c, 1, 65, 0
3, 30240, Note_on_c, 1, 63, 90
3, 30240, Note_on_c, 1, 75, 90
3, 30300, Note_on_c, 1, 70, 0
3, 30300, Note_on_c, 1, 58, 0
3, 30300, Note_on_c, 1, 58, 90
3, 30300, Note_on_c, 1, 70, 90
3, 30360, Note_on_c, 1, 56, 0
3, 30360, Note_on_c, 1, 68, 0
3, 30360, Note_on_c, 1, 68, 90
3, 30360, Note_on_c, 1, 56, 90
3, 30420, Note_on_c, 1, 63, 0
3, 30420, Note_on_c, 1, 75, 0
3, 30420, Note_on_c, 1, 65, 90
3, 30420, Note_on_c, 1, 77, 90
3, 30480, Note_on_c, 1, 58, 0
3, 30480, Note_on_c, 1, 70, 0
3, 30480, Note_on_c, 1, 58, 90
3, 30480, Note_on_c, 1, 70, 90
3, 30540, Note_on_c, 1, 68, 0
3, 30540, Note_on_c, 1, 56, 0
3, 30540, Note_on_c, 1, 68, 90
3, 30540, Note_on_c, 1, 56, 90
3, 30600, Note_on_c, 1, 46, 0
3, 30600, Note_on_c, 1, 65, 0
3, 30600, Note_on_c, 1, 77, 0
3, 30600, Note_on_c, 1, 39, 100
3, 30600, Note_on_c, 1, 51, 100
3, 30660, Note_on_c, 1, 56, 0
3, 30660, Note_on_c, 1, 70, 0
3, 30660, Note_on_c, 1, 68, 0
3, 30660, Note_on_c, 1, 55, 86
3, 30660, Note_on_c, 1, 67, 86
3, 30720, Note_on_c, 1, 58, 0
3, 30720, Note_on_c, 1, 58, 86
3, 30720, Note_on_c, 1, 70, 86
3, 30780, Note_on_c, 1, 75, 86
3, 30780, Note_on_c, 1, 63, 86
3, 30840, Note_on_c, 1, 70, 0
3, 30840, Note_on_c, 1, 67, 0
3, 30840, Note_on_c, 1, 58, 0
3, 30840, Note_on_c, 1, 58, 86
3, 30840, Note_on_c, 1, 70, 86
3, 30900, Note_on_c, 1, 55, 0
3, 30900, Note_on_c, 1, 55, 86
3, 30900, Note_on_c, 1, 67, 86
3, 30960, Note_on_c, 1, 63, 0
3, 30960, Note_on_c, 1, 75, 0
3, 30960, Note_on_c, 1, 65, 86
3, 30960, Note_on_c, 1, 77, 86
3, 31020, Note_on_c, 1, 70, 0
3, 31020, Note_on_c, 1, 58, 0
3, 31020, Note_on_c, 1, 58, 86
3, 31020, Note_on_c, 1, 70, 86
3, 31080, Note_on_c, 1, 55, 0
3, 31080, Note_on_c, 1, 67, 0
3, 31080, Note_on_c, 1, 55, 86
3, 31080, Note_on_c, 1, 67, 86
3, 31140, Note_on_c, 1, 65, 0
3, 31140, Note_on_c, 1, 77, 0
3, 31140, Note_on_c, 1, 63, 86
3, 31140, Note_on_c, 1, 75, 86
3, 31200, Note_on_c, 1, 58, 0
3, 31200, Note_on_c, 1, 70, 0
3, 31200, Note_on_c, 1, 58, 86
3, 31200, Note_on_c, 1, 70, 86
3, 31260, Note_on_c, 1, 55, 0
3, 31260, Note_on_c, 1, 67, 0
3, 31260, Note_on_c, 1, 55, 86
3, 31260, Note_on_c, 1, 67, 86
3, 31320, Note_on_c, 1, 58, 0
3, 31320, Note_on_c, 1, 63, 0
3, 31320, Note_on_c, 1, 75, 0
3, 31320, Note_on_c, 1, 51, 0
3, 31320, Note_on_c, 1, 39, 0
3, 31320, Note_on_c, 1, 58, 100
3, 31320, Note_on_c, 1, 46, 100
3, 31380, Note_on_c, 1, 70, 0
3, 31380, Note_on_c, 1, 68, 90
3, 31380, Note_on_c, 1, 56, 90
3, 31440, Note_on_c, 1, 58, 0
3, 31440, Note_on_c, 1, 67, 0
3, 31440, Note_on_c, 1, 55, 0
3, 31440, Note_on_c, 1, 58, 90
3, 31440, Note_on_c, 1, 70, 90
3, 31500, Note_on_c, 1, 77, 90
3, 31500, Note_on_c, 1, 65, 90
3, 31560, Note_on_c, 1, 70, 0
3, 31560, Note_on_c, 1, 58, 0
3, 31560, Note_on_c, 1, 68, 0
3, 31560, Note_on_c, 1, 58, 90
3, 31560, Note_on_c, 1, 70, 90
3, 31620, Note_on_c, 1, 56, 0
3, 31620, Note_on_c, 1, 56, 90
3, 31620, Note_on_c, 1, 68, 90
3, 31680, Note_on_c, 1, 77, 0
3, 31680, Note_on_c, 1, 65, 0
3, 31680, Note_on_c, 1, 63, 90
3, 31680, Note_on_c, 1, 75, 90
3, 31740, Note_on_c, 1, 70, 0
3, 31740, Note_on_c, 1, 58, 0
3, 31740, Note_on_c, 1, 58, 90
3, 31740, Note_on_c, 1, 70, 90
3, 31800, Note_on_c, 1, 56, 0
3, 31800, Note_on_c, 1, 68, 0
3, 31800, Note_on_c, 1, 68, 90
3, 31800, Note_on_c, 1, 56, 90
3, 31860, Note_on_c, 1, 63, 0
3, 31860, Note_on_c, 1, 75, 0
3, 31860, Note_on_c, 1, 65, 90
3, 31860, Note_on_c, 1, 77, 90
3, 31920, Note_on_c, 1, 58, 0
3, 31920, Note_on_c, 1, 70, 0
3, 31920, Note_on_c, 1, 58, 90
3, 31920, Note_on_c, 1, 70, 90
3, 31980, Note_on_c, 1, 68, 0
3, 31980, Note_on_c, 1, 56, 0
3, 31980, Note_on_c, 1, 68, 90
3, 31980, Note_on_c, 1, 56, 90
3, 32040, Note_on_c, 1, 46, 0
3, 32040, Note_on_c, 1, 65, 0
3, 32040, Note_on_c, 1, 77, 0
3, 32040, Note_on_c, 1, 39, 101
3, 32040, Note_on_c, 1, 51, 101
3, 32100, Note_on_c, 1, 56, 0
3, 32100, Note_on_c, 1, 70, 0
3, 32100, Note_on_c, 1, 68, 0
3, 32100, Note_on_c, 1, 55, 86
3, 32100, Note_on_c, 1, 67, 86
3, 32160, Note_on_c, 1, 58, 0
3, 32160, Note_on_c, 1, 58, 86
3, 32160, Note_on_c, 1, 70, 86
3, 32220, Note_on_c, 1, 75, 86
3, 32220, Note_on_c, 1, 63, 86
3, 32280, Note_on_c, 1, 70, 0
3, 32280, Note_on_c, 1, 67, 0
3, 32280, Note_on_c, 1, 58, 0
3, 32280, Note_on_c, 1, 58, 86
3, 32280, Note_on_c, 1, 70, 86
3, 32340, Note_on_c, 1, 55, 0
3, 32340, Note_on_c, 1, 55, 86
3, 32340, Note_on_c, 1, 67, 86
3, 32400, Note_on_c, 1, 63, 0
3, 32400, Note_on_c, 1, 75, 0
3, 32400, Note_on_c, 1, 65, 86
3, 32400, Note_on_c, 1, 77, 86
3, 32460, Note_on_c, 1, 70, 0
3, 32460, Note_on_c, 1, 58, 0
3, 32460, Note_on_c, 1, 58, 86
3, 32460, Note_on_c, 1, 70, 86
3, 32520, Note_on_c, 1, 55, 0
3, 32520, Note_on_c, 1, 67, 0
3, 32520, Note_on_c, 1, 55, 86
3, 32520, Note_on_c, 1, 67, 86
3, 32580, Note_on_c, 1, 65, 0
3, 32580, Note_on_c, 1, 77, 0
3, 32580, Note_on_c, 1, 63, 86
3, 32580, Note_on_c, 1, 75, 86
3, 32640, Note_on_c, 1, 58, 0
3, 32640, Note_on_c, 1, 70, 0
3, 32640, Note_on_c, 1, 58, 86
3, 32640, Note_on_c, 1, 70, 86
3, 32700, Note_on_c, 1, 55, 0
3, 32700, Note_on_c, 1, 67, 0
3, 32700, Note_on_c, 1, 55, 86
3, 32700, Note_on_c, 1, 67, 86
3, 32760, Note_on_c, 1, 58, 0
3, 32760, Note_on_c, 1, 63, 0
3, 32760, Note_on_c, 1, 75, 0
3, 32760, Note_on_c, 1, 51, 0
3, 32760, Note_on_c, 1, 39, 0
3, 32760, Note_on_c, 1, 58, 101
3, 32760, Note_on_c, 1, 46, 101
3, 32770, Control_c, 1, 11, 127
3, 32790, Control_c, 1, 11, 126
3, 32810, Control_c, 1, 11, 125
3, 32820, Note_on_c, 1, 70, 0
3, 32820, Note_on_c, 1, 68, 90
3, 32820, Note_on_c, 1, 56, 90
3, 32830, Control_c, 1, 11, 124
3, 32840, Control_c, 1, 11, 123
3, 32860, Control_c, 1, 11, 122
3, 32880, Note_on_c, 1, 58, 0
3, 32880, Note_on_c, 1, 67, 0
3, 32880, Note_on_c, 1, 55, 0
3, 32880, Control_c, 1, 11, 121
3, 32880, Note_on_c, 1, 58, 90
3, 32880, Note_on_c, 1, 70, 90
3, 32890, Control_c, 1, 11, 120
3, 32910, Control_c, 1, 11, 119
3, 32930, Control_c, 1, 11, 118
3, 32940, Note_on_c, 1, 77, 90
3, 32940, Note_on_c, 1, 65, 90
3, 32950, Control_c, 1, 11, 117
3, 32960, Control_c, 1, 11, 116
3, 32980, Control_c, 1, 11, 115
3, 33000, Note_on_c, 1, 70, 0
3, 33000, Note_on_c, 1, 58, 0
3, 33000, Note_on_c, 1, 68, 0
3, 33000, Control_c, 1, 11, 114
3, 33000, Note_on_c, 1, 58, 90
3, 33000, Note_on_c, 1, 70, 90
3, 33010, Control_c, 1, 11, 113
3, 33030, Control_c, 1, 11, 112
3, 33050, Control_c, 1, 11, 111
3, 33060, Note_on_c, 1, 56, 0
3, 33060, Note_on_c, 1, 56, 90
3, 33060, Note_on_c, 1, 68, 90
3, 33070, Control_c, 1, 11, 110
3, 33080, Control_c, 1, 11, 109
3, 33100, Control_c, 1, 11, 108
3, 33120, Note_on_c, 1, 77, 0
3, 33120, Note_on_c, 1, 65, 0
3, 33120, Control_c, 1, 11, 107
3, 33120, Note_on_c, 1, 63, 90
3, 33120, Note_on_c, 1, 75, 90
3, 33130, Control_c, 1, 11, 106
3, 33150, Control_c, 1, 11, 105
3, 33170, Control_c, 1, 11, 104
3, 33180, Note_on_c, 1, 70, 0
3, 33180, Note_on_c, 1, 58, 0
3, 33180, Note_on_c, 1, 58, 90
3, 33180, Note_on_c, 1, 70, 90
3, 33190, Control_c, 1, 11, 103
3, 33200, Control_c, 1, 11, 102
3, 33220, Control_c, 1, 11, 101
3, 33240, Note_on_c, 1, 56, 0
3, 33240, Note_on_c, 1, 68, 0
3, 33240, Control_c, 1, 11, 100
3, 33240, Note_on_c, 1, 68, 90
3, 33240, Note_on_c, 1, 56, 90
3, 33250, Control_c, 1, 11, 99
3, 33270, Control_c, 1, 11, 98
3, 33290, Control_c, 1, 11, 97
3, 33300, Note_on_c, 1, 63, 0
3, 33300, Note_on_c, 1, 75, 0
3, 33300, Control_c, 1, 11, 96
3, 33300, Note_on_c, 1, 65, 90
3, 33300, Note_on_c, 1, 77, 90
3, 33320, Control_c, 1, 11, 95
3, 33340, Control_c, 1, 11, 94
3, 33360, Note_on_c, 1, 58, 0
3, 33360, Note_on_c, 1, 70, 0
3, 33360, Control_c, 1, 11, 93
3, 33360, Note_on_c, 1, 58, 90
3, 33360, Note_on_c, 1, 70, 90
3, 33370, Control_c, 1, 11, 92
3, 33390, Control_c, 1, 11, 91
3, 33410, Control_c, 1, 11, 90
3, 33420, Note_on_c, 1, 68, 0
3, 33420, Note_on_c, 1, 56, 0
3, 33420, Control_c, 1, 11, 89
3, 33420, Note_on_c, 1, 68, 90
3, 33420, Note_on_c, 1, 56, 90
3, 33440, Control_c, 1, 11, 88
3, 33460, Control_c, 1, 11, 87
3, 33480, Note_on_c, 1, 46, 0
3, 33480, Note_on_c, 1, 65, 0
3, 33480, Note_on_c, 1, 77, 0
3, 33480, Control_c, 1, 11, 86
3, 33480, Note_on_c, 1, 39, 100
3, 33480, Note_on_c, 1, 51, 100
3, 33490, Control_c, 1, 11, 85
3, 33510, Control_c, 1, 11, 84
3, 33530, Control_c, 1, 11, 83
3, 33540, Note_on_c, 1, 56, 0
3, 33540, Note_on_c, 1, 70, 0
3, 33540, Note_on_c, 1, 68, 0
3, 33540, Control_c, 1, 11, 82
3, 33540, Note_on_c, 1, 55, 86
3, 33540, Note_on_c, 1, 67, 86
3, 33560, Control_c, 1, 11, 81
3, 33580, Control_c, 1, 11, 80
3, 33600, Note_on_c, 1, 58, 0
3, 33600, Control_c, 1, 11, 79
3, 33600, Note_on_c, 1, 58, 86
3, 33600, Note_on_c, 1, 70, 86
3, 33610, Control_c, 1, 11, 78
3, 33630, Control_c, 1, 11, 77
3, 33650, Control_c, 1, 11, 76
3, 33660, Control_c, 1, 11, 75
3, 33660, Note_on_c, 1, 75, 86
3, 33660, Note_on_c, 1, 63, 86
3, 33680, Control_c, 1, 11, 74
3, 33700, Control_c, 1, 11, 73
3, 33710, Control_c, 1, 11, 72
3, 33720, Note_on_c, 1, 70, 0
3, 33720, Note_on_c, 1, 67, 0
3, 33720, Note_on_c, 1, 58, 0
3, 33720, Note_on_c, 1, 58, 86
3, 33720, Note_on_c, 1, 70, 86
3, 33730, Control_c, 1, 11, 71
3, 33750, Control_c, 1, 11, 70
3, 33770, Control_c, 1, 11, 69
3, 33780, Note_on_c, 1, 55, 0
3, 33780, Control_c, 1, 11, 68
3, 33780, Note_on_c, 1, 55, 86
3, 33780, Note_on_c, 1, 67, 86
3, 33800, Control_c, 1, 11, 67
3, 33820, Control_c, 1, 11, 66
3, 33830, Control_c, 1, 11, 65
3, 33840, Note_on_c, 1, 63, 0
3, 33840, Note_on_c, 1, 75, 0
3, 33840, Note_on_c, 1, 65, 86
3, 33840, Note_on_c, 1, 77, 86
3, 33850, Control_c, 1, 11, 64
3, 33870, Control_c, 1, 11, 63
3, 33890, Control_c, 1, 11, 62
3, 33900, Note_on_c, 1, 70, 0
3, 33900, Note_on_c, 1, 58, 0
3, 33900, Control_c, 1, 11, 61
3, 33900, Note_on_c, 1, 58, 86
3, 33900, Note_on_c, 1, 70, 86
3, 33920, Control_c, 1, 11, 60
3, 33940, Control_c, 1, 11, 59
3, 33950, Control_c, 1, 11, 58
3, 33960, Note_on_c, 1, 55, 0
3, 33960, Note_on_c, 1, 67, 0
3, 33960, Note_on_c, 1, 55, 86
3, 33960, Note_on_c, 1, 67, 86
3, 33970, Control_c, 1, 11, 57
3, 33990, Control_c, 1, 11, 56
3, 34010, Control_c, 1, 11, 55
3, 34020, Note_on_c, 1, 65, 0
3, 34020, Note_on_c, 1, 77, 0
3, 34020, Control_c, 1, 11, 54
3, 34020, Note_on_c, 1, 63, 86
3, 34020, Note_on_c, 1, 75, 86
3, 34040, Control_c, 1, 11, 53
3, 34060, Control_c, 1, 11, 52
3, 34070, Control_c, 1, 11, 51
3, 34080, Note_on_c, 1, 58, 0
3, 34080, Note_on_c, 1, 70, 0
3, 34080, Note_on_c, 1, 58, 86
3, 34080, Note_on_c, 1, 70, 86
3, 34090, Control_c, 1, 11, 50
3, 34110, Control_c, 1, 11, 49
3, 34120, Control_c, 1, 11, 48
3, 34140, Note_on_c, 1, 55, 0
3, 34140, Note_on_c, 1, 67, 0
3, 34140, Control_c, 1, 11, 47
3, 34140, Note_on_c, 1, 55, 86
3, 34140, Note_on_c, 1, 67, 86
3, 34160, Control_c, 1, 11, 46
3, 34180, Control_c, 1, 11, 45
3, 34190, Control_c, 1, 11, 44
3, 34200, Note_on_c, 1, 58, 0
3, 34200, Note_on_c, 1, 63, 0
3, 34200, Note_on_c, 1, 75, 0
3, 34200, Note_on_c, 1, 51, 0
3, 34200, Note_on_c, 1, 39, 0
3, 34200, Note_on_c, 1, 58, 102
3, 34200, Note_on_c, 1, 46, 102
3, 34210, Control_c, 1, 11, 43
3, 34230, Control_c, 1, 11, 42
3, 34240, Control_c, 1, 11, 41
3, 34260, Note_on_c, 1, 70, 0
3, 34260, Control_c, 1, 11, 40
3, 34260, Note_on_c, 1, 68, 90
3, 34260, Note_on_c, 1, 56, 90
3, 34280, Control_c, 1, 11, 39
3, 34300, Control_c, 1, 11, 38
3, 34310, Control_c, 1, 11, 37
3, 34320, Note_on_c, 1, 58, 0
3, 34320, Note_on_c, 1, 67, 0
3, 34320, Note_on_c, 1, 55, 0
3, 34320, Note_on_c, 1, 58, 90
3, 34320, Note_on_c, 1, 70, 90
3, 34330, Control_c, 1, 11, 36
3, 34350, Control_c, 1, 11, 35
3, 34360, Control_c, 1, 11, 34
3, 34380, Control_c, 1, 11, 33
3, 34380, Note_on_c, 1, 77, 90
3, 34380, Note_on_c, 1, 65, 90
3, 34400, Control_c, 1, 11, 32
3, 34420, Control_c, 1, 11, 31
3, 34430, Control_c, 1, 11, 30
3, 34440, Note_on_c, 1, 70, 0
3, 34440, Note_on_c, 1, 58, 0
3, 34440, Note_on_c, 1, 68, 0
3, 34440, Note_on_c, 1, 58, 90
3, 34440, Note_on_c, 1, 70, 90
3, 34450, Control_c, 1, 11, 29
3, 34470, Control_c, 1, 11, 28
3, 34480, Control_c, 1, 11, 27
3, 34500, Note_on_c, 1, 56, 0
3, 34500, Control_c, 1, 11, 26
3, 34500, Note_on_c, 1, 56, 90
3, 34500, Note_on_c, 1, 68, 90
3, 34520, Control_c, 1, 11, 25
3, 34530, Control_c, 1, 11, 24
3, 34550, Control_c, 1, 11, 23
3, 34560, Note_on_c, 1, 77, 0
3, 34560, Note_on_c, 1, 65, 0
3, 34560, Note_on_c, 1, 63, 90
3, 34560, Note_on_c, 1, 75, 90
3, 34570, Control_c, 1, 11, 22
3, 34590, Control_c, 1, 11, 21
3, 34600, Control_c, 1, 11, 20
3, 34620, Note_on_c, 1, 70, 0
3, 34620, Note_on_c, 1, 58, 0
3, 34620, Control_c, 1, 11, 19
3, 34620, Note_on_c, 1, 58, 90
3, 34620, Note_on_c, 1, 70, 90
3, 34640, Control_c, 1, 11, 18
3, 34650, Control_c, 1, 11, 17
3, 34670, Control_c, 1, 11, 16
3, 34680, Note_on_c, 1, 56, 0
3, 34680, Note_on_c, 1, 68, 0
3, 34680, Note_on_c, 1, 68, 90
3, 34680, Note_on_c, 1, 56, 90
3, 34690, Control_c, 1, 11, 15
3, 34710, Control_c, 1, 11, 14
3, 34720, Control_c, 1, 11, 13
3, 34740, Note_on_c, 1, 63, 0
3, 34740, Note_on_c, 1, 75, 0
3, 34740, Control_c, 1, 11, 12
3, 34740, Note_on_c, 1, 65, 90
3, 34740, Note_on_c, 1, 77, 90
3, 34760, Control_c, 1, 11, 11
3, 34770, Control_c, 1, 11, 10
3, 34790, Control_c, 1, 11, 9
3, 34800, Note_on_c, 1, 58, 0
3, 34800, Note_on_c, 1, 70, 0
3, 34800, Note_on_c, 1, 58, 90
3, 34800, Note_on_c, 1, 70, 90
3, 34810, Control_c, 1, 11, 8
3, 34830, Control_c, 1, 11, 7
3, 34840, Control_c, 1, 11, 6
3, 34860, Note_on_c, 1, 68, 0
3, 34860, Note_on_c, 1, 56, 0
3, 34860, Control_c, 1, 11, 5
3, 34860, Note_on_c, 1, 68, 90
3, 34860, Note_on_c, 1, 56, 90
3, 34880, Control_c, 1, 11, 4
3, 34890, Control_c, 1, 11, 3
3, 34910, Control_c, 1, 11, 2
3, 34920, Note_on_c, 1, 46, 0
3, 34920, Note_on_c, 1, 65, 0
3, 34920, Note_on_c, 1, 77, 0
3, 34930, Control_c, 1, 11, 1
3, 34940, Control_c, 1, 11, 0
3, 34980, Note_on_c, 1, 56, 0
3, 34980, Note_on_c, 1, 70, 0
3, 34980, Note_on_c, 1, 68, 0
3, 35040, Note_on_c, 1, 58, 0
3, 35040, End_track
4, 0, Start_track
4, 0, Title_t, "A3-E.Piano 1   "
4, 0, Control_c, 2, 0, 0
4, 0, Control_c, 2, 32, 3
4, 0, Program_c, 2, 4
4, 0, Control_c, 2, 7, 120
4, 0, Control_c, 2, 10, 64
4, 87, Control_c, 2, 91, 60
4, 88, Control_c, 2, 93, 10
4, 3960, Note_on_c, 2, 85, 110
4, 4020, Note_on_c, 2, 85, 0
4, 4020, Note_on_c, 2, 87, 110
4, 4080, Note_on_c, 2, 87, 0
4, 4080, Note_on_c, 2, 89, 110
4, 4140, Note_on_c, 2, 89, 0
4, 4140, Note_on_c, 2, 82, 110
4, 4320, Note_on_c, 2, 82, 0
4, 4320, Note_on_c, 2, 82, 110
4, 4380, Note_on_c, 2, 82, 0
4, 4380, Note_on_c, 2, 84, 110
4, 4440, Note_on_c, 2, 84, 0
4, 4440, Note_on_c, 2, 85, 110
4, 4500, Note_on_c, 2, 85, 0
4, 4500, Note_on_c, 2, 77, 110
4, 4560, Note_on_c, 2, 77, 0
4, 4560, Note_on_c, 2, 79, 110
4, 4620, Note_on_c, 2, 79, 0
4, 4620, Note_on_c, 2, 80, 110
4, 4680, Note_on_c, 2, 80, 0
4, 4680, Note_on_c, 2, 79, 110
4, 5400, Note_on_c, 2, 79, 0
4, 5400, Note_on_c, 2, 85, 110
4, 5460, Note_on_c, 2, 85, 0
4, 5460, Note_on_c, 2, 87, 110
4, 5520, Note_on_c, 2, 87, 0
4, 5520, Note_on_c, 2, 89, 110
4, 5580, Note_on_c, 2, 89, 0
4, 5580, Note_on_c, 2, 82, 110
4, 5760, Note_on_c, 2, 82, 0
4, 5760, Note_on_c, 2, 82, 110
4, 5820, Note_on_c, 2, 82, 0
4, 5820, Note_on_c, 2, 84, 110
4, 5880, Note_on_c, 2, 84, 0
4, 5880, Note_on_c, 2, 85, 110
4, 5940, Note_on_c, 2, 85, 0
4, 5940, Note_on_c, 2, 77, 110
4, 6000, Note_on_c, 2, 77, 0
4, 6000, Note_on_c, 2, 79, 110
4, 6060, Note_on_c, 2, 79, 0
4, 6060, Note_on_c, 2, 80, 110
4, 6120, Note_on_c, 2, 80, 0
4, 6120, Note_on_c, 2, 79, 110
4, 6240, Note_on_c, 2, 79, 0
4, 6240, Note_on_c, 2, 87, 110
4, 6840, Note_on_c, 2, 87, 0
4, 6840, Note_on_c, 2, 79, 110
4, 6900, Note_on_c, 2, 79, 0
4, 6900, Note_on_c, 2, 82, 110
4, 6960, Note_on_c, 2, 82, 0
4, 6960, Note_on_c, 2, 80, 110
4, 7020, Note_on_c, 2, 80, 0
4, 7020, Note_on_c, 2, 79, 110
4, 7140, Note_on_c, 2, 79, 0
4, 7140, Note_on_c, 2, 77, 110
4, 7200, Note_on_c, 2, 77, 0
4, 7200, Note_on_c, 2, 79, 110
4, 7380, Note_on_c, 2, 79, 0
4, 7380, Note_on_c, 2, 75, 110
4, 7440, Note_on_c, 2, 75, 0
4, 7440, Note_on_c, 2, 77, 110
4, 7500, Note_on_c, 2, 77, 0
4, 7500, Note_on_c, 2, 79, 110
4, 7560, Note_on_c, 2, 79, 0
4, 7560, Note_on_c, 2, 77, 110
4, 7680, Note_on_c, 2, 77, 0
4, 7680, Note_on_c, 2, 84, 110
4, 8280, Note_on_c, 2, 84, 0
4, 8280, Note_on_c, 2, 84, 110
4, 8340, Note_on_c, 2, 84, 0
4, 8340, Note_on_c, 2, 88, 110
4, 8400, Note_on_c, 2, 88, 0
4, 8400, Note_on_c, 2, 86, 110
4, 8460, Note_on_c, 2, 86, 0
4, 8460, Note_on_c, 2, 84, 110
4, 8580, Note_on_c, 2, 84, 0
4, 8580, Note_on_c, 2, 83, 110
4, 8640, Note_on_c, 2, 83, 0
4, 8640, Note_on_c, 2, 84, 110
4, 8820, Note_on_c, 2, 84, 0
4, 8820, Note_on_c, 2, 81, 110
4, 8880, Note_on_c, 2, 81, 0
4, 8880, Note_on_c, 2, 83, 110
4, 8940, Note_on_c, 2, 83, 0
4, 8940, Note_on_c, 2, 84, 110
4, 9000, Note_on_c, 2, 84, 0
4, 9000, Note_on_c, 2, 82, 110
4, 9120, Note_on_c, 2, 82, 0
4, 9120, Note_on_c, 2, 91, 110
4, 9720, Note_on_c, 2, 91, 0
4, 9720, Note_on_c, 2, 70, 113
4, 9774, Note_on_c, 2, 70, 0
4, 9780, Note_on_c, 2, 72, 113
4, 9834, Note_on_c, 2, 72, 0
4, 9840, Note_on_c, 2, 70, 113
4, 9894, Note_on_c, 2, 70, 0
4, 9900, Note_on_c, 2, 82, 113
4, 9954, Note_on_c, 2, 82, 0
4, 9960, Note_on_c, 2, 81, 113
4, 10014, Note_on_c, 2, 81, 0
4, 10020, Note_on_c, 2, 77, 113
4, 10074, Note_on_c, 2, 77, 0
4, 10080, Note_on_c, 2, 80, 113
4, 10134, Note_on_c, 2, 80, 0
4, 10140, Note_on_c, 2, 79, 113
4, 10194, Note_on_c, 2, 79, 0
4, 10200, Note_on_c, 2, 75, 113
4, 10254, Note_on_c, 2, 75, 0
4, 10260, Note_on_c, 2, 73, 113
4, 10314, Note_on_c, 2, 73, 0
4, 10320, Note_on_c, 2, 75, 113
4, 10374, Note_on_c, 2, 75, 0
4, 10380, Note_on_c, 2, 77, 113
4, 10434, Note_on_c, 2, 77, 0
4, 10440, Note_on_c, 2, 70, 113
4, 11040, Note_on_c, 2, 70, 0
4, 11160, Note_on_c, 2, 70, 113
4, 11214, Note_on_c, 2, 70, 0
4, 11220, Note_on_c, 2, 72, 113
4, 11274, Note_on_c, 2, 72, 0
4, 11280, Note_on_c, 2, 70, 113
4, 11334, Note_on_c, 2, 70, 0
4, 11340, Note_on_c, 2, 82, 113
4, 11394, Note_on_c, 2, 82, 0
4, 11400, Note_on_c, 2, 81, 113
4, 11454, Note_on_c, 2, 81, 0
4, 11460, Note_on_c, 2, 77, 113
4, 11514, Note_on_c, 2, 77, 0
4, 11520, Note_on_c, 2, 80, 113
4, 11574, Note_on_c, 2, 80, 0
4, 11580, Note_on_c, 2, 79, 113
4, 11634, Note_on_c, 2, 79, 0
4, 11640, Note_on_c, 2, 75, 113
4, 11694, Note_on_c, 2, 75, 0
4, 11700, Note_on_c, 2, 73, 113
4, 11754, Note_on_c, 2, 73, 0
4, 11760, Note_on_c, 2, 75, 113
4, 11814, Note_on_c, 2, 75, 0
4, 11820, Note_on_c, 2, 77, 113
4, 11874, Note_on_c, 2, 77, 0
4, 11880, Note_on_c, 2, 79, 113
4, 12480, Note_on_c, 2, 79, 0
4, 12600, Note_on_c, 2, 70, 113
4, 12654, Note_on_c, 2, 70, 0
4, 12660, Note_on_c, 2, 72, 113
4, 12714, Note_on_c, 2, 72, 0
4, 12720, Note_on_c, 2, 70, 113
4, 12774, Note_on_c, 2, 70, 0
4, 12780, Note_on_c, 2, 82, 113
4, 12834, Note_on_c, 2, 82, 0
4, 12840, Note_on_c, 2, 81, 113
4, 12894, Note_on_c, 2, 81, 0
4, 12900, Note_on_c, 2, 77, 113
4, 12954, Note_on_c, 2, 77, 0
4, 12960, Note_on_c, 2, 80, 113
4, 13014, Note_on_c, 2, 80, 0
4, 13020, Note_on_c, 2, 79, 113
4, 13074, Note_on_c, 2, 79, 0
4, 13080, Note_on_c, 2, 75, 113
4, 13134, Note_on_c, 2, 75, 0
4, 13140, Note_on_c, 2, 73, 113
4, 13194, Note_on_c, 2, 73, 0
4, 13200, Note_on_c, 2, 75, 113
4, 13254, Note_on_c, 2, 75, 0
4, 13260, Note_on_c, 2, 77, 113
4, 13314, Note_on_c, 2, 77, 0
4, 13320, Note_on_c, 2, 70, 113
4, 13920, Note_on_c, 2, 70, 0
4, 14040, Note_on_c, 2, 70, 113
4, 14094, Note_on_c, 2, 70, 0
4, 14100, Note_on_c, 2, 72, 113
4, 14154, Note_on_c, 2, 72, 0
4, 14160, Note_on_c, 2, 70, 113
4, 14214, Note_on_c, 2, 70, 0
4, 14220, Note_on_c, 2, 73, 113
4, 14274, Note_on_c, 2, 73, 0
4, 14280, Note_on_c, 2, 72, 113
4, 14334, Note_on_c, 2, 72, 0
4, 14340, Note_on_c, 2, 70, 113
4, 14394, Note_on_c, 2, 70, 0
4, 14400, Note_on_c, 2, 68, 113
4, 14514, Note_on_c, 2, 68, 0
4, 14520, Note_on_c, 2, 65, 113
4, 14634, Note_on_c, 2, 65, 0
4, 14640, Note_on_c, 2, 68, 113
4, 14754, Note_on_c, 2, 68, 0
4, 14760, Note_on_c, 2, 70, 113
4, 15450, Note_on_c, 2, 70, 0
4, 23400, Note_on_c, 2, 70, 113
4, 23400, Note_on_c, 2, 61, 82
4, 23454, Note_on_c, 2, 61, 0
4, 23454, Note_on_c, 2, 70, 0
4, 23460, Note_on_c, 2, 63, 82
4, 23460, Note_on_c, 2, 72, 113
4, 23514, Note_on_c, 2, 72, 0
4, 23514, Note_on_c, 2, 63, 0
4, 23520, Note_on_c, 2, 61, 82
4, 23520, Note_on_c, 2, 70, 113
4, 23574, Note_on_c, 2, 70, 0
4, 23574, Note_on_c, 2, 61, 0
4, 23580, Note_on_c, 2, 73, 82
4, 23580, Note_on_c, 2, 82, 113
4, 23634, Note_on_c, 2, 82, 0
4, 23634, Note_on_c, 2, 73, 0
4, 23640, Note_on_c, 2, 75, 82
4, 23640, Note_on_c, 2, 81, 113
4, 23694, Note_on_c, 2, 81, 0
4, 23694, Note_on_c, 2, 75, 0
4, 23700, Note_on_c, 2, 73, 82
4, 23700, Note_on_c, 2, 77, 113
4, 23754, Note_on_c, 2, 77, 0
4, 23754, Note_on_c, 2, 73, 0
4, 23760, Note_on_c, 2, 77, 82
4, 23760, Note_on_c, 2, 80, 113
4, 23814, Note_on_c, 2, 80, 0
4, 23814, Note_on_c, 2, 77, 0
4, 23820, Note_on_c, 2, 75, 82
4, 23820, Note_on_c, 2, 79, 113
4, 23874, Note_on_c, 2, 79, 0
4, 23874, Note_on_c, 2, 75, 0
4, 23880, Note_on_c, 2, 72, 82
4, 23880, Note_on_c, 2, 75, 113
4, 23934, Note_on_c, 2, 75, 0
4, 23934, Note_on_c, 2, 72, 0
4, 23940, Note_on_c, 2, 70, 82
4, 23940, Note_on_c, 2, 73, 113
4, 23994, Note_on_c, 2, 73, 0
4, 23994, Note_on_c, 2, 70, 0
4, 24000, Note_on_c, 2, 72, 82
4, 24000, Note_on_c, 2, 75, 113
4, 24054, Note_on_c, 2, 75, 0
4, 24054, Note_on_c, 2, 72, 0
4, 24060, Note_on_c, 2, 73, 82
4, 24060, Note_on_c, 2, 77, 113
4, 24114, Note_on_c, 2, 77, 0
4, 24114, Note_on_c, 2, 73, 0
4, 24120, Note_on_c, 2, 67, 82
4, 24120, Note_on_c, 2, 70, 113
4, 24720, Note_on_c, 2, 70, 0
4, 24720, Note_on_c, 2, 67, 0
4, 24840, Note_on_c, 2, 61, 82
4, 24840, Note_on_c, 2, 70, 113
4, 24894, Note_on_c, 2, 70, 0
4, 24894, Note_on_c, 2, 61, 0
4, 24900, Note_on_c, 2, 63, 82
4, 24900, Note_on_c, 2, 72, 113
4, 24954, Note_on_c, 2, 72, 0
4, 24954, Note_on_c, 2, 63, 0
4, 24960, Note_on_c, 2, 61, 82
4, 24960, Note_on_c, 2, 70, 113
4, 25014, Note_on_c, 2, 70, 0
4, 25014, Note_on_c, 2, 61, 0
4, 25020, Note_on_c, 2, 73, 82
4, 25020, Note_on_c, 2, 82, 113
4, 25074, Note_on_c, 2, 82, 0
4, 25074, Note_on_c, 2, 73, 0
4, 25080, Note_on_c, 2, 75, 82
4, 25080, Note_on_c, 2, 81, 113
4, 25134, Note_on_c, 2, 81, 0
4, 25134, Note_on_c, 2, 75, 0
4, 25140, Note_on_c, 2, 73, 82
4, 25140, Note_on_c, 2, 77, 113
4, 25194, Note_on_c, 2, 77, 0
4, 25194, Note_on_c, 2, 73, 0
4, 25200, Note_on_c, 2, 77, 82
4, 25200, Note_on_c, 2, 80, 113
4, 25254, Note_on_c, 2, 80, 0
4, 25254, Note_on_c, 2, 77, 0
4, 25260, Note_on_c, 2, 75, 82
4, 25260, Note_on_c, 2, 79, 113
4, 25314, Note_on_c, 2, 79, 0
4, 25314, Note_on_c, 2, 75, 0
4, 25320, Note_on_c, 2, 72, 82
4, 25320, Note_on_c, 2, 75, 113
4, 25374, Note_on_c, 2, 75, 0
4, 25374, Note_on_c, 2, 72, 0
4, 25380, Note_on_c, 2, 70, 82
4, 25380, Note_on_c, 2, 73, 113
4, 25434, Note_on_c, 2, 73, 0
4, 25434, Note_on_c, 2, 70, 0
4, 25440, Note_on_c, 2, 72, 82
4, 25440, Note_on_c, 2, 75, 113
4, 25494, Note_on_c, 2, 75, 0
4, 25494, Note_on_c, 2, 72, 0
4, 25500, Note_on_c, 2, 73, 82
4, 25500, Note_on_c, 2, 77, 113
4, 25554, Note_on_c, 2, 77, 0
4, 25554, Note_on_c, 2, 73, 0
4, 25560, Note_on_c, 2, 75, 82
4, 25560, Note_on_c, 2, 79, 113
4, 26160, Note_on_c, 2, 79, 0
4, 26160, Note_on_c, 2, 75, 0
4, 26280, Note_on_c, 2, 61, 82
4, 26280, Note_on_c, 2, 70, 113
4, 26334, Note_on_c, 2, 70, 0
4, 26334, Note_on_c, 2, 61, 0
4, 26340, Note_on_c, 2, 63, 82
4, 26340, Note_on_c, 2, 72, 113
4, 26394, Note_on_c, 2, 72, 0
4, 26394, Note_on_c, 2, 63, 0
4, 26400, Note_on_c, 2, 61, 82
4, 26400, Note_on_c, 2, 70, 113
4, 26454, Note_on_c, 2, 70, 0
4, 26454, Note_on_c, 2, 61, 0
4, 26460, Note_on_c, 2, 73, 82
4, 26460, Note_on_c, 2, 82, 113
4, 26514, Note_on_c, 2, 82, 0
4, 26514, Note_on_c, 2, 73, 0
4, 26520, Note_on_c, 2, 75, 82
4, 26520, Note_on_c, 2, 81, 113
4, 26574, Note_on_c, 2, 81, 0
4, 26574, Note_on_c, 2, 75, 0
4, 26580, Note_on_c, 2, 73, 82
4, 26580, Note_on_c, 2, 77, 113
4, 26634, Note_on_c, 2, 77, 0
4, 26634, Note_on_c, 2, 73, 0
4, 26640, Note_on_c, 2, 77, 82
4, 26640, Note_on_c, 2, 80, 113
4, 26694, Note_on_c, 2, 80, 0
4, 26694, Note_on_c, 2, 77, 0
4, 26700, Note_on_c, 2, 75, 82
4, 26700, Note_on_c, 2, 79, 113
4, 26754, Note_on_c, 2, 79, 0
4, 26754, Note_on_c, 2, 75, 0
4, 26760, Note_on_c, 2, 72, 82
4, 26760, Note_on_c, 2, 75, 113
4, 26814, Note_on_c, 2, 75, 0
4, 26814, Note_on_c, 2, 72, 0
4, 26820, Note_on_c, 2, 70, 82
4, 26820, Note_on_c, 2, 73, 113
4, 26874, Note_on_c, 2, 73, 0
4, 26874, Note_on_c, 2, 70, 0
4, 26880, Note_on_c, 2, 72, 82
4, 26880, Note_on_c, 2, 75, 113
4, 26934, Note_on_c, 2, 75, 0
4, 26934, Note_on_c, 2, 72, 0
4, 26940, Note_on_c, 2, 73, 82
4, 26940, Note_on_c, 2, 77, 113
4, 26994, Note_on_c, 2, 77, 0
4, 26994, Note_on_c, 2, 73, 0
4, 27000, Note_on_c, 2, 67, 82
4, 27000, Note_on_c, 2, 70, 113
4, 27600, Note_on_c, 2, 70, 0
4, 27600, Note_on_c, 2, 67, 0
4, 27720, Note_on_c, 2, 66, 82
4, 27720, Note_on_c, 2, 70, 113
4, 27774, Note_on_c, 2, 70, 0
4, 27774, Note_on_c, 2, 66, 0
4, 27780, Note_on_c, 2, 68, 82
4, 27780, Note_on_c, 2, 72, 113
4, 27834, Note_on_c, 2, 72, 0
4, 27834, Note_on_c, 2, 68, 0
4, 27840, Note_on_c, 2, 66, 82
4, 27840, Note_on_c, 2, 70, 113
4, 27894, Note_on_c, 2, 70, 0
4, 27894, Note_on_c, 2, 66, 0
4, 27900, Note_on_c, 2, 66, 82
4, 27900, Note_on_c, 2, 73, 113
4, 27954, Note_on_c, 2, 73, 0
4, 27954, Note_on_c, 2, 66, 0
4, 27960, Note_on_c, 2, 68, 82
4, 27960, Note_on_c, 2, 72, 113
4, 28014, Note_on_c, 2, 72, 0
4, 28014, Note_on_c, 2, 68, 0
4, 28020, Note_on_c, 2, 70, 113
4, 28020, Note_on_c, 2, 66, 82
4, 28074, Note_on_c, 2, 66, 0
4, 28074, Note_on_c, 2, 70, 0
4, 28080, Note_on_c, 2, 65, 82
4, 28080, Note_on_c, 2, 68, 113
4, 28194, Note_on_c, 2, 68, 0
4, 28200, Note_on_c, 2, 65, 0
4, 28200, Note_on_c, 2, 60, 82
4, 28200, Note_on_c, 2, 65, 113
4, 28314, Note_on_c, 2, 65, 0
4, 28320, Note_on_c, 2, 60, 0
4, 28320, Note_on_c, 2, 63, 82
4, 28320, Note_on_c, 2, 68, 113
4, 28434, Note_on_c, 2, 68, 0
4, 28440, Note_on_c, 2, 63, 0
4, 28440, Note_on_c, 2, 62, 82
4, 28440, Note_on_c, 2, 70, 113
4, 29130, Note_on_c, 2, 70, 0
4, 29130, Note_on_c, 2, 62, 0
4, 32760, Control_c, 2, 11, 127
4, 32760, Note_on_c, 2, 85, 110
4, 32780, Control_c, 2, 11, 126
4, 32800, Control_c, 2, 11, 125
4, 32820, Note_on_c, 2, 85, 0
4, 32820, Control_c, 2, 11, 124
4, 32820, Note_on_c, 2, 87, 110
4, 32830, Control_c, 2, 11, 123
4, 32850, Control_c, 2, 11, 122
4, 32870, Control_c, 2, 11, 121
4, 32880, Note_on_c, 2, 87, 0
4, 32880, Control_c, 2, 11, 120
4, 32880, Note_on_c, 2, 89, 110
4, 32900, Control_c, 2, 11, 119
4, 32920, Control_c, 2, 11, 118
4, 32940, Note_on_c, 2, 89, 0
4, 32940, Control_c, 2, 11, 117
4, 32940, Note_on_c, 2, 82, 110
4, 32950, Control_c, 2, 11, 116
4, 32970, Control_c, 2, 11, 115
4, 32990, Control_c, 2, 11, 114
4, 33000, Control_c, 2, 11, 113
4, 33020, Control_c, 2, 11, 112
4, 33040, Control_c, 2, 11, 111
4, 33060, Control_c, 2, 11, 110
4, 33070, Control_c, 2, 11, 109
4, 33090, Control_c, 2, 11, 108
4, 33110, Control_c, 2, 11, 107
4, 33120, Note_on_c, 2, 82, 0
4, 33120, Control_c, 2, 11, 106
4, 33120, Note_on_c, 2, 82, 110
4, 33140, Control_c, 2, 11, 105
4, 33160, Control_c, 2, 11, 104
4, 33180, Note_on_c, 2, 82, 0
4, 33180, Control_c, 2, 11, 103
4, 33180, Note_on_c, 2, 84, 110
4, 33190, Control_c, 2, 11, 102
4, 33210, Control_c, 2, 11, 101
4, 33230, Control_c, 2, 11, 100
4, 33240, Note_on_c, 2, 84, 0
4, 33240, Control_c, 2, 11, 99
4, 33240, Note_on_c, 2, 85, 110
4, 33260, Control_c, 2, 11, 98
4, 33280, Control_c, 2, 11, 97
4, 33290, Control_c, 2, 11, 96
4, 33300, Note_on_c, 2, 85, 0
4, 33300, Note_on_c, 2, 77, 110
4, 33310, Control_c, 2, 11, 95
4, 33330, Control_c, 2, 11, 94
4, 33350, Control_c, 2, 11, 93
4, 33360, Note_on_c, 2, 77, 0
4, 33360, Control_c, 2, 11, 92
4, 33360, Note_on_c, 2, 79, 110
4, 33380, Control_c, 2, 11, 91
4, 33400, Control_c, 2, 11, 90
4, 33410, Control_c, 2, 11, 89
4, 33420, Note_on_c, 2, 79, 0
4, 33420, Note_on_c, 2, 80, 110
4, 33430, Control_c, 2, 11, 88
4, 33450, Control_c, 2, 11, 87
4, 33470, Control_c, 2, 11, 86
4, 33480, Note_on_c, 2, 80, 0
4, 33480, Control_c, 2, 11, 85
4, 33480, Note_on_c, 2, 79, 110
4, 33500, Control_c, 2, 11, 84
4, 33520, Control_c, 2, 11, 83
4, 33530, Control_c, 2, 11, 82
4, 33550, Control_c, 2, 11, 81
4, 33570, Control_c, 2, 11, 80
4, 33590, Control_c, 2, 11, 79
4, 33600, Control_c, 2, 11, 78
4, 33620, Control_c, 2, 11, 77
4, 33640, Control_c, 2, 11, 76
4, 33650, Control_c, 2, 11, 75
4, 33670, Control_c, 2, 11, 74
4, 33690, Control_c, 2, 11, 73
4, 33700, Control_c, 2, 11, 72
4, 33720, Control_c, 2, 11, 71
4, 33740, Control_c, 2, 11, 70
4, 33760, Control_c, 2, 11, 69
4, 33770, Control_c, 2, 11, 68
4, 33790, Control_c, 2, 11, 67
4, 33810, Control_c, 2, 11, 66
4, 33820, Control_c, 2, 11, 65
4, 33840, Control_c, 2, 11, 64
4, 33860, Control_c, 2, 11, 63
4, 33880, Control_c, 2, 11, 62
4, 33890, Control_c, 2, 11, 61
4, 33910, Control_c, 2, 11, 60
4, 33930, Control_c, 2, 11, 59
4, 33940, Control_c, 2, 11, 58
4, 33960, Control_c, 2, 11, 57
4, 33980, Control_c, 2, 11, 56
4, 34000, Control_c, 2, 11, 55
4, 34010, Control_c, 2, 11, 54
4, 34030, Control_c, 2, 11, 53
4, 34050, Control_c, 2, 11, 52
4, 34060, Control_c, 2, 11, 51
4, 34080, Control_c, 2, 11, 50
4, 34100, Control_c, 2, 11, 49
4, 34110, Control_c, 2, 11, 48
4, 34130, Control_c, 2, 11, 47
4, 34150, Control_c, 2, 11, 46
4, 34170, Control_c, 2, 11, 45
4, 34180, Control_c, 2, 11, 44
4, 34200, Note_on_c, 2, 79, 0
4, 34200, Control_c, 2, 11, 43
4, 34200, Note_on_c, 2, 85, 110
4, 34220, Control_c, 2, 11, 42
4, 34230, Control_c, 2, 11, 41
4, 34250, Control_c, 2, 11, 40
4, 34260, Note_on_c, 2, 85, 0
4, 34260, Note_on_c, 2, 87, 110
4, 34270, Control_c, 2, 11, 39
4, 34290, Control_c, 2, 11, 38
4, 34300, Control_c, 2, 11, 37
4, 34320, Note_on_c, 2, 87, 0
4, 34320, Control_c, 2, 11, 36
4, 34320, Note_on_c, 2, 89, 110
4, 34340, Control_c, 2, 11, 35
4, 34350, Control_c, 2, 11, 34
4, 34370, Control_c, 2, 11, 33
4, 34380, Note_on_c, 2, 89, 0
4, 34380, Note_on_c, 2, 82, 110
4, 34390, Control_c, 2, 11, 32
4, 34410, Control_c, 2, 11, 31
4, 34420, Control_c, 2, 11, 30
4, 34440, Control_c, 2, 11, 29
4, 34460, Control_c, 2, 11, 28
4, 34470, Control_c, 2, 11, 27
4, 34490, Control_c, 2, 11, 26
4, 34510, Control_c, 2, 11, 25
4, 34520, Control_c, 2, 11, 24
4, 34540, Control_c, 2, 11, 23
4, 34560, Note_on_c, 2, 82, 0
4, 34560, Control_c, 2, 11, 22
4, 34560, Note_on_c, 2, 82, 110
4, 34580, Control_c, 2, 11, 21
4, 34590, Control_c, 2, 11, 20
4, 34610, Control_c, 2, 11, 19
4, 34620, Note_on_c, 2, 82, 0
4, 34620, Note_on_c, 2, 84, 110
4, 34630, Control_c, 2, 11, 18
4, 34640, Control_c, 2, 11, 17
4, 34660, Control_c, 2, 11, 16
4, 34680, Note_on_c, 2, 84, 0
4, 34680, Control_c, 2, 11, 15
4, 34680, Note_on_c, 2, 85, 110
4, 34700, Control_c, 2, 11, 14
4, 34710, Control_c, 2, 11, 13
4, 34730, Control_c, 2, 11, 12
4, 34740, Note_on_c, 2, 85, 0
4, 34740, Note_on_c, 2, 77, 110
4, 34750, Control_c, 2, 11, 11
4, 34760, Control_c, 2, 11, 10
4, 34780, Control_c, 2, 11, 9
4, 34800, Note_on_c, 2, 77, 0
4, 34800, Control_c, 2, 11, 8
4, 34800, Note_on_c, 2, 79, 110
4, 34820, Control_c, 2, 11, 7
4, 34830, Control_c, 2, 11, 6
4, 34850, Control_c, 2, 11, 5
4, 34860, Note_on_c, 2, 79, 0
4, 34860, Note_on_c, 2, 80, 110
4, 34870, Control_c, 2, 11, 4
4, 34880, Control_c, 2, 11, 3
4, 34900, Control_c, 2, 11, 2
4, 34920, Note_on_c, 2, 80, 0
4, 34920, Control_c, 2, 11, 1
4, 34930, Control_c, 2, 11, 0
4, 34930, End_track
5, 0, Start_track
5, 0, Title_t, "A4-Bright Str: "
5, 0, Control_c, 3, 0, 1
5, 0, Control_c, 3, 32, 3
5, 0, Program_c, 3, 48
5, 0, Control_c, 3, 7, 80
5, 0, Control_c, 3, 10, 60
5, 95, Control_c, 3, 91, 60
5, 96, Control_c, 3, 93, 20
5, 99, Control_c, 3, 99, 1
5, 99, Control_c, 3, 98, 99
5, 99, Control_c, 3, 6, 63
5, 99, Control_c, 3, 38, 0
5, 102, Control_c, 3, 99, 1
5, 102, Control_c, 3, 98, 102
5, 102, Control_c, 3, 6, 83
5, 102, Control_c, 3, 38, 0
5, 676, Control_c, 3, 99, 1
5, 676, Control_c, 3, 98, 102
5, 676, Control_c, 3, 6, 83
5, 676, Control_c, 3, 38, 127
5, 716, Control_c, 3, 99, 1
5, 716, Control_c, 3, 98, 102
5, 716, Control_c, 3, 6, 83
5, 716, Control_c, 3, 38, 127
5, 3960, Note_on_c, 3, 73, 100
5, 3960, Note_on_c, 3, 77, 100
5, 4680, Note_on_c, 3, 77, 0
5, 4680, Note_on_c, 3, 73, 0
5, 4680, Note_on_c, 3, 75, 100
5, 4680, Note_on_c, 3, 79, 100
5, 5400, Note_on_c, 3, 79, 0
5, 5400, Note_on_c, 3, 75, 0
5, 5400, Note_on_c, 3, 73, 100
5, 5400, Note_on_c, 3, 77, 100
5, 5760, Note_on_c, 3, 77, 0
5, 5760, Note_on_c, 3, 73, 0
5, 5760, Note_on_c, 3, 73, 100
5, 5760, Note_on_c, 3, 82, 100
5, 5940, Note_on_c, 3, 82, 0
5, 5940, Note_on_c, 3, 73, 0
5, 5940, Note_on_c, 3, 73, 100
5, 5940, Note_on_c, 3, 80, 100
5, 6120, Note_on_c, 3, 80, 0
5, 6120, Note_on_c, 3, 73, 0
5, 6120, Note_on_c, 3, 79, 100
5, 6120, Note_on_c, 3, 75, 100
5, 6840, Note_on_c, 3, 75, 0
5, 6840, Note_on_c, 3, 79, 0
5, 6840, Note_on_c, 3, 72, 100
5, 6840, Note_on_c, 3, 75, 100
5, 7560, Note_on_c, 3, 75, 0
5, 7560, Note_on_c, 3, 72, 0
5, 7560, Note_on_c, 3, 73, 100
5, 7560, Note_on_c, 3, 77, 100
5, 8280, Note_on_c, 3, 77, 0
5, 8280, Note_on_c, 3, 73, 0
5, 8280, Note_on_c, 3, 72, 100
5, 8280, Note_on_c, 3, 76, 100
5, 9000, Note_on_c, 3, 76, 0
5, 9000, Note_on_c, 3, 72, 0
5, 9000, Note_on_c, 3, 70, 100
5, 9000, Note_on_c, 3, 74, 100
5, 9720, Note_on_c, 3, 74, 0
5, 9720, Note_on_c, 3, 70, 0
5, 9720, Note_on_c, 3, 73, 100
5, 9720, Note_on_c, 3, 77, 100
5, 10440, Note_on_c, 3, 77, 0
5, 10440, Note_on_c, 3, 73, 0
5, 10440, Note_on_c, 3, 75, 100
5, 10440, Note_on_c, 3, 79, 100
5, 11160, Note_on_c, 3, 79, 0
5, 11160, Note_on_c, 3, 75, 0
5, 11160, Note_on_c, 3, 73, 100
5, 11160, Note_on_c, 3, 77, 100
5, 11520, Note_on_c, 3, 77, 0
5, 11520, Note_on_c, 3, 73, 0
5, 11520, Note_on_c, 3, 73, 100
5, 11520, Note_on_c, 3, 82, 100
5, 11700, Note_on_c, 3, 82, 0
5, 11700, Note_on_c, 3, 73, 0
5, 11700, Note_on_c, 3, 73, 100
5, 11700, Note_on_c, 3, 80, 100
5, 11880, Note_on_c, 3, 80, 0
5, 11880, Note_on_c, 3, 73, 0
5, 11880, Note_on_c, 3, 79, 100
5, 11880, Note_on_c, 3, 75, 100
5, 12600, Note_on_c, 3, 75, 0
5, 12600, Note_on_c, 3, 79, 0
5, 12600, Note_on_c, 3, 73, 100
5, 12600, Note_on_c, 3, 77, 100
5, 13320, Note_on_c, 3, 77, 0
5, 13320, Note_on_c, 3, 73, 0
5, 13320, Note_on_c, 3, 75, 100
5, 13320, Note_on_c, 3, 79, 100
5, 13920, Note_on_c, 3, 79, 0
5, 13920, Note_on_c, 3, 75, 0
5, 13920, Note_on_c, 3, 77, 100
5, 13920, Note_on_c, 3, 80, 100
5, 14040, Note_on_c, 3, 80, 0
5, 14040, Note_on_c, 3, 77, 0
5, 14040, Note_on_c, 3, 78, 100
5, 14040, Note_on_c, 3, 82, 100
5, 14400, Note_on_c, 3, 82, 0
5, 14400, Note_on_c, 3, 78, 0
5, 14400, Note_on_c, 3, 77, 100
5, 14400, Note_on_c, 3, 80, 100
5, 14760, Note_on_c, 3, 80, 0
5, 14760, Note_on_c, 3, 77, 0
5, 14760, Note_on_c, 3, 74, 100
5, 14760, Note_on_c, 3, 77, 100
5, 14760, Note_on_c, 3, 82, 100
5, 15480, Note_on_c, 3, 82, 0
5, 15480, Note_on_c, 3, 77, 0
5, 15480, Note_on_c, 3, 74, 0
5, 16200, Note_on_c, 3, 86, 100
5, 16200, Note_on_c, 3, 74, 100
5, 16320, Note_on_c, 3, 74, 0
5, 16320, Note_on_c, 3, 86, 0
5, 16320, Note_on_c, 3, 86, 100
5, 16320, Note_on_c, 3, 74, 100
5, 16440, Note_on_c, 3, 74, 0
5, 16440, Note_on_c, 3, 86, 0
5, 16440, Note_on_c, 3, 87, 100
5, 16440, Note_on_c, 3, 75, 100
5, 16560, Note_on_c, 3, 75, 0
5, 16560, Note_on_c, 3, 87, 0
5, 16560, Note_on_c, 3, 89, 100
5, 16560, Note_on_c, 3, 77, 100
5, 16680, Note_on_c, 3, 77, 0
5, 16680, Note_on_c, 3, 89, 0
5, 16680, Note_on_c, 3, 82, 100
5, 16680, Note_on_c, 3, 70, 100
5, 16800, Note_on_c, 3, 70, 0
5, 16800, Note_on_c, 3, 82, 0
5, 16800, Note_on_c, 3, 94, 100
5, 16800, Note_on_c, 3, 82, 100
5, 16920, Note_on_c, 3, 82, 0
5, 16920, Note_on_c, 3, 94, 0
5, 16920, Note_on_c, 3, 92, 100
5, 16920, Note_on_c, 3, 80, 100
5, 17160, Note_on_c, 3, 80, 0
5, 17160, Note_on_c, 3, 92, 0
5, 17160, Note_on_c, 3, 91, 100
5, 17160, Note_on_c, 3, 79, 100
5, 17280, Note_on_c, 3, 79, 0
5, 17280, Note_on_c, 3, 91, 0
5, 17280, Note_on_c, 3, 89, 100
5, 17280, Note_on_c, 3, 77, 100
5, 17460, Note_on_c, 3, 77, 0
5, 17460, Note_on_c, 3, 89, 0
5, 17460, Note_on_c, 3, 87, 100
5, 17460, Note_on_c, 3, 75, 100
5, 17520, Note_on_c, 3, 75, 0
5, 17520, Note_on_c, 3, 87, 0
5, 17520, Note_on_c, 3, 86, 100
5, 17520, Note_on_c, 3, 74, 100
5, 17580, Note_on_c, 3, 74, 0
5, 17580, Note_on_c, 3, 86, 0
5, 17580, Note_on_c, 3, 87, 100
5, 17580, Note_on_c, 3, 75, 100
5, 17640, Note_on_c, 3, 75, 0
5, 17640, Note_on_c, 3, 87, 0
5, 17640, Note_on_c, 3, 89, 100
5, 17640, Note_on_c, 3, 77, 100
5, 17880, Note_on_c, 3, 77, 0
5, 17880, Note_on_c, 3, 89, 0
5, 17880, Note_on_c, 3, 86, 100
5, 17880, Note_on_c, 3, 74, 100
5, 18000, Note_on_c, 3, 74, 0
5, 18000, Note_on_c, 3, 86, 0
5, 18000, Note_on_c, 3, 82, 100
5, 18000, Note_on_c, 3, 70, 100
5, 18180, Note_on_c, 3, 70, 0
5, 18180, Note_on_c, 3, 82, 0
5, 18180, Note_on_c, 3, 84, 100
5, 18180, Note_on_c, 3, 72, 100
5, 18240, Note_on_c, 3, 72, 0
5, 18240, Note_on_c, 3, 84, 0
5, 18240, Note_on_c, 3, 82, 100
5, 18240, Note_on_c, 3, 70, 100
5, 18360, Note_on_c, 3, 70, 0
5, 18360, Note_on_c, 3, 82, 0
5, 18360, Note_on_c, 3, 80, 100
5, 18360, Note_on_c, 3, 68, 100
5, 18600, Note_on_c, 3, 68, 0
5, 18600, Note_on_c, 3, 80, 0
5, 18600, Note_on_c, 3, 79, 100
5, 18600, Note_on_c, 3, 67, 100
5, 18720, Note_on_c, 3, 67, 0
5, 18720, Note_on_c, 3, 79, 0
5, 18720, Note_on_c, 3, 77, 100
5, 18720, Note_on_c, 3, 65, 100
5, 19080, Note_on_c, 3, 65, 0
5, 19080, Note_on_c, 3, 77, 0
5, 19080, Note_on_c, 3, 74, 100
5, 19080, Note_on_c, 3, 86, 100
5, 19200, Note_on_c, 3, 86, 0
5, 19200, Note_on_c, 3, 74, 0
5, 19200, Note_on_c, 3, 74, 100
5, 19200, Note_on_c, 3, 86, 100
5, 19320, Note_on_c, 3, 86, 0
5, 19320, Note_on_c, 3, 74, 0
5, 19320, Note_on_c, 3, 75, 100
5, 19320, Note_on_c, 3, 87, 100
5, 19440, Note_on_c, 3, 87, 0
5, 19440, Note_on_c, 3, 75, 0
5, 19440, Note_on_c, 3, 77, 100
5, 19440, Note_on_c, 3, 89, 100
5, 19560, Note_on_c, 3, 89, 0
5, 19560, Note_on_c, 3, 77, 0
5, 19560, Note_on_c, 3, 70, 100
5, 19560, Note_on_c, 3, 82, 100
5, 19680, Note_on_c, 3, 82, 0
5, 19680, Note_on_c, 3, 70, 0
5, 19680, Note_on_c, 3, 82, 100
5, 19680, Note_on_c, 3, 94, 100
5, 19800, Note_on_c, 3, 94, 0
5, 19800, Note_on_c, 3, 82, 0
5, 19800, Note_on_c, 3, 80, 100
5, 19800, Note_on_c, 3, 92, 100
5, 20040, Note_on_c, 3, 92, 0
5, 20040, Note_on_c, 3, 80, 0
5, 20040, Note_on_c, 3, 79, 100
5, 20040, Note_on_c, 3, 91, 100
5, 20160, Note_on_c, 3, 91, 0
5, 20160, Note_on_c, 3, 79, 0
5, 20160, Note_on_c, 3, 77, 100
5, 20160, Note_on_c, 3, 89, 100
5, 20280, Note_on_c, 3, 89, 0
5, 20280, Note_on_c, 3, 77, 0
5, 20280, Note_on_c, 3, 77, 100
5, 20280, Note_on_c, 3, 89, 100
5, 20400, Note_on_c, 3, 89, 0
5, 20400, Note_on_c, 3, 77, 0
5, 20400, Note_on_c, 3, 79, 100
5, 20400, Note_on_c, 3, 91, 100
5, 20520, Note_on_c, 3, 91, 0
5, 20520, Note_on_c, 3, 79, 0
5, 20520, Note_on_c, 3, 80, 100
5, 20520, Note_on_c, 3, 92, 100
5, 20760, Note_on_c, 3, 92, 0
5, 20760, Note_on_c, 3, 80, 0
5, 20760, Note_on_c, 3, 77, 100
5, 20760, Note_on_c, 3, 89, 100
5, 20880, Note_on_c, 3, 89, 0
5, 20880, Note_on_c, 3, 77, 0
5, 20880, Note_on_c, 3, 77, 100
5, 20880, Note_on_c, 3, 89, 100
5, 21120, Note_on_c, 3, 89, 0
5, 21120, Note_on_c, 3, 77, 0
5, 21120, Note_on_c, 3, 80, 100
5, 21120, Note_on_c, 3, 92, 100
5, 21240, Note_on_c, 3, 92, 0
5, 21240, Note_on_c, 3, 80, 0
5, 21240, Note_on_c, 3, 82, 100
5, 21240, Note_on_c, 3, 94, 100
5, 21480, Note_on_c, 3, 94, 0
5, 21480, Note_on_c, 3, 82, 0
5, 21480, Note_on_c, 3, 78, 100
5, 21480, Note_on_c, 3, 90, 100
5, 21600, Note_on_c, 3, 90, 0
5, 21600, Note_on_c, 3, 78, 0
5, 21600, Note_on_c, 3, 78, 100
5, 21600, Note_on_c, 3, 90, 100
5, 21840, Note_on_c, 3, 90, 0
5, 21840, Note_on_c, 3, 78, 0
5, 21840, Note_on_c, 3, 82, 100
5, 21840, Note_on_c, 3, 94, 100
5, 21960, Note_on_c, 3, 94, 0
5, 21960, Note_on_c, 3, 82, 0
5, 21960, Note_on_c, 3, 84, 100
5, 21960, Note_on_c, 3, 96, 100
5, 22680, Note_on_c, 3, 96, 0
5, 22680, Note_on_c, 3, 84, 0
5, 23400, Note_on_c, 3, 70, 110
5, 23400, Note_on_c, 3, 61, 110
5, 23400, Note_on_c, 3, 65, 110
5, 23400, Note_on_c, 3, 72, 110
5, 23760, Note_on_c, 3, 72, 0
5, 23760, Note_on_c, 3, 70, 0
5, 23760, Note_on_c, 3, 70, 110
5, 23760, Note_on_c, 3, 68, 110
5, 24120, Note_on_c, 3, 68, 0
5, 24120, Note_on_c, 3, 61, 0
5, 24120, Note_on_c, 3, 65, 0
5, 24120, Note_on_c, 3, 70, 0
5, 24120, Note_on_c, 3, 70, 110
5, 24120, Note_on_c, 3, 61, 110
5, 24120, Note_on_c, 3, 63, 110
5, 24120, Note_on_c, 3, 67, 110
5, 24840, Note_on_c, 3, 67, 0
5, 24840, Note_on_c, 3, 70, 0
5, 24840, Note_on_c, 3, 61, 0
5, 24840, Note_on_c, 3, 63, 0
5, 24840, Note_on_c, 3, 70, 110
5, 24840, Note_on_c, 3, 72, 110
5, 24840, Note_on_c, 3, 61, 110
5, 24840, Note_on_c, 3, 65, 110
5, 25200, Note_on_c, 3, 65, 0
5, 25200, Note_on_c, 3, 70, 0
5, 25200, Note_on_c, 3, 72, 0
5, 25200, Note_on_c, 3, 61, 0
5, 25200, Note_on_c, 3, 72, 110
5, 25200, Note_on_c, 3, 65, 110
5, 25200, Note_on_c, 3, 61, 110
5, 25200, Note_on_c, 3, 70, 110
5, 25380, Note_on_c, 3, 70, 0
5, 25380, Note_on_c, 3, 61, 0
5, 25380, Note_on_c, 3, 72, 0
5, 25380, Note_on_c, 3, 70, 110
5, 25380, Note_on_c, 3, 61, 110
5, 25380, Note_on_c, 3, 68, 110
5, 25560, Note_on_c, 3, 68, 0
5, 25560, Note_on_c, 3, 65, 0
5, 25560, Note_on_c, 3, 70, 0
5, 25560, Note_on_c, 3, 61, 0
5, 25560, Note_on_c, 3, 60, 110
5, 25560, Note_on_c, 3, 62, 110
5, 25560, Note_on_c, 3, 67, 110
5, 25560, Note_on_c, 3, 70, 110
5, 26280, Note_on_c, 3, 70, 0
5, 26280, Note_on_c, 3, 60, 0
5, 26280, Note_on_c, 3, 62, 0
5, 26280, Note_on_c, 3, 67, 0
5, 26280, Note_on_c, 3, 70, 110
5, 26280, Note_on_c, 3, 72, 110
5, 26280, Note_on_c, 3, 61, 110
5, 26280, Note_on_c, 3, 65, 110
5, 26640, Note_on_c, 3, 72, 0
5, 26640, Note_on_c, 3, 70, 0
5, 26640, Note_on_c, 3, 68, 110
5, 26640, Note_on_c, 3, 70, 110
5, 27000, Note_on_c, 3, 70, 0
5, 27000, Note_on_c, 3, 65, 0
5, 27000, Note_on_c, 3, 61, 0
5, 27000, Note_on_c, 3, 68, 0
5, 27000, Note_on_c, 3, 61, 110
5, 27000, Note_on_c, 3, 70, 110
5, 27000, Note_on_c, 3, 63, 110
5, 27000, Note_on_c, 3, 67, 110
5, 27720, Note_on_c, 3, 67, 0
5, 27720, Note_on_c, 3, 61, 0
5, 27720, Note_on_c, 3, 70, 0
5, 27720, Note_on_c, 3, 63, 0
5, 27720, Note_on_c, 3, 63, 110
5, 27720, Note_on_c, 3, 61, 110
5, 27720, Note_on_c, 3, 66, 110
5, 27720, Note_on_c, 3, 70, 110
5, 28080, Note_on_c, 3, 70, 0
5, 28080, Note_on_c, 3, 63, 0
5, 28080, Note_on_c, 3, 61, 0
5, 28080, Note_on_c, 3, 66, 0
5, 28080, Note_on_c, 3, 63, 110
5, 28080, Note_on_c, 3, 60, 110
5, 28080, Note_on_c, 3, 65, 110
5, 28080, Note_on_c, 3, 68, 110
5, 28440, Note_on_c, 3, 68, 0
5, 28440, Note_on_c, 3, 63, 0
5, 28440, Note_on_c, 3, 60, 0
5, 28440, Note_on_c, 3, 65, 0
5, 28440, Note_on_c, 3, 60, 110
5, 28440, Note_on_c, 3, 65, 110
5, 28440, Note_on_c, 3, 70, 110
5, 28800, Note_on_c, 3, 60, 0
5, 28800, Note_on_c, 3, 62, 110
5, 29160, Note_on_c, 3, 62, 0
5, 29160, Note_on_c, 3, 63, 110
5, 29520, Note_on_c, 3, 63, 0
5, 29520, Note_on_c, 3, 62, 110
5, 29880, Note_on_c, 3, 62, 0
5, 29880, Note_on_c, 3, 70, 0
5, 29880, Note_on_c, 3, 65, 0
5, 32760, Note_on_c, 3, 73, 100
5, 32760, Note_on_c, 3, 77, 100
5, 32770, Control_c, 3, 11, 126
5, 32790, Control_c, 3, 11, 125
5, 32810, Control_c, 3, 11, 124
5, 32830, Control_c, 3, 11, 123
5, 32840, Control_c, 3, 11, 122
5, 32860, Control_c, 3, 11, 121
5, 32880, Control_c, 3, 11, 120
5, 32890, Control_c, 3, 11, 119
5, 32910, Control_c, 3, 11, 118
5, 32930, Control_c, 3, 11, 117
5, 32940, Control_c, 3, 11, 116
5, 32960, Control_c, 3, 11, 115
5, 32980, Control_c, 3, 11, 114
5, 33000, Control_c, 3, 11, 113
5, 33010, Control_c, 3, 11, 112
5, 33030, Control_c, 3, 11, 111
5, 33050, Control_c, 3, 11, 110
5, 33060, Control_c, 3, 11, 109
5, 33080, Control_c, 3, 11, 108
5, 33100, Control_c, 3, 11, 107
5, 33110, Control_c, 3, 11, 106
5, 33130, Control_c, 3, 11, 105
5, 33150, Control_c, 3, 11, 104
5, 33170, Control_c, 3, 11, 103
5, 33180, Control_c, 3, 11, 102
5, 33200, Control_c, 3, 11, 101
5, 33220, Control_c, 3, 11, 100
5, 33230, Control_c, 3, 11, 99
5, 33250, Control_c, 3, 11, 98
5, 33270, Control_c, 3, 11, 97
5, 33280, Control_c, 3, 11, 96
5, 33300, Control_c, 3, 11, 95
5, 33320, Control_c, 3, 11, 94
5, 33340, Control_c, 3, 11, 93
5, 33350, Control_c, 3, 11, 92
5, 33370, Control_c, 3, 11, 91
5, 33390, Control_c, 3, 11, 90
5, 33400, Control_c, 3, 11, 89
5, 33420, Control_c, 3, 11, 88
5, 33440, Control_c, 3, 11, 87
5, 33450, Control_c, 3, 11, 86
5, 33470, Control_c, 3, 11, 85
5, 33480, Note_on_c, 3, 77, 0
5, 33480, Note_on_c, 3, 73, 0
5, 33480, Note_on_c, 3, 75, 100
5, 33480, Note_on_c, 3, 79, 100
5, 33490, Control_c, 3, 11, 84
5, 33510, Control_c, 3, 11, 83
5, 33520, Control_c, 3, 11, 82
5, 33540, Control_c, 3, 11, 81
5, 33560, Control_c, 3, 11, 80
5, 33570, Control_c, 3, 11, 79
5, 33590, Control_c, 3, 11, 78
5, 33610, Control_c, 3, 11, 77
5, 33620, Control_c, 3, 11, 76
5, 33640, Control_c, 3, 11, 75
5, 33660, Control_c, 3, 11, 74
5, 33680, Control_c, 3, 11, 73
5, 33690, Control_c, 3, 11, 72
5, 33710, Control_c, 3, 11, 71
5, 33730, Control_c, 3, 11, 70
5, 33740, Control_c, 3, 11, 69
5, 33760, Control_c, 3, 11, 68
5, 33780, Control_c, 3, 11, 67
5, 33790, Control_c, 3, 11, 66
5, 33810, Control_c, 3, 11, 65
5, 33830, Control_c, 3, 11, 64
5, 33840, Control_c, 3, 11, 63
5, 33860, Control_c, 3, 11, 62
5, 33880, Control_c, 3, 11, 61
5, 33900, Control_c, 3, 11, 60
5, 33910, Control_c, 3, 11, 59
5, 33930, Control_c, 3, 11, 58
5, 33950, Control_c, 3, 11, 57
5, 33960, Control_c, 3, 11, 56
5, 33980, Control_c, 3, 11, 55
5, 34000, Control_c, 3, 11, 54
5, 34010, Control_c, 3, 11, 53
5, 34030, Control_c, 3, 11, 52
5, 34050, Control_c, 3, 11, 51
5, 34070, Control_c, 3, 11, 50
5, 34080, Control_c, 3, 11, 49
5, 34100, Control_c, 3, 11, 48
5, 34120, Control_c, 3, 11, 47
5, 34130, Control_c, 3, 11, 46
5, 34150, Control_c, 3, 11, 45
5, 34170, Control_c, 3, 11, 44
5, 34180, Control_c, 3, 11, 43
5, 34200, Note_on_c, 3, 79, 0
5, 34200, Note_on_c, 3, 75, 0
5, 34200, Control_c, 3, 11, 42
5, 34200, Note_on_c, 3, 73, 100
5, 34200, Note_on_c, 3, 77, 100
5, 34220, Control_c, 3, 11, 41
5, 34240, Control_c, 3, 11, 40
5, 34250, Control_c, 3, 11, 39
5, 34270, Control_c, 3, 11, 38
5, 34290, Control_c, 3, 11, 37
5, 34300, Control_c, 3, 11, 36
5, 34320, Control_c, 3, 11, 35
5, 34340, Control_c, 3, 11, 34
5, 34350, Control_c, 3, 11, 33
5, 34370, Control_c, 3, 11, 32
5, 34390, Control_c, 3, 11, 31
5, 34410, Control_c, 3, 11, 30
5, 34420, Control_c, 3, 11, 29
5, 34440, Control_c, 3, 11, 28
5, 34460, Control_c, 3, 11, 27
5, 34470, Control_c, 3, 11, 26
5, 34490, Control_c, 3, 11, 25
5, 34510, Control_c, 3, 11, 24
5, 34520, Control_c, 3, 11, 23
5, 34540, Control_c, 3, 11, 22
5, 34560, Note_on_c, 3, 77, 0
5, 34560, Note_on_c, 3, 73, 0
5, 34560, Control_c, 3, 11, 21
5, 34560, Note_on_c, 3, 73, 100
5, 34560, Note_on_c, 3, 82, 100
5, 34580, Control_c, 3, 11, 20
5, 34590, Control_c, 3, 11, 19
5, 34610, Control_c, 3, 11, 18
5, 34630, Control_c, 3, 11, 17
5, 34640, Control_c, 3, 11, 16
5, 34660, Control_c, 3, 11, 15
5, 34680, Control_c, 3, 11, 14
5, 34690, Control_c, 3, 11, 13
5, 34710, Control_c, 3, 11, 12
5, 34730, Control_c, 3, 11, 11
5, 34740, Note_on_c, 3, 82, 0
5, 34740, Note_on_c, 3, 73, 0
5, 34740, Note_on_c, 3, 73, 100
5, 34740, Note_on_c, 3, 80, 100
5, 34750, Control_c, 3, 11, 10
5, 34760, Control_c, 3, 11, 9
5, 34780, Control_c, 3, 11, 8
5, 34800, Control_c, 3, 11, 7
5, 34810, Control_c, 3, 11, 6
5, 34830, Control_c, 3, 11, 5
5, 34850, Control_c, 3, 11, 4
5, 34860, Control_c, 3, 11, 3
5, 34880, Control_c, 3, 11, 2
5, 34900, Control_c, 3, 11, 1
5, 34910, Control_c, 3, 11, 0
5, 34920, Note_on_c, 3, 80, 0
5, 34920, Note_on_c, 3, 73, 0
5, 34920, End_track
6, 0, Start_track
6, 0, Title_t, "A5-Flute 2   : "
6, 0, Control_c, 4, 0, 1
6, 0, Control_c, 4, 32, 3
6, 0, Program_c, 4, 73
6, 0, Control_c, 4, 7, 110
6, 0, Control_c, 4, 10, 86
6, 109, Control_c, 4, 91, 60
6, 110, Control_c, 4, 93, 0
6, 9720, Note_on_c, 4, 70, 115
6, 9780, Note_on_c, 4, 70, 0
6, 9780, Note_on_c, 4, 72, 115
6, 9840, Note_on_c, 4, 72, 0
6, 9840, Note_on_c, 4, 70, 115
6, 9900, Note_on_c, 4, 70, 0
6, 9900, Note_on_c, 4, 82, 115
6, 9960, Note_on_c, 4, 82, 0
6, 9960, Note_on_c, 4, 81, 115
6, 10020, Note_on_c, 4, 81, 0
6, 10020, Note_on_c, 4, 77, 115
6, 10080, Note_on_c, 4, 77, 0
6, 10080, Note_on_c, 4, 80, 115
6, 10140, Note_on_c, 4, 80, 0
6, 10140, Note_on_c, 4, 79, 115
6, 10200, Note_on_c, 4, 79, 0
6, 10200, Note_on_c, 4, 75, 115
6, 10260, Note_on_c, 4, 75, 0
6, 10260, Note_on_c, 4, 73, 115
6, 10320, Note_on_c, 4, 73, 0
6, 10320, Note_on_c, 4, 75, 115
6, 10380, Note_on_c, 4, 75, 0
6, 10380, Note_on_c, 4, 77, 115
6, 10440, Note_on_c, 4, 77, 0
6, 10440, Note_on_c, 4, 70, 115
6, 11040, Note_on_c, 4, 70, 0
6, 11160, Note_on_c, 4, 70, 115
6, 11220, Note_on_c, 4, 70, 0
6, 11220, Note_on_c, 4, 72, 115
6, 11280, Note_on_c, 4, 72, 0
6, 11280, Note_on_c, 4, 70, 115
6, 11340, Note_on_c, 4, 70, 0
6, 11340, Note_on_c, 4, 82, 115
6, 11400, Note_on_c, 4, 82, 0
6, 11400, Note_on_c, 4, 81, 115
6, 11460, Note_on_c, 4, 81, 0
6, 11460, Note_on_c, 4, 77, 115
6, 11520, Note_on_c, 4, 77, 0
6, 11520, Note_on_c, 4, 80, 115
6, 11580, Note_on_c, 4, 80, 0
6, 11580, Note_on_c, 4, 79, 115
6, 11640, Note_on_c, 4, 79, 0
6, 11640, Note_on_c, 4, 75, 115
6, 11700, Note_on_c, 4, 75, 0
6, 11700, Note_on_c, 4, 73, 115
6, 11760, Note_on_c, 4, 73, 0
6, 11760, Note_on_c, 4, 75, 115
6, 11820, Note_on_c, 4, 75, 0
6, 11820, Note_on_c, 4, 77, 115
6, 11880, Note_on_c, 4, 77, 0
6, 11880, Note_on_c, 4, 79, 115
6, 12480, Note_on_c, 4, 79, 0
6, 12600, Note_on_c, 4, 70, 115
6, 12660, Note_on_c, 4, 70, 0
6, 12660, Note_on_c, 4, 72, 115
6, 12720, Note_on_c, 4, 72, 0
6, 12720, Note_on_c, 4, 70, 115
6, 12780, Note_on_c, 4, 70, 0
6, 12780, Note_on_c, 4, 82, 115
6, 12840, Note_on_c, 4, 82, 0
6, 12840, Note_on_c, 4, 81, 115
6, 12900, Note_on_c, 4, 81, 0
6, 12900, Note_on_c, 4, 77, 115
6, 12960, Note_on_c, 4, 77, 0
6, 12960, Note_on_c, 4, 80, 115
6, 13020, Note_on_c, 4, 80, 0
6, 13020, Note_on_c, 4, 79, 115
6, 13080, Note_on_c, 4, 79, 0
6, 13080, Note_on_c, 4, 75, 115
6, 13140, Note_on_c, 4, 75, 0
6, 13140, Note_on_c, 4, 73, 115
6, 13200, Note_on_c, 4, 73, 0
6, 13200, Note_on_c, 4, 75, 115
6, 13260, Note_on_c, 4, 75, 0
6, 13260, Note_on_c, 4, 77, 115
6, 13320, Note_on_c, 4, 77, 0
6, 13320, Note_on_c, 4, 70, 115
6, 13920, Note_on_c, 4, 70, 0
6, 14040, Note_on_c, 4, 70, 115
6, 14100, Note_on_c, 4, 70, 0
6, 14100, Note_on_c, 4, 72, 115
6, 14160, Note_on_c, 4, 72, 0
6, 14160, Note_on_c, 4, 70, 115
6, 14220, Note_on_c, 4, 70, 0
6, 14220, Note_on_c, 4, 73, 115
6, 14280, Note_on_c, 4, 73, 0
6, 14280, Note_on_c, 4, 72, 115
6, 14340, Note_on_c, 4, 72, 0
6, 14340, Note_on_c, 4, 70, 115
6, 14400, Note_on_c, 4, 70, 0
6, 14400, Note_on_c, 4, 68, 115
6, 14520, Note_on_c, 4, 68, 0
6, 14520, Note_on_c, 4, 65, 115
6, 14640, Note_on_c, 4, 65, 0
6, 14640, Note_on_c, 4, 68, 115
6, 14760, Note_on_c, 4, 68, 0
6, 14760, Note_on_c, 4, 70, 115
6, 15480, Note_on_c, 4, 70, 0
6, 16200, Note_on_c, 4, 70, 83
6, 16200, Note_on_c, 4, 62, 83
6, 16560, Note_on_c, 4, 65, 85
6, 16920, Note_on_c, 4, 65, 0
6, 16920, Note_on_c, 4, 62, 0
6, 16920, Note_on_c, 4, 70, 0
6, 16920, Note_on_c, 4, 70, 101
6, 16920, Note_on_c, 4, 65, 101
6, 16920, Note_on_c, 4, 68, 101
6, 17100, Note_on_c, 4, 68, 0
6, 17100, Note_on_c, 4, 70, 0
6, 17100, Note_on_c, 4, 68, 96
6, 17160, Note_on_c, 4, 68, 0
6, 17160, Note_on_c, 4, 65, 0
6, 17160, Note_on_c, 4, 63, 96
6, 17160, Note_on_c, 4, 67, 96
6, 17280, Note_on_c, 4, 67, 0
6, 17280, Note_on_c, 4, 63, 0
6, 17280, Note_on_c, 4, 65, 90
6, 17280, Note_on_c, 4, 68, 90
6, 17640, Note_on_c, 4, 68, 0
6, 17640, Note_on_c, 4, 65, 0
6, 17640, Note_on_c, 4, 70, 85
6, 17640, Note_on_c, 4, 62, 85
6, 18000, Note_on_c, 4, 65, 90
6, 18360, Note_on_c, 4, 65, 0
6, 18360, Note_on_c, 4, 62, 0
6, 18360, Note_on_c, 4, 70, 0
6, 18360, Note_on_c, 4, 65, 99
6, 18360, Note_on_c, 4, 72, 99
6, 18360, Note_on_c, 4, 68, 99
6, 18600, Note_on_c, 4, 68, 0
6, 18600, Note_on_c, 4, 65, 0
6, 18600, Note_on_c, 4, 65, 94
6, 18600, Note_on_c, 4, 68, 94
6, 18660, Note_on_c, 4, 68, 0
6, 18660, Note_on_c, 4, 65, 0
6, 18660, Note_on_c, 4, 63, 96
6, 18660, Note_on_c, 4, 67, 96
6, 18720, Note_on_c, 4, 67, 0
6, 18720, Note_on_c, 4, 63, 0
6, 18720, Note_on_c, 4, 65, 87
6, 18720, Note_on_c, 4, 68, 87
6, 19080, Note_on_c, 4, 68, 0
6, 19080, Note_on_c, 4, 65, 0
6, 19080, Note_on_c, 4, 72, 0
6, 19080, Note_on_c, 4, 70, 90
6, 19080, Note_on_c, 4, 62, 90
6, 19440, Note_on_c, 4, 65, 90
6, 19800, Note_on_c, 4, 65, 0
6, 19800, Note_on_c, 4, 62, 0
6, 19800, Note_on_c, 4, 70, 0
6, 19800, Note_on_c, 4, 70, 99
6, 19800, Note_on_c, 4, 65, 99
6, 19800, Note_on_c, 4, 68, 99
6, 19980, Note_on_c, 4, 68, 0
6, 19980, Note_on_c, 4, 70, 0
6, 19980, Note_on_c, 4, 68, 97
6, 20040, Note_on_c, 4, 68, 0
6, 20040, Note_on_c, 4, 65, 0
6, 20040, Note_on_c, 4, 63, 97
6, 20040, Note_on_c, 4, 67, 97
6, 20160, Note_on_c, 4, 67, 0
6, 20160, Note_on_c, 4, 63, 0
6, 20160, Note_on_c, 4, 65, 90
6, 20160, Note_on_c, 4, 68, 90
6, 20520, Note_on_c, 4, 68, 0
6, 20520, Note_on_c, 4, 65, 0
6, 20520, Note_on_c, 4, 61, 90
6, 20520, Note_on_c, 4, 65, 90
6, 20880, Note_on_c, 4, 65, 0
6, 20880, Note_on_c, 4, 61, 0
6, 20880, Note_on_c, 4, 65, 90
6, 20880, Note_on_c, 4, 61, 90
6, 20880, Note_on_c, 4, 68, 90
6, 21240, Note_on_c, 4, 68, 0
6, 21240, Note_on_c, 4, 61, 0
6, 21240, Note_on_c, 4, 65, 0
6, 21240, Note_on_c, 4, 61, 90
6, 21240, Note_on_c, 4, 66, 90
6, 21600, Note_on_c, 4, 66, 0
6, 21600, Note_on_c, 4, 61, 0
6, 21600, Note_on_c, 4, 65, 90
6, 21600, Note_on_c, 4, 61, 90
6, 21600, Note_on_c, 4, 68, 90
6, 21840, Note_on_c, 4, 68, 0
6, 21840, Note_on_c, 4, 61, 0
6, 21840, Note_on_c, 4, 65, 0
6, 21840, Note_on_c, 4, 61, 90
6, 21840, Note_on_c, 4, 66, 90
6, 21840, Note_on_c, 4, 70, 90
6, 21960, Note_on_c, 4, 70, 0
6, 21960, Note_on_c, 4, 66, 0
6, 21960, Note_on_c, 4, 61, 0
6, 21960, Note_on_c, 4, 60, 90
6, 21960, Note_on_c, 4, 72, 90
6, 21960, Note_on_c, 4, 69, 90
6, 23040, Note_on_c, 4, 69, 0
6, 23040, Note_on_c, 4, 72, 0
6, 23040, Note_on_c, 4, 60, 0
6, 23400, Note_on_c, 4, 61, 105
6, 23400, Note_on_c, 4, 70, 105
6, 23460, Note_on_c, 4, 70, 0
6, 23460, Note_on_c, 4, 61, 0
6, 23460, Note_on_c, 4, 63, 105
6, 23460, Note_on_c, 4, 72, 105
6, 23520, Note_on_c, 4, 72, 0
6, 23520, Note_on_c, 4, 63, 0
6, 23520, Note_on_c, 4, 61, 105
6, 23520, Note_on_c, 4, 70, 105
6, 23580, Note_on_c, 4, 70, 0
6, 23580, Note_on_c, 4, 61, 0
6, 23580, Note_on_c, 4, 73, 105
6, 23580, Note_on_c, 4, 82, 105
6, 23640, Note_on_c, 4, 82, 0
6, 23640, Note_on_c, 4, 73, 0
6, 23640, Note_on_c, 4, 75, 105
6, 23640, Note_on_c, 4, 81, 105
6, 23700, Note_on_c, 4, 81, 0
6, 23700, Note_on_c, 4, 75, 0
6, 23700, Note_on_c, 4, 73, 105
6, 23700, Note_on_c, 4, 77, 105
6, 23760, Note_on_c, 4, 77, 0
6, 23760, Note_on_c, 4, 73, 0
6, 23760, Note_on_c, 4, 77, 105
6, 23760, Note_on_c, 4, 80, 105
6, 23820, Note_on_c, 4, 80, 0
6, 23820, Note_on_c, 4, 77, 0
6, 23820, Note_on_c, 4, 75, 105
6, 23820, Note_on_c, 4, 79, 105
6, 23880, Note_on_c, 4, 79, 0
6, 23880, Note_on_c, 4, 75, 0
6, 23880, Note_on_c, 4, 72, 105
6, 23880, Note_on_c, 4, 75, 105
6, 23940, Note_on_c, 4, 75, 0
6, 23940, Note_on_c, 4, 72, 0
6, 23940, Note_on_c, 4, 70, 105
6, 23940, Note_on_c, 4, 73, 105
6, 24000, Note_on_c, 4, 73, 0
6, 24000, Note_on_c, 4, 70, 0
6, 24000, Note_on_c, 4, 75, 105
6, 24000, Note_on_c, 4, 72, 105
6, 24060, Note_on_c, 4, 72, 0
6, 24060, Note_on_c, 4, 75, 0
6, 24060, Note_on_c, 4, 73, 105
6, 24060, Note_on_c, 4, 77, 105
6, 24120, Note_on_c, 4, 77, 0
6, 24120, Note_on_c, 4, 73, 0
6, 24120, Note_on_c, 4, 67, 105
6, 24120, Note_on_c, 4, 70, 105
6, 24720, Note_on_c, 4, 70, 0
6, 24720, Note_on_c, 4, 67, 0
6, 24840, Note_on_c, 4, 61, 105
6, 24840, Note_on_c, 4, 70, 105
6, 24900, Note_on_c, 4, 70, 0
6, 24900, Note_on_c, 4, 61, 0
6, 24900, Note_on_c, 4, 63, 105
6, 24900, Note_on_c, 4, 72, 105
6, 24960, Note_on_c, 4, 72, 0
6, 24960, Note_on_c, 4, 63, 0
6, 24960, Note_on_c, 4, 61, 105
6, 24960, Note_on_c, 4, 70, 105
6, 25020, Note_on_c, 4, 70, 0
6, 25020, Note_on_c, 4, 61, 0
6, 25020, Note_on_c, 4, 73, 105
6, 25020, Note_on_c, 4, 82, 105
6, 25080, Note_on_c, 4, 82, 0
6, 25080, Note_on_c, 4, 73, 0
6, 25080, Note_on_c, 4, 75, 105
6, 25080, Note_on_c, 4, 81, 105
6, 25140, Note_on_c, 4, 81, 0
6, 25140, Note_on_c, 4, 75, 0
6, 25140, Note_on_c, 4, 73, 105
6, 25140, Note_on_c, 4, 77, 105
6, 25200, Note_on_c, 4, 77, 0
6, 25200, Note_on_c, 4, 73, 0
6, 25200, Note_on_c, 4, 77, 105
6, 25200, Note_on_c, 4, 80, 105
6, 25260, Note_on_c, 4, 80, 0
6, 25260, Note_on_c, 4, 77, 0
6, 25260, Note_on_c, 4, 75, 105
6, 25260, Note_on_c, 4, 79, 105
6, 25320, Note_on_c, 4, 79, 0
6, 25320, Note_on_c, 4, 75, 0
6, 25320, Note_on_c, 4, 72, 105
6, 25320, Note_on_c, 4, 75, 105
6, 25380, Note_on_c, 4, 75, 0
6, 25380, Note_on_c, 4, 72, 0
6, 25380, Note_on_c, 4, 70, 105
6, 25380, Note_on_c, 4, 73, 105
6, 25440, Note_on_c, 4, 73, 0
6, 25440, Note_on_c, 4, 70, 0
6, 25440, Note_on_c, 4, 72, 105
6, 25440, Note_on_c, 4, 75, 105
6, 25500, Note_on_c, 4, 75, 0
6, 25500, Note_on_c, 4, 72, 0
6, 25500, Note_on_c, 4, 73, 105
6, 25500, Note_on_c, 4, 77, 105
6, 25560, Note_on_c, 4, 77, 0
6, 25560, Note_on_c, 4, 73, 0
6, 25560, Note_on_c, 4, 75, 105
6, 25560, Note_on_c, 4, 79, 105
6, 26160, Note_on_c, 4, 79, 0
6, 26160, Note_on_c, 4, 75, 0
6, 26280, Note_on_c, 4, 61, 105
6, 26280, Note_on_c, 4, 70, 105
6, 26340, Note_on_c, 4, 70, 0
6, 26340, Note_on_c, 4, 61, 0
6, 26340, Note_on_c, 4, 63, 105
6, 26340, Note_on_c, 4, 72, 105
6, 26400, Note_on_c, 4, 72, 0
6, 26400, Note_on_c, 4, 63, 0
6, 26400, Note_on_c, 4, 61, 105
6, 26400, Note_on_c, 4, 70, 105
6, 26460, Note_on_c, 4, 70, 0
6, 26460, Note_on_c, 4, 61, 0
6, 26460, Note_on_c, 4, 73, 105
6, 26460, Note_on_c, 4, 82, 105
6, 26520, Note_on_c, 4, 82, 0
6, 26520, Note_on_c, 4, 73, 0
6, 26520, Note_on_c, 4, 75, 105
6, 26520, Note_on_c, 4, 81, 105
6, 26580, Note_on_c, 4, 81, 0
6, 26580, Note_on_c, 4, 75, 0
6, 26580, Note_on_c, 4, 73, 105
6, 26580, Note_on_c, 4, 77, 105
6, 26640, Note_on_c, 4, 77, 0
6, 26640, Note_on_c, 4, 73, 0
6, 26640, Note_on_c, 4, 77, 105
6, 26640, Note_on_c, 4, 80, 105
6, 26700, Note_on_c, 4, 80, 0
6, 26700, Note_on_c, 4, 77, 0
6, 26700, Note_on_c, 4, 75, 105
6, 26700, Note_on_c, 4, 79, 105
6, 26760, Note_on_c, 4, 79, 0
6, 26760, Note_on_c, 4, 75, 0
6, 26760, Note_on_c, 4, 72, 105
6, 26760, Note_on_c, 4, 75, 105
6, 26820, Note_on_c, 4, 75, 0
6, 26820, Note_on_c, 4, 72, 0
6, 26820, Note_on_c, 4, 70, 105
6, 26820, Note_on_c, 4, 73, 105
6, 26880, Note_on_c, 4, 73, 0
6, 26880, Note_on_c, 4, 70, 0
6, 26880, Note_on_c, 4, 72, 105
6, 26880, Note_on_c, 4, 75, 105
6, 26940, Note_on_c, 4, 75, 0
6, 26940, Note_on_c, 4, 72, 0
6, 26940, Note_on_c, 4, 73, 105
6, 26940, Note_on_c, 4, 77, 105
6, 27000, Note_on_c, 4, 77, 0
6, 27000, Note_on_c, 4, 73, 0
6, 27000, Note_on_c, 4, 67, 105
6, 27000, Note_on_c, 4, 70, 105
6, 27600, Note_on_c, 4, 70, 0
6, 27600, Note_on_c, 4, 67, 0
6, 27720, Note_on_c, 4, 66, 105
6, 27720, Note_on_c, 4, 70, 105
6, 27780, Note_on_c, 4, 70, 0
6, 27780, Note_on_c, 4, 66, 0
6, 27780, Note_on_c, 4, 68, 105
6, 27780, Note_on_c, 4, 72, 105
6, 27840, Note_on_c, 4, 72, 0
6, 27840, Note_on_c, 4, 68, 0
6, 27840, Note_on_c, 4, 66, 105
6, 27840, Note_on_c, 4, 70, 105
6, 27900, Note_on_c, 4, 70, 0
6, 27900, Note_on_c, 4, 66, 0
6, 27900, Note_on_c, 4, 66, 105
6, 27900, Note_on_c, 4, 73, 105
6, 27960, Note_on_c, 4, 73, 0
6, 27960, Note_on_c, 4, 66, 0
6, 27960, Note_on_c, 4, 68, 105
6, 27960, Note_on_c, 4, 72, 105
6, 28020, Note_on_c, 4, 72, 0
6, 28020, Note_on_c, 4, 68, 0
6, 28020, Note_on_c, 4, 66, 105
6, 28020, Note_on_c, 4, 70, 105
6, 28080, Note_on_c, 4, 70, 0
6, 28080, Note_on_c, 4, 66, 0
6, 28080, Note_on_c, 4, 65, 105
6, 28080, Note_on_c, 4, 68, 105
6, 28200, Note_on_c, 4, 68, 0
6, 28200, Note_on_c, 4, 65, 0
6, 28200, Note_on_c, 4, 60, 105
6, 28200, Note_on_c, 4, 65, 105
6, 28320, Note_on_c, 4, 65, 0
6, 28320, Note_on_c, 4, 60, 0
6, 28320, Note_on_c, 4, 63, 105
6, 28320, Note_on_c, 4, 68, 105
6, 28440, Note_on_c, 4, 68, 0
6, 28440, Note_on_c, 4, 63, 0
6, 28440, Note_on_c, 4, 62, 105
6, 28440, Note_on_c, 4, 70, 105
6, 29160, Note_on_c, 4, 70, 0
6, 29160, Note_on_c, 4, 62, 0
6, 29160, End_track
7, 0, Start_track
7, 0, Title_t, "A6-Celesta     "
7, 0, Control_c, 5, 0, 0
7, 0, Control_c, 5, 32, 3
7, 0, Program_c, 5, 8
7, 0, Control_c, 5, 7, 100
7, 0, Control_c, 5, 10, 44
7, 117, Control_c, 5, 91, 40
7, 118, Control_c, 5, 93, 0
7, 16200, Note_on_c, 5, 86, 110
7, 16230, Note_on_c, 5, 86, 0
7, 16320, Note_on_c, 5, 86, 110
7, 16350, Note_on_c, 5, 86, 0
7, 16440, Note_on_c, 5, 87, 110
7, 16470, Note_on_c, 5, 87, 0
7, 16560, Note_on_c, 5, 89, 110
7, 16590, Note_on_c, 5, 89, 0
7, 16680, Note_on_c, 5, 82, 110
7, 16710, Note_on_c, 5, 82, 0
7, 16800, Note_on_c, 5, 94, 110
7, 16830, Note_on_c, 5, 94, 0
7, 16920, Note_on_c, 5, 92, 110
7, 16950, Note_on_c, 5, 92, 0
7, 17160, Note_on_c, 5, 91, 110
7, 17190, Note_on_c, 5, 91, 0
7, 17280, Note_on_c, 5, 89, 110
7, 17310, Note_on_c, 5, 89, 0
7, 17460, Note_on_c, 5, 87, 110
7, 17490, Note_on_c, 5, 87, 0
7, 17520, Note_on_c, 5, 86, 110
7, 17550, Note_on_c, 5, 86, 0
7, 17580, Note_on_c, 5, 87, 110
7, 17610, Note_on_c, 5, 87, 0
7, 17640, Note_on_c, 5, 89, 110
7, 17670, Note_on_c, 5, 89, 0
7, 17880, Note_on_c, 5, 86, 110
7, 17910, Note_on_c, 5, 86, 0
7, 18000, Note_on_c, 5, 82, 110
7, 18030, Note_on_c, 5, 82, 0
7, 18180, Note_on_c, 5, 84, 110
7, 18210, Note_on_c, 5, 84, 0
7, 18240, Note_on_c, 5, 82, 110
7, 18270, Note_on_c, 5, 82, 0
7, 18360, Note_on_c, 5, 80, 110
7, 18390, Note_on_c, 5, 80, 0
7, 18600, Note_on_c, 5, 79, 110
7, 18630, Note_on_c, 5, 79, 0
7, 18720, Note_on_c, 5, 77, 110
7, 18750, Note_on_c, 5, 77, 0
7, 19080, Note_on_c, 5, 86, 110
7, 19110, Note_on_c, 5, 86, 0
7, 19200, Note_on_c, 5, 86, 110
7, 19230, Note_on_c, 5, 86, 0
7, 19320, Note_on_c, 5, 87, 110
7, 19350, Note_on_c, 5, 87, 0
7, 19440, Note_on_c, 5, 89, 110
7, 19470, Note_on_c, 5, 89, 0
7, 19560, Note_on_c, 5, 82, 110
7, 19590, Note_on_c, 5, 82, 0
7, 19680, Note_on_c, 5, 94, 110
7, 19710, Note_on_c, 5, 94, 0
7, 19800, Note_on_c, 5, 92, 110
7, 19830, Note_on_c, 5, 92, 0
7, 20040, Note_on_c, 5, 91, 110
7, 20070, Note_on_c, 5, 91, 0
7, 20160, Note_on_c, 5, 89, 110
7, 20190, Note_on_c, 5, 89, 0
7, 20280, Note_on_c, 5, 89, 110
7, 20310, Note_on_c, 5, 89, 0
7, 20400, Note_on_c, 5, 91, 110
7, 20430, Note_on_c, 5, 91, 0
7, 20520, Note_on_c, 5, 92, 110
7, 20550, Note_on_c, 5, 92, 0
7, 20760, Note_on_c, 5, 89, 110
7, 20790, Note_on_c, 5, 89, 0
7, 20880, Note_on_c, 5, 89, 110
7, 20910, Note_on_c, 5, 89, 0
7, 21120, Note_on_c, 5, 92, 110
7, 21150, Note_on_c, 5, 92, 0
7, 21240, Note_on_c, 5, 94, 110
7, 21270, Note_on_c, 5, 94, 0
7, 21480, Note_on_c, 5, 90, 110
7, 21510, Note_on_c, 5, 90, 0
7, 21600, Note_on_c, 5, 90, 110
7, 21630, Note_on_c, 5, 90, 0
7, 21840, Note_on_c, 5, 94, 110
7, 21870, Note_on_c, 5, 94, 0
7, 21960, Note_on_c, 5, 96, 110
7, 21990, Note_on_c, 5, 96, 0
7, 21990, End_track
8, 0, Start_track
8, 0, Title_t, "A7-Piano 1     "
8, 0, Control_c, 6, 0, 0
8, 0, Control_c, 6, 32, 3
8, 0, Program_c, 6, 0
8, 0, Control_c, 6, 7, 100
8, 0, Control_c, 6, 10, 64
8, 125, Control_c, 6, 91, 40
8, 126, Control_c, 6, 93, 0
8, 126, End_track
9, 0, Start_track
9, 0, Title_t, "A8-Piano 1     "
9, 0, Control_c, 7, 0, 0
9, 0, Control_c, 7, 32, 3
9, 0, Program_c, 7, 0
9, 0, Control_c, 7, 7, 100
9, 0, Control_c, 7, 10, 64
9, 133, Control_c, 7, 91, 40
9, 134, Control_c, 7, 93, 0
9, 134, End_track
10, 0, Start_track
10, 0, Title_t, "A9-Picked Bass "
10, 0, Control_c, 8, 0, 0
10, 0, Control_c, 8, 32, 3
10, 0, Program_c, 8, 34
10, 0, Control_c, 8, 7, 110
10, 0, Control_c, 8, 10, 64
10, 141, Control_c, 8, 91, 40
10, 142, Control_c, 8, 93, 10
10, 9720, Note_on_c, 8, 46, 105
10, 10020, Note_on_c, 8, 46, 0
10, 10020, Note_on_c, 8, 46, 105
10, 10080, Note_on_c, 8, 46, 0
10, 10080, Note_on_c, 8, 53, 105
10, 10380, Note_on_c, 8, 53, 0
10, 10380, Note_on_c, 8, 53, 105
10, 10440, Note_on_c, 8, 53, 0
10, 10440, Note_on_c, 8, 51, 105
10, 10800, Note_on_c, 8, 51, 0
10, 10800, Note_on_c, 8, 46, 105
10, 11100, Note_on_c, 8, 46, 0
10, 11100, Note_on_c, 8, 44, 105
10, 11127, Note_on_c, 8, 44, 0
10, 11130, Note_on_c, 8, 45, 105
10, 11157, Note_on_c, 8, 45, 0
10, 11160, Note_on_c, 8, 46, 105
10, 11460, Note_on_c, 8, 46, 0
10, 11460, Note_on_c, 8, 46, 105
10, 11520, Note_on_c, 8, 46, 0
10, 11520, Note_on_c, 8, 53, 105
10, 11820, Note_on_c, 8, 53, 0
10, 11820, Note_on_c, 8, 53, 105
10, 11850, Note_on_c, 8, 53, 0
10, 11850, Note_on_c, 8, 54, 105
10, 11880, Note_on_c, 8, 54, 0
10, 11880, Note_on_c, 8, 55, 105
10, 12000, Note_on_c, 8, 55, 0
10, 12000, Note_on_c, 8, 48, 105
10, 12000, Note_on_c, 8, 48, 105
10, 12120, Note_on_c, 8, 48, 0
10, 12360, Note_on_c, 8, 48, 0
10, 12360, Note_on_c, 8, 43, 105
10, 12600, Note_on_c, 8, 43, 0
10, 12600, Note_on_c, 8, 46, 105
10, 12900, Note_on_c, 8, 46, 0
10, 12900, Note_on_c, 8, 46, 105
10, 12960, Note_on_c, 8, 46, 0
10, 12960, Note_on_c, 8, 53, 105
10, 13260, Note_on_c, 8, 53, 0
10, 13260, Note_on_c, 8, 53, 105
10, 13320, Note_on_c, 8, 53, 0
10, 13320, Note_on_c, 8, 51, 105
10, 13680, Note_on_c, 8, 51, 0
10, 13680, Note_on_c, 8, 46, 105
10, 13980, Note_on_c, 8, 46, 0
10, 13980, Note_on_c, 8, 44, 105
10, 14010, Note_on_c, 8, 44, 0
10, 14010, Note_on_c, 8, 43, 105
10, 14040, Note_on_c, 8, 43, 0
10, 14040, Note_on_c, 8, 42, 105
10, 14340, Note_on_c, 8, 42, 0
10, 14340, Note_on_c, 8, 42, 105
10, 14400, Note_on_c, 8, 42, 0
10, 14400, Note_on_c, 8, 41, 105
10, 14640, Note_on_c, 8, 41, 0
10, 14640, Note_on_c, 8, 44, 105
10, 14760, Note_on_c, 8, 44, 0
10, 14760, Note_on_c, 8, 46, 105
10, 15120, Note_on_c, 8, 46, 0
10, 15120, Note_on_c, 8, 34, 105
10, 15480, Note_on_c, 8, 34, 0
10, 16200, Note_on_c, 8, 46, 105
10, 16500, Note_on_c, 8, 46, 0
10, 16500, Note_on_c, 8, 48, 105
10, 16560, Note_on_c, 8, 48, 0
10, 16560, Note_on_c, 8, 50, 105
10, 16800, Note_on_c, 8, 50, 0
10, 16800, Note_on_c, 8, 46, 105
10, 16920, Note_on_c, 8, 46, 0
10, 16920, Note_on_c, 8, 41, 105
10, 17220, Note_on_c, 8, 41, 0
10, 17220, Note_on_c, 8, 43, 105
10, 17280, Note_on_c, 8, 43, 0
10, 17280, Note_on_c, 8, 44, 105
10, 17520, Note_on_c, 8, 44, 0
10, 17520, Note_on_c, 8, 48, 105
10, 17640, Note_on_c, 8, 48, 0
10, 17640, Note_on_c, 8, 46, 105
10, 17940, Note_on_c, 8, 46, 0
10, 17940, Note_on_c, 8, 48, 105
10, 18000, Note_on_c, 8, 48, 0
10, 18000, Note_on_c, 8, 50, 105
10, 18240, Note_on_c, 8, 50, 0
10, 18240, Note_on_c, 8, 46, 105
10, 18360, Note_on_c, 8, 46, 0
10, 18360, Note_on_c, 8, 41, 105
10, 18660, Note_on_c, 8, 41, 0
10, 18780, Note_on_c, 8, 55, 105
10, 18840, Note_on_c, 8, 55, 0
10, 18840, Note_on_c, 8, 53, 105
10, 18900, Note_on_c, 8, 53, 0
10, 18960, Note_on_c, 8, 50, 105
10, 19020, Note_on_c, 8, 50, 0
10, 19020, Note_on_c, 8, 51, 105
10, 19080, Note_on_c, 8, 51, 0
10, 19080, Note_on_c, 8, 53, 105
10, 19200, Note_on_c, 8, 53, 0
10, 19200, Note_on_c, 8, 46, 105
10, 19380, Note_on_c, 8, 46, 0
10, 19380, Note_on_c, 8, 48, 105
10, 19440, Note_on_c, 8, 48, 0
10, 19440, Note_on_c, 8, 50, 105
10, 19680, Note_on_c, 8, 50, 0
10, 19680, Note_on_c, 8, 46, 105
10, 19800, Note_on_c, 8, 46, 0
10, 19800, Note_on_c, 8, 41, 105
10, 20100, Note_on_c, 8, 41, 0
10, 20100, Note_on_c, 8, 43, 105
10, 20160, Note_on_c, 8, 43, 0
10, 20160, Note_on_c, 8, 44, 105
10, 20400, Note_on_c, 8, 44, 0
10, 20400, Note_on_c, 8, 48, 105
10, 20520, Note_on_c, 8, 48, 0
10, 20520, Note_on_c, 8, 49, 105
10, 20820, Note_on_c, 8, 49, 0
10, 20820, Note_on_c, 8, 44, 105
10, 20880, Note_on_c, 8, 44, 0
10, 20880, Note_on_c, 8, 44, 105
10, 21120, Note_on_c, 8, 44, 0
10, 21120, Note_on_c, 8, 43, 105
10, 21240, Note_on_c, 8, 43, 0
10, 21240, Note_on_c, 8, 42, 105
10, 21540, Note_on_c, 8, 42, 0
10, 21540, Note_on_c, 8, 49, 105
10, 21600, Note_on_c, 8, 49, 0
10, 21600, Note_on_c, 8, 49, 105
10, 21720, Note_on_c, 8, 49, 0
10, 21720, Note_on_c, 8, 46, 105
10, 21840, Note_on_c, 8, 46, 0
10, 21840, Note_on_c, 8, 42, 105
10, 21960, Note_on_c, 8, 42, 0
10, 21960, Note_on_c, 8, 41, 105
10, 22200, Note_on_c, 8, 41, 0
10, 22200, Note_on_c, 8, 48, 105
10, 22320, Note_on_c, 8, 48, 0
10, 22320, Note_on_c, 8, 48, 105
10, 22560, Note_on_c, 8, 48, 0
10, 22560, Note_on_c, 8, 36, 105
10, 22680, Note_on_c, 8, 36, 0
10, 22680, Note_on_c, 8, 41, 105
10, 22920, Note_on_c, 8, 41, 0
10, 22920, Note_on_c, 8, 48, 105
10, 23040, Note_on_c, 8, 48, 0
10, 23040, Note_on_c, 8, 48, 105
10, 23400, Note_on_c, 8, 48, 0
10, 23400, Note_on_c, 8, 46, 105
10, 23700, Note_on_c, 8, 46, 0
10, 23700, Note_on_c, 8, 46, 105
10, 23760, Note_on_c, 8, 46, 0
10, 23760, Note_on_c, 8, 53, 105
10, 24060, Note_on_c, 8, 53, 0
10, 24060, Note_on_c, 8, 53, 105
10, 24120, Note_on_c, 8, 53, 0
10, 24120, Note_on_c, 8, 51, 105
10, 24480, Note_on_c, 8, 51, 0
10, 24480, Note_on_c, 8, 46, 105
10, 24780, Note_on_c, 8, 46, 0
10, 24780, Note_on_c, 8, 44, 105
10, 24807, Note_on_c, 8, 44, 0
10, 24810, Note_on_c, 8, 45, 105
10, 24837, Note_on_c, 8, 45, 0
10, 24840, Note_on_c, 8, 46, 105
10, 25140, Note_on_c, 8, 46, 0
10, 25140, Note_on_c, 8, 46, 105
10, 25200, Note_on_c, 8, 46, 0
10, 25200, Note_on_c, 8, 53, 105
10, 25500, Note_on_c, 8, 53, 0
10, 25500, Note_on_c, 8, 53, 105
10, 25530, Note_on_c, 8, 53, 0
10, 25530, Note_on_c, 8, 54, 105
10, 25560, Note_on_c, 8, 54, 0
10, 25560, Note_on_c, 8, 55, 105
10, 25680, Note_on_c, 8, 55, 0
10, 25680, Note_on_c, 8, 48, 105
10, 25680, Note_on_c, 8, 48, 105
10, 25800, Note_on_c, 8, 48, 0
10, 26040, Note_on_c, 8, 48, 0
10, 26040, Note_on_c, 8, 43, 105
10, 26280, Note_on_c, 8, 43, 0
10, 26280, Note_on_c, 8, 46, 105
10, 26580, Note_on_c, 8, 46, 0
10, 26580, Note_on_c, 8, 46, 105
10, 26640, Note_on_c, 8, 46, 0
10, 26640, Note_on_c, 8, 53, 105
10, 26940, Note_on_c, 8, 53, 0
10, 26940, Note_on_c, 8, 53, 105
10, 27000, Note_on_c, 8, 53, 0
10, 27000, Note_on_c, 8, 51, 105
10, 27360, Note_on_c, 8, 51, 0
10, 27360, Note_on_c, 8, 46, 105
10, 27660, Note_on_c, 8, 46, 0
10, 27660, Note_on_c, 8, 44, 105
10, 27690, Note_on_c, 8, 44, 0
10, 27690, Note_on_c, 8, 43, 105
10, 27720, Note_on_c, 8, 43, 0
10, 27720, Note_on_c, 8, 42, 105
10, 28020, Note_on_c, 8, 42, 0
10, 28020, Note_on_c, 8, 42, 105
10, 28080, Note_on_c, 8, 42, 0
10, 28080, Note_on_c, 8, 41, 105
10, 28320, Note_on_c, 8, 41, 0
10, 28320, Note_on_c, 8, 44, 105
10, 28440, Note_on_c, 8, 44, 0
10, 28440, Note_on_c, 8, 46, 105
10, 28800, Note_on_c, 8, 46, 0
10, 28800, Note_on_c, 8, 34, 105
10, 29160, Note_on_c, 8, 34, 0
10, 29160, End_track
11, 0, Start_track
11, 0, Title_t, "A10-STANDARD 1  "
11, 0, Control_c, 9, 0, 0
11, 0, Control_c, 9, 32, 3
11, 0, Program_c, 9, 0
11, 0, Control_c, 9, 7, 100
11, 0, Control_c, 9, 10, 64
11, 149, Control_c, 9, 91, 40
11, 150, Control_c, 9, 93, 0
11, 150, End_track
12, 0, Start_track
12, 0, Title_t, "A11-Piano 1     "
12, 0, Control_c, 10, 0, 0
12, 0, Control_c, 10, 32, 3
12, 0, Program_c, 10, 0
12, 0, Control_c, 10, 7, 100
12, 0, Control_c, 10, 10, 64
12, 157, Control_c, 10, 91, 40
12, 158, Control_c, 10, 93, 0
12, 158, End_track
13, 0, Start_track
13, 0, Title_t, "A12-Piano 1     "
13, 0, Control_c, 11, 0, 0
13, 0, Control_c, 11, 32, 3
13, 0, Program_c, 11, 0
13, 0, Control_c, 11, 7, 100
13, 0, Control_c, 11, 10, 64
13, 165, Control_c, 11, 91, 40
13, 166, Control_c, 11, 93, 0
13, 166, End_track
14, 0, Start_track
14, 0, Title_t, "A13-Piano 1     "
14, 0, Control_c, 12, 0, 0
14, 0, Control_c, 12, 32, 3
14, 0, Program_c, 12, 0
14, 0, Control_c, 12, 7, 100
14, 0, Control_c, 12, 10, 64
14, 173, Control_c, 12, 91, 40
14, 174, Control_c, 12, 93, 0
14, 174, End_track
15, 0, Start_track
15, 0, Title_t, "A14-Piano 1     "
15, 0, Control_c, 13, 0, 0
15, 0, Control_c, 13, 32, 3
15, 0, Program_c, 13, 0
15, 0, Control_c, 13, 7, 100
15, 0, Control_c, 13, 10, 64
15, 181, Control_c, 13, 91, 40
15, 182, Control_c, 13, 93, 0
15, 182, End_track
16, 0, Start_track
16, 0, Title_t, "A15-Piano 1     "
16, 0, Control_c, 14, 0, 0
16, 0, Control_c, 14, 32, 3
16, 0, Program_c, 14, 0
16, 0, Control_c, 14, 7, 100
16, 0, Control_c, 14, 10, 64
16, 189, Control_c, 14, 91, 40
16, 190, Control_c, 14, 93, 0
16, 190, End_track
17, 0, Start_track
17, 0, Title_t, "A16-Piano 1     "
17, 0, Control_c, 15, 0, 0
17, 0, Control_c, 15, 32, 3
17, 0, Program_c, 15, 0
17, 0, Control_c, 15, 7, 100
17, 0, Control_c, 15, 10, 64
17, 197, Control_c, 15, 91, 40
17, 198, Control_c, 15, 93, 0
17, 198, End_track
0, 0, End_of_file
