0, 0, Header, 0, 1, 480
1, 0, Start_track
1, 0, Title_t, ""
1, 0, Tempo, 652173
1, 0, Time_signature, 4, 2, 24, 8
1, 0, System_exclusive, 8, 67, 16, 76, 0, 0, 126, 0, 247
1, 0, System_exclusive, 8, 67, 16, 76, 0, 0, 4, 127, 247
1, 0, System_exclusive, 9, 67, 16, 76, 2, 1, 0, 3, 0, 247
1, 0, Control_c, 0, 0, 127
1, 0, Control_c, 0, 32, 0
1, 0, Program_c, 0, 0
1, 0, Control_c, 0, 7, 127
1, 0, Control_c, 0, 10, 45
1, 0, Control_c, 0, 99, 24
1, 0, Control_c, 0, 98, 54
1, 0, Control_c, 0, 6, 42
1, 0, Control_c, 0, 99, 1
1, 0, Control_c, 0, 98, 100
1, 0, Control_c, 0, 6, 90
1, 0, Control_c, 0, 11, 118
1, 0, Control_c, 0, 93, 70
1, 0, Control_c, 0, 91, 100
1, 0, Control_c, 1, 0, 0
1, 0, Control_c, 1, 32, 0
1, 0, Program_c, 1, 122
1, 0, Pitch_bend_c, 1, 8192
1, 0, Control_c, 1, 1, 0
1, 0, Control_c, 1, 7, 127
1, 0, Control_c, 1, 10, 64
1, 0, Control_c, 1, 11, 100
1, 0, Control_c, 1, 64, 0
1, 0, Control_c, 1, 91, 100
1, 0, Control_c, 1, 93, 0
1, 0, Control_c, 1, 101, 0
1, 0, Control_c, 1, 100, 0
1, 0, Control_c, 1, 6, 12
1, 0, Control_c, 1, 99, 1
1, 0, Control_c, 1, 98, 32
1, 0, Control_c, 1, 6, 66
1, 0, Control_c, 2, 0, 0
1, 0, Control_c, 2, 32, 0
1, 0, Program_c, 2, 50
1, 0, Pitch_bend_c, 2, 8192
1, 0, Control_c, 2, 1, 0
1, 0, Control_c, 2, 7, 127
1, 0, Control_c, 2, 10, 30
1, 0, Control_c, 2, 11, 100
1, 0, Control_c, 2, 91, 60
1, 0, Control_c, 2, 93, 0
1, 0, Control_c, 2, 99, 1
1, 0, Control_c, 2, 98, 32
1, 0, Control_c, 2, 6, 67
1, 0, Control_c, 3, 0, 0
1, 0, Control_c, 3, 32, 66
1, 0, Program_c, 3, 50
1, 0, Pitch_bend_c, 3, 8192
1, 0, Control_c, 3, 1, 0
1, 0, Control_c, 3, 7, 127
1, 0, Control_c, 3, 10, 65
1, 0, Control_c, 3, 11, 85
1, 0, Control_c, 3, 91, 60
1, 0, Control_c, 3, 93, 0
1, 0, Control_c, 3, 99, 1
1, 0, Control_c, 3, 98, 32
1, 0, Control_c, 3, 6, 70
1, 0, Control_c, 4, 0, 0
1, 0, Control_c, 4, 32, 0
1, 0, Program_c, 4, 50
1, 0, Pitch_bend_c, 4, 8192
1, 0, Control_c, 4, 1, 0
1, 0, Control_c, 4, 7, 127
1, 0, Control_c, 4, 10, 100
1, 0, Control_c, 4, 11, 110
1, 0, Control_c, 4, 91, 60
1, 0, Control_c, 4, 93, 0
1, 0, Control_c, 4, 99, 1
1, 0, Control_c, 4, 98, 32
1, 0, Control_c, 4, 6, 70
1, 0, Control_c, 6, 0, 0
1, 0, Control_c, 6, 32, 68
1, 0, Program_c, 6, 1
1, 0, Pitch_bend_c, 6, 8192
1, 0, Control_c, 6, 1, 0
1, 0, Control_c, 6, 7, 127
1, 0, Control_c, 6, 10, 58
1, 0, Control_c, 6, 11, 120
1, 0, Control_c, 6, 64, 0
1, 0, Control_c, 6, 91, 60
1, 0, Control_c, 6, 93, 0
1, 0, Control_c, 6, 99, 1
1, 0, Control_c, 6, 98, 32
1, 0, Control_c, 6, 6, 73
1, 0, Control_c, 7, 0, 0
1, 0, Control_c, 7, 32, 65
1, 0, Program_c, 7, 1
1, 0, Pitch_bend_c, 7, 8192
1, 0, Control_c, 7, 1, 0
1, 0, Control_c, 7, 7, 127
1, 0, Control_c, 7, 10, 50
1, 0, Control_c, 7, 11, 115
1, 0, Control_c, 7, 64, 0
1, 0, Control_c, 7, 91, 80
1, 0, Control_c, 7, 93, 0
1, 0, Control_c, 7, 99, 1
1, 0, Control_c, 7, 98, 32
1, 0, Control_c, 7, 6, 97
1, 0, Control_c, 8, 0, 0
1, 0, Control_c, 8, 32, 64
1, 0, Program_c, 8, 1
1, 0, Pitch_bend_c, 8, 8192
1, 0, Control_c, 8, 1, 0
1, 0, Control_c, 8, 7, 127
1, 0, Control_c, 8, 10, 30
1, 0, Control_c, 8, 11, 100
1, 0, Control_c, 8, 64, 0
1, 0, Control_c, 8, 91, 60
1, 0, Control_c, 8, 93, 0
1, 0, Control_c, 8, 99, 1
1, 0, Control_c, 8, 98, 32
1, 0, Control_c, 8, 6, 72
1, 0, Control_c, 9, 0, 127
1, 0, Control_c, 9, 32, 0
1, 0, Program_c, 9, 66
1, 0, Control_c, 9, 7, 127
1, 0, Control_c, 9, 10, 64
1, 0, Control_c, 9, 11, 100
1, 0, Control_c, 9, 91, 60
1, 0, Control_c, 9, 93, 10
1, 0, Control_c, 9, 99, 1
1, 0, Control_c, 9, 98, 32
1, 0, Control_c, 9, 6, 62
1, 0, Control_c, 11, 0, 0
1, 0, Control_c, 11, 32, 0
1, 0, Program_c, 11, 73
1, 0, Pitch_bend_c, 11, 8192
1, 0, Control_c, 11, 1, 0
1, 0, Control_c, 11, 7, 120
1, 0, Control_c, 11, 10, 35
1, 0, Control_c, 11, 11, 116
1, 0, Control_c, 11, 64, 0
1, 0, Control_c, 11, 91, 50
1, 0, Control_c, 11, 93, 0
1, 0, Control_c, 11, 99, 1
1, 0, Control_c, 11, 98, 8
1, 0, Control_c, 11, 6, 66
1, 0, Control_c, 11, 99, 1
1, 0, Control_c, 11, 98, 9
1, 0, Control_c, 11, 6, 65
1, 0, Control_c, 11, 99, 1
1, 0, Control_c, 11, 98, 10
1, 0, Control_c, 11, 6, 65
1, 0, Control_c, 11, 99, 1
1, 0, Control_c, 11, 98, 32
1, 0, Control_c, 11, 6, 72
1, 0, Control_c, 12, 0, 0
1, 0, Control_c, 12, 32, 66
1, 0, Program_c, 12, 68
1, 0, Pitch_bend_c, 12, 8192
1, 0, Control_c, 12, 1, 0
1, 0, Control_c, 12, 7, 127
1, 0, Control_c, 12, 10, 80
1, 0, Control_c, 12, 11, 115
1, 0, Control_c, 12, 64, 0
1, 0, Control_c, 12, 91, 60
1, 0, Control_c, 12, 93, 0
1, 0, Control_c, 12, 99, 1
1, 0, Control_c, 12, 98, 8
1, 0, Control_c, 12, 6, 66
1, 0, Control_c, 12, 99, 1
1, 0, Control_c, 12, 98, 9
1, 0, Control_c, 12, 6, 65
1, 0, Control_c, 12, 99, 1
1, 0, Control_c, 12, 98, 10
1, 0, Control_c, 12, 6, 65
1, 0, Control_c, 12, 99, 1
1, 0, Control_c, 12, 98, 32
1, 0, Control_c, 12, 6, 55
1, 0, Control_c, 13, 0, 0
1, 0, Control_c, 13, 32, 43
1, 0, Program_c, 13, 47
1, 0, Pitch_bend_c, 13, 8192
1, 0, Control_c, 13, 1, 0
1, 0, Control_c, 13, 7, 127
1, 0, Control_c, 13, 10, 64
1, 0, Control_c, 13, 11, 120
1, 0, Control_c, 13, 64, 0
1, 0, Control_c, 13, 91, 50
1, 0, Control_c, 13, 93, 0
1, 0, Control_c, 14, 0, 0
1, 0, Control_c, 14, 32, 0
1, 0, Program_c, 14, 116
1, 0, Pitch_bend_c, 14, 8192
1, 0, Control_c, 14, 1, 0
1, 0, Control_c, 14, 7, 127
1, 0, Control_c, 14, 10, 64
1, 0, Control_c, 14, 11, 127
1, 0, Control_c, 14, 64, 0
1, 0, Control_c, 14, 91, 50
1, 0, Control_c, 14, 99, 1
1, 0, Control_c, 14, 98, 32
1, 0, Control_c, 14, 6, 120
1, 0, Control_c, 14, 93, 50
1, 0, Control_c, 15, 0, 48
1, 0, Control_c, 15, 32, 24
1, 0, Program_c, 15, 9
1, 0, Control_c, 15, 7, 127
1, 0, Control_c, 15, 10, 45
1, 0, Control_c, 15, 11, 70
1, 0, Control_c, 15, 91, 50
1, 0, Tempo, 652173
1, 0, Tempo, 652173
1, 0, Tempo, 652173
1, 0, Tempo, 652173
1, 0, Tempo, 652173
1, 0, Tempo, 652173
1, 0, Tempo, 652173
1, 0, Tempo, 652173
1, 480, Note_on_c, 1, 96, 66
1, 1920, Note_on_c, 7, 74, 70
1, 1920, Note_on_c, 8, 62, 106
1, 1920, Note_on_c, 12, 74, 88
1, 1955, Note_on_c, 7, 77, 72
1, 1990, Note_on_c, 7, 81, 74
1, 2080, Note_on_c, 7, 74, 0
1, 2115, Note_on_c, 7, 77, 0
1, 2397, Note_on_c, 12, 74, 0
1, 2400, Note_on_c, 12, 76, 99
1, 2563, Note_on_c, 7, 81, 0
1, 2638, Note_on_c, 12, 76, 0
1, 2640, Note_on_c, 12, 77, 107
1, 2788, Note_on_c, 8, 62, 0
1, 2878, Note_on_c, 12, 77, 0
1, 2880, Note_on_c, 7, 69, 73
1, 2880, Note_on_c, 8, 60, 106
1, 2880, Note_on_c, 12, 76, 93
1, 2915, Note_on_c, 7, 72, 75
1, 2950, Note_on_c, 7, 76, 76
1, 3040, Note_on_c, 7, 69, 0
1, 3075, Note_on_c, 7, 72, 0
1, 3350, Note_on_c, 7, 76, 0
1, 3357, Note_on_c, 12, 76, 0
1, 3360, Note_on_c, 7, 69, 65
1, 3360, Note_on_c, 12, 77, 103
1, 3598, Note_on_c, 12, 77, 0
1, 3600, Note_on_c, 12, 79, 98
1, 3748, Note_on_c, 8, 60, 0
1, 3826, Note_on_c, 7, 69, 0
1, 3838, Note_on_c, 12, 79, 0
1, 3840, Note_on_c, 7, 65, 77
1, 3840, Note_on_c, 8, 58, 106
1, 3840, Note_on_c, 12, 81, 116
1, 3875, Note_on_c, 7, 70, 79
1, 3910, Note_on_c, 7, 74, 81
1, 4000, Note_on_c, 7, 65, 0
1, 4035, Note_on_c, 7, 70, 0
1, 4317, Note_on_c, 12, 81, 0
1, 4320, Note_on_c, 12, 82, 122
1, 4483, Note_on_c, 7, 74, 0
1, 4558, Note_on_c, 12, 82, 0
1, 4560, Note_on_c, 12, 81, 99
1, 4708, Note_on_c, 8, 58, 0
1, 4781, Note_on_c, 1, 96, 0
1, 4798, Note_on_c, 12, 81, 0
1, 4800, Note_on_c, 1, 96, 68
1, 4800, Note_on_c, 7, 64, 91
1, 4800, Note_on_c, 8, 57, 106
1, 4800, Note_on_c, 12, 79, 87
1, 4800, Control_c, 12, 1, 2
1, 4835, Note_on_c, 7, 69, 93
1, 4870, Note_on_c, 7, 72, 96
1, 4880, Control_c, 12, 1, 13
1, 4960, Note_on_c, 7, 64, 0
1, 4960, Control_c, 12, 1, 25
1, 4995, Note_on_c, 7, 69, 0
1, 5040, Control_c, 12, 1, 38
1, 5120, Control_c, 12, 1, 45
1, 5200, Control_c, 12, 1, 55
1, 5405, Note_on_c, 7, 72, 0
1, 5668, Note_on_c, 8, 57, 0
1, 5755, Note_on_c, 12, 79, 0
1, 5755, Pitch_bend_c, 12, 8192
1, 5755, Control_c, 12, 1, 0
1, 5760, Note_on_c, 7, 65, 76
1, 5760, Note_on_c, 8, 55, 106
1, 5760, Note_on_c, 12, 81, 98
1, 5795, Note_on_c, 7, 70, 78
1, 5830, Note_on_c, 7, 74, 81
1, 5920, Note_on_c, 7, 65, 0
1, 5955, Note_on_c, 7, 70, 0
1, 6230, Note_on_c, 7, 74, 0
1, 6237, Note_on_c, 12, 81, 0
1, 6240, Note_on_c, 7, 65, 68
1, 6240, Note_on_c, 12, 79, 93
1, 6478, Note_on_c, 12, 79, 0
1, 6480, Note_on_c, 12, 77, 77
1, 6628, Note_on_c, 8, 55, 0
1, 6706, Note_on_c, 7, 65, 0
1, 6718, Note_on_c, 12, 77, 0
1, 6720, Note_on_c, 7, 72, 80
1, 6720, Note_on_c, 8, 57, 106
1, 6720, Note_on_c, 12, 76, 84
1, 6720, Control_c, 12, 1, 2
1, 6755, Note_on_c, 7, 76, 82
1, 6790, Note_on_c, 7, 79, 84
1, 6800, Control_c, 12, 1, 13
1, 6880, Note_on_c, 7, 72, 0
1, 6880, Control_c, 12, 1, 25
1, 6915, Note_on_c, 7, 76, 0
1, 6960, Control_c, 12, 1, 38
1, 7040, Control_c, 12, 1, 45
1, 7120, Control_c, 12, 1, 55
1, 7190, Note_on_c, 7, 79, 0
1, 7200, Note_on_c, 7, 76, 74
1, 7588, Note_on_c, 8, 57, 0
1, 7666, Note_on_c, 7, 76, 0
1, 7675, Note_on_c, 12, 76, 0
1, 7675, Pitch_bend_c, 12, 8192
1, 7675, Control_c, 12, 1, 0
1, 7680, Note_on_c, 7, 74, 72
1, 7680, Note_on_c, 8, 59, 106
1, 7680, Note_on_c, 12, 77, 74
1, 7715, Note_on_c, 7, 77, 74
1, 7750, Note_on_c, 7, 81, 75
1, 7840, Note_on_c, 7, 74, 0
1, 7875, Note_on_c, 7, 77, 0
1, 8150, Note_on_c, 1, 96, 0
1, 8157, Note_on_c, 12, 77, 0
1, 8160, Note_on_c, 1, 96, 67
1, 8160, Note_on_c, 12, 76, 91
1, 8323, Note_on_c, 7, 81, 0
1, 8398, Note_on_c, 12, 76, 0
1, 8400, Note_on_c, 12, 74, 83
1, 8548, Note_on_c, 8, 59, 0
1, 8630, Control_c, 2, 11, 80
1, 8638, Note_on_c, 12, 74, 0
1, 8640, Note_on_c, 7, 72, 75
1, 8640, Note_on_c, 8, 60, 106
1, 8640, Note_on_c, 12, 72, 91
1, 8640, Control_c, 12, 1, 2
1, 8640, Control_c, 12, 1, 2
1, 8675, Note_on_c, 7, 76, 75
1, 8710, Note_on_c, 7, 81, 76
1, 8720, Control_c, 2, 11, 81
1, 8720, Control_c, 12, 1, 13
1, 8720, Control_c, 12, 1, 13
1, 8800, Note_on_c, 7, 72, 0
1, 8800, Control_c, 12, 1, 25
1, 8800, Control_c, 12, 1, 25
1, 8810, Control_c, 2, 11, 82
1, 8835, Note_on_c, 7, 76, 0
1, 8880, Control_c, 12, 1, 38
1, 8880, Control_c, 12, 1, 38
1, 8900, Control_c, 2, 11, 83
1, 8960, Control_c, 2, 11, 84
1, 8960, Control_c, 12, 1, 45
1, 8960, Control_c, 12, 1, 45
1, 9040, Control_c, 12, 1, 55
1, 9040, Control_c, 12, 1, 55
1, 9050, Control_c, 2, 11, 85
1, 9120, Note_on_c, 2, 79, 110
1, 9120, Note_on_c, 11, 79, 94
1, 9140, Control_c, 2, 11, 86
1, 9200, Control_c, 2, 11, 87
1, 9283, Note_on_c, 7, 81, 0
1, 9290, Control_c, 2, 11, 88
1, 9380, Control_c, 2, 11, 89
1, 9440, Control_c, 2, 11, 90
1, 9508, Note_on_c, 8, 60, 0
1, 9530, Control_c, 2, 11, 91
1, 9595, Note_on_c, 12, 72, 0
1, 9595, Pitch_bend_c, 12, 8192
1, 9595, Control_c, 12, 1, 0
1, 9595, Pitch_bend_c, 12, 8192
1, 9595, Control_c, 12, 1, 0
1, 9597, Note_on_c, 2, 79, 0
1, 9597, Note_on_c, 11, 79, 0
1, 9600, Note_on_c, 2, 81, 110
1, 9600, Control_c, 6, 64, 65
1, 9600, Note_on_c, 7, 74, 75
1, 9600, Note_on_c, 8, 58, 106
1, 9600, Note_on_c, 11, 81, 102
1, 9600, Control_c, 11, 1, 2
1, 9600, Note_on_c, 12, 74, 88
1, 9620, Control_c, 2, 11, 92
1, 9635, Note_on_c, 7, 77, 75
1, 9670, Note_on_c, 7, 81, 76
1, 9680, Control_c, 2, 11, 93
1, 9680, Control_c, 11, 1, 13
1, 9760, Note_on_c, 7, 74, 0
1, 9760, Control_c, 11, 1, 25
1, 9770, Control_c, 2, 11, 94
1, 9795, Note_on_c, 7, 77, 0
1, 9840, Control_c, 11, 1, 38
1, 9860, Control_c, 2, 11, 95
1, 9920, Control_c, 2, 11, 96
1, 9920, Control_c, 11, 1, 45
1, 10000, Control_c, 11, 1, 55
1, 10010, Control_c, 2, 11, 97
1, 10077, Note_on_c, 12, 74, 0
1, 10080, Note_on_c, 12, 76, 99
1, 10100, Control_c, 2, 11, 98
1, 10160, Control_c, 2, 11, 99
1, 10243, Note_on_c, 7, 81, 0
1, 10250, Control_c, 2, 11, 100
1, 10318, Note_on_c, 12, 76, 0
1, 10320, Note_on_c, 12, 77, 107
1, 10340, Control_c, 2, 11, 101
1, 10400, Control_c, 2, 11, 102
1, 10468, Note_on_c, 8, 58, 0
1, 10490, Control_c, 2, 11, 103
1, 10558, Note_on_c, 12, 77, 0
1, 10560, Note_on_c, 7, 72, 73
1, 10560, Note_on_c, 8, 57, 106
1, 10560, Note_on_c, 12, 76, 93
1, 10580, Control_c, 2, 11, 104
1, 10595, Note_on_c, 7, 76, 74
1, 10630, Note_on_c, 7, 81, 74
1, 10640, Control_c, 2, 11, 105
1, 10720, Note_on_c, 7, 72, 0
1, 10755, Note_on_c, 7, 76, 0
1, 11037, Note_on_c, 12, 76, 0
1, 11040, Note_on_c, 6, 55, 69
1, 11040, Note_on_c, 12, 77, 103
1, 11100, Note_on_c, 6, 55, 0
1, 11100, Note_on_c, 6, 57, 72
1, 11160, Note_on_c, 6, 57, 0
1, 11160, Note_on_c, 6, 58, 75
1, 11203, Note_on_c, 7, 81, 0
1, 11220, Note_on_c, 6, 58, 0
1, 11220, Note_on_c, 6, 60, 77
1, 11278, Note_on_c, 12, 77, 0
1, 11280, Note_on_c, 6, 60, 0
1, 11280, Note_on_c, 6, 62, 80
1, 11280, Note_on_c, 12, 79, 98
1, 11340, Note_on_c, 6, 62, 0
1, 11340, Note_on_c, 6, 64, 83
1, 11400, Note_on_c, 6, 64, 0
1, 11400, Note_on_c, 6, 65, 86
1, 11428, Note_on_c, 8, 57, 0
1, 11460, Note_on_c, 6, 65, 0
1, 11460, Note_on_c, 6, 67, 88
1, 11510, Note_on_c, 2, 81, 0
1, 11510, Note_on_c, 11, 81, 0
1, 11510, Pitch_bend_c, 11, 8192
1, 11510, Control_c, 11, 1, 0
1, 11518, Note_on_c, 12, 79, 0
1, 11520, Note_on_c, 6, 67, 0
1, 11520, Note_on_c, 4, 43, 110
1, 11520, Note_on_c, 4, 65, 83
1, 11520, Note_on_c, 4, 55, 63
1, 11520, Note_on_c, 6, 69, 103
1, 11520, Note_on_c, 7, 65, 71
1, 11520, Note_on_c, 8, 55, 106
1, 11520, Note_on_c, 12, 81, 116
1, 11555, Note_on_c, 7, 70, 72
1, 11590, Note_on_c, 7, 74, 73
1, 11680, Note_on_c, 7, 65, 0
1, 11715, Note_on_c, 7, 70, 0
1, 11968, Note_on_c, 6, 69, 0
1, 11997, Note_on_c, 12, 81, 0
1, 12000, Note_on_c, 2, 79, 110
1, 12000, Control_c, 6, 64, 0
1, 12000, Note_on_c, 6, 70, 113
1, 12000, Note_on_c, 11, 79, 95
1, 12000, Note_on_c, 12, 82, 122
1, 12163, Note_on_c, 7, 74, 0
1, 12224, Note_on_c, 6, 70, 0
1, 12238, Note_on_c, 12, 82, 0
1, 12240, Note_on_c, 6, 69, 113
1, 12240, Note_on_c, 12, 81, 99
1, 12388, Note_on_c, 8, 55, 0
1, 12464, Note_on_c, 6, 69, 0
1, 12475, Note_on_c, 4, 43, 0
1, 12475, Note_on_c, 4, 65, 0
1, 12477, Note_on_c, 2, 79, 0
1, 12477, Note_on_c, 11, 79, 0
1, 12478, Note_on_c, 12, 81, 0
1, 12480, Note_on_c, 4, 55, 0
1, 12480, Note_on_c, 2, 84, 110
1, 12480, Note_on_c, 4, 48, 110
1, 12480, Note_on_c, 4, 64, 83
1, 12480, Note_on_c, 4, 60, 63
1, 12480, Note_on_c, 6, 67, 113
1, 12480, Note_on_c, 7, 67, 75
1, 12480, Note_on_c, 8, 60, 106
1, 12480, Note_on_c, 11, 84, 105
1, 12480, Note_on_c, 12, 79, 87
1, 12480, Control_c, 12, 1, 2
1, 12515, Note_on_c, 7, 72, 76
1, 12550, Note_on_c, 7, 76, 76
1, 12560, Control_c, 12, 1, 13
1, 12640, Note_on_c, 7, 67, 0
1, 12640, Control_c, 12, 1, 25
1, 12675, Note_on_c, 7, 72, 0
1, 12720, Control_c, 12, 1, 38
1, 12800, Control_c, 12, 1, 45
1, 12880, Control_c, 12, 1, 55
1, 12928, Note_on_c, 6, 67, 0
1, 12931, Note_on_c, 1, 96, 0
1, 12957, Note_on_c, 2, 84, 0
1, 12957, Note_on_c, 11, 84, 0
1, 12960, Note_on_c, 1, 96, 68
1, 12960, Note_on_c, 2, 82, 110
1, 12960, Note_on_c, 6, 65, 113
1, 12960, Note_on_c, 9, 49, 42
1, 12960, Note_on_c, 11, 82, 111
1, 12960, Note_on_c, 13, 48, 110
1, 13040, Note_on_c, 9, 49, 0
1, 13040, Note_on_c, 9, 49, 53
1, 13073, Note_on_c, 13, 48, 0
1, 13120, Note_on_c, 9, 49, 0
1, 13120, Note_on_c, 9, 49, 63
1, 13123, Note_on_c, 7, 76, 0
1, 13184, Note_on_c, 6, 65, 0
1, 13200, Note_on_c, 9, 49, 0
1, 13200, Note_on_c, 6, 67, 113
1, 13200, Note_on_c, 9, 49, 74
1, 13200, Note_on_c, 13, 48, 110
1, 13275, Note_on_c, 13, 48, 0
1, 13280, Note_on_c, 9, 49, 0
1, 13280, Note_on_c, 9, 49, 85
1, 13280, Note_on_c, 13, 48, 110
1, 13348, Note_on_c, 8, 60, 0
1, 13355, Note_on_c, 13, 48, 0
1, 13360, Note_on_c, 9, 49, 0
1, 13360, Note_on_c, 9, 49, 95
1, 13360, Note_on_c, 13, 48, 110
1, 13424, Note_on_c, 6, 67, 0
1, 13430, Control_c, 2, 11, 98
1, 13435, Note_on_c, 4, 48, 0
1, 13435, Note_on_c, 4, 64, 0
1, 13435, Note_on_c, 12, 79, 0
1, 13435, Note_on_c, 13, 48, 0
1, 13435, Pitch_bend_c, 12, 8192
1, 13435, Control_c, 12, 1, 0
1, 13437, Note_on_c, 2, 82, 0
1, 13437, Note_on_c, 11, 82, 0
1, 13440, Note_on_c, 4, 60, 0
1, 13440, Note_on_c, 9, 49, 0
1, 13440, Note_on_c, 2, 67, 110
1, 13440, Note_on_c, 4, 41, 110
1, 13440, Note_on_c, 4, 64, 83
1, 13440, Note_on_c, 4, 52, 58
1, 13440, Note_on_c, 7, 81, 80
1, 13440, Note_on_c, 9, 49, 109
1, 13440, Note_on_c, 11, 81, 107
1, 13440, Note_on_c, 12, 81, 98
1, 13440, Note_on_c, 13, 41, 110
1, 13864, Note_on_c, 7, 81, 0
1, 13893, Note_on_c, 13, 41, 0
1, 13917, Note_on_c, 11, 81, 0
1, 13917, Note_on_c, 12, 81, 0
1, 13920, Note_on_c, 7, 79, 80
1, 13920, Note_on_c, 11, 79, 96
1, 13920, Note_on_c, 12, 79, 93
1, 14132, Note_on_c, 7, 79, 0
1, 14158, Note_on_c, 11, 79, 0
1, 14158, Note_on_c, 12, 79, 0
1, 14160, Note_on_c, 7, 77, 80
1, 14160, Note_on_c, 11, 77, 92
1, 14160, Note_on_c, 12, 77, 77
1, 14372, Note_on_c, 7, 77, 0
1, 14398, Note_on_c, 11, 77, 0
1, 14398, Note_on_c, 12, 77, 0
1, 14400, Note_on_c, 9, 49, 0
1, 14400, Note_on_c, 7, 76, 80
1, 14400, Note_on_c, 11, 76, 99
1, 14400, Note_on_c, 12, 76, 94
1, 14824, Note_on_c, 7, 76, 0
1, 14877, Note_on_c, 11, 76, 0
1, 14877, Note_on_c, 12, 76, 0
1, 14880, Note_on_c, 7, 72, 80
1, 14880, Note_on_c, 11, 72, 82
1, 14880, Note_on_c, 12, 72, 80
1, 15304, Note_on_c, 7, 72, 0
1, 15322, Note_on_c, 1, 96, 0
1, 15350, Note_on_c, 2, 67, 0
1, 15350, Note_on_c, 4, 41, 0
1, 15357, Note_on_c, 11, 72, 0
1, 15357, Note_on_c, 12, 72, 0
1, 15360, Note_on_c, 4, 52, 0
1, 15360, Note_on_c, 1, 96, 65
1, 15360, Note_on_c, 2, 64, 110
1, 15360, Note_on_c, 3, 64, 71
1, 15360, Note_on_c, 4, 45, 110
1, 15360, Note_on_c, 4, 57, 58
1, 15360, Note_on_c, 11, 73, 97
1, 15360, Note_on_c, 12, 73, 84
1, 15598, Note_on_c, 11, 73, 0
1, 15598, Note_on_c, 12, 73, 0
1, 15600, Note_on_c, 11, 74, 97
1, 15600, Note_on_c, 12, 74, 88
1, 15832, Note_on_c, 3, 64, 0
1, 15837, Note_on_c, 2, 64, 0
1, 15838, Note_on_c, 11, 74, 0
1, 15838, Note_on_c, 12, 74, 0
1, 15840, Note_on_c, 2, 66, 110
1, 15840, Note_on_c, 3, 61, 71
1, 15840, Note_on_c, 11, 74, 97
1, 15840, Note_on_c, 12, 74, 96
1, 15840, Control_c, 12, 1, 2
1, 15920, Control_c, 12, 1, 13
1, 16000, Control_c, 12, 1, 25
1, 16080, Control_c, 12, 1, 38
1, 16160, Control_c, 12, 1, 45
1, 16240, Control_c, 12, 1, 55
1, 16312, Note_on_c, 3, 61, 0
1, 16320, Note_on_c, 3, 62, 71
1, 17270, Note_on_c, 4, 45, 0
1, 17270, Control_c, 2, 11, 56
1, 17272, Note_on_c, 2, 66, 0
1, 17272, Note_on_c, 11, 74, 0
1, 17272, Note_on_c, 12, 74, 0
1, 17272, Pitch_bend_c, 12, 8192
1, 17272, Control_c, 12, 1, 0
1, 17280, Note_on_c, 4, 57, 0
1, 17280, Note_on_c, 2, 78, 110
1, 17280, Note_on_c, 4, 47, 82
1, 17280, Note_on_c, 7, 86, 80
1, 17330, Control_c, 2, 11, 57
1, 17360, Control_c, 2, 11, 58
1, 17390, Control_c, 2, 11, 59
1, 17420, Control_c, 2, 11, 60
1, 17450, Control_c, 2, 11, 61
1, 17510, Control_c, 2, 11, 62
1, 17536, Note_on_c, 7, 86, 0
1, 17540, Control_c, 2, 11, 63
1, 17570, Control_c, 2, 11, 64
1, 17600, Control_c, 2, 11, 65
1, 17630, Control_c, 2, 11, 66
1, 17660, Control_c, 2, 11, 67
1, 17720, Control_c, 2, 11, 68
1, 17750, Control_c, 2, 11, 69
1, 17760, Note_on_c, 7, 88, 90
1, 17780, Control_c, 2, 11, 70
1, 17810, Control_c, 2, 11, 71
1, 17840, Control_c, 2, 11, 72
1, 17870, Control_c, 2, 11, 73
1, 17930, Control_c, 2, 11, 74
1, 17960, Control_c, 2, 11, 75
1, 17990, Control_c, 2, 11, 76
1, 18020, Control_c, 2, 11, 77
1, 18021, Note_on_c, 7, 88, 0
1, 18050, Control_c, 2, 11, 78
1, 18080, Control_c, 2, 11, 79
1, 18140, Control_c, 2, 11, 80
1, 18170, Control_c, 2, 11, 81
1, 18200, Control_c, 2, 11, 82
1, 18221, Note_on_c, 1, 96, 0
1, 18230, Control_c, 2, 11, 83
1, 18240, Note_on_c, 1, 96, 71
1, 18240, Note_on_c, 7, 85, 86
1, 18260, Control_c, 2, 11, 84
1, 18290, Control_c, 2, 11, 85
1, 18350, Control_c, 2, 11, 86
1, 18380, Control_c, 2, 11, 87
1, 18410, Control_c, 2, 11, 88
1, 18440, Control_c, 2, 11, 89
1, 18463, Note_on_c, 7, 85, 0
1, 18470, Control_c, 2, 11, 90
1, 18500, Control_c, 2, 11, 91
1, 18720, Note_on_c, 7, 86, 91
1, 18943, Note_on_c, 7, 86, 0
1, 19171, Note_on_c, 3, 62, 0
1, 19190, Note_on_c, 2, 78, 0
1, 19190, Note_on_c, 4, 47, 0
1, 19190, Note_on_c, 4, 64, 0
1, 19200, Note_on_c, 2, 69, 110
1, 19200, Note_on_c, 2, 65, 92
1, 19200, Note_on_c, 3, 62, 110
1, 19200, Control_c, 3, 11, 106
1, 19200, Note_on_c, 4, 46, 110
1, 19200, Note_on_c, 4, 58, 72
1, 19200, Control_c, 7, 10, 45
1, 19200, Note_on_c, 7, 69, 54
1, 19200, Note_on_c, 7, 65, 78
1, 19200, Note_on_c, 7, 62, 78
1, 19200, Note_on_c, 7, 57, 78
1, 19200, Control_c, 7, 11, 125
1, 19250, Control_c, 3, 11, 107
1, 20155, Note_on_c, 3, 62, 0
1, 20160, Note_on_c, 3, 64, 110
1, 20200, Note_on_c, 7, 69, 0
1, 20200, Note_on_c, 7, 65, 0
1, 20200, Note_on_c, 7, 62, 0
1, 20200, Note_on_c, 7, 57, 0
1, 20637, Note_on_c, 3, 64, 0
1, 20640, Note_on_c, 3, 65, 110
1, 21110, Note_on_c, 2, 69, 0
1, 21110, Note_on_c, 2, 65, 0
1, 21110, Note_on_c, 4, 46, 0
1, 21110, Note_on_c, 4, 58, 0
1, 21117, Note_on_c, 3, 65, 0
1, 21120, Note_on_c, 2, 69, 110
1, 21120, Note_on_c, 2, 65, 92
1, 21120, Note_on_c, 3, 64, 110
1, 21120, Note_on_c, 4, 50, 110
1, 21120, Note_on_c, 4, 62, 72
1, 21120, Note_on_c, 7, 69, 54
1, 21120, Note_on_c, 7, 64, 79
1, 21120, Note_on_c, 7, 60, 79
1, 21120, Note_on_c, 7, 67, 35
1, 21120, Note_on_c, 7, 57, 79
1, 21590, Note_on_c, 1, 96, 0
1, 21600, Note_on_c, 1, 96, 77
1, 22075, Note_on_c, 3, 64, 0
1, 22080, Note_on_c, 3, 65, 110
1, 22120, Note_on_c, 7, 69, 0
1, 22120, Note_on_c, 7, 64, 0
1, 22120, Note_on_c, 7, 60, 0
1, 22120, Note_on_c, 7, 67, 0
1, 22120, Note_on_c, 7, 57, 0
1, 22557, Note_on_c, 3, 65, 0
1, 22560, Note_on_c, 3, 67, 110
1, 23030, Note_on_c, 2, 69, 0
1, 23030, Note_on_c, 2, 65, 0
1, 23030, Note_on_c, 4, 50, 0
1, 23030, Note_on_c, 4, 62, 0
1, 23037, Note_on_c, 3, 67, 0
1, 23040, Note_on_c, 2, 69, 110
1, 23040, Note_on_c, 2, 65, 92
1, 23040, Note_on_c, 3, 69, 110
1, 23040, Note_on_c, 4, 46, 110
1, 23040, Note_on_c, 4, 58, 74
1, 23040, Note_on_c, 7, 57, 80
1, 23040, Note_on_c, 7, 62, 80
1, 23040, Note_on_c, 7, 65, 80
1, 23040, Note_on_c, 7, 69, 57
1, 23995, Note_on_c, 3, 69, 0
1, 24000, Note_on_c, 3, 67, 110
1, 24040, Note_on_c, 7, 57, 0
1, 24040, Note_on_c, 7, 62, 0
1, 24040, Note_on_c, 7, 65, 0
1, 24067, Note_on_c, 7, 69, 0
1, 24950, Note_on_c, 2, 69, 0
1, 24950, Note_on_c, 2, 65, 0
1, 24950, Note_on_c, 4, 46, 0
1, 24950, Note_on_c, 4, 58, 0
1, 24955, Note_on_c, 3, 67, 0
1, 24960, Note_on_c, 2, 72, 110
1, 24960, Note_on_c, 2, 69, 92
1, 24960, Note_on_c, 3, 65, 110
1, 24960, Note_on_c, 4, 50, 110
1, 24960, Note_on_c, 4, 62, 74
1, 24960, Note_on_c, 7, 65, 81
1, 24960, Note_on_c, 7, 62, 81
1, 24960, Note_on_c, 7, 69, 74
1, 24960, Note_on_c, 7, 57, 81
1, 25437, Note_on_c, 3, 65, 0
1, 25440, Note_on_c, 3, 64, 110
1, 25656, Note_on_c, 7, 69, 0
1, 25723, Note_on_c, 7, 65, 0
1, 25742, Note_on_c, 7, 62, 0
1, 25742, Note_on_c, 7, 57, 0
1, 25915, Note_on_c, 2, 69, 0
1, 25915, Note_on_c, 4, 50, 0
1, 25915, Note_on_c, 4, 62, 0
1, 25917, Note_on_c, 3, 64, 0
1, 25920, Note_on_c, 2, 67, 92
1, 25920, Note_on_c, 3, 62, 110
1, 25920, Note_on_c, 4, 48, 110
1, 25920, Note_on_c, 4, 60, 74
1, 25920, Note_on_c, 7, 67, 88
1, 25920, Note_on_c, 7, 62, 83
1, 25920, Note_on_c, 7, 57, 78
1, 26330, Note_on_c, 7, 62, 0
1, 26335, Note_on_c, 7, 67, 0
1, 26344, Note_on_c, 7, 57, 0
1, 26371, Note_on_c, 1, 96, 0
1, 26392, Note_on_c, 2, 72, 0
1, 26397, Note_on_c, 2, 67, 0
1, 26397, Note_on_c, 3, 62, 0
1, 26397, Note_on_c, 4, 48, 0
1, 26397, Note_on_c, 4, 60, 0
1, 26400, Note_on_c, 1, 96, 68
1, 26400, Note_on_c, 2, 77, 110
1, 26400, Note_on_c, 2, 69, 92
1, 26400, Note_on_c, 3, 57, 110
1, 26400, Note_on_c, 4, 41, 110
1, 26400, Note_on_c, 4, 55, 74
1, 26400, Note_on_c, 7, 69, 86
1, 26400, Note_on_c, 7, 65, 82
1, 26400, Note_on_c, 7, 60, 76
1, 26769, Note_on_c, 7, 69, 0
1, 26769, Note_on_c, 7, 65, 0
1, 26769, Note_on_c, 7, 60, 0
1, 26877, Note_on_c, 2, 77, 0
1, 26877, Note_on_c, 2, 69, 0
1, 26877, Note_on_c, 3, 57, 0
1, 26877, Note_on_c, 4, 41, 0
1, 26877, Note_on_c, 4, 55, 0
1, 26880, Note_on_c, 2, 69, 110
1, 26880, Note_on_c, 2, 77, 74
1, 26880, Note_on_c, 3, 62, 110
1, 26880, Control_c, 3, 11, 106
1, 26880, Note_on_c, 4, 46, 110
1, 26880, Note_on_c, 4, 58, 74
1, 26880, Note_on_c, 7, 69, 86
1, 26880, Note_on_c, 7, 65, 72
1, 26880, Note_on_c, 7, 62, 83
1, 26930, Control_c, 3, 11, 107
1, 27835, Note_on_c, 3, 62, 0
1, 27840, Note_on_c, 3, 64, 110
1, 28214, Note_on_c, 7, 69, 0
1, 28214, Note_on_c, 7, 65, 0
1, 28214, Note_on_c, 7, 62, 0
1, 28317, Note_on_c, 3, 64, 0
1, 28320, Note_on_c, 3, 65, 110
1, 28762, Note_on_c, 1, 96, 0
1, 28790, Note_on_c, 2, 69, 0
1, 28790, Note_on_c, 2, 77, 0
1, 28790, Note_on_c, 4, 46, 0
1, 28790, Note_on_c, 4, 58, 0
1, 28797, Note_on_c, 3, 65, 0
1, 28800, Note_on_c, 1, 96, 65
1, 28800, Note_on_c, 2, 69, 110
1, 28800, Note_on_c, 2, 76, 71
1, 28800, Note_on_c, 3, 64, 110
1, 28800, Note_on_c, 4, 48, 110
1, 28800, Note_on_c, 4, 60, 74
1, 28800, Note_on_c, 7, 67, 86
1, 28800, Note_on_c, 7, 64, 74
1, 28800, Note_on_c, 7, 60, 77
1, 28800, Note_on_c, 7, 55, 86
1, 29755, Note_on_c, 3, 64, 0
1, 29760, Note_on_c, 3, 65, 110
1, 30134, Note_on_c, 7, 67, 0
1, 30134, Note_on_c, 7, 64, 0
1, 30134, Note_on_c, 7, 60, 0
1, 30134, Note_on_c, 7, 55, 0
1, 30237, Note_on_c, 3, 65, 0
1, 30240, Note_on_c, 3, 67, 110
1, 30710, Note_on_c, 2, 69, 0
1, 30710, Note_on_c, 2, 76, 0
1, 30710, Note_on_c, 4, 48, 0
1, 30710, Note_on_c, 4, 60, 0
1, 30717, Note_on_c, 3, 67, 0
1, 30720, Note_on_c, 2, 69, 110
1, 30720, Note_on_c, 2, 74, 73
1, 30720, Note_on_c, 3, 69, 110
1, 30720, Note_on_c, 4, 47, 110
1, 30720, Note_on_c, 4, 62, 74
1, 30720, Note_on_c, 7, 69, 77
1, 30720, Note_on_c, 7, 62, 86
1, 30720, Note_on_c, 7, 64, 86
1, 30720, Note_on_c, 7, 57, 86
1, 31661, Note_on_c, 1, 96, 0
1, 31680, Note_on_c, 1, 96, 76
1, 32054, Note_on_c, 7, 69, 0
1, 32054, Note_on_c, 7, 62, 0
1, 32054, Note_on_c, 7, 64, 0
1, 32054, Note_on_c, 7, 57, 0
1, 32630, Note_on_c, 2, 69, 0
1, 32630, Note_on_c, 2, 74, 0
1, 32630, Note_on_c, 3, 69, 0
1, 32630, Note_on_c, 4, 47, 0
1, 32630, Note_on_c, 4, 62, 0
1, 32640, Note_on_c, 2, 69, 110
1, 32640, Note_on_c, 2, 74, 73
1, 32640, Note_on_c, 3, 62, 110
1, 32640, Note_on_c, 4, 43, 110
1, 32640, Note_on_c, 4, 57, 74
1, 32640, Note_on_c, 7, 58, 80
1, 32640, Note_on_c, 7, 62, 81
1, 32640, Note_on_c, 7, 69, 77
1, 32640, Note_on_c, 7, 55, 78
1, 33379, Note_on_c, 7, 58, 0
1, 33379, Note_on_c, 7, 62, 0
1, 33379, Note_on_c, 7, 69, 0
1, 33523, Note_on_c, 7, 55, 0
1, 33595, Note_on_c, 3, 62, 0
1, 33595, Note_on_c, 4, 43, 0
1, 33600, Note_on_c, 3, 69, 110
1, 33600, Note_on_c, 4, 48, 110
1, 33600, Note_on_c, 7, 69, 77
1, 33600, Note_on_c, 7, 64, 86
1, 33600, Note_on_c, 7, 60, 77
1, 33600, Note_on_c, 7, 57, 83
1, 34041, Note_on_c, 7, 69, 0
1, 34041, Note_on_c, 7, 64, 0
1, 34041, Note_on_c, 7, 60, 0
1, 34041, Note_on_c, 7, 57, 0
1, 34080, Note_on_c, 7, 67, 80
1, 34521, Note_on_c, 7, 67, 0
1, 34550, Note_on_c, 2, 69, 0
1, 34550, Note_on_c, 2, 74, 0
1, 34550, Note_on_c, 4, 57, 0
1, 34550, Control_c, 3, 11, 100
1, 34555, Note_on_c, 3, 69, 0
1, 34555, Note_on_c, 4, 48, 0
1, 34560, Note_on_c, 2, 69, 110
1, 34560, Note_on_c, 2, 65, 92
1, 34560, Note_on_c, 3, 62, 110
1, 34560, Note_on_c, 4, 46, 110
1, 34560, Note_on_c, 4, 58, 72
1, 34560, Note_on_c, 7, 46, 83
1, 34560, Note_on_c, 9, 36, 100
1, 34560, Note_on_c, 11, 74, 110
1, 34560, Control_c, 11, 11, 106
1, 34560, Note_on_c, 14, 40, 122
1, 34610, Control_c, 11, 11, 107
1, 34777, Note_on_c, 7, 46, 0
1, 34800, Note_on_c, 7, 50, 83
1, 34994, Note_on_c, 9, 36, 0
1, 34994, Note_on_c, 14, 40, 0
1, 35017, Note_on_c, 7, 50, 0
1, 35030, Note_on_c, 1, 96, 0
1, 35040, Note_on_c, 1, 96, 67
1, 35040, Note_on_c, 7, 58, 83
1, 35040, Note_on_c, 9, 36, 100
1, 35040, Note_on_c, 14, 40, 120
1, 35257, Note_on_c, 7, 58, 0
1, 35280, Note_on_c, 7, 62, 83
1, 35474, Note_on_c, 9, 36, 0
1, 35474, Note_on_c, 14, 40, 0
1, 35497, Note_on_c, 7, 62, 0
1, 35515, Note_on_c, 3, 62, 0
1, 35515, Note_on_c, 11, 74, 0
1, 35520, Note_on_c, 0, 54, 100
1, 35520, Note_on_c, 3, 64, 110
1, 35520, Note_on_c, 7, 65, 83
1, 35520, Note_on_c, 11, 76, 110
1, 35520, Note_on_c, 15, 79, 100
1, 35737, Note_on_c, 7, 65, 0
1, 35760, Note_on_c, 7, 62, 83
1, 35977, Note_on_c, 7, 62, 0
1, 35997, Note_on_c, 3, 64, 0
1, 35997, Note_on_c, 11, 76, 0
1, 36000, Note_on_c, 3, 65, 110
1, 36000, Note_on_c, 7, 58, 83
1, 36000, Note_on_c, 11, 77, 110
1, 36171, Note_on_c, 0, 54, 0
1, 36171, Note_on_c, 15, 79, 0
1, 36217, Note_on_c, 7, 58, 0
1, 36240, Note_on_c, 7, 53, 83
1, 36457, Note_on_c, 7, 53, 0
1, 36470, Note_on_c, 2, 69, 0
1, 36470, Note_on_c, 2, 65, 0
1, 36470, Note_on_c, 4, 46, 0
1, 36470, Note_on_c, 4, 58, 0
1, 36477, Note_on_c, 3, 65, 0
1, 36477, Note_on_c, 11, 77, 0
1, 36480, Note_on_c, 2, 69, 110
1, 36480, Note_on_c, 2, 65, 92
1, 36480, Note_on_c, 3, 64, 110
1, 36480, Note_on_c, 4, 50, 110
1, 36480, Note_on_c, 4, 62, 72
1, 36480, Note_on_c, 7, 50, 83
1, 36480, Note_on_c, 9, 36, 100
1, 36480, Note_on_c, 11, 76, 110
1, 36480, Note_on_c, 14, 40, 120
1, 36697, Note_on_c, 7, 50, 0
1, 36720, Note_on_c, 7, 57, 83
1, 36914, Note_on_c, 9, 36, 0
1, 36914, Note_on_c, 14, 40, 0
1, 36937, Note_on_c, 7, 57, 0
1, 36960, Note_on_c, 7, 62, 83
1, 36960, Note_on_c, 9, 36, 100
1, 36960, Note_on_c, 14, 40, 120
1, 37177, Note_on_c, 7, 62, 0
1, 37200, Note_on_c, 7, 67, 83
1, 37394, Note_on_c, 9, 36, 0
1, 37394, Note_on_c, 14, 40, 0
1, 37417, Note_on_c, 7, 67, 0
1, 37435, Note_on_c, 3, 64, 0
1, 37435, Note_on_c, 11, 76, 0
1, 37440, Note_on_c, 0, 54, 100
1, 37440, Note_on_c, 3, 65, 110
1, 37440, Note_on_c, 11, 77, 110
1, 37440, Note_on_c, 15, 79, 100
1, 37680, Note_on_c, 7, 67, 83
1, 37897, Note_on_c, 7, 67, 0
1, 37917, Note_on_c, 3, 65, 0
1, 37917, Note_on_c, 11, 77, 0
1, 37920, Note_on_c, 3, 67, 110
1, 37920, Note_on_c, 7, 62, 83
1, 37920, Note_on_c, 11, 79, 110
1, 38091, Note_on_c, 0, 54, 0
1, 38091, Note_on_c, 15, 79, 0
1, 38137, Note_on_c, 7, 62, 0
1, 38160, Note_on_c, 7, 57, 83
1, 38377, Note_on_c, 7, 57, 0
1, 38390, Note_on_c, 2, 69, 0
1, 38390, Note_on_c, 2, 65, 0
1, 38390, Note_on_c, 4, 50, 0
1, 38390, Note_on_c, 4, 62, 0
1, 38397, Note_on_c, 3, 67, 0
1, 38397, Note_on_c, 11, 79, 0
1, 38400, Note_on_c, 2, 69, 110
1, 38400, Note_on_c, 2, 65, 92
1, 38400, Note_on_c, 3, 69, 110
1, 38400, Note_on_c, 4, 46, 110
1, 38400, Note_on_c, 4, 58, 74
1, 38400, Note_on_c, 7, 46, 83
1, 38400, Note_on_c, 9, 36, 100
1, 38400, Note_on_c, 11, 81, 110
1, 38400, Note_on_c, 14, 40, 122
1, 38617, Note_on_c, 7, 46, 0
1, 38640, Note_on_c, 7, 50, 83
1, 38834, Note_on_c, 9, 36, 0
1, 38834, Note_on_c, 14, 40, 0
1, 38857, Note_on_c, 7, 50, 0
1, 38880, Note_on_c, 7, 58, 83
1, 38880, Note_on_c, 9, 36, 100
1, 38880, Note_on_c, 14, 40, 120
1, 39097, Note_on_c, 7, 58, 0
1, 39120, Note_on_c, 7, 62, 83
1, 39314, Note_on_c, 9, 36, 0
1, 39314, Note_on_c, 14, 40, 0
1, 39337, Note_on_c, 7, 62, 0
1, 39355, Note_on_c, 3, 69, 0
1, 39355, Note_on_c, 11, 81, 0
1, 39360, Note_on_c, 0, 54, 100
1, 39360, Note_on_c, 3, 67, 110
1, 39360, Note_on_c, 7, 65, 83
1, 39360, Note_on_c, 11, 79, 110
1, 39360, Note_on_c, 15, 79, 100
1, 39577, Note_on_c, 7, 65, 0
1, 39600, Note_on_c, 7, 62, 83
1, 39811, Note_on_c, 1, 96, 0
1, 39817, Note_on_c, 7, 62, 0
1, 39840, Note_on_c, 1, 96, 78
1, 39840, Note_on_c, 7, 58, 83
1, 40011, Note_on_c, 0, 54, 0
1, 40011, Note_on_c, 15, 79, 0
1, 40057, Note_on_c, 7, 58, 0
1, 40080, Note_on_c, 7, 53, 83
1, 40297, Note_on_c, 7, 53, 0
1, 40310, Note_on_c, 2, 69, 0
1, 40310, Note_on_c, 2, 65, 0
1, 40310, Note_on_c, 4, 46, 0
1, 40310, Note_on_c, 4, 58, 0
1, 40315, Note_on_c, 3, 67, 0
1, 40315, Note_on_c, 11, 79, 0
1, 40320, Note_on_c, 2, 72, 110
1, 40320, Note_on_c, 2, 69, 92
1, 40320, Note_on_c, 3, 65, 110
1, 40320, Note_on_c, 4, 50, 110
1, 40320, Note_on_c, 4, 62, 74
1, 40320, Note_on_c, 7, 50, 83
1, 40320, Note_on_c, 9, 36, 100
1, 40320, Note_on_c, 11, 77, 110
1, 40320, Note_on_c, 14, 40, 120
1, 40537, Note_on_c, 7, 50, 0
1, 40560, Note_on_c, 7, 57, 83
1, 40754, Note_on_c, 9, 36, 0
1, 40754, Note_on_c, 14, 40, 0
1, 40777, Note_on_c, 7, 57, 0
1, 40797, Note_on_c, 3, 65, 0
1, 40797, Note_on_c, 11, 77, 0
1, 40800, Note_on_c, 3, 64, 110
1, 40800, Note_on_c, 7, 62, 83
1, 40800, Note_on_c, 9, 36, 100
1, 40800, Note_on_c, 11, 76, 110
1, 40800, Note_on_c, 14, 40, 120
1, 41017, Note_on_c, 7, 62, 0
1, 41040, Note_on_c, 7, 67, 83
1, 41234, Note_on_c, 9, 36, 0
1, 41234, Note_on_c, 14, 40, 0
1, 41275, Note_on_c, 2, 69, 0
1, 41275, Note_on_c, 4, 50, 0
1, 41275, Note_on_c, 4, 62, 0
1, 41277, Note_on_c, 3, 64, 0
1, 41277, Note_on_c, 11, 76, 0
1, 41280, Note_on_c, 0, 54, 100
1, 41280, Note_on_c, 2, 67, 92
1, 41280, Note_on_c, 3, 62, 110
1, 41280, Note_on_c, 4, 48, 110
1, 41280, Note_on_c, 4, 60, 74
1, 41280, Note_on_c, 11, 74, 110
1, 41280, Note_on_c, 15, 79, 100
1, 41406, Note_on_c, 7, 67, 0
1, 41520, Note_on_c, 7, 53, 83
1, 41737, Note_on_c, 7, 53, 0
1, 41752, Note_on_c, 2, 72, 0
1, 41757, Note_on_c, 2, 67, 0
1, 41757, Note_on_c, 3, 62, 0
1, 41757, Note_on_c, 4, 48, 0
1, 41757, Note_on_c, 4, 60, 0
1, 41757, Note_on_c, 11, 74, 0
1, 41760, Note_on_c, 2, 77, 110
1, 41760, Note_on_c, 2, 69, 92
1, 41760, Note_on_c, 3, 57, 110
1, 41760, Note_on_c, 4, 41, 110
1, 41760, Note_on_c, 4, 55, 74
1, 41760, Note_on_c, 7, 57, 83
1, 41760, Note_on_c, 11, 69, 110
1, 41931, Note_on_c, 0, 54, 0
1, 41931, Note_on_c, 15, 79, 0
1, 41977, Note_on_c, 7, 57, 0
1, 42000, Note_on_c, 7, 62, 83
1, 42202, Note_on_c, 1, 96, 0
1, 42217, Note_on_c, 7, 62, 0
1, 42237, Note_on_c, 2, 77, 0
1, 42237, Note_on_c, 2, 69, 0
1, 42237, Note_on_c, 3, 57, 0
1, 42237, Note_on_c, 4, 41, 0
1, 42237, Note_on_c, 4, 55, 0
1, 42237, Note_on_c, 11, 69, 0
1, 42240, Note_on_c, 1, 96, 65
1, 42240, Note_on_c, 2, 69, 110
1, 42240, Note_on_c, 2, 77, 74
1, 42240, Note_on_c, 3, 62, 110
1, 42240, Control_c, 3, 11, 106
1, 42240, Note_on_c, 4, 46, 110
1, 42240, Note_on_c, 4, 58, 74
1, 42240, Note_on_c, 7, 46, 83
1, 42240, Note_on_c, 9, 36, 100
1, 42240, Note_on_c, 11, 74, 110
1, 42240, Control_c, 11, 11, 106
1, 42240, Note_on_c, 14, 40, 122
1, 42290, Control_c, 3, 11, 107
1, 42290, Control_c, 11, 11, 107
1, 42457, Note_on_c, 7, 46, 0
1, 42480, Note_on_c, 7, 50, 83
1, 42674, Note_on_c, 9, 36, 0
1, 42674, Note_on_c, 14, 40, 0
1, 42697, Note_on_c, 7, 50, 0
1, 42720, Note_on_c, 7, 58, 83
1, 42720, Note_on_c, 9, 36, 100
1, 42720, Note_on_c, 14, 40, 120
1, 42937, Note_on_c, 7, 58, 0
1, 42960, Note_on_c, 7, 62, 83
1, 43154, Note_on_c, 9, 36, 0
1, 43154, Note_on_c, 14, 40, 0
1, 43177, Note_on_c, 7, 62, 0
1, 43195, Note_on_c, 3, 62, 0
1, 43195, Note_on_c, 11, 74, 0
1, 43200, Note_on_c, 0, 54, 100
1, 43200, Note_on_c, 3, 64, 110
1, 43200, Note_on_c, 7, 65, 83
1, 43200, Note_on_c, 11, 76, 110
1, 43200, Note_on_c, 15, 79, 100
1, 43417, Note_on_c, 7, 65, 0
1, 43440, Note_on_c, 7, 62, 83
1, 43657, Note_on_c, 7, 62, 0
1, 43677, Note_on_c, 3, 64, 0
1, 43677, Note_on_c, 11, 76, 0
1, 43680, Note_on_c, 3, 65, 110
1, 43680, Note_on_c, 7, 58, 83
1, 43680, Note_on_c, 11, 77, 110
1, 43851, Note_on_c, 0, 54, 0
1, 43851, Note_on_c, 15, 79, 0
1, 43897, Note_on_c, 7, 58, 0
1, 43920, Note_on_c, 7, 53, 83
1, 44137, Note_on_c, 7, 53, 0
1, 44150, Note_on_c, 2, 69, 0
1, 44150, Note_on_c, 2, 77, 0
1, 44150, Note_on_c, 4, 46, 0
1, 44150, Note_on_c, 4, 58, 0
1, 44157, Note_on_c, 3, 65, 0
1, 44157, Note_on_c, 11, 77, 0
1, 44160, Note_on_c, 2, 69, 110
1, 44160, Note_on_c, 2, 76, 71
1, 44160, Note_on_c, 3, 64, 110
1, 44160, Note_on_c, 4, 48, 110
1, 44160, Note_on_c, 4, 60, 74
1, 44160, Note_on_c, 7, 48, 83
1, 44160, Note_on_c, 9, 36, 100
1, 44160, Note_on_c, 11, 76, 110
1, 44160, Note_on_c, 14, 40, 120
1, 44377, Note_on_c, 7, 48, 0
1, 44400, Note_on_c, 7, 55, 83
1, 44594, Note_on_c, 9, 36, 0
1, 44594, Note_on_c, 14, 40, 0
1, 44617, Note_on_c, 7, 55, 0
1, 44640, Note_on_c, 7, 58, 83
1, 44640, Note_on_c, 9, 36, 100
1, 44640, Note_on_c, 14, 40, 120
1, 44857, Note_on_c, 7, 58, 0
1, 44880, Note_on_c, 7, 62, 83
1, 45074, Note_on_c, 9, 36, 0
1, 45074, Note_on_c, 14, 40, 0
1, 45097, Note_on_c, 7, 62, 0
1, 45101, Note_on_c, 1, 96, 0
1, 45115, Note_on_c, 3, 64, 0
1, 45115, Note_on_c, 11, 76, 0
1, 45120, Note_on_c, 0, 54, 100
1, 45120, Note_on_c, 1, 96, 70
1, 45120, Note_on_c, 3, 65, 110
1, 45120, Note_on_c, 7, 65, 83
1, 45120, Note_on_c, 11, 77, 110
1, 45120, Note_on_c, 15, 79, 100
1, 45337, Note_on_c, 7, 65, 0
1, 45360, Note_on_c, 7, 62, 83
1, 45577, Note_on_c, 7, 62, 0
1, 45597, Note_on_c, 3, 65, 0
1, 45597, Note_on_c, 11, 77, 0
1, 45600, Note_on_c, 3, 67, 110
1, 45600, Note_on_c, 7, 58, 83
1, 45600, Note_on_c, 11, 79, 110
1, 45771, Note_on_c, 0, 54, 0
1, 45771, Note_on_c, 15, 79, 0
1, 45817, Note_on_c, 7, 58, 0
1, 45840, Note_on_c, 7, 55, 83
1, 46057, Note_on_c, 7, 55, 0
1, 46070, Note_on_c, 2, 69, 0
1, 46070, Note_on_c, 2, 76, 0
1, 46070, Note_on_c, 4, 48, 0
1, 46070, Note_on_c, 4, 60, 0
1, 46077, Note_on_c, 3, 67, 0
1, 46077, Note_on_c, 11, 79, 0
1, 46080, Note_on_c, 2, 69, 110
1, 46080, Note_on_c, 2, 74, 73
1, 46080, Note_on_c, 3, 69, 110
1, 46080, Note_on_c, 4, 47, 110
1, 46080, Note_on_c, 4, 62, 74
1, 46080, Note_on_c, 7, 47, 83
1, 46080, Note_on_c, 9, 36, 100
1, 46080, Note_on_c, 11, 81, 110
1, 46080, Note_on_c, 14, 40, 122
1, 46297, Note_on_c, 7, 47, 0
1, 46320, Note_on_c, 7, 50, 83
1, 46514, Note_on_c, 9, 36, 0
1, 46514, Note_on_c, 14, 40, 0
1, 46537, Note_on_c, 7, 50, 0
1, 46560, Note_on_c, 7, 57, 83
1, 46560, Note_on_c, 9, 36, 100
1, 46560, Note_on_c, 14, 40, 120
1, 46777, Note_on_c, 7, 57, 0
1, 46800, Note_on_c, 7, 62, 83
1, 46994, Note_on_c, 9, 36, 0
1, 46994, Note_on_c, 14, 40, 0
1, 47017, Note_on_c, 7, 62, 0
1, 47040, Note_on_c, 0, 54, 100
1, 47040, Note_on_c, 7, 65, 83
1, 47040, Note_on_c, 15, 79, 100
1, 47257, Note_on_c, 7, 65, 0
1, 47280, Note_on_c, 7, 62, 83
1, 47497, Note_on_c, 7, 62, 0
1, 47520, Note_on_c, 7, 57, 83
1, 47691, Note_on_c, 0, 54, 0
1, 47691, Note_on_c, 15, 79, 0
1, 47737, Note_on_c, 7, 57, 0
1, 47760, Note_on_c, 7, 50, 83
1, 47977, Note_on_c, 7, 50, 0
1, 47990, Note_on_c, 2, 69, 0
1, 47990, Note_on_c, 2, 74, 0
1, 47990, Note_on_c, 3, 69, 0
1, 47990, Note_on_c, 4, 47, 0
1, 47990, Note_on_c, 4, 62, 0
1, 47990, Note_on_c, 11, 81, 0
1, 48000, Note_on_c, 2, 69, 110
1, 48000, Note_on_c, 2, 74, 73
1, 48000, Note_on_c, 3, 62, 110
1, 48000, Note_on_c, 4, 43, 109
1, 48000, Note_on_c, 4, 57, 74
1, 48000, Note_on_c, 7, 46, 83
1, 48000, Note_on_c, 9, 36, 100
1, 48000, Note_on_c, 11, 74, 110
1, 48000, Note_on_c, 14, 40, 120
1, 48217, Note_on_c, 7, 46, 0
1, 48240, Note_on_c, 7, 50, 83
1, 48434, Note_on_c, 9, 36, 0
1, 48434, Note_on_c, 14, 40, 0
1, 48457, Note_on_c, 7, 50, 0
1, 48470, Note_on_c, 1, 96, 0
1, 48480, Note_on_c, 1, 96, 67
1, 48480, Note_on_c, 7, 53, 83
1, 48480, Note_on_c, 9, 36, 100
1, 48480, Note_on_c, 14, 40, 120
1, 48697, Note_on_c, 7, 53, 0
1, 48720, Note_on_c, 7, 58, 83
1, 48914, Note_on_c, 9, 36, 0
1, 48914, Note_on_c, 14, 40, 0
1, 48937, Note_on_c, 7, 58, 0
1, 48941, Note_on_c, 4, 43, 0
1, 48955, Note_on_c, 3, 62, 0
1, 48955, Note_on_c, 11, 74, 0
1, 48960, Note_on_c, 0, 54, 100
1, 48960, Note_on_c, 3, 69, 110
1, 48960, Note_on_c, 4, 48, 109
1, 48960, Note_on_c, 7, 48, 83
1, 48960, Note_on_c, 11, 81, 110
1, 48960, Note_on_c, 15, 79, 100
1, 49177, Note_on_c, 7, 48, 0
1, 49200, Note_on_c, 7, 55, 83
1, 49417, Note_on_c, 7, 55, 0
1, 49440, Note_on_c, 7, 60, 83
1, 49611, Note_on_c, 0, 54, 0
1, 49611, Note_on_c, 15, 79, 0
1, 49657, Note_on_c, 7, 60, 0
1, 49680, Note_on_c, 7, 67, 83
1, 49897, Note_on_c, 7, 67, 0
1, 49901, Note_on_c, 4, 48, 0
1, 49910, Note_on_c, 2, 69, 0
1, 49910, Note_on_c, 2, 74, 0
1, 49910, Note_on_c, 4, 57, 0
1, 49915, Note_on_c, 3, 69, 0
1, 49915, Note_on_c, 11, 81, 0
1, 49920, Note_on_c, 2, 65, 77
1, 49920, Note_on_c, 2, 69, 109
1, 49920, Note_on_c, 4, 58, 77
1, 49920, Note_on_c, 4, 46, 110
1, 49920, Note_on_c, 7, 69, 80
1, 49920, Control_c, 7, 11, 118
1, 49920, Note_on_c, 12, 69, 80
1, 49950, Control_c, 7, 11, 118
1, 49980, Control_c, 7, 11, 118
1, 50010, Control_c, 7, 11, 118
1, 50040, Control_c, 7, 11, 118
1, 50070, Control_c, 7, 11, 118
1, 50100, Control_c, 7, 11, 118
1, 50130, Control_c, 7, 11, 118
1, 50160, Control_c, 7, 11, 118
1, 50190, Control_c, 7, 11, 118
1, 50220, Control_c, 7, 11, 118
1, 50250, Control_c, 7, 11, 118
1, 50280, Control_c, 7, 11, 118
1, 50310, Control_c, 7, 11, 118
1, 50340, Control_c, 7, 11, 118
1, 50370, Control_c, 7, 11, 118
1, 50390, Note_on_c, 7, 69, 0
1, 50390, Note_on_c, 12, 69, 0
1, 50400, Note_on_c, 7, 72, 100
1, 50400, Control_c, 7, 11, 118
1, 50400, Note_on_c, 12, 72, 100
1, 50430, Control_c, 7, 11, 118
1, 50460, Control_c, 7, 11, 118
1, 50490, Control_c, 7, 11, 118
1, 50520, Control_c, 7, 11, 118
1, 50550, Control_c, 7, 11, 118
1, 50580, Control_c, 7, 11, 118
1, 50610, Control_c, 7, 11, 118
1, 50640, Control_c, 7, 11, 118
1, 50670, Control_c, 7, 11, 118
1, 50700, Control_c, 7, 11, 118
1, 50730, Control_c, 7, 11, 118
1, 50760, Control_c, 7, 11, 118
1, 50790, Control_c, 7, 11, 118
1, 50820, Control_c, 7, 11, 118
1, 50850, Control_c, 7, 11, 118
1, 50870, Note_on_c, 7, 72, 0
1, 50870, Note_on_c, 12, 72, 0
1, 50880, Note_on_c, 7, 67, 83
1, 50880, Control_c, 7, 11, 118
1, 50880, Note_on_c, 12, 67, 83
1, 50910, Control_c, 7, 11, 118
1, 50940, Control_c, 7, 11, 118
1, 50970, Control_c, 7, 11, 118
1, 51000, Control_c, 7, 11, 118
1, 51030, Control_c, 7, 11, 118
1, 51060, Control_c, 7, 11, 118
1, 51090, Control_c, 7, 11, 118
1, 51120, Control_c, 7, 11, 118
1, 51150, Control_c, 7, 11, 118
1, 51180, Control_c, 7, 11, 118
1, 51210, Control_c, 7, 11, 118
1, 51240, Control_c, 7, 11, 118
1, 51270, Control_c, 7, 11, 118
1, 51300, Control_c, 7, 11, 118
1, 51330, Control_c, 7, 11, 118
1, 51360, Control_c, 7, 11, 118
1, 51390, Control_c, 7, 11, 118
1, 51420, Control_c, 7, 11, 118
1, 51450, Control_c, 7, 11, 118
1, 51480, Control_c, 7, 11, 118
1, 51510, Control_c, 7, 11, 118
1, 51540, Control_c, 7, 11, 118
1, 51570, Control_c, 7, 11, 118
1, 51600, Control_c, 7, 11, 118
1, 51630, Control_c, 7, 11, 118
1, 51660, Control_c, 7, 11, 118
1, 51690, Control_c, 7, 11, 118
1, 51720, Control_c, 7, 11, 118
1, 51750, Control_c, 7, 11, 118
1, 51780, Control_c, 7, 11, 118
1, 51802, Note_on_c, 2, 65, 0
1, 51802, Note_on_c, 4, 58, 0
1, 51802, Note_on_c, 4, 46, 0
1, 51810, Control_c, 7, 11, 118
1, 51821, Note_on_c, 7, 67, 0
1, 51821, Note_on_c, 12, 67, 0
1, 51840, Note_on_c, 2, 64, 78
1, 51840, Note_on_c, 4, 60, 77
1, 51840, Note_on_c, 4, 48, 110
1, 51840, Note_on_c, 7, 69, 96
1, 51840, Control_c, 7, 11, 118
1, 51840, Note_on_c, 12, 69, 96
1, 51870, Control_c, 7, 11, 118
1, 51900, Control_c, 7, 11, 118
1, 51930, Control_c, 7, 11, 118
1, 51960, Control_c, 7, 11, 118
1, 51990, Control_c, 7, 11, 118
1, 52020, Control_c, 7, 11, 118
1, 52050, Control_c, 7, 11, 118
1, 52080, Control_c, 7, 11, 118
1, 52110, Control_c, 7, 11, 118
1, 52140, Control_c, 7, 11, 118
1, 52170, Control_c, 7, 11, 118
1, 52200, Control_c, 7, 11, 118
1, 52230, Control_c, 7, 11, 118
1, 52310, Note_on_c, 7, 69, 0
1, 52310, Note_on_c, 12, 69, 0
1, 52320, Note_on_c, 7, 67, 86
1, 52320, Note_on_c, 12, 67, 86
1, 52555, Note_on_c, 7, 67, 0
1, 52555, Note_on_c, 12, 67, 0
1, 52560, Note_on_c, 7, 65, 78
1, 52560, Note_on_c, 12, 65, 78
1, 52795, Note_on_c, 7, 65, 0
1, 52795, Note_on_c, 12, 65, 0
1, 52800, Note_on_c, 7, 62, 74
1, 52800, Note_on_c, 12, 62, 74
1, 53035, Note_on_c, 7, 62, 0
1, 53035, Note_on_c, 12, 62, 0
1, 53040, Note_on_c, 7, 65, 80
1, 53040, Note_on_c, 12, 65, 80
1, 53251, Note_on_c, 1, 96, 0
1, 53280, Note_on_c, 1, 96, 68
1, 53515, Note_on_c, 7, 65, 0
1, 53515, Note_on_c, 12, 65, 0
1, 53520, Note_on_c, 7, 67, 79
1, 53520, Note_on_c, 12, 67, 79
1, 53722, Note_on_c, 2, 64, 0
1, 53722, Note_on_c, 4, 60, 0
1, 53722, Note_on_c, 4, 48, 0
1, 53755, Note_on_c, 7, 67, 0
1, 53755, Note_on_c, 12, 67, 0
1, 53760, Note_on_c, 2, 65, 76
1, 53760, Note_on_c, 4, 58, 77
1, 53760, Note_on_c, 4, 46, 110
1, 53760, Note_on_c, 7, 69, 86
1, 53760, Note_on_c, 12, 69, 86
1, 54230, Note_on_c, 7, 69, 0
1, 54230, Note_on_c, 12, 69, 0
1, 54240, Note_on_c, 7, 72, 94
1, 54240, Note_on_c, 12, 72, 94
1, 54710, Note_on_c, 7, 72, 0
1, 54710, Note_on_c, 12, 72, 0
1, 54720, Note_on_c, 7, 67, 86
1, 54720, Note_on_c, 12, 67, 86
1, 55426, Note_on_c, 7, 67, 0
1, 55426, Note_on_c, 12, 67, 0
1, 55440, Note_on_c, 7, 65, 89
1, 55440, Note_on_c, 12, 65, 89
1, 55558, Note_on_c, 7, 65, 0
1, 55558, Note_on_c, 12, 65, 0
1, 55560, Note_on_c, 7, 64, 81
1, 55560, Note_on_c, 12, 64, 81
1, 55642, Note_on_c, 2, 65, 0
1, 55642, Note_on_c, 2, 69, 0
1, 55642, Note_on_c, 4, 58, 0
1, 55642, Note_on_c, 4, 46, 0
1, 55642, Note_on_c, 1, 96, 0
1, 55678, Note_on_c, 7, 64, 0
1, 55678, Note_on_c, 12, 64, 0
1, 55680, Note_on_c, 1, 96, 65
1, 55680, Note_on_c, 2, 65, 77
1, 55680, Note_on_c, 2, 72, 109
1, 55680, Note_on_c, 4, 62, 77
1, 55680, Note_on_c, 4, 50, 110
1, 55680, Note_on_c, 7, 62, 104
1, 55680, Note_on_c, 12, 62, 104
1, 56621, Note_on_c, 2, 65, 0
1, 56621, Note_on_c, 2, 72, 0
1, 56621, Note_on_c, 4, 62, 0
1, 56621, Note_on_c, 4, 50, 0
1, 56640, Note_on_c, 2, 62, 77
1, 56640, Note_on_c, 2, 72, 110
1, 56640, Note_on_c, 4, 60, 77
1, 56640, Note_on_c, 4, 48, 110
1, 56875, Note_on_c, 7, 62, 0
1, 56875, Note_on_c, 12, 62, 0
1, 57096, Note_on_c, 2, 62, 0
1, 57106, Note_on_c, 4, 60, 0
1, 57110, Note_on_c, 2, 72, 0
1, 57110, Note_on_c, 4, 48, 0
1, 57120, Note_on_c, 2, 65, 77
1, 57120, Note_on_c, 2, 77, 110
1, 57120, Note_on_c, 4, 53, 77
1, 57120, Note_on_c, 4, 41, 110
1, 57120, Note_on_c, 7, 65, 82
1, 57120, Note_on_c, 12, 65, 82
1, 57355, Note_on_c, 7, 65, 0
1, 57355, Note_on_c, 12, 65, 0
1, 57360, Note_on_c, 7, 67, 88
1, 57360, Note_on_c, 12, 67, 88
1, 57576, Note_on_c, 4, 53, 0
1, 57590, Note_on_c, 2, 65, 0
1, 57590, Note_on_c, 2, 77, 0
1, 57590, Note_on_c, 4, 41, 0
1, 57595, Note_on_c, 7, 67, 0
1, 57595, Note_on_c, 12, 67, 0
1, 57600, Note_on_c, 2, 65, 79
1, 57600, Note_on_c, 2, 69, 110
1, 57600, Note_on_c, 4, 57, 79
1, 57600, Note_on_c, 4, 46, 110
1, 57600, Note_on_c, 7, 69, 104
1, 57600, Note_on_c, 11, 69, 104
1, 57600, Note_on_c, 12, 69, 104
1, 58070, Note_on_c, 7, 69, 0
1, 58070, Note_on_c, 11, 69, 0
1, 58070, Note_on_c, 12, 69, 0
1, 58080, Note_on_c, 7, 72, 100
1, 58080, Note_on_c, 11, 72, 100
1, 58080, Note_on_c, 12, 72, 100
1, 58541, Note_on_c, 1, 96, 0
1, 58550, Note_on_c, 7, 72, 0
1, 58550, Note_on_c, 11, 72, 0
1, 58550, Note_on_c, 12, 72, 0
1, 58560, Note_on_c, 1, 96, 68
1, 58560, Note_on_c, 7, 67, 89
1, 58560, Note_on_c, 11, 67, 89
1, 58560, Note_on_c, 12, 67, 89
1, 59482, Note_on_c, 2, 65, 0
1, 59482, Note_on_c, 4, 57, 0
1, 59482, Note_on_c, 4, 46, 0
1, 59501, Note_on_c, 7, 67, 0
1, 59501, Note_on_c, 11, 67, 0
1, 59501, Note_on_c, 12, 67, 0
1, 59520, Note_on_c, 2, 64, 79
1, 59520, Note_on_c, 4, 55, 79
1, 59520, Note_on_c, 4, 48, 110
1, 59520, Note_on_c, 7, 69, 100
1, 59520, Note_on_c, 11, 69, 100
1, 59520, Note_on_c, 12, 69, 100
1, 59990, Note_on_c, 7, 69, 0
1, 59990, Note_on_c, 11, 69, 0
1, 59990, Note_on_c, 12, 69, 0
1, 60000, Note_on_c, 7, 67, 91
1, 60000, Note_on_c, 11, 67, 91
1, 60000, Note_on_c, 12, 67, 91
1, 60235, Note_on_c, 7, 67, 0
1, 60235, Note_on_c, 11, 67, 0
1, 60235, Note_on_c, 12, 67, 0
1, 60240, Note_on_c, 7, 65, 85
1, 60240, Note_on_c, 11, 65, 85
1, 60240, Note_on_c, 12, 65, 85
1, 60475, Note_on_c, 7, 65, 0
1, 60475, Note_on_c, 11, 65, 0
1, 60475, Note_on_c, 12, 65, 0
1, 60480, Note_on_c, 7, 62, 75
1, 60480, Note_on_c, 11, 62, 75
1, 60480, Note_on_c, 12, 62, 75
1, 60715, Note_on_c, 7, 62, 0
1, 60715, Note_on_c, 11, 62, 0
1, 60715, Note_on_c, 12, 62, 0
1, 60720, Note_on_c, 7, 65, 81
1, 60720, Note_on_c, 11, 65, 81
1, 60720, Note_on_c, 12, 65, 81
1, 61195, Note_on_c, 7, 65, 0
1, 61195, Note_on_c, 11, 65, 0
1, 61195, Note_on_c, 12, 65, 0
1, 61200, Note_on_c, 7, 67, 100
1, 61200, Note_on_c, 11, 67, 100
1, 61200, Note_on_c, 12, 67, 100
1, 61402, Note_on_c, 2, 64, 0
1, 61402, Note_on_c, 4, 55, 0
1, 61402, Note_on_c, 4, 48, 0
1, 61435, Note_on_c, 7, 67, 0
1, 61435, Note_on_c, 11, 67, 0
1, 61435, Note_on_c, 12, 67, 0
1, 61440, Note_on_c, 2, 65, 79
1, 61440, Note_on_c, 4, 57, 79
1, 61440, Note_on_c, 4, 47, 110
1, 61440, Note_on_c, 7, 69, 100
1, 61440, Note_on_c, 11, 69, 100
1, 61440, Note_on_c, 12, 69, 100
1, 61910, Note_on_c, 1, 96, 0
1, 61910, Note_on_c, 7, 69, 0
1, 61910, Note_on_c, 11, 69, 0
1, 61910, Note_on_c, 12, 69, 0
1, 61920, Note_on_c, 1, 96, 77
1, 61920, Note_on_c, 7, 72, 100
1, 61920, Note_on_c, 11, 72, 100
1, 61920, Note_on_c, 12, 72, 100
1, 62390, Note_on_c, 7, 72, 0
1, 62390, Note_on_c, 11, 72, 0
1, 62390, Note_on_c, 12, 72, 0
1, 62400, Note_on_c, 7, 76, 108
1, 62400, Note_on_c, 11, 76, 108
1, 62400, Note_on_c, 12, 76, 108
1, 62870, Note_on_c, 7, 76, 0
1, 62870, Note_on_c, 11, 76, 0
1, 62870, Note_on_c, 12, 76, 0
1, 62880, Note_on_c, 7, 72, 105
1, 62880, Note_on_c, 11, 72, 105
1, 62880, Note_on_c, 12, 72, 105
1, 63322, Note_on_c, 2, 65, 0
1, 63322, Note_on_c, 4, 57, 0
1, 63322, Note_on_c, 4, 47, 0
1, 63350, Note_on_c, 7, 72, 0
1, 63350, Note_on_c, 11, 72, 0
1, 63350, Note_on_c, 12, 72, 0
1, 63360, Note_on_c, 2, 62, 76
1, 63360, Note_on_c, 4, 58, 77
1, 63360, Note_on_c, 4, 43, 111
1, 63360, Note_on_c, 7, 74, 102
1, 63360, Note_on_c, 11, 74, 102
1, 63360, Note_on_c, 12, 74, 102
1, 64301, Note_on_c, 2, 62, 0
1, 64301, Note_on_c, 4, 58, 0
1, 64301, Note_on_c, 4, 43, 0
1, 64320, Note_on_c, 2, 64, 76
1, 64320, Note_on_c, 4, 60, 77
1, 64320, Note_on_c, 4, 48, 111
1, 64800, Note_on_c, 9, 49, 26
1, 64800, Note_on_c, 13, 48, 63
1, 64810, Note_on_c, 9, 49, 0
1, 64859, Note_on_c, 13, 48, 0
1, 64860, Note_on_c, 9, 49, 38
1, 64860, Note_on_c, 13, 48, 69
1, 64870, Note_on_c, 9, 49, 0
1, 64919, Note_on_c, 13, 48, 0
1, 64920, Note_on_c, 9, 49, 49
1, 64920, Note_on_c, 13, 48, 75
1, 64930, Note_on_c, 9, 49, 0
1, 64954, Note_on_c, 7, 74, 0
1, 64954, Note_on_c, 11, 74, 0
1, 64954, Note_on_c, 12, 74, 0
1, 64979, Note_on_c, 13, 48, 0
1, 64980, Note_on_c, 9, 49, 60
1, 64980, Note_on_c, 13, 48, 81
1, 64990, Note_on_c, 9, 49, 0
1, 65039, Note_on_c, 13, 48, 0
1, 65040, Note_on_c, 9, 49, 72
1, 65040, Note_on_c, 13, 48, 87
1, 65050, Note_on_c, 9, 49, 0
1, 65099, Note_on_c, 13, 48, 0
1, 65100, Note_on_c, 9, 49, 83
1, 65100, Note_on_c, 13, 48, 94
1, 65110, Note_on_c, 9, 49, 0
1, 65159, Note_on_c, 13, 48, 0
1, 65160, Note_on_c, 9, 49, 94
1, 65160, Note_on_c, 13, 48, 100
1, 65170, Note_on_c, 9, 49, 0
1, 65219, Note_on_c, 13, 48, 0
1, 65220, Note_on_c, 9, 49, 100
1, 65220, Note_on_c, 13, 48, 100
1, 65230, Note_on_c, 9, 49, 0
1, 65242, Note_on_c, 2, 69, 0
1, 65261, Note_on_c, 2, 64, 0
1, 65261, Note_on_c, 4, 60, 0
1, 65261, Note_on_c, 4, 48, 0
1, 65279, Note_on_c, 13, 48, 0
1, 65280, Note_on_c, 2, 65, 77
1, 65280, Note_on_c, 2, 69, 109
1, 65280, Note_on_c, 4, 53, 77
1, 65280, Note_on_c, 4, 46, 110
1, 65280, Note_on_c, 7, 62, 80
1, 65280, Note_on_c, 7, 57, 92
1, 65280, Note_on_c, 7, 65, 103
1, 65280, Control_c, 7, 10, 33
1, 65280, Note_on_c, 9, 36, 100
1, 65280, Note_on_c, 9, 49, 110
1, 65280, Note_on_c, 11, 69, 80
1, 65280, Note_on_c, 12, 69, 80
1, 65280, Note_on_c, 13, 45, 110
1, 65280, Note_on_c, 14, 40, 122
1, 65290, Note_on_c, 9, 36, 0
1, 65290, Note_on_c, 9, 49, 0
1, 65309, Note_on_c, 7, 62, 0
1, 65309, Note_on_c, 7, 57, 0
1, 65309, Note_on_c, 7, 65, 0
1, 65310, Control_c, 7, 10, 33
1, 65340, Control_c, 7, 10, 33
1, 65520, Note_on_c, 7, 65, 103
1, 65520, Note_on_c, 7, 57, 91
1, 65520, Note_on_c, 7, 62, 80
1, 65549, Note_on_c, 7, 65, 0
1, 65549, Note_on_c, 7, 57, 0
1, 65549, Note_on_c, 7, 62, 0
1, 65714, Note_on_c, 14, 40, 0
1, 65750, Note_on_c, 11, 69, 0
1, 65750, Note_on_c, 12, 69, 0
1, 65750, Note_on_c, 13, 45, 0
1, 65760, Note_on_c, 7, 65, 103
1, 65760, Note_on_c, 7, 57, 93
1, 65760, Note_on_c, 7, 62, 80
1, 65760, Note_on_c, 9, 36, 100
1, 65760, Note_on_c, 11, 72, 100
1, 65760, Note_on_c, 12, 72, 100
1, 65760, Note_on_c, 14, 40, 120
1, 65770, Note_on_c, 9, 36, 0
1, 65789, Note_on_c, 7, 65, 0
1, 65789, Note_on_c, 7, 57, 0
1, 65789, Note_on_c, 7, 62, 0
1, 66000, Note_on_c, 7, 65, 103
1, 66000, Note_on_c, 7, 57, 94
1, 66000, Note_on_c, 7, 62, 80
1, 66029, Note_on_c, 7, 65, 0
1, 66029, Note_on_c, 7, 57, 0
1, 66029, Note_on_c, 7, 62, 0
1, 66194, Note_on_c, 14, 40, 0
1, 66230, Note_on_c, 11, 72, 0
1, 66230, Note_on_c, 12, 72, 0
1, 66240, Note_on_c, 0, 54, 100
1, 66240, Note_on_c, 7, 65, 103
1, 66240, Note_on_c, 7, 57, 93
1, 66240, Note_on_c, 7, 62, 80
1, 66240, Note_on_c, 11, 67, 83
1, 66240, Note_on_c, 12, 67, 83
1, 66240, Note_on_c, 15, 79, 100
1, 66269, Note_on_c, 7, 65, 0
1, 66269, Note_on_c, 7, 57, 0
1, 66269, Note_on_c, 7, 62, 0
1, 66480, Note_on_c, 7, 65, 103
1, 66480, Note_on_c, 7, 57, 95
1, 66480, Note_on_c, 7, 62, 80
1, 66509, Note_on_c, 7, 65, 0
1, 66509, Note_on_c, 7, 57, 0
1, 66509, Note_on_c, 7, 62, 0
1, 66691, Note_on_c, 1, 96, 0
1, 66720, Note_on_c, 1, 96, 68
1, 66720, Note_on_c, 7, 65, 103
1, 66720, Note_on_c, 7, 57, 93
1, 66720, Note_on_c, 7, 62, 80
1, 66720, Note_on_c, 13, 46, 110
1, 66749, Note_on_c, 7, 65, 0
1, 66749, Note_on_c, 7, 57, 0
1, 66749, Note_on_c, 7, 62, 0
1, 66891, Note_on_c, 0, 54, 0
1, 66891, Note_on_c, 15, 79, 0
1, 66960, Note_on_c, 7, 65, 103
1, 66960, Note_on_c, 7, 57, 93
1, 66960, Note_on_c, 7, 62, 80
1, 66989, Note_on_c, 7, 65, 0
1, 66989, Note_on_c, 7, 57, 0
1, 66989, Note_on_c, 7, 62, 0
1, 67162, Note_on_c, 2, 65, 0
1, 67162, Note_on_c, 4, 53, 0
1, 67162, Note_on_c, 4, 46, 0
1, 67181, Note_on_c, 11, 67, 0
1, 67181, Note_on_c, 12, 67, 0
1, 67190, Note_on_c, 13, 46, 0
1, 67200, Note_on_c, 2, 64, 78
1, 67200, Note_on_c, 4, 55, 77
1, 67200, Note_on_c, 4, 48, 110
1, 67200, Note_on_c, 7, 60, 80
1, 67200, Note_on_c, 7, 55, 92
1, 67200, Note_on_c, 7, 64, 103
1, 67200, Note_on_c, 9, 36, 100
1, 67200, Note_on_c, 11, 69, 96
1, 67200, Note_on_c, 12, 69, 96
1, 67200, Note_on_c, 13, 48, 110
1, 67200, Note_on_c, 14, 40, 120
1, 67210, Note_on_c, 9, 36, 0
1, 67229, Note_on_c, 7, 60, 0
1, 67229, Note_on_c, 7, 55, 0
1, 67229, Note_on_c, 7, 64, 0
1, 67440, Note_on_c, 7, 64, 103
1, 67440, Note_on_c, 7, 55, 91
1, 67440, Note_on_c, 7, 60, 80
1, 67469, Note_on_c, 7, 64, 0
1, 67469, Note_on_c, 7, 55, 0
1, 67469, Note_on_c, 7, 60, 0
1, 67634, Note_on_c, 14, 40, 0
1, 67670, Note_on_c, 11, 69, 0
1, 67670, Note_on_c, 12, 69, 0
1, 67670, Note_on_c, 13, 48, 0
1, 67680, Note_on_c, 7, 64, 103
1, 67680, Note_on_c, 7, 55, 93
1, 67680, Note_on_c, 7, 60, 80
1, 67680, Note_on_c, 9, 36, 100
1, 67680, Note_on_c, 11, 67, 86
1, 67680, Note_on_c, 12, 67, 86
1, 67680, Note_on_c, 14, 40, 120
1, 67690, Note_on_c, 9, 36, 0
1, 67709, Note_on_c, 7, 64, 0
1, 67709, Note_on_c, 7, 55, 0
1, 67709, Note_on_c, 7, 60, 0
1, 67915, Note_on_c, 11, 67, 0
1, 67915, Note_on_c, 12, 67, 0
1, 67920, Note_on_c, 7, 64, 103
1, 67920, Note_on_c, 7, 55, 94
1, 67920, Note_on_c, 7, 60, 80
1, 67920, Note_on_c, 11, 65, 78
1, 67920, Note_on_c, 12, 65, 78
1, 67949, Note_on_c, 7, 64, 0
1, 67949, Note_on_c, 7, 55, 0
1, 67949, Note_on_c, 7, 60, 0
1, 68114, Note_on_c, 14, 40, 0
1, 68141, Note_on_c, 2, 69, 0
1, 68155, Note_on_c, 11, 65, 0
1, 68155, Note_on_c, 12, 65, 0
1, 68160, Note_on_c, 0, 54, 100
1, 68160, Note_on_c, 2, 67, 110
1, 68160, Note_on_c, 7, 64, 103
1, 68160, Note_on_c, 7, 55, 93
1, 68160, Note_on_c, 7, 60, 80
1, 68160, Note_on_c, 11, 62, 74
1, 68160, Note_on_c, 12, 62, 74
1, 68160, Note_on_c, 15, 79, 100
1, 68189, Note_on_c, 7, 64, 0
1, 68189, Note_on_c, 7, 55, 0
1, 68189, Note_on_c, 7, 60, 0
1, 68395, Note_on_c, 11, 62, 0
1, 68395, Note_on_c, 12, 62, 0
1, 68400, Note_on_c, 7, 64, 103
1, 68400, Note_on_c, 7, 55, 95
1, 68400, Note_on_c, 7, 60, 80
1, 68400, Note_on_c, 11, 65, 80
1, 68400, Note_on_c, 12, 65, 80
1, 68429, Note_on_c, 7, 64, 0
1, 68429, Note_on_c, 7, 55, 0
1, 68429, Note_on_c, 7, 60, 0
1, 68640, Note_on_c, 7, 64, 103
1, 68640, Note_on_c, 7, 55, 93
1, 68640, Note_on_c, 7, 60, 80
1, 68640, Note_on_c, 13, 48, 110
1, 68669, Note_on_c, 7, 64, 0
1, 68669, Note_on_c, 7, 55, 0
1, 68669, Note_on_c, 7, 60, 0
1, 68811, Note_on_c, 0, 54, 0
1, 68811, Note_on_c, 15, 79, 0
1, 68875, Note_on_c, 11, 65, 0
1, 68875, Note_on_c, 12, 65, 0
1, 68880, Note_on_c, 7, 64, 103
1, 68880, Note_on_c, 7, 55, 93
1, 68880, Note_on_c, 7, 60, 80
1, 68880, Note_on_c, 11, 67, 79
1, 68880, Note_on_c, 12, 67, 79
1, 68909, Note_on_c, 7, 64, 0
1, 68909, Note_on_c, 7, 55, 0
1, 68909, Note_on_c, 7, 60, 0
1, 69082, Note_on_c, 2, 64, 0
1, 69082, Note_on_c, 4, 55, 0
1, 69082, Note_on_c, 4, 48, 0
1, 69101, Note_on_c, 2, 67, 0
1, 69110, Note_on_c, 13, 48, 0
1, 69115, Note_on_c, 11, 67, 0
1, 69115, Note_on_c, 12, 67, 0
1, 69120, Note_on_c, 2, 65, 76
1, 69120, Note_on_c, 2, 69, 110
1, 69120, Note_on_c, 4, 53, 77
1, 69120, Note_on_c, 4, 46, 110
1, 69120, Note_on_c, 7, 62, 80
1, 69120, Note_on_c, 7, 57, 92
1, 69120, Note_on_c, 7, 65, 103
1, 69120, Note_on_c, 9, 36, 100
1, 69120, Note_on_c, 11, 69, 86
1, 69120, Note_on_c, 12, 69, 86
1, 69120, Note_on_c, 13, 46, 110
1, 69120, Note_on_c, 14, 40, 122
1, 69130, Note_on_c, 9, 36, 0
1, 69149, Note_on_c, 7, 62, 0
1, 69149, Note_on_c, 7, 57, 0
1, 69149, Note_on_c, 7, 65, 0
1, 69360, Note_on_c, 7, 65, 103
1, 69360, Note_on_c, 7, 57, 91
1, 69360, Note_on_c, 7, 62, 80
1, 69389, Note_on_c, 7, 65, 0
1, 69389, Note_on_c, 7, 57, 0
1, 69389, Note_on_c, 7, 62, 0
1, 69554, Note_on_c, 14, 40, 0
1, 69590, Note_on_c, 11, 69, 0
1, 69590, Note_on_c, 12, 69, 0
1, 69590, Note_on_c, 13, 46, 0
1, 69600, Note_on_c, 7, 65, 103
1, 69600, Note_on_c, 7, 57, 93
1, 69600, Note_on_c, 7, 62, 80
1, 69600, Note_on_c, 9, 36, 100
1, 69600, Note_on_c, 11, 72, 94
1, 69600, Note_on_c, 12, 72, 94
1, 69600, Note_on_c, 14, 40, 120
1, 69610, Note_on_c, 9, 36, 0
1, 69629, Note_on_c, 7, 65, 0
1, 69629, Note_on_c, 7, 57, 0
1, 69629, Note_on_c, 7, 62, 0
1, 69840, Note_on_c, 7, 65, 103
1, 69840, Note_on_c, 7, 57, 94
1, 69840, Note_on_c, 7, 62, 80
1, 69869, Note_on_c, 7, 65, 0
1, 69869, Note_on_c, 7, 57, 0
1, 69869, Note_on_c, 7, 62, 0
1, 70034, Note_on_c, 14, 40, 0
1, 70070, Note_on_c, 11, 72, 0
1, 70070, Note_on_c, 12, 72, 0
1, 70080, Note_on_c, 0, 54, 100
1, 70080, Note_on_c, 7, 65, 103
1, 70080, Note_on_c, 7, 57, 93
1, 70080, Note_on_c, 7, 62, 80
1, 70080, Note_on_c, 11, 67, 86
1, 70080, Note_on_c, 12, 67, 86
1, 70080, Note_on_c, 15, 79, 100
1, 70109, Note_on_c, 7, 65, 0
1, 70109, Note_on_c, 7, 57, 0
1, 70109, Note_on_c, 7, 62, 0
1, 70320, Note_on_c, 7, 65, 103
1, 70320, Note_on_c, 7, 57, 95
1, 70320, Note_on_c, 7, 62, 80
1, 70349, Note_on_c, 7, 65, 0
1, 70349, Note_on_c, 7, 57, 0
1, 70349, Note_on_c, 7, 62, 0
1, 70560, Note_on_c, 7, 65, 103
1, 70560, Note_on_c, 7, 57, 93
1, 70560, Note_on_c, 7, 62, 80
1, 70560, Note_on_c, 13, 46, 110
1, 70589, Note_on_c, 7, 65, 0
1, 70589, Note_on_c, 7, 57, 0
1, 70589, Note_on_c, 7, 62, 0
1, 70731, Note_on_c, 0, 54, 0
1, 70731, Note_on_c, 15, 79, 0
1, 70786, Note_on_c, 11, 67, 0
1, 70786, Note_on_c, 12, 67, 0
1, 70800, Note_on_c, 7, 65, 103
1, 70800, Note_on_c, 7, 57, 93
1, 70800, Note_on_c, 7, 62, 80
1, 70800, Note_on_c, 11, 65, 89
1, 70800, Note_on_c, 12, 65, 89
1, 70829, Note_on_c, 7, 65, 0
1, 70829, Note_on_c, 7, 57, 0
1, 70829, Note_on_c, 7, 62, 0
1, 70918, Note_on_c, 11, 65, 0
1, 70918, Note_on_c, 12, 65, 0
1, 70920, Note_on_c, 11, 64, 81
1, 70920, Note_on_c, 12, 64, 81
1, 71002, Note_on_c, 2, 65, 0
1, 71002, Note_on_c, 2, 69, 0
1, 71002, Note_on_c, 4, 53, 0
1, 71002, Note_on_c, 4, 46, 0
1, 71030, Note_on_c, 13, 46, 0
1, 71038, Note_on_c, 11, 64, 0
1, 71038, Note_on_c, 12, 64, 0
1, 71040, Note_on_c, 2, 65, 77
1, 71040, Note_on_c, 2, 72, 109
1, 71040, Note_on_c, 4, 57, 77
1, 71040, Note_on_c, 4, 50, 110
1, 71040, Note_on_c, 7, 57, 92
1, 71040, Note_on_c, 7, 69, 103
1, 71040, Note_on_c, 7, 62, 71
1, 71040, Note_on_c, 7, 65, 80
1, 71040, Note_on_c, 9, 36, 100
1, 71040, Note_on_c, 11, 62, 104
1, 71040, Note_on_c, 12, 62, 104
1, 71040, Note_on_c, 13, 50, 110
1, 71040, Note_on_c, 14, 40, 120
1, 71050, Note_on_c, 9, 36, 0
1, 71059, Note_on_c, 7, 62, 0
1, 71069, Note_on_c, 7, 57, 0
1, 71069, Note_on_c, 7, 69, 0
1, 71069, Note_on_c, 7, 65, 0
1, 71280, Note_on_c, 7, 57, 91
1, 71280, Note_on_c, 7, 65, 80
1, 71280, Note_on_c, 7, 62, 71
1, 71280, Note_on_c, 7, 69, 103
1, 71299, Note_on_c, 7, 62, 0
1, 71309, Note_on_c, 7, 57, 0
1, 71309, Note_on_c, 7, 65, 0
1, 71309, Note_on_c, 7, 69, 0
1, 71474, Note_on_c, 14, 40, 0
1, 71510, Note_on_c, 13, 50, 0
1, 71520, Note_on_c, 7, 57, 93
1, 71520, Note_on_c, 7, 65, 80
1, 71520, Note_on_c, 7, 62, 71
1, 71520, Note_on_c, 7, 69, 103
1, 71520, Note_on_c, 9, 36, 100
1, 71520, Note_on_c, 14, 40, 120
1, 71530, Note_on_c, 9, 36, 0
1, 71539, Note_on_c, 7, 62, 0
1, 71549, Note_on_c, 7, 57, 0
1, 71549, Note_on_c, 7, 65, 0
1, 71549, Note_on_c, 7, 69, 0
1, 71760, Note_on_c, 7, 57, 94
1, 71760, Note_on_c, 7, 65, 80
1, 71760, Note_on_c, 7, 62, 71
1, 71760, Note_on_c, 7, 69, 103
1, 71779, Note_on_c, 7, 62, 0
1, 71789, Note_on_c, 7, 57, 0
1, 71789, Note_on_c, 7, 65, 0
1, 71789, Note_on_c, 7, 69, 0
1, 71954, Note_on_c, 14, 40, 0
1, 71981, Note_on_c, 1, 96, 0
1, 71981, Note_on_c, 2, 65, 0
1, 71981, Note_on_c, 2, 72, 0
1, 71981, Note_on_c, 4, 50, 0
1, 72000, Note_on_c, 0, 54, 100
1, 72000, Note_on_c, 1, 96, 72
1, 72000, Note_on_c, 2, 62, 77
1, 72000, Note_on_c, 2, 72, 110
1, 72000, Note_on_c, 4, 48, 110
1, 72000, Note_on_c, 7, 58, 73
1, 72000, Note_on_c, 7, 62, 80
1, 72000, Note_on_c, 7, 55, 89
1, 72000, Note_on_c, 7, 67, 102
1, 72000, Note_on_c, 13, 48, 110
1, 72000, Note_on_c, 15, 79, 100
1, 72022, Note_on_c, 7, 58, 0
1, 72029, Note_on_c, 7, 62, 0
1, 72029, Note_on_c, 7, 55, 0
1, 72029, Note_on_c, 7, 67, 0
1, 72235, Note_on_c, 11, 62, 0
1, 72235, Note_on_c, 12, 62, 0
1, 72240, Note_on_c, 7, 58, 73
1, 72240, Note_on_c, 7, 62, 80
1, 72240, Note_on_c, 7, 55, 89
1, 72240, Note_on_c, 7, 67, 102
1, 72262, Note_on_c, 7, 58, 0
1, 72269, Note_on_c, 7, 62, 0
1, 72269, Note_on_c, 7, 55, 0
1, 72269, Note_on_c, 7, 67, 0
1, 72456, Note_on_c, 2, 62, 0
1, 72466, Note_on_c, 4, 57, 0
1, 72470, Note_on_c, 2, 72, 0
1, 72470, Note_on_c, 4, 48, 0
1, 72470, Note_on_c, 13, 48, 0
1, 72480, Note_on_c, 2, 65, 77
1, 72480, Note_on_c, 2, 77, 110
1, 72480, Note_on_c, 4, 53, 77
1, 72480, Note_on_c, 4, 41, 110
1, 72480, Note_on_c, 7, 57, 73
1, 72480, Note_on_c, 7, 60, 80
1, 72480, Note_on_c, 7, 53, 89
1, 72480, Note_on_c, 7, 65, 102
1, 72480, Note_on_c, 11, 65, 82
1, 72480, Note_on_c, 12, 65, 82
1, 72480, Note_on_c, 13, 41, 110
1, 72502, Note_on_c, 7, 57, 0
1, 72509, Note_on_c, 7, 60, 0
1, 72509, Note_on_c, 7, 53, 0
1, 72509, Note_on_c, 7, 65, 0
1, 72651, Note_on_c, 0, 54, 0
1, 72651, Note_on_c, 15, 79, 0
1, 72715, Note_on_c, 11, 65, 0
1, 72715, Note_on_c, 12, 65, 0
1, 72720, Note_on_c, 7, 57, 73
1, 72720, Note_on_c, 7, 60, 80
1, 72720, Note_on_c, 7, 53, 89
1, 72720, Note_on_c, 7, 65, 102
1, 72720, Note_on_c, 11, 67, 88
1, 72720, Note_on_c, 12, 67, 88
1, 72742, Note_on_c, 7, 57, 0
1, 72749, Note_on_c, 7, 60, 0
1, 72749, Note_on_c, 7, 53, 0
1, 72749, Note_on_c, 7, 65, 0
1, 72936, Note_on_c, 4, 53, 0
1, 72950, Note_on_c, 2, 65, 0
1, 72950, Note_on_c, 2, 77, 0
1, 72950, Note_on_c, 4, 41, 0
1, 72950, Note_on_c, 13, 41, 0
1, 72955, Note_on_c, 11, 67, 0
1, 72955, Note_on_c, 12, 67, 0
1, 72960, Note_on_c, 2, 65, 77
1, 72960, Note_on_c, 2, 69, 109
1, 72960, Note_on_c, 4, 53, 79
1, 72960, Note_on_c, 4, 46, 110
1, 72960, Note_on_c, 7, 62, 80
1, 72960, Note_on_c, 7, 57, 92
1, 72960, Note_on_c, 7, 65, 103
1, 72960, Note_on_c, 9, 36, 100
1, 72960, Note_on_c, 11, 69, 104
1, 72960, Note_on_c, 12, 69, 104
1, 72960, Note_on_c, 13, 46, 110
1, 72960, Note_on_c, 14, 40, 122
1, 72970, Note_on_c, 9, 36, 0
1, 72989, Note_on_c, 7, 62, 0
1, 72989, Note_on_c, 7, 57, 0
1, 72989, Note_on_c, 7, 65, 0
1, 73200, Note_on_c, 7, 65, 103
1, 73200, Note_on_c, 7, 57, 91
1, 73200, Note_on_c, 7, 62, 80
1, 73229, Note_on_c, 7, 65, 0
1, 73229, Note_on_c, 7, 57, 0
1, 73229, Note_on_c, 7, 62, 0
1, 73394, Note_on_c, 14, 40, 0
1, 73430, Note_on_c, 11, 69, 0
1, 73430, Note_on_c, 12, 69, 0
1, 73430, Note_on_c, 13, 46, 0
1, 73440, Note_on_c, 7, 65, 103
1, 73440, Note_on_c, 7, 57, 93
1, 73440, Note_on_c, 7, 62, 80
1, 73440, Note_on_c, 9, 36, 100
1, 73440, Note_on_c, 11, 72, 100
1, 73440, Note_on_c, 12, 72, 100
1, 73440, Note_on_c, 14, 40, 120
1, 73450, Note_on_c, 9, 36, 0
1, 73469, Note_on_c, 7, 65, 0
1, 73469, Note_on_c, 7, 57, 0
1, 73469, Note_on_c, 7, 62, 0
1, 73680, Note_on_c, 7, 65, 103
1, 73680, Note_on_c, 7, 57, 94
1, 73680, Note_on_c, 7, 62, 80
1, 73709, Note_on_c, 7, 65, 0
1, 73709, Note_on_c, 7, 57, 0
1, 73709, Note_on_c, 7, 62, 0
1, 73874, Note_on_c, 14, 40, 0
1, 73910, Note_on_c, 11, 72, 0
1, 73910, Note_on_c, 12, 72, 0
1, 73920, Note_on_c, 0, 54, 100
1, 73920, Note_on_c, 7, 65, 103
1, 73920, Note_on_c, 7, 57, 93
1, 73920, Note_on_c, 7, 62, 80
1, 73920, Note_on_c, 11, 67, 89
1, 73920, Note_on_c, 12, 67, 89
1, 73920, Note_on_c, 15, 79, 100
1, 73949, Note_on_c, 7, 65, 0
1, 73949, Note_on_c, 7, 57, 0
1, 73949, Note_on_c, 7, 62, 0
1, 74160, Note_on_c, 7, 65, 103
1, 74160, Note_on_c, 7, 57, 95
1, 74160, Note_on_c, 7, 62, 80
1, 74189, Note_on_c, 7, 65, 0
1, 74189, Note_on_c, 7, 57, 0
1, 74189, Note_on_c, 7, 62, 0
1, 74400, Note_on_c, 7, 65, 103
1, 74400, Note_on_c, 7, 57, 93
1, 74400, Note_on_c, 7, 62, 80
1, 74400, Note_on_c, 13, 46, 110
1, 74429, Note_on_c, 7, 65, 0
1, 74429, Note_on_c, 7, 57, 0
1, 74429, Note_on_c, 7, 62, 0
1, 74571, Note_on_c, 0, 54, 0
1, 74571, Note_on_c, 15, 79, 0
1, 74640, Note_on_c, 7, 65, 103
1, 74640, Note_on_c, 7, 57, 93
1, 74640, Note_on_c, 7, 62, 80
1, 74669, Note_on_c, 7, 65, 0
1, 74669, Note_on_c, 7, 57, 0
1, 74669, Note_on_c, 7, 62, 0
1, 74842, Note_on_c, 2, 65, 0
1, 74842, Note_on_c, 4, 53, 0
1, 74842, Note_on_c, 4, 46, 0
1, 74861, Note_on_c, 11, 67, 0
1, 74861, Note_on_c, 12, 67, 0
1, 74870, Note_on_c, 13, 46, 0
1, 74880, Note_on_c, 2, 64, 78
1, 74880, Note_on_c, 4, 55, 79
1, 74880, Note_on_c, 4, 48, 110
1, 74880, Note_on_c, 7, 60, 80
1, 74880, Note_on_c, 7, 55, 92
1, 74880, Note_on_c, 7, 64, 103
1, 74880, Note_on_c, 9, 36, 100
1, 74880, Note_on_c, 11, 69, 100
1, 74880, Note_on_c, 12, 69, 100
1, 74880, Note_on_c, 13, 48, 110
1, 74880, Note_on_c, 14, 40, 120
1, 74890, Note_on_c, 9, 36, 0
1, 74909, Note_on_c, 7, 60, 0
1, 74909, Note_on_c, 7, 55, 0
1, 74909, Note_on_c, 7, 64, 0
1, 75120, Note_on_c, 7, 64, 103
1, 75120, Note_on_c, 7, 55, 91
1, 75120, Note_on_c, 7, 60, 80
1, 75149, Note_on_c, 7, 64, 0
1, 75149, Note_on_c, 7, 55, 0
1, 75149, Note_on_c, 7, 60, 0
1, 75314, Note_on_c, 14, 40, 0
1, 75350, Note_on_c, 1, 96, 0
1, 75350, Note_on_c, 11, 69, 0
1, 75350, Note_on_c, 12, 69, 0
1, 75350, Note_on_c, 13, 48, 0
1, 75360, Note_on_c, 1, 96, 72
1, 75360, Note_on_c, 7, 64, 103
1, 75360, Note_on_c, 7, 55, 93
1, 75360, Note_on_c, 7, 60, 80
1, 75360, Note_on_c, 9, 36, 100
1, 75360, Note_on_c, 11, 67, 91
1, 75360, Note_on_c, 12, 67, 91
1, 75360, Note_on_c, 14, 40, 120
1, 75370, Note_on_c, 9, 36, 0
1, 75389, Note_on_c, 7, 64, 0
1, 75389, Note_on_c, 7, 55, 0
1, 75389, Note_on_c, 7, 60, 0
1, 75595, Note_on_c, 11, 67, 0
1, 75595, Note_on_c, 12, 67, 0
1, 75600, Note_on_c, 7, 64, 103
1, 75600, Note_on_c, 7, 55, 94
1, 75600, Note_on_c, 7, 60, 80
1, 75600, Note_on_c, 11, 65, 85
1, 75600, Note_on_c, 12, 65, 85
1, 75629, Note_on_c, 7, 64, 0
1, 75629, Note_on_c, 7, 55, 0
1, 75629, Note_on_c, 7, 60, 0
1, 75794, Note_on_c, 14, 40, 0
1, 75821, Note_on_c, 2, 69, 0
1, 75835, Note_on_c, 11, 65, 0
1, 75835, Note_on_c, 12, 65, 0
1, 75840, Note_on_c, 0, 54, 100
1, 75840, Note_on_c, 2, 67, 110
1, 75840, Note_on_c, 7, 64, 103
1, 75840, Note_on_c, 7, 55, 93
1, 75840, Note_on_c, 7, 60, 80
1, 75840, Note_on_c, 11, 62, 75
1, 75840, Note_on_c, 12, 62, 75
1, 75840, Note_on_c, 15, 79, 100
1, 75869, Note_on_c, 7, 64, 0
1, 75869, Note_on_c, 7, 55, 0
1, 75869, Note_on_c, 7, 60, 0
1, 76075, Note_on_c, 11, 62, 0
1, 76075, Note_on_c, 12, 62, 0
1, 76080, Note_on_c, 7, 64, 103
1, 76080, Note_on_c, 7, 55, 95
1, 76080, Note_on_c, 7, 60, 80
1, 76080, Note_on_c, 11, 65, 81
1, 76080, Note_on_c, 12, 65, 81
1, 76109, Note_on_c, 7, 64, 0
1, 76109, Note_on_c, 7, 55, 0
1, 76109, Note_on_c, 7, 60, 0
1, 76320, Note_on_c, 7, 64, 103
1, 76320, Note_on_c, 7, 55, 93
1, 76320, Note_on_c, 7, 60, 80
1, 76320, Note_on_c, 13, 48, 110
1, 76349, Note_on_c, 7, 64, 0
1, 76349, Note_on_c, 7, 55, 0
1, 76349, Note_on_c, 7, 60, 0
1, 76491, Note_on_c, 0, 54, 0
1, 76491, Note_on_c, 15, 79, 0
1, 76555, Note_on_c, 11, 65, 0
1, 76555, Note_on_c, 12, 65, 0
1, 76560, Note_on_c, 7, 64, 103
1, 76560, Note_on_c, 7, 55, 93
1, 76560, Note_on_c, 7, 60, 80
1, 76560, Note_on_c, 11, 67, 100
1, 76560, Note_on_c, 12, 67, 100
1, 76589, Note_on_c, 7, 64, 0
1, 76589, Note_on_c, 7, 55, 0
1, 76589, Note_on_c, 7, 60, 0
1, 76762, Note_on_c, 2, 64, 0
1, 76762, Note_on_c, 4, 55, 0
1, 76762, Note_on_c, 4, 48, 0
1, 76781, Note_on_c, 2, 67, 0
1, 76790, Note_on_c, 13, 48, 0
1, 76795, Note_on_c, 11, 67, 0
1, 76795, Note_on_c, 12, 67, 0
1, 76800, Note_on_c, 2, 65, 76
1, 76800, Note_on_c, 2, 69, 110
1, 76800, Note_on_c, 4, 57, 79
1, 76800, Note_on_c, 4, 47, 110
1, 76800, Note_on_c, 7, 62, 80
1, 76800, Note_on_c, 7, 57, 92
1, 76800, Note_on_c, 7, 65, 103
1, 76800, Note_on_c, 9, 36, 100
1, 76800, Note_on_c, 11, 69, 100
1, 76800, Note_on_c, 12, 69, 100
1, 76800, Note_on_c, 13, 47, 110
1, 76800, Note_on_c, 14, 40, 122
1, 76810, Note_on_c, 9, 36, 0
1, 76829, Note_on_c, 7, 62, 0
1, 76829, Note_on_c, 7, 57, 0
1, 76829, Note_on_c, 7, 65, 0
1, 77040, Note_on_c, 7, 65, 103
1, 77040, Note_on_c, 7, 57, 91
1, 77040, Note_on_c, 7, 62, 80
1, 77069, Note_on_c, 7, 65, 0
1, 77069, Note_on_c, 7, 57, 0
1, 77069, Note_on_c, 7, 62, 0
1, 77234, Note_on_c, 14, 40, 0
1, 77270, Note_on_c, 11, 69, 0
1, 77270, Note_on_c, 12, 69, 0
1, 77270, Note_on_c, 13, 47, 0
1, 77280, Note_on_c, 7, 65, 103
1, 77280, Note_on_c, 7, 57, 93
1, 77280, Note_on_c, 7, 62, 80
1, 77280, Note_on_c, 9, 36, 100
1, 77280, Note_on_c, 11, 72, 100
1, 77280, Note_on_c, 12, 72, 100
1, 77280, Note_on_c, 14, 40, 120
1, 77290, Note_on_c, 9, 36, 0
1, 77309, Note_on_c, 7, 65, 0
1, 77309, Note_on_c, 7, 57, 0
1, 77309, Note_on_c, 7, 62, 0
1, 77520, Note_on_c, 7, 65, 103
1, 77520, Note_on_c, 7, 57, 94
1, 77520, Note_on_c, 7, 62, 80
1, 77549, Note_on_c, 7, 65, 0
1, 77549, Note_on_c, 7, 57, 0
1, 77549, Note_on_c, 7, 62, 0
1, 77714, Note_on_c, 14, 40, 0
1, 77750, Note_on_c, 11, 72, 0
1, 77750, Note_on_c, 12, 72, 0
1, 77760, Note_on_c, 0, 54, 100
1, 77760, Note_on_c, 7, 65, 103
1, 77760, Note_on_c, 7, 57, 93
1, 77760, Note_on_c, 7, 62, 80
1, 77760, Note_on_c, 11, 76, 108
1, 77760, Note_on_c, 12, 76, 108
1, 77760, Note_on_c, 15, 79, 100
1, 77789, Note_on_c, 7, 65, 0
1, 77789, Note_on_c, 7, 57, 0
1, 77789, Note_on_c, 7, 62, 0
1, 78000, Note_on_c, 7, 65, 103
1, 78000, Note_on_c, 7, 57, 95
1, 78000, Note_on_c, 7, 62, 80
1, 78029, Note_on_c, 7, 65, 0
1, 78029, Note_on_c, 7, 57, 0
1, 78029, Note_on_c, 7, 62, 0
1, 78230, Note_on_c, 11, 76, 0
1, 78230, Note_on_c, 12, 76, 0
1, 78240, Note_on_c, 7, 65, 103
1, 78240, Note_on_c, 7, 57, 93
1, 78240, Note_on_c, 7, 62, 80
1, 78240, Note_on_c, 11, 72, 105
1, 78240, Note_on_c, 12, 72, 105
1, 78240, Note_on_c, 13, 47, 110
1, 78269, Note_on_c, 7, 65, 0
1, 78269, Note_on_c, 7, 57, 0
1, 78269, Note_on_c, 7, 62, 0
1, 78411, Note_on_c, 0, 54, 0
1, 78411, Note_on_c, 15, 79, 0
1, 78480, Note_on_c, 7, 65, 103
1, 78480, Note_on_c, 7, 57, 93
1, 78480, Note_on_c, 7, 62, 80
1, 78509, Note_on_c, 7, 65, 0
1, 78509, Note_on_c, 7, 57, 0
1, 78509, Note_on_c, 7, 62, 0
1, 78682, Note_on_c, 2, 65, 0
1, 78682, Note_on_c, 2, 69, 0
1, 78682, Note_on_c, 4, 57, 0
1, 78682, Note_on_c, 4, 47, 0
1, 78710, Note_on_c, 11, 72, 0
1, 78710, Note_on_c, 12, 72, 0
1, 78710, Note_on_c, 13, 47, 0
1, 78720, Note_on_c, 2, 69, 109
1, 78720, Note_on_c, 2, 62, 100
1, 78720, Note_on_c, 4, 53, 77
1, 78720, Note_on_c, 4, 43, 111
1, 78720, Note_on_c, 7, 65, 103
1, 78720, Note_on_c, 7, 57, 93
1, 78720, Note_on_c, 7, 62, 80
1, 78720, Note_on_c, 9, 36, 100
1, 78720, Note_on_c, 11, 74, 102
1, 78720, Note_on_c, 12, 74, 102
1, 78720, Note_on_c, 13, 43, 110
1, 78720, Note_on_c, 14, 40, 120
1, 78730, Note_on_c, 9, 36, 0
1, 78749, Note_on_c, 7, 65, 0
1, 78749, Note_on_c, 7, 57, 0
1, 78749, Note_on_c, 7, 62, 0
1, 78960, Note_on_c, 7, 65, 103
1, 78960, Note_on_c, 7, 57, 95
1, 78960, Note_on_c, 7, 62, 80
1, 78989, Note_on_c, 7, 65, 0
1, 78989, Note_on_c, 7, 57, 0
1, 78989, Note_on_c, 7, 62, 0
1, 79154, Note_on_c, 14, 40, 0
1, 79190, Note_on_c, 13, 43, 0
1, 79200, Note_on_c, 7, 65, 103
1, 79200, Note_on_c, 7, 57, 93
1, 79200, Note_on_c, 7, 62, 80
1, 79200, Note_on_c, 9, 36, 100
1, 79200, Note_on_c, 14, 40, 120
1, 79210, Note_on_c, 9, 36, 0
1, 79229, Note_on_c, 7, 65, 0
1, 79229, Note_on_c, 7, 57, 0
1, 79229, Note_on_c, 7, 62, 0
1, 79440, Note_on_c, 7, 65, 103
1, 79440, Note_on_c, 7, 57, 93
1, 79440, Note_on_c, 7, 62, 80
1, 79469, Note_on_c, 7, 65, 0
1, 79469, Note_on_c, 7, 57, 0
1, 79469, Note_on_c, 7, 62, 0
1, 79634, Note_on_c, 14, 40, 0
1, 79661, Note_on_c, 4, 53, 0
1, 79661, Note_on_c, 4, 43, 0
1, 79680, Note_on_c, 0, 54, 100
1, 79680, Note_on_c, 4, 60, 77
1, 79680, Note_on_c, 4, 48, 111
1, 79680, Note_on_c, 7, 67, 103
1, 79680, Note_on_c, 7, 58, 93
1, 79680, Note_on_c, 7, 62, 80
1, 79680, Note_on_c, 13, 48, 110
1, 79680, Note_on_c, 15, 79, 100
1, 79709, Note_on_c, 7, 67, 0
1, 79709, Note_on_c, 7, 58, 0
1, 79709, Note_on_c, 7, 62, 0
1, 79920, Note_on_c, 7, 67, 103
1, 79920, Note_on_c, 7, 58, 95
1, 79920, Note_on_c, 7, 62, 80
1, 79949, Note_on_c, 7, 67, 0
1, 79949, Note_on_c, 7, 58, 0
1, 79949, Note_on_c, 7, 62, 0
1, 80150, Note_on_c, 13, 48, 0
1, 80160, Note_on_c, 7, 67, 103
1, 80160, Note_on_c, 7, 58, 93
1, 80160, Note_on_c, 7, 62, 80
1, 80189, Note_on_c, 7, 67, 0
1, 80189, Note_on_c, 7, 58, 0
1, 80189, Note_on_c, 7, 62, 0
1, 80314, Note_on_c, 11, 74, 0
1, 80314, Note_on_c, 12, 74, 0
1, 80331, Note_on_c, 0, 54, 0
1, 80331, Note_on_c, 15, 79, 0
1, 80400, Note_on_c, 7, 67, 103
1, 80400, Note_on_c, 7, 58, 93
1, 80400, Note_on_c, 7, 62, 80
1, 80429, Note_on_c, 7, 67, 0
1, 80429, Note_on_c, 7, 58, 0
1, 80429, Note_on_c, 7, 62, 0
1, 80602, Note_on_c, 2, 69, 0
1, 80602, Note_on_c, 2, 62, 0
1, 80621, Note_on_c, 4, 60, 0
1, 80621, Note_on_c, 4, 48, 0
1, 80640, Control_c, 4, 10, 100
1, 80640, Control_c, 4, 11, 110
1, 80640, Control_c, 6, 10, 58
1, 80640, Control_c, 6, 11, 120
1, 80640, Control_c, 7, 10, 50
1, 80640, Control_c, 7, 11, 115
1, 80640, Note_on_c, 7, 74, 70
1, 80640, Control_c, 8, 10, 30
1, 80640, Control_c, 8, 11, 100
1, 80640, Note_on_c, 8, 62, 106
1, 80640, Control_c, 11, 10, 35
1, 80640, Control_c, 11, 11, 116
1, 80640, Control_c, 12, 10, 80
1, 80640, Control_c, 12, 11, 115
1, 80640, Note_on_c, 12, 74, 88
1, 80675, Note_on_c, 7, 77, 72
1, 80710, Note_on_c, 7, 81, 74
1, 80800, Note_on_c, 7, 74, 0
1, 80835, Note_on_c, 7, 77, 0
1, 81117, Note_on_c, 12, 74, 0
1, 81120, Note_on_c, 12, 76, 99
1, 81283, Note_on_c, 7, 81, 0
1, 81358, Note_on_c, 12, 76, 0
1, 81360, Note_on_c, 12, 77, 107
1, 81508, Note_on_c, 8, 62, 0
1, 81598, Note_on_c, 12, 77, 0
1, 81600, Note_on_c, 7, 69, 73
1, 81600, Note_on_c, 8, 60, 106
1, 81600, Note_on_c, 12, 76, 93
1, 81635, Note_on_c, 7, 72, 75
1, 81670, Note_on_c, 7, 76, 76
1, 81760, Note_on_c, 7, 69, 0
1, 81795, Note_on_c, 7, 72, 0
1, 82070, Note_on_c, 7, 76, 0
1, 82077, Note_on_c, 12, 76, 0
1, 82080, Note_on_c, 7, 69, 65
1, 82080, Note_on_c, 12, 77, 103
1, 82318, Note_on_c, 12, 77, 0
1, 82320, Note_on_c, 12, 79, 98
1, 82468, Note_on_c, 8, 60, 0
1, 82546, Note_on_c, 7, 69, 0
1, 82558, Note_on_c, 12, 79, 0
1, 82560, Note_on_c, 7, 65, 77
1, 82560, Note_on_c, 8, 58, 106
1, 82560, Note_on_c, 12, 81, 116
1, 82595, Note_on_c, 7, 70, 79
1, 82630, Note_on_c, 7, 74, 81
1, 82720, Note_on_c, 7, 65, 0
1, 82755, Note_on_c, 7, 70, 0
1, 83037, Note_on_c, 12, 81, 0
1, 83040, Note_on_c, 12, 82, 122
1, 83203, Note_on_c, 7, 74, 0
1, 83278, Note_on_c, 12, 82, 0
1, 83280, Note_on_c, 12, 81, 99
1, 83428, Note_on_c, 8, 58, 0
1, 83501, Note_on_c, 1, 96, 0
1, 83518, Note_on_c, 12, 81, 0
1, 83520, Note_on_c, 1, 96, 68
1, 83520, Note_on_c, 7, 64, 91
1, 83520, Note_on_c, 8, 57, 106
1, 83520, Note_on_c, 12, 79, 87
1, 83520, Control_c, 12, 1, 2
1, 83555, Note_on_c, 7, 69, 93
1, 83590, Note_on_c, 7, 72, 96
1, 83600, Control_c, 12, 1, 13
1, 83680, Note_on_c, 7, 64, 0
1, 83680, Control_c, 12, 1, 25
1, 83715, Note_on_c, 7, 69, 0
1, 83760, Control_c, 12, 1, 38
1, 83840, Control_c, 12, 1, 45
1, 83920, Control_c, 12, 1, 55
1, 84125, Note_on_c, 7, 72, 0
1, 84388, Note_on_c, 8, 57, 0
1, 84475, Note_on_c, 12, 79, 0
1, 84475, Pitch_bend_c, 12, 8192
1, 84475, Control_c, 12, 1, 0
1, 84480, Control_c, 2, 10, 30
1, 84480, Note_on_c, 7, 65, 76
1, 84480, Note_on_c, 8, 55, 106
1, 84480, Note_on_c, 12, 81, 98
1, 84515, Note_on_c, 7, 70, 78
1, 84550, Note_on_c, 7, 74, 81
1, 84640, Note_on_c, 7, 65, 0
1, 84675, Note_on_c, 7, 70, 0
1, 84950, Note_on_c, 7, 74, 0
1, 84957, Note_on_c, 12, 81, 0
1, 84960, Note_on_c, 7, 65, 68
1, 84960, Note_on_c, 12, 79, 93
1, 85198, Note_on_c, 12, 79, 0
1, 85200, Note_on_c, 12, 77, 77
1, 85348, Note_on_c, 8, 55, 0
1, 85426, Note_on_c, 7, 65, 0
1, 85438, Note_on_c, 12, 77, 0
1, 85440, Note_on_c, 7, 72, 80
1, 85440, Note_on_c, 8, 57, 106
1, 85440, Note_on_c, 12, 76, 84
1, 85440, Control_c, 12, 1, 2
1, 85475, Note_on_c, 7, 76, 82
1, 85510, Note_on_c, 7, 79, 84
1, 85520, Control_c, 12, 1, 13
1, 85600, Note_on_c, 7, 72, 0
1, 85600, Control_c, 12, 1, 25
1, 85635, Note_on_c, 7, 76, 0
1, 85680, Control_c, 12, 1, 38
1, 85760, Control_c, 12, 1, 45
1, 85840, Control_c, 12, 1, 55
1, 85910, Note_on_c, 7, 79, 0
1, 85920, Note_on_c, 7, 76, 74
1, 86308, Note_on_c, 8, 57, 0
1, 86386, Note_on_c, 7, 76, 0
1, 86395, Note_on_c, 12, 76, 0
1, 86395, Pitch_bend_c, 12, 8192
1, 86395, Control_c, 12, 1, 0
1, 86400, Note_on_c, 7, 74, 72
1, 86400, Note_on_c, 8, 59, 106
1, 86400, Note_on_c, 12, 77, 74
1, 86435, Note_on_c, 7, 77, 74
1, 86470, Note_on_c, 7, 81, 75
1, 86560, Note_on_c, 7, 74, 0
1, 86595, Note_on_c, 7, 77, 0
1, 86870, Note_on_c, 1, 96, 0
1, 86877, Note_on_c, 12, 77, 0
1, 86880, Note_on_c, 1, 96, 67
1, 86880, Note_on_c, 12, 76, 91
1, 87043, Note_on_c, 7, 81, 0
1, 87118, Note_on_c, 12, 76, 0
1, 87120, Note_on_c, 12, 74, 83
1, 87268, Note_on_c, 8, 59, 0
1, 87350, Control_c, 2, 11, 80
1, 87358, Note_on_c, 12, 74, 0
1, 87360, Note_on_c, 7, 72, 75
1, 87360, Note_on_c, 8, 60, 106
1, 87360, Note_on_c, 12, 72, 91
1, 87360, Control_c, 12, 1, 2
1, 87360, Control_c, 12, 1, 2
1, 87395, Note_on_c, 7, 76, 75
1, 87430, Note_on_c, 7, 81, 76
1, 87440, Control_c, 2, 11, 81
1, 87440, Control_c, 12, 1, 13
1, 87440, Control_c, 12, 1, 13
1, 87520, Note_on_c, 7, 72, 0
1, 87520, Control_c, 12, 1, 25
1, 87520, Control_c, 12, 1, 25
1, 87530, Control_c, 2, 11, 82
1, 87555, Note_on_c, 7, 76, 0
1, 87600, Control_c, 12, 1, 38
1, 87600, Control_c, 12, 1, 38
1, 87620, Control_c, 2, 11, 83
1, 87680, Control_c, 2, 11, 84
1, 87680, Control_c, 12, 1, 45
1, 87680, Control_c, 12, 1, 45
1, 87760, Control_c, 12, 1, 55
1, 87760, Control_c, 12, 1, 55
1, 87770, Control_c, 2, 11, 85
1, 87840, Note_on_c, 2, 79, 110
1, 87840, Note_on_c, 11, 79, 94
1, 87860, Control_c, 2, 11, 86
1, 87920, Control_c, 2, 11, 87
1, 88003, Note_on_c, 7, 81, 0
1, 88010, Control_c, 2, 11, 88
1, 88100, Control_c, 2, 11, 89
1, 88160, Control_c, 2, 11, 90
1, 88228, Note_on_c, 8, 60, 0
1, 88250, Control_c, 2, 11, 91
1, 88315, Note_on_c, 12, 72, 0
1, 88315, Pitch_bend_c, 12, 8192
1, 88315, Control_c, 12, 1, 0
1, 88315, Pitch_bend_c, 12, 8192
1, 88315, Control_c, 12, 1, 0
1, 88317, Note_on_c, 2, 79, 0
1, 88317, Note_on_c, 11, 79, 0
1, 88320, Note_on_c, 2, 81, 110
1, 88320, Control_c, 6, 64, 65
1, 88320, Note_on_c, 7, 74, 75
1, 88320, Note_on_c, 8, 58, 106
1, 88320, Note_on_c, 11, 81, 102
1, 88320, Control_c, 11, 1, 2
1, 88320, Note_on_c, 12, 74, 88
1, 88340, Control_c, 2, 11, 92
1, 88355, Note_on_c, 7, 77, 75
1, 88390, Note_on_c, 7, 81, 76
1, 88400, Control_c, 2, 11, 93
1, 88400, Control_c, 11, 1, 13
1, 88480, Note_on_c, 7, 74, 0
1, 88480, Control_c, 11, 1, 25
1, 88490, Control_c, 2, 11, 94
1, 88515, Note_on_c, 7, 77, 0
1, 88560, Control_c, 11, 1, 38
1, 88580, Control_c, 2, 11, 95
1, 88640, Control_c, 2, 11, 96
1, 88640, Control_c, 11, 1, 45
1, 88720, Control_c, 11, 1, 55
1, 88730, Control_c, 2, 11, 97
1, 88797, Note_on_c, 12, 74, 0
1, 88800, Note_on_c, 12, 76, 99
1, 88820, Control_c, 2, 11, 98
1, 88880, Control_c, 2, 11, 99
1, 88963, Note_on_c, 7, 81, 0
1, 88970, Control_c, 2, 11, 100
1, 89038, Note_on_c, 12, 76, 0
1, 89040, Note_on_c, 12, 77, 107
1, 89060, Control_c, 2, 11, 101
1, 89120, Control_c, 2, 11, 102
1, 89188, Note_on_c, 8, 58, 0
1, 89210, Control_c, 2, 11, 103
1, 89278, Note_on_c, 12, 77, 0
1, 89280, Note_on_c, 7, 72, 73
1, 89280, Note_on_c, 8, 57, 106
1, 89280, Note_on_c, 12, 76, 93
1, 89300, Control_c, 2, 11, 104
1, 89315, Note_on_c, 7, 76, 74
1, 89350, Note_on_c, 7, 81, 74
1, 89360, Control_c, 2, 11, 105
1, 89440, Note_on_c, 7, 72, 0
1, 89475, Note_on_c, 7, 76, 0
1, 89757, Note_on_c, 12, 76, 0
1, 89760, Note_on_c, 6, 55, 69
1, 89760, Note_on_c, 12, 77, 103
1, 89820, Note_on_c, 6, 55, 0
1, 89820, Note_on_c, 6, 57, 72
1, 89880, Note_on_c, 6, 57, 0
1, 89880, Note_on_c, 6, 58, 75
1, 89923, Note_on_c, 7, 81, 0
1, 89940, Note_on_c, 6, 58, 0
1, 89940, Note_on_c, 6, 60, 77
1, 89998, Note_on_c, 12, 77, 0
1, 90000, Note_on_c, 6, 60, 0
1, 90000, Note_on_c, 6, 62, 80
1, 90000, Note_on_c, 12, 79, 98
1, 90060, Note_on_c, 6, 62, 0
1, 90060, Note_on_c, 6, 64, 83
1, 90120, Note_on_c, 6, 64, 0
1, 90120, Note_on_c, 6, 65, 86
1, 90148, Note_on_c, 8, 57, 0
1, 90180, Note_on_c, 6, 65, 0
1, 90180, Note_on_c, 6, 67, 88
1, 90230, Note_on_c, 2, 81, 0
1, 90230, Note_on_c, 11, 81, 0
1, 90230, Pitch_bend_c, 11, 8192
1, 90230, Control_c, 11, 1, 0
1, 90238, Note_on_c, 12, 79, 0
1, 90240, Note_on_c, 6, 67, 0
1, 90240, Note_on_c, 4, 43, 110
1, 90240, Note_on_c, 4, 65, 83
1, 90240, Note_on_c, 4, 55, 63
1, 90240, Note_on_c, 6, 69, 103
1, 90240, Note_on_c, 7, 65, 71
1, 90240, Note_on_c, 8, 55, 106
1, 90240, Note_on_c, 12, 81, 116
1, 90275, Note_on_c, 7, 70, 72
1, 90310, Note_on_c, 7, 74, 73
1, 90400, Note_on_c, 7, 65, 0
1, 90435, Note_on_c, 7, 70, 0
1, 90688, Note_on_c, 6, 69, 0
1, 90717, Note_on_c, 12, 81, 0
1, 90720, Note_on_c, 2, 79, 110
1, 90720, Control_c, 6, 64, 0
1, 90720, Note_on_c, 6, 70, 113
1, 90720, Note_on_c, 11, 79, 95
1, 90720, Note_on_c, 12, 82, 122
1, 90883, Note_on_c, 7, 74, 0
1, 90944, Note_on_c, 6, 70, 0
1, 90958, Note_on_c, 12, 82, 0
1, 90960, Note_on_c, 6, 69, 113
1, 90960, Note_on_c, 12, 81, 99
1, 91108, Note_on_c, 8, 55, 0
1, 91184, Note_on_c, 6, 69, 0
1, 91195, Note_on_c, 4, 43, 0
1, 91195, Note_on_c, 4, 65, 0
1, 91197, Note_on_c, 2, 79, 0
1, 91197, Note_on_c, 11, 79, 0
1, 91198, Note_on_c, 12, 81, 0
1, 91200, Note_on_c, 4, 55, 0
1, 91200, Note_on_c, 2, 84, 110
1, 91200, Note_on_c, 4, 48, 110
1, 91200, Note_on_c, 4, 64, 83
1, 91200, Note_on_c, 4, 60, 63
1, 91200, Note_on_c, 6, 67, 113
1, 91200, Note_on_c, 7, 67, 75
1, 91200, Note_on_c, 8, 60, 106
1, 91200, Note_on_c, 11, 84, 105
1, 91200, Note_on_c, 12, 79, 87
1, 91200, Control_c, 12, 1, 2
1, 91235, Note_on_c, 7, 72, 76
1, 91270, Note_on_c, 7, 76, 76
1, 91280, Control_c, 12, 1, 13
1, 91360, Note_on_c, 7, 67, 0
1, 91360, Control_c, 12, 1, 25
1, 91395, Note_on_c, 7, 72, 0
1, 91440, Control_c, 12, 1, 38
1, 91520, Control_c, 12, 1, 45
1, 91600, Control_c, 12, 1, 55
1, 91648, Note_on_c, 6, 67, 0
1, 91651, Note_on_c, 1, 96, 0
1, 91677, Note_on_c, 2, 84, 0
1, 91677, Note_on_c, 11, 84, 0
1, 91680, Note_on_c, 1, 96, 68
1, 91680, Note_on_c, 2, 82, 110
1, 91680, Note_on_c, 6, 65, 113
1, 91680, Note_on_c, 9, 49, 42
1, 91680, Note_on_c, 11, 82, 111
1, 91680, Note_on_c, 13, 48, 110
1, 91760, Note_on_c, 9, 49, 0
1, 91760, Note_on_c, 9, 49, 53
1, 91793, Note_on_c, 13, 48, 0
1, 91840, Note_on_c, 9, 49, 0
1, 91840, Note_on_c, 9, 49, 63
1, 91843, Note_on_c, 7, 76, 0
1, 91904, Note_on_c, 6, 65, 0
1, 91920, Note_on_c, 9, 49, 0
1, 91920, Note_on_c, 6, 67, 113
1, 91920, Note_on_c, 9, 49, 74
1, 91920, Note_on_c, 13, 48, 110
1, 91995, Note_on_c, 13, 48, 0
1, 92000, Note_on_c, 9, 49, 0
1, 92000, Note_on_c, 9, 49, 85
1, 92000, Note_on_c, 13, 48, 110
1, 92068, Note_on_c, 8, 60, 0
1, 92075, Note_on_c, 13, 48, 0
1, 92080, Note_on_c, 9, 49, 0
1, 92080, Note_on_c, 9, 49, 95
1, 92080, Note_on_c, 13, 48, 110
1, 92144, Note_on_c, 6, 67, 0
1, 92150, Control_c, 2, 11, 98
1, 92155, Note_on_c, 4, 48, 0
1, 92155, Note_on_c, 4, 64, 0
1, 92155, Note_on_c, 12, 79, 0
1, 92155, Note_on_c, 13, 48, 0
1, 92155, Pitch_bend_c, 12, 8192
1, 92155, Control_c, 12, 1, 0
1, 92157, Note_on_c, 2, 82, 0
1, 92157, Note_on_c, 11, 82, 0
1, 92160, Note_on_c, 4, 60, 0
1, 92160, Note_on_c, 9, 49, 0
1, 92160, Note_on_c, 2, 67, 110
1, 92160, Control_c, 3, 10, 65
1, 92160, Control_c, 3, 11, 85
1, 92160, Note_on_c, 4, 41, 110
1, 92160, Note_on_c, 4, 64, 83
1, 92160, Note_on_c, 4, 52, 58
1, 92160, Note_on_c, 7, 81, 80
1, 92160, Note_on_c, 9, 49, 109
1, 92160, Note_on_c, 11, 81, 107
1, 92160, Note_on_c, 12, 81, 98
1, 92160, Note_on_c, 13, 41, 110
1, 92584, Note_on_c, 7, 81, 0
1, 92613, Note_on_c, 13, 41, 0
1, 92637, Note_on_c, 11, 81, 0
1, 92637, Note_on_c, 12, 81, 0
1, 92640, Note_on_c, 7, 79, 80
1, 92640, Note_on_c, 11, 79, 96
1, 92640, Note_on_c, 12, 79, 93
1, 92852, Note_on_c, 7, 79, 0
1, 92878, Note_on_c, 11, 79, 0
1, 92878, Note_on_c, 12, 79, 0
1, 92880, Note_on_c, 7, 77, 80
1, 92880, Note_on_c, 11, 77, 92
1, 92880, Note_on_c, 12, 77, 77
1, 93092, Note_on_c, 7, 77, 0
1, 93118, Note_on_c, 11, 77, 0
1, 93118, Note_on_c, 12, 77, 0
1, 93120, Note_on_c, 9, 49, 0
1, 93120, Note_on_c, 7, 76, 80
1, 93120, Note_on_c, 11, 76, 99
1, 93120, Note_on_c, 12, 76, 94
1, 93544, Note_on_c, 7, 76, 0
1, 93597, Note_on_c, 11, 76, 0
1, 93597, Note_on_c, 12, 76, 0
1, 93600, Note_on_c, 7, 72, 80
1, 93600, Note_on_c, 11, 72, 82
1, 93600, Note_on_c, 12, 72, 80
1, 94024, Note_on_c, 7, 72, 0
1, 94042, Note_on_c, 1, 96, 0
1, 94070, Note_on_c, 2, 67, 0
1, 94070, Note_on_c, 4, 41, 0
1, 94077, Note_on_c, 11, 72, 0
1, 94077, Note_on_c, 12, 72, 0
1, 94080, Note_on_c, 4, 52, 0
1, 94080, Note_on_c, 1, 96, 65
1, 94080, Note_on_c, 2, 64, 110
1, 94080, Note_on_c, 3, 64, 71
1, 94080, Note_on_c, 4, 45, 110
1, 94080, Note_on_c, 4, 57, 58
1, 94080, Note_on_c, 11, 73, 97
1, 94080, Note_on_c, 12, 73, 84
1, 94318, Note_on_c, 11, 73, 0
1, 94318, Note_on_c, 12, 73, 0
1, 94320, Note_on_c, 11, 74, 97
1, 94320, Note_on_c, 12, 74, 88
1, 94552, Note_on_c, 3, 64, 0
1, 94557, Note_on_c, 2, 64, 0
1, 94558, Note_on_c, 11, 74, 0
1, 94558, Note_on_c, 12, 74, 0
1, 94560, Note_on_c, 2, 66, 110
1, 94560, Note_on_c, 3, 61, 71
1, 94560, Note_on_c, 11, 74, 97
1, 94560, Note_on_c, 12, 74, 96
1, 94560, Control_c, 12, 1, 2
1, 94640, Control_c, 12, 1, 13
1, 94720, Control_c, 12, 1, 25
1, 94800, Control_c, 12, 1, 38
1, 94880, Control_c, 12, 1, 45
1, 94960, Control_c, 12, 1, 55
1, 95032, Note_on_c, 3, 61, 0
1, 95040, Note_on_c, 3, 62, 71
1, 95990, Note_on_c, 4, 45, 0
1, 95990, Control_c, 2, 11, 56
1, 95992, Note_on_c, 2, 66, 0
1, 95992, Note_on_c, 11, 74, 0
1, 95992, Note_on_c, 12, 74, 0
1, 95992, Pitch_bend_c, 12, 8192
1, 95992, Control_c, 12, 1, 0
1, 96000, Note_on_c, 4, 57, 0
1, 96000, Note_on_c, 2, 78, 110
1, 96000, Note_on_c, 4, 47, 82
1, 96000, Note_on_c, 7, 86, 80
1, 96050, Control_c, 2, 11, 57
1, 96080, Control_c, 2, 11, 58
1, 96110, Control_c, 2, 11, 59
1, 96140, Control_c, 2, 11, 60
1, 96170, Control_c, 2, 11, 61
1, 96230, Control_c, 2, 11, 62
1, 96256, Note_on_c, 7, 86, 0
1, 96260, Control_c, 2, 11, 63
1, 96290, Control_c, 2, 11, 64
1, 96320, Control_c, 2, 11, 65
1, 96350, Control_c, 2, 11, 66
1, 96380, Control_c, 2, 11, 67
1, 96440, Control_c, 2, 11, 68
1, 96470, Control_c, 2, 11, 69
1, 96480, Note_on_c, 7, 88, 90
1, 96500, Control_c, 2, 11, 70
1, 96530, Control_c, 2, 11, 71
1, 96560, Control_c, 2, 11, 72
1, 96590, Control_c, 2, 11, 73
1, 96650, Control_c, 2, 11, 74
1, 96680, Control_c, 2, 11, 75
1, 96710, Control_c, 2, 11, 76
1, 96740, Control_c, 2, 11, 77
1, 96741, Note_on_c, 7, 88, 0
1, 96770, Control_c, 2, 11, 78
1, 96800, Control_c, 2, 11, 79
1, 96860, Control_c, 2, 11, 80
1, 96890, Control_c, 2, 11, 81
1, 96920, Control_c, 2, 11, 82
1, 96941, Note_on_c, 1, 96, 0
1, 96950, Control_c, 2, 11, 83
1, 96960, Note_on_c, 1, 96, 71
1, 96960, Note_on_c, 7, 85, 86
1, 96980, Control_c, 2, 11, 84
1, 97010, Control_c, 2, 11, 85
1, 97070, Control_c, 2, 11, 86
1, 97100, Control_c, 2, 11, 87
1, 97130, Control_c, 2, 11, 88
1, 97160, Control_c, 2, 11, 89
1, 97183, Note_on_c, 7, 85, 0
1, 97190, Control_c, 2, 11, 90
1, 97220, Control_c, 2, 11, 91
1, 97440, Note_on_c, 7, 86, 91
1, 97663, Note_on_c, 7, 86, 0
1, 97891, Note_on_c, 3, 62, 0
1, 97910, Note_on_c, 2, 78, 0
1, 97910, Note_on_c, 4, 47, 0
1, 97910, Note_on_c, 4, 64, 0
1, 97920, Note_on_c, 2, 69, 110
1, 97920, Note_on_c, 2, 65, 92
1, 97920, Note_on_c, 3, 62, 110
1, 97920, Control_c, 3, 11, 106
1, 97920, Note_on_c, 4, 46, 110
1, 97920, Note_on_c, 4, 58, 72
1, 97920, Control_c, 7, 10, 45
1, 97920, Note_on_c, 7, 69, 54
1, 97920, Note_on_c, 7, 65, 78
1, 97920, Note_on_c, 7, 62, 78
1, 97920, Note_on_c, 7, 57, 78
1, 97920, Control_c, 7, 11, 125
1, 97970, Control_c, 3, 11, 107
1, 98875, Note_on_c, 3, 62, 0
1, 98880, Note_on_c, 3, 64, 110
1, 98920, Note_on_c, 7, 69, 0
1, 98920, Note_on_c, 7, 65, 0
1, 98920, Note_on_c, 7, 62, 0
1, 98920, Note_on_c, 7, 57, 0
1, 99357, Note_on_c, 3, 64, 0
1, 99360, Note_on_c, 3, 65, 110
1, 99830, Note_on_c, 2, 69, 0
1, 99830, Note_on_c, 2, 65, 0
1, 99830, Note_on_c, 4, 46, 0
1, 99830, Note_on_c, 4, 58, 0
1, 99837, Note_on_c, 3, 65, 0
1, 99840, Note_on_c, 2, 69, 110
1, 99840, Note_on_c, 2, 65, 92
1, 99840, Note_on_c, 3, 64, 110
1, 99840, Note_on_c, 4, 50, 110
1, 99840, Note_on_c, 4, 62, 72
1, 99840, Note_on_c, 7, 69, 54
1, 99840, Note_on_c, 7, 64, 79
1, 99840, Note_on_c, 7, 60, 79
1, 99840, Note_on_c, 7, 67, 35
1, 99840, Note_on_c, 7, 57, 79
1, 100310, Note_on_c, 1, 96, 0
1, 100320, Note_on_c, 1, 96, 77
1, 100795, Note_on_c, 3, 64, 0
1, 100800, Note_on_c, 3, 65, 110
1, 100840, Note_on_c, 7, 69, 0
1, 100840, Note_on_c, 7, 64, 0
1, 100840, Note_on_c, 7, 60, 0
1, 100840, Note_on_c, 7, 67, 0
1, 100840, Note_on_c, 7, 57, 0
1, 101277, Note_on_c, 3, 65, 0
1, 101280, Note_on_c, 3, 67, 110
1, 101750, Note_on_c, 2, 69, 0
1, 101750, Note_on_c, 2, 65, 0
1, 101750, Note_on_c, 4, 50, 0
1, 101750, Note_on_c, 4, 62, 0
1, 101757, Note_on_c, 3, 67, 0
1, 101760, Note_on_c, 2, 69, 110
1, 101760, Note_on_c, 2, 65, 92
1, 101760, Note_on_c, 3, 69, 110
1, 101760, Note_on_c, 4, 46, 110
1, 101760, Note_on_c, 4, 58, 74
1, 101760, Note_on_c, 7, 57, 80
1, 101760, Note_on_c, 7, 62, 80
1, 101760, Note_on_c, 7, 65, 80
1, 101760, Note_on_c, 7, 69, 57
1, 102715, Note_on_c, 3, 69, 0
1, 102720, Note_on_c, 3, 67, 110
1, 102760, Note_on_c, 7, 57, 0
1, 102760, Note_on_c, 7, 62, 0
1, 102760, Note_on_c, 7, 65, 0
1, 102787, Note_on_c, 7, 69, 0
1, 103670, Note_on_c, 2, 69, 0
1, 103670, Note_on_c, 2, 65, 0
1, 103670, Note_on_c, 4, 46, 0
1, 103670, Note_on_c, 4, 58, 0
1, 103675, Note_on_c, 3, 67, 0
1, 103680, Note_on_c, 2, 72, 110
1, 103680, Note_on_c, 2, 69, 92
1, 103680, Note_on_c, 3, 65, 110
1, 103680, Note_on_c, 4, 50, 110
1, 103680, Note_on_c, 4, 62, 74
1, 103680, Note_on_c, 7, 65, 81
1, 103680, Note_on_c, 7, 62, 81
1, 103680, Note_on_c, 7, 69, 74
1, 103680, Note_on_c, 7, 57, 81
1, 104157, Note_on_c, 3, 65, 0
1, 104160, Note_on_c, 3, 64, 110
1, 104376, Note_on_c, 7, 69, 0
1, 104443, Note_on_c, 7, 65, 0
1, 104462, Note_on_c, 7, 62, 0
1, 104462, Note_on_c, 7, 57, 0
1, 104635, Note_on_c, 2, 69, 0
1, 104635, Note_on_c, 4, 50, 0
1, 104635, Note_on_c, 4, 62, 0
1, 104637, Note_on_c, 3, 64, 0
1, 104640, Note_on_c, 2, 67, 92
1, 104640, Note_on_c, 3, 62, 110
1, 104640, Note_on_c, 4, 48, 110
1, 104640, Note_on_c, 4, 60, 74
1, 104640, Note_on_c, 7, 67, 88
1, 104640, Note_on_c, 7, 62, 83
1, 104640, Note_on_c, 7, 57, 78
1, 105050, Note_on_c, 7, 62, 0
1, 105055, Note_on_c, 7, 67, 0
1, 105064, Note_on_c, 7, 57, 0
1, 105091, Note_on_c, 1, 96, 0
1, 105112, Note_on_c, 2, 72, 0
1, 105117, Note_on_c, 2, 67, 0
1, 105117, Note_on_c, 3, 62, 0
1, 105117, Note_on_c, 4, 48, 0
1, 105117, Note_on_c, 4, 60, 0
1, 105120, Note_on_c, 1, 96, 68
1, 105120, Note_on_c, 2, 77, 110
1, 105120, Note_on_c, 2, 69, 92
1, 105120, Note_on_c, 3, 57, 110
1, 105120, Note_on_c, 4, 41, 110
1, 105120, Note_on_c, 4, 55, 74
1, 105120, Note_on_c, 7, 69, 86
1, 105120, Note_on_c, 7, 65, 82
1, 105120, Note_on_c, 7, 60, 76
1, 105489, Note_on_c, 7, 69, 0
1, 105489, Note_on_c, 7, 65, 0
1, 105489, Note_on_c, 7, 60, 0
1, 105597, Note_on_c, 2, 77, 0
1, 105597, Note_on_c, 2, 69, 0
1, 105597, Note_on_c, 3, 57, 0
1, 105597, Note_on_c, 4, 41, 0
1, 105597, Note_on_c, 4, 55, 0
1, 105600, Note_on_c, 2, 69, 110
1, 105600, Note_on_c, 2, 77, 74
1, 105600, Note_on_c, 3, 62, 110
1, 105600, Control_c, 3, 11, 106
1, 105600, Note_on_c, 4, 46, 110
1, 105600, Note_on_c, 4, 58, 74
1, 105600, Note_on_c, 7, 69, 86
1, 105600, Note_on_c, 7, 65, 72
1, 105600, Note_on_c, 7, 62, 83
1, 105650, Control_c, 3, 11, 107
1, 106555, Note_on_c, 3, 62, 0
1, 106560, Note_on_c, 3, 64, 110
1, 106934, Note_on_c, 7, 69, 0
1, 106934, Note_on_c, 7, 65, 0
1, 106934, Note_on_c, 7, 62, 0
1, 107037, Note_on_c, 3, 64, 0
1, 107040, Note_on_c, 3, 65, 110
1, 107482, Note_on_c, 1, 96, 0
1, 107510, Note_on_c, 2, 69, 0
1, 107510, Note_on_c, 2, 77, 0
1, 107510, Note_on_c, 4, 46, 0
1, 107510, Note_on_c, 4, 58, 0
1, 107517, Note_on_c, 3, 65, 0
1, 107520, Note_on_c, 1, 96, 65
1, 107520, Note_on_c, 2, 69, 110
1, 107520, Note_on_c, 2, 76, 71
1, 107520, Note_on_c, 3, 64, 110
1, 107520, Note_on_c, 4, 48, 110
1, 107520, Note_on_c, 4, 60, 74
1, 107520, Note_on_c, 7, 67, 86
1, 107520, Note_on_c, 7, 64, 74
1, 107520, Note_on_c, 7, 60, 77
1, 107520, Note_on_c, 7, 55, 86
1, 108475, Note_on_c, 3, 64, 0
1, 108480, Note_on_c, 3, 65, 110
1, 108854, Note_on_c, 7, 67, 0
1, 108854, Note_on_c, 7, 64, 0
1, 108854, Note_on_c, 7, 60, 0
1, 108854, Note_on_c, 7, 55, 0
1, 108957, Note_on_c, 3, 65, 0
1, 108960, Note_on_c, 3, 67, 110
1, 109430, Note_on_c, 2, 69, 0
1, 109430, Note_on_c, 2, 76, 0
1, 109430, Note_on_c, 4, 48, 0
1, 109430, Note_on_c, 4, 60, 0
1, 109437, Note_on_c, 3, 67, 0
1, 109440, Note_on_c, 2, 69, 110
1, 109440, Note_on_c, 2, 74, 73
1, 109440, Note_on_c, 3, 69, 110
1, 109440, Note_on_c, 4, 47, 110
1, 109440, Note_on_c, 4, 62, 74
1, 109440, Note_on_c, 7, 69, 77
1, 109440, Note_on_c, 7, 62, 86
1, 109440, Note_on_c, 7, 64, 86
1, 109440, Note_on_c, 7, 57, 86
1, 110381, Note_on_c, 1, 96, 0
1, 110400, Note_on_c, 1, 96, 76
1, 110774, Note_on_c, 7, 69, 0
1, 110774, Note_on_c, 7, 62, 0
1, 110774, Note_on_c, 7, 64, 0
1, 110774, Note_on_c, 7, 57, 0
1, 111350, Note_on_c, 2, 69, 0
1, 111350, Note_on_c, 2, 74, 0
1, 111350, Note_on_c, 3, 69, 0
1, 111350, Note_on_c, 4, 47, 0
1, 111350, Note_on_c, 4, 62, 0
1, 111360, Note_on_c, 2, 69, 110
1, 111360, Note_on_c, 2, 74, 73
1, 111360, Note_on_c, 3, 62, 110
1, 111360, Note_on_c, 4, 43, 110
1, 111360, Note_on_c, 4, 57, 74
1, 111360, Note_on_c, 7, 58, 80
1, 111360, Note_on_c, 7, 62, 81
1, 111360, Note_on_c, 7, 69, 77
1, 111360, Note_on_c, 7, 55, 78
1, 112099, Note_on_c, 7, 58, 0
1, 112099, Note_on_c, 7, 62, 0
1, 112099, Note_on_c, 7, 69, 0
1, 112243, Note_on_c, 7, 55, 0
1, 112315, Note_on_c, 3, 62, 0
1, 112315, Note_on_c, 4, 43, 0
1, 112320, Note_on_c, 3, 69, 110
1, 112320, Note_on_c, 4, 48, 110
1, 112320, Note_on_c, 7, 69, 77
1, 112320, Note_on_c, 7, 64, 86
1, 112320, Note_on_c, 7, 60, 77
1, 112320, Note_on_c, 7, 57, 83
1, 112761, Note_on_c, 7, 69, 0
1, 112761, Note_on_c, 7, 64, 0
1, 112761, Note_on_c, 7, 60, 0
1, 112761, Note_on_c, 7, 57, 0
1, 112800, Note_on_c, 7, 67, 80
1, 113241, Note_on_c, 7, 67, 0
1, 113270, Note_on_c, 2, 69, 0
1, 113270, Note_on_c, 2, 74, 0
1, 113270, Note_on_c, 4, 57, 0
1, 113270, Control_c, 3, 11, 100
1, 113275, Note_on_c, 3, 69, 0
1, 113275, Note_on_c, 4, 48, 0
1, 113280, Note_on_c, 2, 69, 110
1, 113280, Note_on_c, 2, 65, 92
1, 113280, Note_on_c, 3, 62, 110
1, 113280, Note_on_c, 4, 46, 110
1, 113280, Note_on_c, 4, 58, 72
1, 113280, Note_on_c, 7, 46, 83
1, 113280, Note_on_c, 9, 36, 100
1, 113280, Note_on_c, 11, 74, 110
1, 113280, Control_c, 11, 11, 106
1, 113280, Note_on_c, 14, 40, 122
1, 113330, Control_c, 11, 11, 107
1, 113497, Note_on_c, 7, 46, 0
1, 113520, Note_on_c, 7, 50, 83
1, 113714, Note_on_c, 9, 36, 0
1, 113714, Note_on_c, 14, 40, 0
1, 113737, Note_on_c, 7, 50, 0
1, 113750, Note_on_c, 1, 96, 0
1, 113760, Note_on_c, 1, 96, 67
1, 113760, Note_on_c, 7, 58, 83
1, 113760, Note_on_c, 9, 36, 100
1, 113760, Note_on_c, 14, 40, 120
1, 113977, Note_on_c, 7, 58, 0
1, 114000, Note_on_c, 7, 62, 83
1, 114194, Note_on_c, 9, 36, 0
1, 114194, Note_on_c, 14, 40, 0
1, 114217, Note_on_c, 7, 62, 0
1, 114235, Note_on_c, 3, 62, 0
1, 114235, Note_on_c, 11, 74, 0
1, 114240, Note_on_c, 0, 54, 100
1, 114240, Note_on_c, 3, 64, 110
1, 114240, Note_on_c, 7, 65, 83
1, 114240, Note_on_c, 11, 76, 110
1, 114240, Note_on_c, 15, 79, 100
1, 114457, Note_on_c, 7, 65, 0
1, 114480, Note_on_c, 7, 62, 83
1, 114697, Note_on_c, 7, 62, 0
1, 114717, Note_on_c, 3, 64, 0
1, 114717, Note_on_c, 11, 76, 0
1, 114720, Note_on_c, 3, 65, 110
1, 114720, Note_on_c, 7, 58, 83
1, 114720, Note_on_c, 11, 77, 110
1, 114891, Note_on_c, 0, 54, 0
1, 114891, Note_on_c, 15, 79, 0
1, 114937, Note_on_c, 7, 58, 0
1, 114960, Note_on_c, 7, 53, 83
1, 115177, Note_on_c, 7, 53, 0
1, 115190, Note_on_c, 2, 69, 0
1, 115190, Note_on_c, 2, 65, 0
1, 115190, Note_on_c, 4, 46, 0
1, 115190, Note_on_c, 4, 58, 0
1, 115197, Note_on_c, 3, 65, 0
1, 115197, Note_on_c, 11, 77, 0
1, 115200, Note_on_c, 2, 69, 110
1, 115200, Note_on_c, 2, 65, 92
1, 115200, Note_on_c, 3, 64, 110
1, 115200, Note_on_c, 4, 50, 110
1, 115200, Note_on_c, 4, 62, 72
1, 115200, Note_on_c, 7, 50, 83
1, 115200, Note_on_c, 9, 36, 100
1, 115200, Note_on_c, 11, 76, 110
1, 115200, Note_on_c, 14, 40, 120
1, 115417, Note_on_c, 7, 50, 0
1, 115440, Note_on_c, 7, 57, 83
1, 115634, Note_on_c, 9, 36, 0
1, 115634, Note_on_c, 14, 40, 0
1, 115657, Note_on_c, 7, 57, 0
1, 115680, Note_on_c, 7, 62, 83
1, 115680, Note_on_c, 9, 36, 100
1, 115680, Note_on_c, 14, 40, 120
1, 115897, Note_on_c, 7, 62, 0
1, 115920, Note_on_c, 7, 67, 83
1, 116114, Note_on_c, 9, 36, 0
1, 116114, Note_on_c, 14, 40, 0
1, 116137, Note_on_c, 7, 67, 0
1, 116155, Note_on_c, 3, 64, 0
1, 116155, Note_on_c, 11, 76, 0
1, 116160, Note_on_c, 0, 54, 100
1, 116160, Note_on_c, 3, 65, 110
1, 116160, Note_on_c, 11, 77, 110
1, 116160, Note_on_c, 15, 79, 100
1, 116400, Note_on_c, 7, 67, 83
1, 116617, Note_on_c, 7, 67, 0
1, 116637, Note_on_c, 3, 65, 0
1, 116637, Note_on_c, 11, 77, 0
1, 116640, Note_on_c, 3, 67, 110
1, 116640, Note_on_c, 7, 62, 83
1, 116640, Note_on_c, 11, 79, 110
1, 116811, Note_on_c, 0, 54, 0
1, 116811, Note_on_c, 15, 79, 0
1, 116857, Note_on_c, 7, 62, 0
1, 116880, Note_on_c, 7, 57, 83
1, 117097, Note_on_c, 7, 57, 0
1, 117110, Note_on_c, 2, 69, 0
1, 117110, Note_on_c, 2, 65, 0
1, 117110, Note_on_c, 4, 50, 0
1, 117110, Note_on_c, 4, 62, 0
1, 117117, Note_on_c, 3, 67, 0
1, 117117, Note_on_c, 11, 79, 0
1, 117120, Note_on_c, 2, 69, 110
1, 117120, Note_on_c, 2, 65, 92
1, 117120, Note_on_c, 3, 69, 110
1, 117120, Note_on_c, 4, 46, 110
1, 117120, Note_on_c, 4, 58, 74
1, 117120, Note_on_c, 7, 46, 83
1, 117120, Note_on_c, 9, 36, 100
1, 117120, Note_on_c, 11, 81, 110
1, 117120, Note_on_c, 14, 40, 122
1, 117337, Note_on_c, 7, 46, 0
1, 117360, Note_on_c, 7, 50, 83
1, 117554, Note_on_c, 9, 36, 0
1, 117554, Note_on_c, 14, 40, 0
1, 117577, Note_on_c, 7, 50, 0
1, 117600, Note_on_c, 7, 58, 83
1, 117600, Note_on_c, 9, 36, 100
1, 117600, Note_on_c, 14, 40, 120
1, 117817, Note_on_c, 7, 58, 0
1, 117840, Note_on_c, 7, 62, 83
1, 118034, Note_on_c, 9, 36, 0
1, 118034, Note_on_c, 14, 40, 0
1, 118057, Note_on_c, 7, 62, 0
1, 118075, Note_on_c, 3, 69, 0
1, 118075, Note_on_c, 11, 81, 0
1, 118080, Note_on_c, 0, 54, 100
1, 118080, Note_on_c, 3, 67, 110
1, 118080, Note_on_c, 7, 65, 83
1, 118080, Note_on_c, 11, 79, 110
1, 118080, Note_on_c, 15, 79, 100
1, 118297, Note_on_c, 7, 65, 0
1, 118320, Note_on_c, 7, 62, 83
1, 118531, Note_on_c, 1, 96, 0
1, 118537, Note_on_c, 7, 62, 0
1, 118560, Note_on_c, 1, 96, 78
1, 118560, Note_on_c, 7, 58, 83
1, 118731, Note_on_c, 0, 54, 0
1, 118731, Note_on_c, 15, 79, 0
1, 118777, Note_on_c, 7, 58, 0
1, 118800, Note_on_c, 7, 53, 83
1, 119017, Note_on_c, 7, 53, 0
1, 119030, Note_on_c, 2, 69, 0
1, 119030, Note_on_c, 2, 65, 0
1, 119030, Note_on_c, 4, 46, 0
1, 119030, Note_on_c, 4, 58, 0
1, 119035, Note_on_c, 3, 67, 0
1, 119035, Note_on_c, 11, 79, 0
1, 119040, Note_on_c, 2, 72, 110
1, 119040, Note_on_c, 2, 69, 92
1, 119040, Note_on_c, 3, 65, 110
1, 119040, Note_on_c, 4, 50, 110
1, 119040, Note_on_c, 4, 62, 74
1, 119040, Note_on_c, 7, 50, 83
1, 119040, Note_on_c, 9, 36, 100
1, 119040, Note_on_c, 11, 77, 110
1, 119040, Note_on_c, 14, 40, 120
1, 119257, Note_on_c, 7, 50, 0
1, 119280, Note_on_c, 7, 57, 83
1, 119474, Note_on_c, 9, 36, 0
1, 119474, Note_on_c, 14, 40, 0
1, 119497, Note_on_c, 7, 57, 0
1, 119517, Note_on_c, 3, 65, 0
1, 119517, Note_on_c, 11, 77, 0
1, 119520, Note_on_c, 3, 64, 110
1, 119520, Note_on_c, 7, 62, 83
1, 119520, Note_on_c, 9, 36, 100
1, 119520, Note_on_c, 11, 76, 110
1, 119520, Note_on_c, 14, 40, 120
1, 119737, Note_on_c, 7, 62, 0
1, 119760, Note_on_c, 7, 67, 83
1, 119954, Note_on_c, 9, 36, 0
1, 119954, Note_on_c, 14, 40, 0
1, 119995, Note_on_c, 2, 69, 0
1, 119995, Note_on_c, 4, 50, 0
1, 119995, Note_on_c, 4, 62, 0
1, 119997, Note_on_c, 3, 64, 0
1, 119997, Note_on_c, 11, 76, 0
1, 120000, Note_on_c, 0, 54, 100
1, 120000, Note_on_c, 2, 67, 92
1, 120000, Note_on_c, 3, 62, 110
1, 120000, Note_on_c, 4, 48, 110
1, 120000, Note_on_c, 4, 60, 74
1, 120000, Note_on_c, 11, 74, 110
1, 120000, Note_on_c, 15, 79, 100
1, 120126, Note_on_c, 7, 67, 0
1, 120240, Note_on_c, 7, 53, 83
1, 120457, Note_on_c, 7, 53, 0
1, 120472, Note_on_c, 2, 72, 0
1, 120477, Note_on_c, 2, 67, 0
1, 120477, Note_on_c, 3, 62, 0
1, 120477, Note_on_c, 4, 48, 0
1, 120477, Note_on_c, 4, 60, 0
1, 120477, Note_on_c, 11, 74, 0
1, 120480, Note_on_c, 2, 77, 110
1, 120480, Note_on_c, 2, 69, 92
1, 120480, Note_on_c, 3, 57, 110
1, 120480, Note_on_c, 4, 41, 110
1, 120480, Note_on_c, 4, 55, 74
1, 120480, Note_on_c, 7, 57, 83
1, 120480, Note_on_c, 11, 69, 110
1, 120651, Note_on_c, 0, 54, 0
1, 120651, Note_on_c, 15, 79, 0
1, 120697, Note_on_c, 7, 57, 0
1, 120720, Note_on_c, 7, 62, 83
1, 120922, Note_on_c, 1, 96, 0
1, 120937, Note_on_c, 7, 62, 0
1, 120957, Note_on_c, 2, 77, 0
1, 120957, Note_on_c, 2, 69, 0
1, 120957, Note_on_c, 3, 57, 0
1, 120957, Note_on_c, 4, 41, 0
1, 120957, Note_on_c, 4, 55, 0
1, 120957, Note_on_c, 11, 69, 0
1, 120960, Note_on_c, 1, 96, 65
1, 120960, Note_on_c, 2, 69, 110
1, 120960, Note_on_c, 2, 77, 74
1, 120960, Note_on_c, 3, 62, 110
1, 120960, Control_c, 3, 11, 106
1, 120960, Note_on_c, 4, 46, 110
1, 120960, Note_on_c, 4, 58, 74
1, 120960, Note_on_c, 7, 46, 83
1, 120960, Note_on_c, 9, 36, 100
1, 120960, Note_on_c, 11, 74, 110
1, 120960, Control_c, 11, 11, 106
1, 120960, Note_on_c, 14, 40, 122
1, 121010, Control_c, 3, 11, 107
1, 121010, Control_c, 11, 11, 107
1, 121177, Note_on_c, 7, 46, 0
1, 121200, Note_on_c, 7, 50, 83
1, 121394, Note_on_c, 9, 36, 0
1, 121394, Note_on_c, 14, 40, 0
1, 121417, Note_on_c, 7, 50, 0
1, 121440, Note_on_c, 7, 58, 83
1, 121440, Note_on_c, 9, 36, 100
1, 121440, Note_on_c, 14, 40, 120
1, 121657, Note_on_c, 7, 58, 0
1, 121680, Note_on_c, 7, 62, 83
1, 121874, Note_on_c, 9, 36, 0
1, 121874, Note_on_c, 14, 40, 0
1, 121897, Note_on_c, 7, 62, 0
1, 121915, Note_on_c, 3, 62, 0
1, 121915, Note_on_c, 11, 74, 0
1, 121920, Note_on_c, 0, 54, 100
1, 121920, Note_on_c, 3, 64, 110
1, 121920, Note_on_c, 7, 65, 83
1, 121920, Note_on_c, 11, 76, 110
1, 121920, Note_on_c, 15, 79, 100
1, 122137, Note_on_c, 7, 65, 0
1, 122160, Note_on_c, 7, 62, 83
1, 122377, Note_on_c, 7, 62, 0
1, 122397, Note_on_c, 3, 64, 0
1, 122397, Note_on_c, 11, 76, 0
1, 122400, Note_on_c, 3, 65, 110
1, 122400, Note_on_c, 7, 58, 83
1, 122400, Note_on_c, 11, 77, 110
1, 122571, Note_on_c, 0, 54, 0
1, 122571, Note_on_c, 15, 79, 0
1, 122617, Note_on_c, 7, 58, 0
1, 122640, Note_on_c, 7, 53, 83
1, 122857, Note_on_c, 7, 53, 0
1, 122870, Note_on_c, 2, 69, 0
1, 122870, Note_on_c, 2, 77, 0
1, 122870, Note_on_c, 4, 46, 0
1, 122870, Note_on_c, 4, 58, 0
1, 122877, Note_on_c, 3, 65, 0
1, 122877, Note_on_c, 11, 77, 0
1, 122880, Note_on_c, 2, 69, 110
1, 122880, Note_on_c, 2, 76, 71
1, 122880, Note_on_c, 3, 64, 110
1, 122880, Note_on_c, 4, 48, 110
1, 122880, Note_on_c, 4, 60, 74
1, 122880, Note_on_c, 7, 48, 83
1, 122880, Note_on_c, 9, 36, 100
1, 122880, Note_on_c, 11, 76, 110
1, 122880, Note_on_c, 14, 40, 120
1, 123097, Note_on_c, 7, 48, 0
1, 123120, Note_on_c, 7, 55, 83
1, 123314, Note_on_c, 9, 36, 0
1, 123314, Note_on_c, 14, 40, 0
1, 123337, Note_on_c, 7, 55, 0
1, 123360, Note_on_c, 7, 58, 83
1, 123360, Note_on_c, 9, 36, 100
1, 123360, Note_on_c, 14, 40, 120
1, 123577, Note_on_c, 7, 58, 0
1, 123600, Note_on_c, 7, 62, 83
1, 123794, Note_on_c, 9, 36, 0
1, 123794, Note_on_c, 14, 40, 0
1, 123817, Note_on_c, 7, 62, 0
1, 123821, Note_on_c, 1, 96, 0
1, 123835, Note_on_c, 3, 64, 0
1, 123835, Note_on_c, 11, 76, 0
1, 123840, Note_on_c, 0, 54, 100
1, 123840, Note_on_c, 1, 96, 70
1, 123840, Note_on_c, 3, 65, 110
1, 123840, Note_on_c, 7, 65, 83
1, 123840, Note_on_c, 11, 77, 110
1, 123840, Note_on_c, 15, 79, 100
1, 124057, Note_on_c, 7, 65, 0
1, 124080, Note_on_c, 7, 62, 83
1, 124297, Note_on_c, 7, 62, 0
1, 124317, Note_on_c, 3, 65, 0
1, 124317, Note_on_c, 11, 77, 0
1, 124320, Note_on_c, 3, 67, 110
1, 124320, Note_on_c, 7, 58, 83
1, 124320, Note_on_c, 11, 79, 110
1, 124491, Note_on_c, 0, 54, 0
1, 124491, Note_on_c, 15, 79, 0
1, 124537, Note_on_c, 7, 58, 0
1, 124560, Note_on_c, 7, 55, 83
1, 124777, Note_on_c, 7, 55, 0
1, 124790, Note_on_c, 2, 69, 0
1, 124790, Note_on_c, 2, 76, 0
1, 124790, Note_on_c, 4, 48, 0
1, 124790, Note_on_c, 4, 60, 0
1, 124797, Note_on_c, 3, 67, 0
1, 124797, Note_on_c, 11, 79, 0
1, 124800, Note_on_c, 2, 69, 110
1, 124800, Note_on_c, 2, 74, 73
1, 124800, Note_on_c, 3, 69, 110
1, 124800, Note_on_c, 4, 47, 110
1, 124800, Note_on_c, 4, 62, 74
1, 124800, Note_on_c, 7, 47, 83
1, 124800, Note_on_c, 9, 36, 100
1, 124800, Note_on_c, 11, 81, 110
1, 124800, Note_on_c, 14, 40, 122
1, 125017, Note_on_c, 7, 47, 0
1, 125040, Note_on_c, 7, 50, 83
1, 125234, Note_on_c, 9, 36, 0
1, 125234, Note_on_c, 14, 40, 0
1, 125257, Note_on_c, 7, 50, 0
1, 125280, Note_on_c, 7, 57, 83
1, 125280, Note_on_c, 9, 36, 100
1, 125280, Note_on_c, 14, 40, 120
1, 125497, Note_on_c, 7, 57, 0
1, 125520, Note_on_c, 7, 62, 83
1, 125714, Note_on_c, 9, 36, 0
1, 125714, Note_on_c, 14, 40, 0
1, 125737, Note_on_c, 7, 62, 0
1, 125760, Note_on_c, 0, 54, 100
1, 125760, Note_on_c, 7, 65, 83
1, 125760, Note_on_c, 15, 79, 100
1, 125977, Note_on_c, 7, 65, 0
1, 126000, Note_on_c, 7, 62, 83
1, 126217, Note_on_c, 7, 62, 0
1, 126240, Note_on_c, 7, 57, 83
1, 126411, Note_on_c, 0, 54, 0
1, 126411, Note_on_c, 15, 79, 0
1, 126457, Note_on_c, 7, 57, 0
1, 126480, Note_on_c, 7, 50, 83
1, 126697, Note_on_c, 7, 50, 0
1, 126710, Note_on_c, 2, 69, 0
1, 126710, Note_on_c, 2, 74, 0
1, 126710, Note_on_c, 3, 69, 0
1, 126710, Note_on_c, 4, 47, 0
1, 126710, Note_on_c, 4, 62, 0
1, 126710, Note_on_c, 11, 81, 0
1, 126720, Note_on_c, 2, 69, 110
1, 126720, Note_on_c, 2, 74, 73
1, 126720, Note_on_c, 3, 62, 110
1, 126720, Note_on_c, 4, 43, 109
1, 126720, Note_on_c, 4, 57, 74
1, 126720, Note_on_c, 7, 46, 83
1, 126720, Note_on_c, 9, 36, 100
1, 126720, Note_on_c, 11, 74, 110
1, 126720, Note_on_c, 14, 40, 120
1, 126937, Note_on_c, 7, 46, 0
1, 126960, Note_on_c, 7, 50, 83
1, 127154, Note_on_c, 9, 36, 0
1, 127154, Note_on_c, 14, 40, 0
1, 127177, Note_on_c, 7, 50, 0
1, 127190, Note_on_c, 1, 96, 0
1, 127200, Note_on_c, 1, 96, 67
1, 127200, Note_on_c, 7, 53, 83
1, 127200, Note_on_c, 9, 36, 100
1, 127200, Note_on_c, 14, 40, 120
1, 127417, Note_on_c, 7, 53, 0
1, 127440, Note_on_c, 7, 58, 83
1, 127634, Note_on_c, 9, 36, 0
1, 127634, Note_on_c, 14, 40, 0
1, 127657, Note_on_c, 7, 58, 0
1, 127661, Note_on_c, 4, 43, 0
1, 127675, Note_on_c, 3, 62, 0
1, 127675, Note_on_c, 11, 74, 0
1, 127680, Note_on_c, 0, 54, 100
1, 127680, Note_on_c, 3, 69, 110
1, 127680, Note_on_c, 4, 48, 109
1, 127680, Note_on_c, 7, 48, 83
1, 127680, Note_on_c, 11, 81, 110
1, 127680, Note_on_c, 15, 79, 100
1, 127897, Note_on_c, 7, 48, 0
1, 127920, Note_on_c, 7, 55, 83
1, 128137, Note_on_c, 7, 55, 0
1, 128160, Note_on_c, 7, 60, 83
1, 128331, Note_on_c, 0, 54, 0
1, 128331, Note_on_c, 15, 79, 0
1, 128377, Note_on_c, 7, 60, 0
1, 128400, Note_on_c, 7, 67, 83
1, 128617, Note_on_c, 7, 67, 0
1, 128621, Note_on_c, 4, 48, 0
1, 128630, Note_on_c, 2, 69, 0
1, 128630, Note_on_c, 2, 74, 0
1, 128630, Note_on_c, 4, 57, 0
1, 128635, Note_on_c, 3, 69, 0
1, 128635, Note_on_c, 11, 81, 0
1, 128640, Note_on_c, 2, 65, 77
1, 128640, Note_on_c, 2, 69, 109
1, 128640, Note_on_c, 4, 58, 77
1, 128640, Note_on_c, 4, 46, 110
1, 128640, Note_on_c, 7, 69, 80
1, 128640, Control_c, 7, 11, 118
1, 128640, Note_on_c, 12, 69, 80
1, 128670, Control_c, 7, 11, 118
1, 128700, Control_c, 7, 11, 118
1, 128730, Control_c, 7, 11, 118
1, 128760, Control_c, 7, 11, 118
1, 128790, Control_c, 7, 11, 118
1, 128820, Control_c, 7, 11, 118
1, 128850, Control_c, 7, 11, 118
1, 128880, Control_c, 7, 11, 118
1, 128910, Control_c, 7, 11, 118
1, 128940, Control_c, 7, 11, 118
1, 128970, Control_c, 7, 11, 118
1, 129000, Control_c, 7, 11, 118
1, 129030, Control_c, 7, 11, 118
1, 129060, Control_c, 7, 11, 118
1, 129090, Control_c, 7, 11, 118
1, 129110, Note_on_c, 7, 69, 0
1, 129110, Note_on_c, 12, 69, 0
1, 129120, Note_on_c, 7, 72, 100
1, 129120, Control_c, 7, 11, 118
1, 129120, Note_on_c, 12, 72, 100
1, 129150, Control_c, 7, 11, 118
1, 129180, Control_c, 7, 11, 118
1, 129210, Control_c, 7, 11, 118
1, 129240, Control_c, 7, 11, 118
1, 129270, Control_c, 7, 11, 118
1, 129300, Control_c, 7, 11, 118
1, 129330, Control_c, 7, 11, 118
1, 129360, Control_c, 7, 11, 118
1, 129390, Control_c, 7, 11, 118
1, 129420, Control_c, 7, 11, 118
1, 129450, Control_c, 7, 11, 118
1, 129480, Control_c, 7, 11, 118
1, 129510, Control_c, 7, 11, 118
1, 129540, Control_c, 7, 11, 118
1, 129570, Control_c, 7, 11, 118
1, 129590, Note_on_c, 7, 72, 0
1, 129590, Note_on_c, 12, 72, 0
1, 129600, Note_on_c, 7, 67, 83
1, 129600, Control_c, 7, 11, 118
1, 129600, Note_on_c, 12, 67, 83
1, 129630, Control_c, 7, 11, 118
1, 129660, Control_c, 7, 11, 118
1, 129690, Control_c, 7, 11, 118
1, 129720, Control_c, 7, 11, 118
1, 129750, Control_c, 7, 11, 118
1, 129780, Control_c, 7, 11, 118
1, 129810, Control_c, 7, 11, 118
1, 129840, Control_c, 7, 11, 118
1, 129870, Control_c, 7, 11, 118
1, 129900, Control_c, 7, 11, 118
1, 129930, Control_c, 7, 11, 118
1, 129960, Control_c, 7, 11, 118
1, 129990, Control_c, 7, 11, 118
1, 130020, Control_c, 7, 11, 118
1, 130050, Control_c, 7, 11, 118
1, 130080, Control_c, 7, 11, 118
1, 130110, Control_c, 7, 11, 118
1, 130140, Control_c, 7, 11, 118
1, 130170, Control_c, 7, 11, 118
1, 130200, Control_c, 7, 11, 118
1, 130230, Control_c, 7, 11, 118
1, 130260, Control_c, 7, 11, 118
1, 130290, Control_c, 7, 11, 118
1, 130320, Control_c, 7, 11, 118
1, 130350, Control_c, 7, 11, 118
1, 130380, Control_c, 7, 11, 118
1, 130410, Control_c, 7, 11, 118
1, 130440, Control_c, 7, 11, 118
1, 130470, Control_c, 7, 11, 118
1, 130500, Control_c, 7, 11, 118
1, 130522, Note_on_c, 2, 65, 0
1, 130522, Note_on_c, 4, 58, 0
1, 130522, Note_on_c, 4, 46, 0
1, 130530, Control_c, 7, 11, 118
1, 130541, Note_on_c, 7, 67, 0
1, 130541, Note_on_c, 12, 67, 0
1, 130560, Note_on_c, 2, 64, 78
1, 130560, Note_on_c, 4, 60, 77
1, 130560, Note_on_c, 4, 48, 110
1, 130560, Note_on_c, 7, 69, 96
1, 130560, Control_c, 7, 11, 118
1, 130560, Note_on_c, 12, 69, 96
1, 130590, Control_c, 7, 11, 118
1, 130620, Control_c, 7, 11, 118
1, 130650, Control_c, 7, 11, 118
1, 130680, Control_c, 7, 11, 118
1, 130710, Control_c, 7, 11, 118
1, 130740, Control_c, 7, 11, 118
1, 130770, Control_c, 7, 11, 118
1, 130800, Control_c, 7, 11, 118
1, 130830, Control_c, 7, 11, 118
1, 130860, Control_c, 7, 11, 118
1, 130890, Control_c, 7, 11, 118
1, 130920, Control_c, 7, 11, 118
1, 130950, Control_c, 7, 11, 118
1, 131030, Note_on_c, 7, 69, 0
1, 131030, Note_on_c, 12, 69, 0
1, 131040, Note_on_c, 7, 67, 86
1, 131040, Note_on_c, 12, 67, 86
1, 131275, Note_on_c, 7, 67, 0
1, 131275, Note_on_c, 12, 67, 0
1, 131280, Note_on_c, 7, 65, 78
1, 131280, Note_on_c, 12, 65, 78
1, 131515, Note_on_c, 7, 65, 0
1, 131515, Note_on_c, 12, 65, 0
1, 131520, Note_on_c, 7, 62, 74
1, 131520, Note_on_c, 12, 62, 74
1, 131755, Note_on_c, 7, 62, 0
1, 131755, Note_on_c, 12, 62, 0
1, 131760, Note_on_c, 7, 65, 80
1, 131760, Note_on_c, 12, 65, 80
1, 131971, Note_on_c, 1, 96, 0
1, 132000, Note_on_c, 1, 96, 68
1, 132235, Note_on_c, 7, 65, 0
1, 132235, Note_on_c, 12, 65, 0
1, 132240, Note_on_c, 7, 67, 79
1, 132240, Note_on_c, 12, 67, 79
1, 132442, Note_on_c, 2, 64, 0
1, 132442, Note_on_c, 4, 60, 0
1, 132442, Note_on_c, 4, 48, 0
1, 132475, Note_on_c, 7, 67, 0
1, 132475, Note_on_c, 12, 67, 0
1, 132480, Note_on_c, 2, 65, 76
1, 132480, Note_on_c, 4, 58, 77
1, 132480, Note_on_c, 4, 46, 110
1, 132480, Note_on_c, 7, 69, 86
1, 132480, Note_on_c, 12, 69, 86
1, 132950, Note_on_c, 7, 69, 0
1, 132950, Note_on_c, 12, 69, 0
1, 132960, Note_on_c, 7, 72, 94
1, 132960, Note_on_c, 12, 72, 94
1, 133430, Note_on_c, 7, 72, 0
1, 133430, Note_on_c, 12, 72, 0
1, 133440, Note_on_c, 7, 67, 86
1, 133440, Note_on_c, 12, 67, 86
1, 134146, Note_on_c, 7, 67, 0
1, 134146, Note_on_c, 12, 67, 0
1, 134160, Note_on_c, 7, 65, 89
1, 134160, Note_on_c, 12, 65, 89
1, 134278, Note_on_c, 7, 65, 0
1, 134278, Note_on_c, 12, 65, 0
1, 134280, Note_on_c, 7, 64, 81
1, 134280, Note_on_c, 12, 64, 81
1, 134362, Note_on_c, 2, 65, 0
1, 134362, Note_on_c, 2, 69, 0
1, 134362, Note_on_c, 4, 58, 0
1, 134362, Note_on_c, 4, 46, 0
1, 134362, Note_on_c, 1, 96, 0
1, 134398, Note_on_c, 7, 64, 0
1, 134398, Note_on_c, 12, 64, 0
1, 134400, Note_on_c, 1, 96, 65
1, 134400, Note_on_c, 2, 65, 77
1, 134400, Note_on_c, 2, 72, 109
1, 134400, Note_on_c, 4, 62, 77
1, 134400, Note_on_c, 4, 50, 110
1, 134400, Note_on_c, 7, 62, 104
1, 134400, Note_on_c, 12, 62, 104
1, 135341, Note_on_c, 2, 65, 0
1, 135341, Note_on_c, 2, 72, 0
1, 135341, Note_on_c, 4, 62, 0
1, 135341, Note_on_c, 4, 50, 0
1, 135360, Note_on_c, 2, 62, 77
1, 135360, Note_on_c, 2, 72, 110
1, 135360, Note_on_c, 4, 60, 77
1, 135360, Note_on_c, 4, 48, 110
1, 135595, Note_on_c, 7, 62, 0
1, 135595, Note_on_c, 12, 62, 0
1, 135816, Note_on_c, 2, 62, 0
1, 135826, Note_on_c, 4, 60, 0
1, 135830, Note_on_c, 2, 72, 0
1, 135830, Note_on_c, 4, 48, 0
1, 135840, Note_on_c, 2, 65, 77
1, 135840, Note_on_c, 2, 77, 110
1, 135840, Note_on_c, 4, 53, 77
1, 135840, Note_on_c, 4, 41, 110
1, 135840, Note_on_c, 7, 65, 82
1, 135840, Note_on_c, 12, 65, 82
1, 136075, Note_on_c, 7, 65, 0
1, 136075, Note_on_c, 12, 65, 0
1, 136080, Note_on_c, 7, 67, 88
1, 136080, Note_on_c, 12, 67, 88
1, 136296, Note_on_c, 4, 53, 0
1, 136310, Note_on_c, 2, 65, 0
1, 136310, Note_on_c, 2, 77, 0
1, 136310, Note_on_c, 4, 41, 0
1, 136315, Note_on_c, 7, 67, 0
1, 136315, Note_on_c, 12, 67, 0
1, 136320, Note_on_c, 2, 65, 79
1, 136320, Note_on_c, 2, 69, 110
1, 136320, Note_on_c, 4, 57, 79
1, 136320, Note_on_c, 4, 46, 110
1, 136320, Note_on_c, 7, 69, 104
1, 136320, Note_on_c, 11, 69, 104
1, 136320, Note_on_c, 12, 69, 104
1, 136790, Note_on_c, 7, 69, 0
1, 136790, Note_on_c, 11, 69, 0
1, 136790, Note_on_c, 12, 69, 0
1, 136800, Note_on_c, 7, 72, 100
1, 136800, Note_on_c, 11, 72, 100
1, 136800, Note_on_c, 12, 72, 100
1, 137261, Note_on_c, 1, 96, 0
1, 137270, Note_on_c, 7, 72, 0
1, 137270, Note_on_c, 11, 72, 0
1, 137270, Note_on_c, 12, 72, 0
1, 137280, Note_on_c, 1, 96, 68
1, 137280, Note_on_c, 7, 67, 89
1, 137280, Note_on_c, 11, 67, 89
1, 137280, Note_on_c, 12, 67, 89
1, 138202, Note_on_c, 2, 65, 0
1, 138202, Note_on_c, 4, 57, 0
1, 138202, Note_on_c, 4, 46, 0
1, 138221, Note_on_c, 7, 67, 0
1, 138221, Note_on_c, 11, 67, 0
1, 138221, Note_on_c, 12, 67, 0
1, 138240, Note_on_c, 2, 64, 79
1, 138240, Note_on_c, 4, 55, 79
1, 138240, Note_on_c, 4, 48, 110
1, 138240, Note_on_c, 7, 69, 100
1, 138240, Note_on_c, 11, 69, 100
1, 138240, Note_on_c, 12, 69, 100
1, 138710, Note_on_c, 7, 69, 0
1, 138710, Note_on_c, 11, 69, 0
1, 138710, Note_on_c, 12, 69, 0
1, 138720, Note_on_c, 7, 67, 91
1, 138720, Note_on_c, 11, 67, 91
1, 138720, Note_on_c, 12, 67, 91
1, 138955, Note_on_c, 7, 67, 0
1, 138955, Note_on_c, 11, 67, 0
1, 138955, Note_on_c, 12, 67, 0
1, 138960, Note_on_c, 7, 65, 85
1, 138960, Note_on_c, 11, 65, 85
1, 138960, Note_on_c, 12, 65, 85
1, 139195, Note_on_c, 7, 65, 0
1, 139195, Note_on_c, 11, 65, 0
1, 139195, Note_on_c, 12, 65, 0
1, 139200, Note_on_c, 7, 62, 75
1, 139200, Note_on_c, 11, 62, 75
1, 139200, Note_on_c, 12, 62, 75
1, 139435, Note_on_c, 7, 62, 0
1, 139435, Note_on_c, 11, 62, 0
1, 139435, Note_on_c, 12, 62, 0
1, 139440, Note_on_c, 7, 65, 81
1, 139440, Note_on_c, 11, 65, 81
1, 139440, Note_on_c, 12, 65, 81
1, 139915, Note_on_c, 7, 65, 0
1, 139915, Note_on_c, 11, 65, 0
1, 139915, Note_on_c, 12, 65, 0
1, 139920, Note_on_c, 7, 67, 100
1, 139920, Note_on_c, 11, 67, 100
1, 139920, Note_on_c, 12, 67, 100
1, 140122, Note_on_c, 2, 64, 0
1, 140122, Note_on_c, 4, 55, 0
1, 140122, Note_on_c, 4, 48, 0
1, 140155, Note_on_c, 7, 67, 0
1, 140155, Note_on_c, 11, 67, 0
1, 140155, Note_on_c, 12, 67, 0
1, 140160, Note_on_c, 2, 65, 79
1, 140160, Note_on_c, 4, 57, 79
1, 140160, Note_on_c, 4, 47, 110
1, 140160, Note_on_c, 7, 69, 100
1, 140160, Note_on_c, 11, 69, 100
1, 140160, Note_on_c, 12, 69, 100
1, 140630, Note_on_c, 1, 96, 0
1, 140630, Note_on_c, 7, 69, 0
1, 140630, Note_on_c, 11, 69, 0
1, 140630, Note_on_c, 12, 69, 0
1, 140640, Note_on_c, 1, 96, 77
1, 140640, Note_on_c, 7, 72, 100
1, 140640, Note_on_c, 11, 72, 100
1, 140640, Note_on_c, 12, 72, 100
1, 141110, Note_on_c, 7, 72, 0
1, 141110, Note_on_c, 11, 72, 0
1, 141110, Note_on_c, 12, 72, 0
1, 141120, Note_on_c, 7, 76, 108
1, 141120, Note_on_c, 11, 76, 108
1, 141120, Note_on_c, 12, 76, 108
1, 141590, Note_on_c, 7, 76, 0
1, 141590, Note_on_c, 11, 76, 0
1, 141590, Note_on_c, 12, 76, 0
1, 141600, Note_on_c, 7, 72, 105
1, 141600, Note_on_c, 11, 72, 105
1, 141600, Note_on_c, 12, 72, 105
1, 142042, Note_on_c, 2, 65, 0
1, 142042, Note_on_c, 4, 57, 0
1, 142042, Note_on_c, 4, 47, 0
1, 142070, Note_on_c, 7, 72, 0
1, 142070, Note_on_c, 11, 72, 0
1, 142070, Note_on_c, 12, 72, 0
1, 142080, Note_on_c, 2, 62, 76
1, 142080, Note_on_c, 4, 58, 77
1, 142080, Note_on_c, 4, 43, 111
1, 142080, Note_on_c, 7, 74, 102
1, 142080, Note_on_c, 11, 74, 102
1, 142080, Note_on_c, 12, 74, 102
1, 143021, Note_on_c, 2, 62, 0
1, 143021, Note_on_c, 4, 58, 0
1, 143021, Note_on_c, 4, 43, 0
1, 143040, Note_on_c, 2, 64, 76
1, 143040, Note_on_c, 4, 60, 77
1, 143040, Note_on_c, 4, 48, 111
1, 143520, Note_on_c, 9, 49, 26
1, 143520, Note_on_c, 13, 48, 63
1, 143530, Note_on_c, 9, 49, 0
1, 143579, Note_on_c, 13, 48, 0
1, 143580, Note_on_c, 9, 49, 38
1, 143580, Note_on_c, 13, 48, 69
1, 143590, Note_on_c, 9, 49, 0
1, 143639, Note_on_c, 13, 48, 0
1, 143640, Note_on_c, 9, 49, 49
1, 143640, Note_on_c, 13, 48, 75
1, 143650, Note_on_c, 9, 49, 0
1, 143674, Note_on_c, 7, 74, 0
1, 143674, Note_on_c, 11, 74, 0
1, 143674, Note_on_c, 12, 74, 0
1, 143699, Note_on_c, 13, 48, 0
1, 143700, Note_on_c, 9, 49, 60
1, 143700, Note_on_c, 13, 48, 81
1, 143710, Note_on_c, 9, 49, 0
1, 143759, Note_on_c, 13, 48, 0
1, 143760, Note_on_c, 9, 49, 72
1, 143760, Note_on_c, 13, 48, 87
1, 143770, Note_on_c, 9, 49, 0
1, 143819, Note_on_c, 13, 48, 0
1, 143820, Note_on_c, 9, 49, 83
1, 143820, Note_on_c, 13, 48, 94
1, 143830, Note_on_c, 9, 49, 0
1, 143879, Note_on_c, 13, 48, 0
1, 143880, Note_on_c, 9, 49, 94
1, 143880, Note_on_c, 13, 48, 100
1, 143890, Note_on_c, 9, 49, 0
1, 143939, Note_on_c, 13, 48, 0
1, 143940, Note_on_c, 9, 49, 100
1, 143940, Note_on_c, 13, 48, 100
1, 143950, Note_on_c, 9, 49, 0
1, 143962, Note_on_c, 2, 69, 0
1, 143981, Note_on_c, 2, 64, 0
1, 143981, Note_on_c, 4, 60, 0
1, 143981, Note_on_c, 4, 48, 0
1, 143999, Note_on_c, 13, 48, 0
1, 144000, Note_on_c, 2, 65, 77
1, 144000, Note_on_c, 2, 69, 109
1, 144000, Note_on_c, 4, 53, 77
1, 144000, Note_on_c, 4, 46, 110
1, 144000, Note_on_c, 7, 62, 80
1, 144000, Note_on_c, 7, 57, 92
1, 144000, Note_on_c, 7, 65, 103
1, 144000, Control_c, 7, 10, 33
1, 144000, Note_on_c, 9, 36, 100
1, 144000, Note_on_c, 9, 49, 110
1, 144000, Note_on_c, 11, 69, 80
1, 144000, Note_on_c, 12, 69, 80
1, 144000, Note_on_c, 13, 45, 110
1, 144000, Note_on_c, 14, 40, 122
1, 144010, Note_on_c, 9, 36, 0
1, 144010, Note_on_c, 9, 49, 0
1, 144029, Note_on_c, 7, 62, 0
1, 144029, Note_on_c, 7, 57, 0
1, 144029, Note_on_c, 7, 65, 0
1, 144030, Control_c, 7, 10, 33
1, 144060, Control_c, 7, 10, 33
1, 144240, Note_on_c, 7, 65, 103
1, 144240, Note_on_c, 7, 57, 91
1, 144240, Note_on_c, 7, 62, 80
1, 144269, Note_on_c, 7, 65, 0
1, 144269, Note_on_c, 7, 57, 0
1, 144269, Note_on_c, 7, 62, 0
1, 144434, Note_on_c, 14, 40, 0
1, 144470, Note_on_c, 11, 69, 0
1, 144470, Note_on_c, 12, 69, 0
1, 144470, Note_on_c, 13, 45, 0
1, 144480, Note_on_c, 7, 65, 103
1, 144480, Note_on_c, 7, 57, 93
1, 144480, Note_on_c, 7, 62, 80
1, 144480, Note_on_c, 9, 36, 100
1, 144480, Note_on_c, 11, 72, 100
1, 144480, Note_on_c, 12, 72, 100
1, 144480, Note_on_c, 14, 40, 120
1, 144490, Note_on_c, 9, 36, 0
1, 144509, Note_on_c, 7, 65, 0
1, 144509, Note_on_c, 7, 57, 0
1, 144509, Note_on_c, 7, 62, 0
1, 144720, Note_on_c, 7, 65, 103
1, 144720, Note_on_c, 7, 57, 94
1, 144720, Note_on_c, 7, 62, 80
1, 144749, Note_on_c, 7, 65, 0
1, 144749, Note_on_c, 7, 57, 0
1, 144749, Note_on_c, 7, 62, 0
1, 144914, Note_on_c, 14, 40, 0
1, 144950, Note_on_c, 11, 72, 0
1, 144950, Note_on_c, 12, 72, 0
1, 144960, Note_on_c, 0, 54, 100
1, 144960, Note_on_c, 7, 65, 103
1, 144960, Note_on_c, 7, 57, 93
1, 144960, Note_on_c, 7, 62, 80
1, 144960, Note_on_c, 11, 67, 83
1, 144960, Note_on_c, 12, 67, 83
1, 144960, Note_on_c, 15, 79, 100
1, 144989, Note_on_c, 7, 65, 0
1, 144989, Note_on_c, 7, 57, 0
1, 144989, Note_on_c, 7, 62, 0
1, 145200, Note_on_c, 7, 65, 103
1, 145200, Note_on_c, 7, 57, 95
1, 145200, Note_on_c, 7, 62, 80
1, 145229, Note_on_c, 7, 65, 0
1, 145229, Note_on_c, 7, 57, 0
1, 145229, Note_on_c, 7, 62, 0
1, 145411, Note_on_c, 1, 96, 0
1, 145440, Note_on_c, 1, 96, 68
1, 145440, Note_on_c, 7, 65, 103
1, 145440, Note_on_c, 7, 57, 93
1, 145440, Note_on_c, 7, 62, 80
1, 145440, Note_on_c, 13, 46, 110
1, 145469, Note_on_c, 7, 65, 0
1, 145469, Note_on_c, 7, 57, 0
1, 145469, Note_on_c, 7, 62, 0
1, 145611, Note_on_c, 0, 54, 0
1, 145611, Note_on_c, 15, 79, 0
1, 145680, Note_on_c, 7, 65, 103
1, 145680, Note_on_c, 7, 57, 93
1, 145680, Note_on_c, 7, 62, 80
1, 145709, Note_on_c, 7, 65, 0
1, 145709, Note_on_c, 7, 57, 0
1, 145709, Note_on_c, 7, 62, 0
1, 145882, Note_on_c, 2, 65, 0
1, 145882, Note_on_c, 4, 53, 0
1, 145882, Note_on_c, 4, 46, 0
1, 145901, Note_on_c, 11, 67, 0
1, 145901, Note_on_c, 12, 67, 0
1, 145910, Note_on_c, 13, 46, 0
1, 145910, Control_c, 9, 7, 126
1, 145910, Control_c, 14, 7, 126
1, 145920, Note_on_c, 2, 64, 78
1, 145920, Control_c, 2, 7, 126
1, 145920, Note_on_c, 4, 55, 77
1, 145920, Note_on_c, 4, 48, 110
1, 145920, Control_c, 4, 7, 125
1, 145920, Note_on_c, 7, 60, 80
1, 145920, Note_on_c, 7, 55, 92
1, 145920, Note_on_c, 7, 64, 103
1, 145920, Note_on_c, 9, 36, 100
1, 145920, Note_on_c, 11, 69, 96
1, 145920, Note_on_c, 12, 69, 96
1, 145920, Note_on_c, 13, 48, 110
1, 145920, Control_c, 13, 7, 126
1, 145920, Note_on_c, 14, 40, 120
1, 145930, Note_on_c, 9, 36, 0
1, 145930, Control_c, 0, 7, 126
1, 145930, Control_c, 1, 7, 126
1, 145930, Control_c, 7, 7, 126
1, 145930, Control_c, 12, 7, 125
1, 145930, Control_c, 15, 7, 126
1, 145940, Control_c, 11, 7, 119
1, 145949, Note_on_c, 7, 60, 0
1, 145949, Note_on_c, 7, 55, 0
1, 145949, Note_on_c, 7, 64, 0
1, 146030, Control_c, 9, 7, 125
1, 146030, Control_c, 14, 7, 125
1, 146040, Control_c, 2, 7, 125
1, 146040, Control_c, 4, 7, 124
1, 146040, Control_c, 13, 7, 125
1, 146050, Control_c, 0, 7, 125
1, 146050, Control_c, 1, 7, 125
1, 146050, Control_c, 7, 7, 125
1, 146050, Control_c, 12, 7, 124
1, 146050, Control_c, 15, 7, 125
1, 146060, Control_c, 11, 7, 118
1, 146120, Control_c, 9, 7, 124
1, 146120, Control_c, 14, 7, 124
1, 146140, Control_c, 0, 7, 124
1, 146140, Control_c, 15, 7, 124
1, 146160, Control_c, 2, 7, 124
1, 146160, Control_c, 4, 7, 123
1, 146160, Note_on_c, 7, 64, 103
1, 146160, Note_on_c, 7, 55, 91
1, 146160, Note_on_c, 7, 60, 80
1, 146160, Control_c, 13, 7, 124
1, 146170, Control_c, 1, 7, 124
1, 146170, Control_c, 7, 7, 124
1, 146170, Control_c, 12, 7, 123
1, 146180, Control_c, 11, 7, 117
1, 146189, Note_on_c, 7, 64, 0
1, 146189, Note_on_c, 7, 55, 0
1, 146189, Note_on_c, 7, 60, 0
1, 146240, Control_c, 9, 7, 123
1, 146240, Control_c, 14, 7, 123
1, 146250, Control_c, 2, 7, 123
1, 146250, Control_c, 4, 7, 122
1, 146250, Control_c, 13, 7, 123
1, 146260, Control_c, 0, 7, 123
1, 146260, Control_c, 1, 7, 123
1, 146260, Control_c, 7, 7, 123
1, 146260, Control_c, 12, 7, 122
1, 146260, Control_c, 15, 7, 123
1, 146300, Control_c, 11, 7, 116
1, 146330, Control_c, 9, 7, 122
1, 146330, Control_c, 14, 7, 122
1, 146350, Control_c, 0, 7, 122
1, 146350, Control_c, 15, 7, 122
1, 146354, Note_on_c, 14, 40, 0
1, 146370, Control_c, 2, 7, 122
1, 146370, Control_c, 4, 7, 121
1, 146370, Control_c, 13, 7, 122
1, 146380, Control_c, 1, 7, 122
1, 146380, Control_c, 7, 7, 122
1, 146380, Control_c, 12, 7, 121
1, 146390, Note_on_c, 11, 69, 0
1, 146390, Note_on_c, 12, 69, 0
1, 146390, Note_on_c, 13, 48, 0
1, 146390, Control_c, 11, 7, 115
1, 146400, Note_on_c, 7, 64, 103
1, 146400, Note_on_c, 7, 55, 93
1, 146400, Note_on_c, 7, 60, 80
1, 146400, Note_on_c, 9, 36, 100
1, 146400, Note_on_c, 11, 67, 86
1, 146400, Note_on_c, 12, 67, 86
1, 146400, Note_on_c, 14, 40, 120
1, 146410, Note_on_c, 9, 36, 0
1, 146429, Note_on_c, 7, 64, 0
1, 146429, Note_on_c, 7, 55, 0
1, 146429, Note_on_c, 7, 60, 0
1, 146450, Control_c, 9, 7, 121
1, 146450, Control_c, 14, 7, 121
1, 146460, Control_c, 2, 7, 121
1, 146460, Control_c, 4, 7, 120
1, 146460, Control_c, 13, 7, 121
1, 146470, Control_c, 0, 7, 121
1, 146470, Control_c, 1, 7, 121
1, 146470, Control_c, 7, 7, 121
1, 146470, Control_c, 12, 7, 120
1, 146470, Control_c, 15, 7, 121
1, 146510, Control_c, 11, 7, 114
1, 146540, Control_c, 9, 7, 120
1, 146540, Control_c, 14, 7, 120
1, 146560, Control_c, 0, 7, 120
1, 146560, Control_c, 15, 7, 120
1, 146580, Control_c, 2, 7, 120
1, 146580, Control_c, 4, 7, 119
1, 146580, Control_c, 13, 7, 120
1, 146590, Control_c, 1, 7, 120
1, 146590, Control_c, 7, 7, 120
1, 146590, Control_c, 12, 7, 119
1, 146630, Control_c, 11, 7, 113
1, 146635, Note_on_c, 11, 67, 0
1, 146635, Note_on_c, 12, 67, 0
1, 146640, Note_on_c, 7, 64, 103
1, 146640, Note_on_c, 7, 55, 94
1, 146640, Note_on_c, 7, 60, 80
1, 146640, Note_on_c, 11, 65, 78
1, 146640, Note_on_c, 12, 65, 78
1, 146660, Control_c, 9, 7, 119
1, 146660, Control_c, 14, 7, 119
1, 146669, Note_on_c, 7, 64, 0
1, 146669, Note_on_c, 7, 55, 0
1, 146669, Note_on_c, 7, 60, 0
1, 146670, Control_c, 2, 7, 119
1, 146670, Control_c, 4, 7, 118
1, 146670, Control_c, 13, 7, 119
1, 146680, Control_c, 0, 7, 119
1, 146680, Control_c, 1, 7, 119
1, 146680, Control_c, 7, 7, 119
1, 146680, Control_c, 12, 7, 118
1, 146680, Control_c, 15, 7, 119
1, 146720, Control_c, 11, 7, 112
1, 146750, Control_c, 9, 7, 118
1, 146750, Control_c, 14, 7, 118
1, 146770, Control_c, 0, 7, 118
1, 146770, Control_c, 15, 7, 118
1, 146790, Control_c, 2, 7, 118
1, 146790, Control_c, 4, 7, 117
1, 146790, Control_c, 13, 7, 118
1, 146800, Control_c, 1, 7, 118
1, 146800, Control_c, 7, 7, 118
1, 146800, Control_c, 12, 7, 117
1, 146834, Note_on_c, 14, 40, 0
1, 146840, Control_c, 11, 7, 111
1, 146861, Note_on_c, 2, 69, 0
1, 146870, Control_c, 9, 7, 117
1, 146870, Control_c, 14, 7, 117
1, 146875, Note_on_c, 11, 65, 0
1, 146875, Note_on_c, 12, 65, 0
1, 146880, Note_on_c, 0, 54, 100
1, 146880, Note_on_c, 2, 67, 110
1, 146880, Control_c, 2, 7, 117
1, 146880, Control_c, 4, 7, 116
1, 146880, Note_on_c, 7, 64, 103
1, 146880, Note_on_c, 7, 55, 93
1, 146880, Note_on_c, 7, 60, 80
1, 146880, Note_on_c, 11, 62, 74
1, 146880, Note_on_c, 12, 62, 74
1, 146880, Control_c, 13, 7, 117
1, 146880, Note_on_c, 15, 79, 100
1, 146890, Control_c, 0, 7, 117
1, 146890, Control_c, 1, 7, 117
1, 146890, Control_c, 7, 7, 117
1, 146890, Control_c, 12, 7, 116
1, 146890, Control_c, 15, 7, 117
1, 146909, Note_on_c, 7, 64, 0
1, 146909, Note_on_c, 7, 55, 0
1, 146909, Note_on_c, 7, 60, 0
1, 146960, Control_c, 9, 7, 116
1, 146960, Control_c, 11, 7, 110
1, 146960, Control_c, 14, 7, 116
1, 146980, Control_c, 0, 7, 116
1, 146980, Control_c, 15, 7, 116
1, 147000, Control_c, 2, 7, 116
1, 147000, Control_c, 4, 7, 115
1, 147000, Control_c, 13, 7, 116
1, 147010, Control_c, 1, 7, 116
1, 147010, Control_c, 7, 7, 116
1, 147010, Control_c, 12, 7, 115
1, 147050, Control_c, 11, 7, 109
1, 147080, Control_c, 9, 7, 115
1, 147080, Control_c, 14, 7, 115
1, 147090, Control_c, 4, 7, 114
1, 147090, Control_c, 13, 7, 115
1, 147100, Control_c, 0, 7, 115
1, 147100, Control_c, 1, 7, 115
1, 147100, Control_c, 7, 7, 115
1, 147100, Control_c, 12, 7, 114
1, 147100, Control_c, 15, 7, 115
1, 147115, Note_on_c, 11, 62, 0
1, 147115, Note_on_c, 12, 62, 0
1, 147120, Control_c, 2, 7, 115
1, 147120, Note_on_c, 7, 64, 103
1, 147120, Note_on_c, 7, 55, 95
1, 147120, Note_on_c, 7, 60, 80
1, 147120, Note_on_c, 11, 65, 80
1, 147120, Note_on_c, 12, 65, 80
1, 147149, Note_on_c, 7, 64, 0
1, 147149, Note_on_c, 7, 55, 0
1, 147149, Note_on_c, 7, 60, 0
1, 147170, Control_c, 9, 7, 114
1, 147170, Control_c, 11, 7, 108
1, 147170, Control_c, 14, 7, 114
1, 147190, Control_c, 0, 7, 114
1, 147190, Control_c, 15, 7, 114
1, 147210, Control_c, 2, 7, 114
1, 147210, Control_c, 4, 7, 113
1, 147210, Control_c, 13, 7, 114
1, 147220, Control_c, 1, 7, 114
1, 147220, Control_c, 7, 7, 114
1, 147220, Control_c, 12, 7, 113
1, 147290, Control_c, 9, 7, 113
1, 147290, Control_c, 11, 7, 107
1, 147290, Control_c, 14, 7, 113
1, 147300, Control_c, 4, 7, 112
1, 147300, Control_c, 13, 7, 113
1, 147310, Control_c, 0, 7, 113
1, 147310, Control_c, 1, 7, 113
1, 147310, Control_c, 7, 7, 113
1, 147310, Control_c, 12, 7, 112
1, 147310, Control_c, 15, 7, 113
1, 147330, Control_c, 2, 7, 113
1, 147360, Note_on_c, 7, 64, 103
1, 147360, Note_on_c, 7, 55, 93
1, 147360, Note_on_c, 7, 60, 80
1, 147360, Note_on_c, 13, 48, 110
1, 147380, Control_c, 9, 7, 112
1, 147380, Control_c, 11, 7, 106
1, 147380, Control_c, 14, 7, 112
1, 147389, Note_on_c, 7, 64, 0
1, 147389, Note_on_c, 7, 55, 0
1, 147389, Note_on_c, 7, 60, 0
1, 147400, Control_c, 0, 7, 112
1, 147400, Control_c, 15, 7, 112
1, 147420, Control_c, 2, 7, 112
1, 147420, Control_c, 4, 7, 111
1, 147420, Control_c, 13, 7, 112
1, 147430, Control_c, 1, 7, 112
1, 147430, Control_c, 7, 7, 112
1, 147430, Control_c, 12, 7, 111
1, 147500, Control_c, 9, 7, 111
1, 147500, Control_c, 11, 7, 105
1, 147500, Control_c, 14, 7, 111
1, 147510, Control_c, 4, 7, 110
1, 147520, Control_c, 0, 7, 111
1, 147520, Control_c, 1, 7, 111
1, 147520, Control_c, 7, 7, 111
1, 147520, Control_c, 12, 7, 110
1, 147520, Control_c, 15, 7, 111
1, 147531, Note_on_c, 0, 54, 0
1, 147531, Note_on_c, 15, 79, 0
1, 147540, Control_c, 2, 7, 111
1, 147540, Control_c, 13, 7, 111
1, 147590, Control_c, 9, 7, 110
1, 147590, Control_c, 14, 7, 110
1, 147595, Note_on_c, 11, 65, 0
1, 147595, Note_on_c, 12, 65, 0
1, 147600, Note_on_c, 7, 64, 103
1, 147600, Note_on_c, 7, 55, 93
1, 147600, Note_on_c, 7, 60, 80
1, 147600, Note_on_c, 11, 67, 79
1, 147600, Note_on_c, 12, 67, 79
1, 147610, Control_c, 0, 7, 110
1, 147610, Control_c, 15, 7, 110
1, 147620, Control_c, 11, 7, 104
1, 147629, Note_on_c, 7, 64, 0
1, 147629, Note_on_c, 7, 55, 0
1, 147629, Note_on_c, 7, 60, 0
1, 147630, Control_c, 2, 7, 110
1, 147630, Control_c, 4, 7, 109
1, 147630, Control_c, 13, 7, 110
1, 147640, Control_c, 1, 7, 110
1, 147640, Control_c, 7, 7, 110
1, 147640, Control_c, 12, 7, 109
1, 147710, Control_c, 9, 7, 109
1, 147710, Control_c, 14, 7, 109
1, 147720, Control_c, 4, 7, 108
1, 147730, Control_c, 0, 7, 109
1, 147730, Control_c, 1, 7, 109
1, 147730, Control_c, 7, 7, 109
1, 147730, Control_c, 15, 7, 109
1, 147740, Control_c, 11, 7, 103
1, 147750, Control_c, 2, 7, 109
1, 147750, Control_c, 13, 7, 109
1, 147760, Control_c, 12, 7, 108
1, 147800, Control_c, 9, 7, 108
1, 147800, Control_c, 14, 7, 108
1, 147802, Note_on_c, 2, 64, 0
1, 147802, Note_on_c, 4, 55, 0
1, 147802, Note_on_c, 4, 48, 0
1, 147820, Control_c, 0, 7, 108
1, 147820, Control_c, 15, 7, 108
1, 147821, Note_on_c, 2, 67, 0
1, 147830, Note_on_c, 13, 48, 0
1, 147830, Control_c, 11, 7, 102
1, 147835, Note_on_c, 11, 67, 0
1, 147835, Note_on_c, 12, 67, 0
1, 147840, Note_on_c, 2, 65, 76
1, 147840, Note_on_c, 2, 69, 110
1, 147840, Control_c, 2, 7, 108
1, 147840, Note_on_c, 4, 53, 77
1, 147840, Note_on_c, 4, 46, 110
1, 147840, Control_c, 4, 7, 107
1, 147840, Note_on_c, 7, 62, 80
1, 147840, Note_on_c, 7, 57, 92
1, 147840, Note_on_c, 7, 65, 103
1, 147840, Note_on_c, 9, 36, 100
1, 147840, Note_on_c, 11, 69, 86
1, 147840, Note_on_c, 12, 69, 86
1, 147840, Note_on_c, 13, 46, 110
1, 147840, Control_c, 13, 7, 108
1, 147840, Note_on_c, 14, 40, 122
1, 147850, Note_on_c, 9, 36, 0
1, 147850, Control_c, 1, 7, 108
1, 147850, Control_c, 7, 7, 108
1, 147850, Control_c, 12, 7, 107
1, 147869, Note_on_c, 7, 62, 0
1, 147869, Note_on_c, 7, 57, 0
1, 147869, Note_on_c, 7, 65, 0
1, 147920, Control_c, 9, 7, 107
1, 147920, Control_c, 14, 7, 107
1, 147930, Control_c, 4, 7, 106
1, 147940, Control_c, 0, 7, 107
1, 147940, Control_c, 1, 7, 107
1, 147940, Control_c, 15, 7, 107
1, 147950, Control_c, 11, 7, 101
1, 147960, Control_c, 2, 7, 107
1, 147960, Control_c, 13, 7, 107
1, 147970, Control_c, 7, 7, 107
1, 147970, Control_c, 12, 7, 106
1, 148010, Control_c, 9, 7, 106
1, 148010, Control_c, 14, 7, 106
1, 148030, Control_c, 0, 7, 106
1, 148030, Control_c, 15, 7, 106
1, 148050, Control_c, 4, 7, 105
1, 148050, Control_c, 13, 7, 106
1, 148060, Control_c, 1, 7, 106
1, 148060, Control_c, 7, 7, 106
1, 148060, Control_c, 12, 7, 105
1, 148070, Control_c, 11, 7, 100
1, 148080, Control_c, 2, 7, 106
1, 148080, Note_on_c, 7, 65, 103
1, 148080, Note_on_c, 7, 57, 91
1, 148080, Note_on_c, 7, 62, 80
1, 148109, Note_on_c, 7, 65, 0
1, 148109, Note_on_c, 7, 57, 0
1, 148109, Note_on_c, 7, 62, 0
1, 148130, Control_c, 9, 7, 105
1, 148130, Control_c, 14, 7, 105
1, 148150, Control_c, 0, 7, 105
1, 148150, Control_c, 1, 7, 105
1, 148150, Control_c, 15, 7, 105
1, 148160, Control_c, 11, 7, 99
1, 148170, Control_c, 2, 7, 105
1, 148170, Control_c, 4, 7, 104
1, 148170, Control_c, 13, 7, 105
1, 148180, Control_c, 7, 7, 105
1, 148180, Control_c, 12, 7, 104
1, 148220, Control_c, 9, 7, 104
1, 148220, Control_c, 14, 7, 104
1, 148240, Control_c, 0, 7, 104
1, 148240, Control_c, 15, 7, 104
1, 148260, Control_c, 4, 7, 103
1, 148260, Control_c, 13, 7, 104
1, 148270, Control_c, 1, 7, 104
1, 148270, Control_c, 7, 7, 104
1, 148270, Control_c, 12, 7, 103
1, 148274, Note_on_c, 14, 40, 0
1, 148280, Control_c, 11, 7, 98
1, 148290, Control_c, 2, 7, 104
1, 148310, Note_on_c, 11, 69, 0
1, 148310, Note_on_c, 12, 69, 0
1, 148310, Note_on_c, 13, 46, 0
1, 148320, Note_on_c, 7, 65, 103
1, 148320, Note_on_c, 7, 57, 93
1, 148320, Note_on_c, 7, 62, 80
1, 148320, Note_on_c, 9, 36, 100
1, 148320, Note_on_c, 11, 72, 94
1, 148320, Note_on_c, 12, 72, 94
1, 148320, Note_on_c, 14, 40, 120
1, 148330, Note_on_c, 9, 36, 0
1, 148340, Control_c, 9, 7, 103
1, 148340, Control_c, 14, 7, 103
1, 148349, Note_on_c, 7, 65, 0
1, 148349, Note_on_c, 7, 57, 0
1, 148349, Note_on_c, 7, 62, 0
1, 148360, Control_c, 0, 7, 103
1, 148360, Control_c, 1, 7, 103
1, 148360, Control_c, 15, 7, 103
1, 148380, Control_c, 2, 7, 103
1, 148380, Control_c, 4, 7, 102
1, 148380, Control_c, 13, 7, 103
1, 148390, Control_c, 7, 7, 103
1, 148390, Control_c, 12, 7, 102
1, 148400, Control_c, 11, 7, 97
1, 148430, Control_c, 9, 7, 102
1, 148430, Control_c, 14, 7, 102
1, 148450, Control_c, 0, 7, 102
1, 148450, Control_c, 15, 7, 102
1, 148470, Control_c, 4, 7, 101
1, 148470, Control_c, 13, 7, 102
1, 148480, Control_c, 1, 7, 102
1, 148480, Control_c, 7, 7, 102
1, 148480, Control_c, 12, 7, 101
1, 148490, Control_c, 11, 7, 96
1, 148500, Control_c, 2, 7, 102
1, 148550, Control_c, 9, 7, 101
1, 148550, Control_c, 14, 7, 101
1, 148560, Note_on_c, 7, 65, 103
1, 148560, Note_on_c, 7, 57, 94
1, 148560, Note_on_c, 7, 62, 80
1, 148570, Control_c, 0, 7, 101
1, 148570, Control_c, 1, 7, 101
1, 148570, Control_c, 15, 7, 101
1, 148589, Note_on_c, 7, 65, 0
1, 148589, Note_on_c, 7, 57, 0
1, 148589, Note_on_c, 7, 62, 0
1, 148590, Control_c, 2, 7, 101
1, 148590, Control_c, 4, 7, 100
1, 148590, Control_c, 13, 7, 101
1, 148600, Control_c, 7, 7, 101
1, 148600, Control_c, 12, 7, 100
1, 148610, Control_c, 11, 7, 95
1, 148640, Control_c, 9, 7, 100
1, 148640, Control_c, 14, 7, 100
1, 148660, Control_c, 0, 7, 100
1, 148660, Control_c, 15, 7, 100
1, 148680, Control_c, 4, 7, 99
1, 148680, Control_c, 13, 7, 100
1, 148690, Control_c, 1, 7, 100
1, 148690, Control_c, 7, 7, 100
1, 148690, Control_c, 12, 7, 99
1, 148710, Control_c, 2, 7, 100
1, 148730, Control_c, 11, 7, 94
1, 148754, Note_on_c, 14, 40, 0
1, 148760, Control_c, 9, 7, 99
1, 148760, Control_c, 14, 7, 99
1, 148780, Control_c, 0, 7, 99
1, 148780, Control_c, 1, 7, 99
1, 148780, Control_c, 15, 7, 99
1, 148790, Note_on_c, 11, 72, 0
1, 148790, Note_on_c, 12, 72, 0
1, 148800, Note_on_c, 0, 54, 100
1, 148800, Control_c, 2, 7, 99
1, 148800, Control_c, 4, 7, 98
1, 148800, Note_on_c, 7, 65, 103
1, 148800, Note_on_c, 7, 57, 93
1, 148800, Note_on_c, 7, 62, 80
1, 148800, Note_on_c, 11, 67, 86
1, 148800, Note_on_c, 12, 67, 86
1, 148800, Control_c, 13, 7, 99
1, 148800, Note_on_c, 15, 79, 100
1, 148810, Control_c, 7, 7, 99
1, 148810, Control_c, 12, 7, 98
1, 148820, Control_c, 11, 7, 93
1, 148829, Note_on_c, 7, 65, 0
1, 148829, Note_on_c, 7, 57, 0
1, 148829, Note_on_c, 7, 62, 0
1, 148850, Control_c, 9, 7, 98
1, 148850, Control_c, 14, 7, 98
1, 148870, Control_c, 0, 7, 98
1, 148870, Control_c, 15, 7, 98
1, 148890, Control_c, 4, 7, 97
1, 148900, Control_c, 1, 7, 98
1, 148900, Control_c, 7, 7, 98
1, 148900, Control_c, 12, 7, 97
1, 148920, Control_c, 2, 7, 98
1, 148920, Control_c, 13, 7, 98
1, 148940, Control_c, 11, 7, 92
1, 148970, Control_c, 9, 7, 97
1, 148970, Control_c, 14, 7, 97
1, 148990, Control_c, 0, 7, 97
1, 148990, Control_c, 1, 7, 97
1, 148990, Control_c, 15, 7, 97
1, 149010, Control_c, 2, 7, 97
1, 149010, Control_c, 4, 7, 96
1, 149010, Control_c, 13, 7, 97
1, 149020, Control_c, 7, 7, 97
1, 149020, Control_c, 12, 7, 96
1, 149040, Note_on_c, 7, 65, 103
1, 149040, Note_on_c, 7, 57, 95
1, 149040, Note_on_c, 7, 62, 80
1, 149060, Control_c, 9, 7, 96
1, 149060, Control_c, 11, 7, 91
1, 149060, Control_c, 14, 7, 96
1, 149069, Note_on_c, 7, 65, 0
1, 149069, Note_on_c, 7, 57, 0
1, 149069, Note_on_c, 7, 62, 0
1, 149080, Control_c, 0, 7, 96
1, 149080, Control_c, 15, 7, 96
1, 149100, Control_c, 4, 7, 95
1, 149110, Control_c, 1, 7, 96
1, 149110, Control_c, 7, 7, 96
1, 149110, Control_c, 12, 7, 95
1, 149130, Control_c, 2, 7, 96
1, 149130, Control_c, 13, 7, 96
1, 149150, Control_c, 11, 7, 90
1, 149180, Control_c, 9, 7, 95
1, 149180, Control_c, 14, 7, 95
1, 149200, Control_c, 0, 7, 95
1, 149200, Control_c, 1, 7, 95
1, 149200, Control_c, 15, 7, 95
1, 149220, Control_c, 4, 7, 94
1, 149220, Control_c, 13, 7, 95
1, 149230, Control_c, 7, 7, 95
1, 149230, Control_c, 12, 7, 94
1, 149250, Control_c, 2, 7, 95
1, 149270, Control_c, 9, 7, 94
1, 149270, Control_c, 11, 7, 89
1, 149270, Control_c, 14, 7, 94
1, 149280, Note_on_c, 7, 65, 103
1, 149280, Note_on_c, 7, 57, 93
1, 149280, Note_on_c, 7, 62, 80
1, 149280, Note_on_c, 13, 46, 110
1, 149290, Control_c, 0, 7, 94
1, 149290, Control_c, 15, 7, 94
1, 149309, Note_on_c, 7, 65, 0
1, 149309, Note_on_c, 7, 57, 0
1, 149309, Note_on_c, 7, 62, 0
1, 149310, Control_c, 4, 7, 93
1, 149320, Control_c, 1, 7, 94
1, 149320, Control_c, 7, 7, 94
1, 149320, Control_c, 12, 7, 93
1, 149340, Control_c, 2, 7, 94
1, 149340, Control_c, 13, 7, 94
1, 149390, Control_c, 9, 7, 93
1, 149390, Control_c, 11, 7, 88
1, 149390, Control_c, 14, 7, 93
1, 149410, Control_c, 0, 7, 93
1, 149410, Control_c, 1, 7, 93
1, 149410, Control_c, 15, 7, 93
1, 149430, Control_c, 4, 7, 92
1, 149430, Control_c, 13, 7, 93
1, 149440, Control_c, 7, 7, 93
1, 149440, Control_c, 12, 7, 92
1, 149451, Note_on_c, 0, 54, 0
1, 149451, Note_on_c, 15, 79, 0
1, 149460, Control_c, 2, 7, 93
1, 149480, Control_c, 9, 7, 92
1, 149480, Control_c, 14, 7, 92
1, 149500, Control_c, 0, 7, 92
1, 149500, Control_c, 15, 7, 92
1, 149506, Note_on_c, 11, 67, 0
1, 149506, Note_on_c, 12, 67, 0
1, 149510, Control_c, 11, 7, 87
1, 149520, Control_c, 4, 7, 91
1, 149520, Note_on_c, 7, 65, 103
1, 149520, Note_on_c, 7, 57, 93
1, 149520, Note_on_c, 7, 62, 80
1, 149520, Note_on_c, 11, 65, 89
1, 149520, Note_on_c, 12, 65, 89
1, 149530, Control_c, 1, 7, 92
1, 149530, Control_c, 7, 7, 92
1, 149549, Note_on_c, 7, 65, 0
1, 149549, Note_on_c, 7, 57, 0
1, 149549, Note_on_c, 7, 62, 0
1, 149550, Control_c, 2, 7, 92
1, 149550, Control_c, 13, 7, 92
1, 149560, Control_c, 12, 7, 91
1, 149600, Control_c, 9, 7, 91
1, 149600, Control_c, 11, 7, 86
1, 149600, Control_c, 14, 7, 91
1, 149620, Control_c, 0, 7, 91
1, 149620, Control_c, 1, 7, 91
1, 149620, Control_c, 15, 7, 91
1, 149638, Note_on_c, 11, 65, 0
1, 149638, Note_on_c, 12, 65, 0
1, 149640, Control_c, 4, 7, 90
1, 149640, Note_on_c, 11, 64, 81
1, 149640, Note_on_c, 12, 64, 81
1, 149640, Control_c, 13, 7, 91
1, 149650, Control_c, 7, 7, 91
1, 149650, Control_c, 12, 7, 90
1, 149670, Control_c, 2, 7, 91
1, 149690, Control_c, 9, 7, 90
1, 149690, Control_c, 14, 7, 90
1, 149710, Control_c, 0, 7, 90
1, 149710, Control_c, 15, 7, 90
1, 149720, Control_c, 11, 7, 85
1, 149722, Note_on_c, 2, 65, 0
1, 149722, Note_on_c, 2, 69, 0
1, 149722, Note_on_c, 4, 53, 0
1, 149722, Note_on_c, 4, 46, 0
1, 149730, Control_c, 4, 7, 89
1, 149740, Control_c, 1, 7, 90
1, 149740, Control_c, 7, 7, 90
1, 149750, Note_on_c, 13, 46, 0
1, 149758, Note_on_c, 11, 64, 0
1, 149758, Note_on_c, 12, 64, 0
1, 149760, Note_on_c, 2, 65, 77
1, 149760, Note_on_c, 2, 72, 109
1, 149760, Control_c, 2, 7, 90
1, 149760, Note_on_c, 4, 57, 77
1, 149760, Note_on_c, 4, 50, 110
1, 149760, Note_on_c, 7, 57, 92
1, 149760, Note_on_c, 7, 69, 103
1, 149760, Note_on_c, 7, 62, 71
1, 149760, Note_on_c, 7, 65, 80
1, 149760, Note_on_c, 9, 36, 100
1, 149760, Note_on_c, 11, 62, 104
1, 149760, Note_on_c, 12, 62, 104
1, 149760, Note_on_c, 13, 50, 110
1, 149760, Control_c, 13, 7, 90
1, 149760, Note_on_c, 14, 40, 120
1, 149770, Note_on_c, 9, 36, 0
1, 149770, Control_c, 12, 7, 89
1, 149779, Note_on_c, 7, 62, 0
1, 149789, Note_on_c, 7, 57, 0
1, 149789, Note_on_c, 7, 69, 0
1, 149789, Note_on_c, 7, 65, 0
1, 149810, Control_c, 9, 7, 89
1, 149810, Control_c, 14, 7, 89
1, 149830, Control_c, 0, 7, 89
1, 149830, Control_c, 1, 7, 89
1, 149830, Control_c, 15, 7, 89
1, 149840, Control_c, 11, 7, 84
1, 149850, Control_c, 4, 7, 88
1, 149850, Control_c, 13, 7, 89
1, 149860, Control_c, 7, 7, 89
1, 149860, Control_c, 12, 7, 88
1, 149880, Control_c, 2, 7, 89
1, 149900, Control_c, 9, 7, 88
1, 149900, Control_c, 14, 7, 88
1, 149920, Control_c, 0, 7, 88
1, 149920, Control_c, 15, 7, 88
1, 149930, Control_c, 11, 7, 83
1, 149940, Control_c, 4, 7, 87
1, 149950, Control_c, 1, 7, 88
1, 149970, Control_c, 2, 7, 88
1, 149970, Control_c, 13, 7, 88
1, 149980, Control_c, 7, 7, 88
1, 149980, Control_c, 12, 7, 87
1, 150000, Note_on_c, 7, 57, 91
1, 150000, Note_on_c, 7, 65, 80
1, 150000, Note_on_c, 7, 62, 71
1, 150000, Note_on_c, 7, 69, 103
1, 150019, Note_on_c, 7, 62, 0
1, 150020, Control_c, 9, 7, 87
1, 150020, Control_c, 14, 7, 87
1, 150029, Note_on_c, 7, 57, 0
1, 150029, Note_on_c, 7, 65, 0
1, 150029, Note_on_c, 7, 69, 0
1, 150040, Control_c, 0, 7, 87
1, 150040, Control_c, 1, 7, 87
1, 150040, Control_c, 15, 7, 87
1, 150050, Control_c, 11, 7, 82
1, 150060, Control_c, 4, 7, 86
1, 150060, Control_c, 13, 7, 87
1, 150070, Control_c, 7, 7, 87
1, 150070, Control_c, 12, 7, 86
1, 150090, Control_c, 2, 7, 87
1, 150110, Control_c, 9, 7, 86
1, 150110, Control_c, 14, 7, 86
1, 150130, Control_c, 0, 7, 86
1, 150130, Control_c, 15, 7, 86
1, 150160, Control_c, 1, 7, 86
1, 150170, Control_c, 11, 7, 81
1, 150180, Control_c, 4, 7, 85
1, 150180, Control_c, 13, 7, 86
1, 150190, Control_c, 7, 7, 86
1, 150190, Control_c, 12, 7, 85
1, 150194, Note_on_c, 14, 40, 0
1, 150210, Control_c, 2, 7, 86
1, 150230, Note_on_c, 13, 50, 0
1, 150230, Control_c, 9, 7, 85
1, 150230, Control_c, 14, 7, 85
1, 150240, Note_on_c, 7, 57, 93
1, 150240, Note_on_c, 7, 65, 80
1, 150240, Note_on_c, 7, 62, 71
1, 150240, Note_on_c, 7, 69, 103
1, 150240, Note_on_c, 9, 36, 100
1, 150240, Note_on_c, 14, 40, 120
1, 150250, Note_on_c, 9, 36, 0
1, 150250, Control_c, 0, 7, 85
1, 150250, Control_c, 1, 7, 85
1, 150250, Control_c, 15, 7, 85
1, 150259, Note_on_c, 7, 62, 0
1, 150260, Control_c, 11, 7, 80
1, 150269, Note_on_c, 7, 57, 0
1, 150269, Note_on_c, 7, 65, 0
1, 150269, Note_on_c, 7, 69, 0
1, 150270, Control_c, 4, 7, 84
1, 150280, Control_c, 7, 7, 85
1, 150280, Control_c, 12, 7, 84
1, 150300, Control_c, 2, 7, 85
1, 150300, Control_c, 13, 7, 85
1, 150320, Control_c, 9, 7, 84
1, 150320, Control_c, 14, 7, 84
1, 150340, Control_c, 0, 7, 84
1, 150340, Control_c, 15, 7, 84
1, 150370, Control_c, 1, 7, 84
1, 150380, Control_c, 11, 7, 79
1, 150390, Control_c, 4, 7, 83
1, 150390, Control_c, 13, 7, 84
1, 150400, Control_c, 7, 7, 84
1, 150400, Control_c, 12, 7, 83
1, 150420, Control_c, 2, 7, 84
1, 150440, Control_c, 9, 7, 83
1, 150440, Control_c, 14, 7, 83
1, 150460, Control_c, 0, 7, 83
1, 150460, Control_c, 1, 7, 83
1, 150460, Control_c, 15, 7, 83
1, 150480, Control_c, 4, 7, 82
1, 150480, Note_on_c, 7, 57, 94
1, 150480, Note_on_c, 7, 65, 80
1, 150480, Note_on_c, 7, 62, 71
1, 150480, Note_on_c, 7, 69, 103
1, 150490, Control_c, 7, 7, 83
1, 150490, Control_c, 12, 7, 82
1, 150499, Note_on_c, 7, 62, 0
1, 150500, Control_c, 11, 7, 78
1, 150509, Note_on_c, 7, 57, 0
1, 150509, Note_on_c, 7, 65, 0
1, 150509, Note_on_c, 7, 69, 0
1, 150510, Control_c, 2, 7, 83
1, 150510, Control_c, 13, 7, 83
1, 150530, Control_c, 9, 7, 82
1, 150530, Control_c, 14, 7, 82
1, 150550, Control_c, 0, 7, 82
1, 150550, Control_c, 15, 7, 82
1, 150580, Control_c, 1, 7, 82
1, 150590, Control_c, 11, 7, 77
1, 150600, Control_c, 4, 7, 81
1, 150600, Control_c, 13, 7, 82
1, 150610, Control_c, 7, 7, 82
1, 150610, Control_c, 12, 7, 81
1, 150630, Control_c, 2, 7, 82
1, 150650, Control_c, 9, 7, 81
1, 150650, Control_c, 14, 7, 81
1, 150670, Control_c, 0, 7, 81
1, 150670, Control_c, 1, 7, 81
1, 150670, Control_c, 15, 7, 81
1, 150674, Note_on_c, 14, 40, 0
1, 150690, Control_c, 4, 7, 80
1, 150700, Control_c, 7, 7, 81
1, 150700, Control_c, 12, 7, 80
1, 150701, Note_on_c, 1, 96, 0
1, 150701, Note_on_c, 2, 65, 0
1, 150701, Note_on_c, 2, 72, 0
1, 150701, Note_on_c, 4, 50, 0
1, 150710, Control_c, 11, 7, 76
1, 150720, Note_on_c, 0, 54, 100
1, 150720, Note_on_c, 1, 96, 72
1, 150720, Note_on_c, 2, 62, 77
1, 150720, Note_on_c, 2, 72, 110
1, 150720, Control_c, 2, 7, 81
1, 150720, Note_on_c, 4, 48, 110
1, 150720, Note_on_c, 7, 58, 73
1, 150720, Note_on_c, 7, 62, 80
1, 150720, Note_on_c, 7, 55, 89
1, 150720, Note_on_c, 7, 67, 102
1, 150720, Note_on_c, 13, 48, 110
1, 150720, Control_c, 13, 7, 81
1, 150720, Note_on_c, 15, 79, 100
1, 150740, Control_c, 9, 7, 80
1, 150740, Control_c, 14, 7, 80
1, 150742, Note_on_c, 7, 58, 0
1, 150749, Note_on_c, 7, 62, 0
1, 150749, Note_on_c, 7, 55, 0
1, 150749, Note_on_c, 7, 67, 0
1, 150760, Control_c, 0, 7, 80
1, 150760, Control_c, 15, 7, 80
1, 150790, Control_c, 1, 7, 80
1, 150810, Control_c, 4, 7, 79
1, 150810, Control_c, 13, 7, 80
1, 150820, Control_c, 7, 7, 80
1, 150820, Control_c, 12, 7, 79
1, 150830, Control_c, 11, 7, 75
1, 150840, Control_c, 2, 7, 80
1, 150860, Control_c, 9, 7, 79
1, 150860, Control_c, 14, 7, 79
1, 150880, Control_c, 0, 7, 79
1, 150880, Control_c, 1, 7, 79
1, 150880, Control_c, 15, 7, 79
1, 150900, Control_c, 4, 7, 78
1, 150910, Control_c, 7, 7, 79
1, 150910, Control_c, 12, 7, 78
1, 150930, Control_c, 2, 7, 79
1, 150930, Control_c, 13, 7, 79
1, 150950, Control_c, 9, 7, 78
1, 150950, Control_c, 11, 7, 74
1, 150950, Control_c, 14, 7, 78
1, 150955, Note_on_c, 11, 62, 0
1, 150955, Note_on_c, 12, 62, 0
1, 150960, Note_on_c, 7, 58, 73
1, 150960, Note_on_c, 7, 62, 80
1, 150960, Note_on_c, 7, 55, 89
1, 150960, Note_on_c, 7, 67, 102
1, 150970, Control_c, 0, 7, 78
1, 150970, Control_c, 15, 7, 78
1, 150982, Note_on_c, 7, 58, 0
1, 150989, Note_on_c, 7, 62, 0
1, 150989, Note_on_c, 7, 55, 0
1, 150989, Note_on_c, 7, 67, 0
1, 151000, Control_c, 1, 7, 78
1, 151020, Control_c, 4, 7, 77
1, 151020, Control_c, 13, 7, 78
1, 151030, Control_c, 7, 7, 78
1, 151030, Control_c, 12, 7, 77
1, 151040, Control_c, 11, 7, 73
1, 151050, Control_c, 2, 7, 78
1, 151070, Control_c, 9, 7, 77
1, 151070, Control_c, 14, 7, 77
1, 151090, Control_c, 0, 7, 77
1, 151090, Control_c, 1, 7, 77
1, 151090, Control_c, 15, 7, 77
1, 151110, Control_c, 4, 7, 76
1, 151120, Control_c, 7, 7, 77
1, 151140, Control_c, 2, 7, 77
1, 151140, Control_c, 13, 7, 77
1, 151150, Control_c, 12, 7, 76
1, 151160, Control_c, 9, 7, 76
1, 151160, Control_c, 11, 7, 72
1, 151160, Control_c, 14, 7, 76
1, 151176, Note_on_c, 2, 62, 0
1, 151180, Control_c, 0, 7, 76
1, 151180, Control_c, 15, 7, 76
1, 151186, Note_on_c, 4, 57, 0
1, 151190, Note_on_c, 2, 72, 0
1, 151190, Note_on_c, 4, 48, 0
1, 151190, Note_on_c, 13, 48, 0
1, 151200, Note_on_c, 2, 65, 77
1, 151200, Note_on_c, 2, 77, 110
1, 151200, Note_on_c, 4, 53, 77
1, 151200, Note_on_c, 4, 41, 110
1, 151200, Note_on_c, 7, 57, 73
1, 151200, Note_on_c, 7, 60, 80
1, 151200, Note_on_c, 7, 53, 89
1, 151200, Note_on_c, 7, 65, 102
1, 151200, Note_on_c, 11, 65, 82
1, 151200, Note_on_c, 12, 65, 82
1, 151200, Note_on_c, 13, 41, 110
1, 151210, Control_c, 1, 7, 76
1, 151222, Note_on_c, 7, 57, 0
1, 151229, Note_on_c, 7, 60, 0
1, 151229, Note_on_c, 7, 53, 0
1, 151229, Note_on_c, 7, 65, 0
1, 151230, Control_c, 4, 7, 75
1, 151230, Control_c, 13, 7, 76
1, 151240, Control_c, 7, 7, 76
1, 151240, Control_c, 12, 7, 75
1, 151260, Control_c, 2, 7, 76
1, 151280, Control_c, 9, 7, 75
1, 151280, Control_c, 11, 7, 71
1, 151280, Control_c, 14, 7, 75
1, 151300, Control_c, 0, 7, 75
1, 151300, Control_c, 1, 7, 75
1, 151300, Control_c, 15, 7, 75
1, 151320, Control_c, 4, 7, 74
1, 151330, Control_c, 7, 7, 75
1, 151350, Control_c, 13, 7, 75
1, 151360, Control_c, 12, 7, 74
1, 151370, Control_c, 9, 7, 74
1, 151370, Control_c, 11, 7, 70
1, 151370, Control_c, 14, 7, 74
1, 151371, Note_on_c, 0, 54, 0
1, 151371, Note_on_c, 15, 79, 0
1, 151380, Control_c, 2, 7, 75
1, 151390, Control_c, 0, 7, 74
1, 151390, Control_c, 15, 7, 74
1, 151420, Control_c, 1, 7, 74
1, 151435, Note_on_c, 11, 65, 0
1, 151435, Note_on_c, 12, 65, 0
1, 151440, Control_c, 4, 7, 73
1, 151440, Note_on_c, 7, 57, 73
1, 151440, Note_on_c, 7, 60, 80
1, 151440, Note_on_c, 7, 53, 89
1, 151440, Note_on_c, 7, 65, 102
1, 151440, Note_on_c, 11, 67, 88
1, 151440, Note_on_c, 12, 67, 88
1, 151440, Control_c, 13, 7, 74
1, 151450, Control_c, 7, 7, 74
1, 151450, Control_c, 12, 7, 73
1, 151462, Note_on_c, 7, 57, 0
1, 151469, Note_on_c, 7, 60, 0
1, 151469, Note_on_c, 7, 53, 0
1, 151469, Note_on_c, 7, 65, 0
1, 151470, Control_c, 2, 7, 74
1, 151490, Control_c, 9, 7, 73
1, 151490, Control_c, 11, 7, 69
1, 151490, Control_c, 14, 7, 73
1, 151510, Control_c, 0, 7, 73
1, 151510, Control_c, 1, 7, 73
1, 151510, Control_c, 15, 7, 73
1, 151530, Control_c, 4, 7, 72
1, 151540, Control_c, 7, 7, 73
1, 151560, Control_c, 13, 7, 73
1, 151570, Control_c, 12, 7, 72
1, 151580, Control_c, 9, 7, 72
1, 151580, Control_c, 14, 7, 72
1, 151590, Control_c, 2, 7, 73
1, 151600, Control_c, 0, 7, 72
1, 151600, Control_c, 15, 7, 72
1, 151610, Control_c, 11, 7, 68
1, 151630, Control_c, 1, 7, 72
1, 151650, Control_c, 4, 7, 71
1, 151650, Control_c, 13, 7, 72
1, 151656, Note_on_c, 4, 53, 0
1, 151660, Control_c, 7, 7, 72
1, 151660, Control_c, 12, 7, 71
1, 151670, Note_on_c, 2, 65, 0
1, 151670, Note_on_c, 2, 77, 0
1, 151670, Note_on_c, 4, 41, 0
1, 151670, Note_on_c, 13, 41, 0
1, 151675, Note_on_c, 11, 67, 0
1, 151675, Note_on_c, 12, 67, 0
1, 151680, Note_on_c, 2, 65, 77
1, 151680, Note_on_c, 2, 69, 109
1, 151680, Control_c, 2, 7, 72
1, 151680, Note_on_c, 4, 53, 79
1, 151680, Note_on_c, 4, 46, 110
1, 151680, Note_on_c, 7, 62, 80
1, 151680, Note_on_c, 7, 57, 92
1, 151680, Note_on_c, 7, 65, 103
1, 151680, Note_on_c, 9, 36, 100
1, 151680, Note_on_c, 11, 69, 104
1, 151680, Note_on_c, 12, 69, 104
1, 151680, Note_on_c, 13, 46, 110
1, 151680, Note_on_c, 14, 40, 122
1, 151690, Note_on_c, 9, 36, 0
1, 151700, Control_c, 9, 7, 71
1, 151700, Control_c, 11, 7, 67
1, 151700, Control_c, 14, 7, 71
1, 151709, Note_on_c, 7, 62, 0
1, 151709, Note_on_c, 7, 57, 0
1, 151709, Note_on_c, 7, 65, 0
1, 151720, Control_c, 0, 7, 71
1, 151720, Control_c, 1, 7, 71
1, 151720, Control_c, 15, 7, 71
1, 151740, Control_c, 4, 7, 70
1, 151750, Control_c, 7, 7, 71
1, 151770, Control_c, 13, 7, 71
1, 151780, Control_c, 12, 7, 70
1, 151790, Control_c, 9, 7, 70
1, 151790, Control_c, 14, 7, 70
1, 151800, Control_c, 2, 7, 71
1, 151810, Control_c, 0, 7, 70
1, 151810, Control_c, 15, 7, 70
1, 151820, Control_c, 11, 7, 66
1, 151840, Control_c, 1, 7, 70
1, 151860, Control_c, 4, 7, 69
1, 151870, Control_c, 7, 7, 70
1, 151870, Control_c, 12, 7, 69
1, 151890, Control_c, 2, 7, 70
1, 151890, Control_c, 13, 7, 70
1, 151910, Control_c, 9, 7, 69
1, 151910, Control_c, 14, 7, 69
1, 151920, Note_on_c, 7, 65, 103
1, 151920, Note_on_c, 7, 57, 91
1, 151920, Note_on_c, 7, 62, 80
1, 151930, Control_c, 0, 7, 69
1, 151930, Control_c, 1, 7, 69
1, 151930, Control_c, 15, 7, 69
1, 151940, Control_c, 11, 7, 65
1, 151949, Note_on_c, 7, 65, 0
1, 151949, Note_on_c, 7, 57, 0
1, 151949, Note_on_c, 7, 62, 0
1, 151950, Control_c, 4, 7, 68
1, 151980, Control_c, 13, 7, 69
1, 151990, Control_c, 7, 7, 69
1, 151990, Control_c, 12, 7, 68
1, 152000, Control_c, 9, 7, 68
1, 152000, Control_c, 14, 7, 68
1, 152010, Control_c, 2, 7, 69
1, 152020, Control_c, 0, 7, 68
1, 152020, Control_c, 15, 7, 68
1, 152030, Control_c, 11, 7, 64
1, 152050, Control_c, 1, 7, 68
1, 152070, Control_c, 4, 7, 67
1, 152080, Control_c, 7, 7, 68
1, 152080, Control_c, 12, 7, 67
1, 152100, Control_c, 2, 7, 68
1, 152100, Control_c, 13, 7, 68
1, 152114, Note_on_c, 14, 40, 0
1, 152120, Control_c, 9, 7, 67
1, 152120, Control_c, 14, 7, 67
1, 152140, Control_c, 0, 7, 67
1, 152140, Control_c, 1, 7, 67
1, 152140, Control_c, 15, 7, 67
1, 152150, Note_on_c, 11, 69, 0
1, 152150, Note_on_c, 12, 69, 0
1, 152150, Note_on_c, 13, 46, 0
1, 152150, Control_c, 11, 7, 63
1, 152160, Control_c, 4, 7, 66
1, 152160, Note_on_c, 7, 65, 103
1, 152160, Note_on_c, 7, 57, 93
1, 152160, Note_on_c, 7, 62, 80
1, 152160, Note_on_c, 9, 36, 100
1, 152160, Note_on_c, 11, 72, 100
1, 152160, Note_on_c, 12, 72, 100
1, 152160, Note_on_c, 14, 40, 120
1, 152170, Note_on_c, 9, 36, 0
1, 152189, Note_on_c, 7, 65, 0
1, 152189, Note_on_c, 7, 57, 0
1, 152189, Note_on_c, 7, 62, 0
1, 152190, Control_c, 13, 7, 67
1, 152200, Control_c, 7, 7, 67
1, 152200, Control_c, 12, 7, 66
1, 152210, Control_c, 9, 7, 66
1, 152210, Control_c, 14, 7, 66
1, 152220, Control_c, 2, 7, 67
1, 152230, Control_c, 0, 7, 66
1, 152230, Control_c, 15, 7, 66
1, 152260, Control_c, 1, 7, 66
1, 152270, Control_c, 11, 7, 62
1, 152280, Control_c, 4, 7, 65
1, 152290, Control_c, 7, 7, 66
1, 152290, Control_c, 12, 7, 65
1, 152310, Control_c, 13, 7, 66
1, 152330, Control_c, 9, 7, 65
1, 152330, Control_c, 14, 7, 65
1, 152340, Control_c, 2, 7, 66
1, 152350, Control_c, 0, 7, 65
1, 152350, Control_c, 1, 7, 65
1, 152350, Control_c, 15, 7, 65
1, 152360, Control_c, 11, 7, 61
1, 152400, Control_c, 4, 7, 64
1, 152400, Note_on_c, 7, 65, 103
1, 152400, Note_on_c, 7, 57, 94
1, 152400, Note_on_c, 7, 62, 80
1, 152400, Control_c, 13, 7, 65
1, 152410, Control_c, 7, 7, 65
1, 152410, Control_c, 12, 7, 64
1, 152420, Control_c, 9, 7, 64
1, 152420, Control_c, 14, 7, 64
1, 152429, Note_on_c, 7, 65, 0
1, 152429, Note_on_c, 7, 57, 0
1, 152429, Note_on_c, 7, 62, 0
1, 152430, Control_c, 2, 7, 65
1, 152440, Control_c, 0, 7, 64
1, 152440, Control_c, 15, 7, 64
1, 152470, Control_c, 1, 7, 64
1, 152480, Control_c, 11, 7, 60
1, 152490, Control_c, 4, 7, 63
1, 152500, Control_c, 7, 7, 64
1, 152500, Control_c, 12, 7, 63
1, 152520, Control_c, 13, 7, 64
1, 152530, Control_c, 0, 7, 63
1, 152530, Control_c, 15, 7, 63
1, 152540, Control_c, 9, 7, 63
1, 152540, Control_c, 14, 7, 63
1, 152550, Control_c, 2, 7, 64
1, 152560, Control_c, 1, 7, 63
1, 152594, Note_on_c, 14, 40, 0
1, 152600, Control_c, 11, 7, 59
1, 152610, Control_c, 4, 7, 62
1, 152610, Control_c, 13, 7, 63
1, 152620, Control_c, 7, 7, 63
1, 152620, Control_c, 12, 7, 62
1, 152630, Note_on_c, 11, 72, 0
1, 152630, Note_on_c, 12, 72, 0
1, 152630, Control_c, 9, 7, 62
1, 152630, Control_c, 14, 7, 62
1, 152640, Note_on_c, 0, 54, 100
1, 152640, Control_c, 2, 7, 63
1, 152640, Note_on_c, 7, 65, 103
1, 152640, Note_on_c, 7, 57, 93
1, 152640, Note_on_c, 7, 62, 80
1, 152640, Note_on_c, 11, 67, 89
1, 152640, Note_on_c, 12, 67, 89
1, 152640, Note_on_c, 15, 79, 100
1, 152650, Control_c, 0, 7, 62
1, 152650, Control_c, 15, 7, 62
1, 152669, Note_on_c, 7, 65, 0
1, 152669, Note_on_c, 7, 57, 0
1, 152669, Note_on_c, 7, 62, 0
1, 152680, Control_c, 1, 7, 62
1, 152700, Control_c, 4, 7, 61
1, 152710, Control_c, 7, 7, 62
1, 152710, Control_c, 12, 7, 61
1, 152720, Control_c, 11, 7, 58
1, 152730, Control_c, 13, 7, 62
1, 152740, Control_c, 0, 7, 61
1, 152740, Control_c, 15, 7, 61
1, 152750, Control_c, 9, 7, 61
1, 152750, Control_c, 14, 7, 61
1, 152760, Control_c, 2, 7, 62
1, 152770, Control_c, 1, 7, 61
1, 152810, Control_c, 11, 7, 57
1, 152820, Control_c, 4, 7, 60
1, 152820, Control_c, 13, 7, 61
1, 152830, Control_c, 7, 7, 61
1, 152830, Control_c, 12, 7, 60
1, 152840, Control_c, 9, 7, 60
1, 152840, Control_c, 14, 7, 60
1, 152850, Control_c, 2, 7, 61
1, 152860, Control_c, 0, 7, 60
1, 152860, Control_c, 15, 7, 60
1, 152880, Note_on_c, 7, 65, 103
1, 152880, Note_on_c, 7, 57, 95
1, 152880, Note_on_c, 7, 62, 80
1, 152890, Control_c, 1, 7, 60
1, 152909, Note_on_c, 7, 65, 0
1, 152909, Note_on_c, 7, 57, 0
1, 152909, Note_on_c, 7, 62, 0
1, 152910, Control_c, 4, 7, 59
1, 152920, Control_c, 7, 7, 60
1, 152930, Control_c, 11, 7, 56
1, 152940, Control_c, 13, 7, 60
1, 152950, Control_c, 0, 7, 59
1, 152950, Control_c, 12, 7, 59
1, 152950, Control_c, 15, 7, 59
1, 152960, Control_c, 9, 7, 59
1, 152960, Control_c, 14, 7, 59
1, 152970, Control_c, 2, 7, 60
1, 152980, Control_c, 1, 7, 59
1, 153030, Control_c, 4, 7, 58
1, 153030, Control_c, 13, 7, 59
1, 153040, Control_c, 7, 7, 59
1, 153040, Control_c, 12, 7, 58
1, 153050, Control_c, 9, 7, 58
1, 153050, Control_c, 11, 7, 55
1, 153050, Control_c, 14, 7, 58
1, 153060, Control_c, 2, 7, 59
1, 153070, Control_c, 0, 7, 58
1, 153070, Control_c, 15, 7, 58
1, 153100, Control_c, 1, 7, 58
1, 153120, Control_c, 4, 7, 57
1, 153120, Note_on_c, 7, 65, 103
1, 153120, Note_on_c, 7, 57, 93
1, 153120, Note_on_c, 7, 62, 80
1, 153120, Note_on_c, 13, 46, 110
1, 153130, Control_c, 7, 7, 58
1, 153140, Control_c, 11, 7, 54
1, 153149, Note_on_c, 7, 65, 0
1, 153149, Note_on_c, 7, 57, 0
1, 153149, Note_on_c, 7, 62, 0
1, 153150, Control_c, 13, 7, 58
1, 153160, Control_c, 0, 7, 57
1, 153160, Control_c, 12, 7, 57
1, 153160, Control_c, 15, 7, 57
1, 153170, Control_c, 9, 7, 57
1, 153170, Control_c, 14, 7, 57
1, 153180, Control_c, 2, 7, 58
1, 153190, Control_c, 1, 7, 57
1, 153240, Control_c, 4, 7, 56
1, 153250, Control_c, 7, 7, 57
1, 153250, Control_c, 12, 7, 56
1, 153260, Control_c, 9, 7, 56
1, 153260, Control_c, 11, 7, 53
1, 153260, Control_c, 14, 7, 56
1, 153270, Control_c, 2, 7, 57
1, 153270, Control_c, 13, 7, 57
1, 153280, Control_c, 0, 7, 56
1, 153280, Control_c, 15, 7, 56
1, 153291, Note_on_c, 0, 54, 0
1, 153291, Note_on_c, 15, 79, 0
1, 153310, Control_c, 1, 7, 56
1, 153330, Control_c, 4, 7, 55
1, 153340, Control_c, 7, 7, 56
1, 153360, Note_on_c, 7, 65, 103
1, 153360, Note_on_c, 7, 57, 93
1, 153360, Note_on_c, 7, 62, 80
1, 153360, Control_c, 13, 7, 56
1, 153370, Control_c, 0, 7, 55
1, 153370, Control_c, 12, 7, 55
1, 153370, Control_c, 15, 7, 55
1, 153380, Control_c, 9, 7, 55
1, 153380, Control_c, 11, 7, 52
1, 153380, Control_c, 14, 7, 55
1, 153389, Note_on_c, 7, 65, 0
1, 153389, Note_on_c, 7, 57, 0
1, 153389, Note_on_c, 7, 62, 0
1, 153390, Control_c, 2, 7, 56
1, 153400, Control_c, 1, 7, 55
1, 153450, Control_c, 4, 7, 54
1, 153460, Control_c, 7, 7, 55
1, 153460, Control_c, 12, 7, 54
1, 153470, Control_c, 9, 7, 54
1, 153470, Control_c, 11, 7, 51
1, 153470, Control_c, 14, 7, 54
1, 153480, Control_c, 13, 7, 55
1, 153490, Control_c, 0, 7, 54
1, 153490, Control_c, 15, 7, 54
1, 153510, Control_c, 2, 7, 55
1, 153520, Control_c, 1, 7, 54
1, 153540, Control_c, 4, 7, 53
1, 153550, Control_c, 7, 7, 54
1, 153562, Note_on_c, 2, 65, 0
1, 153562, Note_on_c, 4, 53, 0
1, 153562, Note_on_c, 4, 46, 0
1, 153570, Control_c, 13, 7, 54
1, 153580, Control_c, 0, 7, 53
1, 153580, Control_c, 12, 7, 53
1, 153580, Control_c, 15, 7, 53
1, 153581, Note_on_c, 11, 67, 0
1, 153581, Note_on_c, 12, 67, 0
1, 153590, Note_on_c, 13, 46, 0
1, 153590, Control_c, 9, 7, 53
1, 153590, Control_c, 11, 7, 50
1, 153590, Control_c, 14, 7, 53
1, 153600, Note_on_c, 2, 64, 78
1, 153600, Control_c, 2, 7, 54
1, 153600, Note_on_c, 4, 55, 79
1, 153600, Note_on_c, 4, 48, 110
1, 153600, Note_on_c, 7, 60, 80
1, 153600, Note_on_c, 7, 55, 92
1, 153600, Note_on_c, 7, 64, 103
1, 153600, Note_on_c, 9, 36, 100
1, 153600, Note_on_c, 11, 69, 100
1, 153600, Note_on_c, 12, 69, 100
1, 153600, Note_on_c, 13, 48, 110
1, 153600, Note_on_c, 14, 40, 120
1, 153610, Note_on_c, 9, 36, 0
1, 153610, Control_c, 1, 7, 53
1, 153629, Note_on_c, 7, 60, 0
1, 153629, Note_on_c, 7, 55, 0
1, 153629, Note_on_c, 7, 64, 0
1, 153660, Control_c, 4, 7, 52
1, 153670, Control_c, 7, 7, 53
1, 153670, Control_c, 12, 7, 52
1, 153680, Control_c, 9, 7, 52
1, 153680, Control_c, 14, 7, 52
1, 153690, Control_c, 13, 7, 53
1, 153700, Control_c, 0, 7, 52
1, 153700, Control_c, 15, 7, 52
1, 153710, Control_c, 11, 7, 49
1, 153720, Control_c, 2, 7, 53
1, 153730, Control_c, 1, 7, 52
1, 153750, Control_c, 4, 7, 51
1, 153760, Control_c, 7, 7, 52
1, 153780, Control_c, 13, 7, 52
1, 153790, Control_c, 0, 7, 51
1, 153790, Control_c, 12, 7, 51
1, 153790, Control_c, 15, 7, 51
1, 153800, Control_c, 9, 7, 51
1, 153800, Control_c, 11, 7, 48
1, 153800, Control_c, 14, 7, 51
1, 153810, Control_c, 2, 7, 52
1, 153820, Control_c, 1, 7, 51
1, 153840, Note_on_c, 7, 64, 103
1, 153840, Note_on_c, 7, 55, 91
1, 153840, Note_on_c, 7, 60, 80
1, 153869, Note_on_c, 7, 64, 0
1, 153869, Note_on_c, 7, 55, 0
1, 153869, Note_on_c, 7, 60, 0
1, 153870, Control_c, 4, 7, 50
1, 153880, Control_c, 7, 7, 51
1, 153880, Control_c, 12, 7, 50
1, 153890, Control_c, 9, 7, 50
1, 153890, Control_c, 14, 7, 50
1, 153900, Control_c, 13, 7, 51
1, 153910, Control_c, 0, 7, 50
1, 153910, Control_c, 15, 7, 50
1, 153920, Control_c, 11, 7, 47
1, 153930, Control_c, 2, 7, 51
1, 153940, Control_c, 1, 7, 50
1, 153960, Control_c, 4, 7, 49
1, 153990, Control_c, 13, 7, 50
1, 154000, Control_c, 0, 7, 49
1, 154000, Control_c, 7, 7, 50
1, 154000, Control_c, 12, 7, 49
1, 154000, Control_c, 15, 7, 49
1, 154010, Control_c, 9, 7, 49
1, 154010, Control_c, 14, 7, 49
1, 154020, Control_c, 2, 7, 50
1, 154030, Control_c, 1, 7, 49
1, 154034, Note_on_c, 14, 40, 0
1, 154040, Control_c, 11, 7, 46
1, 154070, Note_on_c, 1, 96, 0
1, 154070, Note_on_c, 11, 69, 0
1, 154070, Note_on_c, 12, 69, 0
1, 154070, Note_on_c, 13, 48, 0
1, 154080, Note_on_c, 1, 96, 72
1, 154080, Control_c, 4, 7, 48
1, 154080, Note_on_c, 7, 64, 103
1, 154080, Note_on_c, 7, 55, 93
1, 154080, Note_on_c, 7, 60, 80
1, 154080, Note_on_c, 9, 36, 100
1, 154080, Note_on_c, 11, 67, 91
1, 154080, Note_on_c, 12, 67, 91
1, 154080, Note_on_c, 14, 40, 120
1, 154090, Note_on_c, 9, 36, 0
1, 154090, Control_c, 7, 7, 49
1, 154090, Control_c, 12, 7, 48
1, 154100, Control_c, 9, 7, 48
1, 154100, Control_c, 14, 7, 48
1, 154109, Note_on_c, 7, 64, 0
1, 154109, Note_on_c, 7, 55, 0
1, 154109, Note_on_c, 7, 60, 0
1, 154110, Control_c, 13, 7, 49
1, 154120, Control_c, 0, 7, 48
1, 154120, Control_c, 15, 7, 48
1, 154130, Control_c, 11, 7, 45
1, 154140, Control_c, 2, 7, 49
1, 154150, Control_c, 1, 7, 48
1, 154170, Control_c, 4, 7, 47
1, 154200, Control_c, 13, 7, 48
1, 154210, Control_c, 0, 7, 47
1, 154210, Control_c, 7, 7, 48
1, 154210, Control_c, 12, 7, 47
1, 154210, Control_c, 15, 7, 47
1, 154220, Control_c, 9, 7, 47
1, 154220, Control_c, 14, 7, 47
1, 154230, Control_c, 2, 7, 48
1, 154240, Control_c, 1, 7, 47
1, 154250, Control_c, 11, 7, 44
1, 154290, Control_c, 4, 7, 46
1, 154300, Control_c, 7, 7, 47
1, 154300, Control_c, 12, 7, 46
1, 154310, Control_c, 9, 7, 46
1, 154310, Control_c, 14, 7, 46
1, 154315, Note_on_c, 11, 67, 0
1, 154315, Note_on_c, 12, 67, 0
1, 154320, Note_on_c, 7, 64, 103
1, 154320, Note_on_c, 7, 55, 94
1, 154320, Note_on_c, 7, 60, 80
1, 154320, Note_on_c, 11, 65, 85
1, 154320, Note_on_c, 12, 65, 85
1, 154320, Control_c, 13, 7, 47
1, 154330, Control_c, 0, 7, 46
1, 154330, Control_c, 15, 7, 46
1, 154349, Note_on_c, 7, 64, 0
1, 154349, Note_on_c, 7, 55, 0
1, 154349, Note_on_c, 7, 60, 0
1, 154350, Control_c, 2, 7, 47
1, 154360, Control_c, 1, 7, 46
1, 154370, Control_c, 11, 7, 43
1, 154410, Control_c, 4, 7, 45
1, 154410, Control_c, 13, 7, 46
1, 154420, Control_c, 0, 7, 45
1, 154420, Control_c, 7, 7, 46
1, 154420, Control_c, 12, 7, 45
1, 154420, Control_c, 15, 7, 45
1, 154430, Control_c, 9, 7, 45
1, 154430, Control_c, 14, 7, 45
1, 154450, Control_c, 1, 7, 45
1, 154470, Control_c, 2, 7, 46
1, 154490, Control_c, 11, 7, 42
1, 154500, Control_c, 4, 7, 44
1, 154510, Control_c, 7, 7, 45
1, 154510, Control_c, 12, 7, 44
1, 154514, Note_on_c, 14, 40, 0
1, 154520, Control_c, 9, 7, 44
1, 154520, Control_c, 14, 7, 44
1, 154530, Control_c, 13, 7, 45
1, 154540, Control_c, 0, 7, 44
1, 154540, Control_c, 15, 7, 44
1, 154541, Note_on_c, 2, 69, 0
1, 154555, Note_on_c, 11, 65, 0
1, 154555, Note_on_c, 12, 65, 0
1, 154560, Note_on_c, 0, 54, 100
1, 154560, Note_on_c, 2, 67, 110
1, 154560, Control_c, 2, 7, 45
1, 154560, Note_on_c, 7, 64, 103
1, 154560, Note_on_c, 7, 55, 93
1, 154560, Note_on_c, 7, 60, 80
1, 154560, Note_on_c, 11, 62, 75
1, 154560, Note_on_c, 12, 62, 75
1, 154560, Note_on_c, 15, 79, 100
1, 154570, Control_c, 1, 7, 44
1, 154580, Control_c, 11, 7, 41
1, 154589, Note_on_c, 7, 64, 0
1, 154589, Note_on_c, 7, 55, 0
1, 154589, Note_on_c, 7, 60, 0
1, 154620, Control_c, 4, 7, 43
1, 154630, Control_c, 0, 7, 43
1, 154630, Control_c, 7, 7, 44
1, 154630, Control_c, 12, 7, 43
1, 154630, Control_c, 15, 7, 43
1, 154640, Control_c, 9, 7, 43
1, 154640, Control_c, 14, 7, 43
1, 154650, Control_c, 13, 7, 44
1, 154660, Control_c, 1, 7, 43
1, 154680, Control_c, 2, 7, 44
1, 154700, Control_c, 11, 7, 40
1, 154710, Control_c, 4, 7, 42
1, 154720, Control_c, 7, 7, 43
1, 154730, Control_c, 9, 7, 42
1, 154730, Control_c, 14, 7, 42
1, 154740, Control_c, 13, 7, 43
1, 154750, Control_c, 0, 7, 42
1, 154750, Control_c, 12, 7, 42
1, 154750, Control_c, 15, 7, 42
1, 154770, Control_c, 2, 7, 43
1, 154780, Control_c, 1, 7, 42
1, 154795, Note_on_c, 11, 62, 0
1, 154795, Note_on_c, 12, 62, 0
1, 154800, Note_on_c, 7, 64, 103
1, 154800, Note_on_c, 7, 55, 95
1, 154800, Note_on_c, 7, 60, 80
1, 154800, Note_on_c, 11, 65, 81
1, 154800, Note_on_c, 12, 65, 81
1, 154820, Control_c, 11, 7, 39
1, 154829, Note_on_c, 7, 64, 0
1, 154829, Note_on_c, 7, 55, 0
1, 154829, Note_on_c, 7, 60, 0
1, 154830, Control_c, 4, 7, 41
1, 154840, Control_c, 0, 7, 41
1, 154840, Control_c, 7, 7, 42
1, 154840, Control_c, 12, 7, 41
1, 154840, Control_c, 15, 7, 41
1, 154850, Control_c, 9, 7, 41
1, 154850, Control_c, 14, 7, 41
1, 154860, Control_c, 13, 7, 42
1, 154870, Control_c, 1, 7, 41
1, 154890, Control_c, 2, 7, 42
1, 154910, Control_c, 11, 7, 38
1, 154920, Control_c, 4, 7, 40
1, 154930, Control_c, 7, 7, 41
1, 154940, Control_c, 9, 7, 40
1, 154940, Control_c, 14, 7, 40
1, 154950, Control_c, 13, 7, 41
1, 154960, Control_c, 0, 7, 40
1, 154960, Control_c, 12, 7, 40
1, 154960, Control_c, 15, 7, 40
1, 154980, Control_c, 2, 7, 41
1, 154990, Control_c, 1, 7, 40
1, 155030, Control_c, 11, 7, 37
1, 155040, Control_c, 4, 7, 39
1, 155040, Note_on_c, 7, 64, 103
1, 155040, Note_on_c, 7, 55, 93
1, 155040, Note_on_c, 7, 60, 80
1, 155040, Note_on_c, 13, 48, 110
1, 155050, Control_c, 0, 7, 39
1, 155050, Control_c, 7, 7, 40
1, 155050, Control_c, 12, 7, 39
1, 155050, Control_c, 15, 7, 39
1, 155060, Control_c, 9, 7, 39
1, 155060, Control_c, 14, 7, 39
1, 155069, Note_on_c, 7, 64, 0
1, 155069, Note_on_c, 7, 55, 0
1, 155069, Note_on_c, 7, 60, 0
1, 155070, Control_c, 13, 7, 40
1, 155080, Control_c, 1, 7, 39
1, 155100, Control_c, 2, 7, 40
1, 155130, Control_c, 4, 7, 38
1, 155140, Control_c, 7, 7, 39
1, 155150, Control_c, 9, 7, 38
1, 155150, Control_c, 11, 7, 36
1, 155150, Control_c, 14, 7, 38
1, 155160, Control_c, 13, 7, 39
1, 155170, Control_c, 0, 7, 38
1, 155170, Control_c, 12, 7, 38
1, 155170, Control_c, 15, 7, 38
1, 155190, Control_c, 2, 7, 39
1, 155200, Control_c, 1, 7, 38
1, 155211, Note_on_c, 0, 54, 0
1, 155211, Note_on_c, 15, 79, 0
1, 155240, Control_c, 11, 7, 35
1, 155250, Control_c, 4, 7, 37
1, 155260, Control_c, 0, 7, 37
1, 155260, Control_c, 7, 7, 38
1, 155260, Control_c, 12, 7, 37
1, 155260, Control_c, 15, 7, 37
1, 155270, Control_c, 9, 7, 37
1, 155270, Control_c, 14, 7, 37
1, 155275, Note_on_c, 11, 65, 0
1, 155275, Note_on_c, 12, 65, 0
1, 155280, Note_on_c, 7, 64, 103
1, 155280, Note_on_c, 7, 55, 93
1, 155280, Note_on_c, 7, 60, 80
1, 155280, Note_on_c, 11, 67, 100
1, 155280, Note_on_c, 12, 67, 100
1, 155280, Control_c, 13, 7, 38
1, 155290, Control_c, 1, 7, 37
1, 155309, Note_on_c, 7, 64, 0
1, 155309, Note_on_c, 7, 55, 0
1, 155309, Note_on_c, 7, 60, 0
1, 155310, Control_c, 2, 7, 38
1, 155340, Control_c, 4, 7, 36
1, 155350, Control_c, 7, 7, 37
1, 155360, Control_c, 9, 7, 36
1, 155360, Control_c, 11, 7, 34
1, 155360, Control_c, 14, 7, 36
1, 155370, Control_c, 13, 7, 37
1, 155380, Control_c, 0, 7, 36
1, 155380, Control_c, 12, 7, 36
1, 155380, Control_c, 15, 7, 36
1, 155400, Control_c, 2, 7, 37
1, 155410, Control_c, 1, 7, 36
1, 155460, Control_c, 4, 7, 35
1, 155470, Control_c, 0, 7, 35
1, 155470, Control_c, 7, 7, 36
1, 155470, Control_c, 12, 7, 35
1, 155470, Control_c, 15, 7, 35
1, 155480, Control_c, 9, 7, 35
1, 155480, Control_c, 11, 7, 33
1, 155480, Control_c, 14, 7, 35
1, 155482, Note_on_c, 2, 64, 0
1, 155482, Note_on_c, 4, 55, 0
1, 155482, Note_on_c, 4, 48, 0
1, 155490, Control_c, 13, 7, 36
1, 155500, Control_c, 1, 7, 35
1, 155501, Note_on_c, 2, 67, 0
1, 155510, Note_on_c, 13, 48, 0
1, 155515, Note_on_c, 11, 67, 0
1, 155515, Note_on_c, 12, 67, 0
1, 155520, Note_on_c, 2, 65, 76
1, 155520, Note_on_c, 2, 69, 110
1, 155520, Control_c, 2, 7, 36
1, 155520, Note_on_c, 4, 57, 79
1, 155520, Note_on_c, 4, 47, 110
1, 155520, Note_on_c, 7, 62, 80
1, 155520, Note_on_c, 7, 57, 92
1, 155520, Note_on_c, 7, 65, 103
1, 155520, Note_on_c, 9, 36, 100
1, 155520, Note_on_c, 11, 69, 100
1, 155520, Note_on_c, 12, 69, 100
1, 155520, Note_on_c, 13, 47, 110
1, 155520, Note_on_c, 14, 40, 122
1, 155530, Note_on_c, 9, 36, 0
1, 155549, Note_on_c, 7, 62, 0
1, 155549, Note_on_c, 7, 57, 0
1, 155549, Note_on_c, 7, 65, 0
1, 155550, Control_c, 4, 7, 34
1, 155560, Control_c, 7, 7, 35
1, 155570, Control_c, 9, 7, 34
1, 155570, Control_c, 11, 7, 32
1, 155570, Control_c, 14, 7, 34
1, 155580, Control_c, 13, 7, 35
1, 155590, Control_c, 0, 7, 34
1, 155590, Control_c, 12, 7, 34
1, 155590, Control_c, 15, 7, 34
1, 155620, Control_c, 1, 7, 34
1, 155640, Control_c, 2, 7, 35
1, 155670, Control_c, 4, 7, 33
1, 155680, Control_c, 0, 7, 33
1, 155680, Control_c, 7, 7, 34
1, 155680, Control_c, 12, 7, 33
1, 155680, Control_c, 15, 7, 33
1, 155690, Control_c, 9, 7, 33
1, 155690, Control_c, 11, 7, 31
1, 155690, Control_c, 14, 7, 33
1, 155700, Control_c, 13, 7, 34
1, 155710, Control_c, 1, 7, 33
1, 155730, Control_c, 2, 7, 34
1, 155760, Control_c, 4, 7, 32
1, 155760, Note_on_c, 7, 65, 103
1, 155760, Note_on_c, 7, 57, 91
1, 155760, Note_on_c, 7, 62, 80
1, 155770, Control_c, 7, 7, 33
1, 155780, Control_c, 9, 7, 32
1, 155780, Control_c, 14, 7, 32
1, 155789, Note_on_c, 7, 65, 0
1, 155789, Note_on_c, 7, 57, 0
1, 155789, Note_on_c, 7, 62, 0
1, 155790, Control_c, 13, 7, 33
1, 155800, Control_c, 0, 7, 32
1, 155800, Control_c, 12, 7, 32
1, 155800, Control_c, 15, 7, 32
1, 155810, Control_c, 11, 7, 30
1, 155830, Control_c, 1, 7, 32
1, 155850, Control_c, 2, 7, 33
1, 155880, Control_c, 4, 7, 31
1, 155890, Control_c, 0, 7, 31
1, 155890, Control_c, 7, 7, 32
1, 155890, Control_c, 12, 7, 31
1, 155890, Control_c, 15, 7, 31
1, 155900, Control_c, 9, 7, 31
1, 155900, Control_c, 14, 7, 31
1, 155910, Control_c, 13, 7, 32
1, 155930, Control_c, 11, 7, 29
1, 155940, Control_c, 2, 7, 32
1, 155950, Control_c, 1, 7, 31
1, 155954, Note_on_c, 14, 40, 0
1, 155970, Control_c, 4, 7, 30
1, 155990, Note_on_c, 11, 69, 0
1, 155990, Note_on_c, 12, 69, 0
1, 155990, Note_on_c, 13, 47, 0
1, 155990, Control_c, 9, 7, 30
1, 155990, Control_c, 14, 7, 30
1, 156000, Note_on_c, 7, 65, 103
1, 156000, Note_on_c, 7, 57, 93
1, 156000, Note_on_c, 7, 62, 80
1, 156000, Note_on_c, 9, 36, 100
1, 156000, Note_on_c, 11, 72, 100
1, 156000, Note_on_c, 12, 72, 100
1, 156000, Note_on_c, 14, 40, 120
1, 156010, Note_on_c, 9, 36, 0
1, 156010, Control_c, 0, 7, 30
1, 156010, Control_c, 7, 7, 31
1, 156010, Control_c, 12, 7, 30
1, 156010, Control_c, 15, 7, 30
1, 156020, Control_c, 11, 7, 28
1, 156029, Note_on_c, 7, 65, 0
1, 156029, Note_on_c, 7, 57, 0
1, 156029, Note_on_c, 7, 62, 0
1, 156030, Control_c, 13, 7, 31
1, 156040, Control_c, 1, 7, 30
1, 156060, Control_c, 2, 7, 31
1, 156090, Control_c, 4, 7, 29
1, 156100, Control_c, 0, 7, 29
1, 156100, Control_c, 7, 7, 30
1, 156100, Control_c, 12, 7, 29
1, 156100, Control_c, 15, 7, 29
1, 156110, Control_c, 9, 7, 29
1, 156110, Control_c, 14, 7, 29
1, 156120, Control_c, 13, 7, 30
1, 156140, Control_c, 11, 7, 27
1, 156150, Control_c, 2, 7, 30
1, 156160, Control_c, 1, 7, 29
1, 156180, Control_c, 4, 7, 28
1, 156200, Control_c, 9, 7, 28
1, 156200, Control_c, 14, 7, 28
1, 156220, Control_c, 0, 7, 28
1, 156220, Control_c, 7, 7, 29
1, 156220, Control_c, 12, 7, 28
1, 156220, Control_c, 15, 7, 28
1, 156240, Note_on_c, 7, 65, 103
1, 156240, Note_on_c, 7, 57, 94
1, 156240, Note_on_c, 7, 62, 80
1, 156240, Control_c, 13, 7, 29
1, 156250, Control_c, 1, 7, 28
1, 156260, Control_c, 11, 7, 26
1, 156269, Note_on_c, 7, 65, 0
1, 156269, Note_on_c, 7, 57, 0
1, 156269, Note_on_c, 7, 62, 0
1, 156270, Control_c, 2, 7, 29
1, 156300, Control_c, 4, 7, 27
1, 156310, Control_c, 0, 7, 27
1, 156310, Control_c, 7, 7, 28
1, 156310, Control_c, 15, 7, 27
1, 156320, Control_c, 9, 7, 27
1, 156320, Control_c, 14, 7, 27
1, 156330, Control_c, 13, 7, 28
1, 156340, Control_c, 12, 7, 27
1, 156350, Control_c, 11, 7, 25
1, 156360, Control_c, 2, 7, 28
1, 156370, Control_c, 1, 7, 27
1, 156410, Control_c, 9, 7, 26
1, 156410, Control_c, 14, 7, 26
1, 156420, Control_c, 4, 7, 26
1, 156430, Control_c, 0, 7, 26
1, 156430, Control_c, 7, 7, 27
1, 156430, Control_c, 12, 7, 26
1, 156430, Control_c, 15, 7, 26
1, 156434, Note_on_c, 14, 40, 0
1, 156450, Control_c, 13, 7, 27
1, 156460, Control_c, 1, 7, 26
1, 156470, Note_on_c, 11, 72, 0
1, 156470, Note_on_c, 12, 72, 0
1, 156470, Control_c, 11, 7, 24
1, 156480, Note_on_c, 0, 54, 100
1, 156480, Control_c, 2, 7, 27
1, 156480, Note_on_c, 7, 65, 103
1, 156480, Note_on_c, 7, 57, 93
1, 156480, Note_on_c, 7, 62, 80
1, 156480, Note_on_c, 11, 76, 108
1, 156480, Note_on_c, 12, 76, 108
1, 156480, Note_on_c, 15, 79, 100
1, 156509, Note_on_c, 7, 65, 0
1, 156509, Note_on_c, 7, 57, 0
1, 156509, Note_on_c, 7, 62, 0
1, 156510, Control_c, 4, 7, 25
1, 156520, Control_c, 0, 7, 25
1, 156520, Control_c, 7, 7, 26
1, 156520, Control_c, 15, 7, 25
1, 156530, Control_c, 9, 7, 25
1, 156530, Control_c, 14, 7, 25
1, 156540, Control_c, 13, 7, 26
1, 156550, Control_c, 12, 7, 25
1, 156580, Control_c, 1, 7, 25
1, 156590, Control_c, 11, 7, 23
1, 156600, Control_c, 2, 7, 26
1, 156620, Control_c, 9, 7, 24
1, 156620, Control_c, 14, 7, 24
1, 156630, Control_c, 4, 7, 24
1, 156640, Control_c, 0, 7, 24
1, 156640, Control_c, 7, 7, 25
1, 156640, Control_c, 12, 7, 24
1, 156640, Control_c, 15, 7, 24
1, 156660, Control_c, 13, 7, 25
1, 156670, Control_c, 1, 7, 24
1, 156680, Control_c, 11, 7, 22
1, 156690, Control_c, 2, 7, 25
1, 156720, Control_c, 4, 7, 23
1, 156720, Note_on_c, 7, 65, 103
1, 156720, Note_on_c, 7, 57, 95
1, 156720, Note_on_c, 7, 62, 80
1, 156730, Control_c, 0, 7, 23
1, 156730, Control_c, 7, 7, 24
1, 156730, Control_c, 15, 7, 23
1, 156740, Control_c, 9, 7, 23
1, 156740, Control_c, 14, 7, 23
1, 156749, Note_on_c, 7, 65, 0
1, 156749, Note_on_c, 7, 57, 0
1, 156749, Note_on_c, 7, 62, 0
1, 156750, Control_c, 13, 7, 24
1, 156760, Control_c, 12, 7, 23
1, 156790, Control_c, 1, 7, 23
1, 156800, Control_c, 11, 7, 21
1, 156810, Control_c, 2, 7, 24
1, 156830, Control_c, 9, 7, 22
1, 156830, Control_c, 14, 7, 22
1, 156840, Control_c, 4, 7, 22
1, 156850, Control_c, 0, 7, 22
1, 156850, Control_c, 7, 7, 23
1, 156850, Control_c, 12, 7, 22
1, 156850, Control_c, 15, 7, 22
1, 156870, Control_c, 13, 7, 23
1, 156880, Control_c, 1, 7, 22
1, 156900, Control_c, 2, 7, 23
1, 156920, Control_c, 11, 7, 20
1, 156930, Control_c, 4, 7, 21
1, 156940, Control_c, 0, 7, 21
1, 156940, Control_c, 7, 7, 22
1, 156940, Control_c, 15, 7, 21
1, 156950, Note_on_c, 11, 76, 0
1, 156950, Note_on_c, 12, 76, 0
1, 156950, Control_c, 9, 7, 21
1, 156950, Control_c, 14, 7, 21
1, 156960, Note_on_c, 7, 65, 103
1, 156960, Note_on_c, 7, 57, 93
1, 156960, Note_on_c, 7, 62, 80
1, 156960, Note_on_c, 11, 72, 105
1, 156960, Note_on_c, 12, 72, 105
1, 156960, Note_on_c, 13, 47, 110
1, 156960, Control_c, 13, 7, 22
1, 156970, Control_c, 12, 7, 21
1, 156989, Note_on_c, 7, 65, 0
1, 156989, Note_on_c, 7, 57, 0
1, 156989, Note_on_c, 7, 62, 0
1, 157000, Control_c, 1, 7, 21
1, 157010, Control_c, 11, 7, 19
1, 157020, Control_c, 2, 7, 22
1, 157040, Control_c, 9, 7, 20
1, 157040, Control_c, 14, 7, 20
1, 157050, Control_c, 4, 7, 20
1, 157060, Control_c, 0, 7, 20
1, 157060, Control_c, 7, 7, 21
1, 157060, Control_c, 12, 7, 20
1, 157060, Control_c, 15, 7, 20
1, 157080, Control_c, 13, 7, 21
1, 157090, Control_c, 1, 7, 20
1, 157110, Control_c, 2, 7, 21
1, 157130, Control_c, 11, 7, 18
1, 157131, Note_on_c, 0, 54, 0
1, 157131, Note_on_c, 15, 79, 0
1, 157140, Control_c, 4, 7, 19
1, 157150, Control_c, 0, 7, 19
1, 157150, Control_c, 7, 7, 20
1, 157150, Control_c, 15, 7, 19
1, 157160, Control_c, 9, 7, 19
1, 157160, Control_c, 14, 7, 19
1, 157170, Control_c, 13, 7, 20
1, 157180, Control_c, 12, 7, 19
1, 157200, Note_on_c, 7, 65, 103
1, 157200, Note_on_c, 7, 57, 93
1, 157200, Note_on_c, 7, 62, 80
1, 157210, Control_c, 1, 7, 19
1, 157229, Note_on_c, 7, 65, 0
1, 157229, Note_on_c, 7, 57, 0
1, 157229, Note_on_c, 7, 62, 0
1, 157230, Control_c, 2, 7, 20
1, 157250, Control_c, 9, 7, 18
1, 157250, Control_c, 11, 7, 17
1, 157250, Control_c, 14, 7, 18
1, 157260, Control_c, 4, 7, 18
1, 157270, Control_c, 0, 7, 18
1, 157270, Control_c, 7, 7, 19
1, 157270, Control_c, 12, 7, 18
1, 157270, Control_c, 15, 7, 18
1, 157290, Control_c, 13, 7, 19
1, 157300, Control_c, 1, 7, 18
1, 157320, Control_c, 2, 7, 19
1, 157340, Control_c, 11, 7, 16
1, 157350, Control_c, 4, 7, 17
1, 157360, Control_c, 0, 7, 17
1, 157360, Control_c, 7, 7, 18
1, 157360, Control_c, 15, 7, 17
1, 157370, Control_c, 9, 7, 17
1, 157370, Control_c, 14, 7, 17
1, 157380, Control_c, 13, 7, 18
1, 157390, Control_c, 12, 7, 17
1, 157402, Note_on_c, 2, 65, 0
1, 157402, Note_on_c, 2, 69, 0
1, 157402, Note_on_c, 4, 57, 0
1, 157402, Note_on_c, 4, 47, 0
1, 157420, Control_c, 1, 7, 17
1, 157430, Note_on_c, 11, 72, 0
1, 157430, Note_on_c, 12, 72, 0
1, 157430, Note_on_c, 13, 47, 0
1, 157440, Note_on_c, 2, 69, 109
1, 157440, Note_on_c, 2, 62, 100
1, 157440, Control_c, 2, 7, 18
1, 157440, Note_on_c, 4, 53, 77
1, 157440, Note_on_c, 4, 43, 111
1, 157440, Note_on_c, 7, 65, 103
1, 157440, Note_on_c, 7, 57, 93
1, 157440, Note_on_c, 7, 62, 80
1, 157440, Note_on_c, 9, 36, 100
1, 157440, Note_on_c, 11, 74, 102
1, 157440, Note_on_c, 12, 74, 102
1, 157440, Note_on_c, 13, 43, 110
1, 157440, Note_on_c, 14, 40, 120
1, 157450, Note_on_c, 9, 36, 0
1, 157460, Control_c, 9, 7, 16
1, 157460, Control_c, 11, 7, 15
1, 157460, Control_c, 14, 7, 16
1, 157469, Note_on_c, 7, 65, 0
1, 157469, Note_on_c, 7, 57, 0
1, 157469, Note_on_c, 7, 62, 0
1, 157470, Control_c, 4, 7, 16
1, 157480, Control_c, 0, 7, 16
1, 157480, Control_c, 7, 7, 17
1, 157480, Control_c, 12, 7, 16
1, 157480, Control_c, 15, 7, 16
1, 157500, Control_c, 13, 7, 17
1, 157510, Control_c, 1, 7, 16
1, 157530, Control_c, 2, 7, 17
1, 157560, Control_c, 4, 7, 15
1, 157570, Control_c, 0, 7, 15
1, 157570, Control_c, 7, 7, 16
1, 157570, Control_c, 15, 7, 15
1, 157580, Control_c, 9, 7, 15
1, 157580, Control_c, 11, 7, 14
1, 157580, Control_c, 14, 7, 15
1, 157600, Control_c, 12, 7, 15
1, 157620, Control_c, 13, 7, 16
1, 157630, Control_c, 1, 7, 15
1, 157650, Control_c, 2, 7, 16
1, 157670, Control_c, 9, 7, 14
1, 157670, Control_c, 14, 7, 14
1, 157680, Control_c, 4, 7, 14
1, 157680, Note_on_c, 7, 65, 103
1, 157680, Note_on_c, 7, 57, 95
1, 157680, Note_on_c, 7, 62, 80
1, 157690, Control_c, 0, 7, 14
1, 157690, Control_c, 7, 7, 15
1, 157690, Control_c, 12, 7, 14
1, 157690, Control_c, 15, 7, 14
1, 157700, Control_c, 11, 7, 13
1, 157709, Note_on_c, 7, 65, 0
1, 157709, Note_on_c, 7, 57, 0
1, 157709, Note_on_c, 7, 62, 0
1, 157710, Control_c, 13, 7, 15
1, 157720, Control_c, 1, 7, 14
1, 157770, Control_c, 2, 7, 15
1, 157770, Control_c, 4, 7, 10
1, 163921, Control_c, 4, 13, 0
1, 170968, Control_c, 4, 14, 0
1, 179039, Control_c, 4, 10, 185
1, 179046, Control_c, 4, 13, 0
1, 186605, Control_c, 4, 12, 0
1, 194548, Control_c, 4, 13, 20
1, 202235, Control_c, 4, 13, 20
1, 210050, Control_c, 4, 14, 10
1, 216329, Control_c, 4, 13, 20
1, 222736, Control_c, 4, 14, 14
1, 226616, Control_c, 4, 0, 6
1, 233919, Control_c, 4, 12, 0
1, 241862, Control_c, 4, 12, 10
1, 248525, Control_c, 4, 12, 10
1, 254676, Control_c, 4, 12, 0
1, 261723, Control_c, 4, 13, 0
1, 269410, Control_c, 4, 12, 0
1, 277481, Control_c, 4, 12, 10
1, 281236, Control_c, 4, 0, 0
1, 288795, Control_c, 4, 11, 10
1, 291804, Control_c, 4, 103, 0
1, 294805, Control_c, 4, 93, 0
1, 297811, Control_c, 4, 80, 0
1, 305626, Control_c, 4, 13, 0
1, 309506, Control_c, 4, 120, 10
1, 315785, Control_c, 4, 12, 19
1, 318794, Control_c, 4, 0, 0
1, 321795, Control_c, 4, 0, 0
1, 324801, Control_c, 4, 0, 31
1, 331208, Control_c, 4, 13, 0
1, 337871, Control_c, 4, 11, 10
1, 344022, Control_c, 4, 11, 0
1, 352093, Control_c, 4, 11, 10
1, 359396, Control_c, 4, 11, 0
1, 367339, Control_c, 4, 11, 20
1, 374386, Control_c, 4, 12, 0
1, 382073, Control_c, 4, 11, 10
1, 389632, Control_c, 4, 10, 10
1, 397447, Control_c, 4, 12, 10
1, 403726, Control_c, 4, 11, 20
1, 410133, Control_c, 4, 12, 20
1, 417436, Control_c, 4, 10, 0
1, 425379, Control_c, 4, 10, 10
1, 432042, Control_c, 4, 10, 10
1, 438193, Control_c, 4, 10, 0
1, 445240, Control_c, 4, 11, 0
1, 453311, Control_c, 4, 10, 10
1, 460870, Control_c, 4, 9, 10
1, 468685, Control_c, 4, 11, 10
1, 474964, Control_c, 4, 10, 0
1, 482651, Control_c, 4, 10, 20
1, 485660, Control_c, 4, 103, 0
1, 488661, Control_c, 4, 93, 0
1, 491667, Control_c, 4, 80, 29
1, 494676, Control_c, 4, 0, 0
1, 497677, Control_c, 4, 0, 0
1, 500683, Control_c, 4, 0, 1
1, 507090, Control_c, 4, 11, 0
1, 513753, Control_c, 4, 9, 10
1, 519904, Control_c, 4, 9, 0
1, 527975, Control_c, 4, 9, 10
1, 535278, Control_c, 4, 9, 0
1, 543221, Control_c, 4, 9, 20
1, 550268, Control_c, 4, 10, 0
1, 557955, Control_c, 4, 9, 10
1, 565514, Control_c, 4, 8, 10
1, 573329, Control_c, 4, 10, 10
1, 579608, Control_c, 4, 9, 20
1, 586015, Control_c, 4, 10, 20
1, 593318, Control_c, 4, 8, 0
1, 601261, Control_c, 4, 8, 10
1, 607924, Control_c, 4, 8, 10
1, 614075, Control_c, 4, 8, 0
1, 621122, Control_c, 4, 9, 0
1, 629193, Control_c, 4, 8, 20
1, 637008, Control_c, 4, 9, 10
1, 643287, Control_c, 4, 8, 0
1, 650974, Control_c, 4, 8, 4
1, 654854, Control_c, 4, 0, 6
1, 662413, Control_c, 4, 7, 21
1, 665026, Control_c, 4, 0, 0
1, 667629, Control_c, 4, 0, 19
1, 669731, Control_c, 4, 100, 0
1, 676138, Control_c, 4, 9, 0
1, 678758, Control_c, 4, 77, 0
1, 681366, Control_c, 4, 111, 0
1, 688029, Control_c, 4, 7, 0
1, 691040, Control_c, 4, 103, 0
1, 694042, Control_c, 4, 93, 0
1, 697048, Control_c, 4, 80, 0
1, 700808, Control_c, 4, 110, 0
1, 704855, Control_c, 4, 100, 10
1, 711006, Control_c, 4, 7, 0
1, 719077, Control_c, 4, 7, 10
1, 726380, Control_c, 4, 7, 0
1, 734323, Control_c, 4, 7, 9
1, 737334, Control_c, 4, 0, 0
1, 740336, Control_c, 4, 0, 0
1, 743342, Control_c, 4, 0, 11
1, 750389, Control_c, 4, 8, 0
1, 758076, Control_c, 4, 7, 10
1, 765635, Control_c, 4, 6, 10
1, 773450, Control_c, 4, 8, 10
1, 779729, Control_c, 4, 7, 20
1, 786136, Control_c, 4, 8, 20
1, 793439, Control_c, 4, 6, 0
1, 801382, Control_c, 4, 6, 10
1, 808045, Control_c, 4, 6, 10
1, 814196, Control_c, 4, 6, 0
1, 821243, Control_c, 4, 7, 0
1, 829314, Control_c, 4, 6, 20
1, 837129, Control_c, 4, 7, 10
1, 843408, Control_c, 4, 6, 0
1, 851095, Control_c, 4, 6, 10
1, 858654, Control_c, 4, 5, 40
1, 865061, Control_c, 4, 7, 10
1, 871212, Control_c, 4, 5, 0
1, 879283, Control_c, 4, 5, 10
1, 886586, Control_c, 4, 5, 0
1, 894529, Control_c, 4, 5, 10
1, 901192, Control_c, 4, 5, 0
1, 904203, Control_c, 4, 103, 0
1, 907205, Control_c, 4, 95, 0
1, 910211, Control_c, 4, 80, 10
1, 917258, Control_c, 4, 6, 0
1, 924945, Control_c, 4, 5, 19
1, 927956, Control_c, 4, 0, 0
1, 930958, Control_c, 4, 0, 0
1, 933964, Control_c, 4, 0, 1
1, 941779, Control_c, 4, 6, 10
1, 948058, Control_c, 4, 5, 10
1, 955617, Control_c, 4, 4, 30
1, 962920, Control_c, 4, 4, 0
1, 970863, Control_c, 4, 4, 10
1, 977270, Control_c, 4, 6, 0
1, 983933, Control_c, 4, 4, 10
1, 990084, Control_c, 4, 4, 0
1, 997131, Control_c, 4, 5, 0
1, 1005202, Control_c, 4, 4, 20
1, 1013017, Control_c, 4, 5, 10
1, 1019296, Control_c, 4, 4, 0
1, 1026983, Control_c, 4, 4, 10
1, 1034542, Control_c, 4, 3, 40
1, 1040949, Control_c, 4, 5, 10
1, 1047100, Control_c, 4, 3, 0
1, 1055171, Control_c, 4, 3, 10
1, 1062474, Control_c, 4, 3, 0
1, 1070417, Control_c, 4, 3, 10
1, 1077080, Control_c, 4, 3, 10
1, 1084127, Control_c, 4, 4, 0
1, 1091814, Control_c, 4, 3, 10
1, 1095574, Control_c, 4, 0, 10
1, 1098585, Control_c, 4, 103, 0
1, 1101587, Control_c, 4, 93, 0
1, 1104593, Control_c, 4, 80, 0
1, 1112408, Control_c, 4, 4, 10
1, 1118687, Control_c, 4, 3, 10
1, 1126246, Control_c, 4, 2, 9
1, 1129257, Control_c, 4, 0, 0
1, 1132259, Control_c, 4, 0, 0
1, 1135265, Control_c, 4, 0, 21
1, 1142568, Control_c, 4, 2, 0
1, 1150511, Control_c, 4, 2, 10
1, 1156918, Control_c, 4, 4, 0
1, 1163581, Control_c, 4, 2, 10
1, 1169732, Control_c, 4, 2, 0
1, 1176779, Control_c, 4, 3, 0
1, 1184850, Control_c, 4, 2, 30
1, 1191129, Control_c, 4, 2, 0
1, 1198816, Control_c, 4, 2, 20
1, 1206631, Control_c, 4, 3, 20
1, 1214190, Control_c, 4, 1, 10
1, 1220597, Control_c, 4, 3, 4
1, 1224127, Control_c, 4, 0, 0
1, 1227785, Control_c, 4, 0, 6
1, 1233936, Control_c, 4, 1, 0
1, 1242007, Control_c, 4, 1, 10
1, 1249310, Control_c, 4, 1, 0
1, 1257253, Control_c, 4, 1, 1
1, 1259355, Control_c, 4, 0, 0
1, 1263402, Control_c, 4, 0, 9
1, 1270065, Control_c, 4, 1, 10
1, 1277112, Control_c, 4, 2, 0
1, 1284799, Control_c, 4, 1, 20
1, 1292614, Control_c, 4, 2, 10
1, 1298893, Control_c, 4, 1, 10
1, 1306452, Control_c, 4, 0, 20
1, 1312603, Control_c, 4, 0, 0
1, 1319906, Control_c, 4, 0, 0
1, 1327977, Control_c, 4, 0, 10
1, 1334640, Control_c, 4, 0, 0
1, 1342583, Control_c, 4, 0, 10
1, 1348990, Control_c, 4, 2, 10
1, 1356037, Control_c, 4, 1, 10
1, 1363724, Control_c, 4, 0, 10
1, 1370003, Control_c, 4, 0, 30
1, 1377818, Control_c, 4, 1, 30
1, 1384225, Control_c, 4, 1, 20
1, 1391272, Control_c, 4, 0, 30
1, 1399087, Control_c, 4, 0, 8
1, 1401359, Control_c, 4, 0, 24
1, 1403732, Control_c, 4, 0, 0
1, 1406098, Control_c, 4, 0, 18
1, 1412505, Control_c, 4, 0, 1
1, 1415125, Control_c, 4, 0, 0
1, 1417733, Control_c, 4, 0, 0
1, 1434036, Control_c, 4, 0, 0
1, 1434036, Control_c, 4, 0, 0
1, 1434036, Control_c, 4, 0, 0
1, 1941832, Note_off_c, 5, 243, 133
1, 1941832, Note_off_c, 5, 0, 144
1, 1941837, Note_off_c, 5, 107, 2
1, 1950029, Note_off_c, 5, 107, 2
1, 1950029, Note_off_c, 5, 0, 0
1, 1950029, Note_off_c, 5, 0, 0
1, 1950029, Note_off_c, 5, 0, 0
1, 1950029, Note_off_c, 5, 0, 0
1, 1950029, Note_off_c, 5, 0, 0
1, 1950029, Note_off_c, 5, 0, 0
1, 1950029, Note_off_c, 5, 0, 0
1, 1950029, Note_off_c, 5, 0, 0
1, 1950029, Note_off_c, 5, 0, 0
1, 1950029, Note_off_c, 5, 0, 0
1, 1950029, Note_off_c, 5, 0, 0
1, 1950029, Note_off_c, 5, 0, 0
1, 1950029, Note_off_c, 5, 0, 0
1, 1950029, Note_off_c, 5, 0, 0
1, 1950029, Note_off_c, 5, 0, 0
1, 1950029, Note_off_c, 5, 0, 0
1, 1950029, Note_off_c, 5, 0, 0
1, 1950029, Note_off_c, 5, 0, 0
1, 1950029, Note_off_c, 5, 0, 0
1, 1950029, Note_off_c, 5, 0, 0
1, 1950029, Note_off_c, 5, 0, 0
1, 1950029, Note_off_c, 5, 0, 0
1, 1950029, Note_off_c, 5, 0, 0
1, 1950029, Note_off_c, 5, 0, 0
1, 1950029, Note_off_c, 5, 0, 0
1, 1950029, Note_off_c, 5, 0, 0
1, 1950029, Note_off_c, 5, 0, 0
1, 1950029, Note_off_c, 5, 0, 0
1, 1950029, Note_off_c, 5, 0, 0
1, 1950029, Note_off_c, 5, 0, 0
1, 1950029, Note_off_c, 5, 0, 0
1, 1950029, Note_off_c, 5, 0, 0
1, 1950029, Note_off_c, 5, 0, 0
1, 1950029, Note_off_c, 5, 0, 0
1, 1950029, Note_off_c, 5, 0, 0
1, 1950029, Note_off_c, 5, 0, 0
1, 1950029, Note_off_c, 5, 0, 0
1, 1950029, Note_off_c, 5, 0, 0
1, 1950029, Note_off_c, 5, 0, 0
1, 1950029, Note_off_c, 5, 0, 0
1, 1950029, Note_off_c, 5, 0, 0
1, 1950029, Note_off_c, 5, 0, 0
1, 1950029, Note_off_c, 5, 0, 0
1, 1950029, Note_off_c, 5, 0, 0
1, 1950029, Note_off_c, 5, 0, 0
1, 1950029, Note_off_c, 5, 0, 0
1, 1950029, Note_off_c, 5, 0, 0
1, 1950029, Note_off_c, 5, 0, 0
1, 1950029, Note_off_c, 5, 0, 0
1, 1950029, Note_off_c, 5, 0, 0
1, 1950029, Note_off_c, 5, 0, 0
1, 1950029, Note_off_c, 5, 0, 0
1, 1950029, Note_off_c, 5, 0, 0
1, 1950029, Note_off_c, 5, 0, 0
1, 1950029, Note_off_c, 5, 0, 0
1, 1950029, Note_off_c, 5, 0, 0
1, 1950029, Note_off_c, 5, 0, 0
1, 1950029, Note_off_c, 5, 0, 0
1, 1950029, Note_off_c, 5, 0, 0
1, 1950029, Note_off_c, 5, 0, 0
1, 1950029, Note_off_c, 5, 0, 0
1, 1950029, Note_off_c, 5, 0, 0
1, 1950029, Note_off_c, 5, 0, 0
1, 1950029, Note_off_c, 5, 0, 0
1, 1950029, Note_off_c, 5, 0, 0
1, 1950029, Note_off_c, 5, 0, 0
1, 1950029, Note_off_c, 5, 0, 0
1, 1950029, Note_off_c, 5, 0, 0
1, 1950029, Note_off_c, 5, 0, 0
1, 1950029, Note_off_c, 5, 0, 0
1, 1950029, Note_off_c, 5, 0, 0
1, 1950029, Note_off_c, 5, 0, 0
1, 1950029, Note_off_c, 5, 0, 0
1, 1950029, Note_off_c, 5, 0, 0
1, 1950029, Note_off_c, 5, 0, 0
1, 1950029, Note_off_c, 5, 0, 0
1, 1950029, Note_off_c, 5, 0, 0
1, 1950029, Note_off_c, 5, 0, 0
1, 1950029, Note_off_c, 5, 0, 0
1, 1950029, Note_off_c, 5, 0, 0
1, 1950029, Note_off_c, 5, 0, 0
1, 1950029, Note_off_c, 5, 0, 0
1, 1950029, Note_off_c, 5, 0, 0
1, 1950029, Note_off_c, 5, 0, 0
1, 1950029, Note_off_c, 5, 0, 0
1, 1950029, Note_off_c, 5, 0, 0
1, 1950029, Note_off_c, 5, 0, 0
1, 1950029, Note_off_c, 5, 0, 0
1, 1950029, Note_off_c, 5, 0, 0
1, 1950029, Note_off_c, 5, 0, 0
1, 1950029, Note_off_c, 5, 0, 0
1, 1950029, Note_off_c, 5, 0, 0
1, 1950029, Note_off_c, 5, 0, 0
1, 1950029, Note_off_c, 5, 0, 0
1, 1950029, Note_off_c, 5, 0, 0
1, 1950029, Note_off_c, 5, 0, 0
1, 1950029, Note_off_c, 5, 0, 0
1, 1950029, Note_off_c, 5, 0, 0
1, 1950029, Note_off_c, 5, 0, 0
1, 1950029, Note_off_c, 5, 0, 0
1, 1950029, Note_off_c, 5, 0, 0
1, 1950029, Note_off_c, 5, 0, 0
1, 1950029, Note_off_c, 5, 0, 0
1, 1950029, Note_off_c, 5, 0, 0
1, 1950029, Note_off_c, 5, 0, 0
1, 1950029, Note_off_c, 5, 0, 0
1, 1950029, Note_off_c, 5, 0, 0
1, 1950029, Note_off_c, 5, 0, 0
1, 1950029, Note_off_c, 5, 0, 0
1, 1950029, Note_off_c, 5, 0, 0
1, 1950029, Note_off_c, 5, 0, 0
1, 1950029, Note_off_c, 5, 0, 0
1, 1950029, Note_off_c, 5, 0, 0
1, 1950029, Note_off_c, 5, 0, 0
1, 1950029, Note_off_c, 5, 0, 0
1, 1950029, Note_off_c, 5, 0, 0
1, 1950029, Note_off_c, 5, 0, 0
1, 1950029, Note_off_c, 5, 0, 0
1, 1950029, Note_off_c, 5, 0, 0
1, 1950029, Note_off_c, 5, 0, 0
1, 1950029, Note_off_c, 5, 0, 0
1, 1950029, Note_off_c, 5, 0, 0
1, 1950029, Note_off_c, 5, 0, 0
1, 1950029, Note_off_c, 5, 0, 0
1, 1950029, Note_off_c, 5, 0, 0
1, 1950029, Note_off_c, 5, 0, 0
1, 1950029, Note_off_c, 5, 0, 0
1, 1950029, Note_off_c, 5, 0, 0
1, 1950029, Note_off_c, 5, 0, 0
1, 1950029, Note_off_c, 5, 0, 0
1, 1950029, Note_off_c, 5, 0, 0
1, 1950029, Note_off_c, 5, 0, 0
1, 1950029, Note_off_c, 5, 0, 0
1, 1950029, Note_off_c, 5, 0, 0
1, 1950029, Note_off_c, 5, 0, 0
1, 1950029, Note_off_c, 5, 0, 0
1, 1950029, Note_off_c, 5, 0, 0
1, 1950029, Note_off_c, 5, 0, 0
1, 1950029, Note_off_c, 5, 0, 0
1, 1950029, Note_off_c, 5, 0, 0
1, 1950029, Note_off_c, 5, 0, 0
1, 1950029, Note_off_c, 5, 0, 0
1, 1950029, Note_off_c, 5, 0, 0
1, 1950029, Note_off_c, 5, 0, 0
1, 1950029, Note_off_c, 5, 0, 0
1, 1950029, Note_off_c, 5, 0, 0
1, 1950029, Note_off_c, 5, 0, 0
1, 1950029, Note_off_c, 5, 0, 0
1, 1950029, Note_off_c, 5, 0, 0
1, 1950029, Note_off_c, 5, 0, 0
1, 1950029, Note_off_c, 5, 0, 0
1, 1950029, Note_off_c, 5, 0, 0
1, 1950029, Note_off_c, 5, 0, 0
1, 1950029, Note_off_c, 5, 0, 0
1, 1950029, Note_off_c, 5, 0, 0
1, 1950029, Note_off_c, 5, 0, 0
1, 1950029, Note_off_c, 5, 0, 0
1, 1950029, Note_off_c, 5, 0, 0
1, 1950029, Note_off_c, 5, 0, 0
1, 1950029, Note_off_c, 5, 0, 0
1, 1950029, Note_off_c, 5, 0, 0
1, 1950029, Note_off_c, 5, 0, 0
1, 1950029, Note_off_c, 5, 0, 0
1, 1950029, Note_off_c, 5, 0, 0
1, 1950029, Note_off_c, 5, 0, 0
1, 1950029, Note_off_c, 5, 0, 0
1, 1950029, Note_off_c, 5, 0, 0
1, 1950029, Note_off_c, 5, 0, 0
1, 1950029, Note_off_c, 5, 0, 0
1, 1950029, Note_off_c, 5, 0, 0
1, 1950029, Note_off_c, 5, 0, 0
1, 1950029, Note_off_c, 5, 0, 0
1, 1950029, Note_off_c, 5, 0, 0
1, 1950029, Note_off_c, 5, 0, 0
1, 1950029, Note_off_c, 5, 0, 0
1, 1950029, Note_off_c, 5, 0, 0
1, 1950029, Note_off_c, 5, 0, 0
1, 1950029, Note_off_c, 5, 0, 0
1, 1950029, Note_off_c, 5, 0, 0
1, 1950029, Note_off_c, 5, 0, 0
1, 1950029, Note_off_c, 5, 0, 0
1, 1950029, Note_off_c, 5, 0, 0
1, 1950029, Note_off_c, 5, 0, 0
1, 1950029, Note_off_c, 5, 0, 0
1, 1950029, Note_off_c, 5, 0, 0
1, 1950029, Note_off_c, 5, 0, 0
1, 1950029, Note_off_c, 5, 0, 0
1, 1950029, Note_off_c, 5, 0, 0
1, 1950029, Note_off_c, 5, 0, 0
1, 1950029, Note_off_c, 5, 0, 0
1, 1950029, Note_off_c, 5, 0, 0
1, 1950029, Note_off_c, 5, 0, 0
1, 1950029, Note_off_c, 5, 0, 0
1, 1950029, Note_off_c, 5, 0, 0
1, 1950029, Note_off_c, 5, 0, 0
1, 1950029, Note_off_c, 5, 0, 0
1, 1950029, Note_off_c, 5, 0, 0
1, 1950029, Note_off_c, 5, 0, 0
1, 1950029, Note_off_c, 5, 0, 0
1, 1950029, Note_off_c, 5, 0, 0
1, 1950029, Note_off_c, 5, 0, 0
1, 1950029, Note_off_c, 5, 0, 0
1, 1950029, Note_off_c, 5, 0, 0
1, 1950029, Note_off_c, 5, 0, 0
1, 1950029, Note_off_c, 5, 0, 0
1, 1950029, Note_off_c, 5, 0, 0
1, 1950029, Note_off_c, 5, 0, 0
1, 1950029, Note_off_c, 5, 0, 0
1, 1950029, Note_off_c, 5, 0, 0
1, 1950029, Note_off_c, 5, 0, 0
1, 1950029, Note_off_c, 5, 0, 0
1, 1950029, Note_off_c, 5, 0, 0
1, 1950029, Note_off_c, 5, 0, 0
1, 1950029, Note_off_c, 5, 0, 0
1, 1950029, Note_off_c, 5, 0, 0
1, 1950029, Note_off_c, 5, 0, 0
1, 1950029, Note_off_c, 5, 0, 0
1, 1950029, Note_off_c, 5, 0, 0
1, 1950029, Note_off_c, 5, 0, 0
1, 1950029, Note_off_c, 5, 0, 0
1, 1950029, Note_off_c, 5, 0, 0
1, 1950029, Note_off_c, 5, 0, 0
1, 1950029, Note_off_c, 5, 0, 0
1, 1950029, Note_off_c, 5, 0, 0
1, 1950029, Note_off_c, 5, 0, 0
1, 1950029, Note_off_c, 5, 0, 0
1, 1950029, Note_off_c, 5, 0, 0
1, 1950029, Note_off_c, 5, 0, 0
1, 1950029, Note_off_c, 5, 0, 0
1, 1950029, Note_off_c, 5, 0, 0
1, 1950029, Note_off_c, 5, 0, 0
1, 1950029, Note_off_c, 5, 0, 0
1, 1950029, Note_off_c, 5, 0, 0
1, 1950029, Note_off_c, 5, 0, 0
1, 1950029, Note_off_c, 5, 0, 0
1, 1950029, Note_off_c, 5, 0, 0
1, 1950029, Note_off_c, 5, 0, 0
1, 1950029, Note_off_c, 5, 0, 0
1, 1950029, Note_off_c, 5, 0, 0
1, 1950029, Note_off_c, 5, 0, 0
1, 1950029, Note_off_c, 5, 0, 0
1, 1950029, Note_off_c, 5, 0, 0
1, 1950029, Note_off_c, 5, 0, 0
1, 1950029, Note_off_c, 5, 0, 0
1, 1950029, Note_off_c, 5, 0, 0
1, 1950029, Note_off_c, 5, 0, 0
1, 1950029, Note_off_c, 5, 0, 0
1, 1950029, Note_off_c, 5, 0, 0
1, 1950029, Note_off_c, 5, 0, 0
1, 1950029, Note_off_c, 5, 0, 0
1, 1950029, Note_off_c, 5, 0, 0
1, 1950029, Note_off_c, 5, 0, 0
1, 1950029, Note_off_c, 5, 0, 0
1, 1950029, Note_off_c, 5, 0, 0
1, 1950029, Note_off_c, 5, 0, 0
1, 1950029, Note_off_c, 5, 0, 0
1, 1950029, Note_off_c, 5, 0, 0
1, 1950029, Note_off_c, 5, 0, 0
1, 1950029, Note_off_c, 5, 0, 0
1, 1950029, Note_off_c, 5, 0, 0
1, 1950029, Note_off_c, 5, 0, 0
1, 1950029, Note_off_c, 5, 0, 0
1, 1950029, Note_off_c, 5, 0, 0
1, 1950029, Note_off_c, 5, 0, 0
1, 1950029, Note_off_c, 5, 0, 0
1, 1950029, Note_off_c, 5, 0, 0
1, 1950029, Note_off_c, 5, 0, 0
1, 1950029, Note_off_c, 5, 0, 0
1, 1950029, Note_off_c, 5, 0, 0
1, 1950029, Note_off_c, 5, 0, 0
1, 1950029, Note_off_c, 5, 0, 0
1, 1950029, Note_off_c, 5, 0, 0
1, 1950029, Note_off_c, 5, 0, 0
1, 1950029, Note_off_c, 5, 0, 0
1, 1950029, Note_off_c, 5, 0, 0
1, 1950029, Note_off_c, 5, 0, 0
1, 1950029, Note_off_c, 5, 0, 0
1, 1950029, Note_off_c, 5, 0, 0
1, 1950029, Note_off_c, 5, 0, 0
1, 1950029, Note_off_c, 5, 0, 0
1, 1950029, Note_off_c, 5, 0, 0
1, 1950029, Note_off_c, 5, 0, 0
1, 1950029, Note_off_c, 5, 0, 0
1, 1950029, Note_off_c, 5, 0, 0
1, 1950029, Note_off_c, 5, 0, 0
1, 1950029, Note_off_c, 5, 0, 0
1, 1950029, Note_off_c, 5, 0, 0
1, 1950029, Note_off_c, 5, 0, 0
1, 1950029, Note_off_c, 5, 0, 0
1, 1950029, Note_off_c, 5, 0, 0
1, 1950029, Note_off_c, 5, 0, 0
1, 1950029, Note_off_c, 5, 0, 0
1, 1950029, Note_off_c, 5, 0, 0
1, 1950029, Note_off_c, 5, 0, 0
1, 1950029, Note_off_c, 5, 0, 0
1, 1950029, Note_off_c, 5, 0, 0
1, 1950029, Note_off_c, 5, 0, 0
1, 1950029, Note_off_c, 5, 0, 0
1, 1950029, Note_off_c, 5, 0, 0
1, 1950029, Note_off_c, 5, 0, 0
1, 1950029, Note_off_c, 5, 0, 0
1, 1950029, Note_off_c, 5, 0, 0
1, 1950029, Note_off_c, 5, 0, 0
1, 1950029, Note_off_c, 5, 0, 0
1, 1950029, Note_off_c, 5, 0, 0
1, 1950029, Note_off_c, 5, 0, 0
1, 1950029, Note_off_c, 5, 0, 0
1, 1950029, Note_off_c, 5, 0, 0
1, 1950029, Note_off_c, 5, 0, 0
1, 1950029, Note_off_c, 5, 0, 0
1, 1950029, Note_off_c, 5, 0, 0
1, 1950029, Note_off_c, 5, 0, 0
1, 1950029, Note_off_c, 5, 0, 0
1, 1950029, Note_off_c, 5, 0, 0
1, 1950029, Note_off_c, 5, 0, 0
1, 1950029, Note_off_c, 5, 0, 0
1, 1950029, Note_off_c, 5, 0, 0
1, 1950029, Note_off_c, 5, 0, 0
1, 1950029, Note_off_c, 5, 0, 0
1, 1950029, Note_off_c, 5, 0, 0
1, 1950029, Note_off_c, 5, 0, 0
1, 1950029, Note_off_c, 5, 0, 0
1, 1950029, Note_off_c, 5, 0, 0
1, 1950029, Note_off_c, 5, 0, 0
1, 1950029, Note_off_c, 5, 0, 0
1, 1950029, Note_off_c, 5, 0, 0
1, 1950029, Note_off_c, 5, 0, 0
1, 1950029, Note_off_c, 5, 0, 0
1, 1950029, Note_off_c, 5, 0, 0
1, 1950029, Note_off_c, 5, 0, 0
1, 1950029, Note_off_c, 5, 0, 0
1, 1950029, Note_off_c, 5, 0, 0
1, 1950029, Note_off_c, 5, 0, 0
1, 1950029, Note_off_c, 5, 0, 0
1, 1950029, Note_off_c, 5, 0, 0
1, 1950029, Note_off_c, 5, 0, 0
1, 1950029, Note_off_c, 5, 0, 0
1, 1950029, Note_off_c, 5, 0, 0
1, 1950029, Note_off_c, 5, 0, 0
1, 1950029, Note_off_c, 5, 0, 0
1, 1950029, Note_off_c, 5, 0, 0
1, 1950029, Note_off_c, 5, 0, 0
1, 1950029, Note_off_c, 5, 0, 0
1, 1950029, Note_off_c, 5, 0, 0
1, 1950029, Note_off_c, 5, 0, 0
1, 1950029, Note_off_c, 5, 0, 0
1, 1950029, Note_off_c, 5, 0, 0
1, 1950029, Note_off_c, 5, 0, 0
1, 1950029, Note_off_c, 5, 0, 0
1, 1950029, Note_off_c, 5, 0, 0
1, 1950029, Note_off_c, 5, 0, 0
1, 1950029, Note_off_c, 5, 0, 0
1, 1950029, Note_off_c, 5, 0, 0
1, 1950029, Note_off_c, 5, 0, 0
1, 1950029, Note_off_c, 5, 0, 0
1, 1950029, Note_off_c, 5, 0, 0
1, 1950029, Note_off_c, 5, 0, 0
1, 1950029, Note_off_c, 5, 0, 0
1, 1950029, Note_off_c, 5, 0, 0
1, 1950029, Note_off_c, 5, 0, 0
1, 1950029, Note_off_c, 5, 0, 0
1, 1950029, Note_off_c, 5, 0, 0
1, 1950029, Note_off_c, 5, 0, 0
1, 1950029, Note_off_c, 5, 0, 0
1, 1950029, Note_off_c, 5, 0, 0
1, 1950029, Note_off_c, 5, 0, 0
1, 1950029, Note_off_c, 5, 0, 0
1, 1950029, Note_off_c, 5, 0, 0
1, 1950029, Note_off_c, 5, 0, 0
1, 1950029, Note_off_c, 5, 0, 0
1, 1950029, Note_off_c, 5, 0, 0
1, 1950029, Note_off_c, 5, 0, 0
1, 1950029, Note_off_c, 5, 0, 0
1, 1950029, Note_off_c, 5, 0, 0
1, 1950029, Note_off_c, 5, 0, 0
1, 1950029, Note_off_c, 5, 0, 0
1, 1950029, Note_off_c, 5, 0, 0
1, 1950029, Note_off_c, 5, 0, 0
1, 1950029, Note_off_c, 5, 0, 0
1, 1950029, Note_off_c, 5, 0, 0
1, 1950029, Note_off_c, 5, 0, 0
1, 1950029, Note_off_c, 5, 0, 0
1, 1950029, Note_off_c, 5, 0, 0
1, 1950029, Note_off_c, 5, 0, 0
1, 1950029, Note_off_c, 5, 0, 0
1, 1950029, Note_off_c, 5, 0, 0
1, 1950029, Note_off_c, 5, 0, 0
1, 1950029, Note_off_c, 5, 0, 0
1, 1950029, Note_off_c, 5, 0, 0
1, 1950029, Note_off_c, 5, 0, 0
1, 1950029, Note_off_c, 5, 0, 0
1, 1950029, Note_off_c, 5, 0, 0
1, 1950029, Note_off_c, 5, 0, 0
1, 1950029, Note_off_c, 5, 0, 0
1, 1950029, Note_off_c, 5, 0, 0
1, 1950029, Note_off_c, 5, 0, 0
1, 1950029, Note_off_c, 5, 0, 0
1, 1950029, Note_off_c, 5, 0, 0
1, 1950029, Note_off_c, 5, 0, 0
1, 1950029, Note_off_c, 5, 0, 0
1, 1950029, Note_off_c, 5, 0, 0
1, 1950029, Note_off_c, 5, 0, 0
1, 1950029, Note_off_c, 5, 0, 0
1, 1950029, Note_off_c, 5, 0, 0
1, 1950029, Note_off_c, 5, 0, 0
1, 1950029, Note_off_c, 5, 0, 0
1, 1950029, Note_off_c, 5, 0, 0
1, 1950029, Note_off_c, 5, 0, 0
1, 1950029, Note_off_c, 5, 0, 0
1, 1950029, Note_off_c, 5, 0, 0
1, 1950029, Note_off_c, 5, 0, 0
1, 1950029, Note_off_c, 5, 0, 0
1, 1950029, Note_off_c, 5, 0, 0
1, 1950029, Note_off_c, 5, 0, 0
1, 1950029, Note_off_c, 5, 0, 0
1, 1950029, Note_off_c, 5, 0, 0
1, 1950029, Note_off_c, 5, 0, 0
1, 1950029, Note_off_c, 5, 0, 0
1, 1950029, Note_off_c, 5, 0, 0
1, 1950029, Note_off_c, 5, 0, 0
1, 1950029, Note_off_c, 5, 0, 0
1, 1950029, Note_off_c, 5, 0, 0
1, 1950029, Note_off_c, 5, 0, 0
1, 1950029, Note_off_c, 5, 0, 0
1, 1950029, Note_off_c, 5, 0, 0
1, 1950029, Note_off_c, 5, 0, 0
1, 1950029, Note_off_c, 5, 0, 0
1, 1950029, Note_off_c, 5, 0, 0
1, 1950029, Note_off_c, 5, 0, 0
1, 1950029, Note_off_c, 5, 0, 0
1, 1950029, Note_off_c, 5, 0, 0
1, 1950029, Note_off_c, 5, 0, 0
1, 1950029, Note_off_c, 5, 0, 0
1, 1950029, Note_off_c, 5, 0, 0
1, 1950029, Note_off_c, 5, 0, 0
1, 1950029, Note_off_c, 5, 0, 0
1, 1950029, Note_off_c, 5, 0, 0
1, 1950029, Note_off_c, 5, 0, 0
1, 1950029, Note_off_c, 5, 0, 0
1, 1950029, Note_off_c, 5, 0, 0
1, 1950029, Note_off_c, 5, 0, 0
1, 1950029, Note_off_c, 5, 0, 0
1, 1950029, Note_off_c, 5, 0, 0
1, 1950029, Note_off_c, 5, 0, 0
1, 1950029, Note_off_c, 5, 0, 0
1, 1950029, Note_off_c, 5, 0, 0
1, 1950029, Note_off_c, 5, 0, 0
1, 1950029, Note_off_c, 5, 0, 0
1, 1950029, Note_off_c, 5, 0, 0
1, 1950029, Note_off_c, 5, 0, 0
1, 1950029, Note_off_c, 5, 0, 0
1, 1950029, Note_off_c, 5, 0, 0
1, 1950029, Note_off_c, 5, 0, 0
1, 1950029, Note_off_c, 5, 0, 0
1, 1950029, Note_off_c, 5, 0, 0
1, 1950029, Note_off_c, 5, 0, 0
1, 1950029, Note_off_c, 5, 0, 0
1, 1950029, Note_off_c, 5, 0, 0
1, 195