0, 0, Header, 1, 17, 120
1, 0, Start_track
1, 0, Text_t, "yu-ki\012"
1, 0, Text_t, " \012"
1, 0, System_exclusive, 10, 65, 16, 66, 18, 0, 0, 127, 0, 1, 247
1, 0, System_exclusive, 10, 65, 16, 66, 18, 64, 1, 51, 95, 45, 247
1, 0, System_exclusive, 10, 65, 16, 66, 18, 64, 1, 52, 90, 49, 247
1, 0, System_exclusive, 10, 65, 16, 66, 18, 64, 1, 56, 4, 3, 247
1, 0, System_exclusive, 10, 65, 16, 66, 18, 64, 1, 58, 80, 53, 247
1, 0, System_exclusive, 10, 65, 16, 66, 18, 64, 2, 1, 67, 122, 247
1, 0, System_exclusive, 10, 65, 16, 66, 18, 64, 2, 3, 67, 120, 247
1, 0, Time_signature, 4, 2, 24, 8
1, 0, Key_signature, 0, "major"
1, 0, Tempo, 461538
1, 0, End_track
2, 0, Start_track
2, 0, Title_t, "A1-Harp        "
2, 60, Text_t, "Start of Setup by GSAE"
2, 77, Control_c, 0, 91, 60
2, 78, Control_c, 0, 93, 20
2, 120, Control_c, 0, 0, 0
2, 121, Control_c, 0, 32, 3
2, 122, Program_c, 0, 46
2, 123, Control_c, 0, 7, 100
2, 123, Control_c, 0, 10, 74
2, 220, Text_t, "End of Setup by GSAE"
2, 960, Note_on_c, 0, 66, 100
2, 1068, Note_on_c, 0, 66, 0
2, 1080, Note_on_c, 0, 68, 100
2, 1188, Note_on_c, 0, 68, 0
2, 1200, Note_on_c, 0, 73, 100
2, 1308, Note_on_c, 0, 73, 0
2, 1320, Note_on_c, 0, 75, 100
2, 1428, Note_on_c, 0, 75, 0
2, 1440, Note_on_c, 0, 80, 100
2, 1548, Note_on_c, 0, 80, 0
2, 1560, Note_on_c, 0, 82, 100
2, 1668, Note_on_c, 0, 82, 0
2, 1680, Note_on_c, 0, 80, 86
2, 1788, Note_on_c, 0, 80, 0
2, 1800, Note_on_c, 0, 82, 71
2, 1908, Note_on_c, 0, 82, 0
2, 1920, Note_on_c, 0, 80, 56
2, 2028, Note_on_c, 0, 80, 0
2, 2040, Note_on_c, 0, 82, 40
2, 2148, Note_on_c, 0, 82, 0
2, 2160, Note_on_c, 0, 80, 25
2, 2268, Note_on_c, 0, 80, 0
2, 2280, Note_on_c, 0, 82, 10
2, 2388, Note_on_c, 0, 82, 0
2, 9120, Note_on_c, 0, 69, 115
2, 9240, Note_on_c, 0, 69, 0
2, 9360, Note_on_c, 0, 74, 115
2, 9480, Note_on_c, 0, 74, 0
2, 9600, Note_on_c, 0, 76, 115
2, 9720, Note_on_c, 0, 76, 0
2, 10560, Note_on_c, 0, 66, 100
2, 10668, Note_on_c, 0, 66, 0
2, 10680, Note_on_c, 0, 68, 100
2, 10788, Note_on_c, 0, 68, 0
2, 10800, Note_on_c, 0, 73, 100
2, 10908, Note_on_c, 0, 73, 0
2, 10920, Note_on_c, 0, 75, 100
2, 11028, Note_on_c, 0, 75, 0
2, 11040, Note_on_c, 0, 80, 100
2, 11148, Note_on_c, 0, 80, 0
2, 11160, Note_on_c, 0, 82, 100
2, 11268, Note_on_c, 0, 82, 0
2, 11280, Note_on_c, 0, 80, 86
2, 11388, Note_on_c, 0, 80, 0
2, 11400, Note_on_c, 0, 82, 71
2, 11508, Note_on_c, 0, 82, 0
2, 11520, Note_on_c, 0, 80, 56
2, 11628, Note_on_c, 0, 80, 0
2, 11640, Note_on_c, 0, 82, 40
2, 11748, Note_on_c, 0, 82, 0
2, 11760, Note_on_c, 0, 80, 25
2, 11868, Note_on_c, 0, 80, 0
2, 11880, Note_on_c, 0, 82, 10
2, 11988, Note_on_c, 0, 82, 0
2, 18720, Note_on_c, 0, 69, 115
2, 18840, Note_on_c, 0, 69, 0
2, 18960, Note_on_c, 0, 74, 115
2, 19080, Note_on_c, 0, 74, 0
2, 19200, Note_on_c, 0, 76, 115
2, 19320, Note_on_c, 0, 76, 0
2, 20160, Note_on_c, 0, 66, 100
2, 20268, Note_on_c, 0, 66, 0
2, 20280, Note_on_c, 0, 68, 100
2, 20388, Note_on_c, 0, 68, 0
2, 20400, Note_on_c, 0, 73, 100
2, 20508, Note_on_c, 0, 73, 0
2, 20520, Note_on_c, 0, 75, 100
2, 20628, Note_on_c, 0, 75, 0
2, 20640, Note_on_c, 0, 80, 100
2, 20748, Note_on_c, 0, 80, 0
2, 20760, Note_on_c, 0, 82, 100
2, 20868, Note_on_c, 0, 82, 0
2, 20880, Note_on_c, 0, 80, 86
2, 20988, Note_on_c, 0, 80, 0
2, 21000, Note_on_c, 0, 82, 71
2, 21108, Note_on_c, 0, 82, 0
2, 21120, Note_on_c, 0, 80, 56
2, 21228, Note_on_c, 0, 80, 0
2, 21240, Note_on_c, 0, 82, 40
2, 21348, Note_on_c, 0, 82, 0
2, 21360, Note_on_c, 0, 80, 25
2, 21468, Note_on_c, 0, 80, 0
2, 21480, Note_on_c, 0, 82, 10
2, 21588, Note_on_c, 0, 82, 0
2, 28320, Note_on_c, 0, 69, 115
2, 28440, Note_on_c, 0, 69, 0
2, 28560, Note_on_c, 0, 74, 115
2, 28680, Note_on_c, 0, 74, 0
2, 28800, Note_on_c, 0, 76, 115
2, 28920, Note_on_c, 0, 76, 0
2, 28920, End_track
3, 0, Start_track
3, 0, Title_t, "A2-Glockenspiel"
3, 86, Control_c, 1, 91, 40
3, 87, Control_c, 1, 93, 0
3, 125, Control_c, 1, 0, 0
3, 126, Control_c, 1, 32, 3
3, 127, Program_c, 1, 9
3, 128, Control_c, 1, 7, 100
3, 128, Control_c, 1, 10, 54
3, 960, Note_on_c, 1, 99, 105
3, 990, Note_on_c, 1, 99, 0
3, 1040, Note_on_c, 1, 92, 105
3, 1070, Note_on_c, 1, 92, 0
3, 1120, Note_on_c, 1, 99, 105
3, 1150, Note_on_c, 1, 99, 0
3, 1200, Note_on_c, 1, 92, 105
3, 1230, Note_on_c, 1, 92, 0
3, 1280, Note_on_c, 1, 99, 105
3, 1310, Note_on_c, 1, 99, 0
3, 1360, Note_on_c, 1, 92, 105
3, 1390, Note_on_c, 1, 92, 0
3, 1440, Note_on_c, 1, 99, 106
3, 1470, Note_on_c, 1, 99, 0
3, 1520, Note_on_c, 1, 92, 98
3, 1520, Note_on_c, 1, 94, 98
3, 1550, Note_on_c, 1, 94, 0
3, 1550, Note_on_c, 1, 92, 0
3, 1600, Note_on_c, 1, 92, 98
3, 1600, Note_on_c, 1, 94, 98
3, 1630, Note_on_c, 1, 94, 0
3, 1630, Note_on_c, 1, 92, 0
3, 1680, Note_on_c, 1, 99, 106
3, 1710, Note_on_c, 1, 99, 0
3, 1760, Note_on_c, 1, 92, 96
3, 1760, Note_on_c, 1, 94, 96
3, 1790, Note_on_c, 1, 94, 0
3, 1790, Note_on_c, 1, 92, 0
3, 1840, Note_on_c, 1, 92, 96
3, 1840, Note_on_c, 1, 94, 96
3, 1870, Note_on_c, 1, 94, 0
3, 1870, Note_on_c, 1, 92, 0
3, 1920, Note_on_c, 1, 99, 107
3, 1950, Note_on_c, 1, 99, 0
3, 2000, Note_on_c, 1, 92, 97
3, 2000, Note_on_c, 1, 94, 97
3, 2030, Note_on_c, 1, 94, 0
3, 2030, Note_on_c, 1, 92, 0
3, 2080, Note_on_c, 1, 92, 97
3, 2080, Note_on_c, 1, 94, 97
3, 2110, Note_on_c, 1, 94, 0
3, 2110, Note_on_c, 1, 92, 0
3, 2160, Note_on_c, 1, 99, 107
3, 2190, Note_on_c, 1, 99, 0
3, 2240, Note_on_c, 1, 92, 98
3, 2240, Note_on_c, 1, 94, 98
3, 2270, Note_on_c, 1, 94, 0
3, 2270, Note_on_c, 1, 92, 0
3, 2320, Note_on_c, 1, 92, 98
3, 2320, Note_on_c, 1, 94, 98
3, 2350, Note_on_c, 1, 94, 0
3, 2350, Note_on_c, 1, 92, 0
3, 2400, Note_on_c, 1, 97, 107
3, 2430, Note_on_c, 1, 97, 0
3, 2480, Note_on_c, 1, 95, 96
3, 2480, Note_on_c, 1, 90, 96
3, 2510, Note_on_c, 1, 90, 0
3, 2510, Note_on_c, 1, 95, 0
3, 2560, Note_on_c, 1, 95, 96
3, 2560, Note_on_c, 1, 90, 96
3, 2590, Note_on_c, 1, 90, 0
3, 2590, Note_on_c, 1, 95, 0
3, 2640, Note_on_c, 1, 97, 107
3, 2670, Note_on_c, 1, 97, 0
3, 2720, Note_on_c, 1, 95, 97
3, 2720, Note_on_c, 1, 90, 97
3, 2750, Note_on_c, 1, 90, 0
3, 2750, Note_on_c, 1, 95, 0
3, 2800, Note_on_c, 1, 90, 97
3, 2800, Note_on_c, 1, 95, 97
3, 2830, Note_on_c, 1, 95, 0
3, 2830, Note_on_c, 1, 90, 0
3, 2880, Note_on_c, 1, 97, 107
3, 2910, Note_on_c, 1, 97, 0
3, 2960, Note_on_c, 1, 95, 98
3, 2960, Note_on_c, 1, 90, 98
3, 2990, Note_on_c, 1, 90, 0
3, 2990, Note_on_c, 1, 95, 0
3, 3040, Note_on_c, 1, 95, 98
3, 3040, Note_on_c, 1, 90, 98
3, 3070, Note_on_c, 1, 90, 0
3, 3070, Note_on_c, 1, 95, 0
3, 3120, Note_on_c, 1, 97, 107
3, 3150, Note_on_c, 1, 97, 0
3, 3200, Note_on_c, 1, 95, 98
3, 3200, Note_on_c, 1, 90, 98
3, 3230, Note_on_c, 1, 90, 0
3, 3230, Note_on_c, 1, 95, 0
3, 3280, Note_on_c, 1, 95, 98
3, 3280, Note_on_c, 1, 90, 98
3, 3310, Note_on_c, 1, 90, 0
3, 3310, Note_on_c, 1, 95, 0
3, 3360, Note_on_c, 1, 99, 107
3, 3390, Note_on_c, 1, 99, 0
3, 3440, Note_on_c, 1, 87, 98
3, 3440, Note_on_c, 1, 92, 98
3, 3470, Note_on_c, 1, 92, 0
3, 3470, Note_on_c, 1, 87, 0
3, 3520, Note_on_c, 1, 97, 98
3, 3520, Note_on_c, 1, 92, 98
3, 3550, Note_on_c, 1, 92, 0
3, 3550, Note_on_c, 1, 97, 0
3, 3600, Note_on_c, 1, 99, 107
3, 3630, Note_on_c, 1, 99, 0
3, 3680, Note_on_c, 1, 87, 96
3, 3680, Note_on_c, 1, 92, 96
3, 3710, Note_on_c, 1, 92, 0
3, 3710, Note_on_c, 1, 87, 0
3, 3760, Note_on_c, 1, 92, 96
3, 3760, Note_on_c, 1, 97, 96
3, 3790, Note_on_c, 1, 97, 0
3, 3790, Note_on_c, 1, 92, 0
3, 3840, Note_on_c, 1, 99, 107
3, 3870, Note_on_c, 1, 99, 0
3, 3920, Note_on_c, 1, 87, 98
3, 3920, Note_on_c, 1, 92, 98
3, 3950, Note_on_c, 1, 92, 0
3, 3950, Note_on_c, 1, 87, 0
3, 4000, Note_on_c, 1, 97, 97
3, 4000, Note_on_c, 1, 92, 97
3, 4030, Note_on_c, 1, 92, 0
3, 4030, Note_on_c, 1, 97, 0
3, 4080, Note_on_c, 1, 99, 107
3, 4110, Note_on_c, 1, 99, 0
3, 4160, Note_on_c, 1, 87, 99
3, 4160, Note_on_c, 1, 92, 99
3, 4190, Note_on_c, 1, 92, 0
3, 4190, Note_on_c, 1, 87, 0
3, 4240, Note_on_c, 1, 92, 99
3, 4240, Note_on_c, 1, 97, 99
3, 4270, Note_on_c, 1, 97, 0
3, 4270, Note_on_c, 1, 92, 0
3, 4320, Note_on_c, 1, 99, 107
3, 4350, Note_on_c, 1, 99, 0
3, 4400, Note_on_c, 1, 87, 98
3, 4400, Note_on_c, 1, 92, 98
3, 4430, Note_on_c, 1, 92, 0
3, 4430, Note_on_c, 1, 87, 0
3, 4480, Note_on_c, 1, 97, 98
3, 4480, Note_on_c, 1, 92, 98
3, 4510, Note_on_c, 1, 92, 0
3, 4510, Note_on_c, 1, 97, 0
3, 4560, Note_on_c, 1, 99, 107
3, 4590, Note_on_c, 1, 99, 0
3, 4640, Note_on_c, 1, 87, 96
3, 4640, Note_on_c, 1, 92, 96
3, 4670, Note_on_c, 1, 92, 0
3, 4670, Note_on_c, 1, 87, 0
3, 4720, Note_on_c, 1, 92, 96
3, 4720, Note_on_c, 1, 97, 96
3, 4750, Note_on_c, 1, 97, 0
3, 4750, Note_on_c, 1, 92, 0
3, 4800, Note_on_c, 1, 99, 107
3, 4830, Note_on_c, 1, 99, 0
3, 4880, Note_on_c, 1, 87, 98
3, 4880, Note_on_c, 1, 92, 98
3, 4910, Note_on_c, 1, 92, 0
3, 4910, Note_on_c, 1, 87, 0
3, 4960, Note_on_c, 1, 97, 97
3, 4960, Note_on_c, 1, 92, 97
3, 4990, Note_on_c, 1, 92, 0
3, 4990, Note_on_c, 1, 97, 0
3, 5040, Note_on_c, 1, 99, 107
3, 5070, Note_on_c, 1, 99, 0
3, 5120, Note_on_c, 1, 87, 99
3, 5120, Note_on_c, 1, 92, 99
3, 5150, Note_on_c, 1, 92, 0
3, 5150, Note_on_c, 1, 87, 0
3, 5200, Note_on_c, 1, 92, 99
3, 5200, Note_on_c, 1, 97, 99
3, 5230, Note_on_c, 1, 97, 0
3, 5230, Note_on_c, 1, 92, 0
3, 5280, Note_on_c, 1, 97, 107
3, 5310, Note_on_c, 1, 97, 0
3, 5360, Note_on_c, 1, 85, 98
3, 5360, Note_on_c, 1, 90, 98
3, 5390, Note_on_c, 1, 90, 0
3, 5390, Note_on_c, 1, 85, 0
3, 5440, Note_on_c, 1, 85, 98
3, 5440, Note_on_c, 1, 90, 98
3, 5470, Note_on_c, 1, 90, 0
3, 5470, Note_on_c, 1, 85, 0
3, 5520, Note_on_c, 1, 97, 107
3, 5550, Note_on_c, 1, 97, 0
3, 5600, Note_on_c, 1, 85, 99
3, 5600, Note_on_c, 1, 90, 99
3, 5630, Note_on_c, 1, 90, 0
3, 5630, Note_on_c, 1, 85, 0
3, 5680, Note_on_c, 1, 85, 99
3, 5680, Note_on_c, 1, 90, 99
3, 5710, Note_on_c, 1, 90, 0
3, 5710, Note_on_c, 1, 85, 0
3, 5760, Note_on_c, 1, 97, 107
3, 5790, Note_on_c, 1, 97, 0
3, 5840, Note_on_c, 1, 90, 98
3, 5840, Note_on_c, 1, 85, 98
3, 5870, Note_on_c, 1, 85, 0
3, 5870, Note_on_c, 1, 90, 0
3, 5920, Note_on_c, 1, 90, 99
3, 5920, Note_on_c, 1, 85, 99
3, 5950, Note_on_c, 1, 85, 0
3, 5950, Note_on_c, 1, 90, 0
3, 6000, Note_on_c, 1, 97, 107
3, 6030, Note_on_c, 1, 97, 0
3, 6080, Note_on_c, 1, 85, 99
3, 6080, Note_on_c, 1, 90, 99
3, 6110, Note_on_c, 1, 90, 0
3, 6110, Note_on_c, 1, 85, 0
3, 6160, Note_on_c, 1, 85, 99
3, 6160, Note_on_c, 1, 90, 99
3, 6190, Note_on_c, 1, 90, 0
3, 6190, Note_on_c, 1, 85, 0
3, 6240, Note_on_c, 1, 97, 107
3, 6270, Note_on_c, 1, 97, 0
3, 6320, Note_on_c, 1, 85, 98
3, 6320, Note_on_c, 1, 90, 98
3, 6350, Note_on_c, 1, 90, 0
3, 6350, Note_on_c, 1, 85, 0
3, 6400, Note_on_c, 1, 85, 98
3, 6400, Note_on_c, 1, 90, 98
3, 6430, Note_on_c, 1, 90, 0
3, 6430, Note_on_c, 1, 85, 0
3, 6480, Note_on_c, 1, 97, 107
3, 6510, Note_on_c, 1, 97, 0
3, 6560, Note_on_c, 1, 85, 99
3, 6560, Note_on_c, 1, 90, 99
3, 6590, Note_on_c, 1, 90, 0
3, 6590, Note_on_c, 1, 85, 0
3, 6640, Note_on_c, 1, 85, 99
3, 6640, Note_on_c, 1, 90, 99
3, 6670, Note_on_c, 1, 90, 0
3, 6670, Note_on_c, 1, 85, 0
3, 6720, Note_on_c, 1, 97, 107
3, 6750, Note_on_c, 1, 97, 0
3, 6800, Note_on_c, 1, 90, 98
3, 6800, Note_on_c, 1, 85, 98
3, 6830, Note_on_c, 1, 85, 0
3, 6830, Note_on_c, 1, 90, 0
3, 6880, Note_on_c, 1, 90, 99
3, 6880, Note_on_c, 1, 85, 99
3, 6910, Note_on_c, 1, 85, 0
3, 6910, Note_on_c, 1, 90, 0
3, 6960, Note_on_c, 1, 97, 107
3, 6990, Note_on_c, 1, 97, 0
3, 7040, Note_on_c, 1, 85, 99
3, 7040, Note_on_c, 1, 90, 99
3, 7070, Note_on_c, 1, 90, 0
3, 7070, Note_on_c, 1, 85, 0
3, 7120, Note_on_c, 1, 85, 99
3, 7120, Note_on_c, 1, 90, 99
3, 7150, Note_on_c, 1, 90, 0
3, 7150, Note_on_c, 1, 85, 0
3, 7200, Note_on_c, 1, 95, 107
3, 7230, Note_on_c, 1, 95, 0
3, 7280, Note_on_c, 1, 83, 98
3, 7280, Note_on_c, 1, 88, 98
3, 7310, Note_on_c, 1, 88, 0
3, 7310, Note_on_c, 1, 83, 0
3, 7360, Note_on_c, 1, 83, 98
3, 7360, Note_on_c, 1, 88, 98
3, 7390, Note_on_c, 1, 88, 0
3, 7390, Note_on_c, 1, 83, 0
3, 7440, Note_on_c, 1, 95, 107
3, 7470, Note_on_c, 1, 95, 0
3, 7520, Note_on_c, 1, 83, 99
3, 7520, Note_on_c, 1, 88, 99
3, 7550, Note_on_c, 1, 88, 0
3, 7550, Note_on_c, 1, 83, 0
3, 7600, Note_on_c, 1, 83, 99
3, 7600, Note_on_c, 1, 88, 99
3, 7630, Note_on_c, 1, 88, 0
3, 7630, Note_on_c, 1, 83, 0
3, 7680, Note_on_c, 1, 95, 107
3, 7710, Note_on_c, 1, 95, 0
3, 7760, Note_on_c, 1, 83, 99
3, 7760, Note_on_c, 1, 88, 99
3, 7790, Note_on_c, 1, 88, 0
3, 7790, Note_on_c, 1, 83, 0
3, 7840, Note_on_c, 1, 83, 99
3, 7840, Note_on_c, 1, 88, 99
3, 7870, Note_on_c, 1, 88, 0
3, 7870, Note_on_c, 1, 83, 0
3, 7920, Note_on_c, 1, 95, 107
3, 7950, Note_on_c, 1, 95, 0
3, 8000, Note_on_c, 1, 83, 99
3, 8000, Note_on_c, 1, 88, 99
3, 8030, Note_on_c, 1, 88, 0
3, 8030, Note_on_c, 1, 83, 0
3, 8080, Note_on_c, 1, 83, 99
3, 8080, Note_on_c, 1, 88, 99
3, 8080, Note_on_c, 1, 88, 99
3, 8110, Note_on_c, 1, 88, 0
3, 8110, Note_on_c, 1, 88, 0
3, 8110, Note_on_c, 1, 83, 0
3, 8160, Note_on_c, 1, 95, 107
3, 8190, Note_on_c, 1, 95, 0
3, 8240, Note_on_c, 1, 83, 98
3, 8240, Note_on_c, 1, 88, 98
3, 8270, Note_on_c, 1, 88, 0
3, 8270, Note_on_c, 1, 83, 0
3, 8320, Note_on_c, 1, 83, 98
3, 8320, Note_on_c, 1, 88, 98
3, 8350, Note_on_c, 1, 88, 0
3, 8350, Note_on_c, 1, 83, 0
3, 8400, Note_on_c, 1, 95, 107
3, 8430, Note_on_c, 1, 95, 0
3, 8480, Note_on_c, 1, 83, 99
3, 8480, Note_on_c, 1, 88, 99
3, 8510, Note_on_c, 1, 88, 0
3, 8510, Note_on_c, 1, 83, 0
3, 8560, Note_on_c, 1, 83, 99
3, 8560, Note_on_c, 1, 88, 99
3, 8590, Note_on_c, 1, 88, 0
3, 8590, Note_on_c, 1, 83, 0
3, 8640, Note_on_c, 1, 95, 107
3, 8670, Note_on_c, 1, 95, 0
3, 8720, Note_on_c, 1, 83, 99
3, 8720, Note_on_c, 1, 88, 99
3, 8750, Note_on_c, 1, 88, 0
3, 8750, Note_on_c, 1, 83, 0
3, 8800, Note_on_c, 1, 83, 99
3, 8800, Note_on_c, 1, 88, 99
3, 8830, Note_on_c, 1, 88, 0
3, 8830, Note_on_c, 1, 83, 0
3, 8880, Note_on_c, 1, 95, 107
3, 8910, Note_on_c, 1, 95, 0
3, 8960, Note_on_c, 1, 83, 99
3, 8960, Note_on_c, 1, 88, 99
3, 8990, Note_on_c, 1, 88, 0
3, 8990, Note_on_c, 1, 83, 0
3, 9040, Note_on_c, 1, 83, 99
3, 9040, Note_on_c, 1, 88, 99
3, 9040, Note_on_c, 1, 88, 99
3, 9070, Note_on_c, 1, 88, 0
3, 9070, Note_on_c, 1, 88, 0
3, 9070, Note_on_c, 1, 83, 0
3, 9120, Note_on_c, 1, 93, 107
3, 9150, Note_on_c, 1, 93, 0
3, 9200, Note_on_c, 1, 81, 99
3, 9200, Note_on_c, 1, 88, 99
3, 9230, Note_on_c, 1, 88, 0
3, 9230, Note_on_c, 1, 81, 0
3, 9280, Note_on_c, 1, 81, 99
3, 9280, Note_on_c, 1, 88, 99
3, 9310, Note_on_c, 1, 88, 0
3, 9310, Note_on_c, 1, 81, 0
3, 9360, Note_on_c, 1, 93, 107
3, 9390, Note_on_c, 1, 93, 0
3, 9440, Note_on_c, 1, 81, 99
3, 9440, Note_on_c, 1, 88, 99
3, 9470, Note_on_c, 1, 88, 0
3, 9470, Note_on_c, 1, 81, 0
3, 9520, Note_on_c, 1, 81, 99
3, 9520, Note_on_c, 1, 88, 99
3, 9550, Note_on_c, 1, 88, 0
3, 9550, Note_on_c, 1, 81, 0
3, 9600, Note_on_c, 1, 93, 99
3, 9630, Note_on_c, 1, 93, 0
3, 10560, Note_on_c, 1, 99, 105
3, 10590, Note_on_c, 1, 99, 0
3, 10640, Note_on_c, 1, 92, 105
3, 10670, Note_on_c, 1, 92, 0
3, 10720, Note_on_c, 1, 99, 105
3, 10750, Note_on_c, 1, 99, 0
3, 10800, Note_on_c, 1, 92, 105
3, 10830, Note_on_c, 1, 92, 0
3, 10880, Note_on_c, 1, 99, 105
3, 10910, Note_on_c, 1, 99, 0
3, 10960, Note_on_c, 1, 92, 105
3, 10990, Note_on_c, 1, 92, 0
3, 11040, Note_on_c, 1, 99, 106
3, 11070, Note_on_c, 1, 99, 0
3, 11120, Note_on_c, 1, 92, 98
3, 11120, Note_on_c, 1, 94, 98
3, 11150, Note_on_c, 1, 94, 0
3, 11150, Note_on_c, 1, 92, 0
3, 11200, Note_on_c, 1, 92, 98
3, 11200, Note_on_c, 1, 94, 98
3, 11230, Note_on_c, 1, 94, 0
3, 11230, Note_on_c, 1, 92, 0
3, 11280, Note_on_c, 1, 99, 106
3, 11310, Note_on_c, 1, 99, 0
3, 11360, Note_on_c, 1, 92, 96
3, 11360, Note_on_c, 1, 94, 96
3, 11390, Note_on_c, 1, 94, 0
3, 11390, Note_on_c, 1, 92, 0
3, 11440, Note_on_c, 1, 92, 96
3, 11440, Note_on_c, 1, 94, 96
3, 11470, Note_on_c, 1, 94, 0
3, 11470, Note_on_c, 1, 92, 0
3, 11520, Note_on_c, 1, 99, 107
3, 11550, Note_on_c, 1, 99, 0
3, 11600, Note_on_c, 1, 92, 97
3, 11600, Note_on_c, 1, 94, 97
3, 11630, Note_on_c, 1, 94, 0
3, 11630, Note_on_c, 1, 92, 0
3, 11680, Note_on_c, 1, 92, 97
3, 11680, Note_on_c, 1, 94, 97
3, 11710, Note_on_c, 1, 94, 0
3, 11710, Note_on_c, 1, 92, 0
3, 11760, Note_on_c, 1, 99, 107
3, 11790, Note_on_c, 1, 99, 0
3, 11840, Note_on_c, 1, 92, 98
3, 11840, Note_on_c, 1, 94, 98
3, 11870, Note_on_c, 1, 94, 0
3, 11870, Note_on_c, 1, 92, 0
3, 11920, Note_on_c, 1, 92, 98
3, 11920, Note_on_c, 1, 94, 98
3, 11950, Note_on_c, 1, 94, 0
3, 11950, Note_on_c, 1, 92, 0
3, 12000, Note_on_c, 1, 97, 107
3, 12030, Note_on_c, 1, 97, 0
3, 12080, Note_on_c, 1, 95, 96
3, 12080, Note_on_c, 1, 90, 96
3, 12110, Note_on_c, 1, 90, 0
3, 12110, Note_on_c, 1, 95, 0
3, 12160, Note_on_c, 1, 95, 96
3, 12160, Note_on_c, 1, 90, 96
3, 12190, Note_on_c, 1, 90, 0
3, 12190, Note_on_c, 1, 95, 0
3, 12240, Note_on_c, 1, 97, 107
3, 12270, Note_on_c, 1, 97, 0
3, 12320, Note_on_c, 1, 95, 97
3, 12320, Note_on_c, 1, 90, 97
3, 12350, Note_on_c, 1, 90, 0
3, 12350, Note_on_c, 1, 95, 0
3, 12400, Note_on_c, 1, 90, 97
3, 12400, Note_on_c, 1, 95, 97
3, 12430, Note_on_c, 1, 95, 0
3, 12430, Note_on_c, 1, 90, 0
3, 12480, Note_on_c, 1, 97, 107
3, 12510, Note_on_c, 1, 97, 0
3, 12560, Note_on_c, 1, 95, 98
3, 12560, Note_on_c, 1, 90, 98
3, 12590, Note_on_c, 1, 90, 0
3, 12590, Note_on_c, 1, 95, 0
3, 12640, Note_on_c, 1, 95, 98
3, 12640, Note_on_c, 1, 90, 98
3, 12670, Note_on_c, 1, 90, 0
3, 12670, Note_on_c, 1, 95, 0
3, 12720, Note_on_c, 1, 97, 107
3, 12750, Note_on_c, 1, 97, 0
3, 12800, Note_on_c, 1, 95, 98
3, 12800, Note_on_c, 1, 90, 98
3, 12830, Note_on_c, 1, 90, 0
3, 12830, Note_on_c, 1, 95, 0
3, 12880, Note_on_c, 1, 95, 98
3, 12880, Note_on_c, 1, 90, 98
3, 12910, Note_on_c, 1, 90, 0
3, 12910, Note_on_c, 1, 95, 0
3, 12960, Note_on_c, 1, 99, 107
3, 12990, Note_on_c, 1, 99, 0
3, 13040, Note_on_c, 1, 87, 98
3, 13040, Note_on_c, 1, 92, 98
3, 13070, Note_on_c, 1, 92, 0
3, 13070, Note_on_c, 1, 87, 0
3, 13120, Note_on_c, 1, 97, 98
3, 13120, Note_on_c, 1, 92, 98
3, 13150, Note_on_c, 1, 92, 0
3, 13150, Note_on_c, 1, 97, 0
3, 13200, Note_on_c, 1, 99, 107
3, 13230, Note_on_c, 1, 99, 0
3, 13280, Note_on_c, 1, 87, 96
3, 13280, Note_on_c, 1, 92, 96
3, 13310, Note_on_c, 1, 92, 0
3, 13310, Note_on_c, 1, 87, 0
3, 13360, Note_on_c, 1, 92, 96
3, 13360, Note_on_c, 1, 97, 96
3, 13390, Note_on_c, 1, 97, 0
3, 13390, Note_on_c, 1, 92, 0
3, 13440, Note_on_c, 1, 99, 107
3, 13470, Note_on_c, 1, 99, 0
3, 13520, Note_on_c, 1, 87, 98
3, 13520, Note_on_c, 1, 92, 98
3, 13550, Note_on_c, 1, 92, 0
3, 13550, Note_on_c, 1, 87, 0
3, 13600, Note_on_c, 1, 97, 97
3, 13600, Note_on_c, 1, 92, 97
3, 13630, Note_on_c, 1, 92, 0
3, 13630, Note_on_c, 1, 97, 0
3, 13680, Note_on_c, 1, 99, 107
3, 13710, Note_on_c, 1, 99, 0
3, 13760, Note_on_c, 1, 87, 99
3, 13760, Note_on_c, 1, 92, 99
3, 13790, Note_on_c, 1, 92, 0
3, 13790, Note_on_c, 1, 87, 0
3, 13840, Note_on_c, 1, 92, 99
3, 13840, Note_on_c, 1, 97, 99
3, 13870, Note_on_c, 1, 97, 0
3, 13870, Note_on_c, 1, 92, 0
3, 13920, Note_on_c, 1, 99, 107
3, 13950, Note_on_c, 1, 99, 0
3, 14000, Note_on_c, 1, 87, 98
3, 14000, Note_on_c, 1, 92, 98
3, 14030, Note_on_c, 1, 92, 0
3, 14030, Note_on_c, 1, 87, 0
3, 14080, Note_on_c, 1, 97, 98
3, 14080, Note_on_c, 1, 92, 98
3, 14110, Note_on_c, 1, 92, 0
3, 14110, Note_on_c, 1, 97, 0
3, 14160, Note_on_c, 1, 99, 107
3, 14190, Note_on_c, 1, 99, 0
3, 14240, Note_on_c, 1, 87, 96
3, 14240, Note_on_c, 1, 92, 96
3, 14270, Note_on_c, 1, 92, 0
3, 14270, Note_on_c, 1, 87, 0
3, 14320, Note_on_c, 1, 92, 96
3, 14320, Note_on_c, 1, 97, 96
3, 14350, Note_on_c, 1, 97, 0
3, 14350, Note_on_c, 1, 92, 0
3, 14400, Note_on_c, 1, 99, 107
3, 14430, Note_on_c, 1, 99, 0
3, 14480, Note_on_c, 1, 87, 98
3, 14480, Note_on_c, 1, 92, 98
3, 14510, Note_on_c, 1, 92, 0
3, 14510, Note_on_c, 1, 87, 0
3, 14560, Note_on_c, 1, 97, 97
3, 14560, Note_on_c, 1, 92, 97
3, 14590, Note_on_c, 1, 92, 0
3, 14590, Note_on_c, 1, 97, 0
3, 14640, Note_on_c, 1, 99, 107
3, 14670, Note_on_c, 1, 99, 0
3, 14720, Note_on_c, 1, 87, 99
3, 14720, Note_on_c, 1, 92, 99
3, 14750, Note_on_c, 1, 92, 0
3, 14750, Note_on_c, 1, 87, 0
3, 14800, Note_on_c, 1, 92, 99
3, 14800, Note_on_c, 1, 97, 99
3, 14830, Note_on_c, 1, 97, 0
3, 14830, Note_on_c, 1, 92, 0
3, 14880, Note_on_c, 1, 97, 107
3, 14910, Note_on_c, 1, 97, 0
3, 14960, Note_on_c, 1, 85, 98
3, 14960, Note_on_c, 1, 90, 98
3, 14990, Note_on_c, 1, 90, 0
3, 14990, Note_on_c, 1, 85, 0
3, 15040, Note_on_c, 1, 85, 98
3, 15040, Note_on_c, 1, 90, 98
3, 15070, Note_on_c, 1, 90, 0
3, 15070, Note_on_c, 1, 85, 0
3, 15120, Note_on_c, 1, 97, 107
3, 15150, Note_on_c, 1, 97, 0
3, 15200, Note_on_c, 1, 85, 99
3, 15200, Note_on_c, 1, 90, 99
3, 15230, Note_on_c, 1, 90, 0
3, 15230, Note_on_c, 1, 85, 0
3, 15280, Note_on_c, 1, 85, 99
3, 15280, Note_on_c, 1, 90, 99
3, 15310, Note_on_c, 1, 90, 0
3, 15310, Note_on_c, 1, 85, 0
3, 15360, Note_on_c, 1, 97, 107
3, 15390, Note_on_c, 1, 97, 0
3, 15440, Note_on_c, 1, 90, 98
3, 15440, Note_on_c, 1, 85, 98
3, 15470, Note_on_c, 1, 85, 0
3, 15470, Note_on_c, 1, 90, 0
3, 15520, Note_on_c, 1, 90, 99
3, 15520, Note_on_c, 1, 85, 99
3, 15550, Note_on_c, 1, 85, 0
3, 15550, Note_on_c, 1, 90, 0
3, 15600, Note_on_c, 1, 97, 107
3, 15630, Note_on_c, 1, 97, 0
3, 15680, Note_on_c, 1, 85, 99
3, 15680, Note_on_c, 1, 90, 99
3, 15710, Note_on_c, 1, 90, 0
3, 15710, Note_on_c, 1, 85, 0
3, 15760, Note_on_c, 1, 85, 99
3, 15760, Note_on_c, 1, 90, 99
3, 15790, Note_on_c, 1, 90, 0
3, 15790, Note_on_c, 1, 85, 0
3, 15840, Note_on_c, 1, 97, 107
3, 15870, Note_on_c, 1, 97, 0
3, 15920, Note_on_c, 1, 85, 98
3, 15920, Note_on_c, 1, 90, 98
3, 15950, Note_on_c, 1, 90, 0
3, 15950, Note_on_c, 1, 85, 0
3, 16000, Note_on_c, 1, 85, 98
3, 16000, Note_on_c, 1, 90, 98
3, 16030, Note_on_c, 1, 90, 0
3, 16030, Note_on_c, 1, 85, 0
3, 16080, Note_on_c, 1, 97, 107
3, 16110, Note_on_c, 1, 97, 0
3, 16160, Note_on_c, 1, 85, 99
3, 16160, Note_on_c, 1, 90, 99
3, 16190, Note_on_c, 1, 90, 0
3, 16190, Note_on_c, 1, 85, 0
3, 16240, Note_on_c, 1, 85, 99
3, 16240, Note_on_c, 1, 90, 99
3, 16270, Note_on_c, 1, 90, 0
3, 16270, Note_on_c, 1, 85, 0
3, 16320, Note_on_c, 1, 97, 107
3, 16350, Note_on_c, 1, 97, 0
3, 16400, Note_on_c, 1, 90, 98
3, 16400, Note_on_c, 1, 85, 98
3, 16430, Note_on_c, 1, 85, 0
3, 16430, Note_on_c, 1, 90, 0
3, 16480, Note_on_c, 1, 90, 99
3, 16480, Note_on_c, 1, 85, 99
3, 16510, Note_on_c, 1, 85, 0
3, 16510, Note_on_c, 1, 90, 0
3, 16560, Note_on_c, 1, 97, 107
3, 16590, Note_on_c, 1, 97, 0
3, 16640, Note_on_c, 1, 85, 99
3, 16640, Note_on_c, 1, 90, 99
3, 16670, Note_on_c, 1, 90, 0
3, 16670, Note_on_c, 1, 85, 0
3, 16720, Note_on_c, 1, 85, 99
3, 16720, Note_on_c, 1, 90, 99
3, 16750, Note_on_c, 1, 90, 0
3, 16750, Note_on_c, 1, 85, 0
3, 16800, Note_on_c, 1, 95, 107
3, 16830, Note_on_c, 1, 95, 0
3, 16880, Note_on_c, 1, 83, 98
3, 16880, Note_on_c, 1, 88, 98
3, 16910, Note_on_c, 1, 88, 0
3, 16910, Note_on_c, 1, 83, 0
3, 16960, Note_on_c, 1, 83, 98
3, 16960, Note_on_c, 1, 88, 98
3, 16990, Note_on_c, 1, 88, 0
3, 16990, Note_on_c, 1, 83, 0
3, 17040, Note_on_c, 1, 95, 107
3, 17070, Note_on_c, 1, 95, 0
3, 17120, Note_on_c, 1, 83, 99
3, 17120, Note_on_c, 1, 88, 99
3, 17150, Note_on_c, 1, 88, 0
3, 17150, Note_on_c, 1, 83, 0
3, 17200, Note_on_c, 1, 83, 99
3, 17200, Note_on_c, 1, 88, 99
3, 17230, Note_on_c, 1, 88, 0
3, 17230, Note_on_c, 1, 83, 0
3, 17280, Note_on_c, 1, 95, 107
3, 17310, Note_on_c, 1, 95, 0
3, 17360, Note_on_c, 1, 83, 99
3, 17360, Note_on_c, 1, 88, 99
3, 17390, Note_on_c, 1, 88, 0
3, 17390, Note_on_c, 1, 83, 0
3, 17440, Note_on_c, 1, 83, 99
3, 17440, Note_on_c, 1, 88, 99
3, 17470, Note_on_c, 1, 88, 0
3, 17470, Note_on_c, 1, 83, 0
3, 17520, Note_on_c, 1, 95, 107
3, 17550, Note_on_c, 1, 95, 0
3, 17600, Note_on_c, 1, 83, 99
3, 17600, Note_on_c, 1, 88, 99
3, 17630, Note_on_c, 1, 88, 0
3, 17630, Note_on_c, 1, 83, 0
3, 17680, Note_on_c, 1, 83, 99
3, 17680, Note_on_c, 1, 88, 99
3, 17680, Note_on_c, 1, 88, 99
3, 17710, Note_on_c, 1, 88, 0
3, 17710, Note_on_c, 1, 88, 0
3, 17710, Note_on_c, 1, 83, 0
3, 17760, Note_on_c, 1, 95, 107
3, 17790, Note_on_c, 1, 95, 0
3, 17840, Note_on_c, 1, 83, 98
3, 17840, Note_on_c, 1, 88, 98
3, 17870, Note_on_c, 1, 88, 0
3, 17870, Note_on_c, 1, 83, 0
3, 17920, Note_on_c, 1, 83, 98
3, 17920, Note_on_c, 1, 88, 98
3, 17950, Note_on_c, 1, 88, 0
3, 17950, Note_on_c, 1, 83, 0
3, 18000, Note_on_c, 1, 95, 107
3, 18030, Note_on_c, 1, 95, 0
3, 18080, Note_on_c, 1, 83, 99
3, 18080, Note_on_c, 1, 88, 99
3, 18110, Note_on_c, 1, 88, 0
3, 18110, Note_on_c, 1, 83, 0
3, 18160, Note_on_c, 1, 83, 99
3, 18160, Note_on_c, 1, 88, 99
3, 18190, Note_on_c, 1, 88, 0
3, 18190, Note_on_c, 1, 83, 0
3, 18240, Note_on_c, 1, 95, 107
3, 18270, Note_on_c, 1, 95, 0
3, 18320, Note_on_c, 1, 83, 99
3, 18320, Note_on_c, 1, 88, 99
3, 18350, Note_on_c, 1, 88, 0
3, 18350, Note_on_c, 1, 83, 0
3, 18400, Note_on_c, 1, 83, 99
3, 18400, Note_on_c, 1, 88, 99
3, 18430, Note_on_c, 1, 88, 0
3, 18430, Note_on_c, 1, 83, 0
3, 18480, Note_on_c, 1, 95, 107
3, 18510, Note_on_c, 1, 95, 0
3, 18560, Note_on_c, 1, 83, 99
3, 18560, Note_on_c, 1, 88, 99
3, 18590, Note_on_c, 1, 88, 0
3, 18590, Note_on_c, 1, 83, 0
3, 18640, Note_on_c, 1, 83, 99
3, 18640, Note_on_c, 1, 88, 99
3, 18640, Note_on_c, 1, 88, 99
3, 18670, Note_on_c, 1, 88, 0
3, 18670, Note_on_c, 1, 88, 0
3, 18670, Note_on_c, 1, 83, 0
3, 18720, Note_on_c, 1, 93, 107
3, 18750, Note_on_c, 1, 93, 0
3, 18800, Note_on_c, 1, 81, 99
3, 18800, Note_on_c, 1, 88, 99
3, 18830, Note_on_c, 1, 88, 0
3, 18830, Note_on_c, 1, 81, 0
3, 18880, Note_on_c, 1, 81, 99
3, 18880, Note_on_c, 1, 88, 99
3, 18910, Note_on_c, 1, 88, 0
3, 18910, Note_on_c, 1, 81, 0
3, 18960, Note_on_c, 1, 93, 107
3, 18990, Note_on_c, 1, 93, 0
3, 19040, Note_on_c, 1, 81, 99
3, 19040, Note_on_c, 1, 88, 99
3, 19070, Note_on_c, 1, 88, 0
3, 19070, Note_on_c, 1, 81, 0
3, 19120, Note_on_c, 1, 81, 99
3, 19120, Note_on_c, 1, 88, 99
3, 19150, Note_on_c, 1, 88, 0
3, 19150, Note_on_c, 1, 81, 0
3, 19200, Note_on_c, 1, 93, 107
3, 19230, Note_on_c, 1, 93, 0
3, 20160, Note_on_c, 1, 99, 105
3, 20190, Note_on_c, 1, 99, 0
3, 20240, Note_on_c, 1, 92, 105
3, 20270, Note_on_c, 1, 92, 0
3, 20320, Note_on_c, 1, 99, 105
3, 20350, Note_on_c, 1, 99, 0
3, 20400, Note_on_c, 1, 92, 105
3, 20430, Note_on_c, 1, 92, 0
3, 20480, Note_on_c, 1, 99, 105
3, 20510, Note_on_c, 1, 99, 0
3, 20560, Note_on_c, 1, 92, 105
3, 20590, Note_on_c, 1, 92, 0
3, 20640, Note_on_c, 1, 99, 106
3, 20670, Note_on_c, 1, 99, 0
3, 20720, Note_on_c, 1, 92, 98
3, 20720, Note_on_c, 1, 94, 98
3, 20750, Note_on_c, 1, 94, 0
3, 20750, Note_on_c, 1, 92, 0
3, 20800, Note_on_c, 1, 92, 98
3, 20800, Note_on_c, 1, 94, 98
3, 20830, Note_on_c, 1, 94, 0
3, 20830, Note_on_c, 1, 92, 0
3, 20880, Note_on_c, 1, 99, 106
3, 20910, Note_on_c, 1, 99, 0
3, 20960, Note_on_c, 1, 92, 96
3, 20960, Note_on_c, 1, 94, 96
3, 20990, Note_on_c, 1, 94, 0
3, 20990, Note_on_c, 1, 92, 0
3, 21040, Note_on_c, 1, 92, 96
3, 21040, Note_on_c, 1, 94, 96
3, 21070, Note_on_c, 1, 94, 0
3, 21070, Note_on_c, 1, 92, 0
3, 21120, Note_on_c, 1, 99, 107
3, 21150, Note_on_c, 1, 99, 0
3, 21200, Note_on_c, 1, 92, 97
3, 21200, Note_on_c, 1, 94, 97
3, 21230, Note_on_c, 1, 94, 0
3, 21230, Note_on_c, 1, 92, 0
3, 21280, Note_on_c, 1, 92, 97
3, 21280, Note_on_c, 1, 94, 97
3, 21310, Note_on_c, 1, 94, 0
3, 21310, Note_on_c, 1, 92, 0
3, 21360, Note_on_c, 1, 99, 107
3, 21390, Note_on_c, 1, 99, 0
3, 21440, Note_on_c, 1, 92, 98
3, 21440, Note_on_c, 1, 94, 98
3, 21470, Note_on_c, 1, 94, 0
3, 21470, Note_on_c, 1, 92, 0
3, 21520, Note_on_c, 1, 92, 98
3, 21520, Note_on_c, 1, 94, 98
3, 21550, Note_on_c, 1, 94, 0
3, 21550, Note_on_c, 1, 92, 0
3, 21600, Note_on_c, 1, 97, 107
3, 21630, Note_on_c, 1, 97, 0
3, 21680, Note_on_c, 1, 95, 96
3, 21680, Note_on_c, 1, 90, 96
3, 21710, Note_on_c, 1, 90, 0
3, 21710, Note_on_c, 1, 95, 0
3, 21760, Note_on_c, 1, 95, 96
3, 21760, Note_on_c, 1, 90, 96
3, 21790, Note_on_c, 1, 90, 0
3, 21790, Note_on_c, 1, 95, 0
3, 21840, Note_on_c, 1, 97, 107
3, 21870, Note_on_c, 1, 97, 0
3, 21920, Note_on_c, 1, 95, 97
3, 21920, Note_on_c, 1, 90, 97
3, 21950, Note_on_c, 1, 90, 0
3, 21950, Note_on_c, 1, 95, 0
3, 22000, Note_on_c, 1, 90, 97
3, 22000, Note_on_c, 1, 95, 97
3, 22030, Note_on_c, 1, 95, 0
3, 22030, Note_on_c, 1, 90, 0
3, 22080, Note_on_c, 1, 97, 107
3, 22110, Note_on_c, 1, 97, 0
3, 22160, Note_on_c, 1, 95, 98
3, 22160, Note_on_c, 1, 90, 98
3, 22190, Note_on_c, 1, 90, 0
3, 22190, Note_on_c, 1, 95, 0
3, 22240, Note_on_c, 1, 95, 98
3, 22240, Note_on_c, 1, 90, 98
3, 22270, Note_on_c, 1, 90, 0
3, 22270, Note_on_c, 1, 95, 0
3, 22320, Note_on_c, 1, 97, 107
3, 22350, Note_on_c, 1, 97, 0
3, 22400, Note_on_c, 1, 95, 98
3, 22400, Note_on_c, 1, 90, 98
3, 22430, Note_on_c, 1, 90, 0
3, 22430, Note_on_c, 1, 95, 0
3, 22480, Note_on_c, 1, 95, 98
3, 22480, Note_on_c, 1, 90, 98
3, 22510, Note_on_c, 1, 90, 0
3, 22510, Note_on_c, 1, 95, 0
3, 22560, Note_on_c, 1, 99, 107
3, 22590, Note_on_c, 1, 99, 0
3, 22640, Note_on_c, 1, 87, 98
3, 22640, Note_on_c, 1, 92, 98
3, 22670, Note_on_c, 1, 92, 0
3, 22670, Note_on_c, 1, 87, 0
3, 22720, Note_on_c, 1, 97, 98
3, 22720, Note_on_c, 1, 92, 98
3, 22750, Note_on_c, 1, 92, 0
3, 22750, Note_on_c, 1, 97, 0
3, 22800, Note_on_c, 1, 99, 107
3, 22830, Note_on_c, 1, 99, 0
3, 22880, Note_on_c, 1, 87, 96
3, 22880, Note_on_c, 1, 92, 96
3, 22910, Note_on_c, 1, 92, 0
3, 22910, Note_on_c, 1, 87, 0
3, 22960, Note_on_c, 1, 92, 96
3, 22960, Note_on_c, 1, 97, 96
3, 22990, Note_on_c, 1, 97, 0
3, 22990, Note_on_c, 1, 92, 0
3, 23040, Note_on_c, 1, 99, 107
3, 23070, Note_on_c, 1, 99, 0
3, 23120, Note_on_c, 1, 87, 98
3, 23120, Note_on_c, 1, 92, 98
3, 23150, Note_on_c, 1, 92, 0
3, 23150, Note_on_c, 1, 87, 0
3, 23200, Note_on_c, 1, 97, 97
3, 23200, Note_on_c, 1, 92, 97
3, 23230, Note_on_c, 1, 92, 0
3, 23230, Note_on_c, 1, 97, 0
3, 23280, Note_on_c, 1, 99, 107
3, 23310, Note_on_c, 1, 99, 0
3, 23360, Note_on_c, 1, 87, 99
3, 23360, Note_on_c, 1, 92, 99
3, 23390, Note_on_c, 1, 92, 0
3, 23390, Note_on_c, 1, 87, 0
3, 23440, Note_on_c, 1, 92, 99
3, 23440, Note_on_c, 1, 97, 99
3, 23470, Note_on_c, 1, 97, 0
3, 23470, Note_on_c, 1, 92, 0
3, 23520, Note_on_c, 1, 99, 107
3, 23550, Note_on_c, 1, 99, 0
3, 23600, Note_on_c, 1, 87, 98
3, 23600, Note_on_c, 1, 92, 98
3, 23630, Note_on_c, 1, 92, 0
3, 23630, Note_on_c, 1, 87, 0
3, 23680, Note_on_c, 1, 97, 98
3, 23680, Note_on_c, 1, 92, 98
3, 23710, Note_on_c, 1, 92, 0
3, 23710, Note_on_c, 1, 97, 0
3, 23760, Note_on_c, 1, 99, 107
3, 23790, Note_on_c, 1, 99, 0
3, 23840, Note_on_c, 1, 87, 96
3, 23840, Note_on_c, 1, 92, 96
3, 23870, Note_on_c, 1, 92, 0
3, 23870, Note_on_c, 1, 87, 0
3, 23920, Note_on_c, 1, 92, 96
3, 23920, Note_on_c, 1, 97, 96
3, 23950, Note_on_c, 1, 97, 0
3, 23950, Note_on_c, 1, 92, 0
3, 24000, Note_on_c, 1, 99, 107
3, 24030, Note_on_c, 1, 99, 0
3, 24080, Note_on_c, 1, 87, 98
3, 24080, Note_on_c, 1, 92, 98
3, 24110, Note_on_c, 1, 92, 0
3, 24110, Note_on_c, 1, 87, 0
3, 24160, Note_on_c, 1, 97, 97
3, 24160, Note_on_c, 1, 92, 97
3, 24190, Note_on_c, 1, 92, 0
3, 24190, Note_on_c, 1, 97, 0
3, 24240, Note_on_c, 1, 99, 107
3, 24270, Note_on_c, 1, 99, 0
3, 24320, Note_on_c, 1, 87, 99
3, 24320, Note_on_c, 1, 92, 99
3, 24350, Note_on_c, 1, 92, 0
3, 24350, Note_on_c, 1, 87, 0
3, 24400, Note_on_c, 1, 92, 99
3, 24400, Note_on_c, 1, 97, 99
3, 24430, Note_on_c, 1, 97, 0
3, 24430, Note_on_c, 1, 92, 0
3, 24480, Note_on_c, 1, 97, 107
3, 24510, Note_on_c, 1, 97, 0
3, 24560, Note_on_c, 1, 85, 98
3, 24560, Note_on_c, 1, 90, 98
3, 24590, Note_on_c, 1, 90, 0
3, 24590, Note_on_c, 1, 85, 0
3, 24640, Note_on_c, 1, 85, 98
3, 24640, Note_on_c, 1, 90, 98
3, 24670, Note_on_c, 1, 90, 0
3, 24670, Note_on_c, 1, 85, 0
3, 24720, Note_on_c, 1, 97, 107
3, 24750, Note_on_c, 1, 97, 0
3, 24800, Note_on_c, 1, 85, 99
3, 24800, Note_on_c, 1, 90, 99
3, 24830, Note_on_c, 1, 90, 0
3, 24830, Note_on_c, 1, 85, 0
3, 24880, Note_on_c, 1, 85, 99
3, 24880, Note_on_c, 1, 90, 99
3, 24910, Note_on_c, 1, 90, 0
3, 24910, Note_on_c, 1, 85, 0
3, 24960, Note_on_c, 1, 97, 107
3, 24990, Note_on_c, 1, 97, 0
3, 25040, Note_on_c, 1, 90, 98
3, 25040, Note_on_c, 1, 85, 98
3, 25070, Note_on_c, 1, 85, 0
3, 25070, Note_on_c, 1, 90, 0
3, 25120, Note_on_c, 1, 90, 99
3, 25120, Note_on_c, 1, 85, 99
3, 25150, Note_on_c, 1, 85, 0
3, 25150, Note_on_c, 1, 90, 0
3, 25200, Note_on_c, 1, 97, 107
3, 25230, Note_on_c, 1, 97, 0
3, 25280, Note_on_c, 1, 85, 99
3, 25280, Note_on_c, 1, 90, 99
3, 25310, Note_on_c, 1, 90, 0
3, 25310, Note_on_c, 1, 85, 0
3, 25360, Note_on_c, 1, 85, 99
3, 25360, Note_on_c, 1, 90, 99
3, 25390, Note_on_c, 1, 90, 0
3, 25390, Note_on_c, 1, 85, 0
3, 25440, Note_on_c, 1, 97, 107
3, 25470, Note_on_c, 1, 97, 0
3, 25520, Note_on_c, 1, 85, 98
3, 25520, Note_on_c, 1, 90, 98
3, 25550, Note_on_c, 1, 90, 0
3, 25550, Note_on_c, 1, 85, 0
3, 25600, Note_on_c, 1, 85, 98
3, 25600, Note_on_c, 1, 90, 98
3, 25630, Note_on_c, 1, 90, 0
3, 25630, Note_on_c, 1, 85, 0
3, 25680, Note_on_c, 1, 97, 107
3, 25710, Note_on_c, 1, 97, 0
3, 25760, Note_on_c, 1, 85, 99
3, 25760, Note_on_c, 1, 90, 99
3, 25790, Note_on_c, 1, 90, 0
3, 25790, Note_on_c, 1, 85, 0
3, 25840, Note_on_c, 1, 85, 99
3, 25840, Note_on_c, 1, 90, 99
3, 25870, Note_on_c, 1, 90, 0
3, 25870, Note_on_c, 1, 85, 0
3, 25920, Note_on_c, 1, 97, 107
3, 25950, Note_on_c, 1, 97, 0
3, 26000, Note_on_c, 1, 90, 98
3, 26000, Note_on_c, 1, 85, 98
3, 26030, Note_on_c, 1, 85, 0
3, 26030, Note_on_c, 1, 90, 0
3, 26080, Note_on_c, 1, 90, 99
3, 26080, Note_on_c, 1, 85, 99
3, 26110, Note_on_c, 1, 85, 0
3, 26110, Note_on_c, 1, 90, 0
3, 26160, Note_on_c, 1, 97, 107
3, 26190, Note_on_c, 1, 97, 0
3, 26240, Note_on_c, 1, 85, 99
3, 26240, Note_on_c, 1, 90, 99
3, 26270, Note_on_c, 1, 90, 0
3, 26270, Note_on_c, 1, 85, 0
3, 26320, Note_on_c, 1, 85, 99
3, 26320, Note_on_c, 1, 90, 99
3, 26350, Note_on_c, 1, 90, 0
3, 26350, Note_on_c, 1, 85, 0
3, 26400, Note_on_c, 1, 95, 107
3, 26430, Note_on_c, 1, 95, 0
3, 26480, Note_on_c, 1, 83, 98
3, 26480, Note_on_c, 1, 88, 98
3, 26510, Note_on_c, 1, 88, 0
3, 26510, Note_on_c, 1, 83, 0
3, 26560, Note_on_c, 1, 83, 98
3, 26560, Note_on_c, 1, 88, 98
3, 26590, Note_on_c, 1, 88, 0
3, 26590, Note_on_c, 1, 83, 0
3, 26640, Note_on_c, 1, 95, 107
3, 26670, Note_on_c, 1, 95, 0
3, 26720, Note_on_c, 1, 83, 99
3, 26720, Note_on_c, 1, 88, 99
3, 26750, Note_on_c, 1, 88, 0
3, 26750, Note_on_c, 1, 83, 0
3, 26800, Note_on_c, 1, 83, 99
3, 26800, Note_on_c, 1, 88, 99
3, 26830, Note_on_c, 1, 88, 0
3, 26830, Note_on_c, 1, 83, 0
3, 26880, Note_on_c, 1, 95, 107
3, 26910, Note_on_c, 1, 95, 0
3, 26960, Note_on_c, 1, 83, 99
3, 26960, Note_on_c, 1, 88, 99
3, 26990, Note_on_c, 1, 88, 0
3, 26990, Note_on_c, 1, 83, 0
3, 27040, Note_on_c, 1, 83, 99
3, 27040, Note_on_c, 1, 88, 99
3, 27070, Note_on_c, 1, 88, 0
3, 27070, Note_on_c, 1, 83, 0
3, 27120, Note_on_c, 1, 95, 107
3, 27150, Note_on_c, 1, 95, 0
3, 27200, Note_on_c, 1, 83, 99
3, 27200, Note_on_c, 1, 88, 99
3, 27230, Note_on_c, 1, 88, 0
3, 27230, Note_on_c, 1, 83, 0
3, 27280, Note_on_c, 1, 83, 99
3, 27280, Note_on_c, 1, 88, 99
3, 27280, Note_on_c, 1, 88, 99
3, 27310, Note_on_c, 1, 88, 0
3, 27310, Note_on_c, 1, 88, 0
3, 27310, Note_on_c, 1, 83, 0
3, 27360, Note_on_c, 1, 95, 107
3, 27390, Note_on_c, 1, 95, 0
3, 27440, Note_on_c, 1, 83, 98
3, 27440, Note_on_c, 1, 88, 98
3, 27470, Note_on_c, 1, 88, 0
3, 27470, Note_on_c, 1, 83, 0
3, 27520, Note_on_c, 1, 83, 98
3, 27520, Note_on_c, 1, 88, 98
3, 27550, Note_on_c, 1, 88, 0
3, 27550, Note_on_c, 1, 83, 0
3, 27600, Note_on_c, 1, 95, 107
3, 27630, Note_on_c, 1, 95, 0
3, 27680, Note_on_c, 1, 83, 99
3, 27680, Note_on_c, 1, 88, 99
3, 27710, Note_on_c, 1, 88, 0
3, 27710, Note_on_c, 1, 83, 0
3, 27760, Note_on_c, 1, 83, 99
3, 27760, Note_on_c, 1, 88, 99
3, 27790, Note_on_c, 1, 88, 0
3, 27790, Note_on_c, 1, 83, 0
3, 27840, Note_on_c, 1, 95, 107
3, 27870, Note_on_c, 1, 95, 0
3, 27920, Note_on_c, 1, 83, 99
3, 27920, Note_on_c, 1, 88, 99
3, 27950, Note_on_c, 1, 88, 0
3, 27950, Note_on_c, 1, 83, 0
3, 28000, Note_on_c, 1, 83, 99
3, 28000, Note_on_c, 1, 88, 99
3, 28030, Note_on_c, 1, 88, 0
3, 28030, Note_on_c, 1, 83, 0
3, 28080, Note_on_c, 1, 95, 107
3, 28110, Note_on_c, 1, 95, 0
3, 28160, Note_on_c, 1, 83, 99
3, 28160, Note_on_c, 1, 88, 99
3, 28190, Note_on_c, 1, 88, 0
3, 28190, Note_on_c, 1, 83, 0
3, 28240, Note_on_c, 1, 83, 99
3, 28240, Note_on_c, 1, 88, 99
3, 28240, Note_on_c, 1, 88, 99
3, 28270, Note_on_c, 1, 88, 0
3, 28270, Note_on_c, 1, 88, 0
3, 28270, Note_on_c, 1, 83, 0
3, 28320, Note_on_c, 1, 93, 107
3, 28350, Note_on_c, 1, 93, 0
3, 28400, Note_on_c, 1, 81, 99
3, 28400, Note_on_c, 1, 88, 99
3, 28430, Note_on_c, 1, 88, 0
3, 28430, Note_on_c, 1, 81, 0
3, 28480, Note_on_c, 1, 81, 99
3, 28480, Note_on_c, 1, 88, 99
3, 28510, Note_on_c, 1, 88, 0
3, 28510, Note_on_c, 1, 81, 0
3, 28560, Note_on_c, 1, 93, 107
3, 28590, Note_on_c, 1, 93, 0
3, 28640, Note_on_c, 1, 81, 99
3, 28640, Note_on_c, 1, 88, 99
3, 28670, Note_on_c, 1, 88, 0
3, 28670, Note_on_c, 1, 81, 0
3, 28720, Note_on_c, 1, 81, 99
3, 28720, Note_on_c, 1, 88, 99
3, 28750, Note_on_c, 1, 88, 0
3, 28750, Note_on_c, 1, 81, 0
3, 28800, Note_on_c, 1, 93, 107
3, 28830, Note_on_c, 1, 93, 0
3, 28830, End_track
4, 0, Start_track
4, 0, Title_t, "A3-Bright Str: "
4, 95, Control_c, 2, 91, 60
4, 96, Control_c, 2, 93, 20
4, 130, Control_c, 2, 0, 1
4, 131, Control_c, 2, 32, 3
4, 132, Program_c, 2, 48
4, 133, Control_c, 2, 7, 100
4, 133, Control_c, 2, 10, 64
4, 960, Note_on_c, 2, 99, 67
4, 978, Note_on_c, 2, 99, 0
4, 980, Note_on_c, 2, 97, 67
4, 998, Note_on_c, 2, 97, 0
4, 1000, Note_on_c, 2, 94, 67
4, 1018, Note_on_c, 2, 94, 0
4, 1020, Note_on_c, 2, 92, 67
4, 1038, Note_on_c, 2, 92, 0
4, 1040, Note_on_c, 2, 90, 67
4, 1058, Note_on_c, 2, 90, 0
4, 1060, Note_on_c, 2, 87, 67
4, 1078, Note_on_c, 2, 87, 0
4, 1080, Note_on_c, 2, 85, 67
4, 1098, Note_on_c, 2, 85, 0
4, 1100, Note_on_c, 2, 87, 67
4, 1118, Note_on_c, 2, 87, 0
4, 1120, Note_on_c, 2, 90, 67
4, 1138, Note_on_c, 2, 90, 0
4, 1140, Note_on_c, 2, 92, 67
4, 1158, Note_on_c, 2, 92, 0
4, 1160, Note_on_c, 2, 97, 67
4, 1178, Note_on_c, 2, 97, 0
4, 1180, Note_on_c, 2, 99, 67
4, 1198, Note_on_c, 2, 99, 0
4, 1200, Note_on_c, 2, 101, 67
4, 1218, Note_on_c, 2, 101, 0
4, 1220, Note_on_c, 2, 99, 67
4, 1238, Note_on_c, 2, 99, 0
4, 1240, Note_on_c, 2, 97, 67
4, 1258, Note_on_c, 2, 97, 0
4, 1260, Note_on_c, 2, 92, 67
4, 1278, Note_on_c, 2, 92, 0
4, 1280, Note_on_c, 2, 90, 67
4, 1298, Note_on_c, 2, 90, 0
4, 1300, Note_on_c, 2, 87, 67
4, 1318, Note_on_c, 2, 87, 0
4, 1320, Note_on_c, 2, 85, 67
4, 1338, Note_on_c, 2, 85, 0
4, 1340, Note_on_c, 2, 87, 67
4, 1358, Note_on_c, 2, 87, 0
4, 1360, Note_on_c, 2, 90, 67
4, 1378, Note_on_c, 2, 90, 0
4, 1380, Note_on_c, 2, 92, 67
4, 1398, Note_on_c, 2, 92, 0
4, 1400, Note_on_c, 2, 97, 67
4, 1418, Note_on_c, 2, 97, 0
4, 1420, Note_on_c, 2, 99, 67
4, 1438, Note_on_c, 2, 99, 0
4, 1440, Note_on_c, 2, 101, 68
4, 1458, Note_on_c, 2, 101, 0
4, 1460, Note_on_c, 2, 99, 66
4, 1478, Note_on_c, 2, 99, 0
4, 1480, Note_on_c, 2, 97, 65
4, 1498, Note_on_c, 2, 97, 0
4, 1500, Note_on_c, 2, 92, 64
4, 1518, Note_on_c, 2, 92, 0
4, 1520, Note_on_c, 2, 90, 62
4, 1538, Note_on_c, 2, 90, 0
4, 1540, Note_on_c, 2, 87, 61
4, 1558, Note_on_c, 2, 87, 0
4, 1560, Note_on_c, 2, 85, 59
4, 1578, Note_on_c, 2, 85, 0
4, 1580, Note_on_c, 2, 87, 58
4, 1598, Note_on_c, 2, 87, 0
4, 1600, Note_on_c, 2, 90, 57
4, 1618, Note_on_c, 2, 90, 0
4, 1620, Note_on_c, 2, 92, 55
4, 1638, Note_on_c, 2, 92, 0
4, 1640, Note_on_c, 2, 97, 54
4, 1658, Note_on_c, 2, 97, 0
4, 1660, Note_on_c, 2, 99, 53
4, 1678, Note_on_c, 2, 99, 0
4, 1680, Note_on_c, 2, 101, 51
4, 1698, Note_on_c, 2, 101, 0
4, 1700, Note_on_c, 2, 99, 50
4, 1718, Note_on_c, 2, 99, 0
4, 1720, Note_on_c, 2, 97, 48
4, 1738, Note_on_c, 2, 97, 0
4, 1740, Note_on_c, 2, 92, 47
4, 1758, Note_on_c, 2, 92, 0
4, 1760, Note_on_c, 2, 90, 46
4, 1778, Note_on_c, 2, 90, 0
4, 1780, Note_on_c, 2, 87, 44
4, 1798, Note_on_c, 2, 87, 0
4, 1800, Note_on_c, 2, 85, 43
4, 1818, Note_on_c, 2, 85, 0
4, 1820, Note_on_c, 2, 87, 41
4, 1838, Note_on_c, 2, 87, 0
4, 1840, Note_on_c, 2, 90, 40
4, 1858, Note_on_c, 2, 90, 0
4, 1860, Note_on_c, 2, 92, 39
4, 1878, Note_on_c, 2, 92, 0
4, 1880, Note_on_c, 2, 97, 37
4, 1898, Note_on_c, 2, 97, 0
4, 1900, Note_on_c, 2, 99, 36
4, 1918, Note_on_c, 2, 99, 0
4, 1920, Note_on_c, 2, 101, 34
4, 1938, Note_on_c, 2, 101, 0
4, 1940, Note_on_c, 2, 99, 33
4, 1958, Note_on_c, 2, 99, 0
4, 1960, Note_on_c, 2, 97, 32
4, 1978, Note_on_c, 2, 97, 0
4, 1980, Note_on_c, 2, 92, 30
4, 1998, Note_on_c, 2, 92, 0
4, 2000, Note_on_c, 2, 90, 29
4, 2018, Note_on_c, 2, 90, 0
4, 2020, Note_on_c, 2, 87, 28
4, 2038, Note_on_c, 2, 87, 0
4, 2040, Note_on_c, 2, 85, 26
4, 2058, Note_on_c, 2, 85, 0
4, 2060, Note_on_c, 2, 87, 25
4, 2078, Note_on_c, 2, 87, 0
4, 2080, Note_on_c, 2, 90, 23
4, 2098, Note_on_c, 2, 90, 0
4, 2100, Note_on_c, 2, 92, 22
4, 2118, Note_on_c, 2, 92, 0
4, 2120, Note_on_c, 2, 97, 21
4, 2138, Note_on_c, 2, 97, 0
4, 2140, Note_on_c, 2, 99, 19
4, 2158, Note_on_c, 2, 99, 0
4, 2160, Note_on_c, 2, 101, 18
4, 2178, Note_on_c, 2, 101, 0
4, 2180, Note_on_c, 2, 99, 16
4, 2198, Note_on_c, 2, 99, 0
4, 2200, Note_on_c, 2, 97, 15
4, 2218, Note_on_c, 2, 97, 0
4, 2220, Note_on_c, 2, 92, 14
4, 2238, Note_on_c, 2, 92, 0
4, 2240, Note_on_c, 2, 90, 12
4, 2258, Note_on_c, 2, 90, 0
4, 2260, Note_on_c, 2, 87, 11
4, 2278, Note_on_c, 2, 87, 0
4, 2280, Note_on_c, 2, 85, 9
4, 2298, Note_on_c, 2, 85, 0
4, 2300, Note_on_c, 2, 87, 8
4, 2318, Note_on_c, 2, 87, 0
4, 2320, Note_on_c, 2, 90, 7
4, 2338, Note_on_c, 2, 90, 0
4, 2340, Note_on_c, 2, 92, 5
4, 2358, Note_on_c, 2, 92, 0
4, 2360, Note_on_c, 2, 97, 4
4, 2378, Note_on_c, 2, 97, 0
4, 2380, Note_on_c, 2, 99, 3
4, 2398, Note_on_c, 2, 99, 0
4, 10560, Note_on_c, 2, 99, 66
4, 10578, Note_on_c, 2, 99, 0
4, 10580, Note_on_c, 2, 97, 67
4, 10598, Note_on_c, 2, 97, 0
4, 10600, Note_on_c, 2, 94, 68
4, 10618, Note_on_c, 2, 94, 0
4, 10620, Note_on_c, 2, 92, 69
4, 10638, Note_on_c, 2, 92, 0
4, 10640, Note_on_c, 2, 90, 71
4, 10658, Note_on_c, 2, 90, 0
4, 10660, Note_on_c, 2, 87, 72
4, 10678, Note_on_c, 2, 87, 0
4, 10680, Note_on_c, 2, 85, 73
4, 10698, Note_on_c, 2, 85, 0
4, 10700, Note_on_c, 2, 87, 75
4, 10718, Note_on_c, 2, 87, 0
4, 10720, Note_on_c, 2, 90, 76
4, 10738, Note_on_c, 2, 90, 0
4, 10740, Note_on_c, 2, 92, 77
4, 10758, Note_on_c, 2, 92, 0
4, 10760, Note_on_c, 2, 97, 79
4, 10778, Note_on_c, 2, 97, 0
4, 10780, Note_on_c, 2, 99, 80
4, 10798, Note_on_c, 2, 99, 0
4, 10800, Note_on_c, 2, 101, 81
4, 10818, Note_on_c, 2, 101, 0
4, 10820, Note_on_c, 2, 99, 82
4, 10838, Note_on_c, 2, 99, 0
4, 10840, Note_on_c, 2, 97, 84
4, 10858, Note_on_c, 2, 97, 0
4, 10860, Note_on_c, 2, 92, 85
4, 10878, Note_on_c, 2, 92, 0
4, 10880, Note_on_c, 2, 90, 86
4, 10898, Note_on_c, 2, 90, 0
4, 10900, Note_on_c, 2, 87, 88
4, 10918, Note_on_c, 2, 87, 0
4, 10920, Note_on_c, 2, 85, 89
4, 10938, Note_on_c, 2, 85, 0
4, 10940, Note_on_c, 2, 87, 90
4, 10958, Note_on_c, 2, 87, 0
4, 10960, Note_on_c, 2, 90, 92
4, 10978, Note_on_c, 2, 90, 0
4, 10980, Note_on_c, 2, 92, 93
4, 10998, Note_on_c, 2, 92, 0
4, 11000, Note_on_c, 2, 97, 94
4, 11018, Note_on_c, 2, 97, 0
4, 11020, Note_on_c, 2, 99, 96
4, 11038, Note_on_c, 2, 99, 0
4, 11040, Note_on_c, 2, 101, 97
4, 11058, Note_on_c, 2, 101, 0
4, 11060, Note_on_c, 2, 99, 95
4, 11078, Note_on_c, 2, 99, 0
4, 11080, Note_on_c, 2, 97, 93
4, 11098, Note_on_c, 2, 97, 0
4, 11100, Note_on_c, 2, 92, 91
4, 11118, Note_on_c, 2, 92, 0
4, 11120, Note_on_c, 2, 90, 89
4, 11138, Note_on_c, 2, 90, 0
4, 11140, Note_on_c, 2, 87, 87
4, 11158, Note_on_c, 2, 87, 0
4, 11160, Note_on_c, 2, 85, 85
4, 11178, Note_on_c, 2, 85, 0
4, 11180, Note_on_c, 2, 87, 83
4, 11198, Note_on_c, 2, 87, 0
4, 11200, Note_on_c, 2, 90, 81
4, 11218, Note_on_c, 2, 90, 0
4, 11220, Note_on_c, 2, 92, 79
4, 11238, Note_on_c, 2, 92, 0
4, 11240, Note_on_c, 2, 97, 77
4, 11258, Note_on_c, 2, 97, 0
4, 11260, Note_on_c, 2, 99, 75
4, 11278, Note_on_c, 2, 99, 0
4, 11280, Note_on_c, 2, 101, 73
4, 11298, Note_on_c, 2, 101, 0
4, 11300, Note_on_c, 2, 99, 71
4, 11318, Note_on_c, 2, 99, 0
4, 11320, Note_on_c, 2, 97, 69
4, 11338, Note_on_c, 2, 97, 0
4, 11340, Note_on_c, 2, 92, 67
4, 11358, Note_on_c, 2, 92, 0
4, 11360, Note_on_c, 2, 90, 65
4, 11378, Note_on_c, 2, 90, 0
4, 11380, Note_on_c, 2, 87, 64
4, 11398, Note_on_c, 2, 87, 0
4, 11400, Note_on_c, 2, 85, 62
4, 11418, Note_on_c, 2, 85, 0
4, 11420, Note_on_c, 2, 87, 60
4, 11438, Note_on_c, 2, 87, 0
4, 11440, Note_on_c, 2, 90, 58
4, 11458, Note_on_c, 2, 90, 0
4, 11460, Note_on_c, 2, 92, 56
4, 11478, Note_on_c, 2, 92, 0
4, 11480, Note_on_c, 2, 97, 54
4, 11498, Note_on_c, 2, 97, 0
4, 11500, Note_on_c, 2, 99, 52
4, 11518, Note_on_c, 2, 99, 0
4, 11520, Note_on_c, 2, 101, 50
4, 11538, Note_on_c, 2, 101, 0
4, 11540, Note_on_c, 2, 99, 48
4, 11558, Note_on_c, 2, 99, 0
4, 11560, Note_on_c, 2, 97, 46
4, 11578, Note_on_c, 2, 97, 0
4, 11580, Note_on_c, 2, 92, 44
4, 11598, Note_on_c, 2, 92, 0
4, 11600, Note_on_c, 2, 90, 42
4, 11618, Note_on_c, 2, 90, 0
4, 11620, Note_on_c, 2, 87, 40
4, 11638, Note_on_c, 2, 87, 0
4, 11640, Note_on_c, 2, 85, 38
4, 11658, Note_on_c, 2, 85, 0
4, 11660, Note_on_c, 2, 87, 36
4, 11678, Note_on_c, 2, 87, 0
4, 11680, Note_on_c, 2, 90, 34
4, 11698, Note_on_c, 2, 90, 0
4, 11700, Note_on_c, 2, 92, 32
4, 11718, Note_on_c, 2, 92, 0
4, 11720, Note_on_c, 2, 97, 30
4, 11738, Note_on_c, 2, 97, 0
4, 11740, Note_on_c, 2, 99, 28
4, 11758, Note_on_c, 2, 99, 0
4, 11760, Note_on_c, 2, 101, 26
4, 11778, Note_on_c, 2, 101, 0
4, 11780, Note_on_c, 2, 99, 24
4, 11798, Note_on_c, 2, 99, 0
4, 11800, Note_on_c, 2, 97, 22
4, 11818, Note_on_c, 2, 97, 0
4, 11820, Note_on_c, 2, 92, 20
4, 11838, Note_on_c, 2, 92, 0
4, 11840, Note_on_c, 2, 90, 18
4, 11858, Note_on_c, 2, 90, 0
4, 11860, Note_on_c, 2, 87, 16
4, 11878, Note_on_c, 2, 87, 0
4, 11880, Note_on_c, 2, 85, 14
4, 11898, Note_on_c, 2, 85, 0
4, 11900, Note_on_c, 2, 87, 12
4, 11918, Note_on_c, 2, 87, 0
4, 11920, Note_on_c, 2, 90, 10
4, 11938, Note_on_c, 2, 90, 0
4, 11940, Note_on_c, 2, 92, 8
4, 11958, Note_on_c, 2, 92, 0
4, 11960, Note_on_c, 2, 97, 6
4, 11978, Note_on_c, 2, 97, 0
4, 11980, Note_on_c, 2, 99, 4
4, 11998, Note_on_c, 2, 99, 0
4, 20160, Note_on_c, 2, 99, 66
4, 20178, Note_on_c, 2, 99, 0
4, 20180, Note_on_c, 2, 97, 67
4, 20198, Note_on_c, 2, 97, 0
4, 20200, Note_on_c, 2, 94, 68
4, 20218, Note_on_c, 2, 94, 0
4, 20220, Note_on_c, 2, 92, 69
4, 20238, Note_on_c, 2, 92, 0
4, 20240, Note_on_c, 2, 90, 71
4, 20258, Note_on_c, 2, 90, 0
4, 20260, Note_on_c, 2, 87, 72
4, 20278, Note_on_c, 2, 87, 0
4, 20280, Note_on_c, 2, 85, 73
4, 20298, Note_on_c, 2, 85, 0
4, 20300, Note_on_c, 2, 87, 75
4, 20318, Note_on_c, 2, 87, 0
4, 20320, Note_on_c, 2, 90, 76
4, 20338, Note_on_c, 2, 90, 0
4, 20340, Note_on_c, 2, 92, 77
4, 20358, Note_on_c, 2, 92, 0
4, 20360, Note_on_c, 2, 97, 79
4, 20378, Note_on_c, 2, 97, 0
4, 20380, Note_on_c, 2, 99, 80
4, 20398, Note_on_c, 2, 99, 0
4, 20400, Note_on_c, 2, 101, 81
4, 20418, Note_on_c, 2, 101, 0
4, 20420, Note_on_c, 2, 99, 82
4, 20438, Note_on_c, 2, 99, 0
4, 20440, Note_on_c, 2, 97, 84
4, 20458, Note_on_c, 2, 97, 0
4, 20460, Note_on_c, 2, 92, 85
4, 20478, Note_on_c, 2, 92, 0
4, 20480, Note_on_c, 2, 90, 86
4, 20498, Note_on_c, 2, 90, 0
4, 20500, Note_on_c, 2, 87, 88
4, 20518, Note_on_c, 2, 87, 0
4, 20520, Note_on_c, 2, 85, 89
4, 20538, Note_on_c, 2, 85, 0
4, 20540, Note_on_c, 2, 87, 90
4, 20558, Note_on_c, 2, 87, 0
4, 20560, Note_on_c, 2, 90, 92
4, 20578, Note_on_c, 2, 90, 0
4, 20580, Note_on_c, 2, 92, 93
4, 20598, Note_on_c, 2, 92, 0
4, 20600, Note_on_c, 2, 97, 94
4, 20618, Note_on_c, 2, 97, 0
4, 20620, Note_on_c, 2, 99, 96
4, 20638, Note_on_c, 2, 99, 0
4, 20640, Note_on_c, 2, 101, 97
4, 20658, Note_on_c, 2, 101, 0
4, 20660, Note_on_c, 2, 99, 95
4, 20678, Note_on_c, 2, 99, 0
4, 20680, Note_on_c, 2, 97, 93
4, 20698, Note_on_c, 2, 97, 0
4, 20700, Note_on_c, 2, 92, 91
4, 20718, Note_on_c, 2, 92, 0
4, 20720, Note_on_c, 2, 90, 89
4, 20738, Note_on_c, 2, 90, 0
4, 20740, Note_on_c, 2, 87, 87
4, 20758, Note_on_c, 2, 87, 0
4, 20760, Note_on_c, 2, 85, 85
4, 20778, Note_on_c, 2, 85, 0
4, 20780, Note_on_c, 2, 87, 83
4, 20798, Note_on_c, 2, 87, 0
4, 20800, Note_on_c, 2, 90, 81
4, 20818, Note_on_c, 2, 90, 0
4, 20820, Note_on_c, 2, 92, 79
4, 20838, Note_on_c, 2, 92, 0
4, 20840, Note_on_c, 2, 97, 77
4, 20858, Note_on_c, 2, 97, 0
4, 20860, Note_on_c, 2, 99, 75
4, 20878, Note_on_c, 2, 99, 0
4, 20880, Note_on_c, 2, 101, 73
4, 20898, Note_on_c, 2, 101, 0
4, 20900, Note_on_c, 2, 99, 71
4, 20918, Note_on_c, 2, 99, 0
4, 20920, Note_on_c, 2, 97, 69
4, 20938, Note_on_c, 2, 97, 0
4, 20940, Note_on_c, 2, 92, 67
4, 20958, Note_on_c, 2, 92, 0
4, 20960, Note_on_c, 2, 90, 65
4, 20978, Note_on_c, 2, 90, 0
4, 20980, Note_on_c, 2, 87, 64
4, 20998, Note_on_c, 2, 87, 0
4, 21000, Note_on_c, 2, 85, 62
4, 21018, Note_on_c, 2, 85, 0
4, 21020, Note_on_c, 2, 87, 60
4, 21038, Note_on_c, 2, 87, 0
4, 21040, Note_on_c, 2, 90, 58
4, 21058, Note_on_c, 2, 90, 0
4, 21060, Note_on_c, 2, 92, 56
4, 21078, Note_on_c, 2, 92, 0
4, 21080, Note_on_c, 2, 97, 54
4, 21098, Note_on_c, 2, 97, 0
4, 21100, Note_on_c, 2, 99, 52
4, 21118, Note_on_c, 2, 99, 0
4, 21120, Note_on_c, 2, 101, 50
4, 21138, Note_on_c, 2, 101, 0
4, 21140, Note_on_c, 2, 99, 48
4, 21158, Note_on_c, 2, 99, 0
4, 21160, Note_on_c, 2, 97, 46
4, 21178, Note_on_c, 2, 97, 0
4, 21180, Note_on_c, 2, 92, 44
4, 21198, Note_on_c, 2, 92, 0
4, 21200, Note_on_c, 2, 90, 42
4, 21218, Note_on_c, 2, 90, 0
4, 21220, Note_on_c, 2, 87, 40
4, 21238, Note_on_c, 2, 87, 0
4, 21240, Note_on_c, 2, 85, 38
4, 21258, Note_on_c, 2, 85, 0
4, 21260, Note_on_c, 2, 87, 36
4, 21278, Note_on_c, 2, 87, 0
4, 21280, Note_on_c, 2, 90, 34
4, 21298, Note_on_c, 2, 90, 0
4, 21300, Note_on_c, 2, 92, 32
4, 21318, Note_on_c, 2, 92, 0
4, 21320, Note_on_c, 2, 97, 30
4, 21338, Note_on_c, 2, 97, 0
4, 21340, Note_on_c, 2, 99, 28
4, 21358, Note_on_c, 2, 99, 0
4, 21360, Note_on_c, 2, 101, 26
4, 21378, Note_on_c, 2, 101, 0
4, 21380, Note_on_c, 2, 99, 24
4, 21398, Note_on_c, 2, 99, 0
4, 21400, Note_on_c, 2, 97, 22
4, 21418, Note_on_c, 2, 97, 0
4, 21420, Note_on_c, 2, 92, 20
4, 21438, Note_on_c, 2, 92, 0
4, 21440, Note_on_c, 2, 90, 18
4, 21458, Note_on_c, 2, 90, 0
4, 21460, Note_on_c, 2, 87, 16
4, 21478, Note_on_c, 2, 87, 0
4, 21480, Note_on_c, 2, 85, 14
4, 21498, Note_on_c, 2, 85, 0
4, 21500, Note_on_c, 2, 87, 12
4, 21518, Note_on_c, 2, 87, 0
4, 21520, Note_on_c, 2, 90, 10
4, 21538, Note_on_c, 2, 90, 0
4, 21540, Note_on_c, 2, 92, 8
4, 21558, Note_on_c, 2, 92, 0
4, 21560, Note_on_c, 2, 97, 6
4, 21578, Note_on_c, 2, 97, 0
4, 21580, Note_on_c, 2, 99, 4
4, 21598, Note_on_c, 2, 99, 0
4, 21598, End_track
5, 0, Start_track
5, 0, Title_t, "A4-Ocarina     "
5, 104, Control_c, 3, 91, 50
5, 105, Control_c, 3, 93, 0
5, 106, Control_c, 3, 94, 10
5, 109, Control_c, 3, 99, 1
5, 109, Control_c, 3, 98, 102
5, 109, Control_c, 3, 6, 61
5, 109, Control_c, 3, 38, 0
5, 135, Control_c, 3, 0, 0
5, 136, Control_c, 3, 32, 3
5, 137, Program_c, 3, 79
5, 138, Control_c, 3, 7, 110
5, 138, Control_c, 3, 10, 64
5, 930, Control_c, 3, 99, 1
5, 930, Control_c, 3, 98, 102
5, 930, Control_c, 3, 6, 61
5, 930, Control_c, 3, 38, 127
5, 1200, Note_on_c, 3, 63, 54
5, 1236, Note_on_c, 3, 63, 0
5, 1240, Note_on_c, 3, 66, 61
5, 1276, Note_on_c, 3, 66, 0
5, 1280, Note_on_c, 3, 68, 68
5, 1316, Note_on_c, 3, 68, 0
5, 1320, Note_on_c, 3, 71, 75
5, 1356, Note_on_c, 3, 71, 0
5, 1360, Note_on_c, 3, 73, 82
5, 1396, Note_on_c, 3, 73, 0
5, 1400, Note_on_c, 3, 75, 89
5, 1436, Note_on_c, 3, 75, 0
5, 1520, Note_on_c, 3, 75, 82
5, 1549, Note_on_c, 3, 75, 0
5, 1590, Control_c, 3, 10, 32
5, 1600, Note_on_c, 3, 75, 68
5, 1629, Note_on_c, 3, 75, 0
5, 1740, Control_c, 3, 10, 65
5, 1760, Note_on_c, 3, 75, 82
5, 1789, Note_on_c, 3, 75, 0
5, 1840, Note_on_c, 3, 75, 69
5, 1843, Control_c, 3, 10, 32
5, 1869, Note_on_c, 3, 75, 0
5, 1986, Control_c, 3, 10, 65
5, 2000, Note_on_c, 3, 75, 82
5, 2029, Note_on_c, 3, 75, 0
5, 2080, Control_c, 3, 10, 32
5, 2080, Note_on_c, 3, 75, 70
5, 2109, Note_on_c, 3, 75, 0
5, 2223, Control_c, 3, 10, 64
5, 2240, Note_on_c, 3, 75, 82
5, 2269, Note_on_c, 3, 75, 0
5, 2320, Note_on_c, 3, 75, 68
5, 2326, Control_c, 3, 10, 31
5, 2349, Note_on_c, 3, 75, 0
5, 2466, Control_c, 3, 10, 63
5, 2480, Note_on_c, 3, 73, 82
5, 2509, Note_on_c, 3, 73, 0
5, 2533, Control_c, 3, 10, 32
5, 2560, Note_on_c, 3, 69, 57
5, 2580, Note_on_c, 3, 69, 0
5, 2580, Note_on_c, 3, 71, 57
5, 2600, Note_on_c, 3, 71, 0
5, 2600, Note_on_c, 3, 73, 57
5, 2620, Note_on_c, 3, 73, 0
5, 2713, Control_c, 3, 10, 63
5, 2720, Note_on_c, 3, 73, 82
5, 2749, Note_on_c, 3, 73, 0
5, 2783, Control_c, 3, 10, 32
5, 2800, Note_on_c, 3, 69, 57
5, 2820, Note_on_c, 3, 69, 0
5, 2820, Note_on_c, 3, 71, 57
5, 2840, Note_on_c, 3, 71, 0
5, 2840, Note_on_c, 3, 73, 57
5, 2860, Note_on_c, 3, 73, 0
5, 2943, Control_c, 3, 10, 63
5, 2960, Note_on_c, 3, 73, 82
5, 2989, Note_on_c, 3, 73, 0
5, 3033, Control_c, 3, 10, 32
5, 3040, Note_on_c, 3, 69, 55
5, 3060, Note_on_c, 3, 69, 0
5, 3060, Note_on_c, 3, 71, 55
5, 3080, Note_on_c, 3, 71, 0
5, 3080, Note_on_c, 3, 73, 55
5, 3100, Note_on_c, 3, 73, 0
5, 3180, Control_c, 3, 10, 63
5, 3200, Note_on_c, 3, 73, 82
5, 3229, Note_on_c, 3, 73, 0
5, 3263, Control_c, 3, 10, 32
5, 3280, Note_on_c, 3, 69, 57
5, 3300, Note_on_c, 3, 69, 0
5, 3300, Note_on_c, 3, 71, 57
5, 3320, Note_on_c, 3, 71, 0
5, 3320, Note_on_c, 3, 73, 57
5, 3340, Note_on_c, 3, 73, 0
5, 3426, Control_c, 3, 10, 63
5, 3440, Note_on_c, 3, 73, 82
5, 3469, Note_on_c, 3, 73, 0
5, 3510, Control_c, 3, 10, 32
5, 3520, Note_on_c, 3, 73, 68
5, 3549, Note_on_c, 3, 73, 0
5, 3660, Control_c, 3, 10, 65
5, 3680, Note_on_c, 3, 73, 82
5, 3709, Note_on_c, 3, 73, 0
5, 3760, Note_on_c, 3, 73, 69
5, 3763, Control_c, 3, 10, 32
5, 3789, Note_on_c, 3, 73, 0
5, 3906, Control_c, 3, 10, 65
5, 3920, Note_on_c, 3, 73, 82
5, 3949, Note_on_c, 3, 73, 0
5, 4000, Control_c, 3, 10, 32
5, 4000, Note_on_c, 3, 73, 70
5, 4029, Note_on_c, 3, 73, 0
5, 4143, Control_c, 3, 10, 64
5, 4160, Note_on_c, 3, 73, 82
5, 4189, Note_on_c, 3, 73, 0
5, 4240, Note_on_c, 3, 73, 68
5, 4246, Control_c, 3, 10, 31
5, 4269, Note_on_c, 3, 73, 0
5, 4386, Control_c, 3, 10, 63
5, 4400, Note_on_c, 3, 73, 82
5, 4429, Note_on_c, 3, 73, 0
5, 4470, Control_c, 3, 10, 32
5, 4480, Note_on_c, 3, 73, 68
5, 4509, Note_on_c, 3, 73, 0
5, 4620, Control_c, 3, 10, 65
5, 4640, Note_on_c, 3, 73, 82
5, 4669, Note_on_c, 3, 73, 0
5, 4720, Note_on_c, 3, 73, 69
5, 4723, Control_c, 3, 10, 32
5, 4749, Note_on_c, 3, 73, 0
5, 4866, Control_c, 3, 10, 65
5, 4880, Note_on_c, 3, 73, 82
5, 4909, Note_on_c, 3, 73, 0
5, 4960, Control_c, 3, 10, 32
5, 4960, Note_on_c, 3, 73, 70
5, 4989, Note_on_c, 3, 73, 0
5, 5103, Control_c, 3, 10, 64
5, 5120, Note_on_c, 3, 73, 82
5, 5149, Note_on_c, 3, 73, 0
5, 5200, Note_on_c, 3, 73, 68
5, 5206, Control_c, 3, 10, 31
5, 5229, Note_on_c, 3, 73, 0
5, 5346, Control_c, 3, 10, 63
5, 5360, Note_on_c, 3, 69, 82
5, 5389, Note_on_c, 3, 69, 0
5, 5430, Control_c, 3, 10, 32
5, 5440, Note_on_c, 3, 69, 68
5, 5469, Note_on_c, 3, 69, 0
5, 5580, Control_c, 3, 10, 65
5, 5600, Note_on_c, 3, 69, 82
5, 5629, Note_on_c, 3, 69, 0
5, 5680, Note_on_c, 3, 69, 69
5, 5683, Control_c, 3, 10, 32
5, 5709, Note_on_c, 3, 69, 0
5, 5826, Control_c, 3, 10, 65
5, 5840, Note_on_c, 3, 69, 82
5, 5869, Note_on_c, 3, 69, 0
5, 5920, Control_c, 3, 10, 32
5, 5920, Note_on_c, 3, 69, 70
5, 5949, Note_on_c, 3, 69, 0
5, 6063, Control_c, 3, 10, 64
5, 6080, Note_on_c, 3, 69, 82
5, 6109, Note_on_c, 3, 69, 0
5, 6160, Note_on_c, 3, 69, 68
5, 6166, Control_c, 3, 10, 31
5, 6189, Note_on_c, 3, 69, 0
5, 6230, Control_c, 3, 10, 63
5, 6240, Note_on_c, 3, 73, 110
5, 6960, Note_on_c, 3, 73, 0
5, 6960, Note_on_c, 3, 71, 110
5, 7040, Note_on_c, 3, 71, 0
5, 7040, Note_on_c, 3, 73, 110
5, 7120, Note_on_c, 3, 73, 0
5, 7120, Note_on_c, 3, 69, 110
5, 7200, Note_on_c, 3, 69, 0
5, 7200, Note_on_c, 3, 69, 110
5, 7920, Note_on_c, 3, 69, 0
5, 7920, Note_on_c, 3, 67, 110
5, 8080, Note_on_c, 3, 67, 0
5, 8080, Note_on_c, 3, 66, 110
5, 8160, Note_on_c, 3, 66, 0
5, 8160, Note_on_c, 3, 71, 110
5, 8880, Note_on_c, 3, 71, 0
5, 8880, Note_on_c, 3, 69, 110
5, 8960, Note_on_c, 3, 69, 0
5, 8960, Note_on_c, 3, 71, 110
5, 9040, Note_on_c, 3, 71, 0
5, 9040, Note_on_c, 3, 67, 110
5, 9120, Note_on_c, 3, 67, 0
5, 9120, Note_on_c, 3, 64, 110
5, 9595, Control_c, 3, 11, 127
5, 9610, Control_c, 3, 11, 126
5, 9620, Control_c, 3, 11, 125
5, 9630, Control_c, 3, 11, 124
5, 9645, Control_c, 3, 11, 123
5, 9655, Control_c, 3, 11, 122
5, 9665, Control_c, 3, 11, 121
5, 9680, Control_c, 3, 11, 120
5, 9690, Control_c, 3, 11, 119
5, 9700, Control_c, 3, 11, 118
5, 9715, Control_c, 3, 11, 117
5, 9725, Control_c, 3, 11, 116
5, 9735, Control_c, 3, 11, 115
5, 9745, Control_c, 3, 11, 114
5, 9760, Control_c, 3, 11, 113
5, 9770, Control_c, 3, 11, 112
5, 9780, Control_c, 3, 11, 111
5, 9795, Control_c, 3, 11, 110
5, 9805, Control_c, 3, 11, 109
5, 9815, Control_c, 3, 11, 108
5, 9830, Control_c, 3, 11, 107
5, 9840, Control_c, 3, 11, 106
5, 9850, Control_c, 3, 11, 105
5, 9865, Control_c, 3, 11, 104
5, 9875, Control_c, 3, 11, 103
5, 9885, Control_c, 3, 11, 102
5, 9895, Control_c, 3, 11, 101
5, 9910, Control_c, 3, 11, 100
5, 9920, Control_c, 3, 11, 99
5, 9930, Control_c, 3, 11, 98
5, 9945, Control_c, 3, 11, 97
5, 9955, Control_c, 3, 11, 96
5, 9960, Control_c, 3, 11, 97
5, 9970, Control_c, 3, 11, 96
5, 9975, Control_c, 3, 11, 95
5, 9980, Control_c, 3, 11, 94
5, 9985, Control_c, 3, 11, 93
5, 9990, Control_c, 3, 11, 92
5, 9995, Control_c, 3, 11, 91
5, 10000, Control_c, 3, 11, 90
5, 10005, Control_c, 3, 11, 89
5, 10010, Control_c, 3, 11, 88
5, 10020, Control_c, 3, 11, 87
5, 10025, Control_c, 3, 11, 86
5, 10030, Control_c, 3, 11, 85
5, 10035, Control_c, 3, 11, 84
5, 10040, Control_c, 3, 11, 83
5, 10045, Control_c, 3, 11, 82
5, 10050, Control_c, 3, 11, 81
5, 10055, Control_c, 3, 11, 80
5, 10060, Control_c, 3, 11, 79
5, 10065, Control_c, 3, 11, 78
5, 10075, Control_c, 3, 11, 77
5, 10080, Control_c, 3, 11, 76
5, 10085, Control_c, 3, 11, 75
5, 10090, Control_c, 3, 11, 74
5, 10095, Control_c, 3, 11, 73
5, 10100, Control_c, 3, 11, 72
5, 10105, Control_c, 3, 11, 71
5, 10110, Control_c, 3, 11, 70
5, 10115, Control_c, 3, 11, 69
5, 10120, Control_c, 3, 11, 68
5, 10130, Control_c, 3, 11, 67
5, 10135, Control_c, 3, 11, 66
5, 10140, Control_c, 3, 11, 65
5, 10145, Control_c, 3, 11, 64
5, 10150, Control_c, 3, 11, 63
5, 10155, Control_c, 3, 11, 62
5, 10160, Control_c, 3, 11, 61
5, 10165, Control_c, 3, 11, 60
5, 10170, Control_c, 3, 11, 59
5, 10180, Control_c, 3, 11, 58
5, 10185, Control_c, 3, 11, 57
5, 10190, Control_c, 3, 11, 56
5, 10195, Control_c, 3, 11, 55
5, 10200, Control_c, 3, 11, 54
5, 10205, Control_c, 3, 11, 53
5, 10210, Control_c, 3, 11, 52
5, 10215, Control_c, 3, 11, 51
5, 10220, Control_c, 3, 11, 50
5, 10225, Control_c, 3, 11, 49
5, 10235, Control_c, 3, 11, 48
5, 10240, Control_c, 3, 11, 47
5, 10245, Control_c, 3, 11, 46
5, 10250, Control_c, 3, 11, 45
5, 10255, Control_c, 3, 11, 44
5, 10260, Control_c, 3, 11, 43
5, 10265, Control_c, 3, 11, 42
5, 10270, Control_c, 3, 11, 41
5, 10275, Control_c, 3, 11, 40
5, 10280, Control_c, 3, 11, 39
5, 10290, Control_c, 3, 11, 38
5, 10295, Control_c, 3, 11, 37
5, 10300, Control_c, 3, 11, 36
5, 10305, Control_c, 3, 11, 35
5, 10310, Control_c, 3, 11, 34
5, 10315, Control_c, 3, 11, 33
5, 10320, Control_c, 3, 11, 32
5, 10325, Control_c, 3, 11, 31
5, 10330, Control_c, 3, 11, 30
5, 10340, Control_c, 3, 11, 29
5, 10345, Control_c, 3, 11, 28
5, 10350, Control_c, 3, 11, 27
5, 10355, Control_c, 3, 11, 26
5, 10360, Control_c, 3, 11, 25
5, 10365, Control_c, 3, 11, 24
5, 10370, Control_c, 3, 11, 23
5, 10375, Control_c, 3, 11, 22
5, 10380, Control_c, 3, 11, 21
5, 10385, Control_c, 3, 11, 20
5, 10395, Control_c, 3, 11, 19
5, 10400, Control_c, 3, 11, 18
5, 10405, Control_c, 3, 11, 17
5, 10410, Control_c, 3, 11, 16
5, 10415, Control_c, 3, 11, 15
5, 10420, Control_c, 3, 11, 14
5, 10425, Control_c, 3, 11, 13
5, 10430, Control_c, 3, 11, 12
5, 10435, Control_c, 3, 11, 11
5, 10440, Note_on_c, 3, 64, 0
5, 10440, Control_c, 3, 11, 10
5, 10746, Control_c, 3, 10, 64
5, 10770, Control_c, 3, 11, 127
5, 10800, Note_on_c, 3, 63, 54
5, 10836, Note_on_c, 3, 63, 0
5, 10840, Note_on_c, 3, 66, 61
5, 10876, Note_on_c, 3, 66, 0
5, 10880, Note_on_c, 3, 68, 68
5, 10916, Note_on_c, 3, 68, 0
5, 10920, Note_on_c, 3, 71, 75
5, 10956, Note_on_c, 3, 71, 0
5, 10960, Note_on_c, 3, 73, 82
5, 10996, Note_on_c, 3, 73, 0
5, 11000, Note_on_c, 3, 75, 89
5, 11036, Note_on_c, 3, 75, 0
5, 11120, Note_on_c, 3, 75, 82
5, 11149, Note_on_c, 3, 75, 0
5, 11190, Control_c, 3, 10, 32
5, 11200, Note_on_c, 3, 75, 68
5, 11229, Note_on_c, 3, 75, 0
5, 11340, Control_c, 3, 10, 65
5, 11360, Note_on_c, 3, 75, 82
5, 11389, Note_on_c, 3, 75, 0
5, 11440, Note_on_c, 3, 75, 69
5, 11443, Control_c, 3, 10, 32
5, 11469, Note_on_c, 3, 75, 0
5, 11586, Control_c, 3, 10, 65
5, 11600, Note_on_c, 3, 75, 82
5, 11629, Note_on_c, 3, 75, 0
5, 11680, Control_c, 3, 10, 32
5, 11680, Note_on_c, 3, 75, 70
5, 11709, Note_on_c, 3, 75, 0
5, 11823, Control_c, 3, 10, 64
5, 11840, Note_on_c, 3, 75, 82
5, 11869, Note_on_c, 3, 75, 0
5, 11920, Note_on_c, 3, 75, 68
5, 11926, Control_c, 3, 10, 31
5, 11949, Note_on_c, 3, 75, 0
5, 12066, Control_c, 3, 10, 63
5, 12080, Note_on_c, 3, 73, 82
5, 12109, Note_on_c, 3, 73, 0
5, 12133, Control_c, 3, 10, 32
5, 12160, Note_on_c, 3, 69, 57
5, 12180, Note_on_c, 3, 69, 0
5, 12180, Note_on_c, 3, 71, 57
5, 12200, Note_on_c, 3, 71, 0
5, 12200, Note_on_c, 3, 73, 57
5, 12220, Note_on_c, 3, 73, 0
5, 12313, Control_c, 3, 10, 63
5, 12320, Note_on_c, 3, 73, 82
5, 12349, Note_on_c, 3, 73, 0
5, 12383, Control_c, 3, 10, 32
5, 12400, Note_on_c, 3, 69, 57
5, 12420, Note_on_c, 3, 69, 0
5, 12420, Note_on_c, 3, 71, 57
5, 12440, Note_on_c, 3, 71, 0
5, 12440, Note_on_c, 3, 73, 57
5, 12460, Note_on_c, 3, 73, 0
5, 12543, Control_c, 3, 10, 63
5, 12560, Note_on_c, 3, 73, 82
5, 12589, Note_on_c, 3, 73, 0
5, 12633, Control_c, 3, 10, 32
5, 12640, Note_on_c, 3, 69, 55
5, 12660, Note_on_c, 3, 69, 0
5, 12660, Note_on_c, 3, 71, 55
5, 12680, Note_on_c, 3, 71, 0
5, 12680, Note_on_c, 3, 73, 55
5, 12700, Note_on_c, 3, 73, 0
5, 12780, Control_c, 3, 10, 63
5, 12800, Note_on_c, 3, 73, 82
5, 12829, Note_on_c, 3, 73, 0
5, 12863, Control_c, 3, 10, 32
5, 12880, Note_on_c, 3, 69, 57
5, 12900, Note_on_c, 3, 69, 0
5, 12900, Note_on_c, 3, 71, 57
5, 12920, Note_on_c, 3, 71, 0
5, 12920, Note_on_c, 3, 73, 57
5, 12940, Note_on_c, 3, 73, 0
5, 13026, Control_c, 3, 10, 63
5, 13040, Note_on_c, 3, 73, 82
5, 13069, Note_on_c, 3, 73, 0
5, 13110, Control_c, 3, 10, 32
5, 13120, Note_on_c, 3, 73, 68
5, 13149, Note_on_c, 3, 73, 0
5, 13260, Control_c, 3, 10, 65
5, 13280, Note_on_c, 3, 73, 82
5, 13309, Note_on_c, 3, 73, 0
5, 13360, Note_on_c, 3, 73, 69
5, 13363, Control_c, 3, 10, 32
5, 13389, Note_on_c, 3, 73, 0
5, 13506, Control_c, 3, 10, 65
5, 13520, Note_on_c, 3, 73, 82
5, 13549, Note_on_c, 3, 73, 0
5, 13600, Control_c, 3, 10, 32
5, 13600, Note_on_c, 3, 73, 70
5, 13629, Note_on_c, 3, 73, 0
5, 13743, Control_c, 3, 10, 64
5, 13760, Note_on_c, 3, 73, 82
5, 13789, Note_on_c, 3, 73, 0
5, 13840, Note_on_c, 3, 73, 68
5, 13846, Control_c, 3, 10, 31
5, 13869, Note_on_c, 3, 73, 0
5, 13986, Control_c, 3, 10, 63
5, 14000, Note_on_c, 3, 73, 82
5, 14029, Note_on_c, 3, 73, 0
5, 14070, Control_c, 3, 10, 32
5, 14080, Note_on_c, 3, 73, 68
5, 14109, Note_on_c, 3, 73, 0
5, 14220, Control_c, 3, 10, 65
5, 14240, Note_on_c, 3, 73, 82
5, 14269, Note_on_c, 3, 73, 0
5, 14320, Note_on_c, 3, 73, 69
5, 14323, Control_c, 3, 10, 32
5, 14349, Note_on_c, 3, 73, 0
5, 14466, Control_c, 3, 10, 65
5, 14480, Note_on_c, 3, 73, 82
5, 14509, Note_on_c, 3, 73, 0
5, 14560, Control_c, 3, 10, 32
5, 14560, Note_on_c, 3, 73, 70
5, 14589, Note_on_c, 3, 73, 0
5, 14703, Control_c, 3, 10, 64
5, 14720, Note_on_c, 3, 73, 82
5, 14749, Note_on_c, 3, 73, 0
5, 14800, Note_on_c, 3, 73, 68
5, 14806, Control_c, 3, 10, 31
5, 14829, Note_on_c, 3, 73, 0
5, 14946, Control_c, 3, 10, 63
5, 14960, Note_on_c, 3, 69, 82
5, 14989, Note_on_c, 3, 69, 0
5, 15030, Control_c, 3, 10, 32
5, 15040, Note_on_c, 3, 69, 68
5, 15069, Note_on_c, 3, 69, 0
5, 15180, Control_c, 3, 10, 65
5, 15200, Note_on_c, 3, 69, 82
5, 15229, Note_on_c, 3, 69, 0
5, 15280, Note_on_c, 3, 69, 69
5, 15283, Control_c, 3, 10, 32
5, 15309, Note_on_c, 3, 69, 0
5, 15426, Control_c, 3, 10, 65
5, 15440, Note_on_c, 3, 69, 82
5, 15469, Note_on_c, 3, 69, 0
5, 15520, Control_c, 3, 10, 32
5, 15520, Note_on_c, 3, 69, 70
5, 15549, Note_on_c, 3, 69, 0
5, 15663, Control_c, 3, 10, 64
5, 15680, Note_on_c, 3, 69, 82
5, 15709, Note_on_c, 3, 69, 0
5, 15760, Note_on_c, 3, 69, 68
5, 15766, Control_c, 3, 10, 31
5, 15789, Note_on_c, 3, 69, 0
5, 15830, Control_c, 3, 10, 63
5, 15840, Note_on_c, 3, 73, 110
5, 16560, Note_on_c, 3, 73, 0
5, 16560, Note_on_c, 3, 71, 110
5, 16640, Note_on_c, 3, 71, 0
5, 16640, Note_on_c, 3, 73, 110
5, 16720, Note_on_c, 3, 73, 0
5, 16720, Note_on_c, 3, 69, 110
5, 16800, Note_on_c, 3, 69, 0
5, 16800, Note_on_c, 3, 69, 110
5, 17520, Note_on_c, 3, 69, 0
5, 17520, Note_on_c, 3, 67, 110
5, 17680, Note_on_c, 3, 67, 0
5, 17680, Note_on_c, 3, 66, 110
5, 17760, Note_on_c, 3, 66, 0
5, 17760, Note_on_c, 3, 71, 110
5, 18480, Note_on_c, 3, 71, 0
5, 18480, Note_on_c, 3, 69, 110
5, 18560, Note_on_c, 3, 69, 0
5, 18560, Note_on_c, 3, 71, 110
5, 18640, Note_on_c, 3, 71, 0
5, 18640, Note_on_c, 3, 67, 110
5, 18720, Note_on_c, 3, 67, 0
5, 18720, Note_on_c, 3, 64, 110
5, 19195, Control_c, 3, 11, 127
5, 19210, Control_c, 3, 11, 126
5, 19220, Control_c, 3, 11, 125
5, 19230, Control_c, 3, 11, 124
5, 19245, Control_c, 3, 11, 123
5, 19255, Control_c, 3, 11, 122
5, 19265, Control_c, 3, 11, 121
5, 19280, Control_c, 3, 11, 120
5, 19290, Control_c, 3, 11, 119
5, 19300, Control_c, 3, 11, 118
5, 19315, Control_c, 3, 11, 117
5, 19325, Control_c, 3, 11, 116
5, 19335, Control_c, 3, 11, 115
5, 19345, Control_c, 3, 11, 114
5, 19360, Control_c, 3, 11, 113
5, 19370, Control_c, 3, 11, 112
5, 19380, Control_c, 3, 11, 111
5, 19395, Control_c, 3, 11, 110
5, 19405, Control_c, 3, 11, 109
5, 19415, Control_c, 3, 11, 108
5, 19430, Control_c, 3, 11, 107
5, 19440, Control_c, 3, 11, 106
5, 19450, Control_c, 3, 11, 105
5, 19465, Control_c, 3, 11, 104
5, 19475, Control_c, 3, 11, 103
5, 19485, Control_c, 3, 11, 102
5, 19495, Control_c, 3, 11, 101
5, 19510, Control_c, 3, 11, 100
5, 19520, Control_c, 3, 11, 99
5, 19530, Control_c, 3, 11, 98
5, 19545, Control_c, 3, 11, 97
5, 19555, Control_c, 3, 11, 96
5, 19560, Control_c, 3, 11, 97
5, 19570, Control_c, 3, 11, 96
5, 19575, Control_c, 3, 11, 95
5, 19580, Control_c, 3, 11, 94
5, 19585, Control_c, 3, 11, 93
5, 19590, Control_c, 3, 11, 92
5, 19595, Control_c, 3, 11, 91
5, 19600, Control_c, 3, 11, 90
5, 19605, Control_c, 3, 11, 89
5, 19610, Control_c, 3, 11, 88
5, 19620, Control_c, 3, 11, 87
5, 19625, Control_c, 3, 11, 86
5, 19630, Control_c, 3, 11, 85
5, 19635, Control_c, 3, 11, 84
5, 19640, Control_c, 3, 11, 83
5, 19645, Control_c, 3, 11, 82
5, 19650, Control_c, 3, 11, 81
5, 19655, Control_c, 3, 11, 80
5, 19660, Control_c, 3, 11, 79
5, 19665, Control_c, 3, 11, 78
5, 19675, Control_c, 3, 11, 77
5, 19680, Control_c, 3, 11, 76
5, 19685, Control_c, 3, 11, 75
5, 19690, Control_c, 3, 11, 74
5, 19695, Control_c, 3, 11, 73
5, 19700, Control_c, 3, 11, 72
5, 19705, Control_c, 3, 11, 71
5, 19710, Control_c, 3, 11, 70
5, 19715, Control_c, 3, 11, 69
5, 19720, Control_c, 3, 11, 68
5, 19730, Control_c, 3, 11, 67
5, 19735, Control_c, 3, 11, 66
5, 19740, Control_c, 3, 11, 65
5, 19745, Control_c, 3, 11, 64
5, 19750, Control_c, 3, 11, 63
5, 19755, Control_c, 3, 11, 62
5, 19760, Control_c, 3, 11, 61
5, 19765, Control_c, 3, 11, 60
5, 19770, Control_c, 3, 11, 59
5, 19780, Control_c, 3, 11, 58
5, 19785, Control_c, 3, 11, 57
5, 19790, Control_c, 3, 11, 56
5, 19795, Control_c, 3, 11, 55
5, 19800, Control_c, 3, 11, 54
5, 19805, Control_c, 3, 11, 53
5, 19810, Control_c, 3, 11, 52
5, 19815, Control_c, 3, 11, 51
5, 19820, Control_c, 3, 11, 50
5, 19825, Control_c, 3, 11, 49
5, 19835, Control_c, 3, 11, 48
5, 19840, Control_c, 3, 11, 47
5, 19845, Control_c, 3, 11, 46
5, 19850, Control_c, 3, 11, 45
5, 19855, Control_c, 3, 11, 44
5, 19860, Control_c, 3, 11, 43
5, 19865, Control_c, 3, 11, 42
5, 19870, Control_c, 3, 11, 41
5, 19875, Control_c, 3, 11, 40
5, 19880, Control_c, 3, 11, 39
5, 19890, Control_c, 3, 11, 38
5, 19895, Control_c, 3, 11, 37
5, 19900, Control_c, 3, 11, 36
5, 19905, Control_c, 3, 11, 35
5, 19910, Control_c, 3, 11, 34
5, 19915, Control_c, 3, 11, 33
5, 19920, Control_c, 3, 11, 32
5, 19925, Control_c, 3, 11, 31
5, 19930, Control_c, 3, 11, 30
5, 19940, Control_c, 3, 11, 29
5, 19945, Control_c, 3, 11, 28
5, 19950, Control_c, 3, 11, 27
5, 19955, Control_c, 3, 11, 26
5, 19960, Control_c, 3, 11, 25
5, 19965, Control_c, 3, 11, 24
5, 19970, Control_c, 3, 11, 23
5, 19975, Control_c, 3, 11, 22
5, 19980, Control_c, 3, 11, 21
5, 19985, Control_c, 3, 11, 20
5, 19995, Control_c, 3, 11, 19
5, 20000, Control_c, 3, 11, 18
5, 20005, Control_c, 3, 11, 17
5, 20010, Control_c, 3, 11, 16
5, 20015, Control_c, 3, 11, 15
5, 20020, Control_c, 3, 11, 14
5, 20025, Control_c, 3, 11, 13
5, 20030, Control_c, 3, 11, 12
5, 20035, Control_c, 3, 11, 11
5, 20040, Note_on_c, 3, 64, 0
5, 20040, Control_c, 3, 11, 10
5, 20346, Control_c, 3, 10, 64
5, 20370, Control_c, 3, 11, 127
5, 20400, Note_on_c, 3, 63, 54
5, 20436, Note_on_c, 3, 63, 0
5, 20440, Note_on_c, 3, 66, 61
5, 20476, Note_on_c, 3, 66, 0
5, 20480, Note_on_c, 3, 68, 68
5, 20516, Note_on_c, 3, 68, 0
5, 20520, Note_on_c, 3, 71, 75
5, 20556, Note_on_c, 3, 71, 0
5, 20560, Note_on_c, 3, 73, 82
5, 20596, Note_on_c, 3, 73, 0
5, 20600, Note_on_c, 3, 75, 89
5, 20636, Note_on_c, 3, 75, 0
5, 20720, Note_on_c, 3, 75, 82
5, 20749, Note_on_c, 3, 75, 0
5, 20790, Control_c, 3, 10, 32
5, 20800, Note_on_c, 3, 75, 68
5, 20829, Note_on_c, 3, 75, 0
5, 20940, Control_c, 3, 10, 65
5, 20960, Note_on_c, 3, 75, 82
5, 20989, Note_on_c, 3, 75, 0
5, 21040, Note_on_c, 3, 75, 69
5, 21043, Control_c, 3, 10, 32
5, 21069, Note_on_c, 3, 75, 0
5, 21186, Control_c, 3, 10, 65
5, 21200, Note_on_c, 3, 75, 82
5, 21229, Note_on_c, 3, 75, 0
5, 21280, Control_c, 3, 10, 32
5, 21280, Note_on_c, 3, 75, 70
5, 21309, Note_on_c, 3, 75, 0
5, 21423, Control_c, 3, 10, 64
5, 21440, Note_on_c, 3, 75, 82
5, 21469, Note_on_c, 3, 75, 0
5, 21520, Note_on_c, 3, 75, 68
5, 21526, Control_c, 3, 10, 31
5, 21549, Note_on_c, 3, 75, 0
5, 21666, Control_c, 3, 10, 63
5, 21680, Note_on_c, 3, 73, 82
5, 21709, Note_on_c, 3, 73, 0
5, 21733, Control_c, 3, 10, 32
5, 21760, Note_on_c, 3, 69, 57
5, 21780, Note_on_c, 3, 69, 0
5, 21780, Note_on_c, 3, 71, 57
5, 21800, Note_on_c, 3, 71, 0
5, 21800, Note_on_c, 3, 73, 57
5, 21820, Note_on_c, 3, 73, 0
5, 21913, Control_c, 3, 10, 63
5, 21920, Note_on_c, 3, 73, 82
5, 21949, Note_on_c, 3, 73, 0
5, 21983, Control_c, 3, 10, 32
5, 22000, Note_on_c, 3, 69, 57
5, 22020, Note_on_c, 3, 69, 0
5, 22020, Note_on_c, 3, 71, 57
5, 22040, Note_on_c, 3, 71, 0
5, 22040, Note_on_c, 3, 73, 57
5, 22060, Note_on_c, 3, 73, 0
5, 22143, Control_c, 3, 10, 63
5, 22160, Note_on_c, 3, 73, 82
5, 22189, Note_on_c, 3, 73, 0
5, 22233, Control_c, 3, 10, 32
5, 22240, Note_on_c, 3, 69, 55
5, 22260, Note_on_c, 3, 69, 0
5, 22260, Note_on_c, 3, 71, 55
5, 22280, Note_on_c, 3, 71, 0
5, 22280, Note_on_c, 3, 73, 55
5, 22300, Note_on_c, 3, 73, 0
5, 22380, Control_c, 3, 10, 63
5, 22400, Note_on_c, 3, 73, 82
5, 22429, Note_on_c, 3, 73, 0
5, 22463, Control_c, 3, 10, 32
5, 22480, Note_on_c, 3, 69, 57
5, 22500, Note_on_c, 3, 69, 0
5, 22500, Note_on_c, 3, 71, 57
5, 22520, Note_on_c, 3, 71, 0
5, 22520, Note_on_c, 3, 73, 57
5, 22540, Note_on_c, 3, 73, 0
5, 22626, Control_c, 3, 10, 63
5, 22640, Note_on_c, 3, 73, 82
5, 22669, Note_on_c, 3, 73, 0
5, 22710, Control_c, 3, 10, 32
5, 22720, Note_on_c, 3, 73, 68
5, 22749, Note_on_c, 3, 73, 0
5, 22860, Control_c, 3, 10, 65
5, 22880, Note_on_c, 3, 73, 82
5, 22909, Note_on_c, 3, 73, 0
5, 22960, Note_on_c, 3, 73, 69
5, 22963, Control_c, 3, 10, 32
5, 22989, Note_on_c, 3, 73, 0
5, 23106, Control_c, 3, 10, 65
5, 23120, Note_on_c, 3, 73, 82
5, 23149, Note_on_c, 3, 73, 0
5, 23200, Control_c, 3, 10, 32
5, 23200, Note_on_c, 3, 73, 70
5, 23229, Note_on_c, 3, 73, 0
5, 23343, Control_c, 3, 10, 64
5, 23360, Note_on_c, 3, 73, 82
5, 23389, Note_on_c, 3, 73, 0
5, 23440, Note_on_c, 3, 73, 68
5, 23446, Control_c, 3, 10, 31
5, 23469, Note_on_c, 3, 73, 0
5, 23586, Control_c, 3, 10, 63
5, 23600, Note_on_c, 3, 73, 82
5, 23629, Note_on_c, 3, 73, 0
5, 23670, Control_c, 3, 10, 32
5, 23680, Note_on_c, 3, 73, 68
5, 23709, Note_on_c, 3, 73, 0
5, 23820, Control_c, 3, 10, 65
5, 23840, Note_on_c, 3, 73, 82
5, 23869, Note_on_c, 3, 73, 0
5, 23920, Note_on_c, 3, 73, 69
5, 23923, Control_c, 3, 10, 32
5, 23949, Note_on_c, 3, 73, 0
5, 24066, Control_c, 3, 10, 65
5, 24080, Note_on_c, 3, 73, 82
5, 24109, Note_on_c, 3, 73, 0
5, 24160, Control_c, 3, 10, 32
5, 24160, Note_on_c, 3, 73, 70
5, 24189, Note_on_c, 3, 73, 0
5, 24303, Control_c, 3, 10, 64
5, 24320, Note_on_c, 3, 73, 82
5, 24349, Note_on_c, 3, 73, 0
5, 24400, Note_on_c, 3, 73, 68
5, 24406, Control_c, 3, 10, 31
5, 24429, Note_on_c, 3, 73, 0
5, 24546, Control_c, 3, 10, 63
5, 24560, Note_on_c, 3, 69, 82
5, 24589, Note_on_c, 3, 69, 0
5, 24630, Control_c, 3, 10, 32
5, 24640, Note_on_c, 3, 69, 68
5, 24669, Note_on_c, 3, 69, 0
5, 24780, Control_c, 3, 10, 65
5, 24800, Note_on_c, 3, 69, 82
5, 24829, Note_on_c, 3, 69, 0
5, 24880, Note_on_c, 3, 69, 69
5, 24883, Control_c, 3, 10, 32
5, 24909, Note_on_c, 3, 69, 0
5, 25026, Control_c, 3, 10, 65
5, 25040, Note_on_c, 3, 69, 82
5, 25069, Note_on_c, 3, 69, 0
5, 25120, Control_c, 3, 10, 32
5, 25120, Note_on_c, 3, 69, 70
5, 25149, Note_on_c, 3, 69, 0
5, 25263, Control_c, 3, 10, 64
5, 25280, Note_on_c, 3, 69, 82
5, 25309, Note_on_c, 3, 69, 0
5, 25360, Note_on_c, 3, 69, 68
5, 25366, Control_c, 3, 10, 31
5, 25389, Note_on_c, 3, 69, 0
5, 25430, Control_c, 3, 10, 63
5, 25440, Note_on_c, 3, 73, 110
5, 26160, Note_on_c, 3, 73, 0
5, 26160, Note_on_c, 3, 71, 110
5, 26240, Note_on_c, 3, 71, 0
5, 26240, Note_on_c, 3, 73, 110
5, 26320, Note_on_c, 3, 73, 0
5, 26320, Note_on_c, 3, 69, 110
5, 26400, Note_on_c, 3, 69, 0
5, 26400, Note_on_c, 3, 69, 110
5, 27120, Note_on_c, 3, 69, 0
5, 27120, Note_on_c, 3, 67, 110
5, 27280, Note_on_c, 3, 67, 0
5, 27280, Note_on_c, 3, 66, 110
5, 27360, Note_on_c, 3, 66, 0
5, 27360, Note_on_c, 3, 71, 110
5, 28080, Note_on_c, 3, 71, 0
5, 28080, Note_on_c, 3, 69, 110
5, 28160, Note_on_c, 3, 69, 0
5, 28160, Note_on_c, 3, 71, 110
5, 28240, Note_on_c, 3, 71, 0
5, 28240, Note_on_c, 3, 67, 110
5, 28320, Note_on_c, 3, 67, 0
5, 28320, Note_on_c, 3, 64, 110
5, 28795, Control_c, 3, 11, 127
5, 28810, Control_c, 3, 11, 126
5, 28820, Control_c, 3, 11, 125
5, 28830, Control_c, 3, 11, 124
5, 28845, Control_c, 3, 11, 123
5, 28855, Control_c, 3, 11, 122
5, 28865, Control_c, 3, 11, 121
5, 28880, Control_c, 3, 11, 120
5, 28890, Control_c, 3, 11, 119
5, 28900, Control_c, 3, 11, 118
5, 28915, Control_c, 3, 11, 117
5, 28925, Control_c, 3, 11, 116
5, 28935, Control_c, 3, 11, 115
5, 28945, Control_c, 3, 11, 114
5, 28960, Control_c, 3, 11, 113
5, 28970, Control_c, 3, 11, 112
5, 28980, Control_c, 3, 11, 111
5, 28995, Control_c, 3, 11, 110
5, 29005, Control_c, 3, 11, 109
5, 29015, Control_c, 3, 11, 108
5, 29030, Control_c, 3, 11, 107
5, 29040, Control_c, 3, 11, 106
5, 29050, Control_c, 3, 11, 105
5, 29065, Control_c, 3, 11, 104
5, 29075, Control_c, 3, 11, 103
5, 29085, Control_c, 3, 11, 102
5, 29095, Control_c, 3, 11, 101
5, 29110, Control_c, 3, 11, 100
5, 29120, Control_c, 3, 11, 99
5, 29130, Control_c, 3, 11, 98
5, 29145, Control_c, 3, 11, 97
5, 29155, Control_c, 3, 11, 96
5, 29160, Control_c, 3, 11, 97
5, 29170, Control_c, 3, 11, 96
5, 29175, Control_c, 3, 11, 95
5, 29180, Control_c, 3, 11, 94
5, 29185, Control_c, 3, 11, 93
5, 29190, Control_c, 3, 11, 92
5, 29195, Control_c, 3, 11, 91
5, 29200, Control_c, 3, 11, 90
5, 29205, Control_c, 3, 11, 89
5, 29210, Control_c, 3, 11, 88
5, 29220, Control_c, 3, 11, 87
5, 29225, Control_c, 3, 11, 86
5, 29230, Control_c, 3, 11, 85
5, 29235, Control_c, 3, 11, 84
5, 29240, Control_c, 3, 11, 83
5, 29245, Control_c, 3, 11, 82
5, 29250, Control_c, 3, 11, 81
5, 29255, Control_c, 3, 11, 80
5, 29260, Control_c, 3, 11, 79
5, 29265, Control_c, 3, 11, 78
5, 29275, Control_c, 3, 11, 77
5, 29280, Control_c, 3, 11, 76
5, 29285, Control_c, 3, 11, 75
5, 29290, Control_c, 3, 11, 74
5, 29295, Control_c, 3, 11, 73
5, 29300, Control_c, 3, 11, 72
5, 29305, Control_c, 3, 11, 71
5, 29310, Control_c, 3, 11, 70
5, 29315, Control_c, 3, 11, 69
5, 29320, Control_c, 3, 11, 68
5, 29330, Control_c, 3, 11, 67
5, 29335, Control_c, 3, 11, 66
5, 29340, Control_c, 3, 11, 65
5, 29345, Control_c, 3, 11, 64
5, 29350, Control_c, 3, 11, 63
5, 29355, Control_c, 3, 11, 62
5, 29360, Control_c, 3, 11, 61
5, 29365, Control_c, 3, 11, 60
5, 29370, Control_c, 3, 11, 59
5, 29380, Control_c, 3, 11, 58
5, 29385, Control_c, 3, 11, 57
5, 29390, Control_c, 3, 11, 56
5, 29395, Control_c, 3, 11, 55
5, 29400, Control_c, 3, 11, 54
5, 29405, Control_c, 3, 11, 53
5, 29410, Control_c, 3, 11, 52
5, 29415, Control_c, 3, 11, 51
5, 29420, Control_c, 3, 11, 50
5, 29425, Control_c, 3, 11, 49
5, 29435, Control_c, 3, 11, 48
5, 29440, Control_c, 3, 11, 47
5, 29445, Control_c, 3, 11, 46
5, 29450, Control_c, 3, 11, 45
5, 29455, Control_c, 3, 11, 44
5, 29460, Control_c, 3, 11, 43
5, 29465, Control_c, 3, 11, 42
5, 29470, Control_c, 3, 11, 41
5, 29475, Control_c, 3, 11, 40
5, 29480, Control_c, 3, 11, 39
5, 29490, Control_c, 3, 11, 38
5, 29495, Control_c, 3, 11, 37
5, 29500, Control_c, 3, 11, 36
5, 29505, Control_c, 3, 11, 35
5, 29510, Control_c, 3, 11, 34
5, 29515, Control_c, 3, 11, 33
5, 29520, Control_c, 3, 11, 32
5, 29525, Control_c, 3, 11, 31
5, 29530, Control_c, 3, 11, 30
5, 29540, Control_c, 3, 11, 29
5, 29545, Control_c, 3, 11, 28
5, 29550, Control_c, 3, 11, 27
5, 29555, Control_c, 3, 11, 26
5, 29560, Control_c, 3, 11, 25
5, 29565, Control_c, 3, 11, 24
5, 29570, Control_c, 3, 11, 23
5, 29575, Control_c, 3, 11, 22
5, 29580, Control_c, 3, 11, 21
5, 29585, Control_c, 3, 11, 20
5, 29595, Control_c, 3, 11, 19
5, 29600, Control_c, 3, 11, 18
5, 29605, Control_c, 3, 11, 17
5, 29610, Control_c, 3, 11, 16
5, 29615, Control_c, 3, 11, 15
5, 29620, Control_c, 3, 11, 14
5, 29625, Control_c, 3, 11, 13
5, 29630, Control_c, 3, 11, 12
5, 29635, Control_c, 3, 11, 11
5, 29640, Note_on_c, 3, 64, 0
5, 29640, Control_c, 3, 11, 10
5, 29640, End_track
6, 0, Start_track
6, 0, Title_t, "A5-Strings     "
6, 117, Control_c, 4, 91, 50
6, 118, Control_c, 4, 93, 30
6, 140, Control_c, 4, 0, 0
6, 141, Control_c, 4, 32, 2
6, 142, Program_c, 4, 48
6, 143, Control_c, 4, 7, 110
6, 143, Control_c, 4, 10, 64
6, 1440, Note_on_c, 4, 54, 115
6, 1440, Note_on_c, 4, 42, 115
6, 2400, Note_on_c, 4, 42, 0
6, 2400, Note_on_c, 4, 54, 0
6, 2400, Note_on_c, 4, 50, 115
6, 2400, Note_on_c, 4, 38, 115
6, 3360, Note_on_c, 4, 38, 0
6, 3360, Note_on_c, 4, 50, 0
6, 3360, Note_on_c, 4, 45, 115
6, 3360, Note_on_c, 4, 33, 115
6, 4320, Note_on_c, 4, 33, 0
6, 4320, Note_on_c, 4, 45, 0
6, 4320, Note_on_c, 4, 32, 115
6, 4320, Note_on_c, 4, 44, 115
6, 5280, Note_on_c, 4, 44, 0
6, 5280, Note_on_c, 4, 32, 0
6, 5280, Note_on_c, 4, 42, 115
6, 5280, Note_on_c, 4, 54, 115
6, 6240, Note_on_c, 4, 54, 0
6, 6240, Note_on_c, 4, 42, 0
6, 6240, Note_on_c, 4, 42, 115
6, 6240, Note_on_c, 4, 30, 115
6, 7200, Note_on_c, 4, 30, 0
6, 7200, Note_on_c, 4, 42, 0
6, 7200, Note_on_c, 4, 28, 115
6, 7200, Note_on_c, 4, 40, 115
6, 8160, Note_on_c, 4, 40, 0
6, 8160, Note_on_c, 4, 28, 0
6, 8160, Note_on_c, 4, 26, 115
6, 8160, Note_on_c, 4, 38, 115
6, 9120, Note_on_c, 4, 38, 0
6, 9120, Note_on_c, 4, 26, 0
6, 9120, Note_on_c, 4, 36, 115
6, 9120, Note_on_c, 4, 24, 115
6, 9595, Control_c, 4, 11, 127
6, 9610, Control_c, 4, 11, 126
6, 9620, Control_c, 4, 11, 125
6, 9630, Control_c, 4, 11, 124
6, 9640, Control_c, 4, 11, 123
6, 9655, Control_c, 4, 11, 122
6, 9665, Control_c, 4, 11, 121
6, 9675, Control_c, 4, 11, 120
6, 9685, Control_c, 4, 11, 119
6, 9700, Control_c, 4, 11, 118
6, 9710, Control_c, 4, 11, 117
6, 9720, Control_c, 4, 11, 116
6, 9730, Control_c, 4, 11, 115
6, 9745, Control_c, 4, 11, 114
6, 9755, Control_c, 4, 11, 113
6, 9765, Control_c, 4, 11, 112
6, 9775, Control_c, 4, 11, 111
6, 9790, Control_c, 4, 11, 110
6, 9800, Control_c, 4, 11, 109
6, 9810, Control_c, 4, 11, 108
6, 9820, Control_c, 4, 11, 107
6, 9835, Control_c, 4, 11, 106
6, 9845, Control_c, 4, 11, 105
6, 9855, Control_c, 4, 11, 104
6, 9865, Control_c, 4, 11, 103
6, 9880, Control_c, 4, 11, 102
6, 9890, Control_c, 4, 11, 101
6, 9900, Control_c, 4, 11, 100
6, 9910, Control_c, 4, 11, 99
6, 9925, Control_c, 4, 11, 98
6, 9935, Control_c, 4, 11, 97
6, 9945, Control_c, 4, 11, 96
6, 9955, Control_c, 4, 11, 95
6, 9960, Control_c, 4, 11, 97
6, 9970, Control_c, 4, 11, 96
6, 9975, Control_c, 4, 11, 95
6, 9980, Control_c, 4, 11, 94
6, 9985, Control_c, 4, 11, 93
6, 9995, Control_c, 4, 11, 92
6, 10000, Control_c, 4, 11, 91
6, 10005, Control_c, 4, 11, 90
6, 10010, Control_c, 4, 11, 89
6, 10015, Control_c, 4, 11, 88
6, 10025, Control_c, 4, 11, 87
6, 10030, Control_c, 4, 11, 86
6, 10035, Control_c, 4, 11, 85
6, 10040, Control_c, 4, 11, 84
6, 10045, Control_c, 4, 11, 83
6, 10055, Control_c, 4, 11, 82
6, 10060, Control_c, 4, 11, 81
6, 10065, Control_c, 4, 11, 80
6, 10070, Control_c, 4, 11, 79
6, 10075, Control_c, 4, 11, 78
6, 10085, Control_c, 4, 11, 77
6, 10090, Control_c, 4, 11, 76
6, 10095, Control_c, 4, 11, 75
6, 10100, Control_c, 4, 11, 74
6, 10105, Control_c, 4, 11, 73
6, 10115, Control_c, 4, 11, 72
6, 10120, Control_c, 4, 11, 71
6, 10125, Control_c, 4, 11, 70
6, 10130, Control_c, 4, 11, 69
6, 10135, Control_c, 4, 11, 68
6, 10145, Control_c, 4, 11, 67
6, 10150, Control_c, 4, 11, 66
6, 10155, Control_c, 4, 11, 65
6, 10160, Control_c, 4, 11, 64
6, 10165, Control_c, 4, 11, 63
6, 10175, Control_c, 4, 11, 62
6, 10180, Control_c, 4, 11, 61
6, 10185, Control_c, 4, 11, 60
6, 10190, Control_c, 4, 11, 59
6, 10195, Control_c, 4, 11, 58
6, 10205, Control_c, 4, 11, 57
6, 10210, Control_c, 4, 11, 56
6, 10215, Control_c, 4, 11, 55
6, 10220, Control_c, 4, 11, 54
6, 10225, Control_c, 4, 11, 53
6, 10235, Control_c, 4, 11, 52
6, 10240, Control_c, 4, 11, 51
6, 10245, Control_c, 4, 11, 50
6, 10250, Control_c, 4, 11, 49
6, 10255, Control_c, 4, 11, 48
6, 10265, Control_c, 4, 11, 47
6, 10270, Control_c, 4, 11, 46
6, 10275, Control_c, 4, 11, 45
6, 10280, Control_c, 4, 11, 44
6, 10285, Control_c, 4, 11, 43
6, 10295, Control_c, 4, 11, 42
6, 10300, Control_c, 4, 11, 41
6, 10305, Control_c, 4, 11, 40
6, 10310, Control_c, 4, 11, 39
6, 10315, Control_c, 4, 11, 38
6, 10325, Control_c, 4, 11, 37
6, 10330, Control_c, 4, 11, 36
6, 10335, Control_c, 4, 11, 35
6, 10340, Control_c, 4, 11, 34
6, 10345, Control_c, 4, 11, 33
6, 10355, Control_c, 4, 11, 32
6, 10360, Control_c, 4, 11, 31
6, 10365, Control_c, 4, 11, 30
6, 10370, Control_c, 4, 11, 29
6, 10375, Control_c, 4, 11, 28
6, 10385, Control_c, 4, 11, 27
6, 10390, Control_c, 4, 11, 26
6, 10395, Control_c, 4, 11, 25
6, 10400, Control_c, 4, 11, 24
6, 10405, Control_c, 4, 11, 23
6, 10415, Control_c, 4, 11, 22
6, 10420, Control_c, 4, 11, 21
6, 10425, Control_c, 4, 11, 20
6, 10430, Control_c, 4, 11, 19
6, 10435, Control_c, 4, 11, 18
6, 10440, Note_on_c, 4, 24, 0
6, 10440, Note_on_c, 4, 36, 0
6, 11025, Control_c, 4, 11, 127
6, 11040, Note_on_c, 4, 54, 115
6, 11040, Note_on_c, 4, 42, 115
6, 12000, Note_on_c, 4, 42, 0
6, 12000, Note_on_c, 4, 54, 0
6, 12000, Note_on_c, 4, 50, 115
6, 12000, Note_on_c, 4, 38, 115
6, 12960, Note_on_c, 4, 38, 0
6, 12960, Note_on_c, 4, 50, 0
6, 12960, Note_on_c, 4, 45, 115
6, 12960, Note_on_c, 4, 33, 115
6, 13920, Note_on_c, 4, 33, 0
6, 13920, Note_on_c, 4, 45, 0
6, 13920, Note_on_c, 4, 32, 115
6, 13920, Note_on_c, 4, 44, 115
6, 14880, Note_on_c, 4, 44, 0
6, 14880, Note_on_c, 4, 32, 0
6, 14880, Note_on_c, 4, 42, 115
6, 14880, Note_on_c, 4, 54, 115
6, 15840, Note_on_c, 4, 54, 0
6, 15840, Note_on_c, 4, 42, 0
6, 15840, Note_on_c, 4, 42, 115
6, 15840, Note_on_c, 4, 30, 115
6, 16800, Note_on_c, 4, 30, 0
6, 16800, Note_on_c, 4, 42, 0
6, 16800, Note_on_c, 4, 28, 115
6, 16800, Note_on_c, 4, 40, 115
6, 17760, Note_on_c, 4, 40, 0
6, 17760, Note_on_c, 4, 28, 0
6, 17760, Note_on_c, 4, 26, 115
6, 17760, Note_on_c, 4, 38, 115
6, 18720, Note_on_c, 4, 38, 0
6, 18720, Note_on_c, 4, 26, 0
6, 18720, Note_on_c, 4, 36, 115
6, 18720, Note_on_c, 4, 24, 115
6, 19195, Control_c, 4, 11, 127
6, 19210, Control_c, 4, 11, 126
6, 19220, Control_c, 4, 11, 125
6, 19230, Control_c, 4, 11, 124
6, 19240, Control_c, 4, 11, 123
6, 19255, Control_c, 4, 11, 122
6, 19265, Control_c, 4, 11, 121
6, 19275, Control_c, 4, 11, 120
6, 19285, Control_c, 4, 11, 119
6, 19300, Control_c, 4, 11, 118
6, 19310, Control_c, 4, 11, 117
6, 19320, Control_c, 4, 11, 116
6, 19330, Control_c, 4, 11, 115
6, 19345, Control_c, 4, 11, 114
6, 19355, Control_c, 4, 11, 113
6, 19365, Control_c, 4, 11, 112
6, 19375, Control_c, 4, 11, 111
6, 19390, Control_c, 4, 11, 110
6, 19400, Control_c, 4, 11, 109
6, 19410, Control_c, 4, 11, 108
6, 19420, Control_c, 4, 11, 107
6, 19435, Control_c, 4, 11, 106
6, 19445, Control_c, 4, 11, 105
6, 19455, Control_c, 4, 11, 104
6, 19465, Control_c, 4, 11, 103
6, 19480, Control_c, 4, 11, 102
6, 19490, Control_c, 4, 11, 101
6, 19500, Control_c, 4, 11, 100
6, 19510, Control_c, 4, 11, 99
6, 19525, Control_c, 4, 11, 98
6, 19535, Control_c, 4, 11, 97
6, 19545, Control_c, 4, 11, 96
6, 19555, Control_c, 4, 11, 95
6, 19560, Control_c, 4, 11, 97
6, 19570, Control_c, 4, 11, 96
6, 19575, Control_c, 4, 11, 95
6, 19580, Control_c, 4, 11, 94
6, 19585, Control_c, 4, 11, 93
6, 19595, Control_c, 4, 11, 92
6, 19600, Control_c, 4, 11, 91
6, 19605, Control_c, 4, 11, 90
6, 19610, Control_c, 4, 11, 89
6, 19615, Control_c, 4, 11, 88
6, 19625, Control_c, 4, 11, 87
6, 19630, Control_c, 4, 11, 86
6, 19635, Control_c, 4, 11, 85
6, 19640, Control_c, 4, 11, 84
6, 19645, Control_c, 4, 11, 83
6, 19655, Control_c, 4, 11, 82
6, 19660, Control_c, 4, 11, 81
6, 19665, Control_c, 4, 11, 80
6, 19670, Control_c, 4, 11, 79
6, 19675, Control_c, 4, 11, 78
6, 19685, Control_c, 4, 11, 77
6, 19690, Control_c, 4, 11, 76
6, 19695, Control_c, 4, 11, 75
6, 19700, Control_c, 4, 11, 74
6, 19705, Control_c, 4, 11, 73
6, 19715, Control_c, 4, 11, 72
6, 19720, Control_c, 4, 11, 71
6, 19725, Control_c, 4, 11, 70
6, 19730, Control_c, 4, 11, 69
6, 19735, Control_c, 4, 11, 68
6, 19745, Control_c, 4, 11, 67
6, 19750, Control_c, 4, 11, 66
6, 19755, Control_c, 4, 11, 65
6, 19760, Control_c, 4, 11, 64
6, 19765, Control_c, 4, 11, 63
6, 19775, Control_c, 4, 11, 62
6, 19780, Control_c, 4, 11, 61
6, 19785, Control_c, 4, 11, 60
6, 19790, Control_c, 4, 11, 59
6, 19795, Control_c, 4, 11, 58
6, 19805, Control_c, 4, 11, 57
6, 19810, Control_c, 4, 11, 56
6, 19815, Control_c, 4, 11, 55
6, 19820, Control_c, 4, 11, 54
6, 19825, Control_c, 4, 11, 53
6, 19835, Control_c, 4, 11, 52
6, 19840, Control_c, 4, 11, 51
6, 19845, Control_c, 4, 11, 50
6, 19850, Control_c, 4, 11, 49
6, 19855, Control_c, 4, 11, 48
6, 19865, Control_c, 4, 11, 47
6, 19870, Control_c, 4, 11, 46
6, 19875, Control_c, 4, 11, 45
6, 19880, Control_c, 4, 11, 44
6, 19885, Control_c, 4, 11, 43
6, 19895, Control_c, 4, 11, 42
6, 19900, Control_c, 4, 11, 41
6, 19905, Control_c, 4, 11, 40
6, 19910, Control_c, 4, 11, 39
6, 19915, Control_c, 4, 11, 38
6, 19925, Control_c, 4, 11, 37
6, 19930, Control_c, 4, 11, 36
6, 19935, Control_c, 4, 11, 35
6, 19940, Control_c, 4, 11, 34
6, 19945, Control_c, 4, 11, 33
6, 19955, Control_c, 4, 11, 32
6, 19960, Control_c, 4, 11, 31
6, 19965, Control_c, 4, 11, 30
6, 19970, Control_c, 4, 11, 29
6, 19975, Control_c, 4, 11, 28
6, 19985, Control_c, 4, 11, 27
6, 19990, Control_c, 4, 11, 26
6, 19995, Control_c, 4, 11, 25
6, 20000, Control_c, 4, 11, 24
6, 20005, Control_c, 4, 11, 23
6, 20015, Control_c, 4, 11, 22
6, 20020, Control_c, 4, 11, 21
6, 20025, Control_c, 4, 11, 20
6, 20030, Control_c, 4, 11, 19
6, 20035, Control_c, 4, 11, 18
6, 20040, Note_on_c, 4, 24, 0
6, 20040, Note_on_c, 4, 36, 0
6, 20625, Control_c, 4, 11, 127
6, 20640, Note_on_c, 4, 54, 115
6, 20640, Note_on_c, 4, 42, 115
6, 21600, Note_on_c, 4, 42, 0
6, 21600, Note_on_c, 4, 54, 0
6, 21600, Note_on_c, 4, 50, 115
6, 21600, Note_on_c, 4, 38, 115
6, 22560, Note_on_c, 4, 38, 0
6, 22560, Note_on_c, 4, 50, 0
6, 22560, Note_on_c, 4, 45, 115
6, 22560, Note_on_c, 4, 33, 115
6, 23520, Note_on_c, 4, 33, 0
6, 23520, Note_on_c, 4, 45, 0
6, 23520, Note_on_c, 4, 32, 115
6, 23520, Note_on_c, 4, 44, 115
6, 24480, Note_on_c, 4, 44, 0
6, 24480, Note_on_c, 4, 32, 0
6, 24480, Note_on_c, 4, 42, 115
6, 24480, Note_on_c, 4, 54, 115
6, 25440, Note_on_c, 4, 54, 0
6, 25440, Note_on_c, 4, 42, 0
6, 25440, Note_on_c, 4, 42, 115
6, 25440, Note_on_c, 4, 30, 115
6, 26400, Note_on_c, 4, 30, 0
6, 26400, Note_on_c, 4, 42, 0
6, 26400, Note_on_c, 4, 28, 115
6, 26400, Note_on_c, 4, 40, 115
6, 27360, Note_on_c, 4, 40, 0
6, 27360, Note_on_c, 4, 28, 0
6, 27360, Note_on_c, 4, 26, 115
6, 27360, Note_on_c, 4, 38, 115
6, 28320, Note_on_c, 4, 38, 0
6, 28320, Note_on_c, 4, 26, 0
6, 28320, Note_on_c, 4, 36, 115
6, 28320, Note_on_c, 4, 24, 115
6, 28795, Control_c, 4, 11, 127
6, 28810, Control_c, 4, 11, 126
6, 28820, Control_c, 4, 11, 125
6, 28830, Control_c, 4, 11, 124
6, 28840, Control_c, 4, 11, 123
6, 28855, Control_c, 4, 11, 122
6, 28865, Control_c, 4, 11, 121
6, 28875, Control_c, 4, 11, 120
6, 28885, Control_c, 4, 11, 119
6, 28900, Control_c, 4, 11, 118
6, 28910, Control_c, 4, 11, 117
6, 28920, Control_c, 4, 11, 116
6, 28930, Control_c, 4, 11, 115
6, 28945, Control_c, 4, 11, 114
6, 28955, Control_c, 4, 11, 113
6, 28965, Control_c, 4, 11, 112
6, 28975, Control_c, 4, 11, 111
6, 28990, Control_c, 4, 11, 110
6, 29000, Control_c, 4, 11, 109
6, 29010, Control_c, 4, 11, 108
6, 29020, Control_c, 4, 11, 107
6, 29035, Control_c, 4, 11, 106
6, 29045, Control_c, 4, 11, 105
6, 29055, Control_c, 4, 11, 104
6, 29065, Control_c, 4, 11, 103
6, 29080, Control_c, 4, 11, 102
6, 29090, Control_c, 4, 11, 101
6, 29100, Control_c, 4, 11, 100
6, 29110, Control_c, 4, 11, 99
6, 29125, Control_c, 4, 11, 98
6, 29135, Control_c, 4, 11, 97
6, 29145, Control_c, 4, 11, 96
6, 29155, Control_c, 4, 11, 95
6, 29160, Control_c, 4, 11, 97
6, 29170, Control_c, 4, 11, 96
6, 29175, Control_c, 4, 11, 95
6, 29180, Control_c, 4, 11, 94
6, 29185, Control_c, 4, 11, 93
6, 29195, Control_c, 4, 11, 92
6, 29200, Control_c, 4, 11, 91
6, 29205, Control_c, 4, 11, 90
6, 29210, Control_c, 4, 11, 89
6, 29215, Control_c, 4, 11, 88
6, 29225, Control_c, 4, 11, 87
6, 29230, Control_c, 4, 11, 86
6, 29235, Control_c, 4, 11, 85
6, 29240, Control_c, 4, 11, 84
6, 29245, Control_c, 4, 11, 83
6, 29255, Control_c, 4, 11, 82
6, 29260, Control_c, 4, 11, 81
6, 29265, Control_c, 4, 11, 80
6, 29270, Control_c, 4, 11, 79
6, 29275, Control_c, 4, 11, 78
6, 29285, Control_c, 4, 11, 77
6, 29290, Control_c, 4, 11, 76
6, 29295, Control_c, 4, 11, 75
6, 29300, Control_c, 4, 11, 74
6, 29305, Control_c, 4, 11, 73
6, 29315, Control_c, 4, 11, 72
6, 29320, Control_c, 4, 11, 71
6, 29325, Control_c, 4, 11, 70
6, 29330, Control_c, 4, 11, 69
6, 29335, Control_c, 4, 11, 68
6, 29345, Control_c, 4, 11, 67
6, 29350, Control_c, 4, 11, 66
6, 29355, Control_c, 4, 11, 65
6, 29360, Control_c, 4, 11, 64
6, 29365, Control_c, 4, 11, 63
6, 29375, Control_c, 4, 11, 62
6, 29380, Control_c, 4, 11, 61
6, 29385, Control_c, 4, 11, 60
6, 29390, Control_c, 4, 11, 59
6, 29395, Control_c, 4, 11, 58
6, 29405, Control_c, 4, 11, 57
6, 29410, Control_c, 4, 11, 56
6, 29415, Control_c, 4, 11, 55
6, 29420, Control_c, 4, 11, 54
6, 29425, Control_c, 4, 11, 53
6, 29435, Control_c, 4, 11, 52
6, 29440, Control_c, 4, 11, 51
6, 29445, Control_c, 4, 11, 50
6, 29450, Control_c, 4, 11, 49
6, 29455, Control_c, 4, 11, 48
6, 29465, Control_c, 4, 11, 47
6, 29470, Control_c, 4, 11, 46
6, 29475, Control_c, 4, 11, 45
6, 29480, Control_c, 4, 11, 44
6, 29485, Control_c, 4, 11, 43
6, 29495, Control_c, 4, 11, 42
6, 29500, Control_c, 4, 11, 41
6, 29505, Control_c, 4, 11, 40
6, 29510, Control_c, 4, 11, 39
6, 29515, Control_c, 4, 11, 38
6, 29525, Control_c, 4, 11, 37
6, 29530, Control_c, 4, 11, 36
6, 29535, Control_c, 4, 11, 35
6, 29540, Control_c, 4, 11, 34
6, 29545, Control_c, 4, 11, 33
6, 29555, Control_c, 4, 11, 32
6, 29560, Control_c, 4, 11, 31
6, 29565, Control_c, 4, 11, 30
6, 29570, Control_c, 4, 11, 29
6, 29575, Control_c, 4, 11, 28
6, 29585, Control_c, 4, 11, 27
6, 29590, Control_c, 4, 11, 26
6, 29595, Control_c, 4, 11, 25
6, 29600, Control_c, 4, 11, 24
6, 29605, Control_c, 4, 11, 23
6, 29615, Control_c, 4, 11, 22
6, 29620, Control_c, 4, 11, 21
6, 29625, Control_c, 4, 11, 20
6, 29630, Control_c, 4, 11, 19
6, 29635, Control_c, 4, 11, 18
6, 29640, Note_on_c, 4, 24, 0
6, 29640, Note_on_c, 4, 36, 0
6, 29640, End_track
7, 0, Start_track
7, 0, Title_t, "A6-Warm Strings"
7, 126, Control_c, 5, 91, 60
7, 127, Control_c, 5, 93, 30
7, 145, Control_c, 5, 0, 9
7, 146, Control_c, 5, 32, 3
7, 147, Program_c, 5, 49
7, 148, Control_c, 5, 7, 110
7, 148, Control_c, 5, 10, 64
7, 1440, Note_on_c, 5, 97, 110
7, 1440, Note_on_c, 5, 75, 110
7, 1440, Note_on_c, 5, 80, 110
7, 2400, Note_on_c, 5, 80, 0
7, 2400, Note_on_c, 5, 75, 0
7, 2400, Note_on_c, 5, 97, 0
7, 2400, Note_on_c, 5, 95, 110
7, 2400, Note_on_c, 5, 78, 110
7, 2400, Note_on_c, 5, 83, 110
7, 3360, Note_on_c, 5, 83, 0
7, 3360, Note_on_c, 5, 78, 0
7, 3360, Note_on_c, 5, 95, 0
7, 3360, Note_on_c, 5, 78, 110
7, 3360, Note_on_c, 5, 83, 110
7, 3360, Note_on_c, 5, 87, 110
7, 3360, Note_on_c, 5, 90, 110
7, 4320, Note_on_c, 5, 90, 0
7, 4320, Note_on_c, 5, 78, 0
7, 4320, Note_on_c, 5, 83, 0
7, 4320, Note_on_c, 5, 87, 0
7, 4320, Note_on_c, 5, 87, 110
7, 4320, Note_on_c, 5, 85, 110
7, 4320, Note_on_c, 5, 78, 110
7, 4320, Note_on_c, 5, 92, 110
7, 5280, Note_on_c, 5, 92, 0
7, 5280, Note_on_c, 5, 87, 0
7, 5280, Note_on_c, 5, 85, 0
7, 5280, Note_on_c, 5, 78, 0
7, 5280, Note_on_c, 5, 81, 110
7, 5280, Note_on_c, 5, 78, 110
7, 5280, Note_on_c, 5, 90, 110
7, 5280, Note_on_c, 5, 85, 110
7, 6240, Note_on_c, 5, 85, 0
7, 6240, Note_on_c, 5, 81, 0
7, 6240, Note_on_c, 5, 78, 0
7, 6240, Note_on_c, 5, 90, 0
7, 6240, Note_on_c, 5, 78, 110
7, 6240, Note_on_c, 5, 81, 110
7, 6240, Note_on_c, 5, 85, 110
7, 6240, Note_on_c, 5, 90, 110
7, 7200, Note_on_c, 5, 90, 0
7, 7200, Note_on_c, 5, 78, 0
7, 7200, Note_on_c, 5, 81, 0
7, 7200, Note_on_c, 5, 85, 0
7, 7200, Note_on_c, 5, 78, 110
7, 7200, Note_on_c, 5, 83, 110
7, 7200, Note_on_c, 5, 88, 110
7, 8160, Note_on_c, 5, 88, 0
7, 8160, Note_on_c, 5, 83, 0
7, 8160, Note_on_c, 5, 78, 0
7, 8160, Note_on_c, 5, 88, 110
7, 8160, Note_on_c, 5, 78, 110
7, 8160, Note_on_c, 5, 83, 110
7, 9120, Note_on_c, 5, 83, 0
7, 9120, Note_on_c, 5, 78, 0
7, 9120, Note_on_c, 5, 88, 0
7, 9120, Note_on_c, 5, 76, 110
7, 9120, Note_on_c, 5, 81, 110
7, 9120, Note_on_c, 5, 86, 110
7, 9595, Control_c, 5, 11, 126
7, 9610, Control_c, 5, 11, 125
7, 9620, Control_c, 5, 11, 124
7, 9630, Control_c, 5, 11, 123
7, 9645, Control_c, 5, 11, 122
7, 9655, Control_c, 5, 11, 121
7, 9665, Control_c, 5, 11, 120
7, 9675, Control_c, 5, 11, 119
7, 9690, Control_c, 5, 11, 118
7, 9700, Control_c, 5, 11, 117
7, 9710, Control_c, 5, 11, 116
7, 9720, Control_c, 5, 11, 115
7, 9735, Control_c, 5, 11, 114
7, 9745, Control_c, 5, 11, 113
7, 9755, Control_c, 5, 11, 112
7, 9765, Control_c, 5, 11, 111
7, 9780, Control_c, 5, 11, 110
7, 9790, Control_c, 5, 11, 109
7, 9800, Control_c, 5, 11, 108
7, 9810, Control_c, 5, 11, 107
7, 9825, Control_c, 5, 11, 106
7, 9835, Control_c, 5, 11, 105
7, 9845, Control_c, 5, 11, 104
7, 9855, Control_c, 5, 11, 103
7, 9870, Control_c, 5, 11, 102
7, 9880, Control_c, 5, 11, 101
7, 9890, Control_c, 5, 11, 100
7, 9900, Control_c, 5, 11, 99
7, 9915, Control_c, 5, 11, 98
7, 9925, Control_c, 5, 11, 97
7, 9935, Control_c, 5, 11, 96
7, 9945, Control_c, 5, 11, 95
7, 9950, Control_c, 5, 11, 96
7, 9960, Control_c, 5, 11, 95
7, 9965, Control_c, 5, 11, 94
7, 9970, Control_c, 5, 11, 93
7, 9975, Control_c, 5, 11, 92
7, 9985, Control_c, 5, 11, 91
7, 9990, Control_c, 5, 11, 90
7, 9995, Control_c, 5, 11, 89
7, 10000, Control_c, 5, 11, 88
7, 10010, Control_c, 5, 11, 87
7, 10015, Control_c, 5, 11, 86
7, 10020, Control_c, 5, 11, 85
7, 10025, Control_c, 5, 11, 84
7, 10030, Control_c, 5, 11, 83
7, 10040, Control_c, 5, 11, 82
7, 10045, Control_c, 5, 11, 81
7, 10050, Control_c, 5, 11, 80
7, 10055, Control_c, 5, 11, 79
7, 10065, Control_c, 5, 11, 78
7, 10070, Control_c, 5, 11, 77
7, 10075, Control_c, 5, 11, 76
7, 10080, Control_c, 5, 11, 75
7, 10085, Control_c, 5, 11, 74
7, 10095, Control_c, 5, 11, 73
7, 10100, Control_c, 5, 11, 72
7, 10105, Control_c, 5, 11, 71
7, 10110, Control_c, 5, 11, 70
7, 10120, Control_c, 5, 11, 69
7, 10125, Control_c, 5, 11, 68
7, 10130, Control_c, 5, 11, 67
7, 10135, Control_c, 5, 11, 66
7, 10140, Control_c, 5, 11, 65
7, 10150, Control_c, 5, 11, 64
7, 10155, Control_c, 5, 11, 63
7, 10160, Control_c, 5, 11, 62
7, 10165, Control_c, 5, 11, 61
7, 10175, Control_c, 5, 11, 60
7, 10180, Control_c, 5, 11, 59
7, 10185, Control_c, 5, 11, 58
7, 10190, Control_c, 5, 11, 57
7, 10195, Control_c, 5, 11, 56
7, 10205, Control_c, 5, 11, 55
7, 10210, Control_c, 5, 11, 54
7, 10215, Control_c, 5, 11, 53
7, 10220, Control_c, 5, 11, 52
7, 10230, Control_c, 5, 11, 51
7, 10235, Control_c, 5, 11, 50
7, 10240, Control_c, 5, 11, 49
7, 10245, Control_c, 5, 11, 48
7, 10255, Control_c, 5, 11, 47
7, 10260, Control_c, 5, 11, 46
7, 10265, Control_c, 5, 11, 45
7, 10270, Control_c, 5, 11, 44
7, 10275, Control_c, 5, 11, 43
7, 10285, Control_c, 5, 11, 42
7, 10290, Control_c, 5, 11, 41
7, 10295, Control_c, 5, 11, 40
7, 10300, Control_c, 5, 11, 39
7, 10310, Control_c, 5, 11, 38
7, 10315, Control_c, 5, 11, 37
7, 10320, Control_c, 5, 11, 36
7, 10325, Control_c, 5, 11, 35
7, 10330, Control_c, 5, 11, 34
7, 10340, Control_c, 5, 11, 33
7, 10345, Control_c, 5, 11, 32
7, 10350, Control_c, 5, 11, 31
7, 10355, Control_c, 5, 11, 30
7, 10365, Control_c, 5, 11, 29
7, 10370, Control_c, 5, 11, 28
7, 10375, Control_c, 5, 11, 27
7, 10380, Control_c, 5, 11, 26
7, 10385, Control_c, 5, 11, 25
7, 10395, Control_c, 5, 11, 24
7, 10400, Control_c, 5, 11, 23
7, 10405, Control_c, 5, 11, 22
7, 10410, Control_c, 5, 11, 21
7, 10420, Control_c, 5, 11, 20
7, 10425, Control_c, 5, 11, 19
7, 10430, Control_c, 5, 11, 18
7, 10435, Control_c, 5, 11, 17
7, 10440, Note_on_c, 5, 86, 0
7, 10440, Note_on_c, 5, 81, 0
7, 10440, Note_on_c, 5, 76, 0
7, 10440, Control_c, 5, 11, 16
7, 11015, Control_c, 5, 11, 127
7, 11040, Note_on_c, 5, 97, 110
7, 11040, Note_on_c, 5, 75, 110
7, 11040, Note_on_c, 5, 80, 110
7, 12000, Note_on_c, 5, 80, 0
7, 12000, Note_on_c, 5, 75, 0
7, 12000, Note_on_c, 5, 97, 0
7, 12000, Note_on_c, 5, 95, 110
7, 12000, Note_on_c, 5, 78, 110
7, 12000, Note_on_c, 5, 83, 110
7, 12960, Note_on_c, 5, 83, 0
7, 12960, Note_on_c, 5, 78, 0
7, 12960, Note_on_c, 5, 95, 0
7, 12960, Note_on_c, 5, 78, 110
7, 12960, Note_on_c, 5, 83, 110
7, 12960, Note_on_c, 5, 87, 110
7, 12960, Note_on_c, 5, 90, 110
7, 13920, Note_on_c, 5, 90, 0
7, 13920, Note_on_c, 5, 78, 0
7, 13920, Note_on_c, 5, 83, 0
7, 13920, Note_on_c, 5, 87, 0
7, 13920, Note_on_c, 5, 87, 110
7, 13920, Note_on_c, 5, 85, 110
7, 13920, Note_on_c, 5, 78, 110
7, 13920, Note_on_c, 5, 92, 110
7, 14880, Note_on_c, 5, 92, 0
7, 14880, Note_on_c, 5, 87, 0
7, 14880, Note_on_c, 5, 85, 0
7, 14880, Note_on_c, 5, 78, 0
7, 14880, Note_on_c, 5, 81, 110
7, 14880, Note_on_c, 5, 78, 110
7, 14880, Note_on_c, 5, 90, 110
7, 14880, Note_on_c, 5, 85, 110
7, 15840, Note_on_c, 5, 85, 0
7, 15840, Note_on_c, 5, 81, 0
7, 15840, Note_on_c, 5, 78, 0
7, 15840, Note_on_c, 5, 90, 0
7, 15840, Note_on_c, 5, 78, 110
7, 15840, Note_on_c, 5, 81, 110
7, 15840, Note_on_c, 5, 85, 110
7, 15840, Note_on_c, 5, 90, 110
7, 16800, Note_on_c, 5, 90, 0
7, 16800, Note_on_c, 5, 78, 0
7, 16800, Note_on_c, 5, 81, 0
7, 16800, Note_on_c, 5, 85, 0
7, 16800, Note_on_c, 5, 78, 110
7, 16800, Note_on_c, 5, 83, 110
7, 16800, Note_on_c, 5, 88, 110
7, 17760, Note_on_c, 5, 88, 0
7, 17760, Note_on_c, 5, 83, 0
7, 17760, Note_on_c, 5, 78, 0
7, 17760, Note_on_c, 5, 88, 110
7, 17760, Note_on_c, 5, 78, 110
7, 17760, Note_on_c, 5, 83, 110
7, 18720, Note_on_c, 5, 83, 0
7, 18720, Note_on_c, 5, 78, 0
7, 18720, Note_on_c, 5, 88, 0
7, 18720, Note_on_c, 5, 76, 110
7, 18720, Note_on_c, 5, 81, 110
7, 18720, Note_on_c, 5, 86, 110
7, 19195, Control_c, 5, 11, 126
7, 19210, Control_c, 5, 11, 125
7, 19220, Control_c, 5, 11, 124
7, 19230, Control_c, 5, 11, 123
7, 19245, Control_c, 5, 11, 122
7, 19255, Control_c, 5, 11, 121
7, 19265, Control_c, 5, 11, 120
7, 19275, Control_c, 5, 11, 119
7, 19290, Control_c, 5, 11, 118
7, 19300, Control_c, 5, 11, 117
7, 19310, Control_c, 5, 11, 116
7, 19320, Control_c, 5, 11, 115
7, 19335, Control_c, 5, 11, 114
7, 19345, Control_c, 5, 11, 113
7, 19355, Control_c, 5, 11, 112
7, 19365, Control_c, 5, 11, 111
7, 19380, Control_c, 5, 11, 110
7, 19390, Control_c, 5, 11, 109
7, 19400, Control_c, 5, 11, 108
7, 19410, Control_c, 5, 11, 107
7, 19425, Control_c, 5, 11, 106
7, 19435, Control_c, 5, 11, 105
7, 19445, Control_c, 5, 11, 104
7, 19455, Control_c, 5, 11, 103
7, 19470, Control_c, 5, 11, 102
7, 19480, Control_c, 5, 11, 101
7, 19490, Control_c, 5, 11, 100
7, 19500, Control_c, 5, 11, 99
7, 19515, Control_c, 5, 11, 98
7, 19525, Control_c, 5, 11, 97
7, 19535, Control_c, 5, 11, 96
7, 19545, Control_c, 5, 11, 95
7, 19550, Control_c, 5, 11, 96
7, 19560, Control_c, 5, 11, 95
7, 19565, Control_c, 5, 11, 94
7, 19570, Control_c, 5, 11, 93
7, 19575, Control_c, 5, 11, 92
7, 19585, Control_c, 5, 11, 91
7, 19590, Control_c, 5, 11, 90
7, 19595, Control_c, 5, 11, 89
7, 19600, Control_c, 5, 11, 88
7, 19610, Control_c, 5, 11, 87
7, 19615, Control_c, 5, 11, 86
7, 19620, Control_c, 5, 11, 85
7, 19625, Control_c, 5, 11, 84
7, 19630, Control_c, 5, 11, 83
7, 19640, Control_c, 5, 11, 82
7, 19645, Control_c, 5, 11, 81
7, 19650, Control_c, 5, 11, 80
7, 19655, Control_c, 5, 11, 79
7, 19665, Control_c, 5, 11, 78
7, 19670, Control_c, 5, 11, 77
7, 19675, Control_c, 5, 11, 76
7, 19680, Control_c, 5, 11, 75
7, 19685, Control_c, 5, 11, 74
7, 19695, Control_c, 5, 11, 73
7, 19700, Control_c, 5, 11, 72
7, 19705, Control_c, 5, 11, 71
7, 19710, Control_c, 5, 11, 70
7, 19720, Control_c, 5, 11, 69
7, 19725, Control_c, 5, 11, 68
7, 19730, Control_c, 5, 11, 67
7, 19735, Control_c, 5, 11, 66
7, 19740, Control_c, 5, 11, 65
7, 19750, Control_c, 5, 11, 64
7, 19755, Control_c, 5, 11, 63
7, 19760, Control_c, 5, 11, 62
7, 19765, Control_c, 5, 11, 61
7, 19775, Control_c, 5, 11, 60
7, 19780, Control_c, 5, 11, 59
7, 19785, Control_c, 5, 11, 58
7, 19790, Control_c, 5, 11, 57
7, 19795, Control_c, 5, 11, 56
7, 19805, Control_c, 5, 11, 55
7, 19810, Control_c, 5, 11, 54
7, 19815, Control_c, 5, 11, 53
7, 19820, Control_c, 5, 11, 52
7, 19830, Control_c, 5, 11, 51
7, 19835, Control_c, 5, 11, 50
7, 19840, Control_c, 5, 11, 49
7, 19845, Control_c, 5, 11, 48
7, 19855, Control_c, 5, 11, 47
7, 19860, Control_c, 5, 11, 46
7, 19865, Control_c, 5, 11, 45
7, 19870, Control_c, 5, 11, 44
7, 19875, Control_c, 5, 11, 43
7, 19885, Control_c, 5, 11, 42
7, 19890, Control_c, 5, 11, 41
7, 19895, Control_c, 5, 11, 40
7, 19900, Control_c, 5, 11, 39
7, 19910, Control_c, 5, 11, 38
7, 19915, Control_c, 5, 11, 37
7, 19920, Control_c, 5, 11, 36
7, 19925, Control_c, 5, 11, 35
7, 19930, Control_c, 5, 11, 34
7, 19940, Control_c, 5, 11, 33
7, 19945, Control_c, 5, 11, 32
7, 19950, Control_c, 5, 11, 31
7, 19955, Control_c, 5, 11, 30
7, 19965, Control_c, 5, 11, 29
7, 19970, Control_c, 5, 11, 28
7, 19975, Control_c, 5, 11, 27
7, 19980, Control_c, 5, 11, 26
7, 19985, Control_c, 5, 11, 25
7, 19995, Control_c, 5, 11, 24
7, 20000, Control_c, 5, 11, 23
7, 20005, Control_c, 5, 11, 22
7, 20010, Control_c, 5, 11, 21
7, 20020, Control_c, 5, 11, 20
7, 20025, Control_c, 5, 11, 19
7, 20030, Control_c, 5, 11, 18
7, 20035, Control_c, 5, 11, 17
7, 20040, Note_on_c, 5, 86, 0
7, 20040, Note_on_c, 5, 81, 0
7, 20040, Note_on_c, 5, 76, 0
7, 20040, Control_c, 5, 11, 16
7, 20615, Control_c, 5, 11, 127
7, 20640, Note_on_c, 5, 97, 110
7, 20640, Note_on_c, 5, 75, 110
7, 20640, Note_on_c, 5, 80, 110
7, 21600, Note_on_c, 5, 80, 0
7, 21600, Note_on_c, 5, 75, 0
7, 21600, Note_on_c, 5, 97, 0
7, 21600, Note_on_c, 5, 95, 110
7, 21600, Note_on_c, 5, 78, 110
7, 21600, Note_on_c, 5, 83, 110
7, 22560, Note_on_c, 5, 83, 0
7, 22560, Note_on_c, 5, 78, 0
7, 22560, Note_on_c, 5, 95, 0
7, 22560, Note_on_c, 5, 78, 110
7, 22560, Note_on_c, 5, 83, 110
7, 22560, Note_on_c, 5, 87, 110
7, 22560, Note_on_c, 5, 90, 110
7, 23520, Note_on_c, 5, 90, 0
7, 23520, Note_on_c, 5, 78, 0
7, 23520, Note_on_c, 5, 83, 0
7, 23520, Note_on_c, 5, 87, 0
7, 23520, Note_on_c, 5, 87, 110
7, 23520, Note_on_c, 5, 85, 110
7, 23520, Note_on_c, 5, 78, 110
7, 23520, Note_on_c, 5, 92, 110
7, 24480, Note_on_c, 5, 92, 0
7, 24480, Note_on_c, 5, 87, 0
7, 24480, Note_on_c, 5, 85, 0
7, 24480, Note_on_c, 5, 78, 0
7, 24480, Note_on_c, 5, 81, 110
7, 24480, Note_on_c, 5, 78, 110
7, 24480, Note_on_c, 5, 90, 110
7, 24480, Note_on_c, 5, 85, 110
7, 25440, Note_on_c, 5, 85, 0
7, 25440, Note_on_c, 5, 81, 0
7, 25440, Note_on_c, 5, 78, 0
7, 25440, Note_on_c, 5, 90, 0
7, 25440, Note_on_c, 5, 78, 110
7, 25440, Note_on_c, 5, 81, 110
7, 25440, Note_on_c, 5, 85, 110
7, 25440, Note_on_c, 5, 90, 110
7, 26400, Note_on_c, 5, 90, 0
7, 26400, Note_on_c, 5, 78, 0
7, 26400, Note_on_c, 5, 81, 0
7, 26400, Note_on_c, 5, 85, 0
7, 26400, Note_on_c, 5, 78, 110
7, 26400, Note_on_c, 5, 83, 110
7, 26400, Note_on_c, 5, 88, 110
7, 27360, Note_on_c, 5, 88, 0
7, 27360, Note_on_c, 5, 83, 0
7, 27360, Note_on_c, 5, 78, 0
7, 27360, Note_on_c, 5, 88, 110
7, 27360, Note_on_c, 5, 78, 110
7, 27360, Note_on_c, 5, 83, 110
7, 28320, Note_on_c, 5, 83, 0
7, 28320, Note_on_c, 5, 78, 0
7, 28320, Note_on_c, 5, 88, 0
7, 28320, Note_on_c, 5, 76, 110
7, 28320, Note_on_c, 5, 81, 110
7, 28320, Note_on_c, 5, 86, 110
7, 28795, Control_c, 5, 11, 126
7, 28810, Control_c, 5, 11, 125
7, 28820, Control_c, 5, 11, 124
7, 28830, Control_c, 5, 11, 123
7, 28845, Control_c, 5, 11, 122
7, 28855, Control_c, 5, 11, 121
7, 28865, Control_c, 5, 11, 120
7, 28875, Control_c, 5, 11, 119
7, 28890, Control_c, 5, 11, 118
7, 28900, Control_c, 5, 11, 117
7, 28910, Control_c, 5, 11, 116
7, 28920, Control_c, 5, 11, 115
7, 28935, Control_c, 5, 11, 114
7, 28945, Control_c, 5, 11, 113
7, 28955, Control_c, 5, 11, 112
7, 28965, Control_c, 5, 11, 111
7, 28980, Control_c, 5, 11, 110
7, 28990, Control_c, 5, 11, 109
7, 29000, Control_c, 5, 11, 108
7, 29010, Control_c, 5, 11, 107
7, 29025, Control_c, 5, 11, 106
7, 29035, Control_c, 5, 11, 105
7, 29045, Control_c, 5, 11, 104
7, 29055, Control_c, 5, 11, 103
7, 29070, Control_c, 5, 11, 102
7, 29080, Control_c, 5, 11, 101
7, 29090, Control_c, 5, 11, 100
7, 29100, Control_c, 5, 11, 99
7, 29115, Control_c, 5, 11, 98
7, 29125, Control_c, 5, 11, 97
7, 29135, Control_c, 5, 11, 96
7, 29145, Control_c, 5, 11, 95
7, 29150, Control_c, 5, 11, 96
7, 29160, Control_c, 5, 11, 95
7, 29165, Control_c, 5, 11, 94
7, 29170, Control_c, 5, 11, 93
7, 29175, Control_c, 5, 11, 92
7, 29185, Control_c, 5, 11, 91
7, 29190, Control_c, 5, 11, 90
7, 29195, Control_c, 5, 11, 89
7, 29200, Control_c, 5, 11, 88
7, 29210, Control_c, 5, 11, 87
7, 29215, Control_c, 5, 11, 86
7, 29220, Control_c, 5, 11, 85
7, 29225, Control_c, 5, 11, 84
7, 29230, Control_c, 5, 11, 83
7, 29240, Control_c, 5, 11, 82
7, 29245, Control_c, 5, 11, 81
7, 29250, Control_c, 5, 11, 80
7, 29255, Control_c, 5, 11, 79
7, 29265, Control_c, 5, 11, 78
7, 29270, Control_c, 5, 11, 77
7, 29275, Control_c, 5, 11, 76
7, 29280, Control_c, 5, 11, 75
7, 29285, Control_c, 5, 11, 74
7, 29295, Control_c, 5, 11, 73
7, 29300, Control_c, 5, 11, 72
7, 29305, Control_c, 5, 11, 71
7, 29310, Control_c, 5, 11, 70
7, 29320, Control_c, 5, 11, 69
7, 29325, Control_c, 5, 11, 68
7, 29330, Control_c, 5, 11, 67
7, 29335, Control_c, 5, 11, 66
7, 29340, Control_c, 5, 11, 65
7, 29350, Control_c, 5, 11, 64
7, 29355, Control_c, 5, 11, 63
7, 29360, Control_c, 5, 11, 62
7, 29365, Control_c, 5, 11, 61
7, 29375, Control_c, 5, 11, 60
7, 29380, Control_c, 5, 11, 59
7, 29385, Control_c, 5, 11, 58
7, 29390, Control_c, 5, 11, 57
7, 29395, Control_c, 5, 11, 56
7, 29405, Control_c, 5, 11, 55
7, 29410, Control_c, 5, 11, 54
7, 29415, Control_c, 5, 11, 53
7, 29420, Control_c, 5, 11, 52
7, 29430, Control_c, 5, 11, 51
7, 29435, Control_c, 5, 11, 50
7, 29440, Control_c, 5, 11, 49
7, 29445, Control_c, 5, 11, 48
7, 29455, Control_c, 5, 11, 47
7, 29460, Control_c, 5, 11, 46
7, 29465, Control_c, 5, 11, 45
7, 29470, Control_c, 5, 11, 44
7, 29475, Control_c, 5, 11, 43
7, 29485, Control_c, 5, 11, 42
7, 29490, Control_c, 5, 11, 41
7, 29495, Control_c, 5, 11, 40
7, 29500, Control_c, 5, 11, 39
7, 29510, Control_c, 5, 11, 38
7, 29515, Control_c, 5, 11, 37
7, 29520, Control_c, 5, 11, 36
7, 29525, Control_c, 5, 11, 35
7, 29530, Control_c, 5, 11, 34
7, 29540, Control_c, 5, 11, 33
7, 29545, Control_c, 5, 11, 32
7, 29550, Control_c, 5, 11, 31
7, 29555, Control_c, 5, 11, 30
7, 29565, Control_c, 5, 11, 29
7, 29570, Control_c, 5, 11, 28
7, 29575, Control_c, 5, 11, 27
7, 29580, Control_c, 5, 11, 26
7, 29585, Control_c, 5, 11, 25
7, 29595, Control_c, 5, 11, 24
7, 29600, Control_c, 5, 11, 23
7, 29605, Control_c, 5, 11, 22
7, 29610, Control_c, 5, 11, 21
7, 29620, Control_c, 5, 11, 20
7, 29625, Control_c, 5, 11, 19
7, 29630, Control_c, 5, 11, 18
7, 29635, Control_c, 5, 11, 17
7, 29640, Note_on_c, 5, 86, 0
7, 29640, Note_on_c, 5, 81, 0
7, 29640, Note_on_c, 5, 76, 0
7, 29640, Control_c, 5, 11, 16
7, 29640, End_track
8, 0, Start_track
8, 0, Title_t, "A7-Piccolo     "
8, 135, Control_c, 6, 91, 60
8, 136, Control_c, 6, 93, 10
8, 150, Control_c, 6, 0, 0
8, 151, Control_c, 6, 32, 2
8, 152, Program_c, 6, 72
8, 153, Control_c, 6, 7, 95
8, 153, Control_c, 6, 10, 22
8, 1440, Note_on_c, 6, 89, 80
8, 1458, Note_on_c, 6, 89, 0
8, 1460, Note_on_c, 6, 87, 80
8, 1478, Note_on_c, 6, 87, 0
8, 1480, Note_on_c, 6, 85, 80
8, 1498, Note_on_c, 6, 85, 0
8, 1500, Note_on_c, 6, 80, 80
8, 1518, Note_on_c, 6, 80, 0
8, 1520, Note_on_c, 6, 78, 80
8, 1538, Note_on_c, 6, 78, 0
8, 1540, Note_on_c, 6, 75, 80
8, 1558, Note_on_c, 6, 75, 0
8, 1560, Note_on_c, 6, 73, 45
8, 1578, Note_on_c, 6, 73, 0
8, 1580, Note_on_c, 6, 75, 45
8, 1598, Note_on_c, 6, 75, 0
8, 1600, Note_on_c, 6, 78, 45
8, 1618, Note_on_c, 6, 78, 0
8, 1620, Note_on_c, 6, 80, 45
8, 1638, Note_on_c, 6, 80, 0
8, 1640, Note_on_c, 6, 85, 45
8, 1658, Note_on_c, 6, 85, 0
8, 1660, Note_on_c, 6, 87, 45
8, 1678, Note_on_c, 6, 87, 0
8, 1680, Note_on_c, 6, 89, 80
8, 1698, Note_on_c, 6, 89, 0
8, 1700, Note_on_c, 6, 87, 80
8, 1718, Note_on_c, 6, 87, 0
8, 1720, Note_on_c, 6, 85, 80
8, 1738, Note_on_c, 6, 85, 0
8, 1740, Note_on_c, 6, 80, 80
8, 1758, Note_on_c, 6, 80, 0
8, 1760, Note_on_c, 6, 78, 80
8, 1778, Note_on_c, 6, 78, 0
8, 1780, Note_on_c, 6, 75, 80
8, 1798, Note_on_c, 6, 75, 0
8, 1800, Note_on_c, 6, 73, 44
8, 1818, Note_on_c, 6, 73, 0
8, 1820, Note_on_c, 6, 75, 44
8, 1838, Note_on_c, 6, 75, 0
8, 1840, Note_on_c, 6, 78, 44
8, 1858, Note_on_c, 6, 78, 0
8, 1860, Note_on_c, 6, 80, 44
8, 1878, Note_on_c, 6, 80, 0
8, 1880, Note_on_c, 6, 85, 44
8, 1898, Note_on_c, 6, 85, 0
8, 1900, Note_on_c, 6, 87, 44
8, 1918, Note_on_c, 6, 87, 0
8, 1920, Note_on_c, 6, 89, 80
8, 1938, Note_on_c, 6, 89, 0
8, 1940, Note_on_c, 6, 87, 80
8, 1958, Note_on_c, 6, 87, 0
8, 1960, Note_on_c, 6, 85, 80
8, 1978, Note_on_c, 6, 85, 0
8, 1980, Note_on_c, 6, 80, 80
8, 1998, Note_on_c, 6, 80, 0
8, 2000, Note_on_c, 6, 78, 80
8, 2018, Note_on_c, 6, 78, 0
8, 2020, Note_on_c, 6, 75, 80
8, 2038, Note_on_c, 6, 75, 0
8, 2040, Note_on_c, 6, 73, 44
8, 2058, Note_on_c, 6, 73, 0
8, 2060, Note_on_c, 6, 75, 44
8, 2078, Note_on_c, 6, 75, 0
8, 2080, Note_on_c, 6, 78, 44
8, 2098, Note_on_c, 6, 78, 0
8, 2100, Note_on_c, 6, 80, 45
8, 2118, Note_on_c, 6, 80, 0
8, 2120, Note_on_c, 6, 85, 45
8, 2138, Note_on_c, 6, 85, 0
8, 2140, Note_on_c, 6, 87, 45
8, 2158, Note_on_c, 6, 87, 0
8, 2160, Note_on_c, 6, 89, 81
8, 2178, Note_on_c, 6, 89, 0
8, 2180, Note_on_c, 6, 87, 80
8, 2198, Note_on_c, 6, 87, 0
8, 2200, Note_on_c, 6, 85, 80
8, 2218, Note_on_c, 6, 85, 0
8, 2220, Note_on_c, 6, 80, 80
8, 2238, Note_on_c, 6, 80, 0
8, 2240, Note_on_c, 6, 78, 80
8, 2258, Note_on_c, 6, 78, 0
8, 2260, Note_on_c, 6, 75, 80
8, 2278, Note_on_c, 6, 75, 0
8, 2280, Note_on_c, 6, 73, 47
8, 2298, Note_on_c, 6, 73, 0
8, 2300, Note_on_c, 6, 75, 47
8, 2318, Note_on_c, 6, 75, 0
8, 2320, Note_on_c, 6, 78, 47
8, 2338, Note_on_c, 6, 78, 0
8, 2340, Note_on_c, 6, 80, 47
8, 2358, Note_on_c, 6, 80, 0
8, 2360, Note_on_c, 6, 85, 47
8, 2378, Note_on_c, 6, 85, 0
8, 2380, Note_on_c, 6, 87, 47
8, 2398, Note_on_c, 6, 87, 0
8, 2400, Note_on_c, 6, 85, 80
8, 2418, Note_on_c, 6, 85, 0
8, 2420, Note_on_c, 6, 83, 80
8, 2438, Note_on_c, 6, 83, 0
8, 2440, Note_on_c, 6, 78, 80
8, 2458, Note_on_c, 6, 78, 0
8, 2460, Note_on_c, 6, 74, 80
8, 2478, Note_on_c, 6, 74, 0
8, 2480, Note_on_c, 6, 71, 80
8, 2498, Note_on_c, 6, 71, 0
8, 2500, Note_on_c, 6, 69, 80
8, 2518, Note_on_c, 6, 69, 0
8, 2520, Note_on_c, 6, 66, 49
8, 2538, Note_on_c, 6, 66, 0
8, 2540, Note_on_c, 6, 69, 49
8, 2558, Note_on_c, 6, 69, 0
8, 2560, Note_on_c, 6, 71, 49
8, 2578, Note_on_c, 6, 71, 0
8, 2580, Note_on_c, 6, 74, 48
8, 2598, Note_on_c, 6, 74, 0
8, 2600, Note_on_c, 6, 78, 48
8, 2618, Note_on_c, 6, 78, 0
8, 2620, Note_on_c, 6, 83, 48
8, 2638, Note_on_c, 6, 83, 0
8, 2640, Note_on_c, 6, 85, 80
8, 2658, Note_on_c, 6, 85, 0
8, 2660, Note_on_c, 6, 83, 80
8, 2678, Note_on_c, 6, 83, 0
8, 2680, Note_on_c, 6, 78, 80
8, 2698, Note_on_c, 6, 78, 0
8, 2700, Note_on_c, 6, 74, 80
8, 2718, Note_on_c, 6, 74, 0
8, 2720, Note_on_c, 6, 71, 80
8, 2738, Note_on_c, 6, 71, 0
8, 2740, Note_on_c, 6, 69, 80
8, 2758, Note_on_c, 6, 69, 0
8, 2760, Note_on_c, 6, 66, 47
8, 2778, Note_on_c, 6, 66, 0
8, 2780, Note_on_c, 6, 69, 47
8, 2798, Note_on_c, 6, 69, 0
8, 2800, Note_on_c, 6, 71, 47
8, 2818, Note_on_c, 6, 71, 0
8, 2820, Note_on_c, 6, 74, 47
8, 2838, Note_on_c, 6, 74, 0
8, 2840, Note_on_c, 6, 78, 47
8, 2858, Note_on_c, 6, 78, 0
8, 2860, Note_on_c, 6, 83, 47
8, 2878, Note_on_c, 6, 83, 0
8, 2880, Note_on_c, 6, 85, 80
8, 2898, Note_on_c, 6, 85, 0
8, 2900, Note_on_c, 6, 83, 80
8, 2918, Note_on_c, 6, 83, 0
8, 2920, Note_on_c, 6, 78, 80
8, 2938, Note_on_c, 6, 78, 0
8, 2940, Note_on_c, 6, 74, 80
8, 2958, Note_on_c, 6, 74, 0
8, 2960, Note_on_c, 6, 71, 80
8, 2978, Note_on_c, 6, 71, 0
8, 2980, Note_on_c, 6, 69, 80
8, 2998, Note_on_c, 6, 69, 0
8, 3000, Note_on_c, 6, 66, 49
8, 3018, Note_on_c, 6, 66, 0
8, 3020, Note_on_c, 6, 69, 49
8, 3038, Note_on_c, 6, 69, 0
8, 3040, Note_on_c, 6, 71, 49
8, 3058, Note_on_c, 6, 71, 0
8, 3060, Note_on_c, 6, 74, 49
8, 3078, Note_on_c, 6, 74, 0
8, 3080, Note_on_c, 6, 78, 49
8, 3098, Note_on_c, 6, 78, 0
8, 3100, Note_on_c, 6, 83, 49
8, 3118, Note_on_c, 6, 83, 0
8, 3120, Note_on_c, 6, 85, 80
8, 3138, Note_on_c, 6, 85, 0
8, 3140, Note_on_c, 6, 83, 80
8, 3158, Note_on_c, 6, 83, 0
8, 3160, Note_on_c, 6, 78, 80
8, 3178, Note_on_c, 6, 78, 0
8, 3180, Note_on_c, 6, 74, 80
8, 3198, Note_on_c, 6, 74, 0
8, 3200, Note_on_c, 6, 71, 80
8, 3218, Note_on_c, 6, 71, 0
8, 3220, Note_on_c, 6, 69, 80
8, 3238, Note_on_c, 6, 69, 0
8, 3240, Note_on_c, 6, 66, 50
8, 3258, Note_on_c, 6, 66, 0
8, 3260, Note_on_c, 6, 69, 50
8, 3278, Note_on_c, 6, 69, 0
8, 3280, Note_on_c, 6, 71, 50
8, 3298, Note_on_c, 6, 71, 0
8, 3300, Note_on_c, 6, 74, 50
8, 3318, Note_on_c, 6, 74, 0
8, 3320, Note_on_c, 6, 78, 50
8, 3338, Note_on_c, 6, 78, 0
8, 3340, Note_on_c, 6, 83, 50
8, 3358, Note_on_c, 6, 83, 0
8, 3360, Note_on_c, 6, 87, 80
8, 3378, Note_on_c, 6, 87, 0
8, 3380, Note_on_c, 6, 85, 80
8, 3398, Note_on_c, 6, 85, 0
8, 3400, Note_on_c, 6, 83, 80
8, 3418, Note_on_c, 6, 83, 0
8, 3420, Note_on_c, 6, 78, 80
8, 3438, Note_on_c, 6, 78, 0
8, 3440, Note_on_c, 6, 75, 80
8, 3458, Note_on_c, 6, 75, 0
8, 3460, Note_on_c, 6, 71, 80
8, 3478, Note_on_c, 6, 71, 0
8, 3480, Note_on_c, 6, 66, 49
8, 3498, Note_on_c, 6, 66, 0
8, 3500, Note_on_c, 6, 71, 49
8, 3518, Note_on_c, 6, 71, 0
8, 3520, Note_on_c, 6, 75, 49
8, 3538, Note_on_c, 6, 75, 0
8, 3540, Note_on_c, 6, 78, 49
8, 3558, Note_on_c, 6, 78, 0
8, 3560, Note_on_c, 6, 83, 49
8, 3578, Note_on_c, 6, 83, 0
8, 3580, Note_on_c, 6, 85, 49
8, 3598, Note_on_c, 6, 85, 0
8, 3600, Note_on_c, 6, 87, 80
8, 3618, Note_on_c, 6, 87, 0
8, 3620, Note_on_c, 6, 85, 80
8, 3638, Note_on_c, 6, 85, 0
8, 3640, Note_on_c, 6, 83, 80
8, 3658, Note_on_c, 6, 83, 0
8, 3660, Note_on_c, 6, 78, 80
8, 3678, Note_on_c, 6, 78, 0
8, 3680, Note_on_c, 6, 75, 80
8, 3698, Note_on_c, 6, 75, 0
8, 3700, Note_on_c, 6, 71, 80
8, 3718, Note_on_c, 6, 71, 0
8, 3720, Note_on_c, 6, 66, 49
8, 3738, Note_on_c, 6, 66, 0
8, 3740, Note_on_c, 6, 71, 49
8, 3758, Note_on_c, 6, 71, 0
8, 3760, Note_on_c, 6, 75, 49
8, 3778, Note_on_c, 6, 75, 0
8, 3780, Note_on_c, 6, 78, 49
8, 3798, Note_on_c, 6, 78, 0
8, 3800, Note_on_c, 6, 83, 49
8, 3818, Note_on_c, 6, 83, 0
8, 3820, Note_on_c, 6, 85, 49
8, 3838, Note_on_c, 6, 85, 0
8, 3840, Note_on_c, 6, 87, 80
8, 3858, Note_on_c, 6, 87, 0
8, 3860, Note_on_c, 6, 85, 80
8, 3878, Note_on_c, 6, 85, 0
8, 3880, Note_on_c, 6, 83, 80
8, 3898, Note_on_c, 6, 83, 0
8, 3900, Note_on_c, 6, 78, 80
8, 3918, Note_on_c, 6, 78, 0
8, 3920, Note_on_c, 6, 75, 80
8, 3938, Note_on_c, 6, 75, 0
8, 3940, Note_on_c, 6, 71, 80
8, 3958, Note_on_c, 6, 71, 0
8, 3960, Note_on_c, 6, 66, 49
8, 3978, Note_on_c, 6, 66, 0
8, 3980, Note_on_c, 6, 71, 49
8, 3998, Note_on_c, 6, 71, 0
8, 4000, Note_on_c, 6, 75, 49
8, 4018, Note_on_c, 6, 75, 0
8, 4020, Note_on_c, 6, 78, 49
8, 4038, Note_on_c, 6, 78, 0
8, 4040, Note_on_c, 6, 83, 49
8, 4058, Note_on_c, 6, 83, 0
8, 4060, Note_on_c, 6, 85, 49
8, 4078, Note_on_c, 6, 85, 0
8, 4080, Note_on_c, 6, 87, 80
8, 4098, Note_on_c, 6, 87, 0
8, 4100, Note_on_c, 6, 85, 80
8, 4118, Note_on_c, 6, 85, 0
8, 4120, Note_on_c, 6, 83, 80
8, 4138, Note_on_c, 6, 83, 0
8, 4140, Note_on_c, 6, 78, 80
8, 4158, Note_on_c, 6, 78, 0
8, 4160, Note_on_c, 6, 75, 80
8, 4178, Note_on_c, 6, 75, 0
8, 4180, Note_on_c, 6, 71, 80
8, 4198, Note_on_c, 6, 71, 0
8, 4200, Note_on_c, 6, 66, 49
8, 4218, Note_on_c, 6, 66, 0
8, 4220, Note_on_c, 6, 71, 49
8, 4238, Note_on_c, 6, 71, 0
8, 4240, Note_on_c, 6, 75, 49
8, 4258, Note_on_c, 6, 75, 0
8, 4260, Note_on_c, 6, 78, 48
8, 4278, Note_on_c, 6, 78, 0
8, 4280, Note_on_c, 6, 83, 48
8, 4298, Note_on_c, 6, 83, 0
8, 4300, Note_on_c, 6, 85, 48
8, 4318, Note_on_c, 6, 85, 0
8, 4320, Note_on_c, 6, 87, 80
8, 4338, Note_on_c, 6, 87, 0
8, 4340, Note_on_c, 6, 85, 80
8, 4358, Note_on_c, 6, 85, 0
8, 4360, Note_on_c, 6, 83, 80
8, 4378, Note_on_c, 6, 83, 0
8, 4380, Note_on_c, 6, 78, 80
8, 4398, Note_on_c, 6, 78, 0
8, 4400, Note_on_c, 6, 75, 80
8, 4418, Note_on_c, 6, 75, 0
8, 4420, Note_on_c, 6, 71, 80
8, 4438, Note_on_c, 6, 71, 0
8, 4440, Note_on_c, 6, 66, 53
8, 4458, Note_on_c, 6, 66, 0
8, 4460, Note_on_c, 6, 71, 53
8, 4478, Note_on_c, 6, 71, 0
8, 4480, Note_on_c, 6, 75, 52
8, 4498, Note_on_c, 6, 75, 0
8, 4500, Note_on_c, 6, 78, 52
8, 4518, Note_on_c, 6, 78, 0
8, 4520, Note_on_c, 6, 83, 51
8, 4538, Note_on_c, 6, 83, 0
8, 4540, Note_on_c, 6, 85, 51
8, 4558, Note_on_c, 6, 85, 0
8, 4560, Note_on_c, 6, 87, 80
8, 4578, Note_on_c, 6, 87, 0
8, 4580, Note_on_c, 6, 85, 80
8, 4598, Note_on_c, 6, 85, 0
8, 4600, Note_on_c, 6, 83, 80
8, 4618, Note_on_c, 6, 83, 0
8, 4620, Note_on_c, 6, 78, 80
8, 4638, Note_on_c, 6, 78, 0
8, 4640, Note_on_c, 6, 75, 80
8, 4658, Note_on_c, 6, 75, 0
8, 4660, Note_on_c, 6, 71, 80
8, 4678, Note_on_c, 6, 71, 0
8, 4680, Note_on_c, 6, 66, 52
8, 4698, Note_on_c, 6, 66, 0
8, 4700, Note_on_c, 6, 71, 52
8, 4718, Note_on_c, 6, 71, 0
8, 4720, Note_on_c, 6, 75, 52
8, 4738, Note_on_c, 6, 75, 0
8, 4740, Note_on_c, 6, 78, 52
8, 4758, Note_on_c, 6, 78, 0
8, 4760, Note_on_c, 6, 83, 52
8, 4778, Note_on_c, 6, 83, 0
8, 4780, Note_on_c, 6, 85, 52
8, 4798, Note_on_c, 6, 85, 0
8, 4800, Note_on_c, 6, 87, 80
8, 4818, Note_on_c, 6, 87, 0
8, 4820, Note_on_c, 6, 85, 80
8, 4838, Note_on_c, 6, 85, 0
8, 4840, Note_on_c, 6, 83, 80
8, 4858, Note_on_c, 6, 83, 0
8, 4860, Note_on_c, 6, 78, 80
8, 4878, Note_on_c, 6, 78, 0
8, 4880, Note_on_c, 6, 75, 80
8, 4898, Note_on_c, 6, 75, 0
8, 4900, Note_on_c, 6, 71, 80
8, 4918, Note_on_c, 6, 71, 0
8, 4920, Note_on_c, 6, 66, 52
8, 4938, Note_on_c, 6, 66, 0
8, 4940, Note_on_c, 6, 71, 52
8, 4958, Note_on_c, 6, 71, 0
8, 4960, Note_on_c, 6, 75, 52
8, 4978, Note_on_c, 6, 75, 0
8, 4980, Note_on_c, 6, 78, 52
8, 4998, Note_on_c, 6, 78, 0
8, 5000, Note_on_c, 6, 83, 52
8, 5018, Note_on_c, 6, 83, 0
8, 5020, Note_on_c, 6, 85, 52
8, 5038, Note_on_c, 6, 85, 0
8, 5040, Note_on_c, 6, 87, 80
8, 5058, Note_on_c, 6, 87, 0
8, 5060, Note_on_c, 6, 85, 80
8, 5078, Note_on_c, 6, 85, 0
8, 5080, Note_on_c, 6, 83, 80
8, 5098, Note_on_c, 6, 83, 0
8, 5100, Note_on_c, 6, 78, 80
8, 5118, Note_on_c, 6, 78, 0
8, 5120, Note_on_c, 6, 75, 80
8, 5138, Note_on_c, 6, 75, 0
8, 5140, Note_on_c, 6, 71, 80
8, 5158, Note_on_c, 6, 71, 0
8, 5160, Note_on_c, 6, 66, 52
8, 5178, Note_on_c, 6, 66, 0
8, 5180, Note_on_c, 6, 71, 52
8, 5198, Note_on_c, 6, 71, 0
8, 5200, Note_on_c, 6, 75, 52
8, 5218, Note_on_c, 6, 75, 0
8, 5220, Note_on_c, 6, 78, 52
8, 5238, Note_on_c, 6, 78, 0
8, 5240, Note_on_c, 6, 83, 52
8, 5258, Note_on_c, 6, 83, 0
8, 5260, Note_on_c, 6, 85, 52
8, 5278, Note_on_c, 6, 85, 0
8, 5280, Note_on_c, 6, 85, 80
8, 5298, Note_on_c, 6, 85, 0
8, 5300, Note_on_c, 6, 83, 80
8, 5318, Note_on_c, 6, 83, 0
8, 5320, Note_on_c, 6, 81, 80
8, 5338, Note_on_c, 6, 81, 0
8, 5340, Note_on_c, 6, 78, 80
8, 5358, Note_on_c, 6, 78, 0
8, 5360, Note_on_c, 6, 73, 80
8, 5378, Note_on_c, 6, 73, 0
8, 5380, Note_on_c, 6, 69, 80
8, 5398, Note_on_c, 6, 69, 0
8, 5400, Note_on_c, 6, 66, 49
8, 5418, Note_on_c, 6, 66, 0
8, 5420, Note_on_c, 6, 69, 49
8, 5438, Note_on_c, 6, 69, 0
8, 5440, Note_on_c, 6, 73, 49
8, 5458, Note_on_c, 6, 73, 0
8, 5460, Note_on_c, 6, 78, 48
8, 5478, Note_on_c, 6, 78, 0
8, 5480, Note_on_c, 6, 81, 48
8, 5498, Note_on_c, 6, 81, 0
8, 5500, Note_on_c, 6, 83, 48
8, 5518, Note_on_c, 6, 83, 0
8, 5520, Note_on_c, 6, 85, 80
8, 5538, Note_on_c, 6, 85, 0
8, 5540, Note_on_c, 6, 83, 80
8, 5558, Note_on_c, 6, 83, 0
8, 5560, Note_on_c, 6, 81, 80
8, 5578, Note_on_c, 6, 81, 0
8, 5580, Note_on_c, 6, 78, 80
8, 5598, Note_on_c, 6, 78, 0
8, 5600, Note_on_c, 6, 73, 80
8, 5618, Note_on_c, 6, 73, 0
8, 5620, Note_on_c, 6, 69, 80
8, 5638, Note_on_c, 6, 69, 0
8, 5640, Note_on_c, 6, 66, 49
8, 5658, Note_on_c, 6, 66, 0
8, 5660, Note_on_c, 6, 69, 49
8, 5678, Note_on_c, 6, 69, 0
8, 5680, Note_on_c, 6, 73, 49
8, 5698, Note_on_c, 6, 73, 0
8, 5700, Note_on_c, 6, 78, 48
8, 5718, Note_on_c, 6, 78, 0
8, 5720, Note_on_c, 6, 81, 48
8, 5738, Note_on_c, 6, 81, 0
8, 5740, Note_on_c, 6, 83, 48
8, 5758, Note_on_c, 6, 83, 0
8, 5760, Note_on_c, 6, 85, 80
8, 5760, Note_on_c, 6, 85, 80
8, 5778, Note_on_c, 6, 85, 0
8, 5778, Note_on_c, 6, 85, 0
8, 5780, Note_on_c, 6, 83, 80
8, 5780, Note_on_c, 6, 83, 80
8, 5798, Note_on_c, 6, 83, 0
8, 5798, Note_on_c, 6, 83, 0
8, 5800, Note_on_c, 6, 81, 80
8, 5800, Note_on_c, 6, 81, 80
8, 5818, Note_on_c, 6, 81, 0
8, 5818, Note_on_c, 6, 81, 0
8, 5820, Note_on_c, 6, 78, 80
8, 5820, Note_on_c, 6, 78, 80
8, 5838, Note_on_c, 6, 78, 0
8, 5838, Note_on_c, 6, 78, 0
8, 5840, Note_on_c, 6, 73, 80
8, 5840, Note_on_c, 6, 73, 80
8, 5858, Note_on_c, 6, 73, 0
8, 5858, Note_on_c, 6, 73, 0
8, 5860, Note_on_c, 6, 69, 80
8, 5860, Note_on_c, 6, 69, 80
8, 5878, Note_on_c, 6, 69, 0
8, 5878, Note_on_c, 6, 69, 0
8, 5880, Note_on_c, 6, 66, 49
8, 5880, Note_on_c, 6, 66, 49
8, 5898, Note_on_c, 6, 66, 0
8, 5898, Note_on_c, 6, 66, 0
8, 5900, Note_on_c, 6, 69, 49
8, 5900, Note_on_c, 6, 69, 49
8, 5918, Note_on_c, 6, 69, 0
8, 5918, Note_on_c, 6, 69, 0
8, 5920, Note_on_c, 6, 73, 49
8, 5920, Note_on_c, 6, 73, 49
8, 5938, Note_on_c, 6, 73, 0
8, 5938, Note_on_c, 6, 73, 0
8, 5940, Note_on_c, 6, 78, 48
8, 5940, Note_on_c, 6, 78, 48
8, 5958, Note_on_c, 6, 78, 0
8, 5958, Note_on_c, 6, 78, 0
8, 5960, Note_on_c, 6, 81, 48
8, 5960, Note_on_c, 6, 81, 48
8, 5978, Note_on_c, 6, 81, 0
8, 5978, Note_on_c, 6, 81, 0
8, 5980, Note_on_c, 6, 83, 48
8, 5980, Note_on_c, 6, 83, 48
8, 5998, Note_on_c, 6, 83, 0
8, 5998, Note_on_c, 6, 83, 0
8, 6000, Note_on_c, 6, 85, 80
8, 6000, Note_on_c, 6, 85, 80
8, 6018, Note_on_c, 6, 85, 0
8, 6018, Note_on_c, 6, 85, 0
8, 6020, Note_on_c, 6, 83, 80
8, 6020, Note_on_c, 6, 83, 80
8, 6038, Note_on_c, 6, 83, 0
8, 6038, Note_on_c, 6, 83, 0
8, 6040, Note_on_c, 6, 81, 80
8, 6040, Note_on_c, 6, 81, 80
8, 6058, Note_on_c, 6, 81, 0
8, 6058, Note_on_c, 6, 81, 0
8, 6060, Note_on_c, 6, 78, 80
8, 6060, Note_on_c, 6, 78, 80
8, 6078, Note_on_c, 6, 78, 0
8, 6078, Note_on_c, 6, 78, 0
8, 6080, Note_on_c, 6, 73, 80
8, 6080, Note_on_c, 6, 73, 80
8, 6098, Note_on_c, 6, 73, 0
8, 6098, Note_on_c, 6, 73, 0
8, 6100, Note_on_c, 6, 69, 80
8, 6100, Note_on_c, 6, 69, 80
8, 6118, Note_on_c, 6, 69, 0
8, 6118, Note_on_c, 6, 69, 0
8, 6120, Note_on_c, 6, 66, 49
8, 6120, Note_on_c, 6, 66, 49
8, 6138, Note_on_c, 6, 66, 0
8, 6138, Note_on_c, 6, 66, 0
8, 6140, Note_on_c, 6, 69, 49
8, 6140, Note_on_c, 6, 69, 49
8, 6158, Note_on_c, 6, 69, 0
8, 6158, Note_on_c, 6, 69, 0
8, 6160, Note_on_c, 6, 73, 49
8, 6160, Note_on_c, 6, 73, 49
8, 6178, Note_on_c, 6, 73, 0
8, 6178, Note_on_c, 6, 73, 0
8, 6180, Note_on_c, 6, 78, 48
8, 6180, Note_on_c, 6, 78, 48
8, 6198, Note_on_c, 6, 78, 0
8, 6198, Note_on_c, 6, 78, 0
8, 6200, Note_on_c, 6, 81, 48
8, 6200, Note_on_c, 6, 81, 48
8, 6218, Note_on_c, 6, 81, 0
8, 6218, Note_on_c, 6, 81, 0
8, 6220, Note_on_c, 6, 83, 48
8, 6220, Note_on_c, 6, 83, 48
8, 6238, Note_on_c, 6, 83, 0
8, 6238, Note_on_c, 6, 83, 0
8, 6240, Note_on_c, 6, 85, 80
8, 6240, Note_on_c, 6, 85, 80
8, 6258, Note_on_c, 6, 85, 0
8, 6258, Note_on_c, 6, 85, 0
8, 6260, Note_on_c, 6, 83, 80
8, 6260, Note_on_c, 6, 83, 80
8, 6278, Note_on_c, 6, 83, 0
8, 6278, Note_on_c, 6, 83, 0
8, 6280, Note_on_c, 6, 81, 80
8, 6280, Note_on_c, 6, 81, 80
8, 6298, Note_on_c, 6, 81, 0
8, 6298, Note_on_c, 6, 81, 0
8, 6300, Note_on_c, 6, 78, 80
8, 6300, Note_on_c, 6, 78, 80
8, 6318, Note_on_c, 6, 78, 0
8, 6318, Note_on_c, 6, 78, 0
8, 6320, Note_on_c, 6, 73, 80
8, 6320, Note_on_c, 6, 73, 80
8, 6338, Note_on_c, 6, 73, 0
8, 6338, Note_on_c, 6, 73, 0
8, 6340, Note_on_c, 6, 69, 80
8, 6340, Note_on_c, 6, 69, 80
8, 6358, Note_on_c, 6, 69, 0
8, 6358, Note_on_c, 6, 69, 0
8, 6360, Note_on_c, 6, 66, 49
8, 6360, Note_on_c, 6, 66, 49
8, 6378, Note_on_c, 6, 66, 0
8, 6378, Note_on_c, 6, 66, 0
8, 6380, Note_on_c, 6, 69, 49
8, 6380, Note_on_c, 6, 69, 49
8, 6398, Note_on_c, 6, 69, 0
8, 6398, Note_on_c, 6, 69, 0
8, 6400, Note_on_c, 6, 73, 49
8, 6400, Note_on_c, 6, 73, 49
8, 6418, Note_on_c, 6, 73, 0
8, 6418, Note_on_c, 6, 73, 0
8, 6420, Note_on_c, 6, 78, 48
8, 6420, Note_on_c, 6, 78, 48
8, 6438, Note_on_c, 6, 78, 0
8, 6438, Note_on_c, 6, 78, 0
8, 6440, Note_on_c, 6, 81, 48
8, 6440, Note_on_c, 6, 81, 48
8, 6458, Note_on_c, 6, 81, 0
8, 6458, Note_on_c, 6, 81, 0
8, 6460, Note_on_c, 6, 83, 48
8, 6460, Note_on_c, 6, 83, 48
8, 6478, Note_on_c, 6, 83, 0
8, 6478, Note_on_c, 6, 83, 0
8, 6480, Note_on_c, 6, 85, 80
8, 6480, Note_on_c, 6, 85, 80
8, 6498, Note_on_c, 6, 85, 0
8, 6498, Note_on_c, 6, 85, 0
8, 6500, Note_on_c, 6, 83, 80
8, 6500, Note_on_c, 6, 83, 80
8, 6518, Note_on_c, 6, 83, 0
8, 6518, Note_on_c, 6, 83, 0
8, 6520, Note_on_c, 6, 81, 80
8, 6520, Note_on_c, 6, 81, 80
8, 6538, Note_on_c, 6, 81, 0
8, 6538, Note_on_c, 6, 81, 0
8, 6540, Note_on_c, 6, 78, 80
8, 6540, Note_on_c, 6, 78, 80
8, 6558, Note_on_c, 6, 78, 0
8, 6558, Note_on_c, 6, 78, 0
8, 6560, Note_on_c, 6, 73, 80
8, 6560, Note_on_c, 6, 73, 80
8, 6578, Note_on_c, 6, 73, 0
8, 6578, Note_on_c, 6, 73, 0
8, 6580, Note_on_c, 6, 69, 80
8, 6580, Note_on_c, 6, 69, 80
8, 6598, Note_on_c, 6, 69, 0
8, 6598, Note_on_c, 6, 69, 0
8, 6600, Note_on_c, 6, 66, 49
8, 6600, Note_on_c, 6, 66, 49
8, 6618, Note_on_c, 6, 66, 0
8, 6618, Note_on_c, 6, 66, 0
8, 6620, Note_on_c, 6, 69, 49
8, 6620, Note_on_c, 6, 69, 49
8, 6638, Note_on_c, 6, 69, 0
8, 6638, Note_on_c, 6, 69, 0
8, 6640, Note_on_c, 6, 73, 49
8, 6640, Note_on_c, 6, 73, 49
8, 6658, Note_on_c, 6, 73, 0
8, 6658, Note_on_c, 6, 73, 0
8, 6660, Note_on_c, 6, 78, 48
8, 6660, Note_on_c, 6, 78, 48
8, 6678, Note_on_c, 6, 78, 0
8, 6678, Note_on_c, 6, 78, 0
8, 6680, Note_on_c, 6, 81, 48
8, 6680, Note_on_c, 6, 81, 48
8, 6698, Note_on_c, 6, 81, 0
8, 6698, Note_on_c, 6, 81, 0
8, 6700, Note_on_c, 6, 83, 48
8, 6700, Note_on_c, 6, 83, 48
8, 6718, Note_on_c, 6, 83, 0
8, 6718, Note_on_c, 6, 83, 0
8, 6720, Note_on_c, 6, 85, 80
8, 6720, Note_on_c, 6, 85, 80
8, 6738, Note_on_c, 6, 85, 0
8, 6738, Note_on_c, 6, 85, 0
8, 6740, Note_on_c, 6, 83, 80
8, 6740, Note_on_c, 6, 83, 80
8, 6758, Note_on_c, 6, 83, 0
8, 6758, Note_on_c, 6, 83, 0
8, 6760, Note_on_c, 6, 81, 80
8, 6760, Note_on_c, 6, 81, 80
8, 6778, Note_on_c, 6, 81, 0
8, 6778, Note_on_c, 6, 81, 0
8, 6780, Note_on_c, 6, 78, 80
8, 6780, Note_on_c, 6, 78, 80
8, 6798, Note_on_c, 6, 78, 0
8, 6798, Note_on_c, 6, 78, 0
8, 6800, Note_on_c, 6, 73, 80
8, 6800, Note_on_c, 6, 73, 80
8, 6818, Note_on_c, 6, 73, 0
8, 6818, Note_on_c, 6, 73, 0
8, 6820, Note_on_c, 6, 69, 80
8, 6820, Note_on_c, 6, 69, 80
8, 6838, Note_on_c, 6, 69, 0
8, 6838, Note_on_c, 6, 69, 0
8, 6840, Note_on_c, 6, 66, 49
8, 6840, Note_on_c, 6, 66, 49
8, 6858, Note_on_c, 6, 66, 0
8, 6858, Note_on_c, 6, 66, 0
8, 6860, Note_on_c, 6, 69, 49
8, 6860, Note_on_c, 6, 69, 49
8, 6878, Note_on_c, 6, 69, 0
8, 6878, Note_on_c, 6, 69, 0
8, 6880, Note_on_c, 6, 73, 49
8, 6880, Note_on_c, 6, 73, 49
8, 6898, Note_on_c, 6, 73, 0
8, 6898, Note_on_c, 6, 73, 0
8, 6900, Note_on_c, 6, 78, 48
8, 6900, Note_on_c, 6, 78, 48
8, 6918, Note_on_c, 6, 78, 0
8, 6918, Note_on_c, 6, 78, 0
8, 6920, Note_on_c, 6, 81, 48
8, 6920, Note_on_c, 6, 81, 48
8, 6938, Note_on_c, 6, 81, 0
8, 6938, Note_on_c, 6, 81, 0
8, 6940, Note_on_c, 6, 83, 48
8, 6940, Note_on_c, 6, 83, 48
8, 6958, Note_on_c, 6, 83, 0
8, 6958, Note_on_c, 6, 83, 0
8, 6960, Note_on_c, 6, 85, 80
8, 6960, Note_on_c, 6, 85, 80
8, 6978, Note_on_c, 6, 85, 0
8, 6978, Note_on_c, 6, 85, 0
8, 6980, Note_on_c, 6, 83, 80
8, 6980, Note_on_c, 6, 83, 80
8, 6998, Note_on_c, 6, 83, 0
8, 6998, Note_on_c, 6, 83, 0
8, 7000, Note_on_c, 6, 81, 80
8, 7000, Note_on_c, 6, 81, 80
8, 7018, Note_on_c, 6, 81, 0
8, 7018, Note_on_c, 6, 81, 0
8, 7020, Note_on_c, 6, 78, 80
8, 7020, Note_on_c, 6, 78, 80
8, 7038, Note_on_c, 6, 78, 0
8, 7038, Note_on_c, 6, 78, 0
8, 7040, Note_on_c, 6, 73, 80
8, 7040, Note_on_c, 6, 73, 80
8, 7058, Note_on_c, 6, 73, 0
8, 7058, Note_on_c, 6, 73, 0
8, 7060, Note_on_c, 6, 69, 80
8, 7060, Note_on_c, 6, 69, 80
8, 7078, Note_on_c, 6, 69, 0
8, 7078, Note_on_c, 6, 69, 0
8, 7080, Note_on_c, 6, 66, 49
8, 7080, Note_on_c, 6, 66, 49
8, 7098, Note_on_c, 6, 66, 0
8, 7098, Note_on_c, 6, 66, 0
8, 7100, Note_on_c, 6, 69, 49
8, 7100, Note_on_c, 6, 69, 49
8, 7118, Note_on_c, 6, 69, 0
8, 7118, Note_on_c, 6, 69, 0
8, 7120, Note_on_c, 6, 73, 49
8, 7120, Note_on_c, 6, 73, 49
8, 7138, Note_on_c, 6, 73, 0
8, 7138, Note_on_c, 6, 73, 0
8, 7140, Note_on_c, 6, 78, 48
8, 7140, Note_on_c, 6, 78, 48
8, 7158, Note_on_c, 6, 78, 0
8, 7158, Note_on_c, 6, 78, 0
8, 7160, Note_on_c, 6, 81, 48
8, 7160, Note_on_c, 6, 81, 48
8, 7178, Note_on_c, 6, 81, 0
8, 7178, Note_on_c, 6, 81, 0
8, 7180, Note_on_c, 6, 83, 48
8, 7180, Note_on_c, 6, 83, 48
8, 7198, Note_on_c, 6, 83, 0
8, 7198, Note_on_c, 6, 83, 0
8, 7200, Note_on_c, 6, 85, 79
8, 7200, Note_on_c, 6, 85, 80
8, 7218, Note_on_c, 6, 85, 0
8, 7218, Note_on_c, 6, 85, 0
8, 7220, Note_on_c, 6, 83, 79
8, 7220, Note_on_c, 6, 83, 80
8, 7238, Note_on_c, 6, 83, 0
8, 7238, Note_on_c, 6, 83, 0
8, 7240, Note_on_c, 6, 78, 79
8, 7240, Note_on_c, 6, 81, 80
8, 7258, Note_on_c, 6, 81, 0
8, 7258, Note_on_c, 6, 78, 0
8, 7260, Note_on_c, 6, 74, 79
8, 7260, Note_on_c, 6, 78, 80
8, 7278, Note_on_c, 6, 78, 0
8, 7278, Note_on_c, 6, 74, 0
8, 7280, Note_on_c, 6, 71, 79
8, 7280, Note_on_c, 6, 73, 80
8, 7298, Note_on_c, 6, 73, 0
8, 7298, Note_on_c, 6, 71, 0
8, 7300, Note_on_c, 6, 67, 79
8, 7300, Note_on_c, 6, 69, 80
8, 7318, Note_on_c, 6, 69, 0
8, 7318, Note_on_c, 6, 67, 0
8, 7320, Note_on_c, 6, 64, 50
8, 7320, Note_on_c, 6, 66, 49
8, 7338, Note_on_c, 6, 66, 0
8, 7338, Note_on_c, 6, 64, 0
8, 7340, Note_on_c, 6, 67, 50
8, 7340, Note_on_c, 6, 69, 49
8, 7358, Note_on_c, 6, 69, 0
8, 7358, Note_on_c, 6, 67, 0
8, 7360, Note_on_c, 6, 71, 50
8, 7360, Note_on_c, 6, 73, 49
8, 7378, Note_on_c, 6, 73, 0
8, 7378, Note_on_c, 6, 71, 0
8, 7380, Note_on_c, 6, 74, 50
8, 7380, Note_on_c, 6, 78, 48
8, 7398, Note_on_c, 6, 78, 0
8, 7398, Note_on_c, 6, 74, 0
8, 7400, Note_on_c, 6, 78, 50
8, 7400, Note_on_c, 6, 81, 48
8, 7418, Note_on_c, 6, 81, 0
8, 7418, Note_on_c, 6, 78, 0
8, 7420, Note_on_c, 6, 83, 50
8, 7420, Note_on_c, 6, 83, 48
8, 7438, Note_on_c, 6, 83, 0
8, 7438, Note_on_c, 6, 83, 0
8, 7440, Note_on_c, 6, 85, 80
8, 7440, Note_on_c, 6, 85, 79
8, 7458, Note_on_c, 6, 85, 0
8, 7458, Note_on_c, 6, 85, 0
8, 7460, Note_on_c, 6, 83, 80
8, 7460, Note_on_c, 6, 83, 79
8, 7478, Note_on_c, 6, 83, 0
8, 7478, Note_on_c, 6, 83, 0
8, 7480, Note_on_c, 6, 81, 80
8, 7480, Note_on_c, 6, 78, 79
8, 7498, Note_on_c, 6, 78, 0
8, 7498, Note_on_c, 6, 81, 0
8, 7500, Note_on_c, 6, 78, 80
8, 7500, Note_on_c, 6, 74, 79
8, 7518, Note_on_c, 6, 74, 0
8, 7518, Note_on_c, 6, 78, 0
8, 7520, Note_on_c, 6, 73, 80
8, 7520, Note_on_c, 6, 71, 79
8, 7538, Note_on_c, 6, 71, 0
8, 7538, Note_on_c, 6, 73, 0
8, 7540, Note_on_c, 6, 69, 80
8, 7540, Note_on_c, 6, 67, 79
8, 7558, Note_on_c, 6, 67, 0
8, 7558, Note_on_c, 6, 69, 0
8, 7560, Note_on_c, 6, 66, 49
8, 7560, Note_on_c, 6, 64, 50
8, 7578, Note_on_c, 6, 64, 0
8, 7578, Note_on_c, 6, 66, 0
8, 7580, Note_on_c, 6, 69, 49
8, 7580, Note_on_c, 6, 67, 50
8, 7598, Note_on_c, 6, 67, 0
8, 7598, Note_on_c, 6, 69, 0
8, 7600, Note_on_c, 6, 73, 49
8, 7600, Note_on_c, 6, 71, 50
8, 7618, Note_on_c, 6, 71, 0
8, 7618, Note_on_c, 6, 73, 0
8, 7620, Note_on_c, 6, 78, 48
8, 7620, Note_on_c, 6, 74, 50
8, 7638, Note_on_c, 6, 74, 0
8, 7638, Note_on_c, 6, 78, 0
8, 7640, Note_on_c, 6, 81, 48
8, 7640, Note_on_c, 6, 78, 50
8, 7658, Note_on_c, 6, 78, 0
8, 7658, Note_on_c, 6, 81, 0
8, 7660, Note_on_c, 6, 83, 48
8, 7660, Note_on_c, 6, 83, 50
8, 7678, Note_on_c, 6, 83, 0
8, 7678, Note_on_c, 6, 83, 0
8, 7680, Note_on_c, 6, 85, 79
8, 7680, Note_on_c, 6, 85, 79
8, 7698, Note_on_c, 6, 85, 0
8, 7698, Note_on_c, 6, 85, 0
8, 7700, Note_on_c, 6, 83, 79
8, 7700, Note_on_c, 6, 83, 79
8, 7718, Note_on_c, 6, 83, 0
8, 7718, Note_on_c, 6, 83, 0
8, 7720, Note_on_c, 6, 78, 79
8, 7720, Note_on_c, 6, 78, 79
8, 7738, Note_on_c, 6, 78, 0
8, 7738, Note_on_c, 6, 78, 0
8, 7740, Note_on_c, 6, 74, 79
8, 7740, Note_on_c, 6, 74, 79
8, 7758, Note_on_c, 6, 74, 0
8, 7758, Note_on_c, 6, 74, 0
8, 7760, Note_on_c, 6, 71, 79
8, 7760, Note_on_c, 6, 71, 79
8, 7778, Note_on_c, 6, 71, 0
8, 7778, Note_on_c, 6, 71, 0
8, 7780, Note_on_c, 6, 67, 79
8, 7780, Note_on_c, 6, 67, 79
8, 7798, Note_on_c, 6, 67, 0
8, 7798, Note_on_c, 6, 67, 0
8, 7800, Note_on_c, 6, 64, 50
8, 7800, Note_on_c, 6, 64, 50
8, 7818, Note_on_c, 6, 64, 0
8, 7818, Note_on_c, 6, 64, 0
8, 7820, Note_on_c, 6, 67, 50
8, 7820, Note_on_c, 6, 67, 50
8, 7838, Note_on_c, 6, 67, 0
8, 7838, Note_on_c, 6, 67, 0
8, 7840, Note_on_c, 6, 71, 50
8, 7840, Note_on_c, 6, 71, 50
8, 7858, Note_on_c, 6, 71, 0
8, 7858, Note_on_c, 6, 71, 0
8, 7860, Note_on_c, 6, 74, 50
8, 7860, Note_on_c, 6, 74, 50
8, 7878, Note_on_c, 6, 74, 0
8, 7878, Note_on_c, 6, 74, 0
8, 7880, Note_on_c, 6, 78, 50
8, 7880, Note_on_c, 6, 78, 50
8, 7898, Note_on_c, 6, 78, 0
8, 7898, Note_on_c, 6, 78, 0
8, 7900, Note_on_c, 6, 83, 50
8, 7900, Note_on_c, 6, 83, 50
8, 7918, Note_on_c, 6, 83, 0
8, 7918, Note_on_c, 6, 83, 0
8, 7920, Note_on_c, 6, 85, 79
8, 7920, Note_on_c, 6, 85, 79
8, 7938, Note_on_c, 6, 85, 0
8, 7938, Note_on_c, 6, 85, 0
8, 7940, Note_on_c, 6, 83, 79
8, 7940, Note_on_c, 6, 83, 79
8, 7958, Note_on_c, 6, 83, 0
8, 7958, Note_on_c, 6, 83, 0
8, 7960, Note_on_c, 6, 78, 79
8, 7960, Note_on_c, 6, 78, 79
8, 7978, Note_on_c, 6, 78, 0
8, 7978, Note_on_c, 6, 78, 0
8, 7980, Note_on_c, 6, 74, 79
8, 7980, Note_on_c, 6, 74, 79
8, 7998, Note_on_c, 6, 74, 0
8, 7998, Note_on_c, 6, 74, 0
8, 8000, Note_on_c, 6, 71, 79
8, 8000, Note_on_c, 6, 71, 79
8, 8018, Note_on_c, 6, 71, 0
8, 8018, Note_on_c, 6, 71, 0
8, 8020, Note_on_c, 6, 67, 79
8, 8020, Note_on_c, 6, 67, 79
8, 8038, Note_on_c, 6, 67, 0
8, 8038, Note_on_c, 6, 67, 0
8, 8040, Note_on_c, 6, 64, 50
8, 8040, Note_on_c, 6, 64, 50
8, 8058, Note_on_c, 6, 64, 0
8, 8058, Note_on_c, 6, 64, 0
8, 8060, Note_on_c, 6, 67, 50
8, 8060, Note_on_c, 6, 67, 50
8, 8078, Note_on_c, 6, 67, 0
8, 8078, Note_on_c, 6, 67, 0
8, 8080, Note_on_c, 6, 71, 50
8, 8080, Note_on_c, 6, 71, 50
8, 8098, Note_on_c, 6, 71, 0
8, 8098, Note_on_c, 6, 71, 0
8, 8100, Note_on_c, 6, 74, 50
8, 8100, Note_on_c, 6, 74, 50
8, 8118, Note_on_c, 6, 74, 0
8, 8118, Note_on_c, 6, 74, 0
8, 8120, Note_on_c, 6, 78, 50
8, 8120, Note_on_c, 6, 78, 50
8, 8138, Note_on_c, 6, 78, 0
8, 8138, Note_on_c, 6, 78, 0
8, 8140, Note_on_c, 6, 83, 50
8, 8140, Note_on_c, 6, 83, 50
8, 8158, Note_on_c, 6, 83, 0
8, 8158, Note_on_c, 6, 83, 0
8, 8160, Note_on_c, 6, 85, 79
8, 8160, Note_on_c, 6, 85, 79
8, 8178, Note_on_c, 6, 85, 0
8, 8178, Note_on_c, 6, 85, 0
8, 8180, Note_on_c, 6, 83, 79
8, 8180, Note_on_c, 6, 83, 79
8, 8198, Note_on_c, 6, 83, 0
8, 8198, Note_on_c, 6, 83, 0
8, 8200, Note_on_c, 6, 78, 79
8, 8200, Note_on_c, 6, 78, 79
8, 8218, Note_on_c, 6, 78, 0
8, 8218, Note_on_c, 6, 78, 0
8, 8220, Note_on_c, 6, 74, 79
8, 8220, Note_on_c, 6, 74, 79
8, 8238, Note_on_c, 6, 74, 0
8, 8238, Note_on_c, 6, 74, 0
8, 8240, Note_on_c, 6, 71, 79
8, 8240, Note_on_c, 6, 71, 79
8, 8258, Note_on_c, 6, 71, 0
8, 8258, Note_on_c, 6, 71, 0
8, 8260, Note_on_c, 6, 67, 79
8, 8260, Note_on_c, 6, 67, 79
8, 8278, Note_on_c, 6, 67, 0
8, 8278, Note_on_c, 6, 67, 0
8, 8280, Note_on_c, 6, 64, 50
8, 8280, Note_on_c, 6, 64, 50
8, 8298, Note_on_c, 6, 64, 0
8, 8298, Note_on_c, 6, 64, 0
8, 8300, Note_on_c, 6, 67, 50
8, 8300, Note_on_c, 6, 67, 50
8, 8318, Note_on_c, 6, 67, 0
8, 8318, Note_on_c, 6, 67, 0
8, 8320, Note_on_c, 6, 71, 50
8, 8320, Note_on_c, 6, 71, 50
8, 8338, Note_on_c, 6, 71, 0
8, 8338, Note_on_c, 6, 71, 0
8, 8340, Note_on_c, 6, 74, 50
8, 8340, Note_on_c, 6, 74, 50
8, 8358, Note_on_c, 6, 74, 0
8, 8358, Note_on_c, 6, 74, 0
8, 8360, Note_on_c, 6, 78, 50
8, 8360, Note_on_c, 6, 78, 50
8, 8378, Note_on_c, 6, 78, 0
8, 8378, Note_on_c, 6, 78, 0
8, 8380, Note_on_c, 6, 83, 50
8, 8380, Note_on_c, 6, 83, 50
8, 8398, Note_on_c, 6, 83, 0
8, 8398, Note_on_c, 6, 83, 0
8, 8400, Note_on_c, 6, 85, 79
8, 8400, Note_on_c, 6, 85, 79
8, 8418, Note_on_c, 6, 85, 0
8, 8418, Note_on_c, 6, 85, 0
8, 8420, Note_on_c, 6, 83, 79
8, 8420, Note_on_c, 6, 83, 79
8, 8438, Note_on_c, 6, 83, 0
8, 8438, Note_on_c, 6, 83, 0
8, 8440, Note_on_c, 6, 78, 79
8, 8440, Note_on_c, 6, 78, 79
8, 8458, Note_on_c, 6, 78, 0
8, 8458, Note_on_c, 6, 78, 0
8, 8460, Note_on_c, 6, 74, 79
8, 8460, Note_on_c, 6, 74, 79
8, 8478, Note_on_c, 6, 74, 0
8, 8478, Note_on_c, 6, 74, 0
8, 8480, Note_on_c, 6, 71, 79
8, 8480, Note_on_c, 6, 71, 79
8, 8498, Note_on_c, 6, 71, 0
8, 8498, Note_on_c, 6, 71, 0
8, 8500, Note_on_c, 6, 67, 79
8, 8500, Note_on_c, 6, 67, 79
8, 8518, Note_on_c, 6, 67, 0
8, 8518, Note_on_c, 6, 67, 0
8, 8520, Note_on_c, 6, 64, 50
8, 8520, Note_on_c, 6, 64, 50
8, 8538, Note_on_c, 6, 64, 0
8, 8538, Note_on_c, 6, 64, 0
8, 8540, Note_on_c, 6, 67, 50
8, 8540, Note_on_c, 6, 67, 50
8, 8558, Note_on_c, 6, 67, 0
8, 8558, Note_on_c, 6, 67, 0
8, 8560, Note_on_c, 6, 71, 50
8, 8560, Note_on_c, 6, 71, 50
8, 8578, Note_on_c, 6, 71, 0
8, 8578, Note_on_c, 6, 71, 0
8, 8580, Note_on_c, 6, 74, 50
8, 8580, Note_on_c, 6, 74, 50
8, 8598, Note_on_c, 6, 74, 0
8, 8598, Note_on_c, 6, 74, 0
8, 8600, Note_on_c, 6, 78, 50
8, 8600, Note_on_c, 6, 78, 50
8, 8618, Note_on_c, 6, 78, 0
8, 8618, Note_on_c, 6, 78, 0
8, 8620, Note_on_c, 6, 83, 50
8, 8620, Note_on_c, 6, 83, 50
8, 8638, Note_on_c, 6, 83, 0
8, 8638, Note_on_c, 6, 83, 0
8, 8640, Note_on_c, 6, 85, 79
8, 8640, Note_on_c, 6, 85, 79
8, 8658, Note_on_c, 6, 85, 0
8, 8658, Note_on_c, 6, 85, 0
8, 8660, Note_on_c, 6, 83, 79
8, 8660, Note_on_c, 6, 83, 79
8, 8678, Note_on_c, 6, 83, 0
8, 8678, Note_on_c, 6, 83, 0
8, 8680, Note_on_c, 6, 78, 79
8, 8680, Note_on_c, 6, 78, 79
8, 8698, Note_on_c, 6, 78, 0
8, 8698, Note_on_c, 6, 78, 0
8, 8700, Note_on_c, 6, 74, 79
8, 8700, Note_on_c, 6, 74, 79
8, 8718, Note_on_c, 6, 74, 0
8, 8718, Note_on_c, 6, 74, 0
8, 8720, Note_on_c, 6, 71, 79
8, 8720, Note_on_c, 6, 71, 79
8, 8738, Note_on_c, 6, 71, 0
8, 8738, Note_on_c, 6, 71, 0
8, 8740, Note_on_c, 6, 67, 79
8, 8740, Note_on_c, 6, 67, 79
8, 8758, Note_on_c, 6, 67, 0
8, 8758, Note_on_c, 6, 67, 0
8, 8760, Note_on_c, 6, 64, 50
8, 8760, Note_on_c, 6, 64, 50
8, 8778, Note_on_c, 6, 64, 0
8, 8778, Note_on_c, 6, 64, 0
8, 8780, Note_on_c, 6, 67, 50
8, 8780, Note_on_c, 6, 67, 50
8, 8798, Note_on_c, 6, 67, 0
8, 8798, Note_on_c, 6, 67, 0
8, 8800, Note_on_c, 6, 71, 50
8, 8800, Note_on_c, 6, 71, 50
8, 8818, Note_on_c, 6, 71, 0
8, 8818, Note_on_c, 6, 71, 0
8, 8820, Note_on_c, 6, 74, 50
8, 8820, Note_on_c, 6, 74, 50
8, 8838, Note_on_c, 6, 74, 0
8, 8838, Note_on_c, 6, 74, 0
8, 8840, Note_on_c, 6, 78, 50
8, 8840, Note_on_c, 6, 78, 50
8, 8858, Note_on_c, 6, 78, 0
8, 8858, Note_on_c, 6, 78, 0
8, 8860, Note_on_c, 6, 83, 50
8, 8860, Note_on_c, 6, 83, 50
8, 8878, Note_on_c, 6, 83, 0
8, 8878, Note_on_c, 6, 83, 0
8, 8880, Note_on_c, 6, 85, 79
8, 8880, Note_on_c, 6, 85, 79
8, 8898, Note_on_c, 6, 85, 0
8, 8898, Note_on_c, 6, 85, 0
8, 8900, Note_on_c, 6, 83, 79
8, 8900, Note_on_c, 6, 83, 79
8, 8918, Note_on_c, 6, 83, 0
8, 8918, Note_on_c, 6, 83, 0
8, 8920, Note_on_c, 6, 78, 79
8, 8920, Note_on_c, 6, 78, 79
8, 8938, Note_on_c, 6, 78, 0
8, 8938, Note_on_c, 6, 78, 0
8, 8940, Note_on_c, 6, 74, 79
8, 8940, Note_on_c, 6, 74, 79
8, 8958, Note_on_c, 6, 74, 0
8, 8958, Note_on_c, 6, 74, 0
8, 8960, Note_on_c, 6, 71, 79
8, 8960, Note_on_c, 6, 71, 79
8, 8978, Note_on_c, 6, 71, 0
8, 8978, Note_on_c, 6, 71, 0
8, 8980, Note_on_c, 6, 67, 79
8, 8980, Note_on_c, 6, 67, 79
8, 8998, Note_on_c, 6, 67, 0
8, 8998, Note_on_c, 6, 67, 0
8, 9000, Note_on_c, 6, 64, 50
8, 9000, Note_on_c, 6, 64, 50
8, 9018, Note_on_c, 6, 64, 0
8, 9018, Note_on_c, 6, 64, 0
8, 9020, Note_on_c, 6, 67, 50
8, 9020, Note_on_c, 6, 67, 50
8, 9038, Note_on_c, 6, 67, 0
8, 9038, Note_on_c, 6, 67, 0
8, 9040, Note_on_c, 6, 71, 50
8, 9040, Note_on_c, 6, 71, 50
8, 9058, Note_on_c, 6, 71, 0
8, 9058, Note_on_c, 6, 71, 0
8, 9060, Note_on_c, 6, 74, 50
8, 9060, Note_on_c, 6, 74, 50
8, 9078, Note_on_c, 6, 74, 0
8, 9078, Note_on_c, 6, 74, 0
8, 9080, Note_on_c, 6, 78, 50
8, 9080, Note_on_c, 6, 78, 50
8, 9098, Note_on_c, 6, 78, 0
8, 9098, Note_on_c, 6, 78, 0
8, 9100, Note_on_c, 6, 83, 50
8, 9100, Note_on_c, 6, 83, 50
8, 9118, Note_on_c, 6, 83, 0
8, 9118, Note_on_c, 6, 83, 0
8, 9120, Note_on_c, 6, 83, 79
8, 9138, Note_on_c, 6, 83, 0
8, 9140, Note_on_c, 6, 81, 79
8, 9158, Note_on_c, 6, 81, 0
8, 9160, Note_on_c, 6, 76, 79
8, 9178, Note_on_c, 6, 76, 0
8, 9180, Note_on_c, 6, 72, 79
8, 9198, Note_on_c, 6, 72, 0
8, 9200, Note_on_c, 6, 69, 79
8, 9218, Note_on_c, 6, 69, 0
8, 9220, Note_on_c, 6, 65, 79
8, 9240, Note_on_c, 6, 65, 0
8, 9240, Note_on_c, 6, 64, 51
8, 9258, Note_on_c, 6, 64, 0
8, 9260, Note_on_c, 6, 65, 51
8, 9278, Note_on_c, 6, 65, 0
8, 9280, Note_on_c, 6, 69, 51
8, 9298, Note_on_c, 6, 69, 0
8, 9300, Note_on_c, 6, 72, 51
8, 9318, Note_on_c, 6, 72, 0
8, 9320, Note_on_c, 6, 76, 51
8, 9338, Note_on_c, 6, 76, 0
8, 9340, Note_on_c, 6, 81, 51
8, 9358, Note_on_c, 6, 81, 0
8, 9360, Note_on_c, 6, 83, 79
8, 9378, Note_on_c, 6, 83, 0
8, 9380, Note_on_c, 6, 81, 79
8, 9398, Note_on_c, 6, 81, 0
8, 9400, Note_on_c, 6, 76, 79
8, 9418, Note_on_c, 6, 76, 0
8, 9420, Note_on_c, 6, 72, 79
8, 9438, Note_on_c, 6, 72, 0
8, 9440, Note_on_c, 6, 69, 79
8, 9458, Note_on_c, 6, 69, 0
8, 9460, Note_on_c, 6, 65, 79
8, 9480, Note_on_c, 6, 65, 0
8, 9480, Note_on_c, 6, 64, 50
8, 9498, Note_on_c, 6, 64, 0
8, 9500, Note_on_c, 6, 65, 50
8, 9518, Note_on_c, 6, 65, 0
8, 9520, Note_on_c, 6, 69, 50
8, 9538, Note_on_c, 6, 69, 0
8, 9540, Note_on_c, 6, 72, 50
8, 9558, Note_on_c, 6, 72, 0
8, 9560, Note_on_c, 6, 76, 50
8, 9578, Note_on_c, 6, 76, 0
8, 9580, Note_on_c, 6, 81, 50
8, 9598, Note_on_c, 6, 81, 0
8, 9600, Control_c, 6, 11, 125
8, 9600, Note_on_c, 6, 83, 79
8, 9615, Control_c, 6, 11, 124
8, 9625, Control_c, 6, 11, 123
8, 9635, Control_c, 6, 11, 122
8, 9650, Control_c, 6, 11, 121
8, 9660, Control_c, 6, 11, 120
8, 9670, Control_c, 6, 11, 119
8, 9685, Control_c, 6, 11, 118
8, 9695, Control_c, 6, 11, 117
8, 9705, Control_c, 6, 11, 116
8, 9720, Control_c, 6, 11, 115
8, 9730, Control_c, 6, 11, 114
8, 9740, Control_c, 6, 11, 113
8, 9755, Control_c, 6, 11, 112
8, 9765, Control_c, 6, 11, 111
8, 9775, Control_c, 6, 11, 110
8, 9785, Control_c, 6, 11, 109
8, 9800, Control_c, 6, 11, 108
8, 9810, Control_c, 6, 11, 107
8, 9820, Control_c, 6, 11, 106
8, 9835, Control_c, 6, 11, 105
8, 9845, Control_c, 6, 11, 104
8, 9855, Control_c, 6, 11, 103
8, 9870, Control_c, 6, 11, 102
8, 9880, Control_c, 6, 11, 101
8, 9890, Control_c, 6, 11, 100
8, 9905, Control_c, 6, 11, 99
8, 9915, Control_c, 6, 11, 98
8, 9925, Control_c, 6, 11, 97
8, 9940, Control_c, 6, 11, 96
8, 9945, Control_c, 6, 11, 96
8, 9955, Control_c, 6, 11, 95
8, 9960, Control_c, 6, 11, 94
8, 9965, Control_c, 6, 11, 93
8, 9970, Control_c, 6, 11, 92
8, 9975, Control_c, 6, 11, 91
8, 9985, Control_c, 6, 11, 90
8, 9990, Control_c, 6, 11, 89
8, 9995, Control_c, 6, 11, 88
8, 10000, Control_c, 6, 11, 87
8, 10005, Control_c, 6, 11, 86
8, 10015, Control_c, 6, 11, 85
8, 10020, Control_c, 6, 11, 84
8, 10025, Control_c, 6, 11, 83
8, 10030, Control_c, 6, 11, 82
8, 10035, Control_c, 6, 11, 81
8, 10045, Control_c, 6, 11, 80
8, 10050, Control_c, 6, 11, 79
8, 10055, Control_c, 6, 11, 78
8, 10060, Control_c, 6, 11, 77
8, 10065, Control_c, 6, 11, 76
8, 10075, Control_c, 6, 11, 75
8, 10080, Control_c, 6, 11, 74
8, 10085, Control_c, 6, 11, 73
8, 10090, Control_c, 6, 11, 72
8, 10095, Control_c, 6, 11, 71
8, 10105, Control_c, 6, 11, 70
8, 10110, Control_c, 6, 11, 69
8, 10115, Control_c, 6, 11, 68
8, 10120, Control_c, 6, 11, 67
8, 10125, Control_c, 6, 11, 66
8, 10130, Control_c, 6, 11, 65
8, 10140, Control_c, 6, 11, 64
8, 10145, Control_c, 6, 11, 63
8, 10150, Control_c, 6, 11, 62
8, 10155, Control_c, 6, 11, 61
8, 10160, Control_c, 6, 11, 60
8, 10170, Control_c, 6, 11, 59
8, 10175, Control_c, 6, 11, 58
8, 10180, Control_c, 6, 11, 57
8, 10185, Control_c, 6, 11, 56
8, 10190, Control_c, 6, 11, 55
8, 10200, Control_c, 6, 11, 54
8, 10205, Control_c, 6, 11, 53
8, 10210, Control_c, 6, 11, 52
8, 10215, Control_c, 6, 11, 51
8, 10220, Control_c, 6, 11, 50
8, 10230, Control_c, 6, 11, 49
8, 10235, Control_c, 6, 11, 48
8, 10240, Control_c, 6, 11, 47
8, 10245, Control_c, 6, 11, 46
8, 10250, Control_c, 6, 11, 45
8, 10260, Control_c, 6, 11, 44
8, 10265, Control_c, 6, 11, 43
8, 10270, Control_c, 6, 11, 42
8, 10275, Control_c, 6, 11, 41
8, 10280, Control_c, 6, 11, 40
8, 10285, Control_c, 6, 11, 39
8, 10295, Control_c, 6, 11, 38
8, 10300, Control_c, 6, 11, 37
8, 10305, Control_c, 6, 11, 36
8, 10310, Control_c, 6, 11, 35
8, 10315, Control_c, 6, 11, 34
8, 10325, Control_c, 6, 11, 33
8, 10330, Control_c, 6, 11, 32
8, 10335, Control_c, 6, 11, 31
8, 10340, Control_c, 6, 11, 30
8, 10345, Control_c, 6, 11, 29
8, 10355, Control_c, 6, 11, 28
8, 10360, Control_c, 6, 11, 27
8, 10365, Control_c, 6, 11, 26
8, 10370, Control_c, 6, 11, 25
8, 10375, Control_c, 6, 11, 24
8, 10385, Control_c, 6, 11, 23
8, 10390, Control_c, 6, 11, 22
8, 10395, Control_c, 6, 11, 21
8, 10400, Control_c, 6, 11, 20
8, 10405, Control_c, 6, 11, 19
8, 10415, Control_c, 6, 11, 18
8, 10420, Control_c, 6, 11, 17
8, 10425, Control_c, 6, 11, 16
8, 10430, Control_c, 6, 11, 15
8, 10435, Control_c, 6, 11, 14
8, 10440, Note_on_c, 6, 83, 0
8, 10440, Control_c, 6, 11, 13
8, 11015, Control_c, 6, 11, 127
8, 11040, Note_on_c, 6, 89, 80
8, 11058, Note_on_c, 6, 89, 0
8, 11060, Note_on_c, 6, 87, 80
8, 11078, Note_on_c, 6, 87, 0
8, 11080, Note_on_c, 6, 85, 80
8, 11098, Note_on_c, 6, 85, 0
8, 11100, Note_on_c, 6, 80, 80
8, 11118, Note_on_c, 6, 80, 0
8, 11120, Note_on_c, 6, 78, 80
8, 11138, Note_on_c, 6, 78, 0
8, 11140, Note_on_c, 6, 75, 80
8, 11158, Note_on_c, 6, 75, 0
8, 11160, Note_on_c, 6, 73, 45
8, 11178, Note_on_c, 6, 73, 0
8, 11180, Note_on_c, 6, 75, 45
8, 11198, Note_on_c, 6, 75, 0
8, 11200, Note_on_c, 6, 78, 45
8, 11218, Note_on_c, 6, 78, 0
8, 11220, Note_on_c, 6, 80, 45
8, 11238, Note_on_c, 6, 80, 0
8, 11240, Note_on_c, 6, 85, 45
8, 11258, Note_on_c, 6, 85, 0
8, 11260, Note_on_c, 6, 87, 45
8, 11278, Note_on_c, 6, 87, 0
8, 11280, Note_on_c, 6, 89, 80
8, 11298, Note_on_c, 6, 89, 0
8, 11300, Note_on_c, 6, 87, 80
8, 11318, Note_on_c, 6, 87, 0
8, 11320, Note_on_c, 6, 85, 80
8, 11338, Note_on_c, 6, 85, 0
8, 11340, Note_on_c, 6, 80, 80
8, 11358, Note_on_c, 6, 80, 0
8, 11360, Note_on_c, 6, 78, 80
8, 11378, Note_on_c, 6, 78, 0
8, 11380, Note_on_c, 6, 75, 80
8, 11398, Note_on_c, 6, 75, 0
8, 11400, Note_on_c, 6, 73, 44
8, 11418, Note_on_c, 6, 73, 0
8, 11420, Note_on_c, 6, 75, 44
8, 11438, Note_on_c, 6, 75, 0
8, 11440, Note_on_c, 6, 78, 44
8, 11458, Note_on_c, 6, 78, 0
8, 11460, Note_on_c, 6, 80, 44
8, 11478, Note_on_c, 6, 80, 0
8, 11480, Note_on_c, 6, 85, 44
8, 11498, Note_on_c, 6, 85, 0
8, 11500, Note_on_c, 6, 87, 44
8, 11518, Note_on_c, 6, 87, 0
8, 11520, Note_on_c, 6, 89, 80
8, 11538, Note_on_c, 6, 89, 0
8, 11540, Note_on_c, 6, 87, 80
8, 11558, Note_on_c, 6, 87, 0
8, 11560, Note_on_c, 6, 85, 80
8, 11578, Note_on_c, 6, 85, 0
8, 11580, Note_on_c, 6, 80, 80
8, 11598, Note_on_c, 6, 80, 0
8, 11600, Note_on_c, 6, 78, 80
8, 11618, Note_on_c, 6, 78, 0
8, 11620, Note_on_c, 6, 75, 80
8, 11638, Note_on_c, 6, 75, 0
8, 11640, Note_on_c, 6, 73, 44
8, 11658, Note_on_c, 6, 73, 0
8, 11660, Note_on_c, 6, 75, 44
8, 11678, Note_on_c, 6, 75, 0
8, 11680, Note_on_c, 6, 78, 44
8, 11698, Note_on_c, 6, 78, 0
8, 11700, Note_on_c, 6, 80, 45
8, 11718, Note_on_c, 6, 80, 0
8, 11720, Note_on_c, 6, 85, 45
8, 11738, Note_on_c, 6, 85, 0
8, 11740, Note_on_c, 6, 87, 45
8, 11758, Note_on_c, 6, 87, 0
8, 11760, Note_on_c, 6, 89, 81
8, 11778, Note_on_c, 6, 89, 0
8, 11780, Note_on_c, 6, 87, 80
8, 11798, Note_on_c, 6, 87, 0
8, 11800, Note_on_c, 6, 85, 80
8, 11818, Note_on_c, 6, 85, 0
8, 11820, Note_on_c, 6, 80, 80
8, 11838, Note_on_c, 6, 80, 0
8, 11840, Note_on_c, 6, 78, 80
8, 11858, Note_on_c, 6, 78, 0
8, 11860, Note_on_c, 6, 75, 80
8, 11878, Note_on_c, 6, 75, 0
8, 11880, Note_on_c, 6, 73, 47
8, 11898, Note_on_c, 6, 73, 0
8, 11900, Note_on_c, 6, 75, 47
8, 11918, Note_on_c, 6, 75, 0
8, 11920, Note_on_c, 6, 78, 47
8, 11938, Note_on_c, 6, 78, 0
8, 11940, Note_on_c, 6, 80, 47
8, 11958, Note_on_c, 6, 80, 0
8, 11960, Note_on_c, 6, 85, 47
8, 11978, Note_on_c, 6, 85, 0
8, 11980, Note_on_c, 6, 87, 47
8, 11998, Note_on_c, 6, 87, 0
8, 12000, Note_on_c, 6, 85, 80
8, 12018, Note_on_c, 6, 85, 0
8, 12020, Note_on_c, 6, 83, 80
8, 12038, Note_on_c, 6, 83, 0
8, 12040, Note_on_c, 6, 78, 80
8, 12058, Note_on_c, 6, 78, 0
8, 12060, Note_on_c, 6, 74, 80
8, 12078, Note_on_c, 6, 74, 0
8, 12080, Note_on_c, 6, 71, 80
8, 12098, Note_on_c, 6, 71, 0
8, 12100, Note_on_c, 6, 69, 80
8, 12118, Note_on_c, 6, 69, 0
8, 12120, Note_on_c, 6, 66, 49
8, 12138, Note_on_c, 6, 66, 0
8, 12140, Note_on_c, 6, 69, 49
8, 12158, Note_on_c, 6, 69, 0
8, 12160, Note_on_c, 6, 71, 49
8, 12178, Note_on_c, 6, 71, 0
8, 12180, Note_on_c, 6, 74, 48
8, 12198, Note_on_c, 6, 74, 0
8, 12200, Note_on_c, 6, 78, 48
8, 12218, Note_on_c, 6, 78, 0
8, 12220, Note_on_c, 6, 83, 48
8, 12238, Note_on_c, 6, 83, 0
8, 12240, Note_on_c, 6, 85, 80
8, 12258, Note_on_c, 6, 85, 0
8, 12260, Note_on_c, 6, 83, 80
8, 12278, Note_on_c, 6, 83, 0
8, 12280, Note_on_c, 6, 78, 80
8, 12298, Note_on_c, 6, 78, 0
8, 12300, Note_on_c, 6, 74, 80
8, 12318, Note_on_c, 6, 74, 0
8, 12320, Note_on_c, 6, 71, 80
8, 12338, Note_on_c, 6, 71, 0
8, 12340, Note_on_c, 6, 69, 80
8, 12358, Note_on_c, 6, 69, 0
8, 12360, Note_on_c, 6, 66, 47
8, 12378, Note_on_c, 6, 66, 0
8, 12380, Note_on_c, 6, 69, 47
8, 12398, Note_on_c, 6, 69, 0
8, 12400, Note_on_c, 6, 71, 47
8, 12418, Note_on_c, 6, 71, 0
8, 12420, Note_on_c, 6, 74, 47
8, 12438, Note_on_c, 6, 74, 0
8, 12440, Note_on_c, 6, 78, 47
8, 12458, Note_on_c, 6, 78, 0
8, 12460, Note_on_c, 6, 83, 47
8, 12478, Note_on_c, 6, 83, 0
8, 12480, Note_on_c, 6, 85, 80
8, 12498, Note_on_c, 6, 85, 0
8, 12500, Note_on_c, 6, 83, 80
8, 12518, Note_on_c, 6, 83, 0
8, 12520, Note_on_c, 6, 78, 80
8, 12538, Note_on_c, 6, 78, 0
8, 12540, Note_on_c, 6, 74, 80
8, 12558, Note_on_c, 6, 74, 0
8, 12560, Note_on_c, 6, 71, 80
8, 12578, Note_on_c, 6, 71, 0
8, 12580, Note_on_c, 6, 69, 80
8, 12598, Note_on_c, 6, 69, 0
8, 12600, Note_on_c, 6, 66, 49
8, 12618, Note_on_c, 6, 66, 0
8, 12620, Note_on_c, 6, 69, 49
8, 12638, Note_on_c, 6, 69, 0
8, 12640, Note_on_c, 6, 71, 49
8, 12658, Note_on_c, 6, 71, 0
8, 12660, Note_on_c, 6, 74, 49
8, 12678, Note_on_c, 6, 74, 0
8, 12680, Note_on_c, 6, 78, 49
8, 12698, Note_on_c, 6, 78, 0
8, 12700, Note_on_c, 6, 83, 49
8, 12718, Note_on_c, 6, 83, 0
8, 12720, Note_on_c, 6, 85, 80
8, 12738, Note_on_c, 6, 85, 0
8, 12740, Note_on_c, 6, 83, 80
8, 12758, Note_on_c, 6, 83, 0
8, 12760, Note_on_c, 6, 78, 80
8, 12778, Note_on_c, 6, 78, 0
8, 12780, Note_on_c, 6, 74, 80
8, 12798, Note_on_c, 6, 74, 0
8, 12800, Note_on_c, 6, 71, 80
8, 12818, Note_on_c, 6, 71, 0
8, 12820, Note_on_c, 6, 69, 80
8, 12838, Note_on_c, 6, 69, 0
8, 12840, Note_on_c, 6, 66, 50
8, 12858, Note_on_c, 6, 66, 0
8, 12860, Note_on_c, 6, 69, 50
8, 12878, Note_on_c, 6, 69, 0
8, 12880, Note_on_c, 6, 71, 50
8, 12898, Note_on_c, 6, 71, 0
8, 12900, Note_on_c, 6, 74, 50
8, 12918, Note_on_c, 6, 74, 0
8, 12920, Note_on_c, 6, 78, 50
8, 12938, Note_on_c, 6, 78, 0
8, 12940, Note_on_c, 6, 83, 50
8, 12958, Note_on_c, 6, 83, 0
8, 12960, Note_on_c, 6, 87, 80
8, 12978, Note_on_c, 6, 87, 0
8, 12980, Note_on_c, 6, 85, 80
8, 12998, Note_on_c, 6, 85, 0
8, 13000, Note_on_c, 6, 83, 80
8, 13018, Note_on_c, 6, 83, 0
8, 13020, Note_on_c, 6, 78, 80
8, 13038, Note_on_c, 6, 78, 0
8, 13040, Note_on_c, 6, 75, 80
8, 13058, Note_on_c, 6, 75, 0
8, 13060, Note_on_c, 6, 71, 80
8, 13078, Note_on_c, 6, 71, 0
8, 13080, Note_on_c, 6, 66, 49
8, 13098, Note_on_c, 6, 66, 0
8, 13100, Note_on_c, 6, 71, 49
8, 13118, Note_on_c, 6, 71, 0
8, 13120, Note_on_c, 6, 75, 49
8, 13138, Note_on_c, 6, 75, 0
8, 13140, Note_on_c, 6, 78, 49
8, 13158, Note_on_c, 6, 78, 0
8, 13160, Note_on_c, 6, 83, 49
8, 13178, Note_on_c, 6, 83, 0
8, 13180, Note_on_c, 6, 85, 49
8, 13198, Note_on_c, 6, 85, 0
8, 13200, Note_on_c, 6, 87, 80
8, 13218, Note_on_c, 6, 87, 0
8, 13220, Note_on_c, 6, 85, 80
8, 13238, Note_on_c, 6, 85, 0
8, 13240, Note_on_c, 6, 83, 80
8, 13258, Note_on_c, 6, 83, 0
8, 13260, Note_on_c, 6, 78, 80
8, 13278, Note_on_c, 6, 78, 0
8, 13280, Note_on_c, 6, 75, 80
8, 13298, Note_on_c, 6, 75, 0
8, 13300, Note_on_c, 6, 71, 80
8, 13318, Note_on_c, 6, 71, 0
8, 13320, Note_on_c, 6, 66, 49
8, 13338, Note_on_c, 6, 66, 0
8, 13340, Note_on_c, 6, 71, 49
8, 13358, Note_on_c, 6, 71, 0
8, 13360, Note_on_c, 6, 75, 49
8, 13378, Note_on_c, 6, 75, 0
8, 13380, Note_on_c, 6, 78, 49
8, 13398, Note_on_c, 6, 78, 0
8, 13400, Note_on_c, 6, 83, 49
8, 13418, Note_on_c, 6, 83, 0
8, 13420, Note_on_c, 6, 85, 49
8, 13438, Note_on_c, 6, 85, 0
8, 13440, Note_on_c, 6, 87, 80
8, 13458, Note_on_c, 6, 87, 0
8, 13460, Note_on_c, 6, 85, 80
8, 13478, Note_on_c, 6, 85, 0
8, 13480, Note_on_c, 6, 83, 80
8, 13498, Note_on_c, 6, 83, 0
8, 13500, Note_on_c, 6, 78, 80
8, 13518, Note_on_c, 6, 78, 0
8, 13520, Note_on_c, 6, 75, 80
8, 13538, Note_on_c, 6, 75, 0
8, 13540, Note_on_c, 6, 71, 80
8, 13558, Note_on_c, 6, 71, 0
8, 13560, Note_on_c, 6, 66, 49
8, 13578, Note_on_c, 6, 66, 0
8, 13580, Note_on_c, 6, 71, 49
8, 13598, Note_on_c, 6, 71, 0
8, 13600, Note_on_c, 6, 75, 49
8, 13618, Note_on_c, 6, 75, 0
8, 13620, Note_on_c, 6, 78, 49
8, 13638, Note_on_c, 6, 78, 0
8, 13640, Note_on_c, 6, 83, 49
8, 13658, Note_on_c, 6, 83, 0
8, 13660, Note_on_c, 6, 85, 49
8, 13678, Note_on_c, 6, 85, 0
8, 13680, Note_on_c, 6, 87, 80
8, 13698, Note_on_c, 6, 87, 0
8, 13700, Note_on_c, 6, 85, 80
8, 13718, Note_on_c, 6, 85, 0
8, 13720, Note_on_c, 6, 83, 80
8, 13738, Note_on_c, 6, 83, 0
8, 13740, Note_on_c, 6, 78, 80
8, 13758, Note_on_c, 6, 78, 0
8, 13760, Note_on_c, 6, 75, 80
8, 13778, Note_on_c, 6, 75, 0
8, 13780, Note_on_c, 6, 71, 80
8, 13798, Note_on_c, 6, 71, 0
8, 13800, Note_on_c, 6, 66, 49
8, 13818, Note_on_c, 6, 66, 0
8, 13820, Note_on_c, 6, 71, 49
8, 13838, Note_on_c, 6, 71, 0
8, 13840, Note_on_c, 6, 75, 49
8, 13858, Note_on_c, 6, 75, 0
8, 13860, Note_on_c, 6, 78, 48
8, 13878, Note_on_c, 6, 78, 0
8, 13880, Note_on_c, 6, 83, 48
8, 13898, Note_on_c, 6, 83, 0
8, 13900, Note_on_c, 6, 85, 48
8, 13918, Note_on_c, 6, 85, 0
8, 13920, Note_on_c, 6, 87, 80
8, 13938, Note_on_c, 6, 87, 0
8, 13940, Note_on_c, 6, 85, 80
8, 13958, Note_on_c, 6, 85, 0
8, 13960, Note_on_c, 6, 83, 80
8, 13978, Note_on_c, 6, 83, 0
8, 13980, Note_on_c, 6, 78, 80
8, 13998, Note_on_c, 6, 78, 0
8, 14000, Note_on_c, 6, 75, 80
8, 14018, Note_on_c, 6, 75, 0
8, 14020, Note_on_c, 6, 71, 80
8, 14038, Note_on_c, 6, 71, 0
8, 14040, Note_on_c, 6, 66, 53
8, 14058, Note_on_c, 6, 66, 0
8, 14060, Note_on_c, 6, 71, 53
8, 14078, Note_on_c, 6, 71, 0
8, 14080, Note_on_c, 6, 75, 52
8, 14098, Note_on_c, 6, 75, 0
8, 14100, Note_on_c, 6, 78, 52
8, 14118, Note_on_c, 6, 78, 0
8, 14120, Note_on_c, 6, 83, 51
8, 14138, Note_on_c, 6, 83, 0
8, 14140, Note_on_c, 6, 85, 51
8, 14158, Note_on_c, 6, 85, 0
8, 14160, Note_on_c, 6, 87, 80
8, 14178, Note_on_c, 6, 87, 0
8, 14180, Note_on_c, 6, 85, 80
8, 14198, Note_on_c, 6, 85, 0
8, 14200, Note_on_c, 6, 83, 80
8, 14218, Note_on_c, 6, 83, 0
8, 14220, Note_on_c, 6, 78, 80
8, 14238, Note_on_c, 6, 78, 0
8, 14240, Note_on_c, 6, 75, 80
8, 14258, Note_on_c, 6, 75, 0
8, 14260, Note_on_c, 6, 71, 80
8, 14278, Note_on_c, 6, 71, 0
8, 14280, Note_on_c, 6, 66, 52
8, 14298, Note_on_c, 6, 66, 0
8, 14300, Note_on_c, 6, 71, 52
8, 14318, Note_on_c, 6, 71, 0
8, 14320, Note_on_c, 6, 75, 52
8, 14338, Note_on_c, 6, 75, 0
8, 14340, Note_on_c, 6, 78, 52
8, 14358, Note_on_c, 6, 78, 0
8, 14360, Note_on_c, 6, 83, 52
8, 14378, Note_on_c, 6, 83, 0
8, 14380, Note_on_c, 6, 85, 52
8, 14398, Note_on_c, 6, 85, 0
8, 14400, Note_on_c, 6, 87, 80
8, 14418, Note_on_c, 6, 87, 0
8, 14420, Note_on_c, 6, 85, 80
8, 14438, Note_on_c, 6, 85, 0
8, 14440, Note_on_c, 6, 83, 80
8, 14458, Note_on_c, 6, 83, 0
8, 14460, Note_on_c, 6, 78, 80
8, 14478, Note_on_c, 6, 78, 0
8, 14480, Note_on_c, 6, 75, 80
8, 14498, Note_on_c, 6, 75, 0
8, 14500, Note_on_c, 6, 71, 80
8, 14518, Note_on_c, 6, 71, 0
8, 14520, Note_on_c, 6, 66, 52
8, 14538, Note_on_c, 6, 66, 0
8, 14540, Note_on_c, 6, 71, 52
8, 14558, Note_on_c, 6, 71, 0
8, 14560, Note_on_c, 6, 75, 52
8, 14578, Note_on_c, 6, 75, 0
8, 14580, Note_on_c, 6, 78, 52
8, 14598, Note_on_c, 6, 78, 0
8, 14600, Note_on_c, 6, 83, 52
8, 14618, Note_on_c, 6, 83, 0
8, 14620, Note_on_c, 6, 85, 52
8, 14638, Note_on_c, 6, 85, 0
8, 14640, Note_on_c, 6, 87, 80
8, 14658, Note_on_c, 6, 87, 0
8, 14660, Note_on_c, 6, 85, 80
8, 14678, Note_on_c, 6, 85, 0
8, 14680, Note_on_c, 6, 83, 80
8, 14698, Note_on_c, 6, 83, 0
8, 14700, Note_on_c, 6, 78, 80
8, 14718, Note_on_c, 6, 78, 0
8, 14720, Note_on_c, 6, 75, 80
8, 14738, Note_on_c, 6, 75, 0
8, 14740, Note_on_c, 6, 71, 80
8, 14758, Note_on_c, 6, 71, 0
8, 14760, Note_on_c, 6, 66, 52
8, 14778, Note_on_c, 6, 66, 0
8, 14780, Note_on_c, 6, 71, 52
8, 14798, Note_on_c, 6, 71, 0
8, 14800, Note_on_c, 6, 75, 52
8, 14818, Note_on_c, 6, 75, 0
8, 14820, Note_on_c, 6, 78, 52
8, 14838, Note_on_c, 6, 78, 0
8, 14840, Note_on_c, 6, 83, 52
8, 14858, Note_on_c, 6, 83, 0
8, 14860, Note_on_c, 6, 85, 52
8, 14878, Note_on_c, 6, 85, 0
8, 14880, Note_on_c, 6, 85, 80
8, 14898, Note_on_c, 6, 85, 0
8, 14900, Note_on_c, 6, 83, 80
8, 14918, Note_on_c, 6, 83, 0
8, 14920, Note_on_c, 6, 81, 80
8, 14938, Note_on_c, 6, 81, 0
8, 14940, Note_on_c, 6, 78, 80
8, 14958, Note_on_c, 6, 78, 0
8, 14960, Note_on_c, 6, 73, 80
8, 14978, Note_on_c, 6, 73, 0
8, 14980, Note_on_c, 6, 69, 80
8, 14998, Note_on_c, 6, 69, 0
8, 15000, Note_on_c, 6, 66, 49
8, 15018, Note_on_c, 6, 66, 0
8, 15020, Note_on_c, 6, 69, 49
8, 15038, Note_on_c, 6, 69, 0
8, 15040, Note_on_c, 6, 73, 49
8, 15058, Note_on_c, 6, 73, 0
8, 15060, Note_on_c, 6, 78, 48
8, 15078, Note_on_c, 6, 78, 0
8, 15080, Note_on_c, 6, 81, 48
8, 15098, Note_on_c, 6, 81, 0
8, 15100, Note_on_c, 6, 83, 48
8, 15118, Note_on_c, 6, 83, 0
8, 15120, Note_on_c, 6, 85, 80
8, 15138, Note_on_c, 6, 85, 0
8, 15140, Note_on_c, 6, 83, 80
8, 15158, Note_on_c, 6, 83, 0
8, 15160, Note_on_c, 6, 81, 80
8, 15178, Note_on_c, 6, 81, 0
8, 15180, Note_on_c, 6, 78, 80
8, 15198, Note_on_c, 6, 78, 0
8, 15200, Note_on_c, 6, 73, 80
8, 15218, Note_on_c, 6, 73, 0
8, 15220, Note_on_c, 6, 69, 80
8, 15238, Note_on_c, 6, 69, 0
8, 15240, Note_on_c, 6, 66, 49
8, 15258, Note_on_c, 6, 66, 0
8, 15260, Note_on_c, 6, 69, 49
8, 15278, Note_on_c, 6, 69, 0
8, 15280, Note_on_c, 6, 73, 49
8, 15298, Note_on_c, 6, 73, 0
8, 15300, Note_on_c, 6, 78, 48
8, 15318, Note_on_c, 6, 78, 0
8, 15320, Note_on_c, 6, 81, 48
8, 15338, Note_on_c, 6, 81, 0
8, 15340, Note_on_c, 6, 83, 48
8, 15358, Note_on_c, 6, 83, 0
8, 15360, Note_on_c, 6, 85, 80
8, 15360, Note_on_c, 6, 85, 80
8, 15378, Note_on_c, 6, 85, 0
8, 15378, Note_on_c, 6, 85, 0
8, 15380, Note_on_c, 6, 83, 80
8, 15380, Note_on_c, 6, 83, 80
8, 15398, Note_on_c, 6, 83, 0
8, 15398, Note_on_c, 6, 83, 0
8, 15400, Note_on_c, 6, 81, 80
8, 15400, Note_on_c, 6, 81, 80
8, 15418, Note_on_c, 6, 81, 0
8, 15418, Note_on_c, 6, 81, 0
8, 15420, Note_on_c, 6, 78, 80
8, 15420, Note_on_c, 6, 78, 80
8, 15438, Note_on_c, 6, 78, 0
8, 15438, Note_on_c, 6, 78, 0
8, 15440, Note_on_c, 6, 73, 80
8, 15440, Note_on_c, 6, 73, 80
8, 15458, Note_on_c, 6, 73, 0
8, 15458, Note_on_c, 6, 73, 0
8, 15460, Note_on_c, 6, 69, 80
8, 15460, Note_on_c, 6, 69, 80
8, 15478, Note_on_c, 6, 69, 0
8, 15478, Note_on_c, 6, 69, 0
8, 15480, Note_on_c, 6, 66, 49
8, 15480, Note_on_c, 6, 66, 49
8, 15498, Note_on_c, 6, 66, 0
8, 15498, Note_on_c, 6, 66, 0
8, 15500, Note_on_c, 6, 69, 49
8, 15500, Note_on_c, 6, 69, 49
8, 15518, Note_on_c, 6, 69, 0
8, 15518, Note_on_c, 6, 69, 0
8, 15520, Note_on_c, 6, 73, 49
8, 15520, Note_on_c, 6, 73, 49
8, 15538, Note_on_c, 6, 73, 0
8, 15538, Note_on_c, 6, 73, 0
8, 15540, Note_on_c, 6, 78, 48
8, 15540, Note_on_c, 6, 78, 48
8, 15558, Note_on_c, 6, 78, 0
8, 15558, Note_on_c, 6, 78, 0
8, 15560, Note_on_c, 6, 81, 48
8, 15560, Note_on_c, 6, 81, 48
8, 15578, Note_on_c, 6, 81, 0
8, 15578, Note_on_c, 6, 81, 0
8, 15580, Note_on_c, 6, 83, 48
8, 15580, Note_on_c, 6, 83, 48
8, 15598, Note_on_c, 6, 83, 0
8, 15598, Note_on_c, 6, 83, 0
8, 15600, Note_on_c, 6, 85, 80
8, 15600, Note_on_c, 6, 85, 80
8, 15618, Note_on_c, 6, 85, 0
8, 15618, Note_on_c, 6, 85, 0
8, 15620, Note_on_c, 6, 83, 80
8, 15620, Note_on_c, 6, 83, 80
8, 15638, Note_on_c, 6, 83, 0
8, 15638, Note_on_c, 6, 83, 0
8, 15640, Note_on_c, 6, 81, 80
8, 15640, Note_on_c, 6, 81, 80
8, 15658, Note_on_c, 6, 81, 0
8, 15658, Note_on_c, 6, 81, 0
8, 15660, Note_on_c, 6, 78, 80
8, 15660, Note_on_c, 6, 78, 80
8, 15678, Note_on_c, 6, 78, 0
8, 15678, Note_on_c, 6, 78, 0
8, 15680, Note_on_c, 6, 73, 80
8, 15680, Note_on_c, 6, 73, 80
8, 15698, Note_on_c, 6, 73, 0
8, 15698, Note_on_c, 6, 73, 0
8, 15700, Note_on_c, 6, 69, 80
8, 15700, Note_on_c, 6, 69, 80
8, 15718, Note_on_c, 6, 69, 0
8, 15718, Note_on_c, 6, 69, 0
8, 15720, Note_on_c, 6, 66, 49
8, 15720, Note_on_c, 6, 66, 49
8, 15738, Note_on_c, 6, 66, 0
8, 15738, Note_on_c, 6, 66, 0
8, 15740, Note_on_c, 6, 69, 49
8, 15740, Note_on_c, 6, 69, 49
8, 15758, Note_on_c, 6, 69, 0
8, 15758, Note_on_c, 6, 69, 0
8, 15760, Note_on_c, 6, 73, 49
8, 15760, Note_on_c, 6, 73, 49
8, 15778, Note_on_c, 6, 73, 0
8, 15778, Note_on_c, 6, 73, 0
8, 15780, Note_on_c, 6, 78, 48
8, 15780, Note_on_c, 6, 78, 48
8, 15798, Note_on_c, 6, 78, 0
8, 15798, Note_on_c, 6, 78, 0
8, 15800, Note_on_c, 6, 81, 48
8, 15800, Note_on_c, 6, 81, 48
8, 15818, Note_on_c, 6, 81, 0
8, 15818, Note_on_c, 6, 81, 0
8, 15820, Note_on_c, 6, 83, 48
8, 15820, Note_on_c, 6, 83, 48
8, 15838, Note_on_c, 6, 83, 0
8, 15838, Note_on_c, 6, 83, 0
8, 15840, Note_on_c, 6, 85, 80
8, 15840, Note_on_c, 6, 85, 80
8, 15858, Note_on_c, 6, 85, 0
8, 15858, Note_on_c, 6, 85, 0
8, 15860, Note_on_c, 6, 83, 80
8, 15860, Note_on_c, 6, 83, 80
8, 15878, Note_on_c, 6, 83, 0
8, 15878, Note_on_c, 6, 83, 0
8, 15880, Note_on_c, 6, 81, 80
8, 15880, Note_on_c, 6, 81, 80
8, 15898, Note_on_c, 6, 81, 0
8, 15898, Note_on_c, 6, 81, 0
8, 15900, Note_on_c, 6, 78, 80
8, 15900, Note_on_c, 6, 78, 80
8, 15918, Note_on_c, 6, 78, 0
8, 15918, Note_on_c, 6, 78, 0
8, 15920, Note_on_c, 6, 73, 80
8, 15920, Note_on_c, 6, 73, 80
8, 15938, Note_on_c, 6, 73, 0
8, 15938, Note_on_c, 6, 73, 0
8, 15940, Note_on_c, 6, 69, 80
8, 15940, Note_on_c, 6, 69, 80
8, 15958, Note_on_c, 6, 69, 0
8, 15958, Note_on_c, 6, 69, 0
8, 15960, Note_on_c, 6, 66, 49
8, 15960, Note_on_c, 6, 66, 49
8, 15978, Note_on_c, 6, 66, 0
8, 15978, Note_on_c, 6, 66, 0
8, 15980, Note_on_c, 6, 69, 49
8, 15980, Note_on_c, 6, 69, 49
8, 15998, Note_on_c, 6, 69, 0
8, 15998, Note_on_c, 6, 69, 0
8, 16000, Note_on_c, 6, 73, 49
8, 16000, Note_on_c, 6, 73, 49
8, 16018, Note_on_c, 6, 73, 0
8, 16018, Note_on_c, 6, 73, 0
8, 16020, Note_on_c, 6, 78, 48
8, 16020, Note_on_c, 6, 78, 48
8, 16038, Note_on_c, 6, 78, 0
8, 16038, Note_on_c, 6, 78, 0
8, 16040, Note_on_c, 6, 81, 48
8, 16040, Note_on_c, 6, 81, 48
8, 16058, Note_on_c, 6, 81, 0
8, 16058, Note_on_c, 6, 81, 0
8, 16060, Note_on_c, 6, 83, 48
8, 16060, Note_on_c, 6, 83, 48
8, 16078, Note_on_c, 6, 83, 0
8, 16078, Note_on_c, 6, 83, 0
8, 16080, Note_on_c, 6, 85, 80
8, 16080, Note_on_c, 6, 85, 80
8, 16098, Note_on_c, 6, 85, 0
8, 16098, Note_on_c, 6, 85, 0
8, 16100, Note_on_c, 6, 83, 80
8, 16100, Note_on_c, 6, 83, 80
8, 16118, Note_on_c, 6, 83, 0
8, 16118, Note_on_c, 6, 83, 0
8, 16120, Note_on_c, 6, 81, 80
8, 16120, Note_on_c, 6, 81, 80
8, 16138, Note_on_c, 6, 81, 0
8, 16138, Note_on_c, 6, 81, 0
8, 16140, Note_on_c, 6, 78, 80
8, 16140, Note_on_c, 6, 78, 80
8, 16158, Note_on_c, 6, 78, 0
8, 16158, Note_on_c, 6, 78, 0
8, 16160, Note_on_c, 6, 73, 80
8, 16160, Note_on_c, 6, 73, 80
8, 16178, Note_on_c, 6, 73, 0
8, 16178, Note_on_c, 6, 73, 0
8, 16180, Note_on_c, 6, 69, 80
8, 16180, Note_on_c, 6, 69, 80
8, 16198, Note_on_c, 6, 69, 0
8, 16198, Note_on_c, 6, 69, 0
8, 16200, Note_on_c, 6, 66, 49
8, 16200, Note_on_c, 6, 66, 49
8, 16218, Note_on_c, 6, 66, 0
8, 16218, Note_on_c, 6, 66, 0
8, 16220, Note_on_c, 6, 69, 49
8, 16220, Note_on_c, 6, 69, 49
8, 16238, Note_on_c, 6, 69, 0
8, 16238, Note_on_c, 6, 69, 0
8, 16240, Note_on_c, 6, 73, 49
8, 16240, Note_on_c, 6, 73, 49
8, 16258, Note_on_c, 6, 73, 0
8, 16258, Note_on_c, 6, 73, 0
8, 16260, Note_on_c, 6, 78, 48
8, 16260, Note_on_c, 6, 78, 48
8, 16278, Note_on_c, 6, 78, 0
8, 16278, Note_on_c, 6, 78, 0
8, 16280, Note_on_c, 6, 81, 48
8, 16280, Note_on_c, 6, 81, 48
8, 16298, Note_on_c, 6, 81, 0
8, 16298, Note_on_c, 6, 81, 0
8, 16300, Note_on_c, 6, 83, 48
8, 16300, Note_on_c, 6, 83, 48
8, 16318, Note_on_c, 6, 83, 0
8, 16318, Note_on_c, 6, 83, 0
8, 16320, Note_on_c, 6, 85, 80
8, 16320, Note_on_c, 6, 85, 80
8, 16338, Note_on_c, 6, 85, 0
8, 16338, Note_on_c, 6, 85, 0
8, 16340, Note_on_c, 6, 83, 80
8, 16340, Note_on_c, 6, 83, 80
8, 16358, Note_on_c, 6, 83, 0
8, 16358, Note_on_c, 6, 83, 0
8, 16360, Note_on_c, 6, 81, 80
8, 16360, Note_on_c, 6, 81, 80
8, 16378, Note_on_c, 6, 81, 0
8, 16378, Note_on_c, 6, 81, 0
8, 16380, Note_on_c, 6, 78, 80
8, 16380, Note_on_c, 6, 78, 80
8, 16398, Note_on_c, 6, 78, 0
8, 16398, Note_on_c, 6, 78, 0
8, 16400, Note_on_c, 6, 73, 80
8, 16400, Note_on_c, 6, 73, 80
8, 16418, Note_on_c, 6, 73, 0
8, 16418, Note_on_c, 6, 73, 0
8, 16420, Note_on_c, 6, 69, 80
8, 16420, Note_on_c, 6, 69, 80
8, 16438, Note_on_c, 6, 69, 0
8, 16438, Note_on_c, 6, 69, 0
8, 16440, Note_on_c, 6, 66, 49
8, 16440, Note_on_c, 6, 66, 49
8, 16458, Note_on_c, 6, 66, 0
8, 16458, Note_on_c, 6, 66, 0
8, 16460, Note_on_c, 6, 69, 49
8, 16460, Note_on_c, 6, 69, 49
8, 16478, Note_on_c, 6, 69, 0
8, 16478, Note_on_c, 6, 69, 0
8, 16480, Note_on_c, 6, 73, 49
8, 16480, Note_on_c, 6, 73, 49
8, 16498, Note_on_c, 6, 73, 0
8, 16498, Note_on_c, 6, 73, 0
8, 16500, Note_on_c, 6, 78, 48
8, 16500, Note_on_c, 6, 78, 48
8, 16518, Note_on_c, 6, 78, 0
8, 16518, Note_on_c, 6, 78, 0
8, 16520, Note_on_c, 6, 81, 48
8, 16520, Note_on_c, 6, 81, 48
8, 16538, Note_on_c, 6, 81, 0
8, 16538, Note_on_c, 6, 81, 0
8, 16540, Note_on_c, 6, 83, 48
8, 16540, Note_on_c, 6, 83, 48
8, 16558, Note_on_c, 6, 83, 0
8, 16558, Note_on_c, 6, 83, 0
8, 16560, Note_on_c, 6, 85, 80
8, 16560, Note_on_c, 6, 85, 80
8, 16578, Note_on_c, 6, 85, 0
8, 16578, Note_on_c, 6, 85, 0
8, 16580, Note_on_c, 6, 83, 80
8, 16580, Note_on_c, 6, 83, 80
8, 16598, Note_on_c, 6, 83, 0
8, 16598, Note_on_c, 6, 83, 0
8, 16600, Note_on_c, 6, 81, 80
8, 16600, Note_on_c, 6, 81, 80
8, 16618, Note_on_c, 6, 81, 0
8, 16618, Note_on_c, 6, 81, 0
8, 16620, Note_on_c, 6, 78, 80
8, 16620, Note_on_c, 6, 78, 80
8, 16638, Note_on_c, 6, 78, 0
8, 16638, Note_on_c, 6, 78, 0
8, 16640, Note_on_c, 6, 73, 80
8, 16640, Note_on_c, 6, 73, 80
8, 16658, Note_on_c, 6, 73, 0
8, 16658, Note_on_c, 6, 73, 0
8, 16660, Note_on_c, 6, 69, 80
8, 16660, Note_on_c, 6, 69, 80
8, 16678, Note_on_c, 6, 69, 0
8, 16678, Note_on_c, 6, 69, 0
8, 16680, Note_on_c, 6, 66, 49
8, 16680, Note_on_c, 6, 66, 49
8, 16698, Note_on_c, 6, 66, 0
8, 16698, Note_on_c, 6, 66, 0
8, 16700, Note_on_c, 6, 69, 49
8, 16700, Note_on_c, 6, 69, 49
8, 16718, Note_on_c, 6, 69, 0
8, 16718, Note_on_c, 6, 69, 0
8, 16720, Note_on_c, 6, 73, 49
8, 16720, Note_on_c, 6, 73, 49
8, 16738, Note_on_c, 6, 73, 0
8, 16738, Note_on_c, 6, 73, 0
8, 16740, Note_on_c, 6, 78, 48
8, 16740, Note_on_c, 6, 78, 48
8, 16758, Note_on_c, 6, 78, 0
8, 16758, Note_on_c, 6, 78, 0
8, 16760, Note_on_c, 6, 81, 48
8, 16760, Note_on_c, 6, 81, 48
8, 16778, Note_on_c, 6, 81, 0
8, 16778, Note_on_c, 6, 81, 0
8, 16780, Note_on_c, 6, 83, 48
8, 16780, Note_on_c, 6, 83, 48
8, 16798, Note_on_c, 6, 83, 0
8, 16798, Note_on_c, 6, 83, 0
8, 16800, Note_on_c, 6, 85, 79
8, 16800, Note_on_c, 6, 85, 80
8, 16818, Note_on_c, 6, 85, 0
8, 16818, Note_on_c, 6, 85, 0
8, 16820, Note_on_c, 6, 83, 79
8, 16820, Note_on_c, 6, 83, 80
8, 16838, Note_on_c, 6, 83, 0
8, 16838, Note_on_c, 6, 83, 0
8, 16840, Note_on_c, 6, 78, 79
8, 16840, Note_on_c, 6, 81, 80
8, 16858, Note_on_c, 6, 81, 0
8, 16858, Note_on_c, 6, 78, 0
8, 16860, Note_on_c, 6, 74, 79
8, 16860, Note_on_c, 6, 78, 80
8, 16878, Note_on_c, 6, 78, 0
8, 16878, Note_on_c, 6, 74, 0
8, 16880, Note_on_c, 6, 71, 79
8, 16880, Note_on_c, 6, 73, 80
8, 16898, Note_on_c, 6, 73, 0
8, 16898, Note_on_c, 6, 71, 0
8, 16900, Note_on_c, 6, 67, 79
8, 16900, Note_on_c, 6, 69, 80
8, 16918, Note_on_c, 6, 69, 0
8, 16918, Note_on_c, 6, 67, 0
8, 16920, Note_on_c, 6, 64, 50
8, 16920, Note_on_c, 6, 66, 49
8, 16938, Note_on_c, 6, 66, 0
8, 16938, Note_on_c, 6, 64, 0
8, 16940, Note_on_c, 6, 67, 50
8, 16940, Note_on_c, 6, 69, 49
8, 16958, Note_on_c, 6, 69, 0
8, 16958, Note_on_c, 6, 67, 0
8, 16960, Note_on_c, 6, 71, 50
8, 16960, Note_on_c, 6, 73, 49
8, 16978, Note_on_c, 6, 73, 0
8, 16978, Note_on_c, 6, 71, 0
8, 16980, Note_on_c, 6, 74, 50
8, 16980, Note_on_c, 6, 78, 48
8, 16998, Note_on_c, 6, 78, 0
8, 16998, Note_on_c, 6, 74, 0
8, 17000, Note_on_c, 6, 78, 50
8, 17000, Note_on_c, 6, 81, 48
8, 17018, Note_on_c, 6, 81, 0
8, 17018, Note_on_c, 6, 78, 0
8, 17020, Note_on_c, 6, 83, 50
8, 17020, Note_on_c, 6, 83, 48
8, 17038, Note_on_c, 6, 83, 0
8, 17038, Note_on_c, 6, 83, 0
8, 17040, Note_on_c, 6, 85, 80
8, 17040, Note_on_c, 6, 85, 79
8, 17058, Note_on_c, 6, 85, 0
8, 17058, Note_on_c, 6, 85, 0
8, 17060, Note_on_c, 6, 83, 80
8, 17060, Note_on_c, 6, 83, 79
8, 17078, Note_on_c, 6, 83, 0
8, 17078, Note_on_c, 6, 83, 0
8, 17080, Note_on_c, 6, 81, 80
8, 17080, Note_on_c, 6, 78, 79
8, 17098, Note_on_c, 6, 78, 0
8, 17098, Note_on_c, 6, 81, 0
8, 17100, Note_on_c, 6, 78, 80
8, 17100, Note_on_c, 6, 74, 79
8, 17118, Note_on_c, 6, 74, 0
8, 17118, Note_on_c, 6, 78, 0
8, 17120, Note_on_c, 6, 73, 80
8, 17120, Note_on_c, 6, 71, 79
8, 17138, Note_on_c, 6, 71, 0
8, 17138, Note_on_c, 6, 73, 0
8, 17140, Note_on_c, 6, 69, 80
8, 17140, Note_on_c, 6, 67, 79
8, 17158, Note_on_c, 6, 67, 0
8, 17158, Note_on_c, 6, 69, 0
8, 17160, Note_on_c, 6, 66, 49
8, 17160, Note_on_c, 6, 64, 50
8, 17178, Note_on_c, 6, 64, 0
8, 17178, Note_on_c, 6, 66, 0
8, 17180, Note_on_c, 6, 69, 49
8, 17180, Note_on_c, 6, 67, 50
8, 17198, Note_on_c, 6, 67, 0
8, 17198, Note_on_c, 6, 69, 0
8, 17200, Note_on_c, 6, 73, 49
8, 17200, Note_on_c, 6, 71, 50
8, 17218, Note_on_c, 6, 71, 0
8, 17218, Note_on_c, 6, 73, 0
8, 17220, Note_on_c, 6, 78, 48
8, 17220, Note_on_c, 6, 74, 50
8, 17238, Note_on_c, 6, 74, 0
8, 17238, Note_on_c, 6, 78, 0
8, 17240, Note_on_c, 6, 81, 48
8, 17240, Note_on_c, 6, 78, 50
8, 17258, Note_on_c, 6, 78, 0
8, 17258, Note_on_c, 6, 81, 0
8, 17260, Note_on_c, 6, 83, 48
8, 17260, Note_on_c, 6, 83, 50
8, 17278, Note_on_c, 6, 83, 0
8, 17278, Note_on_c, 6, 83, 0
8, 17280, Note_on_c, 6, 85, 79
8, 17280, Note_on_c, 6, 85, 79
8, 17298, Note_on_c, 6, 85, 0
8, 17298, Note_on_c, 6, 85, 0
8, 17300, Note_on_c, 6, 83, 79
8, 17300, Note_on_c, 6, 83, 79
8, 17318, Note_on_c, 6, 83, 0
8, 17318, Note_on_c, 6, 83, 0
8, 17320, Note_on_c, 6, 78, 79
8, 17320, Note_on_c, 6, 78, 79
8, 17338, Note_on_c, 6, 78, 0
8, 17338, Note_on_c, 6, 78, 0
8, 17340, Note_on_c, 6, 74, 79
8, 17340, Note_on_c, 6, 74, 79
8, 17358, Note_on_c, 6, 74, 0
8, 17358, Note_on_c, 6, 74, 0
8, 17360, Note_on_c, 6, 71, 79
8, 17360, Note_on_c, 6, 71, 79
8, 17378, Note_on_c, 6, 71, 0
8, 17378, Note_on_c, 6, 71, 0
8, 17380, Note_on_c, 6, 67, 79
8, 17380, Note_on_c, 6, 67, 79
8, 17398, Note_on_c, 6, 67, 0
8, 17398, Note_on_c, 6, 67, 0
8, 17400, Note_on_c, 6, 64, 50
8, 17400, Note_on_c, 6, 64, 50
8, 17418, Note_on_c, 6, 64, 0
8, 17418, Note_on_c, 6, 64, 0
8, 17420, Note_on_c, 6, 67, 50
8, 17420, Note_on_c, 6, 67, 50
8, 17438, Note_on_c, 6, 67, 0
8, 17438, Note_on_c, 6, 67, 0
8, 17440, Note_on_c, 6, 71, 50
8, 17440, Note_on_c, 6, 71, 50
8, 17458, Note_on_c, 6, 71, 0
8, 17458, Note_on_c, 6, 71, 0
8, 17460, Note_on_c, 6, 74, 50
8, 17460, Note_on_c, 6, 74, 50
8, 17478, Note_on_c, 6, 74, 0
8, 17478, Note_on_c, 6, 74, 0
8, 17480, Note_on_c, 6, 78, 50
8, 17480, Note_on_c, 6, 78, 50
8, 17498, Note_on_c, 6, 78, 0
8, 17498, Note_on_c, 6, 78, 0
8, 17500, Note_on_c, 6, 83, 50
8, 17500, Note_on_c, 6, 83, 50
8, 17518, Note_on_c, 6, 83, 0
8, 17518, Note_on_c, 6, 83, 0
8, 17520, Note_on_c, 6, 85, 79
8, 17520, Note_on_c, 6, 85, 79
8, 17538, Note_on_c, 6, 85, 0
8, 17538, Note_on_c, 6, 85, 0
8, 17540, Note_on_c, 6, 83, 79
8, 17540, Note_on_c, 6, 83, 79
8, 17558, Note_on_c, 6, 83, 0
8, 17558, Note_on_c, 6, 83, 0
8, 17560, Note_on_c, 6, 78, 79
8, 17560, Note_on_c, 6, 78, 79
8, 17578, Note_on_c, 6, 78, 0
8, 17578, Note_on_c, 6, 78, 0
8, 17580, Note_on_c, 6, 74, 79
8, 17580, Note_on_c, 6, 74, 79
8, 17598, Note_on_c, 6, 74, 0
8, 17598, Note_on_c, 6, 74, 0
8, 17600, Note_on_c, 6, 71, 79
8, 17600, Note_on_c, 6, 71, 79
8, 17618, Note_on_c, 6, 71, 0
8, 17618, Note_on_c, 6, 71, 0
8, 17620, Note_on_c, 6, 67, 79
8, 17620, Note_on_c, 6, 67, 79
8, 17638, Note_on_c, 6, 67, 0
8, 17638, Note_on_c, 6, 67, 0
8, 17640, Note_on_c, 6, 64, 50
8, 17640, Note_on_c, 6, 64, 50
8, 17658, Note_on_c, 6, 64, 0
8, 17658, Note_on_c, 6, 64, 0
8, 17660, Note_on_c, 6, 67, 50
8, 17660, Note_on_c, 6, 67, 50
8, 17678, Note_on_c, 6, 67, 0
8, 17678, Note_on_c, 6, 67, 0
8, 17680, Note_on_c, 6, 71, 50
8, 17680, Note_on_c, 6, 71, 50
8, 17698, Note_on_c, 6, 71, 0
8, 17698, Note_on_c, 6, 71, 0
8, 17700, Note_on_c, 6, 74, 50
8, 17700, Note_on_c, 6, 74, 50
8, 17718, Note_on_c, 6, 74, 0
8, 17718, Note_on_c, 6, 74, 0
8, 17720, Note_on_c, 6, 78, 50
8, 17720, Note_on_c, 6, 78, 50
8, 17738, Note_on_c, 6, 78, 0
8, 17738, Note_on_c, 6, 78, 0
8, 17740, Note_on_c, 6, 83, 50
8, 17740, Note_on_c, 6, 83, 50
8, 17758, Note_on_c, 6, 83, 0
8, 17758, Note_on_c, 6, 83, 0
8, 17760, Note_on_c, 6, 85, 79
8, 17760, Note_on_c, 6, 85, 79
8, 17778, Note_on_c, 6, 85, 0
8, 17778, Note_on_c, 6, 85, 0
8, 17780, Note_on_c, 6, 83, 79
8, 17780, Note_on_c, 6, 83, 79
8, 17798, Note_on_c, 6, 83, 0
8, 17798, Note_on_c, 6, 83, 0
8, 17800, Note_on_c, 6, 78, 79
8, 17800, Note_on_c, 6, 78, 79
8, 17818, Note_on_c, 6, 78, 0
8, 17818, Note_on_c, 6, 78, 0
8, 17820, Note_on_c, 6, 74, 79
8, 17820, Note_on_c, 6, 74, 79
8, 17838, Note_on_c, 6, 74, 0
8, 17838, Note_on_c, 6, 74, 0
8, 17840, Note_on_c, 6, 71, 79
8, 17840, Note_on_c, 6, 71, 79
8, 17858, Note_on_c, 6, 71, 0
8, 17858, Note_on_c, 6, 71, 0
8, 17860, Note_on_c, 6, 67, 79
8, 17860, Note_on_c, 6, 67, 79
8, 17878, Note_on_c, 6, 67, 0
8, 17878, Note_on_c, 6, 67, 0
8, 17880, Note_on_c, 6, 64, 50
8, 17880, Note_on_c, 6, 64, 50
8, 17898, Note_on_c, 6, 64, 0
8, 17898, Note_on_c, 6, 64, 0
8, 17900, Note_on_c, 6, 67, 50
8, 17900, Note_on_c, 6, 67, 50
8, 17918, Note_on_c, 6, 67, 0
8, 17918, Note_on_c, 6, 67, 0
8, 17920, Note_on_c, 6, 71, 50
8, 17920, Note_on_c, 6, 71, 50
8, 17938, Note_on_c, 6, 71, 0
8, 17938, Note_on_c, 6, 71, 0
8, 17940, Note_on_c, 6, 74, 50
8, 17940, Note_on_c, 6, 74, 50
8, 17958, Note_on_c, 6, 74, 0
8, 17958, Note_on_c, 6, 74, 0
8, 17960, Note_on_c, 6, 78, 50
8, 17960, Note_on_c, 6, 78, 50
8, 17978, Note_on_c, 6, 78, 0
8, 17978, Note_on_c, 6, 78, 0
8, 17980, Note_on_c, 6, 83, 50
8, 17980, Note_on_c, 6, 83, 50
8, 17998, Note_on_c, 6, 83, 0
8, 17998, Note_on_c, 6, 83, 0
8, 18000, Note_on_c, 6, 85, 79
8, 18000, Note_on_c, 6, 85, 79
8, 18018, Note_on_c, 6, 85, 0
8, 18018, Note_on_c, 6, 85, 0
8, 18020, Note_on_c, 6, 83, 79
8, 18020, Note_on_c, 6, 83, 79
8, 18038, Note_on_c, 6, 83, 0
8, 18038, Note_on_c, 6, 83, 0
8, 18040, Note_on_c, 6, 78, 79
8, 18040, Note_on_c, 6, 78, 79
8, 18058, Note_on_c, 6, 78, 0
8, 18058, Note_on_c, 6, 78, 0
8, 18060, Note_on_c, 6, 74, 79
8, 18060, Note_on_c, 6, 74, 79
8, 18078, Note_on_c, 6, 74, 0
8, 18078, Note_on_c, 6, 74, 0
8, 18080, Note_on_c, 6, 71, 79
8, 18080, Note_on_c, 6, 71, 79
8, 18098, Note_on_c, 6, 71, 0
8, 18098, Note_on_c, 6, 71, 0
8, 18100, Note_on_c, 6, 67, 79
8, 18100, Note_on_c, 6, 67, 79
8, 18118, Note_on_c, 6, 67, 0
8, 18118, Note_on_c, 6, 67, 0
8, 18120, Note_on_c, 6, 64, 50
8, 18120, Note_on_c, 6, 64, 50
8, 18138, Note_on_c, 6, 64, 0
8, 18138, Note_on_c, 6, 64, 0
8, 18140, Note_on_c, 6, 67, 50
8, 18140, Note_on_c, 6, 67, 50
8, 18158, Note_on_c, 6, 67, 0
8, 18158, Note_on_c, 6, 67, 0
8, 18160, Note_on_c, 6, 71, 50
8, 18160, Note_on_c, 6, 71, 50
8, 18178, Note_on_c, 6, 71, 0
8, 18178, Note_on_c, 6, 71, 0
8, 18180, Note_on_c, 6, 74, 50
8, 18180, Note_on_c, 6, 74, 50
8, 18198, Note_on_c, 6, 74, 0
8, 18198, Note_on_c, 6, 74, 0
8, 18200, Note_on_c, 6, 78, 50
8, 18200, Note_on_c, 6, 78, 50
8, 18218, Note_on_c, 6, 78, 0
8, 18218, Note_on_c, 6, 78, 0
8, 18220, Note_on_c, 6, 83, 50
8, 18220, Note_on_c, 6, 83, 50
8, 18238, Note_on_c, 6, 83, 0
8, 18238, Note_on_c, 6, 83, 0
8, 18240, Note_on_c, 6, 85, 79
8, 18240, Note_on_c, 6, 85, 79
8, 18258, Note_on_c, 6, 85, 0
8, 18258, Note_on_c, 6, 85, 0
8, 18260, Note_on_c, 6, 83, 79
8, 18260, Note_on_c, 6, 83, 79
8, 18278, Note_on_c, 6, 83, 0
8, 18278, Note_on_c, 6, 83, 0
8, 18280, Note_on_c, 6, 78, 79
8, 18280, Note_on_c, 6, 78, 79
8, 18298, Note_on_c, 6, 78, 0
8, 18298, Note_on_c, 6, 78, 0
8, 18300, Note_on_c, 6, 74, 79
8, 18300, Note_on_c, 6, 74, 79
8, 18318, Note_on_c, 6, 74, 0
8, 18318, Note_on_c, 6, 74, 0
8, 18320, Note_on_c, 6, 71, 79
8, 18320, Note_on_c, 6, 71, 79
8, 18338, Note_on_c, 6, 71, 0
8, 18338, Note_on_c, 6, 71, 0
8, 18340, Note_on_c, 6, 67, 79
8, 18340, Note_on_c, 6, 67, 79
8, 18358, Note_on_c, 6, 67, 0
8, 18358, Note_on_c, 6, 67, 0
8, 18360, Note_on_c, 6, 64, 50
8, 18360, Note_on_c, 6, 64, 50
8, 18378, Note_on_c, 6, 64, 0
8, 18378, Note_on_c, 6, 64, 0
8, 18380, Note_on_c, 6, 67, 50
8, 18380, Note_on_c, 6, 67, 50
8, 18398, Note_on_c, 6, 67, 0
8, 18398, Note_on_c, 6, 67, 0
8, 18400, Note_on_c, 6, 71, 50
8, 18400, Note_on_c, 6, 71, 50
8, 18418, Note_on_c, 6, 71, 0
8, 18418, Note_on_c, 6, 71, 0
8, 18420, Note_on_c, 6, 74, 50
8, 18420, Note_on_c, 6, 74, 50
8, 18438, Note_on_c, 6, 74, 0
8, 18438, Note_on_c, 6, 74, 0
8, 18440, Note_on_c, 6, 78, 50
8, 18440, Note_on_c, 6, 78, 50
8, 18458, Note_on_c, 6, 78, 0
8, 18458, Note_on_c, 6, 78, 0
8, 18460, Note_on_c, 6, 83, 50
8, 18460, Note_on_c, 6, 83, 50
8, 18478, Note_on_c, 6, 83, 0
8, 18478, Note_on_c, 6, 83, 0
8, 18480, Note_on_c, 6, 85, 79
8, 18480, Note_on_c, 6, 85, 79
8, 18498, Note_on_c, 6, 85, 0
8, 18498, Note_on_c, 6, 85, 0
8, 18500, Note_on_c, 6, 83, 79
8, 18500, Note_on_c, 6, 83, 79
8, 18518, Note_on_c, 6, 83, 0
8, 18518, Note_on_c, 6, 83, 0
8, 18520, Note_on_c, 6, 78, 79
8, 18520, Note_on_c, 6, 78, 79
8, 18538, Note_on_c, 6, 78, 0
8, 18538, Note_on_c, 6, 78, 0
8, 18540, Note_on_c, 6, 74, 79
8, 18540, Note_on_c, 6, 74, 79
8, 18558, Note_on_c, 6, 74, 0
8, 18558, Note_on_c, 6, 74, 0
8, 18560, Note_on_c, 6, 71, 79
8, 18560, Note_on_c, 6, 71, 79
8, 18578, Note_on_c, 6, 71, 0
8, 18578, Note_on_c, 6, 71, 0
8, 18580, Note_on_c, 6, 67, 79
8, 18580, Note_on_c, 6, 67, 79
8, 18598, Note_on_c, 6, 67, 0
8, 18598, Note_on_c, 6, 67, 0
8, 18600, Note_on_c, 6, 64, 50
8, 18600, Note_on_c, 6, 64, 50
8, 18618, Note_on_c, 6, 64, 0
8, 18618, Note_on_c, 6, 64, 0
8, 18620, Note_on_c, 6, 67, 50
8, 18620, Note_on_c, 6, 67, 50
8, 18638, Note_on_c, 6, 67, 0
8, 18638, Note_on_c, 6, 67, 0
8, 18640, Note_on_c, 6, 71, 50
8, 18640, Note_on_c, 6, 71, 50
8, 18658, Note_on_c, 6, 71, 0
8, 18658, Note_on_c, 6, 71, 0
8, 18660, Note_on_c, 6, 74, 50
8, 18660, Note_on_c, 6, 74, 50
8, 18678, Note_on_c, 6, 74, 0
8, 18678, Note_on_c, 6, 74, 0
8, 18680, Note_on_c, 6, 78, 50
8, 18680, Note_on_c, 6, 78, 50
8, 18698, Note_on_c, 6, 78, 0
8, 18698, Note_on_c, 6, 78, 0
8, 18700, Note_on_c, 6, 83, 50
8, 18700, Note_on_c, 6, 83, 50
8, 18718, Note_on_c, 6, 83, 0
8, 18718, Note_on_c, 6, 83, 0
8, 18720, Note_on_c, 6, 83, 79
8, 18738, Note_on_c, 6, 83, 0
8, 18740, Note_on_c, 6, 81, 79
8, 18758, Note_on_c, 6, 81, 0
8, 18760, Note_on_c, 6, 76, 79
8, 18778, Note_on_c, 6, 76, 0
8, 18780, Note_on_c, 6, 72, 79
8, 18798, Note_on_c, 6, 72, 0
8, 18800, Note_on_c, 6, 69, 79
8, 18818, Note_on_c, 6, 69, 0
8, 18820, Note_on_c, 6, 65, 79
8, 18840, Note_on_c, 6, 65, 0
8, 18840, Note_on_c, 6, 64, 51
8, 18858, Note_on_c, 6, 64, 0
8, 18860, Note_on_c, 6, 65, 51
8, 18878, Note_on_c, 6, 65, 0
8, 18880, Note_on_c, 6, 69, 51
8, 18898, Note_on_c, 6, 69, 0
8, 18900, Note_on_c, 6, 72, 51
8, 18918, Note_on_c, 6, 72, 0
8, 18920, Note_on_c, 6, 76, 51
8, 18938, Note_on_c, 6, 76, 0
8, 18940, Note_on_c, 6, 81, 51
8, 18958, Note_on_c, 6, 81, 0
8, 18960, Note_on_c, 6, 83, 79
8, 18978, Note_on_c, 6, 83, 0
8, 18980, Note_on_c, 6, 81, 79
8, 18998, Note_on_c, 6, 81, 0
8, 19000, Note_on_c, 6, 76, 79
8, 19018, Note_on_c, 6, 76, 0
8, 19020, Note_on_c, 6, 72, 79
8, 19038, Note_on_c, 6, 72, 0
8, 19040, Note_on_c, 6, 69, 79
8, 19058, Note_on_c, 6, 69, 0
8, 19060, Note_on_c, 6, 65, 79
8, 19080, Note_on_c, 6, 65, 0
8, 19080, Note_on_c, 6, 64, 50
8, 19098, Note_on_c, 6, 64, 0
8, 19100, Note_on_c, 6, 65, 50
8, 19118, Note_on_c, 6, 65, 0
8, 19120, Note_on_c, 6, 69, 50
8, 19138, Note_on_c, 6, 69, 0
8, 19140, Note_on_c, 6, 72, 50
8, 19158, Note_on_c, 6, 72, 0
8, 19160, Note_on_c, 6, 76, 50
8, 19178, Note_on_c, 6, 76, 0
8, 19180, Note_on_c, 6, 81, 50
8, 19198, Note_on_c, 6, 81, 0
8, 19200, Control_c, 6, 11, 125
8, 19200, Note_on_c, 6, 83, 79
8, 19215, Control_c, 6, 11, 124
8, 19225, Control_c, 6, 11, 123
8, 19235, Control_c, 6, 11, 122
8, 19250, Control_c, 6, 11, 121
8, 19260, Control_c, 6, 11, 120
8, 19270, Control_c, 6, 11, 119
8, 19285, Control_c, 6, 11, 118
8, 19295, Control_c, 6, 11, 117
8, 19305, Control_c, 6, 11, 116
8, 19320, Control_c, 6, 11, 115
8, 19330, Control_c, 6, 11, 114
8, 19340, Control_c, 6, 11, 113
8, 19355, Control_c, 6, 11, 112
8, 19365, Control_c, 6, 11, 111
8, 19375, Control_c, 6, 11, 110
8, 19385, Control_c, 6, 11, 109
8, 19400, Control_c, 6, 11, 108
8, 19410, Control_c, 6, 11, 107
8, 19420, Control_c, 6, 11, 106
8, 19435, Control_c, 6, 11, 105
8, 19445, Control_c, 6, 11, 104
8, 19455, Control_c, 6, 11, 103
8, 19470, Control_c, 6, 11, 102
8, 19480, Control_c, 6, 11, 101
8, 19490, Control_c, 6, 11, 100
8, 19505, Control_c, 6, 11, 99
8, 19515, Control_c, 6, 11, 98
8, 19525, Control_c, 6, 11, 97
8, 19540, Control_c, 6, 11, 96
8, 19545, Control_c, 6, 11, 96
8, 19555, Control_c, 6, 11, 95
8, 19560, Control_c, 6, 11, 94
8, 19565, Control_c, 6, 11, 93
8, 19570, Control_c, 6, 11, 92
8, 19575, Control_c, 6, 11, 91
8, 19585, Control_c, 6, 11, 90
8, 19590, Control_c, 6, 11, 89
8, 19595, Control_c, 6, 11, 88
8, 19600, Control_c, 6, 11, 87
8, 19605, Control_c, 6, 11, 86
8, 19615, Control_c, 6, 11, 85
8, 19620, Control_c, 6, 11, 84
8, 19625, Control_c, 6, 11, 83
8, 19630, Control_c, 6, 11, 82
8, 19635, Control_c, 6, 11, 81
8, 19645, Control_c, 6, 11, 80
8, 19650, Control_c, 6, 11, 79
8, 19655, Control_c, 6, 11, 78
8, 19660, Control_c, 6, 11, 77
8, 19665, Control_c, 6, 11, 76
8, 19675, Control_c, 6, 11, 75
8, 19680, Control_c, 6, 11, 74
8, 19685, Control_c, 6, 11, 73
8, 19690, Control_c, 6, 11, 72
8, 19695, Control_c, 6, 11, 71
8, 19705, Control_c, 6, 11, 70
8, 19710, Control_c, 6, 11, 69
8, 19715, Control_c, 6, 11, 68
8, 19720, Control_c, 6, 11, 67
8, 19725, Control_c, 6, 11, 66
8, 19730, Control_c, 6, 11, 65
8, 19740, Control_c, 6, 11, 64
8, 19745, Control_c, 6, 11, 63
8, 19750, Control_c, 6, 11, 62
8, 19755, Control_c, 6, 11, 61
8, 19760, Control_c, 6, 11, 60
8, 19770, Control_c, 6, 11, 59
8, 19775, Control_c, 6, 11, 58
8, 19780, Control_c, 6, 11, 57
8, 19785, Control_c, 6, 11, 56
8, 19790, Control_c, 6, 11, 55
8, 19800, Control_c, 6, 11, 54
8, 19805, Control_c, 6, 11, 53
8, 19810, Control_c, 6, 11, 52
8, 19815, Control_c, 6, 11, 51
8, 19820, Control_c, 6, 11, 50
8, 19830, Control_c, 6, 11, 49
8, 19835, Control_c, 6, 11, 48
8, 19840, Control_c, 6, 11, 47
8, 19845, Control_c, 6, 11, 46
8, 19850, Control_c, 6, 11, 45
8, 19860, Control_c, 6, 11, 44
8, 19865, Control_c, 6, 11, 43
8, 19870, Control_c, 6, 11, 42
8, 19875, Control_c, 6, 11, 41
8, 19880, Control_c, 6, 11, 40
8, 19885, Control_c, 6, 11, 39
8, 19895, Control_c, 6, 11, 38
8, 19900, Control_c, 6, 11, 37
8, 19905, Control_c, 6, 11, 36
8, 19910, Control_c, 6, 11, 35
8, 19915, Control_c, 6, 11, 34
8, 19925, Control_c, 6, 11, 33
8, 19930, Control_c, 6, 11, 32
8, 19935, Control_c, 6, 11, 31
8, 19940, Control_c, 6, 11, 30
8, 19945, Control_c, 6, 11, 29
8, 19955, Control_c, 6, 11, 28
8, 19960, Control_c, 6, 11, 27
8, 19965, Control_c, 6, 11, 26
8, 19970, Control_c, 6, 11, 25
8, 19975, Control_c, 6, 11, 24
8, 19985, Control_c, 6, 11, 23
8, 19990, Control_c, 6, 11, 22
8, 19995, Control_c, 6, 11, 21
8, 20000, Control_c, 6, 11, 20
8, 20005, Control_c, 6, 11, 19
8, 20015, Control_c, 6, 11, 18
8, 20020, Control_c, 6, 11, 17
8, 20025, Control_c, 6, 11, 16
8, 20030, Control_c, 6, 11, 15
8, 20035, Control_c, 6, 11, 14
8, 20040, Note_on_c, 6, 83, 0
8, 20040, Control_c, 6, 11, 13
8, 20615, Control_c, 6, 11, 127
8, 20640, Note_on_c, 6, 89, 80
8, 20658, Note_on_c, 6, 89, 0
8, 20660, Note_on_c, 6, 87, 80
8, 20678, Note_on_c, 6, 87, 0
8, 20680, Note_on_c, 6, 85, 80
8, 20698, Note_on_c, 6, 85, 0
8, 20700, Note_on_c, 6, 80, 80
8, 20718, Note_on_c, 6, 80, 0
8, 20720, Note_on_c, 6, 78, 80
8, 20738, Note_on_c, 6, 78, 0
8, 20740, Note_on_c, 6, 75, 80
8, 20758, Note_on_c, 6, 75, 0
8, 20760, Note_on_c, 6, 73, 45
8, 20778, Note_on_c, 6, 73, 0
8, 20780, Note_on_c, 6, 75, 45
8, 20798, Note_on_c, 6, 75, 0
8, 20800, Note_on_c, 6, 78, 45
8, 20818, Note_on_c, 6, 78, 0
8, 20820, Note_on_c, 6, 80, 45
8, 20838, Note_on_c, 6, 80, 0
8, 20840, Note_on_c, 6, 85, 45
8, 20858, Note_on_c, 6, 85, 0
8, 20860, Note_on_c, 6, 87, 45
8, 20878, Note_on_c, 6, 87, 0
8, 20880, Note_on_c, 6, 89, 80
8, 20898, Note_on_c, 6, 89, 0
8, 20900, Note_on_c, 6, 87, 80
8, 20918, Note_on_c, 6, 87, 0
8, 20920, Note_on_c, 6, 85, 80
8, 20938, Note_on_c, 6, 85, 0
8, 20940, Note_on_c, 6, 80, 80
8, 20958, Note_on_c, 6, 80, 0
8, 20960, Note_on_c, 6, 78, 80
8, 20978, Note_on_c, 6, 78, 0
8, 20980, Note_on_c, 6, 75, 80
8, 20998, Note_on_c, 6, 75, 0
8, 21000, Note_on_c, 6, 73, 44
8, 21018, Note_on_c, 6, 73, 0
8, 21020, Note_on_c, 6, 75, 44
8, 21038, Note_on_c, 6, 75, 0
8, 21040, Note_on_c, 6, 78, 44
8, 21058, Note_on_c, 6, 78, 0
8, 21060, Note_on_c, 6, 80, 44
8, 21078, Note_on_c, 6, 80, 0
8, 21080, Note_on_c, 6, 85, 44
8, 21098, Note_on_c, 6, 85, 0
8, 21100, Note_on_c, 6, 87, 44
8, 21118, Note_on_c, 6, 87, 0
8, 21120, Note_on_c, 6, 89, 80
8, 21138, Note_on_c, 6, 89, 0
8, 21140, Note_on_c, 6, 87, 80
8, 21158, Note_on_c, 6, 87, 0
8, 21160, Note_on_c, 6, 85, 80
8, 21178, Note_on_c, 6, 85, 0
8, 21180, Note_on_c, 6, 80, 80
8, 21198, Note_on_c, 6, 80, 0
8, 21200, Note_on_c, 6, 78, 80
8, 21218, Note_on_c, 6, 78, 0
8, 21220, Note_on_c, 6, 75, 80
8, 21238, Note_on_c, 6, 75, 0
8, 21240, Note_on_c, 6, 73, 44
8, 21258, Note_on_c, 6, 73, 0
8, 21260, Note_on_c, 6, 75, 44
8, 21278, Note_on_c, 6, 75, 0
8, 21280, Note_on_c, 6, 78, 44
8, 21298, Note_on_c, 6, 78, 0
8, 21300, Note_on_c, 6, 80, 45
8, 21318, Note_on_c, 6, 80, 0
8, 21320, Note_on_c, 6, 85, 45
8, 21338, Note_on_c, 6, 85, 0
8, 21340, Note_on_c, 6, 87, 45
8, 21358, Note_on_c, 6, 87, 0
8, 21360, Note_on_c, 6, 89, 81
8, 21378, Note_on_c, 6, 89, 0
8, 21380, Note_on_c, 6, 87, 80
8, 21398, Note_on_c, 6, 87, 0
8, 21400, Note_on_c, 6, 85, 80
8, 21418, Note_on_c, 6, 85, 0
8, 21420, Note_on_c, 6, 80, 80
8, 21438, Note_on_c, 6, 80, 0
8, 21440, Note_on_c, 6, 78, 80
8, 21458, Note_on_c, 6, 78, 0
8, 21460, Note_on_c, 6, 75, 80
8, 21478, Note_on_c, 6, 75, 0
8, 21480, Note_on_c, 6, 73, 47
8, 21498, Note_on_c, 6, 73, 0
8, 21500, Note_on_c, 6, 75, 47
8, 21518, Note_on_c, 6, 75, 0
8, 21520, Note_on_c, 6, 78, 47
8, 21538, Note_on_c, 6, 78, 0
8, 21540, Note_on_c, 6, 80, 47
8, 21558, Note_on_c, 6, 80, 0
8, 21560, Note_on_c, 6, 85, 47
8, 21578, Note_on_c, 6, 85, 0
8, 21580, Note_on_c, 6, 87, 47
8, 21598, Note_on_c, 6, 87, 0
8, 21600, Note_on_c, 6, 85, 80
8, 21618, Note_on_c, 6, 85, 0
8, 21620, Note_on_c, 6, 83, 80
8, 21638, Note_on_c, 6, 83, 0
8, 21640, Note_on_c, 6, 78, 80
8, 21658, Note_on_c, 6, 78, 0
8, 21660, Note_on_c, 6, 74, 80
8, 21678, Note_on_c, 6, 74, 0
8, 21680, Note_on_c, 6, 71, 80
8, 21698, Note_on_c, 6, 71, 0
8, 21700, Note_on_c, 6, 69, 80
8, 21718, Note_on_c, 6, 69, 0
8, 21720, Note_on_c, 6, 66, 49
8, 21738, Note_on_c, 6, 66, 0
8, 21740, Note_on_c, 6, 69, 49
8, 21758, Note_on_c, 6, 69, 0
8, 21760, Note_on_c, 6, 71, 49
8, 21778, Note_on_c, 6, 71, 0
8, 21780, Note_on_c, 6, 74, 48
8, 21798, Note_on_c, 6, 74, 0
8, 21800, Note_on_c, 6, 78, 48
8, 21818, Note_on_c, 6, 78, 0
8, 21820, Note_on_c, 6, 83, 48
8, 21838, Note_on_c, 6, 83, 0
8, 21840, Note_on_c, 6, 85, 80
8, 21858, Note_on_c, 6, 85, 0
8, 21860, Note_on_c, 6, 83, 80
8, 21878, Note_on_c, 6, 83, 0
8, 21880, Note_on_c, 6, 78, 80
8, 21898, Note_on_c, 6, 78, 0
8, 21900, Note_on_c, 6, 74, 80
8, 21918, Note_on_c, 6, 74, 0
8, 21920, Note_on_c, 6, 71, 80
8, 21938, Note_on_c, 6, 71, 0
8, 21940, Note_on_c, 6, 69, 80
8, 21958, Note_on_c, 6, 69, 0
8, 21960, Note_on_c, 6, 66, 47
8, 21978, Note_on_c, 6, 66, 0
8, 21980, Note_on_c, 6, 69, 47
8, 21998, Note_on_c, 6, 69, 0
8, 22000, Note_on_c, 6, 71, 47
8, 22018, Note_on_c, 6, 71, 0
8, 22020, Note_on_c, 6, 74, 47
8, 22038, Note_on_c, 6, 74, 0
8, 22040, Note_on_c, 6, 78, 47
8, 22058, Note_on_c, 6, 78, 0
8, 22060, Note_on_c, 6, 83, 47
8, 22078, Note_on_c, 6, 83, 0
8, 22080, Note_on_c, 6, 85, 80
8, 22098, Note_on_c, 6, 85, 0
8, 22100, Note_on_c, 6, 83, 80
8, 22118, Note_on_c, 6, 83, 0
8, 22120, Note_on_c, 6, 78, 80
8, 22138, Note_on_c, 6, 78, 0
8, 22140, Note_on_c, 6, 74, 80
8, 22158, Note_on_c, 6, 74, 0
8, 22160, Note_on_c, 6, 71, 80
8, 22178, Note_on_c, 6, 71, 0
8, 22180, Note_on_c, 6, 69, 80
8, 22198, Note_on_c, 6, 69, 0
8, 22200, Note_on_c, 6, 66, 49
8, 22218, Note_on_c, 6, 66, 0
8, 22220, Note_on_c, 6, 69, 49
8, 22238, Note_on_c, 6, 69, 0
8, 22240, Note_on_c, 6, 71, 49
8, 22258, Note_on_c, 6, 71, 0
8, 22260, Note_on_c, 6, 74, 49
8, 22278, Note_on_c, 6, 74, 0
8, 22280, Note_on_c, 6, 78, 49
8, 22298, Note_on_c, 6, 78, 0
8, 22300, Note_on_c, 6, 83, 49
8, 22318, Note_on_c, 6, 83, 0
8, 22320, Note_on_c, 6, 85, 80
8, 22338, Note_on_c, 6, 85, 0
8, 22340, Note_on_c, 6, 83, 80
8, 22358, Note_on_c, 6, 83, 0
8, 22360, Note_on_c, 6, 78, 80
8, 22378, Note_on_c, 6, 78, 0
8, 22380, Note_on_c, 6, 74, 80
8, 22398, Note_on_c, 6, 74, 0
8, 22400, Note_on_c, 6, 71, 80
8, 22418, Note_on_c, 6, 71, 0
8, 22420, Note_on_c, 6, 69, 80
8, 22438, Note_on_c, 6, 69, 0
8, 22440, Note_on_c, 6, 66, 50
8, 22458, Note_on_c, 6, 66, 0
8, 22460, Note_on_c, 6, 69, 50
8, 22478, Note_on_c, 6, 69, 0
8, 22480, Note_on_c, 6, 71, 50
8, 22498, Note_on_c, 6, 71, 0
8, 22500, Note_on_c, 6, 74, 50
8, 22518, Note_on_c, 6, 74, 0
8, 22520, Note_on_c, 6, 78, 50
8, 22538, Note_on_c, 6, 78, 0
8, 22540, Note_on_c, 6, 83, 50
8, 22558, Note_on_c, 6, 83, 0
8, 22560, Note_on_c, 6, 87, 80
8, 22578, Note_on_c, 6, 87, 0
8, 22580, Note_on_c, 6, 85, 80
8, 22598, Note_on_c, 6, 85, 0
8, 22600, Note_on_c, 6, 83, 80
8, 22618, Note_on_c, 6, 83, 0
8, 22620, Note_on_c, 6, 78, 80
8, 22638, Note_on_c, 6, 78, 0
8, 22640, Note_on_c, 6, 75, 80
8, 22658, Note_on_c, 6, 75, 0
8, 22660, Note_on_c, 6, 71, 80
8, 22678, Note_on_c, 6, 71, 0
8, 22680, Note_on_c, 6, 66, 49
8, 22698, Note_on_c, 6, 66, 0
8, 22700, Note_on_c, 6, 71, 49
8, 22718, Note_on_c, 6, 71, 0
8, 22720, Note_on_c, 6, 75, 49
8, 22738, Note_on_c, 6, 75, 0
8, 22740, Note_on_c, 6, 78, 49
8, 22758, Note_on_c, 6, 78, 0
8, 22760, Note_on_c, 6, 83, 49
8, 22778, Note_on_c, 6, 83, 0
8, 22780, Note_on_c, 6, 85, 49
8, 22798, Note_on_c, 6, 85, 0
8, 22800, Note_on_c, 6, 87, 80
8, 22818, Note_on_c, 6, 87, 0
8, 22820, Note_on_c, 6, 85, 80
8, 22838, Note_on_c, 6, 85, 0
8, 22840, Note_on_c, 6, 83, 80
8, 22858, Note_on_c, 6, 83, 0
8, 22860, Note_on_c, 6, 78, 80
8, 22878, Note_on_c, 6, 78, 0
8, 22880, Note_on_c, 6, 75, 80
8, 22898, Note_on_c, 6, 75, 0
8, 22900, Note_on_c, 6, 71, 80
8, 22918, Note_on_c, 6, 71, 0
8, 22920, Note_on_c, 6, 66, 49
8, 22938, Note_on_c, 6, 66, 0
8, 22940, Note_on_c, 6, 71, 49
8, 22958, Note_on_c, 6, 71, 0
8, 22960, Note_on_c, 6, 75, 49
8, 22978, Note_on_c, 6, 75, 0
8, 22980, Note_on_c, 6, 78, 49
8, 22998, Note_on_c, 6, 78, 0
8, 23000, Note_on_c, 6, 83, 49
8, 23018, Note_on_c, 6, 83, 0
8, 23020, Note_on_c, 6, 85, 49
8, 23038, Note_on_c, 6, 85, 0
8, 23040, Note_on_c, 6, 87, 80
8, 23058, Note_on_c, 6, 87, 0
8, 23060, Note_on_c, 6, 85, 80
8, 23078, Note_on_c, 6, 85, 0
8, 23080, Note_on_c, 6, 83, 80
8, 23098, Note_on_c, 6, 83, 0
8, 23100, Note_on_c, 6, 78, 80
8, 23118, Note_on_c, 6, 78, 0
8, 23120, Note_on_c, 6, 75, 80
8, 23138, Note_on_c, 6, 75, 0
8, 23140, Note_on_c, 6, 71, 80
8, 23158, Note_on_c, 6, 71, 0
8, 23160, Note_on_c, 6, 66, 49
8, 23178, Note_on_c, 6, 66, 0
8, 23180, Note_on_c, 6, 71, 49
8, 23198, Note_on_c, 6, 71, 0
8, 23200, Note_on_c, 6, 75, 49
8, 23218, Note_on_c, 6, 75, 0
8, 23220, Note_on_c, 6, 78, 49
8, 23238, Note_on_c, 6, 78, 0
8, 23240, Note_on_c, 6, 83, 49
8, 23258, Note_on_c, 6, 83, 0
8, 23260, Note_on_c, 6, 85, 49
8, 23278, Note_on_c, 6, 85, 0
8, 23280, Note_on_c, 6, 87, 80
8, 23298, Note_on_c, 6, 87, 0
8, 23300, Note_on_c, 6, 85, 80
8, 23318, Note_on_c, 6, 85, 0
8, 23320, Note_on_c, 6, 83, 80
8, 23338, Note_on_c, 6, 83, 0
8, 23340, Note_on_c, 6, 78, 80
8, 23358, Note_on_c, 6, 78, 0
8, 23360, Note_on_c, 6, 75, 80
8, 23378, Note_on_c, 6, 75, 0
8, 23380, Note_on_c, 6, 71, 80
8, 23398, Note_on_c, 6, 71, 0
8, 23400, Note_on_c, 6, 66, 49
8, 23418, Note_on_c, 6, 66, 0
8, 23420, Note_on_c, 6, 71, 49
8, 23438, Note_on_c, 6, 71, 0
8, 23440, Note_on_c, 6, 75, 49
8, 23458, Note_on_c, 6, 75, 0
8, 23460, Note_on_c, 6, 78, 48
8, 23478, Note_on_c, 6, 78, 0
8, 23480, Note_on_c, 6, 83, 48
8, 23498, Note_on_c, 6, 83, 0
8, 23500, Note_on_c, 6, 85, 48
8, 23518, Note_on_c, 6, 85, 0
8, 23520, Note_on_c, 6, 87, 80
8, 23538, Note_on_c, 6, 87, 0
8, 23540, Note_on_c, 6, 85, 80
8, 23558, Note_on_c, 6, 85, 0
8, 23560, Note_on_c, 6, 83, 80
8, 23578, Note_on_c, 6, 83, 0
8, 23580, Note_on_c, 6, 78, 80
8, 23598, Note_on_c, 6, 78, 0
8, 23600, Note_on_c, 6, 75, 80
8, 23618, Note_on_c, 6, 75, 0
8, 23620, Note_on_c, 6, 71, 80
8, 23638, Note_on_c, 6, 71, 0
8, 23640, Note_on_c, 6, 66, 53
8, 23658, Note_on_c, 6, 66, 0
8, 23660, Note_on_c, 6, 71, 53
8, 23678, Note_on_c, 6, 71, 0
8, 23680, Note_on_c, 6, 75, 52
8, 23698, Note_on_c, 6, 75, 0
8, 23700, Note_on_c, 6, 78, 52
8, 23718, Note_on_c, 6, 78, 0
8, 23720, Note_on_c, 6, 83, 51
8, 23738, Note_on_c, 6, 83, 0
8, 23740, Note_on_c, 6, 85, 51
8, 23758, Note_on_c, 6, 85, 0
8, 23760, Note_on_c, 6, 87, 80
8, 23778, Note_on_c, 6, 87, 0
8, 23780, Note_on_c, 6, 85, 80
8, 23798, Note_on_c, 6, 85, 0
8, 23800, Note_on_c, 6, 83, 80
8, 23818, Note_on_c, 6, 83, 0
8, 23820, Note_on_c, 6, 78, 80
8, 23838, Note_on_c, 6, 78, 0
8, 23840, Note_on_c, 6, 75, 80
8, 23858, Note_on_c, 6, 75, 0
8, 23860, Note_on_c, 6, 71, 80
8, 23878, Note_on_c, 6, 71, 0
8, 23880, Note_on_c, 6, 66, 52
8, 23898, Note_on_c, 6, 66, 0
8, 23900, Note_on_c, 6, 71, 52
8, 23918, Note_on_c, 6, 71, 0
8, 23920, Note_on_c, 6, 75, 52
8, 23938, Note_on_c, 6, 75, 0
8, 23940, Note_on_c, 6, 78, 52
8, 23958, Note_on_c, 6, 78, 0
8, 23960, Note_on_c, 6, 83, 52
8, 23978, Note_on_c, 6, 83, 0
8, 23980, Note_on_c, 6, 85, 52
8, 23998, Note_on_c, 6, 85, 0
8, 24000, Note_on_c, 6, 87, 80
8, 24018, Note_on_c, 6, 87, 0
8, 24020, Note_on_c, 6, 85, 80
8, 24038, Note_on_c, 6, 85, 0
8, 24040, Note_on_c, 6, 83, 80
8, 24058, Note_on_c, 6, 83, 0
8, 24060, Note_on_c, 6, 78, 80
8, 24078, Note_on_c, 6, 78, 0
8, 24080, Note_on_c, 6, 75, 80
8, 24098, Note_on_c, 6, 75, 0
8, 24100, Note_on_c, 6, 71, 80
8, 24118, Note_on_c, 6, 71, 0
8, 24120, Note_on_c, 6, 66, 52
8, 24138, Note_on_c, 6, 66, 0
8, 24140, Note_on_c, 6, 71, 52
8, 24158, Note_on_c, 6, 71, 0
8, 24160, Note_on_c, 6, 75, 52
8, 24178, Note_on_c, 6, 75, 0
8, 24180, Note_on_c, 6, 78, 52
8, 24198, Note_on_c, 6, 78, 0
8, 24200, Note_on_c, 6, 83, 52
8, 24218, Note_on_c, 6, 83, 0
8, 24220, Note_on_c, 6, 85, 52
8, 24238, Note_on_c, 6, 85, 0
8, 24240, Note_on_c, 6, 87, 80
8, 24258, Note_on_c, 6, 87, 0
8, 24260, Note_on_c, 6, 85, 80
8, 24278, Note_on_c, 6, 85, 0
8, 24280, Note_on_c, 6, 83, 80
8, 24298, Note_on_c, 6, 83, 0
8, 24300, Note_on_c, 6, 78, 80
8, 24318, Note_on_c, 6, 78, 0
8, 24320, Note_on_c, 6, 75, 80
8, 24338, Note_on_c, 6, 75, 0
8, 24340, Note_on_c, 6, 71, 80
8, 24358, Note_on_c, 6, 71, 0
8, 24360, Note_on_c, 6, 66, 52
8, 24378, Note_on_c, 6, 66, 0
8, 24380, Note_on_c, 6, 71, 52
8, 24398, Note_on_c, 6, 71, 0
8, 24400, Note_on_c, 6, 75, 52
8, 24418, Note_on_c, 6, 75, 0
8, 24420, Note_on_c, 6, 78, 52
8, 24438, Note_on_c, 6, 78, 0
8, 24440, Note_on_c, 6, 83, 52
8, 24458, Note_on_c, 6, 83, 0
8, 24460, Note_on_c, 6, 85, 52
8, 24478, Note_on_c, 6, 85, 0
8, 24480, Note_on_c, 6, 85, 80
8, 24498, Note_on_c, 6, 85, 0
8, 24500, Note_on_c, 6, 83, 80
8, 24518, Note_on_c, 6, 83, 0
8, 24520, Note_on_c, 6, 81, 80
8, 24538, Note_on_c, 6, 81, 0
8, 24540, Note_on_c, 6, 78, 80
8, 24558, Note_on_c, 6, 78, 0
8, 24560, Note_on_c, 6, 73, 80
8, 24578, Note_on_c, 6, 73, 0
8, 24580, Note_on_c, 6, 69, 80
8, 24598, Note_on_c, 6, 69, 0
8, 24600, Note_on_c, 6, 66, 49
8, 24618, Note_on_c, 6, 66, 0
8, 24620, Note_on_c, 6, 69, 49
8, 24638, Note_on_c, 6, 69, 0
8, 24640, Note_on_c, 6, 73, 49
8, 24658, Note_on_c, 6, 73, 0
8, 24660, Note_on_c, 6, 78, 48
8, 24678, Note_on_c, 6, 78, 0
8, 24680, Note_on_c, 6, 81, 48
8, 24698, Note_on_c, 6, 81, 0
8, 24700, Note_on_c, 6, 83, 48
8, 24718, Note_on_c, 6, 83, 0
8, 24720, Note_on_c, 6, 85, 80
8, 24738, Note_on_c, 6, 85, 0
8, 24740, Note_on_c, 6, 83, 80
8, 24758, Note_on_c, 6, 83, 0
8, 24760, Note_on_c, 6, 81, 80
8, 24778, Note_on_c, 6, 81, 0
8, 24780, Note_on_c, 6, 78, 80
8, 24798, Note_on_c, 6, 78, 0
8, 24800, Note_on_c, 6, 73, 80
8, 24818, Note_on_c, 6, 73, 0
8, 24820, Note_on_c, 6, 69, 80
8, 24838, Note_on_c, 6, 69, 0
8, 24840, Note_on_c, 6, 66, 49
8, 24858, Note_on_c, 6, 66, 0
8, 24860, Note_on_c, 6, 69, 49
8, 24878, Note_on_c, 6, 69, 0
8, 24880, Note_on_c, 6, 73, 49
8, 24898, Note_on_c, 6, 73, 0
8, 24900, Note_on_c, 6, 78, 48
8, 24918, Note_on_c, 6, 78, 0
8, 24920, Note_on_c, 6, 81, 48
8, 24938, Note_on_c, 6, 81, 0
8, 24940, Note_on_c, 6, 83, 48
8, 24958, Note_on_c, 6, 83, 0
8, 24960, Note_on_c, 6, 85, 80
8, 24960, Note_on_c, 6, 85, 80
8, 24978, Note_on_c, 6, 85, 0
8, 24978, Note_on_c, 6, 85, 0
8, 24980, Note_on_c, 6, 83, 80
8, 24980, Note_on_c, 6, 83, 80
8, 24998, Note_on_c, 6, 83, 0
8, 24998, Note_on_c, 6, 83, 0
8, 25000, Note_on_c, 6, 81, 80
8, 25000, Note_on_c, 6, 81, 80
8, 25018, Note_on_c, 6, 81, 0
8, 25018, Note_on_c, 6, 81, 0
8, 25020, Note_on_c, 6, 78, 80
8, 25020, Note_on_c, 6, 78, 80
8, 25038, Note_on_c, 6, 78, 0
8, 25038, Note_on_c, 6, 78, 0
8, 25040, Note_on_c, 6, 73, 80
8, 25040, Note_on_c, 6, 73, 80
8, 25058, Note_on_c, 6, 73, 0
8, 25058, Note_on_c, 6, 73, 0
8, 25060, Note_on_c, 6, 69, 80
8, 25060, Note_on_c, 6, 69, 80
8, 25078, Note_on_c, 6, 69, 0
8, 25078, Note_on_c, 6, 69, 0
8, 25080, Note_on_c, 6, 66, 49
8, 25080, Note_on_c, 6, 66, 49
8, 25098, Note_on_c, 6, 66, 0
8, 25098, Note_on_c, 6, 66, 0
8, 25100, Note_on_c, 6, 69, 49
8, 25100, Note_on_c, 6, 69, 49
8, 25118, Note_on_c, 6, 69, 0
8, 25118, Note_on_c, 6, 69, 0
8, 25120, Note_on_c, 6, 73, 49
8, 25120, Note_on_c, 6, 73, 49
8, 25138, Note_on_c, 6, 73, 0
8, 25138, Note_on_c, 6, 73, 0
8, 25140, Note_on_c, 6, 78, 48
8, 25140, Note_on_c, 6, 78, 48
8, 25158, Note_on_c, 6, 78, 0
8, 25158, Note_on_c, 6, 78, 0
8, 25160, Note_on_c, 6, 81, 48
8, 25160, Note_on_c, 6, 81, 48
8, 25178, Note_on_c, 6, 81, 0
8, 25178, Note_on_c, 6, 81, 0
8, 25180, Note_on_c, 6, 83, 48
8, 25180, Note_on_c, 6, 83, 48
8, 25198, Note_on_c, 6, 83, 0
8, 25198, Note_on_c, 6, 83, 0
8, 25200, Note_on_c, 6, 85, 80
8, 25200, Note_on_c, 6, 85, 80
8, 25218, Note_on_c, 6, 85, 0
8, 25218, Note_on_c, 6, 85, 0
8, 25220, Note_on_c, 6, 83, 80
8, 25220, Note_on_c, 6, 83, 80
8, 25238, Note_on_c, 6, 83, 0
8, 25238, Note_on_c, 6, 83, 0
8, 25240, Note_on_c, 6, 81, 80
8, 25240, Note_on_c, 6, 81, 80
8, 25258, Note_on_c, 6, 81, 0
8, 25258, Note_on_c, 6, 81, 0
8, 25260, Note_on_c, 6, 78, 80
8, 25260, Note_on_c, 6, 78, 80
8, 25278, Note_on_c, 6, 78, 0
8, 25278, Note_on_c, 6, 78, 0
8, 25280, Note_on_c, 6, 73, 80
8, 25280, Note_on_c, 6, 73, 80
8, 25298, Note_on_c, 6, 73, 0
8, 25298, Note_on_c, 6, 73, 0
8, 25300, Note_on_c, 6, 69, 80
8, 25300, Note_on_c, 6, 69, 80
8, 25318, Note_on_c, 6, 69, 0
8, 25318, Note_on_c, 6, 69, 0
8, 25320, Note_on_c, 6, 66, 49
8, 25320, Note_on_c, 6, 66, 49
8, 25338, Note_on_c, 6, 66, 0
8, 25338, Note_on_c, 6, 66, 0
8, 25340, Note_on_c, 6, 69, 49
8, 25340, Note_on_c, 6, 69, 49
8, 25358, Note_on_c, 6, 69, 0
8, 25358, Note_on_c, 6, 69, 0
8, 25360, Note_on_c, 6, 73, 49
8, 25360, Note_on_c, 6, 73, 49
8, 25378, Note_on_c, 6, 73, 0
8, 25378, Note_on_c, 6, 73, 0
8, 25380, Note_on_c, 6, 78, 48
8, 25380, Note_on_c, 6, 78, 48
8, 25398, Note_on_c, 6, 78, 0
8, 25398, Note_on_c, 6, 78, 0
8, 25400, Note_on_c, 6, 81, 48
8, 25400, Note_on_c, 6, 81, 48
8, 25418, Note_on_c, 6, 81, 0
8, 25418, Note_on_c, 6, 81, 0
8, 25420, Note_on_c, 6, 83, 48
8, 25420, Note_on_c, 6, 83, 48
8, 25438, Note_on_c, 6, 83, 0
8, 25438, Note_on_c, 6, 83, 0
8, 25440, Note_on_c, 6, 85, 80
8, 25440, Note_on_c, 6, 85, 80
8, 25458, Note_on_c, 6, 85, 0
8, 25458, Note_on_c, 6, 85, 0
8, 25460, Note_on_c, 6, 83, 80
8, 25460, Note_on_c, 6, 83, 80
8, 25478, Note_on_c, 6, 83, 0
8, 25478, Note_on_c, 6, 83, 0
8, 25480, Note_on_c, 6, 81, 80
8, 25480, Note_on_c, 6, 81, 80
8, 25498, Note_on_c, 6, 81, 0
8, 25498, Note_on_c, 6, 81, 0
8, 25500, Note_on_c, 6, 78, 80
8, 25500, Note_on_c, 6, 78, 80
8, 25518, Note_on_c, 6, 78, 0
8, 25518, Note_on_c, 6, 78, 0
8, 25520, Note_on_c, 6, 73, 80
8, 25520, Note_on_c, 6, 73, 80
8, 25538, Note_on_c, 6, 73, 0
8, 25538, Note_on_c, 6, 73, 0
8, 25540, Note_on_c, 6, 69, 80
8, 25540, Note_on_c, 6, 69, 80
8, 25558, Note_on_c, 6, 69, 0
8, 25558, Note_on_c, 6, 69, 0
8, 25560, Note_on_c, 6, 66, 49
8, 25560, Note_on_c, 6, 66, 49
8, 25578, Note_on_c, 6, 66, 0
8, 25578, Note_on_c, 6, 66, 0
8, 25580, Note_on_c, 6, 69, 49
8, 25580, Note_on_c, 6, 69, 49
8, 25598, Note_on_c, 6, 69, 0
8, 25598, Note_on_c, 6, 69, 0
8, 25600, Note_on_c, 6, 73, 49
8, 25600, Note_on_c, 6, 73, 49
8, 25618, Note_on_c, 6, 73, 0
8, 25618, Note_on_c, 6, 73, 0
8, 25620, Note_on_c, 6, 78, 48
8, 25620, Note_on_c, 6, 78, 48
8, 25638, Note_on_c, 6, 78, 0
8, 25638, Note_on_c, 6, 78, 0
8, 25640, Note_on_c, 6, 81, 48
8, 25640, Note_on_c, 6, 81, 48
8, 25658, Note_on_c, 6, 81, 0
8, 25658, Note_on_c, 6, 81, 0
8, 25660, Note_on_c, 6, 83, 48
8, 25660, Note_on_c, 6, 83, 48
8, 25678, Note_on_c, 6, 83, 0
8, 25678, Note_on_c, 6, 83, 0
8, 25680, Note_on_c, 6, 85, 80
8, 25680, Note_on_c, 6, 85, 80
8, 25698, Note_on_c, 6, 85, 0
8, 25698, Note_on_c, 6, 85, 0
8, 25700, Note_on_c, 6, 83, 80
8, 25700, Note_on_c, 6, 83, 80
8, 25718, Note_on_c, 6, 83, 0
8, 25718, Note_on_c, 6, 83, 0
8, 25720, Note_on_c, 6, 81, 80
8, 25720, Note_on_c, 6, 81, 80
8, 25738, Note_on_c, 6, 81, 0
8, 25738, Note_on_c, 6, 81, 0
8, 25740, Note_on_c, 6, 78, 80
8, 25740, Note_on_c, 6, 78, 80
8, 25758, Note_on_c, 6, 78, 0
8, 25758, Note_on_c, 6, 78, 0
8, 25760, Note_on_c, 6, 73, 80
8, 25760, Note_on_c, 6, 73, 80
8, 25778, Note_on_c, 6, 73, 0
8, 25778, Note_on_c, 6, 73, 0
8, 25780, Note_on_c, 6, 69, 80
8, 25780, Note_on_c, 6, 69, 80
8, 25798, Note_on_c, 6, 69, 0
8, 25798, Note_on_c, 6, 69, 0
8, 25800, Note_on_c, 6, 66, 49
8, 25800, Note_on_c, 6, 66, 49
8, 25818, Note_on_c, 6, 66, 0
8, 25818, Note_on_c, 6, 66, 0
8, 25820, Note_on_c, 6, 69, 49
8, 25820, Note_on_c, 6, 69, 49
8, 25838, Note_on_c, 6, 69, 0
8, 25838, Note_on_c, 6, 69, 0
8, 25840, Note_on_c, 6, 73, 49
8, 25840, Note_on_c, 6, 73, 49
8, 25858, Note_on_c, 6, 73, 0
8, 25858, Note_on_c, 6, 73, 0
8, 25860, Note_on_c, 6, 78, 48
8, 25860, Note_on_c, 6, 78, 48
8, 25878, Note_on_c, 6, 78, 0
8, 25878, Note_on_c, 6, 78, 0
8, 25880, Note_on_c, 6, 81, 48
8, 25880, Note_on_c, 6, 81, 48
8, 25898, Note_on_c, 6, 81, 0
8, 25898, Note_on_c, 6, 81, 0
8, 25900, Note_on_c, 6, 83, 48
8, 25900, Note_on_c, 6, 83, 48
8, 25918, Note_on_c, 6, 83, 0
8, 25918, Note_on_c, 6, 83, 0
8, 25920, Note_on_c, 6, 85, 80
8, 25920, Note_on_c, 6, 85, 80
8, 25938, Note_on_c, 6, 85, 0
8, 25938, Note_on_c, 6, 85, 0
8, 25940, Note_on_c, 6, 83, 80
8, 25940, Note_on_c, 6, 83, 80
8, 25958, Note_on_c, 6, 83, 0
8, 25958, Note_on_c, 6, 83, 0
8, 25960, Note_on_c, 6, 81, 80
8, 25960, Note_on_c, 6, 81, 80
8, 25978, Note_on_c, 6, 81, 0
8, 25978, Note_on_c, 6, 81, 0
8, 25980, Note_on_c, 6, 78, 80
8, 25980, Note_on_c, 6, 78, 80
8, 25998, Note_on_c, 6, 78, 0
8, 25998, Note_on_c, 6, 78, 0
8, 26000, Note_on_c, 6, 73, 80
8, 26000, Note_on_c, 6, 73, 80
8, 26018, Note_on_c, 6, 73, 0
8, 26018, Note_on_c, 6, 73, 0
8, 26020, Note_on_c, 6, 69, 80
8, 26020, Note_on_c, 6, 69, 80
8, 26038, Note_on_c, 6, 69, 0
8, 26038, Note_on_c, 6, 69, 0
8, 26040, Note_on_c, 6, 66, 49
8, 26040, Note_on_c, 6, 66, 49
8, 26058, Note_on_c, 6, 66, 0
8, 26058, Note_on_c, 6, 66, 0
8, 26060, Note_on_c, 6, 69, 49
8, 26060, Note_on_c, 6, 69, 49
8, 26078, Note_on_c, 6, 69, 0
8, 26078, Note_on_c, 6, 69, 0
8, 26080, Note_on_c, 6, 73, 49
8, 26080, Note_on_c, 6, 73, 49
8, 26098, Note_on_c, 6, 73, 0
8, 26098, Note_on_c, 6, 73, 0
8, 26100, Note_on_c, 6, 78, 48
8, 26100, Note_on_c, 6, 78, 48
8, 26118, Note_on_c, 6, 78, 0
8, 26118, Note_on_c, 6, 78, 0
8, 26120, Note_on_c, 6, 81, 48
8, 26120, Note_on_c, 6, 81, 48
8, 26138, Note_on_c, 6, 81, 0
8, 26138, Note_on_c, 6, 81, 0
8, 26140, Note_on_c, 6, 83, 48
8, 26140, Note_on_c, 6, 83, 48
8, 26158, Note_on_c, 6, 83, 0
8, 26158, Note_on_c, 6, 83, 0
8, 26160, Note_on_c, 6, 85, 80
8, 26160, Note_on_c, 6, 85, 80
8, 26178, Note_on_c, 6, 85, 0
8, 26178, Note_on_c, 6, 85, 0
8, 26180, Note_on_c, 6, 83, 80
8, 26180, Note_on_c, 6, 83, 80
8, 26198, Note_on_c, 6, 83, 0
8, 26198, Note_on_c, 6, 83, 0
8, 26200, Note_on_c, 6, 81, 80
8, 26200, Note_on_c, 6, 81, 80
8, 26218, Note_on_c, 6, 81, 0
8, 26218, Note_on_c, 6, 81, 0
8, 26220, Note_on_c, 6, 78, 80
8, 26220, Note_on_c, 6, 78, 80
8, 26238, Note_on_c, 6, 78, 0
8, 26238, Note_on_c, 6, 78, 0
8, 26240, Note_on_c, 6, 73, 80
8, 26240, Note_on_c, 6, 73, 80
8, 26258, Note_on_c, 6, 73, 0
8, 26258, Note_on_c, 6, 73, 0
8, 26260, Note_on_c, 6, 69, 80
8, 26260, Note_on_c, 6, 69, 80
8, 26278, Note_on_c, 6, 69, 0
8, 26278, Note_on_c, 6, 69, 0
8, 26280, Note_on_c, 6, 66, 49
8, 26280, Note_on_c, 6, 66, 49
8, 26298, Note_on_c, 6, 66, 0
8, 26298, Note_on_c, 6, 66, 0
8, 26300, Note_on_c, 6, 69, 49
8, 26300, Note_on_c, 6, 69, 49
8, 26318, Note_on_c, 6, 69, 0
8, 26318, Note_on_c, 6, 69, 0
8, 26320, Note_on_c, 6, 73, 49
8, 26320, Note_on_c, 6, 73, 49
8, 26338, Note_on_c, 6, 73, 0
8, 26338, Note_on_c, 6, 73, 0
8, 26340, Note_on_c, 6, 78, 48
8, 26340, Note_on_c, 6, 78, 48
8, 26358, Note_on_c, 6, 78, 0
8, 26358, Note_on_c, 6, 78, 0
8, 26360, Note_on_c, 6, 81, 48
8, 26360, Note_on_c, 6, 81, 48
8, 26378, Note_on_c, 6, 81, 0
8, 26378, Note_on_c, 6, 81, 0
8, 26380, Note_on_c, 6, 83, 48
8, 26380, Note_on_c, 6, 83, 48
8, 26398, Note_on_c, 6, 83, 0
8, 26398, Note_on_c, 6, 83, 0
8, 26400, Note_on_c, 6, 85, 79
8, 26400, Note_on_c, 6, 85, 80
8, 26418, Note_on_c, 6, 85, 0
8, 26418, Note_on_c, 6, 85, 0
8, 26420, Note_on_c, 6, 83, 79
8, 26420, Note_on_c, 6, 83, 80
8, 26438, Note_on_c, 6, 83, 0
8, 26438, Note_on_c, 6, 83, 0
8, 26440, Note_on_c, 6, 78, 79
8, 26440, Note_on_c, 6, 81, 80
8, 26458, Note_on_c, 6, 81, 0
8, 26458, Note_on_c, 6, 78, 0
8, 26460, Note_on_c, 6, 74, 79
8, 26460, Note_on_c, 6, 78, 80
8, 26478, Note_on_c, 6, 78, 0
8, 26478, Note_on_c, 6, 74, 0
8, 26480, Note_on_c, 6, 71, 79
8, 26480, Note_on_c, 6, 73, 80
8, 26498, Note_on_c, 6, 73, 0
8, 26498, Note_on_c, 6, 71, 0
8, 26500, Note_on_c, 6, 67, 79
8, 26500, Note_on_c, 6, 69, 80
8, 26518, Note_on_c, 6, 69, 0
8, 26518, Note_on_c, 6, 67, 0
8, 26520, Note_on_c, 6, 64, 50
8, 26520, Note_on_c, 6, 66, 49
8, 26538, Note_on_c, 6, 66, 0
8, 26538, Note_on_c, 6, 64, 0
8, 26540, Note_on_c, 6, 67, 50
8, 26540, Note_on_c, 6, 69, 49
8, 26558, Note_on_c, 6, 69, 0
8, 26558, Note_on_c, 6, 67, 0
8, 26560, Note_on_c, 6, 71, 50
8, 26560, Note_on_c, 6, 73, 49
8, 26578, Note_on_c, 6, 73, 0
8, 26578, Note_on_c, 6, 71, 0
8, 26580, Note_on_c, 6, 74, 50
8, 26580, Note_on_c, 6, 78, 48
8, 26598, Note_on_c, 6, 78, 0
8, 26598, Note_on_c, 6, 74, 0
8, 26600, Note_on_c, 6, 78, 50
8, 26600, Note_on_c, 6, 81, 48
8, 26618, Note_on_c, 6, 81, 0
8, 26618, Note_on_c, 6, 78, 0
8, 26620, Note_on_c, 6, 83, 50
8, 26620, Note_on_c, 6, 83, 48
8, 26638, Note_on_c, 6, 83, 0
8, 26638, Note_on_c, 6, 83, 0
8, 26640, Note_on_c, 6, 85, 80
8, 26640, Note_on_c, 6, 85, 79
8, 26658, Note_on_c, 6, 85, 0
8, 26658, Note_on_c, 6, 85, 0
8, 26660, Note_on_c, 6, 83, 80
8, 26660, Note_on_c, 6, 83, 79
8, 26678, Note_on_c, 6, 83, 0
8, 26678, Note_on_c, 6, 83, 0
8, 26680, Note_on_c, 6, 81, 80
8, 26680, Note_on_c, 6, 78, 79
8, 26698, Note_on_c, 6, 78, 0
8, 26698, Note_on_c, 6, 81, 0
8, 26700, Note_on_c, 6, 78, 80
8, 26700, Note_on_c, 6, 74, 79
8, 26718, Note_on_c, 6, 74, 0
8, 26718, Note_on_c, 6, 78, 0
8, 26720, Note_on_c, 6, 73, 80
8, 26720, Note_on_c, 6, 71, 79
8, 26738, Note_on_c, 6, 71, 0
8, 26738, Note_on_c, 6, 73, 0
8, 26740, Note_on_c, 6, 69, 80
8, 26740, Note_on_c, 6, 67, 79
8, 26758, Note_on_c, 6, 67, 0
8, 26758, Note_on_c, 6, 69, 0
8, 26760, Note_on_c, 6, 66, 49
8, 26760, Note_on_c, 6, 64, 50
8, 26778, Note_on_c, 6, 64, 0
8, 26778, Note_on_c, 6, 66, 0
8, 26780, Note_on_c, 6, 69, 49
8, 26780, Note_on_c, 6, 67, 50
8, 26798, Note_on_c, 6, 67, 0
8, 26798, Note_on_c, 6, 69, 0
8, 26800, Note_on_c, 6, 73, 49
8, 26800, Note_on_c, 6, 71, 50
8, 26818, Note_on_c, 6, 71, 0
8, 26818, Note_on_c, 6, 73, 0
8, 26820, Note_on_c, 6, 78, 48
8, 26820, Note_on_c, 6, 74, 50
8, 26838, Note_on_c, 6, 74, 0
8, 26838, Note_on_c, 6, 78, 0
8, 26840, Note_on_c, 6, 81, 48
8, 26840, Note_on_c, 6, 78, 50
8, 26858, Note_on_c, 6, 78, 0
8, 26858, Note_on_c, 6, 81, 0
8, 26860, Note_on_c, 6, 83, 48
8, 26860, Note_on_c, 6, 83, 50
8, 26878, Note_on_c, 6, 83, 0
8, 26878, Note_on_c, 6, 83, 0
8, 26880, Note_on_c, 6, 85, 79
8, 26880, Note_on_c, 6, 85, 79
8, 26898, Note_on_c, 6, 85, 0
8, 26898, Note_on_c, 6, 85, 0
8, 26900, Note_on_c, 6, 83, 79
8, 26900, Note_on_c, 6, 83, 79
8, 26918, Note_on_c, 6, 83, 0
8, 26918, Note_on_c, 6, 83, 0
8, 26920, Note_on_c, 6, 78, 79
8, 26920, Note_on_c, 6, 78, 79
8, 26938, Note_on_c, 6, 78, 0
8, 26938, Note_on_c, 6, 78, 0
8, 26940, Note_on_c, 6, 74, 79
8, 26940, Note_on_c, 6, 74, 79
8, 26958, Note_on_c, 6, 74, 0
8, 26958, Note_on_c, 6, 74, 0
8, 26960, Note_on_c, 6, 71, 79
8, 26960, Note_on_c, 6, 71, 79
8, 26978, Note_on_c, 6, 71, 0
8, 26978, Note_on_c, 6, 71, 0
8, 26980, Note_on_c, 6, 67, 79
8, 26980, Note_on_c, 6, 67, 79
8, 26998, Note_on_c, 6, 67, 0
8, 26998, Note_on_c, 6, 67, 0
8, 27000, Note_on_c, 6, 64, 50
8, 27000, Note_on_c, 6, 64, 50
8, 27018, Note_on_c, 6, 64, 0
8, 27018, Note_on_c, 6, 64, 0
8, 27020, Note_on_c, 6, 67, 50
8, 27020, Note_on_c, 6, 67, 50
8, 27038, Note_on_c, 6, 67, 0
8, 27038, Note_on_c, 6, 67, 0
8, 27040, Note_on_c, 6, 71, 50
8, 27040, Note_on_c, 6, 71, 50
8, 27058, Note_on_c, 6, 71, 0
8, 27058, Note_on_c, 6, 71, 0
8, 27060, Note_on_c, 6, 74, 50
8, 27060, Note_on_c, 6, 74, 50
8, 27078, Note_on_c, 6, 74, 0
8, 27078, Note_on_c, 6, 74, 0
8, 27080, Note_on_c, 6, 78, 50
8, 27080, Note_on_c, 6, 78, 50
8, 27098, Note_on_c, 6, 78, 0
8, 27098, Note_on_c, 6, 78, 0
8, 27100, Note_on_c, 6, 83, 50
8, 27100, Note_on_c, 6, 83, 50
8, 27118, Note_on_c, 6, 83, 0
8, 27118, Note_on_c, 6, 83, 0
8, 27120, Note_on_c, 6, 85, 79
8, 27120, Note_on_c, 6, 85, 79
8, 27138, Note_on_c, 6, 85, 0
8, 27138, Note_on_c, 6, 85, 0
8, 27140, Note_on_c, 6, 83, 79
8, 27140, Note_on_c, 6, 83, 79
8, 27158, Note_on_c, 6, 83, 0
8, 27158, Note_on_c, 6, 83, 0
8, 27160, Note_on_c, 6, 78, 79
8, 27160, Note_on_c, 6, 78, 79
8, 27178, Note_on_c, 6, 78, 0
8, 27178, Note_on_c, 6, 78, 0
8, 27180, Note_on_c, 6, 74, 79
8, 27180, Note_on_c, 6, 74, 79
8, 27198, Note_on_c, 6, 74, 0
8, 27198, Note_on_c, 6, 74, 0
8, 27200, Note_on_c, 6, 71, 79
8, 27200, Note_on_c, 6, 71, 79
8, 27218, Note_on_c, 6, 71, 0
8, 27218, Note_on_c, 6, 71, 0
8, 27220, Note_on_c, 6, 67, 79
8, 27220, Note_on_c, 6, 67, 79
8, 27238, Note_on_c, 6, 67, 0
8, 27238, Note_on_c, 6, 67, 0
8, 27240, Note_on_c, 6, 64, 50
8, 27240, Note_on_c, 6, 64, 50
8, 27258, Note_on_c, 6, 64, 0
8, 27258, Note_on_c, 6, 64, 0
8, 27260, Note_on_c, 6, 67, 50
8, 27260, Note_on_c, 6, 67, 50
8, 27278, Note_on_c, 6, 67, 0
8, 27278, Note_on_c, 6, 67, 0
8, 27280, Note_on_c, 6, 71, 50
8, 27280, Note_on_c, 6, 71, 50
8, 27298, Note_on_c, 6, 71, 0
8, 27298, Note_on_c, 6, 71, 0
8, 27300, Note_on_c, 6, 74, 50
8, 27300, Note_on_c, 6, 74, 50
8, 27318, Note_on_c, 6, 74, 0
8, 27318, Note_on_c, 6, 74, 0
8, 27320, Note_on_c, 6, 78, 50
8, 27320, Note_on_c, 6, 78, 50
8, 27338, Note_on_c, 6, 78, 0
8, 27338, Note_on_c, 6, 78, 0
8, 27340, Note_on_c, 6, 83, 50
8, 27340, Note_on_c, 6, 83, 50
8, 27358, Note_on_c, 6, 83, 0
8, 27358, Note_on_c, 6, 83, 0
8, 27360, Note_on_c, 6, 85, 79
8, 27360, Note_on_c, 6, 85, 79
8, 27378, Note_on_c, 6, 85, 0
8, 27378, Note_on_c, 6, 85, 0
8, 27380, Note_on_c, 6, 83, 79
8, 27380, Note_on_c, 6, 83, 79
8, 27398, Note_on_c, 6, 83, 0
8, 27398, Note_on_c, 6, 83, 0
8, 27400, Note_on_c, 6, 78, 79
8, 27400, Note_on_c, 6, 78, 79
8, 27418, Note_on_c, 6, 78, 0
8, 27418, Note_on_c, 6, 78, 0
8, 27420, Note_on_c, 6, 74, 79
8, 27420, Note_on_c, 6, 74, 79
8, 27438, Note_on_c, 6, 74, 0
8, 27438, Note_on_c, 6, 74, 0
8, 27440, Note_on_c, 6, 71, 79
8, 27440, Note_on_c, 6, 71, 79
8, 27458, Note_on_c, 6, 71, 0
8, 27458, Note_on_c, 6, 71, 0
8, 27460, Note_on_c, 6, 67, 79
8, 27460, Note_on_c, 6, 67, 79
8, 27478, Note_on_c, 6, 67, 0
8, 27478, Note_on_c, 6, 67, 0
8, 27480, Note_on_c, 6, 64, 50
8, 27480, Note_on_c, 6, 64, 50
8, 27498, Note_on_c, 6, 64, 0
8, 27498, Note_on_c, 6, 64, 0
8, 27500, Note_on_c, 6, 67, 50
8, 27500, Note_on_c, 6, 67, 50
8, 27518, Note_on_c, 6, 67, 0
8, 27518, Note_on_c, 6, 67, 0
8, 27520, Note_on_c, 6, 71, 50
8, 27520, Note_on_c, 6, 71, 50
8, 27538, Note_on_c, 6, 71, 0
8, 27538, Note_on_c, 6, 71, 0
8, 27540, Note_on_c, 6, 74, 50
8, 27540, Note_on_c, 6, 74, 50
8, 27558, Note_on_c, 6, 74, 0
8, 27558, Note_on_c, 6, 74, 0
8, 27560, Note_on_c, 6, 78, 50
8, 27560, Note_on_c, 6, 78, 50
8, 27578, Note_on_c, 6, 78, 0
8, 27578, Note_on_c, 6, 78, 0
8, 27580, Note_on_c, 6, 83, 50
8, 27580, Note_on_c, 6, 83, 50
8, 27598, Note_on_c, 6, 83, 0
8, 27598, Note_on_c, 6, 83, 0
8, 27600, Note_on_c, 6, 85, 79
8, 27600, Note_on_c, 6, 85, 79
8, 27618, Note_on_c, 6, 85, 0
8, 27618, Note_on_c, 6, 85, 0
8, 27620, Note_on_c, 6, 83, 79
8, 27620, Note_on_c, 6, 83, 79
8, 27638, Note_on_c, 6, 83, 0
8, 27638, Note_on_c, 6, 83, 0
8, 27640, Note_on_c, 6, 78, 79
8, 27640, Note_on_c, 6, 78, 79
8, 27658, Note_on_c, 6, 78, 0
8, 27658, Note_on_c, 6, 78, 0
8, 27660, Note_on_c, 6, 74, 79
8, 27660, Note_on_c, 6, 74, 79
8, 27678, Note_on_c, 6, 74, 0
8, 27678, Note_on_c, 6, 74, 0
8, 27680, Note_on_c, 6, 71, 79
8, 27680, Note_on_c, 6, 71, 79
8, 27698, Note_on_c, 6, 71, 0
8, 27698, Note_on_c, 6, 71, 0
8, 27700, Note_on_c, 6, 67, 79
8, 27700, Note_on_c, 6, 67, 79
8, 27718, Note_on_c, 6, 67, 0
8, 27718, Note_on_c, 6, 67, 0
8, 27720, Note_on_c, 6, 64, 50
8, 27720, Note_on_c, 6, 64, 50
8, 27738, Note_on_c, 6, 64, 0
8, 27738, Note_on_c, 6, 64, 0
8, 27740, Note_on_c, 6, 67, 50
8, 27740, Note_on_c, 6, 67, 50
8, 27758, Note_on_c, 6, 67, 0
8, 27758, Note_on_c, 6, 67, 0
8, 27760, Note_on_c, 6, 71, 50
8, 27760, Note_on_c, 6, 71, 50
8, 27778, Note_on_c, 6, 71, 0
8, 27778, Note_on_c, 6, 71, 0
8, 27780, Note_on_c, 6, 74, 50
8, 27780, Note_on_c, 6, 74, 50
8, 27798, Note_on_c, 6, 74, 0
8, 27798, Note_on_c, 6, 74, 0
8, 27800, Note_on_c, 6, 78, 50
8, 27800, Note_on_c, 6, 78, 50
8, 27818, Note_on_c, 6, 78, 0
8, 27818, Note_on_c, 6, 78, 0
8, 27820, Note_on_c, 6, 83, 50
8, 27820, Note_on_c, 6, 83, 50
8, 27838, Note_on_c, 6, 83, 0
8, 27838, Note_on_c, 6, 83, 0
8, 27840, Note_on_c, 6, 85, 79
8, 27840, Note_on_c, 6, 85, 79
8, 27858, Note_on_c, 6, 85, 0
8, 27858, Note_on_c, 6, 85, 0
8, 27860, Note_on_c, 6, 83, 79
8, 27860, Note_on_c, 6, 83, 79
8, 27878, Note_on_c, 6, 83, 0
8, 27878, Note_on_c, 6, 83, 0
8, 27880, Note_on_c, 6, 78, 79
8, 27880, Note_on_c, 6, 78, 79
8, 27898, Note_on_c, 6, 78, 0
8, 27898, Note_on_c, 6, 78, 0
8, 27900, Note_on_c, 6, 74, 79
8, 27900, Note_on_c, 6, 74, 79
8, 27918, Note_on_c, 6, 74, 0
8, 27918, Note_on_c, 6, 74, 0
8, 27920, Note_on_c, 6, 71, 79
8, 27920, Note_on_c, 6, 71, 79
8, 27938, Note_on_c, 6, 71, 0
8, 27938, Note_on_c, 6, 71, 0
8, 27940, Note_on_c, 6, 67, 79
8, 27940, Note_on_c, 6, 67, 79
8, 27958, Note_on_c, 6, 67, 0
8, 27958, Note_on_c, 6, 67, 0
8, 27960, Note_on_c, 6, 64, 50
8, 27960, Note_on_c, 6, 64, 50
8, 27978, Note_on_c, 6, 64, 0
8, 27978, Note_on_c, 6, 64, 0
8, 27980, Note_on_c, 6, 67, 50
8, 27980, Note_on_c, 6, 67, 50
8, 27998, Note_on_c, 6, 67, 0
8, 27998, Note_on_c, 6, 67, 0
8, 28000, Note_on_c, 6, 71, 50
8, 28000, Note_on_c, 6, 71, 50
8, 28018, Note_on_c, 6, 71, 0
8, 28018, Note_on_c, 6, 71, 0
8, 28020, Note_on_c, 6, 74, 50
8, 28020, Note_on_c, 6, 74, 50
8, 28038, Note_on_c, 6, 74, 0
8, 28038, Note_on_c, 6, 74, 0
8, 28040, Note_on_c, 6, 78, 50
8, 28040, Note_on_c, 6, 78, 50
8, 28058, Note_on_c, 6, 78, 0
8, 28058, Note_on_c, 6, 78, 0
8, 28060, Note_on_c, 6, 83, 50
8, 28060, Note_on_c, 6, 83, 50
8, 28078, Note_on_c, 6, 83, 0
8, 28078, Note_on_c, 6, 83, 0
8, 28080, Note_on_c, 6, 85, 79
8, 28080, Note_on_c, 6, 85, 79
8, 28098, Note_on_c, 6, 85, 0
8, 28098, Note_on_c, 6, 85, 0
8, 28100, Note_on_c, 6, 83, 79
8, 28100, Note_on_c, 6, 83, 79
8, 28118, Note_on_c, 6, 83, 0
8, 28118, Note_on_c, 6, 83, 0
8, 28120, Note_on_c, 6, 78, 79
8, 28120, Note_on_c, 6, 78, 79
8, 28138, Note_on_c, 6, 78, 0
8, 28138, Note_on_c, 6, 78, 0
8, 28140, Note_on_c, 6, 74, 79
8, 28140, Note_on_c, 6, 74, 79
8, 28158, Note_on_c, 6, 74, 0
8, 28158, Note_on_c, 6, 74, 0
8, 28160, Note_on_c, 6, 71, 79
8, 28160, Note_on_c, 6, 71, 79
8, 28178, Note_on_c, 6, 71, 0
8, 28178, Note_on_c, 6, 71, 0
8, 28180, Note_on_c, 6, 67, 79
8, 28180, Note_on_c, 6, 67, 79
8, 28198, Note_on_c, 6, 67, 0
8, 28198, Note_on_c, 6, 67, 0
8, 28200, Note_on_c, 6, 64, 50
8, 28200, Note_on_c, 6, 64, 50
8, 28218, Note_on_c, 6, 64, 0
8, 28218, Note_on_c, 6, 64, 0
8, 28220, Note_on_c, 6, 67, 50
8, 28220, Note_on_c, 6, 67, 50
8, 28238, Note_on_c, 6, 67, 0
8, 28238, Note_on_c, 6, 67, 0
8, 28240, Note_on_c, 6, 71, 50
8, 28240, Note_on_c, 6, 71, 50
8, 28258, Note_on_c, 6, 71, 0
8, 28258, Note_on_c, 6, 71, 0
8, 28260, Note_on_c, 6, 74, 50
8, 28260, Note_on_c, 6, 74, 50
8, 28278, Note_on_c, 6, 74, 0
8, 28278, Note_on_c, 6, 74, 0
8, 28280, Note_on_c, 6, 78, 50
8, 28280, Note_on_c, 6, 78, 50
8, 28298, Note_on_c, 6, 78, 0
8, 28298, Note_on_c, 6, 78, 0
8, 28300, Note_on_c, 6, 83, 50
8, 28300, Note_on_c, 6, 83, 50
8, 28318, Note_on_c, 6, 83, 0
8, 28318, Note_on_c, 6, 83, 0
8, 28320, Note_on_c, 6, 83, 79
8, 28338, Note_on_c, 6, 83, 0
8, 28340, Note_on_c, 6, 81, 79
8, 28358, Note_on_c, 6, 81, 0
8, 28360, Note_on_c, 6, 76, 79
8, 28378, Note_on_c, 6, 76, 0
8, 28380, Note_on_c, 6, 72, 79
8, 28398, Note_on_c, 6, 72, 0
8, 28400, Note_on_c, 6, 69, 79
8, 28418, Note_on_c, 6, 69, 0
8, 28420, Note_on_c, 6, 65, 79
8, 28440, Note_on_c, 6, 65, 0
8, 28440, Note_on_c, 6, 64, 51
8, 28458, Note_on_c, 6, 64, 0
8, 28460, Note_on_c, 6, 65, 51
8, 28478, Note_on_c, 6, 65, 0
8, 28480, Note_on_c, 6, 69, 51
8, 28498, Note_on_c, 6, 69, 0
8, 28500, Note_on_c, 6, 72, 51
8, 28518, Note_on_c, 6, 72, 0
8, 28520, Note_on_c, 6, 76, 51
8, 28538, Note_on_c, 6, 76, 0
8, 28540, Note_on_c, 6, 81, 51
8, 28558, Note_on_c, 6, 81, 0
8, 28560, Note_on_c, 6, 83, 79
8, 28578, Note_on_c, 6, 83, 0
8, 28580, Note_on_c, 6, 81, 79
8, 28598, Note_on_c, 6, 81, 0
8, 28600, Note_on_c, 6, 76, 79
8, 28618, Note_on_c, 6, 76, 0
8, 28620, Note_on_c, 6, 72, 79
8, 28638, Note_on_c, 6, 72, 0
8, 28640, Note_on_c, 6, 69, 79
8, 28658, Note_on_c, 6, 69, 0
8, 28660, Note_on_c, 6, 65, 79
8, 28680, Note_on_c, 6, 65, 0
8, 28680, Note_on_c, 6, 64, 50
8, 28698, Note_on_c, 6, 64, 0
8, 28700, Note_on_c, 6, 65, 50
8, 28718, Note_on_c, 6, 65, 0
8, 28720, Note_on_c, 6, 69, 50
8, 28738, Note_on_c, 6, 69, 0
8, 28740, Note_on_c, 6, 72, 50
8, 28758, Note_on_c, 6, 72, 0
8, 28760, Note_on_c, 6, 76, 50
8, 28778, Note_on_c, 6, 76, 0
8, 28780, Note_on_c, 6, 81, 50
8, 28798, Note_on_c, 6, 81, 0
8, 28800, Control_c, 6, 11, 125
8, 28800, Note_on_c, 6, 83, 79
8, 28815, Control_c, 6, 11, 124
8, 28825, Control_c, 6, 11, 123
8, 28835, Control_c, 6, 11, 122
8, 28850, Control_c, 6, 11, 121
8, 28860, Control_c, 6, 11, 120
8, 28870, Control_c, 6, 11, 119
8, 28885, Control_c, 6, 11, 118
8, 28895, Control_c, 6, 11, 117
8, 28905, Control_c, 6, 11, 116
8, 28920, Control_c, 6, 11, 115
8, 28930, Control_c, 6, 11, 114
8, 28940, Control_c, 6, 11, 113
8, 28955, Control_c, 6, 11, 112
8, 28965, Control_c, 6, 11, 111
8, 28975, Control_c, 6, 11, 110
8, 28985, Control_c, 6, 11, 109
8, 29000, Control_c, 6, 11, 108
8, 29010, Control_c, 6, 11, 107
8, 29020, Control_c, 6, 11, 106
8, 29035, Control_c, 6, 11, 105
8, 29045, Control_c, 6, 11, 104
8, 29055, Control_c, 6, 11, 103
8, 29070, Control_c, 6, 11, 102
8, 29080, Control_c, 6, 11, 101
8, 29090, Control_c, 6, 11, 100
8, 29105, Control_c, 6, 11, 99
8, 29115, Control_c, 6, 11, 98
8, 29125, Control_c, 6, 11, 97
8, 29140, Control_c, 6, 11, 96
8, 29145, Control_c, 6, 11, 96
8, 29155, Control_c, 6, 11, 95
8, 29160, Control_c, 6, 11, 94
8, 29165, Control_c, 6, 11, 93
8, 29170, Control_c, 6, 11, 92
8, 29175, Control_c, 6, 11, 91
8, 29185, Control_c, 6, 11, 90
8, 29190, Control_c, 6, 11, 89
8, 29195, Control_c, 6, 11, 88
8, 29200, Control_c, 6, 11, 87
8, 29205, Control_c, 6, 11, 86
8, 29215, Control_c, 6, 11, 85
8, 29220, Control_c, 6, 11, 84
8, 29225, Control_c, 6, 11, 83
8, 29230, Control_c, 6, 11, 82
8, 29235, Control_c, 6, 11, 81
8, 29245, Control_c, 6, 11, 80
8, 29250, Control_c, 6, 11, 79
8, 29255, Control_c, 6, 11, 78
8, 29260, Control_c, 6, 11, 77
8, 29265, Control_c, 6, 11, 76
8, 29275, Control_c, 6, 11, 75
8, 29280, Control_c, 6, 11, 74
8, 29285, Control_c, 6, 11, 73
8, 29290, Control_c, 6, 11, 72
8, 29295, Control_c, 6, 11, 71
8, 29305, Control_c, 6, 11, 70
8, 29310, Control_c, 6, 11, 69
8, 29315, Control_c, 6, 11, 68
8, 29320, Control_c, 6, 11, 67
8, 29325, Control_c, 6, 11, 66
8, 29330, Control_c, 6, 11, 65
8, 29340, Control_c, 6, 11, 64
8, 29345, Control_c, 6, 11, 63
8, 29350, Control_c, 6, 11, 62
8, 29355, Control_c, 6, 11, 61
8, 29360, Control_c, 6, 11, 60
8, 29370, Control_c, 6, 11, 59
8, 29375, Control_c, 6, 11, 58
8, 29380, Control_c, 6, 11, 57
8, 29385, Control_c, 6, 11, 56
8, 29390, Control_c, 6, 11, 55
8, 29400, Control_c, 6, 11, 54
8, 29405, Control_c, 6, 11, 53
8, 29410, Control_c, 6, 11, 52
8, 29415, Control_c, 6, 11, 51
8, 29420, Control_c, 6, 11, 50
8, 29430, Control_c, 6, 11, 49
8, 29435, Control_c, 6, 11, 48
8, 29440, Control_c, 6, 11, 47
8, 29445, Control_c, 6, 11, 46
8, 29450, Control_c, 6, 11, 45
8, 29460, Control_c, 6, 11, 44
8, 29465, Control_c, 6, 11, 43
8, 29470, Control_c, 6, 11, 42
8, 29475, Control_c, 6, 11, 41
8, 29480, Control_c, 6, 11, 40
8, 29485, Control_c, 6, 11, 39
8, 29495, Control_c, 6, 11, 38
8, 29500, Control_c, 6, 11, 37
8, 29505, Control_c, 6, 11, 36
8, 29510, Control_c, 6, 11, 35
8, 29515, Control_c, 6, 11, 34
8, 29525, Control_c, 6, 11, 33
8, 29530, Control_c, 6, 11, 32
8, 29535, Control_c, 6, 11, 31
8, 29540, Control_c, 6, 11, 30
8, 29545, Control_c, 6, 11, 29
8, 29555, Control_c, 6, 11, 28
8, 29560, Control_c, 6, 11, 27
8, 29565, Control_c, 6, 11, 26
8, 29570, Control_c, 6, 11, 25
8, 29575, Control_c, 6, 11, 24
8, 29585, Control_c, 6, 11, 23
8, 29590, Control_c, 6, 11, 22
8, 29595, Control_c, 6, 11, 21
8, 29600, Control_c, 6, 11, 20
8, 29605, Control_c, 6, 11, 19
8, 29615, Control_c, 6, 11, 18
8, 29620, Control_c, 6, 11, 17
8, 29625, Control_c, 6, 11, 16
8, 29630, Control_c, 6, 11, 15
8, 29635, Control_c, 6, 11, 14
8, 29640, Note_on_c, 6, 83, 0
8, 29640, Control_c, 6, 11, 13
8, 29640, End_track
9, 0, Start_track
9, 0, Title_t, "A8-Piccolo     "
9, 144, Control_c, 7, 91, 60
9, 145, Control_c, 7, 93, 10
9, 155, Control_c, 7, 0, 0
9, 156, Control_c, 7, 32, 2
9, 157, Program_c, 7, 72
9, 158, Control_c, 7, 7, 85
9, 158, Control_c, 7, 10, 84
9, 1440, Note_on_c, 7, 80, 50
9, 1458, Note_on_c, 7, 80, 0
9, 1460, Note_on_c, 7, 78, 50
9, 1478, Note_on_c, 7, 78, 0
9, 1480, Note_on_c, 7, 75, 50
9, 1498, Note_on_c, 7, 75, 0
9, 1500, Note_on_c, 7, 73, 80
9, 1518, Note_on_c, 7, 73, 0
9, 1520, Note_on_c, 7, 75, 80
9, 1538, Note_on_c, 7, 75, 0
9, 1540, Note_on_c, 7, 78, 80
9, 1558, Note_on_c, 7, 78, 0
9, 1560, Note_on_c, 7, 80, 80
9, 1578, Note_on_c, 7, 80, 0
9, 1580, Note_on_c, 7, 85, 80
9, 1598, Note_on_c, 7, 85, 0
9, 1600, Note_on_c, 7, 87, 80
9, 1618, Note_on_c, 7, 87, 0
9, 1620, Note_on_c, 7, 89, 50
9, 1638, Note_on_c, 7, 89, 0
9, 1640, Note_on_c, 7, 87, 50
9, 1658, Note_on_c, 7, 87, 0
9, 1660, Note_on_c, 7, 85, 50
9, 1678, Note_on_c, 7, 85, 0
9, 1680, Note_on_c, 7, 80, 50
9, 1698, Note_on_c, 7, 80, 0
9, 1700, Note_on_c, 7, 78, 50
9, 1718, Note_on_c, 7, 78, 0
9, 1720, Note_on_c, 7, 75, 50
9, 1738, Note_on_c, 7, 75, 0
9, 1740, Note_on_c, 7, 73, 80
9, 1758, Note_on_c, 7, 73, 0
9, 1760, Note_on_c, 7, 75, 80
9, 1778, Note_on_c, 7, 75, 0
9, 1780, Note_on_c, 7, 78, 80
9, 1798, Note_on_c, 7, 78, 0
9, 1800, Note_on_c, 7, 80, 80
9, 1818, Note_on_c, 7, 80, 0
9, 1820, Note_on_c, 7, 85, 80
9, 1838, Note_on_c, 7, 85, 0
9, 1840, Note_on_c, 7, 87, 80
9, 1858, Note_on_c, 7, 87, 0
9, 1860, Note_on_c, 7, 89, 50
9, 1878, Note_on_c, 7, 89, 0
9, 1880, Note_on_c, 7, 87, 50
9, 1898, Note_on_c, 7, 87, 0
9, 1900, Note_on_c, 7, 85, 50
9, 1918, Note_on_c, 7, 85, 0
9, 1920, Note_on_c, 7, 80, 50
9, 1938, Note_on_c, 7, 80, 0
9, 1940, Note_on_c, 7, 78, 50
9, 1958, Note_on_c, 7, 78, 0
9, 1960, Note_on_c, 7, 75, 50
9, 1978, Note_on_c, 7, 75, 0
9, 1980, Note_on_c, 7, 73, 80
9, 1998, Note_on_c, 7, 73, 0
9, 2000, Note_on_c, 7, 75, 80
9, 2018, Note_on_c, 7, 75, 0
9, 2020, Note_on_c, 7, 78, 80
9, 2038, Note_on_c, 7, 78, 0
9, 2040, Note_on_c, 7, 80, 80
9, 2058, Note_on_c, 7, 80, 0
9, 2060, Note_on_c, 7, 85, 80
9, 2078, Note_on_c, 7, 85, 0
9, 2080, Note_on_c, 7, 87, 80
9, 2098, Note_on_c, 7, 87, 0
9, 2100, Note_on_c, 7, 89, 50
9, 2118, Note_on_c, 7, 89, 0
9, 2120, Note_on_c, 7, 87, 50
9, 2138, Note_on_c, 7, 87, 0
9, 2140, Note_on_c, 7, 85, 50
9, 2158, Note_on_c, 7, 85, 0
9, 2160, Note_on_c, 7, 80, 50
9, 2178, Note_on_c, 7, 80, 0
9, 2180, Note_on_c, 7, 78, 50
9, 2198, Note_on_c, 7, 78, 0
9, 2200, Note_on_c, 7, 75, 50
9, 2218, Note_on_c, 7, 75, 0
9, 2220, Note_on_c, 7, 73, 81
9, 2238, Note_on_c, 7, 73, 0
9, 2240, Note_on_c, 7, 75, 80
9, 2258, Note_on_c, 7, 75, 0
9, 2260, Note_on_c, 7, 78, 80
9, 2278, Note_on_c, 7, 78, 0
9, 2280, Note_on_c, 7, 80, 80
9, 2298, Note_on_c, 7, 80, 0
9, 2300, Note_on_c, 7, 85, 80
9, 2318, Note_on_c, 7, 85, 0
9, 2320, Note_on_c, 7, 87, 80
9, 2338, Note_on_c, 7, 87, 0
9, 2340, Note_on_c, 7, 89, 53
9, 2358, Note_on_c, 7, 89, 0
9, 2360, Note_on_c, 7, 87, 53
9, 2378, Note_on_c, 7, 87, 0
9, 2380, Note_on_c, 7, 85, 53
9, 2398, Note_on_c, 7, 85, 0
9, 2400, Note_on_c, 7, 74, 53
9, 2418, Note_on_c, 7, 74, 0
9, 2420, Note_on_c, 7, 71, 53
9, 2438, Note_on_c, 7, 71, 0
9, 2440, Note_on_c, 7, 69, 53
9, 2458, Note_on_c, 7, 69, 0
9, 2460, Note_on_c, 7, 66, 80
9, 2478, Note_on_c, 7, 66, 0
9, 2480, Note_on_c, 7, 69, 80
9, 2498, Note_on_c, 7, 69, 0
9, 2500, Note_on_c, 7, 71, 80
9, 2518, Note_on_c, 7, 71, 0
9, 2520, Note_on_c, 7, 74, 80
9, 2538, Note_on_c, 7, 74, 0
9, 2540, Note_on_c, 7, 78, 80
9, 2558, Note_on_c, 7, 78, 0
9, 2560, Note_on_c, 7, 83, 80
9, 2578, Note_on_c, 7, 83, 0
9, 2580, Note_on_c, 7, 85, 54
9, 2598, Note_on_c, 7, 85, 0
9, 2600, Note_on_c, 7, 83, 54
9, 2618, Note_on_c, 7, 83, 0
9, 2620, Note_on_c, 7, 78, 54
9, 2638, Note_on_c, 7, 78, 0
9, 2640, Note_on_c, 7, 74, 54
9, 2658, Note_on_c, 7, 74, 0
9, 2660, Note_on_c, 7, 71, 54
9, 2678, Note_on_c, 7, 71, 0
9, 2680, Note_on_c, 7, 69, 54
9, 2698, Note_on_c, 7, 69, 0
9, 2700, Note_on_c, 7, 66, 80
9, 2718, Note_on_c, 7, 66, 0
9, 2720, Note_on_c, 7, 69, 80
9, 2738, Note_on_c, 7, 69, 0
9, 2740, Note_on_c, 7, 71, 80
9, 2758, Note_on_c, 7, 71, 0
9, 2760, Note_on_c, 7, 74, 80
9, 2778, Note_on_c, 7, 74, 0
9, 2780, Note_on_c, 7, 78, 80
9, 2798, Note_on_c, 7, 78, 0
9, 2800, Note_on_c, 7, 83, 80
9, 2818, Note_on_c, 7, 83, 0
9, 2820, Note_on_c, 7, 85, 54
9, 2838, Note_on_c, 7, 85, 0
9, 2840, Note_on_c, 7, 83, 54
9, 2858, Note_on_c, 7, 83, 0
9, 2860, Note_on_c, 7, 78, 54
9, 2878, Note_on_c, 7, 78, 0
9, 2880, Note_on_c, 7, 74, 54
9, 2898, Note_on_c, 7, 74, 0
9, 2900, Note_on_c, 7, 71, 54
9, 2918, Note_on_c, 7, 71, 0
9, 2920, Note_on_c, 7, 69, 54
9, 2938, Note_on_c, 7, 69, 0
9, 2940, Note_on_c, 7, 66, 80
9, 2958, Note_on_c, 7, 66, 0
9, 2960, Note_on_c, 7, 69, 80
9, 2978, Note_on_c, 7, 69, 0
9, 2980, Note_on_c, 7, 71, 80
9, 2998, Note_on_c, 7, 71, 0
9, 3000, Note_on_c, 7, 74, 80
9, 3018, Note_on_c, 7, 74, 0
9, 3020, Note_on_c, 7, 78, 80
9, 3038, Note_on_c, 7, 78, 0
9, 3040, Note_on_c, 7, 83, 80
9, 3058, Note_on_c, 7, 83, 0
9, 3060, Note_on_c, 7, 85, 56
9, 3078, Note_on_c, 7, 85, 0
9, 3080, Note_on_c, 7, 83, 56
9, 3098, Note_on_c, 7, 83, 0
9, 3100, Note_on_c, 7, 78, 56
9, 3118, Note_on_c, 7, 78, 0
9, 3120, Note_on_c, 7, 74, 56
9, 3138, Note_on_c, 7, 74, 0
9, 3140, Note_on_c, 7, 71, 56
9, 3158, Note_on_c, 7, 71, 0
9, 3160, Note_on_c, 7, 69, 55
9, 3178, Note_on_c, 7, 69, 0
9, 3180, Note_on_c, 7, 66, 80
9, 3198, Note_on_c, 7, 66, 0
9, 3200, Note_on_c, 7, 69, 80
9, 3218, Note_on_c, 7, 69, 0
9, 3220, Note_on_c, 7, 71, 80
9, 3238, Note_on_c, 7, 71, 0
9, 3240, Note_on_c, 7, 74, 80
9, 3258, Note_on_c, 7, 74, 0
9, 3260, Note_on_c, 7, 78, 80
9, 3278, Note_on_c, 7, 78, 0
9, 3280, Note_on_c, 7, 83, 80
9, 3298, Note_on_c, 7, 83, 0
9, 3300, Note_on_c, 7, 85, 56
9, 3318, Note_on_c, 7, 85, 0
9, 3320, Note_on_c, 7, 83, 56
9, 3338, Note_on_c, 7, 83, 0
9, 3340, Note_on_c, 7, 78, 56
9, 3358, Note_on_c, 7, 78, 0
9, 3360, Note_on_c, 7, 78, 55
9, 3378, Note_on_c, 7, 78, 0
9, 3380, Note_on_c, 7, 75, 56
9, 3398, Note_on_c, 7, 75, 0
9, 3400, Note_on_c, 7, 71, 56
9, 3418, Note_on_c, 7, 71, 0
9, 3420, Note_on_c, 7, 66, 80
9, 3438, Note_on_c, 7, 66, 0
9, 3440, Note_on_c, 7, 71, 80
9, 3458, Note_on_c, 7, 71, 0
9, 3460, Note_on_c, 7, 75, 80
9, 3478, Note_on_c, 7, 75, 0
9, 3480, Note_on_c, 7, 78, 80
9, 3498, Note_on_c, 7, 78, 0
9, 3500, Note_on_c, 7, 83, 80
9, 3518, Note_on_c, 7, 83, 0
9, 3520, Note_on_c, 7, 85, 80
9, 3538, Note_on_c, 7, 85, 0
9, 3540, Note_on_c, 7, 87, 54
9, 3558, Note_on_c, 7, 87, 0
9, 3560, Note_on_c, 7, 85, 54
9, 3578, Note_on_c, 7, 85, 0
9, 3580, Note_on_c, 7, 83, 54
9, 3598, Note_on_c, 7, 83, 0
9, 3600, Note_on_c, 7, 78, 54
9, 3618, Note_on_c, 7, 78, 0
9, 3620, Note_on_c, 7, 75, 54
9, 3638, Note_on_c, 7, 75, 0
9, 3640, Note_on_c, 7, 71, 54
9, 3658, Note_on_c, 7, 71, 0
9, 3660, Note_on_c, 7, 66, 79
9, 3678, Note_on_c, 7, 66, 0
9, 3680, Note_on_c, 7, 71, 79
9, 3698, Note_on_c, 7, 71, 0
9, 3700, Note_on_c, 7, 75, 79
9, 3718, Note_on_c, 7, 75, 0
9, 3720, Note_on_c, 7, 78, 79
9, 3738, Note_on_c, 7, 78, 0
9, 3740, Note_on_c, 7, 83, 79
9, 3758, Note_on_c, 7, 83, 0
9, 3760, Note_on_c, 7, 85, 79
9, 3778, Note_on_c, 7, 85, 0
9, 3780, Note_on_c, 7, 87, 50
9, 3798, Note_on_c, 7, 87, 0
9, 3800, Note_on_c, 7, 85, 50
9, 3818, Note_on_c, 7, 85, 0
9, 3820, Note_on_c, 7, 83, 50
9, 3838, Note_on_c, 7, 83, 0
9, 3840, Note_on_c, 7, 78, 50
9, 3858, Note_on_c, 7, 78, 0
9, 3860, Note_on_c, 7, 75, 50
9, 3878, Note_on_c, 7, 75, 0
9, 3880, Note_on_c, 7, 71, 50
9, 3898, Note_on_c, 7, 71, 0
9, 3900, Note_on_c, 7, 66, 49
9, 3918, Note_on_c, 7, 66, 0
9, 3920, Note_on_c, 7, 71, 80
9, 3938, Note_on_c, 7, 71, 0
9, 3940, Note_on_c, 7, 75, 80
9, 3958, Note_on_c, 7, 75, 0
9, 3960, Note_on_c, 7, 78, 80
9, 3978, Note_on_c, 7, 78, 0
9, 3980, Note_on_c, 7, 83, 80
9, 3998, Note_on_c, 7, 83, 0
9, 4000, Note_on_c, 7, 85, 80
9, 4018, Note_on_c, 7, 85, 0
9, 4020, Note_on_c, 7, 87, 81
9, 4038, Note_on_c, 7, 87, 0
9, 4040, Note_on_c, 7, 85, 52
9, 4058, Note_on_c, 7, 85, 0
9, 4060, Note_on_c, 7, 83, 52
9, 4078, Note_on_c, 7, 83, 0
9, 4080, Note_on_c, 7, 78, 52
9, 4098, Note_on_c, 7, 78, 0
9, 4100, Note_on_c, 7, 75, 52
9, 4118, Note_on_c, 7, 75, 0
9, 4120, Note_on_c, 7, 71, 52
9, 4138, Note_on_c, 7, 71, 0
9, 4140, Note_on_c, 7, 66, 79
9, 4158, Note_on_c, 7, 66, 0
9, 4160, Note_on_c, 7, 71, 79
9, 4178, Note_on_c, 7, 71, 0
9, 4180, Note_on_c, 7, 75, 79
9, 4198, Note_on_c, 7, 75, 0
9, 4200, Note_on_c, 7, 78, 79
9, 4218, Note_on_c, 7, 78, 0
9, 4220, Note_on_c, 7, 83, 79
9, 4238, Note_on_c, 7, 83, 0
9, 4240, Note_on_c, 7, 85, 80
9, 4258, Note_on_c, 7, 85, 0
9, 4260, Note_on_c, 7, 87, 53
9, 4278, Note_on_c, 7, 87, 0
9, 4280, Note_on_c, 7, 85, 53
9, 4298, Note_on_c, 7, 85, 0
9, 4300, Note_on_c, 7, 83, 53
9, 4318, Note_on_c, 7, 83, 0
9, 4320, Note_on_c, 7, 78, 53
9, 4338, Note_on_c, 7, 78, 0
9, 4340, Note_on_c, 7, 75, 53
9, 4358, Note_on_c, 7, 75, 0
9, 4360, Note_on_c, 7, 71, 55
9, 4378, Note_on_c, 7, 71, 0
9, 4380, Note_on_c, 7, 66, 80
9, 4398, Note_on_c, 7, 66, 0
9, 4400, Note_on_c, 7, 71, 80
9, 4418, Note_on_c, 7, 71, 0
9, 4420, Note_on_c, 7, 75, 80
9, 4438, Note_on_c, 7, 75, 0
9, 4440, Note_on_c, 7, 78, 80
9, 4458, Note_on_c, 7, 78, 0
9, 4460, Note_on_c, 7, 83, 80
9, 4478, Note_on_c, 7, 83, 0
9, 4480, Note_on_c, 7, 85, 80
9, 4498, Note_on_c, 7, 85, 0
9, 4500, Note_on_c, 7, 87, 54
9, 4518, Note_on_c, 7, 87, 0
9, 4520, Note_on_c, 7, 85, 54
9, 4538, Note_on_c, 7, 85, 0
9, 4540, Note_on_c, 7, 83, 54
9, 4558, Note_on_c, 7, 83, 0
9, 4560, Note_on_c, 7, 78, 54
9, 4578, Note_on_c, 7, 78, 0
9, 4580, Note_on_c, 7, 75, 54
9, 4598, Note_on_c, 7, 75, 0
9, 4600, Note_on_c, 7, 71, 54
9, 4618, Note_on_c, 7, 71, 0
9, 4620, Note_on_c, 7, 66, 81
9, 4638, Note_on_c, 7, 66, 0
9, 4640, Note_on_c, 7, 71, 81
9, 4658, Note_on_c, 7, 71, 0
9, 4660, Note_on_c, 7, 75, 81
9, 4678, Note_on_c, 7, 75, 0
9, 4680, Note_on_c, 7, 78, 81
9, 4698, Note_on_c, 7, 78, 0
9, 4700, Note_on_c, 7, 83, 81
9, 4718, Note_on_c, 7, 83, 0
9, 4720, Note_on_c, 7, 85, 81
9, 4738, Note_on_c, 7, 85, 0
9, 4740, Note_on_c, 7, 87, 54
9, 4758, Note_on_c, 7, 87, 0
9, 4760, Note_on_c, 7, 85, 54
9, 4778, Note_on_c, 7, 85, 0
9, 4780, Note_on_c, 7, 83, 54
9, 4798, Note_on_c, 7, 83, 0
9, 4800, Note_on_c, 7, 78, 54
9, 4818, Note_on_c, 7, 78, 0
9, 4820, Note_on_c, 7, 75, 54
9, 4838, Note_on_c, 7, 75, 0
9, 4840, Note_on_c, 7, 71, 54
9, 4858, Note_on_c, 7, 71, 0
9, 4860, Note_on_c, 7, 66, 80
9, 4878, Note_on_c, 7, 66, 0
9, 4880, Note_on_c, 7, 71, 80
9, 4898, Note_on_c, 7, 71, 0
9, 4900, Note_on_c, 7, 75, 80
9, 4918, Note_on_c, 7, 75, 0
9, 4920, Note_on_c, 7, 78, 80
9, 4938, Note_on_c, 7, 78, 0
9, 4940, Note_on_c, 7, 83, 80
9, 4958, Note_on_c, 7, 83, 0
9, 4960, Note_on_c, 7, 85, 80
9, 4978, Note_on_c, 7, 85, 0
9, 4980, Note_on_c, 7, 87, 55
9, 4998, Note_on_c, 7, 87, 0
9, 5000, Note_on_c, 7, 85, 55
9, 5018, Note_on_c, 7, 85, 0
9, 5020, Note_on_c, 7, 83, 55
9, 5038, Note_on_c, 7, 83, 0
9, 5040, Note_on_c, 7, 78, 55
9, 5058, Note_on_c, 7, 78, 0
9, 5060, Note_on_c, 7, 75, 55
9, 5078, Note_on_c, 7, 75, 0
9, 5080, Note_on_c, 7, 71, 55
9, 5098, Note_on_c, 7, 71, 0
9, 5100, Note_on_c, 7, 66, 80
9, 5118, Note_on_c, 7, 66, 0
9, 5120, Note_on_c, 7, 71, 80
9, 5138, Note_on_c, 7, 71, 0
9, 5140, Note_on_c, 7, 75, 80
9, 5158, Note_on_c, 7, 75, 0
9, 5160, Note_on_c, 7, 78, 80
9, 5178, Note_on_c, 7, 78, 0
9, 5180, Note_on_c, 7, 83, 80
9, 5198, Note_on_c, 7, 83, 0
9, 5200, Note_on_c, 7, 85, 80
9, 5218, Note_on_c, 7, 85, 0
9, 5220, Note_on_c, 7, 87, 57
9, 5238, Note_on_c, 7, 87, 0
9, 5240, Note_on_c, 7, 85, 57
9, 5258, Note_on_c, 7, 85, 0
9, 5260, Note_on_c, 7, 83, 57
9, 5278, Note_on_c, 7, 83, 0
9, 5280, Note_on_c, 7, 78, 58
9, 5298, Note_on_c, 7, 78, 0
9, 5300, Note_on_c, 7, 73, 58
9, 5318, Note_on_c, 7, 73, 0
9, 5320, Note_on_c, 7, 69, 58
9, 5338, Note_on_c, 7, 69, 0
9, 5340, Note_on_c, 7, 66, 80
9, 5358, Note_on_c, 7, 66, 0
9, 5360, Note_on_c, 7, 69, 80
9, 5378, Note_on_c, 7, 69, 0
9, 5380, Note_on_c, 7, 73, 80
9, 5398, Note_on_c, 7, 73, 0
9, 5400, Note_on_c, 7, 78, 80
9, 5418, Note_on_c, 7, 78, 0
9, 5420, Note_on_c, 7, 81, 80
9, 5438, Note_on_c, 7, 81, 0
9, 5440, Note_on_c, 7, 83, 80
9, 5458, Note_on_c, 7, 83, 0
9, 5460, Note_on_c, 7, 85, 52
9, 5478, Note_on_c, 7, 85, 0
9, 5480, Note_on_c, 7, 83, 52
9, 5498, Note_on_c, 7, 83, 0
9, 5500, Note_on_c, 7, 81, 52
9, 5518, Note_on_c, 7, 81, 0
9, 5520, Note_on_c, 7, 78, 52
9, 5538, Note_on_c, 7, 78, 0
9, 5540, Note_on_c, 7, 73, 52
9, 5558, Note_on_c, 7, 73, 0
9, 5560, Note_on_c, 7, 69, 52
9, 5578, Note_on_c, 7, 69, 0
9, 5580, Note_on_c, 7, 66, 80
9, 5598, Note_on_c, 7, 66, 0
9, 5600, Note_on_c, 7, 69, 80
9, 5618, Note_on_c, 7, 69, 0
9, 5620, Note_on_c, 7, 73, 80
9, 5638, Note_on_c, 7, 73, 0
9, 5640, Note_on_c, 7, 78, 80
9, 5658, Note_on_c, 7, 78, 0
9, 5660, Note_on_c, 7, 81, 80
9, 5678, Note_on_c, 7, 81, 0
9, 5680, Note_on_c, 7, 83, 80
9, 5698, Note_on_c, 7, 83, 0
9, 5700, Note_on_c, 7, 85, 50
9, 5718, Note_on_c, 7, 85, 0
9, 5720, Note_on_c, 7, 83, 50
9, 5738, Note_on_c, 7, 83, 0
9, 5740, Note_on_c, 7, 81, 50
9, 5758, Note_on_c, 7, 81, 0
9, 5760, Note_on_c, 7, 78, 50
9, 5778, Note_on_c, 7, 78, 0
9, 5780, Note_on_c, 7, 73, 50
9, 5798, Note_on_c, 7, 73, 0
9, 5800, Note_on_c, 7, 69, 50
9, 5818, Note_on_c, 7, 69, 0
9, 5820, Note_on_c, 7, 66, 80
9, 5838, Note_on_c, 7, 66, 0
9, 5840, Note_on_c, 7, 69, 80
9, 5858, Note_on_c, 7, 69, 0
9, 5860, Note_on_c, 7, 73, 80
9, 5878, Note_on_c, 7, 73, 0
9, 5880, Note_on_c, 7, 78, 80
9, 5898, Note_on_c, 7, 78, 0
9, 5900, Note_on_c, 7, 81, 80
9, 5918, Note_on_c, 7, 81, 0
9, 5920, Note_on_c, 7, 83, 80
9, 5938, Note_on_c, 7, 83, 0
9, 5940, Note_on_c, 7, 85, 48
9, 5958, Note_on_c, 7, 85, 0
9, 5960, Note_on_c, 7, 83, 48
9, 5978, Note_on_c, 7, 83, 0
9, 5980, Note_on_c, 7, 81, 48
9, 5998, Note_on_c, 7, 81, 0
9, 6000, Note_on_c, 7, 78, 48
9, 6018, Note_on_c, 7, 78, 0
9, 6020, Note_on_c, 7, 73, 48
9, 6038, Note_on_c, 7, 73, 0
9, 6040, Note_on_c, 7, 69, 48
9, 6058, Note_on_c, 7, 69, 0
9, 6060, Note_on_c, 7, 66, 81
9, 6078, Note_on_c, 7, 66, 0
9, 6080, Note_on_c, 7, 69, 81
9, 6098, Note_on_c, 7, 69, 0
9, 6100, Note_on_c, 7, 73, 81
9, 6118, Note_on_c, 7, 73, 0
9, 6120, Note_on_c, 7, 78, 80
9, 6138, Note_on_c, 7, 78, 0
9, 6140, Note_on_c, 7, 81, 80
9, 6158, Note_on_c, 7, 81, 0
9, 6160, Note_on_c, 7, 83, 80
9, 6178, Note_on_c, 7, 83, 0
9, 6180, Note_on_c, 7, 85, 51
9, 6198, Note_on_c, 7, 85, 0
9, 6200, Note_on_c, 7, 83, 51
9, 6218, Note_on_c, 7, 83, 0
9, 6220, Note_on_c, 7, 81, 51
9, 6238, Note_on_c, 7, 81, 0
9, 6240, Note_on_c, 7, 78, 51
9, 6258, Note_on_c, 7, 78, 0
9, 6260, Note_on_c, 7, 73, 51
9, 6278, Note_on_c, 7, 73, 0
9, 6280, Note_on_c, 7, 69, 51
9, 6298, Note_on_c, 7, 69, 0
9, 6300, Note_on_c, 7, 66, 79
9, 6318, Note_on_c, 7, 66, 0
9, 6320, Note_on_c, 7, 69, 79
9, 6338, Note_on_c, 7, 69, 0
9, 6340, Note_on_c, 7, 73, 79
9, 6358, Note_on_c, 7, 73, 0
9, 6360, Note_on_c, 7, 78, 79
9, 6378, Note_on_c, 7, 78, 0
9, 6380, Note_on_c, 7, 81, 79
9, 6398, Note_on_c, 7, 81, 0
9, 6400, Note_on_c, 7, 83, 79
9, 6418, Note_on_c, 7, 83, 0
9, 6420, Note_on_c, 7, 85, 51
9, 6438, Note_on_c, 7, 85, 0
9, 6440, Note_on_c, 7, 83, 51
9, 6458, Note_on_c, 7, 83, 0
9, 6460, Note_on_c, 7, 81, 51
9, 6478, Note_on_c, 7, 81, 0
9, 6480, Note_on_c, 7, 78, 51
9, 6498, Note_on_c, 7, 78, 0
9, 6500, Note_on_c, 7, 73, 51
9, 6518, Note_on_c, 7, 73, 0
9, 6520, Note_on_c, 7, 69, 51
9, 6538, Note_on_c, 7, 69, 0
9, 6540, Note_on_c, 7, 66, 79
9, 6558, Note_on_c, 7, 66, 0
9, 6560, Note_on_c, 7, 69, 79
9, 6578, Note_on_c, 7, 69, 0
9, 6580, Note_on_c, 7, 73, 79
9, 6598, Note_on_c, 7, 73, 0
9, 6600, Note_on_c, 7, 78, 79
9, 6618, Note_on_c, 7, 78, 0
9, 6620, Note_on_c, 7, 81, 79
9, 6638, Note_on_c, 7, 81, 0
9, 6640, Note_on_c, 7, 83, 79
9, 6658, Note_on_c, 7, 83, 0
9, 6660, Note_on_c, 7, 85, 50
9, 6678, Note_on_c, 7, 85, 0
9, 6680, Note_on_c, 7, 83, 50
9, 6698, Note_on_c, 7, 83, 0
9, 6700, Note_on_c, 7, 81, 50
9, 6718, Note_on_c, 7, 81, 0
9, 6720, Note_on_c, 7, 78, 50
9, 6738, Note_on_c, 7, 78, 0
9, 6740, Note_on_c, 7, 73, 50
9, 6758, Note_on_c, 7, 73, 0
9, 6760, Note_on_c, 7, 69, 50
9, 6778, Note_on_c, 7, 69, 0
9, 6780, Note_on_c, 7, 66, 80
9, 6798, Note_on_c, 7, 66, 0
9, 6800, Note_on_c, 7, 69, 80
9, 6818, Note_on_c, 7, 69, 0
9, 6820, Note_on_c, 7, 73, 80
9, 6838, Note_on_c, 7, 73, 0
9, 6840, Note_on_c, 7, 78, 80
9, 6858, Note_on_c, 7, 78, 0
9, 6860, Note_on_c, 7, 81, 80
9, 6878, Note_on_c, 7, 81, 0
9, 6880, Note_on_c, 7, 83, 80
9, 6898, Note_on_c, 7, 83, 0
9, 6900, Note_on_c, 7, 85, 48
9, 6918, Note_on_c, 7, 85, 0
9, 6920, Note_on_c, 7, 83, 48
9, 6938, Note_on_c, 7, 83, 0
9, 6940, Note_on_c, 7, 81, 48
9, 6958, Note_on_c, 7, 81, 0
9, 6960, Note_on_c, 7, 78, 48
9, 6978, Note_on_c, 7, 78, 0
9, 6980, Note_on_c, 7, 73, 48
9, 6998, Note_on_c, 7, 73, 0
9, 7000, Note_on_c, 7, 69, 48
9, 7018, Note_on_c, 7, 69, 0
9, 7020, Note_on_c, 7, 66, 79
9, 7038, Note_on_c, 7, 66, 0
9, 7040, Note_on_c, 7, 69, 79
9, 7058, Note_on_c, 7, 69, 0
9, 7060, Note_on_c, 7, 73, 79
9, 7078, Note_on_c, 7, 73, 0
9, 7080, Note_on_c, 7, 78, 79
9, 7098, Note_on_c, 7, 78, 0
9, 7100, Note_on_c, 7, 81, 79
9, 7118, Note_on_c, 7, 81, 0
9, 7120, Note_on_c, 7, 83, 79
9, 7138, Note_on_c, 7, 83, 0
9, 7140, Note_on_c, 7, 85, 50
9, 7158, Note_on_c, 7, 85, 0
9, 7160, Note_on_c, 7, 83, 50
9, 7178, Note_on_c, 7, 83, 0
9, 7180, Note_on_c, 7, 78, 50
9, 7198, Note_on_c, 7, 78, 0
9, 7200, Note_on_c, 7, 74, 50
9, 7218, Note_on_c, 7, 74, 0
9, 7220, Note_on_c, 7, 71, 50
9, 7238, Note_on_c, 7, 71, 0
9, 7240, Note_on_c, 7, 67, 50
9, 7258, Note_on_c, 7, 67, 0
9, 7260, Note_on_c, 7, 64, 79
9, 7278, Note_on_c, 7, 64, 0
9, 7280, Note_on_c, 7, 67, 79
9, 7298, Note_on_c, 7, 67, 0
9, 7300, Note_on_c, 7, 71, 79
9, 7318, Note_on_c, 7, 71, 0
9, 7320, Note_on_c, 7, 74, 79
9, 7338, Note_on_c, 7, 74, 0
9, 7340, Note_on_c, 7, 78, 79
9, 7358, Note_on_c, 7, 78, 0
9, 7360, Note_on_c, 7, 83, 79
9, 7378, Note_on_c, 7, 83, 0
9, 7380, Note_on_c, 7, 85, 51
9, 7398, Note_on_c, 7, 85, 0
9, 7400, Note_on_c, 7, 83, 51
9, 7418, Note_on_c, 7, 83, 0
9, 7420, Note_on_c, 7, 78, 51
9, 7438, Note_on_c, 7, 78, 0
9, 7440, Note_on_c, 7, 74, 51
9, 7458, Note_on_c, 7, 74, 0
9, 7460, Note_on_c, 7, 71, 51
9, 7478, Note_on_c, 7, 71, 0
9, 7480, Note_on_c, 7, 67, 51
9, 7498, Note_on_c, 7, 67, 0
9, 7500, Note_on_c, 7, 64, 80
9, 7518, Note_on_c, 7, 64, 0
9, 7520, Note_on_c, 7, 67, 80
9, 7538, Note_on_c, 7, 67, 0
9, 7540, Note_on_c, 7, 71, 80
9, 7558, Note_on_c, 7, 71, 0
9, 7560, Note_on_c, 7, 74, 79
9, 7578, Note_on_c, 7, 74, 0
9, 7580, Note_on_c, 7, 78, 79
9, 7598, Note_on_c, 7, 78, 0
9, 7600, Note_on_c, 7, 83, 79
9, 7618, Note_on_c, 7, 83, 0
9, 7620, Note_on_c, 7, 85, 50
9, 7638, Note_on_c, 7, 85, 0
9, 7640, Note_on_c, 7, 83, 50
9, 7658, Note_on_c, 7, 83, 0
9, 7660, Note_on_c, 7, 78, 50
9, 7678, Note_on_c, 7, 78, 0
9, 7680, Note_on_c, 7, 74, 50
9, 7698, Note_on_c, 7, 74, 0
9, 7700, Note_on_c, 7, 71, 50
9, 7718, Note_on_c, 7, 71, 0
9, 7720, Note_on_c, 7, 67, 50
9, 7738, Note_on_c, 7, 67, 0
9, 7740, Note_on_c, 7, 64, 78
9, 7758, Note_on_c, 7, 64, 0
9, 7760, Note_on_c, 7, 67, 78
9, 7778, Note_on_c, 7, 67, 0
9, 7780, Note_on_c, 7, 71, 78
9, 7798, Note_on_c, 7, 71, 0
9, 7800, Note_on_c, 7, 74, 78
9, 7818, Note_on_c, 7, 74, 0
9, 7820, Note_on_c, 7, 78, 78
9, 7838, Note_on_c, 7, 78, 0
9, 7840, Note_on_c, 7, 83, 78
9, 7858, Note_on_c, 7, 83, 0
9, 7860, Note_on_c, 7, 85, 52
9, 7878, Note_on_c, 7, 85, 0
9, 7880, Note_on_c, 7, 83, 52
9, 7898, Note_on_c, 7, 83, 0
9, 7900, Note_on_c, 7, 78, 52
9, 7918, Note_on_c, 7, 78, 0
9, 7920, Note_on_c, 7, 74, 52
9, 7938, Note_on_c, 7, 74, 0
9, 7940, Note_on_c, 7, 71, 52
9, 7958, Note_on_c, 7, 71, 0
9, 7960, Note_on_c, 7, 67, 52
9, 7978, Note_on_c, 7, 67, 0
9, 7980, Note_on_c, 7, 64, 79
9, 7998, Note_on_c, 7, 64, 0
9, 8000, Note_on_c, 7, 67, 79
9, 8018, Note_on_c, 7, 67, 0
9, 8020, Note_on_c, 7, 71, 79
9, 8038, Note_on_c, 7, 71, 0
9, 8040, Note_on_c, 7, 74, 79
9, 8058, Note_on_c, 7, 74, 0
9, 8060, Note_on_c, 7, 78, 79
9, 8078, Note_on_c, 7, 78, 0
9, 8080, Note_on_c, 7, 83, 79
9, 8098, Note_on_c, 7, 83, 0
9, 8100, Note_on_c, 7, 85, 50
9, 8118, Note_on_c, 7, 85, 0
9, 8120, Note_on_c, 7, 83, 50
9, 8138, Note_on_c, 7, 83, 0
9, 8140, Note_on_c, 7, 78, 50
9, 8158, Note_on_c, 7, 78, 0
9, 8160, Note_on_c, 7, 74, 51
9, 8178, Note_on_c, 7, 74, 0
9, 8180, Note_on_c, 7, 71, 51
9, 8198, Note_on_c, 7, 71, 0
9, 8200, Note_on_c, 7, 67, 51
9, 8218, Note_on_c, 7, 67, 0
9, 8220, Note_on_c, 7, 64, 78
9, 8238, Note_on_c, 7, 64, 0
9, 8240, Note_on_c, 7, 67, 78
9, 8258, Note_on_c, 7, 67, 0
9, 8260, Note_on_c, 7, 71, 78
9, 8278, Note_on_c, 7, 71, 0
9, 8280, Note_on_c, 7, 74, 78
9, 8298, Note_on_c, 7, 74, 0
9, 8300, Note_on_c, 7, 78, 78
9, 8318, Note_on_c, 7, 78, 0
9, 8320, Note_on_c, 7, 83, 78
9, 8338, Note_on_c, 7, 83, 0
9, 8340, Note_on_c, 7, 85, 52
9, 8358, Note_on_c, 7, 85, 0
9, 8360, Note_on_c, 7, 83, 52
9, 8378, Note_on_c, 7, 83, 0
9, 8380, Note_on_c, 7, 78, 52
9, 8398, Note_on_c, 7, 78, 0
9, 8400, Note_on_c, 7, 74, 51
9, 8418, Note_on_c, 7, 74, 0
9, 8420, Note_on_c, 7, 71, 51
9, 8438, Note_on_c, 7, 71, 0
9, 8440, Note_on_c, 7, 67, 51
9, 8458, Note_on_c, 7, 67, 0
9, 8460, Note_on_c, 7, 64, 79
9, 8478, Note_on_c, 7, 64, 0
9, 8480, Note_on_c, 7, 67, 79
9, 8498, Note_on_c, 7, 67, 0
9, 8500, Note_on_c, 7, 71, 79
9, 8518, Note_on_c, 7, 71, 0
9, 8520, Note_on_c, 7, 74, 79
9, 8538, Note_on_c, 7, 74, 0
9, 8540, Note_on_c, 7, 78, 79
9, 8558, Note_on_c, 7, 78, 0
9, 8560, Note_on_c, 7, 83, 79
9, 8578, Note_on_c, 7, 83, 0
9, 8580, Note_on_c, 7, 85, 49
9, 8598, Note_on_c, 7, 85, 0
9, 8600, Note_on_c, 7, 83, 49
9, 8618, Note_on_c, 7, 83, 0
9, 8620, Note_on_c, 7, 78, 49
9, 8638, Note_on_c, 7, 78, 0
9, 8640, Note_on_c, 7, 74, 49
9, 8658, Note_on_c, 7, 74, 0
9, 8660, Note_on_c, 7, 71, 49
9, 8678, Note_on_c, 7, 71, 0
9, 8680, Note_on_c, 7, 67, 49
9, 8698, Note_on_c, 7, 67, 0
9, 8700, Note_on_c, 7, 64, 80
9, 8718, Note_on_c, 7, 64, 0
9, 8720, Note_on_c, 7, 67, 80
9, 8738, Note_on_c, 7, 67, 0
9, 8740, Note_on_c, 7, 71, 80
9, 8758, Note_on_c, 7, 71, 0
9, 8760, Note_on_c, 7, 74, 80
9, 8778, Note_on_c, 7, 74, 0
9, 8780, Note_on_c, 7, 78, 80
9, 8798, Note_on_c, 7, 78, 0
9, 8800, Note_on_c, 7, 83, 80
9, 8818, Note_on_c, 7, 83, 0
9, 8820, Note_on_c, 7, 85, 52
9, 8838, Note_on_c, 7, 85, 0
9, 8840, Note_on_c, 7, 83, 52
9, 8858, Note_on_c, 7, 83, 0
9, 8860, Note_on_c, 7, 78, 52
9, 8878, Note_on_c, 7, 78, 0
9, 8880, Note_on_c, 7, 74, 52
9, 8898, Note_on_c, 7, 74, 0
9, 8900, Note_on_c, 7, 71, 52
9, 8918, Note_on_c, 7, 71, 0
9, 8920, Note_on_c, 7, 67, 52
9, 8938, Note_on_c, 7, 67, 0
9, 8940, Note_on_c, 7, 64, 79
9, 8958, Note_on_c, 7, 64, 0
9, 8960, Note_on_c, 7, 67, 79
9, 8978, Note_on_c, 7, 67, 0
9, 8980, Note_on_c, 7, 71, 79
9, 8998, Note_on_c, 7, 71, 0
9, 9000, Note_on_c, 7, 74, 79
9, 9018, Note_on_c, 7, 74, 0
9, 9020, Note_on_c, 7, 78, 79
9, 9038, Note_on_c, 7, 78, 0
9, 9040, Note_on_c, 7, 83, 79
9, 9058, Note_on_c, 7, 83, 0
9, 9060, Note_on_c, 7, 83, 51
9, 9078, Note_on_c, 7, 83, 0
9, 9080, Note_on_c, 7, 81, 51
9, 9098, Note_on_c, 7, 81, 0
9, 9100, Note_on_c, 7, 76, 51
9, 9118, Note_on_c, 7, 76, 0
9, 9120, Note_on_c, 7, 72, 51
9, 9138, Note_on_c, 7, 72, 0
9, 9140, Note_on_c, 7, 69, 51
9, 9158, Note_on_c, 7, 69, 0
9, 9160, Note_on_c, 7, 65, 51
9, 9180, Note_on_c, 7, 65, 0
9, 9180, Note_on_c, 7, 64, 79
9, 9198, Note_on_c, 7, 64, 0
9, 9200, Note_on_c, 7, 65, 79
9, 9218, Note_on_c, 7, 65, 0
9, 9220, Note_on_c, 7, 69, 79
9, 9238, Note_on_c, 7, 69, 0
9, 9240, Note_on_c, 7, 72, 79
9, 9258, Note_on_c, 7, 72, 0
9, 9260, Note_on_c, 7, 76, 79
9, 9278, Note_on_c, 7, 76, 0
9, 9280, Note_on_c, 7, 81, 79
9, 9298, Note_on_c, 7, 81, 0
9, 9300, Note_on_c, 7, 83, 50
9, 9318, Note_on_c, 7, 83, 0
9, 9320, Note_on_c, 7, 81, 50
9, 9338, Note_on_c, 7, 81, 0
9, 9340, Note_on_c, 7, 76, 50
9, 9358, Note_on_c, 7, 76, 0
9, 9360, Note_on_c, 7, 72, 50
9, 9378, Note_on_c, 7, 72, 0
9, 9380, Note_on_c, 7, 69, 50
9, 9398, Note_on_c, 7, 69, 0
9, 9400, Note_on_c, 7, 65, 50
9, 9420, Note_on_c, 7, 65, 0
9, 9420, Note_on_c, 7, 64, 77
9, 9438, Note_on_c, 7, 64, 0
9, 9440, Note_on_c, 7, 65, 77
9, 9458, Note_on_c, 7, 65, 0
9, 9460, Note_on_c, 7, 69, 77
9, 9478, Note_on_c, 7, 69, 0
9, 9480, Note_on_c, 7, 72, 77
9, 9498, Note_on_c, 7, 72, 0
9, 9500, Note_on_c, 7, 76, 77
9, 9518, Note_on_c, 7, 76, 0
9, 9520, Note_on_c, 7, 81, 77
9, 9538, Note_on_c, 7, 81, 0
9, 9540, Note_on_c, 7, 83, 51
9, 9558, Note_on_c, 7, 83, 0
9, 9560, Note_on_c, 7, 81, 51
9, 9578, Note_on_c, 7, 81, 0
9, 9580, Note_on_c, 7, 76, 51
9, 9598, Note_on_c, 7, 76, 0
9, 11040, Note_on_c, 7, 80, 50
9, 11058, Note_on_c, 7, 80, 0
9, 11060, Note_on_c, 7, 78, 50
9, 11078, Note_on_c, 7, 78, 0
9, 11080, Note_on_c, 7, 75, 50
9, 11098, Note_on_c, 7, 75, 0
9, 11100, Note_on_c, 7, 73, 80
9, 11118, Note_on_c, 7, 73, 0
9, 11120, Note_on_c, 7, 75, 80
9, 11138, Note_on_c, 7, 75, 0
9, 11140, Note_on_c, 7, 78, 80
9, 11158, Note_on_c, 7, 78, 0
9, 11160, Note_on_c, 7, 80, 80
9, 11178, Note_on_c, 7, 80, 0
9, 11180, Note_on_c, 7, 85, 80
9, 11198, Note_on_c, 7, 85, 0
9, 11200, Note_on_c, 7, 87, 80
9, 11218, Note_on_c, 7, 87, 0
9, 11220, Note_on_c, 7, 89, 50
9, 11238, Note_on_c, 7, 89, 0
9, 11240, Note_on_c, 7, 87, 50
9, 11258, Note_on_c, 7, 87, 0
9, 11260, Note_on_c, 7, 85, 50
9, 11278, Note_on_c, 7, 85, 0
9, 11280, Note_on_c, 7, 80, 50
9, 11298, Note_on_c, 7, 80, 0
9, 11300, Note_on_c, 7, 78, 50
9, 11318, Note_on_c, 7, 78, 0
9, 11320, Note_on_c, 7, 75, 50
9, 11338, Note_on_c, 7, 75, 0
9, 11340, Note_on_c, 7, 73, 80
9, 11358, Note_on_c, 7, 73, 0
9, 11360, Note_on_c, 7, 75, 80
9, 11378, Note_on_c, 7, 75, 0
9, 11380, Note_on_c, 7, 78, 80
9, 11398, Note_on_c, 7, 78, 0
9, 11400, Note_on_c, 7, 80, 80
9, 11418, Note_on_c, 7, 80, 0
9, 11420, Note_on_c, 7, 85, 80
9, 11438, Note_on_c, 7, 85, 0
9, 11440, Note_on_c, 7, 87, 80
9, 11458, Note_on_c, 7, 87, 0
9, 11460, Note_on_c, 7, 89, 50
9, 11478, Note_on_c, 7, 89, 0
9, 11480, Note_on_c, 7, 87, 50
9, 11498, Note_on_c, 7, 87, 0
9, 11500, Note_on_c, 7, 85, 50
9, 11518, Note_on_c, 7, 85, 0
9, 11520, Note_on_c, 7, 80, 50
9, 11538, Note_on_c, 7, 80, 0
9, 11540, Note_on_c, 7, 78, 50
9, 11558, Note_on_c, 7, 78, 0
9, 11560, Note_on_c, 7, 75, 50
9, 11578, Note_on_c, 7, 75, 0
9, 11580, Note_on_c, 7, 73, 80
9, 11598, Note_on_c, 7, 73, 0
9, 11600, Note_on_c, 7, 75, 80
9, 11618, Note_on_c, 7, 75, 0
9, 11620, Note_on_c, 7, 78, 80
9, 11638, Note_on_c, 7, 78, 0
9, 11640, Note_on_c, 7, 80, 80
9, 11658, Note_on_c, 7, 80, 0
9, 11660, Note_on_c, 7, 85, 80
9, 11678, Note_on_c, 7, 85, 0
9, 11680, Note_on_c, 7, 87, 80
9, 11698, Note_on_c, 7, 87, 0
9, 11700, Note_on_c, 7, 89, 50
9, 11718, Note_on_c, 7, 89, 0
9, 11720, Note_on_c, 7, 87, 50
9, 11738, Note_on_c, 7, 87, 0
9, 11740, Note_on_c, 7, 85, 50
9, 11758, Note_on_c, 7, 85, 0
9, 11760, Note_on_c, 7, 80, 50
9, 11778, Note_on_c, 7, 80, 0
9, 11780, Note_on_c, 7, 78, 50
9, 11798, Note_on_c, 7, 78, 0
9, 11800, Note_on_c, 7, 75, 50
9, 11818, Note_on_c, 7, 75, 0
9, 11820, Note_on_c, 7, 73, 81
9, 11838, Note_on_c, 7, 73, 0
9, 11840, Note_on_c, 7, 75, 80
9, 11858, Note_on_c, 7, 75, 0
9, 11860, Note_on_c, 7, 78, 80
9, 11878, Note_on_c, 7, 78, 0
9, 11880, Note_on_c, 7, 80, 80
9, 11898, Note_on_c, 7, 80, 0
9, 11900, Note_on_c, 7, 85, 80
9, 11918, Note_on_c, 7, 85, 0
9, 11920, Note_on_c, 7, 87, 80
9, 11938, Note_on_c, 7, 87, 0
9, 11940, Note_on_c, 7, 89, 53
9, 11958, Note_on_c, 7, 89, 0
9, 11960, Note_on_c, 7, 87, 53
9, 11978, Note_on_c, 7, 87, 0
9, 11980, Note_on_c, 7, 85, 53
9, 11998, Note_on_c, 7, 85, 0
9, 12000, Note_on_c, 7, 74, 53
9, 12018, Note_on_c, 7, 74, 0
9, 12020, Note_on_c, 7, 71, 53
9, 12038, Note_on_c, 7, 71, 0
9, 12040, Note_on_c, 7, 69, 53
9, 12058, Note_on_c, 7, 69, 0
9, 12060, Note_on_c, 7, 66, 80
9, 12078, Note_on_c, 7, 66, 0
9, 12080, Note_on_c, 7, 69, 80
9, 12098, Note_on_c, 7, 69, 0
9, 12100, Note_on_c, 7, 71, 80
9, 12118, Note_on_c, 7, 71, 0
9, 12120, Note_on_c, 7, 74, 80
9, 12138, Note_on_c, 7, 74, 0
9, 12140, Note_on_c, 7, 78, 80
9, 12158, Note_on_c, 7, 78, 0
9, 12160, Note_on_c, 7, 83, 80
9, 12178, Note_on_c, 7, 83, 0
9, 12180, Note_on_c, 7, 85, 54
9, 12198, Note_on_c, 7, 85, 0
9, 12200, Note_on_c, 7, 83, 54
9, 12218, Note_on_c, 7, 83, 0
9, 12220, Note_on_c, 7, 78, 54
9, 12238, Note_on_c, 7, 78, 0
9, 12240, Note_on_c, 7, 74, 54
9, 12258, Note_on_c, 7, 74, 0
9, 12260, Note_on_c, 7, 71, 54
9, 12278, Note_on_c, 7, 71, 0
9, 12280, Note_on_c, 7, 69, 54
9, 12298, Note_on_c, 7, 69, 0
9, 12300, Note_on_c, 7, 66, 80
9, 12318, Note_on_c, 7, 66, 0
9, 12320, Note_on_c, 7, 69, 80
9, 12338, Note_on_c, 7, 69, 0
9, 12340, Note_on_c, 7, 71, 80
9, 12358, Note_on_c, 7, 71, 0
9, 12360, Note_on_c, 7, 74, 80
9, 12378, Note_on_c, 7, 74, 0
9, 12380, Note_on_c, 7, 78, 80
9, 12398, Note_on_c, 7, 78, 0
9, 12400, Note_on_c, 7, 83, 80
9, 12418, Note_on_c, 7, 83, 0
9, 12420, Note_on_c, 7, 85, 54
9, 12438, Note_on_c, 7, 85, 0
9, 12440, Note_on_c, 7, 83, 54
9, 12458, Note_on_c, 7, 83, 0
9, 12460, Note_on_c, 7, 78, 54
9, 12478, Note_on_c, 7, 78, 0
9, 12480, Note_on_c, 7, 74, 54
9, 12498, Note_on_c, 7, 74, 0
9, 12500, Note_on_c, 7, 71, 54
9, 12518, Note_on_c, 7, 71, 0
9, 12520, Note_on_c, 7, 69, 54
9, 12538, Note_on_c, 7, 69, 0
9, 12540, Note_on_c, 7, 66, 80
9, 12558, Note_on_c, 7, 66, 0
9, 12560, Note_on_c, 7, 69, 80
9, 12578, Note_on_c, 7, 69, 0
9, 12580, Note_on_c, 7, 71, 80
9, 12598, Note_on_c, 7, 71, 0
9, 12600, Note_on_c, 7, 74, 80
9, 12618, Note_on_c, 7, 74, 0
9, 12620, Note_on_c, 7, 78, 80
9, 12638, Note_on_c, 7, 78, 0
9, 12640, Note_on_c, 7, 83, 80
9, 12658, Note_on_c, 7, 83, 0
9, 12660, Note_on_c, 7, 85, 56
9, 12678, Note_on_c, 7, 85, 0
9, 12680, Note_on_c, 7, 83, 56
9, 12698, Note_on_c, 7, 83, 0
9, 12700, Note_on_c, 7, 78, 56
9, 12718, Note_on_c, 7, 78, 0
9, 12720, Note_on_c, 7, 74, 56
9, 12738, Note_on_c, 7, 74, 0
9, 12740, Note_on_c, 7, 71, 56
9, 12758, Note_on_c, 7, 71, 0
9, 12760, Note_on_c, 7, 69, 55
9, 12778, Note_on_c, 7, 69, 0
9, 12780, Note_on_c, 7, 66, 80
9, 12798, Note_on_c, 7, 66, 0
9, 12800, Note_on_c, 7, 69, 80
9, 12818, Note_on_c, 7, 69, 0
9, 12820, Note_on_c, 7, 71, 80
9, 12838, Note_on_c, 7, 71, 0
9, 12840, Note_on_c, 7, 74, 80
9, 12858, Note_on_c, 7, 74, 0
9, 12860, Note_on_c, 7, 78, 80
9, 12878, Note_on_c, 7, 78, 0
9, 12880, Note_on_c, 7, 83, 80
9, 12898, Note_on_c, 7, 83, 0
9, 12900, Note_on_c, 7, 85, 56
9, 12918, Note_on_c, 7, 85, 0
9, 12920, Note_on_c, 7, 83, 56
9, 12938, Note_on_c, 7, 83, 0
9, 12940, Note_on_c, 7, 78, 56
9, 12958, Note_on_c, 7, 78, 0
9, 12960, Note_on_c, 7, 78, 55
9, 12978, Note_on_c, 7, 78, 0
9, 12980, Note_on_c, 7, 75, 56
9, 12998, Note_on_c, 7, 75, 0
9, 13000, Note_on_c, 7, 71, 56
9, 13018, Note_on_c, 7, 71, 0
9, 13020, Note_on_c, 7, 66, 80
9, 13038, Note_on_c, 7, 66, 0
9, 13040, Note_on_c, 7, 71, 80
9, 13058, Note_on_c, 7, 71, 0
9, 13060, Note_on_c, 7, 75, 80
9, 13078, Note_on_c, 7, 75, 0
9, 13080, Note_on_c, 7, 78, 80
9, 13098, Note_on_c, 7, 78, 0
9, 13100, Note_on_c, 7, 83, 80
9, 13118, Note_on_c, 7, 83, 0
9, 13120, Note_on_c, 7, 85, 80
9, 13138, Note_on_c, 7, 85, 0
9, 13140, Note_on_c, 7, 87, 54
9, 13158, Note_on_c, 7, 87, 0
9, 13160, Note_on_c, 7, 85, 54
9, 13178, Note_on_c, 7, 85, 0
9, 13180, Note_on_c, 7, 83, 54
9, 13198, Note_on_c, 7, 83, 0
9, 13200, Note_on_c, 7, 78, 54
9, 13218, Note_on_c, 7, 78, 0
9, 13220, Note_on_c, 7, 75, 54
9, 13238, Note_on_c, 7, 75, 0
9, 13240, Note_on_c, 7, 71, 54
9, 13258, Note_on_c, 7, 71, 0
9, 13260, Note_on_c, 7, 66, 79
9, 13278, Note_on_c, 7, 66, 0
9, 13280, Note_on_c, 7, 71, 79
9, 13298, Note_on_c, 7, 71, 0
9, 13300, Note_on_c, 7, 75, 79
9, 13318, Note_on_c, 7, 75, 0
9, 13320, Note_on_c, 7, 78, 79
9, 13338, Note_on_c, 7, 78, 0
9, 13340, Note_on_c, 7, 83, 79
9, 13358, Note_on_c, 7, 83, 0
9, 13360, Note_on_c, 7, 85, 79
9, 13378, Note_on_c, 7, 85, 0
9, 13380, Note_on_c, 7, 87, 50
9, 13398, Note_on_c, 7, 87, 0
9, 13400, Note_on_c, 7, 85, 50
9, 13418, Note_on_c, 7, 85, 0
9, 13420, Note_on_c, 7, 83, 50
9, 13438, Note_on_c, 7, 83, 0
9, 13440, Note_on_c, 7, 78, 50
9, 13458, Note_on_c, 7, 78, 0
9, 13460, Note_on_c, 7, 75, 50
9, 13478, Note_on_c, 7, 75, 0
9, 13480, Note_on_c, 7, 71, 50
9, 13498, Note_on_c, 7, 71, 0
9, 13500, Note_on_c, 7, 66, 49
9, 13518, Note_on_c, 7, 66, 0
9, 13520, Note_on_c, 7, 71, 80
9, 13538, Note_on_c, 7, 71, 0
9, 13540, Note_on_c, 7, 75, 80
9, 13558, Note_on_c, 7, 75, 0
9, 13560, Note_on_c, 7, 78, 80
9, 13578, Note_on_c, 7, 78, 0
9, 13580, Note_on_c, 7, 83, 80
9, 13598, Note_on_c, 7, 83, 0
9, 13600, Note_on_c, 7, 85, 80
9, 13618, Note_on_c, 7, 85, 0
9, 13620, Note_on_c, 7, 87, 81
9, 13638, Note_on_c, 7, 87, 0
9, 13640, Note_on_c, 7, 85, 52
9, 13658, Note_on_c, 7, 85, 0
9, 13660, Note_on_c, 7, 83, 52
9, 13678, Note_on_c, 7, 83, 0
9, 13680, Note_on_c, 7, 78, 52
9, 13698, Note_on_c, 7, 78, 0
9, 13700, Note_on_c, 7, 75, 52
9, 13718, Note_on_c, 7, 75, 0
9, 13720, Note_on_c, 7, 71, 52
9, 13738, Note_on_c, 7, 71, 0
9, 13740, Note_on_c, 7, 66, 79
9, 13758, Note_on_c, 7, 66, 0
9, 13760, Note_on_c, 7, 71, 79
9, 13778, Note_on_c, 7, 71, 0
9, 13780, Note_on_c, 7, 75, 79
9, 13798, Note_on_c, 7, 75, 0
9, 13800, Note_on_c, 7, 78, 79
9, 13818, Note_on_c, 7, 78, 0
9, 13820, Note_on_c, 7, 83, 79
9, 13838, Note_on_c, 7, 83, 0
9, 13840, Note_on_c, 7, 85, 80
9, 13858, Note_on_c, 7, 85, 0
9, 13860, Note_on_c, 7, 87, 53
9, 13878, Note_on_c, 7, 87, 0
9, 13880, Note_on_c, 7, 85, 53
9, 13898, Note_on_c, 7, 85, 0
9, 13900, Note_on_c, 7, 83, 53
9, 13918, Note_on_c, 7, 83, 0
9, 13920, Note_on_c, 7, 78, 53
9, 13938, Note_on_c, 7, 78, 0
9, 13940, Note_on_c, 7, 75, 53
9, 13958, Note_on_c, 7, 75, 0
9, 13960, Note_on_c, 7, 71, 55
9, 13978, Note_on_c, 7, 71, 0
9, 13980, Note_on_c, 7, 66, 80
9, 13998, Note_on_c, 7, 66, 0
9, 14000, Note_on_c, 7, 71, 80
9, 14018, Note_on_c, 7, 71, 0
9, 14020, Note_on_c, 7, 75, 80
9, 14038, Note_on_c, 7, 75, 0
9, 14040, Note_on_c, 7, 78, 80
9, 14058, Note_on_c, 7, 78, 0
9, 14060, Note_on_c, 7, 83, 80
9, 14078, Note_on_c, 7, 83, 0
9, 14080, Note_on_c, 7, 85, 80
9, 14098, Note_on_c, 7, 85, 0
9, 14100, Note_on_c, 7, 87, 54
9, 14118, Note_on_c, 7, 87, 0
9, 14120, Note_on_c, 7, 85, 54
9, 14138, Note_on_c, 7, 85, 0
9, 14140, Note_on_c, 7, 83, 54
9, 14158, Note_on_c, 7, 83, 0
9, 14160, Note_on_c, 7, 78, 54
9, 14178, Note_on_c, 7, 78, 0
9, 14180, Note_on_c, 7, 75, 54
9, 14198, Note_on_c, 7, 75, 0
9, 14200, Note_on_c, 7, 71, 54
9, 14218, Note_on_c, 7, 71, 0
9, 14220, Note_on_c, 7, 66, 81
9, 14238, Note_on_c, 7, 66, 0
9, 14240, Note_on_c, 7, 71, 81
9, 14258, Note_on_c, 7, 71, 0
9, 14260, Note_on_c, 7, 75, 81
9, 14278, Note_on_c, 7, 75, 0
9, 14280, Note_on_c, 7, 78, 81
9, 14298, Note_on_c, 7, 78, 0
9, 14300, Note_on_c, 7, 83, 81
9, 14318, Note_on_c, 7, 83, 0
9, 14320, Note_on_c, 7, 85, 81
9, 14338, Note_on_c, 7, 85, 0
9, 14340, Note_on_c, 7, 87, 54
9, 14358, Note_on_c, 7, 87, 0
9, 14360, Note_on_c, 7, 85, 54
9, 14378, Note_on_c, 7, 85, 0
9, 14380, Note_on_c, 7, 83, 54
9, 14398, Note_on_c, 7, 83, 0
9, 14400, Note_on_c, 7, 78, 54
9, 14418, Note_on_c, 7, 78, 0
9, 14420, Note_on_c, 7, 75, 54
9, 14438, Note_on_c, 7, 75, 0
9, 14440, Note_on_c, 7, 71, 54
9, 14458, Note_on_c, 7, 71, 0
9, 14460, Note_on_c, 7, 66, 80
9, 14478, Note_on_c, 7, 66, 0
9, 14480, Note_on_c, 7, 71, 80
9, 14498, Note_on_c, 7, 71, 0
9, 14500, Note_on_c, 7, 75, 80
9, 14518, Note_on_c, 7, 75, 0
9, 14520, Note_on_c, 7, 78, 80
9, 14538, Note_on_c, 7, 78, 0
9, 14540, Note_on_c, 7, 83, 80
9, 14558, Note_on_c, 7, 83, 0
9, 14560, Note_on_c, 7, 85, 80
9, 14578, Note_on_c, 7, 85, 0
9, 14580, Note_on_c, 7, 87, 55
9, 14598, Note_on_c, 7, 87, 0
9, 14600, Note_on_c, 7, 85, 55
9, 14618, Note_on_c, 7, 85, 0
9, 14620, Note_on_c, 7, 83, 55
9, 14638, Note_on_c, 7, 83, 0
9, 14640, Note_on_c, 7, 78, 55
9, 14658, Note_on_c, 7, 78, 0
9, 14660, Note_on_c, 7, 75, 55
9, 14678, Note_on_c, 7, 75, 0
9, 14680, Note_on_c, 7, 71, 55
9, 14698, Note_on_c, 7, 71, 0
9, 14700, Note_on_c, 7, 66, 80
9, 14718, Note_on_c, 7, 66, 0
9, 14720, Note_on_c, 7, 71, 80
9, 14738, Note_on_c, 7, 71, 0
9, 14740, Note_on_c, 7, 75, 80
9, 14758, Note_on_c, 7, 75, 0
9, 14760, Note_on_c, 7, 78, 80
9, 14778, Note_on_c, 7, 78, 0
9, 14780, Note_on_c, 7, 83, 80
9, 14798, Note_on_c, 7, 83, 0
9, 14800, Note_on_c, 7, 85, 80
9, 14818, Note_on_c, 7, 85, 0
9, 14820, Note_on_c, 7, 87, 57
9, 14838, Note_on_c, 7, 87, 0
9, 14840, Note_on_c, 7, 85, 57
9, 14858, Note_on_c, 7, 85, 0
9, 14860, Note_on_c, 7, 83, 57
9, 14878, Note_on_c, 7, 83, 0
9, 14880, Note_on_c, 7, 78, 58
9, 14898, Note_on_c, 7, 78, 0
9, 14900, Note_on_c, 7, 73, 58
9, 14918, Note_on_c, 7, 73, 0
9, 14920, Note_on_c, 7, 69, 58
9, 14938, Note_on_c, 7, 69, 0
9, 14940, Note_on_c, 7, 66, 80
9, 14958, Note_on_c, 7, 66, 0
9, 14960, Note_on_c, 7, 69, 80
9, 14978, Note_on_c, 7, 69, 0
9, 14980, Note_on_c, 7, 73, 80
9, 14998, Note_on_c, 7, 73, 0
9, 15000, Note_on_c, 7, 78, 80
9, 15018, Note_on_c, 7, 78, 0
9, 15020, Note_on_c, 7, 81, 80
9, 15038, Note_on_c, 7, 81, 0
9, 15040, Note_on_c, 7, 83, 80
9, 15058, Note_on_c, 7, 83, 0
9, 15060, Note_on_c, 7, 85, 52
9, 15078, Note_on_c, 7, 85, 0
9, 15080, Note_on_c, 7, 83, 52
9, 15098, Note_on_c, 7, 83, 0
9, 15100, Note_on_c, 7, 81, 52
9, 15118, Note_on_c, 7, 81, 0
9, 15120, Note_on_c, 7, 78, 52
9, 15138, Note_on_c, 7, 78, 0
9, 15140, Note_on_c, 7, 73, 52
9, 15158, Note_on_c, 7, 73, 0
9, 15160, Note_on_c, 7, 69, 52
9, 15178, Note_on_c, 7, 69, 0
9, 15180, Note_on_c, 7, 66, 80
9, 15198, Note_on_c, 7, 66, 0
9, 15200, Note_on_c, 7, 69, 80
9, 15218, Note_on_c, 7, 69, 0
9, 15220, Note_on_c, 7, 73, 80
9, 15238, Note_on_c, 7, 73, 0
9, 15240, Note_on_c, 7, 78, 80
9, 15258, Note_on_c, 7, 78, 0
9, 15260, Note_on_c, 7, 81, 80
9, 15278, Note_on_c, 7, 81, 0
9, 15280, Note_on_c, 7, 83, 80
9, 15298, Note_on_c, 7, 83, 0
9, 15300, Note_on_c, 7, 85, 50
9, 15318, Note_on_c, 7, 85, 0
9, 15320, Note_on_c, 7, 83, 50
9, 15338, Note_on_c, 7, 83, 0
9, 15340, Note_on_c, 7, 81, 50
9, 15358, Note_on_c, 7, 81, 0
9, 15360, Note_on_c, 7, 78, 50
9, 15378, Note_on_c, 7, 78, 0
9, 15380, Note_on_c, 7, 73, 50
9, 15398, Note_on_c, 7, 73, 0
9, 15400, Note_on_c, 7, 69, 50
9, 15418, Note_on_c, 7, 69, 0
9, 15420, Note_on_c, 7, 66, 80
9, 15438, Note_on_c, 7, 66, 0
9, 15440, Note_on_c, 7, 69, 80
9, 15458, Note_on_c, 7, 69, 0
9, 15460, Note_on_c, 7, 73, 80
9, 15478, Note_on_c, 7, 73, 0
9, 15480, Note_on_c, 7, 78, 80
9, 15498, Note_on_c, 7, 78, 0
9, 15500, Note_on_c, 7, 81, 80
9, 15518, Note_on_c, 7, 81, 0
9, 15520, Note_on_c, 7, 83, 80
9, 15538, Note_on_c, 7, 83, 0
9, 15540, Note_on_c, 7, 85, 48
9, 15558, Note_on_c, 7, 85, 0
9, 15560, Note_on_c, 7, 83, 48
9, 15578, Note_on_c, 7, 83, 0
9, 15580, Note_on_c, 7, 81, 48
9, 15598, Note_on_c, 7, 81, 0
9, 15600, Note_on_c, 7, 78, 48
9, 15618, Note_on_c, 7, 78, 0
9, 15620, Note_on_c, 7, 73, 48
9, 15638, Note_on_c, 7, 73, 0
9, 15640, Note_on_c, 7, 69, 48
9, 15658, Note_on_c, 7, 69, 0
9, 15660, Note_on_c, 7, 66, 81
9, 15678, Note_on_c, 7, 66, 0
9, 15680, Note_on_c, 7, 69, 81
9, 15698, Note_on_c, 7, 69, 0
9, 15700, Note_on_c, 7, 73, 81
9, 15718, Note_on_c, 7, 73, 0
9, 15720, Note_on_c, 7, 78, 80
9, 15738, Note_on_c, 7, 78, 0
9, 15740, Note_on_c, 7, 81, 80
9, 15758, Note_on_c, 7, 81, 0
9, 15760, Note_on_c, 7, 83, 80
9, 15778, Note_on_c, 7, 83, 0
9, 15780, Note_on_c, 7, 85, 51
9, 15798, Note_on_c, 7, 85, 0
9, 15800, Note_on_c, 7, 83, 51
9, 15818, Note_on_c, 7, 83, 0
9, 15820, Note_on_c, 7, 81, 51
9, 15838, Note_on_c, 7, 81, 0
9, 15840, Note_on_c, 7, 78, 51
9, 15858, Note_on_c, 7, 78, 0
9, 15860, Note_on_c, 7, 73, 51
9, 15878, Note_on_c, 7, 73, 0
9, 15880, Note_on_c, 7, 69, 51
9, 15898, Note_on_c, 7, 69, 0
9, 15900, Note_on_c, 7, 66, 79
9, 15918, Note_on_c, 7, 66, 0
9, 15920, Note_on_c, 7, 69, 79
9, 15938, Note_on_c, 7, 69, 0
9, 15940, Note_on_c, 7, 73, 79
9, 15958, Note_on_c, 7, 73, 0
9, 15960, Note_on_c, 7, 78, 79
9, 15978, Note_on_c, 7, 78, 0
9, 15980, Note_on_c, 7, 81, 79
9, 15998, Note_on_c, 7, 81, 0
9, 16000, Note_on_c, 7, 83, 79
9, 16018, Note_on_c, 7, 83, 0
9, 16020, Note_on_c, 7, 85, 51
9, 16038, Note_on_c, 7, 85, 0
9, 16040, Note_on_c, 7, 83, 51
9, 16058, Note_on_c, 7, 83, 0
9, 16060, Note_on_c, 7, 81, 51
9, 16078, Note_on_c, 7, 81, 0
9, 16080, Note_on_c, 7, 78, 51
9, 16098, Note_on_c, 7, 78, 0
9, 16100, Note_on_c, 7, 73, 51
9, 16118, Note_on_c, 7, 73, 0
9, 16120, Note_on_c, 7, 69, 51
9, 16138, Note_on_c, 7, 69, 0
9, 16140, Note_on_c, 7, 66, 79
9, 16158, Note_on_c, 7, 66, 0
9, 16160, Note_on_c, 7, 69, 79
9, 16178, Note_on_c, 7, 69, 0
9, 16180, Note_on_c, 7, 73, 79
9, 16198, Note_on_c, 7, 73, 0
9, 16200, Note_on_c, 7, 78, 79
9, 16218, Note_on_c, 7, 78, 0
9, 16220, Note_on_c, 7, 81, 79
9, 16238, Note_on_c, 7, 81, 0
9, 16240, Note_on_c, 7, 83, 79
9, 16258, Note_on_c, 7, 83, 0
9, 16260, Note_on_c, 7, 85, 50
9, 16278, Note_on_c, 7, 85, 0
9, 16280, Note_on_c, 7, 83, 50
9, 16298, Note_on_c, 7, 83, 0
9, 16300, Note_on_c, 7, 81, 50
9, 16318, Note_on_c, 7, 81, 0
9, 16320, Note_on_c, 7, 78, 50
9, 16338, Note_on_c, 7, 78, 0
9, 16340, Note_on_c, 7, 73, 50
9, 16358, Note_on_c, 7, 73, 0
9, 16360, Note_on_c, 7, 69, 50
9, 16378, Note_on_c, 7, 69, 0
9, 16380, Note_on_c, 7, 66, 80
9, 16398, Note_on_c, 7, 66, 0
9, 16400, Note_on_c, 7, 69, 80
9, 16418, Note_on_c, 7, 69, 0
9, 16420, Note_on_c, 7, 73, 80
9, 16438, Note_on_c, 7, 73, 0
9, 16440, Note_on_c, 7, 78, 80
9, 16458, Note_on_c, 7, 78, 0
9, 16460, Note_on_c, 7, 81, 80
9, 16478, Note_on_c, 7, 81, 0
9, 16480, Note_on_c, 7, 83, 80
9, 16498, Note_on_c, 7, 83, 0
9, 16500, Note_on_c, 7, 85, 48
9, 16518, Note_on_c, 7, 85, 0
9, 16520, Note_on_c, 7, 83, 48
9, 16538, Note_on_c, 7, 83, 0
9, 16540, Note_on_c, 7, 81, 48
9, 16558, Note_on_c, 7, 81, 0
9, 16560, Note_on_c, 7, 78, 48
9, 16578, Note_on_c, 7, 78, 0
9, 16580, Note_on_c, 7, 73, 48
9, 16598, Note_on_c, 7, 73, 0
9, 16600, Note_on_c, 7, 69, 48
9, 16618, Note_on_c, 7, 69, 0
9, 16620, Note_on_c, 7, 66, 79
9, 16638, Note_on_c, 7, 66, 0
9, 16640, Note_on_c, 7, 69, 79
9, 16658, Note_on_c, 7, 69, 0
9, 16660, Note_on_c, 7, 73, 79
9, 16678, Note_on_c, 7, 73, 0
9, 16680, Note_on_c, 7, 78, 79
9, 16698, Note_on_c, 7, 78, 0
9, 16700, Note_on_c, 7, 81, 79
9, 16718, Note_on_c, 7, 81, 0
9, 16720, Note_on_c, 7, 83, 79
9, 16738, Note_on_c, 7, 83, 0
9, 16740, Note_on_c, 7, 85, 50
9, 16758, Note_on_c, 7, 85, 0
9, 16760, Note_on_c, 7, 83, 50
9, 16778, Note_on_c, 7, 83, 0
9, 16780, Note_on_c, 7, 78, 50
9, 16798, Note_on_c, 7, 78, 0
9, 16800, Note_on_c, 7, 74, 50
9, 16818, Note_on_c, 7, 74, 0
9, 16820, Note_on_c, 7, 71, 50
9, 16838, Note_on_c, 7, 71, 0
9, 16840, Note_on_c, 7, 67, 50
9, 16858, Note_on_c, 7, 67, 0
9, 16860, Note_on_c, 7, 64, 79
9, 16878, Note_on_c, 7, 64, 0
9, 16880, Note_on_c, 7, 67, 79
9, 16898, Note_on_c, 7, 67, 0
9, 16900, Note_on_c, 7, 71, 79
9, 16918, Note_on_c, 7, 71, 0
9, 16920, Note_on_c, 7, 74, 79
9, 16938, Note_on_c, 7, 74, 0
9, 16940, Note_on_c, 7, 78, 79
9, 16958, Note_on_c, 7, 78, 0
9, 16960, Note_on_c, 7, 83, 79
9, 16978, Note_on_c, 7, 83, 0
9, 16980, Note_on_c, 7, 85, 51
9, 16998, Note_on_c, 7, 85, 0
9, 17000, Note_on_c, 7, 83, 51
9, 17018, Note_on_c, 7, 83, 0
9, 17020, Note_on_c, 7, 78, 51
9, 17038, Note_on_c, 7, 78, 0
9, 17040, Note_on_c, 7, 74, 51
9, 17058, Note_on_c, 7, 74, 0
9, 17060, Note_on_c, 7, 71, 51
9, 17078, Note_on_c, 7, 71, 0
9, 17080, Note_on_c, 7, 67, 51
9, 17098, Note_on_c, 7, 67, 0
9, 17100, Note_on_c, 7, 64, 80
9, 17118, Note_on_c, 7, 64, 0
9, 17120, Note_on_c, 7, 67, 80
9, 17138, Note_on_c, 7, 67, 0
9, 17140, Note_on_c, 7, 71, 80
9, 17158, Note_on_c, 7, 71, 0
9, 17160, Note_on_c, 7, 74, 79
9, 17178, Note_on_c, 7, 74, 0
9, 17180, Note_on_c, 7, 78, 79
9, 17198, Note_on_c, 7, 78, 0
9, 17200, Note_on_c, 7, 83, 79
9, 17218, Note_on_c, 7, 83, 0
9, 17220, Note_on_c, 7, 85, 50
9, 17238, Note_on_c, 7, 85, 0
9, 17240, Note_on_c, 7, 83, 50
9, 17258, Note_on_c, 7, 83, 0
9, 17260, Note_on_c, 7, 78, 50
9, 17278, Note_on_c, 7, 78, 0
9, 17280, Note_on_c, 7, 74, 50
9, 17298, Note_on_c, 7, 74, 0
9, 17300, Note_on_c, 7, 71, 50
9, 17318, Note_on_c, 7, 71, 0
9, 17320, Note_on_c, 7, 67, 50
9, 17338, Note_on_c, 7, 67, 0
9, 17340, Note_on_c, 7, 64, 78
9, 17358, Note_on_c, 7, 64, 0
9, 17360, Note_on_c, 7, 67, 78
9, 17378, Note_on_c, 7, 67, 0
9, 17380, Note_on_c, 7, 71, 78
9, 17398, Note_on_c, 7, 71, 0
9, 17400, Note_on_c, 7, 74, 78
9, 17418, Note_on_c, 7, 74, 0
9, 17420, Note_on_c, 7, 78, 78
9, 17438, Note_on_c, 7, 78, 0
9, 17440, Note_on_c, 7, 83, 78
9, 17458, Note_on_c, 7, 83, 0
9, 17460, Note_on_c, 7, 85, 52
9, 17478, Note_on_c, 7, 85, 0
9, 17480, Note_on_c, 7, 83, 52
9, 17498, Note_on_c, 7, 83, 0
9, 17500, Note_on_c, 7, 78, 52
9, 17518, Note_on_c, 7, 78, 0
9, 17520, Note_on_c, 7, 74, 52
9, 17538, Note_on_c, 7, 74, 0
9, 17540, Note_on_c, 7, 71, 52
9, 17558, Note_on_c, 7, 71, 0
9, 17560, Note_on_c, 7, 67, 52
9, 17578, Note_on_c, 7, 67, 0
9, 17580, Note_on_c, 7, 64, 79
9, 17598, Note_on_c, 7, 64, 0
9, 17600, Note_on_c, 7, 67, 79
9, 17618, Note_on_c, 7, 67, 0
9, 17620, Note_on_c, 7, 71, 79
9, 17638, Note_on_c, 7, 71, 0
9, 17640, Note_on_c, 7, 74, 79
9, 17658, Note_on_c, 7, 74, 0
9, 17660, Note_on_c, 7, 78, 79
9, 17678, Note_on_c, 7, 78, 0
9, 17680, Note_on_c, 7, 83, 79
9, 17698, Note_on_c, 7, 83, 0
9, 17700, Note_on_c, 7, 85, 50
9, 17718, Note_on_c, 7, 85, 0
9, 17720, Note_on_c, 7, 83, 50
9, 17738, Note_on_c, 7, 83, 0
9, 17740, Note_on_c, 7, 78, 50
9, 17758, Note_on_c, 7, 78, 0
9, 17760, Note_on_c, 7, 74, 51
9, 17778, Note_on_c, 7, 74, 0
9, 17780, Note_on_c, 7, 71, 51
9, 17798, Note_on_c, 7, 71, 0
9, 17800, Note_on_c, 7, 67, 51
9, 17818, Note_on_c, 7, 67, 0
9, 17820, Note_on_c, 7, 64, 78
9, 17838, Note_on_c, 7, 64, 0
9, 17840, Note_on_c, 7, 67, 78
9, 17858, Note_on_c, 7, 67, 0
9, 17860, Note_on_c, 7, 71, 78
9, 17878, Note_on_c, 7, 71, 0
9, 17880, Note_on_c, 7, 74, 78
9, 17898, Note_on_c, 7, 74, 0
9, 17900, Note_on_c, 7, 78, 78
9, 17918, Note_on_c, 7, 78, 0
9, 17920, Note_on_c, 7, 83, 78
9, 17938, Note_on_c, 7, 83, 0
9, 17940, Note_on_c, 7, 85, 52
9, 17958, Note_on_c, 7, 85, 0
9, 17960, Note_on_c, 7, 83, 52
9, 17978, Note_on_c, 7, 83, 0
9, 17980, Note_on_c, 7, 78, 52
9, 17998, Note_on_c, 7, 78, 0
9, 18000, Note_on_c, 7, 74, 51
9, 18018, Note_on_c, 7, 74, 0
9, 18020, Note_on_c, 7, 71, 51
9, 18038, Note_on_c, 7, 71, 0
9, 18040, Note_on_c, 7, 67, 51
9, 18058, Note_on_c, 7, 67, 0
9, 18060, Note_on_c, 7, 64, 79
9, 18078, Note_on_c, 7, 64, 0
9, 18080, Note_on_c, 7, 67, 79
9, 18098, Note_on_c, 7, 67, 0
9, 18100, Note_on_c, 7, 71, 79
9, 18118, Note_on_c, 7, 71, 0
9, 18120, Note_on_c, 7, 74, 79
9, 18138, Note_on_c, 7, 74, 0
9, 18140, Note_on_c, 7, 78, 79
9, 18158, Note_on_c, 7, 78, 0
9, 18160, Note_on_c, 7, 83, 79
9, 18178, Note_on_c, 7, 83, 0
9, 18180, Note_on_c, 7, 85, 49
9, 18198, Note_on_c, 7, 85, 0
9, 18200, Note_on_c, 7, 83, 49
9, 18218, Note_on_c, 7, 83, 0
9, 18220, Note_on_c, 7, 78, 49
9, 18238, Note_on_c, 7, 78, 0
9, 18240, Note_on_c, 7, 74, 49
9, 18258, Note_on_c, 7, 74, 0
9, 18260, Note_on_c, 7, 71, 49
9, 18278, Note_on_c, 7, 71, 0
9, 18280, Note_on_c, 7, 67, 49
9, 18298, Note_on_c, 7, 67, 0
9, 18300, Note_on_c, 7, 64, 80
9, 18318, Note_on_c, 7, 64, 0
9, 18320, Note_on_c, 7, 67, 80
9, 18338, Note_on_c, 7, 67, 0
9, 18340, Note_on_c, 7, 71, 80
9, 18358, Note_on_c, 7, 71, 0
9, 18360, Note_on_c, 7, 74, 80
9, 18378, Note_on_c, 7, 74, 0
9, 18380, Note_on_c, 7, 78, 80
9, 18398, Note_on_c, 7, 78, 0
9, 18400, Note_on_c, 7, 83, 80
9, 18418, Note_on_c, 7, 83, 0
9, 18420, Note_on_c, 7, 85, 52
9, 18438, Note_on_c, 7, 85, 0
9, 18440, Note_on_c, 7, 83, 52
9, 18458, Note_on_c, 7, 83, 0
9, 18460, Note_on_c, 7, 78, 52
9, 18478, Note_on_c, 7, 78, 0
9, 18480, Note_on_c, 7, 74, 52
9, 18498, Note_on_c, 7, 74, 0
9, 18500, Note_on_c, 7, 71, 52
9, 18518, Note_on_c, 7, 71, 0
9, 18520, Note_on_c, 7, 67, 52
9, 18538, Note_on_c, 7, 67, 0
9, 18540, Note_on_c, 7, 64, 79
9, 18558, Note_on_c, 7, 64, 0
9, 18560, Note_on_c, 7, 67, 79
9, 18578, Note_on_c, 7, 67, 0
9, 18580, Note_on_c, 7, 71, 79
9, 18598, Note_on_c, 7, 71, 0
9, 18600, Note_on_c, 7, 74, 79
9, 18618, Note_on_c, 7, 74, 0
9, 18620, Note_on_c, 7, 78, 79
9, 18638, Note_on_c, 7, 78, 0
9, 18640, Note_on_c, 7, 83, 79
9, 18658, Note_on_c, 7, 83, 0
9, 18660, Note_on_c, 7, 83, 51
9, 18678, Note_on_c, 7, 83, 0
9, 18680, Note_on_c, 7, 81, 51
9, 18698, Note_on_c, 7, 81, 0
9, 18700, Note_on_c, 7, 76, 51
9, 18718, Note_on_c, 7, 76, 0
9, 18720, Note_on_c, 7, 72, 51
9, 18738, Note_on_c, 7, 72, 0
9, 18740, Note_on_c, 7, 69, 51
9, 18758, Note_on_c, 7, 69, 0
9, 18760, Note_on_c, 7, 65, 51
9, 18780, Note_on_c, 7, 65, 0
9, 18780, Note_on_c, 7, 64, 79
9, 18798, Note_on_c, 7, 64, 0
9, 18800, Note_on_c, 7, 65, 79
9, 18818, Note_on_c, 7, 65, 0
9, 18820, Note_on_c, 7, 69, 79
9, 18838, Note_on_c, 7, 69, 0
9, 18840, Note_on_c, 7, 72, 79
9, 18858, Note_on_c, 7, 72, 0
9, 18860, Note_on_c, 7, 76, 79
9, 18878, Note_on_c, 7, 76, 0
9, 18880, Note_on_c, 7, 81, 79
9, 18898, Note_on_c, 7, 81, 0
9, 18900, Note_on_c, 7, 83, 50
9, 18918, Note_on_c, 7, 83, 0
9, 18920, Note_on_c, 7, 81, 50
9, 18938, Note_on_c, 7, 81, 0
9, 18940, Note_on_c, 7, 76, 50
9, 18958, Note_on_c, 7, 76, 0
9, 18960, Note_on_c, 7, 72, 50
9, 18978, Note_on_c, 7, 72, 0
9, 18980, Note_on_c, 7, 69, 50
9, 18998, Note_on_c, 7, 69, 0
9, 19000, Note_on_c, 7, 65, 50
9, 19020, Note_on_c, 7, 65, 0
9, 19020, Note_on_c, 7, 64, 77
9, 19038, Note_on_c, 7, 64, 0
9, 19040, Note_on_c, 7, 65, 77
9, 19058, Note_on_c, 7, 65, 0
9, 19060, Note_on_c, 7, 69, 77
9, 19078, Note_on_c, 7, 69, 0
9, 19080, Note_on_c, 7, 72, 77
9, 19098, Note_on_c, 7, 72, 0
9, 19100, Note_on_c, 7, 76, 77
9, 19118, Note_on_c, 7, 76, 0
9, 19120, Note_on_c, 7, 81, 77
9, 19138, Note_on_c, 7, 81, 0
9, 19140, Note_on_c, 7, 83, 51
9, 19158, Note_on_c, 7, 83, 0
9, 19160, Note_on_c, 7, 81, 51
9, 19178, Note_on_c, 7, 81, 0
9, 19180, Note_on_c, 7, 76, 51
9, 19198, Note_on_c, 7, 76, 0
9, 20640, Note_on_c, 7, 80, 50
9, 20658, Note_on_c, 7, 80, 0
9, 20660, Note_on_c, 7, 78, 50
9, 20678, Note_on_c, 7, 78, 0
9, 20680, Note_on_c, 7, 75, 50
9, 20698, Note_on_c, 7, 75, 0
9, 20700, Note_on_c, 7, 73, 80
9, 20718, Note_on_c, 7, 73, 0
9, 20720, Note_on_c, 7, 75, 80
9, 20738, Note_on_c, 7, 75, 0
9, 20740, Note_on_c, 7, 78, 80
9, 20758, Note_on_c, 7, 78, 0
9, 20760, Note_on_c, 7, 80, 80
9, 20778, Note_on_c, 7, 80, 0
9, 20780, Note_on_c, 7, 85, 80
9, 20798, Note_on_c, 7, 85, 0
9, 20800, Note_on_c, 7, 87, 80
9, 20818, Note_on_c, 7, 87, 0
9, 20820, Note_on_c, 7, 89, 50
9, 20838, Note_on_c, 7, 89, 0
9, 20840, Note_on_c, 7, 87, 50
9, 20858, Note_on_c, 7, 87, 0
9, 20860, Note_on_c, 7, 85, 50
9, 20878, Note_on_c, 7, 85, 0
9, 20880, Note_on_c, 7, 80, 50
9, 20898, Note_on_c, 7, 80, 0
9, 20900, Note_on_c, 7, 78, 50
9, 20918, Note_on_c, 7, 78, 0
9, 20920, Note_on_c, 7, 75, 50
9, 20938, Note_on_c, 7, 75, 0
9, 20940, Note_on_c, 7, 73, 80
9, 20958, Note_on_c, 7, 73, 0
9, 20960, Note_on_c, 7, 75, 80
9, 20978, Note_on_c, 7, 75, 0
9, 20980, Note_on_c, 7, 78, 80
9, 20998, Note_on_c, 7, 78, 0
9, 21000, Note_on_c, 7, 80, 80
9, 21018, Note_on_c, 7, 80, 0
9, 21020, Note_on_c, 7, 85, 80
9, 21038, Note_on_c, 7, 85, 0
9, 21040, Note_on_c, 7, 87, 80
9, 21058, Note_on_c, 7, 87, 0
9, 21060, Note_on_c, 7, 89, 50
9, 21078, Note_on_c, 7, 89, 0
9, 21080, Note_on_c, 7, 87, 50
9, 21098, Note_on_c, 7, 87, 0
9, 21100, Note_on_c, 7, 85, 50
9, 21118, Note_on_c, 7, 85, 0
9, 21120, Note_on_c, 7, 80, 50
9, 21138, Note_on_c, 7, 80, 0
9, 21140, Note_on_c, 7, 78, 50
9, 21158, Note_on_c, 7, 78, 0
9, 21160, Note_on_c, 7, 75, 50
9, 21178, Note_on_c, 7, 75, 0
9, 21180, Note_on_c, 7, 73, 80
9, 21198, Note_on_c, 7, 73, 0
9, 21200, Note_on_c, 7, 75, 80
9, 21218, Note_on_c, 7, 75, 0
9, 21220, Note_on_c, 7, 78, 80
9, 21238, Note_on_c, 7, 78, 0
9, 21240, Note_on_c, 7, 80, 80
9, 21258, Note_on_c, 7, 80, 0
9, 21260, Note_on_c, 7, 85, 80
9, 21278, Note_on_c, 7, 85, 0
9, 21280, Note_on_c, 7, 87, 80
9, 21298, Note_on_c, 7, 87, 0
9, 21300, Note_on_c, 7, 89, 50
9, 21318, Note_on_c, 7, 89, 0
9, 21320, Note_on_c, 7, 87, 50
9, 21338, Note_on_c, 7, 87, 0
9, 21340, Note_on_c, 7, 85, 50
9, 21358, Note_on_c, 7, 85, 0
9, 21360, Note_on_c, 7, 80, 50
9, 21378, Note_on_c, 7, 80, 0
9, 21380, Note_on_c, 7, 78, 50
9, 21398, Note_on_c, 7, 78, 0
9, 21400, Note_on_c, 7, 75, 50
9, 21418, Note_on_c, 7, 75, 0
9, 21420, Note_on_c, 7, 73, 81
9, 21438, Note_on_c, 7, 73, 0
9, 21440, Note_on_c, 7, 75, 80
9, 21458, Note_on_c, 7, 75, 0
9, 21460, Note_on_c, 7, 78, 80
9, 21478, Note_on_c, 7, 78, 0
9, 21480, Note_on_c, 7, 80, 80
9, 21498, Note_on_c, 7, 80, 0
9, 21500, Note_on_c, 7, 85, 80
9, 21518, Note_on_c, 7, 85, 0
9, 21520, Note_on_c, 7, 87, 80
9, 21538, Note_on_c, 7, 87, 0
9, 21540, Note_on_c, 7, 89, 53
9, 21558, Note_on_c, 7, 89, 0
9, 21560, Note_on_c, 7, 87, 53
9, 21578, Note_on_c, 7, 87, 0
9, 21580, Note_on_c, 7, 85, 53
9, 21598, Note_on_c, 7, 85, 0
9, 21600, Note_on_c, 7, 74, 53
9, 21618, Note_on_c, 7, 74, 0
9, 21620, Note_on_c, 7, 71, 53
9, 21638, Note_on_c, 7, 71, 0
9, 21640, Note_on_c, 7, 69, 53
9, 21658, Note_on_c, 7, 69, 0
9, 21660, Note_on_c, 7, 66, 80
9, 21678, Note_on_c, 7, 66, 0
9, 21680, Note_on_c, 7, 69, 80
9, 21698, Note_on_c, 7, 69, 0
9, 21700, Note_on_c, 7, 71, 80
9, 21718, Note_on_c, 7, 71, 0
9, 21720, Note_on_c, 7, 74, 80
9, 21738, Note_on_c, 7, 74, 0
9, 21740, Note_on_c, 7, 78, 80
9, 21758, Note_on_c, 7, 78, 0
9, 21760, Note_on_c, 7, 83, 80
9, 21778, Note_on_c, 7, 83, 0
9, 21780, Note_on_c, 7, 85, 54
9, 21798, Note_on_c, 7, 85, 0
9, 21800, Note_on_c, 7, 83, 54
9, 21818, Note_on_c, 7, 83, 0
9, 21820, Note_on_c, 7, 78, 54
9, 21838, Note_on_c, 7, 78, 0
9, 21840, Note_on_c, 7, 74, 54
9, 21858, Note_on_c, 7, 74, 0
9, 21860, Note_on_c, 7, 71, 54
9, 21878, Note_on_c, 7, 71, 0
9, 21880, Note_on_c, 7, 69, 54
9, 21898, Note_on_c, 7, 69, 0
9, 21900, Note_on_c, 7, 66, 80
9, 21918, Note_on_c, 7, 66, 0
9, 21920, Note_on_c, 7, 69, 80
9, 21938, Note_on_c, 7, 69, 0
9, 21940, Note_on_c, 7, 71, 80
9, 21958, Note_on_c, 7, 71, 0
9, 21960, Note_on_c, 7, 74, 80
9, 21978, Note_on_c, 7, 74, 0
9, 21980, Note_on_c, 7, 78, 80
9, 21998, Note_on_c, 7, 78, 0
9, 22000, Note_on_c, 7, 83, 80
9, 22018, Note_on_c, 7, 83, 0
9, 22020, Note_on_c, 7, 85, 54
9, 22038, Note_on_c, 7, 85, 0
9, 22040, Note_on_c, 7, 83, 54
9, 22058, Note_on_c, 7, 83, 0
9, 22060, Note_on_c, 7, 78, 54
9, 22078, Note_on_c, 7, 78, 0
9, 22080, Note_on_c, 7, 74, 54
9, 22098, Note_on_c, 7, 74, 0
9, 22100, Note_on_c, 7, 71, 54
9, 22118, Note_on_c, 7, 71, 0
9, 22120, Note_on_c, 7, 69, 54
9, 22138, Note_on_c, 7, 69, 0
9, 22140, Note_on_c, 7, 66, 80
9, 22158, Note_on_c, 7, 66, 0
9, 22160, Note_on_c, 7, 69, 80
9, 22178, Note_on_c, 7, 69, 0
9, 22180, Note_on_c, 7, 71, 80
9, 22198, Note_on_c, 7, 71, 0
9, 22200, Note_on_c, 7, 74, 80
9, 22218, Note_on_c, 7, 74, 0
9, 22220, Note_on_c, 7, 78, 80
9, 22238, Note_on_c, 7, 78, 0
9, 22240, Note_on_c, 7, 83, 80
9, 22258, Note_on_c, 7, 83, 0
9, 22260, Note_on_c, 7, 85, 56
9, 22278, Note_on_c, 7, 85, 0
9, 22280, Note_on_c, 7, 83, 56
9, 22298, Note_on_c, 7, 83, 0
9, 22300, Note_on_c, 7, 78, 56
9, 22318, Note_on_c, 7, 78, 0
9, 22320, Note_on_c, 7, 74, 56
9, 22338, Note_on_c, 7, 74, 0
9, 22340, Note_on_c, 7, 71, 56
9, 22358, Note_on_c, 7, 71, 0
9, 22360, Note_on_c, 7, 69, 55
9, 22378, Note_on_c, 7, 69, 0
9, 22380, Note_on_c, 7, 66, 80
9, 22398, Note_on_c, 7, 66, 0
9, 22400, Note_on_c, 7, 69, 80
9, 22418, Note_on_c, 7, 69, 0
9, 22420, Note_on_c, 7, 71, 80
9, 22438, Note_on_c, 7, 71, 0
9, 22440, Note_on_c, 7, 74, 80
9, 22458, Note_on_c, 7, 74, 0
9, 22460, Note_on_c, 7, 78, 80
9, 22478, Note_on_c, 7, 78, 0
9, 22480, Note_on_c, 7, 83, 80
9, 22498, Note_on_c, 7, 83, 0
9, 22500, Note_on_c, 7, 85, 56
9, 22518, Note_on_c, 7, 85, 0
9, 22520, Note_on_c, 7, 83, 56
9, 22538, Note_on_c, 7, 83, 0
9, 22540, Note_on_c, 7, 78, 56
9, 22558, Note_on_c, 7, 78, 0
9, 22560, Note_on_c, 7, 78, 55
9, 22578, Note_on_c, 7, 78, 0
9, 22580, Note_on_c, 7, 75, 56
9, 22598, Note_on_c, 7, 75, 0
9, 22600, Note_on_c, 7, 71, 56
9, 22618, Note_on_c, 7, 71, 0
9, 22620, Note_on_c, 7, 66, 80
9, 22638, Note_on_c, 7, 66, 0
9, 22640, Note_on_c, 7, 71, 80
9, 22658, Note_on_c, 7, 71, 0
9, 22660, Note_on_c, 7, 75, 80
9, 22678, Note_on_c, 7, 75, 0
9, 22680, Note_on_c, 7, 78, 80
9, 22698, Note_on_c, 7, 78, 0
9, 22700, Note_on_c, 7, 83, 80
9, 22718, Note_on_c, 7, 83, 0
9, 22720, Note_on_c, 7, 85, 80
9, 22738, Note_on_c, 7, 85, 0
9, 22740, Note_on_c, 7, 87, 54
9, 22758, Note_on_c, 7, 87, 0
9, 22760, Note_on_c, 7, 85, 54
9, 22778, Note_on_c, 7, 85, 0
9, 22780, Note_on_c, 7, 83, 54
9, 22798, Note_on_c, 7, 83, 0
9, 22800, Note_on_c, 7, 78, 54
9, 22818, Note_on_c, 7, 78, 0
9, 22820, Note_on_c, 7, 75, 54
9, 22838, Note_on_c, 7, 75, 0
9, 22840, Note_on_c, 7, 71, 54
9, 22858, Note_on_c, 7, 71, 0
9, 22860, Note_on_c, 7, 66, 79
9, 22878, Note_on_c, 7, 66, 0
9, 22880, Note_on_c, 7, 71, 79
9, 22898, Note_on_c, 7, 71, 0
9, 22900, Note_on_c, 7, 75, 79
9, 22918, Note_on_c, 7, 75, 0
9, 22920, Note_on_c, 7, 78, 79
9, 22938, Note_on_c, 7, 78, 0
9, 22940, Note_on_c, 7, 83, 79
9, 22958, Note_on_c, 7, 83, 0
9, 22960, Note_on_c, 7, 85, 79
9, 22978, Note_on_c, 7, 85, 0
9, 22980, Note_on_c, 7, 87, 50
9, 22998, Note_on_c, 7, 87, 0
9, 23000, Note_on_c, 7, 85, 50
9, 23018, Note_on_c, 7, 85, 0
9, 23020, Note_on_c, 7, 83, 50
9, 23038, Note_on_c, 7, 83, 0
9, 23040, Note_on_c, 7, 78, 50
9, 23058, Note_on_c, 7, 78, 0
9, 23060, Note_on_c, 7, 75, 50
9, 23078, Note_on_c, 7, 75, 0
9, 23080, Note_on_c, 7, 71, 50
9, 23098, Note_on_c, 7, 71, 0
9, 23100, Note_on_c, 7, 66, 49
9, 23118, Note_on_c, 7, 66, 0
9, 23120, Note_on_c, 7, 71, 80
9, 23138, Note_on_c, 7, 71, 0
9, 23140, Note_on_c, 7, 75, 80
9, 23158, Note_on_c, 7, 75, 0
9, 23160, Note_on_c, 7, 78, 80
9, 23178, Note_on_c, 7, 78, 0
9, 23180, Note_on_c, 7, 83, 80
9, 23198, Note_on_c, 7, 83, 0
9, 23200, Note_on_c, 7, 85, 80
9, 23218, Note_on_c, 7, 85, 0
9, 23220, Note_on_c, 7, 87, 81
9, 23238, Note_on_c, 7, 87, 0
9, 23240, Note_on_c, 7, 85, 52
9, 23258, Note_on_c, 7, 85, 0
9, 23260, Note_on_c, 7, 83, 52
9, 23278, Note_on_c, 7, 83, 0
9, 23280, Note_on_c, 7, 78, 52
9, 23298, Note_on_c, 7, 78, 0
9, 23300, Note_on_c, 7, 75, 52
9, 23318, Note_on_c, 7, 75, 0
9, 23320, Note_on_c, 7, 71, 52
9, 23338, Note_on_c, 7, 71, 0
9, 23340, Note_on_c, 7, 66, 79
9, 23358, Note_on_c, 7, 66, 0
9, 23360, Note_on_c, 7, 71, 79
9, 23378, Note_on_c, 7, 71, 0
9, 23380, Note_on_c, 7, 75, 79
9, 23398, Note_on_c, 7, 75, 0
9, 23400, Note_on_c, 7, 78, 79
9, 23418, Note_on_c, 7, 78, 0
9, 23420, Note_on_c, 7, 83, 79
9, 23438, Note_on_c, 7, 83, 0
9, 23440, Note_on_c, 7, 85, 80
9, 23458, Note_on_c, 7, 85, 0
9, 23460, Note_on_c, 7, 87, 53
9, 23478, Note_on_c, 7, 87, 0
9, 23480, Note_on_c, 7, 85, 53
9, 23498, Note_on_c, 7, 85, 0
9, 23500, Note_on_c, 7, 83, 53
9, 23518, Note_on_c, 7, 83, 0
9, 23520, Note_on_c, 7, 78, 53
9, 23538, Note_on_c, 7, 78, 0
9, 23540, Note_on_c, 7, 75, 53
9, 23558, Note_on_c, 7, 75, 0
9, 23560, Note_on_c, 7, 71, 55
9, 23578, Note_on_c, 7, 71, 0
9, 23580, Note_on_c, 7, 66, 80
9, 23598, Note_on_c, 7, 66, 0
9, 23600, Note_on_c, 7, 71, 80
9, 23618, Note_on_c, 7, 71, 0
9, 23620, Note_on_c, 7, 75, 80
9, 23638, Note_on_c, 7, 75, 0
9, 23640, Note_on_c, 7, 78, 80
9, 23658, Note_on_c, 7, 78, 0
9, 23660, Note_on_c, 7, 83, 80
9, 23678, Note_on_c, 7, 83, 0
9, 23680, Note_on_c, 7, 85, 80
9, 23698, Note_on_c, 7, 85, 0
9, 23700, Note_on_c, 7, 87, 54
9, 23718, Note_on_c, 7, 87, 0
9, 23720, Note_on_c, 7, 85, 54
9, 23738, Note_on_c, 7, 85, 0
9, 23740, Note_on_c, 7, 83, 54
9, 23758, Note_on_c, 7, 83, 0
9, 23760, Note_on_c, 7, 78, 54
9, 23778, Note_on_c, 7, 78, 0
9, 23780, Note_on_c, 7, 75, 54
9, 23798, Note_on_c, 7, 75, 0
9, 23800, Note_on_c, 7, 71, 54
9, 23818, Note_on_c, 7, 71, 0
9, 23820, Note_on_c, 7, 66, 81
9, 23838, Note_on_c, 7, 66, 0
9, 23840, Note_on_c, 7, 71, 81
9, 23858, Note_on_c, 7, 71, 0
9, 23860, Note_on_c, 7, 75, 81
9, 23878, Note_on_c, 7, 75, 0
9, 23880, Note_on_c, 7, 78, 81
9, 23898, Note_on_c, 7, 78, 0
9, 23900, Note_on_c, 7, 83, 81
9, 23918, Note_on_c, 7, 83, 0
9, 23920, Note_on_c, 7, 85, 81
9, 23938, Note_on_c, 7, 85, 0
9, 23940, Note_on_c, 7, 87, 54
9, 23958, Note_on_c, 7, 87, 0
9, 23960, Note_on_c, 7, 85, 54
9, 23978, Note_on_c, 7, 85, 0
9, 23980, Note_on_c, 7, 83, 54
9, 23998, Note_on_c, 7, 83, 0
9, 24000, Note_on_c, 7, 78, 54
9, 24018, Note_on_c, 7, 78, 0
9, 24020, Note_on_c, 7, 75, 54
9, 24038, Note_on_c, 7, 75, 0
9, 24040, Note_on_c, 7, 71, 54
9, 24058, Note_on_c, 7, 71, 0
9, 24060, Note_on_c, 7, 66, 80
9, 24078, Note_on_c, 7, 66, 0
9, 24080, Note_on_c, 7, 71, 80
9, 24098, Note_on_c, 7, 71, 0
9, 24100, Note_on_c, 7, 75, 80
9, 24118, Note_on_c, 7, 75, 0
9, 24120, Note_on_c, 7, 78, 80
9, 24138, Note_on_c, 7, 78, 0
9, 24140, Note_on_c, 7, 83, 80
9, 24158, Note_on_c, 7, 83, 0
9, 24160, Note_on_c, 7, 85, 80
9, 24178, Note_on_c, 7, 85, 0
9, 24180, Note_on_c, 7, 87, 55
9, 24198, Note_on_c, 7, 87, 0
9, 24200, Note_on_c, 7, 85, 55
9, 24218, Note_on_c, 7, 85, 0
9, 24220, Note_on_c, 7, 83, 55
9, 24238, Note_on_c, 7, 83, 0
9, 24240, Note_on_c, 7, 78, 55
9, 24258, Note_on_c, 7, 78, 0
9, 24260, Note_on_c, 7, 75, 55
9, 24278, Note_on_c, 7, 75, 0
9, 24280, Note_on_c, 7, 71, 55
9, 24298, Note_on_c, 7, 71, 0
9, 24300, Note_on_c, 7, 66, 80
9, 24318, Note_on_c, 7, 66, 0
9, 24320, Note_on_c, 7, 71, 80
9, 24338, Note_on_c, 7, 71, 0
9, 24340, Note_on_c, 7, 75, 80
9, 24358, Note_on_c, 7, 75, 0
9, 24360, Note_on_c, 7, 78, 80
9, 24378, Note_on_c, 7, 78, 0
9, 24380, Note_on_c, 7, 83, 80
9, 24398, Note_on_c, 7, 83, 0
9, 24400, Note_on_c, 7, 85, 80
9, 24418, Note_on_c, 7, 85, 0
9, 24420, Note_on_c, 7, 87, 57
9, 24438, Note_on_c, 7, 87, 0
9, 24440, Note_on_c, 7, 85, 57
9, 24458, Note_on_c, 7, 85, 0
9, 24460, Note_on_c, 7, 83, 57
9, 24478, Note_on_c, 7, 83, 0
9, 24480, Note_on_c, 7, 78, 58
9, 24498, Note_on_c, 7, 78, 0
9, 24500, Note_on_c, 7, 73, 58
9, 24518, Note_on_c, 7, 73, 0
9, 24520, Note_on_c, 7, 69, 58
9, 24538, Note_on_c, 7, 69, 0
9, 24540, Note_on_c, 7, 66, 80
9, 24558, Note_on_c, 7, 66, 0
9, 24560, Note_on_c, 7, 69, 80
9, 24578, Note_on_c, 7, 69, 0
9, 24580, Note_on_c, 7, 73, 80
9, 24598, Note_on_c, 7, 73, 0
9, 24600, Note_on_c, 7, 78, 80
9, 24618, Note_on_c, 7, 78, 0
9, 24620, Note_on_c, 7, 81, 80
9, 24638, Note_on_c, 7, 81, 0
9, 24640, Note_on_c, 7, 83, 80
9, 24658, Note_on_c, 7, 83, 0
9, 24660, Note_on_c, 7, 85, 52
9, 24678, Note_on_c, 7, 85, 0
9, 24680, Note_on_c, 7, 83, 52
9, 24698, Note_on_c, 7, 83, 0
9, 24700, Note_on_c, 7, 81, 52
9, 24718, Note_on_c, 7, 81, 0
9, 24720, Note_on_c, 7, 78, 52
9, 24738, Note_on_c, 7, 78, 0
9, 24740, Note_on_c, 7, 73, 52
9, 24758, Note_on_c, 7, 73, 0
9, 24760, Note_on_c, 7, 69, 52
9, 24778, Note_on_c, 7, 69, 0
9, 24780, Note_on_c, 7, 66, 80
9, 24798, Note_on_c, 7, 66, 0
9, 24800, Note_on_c, 7, 69, 80
9, 24818, Note_on_c, 7, 69, 0
9, 24820, Note_on_c, 7, 73, 80
9, 24838, Note_on_c, 7, 73, 0
9, 24840, Note_on_c, 7, 78, 80
9, 24858, Note_on_c, 7, 78, 0
9, 24860, Note_on_c, 7, 81, 80
9, 24878, Note_on_c, 7, 81, 0
9, 24880, Note_on_c, 7, 83, 80
9, 24898, Note_on_c, 7, 83, 0
9, 24900, Note_on_c, 7, 85, 50
9, 24918, Note_on_c, 7, 85, 0
9, 24920, Note_on_c, 7, 83, 50
9, 24938, Note_on_c, 7, 83, 0
9, 24940, Note_on_c, 7, 81, 50
9, 24958, Note_on_c, 7, 81, 0
9, 24960, Note_on_c, 7, 78, 50
9, 24978, Note_on_c, 7, 78, 0
9, 24980, Note_on_c, 7, 73, 50
9, 24998, Note_on_c, 7, 73, 0
9, 25000, Note_on_c, 7, 69, 50
9, 25018, Note_on_c, 7, 69, 0
9, 25020, Note_on_c, 7, 66, 80
9, 25038, Note_on_c, 7, 66, 0
9, 25040, Note_on_c, 7, 69, 80
9, 25058, Note_on_c, 7, 69, 0
9, 25060, Note_on_c, 7, 73, 80
9, 25078, Note_on_c, 7, 73, 0
9, 25080, Note_on_c, 7, 78, 80
9, 25098, Note_on_c, 7, 78, 0
9, 25100, Note_on_c, 7, 81, 80
9, 25118, Note_on_c, 7, 81, 0
9, 25120, Note_on_c, 7, 83, 80
9, 25138, Note_on_c, 7, 83, 0
9, 25140, Note_on_c, 7, 85, 48
9, 25158, Note_on_c, 7, 85, 0
9, 25160, Note_on_c, 7, 83, 48
9, 25178, Note_on_c, 7, 83, 0
9, 25180, Note_on_c, 7, 81, 48
9, 25198, Note_on_c, 7, 81, 0
9, 25200, Note_on_c, 7, 78, 48
9, 25218, Note_on_c, 7, 78, 0
9, 25220, Note_on_c, 7, 73, 48
9, 25238, Note_on_c, 7, 73, 0
9, 25240, Note_on_c, 7, 69, 48
9, 25258, Note_on_c, 7, 69, 0
9, 25260, Note_on_c, 7, 66, 81
9, 25278, Note_on_c, 7, 66, 0
9, 25280, Note_on_c, 7, 69, 81
9, 25298, Note_on_c, 7, 69, 0
9, 25300, Note_on_c, 7, 73, 81
9, 25318, Note_on_c, 7, 73, 0
9, 25320, Note_on_c, 7, 78, 80
9, 25338, Note_on_c, 7, 78, 0
9, 25340, Note_on_c, 7, 81, 80
9, 25358, Note_on_c, 7, 81, 0
9, 25360, Note_on_c, 7, 83, 80
9, 25378, Note_on_c, 7, 83, 0
9, 25380, Note_on_c, 7, 85, 51
9, 25398, Note_on_c, 7, 85, 0
9, 25400, Note_on_c, 7, 83, 51
9, 25418, Note_on_c, 7, 83, 0
9, 25420, Note_on_c, 7, 81, 51
9, 25438, Note_on_c, 7, 81, 0
9, 25440, Note_on_c, 7, 78, 51
9, 25458, Note_on_c, 7, 78, 0
9, 25460, Note_on_c, 7, 73, 51
9, 25478, Note_on_c, 7, 73, 0
9, 25480, Note_on_c, 7, 69, 51
9, 25498, Note_on_c, 7, 69, 0
9, 25500, Note_on_c, 7, 66, 79
9, 25518, Note_on_c, 7, 66, 0
9, 25520, Note_on_c, 7, 69, 79
9, 25538, Note_on_c, 7, 69, 0
9, 25540, Note_on_c, 7, 73, 79
9, 25558, Note_on_c, 7, 73, 0
9, 25560, Note_on_c, 7, 78, 79
9, 25578, Note_on_c, 7, 78, 0
9, 25580, Note_on_c, 7, 81, 79
9, 25598, Note_on_c, 7, 81, 0
9, 25600, Note_on_c, 7, 83, 79
9, 25618, Note_on_c, 7, 83, 0
9, 25620, Note_on_c, 7, 85, 51
9, 25638, Note_on_c, 7, 85, 0
9, 25640, Note_on_c, 7, 83, 51
9, 25658, Note_on_c, 7, 83, 0
9, 25660, Note_on_c, 7, 81, 51
9, 25678, Note_on_c, 7, 81, 0
9, 25680, Note_on_c, 7, 78, 51
9, 25698, Note_on_c, 7, 78, 0
9, 25700, Note_on_c, 7, 73, 51
9, 25718, Note_on_c, 7, 73, 0
9, 25720, Note_on_c, 7, 69, 51
9, 25738, Note_on_c, 7, 69, 0
9, 25740, Note_on_c, 7, 66, 79
9, 25758, Note_on_c, 7, 66, 0
9, 25760, Note_on_c, 7, 69, 79
9, 25778, Note_on_c, 7, 69, 0
9, 25780, Note_on_c, 7, 73, 79
9, 25798, Note_on_c, 7, 73, 0
9, 25800, Note_on_c, 7, 78, 79
9, 25818, Note_on_c, 7, 78, 0
9, 25820, Note_on_c, 7, 81, 79
9, 25838, Note_on_c, 7, 81, 0
9, 25840, Note_on_c, 7, 83, 79
9, 25858, Note_on_c, 7, 83, 0
9, 25860, Note_on_c, 7, 85, 50
9, 25878, Note_on_c, 7, 85, 0
9, 25880, Note_on_c, 7, 83, 50
9, 25898, Note_on_c, 7, 83, 0
9, 25900, Note_on_c, 7, 81, 50
9, 25918, Note_on_c, 7, 81, 0
9, 25920, Note_on_c, 7, 78, 50
9, 25938, Note_on_c, 7, 78, 0
9, 25940, Note_on_c, 7, 73, 50
9, 25958, Note_on_c, 7, 73, 0
9, 25960, Note_on_c, 7, 69, 50
9, 25978, Note_on_c, 7, 69, 0
9, 25980, Note_on_c, 7, 66, 80
9, 25998, Note_on_c, 7, 66, 0
9, 26000, Note_on_c, 7, 69, 80
9, 26018, Note_on_c, 7, 69, 0
9, 26020, Note_on_c, 7, 73, 80
9, 26038, Note_on_c, 7, 73, 0
9, 26040, Note_on_c, 7, 78, 80
9, 26058, Note_on_c, 7, 78, 0
9, 26060, Note_on_c, 7, 81, 80
9, 26078, Note_on_c, 7, 81, 0
9, 26080, Note_on_c, 7, 83, 80
9, 26098, Note_on_c, 7, 83, 0
9, 26100, Note_on_c, 7, 85, 48
9, 26118, Note_on_c, 7, 85, 0
9, 26120, Note_on_c, 7, 83, 48
9, 26138, Note_on_c, 7, 83, 0
9, 26140, Note_on_c, 7, 81, 48
9, 26158, Note_on_c, 7, 81, 0
9, 26160, Note_on_c, 7, 78, 48
9, 26178, Note_on_c, 7, 78, 0
9, 26180, Note_on_c, 7, 73, 48
9, 26198, Note_on_c, 7, 73, 0
9, 26200, Note_on_c, 7, 69, 48
9, 26218, Note_on_c, 7, 69, 0
9, 26220, Note_on_c, 7, 66, 79
9, 26238, Note_on_c, 7, 66, 0
9, 26240, Note_on_c, 7, 69, 79
9, 26258, Note_on_c, 7, 69, 0
9, 26260, Note_on_c, 7, 73, 79
9, 26278, Note_on_c, 7, 73, 0
9, 26280, Note_on_c, 7, 78, 79
9, 26298, Note_on_c, 7, 78, 0
9, 26300, Note_on_c, 7, 81, 79
9, 26318, Note_on_c, 7, 81, 0
9, 26320, Note_on_c, 7, 83, 79
9, 26338, Note_on_c, 7, 83, 0
9, 26340, Note_on_c, 7, 85, 50
9, 26358, Note_on_c, 7, 85, 0
9, 26360, Note_on_c, 7, 83, 50
9, 26378, Note_on_c, 7, 83, 0
9, 26380, Note_on_c, 7, 78, 50
9, 26398, Note_on_c, 7, 78, 0
9, 26400, Note_on_c, 7, 74, 50
9, 26418, Note_on_c, 7, 74, 0
9, 26420, Note_on_c, 7, 71, 50
9, 26438, Note_on_c, 7, 71, 0
9, 26440, Note_on_c, 7, 67, 50
9, 26458, Note_on_c, 7, 67, 0
9, 26460, Note_on_c, 7, 64, 79
9, 26478, Note_on_c, 7, 64, 0
9, 26480, Note_on_c, 7, 67, 79
9, 26498, Note_on_c, 7, 67, 0
9, 26500, Note_on_c, 7, 71, 79
9, 26518, Note_on_c, 7, 71, 0
9, 26520, Note_on_c, 7, 74, 79
9, 26538, Note_on_c, 7, 74, 0
9, 26540, Note_on_c, 7, 78, 79
9, 26558, Note_on_c, 7, 78, 0
9, 26560, Note_on_c, 7, 83, 79
9, 26578, Note_on_c, 7, 83, 0
9, 26580, Note_on_c, 7, 85, 51
9, 26598, Note_on_c, 7, 85, 0
9, 26600, Note_on_c, 7, 83, 51
9, 26618, Note_on_c, 7, 83, 0
9, 26620, Note_on_c, 7, 78, 51
9, 26638, Note_on_c, 7, 78, 0
9, 26640, Note_on_c, 7, 74, 51
9, 26658, Note_on_c, 7, 74, 0
9, 26660, Note_on_c, 7, 71, 51
9, 26678, Note_on_c, 7, 71, 0
9, 26680, Note_on_c, 7, 67, 51
9, 26698, Note_on_c, 7, 67, 0
9, 26700, Note_on_c, 7, 64, 80
9, 26718, Note_on_c, 7, 64, 0
9, 26720, Note_on_c, 7, 67, 80
9, 26738, Note_on_c, 7, 67, 0
9, 26740, Note_on_c, 7, 71, 80
9, 26758, Note_on_c, 7, 71, 0
9, 26760, Note_on_c, 7, 74, 79
9, 26778, Note_on_c, 7, 74, 0
9, 26780, Note_on_c, 7, 78, 79
9, 26798, Note_on_c, 7, 78, 0
9, 26800, Note_on_c, 7, 83, 79
9, 26818, Note_on_c, 7, 83, 0
9, 26820, Note_on_c, 7, 85, 50
9, 26838, Note_on_c, 7, 85, 0
9, 26840, Note_on_c, 7, 83, 50
9, 26858, Note_on_c, 7, 83, 0
9, 26860, Note_on_c, 7, 78, 50
9, 26878, Note_on_c, 7, 78, 0
9, 26880, Note_on_c, 7, 74, 50
9, 26898, Note_on_c, 7, 74, 0
9, 26900, Note_on_c, 7, 71, 50
9, 26918, Note_on_c, 7, 71, 0
9, 26920, Note_on_c, 7, 67, 50
9, 26938, Note_on_c, 7, 67, 0
9, 26940, Note_on_c, 7, 64, 78
9, 26958, Note_on_c, 7, 64, 0
9, 26960, Note_on_c, 7, 67, 78
9, 26978, Note_on_c, 7, 67, 0
9, 26980, Note_on_c, 7, 71, 78
9, 26998, Note_on_c, 7, 71, 0
9, 27000, Note_on_c, 7, 74, 78
9, 27018, Note_on_c, 7, 74, 0
9, 27020, Note_on_c, 7, 78, 78
9, 27038, Note_on_c, 7, 78, 0
9, 27040, Note_on_c, 7, 83, 78
9, 27058, Note_on_c, 7, 83, 0
9, 27060, Note_on_c, 7, 85, 52
9, 27078, Note_on_c, 7, 85, 0
9, 27080, Note_on_c, 7, 83, 52
9, 27098, Note_on_c, 7, 83, 0
9, 27100, Note_on_c, 7, 78, 52
9, 27118, Note_on_c, 7, 78, 0
9, 27120, Note_on_c, 7, 74, 52
9, 27138, Note_on_c, 7, 74, 0
9, 27140, Note_on_c, 7, 71, 52
9, 27158, Note_on_c, 7, 71, 0
9, 27160, Note_on_c, 7, 67, 52
9, 27178, Note_on_c, 7, 67, 0
9, 27180, Note_on_c, 7, 64, 79
9, 27198, Note_on_c, 7, 64, 0
9, 27200, Note_on_c, 7, 67, 79
9, 27218, Note_on_c, 7, 67, 0
9, 27220, Note_on_c, 7, 71, 79
9, 27238, Note_on_c, 7, 71, 0
9, 27240, Note_on_c, 7, 74, 79
9, 27258, Note_on_c, 7, 74, 0
9, 27260, Note_on_c, 7, 78, 79
9, 27278, Note_on_c, 7, 78, 0
9, 27280, Note_on_c, 7, 83, 79
9, 27298, Note_on_c, 7, 83, 0
9, 27300, Note_on_c, 7, 85, 50
9, 27318, Note_on_c, 7, 85, 0
9, 27320, Note_on_c, 7, 83, 50
9, 27338, Note_on_c, 7, 83, 0
9, 27340, Note_on_c, 7, 78, 50
9, 27358, Note_on_c, 7, 78, 0
9, 27360, Note_on_c, 7, 74, 51
9, 27378, Note_on_c, 7, 74, 0
9, 27380, Note_on_c, 7, 71, 51
9, 27398, Note_on_c, 7, 71, 0
9, 27400, Note_on_c, 7, 67, 51
9, 27418, Note_on_c, 7, 67, 0
9, 27420, Note_on_c, 7, 64, 78
9, 27438, Note_on_c, 7, 64, 0
9, 27440, Note_on_c, 7, 67, 78
9, 27458, Note_on_c, 7, 67, 0
9, 27460, Note_on_c, 7, 71, 78
9, 27478, Note_on_c, 7, 71, 0
9, 27480, Note_on_c, 7, 74, 78
9, 27498, Note_on_c, 7, 74, 0
9, 27500, Note_on_c, 7, 78, 78
9, 27518, Note_on_c, 7, 78, 0
9, 27520, Note_on_c, 7, 83, 78
9, 27538, Note_on_c, 7, 83, 0
9, 27540, Note_on_c, 7, 85, 52
9, 27558, Note_on_c, 7, 85, 0
9, 27560, Note_on_c, 7, 83, 52
9, 27578, Note_on_c, 7, 83, 0
9, 27580, Note_on_c, 7, 78, 52
9, 27598, Note_on_c, 7, 78, 0
9, 27600, Note_on_c, 7, 74, 51
9, 27618, Note_on_c, 7, 74, 0
9, 27620, Note_on_c, 7, 71, 51
9, 27638, Note_on_c, 7, 71, 0
9, 27640, Note_on_c, 7, 67, 51
9, 27658, Note_on_c, 7, 67, 0
9, 27660, Note_on_c, 7, 64, 79
9, 27678, Note_on_c, 7, 64, 0
9, 27680, Note_on_c, 7, 67, 79
9, 27698, Note_on_c, 7, 67, 0
9, 27700, Note_on_c, 7, 71, 79
9, 27718, Note_on_c, 7, 71, 0
9, 27720, Note_on_c, 7, 74, 79
9, 27738, Note_on_c, 7, 74, 0
9, 27740, Note_on_c, 7, 78, 79
9, 27758, Note_on_c, 7, 78, 0
9, 27760, Note_on_c, 7, 83, 79
9, 27778, Note_on_c, 7, 83, 0
9, 27780, Note_on_c, 7, 85, 49
9, 27798, Note_on_c, 7, 85, 0
9, 27800, Note_on_c, 7, 83, 49
9, 27818, Note_on_c, 7, 83, 0
9, 27820, Note_on_c, 7, 78, 49
9, 27838, Note_on_c, 7, 78, 0
9, 27840, Note_on_c, 7, 74, 49
9, 27858, Note_on_c, 7, 74, 0
9, 27860, Note_on_c, 7, 71, 49
9, 27878, Note_on_c, 7, 71, 0
9, 27880, Note_on_c, 7, 67, 49
9, 27898, Note_on_c, 7, 67, 0
9, 27900, Note_on_c, 7, 64, 80
9, 27918, Note_on_c, 7, 64, 0
9, 27920, Note_on_c, 7, 67, 80
9, 27938, Note_on_c, 7, 67, 0
9, 27940, Note_on_c, 7, 71, 80
9, 27958, Note_on_c, 7, 71, 0
9, 27960, Note_on_c, 7, 74, 80
9, 27978, Note_on_c, 7, 74, 0
9, 27980, Note_on_c, 7, 78, 80
9, 27998, Note_on_c, 7, 78, 0
9, 28000, Note_on_c, 7, 83, 80
9, 28018, Note_on_c, 7, 83, 0
9, 28020, Note_on_c, 7, 85, 52
9, 28038, Note_on_c, 7, 85, 0
9, 28040, Note_on_c, 7, 83, 52
9, 28058, Note_on_c, 7, 83, 0
9, 28060, Note_on_c, 7, 78, 52
9, 28078, Note_on_c, 7, 78, 0
9, 28080, Note_on_c, 7, 74, 52
9, 28098, Note_on_c, 7, 74, 0
9, 28100, Note_on_c, 7, 71, 52
9, 28118, Note_on_c, 7, 71, 0
9, 28120, Note_on_c, 7, 67, 52
9, 28138, Note_on_c, 7, 67, 0
9, 28140, Note_on_c, 7, 64, 79
9, 28158, Note_on_c, 7, 64, 0
9, 28160, Note_on_c, 7, 67, 79
9, 28178, Note_on_c, 7, 67, 0
9, 28180, Note_on_c, 7, 71, 79
9, 28198, Note_on_c, 7, 71, 0
9, 28200, Note_on_c, 7, 74, 79
9, 28218, Note_on_c, 7, 74, 0
9, 28220, Note_on_c, 7, 78, 79
9, 28238, Note_on_c, 7, 78, 0
9, 28240, Note_on_c, 7, 83, 79
9, 28258, Note_on_c, 7, 83, 0
9, 28260, Note_on_c, 7, 83, 51
9, 28278, Note_on_c, 7, 83, 0
9, 28280, Note_on_c, 7, 81, 51
9, 28298, Note_on_c, 7, 81, 0
9, 28300, Note_on_c, 7, 76, 51
9, 28318, Note_on_c, 7, 76, 0
9, 28320, Note_on_c, 7, 72, 51
9, 28338, Note_on_c, 7, 72, 0
9, 28340, Note_on_c, 7, 69, 51
9, 28358, Note_on_c, 7, 69, 0
9, 28360, Note_on_c, 7, 65, 51
9, 28380, Note_on_c, 7, 65, 0
9, 28380, Note_on_c, 7, 64, 79
9, 28398, Note_on_c, 7, 64, 0
9, 28400, Note_on_c, 7, 65, 79
9, 28418, Note_on_c, 7, 65, 0
9, 28420, Note_on_c, 7, 69, 79
9, 28438, Note_on_c, 7, 69, 0
9, 28440, Note_on_c, 7, 72, 79
9, 28458, Note_on_c, 7, 72, 0
9, 28460, Note_on_c, 7, 76, 79
9, 28478, Note_on_c, 7, 76, 0
9, 28480, Note_on_c, 7, 81, 79
9, 28498, Note_on_c, 7, 81, 0
9, 28500, Note_on_c, 7, 83, 50
9, 28518, Note_on_c, 7, 83, 0
9, 28520, Note_on_c, 7, 81, 50
9, 28538, Note_on_c, 7, 81, 0
9, 28540, Note_on_c, 7, 76, 50
9, 28558, Note_on_c, 7, 76, 0
9, 28560, Note_on_c, 7, 72, 50
9, 28578, Note_on_c, 7, 72, 0
9, 28580, Note_on_c, 7, 69, 50
9, 28598, Note_on_c, 7, 69, 0
9, 28600, Note_on_c, 7, 65, 50
9, 28620, Note_on_c, 7, 65, 0
9, 28620, Note_on_c, 7, 64, 77
9, 28638, Note_on_c, 7, 64, 0
9, 28640, Note_on_c, 7, 65, 77
9, 28658, Note_on_c, 7, 65, 0
9, 28660, Note_on_c, 7, 69, 77
9, 28678, Note_on_c, 7, 69, 0
9, 28680, Note_on_c, 7, 72, 77
9, 28698, Note_on_c, 7, 72, 0
9, 28700, Note_on_c, 7, 76, 77
9, 28718, Note_on_c, 7, 76, 0
9, 28720, Note_on_c, 7, 81, 77
9, 28738, Note_on_c, 7, 81, 0
9, 28740, Note_on_c, 7, 83, 51
9, 28758, Note_on_c, 7, 83, 0
9, 28760, Note_on_c, 7, 81, 51
9, 28778, Note_on_c, 7, 81, 0
9, 28780, Note_on_c, 7, 76, 51
9, 28798, Note_on_c, 7, 76, 0
9, 28798, End_track
10, 0, Start_track
10, 0, Title_t, "A9-Glockenspiel"
10, 153, Control_c, 8, 91, 60
10, 154, Control_c, 8, 93, 30
10, 160, Control_c, 8, 0, 0
10, 161, Control_c, 8, 32, 3
10, 162, Program_c, 8, 9
10, 163, Control_c, 8, 7, 110
10, 163, Control_c, 8, 10, 64
10, 1440, Note_on_c, 8, 43, 124
10, 1920, Note_on_c, 8, 43, 0
10, 2400, Note_on_c, 8, 38, 124
10, 2880, Note_on_c, 8, 38, 0
10, 3360, Note_on_c, 8, 47, 124
10, 3840, Note_on_c, 8, 47, 0
10, 4320, Note_on_c, 8, 45, 124
10, 4800, Note_on_c, 8, 45, 0
10, 5280, Note_on_c, 8, 43, 124
10, 5760, Note_on_c, 8, 43, 0
10, 6240, Note_on_c, 8, 45, 123
10, 6720, Note_on_c, 8, 45, 0
10, 8160, Note_on_c, 8, 43, 123
10, 8640, Note_on_c, 8, 43, 0
10, 9120, Note_on_c, 8, 69, 97
10, 9240, Note_on_c, 8, 69, 0
10, 9360, Note_on_c, 8, 74, 97
10, 9480, Note_on_c, 8, 74, 0
10, 9600, Note_on_c, 8, 76, 97
10, 9720, Note_on_c, 8, 76, 0
10, 11040, Note_on_c, 8, 43, 123
10, 11520, Note_on_c, 8, 43, 0
10, 12000, Note_on_c, 8, 38, 123
10, 12480, Note_on_c, 8, 38, 0
10, 12960, Note_on_c, 8, 47, 123
10, 13440, Note_on_c, 8, 47, 0
10, 13920, Note_on_c, 8, 45, 123
10, 14400, Note_on_c, 8, 45, 0
10, 14880, Note_on_c, 8, 43, 123
10, 15360, Note_on_c, 8, 43, 0
10, 15840, Note_on_c, 8, 45, 123
10, 16320, Note_on_c, 8, 45, 0
10, 17760, Note_on_c, 8, 43, 123
10, 18240, Note_on_c, 8, 43, 0
10, 18720, Note_on_c, 8, 69, 98
10, 18840, Note_on_c, 8, 69, 0
10, 18960, Note_on_c, 8, 74, 98
10, 19080, Note_on_c, 8, 74, 0
10, 19200, Note_on_c, 8, 76, 98
10, 19320, Note_on_c, 8, 76, 0
10, 20640, Note_on_c, 8, 43, 123
10, 21120, Note_on_c, 8, 43, 0
10, 21600, Note_on_c, 8, 38, 123
10, 22080, Note_on_c, 8, 38, 0
10, 22560, Note_on_c, 8, 47, 123
10, 23040, Note_on_c, 8, 47, 0
10, 23520, Note_on_c, 8, 45, 123
10, 24000, Note_on_c, 8, 45, 0
10, 24480, Note_on_c, 8, 43, 123
10, 24960, Note_on_c, 8, 43, 0
10, 25440, Note_on_c, 8, 45, 123
10, 25920, Note_on_c, 8, 45, 0
10, 27360, Note_on_c, 8, 43, 123
10, 27840, Note_on_c, 8, 43, 0
10, 28320, Note_on_c, 8, 69, 98
10, 28440, Note_on_c, 8, 69, 0
10, 28560, Note_on_c, 8, 74, 98
10, 28680, Note_on_c, 8, 74, 0
10, 28800, Note_on_c, 8, 76, 98
10, 28920, Note_on_c, 8, 76, 0
10, 28920, End_track
11, 0, Start_track
11, 0, Title_t, "A10-STANDARD 1  "
11, 162, Control_c, 9, 91, 40
11, 163, Control_c, 9, 93, 0
11, 165, Control_c, 9, 0, 0
11, 166, Control_c, 9, 32, 3
11, 167, Program_c, 9, 0
11, 168, Control_c, 9, 7, 100
11, 168, Control_c, 9, 10, 64
11, 168, End_track
12, 0, Start_track
12, 0, Title_t, "A11-Santur      "
12, 170, Control_c, 10, 0, 0
12, 171, Control_c, 10, 32, 3
12, 171, Control_c, 10, 91, 60
12, 172, Program_c, 10, 15
12, 172, Control_c, 10, 93, 20
12, 173, Control_c, 10, 7, 90
12, 173, Control_c, 10, 10, 96
12, 173, Control_c, 10, 94, 10
12, 5760, Note_on_c, 10, 81, 88
12, 5820, Note_on_c, 10, 81, 0
12, 5840, Note_on_c, 10, 69, 75
12, 5900, Note_on_c, 10, 69, 0
12, 5920, Note_on_c, 10, 76, 101
12, 5980, Note_on_c, 10, 76, 0
12, 6000, Note_on_c, 10, 64, 86
12, 6060, Note_on_c, 10, 64, 0
12, 6080, Note_on_c, 10, 78, 115
12, 6140, Note_on_c, 10, 78, 0
12, 6160, Note_on_c, 10, 66, 94
12, 6220, Note_on_c, 10, 66, 0
12, 6240, Note_on_c, 10, 81, 118
12, 6300, Note_on_c, 10, 81, 0
12, 6320, Note_on_c, 10, 69, 99
12, 6380, Note_on_c, 10, 69, 0
12, 6400, Note_on_c, 10, 76, 117
12, 6460, Note_on_c, 10, 76, 0
12, 6480, Note_on_c, 10, 64, 99
12, 6540, Note_on_c, 10, 64, 0
12, 6560, Note_on_c, 10, 83, 116
12, 6620, Note_on_c, 10, 83, 0
12, 6640, Note_on_c, 10, 71, 99
12, 6700, Note_on_c, 10, 71, 0
12, 6720, Note_on_c, 10, 81, 116
12, 6780, Note_on_c, 10, 81, 0
12, 6800, Note_on_c, 10, 69, 99
12, 6860, Note_on_c, 10, 69, 0
12, 6880, Note_on_c, 10, 76, 115
12, 6940, Note_on_c, 10, 76, 0
12, 6960, Note_on_c, 10, 64, 99
12, 7020, Note_on_c, 10, 64, 0
12, 7040, Note_on_c, 10, 80, 116
12, 7100, Note_on_c, 10, 80, 0
12, 7120, Note_on_c, 10, 68, 99
12, 7180, Note_on_c, 10, 68, 0
12, 7200, Note_on_c, 10, 81, 116
12, 7260, Note_on_c, 10, 81, 0
12, 7280, Note_on_c, 10, 69, 99
12, 7340, Note_on_c, 10, 69, 0
12, 7360, Note_on_c, 10, 74, 116
12, 7420, Note_on_c, 10, 74, 0
12, 7440, Note_on_c, 10, 62, 99
12, 7500, Note_on_c, 10, 62, 0
12, 7520, Note_on_c, 10, 79, 116
12, 7580, Note_on_c, 10, 79, 0
12, 7600, Note_on_c, 10, 67, 99
12, 7660, Note_on_c, 10, 67, 0
12, 7680, Note_on_c, 10, 81, 116
12, 7740, Note_on_c, 10, 81, 0
12, 7760, Note_on_c, 10, 69, 99
12, 7820, Note_on_c, 10, 69, 0
12, 7840, Note_on_c, 10, 76, 116
12, 7900, Note_on_c, 10, 76, 0
12, 7920, Note_on_c, 10, 64, 99
12, 7980, Note_on_c, 10, 64, 0
12, 8000, Note_on_c, 10, 78, 116
12, 8060, Note_on_c, 10, 78, 0
12, 8080, Note_on_c, 10, 66, 99
12, 8140, Note_on_c, 10, 66, 0
12, 8160, Note_on_c, 10, 81, 116
12, 8220, Note_on_c, 10, 81, 0
12, 8240, Note_on_c, 10, 69, 99
12, 8300, Note_on_c, 10, 69, 0
12, 8320, Note_on_c, 10, 74, 116
12, 8380, Note_on_c, 10, 74, 0
12, 8400, Note_on_c, 10, 62, 99
12, 8460, Note_on_c, 10, 62, 0
12, 8480, Note_on_c, 10, 76, 116
12, 8540, Note_on_c, 10, 76, 0
12, 8560, Note_on_c, 10, 64, 99
12, 8620, Note_on_c, 10, 64, 0
12, 8640, Note_on_c, 10, 79, 116
12, 8700, Note_on_c, 10, 79, 0
12, 8720, Note_on_c, 10, 67, 99
12, 8780, Note_on_c, 10, 67, 0
12, 8800, Note_on_c, 10, 74, 116
12, 8860, Note_on_c, 10, 74, 0
12, 8880, Note_on_c, 10, 62, 99
12, 8940, Note_on_c, 10, 62, 0
12, 8960, Note_on_c, 10, 76, 116
12, 9020, Note_on_c, 10, 76, 0
12, 9040, Note_on_c, 10, 64, 99
12, 9100, Note_on_c, 10, 64, 0
12, 9120, Note_on_c, 10, 79, 116
12, 9180, Note_on_c, 10, 79, 0
12, 9200, Note_on_c, 10, 67, 99
12, 9260, Note_on_c, 10, 67, 0
12, 9280, Note_on_c, 10, 74, 107
12, 9340, Note_on_c, 10, 74, 0
12, 9360, Note_on_c, 10, 62, 91
12, 9420, Note_on_c, 10, 62, 0
12, 9440, Note_on_c, 10, 76, 77
12, 9500, Note_on_c, 10, 76, 0
12, 9520, Note_on_c, 10, 64, 86
12, 9580, Note_on_c, 10, 64, 0
12, 9600, Note_on_c, 10, 79, 93
12, 9660, Note_on_c, 10, 79, 0
12, 15360, Note_on_c, 10, 81, 88
12, 15420, Note_on_c, 10, 81, 0
12, 15440, Note_on_c, 10, 69, 75
12, 15500, Note_on_c, 10, 69, 0
12, 15520, Note_on_c, 10, 76, 101
12, 15580, Note_on_c, 10, 76, 0
12, 15600, Note_on_c, 10, 64, 86
12, 15660, Note_on_c, 10, 64, 0
12, 15680, Note_on_c, 10, 78, 115
12, 15740, Note_on_c, 10, 78, 0
12, 15760, Note_on_c, 10, 66, 94
12, 15820, Note_on_c, 10, 66, 0
12, 15840, Note_on_c, 10, 81, 118
12, 15900, Note_on_c, 10, 81, 0
12, 15920, Note_on_c, 10, 69, 99
12, 15980, Note_on_c, 10, 69, 0
12, 16000, Note_on_c, 10, 76, 117
12, 16060, Note_on_c, 10, 76, 0
12, 16080, Note_on_c, 10, 64, 99
12, 16140, Note_on_c, 10, 64, 0
12, 16160, Note_on_c, 10, 83, 116
12, 16220, Note_on_c, 10, 83, 0
12, 16240, Note_on_c, 10, 71, 99
12, 16300, Note_on_c, 10, 71, 0
12, 16320, Note_on_c, 10, 81, 116
12, 16380, Note_on_c, 10, 81, 0
12, 16400, Note_on_c, 10, 69, 99
12, 16460, Note_on_c, 10, 69, 0
12, 16480, Note_on_c, 10, 76, 115
12, 16540, Note_on_c, 10, 76, 0
12, 16560, Note_on_c, 10, 64, 99
12, 16620, Note_on_c, 10, 64, 0
12, 16640, Note_on_c, 10, 80, 116
12, 16700, Note_on_c, 10, 80, 0
12, 16720, Note_on_c, 10, 68, 99
12, 16780, Note_on_c, 10, 68, 0
12, 16800, Note_on_c, 10, 81, 116
12, 16860, Note_on_c, 10, 81, 0
12, 16880, Note_on_c, 10, 69, 99
12, 16940, Note_on_c, 10, 69, 0
12, 16960, Note_on_c, 10, 74, 116
12, 17020, Note_on_c, 10, 74, 0
12, 17040, Note_on_c, 10, 62, 99
12, 17100, Note_on_c, 10, 62, 0
12, 17120, Note_on_c, 10, 79, 116
12, 17180, Note_on_c, 10, 79, 0
12, 17200, Note_on_c, 10, 67, 99
12, 17260, Note_on_c, 10, 67, 0
12, 17280, Note_on_c, 10, 81, 116
12, 17340, Note_on_c, 10, 81, 0
12, 17360, Note_on_c, 10, 69, 99
12, 17420, Note_on_c, 10, 69, 0
12, 17440, Note_on_c, 10, 76, 116
12, 17500, Note_on_c, 10, 76, 0
12, 17520, Note_on_c, 10, 64, 99
12, 17580, Note_on_c, 10, 64, 0
12, 17600, Note_on_c, 10, 78, 116
12, 17660, Note_on_c, 10, 78, 0
12, 17680, Note_on_c, 10, 66, 99
12, 17740, Note_on_c, 10, 66, 0
12, 17760, Note_on_c, 10, 81, 116
12, 17820, Note_on_c, 10, 81, 0
12, 17840, Note_on_c, 10, 69, 99
12, 17900, Note_on_c, 10, 69, 0
12, 17920, Note_on_c, 10, 74, 116
12, 17980, Note_on_c, 10, 74, 0
12, 18000, Note_on_c, 10, 62, 99
12, 18060, Note_on_c, 10, 62, 0
12, 18080, Note_on_c, 10, 76, 116
12, 18140, Note_on_c, 10, 76, 0
12, 18160, Note_on_c, 10, 64, 99
12, 18220, Note_on_c, 10, 64, 0
12, 18240, Note_on_c, 10, 79, 116
12, 18300, Note_on_c, 10, 79, 0
12, 18320, Note_on_c, 10, 67, 99
12, 18380, Note_on_c, 10, 67, 0
12, 18400, Note_on_c, 10, 74, 116
12, 18460, Note_on_c, 10, 74, 0
12, 18480, Note_on_c, 10, 62, 99
12, 18540, Note_on_c, 10, 62, 0
12, 18560, Note_on_c, 10, 76, 116
12, 18620, Note_on_c, 10, 76, 0
12, 18640, Note_on_c, 10, 64, 99
12, 18700, Note_on_c, 10, 64, 0
12, 18720, Note_on_c, 10, 79, 116
12, 18780, Note_on_c, 10, 79, 0
12, 18800, Note_on_c, 10, 67, 99
12, 18860, Note_on_c, 10, 67, 0
12, 18880, Note_on_c, 10, 74, 116
12, 18940, Note_on_c, 10, 74, 0
12, 18960, Note_on_c, 10, 62, 99
12, 19020, Note_on_c, 10, 62, 0
12, 19040, Note_on_c, 10, 76, 116
12, 19100, Note_on_c, 10, 76, 0
12, 19120, Note_on_c, 10, 64, 99
12, 19180, Note_on_c, 10, 64, 0
12, 19200, Note_on_c, 10, 79, 127
12, 19260, Note_on_c, 10, 79, 0
12, 24960, Note_on_c, 10, 81, 88
12, 25020, Note_on_c, 10, 81, 0
12, 25040, Note_on_c, 10, 69, 75
12, 25100, Note_on_c, 10, 69, 0
12, 25120, Note_on_c, 10, 76, 101
12, 25180, Note_on_c, 10, 76, 0
12, 25200, Note_on_c, 10, 64, 86
12, 25260, Note_on_c, 10, 64, 0
12, 25280, Note_on_c, 10, 78, 115
12, 25340, Note_on_c, 10, 78, 0
12, 25360, Note_on_c, 10, 66, 94
12, 25420, Note_on_c, 10, 66, 0
12, 25440, Note_on_c, 10, 81, 118
12, 25500, Note_on_c, 10, 81, 0
12, 25520, Note_on_c, 10, 69, 99
12, 25580, Note_on_c, 10, 69, 0
12, 25600, Note_on_c, 10, 76, 117
12, 25660, Note_on_c, 10, 76, 0
12, 25680, Note_on_c, 10, 64, 99
12, 25740, Note_on_c, 10, 64, 0
12, 25760, Note_on_c, 10, 83, 116
12, 25820, Note_on_c, 10, 83, 0
12, 25840, Note_on_c, 10, 71, 99
12, 25900, Note_on_c, 10, 71, 0
12, 25920, Note_on_c, 10, 81, 116
12, 25980, Note_on_c, 10, 81, 0
12, 26000, Note_on_c, 10, 69, 99
12, 26060, Note_on_c, 10, 69, 0
12, 26080, Note_on_c, 10, 76, 115
12, 26140, Note_on_c, 10, 76, 0
12, 26160, Note_on_c, 10, 64, 99
12, 26220, Note_on_c, 10, 64, 0
12, 26240, Note_on_c, 10, 80, 116
12, 26300, Note_on_c, 10, 80, 0
12, 26320, Note_on_c, 10, 68, 99
12, 26380, Note_on_c, 10, 68, 0
12, 26400, Note_on_c, 10, 81, 116
12, 26460, Note_on_c, 10, 81, 0
12, 26480, Note_on_c, 10, 69, 99
12, 26540, Note_on_c, 10, 69, 0
12, 26560, Note_on_c, 10, 74, 116
12, 26620, Note_on_c, 10, 74, 0
12, 26640, Note_on_c, 10, 62, 99
12, 26700, Note_on_c, 10, 62, 0
12, 26720, Note_on_c, 10, 79, 116
12, 26780, Note_on_c, 10, 79, 0
12, 26800, Note_on_c, 10, 67, 99
12, 26860, Note_on_c, 10, 67, 0
12, 26880, Note_on_c, 10, 81, 116
12, 26940, Note_on_c, 10, 81, 0
12, 26960, Note_on_c, 10, 69, 99
12, 27020, Note_on_c, 10, 69, 0
12, 27040, Note_on_c, 10, 76, 116
12, 27100, Note_on_c, 10, 76, 0
12, 27120, Note_on_c, 10, 64, 99
12, 27180, Note_on_c, 10, 64, 0
12, 27200, Note_on_c, 10, 78, 116
12, 27260, Note_on_c, 10, 78, 0
12, 27280, Note_on_c, 10, 66, 99
12, 27340, Note_on_c, 10, 66, 0
12, 27360, Note_on_c, 10, 81, 116
12, 27420, Note_on_c, 10, 81, 0
12, 27440, Note_on_c, 10, 69, 99
12, 27500, Note_on_c, 10, 69, 0
12, 27520, Note_on_c, 10, 74, 116
12, 27580, Note_on_c, 10, 74, 0
12, 27600, Note_on_c, 10, 62, 99
12, 27660, Note_on_c, 10, 62, 0
12, 27680, Note_on_c, 10, 76, 116
12, 27740, Note_on_c, 10, 76, 0
12, 27760, Note_on_c, 10, 64, 99
12, 27820, Note_on_c, 10, 64, 0
12, 27840, Note_on_c, 10, 79, 116
12, 27900, Note_on_c, 10, 79, 0
12, 27920, Note_on_c, 10, 67, 99
12, 27980, Note_on_c, 10, 67, 0
12, 28000, Note_on_c, 10, 74, 116
12, 28060, Note_on_c, 10, 74, 0
12, 28080, Note_on_c, 10, 62, 99
12, 28140, Note_on_c, 10, 62, 0
12, 28160, Note_on_c, 10, 76, 116
12, 28220, Note_on_c, 10, 76, 0
12, 28240, Note_on_c, 10, 64, 99
12, 28300, Note_on_c, 10, 64, 0
12, 28320, Note_on_c, 10, 79, 116
12, 28380, Note_on_c, 10, 79, 0
12, 28400, Note_on_c, 10, 67, 99
12, 28460, Note_on_c, 10, 67, 0
12, 28480, Note_on_c, 10, 74, 116
12, 28540, Note_on_c, 10, 74, 0
12, 28560, Note_on_c, 10, 62, 99
12, 28620, Note_on_c, 10, 62, 0
12, 28640, Note_on_c, 10, 76, 116
12, 28700, Note_on_c, 10, 76, 0
12, 28720, Note_on_c, 10, 64, 99
12, 28780, Note_on_c, 10, 64, 0
12, 28800, Note_on_c, 10, 79, 127
12, 28860, Note_on_c, 10, 79, 0
12, 28860, End_track
13, 0, Start_track
13, 0, Title_t, "A12-Santur      "
13, 175, Control_c, 11, 0, 0
13, 176, Control_c, 11, 32, 3
13, 177, Program_c, 11, 15
13, 178, Control_c, 11, 7, 95
13, 178, Control_c, 11, 10, 22
13, 181, Control_c, 11, 91, 60
13, 182, Control_c, 11, 93, 20
13, 5760, Note_on_c, 11, 81, 88
13, 5820, Note_on_c, 11, 81, 0
13, 5840, Note_on_c, 11, 69, 75
13, 5900, Note_on_c, 11, 69, 0
13, 5920, Note_on_c, 11, 76, 101
13, 5980, Note_on_c, 11, 76, 0
13, 6000, Note_on_c, 11, 64, 86
13, 6060, Note_on_c, 11, 64, 0
13, 6080, Note_on_c, 11, 78, 113
13, 6140, Note_on_c, 11, 78, 0
13, 6160, Note_on_c, 11, 66, 113
13, 6220, Note_on_c, 11, 66, 0
13, 6240, Note_on_c, 11, 81, 113
13, 6300, Note_on_c, 11, 81, 0
13, 6320, Note_on_c, 11, 69, 113
13, 6380, Note_on_c, 11, 69, 0
13, 6400, Note_on_c, 11, 76, 113
13, 6460, Note_on_c, 11, 76, 0
13, 6480, Note_on_c, 11, 64, 113
13, 6540, Note_on_c, 11, 64, 0
13, 6560, Note_on_c, 11, 83, 113
13, 6620, Note_on_c, 11, 83, 0
13, 6640, Note_on_c, 11, 71, 113
13, 6700, Note_on_c, 11, 71, 0
13, 6720, Note_on_c, 11, 81, 113
13, 6780, Note_on_c, 11, 81, 0
13, 6800, Note_on_c, 11, 69, 113
13, 6860, Note_on_c, 11, 69, 0
13, 6880, Note_on_c, 11, 76, 113
13, 6940, Note_on_c, 11, 76, 0
13, 6960, Note_on_c, 11, 64, 113
13, 7020, Note_on_c, 11, 64, 0
13, 7040, Note_on_c, 11, 80, 114
13, 7100, Note_on_c, 11, 80, 0
13, 7120, Note_on_c, 11, 68, 114
13, 7180, Note_on_c, 11, 68, 0
13, 7200, Note_on_c, 11, 81, 114
13, 7260, Note_on_c, 11, 81, 0
13, 7280, Note_on_c, 11, 69, 114
13, 7340, Note_on_c, 11, 69, 0
13, 7360, Note_on_c, 11, 74, 114
13, 7420, Note_on_c, 11, 74, 0
13, 7440, Note_on_c, 11, 62, 114
13, 7500, Note_on_c, 11, 62, 0
13, 7520, Note_on_c, 11, 79, 114
13, 7580, Note_on_c, 11, 79, 0
13, 7600, Note_on_c, 11, 67, 114
13, 7660, Note_on_c, 11, 67, 0
13, 7680, Note_on_c, 11, 81, 114
13, 7740, Note_on_c, 11, 81, 0
13, 7760, Note_on_c, 11, 69, 114
13, 7820, Note_on_c, 11, 69, 0
13, 7840, Note_on_c, 11, 76, 114
13, 7900, Note_on_c, 11, 76, 0
13, 7920, Note_on_c, 11, 64, 115
13, 7980, Note_on_c, 11, 64, 0
13, 8000, Note_on_c, 11, 78, 115
13, 8060, Note_on_c, 11, 78, 0
13, 8080, Note_on_c, 11, 66, 115
13, 8140, Note_on_c, 11, 66, 0
13, 8160, Note_on_c, 11, 81, 115
13, 8220, Note_on_c, 11, 81, 0
13, 8240, Note_on_c, 11, 69, 115
13, 8300, Note_on_c, 11, 69, 0
13, 8320, Note_on_c, 11, 74, 115
13, 8380, Note_on_c, 11, 74, 0
13, 8400, Note_on_c, 11, 62, 115
13, 8460, Note_on_c, 11, 62, 0
13, 8480, Note_on_c, 11, 76, 115
13, 8540, Note_on_c, 11, 76, 0
13, 8560, Note_on_c, 11, 64, 115
13, 8620, Note_on_c, 11, 64, 0
13, 8640, Note_on_c, 11, 79, 115
13, 8700, Note_on_c, 11, 79, 0
13, 8720, Note_on_c, 11, 67, 115
13, 8780, Note_on_c, 11, 67, 0
13, 8800, Note_on_c, 11, 74, 115
13, 8860, Note_on_c, 11, 74, 0
13, 8880, Note_on_c, 11, 62, 116
13, 8940, Note_on_c, 11, 62, 0
13, 8960, Note_on_c, 11, 76, 116
13, 9020, Note_on_c, 11, 76, 0
13, 9040, Note_on_c, 11, 64, 116
13, 9100, Note_on_c, 11, 64, 0
13, 9120, Note_on_c, 11, 79, 116
13, 9180, Note_on_c, 11, 79, 0
13, 9200, Note_on_c, 11, 67, 113
13, 9260, Note_on_c, 11, 67, 0
13, 9280, Note_on_c, 11, 74, 109
13, 9340, Note_on_c, 11, 74, 0
13, 9360, Note_on_c, 11, 62, 106
13, 9420, Note_on_c, 11, 62, 0
13, 9440, Note_on_c, 11, 76, 103
13, 9500, Note_on_c, 11, 76, 0
13, 9520, Note_on_c, 11, 64, 100
13, 9580, Note_on_c, 11, 64, 0
13, 9600, Note_on_c, 11, 79, 96
13, 9660, Note_on_c, 11, 79, 0
13, 15360, Note_on_c, 11, 81, 88
13, 15420, Note_on_c, 11, 81, 0
13, 15440, Note_on_c, 11, 69, 75
13, 15500, Note_on_c, 11, 69, 0
13, 15520, Note_on_c, 11, 76, 101
13, 15580, Note_on_c, 11, 76, 0
13, 15600, Note_on_c, 11, 64, 86
13, 15660, Note_on_c, 11, 64, 0
13, 15680, Note_on_c, 11, 78, 113
13, 15740, Note_on_c, 11, 78, 0
13, 15760, Note_on_c, 11, 66, 113
13, 15820, Note_on_c, 11, 66, 0
13, 15840, Note_on_c, 11, 81, 113
13, 15900, Note_on_c, 11, 81, 0
13, 15920, Note_on_c, 11, 69, 113
13, 15980, Note_on_c, 11, 69, 0
13, 16000, Note_on_c, 11, 76, 113
13, 16060, Note_on_c, 11, 76, 0
13, 16080, Note_on_c, 11, 64, 113
13, 16140, Note_on_c, 11, 64, 0
13, 16160, Note_on_c, 11, 83, 113
13, 16220, Note_on_c, 11, 83, 0
13, 16240, Note_on_c, 11, 71, 113
13, 16300, Note_on_c, 11, 71, 0
13, 16320, Note_on_c, 11, 81, 113
13, 16380, Note_on_c, 11, 81, 0
13, 16400, Note_on_c, 11, 69, 113
13, 16460, Note_on_c, 11, 69, 0
13, 16480, Note_on_c, 11, 76, 113
13, 16540, Note_on_c, 11, 76, 0
13, 16560, Note_on_c, 11, 64, 113
13, 16620, Note_on_c, 11, 64, 0
13, 16640, Note_on_c, 11, 80, 114
13, 16700, Note_on_c, 11, 80, 0
13, 16720, Note_on_c, 11, 68, 114
13, 16780, Note_on_c, 11, 68, 0
13, 16800, Note_on_c, 11, 81, 114
13, 16860, Note_on_c, 11, 81, 0
13, 16880, Note_on_c, 11, 69, 114
13, 16940, Note_on_c, 11, 69, 0
13, 16960, Note_on_c, 11, 74, 114
13, 17020, Note_on_c, 11, 74, 0
13, 17040, Note_on_c, 11, 62, 114
13, 17100, Note_on_c, 11, 62, 0
13, 17120, Note_on_c, 11, 79, 114
13, 17180, Note_on_c, 11, 79, 0
13, 17200, Note_on_c, 11, 67, 114
13, 17260, Note_on_c, 11, 67, 0
13, 17280, Note_on_c, 11, 81, 114
13, 17340, Note_on_c, 11, 81, 0
13, 17360, Note_on_c, 11, 69, 114
13, 17420, Note_on_c, 11, 69, 0
13, 17440, Note_on_c, 11, 76, 114
13, 17500, Note_on_c, 11, 76, 0
13, 17520, Note_on_c, 11, 64, 115
13, 17580, Note_on_c, 11, 64, 0
13, 17600, Note_on_c, 11, 78, 115
13, 17660, Note_on_c, 11, 78, 0
13, 17680, Note_on_c, 11, 66, 115
13, 17740, Note_on_c, 11, 66, 0
13, 17760, Note_on_c, 11, 81, 115
13, 17820, Note_on_c, 11, 81, 0
13, 17840, Note_on_c, 11, 69, 115
13, 17900, Note_on_c, 11, 69, 0
13, 17920, Note_on_c, 11, 74, 115
13, 17980, Note_on_c, 11, 74, 0
13, 18000, Note_on_c, 11, 62, 115
13, 18060, Note_on_c, 11, 62, 0
13, 18080, Note_on_c, 11, 76, 115
13, 18140, Note_on_c, 11, 76, 0
13, 18160, Note_on_c, 11, 64, 115
13, 18220, Note_on_c, 11, 64, 0
13, 18240, Note_on_c, 11, 79, 115
13, 18300, Note_on_c, 11, 79, 0
13, 18320, Note_on_c, 11, 67, 115
13, 18380, Note_on_c, 11, 67, 0
13, 18400, Note_on_c, 11, 74, 115
13, 18460, Note_on_c, 11, 74, 0
13, 18480, Note_on_c, 11, 62, 116
13, 18540, Note_on_c, 11, 62, 0
13, 18560, Note_on_c, 11, 76, 116
13, 18620, Note_on_c, 11, 76, 0
13, 18640, Note_on_c, 11, 64, 116
13, 18700, Note_on_c, 11, 64, 0
13, 18720, Note_on_c, 11, 79, 116
13, 18780, Note_on_c, 11, 79, 0
13, 18800, Note_on_c, 11, 67, 116
13, 18860, Note_on_c, 11, 67, 0
13, 18880, Note_on_c, 11, 74, 116
13, 18940, Note_on_c, 11, 74, 0
13, 18960, Note_on_c, 11, 62, 116
13, 19020, Note_on_c, 11, 62, 0
13, 19040, Note_on_c, 11, 76, 116
13, 19100, Note_on_c, 11, 76, 0
13, 19120, Note_on_c, 11, 64, 116
13, 19180, Note_on_c, 11, 64, 0
13, 19200, Note_on_c, 11, 79, 116
13, 19260, Note_on_c, 11, 79, 0
13, 24960, Note_on_c, 11, 81, 88
13, 25020, Note_on_c, 11, 81, 0
13, 25040, Note_on_c, 11, 69, 75
13, 25100, Note_on_c, 11, 69, 0
13, 25120, Note_on_c, 11, 76, 101
13, 25180, Note_on_c, 11, 76, 0
13, 25200, Note_on_c, 11, 64, 86
13, 25260, Note_on_c, 11, 64, 0
13, 25280, Note_on_c, 11, 78, 113
13, 25340, Note_on_c, 11, 78, 0
13, 25360, Note_on_c, 11, 66, 113
13, 25420, Note_on_c, 11, 66, 0
13, 25440, Note_on_c, 11, 81, 113
13, 25500, Note_on_c, 11, 81, 0
13, 25520, Note_on_c, 11, 69, 113
13, 25580, Note_on_c, 11, 69, 0
13, 25600, Note_on_c, 11, 76, 113
13, 25660, Note_on_c, 11, 76, 0
13, 25680, Note_on_c, 11, 64, 113
13, 25740, Note_on_c, 11, 64, 0
13, 25760, Note_on_c, 11, 83, 113
13, 25820, Note_on_c, 11, 83, 0
13, 25840, Note_on_c, 11, 71, 113
13, 25900, Note_on_c, 11, 71, 0
13, 25920, Note_on_c, 11, 81, 113
13, 25980, Note_on_c, 11, 81, 0
13, 26000, Note_on_c, 11, 69, 113
13, 26060, Note_on_c, 11, 69, 0
13, 26080, Note_on_c, 11, 76, 113
13, 26140, Note_on_c, 11, 76, 0
13, 26160, Note_on_c, 11, 64, 113
13, 26220, Note_on_c, 11, 64, 0
13, 26240, Note_on_c, 11, 80, 114
13, 26300, Note_on_c, 11, 80, 0
13, 26320, Note_on_c, 11, 68, 114
13, 26380, Note_on_c, 11, 68, 0
13, 26400, Note_on_c, 11, 81, 114
13, 26460, Note_on_c, 11, 81, 0
13, 26480, Note_on_c, 11, 69, 114
13, 26540, Note_on_c, 11, 69, 0
13, 26560, Note_on_c, 11, 74, 114
13, 26620, Note_on_c, 11, 74, 0
13, 26640, Note_on_c, 11, 62, 114
13, 26700, Note_on_c, 11, 62, 0
13, 26720, Note_on_c, 11, 79, 114
13, 26780, Note_on_c, 11, 79, 0
13, 26800, Note_on_c, 11, 67, 114
13, 26860, Note_on_c, 11, 67, 0
13, 26880, Note_on_c, 11, 81, 114
13, 26940, Note_on_c, 11, 81, 0
13, 26960, Note_on_c, 11, 69, 114
13, 27020, Note_on_c, 11, 69, 0
13, 27040, Note_on_c, 11, 76, 114
13, 27100, Note_on_c, 11, 76, 0
13, 27120, Note_on_c, 11, 64, 115
13, 27180, Note_on_c, 11, 64, 0
13, 27200, Note_on_c, 11, 78, 115
13, 27260, Note_on_c, 11, 78, 0
13, 27280, Note_on_c, 11, 66, 115
13, 27340, Note_on_c, 11, 66, 0
13, 27360, Note_on_c, 11, 81, 115
13, 27420, Note_on_c, 11, 81, 0
13, 27440, Note_on_c, 11, 69, 115
13, 27500, Note_on_c, 11, 69, 0
13, 27520, Note_on_c, 11, 74, 115
13, 27580, Note_on_c, 11, 74, 0
13, 27600, Note_on_c, 11, 62, 115
13, 27660, Note_on_c, 11, 62, 0
13, 27680, Note_on_c, 11, 76, 115
13, 27740, Note_on_c, 11, 76, 0
13, 27760, Note_on_c, 11, 64, 115
13, 27820, Note_on_c, 11, 64, 0
13, 27840, Note_on_c, 11, 79, 115
13, 27900, Note_on_c, 11, 79, 0
13, 27920, Note_on_c, 11, 67, 115
13, 27980, Note_on_c, 11, 67, 0
13, 28000, Note_on_c, 11, 74, 115
13, 28060, Note_on_c, 11, 74, 0
13, 28080, Note_on_c, 11, 62, 116
13, 28140, Note_on_c, 11, 62, 0
13, 28160, Note_on_c, 11, 76, 116
13, 28220, Note_on_c, 11, 76, 0
13, 28240, Note_on_c, 11, 64, 116
13, 28300, Note_on_c, 11, 64, 0
13, 28320, Note_on_c, 11, 79, 116
13, 28380, Note_on_c, 11, 79, 0
13, 28400, Note_on_c, 11, 67, 116
13, 28460, Note_on_c, 11, 67, 0
13, 28480, Note_on_c, 11, 74, 116
13, 28540, Note_on_c, 11, 74, 0
13, 28560, Note_on_c, 11, 62, 116
13, 28620, Note_on_c, 11, 62, 0
13, 28640, Note_on_c, 11, 76, 116
13, 28700, Note_on_c, 11, 76, 0
13, 28720, Note_on_c, 11, 64, 116
13, 28780, Note_on_c, 11, 64, 0
13, 28800, Note_on_c, 11, 79, 116
13, 28860, Note_on_c, 11, 79, 0
13, 28860, End_track
14, 0, Start_track
14, 0, Title_t, "A13-Oboe        "
14, 180, Control_c, 12, 0, 0
14, 181, Control_c, 12, 32, 3
14, 182, Program_c, 12, 68
14, 183, Control_c, 12, 7, 90
14, 183, Control_c, 12, 10, 84
14, 190, Control_c, 12, 91, 60
14, 191, Control_c, 12, 93, 30
14, 9120, Note_on_c, 12, 64, 92
14, 9600, Note_on_c, 12, 79, 92
14, 9600, Note_on_c, 12, 74, 92
14, 9605, Control_c, 12, 11, 127
14, 9620, Control_c, 12, 11, 126
14, 9630, Control_c, 12, 11, 125
14, 9640, Control_c, 12, 11, 124
14, 9650, Control_c, 12, 11, 123
14, 9665, Control_c, 12, 11, 122
14, 9675, Control_c, 12, 11, 121
14, 9685, Control_c, 12, 11, 120
14, 9695, Control_c, 12, 11, 119
14, 9710, Control_c, 12, 11, 118
14, 9720, Control_c, 12, 11, 117
14, 9730, Control_c, 12, 11, 116
14, 9740, Control_c, 12, 11, 115
14, 9755, Control_c, 12, 11, 114
14, 9765, Control_c, 12, 11, 113
14, 9775, Control_c, 12, 11, 112
14, 9785, Control_c, 12, 11, 111
14, 9800, Control_c, 12, 11, 110
14, 9810, Control_c, 12, 11, 109
14, 9820, Control_c, 12, 11, 108
14, 9830, Control_c, 12, 11, 107
14, 9845, Control_c, 12, 11, 106
14, 9855, Control_c, 12, 11, 105
14, 9865, Control_c, 12, 11, 104
14, 9875, Control_c, 12, 11, 103
14, 9890, Control_c, 12, 11, 102
14, 9900, Control_c, 12, 11, 101
14, 9910, Control_c, 12, 11, 100
14, 9920, Control_c, 12, 11, 99
14, 9935, Control_c, 12, 11, 97
14, 9945, Control_c, 12, 11, 96
14, 9950, Control_c, 12, 11, 95
14, 9955, Control_c, 12, 11, 94
14, 9960, Control_c, 12, 11, 93
14, 9970, Control_c, 12, 11, 92
14, 9975, Control_c, 12, 11, 91
14, 9980, Control_c, 12, 11, 90
14, 9985, Control_c, 12, 11, 89
14, 9990, Control_c, 12, 11, 88
14, 10000, Control_c, 12, 11, 87
14, 10005, Control_c, 12, 11, 86
14, 10010, Control_c, 12, 11, 85
14, 10015, Control_c, 12, 11, 84
14, 10020, Control_c, 12, 11, 83
14, 10030, Control_c, 12, 11, 82
14, 10035, Control_c, 12, 11, 81
14, 10040, Control_c, 12, 11, 80
14, 10045, Control_c, 12, 11, 79
14, 10055, Control_c, 12, 11, 78
14, 10060, Control_c, 12, 11, 77
14, 10065, Control_c, 12, 11, 76
14, 10070, Control_c, 12, 11, 75
14, 10075, Control_c, 12, 11, 74
14, 10085, Control_c, 12, 11, 73
14, 10090, Control_c, 12, 11, 72
14, 10095, Control_c, 12, 11, 71
14, 10100, Control_c, 12, 11, 70
14, 10105, Control_c, 12, 11, 69
14, 10115, Control_c, 12, 11, 68
14, 10120, Control_c, 12, 11, 67
14, 10125, Control_c, 12, 11, 66
14, 10130, Control_c, 12, 11, 65
14, 10140, Control_c, 12, 11, 64
14, 10145, Control_c, 12, 11, 63
14, 10150, Control_c, 12, 11, 62
14, 10155, Control_c, 12, 11, 61
14, 10160, Control_c, 12, 11, 60
14, 10170, Control_c, 12, 11, 59
14, 10175, Control_c, 12, 11, 58
14, 10180, Control_c, 12, 11, 57
14, 10185, Control_c, 12, 11, 56
14, 10190, Control_c, 12, 11, 55
14, 10200, Control_c, 12, 11, 54
14, 10205, Control_c, 12, 11, 53
14, 10210, Control_c, 12, 11, 52
14, 10215, Control_c, 12, 11, 51
14, 10225, Control_c, 12, 11, 50
14, 10230, Control_c, 12, 11, 49
14, 10235, Control_c, 12, 11, 48
14, 10240, Control_c, 12, 11, 47
14, 10245, Control_c, 12, 11, 46
14, 10255, Control_c, 12, 11, 45
14, 10260, Control_c, 12, 11, 44
14, 10265, Control_c, 12, 11, 43
14, 10270, Control_c, 12, 11, 42
14, 10275, Control_c, 12, 11, 41
14, 10285, Control_c, 12, 11, 40
14, 10290, Control_c, 12, 11, 39
14, 10295, Control_c, 12, 11, 38
14, 10300, Control_c, 12, 11, 37
14, 10310, Control_c, 12, 11, 36
14, 10315, Control_c, 12, 11, 35
14, 10320, Control_c, 12, 11, 34
14, 10325, Control_c, 12, 11, 33
14, 10330, Control_c, 12, 11, 32
14, 10340, Control_c, 12, 11, 31
14, 10345, Control_c, 12, 11, 30
14, 10350, Control_c, 12, 11, 29
14, 10355, Control_c, 12, 11, 28
14, 10360, Control_c, 12, 11, 27
14, 10370, Control_c, 12, 11, 26
14, 10375, Control_c, 12, 11, 25
14, 10380, Control_c, 12, 11, 24
14, 10385, Control_c, 12, 11, 23
14, 10395, Control_c, 12, 11, 22
14, 10400, Control_c, 12, 11, 21
14, 10405, Control_c, 12, 11, 20
14, 10410, Control_c, 12, 11, 19
14, 10415, Control_c, 12, 11, 18
14, 10425, Control_c, 12, 11, 17
14, 10430, Control_c, 12, 11, 16
14, 10435, Control_c, 12, 11, 15
14, 10440, Note_on_c, 12, 74, 0
14, 10440, Note_on_c, 12, 79, 0
14, 10440, Note_on_c, 12, 64, 0
14, 10440, Control_c, 12, 11, 14
14, 10445, Control_c, 12, 11, 13
14, 11000, Control_c, 12, 11, 127
14, 18720, Note_on_c, 12, 64, 92
14, 19200, Note_on_c, 12, 79, 92
14, 19200, Note_on_c, 12, 74, 92
14, 19205, Control_c, 12, 11, 127
14, 19220, Control_c, 12, 11, 126
14, 19230, Control_c, 12, 11, 125
14, 19240, Control_c, 12, 11, 124
14, 19250, Control_c, 12, 11, 123
14, 19265, Control_c, 12, 11, 122
14, 19275, Control_c, 12, 11, 121
14, 19285, Control_c, 12, 11, 120
14, 19295, Control_c, 12, 11, 119
14, 19310, Control_c, 12, 11, 118
14, 19320, Control_c, 12, 11, 117
14, 19330, Control_c, 12, 11, 116
14, 19340, Control_c, 12, 11, 115
14, 19355, Control_c, 12, 11, 114
14, 19365, Control_c, 12, 11, 113
14, 19375, Control_c, 12, 11, 112
14, 19385, Control_c, 12, 11, 111
14, 19400, Control_c, 12, 11, 110
14, 19410, Control_c, 12, 11, 109
14, 19420, Control_c, 12, 11, 108
14, 19430, Control_c, 12, 11, 107
14, 19445, Control_c, 12, 11, 106
14, 19455, Control_c, 12, 11, 105
14, 19465, Control_c, 12, 11, 104
14, 19475, Control_c, 12, 11, 103
14, 19490, Control_c, 12, 11, 102
14, 19500, Control_c, 12, 11, 101
14, 19510, Control_c, 12, 11, 100
14, 19520, Control_c, 12, 11, 99
14, 19535, Control_c, 12, 11, 97
14, 19545, Control_c, 12, 11, 96
14, 19550, Control_c, 12, 11, 95
14, 19555, Control_c, 12, 11, 94
14, 19560, Control_c, 12, 11, 93
14, 19570, Control_c, 12, 11, 92
14, 19575, Control_c, 12, 11, 91
14, 19580, Control_c, 12, 11, 90
14, 19585, Control_c, 12, 11, 89
14, 19590, Control_c, 12, 11, 88
14, 19600, Control_c, 12, 11, 87
14, 19605, Control_c, 12, 11, 86
14, 19610, Control_c, 12, 11, 85
14, 19615, Control_c, 12, 11, 84
14, 19620, Control_c, 12, 11, 83
14, 19630, Control_c, 12, 11, 82
14, 19635, Control_c, 12, 11, 81
14, 19640, Control_c, 12, 11, 80
14, 19645, Control_c, 12, 11, 79
14, 19655, Control_c, 12, 11, 78
14, 19660, Control_c, 12, 11, 77
14, 19665, Control_c, 12, 11, 76
14, 19670, Control_c, 12, 11, 75
14, 19675, Control_c, 12, 11, 74
14, 19685, Control_c, 12, 11, 73
14, 19690, Control_c, 12, 11, 72
14, 19695, Control_c, 12, 11, 71
14, 19700, Control_c, 12, 11, 70
14, 19705, Control_c, 12, 11, 69
14, 19715, Control_c, 12, 11, 68
14, 19720, Control_c, 12, 11, 67
14, 19725, Control_c, 12, 11, 66
14, 19730, Control_c, 12, 11, 65
14, 19740, Control_c, 12, 11, 64
14, 19745, Control_c, 12, 11, 63
14, 19750, Control_c, 12, 11, 62
14, 19755, Control_c, 12, 11, 61
14, 19760, Control_c, 12, 11, 60
14, 19770, Control_c, 12, 11, 59
14, 19775, Control_c, 12, 11, 58
14, 19780, Control_c, 12, 11, 57
14, 19785, Control_c, 12, 11, 56
14, 19790, Control_c, 12, 11, 55
14, 19800, Control_c, 12, 11, 54
14, 19805, Control_c, 12, 11, 53
14, 19810, Control_c, 12, 11, 52
14, 19815, Control_c, 12, 11, 51
14, 19825, Control_c, 12, 11, 50
14, 19830, Control_c, 12, 11, 49
14, 19835, Control_c, 12, 11, 48
14, 19840, Control_c, 12, 11, 47
14, 19845, Control_c, 12, 11, 46
14, 19855, Control_c, 12, 11, 45
14, 19860, Control_c, 12, 11, 44
14, 19865, Control_c, 12, 11, 43
14, 19870, Control_c, 12, 11, 42
14, 19875, Control_c, 12, 11, 41
14, 19885, Control_c, 12, 11, 40
14, 19890, Control_c, 12, 11, 39
14, 19895, Control_c, 12, 11, 38
14, 19900, Control_c, 12, 11, 37
14, 19910, Control_c, 12, 11, 36
14, 19915, Control_c, 12, 11, 35
14, 19920, Control_c, 12, 11, 34
14, 19925, Control_c, 12, 11, 33
14, 19930, Control_c, 12, 11, 32
14, 19940, Control_c, 12, 11, 31
14, 19945, Control_c, 12, 11, 30
14, 19950, Control_c, 12, 11, 29
14, 19955, Control_c, 12, 11, 28
14, 19960, Control_c, 12, 11, 27
14, 19970, Control_c, 12, 11, 26
14, 19975, Control_c, 12, 11, 25
14, 19980, Control_c, 12, 11, 24
14, 19985, Control_c, 12, 11, 23
14, 19995, Control_c, 12, 11, 22
14, 20000, Control_c, 12, 11, 21
14, 20005, Control_c, 12, 11, 20
14, 20010, Control_c, 12, 11, 19
14, 20015, Control_c, 12, 11, 18
14, 20025, Control_c, 12, 11, 17
14, 20030, Control_c, 12, 11, 16
14, 20035, Control_c, 12, 11, 15
14, 20040, Note_on_c, 12, 74, 0
14, 20040, Note_on_c, 12, 79, 0
14, 20040, Note_on_c, 12, 64, 0
14, 20040, Control_c, 12, 11, 14
14, 20045, Control_c, 12, 11, 13
14, 20600, Control_c, 12, 11, 127
14, 28320, Note_on_c, 12, 64, 92
14, 28800, Note_on_c, 12, 79, 92
14, 28800, Note_on_c, 12, 74, 92
14, 28805, Control_c, 12, 11, 127
14, 28820, Control_c, 12, 11, 126
14, 28830, Control_c, 12, 11, 125
14, 28840, Control_c, 12, 11, 124
14, 28850, Control_c, 12, 11, 123
14, 28865, Control_c, 12, 11, 122
14, 28875, Control_c, 12, 11, 121
14, 28885, Control_c, 12, 11, 120
14, 28895, Control_c, 12, 11, 119
14, 28910, Control_c, 12, 11, 118
14, 28920, Control_c, 12, 11, 117
14, 28930, Control_c, 12, 11, 116
14, 28940, Control_c, 12, 11, 115
14, 28955, Control_c, 12, 11, 114
14, 28965, Control_c, 12, 11, 113
14, 28975, Control_c, 12, 11, 112
14, 28985, Control_c, 12, 11, 111
14, 29000, Control_c, 12, 11, 110
14, 29010, Control_c, 12, 11, 109
14, 29020, Control_c, 12, 11, 108
14, 29030, Control_c, 12, 11, 107
14, 29045, Control_c, 12, 11, 106
14, 29055, Control_c, 12, 11, 105
14, 29065, Control_c, 12, 11, 104
14, 29075, Control_c, 12, 11, 103
14, 29090, Control_c, 12, 11, 102
14, 29100, Control_c, 12, 11, 101
14, 29110, Control_c, 12, 11, 100
14, 29120, Control_c, 12, 11, 99
14, 29135, Control_c, 12, 11, 97
14, 29145, Control_c, 12, 11, 96
14, 29150, Control_c, 12, 11, 95
14, 29155, Control_c, 12, 11, 94
14, 29160, Control_c, 12, 11, 93
14, 29170, Control_c, 12, 11, 92
14, 29175, Control_c, 12, 11, 91
14, 29180, Control_c, 12, 11, 90
14, 29185, Control_c, 12, 11, 89
14, 29190, Control_c, 12, 11, 88
14, 29200, Control_c, 12, 11, 87
14, 29205, Control_c, 12, 11, 86
14, 29210, Control_c, 12, 11, 85
14, 29215, Control_c, 12, 11, 84
14, 29220, Control_c, 12, 11, 83
14, 29230, Control_c, 12, 11, 82
14, 29235, Control_c, 12, 11, 81
14, 29240, Control_c, 12, 11, 80
14, 29245, Control_c, 12, 11, 79
14, 29255, Control_c, 12, 11, 78
14, 29260, Control_c, 12, 11, 77
14, 29265, Control_c, 12, 11, 76
14, 29270, Control_c, 12, 11, 75
14, 29275, Control_c, 12, 11, 74
14, 29285, Control_c, 12, 11, 73
14, 29290, Control_c, 12, 11, 72
14, 29295, Control_c, 12, 11, 71
14, 29300, Control_c, 12, 11, 70
14, 29305, Control_c, 12, 11, 69
14, 29315, Control_c, 12, 11, 68
14, 29320, Control_c, 12, 11, 67
14, 29325, Control_c, 12, 11, 66
14, 29330, Control_c, 12, 11, 65
14, 29340, Control_c, 12, 11, 64
14, 29345, Control_c, 12, 11, 63
14, 29350, Control_c, 12, 11, 62
14, 29355, Control_c, 12, 11, 61
14, 29360, Control_c, 12, 11, 60
14, 29370, Control_c, 12, 11, 59
14, 29375, Control_c, 12, 11, 58
14, 29380, Control_c, 12, 11, 57
14, 29385, Control_c, 12, 11, 56
14, 29390, Control_c, 12, 11, 55
14, 29400, Control_c, 12, 11, 54
14, 29405, Control_c, 12, 11, 53
14, 29410, Control_c, 12, 11, 52
14, 29415, Control_c, 12, 11, 51
14, 29425, Control_c, 12, 11, 50
14, 29430, Control_c, 12, 11, 49
14, 29435, Control_c, 12, 11, 48
14, 29440, Control_c, 12, 11, 47
14, 29445, Control_c, 12, 11, 46
14, 29455, Control_c, 12, 11, 45
14, 29460, Control_c, 12, 11, 44
14, 29465, Control_c, 12, 11, 43
14, 29470, Control_c, 12, 11, 42
14, 29475, Control_c, 12, 11, 41
14, 29485, Control_c, 12, 11, 40
14, 29490, Control_c, 12, 11, 39
14, 29495, Control_c, 12, 11, 38
14, 29500, Control_c, 12, 11, 37
14, 29510, Control_c, 12, 11, 36
14, 29515, Control_c, 12, 11, 35
14, 29520, Control_c, 12, 11, 34
14, 29525, Control_c, 12, 11, 33
14, 29530, Control_c, 12, 11, 32
14, 29540, Control_c, 12, 11, 31
14, 29545, Control_c, 12, 11, 30
14, 29550, Control_c, 12, 11, 29
14, 29555, Control_c, 12, 11, 28
14, 29560, Control_c, 12, 11, 27
14, 29570, Control_c, 12, 11, 26
14, 29575, Control_c, 12, 11, 25
14, 29580, Control_c, 12, 11, 24
14, 29585, Control_c, 12, 11, 23
14, 29595, Control_c, 12, 11, 22
14, 29600, Control_c, 12, 11, 21
14, 29605, Control_c, 12, 11, 20
14, 29610, Control_c, 12, 11, 19
14, 29615, Control_c, 12, 11, 18
14, 29625, Control_c, 12, 11, 17
14, 29630, Control_c, 12, 11, 16
14, 29635, Control_c, 12, 11, 15
14, 29640, Note_on_c, 12, 74, 0
14, 29640, Note_on_c, 12, 79, 0
14, 29640, Note_on_c, 12, 64, 0
14, 29640, Control_c, 12, 11, 14
14, 29645, Control_c, 12, 11, 13
14, 29645, End_track
15, 0, Start_track
15, 0, Title_t, "A14-Piano 1     "
15, 185, Control_c, 13, 0, 0
15, 186, Control_c, 13, 32, 3
15, 187, Program_c, 13, 0
15, 188, Control_c, 13, 7, 100
15, 188, Control_c, 13, 10, 64
15, 199, Control_c, 13, 91, 40
15, 200, Control_c, 13, 93, 0
15, 200, End_track
16, 0, Start_track
16, 0, Title_t, "A15-Piano 1     "
16, 190, Control_c, 14, 0, 0
16, 191, Control_c, 14, 32, 3
16, 192, Program_c, 14, 0
16, 193, Control_c, 14, 7, 100
16, 193, Control_c, 14, 10, 64
16, 208, Control_c, 14, 91, 40
16, 209, Control_c, 14, 93, 0
16, 209, End_track
17, 0, Start_track
17, 0, Title_t, "A16-Piano 1     "
17, 195, Control_c, 15, 0, 0
17, 196, Control_c, 15, 32, 3
17, 197, Program_c, 15, 0
17, 198, Control_c, 15, 7, 100
17, 198, Control_c, 15, 10, 64
17, 217, Control_c, 15, 91, 40
17, 218, Control_c, 15, 93, 0
17, 218, End_track
0, 0, End_of_file
