0, 0, Header, 1, 3, 192
1, 0, Start_track
1, 0, Title_t, "Piano Introduction"
1, 0, Text_t, "By Final Fantasy X"
1, 0, Copyright_t, "Copyright © 2001 by JeffreyAtW"
1, 0, Copyright_t, "Copyright © 2001 by JeffreyAtW"
1, 0, Text_t, "Generated by NoteWorthy Composer"
1, 0, Tempo, 352941
1, 0, Time_signature, 6, 2, 24, 8
1, 12672, Tempo, 352941
1, 12768, Tempo, 350877
1, 12864, Tempo, 348837
1, 12960, Tempo, 346820
1, 13056, Tempo, 344827
1, 13152, Tempo, 342857
1, 13248, Tempo, 340909
1, 13344, Tempo, 338983
1, 13440, Tempo, 337078
1, 13536, Tempo, 335195
1, 13632, Tempo, 333333
1, 13728, Tempo, 331491
1, 13824, Tempo, 329670
1, 31104, Tempo, 329670
1, 31268, Tempo, 331491
1, 31433, Tempo, 333333
1, 31597, Tempo, 335195
1, 31762, Tempo, 337078
1, 31926, Tempo, 338983
1, 32091, Tempo, 340909
1, 32256, Tempo, 342857
1, 33408, Tempo, 342857
1, 33572, Tempo, 340909
1, 33737, Tempo, 338983
1, 33901, Tempo, 337078
1, 34066, Tempo, 335195
1, 34230, Tempo, 333333
1, 34395, Tempo, 331491
1, 34560, Tempo, 329670
1, 40320, Tempo, 329670
1, 40978, Tempo, 331491
1, 41636, Tempo, 333333
1, 42294, Tempo, 335195
1, 42953, Tempo, 337078
1, 43611, Tempo, 338983
1, 44269, Tempo, 340909
1, 44928, Tempo, 342857
1, 46080, Tempo, 363636
1, 46156, Tempo, 365853
1, 46233, Tempo, 368098
1, 46310, Tempo, 370370
1, 46387, Tempo, 372670
1, 46464, Tempo, 375000
1, 46540, Tempo, 377358
1, 46617, Tempo, 379746
1, 46694, Tempo, 382165
1, 46771, Tempo, 384615
1, 46848, Tempo, 387096
1, 46924, Tempo, 389610
1, 47001, Tempo, 392156
1, 47078, Tempo, 394736
1, 47155, Tempo, 397350
1, 47232, Tempo, 400000
1, 47232, End_track
2, 0, Start_track
2, 0, MIDI_port, 0
2, 0, Title_t, "Piano Introduction"
2, 0, Program_c, 0, 0
2, 0, Control_c, 0, 7, 127
2, 0, Control_c, 0, 10, 64
2, 0, Control_c, 0, 64, 127
2, 0, Note_on_c, 0, 88, 110
2, 192, Note_on_c, 0, 88, 0
2, 192, Note_on_c, 0, 76, 110
2, 384, Note_on_c, 0, 76, 0
2, 384, Note_on_c, 0, 79, 110
2, 576, Note_on_c, 0, 79, 0
2, 576, Note_on_c, 0, 83, 110
2, 768, Note_on_c, 0, 83, 0
2, 768, Note_on_c, 0, 88, 110
2, 960, Note_on_c, 0, 88, 0
2, 960, Note_on_c, 0, 86, 110
2, 960, Note_on_c, 0, 90, 110
2, 1152, Note_on_c, 0, 86, 0
2, 1152, Note_on_c, 0, 90, 0
2, 1152, Control_c, 0, 64, 0
2, 1152, Control_c, 0, 64, 127
2, 1152, Note_on_c, 0, 88, 110
2, 1152, Note_on_c, 0, 91, 110
2, 1920, Note_on_c, 0, 88, 0
2, 1920, Note_on_c, 0, 91, 0
2, 2304, Control_c, 0, 64, 0
2, 2304, Control_c, 0, 64, 127
2, 2304, Note_on_c, 0, 86, 110
2, 2496, Note_on_c, 0, 86, 0
2, 2496, Note_on_c, 0, 74, 110
2, 2688, Note_on_c, 0, 74, 0
2, 2688, Note_on_c, 0, 78, 110
2, 2880, Note_on_c, 0, 78, 0
2, 2880, Note_on_c, 0, 81, 110
2, 3072, Note_on_c, 0, 81, 0
2, 3072, Note_on_c, 0, 86, 110
2, 3264, Note_on_c, 0, 86, 0
2, 3264, Note_on_c, 0, 84, 110
2, 3264, Note_on_c, 0, 88, 110
2, 3456, Note_on_c, 0, 84, 0
2, 3456, Note_on_c, 0, 88, 0
2, 3456, Control_c, 0, 64, 0
2, 3456, Control_c, 0, 64, 127
2, 3456, Note_on_c, 0, 86, 110
2, 3456, Note_on_c, 0, 90, 110
2, 4224, Note_on_c, 0, 86, 0
2, 4224, Note_on_c, 0, 90, 0
2, 4608, Control_c, 0, 64, 0
2, 4608, Control_c, 0, 64, 127
2, 4608, Note_on_c, 0, 83, 110
2, 4992, Note_on_c, 0, 83, 0
2, 4992, Note_on_c, 0, 83, 110
2, 5376, Note_on_c, 0, 83, 0
2, 5376, Note_on_c, 0, 83, 110
2, 5760, Note_on_c, 0, 83, 0
2, 5760, Note_on_c, 0, 83, 110
2, 6144, Note_on_c, 0, 83, 0
2, 6144, Note_on_c, 0, 81, 110
2, 6528, Note_on_c, 0, 81, 0
2, 6720, Note_on_c, 0, 86, 110
2, 6912, Note_on_c, 0, 86, 0
2, 6912, Note_on_c, 0, 78, 110
2, 7680, Note_on_c, 0, 78, 0
2, 9216, Note_on_c, 0, 88, 110
2, 9600, Note_on_c, 0, 88, 0
2, 9600, Note_on_c, 0, 88, 110
2, 9984, Note_on_c, 0, 88, 0
2, 9984, Note_on_c, 0, 88, 110
2, 10368, Note_on_c, 0, 88, 0
2, 10368, Note_on_c, 0, 88, 110
2, 10752, Note_on_c, 0, 88, 0
2, 10752, Note_on_c, 0, 86, 110
2, 11136, Note_on_c, 0, 86, 0
2, 11328, Note_on_c, 0, 91, 110
2, 11520, Note_on_c, 0, 91, 0
2, 11520, Note_on_c, 0, 84, 110
2, 12288, Note_on_c, 0, 84, 0
2, 13824, Note_on_c, 0, 67, 110
2, 13824, Note_on_c, 0, 76, 110
2, 14400, Note_on_c, 0, 67, 0
2, 14400, Note_on_c, 0, 76, 0
2, 14400, Note_on_c, 0, 66, 110
2, 14400, Note_on_c, 0, 71, 110
2, 14592, Note_on_c, 0, 66, 0
2, 14592, Note_on_c, 0, 71, 0
2, 14592, Note_on_c, 0, 67, 110
2, 14592, Note_on_c, 0, 76, 110
2, 14784, Note_on_c, 0, 67, 0
2, 14784, Note_on_c, 0, 76, 0
2, 14784, Note_on_c, 0, 69, 110
2, 14784, Note_on_c, 0, 78, 110
2, 14976, Note_on_c, 0, 69, 0
2, 14976, Note_on_c, 0, 78, 0
2, 14976, Note_on_c, 0, 71, 110
2, 14976, Note_on_c, 0, 79, 110
2, 15360, Note_on_c, 0, 71, 0
2, 15360, Note_on_c, 0, 79, 0
2, 15360, Note_on_c, 0, 78, 110
2, 15744, Note_on_c, 0, 78, 0
2, 15744, Note_on_c, 0, 76, 110
2, 16128, Note_on_c, 0, 76, 0
2, 16128, Note_on_c, 0, 66, 110
2, 16128, Note_on_c, 0, 74, 110
2, 16704, Note_on_c, 0, 66, 0
2, 16704, Note_on_c, 0, 74, 0
2, 16704, Note_on_c, 0, 67, 110
2, 16704, Note_on_c, 0, 76, 110
2, 16896, Note_on_c, 0, 67, 0
2, 16896, Note_on_c, 0, 76, 0
2, 16896, Note_on_c, 0, 66, 110
2, 16896, Note_on_c, 0, 72, 110
2, 16896, Note_on_c, 0, 74, 110
2, 17280, Note_on_c, 0, 66, 0
2, 17280, Note_on_c, 0, 72, 0
2, 17280, Note_on_c, 0, 74, 0
2, 17280, Note_on_c, 0, 67, 110
2, 17280, Note_on_c, 0, 71, 110
2, 18048, Note_on_c, 0, 67, 0
2, 18048, Note_on_c, 0, 71, 0
2, 18432, Note_on_c, 0, 67, 110
2, 18432, Note_on_c, 0, 76, 110
2, 19008, Note_on_c, 0, 67, 0
2, 19008, Note_on_c, 0, 76, 0
2, 19008, Note_on_c, 0, 66, 110
2, 19008, Note_on_c, 0, 71, 110
2, 19200, Note_on_c, 0, 66, 0
2, 19200, Note_on_c, 0, 71, 0
2, 19200, Note_on_c, 0, 67, 110
2, 19200, Note_on_c, 0, 76, 110
2, 19392, Note_on_c, 0, 67, 0
2, 19392, Note_on_c, 0, 76, 0
2, 19392, Note_on_c, 0, 69, 110
2, 19392, Note_on_c, 0, 78, 110
2, 19584, Note_on_c, 0, 69, 0
2, 19584, Note_on_c, 0, 78, 0
2, 19584, Note_on_c, 0, 71, 110
2, 19584, Note_on_c, 0, 79, 110
2, 19968, Note_on_c, 0, 71, 0
2, 19968, Note_on_c, 0, 79, 0
2, 19968, Note_on_c, 0, 78, 110
2, 20352, Note_on_c, 0, 78, 0
2, 20352, Note_on_c, 0, 79, 110
2, 20736, Note_on_c, 0, 79, 0
2, 20736, Note_on_c, 0, 69, 110
2, 20736, Note_on_c, 0, 81, 110
2, 21312, Note_on_c, 0, 69, 0
2, 21312, Note_on_c, 0, 81, 0
2, 21312, Note_on_c, 0, 67, 110
2, 21312, Note_on_c, 0, 79, 110
2, 21504, Note_on_c, 0, 67, 0
2, 21504, Note_on_c, 0, 79, 0
2, 21504, Note_on_c, 0, 69, 110
2, 21504, Note_on_c, 0, 78, 110
2, 21504, Note_on_c, 0, 81, 110
2, 21888, Note_on_c, 0, 69, 0
2, 21888, Note_on_c, 0, 78, 0
2, 21888, Note_on_c, 0, 81, 0
2, 21888, Note_on_c, 0, 71, 110
2, 21888, Note_on_c, 0, 79, 110
2, 21888, Note_on_c, 0, 83, 110
2, 22272, Note_on_c, 0, 71, 0
2, 22272, Note_on_c, 0, 79, 0
2, 22272, Note_on_c, 0, 83, 0
2, 23040, Note_on_c, 0, 67, 110
2, 23040, Note_on_c, 0, 76, 110
2, 23616, Note_on_c, 0, 67, 0
2, 23616, Note_on_c, 0, 76, 0
2, 23616, Note_on_c, 0, 66, 110
2, 23616, Note_on_c, 0, 71, 110
2, 23808, Note_on_c, 0, 66, 0
2, 23808, Note_on_c, 0, 71, 0
2, 23808, Note_on_c, 0, 67, 110
2, 23808, Note_on_c, 0, 76, 110
2, 24000, Note_on_c, 0, 67, 0
2, 24000, Note_on_c, 0, 76, 0
2, 24000, Note_on_c, 0, 69, 110
2, 24000, Note_on_c, 0, 78, 110
2, 24192, Note_on_c, 0, 69, 0
2, 24192, Note_on_c, 0, 78, 0
2, 24192, Note_on_c, 0, 71, 110
2, 24192, Note_on_c, 0, 79, 110
2, 24576, Note_on_c, 0, 71, 0
2, 24576, Note_on_c, 0, 79, 0
2, 24576, Note_on_c, 0, 78, 110
2, 24960, Note_on_c, 0, 78, 0
2, 24960, Note_on_c, 0, 76, 110
2, 25344, Note_on_c, 0, 76, 0
2, 25344, Note_on_c, 0, 66, 110
2, 25344, Note_on_c, 0, 74, 110
2, 25920, Note_on_c, 0, 66, 0
2, 25920, Note_on_c, 0, 74, 0
2, 25920, Note_on_c, 0, 67, 110
2, 25920, Note_on_c, 0, 76, 110
2, 26112, Note_on_c, 0, 67, 0
2, 26112, Note_on_c, 0, 76, 0
2, 26112, Note_on_c, 0, 66, 110
2, 26112, Note_on_c, 0, 72, 110
2, 26112, Note_on_c, 0, 74, 110
2, 26496, Note_on_c, 0, 66, 0
2, 26496, Note_on_c, 0, 72, 0
2, 26496, Note_on_c, 0, 74, 0
2, 26496, Note_on_c, 0, 67, 110
2, 26496, Note_on_c, 0, 71, 110
2, 27264, Note_on_c, 0, 67, 0
2, 27264, Note_on_c, 0, 71, 0
2, 27264, Note_on_c, 0, 67, 110
2, 27456, Note_on_c, 0, 67, 0
2, 27456, Note_on_c, 0, 69, 110
2, 27648, Note_on_c, 0, 69, 0
2, 27648, Note_on_c, 0, 64, 110
2, 27648, Note_on_c, 0, 71, 110
2, 28032, Note_on_c, 0, 64, 0
2, 28032, Note_on_c, 0, 71, 0
2, 28032, Note_on_c, 0, 64, 110
2, 28032, Note_on_c, 0, 71, 110
2, 28416, Note_on_c, 0, 64, 0
2, 28416, Note_on_c, 0, 71, 0
2, 28416, Note_on_c, 0, 64, 110
2, 28416, Note_on_c, 0, 71, 110
2, 28800, Note_on_c, 0, 64, 0
2, 28800, Note_on_c, 0, 71, 0
2, 28800, Note_on_c, 0, 66, 110
2, 28800, Note_on_c, 0, 71, 110
2, 29184, Note_on_c, 0, 66, 0
2, 29184, Note_on_c, 0, 71, 0
2, 29184, Note_on_c, 0, 69, 110
2, 29568, Note_on_c, 0, 69, 0
2, 29568, Note_on_c, 0, 74, 110
2, 29952, Note_on_c, 0, 74, 0
2, 29952, Note_on_c, 0, 67, 110
2, 30528, Note_on_c, 0, 67, 0
2, 30528, Note_on_c, 0, 67, 110
2, 30720, Note_on_c, 0, 67, 0
2, 30720, Note_on_c, 0, 66, 110
2, 30912, Note_on_c, 0, 66, 0
2, 30912, Note_on_c, 0, 62, 110
2, 31104, Note_on_c, 0, 62, 0
2, 31104, Control_c, 0, 64, 0
2, 31104, Control_c, 0, 64, 127
2, 31104, Note_on_c, 0, 64, 110
2, 31680, Note_on_c, 0, 64, 0
2, 31680, Note_on_c, 0, 64, 110
2, 31872, Note_on_c, 0, 64, 0
2, 31872, Note_on_c, 0, 67, 110
2, 32064, Note_on_c, 0, 67, 0
2, 32064, Note_on_c, 0, 72, 110
2, 32256, Note_on_c, 0, 72, 0
2, 32256, Note_on_c, 0, 76, 110
2, 32448, Note_on_c, 0, 76, 0
2, 32448, Note_on_c, 0, 64, 110
2, 32640, Note_on_c, 0, 64, 0
2, 32640, Note_on_c, 0, 67, 110
2, 32832, Note_on_c, 0, 67, 0
2, 32832, Note_on_c, 0, 72, 110
2, 33024, Note_on_c, 0, 72, 0
2, 33024, Note_on_c, 0, 76, 110
2, 33216, Note_on_c, 0, 76, 0
2, 33216, Note_on_c, 0, 79, 110
2, 33408, Note_on_c, 0, 79, 0
2, 33408, Control_c, 0, 64, 0
2, 33408, Control_c, 0, 64, 127
2, 33408, Note_on_c, 0, 81, 110
2, 34176, Note_on_c, 0, 81, 0
2, 34176, Note_on_c, 0, 88, 110
2, 34560, Note_on_c, 0, 88, 0
2, 34560, Control_c, 0, 64, 0
2, 34560, Control_c, 0, 64, 127
2, 34560, Note_on_c, 0, 79, 110
2, 34560, Note_on_c, 0, 81, 110
2, 34560, Note_on_c, 0, 88, 110
2, 34944, Note_on_c, 0, 79, 0
2, 34944, Note_on_c, 0, 81, 0
2, 34944, Note_on_c, 0, 88, 0
2, 34944, Note_on_c, 0, 86, 110
2, 35328, Note_on_c, 0, 86, 0
2, 35328, Note_on_c, 0, 77, 110
2, 35328, Note_on_c, 0, 84, 110
2, 35712, Note_on_c, 0, 77, 0
2, 35712, Note_on_c, 0, 84, 0
2, 35712, Control_c, 0, 64, 0
2, 35712, Control_c, 0, 64, 127
2, 35712, Note_on_c, 0, 79, 110
2, 35712, Note_on_c, 0, 83, 110
2, 36480, Note_on_c, 0, 79, 0
2, 36480, Note_on_c, 0, 83, 0
2, 36480, Note_on_c, 0, 91, 110
2, 36768, Note_on_c, 0, 91, 0
2, 36768, Note_on_c, 0, 79, 110
2, 36816, Note_on_c, 0, 83, 110
2, 36864, Note_on_c, 0, 91, 110
2, 37248, Note_on_c, 0, 79, 0
2, 37248, Note_on_c, 0, 83, 0
2, 37248, Note_on_c, 0, 91, 0
2, 38016, Control_c, 0, 64, 0
2, 38016, Control_c, 0, 64, 127
2, 38016, Note_on_c, 0, 83, 110
2, 38784, Note_on_c, 0, 83, 0
2, 38784, Note_on_c, 0, 90, 110
2, 39072, Note_on_c, 0, 90, 0
2, 39072, Note_on_c, 0, 81, 110
2, 39120, Note_on_c, 0, 85, 110
2, 39168, Note_on_c, 0, 90, 110
2, 39552, Note_on_c, 0, 81, 0
2, 39552, Note_on_c, 0, 85, 0
2, 39552, Note_on_c, 0, 90, 0
2, 40320, Note_on_c, 0, 81, 110
2, 41088, Note_on_c, 0, 81, 0
2, 41088, Note_on_c, 0, 88, 110
2, 41376, Note_on_c, 0, 88, 0
2, 41376, Note_on_c, 0, 78, 110
2, 41424, Note_on_c, 0, 83, 110
2, 41472, Note_on_c, 0, 88, 110
2, 41856, Note_on_c, 0, 78, 0
2, 41856, Note_on_c, 0, 83, 0
2, 41856, Note_on_c, 0, 88, 0
2, 41856, Note_on_c, 0, 87, 110
2, 42240, Note_on_c, 0, 87, 0
2, 42624, Control_c, 0, 64, 0
2, 42624, Control_c, 0, 64, 127
2, 42624, Note_on_c, 0, 66, 110
2, 42624, Note_on_c, 0, 71, 110
2, 43392, Note_on_c, 0, 66, 0
2, 43392, Note_on_c, 0, 71, 0
2, 43392, Note_on_c, 0, 66, 110
2, 43392, Note_on_c, 0, 71, 110
2, 43392, Note_on_c, 0, 74, 110
2, 43392, Note_on_c, 0, 78, 110
2, 43776, Note_on_c, 0, 66, 0
2, 43776, Note_on_c, 0, 71, 0
2, 43776, Note_on_c, 0, 74, 0
2, 43776, Note_on_c, 0, 78, 0
2, 43776, Note_on_c, 0, 69, 110
2, 43776, Note_on_c, 0, 78, 110
2, 44160, Note_on_c, 0, 69, 0
2, 44160, Note_on_c, 0, 78, 0
2, 44160, Note_on_c, 0, 67, 110
2, 44160, Note_on_c, 0, 76, 110
2, 44544, Note_on_c, 0, 67, 0
2, 44544, Note_on_c, 0, 76, 0
2, 44544, Note_on_c, 0, 66, 110
2, 44544, Note_on_c, 0, 74, 110
2, 44928, Note_on_c, 0, 66, 0
2, 44928, Note_on_c, 0, 74, 0
2, 44928, Note_on_c, 0, 69, 110
2, 44928, Note_on_c, 0, 73, 110
2, 45696, Note_on_c, 0, 69, 0
2, 45696, Note_on_c, 0, 73, 0
2, 45696, Note_on_c, 0, 69, 110
2, 45696, Note_on_c, 0, 73, 110
2, 45696, Note_on_c, 0, 78, 110
2, 45696, Note_on_c, 0, 81, 110
2, 46080, Note_on_c, 0, 69, 0
2, 46080, Note_on_c, 0, 73, 0
2, 46080, Note_on_c, 0, 78, 0
2, 46080, Note_on_c, 0, 81, 0
2, 46080, Note_on_c, 0, 69, 110
2, 46080, Note_on_c, 0, 73, 110
2, 46080, Note_on_c, 0, 78, 110
2, 46080, Note_on_c, 0, 81, 110
2, 46464, Note_on_c, 0, 69, 0
2, 46464, Note_on_c, 0, 73, 0
2, 46464, Note_on_c, 0, 78, 0
2, 46464, Note_on_c, 0, 81, 0
2, 47232, Note_on_c, 0, 68, 110
2, 47232, Note_on_c, 0, 73, 110
2, 47232, Note_on_c, 0, 80, 110
2, 47616, Note_on_c, 0, 68, 0
2, 47616, Note_on_c, 0, 73, 0
2, 47616, Note_on_c, 0, 80, 0
2, 47616, Note_on_c, 0, 76, 110
2, 48000, Note_on_c, 0, 76, 0
2, 48000, Note_on_c, 0, 73, 110
2, 48384, Note_on_c, 0, 73, 0
2, 48384, Control_c, 0, 64, 0
2, 48384, Control_c, 0, 64, 127
2, 48384, Note_on_c, 0, 67, 110
2, 48384, Note_on_c, 0, 71, 110
2, 49152, Note_on_c, 0, 67, 0
2, 49152, Note_on_c, 0, 71, 0
2, 49152, Note_on_c, 0, 78, 110
2, 49536, Note_on_c, 0, 78, 0
2, 49536, Control_c, 0, 64, 0
2, 49536, Control_c, 0, 64, 127
2, 49536, Note_on_c, 0, 69, 110
2, 50112, Note_on_c, 0, 69, 0
2, 50112, Note_on_c, 0, 66, 110
2, 50304, Note_on_c, 0, 66, 0
2, 50304, Note_on_c, 0, 69, 110
2, 50688, Note_on_c, 0, 69, 0
2, 50688, Control_c, 0, 64, 0
2, 50688, Control_c, 0, 64, 127
2, 50688, Note_on_c, 0, 66, 110
2, 50688, Note_on_c, 0, 71, 110
2, 51456, Note_on_c, 0, 66, 0
2, 51456, Note_on_c, 0, 71, 0
2, 51456, End_track
3, 0, Start_track
3, 0, MIDI_port, 0
3, 0, Title_t, "Final Fantasy X"
3, 0, Program_c, 0, 0
3, 0, Control_c, 0, 7, 127
3, 0, Control_c, 0, 10, 64
3, 0, Note_on_c, 0, 64, 110
3, 0, Note_on_c, 0, 71, 110
3, 768, Note_on_c, 0, 64, 0
3, 768, Note_on_c, 0, 71, 0
3, 768, Note_on_c, 0, 62, 110
3, 1152, Note_on_c, 0, 62, 0
3, 1152, Note_on_c, 0, 60, 110
3, 1920, Note_on_c, 0, 60, 0
3, 2304, Note_on_c, 0, 62, 110
3, 2304, Note_on_c, 0, 69, 110
3, 3072, Note_on_c, 0, 62, 0
3, 3072, Note_on_c, 0, 69, 0
3, 3072, Note_on_c, 0, 60, 110
3, 3456, Note_on_c, 0, 60, 0
3, 3456, Note_on_c, 0, 59, 110
3, 4224, Note_on_c, 0, 59, 0
3, 4608, Note_on_c, 0, 60, 110
3, 4800, Note_on_c, 0, 67, 110
3, 4992, Note_on_c, 0, 67, 0
3, 4992, Note_on_c, 0, 74, 110
3, 5184, Note_on_c, 0, 74, 0
3, 5184, Note_on_c, 0, 72, 110
3, 5328, Note_on_c, 0, 60, 0
3, 5376, Note_on_c, 0, 72, 0
3, 5376, Note_on_c, 0, 76, 110
3, 5568, Note_on_c, 0, 76, 0
3, 5568, Note_on_c, 0, 78, 110
3, 5760, Note_on_c, 0, 78, 0
3, 5760, Control_c, 0, 64, 0
3, 5760, Control_c, 0, 64, 127
3, 5760, Note_on_c, 0, 72, 110
3, 5760, Note_on_c, 0, 76, 110
3, 5760, Note_on_c, 0, 79, 110
3, 6528, Note_on_c, 0, 72, 0
3, 6528, Note_on_c, 0, 76, 0
3, 6528, Note_on_c, 0, 79, 0
3, 6912, Control_c, 0, 64, 0
3, 6912, Control_c, 0, 64, 127
3, 6912, Note_on_c, 0, 59, 110
3, 7104, Note_on_c, 0, 66, 110
3, 7296, Note_on_c, 0, 66, 0
3, 7296, Note_on_c, 0, 71, 110
3, 7488, Note_on_c, 0, 71, 0
3, 7488, Note_on_c, 0, 73, 110
3, 7632, Note_on_c, 0, 59, 0
3, 7680, Note_on_c, 0, 73, 0
3, 7680, Note_on_c, 0, 74, 110
3, 7872, Note_on_c, 0, 74, 0
3, 7872, Note_on_c, 0, 78, 110
3, 8064, Note_on_c, 0, 78, 0
3, 8064, Note_on_c, 0, 83, 110
3, 8832, Note_on_c, 0, 83, 0
3, 9216, Control_c, 0, 64, 0
3, 9216, Control_c, 0, 64, 127
3, 9216, Note_on_c, 0, 57, 110
3, 9408, Note_on_c, 0, 64, 110
3, 9600, Note_on_c, 0, 64, 0
3, 9600, Note_on_c, 0, 71, 110
3, 9792, Note_on_c, 0, 71, 0
3, 9792, Note_on_c, 0, 69, 110
3, 9936, Note_on_c, 0, 57, 0
3, 9984, Note_on_c, 0, 69, 0
3, 9984, Note_on_c, 0, 72, 110
3, 10176, Note_on_c, 0, 72, 0
3, 10176, Note_on_c, 0, 74, 110
3, 10368, Note_on_c, 0, 74, 0
3, 10368, Control_c, 0, 64, 0
3, 10368, Control_c, 0, 64, 127
3, 10368, Note_on_c, 0, 69, 110
3, 10368, Note_on_c, 0, 72, 110
3, 10368, Note_on_c, 0, 76, 110
3, 10560, Note_on_c, 0, 69, 0
3, 10560, Note_on_c, 0, 72, 0
3, 10560, Note_on_c, 0, 76, 0
3, 11520, Control_c, 0, 64, 0
3, 11520, Control_c, 0, 64, 127
3, 11520, Note_on_c, 0, 53, 110
3, 11712, Note_on_c, 0, 60, 110
3, 11904, Note_on_c, 0, 60, 0
3, 11904, Note_on_c, 0, 65, 110
3, 12096, Note_on_c, 0, 65, 0
3, 12096, Note_on_c, 0, 67, 110
3, 12240, Note_on_c, 0, 53, 0
3, 12288, Note_on_c, 0, 67, 0
3, 12288, Note_on_c, 0, 69, 110
3, 12480, Note_on_c, 0, 69, 0
3, 12480, Note_on_c, 0, 72, 110
3, 12672, Note_on_c, 0, 72, 0
3, 12672, Note_on_c, 0, 77, 110
3, 12864, Note_on_c, 0, 77, 0
3, 12864, Note_on_c, 0, 72, 110
3, 13056, Note_on_c, 0, 72, 0
3, 13056, Note_on_c, 0, 77, 110
3, 13248, Note_on_c, 0, 77, 0
3, 13248, Note_on_c, 0, 79, 110
3, 13440, Note_on_c, 0, 79, 0
3, 13440, Note_on_c, 0, 81, 110
3, 13632, Note_on_c, 0, 81, 0
3, 13632, Note_on_c, 0, 84, 110
3, 13824, Note_on_c, 0, 84, 0
3, 13824, Control_c, 0, 64, 0
3, 13824, Control_c, 0, 64, 127
3, 13824, Note_on_c, 0, 52, 110
3, 14016, Note_on_c, 0, 59, 110
3, 14208, Note_on_c, 0, 59, 0
3, 14208, Note_on_c, 0, 64, 110
3, 14400, Note_on_c, 0, 64, 0
3, 14400, Note_on_c, 0, 66, 110
3, 14544, Note_on_c, 0, 52, 0
3, 14592, Note_on_c, 0, 66, 0
3, 14592, Note_on_c, 0, 67, 110
3, 14784, Note_on_c, 0, 67, 0
3, 14784, Note_on_c, 0, 69, 110
3, 14976, Note_on_c, 0, 69, 0
3, 14976, Control_c, 0, 64, 0
3, 14976, Control_c, 0, 64, 127
3, 14976, Note_on_c, 0, 60, 110
3, 15168, Note_on_c, 0, 60, 0
3, 15168, Note_on_c, 0, 67, 110
3, 15360, Note_on_c, 0, 67, 0
3, 15552, Note_on_c, 0, 66, 110
3, 15744, Note_on_c, 0, 66, 0
3, 15744, Note_on_c, 0, 64, 110
3, 15936, Note_on_c, 0, 64, 0
3, 15936, Note_on_c, 0, 60, 110
3, 16128, Note_on_c, 0, 60, 0
3, 16128, Control_c, 0, 64, 0
3, 16128, Control_c, 0, 64, 127
3, 16128, Note_on_c, 0, 50, 110
3, 16320, Note_on_c, 0, 57, 110
3, 16512, Note_on_c, 0, 57, 0
3, 16512, Note_on_c, 0, 62, 110
3, 16704, Note_on_c, 0, 62, 0
3, 16704, Note_on_c, 0, 64, 110
3, 16848, Note_on_c, 0, 50, 0
3, 16896, Note_on_c, 0, 64, 0
3, 16896, Note_on_c, 0, 69, 110
3, 17088, Note_on_c, 0, 69, 0
3, 17088, Note_on_c, 0, 60, 110
3, 17280, Note_on_c, 0, 60, 0
3, 17280, Control_c, 0, 64, 0
3, 17280, Control_c, 0, 64, 127
3, 17280, Note_on_c, 0, 43, 110
3, 17472, Note_on_c, 0, 50, 110
3, 17664, Note_on_c, 0, 50, 0
3, 17664, Note_on_c, 0, 55, 110
3, 17856, Note_on_c, 0, 55, 0
3, 17856, Note_on_c, 0, 57, 110
3, 18000, Note_on_c, 0, 43, 0
3, 18048, Note_on_c, 0, 57, 0
3, 18048, Note_on_c, 0, 59, 110
3, 18240, Note_on_c, 0, 59, 0
3, 18240, Note_on_c, 0, 62, 110
3, 18432, Note_on_c, 0, 62, 0
3, 18432, Control_c, 0, 64, 0
3, 18432, Control_c, 0, 64, 127
3, 18432, Note_on_c, 0, 52, 110
3, 18624, Note_on_c, 0, 59, 110
3, 18816, Note_on_c, 0, 59, 0
3, 18816, Note_on_c, 0, 64, 110
3, 19008, Note_on_c, 0, 64, 0
3, 19008, Note_on_c, 0, 66, 110
3, 19152, Note_on_c, 0, 52, 0
3, 19200, Note_on_c, 0, 66, 0
3, 19200, Note_on_c, 0, 67, 110
3, 19392, Note_on_c, 0, 67, 0
3, 19392, Note_on_c, 0, 69, 110
3, 19584, Note_on_c, 0, 69, 0
3, 19584, Control_c, 0, 64, 0
3, 19584, Control_c, 0, 64, 127
3, 19584, Note_on_c, 0, 60, 110
3, 19776, Note_on_c, 0, 60, 0
3, 19776, Note_on_c, 0, 67, 110
3, 19968, Note_on_c, 0, 67, 0
3, 20160, Note_on_c, 0, 66, 110
3, 20352, Note_on_c, 0, 66, 0
3, 20352, Note_on_c, 0, 64, 110
3, 20544, Note_on_c, 0, 64, 0
3, 20544, Note_on_c, 0, 60, 110
3, 20736, Note_on_c, 0, 60, 0
3, 20736, Control_c, 0, 64, 0
3, 20736, Control_c, 0, 64, 127
3, 20736, Note_on_c, 0, 50, 110
3, 20928, Note_on_c, 0, 57, 110
3, 21120, Note_on_c, 0, 57, 0
3, 21120, Note_on_c, 0, 62, 110
3, 21312, Note_on_c, 0, 62, 0
3, 21312, Note_on_c, 0, 64, 110
3, 21456, Note_on_c, 0, 50, 0
3, 21504, Note_on_c, 0, 64, 0
3, 21504, Note_on_c, 0, 66, 110
3, 21696, Note_on_c, 0, 66, 0
3, 21696, Note_on_c, 0, 60, 110
3, 21888, Note_on_c, 0, 60, 0
3, 21888, Control_c, 0, 64, 0
3, 21888, Control_c, 0, 64, 127
3, 21888, Note_on_c, 0, 43, 110
3, 22080, Note_on_c, 0, 50, 110
3, 22272, Note_on_c, 0, 50, 0
3, 22272, Note_on_c, 0, 55, 110
3, 22464, Note_on_c, 0, 55, 0
3, 22464, Note_on_c, 0, 57, 110
3, 22608, Note_on_c, 0, 43, 0
3, 22656, Note_on_c, 0, 57, 0
3, 22656, Note_on_c, 0, 59, 110
3, 22848, Note_on_c, 0, 59, 0
3, 22848, Note_on_c, 0, 62, 110
3, 23040, Note_on_c, 0, 62, 0
3, 23040, Control_c, 0, 64, 0
3, 23040, Control_c, 0, 64, 127
3, 23040, Note_on_c, 0, 52, 110
3, 23232, Note_on_c, 0, 59, 110
3, 23424, Note_on_c, 0, 59, 0
3, 23424, Note_on_c, 0, 64, 110
3, 23616, Note_on_c, 0, 64, 0
3, 23616, Note_on_c, 0, 66, 110
3, 23760, Note_on_c, 0, 52, 0
3, 23808, Note_on_c, 0, 66, 0
3, 23808, Note_on_c, 0, 67, 110
3, 24000, Note_on_c, 0, 67, 0
3, 24000, Note_on_c, 0, 69, 110
3, 24192, Note_on_c, 0, 69, 0
3, 24192, Control_c, 0, 64, 0
3, 24192, Control_c, 0, 64, 127
3, 24192, Note_on_c, 0, 60, 110
3, 24384, Note_on_c, 0, 60, 0
3, 24384, Note_on_c, 0, 67, 110
3, 24576, Note_on_c, 0, 67, 0
3, 24768, Note_on_c, 0, 66, 110
3, 24960, Note_on_c, 0, 66, 0
3, 24960, Note_on_c, 0, 64, 110
3, 25152, Note_on_c, 0, 64, 0
3, 25152, Note_on_c, 0, 60, 110
3, 25344, Note_on_c, 0, 60, 0
3, 25344, Control_c, 0, 64, 0
3, 25344, Control_c, 0, 64, 127
3, 25344, Note_on_c, 0, 50, 110
3, 25536, Note_on_c, 0, 57, 110
3, 25728, Note_on_c, 0, 57, 0
3, 25728, Note_on_c, 0, 62, 110
3, 25920, Note_on_c, 0, 62, 0
3, 25920, Note_on_c, 0, 64, 110
3, 26064, Note_on_c, 0, 50, 0
3, 26112, Note_on_c, 0, 64, 0
3, 26112, Note_on_c, 0, 69, 110
3, 26304, Note_on_c, 0, 69, 0
3, 26304, Note_on_c, 0, 60, 110
3, 26496, Note_on_c, 0, 60, 0
3, 26496, Control_c, 0, 64, 0
3, 26496, Control_c, 0, 64, 127
3, 26496, Note_on_c, 0, 43, 110
3, 26688, Note_on_c, 0, 50, 110
3, 26880, Note_on_c, 0, 50, 0
3, 26880, Note_on_c, 0, 55, 110
3, 27072, Note_on_c, 0, 55, 0
3, 27072, Note_on_c, 0, 57, 110
3, 27216, Note_on_c, 0, 43, 0
3, 27264, Note_on_c, 0, 57, 0
3, 27264, Note_on_c, 0, 59, 110
3, 27456, Note_on_c, 0, 59, 0
3, 27456, Note_on_c, 0, 62, 110
3, 27648, Note_on_c, 0, 62, 0
3, 27648, Control_c, 0, 64, 0
3, 27648, Control_c, 0, 64, 127
3, 27648, Note_on_c, 0, 48, 110
3, 27840, Note_on_c, 0, 55, 110
3, 28032, Note_on_c, 0, 55, 0
3, 28032, Note_on_c, 0, 60, 110
3, 28224, Note_on_c, 0, 60, 0
3, 28224, Note_on_c, 0, 55, 110
3, 28416, Note_on_c, 0, 48, 0
3, 28416, Note_on_c, 0, 55, 0
3, 28416, Note_on_c, 0, 59, 110
3, 28608, Note_on_c, 0, 59, 0
3, 28608, Note_on_c, 0, 55, 110
3, 28800, Note_on_c, 0, 55, 0
3, 28800, Control_c, 0, 64, 0
3, 28800, Control_c, 0, 64, 127
3, 28800, Note_on_c, 0, 50, 110
3, 29568, Note_on_c, 0, 50, 0
3, 29952, Note_on_c, 0, 45, 110
3, 30144, Note_on_c, 0, 52, 110
3, 30336, Note_on_c, 0, 52, 0
3, 30336, Note_on_c, 0, 57, 110
3, 30720, Note_on_c, 0, 45, 0
3, 30720, Note_on_c, 0, 57, 0
3, 30720, Note_on_c, 0, 54, 110
3, 30720, Note_on_c, 0, 59, 110
3, 31104, Note_on_c, 0, 54, 0
3, 31104, Note_on_c, 0, 59, 0
3, 31104, Note_on_c, 0, 48, 110
3, 31296, Note_on_c, 0, 55, 110
3, 31488, Note_on_c, 0, 55, 0
3, 31488, Note_on_c, 0, 60, 110
3, 31872, Note_on_c, 0, 48, 0
3, 32256, Note_on_c, 0, 60, 0
3, 33408, Note_on_c, 0, 57, 110
3, 33600, Note_on_c, 0, 64, 110
3, 33792, Note_on_c, 0, 64, 0
3, 33792, Note_on_c, 0, 69, 110
3, 33984, Note_on_c, 0, 69, 0
3, 33984, Note_on_c, 0, 71, 110
3, 34176, Note_on_c, 0, 57, 0
3, 34176, Note_on_c, 0, 71, 0
3, 34176, Note_on_c, 0, 72, 110
3, 34368, Note_on_c, 0, 72, 0
3, 34368, Note_on_c, 0, 76, 110
3, 34560, Note_on_c, 0, 76, 0
3, 34560, Note_on_c, 0, 53, 110
3, 34752, Note_on_c, 0, 60, 110
3, 34944, Note_on_c, 0, 60, 0
3, 34944, Note_on_c, 0, 65, 110
3, 35136, Note_on_c, 0, 65, 0
3, 35136, Note_on_c, 0, 67, 110
3, 35328, Note_on_c, 0, 53, 0
3, 35328, Note_on_c, 0, 67, 0
3, 35328, Note_on_c, 0, 69, 110
3, 35520, Note_on_c, 0, 69, 0
3, 35520, Note_on_c, 0, 72, 110
3, 35712, Note_on_c, 0, 72, 0
3, 35712, Note_on_c, 0, 55, 110
3, 35904, Note_on_c, 0, 62, 110
3, 36096, Note_on_c, 0, 62, 0
3, 36096, Note_on_c, 0, 67, 110
3, 36288, Note_on_c, 0, 67, 0
3, 36288, Note_on_c, 0, 69, 110
3, 36480, Note_on_c, 0, 55, 0
3, 36480, Note_on_c, 0, 69, 0
3, 36480, Note_on_c, 0, 71, 110
3, 36672, Note_on_c, 0, 71, 0
3, 36672, Note_on_c, 0, 74, 110
3, 36864, Note_on_c, 0, 74, 0
3, 36864, Control_c, 0, 64, 0
3, 36864, Control_c, 0, 64, 127
3, 36864, Note_on_c, 0, 52, 110
3, 37056, Note_on_c, 0, 59, 110
3, 37248, Note_on_c, 0, 59, 0
3, 37248, Note_on_c, 0, 64, 110
3, 37440, Note_on_c, 0, 64, 0
3, 37440, Note_on_c, 0, 66, 110
3, 37632, Note_on_c, 0, 52, 0
3, 37632, Note_on_c, 0, 66, 0
3, 37632, Note_on_c, 0, 67, 110
3, 37824, Note_on_c, 0, 67, 0
3, 37824, Note_on_c, 0, 71, 110
3, 38016, Note_on_c, 0, 71, 0
3, 38016, Note_on_c, 0, 59, 110
3, 38208, Note_on_c, 0, 66, 110
3, 38400, Note_on_c, 0, 66, 0
3, 38400, Note_on_c, 0, 71, 110
3, 38592, Note_on_c, 0, 71, 0
3, 38592, Note_on_c, 0, 73, 110
3, 38784, Note_on_c, 0, 59, 0
3, 38784, Note_on_c, 0, 73, 0
3, 38784, Note_on_c, 0, 74, 110
3, 38976, Note_on_c, 0, 74, 0
3, 38976, Note_on_c, 0, 76, 110
3, 39168, Note_on_c, 0, 76, 0
3, 39168, Control_c, 0, 64, 0
3, 39168, Control_c, 0, 64, 127
3, 39168, Note_on_c, 0, 66, 110
3, 39936, Note_on_c, 0, 66, 0
3, 40320, Control_c, 0, 64, 0
3, 40320, Control_c, 0, 64, 127
3, 40320, Note_on_c, 0, 57, 110
3, 40512, Note_on_c, 0, 64, 110
3, 40704, Note_on_c, 0, 64, 0
3, 40704, Note_on_c, 0, 69, 110
3, 40896, Note_on_c, 0, 69, 0
3, 40896, Note_on_c, 0, 71, 110
3, 41088, Note_on_c, 0, 57, 0
3, 41088, Note_on_c, 0, 71, 0
3, 41088, Note_on_c, 0, 72, 110
3, 41280, Note_on_c, 0, 72, 0
3, 41280, Note_on_c, 0, 69, 110
3, 41472, Note_on_c, 0, 69, 0
3, 41472, Control_c, 0, 64, 0
3, 41472, Control_c, 0, 64, 127
3, 41472, Note_on_c, 0, 59, 110
3, 42240, Note_on_c, 0, 59, 0
3, 42240, Note_on_c, 0, 59, 110
3, 42432, Note_on_c, 0, 59, 0
3, 42432, Note_on_c, 0, 57, 110
3, 42624, Note_on_c, 0, 57, 0
3, 42624, Note_on_c, 0, 47, 110
3, 42816, Note_on_c, 0, 54, 110
3, 43008, Note_on_c, 0, 54, 0
3, 43008, Note_on_c, 0, 59, 110
3, 43200, Note_on_c, 0, 59, 0
3, 43200, Note_on_c, 0, 61, 110
3, 43392, Note_on_c, 0, 47, 0
3, 43392, Note_on_c, 0, 61, 0
3, 43392, Note_on_c, 0, 62, 110
3, 43584, Note_on_c, 0, 62, 0
3, 43584, Note_on_c, 0, 54, 110
3, 43776, Note_on_c, 0, 54, 0
3, 43776, Control_c, 0, 64, 0
3, 43776, Control_c, 0, 64, 127
3, 43776, Note_on_c, 0, 43, 110
3, 43968, Note_on_c, 0, 50, 110
3, 44160, Note_on_c, 0, 50, 0
3, 44160, Note_on_c, 0, 55, 110
3, 44352, Note_on_c, 0, 55, 0
3, 44352, Note_on_c, 0, 57, 110
3, 44544, Note_on_c, 0, 43, 0
3, 44544, Note_on_c, 0, 57, 0
3, 44544, Note_on_c, 0, 59, 110
3, 44736, Note_on_c, 0, 59, 0
3, 44736, Note_on_c, 0, 50, 110
3, 44928, Note_on_c, 0, 50, 0
3, 44928, Control_c, 0, 64, 0
3, 44928, Control_c, 0, 64, 127
3, 44928, Note_on_c, 0, 45, 110
3, 45120, Note_on_c, 0, 52, 110
3, 45312, Note_on_c, 0, 52, 0
3, 45312, Note_on_c, 0, 57, 110
3, 45504, Note_on_c, 0, 57, 0
3, 45504, Note_on_c, 0, 59, 110
3, 45696, Note_on_c, 0, 45, 0
3, 45696, Note_on_c, 0, 59, 0
3, 45696, Note_on_c, 0, 61, 110
3, 45888, Note_on_c, 0, 61, 0
3, 45888, Note_on_c, 0, 52, 110
3, 46080, Note_on_c, 0, 52, 0
3, 46080, Control_c, 0, 64, 0
3, 46080, Control_c, 0, 64, 127
3, 46080, Note_on_c, 0, 42, 110
3, 46272, Note_on_c, 0, 49, 110
3, 46464, Note_on_c, 0, 49, 0
3, 46464, Note_on_c, 0, 54, 110
3, 46656, Note_on_c, 0, 54, 0
3, 46656, Note_on_c, 0, 56, 110
3, 46848, Note_on_c, 0, 42, 0
3, 46848, Note_on_c, 0, 56, 0
3, 46848, Note_on_c, 0, 57, 110
3, 47040, Note_on_c, 0, 57, 0
3, 47040, Note_on_c, 0, 59, 110
3, 47232, Note_on_c, 0, 59, 0
3, 47232, Control_c, 0, 64, 0
3, 47232, Control_c, 0, 64, 127
3, 47232, Note_on_c, 0, 49, 110
3, 47232, Note_on_c, 0, 56, 110
3, 48000, Note_on_c, 0, 49, 0
3, 48000, Note_on_c, 0, 56, 0
3, 48384, Note_on_c, 0, 43, 110
3, 49152, Note_on_c, 0, 43, 0
3, 49152, Note_on_c, 0, 55, 110
3, 49152, Note_on_c, 0, 59, 110
3, 49536, Note_on_c, 0, 55, 0
3, 49536, Note_on_c, 0, 59, 0
3, 49536, Note_on_c, 0, 54, 110
3, 49536, Note_on_c, 0, 57, 110
3, 50304, Note_on_c, 0, 54, 0
3, 50304, Note_on_c, 0, 57, 0
3, 50304, Note_on_c, 0, 57, 110
3, 50304, Note_on_c, 0, 64, 110
3, 50688, Note_on_c, 0, 57, 0
3, 50688, Note_on_c, 0, 64, 0
3, 50688, Note_on_c, 0, 35, 110
3, 50880, Note_on_c, 0, 47, 110
3, 51072, Note_on_c, 0, 47, 0
3, 51072, Note_on_c, 0, 51, 110
3, 51264, Note_on_c, 0, 51, 0
3, 51264, Note_on_c, 0, 54, 110
3, 51456, Note_on_c, 0, 35, 0
3, 51456, Note_on_c, 0, 54, 0
3, 51456, Note_on_c, 0, 59, 110
3, 51648, Note_on_c, 0, 59, 0
3, 51648, Note_on_c, 0, 63, 110
3, 51840, Note_on_c, 0, 63, 0
3, 51840, Note_on_c, 0, 66, 110
3, 52032, Note_on_c, 0, 66, 0
3, 54336, Control_c, 0, 7, 0
3, 54336, Note_on_c, 0, 83, 110
3, 55104, Note_on_c, 0, 83, 0
3, 55104, End_track
0, 0, End_of_file
