0, 0, Header, 1, 19, 480
1, 0, Start_track
1, 0, Title_t, "\203X\203s\203\211\202Ì\217î\214i"
1, 0, Copyright_t, "Copyright by tombery"
1, 0, Title_t, ""
1, 0, Marker_t, "Setup"
1, 0, Key_signature, 0, "major"
1, 0, Time_signature, 1, 2, 24, 8
1, 0, Tempo, 250000
1, 480, Marker_t, "Setup"
1, 480, Key_signature, -1, "major"
1, 480, Time_signature, 4, 2, 24, 8
1, 480, Tempo, 530973
1, 15840, Marker_t, "Setup"
1, 15840, Key_signature, -1, "major"
1, 15840, Time_signature, 2, 2, 24, 8
1, 16800, Marker_t, "Setup"
1, 16800, Key_signature, -1, "major"
1, 16800, Time_signature, 4, 2, 24, 8
1, 55200, Tempo, 582524
1, 57120, Tempo, 530973
1, 57120, End_track
2, 0, Start_track
2, 0, Title_t, "Conductor track"
2, 480, Text_t, "Start"
2, 57120, End_track
3, 0, Start_track
3, 0, Title_t, "System Setup"
3, 0, System_exclusive, 5, 126, 127, 9, 1, 247
3, 480, End_track
4, 0, Start_track
4, 0, Title_t, "CH #1"
4, 0, Text_t, "Picked Bs."
4, 240, Control_c, 0, 7, 100
4, 300, Control_c, 0, 91, 120
4, 360, Control_c, 0, 11, 100
4, 420, Program_c, 0, 34
4, 480, Text_t, "Start"
4, 480, Control_c, 0, 11, 100
4, 480, Control_c, 0, 10, 64
4, 960, Note_on_c, 0, 69, 127
4, 960, Note_on_c, 0, 65, 127
4, 960, Note_on_c, 0, 62, 127
4, 1080, Note_on_c, 0, 69, 0
4, 1080, Note_on_c, 0, 65, 0
4, 1080, Note_on_c, 0, 62, 0
4, 1680, Note_on_c, 0, 67, 127
4, 1680, Note_on_c, 0, 64, 127
4, 1680, Note_on_c, 0, 58, 127
4, 1800, Note_on_c, 0, 67, 0
4, 1800, Note_on_c, 0, 64, 0
4, 1800, Note_on_c, 0, 58, 0
4, 2640, Note_on_c, 0, 60, 127
4, 2880, Note_on_c, 0, 65, 127
4, 2880, Note_on_c, 0, 69, 127
4, 3000, Note_on_c, 0, 60, 0
4, 3120, Note_on_c, 0, 60, 127
4, 3240, Note_on_c, 0, 65, 0
4, 3240, Note_on_c, 0, 69, 0
4, 3480, Note_on_c, 0, 60, 0
4, 3840, Note_on_c, 0, 60, 127
4, 3840, Note_on_c, 0, 64, 127
4, 3840, Note_on_c, 0, 67, 127
4, 3960, Note_on_c, 0, 60, 0
4, 3960, Note_on_c, 0, 64, 0
4, 3960, Note_on_c, 0, 67, 0
4, 4560, Note_on_c, 0, 57, 127
4, 4800, Note_on_c, 0, 57, 0
4, 4800, Note_on_c, 0, 62, 127
4, 4800, Note_on_c, 0, 69, 127
4, 5040, Note_on_c, 0, 62, 0
4, 5040, Note_on_c, 0, 69, 0
4, 5520, Note_on_c, 0, 64, 127
4, 5520, Note_on_c, 0, 60, 127
4, 5760, Note_on_c, 0, 64, 0
4, 5760, Note_on_c, 0, 60, 0
4, 5760, Note_on_c, 0, 57, 127
4, 6000, Note_on_c, 0, 57, 0
4, 6180, Note_on_c, 0, 60, 127
4, 6240, Note_on_c, 0, 60, 0
4, 6240, Note_on_c, 0, 62, 127
4, 6480, Note_on_c, 0, 62, 0
4, 7440, Note_on_c, 0, 67, 127
4, 7680, Note_on_c, 0, 67, 0
4, 7680, Note_on_c, 0, 71, 127
4, 7920, Note_on_c, 0, 71, 0
4, 7920, Note_on_c, 0, 72, 127
4, 8160, Note_on_c, 0, 72, 0
4, 8160, Note_on_c, 0, 62, 127
4, 8640, Note_on_c, 0, 62, 0
4, 8640, Control_c, 0, 11, 45
4, 8640, Note_on_c, 0, 62, 127
4, 8760, Note_on_c, 0, 62, 0
4, 8880, Control_c, 0, 11, 52
4, 8880, Note_on_c, 0, 64, 127
4, 9120, Note_on_c, 0, 64, 0
4, 9360, Note_on_c, 0, 67, 127
4, 9600, Note_on_c, 0, 67, 0
4, 9600, Control_c, 0, 11, 100
4, 9840, Note_on_c, 0, 72, 127
4, 10080, Note_on_c, 0, 72, 0
4, 10560, Control_c, 0, 11, 87
4, 10560, Note_on_c, 0, 69, 127
4, 10800, Note_on_c, 0, 69, 0
4, 10800, Note_on_c, 0, 69, 127
4, 11040, Note_on_c, 0, 69, 0
4, 11280, Control_c, 0, 11, 79
4, 11280, Note_on_c, 0, 67, 127
4, 11520, Note_on_c, 0, 67, 0
4, 11520, Control_c, 0, 11, 98
4, 11520, Note_on_c, 0, 69, 127
4, 11760, Note_on_c, 0, 69, 0
4, 11760, Control_c, 0, 11, 87
4, 11760, Note_on_c, 0, 67, 127
4, 12000, Note_on_c, 0, 67, 0
4, 12000, Control_c, 0, 11, 72
4, 12000, Note_on_c, 0, 65, 127
4, 13200, Note_on_c, 0, 65, 0
4, 13620, Note_on_c, 0, 71, 127
4, 13680, Note_on_c, 0, 71, 0
4, 13680, Control_c, 0, 11, 99
4, 13680, Note_on_c, 0, 74, 127
4, 13920, Note_on_c, 0, 74, 0
4, 16320, Control_c, 0, 11, 114
4, 16560, Control_c, 0, 11, 74
4, 16800, Control_c, 0, 11, 86
4, 16800, Note_on_c, 0, 62, 127
4, 17280, Note_on_c, 0, 62, 0
4, 17280, Note_on_c, 0, 64, 127
4, 17520, Note_on_c, 0, 64, 0
4, 17520, Note_on_c, 0, 65, 127
4, 17700, Note_on_c, 0, 62, 127
4, 17760, Note_on_c, 0, 65, 0
4, 17760, Note_on_c, 0, 62, 0
4, 17760, Control_c, 0, 11, 114
4, 17760, Note_on_c, 0, 64, 127
4, 18240, Note_on_c, 0, 64, 0
4, 18240, Control_c, 0, 11, 78
4, 18240, Note_on_c, 0, 65, 127
4, 18480, Note_on_c, 0, 65, 0
4, 18480, Note_on_c, 0, 67, 127
4, 18720, Note_on_c, 0, 67, 0
4, 18720, Note_on_c, 0, 69, 127
4, 19200, Note_on_c, 0, 69, 0
4, 19200, Note_on_c, 0, 70, 127
4, 19440, Note_on_c, 0, 70, 0
4, 19440, Note_on_c, 0, 69, 127
4, 19680, Note_on_c, 0, 69, 0
4, 19680, Note_on_c, 0, 67, 127
4, 20640, Note_on_c, 0, 67, 0
4, 20640, Note_on_c, 0, 69, 127
4, 21120, Note_on_c, 0, 69, 0
4, 21120, Note_on_c, 0, 67, 127
4, 21360, Note_on_c, 0, 67, 0
4, 21360, Note_on_c, 0, 65, 127
4, 21600, Note_on_c, 0, 65, 0
4, 21600, Note_on_c, 0, 64, 127
4, 22560, Note_on_c, 0, 64, 0
4, 22560, Note_on_c, 0, 65, 127
4, 23040, Note_on_c, 0, 65, 0
4, 23040, Note_on_c, 0, 64, 127
4, 23280, Note_on_c, 0, 64, 0
4, 23280, Note_on_c, 0, 62, 127
4, 23520, Note_on_c, 0, 62, 0
4, 23520, Note_on_c, 0, 60, 127
4, 24480, Note_on_c, 0, 60, 0
4, 24480, Note_on_c, 0, 62, 127
4, 24960, Note_on_c, 0, 62, 0
4, 24960, Note_on_c, 0, 64, 127
4, 25200, Note_on_c, 0, 64, 0
4, 25200, Note_on_c, 0, 65, 127
4, 25380, Note_on_c, 0, 62, 127
4, 25440, Note_on_c, 0, 65, 0
4, 25440, Note_on_c, 0, 62, 0
4, 25440, Note_on_c, 0, 64, 127
4, 25920, Note_on_c, 0, 64, 0
4, 25920, Note_on_c, 0, 65, 127
4, 26160, Note_on_c, 0, 65, 0
4, 26160, Note_on_c, 0, 67, 127
4, 26400, Note_on_c, 0, 67, 0
4, 26400, Control_c, 0, 11, 106
4, 26400, Note_on_c, 0, 69, 127
4, 26880, Note_on_c, 0, 69, 0
4, 26880, Control_c, 0, 11, 77
4, 26880, Note_on_c, 0, 70, 127
4, 27120, Note_on_c, 0, 70, 0
4, 27120, Note_on_c, 0, 69, 127
4, 27360, Note_on_c, 0, 69, 0
4, 27360, Note_on_c, 0, 67, 127
4, 28320, Note_on_c, 0, 67, 0
4, 28320, Control_c, 0, 11, 106
4, 28320, Note_on_c, 0, 69, 127
4, 28800, Note_on_c, 0, 69, 0
4, 28800, Control_c, 0, 11, 80
4, 28800, Note_on_c, 0, 67, 127
4, 29040, Note_on_c, 0, 67, 0
4, 29040, Note_on_c, 0, 65, 127
4, 29280, Note_on_c, 0, 65, 0
4, 29280, Note_on_c, 0, 64, 127
4, 29760, Note_on_c, 0, 64, 0
4, 29760, Note_on_c, 0, 60, 127
4, 30180, Note_on_c, 0, 58, 127
4, 30240, Note_on_c, 0, 60, 0
4, 30240, Note_on_c, 0, 58, 0
4, 30240, Control_c, 0, 11, 104
4, 30240, Note_on_c, 0, 60, 127
4, 30480, Note_on_c, 0, 60, 0
4, 30480, Control_c, 0, 11, 79
4, 30480, Note_on_c, 0, 62, 127
4, 30660, Note_on_c, 0, 60, 127
4, 30720, Note_on_c, 0, 62, 0
4, 30720, Note_on_c, 0, 60, 0
4, 30720, Control_c, 0, 11, 90
4, 30720, Note_on_c, 0, 62, 127
4, 31440, Note_on_c, 0, 67, 127
4, 31680, Note_on_c, 0, 67, 0
4, 31680, Control_c, 0, 11, 24
4, 31680, Note_on_c, 0, 74, 127
4, 31920, Note_on_c, 0, 74, 0
4, 31920, Control_c, 0, 11, 51
4, 31920, Note_on_c, 0, 79, 127
4, 32160, Note_on_c, 0, 62, 0
4, 32160, Note_on_c, 0, 79, 0
4, 32160, Control_c, 0, 11, 92
4, 32160, Note_on_c, 0, 81, 127
4, 32640, Note_on_c, 0, 81, 0
4, 32640, Note_on_c, 0, 79, 127
4, 32880, Note_on_c, 0, 79, 0
4, 32880, Note_on_c, 0, 77, 127
4, 33120, Note_on_c, 0, 77, 0
4, 33120, Note_on_c, 0, 76, 127
4, 33600, Note_on_c, 0, 76, 0
4, 33600, Note_on_c, 0, 72, 127
4, 33960, Note_on_c, 0, 69, 127
4, 34020, Note_on_c, 0, 69, 0
4, 34020, Note_on_c, 0, 70, 127
4, 34080, Note_on_c, 0, 72, 0
4, 34080, Note_on_c, 0, 70, 0
4, 34080, Control_c, 0, 11, 115
4, 34080, Note_on_c, 0, 72, 127
4, 34320, Note_on_c, 0, 72, 0
4, 34320, Note_on_c, 0, 74, 127
4, 34560, Note_on_c, 0, 74, 0
4, 34560, Note_on_c, 0, 74, 127
4, 35520, Note_on_c, 0, 74, 0
4, 35520, Note_on_c, 0, 69, 127
4, 35760, Note_on_c, 0, 69, 0
4, 36000, Control_c, 0, 11, 94
4, 36000, Note_on_c, 0, 62, 127
4, 36480, Note_on_c, 0, 62, 0
4, 36480, Control_c, 0, 11, 79
4, 36480, Note_on_c, 0, 64, 127
4, 36480, Note_on_c, 0, 60, 127
4, 36720, Note_on_c, 0, 64, 0
4, 36720, Note_on_c, 0, 60, 0
4, 36720, Note_on_c, 0, 65, 127
4, 36720, Note_on_c, 0, 62, 127
4, 36960, Note_on_c, 0, 65, 0
4, 36960, Note_on_c, 0, 62, 0
4, 36960, Note_on_c, 0, 64, 127
4, 36960, Note_on_c, 0, 60, 127
4, 37440, Note_on_c, 0, 64, 0
4, 37440, Note_on_c, 0, 60, 0
4, 37440, Note_on_c, 0, 65, 127
4, 37440, Note_on_c, 0, 62, 127
4, 37680, Note_on_c, 0, 65, 0
4, 37680, Note_on_c, 0, 62, 0
4, 37680, Note_on_c, 0, 67, 127
4, 37680, Note_on_c, 0, 64, 127
4, 37920, Note_on_c, 0, 67, 0
4, 37920, Note_on_c, 0, 64, 0
4, 37920, Note_on_c, 0, 69, 127
4, 37920, Note_on_c, 0, 65, 127
4, 38400, Note_on_c, 0, 69, 0
4, 38400, Note_on_c, 0, 65, 0
4, 38400, Note_on_c, 0, 70, 127
4, 38400, Note_on_c, 0, 67, 127
4, 38640, Note_on_c, 0, 70, 0
4, 38640, Note_on_c, 0, 67, 0
4, 38640, Note_on_c, 0, 69, 127
4, 38640, Note_on_c, 0, 65, 127
4, 38880, Note_on_c, 0, 69, 0
4, 38880, Note_on_c, 0, 65, 0
4, 38880, Control_c, 0, 11, 82
4, 38880, Note_on_c, 0, 60, 127
4, 39840, Note_on_c, 0, 60, 0
4, 39840, Control_c, 0, 11, 95
4, 39840, Note_on_c, 0, 69, 127
4, 40320, Note_on_c, 0, 69, 0
4, 40320, Note_on_c, 0, 67, 127
4, 40560, Note_on_c, 0, 67, 0
4, 40560, Note_on_c, 0, 65, 127
4, 40800, Note_on_c, 0, 65, 0
4, 40800, Note_on_c, 0, 64, 127
4, 41760, Note_on_c, 0, 64, 0
4, 41760, Note_on_c, 0, 65, 127
4, 42240, Note_on_c, 0, 65, 0
4, 42240, Note_on_c, 0, 64, 127
4, 42480, Note_on_c, 0, 64, 0
4, 42480, Note_on_c, 0, 62, 127
4, 42720, Note_on_c, 0, 62, 0
4, 42720, Note_on_c, 0, 60, 127
4, 42960, Control_c, 0, 11, 113
4, 42960, Note_on_c, 0, 67, 127
4, 43200, Note_on_c, 0, 60, 0
4, 43200, Note_on_c, 0, 67, 0
4, 43200, Control_c, 0, 11, 80
4, 43200, Note_on_c, 0, 64, 127
4, 43320, Note_on_c, 0, 64, 0
4, 43320, Note_on_c, 0, 62, 127
4, 43440, Note_on_c, 0, 62, 0
4, 43440, Note_on_c, 0, 60, 127
4, 43560, Note_on_c, 0, 60, 0
4, 43680, Note_on_c, 0, 62, 127
4, 44160, Note_on_c, 0, 62, 0
4, 44160, Control_c, 0, 11, 81
4, 44160, Note_on_c, 0, 64, 127
4, 44160, Note_on_c, 0, 60, 127
4, 44400, Note_on_c, 0, 64, 0
4, 44400, Note_on_c, 0, 60, 0
4, 44400, Note_on_c, 0, 65, 127
4, 44400, Note_on_c, 0, 62, 127
4, 44640, Note_on_c, 0, 65, 0
4, 44640, Note_on_c, 0, 62, 0
4, 44640, Note_on_c, 0, 64, 127
4, 44640, Note_on_c, 0, 60, 127
4, 45120, Note_on_c, 0, 64, 0
4, 45120, Note_on_c, 0, 60, 0
4, 45120, Note_on_c, 0, 65, 127
4, 45120, Note_on_c, 0, 62, 127
4, 45360, Note_on_c, 0, 65, 0
4, 45360, Note_on_c, 0, 62, 0
4, 45360, Note_on_c, 0, 67, 127
4, 45360, Note_on_c, 0, 64, 127
4, 45600, Note_on_c, 0, 67, 0
4, 45600, Note_on_c, 0, 64, 0
4, 45600, Control_c, 0, 11, 112
4, 45600, Note_on_c, 0, 69, 127
4, 45600, Note_on_c, 0, 65, 127
4, 46080, Note_on_c, 0, 69, 0
4, 46080, Note_on_c, 0, 65, 0
4, 46080, Control_c, 0, 11, 92
4, 46080, Note_on_c, 0, 70, 127
4, 46080, Note_on_c, 0, 67, 127
4, 46320, Note_on_c, 0, 70, 0
4, 46320, Note_on_c, 0, 67, 0
4, 46320, Note_on_c, 0, 72, 127
4, 46320, Note_on_c, 0, 69, 127
4, 46560, Note_on_c, 0, 72, 0
4, 46560, Note_on_c, 0, 69, 0
4, 46560, Note_on_c, 0, 67, 127
4, 46560, Note_on_c, 0, 64, 127
4, 47520, Note_on_c, 0, 67, 0
4, 47520, Note_on_c, 0, 64, 0
4, 47520, Note_on_c, 0, 69, 127
4, 48000, Note_on_c, 0, 69, 0
4, 48000, Control_c, 0, 11, 107
4, 48000, Note_on_c, 0, 67, 127
4, 48240, Note_on_c, 0, 67, 0
4, 48240, Control_c, 0, 11, 87
4, 48240, Note_on_c, 0, 65, 127
4, 48480, Note_on_c, 0, 65, 0
4, 48480, Note_on_c, 0, 64, 127
4, 48960, Note_on_c, 0, 64, 0
4, 48960, Note_on_c, 0, 60, 127
4, 49440, Note_on_c, 0, 60, 0
4, 49440, Note_on_c, 0, 60, 127
4, 49440, Note_on_c, 0, 57, 127
4, 49680, Note_on_c, 0, 60, 0
4, 49680, Note_on_c, 0, 57, 0
4, 49680, Note_on_c, 0, 62, 127
4, 49680, Note_on_c, 0, 59, 127
4, 49920, Note_on_c, 0, 62, 0
4, 49920, Note_on_c, 0, 59, 0
4, 49920, Note_on_c, 0, 62, 127
4, 49920, Note_on_c, 0, 59, 127
4, 50640, Control_c, 0, 11, 97
4, 50640, Note_on_c, 0, 67, 127
4, 50880, Note_on_c, 0, 67, 0
4, 50880, Control_c, 0, 11, 59
4, 50880, Note_on_c, 0, 74, 127
4, 51000, Note_on_c, 0, 74, 0
4, 51120, Control_c, 0, 11, 72
4, 51120, Note_on_c, 0, 79, 127
4, 51240, Note_on_c, 0, 79, 0
4, 51360, Note_on_c, 0, 62, 0
4, 51360, Note_on_c, 0, 59, 0
4, 51360, Note_on_c, 0, 81, 127
4, 51840, Note_on_c, 0, 81, 0
4, 51840, Note_on_c, 0, 79, 127
4, 52080, Note_on_c, 0, 79, 0
4, 52080, Note_on_c, 0, 77, 127
4, 52320, Note_on_c, 0, 77, 0
4, 52320, Note_on_c, 0, 76, 127
4, 52800, Note_on_c, 0, 76, 0
4, 52800, Note_on_c, 0, 72, 127
4, 53220, Note_on_c, 0, 70, 127
4, 53280, Note_on_c, 0, 72, 0
4, 53280, Note_on_c, 0, 70, 0
4, 53280, Note_on_c, 0, 72, 127
4, 53520, Note_on_c, 0, 72, 0
4, 53520, Note_on_c, 0, 74, 127
4, 53700, Note_on_c, 0, 72, 127
4, 53760, Note_on_c, 0, 74, 0
4, 53760, Note_on_c, 0, 72, 0
4, 53760, Note_on_c, 0, 74, 127
4, 55200, Note_on_c, 0, 74, 0
4, 55200, Control_c, 0, 11, 87
4, 55200, Note_on_c, 0, 62, 127
4, 56160, Note_on_c, 0, 62, 0
4, 56160, Control_c, 0, 11, 63
4, 56160, Note_on_c, 0, 64, 127
4, 56640, Note_on_c, 0, 64, 0
4, 56640, Control_c, 0, 11, 90
4, 56640, Note_on_c, 0, 65, 127
4, 56880, Note_on_c, 0, 65, 0
4, 56880, Note_on_c, 0, 67, 127
4, 57120, Note_on_c, 0, 67, 0
4, 57120, Control_c, 0, 11, 120
4, 57120, Note_on_c, 0, 69, 127
4, 57600, Note_on_c, 0, 69, 0
4, 57600, Control_c, 0, 11, 100
4, 57600, Note_on_c, 0, 72, 127
4, 58080, Note_on_c, 0, 72, 0
4, 58080, Control_c, 0, 11, 115
4, 58080, Note_on_c, 0, 67, 127
4, 59040, Note_on_c, 0, 67, 0
4, 59040, Control_c, 0, 11, 120
4, 59040, Note_on_c, 0, 69, 127
4, 59520, Note_on_c, 0, 69, 0
4, 59520, Control_c, 0, 11, 99
4, 59520, Note_on_c, 0, 67, 127
4, 59760, Note_on_c, 0, 67, 0
4, 59760, Note_on_c, 0, 65, 127
4, 60000, Note_on_c, 0, 65, 0
4, 60000, Note_on_c, 0, 62, 127
4, 60240, Note_on_c, 0, 62, 0
4, 60240, Note_on_c, 0, 65, 127
4, 60480, Note_on_c, 0, 65, 0
4, 60480, Control_c, 0, 11, 116
4, 60480, Note_on_c, 0, 65, 127
4, 60720, Note_on_c, 0, 65, 0
4, 60720, Control_c, 0, 11, 102
4, 60720, Note_on_c, 0, 67, 127
4, 60960, Note_on_c, 0, 67, 0
4, 60960, Control_c, 0, 11, 120
4, 60960, Note_on_c, 0, 69, 127
4, 61380, Control_c, 0, 11, 99
4, 61440, Note_on_c, 0, 69, 0
4, 61440, Note_on_c, 0, 72, 127
4, 61920, Note_on_c, 0, 72, 0
4, 61920, Control_c, 0, 11, 113
4, 61920, Note_on_c, 0, 67, 127
4, 62400, Note_on_c, 0, 67, 0
4, 62400, Control_c, 0, 11, 100
4, 62400, Note_on_c, 0, 65, 127
4, 62640, Note_on_c, 0, 65, 0
4, 62640, Note_on_c, 0, 64, 127
4, 62880, Note_on_c, 0, 64, 0
4, 62880, Control_c, 0, 11, 84
4, 62880, Note_on_c, 0, 62, 127
4, 64320, Note_on_c, 0, 62, 0
4, 64320, Note_on_c, 0, 65, 127
4, 64560, Note_on_c, 0, 65, 0
4, 64560, Note_on_c, 0, 67, 127
4, 64800, Note_on_c, 0, 67, 0
4, 64800, Note_on_c, 0, 69, 127
4, 65280, Note_on_c, 0, 69, 0
4, 65280, Control_c, 0, 11, 109
4, 65280, Note_on_c, 0, 72, 127
4, 65760, Note_on_c, 0, 72, 0
4, 65760, Control_c, 0, 11, 94
4, 65760, Note_on_c, 0, 67, 127
4, 66720, Note_on_c, 0, 67, 0
4, 66720, Control_c, 0, 11, 116
4, 66720, Note_on_c, 0, 69, 127
4, 67200, Note_on_c, 0, 69, 0
4, 67200, Control_c, 0, 11, 95
4, 67200, Note_on_c, 0, 67, 127
4, 67440, Note_on_c, 0, 67, 0
4, 67440, Note_on_c, 0, 65, 127
4, 67680, Note_on_c, 0, 65, 0
4, 67680, Note_on_c, 0, 62, 127
4, 67920, Note_on_c, 0, 62, 0
4, 67920, Note_on_c, 0, 65, 127
4, 68160, Note_on_c, 0, 65, 0
4, 68160, Note_on_c, 0, 65, 127
4, 68400, Note_on_c, 0, 65, 0
4, 68400, Note_on_c, 0, 67, 127
4, 68640, Note_on_c, 0, 67, 0
4, 68640, Note_on_c, 0, 69, 127
4, 69120, Note_on_c, 0, 69, 0
4, 69120, Control_c, 0, 11, 113
4, 69120, Note_on_c, 0, 72, 127
4, 69600, Note_on_c, 0, 72, 0
4, 69600, Control_c, 0, 11, 97
4, 69600, Note_on_c, 0, 76, 127
4, 70080, Note_on_c, 0, 76, 0
4, 70080, Control_c, 0, 11, 114
4, 70080, Note_on_c, 0, 72, 127
4, 70560, Note_on_c, 0, 72, 0
4, 70560, Control_c, 0, 11, 98
4, 70560, Note_on_c, 0, 74, 127
4, 72000, Note_on_c, 0, 74, 0
4, 72960, Note_on_c, 0, 74, 127
4, 72960, Note_on_c, 0, 65, 127
4, 73440, Note_on_c, 0, 74, 0
4, 73440, Note_on_c, 0, 65, 0
4, 73440, Note_on_c, 0, 72, 127
4, 73440, Note_on_c, 0, 64, 127
4, 73920, Note_on_c, 0, 72, 0
4, 73920, Note_on_c, 0, 64, 0
4, 73920, Note_on_c, 0, 70, 127
4, 73920, Note_on_c, 0, 62, 127
4, 74400, Note_on_c, 0, 70, 0
4, 74400, Note_on_c, 0, 62, 0
4, 74400, Note_on_c, 0, 69, 127
4, 74400, Note_on_c, 0, 60, 127
4, 76320, Note_on_c, 0, 69, 0
4, 76320, Note_on_c, 0, 60, 0
4, 76800, Note_on_c, 0, 72, 127
4, 76800, Note_on_c, 0, 64, 127
4, 77280, Note_on_c, 0, 72, 0
4, 77280, Note_on_c, 0, 64, 0
4, 77280, Note_on_c, 0, 69, 127
4, 77280, Note_on_c, 0, 60, 127
4, 77760, Note_on_c, 0, 69, 0
4, 77760, Note_on_c, 0, 60, 0
4, 77760, Note_on_c, 0, 64, 127
4, 77760, Note_on_c, 0, 55, 127
4, 78240, Note_on_c, 0, 64, 0
4, 78240, Note_on_c, 0, 55, 0
4, 78240, Note_on_c, 0, 62, 127
4, 78240, Note_on_c, 0, 53, 127
4, 78480, Note_on_c, 0, 62, 0
4, 78480, Note_on_c, 0, 53, 0
4, 78480, Note_on_c, 0, 65, 127
4, 78720, Note_on_c, 0, 65, 0
4, 78720, Note_on_c, 0, 65, 127
4, 79200, Note_on_c, 0, 65, 0
4, 79440, Note_on_c, 0, 65, 127
4, 79680, Note_on_c, 0, 65, 0
4, 79920, Note_on_c, 0, 67, 127
4, 80040, Note_on_c, 0, 67, 0
4, 80160, Note_on_c, 0, 69, 127
4, 80640, Note_on_c, 0, 69, 0
4, 80640, Note_on_c, 0, 69, 127
4, 80640, Note_on_c, 0, 65, 127
4, 81120, Note_on_c, 0, 69, 0
4, 81120, Note_on_c, 0, 65, 0
4, 81120, Note_on_c, 0, 67, 127
4, 81120, Note_on_c, 0, 64, 127
4, 81600, Note_on_c, 0, 67, 0
4, 81600, Note_on_c, 0, 64, 0
4, 81600, Note_on_c, 0, 65, 127
4, 81600, Note_on_c, 0, 62, 127
4, 82080, Note_on_c, 0, 65, 0
4, 82080, Note_on_c, 0, 62, 0
4, 82080, Note_on_c, 0, 67, 127
4, 82320, Note_on_c, 0, 67, 0
4, 82320, Note_on_c, 0, 69, 127
4, 82560, Note_on_c, 0, 69, 0
4, 82560, Note_on_c, 0, 60, 127
4, 84000, Note_on_c, 0, 60, 0
4, 84480, Note_on_c, 0, 69, 127
4, 84960, Note_on_c, 0, 69, 0
4, 84960, Note_on_c, 0, 76, 127
4, 85440, Note_on_c, 0, 76, 0
4, 85440, Note_on_c, 0, 72, 127
4, 85920, Note_on_c, 0, 72, 0
4, 89760, Control_c, 0, 11, 94
4, 89760, Note_on_c, 0, 62, 127
4, 90240, Note_on_c, 0, 62, 0
4, 90240, Control_c, 0, 11, 79
4, 90240, Note_on_c, 0, 64, 127
4, 90240, Note_on_c, 0, 60, 127
4, 90480, Note_on_c, 0, 64, 0
4, 90480, Note_on_c, 0, 60, 0
4, 90480, Note_on_c, 0, 65, 127
4, 90480, Note_on_c, 0, 62, 127
4, 90720, Note_on_c, 0, 65, 0
4, 90720, Note_on_c, 0, 62, 0
4, 90720, Note_on_c, 0, 64, 127
4, 90720, Note_on_c, 0, 60, 127
4, 91200, Note_on_c, 0, 64, 0
4, 91200, Note_on_c, 0, 60, 0
4, 91200, Note_on_c, 0, 65, 127
4, 91200, Note_on_c, 0, 62, 127
4, 91440, Note_on_c, 0, 65, 0
4, 91440, Note_on_c, 0, 62, 0
4, 91440, Note_on_c, 0, 67, 127
4, 91440, Note_on_c, 0, 64, 127
4, 91680, Note_on_c, 0, 67, 0
4, 91680, Note_on_c, 0, 64, 0
4, 91680, Note_on_c, 0, 69, 127
4, 91680, Note_on_c, 0, 65, 127
4, 92160, Note_on_c, 0, 69, 0
4, 92160, Note_on_c, 0, 65, 0
4, 92160, Note_on_c, 0, 70, 127
4, 92160, Note_on_c, 0, 67, 127
4, 92400, Note_on_c, 0, 70, 0
4, 92400, Note_on_c, 0, 67, 0
4, 92400, Note_on_c, 0, 69, 127
4, 92400, Note_on_c, 0, 65, 127
4, 92640, Note_on_c, 0, 69, 0
4, 92640, Note_on_c, 0, 65, 0
4, 92640, Control_c, 0, 11, 82
4, 92640, Note_on_c, 0, 60, 127
4, 93600, Note_on_c, 0, 60, 0
4, 93600, Control_c, 0, 11, 95
4, 93600, Note_on_c, 0, 69, 127
4, 94080, Note_on_c, 0, 69, 0
4, 94080, Note_on_c, 0, 67, 127
4, 94320, Note_on_c, 0, 67, 0
4, 94320, Note_on_c, 0, 65, 127
4, 94560, Note_on_c, 0, 65, 0
4, 94560, Note_on_c, 0, 64, 127
4, 95520, Note_on_c, 0, 64, 0
4, 95520, Note_on_c, 0, 65, 127
4, 96000, Note_on_c, 0, 65, 0
4, 96000, Note_on_c, 0, 64, 127
4, 96240, Note_on_c, 0, 64, 0
4, 96240, Note_on_c, 0, 62, 127
4, 96480, Note_on_c, 0, 62, 0
4, 96480, Note_on_c, 0, 60, 127
4, 96720, Control_c, 0, 11, 113
4, 96720, Note_on_c, 0, 67, 127
4, 96960, Note_on_c, 0, 60, 0
4, 96960, Note_on_c, 0, 67, 0
4, 96960, Control_c, 0, 11, 80
4, 96960, Note_on_c, 0, 64, 127
4, 97080, Note_on_c, 0, 64, 0
4, 97080, Note_on_c, 0, 62, 127
4, 97200, Note_on_c, 0, 62, 0
4, 97200, Note_on_c, 0, 60, 127
4, 97320, Note_on_c, 0, 60, 0
4, 97440, Note_on_c, 0, 62, 127
4, 97920, Note_on_c, 0, 62, 0
4, 97920, Control_c, 0, 11, 81
4, 97920, Note_on_c, 0, 64, 127
4, 97920, Note_on_c, 0, 60, 127
4, 98160, Note_on_c, 0, 64, 0
4, 98160, Note_on_c, 0, 60, 0
4, 98160, Note_on_c, 0, 65, 127
4, 98160, Note_on_c, 0, 62, 127
4, 98400, Note_on_c, 0, 65, 0
4, 98400, Note_on_c, 0, 62, 0
4, 98400, Note_on_c, 0, 64, 127
4, 98400, Note_on_c, 0, 60, 127
4, 98880, Note_on_c, 0, 64, 0
4, 98880, Note_on_c, 0, 60, 0
4, 98880, Note_on_c, 0, 65, 127
4, 98880, Note_on_c, 0, 62, 127
4, 99120, Note_on_c, 0, 65, 0
4, 99120, Note_on_c, 0, 62, 0
4, 99120, Note_on_c, 0, 67, 127
4, 99120, Note_on_c, 0, 64, 127
4, 99360, Note_on_c, 0, 67, 0
4, 99360, Note_on_c, 0, 64, 0
4, 99360, Control_c, 0, 11, 112
4, 99360, Note_on_c, 0, 69, 127
4, 99360, Note_on_c, 0, 65, 127
4, 99840, Note_on_c, 0, 69, 0
4, 99840, Note_on_c, 0, 65, 0
4, 99840, Control_c, 0, 11, 92
4, 99840, Note_on_c, 0, 70, 127
4, 99840, Note_on_c, 0, 67, 127
4, 100080, Note_on_c, 0, 70, 0
4, 100080, Note_on_c, 0, 67, 0
4, 100080, Note_on_c, 0, 72, 127
4, 100080, Note_on_c, 0, 69, 127
4, 100320, Note_on_c, 0, 72, 0
4, 100320, Note_on_c, 0, 69, 0
4, 100320, Note_on_c, 0, 67, 127
4, 100320, Note_on_c, 0, 64, 127
4, 101280, Note_on_c, 0, 67, 0
4, 101280, Note_on_c, 0, 64, 0
4, 101280, Note_on_c, 0, 69, 127
4, 101760, Note_on_c, 0, 69, 0
4, 101760, Control_c, 0, 11, 107
4, 101760, Note_on_c, 0, 67, 127
4, 102000, Note_on_c, 0, 67, 0
4, 102000, Control_c, 0, 11, 87
4, 102000, Note_on_c, 0, 65, 127
4, 102240, Note_on_c, 0, 65, 0
4, 102240, Note_on_c, 0, 64, 127
4, 102720, Note_on_c, 0, 64, 0
4, 102720, Note_on_c, 0, 60, 127
4, 103200, Note_on_c, 0, 60, 0
4, 103200, Note_on_c, 0, 60, 127
4, 103200, Note_on_c, 0, 57, 127
4, 103440, Note_on_c, 0, 60, 0
4, 103440, Note_on_c, 0, 57, 0
4, 103440, Note_on_c, 0, 62, 127
4, 103440, Note_on_c, 0, 59, 127
4, 103680, Note_on_c, 0, 62, 0
4, 103680, Note_on_c, 0, 59, 0
4, 103680, Note_on_c, 0, 62, 127
4, 103680, Note_on_c, 0, 59, 127
4, 104400, Control_c, 0, 11, 97
4, 104400, Note_on_c, 0, 67, 127
4, 104640, Note_on_c, 0, 67, 0
4, 104640, Control_c, 0, 11, 59
4, 104640, Note_on_c, 0, 74, 127
4, 104760, Note_on_c, 0, 74, 0
4, 104880, Control_c, 0, 11, 72
4, 104880, Note_on_c, 0, 79, 127
4, 105000, Note_on_c, 0, 79, 0
4, 105120, Note_on_c, 0, 62, 0
4, 105120, Note_on_c, 0, 59, 0
4, 105120, Note_on_c, 0, 81, 127
4, 105600, Note_on_c, 0, 81, 0
4, 105600, Note_on_c, 0, 79, 127
4, 105840, Note_on_c, 0, 79, 0
4, 105840, Note_on_c, 0, 77, 127
4, 106080, Note_on_c, 0, 77, 0
4, 106080, Note_on_c, 0, 76, 127
4, 106560, Note_on_c, 0, 76, 0
4, 106560, Note_on_c, 0, 72, 127
4, 106980, Note_on_c, 0, 70, 127
4, 107040, Note_on_c, 0, 72, 0
4, 107040, Note_on_c, 0, 70, 0
4, 107040, Note_on_c, 0, 72, 127
4, 107280, Note_on_c, 0, 72, 0
4, 107280, Note_on_c, 0, 74, 127
4, 107460, Note_on_c, 0, 72, 127
4, 107520, Note_on_c, 0, 74, 0
4, 107520, Note_on_c, 0, 72, 0
4, 107520, Note_on_c, 0, 74, 127
4, 108960, Note_on_c, 0, 74, 0
4, 108960, Control_c, 0, 11, 80
4, 108960, Note_on_c, 0, 40, 127
4, 108960, Note_on_c, 0, 56, 127
4, 109020, Control_c, 0, 11, 58
4, 109020, Note_on_c, 0, 50, 127
4, 109020, Note_on_c, 0, 61, 127
4, 109080, Note_on_c, 0, 56, 0
4, 109140, Note_on_c, 0, 61, 0
4, 109140, Note_on_c, 0, 64, 127
4, 109260, Note_on_c, 0, 64, 0
4, 109260, Note_on_c, 0, 71, 127
4, 109380, Note_on_c, 0, 71, 0
4, 109380, Control_c, 0, 11, 73
4, 109380, Note_on_c, 0, 76, 127
4, 109440, Control_c, 0, 11, 61
4, 109440, Note_on_c, 0, 64, 127
4, 109500, Note_on_c, 0, 76, 0
4, 109560, Note_on_c, 0, 64, 0
4, 109560, Control_c, 0, 11, 81
4, 109560, Note_on_c, 0, 62, 127
4, 109620, Control_c, 0, 11, 63
4, 109620, Note_on_c, 0, 67, 127
4, 109680, Note_on_c, 0, 62, 0
4, 109680, Control_c, 0, 11, 60
4, 109740, Note_on_c, 0, 67, 0
4, 109740, Control_c, 0, 11, 63
4, 109740, Note_on_c, 0, 71, 127
4, 109860, Note_on_c, 0, 71, 0
4, 109860, Note_on_c, 0, 76, 127
4, 109920, Note_on_c, 0, 40, 0
4, 109920, Control_c, 0, 11, 65
4, 109920, Note_on_c, 0, 83, 127
4, 109980, Note_on_c, 0, 76, 0
4, 109980, Note_on_c, 0, 50, 0
4, 110040, Note_on_c, 0, 83, 0
4, 110700, Note_on_c, 0, 40, 127
4, 110760, Note_on_c, 0, 46, 127
4, 110820, Note_on_c, 0, 53, 127
4, 110880, Note_on_c, 0, 57, 127
4, 110940, Note_on_c, 0, 62, 127
4, 111000, Note_on_c, 0, 67, 127
4, 112620, Note_on_c, 0, 40, 0
4, 112680, Note_on_c, 0, 46, 0
4, 112740, Note_on_c, 0, 53, 0
4, 112800, Note_on_c, 0, 57, 0
4, 112800, Note_on_c, 0, 69, 127
4, 112860, Note_on_c, 0, 62, 0
4, 112920, Note_on_c, 0, 67, 0
4, 114720, Note_on_c, 0, 69, 0
4, 114720, End_track
5, 0, Start_track
5, 0, Title_t, "CH #2"
5, 0, Text_t, "Picked Bs."
5, 240, Control_c, 1, 7, 100
5, 300, Control_c, 1, 91, 100
5, 360, Control_c, 1, 11, 100
5, 420, Program_c, 1, 34
5, 480, Text_t, "Start"
5, 480, Control_c, 1, 11, 100
5, 480, Control_c, 1, 10, 64
5, 480, Note_on_c, 1, 50, 127
5, 960, Note_on_c, 1, 50, 0
5, 1200, Note_on_c, 1, 57, 127
5, 1440, Note_on_c, 1, 57, 0
5, 1440, Note_on_c, 1, 48, 127
5, 1680, Note_on_c, 1, 48, 0
5, 1920, Control_c, 1, 11, 68
5, 1920, Note_on_c, 1, 55, 127
5, 2160, Note_on_c, 1, 55, 0
5, 2160, Control_c, 1, 11, 126
5, 2160, Note_on_c, 1, 53, 127
5, 2400, Note_on_c, 1, 53, 0
5, 3300, Note_on_c, 1, 50, 127
5, 3360, Note_on_c, 1, 50, 0
5, 3360, Note_on_c, 1, 48, 127
5, 3600, Note_on_c, 1, 48, 0
5, 3600, Note_on_c, 1, 55, 127
5, 4080, Note_on_c, 1, 55, 0
5, 4320, Control_c, 1, 11, 99
5, 4320, Note_on_c, 1, 46, 127
5, 4800, Note_on_c, 1, 46, 0
5, 5040, Note_on_c, 1, 45, 127
5, 5760, Note_on_c, 1, 45, 0
5, 5940, Note_on_c, 1, 45, 127
5, 6000, Note_on_c, 1, 45, 0
5, 6000, Note_on_c, 1, 43, 127
5, 6420, Note_on_c, 1, 52, 127
5, 6480, Note_on_c, 1, 43, 0
5, 6480, Note_on_c, 1, 52, 0
5, 6480, Control_c, 1, 11, 73
5, 6480, Note_on_c, 1, 53, 127
5, 6720, Note_on_c, 1, 53, 0
5, 6720, Note_on_c, 1, 59, 127
5, 6960, Note_on_c, 1, 59, 0
5, 6960, Control_c, 1, 11, 54
5, 6960, Note_on_c, 1, 62, 127
5, 7920, Note_on_c, 1, 62, 0
5, 8160, Control_c, 1, 11, 96
5, 8160, Note_on_c, 1, 50, 127
5, 8640, Note_on_c, 1, 50, 0
5, 8640, Note_on_c, 1, 62, 127
5, 8640, Note_on_c, 1, 65, 127
5, 8880, Note_on_c, 1, 62, 0
5, 8880, Note_on_c, 1, 65, 0
5, 8880, Note_on_c, 1, 57, 127
5, 9120, Note_on_c, 1, 57, 0
5, 9120, Note_on_c, 1, 48, 127
5, 9360, Note_on_c, 1, 48, 0
5, 9360, Note_on_c, 1, 58, 127
5, 9360, Note_on_c, 1, 64, 127
5, 9600, Note_on_c, 1, 58, 0
5, 9600, Note_on_c, 1, 64, 0
5, 9600, Note_on_c, 1, 55, 127
5, 9840, Note_on_c, 1, 55, 0
5, 9840, Note_on_c, 1, 53, 127
5, 10080, Note_on_c, 1, 53, 0
5, 10320, Note_on_c, 1, 60, 127
5, 10560, Note_on_c, 1, 60, 0
5, 10560, Note_on_c, 1, 65, 127
5, 10560, Note_on_c, 1, 69, 127
5, 10800, Note_on_c, 1, 65, 0
5, 10800, Note_on_c, 1, 69, 0
5, 10800, Note_on_c, 1, 60, 127
5, 11040, Note_on_c, 1, 60, 0
5, 11040, Note_on_c, 1, 46, 127
5, 11280, Note_on_c, 1, 46, 0
5, 11280, Note_on_c, 1, 53, 127
5, 11520, Note_on_c, 1, 53, 0
5, 11520, Note_on_c, 1, 57, 127
5, 11520, Note_on_c, 1, 62, 127
5, 11760, Note_on_c, 1, 57, 0
5, 11760, Note_on_c, 1, 62, 0
5, 11880, Note_on_c, 1, 45, 127
5, 11940, Note_on_c, 1, 45, 0
5, 11940, Note_on_c, 1, 46, 127
5, 12000, Note_on_c, 1, 46, 0
5, 12000, Note_on_c, 1, 43, 127
5, 12240, Note_on_c, 1, 43, 0
5, 12240, Note_on_c, 1, 53, 127
5, 12480, Note_on_c, 1, 53, 0
5, 12480, Note_on_c, 1, 57, 127
5, 12720, Note_on_c, 1, 57, 0
5, 12720, Note_on_c, 1, 58, 127
5, 12960, Note_on_c, 1, 58, 0
5, 12960, Note_on_c, 1, 60, 127
5, 13200, Note_on_c, 1, 60, 0
5, 13200, Note_on_c, 1, 62, 127
5, 13440, Note_on_c, 1, 62, 0
5, 13440, Note_on_c, 1, 64, 127
5, 13680, Note_on_c, 1, 64, 0
5, 13680, Note_on_c, 1, 55, 127
5, 13680, Note_on_c, 1, 45, 127
5, 13920, Note_on_c, 1, 55, 0
5, 13920, Note_on_c, 1, 45, 0
5, 16080, Note_on_c, 1, 67, 127
5, 16080, Note_on_c, 1, 60, 127
5, 16080, Note_on_c, 1, 55, 127
5, 16080, Note_on_c, 1, 45, 127
5, 16320, Note_on_c, 1, 67, 0
5, 16320, Note_on_c, 1, 60, 0
5, 16320, Control_c, 1, 11, 118
5, 16320, Note_on_c, 1, 57, 127
5, 16560, Note_on_c, 1, 57, 0
5, 16560, Note_on_c, 1, 55, 0
5, 16560, Note_on_c, 1, 45, 0
5, 16560, Control_c, 1, 11, 74
5, 16800, Control_c, 1, 11, 93
5, 16800, Note_on_c, 1, 50, 127
5, 17040, Note_on_c, 1, 50, 0
5, 17040, Control_c, 1, 11, 52
5, 17040, Note_on_c, 1, 53, 127
5, 17280, Note_on_c, 1, 53, 0
5, 17280, Control_c, 1, 11, 115
5, 17280, Note_on_c, 1, 57, 127
5, 17520, Note_on_c, 1, 57, 0
5, 17760, Control_c, 1, 11, 98
5, 17760, Note_on_c, 1, 48, 127
5, 18000, Note_on_c, 1, 48, 0
5, 18000, Note_on_c, 1, 55, 127
5, 18240, Note_on_c, 1, 55, 0
5, 18240, Note_on_c, 1, 58, 127
5, 18360, Note_on_c, 1, 58, 0
5, 18480, Control_c, 1, 11, 61
5, 18480, Note_on_c, 1, 53, 127
5, 18720, Note_on_c, 1, 53, 0
5, 18720, Control_c, 1, 11, 68
5, 18960, Note_on_c, 1, 57, 127
5, 19200, Note_on_c, 1, 57, 0
5, 19200, Note_on_c, 1, 60, 127
5, 19680, Note_on_c, 1, 60, 0
5, 19680, Note_on_c, 1, 48, 127
5, 19860, Note_on_c, 1, 53, 127
5, 19920, Note_on_c, 1, 48, 0
5, 19920, Note_on_c, 1, 53, 0
5, 19920, Control_c, 1, 11, 111
5, 19920, Note_on_c, 1, 55, 127
5, 20160, Note_on_c, 1, 55, 0
5, 20160, Control_c, 1, 11, 81
5, 20160, Note_on_c, 1, 58, 127
5, 20640, Note_on_c, 1, 58, 0
5, 20640, Note_on_c, 1, 46, 127
5, 20880, Note_on_c, 1, 46, 0
5, 20880, Control_c, 1, 11, 111
5, 20880, Note_on_c, 1, 53, 127
5, 21120, Note_on_c, 1, 53, 0
5, 21120, Control_c, 1, 11, 87
5, 21120, Note_on_c, 1, 57, 127
5, 21360, Note_on_c, 1, 57, 0
5, 21360, Control_c, 1, 11, 113
5, 21360, Note_on_c, 1, 45, 127
5, 21840, Note_on_c, 1, 45, 0
5, 21840, Control_c, 1, 11, 82
5, 21840, Note_on_c, 1, 52, 127
5, 22080, Note_on_c, 1, 52, 0
5, 22080, Note_on_c, 1, 55, 127
5, 22260, Note_on_c, 1, 52, 127
5, 22320, Note_on_c, 1, 55, 0
5, 22320, Note_on_c, 1, 52, 0
5, 22320, Note_on_c, 1, 50, 127
5, 22560, Note_on_c, 1, 50, 0
5, 22740, Note_on_c, 1, 52, 127
5, 22800, Note_on_c, 1, 52, 0
5, 22800, Control_c, 1, 11, 109
5, 22800, Note_on_c, 1, 53, 127
5, 23040, Note_on_c, 1, 53, 0
5, 23040, Note_on_c, 1, 57, 127
5, 23280, Note_on_c, 1, 57, 0
5, 23760, Control_c, 1, 11, 74
5, 23760, Note_on_c, 1, 55, 127
5, 24000, Note_on_c, 1, 55, 0
5, 24000, Note_on_c, 1, 52, 127
5, 24120, Note_on_c, 1, 52, 0
5, 24240, Note_on_c, 1, 48, 127
5, 24360, Note_on_c, 1, 48, 0
5, 24480, Control_c, 1, 11, 83
5, 24480, Note_on_c, 1, 50, 127
5, 24600, Note_on_c, 1, 50, 0
5, 24720, Note_on_c, 1, 53, 127
5, 24840, Note_on_c, 1, 53, 0
5, 24960, Note_on_c, 1, 57, 127
5, 25200, Note_on_c, 1, 57, 0
5, 25440, Note_on_c, 1, 48, 127
5, 25680, Note_on_c, 1, 48, 0
5, 25680, Control_c, 1, 11, 100
5, 25680, Note_on_c, 1, 55, 127
5, 25800, Note_on_c, 1, 55, 0
5, 25920, Control_c, 1, 11, 106
5, 25920, Note_on_c, 1, 58, 127
5, 26160, Note_on_c, 1, 58, 0
5, 26160, Control_c, 1, 11, 77
5, 26160, Note_on_c, 1, 53, 127
5, 26640, Note_on_c, 1, 53, 0
5, 26640, Note_on_c, 1, 57, 127
5, 26880, Note_on_c, 1, 57, 0
5, 26880, Note_on_c, 1, 60, 127
5, 27120, Note_on_c, 1, 60, 0
5, 27360, Note_on_c, 1, 48, 127
5, 27540, Note_on_c, 1, 53, 127
5, 27600, Note_on_c, 1, 48, 0
5, 27600, Note_on_c, 1, 53, 0
5, 27600, Note_on_c, 1, 55, 127
5, 27840, Note_on_c, 1, 55, 0
5, 27840, Note_on_c, 1, 58, 127
5, 28080, Note_on_c, 1, 58, 0
5, 28320, Control_c, 1, 11, 94
5, 28320, Note_on_c, 1, 46, 127
5, 28560, Note_on_c, 1, 46, 0
5, 28560, Note_on_c, 1, 53, 127
5, 28680, Note_on_c, 1, 53, 0
5, 28800, Note_on_c, 1, 57, 127
5, 29040, Note_on_c, 1, 57, 0
5, 29040, Note_on_c, 1, 45, 127
5, 29520, Note_on_c, 1, 45, 0
5, 29520, Note_on_c, 1, 52, 127
5, 29760, Note_on_c, 1, 52, 0
5, 29760, Note_on_c, 1, 55, 127
5, 29940, Note_on_c, 1, 41, 127
5, 30000, Note_on_c, 1, 55, 0
5, 30000, Note_on_c, 1, 41, 0
5, 30000, Control_c, 1, 11, 104
5, 30000, Note_on_c, 1, 43, 127
5, 30240, Note_on_c, 1, 43, 0
5, 30420, Note_on_c, 1, 52, 127
5, 30480, Note_on_c, 1, 52, 0
5, 30480, Note_on_c, 1, 53, 127
5, 30720, Note_on_c, 1, 53, 0
5, 30720, Control_c, 1, 11, 76
5, 30720, Note_on_c, 1, 59, 127
5, 30960, Note_on_c, 1, 59, 0
5, 30960, Note_on_c, 1, 62, 127
5, 31200, Note_on_c, 1, 62, 0
5, 31440, Note_on_c, 1, 55, 127
5, 31680, Note_on_c, 1, 55, 0
5, 31680, Note_on_c, 1, 52, 127
5, 31920, Note_on_c, 1, 52, 0
5, 31920, Note_on_c, 1, 48, 127
5, 32160, Note_on_c, 1, 48, 0
5, 32160, Note_on_c, 1, 46, 127
5, 32400, Note_on_c, 1, 46, 0
5, 32400, Note_on_c, 1, 53, 127
5, 32520, Note_on_c, 1, 53, 0
5, 32640, Note_on_c, 1, 57, 127
5, 32880, Note_on_c, 1, 57, 0
5, 32880, Note_on_c, 1, 45, 127
5, 33360, Note_on_c, 1, 45, 0
5, 33360, Note_on_c, 1, 52, 127
5, 33600, Note_on_c, 1, 52, 0
5, 33600, Note_on_c, 1, 55, 127
5, 33840, Note_on_c, 1, 55, 0
5, 33840, Note_on_c, 1, 52, 127
5, 34080, Note_on_c, 1, 52, 0
5, 34080, Control_c, 1, 11, 108
5, 34080, Note_on_c, 1, 43, 127
5, 34140, Note_on_c, 1, 50, 127
5, 34200, Note_on_c, 1, 53, 127
5, 34560, Note_on_c, 1, 43, 0
5, 34560, Control_c, 1, 11, 113
5, 34620, Note_on_c, 1, 50, 0
5, 34680, Note_on_c, 1, 53, 0
5, 34800, Note_on_c, 1, 45, 127
5, 34860, Note_on_c, 1, 52, 127
5, 34920, Note_on_c, 1, 55, 127
5, 35280, Note_on_c, 1, 45, 0
5, 35340, Note_on_c, 1, 52, 0
5, 35400, Note_on_c, 1, 55, 0
5, 36000, Control_c, 1, 11, 84
5, 36000, Note_on_c, 1, 50, 127
5, 36240, Note_on_c, 1, 50, 0
5, 36240, Note_on_c, 1, 53, 127
5, 36480, Note_on_c, 1, 53, 0
5, 36480, Note_on_c, 1, 57, 127
5, 36720, Note_on_c, 1, 57, 0
5, 36960, Note_on_c, 1, 48, 127
5, 37200, Note_on_c, 1, 48, 0
5, 37200, Note_on_c, 1, 55, 127
5, 37440, Note_on_c, 1, 55, 0
5, 37440, Note_on_c, 1, 58, 127
5, 37680, Note_on_c, 1, 58, 0
5, 37680, Note_on_c, 1, 53, 127
5, 37920, Note_on_c, 1, 53, 0
5, 38160, Note_on_c, 1, 57, 127
5, 38400, Note_on_c, 1, 57, 0
5, 38400, Note_on_c, 1, 60, 127
5, 38640, Note_on_c, 1, 60, 0
5, 38880, Control_c, 1, 11, 119
5, 38880, Note_on_c, 1, 48, 127
5, 39060, Note_on_c, 1, 53, 127
5, 39120, Note_on_c, 1, 48, 0
5, 39120, Note_on_c, 1, 53, 0
5, 39120, Control_c, 1, 11, 94
5, 39120, Note_on_c, 1, 55, 127
5, 39360, Note_on_c, 1, 55, 0
5, 39360, Note_on_c, 1, 58, 127
5, 39600, Note_on_c, 1, 58, 0
5, 39840, Note_on_c, 1, 46, 127
5, 40080, Note_on_c, 1, 46, 0
5, 40080, Note_on_c, 1, 53, 127
5, 40320, Note_on_c, 1, 53, 0
5, 40320, Note_on_c, 1, 57, 127
5, 40560, Note_on_c, 1, 57, 0
5, 40560, Note_on_c, 1, 45, 127
5, 40800, Note_on_c, 1, 45, 0
5, 41040, Note_on_c, 1, 52, 127
5, 41280, Note_on_c, 1, 52, 0
5, 41280, Note_on_c, 1, 55, 127
5, 41460, Note_on_c, 1, 48, 127
5, 41520, Note_on_c, 1, 55, 0
5, 41520, Note_on_c, 1, 48, 0
5, 41520, Control_c, 1, 11, 109
5, 41520, Note_on_c, 1, 50, 127
5, 41760, Note_on_c, 1, 50, 0
5, 41940, Note_on_c, 1, 52, 127
5, 42000, Note_on_c, 1, 52, 0
5, 42000, Note_on_c, 1, 53, 127
5, 42240, Note_on_c, 1, 53, 0
5, 42240, Control_c, 1, 11, 78
5, 42240, Note_on_c, 1, 57, 127
5, 42480, Note_on_c, 1, 57, 0
5, 42960, Note_on_c, 1, 55, 127
5, 43200, Note_on_c, 1, 55, 0
5, 43200, Note_on_c, 1, 52, 127
5, 43320, Note_on_c, 1, 52, 0
5, 43440, Note_on_c, 1, 48, 127
5, 43680, Note_on_c, 1, 48, 0
5, 43680, Note_on_c, 1, 50, 127
5, 43920, Note_on_c, 1, 50, 0
5, 43920, Note_on_c, 1, 53, 127
5, 44160, Note_on_c, 1, 53, 0
5, 44160, Note_on_c, 1, 57, 127
5, 44400, Note_on_c, 1, 57, 0
5, 44640, Note_on_c, 1, 48, 127
5, 44880, Note_on_c, 1, 48, 0
5, 44880, Note_on_c, 1, 55, 127
5, 45120, Note_on_c, 1, 55, 0
5, 45120, Note_on_c, 1, 58, 127
5, 45360, Note_on_c, 1, 58, 0
5, 45360, Note_on_c, 1, 53, 127
5, 45600, Note_on_c, 1, 53, 0
5, 45840, Note_on_c, 1, 57, 127
5, 46080, Note_on_c, 1, 57, 0
5, 46080, Note_on_c, 1, 60, 127
5, 46320, Note_on_c, 1, 60, 0
5, 46560, Control_c, 1, 11, 97
5, 46560, Note_on_c, 1, 48, 127
5, 46740, Note_on_c, 1, 53, 127
5, 46800, Note_on_c, 1, 48, 0
5, 46800, Note_on_c, 1, 53, 0
5, 46800, Control_c, 1, 11, 98
5, 46800, Note_on_c, 1, 55, 127
5, 47040, Note_on_c, 1, 55, 0
5, 47040, Control_c, 1, 11, 82
5, 47040, Note_on_c, 1, 58, 127
5, 47280, Note_on_c, 1, 58, 0
5, 47520, Note_on_c, 1, 46, 127
5, 47760, Note_on_c, 1, 46, 0
5, 47760, Note_on_c, 1, 53, 127
5, 48000, Note_on_c, 1, 53, 0
5, 48000, Note_on_c, 1, 57, 127
5, 48240, Note_on_c, 1, 57, 0
5, 48240, Note_on_c, 1, 45, 127
5, 48480, Note_on_c, 1, 45, 0
5, 48720, Note_on_c, 1, 52, 127
5, 48960, Note_on_c, 1, 52, 0
5, 48960, Note_on_c, 1, 55, 127
5, 49140, Note_on_c, 1, 41, 127
5, 49200, Note_on_c, 1, 55, 0
5, 49200, Note_on_c, 1, 41, 0
5, 49200, Control_c, 1, 11, 108
5, 49200, Note_on_c, 1, 43, 127
5, 49440, Note_on_c, 1, 43, 0
5, 49620, Note_on_c, 1, 52, 127
5, 49680, Note_on_c, 1, 52, 0
5, 49680, Note_on_c, 1, 53, 127
5, 49920, Note_on_c, 1, 53, 0
5, 49920, Control_c, 1, 11, 86
5, 49920, Note_on_c, 1, 59, 127
5, 50160, Note_on_c, 1, 59, 0
5, 50160, Note_on_c, 1, 62, 127
5, 50400, Note_on_c, 1, 62, 0
5, 50640, Note_on_c, 1, 55, 127
5, 50880, Note_on_c, 1, 55, 0
5, 50880, Note_on_c, 1, 52, 127
5, 51000, Note_on_c, 1, 52, 0
5, 51120, Note_on_c, 1, 48, 127
5, 51240, Note_on_c, 1, 48, 0
5, 51360, Note_on_c, 1, 46, 127
5, 51420, Note_on_c, 1, 50, 127
5, 51480, Note_on_c, 1, 53, 127
5, 51540, Note_on_c, 1, 57, 127
5, 52320, Note_on_c, 1, 46, 0
5, 52320, Note_on_c, 1, 45, 127
5, 52380, Note_on_c, 1, 50, 0
5, 52380, Note_on_c, 1, 48, 127
5, 52440, Note_on_c, 1, 53, 0
5, 52440, Note_on_c, 1, 52, 127
5, 52500, Note_on_c, 1, 57, 0
5, 52500, Note_on_c, 1, 55, 127
5, 53280, Note_on_c, 1, 45, 0
5, 53280, Note_on_c, 1, 43, 127
5, 53340, Note_on_c, 1, 48, 0
5, 53400, Note_on_c, 1, 52, 0
5, 53460, Note_on_c, 1, 55, 0
5, 53520, Note_on_c, 1, 43, 0
5, 53520, Note_on_c, 1, 53, 127
5, 53760, Note_on_c, 1, 53, 0
5, 53760, Note_on_c, 1, 59, 127
5, 54000, Note_on_c, 1, 59, 0
5, 54000, Note_on_c, 1, 62, 127
5, 54240, Note_on_c, 1, 62, 0
5, 54480, Control_c, 1, 11, 106
5, 54480, Note_on_c, 1, 67, 127
5, 54720, Note_on_c, 1, 67, 0
5, 54720, Control_c, 1, 11, 84
5, 54720, Note_on_c, 1, 62, 127
5, 54960, Note_on_c, 1, 62, 0
5, 54960, Note_on_c, 1, 60, 127
5, 55200, Note_on_c, 1, 60, 0
5, 55200, Control_c, 1, 11, 93
5, 55200, Note_on_c, 1, 55, 127
5, 55260, Note_on_c, 1, 58, 127
5, 55320, Note_on_c, 1, 62, 127
5, 55380, Note_on_c, 1, 65, 127
5, 56160, Note_on_c, 1, 55, 0
5, 56160, Control_c, 1, 11, 72
5, 56160, Note_on_c, 1, 57, 127
5, 56220, Note_on_c, 1, 58, 0
5, 56220, Note_on_c, 1, 60, 127
5, 56280, Note_on_c, 1, 62, 0
5, 56280, Note_on_c, 1, 64, 127
5, 56340, Note_on_c, 1, 65, 0
5, 56340, Note_on_c, 1, 67, 127
5, 56640, Note_on_c, 1, 57, 0
5, 56700, Note_on_c, 1, 60, 0
5, 56760, Note_on_c, 1, 64, 0
5, 56820, Note_on_c, 1, 67, 0
5, 57120, Note_on_c, 1, 53, 127
5, 57180, Note_on_c, 1, 57, 127
5, 57240, Note_on_c, 1, 60, 127
5, 58080, Note_on_c, 1, 53, 0
5, 58080, Note_on_c, 1, 48, 127
5, 58140, Note_on_c, 1, 57, 0
5, 58140, Note_on_c, 1, 52, 127
5, 58200, Note_on_c, 1, 60, 0
5, 58200, Note_on_c, 1, 55, 127
5, 59040, Note_on_c, 1, 48, 0
5, 59040, Note_on_c, 1, 50, 127
5, 59100, Note_on_c, 1, 52, 0
5, 59100, Note_on_c, 1, 53, 127
5, 59160, Note_on_c, 1, 55, 0
5, 59160, Note_on_c, 1, 57, 127
5, 60000, Note_on_c, 1, 50, 0
5, 60000, Note_on_c, 1, 46, 127
5, 60060, Note_on_c, 1, 53, 0
5, 60120, Note_on_c, 1, 57, 0
5, 60240, Note_on_c, 1, 46, 0
5, 60240, Note_on_c, 1, 53, 127
5, 60480, Note_on_c, 1, 53, 0
5, 60480, Note_on_c, 1, 48, 127
5, 60720, Note_on_c, 1, 48, 0
5, 60720, Note_on_c, 1, 55, 127
5, 60960, Note_on_c, 1, 55, 0
5, 60960, Note_on_c, 1, 53, 127
5, 61020, Note_on_c, 1, 57, 127
5, 61080, Note_on_c, 1, 60, 127
5, 61920, Note_on_c, 1, 53, 0
5, 61920, Note_on_c, 1, 48, 127
5, 61980, Note_on_c, 1, 57, 0
5, 61980, Note_on_c, 1, 52, 127
5, 62040, Note_on_c, 1, 60, 0
5, 62040, Note_on_c, 1, 55, 127
5, 62880, Note_on_c, 1, 48, 0
5, 62880, Note_on_c, 1, 46, 127
5, 62940, Note_on_c, 1, 52, 0
5, 63000, Note_on_c, 1, 55, 0
5, 63120, Note_on_c, 1, 46, 0
5, 63120, Note_on_c, 1, 53, 127
5, 63360, Note_on_c, 1, 53, 0
5, 63360, Note_on_c, 1, 58, 127
5, 63840, Note_on_c, 1, 58, 0
5, 63840, Control_c, 1, 11, 60
5, 63840, Note_on_c, 1, 53, 127
5, 63840, Note_on_c, 1, 50, 127
5, 64320, Note_on_c, 1, 53, 0
5, 64320, Note_on_c, 1, 50, 0
5, 64320, Note_on_c, 1, 55, 127
5, 64320, Note_on_c, 1, 48, 127
5, 64800, Note_on_c, 1, 55, 0
5, 64800, Note_on_c, 1, 48, 0
5, 64800, Control_c, 1, 11, 74
5, 64800, Note_on_c, 1, 53, 127
5, 64860, Note_on_c, 1, 57, 127
5, 64920, Note_on_c, 1, 60, 127
5, 65760, Note_on_c, 1, 53, 0
5, 65760, Note_on_c, 1, 48, 127
5, 65820, Note_on_c, 1, 57, 0
5, 65820, Note_on_c, 1, 52, 127
5, 65880, Note_on_c, 1, 60, 0
5, 65880, Note_on_c, 1, 55, 127
5, 66720, Note_on_c, 1, 48, 0
5, 66720, Control_c, 1, 11, 91
5, 66720, Note_on_c, 1, 50, 127
5, 66780, Note_on_c, 1, 52, 0
5, 66780, Note_on_c, 1, 53, 127
5, 66840, Note_on_c, 1, 55, 0
5, 66840, Note_on_c, 1, 57, 127
5, 67680, Note_on_c, 1, 50, 0
5, 67680, Control_c, 1, 11, 76
5, 67680, Note_on_c, 1, 46, 127
5, 67740, Note_on_c, 1, 53, 0
5, 67800, Note_on_c, 1, 57, 0
5, 67920, Note_on_c, 1, 46, 0
5, 67920, Note_on_c, 1, 53, 127
5, 68160, Note_on_c, 1, 53, 0
5, 68160, Note_on_c, 1, 48, 127
5, 68400, Note_on_c, 1, 48, 0
5, 68400, Note_on_c, 1, 55, 127
5, 68640, Note_on_c, 1, 55, 0
5, 68640, Note_on_c, 1, 53, 127
5, 68700, Note_on_c, 1, 57, 127
5, 68760, Note_on_c, 1, 60, 127
5, 69600, Note_on_c, 1, 53, 0
5, 69600, Note_on_c, 1, 45, 127
5, 69660, Note_on_c, 1, 57, 0
5, 69660, Note_on_c, 1, 48, 127
5, 69720, Note_on_c, 1, 60, 0
5, 69720, Note_on_c, 1, 52, 127
5, 70560, Note_on_c, 1, 45, 0
5, 70560, Note_on_c, 1, 46, 127
5, 70620, Note_on_c, 1, 48, 0
5, 70680, Note_on_c, 1, 52, 0
5, 70800, Note_on_c, 1, 46, 0
5, 70800, Note_on_c, 1, 53, 127
5, 71040, Note_on_c, 1, 53, 0
5, 71040, Note_on_c, 1, 58, 127
5, 71280, Note_on_c, 1, 58, 0
5, 71280, Control_c, 1, 11, 97
5, 71280, Note_on_c, 1, 62, 127
5, 71760, Note_on_c, 1, 62, 0
5, 71760, Note_on_c, 1, 65, 127
5, 72240, Note_on_c, 1, 65, 0
5, 72240, Note_on_c, 1, 62, 127
5, 72480, Note_on_c, 1, 62, 0
5, 72480, Control_c, 1, 11, 93
5, 72480, Note_on_c, 1, 53, 127
5, 72540, Note_on_c, 1, 57, 127
5, 72600, Note_on_c, 1, 62, 127
5, 72660, Note_on_c, 1, 65, 127
5, 73440, Note_on_c, 1, 53, 0
5, 73500, Note_on_c, 1, 57, 0
5, 73560, Note_on_c, 1, 62, 0
5, 73620, Note_on_c, 1, 65, 0
5, 74400, Note_on_c, 1, 45, 127
5, 74640, Note_on_c, 1, 45, 0
5, 74640, Note_on_c, 1, 52, 127
5, 74880, Note_on_c, 1, 52, 0
5, 74880, Note_on_c, 1, 55, 127
5, 75120, Note_on_c, 1, 55, 0
5, 75120, Note_on_c, 1, 60, 127
5, 75600, Note_on_c, 1, 60, 0
5, 75600, Note_on_c, 1, 62, 127
5, 76080, Note_on_c, 1, 62, 0
5, 76080, Note_on_c, 1, 64, 127
5, 76200, Note_on_c, 1, 52, 127
5, 76260, Note_on_c, 1, 57, 127
5, 76320, Note_on_c, 1, 64, 0
5, 76320, Note_on_c, 1, 60, 127
5, 76380, Note_on_c, 1, 64, 127
5, 76440, Control_c, 1, 11, 109
5, 76440, Note_on_c, 1, 67, 127
5, 76560, Control_c, 1, 11, 92
5, 78120, Note_on_c, 1, 52, 0
5, 78180, Note_on_c, 1, 57, 0
5, 78240, Note_on_c, 1, 60, 0
5, 78240, Note_on_c, 1, 46, 127
5, 78300, Note_on_c, 1, 64, 0
5, 78360, Note_on_c, 1, 67, 0
5, 78480, Note_on_c, 1, 46, 0
5, 78480, Note_on_c, 1, 53, 127
5, 78720, Note_on_c, 1, 53, 0
5, 78720, Note_on_c, 1, 57, 127
5, 78960, Note_on_c, 1, 57, 0
5, 78960, Note_on_c, 1, 62, 127
5, 79440, Note_on_c, 1, 62, 0
5, 79440, Note_on_c, 1, 65, 127
5, 79920, Note_on_c, 1, 65, 0
5, 79920, Note_on_c, 1, 67, 127
5, 80040, Note_on_c, 1, 53, 127
5, 80100, Note_on_c, 1, 58, 127
5, 80160, Note_on_c, 1, 67, 0
5, 80160, Note_on_c, 1, 62, 127
5, 80220, Note_on_c, 1, 65, 127
5, 80280, Control_c, 1, 11, 93
5, 80280, Note_on_c, 1, 69, 127
5, 80400, Control_c, 1, 11, 92
5, 81960, Note_on_c, 1, 53, 0
5, 82020, Note_on_c, 1, 58, 0
5, 82080, Note_on_c, 1, 62, 0
5, 82080, Note_on_c, 1, 45, 127
5, 82140, Note_on_c, 1, 65, 0
5, 82200, Note_on_c, 1, 69, 0
5, 82320, Note_on_c, 1, 45, 0
5, 82320, Note_on_c, 1, 52, 127
5, 82560, Note_on_c, 1, 52, 0
5, 82560, Note_on_c, 1, 62, 127
5, 82800, Note_on_c, 1, 62, 0
5, 82800, Note_on_c, 1, 64, 127
5, 83280, Note_on_c, 1, 64, 0
5, 83280, Note_on_c, 1, 60, 127
5, 83760, Note_on_c, 1, 60, 0
5, 83760, Note_on_c, 1, 64, 127
5, 84000, Note_on_c, 1, 64, 0
5, 84000, Note_on_c, 1, 57, 127
5, 84060, Note_on_c, 1, 60, 127
5, 84120, Note_on_c, 1, 64, 127
5, 84180, Control_c, 1, 11, 90
5, 84180, Note_on_c, 1, 67, 127
5, 84300, Control_c, 1, 11, 91
5, 84480, Note_on_c, 1, 57, 0
5, 84540, Note_on_c, 1, 60, 0
5, 84600, Note_on_c, 1, 64, 0
5, 84660, Note_on_c, 1, 67, 0
5, 85920, Note_on_c, 1, 46, 127
5, 85920, Note_on_c, 1, 65, 127
5, 85980, Note_on_c, 1, 53, 127
5, 85980, Note_on_c, 1, 70, 127
5, 86040, Note_on_c, 1, 57, 127
5, 86040, Note_on_c, 1, 74, 127
5, 87840, Note_on_c, 1, 46, 0
5, 87840, Note_on_c, 1, 65, 0
5, 87840, Control_c, 1, 11, 65
5, 87840, Note_on_c, 1, 45, 127
5, 87900, Note_on_c, 1, 53, 0
5, 87900, Note_on_c, 1, 70, 0
5, 87900, Note_on_c, 1, 52, 127
5, 87960, Note_on_c, 1, 57, 0
5, 87960, Note_on_c, 1, 74, 0
5, 87960, Note_on_c, 1, 55, 127
5, 88320, Note_on_c, 1, 64, 127
5, 89280, Note_on_c, 1, 64, 0
5, 89280, Control_c, 1, 11, 83
5, 89280, Note_on_c, 1, 57, 127
5, 89520, Note_on_c, 1, 57, 0
5, 89760, Note_on_c, 1, 45, 0
5, 89760, Note_on_c, 1, 52, 0
5, 89760, Note_on_c, 1, 55, 0
5, 89760, Control_c, 1, 11, 84
5, 89760, Note_on_c, 1, 50, 127
5, 90000, Note_on_c, 1, 50, 0
5, 90000, Note_on_c, 1, 53, 127
5, 90240, Note_on_c, 1, 53, 0
5, 90240, Note_on_c, 1, 57, 127
5, 90480, Note_on_c, 1, 57, 0
5, 90720, Note_on_c, 1, 48, 127
5, 90960, Note_on_c, 1, 48, 0
5, 90960, Note_on_c, 1, 55, 127
5, 91200, Note_on_c, 1, 55, 0
5, 91200, Note_on_c, 1, 58, 127
5, 91440, Note_on_c, 1, 58, 0
5, 91440, Note_on_c, 1, 53, 127
5, 91680, Note_on_c, 1, 53, 0
5, 91920, Note_on_c, 1, 57, 127
5, 92160, Note_on_c, 1, 57, 0
5, 92160, Note_on_c, 1, 60, 127
5, 92400, Note_on_c, 1, 60, 0
5, 92640, Control_c, 1, 11, 119
5, 92640, Note_on_c, 1, 48, 127
5, 92820, Note_on_c, 1, 53, 127
5, 92880, Note_on_c, 1, 48, 0
5, 92880, Note_on_c, 1, 53, 0
5, 92880, Control_c, 1, 11, 94
5, 92880, Note_on_c, 1, 55, 127
5, 93120, Note_on_c, 1, 55, 0
5, 93120, Note_on_c, 1, 58, 127
5, 93360, Note_on_c, 1, 58, 0
5, 93600, Note_on_c, 1, 46, 127
5, 93840, Note_on_c, 1, 46, 0
5, 93840, Note_on_c, 1, 53, 127
5, 94080, Note_on_c, 1, 53, 0
5, 94080, Note_on_c, 1, 57, 127
5, 94320, Note_on_c, 1, 57, 0
5, 94320, Note_on_c, 1, 45, 127
5, 94560, Note_on_c, 1, 45, 0
5, 94800, Note_on_c, 1, 52, 127
5, 95040, Note_on_c, 1, 52, 0
5, 95040, Note_on_c, 1, 55, 127
5, 95220, Note_on_c, 1, 48, 127
5, 95280, Note_on_c, 1, 55, 0
5, 95280, Note_on_c, 1, 48, 0
5, 95280, Control_c, 1, 11, 109
5, 95280, Note_on_c, 1, 50, 127
5, 95520, Note_on_c, 1, 50, 0
5, 95700, Note_on_c, 1, 52, 127
5, 95760, Note_on_c, 1, 52, 0
5, 95760, Note_on_c, 1, 53, 127
5, 96000, Note_on_c, 1, 53, 0
5, 96000, Control_c, 1, 11, 78
5, 96000, Note_on_c, 1, 57, 127
5, 96240, Note_on_c, 1, 57, 0
5, 96720, Note_on_c, 1, 55, 127
5, 96960, Note_on_c, 1, 55, 0
5, 96960, Note_on_c, 1, 52, 127
5, 97080, Note_on_c, 1, 52, 0
5, 97200, Note_on_c, 1, 48, 127
5, 97440, Note_on_c, 1, 48, 0
5, 97440, Note_on_c, 1, 50, 127
5, 97680, Note_on_c, 1, 50, 0
5, 97680, Note_on_c, 1, 53, 127
5, 97920, Note_on_c, 1, 53, 0
5, 97920, Note_on_c, 1, 57, 127
5, 98160, Note_on_c, 1, 57, 0
5, 98400, Note_on_c, 1, 48, 127
5, 98640, Note_on_c, 1, 48, 0
5, 98640, Note_on_c, 1, 55, 127
5, 98880, Note_on_c, 1, 55, 0
5, 98880, Note_on_c, 1, 58, 127
5, 99120, Note_on_c, 1, 58, 0
5, 99120, Note_on_c, 1, 53, 127
5, 99360, Note_on_c, 1, 53, 0
5, 99600, Note_on_c, 1, 57, 127
5, 99840, Note_on_c, 1, 57, 0
5, 99840, Note_on_c, 1, 60, 127
5, 100080, Note_on_c, 1, 60, 0
5, 100320, Control_c, 1, 11, 97
5, 100320, Note_on_c, 1, 48, 127
5, 100500, Note_on_c, 1, 53, 127
5, 100560, Note_on_c, 1, 48, 0
5, 100560, Note_on_c, 1, 53, 0
5, 100560, Control_c, 1, 11, 98
5, 100560, Note_on_c, 1, 55, 127
5, 100800, Note_on_c, 1, 55, 0
5, 100800, Control_c, 1, 11, 82
5, 100800, Note_on_c, 1, 58, 127
5, 101040, Note_on_c, 1, 58, 0
5, 101280, Note_on_c, 1, 46, 127
5, 101520, Note_on_c, 1, 46, 0
5, 101520, Note_on_c, 1, 53, 127
5, 101760, Note_on_c, 1, 53, 0
5, 101760, Note_on_c, 1, 57, 127
5, 102000, Note_on_c, 1, 57, 0
5, 102000, Note_on_c, 1, 45, 127
5, 102240, Note_on_c, 1, 45, 0
5, 102480, Note_on_c, 1, 52, 127
5, 102720, Note_on_c, 1, 52, 0
5, 102720, Note_on_c, 1, 55, 127
5, 102900, Note_on_c, 1, 41, 127
5, 102960, Note_on_c, 1, 55, 0
5, 102960, Note_on_c, 1, 41, 0
5, 102960, Control_c, 1, 11, 108
5, 102960, Note_on_c, 1, 43, 127
5, 103200, Note_on_c, 1, 43, 0
5, 103380, Note_on_c, 1, 52, 127
5, 103440, Note_on_c, 1, 52, 0
5, 103440, Note_on_c, 1, 53, 127
5, 103680, Note_on_c, 1, 53, 0
5, 103680, Control_c, 1, 11, 86
5, 103680, Note_on_c, 1, 59, 127
5, 103920, Note_on_c, 1, 59, 0
5, 103920, Note_on_c, 1, 62, 127
5, 104160, Note_on_c, 1, 62, 0
5, 104400, Note_on_c, 1, 55, 127
5, 104640, Note_on_c, 1, 55, 0
5, 104640, Note_on_c, 1, 52, 127
5, 104760, Note_on_c, 1, 52, 0
5, 104880, Note_on_c, 1, 48, 127
5, 105000, Note_on_c, 1, 48, 0
5, 105120, Note_on_c, 1, 46, 127
5, 105180, Note_on_c, 1, 50, 127
5, 105240, Note_on_c, 1, 53, 127
5, 105300, Note_on_c, 1, 57, 127
5, 106080, Note_on_c, 1, 46, 0
5, 106080, Note_on_c, 1, 45, 127
5, 106140, Note_on_c, 1, 50, 0
5, 106140, Note_on_c, 1, 48, 127
5, 106200, Note_on_c, 1, 53, 0
5, 106200, Note_on_c, 1, 52, 127
5, 106260, Note_on_c, 1, 57, 0
5, 106260, Note_on_c, 1, 55, 127
5, 107040, Note_on_c, 1, 45, 0
5, 107040, Note_on_c, 1, 43, 127
5, 107100, Note_on_c, 1, 48, 0
5, 107160, Note_on_c, 1, 52, 0
5, 107220, Note_on_c, 1, 55, 0
5, 107280, Note_on_c, 1, 43, 0
5, 107280, Note_on_c, 1, 53, 127
5, 107520, Note_on_c, 1, 53, 0
5, 107520, Note_on_c, 1, 59, 127
5, 107760, Note_on_c, 1, 59, 0
5, 107760, Note_on_c, 1, 62, 127
5, 108000, Note_on_c, 1, 62, 0
5, 108240, Control_c, 1, 11, 106
5, 108240, Note_on_c, 1, 67, 127
5, 108480, Note_on_c, 1, 67, 0
5, 108480, Control_c, 1, 11, 84
5, 108480, Note_on_c, 1, 62, 127
5, 108720, Note_on_c, 1, 62, 0
5, 108720, Note_on_c, 1, 60, 127
5, 108960, Note_on_c, 1, 60, 0
5, 108960, End_track
6, 0, Start_track
6, 0, Title_t, "CH #3"
6, 0, Text_t, "Gt.Fret Noise"
6, 240, Control_c, 2, 7, 78
6, 300, Control_c, 2, 10, 64
6, 360, Control_c, 2, 11, 100
6, 420, Program_c, 2, 120
6, 480, Text_t, "Start"
6, 480, Control_c, 2, 10, 125
6, 480, Control_c, 2, 11, 28
6, 1920, Note_on_c, 2, 55, 127
6, 2040, Note_on_c, 2, 55, 0
6, 5520, Note_on_c, 2, 64, 127
6, 5640, Note_on_c, 2, 64, 0
6, 11280, Note_on_c, 2, 67, 127
6, 11400, Note_on_c, 2, 67, 0
6, 13680, Note_on_c, 2, 55, 127
6, 13800, Note_on_c, 2, 55, 0
6, 19440, Note_on_c, 2, 57, 127
6, 19560, Note_on_c, 2, 57, 0
6, 32160, Note_on_c, 2, 81, 127
6, 32220, Note_on_c, 2, 81, 0
6, 44880, Note_on_c, 2, 67, 127
6, 44940, Note_on_c, 2, 67, 0
6, 47520, Note_on_c, 2, 69, 127
6, 47580, Note_on_c, 2, 69, 0
6, 98640, Note_on_c, 2, 67, 127
6, 98700, Note_on_c, 2, 67, 0
6, 101280, Note_on_c, 2, 69, 127
6, 101340, Note_on_c, 2, 69, 0
6, 108960, Note_on_c, 2, 52, 127
6, 109080, Note_on_c, 2, 52, 0
6, 109560, Note_on_c, 2, 57, 127
6, 109680, Note_on_c, 2, 57, 0
6, 109680, End_track
7, 0, Start_track
7, 0, Title_t, "CH #4"
7, 0, Text_t, "Picked Bs."
7, 240, Control_c, 3, 7, 100
7, 300, Control_c, 3, 10, 64
7, 360, Control_c, 3, 11, 100
7, 420, Program_c, 3, 34
7, 480, Text_t, "Start"
7, 480, Control_c, 3, 11, 100
7, 480, Control_c, 3, 10, 64
7, 36000, Control_c, 3, 10, 113
7, 36480, Note_on_c, 3, 69, 127
7, 36480, Note_on_c, 3, 65, 127
7, 36600, Note_on_c, 3, 69, 0
7, 36600, Note_on_c, 3, 65, 0
7, 37200, Note_on_c, 3, 67, 127
7, 37200, Note_on_c, 3, 64, 127
7, 37320, Note_on_c, 3, 67, 0
7, 37320, Note_on_c, 3, 64, 0
7, 38400, Note_on_c, 3, 69, 127
7, 38400, Note_on_c, 3, 65, 127
7, 38520, Note_on_c, 3, 69, 0
7, 38520, Note_on_c, 3, 65, 0
7, 44160, Note_on_c, 3, 69, 127
7, 44160, Note_on_c, 3, 65, 127
7, 44280, Note_on_c, 3, 69, 0
7, 44280, Note_on_c, 3, 65, 0
7, 44880, Note_on_c, 3, 67, 127
7, 44880, Note_on_c, 3, 64, 127
7, 45000, Note_on_c, 3, 67, 0
7, 45000, Note_on_c, 3, 64, 0
7, 46080, Note_on_c, 3, 69, 127
7, 46080, Note_on_c, 3, 65, 127
7, 46200, Note_on_c, 3, 69, 0
7, 46200, Note_on_c, 3, 65, 0
7, 89760, Control_c, 3, 11, 87
7, 89760, Control_c, 3, 10, 113
7, 90000, Note_on_c, 3, 62, 127
7, 90000, Note_on_c, 3, 60, 127
7, 90120, Note_on_c, 3, 62, 0
7, 90120, Note_on_c, 3, 60, 0
7, 90240, Note_on_c, 3, 62, 127
7, 90240, Note_on_c, 3, 60, 127
7, 90360, Note_on_c, 3, 62, 0
7, 90360, Note_on_c, 3, 60, 0
7, 90960, Note_on_c, 3, 64, 127
7, 90960, Note_on_c, 3, 65, 127
7, 91080, Note_on_c, 3, 64, 0
7, 91080, Note_on_c, 3, 65, 0
7, 91200, Note_on_c, 3, 64, 127
7, 91200, Note_on_c, 3, 65, 127
7, 91320, Note_on_c, 3, 64, 0
7, 91320, Note_on_c, 3, 65, 0
7, 92160, Note_on_c, 3, 69, 127
7, 92160, Note_on_c, 3, 65, 127
7, 92280, Note_on_c, 3, 69, 0
7, 92280, Note_on_c, 3, 65, 0
7, 97920, Note_on_c, 3, 69, 127
7, 97920, Note_on_c, 3, 65, 127
7, 98040, Note_on_c, 3, 69, 0
7, 98040, Note_on_c, 3, 65, 0
7, 98640, Note_on_c, 3, 67, 127
7, 98640, Note_on_c, 3, 64, 127
7, 98760, Note_on_c, 3, 67, 0
7, 98760, Note_on_c, 3, 64, 0
7, 98760, End_track
8, 0, Start_track
8, 0, Title_t, "CH #5"
8, 0, Text_t, "Piano1"
8, 240, Control_c, 4, 7, 100
8, 300, Control_c, 4, 10, 64
8, 360, Control_c, 4, 11, 100
8, 420, Program_c, 4, 0
8, 480, Text_t, "Start"
8, 480, Control_c, 4, 11, 100
8, 480, Control_c, 4, 10, 64
8, 480, End_track
9, 0, Start_track
9, 0, Title_t, "CH #6"
9, 0, Text_t, "Piano1"
9, 240, Control_c, 5, 7, 100
9, 300, Control_c, 5, 10, 64
9, 360, Control_c, 5, 11, 100
9, 420, Program_c, 5, 0
9, 480, Text_t, "Start"
9, 480, Control_c, 5, 11, 100
9, 480, Control_c, 5, 10, 64
9, 480, End_track
10, 0, Start_track
10, 0, Title_t, "CH #7"
10, 0, Text_t, "Piano1"
10, 240, Control_c, 6, 7, 100
10, 300, Control_c, 6, 10, 64
10, 360, Control_c, 6, 11, 100
10, 420, Program_c, 6, 0
10, 480, Text_t, "Start"
10, 480, Control_c, 6, 11, 100
10, 480, Control_c, 6, 10, 64
10, 480, End_track
11, 0, Start_track
11, 0, Title_t, "CH #8"
11, 0, Text_t, "Piano1"
11, 240, Control_c, 7, 7, 100
11, 300, Control_c, 7, 10, 64
11, 360, Control_c, 7, 11, 100
11, 420, Program_c, 7, 0
11, 480, Text_t, "Start"
11, 480, Control_c, 7, 11, 100
11, 480, Control_c, 7, 10, 64
11, 480, End_track
12, 0, Start_track
12, 0, Title_t, "CH #9"
12, 0, Text_t, "Piano1"
12, 240, Control_c, 8, 7, 100
12, 300, Control_c, 8, 10, 64
12, 360, Control_c, 8, 11, 100
12, 420, Program_c, 8, 0
12, 480, Text_t, "Start"
12, 480, Control_c, 8, 11, 100
12, 480, Control_c, 8, 10, 64
12, 480, End_track
13, 0, Start_track
13, 0, Title_t, "CH #10"
13, 0, Text_t, "Piano1"
13, 240, Control_c, 9, 7, 10
13, 300, Control_c, 9, 10, 64
13, 360, Control_c, 9, 11, 100
13, 420, Program_c, 9, 0
13, 480, Text_t, "Start"
13, 480, Control_c, 9, 11, 100
13, 480, Control_c, 9, 10, 64
13, 13920, Control_c, 9, 11, 7
13, 14400, Note_on_c, 9, 37, 127
13, 14520, Note_on_c, 9, 37, 0
13, 14880, Note_on_c, 9, 37, 127
13, 15000, Note_on_c, 9, 37, 0
13, 15360, Note_on_c, 9, 37, 127
13, 15480, Note_on_c, 9, 37, 0
13, 113280, Note_on_c, 9, 37, 127
13, 113400, Note_on_c, 9, 37, 0
13, 113760, Note_on_c, 9, 37, 127
13, 113880, Note_on_c, 9, 37, 0
13, 114240, Control_c, 9, 11, 126
13, 114240, Note_on_c, 9, 42, 127
13, 114360, Note_on_c, 9, 42, 0
13, 114360, End_track
14, 0, Start_track
14, 0, Title_t, "CH #11"
14, 0, Text_t, "Piano1"
14, 240, Control_c, 10, 7, 100
14, 300, Control_c, 10, 10, 64
14, 360, Control_c, 10, 11, 100
14, 420, Program_c, 10, 0
14, 480, Text_t, "Start"
14, 480, Control_c, 10, 11, 100
14, 480, Control_c, 10, 10, 64
14, 480, End_track
15, 0, Start_track
15, 0, Title_t, "CH #12"
15, 0, Text_t, "Piano1"
15, 240, Control_c, 11, 7, 100
15, 300, Control_c, 11, 10, 64
15, 360, Control_c, 11, 11, 100
15, 420, Program_c, 11, 0
15, 480, Text_t, "Start"
15, 480, Control_c, 11, 11, 100
15, 480, Control_c, 11, 10, 64
15, 480, End_track
16, 0, Start_track
16, 0, Title_t, "CH #13"
16, 0, Text_t, "Piano1"
16, 240, Control_c, 12, 7, 100
16, 300, Control_c, 12, 10, 64
16, 360, Control_c, 12, 11, 100
16, 420, Program_c, 12, 0
16, 480, Text_t, "Start"
16, 480, Control_c, 12, 11, 100
16, 480, Control_c, 12, 10, 64
16, 480, End_track
17, 0, Start_track
17, 0, Title_t, "CH #14"
17, 0, Text_t, "Piano1"
17, 240, Control_c, 13, 7, 100
17, 300, Control_c, 13, 10, 64
17, 360, Control_c, 13, 11, 100
17, 420, Program_c, 13, 0
17, 480, Text_t, "Start"
17, 480, Control_c, 13, 11, 100
17, 480, Control_c, 13, 10, 64
17, 480, End_track
18, 0, Start_track
18, 0, Title_t, "CH #15"
18, 0, Text_t, "Piano1"
18, 240, Control_c, 14, 7, 100
18, 300, Control_c, 14, 10, 64
18, 360, Control_c, 14, 11, 100
18, 420, Program_c, 14, 0
18, 480, Text_t, "Start"
18, 480, Control_c, 14, 11, 100
18, 480, Control_c, 14, 10, 64
18, 480, End_track
19, 0, Start_track
19, 0, Title_t, "CH #16"
19, 0, Text_t, "Piano1"
19, 240, Control_c, 15, 7, 100
19, 300, Control_c, 15, 10, 64
19, 360, Control_c, 15, 11, 100
19, 420, Program_c, 15, 0
19, 480, Text_t, "Start"
19, 480, Control_c, 15, 11, 100
19, 480, Control_c, 15, 10, 64
19, 480, End_track
0, 0, End_of_file
