0, 0, Header, 1, 17, 480
1, 0, Start_track
1, 0, Title_t, ""
1, 0, Time_signature, 4, 2, 24, 8
1, 0, Tempo, 681818
1, 11520, Tempo, 731707
1, 11520, End_track
2, 0, Start_track
2, 0, Title_t, ""
2, 0, MIDI_port, 0
2, 0, System_exclusive, 5, 126, 127, 9, 1, 247
2, 0, System_exclusive, 7, 127, 127, 4, 1, 0, 127, 247
2, 1920, Control_c, 0, 0, 0
2, 1920, Control_c, 0, 32, 0
2, 1920, Program_c, 0, 24
2, 14880, Note_on_c, 0, 55, 120
2, 15360, Note_on_c, 0, 55, 0
2, 15360, Note_on_c, 0, 60, 120
2, 15520, Note_on_c, 0, 60, 0
2, 15520, Note_on_c, 0, 62, 120
2, 15680, Note_on_c, 0, 62, 0
2, 15680, Note_on_c, 0, 64, 120
2, 15840, Note_on_c, 0, 64, 0
2, 15840, Note_on_c, 0, 67, 120
2, 17760, Note_on_c, 0, 67, 0
2, 18720, Note_on_c, 0, 65, 120
2, 18880, Note_on_c, 0, 65, 0
2, 18880, Note_on_c, 0, 62, 120
2, 19040, Note_on_c, 0, 62, 0
2, 19040, Note_on_c, 0, 59, 120
2, 19200, Note_on_c, 0, 59, 0
2, 19200, Note_on_c, 0, 60, 120
2, 20160, Note_on_c, 0, 60, 0
2, 20160, Note_on_c, 0, 55, 120
2, 22080, Note_on_c, 0, 55, 0
2, 22560, Note_on_c, 0, 55, 120
2, 23040, Note_on_c, 0, 55, 0
2, 23040, Note_on_c, 0, 60, 120
2, 23200, Note_on_c, 0, 60, 0
2, 23200, Note_on_c, 0, 62, 120
2, 23360, Note_on_c, 0, 62, 0
2, 23360, Note_on_c, 0, 64, 120
2, 23520, Note_on_c, 0, 64, 0
2, 23520, Note_on_c, 0, 67, 120
2, 25440, Note_on_c, 0, 67, 0
2, 26400, Note_on_c, 0, 67, 120
2, 26560, Note_on_c, 0, 67, 0
2, 26560, Note_on_c, 0, 65, 120
2, 26720, Note_on_c, 0, 65, 0
2, 26720, Note_on_c, 0, 64, 120
2, 26880, Note_on_c, 0, 64, 0
2, 26880, Note_on_c, 0, 64, 120
2, 27840, Note_on_c, 0, 64, 0
2, 27840, Note_on_c, 0, 62, 120
2, 29760, Note_on_c, 0, 62, 0
2, 30240, Note_on_c, 0, 55, 120
2, 30720, Note_on_c, 0, 55, 0
2, 30720, Note_on_c, 0, 59, 120
2, 30880, Note_on_c, 0, 59, 0
2, 30880, Note_on_c, 0, 64, 120
2, 31040, Note_on_c, 0, 64, 0
2, 31040, Note_on_c, 0, 67, 120
2, 31200, Note_on_c, 0, 67, 0
2, 31200, Note_on_c, 0, 71, 120
2, 33120, Note_on_c, 0, 71, 0
2, 34080, Note_on_c, 0, 71, 120
2, 34240, Note_on_c, 0, 71, 0
2, 34240, Note_on_c, 0, 67, 120
2, 34400, Note_on_c, 0, 67, 0
2, 34400, Note_on_c, 0, 64, 120
2, 34560, Note_on_c, 0, 64, 0
2, 34560, Note_on_c, 0, 64, 120
2, 35520, Note_on_c, 0, 64, 0
2, 35520, Note_on_c, 0, 62, 120
2, 37440, Note_on_c, 0, 62, 0
2, 37920, Note_on_c, 0, 57, 120
2, 38400, Note_on_c, 0, 57, 0
2, 38400, Note_on_c, 0, 64, 120
2, 38560, Note_on_c, 0, 64, 0
2, 38560, Note_on_c, 0, 62, 120
2, 38720, Note_on_c, 0, 62, 0
2, 38720, Note_on_c, 0, 64, 120
2, 38880, Note_on_c, 0, 64, 0
2, 38880, Note_on_c, 0, 65, 120
2, 40800, Note_on_c, 0, 65, 0
2, 41760, Note_on_c, 0, 64, 120
2, 41920, Note_on_c, 0, 64, 0
2, 41920, Note_on_c, 0, 62, 120
2, 42080, Note_on_c, 0, 62, 0
2, 42080, Note_on_c, 0, 64, 120
2, 42240, Note_on_c, 0, 64, 0
2, 42240, Note_on_c, 0, 65, 120
2, 44160, Note_on_c, 0, 65, 0
2, 99360, Note_on_c, 0, 55, 120
2, 99816, Note_on_c, 0, 55, 0
2, 99840, System_exclusive, 7, 127, 127, 4, 1, 0, 125, 247
2, 99840, Note_on_c, 0, 60, 120
2, 100000, Note_on_c, 0, 60, 0
2, 100000, Note_on_c, 0, 62, 120
2, 100160, Note_on_c, 0, 62, 0
2, 100160, Note_on_c, 0, 64, 120
2, 100320, Note_on_c, 0, 64, 0
2, 100320, System_exclusive, 7, 127, 127, 4, 1, 0, 120, 247
2, 100320, Note_on_c, 0, 67, 120
2, 100800, System_exclusive, 7, 127, 127, 4, 1, 0, 115, 247
2, 101280, System_exclusive, 7, 127, 127, 4, 1, 0, 110, 247
2, 101760, System_exclusive, 7, 127, 127, 4, 1, 0, 105, 247
2, 102240, Note_on_c, 0, 67, 0
2, 102240, System_exclusive, 7, 127, 127, 4, 1, 0, 100, 247
2, 102720, System_exclusive, 7, 127, 127, 4, 1, 0, 95, 247
2, 103200, System_exclusive, 7, 127, 127, 4, 1, 0, 90, 247
2, 103200, Note_on_c, 0, 65, 120
2, 103360, Note_on_c, 0, 65, 0
2, 103360, Note_on_c, 0, 62, 120
2, 103520, Note_on_c, 0, 62, 0
2, 103520, Note_on_c, 0, 59, 120
2, 103680, Note_on_c, 0, 59, 0
2, 103680, System_exclusive, 7, 127, 127, 4, 1, 0, 85, 247
2, 103680, Note_on_c, 0, 60, 120
2, 104160, System_exclusive, 7, 127, 127, 4, 1, 0, 80, 247
2, 104640, Note_on_c, 0, 60, 0
2, 104640, System_exclusive, 7, 127, 127, 4, 1, 0, 75, 247
2, 104640, Note_on_c, 0, 55, 120
2, 105120, System_exclusive, 7, 127, 127, 4, 1, 0, 70, 247
2, 105600, System_exclusive, 7, 127, 127, 4, 1, 0, 65, 247
2, 106080, System_exclusive, 7, 127, 127, 4, 1, 0, 60, 247
2, 106560, Note_on_c, 0, 55, 0
2, 106560, System_exclusive, 7, 127, 127, 4, 1, 0, 55, 247
2, 107040, System_exclusive, 7, 127, 127, 4, 1, 0, 50, 247
2, 107040, Note_on_c, 0, 55, 120
2, 107520, Note_on_c, 0, 55, 0
2, 107520, System_exclusive, 7, 127, 127, 4, 1, 0, 45, 247
2, 107520, Note_on_c, 0, 60, 120
2, 107680, Note_on_c, 0, 60, 0
2, 107680, Note_on_c, 0, 62, 120
2, 107840, Note_on_c, 0, 62, 0
2, 107840, Note_on_c, 0, 64, 120
2, 108000, Note_on_c, 0, 64, 0
2, 108000, System_exclusive, 7, 127, 127, 4, 1, 0, 40, 247
2, 108000, Note_on_c, 0, 67, 120
2, 108480, System_exclusive, 7, 127, 127, 4, 1, 0, 35, 247
2, 108960, System_exclusive, 7, 127, 127, 4, 1, 0, 30, 247
2, 109440, System_exclusive, 7, 127, 127, 4, 1, 0, 25, 247
2, 109920, Note_on_c, 0, 67, 0
2, 109920, System_exclusive, 7, 127, 127, 4, 1, 0, 20, 247
2, 110400, System_exclusive, 7, 127, 127, 4, 1, 0, 15, 247
2, 110880, System_exclusive, 7, 127, 127, 4, 1, 0, 10, 247
2, 110880, Note_on_c, 0, 67, 120
2, 111040, Note_on_c, 0, 67, 0
2, 111040, Note_on_c, 0, 65, 120
2, 111200, Note_on_c, 0, 65, 0
2, 111200, Note_on_c, 0, 64, 120
2, 111360, Note_on_c, 0, 64, 0
2, 111360, System_exclusive, 7, 127, 127, 4, 1, 0, 5, 247
2, 111360, Note_on_c, 0, 64, 120
2, 112320, Note_on_c, 0, 64, 0
2, 112320, System_exclusive, 7, 127, 127, 4, 1, 0, 1, 247
2, 112320, Note_on_c, 0, 62, 120
2, 113280, Note_on_c, 0, 62, 0
2, 113280, End_track
3, 0, Start_track
3, 0, Title_t, ""
3, 0, MIDI_port, 0
3, 0, Control_c, 1, 0, 0
3, 0, Control_c, 1, 32, 0
3, 0, Program_c, 1, 25
3, 11520, Note_on_c, 1, 48, 110
3, 11520, Note_on_c, 1, 60, 70
3, 11760, Note_on_c, 1, 55, 110
3, 11760, Note_on_c, 1, 67, 70
3, 11991, Note_on_c, 1, 55, 0
3, 11991, Note_on_c, 1, 67, 0
3, 12000, Note_on_c, 1, 62, 110
3, 12000, Note_on_c, 1, 74, 70
3, 12231, Note_on_c, 1, 62, 0
3, 12231, Note_on_c, 1, 74, 0
3, 12240, Note_on_c, 1, 64, 110
3, 12240, Note_on_c, 1, 76, 70
3, 12471, Note_on_c, 1, 64, 0
3, 12471, Note_on_c, 1, 76, 0
3, 12480, Note_on_c, 1, 62, 110
3, 12480, Note_on_c, 1, 74, 70
3, 12711, Note_on_c, 1, 62, 0
3, 12711, Note_on_c, 1, 74, 0
3, 12720, Note_on_c, 1, 55, 110
3, 12720, Note_on_c, 1, 67, 70
3, 12903, Note_on_c, 1, 48, 0
3, 12903, Note_on_c, 1, 60, 0
3, 12951, Note_on_c, 1, 55, 0
3, 12951, Note_on_c, 1, 67, 0
3, 12960, Note_on_c, 1, 52, 110
3, 12960, Note_on_c, 1, 64, 70
3, 13200, Note_on_c, 1, 55, 110
3, 13200, Note_on_c, 1, 67, 70
3, 13421, Note_on_c, 1, 52, 0
3, 13421, Note_on_c, 1, 64, 0
3, 13431, Note_on_c, 1, 55, 0
3, 13431, Note_on_c, 1, 67, 0
3, 13440, Note_on_c, 1, 48, 110
3, 13440, Note_on_c, 1, 60, 70
3, 13680, Note_on_c, 1, 55, 110
3, 13680, Note_on_c, 1, 67, 70
3, 13911, Note_on_c, 1, 55, 0
3, 13911, Note_on_c, 1, 67, 0
3, 13920, Note_on_c, 1, 62, 110
3, 13920, Note_on_c, 1, 74, 70
3, 14151, Note_on_c, 1, 62, 0
3, 14151, Note_on_c, 1, 74, 0
3, 14160, Note_on_c, 1, 64, 110
3, 14160, Note_on_c, 1, 76, 70
3, 14391, Note_on_c, 1, 64, 0
3, 14391, Note_on_c, 1, 76, 0
3, 14400, Note_on_c, 1, 62, 110
3, 14400, Note_on_c, 1, 74, 70
3, 14631, Note_on_c, 1, 62, 0
3, 14631, Note_on_c, 1, 74, 0
3, 14640, Note_on_c, 1, 55, 110
3, 14640, Note_on_c, 1, 67, 70
3, 14823, Note_on_c, 1, 48, 0
3, 14823, Note_on_c, 1, 60, 0
3, 14871, Note_on_c, 1, 55, 0
3, 14871, Note_on_c, 1, 67, 0
3, 14880, Note_on_c, 1, 52, 110
3, 14880, Note_on_c, 1, 64, 70
3, 15120, Note_on_c, 1, 55, 110
3, 15120, Note_on_c, 1, 67, 70
3, 15341, Note_on_c, 1, 52, 0
3, 15341, Note_on_c, 1, 64, 0
3, 15351, Note_on_c, 1, 55, 0
3, 15351, Note_on_c, 1, 67, 0
3, 15360, Note_on_c, 1, 48, 110
3, 15360, Note_on_c, 1, 60, 70
3, 15600, Note_on_c, 1, 55, 110
3, 15600, Note_on_c, 1, 67, 70
3, 15831, Note_on_c, 1, 55, 0
3, 15831, Note_on_c, 1, 67, 0
3, 15840, Note_on_c, 1, 62, 110
3, 15840, Note_on_c, 1, 74, 70
3, 16071, Note_on_c, 1, 62, 0
3, 16071, Note_on_c, 1, 74, 0
3, 16080, Note_on_c, 1, 64, 110
3, 16080, Note_on_c, 1, 76, 70
3, 16311, Note_on_c, 1, 64, 0
3, 16311, Note_on_c, 1, 76, 0
3, 16320, Note_on_c, 1, 62, 110
3, 16320, Note_on_c, 1, 74, 70
3, 16551, Note_on_c, 1, 62, 0
3, 16551, Note_on_c, 1, 74, 0
3, 16560, Note_on_c, 1, 55, 110
3, 16560, Note_on_c, 1, 67, 70
3, 16743, Note_on_c, 1, 48, 0
3, 16743, Note_on_c, 1, 60, 0
3, 16791, Note_on_c, 1, 55, 0
3, 16791, Note_on_c, 1, 67, 0
3, 16800, Note_on_c, 1, 52, 110
3, 16800, Note_on_c, 1, 64, 70
3, 17040, Note_on_c, 1, 55, 110
3, 17040, Note_on_c, 1, 67, 70
3, 17261, Note_on_c, 1, 52, 0
3, 17261, Note_on_c, 1, 64, 0
3, 17271, Note_on_c, 1, 55, 0
3, 17271, Note_on_c, 1, 67, 0
3, 17280, Note_on_c, 1, 48, 110
3, 17280, Note_on_c, 1, 60, 70
3, 17520, Note_on_c, 1, 55, 110
3, 17520, Note_on_c, 1, 67, 70
3, 17751, Note_on_c, 1, 55, 0
3, 17751, Note_on_c, 1, 67, 0
3, 17760, Note_on_c, 1, 62, 110
3, 17760, Note_on_c, 1, 74, 70
3, 17991, Note_on_c, 1, 62, 0
3, 17991, Note_on_c, 1, 74, 0
3, 18000, Note_on_c, 1, 64, 110
3, 18000, Note_on_c, 1, 76, 70
3, 18231, Note_on_c, 1, 64, 0
3, 18231, Note_on_c, 1, 76, 0
3, 18240, Note_on_c, 1, 62, 110
3, 18240, Note_on_c, 1, 74, 70
3, 18471, Note_on_c, 1, 62, 0
3, 18471, Note_on_c, 1, 74, 0
3, 18480, Note_on_c, 1, 55, 110
3, 18480, Note_on_c, 1, 67, 70
3, 18663, Note_on_c, 1, 48, 0
3, 18663, Note_on_c, 1, 60, 0
3, 18711, Note_on_c, 1, 55, 0
3, 18711, Note_on_c, 1, 67, 0
3, 18720, Note_on_c, 1, 53, 110
3, 18720, Note_on_c, 1, 65, 70
3, 18960, Note_on_c, 1, 55, 110
3, 18960, Note_on_c, 1, 67, 70
3, 19181, Note_on_c, 1, 53, 0
3, 19181, Note_on_c, 1, 65, 0
3, 19191, Note_on_c, 1, 55, 0
3, 19191, Note_on_c, 1, 67, 0
3, 19200, Note_on_c, 1, 48, 110
3, 19200, Note_on_c, 1, 60, 70
3, 19440, Note_on_c, 1, 55, 110
3, 19440, Note_on_c, 1, 67, 70
3, 19671, Note_on_c, 1, 55, 0
3, 19671, Note_on_c, 1, 67, 0
3, 19680, Note_on_c, 1, 62, 110
3, 19680, Note_on_c, 1, 74, 70
3, 19911, Note_on_c, 1, 62, 0
3, 19911, Note_on_c, 1, 74, 0
3, 19920, Note_on_c, 1, 64, 110
3, 19920, Note_on_c, 1, 76, 70
3, 20151, Note_on_c, 1, 64, 0
3, 20151, Note_on_c, 1, 76, 0
3, 20160, Note_on_c, 1, 62, 110
3, 20160, Note_on_c, 1, 74, 70
3, 20391, Note_on_c, 1, 62, 0
3, 20391, Note_on_c, 1, 74, 0
3, 20400, Note_on_c, 1, 55, 110
3, 20400, Note_on_c, 1, 67, 70
3, 20583, Note_on_c, 1, 48, 0
3, 20583, Note_on_c, 1, 60, 0
3, 20631, Note_on_c, 1, 55, 0
3, 20631, Note_on_c, 1, 67, 0
3, 20640, Note_on_c, 1, 52, 110
3, 20640, Note_on_c, 1, 64, 70
3, 20880, Note_on_c, 1, 55, 110
3, 20880, Note_on_c, 1, 67, 70
3, 21101, Note_on_c, 1, 52, 0
3, 21101, Note_on_c, 1, 64, 0
3, 21111, Note_on_c, 1, 55, 0
3, 21111, Note_on_c, 1, 67, 0
3, 21120, Note_on_c, 1, 48, 110
3, 21120, Note_on_c, 1, 60, 70
3, 21360, Note_on_c, 1, 55, 110
3, 21360, Note_on_c, 1, 67, 70
3, 21591, Note_on_c, 1, 55, 0
3, 21591, Note_on_c, 1, 67, 0
3, 21600, Note_on_c, 1, 62, 110
3, 21600, Note_on_c, 1, 74, 70
3, 21831, Note_on_c, 1, 62, 0
3, 21831, Note_on_c, 1, 74, 0
3, 21840, Note_on_c, 1, 64, 110
3, 21840, Note_on_c, 1, 76, 70
3, 22071, Note_on_c, 1, 64, 0
3, 22071, Note_on_c, 1, 76, 0
3, 22080, Note_on_c, 1, 62, 110
3, 22080, Note_on_c, 1, 74, 70
3, 22311, Note_on_c, 1, 62, 0
3, 22311, Note_on_c, 1, 74, 0
3, 22320, Note_on_c, 1, 55, 110
3, 22320, Note_on_c, 1, 67, 70
3, 22503, Note_on_c, 1, 48, 0
3, 22503, Note_on_c, 1, 60, 0
3, 22551, Note_on_c, 1, 55, 0
3, 22551, Note_on_c, 1, 67, 0
3, 22560, Note_on_c, 1, 52, 110
3, 22560, Note_on_c, 1, 64, 70
3, 22800, Note_on_c, 1, 55, 110
3, 22800, Note_on_c, 1, 67, 70
3, 23021, Note_on_c, 1, 52, 0
3, 23021, Note_on_c, 1, 64, 0
3, 23031, Note_on_c, 1, 55, 0
3, 23031, Note_on_c, 1, 67, 0
3, 23040, Note_on_c, 1, 45, 110
3, 23040, Note_on_c, 1, 57, 70
3, 23280, Note_on_c, 1, 71, 70
3, 23280, Note_on_c, 1, 59, 110
3, 23511, Note_on_c, 1, 71, 0
3, 23511, Note_on_c, 1, 59, 0
3, 23520, Note_on_c, 1, 60, 110
3, 23520, Note_on_c, 1, 72, 70
3, 23751, Note_on_c, 1, 60, 0
3, 23751, Note_on_c, 1, 72, 0
3, 23760, Note_on_c, 1, 67, 110
3, 23760, Note_on_c, 1, 79, 70
3, 23991, Note_on_c, 1, 67, 0
3, 23991, Note_on_c, 1, 79, 0
3, 24000, Note_on_c, 1, 60, 110
3, 24000, Note_on_c, 1, 72, 70
3, 24231, Note_on_c, 1, 60, 0
3, 24231, Note_on_c, 1, 72, 0
3, 24240, Note_on_c, 1, 59, 110
3, 24240, Note_on_c, 1, 71, 70
3, 24423, Note_on_c, 1, 45, 0
3, 24423, Note_on_c, 1, 57, 0
3, 24471, Note_on_c, 1, 59, 0
3, 24471, Note_on_c, 1, 71, 0
3, 24480, Note_on_c, 1, 52, 110
3, 24480, Note_on_c, 1, 64, 70
3, 24720, Note_on_c, 1, 55, 110
3, 24720, Note_on_c, 1, 67, 70
3, 24941, Note_on_c, 1, 52, 0
3, 24941, Note_on_c, 1, 64, 0
3, 24951, Note_on_c, 1, 55, 0
3, 24951, Note_on_c, 1, 67, 0
3, 24960, Note_on_c, 1, 45, 110
3, 24960, Note_on_c, 1, 57, 70
3, 25200, Note_on_c, 1, 71, 70
3, 25200, Note_on_c, 1, 59, 110
3, 25431, Note_on_c, 1, 71, 0
3, 25431, Note_on_c, 1, 59, 0
3, 25440, Note_on_c, 1, 60, 110
3, 25440, Note_on_c, 1, 72, 70
3, 25671, Note_on_c, 1, 60, 0
3, 25671, Note_on_c, 1, 72, 0
3, 25680, Note_on_c, 1, 67, 110
3, 25680, Note_on_c, 1, 79, 70
3, 25911, Note_on_c, 1, 67, 0
3, 25911, Note_on_c, 1, 79, 0
3, 25920, Note_on_c, 1, 60, 110
3, 25920, Note_on_c, 1, 72, 70
3, 26151, Note_on_c, 1, 60, 0
3, 26151, Note_on_c, 1, 72, 0
3, 26160, Note_on_c, 1, 59, 110
3, 26160, Note_on_c, 1, 71, 70
3, 26343, Note_on_c, 1, 45, 0
3, 26343, Note_on_c, 1, 57, 0
3, 26391, Note_on_c, 1, 59, 0
3, 26391, Note_on_c, 1, 71, 0
3, 26400, Note_on_c, 1, 52, 110
3, 26400, Note_on_c, 1, 64, 70
3, 26640, Note_on_c, 1, 55, 110
3, 26640, Note_on_c, 1, 67, 70
3, 26861, Note_on_c, 1, 52, 0
3, 26861, Note_on_c, 1, 64, 0
3, 26871, Note_on_c, 1, 55, 0
3, 26871, Note_on_c, 1, 67, 0
3, 26880, Note_on_c, 1, 43, 110
3, 26880, Note_on_c, 1, 55, 70
3, 27120, Note_on_c, 1, 69, 70
3, 27120, Note_on_c, 1, 57, 110
3, 27351, Note_on_c, 1, 69, 0
3, 27351, Note_on_c, 1, 57, 0
3, 27360, Note_on_c, 1, 59, 110
3, 27360, Note_on_c, 1, 71, 70
3, 27591, Note_on_c, 1, 59, 0
3, 27591, Note_on_c, 1, 71, 0
3, 27600, Note_on_c, 1, 65, 110
3, 27600, Note_on_c, 1, 77, 70
3, 27831, Note_on_c, 1, 65, 0
3, 27831, Note_on_c, 1, 77, 0
3, 27840, Note_on_c, 1, 59, 110
3, 27840, Note_on_c, 1, 71, 70
3, 28071, Note_on_c, 1, 59, 0
3, 28071, Note_on_c, 1, 71, 0
3, 28080, Note_on_c, 1, 57, 110
3, 28080, Note_on_c, 1, 69, 70
3, 28263, Note_on_c, 1, 43, 0
3, 28263, Note_on_c, 1, 55, 0
3, 28311, Note_on_c, 1, 57, 0
3, 28311, Note_on_c, 1, 69, 0
3, 28320, Note_on_c, 1, 53, 110
3, 28320, Note_on_c, 1, 65, 70
3, 28560, Note_on_c, 1, 57, 110
3, 28560, Note_on_c, 1, 69, 70
3, 28781, Note_on_c, 1, 53, 0
3, 28781, Note_on_c, 1, 65, 0
3, 28791, Note_on_c, 1, 57, 0
3, 28791, Note_on_c, 1, 69, 0
3, 28800, Note_on_c, 1, 43, 110
3, 28800, Note_on_c, 1, 55, 70
3, 29040, Note_on_c, 1, 69, 70
3, 29040, Note_on_c, 1, 57, 110
3, 29271, Note_on_c, 1, 69, 0
3, 29271, Note_on_c, 1, 57, 0
3, 29280, Note_on_c, 1, 59, 110
3, 29280, Note_on_c, 1, 71, 70
3, 29511, Note_on_c, 1, 59, 0
3, 29511, Note_on_c, 1, 71, 0
3, 29520, Note_on_c, 1, 65, 110
3, 29520, Note_on_c, 1, 77, 70
3, 29751, Note_on_c, 1, 65, 0
3, 29751, Note_on_c, 1, 77, 0
3, 29760, Note_on_c, 1, 59, 110
3, 29760, Note_on_c, 1, 71, 70
3, 29991, Note_on_c, 1, 59, 0
3, 29991, Note_on_c, 1, 71, 0
3, 30000, Note_on_c, 1, 57, 110
3, 30000, Note_on_c, 1, 69, 70
3, 30183, Note_on_c, 1, 43, 0
3, 30183, Note_on_c, 1, 55, 0
3, 30231, Note_on_c, 1, 57, 0
3, 30231, Note_on_c, 1, 69, 0
3, 30240, Note_on_c, 1, 53, 110
3, 30240, Note_on_c, 1, 65, 70
3, 30480, Note_on_c, 1, 57, 110
3, 30480, Note_on_c, 1, 69, 70
3, 30701, Note_on_c, 1, 53, 0
3, 30701, Note_on_c, 1, 65, 0
3, 30711, Note_on_c, 1, 57, 0
3, 30711, Note_on_c, 1, 69, 0
3, 30720, Note_on_c, 1, 40, 110
3, 30720, Note_on_c, 1, 52, 110
3, 30960, Note_on_c, 1, 55, 110
3, 30960, Note_on_c, 1, 67, 70
3, 31191, Note_on_c, 1, 55, 0
3, 31191, Note_on_c, 1, 67, 0
3, 31200, Note_on_c, 1, 62, 110
3, 31200, Note_on_c, 1, 74, 70
3, 31431, Note_on_c, 1, 62, 0
3, 31431, Note_on_c, 1, 74, 0
3, 31440, Note_on_c, 1, 64, 110
3, 31440, Note_on_c, 1, 76, 70
3, 31671, Note_on_c, 1, 64, 0
3, 31671, Note_on_c, 1, 76, 0
3, 31680, Note_on_c, 1, 62, 110
3, 31680, Note_on_c, 1, 74, 70
3, 31911, Note_on_c, 1, 62, 0
3, 31911, Note_on_c, 1, 74, 0
3, 31920, Note_on_c, 1, 55, 110
3, 31920, Note_on_c, 1, 67, 70
3, 32103, Note_on_c, 1, 40, 0
3, 32103, Note_on_c, 1, 52, 0
3, 32151, Note_on_c, 1, 55, 0
3, 32151, Note_on_c, 1, 67, 0
3, 32160, Note_on_c, 1, 52, 110
3, 32160, Note_on_c, 1, 64, 70
3, 32400, Note_on_c, 1, 55, 110
3, 32400, Note_on_c, 1, 67, 70
3, 32621, Note_on_c, 1, 52, 0
3, 32621, Note_on_c, 1, 64, 0
3, 32631, Note_on_c, 1, 55, 0
3, 32631, Note_on_c, 1, 67, 0
3, 32640, Note_on_c, 1, 40, 110
3, 32640, Note_on_c, 1, 52, 70
3, 32880, Note_on_c, 1, 55, 110
3, 32880, Note_on_c, 1, 67, 70
3, 33111, Note_on_c, 1, 55, 0
3, 33111, Note_on_c, 1, 67, 0
3, 33120, Note_on_c, 1, 62, 110
3, 33120, Note_on_c, 1, 74, 70
3, 33351, Note_on_c, 1, 62, 0
3, 33351, Note_on_c, 1, 74, 0
3, 33360, Note_on_c, 1, 64, 110
3, 33360, Note_on_c, 1, 76, 70
3, 33591, Note_on_c, 1, 64, 0
3, 33591, Note_on_c, 1, 76, 0
3, 33600, Note_on_c, 1, 62, 110
3, 33600, Note_on_c, 1, 74, 70
3, 33831, Note_on_c, 1, 62, 0
3, 33831, Note_on_c, 1, 74, 0
3, 33840, Note_on_c, 1, 55, 110
3, 33840, Note_on_c, 1, 67, 70
3, 34023, Note_on_c, 1, 40, 0
3, 34023, Note_on_c, 1, 52, 0
3, 34071, Note_on_c, 1, 55, 0
3, 34071, Note_on_c, 1, 67, 0
3, 34080, Note_on_c, 1, 45, 110
3, 34080, Note_on_c, 1, 57, 70
3, 34320, Note_on_c, 1, 55, 110
3, 34320, Note_on_c, 1, 67, 70
3, 34541, Note_on_c, 1, 45, 0
3, 34541, Note_on_c, 1, 57, 0
3, 34551, Note_on_c, 1, 55, 0
3, 34551, Note_on_c, 1, 67, 0
3, 34560, Note_on_c, 1, 50, 110
3, 34560, Note_on_c, 1, 62, 70
3, 34800, Note_on_c, 1, 57, 110
3, 34800, Note_on_c, 1, 69, 70
3, 35021, Note_on_c, 1, 62, 0
3, 35031, Note_on_c, 1, 57, 0
3, 35031, Note_on_c, 1, 69, 0
3, 35040, Note_on_c, 1, 62, 110
3, 35040, Note_on_c, 1, 74, 70
3, 35271, Note_on_c, 1, 62, 0
3, 35271, Note_on_c, 1, 74, 0
3, 35280, Note_on_c, 1, 67, 110
3, 35280, Note_on_c, 1, 79, 70
3, 35511, Note_on_c, 1, 67, 0
3, 35511, Note_on_c, 1, 79, 0
3, 35520, Note_on_c, 1, 62, 110
3, 35520, Note_on_c, 1, 74, 70
3, 35751, Note_on_c, 1, 62, 0
3, 35751, Note_on_c, 1, 74, 0
3, 35760, Note_on_c, 1, 57, 110
3, 35760, Note_on_c, 1, 69, 70
3, 35943, Note_on_c, 1, 50, 0
3, 35991, Note_on_c, 1, 57, 0
3, 35991, Note_on_c, 1, 69, 0
3, 36000, Note_on_c, 1, 62, 110
3, 36000, Note_on_c, 1, 74, 70
3, 36240, Note_on_c, 1, 67, 110
3, 36240, Note_on_c, 1, 79, 70
3, 36461, Note_on_c, 1, 62, 0
3, 36461, Note_on_c, 1, 74, 0
3, 36471, Note_on_c, 1, 67, 0
3, 36471, Note_on_c, 1, 79, 0
3, 36480, Note_on_c, 1, 50, 110
3, 36480, Note_on_c, 1, 62, 70
3, 36720, Note_on_c, 1, 57, 110
3, 36720, Note_on_c, 1, 69, 70
3, 36941, Note_on_c, 1, 62, 0
3, 36951, Note_on_c, 1, 57, 0
3, 36951, Note_on_c, 1, 69, 0
3, 36960, Note_on_c, 1, 62, 110
3, 36960, Note_on_c, 1, 74, 70
3, 37191, Note_on_c, 1, 62, 0
3, 37191, Note_on_c, 1, 74, 0
3, 37200, Note_on_c, 1, 65, 110
3, 37200, Note_on_c, 1, 77, 70
3, 37431, Note_on_c, 1, 65, 0
3, 37431, Note_on_c, 1, 77, 0
3, 37440, Note_on_c, 1, 62, 110
3, 37440, Note_on_c, 1, 74, 70
3, 37671, Note_on_c, 1, 62, 0
3, 37671, Note_on_c, 1, 74, 0
3, 37680, Note_on_c, 1, 57, 110
3, 37680, Note_on_c, 1, 69, 70
3, 37863, Note_on_c, 1, 50, 0
3, 37911, Note_on_c, 1, 57, 0
3, 37911, Note_on_c, 1, 69, 0
3, 37920, Note_on_c, 1, 62, 110
3, 37920, Note_on_c, 1, 74, 70
3, 38160, Note_on_c, 1, 65, 110
3, 38160, Note_on_c, 1, 77, 70
3, 38381, Note_on_c, 1, 62, 0
3, 38381, Note_on_c, 1, 74, 0
3, 38391, Note_on_c, 1, 65, 0
3, 38391, Note_on_c, 1, 77, 0
3, 38400, Note_on_c, 1, 50, 110
3, 38400, Note_on_c, 1, 62, 70
3, 38640, Note_on_c, 1, 56, 110
3, 38640, Note_on_c, 1, 68, 70
3, 38861, Note_on_c, 1, 62, 0
3, 38871, Note_on_c, 1, 56, 0
3, 38871, Note_on_c, 1, 68, 0
3, 38880, Note_on_c, 1, 62, 110
3, 38880, Note_on_c, 1, 74, 70
3, 39111, Note_on_c, 1, 62, 0
3, 39111, Note_on_c, 1, 74, 0
3, 39120, Note_on_c, 1, 65, 110
3, 39120, Note_on_c, 1, 77, 70
3, 39351, Note_on_c, 1, 65, 0
3, 39351, Note_on_c, 1, 77, 0
3, 39360, Note_on_c, 1, 62, 110
3, 39360, Note_on_c, 1, 74, 70
3, 39591, Note_on_c, 1, 62, 0
3, 39591, Note_on_c, 1, 74, 0
3, 39600, Note_on_c, 1, 56, 110
3, 39600, Note_on_c, 1, 68, 70
3, 39783, Note_on_c, 1, 50, 0
3, 39831, Note_on_c, 1, 56, 0
3, 39831, Note_on_c, 1, 68, 0
3, 39840, Note_on_c, 1, 62, 110
3, 39840, Note_on_c, 1, 74, 70
3, 40080, Note_on_c, 1, 65, 110
3, 40080, Note_on_c, 1, 77, 70
3, 40301, Note_on_c, 1, 62, 0
3, 40301, Note_on_c, 1, 74, 0
3, 40311, Note_on_c, 1, 65, 0
3, 40311, Note_on_c, 1, 77, 0
3, 40320, Note_on_c, 1, 50, 110
3, 40320, Note_on_c, 1, 62, 70
3, 40560, Note_on_c, 1, 56, 110
3, 40560, Note_on_c, 1, 68, 70
3, 40791, Note_on_c, 1, 56, 0
3, 40791, Note_on_c, 1, 68, 0
3, 40800, Note_on_c, 1, 60, 110
3, 40800, Note_on_c, 1, 72, 70
3, 41031, Note_on_c, 1, 60, 0
3, 41031, Note_on_c, 1, 72, 0
3, 41040, Note_on_c, 1, 68, 110
3, 41040, Note_on_c, 1, 80, 70
3, 41271, Note_on_c, 1, 68, 0
3, 41271, Note_on_c, 1, 80, 0
3, 41280, Note_on_c, 1, 60, 110
3, 41280, Note_on_c, 1, 72, 70
3, 41511, Note_on_c, 1, 60, 0
3, 41511, Note_on_c, 1, 72, 0
3, 41520, Note_on_c, 1, 56, 110
3, 41520, Note_on_c, 1, 68, 70
3, 41703, Note_on_c, 1, 50, 0
3, 41751, Note_on_c, 1, 56, 0
3, 41751, Note_on_c, 1, 68, 0
3, 41760, Note_on_c, 1, 60, 110
3, 41760, Note_on_c, 1, 72, 70
3, 42000, Note_on_c, 1, 68, 110
3, 42000, Note_on_c, 1, 80, 70
3, 42164, Note_on_c, 1, 62, 0
3, 42221, Note_on_c, 1, 60, 0
3, 42221, Note_on_c, 1, 72, 0
3, 42231, Note_on_c, 1, 68, 0
3, 42231, Note_on_c, 1, 80, 0
3, 42240, Note_on_c, 1, 43, 110
3, 42240, Note_on_c, 1, 55, 70
3, 42480, Note_on_c, 1, 57, 110
3, 42480, Note_on_c, 1, 69, 70
3, 42711, Note_on_c, 1, 57, 0
3, 42711, Note_on_c, 1, 69, 0
3, 42720, Note_on_c, 1, 59, 110
3, 42720, Note_on_c, 1, 71, 70
3, 42951, Note_on_c, 1, 59, 0
3, 42951, Note_on_c, 1, 71, 0
3, 42960, Note_on_c, 1, 65, 110
3, 42960, Note_on_c, 1, 77, 70
3, 43191, Note_on_c, 1, 65, 0
3, 43191, Note_on_c, 1, 77, 0
3, 43200, Note_on_c, 1, 59, 110
3, 43200, Note_on_c, 1, 71, 70
3, 43431, Note_on_c, 1, 59, 0
3, 43431, Note_on_c, 1, 71, 0
3, 43440, Note_on_c, 1, 57, 110
3, 43440, Note_on_c, 1, 69, 70
3, 43623, Note_on_c, 1, 43, 0
3, 43671, Note_on_c, 1, 57, 0
3, 43671, Note_on_c, 1, 69, 0
3, 43680, Note_on_c, 1, 59, 110
3, 43680, Note_on_c, 1, 71, 70
3, 43920, Note_on_c, 1, 65, 110
3, 43920, Note_on_c, 1, 77, 70
3, 44084, Note_on_c, 1, 55, 0
3, 44141, Note_on_c, 1, 59, 0
3, 44141, Note_on_c, 1, 71, 0
3, 44151, Note_on_c, 1, 65, 0
3, 44151, Note_on_c, 1, 77, 0
3, 44160, Note_on_c, 1, 50, 100
3, 44190, Note_on_c, 1, 53, 115
3, 44220, Note_on_c, 1, 59, 115
3, 44220, Note_on_c, 1, 74, 100
3, 45082, Note_on_c, 1, 50, 0
3, 45112, Note_on_c, 1, 53, 0
3, 45120, Note_on_c, 1, 50, 100
3, 45142, Note_on_c, 1, 59, 0
3, 45142, Note_on_c, 1, 74, 0
3, 45150, Note_on_c, 1, 53, 115
3, 45180, Note_on_c, 1, 59, 115
3, 45180, Note_on_c, 1, 74, 100
3, 46042, Note_on_c, 1, 50, 0
3, 46072, Note_on_c, 1, 53, 0
3, 46080, Note_on_c, 1, 48, 110
3, 46080, Note_on_c, 1, 60, 70
3, 46102, Note_on_c, 1, 59, 0
3, 46102, Note_on_c, 1, 74, 0
3, 46320, Note_on_c, 1, 55, 110
3, 46320, Note_on_c, 1, 67, 70
3, 46551, Note_on_c, 1, 55, 0
3, 46551, Note_on_c, 1, 67, 0
3, 46560, Note_on_c, 1, 62, 110
3, 46560, Note_on_c, 1, 74, 70
3, 46791, Note_on_c, 1, 62, 0
3, 46791, Note_on_c, 1, 74, 0
3, 46800, Note_on_c, 1, 64, 110
3, 46800, Note_on_c, 1, 76, 70
3, 47031, Note_on_c, 1, 64, 0
3, 47031, Note_on_c, 1, 76, 0
3, 47040, Note_on_c, 1, 62, 110
3, 47040, Note_on_c, 1, 74, 70
3, 47271, Note_on_c, 1, 62, 0
3, 47271, Note_on_c, 1, 74, 0
3, 47280, Note_on_c, 1, 55, 110
3, 47280, Note_on_c, 1, 67, 70
3, 47463, Note_on_c, 1, 48, 0
3, 47463, Note_on_c, 1, 60, 0
3, 47511, Note_on_c, 1, 55, 0
3, 47511, Note_on_c, 1, 67, 0
3, 47520, Note_on_c, 1, 52, 110
3, 47520, Note_on_c, 1, 64, 70
3, 47760, Note_on_c, 1, 55, 110
3, 47760, Note_on_c, 1, 67, 70
3, 47981, Note_on_c, 1, 52, 0
3, 47981, Note_on_c, 1, 64, 0
3, 47991, Note_on_c, 1, 55, 0
3, 47991, Note_on_c, 1, 67, 0
3, 48000, Note_on_c, 1, 48, 110
3, 48000, Note_on_c, 1, 60, 70
3, 48240, Note_on_c, 1, 55, 110
3, 48240, Note_on_c, 1, 67, 70
3, 48471, Note_on_c, 1, 55, 0
3, 48471, Note_on_c, 1, 67, 0
3, 48480, Note_on_c, 1, 62, 110
3, 48480, Note_on_c, 1, 74, 70
3, 48711, Note_on_c, 1, 62, 0
3, 48711, Note_on_c, 1, 74, 0
3, 48720, Note_on_c, 1, 64, 110
3, 48720, Note_on_c, 1, 76, 70
3, 48951, Note_on_c, 1, 64, 0
3, 48951, Note_on_c, 1, 76, 0
3, 48960, Note_on_c, 1, 62, 110
3, 48960, Note_on_c, 1, 74, 70
3, 49191, Note_on_c, 1, 62, 0
3, 49191, Note_on_c, 1, 74, 0
3, 49200, Note_on_c, 1, 55, 110
3, 49200, Note_on_c, 1, 67, 70
3, 49383, Note_on_c, 1, 48, 0
3, 49383, Note_on_c, 1, 60, 0
3, 49431, Note_on_c, 1, 55, 0
3, 49431, Note_on_c, 1, 67, 0
3, 49440, Note_on_c, 1, 53, 110
3, 49440, Note_on_c, 1, 65, 70
3, 49680, Note_on_c, 1, 55, 110
3, 49680, Note_on_c, 1, 67, 70
3, 49901, Note_on_c, 1, 53, 0
3, 49901, Note_on_c, 1, 65, 0
3, 49911, Note_on_c, 1, 55, 0
3, 49911, Note_on_c, 1, 67, 0
3, 49920, Note_on_c, 1, 48, 110
3, 49920, Note_on_c, 1, 60, 70
3, 50160, Note_on_c, 1, 55, 110
3, 50160, Note_on_c, 1, 67, 70
3, 50391, Note_on_c, 1, 55, 0
3, 50391, Note_on_c, 1, 67, 0
3, 50400, Note_on_c, 1, 62, 110
3, 50400, Note_on_c, 1, 74, 70
3, 50631, Note_on_c, 1, 62, 0
3, 50631, Note_on_c, 1, 74, 0
3, 50640, Note_on_c, 1, 64, 110
3, 50640, Note_on_c, 1, 76, 70
3, 50871, Note_on_c, 1, 64, 0
3, 50871, Note_on_c, 1, 76, 0
3, 50880, Note_on_c, 1, 62, 110
3, 50880, Note_on_c, 1, 74, 70
3, 51111, Note_on_c, 1, 62, 0
3, 51111, Note_on_c, 1, 74, 0
3, 51120, Note_on_c, 1, 55, 110
3, 51120, Note_on_c, 1, 67, 70
3, 51303, Note_on_c, 1, 48, 0
3, 51303, Note_on_c, 1, 60, 0
3, 51351, Note_on_c, 1, 55, 0
3, 51351, Note_on_c, 1, 67, 0
3, 51360, Note_on_c, 1, 52, 110
3, 51360, Note_on_c, 1, 64, 70
3, 51600, Note_on_c, 1, 55, 110
3, 51600, Note_on_c, 1, 67, 70
3, 51821, Note_on_c, 1, 52, 0
3, 51821, Note_on_c, 1, 64, 0
3, 51831, Note_on_c, 1, 55, 0
3, 51831, Note_on_c, 1, 67, 0
3, 51840, Note_on_c, 1, 48, 110
3, 51840, Note_on_c, 1, 60, 70
3, 52080, Note_on_c, 1, 55, 110
3, 52080, Note_on_c, 1, 67, 70
3, 52311, Note_on_c, 1, 55, 0
3, 52311, Note_on_c, 1, 67, 0
3, 52320, Note_on_c, 1, 62, 110
3, 52320, Note_on_c, 1, 74, 70
3, 52551, Note_on_c, 1, 62, 0
3, 52551, Note_on_c, 1, 74, 0
3, 52560, Note_on_c, 1, 64, 110
3, 52560, Note_on_c, 1, 76, 70
3, 52791, Note_on_c, 1, 64, 0
3, 52791, Note_on_c, 1, 76, 0
3, 52800, Note_on_c, 1, 62, 110
3, 52800, Note_on_c, 1, 74, 70
3, 53031, Note_on_c, 1, 62, 0
3, 53031, Note_on_c, 1, 74, 0
3, 53040, Note_on_c, 1, 55, 110
3, 53040, Note_on_c, 1, 67, 70
3, 53223, Note_on_c, 1, 48, 0
3, 53223, Note_on_c, 1, 60, 0
3, 53271, Note_on_c, 1, 55, 0
3, 53271, Note_on_c, 1, 67, 0
3, 53280, Note_on_c, 1, 52, 110
3, 53280, Note_on_c, 1, 64, 70
3, 53520, Note_on_c, 1, 55, 110
3, 53520, Note_on_c, 1, 67, 70
3, 53741, Note_on_c, 1, 52, 0
3, 53741, Note_on_c, 1, 64, 0
3, 53751, Note_on_c, 1, 55, 0
3, 53751, Note_on_c, 1, 67, 0
3, 53760, Note_on_c, 1, 45, 110
3, 53760, Note_on_c, 1, 57, 70
3, 54000, Note_on_c, 1, 71, 70
3, 54000, Note_on_c, 1, 59, 110
3, 54231, Note_on_c, 1, 71, 0
3, 54231, Note_on_c, 1, 59, 0
3, 54240, Note_on_c, 1, 60, 110
3, 54240, Note_on_c, 1, 72, 70
3, 54471, Note_on_c, 1, 60, 0
3, 54471, Note_on_c, 1, 72, 0
3, 54480, Note_on_c, 1, 67, 110
3, 54480, Note_on_c, 1, 79, 70
3, 54711, Note_on_c, 1, 67, 0
3, 54711, Note_on_c, 1, 79, 0
3, 54720, Note_on_c, 1, 60, 110
3, 54720, Note_on_c, 1, 72, 70
3, 54951, Note_on_c, 1, 60, 0
3, 54951, Note_on_c, 1, 72, 0
3, 54960, Note_on_c, 1, 59, 110
3, 54960, Note_on_c, 1, 71, 70
3, 55143, Note_on_c, 1, 45, 0
3, 55143, Note_on_c, 1, 57, 0
3, 55191, Note_on_c, 1, 59, 0
3, 55191, Note_on_c, 1, 71, 0
3, 55200, Note_on_c, 1, 52, 110
3, 55200, Note_on_c, 1, 64, 70
3, 55440, Note_on_c, 1, 55, 110
3, 55440, Note_on_c, 1, 67, 70
3, 55661, Note_on_c, 1, 52, 0
3, 55661, Note_on_c, 1, 64, 0
3, 55671, Note_on_c, 1, 55, 0
3, 55671, Note_on_c, 1, 67, 0
3, 55680, Note_on_c, 1, 45, 110
3, 55680, Note_on_c, 1, 57, 70
3, 55920, Note_on_c, 1, 71, 70
3, 55920, Note_on_c, 1, 59, 110
3, 56151, Note_on_c, 1, 71, 0
3, 56151, Note_on_c, 1, 59, 0
3, 56160, Note_on_c, 1, 60, 110
3, 56160, Note_on_c, 1, 72, 70
3, 56391, Note_on_c, 1, 60, 0
3, 56391, Note_on_c, 1, 72, 0
3, 56400, Note_on_c, 1, 67, 110
3, 56400, Note_on_c, 1, 79, 70
3, 56631, Note_on_c, 1, 67, 0
3, 56631, Note_on_c, 1, 79, 0
3, 56640, Note_on_c, 1, 60, 110
3, 56640, Note_on_c, 1, 72, 70
3, 56871, Note_on_c, 1, 60, 0
3, 56871, Note_on_c, 1, 72, 0
3, 56880, Note_on_c, 1, 59, 110
3, 56880, Note_on_c, 1, 71, 70
3, 57063, Note_on_c, 1, 45, 0
3, 57063, Note_on_c, 1, 57, 0
3, 57111, Note_on_c, 1, 59, 0
3, 57111, Note_on_c, 1, 71, 0
3, 57120, Note_on_c, 1, 52, 110
3, 57120, Note_on_c, 1, 64, 70
3, 57360, Note_on_c, 1, 55, 110
3, 57360, Note_on_c, 1, 67, 70
3, 57581, Note_on_c, 1, 52, 0
3, 57581, Note_on_c, 1, 64, 0
3, 57591, Note_on_c, 1, 55, 0
3, 57591, Note_on_c, 1, 67, 0
3, 57600, Note_on_c, 1, 43, 110
3, 57600, Note_on_c, 1, 55, 70
3, 57840, Note_on_c, 1, 69, 70
3, 57840, Note_on_c, 1, 57, 110
3, 58071, Note_on_c, 1, 69, 0
3, 58071, Note_on_c, 1, 57, 0
3, 58080, Note_on_c, 1, 59, 110
3, 58080, Note_on_c, 1, 71, 70
3, 58311, Note_on_c, 1, 59, 0
3, 58311, Note_on_c, 1, 71, 0
3, 58320, Note_on_c, 1, 65, 110
3, 58320, Note_on_c, 1, 77, 70
3, 58551, Note_on_c, 1, 65, 0
3, 58551, Note_on_c, 1, 77, 0
3, 58560, Note_on_c, 1, 59, 110
3, 58560, Note_on_c, 1, 71, 70
3, 58791, Note_on_c, 1, 59, 0
3, 58791, Note_on_c, 1, 71, 0
3, 58800, Note_on_c, 1, 57, 110
3, 58800, Note_on_c, 1, 69, 70
3, 58983, Note_on_c, 1, 43, 0
3, 58983, Note_on_c, 1, 55, 0
3, 59031, Note_on_c, 1, 57, 0
3, 59031, Note_on_c, 1, 69, 0
3, 59040, Note_on_c, 1, 53, 110
3, 59040, Note_on_c, 1, 65, 70
3, 59280, Note_on_c, 1, 57, 110
3, 59280, Note_on_c, 1, 69, 70
3, 59501, Note_on_c, 1, 53, 0
3, 59501, Note_on_c, 1, 65, 0
3, 59511, Note_on_c, 1, 57, 0
3, 59511, Note_on_c, 1, 69, 0
3, 59520, Note_on_c, 1, 43, 110
3, 59520, Note_on_c, 1, 55, 70
3, 59760, Note_on_c, 1, 69, 70
3, 59760, Note_on_c, 1, 57, 110
3, 59991, Note_on_c, 1, 69, 0
3, 59991, Note_on_c, 1, 57, 0
3, 60000, Note_on_c, 1, 59, 110
3, 60000, Note_on_c, 1, 71, 70
3, 60231, Note_on_c, 1, 59, 0
3, 60231, Note_on_c, 1, 71, 0
3, 60240, Note_on_c, 1, 65, 110
3, 60240, Note_on_c, 1, 77, 70
3, 60471, Note_on_c, 1, 65, 0
3, 60471, Note_on_c, 1, 77, 0
3, 60480, Note_on_c, 1, 59, 110
3, 60480, Note_on_c, 1, 71, 70
3, 60711, Note_on_c, 1, 59, 0
3, 60711, Note_on_c, 1, 71, 0
3, 60720, Note_on_c, 1, 57, 110
3, 60720, Note_on_c, 1, 69, 70
3, 60903, Note_on_c, 1, 43, 0
3, 60903, Note_on_c, 1, 55, 0
3, 60951, Note_on_c, 1, 57, 0
3, 60951, Note_on_c, 1, 69, 0
3, 60960, Note_on_c, 1, 53, 110
3, 60960, Note_on_c, 1, 65, 70
3, 61200, Note_on_c, 1, 57, 110
3, 61200, Note_on_c, 1, 69, 70
3, 61421, Note_on_c, 1, 53, 0
3, 61421, Note_on_c, 1, 65, 0
3, 61431, Note_on_c, 1, 57, 0
3, 61431, Note_on_c, 1, 69, 0
3, 61440, Note_on_c, 1, 40, 110
3, 61440, Note_on_c, 1, 52, 110
3, 61680, Note_on_c, 1, 55, 110
3, 61680, Note_on_c, 1, 67, 70
3, 61911, Note_on_c, 1, 55, 0
3, 61911, Note_on_c, 1, 67, 0
3, 61920, Note_on_c, 1, 62, 110
3, 61920, Note_on_c, 1, 74, 70
3, 62151, Note_on_c, 1, 62, 0
3, 62151, Note_on_c, 1, 74, 0
3, 62160, Note_on_c, 1, 64, 110
3, 62160, Note_on_c, 1, 76, 70
3, 62391, Note_on_c, 1, 64, 0
3, 62391, Note_on_c, 1, 76, 0
3, 62400, Note_on_c, 1, 62, 110
3, 62400, Note_on_c, 1, 74, 70
3, 62631, Note_on_c, 1, 62, 0
3, 62631, Note_on_c, 1, 74, 0
3, 62640, Note_on_c, 1, 55, 110
3, 62640, Note_on_c, 1, 67, 70
3, 62823, Note_on_c, 1, 40, 0
3, 62823, Note_on_c, 1, 52, 0
3, 62871, Note_on_c, 1, 55, 0
3, 62871, Note_on_c, 1, 67, 0
3, 62880, Note_on_c, 1, 52, 110
3, 62880, Note_on_c, 1, 64, 70
3, 63120, Note_on_c, 1, 55, 110
3, 63120, Note_on_c, 1, 67, 70
3, 63341, Note_on_c, 1, 52, 0
3, 63341, Note_on_c, 1, 64, 0
3, 63351, Note_on_c, 1, 55, 0
3, 63351, Note_on_c, 1, 67, 0
3, 63360, Note_on_c, 1, 40, 110
3, 63360, Note_on_c, 1, 52, 70
3, 63600, Note_on_c, 1, 55, 110
3, 63600, Note_on_c, 1, 67, 70
3, 63831, Note_on_c, 1, 55, 0
3, 63831, Note_on_c, 1, 67, 0
3, 63840, Note_on_c, 1, 62, 110
3, 63840, Note_on_c, 1, 74, 70
3, 64071, Note_on_c, 1, 62, 0
3, 64071, Note_on_c, 1, 74, 0
3, 64080, Note_on_c, 1, 64, 110
3, 64080, Note_on_c, 1, 76, 70
3, 64311, Note_on_c, 1, 64, 0
3, 64311, Note_on_c, 1, 76, 0
3, 64320, Note_on_c, 1, 62, 110
3, 64320, Note_on_c, 1, 74, 70
3, 64551, Note_on_c, 1, 62, 0
3, 64551, Note_on_c, 1, 74, 0
3, 64560, Note_on_c, 1, 55, 110
3, 64560, Note_on_c, 1, 67, 70
3, 64743, Note_on_c, 1, 40, 0
3, 64743, Note_on_c, 1, 52, 0
3, 64791, Note_on_c, 1, 55, 0
3, 64791, Note_on_c, 1, 67, 0
3, 64800, Note_on_c, 1, 45, 110
3, 64800, Note_on_c, 1, 57, 70
3, 65040, Note_on_c, 1, 55, 110
3, 65040, Note_on_c, 1, 67, 70
3, 65261, Note_on_c, 1, 45, 0
3, 65261, Note_on_c, 1, 57, 0
3, 65271, Note_on_c, 1, 55, 0
3, 65271, Note_on_c, 1, 67, 0
3, 65280, Note_on_c, 1, 50, 110
3, 65280, Note_on_c, 1, 62, 70
3, 65520, Note_on_c, 1, 57, 110
3, 65520, Note_on_c, 1, 69, 70
3, 65741, Note_on_c, 1, 62, 0
3, 65751, Note_on_c, 1, 57, 0
3, 65751, Note_on_c, 1, 69, 0
3, 65760, Note_on_c, 1, 62, 110
3, 65760, Note_on_c, 1, 74, 70
3, 65991, Note_on_c, 1, 62, 0
3, 65991, Note_on_c, 1, 74, 0
3, 66000, Note_on_c, 1, 67, 110
3, 66000, Note_on_c, 1, 79, 70
3, 66231, Note_on_c, 1, 67, 0
3, 66231, Note_on_c, 1, 79, 0
3, 66240, Note_on_c, 1, 62, 110
3, 66240, Note_on_c, 1, 74, 70
3, 66471, Note_on_c, 1, 62, 0
3, 66471, Note_on_c, 1, 74, 0
3, 66480, Note_on_c, 1, 57, 110
3, 66480, Note_on_c, 1, 69, 70
3, 66663, Note_on_c, 1, 50, 0
3, 66711, Note_on_c, 1, 57, 0
3, 66711, Note_on_c, 1, 69, 0
3, 66720, Note_on_c, 1, 62, 110
3, 66720, Note_on_c, 1, 74, 70
3, 66960, Note_on_c, 1, 67, 110
3, 66960, Note_on_c, 1, 79, 70
3, 67181, Note_on_c, 1, 62, 0
3, 67181, Note_on_c, 1, 74, 0
3, 67191, Note_on_c, 1, 67, 0
3, 67191, Note_on_c, 1, 79, 0
3, 67200, Note_on_c, 1, 50, 110
3, 67200, Note_on_c, 1, 62, 70
3, 67440, Note_on_c, 1, 57, 110
3, 67440, Note_on_c, 1, 69, 70
3, 67661, Note_on_c, 1, 62, 0
3, 67671, Note_on_c, 1, 57, 0
3, 67671, Note_on_c, 1, 69, 0
3, 67680, Note_on_c, 1, 62, 110
3, 67680, Note_on_c, 1, 74, 70
3, 67911, Note_on_c, 1, 62, 0
3, 67911, Note_on_c, 1, 74, 0
3, 67920, Note_on_c, 1, 65, 110
3, 67920, Note_on_c, 1, 77, 70
3, 68151, Note_on_c, 1, 65, 0
3, 68151, Note_on_c, 1, 77, 0
3, 68160, Note_on_c, 1, 62, 110
3, 68160, Note_on_c, 1, 74, 70
3, 68391, Note_on_c, 1, 62, 0
3, 68391, Note_on_c, 1, 74, 0
3, 68400, Note_on_c, 1, 57, 110
3, 68400, Note_on_c, 1, 69, 70
3, 68583, Note_on_c, 1, 50, 0
3, 68631, Note_on_c, 1, 57, 0
3, 68631, Note_on_c, 1, 69, 0
3, 68640, Note_on_c, 1, 62, 110
3, 68640, Note_on_c, 1, 74, 70
3, 68880, Note_on_c, 1, 65, 110
3, 68880, Note_on_c, 1, 77, 70
3, 69101, Note_on_c, 1, 62, 0
3, 69101, Note_on_c, 1, 74, 0
3, 69111, Note_on_c, 1, 65, 0
3, 69111, Note_on_c, 1, 77, 0
3, 69120, Note_on_c, 1, 50, 110
3, 69120, Note_on_c, 1, 62, 70
3, 69360, Note_on_c, 1, 56, 110
3, 69360, Note_on_c, 1, 68, 70
3, 69581, Note_on_c, 1, 62, 0
3, 69591, Note_on_c, 1, 56, 0
3, 69591, Note_on_c, 1, 68, 0
3, 69600, Note_on_c, 1, 62, 110
3, 69600, Note_on_c, 1, 74, 70
3, 69831, Note_on_c, 1, 62, 0
3, 69831, Note_on_c, 1, 74, 0
3, 69840, Note_on_c, 1, 65, 110
3, 69840, Note_on_c, 1, 77, 70
3, 70071, Note_on_c, 1, 65, 0
3, 70071, Note_on_c, 1, 77, 0
3, 70080, Note_on_c, 1, 62, 110
3, 70080, Note_on_c, 1, 74, 70
3, 70311, Note_on_c, 1, 62, 0
3, 70311, Note_on_c, 1, 74, 0
3, 70320, Note_on_c, 1, 56, 110
3, 70320, Note_on_c, 1, 68, 70
3, 70503, Note_on_c, 1, 50, 0
3, 70551, Note_on_c, 1, 56, 0
3, 70551, Note_on_c, 1, 68, 0
3, 70560, Note_on_c, 1, 62, 110
3, 70560, Note_on_c, 1, 74, 70
3, 70800, Note_on_c, 1, 65, 110
3, 70800, Note_on_c, 1, 77, 70
3, 71021, Note_on_c, 1, 62, 0
3, 71021, Note_on_c, 1, 74, 0
3, 71031, Note_on_c, 1, 65, 0
3, 71031, Note_on_c, 1, 77, 0
3, 71040, Note_on_c, 1, 50, 110
3, 71040, Note_on_c, 1, 62, 70
3, 71280, Note_on_c, 1, 56, 110
3, 71280, Note_on_c, 1, 68, 70
3, 71511, Note_on_c, 1, 56, 0
3, 71511, Note_on_c, 1, 68, 0
3, 71520, Note_on_c, 1, 60, 110
3, 71520, Note_on_c, 1, 72, 70
3, 71751, Note_on_c, 1, 60, 0
3, 71751, Note_on_c, 1, 72, 0
3, 71760, Note_on_c, 1, 68, 110
3, 71760, Note_on_c, 1, 80, 70
3, 71991, Note_on_c, 1, 68, 0
3, 71991, Note_on_c, 1, 80, 0
3, 72000, Note_on_c, 1, 60, 110
3, 72000, Note_on_c, 1, 72, 70
3, 72231, Note_on_c, 1, 60, 0
3, 72231, Note_on_c, 1, 72, 0
3, 72240, Note_on_c, 1, 56, 110
3, 72240, Note_on_c, 1, 68, 70
3, 72423, Note_on_c, 1, 50, 0
3, 72423, Note_on_c, 1, 62, 0
3, 72471, Note_on_c, 1, 56, 0
3, 72471, Note_on_c, 1, 68, 0
3, 72480, Note_on_c, 1, 60, 110
3, 72480, Note_on_c, 1, 72, 70
3, 72720, Note_on_c, 1, 68, 110
3, 72720, Note_on_c, 1, 80, 70
3, 72941, Note_on_c, 1, 60, 0
3, 72941, Note_on_c, 1, 72, 0
3, 72951, Note_on_c, 1, 68, 0
3, 72951, Note_on_c, 1, 80, 0
3, 72960, Note_on_c, 1, 43, 110
3, 72960, Note_on_c, 1, 55, 70
3, 73200, Note_on_c, 1, 57, 110
3, 73200, Note_on_c, 1, 69, 70
3, 73431, Note_on_c, 1, 57, 0
3, 73431, Note_on_c, 1, 69, 0
3, 73440, Note_on_c, 1, 59, 110
3, 73440, Note_on_c, 1, 71, 70
3, 73671, Note_on_c, 1, 59, 0
3, 73671, Note_on_c, 1, 71, 0
3, 73680, Note_on_c, 1, 65, 110
3, 73680, Note_on_c, 1, 77, 70
3, 73911, Note_on_c, 1, 65, 0
3, 73911, Note_on_c, 1, 77, 0
3, 73920, Note_on_c, 1, 59, 110
3, 73920, Note_on_c, 1, 71, 70
3, 74151, Note_on_c, 1, 59, 0
3, 74151, Note_on_c, 1, 71, 0
3, 74160, Note_on_c, 1, 57, 110
3, 74160, Note_on_c, 1, 69, 70
3, 74343, Note_on_c, 1, 43, 0
3, 74343, Note_on_c, 1, 55, 0
3, 74391, Note_on_c, 1, 57, 0
3, 74391, Note_on_c, 1, 69, 0
3, 74400, Note_on_c, 1, 59, 110
3, 74400, Note_on_c, 1, 71, 70
3, 74640, Note_on_c, 1, 65, 110
3, 74640, Note_on_c, 1, 77, 70
3, 74861, Note_on_c, 1, 59, 0
3, 74861, Note_on_c, 1, 71, 0
3, 74871, Note_on_c, 1, 65, 0
3, 74871, Note_on_c, 1, 77, 0
3, 74880, Note_on_c, 1, 43, 110
3, 74880, Note_on_c, 1, 55, 70
3, 75111, Note_on_c, 1, 55, 0
3, 75120, Note_on_c, 1, 55, 110
3, 75120, Note_on_c, 1, 67, 70
3, 75351, Note_on_c, 1, 55, 0
3, 75351, Note_on_c, 1, 67, 0
3, 75360, Note_on_c, 1, 59, 110
3, 75360, Note_on_c, 1, 71, 70
3, 75591, Note_on_c, 1, 59, 0
3, 75591, Note_on_c, 1, 71, 0
3, 75600, Note_on_c, 1, 64, 110
3, 75600, Note_on_c, 1, 76, 70
3, 75802, Note_on_c, 1, 43, 0
3, 75831, Note_on_c, 1, 64, 0
3, 75831, Note_on_c, 1, 76, 0
3, 75840, Note_on_c, 1, 43, 110
3, 75840, Note_on_c, 1, 55, 70
3, 76071, Note_on_c, 1, 55, 0
3, 76080, Note_on_c, 1, 55, 110
3, 76080, Note_on_c, 1, 67, 70
3, 76311, Note_on_c, 1, 55, 0
3, 76311, Note_on_c, 1, 67, 0
3, 76320, Note_on_c, 1, 59, 110
3, 76320, Note_on_c, 1, 71, 70
3, 76551, Note_on_c, 1, 59, 0
3, 76551, Note_on_c, 1, 71, 0
3, 76560, Note_on_c, 1, 65, 110
3, 76560, Note_on_c, 1, 77, 70
3, 76762, Note_on_c, 1, 43, 0
3, 76791, Note_on_c, 1, 65, 0
3, 76791, Note_on_c, 1, 77, 0
3, 76800, Note_on_c, 1, 45, 70
3, 76800, Note_on_c, 1, 57, 90
3, 77031, Note_on_c, 1, 45, 0
3, 77031, Note_on_c, 1, 57, 0
3, 77040, Note_on_c, 1, 69, 70
3, 77040, Note_on_c, 1, 57, 110
3, 77271, Note_on_c, 1, 69, 0
3, 77271, Note_on_c, 1, 57, 0
3, 77280, Note_on_c, 1, 74, 70
3, 77280, Note_on_c, 1, 62, 110
3, 77511, Note_on_c, 1, 74, 0
3, 77511, Note_on_c, 1, 62, 0
3, 77520, Note_on_c, 1, 76, 70
3, 77520, Note_on_c, 1, 64, 110
3, 77751, Note_on_c, 1, 76, 0
3, 77751, Note_on_c, 1, 64, 0
3, 77760, Note_on_c, 1, 62, 110
3, 77760, Note_on_c, 1, 74, 70
3, 77991, Note_on_c, 1, 62, 0
3, 77991, Note_on_c, 1, 74, 0
3, 78000, Note_on_c, 1, 69, 70
3, 78000, Note_on_c, 1, 57, 110
3, 78231, Note_on_c, 1, 69, 0
3, 78231, Note_on_c, 1, 57, 0
3, 78240, Note_on_c, 1, 74, 70
3, 78240, Note_on_c, 1, 62, 110
3, 78480, Note_on_c, 1, 76, 70
3, 78480, Note_on_c, 1, 64, 110
3, 78701, Note_on_c, 1, 74, 0
3, 78701, Note_on_c, 1, 62, 0
3, 78711, Note_on_c, 1, 76, 0
3, 78711, Note_on_c, 1, 64, 0
3, 78720, Note_on_c, 1, 43, 65
3, 78720, Note_on_c, 1, 55, 85
3, 78960, Note_on_c, 1, 57, 110
3, 78960, Note_on_c, 1, 69, 70
3, 79191, Note_on_c, 1, 57, 0
3, 79191, Note_on_c, 1, 69, 0
3, 79200, Note_on_c, 1, 72, 70
3, 79200, Note_on_c, 1, 60, 110
3, 79431, Note_on_c, 1, 72, 0
3, 79431, Note_on_c, 1, 60, 0
3, 79440, Note_on_c, 1, 76, 70
3, 79440, Note_on_c, 1, 64, 110
3, 79671, Note_on_c, 1, 76, 0
3, 79671, Note_on_c, 1, 64, 0
3, 79680, Note_on_c, 1, 60, 110
3, 79680, Note_on_c, 1, 72, 70
3, 79911, Note_on_c, 1, 60, 0
3, 79911, Note_on_c, 1, 72, 0
3, 79920, Note_on_c, 1, 69, 70
3, 79920, Note_on_c, 1, 57, 110
3, 80103, Note_on_c, 1, 43, 0
3, 80103, Note_on_c, 1, 55, 0
3, 80151, Note_on_c, 1, 69, 0
3, 80151, Note_on_c, 1, 57, 0
3, 80160, Note_on_c, 1, 72, 70
3, 80160, Note_on_c, 1, 60, 110
3, 80400, Note_on_c, 1, 76, 70
3, 80400, Note_on_c, 1, 64, 110
3, 80621, Note_on_c, 1, 72, 0
3, 80621, Note_on_c, 1, 60, 0
3, 80631, Note_on_c, 1, 76, 0
3, 80631, Note_on_c, 1, 64, 0
3, 80640, Note_on_c, 1, 42, 60
3, 80640, Note_on_c, 1, 54, 80
3, 80880, Note_on_c, 1, 69, 70
3, 80880, Note_on_c, 1, 57, 110
3, 81111, Note_on_c, 1, 69, 0
3, 81111, Note_on_c, 1, 57, 0
3, 81120, Note_on_c, 1, 72, 70
3, 81120, Note_on_c, 1, 60, 110
3, 81351, Note_on_c, 1, 72, 0
3, 81351, Note_on_c, 1, 60, 0
3, 81360, Note_on_c, 1, 76, 70
3, 81360, Note_on_c, 1, 64, 110
3, 81591, Note_on_c, 1, 76, 0
3, 81591, Note_on_c, 1, 64, 0
3, 81600, Note_on_c, 1, 60, 110
3, 81600, Note_on_c, 1, 72, 70
3, 81831, Note_on_c, 1, 60, 0
3, 81831, Note_on_c, 1, 72, 0
3, 81840, Note_on_c, 1, 69, 70
3, 81840, Note_on_c, 1, 57, 110
3, 82023, Note_on_c, 1, 42, 0
3, 82023, Note_on_c, 1, 54, 0
3, 82071, Note_on_c, 1, 69, 0
3, 82071, Note_on_c, 1, 57, 0
3, 82080, Note_on_c, 1, 60, 110
3, 82080, Note_on_c, 1, 72, 70
3, 82320, Note_on_c, 1, 64, 110
3, 82320, Note_on_c, 1, 76, 70
3, 82541, Note_on_c, 1, 60, 0
3, 82541, Note_on_c, 1, 72, 0
3, 82551, Note_on_c, 1, 64, 0
3, 82551, Note_on_c, 1, 76, 0
3, 82560, Note_on_c, 1, 41, 60
3, 82560, Note_on_c, 1, 53, 80
3, 82800, Note_on_c, 1, 69, 70
3, 82800, Note_on_c, 1, 57, 110
3, 83031, Note_on_c, 1, 69, 0
3, 83031, Note_on_c, 1, 57, 0
3, 83040, Note_on_c, 1, 60, 110
3, 83040, Note_on_c, 1, 72, 70
3, 83271, Note_on_c, 1, 60, 0
3, 83271, Note_on_c, 1, 72, 0
3, 83280, Note_on_c, 1, 65, 110
3, 83280, Note_on_c, 1, 77, 70
3, 83511, Note_on_c, 1, 65, 0
3, 83511, Note_on_c, 1, 77, 0
3, 83520, Note_on_c, 1, 72, 70
3, 83520, Note_on_c, 1, 60, 110
3, 83751, Note_on_c, 1, 72, 0
3, 83751, Note_on_c, 1, 60, 0
3, 83760, Note_on_c, 1, 57, 110
3, 83760, Note_on_c, 1, 69, 70
3, 83943, Note_on_c, 1, 41, 0
3, 83943, Note_on_c, 1, 53, 0
3, 83991, Note_on_c, 1, 57, 0
3, 83991, Note_on_c, 1, 69, 0
3, 84000, Note_on_c, 1, 60, 110
3, 84000, Note_on_c, 1, 72, 70
3, 84240, Note_on_c, 1, 65, 110
3, 84240, Note_on_c, 1, 77, 70
3, 84461, Note_on_c, 1, 60, 0
3, 84461, Note_on_c, 1, 72, 0
3, 84471, Note_on_c, 1, 65, 0
3, 84471, Note_on_c, 1, 77, 0
3, 84480, Note_on_c, 1, 38, 70
3, 84480, Note_on_c, 1, 50, 90
3, 84720, Note_on_c, 1, 69, 70
3, 84720, Note_on_c, 1, 57, 110
3, 84951, Note_on_c, 1, 69, 0
3, 84951, Note_on_c, 1, 57, 0
3, 84960, Note_on_c, 1, 74, 70
3, 84960, Note_on_c, 1, 62, 110
3, 85191, Note_on_c, 1, 74, 0
3, 85191, Note_on_c, 1, 62, 0
3, 85200, Note_on_c, 1, 77, 70
3, 85200, Note_on_c, 1, 65, 110
3, 85431, Note_on_c, 1, 77, 0
3, 85431, Note_on_c, 1, 65, 0
3, 85440, Note_on_c, 1, 62, 110
3, 85440, Note_on_c, 1, 74, 70
3, 85671, Note_on_c, 1, 62, 0
3, 85671, Note_on_c, 1, 74, 0
3, 85680, Note_on_c, 1, 69, 70
3, 85680, Note_on_c, 1, 57, 110
3, 85863, Note_on_c, 1, 38, 0
3, 85863, Note_on_c, 1, 50, 0
3, 85911, Note_on_c, 1, 69, 0
3, 85911, Note_on_c, 1, 57, 0
3, 85920, Note_on_c, 1, 74, 70
3, 85920, Note_on_c, 1, 62, 110
3, 86160, Note_on_c, 1, 77, 70
3, 86160, Note_on_c, 1, 65, 110
3, 86381, Note_on_c, 1, 74, 0
3, 86381, Note_on_c, 1, 62, 0
3, 86391, Note_on_c, 1, 77, 0
3, 86391, Note_on_c, 1, 65, 0
3, 86400, Note_on_c, 1, 43, 70
3, 86400, Note_on_c, 1, 55, 90
3, 86631, Note_on_c, 1, 43, 0
3, 86631, Note_on_c, 1, 55, 0
3, 86640, Note_on_c, 1, 67, 70
3, 86640, Note_on_c, 1, 55, 110
3, 86871, Note_on_c, 1, 67, 0
3, 86871, Note_on_c, 1, 55, 0
3, 86880, Note_on_c, 1, 74, 70
3, 86880, Note_on_c, 1, 62, 110
3, 87111, Note_on_c, 1, 74, 0
3, 87111, Note_on_c, 1, 62, 0
3, 87120, Note_on_c, 1, 77, 70
3, 87120, Note_on_c, 1, 65, 110
3, 87351, Note_on_c, 1, 77, 0
3, 87351, Note_on_c, 1, 65, 0
3, 87360, Note_on_c, 1, 62, 110
3, 87360, Note_on_c, 1, 74, 70
3, 87591, Note_on_c, 1, 62, 0
3, 87591, Note_on_c, 1, 74, 0
3, 87600, Note_on_c, 1, 67, 70
3, 87600, Note_on_c, 1, 55, 110
3, 87831, Note_on_c, 1, 67, 0
3, 87831, Note_on_c, 1, 55, 0
3, 87840, Note_on_c, 1, 74, 70
3, 87840, Note_on_c, 1, 62, 110
3, 88080, Note_on_c, 1, 77, 70
3, 88080, Note_on_c, 1, 65, 110
3, 88301, Note_on_c, 1, 74, 0
3, 88301, Note_on_c, 1, 62, 0
3, 88311, Note_on_c, 1, 77, 0
3, 88311, Note_on_c, 1, 65, 0
3, 88320, Note_on_c, 1, 40, 70
3, 88320, Note_on_c, 1, 52, 90
3, 88560, Note_on_c, 1, 67, 70
3, 88560, Note_on_c, 1, 55, 110
3, 88791, Note_on_c, 1, 67, 0
3, 88791, Note_on_c, 1, 55, 0
3, 88800, Note_on_c, 1, 74, 70
3, 88800, Note_on_c, 1, 62, 110
3, 89031, Note_on_c, 1, 74, 0
3, 89031, Note_on_c, 1, 62, 0
3, 89040, Note_on_c, 1, 76, 70
3, 89040, Note_on_c, 1, 64, 110
3, 89271, Note_on_c, 1, 76, 0
3, 89271, Note_on_c, 1, 64, 0
3, 89280, Note_on_c, 1, 62, 110
3, 89280, Note_on_c, 1, 74, 70
3, 89511, Note_on_c, 1, 62, 0
3, 89511, Note_on_c, 1, 74, 0
3, 89520, Note_on_c, 1, 67, 70
3, 89520, Note_on_c, 1, 55, 110
3, 89703, Note_on_c, 1, 40, 0
3, 89703, Note_on_c, 1, 52, 0
3, 89751, Note_on_c, 1, 67, 0
3, 89751, Note_on_c, 1, 55, 0
3, 89760, Note_on_c, 1, 74, 70
3, 89760, Note_on_c, 1, 62, 110
3, 90000, Note_on_c, 1, 76, 70
3, 90000, Note_on_c, 1, 64, 110
3, 90221, Note_on_c, 1, 74, 0
3, 90221, Note_on_c, 1, 62, 0
3, 90231, Note_on_c, 1, 76, 0
3, 90231, Note_on_c, 1, 64, 0
3, 90240, Note_on_c, 1, 77, 70
3, 90240, Note_on_c, 1, 65, 110
3, 90480, Note_on_c, 1, 67, 70
3, 90480, Note_on_c, 1, 55, 110
3, 90701, Note_on_c, 1, 77, 0
3, 90701, Note_on_c, 1, 65, 0
3, 90711, Note_on_c, 1, 67, 0
3, 90711, Note_on_c, 1, 55, 0
3, 90720, Note_on_c, 1, 76, 70
3, 90720, Note_on_c, 1, 64, 110
3, 90960, Note_on_c, 1, 67, 70
3, 90960, Note_on_c, 1, 55, 110
3, 91181, Note_on_c, 1, 76, 0
3, 91181, Note_on_c, 1, 64, 0
3, 91191, Note_on_c, 1, 67, 0
3, 91191, Note_on_c, 1, 55, 0
3, 91200, Note_on_c, 1, 75, 70
3, 91200, Note_on_c, 1, 63, 110
3, 91440, Note_on_c, 1, 67, 70
3, 91440, Note_on_c, 1, 55, 110
3, 91661, Note_on_c, 1, 75, 0
3, 91661, Note_on_c, 1, 63, 0
3, 91671, Note_on_c, 1, 67, 0
3, 91671, Note_on_c, 1, 55, 0
3, 91680, Note_on_c, 1, 76, 70
3, 91680, Note_on_c, 1, 64, 110
3, 91920, Note_on_c, 1, 67, 70
3, 91920, Note_on_c, 1, 55, 110
3, 92141, Note_on_c, 1, 76, 0
3, 92141, Note_on_c, 1, 64, 0
3, 92151, Note_on_c, 1, 67, 0
3, 92151, Note_on_c, 1, 55, 0
3, 92160, Note_on_c, 1, 38, 70
3, 92160, Note_on_c, 1, 50, 90
3, 92400, Note_on_c, 1, 69, 70
3, 92400, Note_on_c, 1, 57, 110
3, 92631, Note_on_c, 1, 69, 0
3, 92631, Note_on_c, 1, 57, 0
3, 92640, Note_on_c, 1, 72, 70
3, 92640, Note_on_c, 1, 60, 110
3, 92871, Note_on_c, 1, 72, 0
3, 92871, Note_on_c, 1, 60, 0
3, 92880, Note_on_c, 1, 76, 70
3, 92880, Note_on_c, 1, 64, 110
3, 93111, Note_on_c, 1, 76, 0
3, 93111, Note_on_c, 1, 64, 0
3, 93120, Note_on_c, 1, 60, 110
3, 93120, Note_on_c, 1, 72, 70
3, 93351, Note_on_c, 1, 60, 0
3, 93351, Note_on_c, 1, 72, 0
3, 93360, Note_on_c, 1, 69, 70
3, 93360, Note_on_c, 1, 57, 110
3, 93543, Note_on_c, 1, 38, 0
3, 93543, Note_on_c, 1, 50, 0
3, 93591, Note_on_c, 1, 69, 0
3, 93591, Note_on_c, 1, 57, 0
3, 93600, Note_on_c, 1, 72, 70
3, 93600, Note_on_c, 1, 60, 110
3, 93840, Note_on_c, 1, 76, 70
3, 93840, Note_on_c, 1, 64, 110
3, 94061, Note_on_c, 1, 72, 0
3, 94061, Note_on_c, 1, 60, 0
3, 94071, Note_on_c, 1, 76, 0
3, 94071, Note_on_c, 1, 64, 0
3, 94080, Note_on_c, 1, 38, 75
3, 94080, Note_on_c, 1, 50, 95
3, 94320, Note_on_c, 1, 69, 70
3, 94320, Note_on_c, 1, 57, 110
3, 94551, Note_on_c, 1, 69, 0
3, 94551, Note_on_c, 1, 57, 0
3, 94560, Note_on_c, 1, 72, 70
3, 94560, Note_on_c, 1, 60, 110
3, 94791, Note_on_c, 1, 72, 0
3, 94791, Note_on_c, 1, 60, 0
3, 94800, Note_on_c, 1, 76, 70
3, 94800, Note_on_c, 1, 64, 110
3, 95031, Note_on_c, 1, 76, 0
3, 95031, Note_on_c, 1, 64, 0
3, 95040, Note_on_c, 1, 60, 110
3, 95040, Note_on_c, 1, 72, 70
3, 95271, Note_on_c, 1, 60, 0
3, 95271, Note_on_c, 1, 72, 0
3, 95280, Note_on_c, 1, 69, 70
3, 95280, Note_on_c, 1, 57, 110
3, 95463, Note_on_c, 1, 38, 0
3, 95463, Note_on_c, 1, 50, 0
3, 95511, Note_on_c, 1, 69, 0
3, 95511, Note_on_c, 1, 57, 0
3, 95520, Note_on_c, 1, 72, 70
3, 95520, Note_on_c, 1, 60, 110
3, 95760, Note_on_c, 1, 76, 70
3, 95760, Note_on_c, 1, 64, 110
3, 95981, Note_on_c, 1, 72, 0
3, 95981, Note_on_c, 1, 60, 0
3, 95991, Note_on_c, 1, 76, 0
3, 95991, Note_on_c, 1, 64, 0
3, 96000, Note_on_c, 1, 43, 70
3, 96000, Note_on_c, 1, 55, 90
3, 96240, Note_on_c, 1, 69, 70
3, 96240, Note_on_c, 1, 57, 110
3, 96471, Note_on_c, 1, 69, 0
3, 96471, Note_on_c, 1, 57, 0
3, 96480, Note_on_c, 1, 72, 70
3, 96480, Note_on_c, 1, 60, 110
3, 96711, Note_on_c, 1, 72, 0
3, 96711, Note_on_c, 1, 60, 0
3, 96720, Note_on_c, 1, 77, 70
3, 96720, Note_on_c, 1, 65, 100
3, 96951, Note_on_c, 1, 77, 0
3, 96951, Note_on_c, 1, 65, 0
3, 96960, Note_on_c, 1, 60, 110
3, 96960, Note_on_c, 1, 72, 70
3, 97191, Note_on_c, 1, 60, 0
3, 97191, Note_on_c, 1, 72, 0
3, 97200, Note_on_c, 1, 69, 70
3, 97200, Note_on_c, 1, 57, 110
3, 97383, Note_on_c, 1, 43, 0
3, 97383, Note_on_c, 1, 55, 0
3, 97431, Note_on_c, 1, 69, 0
3, 97431, Note_on_c, 1, 57, 0
3, 97440, Note_on_c, 1, 72, 70
3, 97440, Note_on_c, 1, 60, 110
3, 97680, Note_on_c, 1, 77, 70
3, 97680, Note_on_c, 1, 65, 110
3, 97901, Note_on_c, 1, 72, 0
3, 97901, Note_on_c, 1, 60, 0
3, 97911, Note_on_c, 1, 77, 0
3, 97911, Note_on_c, 1, 65, 0
3, 97920, Note_on_c, 1, 68, 100
3, 97920, Note_on_c, 1, 50, 100
3, 97950, Note_on_c, 1, 53, 110
3, 97980, Note_on_c, 1, 59, 110
3, 98842, Note_on_c, 1, 68, 0
3, 98842, Note_on_c, 1, 50, 0
3, 98872, Note_on_c, 1, 53, 0
3, 98880, Note_on_c, 1, 50, 100
3, 98880, Note_on_c, 1, 67, 100
3, 98902, Note_on_c, 1, 59, 0
3, 98910, Note_on_c, 1, 53, 110
3, 98940, Note_on_c, 1, 59, 110
3, 99802, Note_on_c, 1, 50, 0
3, 99802, Note_on_c, 1, 67, 0
3, 99832, Note_on_c, 1, 53, 0
3, 99840, Note_on_c, 1, 48, 110
3, 99840, Note_on_c, 1, 60, 70
3, 99862, Note_on_c, 1, 59, 0
3, 100080, Note_on_c, 1, 55, 110
3, 100080, Note_on_c, 1, 67, 70
3, 100311, Note_on_c, 1, 55, 0
3, 100311, Note_on_c, 1, 67, 0
3, 100320, Note_on_c, 1, 62, 110
3, 100320, Note_on_c, 1, 74, 70
3, 100551, Note_on_c, 1, 62, 0
3, 100551, Note_on_c, 1, 74, 0
3, 100560, Note_on_c, 1, 64, 110
3, 100560, Note_on_c, 1, 76, 70
3, 100791, Note_on_c, 1, 64, 0
3, 100791, Note_on_c, 1, 76, 0
3, 100800, Note_on_c, 1, 62, 110
3, 100800, Note_on_c, 1, 74, 70
3, 101031, Note_on_c, 1, 62, 0
3, 101031, Note_on_c, 1, 74, 0
3, 101040, Note_on_c, 1, 55, 110
3, 101040, Note_on_c, 1, 67, 70
3, 101223, Note_on_c, 1, 48, 0
3, 101223, Note_on_c, 1, 60, 0
3, 101271, Note_on_c, 1, 55, 0
3, 101271, Note_on_c, 1, 67, 0
3, 101280, Note_on_c, 1, 52, 110
3, 101280, Note_on_c, 1, 64, 70
3, 101520, Note_on_c, 1, 55, 110
3, 101520, Note_on_c, 1, 67, 70
3, 101741, Note_on_c, 1, 52, 0
3, 101741, Note_on_c, 1, 64, 0
3, 101751, Note_on_c, 1, 55, 0
3, 101751, Note_on_c, 1, 67, 0
3, 101760, Note_on_c, 1, 48, 110
3, 101760, Note_on_c, 1, 60, 70
3, 102000, Note_on_c, 1, 55, 110
3, 102000, Note_on_c, 1, 67, 70
3, 102231, Note_on_c, 1, 55, 0
3, 102231, Note_on_c, 1, 67, 0
3, 102240, Note_on_c, 1, 62, 110
3, 102240, Note_on_c, 1, 74, 70
3, 102471, Note_on_c, 1, 62, 0
3, 102471, Note_on_c, 1, 74, 0
3, 102480, Note_on_c, 1, 64, 110
3, 102480, Note_on_c, 1, 76, 70
3, 102711, Note_on_c, 1, 64, 0
3, 102711, Note_on_c, 1, 76, 0
3, 102720, Note_on_c, 1, 62, 110
3, 102720, Note_on_c, 1, 74, 70
3, 102951, Note_on_c, 1, 62, 0
3, 102951, Note_on_c, 1, 74, 0
3, 102960, Note_on_c, 1, 55, 110
3, 102960, Note_on_c, 1, 67, 70
3, 103143, Note_on_c, 1, 48, 0
3, 103143, Note_on_c, 1, 60, 0
3, 103191, Note_on_c, 1, 55, 0
3, 103191, Note_on_c, 1, 67, 0
3, 103200, Note_on_c, 1, 53, 110
3, 103200, Note_on_c, 1, 65, 70
3, 103440, Note_on_c, 1, 55, 110
3, 103440, Note_on_c, 1, 67, 70
3, 103661, Note_on_c, 1, 53, 0
3, 103661, Note_on_c, 1, 65, 0
3, 103671, Note_on_c, 1, 55, 0
3, 103671, Note_on_c, 1, 67, 0
3, 103680, Note_on_c, 1, 48, 110
3, 103680, Note_on_c, 1, 60, 70
3, 103920, Note_on_c, 1, 55, 110
3, 103920, Note_on_c, 1, 67, 70
3, 104151, Note_on_c, 1, 55, 0
3, 104151, Note_on_c, 1, 67, 0
3, 104160, Note_on_c, 1, 62, 110
3, 104160, Note_on_c, 1, 74, 70
3, 104391, Note_on_c, 1, 62, 0
3, 104391, Note_on_c, 1, 74, 0
3, 104400, Note_on_c, 1, 64, 110
3, 104400, Note_on_c, 1, 76, 70
3, 104631, Note_on_c, 1, 64, 0
3, 104631, Note_on_c, 1, 76, 0
3, 104640, Note_on_c, 1, 62, 110
3, 104640, Note_on_c, 1, 74, 70
3, 104871, Note_on_c, 1, 62, 0
3, 104871, Note_on_c, 1, 74, 0
3, 104880, Note_on_c, 1, 55, 110
3, 104880, Note_on_c, 1, 67, 70
3, 105063, Note_on_c, 1, 48, 0
3, 105063, Note_on_c, 1, 60, 0
3, 105111, Note_on_c, 1, 55, 0
3, 105111, Note_on_c, 1, 67, 0
3, 105120, Note_on_c, 1, 52, 110
3, 105120, Note_on_c, 1, 64, 70
3, 105360, Note_on_c, 1, 55, 110
3, 105360, Note_on_c, 1, 67, 70
3, 105581, Note_on_c, 1, 52, 0
3, 105581, Note_on_c, 1, 64, 0
3, 105591, Note_on_c, 1, 55, 0
3, 105591, Note_on_c, 1, 67, 0
3, 105600, Note_on_c, 1, 48, 110
3, 105600, Note_on_c, 1, 60, 70
3, 105840, Note_on_c, 1, 55, 110
3, 105840, Note_on_c, 1, 67, 70
3, 106071, Note_on_c, 1, 55, 0
3, 106071, Note_on_c, 1, 67, 0
3, 106080, Note_on_c, 1, 62, 110
3, 106080, Note_on_c, 1, 74, 70
3, 106311, Note_on_c, 1, 62, 0
3, 106311, Note_on_c, 1, 74, 0
3, 106320, Note_on_c, 1, 64, 110
3, 106320, Note_on_c, 1, 76, 70
3, 106551, Note_on_c, 1, 64, 0
3, 106551, Note_on_c, 1, 76, 0
3, 106560, Note_on_c, 1, 62, 110
3, 106560, Note_on_c, 1, 74, 70
3, 106791, Note_on_c, 1, 62, 0
3, 106791, Note_on_c, 1, 74, 0
3, 106800, Note_on_c, 1, 55, 110
3, 106800, Note_on_c, 1, 67, 70
3, 106983, Note_on_c, 1, 48, 0
3, 106983, Note_on_c, 1, 60, 0
3, 107031, Note_on_c, 1, 55, 0
3, 107031, Note_on_c, 1, 67, 0
3, 107040, Note_on_c, 1, 52, 110
3, 107040, Note_on_c, 1, 64, 70
3, 107280, Note_on_c, 1, 55, 110
3, 107280, Note_on_c, 1, 67, 70
3, 107501, Note_on_c, 1, 52, 0
3, 107501, Note_on_c, 1, 64, 0
3, 107511, Note_on_c, 1, 55, 0
3, 107511, Note_on_c, 1, 67, 0
3, 107520, Note_on_c, 1, 45, 110
3, 107520, Note_on_c, 1, 57, 70
3, 107760, Note_on_c, 1, 71, 70
3, 107760, Note_on_c, 1, 59, 110
3, 107991, Note_on_c, 1, 71, 0
3, 107991, Note_on_c, 1, 59, 0
3, 108000, Note_on_c, 1, 60, 110
3, 108000, Note_on_c, 1, 72, 70
3, 108231, Note_on_c, 1, 60, 0
3, 108231, Note_on_c, 1, 72, 0
3, 108240, Note_on_c, 1, 67, 110
3, 108240, Note_on_c, 1, 79, 70
3, 108471, Note_on_c, 1, 67, 0
3, 108471, Note_on_c, 1, 79, 0
3, 108480, Note_on_c, 1, 60, 110
3, 108480, Note_on_c, 1, 72, 70
3, 108711, Note_on_c, 1, 60, 0
3, 108711, Note_on_c, 1, 72, 0
3, 108720, Note_on_c, 1, 59, 110
3, 108720, Note_on_c, 1, 71, 70
3, 108903, Note_on_c, 1, 45, 0
3, 108903, Note_on_c, 1, 57, 0
3, 108951, Note_on_c, 1, 59, 0
3, 108951, Note_on_c, 1, 71, 0
3, 108960, Note_on_c, 1, 52, 110
3, 108960, Note_on_c, 1, 64, 70
3, 109200, Note_on_c, 1, 55, 110
3, 109200, Note_on_c, 1, 67, 70
3, 109421, Note_on_c, 1, 52, 0
3, 109421, Note_on_c, 1, 64, 0
3, 109431, Note_on_c, 1, 55, 0
3, 109431, Note_on_c, 1, 67, 0
3, 109440, Note_on_c, 1, 45, 110
3, 109440, Note_on_c, 1, 57, 70
3, 109680, Note_on_c, 1, 71, 70
3, 109680, Note_on_c, 1, 59, 110
3, 109911, Note_on_c, 1, 71, 0
3, 109911, Note_on_c, 1, 59, 0
3, 109920, Note_on_c, 1, 60, 110
3, 109920, Note_on_c, 1, 72, 70
3, 110151, Note_on_c, 1, 60, 0
3, 110151, Note_on_c, 1, 72, 0
3, 110160, Note_on_c, 1, 67, 110
3, 110160, Note_on_c, 1, 79, 70
3, 110391, Note_on_c, 1, 67, 0
3, 110391, Note_on_c, 1, 79, 0
3, 110400, Note_on_c, 1, 60, 110
3, 110400, Note_on_c, 1, 72, 70
3, 110631, Note_on_c, 1, 60, 0
3, 110631, Note_on_c, 1, 72, 0
3, 110640, Note_on_c, 1, 59, 110
3, 110640, Note_on_c, 1, 71, 70
3, 110823, Note_on_c, 1, 45, 0
3, 110823, Note_on_c, 1, 57, 0
3, 110871, Note_on_c, 1, 59, 0
3, 110871, Note_on_c, 1, 71, 0
3, 110880, Note_on_c, 1, 52, 110
3, 110880, Note_on_c, 1, 64, 70
3, 111120, Note_on_c, 1, 55, 110
3, 111120, Note_on_c, 1, 67, 70
3, 111341, Note_on_c, 1, 52, 0
3, 111341, Note_on_c, 1, 64, 0
3, 111351, Note_on_c, 1, 55, 0
3, 111351, Note_on_c, 1, 67, 0
3, 111360, Note_on_c, 1, 43, 110
3, 111360, Note_on_c, 1, 55, 70
3, 111600, Note_on_c, 1, 69, 70
3, 111600, Note_on_c, 1, 57, 110
3, 111831, Note_on_c, 1, 69, 0
3, 111831, Note_on_c, 1, 57, 0
3, 111840, Note_on_c, 1, 59, 110
3, 111840, Note_on_c, 1, 71, 70
3, 112071, Note_on_c, 1, 59, 0
3, 112071, Note_on_c, 1, 71, 0
3, 112080, Note_on_c, 1, 65, 110
3, 112080, Note_on_c, 1, 77, 70
3, 112311, Note_on_c, 1, 65, 0
3, 112311, Note_on_c, 1, 77, 0
3, 112320, Note_on_c, 1, 59, 110
3, 112320, Note_on_c, 1, 71, 70
3, 112551, Note_on_c, 1, 59, 0
3, 112551, Note_on_c, 1, 71, 0
3, 112560, Note_on_c, 1, 57, 110
3, 112560, Note_on_c, 1, 69, 70
3, 112743, Note_on_c, 1, 43, 0
3, 112743, Note_on_c, 1, 55, 0
3, 112791, Note_on_c, 1, 57, 0
3, 112791, Note_on_c, 1, 69, 0
3, 112800, Note_on_c, 1, 53, 110
3, 112800, Note_on_c, 1, 65, 70
3, 113040, Note_on_c, 1, 57, 110
3, 113040, Note_on_c, 1, 69, 70
3, 113261, Note_on_c, 1, 53, 0
3, 113261, Note_on_c, 1, 65, 0
3, 113271, Note_on_c, 1, 57, 0
3, 113271, Note_on_c, 1, 69, 0
3, 113271, End_track
4, 0, Start_track
4, 0, Title_t, ""
4, 0, MIDI_port, 0
4, 0, Control_c, 2, 0, 0
4, 0, Control_c, 2, 32, 0
4, 0, Program_c, 2, 48
4, 0, Note_on_c, 2, 60, 110
4, 0, Note_on_c, 2, 69, 105
4, 0, Note_on_c, 2, 78, 105
4, 0, Control_c, 2, 7, 0
4, 30, Control_c, 2, 7, 25
4, 60, Control_c, 2, 7, 45
4, 90, Control_c, 2, 7, 60
4, 120, Control_c, 2, 7, 72
4, 150, Control_c, 2, 7, 81
4, 180, Control_c, 2, 7, 87
4, 210, Control_c, 2, 7, 92
4, 240, Control_c, 2, 7, 95
4, 270, Control_c, 2, 7, 97
4, 300, Control_c, 2, 7, 98
4, 330, Control_c, 2, 7, 99
4, 360, Control_c, 2, 7, 99
4, 390, Control_c, 2, 7, 99
4, 420, Control_c, 2, 7, 99
4, 450, Control_c, 2, 7, 99
4, 480, Control_c, 2, 7, 100
4, 510, Control_c, 2, 7, 100
4, 540, Control_c, 2, 7, 100
4, 570, Control_c, 2, 7, 100
4, 600, Control_c, 2, 7, 100
4, 630, Control_c, 2, 7, 100
4, 660, Control_c, 2, 7, 100
4, 690, Control_c, 2, 7, 100
4, 720, Control_c, 2, 7, 100
4, 750, Control_c, 2, 7, 100
4, 780, Control_c, 2, 7, 100
4, 810, Control_c, 2, 7, 100
4, 840, Control_c, 2, 7, 100
4, 870, Control_c, 2, 7, 100
4, 900, Control_c, 2, 7, 100
4, 930, Control_c, 2, 7, 100
4, 960, Control_c, 2, 7, 100
4, 990, Control_c, 2, 7, 100
4, 1020, Control_c, 2, 7, 100
4, 1050, Control_c, 2, 7, 100
4, 1080, Control_c, 2, 7, 100
4, 1110, Control_c, 2, 7, 100
4, 1140, Control_c, 2, 7, 100
4, 1170, Control_c, 2, 7, 100
4, 1200, Control_c, 2, 7, 100
4, 1230, Control_c, 2, 7, 100
4, 1260, Control_c, 2, 7, 100
4, 1290, Control_c, 2, 7, 100
4, 1320, Control_c, 2, 7, 100
4, 1350, Control_c, 2, 7, 100
4, 1380, Control_c, 2, 7, 100
4, 1410, Control_c, 2, 7, 100
4, 1440, Note_on_c, 2, 60, 0
4, 1440, Note_on_c, 2, 69, 0
4, 1440, Note_on_c, 2, 78, 0
4, 1440, Note_on_c, 2, 58, 110
4, 1440, Note_on_c, 2, 67, 105
4, 1440, Note_on_c, 2, 76, 105
4, 1440, Control_c, 2, 7, 100
4, 1470, Control_c, 2, 7, 100
4, 1500, Control_c, 2, 7, 100
4, 1530, Control_c, 2, 7, 100
4, 1560, Control_c, 2, 7, 100
4, 1590, Control_c, 2, 7, 100
4, 1620, Control_c, 2, 7, 100
4, 1650, Control_c, 2, 7, 100
4, 1680, Control_c, 2, 7, 100
4, 1710, Control_c, 2, 7, 100
4, 1740, Control_c, 2, 7, 100
4, 1770, Control_c, 2, 7, 100
4, 1800, Control_c, 2, 7, 100
4, 1830, Control_c, 2, 7, 100
4, 1860, Control_c, 2, 7, 100
4, 1890, Control_c, 2, 7, 100
4, 1920, Note_on_c, 2, 58, 0
4, 1920, Note_on_c, 2, 67, 0
4, 1920, Note_on_c, 2, 76, 0
4, 1920, Note_on_c, 2, 56, 110
4, 1920, Note_on_c, 2, 65, 105
4, 1920, Note_on_c, 2, 74, 105
4, 1920, Control_c, 2, 7, 100
4, 1950, Control_c, 2, 7, 100
4, 1980, Control_c, 2, 7, 100
4, 2010, Control_c, 2, 7, 100
4, 2040, Control_c, 2, 7, 100
4, 2070, Control_c, 2, 7, 100
4, 2100, Control_c, 2, 7, 100
4, 2130, Control_c, 2, 7, 100
4, 2160, Control_c, 2, 7, 100
4, 2190, Control_c, 2, 7, 100
4, 2220, Control_c, 2, 7, 100
4, 2250, Control_c, 2, 7, 100
4, 2280, Control_c, 2, 7, 100
4, 2310, Control_c, 2, 7, 100
4, 2340, Control_c, 2, 7, 100
4, 2370, Control_c, 2, 7, 100
4, 2400, Control_c, 2, 7, 100
4, 2430, Control_c, 2, 7, 100
4, 2460, Control_c, 2, 7, 100
4, 2490, Control_c, 2, 7, 100
4, 2520, Control_c, 2, 7, 100
4, 2550, Control_c, 2, 7, 100
4, 2580, Control_c, 2, 7, 100
4, 2610, Control_c, 2, 7, 100
4, 2640, Control_c, 2, 7, 100
4, 2670, Control_c, 2, 7, 100
4, 2700, Control_c, 2, 7, 100
4, 2730, Control_c, 2, 7, 100
4, 2760, Control_c, 2, 7, 100
4, 2790, Control_c, 2, 7, 100
4, 2820, Control_c, 2, 7, 100
4, 2850, Control_c, 2, 7, 100
4, 2880, Note_on_c, 2, 56, 0
4, 2880, Note_on_c, 2, 65, 0
4, 2880, Note_on_c, 2, 74, 0
4, 2880, Note_on_c, 2, 54, 110
4, 2880, Note_on_c, 2, 63, 105
4, 2880, Note_on_c, 2, 72, 105
4, 2880, Control_c, 2, 7, 100
4, 2910, Control_c, 2, 7, 100
4, 2940, Control_c, 2, 7, 100
4, 2970, Control_c, 2, 7, 100
4, 3000, Control_c, 2, 7, 100
4, 3030, Control_c, 2, 7, 100
4, 3060, Control_c, 2, 7, 100
4, 3090, Control_c, 2, 7, 100
4, 3120, Control_c, 2, 7, 100
4, 3150, Control_c, 2, 7, 100
4, 3180, Control_c, 2, 7, 100
4, 3210, Control_c, 2, 7, 100
4, 3240, Control_c, 2, 7, 100
4, 3270, Control_c, 2, 7, 100
4, 3300, Control_c, 2, 7, 100
4, 3330, Control_c, 2, 7, 100
4, 3360, Control_c, 2, 7, 100
4, 3390, Control_c, 2, 7, 100
4, 3420, Control_c, 2, 7, 100
4, 3450, Control_c, 2, 7, 100
4, 3480, Control_c, 2, 7, 100
4, 3510, Control_c, 2, 7, 100
4, 3540, Control_c, 2, 7, 100
4, 3570, Control_c, 2, 7, 100
4, 3600, Control_c, 2, 7, 100
4, 3630, Control_c, 2, 7, 100
4, 3660, Control_c, 2, 7, 100
4, 3690, Control_c, 2, 7, 100
4, 3720, Control_c, 2, 7, 100
4, 3750, Control_c, 2, 7, 100
4, 3780, Control_c, 2, 7, 100
4, 3810, Control_c, 2, 7, 100
4, 3840, Control_c, 2, 7, 100
4, 3870, Control_c, 2, 7, 100
4, 3900, Control_c, 2, 7, 100
4, 3930, Control_c, 2, 7, 100
4, 3960, Control_c, 2, 7, 100
4, 3990, Control_c, 2, 7, 100
4, 4020, Control_c, 2, 7, 100
4, 4050, Control_c, 2, 7, 100
4, 4080, Control_c, 2, 7, 100
4, 4110, Control_c, 2, 7, 100
4, 4140, Control_c, 2, 7, 100
4, 4170, Control_c, 2, 7, 100
4, 4200, Control_c, 2, 7, 100
4, 4230, Control_c, 2, 7, 100
4, 4260, Control_c, 2, 7, 100
4, 4290, Control_c, 2, 7, 100
4, 4320, Control_c, 2, 7, 100
4, 4350, Control_c, 2, 7, 100
4, 4380, Control_c, 2, 7, 100
4, 4410, Control_c, 2, 7, 100
4, 4440, Control_c, 2, 7, 100
4, 4470, Control_c, 2, 7, 100
4, 4500, Control_c, 2, 7, 100
4, 4530, Control_c, 2, 7, 100
4, 4560, Control_c, 2, 7, 100
4, 4590, Control_c, 2, 7, 100
4, 4620, Control_c, 2, 7, 100
4, 4650, Control_c, 2, 7, 100
4, 4680, Control_c, 2, 7, 100
4, 4710, Control_c, 2, 7, 100
4, 4740, Control_c, 2, 7, 100
4, 4770, Control_c, 2, 7, 100
4, 4800, Control_c, 2, 7, 100
4, 4830, Control_c, 2, 7, 100
4, 4860, Control_c, 2, 7, 100
4, 4890, Control_c, 2, 7, 100
4, 4920, Control_c, 2, 7, 100
4, 4950, Control_c, 2, 7, 100
4, 4980, Control_c, 2, 7, 100
4, 5010, Control_c, 2, 7, 100
4, 5040, Control_c, 2, 7, 100
4, 5070, Control_c, 2, 7, 100
4, 5100, Control_c, 2, 7, 100
4, 5130, Control_c, 2, 7, 100
4, 5160, Control_c, 2, 7, 100
4, 5190, Control_c, 2, 7, 100
4, 5220, Control_c, 2, 7, 100
4, 5250, Control_c, 2, 7, 100
4, 5280, Control_c, 2, 7, 100
4, 5310, Control_c, 2, 7, 100
4, 5340, Control_c, 2, 7, 100
4, 5370, Control_c, 2, 7, 100
4, 5400, Control_c, 2, 7, 100
4, 5430, Control_c, 2, 7, 100
4, 5460, Control_c, 2, 7, 100
4, 5490, Control_c, 2, 7, 100
4, 5520, Control_c, 2, 7, 100
4, 5550, Control_c, 2, 7, 100
4, 5580, Control_c, 2, 7, 100
4, 5610, Control_c, 2, 7, 100
4, 5640, Control_c, 2, 7, 100
4, 5670, Control_c, 2, 7, 100
4, 5700, Control_c, 2, 7, 100
4, 5730, Control_c, 2, 7, 100
4, 5760, Control_c, 2, 7, 100
4, 5790, Control_c, 2, 7, 100
4, 5820, Control_c, 2, 7, 100
4, 5850, Control_c, 2, 7, 100
4, 5880, Control_c, 2, 7, 100
4, 5910, Control_c, 2, 7, 100
4, 5940, Control_c, 2, 7, 100
4, 5970, Control_c, 2, 7, 100
4, 6000, Control_c, 2, 7, 100
4, 6030, Control_c, 2, 7, 100
4, 6060, Control_c, 2, 7, 100
4, 6090, Control_c, 2, 7, 100
4, 6120, Control_c, 2, 7, 100
4, 6150, Control_c, 2, 7, 100
4, 6180, Control_c, 2, 7, 100
4, 6210, Control_c, 2, 7, 100
4, 6240, Control_c, 2, 7, 100
4, 6270, Control_c, 2, 7, 100
4, 6300, Control_c, 2, 7, 100
4, 6330, Control_c, 2, 7, 100
4, 6360, Control_c, 2, 7, 100
4, 6390, Control_c, 2, 7, 100
4, 6420, Control_c, 2, 7, 100
4, 6450, Control_c, 2, 7, 100
4, 6480, Control_c, 2, 7, 100
4, 6510, Control_c, 2, 7, 100
4, 6540, Control_c, 2, 7, 100
4, 6570, Control_c, 2, 7, 100
4, 6600, Control_c, 2, 7, 100
4, 6630, Control_c, 2, 7, 100
4, 6660, Control_c, 2, 7, 100
4, 6690, Control_c, 2, 7, 100
4, 6720, Control_c, 2, 7, 100
4, 6750, Control_c, 2, 7, 100
4, 6780, Control_c, 2, 7, 100
4, 6810, Control_c, 2, 7, 100
4, 6840, Control_c, 2, 7, 100
4, 6870, Control_c, 2, 7, 100
4, 6900, Control_c, 2, 7, 100
4, 6930, Control_c, 2, 7, 100
4, 6960, Control_c, 2, 7, 100
4, 6990, Control_c, 2, 7, 100
4, 7020, Control_c, 2, 7, 100
4, 7050, Control_c, 2, 7, 100
4, 7080, Control_c, 2, 7, 100
4, 7110, Control_c, 2, 7, 100
4, 7140, Control_c, 2, 7, 100
4, 7170, Control_c, 2, 7, 100
4, 7200, Control_c, 2, 7, 100
4, 7230, Control_c, 2, 7, 100
4, 7260, Control_c, 2, 7, 100
4, 7290, Control_c, 2, 7, 100
4, 7320, Control_c, 2, 7, 100
4, 7350, Control_c, 2, 7, 100
4, 7380, Control_c, 2, 7, 100
4, 7410, Control_c, 2, 7, 100
4, 7440, Control_c, 2, 7, 100
4, 7470, Control_c, 2, 7, 100
4, 7500, Control_c, 2, 7, 100
4, 7530, Control_c, 2, 7, 100
4, 7560, Control_c, 2, 7, 100
4, 7590, Control_c, 2, 7, 100
4, 7620, Control_c, 2, 7, 100
4, 7650, Control_c, 2, 7, 100
4, 7680, Note_on_c, 2, 54, 0
4, 7680, Note_on_c, 2, 53, 110
4, 7680, Control_c, 2, 7, 100
4, 7710, Control_c, 2, 7, 100
4, 9600, Note_on_c, 2, 53, 0
4, 9600, Note_on_c, 2, 72, 0
4, 9600, Note_on_c, 2, 46, 110
4, 9600, Note_on_c, 2, 70, 105
4, 11520, Note_on_c, 2, 46, 0
4, 11520, Note_on_c, 2, 63, 0
4, 11520, Note_on_c, 2, 70, 0
4, 11520, Control_c, 2, 7, 100
4, 11520, Note_on_c, 2, 48, 110
4, 11520, Note_on_c, 2, 72, 105
4, 11520, Note_on_c, 2, 64, 105
4, 11550, Control_c, 2, 7, 99
4, 11580, Control_c, 2, 7, 99
4, 11610, Control_c, 2, 7, 99
4, 11640, Control_c, 2, 7, 99
4, 11670, Control_c, 2, 7, 99
4, 11700, Control_c, 2, 7, 99
4, 11730, Control_c, 2, 7, 99
4, 11760, Control_c, 2, 7, 99
4, 11790, Control_c, 2, 7, 99
4, 11820, Control_c, 2, 7, 99
4, 11850, Control_c, 2, 7, 99
4, 11880, Control_c, 2, 7, 99
4, 11910, Control_c, 2, 7, 99
4, 11940, Control_c, 2, 7, 99
4, 11970, Control_c, 2, 7, 99
4, 12000, Control_c, 2, 7, 99
4, 12030, Control_c, 2, 7, 99
4, 12060, Control_c, 2, 7, 99
4, 12090, Control_c, 2, 7, 99
4, 12120, Control_c, 2, 7, 99
4, 12150, Control_c, 2, 7, 99
4, 12180, Control_c, 2, 7, 99
4, 12210, Control_c, 2, 7, 99
4, 12240, Control_c, 2, 7, 99
4, 12270, Control_c, 2, 7, 99
4, 12300, Control_c, 2, 7, 99
4, 12330, Control_c, 2, 7, 99
4, 12360, Control_c, 2, 7, 99
4, 12390, Control_c, 2, 7, 99
4, 12420, Control_c, 2, 7, 99
4, 12450, Control_c, 2, 7, 99
4, 12480, Control_c, 2, 7, 99
4, 12510, Control_c, 2, 7, 99
4, 12540, Control_c, 2, 7, 99
4, 12570, Control_c, 2, 7, 99
4, 12600, Control_c, 2, 7, 99
4, 12630, Control_c, 2, 7, 99
4, 12660, Control_c, 2, 7, 99
4, 12690, Control_c, 2, 7, 99
4, 12720, Control_c, 2, 7, 99
4, 12750, Control_c, 2, 7, 99
4, 12780, Control_c, 2, 7, 99
4, 12810, Control_c, 2, 7, 99
4, 12840, Control_c, 2, 7, 99
4, 12870, Control_c, 2, 7, 99
4, 12900, Control_c, 2, 7, 99
4, 12930, Control_c, 2, 7, 98
4, 12960, Control_c, 2, 7, 98
4, 12990, Control_c, 2, 7, 98
4, 13020, Control_c, 2, 7, 98
4, 13050, Control_c, 2, 7, 98
4, 13080, Control_c, 2, 7, 98
4, 13110, Control_c, 2, 7, 98
4, 13140, Control_c, 2, 7, 97
4, 13170, Control_c, 2, 7, 97
4, 13200, Control_c, 2, 7, 97
4, 13230, Control_c, 2, 7, 97
4, 13260, Control_c, 2, 7, 97
4, 13290, Control_c, 2, 7, 96
4, 13320, Control_c, 2, 7, 96
4, 13350, Control_c, 2, 7, 96
4, 13380, Control_c, 2, 7, 96
4, 13410, Control_c, 2, 7, 95
4, 13440, Control_c, 2, 7, 95
4, 13470, Control_c, 2, 7, 95
4, 13500, Control_c, 2, 7, 94
4, 13530, Control_c, 2, 7, 94
4, 13560, Control_c, 2, 7, 94
4, 13590, Control_c, 2, 7, 93
4, 13620, Control_c, 2, 7, 93
4, 13650, Control_c, 2, 7, 92
4, 13680, Control_c, 2, 7, 92
4, 13710, Control_c, 2, 7, 92
4, 13740, Control_c, 2, 7, 91
4, 13770, Control_c, 2, 7, 90
4, 13800, Control_c, 2, 7, 90
4, 13830, Control_c, 2, 7, 89
4, 13860, Control_c, 2, 7, 89
4, 13890, Control_c, 2, 7, 88
4, 13920, Control_c, 2, 7, 87
4, 13950, Control_c, 2, 7, 87
4, 13980, Control_c, 2, 7, 86
4, 14010, Control_c, 2, 7, 85
4, 14040, Control_c, 2, 7, 85
4, 14070, Control_c, 2, 7, 84
4, 14100, Control_c, 2, 7, 83
4, 14130, Control_c, 2, 7, 82
4, 14160, Control_c, 2, 7, 81
4, 14190, Control_c, 2, 7, 80
4, 14220, Control_c, 2, 7, 79
4, 14250, Control_c, 2, 7, 78
4, 14280, Control_c, 2, 7, 77
4, 14310, Control_c, 2, 7, 76
4, 14340, Control_c, 2, 7, 75
4, 14370, Control_c, 2, 7, 73
4, 14400, Control_c, 2, 7, 72
4, 14430, Control_c, 2, 7, 71
4, 14460, Control_c, 2, 7, 69
4, 14490, Control_c, 2, 7, 68
4, 14520, Control_c, 2, 7, 67
4, 14550, Control_c, 2, 7, 65
4, 14580, Control_c, 2, 7, 64
4, 14610, Control_c, 2, 7, 62
4, 14640, Control_c, 2, 7, 60
4, 14670, Control_c, 2, 7, 59
4, 14700, Control_c, 2, 7, 57
4, 14730, Control_c, 2, 7, 55
4, 14760, Control_c, 2, 7, 53
4, 14790, Control_c, 2, 7, 51
4, 14820, Control_c, 2, 7, 49
4, 14850, Control_c, 2, 7, 47
4, 14880, Control_c, 2, 7, 45
4, 14910, Control_c, 2, 7, 42
4, 14940, Control_c, 2, 7, 40
4, 14970, Control_c, 2, 7, 38
4, 15000, Control_c, 2, 7, 35
4, 15030, Control_c, 2, 7, 33
4, 15060, Control_c, 2, 7, 30
4, 15090, Control_c, 2, 7, 27
4, 15120, Control_c, 2, 7, 25
4, 15150, Control_c, 2, 7, 22
4, 15180, Control_c, 2, 7, 19
4, 15210, Control_c, 2, 7, 16
4, 15240, Control_c, 2, 7, 13
4, 15264, Note_on_c, 2, 48, 0
4, 15264, Note_on_c, 2, 72, 0
4, 15264, Note_on_c, 2, 64, 0
4, 15270, Control_c, 2, 7, 10
4, 15300, Control_c, 2, 7, 6
4, 15330, Control_c, 2, 7, 3
4, 15360, Control_c, 2, 7, 100
4, 15390, Control_c, 2, 7, 100
4, 15420, Control_c, 2, 7, 100
4, 15450, Control_c, 2, 7, 100
4, 15480, Control_c, 2, 7, 100
4, 15510, Control_c, 2, 7, 100
4, 15540, Control_c, 2, 7, 100
4, 15570, Control_c, 2, 7, 100
4, 15600, Control_c, 2, 7, 100
4, 15630, Control_c, 2, 7, 100
4, 15660, Control_c, 2, 7, 100
4, 15690, Control_c, 2, 7, 100
4, 15720, Control_c, 2, 7, 100
4, 15750, Control_c, 2, 7, 100
4, 15780, Control_c, 2, 7, 100
4, 15810, Control_c, 2, 7, 100
4, 15840, Control_c, 2, 7, 100
4, 15870, Control_c, 2, 7, 100
4, 15900, Control_c, 2, 7, 100
4, 15930, Control_c, 2, 7, 100
4, 15960, Control_c, 2, 7, 100
4, 15990, Control_c, 2, 7, 100
4, 16020, Control_c, 2, 7, 100
4, 16050, Control_c, 2, 7, 100
4, 16080, Control_c, 2, 7, 100
4, 16110, Control_c, 2, 7, 100
4, 16140, Control_c, 2, 7, 100
4, 16170, Control_c, 2, 7, 100
4, 16200, Control_c, 2, 7, 100
4, 16230, Control_c, 2, 7, 100
4, 16260, Control_c, 2, 7, 100
4, 16290, Control_c, 2, 7, 100
4, 16320, Control_c, 2, 7, 100
4, 16350, Control_c, 2, 7, 100
4, 16380, Control_c, 2, 7, 100
4, 16410, Control_c, 2, 7, 100
4, 16440, Control_c, 2, 7, 100
4, 16470, Control_c, 2, 7, 100
4, 16500, Control_c, 2, 7, 100
4, 16530, Control_c, 2, 7, 100
4, 16560, Control_c, 2, 7, 100
4, 16590, Control_c, 2, 7, 100
4, 16620, Control_c, 2, 7, 100
4, 16650, Control_c, 2, 7, 100
4, 16680, Control_c, 2, 7, 100
4, 16710, Control_c, 2, 7, 100
4, 16740, Control_c, 2, 7, 100
4, 16770, Control_c, 2, 7, 100
4, 16800, Control_c, 2, 7, 100
4, 16830, Control_c, 2, 7, 100
4, 16860, Control_c, 2, 7, 100
4, 16890, Control_c, 2, 7, 100
4, 16920, Control_c, 2, 7, 100
4, 16950, Control_c, 2, 7, 100
4, 16980, Control_c, 2, 7, 100
4, 17010, Control_c, 2, 7, 100
4, 17040, Control_c, 2, 7, 100
4, 17070, Control_c, 2, 7, 100
4, 17100, Control_c, 2, 7, 100
4, 17130, Control_c, 2, 7, 100
4, 17160, Control_c, 2, 7, 100
4, 17190, Control_c, 2, 7, 100
4, 17220, Control_c, 2, 7, 100
4, 17250, Control_c, 2, 7, 100
4, 17280, Control_c, 2, 7, 100
4, 17310, Control_c, 2, 7, 100
4, 44160, Note_on_c, 2, 68, 100
4, 44160, Note_on_c, 2, 74, 100
4, 45120, Note_on_c, 2, 68, 0
4, 45120, Note_on_c, 2, 67, 100
4, 45600, Note_on_c, 2, 67, 0
4, 45600, Note_on_c, 2, 65, 100
4, 46080, Note_on_c, 2, 74, 0
4, 46080, Note_on_c, 2, 65, 0
4, 46080, Note_on_c, 2, 72, 100
4, 46080, Note_on_c, 2, 67, 100
4, 46080, Note_on_c, 2, 64, 100
4, 47520, Note_on_c, 2, 62, 90
4, 48000, Note_on_c, 2, 62, 0
4, 48000, Note_on_c, 2, 60, 90
4, 48480, Note_on_c, 2, 72, 0
4, 48480, Note_on_c, 2, 74, 90
4, 48960, Note_on_c, 2, 74, 0
4, 48960, Note_on_c, 2, 76, 90
4, 49440, Note_on_c, 2, 60, 0
4, 49440, Note_on_c, 2, 76, 0
4, 49440, Note_on_c, 2, 59, 80
4, 49440, Note_on_c, 2, 77, 90
4, 49920, Note_on_c, 2, 67, 0
4, 49920, Note_on_c, 2, 64, 0
4, 49920, Note_on_c, 2, 59, 0
4, 49920, Note_on_c, 2, 77, 0
4, 49920, Note_on_c, 2, 64, 100
4, 49920, Note_on_c, 2, 76, 100
4, 49920, Note_on_c, 2, 60, 70
4, 49920, Note_on_c, 2, 67, 100
4, 51360, Note_on_c, 2, 76, 0
4, 51360, Note_on_c, 2, 74, 90
4, 51840, Note_on_c, 2, 60, 0
4, 51840, Note_on_c, 2, 74, 0
4, 51840, Note_on_c, 2, 72, 100
4, 52800, Note_on_c, 2, 72, 0
4, 52800, Note_on_c, 2, 83, 90
4, 52800, Note_on_c, 2, 74, 100
4, 53760, Note_on_c, 2, 64, 0
4, 53760, Note_on_c, 2, 67, 0
4, 53760, Note_on_c, 2, 83, 0
4, 53760, Note_on_c, 2, 74, 0
4, 53760, Note_on_c, 2, 69, 90
4, 53760, Note_on_c, 2, 84, 90
4, 53760, Note_on_c, 2, 76, 100
4, 53760, Note_on_c, 2, 72, 80
4, 56160, Note_on_c, 2, 84, 0
4, 56160, Note_on_c, 2, 83, 85
4, 56160, Note_on_c, 2, 86, 90
4, 56400, Note_on_c, 2, 76, 0
4, 56400, Note_on_c, 2, 83, 0
4, 56400, Note_on_c, 2, 86, 0
4, 56400, Note_on_c, 2, 81, 80
4, 56400, Note_on_c, 2, 84, 90
4, 56592, Note_on_c, 2, 81, 0
4, 56592, Note_on_c, 2, 84, 0
4, 56640, Note_on_c, 2, 81, 80
4, 56640, Note_on_c, 2, 84, 90
4, 56880, Note_on_c, 2, 81, 0
4, 56880, Note_on_c, 2, 84, 0
4, 56880, Note_on_c, 2, 79, 80
4, 56880, Note_on_c, 2, 83, 90
4, 57072, Note_on_c, 2, 79, 0
4, 57072, Note_on_c, 2, 83, 0
4, 57120, Note_on_c, 2, 83, 80
4, 57120, Note_on_c, 2, 86, 90
4, 57360, Note_on_c, 2, 83, 0
4, 57360, Note_on_c, 2, 86, 0
4, 57360, Note_on_c, 2, 77, 100
4, 57360, Note_on_c, 2, 79, 70
4, 57504, Note_on_c, 2, 72, 0
4, 57504, Note_on_c, 2, 69, 0
4, 57600, Note_on_c, 2, 81, 80
4, 58560, Note_on_c, 2, 79, 0
4, 58560, Note_on_c, 2, 81, 0
4, 58560, Note_on_c, 2, 79, 100
4, 59040, Note_on_c, 2, 77, 0
4, 59040, Note_on_c, 2, 76, 100
4, 59520, Note_on_c, 2, 76, 0
4, 59520, Note_on_c, 2, 74, 100
4, 61440, Note_on_c, 2, 79, 0
4, 61440, Note_on_c, 2, 74, 0
4, 61440, Note_on_c, 2, 67, 100
4, 61440, Note_on_c, 2, 76, 90
4, 61920, Note_on_c, 2, 71, 100
4, 62400, Note_on_c, 2, 71, 0
4, 62400, Note_on_c, 2, 74, 100
4, 62880, Note_on_c, 2, 74, 0
4, 62880, Note_on_c, 2, 71, 100
4, 63360, Note_on_c, 2, 76, 0
4, 63360, Note_on_c, 2, 71, 0
4, 63360, Note_on_c, 2, 76, 100
4, 63360, Note_on_c, 2, 71, 80
4, 63840, Note_on_c, 2, 83, 90
4, 64320, Note_on_c, 2, 76, 0
4, 64320, Note_on_c, 2, 74, 100
4, 64560, Note_on_c, 2, 83, 0
4, 64560, Note_on_c, 2, 81, 90
4, 64800, Note_on_c, 2, 71, 0
4, 64800, Note_on_c, 2, 74, 0
4, 64800, Note_on_c, 2, 81, 0
4, 64800, Note_on_c, 2, 79, 90
4, 64800, Note_on_c, 2, 71, 100
4, 65040, Note_on_c, 2, 79, 0
4, 65040, Note_on_c, 2, 77, 90
4, 65280, Note_on_c, 2, 67, 0
4, 65280, Note_on_c, 2, 71, 0
4, 65280, Note_on_c, 2, 77, 0
4, 65280, Note_on_c, 2, 74, 100
4, 65280, Note_on_c, 2, 69, 100
4, 66240, Note_on_c, 2, 84, 90
4, 66720, Note_on_c, 2, 76, 100
4, 67200, Note_on_c, 2, 76, 0
4, 67200, Note_on_c, 2, 79, 90
4, 67680, Note_on_c, 2, 79, 0
4, 67680, Note_on_c, 2, 77, 90
4, 68376, Note_on_c, 2, 84, 0
4, 68400, Note_on_c, 2, 81, 90
4, 68640, Note_on_c, 2, 81, 0
4, 68640, Note_on_c, 2, 83, 90
4, 68880, Note_on_c, 2, 83, 0
4, 68880, Note_on_c, 2, 84, 90
4, 69120, Note_on_c, 2, 74, 0
4, 69120, Note_on_c, 2, 69, 0
4, 69120, Note_on_c, 2, 77, 0
4, 69120, Note_on_c, 2, 84, 0
4, 69120, Note_on_c, 2, 72, 100
4, 69120, Note_on_c, 2, 68, 100
4, 69600, Note_on_c, 2, 74, 90
4, 70080, Note_on_c, 2, 80, 90
4, 70560, Note_on_c, 2, 74, 0
4, 70560, Note_on_c, 2, 80, 0
4, 70560, Note_on_c, 2, 76, 90
4, 70560, Note_on_c, 2, 82, 90
4, 71040, Note_on_c, 2, 72, 0
4, 71040, Note_on_c, 2, 76, 0
4, 71040, Note_on_c, 2, 82, 0
4, 71040, Note_on_c, 2, 77, 100
4, 71040, Note_on_c, 2, 84, 90
4, 71040, Note_on_c, 2, 72, 80
4, 72960, Note_on_c, 2, 77, 0
4, 72960, Note_on_c, 2, 84, 0
4, 72960, Note_on_c, 2, 72, 0
4, 72960, Note_on_c, 2, 68, 0
4, 72960, Note_on_c, 2, 71, 100
4, 72960, Note_on_c, 2, 67, 100
4, 73440, Note_on_c, 2, 74, 100
4, 73920, Note_on_c, 2, 79, 90
4, 74400, Note_on_c, 2, 79, 0
4, 74400, Note_on_c, 2, 81, 90
4, 74880, Note_on_c, 2, 67, 0
4, 74880, Note_on_c, 2, 74, 0
4, 74880, Note_on_c, 2, 81, 0
4, 74880, Note_on_c, 2, 79, 90
4, 74880, Note_on_c, 2, 67, 80
4, 74880, Note_on_c, 2, 83, 90
4, 76800, Note_on_c, 2, 79, 0
4, 76800, Note_on_c, 2, 71, 0
4, 76800, Note_on_c, 2, 67, 0
4, 76800, Note_on_c, 2, 83, 0
4, 77040, Note_on_c, 2, 57, 80
4, 77280, Note_on_c, 2, 57, 0
4, 77280, Note_on_c, 2, 60, 80
4, 77520, Note_on_c, 2, 60, 0
4, 77520, Note_on_c, 2, 59, 80
4, 77760, Note_on_c, 2, 59, 0
4, 77760, Note_on_c, 2, 72, 100
4, 77760, Note_on_c, 2, 64, 100
4, 78000, Note_on_c, 2, 72, 0
4, 78000, Note_on_c, 2, 64, 0
4, 78000, Note_on_c, 2, 71, 100
4, 78000, Note_on_c, 2, 62, 100
4, 78240, Note_on_c, 2, 71, 0
4, 78240, Note_on_c, 2, 62, 0
4, 78240, Note_on_c, 2, 72, 100
4, 78240, Note_on_c, 2, 64, 100
4, 78480, Note_on_c, 2, 72, 0
4, 78480, Note_on_c, 2, 64, 0
4, 78480, Note_on_c, 2, 69, 100
4, 78480, Note_on_c, 2, 60, 100
4, 78720, Note_on_c, 2, 69, 0
4, 78720, Note_on_c, 2, 60, 0
4, 78960, Note_on_c, 2, 57, 80
4, 79200, Note_on_c, 2, 57, 0
4, 79200, Note_on_c, 2, 60, 80
4, 79440, Note_on_c, 2, 60, 0
4, 79440, Note_on_c, 2, 59, 80
4, 79680, Note_on_c, 2, 59, 0
4, 79680, Note_on_c, 2, 72, 100
4, 79680, Note_on_c, 2, 64, 100
4, 79920, Note_on_c, 2, 72, 0
4, 79920, Note_on_c, 2, 64, 0
4, 79920, Note_on_c, 2, 71, 100
4, 79920, Note_on_c, 2, 62, 100
4, 80160, Note_on_c, 2, 71, 0
4, 80160, Note_on_c, 2, 62, 0
4, 80160, Note_on_c, 2, 72, 100
4, 80160, Note_on_c, 2, 64, 100
4, 80400, Note_on_c, 2, 72, 0
4, 80400, Note_on_c, 2, 64, 0
4, 80400, Note_on_c, 2, 69, 100
4, 80400, Note_on_c, 2, 60, 100
4, 80640, Note_on_c, 2, 69, 0
4, 80640, Note_on_c, 2, 60, 0
4, 80880, Note_on_c, 2, 57, 80
4, 81120, Note_on_c, 2, 57, 0
4, 81120, Note_on_c, 2, 60, 80
4, 81360, Note_on_c, 2, 60, 0
4, 81360, Note_on_c, 2, 59, 80
4, 81600, Note_on_c, 2, 59, 0
4, 81600, Note_on_c, 2, 72, 100
4, 81600, Note_on_c, 2, 64, 100
4, 81840, Note_on_c, 2, 72, 0
4, 81840, Note_on_c, 2, 64, 0
4, 81840, Note_on_c, 2, 71, 100
4, 81840, Note_on_c, 2, 62, 100
4, 82080, Note_on_c, 2, 71, 0
4, 82080, Note_on_c, 2, 62, 0
4, 82080, Note_on_c, 2, 72, 100
4, 82080, Note_on_c, 2, 64, 100
4, 82320, Note_on_c, 2, 72, 0
4, 82320, Note_on_c, 2, 64, 0
4, 82320, Note_on_c, 2, 69, 100
4, 82320, Note_on_c, 2, 60, 100
4, 82560, Note_on_c, 2, 69, 0
4, 82560, Note_on_c, 2, 60, 0
4, 82800, Note_on_c, 2, 57, 80
4, 83040, Note_on_c, 2, 57, 0
4, 83040, Note_on_c, 2, 81, 100
4, 83040, Note_on_c, 2, 69, 100
4, 83040, Note_on_c, 2, 60, 70
4, 83280, Note_on_c, 2, 60, 0
4, 83280, Note_on_c, 2, 59, 60
4, 83520, Note_on_c, 2, 81, 0
4, 83520, Note_on_c, 2, 69, 0
4, 83520, Note_on_c, 2, 59, 0
4, 83520, Note_on_c, 2, 83, 100
4, 83520, Note_on_c, 2, 71, 100
4, 84000, Note_on_c, 2, 83, 0
4, 84000, Note_on_c, 2, 71, 0
4, 84000, Note_on_c, 2, 84, 100
4, 84000, Note_on_c, 2, 72, 100
4, 84480, Note_on_c, 2, 84, 0
4, 84480, Note_on_c, 2, 72, 0
4, 84480, Note_on_c, 2, 74, 100
4, 84480, Note_on_c, 2, 86, 100
4, 84720, Note_on_c, 2, 74, 0
4, 84720, Note_on_c, 2, 86, 0
4, 84720, Note_on_c, 2, 76, 100
4, 84720, Note_on_c, 2, 88, 100
4, 84960, Note_on_c, 2, 76, 0
4, 84960, Note_on_c, 2, 88, 0
4, 84960, Note_on_c, 2, 67, 100
4, 84960, Note_on_c, 2, 79, 100
4, 85680, Note_on_c, 2, 67, 0
4, 85680, Note_on_c, 2, 79, 0
4, 85680, Note_on_c, 2, 69, 100
4, 85680, Note_on_c, 2, 81, 100
4, 85920, Note_on_c, 2, 69, 0
4, 85920, Note_on_c, 2, 81, 0
4, 85920, Note_on_c, 2, 79, 100
4, 85920, Note_on_c, 2, 91, 100
4, 86160, Note_on_c, 2, 79, 0
4, 86160, Note_on_c, 2, 91, 0
4, 86160, Note_on_c, 2, 77, 100
4, 86160, Note_on_c, 2, 89, 100
4, 86400, Note_on_c, 2, 77, 0
4, 86400, Note_on_c, 2, 89, 0
4, 86400, Note_on_c, 2, 88, 100
4, 86400, Note_on_c, 2, 76, 100
4, 86880, Note_on_c, 2, 88, 0
4, 86880, Note_on_c, 2, 76, 0
4, 86880, Note_on_c, 2, 74, 100
4, 86880, Note_on_c, 2, 86, 100
4, 87600, Note_on_c, 2, 74, 0
4, 87600, Note_on_c, 2, 86, 0
4, 87600, Note_on_c, 2, 71, 100
4, 87600, Note_on_c, 2, 83, 100
4, 87840, Note_on_c, 2, 71, 0
4, 87840, Note_on_c, 2, 83, 0
4, 87840, Note_on_c, 2, 72, 100
4, 87840, Note_on_c, 2, 84, 100
4, 88080, Note_on_c, 2, 72, 0
4, 88080, Note_on_c, 2, 84, 0
4, 88080, Note_on_c, 2, 73, 100
4, 88080, Note_on_c, 2, 85, 100
4, 88320, Note_on_c, 2, 73, 0
4, 88320, Note_on_c, 2, 85, 0
4, 88320, Note_on_c, 2, 86, 100
4, 88320, Note_on_c, 2, 74, 100
4, 88560, Note_on_c, 2, 86, 0
4, 88560, Note_on_c, 2, 74, 0
4, 88560, Note_on_c, 2, 76, 100
4, 88560, Note_on_c, 2, 88, 100
4, 88800, Note_on_c, 2, 76, 0
4, 88800, Note_on_c, 2, 88, 0
4, 88800, Note_on_c, 2, 67, 100
4, 88800, Note_on_c, 2, 79, 100
4, 89520, Note_on_c, 2, 67, 0
4, 89520, Note_on_c, 2, 79, 0
4, 89520, Note_on_c, 2, 69, 100
4, 89520, Note_on_c, 2, 81, 100
4, 89760, Note_on_c, 2, 69, 0
4, 89760, Note_on_c, 2, 81, 0
4, 89760, Note_on_c, 2, 81, 100
4, 89760, Note_on_c, 2, 93, 100
4, 90000, Note_on_c, 2, 81, 0
4, 90000, Note_on_c, 2, 93, 0
4, 90000, Note_on_c, 2, 79, 100
4, 90000, Note_on_c, 2, 91, 100
4, 90240, Note_on_c, 2, 79, 0
4, 90240, Note_on_c, 2, 91, 0
4, 90240, Note_on_c, 2, 77, 100
4, 90240, Note_on_c, 2, 89, 100
4, 90720, Note_on_c, 2, 77, 0
4, 90720, Note_on_c, 2, 89, 0
4, 90720, Note_on_c, 2, 76, 100
4, 90720, Note_on_c, 2, 88, 100
4, 91200, Note_on_c, 2, 76, 0
4, 91200, Note_on_c, 2, 88, 0
4, 91200, Note_on_c, 2, 75, 100
4, 91200, Note_on_c, 2, 87, 100
4, 91680, Note_on_c, 2, 75, 0
4, 91680, Note_on_c, 2, 87, 0
4, 91680, Note_on_c, 2, 76, 100
4, 91680, Note_on_c, 2, 88, 100
4, 92160, Note_on_c, 2, 76, 0
4, 92160, Note_on_c, 2, 88, 0
4, 92160, Note_on_c, 2, 91, 100
4, 92160, Note_on_c, 2, 79, 100
4, 92640, Note_on_c, 2, 91, 0
4, 92640, Note_on_c, 2, 79, 0
4, 92640, Note_on_c, 2, 69, 100
4, 92640, Note_on_c, 2, 81, 100
4, 93360, Note_on_c, 2, 69, 0
4, 93360, Note_on_c, 2, 81, 0
4, 93360, Note_on_c, 2, 71, 100
4, 93360, Note_on_c, 2, 83, 100
4, 93840, Note_on_c, 2, 71, 0
4, 93840, Note_on_c, 2, 83, 0
4, 93840, Note_on_c, 2, 72, 100
4, 93840, Note_on_c, 2, 84, 100
4, 94080, Note_on_c, 2, 72, 0
4, 94080, Note_on_c, 2, 84, 0
4, 94080, Note_on_c, 2, 88, 100
4, 94080, Note_on_c, 2, 76, 100
4, 96000, Note_on_c, 2, 88, 0
4, 96000, Note_on_c, 2, 76, 0
4, 96000, Note_on_c, 2, 89, 100
4, 96000, Note_on_c, 2, 77, 100
4, 96480, Note_on_c, 2, 89, 0
4, 96480, Note_on_c, 2, 77, 0
4, 96480, Note_on_c, 2, 69, 100
4, 96480, Note_on_c, 2, 81, 100
4, 97200, Note_on_c, 2, 69, 0
4, 97200, Note_on_c, 2, 81, 0
4, 97200, Note_on_c, 2, 71, 100
4, 97200, Note_on_c, 2, 83, 100
4, 97680, Note_on_c, 2, 71, 0
4, 97680, Note_on_c, 2, 83, 0
4, 97680, Note_on_c, 2, 72, 100
4, 97680, Note_on_c, 2, 84, 100
4, 97920, Note_on_c, 2, 72, 0
4, 97920, Note_on_c, 2, 84, 0
4, 97920, Note_on_c, 2, 73, 100
4, 97920, Note_on_c, 2, 85, 100
4, 98880, Note_on_c, 2, 73, 0
4, 98880, Note_on_c, 2, 85, 0
4, 98880, Note_on_c, 2, 74, 100
4, 98880, Note_on_c, 2, 86, 100
4, 99840, Note_on_c, 2, 74, 0
4, 99840, Note_on_c, 2, 86, 0
4, 99840, End_track
5, 0, Start_track
5, 0, Title_t, ""
5, 0, MIDI_port, 0
5, 0, Control_c, 3, 0, 0
5, 0, Control_c, 3, 32, 0
5, 0, Program_c, 3, 60
5, 4320, Note_on_c, 3, 56, 110
5, 4320, Note_on_c, 3, 60, 110
5, 4472, Note_on_c, 3, 56, 0
5, 4472, Note_on_c, 3, 60, 0
5, 4480, Note_on_c, 3, 63, 110
5, 4480, Note_on_c, 3, 60, 110
5, 4632, Note_on_c, 3, 63, 0
5, 4632, Note_on_c, 3, 60, 0
5, 4640, Note_on_c, 3, 63, 110
5, 4640, Note_on_c, 3, 68, 110
5, 4792, Note_on_c, 3, 63, 0
5, 4792, Note_on_c, 3, 68, 0
5, 4800, Note_on_c, 3, 63, 110
5, 4800, Note_on_c, 3, 72, 110
5, 5874, Note_on_c, 3, 63, 0
5, 5874, Note_on_c, 3, 72, 0
5, 6000, Note_on_c, 3, 63, 110
5, 6000, Note_on_c, 3, 68, 110
5, 6114, Note_on_c, 3, 63, 0
5, 6114, Note_on_c, 3, 68, 0
5, 6240, Note_on_c, 3, 68, 110
5, 6240, Note_on_c, 3, 72, 110
5, 6354, Note_on_c, 3, 68, 0
5, 6354, Note_on_c, 3, 72, 0
5, 6480, Note_on_c, 3, 60, 110
5, 6480, Note_on_c, 3, 75, 100
5, 6594, Note_on_c, 3, 60, 0
5, 6594, Note_on_c, 3, 75, 0
5, 6720, Note_on_c, 3, 68, 110
5, 6720, Note_on_c, 3, 74, 110
5, 6948, Note_on_c, 3, 68, 0
5, 6948, Note_on_c, 3, 74, 0
5, 6960, Note_on_c, 3, 65, 110
5, 6960, Note_on_c, 3, 70, 110
5, 7188, Note_on_c, 3, 65, 0
5, 7188, Note_on_c, 3, 70, 0
5, 7200, Note_on_c, 3, 68, 110
5, 7200, Note_on_c, 3, 72, 110
5, 8640, Control_c, 3, 7, 100
5, 8670, Control_c, 3, 7, 100
5, 8700, Control_c, 3, 7, 100
5, 8730, Control_c, 3, 7, 100
5, 8760, Control_c, 3, 7, 100
5, 8790, Control_c, 3, 7, 100
5, 8820, Control_c, 3, 7, 100
5, 8850, Control_c, 3, 7, 100
5, 8880, Control_c, 3, 7, 100
5, 8910, Control_c, 3, 7, 100
5, 8940, Control_c, 3, 7, 100
5, 8970, Control_c, 3, 7, 100
5, 9000, Control_c, 3, 7, 100
5, 9030, Control_c, 3, 7, 100
5, 9060, Control_c, 3, 7, 100
5, 9090, Control_c, 3, 7, 100
5, 9120, Control_c, 3, 7, 100
5, 9150, Control_c, 3, 7, 100
5, 9180, Control_c, 3, 7, 100
5, 9210, Control_c, 3, 7, 100
5, 9240, Control_c, 3, 7, 100
5, 9270, Control_c, 3, 7, 100
5, 9300, Control_c, 3, 7, 100
5, 9330, Control_c, 3, 7, 100
5, 9360, Control_c, 3, 7, 100
5, 9390, Control_c, 3, 7, 100
5, 9420, Control_c, 3, 7, 100
5, 9450, Control_c, 3, 7, 100
5, 9480, Control_c, 3, 7, 100
5, 9510, Control_c, 3, 7, 100
5, 9540, Control_c, 3, 7, 100
5, 9570, Control_c, 3, 7, 100
5, 9581, Note_on_c, 3, 68, 0
5, 9581, Note_on_c, 3, 72, 0
5, 9600, Control_c, 3, 7, 100
5, 9630, Control_c, 3, 7, 100
5, 9660, Control_c, 3, 7, 100
5, 9690, Control_c, 3, 7, 100
5, 9720, Control_c, 3, 7, 100
5, 9750, Control_c, 3, 7, 100
5, 9780, Control_c, 3, 7, 100
5, 9810, Control_c, 3, 7, 100
5, 9840, Control_c, 3, 7, 100
5, 9870, Control_c, 3, 7, 100
5, 9900, Control_c, 3, 7, 100
5, 9930, Control_c, 3, 7, 100
5, 9960, Control_c, 3, 7, 100
5, 9990, Control_c, 3, 7, 100
5, 10020, Control_c, 3, 7, 100
5, 10050, Control_c, 3, 7, 100
5, 10080, Control_c, 3, 7, 100
5, 10110, Control_c, 3, 7, 100
5, 76800, Program_c, 3, 48
5, 76800, Note_on_c, 3, 60, 100
5, 76800, Note_on_c, 3, 57, 100
5, 84480, Note_on_c, 3, 60, 0
5, 84480, Note_on_c, 3, 57, 0
5, 84480, Note_on_c, 3, 62, 100
5, 84480, Note_on_c, 3, 67, 100
5, 86400, Note_on_c, 3, 62, 0
5, 86400, Note_on_c, 3, 67, 0
5, 86400, Note_on_c, 3, 62, 100
5, 86400, Note_on_c, 3, 67, 100
5, 88320, Note_on_c, 3, 62, 0
5, 88320, Note_on_c, 3, 67, 0
5, 88320, Note_on_c, 3, 64, 100
5, 88320, Note_on_c, 3, 67, 100
5, 90240, Note_on_c, 3, 64, 0
5, 90240, Note_on_c, 3, 67, 0
5, 90240, Note_on_c, 3, 73, 100
5, 90240, Note_on_c, 3, 67, 100
5, 90720, Note_on_c, 3, 67, 0
5, 90720, Note_on_c, 3, 69, 100
5, 91200, Note_on_c, 3, 69, 0
5, 91200, Note_on_c, 3, 67, 100
5, 92160, Note_on_c, 3, 73, 0
5, 92160, Note_on_c, 3, 67, 0
5, 92160, Note_on_c, 3, 62, 100
5, 92160, Note_on_c, 3, 65, 100
5, 96000, Note_on_c, 3, 62, 0
5, 96000, Note_on_c, 3, 60, 100
5, 97920, Note_on_c, 3, 60, 0
5, 97920, Note_on_c, 3, 65, 0
5, 97920, Note_on_c, 3, 59, 100
5, 97920, Note_on_c, 3, 68, 100
5, 98400, Note_on_c, 3, 68, 0
5, 98400, Note_on_c, 3, 67, 100
5, 98880, Note_on_c, 3, 67, 0
5, 98880, Note_on_c, 3, 65, 100
5, 99840, Note_on_c, 3, 59, 0
5, 99840, Note_on_c, 3, 65, 0
5, 99840, End_track
6, 0, Start_track
6, 0, Title_t, ""
6, 0, MIDI_port, 0
6, 0, Control_c, 4, 0, 0
6, 0, Control_c, 4, 32, 0
6, 0, Program_c, 4, 22
6, 45600, Note_on_c, 4, 67, 127
6, 46080, Note_on_c, 4, 67, 0
6, 46080, Note_on_c, 4, 72, 127
6, 46240, Note_on_c, 4, 72, 0
6, 46240, Note_on_c, 4, 74, 127
6, 46400, Note_on_c, 4, 74, 0
6, 46400, Note_on_c, 4, 76, 127
6, 46560, Note_on_c, 4, 76, 0
6, 46560, Note_on_c, 4, 79, 127
6, 49296, Note_on_c, 4, 79, 0
6, 49440, Note_on_c, 4, 77, 127
6, 49600, Note_on_c, 4, 77, 0
6, 49600, Note_on_c, 4, 74, 127
6, 49760, Note_on_c, 4, 74, 0
6, 49760, Note_on_c, 4, 71, 127
6, 49920, Note_on_c, 4, 71, 0
6, 49920, Note_on_c, 4, 72, 127
6, 50880, Note_on_c, 4, 72, 0
6, 50880, Note_on_c, 4, 67, 127
6, 53136, Note_on_c, 4, 67, 0
6, 53280, Note_on_c, 4, 67, 127
6, 53760, Note_on_c, 4, 67, 0
6, 53760, Note_on_c, 4, 72, 127
6, 53920, Note_on_c, 4, 72, 0
6, 53920, Note_on_c, 4, 74, 127
6, 54080, Note_on_c, 4, 74, 0
6, 54080, Note_on_c, 4, 76, 127
6, 54240, Note_on_c, 4, 76, 0
6, 54240, Note_on_c, 4, 79, 127
6, 56976, Note_on_c, 4, 79, 0
6, 57120, Note_on_c, 4, 79, 127
6, 57280, Note_on_c, 4, 79, 0
6, 57280, Note_on_c, 4, 77, 127
6, 57440, Note_on_c, 4, 77, 0
6, 57440, Note_on_c, 4, 76, 127
6, 57600, Note_on_c, 4, 76, 0
6, 57600, Note_on_c, 4, 76, 127
6, 58560, Note_on_c, 4, 76, 0
6, 58560, Note_on_c, 4, 74, 127
6, 60816, Note_on_c, 4, 74, 0
6, 60960, Note_on_c, 4, 67, 127
6, 61440, Note_on_c, 4, 67, 0
6, 61440, Note_on_c, 4, 71, 127
6, 61600, Note_on_c, 4, 71, 0
6, 61600, Note_on_c, 4, 76, 127
6, 61760, Note_on_c, 4, 76, 0
6, 61760, Note_on_c, 4, 79, 127
6, 61920, Note_on_c, 4, 79, 0
6, 61920, Note_on_c, 4, 83, 127
6, 64656, Note_on_c, 4, 83, 0
6, 64800, Note_on_c, 4, 83, 127
6, 64960, Note_on_c, 4, 83, 0
6, 64960, Note_on_c, 4, 79, 127
6, 65120, Note_on_c, 4, 79, 0
6, 65120, Note_on_c, 4, 76, 127
6, 65280, Note_on_c, 4, 76, 0
6, 65280, Note_on_c, 4, 76, 127
6, 66240, Note_on_c, 4, 76, 0
6, 66240, Note_on_c, 4, 74, 127
6, 68496, Note_on_c, 4, 74, 0
6, 68640, Note_on_c, 4, 69, 127
6, 69120, Note_on_c, 4, 69, 0
6, 69120, Note_on_c, 4, 76, 127
6, 69280, Note_on_c, 4, 76, 0
6, 69280, Note_on_c, 4, 74, 127
6, 69440, Note_on_c, 4, 74, 0
6, 69440, Note_on_c, 4, 76, 127
6, 69600, Note_on_c, 4, 76, 0
6, 69600, Note_on_c, 4, 77, 127
6, 72336, Note_on_c, 4, 77, 0
6, 72480, Note_on_c, 4, 76, 127
6, 72640, Note_on_c, 4, 76, 0
6, 72640, Note_on_c, 4, 74, 127
6, 72800, Note_on_c, 4, 74, 0
6, 72800, Note_on_c, 4, 76, 127
6, 72960, Note_on_c, 4, 76, 0
6, 72960, Note_on_c, 4, 77, 127
6, 74880, Note_on_c, 4, 77, 0
6, 74880, Note_on_c, 4, 76, 127
6, 75840, Note_on_c, 4, 76, 0
6, 75840, Note_on_c, 4, 71, 127
6, 76800, Note_on_c, 4, 71, 0
6, 76800, Note_on_c, 4, 74, 127
6, 77760, Note_on_c, 4, 74, 0
6, 77760, Note_on_c, 4, 72, 127
6, 80640, Note_on_c, 4, 72, 0
6, 80640, End_track
7, 0, Start_track
7, 0, Title_t, ""
7, 0, MIDI_port, 0
7, 0, Control_c, 5, 0, 0
7, 0, Control_c, 5, 32, 0
7, 0, Program_c, 5, 39
7, 76800, Pitch_bend_c, 5, 0
7, 76800, Note_on_c, 5, 45, 110
7, 76830, Pitch_bend_c, 5, 2066
7, 76860, Pitch_bend_c, 5, 3702
7, 76890, Pitch_bend_c, 5, 4976
7, 76920, Pitch_bend_c, 5, 5950
7, 76950, Pitch_bend_c, 5, 6677
7, 76980, Pitch_bend_c, 5, 7205
7, 77010, Pitch_bend_c, 5, 7578
7, 77040, Pitch_bend_c, 5, 7831
7, 77070, Pitch_bend_c, 5, 7994
7, 77100, Pitch_bend_c, 5, 8093
7, 77130, Pitch_bend_c, 5, 8148
7, 77160, Pitch_bend_c, 5, 8176
7, 77190, Pitch_bend_c, 5, 8187
7, 77220, Pitch_bend_c, 5, 8191
7, 77250, Pitch_bend_c, 5, 8191
7, 77280, Pitch_bend_c, 5, 8192
7, 77310, Pitch_bend_c, 5, 8192
7, 77340, Pitch_bend_c, 5, 8192
7, 77370, Pitch_bend_c, 5, 8192
7, 77400, Pitch_bend_c, 5, 8192
7, 77430, Pitch_bend_c, 5, 8192
7, 77460, Pitch_bend_c, 5, 8192
7, 77490, Pitch_bend_c, 5, 8192
7, 77520, Pitch_bend_c, 5, 8192
7, 77550, Pitch_bend_c, 5, 8192
7, 77580, Pitch_bend_c, 5, 8192
7, 77610, Pitch_bend_c, 5, 8192
7, 77640, Pitch_bend_c, 5, 8192
7, 77670, Pitch_bend_c, 5, 8192
7, 77700, Pitch_bend_c, 5, 8192
7, 77730, Pitch_bend_c, 5, 8192
7, 77760, Pitch_bend_c, 5, 8192
7, 77790, Pitch_bend_c, 5, 8192
7, 77820, Pitch_bend_c, 5, 8192
7, 77850, Pitch_bend_c, 5, 8192
7, 77880, Pitch_bend_c, 5, 8192
7, 77910, Pitch_bend_c, 5, 8192
7, 77940, Pitch_bend_c, 5, 8192
7, 77970, Pitch_bend_c, 5, 8192
7, 78000, Pitch_bend_c, 5, 8192
7, 78030, Pitch_bend_c, 5, 8192
7, 78060, Pitch_bend_c, 5, 8192
7, 78090, Pitch_bend_c, 5, 8192
7, 78120, Pitch_bend_c, 5, 8192
7, 78150, Pitch_bend_c, 5, 8192
7, 78180, Pitch_bend_c, 5, 8192
7, 78210, Pitch_bend_c, 5, 8192
7, 78240, Note_on_c, 5, 45, 0
7, 78240, Pitch_bend_c, 5, 8192
7, 78240, Note_on_c, 5, 45, 110
7, 78270, Pitch_bend_c, 5, 8192
7, 78300, Pitch_bend_c, 5, 8192
7, 78330, Pitch_bend_c, 5, 8192
7, 78360, Pitch_bend_c, 5, 8192
7, 78390, Pitch_bend_c, 5, 8192
7, 78420, Pitch_bend_c, 5, 8192
7, 78450, Pitch_bend_c, 5, 8192
7, 78480, Pitch_bend_c, 5, 8192
7, 78510, Pitch_bend_c, 5, 8192
7, 78540, Pitch_bend_c, 5, 8192
7, 78570, Pitch_bend_c, 5, 8192
7, 78600, Pitch_bend_c, 5, 8192
7, 78630, Pitch_bend_c, 5, 8192
7, 78660, Pitch_bend_c, 5, 8192
7, 78690, Pitch_bend_c, 5, 8192
7, 78720, Note_on_c, 5, 45, 0
7, 78720, Pitch_bend_c, 5, 8192
7, 78720, Note_on_c, 5, 43, 110
7, 78750, Pitch_bend_c, 5, 8192
7, 78780, Pitch_bend_c, 5, 8192
7, 78810, Pitch_bend_c, 5, 8192
7, 78840, Pitch_bend_c, 5, 8192
7, 78870, Pitch_bend_c, 5, 8192
7, 78900, Pitch_bend_c, 5, 8192
7, 78930, Pitch_bend_c, 5, 8192
7, 78960, Pitch_bend_c, 5, 8192
7, 78990, Pitch_bend_c, 5, 8192
7, 79020, Pitch_bend_c, 5, 8192
7, 79050, Pitch_bend_c, 5, 8192
7, 79080, Pitch_bend_c, 5, 8192
7, 79110, Pitch_bend_c, 5, 8192
7, 79140, Pitch_bend_c, 5, 8192
7, 79170, Pitch_bend_c, 5, 8192
7, 79200, Pitch_bend_c, 5, 8192
7, 79230, Pitch_bend_c, 5, 8192
7, 79260, Pitch_bend_c, 5, 8192
7, 79290, Pitch_bend_c, 5, 8192
7, 79320, Pitch_bend_c, 5, 8192
7, 79350, Pitch_bend_c, 5, 8192
7, 79380, Pitch_bend_c, 5, 8192
7, 79410, Pitch_bend_c, 5, 8192
7, 79440, Pitch_bend_c, 5, 8192
7, 79470, Pitch_bend_c, 5, 8192
7, 79500, Pitch_bend_c, 5, 8192
7, 79530, Pitch_bend_c, 5, 8192
7, 79560, Pitch_bend_c, 5, 8192
7, 79590, Pitch_bend_c, 5, 8192
7, 79620, Pitch_bend_c, 5, 8192
7, 79650, Pitch_bend_c, 5, 8192
7, 79680, Pitch_bend_c, 5, 8192
7, 79710, Pitch_bend_c, 5, 8192
7, 79740, Pitch_bend_c, 5, 8192
7, 79770, Pitch_bend_c, 5, 8192
7, 79800, Pitch_bend_c, 5, 8192
7, 79830, Pitch_bend_c, 5, 8192
7, 79860, Pitch_bend_c, 5, 8192
7, 79890, Pitch_bend_c, 5, 8192
7, 79920, Pitch_bend_c, 5, 8192
7, 79950, Pitch_bend_c, 5, 8192
7, 79980, Pitch_bend_c, 5, 8192
7, 80010, Pitch_bend_c, 5, 8192
7, 80040, Pitch_bend_c, 5, 8192
7, 80070, Pitch_bend_c, 5, 8192
7, 80100, Pitch_bend_c, 5, 8192
7, 80130, Pitch_bend_c, 5, 8192
7, 80160, Note_on_c, 5, 43, 0
7, 80160, Pitch_bend_c, 5, 8192
7, 80160, Note_on_c, 5, 43, 110
7, 80190, Pitch_bend_c, 5, 8192
7, 80220, Pitch_bend_c, 5, 8192
7, 80250, Pitch_bend_c, 5, 8192
7, 80280, Pitch_bend_c, 5, 8192
7, 80310, Pitch_bend_c, 5, 8192
7, 80340, Pitch_bend_c, 5, 8192
7, 80370, Pitch_bend_c, 5, 8192
7, 80400, Pitch_bend_c, 5, 8192
7, 80430, Pitch_bend_c, 5, 8192
7, 80460, Pitch_bend_c, 5, 8192
7, 80490, Pitch_bend_c, 5, 8192
7, 80520, Pitch_bend_c, 5, 8192
7, 80550, Pitch_bend_c, 5, 8192
7, 80580, Pitch_bend_c, 5, 8192
7, 80610, Pitch_bend_c, 5, 8192
7, 80640, Note_on_c, 5, 43, 0
7, 80640, Pitch_bend_c, 5, 8192
7, 80640, Note_on_c, 5, 42, 110
7, 80670, Pitch_bend_c, 5, 8192
7, 82080, Note_on_c, 5, 42, 0
7, 82080, Note_on_c, 5, 42, 110
7, 82560, Note_on_c, 5, 42, 0
7, 82560, Note_on_c, 5, 41, 110
7, 84480, Note_on_c, 5, 41, 0
7, 84480, Note_on_c, 5, 38, 110
7, 85920, Note_on_c, 5, 38, 0
7, 85920, Note_on_c, 5, 45, 110
7, 85920, Pitch_bend_c, 5, 0
7, 85950, Pitch_bend_c, 5, 3763
7, 85980, Pitch_bend_c, 5, 6020
7, 86010, Pitch_bend_c, 5, 7261
7, 86040, Pitch_bend_c, 5, 7864
7, 86070, Pitch_bend_c, 5, 8108
7, 86100, Pitch_bend_c, 5, 8180
7, 86130, Pitch_bend_c, 5, 8191
7, 86155, Pitch_bend_c, 5, 8192
7, 86185, Pitch_bend_c, 5, 8192
7, 86215, Pitch_bend_c, 5, 8192
7, 86245, Pitch_bend_c, 5, 8192
7, 86275, Pitch_bend_c, 5, 8192
7, 86305, Pitch_bend_c, 5, 8192
7, 86335, Pitch_bend_c, 5, 8192
7, 86365, Pitch_bend_c, 5, 8192
7, 86395, Pitch_bend_c, 5, 8192
7, 86400, Note_on_c, 5, 45, 0
7, 86400, Note_on_c, 5, 43, 110
7, 86425, Pitch_bend_c, 5, 8192
7, 86455, Pitch_bend_c, 5, 8192
7, 86485, Pitch_bend_c, 5, 8192
7, 86515, Pitch_bend_c, 5, 8192
7, 86545, Pitch_bend_c, 5, 8192
7, 86575, Pitch_bend_c, 5, 8192
7, 86605, Pitch_bend_c, 5, 8192
7, 86635, Pitch_bend_c, 5, 8192
7, 86665, Pitch_bend_c, 5, 8192
7, 86695, Pitch_bend_c, 5, 8192
7, 86725, Pitch_bend_c, 5, 8192
7, 86755, Pitch_bend_c, 5, 8192
7, 86785, Pitch_bend_c, 5, 8192
7, 86815, Pitch_bend_c, 5, 8192
7, 86845, Pitch_bend_c, 5, 8192
7, 86875, Pitch_bend_c, 5, 8192
7, 86905, Pitch_bend_c, 5, 8192
7, 86935, Pitch_bend_c, 5, 8192
7, 86965, Pitch_bend_c, 5, 8192
7, 86995, Pitch_bend_c, 5, 8192
7, 87025, Pitch_bend_c, 5, 8192
7, 87055, Pitch_bend_c, 5, 8192
7, 87085, Pitch_bend_c, 5, 8192
7, 87115, Pitch_bend_c, 5, 8192
7, 87145, Pitch_bend_c, 5, 8192
7, 87175, Pitch_bend_c, 5, 8192
7, 87205, Pitch_bend_c, 5, 8192
7, 87235, Pitch_bend_c, 5, 8192
7, 87265, Pitch_bend_c, 5, 8192
7, 87295, Pitch_bend_c, 5, 8192
7, 87325, Pitch_bend_c, 5, 8192
7, 87355, Pitch_bend_c, 5, 8192
7, 87385, Pitch_bend_c, 5, 8192
7, 87415, Pitch_bend_c, 5, 8192
7, 87445, Pitch_bend_c, 5, 8192
7, 87475, Pitch_bend_c, 5, 8192
7, 87505, Pitch_bend_c, 5, 8192
7, 87535, Pitch_bend_c, 5, 8192
7, 87565, Pitch_bend_c, 5, 8192
7, 87595, Pitch_bend_c, 5, 8192
7, 87625, Pitch_bend_c, 5, 8192
7, 87655, Pitch_bend_c, 5, 8192
7, 87685, Pitch_bend_c, 5, 8192
7, 87715, Pitch_bend_c, 5, 8192
7, 87745, Pitch_bend_c, 5, 8192
7, 87775, Pitch_bend_c, 5, 8192
7, 87805, Pitch_bend_c, 5, 8192
7, 87835, Pitch_bend_c, 5, 8192
7, 87865, Pitch_bend_c, 5, 8192
7, 87895, Pitch_bend_c, 5, 8192
7, 87925, Pitch_bend_c, 5, 8192
7, 87955, Pitch_bend_c, 5, 8192
7, 87985, Pitch_bend_c, 5, 8192
7, 88015, Pitch_bend_c, 5, 8192
7, 88045, Pitch_bend_c, 5, 8192
7, 88075, Pitch_bend_c, 5, 8192
7, 88105, Pitch_bend_c, 5, 8192
7, 88135, Pitch_bend_c, 5, 8192
7, 88165, Pitch_bend_c, 5, 8192
7, 88195, Pitch_bend_c, 5, 8192
7, 88225, Pitch_bend_c, 5, 8192
7, 88255, Pitch_bend_c, 5, 8192
7, 88285, Pitch_bend_c, 5, 8192
7, 88315, Pitch_bend_c, 5, 8192
7, 88320, Note_on_c, 5, 43, 0
7, 88320, Note_on_c, 5, 40, 110
7, 88345, Pitch_bend_c, 5, 8192
7, 89760, Note_on_c, 5, 40, 0
7, 89760, Note_on_c, 5, 47, 110
7, 89760, Pitch_bend_c, 5, 0
7, 89790, Pitch_bend_c, 5, 3763
7, 89820, Pitch_bend_c, 5, 6020
7, 89850, Pitch_bend_c, 5, 7261
7, 89880, Pitch_bend_c, 5, 7864
7, 89910, Pitch_bend_c, 5, 8108
7, 89940, Pitch_bend_c, 5, 8180
7, 89970, Pitch_bend_c, 5, 8191
7, 89995, Pitch_bend_c, 5, 8192
7, 90025, Pitch_bend_c, 5, 8192
7, 90055, Pitch_bend_c, 5, 8192
7, 90085, Pitch_bend_c, 5, 8192
7, 90115, Pitch_bend_c, 5, 8192
7, 90145, Pitch_bend_c, 5, 8192
7, 90175, Pitch_bend_c, 5, 8192
7, 90205, Pitch_bend_c, 5, 8192
7, 90235, Pitch_bend_c, 5, 8192
7, 90240, Note_on_c, 5, 47, 0
7, 90240, Note_on_c, 5, 45, 110
7, 91680, Note_on_c, 5, 45, 0
7, 91680, Note_on_c, 5, 40, 110
7, 91920, Note_on_c, 5, 40, 0
7, 91920, Note_on_c, 5, 39, 110
7, 92160, Note_on_c, 5, 39, 0
7, 92160, Note_on_c, 5, 38, 110
7, 94560, Note_on_c, 5, 38, 0
7, 94560, Note_on_c, 5, 52, 110
7, 94560, Pitch_bend_c, 5, 0
7, 94590, Pitch_bend_c, 5, 6035
7, 94620, Pitch_bend_c, 5, 7870
7, 94650, Pitch_bend_c, 5, 8180
7, 94677, Pitch_bend_c, 5, 8192
7, 94707, Pitch_bend_c, 5, 8192
7, 94737, Pitch_bend_c, 5, 8192
7, 94767, Pitch_bend_c, 5, 8192
7, 94797, Pitch_bend_c, 5, 8192
7, 94800, Note_on_c, 5, 52, 0
7, 94800, Note_on_c, 5, 50, 110
7, 94827, Pitch_bend_c, 5, 8192
7, 94857, Pitch_bend_c, 5, 8192
7, 94887, Pitch_bend_c, 5, 8192
7, 94917, Pitch_bend_c, 5, 8192
7, 94947, Pitch_bend_c, 5, 8192
7, 94977, Pitch_bend_c, 5, 8192
7, 95007, Pitch_bend_c, 5, 8192
7, 95037, Pitch_bend_c, 5, 8192
7, 95040, Note_on_c, 5, 50, 0
7, 95040, Note_on_c, 5, 48, 110
7, 95067, Pitch_bend_c, 5, 8192
7, 95097, Pitch_bend_c, 5, 8192
7, 95127, Pitch_bend_c, 5, 8192
7, 95157, Pitch_bend_c, 5, 8192
7, 95187, Pitch_bend_c, 5, 8192
7, 95217, Pitch_bend_c, 5, 8192
7, 95247, Pitch_bend_c, 5, 8192
7, 95277, Pitch_bend_c, 5, 8192
7, 95307, Pitch_bend_c, 5, 8192
7, 95337, Pitch_bend_c, 5, 8192
7, 95367, Pitch_bend_c, 5, 8192
7, 95397, Pitch_bend_c, 5, 8192
7, 95400, Note_on_c, 5, 48, 0
7, 95400, Note_on_c, 5, 47, 110
7, 95427, Pitch_bend_c, 5, 8192
7, 95457, Pitch_bend_c, 5, 8192
7, 95487, Pitch_bend_c, 5, 8192
7, 95517, Pitch_bend_c, 5, 8192
7, 95547, Pitch_bend_c, 5, 8192
7, 95577, Pitch_bend_c, 5, 8192
7, 95607, Pitch_bend_c, 5, 8192
7, 95637, Pitch_bend_c, 5, 8192
7, 95667, Pitch_bend_c, 5, 8192
7, 95697, Pitch_bend_c, 5, 8192
7, 95727, Pitch_bend_c, 5, 8192
7, 95757, Pitch_bend_c, 5, 8192
7, 95760, Note_on_c, 5, 47, 0
7, 95760, Note_on_c, 5, 45, 110
7, 95787, Pitch_bend_c, 5, 8192
7, 95817, Pitch_bend_c, 5, 8192
7, 95847, Pitch_bend_c, 5, 8192
7, 95877, Pitch_bend_c, 5, 8192
7, 95907, Pitch_bend_c, 5, 8192
7, 95937, Pitch_bend_c, 5, 8192
7, 95967, Pitch_bend_c, 5, 8192
7, 95997, Pitch_bend_c, 5, 8192
7, 96000, Note_on_c, 5, 45, 0
7, 96000, Note_on_c, 5, 43, 110
7, 96027, Pitch_bend_c, 5, 8192
7, 96057, Pitch_bend_c, 5, 8192
7, 96087, Pitch_bend_c, 5, 8192
7, 96117, Pitch_bend_c, 5, 8192
7, 96147, Pitch_bend_c, 5, 8192
7, 96177, Pitch_bend_c, 5, 8192
7, 96207, Pitch_bend_c, 5, 8192
7, 96237, Pitch_bend_c, 5, 8192
7, 96267, Pitch_bend_c, 5, 8192
7, 96297, Pitch_bend_c, 5, 8192
7, 96327, Pitch_bend_c, 5, 8192
7, 96357, Pitch_bend_c, 5, 8192
7, 96387, Pitch_bend_c, 5, 8192
7, 96417, Pitch_bend_c, 5, 8192
7, 96447, Pitch_bend_c, 5, 8192
7, 96477, Pitch_bend_c, 5, 8192
7, 96507, Pitch_bend_c, 5, 8192
7, 96537, Pitch_bend_c, 5, 8192
7, 96567, Pitch_bend_c, 5, 8192
7, 96597, Pitch_bend_c, 5, 8192
7, 96627, Pitch_bend_c, 5, 8192
7, 96657, Pitch_bend_c, 5, 8192
7, 96687, Pitch_bend_c, 5, 8192
7, 96717, Pitch_bend_c, 5, 8192
7, 96747, Pitch_bend_c, 5, 8192
7, 96777, Pitch_bend_c, 5, 8192
7, 96807, Pitch_bend_c, 5, 8192
7, 96837, Pitch_bend_c, 5, 8192
7, 96867, Pitch_bend_c, 5, 8192
7, 96897, Pitch_bend_c, 5, 8192
7, 96927, Pitch_bend_c, 5, 8192
7, 96957, Pitch_bend_c, 5, 8192
7, 96987, Pitch_bend_c, 5, 8192
7, 97017, Pitch_bend_c, 5, 8192
7, 97047, Pitch_bend_c, 5, 8192
7, 97077, Pitch_bend_c, 5, 8192
7, 97107, Pitch_bend_c, 5, 8192
7, 97137, Pitch_bend_c, 5, 8192
7, 97167, Pitch_bend_c, 5, 8192
7, 97197, Pitch_bend_c, 5, 8192
7, 97227, Pitch_bend_c, 5, 8192
7, 97257, Pitch_bend_c, 5, 8192
7, 97287, Pitch_bend_c, 5, 8192
7, 97317, Pitch_bend_c, 5, 8192
7, 97347, Pitch_bend_c, 5, 8192
7, 97377, Pitch_bend_c, 5, 8192
7, 97407, Pitch_bend_c, 5, 8192
7, 97437, Pitch_bend_c, 5, 8192
7, 97440, Note_on_c, 5, 43, 0
7, 97440, Note_on_c, 5, 43, 110
7, 97467, Pitch_bend_c, 5, 8192
7, 97497, Pitch_bend_c, 5, 8192
7, 97527, Pitch_bend_c, 5, 8192
7, 97557, Pitch_bend_c, 5, 8192
7, 97587, Pitch_bend_c, 5, 8192
7, 97617, Pitch_bend_c, 5, 8192
7, 97647, Pitch_bend_c, 5, 8192
7, 97677, Pitch_bend_c, 5, 8192
7, 97707, Pitch_bend_c, 5, 8192
7, 97737, Pitch_bend_c, 5, 8192
7, 97767, Pitch_bend_c, 5, 8192
7, 97797, Pitch_bend_c, 5, 8192
7, 97827, Pitch_bend_c, 5, 8192
7, 97857, Pitch_bend_c, 5, 8192
7, 97887, Pitch_bend_c, 5, 8192
7, 97917, Pitch_bend_c, 5, 8192
7, 97920, Note_on_c, 5, 43, 0
7, 97920, Note_on_c, 5, 43, 110
7, 97947, Pitch_bend_c, 5, 8192
7, 99840, Note_on_c, 5, 43, 0
7, 99840, End_track
8, 0, Start_track
8, 0, Title_t, ""
8, 0, MIDI_port, 0
8, 0, End_track
9, 0, Start_track
9, 0, Title_t, ""
9, 0, MIDI_port, 0
9, 0, End_track
10, 0, Start_track
10, 0, Title_t, ""
10, 0, MIDI_port, 0
10, 0, End_track
11, 0, Start_track
11, 0, Title_t, ""
11, 0, MIDI_port, 0
11, 0, End_track
12, 0, Start_track
12, 0, Title_t, ""
12, 0, MIDI_port, 0
12, 0, End_track
13, 0, Start_track
13, 0, Title_t, ""
13, 0, MIDI_port, 0
13, 0, End_track
14, 0, Start_track
14, 0, Title_t, ""
14, 0, MIDI_port, 0
14, 0, End_track
15, 0, Start_track
15, 0, Title_t, ""
15, 0, MIDI_port, 0
15, 0, End_track
16, 0, Start_track
16, 0, Title_t, ""
16, 0, MIDI_port, 0
16, 0, End_track
17, 0, Start_track
17, 0, Title_t, ""
17, 0, MIDI_port, 0
17, 0, End_track
0, 0, End_of_file
