0, 0, Header, 1, 18, 480
1, 0, Start_track
1, 0, Title_t, "\202n\202\220\202\205\202\216\202\211\202\216\202\207"
1, 0, Copyright_t, "Copyright by Nobuo Uematsu"
1, 0, Title_t, "Conductor track"
1, 0, Key_signature, 0, "major"
1, 0, Time_signature, 1, 2, 24, 8
1, 0, Tempo, 250000
1, 480, Text_t, "Start"
1, 480, Tempo, 659340
1, 480, Key_signature, 0, "major"
1, 480, Time_signature, 4, 2, 24, 8
1, 480, End_track
2, 0, Start_track
2, 0, Title_t, "System Setup"
2, 0, System_exclusive, 5, 126, 127, 9, 1, 247
2, 480, End_track
3, 0, Start_track
3, 0, Title_t, "CH #1"
3, 0, Instrument_name_t, "Organ1"
3, 240, Control_c, 0, 7, 110
3, 300, Control_c, 0, 10, 64
3, 360, Control_c, 0, 11, 100
3, 420, Program_c, 0, 16
3, 480, Text_t, "Start"
3, 480, Control_c, 0, 11, 21
3, 480, Control_c, 0, 10, 64
3, 480, Note_on_c, 0, 71, 127
3, 480, Note_on_c, 0, 64, 127
3, 540, Control_c, 0, 11, 27
3, 600, Control_c, 0, 11, 30
3, 660, Control_c, 0, 11, 34
3, 720, Control_c, 0, 11, 38
3, 780, Control_c, 0, 11, 39
3, 840, Control_c, 0, 11, 41
3, 900, Control_c, 0, 11, 45
3, 960, Control_c, 0, 11, 48
3, 1020, Control_c, 0, 11, 52
3, 1080, Control_c, 0, 11, 54
3, 1140, Control_c, 0, 11, 56
3, 1200, Control_c, 0, 11, 59
3, 1260, Control_c, 0, 11, 63
3, 1320, Control_c, 0, 11, 66
3, 1380, Control_c, 0, 11, 68
3, 1440, Control_c, 0, 11, 72
3, 1500, Control_c, 0, 11, 74
3, 1560, Control_c, 0, 11, 77
3, 4320, Note_on_c, 0, 64, 0
3, 4320, Note_on_c, 0, 71, 0
3, 4320, Control_c, 0, 11, 22
3, 4320, Note_on_c, 0, 74, 127
3, 4320, Note_on_c, 0, 71, 127
3, 4320, Note_on_c, 0, 66, 127
3, 4380, Control_c, 0, 11, 28
3, 4440, Control_c, 0, 11, 32
3, 4500, Control_c, 0, 11, 36
3, 4560, Control_c, 0, 11, 40
3, 4620, Control_c, 0, 11, 45
3, 4680, Control_c, 0, 11, 49
3, 4740, Control_c, 0, 11, 52
3, 4800, Control_c, 0, 11, 58
3, 4860, Control_c, 0, 11, 62
3, 4920, Control_c, 0, 11, 67
3, 4980, Control_c, 0, 11, 71
3, 5040, Control_c, 0, 11, 73
3, 5100, Control_c, 0, 11, 77
3, 5160, Control_c, 0, 11, 82
3, 5220, Control_c, 0, 11, 87
3, 8160, Control_c, 0, 11, 83
3, 10080, Note_on_c, 0, 66, 0
3, 10080, Note_on_c, 0, 71, 0
3, 10080, Note_on_c, 0, 74, 0
3, 10080, Control_c, 0, 11, 21
3, 10080, Control_c, 0, 10, 64
3, 10080, Note_on_c, 0, 71, 127
3, 10080, Note_on_c, 0, 64, 127
3, 10140, Control_c, 0, 11, 27
3, 10200, Control_c, 0, 11, 30
3, 10260, Control_c, 0, 11, 34
3, 10320, Control_c, 0, 11, 38
3, 10380, Control_c, 0, 11, 39
3, 10440, Control_c, 0, 11, 41
3, 10500, Control_c, 0, 11, 45
3, 10560, Control_c, 0, 11, 48
3, 10620, Control_c, 0, 11, 52
3, 10680, Control_c, 0, 11, 54
3, 10740, Control_c, 0, 11, 56
3, 10800, Control_c, 0, 11, 59
3, 10860, Control_c, 0, 11, 63
3, 10920, Control_c, 0, 11, 66
3, 10980, Control_c, 0, 11, 68
3, 11040, Control_c, 0, 11, 72
3, 11100, Control_c, 0, 11, 74
3, 11160, Control_c, 0, 11, 77
3, 13920, Note_on_c, 0, 64, 0
3, 13920, Note_on_c, 0, 71, 0
3, 13920, Control_c, 0, 11, 22
3, 13920, Note_on_c, 0, 74, 127
3, 13920, Note_on_c, 0, 71, 127
3, 13920, Note_on_c, 0, 66, 127
3, 13980, Control_c, 0, 11, 28
3, 14040, Control_c, 0, 11, 32
3, 14100, Control_c, 0, 11, 36
3, 14160, Control_c, 0, 11, 40
3, 14220, Control_c, 0, 11, 45
3, 14280, Control_c, 0, 11, 49
3, 14340, Control_c, 0, 11, 52
3, 14400, Control_c, 0, 11, 58
3, 14460, Control_c, 0, 11, 62
3, 14520, Control_c, 0, 11, 67
3, 14580, Control_c, 0, 11, 71
3, 14640, Control_c, 0, 11, 73
3, 14700, Control_c, 0, 11, 77
3, 14760, Control_c, 0, 11, 82
3, 14820, Control_c, 0, 11, 87
3, 17760, Control_c, 0, 11, 83
3, 19680, Note_on_c, 0, 66, 0
3, 19680, Note_on_c, 0, 71, 0
3, 19680, Note_on_c, 0, 74, 0
3, 19680, Control_c, 0, 11, 21
3, 19680, Control_c, 0, 10, 64
3, 19680, Note_on_c, 0, 71, 127
3, 19680, Note_on_c, 0, 64, 127
3, 19740, Control_c, 0, 11, 27
3, 19800, Control_c, 0, 11, 30
3, 19860, Control_c, 0, 11, 34
3, 19920, Control_c, 0, 11, 38
3, 19980, Control_c, 0, 11, 39
3, 20040, Control_c, 0, 11, 41
3, 20100, Control_c, 0, 11, 45
3, 20160, Control_c, 0, 11, 48
3, 20220, Control_c, 0, 11, 52
3, 20280, Control_c, 0, 11, 54
3, 20340, Control_c, 0, 11, 56
3, 20400, Control_c, 0, 11, 59
3, 20460, Control_c, 0, 11, 63
3, 20520, Control_c, 0, 11, 66
3, 20580, Control_c, 0, 11, 68
3, 20640, Control_c, 0, 11, 72
3, 20700, Control_c, 0, 11, 74
3, 20760, Control_c, 0, 11, 77
3, 23520, Note_on_c, 0, 64, 0
3, 23520, Note_on_c, 0, 71, 0
3, 23520, Control_c, 0, 11, 22
3, 23520, Note_on_c, 0, 74, 127
3, 23520, Note_on_c, 0, 71, 127
3, 23520, Note_on_c, 0, 66, 127
3, 23580, Control_c, 0, 11, 28
3, 23640, Control_c, 0, 11, 32
3, 23700, Control_c, 0, 11, 36
3, 23760, Control_c, 0, 11, 40
3, 23820, Control_c, 0, 11, 45
3, 23880, Control_c, 0, 11, 49
3, 23940, Control_c, 0, 11, 52
3, 24000, Control_c, 0, 11, 58
3, 24060, Control_c, 0, 11, 62
3, 24120, Control_c, 0, 11, 67
3, 24180, Control_c, 0, 11, 71
3, 24240, Control_c, 0, 11, 73
3, 24300, Control_c, 0, 11, 77
3, 24360, Control_c, 0, 11, 82
3, 24420, Control_c, 0, 11, 87
3, 27360, Control_c, 0, 11, 84
3, 29280, Note_on_c, 0, 66, 0
3, 29280, Note_on_c, 0, 71, 0
3, 29280, Note_on_c, 0, 74, 0
3, 29280, Control_c, 0, 11, 21
3, 29280, Control_c, 0, 10, 64
3, 29280, Note_on_c, 0, 71, 127
3, 29280, Note_on_c, 0, 64, 127
3, 29340, Control_c, 0, 11, 27
3, 29400, Control_c, 0, 11, 30
3, 29460, Control_c, 0, 11, 34
3, 29520, Control_c, 0, 11, 38
3, 29580, Control_c, 0, 11, 39
3, 29640, Control_c, 0, 11, 41
3, 29700, Control_c, 0, 11, 45
3, 29760, Control_c, 0, 11, 48
3, 29820, Control_c, 0, 11, 52
3, 29880, Control_c, 0, 11, 54
3, 29940, Control_c, 0, 11, 56
3, 30000, Control_c, 0, 11, 59
3, 30060, Control_c, 0, 11, 63
3, 30120, Control_c, 0, 11, 66
3, 30180, Control_c, 0, 11, 68
3, 30240, Control_c, 0, 11, 72
3, 30300, Control_c, 0, 11, 74
3, 30360, Control_c, 0, 11, 77
3, 33120, Note_on_c, 0, 64, 0
3, 33120, Note_on_c, 0, 71, 0
3, 33120, Control_c, 0, 11, 22
3, 33120, Note_on_c, 0, 74, 127
3, 33120, Note_on_c, 0, 71, 127
3, 33120, Note_on_c, 0, 66, 127
3, 33180, Control_c, 0, 11, 28
3, 33240, Control_c, 0, 11, 32
3, 33300, Control_c, 0, 11, 36
3, 33360, Control_c, 0, 11, 40
3, 33420, Control_c, 0, 11, 45
3, 33480, Control_c, 0, 11, 49
3, 33540, Control_c, 0, 11, 52
3, 33600, Control_c, 0, 11, 58
3, 33660, Control_c, 0, 11, 62
3, 33720, Control_c, 0, 11, 67
3, 33780, Control_c, 0, 11, 71
3, 33840, Control_c, 0, 11, 73
3, 33900, Control_c, 0, 11, 77
3, 33960, Control_c, 0, 11, 82
3, 34020, Control_c, 0, 11, 87
3, 36960, Control_c, 0, 11, 84
3, 38880, Note_on_c, 0, 66, 0
3, 38880, Note_on_c, 0, 71, 0
3, 38880, Note_on_c, 0, 74, 0
3, 38880, Control_c, 0, 11, 21
3, 38880, Control_c, 0, 10, 64
3, 38880, Note_on_c, 0, 71, 127
3, 38880, Note_on_c, 0, 64, 127
3, 38940, Control_c, 0, 11, 27
3, 39000, Control_c, 0, 11, 30
3, 39060, Control_c, 0, 11, 34
3, 39120, Control_c, 0, 11, 38
3, 39180, Control_c, 0, 11, 39
3, 39240, Control_c, 0, 11, 41
3, 39300, Control_c, 0, 11, 45
3, 39360, Control_c, 0, 11, 48
3, 39420, Control_c, 0, 11, 52
3, 39480, Control_c, 0, 11, 54
3, 39540, Control_c, 0, 11, 56
3, 39600, Control_c, 0, 11, 59
3, 39660, Control_c, 0, 11, 63
3, 39720, Control_c, 0, 11, 66
3, 39780, Control_c, 0, 11, 68
3, 39840, Control_c, 0, 11, 72
3, 39900, Control_c, 0, 11, 74
3, 39960, Control_c, 0, 11, 77
3, 42720, Note_on_c, 0, 64, 0
3, 42720, Note_on_c, 0, 71, 0
3, 42720, Control_c, 0, 11, 22
3, 42720, Note_on_c, 0, 74, 127
3, 42720, Note_on_c, 0, 71, 127
3, 42720, Note_on_c, 0, 66, 127
3, 42780, Control_c, 0, 11, 28
3, 42840, Control_c, 0, 11, 32
3, 42900, Control_c, 0, 11, 36
3, 42960, Control_c, 0, 11, 40
3, 43020, Control_c, 0, 11, 45
3, 43080, Control_c, 0, 11, 49
3, 43140, Control_c, 0, 11, 52
3, 43200, Control_c, 0, 11, 58
3, 43260, Control_c, 0, 11, 62
3, 43320, Control_c, 0, 11, 67
3, 43380, Control_c, 0, 11, 71
3, 43440, Control_c, 0, 11, 73
3, 43500, Control_c, 0, 11, 77
3, 43560, Control_c, 0, 11, 82
3, 43620, Control_c, 0, 11, 87
3, 46560, Control_c, 0, 11, 84
3, 48480, Note_on_c, 0, 66, 0
3, 48480, Note_on_c, 0, 71, 0
3, 48480, Note_on_c, 0, 74, 0
3, 48480, Control_c, 0, 11, 21
3, 48480, Control_c, 0, 10, 64
3, 48480, Note_on_c, 0, 71, 127
3, 48480, Note_on_c, 0, 64, 127
3, 48540, Control_c, 0, 11, 27
3, 48600, Control_c, 0, 11, 30
3, 48660, Control_c, 0, 11, 34
3, 48720, Control_c, 0, 11, 38
3, 48780, Control_c, 0, 11, 39
3, 48840, Control_c, 0, 11, 41
3, 48900, Control_c, 0, 11, 45
3, 48960, Control_c, 0, 11, 48
3, 49020, Control_c, 0, 11, 52
3, 49080, Control_c, 0, 11, 54
3, 49140, Control_c, 0, 11, 56
3, 49200, Control_c, 0, 11, 59
3, 49260, Control_c, 0, 11, 63
3, 49320, Control_c, 0, 11, 66
3, 49380, Control_c, 0, 11, 68
3, 49440, Control_c, 0, 11, 72
3, 49500, Control_c, 0, 11, 74
3, 49560, Control_c, 0, 11, 77
3, 52320, Note_on_c, 0, 64, 0
3, 52320, Note_on_c, 0, 71, 0
3, 52320, Control_c, 0, 11, 22
3, 52320, Note_on_c, 0, 74, 127
3, 52320, Note_on_c, 0, 71, 127
3, 52320, Note_on_c, 0, 66, 127
3, 52380, Control_c, 0, 11, 28
3, 52440, Control_c, 0, 11, 32
3, 52500, Control_c, 0, 11, 36
3, 52560, Control_c, 0, 11, 40
3, 52620, Control_c, 0, 11, 45
3, 52680, Control_c, 0, 11, 49
3, 52740, Control_c, 0, 11, 52
3, 52800, Control_c, 0, 11, 58
3, 52860, Control_c, 0, 11, 62
3, 52920, Control_c, 0, 11, 67
3, 52980, Control_c, 0, 11, 71
3, 53040, Control_c, 0, 11, 73
3, 53100, Control_c, 0, 11, 77
3, 53160, Control_c, 0, 11, 82
3, 53220, Control_c, 0, 11, 87
3, 56160, Control_c, 0, 11, 84
3, 58080, Note_on_c, 0, 66, 0
3, 58080, Note_on_c, 0, 71, 0
3, 58080, Note_on_c, 0, 74, 0
3, 58080, Control_c, 0, 11, 21
3, 58080, Control_c, 0, 10, 64
3, 58080, Note_on_c, 0, 71, 127
3, 58080, Note_on_c, 0, 64, 127
3, 58140, Control_c, 0, 11, 27
3, 58200, Control_c, 0, 11, 30
3, 58260, Control_c, 0, 11, 34
3, 58320, Control_c, 0, 11, 38
3, 58380, Control_c, 0, 11, 39
3, 58440, Control_c, 0, 11, 41
3, 58500, Control_c, 0, 11, 45
3, 58560, Control_c, 0, 11, 48
3, 58620, Control_c, 0, 11, 52
3, 58680, Control_c, 0, 11, 54
3, 58740, Control_c, 0, 11, 56
3, 58800, Control_c, 0, 11, 59
3, 58860, Control_c, 0, 11, 63
3, 58920, Control_c, 0, 11, 66
3, 58980, Control_c, 0, 11, 68
3, 59040, Control_c, 0, 11, 72
3, 59100, Control_c, 0, 11, 74
3, 59160, Control_c, 0, 11, 77
3, 61920, Note_on_c, 0, 64, 0
3, 61920, Note_on_c, 0, 71, 0
3, 61920, Control_c, 0, 11, 22
3, 61920, Note_on_c, 0, 74, 127
3, 61920, Note_on_c, 0, 71, 127
3, 61920, Note_on_c, 0, 66, 127
3, 61980, Control_c, 0, 11, 28
3, 62040, Control_c, 0, 11, 32
3, 62100, Control_c, 0, 11, 36
3, 62160, Control_c, 0, 11, 40
3, 62220, Control_c, 0, 11, 45
3, 62280, Control_c, 0, 11, 49
3, 62340, Control_c, 0, 11, 52
3, 62400, Control_c, 0, 11, 58
3, 62460, Control_c, 0, 11, 62
3, 62520, Control_c, 0, 11, 67
3, 62580, Control_c, 0, 11, 71
3, 62640, Control_c, 0, 11, 73
3, 62700, Control_c, 0, 11, 77
3, 62760, Control_c, 0, 11, 82
3, 62820, Control_c, 0, 11, 87
3, 63840, Note_on_c, 0, 66, 0
3, 63840, Note_on_c, 0, 71, 0
3, 63840, Note_on_c, 0, 74, 0
3, 63840, Control_c, 0, 11, 43
3, 63840, Note_on_c, 0, 76, 127
3, 63840, Note_on_c, 0, 72, 127
3, 63840, Note_on_c, 0, 69, 127
3, 63840, Note_on_c, 0, 65, 127
3, 63900, Control_c, 0, 11, 47
3, 63960, Control_c, 0, 11, 51
3, 64020, Control_c, 0, 11, 59
3, 64080, Control_c, 0, 11, 66
3, 64140, Control_c, 0, 11, 68
3, 65760, Note_on_c, 0, 65, 0
3, 65760, Note_on_c, 0, 69, 0
3, 65760, Note_on_c, 0, 72, 0
3, 65760, Note_on_c, 0, 76, 0
3, 65760, Control_c, 0, 11, 31
3, 65760, Note_on_c, 0, 79, 127
3, 65760, Note_on_c, 0, 76, 127
3, 65760, Note_on_c, 0, 72, 127
3, 65760, Note_on_c, 0, 69, 127
3, 65820, Control_c, 0, 11, 36
3, 65880, Control_c, 0, 11, 39
3, 65940, Control_c, 0, 11, 43
3, 66000, Control_c, 0, 11, 47
3, 66060, Control_c, 0, 11, 50
3, 66120, Control_c, 0, 11, 55
3, 66180, Control_c, 0, 11, 57
3, 67680, Note_on_c, 0, 69, 0
3, 67680, Note_on_c, 0, 72, 0
3, 67680, Note_on_c, 0, 76, 0
3, 67680, Note_on_c, 0, 79, 0
3, 67680, Control_c, 0, 11, 37
3, 67680, Note_on_c, 0, 78, 127
3, 67680, Note_on_c, 0, 74, 127
3, 67680, Note_on_c, 0, 71, 127
3, 67680, Note_on_c, 0, 67, 127
3, 67740, Control_c, 0, 11, 41
3, 67800, Control_c, 0, 11, 44
3, 67860, Control_c, 0, 11, 48
3, 67920, Control_c, 0, 11, 51
3, 67980, Control_c, 0, 11, 54
3, 68040, Control_c, 0, 11, 57
3, 68100, Control_c, 0, 11, 60
3, 69600, Note_on_c, 0, 67, 0
3, 69600, Note_on_c, 0, 71, 0
3, 69600, Note_on_c, 0, 74, 0
3, 69600, Note_on_c, 0, 78, 0
3, 69600, Control_c, 0, 11, 39
3, 69600, Note_on_c, 0, 76, 127
3, 69600, Note_on_c, 0, 71, 127
3, 69600, Note_on_c, 0, 64, 127
3, 69660, Control_c, 0, 11, 43
3, 69720, Control_c, 0, 11, 47
3, 69780, Control_c, 0, 11, 51
3, 69840, Control_c, 0, 11, 54
3, 69900, Control_c, 0, 11, 58
3, 69960, Control_c, 0, 11, 61
3, 70020, Control_c, 0, 11, 63
3, 75360, Note_on_c, 0, 64, 0
3, 75360, Note_on_c, 0, 71, 0
3, 75360, Note_on_c, 0, 76, 0
3, 75360, Note_on_c, 0, 66, 127
3, 75360, Note_on_c, 0, 62, 127
3, 75360, Note_on_c, 0, 57, 127
3, 79320, Control_c, 0, 11, 60
3, 79380, Control_c, 0, 11, 56
3, 79500, Control_c, 0, 11, 55
3, 79560, Control_c, 0, 11, 52
3, 79620, Control_c, 0, 11, 50
3, 79680, Control_c, 0, 11, 46
3, 79800, Control_c, 0, 11, 41
3, 79920, Control_c, 0, 11, 37
3, 80100, Control_c, 0, 11, 34
3, 80160, Control_c, 0, 11, 29
3, 80220, Control_c, 0, 11, 27
3, 80340, Control_c, 0, 11, 21
3, 80400, Control_c, 0, 11, 16
3, 80520, Control_c, 0, 11, 11
3, 80580, Control_c, 0, 11, 10
3, 80640, Control_c, 0, 11, 8
3, 80700, Control_c, 0, 11, 3
3, 81120, Note_on_c, 0, 57, 0
3, 81120, Note_on_c, 0, 62, 0
3, 81120, Note_on_c, 0, 66, 0
3, 81120, End_track
4, 0, Start_track
4, 0, Title_t, "CH #2"
4, 0, Instrument_name_t, "Violin"
4, 240, Control_c, 1, 7, 110
4, 300, Control_c, 1, 10, 64
4, 360, Control_c, 1, 11, 100
4, 420, Program_c, 1, 40
4, 480, Text_t, "Start"
4, 480, Control_c, 1, 11, 21
4, 480, Control_c, 1, 10, 64
4, 480, Note_on_c, 1, 66, 127
4, 540, Control_c, 1, 11, 27
4, 600, Control_c, 1, 11, 30
4, 660, Control_c, 1, 11, 37
4, 720, Control_c, 1, 11, 41
4, 780, Control_c, 1, 11, 44
4, 840, Control_c, 1, 11, 47
4, 900, Control_c, 1, 11, 52
4, 960, Control_c, 1, 11, 55
4, 1020, Control_c, 1, 11, 58
4, 1080, Control_c, 1, 11, 63
4, 1140, Control_c, 1, 11, 68
4, 1200, Control_c, 1, 11, 73
4, 1260, Control_c, 1, 11, 76
4, 1320, Control_c, 1, 11, 83
4, 1380, Control_c, 1, 11, 89
4, 1440, Control_c, 1, 11, 92
4, 1500, Control_c, 1, 11, 97
4, 1560, Control_c, 1, 11, 102
4, 2400, Note_on_c, 1, 66, 0
4, 2400, Note_on_c, 1, 67, 127
4, 4320, Note_on_c, 1, 67, 0
4, 10080, Control_c, 1, 11, 21
4, 10080, Control_c, 1, 10, 64
4, 10080, Note_on_c, 1, 66, 127
4, 10140, Control_c, 1, 11, 27
4, 10200, Control_c, 1, 11, 30
4, 10260, Control_c, 1, 11, 37
4, 10320, Control_c, 1, 11, 41
4, 10380, Control_c, 1, 11, 44
4, 10440, Control_c, 1, 11, 47
4, 10500, Control_c, 1, 11, 52
4, 10560, Control_c, 1, 11, 55
4, 10620, Control_c, 1, 11, 58
4, 10680, Control_c, 1, 11, 63
4, 10740, Control_c, 1, 11, 68
4, 10800, Control_c, 1, 11, 73
4, 10860, Control_c, 1, 11, 76
4, 10920, Control_c, 1, 11, 83
4, 10980, Control_c, 1, 11, 89
4, 11040, Control_c, 1, 11, 92
4, 11100, Control_c, 1, 11, 97
4, 11160, Control_c, 1, 11, 102
4, 12000, Note_on_c, 1, 66, 0
4, 12000, Note_on_c, 1, 67, 127
4, 13920, Note_on_c, 1, 67, 0
4, 19680, Control_c, 1, 11, 21
4, 19680, Control_c, 1, 10, 64
4, 19680, Note_on_c, 1, 66, 127
4, 19740, Control_c, 1, 11, 27
4, 19800, Control_c, 1, 11, 30
4, 19860, Control_c, 1, 11, 37
4, 19920, Control_c, 1, 11, 41
4, 19980, Control_c, 1, 11, 44
4, 20040, Control_c, 1, 11, 47
4, 20100, Control_c, 1, 11, 52
4, 20160, Control_c, 1, 11, 55
4, 20220, Control_c, 1, 11, 58
4, 20280, Control_c, 1, 11, 63
4, 20340, Control_c, 1, 11, 68
4, 20400, Control_c, 1, 11, 73
4, 20460, Control_c, 1, 11, 76
4, 20520, Control_c, 1, 11, 83
4, 20580, Control_c, 1, 11, 89
4, 20640, Control_c, 1, 11, 92
4, 20700, Control_c, 1, 11, 97
4, 20760, Control_c, 1, 11, 102
4, 21600, Note_on_c, 1, 66, 0
4, 21600, Note_on_c, 1, 67, 127
4, 23520, Note_on_c, 1, 67, 0
4, 29280, Control_c, 1, 11, 21
4, 29280, Control_c, 1, 10, 64
4, 29280, Note_on_c, 1, 66, 127
4, 29340, Control_c, 1, 11, 27
4, 29400, Control_c, 1, 11, 30
4, 29460, Control_c, 1, 11, 37
4, 29520, Control_c, 1, 11, 41
4, 29580, Control_c, 1, 11, 44
4, 29640, Control_c, 1, 11, 47
4, 29700, Control_c, 1, 11, 52
4, 29760, Control_c, 1, 11, 55
4, 29820, Control_c, 1, 11, 58
4, 29880, Control_c, 1, 11, 63
4, 29940, Control_c, 1, 11, 68
4, 30000, Control_c, 1, 11, 73
4, 30060, Control_c, 1, 11, 76
4, 30120, Control_c, 1, 11, 83
4, 30180, Control_c, 1, 11, 89
4, 30240, Control_c, 1, 11, 92
4, 30300, Control_c, 1, 11, 97
4, 30360, Control_c, 1, 11, 102
4, 31200, Note_on_c, 1, 66, 0
4, 31200, Note_on_c, 1, 67, 127
4, 33120, Note_on_c, 1, 67, 0
4, 38880, Control_c, 1, 11, 21
4, 38880, Control_c, 1, 10, 64
4, 38880, Note_on_c, 1, 66, 127
4, 38940, Control_c, 1, 11, 27
4, 39000, Control_c, 1, 11, 30
4, 39060, Control_c, 1, 11, 37
4, 39120, Control_c, 1, 11, 41
4, 39180, Control_c, 1, 11, 44
4, 39240, Control_c, 1, 11, 47
4, 39300, Control_c, 1, 11, 52
4, 39360, Control_c, 1, 11, 55
4, 39420, Control_c, 1, 11, 58
4, 39480, Control_c, 1, 11, 63
4, 39540, Control_c, 1, 11, 68
4, 39600, Control_c, 1, 11, 73
4, 39660, Control_c, 1, 11, 76
4, 39720, Control_c, 1, 11, 83
4, 39780, Control_c, 1, 11, 89
4, 39840, Control_c, 1, 11, 92
4, 39900, Control_c, 1, 11, 97
4, 39960, Control_c, 1, 11, 102
4, 40800, Note_on_c, 1, 66, 0
4, 40800, Note_on_c, 1, 67, 127
4, 42720, Note_on_c, 1, 67, 0
4, 48480, Control_c, 1, 11, 21
4, 48480, Control_c, 1, 10, 64
4, 48480, Note_on_c, 1, 66, 127
4, 48540, Control_c, 1, 11, 27
4, 48600, Control_c, 1, 11, 30
4, 48660, Control_c, 1, 11, 37
4, 48720, Control_c, 1, 11, 41
4, 48780, Control_c, 1, 11, 44
4, 48840, Control_c, 1, 11, 47
4, 48900, Control_c, 1, 11, 52
4, 48960, Control_c, 1, 11, 55
4, 49020, Control_c, 1, 11, 58
4, 49080, Control_c, 1, 11, 63
4, 49140, Control_c, 1, 11, 68
4, 49200, Control_c, 1, 11, 73
4, 49260, Control_c, 1, 11, 76
4, 49320, Control_c, 1, 11, 83
4, 49380, Control_c, 1, 11, 89
4, 49440, Control_c, 1, 11, 92
4, 49500, Control_c, 1, 11, 97
4, 49560, Control_c, 1, 11, 102
4, 50400, Note_on_c, 1, 66, 0
4, 50400, Note_on_c, 1, 67, 127
4, 52320, Note_on_c, 1, 67, 0
4, 58080, Control_c, 1, 11, 21
4, 58080, Control_c, 1, 10, 64
4, 58080, Note_on_c, 1, 66, 127
4, 58140, Control_c, 1, 11, 27
4, 58200, Control_c, 1, 11, 30
4, 58260, Control_c, 1, 11, 37
4, 58320, Control_c, 1, 11, 41
4, 58380, Control_c, 1, 11, 44
4, 58440, Control_c, 1, 11, 47
4, 58500, Control_c, 1, 11, 52
4, 58560, Control_c, 1, 11, 55
4, 58620, Control_c, 1, 11, 58
4, 58680, Control_c, 1, 11, 63
4, 58740, Control_c, 1, 11, 68
4, 58800, Control_c, 1, 11, 73
4, 58860, Control_c, 1, 11, 76
4, 58920, Control_c, 1, 11, 83
4, 58980, Control_c, 1, 11, 89
4, 59040, Control_c, 1, 11, 92
4, 59100, Control_c, 1, 11, 97
4, 59160, Control_c, 1, 11, 102
4, 60000, Note_on_c, 1, 66, 0
4, 60000, Note_on_c, 1, 67, 127
4, 61920, Note_on_c, 1, 67, 0
4, 61920, End_track
5, 0, Start_track
5, 0, Title_t, "CH #3"
5, 0, Instrument_name_t, "Soprano Sax"
5, 240, Control_c, 2, 7, 102
5, 300, Control_c, 2, 10, 64
5, 360, Control_c, 2, 11, 100
5, 420, Program_c, 2, 64
5, 480, Text_t, "Start"
5, 480, Control_c, 2, 11, 21
5, 480, Control_c, 2, 10, 64
5, 540, Control_c, 2, 11, 27
5, 600, Control_c, 2, 11, 30
5, 660, Control_c, 2, 11, 37
5, 720, Control_c, 2, 11, 41
5, 780, Control_c, 2, 11, 44
5, 840, Control_c, 2, 11, 47
5, 900, Control_c, 2, 11, 52
5, 960, Control_c, 2, 11, 55
5, 1020, Control_c, 2, 11, 58
5, 1080, Control_c, 2, 11, 63
5, 1140, Control_c, 2, 11, 68
5, 1200, Control_c, 2, 11, 73
5, 1260, Control_c, 2, 11, 76
5, 1320, Control_c, 2, 11, 83
5, 1380, Control_c, 2, 11, 89
5, 1440, Control_c, 2, 11, 92
5, 1500, Control_c, 2, 11, 97
5, 1560, Control_c, 2, 11, 102
5, 8160, Control_c, 2, 11, 17
5, 8160, Note_on_c, 2, 57, 127
5, 8220, Control_c, 2, 11, 21
5, 8280, Control_c, 2, 11, 23
5, 8340, Control_c, 2, 11, 26
5, 8400, Control_c, 2, 11, 30
5, 8460, Control_c, 2, 11, 34
5, 8520, Control_c, 2, 11, 37
5, 8580, Control_c, 2, 11, 42
5, 8640, Control_c, 2, 11, 47
5, 8700, Control_c, 2, 11, 52
5, 8760, Control_c, 2, 11, 56
5, 8820, Control_c, 2, 11, 61
5, 8880, Control_c, 2, 11, 66
5, 8940, Control_c, 2, 11, 70
5, 9000, Control_c, 2, 11, 74
5, 10080, Note_on_c, 2, 57, 0
5, 17760, Control_c, 2, 11, 17
5, 17760, Note_on_c, 2, 57, 127
5, 17820, Control_c, 2, 11, 21
5, 17880, Control_c, 2, 11, 23
5, 17940, Control_c, 2, 11, 26
5, 18000, Control_c, 2, 11, 30
5, 18060, Control_c, 2, 11, 34
5, 18120, Control_c, 2, 11, 37
5, 18180, Control_c, 2, 11, 42
5, 18240, Control_c, 2, 11, 47
5, 18300, Control_c, 2, 11, 52
5, 18360, Control_c, 2, 11, 56
5, 18420, Control_c, 2, 11, 61
5, 18480, Control_c, 2, 11, 66
5, 18540, Control_c, 2, 11, 70
5, 18600, Control_c, 2, 11, 74
5, 19680, Note_on_c, 2, 57, 0
5, 27360, Control_c, 2, 11, 17
5, 27360, Note_on_c, 2, 57, 127
5, 27420, Control_c, 2, 11, 21
5, 27480, Control_c, 2, 11, 23
5, 27540, Control_c, 2, 11, 26
5, 27600, Control_c, 2, 11, 30
5, 27660, Control_c, 2, 11, 34
5, 27720, Control_c, 2, 11, 37
5, 27780, Control_c, 2, 11, 42
5, 27840, Control_c, 2, 11, 47
5, 27900, Control_c, 2, 11, 52
5, 27960, Control_c, 2, 11, 56
5, 28020, Control_c, 2, 11, 61
5, 28080, Control_c, 2, 11, 66
5, 28140, Control_c, 2, 11, 70
5, 28200, Control_c, 2, 11, 74
5, 29280, Note_on_c, 2, 57, 0
5, 36960, Control_c, 2, 11, 57
5, 36960, Note_on_c, 2, 57, 127
5, 37020, Control_c, 2, 11, 64
5, 37080, Control_c, 2, 11, 68
5, 37140, Control_c, 2, 11, 72
5, 37200, Control_c, 2, 11, 77
5, 37260, Control_c, 2, 11, 81
5, 37320, Control_c, 2, 11, 85
5, 37380, Control_c, 2, 11, 90
5, 37440, Control_c, 2, 11, 94
5, 37500, Control_c, 2, 11, 96
5, 37560, Control_c, 2, 11, 100
5, 37620, Control_c, 2, 11, 104
5, 37680, Control_c, 2, 11, 106
5, 37740, Control_c, 2, 11, 110
5, 37800, Control_c, 2, 11, 114
5, 38160, Note_on_c, 2, 57, 0
5, 38400, Control_c, 2, 11, 119
5, 38400, Note_on_c, 2, 55, 127
5, 38520, Note_on_c, 2, 55, 0
5, 38520, Control_c, 2, 11, 90
5, 38520, Note_on_c, 2, 54, 127
5, 38640, Note_on_c, 2, 54, 0
5, 38880, Control_c, 2, 11, 85
5, 38880, Note_on_c, 2, 52, 127
5, 38940, Control_c, 2, 11, 62
5, 39000, Control_c, 2, 11, 51
5, 39060, Control_c, 2, 11, 48
5, 39120, Control_c, 2, 11, 41
5, 39180, Control_c, 2, 11, 38
5, 39240, Control_c, 2, 11, 36
5, 39360, Control_c, 2, 11, 39
5, 39480, Control_c, 2, 11, 42
5, 39540, Control_c, 2, 11, 47
5, 39600, Control_c, 2, 11, 51
5, 39660, Control_c, 2, 11, 55
5, 39720, Control_c, 2, 11, 60
5, 39780, Control_c, 2, 11, 66
5, 39840, Control_c, 2, 11, 72
5, 39900, Control_c, 2, 11, 76
5, 39960, Control_c, 2, 11, 80
5, 40020, Control_c, 2, 11, 85
5, 40080, Control_c, 2, 11, 89
5, 40140, Control_c, 2, 11, 94
5, 40200, Control_c, 2, 11, 98
5, 40260, Control_c, 2, 11, 101
5, 40320, Control_c, 2, 11, 103
5, 40380, Control_c, 2, 11, 104
5, 40440, Control_c, 2, 11, 107
5, 40500, Control_c, 2, 11, 110
5, 40560, Note_on_c, 2, 52, 0
5, 40560, Control_c, 2, 11, 123
5, 40560, Note_on_c, 2, 59, 127
5, 40680, Note_on_c, 2, 59, 0
5, 40680, Control_c, 2, 11, 98
5, 40680, Note_on_c, 2, 57, 127
5, 40800, Note_on_c, 2, 57, 0
5, 40800, Control_c, 2, 11, 100
5, 40800, Note_on_c, 2, 59, 127
5, 40920, Note_on_c, 2, 59, 0
5, 40920, Note_on_c, 2, 60, 127
5, 41040, Note_on_c, 2, 60, 0
5, 41040, Control_c, 2, 11, 108
5, 41040, Note_on_c, 2, 62, 127
5, 41100, Control_c, 2, 11, 87
5, 41160, Control_c, 2, 11, 68
5, 41220, Control_c, 2, 11, 71
5, 41280, Control_c, 2, 11, 77
5, 41340, Control_c, 2, 11, 81
5, 41400, Control_c, 2, 11, 85
5, 41460, Control_c, 2, 11, 91
5, 41520, Note_on_c, 2, 62, 0
5, 41520, Control_c, 2, 11, 109
5, 41520, Note_on_c, 2, 60, 127
5, 41580, Control_c, 2, 11, 94
5, 41640, Control_c, 2, 11, 88
5, 41700, Control_c, 2, 11, 83
5, 41760, Note_on_c, 2, 60, 0
5, 41760, Control_c, 2, 11, 104
5, 41760, Note_on_c, 2, 59, 127
5, 41880, Note_on_c, 2, 59, 0
5, 41880, Control_c, 2, 11, 72
5, 41880, Note_on_c, 2, 60, 127
5, 42000, Note_on_c, 2, 60, 0
5, 42000, Control_c, 2, 11, 105
5, 42000, Note_on_c, 2, 59, 127
5, 42120, Note_on_c, 2, 59, 0
5, 42120, Control_c, 2, 11, 83
5, 42120, Note_on_c, 2, 57, 127
5, 42240, Note_on_c, 2, 57, 0
5, 42240, Control_c, 2, 11, 104
5, 42240, Note_on_c, 2, 59, 127
5, 42300, Control_c, 2, 11, 88
5, 42360, Control_c, 2, 11, 75
5, 42420, Control_c, 2, 11, 62
5, 42480, Control_c, 2, 11, 65
5, 42540, Control_c, 2, 11, 68
5, 42600, Control_c, 2, 11, 74
5, 42660, Control_c, 2, 11, 79
5, 42720, Note_on_c, 2, 59, 0
5, 42720, Control_c, 2, 11, 91
5, 42720, Note_on_c, 2, 57, 127
5, 42840, Note_on_c, 2, 57, 0
5, 42840, Control_c, 2, 11, 98
5, 42840, Note_on_c, 2, 59, 127
5, 42900, Control_c, 2, 11, 87
5, 42960, Control_c, 2, 11, 70
5, 43020, Control_c, 2, 11, 68
5, 43080, Control_c, 2, 11, 71
5, 43140, Control_c, 2, 11, 75
5, 43200, Control_c, 2, 11, 82
5, 43260, Control_c, 2, 11, 87
5, 43320, Control_c, 2, 11, 91
5, 43380, Control_c, 2, 11, 94
5, 43440, Control_c, 2, 11, 92
5, 43500, Control_c, 2, 11, 89
5, 43560, Control_c, 2, 11, 86
5, 43620, Control_c, 2, 11, 85
5, 43680, Control_c, 2, 11, 84
5, 43740, Control_c, 2, 11, 82
5, 43800, Control_c, 2, 11, 78
5, 43860, Control_c, 2, 11, 74
5, 43920, Control_c, 2, 11, 71
5, 43980, Control_c, 2, 11, 69
5, 44040, Control_c, 2, 11, 65
5, 44100, Control_c, 2, 11, 61
5, 44160, Control_c, 2, 11, 59
5, 44220, Control_c, 2, 11, 56
5, 44280, Control_c, 2, 11, 53
5, 44340, Control_c, 2, 11, 51
5, 44400, Control_c, 2, 11, 49
5, 44460, Control_c, 2, 11, 46
5, 44520, Control_c, 2, 11, 44
5, 44580, Control_c, 2, 11, 40
5, 44640, Note_on_c, 2, 59, 0
5, 50400, Control_c, 2, 11, 52
5, 50400, Note_on_c, 2, 57, 127
5, 52320, Note_on_c, 2, 57, 0
5, 52320, Control_c, 2, 11, 85
5, 52320, Note_on_c, 2, 59, 127
5, 52560, Note_on_c, 2, 59, 0
5, 52560, Control_c, 2, 11, 65
5, 52560, Note_on_c, 2, 57, 127
5, 56160, Note_on_c, 2, 57, 0
5, 56160, Note_on_c, 2, 59, 127
5, 56280, Note_on_c, 2, 59, 0
5, 56280, Control_c, 2, 11, 64
5, 56280, Note_on_c, 2, 57, 127
5, 58080, Note_on_c, 2, 57, 0
5, 58080, End_track
6, 0, Start_track
6, 0, Title_t, "CH #4"
6, 0, Instrument_name_t, "Slow Str."
6, 240, Control_c, 3, 7, 110
6, 300, Control_c, 3, 10, 64
6, 360, Control_c, 3, 11, 100
6, 420, Program_c, 3, 49
6, 480, Text_t, "Start"
6, 480, Control_c, 3, 11, 21
6, 480, Control_c, 3, 10, 64
6, 540, Control_c, 3, 11, 27
6, 600, Control_c, 3, 11, 30
6, 660, Control_c, 3, 11, 37
6, 720, Control_c, 3, 11, 41
6, 780, Control_c, 3, 11, 44
6, 840, Control_c, 3, 11, 47
6, 900, Control_c, 3, 11, 52
6, 960, Control_c, 3, 11, 55
6, 1020, Control_c, 3, 11, 58
6, 1080, Control_c, 3, 11, 63
6, 1140, Control_c, 3, 11, 68
6, 1200, Control_c, 3, 11, 73
6, 1260, Control_c, 3, 11, 76
6, 1320, Control_c, 3, 11, 83
6, 1380, Control_c, 3, 11, 89
6, 1440, Control_c, 3, 11, 92
6, 1500, Control_c, 3, 11, 97
6, 1560, Control_c, 3, 11, 102
6, 19680, Note_on_c, 3, 64, 127
6, 20880, Note_on_c, 3, 64, 0
6, 20880, Note_on_c, 3, 62, 127
6, 21600, Note_on_c, 3, 62, 0
6, 21600, Note_on_c, 3, 64, 127
6, 25440, Note_on_c, 3, 64, 0
6, 25440, Note_on_c, 3, 59, 127
6, 27360, Note_on_c, 3, 59, 0
6, 29280, Note_on_c, 3, 64, 127
6, 31680, Note_on_c, 3, 64, 0
6, 33120, Note_on_c, 3, 64, 127
6, 36960, Note_on_c, 3, 64, 0
6, 36960, End_track
7, 0, Start_track
7, 0, Title_t, "CH #5"
7, 0, Instrument_name_t, "Slow Str."
7, 240, Control_c, 4, 7, 110
7, 300, Control_c, 4, 10, 64
7, 360, Control_c, 4, 11, 100
7, 420, Program_c, 4, 49
7, 480, Text_t, "Start"
7, 480, Control_c, 4, 11, 21
7, 480, Control_c, 4, 10, 64
7, 540, Control_c, 4, 11, 27
7, 600, Control_c, 4, 11, 30
7, 660, Control_c, 4, 11, 37
7, 720, Control_c, 4, 11, 41
7, 780, Control_c, 4, 11, 44
7, 840, Control_c, 4, 11, 47
7, 900, Control_c, 4, 11, 52
7, 960, Control_c, 4, 11, 55
7, 1020, Control_c, 4, 11, 58
7, 1080, Control_c, 4, 11, 63
7, 1140, Control_c, 4, 11, 68
7, 1200, Control_c, 4, 11, 73
7, 1260, Control_c, 4, 11, 76
7, 1320, Control_c, 4, 11, 83
7, 1380, Control_c, 4, 11, 89
7, 1440, Control_c, 4, 11, 92
7, 1500, Control_c, 4, 11, 97
7, 1560, Control_c, 4, 11, 102
7, 22080, Note_on_c, 4, 67, 127
7, 25440, Note_on_c, 4, 67, 0
7, 25440, End_track
8, 0, Start_track
8, 0, Title_t, "CH #6"
8, 0, Instrument_name_t, "Clarinet"
8, 240, Control_c, 5, 7, 120
8, 300, Control_c, 5, 10, 64
8, 360, Control_c, 5, 11, 100
8, 420, Program_c, 5, 71
8, 480, Text_t, "Start"
8, 480, Control_c, 5, 11, 21
8, 480, Control_c, 5, 10, 64
8, 540, Control_c, 5, 11, 27
8, 600, Control_c, 5, 11, 30
8, 660, Control_c, 5, 11, 37
8, 720, Control_c, 5, 11, 41
8, 780, Control_c, 5, 11, 44
8, 840, Control_c, 5, 11, 47
8, 900, Control_c, 5, 11, 52
8, 960, Control_c, 5, 11, 55
8, 1020, Control_c, 5, 11, 58
8, 1080, Control_c, 5, 11, 63
8, 1140, Control_c, 5, 11, 68
8, 1200, Control_c, 5, 11, 73
8, 1260, Control_c, 5, 11, 76
8, 1320, Control_c, 5, 11, 83
8, 1380, Control_c, 5, 11, 89
8, 1440, Control_c, 5, 11, 92
8, 1500, Control_c, 5, 11, 97
8, 1560, Control_c, 5, 11, 102
8, 71520, Note_on_c, 5, 57, 127
8, 71760, Note_on_c, 5, 57, 0
8, 71760, Note_on_c, 5, 62, 127
8, 72000, Note_on_c, 5, 62, 0
8, 72000, Note_on_c, 5, 64, 127
8, 72960, Note_on_c, 5, 64, 0
8, 72960, Note_on_c, 5, 66, 127
8, 73440, Note_on_c, 5, 66, 0
8, 73440, Note_on_c, 5, 67, 127
8, 73920, Note_on_c, 5, 67, 0
8, 73920, Note_on_c, 5, 69, 127
8, 74880, Note_on_c, 5, 69, 0
8, 74880, Note_on_c, 5, 71, 127
8, 75360, Note_on_c, 5, 71, 0
8, 75360, Note_on_c, 5, 66, 127
8, 77280, Note_on_c, 5, 66, 0
8, 77280, Note_on_c, 5, 67, 127
8, 78240, Note_on_c, 5, 67, 0
8, 78240, Note_on_c, 5, 66, 127
8, 78480, Note_on_c, 5, 66, 0
8, 78480, Note_on_c, 5, 64, 127
8, 78720, Note_on_c, 5, 64, 0
8, 78720, Note_on_c, 5, 62, 127
8, 79200, Control_c, 5, 11, 97
8, 79320, Control_c, 5, 11, 93
8, 79380, Control_c, 5, 11, 90
8, 79440, Control_c, 5, 11, 89
8, 79500, Control_c, 5, 11, 84
8, 79560, Control_c, 5, 11, 83
8, 79620, Control_c, 5, 11, 80
8, 79680, Control_c, 5, 11, 77
8, 79740, Control_c, 5, 11, 74
8, 79800, Control_c, 5, 11, 67
8, 79860, Control_c, 5, 11, 64
8, 79980, Control_c, 5, 11, 56
8, 80040, Control_c, 5, 11, 55
8, 80100, Control_c, 5, 11, 50
8, 80220, Control_c, 5, 11, 44
8, 80280, Control_c, 5, 11, 41
8, 80340, Control_c, 5, 11, 40
8, 80460, Control_c, 5, 11, 34
8, 80580, Control_c, 5, 11, 27
8, 80640, Control_c, 5, 11, 20
8, 80700, Control_c, 5, 11, 16
8, 80760, Control_c, 5, 11, 11
8, 80820, Control_c, 5, 11, 9
8, 80880, Control_c, 5, 11, 4
8, 80940, Control_c, 5, 11, 3
8, 81000, Control_c, 5, 11, 2
8, 81120, Note_on_c, 5, 62, 0
8, 81120, End_track
9, 0, Start_track
9, 0, Title_t, "CH #7"
9, 0, Instrument_name_t, "Piano1"
9, 240, Control_c, 6, 7, 100
9, 300, Control_c, 6, 10, 64
9, 360, Control_c, 6, 11, 100
9, 420, Program_c, 6, 0
9, 480, Text_t, "Start"
9, 480, Control_c, 6, 11, 21
9, 480, Control_c, 6, 10, 64
9, 540, Control_c, 6, 11, 27
9, 600, Control_c, 6, 11, 30
9, 660, Control_c, 6, 11, 37
9, 720, Control_c, 6, 11, 41
9, 780, Control_c, 6, 11, 44
9, 840, Control_c, 6, 11, 47
9, 900, Control_c, 6, 11, 52
9, 960, Control_c, 6, 11, 55
9, 1020, Control_c, 6, 11, 58
9, 1080, Control_c, 6, 11, 63
9, 1140, Control_c, 6, 11, 68
9, 1200, Control_c, 6, 11, 73
9, 1260, Control_c, 6, 11, 76
9, 1320, Control_c, 6, 11, 83
9, 1380, Control_c, 6, 11, 89
9, 1440, Control_c, 6, 11, 92
9, 1500, Control_c, 6, 11, 97
9, 1560, Control_c, 6, 11, 102
9, 1560, End_track
10, 0, Start_track
10, 0, Title_t, "CH #8"
10, 0, Instrument_name_t, "Piano1"
10, 240, Control_c, 7, 7, 100
10, 300, Control_c, 7, 10, 64
10, 360, Control_c, 7, 11, 100
10, 420, Program_c, 7, 0
10, 480, Text_t, "Start"
10, 480, Control_c, 7, 11, 21
10, 480, Control_c, 7, 10, 64
10, 540, Control_c, 7, 11, 27
10, 600, Control_c, 7, 11, 30
10, 660, Control_c, 7, 11, 37
10, 720, Control_c, 7, 11, 41
10, 780, Control_c, 7, 11, 44
10, 840, Control_c, 7, 11, 47
10, 900, Control_c, 7, 11, 52
10, 960, Control_c, 7, 11, 55
10, 1020, Control_c, 7, 11, 58
10, 1080, Control_c, 7, 11, 63
10, 1140, Control_c, 7, 11, 68
10, 1200, Control_c, 7, 11, 73
10, 1260, Control_c, 7, 11, 76
10, 1320, Control_c, 7, 11, 83
10, 1380, Control_c, 7, 11, 89
10, 1440, Control_c, 7, 11, 92
10, 1500, Control_c, 7, 11, 97
10, 1560, Control_c, 7, 11, 102
10, 1560, End_track
11, 0, Start_track
11, 0, Title_t, "CH #9"
11, 0, Instrument_name_t, "Piano1"
11, 240, Control_c, 8, 7, 100
11, 300, Control_c, 8, 10, 64
11, 360, Control_c, 8, 11, 100
11, 420, Program_c, 8, 0
11, 480, Text_t, "Start"
11, 480, Control_c, 8, 11, 21
11, 480, Control_c, 8, 10, 64
11, 540, Control_c, 8, 11, 27
11, 600, Control_c, 8, 11, 30
11, 660, Control_c, 8, 11, 37
11, 720, Control_c, 8, 11, 41
11, 780, Control_c, 8, 11, 44
11, 840, Control_c, 8, 11, 47
11, 900, Control_c, 8, 11, 52
11, 960, Control_c, 8, 11, 55
11, 1020, Control_c, 8, 11, 58
11, 1080, Control_c, 8, 11, 63
11, 1140, Control_c, 8, 11, 68
11, 1200, Control_c, 8, 11, 73
11, 1260, Control_c, 8, 11, 76
11, 1320, Control_c, 8, 11, 83
11, 1380, Control_c, 8, 11, 89
11, 1440, Control_c, 8, 11, 92
11, 1500, Control_c, 8, 11, 97
11, 1560, Control_c, 8, 11, 102
11, 1560, End_track
12, 0, Start_track
12, 0, Title_t, "CH #10"
12, 0, Instrument_name_t, "Piano1"
12, 240, Control_c, 9, 7, 100
12, 300, Control_c, 9, 10, 64
12, 360, Control_c, 9, 11, 100
12, 420, Program_c, 9, 0
12, 480, Text_t, "Start"
12, 480, Control_c, 9, 11, 21
12, 480, Control_c, 9, 10, 64
12, 540, Control_c, 9, 11, 27
12, 600, Control_c, 9, 11, 30
12, 660, Control_c, 9, 11, 37
12, 720, Control_c, 9, 11, 41
12, 780, Control_c, 9, 11, 44
12, 840, Control_c, 9, 11, 47
12, 900, Control_c, 9, 11, 52
12, 960, Control_c, 9, 11, 55
12, 1020, Control_c, 9, 11, 58
12, 1080, Control_c, 9, 11, 63
12, 1140, Control_c, 9, 11, 68
12, 1200, Control_c, 9, 11, 73
12, 1260, Control_c, 9, 11, 76
12, 1320, Control_c, 9, 11, 83
12, 1380, Control_c, 9, 11, 89
12, 1440, Control_c, 9, 11, 92
12, 1500, Control_c, 9, 11, 97
12, 1560, Control_c, 9, 11, 102
12, 1560, End_track
13, 0, Start_track
13, 0, Title_t, "CH #11"
13, 0, Instrument_name_t, "Piano1"
13, 240, Control_c, 10, 7, 100
13, 300, Control_c, 10, 10, 64
13, 360, Control_c, 10, 11, 100
13, 420, Program_c, 10, 0
13, 480, Text_t, "Start"
13, 480, Control_c, 10, 11, 21
13, 480, Control_c, 10, 10, 64
13, 540, Control_c, 10, 11, 27
13, 600, Control_c, 10, 11, 30
13, 660, Control_c, 10, 11, 37
13, 720, Control_c, 10, 11, 41
13, 780, Control_c, 10, 11, 44
13, 840, Control_c, 10, 11, 47
13, 900, Control_c, 10, 11, 52
13, 960, Control_c, 10, 11, 55
13, 1020, Control_c, 10, 11, 58
13, 1080, Control_c, 10, 11, 63
13, 1140, Control_c, 10, 11, 68
13, 1200, Control_c, 10, 11, 73
13, 1260, Control_c, 10, 11, 76
13, 1320, Control_c, 10, 11, 83
13, 1380, Control_c, 10, 11, 89
13, 1440, Control_c, 10, 11, 92
13, 1500, Control_c, 10, 11, 97
13, 1560, Control_c, 10, 11, 102
13, 1560, End_track
14, 0, Start_track
14, 0, Title_t, "CH #12"
14, 0, Instrument_name_t, "Piano1"
14, 240, Control_c, 11, 7, 100
14, 300, Control_c, 11, 10, 64
14, 360, Control_c, 11, 11, 100
14, 420, Program_c, 11, 0
14, 480, Text_t, "Start"
14, 480, Control_c, 11, 11, 21
14, 480, Control_c, 11, 10, 64
14, 540, Control_c, 11, 11, 27
14, 600, Control_c, 11, 11, 30
14, 660, Control_c, 11, 11, 37
14, 720, Control_c, 11, 11, 41
14, 780, Control_c, 11, 11, 44
14, 840, Control_c, 11, 11, 47
14, 900, Control_c, 11, 11, 52
14, 960, Control_c, 11, 11, 55
14, 1020, Control_c, 11, 11, 58
14, 1080, Control_c, 11, 11, 63
14, 1140, Control_c, 11, 11, 68
14, 1200, Control_c, 11, 11, 73
14, 1260, Control_c, 11, 11, 76
14, 1320, Control_c, 11, 11, 83
14, 1380, Control_c, 11, 11, 89
14, 1440, Control_c, 11, 11, 92
14, 1500, Control_c, 11, 11, 97
14, 1560, Control_c, 11, 11, 102
14, 1560, End_track
15, 0, Start_track
15, 0, Title_t, "CH #13"
15, 0, Instrument_name_t, "Piano1"
15, 240, Control_c, 12, 7, 100
15, 300, Control_c, 12, 10, 64
15, 360, Control_c, 12, 11, 100
15, 420, Program_c, 12, 0
15, 480, Text_t, "Start"
15, 480, Control_c, 12, 11, 21
15, 480, Control_c, 12, 10, 64
15, 540, Control_c, 12, 11, 27
15, 600, Control_c, 12, 11, 30
15, 660, Control_c, 12, 11, 37
15, 720, Control_c, 12, 11, 41
15, 780, Control_c, 12, 11, 44
15, 840, Control_c, 12, 11, 47
15, 900, Control_c, 12, 11, 52
15, 960, Control_c, 12, 11, 55
15, 1020, Control_c, 12, 11, 58
15, 1080, Control_c, 12, 11, 63
15, 1140, Control_c, 12, 11, 68
15, 1200, Control_c, 12, 11, 73
15, 1260, Control_c, 12, 11, 76
15, 1320, Control_c, 12, 11, 83
15, 1380, Control_c, 12, 11, 89
15, 1440, Control_c, 12, 11, 92
15, 1500, Control_c, 12, 11, 97
15, 1560, Control_c, 12, 11, 102
15, 1560, End_track
16, 0, Start_track
16, 0, Title_t, "CH #14"
16, 0, Instrument_name_t, "Piano1"
16, 240, Control_c, 13, 7, 100
16, 300, Control_c, 13, 10, 64
16, 360, Control_c, 13, 11, 100
16, 420, Program_c, 13, 0
16, 480, Text_t, "Start"
16, 480, Control_c, 13, 11, 21
16, 480, Control_c, 13, 10, 64
16, 540, Control_c, 13, 11, 27
16, 600, Control_c, 13, 11, 30
16, 660, Control_c, 13, 11, 37
16, 720, Control_c, 13, 11, 41
16, 780, Control_c, 13, 11, 44
16, 840, Control_c, 13, 11, 47
16, 900, Control_c, 13, 11, 52
16, 960, Control_c, 13, 11, 55
16, 1020, Control_c, 13, 11, 58
16, 1080, Control_c, 13, 11, 63
16, 1140, Control_c, 13, 11, 68
16, 1200, Control_c, 13, 11, 73
16, 1260, Control_c, 13, 11, 76
16, 1320, Control_c, 13, 11, 83
16, 1380, Control_c, 13, 11, 89
16, 1440, Control_c, 13, 11, 92
16, 1500, Control_c, 13, 11, 97
16, 1560, Control_c, 13, 11, 102
16, 1560, End_track
17, 0, Start_track
17, 0, Title_t, "CH #15"
17, 0, Instrument_name_t, "Piano1"
17, 240, Control_c, 14, 7, 100
17, 300, Control_c, 14, 10, 64
17, 360, Control_c, 14, 11, 100
17, 420, Program_c, 14, 0
17, 480, Text_t, "Start"
17, 480, Control_c, 14, 11, 21
17, 480, Control_c, 14, 10, 64
17, 540, Control_c, 14, 11, 27
17, 600, Control_c, 14, 11, 30
17, 660, Control_c, 14, 11, 37
17, 720, Control_c, 14, 11, 41
17, 780, Control_c, 14, 11, 44
17, 840, Control_c, 14, 11, 47
17, 900, Control_c, 14, 11, 52
17, 960, Control_c, 14, 11, 55
17, 1020, Control_c, 14, 11, 58
17, 1080, Control_c, 14, 11, 63
17, 1140, Control_c, 14, 11, 68
17, 1200, Control_c, 14, 11, 73
17, 1260, Control_c, 14, 11, 76
17, 1320, Control_c, 14, 11, 83
17, 1380, Control_c, 14, 11, 89
17, 1440, Control_c, 14, 11, 92
17, 1500, Control_c, 14, 11, 97
17, 1560, Control_c, 14, 11, 102
17, 1560, End_track
18, 0, Start_track
18, 0, Title_t, "CH #16"
18, 0, Instrument_name_t, "Piano1"
18, 240, Control_c, 15, 7, 100
18, 300, Control_c, 15, 10, 64
18, 360, Control_c, 15, 11, 100
18, 420, Program_c, 15, 0
18, 480, Text_t, "Start"
18, 480, Control_c, 15, 11, 21
18, 480, Control_c, 15, 10, 64
18, 540, Control_c, 15, 11, 27
18, 600, Control_c, 15, 11, 30
18, 660, Control_c, 15, 11, 37
18, 720, Control_c, 15, 11, 41
18, 780, Control_c, 15, 11, 44
18, 840, Control_c, 15, 11, 47
18, 900, Control_c, 15, 11, 52
18, 960, Control_c, 15, 11, 55
18, 1020, Control_c, 15, 11, 58
18, 1080, Control_c, 15, 11, 63
18, 1140, Control_c, 15, 11, 68
18, 1200, Control_c, 15, 11, 73
18, 1260, Control_c, 15, 11, 76
18, 1320, Control_c, 15, 11, 83
18, 1380, Control_c, 15, 11, 89
18, 1440, Control_c, 15, 11, 92
18, 1500, Control_c, 15, 11, 97
18, 1560, Control_c, 15, 11, 102
18, 1560, End_track
0, 0, End_of_file
