0, 0, Header, 0, 1, 480
1, 0, Start_track
1, 0, SMPTE_offset, 96, 0, 0, 0, 0
1, 0, Time_signature, 4, 2, 24, 8
1, 0, Key_signature, 0, "major"
1, 0, Tempo, 857142
1, 0, System_exclusive, 10, 65, 16, 66, 18, 0, 0, 127, 0, 1, 247
1, 120, System_exclusive, 10, 65, 16, 66, 18, 64, 0, 4, 127, 61, 247
1, 240, System_exclusive, 10, 65, 16, 66, 18, 64, 1, 51, 127, 13, 247
1, 360, System_exclusive, 10, 65, 16, 66, 18, 64, 1, 58, 70, 63, 247
1, 720, System_exclusive, 10, 65, 16, 66, 18, 64, 1, 52, 80, 59, 247
1, 840, System_exclusive, 10, 65, 16, 66, 18, 64, 1, 49, 1, 13, 247
1, 960, Control_c, 0, 99, 1
1, 1079, Control_c, 0, 99, 1
1, 1080, System_exclusive, 10, 65, 16, 66, 18, 64, 26, 21, 1, 16, 247
1, 1080, Control_c, 0, 98, 32
1, 1080, Control_c, 0, 1, 0
1, 1080, Control_c, 0, 6, 66
1, 1199, Control_c, 0, 98, 32
1, 1199, Control_c, 0, 1, 0
1, 1199, Control_c, 0, 6, 66
1, 1680, Control_c, 1, 7, 96
1, 1680, Control_c, 1, 93, 30
1, 1680, Control_c, 1, 91, 82
1, 1680, Control_c, 1, 10, 82
1, 1680, Control_c, 2, 11, 126
1, 1680, Control_c, 2, 10, 92
1, 1680, Control_c, 2, 7, 80
1, 1680, Control_c, 2, 91, 84
1, 1680, Control_c, 3, 10, 34
1, 1680, Control_c, 3, 93, 12
1, 1680, Control_c, 3, 7, 110
1, 1680, Control_c, 3, 91, 72
1, 1680, Control_c, 4, 93, 30
1, 1680, Control_c, 4, 91, 82
1, 1680, Control_c, 4, 7, 88
1, 1680, Control_c, 4, 10, 96
1, 1680, Control_c, 5, 11, 126
1, 1680, Control_c, 5, 93, 127
1, 1680, Control_c, 5, 91, 127
1, 1680, Control_c, 5, 7, 46
1, 1680, Control_c, 6, 91, 30
1, 1680, Control_c, 6, 7, 110
1, 1680, Control_c, 7, 11, 126
1, 1680, Control_c, 7, 10, 92
1, 1680, Control_c, 7, 7, 74
1, 1680, Control_c, 7, 91, 92
1, 1680, Control_c, 8, 11, 127
1, 1680, Control_c, 8, 93, 127
1, 1680, Control_c, 8, 91, 127
1, 1680, Control_c, 8, 7, 54
1, 1680, Control_c, 9, 7, 88
1, 1680, Control_c, 9, 91, 127
1, 1680, Control_c, 11, 10, 110
1, 1680, Control_c, 11, 91, 127
1, 1680, Control_c, 11, 7, 76
1, 1680, Control_c, 0, 10, 50
1, 1680, Control_c, 0, 91, 82
1, 1680, Control_c, 0, 7, 106
1, 1680, Control_c, 0, 93, 48
1, 1799, Control_c, 1, 10, 82
1, 1799, Control_c, 2, 10, 92
1, 1799, Control_c, 2, 7, 80
1, 1799, Control_c, 2, 91, 84
1, 1799, Control_c, 3, 93, 12
1, 1799, Control_c, 3, 7, 110
1, 1799, Control_c, 3, 91, 72
1, 1799, Control_c, 4, 7, 88
1, 1799, Control_c, 4, 10, 96
1, 1799, Control_c, 5, 7, 46
1, 1799, Control_c, 7, 10, 92
1, 1799, Control_c, 7, 7, 74
1, 1799, Control_c, 7, 91, 92
1, 1799, Control_c, 8, 7, 54
1, 1799, Control_c, 11, 7, 76
1, 1799, Control_c, 0, 7, 106
1, 1799, Control_c, 0, 93, 48
1, 1800, Program_c, 6, 33
1, 1800, Program_c, 1, 4
1, 1800, Program_c, 2, 72
1, 1800, Program_c, 3, 22
1, 1800, Program_c, 4, 4
1, 1800, Program_c, 7, 72
1, 1800, Program_c, 11, 9
1, 1800, Program_c, 0, 4
1, 1800, Control_c, 5, 10, 52
1, 1800, Program_c, 5, 48
1, 1800, Control_c, 8, 10, 76
1, 1800, Program_c, 8, 48
1, 1920, Note_on_c, 0, 53, 100
1, 2160, Note_on_c, 1, 60, 100
1, 2400, Note_on_c, 0, 64, 100
1, 2400, Note_on_c, 1, 67, 100
1, 2640, Note_off_c, 0, 64, 64
1, 2640, Note_on_c, 0, 65, 100
1, 2640, Note_on_c, 1, 69, 100
1, 2880, Note_on_c, 1, 77, 100
1, 3120, Note_on_c, 1, 71, 100
1, 3360, Note_on_c, 1, 72, 100
1, 3600, Note_on_c, 1, 81, 100
1, 3840, Note_off_c, 1, 77, 64
1, 3840, Note_off_c, 1, 81, 64
1, 3840, Note_on_c, 1, 76, 100
1, 4320, Note_on_c, 2, 88, 100
1, 4320, Control_c, 2, 11, 80
1, 4327, Control_c, 2, 11, 82
1, 4334, Control_c, 2, 11, 85
1, 4341, Control_c, 2, 11, 88
1, 4348, Control_c, 2, 11, 90
1, 4355, Control_c, 2, 11, 93
1, 4362, Control_c, 2, 11, 96
1, 4369, Control_c, 2, 11, 99
1, 4376, Control_c, 2, 11, 101
1, 4383, Control_c, 2, 11, 104
1, 4390, Control_c, 2, 11, 107
1, 4397, Control_c, 2, 11, 110
1, 4404, Control_c, 2, 11, 112
1, 4411, Control_c, 2, 11, 115
1, 4418, Control_c, 2, 11, 118
1, 4425, Control_c, 2, 11, 121
1, 4432, Control_c, 2, 11, 123
1, 4439, Control_c, 2, 11, 127
1, 4680, Control_c, 2, 11, 126
1, 4687, Control_c, 2, 11, 125
1, 4729, Control_c, 2, 11, 124
1, 4750, Control_c, 2, 11, 123
1, 4764, Control_c, 2, 11, 122
1, 4778, Control_c, 2, 11, 121
1, 4792, Control_c, 2, 11, 120
1, 4799, Control_c, 2, 11, 119
1, 4813, Control_c, 2, 11, 118
1, 4820, Control_c, 2, 11, 117
1, 4827, Control_c, 2, 11, 116
1, 4834, Control_c, 2, 11, 115
1, 4841, Control_c, 2, 11, 114
1, 4848, Control_c, 2, 11, 113
1, 4855, Control_c, 2, 11, 112
1, 4862, Control_c, 2, 11, 111
1, 4869, Control_c, 2, 11, 110
1, 4876, Control_c, 2, 11, 109
1, 4883, Control_c, 2, 11, 108
1, 4890, Control_c, 2, 11, 106
1, 4897, Control_c, 2, 11, 105
1, 4904, Control_c, 2, 11, 104
1, 4911, Control_c, 2, 11, 102
1, 4918, Control_c, 2, 11, 101
1, 4925, Control_c, 2, 11, 99
1, 4932, Control_c, 2, 11, 98
1, 4939, Control_c, 2, 11, 96
1, 4946, Control_c, 2, 11, 95
1, 4953, Control_c, 2, 11, 93
1, 4960, Control_c, 2, 11, 92
1, 4967, Control_c, 2, 11, 90
1, 4974, Control_c, 2, 11, 88
1, 4981, Control_c, 2, 11, 86
1, 4988, Control_c, 2, 11, 84
1, 4995, Control_c, 2, 11, 82
1, 5002, Control_c, 2, 11, 81
1, 5009, Control_c, 2, 11, 79
1, 5016, Control_c, 2, 11, 77
1, 5023, Control_c, 2, 11, 75
1, 5030, Control_c, 2, 11, 72
1, 5037, Control_c, 2, 11, 70
1, 5040, Note_off_c, 1, 60, 64
1, 5040, Note_off_c, 1, 67, 64
1, 5040, Note_off_c, 1, 69, 64
1, 5040, Note_off_c, 1, 71, 64
1, 5040, Note_off_c, 1, 72, 64
1, 5040, Note_off_c, 1, 76, 64
1, 5040, Note_off_c, 2, 88, 64
1, 5040, Control_c, 2, 11, 127
1, 5040, Note_on_c, 1, 71, 100
1, 5040, Note_on_c, 2, 86, 100
1, 5280, Note_off_c, 1, 71, 64
1, 5280, Note_off_c, 2, 86, 64
1, 5280, Note_on_c, 1, 69, 100
1, 5280, Note_on_c, 2, 84, 100
1, 5520, Note_off_c, 1, 69, 64
1, 5520, Note_off_c, 2, 84, 64
1, 5520, Note_on_c, 1, 64, 100
1, 5520, Note_on_c, 2, 81, 100
1, 5760, Note_off_c, 0, 53, 64
1, 5760, Note_off_c, 0, 65, 64
1, 5760, Note_off_c, 1, 64, 64
1, 5760, Note_off_c, 2, 81, 64
1, 5760, Note_on_c, 0, 53, 100
1, 5760, Note_on_c, 2, 76, 100
1, 6000, Note_off_c, 2, 76, 64
1, 6000, Note_on_c, 1, 60, 100
1, 6000, Note_on_c, 2, 77, 100
1, 6240, Note_off_c, 2, 77, 64
1, 6240, Note_on_c, 1, 71, 100
1, 6240, Note_on_c, 2, 84, 100
1, 6240, Control_c, 2, 11, 110
1, 6254, Control_c, 2, 11, 110
1, 6268, Control_c, 2, 11, 111
1, 6282, Control_c, 2, 11, 112
1, 6296, Control_c, 2, 11, 113
1, 6310, Control_c, 2, 11, 114
1, 6324, Control_c, 2, 11, 115
1, 6338, Control_c, 2, 11, 116
1, 6352, Control_c, 2, 11, 117
1, 6367, Control_c, 2, 11, 118
1, 6381, Control_c, 2, 11, 119
1, 6395, Control_c, 2, 11, 120
1, 6409, Control_c, 2, 11, 121
1, 6423, Control_c, 2, 11, 122
1, 6437, Control_c, 2, 11, 123
1, 6451, Control_c, 2, 11, 124
1, 6465, Control_c, 2, 11, 125
1, 6479, Control_c, 2, 11, 127
1, 6480, Note_on_c, 1, 72, 100
1, 6720, Control_c, 2, 11, 126
1, 6720, Note_on_c, 1, 81, 100
1, 6727, Control_c, 2, 11, 125
1, 6811, Control_c, 2, 11, 124
1, 6846, Control_c, 2, 11, 123
1, 6874, Control_c, 2, 11, 122
1, 6895, Control_c, 2, 11, 121
1, 6916, Control_c, 2, 11, 120
1, 6937, Control_c, 2, 11, 119
1, 6958, Control_c, 2, 11, 118
1, 6960, Note_on_c, 1, 74, 100
1, 6972, Control_c, 2, 11, 117
1, 6986, Control_c, 2, 11, 116
1, 7000, Control_c, 2, 11, 115
1, 7014, Control_c, 2, 11, 114
1, 7028, Control_c, 2, 11, 113
1, 7042, Control_c, 2, 11, 112
1, 7049, Control_c, 2, 11, 111
1, 7063, Control_c, 2, 11, 110
1, 7077, Control_c, 2, 11, 109
1, 7084, Control_c, 2, 11, 108
1, 7098, Control_c, 2, 11, 107
1, 7105, Control_c, 2, 11, 106
1, 7112, Control_c, 2, 11, 105
1, 7126, Control_c, 2, 11, 104
1, 7133, Control_c, 2, 11, 103
1, 7140, Control_c, 2, 11, 102
1, 7154, Control_c, 2, 11, 101
1, 7161, Control_c, 2, 11, 100
1, 7168, Control_c, 2, 11, 99
1, 7175, Control_c, 2, 11, 98
1, 7189, Control_c, 2, 11, 97
1, 7196, Control_c, 2, 11, 96
1, 7200, Note_off_c, 2, 84, 64
1, 7200, Control_c, 2, 11, 127
1, 7200, Note_on_c, 1, 76, 100
1, 7200, Note_on_c, 2, 74, 100
1, 7440, Note_off_c, 2, 74, 64
1, 7440, Note_on_c, 1, 83, 100
1, 7440, Note_on_c, 2, 76, 100
1, 7680, Note_off_c, 1, 60, 64
1, 7680, Note_off_c, 1, 71, 64
1, 7680, Note_off_c, 1, 72, 64
1, 7680, Note_off_c, 1, 81, 64
1, 7680, Note_off_c, 1, 74, 64
1, 7680, Note_off_c, 1, 76, 64
1, 7680, Note_off_c, 1, 83, 64
1, 7680, Note_off_c, 2, 76, 64
1, 7680, Note_on_c, 1, 88, 100
1, 7680, Note_on_c, 1, 76, 100
1, 7680, Note_on_c, 1, 83, 100
1, 7680, Note_on_c, 2, 83, 100
1, 7680, Control_c, 2, 11, 112
1, 7696, Control_c, 2, 11, 113
1, 7712, Control_c, 2, 11, 114
1, 7728, Control_c, 2, 11, 115
1, 7744, Control_c, 2, 11, 116
1, 7760, Control_c, 2, 11, 117
1, 7776, Control_c, 2, 11, 118
1, 7792, Control_c, 2, 11, 119
1, 7808, Control_c, 2, 11, 120
1, 7824, Control_c, 2, 11, 121
1, 7840, Control_c, 2, 11, 122
1, 7856, Control_c, 2, 11, 123
1, 7872, Control_c, 2, 11, 124
1, 7888, Control_c, 2, 11, 125
1, 7904, Control_c, 2, 11, 126
1, 7919, Control_c, 2, 11, 127
1, 8640, Control_c, 2, 11, 127
1, 8647, Control_c, 2, 11, 126
1, 8731, Control_c, 2, 11, 125
1, 8766, Control_c, 2, 11, 124
1, 8794, Control_c, 2, 11, 123
1, 8815, Control_c, 2, 11, 122
1, 8836, Control_c, 2, 11, 121
1, 8857, Control_c, 2, 11, 120
1, 8871, Control_c, 2, 11, 119
1, 8880, Control_c, 3, 11, 127
1, 8885, Control_c, 2, 11, 118
1, 8899, Control_c, 2, 11, 117
1, 8913, Control_c, 2, 11, 116
1, 8927, Control_c, 2, 11, 115
1, 8941, Control_c, 2, 11, 114
1, 8955, Control_c, 2, 11, 113
1, 8969, Control_c, 2, 11, 112
1, 8976, Control_c, 2, 11, 111
1, 8990, Control_c, 2, 11, 110
1, 8997, Control_c, 2, 11, 109
1, 9011, Control_c, 2, 11, 108
1, 9018, Control_c, 2, 11, 107
1, 9032, Control_c, 2, 11, 106
1, 9039, Control_c, 2, 11, 105
1, 9046, Control_c, 2, 11, 104
1, 9053, Control_c, 2, 11, 103
1, 9067, Control_c, 2, 11, 102
1, 9074, Control_c, 2, 11, 101
1, 9081, Control_c, 2, 11, 100
1, 9088, Control_c, 2, 11, 99
1, 9102, Control_c, 2, 11, 98
1, 9109, Control_c, 2, 11, 97
1, 9116, Control_c, 2, 11, 96
1, 9120, Note_off_c, 1, 88, 64
1, 9120, Note_off_c, 1, 76, 64
1, 9120, Note_off_c, 1, 83, 64
1, 9120, Note_off_c, 2, 83, 64
1, 9120, Note_on_c, 4, 77, 100
1, 9120, Note_on_c, 1, 72, 100
1, 9120, Note_on_c, 3, 65, 100
1, 9360, Note_off_c, 4, 77, 64
1, 9360, Note_off_c, 1, 72, 64
1, 9360, Note_off_c, 3, 65, 64
1, 9360, Note_on_c, 4, 79, 100
1, 9360, Note_on_c, 1, 70, 100
1, 9360, Note_on_c, 3, 67, 100
1, 9600, Note_off_c, 0, 53, 64
1, 9600, Note_off_c, 4, 79, 64
1, 9600, Note_off_c, 1, 70, 64
1, 9600, Note_off_c, 3, 67, 64
1, 9600, Control_c, 2, 11, 127
1, 9600, Note_on_c, 0, 65, 100
1, 9600, Note_on_c, 4, 81, 100
1, 9600, Note_on_c, 1, 72, 100
1, 9600, Note_on_c, 3, 69, 100
1, 10080, Note_off_c, 4, 81, 64
1, 10080, Note_off_c, 1, 72, 64
1, 10080, Note_off_c, 3, 69, 64
1, 10080, Note_on_c, 4, 84, 100
1, 10080, Note_on_c, 1, 77, 100
1, 10080, Note_on_c, 1, 81, 100
1, 10080, Note_on_c, 3, 72, 100
1, 10560, Note_off_c, 0, 65, 64
1, 10560, Note_off_c, 4, 84, 64
1, 10560, Note_off_c, 1, 77, 64
1, 10560, Note_off_c, 1, 81, 64
1, 10560, Note_off_c, 3, 72, 64
1, 10560, Note_on_c, 0, 64, 100
1, 10560, Note_on_c, 4, 79, 100
1, 10560, Note_on_c, 1, 72, 100
1, 10560, Note_on_c, 1, 76, 100
1, 10560, Note_on_c, 3, 67, 100
1, 11040, Control_c, 3, 11, 127
1, 11047, Control_c, 3, 11, 126
1, 11110, Control_c, 3, 11, 125
1, 11138, Control_c, 3, 11, 124
1, 11159, Control_c, 3, 11, 123
1, 11180, Control_c, 3, 11, 122
1, 11194, Control_c, 3, 11, 121
1, 11208, Control_c, 3, 11, 120
1, 11222, Control_c, 3, 11, 119
1, 11236, Control_c, 3, 11, 118
1, 11243, Control_c, 3, 11, 117
1, 11257, Control_c, 3, 11, 116
1, 11264, Control_c, 3, 11, 115
1, 11278, Control_c, 3, 11, 114
1, 11285, Control_c, 3, 11, 113
1, 11292, Control_c, 3, 11, 112
1, 11306, Control_c, 3, 11, 111
1, 11313, Control_c, 3, 11, 110
1, 11320, Control_c, 3, 11, 109
1, 11327, Control_c, 3, 11, 108
1, 11334, Control_c, 3, 11, 107
1, 11341, Control_c, 3, 11, 106
1, 11348, Control_c, 3, 11, 105
1, 11355, Control_c, 3, 11, 104
1, 11362, Control_c, 3, 11, 103
1, 11369, Control_c, 3, 11, 102
1, 11376, Control_c, 3, 11, 101
1, 11383, Control_c, 3, 11, 100
1, 11390, Control_c, 3, 11, 99
1, 11397, Control_c, 3, 11, 98
1, 11404, Control_c, 3, 11, 97
1, 11411, Control_c, 3, 11, 96
1, 11418, Control_c, 3, 11, 95
1, 11425, Control_c, 3, 11, 94
1, 11432, Control_c, 3, 11, 92
1, 11439, Control_c, 3, 11, 91
1, 11446, Control_c, 3, 11, 90
1, 11453, Control_c, 3, 11, 89
1, 11460, Control_c, 3, 11, 87
1, 11467, Control_c, 3, 11, 86
1, 11474, Control_c, 3, 11, 85
1, 11481, Control_c, 3, 11, 83
1, 11488, Control_c, 3, 11, 82
1, 11495, Control_c, 3, 11, 81
1, 11502, Control_c, 3, 11, 79
1, 11509, Control_c, 3, 11, 78
1, 11516, Control_c, 3, 11, 76
1, 11520, Note_off_c, 0, 64, 64
1, 11520, Note_off_c, 4, 79, 64
1, 11520, Note_off_c, 1, 72, 64
1, 11520, Note_off_c, 1, 76, 64
1, 11520, Note_off_c, 3, 67, 64
1, 11520, Control_c, 3, 11, 127
1, 11520, Note_on_c, 0, 62, 100
1, 11520, Note_on_c, 4, 81, 100
1, 11520, Note_on_c, 1, 72, 100
1, 11520, Note_on_c, 1, 77, 100
1, 11520, Note_on_c, 3, 69, 100
1, 12000, Note_off_c, 0, 62, 64
1, 12000, Note_off_c, 4, 81, 64
1, 12000, Note_off_c, 1, 72, 64
1, 12000, Note_off_c, 1, 77, 64
1, 12000, Note_off_c, 3, 69, 64
1, 12000, Note_on_c, 0, 60, 100
1, 12000, Note_on_c, 4, 79, 100
1, 12000, Note_on_c, 1, 74, 100
1, 12000, Note_on_c, 1, 72, 100
1, 12000, Note_on_c, 3, 67, 100
1, 12240, Note_off_c, 4, 79, 64
1, 12240, Note_off_c, 3, 67, 64
1, 12240, Note_on_c, 4, 77, 100
1, 12240, Note_on_c, 3, 65, 100
1, 12480, Note_off_c, 0, 60, 64
1, 12480, Note_off_c, 1, 74, 64
1, 12480, Note_off_c, 1, 72, 64
1, 12480, Note_off_c, 4, 77, 64
1, 12480, Note_off_c, 3, 65, 64
1, 12480, Note_on_c, 0, 58, 100
1, 12480, Note_on_c, 1, 70, 100
1, 12480, Note_on_c, 4, 74, 100
1, 12480, Note_on_c, 3, 62, 100
1, 12720, Note_off_c, 4, 74, 64
1, 12720, Note_off_c, 3, 62, 64
1, 12720, Note_on_c, 4, 77, 100
1, 12720, Note_on_c, 3, 65, 100
1, 12960, Note_off_c, 0, 58, 64
1, 12960, Note_off_c, 1, 70, 64
1, 12960, Note_off_c, 4, 77, 64
1, 12960, Note_off_c, 3, 65, 64
1, 12960, Note_on_c, 0, 55, 100
1, 12960, Note_on_c, 1, 72, 100
1, 12960, Note_on_c, 1, 70, 100
1, 12960, Note_on_c, 4, 77, 100
1, 12960, Note_on_c, 3, 65, 100
1, 13200, Note_off_c, 4, 77, 64
1, 13200, Note_off_c, 3, 65, 64
1, 13200, Note_on_c, 4, 79, 100
1, 13200, Note_on_c, 3, 67, 100
1, 13440, Note_off_c, 0, 55, 64
1, 13440, Note_off_c, 1, 72, 64
1, 13440, Note_off_c, 1, 70, 64
1, 13440, Note_off_c, 4, 79, 64
1, 13440, Note_off_c, 3, 67, 64
1, 13440, Note_on_c, 0, 53, 100
1, 13440, Note_on_c, 1, 72, 100
1, 13440, Note_on_c, 1, 77, 100
1, 13440, Note_on_c, 4, 81, 100
1, 13440, Note_on_c, 3, 69, 100
1, 13680, Note_on_c, 0, 60, 100
1, 13920, Note_off_c, 1, 72, 64
1, 13920, Note_off_c, 1, 77, 64
1, 13920, Note_off_c, 4, 81, 64
1, 13920, Note_off_c, 3, 69, 64
1, 13920, Note_off_c, 0, 60, 64
1, 13920, Note_on_c, 1, 77, 100
1, 13920, Note_on_c, 1, 81, 100
1, 13920, Note_on_c, 4, 84, 100
1, 13920, Note_on_c, 3, 72, 100
1, 13920, Note_on_c, 0, 69, 100
1, 14400, Note_off_c, 0, 53, 64
1, 14400, Note_off_c, 1, 77, 64
1, 14400, Note_off_c, 1, 81, 64
1, 14400, Note_off_c, 4, 84, 64
1, 14400, Note_off_c, 3, 72, 64
1, 14400, Note_off_c, 0, 69, 64
1, 14400, Note_on_c, 1, 76, 100
1, 14400, Note_on_c, 1, 72, 100
1, 14400, Note_on_c, 4, 79, 100
1, 14400, Note_on_c, 3, 67, 100
1, 14400, Note_on_c, 0, 48, 100
1, 14640, Note_on_c, 0, 55, 100
1, 14880, Note_off_c, 1, 76, 64
1, 14880, Note_off_c, 1, 72, 64
1, 14880, Note_off_c, 4, 79, 64
1, 14880, Note_off_c, 3, 67, 64
1, 14880, Note_off_c, 0, 55, 64
1, 14880, Note_on_c, 1, 72, 100
1, 14880, Note_on_c, 1, 74, 100
1, 14880, Note_on_c, 4, 77, 100
1, 14880, Note_on_c, 3, 65, 100
1, 14880, Note_on_c, 0, 62, 100
1, 15120, Note_off_c, 4, 77, 64
1, 15120, Note_off_c, 3, 65, 64
1, 15120, Note_on_c, 4, 76, 100
1, 15120, Note_on_c, 3, 64, 100
1, 15360, Note_off_c, 0, 48, 64
1, 15360, Note_off_c, 1, 72, 64
1, 15360, Note_off_c, 1, 74, 64
1, 15360, Note_off_c, 0, 62, 64
1, 15360, Note_off_c, 4, 76, 64
1, 15360, Note_off_c, 3, 64, 64
1, 15360, Note_on_c, 1, 70, 100
1, 15360, Note_on_c, 0, 46, 100
1, 15360, Note_on_c, 4, 74, 100
1, 15360, Note_on_c, 3, 62, 100
1, 15600, Note_on_c, 0, 58, 100
1, 15840, Control_c, 3, 11, 127
1, 15840, Note_on_c, 0, 62, 100
1, 15847, Control_c, 3, 11, 126
1, 15917, Control_c, 3, 11, 125
1, 15952, Control_c, 3, 11, 124
1, 15980, Control_c, 3, 11, 123
1, 15994, Control_c, 3, 11, 122
1, 16015, Control_c, 3, 11, 121
1, 16029, Control_c, 3, 11, 120
1, 16050, Control_c, 3, 11, 119
1, 16064, Control_c, 3, 11, 118
1, 16078, Control_c, 3, 11, 117
1, 16080, Note_on_c, 0, 65, 100
1, 16085, Control_c, 3, 11, 116
1, 16099, Control_c, 3, 11, 115
1, 16113, Control_c, 3, 11, 114
1, 16120, Control_c, 3, 11, 113
1, 16134, Control_c, 3, 11, 112
1, 16141, Control_c, 3, 11, 111
1, 16155, Control_c, 3, 11, 110
1, 16162, Control_c, 3, 11, 109
1, 16169, Control_c, 3, 11, 108
1, 16183, Control_c, 3, 11, 107
1, 16190, Control_c, 3, 11, 106
1, 16197, Control_c, 3, 11, 105
1, 16204, Control_c, 3, 11, 104
1, 16211, Control_c, 3, 11, 103
1, 16218, Control_c, 3, 11, 102
1, 16232, Control_c, 3, 11, 101
1, 16239, Control_c, 3, 11, 100
1, 16246, Control_c, 3, 11, 99
1, 16253, Control_c, 3, 11, 98
1, 16260, Control_c, 3, 11, 97
1, 16267, Control_c, 3, 11, 96
1, 16274, Control_c, 3, 11, 95
1, 16281, Control_c, 3, 11, 94
1, 16288, Control_c, 3, 11, 93
1, 16295, Control_c, 3, 11, 92
1, 16302, Control_c, 3, 11, 91
1, 16309, Control_c, 3, 11, 90
1, 16316, Control_c, 3, 11, 88
1, 16320, Note_off_c, 1, 70, 64
1, 16320, Note_on_c, 1, 70, 100
1, 16323, Control_c, 3, 11, 87
1, 16330, Control_c, 3, 11, 86
1, 16337, Control_c, 3, 11, 85
1, 16344, Control_c, 3, 11, 84
1, 16351, Control_c, 3, 11, 83
1, 16358, Control_c, 3, 11, 81
1, 16365, Control_c, 3, 11, 80
1, 16372, Control_c, 3, 11, 79
1, 16379, Control_c, 3, 11, 78
1, 16386, Control_c, 3, 11, 76
1, 16393, Control_c, 3, 11, 75
1, 16400, Control_c, 3, 11, 74
1, 16407, Control_c, 3, 11, 72
1, 16414, Control_c, 3, 11, 71
1, 16421, Control_c, 3, 11, 70
1, 16428, Control_c, 3, 11, 68
1, 16435, Control_c, 3, 11, 67
1, 16442, Control_c, 3, 11, 66
1, 16449, Control_c, 3, 11, 64
1, 16456, Control_c, 3, 11, 63
1, 16463, Control_c, 3, 11, 61
1, 16470, Control_c, 3, 11, 60
1, 16477, Control_c, 3, 11, 58
1, 16484, Control_c, 3, 11, 57
1, 16491, Control_c, 3, 11, 55
1, 16498, Control_c, 3, 11, 54
1, 16505, Control_c, 3, 11, 52
1, 16512, Control_c, 3, 11, 51
1, 16519, Control_c, 3, 11, 49
1, 16526, Control_c, 3, 11, 47
1, 16533, Control_c, 3, 11, 46
1, 16540, Control_c, 3, 11, 44
1, 16547, Control_c, 3, 11, 43
1, 16554, Control_c, 3, 11, 41
1, 16560, Note_off_c, 3, 62, 64
1, 16560, Control_c, 3, 11, 40
1, 16560, Note_on_c, 1, 74, 100
1, 16800, Note_off_c, 4, 74, 64
1, 16800, Control_c, 3, 11, 127
1, 16800, Note_on_c, 4, 77, 100
1, 16800, Note_on_c, 3, 65, 100
1, 17040, Note_off_c, 4, 77, 64
1, 17040, Note_off_c, 3, 65, 64
1, 17040, Note_on_c, 4, 79, 100
1, 17040, Note_on_c, 3, 67, 100
1, 17280, Note_off_c, 0, 46, 64
1, 17280, Note_off_c, 0, 58, 64
1, 17280, Note_off_c, 0, 62, 64
1, 17280, Note_off_c, 0, 65, 64
1, 17280, Note_off_c, 1, 70, 64
1, 17280, Note_off_c, 1, 74, 64
1, 17280, Note_off_c, 4, 79, 64
1, 17280, Note_off_c, 3, 67, 64
1, 17280, Note_on_c, 0, 53, 100
1, 17280, Note_on_c, 1, 72, 100
1, 17280, Note_on_c, 4, 81, 100
1, 17280, Note_on_c, 3, 69, 100
1, 17520, Note_on_c, 0, 60, 100
1, 17760, Note_off_c, 1, 72, 64
1, 17760, Note_off_c, 4, 81, 64
1, 17760, Note_off_c, 3, 69, 64
1, 17760, Note_off_c, 0, 60, 64
1, 17760, Note_on_c, 1, 77, 100
1, 17760, Note_on_c, 1, 81, 100
1, 17760, Note_on_c, 4, 84, 100
1, 17760, Note_on_c, 3, 72, 100
1, 17760, Note_on_c, 0, 69, 100
1, 18240, Note_off_c, 0, 53, 64
1, 18240, Note_off_c, 1, 77, 64
1, 18240, Note_off_c, 1, 81, 64
1, 18240, Note_off_c, 4, 84, 64
1, 18240, Note_off_c, 3, 72, 64
1, 18240, Note_off_c, 0, 69, 64
1, 18240, Note_on_c, 1, 72, 100
1, 18240, Note_on_c, 1, 76, 100
1, 18240, Note_on_c, 4, 79, 100
1, 18240, Note_on_c, 3, 67, 100
1, 18240, Note_on_c, 0, 48, 100
1, 18480, Note_on_c, 0, 55, 100
1, 18720, Note_off_c, 0, 55, 64
1, 18720, Control_c, 3, 11, 127
1, 18720, Note_on_c, 0, 60, 100
1, 18727, Control_c, 3, 11, 126
1, 18797, Control_c, 3, 11, 125
1, 18825, Control_c, 3, 11, 124
1, 18853, Control_c, 3, 11, 123
1, 18867, Control_c, 3, 11, 122
1, 18888, Control_c, 3, 11, 121
1, 18902, Control_c, 3, 11, 120
1, 18916, Control_c, 3, 11, 119
1, 18930, Control_c, 3, 11, 118
1, 18944, Control_c, 3, 11, 117
1, 18951, Control_c, 3, 11, 116
1, 18960, Note_off_c, 0, 60, 64
1, 18960, Note_on_c, 0, 61, 100
1, 18965, Control_c, 3, 11, 115
1, 18979, Control_c, 3, 11, 114
1, 18986, Control_c, 3, 11, 113
1, 19000, Control_c, 3, 11, 112
1, 19007, Control_c, 3, 11, 111
1, 19014, Control_c, 3, 11, 110
1, 19028, Control_c, 3, 11, 109
1, 19035, Control_c, 3, 11, 108
1, 19042, Control_c, 3, 11, 107
1, 19049, Control_c, 3, 11, 106
1, 19056, Control_c, 3, 11, 105
1, 19063, Control_c, 3, 11, 104
1, 19077, Control_c, 3, 11, 103
1, 19084, Control_c, 3, 11, 102
1, 19091, Control_c, 3, 11, 101
1, 19098, Control_c, 3, 11, 100
1, 19105, Control_c, 3, 11, 99
1, 19112, Control_c, 3, 11, 98
1, 19119, Control_c, 3, 11, 97
1, 19126, Control_c, 3, 11, 96
1, 19133, Control_c, 3, 11, 95
1, 19140, Control_c, 3, 11, 94
1, 19147, Control_c, 3, 11, 92
1, 19154, Control_c, 3, 11, 91
1, 19161, Control_c, 3, 11, 90
1, 19168, Control_c, 3, 11, 89
1, 19175, Control_c, 3, 11, 88
1, 19182, Control_c, 3, 11, 87
1, 19189, Control_c, 3, 11, 85
1, 19196, Control_c, 3, 11, 84
1, 19200, Note_off_c, 1, 72, 64
1, 19200, Note_off_c, 1, 76, 64
1, 19200, Note_off_c, 4, 79, 64
1, 19200, Note_off_c, 3, 67, 64
1, 19200, Note_off_c, 0, 48, 64
1, 19200, Note_off_c, 0, 61, 64
1, 19200, Control_c, 3, 11, 127
1, 19200, Note_on_c, 1, 77, 100
1, 19200, Note_on_c, 1, 76, 100
1, 19200, Note_on_c, 4, 81, 100
1, 19200, Note_on_c, 0, 62, 100
1, 19200, Note_on_c, 3, 69, 100
1, 19440, Note_off_c, 0, 62, 64
1, 19440, Note_on_c, 0, 50, 100
1, 19680, Note_off_c, 1, 77, 64
1, 19680, Note_off_c, 1, 76, 64
1, 19680, Note_off_c, 4, 81, 64
1, 19680, Note_off_c, 3, 69, 64
1, 19680, Note_off_c, 0, 50, 64
1, 19680, Note_on_c, 1, 74, 100
1, 19680, Note_on_c, 4, 79, 100
1, 19680, Note_on_c, 3, 67, 100
1, 19680, Note_on_c, 0, 57, 100
1, 19920, Note_off_c, 4, 79, 64
1, 19920, Note_off_c, 3, 67, 64
1, 19920, Note_off_c, 0, 57, 64
1, 19920, Note_on_c, 4, 77, 100
1, 19920, Note_on_c, 3, 65, 100
1, 19920, Note_on_c, 0, 62, 100
1, 20160, Note_off_c, 1, 74, 64
1, 20160, Note_off_c, 4, 77, 64
1, 20160, Note_off_c, 3, 65, 64
1, 20160, Note_off_c, 0, 62, 64
1, 20160, Note_on_c, 1, 72, 100
1, 20160, Note_on_c, 4, 74, 100
1, 20160, Note_on_c, 3, 62, 100
1, 20160, Note_on_c, 0, 58, 100
1, 20400, Note_off_c, 4, 74, 64
1, 20400, Note_off_c, 3, 62, 64
1, 20400, Note_on_c, 4, 77, 100
1, 20400, Note_on_c, 3, 65, 100
1, 20640, Note_off_c, 1, 72, 64
1, 20640, Note_off_c, 0, 58, 64
1, 20640, Note_off_c, 4, 77, 64
1, 20640, Note_off_c, 3, 65, 64
1, 20640, Note_on_c, 1, 70, 100
1, 20640, Note_on_c, 1, 72, 100
1, 20640, Note_on_c, 0, 55, 100
1, 20640, Note_on_c, 4, 77, 100
1, 20640, Note_on_c, 3, 65, 100
1, 20880, Note_off_c, 4, 77, 64
1, 20880, Note_off_c, 3, 65, 64
1, 20880, Note_on_c, 4, 79, 100
1, 20880, Note_on_c, 3, 67, 100
1, 21120, Note_off_c, 1, 70, 64
1, 21120, Note_off_c, 1, 72, 64
1, 21120, Note_off_c, 0, 55, 64
1, 21120, Note_off_c, 4, 79, 64
1, 21120, Note_off_c, 3, 67, 64
1, 21120, Note_on_c, 1, 69, 100
1, 21120, Note_on_c, 1, 72, 100
1, 21120, Note_on_c, 0, 53, 100
1, 21120, Note_on_c, 4, 81, 100
1, 21120, Note_on_c, 3, 69, 100
1, 21360, Note_on_c, 0, 60, 100
1, 21600, Note_off_c, 1, 69, 64
1, 21600, Note_off_c, 1, 72, 64
1, 21600, Note_off_c, 4, 81, 64
1, 21600, Note_off_c, 3, 69, 64
1, 21600, Note_off_c, 0, 60, 64
1, 21600, Note_on_c, 1, 77, 100
1, 21600, Note_on_c, 1, 72, 100
1, 21600, Note_on_c, 4, 84, 100
1, 21600, Note_on_c, 3, 72, 100
1, 21600, Note_on_c, 0, 69, 100
1, 22080, Note_off_c, 0, 53, 64
1, 22080, Note_off_c, 1, 77, 64
1, 22080, Note_off_c, 1, 72, 64
1, 22080, Note_off_c, 4, 84, 64
1, 22080, Note_off_c, 3, 72, 64
1, 22080, Note_off_c, 0, 69, 64
1, 22080, Note_on_c, 1, 81, 100
1, 22080, Note_on_c, 1, 76, 100
1, 22080, Note_on_c, 4, 88, 100
1, 22080, Note_on_c, 3, 76, 100
1, 22080, Note_on_c, 0, 57, 100
1, 22080, Note_on_c, 0, 69, 100
1, 22320, Note_off_c, 0, 69, 64
1, 22320, Note_on_c, 0, 64, 100
1, 22560, Note_off_c, 1, 81, 64
1, 22560, Note_off_c, 1, 76, 64
1, 22560, Note_off_c, 4, 88, 64
1, 22560, Note_off_c, 3, 76, 64
1, 22560, Note_off_c, 0, 64, 64
1, 22560, Note_on_c, 1, 79, 100
1, 22560, Note_on_c, 4, 84, 100
1, 22560, Note_on_c, 3, 72, 100
1, 22560, Note_on_c, 0, 67, 100
1, 22800, Note_off_c, 0, 67, 64
1, 22800, Note_on_c, 0, 69, 100
1, 23040, Note_off_c, 0, 57, 64
1, 23040, Note_off_c, 1, 79, 64
1, 23040, Note_off_c, 4, 84, 64
1, 23040, Note_off_c, 3, 72, 64
1, 23040, Note_off_c, 0, 69, 64
1, 23040, Note_on_c, 1, 82, 100
1, 23040, Note_on_c, 1, 77, 100
1, 23040, Note_on_c, 4, 86, 100
1, 23040, Note_on_c, 3, 74, 100
1, 23040, Note_on_c, 0, 58, 100
1, 23280, Note_on_c, 0, 65, 100
1, 23520, Note_off_c, 0, 65, 64
1, 23520, Note_on_c, 0, 70, 100
1, 23760, Note_off_c, 0, 70, 64
1, 23760, Note_on_c, 0, 72, 100
1, 24000, Control_c, 3, 11, 127
1, 24007, Control_c, 3, 11, 126
1, 24119, Control_c, 3, 11, 125
1, 24168, Control_c, 3, 11, 124
1, 24203, Control_c, 3, 11, 123
1, 24238, Control_c, 3, 11, 122
1, 24240, Note_off_c, 0, 72, 64
1, 24240, Note_on_c, 0, 70, 100
1, 24266, Control_c, 3, 11, 121
1, 24287, Control_c, 3, 11, 120
1, 24315, Control_c, 3, 11, 119
1, 24336, Control_c, 3, 11, 118
1, 24357, Control_c, 3, 11, 117
1, 24371, Control_c, 3, 11, 116
1, 24392, Control_c, 3, 11, 115
1, 24406, Control_c, 3, 11, 114
1, 24427, Control_c, 3, 11, 113
1, 24441, Control_c, 3, 11, 112
1, 24455, Control_c, 3, 11, 111
1, 24469, Control_c, 3, 11, 110
1, 24490, Control_c, 3, 11, 109
1, 24504, Control_c, 3, 11, 108
1, 24511, Control_c, 3, 11, 107
1, 24525, Control_c, 3, 11, 106
1, 24539, Control_c, 3, 11, 105
1, 24553, Control_c, 3, 11, 104
1, 24567, Control_c, 3, 11, 103
1, 24581, Control_c, 3, 11, 102
1, 24588, Control_c, 3, 11, 101
1, 24602, Control_c, 3, 11, 100
1, 24616, Control_c, 3, 11, 99
1, 24623, Control_c, 3, 11, 98
1, 24637, Control_c, 3, 11, 97
1, 24644, Control_c, 3, 11, 96
1, 24658, Control_c, 3, 11, 95
1, 24665, Control_c, 3, 11, 94
1, 24679, Control_c, 3, 11, 93
1, 24686, Control_c, 3, 11, 92
1, 24700, Control_c, 3, 11, 91
1, 24707, Control_c, 3, 11, 90
1, 24714, Control_c, 3, 11, 89
1, 24720, Note_off_c, 0, 70, 64
1, 24720, Note_on_c, 0, 65, 100
1, 24728, Control_c, 3, 11, 88
1, 24735, Control_c, 3, 11, 87
1, 24742, Control_c, 3, 11, 86
1, 24756, Control_c, 3, 11, 85
1, 24763, Control_c, 3, 11, 84
1, 24770, Control_c, 3, 11, 83
1, 24784, Control_c, 3, 11, 82
1, 24791, Control_c, 3, 11, 81
1, 24798, Control_c, 3, 11, 80
1, 24805, Control_c, 3, 11, 79
1, 24819, Control_c, 3, 11, 78
1, 24826, Control_c, 3, 11, 77
1, 24833, Control_c, 3, 11, 76
1, 24840, Control_c, 3, 11, 75
1, 24847, Control_c, 3, 11, 74
1, 24854, Control_c, 3, 11, 73
1, 24868, Control_c, 3, 11, 72
1, 24875, Control_c, 3, 11, 71
1, 24882, Control_c, 3, 11, 70
1, 24889, Control_c, 3, 11, 69
1, 24896, Control_c, 3, 11, 68
1, 24903, Control_c, 3, 11, 67
1, 24910, Control_c, 3, 11, 66
1, 24917, Control_c, 3, 11, 65
1, 24924, Control_c, 3, 11, 64
1, 24931, Control_c, 3, 11, 63
1, 24945, Control_c, 3, 11, 62
1, 24952, Control_c, 3, 11, 61
1, 24959, Control_c, 3, 11, 60
1, 24960, Note_off_c, 1, 82, 64
1, 24960, Note_off_c, 1, 77, 64
1, 24960, Note_off_c, 4, 86, 64
1, 24960, Note_off_c, 3, 74, 64
1, 24960, Note_off_c, 0, 58, 64
1, 24960, Note_off_c, 0, 65, 64
1, 24960, Note_on_c, 0, 58, 100
1, 25440, Control_c, 3, 11, 127
1, 25440, Note_on_c, 7, 86, 100
1, 25440, Note_on_c, 2, 77, 100
1, 25440, Note_on_c, 4, 86, 100
1, 25440, Note_on_c, 3, 74, 100
1, 25920, Note_off_c, 7, 86, 64
1, 25920, Note_off_c, 2, 77, 64
1, 25920, Note_off_c, 4, 86, 64
1, 25920, Note_off_c, 3, 74, 64
1, 25920, Note_on_c, 7, 84, 100
1, 25920, Note_on_c, 2, 76, 100
1, 25920, Note_on_c, 4, 84, 100
1, 25920, Note_on_c, 3, 72, 100
1, 26400, Note_off_c, 7, 84, 64
1, 26400, Note_off_c, 2, 76, 64
1, 26400, Note_off_c, 4, 84, 64
1, 26400, Note_off_c, 3, 72, 64
1, 26400, Note_on_c, 7, 82, 100
1, 26400, Note_on_c, 2, 74, 100
1, 26400, Note_on_c, 4, 82, 100
1, 26400, Note_on_c, 3, 70, 100
1, 26880, Note_off_c, 0, 58, 64
1, 26880, Note_off_c, 7, 82, 64
1, 26880, Note_off_c, 2, 74, 64
1, 26880, Note_off_c, 4, 82, 64
1, 26880, Note_off_c, 3, 70, 64
1, 26880, Note_on_c, 6, 33, 100
1, 26880, Note_on_c, 5, 76, 100
1, 26880, Note_on_c, 5, 72, 100
1, 26880, Note_on_c, 8, 60, 100
1, 26880, Note_on_c, 8, 64, 100
1, 26880, Note_on_c, 0, 57, 100
1, 26880, Note_on_c, 7, 81, 100
1, 26880, Note_on_c, 2, 72, 100
1, 26880, Note_on_c, 4, 81, 100
1, 26880, Note_on_c, 3, 69, 100
1, 27120, Note_on_c, 1, 64, 100
1, 27360, Note_off_c, 1, 64, 64
1, 27360, Note_on_c, 1, 69, 100
1, 27840, Note_off_c, 1, 69, 64
1, 28080, Note_on_c, 1, 64, 100
1, 28320, Note_off_c, 1, 64, 64
1, 28320, Note_on_c, 1, 69, 100
1, 28560, Note_off_c, 5, 76, 64
1, 28560, Note_off_c, 5, 72, 64
1, 28560, Note_off_c, 1, 69, 64
1, 28560, Note_on_c, 1, 71, 100
1, 28560, Note_on_c, 5, 79, 90
1, 28560, Note_on_c, 5, 76, 90
1, 28800, Note_off_c, 7, 81, 64
1, 28800, Note_off_c, 2, 72, 64
1, 28800, Note_off_c, 4, 81, 64
1, 28800, Note_off_c, 3, 69, 64
1, 28800, Note_off_c, 1, 71, 64
1, 28800, Note_off_c, 5, 79, 64
1, 28800, Note_off_c, 5, 76, 64
1, 28800, Note_on_c, 1, 72, 100
1, 28800, Note_on_c, 5, 77, 100
1, 28800, Note_on_c, 5, 74, 100
1, 29040, Note_off_c, 1, 72, 64
1, 29040, Note_on_c, 1, 71, 100
1, 29280, Note_off_c, 1, 71, 64
1, 29280, Note_on_c, 7, 84, 100
1, 29280, Note_on_c, 2, 76, 100
1, 29280, Note_on_c, 4, 84, 100
1, 29280, Note_on_c, 3, 72, 100
1, 29280, Note_on_c, 1, 69, 100
1, 29520, Note_off_c, 1, 69, 64
1, 29520, Note_on_c, 1, 64, 100
1, 29760, Note_off_c, 7, 84, 64
1, 29760, Note_off_c, 2, 76, 64
1, 29760, Note_off_c, 4, 84, 64
1, 29760, Note_off_c, 3, 72, 64
1, 29760, Note_on_c, 7, 81, 100
1, 29760, Note_on_c, 2, 72, 100
1, 29760, Note_on_c, 4, 81, 100
1, 29760, Note_on_c, 3, 69, 100
1, 30240, Note_off_c, 1, 64, 64
1, 30240, Note_off_c, 7, 81, 64
1, 30240, Note_off_c, 2, 72, 64
1, 30240, Note_off_c, 4, 81, 64
1, 30240, Note_off_c, 3, 69, 64
1, 30240, Note_on_c, 1, 64, 100
1, 30240, Note_on_c, 7, 76, 100
1, 30240, Note_on_c, 2, 69, 100
1, 30240, Note_on_c, 4, 76, 100
1, 30240, Note_on_c, 3, 64, 100
1, 30720, Note_off_c, 6, 33, 64
1, 30720, Note_off_c, 8, 60, 64
1, 30720, Note_off_c, 8, 64, 64
1, 30720, Note_off_c, 0, 57, 64
1, 30720, Note_off_c, 5, 77, 64
1, 30720, Note_off_c, 5, 74, 64
1, 30720, Note_off_c, 1, 64, 64
1, 30720, Note_off_c, 7, 76, 64
1, 30720, Note_off_c, 2, 69, 64
1, 30720, Note_off_c, 4, 76, 64
1, 30720, Note_off_c, 3, 64, 64
1, 30720, Note_on_c, 6, 34, 100
1, 30720, Note_on_c, 8, 65, 100
1, 30720, Note_on_c, 8, 62, 100
1, 30720, Note_on_c, 0, 58, 100
1, 30720, Note_on_c, 5, 74, 100
1, 30720, Note_on_c, 5, 77, 100
1, 30720, Note_on_c, 1, 70, 100
1, 30720, Note_on_c, 7, 74, 100
1, 30720, Note_on_c, 2, 65, 100
1, 30720, Note_on_c, 4, 74, 100
1, 30720, Note_on_c, 3, 62, 100
1, 30960, Note_off_c, 1, 70, 64
1, 30960, Note_off_c, 7, 74, 64
1, 30960, Note_off_c, 2, 65, 64
1, 30960, Note_off_c, 4, 74, 64
1, 30960, Note_off_c, 3, 62, 64
1, 30960, Note_on_c, 1, 65, 100
1, 30960, Note_on_c, 7, 77, 100
1, 30960, Note_on_c, 2, 70, 100
1, 30960, Note_on_c, 4, 77, 100
1, 30960, Note_on_c, 3, 65, 100
1, 31200, Note_off_c, 1, 65, 64
1, 31200, Note_off_c, 7, 77, 64
1, 31200, Note_off_c, 2, 70, 64
1, 31200, Note_off_c, 4, 77, 64
1, 31200, Note_off_c, 3, 65, 64
1, 31200, Note_on_c, 1, 70, 100
1, 31200, Note_on_c, 7, 77, 100
1, 31200, Note_on_c, 2, 70, 100
1, 31200, Note_on_c, 4, 77, 100
1, 31200, Note_on_c, 3, 65, 100
1, 31920, Note_off_c, 1, 70, 64
1, 31920, Note_on_c, 1, 65, 100
1, 32160, Note_off_c, 1, 65, 64
1, 32160, Note_on_c, 1, 70, 100
1, 32400, Note_off_c, 5, 74, 64
1, 32400, Note_off_c, 5, 77, 64
1, 32400, Note_off_c, 1, 70, 64
1, 32400, Note_on_c, 1, 72, 100
1, 32400, Note_on_c, 5, 81, 90
1, 32400, Note_on_c, 5, 77, 90
1, 32640, Note_off_c, 7, 77, 64
1, 32640, Note_off_c, 2, 70, 64
1, 32640, Note_off_c, 4, 77, 64
1, 32640, Note_off_c, 3, 65, 64
1, 32640, Note_off_c, 1, 72, 64
1, 32640, Note_off_c, 5, 81, 64
1, 32640, Note_off_c, 5, 77, 64
1, 32640, Note_on_c, 1, 74, 100
1, 32640, Note_on_c, 5, 79, 100
1, 32640, Note_on_c, 5, 76, 100
1, 32880, Note_off_c, 1, 74, 64
1, 32880, Note_on_c, 1, 72, 100
1, 33120, Note_off_c, 1, 72, 64
1, 33120, Note_on_c, 7, 81, 100
1, 33120, Note_on_c, 2, 77, 100
1, 33120, Note_on_c, 4, 81, 100
1, 33120, Note_on_c, 3, 69, 100
1, 33120, Note_on_c, 1, 70, 100
1, 33360, Note_off_c, 1, 70, 64
1, 33360, Note_on_c, 1, 65, 100
1, 33600, Note_off_c, 7, 81, 64
1, 33600, Note_off_c, 2, 77, 64
1, 33600, Note_off_c, 4, 81, 64
1, 33600, Note_off_c, 3, 69, 64
1, 33600, Note_on_c, 7, 79, 100
1, 33600, Note_on_c, 2, 76, 100
1, 33600, Note_on_c, 4, 79, 100
1, 33600, Note_on_c, 3, 67, 100
1, 34080, Note_off_c, 1, 65, 64
1, 34080, Note_off_c, 7, 79, 64
1, 34080, Note_off_c, 2, 76, 64
1, 34080, Note_off_c, 4, 79, 64
1, 34080, Note_off_c, 3, 67, 64
1, 34080, Note_on_c, 1, 65, 100
1, 34080, Note_on_c, 7, 77, 100
1, 34080, Note_on_c, 2, 74, 100
1, 34080, Note_on_c, 4, 77, 100
1, 34080, Note_on_c, 3, 65, 100
1, 34560, Note_off_c, 6, 34, 64
1, 34560, Note_off_c, 8, 65, 64
1, 34560, Note_off_c, 8, 62, 64
1, 34560, Note_off_c, 0, 58, 64
1, 34560, Note_off_c, 5, 79, 64
1, 34560, Note_off_c, 5, 76, 64
1, 34560, Note_off_c, 1, 65, 64
1, 34560, Note_off_c, 7, 77, 64
1, 34560, Note_off_c, 2, 74, 64
1, 34560, Note_off_c, 4, 77, 64
1, 34560, Note_off_c, 3, 65, 64
1, 34560, Note_on_c, 6, 33, 100
1, 34560, Note_on_c, 8, 64, 100
1, 34560, Note_on_c, 8, 60, 100
1, 34560, Note_on_c, 0, 57, 100
1, 34560, Note_on_c, 5, 79, 100
1, 34560, Note_on_c, 5, 76, 100
1, 34560, Note_on_c, 1, 69, 100
1, 34560, Note_on_c, 7, 79, 100
1, 34560, Note_on_c, 2, 72, 100
1, 34560, Note_on_c, 4, 79, 100
1, 34560, Note_on_c, 3, 67, 100
1, 34800, Note_off_c, 1, 69, 64
1, 34800, Note_off_c, 7, 79, 64
1, 34800, Note_off_c, 4, 79, 64
1, 34800, Note_off_c, 3, 67, 64
1, 34800, Note_on_c, 1, 64, 100
1, 34800, Note_on_c, 7, 81, 100
1, 34800, Note_on_c, 4, 81, 100
1, 34800, Note_on_c, 3, 69, 100
1, 35040, Note_off_c, 2, 72, 64
1, 35040, Note_off_c, 1, 64, 64
1, 35040, Note_off_c, 7, 81, 64
1, 35040, Note_off_c, 4, 81, 64
1, 35040, Note_off_c, 3, 69, 64
1, 35040, Note_on_c, 2, 69, 100
1, 35040, Note_on_c, 1, 69, 100
1, 35040, Note_on_c, 7, 72, 100
1, 35040, Note_on_c, 4, 72, 100
1, 35040, Note_on_c, 3, 60, 100
1, 35760, Note_off_c, 1, 69, 64
1, 35760, Note_on_c, 1, 64, 100
1, 36000, Note_off_c, 5, 79, 64
1, 36000, Note_off_c, 5, 76, 64
1, 36000, Note_off_c, 1, 64, 64
1, 36000, Note_on_c, 5, 77, 100
1, 36000, Note_on_c, 5, 74, 100
1, 36000, Note_on_c, 1, 69, 100
1, 36240, Note_off_c, 1, 69, 64
1, 36240, Note_on_c, 1, 71, 100
1, 36480, Note_off_c, 2, 69, 64
1, 36480, Note_off_c, 7, 72, 64
1, 36480, Note_off_c, 4, 72, 64
1, 36480, Note_off_c, 3, 60, 64
1, 36480, Note_off_c, 5, 77, 64
1, 36480, Note_off_c, 5, 74, 64
1, 36480, Note_off_c, 1, 71, 64
1, 36480, Note_on_c, 5, 76, 100
1, 36480, Note_on_c, 5, 72, 100
1, 36480, Note_on_c, 1, 72, 100
1, 36960, Note_on_c, 2, 72, 100
1, 36960, Note_on_c, 7, 81, 100
1, 36960, Note_on_c, 4, 81, 100
1, 36960, Note_on_c, 3, 69, 100
1, 37440, Note_off_c, 2, 72, 64
1, 37440, Note_off_c, 7, 81, 64
1, 37440, Note_off_c, 4, 81, 64
1, 37440, Note_off_c, 3, 69, 64
1, 37440, Note_on_c, 2, 81, 100
1, 37440, Note_on_c, 7, 88, 100
1, 37440, Note_on_c, 4, 88, 100
1, 37440, Note_on_c, 3, 76, 100
1, 37920, Note_off_c, 2, 81, 64
1, 37920, Note_off_c, 7, 88, 64
1, 37920, Note_off_c, 4, 88, 64
1, 37920, Note_off_c, 3, 76, 64
1, 37920, Note_on_c, 2, 76, 100
1, 37920, Note_on_c, 7, 84, 100
1, 37920, Note_on_c, 4, 84, 100
1, 37920, Note_on_c, 3, 72, 100
1, 38400, Note_off_c, 6, 33, 64
1, 38400, Note_off_c, 8, 64, 64
1, 38400, Note_off_c, 8, 60, 64
1, 38400, Note_off_c, 0, 57, 64
1, 38400, Note_off_c, 5, 76, 64
1, 38400, Note_off_c, 5, 72, 64
1, 38400, Note_off_c, 1, 72, 64
1, 38400, Note_off_c, 2, 76, 64
1, 38400, Note_off_c, 7, 84, 64
1, 38400, Note_off_c, 4, 84, 64
1, 38400, Note_off_c, 3, 72, 64
1, 38400, Note_on_c, 8, 58, 100
1, 38400, Note_on_c, 8, 65, 100
1, 38400, Note_on_c, 0, 58, 100
1, 38400, Note_on_c, 5, 74, 100
1, 38400, Note_on_c, 5, 70, 100
1, 38400, Note_on_c, 2, 77, 100
1, 38400, Note_on_c, 7, 86, 100
1, 38400, Note_on_c, 4, 86, 100
1, 38400, Note_on_c, 3, 74, 100
1, 38640, Note_on_c, 0, 65, 100
1, 38880, Note_off_c, 0, 65, 64
1, 38880, Note_on_c, 0, 70, 100
1, 39120, Note_off_c, 0, 70, 64
1, 39120, Note_on_c, 0, 69, 100
1, 39360, Note_off_c, 0, 69, 64
1, 39360, Note_on_c, 0, 67, 100
1, 39600, Note_off_c, 0, 67, 64
1, 39600, Note_on_c, 0, 65, 100
1, 39840, Note_off_c, 0, 65, 64
1, 39840, Note_on_c, 0, 64, 100
1, 40080, Note_off_c, 0, 64, 64
1, 40080, Note_on_c, 0, 62, 100
1, 40320, Note_off_c, 7, 86, 64
1, 40320, Note_off_c, 0, 58, 64
1, 40320, Note_off_c, 2, 77, 64
1, 40320, Note_off_c, 4, 86, 64
1, 40320, Note_off_c, 3, 74, 64
1, 40320, Note_off_c, 0, 62, 64
1, 40320, Note_on_c, 0, 55, 100
1, 40560, Note_on_c, 0, 62, 100
1, 40800, Note_off_c, 0, 62, 64
1, 40800, Note_on_c, 5, 67, 100
1, 40800, Note_on_c, 0, 70, 100
1, 41040, Note_off_c, 0, 70, 64
1, 41040, Note_on_c, 0, 69, 100
1, 41280, Note_off_c, 0, 69, 64
1, 41280, Note_on_c, 0, 67, 100
1, 41520, Note_off_c, 0, 67, 64
1, 41520, Note_on_c, 0, 65, 100
1, 41760, Note_off_c, 0, 65, 64
1, 41760, Note_on_c, 0, 64, 100
1, 42000, Note_off_c, 0, 64, 64
1, 42000, Note_on_c, 0, 67, 100
1, 42240, Note_off_c, 8, 58, 64
1, 42240, Note_off_c, 8, 65, 64
1, 42240, Note_off_c, 5, 74, 64
1, 42240, Note_off_c, 5, 70, 64
1, 42240, Note_off_c, 0, 55, 64
1, 42240, Note_off_c, 5, 67, 64
1, 42240, Note_off_c, 0, 67, 64
1, 42240, Note_on_c, 8, 62, 100
1, 42240, Note_on_c, 8, 57, 100
1, 42240, Note_on_c, 5, 74, 100
1, 42240, Note_on_c, 5, 69, 100
1, 42240, Note_on_c, 5, 66, 100
1, 42240, Note_on_c, 0, 50, 100
1, 42480, Note_on_c, 0, 57, 100
1, 42720, Note_off_c, 0, 57, 64
1, 42720, Note_on_c, 0, 62, 100
1, 42960, Note_off_c, 0, 62, 64
1, 42960, Note_on_c, 0, 66, 100
1, 43200, Note_off_c, 0, 66, 64
1, 43200, Note_on_c, 0, 69, 100
1, 43440, Note_off_c, 0, 69, 64
1, 43440, Note_on_c, 0, 62, 100
1, 43680, Note_off_c, 0, 62, 64
1, 43680, Note_on_c, 0, 66, 100
1, 43920, Note_off_c, 0, 66, 64
1, 43920, Note_on_c, 0, 69, 100
1, 44160, Note_off_c, 0, 69, 64
1, 44160, Control_c, 8, 11, 127
1, 44160, Control_c, 5, 11, 127
1, 44160, Note_on_c, 0, 74, 100
1, 44167, Control_c, 8, 11, 126
1, 44167, Control_c, 5, 11, 126
1, 44293, Control_c, 8, 11, 125
1, 44293, Control_c, 5, 11, 125
1, 44342, Control_c, 5, 11, 124
1, 44349, Control_c, 8, 11, 124
1, 44384, Control_c, 5, 11, 123
1, 44384, Control_c, 8, 11, 123
1, 44419, Control_c, 5, 11, 122
1, 44419, Control_c, 8, 11, 122
1, 44447, Control_c, 5, 11, 121
1, 44454, Control_c, 8, 11, 121
1, 44475, Control_c, 5, 11, 120
1, 44482, Control_c, 8, 11, 120
1, 44503, Control_c, 5, 11, 119
1, 44503, Control_c, 8, 11, 119
1, 44524, Control_c, 5, 11, 118
1, 44531, Control_c, 8, 11, 118
1, 44545, Control_c, 5, 11, 117
1, 44552, Control_c, 8, 11, 117
1, 44566, Control_c, 5, 11, 116
1, 44573, Control_c, 8, 11, 116
1, 44587, Control_c, 5, 11, 115
1, 44594, Control_c, 8, 11, 115
1, 44601, Control_c, 5, 11, 114
1, 44608, Control_c, 8, 11, 114
1, 44622, Control_c, 5, 11, 113
1, 44629, Control_c, 8, 11, 113
1, 44636, Control_c, 5, 11, 112
1, 44650, Control_c, 8, 11, 112
1, 44657, Control_c, 5, 11, 111
1, 44664, Control_c, 8, 11, 111
1, 44671, Control_c, 5, 11, 110
1, 44678, Control_c, 8, 11, 110
1, 44685, Control_c, 5, 11, 109
1, 44699, Control_c, 8, 11, 109
1, 44706, Control_c, 5, 11, 108
1, 44713, Control_c, 8, 11, 108
1, 44720, Control_c, 5, 11, 107
1, 44727, Control_c, 8, 11, 107
1, 44734, Control_c, 5, 11, 106
1, 44741, Control_c, 8, 11, 106
1, 44748, Control_c, 5, 11, 105
1, 44755, Control_c, 8, 11, 105
1, 44762, Control_c, 5, 11, 104
1, 44769, Control_c, 8, 11, 104
1, 44776, Control_c, 5, 11, 103
1, 44783, Control_c, 8, 11, 103
1, 44783, Control_c, 5, 11, 102
1, 44797, Control_c, 8, 11, 102
1, 44797, Control_c, 5, 11, 101
1, 44811, Control_c, 8, 11, 101
1, 44811, Control_c, 5, 11, 100
1, 44825, Control_c, 8, 11, 100
1, 44825, Control_c, 5, 11, 99
1, 44839, Control_c, 8, 11, 99
1, 44839, Control_c, 5, 11, 98
1, 44846, Control_c, 8, 11, 98
1, 44846, Control_c, 5, 11, 97
1, 44860, Control_c, 8, 11, 97
1, 44860, Control_c, 5, 11, 96
1, 44874, Control_c, 8, 11, 96
1, 44874, Control_c, 5, 11, 95
1, 44881, Control_c, 8, 11, 95
1, 44881, Control_c, 5, 11, 94
1, 44895, Control_c, 8, 11, 94
1, 44895, Control_c, 5, 11, 93
1, 44902, Control_c, 5, 11, 92
1, 44909, Control_c, 8, 11, 93
1, 44916, Control_c, 5, 11, 91
1, 44916, Control_c, 8, 11, 92
1, 44923, Control_c, 5, 11, 90
1, 44930, Control_c, 8, 11, 91
1, 44937, Control_c, 5, 11, 89
1, 44937, Control_c, 8, 11, 90
1, 44944, Control_c, 5, 11, 88
1, 44951, Control_c, 8, 11, 89
1, 44958, Control_c, 5, 11, 87
1, 44958, Control_c, 8, 11, 88
1, 44965, Control_c, 5, 11, 86
1, 44972, Control_c, 8, 11, 87
1, 44979, Control_c, 5, 11, 85
1, 44979, Control_c, 8, 11, 86
1, 44986, Control_c, 5, 11, 84
1, 44993, Control_c, 8, 11, 85
1, 45000, Control_c, 5, 11, 83
1, 45000, Control_c, 8, 11, 84
1, 45007, Control_c, 5, 11, 82
1, 45014, Control_c, 8, 11, 83
1, 45014, Control_c, 5, 11, 81
1, 45021, Control_c, 8, 11, 82
1, 45028, Control_c, 5, 11, 80
1, 45028, Control_c, 8, 11, 81
1, 45035, Control_c, 5, 11, 79
1, 45042, Control_c, 8, 11, 80
1, 45042, Control_c, 5, 11, 78
1, 45049, Control_c, 8, 11, 79
1, 45056, Control_c, 5, 11, 77
1, 45063, Control_c, 8, 11, 78
1, 45063, Control_c, 5, 11, 76
1, 45070, Control_c, 8, 11, 77
1, 45070, Control_c, 5, 11, 75
1, 45077, Control_c, 8, 11, 76
1, 45077, Control_c, 5, 11, 74
1, 45091, Control_c, 8, 11, 75
1, 45091, Control_c, 5, 11, 73
1, 45098, Control_c, 8, 11, 74
1, 45098, Control_c, 5, 11, 72
1, 45105, Control_c, 8, 11, 73
1, 45105, Control_c, 5, 11, 71
1, 45112, Control_c, 8, 11, 72
1, 45112, Control_c, 5, 11, 70
1, 45120, Note_off_c, 8, 62, 64
1, 45120, Note_off_c, 8, 57, 64
1, 45120, Note_off_c, 5, 74, 64
1, 45120, Note_off_c, 5, 69, 64
1, 45120, Note_off_c, 5, 66, 64
1, 45120, Note_off_c, 0, 50, 64
1, 45120, Note_off_c, 0, 74, 64
1, 45120, Note_on_c, 9, 81, 90
1, 45240, Note_off_c, 9, 81, 64
1, 45600, Note_on_c, 11, 86, 100
1, 45600, Note_on_c, 1, 74, 100
1, 45840, Note_off_c, 11, 86, 64
1, 45840, Note_off_c, 1, 74, 64
1, 45840, Note_on_c, 11, 88, 100
1, 45840, Note_on_c, 1, 76, 100
1, 46080, Note_off_c, 11, 88, 64
1, 46080, Note_off_c, 1, 76, 64
1, 46080, Note_on_c, 0, 69, 90
1, 46080, Note_on_c, 0, 66, 90
1, 46080, Note_on_c, 0, 62, 100
1, 46080, Note_on_c, 11, 90, 100
1, 46080, Note_on_c, 1, 78, 100
1, 46560, Note_off_c, 11, 90, 64
1, 46560, Note_off_c, 1, 78, 64
1, 46560, Note_on_c, 11, 93, 100
1, 46560, Note_on_c, 1, 81, 100
1, 47040, Note_off_c, 0, 69, 64
1, 47040, Note_off_c, 0, 66, 64
1, 47040, Note_off_c, 0, 62, 64
1, 47040, Note_off_c, 11, 93, 64
1, 47040, Note_off_c, 1, 81, 64
1, 47040, Note_on_c, 0, 69, 90
1, 47040, Note_on_c, 0, 64, 90
1, 47040, Note_on_c, 0, 61, 100
1, 47040, Note_on_c, 11, 88, 100
1, 47040, Note_on_c, 1, 76, 100
1, 47520, Note_off_c, 0, 69, 64
1, 47520, Note_on_c, 0, 67, 90
1, 48000, Note_off_c, 0, 64, 64
1, 48000, Note_off_c, 0, 61, 64
1, 48000, Note_off_c, 11, 88, 64
1, 48000, Note_off_c, 1, 76, 64
1, 48000, Note_off_c, 0, 67, 64
1, 48000, Note_on_c, 11, 90, 100
1, 48000, Note_on_c, 1, 78, 100
1, 48000, Note_on_c, 0, 66, 90
1, 48000, Note_on_c, 0, 62, 90
1, 48000, Note_on_c, 0, 60, 100
1, 48480, Note_off_c, 11, 90, 64
1, 48480, Note_off_c, 1, 78, 64
1, 48480, Note_on_c, 11, 88, 100
1, 48480, Note_on_c, 1, 76, 100
1, 48720, Note_off_c, 11, 88, 64
1, 48720, Note_off_c, 1, 76, 64
1, 48720, Note_on_c, 11, 86, 100
1, 48720, Note_on_c, 1, 74, 100
1, 48960, Note_off_c, 0, 66, 64
1, 48960, Note_off_c, 0, 62, 64
1, 48960, Note_off_c, 0, 60, 64
1, 48960, Note_off_c, 11, 86, 64
1, 48960, Note_off_c, 1, 74, 64
1, 48960, Note_on_c, 0, 67, 90
1, 48960, Note_on_c, 0, 62, 90
1, 48960, Note_on_c, 0, 59, 100
1, 48960, Note_on_c, 11, 83, 100
1, 48960, Note_on_c, 1, 71, 100
1, 49200, Note_off_c, 11, 83, 64
1, 49200, Note_off_c, 1, 71, 64
1, 49200, Note_on_c, 11, 86, 100
1, 49200, Note_on_c, 1, 74, 100
1, 49440, Note_off_c, 11, 86, 64
1, 49440, Note_off_c, 1, 74, 64
1, 49440, Note_on_c, 11, 86, 100
1, 49440, Note_on_c, 1, 74, 100
1, 49680, Note_off_c, 11, 86, 64
1, 49680, Note_off_c, 1, 74, 64
1, 49680, Note_on_c, 11, 88, 100
1, 49680, Note_on_c, 1, 76, 100
1, 49920, Note_off_c, 0, 67, 64
1, 49920, Note_off_c, 0, 62, 64
1, 49920, Note_off_c, 0, 59, 64
1, 49920, Note_off_c, 11, 88, 64
1, 49920, Note_off_c, 1, 76, 64
1, 49920, Note_on_c, 0, 58, 100
1, 49920, Note_on_c, 11, 89, 100
1, 49920, Note_on_c, 1, 77, 100
1, 50160, Note_on_c, 0, 65, 90
1, 50400, Note_off_c, 11, 89, 64
1, 50400, Note_off_c, 1, 77, 64
1, 50400, Note_off_c, 0, 65, 64
1, 50400, Note_on_c, 11, 93, 100
1, 50400, Note_on_c, 1, 81, 100
1, 50400, Note_on_c, 0, 70, 90
1, 50880, Note_off_c, 0, 58, 64
1, 50880, Note_off_c, 11, 93, 64
1, 50880, Note_off_c, 1, 81, 64
1, 50880, Note_off_c, 0, 70, 64
1, 50880, Note_on_c, 11, 91, 100
1, 50880, Note_on_c, 1, 79, 100
1, 50880, Note_on_c, 0, 57, 100
1, 51120, Note_on_c, 0, 64, 90
1, 51360, Note_off_c, 11, 91, 64
1, 51360, Note_off_c, 1, 79, 64
1, 51360, Note_off_c, 0, 64, 64
1, 51360, Note_on_c, 11, 89, 100
1, 51360, Note_on_c, 1, 77, 100
1, 51360, Note_on_c, 0, 69, 90
1, 51600, Note_off_c, 11, 89, 64
1, 51600, Note_off_c, 1, 77, 64
1, 51600, Note_on_c, 11, 88, 100
1, 51600, Note_on_c, 1, 76, 100
1, 51840, Note_off_c, 0, 57, 64
1, 51840, Note_off_c, 0, 69, 64
1, 51840, Note_off_c, 11, 88, 64
1, 51840, Note_off_c, 1, 76, 64
1, 51840, Control_c, 5, 11, 127
1, 51840, Note_on_c, 0, 55, 100
1, 51840, Note_on_c, 11, 86, 100
1, 51840, Note_on_c, 1, 74, 100
1, 51840, Note_on_c, 5, 55, 100
1, 52080, Note_off_c, 5, 55, 64
1, 52080, Note_on_c, 5, 62, 100
1, 52080, Note_on_c, 0, 62, 90
1, 52320, Note_off_c, 5, 62, 64
1, 52320, Note_off_c, 0, 62, 64
1, 52320, Note_on_c, 5, 67, 100
1, 52320, Note_on_c, 0, 67, 90
1, 52560, Note_off_c, 5, 67, 64
1, 52560, Note_off_c, 0, 67, 64
1, 52560, Note_on_c, 5, 69, 100
1, 52560, Note_on_c, 0, 69, 90
1, 52800, Note_off_c, 5, 69, 64
1, 52800, Note_off_c, 0, 69, 64
1, 52800, Note_on_c, 5, 71, 100
1, 52800, Note_on_c, 0, 71, 90
1, 53040, Note_off_c, 5, 71, 64
1, 53040, Note_on_c, 5, 67, 100
1, 53280, Note_off_c, 5, 67, 64
1, 53280, Note_on_c, 5, 71, 100
1, 53520, Note_off_c, 5, 71, 64
1, 53520, Note_on_c, 5, 74, 100
1, 53760, Note_off_c, 11, 86, 64
1, 53760, Note_off_c, 0, 55, 64
1, 53760, Note_off_c, 1, 74, 64
1, 53760, Note_off_c, 0, 71, 64
1, 53760, Note_off_c, 5, 74, 64
1, 53760, Control_c, 8, 11, 127
1, 53760, Note_on_c, 0, 55, 100
1, 53760, Note_on_c, 5, 79, 100
1, 54000, Note_on_c, 0, 62, 90
1, 54240, Note_off_c, 0, 62, 64
1, 54240, Note_on_c, 8, 71, 100
1, 54240, Note_on_c, 0, 67, 90
1, 54480, Note_off_c, 5, 79, 64
1, 54480, Note_off_c, 0, 67, 64
1, 54480, Note_on_c, 5, 78, 100
1, 54480, Note_on_c, 0, 69, 90
1, 54600, Note_off_c, 5, 78, 64
1, 54600, Note_on_c, 5, 79, 100
1, 54720, Note_off_c, 8, 71, 64
1, 54720, Note_off_c, 0, 69, 64
1, 54720, Note_off_c, 5, 79, 64
1, 54720, Note_on_c, 8, 69, 100
1, 54720, Note_on_c, 0, 71, 90
1, 54720, Note_on_c, 5, 78, 100
1, 54960, Note_off_c, 0, 71, 64
1, 54960, Note_off_c, 5, 78, 64
1, 54960, Note_on_c, 0, 69, 90
1, 54960, Note_on_c, 5, 76, 100
1, 55200, Note_off_c, 8, 69, 64
1, 55200, Note_off_c, 0, 69, 64
1, 55200, Note_off_c, 5, 76, 64
1, 55200, Note_on_c, 8, 67, 100
1, 55200, Note_on_c, 0, 67, 90
1, 55200, Note_on_c, 5, 74, 100
1, 55440, Note_off_c, 0, 67, 64
1, 55440, Note_off_c, 5, 74, 64
1, 55440, Note_on_c, 0, 62, 90
1, 55440, Note_on_c, 5, 76, 100
1, 55680, Note_off_c, 0, 55, 64
1, 55680, Note_off_c, 8, 67, 64
1, 55680, Note_off_c, 0, 62, 64
1, 55680, Note_off_c, 5, 76, 64
1, 55680, Note_on_c, 8, 69, 100
1, 55680, Note_on_c, 0, 50, 100
1, 55680, Note_on_c, 5, 78, 100
1, 55920, Note_on_c, 0, 57, 90
1, 56160, Note_off_c, 0, 57, 64
1, 56160, Note_on_c, 2, 74, 100
1, 56160, Note_on_c, 0, 62, 90
1, 56400, Note_off_c, 2, 74, 64
1, 56400, Note_off_c, 0, 62, 64
1, 56400, Note_on_c, 2, 73, 100
1, 56400, Note_on_c, 0, 64, 90
1, 56640, Note_off_c, 2, 73, 64
1, 56640, Note_off_c, 0, 64, 64
1, 56640, Note_on_c, 2, 76, 100
1, 56640, Note_on_c, 0, 66, 90
1, 56880, Note_off_c, 2, 76, 64
1, 56880, Note_on_c, 2, 74, 100
1, 57120, Note_off_c, 8, 69, 64
1, 57120, Note_off_c, 5, 78, 64
1, 57120, Note_off_c, 2, 74, 64
1, 57120, Note_on_c, 8, 67, 100
1, 57120, Note_on_c, 5, 76, 100
1, 57120, Note_on_c, 2, 73, 100
1, 57360, Note_off_c, 8, 67, 64
1, 57360, Note_off_c, 5, 76, 64
1, 57360, Note_off_c, 2, 73, 64
1, 57360, Note_on_c, 8, 66, 100
1, 57360, Note_on_c, 5, 74, 100
1, 57360, Note_on_c, 2, 74, 100
1, 57600, Note_off_c, 0, 50, 64
1, 57600, Note_off_c, 0, 66, 64
1, 57600, Note_off_c, 8, 66, 64
1, 57600, Note_off_c, 5, 74, 64
1, 57600, Note_off_c, 2, 74, 64
1, 57600, Note_on_c, 0, 46, 100
1, 57600, Note_on_c, 8, 62, 100
1, 57600, Note_on_c, 5, 70, 100
1, 57600, Note_on_c, 2, 70, 100
1, 57840, Note_on_c, 0, 58, 90
1, 58080, Note_off_c, 0, 58, 64
1, 58080, Note_on_c, 0, 62, 90
1, 58320, Note_off_c, 0, 62, 64
1, 58320, Note_on_c, 0, 65, 90
1, 58560, Note_off_c, 0, 65, 64
1, 58560, Control_c, 2, 11, 127
1, 58560, Note_on_c, 0, 70, 90
1, 58567, Control_c, 2, 11, 126
1, 58637, Control_c, 2, 11, 125
1, 58665, Control_c, 2, 11, 124
1, 58686, Control_c, 2, 11, 123
1, 58707, Control_c, 2, 11, 122
1, 58721, Control_c, 2, 11, 121
1, 58735, Control_c, 2, 11, 120
1, 58749, Control_c, 2, 11, 119
1, 58763, Control_c, 2, 11, 118
1, 58777, Control_c, 2, 11, 117
1, 58791, Control_c, 2, 11, 116
1, 58798, Control_c, 2, 11, 115
1, 58800, Note_on_c, 1, 74, 100
1, 58812, Control_c, 2, 11, 114
1, 58819, Control_c, 2, 11, 113
1, 58833, Control_c, 2, 11, 112
1, 58840, Control_c, 2, 11, 111
1, 58847, Control_c, 2, 11, 110
1, 58861, Control_c, 2, 11, 109
1, 58868, Control_c, 2, 11, 108
1, 58875, Control_c, 2, 11, 107
1, 58882, Control_c, 2, 11, 106
1, 58889, Control_c, 2, 11, 105
1, 58896, Control_c, 2, 11, 104
1, 58903, Control_c, 2, 11, 103
1, 58917, Control_c, 2, 11, 102
1, 58924, Control_c, 2, 11, 101
1, 58931, Control_c, 2, 11, 100
1, 58938, Control_c, 2, 11, 99
1, 58945, Control_c, 2, 11, 97
1, 58952, Control_c, 2, 11, 96
1, 58959, Control_c, 2, 11, 95
1, 58966, Control_c, 2, 11, 94
1, 58973, Control_c, 2, 11, 93
1, 58980, Control_c, 2, 11, 92
1, 58987, Control_c, 2, 11, 91
1, 58994, Control_c, 2, 11, 90
1, 59001, Control_c, 2, 11, 88
1, 59008, Control_c, 2, 11, 87
1, 59015, Control_c, 2, 11, 86
1, 59022, Control_c, 2, 11, 85
1, 59029, Control_c, 2, 11, 83
1, 59036, Control_c, 2, 11, 82
1, 59040, Note_off_c, 0, 46, 64
1, 59040, Note_off_c, 8, 62, 64
1, 59040, Note_off_c, 5, 70, 64
1, 59040, Note_off_c, 2, 70, 64
1, 59040, Note_off_c, 0, 70, 64
1, 59040, Note_off_c, 1, 74, 64
1, 59040, Note_on_c, 4, 77, 100
1, 59040, Note_on_c, 3, 65, 100
1, 59040, Note_on_c, 1, 72, 100
1, 59280, Note_off_c, 4, 77, 64
1, 59280, Note_off_c, 3, 65, 64
1, 59280, Note_off_c, 1, 72, 64
1, 59280, Note_on_c, 4, 79, 100
1, 59280, Note_on_c, 3, 67, 100
1, 59280, Note_on_c, 1, 70, 100
1, 59520, Note_off_c, 4, 79, 64
1, 59520, Note_off_c, 3, 67, 64
1, 59520, Note_off_c, 1, 70, 64
1, 59520, Control_c, 2, 11, 127
1, 59520, Note_on_c, 0, 65, 100
1, 59520, Note_on_c, 4, 81, 100
1, 59520, Note_on_c, 3, 69, 100
1, 59520, Note_on_c, 1, 72, 100
1, 60000, Note_off_c, 4, 81, 64
1, 60000, Note_off_c, 3, 69, 64
1, 60000, Note_off_c, 1, 72, 64
1, 60000, Note_on_c, 4, 84, 100
1, 60000, Note_on_c, 3, 72, 100
1, 60000, Note_on_c, 1, 77, 100
1, 60000, Note_on_c, 1, 81, 100
1, 60480, Note_off_c, 0, 65, 64
1, 60480, Note_off_c, 4, 84, 64
1, 60480, Note_off_c, 3, 72, 64
1, 60480, Note_off_c, 1, 77, 64
1, 60480, Note_off_c, 1, 81, 64
1, 60480, Note_on_c, 0, 64, 100
1, 60480, Note_on_c, 4, 79, 100
1, 60480, Note_on_c, 3, 67, 100
1, 60480, Note_on_c, 1, 72, 100
1, 60480, Note_on_c, 1, 76, 100
1, 60960, Control_c, 3, 11, 127
1, 60967, Control_c, 3, 11, 126
1, 61030, Control_c, 3, 11, 125
1, 61058, Control_c, 3, 11, 124
1, 61079, Control_c, 3, 11, 123
1, 61100, Control_c, 3, 11, 122
1, 61114, Control_c, 3, 11, 121
1, 61128, Control_c, 3, 11, 120
1, 61142, Control_c, 3, 11, 119
1, 61156, Control_c, 3, 11, 118
1, 61163, Control_c, 3, 11, 117
1, 61177, Control_c, 3, 11, 116
1, 61184, Control_c, 3, 11, 115
1, 61198, Control_c, 3, 11, 114
1, 61205, Control_c, 3, 11, 113
1, 61212, Control_c, 3, 11, 112
1, 61226, Control_c, 3, 11, 111
1, 61233, Control_c, 3, 11, 110
1, 61240, Control_c, 3, 11, 109
1, 61247, Control_c, 3, 11, 108
1, 61254, Control_c, 3, 11, 107
1, 61261, Control_c, 3, 11, 106
1, 61268, Control_c, 3, 11, 105
1, 61275, Control_c, 3, 11, 104
1, 61282, Control_c, 3, 11, 103
1, 61289, Control_c, 3, 11, 102
1, 61296, Control_c, 3, 11, 101
1, 61303, Control_c, 3, 11, 100
1, 61310, Control_c, 3, 11, 99
1, 61317, Control_c, 3, 11, 98
1, 61324, Control_c, 3, 11, 97
1, 61331, Control_c, 3, 11, 96
1, 61338, Control_c, 3, 11, 95
1, 61345, Control_c, 3, 11, 94
1, 61352, Control_c, 3, 11, 92
1, 61359, Control_c, 3, 11, 91
1, 61366, Control_c, 3, 11, 90
1, 61373, Control_c, 3, 11, 89
1, 61380, Control_c, 3, 11, 87
1, 61387, Control_c, 3, 11, 86
1, 61394, Control_c, 3, 11, 85
1, 61401, Control_c, 3, 11, 83
1, 61408, Control_c, 3, 11, 82
1, 61415, Control_c, 3, 11, 81
1, 61422, Control_c, 3, 11, 79
1, 61429, Control_c, 3, 11, 78
1, 61436, Control_c, 3, 11, 76
1, 61440, Note_off_c, 0, 64, 64
1, 61440, Note_off_c, 4, 79, 64
1, 61440, Note_off_c, 3, 67, 64
1, 61440, Note_off_c, 1, 72, 64
1, 61440, Note_off_c, 1, 76, 64
1, 61440, Control_c, 3, 11, 127
1, 61440, Note_on_c, 0, 62, 100
1, 61440, Note_on_c, 4, 81, 100
1, 61440, Note_on_c, 1, 72, 100
1, 61440, Note_on_c, 1, 77, 100
1, 61440, Note_on_c, 3, 69, 100
1, 61920, Note_off_c, 0, 62, 64
1, 61920, Note_off_c, 4, 81, 64
1, 61920, Note_off_c, 1, 72, 64
1, 61920, Note_off_c, 1, 77, 64
1, 61920, Note_off_c, 3, 69, 64
1, 61920, Note_on_c, 0, 60, 100
1, 61920, Note_on_c, 4, 79, 100
1, 61920, Note_on_c, 1, 74, 100
1, 61920, Note_on_c, 1, 72, 100
1, 61920, Note_on_c, 3, 67, 100
1, 62160, Note_off_c, 4, 79, 64
1, 62160, Note_off_c, 3, 67, 64
1, 62160, Note_on_c, 4, 77, 100
1, 62160, Note_on_c, 3, 65, 100
1, 62400, Note_off_c, 0, 60, 64
1, 62400, Note_off_c, 1, 74, 64
1, 62400, Note_off_c, 1, 72, 64
1, 62400, Note_off_c, 4, 77, 64
1, 62400, Note_off_c, 3, 65, 64
1, 62400, Note_on_c, 0, 58, 100
1, 62400, Note_on_c, 1, 70, 100
1, 62400, Note_on_c, 4, 74, 100
1, 62400, Note_on_c, 3, 62, 100
1, 62640, Note_off_c, 4, 74, 64
1, 62640, Note_off_c, 3, 62, 64
1, 62640, Note_on_c, 4, 77, 100
1, 62640, Note_on_c, 3, 65, 100
1, 62880, Note_off_c, 0, 58, 64
1, 62880, Note_off_c, 1, 70, 64
1, 62880, Note_off_c, 4, 77, 64
1, 62880, Note_off_c, 3, 65, 64
1, 62880, Note_on_c, 0, 55, 100
1, 62880, Note_on_c, 1, 72, 100
1, 62880, Note_on_c, 1, 70, 100
1, 62880, Note_on_c, 4, 77, 100
1, 62880, Note_on_c, 3, 65, 100
1, 63120, Note_off_c, 4, 77, 64
1, 63120, Note_off_c, 3, 65, 64
1, 63120, Note_on_c, 4, 79, 100
1, 63120, Note_on_c, 3, 67, 100
1, 63360, Note_off_c, 0, 55, 64
1, 63360, Note_off_c, 1, 72, 64
1, 63360, Note_off_c, 1, 70, 64
1, 63360, Note_off_c, 4, 79, 64
1, 63360, Note_off_c, 3, 67, 64
1, 63360, Note_on_c, 0, 53, 100
1, 63360, Control_c, 0, 7, 106
1, 63360, Note_on_c, 1, 72, 100
1, 63360, Note_on_c, 1, 77, 100
1, 63360, Control_c, 1, 7, 96
1, 63360, Note_on_c, 4, 81, 100
1, 63360, Control_c, 4, 7, 88
1, 63360, Note_on_c, 3, 69, 100
1, 63360, Control_c, 3, 7, 110
1, 63395, Control_c, 3, 7, 108
1, 63396, Control_c, 0, 7, 105
1, 63400, Control_c, 1, 7, 95
1, 63403, Control_c, 4, 7, 87
1, 63430, Control_c, 3, 7, 107
1, 63432, Control_c, 0, 7, 104
1, 63440, Control_c, 1, 7, 94
1, 63447, Control_c, 4, 7, 86
1, 63465, Control_c, 3, 7, 106
1, 63469, Control_c, 0, 7, 102
1, 63480, Control_c, 1, 7, 93
1, 63491, Control_c, 4, 7, 85
1, 63499, Control_c, 3, 7, 106
1, 63505, Control_c, 0, 7, 101
1, 63520, Control_c, 1, 7, 92
1, 63534, Control_c, 4, 7, 84
1, 63534, Control_c, 3, 7, 105
1, 63541, Control_c, 0, 7, 101
1, 63560, Control_c, 1, 7, 91
1, 63569, Control_c, 3, 7, 104
1, 63577, Control_c, 0, 7, 100
1, 63578, Control_c, 4, 7, 83
1, 63600, Control_c, 1, 7, 90
1, 63600, Note_on_c, 0, 60, 100
1, 63604, Control_c, 3, 7, 103
1, 63613, Control_c, 0, 7, 99
1, 63622, Control_c, 4, 7, 82
1, 63639, Control_c, 3, 7, 102
1, 63640, Control_c, 1, 7, 89
1, 63650, Control_c, 0, 7, 97
1, 63665, Control_c, 4, 7, 81
1, 63674, Control_c, 3, 7, 101
1, 63680, Control_c, 1, 7, 88
1, 63686, Control_c, 0, 7, 97
1, 63709, Control_c, 4, 7, 80
1, 63709, Control_c, 3, 7, 100
1, 63720, Control_c, 1, 7, 87
1, 63722, Control_c, 0, 7, 96
1, 63744, Control_c, 3, 7, 99
1, 63753, Control_c, 4, 7, 79
1, 63758, Control_c, 0, 7, 95
1, 63760, Control_c, 1, 7, 86
1, 63779, Control_c, 3, 7, 98
1, 63795, Control_c, 0, 7, 93
1, 63796, Control_c, 4, 7, 78
1, 63800, Control_c, 1, 7, 85
1, 63814, Control_c, 3, 7, 97
1, 63831, Control_c, 0, 7, 93
1, 63840, Note_off_c, 1, 72, 64
1, 63840, Note_off_c, 1, 77, 64
1, 63840, Note_off_c, 4, 81, 64
1, 63840, Note_off_c, 3, 69, 64
1, 63840, Note_off_c, 0, 60, 64
1, 63840, Note_on_c, 4, 84, 100
1, 63840, Control_c, 4, 7, 77
1, 63840, Note_on_c, 1, 77, 100
1, 63840, Note_on_c, 1, 81, 100
1, 63840, Control_c, 1, 7, 84
1, 63840, Note_on_c, 3, 72, 100
1, 63840, Note_on_c, 0, 69, 100
1, 63849, Control_c, 3, 7, 96
1, 63867, Control_c, 0, 7, 92
1, 63880, Control_c, 1, 7, 83
1, 63883, Control_c, 4, 7, 76
1, 63883, Control_c, 3, 7, 95
1, 63903, Control_c, 0, 7, 91
1, 63918, Control_c, 3, 7, 94
1, 63920, Control_c, 1, 7, 82
1, 63927, Control_c, 4, 7, 75
1, 63939, Control_c, 0, 7, 90
1, 63953, Control_c, 3, 7, 93
1, 63960, Control_c, 1, 7, 81
1, 63971, Control_c, 4, 7, 74
1, 63976, Control_c, 0, 7, 89
1, 63988, Control_c, 3, 7, 92
1, 64000, Control_c, 1, 7, 80
1, 64012, Control_c, 0, 7, 88
1, 64014, Control_c, 4, 7, 73
1, 64023, Control_c, 3, 7, 91
1, 64040, Control_c, 1, 7, 79
1, 64048, Control_c, 0, 7, 87
1, 64058, Control_c, 4, 7, 72
1, 64058, Control_c, 3, 7, 90
1, 64080, Control_c, 1, 7, 78
1, 64084, Control_c, 0, 7, 86
1, 64093, Control_c, 3, 7, 89
1, 64102, Control_c, 4, 7, 71
1, 64120, Control_c, 1, 7, 77
1, 64121, Control_c, 0, 7, 85
1, 64128, Control_c, 3, 7, 88
1, 64145, Control_c, 4, 7, 70
1, 64157, Control_c, 0, 7, 84
1, 64160, Control_c, 1, 7, 76
1, 64163, Control_c, 3, 7, 87
1, 64189, Control_c, 4, 7, 69
1, 64193, Control_c, 0, 7, 83
1, 64198, Control_c, 3, 7, 86
1, 64200, Control_c, 1, 7, 75
1, 64229, Control_c, 0, 7, 82
1, 64232, Control_c, 4, 7, 68
1, 64232, Control_c, 3, 7, 85
1, 64240, Control_c, 1, 7, 74
1, 64265, Control_c, 0, 7, 81
1, 64267, Control_c, 3, 7, 84
1, 64276, Control_c, 4, 7, 67
1, 64280, Control_c, 1, 7, 73
1, 64302, Control_c, 0, 7, 80
1, 64302, Control_c, 3, 7, 83
1, 64320, Note_off_c, 0, 53, 64
1, 64320, Note_off_c, 4, 84, 64
1, 64320, Note_off_c, 1, 77, 64
1, 64320, Note_off_c, 1, 81, 64
1, 64320, Note_off_c, 3, 72, 64
1, 64320, Note_off_c, 0, 69, 64
1, 64320, Note_on_c, 4, 79, 100
1, 64320, Control_c, 4, 7, 66
1, 64320, Note_on_c, 1, 76, 100
1, 64320, Note_on_c, 1, 72, 100
1, 64320, Control_c, 1, 7, 72
1, 64320, Note_on_c, 0, 48, 100
1, 64320, Note_on_c, 3, 67, 100
1, 64337, Control_c, 3, 7, 82
1, 64338, Control_c, 0, 7, 79
1, 64360, Control_c, 1, 7, 71
1, 64363, Control_c, 4, 7, 65
1, 64372, Control_c, 3, 7, 81
1, 64374, Control_c, 0, 7, 78
1, 64400, Control_c, 1, 7, 70
1, 64407, Control_c, 4, 7, 64
1, 64407, Control_c, 3, 7, 80
1, 64410, Control_c, 0, 7, 77
1, 64440, Control_c, 1, 7, 69
1, 64442, Control_c, 3, 7, 79
1, 64447, Control_c, 0, 7, 76
1, 64451, Control_c, 4, 7, 63
1, 64477, Control_c, 3, 7, 78
1, 64480, Control_c, 1, 7, 68
1, 64483, Control_c, 0, 7, 75
1, 64494, Control_c, 4, 7, 62
1, 64512, Control_c, 3, 7, 77
1, 64519, Control_c, 0, 7, 74
1, 64520, Control_c, 1, 7, 67
1, 64538, Control_c, 4, 7, 61
1, 64547, Control_c, 3, 7, 76
1, 64555, Control_c, 0, 7, 73
1, 64560, Control_c, 1, 7, 66
1, 64560, Note_on_c, 0, 55, 100
1, 64582, Control_c, 4, 7, 60
1, 64582, Control_c, 3, 7, 75
1, 64591, Control_c, 0, 7, 72
1, 64600, Control_c, 1, 7, 65
1, 64616, Control_c, 3, 7, 74
1, 64625, Control_c, 4, 7, 59
1, 64628, Control_c, 0, 7, 71
1, 64640, Control_c, 1, 7, 64
1, 64651, Control_c, 3, 7, 73
1, 64664, Control_c, 0, 7, 70
1, 64669, Control_c, 4, 7, 58
1, 64680, Control_c, 1, 7, 63
1, 64686, Control_c, 3, 7, 72
1, 64700, Control_c, 0, 7, 69
1, 64712, Control_c, 4, 7, 57
1, 64720, Control_c, 1, 7, 62
1, 64721, Control_c, 3, 7, 71
1, 64736, Control_c, 0, 7, 68
1, 64756, Control_c, 4, 7, 56
1, 64756, Control_c, 3, 7, 70
1, 64760, Control_c, 1, 7, 61
1, 64773, Control_c, 0, 7, 67
1, 64791, Control_c, 3, 7, 69
1, 64800, Note_off_c, 4, 79, 64
1, 64800, Note_off_c, 1, 76, 64
1, 64800, Note_off_c, 1, 72, 64
1, 64800, Note_off_c, 3, 67, 64
1, 64800, Note_off_c, 0, 55, 64
1, 64800, Note_on_c, 4, 77, 100
1, 64800, Control_c, 4, 7, 55
1, 64800, Note_on_c, 1, 72, 100
1, 64800, Note_on_c, 1, 74, 100
1, 64800, Control_c, 1, 7, 60
1, 64800, Note_on_c, 0, 62, 100
1, 64800, Note_on_c, 3, 65, 100
1, 64809, Control_c, 0, 7, 66
1, 64826, Control_c, 3, 7, 68
1, 64840, Control_c, 1, 7, 59
1, 64843, Control_c, 4, 7, 54
1, 64845, Control_c, 0, 7, 65
1, 64861, Control_c, 3, 7, 67
1, 64880, Control_c, 1, 7, 58
1, 64881, Control_c, 0, 7, 64
1, 64887, Control_c, 4, 7, 53
1, 64896, Control_c, 3, 7, 66
1, 64917, Control_c, 0, 7, 63
1, 64920, Control_c, 1, 7, 57
1, 64931, Control_c, 4, 7, 52
1, 64931, Control_c, 3, 7, 65
1, 64954, Control_c, 0, 7, 62
1, 64960, Control_c, 1, 7, 56
1, 64966, Control_c, 3, 7, 64
1, 64974, Control_c, 4, 7, 51
1, 64990, Control_c, 0, 7, 61
1, 65000, Control_c, 1, 7, 55
1, 65000, Control_c, 3, 7, 63
1, 65018, Control_c, 4, 7, 50
1, 65026, Control_c, 0, 7, 60
1, 65035, Control_c, 3, 7, 62
1, 65040, Note_off_c, 4, 77, 64
1, 65040, Note_off_c, 3, 65, 64
1, 65040, Control_c, 1, 7, 54
1, 65040, Note_on_c, 4, 76, 100
1, 65040, Note_on_c, 3, 64, 100
1, 65061, Control_c, 4, 7, 49
1, 65062, Control_c, 0, 7, 59
1, 65070, Control_c, 3, 7, 61
1, 65080, Control_c, 1, 7, 53
1, 65099, Control_c, 0, 7, 58
1, 65105, Control_c, 4, 7, 48
1, 65105, Control_c, 3, 7, 60
1, 65120, Control_c, 1, 7, 52
1, 65135, Control_c, 0, 7, 57
1, 65140, Control_c, 3, 7, 59
1, 65149, Control_c, 4, 7, 47
1, 65160, Control_c, 1, 7, 51
1, 65171, Control_c, 0, 7, 56
1, 65175, Control_c, 3, 7, 58
1, 65192, Control_c, 4, 7, 46
1, 65200, Control_c, 1, 7, 50
1, 65207, Control_c, 0, 7, 55
1, 65210, Control_c, 3, 7, 57
1, 65236, Control_c, 4, 7, 45
1, 65240, Control_c, 1, 7, 49
1, 65243, Control_c, 0, 7, 54
1, 65245, Control_c, 3, 7, 56
1, 65280, Note_off_c, 0, 48, 64
1, 65280, Note_off_c, 1, 72, 64
1, 65280, Note_off_c, 1, 74, 64
1, 65280, Note_off_c, 0, 62, 64
1, 65280, Note_off_c, 4, 76, 64
1, 65280, Note_off_c, 3, 64, 64
1, 65280, Note_on_c, 4, 74, 100
1, 65280, Control_c, 4, 7, 44
1, 65280, Note_on_c, 1, 70, 100
1, 65280, Control_c, 1, 7, 48
1, 65280, Note_on_c, 0, 46, 100
1, 65280, Control_c, 0, 7, 53
1, 65280, Note_on_c, 3, 62, 100
1, 65280, Control_c, 3, 7, 55
1, 65315, Control_c, 3, 7, 54
1, 65316, Control_c, 0, 7, 52
1, 65320, Control_c, 1, 7, 47
1, 65323, Control_c, 4, 7, 43
1, 65349, Control_c, 3, 7, 53
1, 65352, Control_c, 0, 7, 51
1, 65360, Control_c, 1, 7, 46
1, 65367, Control_c, 4, 7, 42
1, 65384, Control_c, 3, 7, 52
1, 65388, Control_c, 0, 7, 50
1, 65400, Control_c, 1, 7, 45
1, 65411, Control_c, 4, 7, 41
1, 65419, Control_c, 3, 7, 51
1, 65425, Control_c, 0, 7, 49
1, 65440, Control_c, 1, 7, 44
1, 65454, Control_c, 4, 7, 40
1, 65454, Control_c, 3, 7, 50
1, 65461, Control_c, 0, 7, 48
1, 65480, Control_c, 1, 7, 43
1, 65489, Control_c, 3, 7, 49
1, 65497, Control_c, 0, 7, 47
1, 65498, Control_c, 4, 7, 39
1, 65520, Control_c, 1, 7, 42
1, 65520, Note_on_c, 0, 58, 100
1, 65524, Control_c, 3, 7, 48
1, 65533, Control_c, 0, 7, 46
1, 65541, Control_c, 4, 7, 38
1, 65559, Control_c, 3, 7, 47
1, 65560, Control_c, 1, 7, 41
1, 65569, Control_c, 0, 7, 45
1, 65585, Control_c, 4, 7, 37
1, 65594, Control_c, 3, 7, 46
1, 65600, Control_c, 1, 7, 40
1, 65606, Control_c, 0, 7, 44
1, 65629, Control_c, 4, 7, 36
1, 65629, Control_c, 3, 7, 45
1, 65640, Control_c, 1, 7, 39
1, 65642, Control_c, 0, 7, 43
1, 65664, Control_c, 3, 7, 44
1, 65672, Control_c, 4, 7, 35
1, 65678, Control_c, 0, 7, 42
1, 65680, Control_c, 1, 7, 38
1, 65699, Control_c, 3, 7, 43
1, 65714, Control_c, 0, 7, 41
1, 65716, Control_c, 4, 7, 34
1, 65720, Control_c, 1, 7, 37
1, 65733, Control_c, 3, 7, 42
1, 65751, Control_c, 0, 7, 40
1, 65760, Control_c, 4, 7, 33
1, 65760, Control_c, 1, 7, 36
1, 65760, Control_c, 3, 11, 127
1, 65760, Note_on_c, 0, 62, 100
1, 65767, Control_c, 3, 11, 126
1, 65768, Control_c, 3, 7, 41
1, 65787, Control_c, 0, 7, 39
1, 65800, Control_c, 1, 7, 35
1, 65803, Control_c, 4, 7, 32
1, 65803, Control_c, 3, 7, 40
1, 65823, Control_c, 0, 7, 38
1, 65837, Control_c, 3, 11, 125
1, 65838, Control_c, 3, 7, 39
1, 65840, Control_c, 1, 7, 34
1, 65847, Control_c, 4, 7, 31
1, 65859, Control_c, 0, 7, 37
1, 65872, Control_c, 3, 11, 124
1, 65873, Control_c, 3, 7, 38
1, 65880, Control_c, 1, 7, 33
1, 65891, Control_c, 4, 7, 30
1, 65895, Control_c, 0, 7, 36
1, 65900, Control_c, 3, 11, 123
1, 65908, Control_c, 3, 7, 37
1, 65914, Control_c, 3, 11, 122
1, 65920, Control_c, 1, 7, 32
1, 65932, Control_c, 0, 7, 35
1, 65934, Control_c, 4, 7, 29
1, 65935, Control_c, 3, 11, 121
1, 65943, Control_c, 3, 7, 36
1, 65949, Control_c, 3, 11, 120
1, 65960, Control_c, 1, 7, 31
1, 65968, Control_c, 0, 7, 34
1, 65970, Control_c, 3, 11, 119
1, 65978, Control_c, 4, 7, 28
1, 65978, Control_c, 3, 7, 35
1, 65984, Control_c, 3, 11, 118
1, 65998, Control_c, 3, 11, 117
1, 66000, Control_c, 1, 7, 30
1, 66000, Note_on_c, 0, 65, 100
1, 66004, Control_c, 0, 7, 33
1, 66005, Control_c, 3, 11, 116
1, 66013, Control_c, 3, 7, 34
1, 66019, Control_c, 3, 11, 115
1, 66021, Control_c, 4, 7, 27
1, 66033, Control_c, 3, 11, 114
1, 66040, Control_c, 1, 7, 29
1, 66040, Control_c, 0, 7, 32
1, 66040, Control_c, 3, 11, 113
1, 66048, Control_c, 3, 7, 33
1, 66054, Control_c, 3, 11, 112
1, 66061, Control_c, 3, 11, 111
1, 66065, Control_c, 4, 7, 26
1, 66075, Control_c, 3, 11, 110
1, 66077, Control_c, 0, 7, 31
1, 66080, Control_c, 1, 7, 28
1, 66082, Control_c, 3, 11, 109
1, 66083, Control_c, 3, 7, 32
1, 66089, Control_c, 3, 11, 108
1, 66103, Control_c, 3, 11, 107
1, 66109, Control_c, 4, 7, 25
1, 66110, Control_c, 3, 11, 106
1, 66113, Control_c, 0, 7, 30
1, 66117, Control_c, 3, 11, 105
1, 66117, Control_c, 3, 7, 31
1, 66120, Control_c, 1, 7, 27
1, 66124, Control_c, 3, 11, 104
1, 66131, Control_c, 3, 11, 103
1, 66138, Control_c, 3, 11, 102
1, 66149, Control_c, 0, 7, 29
1, 66152, Control_c, 4, 7, 24
1, 66152, Control_c, 3, 11, 101
1, 66152, Control_c, 3, 7, 30
1, 66159, Control_c, 3, 11, 100
1, 66160, Control_c, 1, 7, 26
1, 66166, Control_c, 3, 11, 99
1, 66173, Control_c, 3, 11, 98
1, 66180, Control_c, 3, 11, 97
1, 66185, Control_c, 0, 7, 28
1, 66187, Control_c, 3, 11, 96
1, 66187, Control_c, 3, 7, 29
1, 66194, Control_c, 3, 11, 95
1, 66196, Control_c, 4, 7, 23
1, 66200, Control_c, 1, 7, 25
1, 66201, Control_c, 3, 11, 94
1, 66208, Control_c, 3, 11, 93
1, 66215, Control_c, 3, 11, 92
1, 66221, Control_c, 0, 7, 27
1, 66222, Control_c, 3, 11, 91
1, 66222, Control_c, 3, 7, 28
1, 66229, Control_c, 3, 11, 90
1, 66236, Control_c, 3, 11, 88
1, 66240, Note_off_c, 1, 70, 64
1, 66240, Control_c, 4, 7, 22
1, 66240, Note_on_c, 1, 70, 100
1, 66240, Control_c, 1, 7, 24
1, 66243, Control_c, 3, 11, 87
1, 66250, Control_c, 3, 11, 86
1, 66257, Control_c, 3, 11, 85
1, 66257, Control_c, 3, 7, 27
1, 66258, Control_c, 0, 7, 26
1, 66264, Control_c, 3, 11, 84
1, 66271, Control_c, 3, 11, 83
1, 66278, Control_c, 3, 11, 81
1, 66280, Control_c, 1, 7, 23
1, 66283, Control_c, 4, 7, 21
1, 66285, Control_c, 3, 11, 80
1, 66292, Control_c, 3, 11, 79
1, 66292, Control_c, 3, 7, 26
1, 66294, Control_c, 0, 7, 25
1, 66299, Control_c, 3, 11, 78
1, 66306, Control_c, 3, 11, 76
1, 66313, Control_c, 3, 11, 75
1, 66320, Control_c, 1, 7, 22
1, 66320, Control_c, 3, 11, 74
1, 66327, Control_c, 4, 7, 20
1, 66327, Control_c, 3, 11, 72
1, 66327, Control_c, 3, 7, 25
1, 66330, Control_c, 0, 7, 24
1, 66334, Control_c, 3, 11, 71
1, 66341, Control_c, 3, 11, 70
1, 66348, Control_c, 3, 11, 68
1, 66355, Control_c, 3, 11, 67
1, 66360, Control_c, 1, 7, 21
1, 66362, Control_c, 3, 11, 66
1, 66362, Control_c, 3, 7, 24
1, 66366, Control_c, 0, 7, 23
1, 66369, Control_c, 3, 11, 64
1, 66370, Control_c, 4, 7, 19
1, 66376, Control_c, 3, 11, 63
1, 66383, Control_c, 3, 11, 61
1, 66390, Control_c, 3, 11, 60
1, 66397, Control_c, 3, 11, 58
1, 66397, Control_c, 3, 7, 23
1, 66400, Control_c, 1, 7, 20
1, 66403, Control_c, 0, 7, 22
1, 66404, Control_c, 3, 11, 57
1, 66411, Control_c, 3, 11, 55
1, 66414, Control_c, 4, 7, 18
1, 66418, Control_c, 3, 11, 54
1, 66425, Control_c, 3, 11, 52
1, 66432, Control_c, 3, 11, 51
1, 66432, Control_c, 3, 7, 22
1, 66439, Control_c, 0, 7, 21
1, 66439, Control_c, 3, 11, 49
1, 66440, Control_c, 1, 7, 19
1, 66446, Control_c, 3, 11, 47
1, 66453, Control_c, 3, 11, 46
1, 66458, Control_c, 4, 7, 17
1, 66460, Control_c, 3, 11, 44
1, 66466, Control_c, 3, 7, 21
1, 66467, Control_c, 3, 11, 43
1, 66474, Control_c, 3, 11, 41
1, 66475, Control_c, 0, 7, 20
1, 66480, Note_off_c, 3, 62, 64
1, 66480, Control_c, 3, 11, 40
1, 66480, Note_on_c, 1, 74, 100
1, 66480, Control_c, 1, 7, 18
1, 66501, Control_c, 4, 7, 16
1, 66501, Control_c, 3, 7, 20
1, 66511, Control_c, 0, 7, 19
1, 66520, Control_c, 1, 7, 17
1, 66536, Control_c, 3, 7, 19
1, 66545, Control_c, 4, 7, 15
1, 66547, Control_c, 0, 7, 18
1, 66560, Control_c, 1, 7, 16
1, 66571, Control_c, 3, 7, 18
1, 66584, Control_c, 0, 7, 17
1, 66589, Control_c, 4, 7, 14
1, 66600, Control_c, 1, 7, 15
1, 66606, Control_c, 3, 7, 17
1, 66620, Control_c, 0, 7, 16
1, 66632, Control_c, 4, 7, 13
1, 66640, Control_c, 1, 7, 14
1, 66641, Control_c, 3, 7, 16
1, 66656, Control_c, 0, 7, 15
1, 66676, Control_c, 4, 7, 12
1, 66676, Control_c, 3, 7, 15
1, 66680, Control_c, 1, 7, 13
1, 66692, Control_c, 0, 7, 14
1, 66711, Control_c, 3, 7, 14
1, 66720, Note_off_c, 4, 74, 64
1, 66720, Control_c, 1, 7, 12
1, 66720, Control_c, 3, 11, 127
1, 66720, Note_on_c, 4, 77, 100
1, 66720, Control_c, 4, 7, 11
1, 66720, Note_on_c, 3, 65, 100
1, 66729, Control_c, 0, 7, 13
1, 66746, Control_c, 3, 7, 13
1, 66760, Control_c, 1, 7, 11
1, 66763, Control_c, 4, 7, 10
1, 66765, Control_c, 0, 7, 12
1, 66781, Control_c, 3, 7, 12
1, 66800, Control_c, 1, 7, 10
1, 66801, Control_c, 0, 7, 11
1, 66807, Control_c, 4, 7, 9
1, 66816, Control_c, 3, 7, 11
1, 66837, Control_c, 0, 7, 10
1, 66840, Control_c, 1, 7, 9
1, 66850, Control_c, 4, 7, 8
1, 66850, Control_c, 3, 7, 10
1, 66873, Control_c, 0, 7, 9
1, 66880, Control_c, 1, 7, 8
1, 66885, Control_c, 3, 7, 9
1, 66894, Control_c, 4, 7, 7
1, 66910, Control_c, 0, 7, 8
1, 66920, Control_c, 1, 7, 7
1, 66920, Control_c, 3, 7, 8
1, 66938, Control_c, 4, 7, 6
1, 66946, Control_c, 0, 7, 7
1, 66955, Control_c, 3, 7, 7
1, 66960, Note_off_c, 4, 77, 64
1, 66960, Note_off_c, 3, 65, 64
1, 66960, Control_c, 1, 7, 6
1, 66960, Note_on_c, 4, 79, 100
1, 66960, Note_on_c, 3, 67, 100
1, 66981, Control_c, 4, 7, 5
1, 66982, Control_c, 0, 7, 6
1, 66990, Control_c, 3, 7, 6
1, 67000, Control_c, 1, 7, 5
1, 67018, Control_c, 0, 7, 5
1, 67025, Control_c, 4, 7, 4
1, 67025, Control_c, 3, 7, 5
1, 67040, Control_c, 1, 7, 4
1, 67055, Control_c, 0, 7, 4
1, 67060, Control_c, 3, 7, 4
1, 67069, Control_c, 4, 7, 3
1, 67080, Control_c, 1, 7, 3
1, 67091, Control_c, 0, 7, 3
1, 67095, Control_c, 3, 7, 3
1, 67112, Control_c, 4, 7, 2
1, 67120, Control_c, 1, 7, 2
1, 67127, Control_c, 0, 7, 2
1, 67130, Control_c, 3, 7, 2
1, 67156, Control_c, 4, 7, 1
1, 67160, Control_c, 1, 7, 1
1, 67163, Control_c, 0, 7, 1
1, 67165, Control_c, 3, 7, 1
1, 67199, Control_c, 4, 7, 0
1, 67199, Control_c, 1, 7, 0
1, 67199, Control_c, 0, 7, 0
1, 67199, Control_c, 3, 7, 0
1, 67200, End_track
0, 0, End_of_file
